{"asset":{"version":"2.0","generator":"Star Warfare Unity lightmap restoration"},"scene":0,"scenes":[{"nodes":[0]}],"nodes":[{"name":"RestoredStage","mesh":0}],"meshes":[{"name":"RestoredStage","primitives":[{"attributes":{"POSITION":0,"NORMAL":1,"TEXCOORD_0":2,"TEXCOORD_1":3},"indices":4,"material":0},{"attributes":{"POSITION":5,"NORMAL":6,"TEXCOORD_0":7,"TEXCOORD_1":8},"indices":9,"material":1},{"attributes":{"POSITION":10,"NORMAL":11,"TEXCOORD_0":12,"TEXCOORD_1":13},"indices":14,"material":2},{"attributes":{"POSITION":15,"NORMAL":16,"TEXCOORD_0":17,"TEXCOORD_1":18},"indices":19,"material":3},{"attributes":{"POSITION":20,"NORMAL":21,"TEXCOORD_0":22,"TEXCOORD_1":23},"indices":24,"material":4},{"attributes":{"POSITION":25,"NORMAL":26,"TEXCOORD_0":27,"TEXCOORD_1":28},"indices":29,"material":5},{"attributes":{"POSITION":30,"NORMAL":31,"TEXCOORD_0":32,"TEXCOORD_1":33},"indices":34,"material":6},{"attributes":{"POSITION":35,"NORMAL":36,"TEXCOORD_0":37,"TEXCOORD_1":38},"indices":39,"material":7},{"attributes":{"POSITION":40,"NORMAL":41,"TEXCOORD_0":42,"TEXCOORD_1":43},"indices":44,"material":8}]}],"bufferViews":[{"buffer":0,"byteOffset":0,"byteLength":123948},{"buffer":0,"byteOffset":123948,"byteLength":123948},{"buffer":0,"byteOffset":247896,"byteLength":82632},{"buffer":0,"byteOffset":330528,"byteLength":82632},{"buffer":0,"byteOffset":413160,"byteLength":72600},{"buffer":0,"byteOffset":485760,"byteLength":9900},{"buffer":0,"byteOffset":495660,"byteLength":9900},{"buffer":0,"byteOffset":505560,"byteLength":6600},{"buffer":0,"byteOffset":512160,"byteLength":6600},{"buffer":0,"byteOffset":518760,"byteLength":6444},{"buffer":0,"byteOffset":525204,"byteLength":1464},{"buffer":0,"byteOffset":526668,"byteLength":1464},{"buffer":0,"byteOffset":528132,"byteLength":976},{"buffer":0,"byteOffset":529108,"byteLength":976},{"buffer":0,"byteOffset":530084,"byteLength":1728},{"buffer":0,"byteOffset":531812,"byteLength":3312},{"buffer":0,"byteOffset":535124,"byteLength":3312},{"buffer":0,"byteOffset":538436,"byteLength":2208},{"buffer":0,"byteOffset":540644,"byteLength":2208},{"buffer":0,"byteOffset":542852,"byteLength":2064},{"buffer":0,"byteOffset":544916,"byteLength":13512},{"buffer":0,"byteOffset":558428,"byteLength":13512},{"buffer":0,"byteOffset":571940,"byteLength":9008},{"buffer":0,"byteOffset":580948,"byteLength":9008},{"buffer":0,"byteOffset":589956,"byteLength":11484},{"buffer":0,"byteOffset":601440,"byteLength":864},{"buffer":0,"byteOffset":602304,"byteLength":864},{"buffer":0,"byteOffset":603168,"byteLength":576},{"buffer":0,"byteOffset":603744,"byteLength":576},{"buffer":0,"byteOffset":604320,"byteLength":432},{"buffer":0,"byteOffset":604752,"byteLength":14880},{"buffer":0,"byteOffset":619632,"byteLength":14880},{"buffer":0,"byteOffset":634512,"byteLength":9920},{"buffer":0,"byteOffset":644432,"byteLength":9920},{"buffer":0,"byteOffset":654352,"byteLength":11040},{"buffer":0,"byteOffset":665392,"byteLength":1008},{"buffer":0,"byteOffset":666400,"byteLength":1008},{"buffer":0,"byteOffset":667408,"byteLength":672},{"buffer":0,"byteOffset":668080,"byteLength":672},{"buffer":0,"byteOffset":668752,"byteLength":936},{"buffer":0,"byteOffset":669688,"byteLength":3648},{"buffer":0,"byteOffset":673336,"byteLength":3648},{"buffer":0,"byteOffset":676984,"byteLength":2432},{"buffer":0,"byteOffset":679416,"byteLength":2432},{"buffer":0,"byteOffset":681848,"byteLength":5496}],"accessors":[{"bufferView":0,"componentType":5126,"count":10329,"type":"VEC3","min":[-59.3791885,-5.53425789,-56.187088],"max":[61.81987,20.3134651,56.1870804]},{"bufferView":1,"componentType":5126,"count":10329,"type":"VEC3","min":[-1.0,-1.0,-1.0],"max":[1.0,1.0,1.0]},{"bufferView":2,"componentType":5126,"count":10329,"type":"VEC2"},{"bufferView":3,"componentType":5126,"count":10329,"type":"VEC2"},{"bufferView":4,"componentType":5125,"count":18150,"type":"SCALAR"},{"bufferView":5,"componentType":5126,"count":825,"type":"VEC3","min":[-111.583267,-1.73878813,-75.6797638],"max":[53.823597,29.1724243,75.6797562]},{"bufferView":6,"componentType":5126,"count":825,"type":"VEC3","min":[-1.0,-1.0,-1.0],"max":[1.0,1.0,1.0]},{"bufferView":7,"componentType":5126,"count":825,"type":"VEC2"},{"bufferView":8,"componentType":5126,"count":825,"type":"VEC2"},{"bufferView":9,"componentType":5125,"count":1611,"type":"SCALAR"},{"bufferView":10,"componentType":5126,"count":122,"type":"VEC3","min":[-202.023331,-34.0964241,-216.644104],"max":[217.860138,256.895447,203.23941]},{"bufferView":11,"componentType":5126,"count":122,"type":"VEC3","min":[-0.997567803,-1.0,-0.997567803],"max":[0.997567803,0.195184494,0.997567803]},{"bufferView":12,"componentType":5126,"count":122,"type":"VEC2"},{"bufferView":13,"componentType":5126,"count":122,"type":"VEC2"},{"bufferView":14,"componentType":5125,"count":432,"type":"SCALAR"},{"bufferView":15,"componentType":5126,"count":276,"type":"VEC3","min":[-63.5414009,-5.7036209e-06,-54.9712257],"max":[67.3683319,38.416584,54.6987991]},{"bufferView":16,"componentType":5126,"count":276,"type":"VEC3","min":[-0.977198896,-0.925394547,-0.994954627],"max":[0.969410635,1.0,0.996233166]},{"bufferView":17,"componentType":5126,"count":276,"type":"VEC2"},{"bufferView":18,"componentType":5126,"count":276,"type":"VEC2"},{"bufferView":19,"componentType":5125,"count":516,"type":"SCALAR"},{"bufferView":20,"componentType":5126,"count":1126,"type":"VEC3","min":[-85.5447998,-0.275354534,-54.9712257],"max":[67.3683319,38.6967354,54.6987991]},{"bufferView":21,"componentType":5126,"count":1126,"type":"VEC3","min":[-0.981585323,-0.888838296,-0.995001591],"max":[0.999995597,1.0,0.994650364]},{"bufferView":22,"componentType":5126,"count":1126,"type":"VEC2"},{"bufferView":23,"componentType":5126,"count":1126,"type":"VEC2"},{"bufferView":24,"componentType":5125,"count":2871,"type":"SCALAR"},{"bufferView":25,"componentType":5126,"count":72,"type":"VEC3","min":[-50.2373581,-0.289411157,-44.0547485],"max":[21.7029037,4.19009113,44.0547333]},{"bufferView":26,"componentType":5126,"count":72,"type":"VEC3","min":[-0.420451208,0.868453471,0.0],"max":[0.495770682,0.90731515,1.19258742e-07]},{"bufferView":27,"componentType":5126,"count":72,"type":"VEC2"},{"bufferView":28,"componentType":5126,"count":72,"type":"VEC2"},{"bufferView":29,"componentType":5125,"count":108,"type":"SCALAR"},{"bufferView":30,"componentType":5126,"count":1240,"type":"VEC3","min":[-85.4556656,-0.0856697038,-75.1815643],"max":[49.9008789,33.3024902,56.0571938]},{"bufferView":31,"componentType":5126,"count":1240,"type":"VEC3","min":[-0.971790262,-1.0,-1.0],"max":[1.0,1.0,1.0]},{"bufferView":32,"componentType":5126,"count":1240,"type":"VEC2"},{"bufferView":33,"componentType":5126,"count":1240,"type":"VEC2"},{"bufferView":34,"componentType":5125,"count":2760,"type":"SCALAR"},{"bufferView":35,"componentType":5126,"count":84,"type":"VEC3","min":[-29.6603031,-0.187511697,-58.0215759],"max":[143.118164,6.138309,49.4141579]},{"bufferView":36,"componentType":5126,"count":84,"type":"VEC3","min":[-0.863905952,0.0756326617,-0.965033356],"max":[0.542755374,0.947556147,0.965033356]},{"bufferView":37,"componentType":5126,"count":84,"type":"VEC2"},{"bufferView":38,"componentType":5126,"count":84,"type":"VEC2"},{"bufferView":39,"componentType":5125,"count":234,"type":"SCALAR"},{"bufferView":40,"componentType":5126,"count":304,"type":"VEC3","min":[-30.881052,-0.187505826,-84.3027954],"max":[160.743042,42.8941422,75.7125092]},{"bufferView":41,"componentType":5126,"count":304,"type":"VEC3","min":[-0.954944875,0.140038705,-0.98905148],"max":[0.665643026,0.996702542,0.923201208]},{"bufferView":42,"componentType":5126,"count":304,"type":"VEC2"},{"bufferView":43,"componentType":5126,"count":304,"type":"VEC2"},{"bufferView":44,"componentType":5125,"count":1374,"type":"SCALAR"}],"materials":[{"name":"wall_03_0","pbrMetallicRoughness":{"baseColorFactor":[1.0,1.0,1.0,1.0],"metallicFactor":0.0,"roughnessFactor":1.0,"baseColorTexture":{"index":0}},"doubleSided":false},{"name":"wall_03_1","pbrMetallicRoughness":{"baseColorFactor":[1.0,1.0,1.0,1.0],"metallicFactor":0.0,"roughnessFactor":1.0,"baseColorTexture":{"index":0}},"doubleSided":false},{"name":"Standard_1_0","pbrMetallicRoughness":{"baseColorFactor":[1.0,1.0,1.0,1.0],"metallicFactor":0.0,"roughnessFactor":1.0,"baseColorTexture":{"index":1}},"doubleSided":false},{"name":"wall_08_0","pbrMetallicRoughness":{"baseColorFactor":[1.0,1.0,1.0,1.0],"metallicFactor":0.0,"roughnessFactor":1.0,"baseColorTexture":{"index":2}},"doubleSided":false},{"name":"wall_07_0","pbrMetallicRoughness":{"baseColorFactor":[1.0,1.0,1.0,1.0],"metallicFactor":0.0,"roughnessFactor":1.0,"baseColorTexture":{"index":3}},"doubleSided":false},{"name":"wall_04_0","pbrMetallicRoughness":{"baseColorFactor":[1.0,1.0,1.0,1.0],"metallicFactor":0.0,"roughnessFactor":1.0,"baseColorTexture":{"index":4}},"doubleSided":false},{"name":"wall_07_1","pbrMetallicRoughness":{"baseColorFactor":[1.0,1.0,1.0,1.0],"metallicFactor":0.0,"roughnessFactor":1.0,"baseColorTexture":{"index":3}},"doubleSided":false},{"name":"mot_2_0","pbrMetallicRoughness":{"baseColorFactor":[1.0,1.0,1.0,1.0],"metallicFactor":0.0,"roughnessFactor":1.0,"baseColorTexture":{"index":5}},"doubleSided":false},{"name":"mot_1_0","pbrMetallicRoughness":{"baseColorFactor":[1.0,1.0,1.0,1.0],"metallicFactor":0.0,"roughnessFactor":1.0,"baseColorTexture":{"index":6}},"doubleSided":false}],"images":[{"uri":"wall_L_03_T.png"},{"uri":"sky.png"},{"uri":"wall_L_08_T.png"},{"uri":"wall_L_07_T.png"},{"uri":"wall_L_04_T.png"},{"uri":"MOT_02.png"},{"uri":"MOT_01.png"}],"textures":[{"source":0,"sampler":0},{"source":1,"sampler":0},{"source":2,"sampler":0},{"source":3,"sampler":0},{"source":4,"sampler":0},{"source":5,"sampler":0},{"source":6,"sampler":0}],"samplers":[{"magFilter":9729,"minFilter":9987,"wrapS":10497,"wrapT":10497}],"buffers":[{"uri":"stage.bin","byteLength":687344}]}
