{"asset":{"version":"2.0","generator":"Star Warfare Unity lightmap restoration"},"scene":0,"scenes":[{"nodes":[0]}],"nodes":[{"name":"RestoredStage","mesh":0}],"meshes":[{"name":"RestoredStage","primitives":[{"attributes":{"POSITION":0,"NORMAL":1,"TEXCOORD_0":2,"TEXCOORD_1":3},"indices":4,"material":0},{"attributes":{"POSITION":5,"NORMAL":6,"TEXCOORD_0":7,"TEXCOORD_1":8},"indices":9,"material":1},{"attributes":{"POSITION":10,"NORMAL":11,"TEXCOORD_0":12,"TEXCOORD_1":13},"indices":14,"material":2},{"attributes":{"POSITION":15,"NORMAL":16,"TEXCOORD_0":17,"TEXCOORD_1":18},"indices":19,"material":3},{"attributes":{"POSITION":20,"NORMAL":21,"TEXCOORD_0":22,"TEXCOORD_1":23},"indices":24,"material":4},{"attributes":{"POSITION":25,"NORMAL":26,"TEXCOORD_0":27,"TEXCOORD_1":28},"indices":29,"material":5}]}],"bufferViews":[{"buffer":0,"byteOffset":0,"byteLength":3168},{"buffer":0,"byteOffset":3168,"byteLength":3168},{"buffer":0,"byteOffset":6336,"byteLength":2112},{"buffer":0,"byteOffset":8448,"byteLength":2112},{"buffer":0,"byteOffset":10560,"byteLength":1440},{"buffer":0,"byteOffset":12000,"byteLength":2304},{"buffer":0,"byteOffset":14304,"byteLength":2304},{"buffer":0,"byteOffset":16608,"byteLength":1536},{"buffer":0,"byteOffset":18144,"byteLength":1536},{"buffer":0,"byteOffset":19680,"byteLength":1152},{"buffer":0,"byteOffset":20832,"byteLength":5184},{"buffer":0,"byteOffset":26016,"byteLength":5184},{"buffer":0,"byteOffset":31200,"byteLength":3456},{"buffer":0,"byteOffset":34656,"byteLength":3456},{"buffer":0,"byteOffset":38112,"byteLength":4608},{"buffer":0,"byteOffset":42720,"byteLength":10512},{"buffer":0,"byteOffset":53232,"byteLength":10512},{"buffer":0,"byteOffset":63744,"byteLength":7008},{"buffer":0,"byteOffset":70752,"byteLength":7008},{"buffer":0,"byteOffset":77760,"byteLength":6048},{"buffer":0,"byteOffset":83808,"byteLength":4404},{"buffer":0,"byteOffset":88212,"byteLength":4404},{"buffer":0,"byteOffset":92616,"byteLength":2936},{"buffer":0,"byteOffset":95552,"byteLength":2936},{"buffer":0,"byteOffset":98488,"byteLength":2532},{"buffer":0,"byteOffset":101020,"byteLength":72864},{"buffer":0,"byteOffset":173884,"byteLength":72864},{"buffer":0,"byteOffset":246748,"byteLength":48576},{"buffer":0,"byteOffset":295324,"byteLength":48576},{"buffer":0,"byteOffset":343900,"byteLength":40368}],"accessors":[{"bufferView":0,"componentType":5126,"count":264,"type":"VEC3","min":[-9.63291932,16.1557882,-7.62052819],"max":[9.36717224,16.9714639,11.379571]},{"bufferView":1,"componentType":5126,"count":264,"type":"VEC3","min":[-0.719138466,-0.993073092,-0.719138466],"max":[0.719138466,-0.694857058,0.719138466]},{"bufferView":2,"componentType":5126,"count":264,"type":"VEC2"},{"bufferView":3,"componentType":5126,"count":264,"type":"VEC2"},{"bufferView":4,"componentType":5125,"count":360,"type":"SCALAR"},{"bufferView":5,"componentType":5126,"count":192,"type":"VEC3","min":[-11.1243439,16.1557889,-9.11195656],"max":[10.8585968,17.1731991,12.8709956]},{"bufferView":6,"componentType":5126,"count":192,"type":"VEC3","min":[-0.924008118,-0.871596202,-0.923991268],"max":[0.924008118,-0.382372851,0.923991268]},{"bufferView":7,"componentType":5126,"count":192,"type":"VEC2"},{"bufferView":8,"componentType":5126,"count":192,"type":"VEC2"},{"bufferView":9,"componentType":5125,"count":288,"type":"SCALAR"},{"bufferView":10,"componentType":5126,"count":432,"type":"VEC3","min":[-32.1391869,13.1973419,-18.6299248],"max":[32.6607399,16.6279316,10.3605623]},{"bufferView":11,"componentType":5126,"count":432,"type":"VEC3","min":[-0.88137106,0.472341259,-0.88137106],"max":[0.88137106,0.472628046,0.88137106]},{"bufferView":12,"componentType":5126,"count":432,"type":"VEC2"},{"bufferView":13,"componentType":5126,"count":432,"type":"VEC2"},{"bufferView":14,"componentType":5125,"count":1152,"type":"SCALAR"},{"bufferView":15,"componentType":5126,"count":876,"type":"VEC3","min":[-47.4763069,7.5024519,-27.0808105],"max":[47.0020218,17.1030769,23.1948719]},{"bufferView":16,"componentType":5126,"count":876,"type":"VEC3","min":[-1.0,-1.0,-1.0],"max":[1.0,1.0,1.0]},{"bufferView":17,"componentType":5126,"count":876,"type":"VEC2"},{"bufferView":18,"componentType":5126,"count":876,"type":"VEC2"},{"bufferView":19,"componentType":5125,"count":1512,"type":"SCALAR"},{"bufferView":20,"componentType":5126,"count":367,"type":"VEC3","min":[-47.601387,-0.421078503,-22.5062618],"max":[47.9099579,8.8576479,27.6054707]},{"bufferView":21,"componentType":5126,"count":367,"type":"VEC3","min":[-0.999951982,-0.0464656501,-1.0],"max":[0.999999341,0.724950645,1.0]},{"bufferView":22,"componentType":5126,"count":367,"type":"VEC2"},{"bufferView":23,"componentType":5126,"count":367,"type":"VEC2"},{"bufferView":24,"componentType":5125,"count":633,"type":"SCALAR"},{"bufferView":25,"componentType":5126,"count":6072,"type":"VEC3","min":[-47.5806427,-0.406275541,-27.543335],"max":[47.8749847,17.3215656,28.0414867]},{"bufferView":26,"componentType":5126,"count":6072,"type":"VEC3","min":[-1.0,-1.0,-1.0],"max":[1.0,1.0,1.0]},{"bufferView":27,"componentType":5126,"count":6072,"type":"VEC2"},{"bufferView":28,"componentType":5126,"count":6072,"type":"VEC2"},{"bufferView":29,"componentType":5125,"count":10092,"type":"SCALAR"}],"materials":[{"name":"house_01_0_Tiled_48","pbrMetallicRoughness":{"baseColorFactor":[1.0,1.0,1.0,1.0],"metallicFactor":0.0,"roughnessFactor":1.0,"baseColorTexture":{"index":0}},"doubleSided":false},{"name":"house_01_0_Tiled_135","pbrMetallicRoughness":{"baseColorFactor":[1.0,1.0,1.0,1.0],"metallicFactor":0.0,"roughnessFactor":1.0,"baseColorTexture":{"index":0}},"doubleSided":false},{"name":"Standard_17","pbrMetallicRoughness":{"baseColorFactor":[1.0,1.0,1.0,1.0],"metallicFactor":0.0,"roughnessFactor":1.0,"baseColorTexture":{"index":1}},"doubleSided":false,"alphaMode":"BLEND"},{"name":"wall_003_0","pbrMetallicRoughness":{"baseColorFactor":[1.0,1.0,1.0,1.0],"metallicFactor":0.0,"roughnessFactor":1.0,"baseColorTexture":{"index":2}},"doubleSided":false},{"name":"collision","pbrMetallicRoughness":{"baseColorFactor":[0.588235,0.588235,0.588235,1.0],"metallicFactor":0.0,"roughnessFactor":1.0},"doubleSided":false},{"name":"house_01_0","pbrMetallicRoughness":{"baseColorFactor":[1.0,1.0,1.0,1.0],"metallicFactor":0.0,"roughnessFactor":1.0,"baseColorTexture":{"index":0}},"doubleSided":false}],"images":[{"uri":"house_01.png"},{"uri":"mask_003.png"},{"uri":"wall_003.png"}],"textures":[{"source":0,"sampler":0},{"source":1,"sampler":0},{"source":2,"sampler":0}],"samplers":[{"magFilter":9729,"minFilter":9987,"wrapS":10497,"wrapT":10497}],"buffers":[{"uri":"stage.bin","byteLength":384268}]}
