# Generated from legacy Unity YAML Mesh assets without Unity.
mtllib ArmorBag_07.mtl

o ArmorBag_07_00_Bag
v -0.0878412128 -0.358785957 -0.102888443
v 0.080443181 -0.187016726 -0.0490800478
v 0.0878411829 -0.358785957 -0.102888063
v -0.0804432109 -0.187017202 -0.0490800478
v 0.0713423863 -0.021403946 -0.0514820702
v -0.0713424162 -0.021403946 -0.0514820702
v 0.0713423863 0.00522244722 -0.128774062
v -0.0713424162 0.00522244722 -0.128774434
v -0.0878412128 -0.335187197 -0.157693252
v 0.0878411829 -0.335187197 -0.157693252
v 0.229537979 0.181728482 0.218504727
v 0.216343164 0.178922385 0.121374734
v 0.325735554 0.0105796233 0.100165159
v 0.298235163 -0.0320580155 -0.162217647
v 0.254788771 -0.321207553 -0.214612439
v 0.265058353 -0.376093507 -0.119014435
v 0.177992374 0.102651529 -0.184967637
v 0.0871999785 0.0238065124 0.13676393
v 0.229537979 0.181728482 0.218504727
v 0.0587503835 -0.00447642058 -0.121899255
v 0.0746883824 -0.383039117 -0.0933568552
v 0.0644187778 -0.328152806 -0.188955247
v 0.265058353 -0.376093507 -0.119014435
v 0.0644187778 -0.328152806 -0.188955247
v 0.0746883824 -0.383039117 -0.0933568552
v 0.254788771 -0.321207553 -0.214612439
v 0.325735554 0.0105796233 0.100165159
v 0.196740374 -0.0267136246 0.0106455665
v 0.229537979 0.181728482 0.218504727
v 0.0871999785 0.0238065124 0.13676393
v 0.126444787 -0.0800692141 0.00847033039
v 0.0746883824 -0.383039117 -0.0933568552
v 0.258991167 -0.0898879617 -0.00834246911
v 0.265058353 -0.376093507 -0.119014435
v 0.194731966 -0.224927574 0.0256263576
v 0.214221567 -0.203514338 0.221780747
v 0.260531172 -0.283493936 0.115017541
v 0.265058353 -0.376093507 -0.119014435
v 0.130801573 -0.273883581 0.131472751
v 0.0746883824 -0.383039117 -0.0933568552
v 0.298235163 -0.0320580155 -0.162217647
v 0.0644187778 -0.328152806 -0.188955247
v 0.254788771 -0.321207553 -0.214612439
v 0.0587503835 -0.00447642058 -0.121899255
v 0.177992374 0.102651529 -0.184967637
v 0.258991167 -0.0898879617 -0.00834246911
v 0.214221567 -0.203514338 0.221780747
v 0.196740374 -0.0267136246 0.0106455665
v 0.260531172 -0.283493936 0.115017541
v 0.265058353 -0.376093507 -0.119014435
v 0.196740374 -0.0267136246 0.0106455665
v 0.130801573 -0.273883581 0.131472751
v 0.126444787 -0.0800692141 0.00847033039
v 0.0746883824 -0.383039117 -0.0933568552
v -0.229538009 0.181728482 0.218504727
v -0.325735584 0.0105796233 0.100165159
v -0.216343194 0.178922385 0.121374734
v -0.298235193 -0.0320580155 -0.162217647
v -0.254788801 -0.321207553 -0.214612439
v -0.265058383 -0.376093507 -0.119014435
v -0.177992404 0.102651529 -0.184967637
v -0.0872000084 0.0238065124 0.13676393
v -0.229538009 0.181728482 0.218504727
v -0.0587504134 -0.00447642058 -0.121899255
v -0.0746884123 -0.383039117 -0.0933568552
v -0.0644188077 -0.328152806 -0.188955247
v -0.265058383 -0.376093507 -0.119014435
v -0.0644188077 -0.328152806 -0.188955247
v -0.254788801 -0.321207553 -0.214612439
v -0.0746884123 -0.383039117 -0.0933568552
v -0.325735584 0.0105796233 0.100165159
v -0.229538009 0.181728482 0.218504727
v -0.196740404 -0.0267136246 0.0106455665
v -0.0872000084 0.0238065124 0.13676393
v -0.126444817 -0.0800692141 0.00847033039
v -0.0746884123 -0.383039117 -0.0933568552
v -0.258991197 -0.0898879617 -0.00834246911
v -0.265058383 -0.376093507 -0.119014435
v -0.194731996 -0.224927574 0.0256263576
v -0.260531202 -0.283493936 0.115017541
v -0.214221597 -0.203514338 0.221780747
v -0.265058383 -0.376093507 -0.119014435
v -0.130801603 -0.273883581 0.131472751
v -0.0746884123 -0.383039117 -0.0933568552
v -0.298235193 -0.0320580155 -0.162217647
v -0.0644188077 -0.328152806 -0.188955247
v -0.0587504134 -0.00447642058 -0.121899255
v -0.254788801 -0.321207553 -0.214612439
v -0.177992404 0.102651529 -0.184967637
v -0.258991197 -0.0898879617 -0.00834246911
v -0.214221597 -0.203514338 0.221780747
v -0.260531202 -0.283493936 0.115017541
v -0.196740404 -0.0267136246 0.0106455665
v -0.265058383 -0.376093507 -0.119014435
v -0.196740404 -0.0267136246 0.0106455665
v -0.130801603 -0.273883581 0.131472751
v -0.126444817 -0.0800692141 0.00847033039
v -0.0746884123 -0.383039117 -0.0933568552
vt 0.0126470001 0.0604699999
vt 0.209674999 0.210360005
vt 0.209674999 0.0604699999
vt 0.0126470001 0.210323006
vt 0.209674999 0.341015011
vt 0.0126470001 0.341015011
vt 0.209674999 0.407853007
vt 0.0126470001 0.407853007
vt 0.0126470001 0.00411099987
vt 0.209674999 0.00411099987
vt 0.692605972 0.994225979
vt 0.650705993 0.910224974
vt 0.458539009 0.969851017
vt 0.32109499 0.742516994
vt 0.0257920008 0.821972013
vt 0.0190239996 0.935743988
vt 0.487895012 0.634352028
vt 0.800852001 0.79124999
vt 0.692605972 0.994225979
vt 0.660933971 0.568382978
vt 0.994795978 0.369363993
vt 0.892123997 0.321575999
vt 0.261353999 0.487302005
vt 0.423729002 0.605360985
vt 0.423729002 0.487302005
vt 0.261353999 0.605360985
vt 0.801603019 0.0725319982
vt 0.703015983 0.209360003
vt 0.993394971 0.207590997
vt 0.813548982 0.339962989
vt 0.657310009 0.282855004
vt 0.357540011 0.423680991
vt 0.652302027 0.136317
vt 0.344907999 0.00918699987
vt 0.455543995 0.203116998
vt 0.627129018 0.212084994
vt 0.518546999 0.114487998
vt 0.253704011 0.081449002
vt 0.51157701 0.302738994
vt 0.253704011 0.321520001
vt 0.980782986 0.807806015
vt 0.845210016 0.989282012
vt 0.982397974 0.989282012
vt 0.845210016 0.808079004
vt 0.908937991 0.736887991
vt 0.229177997 0.662093997
vt 0.0165049993 0.791042984
vt 0.269187003 0.736099005
vt 0.016423 0.663947999
vt 0.015137 0.43661201
vt 0.269187003 0.736099005
vt 0.0164219998 0.663947999
vt 0.229177997 0.662093997
vt 0.015137 0.43661201
vt 0.692605972 0.994225979
vt 0.458539009 0.969851017
vt 0.650705993 0.910224974
vt 0.32109499 0.742516994
vt 0.0257920008 0.821972013
vt 0.0190239996 0.935743988
vt 0.487895012 0.634352028
vt 0.800852001 0.79124999
vt 0.692605972 0.994225979
vt 0.660933971 0.568382978
vt 0.994795978 0.369363993
vt 0.892123997 0.321575999
vt 0.261353999 0.487302005
vt 0.423729002 0.605360985
vt 0.261353999 0.605360985
vt 0.423729002 0.487302005
vt 0.801603019 0.0725319982
vt 0.993394971 0.207590997
vt 0.703015983 0.209360003
vt 0.813548982 0.339962989
vt 0.657310009 0.282855004
vt 0.357540011 0.423680991
vt 0.652302027 0.136317
vt 0.344907999 0.00918699987
vt 0.455543995 0.203116998
vt 0.518546999 0.114487998
vt 0.627129018 0.212084994
vt 0.253704011 0.081449002
vt 0.51157701 0.302738994
vt 0.253704011 0.321520001
vt 0.980782986 0.807806015
vt 0.845210016 0.989282012
vt 0.845210016 0.808079004
vt 0.982397974 0.989282012
vt 0.908937991 0.736887991
vt 0.229177997 0.662093997
vt 0.0165049993 0.791042984
vt 0.016423 0.663947999
vt 0.269187003 0.736099005
vt 0.015137 0.43661201
vt 0.269187003 0.736099005
vt 0.0164219998 0.663947999
vt 0.229177997 0.662093997
vt 0.015137 0.43661201
vn -5.07257876e-07 -0.459162047 0.888352528
vn -4.72282089e-07 -0.205381326 0.978682028
vn -1.55961092e-06 -0.795284518 0.60623637
vn 3.13006749e-07 -0.10123304 0.99486274
vn -2.06977753e-08 0.212468403 0.977167937
vn -2.58098103e-07 0.582843609 0.812584351
vn -4.25184611e-07 0.945471263 0.325705528
vn -8.5036739e-07 0.945471505 0.325704827
vn 4.27697184e-07 -0.918470741 -0.395488936
vn 0 -0.918471239 -0.39548778
vn 0.82418632 0.55168661 -0.127901499
vn 0.281461525 0.937185223 -0.206066175
vn 0.980290172 0.143571233 -0.135714698
vn 0.930835004 0.321859724 -0.173067946
vn 0.988175035 -0.108854474 -0.107985198
vn 0.986548169 -0.0714763068 -0.147016487
vn -0.303831225 0.939143088 -0.16030236
vn -0.918472939 0.393298926 0.0415140444
vn -0.761581366 0.642484484 0.084897059
vn -0.981967679 0.169425538 0.0838717104
vn -0.993782127 -0.0338418872 0.106074557
vn -0.995611305 -0.0353843807 0.0866376111
vn -0.03500379 -0.868318439 -0.494770476
vn -0.03500379 -0.868318439 -0.494770476
vn -0.0350035555 -0.86831817 -0.494770964
vn -0.0350040244 -0.868318707 -0.494769988
vn -0.462240472 -0.515865579 0.721260321
vn 0.0670138371 -0.694626076 0.716242808
vn 0.0682040975 -0.709832084 0.701061063
vn 0.59084917 -0.54361623 0.596136437
vn 0.724906232 -0.40989088 0.553624803
vn 0.812768157 -0.305558154 0.496026347
vn -0.588421427 -0.379935643 0.713729032
vn -0.683512825 -0.27582056 0.675820417
vn 0.0403310489 -0.899846036 0.434339175
vn -0.0589905656 -0.991713826 0.11412187
vn -0.781612579 -0.595680147 0.185059286
vn -0.300007952 -0.728662907 0.61566679
vn 0.69900306 -0.708870451 0.0943260596
vn 0.434180811 -0.728448415 0.529952762
vn -0.152855396 0.101467223 -0.983025753
vn -0.139431392 0.197722487 -0.970291041
vn -0.138002463 0.196632548 -0.970716726
vn -0.160049335 0.051318568 -0.98577412
vn -0.193490433 -0.328818505 -0.924359153
vn 0.965330341 0.188222589 0.180857927
vn 0.314193269 0.677621024 0.664915286
vn 0.706544439 0.570268512 0.41903315
vn 0.991067974 0.0771788748 0.108755191
vn 0.999785237 0.0161931342 0.0129329842
vn -0.698682433 0.455913821 0.551348752
vn -0.879483149 0.283796134 0.382059085
vn -0.910227823 0.207115879 0.35859214
vn -0.975690631 0.101375235 0.194295792
vn -0.82418632 0.55168661 -0.127901499
vn -0.980290172 0.143571233 -0.135714698
vn -0.281461525 0.937185223 -0.206066175
vn -0.930835004 0.321859724 -0.173067946
vn -0.988175035 -0.108854474 -0.107985198
vn -0.986548169 -0.0714763068 -0.147016487
vn 0.303831225 0.939143088 -0.16030236
vn 0.918472939 0.393298926 0.0415140444
vn 0.761581366 0.642484484 0.084897059
vn 0.981967679 0.169425538 0.0838717104
vn 0.993782127 -0.0338418872 0.106074557
vn 0.995611305 -0.0353843807 0.0866376111
vn 0.03500379 -0.868318439 -0.494770476
vn 0.03500379 -0.868318439 -0.494770476
vn 0.0350040244 -0.868318707 -0.494769988
vn 0.0350035555 -0.86831817 -0.494770964
vn 0.462240472 -0.515865579 0.721260321
vn -0.0682040975 -0.709832084 0.701061063
vn -0.0670138371 -0.694626076 0.716242808
vn -0.59084917 -0.54361623 0.596136437
vn -0.724906232 -0.40989088 0.553624803
vn -0.812768157 -0.305558154 0.496026347
vn 0.588421427 -0.379935643 0.713729032
vn 0.683512825 -0.27582056 0.675820417
vn -0.0403310489 -0.899846036 0.434339175
vn 0.781612579 -0.595680147 0.185059286
vn 0.0589905656 -0.991713826 0.11412187
vn 0.300007952 -0.728662907 0.61566679
vn -0.69900306 -0.708870451 0.0943260596
vn -0.434180811 -0.728448415 0.529952762
vn 0.152855396 0.101467223 -0.983025753
vn 0.139431392 0.197722487 -0.970291041
vn 0.160049335 0.051318568 -0.98577412
vn 0.138002463 0.196632548 -0.970716726
vn 0.193490433 -0.328818505 -0.924359153
vn -0.965330341 0.188222589 0.180857927
vn -0.314193269 0.677621024 0.664915286
vn -0.991067974 0.0771788748 0.108755191
vn -0.706544439 0.570268512 0.41903315
vn -0.999785237 0.0161931342 0.0129329842
vn 0.698682433 0.455913821 0.551348752
vn 0.879483149 0.283796134 0.382059085
vn 0.910227823 0.207115879 0.35859214
vn 0.975690631 0.101375235 0.194295792

g ArmorBag_07_00_Bag_submesh_0
usemtl 08
f 1/1/1 3/3/3 2/2/2
f 1/1/1 2/2/2 4/4/4
f 4/4/4 2/2/2 5/5/5
f 4/4/4 5/5/5 6/6/6
f 6/6/6 5/5/5 7/7/7
f 6/6/6 7/7/7 8/8/8
f 3/3/3 1/1/1 9/9/9
f 3/3/3 9/9/9 10/10/10
f 11/11/11 13/13/13 12/12/12
f 12/12/12 13/13/13 14/14/14
f 13/13/13 15/15/15 14/14/14
f 13/13/13 16/16/16 15/15/15
f 12/12/12 14/14/14 17/17/17
f 18/18/18 12/12/12 17/17/17
f 18/18/18 19/19/19 12/12/12
f 18/18/18 17/17/17 20/20/20
f 21/21/21 18/18/18 20/20/20
f 21/21/21 20/20/20 22/22/22
f 23/23/23 25/25/25 24/24/24
f 23/23/23 24/24/24 26/26/26
f 27/27/27 29/29/29 28/28/28
f 29/29/29 30/30/30 28/28/28
f 30/30/30 31/31/31 28/28/28
f 30/30/30 32/32/32 31/31/31
f 33/33/33 27/27/27 28/28/28
f 34/34/34 27/27/27 33/33/33
f 35/35/35 37/37/37 36/36/36
f 35/35/35 38/38/38 37/37/37
f 39/39/39 35/35/35 36/36/36
f 40/40/40 35/35/35 39/39/39
f 40/40/40 38/38/38 35/35/35
f 41/41/41 43/43/43 42/42/42
f 41/41/41 42/42/42 44/44/44
f 41/41/41 44/44/44 45/45/45
f 46/46/46 48/48/48 47/47/47
f 46/46/46 47/47/47 49/49/49
f 50/50/50 46/46/46 49/49/49
f 51/51/51 52/52/52 47/47/47
f 51/51/51 53/53/53 52/52/52
f 53/53/53 54/54/54 52/52/52
f 55/55/55 57/57/57 56/56/56
f 57/57/57 58/58/58 56/56/56
f 56/56/56 58/58/58 59/59/59
f 56/56/56 59/59/59 60/60/60
f 57/57/57 61/61/61 58/58/58
f 62/62/62 61/61/61 57/57/57
f 62/62/62 57/57/57 63/63/63
f 62/62/62 64/64/64 61/61/61
f 65/65/65 64/64/64 62/62/62
f 65/65/65 66/66/66 64/64/64
f 67/67/67 69/69/69 68/68/68
f 67/67/67 68/68/68 70/70/70
f 71/71/71 73/73/73 72/72/72
f 72/72/72 73/73/73 74/74/74
f 74/74/74 73/73/73 75/75/75
f 74/74/74 75/75/75 76/76/76
f 77/77/77 73/73/73 71/71/71
f 78/78/78 77/77/77 71/71/71
f 79/79/79 81/81/81 80/80/80
f 79/79/79 80/80/80 82/82/82
f 83/83/83 81/81/81 79/79/79
f 84/84/84 83/83/83 79/79/79
f 84/84/84 79/79/79 82/82/82
f 85/85/85 87/87/87 86/86/86
f 85/85/85 86/86/86 88/88/88
f 85/85/85 89/89/89 87/87/87
f 90/90/90 92/92/92 91/91/91
f 90/90/90 91/91/91 93/93/93
f 94/94/94 92/92/92 90/90/90
f 95/95/95 91/91/91 96/96/96
f 95/95/95 96/96/96 97/97/97
f 97/97/97 96/96/96 98/98/98
