# Generated from legacy Unity YAML Mesh assets without Unity.
mtllib collision.mtl

o collision_ground
v 69.5293198 1.41366733e-14 -61.6939582
v -1.0305481 0 1.9719582
v -1.0305481 1.41366733e-14 -61.6939582
v 69.5293198 0 1.9719582
v -71.590416 0 1.9719582
v -71.590416 1.41366733e-14 -61.6939582
v -1.0305481 -1.41366733e-14 65.6378746
v 69.5293198 -1.41366733e-14 65.6378746
v -71.590416 -1.41366733e-14 65.6378746
vt 0.010000499 0.00999920815
vt 13.5344181 13.5344181
vt 13.5344181 0.00999920815
vt 0.010000499 13.5344181
vt 27.0588341 13.5344181
vt 27.0588341 0.00999920815
vt 13.5344181 27.0588341
vt 0.010000499 27.0588341
vt 27.0588341 27.0588341
vn 0 1 2.22044605e-16
vn 0 1 2.22044605e-16
vn 0 1 2.22044605e-16
vn 0 1 2.22044605e-16
vn 0 1 2.22044605e-16
vn 0 1 2.22044605e-16
vn 0 1 2.22044605e-16
vn 0 1 2.22044605e-16
vn 0 1 2.22044605e-16

g collision_ground_submesh_0
usemtl collision
f 1/1/1 3/3/3 2/2/2
f 1/1/1 2/2/2 4/4/4
f 3/3/3 5/5/5 2/2/2
f 3/3/3 6/6/6 5/5/5
f 4/4/4 2/2/2 7/7/7
f 4/4/4 7/7/7 8/8/8
f 2/2/2 5/5/5 9/9/9
f 2/2/2 9/9/9 7/7/7
