{"asset":{"version":"2.0","generator":"Star Warfare Unity lightmap restoration"},"scene":0,"scenes":[{"nodes":[0]}],"nodes":[{"name":"RestoredStage","mesh":0}],"meshes":[{"name":"RestoredStage","primitives":[{"attributes":{"POSITION":0,"NORMAL":1,"TEXCOORD_0":2,"TEXCOORD_1":3},"indices":4,"material":0},{"attributes":{"POSITION":5,"NORMAL":6,"TEXCOORD_0":7,"TEXCOORD_1":8},"indices":9,"material":1},{"attributes":{"POSITION":10,"NORMAL":11,"TEXCOORD_0":12,"TEXCOORD_1":13},"indices":14,"material":2},{"attributes":{"POSITION":15,"NORMAL":16,"TEXCOORD_0":17,"TEXCOORD_1":18},"indices":19,"material":3},{"attributes":{"POSITION":20,"NORMAL":21,"TEXCOORD_0":22,"TEXCOORD_1":23},"indices":24,"material":4},{"attributes":{"POSITION":25,"NORMAL":26,"TEXCOORD_0":27,"TEXCOORD_1":28},"indices":29,"material":5},{"attributes":{"POSITION":30,"NORMAL":31,"TEXCOORD_0":32,"TEXCOORD_1":33},"indices":34,"material":6},{"attributes":{"POSITION":35,"NORMAL":36,"TEXCOORD_0":37,"TEXCOORD_1":38},"indices":39,"material":7},{"attributes":{"POSITION":40,"NORMAL":41,"TEXCOORD_0":42,"TEXCOORD_1":43},"indices":44,"material":8},{"attributes":{"POSITION":45,"NORMAL":46,"TEXCOORD_0":47,"TEXCOORD_1":48},"indices":49,"material":9},{"attributes":{"POSITION":50,"NORMAL":51,"TEXCOORD_0":52,"TEXCOORD_1":53},"indices":54,"material":10},{"attributes":{"POSITION":55,"NORMAL":56,"TEXCOORD_0":57,"TEXCOORD_1":58},"indices":59,"material":11},{"attributes":{"POSITION":60,"NORMAL":61,"TEXCOORD_0":62,"TEXCOORD_1":63},"indices":64,"material":12},{"attributes":{"POSITION":65,"NORMAL":66,"TEXCOORD_0":67,"TEXCOORD_1":68},"indices":69,"material":13},{"attributes":{"POSITION":70,"NORMAL":71,"TEXCOORD_0":72,"TEXCOORD_1":73},"indices":74,"material":14},{"attributes":{"POSITION":75,"NORMAL":76,"TEXCOORD_0":77,"TEXCOORD_1":78},"indices":79,"material":15},{"attributes":{"POSITION":80,"NORMAL":81,"TEXCOORD_0":82,"TEXCOORD_1":83},"indices":84,"material":16},{"attributes":{"POSITION":85,"NORMAL":86,"TEXCOORD_0":87,"TEXCOORD_1":88},"indices":89,"material":17},{"attributes":{"POSITION":90,"NORMAL":91,"TEXCOORD_0":92,"TEXCOORD_1":93},"indices":94,"material":18},{"attributes":{"POSITION":95,"NORMAL":96,"TEXCOORD_0":97,"TEXCOORD_1":98},"indices":99,"material":19},{"attributes":{"POSITION":100,"NORMAL":101,"TEXCOORD_0":102,"TEXCOORD_1":103},"indices":104,"material":20},{"attributes":{"POSITION":105,"NORMAL":106,"TEXCOORD_0":107,"TEXCOORD_1":108},"indices":109,"material":21},{"attributes":{"POSITION":110,"NORMAL":111,"TEXCOORD_0":112,"TEXCOORD_1":113},"indices":114,"material":22},{"attributes":{"POSITION":115,"NORMAL":116,"TEXCOORD_0":117,"TEXCOORD_1":118},"indices":119,"material":23},{"attributes":{"POSITION":120,"NORMAL":121,"TEXCOORD_0":122,"TEXCOORD_1":123},"indices":124,"material":24},{"attributes":{"POSITION":125,"NORMAL":126,"TEXCOORD_0":127,"TEXCOORD_1":128},"indices":129,"material":25},{"attributes":{"POSITION":130,"NORMAL":131,"TEXCOORD_0":132,"TEXCOORD_1":133},"indices":134,"material":26},{"attributes":{"POSITION":135,"NORMAL":136,"TEXCOORD_0":137,"TEXCOORD_1":138},"indices":139,"material":27},{"attributes":{"POSITION":140,"NORMAL":141,"TEXCOORD_0":142,"TEXCOORD_1":143},"indices":144,"material":28},{"attributes":{"POSITION":145,"NORMAL":146,"TEXCOORD_0":147,"TEXCOORD_1":148},"indices":149,"material":29},{"attributes":{"POSITION":150,"NORMAL":151,"TEXCOORD_0":152,"TEXCOORD_1":153},"indices":154,"material":30},{"attributes":{"POSITION":155,"NORMAL":156,"TEXCOORD_0":157,"TEXCOORD_1":158},"indices":159,"material":31},{"attributes":{"POSITION":160,"NORMAL":161,"TEXCOORD_0":162,"TEXCOORD_1":163},"indices":164,"material":32},{"attributes":{"POSITION":165,"NORMAL":166,"TEXCOORD_0":167,"TEXCOORD_1":168},"indices":169,"material":33},{"attributes":{"POSITION":170,"NORMAL":171,"TEXCOORD_0":172,"TEXCOORD_1":173},"indices":174,"material":34},{"attributes":{"POSITION":175,"NORMAL":176,"TEXCOORD_0":177,"TEXCOORD_1":178},"indices":179,"material":35},{"attributes":{"POSITION":180,"NORMAL":181,"TEXCOORD_0":182,"TEXCOORD_1":183},"indices":184,"material":36},{"attributes":{"POSITION":185,"NORMAL":186,"TEXCOORD_0":187,"TEXCOORD_1":188},"indices":189,"material":37},{"attributes":{"POSITION":190,"NORMAL":191,"TEXCOORD_0":192,"TEXCOORD_1":193},"indices":194,"material":38},{"attributes":{"POSITION":195,"NORMAL":196,"TEXCOORD_0":197,"TEXCOORD_1":198},"indices":199,"material":39},{"attributes":{"POSITION":200,"NORMAL":201,"TEXCOORD_0":202,"TEXCOORD_1":203},"indices":204,"material":40},{"attributes":{"POSITION":205,"NORMAL":206,"TEXCOORD_0":207,"TEXCOORD_1":208},"indices":209,"material":41},{"attributes":{"POSITION":210,"NORMAL":211,"TEXCOORD_0":212,"TEXCOORD_1":213},"indices":214,"material":42},{"attributes":{"POSITION":215,"NORMAL":216,"TEXCOORD_0":217,"TEXCOORD_1":218},"indices":219,"material":43},{"attributes":{"POSITION":220,"NORMAL":221,"TEXCOORD_0":222,"TEXCOORD_1":223},"indices":224,"material":44}]}],"bufferViews":[{"buffer":0,"byteOffset":0,"byteLength":3432},{"buffer":0,"byteOffset":3432,"byteLength":3432},{"buffer":0,"byteOffset":6864,"byteLength":2288},{"buffer":0,"byteOffset":9152,"byteLength":2288},{"buffer":0,"byteOffset":11440,"byteLength":1920},{"buffer":0,"byteOffset":13360,"byteLength":864},{"buffer":0,"byteOffset":14224,"byteLength":864},{"buffer":0,"byteOffset":15088,"byteLength":576},{"buffer":0,"byteOffset":15664,"byteLength":576},{"buffer":0,"byteOffset":16240,"byteLength":432},{"buffer":0,"byteOffset":16672,"byteLength":1656},{"buffer":0,"byteOffset":18328,"byteLength":1656},{"buffer":0,"byteOffset":19984,"byteLength":1104},{"buffer":0,"byteOffset":21088,"byteLength":1104},{"buffer":0,"byteOffset":22192,"byteLength":1368},{"buffer":0,"byteOffset":23560,"byteLength":936},{"buffer":0,"byteOffset":24496,"byteLength":936},{"buffer":0,"byteOffset":25432,"byteLength":624},{"buffer":0,"byteOffset":26056,"byteLength":624},{"buffer":0,"byteOffset":26680,"byteLength":648},{"buffer":0,"byteOffset":27328,"byteLength":2892},{"buffer":0,"byteOffset":30220,"byteLength":2892},{"buffer":0,"byteOffset":33112,"byteLength":1928},{"buffer":0,"byteOffset":35040,"byteLength":1928},{"buffer":0,"byteOffset":36968,"byteLength":1824},{"buffer":0,"byteOffset":38792,"byteLength":3276},{"buffer":0,"byteOffset":42068,"byteLength":3276},{"buffer":0,"byteOffset":45344,"byteLength":2184},{"buffer":0,"byteOffset":47528,"byteLength":2184},{"buffer":0,"byteOffset":49712,"byteLength":2016},{"buffer":0,"byteOffset":51728,"byteLength":768},{"buffer":0,"byteOffset":52496,"byteLength":768},{"buffer":0,"byteOffset":53264,"byteLength":512},{"buffer":0,"byteOffset":53776,"byteLength":512},{"buffer":0,"byteOffset":54288,"byteLength":384},{"buffer":0,"byteOffset":54672,"byteLength":816},{"buffer":0,"byteOffset":55488,"byteLength":816},{"buffer":0,"byteOffset":56304,"byteLength":544},{"buffer":0,"byteOffset":56848,"byteLength":544},{"buffer":0,"byteOffset":57392,"byteLength":528},{"buffer":0,"byteOffset":57920,"byteLength":3168},{"buffer":0,"byteOffset":61088,"byteLength":3168},{"buffer":0,"byteOffset":64256,"byteLength":2112},{"buffer":0,"byteOffset":66368,"byteLength":2112},{"buffer":0,"byteOffset":68480,"byteLength":1824},{"buffer":0,"byteOffset":70304,"byteLength":480},{"buffer":0,"byteOffset":70784,"byteLength":480},{"buffer":0,"byteOffset":71264,"byteLength":320},{"buffer":0,"byteOffset":71584,"byteLength":320},{"buffer":0,"byteOffset":71904,"byteLength":240},{"buffer":0,"byteOffset":72144,"byteLength":1560},{"buffer":0,"byteOffset":73704,"byteLength":1560},{"buffer":0,"byteOffset":75264,"byteLength":1040},{"buffer":0,"byteOffset":76304,"byteLength":1040},{"buffer":0,"byteOffset":77344,"byteLength":912},{"buffer":0,"byteOffset":78256,"byteLength":3072},{"buffer":0,"byteOffset":81328,"byteLength":3072},{"buffer":0,"byteOffset":84400,"byteLength":2048},{"buffer":0,"byteOffset":86448,"byteLength":2048},{"buffer":0,"byteOffset":88496,"byteLength":2256},{"buffer":0,"byteOffset":90752,"byteLength":1032},{"buffer":0,"byteOffset":91784,"byteLength":1032},{"buffer":0,"byteOffset":92816,"byteLength":688},{"buffer":0,"byteOffset":93504,"byteLength":688},{"buffer":0,"byteOffset":94192,"byteLength":552},{"buffer":0,"byteOffset":94744,"byteLength":2112},{"buffer":0,"byteOffset":96856,"byteLength":2112},{"buffer":0,"byteOffset":98968,"byteLength":1408},{"buffer":0,"byteOffset":100376,"byteLength":1408},{"buffer":0,"byteOffset":101784,"byteLength":1056},{"buffer":0,"byteOffset":102840,"byteLength":2412},{"buffer":0,"byteOffset":105252,"byteLength":2412},{"buffer":0,"byteOffset":107664,"byteLength":1608},{"buffer":0,"byteOffset":109272,"byteLength":1608},{"buffer":0,"byteOffset":110880,"byteLength":1296},{"buffer":0,"byteOffset":112176,"byteLength":792},{"buffer":0,"byteOffset":112968,"byteLength":792},{"buffer":0,"byteOffset":113760,"byteLength":528},{"buffer":0,"byteOffset":114288,"byteLength":528},{"buffer":0,"byteOffset":114816,"byteLength":672},{"buffer":0,"byteOffset":115488,"byteLength":576},{"buffer":0,"byteOffset":116064,"byteLength":576},{"buffer":0,"byteOffset":116640,"byteLength":384},{"buffer":0,"byteOffset":117024,"byteLength":384},{"buffer":0,"byteOffset":117408,"byteLength":288},{"buffer":0,"byteOffset":117696,"byteLength":4200},{"buffer":0,"byteOffset":121896,"byteLength":4200},{"buffer":0,"byteOffset":126096,"byteLength":2800},{"buffer":0,"byteOffset":128896,"byteLength":2800},{"buffer":0,"byteOffset":131696,"byteLength":2136},{"buffer":0,"byteOffset":133832,"byteLength":192},{"buffer":0,"byteOffset":134024,"byteLength":192},{"buffer":0,"byteOffset":134216,"byteLength":128},{"buffer":0,"byteOffset":134344,"byteLength":128},{"buffer":0,"byteOffset":134472,"byteLength":120},{"buffer":0,"byteOffset":134592,"byteLength":240},{"buffer":0,"byteOffset":134832,"byteLength":240},{"buffer":0,"byteOffset":135072,"byteLength":160},{"buffer":0,"byteOffset":135232,"byteLength":160},{"buffer":0,"byteOffset":135392,"byteLength":120},{"buffer":0,"byteOffset":135512,"byteLength":288},{"buffer":0,"byteOffset":135800,"byteLength":288},{"buffer":0,"byteOffset":136088,"byteLength":192},{"buffer":0,"byteOffset":136280,"byteLength":192},{"buffer":0,"byteOffset":136472,"byteLength":144},{"buffer":0,"byteOffset":136616,"byteLength":7224},{"buffer":0,"byteOffset":143840,"byteLength":7224},{"buffer":0,"byteOffset":151064,"byteLength":4816},{"buffer":0,"byteOffset":155880,"byteLength":4816},{"buffer":0,"byteOffset":160696,"byteLength":4488},{"buffer":0,"byteOffset":165184,"byteLength":672},{"buffer":0,"byteOffset":165856,"byteLength":672},{"buffer":0,"byteOffset":166528,"byteLength":448},{"buffer":0,"byteOffset":166976,"byteLength":448},{"buffer":0,"byteOffset":167424,"byteLength":432},{"buffer":0,"byteOffset":167856,"byteLength":2064},{"buffer":0,"byteOffset":169920,"byteLength":2064},{"buffer":0,"byteOffset":171984,"byteLength":1376},{"buffer":0,"byteOffset":173360,"byteLength":1376},{"buffer":0,"byteOffset":174736,"byteLength":1392},{"buffer":0,"byteOffset":176128,"byteLength":744},{"buffer":0,"byteOffset":176872,"byteLength":744},{"buffer":0,"byteOffset":177616,"byteLength":496},{"buffer":0,"byteOffset":178112,"byteLength":496},{"buffer":0,"byteOffset":178608,"byteLength":588},{"buffer":0,"byteOffset":179196,"byteLength":252},{"buffer":0,"byteOffset":179448,"byteLength":252},{"buffer":0,"byteOffset":179700,"byteLength":168},{"buffer":0,"byteOffset":179868,"byteLength":168},{"buffer":0,"byteOffset":180036,"byteLength":132},{"buffer":0,"byteOffset":180168,"byteLength":4848},{"buffer":0,"byteOffset":185016,"byteLength":4848},{"buffer":0,"byteOffset":189864,"byteLength":3232},{"buffer":0,"byteOffset":193096,"byteLength":3232},{"buffer":0,"byteOffset":196328,"byteLength":2424},{"buffer":0,"byteOffset":198752,"byteLength":1008},{"buffer":0,"byteOffset":199760,"byteLength":1008},{"buffer":0,"byteOffset":200768,"byteLength":672},{"buffer":0,"byteOffset":201440,"byteLength":672},{"buffer":0,"byteOffset":202112,"byteLength":768},{"buffer":0,"byteOffset":202880,"byteLength":2100},{"buffer":0,"byteOffset":204980,"byteLength":2100},{"buffer":0,"byteOffset":207080,"byteLength":1400},{"buffer":0,"byteOffset":208480,"byteLength":1400},{"buffer":0,"byteOffset":209880,"byteLength":3168},{"buffer":0,"byteOffset":213048,"byteLength":6360},{"buffer":0,"byteOffset":219408,"byteLength":6360},{"buffer":0,"byteOffset":225768,"byteLength":4240},{"buffer":0,"byteOffset":230008,"byteLength":4240},{"buffer":0,"byteOffset":234248,"byteLength":3672},{"buffer":0,"byteOffset":237920,"byteLength":1152},{"buffer":0,"byteOffset":239072,"byteLength":1152},{"buffer":0,"byteOffset":240224,"byteLength":768},{"buffer":0,"byteOffset":240992,"byteLength":768},{"buffer":0,"byteOffset":241760,"byteLength":648},{"buffer":0,"byteOffset":242408,"byteLength":1464},{"buffer":0,"byteOffset":243872,"byteLength":1464},{"buffer":0,"byteOffset":245336,"byteLength":976},{"buffer":0,"byteOffset":246312,"byteLength":976},{"buffer":0,"byteOffset":247288,"byteLength":816},{"buffer":0,"byteOffset":248104,"byteLength":108},{"buffer":0,"byteOffset":248212,"byteLength":108},{"buffer":0,"byteOffset":248320,"byteLength":72},{"buffer":0,"byteOffset":248392,"byteLength":72},{"buffer":0,"byteOffset":248464,"byteLength":96},{"buffer":0,"byteOffset":248560,"byteLength":2328},{"buffer":0,"byteOffset":250888,"byteLength":2328},{"buffer":0,"byteOffset":253216,"byteLength":1552},{"buffer":0,"byteOffset":254768,"byteLength":1552},{"buffer":0,"byteOffset":256320,"byteLength":1656},{"buffer":0,"byteOffset":257976,"byteLength":1920},{"buffer":0,"byteOffset":259896,"byteLength":1920},{"buffer":0,"byteOffset":261816,"byteLength":1280},{"buffer":0,"byteOffset":263096,"byteLength":1280},{"buffer":0,"byteOffset":264376,"byteLength":1440},{"buffer":0,"byteOffset":265816,"byteLength":1656},{"buffer":0,"byteOffset":267472,"byteLength":1656},{"buffer":0,"byteOffset":269128,"byteLength":1104},{"buffer":0,"byteOffset":270232,"byteLength":1104},{"buffer":0,"byteOffset":271336,"byteLength":840},{"buffer":0,"byteOffset":272176,"byteLength":288},{"buffer":0,"byteOffset":272464,"byteLength":288},{"buffer":0,"byteOffset":272752,"byteLength":192},{"buffer":0,"byteOffset":272944,"byteLength":192},{"buffer":0,"byteOffset":273136,"byteLength":144},{"buffer":0,"byteOffset":273280,"byteLength":480},{"buffer":0,"byteOffset":273760,"byteLength":480},{"buffer":0,"byteOffset":274240,"byteLength":320},{"buffer":0,"byteOffset":274560,"byteLength":320},{"buffer":0,"byteOffset":274880,"byteLength":240},{"buffer":0,"byteOffset":275120,"byteLength":32724},{"buffer":0,"byteOffset":307844,"byteLength":32724},{"buffer":0,"byteOffset":340568,"byteLength":21816},{"buffer":0,"byteOffset":362384,"byteLength":21816},{"buffer":0,"byteOffset":384200,"byteLength":26988},{"buffer":0,"byteOffset":411188,"byteLength":5436},{"buffer":0,"byteOffset":416624,"byteLength":5436},{"buffer":0,"byteOffset":422060,"byteLength":3624},{"buffer":0,"byteOffset":425684,"byteLength":3624},{"buffer":0,"byteOffset":429308,"byteLength":3852},{"buffer":0,"byteOffset":433160,"byteLength":8160},{"buffer":0,"byteOffset":441320,"byteLength":8160},{"buffer":0,"byteOffset":449480,"byteLength":5440},{"buffer":0,"byteOffset":454920,"byteLength":5440},{"buffer":0,"byteOffset":460360,"byteLength":4992},{"buffer":0,"byteOffset":465352,"byteLength":480},{"buffer":0,"byteOffset":465832,"byteLength":480},{"buffer":0,"byteOffset":466312,"byteLength":320},{"buffer":0,"byteOffset":466632,"byteLength":320},{"buffer":0,"byteOffset":466952,"byteLength":240},{"buffer":0,"byteOffset":467192,"byteLength":624},{"buffer":0,"byteOffset":467816,"byteLength":624},{"buffer":0,"byteOffset":468440,"byteLength":416},{"buffer":0,"byteOffset":468856,"byteLength":416},{"buffer":0,"byteOffset":469272,"byteLength":336},{"buffer":0,"byteOffset":469608,"byteLength":1956},{"buffer":0,"byteOffset":471564,"byteLength":1956},{"buffer":0,"byteOffset":473520,"byteLength":1304},{"buffer":0,"byteOffset":474824,"byteLength":1304},{"buffer":0,"byteOffset":476128,"byteLength":1296},{"buffer":0,"byteOffset":477424,"byteLength":96},{"buffer":0,"byteOffset":477520,"byteLength":96},{"buffer":0,"byteOffset":477616,"byteLength":64},{"buffer":0,"byteOffset":477680,"byteLength":64},{"buffer":0,"byteOffset":477744,"byteLength":72}],"accessors":[{"bufferView":0,"componentType":5126,"count":286,"type":"VEC3","min":[-31.6466599,-0.322388798,-43.3913231],"max":[-6.86275578,12.6484814,29.6370716]},{"bufferView":1,"componentType":5126,"count":286,"type":"VEC3","min":[-1.0,-1.0,-1.0],"max":[1.0,1.0,1.0]},{"bufferView":2,"componentType":5126,"count":286,"type":"VEC2"},{"bufferView":3,"componentType":5126,"count":286,"type":"VEC2"},{"bufferView":4,"componentType":5125,"count":480,"type":"SCALAR"},{"bufferView":5,"componentType":5126,"count":72,"type":"VEC3","min":[-26.4186687,-0.145712718,-43.3913193],"max":[-6.86275578,6.7443819,28.5647964]},{"bufferView":6,"componentType":5126,"count":72,"type":"VEC3","min":[-1.0,-1.0,-1.0],"max":[1.0,1.0,1.0]},{"bufferView":7,"componentType":5126,"count":72,"type":"VEC2"},{"bufferView":8,"componentType":5126,"count":72,"type":"VEC2"},{"bufferView":9,"componentType":5125,"count":108,"type":"SCALAR"},{"bufferView":10,"componentType":5126,"count":138,"type":"VEC3","min":[4.31357479,-4.29685997e-06,-33.7435303],"max":[31.9485512,12.2856331,17.5977135]},{"bufferView":11,"componentType":5126,"count":138,"type":"VEC3","min":[-1.0,-0.999999897,-1.0],"max":[1.0,1.1920929e-07,1.0]},{"bufferView":12,"componentType":5126,"count":138,"type":"VEC2"},{"bufferView":13,"componentType":5126,"count":138,"type":"VEC2"},{"bufferView":14,"componentType":5125,"count":342,"type":"SCALAR"},{"bufferView":15,"componentType":5126,"count":78,"type":"VEC3","min":[3.37334633,5.77014685,-33.7435303],"max":[33.175663,13.2634315,17.5977211]},{"bufferView":16,"componentType":5126,"count":78,"type":"VEC3","min":[-1.0,-1.1920929e-07,-1.0],"max":[1.0,0.482612401,1.0]},{"bufferView":17,"componentType":5126,"count":78,"type":"VEC2"},{"bufferView":18,"componentType":5126,"count":78,"type":"VEC2"},{"bufferView":19,"componentType":5125,"count":162,"type":"SCALAR"},{"bufferView":20,"componentType":5126,"count":241,"type":"VEC3","min":[2.5958662,-0.145712718,-34.0242386],"max":[33.6249428,13.2634344,26.2480469]},{"bufferView":21,"componentType":5126,"count":241,"type":"VEC3","min":[-1.0,-1.0,-1.0],"max":[1.0,1.0,1.0]},{"bufferView":22,"componentType":5126,"count":241,"type":"VEC2"},{"bufferView":23,"componentType":5126,"count":241,"type":"VEC2"},{"bufferView":24,"componentType":5125,"count":456,"type":"SCALAR"},{"bufferView":25,"componentType":5126,"count":273,"type":"VEC3","min":[10.817174,13.1065731,-28.2658348],"max":[30.8628807,25.9124355,-4.5515132]},{"bufferView":26,"componentType":5126,"count":273,"type":"VEC3","min":[-1.0,-1.0,-1.0],"max":[1.0,1.0,1.0]},{"bufferView":27,"componentType":5126,"count":273,"type":"VEC2"},{"bufferView":28,"componentType":5126,"count":273,"type":"VEC2"},{"bufferView":29,"componentType":5125,"count":504,"type":"SCALAR"},{"bufferView":30,"componentType":5126,"count":64,"type":"VEC3","min":[35.8034592,-0.0985731259,-14.7078161],"max":[50.4102783,10.5019379,-1.87108529]},{"bufferView":31,"componentType":5126,"count":64,"type":"VEC3","min":[-1.0,-1.0,-1.0],"max":[1.0,1.1920929e-07,1.0]},{"bufferView":32,"componentType":5126,"count":64,"type":"VEC2"},{"bufferView":33,"componentType":5126,"count":64,"type":"VEC2"},{"bufferView":34,"componentType":5125,"count":96,"type":"SCALAR"},{"bufferView":35,"componentType":5126,"count":68,"type":"VEC3","min":[-66.940506,-0.0367860347,21.8604546],"max":[-16.2415581,6.03005552,67.4216156]},{"bufferView":36,"componentType":5126,"count":68,"type":"VEC3","min":[-1.0,-1.0,-1.0],"max":[1.0,1.0,1.1920929e-07]},{"bufferView":37,"componentType":5126,"count":68,"type":"VEC2"},{"bufferView":38,"componentType":5126,"count":68,"type":"VEC2"},{"bufferView":39,"componentType":5125,"count":132,"type":"SCALAR"},{"bufferView":40,"componentType":5126,"count":264,"type":"VEC3","min":[-14.5984859,-0.232165232,-2.7423389],"max":[-8.50971222,5.63350964,11.7095881]},{"bufferView":41,"componentType":5126,"count":264,"type":"VEC3","min":[-1.0,-0.99904727,-1.0],"max":[1.0,1.0,1.0]},{"bufferView":42,"componentType":5126,"count":264,"type":"VEC2"},{"bufferView":43,"componentType":5126,"count":264,"type":"VEC2"},{"bufferView":44,"componentType":5125,"count":456,"type":"SCALAR"},{"bufferView":45,"componentType":5126,"count":40,"type":"VEC3","min":[-70.5195923,3.91229129,-11.9274473],"max":[-57.1586571,9.72739887,14.5425014]},{"bufferView":46,"componentType":5126,"count":40,"type":"VEC3","min":[0.116115913,-5.96309451e-08,-0.9611082],"max":[1.0,0.897181632,0.9611082]},{"bufferView":47,"componentType":5126,"count":40,"type":"VEC2"},{"bufferView":48,"componentType":5126,"count":40,"type":"VEC2"},{"bufferView":49,"componentType":5125,"count":60,"type":"SCALAR"},{"bufferView":50,"componentType":5126,"count":130,"type":"VEC3","min":[34.5905609,-0.0726389363,-23.2741737],"max":[51.5211945,6.50148439,5.22768068]},{"bufferView":51,"componentType":5126,"count":130,"type":"VEC3","min":[-1.0,-1.0,-1.0],"max":[1.0,1.0,1.0]},{"bufferView":52,"componentType":5126,"count":130,"type":"VEC2"},{"bufferView":53,"componentType":5126,"count":130,"type":"VEC2"},{"bufferView":54,"componentType":5125,"count":228,"type":"SCALAR"},{"bufferView":55,"componentType":5126,"count":256,"type":"VEC3","min":[15.3051081,-0.015944697,-18.0580196],"max":[31.7544098,5.87836504,-3.04164553]},{"bufferView":56,"componentType":5126,"count":256,"type":"VEC3","min":[-1.0,-0.999991786,-1.0],"max":[1.0,1.0,1.0]},{"bufferView":57,"componentType":5126,"count":256,"type":"VEC2"},{"bufferView":58,"componentType":5126,"count":256,"type":"VEC2"},{"bufferView":59,"componentType":5125,"count":564,"type":"SCALAR"},{"bufferView":60,"componentType":5126,"count":86,"type":"VEC3","min":[47.5049934,-2.19782233,18.4914684],"max":[66.1424103,6.2590394,51.582058]},{"bufferView":61,"componentType":5126,"count":86,"type":"VEC3","min":[-1.0,-0.928544048,-1.0],"max":[1.0,0.999997753,1.0]},{"bufferView":62,"componentType":5126,"count":86,"type":"VEC2"},{"bufferView":63,"componentType":5126,"count":86,"type":"VEC2"},{"bufferView":64,"componentType":5125,"count":138,"type":"SCALAR"},{"bufferView":65,"componentType":5126,"count":176,"type":"VEC3","min":[-70.1243286,-0.206696928,-33.6831894],"max":[22.4341373,7.98685503,45.283165]},{"bufferView":66,"componentType":5126,"count":176,"type":"VEC3","min":[-1.0,-1.19245231e-07,-1.0],"max":[1.0,1.0,1.0]},{"bufferView":67,"componentType":5126,"count":176,"type":"VEC2"},{"bufferView":68,"componentType":5126,"count":176,"type":"VEC2"},{"bufferView":69,"componentType":5125,"count":264,"type":"SCALAR"},{"bufferView":70,"componentType":5126,"count":201,"type":"VEC3","min":[-12.6822329,0.464580148,-1.21563041],"max":[-9.91847897,5.34792376,8.61113358]},{"bufferView":71,"componentType":5126,"count":201,"type":"VEC3","min":[-1.0,-0.983131071,-0.999816806],"max":[1.0,0.999999974,1.0]},{"bufferView":72,"componentType":5126,"count":201,"type":"VEC2"},{"bufferView":73,"componentType":5126,"count":201,"type":"VEC2"},{"bufferView":74,"componentType":5125,"count":324,"type":"SCALAR"},{"bufferView":75,"componentType":5126,"count":66,"type":"VEC3","min":[4.3051672,5.58859587,-32.8975487],"max":[32.0928307,12.2856331,17.1401463]},{"bufferView":76,"componentType":5126,"count":66,"type":"VEC3","min":[-0.000129580497,-1.0,-1.92523003e-05],"max":[0.000128626822,-0.999999991,2.99215317e-05]},{"bufferView":77,"componentType":5126,"count":66,"type":"VEC2"},{"bufferView":78,"componentType":5126,"count":66,"type":"VEC2"},{"bufferView":79,"componentType":5125,"count":168,"type":"SCALAR"},{"bufferView":80,"componentType":5126,"count":48,"type":"VEC3","min":[-39.3251801,-1.45157123,-59.5215225],"max":[-8.35917377,7.33522558,31.9561958]},{"bufferView":81,"componentType":5126,"count":48,"type":"VEC3","min":[-1.0,-1.1920929e-07,-1.0],"max":[1.0,1.0,1.0]},{"bufferView":82,"componentType":5126,"count":48,"type":"VEC2"},{"bufferView":83,"componentType":5126,"count":48,"type":"VEC2"},{"bufferView":84,"componentType":5125,"count":72,"type":"SCALAR"},{"bufferView":85,"componentType":5126,"count":350,"type":"VEC3","min":[-71.5955734,-1.28269994e-06,-17.624485],"max":[-17.3167686,77.7591782,21.9083328]},{"bufferView":86,"componentType":5126,"count":350,"type":"VEC3","min":[-0.908559756,-0.679532622,-0.971696525],"max":[1.0,1.0,0.971696525]},{"bufferView":87,"componentType":5126,"count":350,"type":"VEC2"},{"bufferView":88,"componentType":5126,"count":350,"type":"VEC2"},{"bufferView":89,"componentType":5125,"count":534,"type":"SCALAR"},{"bufferView":90,"componentType":5126,"count":16,"type":"VEC3","min":[-46.0638237,0.254032224,55.4515648],"max":[-16.4369965,2.86438322,67.4216156]},{"bufferView":91,"componentType":5126,"count":16,"type":"VEC3","min":[-1.0,0.0,-0.998286457],"max":[1.0,5.96333304e-08,-0.0]},{"bufferView":92,"componentType":5126,"count":16,"type":"VEC2"},{"bufferView":93,"componentType":5126,"count":16,"type":"VEC2"},{"bufferView":94,"componentType":5125,"count":30,"type":"SCALAR"},{"bufferView":95,"componentType":5126,"count":20,"type":"VEC3","min":[40.8587418,5.01757193,-8.94744301],"max":[44.9365959,6.53969765,-6.29227591]},{"bufferView":96,"componentType":5126,"count":20,"type":"VEC3","min":[-0.905376813,-1.0,-1.0],"max":[0.905376813,1.1920929e-07,1.0]},{"bufferView":97,"componentType":5126,"count":20,"type":"VEC2"},{"bufferView":98,"componentType":5126,"count":20,"type":"VEC2"},{"bufferView":99,"componentType":5125,"count":30,"type":"SCALAR"},{"bufferView":100,"componentType":5126,"count":24,"type":"VEC3","min":[54.9933472,13.9782495,16.3032951],"max":[67.8696594,15.5630417,51.6777344]},{"bufferView":101,"componentType":5126,"count":24,"type":"VEC3","min":[-1.0,-1.0,-1.0],"max":[0.0,1.0,1.1920929e-07]},{"bufferView":102,"componentType":5126,"count":24,"type":"VEC2"},{"bufferView":103,"componentType":5126,"count":24,"type":"VEC2"},{"bufferView":104,"componentType":5125,"count":36,"type":"SCALAR"},{"bufferView":105,"componentType":5126,"count":602,"type":"VEC3","min":[-8.35938835,-0.361197203,-21.3197384],"max":[67.8696594,16.9151649,51.5820541]},{"bufferView":106,"componentType":5126,"count":602,"type":"VEC3","min":[-1.0,-1.0,-1.0],"max":[1.0,1.0,1.0]},{"bufferView":107,"componentType":5126,"count":602,"type":"VEC2"},{"bufferView":108,"componentType":5126,"count":602,"type":"VEC2"},{"bufferView":109,"componentType":5125,"count":1122,"type":"SCALAR"},{"bufferView":110,"componentType":5126,"count":56,"type":"VEC3","min":[-59.4810715,-4.81658208e-06,-62.0845299],"max":[69.2317505,11.2043753,67.7378616]},{"bufferView":111,"componentType":5126,"count":56,"type":"VEC3","min":[-1.0,-1.1920929e-07,-1.0],"max":[1.0,1.0,1.0]},{"bufferView":112,"componentType":5126,"count":56,"type":"VEC2"},{"bufferView":113,"componentType":5126,"count":56,"type":"VEC2"},{"bufferView":114,"componentType":5125,"count":108,"type":"SCALAR"},{"bufferView":115,"componentType":5126,"count":172,"type":"VEC3","min":[-36.3766174,5.58925915,-16.4570599],"max":[-7.1294508,12.3850145,28.6091537]},{"bufferView":116,"componentType":5126,"count":172,"type":"VEC3","min":[-1.0,-1.0,-1.0],"max":[1.0,1.0,1.0]},{"bufferView":117,"componentType":5126,"count":172,"type":"VEC2"},{"bufferView":118,"componentType":5126,"count":172,"type":"VEC2"},{"bufferView":119,"componentType":5125,"count":348,"type":"SCALAR"},{"bufferView":120,"componentType":5126,"count":62,"type":"VEC3","min":[-30.9517593,5.58925962,-15.5493364],"max":[-8.33043098,5.87623167,28.582119]},{"bufferView":121,"componentType":5126,"count":62,"type":"VEC3","min":[-0.99999984,-0.0232442066,-0.999729817],"max":[0.0,1.0,1.0]},{"bufferView":122,"componentType":5126,"count":62,"type":"VEC2"},{"bufferView":123,"componentType":5126,"count":62,"type":"VEC2"},{"bufferView":124,"componentType":5125,"count":147,"type":"SCALAR"},{"bufferView":125,"componentType":5126,"count":21,"type":"VEC3","min":[18.7878571,-2.52509267e-07,-17.7814331],"max":[20.6712952,1.18596148,-14.7309914]},{"bufferView":126,"componentType":5126,"count":21,"type":"VEC3","min":[-1.0,0.0,-1.0],"max":[1.0,1.0,1.1920929e-07]},{"bufferView":127,"componentType":5126,"count":21,"type":"VEC2"},{"bufferView":128,"componentType":5126,"count":21,"type":"VEC2"},{"bufferView":129,"componentType":5125,"count":33,"type":"SCALAR"},{"bufferView":130,"componentType":5126,"count":404,"type":"VEC3","min":[-61.2405624,-0.156420469,-56.0063248],"max":[66.0246964,8.55489826,54.4934464]},{"bufferView":131,"componentType":5126,"count":404,"type":"VEC3","min":[-1.0,-1.78892835e-07,-1.0],"max":[1.0,1.0,1.0]},{"bufferView":132,"componentType":5126,"count":404,"type":"VEC2"},{"bufferView":133,"componentType":5126,"count":404,"type":"VEC2"},{"bufferView":134,"componentType":5125,"count":606,"type":"SCALAR"},{"bufferView":135,"componentType":5126,"count":84,"type":"VEC3","min":[4.3051672,5.586514,-32.8975487],"max":[32.0928307,5.86432076,17.4182892]},{"bufferView":136,"componentType":5126,"count":84,"type":"VEC3","min":[-1.0,-1.1920929e-07,-1.0],"max":[1.0,1.0,1.0]},{"bufferView":137,"componentType":5126,"count":84,"type":"VEC2"},{"bufferView":138,"componentType":5126,"count":84,"type":"VEC2"},{"bufferView":139,"componentType":5125,"count":192,"type":"SCALAR"},{"bufferView":140,"componentType":5126,"count":175,"type":"VEC3","min":[-380.75119,-14.5419083,-380.75116],"max":[380.75119,246.374161,380.751251]},{"bufferView":141,"componentType":5126,"count":175,"type":"VEC3","min":[-0.979025082,-1.0,-0.979025082],"max":[0.979025082,-0.145581623,0.979025082]},{"bufferView":142,"componentType":5126,"count":175,"type":"VEC2"},{"bufferView":143,"componentType":5126,"count":175,"type":"VEC2"},{"bufferView":144,"componentType":5125,"count":792,"type":"SCALAR"},{"bufferView":145,"componentType":5126,"count":530,"type":"VEC3","min":[-104.142639,-3.14020777,-93.3760986],"max":[99.8783112,31.6521778,109.885536]},{"bufferView":146,"componentType":5126,"count":530,"type":"VEC3","min":[-1.0,-1.0,-1.0],"max":[1.0,1.0,1.0]},{"bufferView":147,"componentType":5126,"count":530,"type":"VEC2"},{"bufferView":148,"componentType":5126,"count":530,"type":"VEC2"},{"bufferView":149,"componentType":5125,"count":918,"type":"SCALAR"},{"bufferView":150,"componentType":5126,"count":96,"type":"VEC3","min":[-14.5797338,-0.0998511165,-2.72342634],"max":[-8.44859505,3.68240571,11.8423672]},{"bufferView":151,"componentType":5126,"count":96,"type":"VEC3","min":[-1.0,-0.653935005,-1.0],"max":[1.0,1.0,1.0]},{"bufferView":152,"componentType":5126,"count":96,"type":"VEC2"},{"bufferView":153,"componentType":5126,"count":96,"type":"VEC2"},{"bufferView":154,"componentType":5125,"count":162,"type":"SCALAR"},{"bufferView":155,"componentType":5126,"count":122,"type":"VEC3","min":[-71.6229095,-3.14324474,-61.4853783],"max":[69.7315445,28.3831692,109.365547]},{"bufferView":156,"componentType":5126,"count":122,"type":"VEC3","min":[-1.0,-0.98689085,-1.0],"max":[1.0,1.1920929e-07,1.0]},{"bufferView":157,"componentType":5126,"count":122,"type":"VEC2"},{"bufferView":158,"componentType":5126,"count":122,"type":"VEC2"},{"bufferView":159,"componentType":5125,"count":204,"type":"SCALAR"},{"bufferView":160,"componentType":5126,"count":9,"type":"VEC3","min":[-71.590416,-7.58956867e-06,-61.6939659],"max":[69.5293198,7.58956867e-06,65.6378784]},{"bufferView":161,"componentType":5126,"count":9,"type":"VEC3","min":[0.0,1.0,1.1920929e-07],"max":[0.0,1.0,1.1920929e-07]},{"bufferView":162,"componentType":5126,"count":9,"type":"VEC2"},{"bufferView":163,"componentType":5126,"count":9,"type":"VEC2"},{"bufferView":164,"componentType":5125,"count":24,"type":"SCALAR"},{"bufferView":165,"componentType":5126,"count":194,"type":"VEC3","min":[-31.6466599,-2.71313093e-06,-15.8936787],"max":[-7.71761703,13.2108202,29.6370926]},{"bufferView":166,"componentType":5126,"count":194,"type":"VEC3","min":[-1.0,-1.0,-1.0],"max":[1.0,1.0,1.0]},{"bufferView":167,"componentType":5126,"count":194,"type":"VEC2"},{"bufferView":168,"componentType":5126,"count":194,"type":"VEC2"},{"bufferView":169,"componentType":5125,"count":414,"type":"SCALAR"},{"bufferView":170,"componentType":5126,"count":160,"type":"VEC3","min":[-30.9133606,-2.58420096e-06,-15.4608717],"max":[-8.33043289,12.3850145,28.5555363]},{"bufferView":171,"componentType":5126,"count":160,"type":"VEC3","min":[-1.0,-0.000101208686,-1.0],"max":[1.0,0.000104308128,1.0]},{"bufferView":172,"componentType":5126,"count":160,"type":"VEC2"},{"bufferView":173,"componentType":5126,"count":160,"type":"VEC2"},{"bufferView":174,"componentType":5125,"count":360,"type":"SCALAR"},{"bufferView":175,"componentType":5126,"count":138,"type":"VEC3","min":[-71.6229095,-0.630274653,-61.4853783],"max":[69.7315445,23.8098392,68.4396439]},{"bufferView":176,"componentType":5126,"count":138,"type":"VEC3","min":[-1.0,-1.0,-1.0],"max":[1.0,1.0,1.0]},{"bufferView":177,"componentType":5126,"count":138,"type":"VEC2"},{"bufferView":178,"componentType":5126,"count":138,"type":"VEC2"},{"bufferView":179,"componentType":5125,"count":210,"type":"SCALAR"},{"bufferView":180,"componentType":5126,"count":24,"type":"VEC3","min":[-71.6229095,-2.05102205,-61.4853821],"max":[69.7315445,11.4847317,68.4396439]},{"bufferView":181,"componentType":5126,"count":24,"type":"VEC3","min":[-1.0,-1.1920929e-07,-1.0],"max":[1.0,1.1920929e-07,1.0]},{"bufferView":182,"componentType":5126,"count":24,"type":"VEC2"},{"bufferView":183,"componentType":5126,"count":24,"type":"VEC2"},{"bufferView":184,"componentType":5125,"count":36,"type":"SCALAR"},{"bufferView":185,"componentType":5126,"count":40,"type":"VEC3","min":[-51.1774216,-0.258642197,-103.926773],"max":[11.6907196,29.3328381,-79.3825836]},{"bufferView":186,"componentType":5126,"count":40,"type":"VEC3","min":[-1.0,-1.1920929e-07,0.0],"max":[1.0,1.0,1.0]},{"bufferView":187,"componentType":5126,"count":40,"type":"VEC2"},{"bufferView":188,"componentType":5126,"count":40,"type":"VEC2"},{"bufferView":189,"componentType":5125,"count":60,"type":"SCALAR"},{"bufferView":190,"componentType":5126,"count":2727,"type":"VEC3","min":[-69.3067017,-13.2842093,-71.9894333],"max":[73.6022644,22.3603172,83.431015]},{"bufferView":191,"componentType":5126,"count":2727,"type":"VEC3","min":[-1.0,-1.0,-1.0],"max":[1.0,1.0,1.0]},{"bufferView":192,"componentType":5126,"count":2727,"type":"VEC2"},{"bufferView":193,"componentType":5126,"count":2727,"type":"VEC2"},{"bufferView":194,"componentType":5125,"count":6747,"type":"SCALAR"},{"bufferView":195,"componentType":5126,"count":453,"type":"VEC3","min":[-63.7076263,-0.0796687305,-59.7637901],"max":[49.5785828,3.96839929,-35.8366318]},{"bufferView":196,"componentType":5126,"count":453,"type":"VEC3","min":[-1.0,-0.241400712,-1.0],"max":[1.0,1.0,1.0]},{"bufferView":197,"componentType":5126,"count":453,"type":"VEC2"},{"bufferView":198,"componentType":5126,"count":453,"type":"VEC2"},{"bufferView":199,"componentType":5125,"count":963,"type":"SCALAR"},{"bufferView":200,"componentType":5126,"count":680,"type":"VEC3","min":[1.96248627,-0.289693594,-34.1211853],"max":[34.690567,18.2016029,18.0193977]},{"bufferView":201,"componentType":5126,"count":680,"type":"VEC3","min":[-1.0,-1.0,-1.0],"max":[1.0,1.0,1.0]},{"bufferView":202,"componentType":5126,"count":680,"type":"VEC2"},{"bufferView":203,"componentType":5126,"count":680,"type":"VEC2"},{"bufferView":204,"componentType":5125,"count":1248,"type":"SCALAR"},{"bufferView":205,"componentType":5126,"count":40,"type":"VEC3","min":[-22.6030388,-0.0159448162,-11.9293556],"max":[-17.2261066,2.85164952,-0.622016668]},{"bufferView":206,"componentType":5126,"count":40,"type":"VEC3","min":[-1.0,-1.1920929e-07,-1.0],"max":[1.0,1.0,1.0]},{"bufferView":207,"componentType":5126,"count":40,"type":"VEC2"},{"bufferView":208,"componentType":5126,"count":40,"type":"VEC2"},{"bufferView":209,"componentType":5125,"count":60,"type":"SCALAR"},{"bufferView":210,"componentType":5126,"count":52,"type":"VEC3","min":[-36.3154526,-0.452362746,-43.1901932],"max":[-8.94221401,11.2191153,-8.39109707]},{"bufferView":211,"componentType":5126,"count":52,"type":"VEC3","min":[-1.0,-0.49253192,-1.0],"max":[1.0,1.0,1.0]},{"bufferView":212,"componentType":5126,"count":52,"type":"VEC2"},{"bufferView":213,"componentType":5126,"count":52,"type":"VEC2"},{"bufferView":214,"componentType":5125,"count":84,"type":"SCALAR"},{"bufferView":215,"componentType":5126,"count":163,"type":"VEC3","min":[-20.2959557,0.535124123,-30.7788258],"max":[30.96772,9.47965527,-1.16687429]},{"bufferView":216,"componentType":5126,"count":163,"type":"VEC3","min":[-1.0,-0.996199016,-1.0],"max":[1.0,1.0,1.0]},{"bufferView":217,"componentType":5126,"count":163,"type":"VEC2"},{"bufferView":218,"componentType":5126,"count":163,"type":"VEC2"},{"bufferView":219,"componentType":5125,"count":324,"type":"SCALAR"},{"bufferView":220,"componentType":5126,"count":8,"type":"VEC3","min":[-8.33042717,10.7642498,-10.1360579],"max":[4.31330872,10.7642508,-2.67092466]},{"bufferView":221,"componentType":5126,"count":8,"type":"VEC3","min":[0.0,-1.0,-1.1920929e-07],"max":[0.0,-1.0,-1.1920929e-07]},{"bufferView":222,"componentType":5126,"count":8,"type":"VEC2"},{"bufferView":223,"componentType":5126,"count":8,"type":"VEC2"},{"bufferView":224,"componentType":5125,"count":18,"type":"SCALAR"}],"materials":[{"name":"Building02_lightmap03","pbrMetallicRoughness":{"baseColorFactor":[1.0,1.0,1.0,1.0],"metallicFactor":0.0,"roughnessFactor":1.0,"baseColorTexture":{"index":0}},"doubleSided":false},{"name":"Building02_lightmap07","pbrMetallicRoughness":{"baseColorFactor":[1.0,1.0,1.0,1.0],"metallicFactor":0.0,"roughnessFactor":1.0,"baseColorTexture":{"index":1}},"doubleSided":false},{"name":"Building01_lightmap04","pbrMetallicRoughness":{"baseColorFactor":[1.0,1.0,1.0,1.0],"metallicFactor":0.0,"roughnessFactor":1.0,"baseColorTexture":{"index":2}},"doubleSided":false},{"name":"Building01_lightmap02","pbrMetallicRoughness":{"baseColorFactor":[1.0,1.0,1.0,1.0],"metallicFactor":0.0,"roughnessFactor":1.0,"baseColorTexture":{"index":3}},"doubleSided":false},{"name":"Building01_lightmap01","pbrMetallicRoughness":{"baseColorFactor":[1.0,1.0,1.0,1.0],"metallicFactor":0.0,"roughnessFactor":1.0,"baseColorTexture":{"index":1}},"doubleSided":false},{"name":"Building01_lightmap06","pbrMetallicRoughness":{"baseColorFactor":[1.0,1.0,1.0,1.0],"metallicFactor":0.0,"roughnessFactor":1.0,"baseColorTexture":{"index":4}},"doubleSided":false},{"name":"Tunel_lightmap02","pbrMetallicRoughness":{"baseColorFactor":[1.0,1.0,1.0,1.0],"metallicFactor":0.0,"roughnessFactor":1.0,"baseColorTexture":{"index":2}},"doubleSided":false},{"name":"Object_lightmap02","pbrMetallicRoughness":{"baseColorFactor":[1.0,1.0,1.0,1.0],"metallicFactor":0.0,"roughnessFactor":1.0,"baseColorTexture":{"index":4}},"doubleSided":false},{"name":"Inside_lightmap01","pbrMetallicRoughness":{"baseColorFactor":[1.0,1.0,1.0,1.0],"metallicFactor":0.0,"roughnessFactor":1.0,"baseColorTexture":{"index":5}},"doubleSided":false},{"name":"Tower_lightmap02","pbrMetallicRoughness":{"baseColorFactor":[1.0,1.0,1.0,1.0],"metallicFactor":0.0,"roughnessFactor":1.0,"baseColorTexture":{"index":2}},"doubleSided":false},{"name":"Tunel_lightmap03","pbrMetallicRoughness":{"baseColorFactor":[1.0,1.0,1.0,1.0],"metallicFactor":0.0,"roughnessFactor":1.0,"baseColorTexture":{"index":6}},"doubleSided":false},{"name":"Object_lightmap05","pbrMetallicRoughness":{"baseColorFactor":[1.0,1.0,1.0,1.0],"metallicFactor":0.0,"roughnessFactor":1.0,"baseColorTexture":{"index":7}},"doubleSided":false},{"name":"Tunel_lightmap05","pbrMetallicRoughness":{"baseColorFactor":[1.0,1.0,1.0,1.0],"metallicFactor":0.0,"roughnessFactor":1.0,"baseColorTexture":{"index":8}},"doubleSided":false},{"name":"Object_lightmap01","pbrMetallicRoughness":{"baseColorFactor":[1.0,1.0,1.0,1.0],"metallicFactor":0.0,"roughnessFactor":1.0,"baseColorTexture":{"index":9}},"doubleSided":false},{"name":"Inside_lightmap02","pbrMetallicRoughness":{"baseColorFactor":[1.0,1.0,1.0,1.0],"metallicFactor":0.0,"roughnessFactor":1.0,"baseColorTexture":{"index":10}},"doubleSided":false},{"name":"Building01_lightmap05","pbrMetallicRoughness":{"baseColorFactor":[1.0,1.0,1.0,1.0],"metallicFactor":0.0,"roughnessFactor":1.0,"baseColorTexture":{"index":11}},"doubleSided":false},{"name":"newobj_lightmap02","pbrMetallicRoughness":{"baseColorFactor":[1.0,1.0,1.0,1.0],"metallicFactor":0.0,"roughnessFactor":1.0,"baseColorTexture":{"index":10}},"doubleSided":false},{"name":"Tower_lightmap01","pbrMetallicRoughness":{"baseColorFactor":[1.0,1.0,1.0,1.0],"metallicFactor":0.0,"roughnessFactor":1.0,"baseColorTexture":{"index":12}},"doubleSided":false},{"name":"Object_lightmap03","pbrMetallicRoughness":{"baseColorFactor":[1.0,1.0,1.0,1.0],"metallicFactor":0.0,"roughnessFactor":1.0,"baseColorTexture":{"index":10}},"doubleSided":false},{"name":"Tunel_lightmap07","pbrMetallicRoughness":{"baseColorFactor":[1.0,1.0,1.0,1.0],"metallicFactor":0.0,"roughnessFactor":1.0,"baseColorTexture":{"index":4}},"doubleSided":false},{"name":"Tunel_lightmap06","pbrMetallicRoughness":{"baseColorFactor":[1.0,1.0,1.0,1.0],"metallicFactor":0.0,"roughnessFactor":1.0,"baseColorTexture":{"index":1}},"doubleSided":false},{"name":"Tunel_lightmap01","pbrMetallicRoughness":{"baseColorFactor":[1.0,1.0,1.0,1.0],"metallicFactor":0.0,"roughnessFactor":1.0,"baseColorTexture":{"index":0}},"doubleSided":false},{"name":"Outside_lightmap06","pbrMetallicRoughness":{"baseColorFactor":[1.0,1.0,1.0,1.0],"metallicFactor":0.0,"roughnessFactor":1.0,"baseColorTexture":{"index":5}},"doubleSided":false},{"name":"Building02_lightmap01","pbrMetallicRoughness":{"baseColorFactor":[1.0,1.0,1.0,1.0],"metallicFactor":0.0,"roughnessFactor":1.0,"baseColorTexture":{"index":11}},"doubleSided":false},{"name":"Building02_lightmap06","pbrMetallicRoughness":{"baseColorFactor":[1.0,1.0,1.0,1.0],"metallicFactor":0.0,"roughnessFactor":1.0,"baseColorTexture":{"index":8}},"doubleSided":false},{"name":"Object_lightmap06","pbrMetallicRoughness":{"baseColorFactor":[1.0,1.0,1.0,1.0],"metallicFactor":0.0,"roughnessFactor":1.0,"baseColorTexture":{"index":12}},"doubleSided":false},{"name":"newobj_lightmap01","pbrMetallicRoughness":{"baseColorFactor":[1.0,1.0,1.0,1.0],"metallicFactor":0.0,"roughnessFactor":1.0,"baseColorTexture":{"index":9}},"doubleSided":false},{"name":"Building01_lightmap07","pbrMetallicRoughness":{"baseColorFactor":[1.0,1.0,1.0,1.0],"metallicFactor":0.0,"roughnessFactor":1.0,"baseColorTexture":{"index":8}},"doubleSided":false},{"name":"sky","pbrMetallicRoughness":{"baseColorFactor":[1.0,1.0,1.0,1.0],"metallicFactor":0.0,"roughnessFactor":1.0,"baseColorTexture":{"index":13}},"doubleSided":false},{"name":"Outside_lightmap04","pbrMetallicRoughness":{"baseColorFactor":[1.0,1.0,1.0,1.0],"metallicFactor":0.0,"roughnessFactor":1.0,"baseColorTexture":{"index":10}},"doubleSided":false},{"name":"Inside_lightmap03","pbrMetallicRoughness":{"baseColorFactor":[1.0,1.0,1.0,1.0],"metallicFactor":0.0,"roughnessFactor":1.0,"baseColorTexture":{"index":11}},"doubleSided":false},{"name":"Outside_lightmap03","pbrMetallicRoughness":{"baseColorFactor":[1.0,1.0,1.0,1.0],"metallicFactor":0.0,"roughnessFactor":1.0,"baseColorTexture":{"index":1}},"doubleSided":false},{"name":"Ground_lightmap","pbrMetallicRoughness":{"baseColorFactor":[1.0,1.0,1.0,1.0],"metallicFactor":0.0,"roughnessFactor":1.0,"baseColorTexture":{"index":8}},"doubleSided":false},{"name":"Building02_lightmap02","pbrMetallicRoughness":{"baseColorFactor":[1.0,1.0,1.0,1.0],"metallicFactor":0.0,"roughnessFactor":1.0,"baseColorTexture":{"index":4}},"doubleSided":false},{"name":"Building02_lightmap04","pbrMetallicRoughness":{"baseColorFactor":[1.0,1.0,1.0,1.0],"metallicFactor":0.0,"roughnessFactor":1.0,"baseColorTexture":{"index":2}},"doubleSided":false},{"name":"Outside_lightmap02","pbrMetallicRoughness":{"baseColorFactor":[1.0,1.0,1.0,1.0],"metallicFactor":0.0,"roughnessFactor":1.0,"baseColorTexture":{"index":0}},"doubleSided":false},{"name":"Outside_lightmap01","pbrMetallicRoughness":{"baseColorFactor":[1.0,1.0,1.0,1.0],"metallicFactor":0.0,"roughnessFactor":1.0,"baseColorTexture":{"index":4}},"doubleSided":false},{"name":"Outside_lightmap05","pbrMetallicRoughness":{"baseColorFactor":[1.0,1.0,1.0,1.0],"metallicFactor":0.0,"roughnessFactor":1.0,"baseColorTexture":{"index":3}},"doubleSided":false},{"name":"Object_lightmap04","pbrMetallicRoughness":{"baseColorFactor":[1.0,1.0,1.0,1.0],"metallicFactor":0.0,"roughnessFactor":1.0,"baseColorTexture":{"index":14}},"doubleSided":false},{"name":"Outside_lightmap07","pbrMetallicRoughness":{"baseColorFactor":[1.0,1.0,1.0,1.0],"metallicFactor":0.0,"roughnessFactor":1.0,"baseColorTexture":{"index":15}},"doubleSided":false},{"name":"Building01_lightmap03","pbrMetallicRoughness":{"baseColorFactor":[1.0,1.0,1.0,1.0],"metallicFactor":0.0,"roughnessFactor":1.0,"baseColorTexture":{"index":6}},"doubleSided":false},{"name":"newobj_lightmap04","pbrMetallicRoughness":{"baseColorFactor":[1.0,1.0,1.0,1.0],"metallicFactor":0.0,"roughnessFactor":1.0,"baseColorTexture":{"index":7}},"doubleSided":false},{"name":"Building02_lightmap05","pbrMetallicRoughness":{"baseColorFactor":[1.0,1.0,1.0,1.0],"metallicFactor":0.0,"roughnessFactor":1.0,"baseColorTexture":{"index":10}},"doubleSided":false},{"name":"newobj_lightmap03","pbrMetallicRoughness":{"baseColorFactor":[1.0,1.0,1.0,1.0],"metallicFactor":0.0,"roughnessFactor":1.0,"baseColorTexture":{"index":14}},"doubleSided":false},{"name":"Tunel_lightmap04","pbrMetallicRoughness":{"baseColorFactor":[1.0,1.0,1.0,1.0],"metallicFactor":0.0,"roughnessFactor":1.0,"baseColorTexture":{"index":11}},"doubleSided":false}],"images":[{"uri":"building05.png"},{"uri":"building01.png"},{"uri":"buildinginside.png"},{"uri":"building02.png"},{"uri":"building04.png"},{"uri":"tower03.png"},{"uri":"building03.png"},{"uri":"metal01.png"},{"uri":"ground.png"},{"uri":"buildingout.png"},{"uri":"tower02.png"},{"uri":"roof.png"},{"uri":"tower01.png"},{"uri":"sky.png"},{"uri":"objnew.png"},{"uri":"wall01.png"}],"textures":[{"source":0,"sampler":0},{"source":1,"sampler":0},{"source":2,"sampler":0},{"source":3,"sampler":0},{"source":4,"sampler":0},{"source":5,"sampler":0},{"source":6,"sampler":0},{"source":7,"sampler":0},{"source":8,"sampler":0},{"source":9,"sampler":0},{"source":10,"sampler":0},{"source":11,"sampler":0},{"source":12,"sampler":0},{"source":13,"sampler":0},{"source":14,"sampler":0},{"source":15,"sampler":0}],"samplers":[{"magFilter":9729,"minFilter":9987,"wrapS":10497,"wrapT":10497}],"buffers":[{"uri":"stage.bin","byteLength":477816}]}
