# Generated from legacy Unity YAML Mesh assets without Unity.
mtllib ArmorBag_11.mtl

o ArmorBag_11_00_Bag
v -1.34532218e-08 0.130393982 -0.0192633625
v 0.0712203755 0.173818111 -0.0594121739
v 0.0870499833 0.1270459 -0.0400354899
v -1.34532218e-08 0.177165836 -0.038640067
v 0.10187798 0.168492734 -0.0930318981
v 0.117707573 0.12172094 -0.0736552328
v 0.10187798 0.161260009 -0.148843199
v 0.117707573 0.111560881 -0.147127584
v -0.117707603 0.111560881 -0.147127584
v -0.10187801 0.161260009 -0.148843199
v -0.0712204055 0.173818111 -0.0594121739
v -0.0870500133 0.1270459 -0.0400354899
v -0.10187801 0.168492734 -0.0930318981
v -0.117707603 0.12172094 -0.0736552328
v -0.286202774 -0.298025429 -0.112932697
v -0.366173998 -0.485720038 -0.0589025803
v -0.199777201 -0.386020243 0.00794058666
v -0.199777201 -0.386020243 0.00794058666
v -0.366173998 -0.485720038 -0.0589025803
v -0.2484276 -0.280623823 -0.00643540174
v -0.286202774 -0.298025429 -0.112932697
v -0.2484276 -0.280623823 -0.00643540174
v -0.366173998 -0.485720038 -0.0589025803
v 0.166153982 -0.521787822 -0.0983183384
v 0.182115972 -0.388362736 0.0502185188
v 0.32230635 -0.228919968 -0.119698808
v 0.212211177 -0.229571626 0.0832106173
v -1.34532218e-08 -0.303744435 0.161280587
v 0.305713579 -0.0699580163 -0.130233109
v 0.202983573 -0.0543129146 0.0573020838
v -1.34532218e-08 -0.0220801681 0.127121717
v 0.210150376 0.00531618297 -0.133304685
v 0.152463972 0.111599684 -0.147723511
v 0.152463972 0.124403745 -0.0651750565
v 0.112783983 0.131296098 -0.0216610078
v -1.34532218e-08 -0.0220801681 0.127121717
v -1.34532218e-08 0.135726929 0.00372802466
v -1.34532218e-08 0.111599684 -0.147723511
v 0.23430556 -0.444132686 -0.187284648
v -1.34532218e-08 -0.579013467 0.0794630647
v -1.34532218e-08 -0.0220801681 0.127121717
v -0.182116002 -0.388362736 0.0502185188
v -1.34532218e-08 -0.303744435 0.161280587
v -0.212211207 -0.229571626 0.0832106173
v -0.32230638 -0.228919968 -0.119698808
v -0.166154012 -0.521787822 -0.0983183384
v -0.305713609 -0.0699580163 -0.130233109
v -0.202983603 -0.0543129146 0.0573020838
v -1.34532218e-08 -0.0220801681 0.127121717
v -0.210150406 0.00531618297 -0.133304685
v -0.152464002 0.111599684 -0.147723511
v -0.152464002 0.124403745 -0.0651750565
v -0.112784013 0.131296098 -0.0216610078
v -1.34532218e-08 -0.0220801681 0.127121717
v -1.34532218e-08 0.135726929 0.00372802466
v -1.34532218e-08 0.111599684 -0.147723511
v -0.23430559 -0.444132686 -0.187284648
v -1.34532218e-08 -0.0220801681 0.127121717
v 0.152463972 0.111599684 -0.147723511
v -1.34532218e-08 0.111599684 -0.147723511
v -1.34532218e-08 -0.245463595 -0.24196288
v -1.34532218e-08 -0.245463595 -0.24196288
v 0.210150376 0.00531618297 -0.133304685
v -1.34532218e-08 -0.245463595 -0.24196288
v 0.305713579 -0.0699580163 -0.130233109
v 0.23430556 -0.444132686 -0.187284648
v 0.166153982 -0.521787822 -0.0983183384
v 0.123276785 -0.477043033 -0.110483453
v 0.182115972 -0.388362736 0.0502185188
v 0.122625969 -0.368246466 -0.0203217417
v -1.34532218e-08 -0.367174327 -0.0231705401
v 0.32230635 -0.228919968 -0.119698808
v -1.34532218e-08 -0.477043033 -0.110483453
v 0.182115972 -0.388362736 0.0502185188
v -1.34532218e-08 -0.579013467 0.0794630647
v -1.34532218e-08 -0.477043033 -0.110483453
v 0.122625969 -0.368246466 -0.0203217417
v 0.123276785 -0.477043033 -0.110483453
v -1.34532218e-08 -0.367174327 -0.0231705401
v -0.152464002 0.111599684 -0.147723511
v -1.34532218e-08 -0.245463595 -0.24196288
v -1.34532218e-08 0.111599684 -0.147723511
v -0.210150406 0.00531618297 -0.133304685
v -1.34532218e-08 -0.245463595 -0.24196288
v -1.34532218e-08 -0.245463595 -0.24196288
v -0.305713609 -0.0699580163 -0.130233109
v -0.23430559 -0.444132686 -0.187284648
v -0.166154012 -0.521787822 -0.0983183384
v -0.123276815 -0.477043033 -0.110483453
v -0.182116002 -0.388362736 0.0502185188
v -0.122625999 -0.368246466 -0.0203217417
v -1.34532218e-08 -0.367174327 -0.0231705401
v -0.32230638 -0.228919968 -0.119698808
v -1.34532218e-08 -0.477043033 -0.110483453
v -0.182116002 -0.388362736 0.0502185188
v -1.34532218e-08 -0.579013467 0.0794630647
v -1.34532218e-08 -0.477043033 -0.110483453
v -0.122625999 -0.368246466 -0.0203217417
v -1.34532218e-08 -0.367174327 -0.0231705401
v -0.123276815 -0.477043033 -0.110483453
v 0.199777171 -0.386020243 0.00794058666
v 0.24842757 -0.280623823 -0.00643540174
v 0.366173968 -0.485720038 -0.0589025803
v 0.199777171 -0.386020243 0.00794058666
v 0.366173968 -0.485720038 -0.0589025803
v 0.286202744 -0.298025429 -0.112932697
v 0.286202744 -0.298025429 -0.112932697
v 0.366173968 -0.485720038 -0.0589025803
v 0.24842757 -0.280623823 -0.00643540174
vt 0.192413002 0.236254007
vt 0.0988280028 0.140211001
vt 0.0509649999 0.186285004
vt 0.192457005 0.166556999
vt 0.0728200004 0.103570998
vt 0.0149680004 0.112493001
vt 0.0824149996 0.0439939983
vt 0.0429570004 0.0100119999
vt 0.345088005 0.0102129998
vt 0.305435002 0.0440879986
vt 0.287779987 0.140210003
vt 0.335586995 0.187370002
vt 0.314796001 0.103570998
vt 0.372891992 0.113537997
vt 0.373272985 0.711273015
vt 0.490128994 0.774585009
vt 0.462054014 0.648470998
vt 0.550566018 0.991446018
vt 0.541994989 0.730211973
vt 0.739260972 0.983536005
vt 0.550566018 0.991446018
vt 0.739260972 0.983536005
vt 0.541994989 0.730211973
vt 0.533621013 0.0129629998
vt 0.43088001 0.222948
vt 0.870727003 0.275079012
vt 0.561105013 0.331055999
vt 0.382775009 0.53617698
vt 0.983124971 0.455455005
vt 0.72874397 0.565937996
vt 0.57683903 0.731427014
vt 0.991548002 0.624548972
vt 0.994391978 0.814562976
vt 0.909043014 0.797707021
vt 0.849352002 0.82517302
vt 0.57683903 0.731427014
vt 0.775896013 0.931384981
vt 0.87567699 0.985620975
vt 0.713290989 0.0224680007
vt 0.129153997 0.279949009
vt 0.57683903 0.731427014
vt 0.43088001 0.222948
vt 0.382775009 0.53617698
vt 0.561105013 0.331055999
vt 0.870727003 0.275079012
vt 0.533621013 0.0129629998
vt 0.983124971 0.455455005
vt 0.72874397 0.565937996
vt 0.57683903 0.731427014
vt 0.991548002 0.624548972
vt 0.994391978 0.814562976
vt 0.909043014 0.797707021
vt 0.849352002 0.82517302
vt 0.57683903 0.731427014
vt 0.775896013 0.931384981
vt 0.87567699 0.985620975
vt 0.713290989 0.0224680007
vt 0.57683903 0.731427014
vt 0.42702499 0.993408978
vt 0.522517025 0.903710008
vt 0.304158986 0.671249986
vt 0.304158986 0.671249986
vt 0.326974988 0.966629028
vt 0.304158986 0.671249986
vt 0.223084003 0.978501976
vt 0.0380490012 0.704065979
vt 0.0118899997 0.589860022
vt 0.0661280006 0.588006973
vt 0.0531659983 0.422762007
vt 0.114038996 0.476435989
vt 0.218384996 0.461517006
vt 0.110699996 0.89903897
vt 0.139870003 0.51195401
vt 0.0531659983 0.422762007
vt 0.161954001 0.353062004
vt 0.987505019 0.175060004
vt 0.837375998 0.010822
vt 0.837375998 0.175060004
vt 0.987505019 0.010822
vt 0.42702499 0.993408978
vt 0.304158986 0.671249986
vt 0.522517025 0.903710008
vt 0.326974988 0.966629028
vt 0.304158986 0.671249986
vt 0.304158986 0.671249986
vt 0.223084003 0.978501976
vt 0.0380490012 0.704065979
vt 0.0118899997 0.589860022
vt 0.0661280006 0.588006973
vt 0.0531659983 0.422762007
vt 0.114038996 0.476435989
vt 0.218384996 0.461517006
vt 0.110699996 0.89903897
vt 0.139870003 0.51195401
vt 0.0531659983 0.422762007
vt 0.161954001 0.353062004
vt 0.987505019 0.175060004
vt 0.837375998 0.010822
vt 0.987505019 0.010822
vt 0.837375998 0.175060004
vt 0.550566018 0.991446018
vt 0.739260972 0.983536005
vt 0.541994989 0.730211973
vt 0.462054014 0.648470998
vt 0.490128994 0.774585009
vt 0.373272985 0.711273015
vt 0.550566018 0.991446018
vt 0.541994989 0.730211973
vt 0.739260972 0.983536005
vn 0 0.419407777 0.907797949
vn 0.252552794 0.826642323 0.502871312
vn 0.482790563 0.469618361 0.739169715
vn 0 0.678873311 0.734255424
vn 0.227176877 0.973471493 -0.0272748779
vn 0.924017725 0.362152127 0.122625775
vn 0.181829528 0.680834532 -0.709508535
vn 0.294967813 0.0610329652 -0.953555959
vn -0.16456327 0.0183712988 -0.98619543
vn -0.34165906 0.695551824 -0.632041729
vn -0.182843039 0.932609049 0.3111411
vn -0.482790556 0.469618361 0.739169719
vn -0.183099086 0.982134126 -0.0434428699
vn -0.924017725 0.362152127 0.122625775
vn 0.54871856 -0.438658255 -0.711678915
vn 0.54871856 -0.438658255 -0.711678915
vn 0.54871856 -0.438658255 -0.711678915
vn -0.353925329 -0.0358933432 0.934584683
vn -0.353925329 -0.0358933432 0.934584683
vn -0.353925329 -0.0358933432 0.934584683
vn -0.867565048 0.437642847 0.236219446
vn -0.867565048 0.437642847 0.236219446
vn -0.867565048 0.437642847 0.236219446
vn 0.853266503 -0.433822802 0.289368367
vn 0.672721156 -0.330507644 0.661975032
vn 0.882901146 -0.268861594 0.384966246
vn 0.629005743 0.0129202911 0.777293279
vn 0.376956454 -0.110599826 0.919603997
vn 0.848554641 0.289176751 0.443093475
vn 0.686345738 0.417358843 0.595601481
vn 0.343253767 0.155017063 0.926362003
vn 0.733097904 0.640761092 0.228019047
vn 0.788079099 0.614557821 0.035355595
vn 0.5936835 0.802344363 0.0615095495
vn 0.306537579 0.749498603 0.586759369
vn 0.299699868 0.541536178 0.785441632
vn 0.132608937 0.891329968 0.433527113
vn 0.00175429886 0.987825752 -0.15555451
vn 0.856566002 -0.436627524 0.27504743
vn 0 -0.284908785 0.958554633
vn 0.307477933 0.114560598 0.944633892
vn -0.672721153 -0.330507645 0.661975036
vn -0.376956449 -0.110599826 0.919603999
vn -0.629005739 0.0129202914 0.777293282
vn -0.882901146 -0.268861594 0.384966246
vn -0.853266503 -0.433822802 0.289368367
vn -0.848554641 0.289176751 0.443093475
vn -0.686345735 0.417358843 0.595601485
vn -0.343253763 0.155017063 0.926362005
vn -0.733097904 0.640761092 0.228019047
vn -0.788079096 0.614557825 0.0353555941
vn -0.593683496 0.802344366 0.0615095476
vn -0.306537574 0.749498604 0.58675937
vn -0.299699862 0.541536178 0.785441634
vn -0.132608934 0.891329968 0.433527113
vn -0.00175429883 0.987825752 -0.15555451
vn -0.856566002 -0.436627524 0.27504743
vn -0.307477929 0.114560598 0.944633893
vn 0.161061274 0.186992958 -0.969068057
vn 0 0.255190557 -0.96689078
vn 0 0.255190557 -0.96689078
vn 0.146364695 -0.154789014 -0.977045412
vn 0.296478331 0.159540929 -0.941619505
vn 0.213463008 0.23227716 -0.948936702
vn 0.317792164 0.114667254 -0.941201127
vn 0.202301016 -0.0961634131 -0.97459063
vn -0.475438392 -0.669732613 -0.570452945
vn -0.483368714 -0.741191701 -0.46582137
vn -0.617514038 -0.697028483 0.364455357
vn -0.549076466 -0.802265036 0.234277284
vn 0.262080558 -0.533275305 -0.804320353
vn 0.595306477 0.00889524131 -0.803449484
vn 0 -0.493726079 -0.869617478
vn 0.297779333 -0.416231347 -0.859115204
vn 0.297779333 -0.416231347 -0.859115204
vn -0.0117418629 -0.630161833 0.776375034
vn -0.0117418629 -0.630161833 0.776375034
vn 0 -0.638084936 0.769965982
vn -0.0236208187 -0.621989214 0.782669454
vn -0.161061271 0.186992957 -0.969068058
vn 0 0.255190557 -0.96689078
vn 0 0.255190557 -0.96689078
vn -0.296478329 0.159540927 -0.941619505
vn -0.146364693 -0.154789015 -0.977045412
vn -0.213463007 0.232277159 -0.948936703
vn -0.317792161 0.114667254 -0.941201128
vn -0.202301015 -0.0961634129 -0.974590631
vn 0.47543839 -0.669732615 -0.570452945
vn 0.483368708 -0.7411917 -0.465821377
vn 0.617514035 -0.697028487 0.364455353
vn 0.549076461 -0.802265042 0.234277279
vn -0.262080553 -0.533275306 -0.804320354
vn -0.595306477 0.00889524131 -0.803449484
vn 0 -0.493726079 -0.869617478
vn -0.297779329 -0.416231348 -0.859115206
vn -0.297779329 -0.416231348 -0.859115206
vn 0.0117418627 -0.630161833 0.776375034
vn 0.0117418627 -0.630161833 0.776375034
vn 0.0236208181 -0.621989214 0.782669454
vn 0 -0.638084936 0.769965982
vn 0.353925329 -0.0358933432 0.934584683
vn 0.353925329 -0.0358933432 0.934584683
vn 0.353925329 -0.0358933432 0.934584683
vn -0.54871856 -0.438658255 -0.711678915
vn -0.54871856 -0.438658255 -0.711678915
vn -0.54871856 -0.438658255 -0.711678915
vn 0.867565048 0.437642847 0.236219446
vn 0.867565048 0.437642847 0.236219446
vn 0.867565048 0.437642847 0.236219446

g ArmorBag_11_00_Bag_submesh_0
usemtl 12
f 1/1/1 3/3/3 2/2/2
f 1/1/1 2/2/2 4/4/4
f 3/3/3 5/5/5 2/2/2
f 3/3/3 6/6/6 5/5/5
f 6/6/6 7/7/7 5/5/5
f 6/6/6 8/8/8 7/7/7
f 7/7/7 8/8/8 9/9/9
f 7/7/7 9/9/9 10/10/10
f 2/2/2 11/11/11 4/4/4
f 1/1/1 4/4/4 11/11/11
f 5/5/5 11/11/11 2/2/2
f 1/1/1 11/11/11 12/12/12
f 12/12/12 11/11/11 13/13/13
f 7/7/7 10/10/10 13/13/13
f 7/7/7 13/13/13 5/5/5
f 5/5/5 13/13/13 11/11/11
f 12/12/12 13/13/13 14/14/14
f 14/14/14 13/13/13 10/10/10
f 14/14/14 10/10/10 9/9/9
f 15/15/15 17/17/17 16/16/16
f 18/18/18 20/20/20 19/19/19
f 21/21/21 23/23/23 22/22/22
f 24/24/24 26/26/26 25/25/25
f 27/27/27 25/25/25 26/26/26
f 27/27/27 28/28/28 25/25/25
f 29/29/29 27/27/27 26/26/26
f 29/29/29 30/30/30 27/27/27
f 30/30/30 31/31/31 27/27/27
f 30/30/30 29/29/29 32/32/32
f 30/30/30 32/32/32 33/33/33
f 30/30/30 33/33/33 34/34/34
f 30/30/30 34/34/34 35/35/35
f 35/35/35 36/36/36 30/30/30
f 37/37/37 36/36/36 35/35/35
f 38/38/38 37/37/37 35/35/35
f 38/38/38 35/35/35 34/34/34
f 38/38/38 34/34/34 33/33/33
f 26/26/26 24/24/24 39/39/39
f 25/25/25 28/28/28 40/40/40
f 27/27/27 41/41/41 28/28/28
f 42/42/42 40/40/40 43/43/43
f 44/44/44 42/42/42 43/43/43
f 44/44/44 45/45/45 42/42/42
f 46/46/46 42/42/42 45/45/45
f 47/47/47 45/45/45 44/44/44
f 47/47/47 44/44/44 48/48/48
f 48/48/48 44/44/44 49/49/49
f 48/48/48 50/50/50 47/47/47
f 48/48/48 51/51/51 50/50/50
f 48/48/48 52/52/52 51/51/51
f 48/48/48 53/53/53 52/52/52
f 53/53/53 48/48/48 54/54/54
f 55/55/55 53/53/53 54/54/54
f 56/56/56 53/53/53 55/55/55
f 56/56/56 51/51/51 52/52/52
f 56/56/56 52/52/52 53/53/53
f 45/45/45 57/57/57 46/46/46
f 58/58/58 44/44/44 43/43/43
f 59/59/59 61/61/61 60/60/60
f 59/59/59 63/63/63 62/62/62
f 64/64/64 63/63/63 65/65/65
f 62/62/62 65/65/65 66/66/66
f 62/62/62 66/66/66 67/67/67
f 62/62/62 67/67/67 68/68/68
f 68/68/68 67/67/67 69/69/69
f 68/68/68 69/69/69 70/70/70
f 69/69/69 71/71/71 70/70/70
f 66/66/66 65/65/65 72/72/72
f 62/62/62 68/68/68 73/73/73
f 74/74/74 75/75/75 71/71/71
f 76/76/76 78/78/78 77/77/77
f 76/76/76 77/77/77 79/79/79
f 80/80/80 82/82/82 81/81/81
f 80/80/80 84/84/84 83/83/83
f 85/85/85 86/86/86 83/83/83
f 84/84/84 87/87/87 86/86/86
f 84/84/84 88/88/88 87/87/87
f 84/84/84 89/89/89 88/88/88
f 89/89/89 90/90/90 88/88/88
f 89/89/89 91/91/91 90/90/90
f 90/90/90 91/91/91 92/92/92
f 87/87/87 93/93/93 86/86/86
f 84/84/84 94/94/94 89/89/89
f 95/95/95 92/92/92 96/96/96
f 97/97/97 99/99/99 98/98/98
f 97/97/97 98/98/98 100/100/100
f 101/101/101 103/103/103 102/102/102
f 104/104/104 106/106/106 105/105/105
f 107/107/107 109/109/109 108/108/108
