# Generated from legacy Unity YAML Mesh assets without Unity.
mtllib collision.mtl

o collision_PZ_house_002
v 41.7732084 11.6164806 24.7402817
v 48.5649259 11.6164806 14.2234034
v 41.7732084 11.6164806 14.2234029
v 48.5649259 11.6164806 24.7402817
v 48.5649259 11.6164806 7.79792657
v 41.7732084 11.6164806 7.79792466
v 41.7732084 11.6164806 24.7402817
v 38.5188101 9.21255875 14.2234024
v 38.5188101 9.21255875 24.7402817
v 41.7732084 11.6164806 14.2234029
v 38.5188101 9.21255875 14.2234024
v 27.4380224 11.6092625 24.7402817
v 38.5188101 9.21255875 24.7402817
v 27.3963278 11.6092615 17.3043539
v 38.0625417 11.0677321 4.79820409
v 41.0256956 11.1481259 4.79820027
v 41.2727392 14.2245319 8.67112699
v 38.0625417 11.0677321 4.79820409
v 41.0256956 6.59154987 4.79819932
v 41.0256956 11.1481259 4.79820027
v 38.0625417 6.59154987 4.79820123
v 41.0256956 11.1481259 4.79820027
v 41.0256956 6.59154987 4.79819932
v 41.2727392 14.2245319 8.67112699
v 44.7074087 11.1481259 4.87119832
v 44.7074087 14.2245319 8.74412503
v 44.7074087 6.59154987 4.87119737
v 44.7074087 11.1481259 4.87119832
v 45.3092878 14.2245319 8.74412503
v 44.7074087 14.2245319 8.74412503
v 45.3092878 11.1481259 4.87119832
v 44.7074087 6.59154987 4.87119737
v 45.3092878 11.1481259 4.87119832
v 44.7074087 11.1481259 4.87119832
v 45.3092878 6.59154987 4.87119737
v 42.9316938 7.55889225 4.80288949
v 43.2818067 8.00005436 5.66836801
v 42.9316938 7.55889225 5.46841683
v 43.2818067 8.00005436 4.80288949
v 42.9316938 7.26444912 4.80288949
v 42.9316938 7.55889225 5.46841683
v 42.9316938 7.26444912 5.31256356
v 42.9316938 7.55889225 4.80288949
v 43.2818067 8.00005436 4.80288949
v 45.3092878 8.00005436 5.66836801
v 43.2818067 8.00005436 5.66836801
v 45.3092878 8.00005436 4.80288949
v 52.3807142 11.0677321 4.79820218
v 49.3458364 14.2245319 8.67112889
v 49.59288 11.1481259 4.79820218
v 52.3807142 11.0677321 4.79820218
v 49.59288 6.59154987 4.79820123
v 52.5560301 6.59154987 4.79819932
v 49.59288 11.1481259 4.79820218
v 49.59288 11.1481259 4.79820218
v 49.3458364 14.2245319 8.67112889
v 49.59288 6.59154987 4.79820123
v 45.9111669 11.1481259 4.87119832
v 45.9111669 6.59154987 4.87119737
v 45.9111669 14.2245319 8.74412503
v 45.9111669 11.1481259 4.87119832
v 45.3092878 14.2245319 8.74412503
v 45.3092878 11.1481259 4.87119832
v 45.9111669 14.2245319 8.74412503
v 45.9111669 6.59154987 4.87119737
v 45.3092878 11.1481259 4.87119832
v 45.3092878 6.59154987 4.87119737
v 45.9111669 11.1481259 4.87119832
v 47.6868818 7.55889225 4.80288949
v 47.3367689 8.00005436 5.66836801
v 47.3367689 8.00005436 4.80288949
v 47.6868818 7.55889225 5.46841683
v 47.6868818 7.26444912 4.80288949
v 47.6868818 7.55889225 5.46841683
v 47.6868818 7.55889225 4.80288949
v 47.6868818 7.26444912 5.31256356
v 47.3367689 8.00005436 4.80288949
v 45.3092878 8.00005436 5.66836801
v 45.3092878 8.00005436 4.80288949
v 47.3367689 8.00005436 5.66836801
v 48.5649259 11.6164799 7.79792657
v 51.5067213 6.76589203 5.04678788
v 49.4587438 6.76589203 5.04678693
v 41.1869009 6.76589203 5.04678693
v 38.7550619 6.76589203 5.04678788
v 41.7732084 11.6164799 7.79792466
v 48.5649259 11.6164806 7.79792657
v 51.5067213 9.21255875 14.2234024
v 51.5067213 6.76589298 5.04678788
v 48.5649259 11.6164806 14.2234034
v 51.5067213 9.21255875 14.2234024
v 48.5649259 11.6164806 24.7402817
v 51.5067213 9.21255875 24.7402817
v 48.5649259 11.6164806 14.2234034
v 38.5188101 9.21255875 14.2234024
v 41.7732084 11.6164806 14.2234029
v 41.7732084 11.6164806 7.79792466
v 38.5188101 9.21255875 14.2234024
v 41.7732084 11.6164806 7.79792466
v 38.7550619 6.76589298 5.04678788
vt 15.7960129 9.18513107
vt 5.90087175 2.79492807
vt 5.90087032 9.18513107
vt 15.7960129 2.79492807
vt -0.144745186 2.79492807
vt -0.144746989 9.18513107
vt 15.7960129 9.18513107
vt 5.90087032 12.247138
vt 15.7960129 12.247138
vt 5.90087032 9.18513107
vt 5.90087032 12.247138
vt 15.7960129 22.6728516
vt 15.7960129 12.247138
vt 8.79968262 22.7120819
vt 3.44152045 0.592260838
vt 3.56062603 0.591920018
vt 3.47110891 0.379043877
vt -2.16145182 1.5919373
vt -2.27093101 1.38139713
vt -2.27092957 1.5919373
vt -2.16145301 1.38139629
vt 0.679536581 0.746246517
vt 0.72755444 0.651973069
vt 0.727555156 0.851518214
vt 0.777845979 0.746246159
vt 0.729828119 0.851518214
vt 0.729827404 0.651973069
vt 0.782018065 0.828361094
vt 0.8075248 0.994823754
vt 0.782017589 0.994823515
vt 0.807525277 0.828361332
vt 0.782018781 0.632514775
vt 0.807525277 0.828361332
vt 0.782018065 0.828361094
vt 0.807525992 0.632514894
vt 0.708970547 0.623628974
vt 0.695588708 0.650950253
vt 0.708970547 0.64463824
vt 0.695588708 0.623628974
vt 0.721279144 0.623628974
vt 0.708970547 0.64463824
vt 0.721279144 0.639718294
vt 0.708970547 0.623628974
vt 0.695588708 0.623628974
vt 0.65312916 0.650950253
vt 0.695588708 0.650950253
vt 0.65312916 0.623628974
vt 3.83375883 1.3754822
vt 3.72234082 1.59051955
vt 3.95929909 1.59051955
vt -2.42965436 1.5919373
vt -2.32665324 1.38341856
vt -2.436131 1.3834182
vt -2.32665396 1.5919373
vt 0.679536581 0.746246517
vt 0.727555156 0.851518214
vt 0.72755444 0.651973069
vt 0.777845979 0.746246159
vt 0.729827404 0.651973069
vt 0.729828119 0.851518214
vt 0.781656146 0.828361094
vt 0.8075248 0.994823754
vt 0.807525277 0.828361332
vt 0.781655669 0.994823515
vt 0.781656861 0.632514775
vt 0.807525277 0.828361332
vt 0.807525992 0.632514894
vt 0.781656146 0.828361094
vt 0.708970547 0.623628974
vt 0.695588708 0.650950253
vt 0.695588708 0.623628974
vt 0.708970547 0.64463824
vt 0.721279144 0.623628974
vt 0.708970547 0.64463824
vt 0.708970547 0.623628974
vt 0.721279144 0.639718294
vt 0.695588708 0.623628974
vt 0.65312916 0.650950253
vt 0.65312916 0.623628974
vt 0.695588708 0.650950253
vt 9.14148712 25.5207615
vt 4.57765484 22.752882
vt 4.57765484 24.6797848
vt 4.57765484 32.4626122
vt 4.57765484 34.7506866
vt 9.14148712 31.910965
vt 25.9584274 2.61060309
vt 28.2202377 8.65621662
vt 30.5222607 0.0221054424
vt 25.9584274 8.65621948
vt 5.90087032 0.0270450488
vt 15.7960129 2.79492807
vt 15.7960129 0.0270450488
vt 5.90087175 2.79492807
vt 36.2047119 32.7521935
vt 36.1416817 34.7028008
vt 41.357708 34.8713417
vt 36.2047119 32.7521935
vt 41.357708 34.8713417
vt 43.7910614 31.0059814
vn 0 -1 -2.22044605e-16
vn 0 -1 -2.22044605e-16
vn 0 -1 -2.22044605e-16
vn 0 -1 -2.22044605e-16
vn 0 -1 -2.22044605e-16
vn 0 -1 -2.22044605e-16
vn 0.594150834 -0.804353645 -1.78602387e-16
vn 0.594150834 -0.804353645 -1.78602387e-16
vn 0.594150834 -0.804353645 -1.78602387e-16
vn 0.594150834 -0.804353645 -1.78602387e-16
vn -0.210960744 -0.977494411 0.000489999537
vn -0.210960744 -0.977494411 0.000489999537
vn -0.210960744 -0.977494411 0.000489999537
vn -0.210960744 -0.977494411 0.000489999537
vn -0.0212583462 0.783510485 -0.621014817
vn -0.0212583478 0.783510537 -0.621014751
vn -0.0212583478 0.783510537 -0.621014751
vn 0 2.22044605e-16 -1
vn 0 2.22044605e-16 -1
vn 0 2.22044605e-16 -1
vn 0 2.22044605e-16 -1
vn 0.997971775 1.41349062e-17 -0.0636579583
vn 0.997971776 1.41349045e-17 -0.0636579509
vn 0.997971776 1.41349045e-17 -0.0636579509
vn -1 0 0
vn -1 0 0
vn -1 0 0
vn 0 0.783027479 -0.621987112
vn 0 0.783027479 -0.621987112
vn 0 0.783027479 -0.621987112
vn 0 0.783027479 -0.621987112
vn 0 2.22044605e-16 -1
vn 0 2.22044605e-16 -1
vn 0 2.22044605e-16 -1
vn 0 2.22044605e-16 -1
vn -0.783302435 0.621640809 1.38031988e-16
vn -0.783302487 0.621640743 1.38031973e-16
vn -0.783302458 0.62164078 1.38031981e-16
vn -0.783302435 0.621640809 1.38031988e-16
vn -1 0 0
vn -1 0 0
vn -1 0 0
vn -1 0 0
vn 0 1 2.22044605e-16
vn 0 1 2.22044605e-16
vn 0 1 2.22044605e-16
vn 0 1 2.22044605e-16
vn 0.0225949112 0.783529023 -0.620944233
vn 0.0225949123 0.783528994 -0.62094427
vn 0.022594912 0.78352904 -0.620944212
vn 0 2.22044605e-16 -1
vn 0 2.22044605e-16 -1
vn 0 2.22044605e-16 -1
vn 0 2.22044605e-16 -1
vn -0.997971775 1.41349062e-17 -0.0636579583
vn -0.997971776 1.41349045e-17 -0.0636579509
vn -0.997971776 1.41349045e-17 -0.0636579509
vn 1 0 0
vn 1 0 0
vn 1 0 0
vn 0 0.783027456 -0.621987141
vn 0 0.783027456 -0.621987141
vn 0 0.783027456 -0.621987141
vn 0 0.783027456 -0.621987141
vn 0 2.22044605e-16 -1
vn 0 2.22044605e-16 -1
vn 0 2.22044605e-16 -1
vn 0 2.22044605e-16 -1
vn 0.78330251 0.621640714 1.38031967e-16
vn 0.783302539 0.621640677 1.38031959e-16
vn 0.78330251 0.621640714 1.38031967e-16
vn 0.78330251 0.621640714 1.38031967e-16
vn 1 0 0
vn 1 0 0
vn 1 0 0
vn 1 0 0
vn 0 1 2.22044605e-16
vn 0 1 2.22044605e-16
vn 0 1 2.22044605e-16
vn 0 1 2.22044605e-16
vn 0 -0.493348063 0.869831989
vn 0 -0.493348063 0.869831989
vn 0 -0.493348063 0.869831989
vn 0 -0.493348063 0.869831989
vn 0 -0.493348114 0.86983196
vn 0 -0.493348114 0.86983196
vn -0.753380819 -0.649645136 0.101875109
vn -0.753380849 -0.649645102 0.101875106
vn -0.753380794 -0.649645166 0.101875107
vn -0.753380794 -0.649645166 0.101875107
vn -0.632764396 -0.77434438 -1.71938992e-16
vn -0.632764396 -0.77434438 -1.71938992e-16
vn -0.632764396 -0.77434438 -1.71938992e-16
vn -0.632764396 -0.77434438 -1.71938992e-16
vn 0.594150806 -0.804353666 -1.78602392e-16
vn 0.594150767 -0.804353694 -1.78602398e-16
vn 0.594150767 -0.804353694 -1.78602398e-16
vn 0.787156804 -0.590590226 0.177728307
vn 0.787156806 -0.590590228 0.177728292
vn 0.787156804 -0.590590226 0.177728307

g collision_PZ_house_002_submesh_0
usemtl collision
f 1/1/1 3/3/3 2/2/2
f 1/1/1 2/2/2 4/4/4
f 3/3/3 5/5/5 2/2/2
f 3/3/3 6/6/6 5/5/5
f 7/7/7 9/9/9 8/8/8
f 7/7/7 8/8/8 10/10/10
f 11/11/11 13/13/13 12/12/12
f 11/11/11 12/12/12 14/14/14

g collision_PZ_house_002_submesh_1
usemtl collision
f 15/15/15 17/17/17 16/16/16
f 18/18/18 20/20/20 19/19/19
f 18/18/18 19/19/19 21/21/21
f 22/22/22 24/24/24 23/23/23
f 25/25/25 27/27/27 26/26/26
f 28/28/28 30/30/30 29/29/29
f 28/28/28 29/29/29 31/31/31
f 32/32/32 34/34/34 33/33/33
f 32/32/32 33/33/33 35/35/35
f 36/36/36 38/38/38 37/37/37
f 36/36/36 37/37/37 39/39/39
f 40/40/40 42/42/42 41/41/41
f 40/40/40 41/41/41 43/43/43
f 44/44/44 46/46/46 45/45/45
f 44/44/44 45/45/45 47/47/47
f 48/48/48 50/50/50 49/49/49
f 51/51/51 53/53/53 52/52/52
f 51/51/51 52/52/52 54/54/54
f 55/55/55 57/57/57 56/56/56
f 58/58/58 60/60/60 59/59/59
f 61/61/61 63/63/63 62/62/62
f 61/61/61 62/62/62 64/64/64
f 65/65/65 67/67/67 66/66/66
f 65/65/65 66/66/66 68/68/68
f 69/69/69 71/71/71 70/70/70
f 69/69/69 70/70/70 72/72/72
f 73/73/73 75/75/75 74/74/74
f 73/73/73 74/74/74 76/76/76
f 77/77/77 79/79/79 78/78/78
f 77/77/77 78/78/78 80/80/80

g collision_PZ_house_002_submesh_2
usemtl collision
f 81/81/81 83/83/83 82/82/82
f 83/83/83 81/81/81 84/84/84
f 84/84/84 81/81/81 85/85/85
f 85/85/85 81/81/81 86/86/86
f 87/87/87 89/89/89 88/88/88
f 87/87/87 88/88/88 90/90/90
f 91/91/91 93/93/93 92/92/92
f 91/91/91 92/92/92 94/94/94
f 95/95/95 97/97/97 96/96/96
f 98/98/98 100/100/100 99/99/99

o collision_ground_1
v -18.6169245 4.99999991 -4.61551012
v 7.06753899 4.99999991 24.5873269
v -17.7831385 4.99999991 24.5713242
v 7.06753899 4.99999991 -4.61551012
v -23.8505099 4.99999991 24.5713204
v -25.8781741 4.99999991 -4.61551012
v -27.9150278 4.99999991 24.5873269
v -27.9150278 4.99999991 -4.61550821
v -25.846741 -8.70971695e-08 -25.1085502
v -18.6169245 4.99999991 -4.61551012
v -25.8781741 4.99999991 -4.61551012
v -18.6405489 -8.70971695e-08 -25.1085502
v 46.3859937 -8.70971659e-08 -37.7936317
v 36.0110586 2.00722662 -31.8958122
v 35.9924505 -8.70971659e-08 -37.7936317
v 46.386543 2.00722662 -31.8958122
v 46.386543 2.00722662 -31.8958122
v 52.3743627 1.99999991 -21.2819854
v 46.3870924 1.99999991 -21.2819854
v 52.3743627 1.99999991 -31.9140922
v 36.0110586 2.00722662 -31.8958122
v 36.0296667 1.99999991 -21.2819854
v 52.3743627 1.99999991 -15.9861194
v 46.3870924 1.99999991 -15.9861213
v 52.3743627 1.99999991 4.72153555
v 46.3870924 1.99999991 4.72153555
v 42.0784643 1.99999991 24.8306435
v 52.3743627 1.99999991 24.8306435
v 36.0296667 1.99999991 -15.9861213
v 28.6819303 2.00722662 -15.983081
v 28.6745412 1.99999991 4.72153555
v 36.0296667 1.99999991 4.72153555
v 28.6819303 2.00722662 -21.2566215
v 28.6745412 1.99999991 -31.9140922
v 52.3743627 1.99999991 29.422223
v 42.0851514 2.00031248 29.4221123
v 33.6801145 1.99999991 24.8306435
v 33.8156393 2.00031248 29.4220933
v 24.7075384 1.99999991 24.8306435
v 20.8787172 1.99999991 4.72153555
v 20.8787172 1.99999991 24.8306435
v 24.7075384 1.99999991 29.4221886
v 10.7131898 1.99999991 4.72153555
v 10.7131898 1.99999991 24.8306435
v 7.1375692 1.99999991 4.72153555
v 7.1375692 1.99999991 24.8306435
v 42.0784605 1.99999991 32.3959588
v 52.3743627 1.99999991 32.3959588
v 24.7075384 1.99999991 32.3959588
v 33.8095358 1.99999991 32.3959588
v 22.7732236 -8.70971704e-08 -21.2312576
v 28.6819303 2.00722662 -15.983081
v 22.7732236 -8.70971713e-08 -15.9800407
v 28.6819303 2.00722662 -21.2566215
v 10.7125433 -0.0122939027 30.0699547
v 20.8787172 1.99999991 24.8306435
v 20.8568437 -0.0122939027 30.0699547
v 10.7131898 1.99999991 24.8306435
v 33.8315923 -0.0122939027 34.750985
v 42.0851514 2.00031248 29.4221123
v 42.1052244 -0.0122939027 34.750985
v 33.8156393 2.00031248 29.4220933
v -17.7831385 4.99999991 24.5713242
v -23.8505137 2.9434804 29.1565941
v -23.8505099 4.99999991 24.5713204
v -17.7831385 2.9434804 29.1565941
v -22.7257998 2.9434804 36.783944
v -32.2112086 -8.70971828e-08 35.9294518
v -25.7594874 2.9434804 32.1408776
v -29.177521 -8.70971837e-08 40.5725182
v -15.908066 2.9434804 32.1067589
v -12.1414416 -8.70971837e-08 40.751046
v -18.9417498 2.9434804 36.7498253
v -9.1077578 -8.70971828e-08 36.1079796
v 10.5973108 7.68219176 45.7886971
v 18.5973108 7.68219176 37.7886971
v 18.5973108 7.68219176 45.7886971
v 10.5973108 7.68219176 37.7886971
v -36.4833071 5.00282756 9.99216925
v -27.915024 5.00282803 12.9794282
v -36.2219546 5.00282756 12.9794282
v -27.915024 5.00282803 9.99216543
v -27.915024 5.00282803 15.8759202
v -35.4458392 5.00282756 15.875924
v -27.915024 5.00282803 18.5936364
v -34.1785471 5.00282756 18.5936402
v -27.915024 5.00282803 21.0500077
v -32.4585841 5.00282756 21.0500077
v -27.915024 5.00282803 23.1703881
v -30.3381998 5.00282756 23.1703919
v -36.2219546 5.00282756 7.00489508
v -27.915024 5.00282803 7.00489508
v -35.4458392 5.00282756 4.10840307
v -27.915024 5.00282803 4.10840307
v -34.1785433 5.00282756 1.39068304
v -27.915024 5.00282803 1.39068304
v -32.4585764 5.00282756 -1.06568063
v -27.915024 5.00282803 -1.06568063
v -30.338196 5.00282756 -3.18605913
v -27.915024 5.00282803 -3.18605722
v -27.9150278 4.99999991 24.5873269
v -27.9150278 4.99999991 -4.61550821
v 28.6745451 0.0059541785 -10.8066493
v 26.1624525 2.00000039 -4.65372576
v 24.6555555 0.0059541785 -10.2775413
v 28.6745451 2.00000039 -4.98444666
v 24.6555555 0.0059541785 -10.2775413
v 23.821552 2.00000039 -3.68409456
v 20.9104555 0.0059541785 -8.72627176
v 26.1624525 2.00000039 -4.65372576
v 20.9104555 0.0059541785 -8.72627176
v 21.8113782 2.00000039 -2.14163507
v 17.6944616 0.0059541785 -6.25855554
v 23.821552 2.00000039 -3.68409456
v 17.6944616 0.0059541785 -6.25855554
v 20.2689149 2.00000039 -0.131461274
v 15.2267435 0.0059541785 -3.04256548
v 21.8113782 2.00000039 -2.14163507
v 15.2267435 0.0059541785 -3.04256548
v 19.2992818 2.00000039 2.20943533
v 13.6754682 0.0059541785 0.702534545
v 20.2689149 2.00000039 -0.131461274
v 13.6754682 0.0059541785 0.702534545
v 18.9685552 2.00000039 4.72153555
v 13.1463544 0.0059541785 4.72153555
v 19.2992818 2.00000039 2.20943533
v 28.6745451 2.00000039 -4.98444666
v 28.6745412 1.99999991 4.72153555
v 26.1624525 2.00000039 -4.65372576
v 23.821552 2.00000039 -3.68409456
v 21.8113782 2.00000039 -2.14163507
v 20.2689149 2.00000039 -0.131461274
v 19.2992818 2.00000039 2.20943533
v 26.1624525 2.00000039 -4.65372576
v 28.6745412 1.99999991 4.72153555
v 23.821552 2.00000039 -3.68409456
v 21.8113782 2.00000039 -2.14163507
v 20.2689149 2.00000039 -0.131461274
v 19.2992818 2.00000039 2.20943533
v 18.9685552 2.00000039 4.72153555
v -22.7257998 2.9434804 36.783944
v -25.7594874 2.9434804 32.1408776
v -20.8337748 2.9434804 32.1238183
v -15.908066 2.9434804 32.1067589
v -20.8337748 2.9434804 32.1238183
v -17.7831385 2.9434804 29.1565941
v -22.7257998 2.9434804 36.783944
v -20.8337748 2.9434804 32.1238183
v -18.9417498 2.9434804 36.7498253
v -18.9417498 2.9434804 36.7498253
v -20.8337748 2.9434804 32.1238183
v -15.908066 2.9434804 32.1067589
v -17.7831385 2.9434804 29.1565941
v -20.8337748 2.9434804 32.1238183
v -23.8505137 2.9434804 29.1565941
v -23.8505137 2.9434804 29.1565941
v -20.8337748 2.9434804 32.1238183
v -25.7594874 2.9434804 32.1408776
v 12.6901472 2.00520221 21.1203164
v 7.05114151 5.00261393 8.97390448
v 12.6901453 2.00520221 8.97390448
v 7.05114342 5.00261393 21.1203164
vt 34.9136581 11.1999559
vt 22.412962 25.4824677
vt 34.5689011 25.4824677
vt 22.3498268 11.1999559
vt 37.5368195 25.4824677
vt 38.4357414 11.1999559
vt 39.4934921 25.4824677
vt 39.4934921 11.1999559
vt 38.4357414 1.15500569
vt 34.9136581 11.1999559
vt 38.4357414 11.1999559
vt 34.8809204 1.17058468
vt 19.0625782 34.086483
vt 13.9875221 31.0437679
vt 13.9784184 34.086483
vt 19.062849 31.0437679
vt 19.062849 31.0437679
vt 22.2327576 26.0962982
vt 19.0631161 26.0962982
vt 22.2327538 31.0431442
vt 13.9875221 31.0437679
vt 13.996623 26.0962982
vt 22.2327576 23.9262466
vt 19.0631161 23.9293537
vt 22.2327576 14.0832901
vt 19.0631161 14.0832939
vt 16.9557266 4.96078634
vt 22.2252464 4.9607811
vt 13.996623 23.9293537
vt 10.0188551 23.9293537
vt 10.0152407 14.0832939
vt 13.996623 14.0832939
vt 10.0188551 26.0962982
vt 10.0152407 31.0437679
vt 22.2249718 2.50068378
vt 16.9575272 2.60879445
vt 12.8473845 4.96078491
vt 12.9164343 2.65733218
vt 8.07472038 4.96078491
vt 6.01025772 14.0832939
vt 6.01025772 4.96078491
vt 8.07472038 2.64488101
vt 0.989390314 14.0832939
vt 0.989390314 4.96078491
vt -0.519900084 14.0832939
vt -0.519900084 4.96078491
vt 16.9561348 1.07060349
vt 22.2248878 1.07060349
vt 8.07472038 1.26778269
vt 12.9161434 1.26775479
vt 7.12852144 26.0962982
vt 10.0188551 23.9293537
vt 7.12852144 23.9293537
vt 10.0188551 26.0962982
vt 0.989074051 1.91393995
vt 6.01025772 4.96078491
vt 5.99955797 1.91393995
vt 0.989390314 4.96078491
vt 12.9215708 -0.116354398
vt 16.9575272 2.60879445
vt 16.9687405 -0.116350248
vt 12.9164343 2.65733218
vt 34.9575005 25.9251366
vt 38.0508499 28.0865231
vt 38.0508499 25.9251366
vt 34.9575005 28.0865231
vt 38.9183846 26.9382839
vt 42.0866966 31.0732346
vt 42.0866966 26.9382839
vt 38.9183846 31.0732346
vt 29.922327 26.9188786
vt 33.0867043 31.056181
vt 33.0867043 26.9229965
vt 29.922327 31.0520687
vt 5.01258755 5.01258755
vt 0.00999965984 0.00999985635
vt 0.00999965984 5.01258755
vt 5.01258755 0.00999985635
vt 2.09608459 3.85437727
vt 1.6209414 2.49153256
vt 1.62094116 3.81280708
vt 2.09608483 2.49153256
vt 1.16023397 2.49153256
vt 1.16023445 3.68935966
vt 0.727962494 2.49153256
vt 0.727962494 3.48778915
vt 0.337260246 2.49153256
vt 0.337260246 3.21421576
vt -2.38418579e-06 2.49153256
vt -2.38418579e-06 2.87695646
vt 2.57122946 3.81280708
vt 2.5712297 2.49153256
vt 3.03193498 3.68935966
vt 3.03193521 2.49153256
vt 3.46421003 3.48778772
vt 3.46421003 2.49153256
vt 3.85491228 3.21421576
vt 3.85491228 2.49153256
vt 4.19217014 2.87695646
vt 4.19217014 2.49153256
vt -0.238575578 2.49157262
vt 4.43948555 2.4923265
vt 1.10248375 -0.00917833112
vt 0.566870153 1.00097907
vt 0.451521128 -0.00917833112
vt 0.958407879 1.00097907
vt 0.451521128 -0.00917833112
vt 0.969877481 1.00097907
vt 1.09627223 -0.00917833112
vt 0.566870153 1.00097907
vt 1.09627223 -0.00917833112
vt 0.571052492 1.00097907
vt 0.45639798 -0.00917833112
vt 0.969877481 1.00097907
vt 0.45639798 -0.00917833112
vt 0.968134403 1.00097907
vt 1.09615898 -0.00917833112
vt 0.571052492 1.00097907
vt 1.09615898 -0.00917833112
vt 0.564873874 1.00097907
vt 0.45099327 -0.00917833112
vt 0.968134403 1.00097907
vt 0.45099327 -0.00917833112
vt 0.955987453 1.00097907
vt 1.10127783 -0.00917833112
vt 0.564873874 1.00097907
vt 0.958407879 1.00097907
vt 0.754720449 2.43798685
vt 0.566870153 1.00097907
vt 0.969877481 1.00097907
vt 0.571052492 1.00097907
vt 0.968134403 1.00097907
vt 0.564873874 1.00097907
vt 0.566870153 1.00097907
vt 0.754720449 2.43798685
vt 0.969877481 1.00097907
vt 0.571052492 1.00097907
vt 0.968134403 1.00097907
vt 0.564873874 1.00097907
vt 0.955987453 1.00097907
vt 3.01204014 -0.000254477345
vt 2.15979958 -0.000254477345
vt 2.56915426 0.724931121
vt 4.48154306 -0.000254477345
vt 4.8805933 0.724931121
vt 5.0186677 -0.000254477345
vt 3.02338958 -0.000254477345
vt 3.31411886 0.724931121
vt 3.60484958 -0.000254477345
vt 3.61424613 -0.000254477345
vt 4.0465374 0.724931121
vt 4.46647787 -0.000254477345
vt 5.03898287 -0.000254477345
vt 5.51394939 0.724931121
vt 5.97121143 -0.000254477345
vt 1.59477663 -0.000254477345
vt 1.72966349 0.724931121
vt 2.13913727 -0.000254477345
vt -0.183239743 2.15902352
vt 2.23791265 3.34065318
vt 2.23790407 2.15900588
vt -0.18323116 3.34067082
vn 0 1 2.22044605e-16
vn 0 1 2.22044605e-16
vn 0 1 2.22044605e-16
vn 0 1 2.22044605e-16
vn 0 1 2.22044605e-16
vn 0 1 2.22044605e-16
vn 0 1 2.22044605e-16
vn 0 1 2.22044605e-16
vn 0 0.971501812 -0.237032126
vn 0 0.971501812 -0.237032126
vn 0 0.971501819 -0.237032098
vn 0 0.971501819 -0.237032098
vn 0 0.94667643 -0.322185873
vn 0 0.946676424 -0.322185891
vn 0 0.946676415 -0.322185918
vn 0 0.946676424 -0.322185891
vn 0.00064823728 0.999999732 0.000340128482
vn 0.00064823728 0.999999732 0.000340128511
vn 0.00064823728 0.999999732 0.000340128482
vn 0.000648237338 0.999999732 0.000340128511
vn 0 0.999999768 0.000680876435
vn 0.000983527622 0.999999516 2.22044498e-16
vn 0 1 2.22044605e-16
vn 0 1 2.22044605e-16
vn 0 1 2.22044605e-16
vn 0 1 2.22044605e-16
vn 0 1 2.22044605e-16
vn 0 1 2.22044605e-16
vn 0.000491553036 0.999999864 0.000174594051
vn 0.000491552978 0.999999864 0.000174594051
vn 0 1 2.22044605e-16
vn 0.000491553036 0.999999864 0.000174594065
vn 0.000983527738 0.999999516 2.22044498e-16
vn 0 1 2.22044605e-16
vn 1.58120638e-05 0.999999999 -3.40488841e-05
vn 1.58120638e-05 0.999999999 -3.40488805e-05
vn -1.72875152e-05 0.999999999 -3.3782424e-05
vn -1.72875152e-05 0.999999999 -3.3782424e-05
vn 0 1 2.22044605e-16
vn 0 1 2.22044605e-16
vn 0 1 2.22044605e-16
vn -1.7287517e-05 0.999999999 -3.37824276e-05
vn 0 1 2.22044605e-16
vn 0 1 2.22044605e-16
vn 0 1 2.22044605e-16
vn 0 1 2.22044605e-16
vn 1.58115781e-05 0.999999998 5.25713694e-05
vn 1.58115781e-05 0.999999998 5.25713694e-05
vn -1.71641986e-05 0.999999998 5.25354953e-05
vn -1.71642004e-05 0.999999998 5.25354989e-05
vn -0.321653709 0.946857377 2.10244572e-16
vn -0.321653709 0.946857377 2.10244572e-16
vn -0.321653709 0.946857377 2.10244572e-16
vn -0.321653709 0.946857377 2.10244572e-16
vn 0 0.933514181 0.358540477
vn 0 0.933514191 0.358540451
vn 0 0.933514181 0.358540477
vn 0 0.933514191 0.358540451
vn 0 0.935502662 0.353319643
vn 0 0.935502662 0.353319643
vn 0 0.935502652 0.353319669
vn 0 0.935502652 0.353319669
vn 0 0.912431107 0.409230345
vn 0 0.912431107 0.409230345
vn 0 0.912431107 0.409230345
vn 0 0.912431107 0.409230345
vn -0.306785761 0.930431719 0.200447782
vn -0.306785761 0.930431719 0.200447782
vn -0.306785762 0.930431722 0.200447768
vn -0.306785762 0.930431722 0.200447768
vn 0.292890234 0.936799568 0.191368439
vn 0.292890234 0.936799568 0.191368439
vn 0.292890262 0.936799563 0.191368423
vn 0.292890262 0.936799563 0.191368423
vn 0 1 2.22044605e-16
vn 0 1 2.22044605e-16
vn 0 1 2.22044605e-16
vn 0 1 2.22044605e-16
vn 0 1 2.22044605e-16
vn 0 1 2.22044605e-16
vn 0 1 2.22044605e-16
vn 0 1 2.22044605e-16
vn 0 1 2.22044605e-16
vn 0 1 2.22044605e-16
vn 0 1 2.22044605e-16
vn 0 1 2.22044605e-16
vn 0 1 2.22044605e-16
vn 0 1 2.22044605e-16
vn 0 1 2.22044605e-16
vn 0 1 2.22044605e-16
vn 0 1 2.22044605e-16
vn 0 1 2.22044605e-16
vn 0 1 2.22044605e-16
vn 0 1 2.22044605e-16
vn 0 1 2.22044605e-16
vn 0 1 2.22044605e-16
vn 0 1 2.22044605e-16
vn 0 1 2.22044605e-16
vn 0 1 2.22044605e-16
vn 0 1 2.22044605e-16
vn 0 0.999998008 0.00199593354
vn 0 0.999998043 -0.00197846293
vn -0.0426182316 0.945192887 -0.323719158
vn -0.0838606752 0.946052457 -0.31297306
vn -0.0838607048 0.946052454 -0.31297306
vn -0.0426182353 0.945192887 -0.323719158
vn -0.0838607048 0.946052454 -0.31297306
vn -0.162006635 0.946052451 -0.28060401
vn -0.162006606 0.946052455 -0.280604012
vn -0.0838606752 0.946052457 -0.31297306
vn -0.162006606 0.946052455 -0.280604012
vn -0.229112033 0.946052449 -0.229112287
vn -0.229112047 0.946052446 -0.229112286
vn -0.162006635 0.946052451 -0.28060401
vn -0.229112047 0.946052446 -0.229112286
vn -0.280603885 0.94605243 -0.162006974
vn -0.280603886 0.946052432 -0.162006959
vn -0.229112033 0.946052449 -0.229112287
vn -0.280603886 0.946052432 -0.162006959
vn -0.312972995 0.946052438 -0.083861128
vn -0.312973049 0.946052421 -0.0838611191
vn -0.280603885 0.94605243 -0.162006974
vn -0.312973049 0.946052421 -0.0838611191
vn -0.323719188 0.945192857 -0.0426186678
vn -0.323719188 0.945192857 -0.0426186678
vn -0.312972995 0.946052438 -0.083861128
vn 0 1 2.22044605e-16
vn 0 1 2.22044605e-16
vn 0 1 2.22044605e-16
vn 0 1 2.22044605e-16
vn 0 1 2.22044605e-16
vn 0 1 2.22044605e-16
vn 0 1 2.22044605e-16
vn 0 1 2.22044605e-16
vn 0 1 2.22044605e-16
vn 0 1 2.22044605e-16
vn 0 1 2.22044605e-16
vn 0 1 2.22044605e-16
vn 0 1 2.22044605e-16
vn 0 1 2.22044605e-16
vn 0 1 2.22044605e-16
vn 0 1 2.22044605e-16
vn 0 1 2.22044605e-16
vn 0 1 2.22044605e-16
vn 0 1 2.22044605e-16
vn 0 1 2.22044605e-16
vn 0 1 2.22044605e-16
vn 0 1 2.22044605e-16
vn 0 1 2.22044605e-16
vn 0 1 2.22044605e-16
vn 0 1 2.22044605e-16
vn 0 1 2.22044605e-16
vn 0 1 2.22044605e-16
vn 0 1 2.22044605e-16
vn 0 1 2.22044605e-16
vn 0 1 2.22044605e-16
vn 0 1 2.22044605e-16
vn 0 1 2.22044605e-16
vn 0.46936175 0.883005973 1.96066712e-16
vn 0.46936175 0.883005973 1.96066712e-16
vn 0.46936175 0.883005973 1.96066712e-16
vn 0.46936175 0.883005973 1.96066712e-16

g collision_ground_1_submesh_0
usemtl collision_2
f 101/101/101 103/103/103 102/102/102
f 102/102/102 104/104/104 101/101/101
f 101/101/101 105/105/105 103/103/103
f 101/101/101 106/106/106 105/105/105
f 106/106/106 107/107/107 105/105/105
f 106/106/106 108/108/108 107/107/107
f 109/109/109 111/111/111 110/110/110
f 109/109/109 110/110/110 112/112/112
f 113/113/113 115/115/115 114/114/114
f 113/113/113 114/114/114 116/116/116
f 117/117/117 119/119/119 118/118/118
f 117/117/117 118/118/118 120/120/120
f 121/121/121 119/119/119 117/117/117
f 121/121/121 122/122/122 119/119/119
f 123/123/123 118/118/118 119/119/119
f 123/123/123 119/119/119 124/124/124
f 124/124/124 119/119/119 122/122/122
f 125/125/125 123/123/123 124/124/124
f 125/125/125 124/124/124 126/126/126
f 127/127/127 125/125/125 126/126/126
f 127/127/127 128/128/128 125/125/125
f 126/126/126 124/124/124 129/129/129
f 124/124/124 122/122/122 129/129/129
f 130/130/130 129/129/129 122/122/122
f 131/131/131 129/129/129 130/130/130
f 131/131/131 132/132/132 129/129/129
f 126/126/126 129/129/129 132/132/132
f 132/132/132 127/127/127 126/126/126
f 130/130/130 122/122/122 133/133/133
f 134/134/134 133/133/133 122/122/122
f 134/134/134 122/122/122 121/121/121
f 127/127/127 135/135/135 128/128/128
f 127/127/127 136/136/136 135/135/135
f 137/137/137 136/136/136 127/127/127
f 132/132/132 137/137/137 127/127/127
f 137/137/137 138/138/138 136/136/136
f 139/139/139 138/138/138 137/137/137
f 132/132/132 131/131/131 139/139/139
f 132/132/132 139/139/139 137/137/137
f 139/139/139 131/131/131 140/140/140
f 139/139/139 140/140/140 141/141/141
f 139/139/139 142/142/142 138/138/138
f 143/143/143 141/141/141 140/140/140
f 143/143/143 144/144/144 141/141/141
f 145/145/145 144/144/144 143/143/143
f 145/145/145 146/146/146 144/144/144
f 147/147/147 135/135/135 136/136/136
f 147/147/147 148/148/148 135/135/135
f 149/149/149 138/138/138 142/142/142
f 149/149/149 150/150/150 138/138/138
f 151/151/151 153/153/153 152/152/152
f 151/151/151 152/152/152 154/154/154
f 155/155/155 157/157/157 156/156/156
f 155/155/155 156/156/156 158/158/158
f 159/159/159 161/161/161 160/160/160
f 159/159/159 160/160/160 162/162/162
f 163/163/163 165/165/165 164/164/164
f 163/163/163 164/164/164 166/166/166
f 167/167/167 169/169/169 168/168/168
f 167/167/167 168/168/168 170/170/170
f 171/171/171 173/173/173 172/172/172
f 171/171/171 172/172/172 174/174/174
f 175/175/175 177/177/177 176/176/176
f 175/175/175 176/176/176 178/178/178

g collision_ground_1_submesh_1
usemtl collision_2
f 179/179/179 181/181/181 180/180/180
f 179/179/179 180/180/180 182/182/182
f 181/181/181 183/183/183 180/180/180
f 181/181/181 184/184/184 183/183/183
f 184/184/184 185/185/185 183/183/183
f 184/184/184 186/186/186 185/185/185
f 186/186/186 187/187/187 185/185/185
f 186/186/186 188/188/188 187/187/187
f 188/188/188 189/189/189 187/187/187
f 188/188/188 190/190/190 189/189/189
f 191/191/191 179/179/179 182/182/182
f 191/191/191 182/182/182 192/192/192
f 193/193/193 191/191/191 192/192/192
f 193/193/193 192/192/192 194/194/194
f 195/195/195 193/193/193 194/194/194
f 195/195/195 194/194/194 196/196/196
f 197/197/197 195/195/195 196/196/196
f 197/197/197 196/196/196 198/198/198
f 199/199/199 197/197/197 198/198/198
f 199/199/199 198/198/198 200/200/200
f 190/190/190 201/201/201 189/189/189
f 199/199/199 200/200/200 202/202/202
f 203/203/203 205/205/205 204/204/204
f 203/203/203 204/204/204 206/206/206
f 207/207/207 209/209/209 208/208/208
f 207/207/207 208/208/208 210/210/210
f 211/211/211 213/213/213 212/212/212
f 211/211/211 212/212/212 214/214/214
f 215/215/215 217/217/217 216/216/216
f 215/215/215 216/216/216 218/218/218
f 219/219/219 221/221/221 220/220/220
f 219/219/219 220/220/220 222/222/222
f 223/223/223 225/225/225 224/224/224
f 223/223/223 224/224/224 226/226/226
f 227/227/227 229/229/229 228/228/228
f 230/230/230 231/231/231 228/228/228
f 232/232/232 233/233/233 228/228/228
f 234/234/234 236/236/236 235/235/235
f 237/237/237 238/238/238 235/235/235
f 239/239/239 240/240/240 235/235/235
f 241/241/241 243/243/243 242/242/242
f 244/244/244 246/246/246 245/245/245
f 247/247/247 249/249/249 248/248/248
f 250/250/250 252/252/252 251/251/251
f 253/253/253 255/255/255 254/254/254
f 256/256/256 258/258/258 257/257/257
f 259/259/259 261/261/261 260/260/260
f 259/259/259 260/260/260 262/262/262

o collision_ground_2
v 52.4261875 -1.21944047e-14 54.9187164
v -52.4261837 1.21944047e-14 -54.9187164
v 52.4261875 1.21944047e-14 -54.9187164
v -52.4261837 -1.21944047e-14 54.9187164
vt -2.23924508e-06 60.1587563
vt 60.1587639 -8.69563428e-06
vt -2.23924508e-06 -8.69563428e-06
vt 60.1587639 60.1587563
vn 0 1 2.22044605e-16
vn 0 1 2.22044605e-16
vn 0 1 2.22044605e-16
vn 0 1 2.22044605e-16

g collision_ground_2_submesh_0
usemtl collision_3
f 263/263/263 265/265/265 264/264/264
f 263/263/263 264/264/264 266/266/266

o collision_PZ_house_001
v 45.3092879 14.3853204 13.9228753
v 41.2727393 14.2245321 8.67112794
v 45.3092879 14.3853197 8.67112031
v 41.2727393 14.2245319 13.9228753
v 41.2727431 14.2245316 16.906001
v 49.3458365 14.2245321 8.67112985
v 49.3458365 14.2245319 13.9228772
v 49.3458327 14.2245316 16.9060029
v 41.2727393 14.2245319 13.9228753
v 38.0625418 11.0677328 4.79820505
v 41.2727393 14.2245321 8.67112794
v 38.0625456 11.0677326 13.922881
v 41.2727431 14.2245316 16.906001
v 45.3092879 14.3853204 13.9228753
v 45.3092879 14.3853199 25.1713807
v 41.2727431 14.2245316 16.906001
v 45.3092879 14.3853199 25.1713807
v 34.0591238 13.3167557 17.0040883
v 41.2727431 14.2245316 16.906001
v 34.0591238 13.3167555 25.1713835
v 38.0625456 11.0677326 13.922881
v 41.2727431 14.2245316 16.906001
v 34.0591238 13.3167557 17.0040883
v 26.0666178 12.0412431 17.0892953
v 34.0591238 13.3167555 25.1713835
v 26.0666178 12.0412431 17.0892953
v 34.0591238 13.3167557 17.0040883
v 26.0666178 12.0412428 25.2032658
v 49.3458365 14.2245319 13.9228772
v 52.3807143 11.0677328 4.79820314
v 52.3807143 11.0677326 11.8901204
v 49.3458365 14.2245321 8.67112985
v 49.3458327 14.2245316 16.9060029
v 52.3807143 11.0677323 14.8732461
v 45.3092879 14.3853204 13.9228753
v 49.3458327 14.2245316 16.9060029
v 45.3092879 14.3853199 25.1713807
v 45.3092879 14.3853199 25.1713807
v 52.3807143 13.8086991 17.0040902
v 52.3807105 13.8086989 25.1713816
v 49.3458327 14.2245316 16.9060029
v 52.3807143 13.8086991 17.0040902
v 49.3458327 14.2245316 16.9060029
v 52.3807143 11.0677323 14.8732461
vt 4.30665398 0.458831668
vt 4.40661907 0.593511283
vt 4.30665398 0.593511462
vt 4.40661907 0.458831668
vt 4.40661907 0.379189909
vt 4.20668983 0.593511224
vt 4.20668983 0.458831608
vt 4.20668983 0.379189909
vt 3.18707824 0.379043877
vt 3.44152045 0.592260838
vt 3.47110891 0.379043877
vt 3.12125158 0.592260838
vt 3.04580569 0.379043788
vt 4.30665398 0.458831668
vt 4.30665398 0.593127906
vt 4.40661907 0.379189909
vt 4.30665398 0.593127906
vt 4.58526278 0.379189879
vt 4.40661907 0.379189909
vt 4.58526278 0.593127906
vt 3.12125158 0.592260838
vt 3.04580569 0.379043788
vt 2.80436802 0.468650162
vt 2.50219297 0.591632128
vt 4.58526278 0.593127906
vt 4.78319597 0.379189879
vt 4.58526278 0.379189879
vt 4.78319597 0.593127906
vt 3.33975363 1.59051955
vt 3.83375883 1.3754822
vt 3.33975363 1.3754822
vt 3.72234082 1.59051955
vt 3.09047794 1.59051955
vt 3.14450908 1.3754822
vt 4.30665398 0.458831668
vt 4.20668983 0.379189909
vt 4.30665398 0.593127906
vt 4.30665398 0.593127906
vt 4.13153172 0.379189879
vt 4.13153172 0.593127906
vt 4.20668983 0.379189909
vt 2.98688745 1.3754822
vt 3.09047794 1.59051955
vt 3.14450908 1.3754822
vn 0 1 2.22044605e-16
vn -0.0398014905 0.999207607 2.21868658e-16
vn 0 1 2.22044605e-16
vn -0.039801498 0.999207606 2.21868658e-16
vn -0.0398016616 0.9992076 2.21868657e-16
vn 0.0398014943 0.999207607 2.21868658e-16
vn 0.0398014943 0.999207607 2.21868658e-16
vn 0.0398016616 0.9992076 2.21868657e-16
vn -0.701152119 0.713011715 1.58320405e-16
vn -0.701152059 0.713011774 1.58320418e-16
vn -0.701152089 0.713011745 1.58320411e-16
vn -0.701152119 0.713011715 1.58320405e-16
vn -0.701152269 0.713011567 1.58320372e-16
vn -0.0398016579 0.9992076 2.21868657e-16
vn -0.0398016616 0.9992076 2.21868657e-16
vn -0.0398016616 0.9992076 2.21868657e-16
vn -0.106330386 0.994195743 0.0163912789
vn -0.106330386 0.994195743 0.0163912789
vn -0.106330386 0.994195743 0.0163912789
vn -0.106330386 0.994195743 0.0163912789
vn -0.101715541 0.735955707 -0.669345312
vn -0.101715541 0.735955707 -0.669345312
vn -0.101715541 0.735955707 -0.669345312
vn -0.122100442 0.719418444 -0.683760619
vn -0.157594351 0.987503934 2.19269921e-16
vn -0.157594337 0.987503937 2.19269921e-16
vn -0.157594337 0.987503937 2.19269921e-16
vn -0.157594337 0.987503937 2.19269921e-16
vn 0.720890903 0.693048559 1.53887694e-16
vn 0.720890875 0.693048589 1.538877e-16
vn 0.720890875 0.693048589 1.538877e-16
vn 0.720890875 0.693048589 1.538877e-16
vn 0.720890757 0.693048712 1.53887727e-16
vn 0.720890757 0.693048712 1.53887727e-16
vn 0.0398016616 0.9992076 2.21868657e-16
vn 0.0398016616 0.9992076 2.21868657e-16
vn 0.0398016542 0.9992076 2.21868657e-16
vn 0.0975845947 0.995125441 0.0142338821
vn 0.0975845947 0.995125441 0.0142338821
vn 0.0975845947 0.995125441 0.0142338821
vn 0.0975845947 0.995125441 0.0142338821
vn 0.108959504 0.610103548 -0.784793914
vn 0.108959504 0.610103548 -0.784793914
vn 0.108959496 0.610103548 -0.784793915

g collision_PZ_house_001_submesh_0
usemtl collision_4
f 267/267/267 269/269/269 268/268/268
f 267/267/267 268/268/268 270/270/270
f 267/267/267 270/270/270 271/271/271
f 267/267/267 272/272/272 269/269/269
f 267/267/267 273/273/273 272/272/272
f 267/267/267 274/274/274 273/273/273
f 275/275/275 277/277/277 276/276/276
f 275/275/275 276/276/276 278/278/278
f 279/279/279 275/275/275 278/278/278
f 280/280/280 282/282/282 281/281/281
f 283/283/283 285/285/285 284/284/284
f 283/283/283 284/284/284 286/286/286
f 287/287/287 289/289/289 288/288/288
f 287/287/287 290/290/290 289/289/289
f 291/291/291 293/293/293 292/292/292
f 291/291/291 292/292/292 294/294/294
f 295/295/295 297/297/297 296/296/296
f 295/295/295 296/296/296 298/298/298
f 299/299/299 297/297/297 295/295/295
f 299/299/299 300/300/300 297/297/297
f 301/301/301 303/303/303 302/302/302
f 304/304/304 306/306/306 305/305/305
f 304/304/304 305/305/305 307/307/307
f 308/308/308 310/310/310 309/309/309
