{"asset":{"version":"2.0","generator":"Star Warfare Unity lightmap restoration"},"scene":0,"scenes":[{"nodes":[0]}],"nodes":[{"name":"RestoredStage","mesh":0}],"meshes":[{"name":"RestoredStage","primitives":[{"attributes":{"POSITION":0,"NORMAL":1,"TEXCOORD_0":2,"TEXCOORD_1":3},"indices":4,"material":0},{"attributes":{"POSITION":5,"NORMAL":6,"TEXCOORD_0":7,"TEXCOORD_1":8},"indices":9,"material":1},{"attributes":{"POSITION":10,"NORMAL":11,"TEXCOORD_0":12,"TEXCOORD_1":13},"indices":14,"material":2},{"attributes":{"POSITION":15,"NORMAL":16,"TEXCOORD_0":17,"TEXCOORD_1":18},"indices":19,"material":3},{"attributes":{"POSITION":20,"NORMAL":21,"TEXCOORD_0":22,"TEXCOORD_1":23},"indices":24,"material":4},{"attributes":{"POSITION":25,"NORMAL":26,"TEXCOORD_0":27,"TEXCOORD_1":28},"indices":29,"material":5},{"attributes":{"POSITION":30,"NORMAL":31,"TEXCOORD_0":32,"TEXCOORD_1":33},"indices":34,"material":6},{"attributes":{"POSITION":35,"NORMAL":36,"TEXCOORD_0":37,"TEXCOORD_1":38},"indices":39,"material":7},{"attributes":{"POSITION":40,"NORMAL":41,"TEXCOORD_0":42,"TEXCOORD_1":43},"indices":44,"material":8},{"attributes":{"POSITION":45,"NORMAL":46,"TEXCOORD_0":47,"TEXCOORD_1":48},"indices":49,"material":9},{"attributes":{"POSITION":50,"NORMAL":51,"TEXCOORD_0":52,"TEXCOORD_1":53},"indices":54,"material":10},{"attributes":{"POSITION":55,"NORMAL":56,"TEXCOORD_0":57,"TEXCOORD_1":58},"indices":59,"material":11},{"attributes":{"POSITION":60,"NORMAL":61,"TEXCOORD_0":62,"TEXCOORD_1":63},"indices":64,"material":12},{"attributes":{"POSITION":65,"NORMAL":66,"TEXCOORD_0":67,"TEXCOORD_1":68},"indices":69,"material":13},{"attributes":{"POSITION":70,"NORMAL":71,"TEXCOORD_0":72,"TEXCOORD_1":73},"indices":74,"material":14},{"attributes":{"POSITION":75,"NORMAL":76,"TEXCOORD_0":77,"TEXCOORD_1":78},"indices":79,"material":15},{"attributes":{"POSITION":80,"NORMAL":81,"TEXCOORD_0":82,"TEXCOORD_1":83},"indices":84,"material":16},{"attributes":{"POSITION":85,"NORMAL":86,"TEXCOORD_0":87,"TEXCOORD_1":88},"indices":89,"material":17},{"attributes":{"POSITION":90,"NORMAL":91,"TEXCOORD_0":92,"TEXCOORD_1":93},"indices":94,"material":18},{"attributes":{"POSITION":95,"NORMAL":96,"TEXCOORD_0":97,"TEXCOORD_1":98},"indices":99,"material":19},{"attributes":{"POSITION":100,"NORMAL":101,"TEXCOORD_0":102,"TEXCOORD_1":103},"indices":104,"material":20},{"attributes":{"POSITION":105,"NORMAL":106,"TEXCOORD_0":107,"TEXCOORD_1":108},"indices":109,"material":21},{"attributes":{"POSITION":110,"NORMAL":111,"TEXCOORD_0":112,"TEXCOORD_1":113},"indices":114,"material":22},{"attributes":{"POSITION":115,"NORMAL":116,"TEXCOORD_0":117,"TEXCOORD_1":118},"indices":119,"material":23},{"attributes":{"POSITION":120,"NORMAL":121,"TEXCOORD_0":122,"TEXCOORD_1":123},"indices":124,"material":24},{"attributes":{"POSITION":125,"NORMAL":126,"TEXCOORD_0":127,"TEXCOORD_1":128},"indices":129,"material":25},{"attributes":{"POSITION":130,"NORMAL":131,"TEXCOORD_0":132,"TEXCOORD_1":133},"indices":134,"material":26},{"attributes":{"POSITION":135,"NORMAL":136,"TEXCOORD_0":137,"TEXCOORD_1":138},"indices":139,"material":27},{"attributes":{"POSITION":140,"NORMAL":141,"TEXCOORD_0":142,"TEXCOORD_1":143},"indices":144,"material":28},{"attributes":{"POSITION":145,"NORMAL":146,"TEXCOORD_0":147,"TEXCOORD_1":148},"indices":149,"material":29},{"attributes":{"POSITION":150,"NORMAL":151,"TEXCOORD_0":152,"TEXCOORD_1":153},"indices":154,"material":30},{"attributes":{"POSITION":155,"NORMAL":156,"TEXCOORD_0":157,"TEXCOORD_1":158},"indices":159,"material":31},{"attributes":{"POSITION":160,"NORMAL":161,"TEXCOORD_0":162,"TEXCOORD_1":163},"indices":164,"material":32},{"attributes":{"POSITION":165,"NORMAL":166,"TEXCOORD_0":167,"TEXCOORD_1":168},"indices":169,"material":33},{"attributes":{"POSITION":170,"NORMAL":171,"TEXCOORD_0":172,"TEXCOORD_1":173},"indices":174,"material":34},{"attributes":{"POSITION":175,"NORMAL":176,"TEXCOORD_0":177,"TEXCOORD_1":178},"indices":179,"material":35},{"attributes":{"POSITION":180,"NORMAL":181,"TEXCOORD_0":182,"TEXCOORD_1":183},"indices":184,"material":36}]}],"bufferViews":[{"buffer":0,"byteOffset":0,"byteLength":240},{"buffer":0,"byteOffset":240,"byteLength":240},{"buffer":0,"byteOffset":480,"byteLength":160},{"buffer":0,"byteOffset":640,"byteLength":160},{"buffer":0,"byteOffset":800,"byteLength":144},{"buffer":0,"byteOffset":944,"byteLength":15156},{"buffer":0,"byteOffset":16100,"byteLength":15156},{"buffer":0,"byteOffset":31256,"byteLength":10104},{"buffer":0,"byteOffset":41360,"byteLength":10104},{"buffer":0,"byteOffset":51464,"byteLength":9324},{"buffer":0,"byteOffset":60788,"byteLength":744},{"buffer":0,"byteOffset":61532,"byteLength":744},{"buffer":0,"byteOffset":62276,"byteLength":496},{"buffer":0,"byteOffset":62772,"byteLength":496},{"buffer":0,"byteOffset":63268,"byteLength":384},{"buffer":0,"byteOffset":63652,"byteLength":4008},{"buffer":0,"byteOffset":67660,"byteLength":4008},{"buffer":0,"byteOffset":71668,"byteLength":2672},{"buffer":0,"byteOffset":74340,"byteLength":2672},{"buffer":0,"byteOffset":77012,"byteLength":3840},{"buffer":0,"byteOffset":80852,"byteLength":1656},{"buffer":0,"byteOffset":82508,"byteLength":1656},{"buffer":0,"byteOffset":84164,"byteLength":1104},{"buffer":0,"byteOffset":85268,"byteLength":1104},{"buffer":0,"byteOffset":86372,"byteLength":1188},{"buffer":0,"byteOffset":87560,"byteLength":1092},{"buffer":0,"byteOffset":88652,"byteLength":1092},{"buffer":0,"byteOffset":89744,"byteLength":728},{"buffer":0,"byteOffset":90472,"byteLength":728},{"buffer":0,"byteOffset":91200,"byteLength":588},{"buffer":0,"byteOffset":91788,"byteLength":48},{"buffer":0,"byteOffset":91836,"byteLength":48},{"buffer":0,"byteOffset":91884,"byteLength":32},{"buffer":0,"byteOffset":91916,"byteLength":32},{"buffer":0,"byteOffset":91948,"byteLength":24},{"buffer":0,"byteOffset":91972,"byteLength":24576},{"buffer":0,"byteOffset":116548,"byteLength":24576},{"buffer":0,"byteOffset":141124,"byteLength":16384},{"buffer":0,"byteOffset":157508,"byteLength":16384},{"buffer":0,"byteOffset":173892,"byteLength":14496},{"buffer":0,"byteOffset":188388,"byteLength":26724},{"buffer":0,"byteOffset":215112,"byteLength":26724},{"buffer":0,"byteOffset":241836,"byteLength":17816},{"buffer":0,"byteOffset":259652,"byteLength":17816},{"buffer":0,"byteOffset":277468,"byteLength":16440},{"buffer":0,"byteOffset":293908,"byteLength":384},{"buffer":0,"byteOffset":294292,"byteLength":384},{"buffer":0,"byteOffset":294676,"byteLength":256},{"buffer":0,"byteOffset":294932,"byteLength":256},{"buffer":0,"byteOffset":295188,"byteLength":192},{"buffer":0,"byteOffset":295380,"byteLength":1224},{"buffer":0,"byteOffset":296604,"byteLength":1224},{"buffer":0,"byteOffset":297828,"byteLength":816},{"buffer":0,"byteOffset":298644,"byteLength":816},{"buffer":0,"byteOffset":299460,"byteLength":624},{"buffer":0,"byteOffset":300084,"byteLength":552},{"buffer":0,"byteOffset":300636,"byteLength":552},{"buffer":0,"byteOffset":301188,"byteLength":368},{"buffer":0,"byteOffset":301556,"byteLength":368},{"buffer":0,"byteOffset":301924,"byteLength":288},{"buffer":0,"byteOffset":302212,"byteLength":1212},{"buffer":0,"byteOffset":303424,"byteLength":1212},{"buffer":0,"byteOffset":304636,"byteLength":808},{"buffer":0,"byteOffset":305444,"byteLength":808},{"buffer":0,"byteOffset":306252,"byteLength":1728},{"buffer":0,"byteOffset":307980,"byteLength":12768},{"buffer":0,"byteOffset":320748,"byteLength":12768},{"buffer":0,"byteOffset":333516,"byteLength":8512},{"buffer":0,"byteOffset":342028,"byteLength":8512},{"buffer":0,"byteOffset":350540,"byteLength":7680},{"buffer":0,"byteOffset":358220,"byteLength":7764},{"buffer":0,"byteOffset":365984,"byteLength":7764},{"buffer":0,"byteOffset":373748,"byteLength":5176},{"buffer":0,"byteOffset":378924,"byteLength":5176},{"buffer":0,"byteOffset":384100,"byteLength":4320},{"buffer":0,"byteOffset":388420,"byteLength":816},{"buffer":0,"byteOffset":389236,"byteLength":816},{"buffer":0,"byteOffset":390052,"byteLength":544},{"buffer":0,"byteOffset":390596,"byteLength":544},{"buffer":0,"byteOffset":391140,"byteLength":408},{"buffer":0,"byteOffset":391548,"byteLength":696},{"buffer":0,"byteOffset":392244,"byteLength":696},{"buffer":0,"byteOffset":392940,"byteLength":464},{"buffer":0,"byteOffset":393404,"byteLength":464},{"buffer":0,"byteOffset":393868,"byteLength":384},{"buffer":0,"byteOffset":394252,"byteLength":264},{"buffer":0,"byteOffset":394516,"byteLength":264},{"buffer":0,"byteOffset":394780,"byteLength":176},{"buffer":0,"byteOffset":394956,"byteLength":176},{"buffer":0,"byteOffset":395132,"byteLength":144},{"buffer":0,"byteOffset":395276,"byteLength":96},{"buffer":0,"byteOffset":395372,"byteLength":96},{"buffer":0,"byteOffset":395468,"byteLength":64},{"buffer":0,"byteOffset":395532,"byteLength":64},{"buffer":0,"byteOffset":395596,"byteLength":48},{"buffer":0,"byteOffset":395644,"byteLength":96},{"buffer":0,"byteOffset":395740,"byteLength":96},{"buffer":0,"byteOffset":395836,"byteLength":64},{"buffer":0,"byteOffset":395900,"byteLength":64},{"buffer":0,"byteOffset":395964,"byteLength":48},{"buffer":0,"byteOffset":396012,"byteLength":22440},{"buffer":0,"byteOffset":418452,"byteLength":22440},{"buffer":0,"byteOffset":440892,"byteLength":14960},{"buffer":0,"byteOffset":455852,"byteLength":14960},{"buffer":0,"byteOffset":470812,"byteLength":11256},{"buffer":0,"byteOffset":482068,"byteLength":4500},{"buffer":0,"byteOffset":486568,"byteLength":4500},{"buffer":0,"byteOffset":491068,"byteLength":3000},{"buffer":0,"byteOffset":494068,"byteLength":3000},{"buffer":0,"byteOffset":497068,"byteLength":2400},{"buffer":0,"byteOffset":499468,"byteLength":14436},{"buffer":0,"byteOffset":513904,"byteLength":14436},{"buffer":0,"byteOffset":528340,"byteLength":9624},{"buffer":0,"byteOffset":537964,"byteLength":9624},{"buffer":0,"byteOffset":547588,"byteLength":8988},{"buffer":0,"byteOffset":556576,"byteLength":88044},{"buffer":0,"byteOffset":644620,"byteLength":88044},{"buffer":0,"byteOffset":732664,"byteLength":58696},{"buffer":0,"byteOffset":791360,"byteLength":58696},{"buffer":0,"byteOffset":850056,"byteLength":85032},{"buffer":0,"byteOffset":935088,"byteLength":69636},{"buffer":0,"byteOffset":1004724,"byteLength":69636},{"buffer":0,"byteOffset":1074360,"byteLength":46424},{"buffer":0,"byteOffset":1120784,"byteLength":46424},{"buffer":0,"byteOffset":1167208,"byteLength":67200},{"buffer":0,"byteOffset":1234408,"byteLength":1800},{"buffer":0,"byteOffset":1236208,"byteLength":1800},{"buffer":0,"byteOffset":1238008,"byteLength":1200},{"buffer":0,"byteOffset":1239208,"byteLength":1200},{"buffer":0,"byteOffset":1240408,"byteLength":840},{"buffer":0,"byteOffset":1241248,"byteLength":1488},{"buffer":0,"byteOffset":1242736,"byteLength":1488},{"buffer":0,"byteOffset":1244224,"byteLength":992},{"buffer":0,"byteOffset":1245216,"byteLength":992},{"buffer":0,"byteOffset":1246208,"byteLength":744},{"buffer":0,"byteOffset":1246952,"byteLength":1800},{"buffer":0,"byteOffset":1248752,"byteLength":1800},{"buffer":0,"byteOffset":1250552,"byteLength":1200},{"buffer":0,"byteOffset":1251752,"byteLength":1200},{"buffer":0,"byteOffset":1252952,"byteLength":936},{"buffer":0,"byteOffset":1253888,"byteLength":456},{"buffer":0,"byteOffset":1254344,"byteLength":456},{"buffer":0,"byteOffset":1254800,"byteLength":304},{"buffer":0,"byteOffset":1255104,"byteLength":304},{"buffer":0,"byteOffset":1255408,"byteLength":216},{"buffer":0,"byteOffset":1255624,"byteLength":1260},{"buffer":0,"byteOffset":1256884,"byteLength":1260},{"buffer":0,"byteOffset":1258144,"byteLength":840},{"buffer":0,"byteOffset":1258984,"byteLength":840},{"buffer":0,"byteOffset":1259824,"byteLength":756},{"buffer":0,"byteOffset":1260580,"byteLength":1248},{"buffer":0,"byteOffset":1261828,"byteLength":1248},{"buffer":0,"byteOffset":1263076,"byteLength":832},{"buffer":0,"byteOffset":1263908,"byteLength":832},{"buffer":0,"byteOffset":1264740,"byteLength":672},{"buffer":0,"byteOffset":1265412,"byteLength":2208},{"buffer":0,"byteOffset":1267620,"byteLength":2208},{"buffer":0,"byteOffset":1269828,"byteLength":1472},{"buffer":0,"byteOffset":1271300,"byteLength":1472},{"buffer":0,"byteOffset":1272772,"byteLength":1296},{"buffer":0,"byteOffset":1274068,"byteLength":1608},{"buffer":0,"byteOffset":1275676,"byteLength":1608},{"buffer":0,"byteOffset":1277284,"byteLength":1072},{"buffer":0,"byteOffset":1278356,"byteLength":1072},{"buffer":0,"byteOffset":1279428,"byteLength":888},{"buffer":0,"byteOffset":1280316,"byteLength":936},{"buffer":0,"byteOffset":1281252,"byteLength":936},{"buffer":0,"byteOffset":1282188,"byteLength":624},{"buffer":0,"byteOffset":1282812,"byteLength":624},{"buffer":0,"byteOffset":1283436,"byteLength":768},{"buffer":0,"byteOffset":1284204,"byteLength":1008},{"buffer":0,"byteOffset":1285212,"byteLength":1008},{"buffer":0,"byteOffset":1286220,"byteLength":672},{"buffer":0,"byteOffset":1286892,"byteLength":672},{"buffer":0,"byteOffset":1287564,"byteLength":576},{"buffer":0,"byteOffset":1288140,"byteLength":5760},{"buffer":0,"byteOffset":1293900,"byteLength":5760},{"buffer":0,"byteOffset":1299660,"byteLength":3840},{"buffer":0,"byteOffset":1303500,"byteLength":3840},{"buffer":0,"byteOffset":1307340,"byteLength":3072},{"buffer":0,"byteOffset":1310412,"byteLength":2976},{"buffer":0,"byteOffset":1313388,"byteLength":2976},{"buffer":0,"byteOffset":1316364,"byteLength":1984},{"buffer":0,"byteOffset":1318348,"byteLength":1984},{"buffer":0,"byteOffset":1320332,"byteLength":1488}],"accessors":[{"bufferView":0,"componentType":5126,"count":20,"type":"VEC3","min":[-6.55207825,9.21255779,4.59101486],"max":[48.5649261,14.6459017,24.740284]},{"bufferView":1,"componentType":5126,"count":20,"type":"VEC3","min":[-0.211030047,-1.0,-1.1920929e-07],"max":[0.593965219,-0.80449072,0.000489926617]},{"bufferView":2,"componentType":5126,"count":20,"type":"VEC2"},{"bufferView":3,"componentType":5126,"count":20,"type":"VEC2"},{"bufferView":4,"componentType":5125,"count":36,"type":"SCALAR"},{"bufferView":5,"componentType":5126,"count":1263,"type":"VEC3","min":[-18.284914,1.90098345,0.603523314],"max":[53.1113586,21.2950649,25.5678539]},{"bufferView":6,"componentType":5126,"count":1263,"type":"VEC3","min":[-1.0,-1.0,-1.0],"max":[1.0,1.0,1.0]},{"bufferView":7,"componentType":5126,"count":1263,"type":"VEC2"},{"bufferView":8,"componentType":5126,"count":1263,"type":"VEC2"},{"bufferView":9,"componentType":5125,"count":2331,"type":"SCALAR"},{"bufferView":10,"componentType":5126,"count":62,"type":"VEC3","min":[-17.3759518,1.90167582,1.8174448],"max":[51.5067215,14.6459017,24.740284]},{"bufferView":11,"componentType":5126,"count":62,"type":"VEC3","min":[-1.0,-0.80449072,-1.0],"max":[0.787275033,1.1920929e-07,1.0]},{"bufferView":12,"componentType":5126,"count":62,"type":"VEC2"},{"bufferView":13,"componentType":5126,"count":62,"type":"VEC2"},{"bufferView":14,"componentType":5125,"count":96,"type":"SCALAR"},{"bufferView":15,"componentType":5126,"count":334,"type":"VEC3","min":[-55.566555,-0.114660904,34.2572174],"max":[-36.318306,14.0110531,58.3447304]},{"bufferView":16,"componentType":5126,"count":334,"type":"VEC3","min":[-1.0,-1.0,-1.0],"max":[1.0,1.0,1.0]},{"bufferView":17,"componentType":5126,"count":334,"type":"VEC2"},{"bufferView":18,"componentType":5126,"count":334,"type":"VEC2"},{"bufferView":19,"componentType":5125,"count":960,"type":"SCALAR"},{"bufferView":20,"componentType":5126,"count":138,"type":"VEC3","min":[-52.8088913,-3.52587485,43.4461594],"max":[-36.591362,9.50465584,54.9909897]},{"bufferView":21,"componentType":5126,"count":138,"type":"VEC3","min":[-0.925414658,-1.0,-1.0],"max":[0.999970077,1.0,0.925414658]},{"bufferView":22,"componentType":5126,"count":138,"type":"VEC2"},{"bufferView":23,"componentType":5126,"count":138,"type":"VEC2"},{"bufferView":24,"componentType":5125,"count":297,"type":"SCALAR"},{"bufferView":25,"componentType":5126,"count":91,"type":"VEC3","min":[-17.3759518,1.90167582,1.81744576],"max":[51.5067215,14.6459007,24.740284]},{"bufferView":26,"componentType":5126,"count":91,"type":"VEC3","min":[-1.0,-0.997479654,-1.0],"max":[0.999984982,0.0240667022,1.0]},{"bufferView":27,"componentType":5126,"count":91,"type":"VEC2"},{"bufferView":28,"componentType":5126,"count":91,"type":"VEC2"},{"bufferView":29,"componentType":5125,"count":147,"type":"SCALAR"},{"bufferView":30,"componentType":5126,"count":4,"type":"VEC3","min":[-52.4261856,-6.54682117e-06,-54.9187241],"max":[52.4261856,6.54682117e-06,54.9187241]},{"bufferView":31,"componentType":5126,"count":4,"type":"VEC3","min":[0.0,1.0,1.1920929e-07],"max":[0.0,1.0,1.1920929e-07]},{"bufferView":32,"componentType":5126,"count":4,"type":"VEC2"},{"bufferView":33,"componentType":5126,"count":4,"type":"VEC2"},{"bufferView":34,"componentType":5125,"count":6,"type":"SCALAR"},{"bufferView":35,"componentType":5126,"count":2048,"type":"VEC3","min":[-53.2703934,-0.0591186881,-52.0489349],"max":[52.2800522,17.5065041,55.0146942]},{"bufferView":36,"componentType":5126,"count":2048,"type":"VEC3","min":[-1.0,-1.0,-1.0],"max":[0.999999969,1.0,1.0]},{"bufferView":37,"componentType":5126,"count":2048,"type":"VEC2"},{"bufferView":38,"componentType":5126,"count":2048,"type":"VEC2"},{"bufferView":39,"componentType":5125,"count":3624,"type":"SCALAR"},{"bufferView":40,"componentType":5126,"count":2227,"type":"VEC3","min":[-48.7544937,-0.037938308,-53.2656174],"max":[54.5687675,17.4842587,11.0316811]},{"bufferView":41,"componentType":5126,"count":2227,"type":"VEC3","min":[-1.0,-0.998159382,-1.0],"max":[1.0,1.0,1.0]},{"bufferView":42,"componentType":5126,"count":2227,"type":"VEC2"},{"bufferView":43,"componentType":5126,"count":2227,"type":"VEC2"},{"bufferView":44,"componentType":5125,"count":4110,"type":"SCALAR"},{"bufferView":45,"componentType":5126,"count":32,"type":"VEC3","min":[10.597311,-9.80395384e-07,37.7886963],"max":[18.597311,8.44830608,45.7886963]},{"bufferView":46,"componentType":5126,"count":32,"type":"VEC3","min":[-1.0,-1.1920929e-07,-1.0],"max":[1.0,1.1920929e-07,1.0]},{"bufferView":47,"componentType":5126,"count":32,"type":"VEC2"},{"bufferView":48,"componentType":5126,"count":32,"type":"VEC2"},{"bufferView":49,"componentType":5125,"count":48,"type":"SCALAR"},{"bufferView":50,"componentType":5126,"count":102,"type":"VEC3","min":[-13.9505444,-0.114659265,-7.16141987],"max":[9.65315819,12.2869253,3.75262642]},{"bufferView":51,"componentType":5126,"count":102,"type":"VEC3","min":[-1.0,-1.1920929e-07,-0.986564986],"max":[0.989007885,1.0,1.0]},{"bufferView":52,"componentType":5126,"count":102,"type":"VEC2"},{"bufferView":53,"componentType":5126,"count":102,"type":"VEC2"},{"bufferView":54,"componentType":5125,"count":156,"type":"SCALAR"},{"bufferView":55,"componentType":5126,"count":46,"type":"VEC3","min":[-17.2832851,-0.0115118911,-7.07321548],"max":[6.71573782,10.0931187,-3.74147677]},{"bufferView":56,"componentType":5126,"count":46,"type":"VEC3","min":[-0.745330725,-1.1920929e-07,-0.978931624],"max":[0.745330725,1.0,1.0]},{"bufferView":57,"componentType":5126,"count":46,"type":"VEC2"},{"bufferView":58,"componentType":5126,"count":46,"type":"VEC2"},{"bufferView":59,"componentType":5125,"count":72,"type":"SCALAR"},{"bufferView":60,"componentType":5126,"count":101,"type":"VEC3","min":[-196.266556,-57.4855499,-193.401764],"max":[191.709091,219.029724,194.774155]},{"bufferView":61,"componentType":5126,"count":101,"type":"VEC3","min":[-0.991496746,-0.999416992,-0.992019102],"max":[0.991496746,0.228302587,0.992019102]},{"bufferView":62,"componentType":5126,"count":101,"type":"VEC2"},{"bufferView":63,"componentType":5126,"count":101,"type":"VEC2"},{"bufferView":64,"componentType":5125,"count":432,"type":"SCALAR"},{"bufferView":65,"componentType":5126,"count":1064,"type":"VEC3","min":[-18.2716675,1.96010792,0.902492344],"max":[50.2049942,10.9675856,25.9971085]},{"bufferView":66,"componentType":5126,"count":1064,"type":"VEC3","min":[-1.0,-1.0,-1.0],"max":[1.0,1.0,1.0]},{"bufferView":67,"componentType":5126,"count":1064,"type":"VEC2"},{"bufferView":68,"componentType":5126,"count":1064,"type":"VEC2"},{"bufferView":69,"componentType":5125,"count":1920,"type":"SCALAR"},{"bufferView":70,"componentType":5126,"count":647,"type":"VEC3","min":[-18.4456863,1.9601084,0.728473365],"max":[42.9940796,10.9675846,25.9971046]},{"bufferView":71,"componentType":5126,"count":647,"type":"VEC3","min":[-1.0,-1.0,-1.0],"max":[1.0,1.0,1.0]},{"bufferView":72,"componentType":5126,"count":647,"type":"VEC2"},{"bufferView":73,"componentType":5126,"count":647,"type":"VEC2"},{"bufferView":74,"componentType":5125,"count":1080,"type":"SCALAR"},{"bufferView":75,"componentType":5126,"count":68,"type":"VEC3","min":[-10.968811,4.98461866,8.88315201],"max":[-1.49915314,9.65248585,16.9826889]},{"bufferView":76,"componentType":5126,"count":68,"type":"VEC3","min":[-1.0,-1.1920929e-07,-1.0],"max":[1.0,1.1920929e-07,1.0]},{"bufferView":77,"componentType":5126,"count":68,"type":"VEC2"},{"bufferView":78,"componentType":5126,"count":68,"type":"VEC2"},{"bufferView":79,"componentType":5125,"count":102,"type":"SCALAR"},{"bufferView":80,"componentType":5126,"count":58,"type":"VEC3","min":[-53.0808601,-0.114667237,-57.5016937],"max":[54.3406677,16.4931374,58.8857956]},{"bufferView":81,"componentType":5126,"count":58,"type":"VEC3","min":[-1.0,-1.1920929e-07,-1.0],"max":[1.0,1.0,1.0]},{"bufferView":82,"componentType":5126,"count":58,"type":"VEC2"},{"bufferView":83,"componentType":5126,"count":58,"type":"VEC2"},{"bufferView":84,"componentType":5125,"count":96,"type":"SCALAR"},{"bufferView":85,"componentType":5126,"count":22,"type":"VEC3","min":[-53.0808601,4.50869656,-57.4784241],"max":[53.243084,15.8338556,57.1865692]},{"bufferView":86,"componentType":5126,"count":22,"type":"VEC3","min":[-1.0,-1.1920929e-07,-1.0],"max":[1.0,1.1920929e-07,1.0]},{"bufferView":87,"componentType":5126,"count":22,"type":"VEC2"},{"bufferView":88,"componentType":5126,"count":22,"type":"VEC2"},{"bufferView":89,"componentType":5125,"count":36,"type":"SCALAR"},{"bufferView":90,"componentType":5126,"count":8,"type":"VEC3","min":[52.230545,-0.114656255,-50.5309334],"max":[52.230545,7.85960054,-33.2224998]},{"bufferView":91,"componentType":5126,"count":8,"type":"VEC3","min":[-1.0,0.0,0.0],"max":[-1.0,0.0,0.0]},{"bufferView":92,"componentType":5126,"count":8,"type":"VEC2"},{"bufferView":93,"componentType":5126,"count":8,"type":"VEC2"},{"bufferView":94,"componentType":5125,"count":12,"type":"SCALAR"},{"bufferView":95,"componentType":5126,"count":8,"type":"VEC3","min":[52.230545,7.85959816,-50.1447182],"max":[52.230545,15.8338547,-33.6087227]},{"bufferView":96,"componentType":5126,"count":8,"type":"VEC3","min":[-1.0,0.0,0.0],"max":[-1.0,0.0,0.0]},{"bufferView":97,"componentType":5126,"count":8,"type":"VEC2"},{"bufferView":98,"componentType":5126,"count":8,"type":"VEC2"},{"bufferView":99,"componentType":5125,"count":12,"type":"SCALAR"},{"bufferView":100,"componentType":5126,"count":1870,"type":"VEC3","min":[-47.6409302,-0.114660375,-45.0277519],"max":[52.6669884,6.16625261,50.8049812]},{"bufferView":101,"componentType":5126,"count":1870,"type":"VEC3","min":[-1.0,-0.785045299,-1.0],"max":[1.0,1.0,1.0]},{"bufferView":102,"componentType":5126,"count":1870,"type":"VEC2"},{"bufferView":103,"componentType":5126,"count":1870,"type":"VEC2"},{"bufferView":104,"componentType":5125,"count":2814,"type":"SCALAR"},{"bufferView":105,"componentType":5126,"count":375,"type":"VEC3","min":[23.6345978,-0.11465992,-40.1319923],"max":[51.524189,6.16625261,15.4799967]},{"bufferView":106,"componentType":5126,"count":375,"type":"VEC3","min":[-1.0,-0.650268177,-1.0],"max":[1.0,1.0,1.0]},{"bufferView":107,"componentType":5126,"count":375,"type":"VEC2"},{"bufferView":108,"componentType":5126,"count":375,"type":"VEC2"},{"bufferView":109,"componentType":5125,"count":600,"type":"SCALAR"},{"bufferView":110,"componentType":5126,"count":1203,"type":"VEC3","min":[-18.284914,1.90098035,0.903581202],"max":[52.5741806,18.3846226,26.4091167]},{"bufferView":111,"componentType":5126,"count":1203,"type":"VEC3","min":[-1.0,-1.0,-1.0],"max":[1.0,1.0,1.0]},{"bufferView":112,"componentType":5126,"count":1203,"type":"VEC2"},{"bufferView":113,"componentType":5126,"count":1203,"type":"VEC2"},{"bufferView":114,"componentType":5125,"count":2247,"type":"SCALAR"},{"bufferView":115,"componentType":5126,"count":7337,"type":"VEC3","min":[-51.84832,-0.107668698,-55.0834045],"max":[52.3614883,14.3016644,54.0066223]},{"bufferView":116,"componentType":5126,"count":7337,"type":"VEC3","min":[-0.999431645,-1.0,-0.998689144],"max":[0.999814648,1.0,0.998689144]},{"bufferView":117,"componentType":5126,"count":7337,"type":"VEC2"},{"bufferView":118,"componentType":5126,"count":7337,"type":"VEC2"},{"bufferView":119,"componentType":5125,"count":21258,"type":"SCALAR"},{"bufferView":120,"componentType":5126,"count":5803,"type":"VEC3","min":[-53.2379112,3.62490726,-60.9967308],"max":[57.3365288,27.7481823,57.9091568]},{"bufferView":121,"componentType":5126,"count":5803,"type":"VEC3","min":[-0.998860104,-1.0,-0.998860104],"max":[0.998860104,1.0,0.998860104]},{"bufferView":122,"componentType":5126,"count":5803,"type":"VEC2"},{"bufferView":123,"componentType":5126,"count":5803,"type":"VEC2"},{"bufferView":124,"componentType":5125,"count":16800,"type":"SCALAR"},{"bufferView":125,"componentType":5126,"count":150,"type":"VEC3","min":[-36.4833069,-0.114661038,-49.0189476],"max":[52.2660561,11.7781639,36.7839432]},{"bufferView":126,"componentType":5126,"count":150,"type":"VEC3","min":[-1.0,-0.0108689232,-1.0],"max":[1.0,0.00664830202,1.0]},{"bufferView":127,"componentType":5126,"count":150,"type":"VEC2"},{"bufferView":128,"componentType":5126,"count":150,"type":"VEC2"},{"bufferView":129,"componentType":5125,"count":210,"type":"SCALAR"},{"bufferView":130,"componentType":5126,"count":124,"type":"VEC3","min":[-36.4833069,-0.114661038,-25.3286572],"max":[25.7626686,11.7781639,33.1762123]},{"bufferView":131,"componentType":5126,"count":124,"type":"VEC3","min":[-1.0,-0.236784692,-0.971562149],"max":[1.0,1.0,1.0]},{"bufferView":132,"componentType":5126,"count":124,"type":"VEC2"},{"bufferView":133,"componentType":5126,"count":124,"type":"VEC2"},{"bufferView":134,"componentType":5125,"count":186,"type":"SCALAR"},{"bufferView":135,"componentType":5126,"count":150,"type":"VEC3","min":[-36.4833069,-2.52418175e-07,-25.3286572],"max":[25.7626686,6.83786345,25.0474091]},{"bufferView":136,"componentType":5126,"count":150,"type":"VEC3","min":[-1.0,-0.999999961,-0.999999988],"max":[1.0,1.81882755e-05,0.999999989]},{"bufferView":137,"componentType":5126,"count":150,"type":"VEC2"},{"bufferView":138,"componentType":5126,"count":150,"type":"VEC2"},{"bufferView":139,"componentType":5125,"count":234,"type":"SCALAR"},{"bufferView":140,"componentType":5126,"count":38,"type":"VEC3","min":[-32.2112198,-0.114660338,-49.243782],"max":[-7.56255341,5.00282764,40.7501526]},{"bufferView":141,"componentType":5126,"count":38,"type":"VEC3","min":[-1.0,-0.00374793837,-0.862743353],"max":[1.0,0.00374793837,0.863300069]},{"bufferView":142,"componentType":5126,"count":38,"type":"VEC2"},{"bufferView":143,"componentType":5126,"count":38,"type":"VEC2"},{"bufferView":144,"componentType":5125,"count":54,"type":"SCALAR"},{"bufferView":145,"componentType":5126,"count":105,"type":"VEC3","min":[-30.3382053,-0.11428681,-5.58027697],"max":[52.3478966,17.4081287,33.1465149]},{"bufferView":146,"componentType":5126,"count":105,"type":"VEC3","min":[-1.0,-1.19209284e-07,-0.00202658963],"max":[1.0,1.0,0.999999955]},{"bufferView":147,"componentType":5126,"count":105,"type":"VEC2"},{"bufferView":148,"componentType":5126,"count":105,"type":"VEC2"},{"bufferView":149,"componentType":5125,"count":189,"type":"SCALAR"},{"bufferView":150,"componentType":5126,"count":104,"type":"VEC3","min":[-30.3382053,-0.11428681,-5.58027697],"max":[52.3478966,8.04204845,33.1465149]},{"bufferView":151,"componentType":5126,"count":104,"type":"VEC3","min":[-0.999999955,-0.999999961,-1.0],"max":[0.999999955,0.000146937552,1.0]},{"bufferView":152,"componentType":5126,"count":104,"type":"VEC2"},{"bufferView":153,"componentType":5126,"count":104,"type":"VEC2"},{"bufferView":154,"componentType":5125,"count":168,"type":"SCALAR"},{"bufferView":155,"componentType":5126,"count":184,"type":"VEC3","min":[-22.6193924,-0.114660494,-54.898262],"max":[52.7115898,8.20932007,5.76453829]},{"bufferView":156,"componentType":5126,"count":184,"type":"VEC3","min":[-1.0,-1.1920929e-07,-1.0],"max":[1.0,1.0,1.0]},{"bufferView":157,"componentType":5126,"count":184,"type":"VEC2"},{"bufferView":158,"componentType":5126,"count":184,"type":"VEC2"},{"bufferView":159,"componentType":5125,"count":324,"type":"SCALAR"},{"bufferView":160,"componentType":5126,"count":134,"type":"VEC3","min":[-15.0936012,-0.114660338,-55.0277214],"max":[35.9259758,8.20931625,-31.2753639]},{"bufferView":161,"componentType":5126,"count":134,"type":"VEC3","min":[-1.0,-1.1920929e-07,-1.0],"max":[1.0,1.0,1.0]},{"bufferView":162,"componentType":5126,"count":134,"type":"VEC2"},{"bufferView":163,"componentType":5126,"count":134,"type":"VEC2"},{"bufferView":164,"componentType":5125,"count":222,"type":"SCALAR"},{"bufferView":165,"componentType":5126,"count":78,"type":"VEC3","min":[-32.2112083,-0.0123017523,-37.7936325],"max":[52.3743629,7.6821847,45.7887039]},{"bufferView":166,"componentType":5126,"count":78,"type":"VEC3","min":[-0.321570035,0.912396127,-0.322156685],"max":[0.292819281,1.0,0.409308327]},{"bufferView":167,"componentType":5126,"count":78,"type":"VEC2"},{"bufferView":168,"componentType":5126,"count":78,"type":"VEC2"},{"bufferView":169,"componentType":5125,"count":192,"type":"SCALAR"},{"bufferView":170,"componentType":5126,"count":84,"type":"VEC3","min":[-36.4833069,0.00594991073,-10.8066483],"max":[28.6745453,5.00282526,36.7839508]},{"bufferView":171,"componentType":5126,"count":84,"type":"VEC3","min":[-0.323623706,0.883014524,-0.323623706],"max":[0.469345662,1.0,0.00199605733]},{"bufferView":172,"componentType":5126,"count":84,"type":"VEC2"},{"bufferView":173,"componentType":5126,"count":84,"type":"VEC2"},{"bufferView":174,"componentType":5125,"count":144,"type":"SCALAR"},{"bufferView":175,"componentType":5126,"count":480,"type":"VEC3","min":[-55.3781738,9.14441586,-63.3209686],"max":[59.6268387,26.3153076,59.4770279]},{"bufferView":176,"componentType":5126,"count":480,"type":"VEC3","min":[-0.999785595,-0.997124985,-0.997564792],"max":[0.999849279,0.999994209,0.999846445]},{"bufferView":177,"componentType":5126,"count":480,"type":"VEC2"},{"bufferView":178,"componentType":5126,"count":480,"type":"VEC2"},{"bufferView":179,"componentType":5125,"count":768,"type":"SCALAR"},{"bufferView":180,"componentType":5126,"count":248,"type":"VEC3","min":[-48.7156906,2.93011975,-66.9101486],"max":[55.466507,18.9391289,55.4455032]},{"bufferView":181,"componentType":5126,"count":248,"type":"VEC3","min":[-0.707106781,-0.577350269,-0.707106781],"max":[0.707106781,0.577350269,0.707106781]},{"bufferView":182,"componentType":5126,"count":248,"type":"VEC2"},{"bufferView":183,"componentType":5126,"count":248,"type":"VEC2"},{"bufferView":184,"componentType":5125,"count":372,"type":"SCALAR"}],"materials":[{"name":"house_03_2","pbrMetallicRoughness":{"baseColorFactor":[1.0,1.0,1.0,1.0],"metallicFactor":0.0,"roughnessFactor":1.0,"baseColorTexture":{"index":0}},"doubleSided":false},{"name":"house_01_2","pbrMetallicRoughness":{"baseColorFactor":[1.0,1.0,1.0,1.0],"metallicFactor":0.0,"roughnessFactor":1.0,"baseColorTexture":{"index":1}},"doubleSided":false},{"name":"house_02_2","pbrMetallicRoughness":{"baseColorFactor":[1.0,1.0,1.0,1.0],"metallicFactor":0.0,"roughnessFactor":1.0,"baseColorTexture":{"index":2}},"doubleSided":false},{"name":"booox_007_1","pbrMetallicRoughness":{"baseColorFactor":[1.0,1.0,1.0,1.0],"metallicFactor":0.0,"roughnessFactor":1.0,"baseColorTexture":{"index":3}},"doubleSided":false},{"name":"booox_007_2","pbrMetallicRoughness":{"baseColorFactor":[1.0,1.0,1.0,1.0],"metallicFactor":0.0,"roughnessFactor":1.0,"baseColorTexture":{"index":3}},"doubleSided":false},{"name":"house_02_1","pbrMetallicRoughness":{"baseColorFactor":[1.0,1.0,1.0,1.0],"metallicFactor":0.0,"roughnessFactor":1.0,"baseColorTexture":{"index":2}},"doubleSided":false},{"name":"booox_010_1","pbrMetallicRoughness":{"baseColorFactor":[1.0,1.0,1.0,1.0],"metallicFactor":0.0,"roughnessFactor":1.0,"baseColorTexture":{"index":4}},"doubleSided":false},{"name":"booox_009_1","pbrMetallicRoughness":{"baseColorFactor":[1.0,1.0,1.0,1.0],"metallicFactor":0.0,"roughnessFactor":1.0,"baseColorTexture":{"index":5}},"doubleSided":false},{"name":"booox_009_2","pbrMetallicRoughness":{"baseColorFactor":[1.0,1.0,1.0,1.0],"metallicFactor":0.0,"roughnessFactor":1.0,"baseColorTexture":{"index":5}},"doubleSided":false},{"name":"booox_013_1","pbrMetallicRoughness":{"baseColorFactor":[1.0,1.0,1.0,1.0],"metallicFactor":0.0,"roughnessFactor":1.0,"baseColorTexture":{"index":6}},"doubleSided":false},{"name":"booox_003_1","pbrMetallicRoughness":{"baseColorFactor":[1.0,1.0,1.0,1.0],"metallicFactor":0.0,"roughnessFactor":1.0,"baseColorTexture":{"index":7}},"doubleSided":false},{"name":"booox_003_2","pbrMetallicRoughness":{"baseColorFactor":[1.0,1.0,1.0,1.0],"metallicFactor":0.0,"roughnessFactor":1.0,"baseColorTexture":{"index":7}},"doubleSided":false},{"name":"SC_11_SKY","pbrMetallicRoughness":{"baseColorFactor":[1.0,1.0,1.0,1.0],"metallicFactor":0.0,"roughnessFactor":1.0,"baseColorTexture":{"index":8}},"doubleSided":false},{"name":"booox_008_1","pbrMetallicRoughness":{"baseColorFactor":[1.0,1.0,1.0,1.0],"metallicFactor":0.0,"roughnessFactor":1.0,"baseColorTexture":{"index":9}},"doubleSided":false},{"name":"booox_008_2","pbrMetallicRoughness":{"baseColorFactor":[1.0,1.0,1.0,1.0],"metallicFactor":0.0,"roughnessFactor":1.0,"baseColorTexture":{"index":9}},"doubleSided":false},{"name":"booox_012_2","pbrMetallicRoughness":{"baseColorFactor":[1.0,1.0,1.0,1.0],"metallicFactor":0.0,"roughnessFactor":1.0,"baseColorTexture":{"index":10}},"doubleSided":false},{"name":"wall_001_2","pbrMetallicRoughness":{"baseColorFactor":[1.0,1.0,1.0,1.0],"metallicFactor":0.0,"roughnessFactor":1.0,"baseColorTexture":{"index":11}},"doubleSided":false},{"name":"wall_002_2","pbrMetallicRoughness":{"baseColorFactor":[1.0,1.0,1.0,1.0],"metallicFactor":0.0,"roughnessFactor":1.0,"baseColorTexture":{"index":12}},"doubleSided":false},{"name":"wall_003_2","pbrMetallicRoughness":{"baseColorFactor":[1.0,1.0,1.0,1.0],"metallicFactor":0.0,"roughnessFactor":1.0,"baseColorTexture":{"index":13}},"doubleSided":false},{"name":"wall_004_2","pbrMetallicRoughness":{"baseColorFactor":[1.0,1.0,1.0,1.0],"metallicFactor":0.0,"roughnessFactor":1.0,"baseColorTexture":{"index":14}},"doubleSided":false},{"name":"booox_006_1","pbrMetallicRoughness":{"baseColorFactor":[1.0,1.0,1.0,1.0],"metallicFactor":0.0,"roughnessFactor":1.0,"baseColorTexture":{"index":15}},"doubleSided":false},{"name":"booox_006_2","pbrMetallicRoughness":{"baseColorFactor":[1.0,1.0,1.0,1.0],"metallicFactor":0.0,"roughnessFactor":1.0,"baseColorTexture":{"index":15}},"doubleSided":false},{"name":"house_01_1","pbrMetallicRoughness":{"baseColorFactor":[1.0,1.0,1.0,1.0],"metallicFactor":0.0,"roughnessFactor":1.0,"baseColorTexture":{"index":1}},"doubleSided":false},{"name":"uv_1","pbrMetallicRoughness":{"baseColorFactor":[1.0,1.0,1.0,1.0],"metallicFactor":0.0,"roughnessFactor":1.0,"baseColorTexture":{"index":16}},"doubleSided":false},{"name":"uv_2","pbrMetallicRoughness":{"baseColorFactor":[1.0,1.0,1.0,1.0],"metallicFactor":0.0,"roughnessFactor":1.0,"baseColorTexture":{"index":16}},"doubleSided":false},{"name":"booox_002_1","pbrMetallicRoughness":{"baseColorFactor":[1.0,1.0,1.0,1.0],"metallicFactor":0.0,"roughnessFactor":1.0,"baseColorTexture":{"index":17}},"doubleSided":false},{"name":"booox_004_1","pbrMetallicRoughness":{"baseColorFactor":[1.0,1.0,1.0,1.0],"metallicFactor":0.0,"roughnessFactor":1.0,"baseColorTexture":{"index":18}},"doubleSided":false},{"name":"booox_005_1","pbrMetallicRoughness":{"baseColorFactor":[1.0,1.0,1.0,1.0],"metallicFactor":0.0,"roughnessFactor":1.0,"baseColorTexture":{"index":19}},"doubleSided":false},{"name":"booox_002_2","pbrMetallicRoughness":{"baseColorFactor":[1.0,1.0,1.0,1.0],"metallicFactor":0.0,"roughnessFactor":1.0,"baseColorTexture":{"index":17}},"doubleSided":false},{"name":"booox_004_2","pbrMetallicRoughness":{"baseColorFactor":[1.0,1.0,1.0,1.0],"metallicFactor":0.0,"roughnessFactor":1.0,"baseColorTexture":{"index":18}},"doubleSided":false},{"name":"booox_005_2","pbrMetallicRoughness":{"baseColorFactor":[1.0,1.0,1.0,1.0],"metallicFactor":0.0,"roughnessFactor":1.0,"baseColorTexture":{"index":19}},"doubleSided":false},{"name":"booox_001_1","pbrMetallicRoughness":{"baseColorFactor":[1.0,1.0,1.0,1.0],"metallicFactor":0.0,"roughnessFactor":1.0,"baseColorTexture":{"index":20}},"doubleSided":false},{"name":"booox_001_2","pbrMetallicRoughness":{"baseColorFactor":[1.0,1.0,1.0,1.0],"metallicFactor":0.0,"roughnessFactor":1.0,"baseColorTexture":{"index":20}},"doubleSided":false},{"name":"ground_01_2","pbrMetallicRoughness":{"baseColorFactor":[1.0,1.0,1.0,1.0],"metallicFactor":0.0,"roughnessFactor":1.0,"baseColorTexture":{"index":21}},"doubleSided":false},{"name":"ground_02_2","pbrMetallicRoughness":{"baseColorFactor":[1.0,1.0,1.0,1.0],"metallicFactor":0.0,"roughnessFactor":1.0,"baseColorTexture":{"index":22}},"doubleSided":false},{"name":"booox_011_2","pbrMetallicRoughness":{"baseColorFactor":[1.0,1.0,1.0,1.0],"metallicFactor":0.0,"roughnessFactor":1.0,"baseColorTexture":{"index":23}},"doubleSided":false},{"name":"booox_013_2","pbrMetallicRoughness":{"baseColorFactor":[1.0,1.0,1.0,1.0],"metallicFactor":0.0,"roughnessFactor":1.0,"baseColorTexture":{"index":6}},"doubleSided":false}],"images":[{"uri":"house_03.png"},{"uri":"house_01.png"},{"uri":"house_02.png"},{"uri":"booox_007.png"},{"uri":"booox_010.png"},{"uri":"booox_009.png"},{"uri":"booox_013.png"},{"uri":"booox_003.png"},{"uri":"SC_11_SKY.png"},{"uri":"booox_008.png"},{"uri":"booox_012.png"},{"uri":"wall_001.png"},{"uri":"wall_002.png"},{"uri":"wall_003.png"},{"uri":"wall_004.png"},{"uri":"booox_006.png"},{"uri":"uv.png"},{"uri":"booox_002.png"},{"uri":"booox_004.png"},{"uri":"booox_005.png"},{"uri":"booox_001.png"},{"uri":"ground_01.png"},{"uri":"ground_02.png"},{"uri":"booox_011.png"}],"textures":[{"source":0,"sampler":0},{"source":1,"sampler":0},{"source":2,"sampler":0},{"source":3,"sampler":0},{"source":4,"sampler":0},{"source":5,"sampler":0},{"source":6,"sampler":0},{"source":7,"sampler":0},{"source":8,"sampler":0},{"source":9,"sampler":0},{"source":10,"sampler":0},{"source":11,"sampler":0},{"source":12,"sampler":0},{"source":13,"sampler":0},{"source":14,"sampler":0},{"source":15,"sampler":0},{"source":16,"sampler":0},{"source":17,"sampler":0},{"source":18,"sampler":0},{"source":19,"sampler":0},{"source":20,"sampler":0},{"source":21,"sampler":0},{"source":22,"sampler":0},{"source":23,"sampler":0}],"samplers":[{"magFilter":9729,"minFilter":9987,"wrapS":10497,"wrapT":10497}],"buffers":[{"uri":"stage.bin","byteLength":1321820}]}
