# Generated from legacy Unity YAML Mesh assets without Unity.
mtllib collision.mtl

o collision_PZ_booox_002
v 24.2443545 6.62572022e-06 -40.171792
v -57.4182202 -1.00635803e-05 -48.9035196
v -57.4182202 -9.58674315e-06 -40.1718034
v 24.2443545 6.14888307e-06 -48.9035081
v 0.914356506 2.3341858e-06 -32.6092615
v 2.57093648 2.81102296e-06 -30.2162122
v 2.2128127 3.28786011e-06 -27.0503149
v 2.41525105 3.28786011e-06 -23.4547338
v -5.14901515 1.38051148e-06 -32.1048955
v -13.8877382 -5.26837152e-07 -27.4892778
v -42.9931943 -4.81837158e-06 -6.10696741
v -57.4182279 -7.20255737e-06 8.93022351
v -42.9931962 -3.86469727e-06 8.93022351
v -31.0506456 -2.43418579e-06 -5.15538092
v -11.9176366 4.26837164e-07 -23.4610757
v -7.94435283 1.38051148e-06 -19.5342979
v -29.8475473 -1.48051148e-06 8.93022637
v 35.1958621 1.13940918e-05 8.93023495
v -0.760755265 2.81102295e-06 -20.8940095
v 34.2186053 1.09172546e-05 4.54861836
v 32.4086001 1.09172546e-05 0.179582638
v 36.5833476 1.13940918e-05 -0.755035358
v 38.938679 1.13940918e-05 -0.89671989
v 41.4670565 1.1870929e-05 -0.380722004
v 42.3700564 1.04404175e-05 -40.171792
v 42.3700488 1.23477661e-05 1.70554165
v 42.3700488 1.23477661e-05 1.70554165
v 42.3700641 1.09172546e-05 -24.3051443
v 42.3700564 1.04404175e-05 -40.171792
v -42.9931943 -4.81837158e-06 -6.10696741
v -33.0517995 7.99296183 -2.69761916
v -31.0506456 -2.43418579e-06 -5.15538092
v -40.6285321 7.31449313 -3.23233362
v -29.8475511 14.3646526 8.93022446
v -43.7668798 14.3646488 8.93022541
v -29.8475473 -1.95734863e-06 8.93022637
v -42.9931943 -4.81837158e-06 8.93022828
v -31.0506456 -2.43418579e-06 -5.15538092
v -33.0517995 7.99296183 -2.69761916
v -29.8475473 -1.48051148e-06 8.93022637
v -42.9931962 -3.86469727e-06 8.93022351
v -40.6285321 7.31449313 -3.23233362
v -42.9931943 -4.81837158e-06 -6.10696741
v 41.4670565 1.1870929e-05 -0.380722004
v 42.3700526 1.09597201 1.70551972
v 42.3700488 1.23477661e-05 1.70554165
v 40.7807963 0.687725017 1.46282963
v 35.1958621 1.13940918e-05 8.93023495
v 35.6704791 1.04404175e-05 8.45226197
v 34.9792941 0.165922115 7.30517678
v 38.938679 1.13940918e-05 -0.89671989
v 39.8698314 0.783072422 2.3802071
v 40.7807963 0.687725017 1.46282963
v 36.5833476 1.13940918e-05 -0.755035358
v 38.8543361 0.938462207 3.40285305
v 39.8698314 0.783072422 2.3802071
v 38.938679 1.13940918e-05 -0.89671989
v 32.4086001 1.09172546e-05 0.179582638
v 35.7937243 1.03305764 1.72272019
v 36.5833476 1.13940918e-05 -0.755035358
v 34.2186053 1.09172546e-05 4.54861836
v 37.1131938 1.56746859 5.12190155
v 34.9757769 0.880959938 2.99858956
v 32.4086001 1.09172546e-05 0.179582638
v 34.2186053 1.09172546e-05 4.54861836
v 34.9792941 0.165922115 7.30517678
v 34.9923823 2.9366569 7.26785569
v 34.2186053 1.09172546e-05 4.54861836
v 34.9923823 2.9366569 7.26785569
v 36.6796496 2.90196986 5.59285073
v 34.2186053 1.09172546e-05 4.54861836
v 36.6796496 2.90196986 5.59285073
v 37.1131938 1.56746859 5.12190155
v 35.1958621 1.13940918e-05 8.93023495
v 34.9792941 0.165922115 7.30517678
v 34.2186053 1.09172546e-05 4.54861836
v 38.938679 1.13940918e-05 -0.89671989
v 40.7807963 0.687725017 1.46282963
v 41.4670565 1.1870929e-05 -0.380722004
v 32.4086001 1.09172546e-05 0.179582638
v 34.9757769 0.880959938 2.99858956
v 35.7937243 1.03305764 1.72272019
v 37.1131938 1.56746859 5.12190155
v 37.8427699 1.685955 4.4215403
v 36.5833476 1.13940918e-05 -0.755035358
v 37.8427699 1.685955 4.4215403
v 38.8543361 0.938462207 3.40285305
v 36.5833476 1.13940918e-05 -0.755035358
v 35.7937243 1.03305764 1.72272019
v 37.8427699 1.685955 4.4215403
vt 10.1199198 27.4145813
vt 55.7136688 32.2896652
vt 55.7136688 27.4145813
vt 10.1199198 32.2896652
vt 23.1454926 23.192276
vt 22.2205906 21.8561916
vt 22.4205418 20.0886154
vt 22.3075142 18.0811329
vt 26.5307865 22.9106808
vt 31.4097805 20.3336926
vt 47.6598969 8.39554596
vt 55.7136688 0
vt 47.6598969 0
vt 40.9921494 7.86425924
vt 30.3098316 18.0846729
vt 28.0914726 15.8922815
vt 40.3204346 0
vt 4.0054822 0
vt 24.0807343 16.6514301
vt 4.55110359 2.44633865
vt 5.56166315 4.88565397
vt 3.23082495 5.40746927
vt 1.91579962 5.4865756
vt 0.504159451 5.19848442
vt -1.28669672e-06 27.4145813
vt 8.43120688e-07 4.03368425
vt 8.43120688e-07 4.03368425
vt -1.28669672e-06 18.2642212
vt -1.28669672e-06 27.4145813
vt 0.435668468 0.372400135
vt 1.05005765 0.836843133
vt 1.16669667 0.360782415
vt 0.601011515 0.806567371
vt 1.25503778 1.58107615
vt 0.3957479 1.58556819
vt 1.91925693 0.785231471
vt -0.234037846 0.993097186
vt 1.16669667 0.360782415
vt 1.05005765 0.836843133
vt 1.91925693 0.785231471
vt -0.245066702 0.982689619
vt 0.601011515 0.806567371
vt 0.435668468 0.372400135
vt 2.99514627 0.427069902
vt 2.65537596 1.05945814
vt 2.93739414 1.02257955
vt 2.54051566 0.709337175
vt -0.406202465 0.614033103
vt -0.341740489 0.833452165
vt -0.0188234393 0.737517893
vt 2.52969265 -0.0600395463
vt 2.22088885 0.771806359
vt 2.54051566 0.709337175
vt 1.8958528 -0.321392894
vt 1.8529017 0.87311393
vt 2.22088885 0.771806359
vt 2.52969265 -0.0600395463
vt 0.936347187 -0.619065404
vt 1.26910853 0.425908655
vt 1.8958528 -0.321392894
vt 0.662380219 0.543306887
vt 1.19343543 1.06002116
vt 1.13172019 0.476446301
vt 0.936347187 -0.619065404
vt 0.662380219 0.543306887
vt -0.0188234393 0.737517893
vt 0.239427224 1.46880114
vt 0.662380219 0.543306887
vt 0.239427224 1.46880114
vt 0.854096353 1.49747956
vt 0.662380219 0.543306887
vt 0.854096353 1.49747956
vt 1.19343543 1.06002116
vt -0.406202465 0.614033103
vt -0.0188234393 0.737517893
vt 0.662380219 0.543306887
vt 2.52969265 -0.0600395463
vt 2.54051566 0.709337175
vt 2.99514627 0.427069902
vt 0.936347187 -0.619065404
vt 1.13172019 0.476446301
vt 1.26910853 0.425908655
vt 1.19343543 1.06002116
vt 1.46821213 0.958946049
vt 1.8958528 -0.321392894
vt 1.46821213 0.958946049
vt 1.8529017 0.87311393
vt 1.8958528 -0.321392894
vt 1.26910853 0.425908655
vt 1.46821213 0.958946049
vn 0 -1 -2.22044605e-16
vn 0 -1 -2.22044605e-16
vn 0 -1 -2.22044605e-16
vn 0 -1 -2.22044605e-16
vn 0 -1 -2.22044605e-16
vn 0 -1 -2.22044605e-16
vn 0 -1 -2.22044605e-16
vn 0 -1 -2.22044605e-16
vn 0 -1 -2.22044605e-16
vn 0 -1 -2.22044605e-16
vn 0 -1 -2.22044605e-16
vn 0 -1 -2.22044605e-16
vn 0 -1 -2.22044605e-16
vn 0 -1 -2.22044605e-16
vn 0 -1 -2.22044605e-16
vn 0 -1 -2.22044605e-16
vn 0 -1 -2.22044605e-16
vn 0 -1 -2.22044605e-16
vn 0 -1 -2.22044605e-16
vn 0 -1 -2.22044605e-16
vn 0 -1 -2.22044605e-16
vn 0 -1 -2.22044605e-16
vn 0 -1 -2.22044605e-16
vn 0 -1 -2.22044605e-16
vn 0 -1 -2.22044605e-16
vn 0 -1 -2.22044605e-16
vn 0 -1 -2.22044605e-16
vn 0 -1 -2.22044605e-16
vn 0 -1 -2.22044605e-16
vn 0.606238093 -0.439582426 0.662753849
vn -0.507639931 -0.565577373 0.649941487
vn -0.640505368 -0.379926356 0.667389569
vn 0.502447873 -0.559526119 0.659148434
vn -0.56530012 -0.640284017 0.520069373
vn 0.586798641 -0.632964467 0.504998354
vn -0.96406551 -5.89893968e-17 0.265664625
vn 0.973887151 0.0524539578 0.220890017
vn -0.640505368 -0.379926356 0.667389569
vn -0.507639931 -0.565577373 0.649941487
vn -0.960553804 -0.265716309 0.082044093
vn 0.951512782 -0.30760921 -6.83029654e-17
vn 0.502447873 -0.559526119 0.659148434
vn 0.606238093 -0.439582426 0.662753849
vn -0.400170133 -0.728557679 0.555938462
vn -0.400170119 -0.728557655 0.555938503
vn -0.400170069 -0.728557672 0.555938516
vn -0.400170083 -0.728557696 0.555938475
vn -0.0899218492 -0.991938317 -0.0892884977
vn -0.0899218491 -0.991938317 -0.0892885051
vn -0.0899218492 -0.991938318 -0.0892884903
vn 0.102940049 -0.973665436 0.203418202
vn 0.102940056 -0.973665435 0.203418202
vn 0.102940056 -0.973665435 0.203418202
vn 0.0469397531 -0.979587956 0.19545868
vn 0.0469397531 -0.979587956 0.19545868
vn 0.0469397495 -0.979587959 0.195458666
vn 0.0137572011 -0.973400546 0.228696558
vn 0.0913103186 -0.908465364 0.407864081
vn 0.0913103186 -0.908465364 0.407864081
vn 0.0913103249 -0.908465352 0.407864106
vn 0.498297109 -0.835539255 -0.231460892
vn 0.498297061 -0.835539274 -0.231460927
vn 0.498297106 -0.835539249 -0.23146092
vn 0.520247289 -0.826371802 -0.215528194
vn 0.964062925 -0.00813085998 -0.265549553
vn 0.964062925 -0.00813085905 -0.265549553
vn 0.964062925 -0.00813085998 -0.265549553
vn 0.530468854 -0.646971848 0.547750147
vn 0.530468854 -0.646971848 0.547750147
vn 0.530468854 -0.646971848 0.547750147
vn -0.00557149934 -0.334391855 0.94241766
vn -0.00557149882 -0.334391881 0.942417651
vn -0.00557149934 -0.334391855 0.94241766
vn 0.740672935 -0.651240161 -0.165196416
vn 0.740672937 -0.651240162 -0.165196402
vn 0.740672935 -0.651240161 -0.165196416
vn -0.0667023158 -0.942722648 0.326840649
vn -0.066702309 -0.942722658 0.326840623
vn -0.0667023158 -0.942722648 0.326840649
vn 0.267596329 -0.961850147 0.0568902481
vn 0.267596301 -0.961850154 0.0568902523
vn 0.267596329 -0.961850147 0.0568902481
vn 0.243161639 -0.968259831 0.0578387094
vn 0.243161639 -0.968259832 0.0578387056
vn -0.292472826 -0.886034209 0.359726323
vn -0.292472829 -0.886034218 0.359726297
vn -0.292472826 -0.886034209 0.359726323
vn -0.150763101 -0.92858807 0.33910866
vn -0.150763115 -0.928588068 0.339108659
vn -0.150763102 -0.92858808 0.339108633

g collision_PZ_booox_002_submesh_0
usemtl collision
f 1/1/1 3/3/3 2/2/2
f 1/1/1 2/2/2 4/4/4
f 3/3/3 1/1/1 5/5/5
f 5/5/5 1/1/1 6/6/6
f 1/1/1 7/7/7 6/6/6
f 1/1/1 8/8/8 7/7/7
f 3/3/3 5/5/5 9/9/9
f 10/10/10 3/3/3 9/9/9
f 10/10/10 11/11/11 3/3/3
f 11/11/11 12/12/12 3/3/3
f 11/11/11 13/13/13 12/12/12
f 11/11/11 10/10/10 14/14/14
f 14/14/14 10/10/10 15/15/15
f 14/14/14 15/15/15 16/16/16
f 16/16/16 17/17/17 14/14/14
f 17/17/17 16/16/16 18/18/18
f 18/18/18 19/19/19 8/8/8
f 18/18/18 16/16/16 19/19/19
f 20/20/20 18/18/18 8/8/8
f 21/21/21 20/20/20 8/8/8
f 21/21/21 8/8/8 1/1/1
f 22/22/22 21/21/21 1/1/1
f 23/23/23 22/22/22 1/1/1
f 23/23/23 1/1/1 24/24/24
f 24/24/24 1/1/1 25/25/25
f 26/26/26 24/24/24 25/25/25
f 27/27/27 29/29/29 28/28/28

g collision_PZ_booox_002_submesh_1
usemtl collision
f 30/30/30 32/32/32 31/31/31
f 30/30/30 31/31/31 33/33/33
f 33/33/33 31/31/31 34/34/34
f 33/33/33 34/34/34 35/35/35
f 36/36/36 34/34/34 31/31/31
f 35/35/35 37/37/37 33/33/33
f 38/38/38 40/40/40 39/39/39
f 41/41/41 43/43/43 42/42/42
f 44/44/44 46/46/46 45/45/45
f 44/44/44 45/45/45 47/47/47
f 48/48/48 50/50/50 49/49/49
f 51/51/51 53/53/53 52/52/52
f 54/54/54 56/56/56 55/55/55
f 54/54/54 57/57/57 56/56/56
f 58/58/58 60/60/60 59/59/59
f 61/61/61 63/63/63 62/62/62
f 61/61/61 64/64/64 63/63/63
f 65/65/65 67/67/67 66/66/66
f 68/68/68 70/70/70 69/69/69
f 71/71/71 73/73/73 72/72/72
f 74/74/74 76/76/76 75/75/75
f 77/77/77 79/79/79 78/78/78
f 80/80/80 82/82/82 81/81/81
f 82/82/82 83/83/83 81/81/81
f 82/82/82 84/84/84 83/83/83
f 85/85/85 87/87/87 86/86/86
f 88/88/88 90/90/90 89/89/89

o collision_PZ_booox_003
v -7.94435266 1.48269653e-06 -19.5342961
v -10.8502479 1.98422342 -23.8267031
v -11.9176364 5.29022215e-07 -23.4610739
v -7.36246446 1.41290431 -20.5497504
v 2.41525122 3.39004516e-06 -23.454732
v -1.02511553 2.0899077 -21.5892077
v -0.760755097 2.91320801e-06 -20.8940058
v 1.30464026 1.46139865 -23.8296843
v 0.914356673 2.43637085e-06 -32.6092597
v 1.59827277 1.5438519 -29.7298022
v 2.57093664 2.91320801e-06 -30.2162104
v 0.297039474 1.62630563 -31.7384215
v -13.8877378 -4.246521e-07 -27.489276
v -4.88465265 1.62987333 -31.4096919
v -5.14901498 1.48269653e-06 -32.1048938
v -13.8877378 -4.246521e-07 -27.489276
v -12.3348489 1.71249395 -27.2050849
v -7.36246446 1.41290431 -20.5497504
v -19.3440595 9.94854646 -21.6167765
v -10.8502479 1.98422342 -23.8267031
v -9.95745138 9.94854837 -13.1027776
v 1.30464026 1.46139865 -23.8296843
v 4.08332106 12.9426899 -22.8172332
v 0.55892607 12.9426899 -19.4278966
v 0.297039474 1.62630563 -31.7384215
v 2.46264693 12.9426899 -34.5111609
v 1.59827277 1.5438519 -29.7298022
v -12.3348489 1.71249395 -27.2050849
v -7.49538759 9.94854742 -36.2865306
v -4.88465265 1.62987333 -31.4096919
v -19.8549991 9.94854646 -28.7073489
v -0.760755097 2.91320801e-06 -20.8940058
v -7.36246446 1.41290431 -20.5497504
v -7.94435266 1.48269653e-06 -19.5342961
v -1.02511553 2.0899077 -21.5892077
v -1.02511553 2.0899077 -21.5892077
v -9.95745138 9.94854837 -13.1027776
v -7.36246446 1.41290431 -20.5497504
v 0.55892607 12.9426899 -19.4278966
v 2.21281287 3.39004517e-06 -27.0503131
v 1.30464026 1.46139865 -23.8296843
v 2.41525122 3.39004516e-06 -23.454732
v 1.09090849 1.46139818 -27.1700354
v 1.09090849 1.46139818 -27.1700354
v 5.11006972 12.9426899 -27.332635
v 1.30464026 1.46139865 -23.8296843
v -5.14901498 1.48269653e-06 -32.1048938
v 0.297039474 1.62630563 -31.7384215
v 0.914356673 2.43637085e-06 -32.6092597
v -4.88465265 1.62987333 -31.4096919
v -4.88465265 1.62987333 -31.4096919
v 2.46264693 12.9426899 -34.5111609
v 0.297039474 1.62630563 -31.7384215
v -7.49538759 9.94854742 -36.2865306
v -11.9176364 5.29022215e-07 -23.4610739
v -12.3348489 1.71249395 -27.2050849
v -13.8877378 -4.246521e-07 -27.489276
v -10.8502479 1.98422342 -23.8267031
v -12.3348489 1.71249395 -27.2050849
v -10.8502479 1.98422342 -23.8267031
v -19.8549991 9.94854646 -28.7073489
v -12.3348489 1.71249395 -27.2050849
v -19.3440595 9.94854646 -21.6167765
v 2.57093664 2.91320801e-06 -30.2162104
v 1.09090849 1.46139818 -27.1700354
v 2.21281287 3.39004517e-06 -27.0503131
v 1.59827277 1.5438519 -29.7298022
v 1.59827277 1.5438519 -29.7298022
v 2.46264693 12.9426899 -34.5111609
v 5.11788222 12.9426899 -31.1951438
v 1.59827277 1.5438519 -29.7298022
v 5.11006972 12.9426899 -27.332635
v 1.09090849 1.46139818 -27.1700354
v 1.30464026 1.46139865 -23.8296843
v 5.11006972 12.9426899 -27.332635
v 4.08332106 12.9426899 -22.8172332
v 1.30464026 1.46139865 -23.8296843
v 0.55892607 12.9426899 -19.4278966
v -1.02511553 2.0899077 -21.5892077
v 1.59827277 1.5438519 -29.7298022
v 5.11788222 12.9426899 -31.1951438
v 5.11006972 12.9426899 -27.332635
vt 0.61777854 0.117209099
vt 0.526367068 0.323226601
vt 0.607983947 0.316801459
vt 0.545068622 0.128124595
vt 1.36533713 0.442075551
vt 1.49196255 0.461542338
vt 1.4456085 0.391773313
vt 1.38157284 0.491388649
vt 1.07134414 0.493604779
vt 1.15533745 0.533107519
vt 1.13174963 0.467497349
vt 1.06976283 0.557754517
vt 0.631093383 0.412884951
vt 0.868629336 0.51551497
vt 0.966508746 0.448948234
vt 0.631093383 0.412884951
vt 0.571752548 0.456466913
vt 0.545068622 0.128124595
vt 0.0843894482 0.505105674
vt 0.526367068 0.323226601
vt 0.0958914161 -0.00600543991
vt 1.38157284 0.491388649
vt 1.51889205 0.899024427
vt 1.69743288 0.798433781
vt 1.06976283 0.557754517
vt 1.06578457 1.02421641
vt 1.15533745 0.533107519
vt 0.571752548 0.456466913
vt 0.697032571 0.822677076
vt 0.868629336 0.51551497
vt 0.209961414 0.720088899
vt 1.4456085 0.391773313
vt 1.63126457 0.247178346
vt 1.61046708 0.189127743
vt 1.49196255 0.461542338
vt 1.49196255 0.461542338
vt 1.93987894 0.43257764
vt 1.63126457 0.247178346
vt 1.69743288 0.798433781
vt 1.24329615 0.449387431
vt 1.38157284 0.491388649
vt 1.36533713 0.442075551
vt 1.25168633 0.507961571
vt 1.25168633 0.507961571
vt 1.34821367 0.961169064
vt 1.38157284 0.491388649
vt 0.966508746 0.448948234
vt 1.06976283 0.557754517
vt 1.07134414 0.493604779
vt 0.868629336 0.51551497
vt 0.868629336 0.51551497
vt 1.06578457 1.02421641
vt 1.06976283 0.557754517
vt 0.697032571 0.822677076
vt 0.607983947 0.316801459
vt 0.571752548 0.456466913
vt 0.631093383 0.412884951
vt 0.526367068 0.323226601
vt 0.571752548 0.456466913
vt 0.526367068 0.323226601
vt 0.209961414 0.720088899
vt 0.571752548 0.456466913
vt 0.0843894482 0.505105674
vt 1.13174963 0.467497349
vt 1.25168633 0.507961571
vt 1.24329615 0.449387431
vt 1.15533745 0.533107519
vt 1.15533745 0.533107519
vt 1.06578457 1.02421641
vt 1.19623721 0.995794952
vt 1.15533745 0.533107519
vt 1.34821367 0.961169064
vt 1.25168633 0.507961571
vt 1.38157284 0.491388649
vt 1.34821367 0.961169064
vt 1.51889205 0.899024427
vt 1.38157284 0.491388649
vt 1.69743288 0.798433781
vt 1.49196255 0.461542338
vt 1.15533745 0.533107519
vt 1.19623721 0.995794952
vt 1.34821367 0.961169064
vn 0.567078907 -0.531218547 -0.629466734
vn 0.567078907 -0.531218547 -0.629466734
vn 0.567078907 -0.531218547 -0.629466734
vn 0.567078907 -0.531218547 -0.629466734
vn -0.619123922 -0.436438146 -0.652845551
vn -0.619123898 -0.436438129 -0.652845585
vn -0.61912389 -0.436438153 -0.652845577
vn -0.61912389 -0.436438153 -0.652845577
vn -0.69926896 -0.547501582 0.45963566
vn -0.69926899 -0.547501559 0.459635641
vn -0.699268937 -0.547501623 0.459635645
vn -0.699268967 -0.547501601 0.459635626
vn 0.423244607 -0.459010402 0.781136002
vn 0.423244564 -0.45901039 0.781136032
vn 0.423244564 -0.45901039 0.781136032
vn 0.423244607 -0.459010402 0.781136002
vn 0.423244613 -0.459010379 0.781136013
vn 0.520818898 0.664013338 -0.536501596
vn 0.520818919 0.664013305 -0.536501617
vn 0.520818919 0.664013305 -0.536501617
vn 0.520818919 0.664013305 -0.536501617
vn -0.67532899 0.22536724 -0.702239534
vn -0.675328953 0.225367277 -0.702239557
vn -0.675328957 0.225367249 -0.702239562
vn -0.799675063 0.282810068 0.529658626
vn -0.799675063 0.282810068 0.529658626
vn -0.799675084 0.282810054 0.5296586
vn 0.431330527 0.541905159 0.72131323
vn 0.431330527 0.541905159 0.72131323
vn 0.431330527 0.541905159 0.72131323
vn 0.431330527 0.541905159 0.72131323
vn -0.137531459 -0.424567551 -0.894889654
vn -0.137531459 -0.424567551 -0.894889654
vn -0.137531459 -0.424567551 -0.894889654
vn -0.137531459 -0.424567551 -0.894889654
vn -0.438636264 0.380571983 -0.814102692
vn -0.438636259 0.380572009 -0.814102683
vn -0.438636283 0.380572004 -0.814102672
vn -0.438636259 0.380572009 -0.814102683
vn -0.797673887 -0.601186817 0.0478621054
vn -0.797673887 -0.601186817 0.0478621054
vn -0.797673859 -0.601186855 0.0478621037
vn -0.797673859 -0.601186855 0.0478621037
vn -0.941858238 0.330562006 0.0602645802
vn -0.941858237 0.330562006 0.0602645877
vn -0.941858237 0.330562006 0.0602645877
vn 0.0666889483 -0.426577962 0.901988817
vn 0.0666889409 -0.426577962 0.901988818
vn 0.0666889418 -0.426577938 0.901988829
vn 0.0666889409 -0.426577962 0.901988818
vn -0.158216006 0.355323329 0.921256222
vn -0.158216019 0.355323354 0.92125621
vn -0.158216006 0.355323329 0.921256222
vn -0.158216006 0.355323329 0.921256222
vn 0.764737174 -0.549468864 -0.336542749
vn 0.764737199 -0.549468823 -0.33654276
vn 0.764737174 -0.549468864 -0.336542749
vn 0.764737174 -0.549468864 -0.336542749
vn 0.764737199 -0.549468823 -0.33654276
vn 0.699662369 0.698228878 -0.151489284
vn 0.699662369 0.698228878 -0.151489284
vn 0.699662341 0.698228908 -0.151489275
vn 0.6996624 0.698228849 -0.151489275
vn -0.820698673 -0.555889782 -0.132061496
vn -0.820698673 -0.555889782 -0.132061496
vn -0.820698673 -0.555889782 -0.132061496
vn -0.820698673 -0.555889782 -0.132061496
vn -0.743156757 0.30596094 0.595068011
vn -0.743156757 0.30596094 0.595068011
vn -0.743156731 0.305960953 0.595068037
vn -0.930214001 0.323168601 -0.173965423
vn -0.930214001 0.323168601 -0.173965423
vn -0.930213992 0.323168628 -0.173965421
vn -0.944748411 0.247590082 -0.214824559
vn -0.944748411 0.247590082 -0.214824559
vn -0.944748411 0.247590082 -0.214824559
vn -0.638841897 0.238882829 -0.731311168
vn -0.6388419 0.238882815 -0.731311171
vn -0.638841893 0.238882857 -0.731311163
vn -0.955557563 0.294798248 -0.00193277265
vn -0.955557563 0.294798248 -0.00193277265
vn -0.955557563 0.294798248 -0.00193277265

g collision_PZ_booox_003_submesh_0
usemtl collision_2
f 91/91/91 93/93/93 92/92/92
f 91/91/91 92/92/92 94/94/94
f 95/95/95 97/97/97 96/96/96
f 95/95/95 96/96/96 98/98/98
f 99/99/99 101/101/101 100/100/100
f 99/99/99 100/100/100 102/102/102
f 103/103/103 105/105/105 104/104/104
f 106/106/106 104/104/104 107/107/107
f 108/108/108 110/110/110 109/109/109
f 108/108/108 109/109/109 111/111/111
f 112/112/112 114/114/114 113/113/113
f 115/115/115 117/117/117 116/116/116
f 118/118/118 120/120/120 119/119/119
f 118/118/118 119/119/119 121/121/121
f 122/122/122 124/124/124 123/123/123
f 122/122/122 123/123/123 125/125/125
f 126/126/126 128/128/128 127/127/127
f 126/126/126 127/127/127 129/129/129
f 130/130/130 132/132/132 131/131/131
f 130/130/130 131/131/131 133/133/133
f 134/134/134 136/136/136 135/135/135
f 137/137/137 139/139/139 138/138/138
f 137/137/137 138/138/138 140/140/140
f 141/141/141 143/143/143 142/142/142
f 141/141/141 142/142/142 144/144/144
f 145/145/145 147/147/147 146/146/146
f 145/145/145 149/149/149 148/148/148
f 150/150/150 152/152/152 151/151/151
f 150/150/150 151/151/151 153/153/153
f 154/154/154 156/156/156 155/155/155
f 154/154/154 155/155/155 157/157/157
f 158/158/158 160/160/160 159/159/159
f 161/161/161 163/163/163 162/162/162
f 164/164/164 166/166/166 165/165/165
f 167/167/167 169/169/169 168/168/168
f 170/170/170 172/172/172 171/171/171

o collision_ground_02
v 42.4372366 -8.06562068 -49.2228777
v 42.4372404 -8.0656183 1.84544351
v 35.1845434 -8.06574657 8.85803011
v -57.4182284 -8.06739118 8.93022325
v -57.3982165 -8.06563999 -49.2228853
v 40.27404 -31.9015951 -16.6678555
v 40.27404 -31.9015951 -11.2946903
v 39.510948 -31.9016104 -10.5568602
vt 54.4173622 31.6955452
vt 54.4173622 3.87039042
vt 50.4656487 0.0495031551
vt 0.00997190177 0.0101606008
vt 0.0208714753 31.6955452
vt 54.4173622 31.6955452
vt 54.4173622 3.87039042
vt 50.4656487 0.0495031551
vn 0 1 1.43702982e-05
vn -1.7730863e-05 1 2.22044605e-16
vn -1.12369917e-05 1 1.11370491e-05
vn 0 1 1.56084134e-05
vn 0 1 1.56084116e-05
vn -1.74965007e-05 1 2.22044605e-16
vn -1.74965007e-05 1 2.22044605e-16
vn -1.74964989e-05 1 2.22044605e-16

g collision_ground_02_submesh_0
usemtl collision_3
f 173/173/173 175/175/175 174/174/174
f 173/173/173 176/176/176 175/175/175
f 173/173/173 177/177/177 176/176/176
f 178/178/178 180/180/180 179/179/179

o collision_ground_01
v 35.237114 0.00163936615 8.85802603
v 55.7151642 0.00164508819 20.0731177
v 44.4614716 0.00152397156 25.7034698
v 42.4898071 0.00176763534 1.84544039
v 36.9047012 0.00141572952 19.3909431
v -57.4182358 -8.58307006e-06 19.4531646
v -57.4182358 -9.05990721e-06 8.930223
v 58.9298096 0.00166225433 8.11031104
v 51.9637299 0.0016746521 2.66807986
v 42.4898186 0.001765728 -48.4299111
v 51.7203217 0.00176715851 -48.4299073
vt 14.5268831 41.7531776
vt 19.6969604 51.0672379
vt 22.2366066 45.918087
vt 11.3461962 45.0804405
vt 19.3368874 42.4866753
vt 19.1204414 -0.54858017
vt 14.3193197 -0.521265328
vt 14.2472372 52.5649796
vt 11.7461205 49.4008102
vt -11.5920725 45.2109489
vt -11.5681076 49.4223824
vn 0 1 1.00030647e-05
vn 0 1 1.00030647e-05
vn 0 1 1.00030647e-05
vn 0 1 2.22044605e-16
vn -1.64251142e-05 1 1.18993084e-05
vn -1.64251123e-05 1 1.18993075e-05
vn -1.64251123e-05 1 1.18993075e-05
vn 1.08193635e-05 1 -1.1570768e-05
vn 0 1 2.22044605e-16
vn 0 1 2.22044605e-16
vn 0 1 2.22044605e-16

g collision_ground_01_submesh_0
usemtl collision_4
f 181/181/181 183/183/183 182/182/182
f 184/184/184 181/181/181 182/182/182
f 181/181/181 185/185/185 183/183/183
f 181/181/181 186/186/186 185/185/185
f 181/181/181 187/187/187 186/186/186
f 184/184/184 182/182/182 188/188/188
f 184/184/184 188/188/188 189/189/189
f 190/190/190 184/184/184 189/189/189
f 190/190/190 189/189/189 191/191/191

o collision_PZ_booox_004
v 42.3700523 1.09597211 1.70551963
v 39.8698321 0.783072517 2.38020702
v 41.3180719 1.20607953 2.76490684
v 40.7807956 0.687725112 1.46282979
v 38.8543363 0.938462303 3.40285285
v 40.1453774 1.38552289 3.94585796
v 35.6301122 2.43078046 8.49291392
v 34.9792943 0.16592221 7.30517717
v 35.5802679 1.09597211 8.54310914
v 34.9923806 2.936657 7.26785536
v 35.9215696 3.54403691 8.1994042
v 34.9923806 2.936657 7.26785536
v 35.6301122 2.43078046 8.49291392
v 37.6340484 3.48072057 6.47486814
v 36.4487233 3.21416478 6.94339343
v 36.777809 3.6550179 7.33713623
v 37.0497078 3.05048947 6.40491279
v 37.945207 2.37165265 6.16151889
v 38.9772213 1.74807172 5.12223871
v 37.1131933 1.56746869 5.12190146
v 35.5802679 1.09597211 8.54310914
v 34.9792943 0.16592221 7.30517717
v 35.6704793 1.05357544e-05 8.45226212
v 40.1453774 1.38552289 3.94585796
v 37.8427706 1.68595509 4.4215404
v 38.9772213 1.74807172 5.12223871
v 38.8543363 0.938462303 3.40285285
v 37.945207 2.37165265 6.16151889
v 36.6796489 2.90196996 5.59285136
v 37.6340484 3.48072057 6.47486814
v 37.945207 2.37165265 6.16151889
v 37.1131933 1.56746869 5.12190146
v 36.6796489 2.90196996 5.59285136
v 35.8477392 3.09256177 7.48187395
v 36.4487233 3.21416478 6.94339343
v 34.9923806 2.936657 7.26785536
v 35.8477392 3.09256177 7.48187395
v 34.9923806 2.936657 7.26785536
v 35.9215696 3.54403691 8.1994042
v 36.6796489 2.90196996 5.59285136
v 37.0497078 3.05048947 6.40491279
v 37.6340484 3.48072057 6.47486814
v 36.777809 3.6550179 7.33713623
v 35.8477392 3.09256177 7.48187395
v 35.9215696 3.54403691 8.1994042
v 36.4487233 3.21416478 6.94339343
v 36.6796489 2.90196996 5.59285136
v 36.4487233 3.21416478 6.94339343
v 37.0497078 3.05048947 6.40491279
v 34.9923806 2.936657 7.26785536
v 36.4487233 3.21416478 6.94339343
v 36.6796489 2.90196996 5.59285136
v 37.1131933 1.56746869 5.12190146
v 38.9772213 1.74807172 5.12223871
v 37.8427706 1.68595509 4.4215404
vt 1.87269211 0.733939528
vt 1.5881989 0.432314813
vt 1.64358735 0.665750027
vt 1.78659225 0.491363585
vt 1.36704004 0.366490245
vt 1.38819325 0.589735746
vt 0.0978890061 0.190973103
vt 0.0350901484 -0.2136437
vt -0.0356805325 0.023947984
vt 0.306582421 0.131786212
vt 0.238836646 0.313953191
vt 0.306582421 0.131786212
vt 0.0978890061 0.190973103
vt 0.60363102 0.448506117
vt 0.43698433 0.314766467
vt 0.421233833 0.381229639
vt 0.552985311 0.356450677
vt 0.790158212 0.449601173
vt 1.13378739 0.514015734
vt 0.991346478 0.258543074
vt -0.0356805325 0.023947984
vt 0.0350901484 -0.2136437
vt -0.128351867 -0.125765771
vt 1.38819325 0.589735746
vt 1.14673698 0.300920397
vt 1.13378739 0.514015734
vt 1.36704004 0.366490245
vt 0.790158212 0.449601173
vt 0.663615167 0.264655769
vt 0.60363102 0.448506117
vt 0.790158212 0.449601173
vt 0.991346478 0.258543074
vt 0.663615167 0.264655769
vt 0.32098335 0.273082227
vt 0.43698433 0.314766467
vt 0.306582421 0.131786212
vt 0.32098335 0.273082227
vt 0.306582421 0.131786212
vt 0.238836646 0.313953191
vt 0.663615167 0.264655769
vt 0.552985311 0.356450677
vt 0.60363102 0.448506117
vt 0.421233833 0.381229639
vt 0.32098335 0.273082227
vt 0.238836646 0.313953191
vt 0.43698433 0.314766467
vt 0.663615167 0.264655769
vt 0.43698433 0.314766467
vt 0.552985311 0.356450677
vt 0.306582421 0.131786212
vt 0.43698433 0.314766467
vt 0.663615167 0.264655769
vt 0.991346478 0.258543074
vt 1.13378739 0.514015734
vt 1.14673698 0.300920397
vn 0.195918517 -0.936183221 0.291850837
vn 0.195918517 -0.936183221 0.291850837
vn 0.195918531 -0.936183218 0.291850836
vn 0.195918517 -0.936183221 0.291850837
vn 0.184777085 -0.927681452 0.324444991
vn 0.184777083 -0.927681443 0.324445017
vn 0.894737339 -0.0232217563 -0.445988614
vn 0.894737339 -0.0232217582 -0.445988614
vn 0.894737339 -0.0232217582 -0.445988614
vn 0.894737328 -0.0232217579 -0.445988637
vn 0.767360152 -0.343630493 -0.541365386
vn 0.767360143 -0.343630456 -0.541365422
vn 0.767360152 -0.343630493 -0.541365386
vn 0.389774914 -0.716613875 0.57839439
vn 0.389774914 -0.716613875 0.57839439
vn 0.389774914 -0.716613875 0.57839439
vn 0.389774914 -0.716613875 0.57839439
vn 0.0791670679 -0.818157434 0.569518208
vn 0.0791670679 -0.818157434 0.569518208
vn 0.0791670726 -0.818157405 0.569518248
vn 0.858208365 0.112161958 -0.500897292
vn 0.858208381 0.112161945 -0.500897267
vn 0.858208338 0.112161969 -0.500897336
vn -0.0295602311 -0.903508736 0.427549011
vn -0.0295602237 -0.903508736 0.427549011
vn -0.029560224 -0.903508748 0.427548987
vn -0.0295602237 -0.903508736 0.427549011
vn -0.504185837 -0.362864719 0.783661813
vn -0.504185837 -0.362864719 0.783661813
vn -0.504185837 -0.362864719 0.783661813
vn -0.51366003 -0.42908047 0.74299618
vn -0.513660014 -0.429080427 0.742996216
vn -0.513660014 -0.429080427 0.742996216
vn 0.183453906 -0.982877628 -0.0172113965
vn 0.183453891 -0.982877631 -0.0172113966
vn 0.183453877 -0.982877634 -0.0172113966
vn 0.0215960587 -0.847196797 0.530840086
vn 0.0215960587 -0.847196797 0.530840086
vn 0.0215960575 -0.847196824 0.530840043
vn 0.597913487 -0.791315671 -0.127745727
vn 0.597913487 -0.791315671 -0.127745727
vn 0.597913487 -0.791315671 -0.127745727
vn 0.517375688 -0.749024781 0.413865044
vn 0.517375645 -0.749024804 0.413865057
vn 0.517375645 -0.749024804 0.413865057
vn 0.517375658 -0.749024822 0.413865008
vn -0.0750451123 -0.974299141 0.212389771
vn -0.0750451125 -0.974299144 0.212389757
vn -0.0750451054 -0.974299148 0.212389743
vn 0.235836065 -0.937201824 0.256970992
vn 0.235836065 -0.937201824 0.256970992
vn 0.235836065 -0.937201824 0.256970992
vn 0.096227489 -0.993050171 -0.0677615528
vn 0.0962274891 -0.993050172 -0.0677615454
vn 0.0962274963 -0.99305017 -0.0677615602

g collision_PZ_booox_004_submesh_0
usemtl collision_5
f 192/192/192 194/194/194 193/193/193
f 192/192/192 193/193/193 195/195/195
f 194/194/194 196/196/196 193/193/193
f 194/194/194 197/197/197 196/196/196
f 198/198/198 200/200/200 199/199/199
f 198/198/198 199/199/199 201/201/201
f 202/202/202 204/204/204 203/203/203
f 205/205/205 207/207/207 206/206/206
f 205/205/205 206/206/206 208/208/208
f 209/209/209 211/211/211 210/210/210
f 212/212/212 214/214/214 213/213/213
f 215/215/215 217/217/217 216/216/216
f 215/215/215 216/216/216 218/218/218
f 219/219/219 221/221/221 220/220/220
f 222/222/222 224/224/224 223/223/223
f 225/225/225 227/227/227 226/226/226
f 228/228/228 230/230/230 229/229/229
f 231/231/231 233/233/233 232/232/232
f 234/234/234 236/236/236 235/235/235
f 234/234/234 235/235/235 237/237/237
f 238/238/238 240/240/240 239/239/239
f 241/241/241 243/243/243 242/242/242
f 244/244/244 246/246/246 245/245/245

o collision_PZ_booox_005
v 42.3700489 7.18233869 1.70552039
v 35.1958611 14.364666 8.9302162
v 42.3700452 14.364666 1.70551931
v 35.1958647 7.18233774 8.93021728
v 37.9452067 2.37165258 6.16151884
v 37.634048 3.4807205 6.47486799
v 42.3700489 7.18233869 1.70552039
v 38.9772212 1.74807165 5.12223879
v 40.1453775 1.38552282 3.94585826
v 41.3180722 1.20607946 2.76490732
v 42.3700528 1.09597204 1.70552031
v 36.7778103 3.65501783 7.33713589
v 35.1958647 7.18233774 8.93021728
v 35.9215691 3.54403684 8.19940364
v 35.6301114 2.43078039 8.49291353
v 35.1958647 1.09597204 8.93021728
v 35.5802674 1.09597204 8.54310848
v 35.5802674 1.09597204 8.54310848
v 35.1958647 1.14222412e-05 8.93021728
v 35.1958647 1.09597204 8.93021728
v 35.6704785 1.04685669e-05 8.45226177
vt 1.9786284 0.00225535128
vt -0.0332662873 0.997007966
vt 1.9786284 0.983672678
vt -0.033264637 0.00225522136
vt 4.37979221 0.330483258
vt 4.33677101 0.482753903
vt 4.99158144 0.990970552
vt 4.52093792 0.23484987
vt 4.68331432 0.193248913
vt 4.84609365 0.170248911
vt 4.99158144 0.155338079
vt 4.22165585 0.486980319
vt 3.99966216 0.990972579
vt 4.09999943 0.491446942
vt 4.05970192 0.338600963
vt 3.99966216 0.155336767
vt 4.05281067 0.155336842
vt 34.2193069 1.00134754
vt 33.8125839 -0.22369957
vt 33.8125839 1.00134754
vt 34.3147545 -0.22369957
vn 0.709582995 1.56457484e-16 0.704621866
vn 0.709583055 1.5645747e-16 0.704621805
vn 0.709582995 1.56457484e-16 0.704621866
vn 0.709583025 1.56457477e-16 0.704621835
vn 0.709583025 1.56457477e-16 0.704621835
vn 0.709583025 1.56457477e-16 0.704621835
vn 0.709583025 1.56457477e-16 0.704621835
vn 0.709582905 1.56457504e-16 0.704621956
vn 0.709582817 1.56457523e-16 0.704622044
vn 0.709582846 1.56457517e-16 0.704622015
vn 0.709582877 1.5645751e-16 0.704621985
vn 0.709582104 1.56457683e-16 0.704622762
vn 0.709582104 1.56457683e-16 0.704622762
vn 0.709582104 1.56457683e-16 0.704622762
vn 0.709583026 1.56457477e-16 0.704621834
vn 0.709582727 1.56457544e-16 0.704622135
vn 0.709582639 1.56457563e-16 0.704622224
vn 0.709582905 1.56457504e-16 0.704621956
vn 0.709582877 1.5645751e-16 0.704621985
vn 0.709582877 1.5645751e-16 0.704621985
vn 0.709582877 1.5645751e-16 0.704621985

g collision_PZ_booox_005_submesh_0
usemtl collision_6
f 247/247/247 249/249/249 248/248/248
f 247/247/247 248/248/248 250/250/250
f 251/251/251 253/253/253 252/252/252
f 254/254/254 253/253/253 251/251/251
f 253/253/253 254/254/254 255/255/255
f 253/253/253 255/255/255 256/256/256
f 256/256/256 257/257/257 253/253/253
f 258/258/258 252/252/252 253/253/253
f 258/258/258 253/253/253 259/259/259
f 259/259/259 260/260/260 258/258/258
f 259/259/259 261/261/261 260/260/260
f 259/259/259 262/262/262 261/261/261
f 262/262/262 263/263/263 261/261/261

g collision_PZ_booox_005_submesh_1
usemtl collision_6
f 264/264/264 266/266/266 265/265/265
f 264/264/264 265/265/265 267/267/267
