{"asset":{"version":"2.0","generator":"Star Warfare Unity lightmap restoration"},"scene":0,"scenes":[{"nodes":[0]}],"nodes":[{"name":"RestoredStage","mesh":0}],"meshes":[{"name":"RestoredStage","primitives":[{"attributes":{"POSITION":0,"NORMAL":1,"TEXCOORD_0":2,"TEXCOORD_1":3},"indices":4,"material":0},{"attributes":{"POSITION":5,"NORMAL":6,"TEXCOORD_0":7,"TEXCOORD_1":8},"indices":9,"material":1},{"attributes":{"POSITION":10,"NORMAL":11,"TEXCOORD_0":12,"TEXCOORD_1":13},"indices":14,"material":2},{"attributes":{"POSITION":15,"NORMAL":16,"TEXCOORD_0":17,"TEXCOORD_1":18},"indices":19,"material":3},{"attributes":{"POSITION":20,"NORMAL":21,"TEXCOORD_0":22,"TEXCOORD_1":23},"indices":24,"material":4},{"attributes":{"POSITION":25,"NORMAL":26,"TEXCOORD_0":27,"TEXCOORD_1":28},"indices":29,"material":5},{"attributes":{"POSITION":30,"NORMAL":31,"TEXCOORD_0":32,"TEXCOORD_1":33},"indices":34,"material":6},{"attributes":{"POSITION":35,"NORMAL":36,"TEXCOORD_0":37,"TEXCOORD_1":38},"indices":39,"material":7},{"attributes":{"POSITION":40,"NORMAL":41,"TEXCOORD_0":42,"TEXCOORD_1":43},"indices":44,"material":8},{"attributes":{"POSITION":45,"NORMAL":46,"TEXCOORD_0":47,"TEXCOORD_1":48},"indices":49,"material":9},{"attributes":{"POSITION":50,"NORMAL":51,"TEXCOORD_0":52,"TEXCOORD_1":53},"indices":54,"material":10},{"attributes":{"POSITION":55,"NORMAL":56,"TEXCOORD_0":57,"TEXCOORD_1":58},"indices":59,"material":11},{"attributes":{"POSITION":60,"NORMAL":61,"TEXCOORD_0":62,"TEXCOORD_1":63},"indices":64,"material":12},{"attributes":{"POSITION":65,"NORMAL":66,"TEXCOORD_0":67,"TEXCOORD_1":68},"indices":69,"material":13},{"attributes":{"POSITION":70,"NORMAL":71,"TEXCOORD_0":72,"TEXCOORD_1":73},"indices":74,"material":14},{"attributes":{"POSITION":75,"NORMAL":76,"TEXCOORD_0":77,"TEXCOORD_1":78},"indices":79,"material":15},{"attributes":{"POSITION":80,"NORMAL":81,"TEXCOORD_0":82,"TEXCOORD_1":83},"indices":84,"material":16},{"attributes":{"POSITION":85,"NORMAL":86,"TEXCOORD_0":87,"TEXCOORD_1":88},"indices":89,"material":17},{"attributes":{"POSITION":90,"NORMAL":91,"TEXCOORD_0":92,"TEXCOORD_1":93},"indices":94,"material":18},{"attributes":{"POSITION":95,"NORMAL":96,"TEXCOORD_0":97,"TEXCOORD_1":98},"indices":99,"material":19},{"attributes":{"POSITION":100,"NORMAL":101,"TEXCOORD_0":102,"TEXCOORD_1":103},"indices":104,"material":20},{"attributes":{"POSITION":105,"NORMAL":106,"TEXCOORD_0":107,"TEXCOORD_1":108},"indices":109,"material":21},{"attributes":{"POSITION":110,"NORMAL":111,"TEXCOORD_0":112,"TEXCOORD_1":113},"indices":114,"material":22},{"attributes":{"POSITION":115,"NORMAL":116,"TEXCOORD_0":117,"TEXCOORD_1":118},"indices":119,"material":23},{"attributes":{"POSITION":120,"NORMAL":121,"TEXCOORD_0":122,"TEXCOORD_1":123},"indices":124,"material":24},{"attributes":{"POSITION":125,"NORMAL":126,"TEXCOORD_0":127,"TEXCOORD_1":128},"indices":129,"material":25}]}],"bufferViews":[{"buffer":0,"byteOffset":0,"byteLength":912},{"buffer":0,"byteOffset":912,"byteLength":912},{"buffer":0,"byteOffset":1824,"byteLength":608},{"buffer":0,"byteOffset":2432,"byteLength":608},{"buffer":0,"byteOffset":3040,"byteLength":432},{"buffer":0,"byteOffset":3472,"byteLength":1416},{"buffer":0,"byteOffset":4888,"byteLength":1416},{"buffer":0,"byteOffset":6304,"byteLength":944},{"buffer":0,"byteOffset":7248,"byteLength":944},{"buffer":0,"byteOffset":8192,"byteLength":720},{"buffer":0,"byteOffset":8912,"byteLength":1416},{"buffer":0,"byteOffset":10328,"byteLength":1416},{"buffer":0,"byteOffset":11744,"byteLength":944},{"buffer":0,"byteOffset":12688,"byteLength":944},{"buffer":0,"byteOffset":13632,"byteLength":696},{"buffer":0,"byteOffset":14328,"byteLength":5076},{"buffer":0,"byteOffset":19404,"byteLength":5076},{"buffer":0,"byteOffset":24480,"byteLength":3384},{"buffer":0,"byteOffset":27864,"byteLength":3384},{"buffer":0,"byteOffset":31248,"byteLength":2532},{"buffer":0,"byteOffset":33780,"byteLength":1908},{"buffer":0,"byteOffset":35688,"byteLength":1908},{"buffer":0,"byteOffset":37596,"byteLength":1272},{"buffer":0,"byteOffset":38868,"byteLength":1272},{"buffer":0,"byteOffset":40140,"byteLength":1284},{"buffer":0,"byteOffset":41424,"byteLength":480},{"buffer":0,"byteOffset":41904,"byteLength":480},{"buffer":0,"byteOffset":42384,"byteLength":320},{"buffer":0,"byteOffset":42704,"byteLength":320},{"buffer":0,"byteOffset":43024,"byteLength":240},{"buffer":0,"byteOffset":43264,"byteLength":4596},{"buffer":0,"byteOffset":47860,"byteLength":4596},{"buffer":0,"byteOffset":52456,"byteLength":3064},{"buffer":0,"byteOffset":55520,"byteLength":3064},{"buffer":0,"byteOffset":58584,"byteLength":1836},{"buffer":0,"byteOffset":60420,"byteLength":15108},{"buffer":0,"byteOffset":75528,"byteLength":15108},{"buffer":0,"byteOffset":90636,"byteLength":10072},{"buffer":0,"byteOffset":100708,"byteLength":10072},{"buffer":0,"byteOffset":110780,"byteLength":9624},{"buffer":0,"byteOffset":120404,"byteLength":22368},{"buffer":0,"byteOffset":142772,"byteLength":22368},{"buffer":0,"byteOffset":165140,"byteLength":14912},{"buffer":0,"byteOffset":180052,"byteLength":14912},{"buffer":0,"byteOffset":194964,"byteLength":10848},{"buffer":0,"byteOffset":205812,"byteLength":5784},{"buffer":0,"byteOffset":211596,"byteLength":5784},{"buffer":0,"byteOffset":217380,"byteLength":3856},{"buffer":0,"byteOffset":221236,"byteLength":3856},{"buffer":0,"byteOffset":225092,"byteLength":2880},{"buffer":0,"byteOffset":227972,"byteLength":132},{"buffer":0,"byteOffset":228104,"byteLength":132},{"buffer":0,"byteOffset":228236,"byteLength":88},{"buffer":0,"byteOffset":228324,"byteLength":88},{"buffer":0,"byteOffset":228412,"byteLength":108},{"buffer":0,"byteOffset":228520,"byteLength":396},{"buffer":0,"byteOffset":228916,"byteLength":396},{"buffer":0,"byteOffset":229312,"byteLength":264},{"buffer":0,"byteOffset":229576,"byteLength":264},{"buffer":0,"byteOffset":229840,"byteLength":348},{"buffer":0,"byteOffset":230188,"byteLength":2100},{"buffer":0,"byteOffset":232288,"byteLength":2100},{"buffer":0,"byteOffset":234388,"byteLength":1400},{"buffer":0,"byteOffset":235788,"byteLength":1400},{"buffer":0,"byteOffset":237188,"byteLength":3168},{"buffer":0,"byteOffset":240356,"byteLength":2832},{"buffer":0,"byteOffset":243188,"byteLength":2832},{"buffer":0,"byteOffset":246020,"byteLength":1888},{"buffer":0,"byteOffset":247908,"byteLength":1888},{"buffer":0,"byteOffset":249796,"byteLength":1416},{"buffer":0,"byteOffset":251212,"byteLength":103020},{"buffer":0,"byteOffset":354232,"byteLength":103020},{"buffer":0,"byteOffset":457252,"byteLength":68680},{"buffer":0,"byteOffset":525932,"byteLength":68680},{"buffer":0,"byteOffset":594612,"byteLength":59172},{"buffer":0,"byteOffset":653784,"byteLength":612},{"buffer":0,"byteOffset":654396,"byteLength":612},{"buffer":0,"byteOffset":655008,"byteLength":408},{"buffer":0,"byteOffset":655416,"byteLength":408},{"buffer":0,"byteOffset":655824,"byteLength":348},{"buffer":0,"byteOffset":656172,"byteLength":180},{"buffer":0,"byteOffset":656352,"byteLength":180},{"buffer":0,"byteOffset":656532,"byteLength":120},{"buffer":0,"byteOffset":656652,"byteLength":120},{"buffer":0,"byteOffset":656772,"byteLength":108},{"buffer":0,"byteOffset":656880,"byteLength":144},{"buffer":0,"byteOffset":657024,"byteLength":144},{"buffer":0,"byteOffset":657168,"byteLength":96},{"buffer":0,"byteOffset":657264,"byteLength":96},{"buffer":0,"byteOffset":657360,"byteLength":72},{"buffer":0,"byteOffset":657432,"byteLength":528},{"buffer":0,"byteOffset":657960,"byteLength":528},{"buffer":0,"byteOffset":658488,"byteLength":352},{"buffer":0,"byteOffset":658840,"byteLength":352},{"buffer":0,"byteOffset":659192,"byteLength":264},{"buffer":0,"byteOffset":659456,"byteLength":216},{"buffer":0,"byteOffset":659672,"byteLength":216},{"buffer":0,"byteOffset":659888,"byteLength":144},{"buffer":0,"byteOffset":660032,"byteLength":144},{"buffer":0,"byteOffset":660176,"byteLength":108},{"buffer":0,"byteOffset":660284,"byteLength":912},{"buffer":0,"byteOffset":661196,"byteLength":912},{"buffer":0,"byteOffset":662108,"byteLength":608},{"buffer":0,"byteOffset":662716,"byteLength":608},{"buffer":0,"byteOffset":663324,"byteLength":408},{"buffer":0,"byteOffset":663732,"byteLength":492},{"buffer":0,"byteOffset":664224,"byteLength":492},{"buffer":0,"byteOffset":664716,"byteLength":328},{"buffer":0,"byteOffset":665044,"byteLength":328},{"buffer":0,"byteOffset":665372,"byteLength":240},{"buffer":0,"byteOffset":665612,"byteLength":1056},{"buffer":0,"byteOffset":666668,"byteLength":1056},{"buffer":0,"byteOffset":667724,"byteLength":704},{"buffer":0,"byteOffset":668428,"byteLength":704},{"buffer":0,"byteOffset":669132,"byteLength":672},{"buffer":0,"byteOffset":669804,"byteLength":1200},{"buffer":0,"byteOffset":671004,"byteLength":1200},{"buffer":0,"byteOffset":672204,"byteLength":800},{"buffer":0,"byteOffset":673004,"byteLength":800},{"buffer":0,"byteOffset":673804,"byteLength":600},{"buffer":0,"byteOffset":674404,"byteLength":4536},{"buffer":0,"byteOffset":678940,"byteLength":4536},{"buffer":0,"byteOffset":683476,"byteLength":3024},{"buffer":0,"byteOffset":686500,"byteLength":3024},{"buffer":0,"byteOffset":689524,"byteLength":2088},{"buffer":0,"byteOffset":691612,"byteLength":168},{"buffer":0,"byteOffset":691780,"byteLength":168},{"buffer":0,"byteOffset":691948,"byteLength":112},{"buffer":0,"byteOffset":692060,"byteLength":112},{"buffer":0,"byteOffset":692172,"byteLength":120}],"accessors":[{"bufferView":0,"componentType":5126,"count":76,"type":"VEC3","min":[-58.079567,-31.9016151,-49.6014175],"max":[42.9656982,19.8778801,9.13763332]},{"bufferView":1,"componentType":5126,"count":76,"type":"VEC3","min":[-1.0,-1.1920929e-07,-1.0],"max":[1.0,1.0,1.0]},{"bufferView":2,"componentType":5126,"count":76,"type":"VEC2"},{"bufferView":3,"componentType":5126,"count":76,"type":"VEC2"},{"bufferView":4,"componentType":5125,"count":108,"type":"SCALAR"},{"bufferView":5,"componentType":5126,"count":118,"type":"VEC3","min":[-57.5895615,-15.973917,-50.1521454],"max":[52.3344803,10.0356121,19.8168182]},{"bufferView":6,"componentType":5126,"count":118,"type":"VEC3","min":[-0.999978878,-0.707106781,-1.0],"max":[1.0,0.707106781,1.0]},{"bufferView":7,"componentType":5126,"count":118,"type":"VEC2"},{"bufferView":8,"componentType":5126,"count":118,"type":"VEC2"},{"bufferView":9,"componentType":5125,"count":180,"type":"SCALAR"},{"bufferView":10,"componentType":5126,"count":118,"type":"VEC3","min":[-87.8262863,-0.353728086,-89.0484695],"max":[66.0648575,29.4480858,28.3498497]},{"bufferView":11,"componentType":5126,"count":118,"type":"VEC3","min":[-1.0,-0.0179810104,-1.0],"max":[1.0,1.1920929e-07,1.0]},{"bufferView":12,"componentType":5126,"count":118,"type":"VEC2"},{"bufferView":13,"componentType":5126,"count":118,"type":"VEC2"},{"bufferView":14,"componentType":5125,"count":174,"type":"SCALAR"},{"bufferView":15,"componentType":5126,"count":423,"type":"VEC3","min":[-57.4182281,-3.18935251,-48.5573311],"max":[42.4635506,1.09597421,9.269804]},{"bufferView":16,"componentType":5126,"count":423,"type":"VEC3","min":[-1.0,-1.0,-1.0],"max":[1.0,1.0,1.0]},{"bufferView":17,"componentType":5126,"count":423,"type":"VEC2"},{"bufferView":18,"componentType":5126,"count":423,"type":"VEC2"},{"bufferView":19,"componentType":5125,"count":633,"type":"SCALAR"},{"bufferView":20,"componentType":5126,"count":159,"type":"VEC3","min":[-57.4182358,1.09595048,-48.9035072],"max":[55.5080643,31.16465,8.93023872]},{"bufferView":21,"componentType":5126,"count":159,"type":"VEC3","min":[-0.889987358,-0.455984192,-0.999991981],"max":[1.0,0.455984192,1.0]},{"bufferView":22,"componentType":5126,"count":159,"type":"VEC2"},{"bufferView":23,"componentType":5126,"count":159,"type":"VEC2"},{"bufferView":24,"componentType":5125,"count":321,"type":"SCALAR"},{"bufferView":25,"componentType":5126,"count":40,"type":"VEC3","min":[-30.2285118,-2.940835,-47.9132614],"max":[42.1624298,-1.85067868,8.60720539]},{"bufferView":26,"componentType":5126,"count":40,"type":"VEC3","min":[-1.0,-1.1920929e-07,-1.0],"max":[0.0,1.1920929e-07,1.0]},{"bufferView":27,"componentType":5126,"count":40,"type":"VEC2"},{"bufferView":28,"componentType":5126,"count":40,"type":"VEC2"},{"bufferView":29,"componentType":5125,"count":60,"type":"SCALAR"},{"bufferView":30,"componentType":5126,"count":383,"type":"VEC3","min":[-57.4182358,-8.09214497,-48.9035072],"max":[51.2996368,32.3386307,11.8275032]},{"bufferView":31,"componentType":5126,"count":383,"type":"VEC3","min":[-0.997584749,-0.993049276,-0.990949695],"max":[0.973889251,0.927151669,0.942465242]},{"bufferView":32,"componentType":5126,"count":383,"type":"VEC2"},{"bufferView":33,"componentType":5126,"count":383,"type":"VEC2"},{"bufferView":34,"componentType":5125,"count":459,"type":"SCALAR"},{"bufferView":35,"componentType":5126,"count":1259,"type":"VEC3","min":[-57.43433,-14.1747465,-33.2856331],"max":[59.3043327,24.9212723,25.4728069]},{"bufferView":36,"componentType":5126,"count":1259,"type":"VEC3","min":[-0.999545046,-0.999981972,-0.995909084],"max":[0.999951052,1.0,0.99900066]},{"bufferView":37,"componentType":5126,"count":1259,"type":"VEC2"},{"bufferView":38,"componentType":5126,"count":1259,"type":"VEC2"},{"bufferView":39,"componentType":5125,"count":2406,"type":"SCALAR"},{"bufferView":40,"componentType":5126,"count":1864,"type":"VEC3","min":[-56.5874596,-1.54761136,-48.6329918],"max":[55.4811668,34.4995041,19.2103863]},{"bufferView":41,"componentType":5126,"count":1864,"type":"VEC3","min":[-1.0,-1.0,-1.0],"max":[1.0,1.0,1.0]},{"bufferView":42,"componentType":5126,"count":1864,"type":"VEC2"},{"bufferView":43,"componentType":5126,"count":1864,"type":"VEC2"},{"bufferView":44,"componentType":5125,"count":2712,"type":"SCALAR"},{"bufferView":45,"componentType":5126,"count":482,"type":"VEC3","min":[-61.4295311,-8.64904499,-50.4384995],"max":[30.7689476,0.116498396,-11.4339275]},{"bufferView":46,"componentType":5126,"count":482,"type":"VEC3","min":[-1.0,-0.859307686,-1.0],"max":[1.0,0.859307686,1.0]},{"bufferView":47,"componentType":5126,"count":482,"type":"VEC2"},{"bufferView":48,"componentType":5126,"count":482,"type":"VEC2"},{"bufferView":49,"componentType":5125,"count":720,"type":"SCALAR"},{"bufferView":50,"componentType":5126,"count":11,"type":"VEC3","min":[-57.4182358,-1.2338156e-05,-48.4299164],"max":[58.9298096,0.00177149591,25.703474]},{"bufferView":51,"componentType":5126,"count":11,"type":"VEC3","min":[-1.63912773e-05,1.0,-1.14440918e-05],"max":[1.07884407e-05,1.0,1.19805336e-05]},{"bufferView":52,"componentType":5126,"count":11,"type":"VEC2"},{"bufferView":53,"componentType":5126,"count":11,"type":"VEC2"},{"bufferView":54,"componentType":5125,"count":27,"type":"SCALAR"},{"bufferView":55,"componentType":5126,"count":33,"type":"VEC3","min":[-57.4182281,-8.15920339e-06,-48.9035225],"max":[42.3700638,14.3646641,8.93023682]},{"bufferView":56,"componentType":5126,"count":33,"type":"VEC3","min":[0.0,-1.0,-1.1920929e-07],"max":[0.621115593,-0.783718968,0.0]},{"bufferView":57,"componentType":5126,"count":33,"type":"VEC2"},{"bufferView":58,"componentType":5126,"count":33,"type":"VEC2"},{"bufferView":59,"componentType":5125,"count":87,"type":"SCALAR"},{"bufferView":60,"componentType":5126,"count":175,"type":"VEC3","min":[-367.515991,-26.5283623,-349.735535],"max":[337.615967,225.280716,355.396454]},{"bufferView":61,"componentType":5126,"count":175,"type":"VEC3","min":[-0.9804065,-1.0,-0.9804065],"max":[0.9804065,-0.140578797,0.9804065]},{"bufferView":62,"componentType":5126,"count":175,"type":"VEC2"},{"bufferView":63,"componentType":5126,"count":175,"type":"VEC2"},{"bufferView":64,"componentType":5125,"count":792,"type":"SCALAR"},{"bufferView":65,"componentType":5126,"count":236,"type":"VEC3","min":[-59.7788963,2.19081664,-51.7643814],"max":[45.1357689,14.3892231,11.8275146]},{"bufferView":66,"componentType":5126,"count":236,"type":"VEC3","min":[-1.0,-1.0,-1.0],"max":[1.0,1.0,1.0]},{"bufferView":67,"componentType":5126,"count":236,"type":"VEC2"},{"bufferView":68,"componentType":5126,"count":236,"type":"VEC2"},{"bufferView":69,"componentType":5125,"count":354,"type":"SCALAR"},{"bufferView":70,"componentType":5126,"count":8585,"type":"VEC3","min":[-54.2877464,-8.26541996,-46.9362297],"max":[47.8937912,3.1669457,13.9709463]},{"bufferView":71,"componentType":5126,"count":8585,"type":"VEC3","min":[-0.999982593,-0.999981163,-0.999772291],"max":[0.99977203,0.999997068,0.999982593]},{"bufferView":72,"componentType":5126,"count":8585,"type":"VEC2"},{"bufferView":73,"componentType":5126,"count":8585,"type":"VEC2"},{"bufferView":74,"componentType":5125,"count":14793,"type":"SCALAR"},{"bufferView":75,"componentType":5126,"count":51,"type":"VEC3","min":[-76.4232635,14.188942,-172.467438],"max":[152.853287,69.6923752,59.188446]},{"bufferView":76,"componentType":5126,"count":51,"type":"VEC3","min":[-0.683873882,1.1920929e-07,-1.0],"max":[0.298876549,1.0,0.942126979]},{"bufferView":77,"componentType":5126,"count":51,"type":"VEC2"},{"bufferView":78,"componentType":5126,"count":51,"type":"VEC2"},{"bufferView":79,"componentType":5125,"count":87,"type":"SCALAR"},{"bufferView":80,"componentType":5126,"count":15,"type":"VEC3","min":[17.7124367,-3.01477432,35.2252922],"max":[40.6693268,58.4248161,59.188446]},{"bufferView":81,"componentType":5126,"count":15,"type":"VEC3","min":[-1.0,0.0,-1.0],"max":[0.999995633,0.00121843172,0.0026925719]},{"bufferView":82,"componentType":5126,"count":15,"type":"VEC2"},{"bufferView":83,"componentType":5126,"count":15,"type":"VEC2"},{"bufferView":84,"componentType":5125,"count":27,"type":"SCALAR"},{"bufferView":85,"componentType":5126,"count":12,"type":"VEC3","min":[-57.2742805,13.3893528,34.6168709],"max":[41.304081,34.3684845,65.513649]},{"bufferView":86,"componentType":5126,"count":12,"type":"VEC3","min":[0.0,1.0,1.1920929e-07],"max":[0.0,1.0,1.1920929e-07]},{"bufferView":87,"componentType":5126,"count":12,"type":"VEC2"},{"bufferView":88,"componentType":5126,"count":12,"type":"VEC2"},{"bufferView":89,"componentType":5125,"count":18,"type":"SCALAR"},{"bufferView":90,"componentType":5126,"count":44,"type":"VEC3","min":[-57.2742805,-4.07969093,-99.5742645],"max":[70.4201584,22.7006454,65.513649]},{"bufferView":91,"componentType":5126,"count":44,"type":"VEC3","min":[-1.0,-1.1920929e-07,-1.0],"max":[1.0,1.1920929e-07,1.0]},{"bufferView":92,"componentType":5126,"count":44,"type":"VEC2"},{"bufferView":93,"componentType":5126,"count":44,"type":"VEC2"},{"bufferView":94,"componentType":5125,"count":66,"type":"SCALAR"},{"bufferView":95,"componentType":5126,"count":18,"type":"VEC3","min":[-76.4232635,-3.01479435,3.34504533],"max":[-62.3572426,34.6686554,46.5622749]},{"bufferView":96,"componentType":5126,"count":18,"type":"VEC3","min":[-0.0318746168,-0.00649933818,-1.0],"max":[1.0,0.253750209,1.0]},{"bufferView":97,"componentType":5126,"count":18,"type":"VEC2"},{"bufferView":98,"componentType":5126,"count":18,"type":"VEC2"},{"bufferView":99,"componentType":5125,"count":27,"type":"SCALAR"},{"bufferView":100,"componentType":5126,"count":76,"type":"VEC3","min":[-74.6689835,-4.07969093,-99.5742645],"max":[70.4201584,42.5507317,65.513649]},{"bufferView":101,"componentType":5126,"count":76,"type":"VEC3","min":[-1.0,-0.210901478,-1.0],"max":[1.0,1.0,1.0]},{"bufferView":102,"componentType":5126,"count":76,"type":"VEC2"},{"bufferView":103,"componentType":5126,"count":76,"type":"VEC2"},{"bufferView":104,"componentType":5125,"count":102,"type":"SCALAR"},{"bufferView":105,"componentType":5126,"count":41,"type":"VEC3","min":[-49.3196716,-6.9858532,-167.574448],"max":[149.085266,66.6078186,49.4909973]},{"bufferView":106,"componentType":5126,"count":41,"type":"VEC3","min":[-1.0,-1.1920929e-07,-1.0],"max":[1.0,0.998689144,1.0]},{"bufferView":107,"componentType":5126,"count":41,"type":"VEC2"},{"bufferView":108,"componentType":5126,"count":41,"type":"VEC2"},{"bufferView":109,"componentType":5125,"count":60,"type":"SCALAR"},{"bufferView":110,"componentType":5126,"count":88,"type":"VEC3","min":[-62.979126,2.39754152,5.71927786],"max":[39.930439,30.8173943,43.2987366]},{"bufferView":111,"componentType":5126,"count":88,"type":"VEC3","min":[-0.917163202,-0.743949589,-1.0],"max":[1.0,0.512986176,1.0]},{"bufferView":112,"componentType":5126,"count":88,"type":"VEC2"},{"bufferView":113,"componentType":5126,"count":88,"type":"VEC2"},{"bufferView":114,"componentType":5125,"count":168,"type":"SCALAR"},{"bufferView":115,"componentType":5126,"count":100,"type":"VEC3","min":[-57.2742805,6.96283484,34.6168709],"max":[41.304081,34.3684845,65.513649]},{"bufferView":116,"componentType":5126,"count":100,"type":"VEC3","min":[-1.0,-0.920440743,-1.0],"max":[1.0,0.920440743,5.96066255e-08]},{"bufferView":117,"componentType":5126,"count":100,"type":"VEC2"},{"bufferView":118,"componentType":5126,"count":100,"type":"VEC2"},{"bufferView":119,"componentType":5125,"count":150,"type":"SCALAR"},{"bufferView":120,"componentType":5126,"count":378,"type":"VEC3","min":[-74.6689835,22.5042286,8.28781033],"max":[41.304081,61.0795746,65.513649]},{"bufferView":121,"componentType":5126,"count":378,"type":"VEC3","min":[-1.0,-1.0,-1.0],"max":[1.0,0.994339027,1.0]},{"bufferView":122,"componentType":5126,"count":378,"type":"VEC2"},{"bufferView":123,"componentType":5126,"count":378,"type":"VEC2"},{"bufferView":124,"componentType":5125,"count":522,"type":"SCALAR"},{"bufferView":125,"componentType":5126,"count":14,"type":"VEC3","min":[-42.5307617,-8.09908772,-48.4299202],"max":[42.5432091,3.58658122e-06,8.86632252]},{"bufferView":126,"componentType":5126,"count":14,"type":"VEC3","min":[-0.409104994,0.909057114,-0.41667153],"max":[0.0,0.912487317,5.96293426e-08]},{"bufferView":127,"componentType":5126,"count":14,"type":"VEC2"},{"bufferView":128,"componentType":5126,"count":14,"type":"VEC2"},{"bufferView":129,"componentType":5125,"count":30,"type":"SCALAR"}],"materials":[{"name":"booox_4","pbrMetallicRoughness":{"baseColorFactor":[1.0,1.0,1.0,1.0],"metallicFactor":0.0,"roughnessFactor":1.0,"baseColorTexture":{"index":0}},"doubleSided":false},{"name":"booox_3","pbrMetallicRoughness":{"baseColorFactor":[1.0,1.0,1.0,1.0],"metallicFactor":0.0,"roughnessFactor":1.0,"baseColorTexture":{"index":1}},"doubleSided":false},{"name":"booox_6","pbrMetallicRoughness":{"baseColorFactor":[1.0,1.0,1.0,1.0],"metallicFactor":0.0,"roughnessFactor":1.0,"baseColorTexture":{"index":2}},"doubleSided":false},{"name":"booox_8","pbrMetallicRoughness":{"baseColorFactor":[1.0,1.0,1.0,1.0],"metallicFactor":0.0,"roughnessFactor":1.0,"baseColorTexture":{"index":3}},"doubleSided":false},{"name":"booox_10","pbrMetallicRoughness":{"baseColorFactor":[1.0,1.0,1.0,1.0],"metallicFactor":0.0,"roughnessFactor":1.0,"baseColorTexture":{"index":4}},"doubleSided":false},{"name":"booox_16","pbrMetallicRoughness":{"baseColorFactor":[1.0,1.0,1.0,1.0],"metallicFactor":0.0,"roughnessFactor":1.0,"baseColorTexture":{"index":5}},"doubleSided":false},{"name":"booox_5","pbrMetallicRoughness":{"baseColorFactor":[1.0,1.0,1.0,1.0],"metallicFactor":0.0,"roughnessFactor":1.0,"baseColorTexture":{"index":6}},"doubleSided":false},{"name":"booox_2","pbrMetallicRoughness":{"baseColorFactor":[1.0,1.0,1.0,1.0],"metallicFactor":0.0,"roughnessFactor":1.0,"baseColorTexture":{"index":7}},"doubleSided":false},{"name":"booox_1","pbrMetallicRoughness":{"baseColorFactor":[1.0,1.0,1.0,1.0],"metallicFactor":0.0,"roughnessFactor":1.0,"baseColorTexture":{"index":8}},"doubleSided":false},{"name":"booox_11","pbrMetallicRoughness":{"baseColorFactor":[1.0,1.0,1.0,1.0],"metallicFactor":0.0,"roughnessFactor":1.0,"baseColorTexture":{"index":9}},"doubleSided":false},{"name":"booox_7","pbrMetallicRoughness":{"baseColorFactor":[1.0,1.0,1.0,1.0],"metallicFactor":0.0,"roughnessFactor":1.0,"baseColorTexture":{"index":10}},"doubleSided":false},{"name":"booox_13","pbrMetallicRoughness":{"baseColorFactor":[1.0,1.0,1.0,1.0],"metallicFactor":0.0,"roughnessFactor":1.0,"baseColorTexture":{"index":11}},"doubleSided":false},{"name":"Standard_8","pbrMetallicRoughness":{"baseColorFactor":[1.0,1.0,1.0,1.0],"metallicFactor":0.0,"roughnessFactor":1.0,"baseColorTexture":{"index":12}},"doubleSided":false},{"name":"booox_9","pbrMetallicRoughness":{"baseColorFactor":[1.0,1.0,1.0,1.0],"metallicFactor":0.0,"roughnessFactor":1.0,"baseColorTexture":{"index":13}},"doubleSided":false},{"name":"veh_1","pbrMetallicRoughness":{"baseColorFactor":[1.0,1.0,1.0,1.0],"metallicFactor":0.0,"roughnessFactor":1.0,"baseColorTexture":{"index":8}},"doubleSided":false},{"name":"bg_5","pbrMetallicRoughness":{"baseColorFactor":[1.0,1.0,1.0,1.0],"metallicFactor":0.0,"roughnessFactor":1.0,"baseColorTexture":{"index":6}},"doubleSided":false},{"name":"bg_15","pbrMetallicRoughness":{"baseColorFactor":[1.0,1.0,1.0,1.0],"metallicFactor":0.0,"roughnessFactor":1.0,"baseColorTexture":{"index":14}},"doubleSided":false},{"name":"bg_4","pbrMetallicRoughness":{"baseColorFactor":[1.0,1.0,1.0,1.0],"metallicFactor":0.0,"roughnessFactor":1.0,"baseColorTexture":{"index":0}},"doubleSided":false},{"name":"bg_18","pbrMetallicRoughness":{"baseColorFactor":[1.0,1.0,1.0,1.0],"metallicFactor":0.0,"roughnessFactor":1.0,"baseColorTexture":{"index":15}},"doubleSided":false},{"name":"bg_16","pbrMetallicRoughness":{"baseColorFactor":[1.0,1.0,1.0,1.0],"metallicFactor":0.0,"roughnessFactor":1.0,"baseColorTexture":{"index":5}},"doubleSided":false},{"name":"bg_3","pbrMetallicRoughness":{"baseColorFactor":[1.0,1.0,1.0,1.0],"metallicFactor":0.0,"roughnessFactor":1.0,"baseColorTexture":{"index":1}},"doubleSided":false},{"name":"bg_17","pbrMetallicRoughness":{"baseColorFactor":[1.0,1.0,1.0,1.0],"metallicFactor":0.0,"roughnessFactor":1.0,"baseColorTexture":{"index":16}},"doubleSided":false},{"name":"bg_10","pbrMetallicRoughness":{"baseColorFactor":[1.0,1.0,1.0,1.0],"metallicFactor":0.0,"roughnessFactor":1.0,"baseColorTexture":{"index":4}},"doubleSided":false},{"name":"bg_14","pbrMetallicRoughness":{"baseColorFactor":[1.0,1.0,1.0,1.0],"metallicFactor":0.0,"roughnessFactor":1.0,"baseColorTexture":{"index":17}},"doubleSided":false},{"name":"bg_1","pbrMetallicRoughness":{"baseColorFactor":[1.0,1.0,1.0,1.0],"metallicFactor":0.0,"roughnessFactor":1.0,"baseColorTexture":{"index":8}},"doubleSided":false},{"name":"booox_12","pbrMetallicRoughness":{"baseColorFactor":[1.0,1.0,1.0,1.0],"metallicFactor":0.0,"roughnessFactor":1.0,"baseColorTexture":{"index":18}},"doubleSided":false}],"images":[{"uri":"booox_4.png"},{"uri":"booox_3.png"},{"uri":"booox_6.png"},{"uri":"booox_8.png"},{"uri":"booox_10.png"},{"uri":"booox_16.png"},{"uri":"booox_5.png"},{"uri":"booox_2.png"},{"uri":"booox_1.png"},{"uri":"booox_11.png"},{"uri":"booox_7.png"},{"uri":"booox_13.png"},{"uri":"str_skyline.png"},{"uri":"booox_9.png"},{"uri":"booox_15.png"},{"uri":"booox_18.png"},{"uri":"booox_17.png"},{"uri":"booox_14.png"},{"uri":"booox_12.png"}],"textures":[{"source":0,"sampler":0},{"source":1,"sampler":0},{"source":2,"sampler":0},{"source":3,"sampler":0},{"source":4,"sampler":0},{"source":5,"sampler":0},{"source":6,"sampler":0},{"source":7,"sampler":0},{"source":8,"sampler":0},{"source":9,"sampler":0},{"source":10,"sampler":0},{"source":11,"sampler":0},{"source":12,"sampler":0},{"source":13,"sampler":0},{"source":14,"sampler":0},{"source":15,"sampler":0},{"source":16,"sampler":0},{"source":17,"sampler":0},{"source":18,"sampler":0}],"samplers":[{"magFilter":9729,"minFilter":9987,"wrapS":10497,"wrapT":10497}],"buffers":[{"uri":"stage.bin","byteLength":692292}]}
