{"asset":{"version":"2.0","generator":"Star Warfare Unity lightmap restoration"},"scene":0,"scenes":[{"nodes":[0]}],"nodes":[{"name":"RestoredStage","mesh":0}],"meshes":[{"name":"RestoredStage","primitives":[{"attributes":{"POSITION":0,"NORMAL":1,"TEXCOORD_0":2,"TEXCOORD_1":3},"indices":4,"material":0},{"attributes":{"POSITION":5,"NORMAL":6,"TEXCOORD_0":7,"TEXCOORD_1":8},"indices":9,"material":1},{"attributes":{"POSITION":10,"NORMAL":11,"TEXCOORD_0":12,"TEXCOORD_1":13},"indices":14,"material":2},{"attributes":{"POSITION":15,"NORMAL":16,"TEXCOORD_0":17,"TEXCOORD_1":18},"indices":19,"material":3},{"attributes":{"POSITION":20,"NORMAL":21,"TEXCOORD_0":22,"TEXCOORD_1":23},"indices":24,"material":4},{"attributes":{"POSITION":25,"NORMAL":26,"TEXCOORD_0":27,"TEXCOORD_1":28},"indices":29,"material":5}]}],"bufferViews":[{"buffer":0,"byteOffset":0,"byteLength":80136},{"buffer":0,"byteOffset":80136,"byteLength":80136},{"buffer":0,"byteOffset":160272,"byteLength":53424},{"buffer":0,"byteOffset":213696,"byteLength":53424},{"buffer":0,"byteOffset":267120,"byteLength":43296},{"buffer":0,"byteOffset":310416,"byteLength":7152},{"buffer":0,"byteOffset":317568,"byteLength":7152},{"buffer":0,"byteOffset":324720,"byteLength":4768},{"buffer":0,"byteOffset":329488,"byteLength":4768},{"buffer":0,"byteOffset":334256,"byteLength":3720},{"buffer":0,"byteOffset":337976,"byteLength":528},{"buffer":0,"byteOffset":338504,"byteLength":528},{"buffer":0,"byteOffset":339032,"byteLength":352},{"buffer":0,"byteOffset":339384,"byteLength":352},{"buffer":0,"byteOffset":339736,"byteLength":384},{"buffer":0,"byteOffset":340120,"byteLength":2112},{"buffer":0,"byteOffset":342232,"byteLength":2112},{"buffer":0,"byteOffset":344344,"byteLength":1408},{"buffer":0,"byteOffset":345752,"byteLength":1408},{"buffer":0,"byteOffset":347160,"byteLength":1128},{"buffer":0,"byteOffset":348288,"byteLength":9204},{"buffer":0,"byteOffset":357492,"byteLength":9204},{"buffer":0,"byteOffset":366696,"byteLength":6136},{"buffer":0,"byteOffset":372832,"byteLength":6136},{"buffer":0,"byteOffset":378968,"byteLength":5364},{"buffer":0,"byteOffset":384332,"byteLength":19680},{"buffer":0,"byteOffset":404012,"byteLength":19680},{"buffer":0,"byteOffset":423692,"byteLength":13120},{"buffer":0,"byteOffset":436812,"byteLength":13120},{"buffer":0,"byteOffset":449932,"byteLength":9924}],"accessors":[{"bufferView":0,"componentType":5126,"count":6678,"type":"VEC3","min":[-57.3157043,-0.347889155,-46.5629654],"max":[56.3823586,25.1378822,45.9869804]},{"bufferView":1,"componentType":5126,"count":6678,"type":"VEC3","min":[-1.0,-1.0,-1.0],"max":[1.0,1.0,1.0]},{"bufferView":2,"componentType":5126,"count":6678,"type":"VEC2"},{"bufferView":3,"componentType":5126,"count":6678,"type":"VEC2"},{"bufferView":4,"componentType":5125,"count":10824,"type":"SCALAR"},{"bufferView":5,"componentType":5126,"count":596,"type":"VEC3","min":[-50.6762619,2.37555885,-44.4757309],"max":[50.5708923,23.6766796,40.6243095]},{"bufferView":6,"componentType":5126,"count":596,"type":"VEC3","min":[-0.999975692,-0.710689104,-0.99994109],"max":[0.993626412,0.894427191,0.999914692]},{"bufferView":7,"componentType":5126,"count":596,"type":"VEC2"},{"bufferView":8,"componentType":5126,"count":596,"type":"VEC2"},{"bufferView":9,"componentType":5125,"count":930,"type":"SCALAR"},{"bufferView":10,"componentType":5126,"count":44,"type":"VEC3","min":[-58.4210625,-0.153193101,-54.2104492],"max":[55.8359299,4.39783335,60.0465355]},{"bufferView":11,"componentType":5126,"count":44,"type":"VEC3","min":[-0.88570552,0.445130116,-0.740513949],"max":[0.88570552,1.0,0.672036602]},{"bufferView":12,"componentType":5126,"count":44,"type":"VEC2"},{"bufferView":13,"componentType":5126,"count":44,"type":"VEC2"},{"bufferView":14,"componentType":5125,"count":96,"type":"SCALAR"},{"bufferView":15,"componentType":5126,"count":176,"type":"VEC3","min":[-54.8229065,-2.04890966e-07,-46.2613029],"max":[50.485508,12.3324471,1.81106925]},{"bufferView":16,"componentType":5126,"count":176,"type":"VEC3","min":[-0.957597502,-0.29039375,-0.998396355],"max":[1.0,0.699001085,1.0]},{"bufferView":17,"componentType":5126,"count":176,"type":"VEC2"},{"bufferView":18,"componentType":5126,"count":176,"type":"VEC2"},{"bufferView":19,"componentType":5125,"count":282,"type":"SCALAR"},{"bufferView":20,"componentType":5126,"count":767,"type":"VEC3","min":[-77.3551559,1.07910311,-86.6619949],"max":[81.1404419,37.5323563,78.3400192]},{"bufferView":21,"componentType":5126,"count":767,"type":"VEC3","min":[-0.99999997,-1.0,-0.999999926],"max":[0.967934668,0.834712275,0.969573294]},{"bufferView":22,"componentType":5126,"count":767,"type":"VEC2"},{"bufferView":23,"componentType":5126,"count":767,"type":"VEC2"},{"bufferView":24,"componentType":5125,"count":1341,"type":"SCALAR"},{"bufferView":25,"componentType":5126,"count":1640,"type":"VEC3","min":[-56.8053894,-0.039705921,-46.0049324],"max":[56.3823586,32.6519966,47.3627129]},{"bufferView":26,"componentType":5126,"count":1640,"type":"VEC3","min":[-1.0,-1.0,-1.0],"max":[1.0,1.0,1.0]},{"bufferView":27,"componentType":5126,"count":1640,"type":"VEC2"},{"bufferView":28,"componentType":5126,"count":1640,"type":"VEC2"},{"bufferView":29,"componentType":5125,"count":2481,"type":"SCALAR"}],"materials":[{"name":"sc02_1","pbrMetallicRoughness":{"baseColorFactor":[1.0,1.0,1.0,1.0],"metallicFactor":0.0,"roughnessFactor":1.0,"baseColorTexture":{"index":0}},"doubleSided":false},{"name":"sc02_fx","pbrMetallicRoughness":{"baseColorFactor":[1.0,1.0,1.0,0.5],"metallicFactor":0.0,"roughnessFactor":1.0,"baseColorTexture":{"index":1}},"doubleSided":true,"alphaMode":"BLEND"},{"name":"sc02_14","pbrMetallicRoughness":{"baseColorFactor":[1.0,1.0,1.0,1.0],"metallicFactor":0.0,"roughnessFactor":1.0,"baseColorTexture":{"index":2}},"doubleSided":false},{"name":"sc02_12","pbrMetallicRoughness":{"baseColorFactor":[1.0,1.0,1.0,1.0],"metallicFactor":0.0,"roughnessFactor":1.0,"baseColorTexture":{"index":3}},"doubleSided":false},{"name":"sc02_13","pbrMetallicRoughness":{"baseColorFactor":[1.0,1.0,1.0,1.0],"metallicFactor":0.0,"roughnessFactor":1.0,"baseColorTexture":{"index":4}},"doubleSided":false},{"name":"sc02_11","pbrMetallicRoughness":{"baseColorFactor":[1.0,1.0,1.0,1.0],"metallicFactor":0.0,"roughnessFactor":1.0,"baseColorTexture":{"index":5}},"doubleSided":false}],"images":[{"uri":"sc02_1.png"},{"uri":"sc02_fx.png"},{"uri":"sc02_14.png"},{"uri":"sc02_12.png"},{"uri":"sc02_13.png"},{"uri":"sc02_11.png"}],"textures":[{"source":0,"sampler":0},{"source":1,"sampler":0},{"source":2,"sampler":0},{"source":3,"sampler":0},{"source":4,"sampler":0},{"source":5,"sampler":0}],"samplers":[{"magFilter":9729,"minFilter":9987,"wrapS":10497,"wrapT":10497}],"buffers":[{"uri":"stage.bin","byteLength":459856}]}
