{"asset":{"version":"2.0","generator":"Star Warfare Unity lightmap restoration"},"scene":0,"scenes":[{"nodes":[0]}],"nodes":[{"name":"RestoredStage","mesh":0}],"meshes":[{"name":"RestoredStage","primitives":[{"attributes":{"POSITION":0,"NORMAL":1,"TEXCOORD_0":2,"TEXCOORD_1":3},"indices":4,"material":0},{"attributes":{"POSITION":5,"NORMAL":6,"TEXCOORD_0":7,"TEXCOORD_1":8},"indices":9,"material":1},{"attributes":{"POSITION":10,"NORMAL":11,"TEXCOORD_0":12,"TEXCOORD_1":13},"indices":14,"material":2},{"attributes":{"POSITION":15,"NORMAL":16,"TEXCOORD_0":17,"TEXCOORD_1":18},"indices":19,"material":3},{"attributes":{"POSITION":20,"NORMAL":21,"TEXCOORD_0":22,"TEXCOORD_1":23},"indices":24,"material":4},{"attributes":{"POSITION":25,"NORMAL":26,"TEXCOORD_0":27,"TEXCOORD_1":28},"indices":29,"material":5},{"attributes":{"POSITION":30,"NORMAL":31,"TEXCOORD_0":32,"TEXCOORD_1":33},"indices":34,"material":6},{"attributes":{"POSITION":35,"NORMAL":36,"TEXCOORD_0":37,"TEXCOORD_1":38},"indices":39,"material":7},{"attributes":{"POSITION":40,"NORMAL":41,"TEXCOORD_0":42,"TEXCOORD_1":43},"indices":44,"material":8},{"attributes":{"POSITION":45,"NORMAL":46,"TEXCOORD_0":47,"TEXCOORD_1":48},"indices":49,"material":9},{"attributes":{"POSITION":50,"NORMAL":51,"TEXCOORD_0":52,"TEXCOORD_1":53},"indices":54,"material":10},{"attributes":{"POSITION":55,"NORMAL":56,"TEXCOORD_0":57,"TEXCOORD_1":58},"indices":59,"material":11},{"attributes":{"POSITION":60,"NORMAL":61,"TEXCOORD_0":62,"TEXCOORD_1":63},"indices":64,"material":12},{"attributes":{"POSITION":65,"NORMAL":66,"TEXCOORD_0":67,"TEXCOORD_1":68},"indices":69,"material":13},{"attributes":{"POSITION":70,"NORMAL":71,"TEXCOORD_0":72,"TEXCOORD_1":73},"indices":74,"material":14},{"attributes":{"POSITION":75,"NORMAL":76,"TEXCOORD_0":77,"TEXCOORD_1":78},"indices":79,"material":15},{"attributes":{"POSITION":80,"NORMAL":81,"TEXCOORD_0":82,"TEXCOORD_1":83},"indices":84,"material":16},{"attributes":{"POSITION":85,"NORMAL":86,"TEXCOORD_0":87,"TEXCOORD_1":88},"indices":89,"material":17},{"attributes":{"POSITION":90,"NORMAL":91,"TEXCOORD_0":92,"TEXCOORD_1":93},"indices":94,"material":18}]}],"bufferViews":[{"buffer":0,"byteOffset":0,"byteLength":4944},{"buffer":0,"byteOffset":4944,"byteLength":4944},{"buffer":0,"byteOffset":9888,"byteLength":3296},{"buffer":0,"byteOffset":13184,"byteLength":3296},{"buffer":0,"byteOffset":16480,"byteLength":3072},{"buffer":0,"byteOffset":19552,"byteLength":4944},{"buffer":0,"byteOffset":24496,"byteLength":4944},{"buffer":0,"byteOffset":29440,"byteLength":3296},{"buffer":0,"byteOffset":32736,"byteLength":3296},{"buffer":0,"byteOffset":36032,"byteLength":3072},{"buffer":0,"byteOffset":39104,"byteLength":4944},{"buffer":0,"byteOffset":44048,"byteLength":4944},{"buffer":0,"byteOffset":48992,"byteLength":3296},{"buffer":0,"byteOffset":52288,"byteLength":3296},{"buffer":0,"byteOffset":55584,"byteLength":3072},{"buffer":0,"byteOffset":58656,"byteLength":4944},{"buffer":0,"byteOffset":63600,"byteLength":4944},{"buffer":0,"byteOffset":68544,"byteLength":3296},{"buffer":0,"byteOffset":71840,"byteLength":3296},{"buffer":0,"byteOffset":75136,"byteLength":3072},{"buffer":0,"byteOffset":78208,"byteLength":5064},{"buffer":0,"byteOffset":83272,"byteLength":5064},{"buffer":0,"byteOffset":88336,"byteLength":3376},{"buffer":0,"byteOffset":91712,"byteLength":3376},{"buffer":0,"byteOffset":95088,"byteLength":3072},{"buffer":0,"byteOffset":98160,"byteLength":4944},{"buffer":0,"byteOffset":103104,"byteLength":4944},{"buffer":0,"byteOffset":108048,"byteLength":3296},{"buffer":0,"byteOffset":111344,"byteLength":3296},{"buffer":0,"byteOffset":114640,"byteLength":3072},{"buffer":0,"byteOffset":117712,"byteLength":4944},{"buffer":0,"byteOffset":122656,"byteLength":4944},{"buffer":0,"byteOffset":127600,"byteLength":3296},{"buffer":0,"byteOffset":130896,"byteLength":3296},{"buffer":0,"byteOffset":134192,"byteLength":3072},{"buffer":0,"byteOffset":137264,"byteLength":5436},{"buffer":0,"byteOffset":142700,"byteLength":5436},{"buffer":0,"byteOffset":148136,"byteLength":3624},{"buffer":0,"byteOffset":151760,"byteLength":3624},{"buffer":0,"byteOffset":155384,"byteLength":2976},{"buffer":0,"byteOffset":158360,"byteLength":9888},{"buffer":0,"byteOffset":168248,"byteLength":9888},{"buffer":0,"byteOffset":178136,"byteLength":6592},{"buffer":0,"byteOffset":184728,"byteLength":6592},{"buffer":0,"byteOffset":191320,"byteLength":6144},{"buffer":0,"byteOffset":197464,"byteLength":4944},{"buffer":0,"byteOffset":202408,"byteLength":4944},{"buffer":0,"byteOffset":207352,"byteLength":3296},{"buffer":0,"byteOffset":210648,"byteLength":3296},{"buffer":0,"byteOffset":213944,"byteLength":3072},{"buffer":0,"byteOffset":217016,"byteLength":9888},{"buffer":0,"byteOffset":226904,"byteLength":9888},{"buffer":0,"byteOffset":236792,"byteLength":6592},{"buffer":0,"byteOffset":243384,"byteLength":6592},{"buffer":0,"byteOffset":249976,"byteLength":6144},{"buffer":0,"byteOffset":256120,"byteLength":5484},{"buffer":0,"byteOffset":261604,"byteLength":5484},{"buffer":0,"byteOffset":267088,"byteLength":3656},{"buffer":0,"byteOffset":270744,"byteLength":3656},{"buffer":0,"byteOffset":274400,"byteLength":2976},{"buffer":0,"byteOffset":277376,"byteLength":960},{"buffer":0,"byteOffset":278336,"byteLength":960},{"buffer":0,"byteOffset":279296,"byteLength":640},{"buffer":0,"byteOffset":279936,"byteLength":640},{"buffer":0,"byteOffset":280576,"byteLength":576},{"buffer":0,"byteOffset":281152,"byteLength":960},{"buffer":0,"byteOffset":282112,"byteLength":960},{"buffer":0,"byteOffset":283072,"byteLength":640},{"buffer":0,"byteOffset":283712,"byteLength":640},{"buffer":0,"byteOffset":284352,"byteLength":576},{"buffer":0,"byteOffset":284928,"byteLength":1656},{"buffer":0,"byteOffset":286584,"byteLength":1656},{"buffer":0,"byteOffset":288240,"byteLength":1104},{"buffer":0,"byteOffset":289344,"byteLength":1104},{"buffer":0,"byteOffset":290448,"byteLength":1728},{"buffer":0,"byteOffset":292176,"byteLength":37536},{"buffer":0,"byteOffset":329712,"byteLength":37536},{"buffer":0,"byteOffset":367248,"byteLength":25024},{"buffer":0,"byteOffset":392272,"byteLength":25024},{"buffer":0,"byteOffset":417296,"byteLength":20880},{"buffer":0,"byteOffset":438176,"byteLength":3876},{"buffer":0,"byteOffset":442052,"byteLength":3876},{"buffer":0,"byteOffset":445928,"byteLength":2584},{"buffer":0,"byteOffset":448512,"byteLength":2584},{"buffer":0,"byteOffset":451096,"byteLength":6864},{"buffer":0,"byteOffset":457960,"byteLength":77256},{"buffer":0,"byteOffset":535216,"byteLength":77256},{"buffer":0,"byteOffset":612472,"byteLength":51504},{"buffer":0,"byteOffset":663976,"byteLength":51504},{"buffer":0,"byteOffset":715480,"byteLength":43380},{"buffer":0,"byteOffset":758860,"byteLength":384},{"buffer":0,"byteOffset":759244,"byteLength":384},{"buffer":0,"byteOffset":759628,"byteLength":256},{"buffer":0,"byteOffset":759884,"byteLength":256},{"buffer":0,"byteOffset":760140,"byteLength":192}],"accessors":[{"bufferView":0,"componentType":5126,"count":412,"type":"VEC3","min":[72.3056181,22.2630787,-4.35192204],"max":[80.7093337,25.4363422,4.27237654]},{"bufferView":1,"componentType":5126,"count":412,"type":"VEC3","min":[-0.963168235,-0.97019167,-0.94746514],"max":[0.957614114,0.959138946,0.96667515]},{"bufferView":2,"componentType":5126,"count":412,"type":"VEC2"},{"bufferView":3,"componentType":5126,"count":412,"type":"VEC2"},{"bufferView":4,"componentType":5125,"count":768,"type":"SCALAR"},{"bufferView":5,"componentType":5126,"count":412,"type":"VEC3","min":[-83.2431605,13.7729149,-6.6708703],"max":[-69.8708613,17.6566067,6.64679098]},{"bufferView":6,"componentType":5126,"count":412,"type":"VEC3","min":[-0.977332473,-0.934722673,-0.977732562],"max":[0.977554683,0.947346106,0.977627174]},{"bufferView":7,"componentType":5126,"count":412,"type":"VEC2"},{"bufferView":8,"componentType":5126,"count":412,"type":"VEC2"},{"bufferView":9,"componentType":5125,"count":768,"type":"SCALAR"},{"bufferView":10,"componentType":5126,"count":412,"type":"VEC3","min":[-85.6078484,8.20860863,-9.03018093],"max":[-67.5465062,12.5486202,9.03003407]},{"bufferView":11,"componentType":5126,"count":412,"type":"VEC3","min":[-0.994985145,-0.950188294,-0.996900983],"max":[0.994271007,0.94881013,0.996813736]},{"bufferView":12,"componentType":5126,"count":412,"type":"VEC2"},{"bufferView":13,"componentType":5126,"count":412,"type":"VEC2"},{"bufferView":14,"componentType":5125,"count":768,"type":"SCALAR"},{"bufferView":15,"componentType":5126,"count":412,"type":"VEC3","min":[-80.8658168,22.2630787,-4.27243137],"max":[-72.4621012,25.4363422,4.35186768]},{"bufferView":16,"componentType":5126,"count":412,"type":"VEC3","min":[-0.957607113,-0.970186385,-0.966709341],"max":[0.963205199,0.959136096,0.94746263]},{"bufferView":17,"componentType":5126,"count":412,"type":"VEC2"},{"bufferView":18,"componentType":5126,"count":412,"type":"VEC2"},{"bufferView":19,"componentType":5125,"count":768,"type":"SCALAR"},{"bufferView":20,"componentType":5126,"count":422,"type":"VEC3","min":[69.7172345,17.7695446,-6.39745951],"max":[83.1256326,21.5070705,6.70419502]},{"bufferView":21,"componentType":5126,"count":422,"type":"VEC3","min":[-0.999246777,-0.960789888,-0.999264833],"max":[0.999264833,0.960375132,0.99837242]},{"bufferView":22,"componentType":5126,"count":422,"type":"VEC2"},{"bufferView":23,"componentType":5126,"count":422,"type":"VEC2"},{"bufferView":24,"componentType":5125,"count":768,"type":"SCALAR"},{"bufferView":25,"componentType":5126,"count":412,"type":"VEC3","min":[67.3900226,8.20860863,-9.03008461],"max":[85.4513648,12.5486202,9.03012943]},{"bufferView":26,"componentType":5126,"count":412,"type":"VEC3","min":[-0.994170463,-0.950187535,-0.996844024],"max":[0.995030143,0.950208569,0.996901236]},{"bufferView":27,"componentType":5126,"count":412,"type":"VEC2"},{"bufferView":28,"componentType":5126,"count":412,"type":"VEC2"},{"bufferView":29,"componentType":5125,"count":768,"type":"SCALAR"},{"bufferView":30,"componentType":5126,"count":412,"type":"VEC3","min":[-83.2821157,17.7695446,-6.70424986],"max":[-69.8737175,21.5070705,6.39740515]},{"bufferView":31,"componentType":5126,"count":412,"type":"VEC3","min":[-0.999271705,-0.961832056,-0.998371334],"max":[0.999246396,0.960016723,0.999271705]},{"bufferView":32,"componentType":5126,"count":412,"type":"VEC2"},{"bufferView":33,"componentType":5126,"count":412,"type":"VEC2"},{"bufferView":34,"componentType":5125,"count":768,"type":"SCALAR"},{"bufferView":35,"componentType":5126,"count":453,"type":"VEC3","min":[-85.7651818,-1.24371886,-9.187356],"max":[-67.3905289,28.3793507,9.18728542]},{"bufferView":36,"componentType":5126,"count":453,"type":"VEC3","min":[-0.999275165,-1.0,-0.999275165],"max":[0.999275165,1.0,0.999275165]},{"bufferView":37,"componentType":5126,"count":453,"type":"VEC2"},{"bufferView":38,"componentType":5126,"count":453,"type":"VEC2"},{"bufferView":39,"componentType":5125,"count":744,"type":"SCALAR"},{"bufferView":40,"componentType":5126,"count":824,"type":"VEC3","min":[66.8005594,3.23681164,-9.61631012],"max":[86.0416873,7.98996544,9.62074471]},{"bufferView":41,"componentType":5126,"count":824,"type":"VEC3","min":[-0.985461103,-0.895303689,-0.987526776],"max":[0.985376861,0.887518671,0.986007184]},{"bufferView":42,"componentType":5126,"count":824,"type":"VEC2"},{"bufferView":43,"componentType":5126,"count":824,"type":"VEC2"},{"bufferView":44,"componentType":5125,"count":1536,"type":"SCALAR"},{"bufferView":45,"componentType":5126,"count":412,"type":"VEC3","min":[69.7143777,13.7729149,-6.64684296],"max":[83.0866774,17.6566067,6.67081738]},{"bufferView":46,"componentType":5126,"count":412,"type":"VEC3","min":[-0.977679118,-0.934712397,-0.97762027],"max":[0.977240018,0.947348425,0.977742013]},{"bufferView":47,"componentType":5126,"count":412,"type":"VEC2"},{"bufferView":48,"componentType":5126,"count":412,"type":"VEC2"},{"bufferView":49,"componentType":5125,"count":768,"type":"SCALAR"},{"bufferView":50,"componentType":5126,"count":824,"type":"VEC3","min":[-86.1981699,3.23681092,-9.62079525],"max":[-66.9570429,7.98996449,9.61625957]},{"bufferView":51,"componentType":5126,"count":824,"type":"VEC3","min":[-0.985650505,-0.895309162,-0.986004989],"max":[0.9854621,0.886478468,0.987647195]},{"bufferView":52,"componentType":5126,"count":824,"type":"VEC2"},{"bufferView":53,"componentType":5126,"count":824,"type":"VEC2"},{"bufferView":54,"componentType":5125,"count":1536,"type":"SCALAR"},{"bufferView":55,"componentType":5126,"count":457,"type":"VEC3","min":[67.2340463,-1.24371886,-9.18733597],"max":[85.6086992,28.3793507,9.18730545]},{"bufferView":56,"componentType":5126,"count":457,"type":"VEC3","min":[-0.999272122,-1.0,-0.999272122],"max":[0.999272122,1.0,0.999272122]},{"bufferView":57,"componentType":5126,"count":457,"type":"VEC2"},{"bufferView":58,"componentType":5126,"count":457,"type":"VEC2"},{"bufferView":59,"componentType":5125,"count":744,"type":"SCALAR"},{"bufferView":60,"componentType":5126,"count":80,"type":"VEC3","min":[75.6306384,26.4273624,-3.00065112],"max":[77.1942294,33.1511574,3.0006249]},{"bufferView":61,"componentType":5126,"count":80,"type":"VEC3","min":[-1.0,-1.0,-0.87764209],"max":[1.0,1.0,0.87764209]},{"bufferView":62,"componentType":5126,"count":80,"type":"VEC2"},{"bufferView":63,"componentType":5126,"count":80,"type":"VEC2"},{"bufferView":64,"componentType":5125,"count":144,"type":"SCALAR"},{"bufferView":65,"componentType":5126,"count":80,"type":"VEC3","min":[-77.350714,26.4273624,-3.0006783],"max":[-75.787123,33.1511574,3.00059772]},{"bufferView":66,"componentType":5126,"count":80,"type":"VEC3","min":[-1.0,-1.0,-0.877642332],"max":[1.0,1.0,0.877642332]},{"bufferView":67,"componentType":5126,"count":80,"type":"VEC2"},{"bufferView":68,"componentType":5126,"count":80,"type":"VEC2"},{"bufferView":69,"componentType":5125,"count":144,"type":"SCALAR"},{"bufferView":70,"componentType":5126,"count":138,"type":"VEC3","min":[-196.266556,-57.4855499,-193.40181],"max":[191.709091,219.029755,194.774246]},{"bufferView":71,"componentType":5126,"count":138,"type":"VEC3","min":[-0.991529195,-0.999416919,-0.992019023],"max":[0.991529195,0.228172541,0.992019023]},{"bufferView":72,"componentType":5126,"count":138,"type":"VEC2"},{"bufferView":73,"componentType":5126,"count":138,"type":"VEC2"},{"bufferView":74,"componentType":5125,"count":432,"type":"SCALAR"},{"bufferView":75,"componentType":5126,"count":3128,"type":"VEC3","min":[-62.73563,-8.00309467,-62.674469],"max":[30.0480022,33.0151787,32.02742]},{"bufferView":76,"componentType":5126,"count":3128,"type":"VEC3","min":[-1.0,-1.0,-0.999332902],"max":[0.999333141,1.0,0.999954484]},{"bufferView":77,"componentType":5126,"count":3128,"type":"VEC2"},{"bufferView":78,"componentType":5126,"count":3128,"type":"VEC2"},{"bufferView":79,"componentType":5125,"count":5220,"type":"SCALAR"},{"bufferView":80,"componentType":5126,"count":323,"type":"VEC3","min":[-103.337189,-0.41000551,-72.3360367],"max":[103.337189,-0.343562275,72.3360443]},{"bufferView":81,"componentType":5126,"count":323,"type":"VEC3","min":[-0.0762950907,0.994226582,-0.0762344095],"max":[0.0190747566,1.0,0.0763138385]},{"bufferView":82,"componentType":5126,"count":323,"type":"VEC2"},{"bufferView":83,"componentType":5126,"count":323,"type":"VEC2"},{"bufferView":84,"componentType":5125,"count":1716,"type":"SCALAR"},{"bufferView":85,"componentType":5126,"count":6438,"type":"VEC3","min":[-111.531738,-2.11646366,-83.4736481],"max":[105.551559,34.7849808,89.3562164]},{"bufferView":86,"componentType":5126,"count":6438,"type":"VEC3","min":[-1.0,-1.0,-1.0],"max":[1.0,1.0,1.0]},{"bufferView":87,"componentType":5126,"count":6438,"type":"VEC2"},{"bufferView":88,"componentType":5126,"count":6438,"type":"VEC2"},{"bufferView":89,"componentType":5125,"count":10845,"type":"SCALAR"},{"bufferView":90,"componentType":5126,"count":32,"type":"VEC3","min":[-62.3644485,-0.588866234,-62.2145309],"max":[-15.3112297,28.4000893,-40.6874733]},{"bufferView":91,"componentType":5126,"count":32,"type":"VEC3","min":[-0.962960279,0.07318933,-0.970970626],"max":[0.962705597,0.1148213,0.970668136]},{"bufferView":92,"componentType":5126,"count":32,"type":"VEC2"},{"bufferView":93,"componentType":5126,"count":32,"type":"VEC2"},{"bufferView":94,"componentType":5125,"count":48,"type":"SCALAR"}],"materials":[{"name":"RorL_1_Tiled_81","pbrMetallicRoughness":{"baseColorFactor":[1.0,1.0,1.0,1.0],"metallicFactor":0.0,"roughnessFactor":1.0,"baseColorTexture":{"index":0}},"doubleSided":false},{"name":"RorL_1_Tiled_99","pbrMetallicRoughness":{"baseColorFactor":[1.0,1.0,1.0,1.0],"metallicFactor":0.0,"roughnessFactor":1.0,"baseColorTexture":{"index":0}},"doubleSided":false},{"name":"RorL_1_Tiled_183","pbrMetallicRoughness":{"baseColorFactor":[1.0,1.0,1.0,1.0],"metallicFactor":0.0,"roughnessFactor":1.0,"baseColorTexture":{"index":0}},"doubleSided":false},{"name":"RorL_1_Tiled_233","pbrMetallicRoughness":{"baseColorFactor":[1.0,1.0,1.0,1.0],"metallicFactor":0.0,"roughnessFactor":1.0,"baseColorTexture":{"index":0}},"doubleSided":false},{"name":"RorL_1_Tiled_243","pbrMetallicRoughness":{"baseColorFactor":[1.0,1.0,1.0,1.0],"metallicFactor":0.0,"roughnessFactor":1.0,"baseColorTexture":{"index":0}},"doubleSided":false},{"name":"RorL_1_Tiled_269","pbrMetallicRoughness":{"baseColorFactor":[1.0,1.0,1.0,1.0],"metallicFactor":0.0,"roughnessFactor":1.0,"baseColorTexture":{"index":0}},"doubleSided":false},{"name":"RorL_1_Tiled_345","pbrMetallicRoughness":{"baseColorFactor":[1.0,1.0,1.0,1.0],"metallicFactor":0.0,"roughnessFactor":1.0,"baseColorTexture":{"index":0}},"doubleSided":false},{"name":"G2_1_Tiled_359","pbrMetallicRoughness":{"baseColorFactor":[1.0,1.0,1.0,1.0],"metallicFactor":0.0,"roughnessFactor":1.0,"baseColorTexture":{"index":1}},"doubleSided":false},{"name":"RorL_1_Tiled_470","pbrMetallicRoughness":{"baseColorFactor":[1.0,1.0,1.0,1.0],"metallicFactor":0.0,"roughnessFactor":1.0,"baseColorTexture":{"index":0}},"doubleSided":false},{"name":"RorL_1_Tiled_553","pbrMetallicRoughness":{"baseColorFactor":[1.0,1.0,1.0,1.0],"metallicFactor":0.0,"roughnessFactor":1.0,"baseColorTexture":{"index":0}},"doubleSided":false},{"name":"RorL_1_Tiled_615","pbrMetallicRoughness":{"baseColorFactor":[1.0,1.0,1.0,1.0],"metallicFactor":0.0,"roughnessFactor":1.0,"baseColorTexture":{"index":0}},"doubleSided":false},{"name":"G2_1_Tiled_650","pbrMetallicRoughness":{"baseColorFactor":[1.0,1.0,1.0,1.0],"metallicFactor":0.0,"roughnessFactor":1.0,"baseColorTexture":{"index":1}},"doubleSided":false},{"name":"RorL_1_Tiled_683","pbrMetallicRoughness":{"baseColorFactor":[1.0,1.0,1.0,1.0],"metallicFactor":0.0,"roughnessFactor":1.0,"baseColorTexture":{"index":0}},"doubleSided":false},{"name":"RorL_1_Tiled_702","pbrMetallicRoughness":{"baseColorFactor":[1.0,1.0,1.0,1.0],"metallicFactor":0.0,"roughnessFactor":1.0,"baseColorTexture":{"index":0}},"doubleSided":false},{"name":"SC_21_SKY","pbrMetallicRoughness":{"baseColorFactor":[1.0,1.0,1.0,1.0],"metallicFactor":0.0,"roughnessFactor":1.0,"baseColorTexture":{"index":2}},"doubleSided":false},{"name":"G1_1","pbrMetallicRoughness":{"baseColorFactor":[1.0,1.0,1.0,1.0],"metallicFactor":0.0,"roughnessFactor":1.0,"baseColorTexture":{"index":3}},"doubleSided":false},{"name":"ice01AL_1","pbrMetallicRoughness":{"baseColorFactor":[1.0,1.0,1.0,1.0],"metallicFactor":0.0,"roughnessFactor":1.0,"baseColorTexture":{"index":4}},"doubleSided":false},{"name":"G2_1","pbrMetallicRoughness":{"baseColorFactor":[1.0,1.0,1.0,1.0],"metallicFactor":0.0,"roughnessFactor":1.0,"baseColorTexture":{"index":1}},"doubleSided":false},{"name":"light","pbrMetallicRoughness":{"baseColorFactor":[0.5,0.5,0.5,0.137255],"metallicFactor":0.0,"roughnessFactor":1.0,"baseColorTexture":{"index":5}},"doubleSided":true,"alphaMode":"BLEND"}],"images":[{"uri":"tree_LR.png"},{"uri":"G2.png"},{"uri":"SC_21_SKY.png"},{"uri":"G1.png"},{"uri":"ice01AL.png"},{"uri":"light.png"}],"textures":[{"source":0,"sampler":0},{"source":1,"sampler":0},{"source":2,"sampler":0},{"source":3,"sampler":0},{"source":4,"sampler":0},{"source":5,"sampler":0}],"samplers":[{"magFilter":9729,"minFilter":9987,"wrapS":10497,"wrapT":10497}],"buffers":[{"uri":"stage.bin","byteLength":760332}]}
