{"asset":{"version":"2.0","generator":"Star Warfare Unity lightmap restoration"},"scene":0,"scenes":[{"nodes":[0]}],"nodes":[{"name":"RestoredStage","mesh":0}],"meshes":[{"name":"RestoredStage","primitives":[{"attributes":{"POSITION":0,"NORMAL":1,"TEXCOORD_0":2,"TEXCOORD_1":3},"indices":4,"material":0},{"attributes":{"POSITION":5,"NORMAL":6,"TEXCOORD_0":7,"TEXCOORD_1":8},"indices":9,"material":1},{"attributes":{"POSITION":10,"NORMAL":11,"TEXCOORD_0":12,"TEXCOORD_1":13},"indices":14,"material":2},{"attributes":{"POSITION":15,"NORMAL":16,"TEXCOORD_0":17,"TEXCOORD_1":18},"indices":19,"material":3},{"attributes":{"POSITION":20,"NORMAL":21,"TEXCOORD_0":22,"TEXCOORD_1":23},"indices":24,"material":4},{"attributes":{"POSITION":25,"NORMAL":26,"TEXCOORD_0":27,"TEXCOORD_1":28},"indices":29,"material":5},{"attributes":{"POSITION":30,"NORMAL":31,"TEXCOORD_0":32,"TEXCOORD_1":33},"indices":34,"material":6},{"attributes":{"POSITION":35,"NORMAL":36,"TEXCOORD_0":37,"TEXCOORD_1":38},"indices":39,"material":7},{"attributes":{"POSITION":40,"NORMAL":41,"TEXCOORD_0":42,"TEXCOORD_1":43},"indices":44,"material":8},{"attributes":{"POSITION":45,"NORMAL":46,"TEXCOORD_0":47,"TEXCOORD_1":48},"indices":49,"material":9},{"attributes":{"POSITION":50,"NORMAL":51,"TEXCOORD_0":52,"TEXCOORD_1":53},"indices":54,"material":10},{"attributes":{"POSITION":55,"NORMAL":56,"TEXCOORD_0":57,"TEXCOORD_1":58},"indices":59,"material":11},{"attributes":{"POSITION":60,"NORMAL":61,"TEXCOORD_0":62,"TEXCOORD_1":63},"indices":64,"material":12},{"attributes":{"POSITION":65,"NORMAL":66,"TEXCOORD_0":67,"TEXCOORD_1":68},"indices":69,"material":13},{"attributes":{"POSITION":70,"NORMAL":71,"TEXCOORD_0":72,"TEXCOORD_1":73},"indices":74,"material":14}]}],"bufferViews":[{"buffer":0,"byteOffset":0,"byteLength":144},{"buffer":0,"byteOffset":144,"byteLength":144},{"buffer":0,"byteOffset":288,"byteLength":96},{"buffer":0,"byteOffset":384,"byteLength":96},{"buffer":0,"byteOffset":480,"byteLength":72},{"buffer":0,"byteOffset":552,"byteLength":6000},{"buffer":0,"byteOffset":6552,"byteLength":6000},{"buffer":0,"byteOffset":12552,"byteLength":4000},{"buffer":0,"byteOffset":16552,"byteLength":4000},{"buffer":0,"byteOffset":20552,"byteLength":8340},{"buffer":0,"byteOffset":28892,"byteLength":2856},{"buffer":0,"byteOffset":31748,"byteLength":2856},{"buffer":0,"byteOffset":34604,"byteLength":1904},{"buffer":0,"byteOffset":36508,"byteLength":1904},{"buffer":0,"byteOffset":38412,"byteLength":2712},{"buffer":0,"byteOffset":41124,"byteLength":5664},{"buffer":0,"byteOffset":46788,"byteLength":5664},{"buffer":0,"byteOffset":52452,"byteLength":3776},{"buffer":0,"byteOffset":56228,"byteLength":3776},{"buffer":0,"byteOffset":60004,"byteLength":6048},{"buffer":0,"byteOffset":66052,"byteLength":11604},{"buffer":0,"byteOffset":77656,"byteLength":11604},{"buffer":0,"byteOffset":89260,"byteLength":7736},{"buffer":0,"byteOffset":96996,"byteLength":7736},{"buffer":0,"byteOffset":104732,"byteLength":13068},{"buffer":0,"byteOffset":117800,"byteLength":4716},{"buffer":0,"byteOffset":122516,"byteLength":4716},{"buffer":0,"byteOffset":127232,"byteLength":3144},{"buffer":0,"byteOffset":130376,"byteLength":3144},{"buffer":0,"byteOffset":133520,"byteLength":2340},{"buffer":0,"byteOffset":135860,"byteLength":288},{"buffer":0,"byteOffset":136148,"byteLength":288},{"buffer":0,"byteOffset":136436,"byteLength":192},{"buffer":0,"byteOffset":136628,"byteLength":192},{"buffer":0,"byteOffset":136820,"byteLength":144},{"buffer":0,"byteOffset":136964,"byteLength":336},{"buffer":0,"byteOffset":137300,"byteLength":336},{"buffer":0,"byteOffset":137636,"byteLength":224},{"buffer":0,"byteOffset":137860,"byteLength":224},{"buffer":0,"byteOffset":138084,"byteLength":264},{"buffer":0,"byteOffset":138348,"byteLength":1464},{"buffer":0,"byteOffset":139812,"byteLength":1464},{"buffer":0,"byteOffset":141276,"byteLength":976},{"buffer":0,"byteOffset":142252,"byteLength":976},{"buffer":0,"byteOffset":143228,"byteLength":720},{"buffer":0,"byteOffset":143948,"byteLength":83364},{"buffer":0,"byteOffset":227312,"byteLength":83364},{"buffer":0,"byteOffset":310676,"byteLength":55576},{"buffer":0,"byteOffset":366252,"byteLength":55576},{"buffer":0,"byteOffset":421828,"byteLength":48420},{"buffer":0,"byteOffset":470248,"byteLength":2736},{"buffer":0,"byteOffset":472984,"byteLength":2736},{"buffer":0,"byteOffset":475720,"byteLength":1824},{"buffer":0,"byteOffset":477544,"byteLength":1824},{"buffer":0,"byteOffset":479368,"byteLength":1368},{"buffer":0,"byteOffset":480736,"byteLength":492},{"buffer":0,"byteOffset":481228,"byteLength":492},{"buffer":0,"byteOffset":481720,"byteLength":328},{"buffer":0,"byteOffset":482048,"byteLength":328},{"buffer":0,"byteOffset":482376,"byteLength":648},{"buffer":0,"byteOffset":483024,"byteLength":17040},{"buffer":0,"byteOffset":500064,"byteLength":17040},{"buffer":0,"byteOffset":517104,"byteLength":11360},{"buffer":0,"byteOffset":528464,"byteLength":11360},{"buffer":0,"byteOffset":539824,"byteLength":8760},{"buffer":0,"byteOffset":548584,"byteLength":4440},{"buffer":0,"byteOffset":553024,"byteLength":4440},{"buffer":0,"byteOffset":557464,"byteLength":2960},{"buffer":0,"byteOffset":560424,"byteLength":2960},{"buffer":0,"byteOffset":563384,"byteLength":2160},{"buffer":0,"byteOffset":565544,"byteLength":252},{"buffer":0,"byteOffset":565796,"byteLength":252},{"buffer":0,"byteOffset":566048,"byteLength":168},{"buffer":0,"byteOffset":566216,"byteLength":168},{"buffer":0,"byteOffset":566384,"byteLength":204}],"accessors":[{"bufferView":0,"componentType":5126,"count":12,"type":"VEC3","min":[-7.27716064,0.721595526,-0.119171709],"max":[0.95868057,3.87252045,6.25868273]},{"bufferView":1,"componentType":5126,"count":12,"type":"VEC3","min":[-1.0,0.0,-0.0211237663],"max":[0.999776868,0.0,0.0]},{"bufferView":2,"componentType":5126,"count":12,"type":"VEC2"},{"bufferView":3,"componentType":5126,"count":12,"type":"VEC2"},{"bufferView":4,"componentType":5125,"count":18,"type":"SCALAR"},{"bufferView":5,"componentType":5126,"count":500,"type":"VEC3","min":[-89.1771622,-0.339161873,-158.987946],"max":[80.6172714,45.2935333,75.7365494]},{"bufferView":6,"componentType":5126,"count":500,"type":"VEC3","min":[-0.998849708,-0.02907715,-0.855232151],"max":[0.970875544,0.999136836,0.881048211]},{"bufferView":7,"componentType":5126,"count":500,"type":"VEC2"},{"bufferView":8,"componentType":5126,"count":500,"type":"VEC2"},{"bufferView":9,"componentType":5125,"count":2085,"type":"SCALAR"},{"bufferView":10,"componentType":5126,"count":238,"type":"VEC3","min":[-68.5409851,-4.12432194,-100.582451],"max":[64.9532242,22.9701233,67.0435638]},{"bufferView":11,"componentType":5126,"count":238,"type":"VEC3","min":[-0.997289152,-0.984932778,-0.987899222],"max":[0.992278216,0.9816648,0.98722844]},{"bufferView":12,"componentType":5126,"count":238,"type":"VEC2"},{"bufferView":13,"componentType":5126,"count":238,"type":"VEC2"},{"bufferView":14,"componentType":5125,"count":678,"type":"SCALAR"},{"bufferView":15,"componentType":5126,"count":472,"type":"VEC3","min":[-12.6327372,-0.944917202,-35.9121399],"max":[50.3385811,2.69919062,44.0786133]},{"bufferView":16,"componentType":5126,"count":472,"type":"VEC3","min":[-0.998395687,-0.00290402359,-0.96935075],"max":[0.973931,0.996442674,0.980751898]},{"bufferView":17,"componentType":5126,"count":472,"type":"VEC2"},{"bufferView":18,"componentType":5126,"count":472,"type":"VEC2"},{"bufferView":19,"componentType":5125,"count":1512,"type":"SCALAR"},{"bufferView":20,"componentType":5126,"count":967,"type":"VEC3","min":[-44.9335861,-1.0763365,-44.1531906],"max":[53.2621384,16.4663448,44.4474182]},{"bufferView":21,"componentType":5126,"count":967,"type":"VEC3","min":[-0.99796892,-0.998035934,-0.99676799],"max":[0.99935796,0.995547636,0.999723155]},{"bufferView":22,"componentType":5126,"count":967,"type":"VEC2"},{"bufferView":23,"componentType":5126,"count":967,"type":"VEC2"},{"bufferView":24,"componentType":5125,"count":3267,"type":"SCALAR"},{"bufferView":25,"componentType":5126,"count":393,"type":"VEC3","min":[18.7636986,5.12331057,27.6065521],"max":[51.7776451,11.6233873,49.5061264]},{"bufferView":26,"componentType":5126,"count":393,"type":"VEC3","min":[-0.862145814,-0.831943976,-0.999970087],"max":[0.833719745,0.973704021,0.767291293]},{"bufferView":27,"componentType":5126,"count":393,"type":"VEC2"},{"bufferView":28,"componentType":5126,"count":393,"type":"VEC2"},{"bufferView":29,"componentType":5125,"count":585,"type":"SCALAR"},{"bufferView":30,"componentType":5126,"count":24,"type":"VEC3","min":[-17.6460781,1.55376971,-7.6232605],"max":[-0.146767378,5.31877041,20.3410549]},{"bufferView":31,"componentType":5126,"count":24,"type":"VEC3","min":[-1.0,0.0,-0.0],"max":[1.0,0.839045646,5.96173249e-08]},{"bufferView":32,"componentType":5126,"count":24,"type":"VEC2"},{"bufferView":33,"componentType":5126,"count":24,"type":"VEC2"},{"bufferView":34,"componentType":5125,"count":36,"type":"SCALAR"},{"bufferView":35,"componentType":5126,"count":28,"type":"VEC3","min":[-32.3695297,-0.619380951,-98.4582138],"max":[10.6200619,1.41893387,-39.2883339]},{"bufferView":36,"componentType":5126,"count":28,"type":"VEC3","min":[-0.119969245,0.773175838,-0.0988679563],"max":[0.368602214,0.999895532,0.622741121]},{"bufferView":37,"componentType":5126,"count":28,"type":"VEC2"},{"bufferView":38,"componentType":5126,"count":28,"type":"VEC2"},{"bufferView":39,"componentType":5125,"count":66,"type":"SCALAR"},{"bufferView":40,"componentType":5126,"count":122,"type":"VEC3","min":[-44.2258759,-0.0152194686,-39.8574219],"max":[50.7741241,6.06678009,43.4526711]},{"bufferView":41,"componentType":5126,"count":122,"type":"VEC3","min":[-0.999964495,-0.999994231,-1.0],"max":[0.999218457,1.0,1.0]},{"bufferView":42,"componentType":5126,"count":122,"type":"VEC2"},{"bufferView":43,"componentType":5126,"count":122,"type":"VEC2"},{"bufferView":44,"componentType":5125,"count":180,"type":"SCALAR"},{"bufferView":45,"componentType":5126,"count":6947,"type":"VEC3","min":[-54.8142281,-1.81308997,-101.662804],"max":[51.7777252,28.8174114,43.8561172]},{"bufferView":46,"componentType":5126,"count":6947,"type":"VEC3","min":[-1.0,-1.0,-1.0],"max":[1.0,1.0,1.0]},{"bufferView":47,"componentType":5126,"count":6947,"type":"VEC2"},{"bufferView":48,"componentType":5126,"count":6947,"type":"VEC2"},{"bufferView":49,"componentType":5125,"count":12105,"type":"SCALAR"},{"bufferView":50,"componentType":5126,"count":228,"type":"VEC3","min":[33.7066154,3.62877417,-5.50677156],"max":[50.3944931,9.61441422,31.7205544]},{"bufferView":51,"componentType":5126,"count":228,"type":"VEC3","min":[-1.0,0.0,0.0],"max":[1.0,0.0,0.0]},{"bufferView":52,"componentType":5126,"count":228,"type":"VEC2"},{"bufferView":53,"componentType":5126,"count":228,"type":"VEC2"},{"bufferView":54,"componentType":5125,"count":342,"type":"SCALAR"},{"bufferView":55,"componentType":5126,"count":41,"type":"VEC3","min":[-160.336761,-5.49533558,-182.926956],"max":[150.53479,290.71817,150.679428]},{"bufferView":56,"componentType":5126,"count":41,"type":"VEC3","min":[-0.923912688,-1.0,-0.99144515],"max":[0.923912688,5.96360187e-08,0.99144515]},{"bufferView":57,"componentType":5126,"count":41,"type":"VEC2"},{"bufferView":58,"componentType":5126,"count":41,"type":"VEC2"},{"bufferView":59,"componentType":5125,"count":162,"type":"SCALAR"},{"bufferView":60,"componentType":5126,"count":1420,"type":"VEC3","min":[-19.0766621,-0.0823838934,-38.9970169],"max":[47.8635483,5.75822163,32.4721527]},{"bufferView":61,"componentType":5126,"count":1420,"type":"VEC3","min":[-1.0,-0.996199016,-1.0],"max":[1.0,1.0,1.0]},{"bufferView":62,"componentType":5126,"count":1420,"type":"VEC2"},{"bufferView":63,"componentType":5126,"count":1420,"type":"VEC2"},{"bufferView":64,"componentType":5125,"count":2190,"type":"SCALAR"},{"bufferView":65,"componentType":5126,"count":370,"type":"VEC3","min":[-20.2496986,-0.67694217,-32.3183479],"max":[46.7528687,8.29592514,36.9769516]},{"bufferView":66,"componentType":5126,"count":370,"type":"VEC3","min":[-1.0,-1.0,-1.0],"max":[1.0,0.9999971,1.0]},{"bufferView":67,"componentType":5126,"count":370,"type":"VEC2"},{"bufferView":68,"componentType":5126,"count":370,"type":"VEC2"},{"bufferView":69,"componentType":5125,"count":540,"type":"SCALAR"},{"bufferView":70,"componentType":5126,"count":21,"type":"VEC3","min":[-21.0116043,4.94156885,-26.686058],"max":[5.60133076,5.79911613,34.1500626]},{"bufferView":71,"componentType":5126,"count":21,"type":"VEC3","min":[0.0,-1.0,-1.1920929e-07],"max":[0.0,-1.0,-1.1920929e-07]},{"bufferView":72,"componentType":5126,"count":21,"type":"VEC2"},{"bufferView":73,"componentType":5126,"count":21,"type":"VEC2"},{"bufferView":74,"componentType":5125,"count":51,"type":"SCALAR"}],"materials":[{"name":"SC01-Standard_15","pbrMetallicRoughness":{"baseColorFactor":[1.0,1.0,1.0,1.0],"metallicFactor":0.0,"roughnessFactor":1.0,"baseColorTexture":{"index":0}},"doubleSided":false,"alphaMode":"BLEND"},{"name":"SC01-entry_light21-","pbrMetallicRoughness":{"baseColorFactor":[1.0,1.0,1.0,1.0],"metallicFactor":0.0,"roughnessFactor":1.0,"baseColorTexture":{"index":1}},"doubleSided":false},{"name":"SC01-entry_light22-","pbrMetallicRoughness":{"baseColorFactor":[1.0,1.0,1.0,1.0],"metallicFactor":0.0,"roughnessFactor":1.0,"baseColorTexture":{"index":2}},"doubleSided":false},{"name":"SC01-entry_light24","pbrMetallicRoughness":{"baseColorFactor":[1.0,1.0,1.0,1.0],"metallicFactor":0.0,"roughnessFactor":1.0,"baseColorTexture":{"index":2}},"doubleSided":false},{"name":"SC01-entry_light23","pbrMetallicRoughness":{"baseColorFactor":[1.0,1.0,1.0,1.0],"metallicFactor":0.0,"roughnessFactor":1.0,"baseColorTexture":{"index":1}},"doubleSided":false},{"name":"SC01-Standard_22","pbrMetallicRoughness":{"baseColorFactor":[1.0,1.0,1.0,1.0],"metallicFactor":0.0,"roughnessFactor":1.0,"baseColorTexture":{"index":3}},"doubleSided":false},{"name":"SC01-M_LIGHT","pbrMetallicRoughness":{"baseColorFactor":[1.0,1.0,1.0,1.0],"metallicFactor":0.0,"roughnessFactor":1.0,"baseColorTexture":{"index":4}},"doubleSided":false},{"name":"SC01-Standard_24","pbrMetallicRoughness":{"baseColorFactor":[1.0,1.0,1.0,1.0],"metallicFactor":0.0,"roughnessFactor":1.0,"baseColorTexture":{"index":5}},"doubleSided":false},{"name":"SC01-Standard_23","pbrMetallicRoughness":{"baseColorFactor":[1.0,1.0,1.0,1.0],"metallicFactor":0.0,"roughnessFactor":1.0,"baseColorTexture":{"index":5}},"doubleSided":false},{"name":"SC01-Standard_21","pbrMetallicRoughness":{"baseColorFactor":[1.0,1.0,1.0,1.0],"metallicFactor":0.0,"roughnessFactor":1.0,"baseColorTexture":{"index":3}},"doubleSided":false},{"name":"SC01-new","pbrMetallicRoughness":{"baseColorFactor":[1.0,1.0,1.0,1.0],"metallicFactor":0.0,"roughnessFactor":1.0,"baseColorTexture":{"index":3}},"doubleSided":false,"alphaMode":"BLEND"},{"name":"SC01-Standard_10","pbrMetallicRoughness":{"baseColorFactor":[1.0,1.0,1.0,1.0],"metallicFactor":0.0,"roughnessFactor":1.0,"baseColorTexture":{"index":6}},"doubleSided":false},{"name":"SC01-Standard_9","pbrMetallicRoughness":{"baseColorFactor":[1.0,1.0,1.0,1.0],"metallicFactor":0.0,"roughnessFactor":1.0,"baseColorTexture":{"index":4}},"doubleSided":false},{"name":"SC01-Standard_19","pbrMetallicRoughness":{"baseColorFactor":[1.0,1.0,1.0,1.0],"metallicFactor":0.0,"roughnessFactor":1.0,"baseColorTexture":{"index":7}},"doubleSided":false,"alphaMode":"BLEND"},{"name":"SC01-Standard_2a","pbrMetallicRoughness":{"baseColorFactor":[0.588,0.588,0.588,1.0],"metallicFactor":0.0,"roughnessFactor":1.0,"baseColorTexture":{"index":8}},"doubleSided":false}],"images":[{"uri":"sc_light_A1.png"},{"uri":"MT_21.png"},{"uri":"MT_22.png"},{"uri":"sc01_1.png"},{"uri":"sc01_3.png"},{"uri":"sc01_2.png"},{"uri":"sc_sky_line.png"},{"uri":"sc01_4.png"},{"uri":"sc01_5.png"}],"textures":[{"source":0,"sampler":0},{"source":1,"sampler":0},{"source":2,"sampler":0},{"source":3,"sampler":0},{"source":4,"sampler":0},{"source":5,"sampler":0},{"source":6,"sampler":0},{"source":7,"sampler":0},{"source":8,"sampler":0}],"samplers":[{"magFilter":9729,"minFilter":9987,"wrapS":10497,"wrapT":10497}],"buffers":[{"uri":"stage.bin","byteLength":566588}]}
