# Generated from legacy Unity YAML Mesh assets without Unity.
mtllib bug01.mtl

o bug01
v -0.170146199 1.04322101 -0.920924682
v -0.131679103 0.959590613 -0.915940006
v -0.155973999 1.03369468 -0.997917
v -0.155973999 1.03369468 -0.997917
v -0.131679103 0.959590613 -0.915940006
v -0.113279597 1.05217607 -0.941931751
v -0.113279597 1.05217607 -0.941931751
v -0.131679103 0.959590613 -0.915940006
v -0.170146199 1.04322101 -0.920924682
v -0.0863513015 0.877944735 -0.823598876
v -0.114930899 0.921805293 -0.893526697
v -0.117387898 0.846844396 -0.87663571
v -0.117387898 0.846844396 -0.87663571
v -0.114930899 0.921805293 -0.893526697
v -0.1445346 0.885201659 -0.806979423
v -0.1445346 0.885201659 -0.806979423
v -0.114930899 0.921805293 -0.893526697
v -0.0863513015 0.877944735 -0.823598876
v -0.126592204 0.9394362 -0.68538667
v -0.155309004 0.983067864 -0.769798256
v -0.156747496 0.902457307 -0.775642514
v -0.156747496 0.902457307 -0.775642514
v -0.155309004 0.983067864 -0.769798256
v -0.189778396 0.949128426 -0.690887963
v -0.189778396 0.949128426 -0.690887963
v -0.155309004 0.983067864 -0.769798256
v -0.126592204 0.9394362 -0.68538667
v -0.190217304 1.05671281 -0.81188082
v -0.159299697 0.983197373 -0.82450185
v -0.176668805 1.04760579 -0.885487212
v -0.176668805 1.04760579 -0.885487212
v -0.159299697 0.983197373 -0.82450185
v -0.135619405 1.06269008 -0.827481724
v -0.135619405 1.06269008 -0.827481724
v -0.159299697 0.983197373 -0.82450185
v -0.190217304 1.05671281 -0.81188082
v -0.1496782 1.02946319 -1.03212113
v -0.113089204 0.930931918 -1.01731188
v -0.136739403 1.02076573 -1.10241228
v -0.136739403 1.02076573 -1.10241228
v -0.113089204 0.930931918 -1.01731188
v -0.0987020984 1.0429746 -1.05355786
v -0.0987020984 1.0429746 -1.05355786
v -0.113089204 0.930931918 -1.01731188
v -0.1496782 1.02946319 -1.03212113
v -0.0430009998 0.822106435 -0.901183997
v -0.0566293001 0.890383018 -0.993253593
v -0.0353562988 0.797829015 -0.974606307
v -0.0353562988 0.797829015 -0.974606307
v -0.0566293001 0.890383018 -0.993253593
v -0.0946169019 0.814669601 -0.93506544
v -0.0946169019 0.814669601 -0.93506544
v -0.0566293001 0.890383018 -0.993253593
v -0.0430009998 0.822106435 -0.901183997
v -0.120612104 1.01328267 -1.13743886
v -0.0591415979 0.924298006 -1.11537836
v -0.0560167976 0.990202288 -1.1697964
v -0.0560167976 0.990202288 -1.1697964
v -0.0591415979 0.924298006 -1.11537836
v -0.0645966992 1.04075909 -1.11383134
v -0.0645966992 1.04075909 -1.11383134
v -0.0591415979 0.924298006 -1.11537836
v -0.120612104 1.01328267 -1.13743886
v 0.170146199 1.04322101 -0.920924682
v 0.155973999 1.03369468 -0.997917
v 0.131679103 0.959590613 -0.915940006
v 0.155973999 1.03369468 -0.997917
v 0.113279597 1.05217607 -0.941931751
v 0.131679103 0.959590613 -0.915940006
v 0.113279597 1.05217607 -0.941931751
v 0.170146199 1.04322101 -0.920924682
v 0.131679103 0.959590613 -0.915940006
v 0.0863513015 0.877944735 -0.823598876
v 0.117387898 0.846844396 -0.87663571
v 0.114930899 0.921805293 -0.893526697
v 0.117387898 0.846844396 -0.87663571
v 0.1445346 0.885201659 -0.806979423
v 0.114930899 0.921805293 -0.893526697
v 0.1445346 0.885201659 -0.806979423
v 0.0863513015 0.877944735 -0.823598876
v 0.114930899 0.921805293 -0.893526697
v 0.126592204 0.9394362 -0.68538667
v 0.156747496 0.902457307 -0.775642514
v 0.155309004 0.983067864 -0.769798256
v 0.156747496 0.902457307 -0.775642514
v 0.189778396 0.949128426 -0.690887963
v 0.155309004 0.983067864 -0.769798256
v 0.189778396 0.949128426 -0.690887963
v 0.126592204 0.9394362 -0.68538667
v 0.155309004 0.983067864 -0.769798256
v 0.190217304 1.05671281 -0.81188082
v 0.176668805 1.04760579 -0.885487212
v 0.159299697 0.983197373 -0.82450185
v 0.176668805 1.04760579 -0.885487212
v 0.135619405 1.06269008 -0.827481724
v 0.159299697 0.983197373 -0.82450185
v 0.135619405 1.06269008 -0.827481724
v 0.190217304 1.05671281 -0.81188082
v 0.159299697 0.983197373 -0.82450185
v 0.1496782 1.02946319 -1.03212113
v 0.136739403 1.02076573 -1.10241228
v 0.113089204 0.930931918 -1.01731188
v 0.136739403 1.02076573 -1.10241228
v 0.0987020984 1.0429746 -1.05355786
v 0.113089204 0.930931918 -1.01731188
v 0.0987020984 1.0429746 -1.05355786
v 0.1496782 1.02946319 -1.03212113
v 0.113089204 0.930931918 -1.01731188
v 0.0430009998 0.822106435 -0.901183997
v 0.0353562988 0.797829015 -0.974606307
v 0.0566293001 0.890383018 -0.993253593
v 0.0353562988 0.797829015 -0.974606307
v 0.0946169019 0.814669601 -0.93506544
v 0.0566293001 0.890383018 -0.993253593
v 0.0946169019 0.814669601 -0.93506544
v 0.0430009998 0.822106435 -0.901183997
v 0.0566293001 0.890383018 -0.993253593
v 0.120612104 1.01328267 -1.13743886
v 0.0560167976 0.990202288 -1.1697964
v 0.0591415979 0.924298006 -1.11537836
v 0.0560167976 0.990202288 -1.1697964
v 0.0645966992 1.04075909 -1.11383134
v 0.0591415979 0.924298006 -1.11537836
v 0.0645966992 1.04075909 -1.11383134
v 0.120612104 1.01328267 -1.13743886
v 0.0591415979 0.924298006 -1.11537836
v -0.148165503 1.55734775 -0.193541566
v -0.00169470003 1.43253918 -0.134873877
v -0.359673995 1.28886002 -0.354722125
v 0 1.6973848 -0.118370676
v 0 1.7536481 0.333237033
v -0.148165503 1.55734775 -0.193541566
v -0.359673995 1.28886002 -0.354722125
v -0.171456601 1.15394491 -0.918937404
v -0.148165503 1.55734775 -0.193541566
v -0.171456601 1.15394491 -0.918937404
v 0 1.21061684 -1.02803592
v 0 1.27351396 -0.965941725
v -0.00169470003 1.55392895 0.0128750978
v -0.148165503 1.55734775 -0.193541566
v 0 1.7536481 0.333237033
v -0.171456601 1.15394491 -0.918937404
v 0 1.34546135 -0.720519685
v -0.148165503 1.55734775 -0.193541566
v -0.171456601 1.15394491 -0.918937404
v 0 1.27351396 -0.965941725
v 0 1.34546135 -0.720519685
v -0.148165503 1.55734775 -0.193541566
v 0 1.34546135 -0.720519685
v 0 1.6973848 -0.118370676
v -0.00169470003 1.55392895 0.0128750978
v -0.00169470003 1.43253918 -0.134873877
v -0.148165503 1.55734775 -0.193541566
v 0.148165503 1.55734775 -0.193541566
v 0.359673995 1.28886002 -0.354722125
v 0.00169470003 1.43253918 -0.134873877
v 0 1.6973848 -0.118370676
v 0.148165503 1.55734775 -0.193541566
v 0 1.7536481 0.333237033
v 0.359673995 1.28886002 -0.354722125
v 0.148165503 1.55734775 -0.193541566
v 0.171456601 1.15394491 -0.918937404
v 0.171456601 1.15394491 -0.918937404
v 0 1.27351396 -0.965941725
v 0 1.21061684 -1.02803592
v 0.00169470003 1.55392895 0.0128750978
v 0 1.7536481 0.333237033
v 0.148165503 1.55734775 -0.193541566
v 0.171456601 1.15394491 -0.918937404
v 0.148165503 1.55734775 -0.193541566
v 0 1.34546135 -0.720519685
v 0.171456601 1.15394491 -0.918937404
v 0 1.34546135 -0.720519685
v 0 1.27351396 -0.965941725
v 0.148165503 1.55734775 -0.193541566
v 0 1.6973848 -0.118370676
v 0 1.34546135 -0.720519685
v 0.00169470003 1.55392895 0.0128750978
v 0.148165503 1.55734775 -0.193541566
v 0.00169470003 1.43253918 -0.134873877
v 0 0.988838022 0.0564346864
v 0 0.895147896 0.180952766
v -0.323452497 0.79007934 -0.29490155
v 0 1.11296617 -0.696119056
v -0.201490092 0.965676448 -0.660836964
v 0 0.999642506 -0.581267986
v -0.227573508 1.03764337 -0.631333374
v -0.201490092 0.965676448 -0.660836964
v -0.206969002 0.94385319 -0.425277923
v 0 0.638677791 -0.485363816
v 0 0.805869251 -0.546944193
v 0 0.527938505 -0.0887144835
v 0 0.638677791 -0.485363816
v -0.323452497 0.79007934 -0.29490155
v 0 1.0727085 -1.31825237
v 0 1.15590064 -1.25083329
v -0.089063099 1.10506946 -1.183144
v -0.438148212 1.35517243 -0.159458568
v -0.418219185 1.28330832 -0.183301972
v -0.213237503 1.19353267 -0.692852168
v 0 0.895147896 0.180952766
v 0 0.527938505 -0.0887144835
v -0.323452497 0.79007934 -0.29490155
v -0.213237503 1.19353267 -0.692852168
v -0.131275201 1.01709284 -1.13209786
v -0.089063099 1.10506946 -1.183144
v 0 0.805869251 -0.546944193
v 0 0.722779916 -0.916615505
v -0.206969002 0.94385319 -0.425277923
v 0 1.46956004 0.286062648
v -0.438148212 1.35517243 -0.159458568
v 0 1.44907677 -0.0877309832
v -0.323452497 0.79007934 -0.29490155
v 0 0.638677791 -0.485363816
v -0.206969002 0.94385319 -0.425277923
v -0.206969002 0.94385319 -0.425277923
v -0.0946169019 0.814669601 -0.93506544
v -0.201490092 0.965676448 -0.660836964
v 0 0.722779916 -0.916615505
v -0.0946169019 0.814669601 -0.93506544
v -0.213237503 1.19353267 -0.692852168
v 0 1.44907677 -0.0877309832
v -0.438148212 1.35517243 -0.159458568
v -0.213237503 1.19353267 -0.692852168
v -0.199210897 1.06275726 -0.763023653
v -0.131275201 1.01709284 -1.13209786
v -0.227573508 1.03764337 -0.631333374
v 0 1.25810206 0.199122654
v 0 1.13109409 0.0691067863
v -0.3315907 1.18678886 -0.214685048
v -0.089063099 1.10506946 -1.183144
v 0 0.970186481 -1.19785586
v 0 1.0727085 -1.31825237
v -0.131275201 1.01709284 -1.13209786
v 0 0.970186481 -1.19785586
v -0.199210897 1.06275726 -0.763023653
v 0 1.11296617 -0.696119056
v -0.131275201 1.01709284 -1.13209786
v -0.213237503 1.19353267 -0.692852168
v 0 1.21656198 -0.995810727
v 0 1.44907677 -0.0877309832
v -0.201490092 0.965676448 -0.660836964
v 0 0.787780556 -0.998198381
v 0 0.999642506 -0.581267986
v -0.201490092 0.965676448 -0.660836964
v -0.0946169019 0.814669601 -0.93506544
v 0 1.25810206 0.199122654
v -0.791884112 1.21377036 0.203905056
v 0 1.38064965 0.738164528
v 0 0.787780556 -0.998198381
v -0.0946169019 0.814669601 -0.93506544
v 0 0.722779916 -0.916615505
v -0.275963092 1.03075962 0.157666565
v 0 1.13109409 0.0691067863
v 0 0.988838022 0.0564346864
v -0.3315907 1.18678886 -0.214685048
v 0 1.13109409 0.0691067863
v -0.307514194 1.07890841 0.128748175
v -0.213237503 1.19353267 -0.692852168
v 0 1.15590064 -1.25083329
v 0 1.21656198 -0.995810727
v -0.089063099 1.10506946 -1.183144
v -0.605501384 0.902934037 0.318660935
v -0.502368307 1.09824095 -0.248115651
v -0.3315907 1.18678886 -0.214685048
v -0.275963092 1.03075962 0.157666565
v 0 0.988838022 0.0564346864
v -0.502368307 1.09824095 -0.248115651
v -0.502368307 1.09824095 -0.248115651
v -0.213237503 1.19353267 -0.692852168
v -0.3315907 1.18678886 -0.214685048
v 0 0.988838022 0.0564346864
v -0.323452497 0.79007934 -0.29490155
v -0.206969002 0.94385319 -0.425277923
v 0 0.988838022 0.0564346864
v -0.206969002 0.94385319 -0.425277923
v -0.502368307 1.09824095 -0.248115651
v -0.227573508 1.03764337 -0.631333374
v -0.206969002 0.94385319 -0.425277923
v -0.201490092 0.965676448 -0.660836964
v -0.605501384 0.902934037 0.318660935
v -0.275963092 1.03075962 0.157666565
v -0.502368307 1.09824095 -0.248115651
v 0 1.38064965 0.738164528
v -0.791884112 1.21377036 0.203905056
v 0 1.46956004 0.286062648
v 0 1.25810206 0.199122654
v -0.3315907 1.18678886 -0.214685048
v -0.418219185 1.28330832 -0.183301972
v -0.418219185 1.28330832 -0.183301972
v -0.438148212 1.35517243 -0.159458568
v -0.791884112 1.21377036 0.203905056
v -0.213237503 1.19353267 -0.692852168
v -0.418219185 1.28330832 -0.183301972
v -0.3315907 1.18678886 -0.214685048
v -0.206969002 0.94385319 -0.425277923
v -0.227573508 1.03764337 -0.631333374
v -0.502368307 1.09824095 -0.248115651
v 0 1.46956004 0.286062648
v -0.791884112 1.21377036 0.203905056
v -0.438148212 1.35517243 -0.159458568
v -0.605501384 0.902934037 0.318660935
v -0.307514194 1.07890841 0.128748175
v -0.275963092 1.03075962 0.157666565
v -0.3315907 1.18678886 -0.214685048
v -0.307514194 1.07890841 0.128748175
v -0.605501384 0.902934037 0.318660935
v -0.275963092 1.03075962 0.157666565
v -0.307514194 1.07890841 0.128748175
v 0 1.13109409 0.0691067863
v 0 1.11296617 -0.696119056
v -0.199210897 1.06275726 -0.763023653
v -0.227573508 1.03764337 -0.631333374
v -0.502368307 1.09824095 -0.248115651
v -0.227573508 1.03764337 -0.631333374
v -0.213237503 1.19353267 -0.692852168
v 0 1.25810206 0.199122654
v -0.418219185 1.28330832 -0.183301972
v -0.791884112 1.21377036 0.203905056
v 0 0.988838022 0.0564346864
v 0.323452497 0.79007934 -0.29490155
v 0 0.895147896 0.180952766
v 0 1.11296617 -0.696119056
v 0.201490092 0.965676448 -0.660836964
v 0.227573508 1.03764337 -0.631333374
v 0 0.999642506 -0.581267986
v 0.201490092 0.965676448 -0.660836964
v 0.206969002 0.94385319 -0.425277923
v 0 0.805869251 -0.546944193
v 0 0.638677791 -0.485363816
v 0 0.527938505 -0.0887144835
v 0.323452497 0.79007934 -0.29490155
v 0 0.638677791 -0.485363816
v 0 1.0727085 -1.31825237
v 0.089063099 1.10506946 -1.183144
v 0 1.15590064 -1.25083329
v 0.438148212 1.35517243 -0.159458568
v 0.213237503 1.19353267 -0.692852168
v 0.418219185 1.28330832 -0.183301972
v 0 0.895147896 0.180952766
v 0.323452497 0.79007934 -0.29490155
v 0 0.527938505 -0.0887144835
v 0.213237503 1.19353267 -0.692852168
v 0.089063099 1.10506946 -1.183144
v 0.131275201 1.01709284 -1.13209786
v 0 0.805869251 -0.546944193
v 0.206969002 0.94385319 -0.425277923
v 0 0.722779916 -0.916615505
v 0 1.46956004 0.286062648
v 0 1.44907677 -0.0877309832
v 0.438148212 1.35517243 -0.159458568
v 0.323452497 0.79007934 -0.29490155
v 0.206969002 0.94385319 -0.425277923
v 0 0.638677791 -0.485363816
v 0.206969002 0.94385319 -0.425277923
v 0.0946169019 0.814669601 -0.93506544
v 0 0.722779916 -0.916615505
v 0.201490092 0.965676448 -0.660836964
v 0.0946169019 0.814669601 -0.93506544
v 0.213237503 1.19353267 -0.692852168
v 0.438148212 1.35517243 -0.159458568
v 0 1.44907677 -0.0877309832
v 0.213237503 1.19353267 -0.692852168
v 0.131275201 1.01709284 -1.13209786
v 0.199210897 1.06275726 -0.763023653
v 0.227573508 1.03764337 -0.631333374
v 0 1.25810206 0.199122654
v 0.3315907 1.18678886 -0.214685048
v 0 1.13109409 0.0691067863
v 0.089063099 1.10506946 -1.183144
v 0 0.970186481 -1.19785586
v 0.131275201 1.01709284 -1.13209786
v 0 1.0727085 -1.31825237
v 0 0.970186481 -1.19785586
v 0.199210897 1.06275726 -0.763023653
v 0.131275201 1.01709284 -1.13209786
v 0 1.11296617 -0.696119056
v 0.213237503 1.19353267 -0.692852168
v 0 1.44907677 -0.0877309832
v 0 1.21656198 -0.995810727
v 0.201490092 0.965676448 -0.660836964
v 0 0.787780556 -0.998198381
v 0.0946169019 0.814669601 -0.93506544
v 0.201490092 0.965676448 -0.660836964
v 0 0.999642506 -0.581267986
v 0 1.25810206 0.199122654
v 0 1.38064965 0.738164528
v 0.791884112 1.21377036 0.203905056
v 0 0.787780556 -0.998198381
v 0 0.722779916 -0.916615505
v 0.0946169019 0.814669601 -0.93506544
v 0.275963092 1.03075962 0.157666565
v 0 0.988838022 0.0564346864
v 0 1.13109409 0.0691067863
v 0.3315907 1.18678886 -0.214685048
v 0.307514194 1.07890841 0.128748175
v 0 1.13109409 0.0691067863
v 0.213237503 1.19353267 -0.692852168
v 0 1.15590064 -1.25083329
v 0.089063099 1.10506946 -1.183144
v 0 1.21656198 -0.995810727
v 0.605501384 0.902934037 0.318660935
v 0.3315907 1.18678886 -0.214685048
v 0.502368307 1.09824095 -0.248115651
v 0.275963092 1.03075962 0.157666565
v 0.502368307 1.09824095 -0.248115651
v 0 0.988838022 0.0564346864
v 0.502368307 1.09824095 -0.248115651
v 0.3315907 1.18678886 -0.214685048
v 0.213237503 1.19353267 -0.692852168
v 0 0.988838022 0.0564346864
v 0.206969002 0.94385319 -0.425277923
v 0.323452497 0.79007934 -0.29490155
v 0 0.988838022 0.0564346864
v 0.502368307 1.09824095 -0.248115651
v 0.206969002 0.94385319 -0.425277923
v 0.227573508 1.03764337 -0.631333374
v 0.201490092 0.965676448 -0.660836964
v 0.206969002 0.94385319 -0.425277923
v 0.605501384 0.902934037 0.318660935
v 0.502368307 1.09824095 -0.248115651
v 0.275963092 1.03075962 0.157666565
v 0 1.38064965 0.738164528
v 0 1.46956004 0.286062648
v 0.791884112 1.21377036 0.203905056
v 0 1.25810206 0.199122654
v 0.418219185 1.28330832 -0.183301972
v 0.3315907 1.18678886 -0.214685048
v 0.418219185 1.28330832 -0.183301972
v 0.791884112 1.21377036 0.203905056
v 0.438148212 1.35517243 -0.159458568
v 0.213237503 1.19353267 -0.692852168
v 0.3315907 1.18678886 -0.214685048
v 0.418219185 1.28330832 -0.183301972
v 0.206969002 0.94385319 -0.425277923
v 0.502368307 1.09824095 -0.248115651
v 0.227573508 1.03764337 -0.631333374
v 0 1.46956004 0.286062648
v 0.438148212 1.35517243 -0.159458568
v 0.791884112 1.21377036 0.203905056
v 0.605501384 0.902934037 0.318660935
v 0.275963092 1.03075962 0.157666565
v 0.307514194 1.07890841 0.128748175
v 0.3315907 1.18678886 -0.214685048
v 0.605501384 0.902934037 0.318660935
v 0.307514194 1.07890841 0.128748175
v 0.275963092 1.03075962 0.157666565
v 0 1.13109409 0.0691067863
v 0.307514194 1.07890841 0.128748175
v 0 1.11296617 -0.696119056
v 0.227573508 1.03764337 -0.631333374
v 0.199210897 1.06275726 -0.763023653
v 0.502368307 1.09824095 -0.248115651
v 0.213237503 1.19353267 -0.692852168
v 0.227573508 1.03764337 -0.631333374
v 0 1.25810206 0.199122654
v 0.791884112 1.21377036 0.203905056
v 0.418219185 1.28330832 -0.183301972
v -0.0906353042 0.773832309 -0.22409026
v -0.327625197 0.474291885 -0.20319526
v -0.289631295 0.628149765 -0.34826393
v -0.0906353042 0.773832309 -0.22409026
v -0.289631295 0.628149765 -0.34826393
v -0.146251699 0.456449608 -0.35129915
v -0.0906353042 0.773832309 -0.22409026
v -0.146251699 0.456449608 -0.35129915
v -0.327625197 0.474291885 -0.20319526
v -0.803924108 0.489344714 -1.19022794
v -0.736185825 0.676332851 -1.16398844
v -0.757371306 0.563836599 -1.16688579
v -0.757371306 0.563836599 -1.16688579
v -0.736185825 0.676332851 -1.16398844
v -0.712709904 0.469249798 -1.23545844
v -0.476249218 0.102920977 -0.839945959
v -0.803924108 0.489344714 -1.19022794
v -0.656726021 0.0692152876 -0.688634657
v -0.712709904 0.469249798 -1.23545844
v -0.805168712 0.288430046 -1.48963393
v -1.04145091 -0.00767619857 -1.71029498
v -0.975518572 0.312386844 -1.40786639
v -0.909915268 0.413168628 -1.51086355
v -1.04145091 -0.00767619857 -1.71029498
v -0.805168712 0.288430046 -1.48963393
v -0.975518572 0.312386844 -1.40786639
v -1.04145091 -0.00767619857 -1.71029498
v -0.909915268 0.413168628 -1.51086355
v -0.146251699 0.456449608 -0.35129915
v -0.532335281 0.249347655 -0.617856266
v -0.327625197 0.474291885 -0.20319526
v -0.453249317 0.271816935 -0.697628978
v -0.289631295 0.628149765 -0.34826393
v -0.453249317 0.271816935 -0.697628978
v -0.146251699 0.456449608 -0.35129915
v -0.566340607 0.309084929 -0.770136381
v -0.327625197 0.474291885 -0.20319526
v -0.566340607 0.309084929 -0.770136381
v -0.289631295 0.628149765 -0.34826393
v -0.532335281 0.249347655 -0.617856266
v -0.805168712 0.288430046 -1.48963393
v -0.712709904 0.469249798 -1.23545844
v -0.736185825 0.676332851 -1.16398844
v -0.975518572 0.312386844 -1.40786639
v -0.909915268 0.413168628 -1.51086355
v -0.736185825 0.676332851 -1.16398844
v -0.712709904 0.469249798 -1.23545844
v -0.975518572 0.312386844 -1.40786639
v -0.803924108 0.489344714 -1.19022794
v -0.805168712 0.288430046 -1.48963393
v -0.656726021 0.0692152876 -0.688634657
v -0.757371306 0.563836599 -1.16688579
v -0.566340607 0.309084929 -0.770136381
v -0.803924108 0.489344714 -1.19022794
v -0.566340607 0.309084929 -0.770136381
v -0.712709904 0.469249798 -1.23545844
v -0.476249218 0.102920977 -0.839945959
v -0.757371306 0.563836599 -1.16688579
v -0.566340607 0.309084929 -0.770136381
v -0.476249218 0.102920977 -0.839945959
v -0.453249317 0.271816935 -0.697628978
v -0.532335281 0.249347655 -0.617856266
v -0.656726021 0.0692152876 -0.688634657
v -0.566340607 0.309084929 -0.770136381
v -0.453249317 0.271816935 -0.697628978
v -0.656726021 0.0692152876 -0.688634657
v -0.532335281 0.249347655 -0.617856266
v -0.476249218 0.102920977 -0.839945959
v -0.975518572 0.312386844 -1.40786639
v -0.736185825 0.676332851 -1.16398844
v -0.803924108 0.489344714 -1.19022794
v -0.909915268 0.413168628 -1.51086355
v -0.805168712 0.288430046 -1.48963393
v -0.736185825 0.676332851 -1.16398844
v -0.86523217 1.13054735 0.526415314
v -0.861230326 0.709776784 0.401093629
v -0.69387849 0.72594888 0.592470092
v -0.86523217 1.13054735 0.526415314
v -0.949713826 0.775121057 0.671786353
v -0.861230326 0.709776784 0.401093629
v -0.861230326 0.709776784 0.401093629
v -1.02361488 -0.0061683988 0.857403965
v -0.69387849 0.72594888 0.592470092
v -0.69387849 0.72594888 0.592470092
v -0.949713826 0.775121057 0.671786353
v -0.86523217 1.13054735 0.526415314
v -0.949713826 0.775121057 0.671786353
v -1.02361488 -0.0061683988 0.857403965
v -0.861230326 0.709776784 0.401093629
v -0.69387849 0.72594888 0.592470092
v -1.02361488 -0.0061683988 0.857403965
v -0.949713826 0.775121057 0.671786353
v -0.117894001 0.784846161 -0.142411473
v -0.0994804978 0.660152369 0.10480888
v -0.299474707 0.857441015 0.0946588774
v -0.117894001 0.784846161 -0.142411473
v -0.299474707 0.857441015 0.0946588774
v -0.292210793 0.658314877 -0.118241877
v -0.117894001 0.784846161 -0.142411473
v -0.292210793 0.658314877 -0.118241877
v -0.0994804978 0.660152369 0.10480888
v -0.370158589 0.326194337 0.317965846
v -0.684519506 0.90243002 0.389857226
v -0.394651598 0.463097498 0.20960516
v -0.673704505 0.668648264 0.523340186
v -0.394651598 0.463097498 0.20960516
v -0.77687192 0.616281297 0.391348916
v -0.483646792 0.317727127 0.181688472
v -0.684519506 0.90243002 0.389857226
v -0.483646792 0.317727127 0.181688472
v -0.673704505 0.668648264 0.523340186
v -0.370158589 0.326194337 0.317965846
v -0.77687192 0.616281297 0.391348916
v -0.900408626 0.787909314 0.595918977
v -0.77687192 0.616281297 0.391348916
v -0.684519506 0.90243002 0.389857226
v -0.292210793 0.658314877 -0.118241877
v -0.31239039 0.329886844 0.213193359
v -0.0994804978 0.660152369 0.10480888
v -0.37350108 0.330931928 0.140349271
v -0.299474707 0.857441015 0.0946588774
v -0.37350108 0.330931928 0.140349271
v -0.292210793 0.658314877 -0.118241877
v -0.394651598 0.463097498 0.20960516
v -0.0994804978 0.660152369 0.10480888
v -0.394651598 0.463097498 0.20960516
v -0.299474707 0.857441015 0.0946588774
v -0.31239039 0.329886844 0.213193359
v -0.37350108 0.330931928 0.140349271
v -0.370158589 0.326194337 0.317965846
v -0.31239039 0.329886844 0.213193359
v -0.483646792 0.317727127 0.181688472
v -0.31239039 0.329886844 0.213193359
v -0.370158589 0.326194337 0.317965846
v -0.394651598 0.463097498 0.20960516
v -0.394651598 0.463097498 0.20960516
v -0.483646792 0.317727127 0.181688472
v -0.37350108 0.330931928 0.140349271
v -0.673704505 0.668648264 0.523340186
v -0.77687192 0.616281297 0.391348916
v -0.900408626 0.787909314 0.595918977
v -0.900408626 0.787909314 0.595918977
v -0.684519506 0.90243002 0.389857226
v -0.673704505 0.668648264 0.523340186
v 0.0906353042 0.773832309 -0.22409026
v 0.289631295 0.628149765 -0.34826393
v 0.327625197 0.474291885 -0.20319526
v 0.0906353042 0.773832309 -0.22409026
v 0.146251699 0.456449608 -0.35129915
v 0.289631295 0.628149765 -0.34826393
v 0.0906353042 0.773832309 -0.22409026
v 0.327625197 0.474291885 -0.20319526
v 0.146251699 0.456449608 -0.35129915
v 0.803924108 0.489344714 -1.19022794
v 0.757371306 0.563836599 -1.16688579
v 0.736185825 0.676332851 -1.16398844
v 0.757371306 0.563836599 -1.16688579
v 0.712709904 0.469249798 -1.23545844
v 0.736185825 0.676332851 -1.16398844
v 0.476249218 0.102920977 -0.839945959
v 0.803924108 0.489344714 -1.19022794
v 0.712709904 0.469249798 -1.23545844
v 0.656726021 0.0692152876 -0.688634657
v 0.805168712 0.288430046 -1.48963393
v 0.975518572 0.312386844 -1.40786639
v 1.04145091 -0.00767619857 -1.71029498
v 0.909915268 0.413168628 -1.51086355
v 0.805168712 0.288430046 -1.48963393
v 1.04145091 -0.00767619857 -1.71029498
v 0.975518572 0.312386844 -1.40786639
v 0.909915268 0.413168628 -1.51086355
v 1.04145091 -0.00767619857 -1.71029498
v 0.146251699 0.456449608 -0.35129915
v 0.532335281 0.249347655 -0.617856266
v 0.453249317 0.271816935 -0.697628978
v 0.327625197 0.474291885 -0.20319526
v 0.289631295 0.628149765 -0.34826393
v 0.453249317 0.271816935 -0.697628978
v 0.566340607 0.309084929 -0.770136381
v 0.146251699 0.456449608 -0.35129915
v 0.327625197 0.474291885 -0.20319526
v 0.566340607 0.309084929 -0.770136381
v 0.532335281 0.249347655 -0.617856266
v 0.289631295 0.628149765 -0.34826393
v 0.805168712 0.288430046 -1.48963393
v 0.736185825 0.676332851 -1.16398844
v 0.712709904 0.469249798 -1.23545844
v 0.975518572 0.312386844 -1.40786639
v 0.736185825 0.676332851 -1.16398844
v 0.909915268 0.413168628 -1.51086355
v 0.712709904 0.469249798 -1.23545844
v 0.975518572 0.312386844 -1.40786639
v 0.805168712 0.288430046 -1.48963393
v 0.803924108 0.489344714 -1.19022794
v 0.656726021 0.0692152876 -0.688634657
v 0.757371306 0.563836599 -1.16688579
v 0.803924108 0.489344714 -1.19022794
v 0.566340607 0.309084929 -0.770136381
v 0.566340607 0.309084929 -0.770136381
v 0.712709904 0.469249798 -1.23545844
v 0.757371306 0.563836599 -1.16688579
v 0.476249218 0.102920977 -0.839945959
v 0.566340607 0.309084929 -0.770136381
v 0.453249317 0.271816935 -0.697628978
v 0.476249218 0.102920977 -0.839945959
v 0.532335281 0.249347655 -0.617856266
v 0.566340607 0.309084929 -0.770136381
v 0.656726021 0.0692152876 -0.688634657
v 0.453249317 0.271816935 -0.697628978
v 0.656726021 0.0692152876 -0.688634657
v 0.476249218 0.102920977 -0.839945959
v 0.532335281 0.249347655 -0.617856266
v 0.975518572 0.312386844 -1.40786639
v 0.803924108 0.489344714 -1.19022794
v 0.736185825 0.676332851 -1.16398844
v 0.909915268 0.413168628 -1.51086355
v 0.736185825 0.676332851 -1.16398844
v 0.805168712 0.288430046 -1.48963393
v 0.86523217 1.13054735 0.526415314
v 0.69387849 0.72594888 0.592470092
v 0.861230326 0.709776784 0.401093629
v 0.86523217 1.13054735 0.526415314
v 0.861230326 0.709776784 0.401093629
v 0.949713826 0.775121057 0.671786353
v 0.861230326 0.709776784 0.401093629
v 0.69387849 0.72594888 0.592470092
v 1.02361488 -0.0061683988 0.857403965
v 0.69387849 0.72594888 0.592470092
v 0.86523217 1.13054735 0.526415314
v 0.949713826 0.775121057 0.671786353
v 0.949713826 0.775121057 0.671786353
v 0.861230326 0.709776784 0.401093629
v 1.02361488 -0.0061683988 0.857403965
v 0.69387849 0.72594888 0.592470092
v 0.949713826 0.775121057 0.671786353
v 1.02361488 -0.0061683988 0.857403965
v 0.117894001 0.784846161 -0.142411473
v 0.299474707 0.857441015 0.0946588774
v 0.0994804978 0.660152369 0.10480888
v 0.117894001 0.784846161 -0.142411473
v 0.292210793 0.658314877 -0.118241877
v 0.299474707 0.857441015 0.0946588774
v 0.117894001 0.784846161 -0.142411473
v 0.0994804978 0.660152369 0.10480888
v 0.292210793 0.658314877 -0.118241877
v 0.370158589 0.326194337 0.317965846
v 0.684519506 0.90243002 0.389857226
v 0.673704505 0.668648264 0.523340186
v 0.394651598 0.463097498 0.20960516
v 0.394651598 0.463097498 0.20960516
v 0.77687192 0.616281297 0.391348916
v 0.684519506 0.90243002 0.389857226
v 0.483646792 0.317727127 0.181688472
v 0.483646792 0.317727127 0.181688472
v 0.673704505 0.668648264 0.523340186
v 0.77687192 0.616281297 0.391348916
v 0.370158589 0.326194337 0.317965846
v 0.900408626 0.787909314 0.595918977
v 0.684519506 0.90243002 0.389857226
v 0.77687192 0.616281297 0.391348916
v 0.292210793 0.658314877 -0.118241877
v 0.31239039 0.329886844 0.213193359
v 0.37350108 0.330931928 0.140349271
v 0.0994804978 0.660152369 0.10480888
v 0.299474707 0.857441015 0.0946588774
v 0.37350108 0.330931928 0.140349271
v 0.394651598 0.463097498 0.20960516
v 0.292210793 0.658314877 -0.118241877
v 0.0994804978 0.660152369 0.10480888
v 0.394651598 0.463097498 0.20960516
v 0.31239039 0.329886844 0.213193359
v 0.299474707 0.857441015 0.0946588774
v 0.37350108 0.330931928 0.140349271
v 0.370158589 0.326194337 0.317965846
v 0.483646792 0.317727127 0.181688472
v 0.31239039 0.329886844 0.213193359
v 0.31239039 0.329886844 0.213193359
v 0.394651598 0.463097498 0.20960516
v 0.370158589 0.326194337 0.317965846
v 0.394651598 0.463097498 0.20960516
v 0.37350108 0.330931928 0.140349271
v 0.483646792 0.317727127 0.181688472
v 0.673704505 0.668648264 0.523340186
v 0.900408626 0.787909314 0.595918977
v 0.77687192 0.616281297 0.391348916
v 0.900408626 0.787909314 0.595918977
v 0.673704505 0.668648264 0.523340186
v 0.684519506 0.90243002 0.389857226
vt 0.833299994 0.067381002
vt 0.901206017 0.173124
vt 0.90288198 0.054223001
vt 0.90288198 0.054223001
vt 0.901206017 0.173124
vt 0.963518977 0.0718450025
vt 0.963518977 0.0718450025
vt 0.901206017 0.173124
vt 0.90288198 0.054223001
vt 0.963518977 0.0718450025
vt 0.901206017 0.173124
vt 0.90288198 0.054223001
vt 0.833299994 0.067381002
vt 0.901206017 0.173124
vt 0.90288198 0.054223001
vt 0.90288198 0.054223001
vt 0.901206017 0.173124
vt 0.963518977 0.0718450025
vt 0.963518977 0.0718450025
vt 0.901206017 0.173124
vt 0.90288198 0.054223001
vt 0.833299994 0.067381002
vt 0.901206017 0.173124
vt 0.90288198 0.054223001
vt 0.90288198 0.054223001
vt 0.901206017 0.173124
vt 0.963518977 0.0718450025
vt 0.833299994 0.067381002
vt 0.901206017 0.173124
vt 0.90288198 0.054223001
vt 0.90288198 0.054223001
vt 0.901206017 0.173124
vt 0.963518977 0.0718450025
vt 0.963518977 0.0718450025
vt 0.901206017 0.173124
vt 0.90288198 0.054223001
vt 0.833299994 0.067381002
vt 0.901206017 0.173124
vt 0.90288198 0.054223001
vt 0.90288198 0.054223001
vt 0.901206017 0.173124
vt 0.963518977 0.0718450025
vt 0.963518977 0.0718450025
vt 0.901206017 0.173124
vt 0.90288198 0.054223001
vt 0.963518977 0.0718450025
vt 0.901206017 0.173124
vt 0.90288198 0.054223001
vt 0.833299994 0.067381002
vt 0.901206017 0.173124
vt 0.90288198 0.054223001
vt 0.90288198 0.054223001
vt 0.901206017 0.173124
vt 0.963518977 0.0718450025
vt 0.833299994 0.067381002
vt 0.901206017 0.173124
vt 0.90288198 0.054223001
vt 0.90288198 0.054223001
vt 0.901206017 0.173124
vt 0.963518977 0.0718450025
vt 0.963518977 0.0718450025
vt 0.901206017 0.173124
vt 0.90288198 0.054223001
vt 0.833299994 0.067381002
vt 0.90288198 0.054223001
vt 0.901206017 0.173124
vt 0.90288198 0.054223001
vt 0.963518977 0.0718450025
vt 0.901206017 0.173124
vt 0.963518977 0.0718450025
vt 0.90288198 0.054223001
vt 0.901206017 0.173124
vt 0.963518977 0.0718450025
vt 0.90288198 0.054223001
vt 0.901206017 0.173124
vt 0.833299994 0.067381002
vt 0.90288198 0.054223001
vt 0.901206017 0.173124
vt 0.90288198 0.054223001
vt 0.963518977 0.0718450025
vt 0.901206017 0.173124
vt 0.963518977 0.0718450025
vt 0.90288198 0.054223001
vt 0.901206017 0.173124
vt 0.833299994 0.067381002
vt 0.90288198 0.054223001
vt 0.901206017 0.173124
vt 0.90288198 0.054223001
vt 0.963518977 0.0718450025
vt 0.901206017 0.173124
vt 0.833299994 0.067381002
vt 0.90288198 0.054223001
vt 0.901206017 0.173124
vt 0.90288198 0.054223001
vt 0.963518977 0.0718450025
vt 0.901206017 0.173124
vt 0.963518977 0.0718450025
vt 0.90288198 0.054223001
vt 0.901206017 0.173124
vt 0.833299994 0.067381002
vt 0.90288198 0.054223001
vt 0.901206017 0.173124
vt 0.90288198 0.054223001
vt 0.963518977 0.0718450025
vt 0.901206017 0.173124
vt 0.963518977 0.0718450025
vt 0.90288198 0.054223001
vt 0.901206017 0.173124
vt 0.963518977 0.0718450025
vt 0.90288198 0.054223001
vt 0.901206017 0.173124
vt 0.833299994 0.067381002
vt 0.90288198 0.054223001
vt 0.901206017 0.173124
vt 0.90288198 0.054223001
vt 0.963518977 0.0718450025
vt 0.901206017 0.173124
vt 0.833299994 0.067381002
vt 0.90288198 0.054223001
vt 0.901206017 0.173124
vt 0.90288198 0.054223001
vt 0.963518977 0.0718450025
vt 0.901206017 0.173124
vt 0.963518977 0.0718450025
vt 0.90288198 0.054223001
vt 0.901206017 0.173124
vt 0.501762986 0.902813971
vt 0.54984802 0.959867001
vt 0.397774994 0.998699009
vt 0.545584977 0.836962998
vt 0.704846978 0.836962998
vt 0.501762986 0.902813971
vt 0.397774994 0.998699009
vt 0.190011993 0.908946991
vt 0.501762986 0.902813971
vt 0.190011993 0.908946991
vt 0.166041002 0.836962998
vt 0.195823997 0.836962998
vt 0.596571028 0.918429017
vt 0.501762986 0.902813971
vt 0.704846978 0.836962998
vt 0.190011993 0.908946991
vt 0.289054006 0.836962998
vt 0.501762986 0.902813971
vt 0.190011993 0.908946991
vt 0.195823997 0.836962998
vt 0.289054006 0.836962998
vt 0.501762986 0.902813971
vt 0.289054006 0.836962998
vt 0.545584977 0.836962998
vt 0.596571028 0.918429017
vt 0.54984802 0.959867001
vt 0.501762986 0.902813971
vt 0.501762986 0.902813971
vt 0.397774994 0.998699009
vt 0.54984802 0.959867001
vt 0.545584977 0.836962998
vt 0.501762986 0.902813971
vt 0.704846978 0.836962998
vt 0.397774994 0.998699009
vt 0.501762986 0.902813971
vt 0.190011993 0.908946991
vt 0.190011993 0.908946991
vt 0.195823997 0.836962998
vt 0.166041002 0.836962998
vt 0.596571028 0.918429017
vt 0.704846978 0.836962998
vt 0.501762986 0.902813971
vt 0.190011993 0.908946991
vt 0.501762986 0.902813971
vt 0.289054006 0.836962998
vt 0.190011993 0.908946991
vt 0.289054006 0.836962998
vt 0.195823997 0.836962998
vt 0.501762986 0.902813971
vt 0.545584977 0.836962998
vt 0.289054006 0.836962998
vt 0.596571028 0.918429017
vt 0.501762986 0.902813971
vt 0.54984802 0.959867001
vt 0.210117996 0.197520003
vt 0.171462998 0.164607003
vt 0.325024992 0.108216003
vt 0.563255012 0.158432007
vt 0.503630996 0.142492995
vt 0.548653007 0.149194002
vt 0.512380004 0.180694997
vt 0.503630996 0.142492995
vt 0.398838013 0.151463002
vt 0.37350601 0.00859699957
vt 0.427881002 0.0513640009
vt 0.216271996 0.00859699957
vt 0.37350601 0.00859699957
vt 0.325024992 0.108216003
vt 0.816029012 0.136847004
vt 0.803408027 0.211554006
vt 0.736604989 0.180427
vt 0.420183986 0.379188001
vt 0.407440007 0.354341
vt 0.564112008 0.245546997
vt 0.171462998 0.164607003
vt 0.216271996 0.00859699957
vt 0.325024992 0.108216003
vt 0.564112008 0.245546997
vt 0.70509398 0.153477997
vt 0.736604989 0.180427
vt 0.427881002 0.0513640009
vt 0.556784987 0.00506599993
vt 0.398838013 0.151463002
vt 0.54540199 0.536701977
vt 0.420183986 0.379188001
vt 0.568062007 0.414754003
vt 0.325024992 0.108216003
vt 0.37350601 0.00859699957
vt 0.398838013 0.151463002
vt 0.398838013 0.151463002
vt 0.583822012 0.04789
vt 0.503630996 0.142492995
vt 0.556784987 0.00506599993
vt 0.583822012 0.04789
vt 0.564112008 0.245546997
vt 0.568062007 0.414754003
vt 0.420183986 0.379188001
vt 0.564112008 0.245546997
vt 0.574588001 0.193270996
vt 0.70509398 0.153477997
vt 0.512380004 0.180694997
vt 0.321927011 0.453691989
vt 0.309493005 0.418646991
vt 0.409460008 0.313003004
vt 0.736604989 0.180427
vt 0.729812026 0.0995009989
vt 0.816029012 0.136847004
vt 0.70509398 0.153477997
vt 0.729812026 0.0995009989
vt 0.574588001 0.193270996
vt 0.563255012 0.158432007
vt 0.70509398 0.153477997
vt 0.564112008 0.245546997
vt 0.679077983 0.270886987
vt 0.568062007 0.414754003
vt 0.503630996 0.142492995
vt 0.635914028 0.0307999998
vt 0.548653007 0.149194002
vt 0.503630996 0.142492995
vt 0.583822012 0.04789
vt 0.354054004 0.697094977
vt 0.32475999 0.502663016
vt 0.499835014 0.670953989
vt 0.635914028 0.0307999998
vt 0.583822012 0.04789
vt 0.556784987 0.00506599993
vt 0.253316998 0.410488009
vt 0.309493005 0.418646991
vt 0.299291998 0.457055002
vt 0.409460008 0.313003004
vt 0.309493005 0.418646991
vt 0.273514003 0.374529004
vt 0.564112008 0.245546997
vt 0.803408027 0.211554006
vt 0.679077983 0.270886987
vt 0.736604989 0.180427
vt 0.165313005 0.362459004
vt 0.374119014 0.269859999
vt 0.409460008 0.313003004
vt 0.231748 0.279790014
vt 0.210117996 0.197520003
vt 0.374119014 0.269859999
vt 0.374119014 0.269859999
vt 0.564112008 0.245546997
vt 0.409460008 0.313003004
vt 0.210117996 0.197520003
vt 0.325024992 0.108216003
vt 0.398838013 0.151463002
vt 0.210117996 0.197520003
vt 0.398838013 0.151463002
vt 0.374119014 0.269859999
vt 0.512380004 0.180694997
vt 0.398838013 0.151463002
vt 0.503630996 0.142492995
vt 0.165313005 0.362459004
vt 0.231748 0.279790014
vt 0.374119014 0.269859999
vt 0.499835014 0.670953989
vt 0.32475999 0.502663016
vt 0.54540199 0.536701977
vt 0.321927011 0.453691989
vt 0.409460008 0.313003004
vt 0.407440007 0.354341
vt 0.407440007 0.354341
vt 0.420183986 0.379188001
vt 0.32475999 0.502663016
vt 0.564112008 0.245546997
vt 0.407440007 0.354341
vt 0.409460008 0.313003004
vt 0.398838013 0.151463002
vt 0.512380004 0.180694997
vt 0.374119014 0.269859999
vt 0.54540199 0.536701977
vt 0.32475999 0.502663016
vt 0.420183986 0.379188001
vt 0.165313005 0.362459004
vt 0.273514003 0.374529004
vt 0.253316998 0.410488009
vt 0.409460008 0.313003004
vt 0.273514003 0.374529004
vt 0.165313005 0.362459004
vt 0.253316998 0.410488009
vt 0.273514003 0.374529004
vt 0.309493005 0.418646991
vt 0.563255012 0.158432007
vt 0.574588001 0.193270996
vt 0.512380004 0.180694997
vt 0.374119014 0.269859999
vt 0.512380004 0.180694997
vt 0.564112008 0.245546997
vt 0.354054004 0.697094977
vt 0.236626998 0.614592016
vt 0.32475999 0.502663016
vt 0.210117996 0.197520003
vt 0.325024992 0.108216003
vt 0.171462998 0.164607003
vt 0.563255012 0.158432007
vt 0.503630996 0.142492995
vt 0.512380004 0.180694997
vt 0.548653007 0.149194002
vt 0.503630996 0.142492995
vt 0.398838013 0.151463002
vt 0.427881002 0.0513640009
vt 0.37350601 0.00859699957
vt 0.216271996 0.00859699957
vt 0.325024992 0.108216003
vt 0.37350601 0.00859699957
vt 0.816029012 0.136847004
vt 0.736604989 0.180427
vt 0.803408027 0.211554006
vt 0.420183986 0.379188001
vt 0.564112008 0.245546997
vt 0.407440007 0.354341
vt 0.171462998 0.164607003
vt 0.325024992 0.108216003
vt 0.216271996 0.00859699957
vt 0.564112008 0.245546997
vt 0.736604989 0.180427
vt 0.70509398 0.153477997
vt 0.427881002 0.0513640009
vt 0.398838013 0.151463002
vt 0.556784987 0.00506599993
vt 0.54540199 0.536701977
vt 0.568062007 0.414754003
vt 0.420183986 0.379188001
vt 0.325024992 0.108216003
vt 0.398838013 0.151463002
vt 0.37350601 0.00859699957
vt 0.398838013 0.151463002
vt 0.583822012 0.04789
vt 0.556784987 0.00506599993
vt 0.503630996 0.142492995
vt 0.583822012 0.04789
vt 0.564112008 0.245546997
vt 0.420183986 0.379188001
vt 0.568062007 0.414754003
vt 0.564112008 0.245546997
vt 0.70509398 0.153477997
vt 0.574588001 0.193270996
vt 0.512380004 0.180694997
vt 0.321927011 0.453691989
vt 0.409460008 0.313003004
vt 0.309493005 0.418646991
vt 0.736604989 0.180427
vt 0.729812026 0.0995009989
vt 0.70509398 0.153477997
vt 0.816029012 0.136847004
vt 0.729812026 0.0995009989
vt 0.574588001 0.193270996
vt 0.70509398 0.153477997
vt 0.563255012 0.158432007
vt 0.564112008 0.245546997
vt 0.568062007 0.414754003
vt 0.679077983 0.270886987
vt 0.503630996 0.142492995
vt 0.635914028 0.0307999998
vt 0.583822012 0.04789
vt 0.503630996 0.142492995
vt 0.548653007 0.149194002
vt 0.354054004 0.697094977
vt 0.499835014 0.670953989
vt 0.32475999 0.502663016
vt 0.635914028 0.0307999998
vt 0.556784987 0.00506599993
vt 0.583822012 0.04789
vt 0.253316998 0.410488009
vt 0.299291998 0.457055002
vt 0.309493005 0.418646991
vt 0.409460008 0.313003004
vt 0.273514003 0.374529004
vt 0.309493005 0.418646991
vt 0.564112008 0.245546997
vt 0.803408027 0.211554006
vt 0.736604989 0.180427
vt 0.679077983 0.270886987
vt 0.165313005 0.362459004
vt 0.409460008 0.313003004
vt 0.374119014 0.269859999
vt 0.231748 0.279790014
vt 0.374119014 0.269859999
vt 0.210117996 0.197520003
vt 0.374119014 0.269859999
vt 0.409460008 0.313003004
vt 0.564112008 0.245546997
vt 0.210117996 0.197520003
vt 0.398838013 0.151463002
vt 0.325024992 0.108216003
vt 0.210117996 0.197520003
vt 0.374119014 0.269859999
vt 0.398838013 0.151463002
vt 0.512380004 0.180694997
vt 0.503630996 0.142492995
vt 0.398838013 0.151463002
vt 0.165313005 0.362459004
vt 0.374119014 0.269859999
vt 0.231748 0.279790014
vt 0.499835014 0.670953989
vt 0.54540199 0.536701977
vt 0.32475999 0.502663016
vt 0.321927011 0.453691989
vt 0.407440007 0.354341
vt 0.409460008 0.313003004
vt 0.407440007 0.354341
vt 0.32475999 0.502663016
vt 0.420183986 0.379188001
vt 0.564112008 0.245546997
vt 0.409460008 0.313003004
vt 0.407440007 0.354341
vt 0.398838013 0.151463002
vt 0.374119014 0.269859999
vt 0.512380004 0.180694997
vt 0.54540199 0.536701977
vt 0.420183986 0.379188001
vt 0.32475999 0.502663016
vt 0.165313005 0.362459004
vt 0.253316998 0.410488009
vt 0.273514003 0.374529004
vt 0.409460008 0.313003004
vt 0.165313005 0.362459004
vt 0.273514003 0.374529004
vt 0.253316998 0.410488009
vt 0.309493005 0.418646991
vt 0.273514003 0.374529004
vt 0.563255012 0.158432007
vt 0.512380004 0.180694997
vt 0.574588001 0.193270996
vt 0.374119014 0.269859999
vt 0.564112008 0.245546997
vt 0.512380004 0.180694997
vt 0.354054004 0.697094977
vt 0.32475999 0.502663016
vt 0.236626998 0.614592016
vt 0.0838039964 0.99180299
vt 0.0838039964 0.885468006
vt 0.0067619998 0.885468006
vt 0.0838039964 0.99180299
vt 0.0067619998 0.885468006
vt 0.0838039964 0.885468006
vt 0.0838039964 0.99180299
vt 0.149939999 0.885468006
vt 0.0838039964 0.885468006
vt 0.0838039964 0.403414011
vt 0.00667400006 0.413987994
vt 0.00668000011 0.434753001
vt 0.00668000011 0.434753001
vt 0.00667400006 0.413987994
vt 0.0838039964 0.403414011
vt 0.172285005 0.64548099
vt 0.0838039964 0.403414011
vt 0.0838039964 0.64548099
vt 0.149939999 0.403679013
vt 0.149939999 0.232876003
vt 0.0838039964 0.0588969998
vt 0.0838039964 0.232877001
vt 0.00673200004 0.200441003
vt 0.0838039964 0.0588969998
vt 0.0838039964 0.232877001
vt 0.0838039964 0.232877001
vt 0.0838039964 0.0588969998
vt 0.00673200004 0.200441003
vt 0.149939999 0.885468006
vt 0.0838039964 0.697651029
vt 0.0838039964 0.885468006
vt 0.149939999 0.700734019
vt 0.0067619998 0.885468006
vt 0.0838039964 0.697651029
vt 0.0838039964 0.885468006
vt 0.00675099995 0.631681025
vt 0.0838039964 0.885468006
vt 0.00675099995 0.631681025
vt 0.0067619998 0.885468006
vt 0.0838039964 0.697651029
vt 0.0838039964 0.232877001
vt 0.0838039964 0.403414011
vt 0.00667400006 0.413987994
vt 0.0838039964 0.232877001
vt 0.00673200004 0.200441003
vt 0.00667400006 0.413987994
vt 0.149939999 0.403679013
vt 0.0838039964 0.232877001
vt 0.0838039964 0.403414011
vt 0.149939999 0.232876003
vt 0.0838039964 0.64548099
vt 0.00668000011 0.434753001
vt 0.00675099995 0.631681025
vt 0.0838039964 0.403414011
vt 0.00675099995 0.631681025
vt 0.0838039964 0.403414011
vt 0.0838039964 0.64548099
vt 0.00668000011 0.434753001
vt 0.00675099995 0.631681025
vt 0.0838039964 0.64548099
vt 0.0838039964 0.697651029
vt 0.0838039964 0.697651029
vt 0.0838039964 0.64548099
vt 0.00675099995 0.631681025
vt 0.149939999 0.700734019
vt 0.0838039964 0.64548099
vt 0.0838039964 0.697651029
vt 0.172285005 0.64548099
vt 0.0838039964 0.232877001
vt 0.00667400006 0.413987994
vt 0.0838039964 0.403414011
vt 0.00673200004 0.200441003
vt 0.0838039964 0.232877001
vt 0.00667400006 0.413987994
vt 0.751682997 0.867879987
vt 0.783918023 0.669897974
vt 0.660730004 0.682076991
vt 0.465824991 0.788312018
vt 0.541716993 0.626860976
vt 0.660730004 0.682076991
vt 0.783918023 0.669897974
vt 0.678003013 0.301250994
vt 0.660730004 0.682076991
vt 0.660730004 0.682076991
vt 0.541716993 0.626860976
vt 0.465824991 0.788312018
vt 0.541716993 0.626860976
vt 0.678003013 0.301250994
vt 0.660730004 0.682076991
vt 0.660730004 0.682076991
vt 0.678003013 0.301250994
vt 0.541716993 0.626860976
vt 0.895359993 0.99832201
vt 0.897413015 0.902521014
vt 0.775255978 0.902522027
vt 0.895359993 0.99832201
vt 0.775255978 0.902522027
vt 0.897413015 0.902521014
vt 0.895359993 0.99832201
vt 0.997843027 0.902522027
vt 0.897413015 0.902521014
vt 0.895359993 0.683146
vt 0.786922991 0.445978999
vt 0.80219698 0.714444995
vt 0.896525025 0.445978999
vt 0.80219698 0.714444995
vt 0.896525025 0.445978999
vt 0.895359993 0.683146
vt 0.786922991 0.445978999
vt 0.975320995 0.683146
vt 0.896525025 0.445978999
vt 0.895359993 0.683146
vt 0.986060023 0.445978999
vt 0.895359993 0.35255
vt 0.896525025 0.445978999
vt 0.786922991 0.445978999
vt 0.997843027 0.902522027
vt 0.895359993 0.714444995
vt 0.897413015 0.902521014
vt 0.975320995 0.714444995
vt 0.775255978 0.902522027
vt 0.895359993 0.714444995
vt 0.897413015 0.902521014
vt 0.80219698 0.714444995
vt 0.897413015 0.902521014
vt 0.80219698 0.714444995
vt 0.775255978 0.902522027
vt 0.895359993 0.714444995
vt 0.975320995 0.714444995
vt 0.895359993 0.683146
vt 0.895359993 0.714444995
vt 0.975320995 0.683146
vt 0.895359993 0.714444995
vt 0.895359993 0.683146
vt 0.80219698 0.714444995
vt 0.80219698 0.714444995
vt 0.895359993 0.683146
vt 0.895359993 0.714444995
vt 0.896525025 0.445978999
vt 0.986060023 0.445978999
vt 0.895359993 0.35255
vt 0.895359993 0.35255
vt 0.786922991 0.445978999
vt 0.896525025 0.445978999
vt 0.0838039964 0.99180299
vt 0.0067619998 0.885468006
vt 0.0838039964 0.885468006
vt 0.0838039964 0.99180299
vt 0.0838039964 0.885468006
vt 0.0067619998 0.885468006
vt 0.0838039964 0.99180299
vt 0.0838039964 0.885468006
vt 0.149939999 0.885468006
vt 0.0838039964 0.403414011
vt 0.00668000011 0.434753001
vt 0.00667400006 0.413987994
vt 0.00668000011 0.434753001
vt 0.0838039964 0.403414011
vt 0.00667400006 0.413987994
vt 0.172285005 0.64548099
vt 0.0838039964 0.403414011
vt 0.149939999 0.403679013
vt 0.0838039964 0.64548099
vt 0.149939999 0.232876003
vt 0.0838039964 0.232877001
vt 0.0838039964 0.0588969998
vt 0.00673200004 0.200441003
vt 0.0838039964 0.232877001
vt 0.0838039964 0.0588969998
vt 0.0838039964 0.232877001
vt 0.00673200004 0.200441003
vt 0.0838039964 0.0588969998
vt 0.149939999 0.885468006
vt 0.0838039964 0.697651029
vt 0.149939999 0.700734019
vt 0.0838039964 0.885468006
vt 0.0067619998 0.885468006
vt 0.0838039964 0.697651029
vt 0.00675099995 0.631681025
vt 0.0838039964 0.885468006
vt 0.0838039964 0.885468006
vt 0.00675099995 0.631681025
vt 0.0838039964 0.697651029
vt 0.0067619998 0.885468006
vt 0.0838039964 0.232877001
vt 0.00667400006 0.413987994
vt 0.0838039964 0.403414011
vt 0.0838039964 0.232877001
vt 0.00667400006 0.413987994
vt 0.00673200004 0.200441003
vt 0.149939999 0.403679013
vt 0.0838039964 0.232877001
vt 0.149939999 0.232876003
vt 0.0838039964 0.403414011
vt 0.0838039964 0.64548099
vt 0.00668000011 0.434753001
vt 0.0838039964 0.403414011
vt 0.00675099995 0.631681025
vt 0.00675099995 0.631681025
vt 0.0838039964 0.403414011
vt 0.00668000011 0.434753001
vt 0.0838039964 0.64548099
vt 0.00675099995 0.631681025
vt 0.0838039964 0.697651029
vt 0.0838039964 0.64548099
vt 0.0838039964 0.697651029
vt 0.00675099995 0.631681025
vt 0.0838039964 0.64548099
vt 0.149939999 0.700734019
vt 0.0838039964 0.64548099
vt 0.172285005 0.64548099
vt 0.0838039964 0.697651029
vt 0.0838039964 0.232877001
vt 0.0838039964 0.403414011
vt 0.00667400006 0.413987994
vt 0.00673200004 0.200441003
vt 0.00667400006 0.413987994
vt 0.0838039964 0.232877001
vt 0.751682997 0.867879987
vt 0.660730004 0.682076991
vt 0.783918023 0.669897974
vt 0.465824991 0.788312018
vt 0.660730004 0.682076991
vt 0.541716993 0.626860976
vt 0.783918023 0.669897974
vt 0.660730004 0.682076991
vt 0.678003013 0.301250994
vt 0.660730004 0.682076991
vt 0.465824991 0.788312018
vt 0.541716993 0.626860976
vt 0.541716993 0.626860976
vt 0.660730004 0.682076991
vt 0.678003013 0.301250994
vt 0.660730004 0.682076991
vt 0.541716993 0.626860976
vt 0.678003013 0.301250994
vt 0.895359993 0.99832201
vt 0.775255978 0.902522027
vt 0.897413015 0.902521014
vt 0.895359993 0.99832201
vt 0.897413015 0.902521014
vt 0.775255978 0.902522027
vt 0.895359993 0.99832201
vt 0.897413015 0.902521014
vt 0.997843027 0.902522027
vt 0.895359993 0.683146
vt 0.786922991 0.445978999
vt 0.896525025 0.445978999
vt 0.80219698 0.714444995
vt 0.80219698 0.714444995
vt 0.896525025 0.445978999
vt 0.786922991 0.445978999
vt 0.895359993 0.683146
vt 0.975320995 0.683146
vt 0.896525025 0.445978999
vt 0.986060023 0.445978999
vt 0.895359993 0.683146
vt 0.895359993 0.35255
vt 0.786922991 0.445978999
vt 0.896525025 0.445978999
vt 0.997843027 0.902522027
vt 0.895359993 0.714444995
vt 0.975320995 0.714444995
vt 0.897413015 0.902521014
vt 0.775255978 0.902522027
vt 0.895359993 0.714444995
vt 0.80219698 0.714444995
vt 0.897413015 0.902521014
vt 0.897413015 0.902521014
vt 0.80219698 0.714444995
vt 0.895359993 0.714444995
vt 0.775255978 0.902522027
vt 0.975320995 0.714444995
vt 0.895359993 0.683146
vt 0.975320995 0.683146
vt 0.895359993 0.714444995
vt 0.895359993 0.714444995
vt 0.80219698 0.714444995
vt 0.895359993 0.683146
vt 0.80219698 0.714444995
vt 0.895359993 0.714444995
vt 0.895359993 0.683146
vt 0.896525025 0.445978999
vt 0.895359993 0.35255
vt 0.986060023 0.445978999
vt 0.895359993 0.35255
vt 0.896525025 0.445978999
vt 0.786922991 0.445978999
vn -0.900031974 -0.420755246 -0.113611042
vn -0.900031974 -0.420755246 -0.113611042
vn -0.900031974 -0.420755246 -0.113611042
vn 0.803314911 -0.30349597 -0.512421067
vn 0.803314911 -0.30349597 -0.512421067
vn 0.803314911 -0.30349597 -0.512421067
vn 0.311897706 0.198838503 0.929076461
vn 0.311897706 0.198838503 0.929076461
vn 0.311897706 0.198838503 0.929076461
vn 0.886985556 -0.128988237 -0.443417025
vn 0.886985556 -0.128988237 -0.443417025
vn 0.886985556 -0.128988237 -0.443417025
vn -0.939063216 -0.0459803521 -0.340655374
vn -0.939063216 -0.0459803521 -0.340655374
vn -0.939063216 -0.0459803521 -0.340655374
vn 0.23504677 0.863766666 0.445713094
vn 0.23504677 0.863766666 0.445713094
vn 0.23504677 0.863766666 0.445713094
vn 0.947674093 0.00622921256 -0.319178649
vn 0.947674093 0.00622921256 -0.319178649
vn 0.947674093 0.00622921256 -0.319178649
vn -0.922335309 0.0442876926 -0.383843951
vn -0.922335309 0.0442876926 -0.383843951
vn -0.922335309 0.0442876926 -0.383843951
vn 0.100233406 0.897370238 0.429744017
vn 0.100233406 0.897370238 0.429744017
vn 0.100233406 0.897370238 0.429744017
vn -0.92209009 -0.366438837 -0.124388282
vn -0.92209009 -0.366438837 -0.124388282
vn -0.92209009 -0.366438837 -0.124388282
vn 0.818472784 -0.262966191 -0.510833715
vn 0.818472784 -0.262966191 -0.510833715
vn 0.818472784 -0.262966191 -0.510833715
vn 0.279215486 -0.0472245444 0.959066502
vn 0.279215486 -0.0472245444 0.959066502
vn 0.279215486 -0.0472245444 0.959066502
vn -0.92377531 -0.361866174 -0.125267907
vn -0.92377531 -0.361866174 -0.125267907
vn -0.92377531 -0.361866174 -0.125267907
vn 0.815372922 -0.270317376 -0.511952649
vn 0.815372922 -0.270317376 -0.511952649
vn 0.815372922 -0.270317376 -0.511952649
vn 0.316648676 0.254907125 0.913649809
vn 0.316648676 0.254907125 0.913649809
vn 0.316648676 0.254907125 0.913649809
vn 0.973126729 0.22883652 0.025655725
vn 0.973126729 0.22883652 0.025655725
vn 0.973126729 0.22883652 0.025655725
vn -0.586786124 -0.287390958 -0.757026078
vn -0.586786124 -0.287390958 -0.757026078
vn -0.586786124 -0.287390958 -0.757026078
vn -0.470855126 0.67384844 0.569406472
vn -0.470855126 0.67384844 0.569406472
vn -0.470855126 0.67384844 0.569406472
vn -0.523605426 -0.527553444 -0.668972886
vn -0.523605426 -0.527553444 -0.668972886
vn -0.523605426 -0.527553444 -0.668972886
vn 0.992741187 0.0450190734 0.11152676
vn 0.992741187 0.0450190734 0.11152676
vn 0.992741187 0.0450190734 0.11152676
vn -0.375701173 -0.0299020302 0.926258332
vn -0.375701173 -0.0299020302 0.926258332
vn -0.375701173 -0.0299020302 0.926258332
vn 0.900031974 -0.420755246 -0.113611042
vn 0.900031974 -0.420755246 -0.113611042
vn 0.900031974 -0.420755246 -0.113611042
vn -0.803314911 -0.30349597 -0.512421067
vn -0.803314911 -0.30349597 -0.512421067
vn -0.803314911 -0.30349597 -0.512421067
vn -0.311897706 0.198838503 0.929076461
vn -0.311897706 0.198838503 0.929076461
vn -0.311897706 0.198838503 0.929076461
vn -0.886985556 -0.128988237 -0.443417025
vn -0.886985556 -0.128988237 -0.443417025
vn -0.886985556 -0.128988237 -0.443417025
vn 0.939063216 -0.0459803521 -0.340655374
vn 0.939063216 -0.0459803521 -0.340655374
vn 0.939063216 -0.0459803521 -0.340655374
vn -0.23504677 0.863766666 0.445713094
vn -0.23504677 0.863766666 0.445713094
vn -0.23504677 0.863766666 0.445713094
vn -0.947674093 0.00622921256 -0.319178649
vn -0.947674093 0.00622921256 -0.319178649
vn -0.947674093 0.00622921256 -0.319178649
vn 0.922335309 0.0442876926 -0.383843951
vn 0.922335309 0.0442876926 -0.383843951
vn 0.922335309 0.0442876926 -0.383843951
vn -0.100233406 0.897370238 0.429744017
vn -0.100233406 0.897370238 0.429744017
vn -0.100233406 0.897370238 0.429744017
vn 0.92209009 -0.366438837 -0.124388282
vn 0.92209009 -0.366438837 -0.124388282
vn 0.92209009 -0.366438837 -0.124388282
vn -0.818472784 -0.262966191 -0.510833715
vn -0.818472784 -0.262966191 -0.510833715
vn -0.818472784 -0.262966191 -0.510833715
vn -0.279215486 -0.0472245444 0.959066502
vn -0.279215486 -0.0472245444 0.959066502
vn -0.279215486 -0.0472245444 0.959066502
vn 0.92377531 -0.361866174 -0.125267907
vn 0.92377531 -0.361866174 -0.125267907
vn 0.92377531 -0.361866174 -0.125267907
vn -0.815372922 -0.270317376 -0.511952649
vn -0.815372922 -0.270317376 -0.511952649
vn -0.815372922 -0.270317376 -0.511952649
vn -0.316648676 0.254907125 0.913649809
vn -0.316648676 0.254907125 0.913649809
vn -0.316648676 0.254907125 0.913649809
vn -0.973126729 0.22883652 0.025655725
vn -0.973126729 0.22883652 0.025655725
vn -0.973126729 0.22883652 0.025655725
vn 0.586786124 -0.287390958 -0.757026078
vn 0.586786124 -0.287390958 -0.757026078
vn 0.586786124 -0.287390958 -0.757026078
vn 0.470855126 0.67384844 0.569406472
vn 0.470855126 0.67384844 0.569406472
vn 0.470855126 0.67384844 0.569406472
vn 0.523605426 -0.527553444 -0.668972886
vn 0.523605426 -0.527553444 -0.668972886
vn 0.523605426 -0.527553444 -0.668972886
vn -0.992741187 0.0450190734 0.11152676
vn -0.992741187 0.0450190734 0.11152676
vn -0.992741187 0.0450190734 0.11152676
vn 0.375701173 -0.0299020302 0.926258332
vn 0.375701173 -0.0299020302 0.926258332
vn 0.375701173 -0.0299020302 0.926258332
vn -0.47377682 -0.147932379 0.868131059
vn -0.47377682 -0.147932379 0.868131059
vn -0.47377682 -0.147932379 0.868131059
vn -0.65857558 0.746741708 -0.0930323958
vn -0.65857558 0.746741708 -0.0930323958
vn -0.65857558 0.746741708 -0.0930323958
vn -0.608317739 0.701784318 -0.370740205
vn -0.608317739 0.701784318 -0.370740205
vn -0.608317739 0.701784318 -0.370740205
vn -0.565144999 0.579597809 -0.58709242
vn -0.565144999 0.579597809 -0.58709242
vn -0.565144999 0.579597809 -0.58709242
vn -0.609814923 -0.671101595 0.421602192
vn -0.609814923 -0.671101595 0.421602192
vn -0.609814923 -0.671101595 0.421602192
vn -0.397036942 0.807469288 -0.436296935
vn -0.397036942 0.807469288 -0.436296935
vn -0.397036942 0.807469288 -0.436296935
vn -0.598116499 0.769043823 -0.22545122
vn -0.598116499 0.769043823 -0.22545122
vn -0.598116499 0.769043823 -0.22545122
vn -0.488601145 0.753288377 -0.440256223
vn -0.488601145 0.753288377 -0.440256223
vn -0.488601145 0.753288377 -0.440256223
vn -0.674115293 -0.570709312 0.468891728
vn -0.674115293 -0.570709312 0.468891728
vn -0.674115293 -0.570709312 0.468891728
vn 0.47377682 -0.147932379 0.868131059
vn 0.47377682 -0.147932379 0.868131059
vn 0.47377682 -0.147932379 0.868131059
vn 0.65857558 0.746741708 -0.0930323958
vn 0.65857558 0.746741708 -0.0930323958
vn 0.65857558 0.746741708 -0.0930323958
vn 0.608317739 0.701784318 -0.370740205
vn 0.608317739 0.701784318 -0.370740205
vn 0.608317739 0.701784318 -0.370740205
vn 0.565144999 0.579597809 -0.58709242
vn 0.565144999 0.579597809 -0.58709242
vn 0.565144999 0.579597809 -0.58709242
vn 0.609814923 -0.671101595 0.421602192
vn 0.609814923 -0.671101595 0.421602192
vn 0.609814923 -0.671101595 0.421602192
vn 0.397036942 0.807469288 -0.436296935
vn 0.397036942 0.807469288 -0.436296935
vn 0.397036942 0.807469288 -0.436296935
vn 0.598116499 0.769043823 -0.22545122
vn 0.598116499 0.769043823 -0.22545122
vn 0.598116499 0.769043823 -0.22545122
vn 0.488601145 0.753288377 -0.440256223
vn 0.488601145 0.753288377 -0.440256223
vn 0.488601145 0.753288377 -0.440256223
vn 0.674115293 -0.570709312 0.468891728
vn 0.674115293 -0.570709312 0.468891728
vn 0.674115293 -0.570709312 0.468891728
vn -0.752928407 0.525869994 0.395676084
vn -0.752928407 0.525869994 0.395676084
vn -0.752928407 0.525869994 0.395676084
vn 0.132928017 -0.399155234 -0.907196363
vn 0.369273277 -0.661513086 -0.652715623
vn 0.369273277 -0.661513086 -0.652715623
vn -0.340390372 0.248413708 -0.906876521
vn -0.340390372 0.248413708 -0.906876521
vn -0.61603246 -0.272255152 -0.739175988
vn -0.61603246 -0.272255152 -0.739175988
vn -0.61603246 -0.272255152 -0.739175988
vn -0.520249092 -0.822558729 -0.229647599
vn -0.520249092 -0.822558729 -0.229647599
vn -0.520249092 -0.822558729 -0.229647599
vn -0.688674343 0.45651208 -0.563315516
vn -0.688674343 0.45651208 -0.563315516
vn -0.688674343 0.45651208 -0.563315516
vn -0.926785408 -0.141590458 -0.347880655
vn -0.926785408 -0.141590458 -0.347880655
vn -0.926785408 -0.141590458 -0.347880655
vn -0.704798489 -0.419902906 0.571787232
vn -0.704798489 -0.419902906 0.571787232
vn -0.704798489 -0.419902906 0.571787232
vn -0.918464461 0.276746879 -0.282549462
vn -0.918464461 0.276746879 -0.282549462
vn -0.918464461 0.276746879 -0.282549462
vn -0.4624336 -0.865071643 0.194438208
vn -0.4624336 -0.865071643 0.194438208
vn -0.4624336 -0.865071643 0.194438208
vn -0.200863552 0.978151704 -0.0536011017
vn -0.200863552 0.978151704 -0.0536011017
vn -0.200863552 0.978151704 -0.0536011017
vn -0.572163136 -0.233229161 -0.786278261
vn -0.572163136 -0.233229161 -0.786278261
vn -0.572163136 -0.233229161 -0.786278261
vn -0.775155125 -0.631679233 -0.0107647124
vn -0.867014944 -0.49390201 -0.0659233789
vn -0.867014944 -0.49390201 -0.0659233789
vn -0.699140503 -0.714475482 0.0269692811
vn -0.699140503 -0.714475482 0.0269692811
vn -0.143107006 0.928809383 -0.34180918
vn -0.143107006 0.928809383 -0.34180918
vn -0.143107006 0.928809383 -0.34180918
vn -0.98203027 -0.0040883313 -0.188679184
vn -0.98203027 -0.0040883313 -0.188679184
vn -0.983634797 -0.00894344294 -0.179951662
vn -0.977845803 0.00736979098 -0.209196731
vn -0.583343072 -0.581011903 0.567570285
vn -0.583343072 -0.581011903 0.567570285
vn -0.583343072 -0.581011903 0.567570285
vn -0.692868154 -0.391451209 -0.605557324
vn -0.692868154 -0.391451209 -0.605557324
vn -0.783324891 -0.473271985 -0.403008366
vn -0.502133193 -0.24097001 -0.83053941
vn 0.00902900815 -0.977191222 0.212169253
vn 0.00902900815 -0.977191222 0.212169253
vn 0.148815841 -0.951104038 0.270656525
vn -0.308804125 -0.949193221 0.0605990192
vn -0.415682515 0.881085355 -0.225602846
vn -0.415682515 0.881085355 -0.225602846
vn -0.415682515 0.881085355 -0.225602846
vn 0.0286004633 0.891138377 -0.452829335
vn 0.00460308659 0.885675813 -0.464281344
vn 0.0286004633 0.891138377 -0.452829335
vn -0.0962452056 0.855580767 -0.508643698
vn -0.0962452056 0.855580767 -0.508643698
vn 0.0558411544 -0.973596459 0.221340689
vn 0.0558411544 -0.973596459 0.221340689
vn 0.0558411544 -0.973596459 0.221340689
vn -0.537890663 -0.659329827 -0.52531687
vn -0.537890663 -0.659329827 -0.52531687
vn -0.537890663 -0.659329827 -0.52531687
vn 0.331951401 -0.0836969669 0.939576014
vn 0.331951401 -0.0836969669 0.939576014
vn 0.331951401 -0.0836969669 0.939576014
vn -0.101635456 0.947038351 0.304612206
vn -0.101635456 0.947038351 0.304612206
vn -0.101635456 0.947038351 0.304612206
vn -0.507491834 0.824723927 -0.249564585
vn -0.507491834 0.824723927 -0.249564585
vn -0.398001947 0.892483376 -0.212291954
vn -0.630924529 0.719745765 -0.289655437
vn -0.481899777 0.851713944 0.205805641
vn -0.481899777 0.851713944 0.205805641
vn -0.481899777 0.851713944 0.205805641
vn -0.173657378 -0.982557849 -0.0665070586
vn -0.173657378 -0.982557849 -0.0665070586
vn -0.173657378 -0.982557849 -0.0665070586
vn -0.443081627 0.891207201 -0.0970999304
vn -0.443081627 0.891207201 -0.0970999304
vn -0.443081627 0.891207201 -0.0970999304
vn -0.675564711 0.702233071 0.224679851
vn -0.675564711 0.702233071 0.224679851
vn -0.675564711 0.702233071 0.224679851
vn -0.338479566 -0.912274787 0.230621545
vn -0.338479566 -0.912274787 0.230621545
vn -0.338479566 -0.912274787 0.230621545
vn -0.945506481 -0.321460761 -0.0517732874
vn -0.945506481 -0.321460761 -0.0517732874
vn -0.945506481 -0.321460761 -0.0517732874
vn 0.224846745 -0.933108677 -0.280628112
vn 0.224846745 -0.933108677 -0.280628112
vn 0.224846745 -0.933108677 -0.280628112
vn -0.31932191 0.92983608 0.182861645
vn -0.31932191 0.92983608 0.182861645
vn -0.31932191 0.92983608 0.182861645
vn -0.532192997 -0.652901154 0.538971889
vn -0.532192997 -0.652901154 0.538971889
vn -0.532192997 -0.652901154 0.538971889
vn -0.721886634 0.0292038404 -0.691394839
vn -0.721886634 0.0292038404 -0.691394839
vn -0.721886634 0.0292038404 -0.691394839
vn -0.7606037 -0.618610528 -0.196984837
vn -0.7606037 -0.618610528 -0.196984837
vn -0.7606037 -0.618610528 -0.196984837
vn -0.574357905 -0.76518927 -0.290858005
vn -0.574357905 -0.76518927 -0.290858005
vn -0.574357905 -0.76518927 -0.290858005
vn -0.312773985 0.947649401 0.0642887765
vn -0.312773985 0.947649401 0.0642887765
vn -0.312773985 0.947649401 0.0642887765
vn 0.1620927 0.583959034 0.795435606
vn 0.1620927 0.583959034 0.795435606
vn 0.1620927 0.583959034 0.795435606
vn -0.333480717 0.892489881 0.303730842
vn -0.333480717 0.892489881 0.303730842
vn -0.333480717 0.892489881 0.303730842
vn 0.0691145863 0.546539973 0.834576079
vn 0.0691145863 0.546539973 0.834576079
vn 0.0691145863 0.546539973 0.834576079
vn 0.280656251 -0.952134226 -0.121130033
vn 0.280656251 -0.952134226 -0.121130033
vn 0.280656251 -0.952134226 -0.121130033
vn -0.814718714 -0.146483716 -0.561048962
vn -0.814718714 -0.146483716 -0.561048962
vn -0.814718714 -0.146483716 -0.561048962
vn 0.0547025423 -0.990632818 -0.125116952
vn 0.0547025423 -0.990632818 -0.125116952
vn 0.0547025423 -0.990632818 -0.125116952
vn 0.752928407 0.525869994 0.395676084
vn 0.752928407 0.525869994 0.395676084
vn 0.752928407 0.525869994 0.395676084
vn -0.132928017 -0.399155234 -0.907196363
vn 0.340390372 0.248413708 -0.906876521
vn 0.340390372 0.248413708 -0.906876521
vn -0.369273277 -0.661513086 -0.652715623
vn -0.369273277 -0.661513086 -0.652715623
vn 0.61603246 -0.272255152 -0.739175988
vn 0.61603246 -0.272255152 -0.739175988
vn 0.61603246 -0.272255152 -0.739175988
vn 0.520249092 -0.822558729 -0.229647599
vn 0.520249092 -0.822558729 -0.229647599
vn 0.520249092 -0.822558729 -0.229647599
vn 0.688674343 0.45651208 -0.563315516
vn 0.688674343 0.45651208 -0.563315516
vn 0.688674343 0.45651208 -0.563315516
vn 0.926785408 -0.141590458 -0.347880655
vn 0.926785408 -0.141590458 -0.347880655
vn 0.926785408 -0.141590458 -0.347880655
vn 0.704798489 -0.419902906 0.571787232
vn 0.704798489 -0.419902906 0.571787232
vn 0.704798489 -0.419902906 0.571787232
vn 0.918464461 0.276746879 -0.282549462
vn 0.918464461 0.276746879 -0.282549462
vn 0.918464461 0.276746879 -0.282549462
vn 0.4624336 -0.865071643 0.194438208
vn 0.4624336 -0.865071643 0.194438208
vn 0.4624336 -0.865071643 0.194438208
vn 0.200863552 0.978151704 -0.0536011017
vn 0.200863552 0.978151704 -0.0536011017
vn 0.200863552 0.978151704 -0.0536011017
vn 0.572163136 -0.233229161 -0.786278261
vn 0.572163136 -0.233229161 -0.786278261
vn 0.572163136 -0.233229161 -0.786278261
vn 0.775155125 -0.631679233 -0.0107647124
vn 0.699140503 -0.714475482 0.0269692811
vn 0.699140503 -0.714475482 0.0269692811
vn 0.867014944 -0.49390201 -0.0659233789
vn 0.867014944 -0.49390201 -0.0659233789
vn 0.143107006 0.928809383 -0.34180918
vn 0.143107006 0.928809383 -0.34180918
vn 0.143107006 0.928809383 -0.34180918
vn 0.98203027 -0.0040883313 -0.188679184
vn 0.983634797 -0.00894344294 -0.179951662
vn 0.98203027 -0.0040883313 -0.188679184
vn 0.977845803 0.00736979098 -0.209196731
vn 0.583343072 -0.581011903 0.567570285
vn 0.583343072 -0.581011903 0.567570285
vn 0.583343072 -0.581011903 0.567570285
vn 0.692868154 -0.391451209 -0.605557324
vn 0.692868154 -0.391451209 -0.605557324
vn 0.502133193 -0.24097001 -0.83053941
vn 0.783324891 -0.473271985 -0.403008366
vn -0.00902900815 -0.977191222 0.212169253
vn -0.00902900815 -0.977191222 0.212169253
vn 0.308804125 -0.949193221 0.0605990192
vn -0.148815841 -0.951104038 0.270656525
vn 0.415682515 0.881085355 -0.225602846
vn 0.415682515 0.881085355 -0.225602846
vn 0.415682515 0.881085355 -0.225602846
vn 0.0962452056 0.855580767 -0.508643698
vn -0.00460308659 0.885675813 -0.464281344
vn 0.0962452056 0.855580767 -0.508643698
vn -0.0286004633 0.891138377 -0.452829335
vn -0.0286004633 0.891138377 -0.452829335
vn -0.0558411544 -0.973596459 0.221340689
vn -0.0558411544 -0.973596459 0.221340689
vn -0.0558411544 -0.973596459 0.221340689
vn 0.537890663 -0.659329827 -0.52531687
vn 0.537890663 -0.659329827 -0.52531687
vn 0.537890663 -0.659329827 -0.52531687
vn -0.331951401 -0.0836969669 0.939576014
vn -0.331951401 -0.0836969669 0.939576014
vn -0.331951401 -0.0836969669 0.939576014
vn 0.101635456 0.947038351 0.304612206
vn 0.101635456 0.947038351 0.304612206
vn 0.101635456 0.947038351 0.304612206
vn 0.507491834 0.824723927 -0.249564585
vn 0.507491834 0.824723927 -0.249564585
vn 0.630924529 0.719745765 -0.289655437
vn 0.398001947 0.892483376 -0.212291954
vn 0.481899777 0.851713944 0.205805641
vn 0.481899777 0.851713944 0.205805641
vn 0.481899777 0.851713944 0.205805641
vn 0.173657378 -0.982557849 -0.0665070586
vn 0.173657378 -0.982557849 -0.0665070586
vn 0.173657378 -0.982557849 -0.0665070586
vn 0.443081627 0.891207201 -0.0970999304
vn 0.443081627 0.891207201 -0.0970999304
vn 0.443081627 0.891207201 -0.0970999304
vn 0.675564711 0.702233071 0.224679851
vn 0.675564711 0.702233071 0.224679851
vn 0.675564711 0.702233071 0.224679851
vn 0.338479566 -0.912274787 0.230621545
vn 0.338479566 -0.912274787 0.230621545
vn 0.338479566 -0.912274787 0.230621545
vn 0.945506481 -0.321460761 -0.0517732874
vn 0.945506481 -0.321460761 -0.0517732874
vn 0.945506481 -0.321460761 -0.0517732874
vn -0.224846745 -0.933108677 -0.280628112
vn -0.224846745 -0.933108677 -0.280628112
vn -0.224846745 -0.933108677 -0.280628112
vn 0.31932191 0.92983608 0.182861645
vn 0.31932191 0.92983608 0.182861645
vn 0.31932191 0.92983608 0.182861645
vn 0.532192997 -0.652901154 0.538971889
vn 0.532192997 -0.652901154 0.538971889
vn 0.532192997 -0.652901154 0.538971889
vn 0.721886634 0.0292038404 -0.691394839
vn 0.721886634 0.0292038404 -0.691394839
vn 0.721886634 0.0292038404 -0.691394839
vn 0.7606037 -0.618610528 -0.196984837
vn 0.7606037 -0.618610528 -0.196984837
vn 0.7606037 -0.618610528 -0.196984837
vn 0.574357905 -0.76518927 -0.290858005
vn 0.574357905 -0.76518927 -0.290858005
vn 0.574357905 -0.76518927 -0.290858005
vn 0.312773985 0.947649401 0.0642887765
vn 0.312773985 0.947649401 0.0642887765
vn 0.312773985 0.947649401 0.0642887765
vn -0.1620927 0.583959034 0.795435606
vn -0.1620927 0.583959034 0.795435606
vn -0.1620927 0.583959034 0.795435606
vn 0.333480717 0.892489881 0.303730842
vn 0.333480717 0.892489881 0.303730842
vn 0.333480717 0.892489881 0.303730842
vn -0.0691145863 0.546539973 0.834576079
vn -0.0691145863 0.546539973 0.834576079
vn -0.0691145863 0.546539973 0.834576079
vn -0.280656251 -0.952134226 -0.121130033
vn -0.280656251 -0.952134226 -0.121130033
vn -0.280656251 -0.952134226 -0.121130033
vn 0.814718714 -0.146483716 -0.561048962
vn 0.814718714 -0.146483716 -0.561048962
vn 0.814718714 -0.146483716 -0.561048962
vn -0.0547025423 -0.990632818 -0.125116952
vn -0.0547025423 -0.990632818 -0.125116952
vn -0.0547025423 -0.990632818 -0.125116952
vn -0.692511518 0.578011378 0.431660333
vn -0.692511518 0.578011378 0.431660333
vn -0.692511518 0.578011378 0.431660333
vn 0.338431758 0.298386025 -0.892429115
vn 0.338431758 0.298386025 -0.892429115
vn 0.338431758 0.298386025 -0.892429115
vn 0.55874019 -0.391045496 0.731363672
vn 0.55874019 -0.391045496 0.731363672
vn 0.55874019 -0.391045496 0.731363672
vn -0.548238507 0.0818089822 0.832311138
vn -0.548238507 0.0818089822 0.832311138
vn -0.548238507 0.0818089822 0.832311138
vn 0.718414976 -0.152771289 0.678631605
vn 0.718414976 -0.152771289 0.678631605
vn 0.718414976 -0.152771289 0.678631605
vn -0.345244359 -0.773954934 -0.530848464
vn -0.345244359 -0.773954934 -0.530848464
vn -0.318783985 -0.770585066 -0.551883527
vn -0.408038389 -0.778422522 -0.477035691
vn 0.230450727 -0.692973499 0.68313995
vn 0.230450727 -0.692973499 0.68313995
vn 0.230450727 -0.692973499 0.68313995
vn 0.472078433 0.252678238 -0.844568328
vn 0.472078433 0.252678238 -0.844568328
vn 0.472078433 0.252678238 -0.844568328
vn -0.902636195 0.378883967 -0.204193143
vn -0.902636195 0.378883967 -0.204193143
vn -0.902636195 0.378883967 -0.204193143
vn 0.280331805 -0.911187339 0.301913419
vn 0.280331805 -0.911187339 0.301913419
vn 0.22074875 -0.898841249 0.378621708
vn 0.394398901 -0.908972377 0.134976754
vn 0.551275264 0.441166556 -0.708143808
vn 0.551275264 0.441166556 -0.708143808
vn 0.531144379 0.456158192 -0.714006549
vn 0.584015925 0.415526432 -0.697325737
vn -0.886460878 0.381430443 0.262102896
vn -0.886460878 0.381430443 0.262102896
vn -0.867052039 0.43799464 0.2374478
vn -0.913984672 0.264362921 0.307805565
vn 0.831251551 0.263218954 -0.489629085
vn 0.831251551 0.263218954 -0.489629085
vn 0.831251551 0.263218954 -0.489629085
vn -0.836535279 0.547903168 0.00329310711
vn -0.836535279 0.547903168 0.00329310711
vn -0.836535279 0.547903168 0.00329310711
vn 0.12937773 -0.823638621 0.552160144
vn 0.12937773 -0.823638621 0.552160144
vn 0.106621846 -0.810956729 0.575309452
vn 0.141958746 -0.830255373 0.539002533
vn -0.704918687 0.413664151 0.57616978
vn -0.704918687 0.413664151 0.57616978
vn -0.65456392 0.452440317 0.605676345
vn -0.791327597 0.334080168 0.512045969
vn 0.883525587 0.452136583 -0.122290833
vn 0.883525587 0.452136583 -0.122290833
vn 0.891382319 0.433896218 -0.131040579
vn 0.867491371 0.486125847 -0.105548013
vn 0.580358117 0.477086969 -0.659979151
vn 0.580358117 0.477086969 -0.659979151
vn 0.580358117 0.477086969 -0.659979151
vn -0.828698138 0.432830666 0.354847869
vn -0.828698138 0.432830666 0.354847869
vn -0.828698138 0.432830666 0.354847869
vn 0.606257427 -0.584957547 0.538773237
vn 0.606257427 -0.584957547 0.538773237
vn 0.637515815 -0.619963221 0.457404843
vn 0.589138421 -0.566085486 0.57659617
vn -0.847738169 0.240780821 0.472614635
vn -0.847738169 0.240780821 0.472614635
vn -0.847738169 0.240780821 0.472614635
vn 0.637298243 0.425848694 -0.642264618
vn 0.637298243 0.425848694 -0.642264618
vn 0.637298243 0.425848694 -0.642264618
vn 0.728772194 0.201818711 -0.654339589
vn 0.728772194 0.201818711 -0.654339589
vn 0.728772194 0.201818711 -0.654339589
vn -0.940193721 0.0889905356 -0.328810661
vn -0.940193721 0.0889905356 -0.328810661
vn -0.940193721 0.0889905356 -0.328810661
vn 0.672319095 -0.500258526 -0.545644978
vn 0.672319095 -0.500258526 -0.545644978
vn 0.672319095 -0.500258526 -0.545644978
vn 0.333632657 0.287853878 0.897680007
vn 0.333632657 0.287853878 0.897680007
vn 0.333632657 0.287853878 0.897680007
vn -0.94930882 0.0151995018 -0.31397729
vn -0.94930882 0.0151995018 -0.31397729
vn -0.94930882 0.0151995018 -0.31397729
vn 0.323814483 0.189589624 0.926930394
vn 0.323814483 0.189589624 0.926930394
vn 0.323814483 0.189589624 0.926930394
vn 0.662842583 0.687225652 0.29725513
vn 0.662842583 0.687225652 0.29725513
vn 0.662842583 0.687225652 0.29725513
vn -0.526131908 0.612052599 -0.590403956
vn -0.526131908 0.612052599 -0.590403956
vn -0.526131908 0.612052599 -0.590403956
vn 0.494026411 -0.760941337 -0.420602172
vn 0.494026411 -0.760941337 -0.420602172
vn 0.494026411 -0.760941337 -0.420602172
vn 0.800727083 0.378950127 0.463932042
vn 0.800727083 0.378950127 0.463932042
vn 0.843424127 0.418018762 0.337484897
vn 0.76184139 0.34740733 0.546722821
vn -0.352485872 0.20406133 -0.913297697
vn -0.352485872 0.20406133 -0.913297697
vn -0.285896645 0.346589283 -0.893386242
vn -0.386674281 0.120029697 -0.914371846
vn -0.433161832 -0.738148491 0.517211399
vn -0.433161832 -0.738148491 0.517211399
vn -0.504916793 -0.7268007 0.465639103
vn -0.350483418 -0.743856893 0.56906792
vn -0.733308929 0.233341097 -0.63859999
vn -0.733308929 0.233341097 -0.63859999
vn -0.733308929 0.233341097 -0.63859999
vn 0.621762226 -0.574927796 -0.531855021
vn 0.621762226 -0.574927796 -0.531855021
vn 0.621315663 -0.575166492 -0.53211874
vn 0.623164082 -0.574176555 -0.531025244
vn -0.96560815 0.115550785 -0.232913967
vn -0.96560815 0.115550785 -0.232913967
vn -0.980734951 0.124852379 -0.150235946
vn -0.893769403 0.0874871342 -0.439911645
vn 0.199499486 0.210162565 0.957095424
vn 0.199499486 0.210162565 0.957095424
vn 0.182624794 0.234254809 0.954867985
vn 0.228876049 0.167168934 0.958994422
vn 0.0759237317 -0.99672001 -0.0280144235
vn 0.0759237317 -0.99672001 -0.0280144235
vn 0.0150229498 -0.999524076 -0.0269431506
vn 0.108415648 -0.993695737 -0.0285452083
vn 0.760336908 0.481278014 0.436187184
vn 0.760336908 0.481278014 0.436187184
vn 0.760336908 0.481278014 0.436187184
vn -0.364360425 0.385826543 -0.847572628
vn -0.364360425 0.385826543 -0.847572628
vn -0.364360425 0.385826543 -0.847572628
vn -0.258932064 -0.811246319 0.524245739
vn -0.258932064 -0.811246319 0.524245739
vn -0.258932064 -0.811246319 0.524245739
vn 0.478724159 0.45192767 0.752718116
vn 0.478724159 0.45192767 0.752718116
vn 0.478724159 0.45192767 0.752718116
vn 0.692511518 0.578011378 0.431660333
vn 0.692511518 0.578011378 0.431660333
vn 0.692511518 0.578011378 0.431660333
vn -0.338431758 0.298386025 -0.892429115
vn -0.338431758 0.298386025 -0.892429115
vn -0.338431758 0.298386025 -0.892429115
vn -0.55874019 -0.391045496 0.731363672
vn -0.55874019 -0.391045496 0.731363672
vn -0.55874019 -0.391045496 0.731363672
vn 0.548238507 0.0818089822 0.832311138
vn 0.548238507 0.0818089822 0.832311138
vn 0.548238507 0.0818089822 0.832311138
vn -0.718414976 -0.152771289 0.678631605
vn -0.718414976 -0.152771289 0.678631605
vn -0.718414976 -0.152771289 0.678631605
vn 0.345244359 -0.773954934 -0.530848464
vn 0.345244359 -0.773954934 -0.530848464
vn 0.408038389 -0.778422522 -0.477035691
vn 0.318783985 -0.770585066 -0.551883527
vn -0.230450727 -0.692973499 0.68313995
vn -0.230450727 -0.692973499 0.68313995
vn -0.230450727 -0.692973499 0.68313995
vn -0.472078433 0.252678238 -0.844568328
vn -0.472078433 0.252678238 -0.844568328
vn -0.472078433 0.252678238 -0.844568328
vn 0.902636195 0.378883967 -0.204193143
vn 0.902636195 0.378883967 -0.204193143
vn 0.902636195 0.378883967 -0.204193143
vn -0.280331805 -0.911187339 0.301913419
vn -0.280331805 -0.911187339 0.301913419
vn -0.394398901 -0.908972377 0.134976754
vn -0.22074875 -0.898841249 0.378621708
vn -0.551275264 0.441166556 -0.708143808
vn -0.551275264 0.441166556 -0.708143808
vn -0.584015925 0.415526432 -0.697325737
vn -0.531144379 0.456158192 -0.714006549
vn 0.886460878 0.381430443 0.262102896
vn 0.886460878 0.381430443 0.262102896
vn 0.913984672 0.264362921 0.307805565
vn 0.867052039 0.43799464 0.2374478
vn -0.831251551 0.263218954 -0.489629085
vn -0.831251551 0.263218954 -0.489629085
vn -0.831251551 0.263218954 -0.489629085
vn 0.836535279 0.547903168 0.00329310711
vn 0.836535279 0.547903168 0.00329310711
vn 0.836535279 0.547903168 0.00329310711
vn -0.12937773 -0.823638621 0.552160144
vn -0.12937773 -0.823638621 0.552160144
vn -0.141958746 -0.830255373 0.539002533
vn -0.106621846 -0.810956729 0.575309452
vn 0.704918687 0.413664151 0.57616978
vn 0.704918687 0.413664151 0.57616978
vn 0.791327597 0.334080168 0.512045969
vn 0.65456392 0.452440317 0.605676345
vn -0.883525587 0.452136583 -0.122290833
vn -0.883525587 0.452136583 -0.122290833
vn -0.867491371 0.486125847 -0.105548013
vn -0.891382319 0.433896218 -0.131040579
vn -0.580358117 0.477086969 -0.659979151
vn -0.580358117 0.477086969 -0.659979151
vn -0.580358117 0.477086969 -0.659979151
vn 0.828698138 0.432830666 0.354847869
vn 0.828698138 0.432830666 0.354847869
vn 0.828698138 0.432830666 0.354847869
vn -0.606257427 -0.584957547 0.538773237
vn -0.606257427 -0.584957547 0.538773237
vn -0.589138421 -0.566085486 0.57659617
vn -0.637515815 -0.619963221 0.457404843
vn 0.847738169 0.240780821 0.472614635
vn 0.847738169 0.240780821 0.472614635
vn 0.847738169 0.240780821 0.472614635
vn -0.637298243 0.425848694 -0.642264618
vn -0.637298243 0.425848694 -0.642264618
vn -0.637298243 0.425848694 -0.642264618
vn -0.728772194 0.201818711 -0.654339589
vn -0.728772194 0.201818711 -0.654339589
vn -0.728772194 0.201818711 -0.654339589
vn 0.940193721 0.0889905356 -0.328810661
vn 0.940193721 0.0889905356 -0.328810661
vn 0.940193721 0.0889905356 -0.328810661
vn -0.672319095 -0.500258526 -0.545644978
vn -0.672319095 -0.500258526 -0.545644978
vn -0.672319095 -0.500258526 -0.545644978
vn -0.333632657 0.287853878 0.897680007
vn -0.333632657 0.287853878 0.897680007
vn -0.333632657 0.287853878 0.897680007
vn 0.94930882 0.0151995018 -0.31397729
vn 0.94930882 0.0151995018 -0.31397729
vn 0.94930882 0.0151995018 -0.31397729
vn -0.323814483 0.189589624 0.926930394
vn -0.323814483 0.189589624 0.926930394
vn -0.323814483 0.189589624 0.926930394
vn -0.662842583 0.687225652 0.29725513
vn -0.662842583 0.687225652 0.29725513
vn -0.662842583 0.687225652 0.29725513
vn 0.526131908 0.612052599 -0.590403956
vn 0.526131908 0.612052599 -0.590403956
vn 0.526131908 0.612052599 -0.590403956
vn -0.494026411 -0.760941337 -0.420602172
vn -0.494026411 -0.760941337 -0.420602172
vn -0.494026411 -0.760941337 -0.420602172
vn -0.800727083 0.378950127 0.463932042
vn -0.800727083 0.378950127 0.463932042
vn -0.76184139 0.34740733 0.546722821
vn -0.843424127 0.418018762 0.337484897
vn 0.352485872 0.20406133 -0.913297697
vn 0.352485872 0.20406133 -0.913297697
vn 0.386674281 0.120029697 -0.914371846
vn 0.285896645 0.346589283 -0.893386242
vn 0.433161832 -0.738148491 0.517211399
vn 0.433161832 -0.738148491 0.517211399
vn 0.350483418 -0.743856893 0.56906792
vn 0.504916793 -0.7268007 0.465639103
vn 0.733308929 0.233341097 -0.63859999
vn 0.733308929 0.233341097 -0.63859999
vn 0.733308929 0.233341097 -0.63859999
vn -0.621762226 -0.574927796 -0.531855021
vn -0.621762226 -0.574927796 -0.531855021
vn -0.623164082 -0.574176555 -0.531025244
vn -0.621315663 -0.575166492 -0.53211874
vn 0.96560815 0.115550785 -0.232913967
vn 0.96560815 0.115550785 -0.232913967
vn 0.893769403 0.0874871342 -0.439911645
vn 0.980734951 0.124852379 -0.150235946
vn -0.199499486 0.210162565 0.957095424
vn -0.199499486 0.210162565 0.957095424
vn -0.228876049 0.167168934 0.958994422
vn -0.182624794 0.234254809 0.954867985
vn -0.0759237317 -0.99672001 -0.0280144235
vn -0.0759237317 -0.99672001 -0.0280144235
vn -0.108415648 -0.993695737 -0.0285452083
vn -0.0150229498 -0.999524076 -0.0269431506
vn -0.760336908 0.481278014 0.436187184
vn -0.760336908 0.481278014 0.436187184
vn -0.760336908 0.481278014 0.436187184
vn 0.364360425 0.385826543 -0.847572628
vn 0.364360425 0.385826543 -0.847572628
vn 0.364360425 0.385826543 -0.847572628
vn 0.258932064 -0.811246319 0.524245739
vn 0.258932064 -0.811246319 0.524245739
vn 0.258932064 -0.811246319 0.524245739
vn -0.478724159 0.45192767 0.752718116
vn -0.478724159 0.45192767 0.752718116
vn -0.478724159 0.45192767 0.752718116

g bug01_submesh_0
usemtl bug01
f 1/1/1 3/3/3 2/2/2
f 4/4/4 6/6/6 5/5/5
f 7/7/7 9/9/9 8/8/8
f 10/10/10 12/12/12 11/11/11
f 13/13/13 15/15/15 14/14/14
f 16/16/16 18/18/18 17/17/17
f 19/19/19 21/21/21 20/20/20
f 22/22/22 24/24/24 23/23/23
f 25/25/25 27/27/27 26/26/26
f 28/28/28 30/30/30 29/29/29
f 31/31/31 33/33/33 32/32/32
f 34/34/34 36/36/36 35/35/35
f 37/37/37 39/39/39 38/38/38
f 40/40/40 42/42/42 41/41/41
f 43/43/43 45/45/45 44/44/44
f 46/46/46 48/48/48 47/47/47
f 49/49/49 51/51/51 50/50/50
f 52/52/52 54/54/54 53/53/53
f 55/55/55 57/57/57 56/56/56
f 58/58/58 60/60/60 59/59/59
f 61/61/61 63/63/63 62/62/62
f 64/64/64 66/66/66 65/65/65
f 67/67/67 69/69/69 68/68/68
f 70/70/70 72/72/72 71/71/71
f 73/73/73 75/75/75 74/74/74
f 76/76/76 78/78/78 77/77/77
f 79/79/79 81/81/81 80/80/80
f 82/82/82 84/84/84 83/83/83
f 85/85/85 87/87/87 86/86/86
f 88/88/88 90/90/90 89/89/89
f 91/91/91 93/93/93 92/92/92
f 94/94/94 96/96/96 95/95/95
f 97/97/97 99/99/99 98/98/98
f 100/100/100 102/102/102 101/101/101
f 103/103/103 105/105/105 104/104/104
f 106/106/106 108/108/108 107/107/107
f 109/109/109 111/111/111 110/110/110
f 112/112/112 114/114/114 113/113/113
f 115/115/115 117/117/117 116/116/116
f 118/118/118 120/120/120 119/119/119
f 121/121/121 123/123/123 122/122/122
f 124/124/124 126/126/126 125/125/125
f 127/127/127 129/129/129 128/128/128
f 130/130/130 132/132/132 131/131/131
f 133/133/133 135/135/135 134/134/134
f 136/136/136 138/138/138 137/137/137
f 139/139/139 141/141/141 140/140/140
f 142/142/142 144/144/144 143/143/143
f 145/145/145 147/147/147 146/146/146
f 148/148/148 150/150/150 149/149/149
f 151/151/151 153/153/153 152/152/152
f 154/154/154 156/156/156 155/155/155
f 157/157/157 159/159/159 158/158/158
f 160/160/160 162/162/162 161/161/161
f 163/163/163 165/165/165 164/164/164
f 166/166/166 168/168/168 167/167/167
f 169/169/169 171/171/171 170/170/170
f 172/172/172 174/174/174 173/173/173
f 175/175/175 177/177/177 176/176/176
f 178/178/178 180/180/180 179/179/179
f 181/181/181 183/183/183 182/182/182
f 184/184/184 186/186/186 185/185/185
f 184/184/184 188/188/188 187/187/187
f 189/189/189 191/191/191 190/190/190
f 192/192/192 194/194/194 193/193/193
f 195/195/195 197/197/197 196/196/196
f 198/198/198 200/200/200 199/199/199
f 201/201/201 203/203/203 202/202/202
f 204/204/204 206/206/206 205/205/205
f 207/207/207 209/209/209 208/208/208
f 210/210/210 212/212/212 211/211/211
f 213/213/213 215/215/215 214/214/214
f 216/216/216 218/218/218 217/217/217
f 216/216/216 220/220/220 219/219/219
f 221/221/221 223/223/223 222/222/222
f 224/224/224 226/226/226 225/225/225
f 225/225/225 227/227/227 224/224/224
f 228/228/228 230/230/230 229/229/229
f 231/231/231 233/233/233 232/232/232
f 231/231/231 232/232/232 234/234/234
f 235/235/235 237/237/237 236/236/236
f 235/235/235 236/236/236 238/238/238
f 239/239/239 241/241/241 240/240/240
f 242/242/242 244/244/244 243/243/243
f 245/245/245 243/243/243 246/246/246
f 247/247/247 249/249/249 248/248/248
f 250/250/250 252/252/252 251/251/251
f 253/253/253 255/255/255 254/254/254
f 256/256/256 258/258/258 257/257/257
f 259/259/259 261/261/261 260/260/260
f 259/259/259 260/260/260 262/262/262
f 263/263/263 265/265/265 264/264/264
f 266/266/266 268/268/268 267/267/267
f 269/269/269 271/271/271 270/270/270
f 272/272/272 274/274/274 273/273/273
f 275/275/275 277/277/277 276/276/276
f 278/278/278 280/280/280 279/279/279
f 281/281/281 283/283/283 282/282/282
f 284/284/284 286/286/286 285/285/285
f 287/287/287 289/289/289 288/288/288
f 290/290/290 292/292/292 291/291/291
f 293/293/293 295/295/295 294/294/294
f 296/296/296 298/298/298 297/297/297
f 299/299/299 301/301/301 300/300/300
f 302/302/302 304/304/304 303/303/303
f 305/305/305 307/307/307 306/306/306
f 308/308/308 310/310/310 309/309/309
f 311/311/311 313/313/313 312/312/312
f 314/314/314 316/316/316 315/315/315
f 317/317/317 319/319/319 318/318/318
f 320/320/320 322/322/322 321/321/321
f 323/323/323 325/325/325 324/324/324
f 323/323/323 327/327/327 326/326/326
f 328/328/328 330/330/330 329/329/329
f 331/331/331 333/333/333 332/332/332
f 334/334/334 336/336/336 335/335/335
f 337/337/337 339/339/339 338/338/338
f 340/340/340 342/342/342 341/341/341
f 343/343/343 345/345/345 344/344/344
f 346/346/346 348/348/348 347/347/347
f 349/349/349 351/351/351 350/350/350
f 352/352/352 354/354/354 353/353/353
f 355/355/355 357/357/357 356/356/356
f 355/355/355 359/359/359 358/358/358
f 360/360/360 362/362/362 361/361/361
f 363/363/363 365/365/365 364/364/364
f 365/365/365 363/363/363 366/366/366
f 367/367/367 369/369/369 368/368/368
f 370/370/370 372/372/372 371/371/371
f 370/370/370 371/371/371 373/373/373
f 374/374/374 376/376/376 375/375/375
f 374/374/374 375/375/375 377/377/377
f 378/378/378 380/380/380 379/379/379
f 381/381/381 383/383/383 382/382/382
f 384/384/384 382/382/382 385/385/385
f 386/386/386 388/388/388 387/387/387
f 389/389/389 391/391/391 390/390/390
f 392/392/392 394/394/394 393/393/393
f 395/395/395 397/397/397 396/396/396
f 398/398/398 400/400/400 399/399/399
f 398/398/398 399/399/399 401/401/401
f 402/402/402 404/404/404 403/403/403
f 405/405/405 407/407/407 406/406/406
f 408/408/408 410/410/410 409/409/409
f 411/411/411 413/413/413 412/412/412
f 414/414/414 416/416/416 415/415/415
f 417/417/417 419/419/419 418/418/418
f 420/420/420 422/422/422 421/421/421
f 423/423/423 425/425/425 424/424/424
f 426/426/426 428/428/428 427/427/427
f 429/429/429 431/431/431 430/430/430
f 432/432/432 434/434/434 433/433/433
f 435/435/435 437/437/437 436/436/436
f 438/438/438 440/440/440 439/439/439
f 441/441/441 443/443/443 442/442/442
f 444/444/444 446/446/446 445/445/445
f 447/447/447 449/449/449 448/448/448
f 450/450/450 452/452/452 451/451/451
f 453/453/453 455/455/455 454/454/454
f 456/456/456 458/458/458 457/457/457
f 459/459/459 461/461/461 460/460/460
f 462/462/462 464/464/464 463/463/463
f 465/465/465 467/467/467 466/466/466
f 468/468/468 470/470/470 469/469/469
f 471/471/471 473/473/473 472/472/472
f 474/474/474 476/476/476 475/475/475
f 474/474/474 475/475/475 477/477/477
f 478/478/478 480/480/480 479/479/479
f 481/481/481 483/483/483 482/482/482
f 484/484/484 486/486/486 485/485/485
f 487/487/487 489/489/489 488/488/488
f 487/487/487 488/488/488 490/490/490
f 491/491/491 493/493/493 492/492/492
f 491/491/491 492/492/492 494/494/494
f 495/495/495 497/497/497 496/496/496
f 495/495/495 496/496/496 498/498/498
f 499/499/499 501/501/501 500/500/500
f 502/502/502 504/504/504 503/503/503
f 505/505/505 507/507/507 506/506/506
f 505/505/505 506/506/506 508/508/508
f 509/509/509 511/511/511 510/510/510
f 509/509/509 510/510/510 512/512/512
f 513/513/513 515/515/515 514/514/514
f 513/513/513 514/514/514 516/516/516
f 517/517/517 519/519/519 518/518/518
f 520/520/520 522/522/522 521/521/521
f 523/523/523 525/525/525 524/524/524
f 523/523/523 524/524/524 526/526/526
f 527/527/527 529/529/529 528/528/528
f 530/530/530 532/532/532 531/531/531
f 533/533/533 535/535/535 534/534/534
f 536/536/536 538/538/538 537/537/537
f 539/539/539 541/541/541 540/540/540
f 542/542/542 544/544/544 543/543/543
f 545/545/545 547/547/547 546/546/546
f 548/548/548 550/550/550 549/549/549
f 551/551/551 553/553/553 552/552/552
f 554/554/554 556/556/556 555/555/555
f 557/557/557 559/559/559 558/558/558
f 560/560/560 562/562/562 561/561/561
f 560/560/560 561/561/561 563/563/563
f 564/564/564 566/566/566 565/565/565
f 564/564/564 565/565/565 567/567/567
f 568/568/568 570/570/570 569/569/569
f 568/568/568 569/569/569 571/571/571
f 572/572/572 574/574/574 573/573/573
f 575/575/575 577/577/577 576/576/576
f 575/575/575 576/576/576 578/578/578
f 579/579/579 581/581/581 580/580/580
f 579/579/579 580/580/580 582/582/582
f 583/583/583 585/585/585 584/584/584
f 583/583/583 584/584/584 586/586/586
f 587/587/587 589/589/589 588/588/588
f 587/587/587 588/588/588 590/590/590
f 591/591/591 593/593/593 592/592/592
f 594/594/594 596/596/596 595/595/595
f 597/597/597 599/599/599 598/598/598
f 600/600/600 602/602/602 601/601/601
f 603/603/603 605/605/605 604/604/604
f 606/606/606 608/608/608 607/607/607
f 609/609/609 611/611/611 610/610/610
f 612/612/612 614/614/614 613/613/613
f 615/615/615 617/617/617 616/616/616
f 618/618/618 620/620/620 619/619/619
f 618/618/618 619/619/619 621/621/621
f 622/622/622 624/624/624 623/623/623
f 625/625/625 627/627/627 626/626/626
f 628/628/628 630/630/630 629/629/629
f 631/631/631 633/633/633 632/632/632
f 631/631/631 632/632/632 634/634/634
f 635/635/635 637/637/637 636/636/636
f 635/635/635 636/636/636 638/638/638
f 639/639/639 641/641/641 640/640/640
f 639/639/639 640/640/640 642/642/642
f 643/643/643 645/645/645 644/644/644
f 646/646/646 648/648/648 647/647/647
f 649/649/649 651/651/651 650/650/650
f 649/649/649 650/650/650 652/652/652
f 653/653/653 655/655/655 654/654/654
f 653/653/653 654/654/654 656/656/656
f 657/657/657 659/659/659 658/658/658
f 657/657/657 658/658/658 660/660/660
f 661/661/661 663/663/663 662/662/662
f 664/664/664 666/666/666 665/665/665
f 667/667/667 669/669/669 668/668/668
f 667/667/667 668/668/668 670/670/670
f 671/671/671 673/673/673 672/672/672
f 674/674/674 676/676/676 675/675/675
f 677/677/677 679/679/679 678/678/678
f 680/680/680 682/682/682 681/681/681
f 683/683/683 685/685/685 684/684/684
f 686/686/686 688/688/688 687/687/687
f 689/689/689 691/691/691 690/690/690
f 692/692/692 694/694/694 693/693/693
f 695/695/695 697/697/697 696/696/696
f 698/698/698 700/700/700 699/699/699
f 701/701/701 703/703/703 702/702/702
f 704/704/704 706/706/706 705/705/705
f 704/704/704 705/705/705 707/707/707
f 708/708/708 710/710/710 709/709/709
f 708/708/708 709/709/709 711/711/711
f 712/712/712 714/714/714 713/713/713
f 712/712/712 713/713/713 715/715/715
f 716/716/716 718/718/718 717/717/717
f 719/719/719 721/721/721 720/720/720
f 719/719/719 720/720/720 722/722/722
f 723/723/723 725/725/725 724/724/724
f 723/723/723 724/724/724 726/726/726
f 727/727/727 729/729/729 728/728/728
f 727/727/727 728/728/728 730/730/730
f 731/731/731 733/733/733 732/732/732
f 731/731/731 732/732/732 734/734/734
f 735/735/735 737/737/737 736/736/736
f 738/738/738 740/740/740 739/739/739
f 741/741/741 743/743/743 742/742/742
f 744/744/744 746/746/746 745/745/745
