{"asset":{"version":"2.0","generator":"Star Warfare Unity lightmap restoration"},"scene":0,"scenes":[{"nodes":[0]}],"nodes":[{"name":"RestoredStage","mesh":0}],"meshes":[{"name":"RestoredStage","primitives":[{"attributes":{"POSITION":0,"NORMAL":1,"TEXCOORD_0":2,"TEXCOORD_1":3},"indices":4,"material":0},{"attributes":{"POSITION":5,"NORMAL":6,"TEXCOORD_0":7,"TEXCOORD_1":8},"indices":9,"material":1},{"attributes":{"POSITION":10,"NORMAL":11,"TEXCOORD_0":12,"TEXCOORD_1":13},"indices":14,"material":2},{"attributes":{"POSITION":15,"NORMAL":16,"TEXCOORD_0":17,"TEXCOORD_1":18},"indices":19,"material":3},{"attributes":{"POSITION":20,"NORMAL":21,"TEXCOORD_0":22,"TEXCOORD_1":23},"indices":24,"material":4},{"attributes":{"POSITION":25,"NORMAL":26,"TEXCOORD_0":27,"TEXCOORD_1":28},"indices":29,"material":5}]}],"bufferViews":[{"buffer":0,"byteOffset":0,"byteLength":25788},{"buffer":0,"byteOffset":25788,"byteLength":25788},{"buffer":0,"byteOffset":51576,"byteLength":17192},{"buffer":0,"byteOffset":68768,"byteLength":17192},{"buffer":0,"byteOffset":85960,"byteLength":15264},{"buffer":0,"byteOffset":101224,"byteLength":86256},{"buffer":0,"byteOffset":187480,"byteLength":86256},{"buffer":0,"byteOffset":273736,"byteLength":57504},{"buffer":0,"byteOffset":331240,"byteLength":57504},{"buffer":0,"byteOffset":388744,"byteLength":50292},{"buffer":0,"byteOffset":439036,"byteLength":552},{"buffer":0,"byteOffset":439588,"byteLength":552},{"buffer":0,"byteOffset":440140,"byteLength":368},{"buffer":0,"byteOffset":440508,"byteLength":368},{"buffer":0,"byteOffset":440876,"byteLength":480},{"buffer":0,"byteOffset":441356,"byteLength":1716},{"buffer":0,"byteOffset":443072,"byteLength":1716},{"buffer":0,"byteOffset":444788,"byteLength":1144},{"buffer":0,"byteOffset":445932,"byteLength":1144},{"buffer":0,"byteOffset":447076,"byteLength":1464},{"buffer":0,"byteOffset":448540,"byteLength":6060},{"buffer":0,"byteOffset":454600,"byteLength":6060},{"buffer":0,"byteOffset":460660,"byteLength":4040},{"buffer":0,"byteOffset":464700,"byteLength":4040},{"buffer":0,"byteOffset":468740,"byteLength":5316},{"buffer":0,"byteOffset":474056,"byteLength":3732},{"buffer":0,"byteOffset":477788,"byteLength":3732},{"buffer":0,"byteOffset":481520,"byteLength":2488},{"buffer":0,"byteOffset":484008,"byteLength":2488},{"buffer":0,"byteOffset":486496,"byteLength":4428}],"accessors":[{"bufferView":0,"componentType":5126,"count":2149,"type":"VEC3","min":[-70.4655304,-0.086319387,-58.83741],"max":[82.7656708,16.0291119,51.8677139]},{"bufferView":1,"componentType":5126,"count":2149,"type":"VEC3","min":[-1.0,-1.0,-1.0],"max":[1.0,1.0,1.0]},{"bufferView":2,"componentType":5126,"count":2149,"type":"VEC2"},{"bufferView":3,"componentType":5126,"count":2149,"type":"VEC2"},{"bufferView":4,"componentType":5125,"count":3816,"type":"SCALAR"},{"bufferView":5,"componentType":5126,"count":7188,"type":"VEC3","min":[-73.2378922,-2.29908586,-60.0463791],"max":[102.383339,17.5687237,54.4326057]},{"bufferView":6,"componentType":5126,"count":7188,"type":"VEC3","min":[-1.0,-1.0,-1.0],"max":[1.0,1.0,1.0]},{"bufferView":7,"componentType":5126,"count":7188,"type":"VEC2"},{"bufferView":8,"componentType":5126,"count":7188,"type":"VEC2"},{"bufferView":9,"componentType":5125,"count":12573,"type":"SCALAR"},{"bufferView":10,"componentType":5126,"count":46,"type":"VEC3","min":[-178.51033,-57.1567459,-174.608795],"max":[171.44133,207.318787,175.508194]},{"bufferView":11,"componentType":5126,"count":46,"type":"VEC3","min":[-0.952199228,-0.999416992,-0.94745273],"max":[0.965910073,0.228302587,0.944967963]},{"bufferView":12,"componentType":5126,"count":46,"type":"VEC2"},{"bufferView":13,"componentType":5126,"count":46,"type":"VEC2"},{"bufferView":14,"componentType":5125,"count":120,"type":"SCALAR"},{"bufferView":15,"componentType":5126,"count":143,"type":"VEC3","min":[-81.2864761,-2.29418564,-59.2107658],"max":[79.6771088,2.45428252,53.8029289]},{"bufferView":16,"componentType":5126,"count":143,"type":"VEC3","min":[-0.991072921,-0.0424344307,-0.991951411],"max":[0.997753193,0.992547932,0.999887304]},{"bufferView":17,"componentType":5126,"count":143,"type":"VEC2"},{"bufferView":18,"componentType":5126,"count":143,"type":"VEC2"},{"bufferView":19,"componentType":5125,"count":366,"type":"SCALAR"},{"bufferView":20,"componentType":5126,"count":505,"type":"VEC3","min":[-103.939766,-1.2086041,-54.7983551],"max":[122.037888,37.5085144,118.593971]},{"bufferView":21,"componentType":5126,"count":505,"type":"VEC3","min":[-0.986377128,-0.834268236,-0.974151453],"max":[0.984136127,1.0,0.91244344]},{"bufferView":22,"componentType":5126,"count":505,"type":"VEC2"},{"bufferView":23,"componentType":5126,"count":505,"type":"VEC2"},{"bufferView":24,"componentType":5125,"count":1329,"type":"SCALAR"},{"bufferView":25,"componentType":5126,"count":311,"type":"VEC3","min":[-81.2867432,-2.29418564,-71.7363205],"max":[94.4748688,11.0873632,53.8029289]},{"bufferView":26,"componentType":5126,"count":311,"type":"VEC3","min":[-0.464004465,0.629056204,-0.392690491],"max":[0.737480488,1.0,0.597301629]},{"bufferView":27,"componentType":5126,"count":311,"type":"VEC2"},{"bufferView":28,"componentType":5126,"count":311,"type":"VEC2"},{"bufferView":29,"componentType":5125,"count":1107,"type":"SCALAR"}],"materials":[{"name":"swpark02_0","pbrMetallicRoughness":{"baseColorFactor":[1.0,1.0,1.0,1.0],"metallicFactor":0.0,"roughnessFactor":1.0,"baseColorTexture":{"index":0}},"doubleSided":false},{"name":"swpark01_0","pbrMetallicRoughness":{"baseColorFactor":[1.0,1.0,1.0,1.0],"metallicFactor":0.0,"roughnessFactor":1.0,"baseColorTexture":{"index":1}},"doubleSided":false},{"name":"SKY","pbrMetallicRoughness":{"baseColorFactor":[1.0,1.0,1.0,1.0],"metallicFactor":0.0,"roughnessFactor":1.0,"baseColorTexture":{"index":2}},"doubleSided":false},{"name":"BING_0","pbrMetallicRoughness":{"baseColorFactor":[1.0,1.0,1.0,1.0],"metallicFactor":0.0,"roughnessFactor":1.0,"baseColorTexture":{"index":3}},"doubleSided":false},{"name":"groundsnow_0","pbrMetallicRoughness":{"baseColorFactor":[1.0,1.0,1.0,1.0],"metallicFactor":0.0,"roughnessFactor":1.0,"baseColorTexture":{"index":4}},"doubleSided":false},{"name":"groundsnow_1","pbrMetallicRoughness":{"baseColorFactor":[1.0,1.0,1.0,1.0],"metallicFactor":0.0,"roughnessFactor":1.0,"baseColorTexture":{"index":4}},"doubleSided":false}],"images":[{"uri":"swpark02.png"},{"uri":"swpark01.png"},{"uri":"SKY.png"},{"uri":"BING.png"},{"uri":"groundsnow.png"}],"textures":[{"source":0,"sampler":0},{"source":1,"sampler":0},{"source":2,"sampler":0},{"source":3,"sampler":0},{"source":4,"sampler":0}],"samplers":[{"magFilter":9729,"minFilter":9987,"wrapS":10497,"wrapT":10497}],"buffers":[{"uri":"stage.bin","byteLength":490924}]}
