# Generated from legacy Unity YAML Mesh assets without Unity.
mtllib ArmorBag_14.mtl

o ArmorBag_14_00_Bag
v -0.260907054 -0.117621176 -0.135062277
v -0.260907084 -0.117621183 -0.0854171962
v -0.24670592 -0.170797601 -0.0854171887
v -0.225952059 0.0128325 -0.135062248
v -0.225952074 0.0128325298 -0.0854171887
v -0.130453393 0.108331032 -0.135062233
v -0.130453393 0.108331017 -0.0854171589
v -3.56835397e-18 0.143285871 -0.135062233
v -3.56835397e-18 0.143285841 -0.0854171515
v -0.225952149 -0.248074681 -0.0854172036
v -0.225952134 -0.24807471 -0.135062292
v -0.130251661 -0.343695104 -0.0854172334
v -0.130453512 -0.343573332 -0.135062307
v -3.56835397e-18 -0.378528237 -0.0854172409
v -3.56835397e-18 -0.378528237 -0.135062322
v -0.225952134 -0.24807474 0.068375133
v -0.203465298 -0.270661622 0.0683751553
v -0.13085723 -0.343329757 0.0119936056
v -3.56835397e-18 -0.378528267 0.0119935786
v -3.56835397e-18 -0.117621176 -0.135062277
v -0.260907054 -0.117621176 -0.135062277
v -3.56835397e-18 -0.378528237 -0.135062322
v -0.130453512 -0.343573332 -0.135062307
v -0.225952134 -0.24807471 -0.135062292
v -3.56835397e-18 -0.026344277 0.184187412
v -0.0790480676 -0.0719827116 0.184187368
v -0.0456384013 -0.0385730639 0.184187412
v -0.091276862 -0.117621243 0.184187412
v -3.56835397e-18 -0.117621243 0.184187368
v -3.56835397e-18 0.143285841 -0.0854171515
v -0.118313298 0.0873037353 -0.0854171738
v -0.130453393 0.108331017 -0.0854171589
v -3.56835397e-18 0.119005658 -0.0854171589
v -0.204924822 0.000692404807 -0.0854172185
v -0.225952074 0.0128325298 -0.0854171887
v -0.236626879 -0.111698747 -0.0854171962
v -0.260907084 -0.117621183 -0.0854171962
v -0.228891924 -0.146488383 0.0683752298
v -0.236626879 -0.111698769 0.00708042877
v -0.236626849 -0.117621213 0.0683752447
v -0.204924792 0.000692360103 0.068375282
v -0.204924822 0.000692404807 -0.0854172185
v -0.118313298 0.0873037353 -0.0854171738
v -0.118313305 0.0873036757 0.0683752671
v -3.56835397e-18 0.119005658 -0.0854171589
v -3.56835397e-18 0.119005598 0.068375282
v -0.236626879 -0.111698747 -0.0854171962
v -0.118313417 -0.322546095 0.0119936056
v -0.187004105 -0.253855407 0.0683751553
v -0.118313425 -0.322546124 0.0683751553
v -3.56835397e-18 -0.354248077 0.0119935879
v -0.0854426178 -0.265612215 0.134995788
v -3.56835397e-18 -0.288506508 0.134995788
v -3.56835397e-18 -0.354248106 0.0683751702
v -3.56835397e-18 -0.354248077 0.0119935879
v -3.56835397e-18 -0.208898142 0.148963928
v -0.045638446 -0.19666934 0.148963928
v -0.147990987 -0.203063861 0.134995803
v -0.204924852 -0.23593463 0.068375133
v -0.0790480825 -0.1632597 0.148963973
v -0.17088528 -0.117621221 0.134995803
v -0.091276862 -0.117621236 0.148963943
v -0.147990957 -0.032178469 0.134995803
v -0.204924792 0.000692360103 0.068375282
v -0.118313305 0.0873036757 0.0683752671
v -0.0854425359 0.0303698257 0.134995848
v -3.56835397e-18 0.119005598 0.068375282
v -3.56835397e-18 0.0532640889 0.134995863
v -0.236626849 -0.117621213 0.0683752447
v -0.228891924 -0.146488383 0.0683752298
v -0.0456384013 -0.0385730565 0.148963958
v -3.56835397e-18 -0.0263442919 0.148963958
v -0.0790480751 -0.0719827116 0.148963913
v -0.223983869 -0.164805472 0.0683752075
v -0.091276862 -0.117621236 0.148963943
v -0.0790480751 -0.1632597 0.184187412
v -0.0790480825 -0.1632597 0.148963973
v -0.091276862 -0.117621243 0.184187412
v -0.0456384423 -0.196669355 0.184187368
v -0.045638446 -0.19666934 0.148963928
v -3.56835397e-18 -0.208898127 0.184187368
v -3.56835397e-18 -0.208898142 0.148963928
v -0.0790480751 -0.0719827116 0.148963913
v -0.0790480676 -0.0719827116 0.184187368
v -0.0456384013 -0.0385730565 0.148963958
v -0.0456384013 -0.0385730639 0.184187412
v -3.56835397e-18 -0.0263442919 0.148963958
v -3.56835397e-18 -0.026344277 0.184187412
v -0.225952149 -0.248074681 -0.0854172036
v -0.274638951 -0.188068509 0.032074824
v -0.259536892 -0.249933749 0.032074824
v -0.24670592 -0.170797601 -0.0854171887
v -3.56835397e-18 -0.354248077 0.0119935879
v -0.13085723 -0.343329757 0.0119936056
v -0.118313417 -0.322546095 0.0119936056
v -3.56835397e-18 -0.378528267 0.0119935786
v -0.203465298 -0.270661622 0.0683751553
v -0.203465298 -0.270661622 0.0683751553
v -0.187004105 -0.253855407 0.0683751553
v -0.225952134 -0.24807474 0.068375133
v -0.204924852 -0.23593463 0.068375133
v -0.246705905 -0.170797676 0.0683752298
v -0.204924852 -0.23593463 0.068375133
v -0.225952134 -0.24807474 0.068375133
v -0.223983869 -0.164805472 0.0683752075
v -0.274638951 -0.188068509 0.032074824
v -0.259536892 -0.249933749 0.032074824
v -0.228891924 -0.146488383 0.0683752298
v -0.260907084 -0.117621221 0.00708042877
v -0.236626879 -0.111698769 0.00708042877
v -0.251875192 -0.151721671 0.0683752298
v -0.260907084 -0.117621183 -0.0854171962
v -0.236626879 -0.111698747 -0.0854171962
v -0.223983869 -0.164805472 0.0683752075
v -0.251875192 -0.151721671 0.0683752298
v -0.228891924 -0.146488383 0.0683752298
v -0.246705905 -0.170797676 0.0683752298
v -0.260907084 -0.117621221 0.00708042877
v -0.246705905 -0.170797676 0.0683752298
v -0.251875192 -0.151721671 0.0683752298
v -0.225952149 -0.248074681 -0.0854172036
v -0.259536892 -0.249933749 0.032074824
v -0.225952134 -0.24807474 0.068375133
v -0.246705905 -0.170797676 0.0683752298
v -0.274638951 -0.188068509 0.032074824
v -0.24670592 -0.170797601 -0.0854171887
v -0.212024868 -0.0320073888 -0.13532865
v -0.354319215 0.0676281676 -0.171590105
v -0.354319155 0.0676281527 -0.00715746498
v -0.212024868 -0.032007426 0.0595647357
v -0.318493694 0.0425428227 0.0595647357
v -0.212024868 -0.0320074558 0.13843675
v -0.253599525 -0.00289656967 0.13843675
v -0.182365299 0.0103509054 -0.135328636
v -0.288834095 0.0849011168 0.0595647544
v -0.324659616 0.109986417 -0.00715744635
v -0.182365299 0.0103508756 0.0595647357
v -0.223939941 0.0394617096 0.13843675
v -0.182365299 0.0103508309 0.13843675
v -0.324659616 0.109986432 -0.17159009
v -0.212024868 -0.0320073888 -0.13532865
v -0.324659616 0.109986432 -0.17159009
v -0.354319215 0.0676281676 -0.171590105
v -0.182365299 0.0103509054 -0.135328636
v -0.354319155 0.0676281527 -0.00715746498
v -0.324659616 0.109986432 -0.17159009
v -0.324659616 0.109986417 -0.00715744635
v -0.354319215 0.0676281676 -0.171590105
v -0.318493694 0.0425428227 0.0595647357
v -0.288834095 0.0849011168 0.0595647544
v -0.253599525 -0.00289656967 0.13843675
v -0.223939941 0.0394617096 0.13843675
v -0.182365299 0.0103508309 0.13843675
v -0.212024868 -0.0320074558 0.13843675
v -0.212024868 -0.032007426 0.0595647357
v -0.182365299 0.0103508309 0.13843675
v -0.182365299 0.0103508756 0.0595647357
v -0.212024868 -0.0320074558 0.13843675
v -0.091276862 -0.117621243 0.184187412
v -3.56835397e-18 -0.117621243 0.184187368
v -3.56835397e-18 -0.208898127 0.184187368
v -0.0790480751 -0.1632597 0.184187412
v -0.0456384423 -0.196669355 0.184187368
v -0.260907054 -0.117621176 -0.135062277
v -3.56835397e-18 -0.117621176 -0.135062277
v -3.56835397e-18 0.143285871 -0.135062233
v -0.225952059 0.0128325 -0.135062248
v -0.130453393 0.108331032 -0.135062233
v -0.155471713 -0.360898912 -0.0492805094
v -0.197269827 -0.340176642 -0.21003215
v -0.18673192 -0.329638749 -0.0492805094
v -0.16600962 -0.371436834 -0.21003215
v -0.0919889587 -0.297416121 -0.169932052
v -0.123249144 -0.266155958 -0.119274892
v -0.123249136 -0.266155928 -0.169932052
v -0.0919889587 -0.297416151 -0.119274892
v -0.16600962 -0.371436834 -0.21003215
v -0.0919889587 -0.297416151 -0.119274892
v -0.0919889587 -0.297416121 -0.169932052
v -0.155471713 -0.360898912 -0.0492805094
v -0.127842009 -0.333269238 -0.023240434
v -0.197269827 -0.340176642 -0.21003215
v -0.0919889587 -0.297416121 -0.169932052
v -0.123249136 -0.266155928 -0.169932052
v -0.16600962 -0.371436834 -0.21003215
v -0.197269827 -0.340176642 -0.21003215
v -0.123249144 -0.266155958 -0.119274892
v -0.18673192 -0.329638749 -0.0492805094
v -0.123249136 -0.266155928 -0.169932052
v -0.159102202 -0.302009046 -0.0232404154
v -0.18673192 -0.329638749 -0.0492805094
v -0.127842009 -0.333269238 -0.023240434
v -0.155471713 -0.360898912 -0.0492805094
v -0.159102202 -0.302009046 -0.0232404154
v 0.260907054 -0.117621176 -0.135062277
v 0.246705919 -0.170797601 -0.0854171887
v 0.260907083 -0.117621183 -0.0854171962
v 0.225952059 0.0128325 -0.135062248
v 0.225952074 0.0128325298 -0.0854171887
v 0.130453393 0.108331032 -0.135062233
v 0.130453393 0.108331017 -0.0854171589
v -3.56835397e-18 0.143285871 -0.135062233
v -3.56835397e-18 0.143285841 -0.0854171515
v 0.225952148 -0.248074681 -0.0854172036
v 0.225952133 -0.24807471 -0.135062292
v 0.130251661 -0.343695104 -0.0854172334
v 0.130453512 -0.343573332 -0.135062307
v -3.56835397e-18 -0.378528237 -0.0854172409
v -3.56835397e-18 -0.378528237 -0.135062322
v 0.130857229 -0.343329757 0.0119936056
v 0.203465298 -0.270661622 0.0683751553
v 0.225952133 -0.24807474 0.068375133
v -3.56835397e-18 -0.378528267 0.0119935786
v -3.56835397e-18 -0.117621176 -0.135062277
v -3.56835397e-18 -0.378528237 -0.135062322
v 0.260907054 -0.117621176 -0.135062277
v 0.130453512 -0.343573332 -0.135062307
v 0.225952133 -0.24807471 -0.135062292
v -3.56835397e-18 -0.026344277 0.184187412
v 0.0790480671 -0.0719827116 0.184187368
v 0.0912768615 -0.117621243 0.184187412
v 0.0456384008 -0.0385730639 0.184187412
v -3.56835397e-18 -0.117621243 0.184187368
v -3.56835397e-18 0.143285841 -0.0854171515
v 0.118313297 0.0873037353 -0.0854171738
v -3.56835397e-18 0.119005658 -0.0854171589
v 0.130453393 0.108331017 -0.0854171589
v 0.204924822 0.000692404807 -0.0854172185
v 0.225952074 0.0128325298 -0.0854171887
v 0.236626878 -0.111698747 -0.0854171962
v 0.260907083 -0.117621183 -0.0854171962
v 0.228891924 -0.146488383 0.0683752298
v 0.236626848 -0.117621213 0.0683752447
v 0.236626878 -0.111698769 0.00708042877
v 0.204924792 0.000692360103 0.068375282
v 0.204924822 0.000692404807 -0.0854172185
v 0.118313297 0.0873037353 -0.0854171738
v 0.118313305 0.0873036757 0.0683752671
v -3.56835397e-18 0.119005658 -0.0854171589
v -3.56835397e-18 0.119005598 0.068375282
v 0.236626878 -0.111698747 -0.0854171962
v 0.118313417 -0.322546095 0.0119936056
v 0.118313424 -0.322546124 0.0683751553
v 0.187004104 -0.253855407 0.0683751553
v 0.0854426173 -0.265612215 0.134995788
v -3.56835397e-18 -0.288506508 0.134995788
v -3.56835397e-18 -0.354248106 0.0683751702
v -3.56835397e-18 -0.354248077 0.0119935879
v -3.56835397e-18 -0.208898142 0.148963928
v 0.0456384455 -0.19666934 0.148963928
v 0.147990986 -0.203063861 0.134995803
v 0.204924851 -0.23593463 0.068375133
v 0.079048082 -0.1632597 0.148963973
v 0.170885279 -0.117621221 0.134995803
v 0.0912768615 -0.117621236 0.148963943
v 0.147990957 -0.032178469 0.134995803
v 0.204924792 0.000692360103 0.068375282
v 0.118313305 0.0873036757 0.0683752671
v 0.0854425353 0.0303698257 0.134995848
v -3.56835397e-18 0.119005598 0.068375282
v -3.56835397e-18 0.0532640889 0.134995863
v 0.236626848 -0.117621213 0.0683752447
v 0.228891924 -0.146488383 0.0683752298
v 0.0456384008 -0.0385730565 0.148963958
v -3.56835397e-18 -0.0263442919 0.148963958
v 0.0790480745 -0.0719827116 0.148963913
v 0.223983869 -0.164805472 0.0683752075
v 0.0912768615 -0.117621236 0.148963943
v 0.0790480745 -0.1632597 0.184187412
v 0.0912768615 -0.117621243 0.184187412
v 0.079048082 -0.1632597 0.148963973
v 0.0456384418 -0.196669355 0.184187368
v 0.0456384455 -0.19666934 0.148963928
v -3.56835397e-18 -0.208898127 0.184187368
v -3.56835397e-18 -0.208898142 0.148963928
v 0.0790480745 -0.0719827116 0.148963913
v 0.0790480671 -0.0719827116 0.184187368
v 0.0456384008 -0.0385730565 0.148963958
v 0.0456384008 -0.0385730639 0.184187412
v -3.56835397e-18 -0.0263442919 0.148963958
v -3.56835397e-18 -0.026344277 0.184187412
v 0.225952148 -0.248074681 -0.0854172036
v 0.274638951 -0.188068509 0.032074824
v 0.246705919 -0.170797601 -0.0854171887
v 0.259536892 -0.249933749 0.032074824
v -3.56835397e-18 -0.354248077 0.0119935879
v 0.130857229 -0.343329757 0.0119936056
v -3.56835397e-18 -0.378528267 0.0119935786
v 0.118313417 -0.322546095 0.0119936056
v 0.203465298 -0.270661622 0.0683751553
v 0.187004104 -0.253855407 0.0683751553
v 0.203465298 -0.270661622 0.0683751553
v 0.225952133 -0.24807474 0.068375133
v 0.204924851 -0.23593463 0.068375133
v 0.246705904 -0.170797676 0.0683752298
v 0.204924851 -0.23593463 0.068375133
v 0.223983869 -0.164805472 0.0683752075
v 0.225952133 -0.24807474 0.068375133
v 0.274638951 -0.188068509 0.032074824
v 0.259536892 -0.249933749 0.032074824
v 0.228891924 -0.146488383 0.0683752298
v 0.260907083 -0.117621221 0.00708042877
v 0.251875192 -0.151721671 0.0683752298
v 0.236626878 -0.111698769 0.00708042877
v 0.260907083 -0.117621183 -0.0854171962
v 0.236626878 -0.111698747 -0.0854171962
v 0.223983869 -0.164805472 0.0683752075
v 0.251875192 -0.151721671 0.0683752298
v 0.246705904 -0.170797676 0.0683752298
v 0.228891924 -0.146488383 0.0683752298
v 0.260907083 -0.117621221 0.00708042877
v 0.246705904 -0.170797676 0.0683752298
v 0.251875192 -0.151721671 0.0683752298
v 0.225952148 -0.248074681 -0.0854172036
v 0.225952133 -0.24807474 0.068375133
v 0.259536892 -0.249933749 0.032074824
v 0.246705904 -0.170797676 0.0683752298
v 0.246705919 -0.170797601 -0.0854171887
v 0.274638951 -0.188068509 0.032074824
v 0.212024867 -0.0320073888 -0.13532865
v 0.354319155 0.0676281527 -0.00715746498
v 0.354319215 0.0676281676 -0.171590105
v 0.212024867 -0.032007426 0.0595647357
v 0.318493694 0.0425428227 0.0595647357
v 0.212024867 -0.0320074558 0.13843675
v 0.253599524 -0.00289656967 0.13843675
v 0.182365298 0.0103509054 -0.135328636
v 0.288834095 0.0849011168 0.0595647544
v 0.182365298 0.0103508756 0.0595647357
v 0.324659615 0.109986417 -0.00715744635
v 0.22393994 0.0394617096 0.13843675
v 0.182365298 0.0103508309 0.13843675
v 0.324659615 0.109986432 -0.17159009
v 0.212024867 -0.0320073888 -0.13532865
v 0.324659615 0.109986432 -0.17159009
v 0.182365298 0.0103509054 -0.135328636
v 0.354319215 0.0676281676 -0.171590105
v 0.354319155 0.0676281527 -0.00715746498
v 0.324659615 0.109986432 -0.17159009
v 0.354319215 0.0676281676 -0.171590105
v 0.324659615 0.109986417 -0.00715744635
v 0.318493694 0.0425428227 0.0595647357
v 0.288834095 0.0849011168 0.0595647544
v 0.253599524 -0.00289656967 0.13843675
v 0.22393994 0.0394617096 0.13843675
v 0.182365298 0.0103508309 0.13843675
v 0.212024867 -0.0320074558 0.13843675
v 0.212024867 -0.032007426 0.0595647357
v 0.182365298 0.0103508309 0.13843675
v 0.212024867 -0.0320074558 0.13843675
v 0.182365298 0.0103508756 0.0595647357
v 0.0912768615 -0.117621243 0.184187412
v -3.56835397e-18 -0.208898127 0.184187368
v -3.56835397e-18 -0.117621243 0.184187368
v 0.0790480745 -0.1632597 0.184187412
v 0.0456384418 -0.196669355 0.184187368
v 0.260907054 -0.117621176 -0.135062277
v -3.56835397e-18 0.143285871 -0.135062233
v -3.56835397e-18 -0.117621176 -0.135062277
v 0.225952059 0.0128325 -0.135062248
v 0.130453393 0.108331032 -0.135062233
v 0.155471712 -0.360898912 -0.0492805094
v 0.197269827 -0.340176642 -0.21003215
v 0.166009605 -0.371436834 -0.21003215
v 0.186731919 -0.329638749 -0.0492805094
v 0.0919889581 -0.297416121 -0.169932052
v 0.123249143 -0.266155958 -0.119274892
v 0.0919889581 -0.297416151 -0.119274892
v 0.123249136 -0.266155928 -0.169932052
v 0.166009605 -0.371436834 -0.21003215
v 0.0919889581 -0.297416151 -0.119274892
v 0.155471712 -0.360898912 -0.0492805094
v 0.0919889581 -0.297416121 -0.169932052
v 0.127842009 -0.333269238 -0.023240434
v 0.197269827 -0.340176642 -0.21003215
v 0.0919889581 -0.297416121 -0.169932052
v 0.166009605 -0.371436834 -0.21003215
v 0.123249136 -0.266155928 -0.169932052
v 0.197269827 -0.340176642 -0.21003215
v 0.123249143 -0.266155958 -0.119274892
v 0.123249136 -0.266155928 -0.169932052
v 0.186731919 -0.329638749 -0.0492805094
v 0.159102201 -0.302009046 -0.0232404154
v 0.186731919 -0.329638749 -0.0492805094
v 0.127842009 -0.333269238 -0.023240434
v 0.159102201 -0.302009046 -0.0232404154
v 0.155471712 -0.360898912 -0.0492805094
vt 0.00569347432 0.493973404
vt 0.0715222135 0.493973404
vt 0.071158126 0.435789883
vt 0.00569356512 0.658515096
vt 0.0711691529 0.658515096
vt 0.00569356512 0.808395088
vt 0.0711691529 0.808395088
vt 0.00569356512 0.989827096
vt 0.0715223402 0.989827096
vt 0.0711699128 0.345640123
vt 0.00569347432 0.345640123
vt 0.0711690634 0.176806122
vt 0.00569347432 0.176806122
vt 0.0711690634 0.0112738758
vt 0.00569347432 0.0112738758
vt 0.291456103 0.345640123
vt 0.276472002 0.309224963
vt 0.206906095 0.176806122
vt 0.206906095 0.0112738758
vt 0.996725738 0.00365501805
vt 0.734659433 0.00365495565
vt 0.996725738 0.265721172
vt 0.865692616 0.230610952
vt 0.769769788 0.134688064
vt 0.542137384 0.20086813
vt 0.700834036 0.107390501
vt 0.63561511 0.175820827
vt 0.726951718 0.0139128687
vt 0.542137384 0.0139128687
vt 0.0715223402 0.989827096
vt 0.106197946 0.808395088
vt 0.0711691529 0.808395088
vt 0.106197946 0.989827096
vt 0.106197946 0.658515096
vt 0.0711691529 0.658515096
vt 0.106197849 0.493973404
vt 0.0715222135 0.493973404
vt 0.561210632 0.692201436
vt 0.524863482 0.615023851
vt 0.524863124 0.692201316
vt 0.375891775 0.69220084
vt 0.375892431 0.49855715
vt 0.266837686 0.498556793
vt 0.266837031 0.692200541
vt 0.119766854 0.498556256
vt 0.119766183 0.692199886
vt 0.524863958 0.498557687
vt 0.588562012 0.240712285
vt 0.579161406 0.418494046
vt 0.65229857 0.29223904
vt 0.724659145 0.106278442
vt 0.760681272 0.376682311
vt 0.863896847 0.29307586
vt 0.787208617 0.168096989
vt 0.724659145 0.106278442
vt 0.912087381 0.408735186
vt 0.853856921 0.453963608
vt 0.700222731 0.491830468
vt 0.562129796 0.458164871
vt 0.819622278 0.520839393
vt 0.698457658 0.621123731
vt 0.818222702 0.594115674
vt 0.756340027 0.736958265
vt 0.646912336 0.826673031
vt 0.797408283 0.943257749
vt 0.859242499 0.816167891
vt 0.980296493 0.987389863
vt 0.98874855 0.843782127
vt 0.561137497 0.656534195
vt 0.558584452 0.607063413
vt 0.9097206 0.705154359
vt 0.981189251 0.719626367
vt 0.850986063 0.659729958
vt 0.558591962 0.574201286
vt 0.931441545 0.486347705
vt 0.991029859 0.409140319
vt 0.931441545 0.409140319
vt 0.991029859 0.486347705
vt 0.991029859 0.352620274
vt 0.931441545 0.352620274
vt 0.991029859 0.275412858
vt 0.931441545 0.275412858
vt 0.931441545 0.563555598
vt 0.991029859 0.563555598
vt 0.931441545 0.620075464
vt 0.991029859 0.620075464
vt 0.931441545 0.697282732
vt 0.991029859 0.697282732
vt 0.24949199 0.057078138
vt 0.450279713 0.147681177
vt 0.452560067 0.0730315819
vt 0.247269258 0.158899516
vt 0.238987654 0.0112738758
vt 0.206906095 0.176806122
vt 0.238825917 0.176806122
vt 0.206906095 0.0112738758
vt 0.276472002 0.309224963
vt 0.276472002 0.309224963
vt 0.303896576 0.297954112
vt 0.291456103 0.345640123
vt 0.316286147 0.327622801
vt 0.50480634 0.159649059
vt 0.534678519 0.0657395795
vt 0.50480634 0.0577540398
vt 0.534732103 0.159513831
vt 0.450279713 0.147681177
vt 0.452560067 0.0730315819
vt 0.341289312 0.415157855
vt 0.232294515 0.376032591
vt 0.232294336 0.415157527
vt 0.34128949 0.376032859
vt 0.0855807438 0.376031965
vt 0.0855805948 0.41515708
vt 0.371643484 0.415157974
vt 0.34128949 0.376032859
vt 0.341289312 0.415157855
vt 0.371643633 0.376032859
vt 0.202434331 0.493973404
vt 0.281140685 0.435297579
vt 0.281984866 0.455304176
vt 0.24949199 0.057078138
vt 0.452560067 0.0730315819
vt 0.441415906 0.018086981
vt 0.438499272 0.201134384
vt 0.450279713 0.147681177
vt 0.247269258 0.158899516
vt 0.188913733 0.705340803
vt 0.188845664 0.92562741
vt 0.351470768 0.925749719
vt 0.436128467 0.705357015
vt 0.436128467 0.870215952
vt 0.536182165 0.705349028
vt 0.536182165 0.769724309
vt 0.188913733 0.705340803
vt 0.436157435 0.870215952
vt 0.351470768 0.925749719
vt 0.436157435 0.705357015
vt 0.536211133 0.769724309
vt 0.536211133 0.705349028
vt 0.188845664 0.92562741
vt 0.188913733 0.705340803
vt 0.123242296 0.925617874
vt 0.188845664 0.92562741
vt 0.123321034 0.705285966
vt 0.351470768 0.925749719
vt 0.188689038 0.991149127
vt 0.351121396 0.991398275
vt 0.188845664 0.92562741
vt 0.452689439 0.926687658
vt 0.452143043 0.992273986
vt 0.59436506 0.927886426
vt 0.593943417 0.99347347
vt 0.658389091 0.993764222
vt 0.658603311 0.928176105
vt 0.758588791 0.928361714
vt 0.658389091 0.993764222
vt 0.758461595 0.993950188
vt 0.658603311 0.928176105
vt 0.726951718 0.0139128687
vt 0.542137384 0.0139128687
vt 0.542137384 0.20086813
vt 0.700834036 0.107390501
vt 0.63561511 0.175820827
vt 0.73456955 0.00365501805
vt 0.996635914 0.00365501805
vt 0.996635914 0.265721112
vt 0.769679904 0.134688258
vt 0.865602851 0.230610952
vt 0.357979953 0.214524373
vt 0.517237544 0.267518997
vt 0.362182587 0.268603146
vt 0.517091393 0.211102456
vt 0.495970577 0.439691395
vt 0.436702728 0.392174602
vt 0.50086087 0.400099725
vt 0.436840326 0.428230762
vt 0.517480314 0.267518997
vt 0.436945528 0.392174602
vt 0.501103699 0.400099725
vt 0.362425417 0.268603146
vt 0.32324788 0.312933624
vt 0.517237544 0.267518997
vt 0.556851983 0.407016009
vt 0.50086087 0.400099725
vt 0.573228717 0.274435163
vt 0.517237544 0.267518997
vt 0.436702728 0.392174602
vt 0.362182587 0.268603146
vt 0.50086087 0.400099725
vt 0.32300505 0.312933624
vt 0.362182587 0.268603146
vt 0.298152655 0.218083233
vt 0.357979953 0.214524373
vt 0.302523971 0.274330199
vt 0.00569347432 0.493973404
vt 0.071158126 0.435789883
vt 0.0715222135 0.493973404
vt 0.00569356512 0.658515096
vt 0.0711691529 0.658515096
vt 0.00569356512 0.808395088
vt 0.0711691529 0.808395088
vt 0.00569356512 0.989827096
vt 0.0715223402 0.989827096
vt 0.0711699128 0.345640123
vt 0.00569347432 0.345640123
vt 0.0711690634 0.176806122
vt 0.00569347432 0.176806122
vt 0.0711690634 0.0112738758
vt 0.00569347432 0.0112738758
vt 0.206906095 0.176806122
vt 0.276472002 0.309224963
vt 0.291456103 0.345640123
vt 0.206906095 0.0112738758
vt 0.996725738 0.00365501805
vt 0.996725738 0.265721172
vt 0.734659433 0.00365495565
vt 0.865692616 0.230610952
vt 0.769769788 0.134688064
vt 0.542137384 0.20086813
vt 0.700834036 0.107390501
vt 0.726951718 0.0139128687
vt 0.63561511 0.175820827
vt 0.542137384 0.0139128687
vt 0.0715223402 0.989827096
vt 0.106197946 0.808395088
vt 0.106197946 0.989827096
vt 0.0711691529 0.808395088
vt 0.106197946 0.658515096
vt 0.0711691529 0.658515096
vt 0.106197849 0.493973404
vt 0.0715222135 0.493973404
vt 0.561210632 0.692201436
vt 0.524863124 0.692201316
vt 0.524863482 0.615023851
vt 0.375891775 0.69220084
vt 0.375892431 0.49855715
vt 0.266837686 0.498556793
vt 0.266837031 0.692200541
vt 0.119766854 0.498556256
vt 0.119766183 0.692199886
vt 0.524863958 0.498557687
vt 0.588562012 0.240712285
vt 0.65229857 0.29223904
vt 0.579161406 0.418494046
vt 0.760681272 0.376682311
vt 0.863896847 0.29307586
vt 0.787208617 0.168096989
vt 0.724659145 0.106278442
vt 0.912087381 0.408735186
vt 0.853856921 0.453963608
vt 0.700222731 0.491830468
vt 0.562129796 0.458164871
vt 0.819622278 0.520839393
vt 0.698457658 0.621123731
vt 0.818222702 0.594115674
vt 0.756340027 0.736958265
vt 0.646912336 0.826673031
vt 0.797408283 0.943257749
vt 0.859242499 0.816167891
vt 0.980296493 0.987389863
vt 0.98874855 0.843782127
vt 0.561137497 0.656534195
vt 0.558584452 0.607063413
vt 0.9097206 0.705154359
vt 0.981189251 0.719626367
vt 0.850986063 0.659729958
vt 0.558591962 0.574201286
vt 0.931441545 0.486347705
vt 0.991029859 0.409140319
vt 0.991029859 0.486347705
vt 0.931441545 0.409140319
vt 0.991029859 0.352620274
vt 0.931441545 0.352620274
vt 0.991029859 0.275412858
vt 0.931441545 0.275412858
vt 0.931441545 0.563555598
vt 0.991029859 0.563555598
vt 0.931441545 0.620075464
vt 0.991029859 0.620075464
vt 0.931441545 0.697282732
vt 0.991029859 0.697282732
vt 0.24949199 0.057078138
vt 0.450279713 0.147681177
vt 0.247269258 0.158899516
vt 0.452560067 0.0730315819
vt 0.238987654 0.0112738758
vt 0.206906095 0.176806122
vt 0.206906095 0.0112738758
vt 0.238825917 0.176806122
vt 0.276472002 0.309224963
vt 0.303896576 0.297954112
vt 0.276472002 0.309224963
vt 0.291456103 0.345640123
vt 0.316286147 0.327622801
vt 0.50480634 0.159649059
vt 0.534678519 0.0657395795
vt 0.534732103 0.159513831
vt 0.50480634 0.0577540398
vt 0.450279713 0.147681177
vt 0.452560067 0.0730315819
vt 0.341289312 0.415157855
vt 0.232294515 0.376032591
vt 0.34128949 0.376032859
vt 0.232294336 0.415157527
vt 0.0855807438 0.376031965
vt 0.0855805948 0.41515708
vt 0.371643484 0.415157974
vt 0.34128949 0.376032859
vt 0.371643633 0.376032859
vt 0.341289312 0.415157855
vt 0.202434331 0.493973404
vt 0.281140685 0.435297579
vt 0.281984866 0.455304176
vt 0.24949199 0.057078138
vt 0.441415906 0.018086981
vt 0.452560067 0.0730315819
vt 0.438499272 0.201134384
vt 0.247269258 0.158899516
vt 0.450279713 0.147681177
vt 0.188913733 0.705340803
vt 0.351470768 0.925749719
vt 0.188845664 0.92562741
vt 0.436128467 0.705357015
vt 0.436128467 0.870215952
vt 0.536182165 0.705349028
vt 0.536182165 0.769724309
vt 0.188913733 0.705340803
vt 0.436157435 0.870215952
vt 0.436157435 0.705357015
vt 0.351470768 0.925749719
vt 0.536211133 0.769724309
vt 0.536211133 0.705349028
vt 0.188845664 0.92562741
vt 0.188913733 0.705340803
vt 0.123242296 0.925617874
vt 0.123321034 0.705285966
vt 0.188845664 0.92562741
vt 0.351470768 0.925749719
vt 0.188689038 0.991149127
vt 0.188845664 0.92562741
vt 0.351121396 0.991398275
vt 0.452689439 0.926687658
vt 0.452143043 0.992273986
vt 0.59436506 0.927886426
vt 0.593943417 0.99347347
vt 0.658389091 0.993764222
vt 0.658603311 0.928176105
vt 0.758588791 0.928361714
vt 0.658389091 0.993764222
vt 0.658603311 0.928176105
vt 0.758461595 0.993950188
vt 0.726951718 0.0139128687
vt 0.542137384 0.20086813
vt 0.542137384 0.0139128687
vt 0.700834036 0.107390501
vt 0.63561511 0.175820827
vt 0.73456955 0.00365501805
vt 0.996635914 0.265721112
vt 0.996635914 0.00365501805
vt 0.769679904 0.134688258
vt 0.865602851 0.230610952
vt 0.357979953 0.214524373
vt 0.517237544 0.267518997
vt 0.517091393 0.211102456
vt 0.362182587 0.268603146
vt 0.495970577 0.439691395
vt 0.436702728 0.392174602
vt 0.436840326 0.428230762
vt 0.50086087 0.400099725
vt 0.517480314 0.267518997
vt 0.436945528 0.392174602
vt 0.362425417 0.268603146
vt 0.501103699 0.400099725
vt 0.32324788 0.312933624
vt 0.517237544 0.267518997
vt 0.556851983 0.407016009
vt 0.573228717 0.274435163
vt 0.50086087 0.400099725
vt 0.517237544 0.267518997
vt 0.436702728 0.392174602
vt 0.50086087 0.400099725
vt 0.362182587 0.268603146
vt 0.32300505 0.312933624
vt 0.362182587 0.268603146
vt 0.298152655 0.218083233
vt 0.302523971 0.274330199
vt 0.357979953 0.214524373
vn -0.996034961 -0.0889621036 -0.000317606632
vn -0.997503448 0.0706177804 -4.29546909e-07
vn -0.966069694 -0.258281343 -0.000305599914
vn -0.907072647 0.420974124 -5.578741e-07
vn -0.818110197 0.57506148 -2.98963991e-07
vn -0.575060592 0.818110821 -4.62499537e-08
vn -0.420973489 0.907072942 3.71916e-07
vn -0.258818697 0.965925919 4.34889577e-07
vn -0.258818646 0.965925933 5.79852734e-07
vn -0.801154274 -0.598457853 -0.000166685344
vn -0.817971284 -0.57525892 0.000391856894
vn -0.594752207 -0.80390908 -5.29330666e-05
vn -0.420915044 -0.907100062 -6.06579601e-05
vn -0.258895013 -0.965905365 0.000444458813
vn -0.258818991 -0.965925841 -1.03490868e-15
vn -0.707166481 -0.707046938 -0.000442680943
vn -0.708274035 -0.70593493 -0.00194048688
vn -0.393026553 -0.919527087 0.000255153772
vn -0.259751333 -0.965675538 -2.95443297e-07
vn 0 1.71338727e-07 -1
vn -2.78730393e-08 1.42098846e-07 -1
vn -2.50053048e-08 1.46333422e-07 -1
vn -8.36191169e-08 8.36190848e-08 -1
vn -5.7112894e-08 9.89224601e-08 -1
vn 4.37433033e-08 -1.63252042e-07 1
vn -8.4828404e-07 4.89756731e-07 1
vn 4.8975793e-07 -1.82779936e-06 1
vn -1.1130145e-16 -1.92779434e-16 1
vn 4.89757016e-07 -4.89756458e-07 1
vn 3.95021049e-08 -4.82750084e-07 1
vn 6.61088416e-08 -5.32850383e-07 1
vn 3.4744233e-07 -7.97217586e-07 1
vn -4.37242209e-08 -3.06858502e-07 1
vn 7.34589448e-07 -6.57793746e-07 1
vn 6.92796903e-07 -4.65124157e-07 1
vn 6.42016664e-07 -1.14862574e-07 1
vn 1.4905159e-08 -6.11066593e-08 1
vn -0.965624033 -0.258737819 -0.0249993655
vn -0.969502131 0.245054191 0.00374975876
vn -0.986880317 0.160705058 0.0155281671
vn -0.836987756 0.547212998 0.00307096604
vn -0.888918236 0.458065901 2.58611689e-07
vn -0.575060529 0.818110865 3.24536317e-07
vn -0.420973556 0.907072911 3.35465648e-07
vn -0.258818807 0.96592589 3.68090226e-07
vn -0.2588188 0.965925892 3.74359555e-07
vn -0.962445228 0.271475936 6.56012522e-08
vn -0.472997083 -0.881063993 -5.28219891e-07
vn -0.58312917 -0.583128906 0.565615639
vn -0.361323263 -0.815912843 0.451366517
vn 0 -1 -5.63991225e-07
vn -0.288214759 -0.424666061 0.858248792
vn -0.156211212 -0.582987932 0.797322475
vn -0.22997942 -0.858294786 0.458736881
vn -0.25881901 -0.965925836 -5.10571573e-07
vn -0.0462576064 -0.172635591 0.983898972
vn -0.105773255 -0.138438067 0.984706515
vn -0.452488635 -0.242372659 0.858201334
vn -0.660101966 -0.274120939 0.699373366
vn -0.16082138 -0.0670040369 0.984706526
vn -0.542677046 0.0234466627 0.839614124
vn -0.172777038 0.0223838543 0.984706585
vn -0.430384163 0.301100981 0.850945164
vn -0.640904125 0.311676196 0.701498291
vn -0.399201058 0.590371932 0.701498038
vn -0.222173594 0.475953348 0.850944948
vn -0.18734587 0.699184278 0.6899586
vn -0.112982471 0.421655814 0.899689578
vn -0.707053151 0.115137343 0.697724325
vn -0.699183829 -0.187346222 0.68995896
vn -0.0670040589 0.160820768 0.984706625
vn -0.0462573885 0.17263504 0.983899079
vn -0.138437639 0.105772979 0.984706604
vn -0.699184107 -0.187346317 0.689958652
vn -0.996035012 -0.0889621009 7.02281611e-08
vn -0.907072879 -0.420973625 1.0282124e-07
vn -0.818110661 -0.575060819 4.45230037e-08
vn -0.996035004 0.0889621901 7.02282195e-08
vn -0.575061075 -0.818110482 -1.56752997e-07
vn -0.420973903 -0.90707275 -6.7707101e-08
vn -0.258819098 -0.965925812 1.3686572e-08
vn -0.258819383 -0.965925736 4.08631734e-07
vn -0.907072886 0.42097361 1.40456343e-07
vn -0.818110547 0.575060981 1.73049456e-07
vn -0.575060973 0.818110553 1.730494e-07
vn -0.420973969 0.907072719 -1.88175243e-08
vn -0.258819104 0.96592581 -1.02157898e-07
vn -0.258819325 0.965925751 -4.08631567e-07
vn -0.933981566 -0.240679329 -0.264105842
vn -0.933981566 -0.240679329 -0.264105842
vn -0.935142216 -0.228279604 -0.270919652
vn -0.932919407 -0.250547667 -0.258625688
vn 1.15303082e-07 -2.38762671e-07 1
vn 0.136821505 -0.0825776374 0.987147815
vn 0.264187966 -0.203852039 0.942681847
vn 1.03220559e-07 -3.8357301e-07 1
vn 0.339346065 -0.204809545 0.918094384
vn 0.35862568 -0.351263311 0.86487092
vn 0.245224652 -0.240190285 0.939240915
vn -4.81359741e-07 6.23410492e-07 1
vn -4.56526612e-07 7.90727073e-07 1
vn -0.413855042 -0.11114729 0.903532116
vn 8.9046924e-07 -9.15805874e-07 1
vn -0.606076717 -0.156181662 0.779921984
vn 1.1767851e-06 -7.32153168e-07 1
vn -0.724698899 -0.186749419 0.663276836
vn -0.718169209 -0.175313851 0.673422632
vn -0.198858008 0.842500867 0.500647363
vn -0.221453995 0.924737673 0.309545416
vn -0.234531257 0.961505951 0.143183083
vn -0.192454323 0.845210398 0.498578697
vn -0.236972905 0.971516259 3.13018208e-07
vn -0.236972624 0.971516328 2.34763672e-07
vn 5.96377196e-07 -4.37028426e-07 1
vn 5.96377196e-07 -4.37028426e-07 1
vn 2.61877051e-07 -1.15009734e-06 1
vn 9.18093401e-07 2.48788395e-07 1
vn -0.966063262 -0.25830544 -0.000269746598
vn -0.966022375 -0.258458124 -0.000411617907
vn -0.965184513 -0.261549322 -0.00328751542
vn 0.0552685841 -0.998471524 -3.92328434e-07
vn 0.0552685841 -0.998471524 -3.92328434e-07
vn 0.0552685841 -0.998471524 -3.92328434e-07
vn -0.52589153 0.850551644 4.63010016e-07
vn -0.52589153 0.850551644 4.63010016e-07
vn -0.52589153 0.850551644 4.63010016e-07
vn -0.573576484 -0.819152011 -2.37508097e-08
vn -0.573576389 -0.819152078 1.33680878e-07
vn -0.573576461 -0.819152027 -1.41987145e-07
vn -0.57357647 -0.819152021 -3.23718932e-07
vn -0.57357632 -0.819152126 -5.29979103e-07
vn -0.573576331 -0.819152118 -2.48284821e-07
vn -0.573576409 -0.819152063 -9.14617077e-08
vn 0.57357634 0.819152112 9.67114322e-08
vn 0.573576357 0.8191521 1.68283551e-07
vn 0.573576323 0.819152124 8.09068643e-08
vn 0.573576378 0.819152085 2.31356469e-07
vn 0.573576392 0.819152075 4.19895885e-07
vn 0.573576449 0.819152036 4.64283182e-07
vn 0.573576319 0.819152127 7.42329361e-08
vn 0.167388315 -0.117206207 -0.978899309
vn 0.167388315 -0.117206207 -0.978899309
vn 0.167388249 -0.117206261 -0.978899314
vn 0.167388382 -0.117206153 -0.978899304
vn -0.81419143 0.570102702 0.109887328
vn -0.819152105 0.573576349 2.00444319e-07
vn -0.785967235 0.550339542 0.281747928
vn -0.819151835 0.573576736 3.48910129e-07
vn -0.644304804 0.451146658 0.617525718
vn -0.608658458 0.42618707 0.669252914
vn -0.424960495 0.297560427 0.854907229
vn -0.424960412 0.297560461 0.854907258
vn 0 0 1
vn 0 0 1
vn 0.819152295 -0.573576078 -2.70911987e-07
vn 0.819152295 -0.573576078 -2.70911987e-07
vn 0.819152342 -0.573576011 -3.25094346e-07
vn 0.819152248 -0.573576146 -2.16729615e-07
vn 5.3779055e-07 4.80335219e-08 1
vn 4.89757016e-07 -3.04081078e-16 1
vn 4.46013721e-07 -1.1950898e-07 1
vn 3.58527164e-07 -3.58526848e-07 1
vn -4.89756185e-07 -1.82779672e-06 1
vn -2.09046982e-08 1.92243435e-07 -1
vn 0 1.71338736e-07 -1
vn -2.41386774e-08 1.94110594e-07 -1
vn -7.24160287e-08 2.39654306e-07 -1
vn -5.71128906e-08 2.13148471e-07 -1
vn -0.704087228 -0.704087899 0.0923114634
vn -0.704087228 -0.704087899 0.0923114634
vn -0.704087064 -0.704088071 0.0923113987
vn -0.704087391 -0.704087727 0.0923115281
vn 0.707106908 0.707106655 4.68000945e-07
vn 0.707106908 0.707106655 4.68000945e-07
vn 0.70710695 0.707106613 5.20001048e-07
vn 0.707106865 0.707106697 4.16000848e-07
vn 0.707106927 -0.707106635 -6.44209017e-08
vn 0.707106862 -0.7071067 -1.32929356e-07
vn 0.707107143 -0.707106419 -4.16000685e-07
vn 0.70710679 -0.707106773 -5.98765142e-08
vn 0.707106595 -0.707106968 -4.13536203e-07
vn 0.252946928 0.252946928 -0.933828519
vn 0.252946928 0.252946928 -0.933828519
vn 0.252946966 0.252946846 -0.933828531
vn 0.25294689 0.252947011 -0.933828507
vn -0.707106863 0.7071067 1.3271205e-07
vn -0.707106834 0.707106728 1.59189333e-07
vn -0.707106798 0.707106764 1.19753017e-07
vn -0.707106972 0.70710659 3.12000533e-07
vn -0.707106717 0.707106846 2.67638747e-07
vn -0.392133524 -0.392134052 0.832143128
vn -0.392133524 -0.392134052 0.832143128
vn -0.39213352 -0.392134081 0.832143116
vn -0.392133527 -0.392134023 0.83214314
vn 0.996034961 -0.0889621036 -0.000317606632
vn 0.966069694 -0.258281343 -0.000305599914
vn 0.997503448 0.0706177804 -4.29546909e-07
vn 0.907072647 0.420974124 -5.578741e-07
vn 0.818110197 0.57506148 -2.98963991e-07
vn 0.575060593 0.818110821 -4.62499542e-08
vn 0.42097349 0.907072941 3.71915999e-07
vn 0.258818698 0.965925919 4.34889577e-07
vn 0.258818647 0.965925933 5.79852734e-07
vn 0.776207006 -0.630477778 -0.000675078951
vn 0.817971284 -0.57525892 0.000391856894
vn 0.533113633 -0.846043646 5.28375822e-05
vn 0.420915045 -0.907100061 -6.06579568e-05
vn 0.258895014 -0.965905365 0.000444458812
vn 0.258818992 -0.96592584 -1.03490869e-15
vn 0.518098665 -0.855320859 -4.29239068e-05
vn 0.707779133 -0.70643374 -0.00026304351
vn 0.708674542 -0.705535537 -2.04776923e-07
vn 0.259751334 -0.965675538 -2.95443297e-07
vn 0 1.71338727e-07 -1
vn 2.50053048e-08 1.46333422e-07 -1
vn 2.78730394e-08 1.42098845e-07 -1
vn 8.36191172e-08 8.36190846e-08 -1
vn 5.7112894e-08 9.89224601e-08 -1
vn -4.37433036e-08 -1.63252041e-07 1
vn 8.48284049e-07 4.89756736e-07 1
vn 1.11301451e-16 -1.92779362e-16 1
vn -4.89757938e-07 -1.82779937e-06 1
vn -4.89757019e-07 -4.89756458e-07 1
vn -3.9502105e-08 -4.82750084e-07 1
vn -6.61088418e-08 -5.32850383e-07 1
vn 4.37242211e-08 -3.06858502e-07 1
vn -3.4744233e-07 -7.97217586e-07 1
vn -7.34589448e-07 -6.57793746e-07 1
vn -6.92796903e-07 -4.65124157e-07 1
vn -6.42016664e-07 -1.14862574e-07 1
vn -1.4905159e-08 -6.11066593e-08 1
vn 0.965624033 -0.258737819 -0.0249993655
vn 0.986880317 0.160705058 0.0155281671
vn 0.969502131 0.245054191 0.00374975876
vn 0.836987756 0.547212998 0.00307096604
vn 0.888918236 0.458065901 2.58611689e-07
vn 0.57506053 0.818110865 3.24536317e-07
vn 0.420973557 0.90707291 3.35465648e-07
vn 0.258818809 0.96592589 3.68090226e-07
vn 0.258818801 0.965925892 3.74359555e-07
vn 0.962445228 0.271475936 6.56012522e-08
vn 0.472997084 -0.881063992 -5.28219891e-07
vn 0.361323264 -0.815912842 0.451366517
vn 0.58312917 -0.583128906 0.565615639
vn 0.28821476 -0.424666061 0.858248792
vn 0.156211213 -0.582987932 0.797322474
vn 0.229979421 -0.858294786 0.458736881
vn 0.258819012 -0.965925835 -5.10571573e-07
vn 0.0462576067 -0.172635591 0.983898972
vn 0.105773256 -0.138438067 0.984706515
vn 0.452488635 -0.242372659 0.858201334
vn 0.660101966 -0.274120939 0.699373366
vn 0.16082138 -0.0670040369 0.984706526
vn 0.542677046 0.0234466627 0.839614124
vn 0.172777038 0.0223838543 0.984706585
vn 0.430384163 0.301100981 0.850945164
vn 0.640904125 0.311676196 0.701498291
vn 0.399201059 0.590371931 0.701498038
vn 0.222173595 0.475953348 0.850944948
vn 0.187345871 0.699184278 0.6899586
vn 0.112982472 0.421655814 0.899689577
vn 0.707053151 0.115137343 0.697724325
vn 0.699183829 -0.187346222 0.68995896
vn 0.0670040593 0.160820768 0.984706625
vn 0.0462573891 0.17263504 0.983899079
vn 0.138437639 0.105772979 0.984706604
vn 0.699184107 -0.187346317 0.689958652
vn 0.996035012 -0.0889621009 7.02281611e-08
vn 0.907072879 -0.420973625 1.0282124e-07
vn 0.996035004 0.0889621901 7.02282195e-08
vn 0.818110661 -0.575060819 4.45230037e-08
vn 0.575061077 -0.81811048 -1.56752996e-07
vn 0.420973906 -0.907072748 -6.77071015e-08
vn 0.258819101 -0.965925811 1.36865721e-08
vn 0.258819385 -0.965925735 4.08631734e-07
vn 0.907072886 0.42097361 1.40456343e-07
vn 0.818110547 0.575060981 1.73049456e-07
vn 0.575060975 0.818110552 1.73049399e-07
vn 0.420973972 0.907072718 -1.88175236e-08
vn 0.258819107 0.96592581 -1.02157898e-07
vn 0.258819328 0.965925751 -4.08631567e-07
vn 0.933981566 -0.240679329 -0.264105842
vn 0.933981566 -0.240679329 -0.264105842
vn 0.932919407 -0.250547667 -0.258625688
vn 0.935142216 -0.228279604 -0.270919652
vn -1.15303082e-07 -2.38762671e-07 1
vn -0.136821506 -0.0825776376 0.987147815
vn -1.03220559e-07 -3.8357301e-07 1
vn -0.264187967 -0.203852039 0.942681847
vn -0.339346065 -0.204809545 0.918094384
vn -0.245224652 -0.240190285 0.939240915
vn -0.35862568 -0.351263311 0.86487092
vn 4.81359741e-07 6.23410492e-07 1
vn 4.56526612e-07 7.90727073e-07 1
vn 0.413855042 -0.11114729 0.903532116
vn -8.9046924e-07 -9.15805874e-07 1
vn -1.1767851e-06 -7.32153168e-07 1
vn 0.606076717 -0.156181662 0.779921984
vn 0.724698899 -0.186749419 0.663276836
vn 0.718169209 -0.175313851 0.673422632
vn 0.198858008 0.842500867 0.500647363
vn 0.221453995 0.924737673 0.309545416
vn 0.192454323 0.845210398 0.498578697
vn 0.234531257 0.961505951 0.143183083
vn 0.236972905 0.971516259 3.13018208e-07
vn 0.236972624 0.971516328 2.34763672e-07
vn -5.96377196e-07 -4.37028426e-07 1
vn -5.96377196e-07 -4.37028426e-07 1
vn -9.18093401e-07 2.48788395e-07 1
vn -2.61877051e-07 -1.15009734e-06 1
vn 0.966063262 -0.25830544 -0.000269746598
vn 0.966022375 -0.258458124 -0.000411617907
vn 0.965184513 -0.261549322 -0.00328751542
vn -0.0552685841 -0.998471524 -3.92328434e-07
vn -0.0552685841 -0.998471524 -3.92328434e-07
vn -0.0552685841 -0.998471524 -3.92328434e-07
vn 0.52589153 0.850551644 4.63010016e-07
vn 0.52589153 0.850551644 4.63010016e-07
vn 0.52589153 0.850551644 4.63010016e-07
vn 0.573576484 -0.819152011 -2.37508097e-08
vn 0.573576461 -0.819152027 -1.41987145e-07
vn 0.573576389 -0.819152078 1.33680878e-07
vn 0.57357647 -0.819152021 -3.23718932e-07
vn 0.57357632 -0.819152126 -5.29979103e-07
vn 0.573576331 -0.819152118 -2.48284821e-07
vn 0.573576409 -0.819152063 -9.14617071e-08
vn -0.57357634 0.819152112 9.67114322e-08
vn -0.573576357 0.8191521 1.68283551e-07
vn -0.573576378 0.819152085 2.31356469e-07
vn -0.573576323 0.819152124 8.09068643e-08
vn -0.573576392 0.819152075 4.19895885e-07
vn -0.573576449 0.819152036 4.64283182e-07
vn -0.573576319 0.819152127 7.42329362e-08
vn -0.167388315 -0.117206207 -0.978899309
vn -0.167388315 -0.117206207 -0.978899309
vn -0.167388382 -0.117206153 -0.978899304
vn -0.167388249 -0.117206261 -0.978899314
vn 0.81419143 0.570102702 0.109887328
vn 0.819152105 0.573576349 2.00444319e-07
vn 0.819151835 0.573576736 3.48910129e-07
vn 0.785967235 0.550339542 0.281747928
vn 0.644304804 0.451146658 0.617525718
vn 0.608658458 0.42618707 0.669252914
vn 0.424960495 0.297560427 0.854907229
vn 0.424960412 0.297560461 0.854907258
vn 0 0 1
vn 0 0 1
vn -0.819152295 -0.573576078 -2.70911987e-07
vn -0.819152295 -0.573576078 -2.70911987e-07
vn -0.819152248 -0.573576146 -2.16729615e-07
vn -0.819152342 -0.573576011 -3.25094346e-07
vn -5.37790554e-07 4.80335222e-08 1
vn -4.46013724e-07 -1.19508979e-07 1
vn -4.89757019e-07 -3.04081179e-16 1
vn -3.58527168e-07 -3.58526845e-07 1
vn 4.89756193e-07 -1.82779672e-06 1
vn 2.09046983e-08 1.92243435e-07 -1
vn 2.41386775e-08 1.94110594e-07 -1
vn 0 1.71338736e-07 -1
vn 7.24160289e-08 2.39654307e-07 -1
vn 5.71128909e-08 2.13148471e-07 -1
vn 0.704087146 -0.704087985 0.092311431
vn 0.704087146 -0.704087985 0.092311431
vn 0.704087228 -0.704087899 0.0923114634
vn 0.704087064 -0.704088071 0.0923113987
vn -0.707106908 0.707106655 4.68000945e-07
vn -0.707106908 0.707106655 4.68000945e-07
vn -0.707106865 0.707106697 4.16000848e-07
vn -0.70710695 0.707106613 5.20001048e-07
vn -0.707106971 -0.707106592 -1.88934464e-08
vn -0.707106897 -0.707106665 -9.63359608e-08
vn -0.707106815 -0.707106747 -1.38393965e-08
vn -0.707107214 -0.707106348 -4.16000643e-07
vn -0.707106595 -0.707106968 -4.13536203e-07
vn -0.252946909 0.252946969 -0.933828513
vn -0.252946909 0.252946969 -0.933828513
vn -0.252946852 0.252947093 -0.933828495
vn -0.252946966 0.252946846 -0.933828531
vn 0.707106863 0.7071067 1.3271205e-07
vn 0.707106834 0.707106728 1.59189333e-07
vn 0.707106972 0.70710659 3.12000533e-07
vn 0.707106798 0.707106764 1.19753017e-07
vn 0.707106717 0.707106846 2.67638747e-07
vn 0.392133524 -0.392134052 0.832143128
vn 0.392133524 -0.392134052 0.832143128
vn 0.392133527 -0.392134023 0.83214314
vn 0.39213352 -0.392134081 0.832143116

g ArmorBag_14_00_Bag_submesh_0
usemtl _bag15-Material_23_
f 1/1/1 3/3/3 2/2/2
f 4/4/4 1/1/1 2/2/2
f 4/4/4 2/2/2 5/5/5
f 6/6/6 4/4/4 5/5/5
f 6/6/6 5/5/5 7/7/7
f 8/8/8 6/6/6 7/7/7
f 8/8/8 7/7/7 9/9/9
f 1/1/1 10/10/10 3/3/3
f 1/1/1 11/11/11 10/10/10
f 11/11/11 12/12/12 10/10/10
f 11/11/11 13/13/13 12/12/12
f 13/13/13 14/14/14 12/12/12
f 13/13/13 15/15/15 14/14/14
f 12/12/12 16/16/16 10/10/10
f 16/16/16 12/12/12 17/17/17
f 17/17/17 12/12/12 18/18/18
f 18/18/18 12/12/12 14/14/14
f 18/18/18 14/14/14 19/19/19
f 20/20/20 22/22/22 21/21/21
f 23/23/23 21/21/21 22/22/22
f 23/23/23 24/24/24 21/21/21
f 25/25/25 27/27/27 26/26/26
f 25/25/25 26/26/26 28/28/28
f 28/28/28 29/29/29 25/25/25
f 30/30/30 32/32/32 31/31/31
f 30/30/30 31/31/31 33/33/33
f 32/32/32 34/34/34 31/31/31
f 32/32/32 35/35/35 34/34/34
f 35/35/35 36/36/36 34/34/34
f 35/35/35 37/37/37 36/36/36
f 38/38/38 40/40/40 39/39/39
f 39/39/39 40/40/40 41/41/41
f 42/42/42 39/39/39 41/41/41
f 43/43/43 42/42/42 41/41/41
f 43/43/43 41/41/41 44/44/44
f 45/45/45 43/43/43 44/44/44
f 45/45/45 44/44/44 46/46/46
f 42/42/42 47/47/47 39/39/39
f 48/48/48 50/50/50 49/49/49
f 51/51/51 50/50/50 48/48/48
f 49/49/49 50/50/50 52/52/52
f 50/50/50 53/53/53 52/52/52
f 50/50/50 54/54/54 53/53/53
f 55/55/55 54/54/54 50/50/50
f 52/52/52 53/53/53 56/56/56
f 52/52/52 56/56/56 57/57/57
f 58/58/58 52/52/52 57/57/57
f 49/49/49 52/52/52 58/58/58
f 59/59/59 49/49/49 58/58/58
f 58/58/58 57/57/57 60/60/60
f 61/61/61 58/58/58 60/60/60
f 61/61/61 60/60/60 62/62/62
f 63/63/63 61/61/61 62/62/62
f 64/64/64 61/61/61 63/63/63
f 65/65/65 64/64/64 63/63/63
f 65/65/65 63/63/63 66/66/66
f 67/67/67 65/65/65 66/66/66
f 67/67/67 66/66/66 68/68/68
f 64/64/64 69/69/69 61/61/61
f 69/69/69 70/70/70 61/61/61
f 68/68/68 66/66/66 71/71/71
f 68/68/68 71/71/71 72/72/72
f 66/66/66 63/63/63 73/73/73
f 66/66/66 73/73/73 71/71/71
f 63/63/63 62/62/62 73/73/73
f 74/74/74 59/59/59 58/58/58
f 74/74/74 58/58/58 61/61/61
f 70/70/70 74/74/74 61/61/61
f 75/75/75 77/77/77 76/76/76
f 75/75/75 76/76/76 78/78/78
f 77/77/77 79/79/79 76/76/76
f 77/77/77 80/80/80 79/79/79
f 80/80/80 81/81/81 79/79/79
f 80/80/80 82/82/82 81/81/81
f 83/83/83 75/75/75 78/78/78
f 83/83/83 78/78/78 84/84/84
f 85/85/85 83/83/83 84/84/84
f 85/85/85 84/84/84 86/86/86
f 87/87/87 85/85/85 86/86/86
f 87/87/87 86/86/86 88/88/88
f 89/89/89 91/91/91 90/90/90
f 89/89/89 90/90/90 92/92/92
f 93/93/93 95/95/95 94/94/94
f 93/93/93 94/94/94 96/96/96
f 95/95/95 97/97/97 94/94/94
f 95/95/95 99/99/99 98/98/98
f 99/99/99 100/100/100 97/97/97
f 99/99/99 101/101/101 100/100/100
f 102/102/102 104/104/104 103/103/103
f 102/102/102 103/103/103 105/105/105
f 104/104/104 102/102/102 106/106/106
f 104/104/104 106/106/106 107/107/107
f 108/108/108 110/110/110 109/109/109
f 108/108/108 109/109/109 111/111/111
f 110/110/110 112/112/112 109/109/109
f 110/110/110 113/113/113 112/112/112
f 114/114/114 116/116/116 115/115/115
f 114/114/114 115/115/115 117/117/117
f 3/3/3 118/118/118 2/2/2
f 118/118/118 3/3/3 119/119/119
f 118/118/118 119/119/119 120/120/120
f 121/121/121 123/123/123 122/122/122
f 124/124/124 126/126/126 125/125/125
f 127/127/127 129/129/129 128/128/128
f 130/130/130 129/129/129 127/127/127
f 130/130/130 131/131/131 129/129/129
f 132/132/132 131/131/131 130/130/130
f 132/132/132 133/133/133 131/131/131
f 134/134/134 136/136/136 135/135/135
f 134/134/134 135/135/135 137/137/137
f 138/138/138 137/137/137 135/135/135
f 138/138/138 139/139/139 137/137/137
f 134/134/134 140/140/140 136/136/136
f 141/141/141 143/143/143 142/142/142
f 141/141/141 142/142/142 144/144/144
f 145/145/145 147/147/147 146/146/146
f 145/145/145 146/146/146 148/148/148
f 149/149/149 147/147/147 145/145/145
f 149/149/149 150/150/150 147/147/147
f 151/151/151 150/150/150 149/149/149
f 151/151/151 152/152/152 150/150/150
f 151/151/151 153/153/153 152/152/152
f 151/151/151 154/154/154 153/153/153
f 155/155/155 157/157/157 156/156/156
f 155/155/155 156/156/156 158/158/158
f 159/159/159 161/161/161 160/160/160
f 162/162/162 161/161/161 159/159/159
f 162/162/162 163/163/163 161/161/161
f 164/164/164 166/166/166 165/165/165
f 167/167/167 166/166/166 164/164/164
f 167/167/167 168/168/168 166/166/166
f 169/169/169 171/171/171 170/170/170
f 169/169/169 170/170/170 172/172/172
f 173/173/173 175/175/175 174/174/174
f 173/173/173 174/174/174 176/176/176
f 177/177/177 179/179/179 178/178/178
f 177/177/177 178/178/178 180/180/180
f 180/180/180 178/178/178 181/181/181
f 182/182/182 184/184/184 183/183/183
f 182/182/182 183/183/183 185/185/185
f 186/186/186 188/188/188 187/187/187
f 186/186/186 187/187/187 189/189/189
f 188/188/188 190/190/190 187/187/187
f 191/191/191 193/193/193 192/192/192
f 191/191/191 192/192/192 194/194/194
f 195/195/195 197/197/197 196/196/196
f 198/198/198 197/197/197 195/195/195
f 198/198/198 199/199/199 197/197/197
f 200/200/200 199/199/199 198/198/198
f 200/200/200 201/201/201 199/199/199
f 202/202/202 201/201/201 200/200/200
f 202/202/202 203/203/203 201/201/201
f 195/195/195 196/196/196 204/204/204
f 195/195/195 204/204/204 205/205/205
f 205/205/205 204/204/204 206/206/206
f 205/205/205 206/206/206 207/207/207
f 207/207/207 206/206/206 208/208/208
f 207/207/207 208/208/208 209/209/209
f 204/204/204 210/210/210 206/206/206
f 210/210/210 208/208/208 206/206/206
f 210/210/210 204/204/204 211/211/211
f 211/211/211 204/204/204 212/212/212
f 210/210/210 213/213/213 208/208/208
f 214/214/214 216/216/216 215/215/215
f 217/217/217 215/215/215 216/216/216
f 217/217/217 216/216/216 218/218/218
f 219/219/219 221/221/221 220/220/220
f 219/219/219 220/220/220 222/222/222
f 221/221/221 219/219/219 223/223/223
f 224/224/224 226/226/226 225/225/225
f 224/224/224 225/225/225 227/227/227
f 227/227/227 225/225/225 228/228/228
f 227/227/227 228/228/228 229/229/229
f 229/229/229 228/228/228 230/230/230
f 229/229/229 230/230/230 231/231/231
f 232/232/232 234/234/234 233/233/233
f 234/234/234 235/235/235 233/233/233
f 236/236/236 235/235/235 234/234/234
f 237/237/237 235/235/235 236/236/236
f 237/237/237 238/238/238 235/235/235
f 239/239/239 238/238/238 237/237/237
f 239/239/239 240/240/240 238/238/238
f 236/236/236 234/234/234 241/241/241
f 242/242/242 244/244/244 243/243/243
f 51/51/51 242/242/242 243/243/243
f 244/244/244 245/245/245 243/243/243
f 243/243/243 245/245/245 246/246/246
f 243/243/243 246/246/246 247/247/247
f 248/248/248 243/243/243 247/247/247
f 245/245/245 249/249/249 246/246/246
f 245/245/245 250/250/250 249/249/249
f 251/251/251 250/250/250 245/245/245
f 244/244/244 251/251/251 245/245/245
f 252/252/252 251/251/251 244/244/244
f 251/251/251 253/253/253 250/250/250
f 254/254/254 253/253/253 251/251/251
f 254/254/254 255/255/255 253/253/253
f 256/256/256 255/255/255 254/254/254
f 257/257/257 256/256/256 254/254/254
f 258/258/258 256/256/256 257/257/257
f 258/258/258 259/259/259 256/256/256
f 260/260/260 259/259/259 258/258/258
f 260/260/260 261/261/261 259/259/259
f 257/257/257 254/254/254 262/262/262
f 262/262/262 254/254/254 263/263/263
f 261/261/261 264/264/264 259/259/259
f 261/261/261 265/265/265 264/264/264
f 259/259/259 264/264/264 266/266/266
f 259/259/259 266/266/266 256/256/256
f 256/256/256 266/266/266 255/255/255
f 267/267/267 254/254/254 251/251/251
f 263/263/263 254/254/254 267/267/267
f 267/267/267 251/251/251 252/252/252
f 268/268/268 270/270/270 269/269/269
f 268/268/268 269/269/269 271/271/271
f 271/271/271 269/269/269 272/272/272
f 271/271/271 272/272/272 273/273/273
f 273/273/273 272/272/272 274/274/274
f 273/273/273 274/274/274 275/275/275
f 276/276/276 270/270/270 268/268/268
f 276/276/276 277/277/277 270/270/270
f 278/278/278 277/277/277 276/276/276
f 278/278/278 279/279/279 277/277/277
f 280/280/280 279/279/279 278/278/278
f 280/280/280 281/281/281 279/279/279
f 282/282/282 284/284/284 283/283/283
f 282/282/282 283/283/283 285/285/285
f 286/286/286 288/288/288 287/287/287
f 286/286/286 287/287/287 289/289/289
f 289/289/289 287/287/287 290/290/290
f 289/289/289 292/292/292 291/291/291
f 291/291/291 290/290/290 293/293/293
f 291/291/291 293/293/293 294/294/294
f 295/295/295 297/297/297 296/296/296
f 295/295/295 296/296/296 298/298/298
f 298/298/298 299/299/299 295/295/295
f 298/298/298 300/300/300 299/299/299
f 301/301/301 303/303/303 302/302/302
f 301/301/301 302/302/302 304/304/304
f 304/304/304 302/302/302 305/305/305
f 304/304/304 305/305/305 306/306/306
f 307/307/307 309/309/309 308/308/308
f 307/307/307 308/308/308 310/310/310
f 311/311/311 196/196/196 197/197/197
f 196/196/196 311/311/311 312/312/312
f 312/312/312 311/311/311 313/313/313
f 314/314/314 316/316/316 315/315/315
f 317/317/317 319/319/319 318/318/318
f 320/320/320 322/322/322 321/321/321
f 323/323/323 320/320/320 321/321/321
f 323/323/323 321/321/321 324/324/324
f 325/325/325 323/323/323 324/324/324
f 325/325/325 324/324/324 326/326/326
f 327/327/327 329/329/329 328/328/328
f 327/327/327 328/328/328 330/330/330
f 331/331/331 328/328/328 329/329/329
f 331/331/331 329/329/329 332/332/332
f 327/327/327 330/330/330 333/333/333
f 334/334/334 336/336/336 335/335/335
f 334/334/334 335/335/335 337/337/337
f 338/338/338 340/340/340 339/339/339
f 338/338/338 339/339/339 341/341/341
f 342/342/342 338/338/338 341/341/341
f 342/342/342 341/341/341 343/343/343
f 344/344/344 342/342/342 343/343/343
f 344/344/344 343/343/343 345/345/345
f 344/344/344 345/345/345 346/346/346
f 344/344/344 346/346/346 347/347/347
f 348/348/348 350/350/350 349/349/349
f 348/348/348 349/349/349 351/351/351
f 352/352/352 354/354/354 353/353/353
f 355/355/355 352/352/352 353/353/353
f 355/355/355 353/353/353 356/356/356
f 357/357/357 359/359/359 358/358/358
f 360/360/360 357/357/357 358/358/358
f 360/360/360 358/358/358 361/361/361
f 362/362/362 364/364/364 363/363/363
f 362/362/362 363/363/363 365/365/365
f 366/366/366 368/368/368 367/367/367
f 366/366/366 367/367/367 369/369/369
f 370/370/370 372/372/372 371/371/371
f 370/370/370 371/371/371 373/373/373
f 372/372/372 374/374/374 371/371/371
f 375/375/375 377/377/377 376/376/376
f 375/375/375 376/376/376 378/378/378
f 379/379/379 381/381/381 380/380/380
f 379/379/379 380/380/380 382/382/382
f 382/382/382 380/380/380 383/383/383
f 384/384/384 386/386/386 385/385/385
f 384/384/384 385/385/385 387/387/387
