{"asset":{"version":"2.0","generator":"Star Warfare Unity lightmap restoration"},"scene":0,"scenes":[{"nodes":[0]}],"nodes":[{"name":"RestoredStage","mesh":0}],"meshes":[{"name":"RestoredStage","primitives":[{"attributes":{"POSITION":0,"NORMAL":1,"TEXCOORD_0":2,"TEXCOORD_1":3},"indices":4,"material":0},{"attributes":{"POSITION":5,"NORMAL":6,"TEXCOORD_0":7,"TEXCOORD_1":8},"indices":9,"material":1},{"attributes":{"POSITION":10,"NORMAL":11,"TEXCOORD_0":12,"TEXCOORD_1":13},"indices":14,"material":2},{"attributes":{"POSITION":15,"NORMAL":16,"TEXCOORD_0":17,"TEXCOORD_1":18},"indices":19,"material":3},{"attributes":{"POSITION":20,"NORMAL":21,"TEXCOORD_0":22,"TEXCOORD_1":23},"indices":24,"material":4},{"attributes":{"POSITION":25,"NORMAL":26,"TEXCOORD_0":27,"TEXCOORD_1":28},"indices":29,"material":5},{"attributes":{"POSITION":30,"NORMAL":31,"TEXCOORD_0":32,"TEXCOORD_1":33},"indices":34,"material":6},{"attributes":{"POSITION":35,"NORMAL":36,"TEXCOORD_0":37,"TEXCOORD_1":38},"indices":39,"material":7},{"attributes":{"POSITION":40,"NORMAL":41,"TEXCOORD_0":42,"TEXCOORD_1":43},"indices":44,"material":8},{"attributes":{"POSITION":45,"NORMAL":46,"TEXCOORD_0":47,"TEXCOORD_1":48},"indices":49,"material":9},{"attributes":{"POSITION":50,"NORMAL":51,"TEXCOORD_0":52,"TEXCOORD_1":53},"indices":54,"material":10},{"attributes":{"POSITION":55,"NORMAL":56,"TEXCOORD_0":57,"TEXCOORD_1":58},"indices":59,"material":11}]}],"bufferViews":[{"buffer":0,"byteOffset":0,"byteLength":1416},{"buffer":0,"byteOffset":1416,"byteLength":1416},{"buffer":0,"byteOffset":2832,"byteLength":944},{"buffer":0,"byteOffset":3776,"byteLength":944},{"buffer":0,"byteOffset":4720,"byteLength":864},{"buffer":0,"byteOffset":5584,"byteLength":1212},{"buffer":0,"byteOffset":6796,"byteLength":1212},{"buffer":0,"byteOffset":8008,"byteLength":808},{"buffer":0,"byteOffset":8816,"byteLength":808},{"buffer":0,"byteOffset":9624,"byteLength":912},{"buffer":0,"byteOffset":10536,"byteLength":2724},{"buffer":0,"byteOffset":13260,"byteLength":2724},{"buffer":0,"byteOffset":15984,"byteLength":1816},{"buffer":0,"byteOffset":17800,"byteLength":1816},{"buffer":0,"byteOffset":19616,"byteLength":1968},{"buffer":0,"byteOffset":21584,"byteLength":1128},{"buffer":0,"byteOffset":22712,"byteLength":1128},{"buffer":0,"byteOffset":23840,"byteLength":752},{"buffer":0,"byteOffset":24592,"byteLength":752},{"buffer":0,"byteOffset":25344,"byteLength":1260},{"buffer":0,"byteOffset":26604,"byteLength":300},{"buffer":0,"byteOffset":26904,"byteLength":300},{"buffer":0,"byteOffset":27204,"byteLength":200},{"buffer":0,"byteOffset":27404,"byteLength":200},{"buffer":0,"byteOffset":27604,"byteLength":384},{"buffer":0,"byteOffset":27988,"byteLength":264},{"buffer":0,"byteOffset":28252,"byteLength":264},{"buffer":0,"byteOffset":28516,"byteLength":176},{"buffer":0,"byteOffset":28692,"byteLength":176},{"buffer":0,"byteOffset":28868,"byteLength":240},{"buffer":0,"byteOffset":29108,"byteLength":264},{"buffer":0,"byteOffset":29372,"byteLength":264},{"buffer":0,"byteOffset":29636,"byteLength":176},{"buffer":0,"byteOffset":29812,"byteLength":176},{"buffer":0,"byteOffset":29988,"byteLength":240},{"buffer":0,"byteOffset":30228,"byteLength":4560},{"buffer":0,"byteOffset":34788,"byteLength":4560},{"buffer":0,"byteOffset":39348,"byteLength":3040},{"buffer":0,"byteOffset":42388,"byteLength":3040},{"buffer":0,"byteOffset":45428,"byteLength":3540},{"buffer":0,"byteOffset":48968,"byteLength":696},{"buffer":0,"byteOffset":49664,"byteLength":696},{"buffer":0,"byteOffset":50360,"byteLength":464},{"buffer":0,"byteOffset":50824,"byteLength":464},{"buffer":0,"byteOffset":51288,"byteLength":264},{"buffer":0,"byteOffset":51552,"byteLength":7056},{"buffer":0,"byteOffset":58608,"byteLength":7056},{"buffer":0,"byteOffset":65664,"byteLength":4704},{"buffer":0,"byteOffset":70368,"byteLength":4704},{"buffer":0,"byteOffset":75072,"byteLength":6420},{"buffer":0,"byteOffset":81492,"byteLength":26640},{"buffer":0,"byteOffset":108132,"byteLength":26640},{"buffer":0,"byteOffset":134772,"byteLength":17760},{"buffer":0,"byteOffset":152532,"byteLength":17760},{"buffer":0,"byteOffset":170292,"byteLength":11592},{"buffer":0,"byteOffset":181884,"byteLength":90924},{"buffer":0,"byteOffset":272808,"byteLength":90924},{"buffer":0,"byteOffset":363732,"byteLength":60616},{"buffer":0,"byteOffset":424348,"byteLength":60616},{"buffer":0,"byteOffset":484964,"byteLength":57516}],"accessors":[{"bufferView":0,"componentType":5126,"count":118,"type":"VEC3","min":[-13.1620435,2.54646131,4.63815165],"max":[0.275007248,62.8400841,15.160037]},{"bufferView":1,"componentType":5126,"count":118,"type":"VEC3","min":[-0.99998647,-0.263737247,-0.999994498],"max":[0.994136264,1.27483472e-05,0.996949171]},{"bufferView":2,"componentType":5126,"count":118,"type":"VEC2"},{"bufferView":3,"componentType":5126,"count":118,"type":"VEC2"},{"bufferView":4,"componentType":5125,"count":216,"type":"SCALAR"},{"bufferView":5,"componentType":5126,"count":101,"type":"VEC3","min":[-9.62081337,10.4869709,4.38741636],"max":[1.76680803,40.607399,15.3777819]},{"bufferView":6,"componentType":5126,"count":101,"type":"VEC3","min":[-1.0,-0.385640103,-0.999961997],"max":[1.0,5.9638773e-08,0.999961996]},{"bufferView":7,"componentType":5126,"count":101,"type":"VEC2"},{"bufferView":8,"componentType":5126,"count":101,"type":"VEC2"},{"bufferView":9,"componentType":5125,"count":228,"type":"SCALAR"},{"bufferView":10,"componentType":5126,"count":227,"type":"VEC3","min":[-21.057476,-9.96589051e-07,1.34262156],"max":[0.11112386,28.618948,18.4555645]},{"bufferView":11,"componentType":5126,"count":227,"type":"VEC3","min":[-0.995697811,-0.925581437,-0.952230392],"max":[0.999509212,0.987365866,0.952230392]},{"bufferView":12,"componentType":5126,"count":227,"type":"VEC2"},{"bufferView":13,"componentType":5126,"count":227,"type":"VEC2"},{"bufferView":14,"componentType":5125,"count":492,"type":"SCALAR"},{"bufferView":15,"componentType":5126,"count":94,"type":"VEC3","min":[-302.499451,-20.7081337,-305.578705],"max":[320.507629,617.869263,311.80304]},{"bufferView":16,"componentType":5126,"count":94,"type":"VEC3","min":[-0.993992594,-0.999884134,-0.994359471],"max":[0.984176173,-0.0924123404,0.990228349]},{"bufferView":17,"componentType":5126,"count":94,"type":"VEC2"},{"bufferView":18,"componentType":5126,"count":94,"type":"VEC2"},{"bufferView":19,"componentType":5125,"count":315,"type":"SCALAR"},{"bufferView":20,"componentType":5126,"count":25,"type":"VEC3","min":[-66.018837,-3.22664528e-06,-62.1866798],"max":[50.4367142,1.15607872e-05,61.8593102]},{"bufferView":21,"componentType":5126,"count":25,"type":"VEC3","min":[0.0,1.0,1.1920929e-07],"max":[0.0,1.0,1.1920929e-07]},{"bufferView":22,"componentType":5126,"count":25,"type":"VEC2"},{"bufferView":23,"componentType":5126,"count":25,"type":"VEC2"},{"bufferView":24,"componentType":5125,"count":96,"type":"SCALAR"},{"bufferView":25,"componentType":5126,"count":22,"type":"VEC3","min":[-202.599365,-7.46647129e-05,-218.231461],"max":[204.905029,84.7507553,205.567337]},{"bufferView":26,"componentType":5126,"count":22,"type":"VEC3","min":[-0.992175452,-0.0644803338,-0.991598832],"max":[0.984645874,0.0615391239,0.959249474]},{"bufferView":27,"componentType":5126,"count":22,"type":"VEC2"},{"bufferView":28,"componentType":5126,"count":22,"type":"VEC2"},{"bufferView":29,"componentType":5125,"count":60,"type":"SCALAR"},{"bufferView":30,"componentType":5126,"count":22,"type":"VEC3","min":[-168.592529,-6.92933027e-05,-172.512405],"max":[160.685303,61.5276642,160.508682]},{"bufferView":31,"componentType":5126,"count":22,"type":"VEC3","min":[-0.972505705,-0.0623333473,-0.982808848],"max":[0.997576097,0.0633140813,0.998569533]},{"bufferView":32,"componentType":5126,"count":22,"type":"VEC2"},{"bufferView":33,"componentType":5126,"count":22,"type":"VEC2"},{"bufferView":34,"componentType":5125,"count":60,"type":"SCALAR"},{"bufferView":35,"componentType":5126,"count":380,"type":"VEC3","min":[-69.6828232,-0.0578465201,-53.4173584],"max":[47.5127869,13.8492403,57.2019348]},{"bufferView":36,"componentType":5126,"count":380,"type":"VEC3","min":[-0.992999121,-0.17652059,-0.995468946],"max":[0.995015962,0.999980926,0.952113911]},{"bufferView":37,"componentType":5126,"count":380,"type":"VEC2"},{"bufferView":38,"componentType":5126,"count":380,"type":"VEC2"},{"bufferView":39,"componentType":5125,"count":885,"type":"SCALAR"},{"bufferView":40,"componentType":5126,"count":58,"type":"VEC3","min":[-63.989769,-0.470323354,-12.6750746],"max":[-60.9891167,0.58028084,-10.4511642]},{"bufferView":41,"componentType":5126,"count":58,"type":"VEC3","min":[-0.815118056,0.185232705,-0.769903139],"max":[0.38981102,0.927984945,0.904977071]},{"bufferView":42,"componentType":5126,"count":58,"type":"VEC2"},{"bufferView":43,"componentType":5126,"count":58,"type":"VEC2"},{"bufferView":44,"componentType":5125,"count":66,"type":"SCALAR"},{"bufferView":45,"componentType":5126,"count":588,"type":"VEC3","min":[-63.4736176,-0.639439583,-61.1159592],"max":[44.6983376,6.35685778,62.5405731]},{"bufferView":46,"componentType":5126,"count":588,"type":"VEC3","min":[-0.998395687,-0.704450568,-0.996703578],"max":[0.999400869,0.995040676,0.999026102]},{"bufferView":47,"componentType":5126,"count":588,"type":"VEC2"},{"bufferView":48,"componentType":5126,"count":588,"type":"VEC2"},{"bufferView":49,"componentType":5125,"count":1605,"type":"SCALAR"},{"bufferView":50,"componentType":5126,"count":2220,"type":"VEC3","min":[-65.7646332,-0.175063893,-4.45835114],"max":[38.5019341,8.6154356,42.3465919]},{"bufferView":51,"componentType":5126,"count":2220,"type":"VEC3","min":[-0.998855804,-0.996151903,-0.994847384],"max":[0.993773679,0.999949802,0.999642264]},{"bufferView":52,"componentType":5126,"count":2220,"type":"VEC2"},{"bufferView":53,"componentType":5126,"count":2220,"type":"VEC2"},{"bufferView":54,"componentType":5125,"count":2898,"type":"SCALAR"},{"bufferView":55,"componentType":5126,"count":7577,"type":"VEC3","min":[-107.492401,-2.00438309,-124.85183],"max":[145.40181,59.5040092,111.47242]},{"bufferView":56,"componentType":5126,"count":7577,"type":"VEC3","min":[-0.999123938,-0.999950517,-0.999771846],"max":[0.999611784,0.999278296,0.998901366]},{"bufferView":57,"componentType":5126,"count":7577,"type":"VEC2"},{"bufferView":58,"componentType":5126,"count":7577,"type":"VEC2"},{"bufferView":59,"componentType":5125,"count":14379,"type":"SCALAR"}],"materials":[{"name":"SC04-02___Default","pbrMetallicRoughness":{"baseColorFactor":[1.0,1.0,1.0,0.5],"metallicFactor":0.0,"roughnessFactor":1.0,"baseColorTexture":{"index":0}},"doubleSided":true,"alphaMode":"BLEND"},{"name":"SC04-Standard_2","pbrMetallicRoughness":{"baseColorFactor":[1.0,1.0,1.0,1.0],"metallicFactor":0.0,"roughnessFactor":1.0,"baseColorTexture":{"index":1}},"doubleSided":true,"alphaMode":"BLEND"},{"name":"SC04-Standard_19","pbrMetallicRoughness":{"baseColorFactor":[1.0,1.0,1.0,1.0],"metallicFactor":0.0,"roughnessFactor":1.0,"baseColorTexture":{"index":2}},"doubleSided":false},{"name":"SC04-Standard_17","pbrMetallicRoughness":{"baseColorFactor":[1.0,1.0,1.0,1.0],"metallicFactor":0.0,"roughnessFactor":1.0,"baseColorTexture":{"index":3}},"doubleSided":false},{"name":"SC04-orig_Standard_19","pbrMetallicRoughness":{"baseColorFactor":[1.0,1.0,1.0,1.0],"metallicFactor":0.0,"roughnessFactor":1.0,"baseColorTexture":{"index":4}},"doubleSided":false},{"name":"SC04-Standard_16asd","pbrMetallicRoughness":{"baseColorFactor":[1.0,1.0,1.0,1.0],"metallicFactor":0.0,"roughnessFactor":1.0,"baseColorTexture":{"index":5}},"doubleSided":false,"alphaMode":"BLEND"},{"name":"SC04-Standard_15asd","pbrMetallicRoughness":{"baseColorFactor":[1.0,1.0,1.0,1.0],"metallicFactor":0.0,"roughnessFactor":1.0,"baseColorTexture":{"index":6}},"doubleSided":false,"alphaMode":"BLEND"},{"name":"SC04-Standard_23","pbrMetallicRoughness":{"baseColorFactor":[1.0,1.0,1.0,1.0],"metallicFactor":0.0,"roughnessFactor":1.0,"baseColorTexture":{"index":7}},"doubleSided":false},{"name":"SC04-Standard_22","pbrMetallicRoughness":{"baseColorFactor":[0.694118,0.686275,0.678431,1.0],"metallicFactor":0.0,"roughnessFactor":1.0,"baseColorTexture":{"index":8}},"doubleSided":false},{"name":"SC04-Standard_3","pbrMetallicRoughness":{"baseColorFactor":[1.0,1.0,1.0,1.0],"metallicFactor":0.0,"roughnessFactor":1.0,"baseColorTexture":{"index":9}},"doubleSided":false},{"name":"SC04-Standard_21sss","pbrMetallicRoughness":{"baseColorFactor":[0.588,0.588,0.588,1.0],"metallicFactor":0.0,"roughnessFactor":1.0,"baseColorTexture":{"index":10}},"doubleSided":false},{"name":"SC04-Standard_1","pbrMetallicRoughness":{"baseColorFactor":[1.0,1.0,1.0,1.0],"metallicFactor":0.0,"roughnessFactor":1.0,"baseColorTexture":{"index":9}},"doubleSided":false}],"images":[{"uri":"light_sfx.png"},{"uri":"light_sfx_2.png"},{"uri":"LM.png"},{"uri":"sc_sky_line.png"},{"uri":"g.png"},{"uri":"Mt_12.png"},{"uri":"Mt_1.png"},{"uri":"g_1.png"},{"uri":"05.png"},{"uri":"MT_3.png"},{"uri":"bug04.png"}],"textures":[{"source":0,"sampler":0},{"source":1,"sampler":0},{"source":2,"sampler":0},{"source":3,"sampler":0},{"source":4,"sampler":0},{"source":5,"sampler":0},{"source":6,"sampler":0},{"source":7,"sampler":0},{"source":8,"sampler":0},{"source":9,"sampler":0},{"source":10,"sampler":0}],"samplers":[{"magFilter":9729,"minFilter":9987,"wrapS":10497,"wrapT":10497}],"buffers":[{"uri":"stage.bin","byteLength":542480}]}
