# Generated from legacy Unity YAML Mesh assets without Unity.
mtllib ArmorBag_04.mtl

o ArmorBag_04_00_Bag
v 0.223444042 -0.182402968 -0.111518152
v 0.257001412 -0.0574564338 -0.01461339
v 0.28230865 -0.0575129017 -0.128983587
v 0.151599196 -0.212525249 -0.0266935378
v 0.19051784 0.113678187 -0.161278814
v 0.181434495 0.078551501 -0.00608928502
v 0.15214136 -0.0797521397 0.0569351465
v 0.133710546 0.108612925 -0.160431355
v 0.120041562 0.0813286901 -0.0179214329
v 0.0716957797 0.0477331877 -0.0486286879
v 0.0613961828 0.0487595499 -0.142929614
v -1.13805139e-08 0.0487595499 -0.128366888
v -1.13805139e-08 0.0477331877 -0.0486286879
v -1.13805139e-08 -0.134437263 0.0140188634
v 0.133710546 0.108612925 -0.160431355
v -1.13805139e-08 -0.139038146 -0.21631667
v 0.19051784 0.113678187 -0.161278814
v 0.28230865 -0.0575129017 -0.128983587
v 0.223444042 -0.182402968 -0.111518152
v 0.0613961828 0.0487595499 -0.142929614
v -1.13805139e-08 0.0487595499 -0.128366888
v 0.200539408 -0.350376785 -0.178733766
v -1.16690653e-08 -0.456005394 -0.225855231
v 0.153893707 -0.325065553 -0.054116182
v 0.237970067 -0.255841494 -0.128946841
v 0.129370285 -0.013206929 -0.0741940811
v 0.0606160623 -0.195627928 0.0605873764
v -1.16690653e-08 -0.386859536 0.00592173636
v -1.13805139e-08 -0.013206929 -0.0741940811
v -1.13805139e-08 -0.195627928 0.0605873764
v -1.13805139e-08 -0.174485087 -0.336843193
v -1.16690653e-08 -0.456005394 -0.225855231
v 0.200539408 -0.350376785 -0.178733766
v 0.237970067 -0.255841494 -0.128946841
v -1.13805139e-08 -0.174485087 -0.336843193
v 0.129370285 -0.013206929 -0.0741940811
v -0.223444077 -0.182402968 -0.111518152
v -0.257001447 -0.0574564338 -0.01461339
v -0.151599231 -0.212525249 -0.0266935378
v -0.282308685 -0.0575129017 -0.128983587
v -0.19051786 0.113678187 -0.161278814
v -0.18143453 0.078551501 -0.00608928502
v -0.152141395 -0.0797521397 0.0569351465
v -0.13371061 0.108612925 -0.160431355
v -0.120041596 0.0813286901 -0.0179214329
v -0.0716957997 0.0477331877 -0.0486286879
v -0.0613962027 0.0487595499 -0.142929614
v -1.13805139e-08 0.0487595499 -0.128366888
v -1.13805139e-08 0.0477331877 -0.0486286879
v -1.13805139e-08 -0.134437263 0.0140188634
v -0.13371061 0.108612925 -0.160431355
v -0.19051786 0.113678187 -0.161278814
v -1.13805139e-08 -0.139038146 -0.21631667
v -0.282308685 -0.0575129017 -0.128983587
v -0.223444077 -0.182402968 -0.111518152
v -0.0613962027 0.0487595499 -0.142929614
v -1.13805139e-08 0.0487595499 -0.128366888
v -0.200539442 -0.350376785 -0.178733766
v -0.153893742 -0.325065553 -0.054116182
v -1.16690653e-08 -0.456005394 -0.225855231
v -0.237970101 -0.255841494 -0.128946841
v -0.129370319 -0.013206929 -0.0741940811
v -0.0606160822 -0.195627928 0.0605873764
v -1.16690653e-08 -0.386859536 0.00592173636
v -1.13805139e-08 -0.013206929 -0.0741940811
v -1.13805139e-08 -0.195627928 0.0605873764
v -1.13805139e-08 -0.174485087 -0.336843193
v -0.200539442 -0.350376785 -0.178733766
v -1.16690653e-08 -0.456005394 -0.225855231
v -1.13805139e-08 -0.174485087 -0.336843193
v -0.237970101 -0.255841494 -0.128946841
v -0.129370319 -0.013206929 -0.0741940811
vt 0.465873003 0.0439609997
vt 0.413529009 0.266447008
vt 0.55469799 0.298262
vt 0.26135999 0.00683799991
vt 0.406980991 0.572986007
vt 0.301849008 0.402065009
vt 0.216066003 0.234758005
vt 0.300458014 0.618916988
vt 0.211778998 0.443147004
vt 0.110785998 0.468789995
vt 0.110785998 0.589273989
vt 0.00549100013 0.589273989
vt 0.00549100013 0.468789995
vt 0.00549100013 0.178168997
vt 0.83911097 0.276528001
vt 0.929512978 0.0227879994
vt 0.781983018 0.273851007
vt 0.667258024 0.148328006
vt 0.707578003 0.0211859997
vt 0.914159 0.208834007
vt 0.969631016 0.202023998
vt 0.918751001 0.453043997
vt 0.583176017 0.250934005
vt 0.795255005 0.613336027
vt 0.996034026 0.632238984
vt 0.94670397 1.03886902
vt 0.667183995 0.863997996
vt 0.516946971 0.615357995
vt 0.801919997 1.15934598
vt 0.594271004 0.901934981
vt 0.350519001 0.934370995
vt 0.438230991 0.648257017
vt 0.197246999 0.676508009
vt 0.105573997 0.728805006
vt 0.350519001 0.934370995
vt 0.047104001 0.983412027
vt 0.465873003 0.0439609997
vt 0.413529009 0.266447008
vt 0.26135999 0.00683799991
vt 0.55469799 0.298262
vt 0.406980991 0.572986007
vt 0.301849008 0.402065009
vt 0.216066003 0.234758005
vt 0.300458014 0.618916988
vt 0.211778998 0.443147004
vt 0.110785998 0.468789995
vt 0.110785998 0.589273989
vt 0.00549100013 0.589273989
vt 0.00549100013 0.468789995
vt 0.00549100013 0.178168997
vt 0.83911097 0.276528001
vt 0.781983018 0.273851007
vt 0.929512978 0.0227879994
vt 0.667258024 0.148328006
vt 0.707578003 0.0211859997
vt 0.914159 0.208834007
vt 0.969631016 0.202023998
vt 0.918751001 0.453043997
vt 0.795255005 0.613336027
vt 0.583176017 0.250934005
vt 0.996034026 0.632238984
vt 0.94670397 1.03886902
vt 0.667183995 0.863997996
vt 0.516946971 0.615357995
vt 0.801919997 1.15934598
vt 0.594271004 0.901934981
vt 0.350519001 0.934370995
vt 0.197246999 0.676508009
vt 0.438230991 0.648257017
vt 0.350519001 0.934370995
vt 0.105573997 0.728805006
vt 0.047104001 0.983412027
vn 0.817707375 -0.473495724 0.327347594
vn 0.87732477 0.0250414787 0.479243334
vn 0.966308724 0.143383542 0.21374894
vn 0.412737224 -0.544077579 0.730498167
vn 0.76977804 0.607949173 0.194523961
vn 0.496560739 0.653547003 0.57123003
vn -0.00262192199 0.0266100292 0.999642452
vn -0.295900649 0.941177551 0.16317973
vn -0.47954693 0.708991691 0.517074003
vn -0.351045812 0.571435634 0.741773654
vn -0.484057399 0.872271166 0.0695086101
vn 0.00128215696 0.999930521 0.0117179171
vn 0 0.613670267 0.789562413
vn -0.21136813 0.0751845255 0.974510544
vn -0.308214766 0.36468507 -0.878640119
vn 0.154982669 0.0317749931 -0.987406057
vn 0.239646446 0.030668665 -0.970375708
vn 0.325189341 -0.121450386 -0.937817518
vn 0.358782427 -0.293041421 -0.886229031
vn -0.391733457 0.443160293 -0.806321185
vn -0.210013102 0.414657642 -0.885411507
vn 0.514661232 -0.782037664 0.351483867
vn 0.418021303 -0.863081391 0.283458467
vn 0.669953262 -0.425063975 0.608673348
vn 0.696440464 -0.0742978098 0.713758023
vn 0.59456123 0.252796781 0.763276314
vn 0.47363307 0.132818398 0.870649751
vn 0.42991107 -0.658217707 0.618001555
vn 0 0.59424434 0.804284567
vn 0 0.209647683 0.977776994
vn 0.380765769 -0.339142317 -0.860232479
vn 0.380765769 -0.339142317 -0.860232479
vn 0.501549943 -0.187374814 -0.844593591
vn 0.681704316 0.344082305 -0.645667556
vn 0.681704316 0.344082305 -0.645667556
vn 0.67202178 0.43588079 -0.598660725
vn -0.817707375 -0.473495724 0.327347594
vn -0.877324778 0.0250414968 0.479243318
vn -0.412737212 -0.544077581 0.730498173
vn -0.966308717 0.14338359 0.213748938
vn -0.769778096 0.60794912 0.194523908
vn -0.496560791 0.653546962 0.571230032
vn 0.0026219218 0.0266100354 0.999642452
vn 0.295900659 0.941177558 0.163179668
vn 0.479546848 0.708991777 0.517073961
vn 0.351045786 0.571435632 0.741773668
vn 0.484057273 0.87227124 0.0695085682
vn -0.00128215702 0.999930521 0.0117179171
vn 0 0.613670267 0.789562413
vn 0.211368118 0.0751845118 0.974510548
vn 0.308214791 0.364685128 -0.878640086
vn -0.239646472 0.0306686466 -0.970375702
vn -0.154982667 0.0317750026 -0.987406057
vn -0.325189325 -0.121450373 -0.937817525
vn -0.358782413 -0.293041415 -0.886229039
vn 0.391733342 0.443160276 -0.80632125
vn 0.210013111 0.414657641 -0.885411505
vn -0.514661217 -0.782037675 0.351483864
vn -0.669953236 -0.425063983 0.608673371
vn -0.418021281 -0.863081402 0.283458467
vn -0.696440464 -0.0742978098 0.713758023
vn -0.594561196 0.252796786 0.763276339
vn -0.473633039 0.132818401 0.870649767
vn -0.429911051 -0.658217714 0.618001561
vn 0 0.59424434 0.804284567
vn 0 0.209647683 0.977776994
vn -0.38076575 -0.339142319 -0.860232486
vn -0.501549923 -0.187374813 -0.844593603
vn -0.38076575 -0.339142319 -0.860232486
vn -0.681704298 0.344082307 -0.645667574
vn -0.681704298 0.344082307 -0.645667574
vn -0.672021763 0.435880787 -0.598660746

g ArmorBag_04_00_Bag_submesh_0
usemtl 05
f 1/1/1 3/3/3 2/2/2
f 1/1/1 2/2/2 4/4/4
f 2/2/2 3/3/3 5/5/5
f 2/2/2 5/5/5 6/6/6
f 7/7/7 2/2/2 6/6/6
f 7/7/7 4/4/4 2/2/2
f 8/8/8 6/6/6 5/5/5
f 8/8/8 9/9/9 6/6/6
f 6/6/6 9/9/9 7/7/7
f 9/9/9 10/10/10 7/7/7
f 11/11/11 10/10/10 9/9/9
f 11/11/11 9/9/9 8/8/8
f 12/12/12 10/10/10 11/11/11
f 12/12/12 13/13/13 10/10/10
f 7/7/7 10/10/10 14/14/14
f 14/14/14 4/4/4 7/7/7
f 14/14/14 10/10/10 13/13/13
f 15/15/15 17/17/17 16/16/16
f 18/18/18 16/16/16 17/17/17
f 16/16/16 18/18/18 19/19/19
f 16/16/16 20/20/20 15/15/15
f 21/21/21 20/20/20 16/16/16
f 22/22/22 24/24/24 23/23/23
f 24/24/24 22/22/22 25/25/25
f 26/26/26 24/24/24 25/25/25
f 26/26/26 27/27/27 24/24/24
f 28/28/28 24/24/24 27/27/27
f 23/23/23 24/24/24 28/28/28
f 29/29/29 27/27/27 26/26/26
f 29/29/29 30/30/30 27/27/27
f 28/28/28 27/27/27 30/30/30
f 31/31/31 33/33/33 32/32/32
f 33/33/33 35/35/35 34/34/34
f 35/35/35 36/36/36 34/34/34
f 37/37/37 39/39/39 38/38/38
f 37/37/37 38/38/38 40/40/40
f 38/38/38 41/41/41 40/40/40
f 38/38/38 42/42/42 41/41/41
f 43/43/43 42/42/42 38/38/38
f 43/43/43 38/38/38 39/39/39
f 44/44/44 41/41/41 42/42/42
f 44/44/44 42/42/42 45/45/45
f 42/42/42 43/43/43 45/45/45
f 45/45/45 43/43/43 46/46/46
f 47/47/47 44/44/44 45/45/45
f 47/47/47 45/45/45 46/46/46
f 48/48/48 47/47/47 46/46/46
f 48/48/48 46/46/46 49/49/49
f 43/43/43 50/50/50 46/46/46
f 50/50/50 43/43/43 39/39/39
f 50/50/50 49/49/49 46/46/46
f 51/51/51 53/53/53 52/52/52
f 54/54/54 52/52/52 53/53/53
f 53/53/53 55/55/55 54/54/54
f 53/53/53 51/51/51 56/56/56
f 57/57/57 53/53/53 56/56/56
f 58/58/58 60/60/60 59/59/59
f 59/59/59 61/61/61 58/58/58
f 62/62/62 61/61/61 59/59/59
f 62/62/62 59/59/59 63/63/63
f 64/64/64 63/63/63 59/59/59
f 60/60/60 64/64/64 59/59/59
f 65/65/65 62/62/62 63/63/63
f 65/65/65 63/63/63 66/66/66
f 64/64/64 66/66/66 63/63/63
f 67/67/67 69/69/69 68/68/68
f 68/68/68 71/71/71 70/70/70
f 70/70/70 71/71/71 72/72/72
