# Generated from legacy Unity YAML Mesh assets without Unity.
mtllib collision.mtl

o collision_ground_02
v -18.2239186 -0.0759248703 -31.9242709
v -13.2972524 -0.890606877 -27.3159029
v -19.4604947 -1.07238674 -32.3755686
v -12.7779786 0.271323207 -27.7085345
v -3.2566573 0.494251254 -25.8899004
v 1.73268729 -0.185889241 -25.1127093
v -3.21318501 -0.409737584 -24.803818
v 1.59809047 0.449804309 -26.1939242
v -12.7779786 0.271323207 -27.7085345
v -3.21318501 -0.409737584 -24.803818
v -13.2972524 -0.890606877 -27.3159029
v -3.2566573 0.494251254 -25.8899004
v -15.7493321 0.0286436111 -34.7304938
v -12.737951 0.0254907638 -37.2170832
v -12.7579648 0.639193538 -32.4628069
v -3.2566573 0.494251254 -25.8899004
v -12.7579648 0.639193538 -32.4628069
v -3.03934473 1.0384655 -31.7746222
v -12.7779786 0.271323207 -27.7085345
v 1.59809047 0.449804309 -26.1939242
v -3.03934473 1.0384655 -31.7746222
v 0.943348227 1.08124924 -32.6156161
v -3.2566573 0.494251254 -25.8899004
v -2.82203168 1.58268261 -37.6593459
v 0.28860545 1.61609936 -39.0373099
v 3.46569902 1.88494778 -40.3080199
v 7.04964381 1.20650769 -33.3370631
v 7.62552291 1.76325608 -40.3577826
v 6.47376376 0.0735731155 -26.3163416
v 7.04964381 1.20650769 -33.3370631
v 16.6360229 0.0431509048 -31.3843272
v 20.4328731 -0.927519795 -37.2248347
v 17.760279 -0.818488118 -31.3117411
v 19.2359737 -0.032494542 -37.136677
v 6.47376376 0.0735731155 -26.3163416
v 17.760279 -0.818488118 -31.3117411
v 6.70007258 -0.835761067 -26.0959475
v 16.6360229 0.0431509048 -31.3843272
v 19.4870456 0.629781726 -40.1976321
v 7.04964381 1.20650769 -33.3370631
v 7.62552291 1.76325608 -40.3577826
v 19.2359737 -0.032494542 -37.136677
v 16.6360229 0.0431509048 -31.3843272
v 6.47376376 0.0735731155 -26.3163416
v 19.7461341 -0.878436086 -39.8167555
v 19.2359737 -0.032494542 -37.136677
v 19.4870456 0.629781726 -40.1976321
v 20.4328731 -0.927519795 -37.2248347
v 6.47376376 0.0735731155 -26.3163416
v 1.73268729 -0.185889241 -25.1127093
v 1.59809047 0.449804309 -26.1939242
v 6.70007258 -0.835761067 -26.0959475
v -16.4292218 -1.48044872 -35.4954836
v -18.2239186 -0.0759248703 -31.9242709
v -19.4604947 -1.07238674 -32.3755686
v -15.7493321 0.0286436111 -34.7304938
v -13.4178397 -1.14221096 -37.982075
v -15.7493321 0.0286436111 -34.7304938
v -16.4292218 -1.48044872 -35.4954836
v -12.737951 0.0254907638 -37.2170832
v -3.03934473 1.0384655 -31.7746222
v -12.737951 0.0254907638 -37.2170832
v -2.82203168 1.58268261 -37.6593459
v -12.7579648 0.639193538 -32.4628069
v -15.7493321 0.0286436111 -34.7304938
v -12.7779786 0.271323207 -27.7085345
v -18.2239186 -0.0759248703 -31.9242709
vt 4.55078125 0.52734375
vt 3.7578125 0.70703125
vt 4.55078125 0.70703125
vt 3.75 0.52734375
vt 2.38671875 0.52734375
vt 1.70703125 0.70703125
vt 2.38671875 0.70703125
vt 1.70703125 0.52734375
vt 3.75 0.52734375
vt 2.38671875 0.70703125
vt 3.7578125 0.70703125
vt 2.38671875 0.52734375
vt 1.28952682 0.210225835
vt 1.1370666 0.106964916
vt 1.15625 0.3671875
vt 0.733887315 0.879499733
vt 1.15625 0.3671875
vt 0.70703125 0.5546875
vt 1.1622529 0.636296988
vt 0.507966638 0.897522569
vt 0.70703125 0.5546875
vt 0.515625 0.53125
vt 0.733887315 0.879499733
vt 0.68359375 0.234375
vt 0.5390625 0.1640625
vt 0.38671875 0.12890625
vt 0.24609375 0.53125
vt 0.203125 0.13671875
vt 0.302123904 0.94377768
vt 0.24609375 0.53125
vt -0.24609375 0.52734375
vt -1.31640625 0.70703125
vt -0.26953125 0.70703125
vt -1.3046875 0.52734375
vt 1.05859375 0.52734375
vt -0.26953125 0.70703125
vt 1.05859375 0.70703125
vt -0.24609375 0.52734375
vt -0.338941187 0.119695872
vt 0.24609375 0.53125
vt 0.203125 0.13671875
vt -0.315811127 0.28408435
vt -0.203548357 0.642089963
vt 0.302123904 0.94377768
vt -1.75390625 0.70703125
vt -1.3046875 0.52734375
vt -1.75390625 0.52734375
vt -1.31640625 0.70703125
vt 1.05859375 0.52734375
vt 1.70703125 0.70703125
vt 1.70703125 0.52734375
vt 1.05859375 0.70703125
vt 5.109375 0.70703125
vt 4.55078125 0.52734375
vt 4.55078125 0.70703125
vt 5.109375 0.52734375
vt 5.64453125 0.70703125
vt 5.109375 0.52734375
vt 5.109375 0.70703125
vt 5.64453125 0.52734375
vt 0.70703125 0.5546875
vt 1.1370666 0.106964916
vt 0.68359375 0.234375
vt 1.15625 0.3671875
vt 1.28952682 0.210225835
vt 1.1622529 0.636296988
vt 1.40907037 0.3267169
vn -0.571053425 0.445815653 0.689308631
vn -0.571053425 0.445815653 0.689308631
vn -0.571053425 0.445815653 0.689308631
vn -0.571053425 0.445815653 0.689308631
vn 0.021203924 0.815861344 0.577858686
vn 0.021203924 0.815861344 0.577858686
vn 0.021203924 0.815861344 0.577858686
vn 0.0212039221 0.815861344 0.577858686
vn -0.193020554 0.600096708 0.776290543
vn -0.19302054 0.60009671 0.776290545
vn -0.193020554 0.600096708 0.776290543
vn -0.19302054 0.60009671 0.776290545
vn -0.10445802 0.986289692 -0.127754317
vn -0.104458028 0.986289691 -0.127754317
vn -0.104458013 0.986289693 -0.127754317
vn -0.0431875579 0.995497209 0.0843809307
vn -0.0431875542 0.995497209 0.0843809307
vn -0.0431875542 0.99549721 0.0843809233
vn -0.0431875542 0.995497209 0.0843809307
vn 0.0124510388 0.995432429 0.0946533169
vn 0.0124510397 0.995432429 0.0946533169
vn 0.0124510406 0.995432429 0.0946533243
vn 0.0124510397 0.995432429 0.0946533169
vn 0.0164388434 0.996093911 0.0867564737
vn -0.0057147604 0.99572001 0.0922442564
vn -0.00571476085 0.995720009 0.0922442711
vn -0.00571476039 0.995720009 0.0922442711
vn -0.00571475993 0.99572001 0.0922442637
vn 0.0326274843 0.990992623 0.129880974
vn 0.0326274843 0.990992622 0.129880989
vn 0.585032633 0.77079289 0.252220418
vn 0.585032633 0.77079289 0.252220418
vn 0.58503266 0.770792866 0.25222043
vn 0.585032664 0.770792871 0.252220402
vn 0.393100996 0.433898139 0.810681202
vn 0.393100996 0.433898139 0.810681202
vn 0.393101021 0.433898134 0.810681193
vn 0.393100996 0.433898139 0.810681202
vn 0.116627178 0.98480897 0.12864445
vn 0.116627185 0.984808969 0.12864445
vn 0.11662717 0.984808971 0.12864445
vn 0.116627178 0.98480897 0.12864445
vn 0.0984071221 0.989445175 0.106368619
vn 0.0984071221 0.989445175 0.106368619
vn 0.855319067 0.518101123 -0.000721382363
vn 0.855319067 0.518101123 -0.000721382363
vn 0.855319041 0.518101166 -0.000721382399
vn 0.855319067 0.518101123 -0.000721382363
vn 0.151448215 0.657311357 0.738244687
vn 0.151448209 0.657311391 0.738244658
vn 0.151448201 0.657311422 0.738244633
vn 0.151448209 0.657311391 0.738244658
vn -0.53144354 0.662654344 -0.527690235
vn -0.531443582 0.662654323 -0.527690218
vn -0.531443535 0.662654399 -0.527690171
vn -0.531443561 0.662654357 -0.527690197
vn -0.525610169 0.607438349 -0.595611118
vn -0.525610131 0.607438365 -0.595611135
vn -0.525610131 0.607438365 -0.595611135
vn -0.525610131 0.607438365 -0.595611135
vn -0.0990412055 0.995045229 -0.00870819894
vn -0.0990411907 0.99504523 -0.00870819895
vn -0.0990411981 0.995045229 -0.00870819801
vn -0.0990411981 0.995045229 -0.00870819894
vn -0.127782086 0.991604583 0.0198012489
vn -0.127782086 0.991604583 0.019801247
vn -0.127782086 0.991604583 0.0198012489

g collision_ground_02_submesh_0
usemtl collision
f 1/1/1 3/3/3 2/2/2
f 1/1/1 2/2/2 4/4/4
f 5/5/5 7/7/7 6/6/6
f 5/5/5 6/6/6 8/8/8
f 9/9/9 11/11/11 10/10/10
f 9/9/9 10/10/10 12/12/12
f 13/13/13 15/15/15 14/14/14
f 16/16/16 18/18/18 17/17/17
f 16/16/16 17/17/17 19/19/19
f 20/20/20 22/22/22 21/21/21
f 20/20/20 21/21/21 23/23/23
f 22/22/22 24/24/24 21/21/21
f 22/22/22 25/25/25 24/24/24
f 22/22/22 26/26/26 25/25/25
f 26/26/26 22/22/22 27/27/27
f 26/26/26 27/27/27 28/28/28
f 22/22/22 20/20/20 29/29/29
f 22/22/22 29/29/29 30/30/30
f 31/31/31 33/33/33 32/32/32
f 31/31/31 32/32/32 34/34/34
f 35/35/35 37/37/37 36/36/36
f 35/35/35 36/36/36 38/38/38
f 39/39/39 41/41/41 40/40/40
f 39/39/39 40/40/40 42/42/42
f 40/40/40 43/43/43 42/42/42
f 40/40/40 44/44/44 43/43/43
f 45/45/45 47/47/47 46/46/46
f 45/45/45 46/46/46 48/48/48
f 49/49/49 51/51/51 50/50/50
f 49/49/49 50/50/50 52/52/52
f 53/53/53 55/55/55 54/54/54
f 53/53/53 54/54/54 56/56/56
f 57/57/57 59/59/59 58/58/58
f 57/57/57 58/58/58 60/60/60
f 61/61/61 63/63/63 62/62/62
f 61/61/61 62/62/62 64/64/64
f 65/65/65 66/66/66 64/64/64
f 65/65/65 67/67/67 66/66/66

o collision_ground
v 55.002901 8.37109872e-15 -39.7463227
v -1.1461163 0 -2.0462456
v -1.1461163 8.37109872e-15 -39.7463227
v 55.002901 0 -2.0462456
v -57.2951336 0 -2.0462456
v -57.2951336 8.37109872e-15 -39.7463227
v -1.1461163 -8.37109872e-15 35.6538315
v 55.002901 -8.37109872e-15 35.6538315
v -57.2951336 -8.37109872e-15 35.6538315
vt 7.14384556 3.26904368
vt 3.57692289 1.63952184
vt 3.57692289 3.26904368
vt 7.14384556 1.63952184
vt 0.0100002177 1.63952184
vt 0.0100002177 3.26904368
vt 3.57692289 0.0100000715
vt 7.14384556 0.0100000715
vt 0.0100002177 0.0100000715
vn 0 1 2.22044605e-16
vn 0 1 2.22044605e-16
vn 0 1 2.22044605e-16
vn 0 1 2.22044605e-16
vn 0 1 2.22044605e-16
vn 0 1 2.22044605e-16
vn 0 1 2.22044605e-16
vn 0 1 2.22044605e-16
vn 0 1 2.22044605e-16

g collision_ground_submesh_0
usemtl collision_2
f 68/68/68 70/70/70 69/69/69
f 68/68/68 69/69/69 71/71/71
f 70/70/70 72/72/72 69/69/69
f 70/70/70 73/73/73 72/72/72
f 71/71/71 69/69/69 74/74/74
f 71/71/71 74/74/74 75/75/75
f 69/69/69 72/72/72 76/76/76
f 69/69/69 76/76/76 74/74/74
