{"asset":{"version":"2.0","generator":"Star Warfare Unity lightmap restoration"},"scene":0,"scenes":[{"nodes":[0]}],"nodes":[{"name":"RestoredStage","mesh":0}],"meshes":[{"name":"RestoredStage","primitives":[{"attributes":{"POSITION":0,"NORMAL":1,"TEXCOORD_0":2,"TEXCOORD_1":3},"indices":4,"material":0},{"attributes":{"POSITION":5,"NORMAL":6,"TEXCOORD_0":7,"TEXCOORD_1":8},"indices":9,"material":1},{"attributes":{"POSITION":10,"NORMAL":11,"TEXCOORD_0":12,"TEXCOORD_1":13},"indices":14,"material":2},{"attributes":{"POSITION":15,"NORMAL":16,"TEXCOORD_0":17,"TEXCOORD_1":18},"indices":19,"material":3},{"attributes":{"POSITION":20,"NORMAL":21,"TEXCOORD_0":22,"TEXCOORD_1":23},"indices":24,"material":4},{"attributes":{"POSITION":25,"NORMAL":26,"TEXCOORD_0":27,"TEXCOORD_1":28},"indices":29,"material":5},{"attributes":{"POSITION":30,"NORMAL":31,"TEXCOORD_0":32,"TEXCOORD_1":33},"indices":34,"material":6},{"attributes":{"POSITION":35,"NORMAL":36,"TEXCOORD_0":37,"TEXCOORD_1":38},"indices":39,"material":7},{"attributes":{"POSITION":40,"NORMAL":41,"TEXCOORD_0":42,"TEXCOORD_1":43},"indices":44,"material":8},{"attributes":{"POSITION":45,"NORMAL":46,"TEXCOORD_0":47,"TEXCOORD_1":48},"indices":49,"material":9},{"attributes":{"POSITION":50,"NORMAL":51,"TEXCOORD_0":52,"TEXCOORD_1":53},"indices":54,"material":10},{"attributes":{"POSITION":55,"NORMAL":56,"TEXCOORD_0":57,"TEXCOORD_1":58},"indices":59,"material":11},{"attributes":{"POSITION":60,"NORMAL":61,"TEXCOORD_0":62,"TEXCOORD_1":63},"indices":64,"material":12},{"attributes":{"POSITION":65,"NORMAL":66,"TEXCOORD_0":67,"TEXCOORD_1":68},"indices":69,"material":13},{"attributes":{"POSITION":70,"NORMAL":71,"TEXCOORD_0":72,"TEXCOORD_1":73},"indices":74,"material":14},{"attributes":{"POSITION":75,"NORMAL":76,"TEXCOORD_0":77,"TEXCOORD_1":78},"indices":79,"material":15},{"attributes":{"POSITION":80,"NORMAL":81,"TEXCOORD_0":82,"TEXCOORD_1":83},"indices":84,"material":16},{"attributes":{"POSITION":85,"NORMAL":86,"TEXCOORD_0":87,"TEXCOORD_1":88},"indices":89,"material":17},{"attributes":{"POSITION":90,"NORMAL":91,"TEXCOORD_0":92,"TEXCOORD_1":93},"indices":94,"material":18},{"attributes":{"POSITION":95,"NORMAL":96,"TEXCOORD_0":97,"TEXCOORD_1":98},"indices":99,"material":19},{"attributes":{"POSITION":100,"NORMAL":101,"TEXCOORD_0":102,"TEXCOORD_1":103},"indices":104,"material":20}]}],"bufferViews":[{"buffer":0,"byteOffset":0,"byteLength":4836},{"buffer":0,"byteOffset":4836,"byteLength":4836},{"buffer":0,"byteOffset":9672,"byteLength":3224},{"buffer":0,"byteOffset":12896,"byteLength":3224},{"buffer":0,"byteOffset":16120,"byteLength":4380},{"buffer":0,"byteOffset":20500,"byteLength":3792},{"buffer":0,"byteOffset":24292,"byteLength":3792},{"buffer":0,"byteOffset":28084,"byteLength":2528},{"buffer":0,"byteOffset":30612,"byteLength":2528},{"buffer":0,"byteOffset":33140,"byteLength":2760},{"buffer":0,"byteOffset":35900,"byteLength":996},{"buffer":0,"byteOffset":36896,"byteLength":996},{"buffer":0,"byteOffset":37892,"byteLength":664},{"buffer":0,"byteOffset":38556,"byteLength":664},{"buffer":0,"byteOffset":39220,"byteLength":468},{"buffer":0,"byteOffset":39688,"byteLength":720},{"buffer":0,"byteOffset":40408,"byteLength":720},{"buffer":0,"byteOffset":41128,"byteLength":480},{"buffer":0,"byteOffset":41608,"byteLength":480},{"buffer":0,"byteOffset":42088,"byteLength":576},{"buffer":0,"byteOffset":42664,"byteLength":17376},{"buffer":0,"byteOffset":60040,"byteLength":17376},{"buffer":0,"byteOffset":77416,"byteLength":11584},{"buffer":0,"byteOffset":89000,"byteLength":11584},{"buffer":0,"byteOffset":100584,"byteLength":10752},{"buffer":0,"byteOffset":111336,"byteLength":4776},{"buffer":0,"byteOffset":116112,"byteLength":4776},{"buffer":0,"byteOffset":120888,"byteLength":3184},{"buffer":0,"byteOffset":124072,"byteLength":3184},{"buffer":0,"byteOffset":127256,"byteLength":2616},{"buffer":0,"byteOffset":129872,"byteLength":3756},{"buffer":0,"byteOffset":133628,"byteLength":3756},{"buffer":0,"byteOffset":137384,"byteLength":2504},{"buffer":0,"byteOffset":139888,"byteLength":2504},{"buffer":0,"byteOffset":142392,"byteLength":2352},{"buffer":0,"byteOffset":144744,"byteLength":336},{"buffer":0,"byteOffset":145080,"byteLength":336},{"buffer":0,"byteOffset":145416,"byteLength":224},{"buffer":0,"byteOffset":145640,"byteLength":224},{"buffer":0,"byteOffset":145864,"byteLength":192},{"buffer":0,"byteOffset":146056,"byteLength":1536},{"buffer":0,"byteOffset":147592,"byteLength":1536},{"buffer":0,"byteOffset":149128,"byteLength":1024},{"buffer":0,"byteOffset":150152,"byteLength":1024},{"buffer":0,"byteOffset":151176,"byteLength":792},{"buffer":0,"byteOffset":151968,"byteLength":1104},{"buffer":0,"byteOffset":153072,"byteLength":1104},{"buffer":0,"byteOffset":154176,"byteLength":736},{"buffer":0,"byteOffset":154912,"byteLength":736},{"buffer":0,"byteOffset":155648,"byteLength":936},{"buffer":0,"byteOffset":156584,"byteLength":864},{"buffer":0,"byteOffset":157448,"byteLength":864},{"buffer":0,"byteOffset":158312,"byteLength":576},{"buffer":0,"byteOffset":158888,"byteLength":576},{"buffer":0,"byteOffset":159464,"byteLength":672},{"buffer":0,"byteOffset":160136,"byteLength":1440},{"buffer":0,"byteOffset":161576,"byteLength":1440},{"buffer":0,"byteOffset":163016,"byteLength":960},{"buffer":0,"byteOffset":163976,"byteLength":960},{"buffer":0,"byteOffset":164936,"byteLength":840},{"buffer":0,"byteOffset":165776,"byteLength":3408},{"buffer":0,"byteOffset":169184,"byteLength":3408},{"buffer":0,"byteOffset":172592,"byteLength":2272},{"buffer":0,"byteOffset":174864,"byteLength":2272},{"buffer":0,"byteOffset":177136,"byteLength":2016},{"buffer":0,"byteOffset":179152,"byteLength":2100},{"buffer":0,"byteOffset":181252,"byteLength":2100},{"buffer":0,"byteOffset":183352,"byteLength":1400},{"buffer":0,"byteOffset":184752,"byteLength":1400},{"buffer":0,"byteOffset":186152,"byteLength":3168},{"buffer":0,"byteOffset":189320,"byteLength":5340},{"buffer":0,"byteOffset":194660,"byteLength":5340},{"buffer":0,"byteOffset":200000,"byteLength":3560},{"buffer":0,"byteOffset":203560,"byteLength":3560},{"buffer":0,"byteOffset":207120,"byteLength":3036},{"buffer":0,"byteOffset":210156,"byteLength":3048},{"buffer":0,"byteOffset":213204,"byteLength":3048},{"buffer":0,"byteOffset":216252,"byteLength":2032},{"buffer":0,"byteOffset":218284,"byteLength":2032},{"buffer":0,"byteOffset":220316,"byteLength":1920},{"buffer":0,"byteOffset":222236,"byteLength":1752},{"buffer":0,"byteOffset":223988,"byteLength":1752},{"buffer":0,"byteOffset":225740,"byteLength":1168},{"buffer":0,"byteOffset":226908,"byteLength":1168},{"buffer":0,"byteOffset":228076,"byteLength":1008},{"buffer":0,"byteOffset":229084,"byteLength":1728},{"buffer":0,"byteOffset":230812,"byteLength":1728},{"buffer":0,"byteOffset":232540,"byteLength":1152},{"buffer":0,"byteOffset":233692,"byteLength":1152},{"buffer":0,"byteOffset":234844,"byteLength":864},{"buffer":0,"byteOffset":235708,"byteLength":2784},{"buffer":0,"byteOffset":238492,"byteLength":2784},{"buffer":0,"byteOffset":241276,"byteLength":1856},{"buffer":0,"byteOffset":243132,"byteLength":1856},{"buffer":0,"byteOffset":244988,"byteLength":2112},{"buffer":0,"byteOffset":247100,"byteLength":108},{"buffer":0,"byteOffset":247208,"byteLength":108},{"buffer":0,"byteOffset":247316,"byteLength":72},{"buffer":0,"byteOffset":247388,"byteLength":72},{"buffer":0,"byteOffset":247460,"byteLength":96},{"buffer":0,"byteOffset":247556,"byteLength":43488},{"buffer":0,"byteOffset":291044,"byteLength":43488},{"buffer":0,"byteOffset":334532,"byteLength":28992},{"buffer":0,"byteOffset":363524,"byteLength":28992},{"buffer":0,"byteOffset":392516,"byteLength":30576}],"accessors":[{"bufferView":0,"componentType":5126,"count":403,"type":"VEC3","min":[-95.5270233,0.591229975,-89.5543823],"max":[94.9896698,44.9487915,93.3073196]},{"bufferView":1,"componentType":5126,"count":403,"type":"VEC3","min":[-0.984167327,0.0681363703,-0.977904186],"max":[0.982256681,0.835099337,0.978852496]},{"bufferView":2,"componentType":5126,"count":403,"type":"VEC2"},{"bufferView":3,"componentType":5126,"count":403,"type":"VEC2"},{"bufferView":4,"componentType":5125,"count":1095,"type":"SCALAR"},{"bufferView":5,"componentType":5126,"count":316,"type":"VEC3","min":[-93.6070251,3.31314969,-89.5543747],"max":[95.9463806,51.7205963,93.3073349]},{"bufferView":6,"componentType":5126,"count":316,"type":"VEC3","min":[-1.0,-1.0,-0.970089795],"max":[0.81920897,1.0,0.97108295]},{"bufferView":7,"componentType":5126,"count":316,"type":"VEC2"},{"bufferView":8,"componentType":5126,"count":316,"type":"VEC2"},{"bufferView":9,"componentType":5125,"count":690,"type":"SCALAR"},{"bufferView":10,"componentType":5126,"count":83,"type":"VEC3","min":[-69.8853149,8.00230312,-86.2775955],"max":[-43.6158943,32.6732559,-55.1636887]},{"bufferView":11,"componentType":5126,"count":83,"type":"VEC3","min":[-0.985353901,0.152908166,-0.912043666],"max":[0.941171953,0.95684215,0.39027804]},{"bufferView":12,"componentType":5126,"count":83,"type":"VEC2"},{"bufferView":13,"componentType":5126,"count":83,"type":"VEC2"},{"bufferView":14,"componentType":5125,"count":117,"type":"SCALAR"},{"bufferView":15,"componentType":5126,"count":60,"type":"VEC3","min":[37.0973511,25.2995396,-84.8543701],"max":[98.046402,32.7734222,76.1771622]},{"bufferView":16,"componentType":5126,"count":60,"type":"VEC3","min":[-0.993802322,-1.0,-0.628143808],"max":[0.0,0.514476411,0.628143808]},{"bufferView":17,"componentType":5126,"count":60,"type":"VEC2"},{"bufferView":18,"componentType":5126,"count":60,"type":"VEC2"},{"bufferView":19,"componentType":5125,"count":144,"type":"SCALAR"},{"bufferView":20,"componentType":5126,"count":1448,"type":"VEC3","min":[-22.4495296,-1.39984524,-9.1101675],"max":[23.5412579,6.85521412,15.8228235]},{"bufferView":21,"componentType":5126,"count":1448,"type":"VEC3","min":[-0.991773952,-0.989936356,-0.924980796],"max":[0.991773952,0.937830841,0.982255346]},{"bufferView":22,"componentType":5126,"count":1448,"type":"VEC2"},{"bufferView":23,"componentType":5126,"count":1448,"type":"VEC2"},{"bufferView":24,"componentType":5125,"count":2688,"type":"SCALAR"},{"bufferView":25,"componentType":5126,"count":398,"type":"VEC3","min":[-18.4961166,-1.1851474,-65.3954315],"max":[22.2260571,20.3106937,-22.6038647]},{"bufferView":26,"componentType":5126,"count":398,"type":"VEC3","min":[-0.996195831,-0.99210153,-0.96791672],"max":[0.996195831,0.996772254,0.999996012]},{"bufferView":27,"componentType":5126,"count":398,"type":"VEC2"},{"bufferView":28,"componentType":5126,"count":398,"type":"VEC2"},{"bufferView":29,"componentType":5125,"count":654,"type":"SCALAR"},{"bufferView":30,"componentType":5126,"count":313,"type":"VEC3","min":[48.1261139,3.88200712,-13.2764139],"max":[95.3658218,75.9276657,9.23455334]},{"bufferView":31,"componentType":5126,"count":313,"type":"VEC3","min":[-0.999999657,-0.999127988,-1.0],"max":[0.384125507,0.871262335,1.0]},{"bufferView":32,"componentType":5126,"count":313,"type":"VEC2"},{"bufferView":33,"componentType":5126,"count":313,"type":"VEC2"},{"bufferView":34,"componentType":5125,"count":588,"type":"SCALAR"},{"bufferView":35,"componentType":5126,"count":28,"type":"VEC3","min":[59.7758255,17.9043617,-6.84033728],"max":[83.0448608,46.2205124,2.6284945]},{"bufferView":36,"componentType":5126,"count":28,"type":"VEC3","min":[-0.999999657,-0.000828193414,-1.0],"max":[0.000204897781,0.216477957,1.0]},{"bufferView":37,"componentType":5126,"count":28,"type":"VEC2"},{"bufferView":38,"componentType":5126,"count":28,"type":"VEC2"},{"bufferView":39,"componentType":5125,"count":48,"type":"SCALAR"},{"bufferView":40,"componentType":5126,"count":128,"type":"VEC3","min":[-78.2613983,4.01941633,-76.0088959],"max":[85.1797256,75.226738,75.8135376]},{"bufferView":41,"componentType":5126,"count":128,"type":"VEC3","min":[-1.0,-1.37090683e-06,-0.999717624],"max":[0.999746916,1.0,0.999717624]},{"bufferView":42,"componentType":5126,"count":128,"type":"VEC2"},{"bufferView":43,"componentType":5126,"count":128,"type":"VEC2"},{"bufferView":44,"componentType":5125,"count":198,"type":"SCALAR"},{"bufferView":45,"componentType":5126,"count":92,"type":"VEC3","min":[48.1261024,3.88200712,-12.2585554],"max":[79.3480759,38.4259987,8.21669579]},{"bufferView":46,"componentType":5126,"count":92,"type":"VEC3","min":[-0.445999854,-0.727799629,-1.0],"max":[0.702891071,0.727799629,1.0]},{"bufferView":47,"componentType":5126,"count":92,"type":"VEC2"},{"bufferView":48,"componentType":5126,"count":92,"type":"VEC2"},{"bufferView":49,"componentType":5125,"count":234,"type":"SCALAR"},{"bufferView":50,"componentType":5126,"count":72,"type":"VEC3","min":[57.788353,10.9332914,-10.2834692],"max":[74.5072708,30.204855,6.24160814]},{"bufferView":51,"componentType":5126,"count":72,"type":"VEC3","min":[-0.980777432,-0.980777432,-0.731062926],"max":[0.44291117,0.991397686,0.731062926]},{"bufferView":52,"componentType":5126,"count":72,"type":"VEC2"},{"bufferView":53,"componentType":5126,"count":72,"type":"VEC2"},{"bufferView":54,"componentType":5125,"count":168,"type":"SCALAR"},{"bufferView":55,"componentType":5126,"count":120,"type":"VEC3","min":[-96.3670349,5.56452847,-85.5581131],"max":[87.6606293,37.17939,82.7123108]},{"bufferView":56,"componentType":5126,"count":120,"type":"VEC3","min":[-1.0,-1.1920929e-06,-1.0],"max":[1.0,0.0867428773,1.0]},{"bufferView":57,"componentType":5126,"count":120,"type":"VEC2"},{"bufferView":58,"componentType":5126,"count":120,"type":"VEC2"},{"bufferView":59,"componentType":5125,"count":210,"type":"SCALAR"},{"bufferView":60,"componentType":5126,"count":284,"type":"VEC3","min":[-34.6011543,11.5438194,-81.3598862],"max":[31.3893795,20.7347755,75.2441788]},{"bufferView":61,"componentType":5126,"count":284,"type":"VEC3","min":[-1.0,-1.0,-1.0],"max":[1.0,1.0,1.0]},{"bufferView":62,"componentType":5126,"count":284,"type":"VEC2"},{"bufferView":63,"componentType":5126,"count":284,"type":"VEC2"},{"bufferView":64,"componentType":5125,"count":504,"type":"SCALAR"},{"bufferView":65,"componentType":5126,"count":175,"type":"VEC3","min":[-1001.72943,-212.295868,-975.622559],"max":[1001.72919,537.188049,975.622375]},{"bufferView":66,"componentType":5126,"count":175,"type":"VEC3","min":[-0.988019016,-1.0,-0.988019016],"max":[0.959193813,-0.138319325,0.988019016]},{"bufferView":67,"componentType":5126,"count":175,"type":"VEC2"},{"bufferView":68,"componentType":5126,"count":175,"type":"VEC2"},{"bufferView":69,"componentType":5125,"count":792,"type":"SCALAR"},{"bufferView":70,"componentType":5126,"count":445,"type":"VEC3","min":[-22.9766884,-1.4804486,-79.866951],"max":[22.2260571,20.3886623,-21.3791504]},{"bufferView":71,"componentType":5126,"count":445,"type":"VEC3","min":[-1.0,-1.0,-0.99498628],"max":[1.0,1.0,0.99498628]},{"bufferView":72,"componentType":5126,"count":445,"type":"VEC2"},{"bufferView":73,"componentType":5126,"count":445,"type":"VEC2"},{"bufferView":74,"componentType":5125,"count":759,"type":"SCALAR"},{"bufferView":75,"componentType":5126,"count":254,"type":"VEC3","min":[-69.0245438,5.32362127,-57.1982689],"max":[70.1668396,11.5461159,52.8022385]},{"bufferView":76,"componentType":5126,"count":254,"type":"VEC3","min":[-1.0,-1.0,-0.236899957],"max":[1.0,1.0,0.236899957]},{"bufferView":77,"componentType":5126,"count":254,"type":"VEC2"},{"bufferView":78,"componentType":5126,"count":254,"type":"VEC2"},{"bufferView":79,"componentType":5125,"count":480,"type":"SCALAR"},{"bufferView":80,"componentType":5126,"count":146,"type":"VEC3","min":[-84.1820984,-0.723032713,-72.3558655],"max":[85.3244247,11.5461159,67.9598312]},{"bufferView":81,"componentType":5126,"count":146,"type":"VEC3","min":[-1.0,-1.1920929e-07,-1.0],"max":[1.0,1.0,1.0]},{"bufferView":82,"componentType":5126,"count":146,"type":"VEC2"},{"bufferView":83,"componentType":5126,"count":146,"type":"VEC2"},{"bufferView":84,"componentType":5125,"count":252,"type":"SCALAR"},{"bufferView":85,"componentType":5126,"count":144,"type":"VEC3","min":[-31.5354729,-0.665043235,-26.0467243],"max":[33.6644554,6.15596724,24.0976791]},{"bufferView":86,"componentType":5126,"count":144,"type":"VEC3","min":[-1.0,-1.1920929e-07,-1.0],"max":[1.0,1.0,1.0]},{"bufferView":87,"componentType":5126,"count":144,"type":"VEC2"},{"bufferView":88,"componentType":5126,"count":144,"type":"VEC2"},{"bufferView":89,"componentType":5125,"count":216,"type":"SCALAR"},{"bufferView":90,"componentType":5126,"count":232,"type":"VEC3","min":[-51.2585335,-0.723032892,-39.2624283],"max":[52.701458,6.7518096,34.8884659]},{"bufferView":91,"componentType":5126,"count":232,"type":"VEC3","min":[-1.0,-1.0,-1.0],"max":[1.0,1.0,1.0]},{"bufferView":92,"componentType":5126,"count":232,"type":"VEC2"},{"bufferView":93,"componentType":5126,"count":232,"type":"VEC2"},{"bufferView":94,"componentType":5125,"count":528,"type":"SCALAR"},{"bufferView":95,"componentType":5126,"count":9,"type":"VEC3","min":[-57.2951355,-4.4941994e-06,-39.7463264],"max":[55.0028992,4.4941994e-06,35.6538353]},{"bufferView":96,"componentType":5126,"count":9,"type":"VEC3","min":[0.0,1.0,1.1920929e-07],"max":[0.0,1.0,1.1920929e-07]},{"bufferView":97,"componentType":5126,"count":9,"type":"VEC2"},{"bufferView":98,"componentType":5126,"count":9,"type":"VEC2"},{"bufferView":99,"componentType":5125,"count":24,"type":"SCALAR"},{"bufferView":100,"componentType":5126,"count":3624,"type":"VEC3","min":[-100.643967,-2.60914326,-125.580269],"max":[147.035156,181.591858,97.8805161]},{"bufferView":101,"componentType":5126,"count":3624,"type":"VEC3","min":[-0.999281775,-1.0,-1.0],"max":[1.0,1.0,1.0]},{"bufferView":102,"componentType":5126,"count":3624,"type":"VEC2"},{"bufferView":103,"componentType":5126,"count":3624,"type":"VEC2"},{"bufferView":104,"componentType":5125,"count":7644,"type":"SCALAR"}],"materials":[{"name":"shap_lightmap02","pbrMetallicRoughness":{"baseColorFactor":[1.0,1.0,1.0,1.0],"metallicFactor":0.0,"roughnessFactor":1.0,"baseColorTexture":{"index":0}},"doubleSided":false},{"name":"shap_lightmap01","pbrMetallicRoughness":{"baseColorFactor":[1.0,1.0,1.0,1.0],"metallicFactor":0.0,"roughnessFactor":1.0,"baseColorTexture":{"index":1}},"doubleSided":false},{"name":"shap_lightmap03","pbrMetallicRoughness":{"baseColorFactor":[1.0,1.0,1.0,1.0],"metallicFactor":0.0,"roughnessFactor":1.0,"baseColorTexture":{"index":2}},"doubleSided":false},{"name":"shap_lightmap04","pbrMetallicRoughness":{"baseColorFactor":[1.0,1.0,1.0,1.0],"metallicFactor":0.0,"roughnessFactor":1.0,"baseColorTexture":{"index":3}},"doubleSided":false},{"name":"brokenobj_lightmap03","pbrMetallicRoughness":{"baseColorFactor":[1.0,1.0,1.0,1.0],"metallicFactor":0.0,"roughnessFactor":1.0,"baseColorTexture":{"index":4}},"doubleSided":false},{"name":"brokenobj_lightmap02","pbrMetallicRoughness":{"baseColorFactor":[1.0,1.0,1.0,1.0],"metallicFactor":0.0,"roughnessFactor":1.0,"baseColorTexture":{"index":2}},"doubleSided":false},{"name":"vip_lightmap01","pbrMetallicRoughness":{"baseColorFactor":[1.0,1.0,1.0,1.0],"metallicFactor":0.0,"roughnessFactor":1.0,"baseColorTexture":{"index":3}},"doubleSided":false},{"name":"vip_lightmap02","pbrMetallicRoughness":{"baseColorFactor":[1.0,1.0,1.0,1.0],"metallicFactor":0.0,"roughnessFactor":1.0,"baseColorTexture":{"index":2}},"doubleSided":false},{"name":"vip_lightmap05","pbrMetallicRoughness":{"baseColorFactor":[1.0,1.0,1.0,1.0],"metallicFactor":0.0,"roughnessFactor":1.0,"baseColorTexture":{"index":5}},"doubleSided":false},{"name":"vip_lightmap04","pbrMetallicRoughness":{"baseColorFactor":[1.0,1.0,1.0,1.0],"metallicFactor":0.0,"roughnessFactor":1.0,"baseColorTexture":{"index":1}},"doubleSided":false},{"name":"vip_lightmap03","pbrMetallicRoughness":{"baseColorFactor":[1.0,1.0,1.0,1.0],"metallicFactor":0.0,"roughnessFactor":1.0,"baseColorTexture":{"index":0}},"doubleSided":false},{"name":"vip_lightmap06","pbrMetallicRoughness":{"baseColorFactor":[1.0,1.0,1.0,1.0],"metallicFactor":0.0,"roughnessFactor":1.0,"baseColorTexture":{"index":6}},"doubleSided":false},{"name":"vip_lightmap07","pbrMetallicRoughness":{"baseColorFactor":[1.0,1.0,1.0,1.0],"metallicFactor":0.0,"roughnessFactor":1.0,"baseColorTexture":{"index":7}},"doubleSided":false},{"name":"sky","pbrMetallicRoughness":{"baseColorFactor":[1.0,1.0,1.0,1.0],"metallicFactor":0.0,"roughnessFactor":1.0,"baseColorTexture":{"index":8}},"doubleSided":false},{"name":"brokenobj_lightmap01","pbrMetallicRoughness":{"baseColorFactor":[1.0,1.0,1.0,1.0],"metallicFactor":0.0,"roughnessFactor":1.0,"baseColorTexture":{"index":9}},"doubleSided":false},{"name":"seat_lightmap02","pbrMetallicRoughness":{"baseColorFactor":[1.0,1.0,1.0,1.0],"metallicFactor":0.0,"roughnessFactor":1.0,"baseColorTexture":{"index":7}},"doubleSided":false},{"name":"seat_lightmap01","pbrMetallicRoughness":{"baseColorFactor":[1.0,1.0,1.0,1.0],"metallicFactor":0.0,"roughnessFactor":1.0,"baseColorTexture":{"index":6}},"doubleSided":false},{"name":"seat_lightmap03","pbrMetallicRoughness":{"baseColorFactor":[1.0,1.0,1.0,1.0],"metallicFactor":0.0,"roughnessFactor":1.0,"baseColorTexture":{"index":9}},"doubleSided":false},{"name":"seat_lightmap04","pbrMetallicRoughness":{"baseColorFactor":[1.0,1.0,1.0,1.0],"metallicFactor":0.0,"roughnessFactor":1.0,"baseColorTexture":{"index":5}},"doubleSided":false},{"name":"01_-_Default","pbrMetallicRoughness":{"baseColorFactor":[1.0,1.0,1.0,1.0],"metallicFactor":0.0,"roughnessFactor":1.0,"baseColorTexture":{"index":10}},"doubleSided":false},{"name":"flytower_lightmap01","pbrMetallicRoughness":{"baseColorFactor":[1.0,1.0,1.0,1.0],"metallicFactor":0.0,"roughnessFactor":1.0,"baseColorTexture":{"index":2}},"doubleSided":false}],"images":[{"uri":"L7_metal.png"},{"uri":"L7_metal03.png"},{"uri":"L7_pilla.png"},{"uri":"L7_metal02.png"},{"uri":"L7_metal08.png"},{"uri":"L7_metal05.png"},{"uri":"L7_metal04.png"},{"uri":"L7_metal06.png"},{"uri":"sky.png"},{"uri":"L7_metal07.png"},{"uri":"L7_ground.png"}],"textures":[{"source":0,"sampler":0},{"source":1,"sampler":0},{"source":2,"sampler":0},{"source":3,"sampler":0},{"source":4,"sampler":0},{"source":5,"sampler":0},{"source":6,"sampler":0},{"source":7,"sampler":0},{"source":8,"sampler":0},{"source":9,"sampler":0},{"source":10,"sampler":0}],"samplers":[{"magFilter":9729,"minFilter":9987,"wrapS":10497,"wrapT":10497}],"buffers":[{"uri":"stage.bin","byteLength":423092}]}
