<?xml version="1.0" standalone="no"?>
<!DOCTYPE svg PUBLIC "-//W3C//DTD SVG 1.1//EN" 
  "http://www.w3.org/Graphics/SVG/1.1/DTD/svg11.dtd">
<svg width="512" height="512" viewBox="0 0 512 512"
     xmlns="http://www.w3.org/2000/svg" version="1.1">
<desc>CH_Cygni_master.blend, (Blender 5.1.0)</desc>
<polygon stroke="black" stroke-width="1" fill="rgb(204, 204, 204)" fill-opacity="0.14" points="475.545,219.933 504.625,220.141 504.615,244.445 " />
<polygon stroke="black" stroke-width="1" fill="rgb(204, 204, 204)" fill-opacity="0.14" points="475.545,219.933 504.615,244.445 475.527,244.208 " />
<polygon stroke="black" stroke-width="1" fill="rgb(204, 204, 204)" fill-opacity="0.14" points="475.560,268.756 475.527,244.208 504.615,244.445 " />
<polygon stroke="black" stroke-width="1" fill="rgb(204, 204, 204)" fill-opacity="0.14" points="475.560,268.756 504.615,244.445 504.634,268.266 " />
<polygon stroke="black" stroke-width="1" fill="rgb(204, 204, 204)" fill-opacity="0.14" points="504.653,186.613 504.625,220.141 475.545,219.933 " />
<polygon stroke="black" stroke-width="1" fill="rgb(204, 204, 204)" fill-opacity="0.14" points="504.653,186.613 475.545,219.933 475.596,186.441 " />
<polygon stroke="black" stroke-width="1" fill="rgb(204, 204, 204)" fill-opacity="0.14" points="475.596,186.441 504.686,162.635 504.653,186.613 " />
<polygon stroke="black" stroke-width="1" fill="rgb(204, 204, 204)" fill-opacity="0.14" points="475.596,186.441 475.647,162.483 504.686,162.635 " />
<polygon stroke="black" stroke-width="1" fill="rgb(204, 204, 204)" fill-opacity="0.14" points="504.646,285.137 475.560,268.756 504.634,268.266 " />
<polygon stroke="black" stroke-width="1" fill="rgb(204, 204, 204)" fill-opacity="0.14" points="504.646,285.137 475.580,285.532 475.560,268.756 " />
<polygon stroke="black" stroke-width="1" fill="rgb(204, 204, 204)" fill-opacity="0.14" points="475.600,302.307 475.580,285.532 504.646,285.137 " />
<polygon stroke="black" stroke-width="1" fill="rgb(204, 204, 204)" fill-opacity="0.14" points="475.600,302.307 504.646,285.137 504.657,302.008 " />
<polygon stroke="black" stroke-width="1" fill="rgb(204, 204, 204)" fill-opacity="0.14" points="475.600,302.307 504.657,302.008 504.672,326.340 " />
<polygon stroke="black" stroke-width="1" fill="rgb(204, 204, 204)" fill-opacity="0.14" points="475.600,302.307 504.672,326.340 475.623,326.481 " />
<polygon stroke="black" stroke-width="1" fill="rgb(204, 204, 204)" fill-opacity="0.14" points="119.268,150.361 92.651,114.694 161.145,76.442 " />
<polygon stroke="black" stroke-width="1" fill="rgb(204, 204, 204)" fill-opacity="0.14" points="161.145,76.442 246.050,113.845 119.268,150.361 " />
<polygon stroke="black" stroke-width="1" fill="rgb(204, 204, 204)" fill-opacity="0.14" points="119.268,150.361 246.050,113.845 312.077,179.385 " />
<polygon stroke="black" stroke-width="1" fill="rgb(204, 204, 204)" fill-opacity="0.14" points="119.268,150.361 312.077,179.385 201.472,205.857 " />
<polygon stroke="black" stroke-width="1" fill="rgb(204, 204, 204)" fill-opacity="0.14" points="312.077,179.385 273.098,248.250 201.472,205.857 " />
<polygon stroke="black" stroke-width="1" fill="rgb(204, 204, 204)" fill-opacity="0.14" points="226.578,257.279 201.472,205.857 273.098,248.250 " />
<polygon stroke="black" stroke-width="1" fill="rgb(204, 204, 204)" fill-opacity="0.14" points="226.578,257.279 189.741,244.339 201.472,205.857 " />
<polygon stroke="black" stroke-width="1" fill="rgb(204, 204, 204)" fill-opacity="0.14" points="270.913,335.306 189.741,244.339 226.578,257.279 " />
<polygon stroke="black" stroke-width="1" fill="rgb(204, 204, 204)" fill-opacity="0.14" points="270.913,335.306 172.798,316.106 189.741,244.339 " />
<polygon stroke="black" stroke-width="1" fill="rgb(204, 204, 204)" fill-opacity="0.14" points="103.489,317.131 189.741,244.339 172.798,316.106 " />
<polygon stroke="black" stroke-width="1" fill="rgb(204, 204, 204)" fill-opacity="0.14" points="103.489,317.131 96.747,242.404 189.741,244.339 " />
<polygon stroke="black" stroke-width="1" fill="rgb(204, 204, 204)" fill-opacity="0.14" points="114.710,188.897 201.472,205.857 189.741,244.339 " />
<polygon stroke="black" stroke-width="1" fill="rgb(204, 204, 204)" fill-opacity="0.14" points="114.710,188.897 189.741,244.339 96.747,242.404 " />
<polygon stroke="black" stroke-width="1" fill="rgb(204, 204, 204)" fill-opacity="0.14" points="119.268,150.361 201.472,205.857 114.710,188.897 " />
<polygon stroke="black" stroke-width="1" fill="rgb(204, 204, 204)" fill-opacity="0.14" points="103.489,317.131 172.798,316.106 164.088,387.753 " />
<polygon stroke="black" stroke-width="1" fill="rgb(204, 204, 204)" fill-opacity="0.14" points="103.489,317.131 164.088,387.753 103.405,417.574 " />
<polygon stroke="black" stroke-width="1" fill="rgb(204, 204, 204)" fill-opacity="0.14" points="103.405,417.574 164.088,387.753 233.252,507.727 " />
<polygon stroke="black" stroke-width="1" fill="rgb(204, 204, 204)" fill-opacity="0.14" points="233.252,507.727 164.088,387.753 248.848,396.205 " />
<polygon stroke="black" stroke-width="1" fill="rgb(204, 204, 204)" fill-opacity="0.14" points="172.798,316.106 270.913,335.306 248.848,396.205 " />
<polygon stroke="black" stroke-width="1" fill="rgb(204, 204, 204)" fill-opacity="0.14" points="172.798,316.106 248.848,396.205 164.088,387.753 " />
<polygon stroke="black" stroke-width="1" fill="rgb(204, 204, 204)" fill-opacity="0.14" points="233.252,507.727 248.848,396.205 322.901,401.659 " />
<polygon stroke="black" stroke-width="1" fill="rgb(204, 204, 204)" fill-opacity="0.14" points="322.901,401.659 248.848,396.205 270.913,335.306 " />
<polygon stroke="black" stroke-width="1" fill="rgb(204, 204, 204)" fill-opacity="0.14" points="65.927,452.475 103.405,417.574 233.252,507.727 " />
<polygon stroke="black" stroke-width="1" fill="rgb(204, 204, 204)" fill-opacity="0.14" points="233.252,507.727 38.703,469.630 65.927,452.475 " />
<polygon stroke="black" stroke-width="1" fill="rgb(204, 204, 204)" fill-opacity="0.14" points="54.117,410.239 103.405,417.574 65.927,452.475 " />
<polygon stroke="black" stroke-width="1" fill="rgb(204, 204, 204)" fill-opacity="0.14" points="54.117,410.239 72.028,360.602 103.405,417.574 " />
<polygon stroke="black" stroke-width="1" fill="rgb(204, 204, 204)" fill-opacity="0.14" points="103.405,417.574 72.028,360.602 103.489,317.131 " />
<polygon stroke="black" stroke-width="1" fill="rgb(204, 204, 204)" fill-opacity="0.14" points="96.747,242.404 58.579,191.328 114.710,188.897 " />
<polygon stroke="black" stroke-width="1" fill="rgb(204, 204, 204)" fill-opacity="0.14" points="58.579,191.328 96.747,242.404 45.722,221.813 " />
<polygon stroke="black" stroke-width="1" fill="rgb(204, 204, 204)" fill-opacity="0.14" points="96.747,242.404 34.373,234.649 45.722,221.813 " />
<polygon stroke="black" stroke-width="1" fill="rgb(204, 204, 204)" fill-opacity="0.14" points="119.268,150.361 114.710,188.897 58.579,191.328 " />
<polygon stroke="black" stroke-width="1" fill="rgb(204, 204, 204)" fill-opacity="0.14" points="92.651,114.694 119.268,150.361 58.579,191.328 " />
<polygon stroke="black" stroke-width="1" fill="rgb(204, 204, 204)" fill-opacity="0.14" points="58.579,191.328 45.722,221.813 14.985,222.322 " />
<polygon stroke="black" stroke-width="1" fill="rgb(204, 204, 204)" fill-opacity="0.14" points="14.985,222.322 45.722,221.813 34.373,234.649 " />
<polygon stroke="black" stroke-width="1" fill="rgb(204, 204, 204)" fill-opacity="0.14" points="58.579,191.328 14.985,222.322 27.872,183.358 " />
<polygon stroke="black" stroke-width="1" fill="rgb(204, 204, 204)" fill-opacity="0.14" points="14.985,222.322 34.373,234.649 15.547,232.230 " />
<polygon stroke="black" stroke-width="1" fill="rgb(204, 204, 204)" fill-opacity="0.14" points="15.547,232.230 34.373,234.649 46.336,280.006 " />
<polygon stroke="black" stroke-width="1" fill="rgb(204, 204, 204)" fill-opacity="0.14" points="15.547,232.230 46.336,280.006 17.983,276.770 " />
<polygon stroke="black" stroke-width="1" fill="rgb(204, 204, 204)" fill-opacity="0.14" points="17.983,276.770 46.336,280.006 27.132,350.347 " />
<polygon stroke="black" stroke-width="1" fill="rgb(204, 204, 204)" fill-opacity="0.14" points="27.132,350.347 46.336,280.006 103.489,317.131 " />
<polygon stroke="black" stroke-width="1" fill="rgb(204, 204, 204)" fill-opacity="0.14" points="103.489,317.131 72.028,360.602 27.132,350.347 " />
<polygon stroke="black" stroke-width="1" fill="rgb(204, 204, 204)" fill-opacity="0.14" points="17.983,276.770 27.132,350.347 6.889,346.948 " />
<polygon stroke="black" stroke-width="1" fill="rgb(204, 204, 204)" fill-opacity="0.14" points="6.889,346.948 27.132,350.347 21.100,359.820 " />
<polygon stroke="black" stroke-width="1" fill="rgb(204, 204, 204)" fill-opacity="0.14" points="6.889,346.948 21.100,359.820 7.287,359.056 " />
<polygon stroke="black" stroke-width="1" fill="rgb(204, 204, 204)" fill-opacity="0.14" points="34.373,234.649 96.747,242.404 46.336,280.006 " />
<polygon stroke="black" stroke-width="1" fill="rgb(204, 204, 204)" fill-opacity="0.14" points="46.336,280.006 96.747,242.404 103.489,317.131 " />
<polygon stroke="black" stroke-width="1" fill="rgb(204, 204, 204)" fill-opacity="0.14" points="44.084,401.718 21.100,359.820 27.132,350.347 " />
<polygon stroke="black" stroke-width="1" fill="rgb(204, 204, 204)" fill-opacity="0.14" points="44.084,401.718 38.292,411.370 21.100,359.820 " />
<polygon stroke="black" stroke-width="1" fill="rgb(204, 204, 204)" fill-opacity="0.14" points="7.287,359.056 21.100,359.820 38.292,411.370 " />
<polygon stroke="black" stroke-width="1" fill="rgb(204, 204, 204)" fill-opacity="0.14" points="7.287,359.056 38.292,411.370 12.172,418.708 " />
<polygon stroke="black" stroke-width="1" fill="rgb(204, 204, 204)" fill-opacity="0.14" points="12.172,418.708 38.292,411.370 38.703,469.630 " />
<polygon stroke="black" stroke-width="1" fill="rgb(204, 204, 204)" fill-opacity="0.14" points="38.292,411.370 44.084,401.718 54.117,410.239 " />
<polygon stroke="black" stroke-width="1" fill="rgb(204, 204, 204)" fill-opacity="0.14" points="65.927,452.475 38.292,411.370 54.117,410.239 " />
<polygon stroke="black" stroke-width="1" fill="rgb(204, 204, 204)" fill-opacity="0.14" points="44.084,401.718 72.028,360.602 54.117,410.239 " />
<polygon stroke="black" stroke-width="1" fill="rgb(204, 204, 204)" fill-opacity="0.14" points="27.132,350.347 72.028,360.602 44.084,401.718 " />
<polygon stroke="black" stroke-width="1" fill="rgb(204, 204, 204)" fill-opacity="0.14" points="38.703,469.630 38.292,411.370 65.927,452.475 " />
<polygon stroke="black" stroke-width="1" fill="rgb(204, 204, 204)" fill-opacity="0.14" points="468.567,302.652 444.236,376.047 426.067,296.383 " />
<polygon stroke="black" stroke-width="1" fill="rgb(204, 204, 204)" fill-opacity="0.14" points="455.955,206.513 468.567,302.652 426.067,296.383 " />
<polygon stroke="black" stroke-width="1" fill="rgb(204, 204, 204)" fill-opacity="0.14" points="455.955,206.513 426.067,296.383 417.837,223.688 " />
<polygon stroke="black" stroke-width="1" fill="rgb(204, 204, 204)" fill-opacity="0.14" points="347.489,139.399 455.955,206.513 417.837,223.688 " />
<polygon stroke="black" stroke-width="1" fill="rgb(204, 204, 204)" fill-opacity="0.14" points="339.373,228.547 417.837,223.688 426.067,296.383 " />
<polygon stroke="black" stroke-width="1" fill="rgb(204, 204, 204)" fill-opacity="0.14" points="312.077,179.385 417.837,223.688 339.373,228.547 " />
<polygon stroke="black" stroke-width="1" fill="rgb(204, 204, 204)" fill-opacity="0.14" points="347.489,139.399 417.837,223.688 312.077,179.385 " />
<polygon stroke="black" stroke-width="1" fill="rgb(204, 204, 204)" fill-opacity="0.14" points="339.373,228.547 426.067,296.383 363.900,307.932 " />
<polygon stroke="black" stroke-width="1" fill="rgb(204, 204, 204)" fill-opacity="0.14" points="273.098,248.250 312.077,179.385 339.373,228.547 " />
<polygon stroke="black" stroke-width="1" fill="rgb(204, 204, 204)" fill-opacity="0.14" points="273.098,248.250 339.373,228.547 294.871,299.958 " />
<polygon stroke="black" stroke-width="1" fill="rgb(204, 204, 204)" fill-opacity="0.14" points="294.871,299.958 339.373,228.547 363.900,307.932 " />
<polygon stroke="black" stroke-width="1" fill="rgb(204, 204, 204)" fill-opacity="0.14" points="270.913,335.306 294.871,299.958 363.900,307.932 " />
<polygon stroke="black" stroke-width="1" fill="rgb(204, 204, 204)" fill-opacity="0.14" points="270.913,335.306 226.578,257.279 294.871,299.958 " />
<polygon stroke="black" stroke-width="1" fill="rgb(204, 204, 204)" fill-opacity="0.14" points="294.871,299.958 226.578,257.279 273.098,248.250 " />
<polygon stroke="black" stroke-width="1" fill="rgb(204, 204, 204)" fill-opacity="0.14" points="270.913,335.306 363.900,307.932 322.901,401.659 " />
<polygon stroke="black" stroke-width="1" fill="rgb(204, 204, 204)" fill-opacity="0.14" points="322.901,401.659 363.900,307.932 364.909,428.320 " />
<polygon stroke="black" stroke-width="1" fill="rgb(204, 204, 204)" fill-opacity="0.14" points="364.909,428.320 426.067,296.383 444.236,376.047 " />
<polygon stroke="black" stroke-width="1" fill="rgb(204, 204, 204)" fill-opacity="0.14" points="364.909,428.320 363.900,307.932 426.067,296.383 " />
<polygon stroke="black" stroke-width="1" fill="rgb(204, 204, 204)" fill-opacity="0.14" points="364.909,428.320 233.252,507.727 322.901,401.659 " />
<polygon stroke="black" stroke-width="1" fill="rgb(204, 204, 204)" fill-opacity="0.14" points="389.768,452.302 233.252,507.727 364.909,428.320 " />
<polygon stroke="black" stroke-width="1" fill="rgb(204, 204, 204)" fill-opacity="0.14" points="364.909,428.320 444.236,376.047 389.768,452.302 " />
<polygon stroke="black" stroke-width="1" fill="rgb(204, 204, 204)" fill-opacity="0.14" points="312.077,179.385 246.050,113.845 347.489,139.399 " />
<polygon stroke="black" stroke-width="1" fill="rgb(204, 204, 204)" fill-opacity="0.14" points="347.489,139.399 246.050,113.845 272.825,61.782 " />
<polygon stroke="black" stroke-width="1" fill="rgb(204, 204, 204)" fill-opacity="0.14" points="161.145,76.442 272.825,61.782 246.050,113.845 " />
<polygon stroke="black" stroke-width="1" fill="rgb(204, 204, 204)" fill-opacity="0.14" points="347.489,139.399 272.825,61.782 393.897,106.332 " />
<polygon stroke="black" stroke-width="1" fill="rgb(204, 204, 204)" fill-opacity="0.14" points="347.489,139.399 393.897,106.332 455.955,206.513 " />
<polygon stroke="black" stroke-width="1" fill="rgb(204, 204, 204)" fill-opacity="0.14" points="347.489,139.399 455.955,206.513 393.897,106.332 " />
<polygon stroke="black" stroke-width="1" fill="rgb(204, 204, 204)" fill-opacity="0.14" points="347.489,139.399 417.837,223.688 455.955,206.513 " />
<polygon stroke="black" stroke-width="1" fill="rgb(204, 204, 204)" fill-opacity="0.14" points="455.955,206.513 417.837,223.688 426.067,296.383 " />
<polygon stroke="black" stroke-width="1" fill="rgb(204, 204, 204)" fill-opacity="0.14" points="455.955,206.513 426.067,296.383 468.567,302.652 " />
<polygon stroke="black" stroke-width="1" fill="rgb(204, 204, 204)" fill-opacity="0.14" points="468.567,302.652 426.067,296.383 444.236,376.047 " />
<polygon stroke="black" stroke-width="1" fill="rgb(204, 204, 204)" fill-opacity="0.14" points="339.373,228.547 426.067,296.383 417.837,223.688 " />
<polygon stroke="black" stroke-width="1" fill="rgb(204, 204, 204)" fill-opacity="0.14" points="312.077,179.385 339.373,228.547 417.837,223.688 " />
<polygon stroke="black" stroke-width="1" fill="rgb(204, 204, 204)" fill-opacity="0.14" points="347.489,139.399 312.077,179.385 417.837,223.688 " />
<polygon stroke="black" stroke-width="1" fill="rgb(204, 204, 204)" fill-opacity="0.14" points="339.373,228.547 363.900,307.932 426.067,296.383 " />
<polygon stroke="black" stroke-width="1" fill="rgb(204, 204, 204)" fill-opacity="0.14" points="273.098,248.250 339.373,228.547 312.077,179.385 " />
<polygon stroke="black" stroke-width="1" fill="rgb(204, 204, 204)" fill-opacity="0.14" points="273.098,248.250 294.871,299.958 339.373,228.547 " />
<polygon stroke="black" stroke-width="1" fill="rgb(204, 204, 204)" fill-opacity="0.14" points="294.871,299.958 363.900,307.932 339.373,228.547 " />
<polygon stroke="black" stroke-width="1" fill="rgb(204, 204, 204)" fill-opacity="0.14" points="312.077,179.385 201.472,205.857 273.098,248.250 " />
<polygon stroke="black" stroke-width="1" fill="rgb(204, 204, 204)" fill-opacity="0.14" points="119.268,150.361 201.472,205.857 312.077,179.385 " />
<polygon stroke="black" stroke-width="1" fill="rgb(204, 204, 204)" fill-opacity="0.14" points="226.578,257.279 273.098,248.250 201.472,205.857 " />
<polygon stroke="black" stroke-width="1" fill="rgb(204, 204, 204)" fill-opacity="0.14" points="294.871,299.958 273.098,248.250 226.578,257.279 " />
<polygon stroke="black" stroke-width="1" fill="rgb(204, 204, 204)" fill-opacity="0.14" points="226.578,257.279 201.472,205.857 189.741,244.339 " />
<polygon stroke="black" stroke-width="1" fill="rgb(204, 204, 204)" fill-opacity="0.14" points="270.913,335.306 226.578,257.279 189.741,244.339 " />
<polygon stroke="black" stroke-width="1" fill="rgb(204, 204, 204)" fill-opacity="0.14" points="270.913,335.306 294.871,299.958 226.578,257.279 " />
<polygon stroke="black" stroke-width="1" fill="rgb(204, 204, 204)" fill-opacity="0.14" points="270.913,335.306 363.900,307.932 294.871,299.958 " />
<polygon stroke="black" stroke-width="1" fill="rgb(204, 204, 204)" fill-opacity="0.14" points="270.913,335.306 189.741,244.339 172.798,316.106 " />
<polygon stroke="black" stroke-width="1" fill="rgb(204, 204, 204)" fill-opacity="0.14" points="103.489,317.131 172.798,316.106 189.741,244.339 " />
<polygon stroke="black" stroke-width="1" fill="rgb(204, 204, 204)" fill-opacity="0.14" points="103.489,317.131 189.741,244.339 96.747,242.404 " />
<polygon stroke="black" stroke-width="1" fill="rgb(204, 204, 204)" fill-opacity="0.14" points="114.710,188.897 96.747,242.404 189.741,244.339 " />
<polygon stroke="black" stroke-width="1" fill="rgb(204, 204, 204)" fill-opacity="0.14" points="114.710,188.897 189.741,244.339 201.472,205.857 " />
<polygon stroke="black" stroke-width="1" fill="rgb(204, 204, 204)" fill-opacity="0.14" points="119.268,150.361 114.710,188.897 201.472,205.857 " />
<polygon stroke="black" stroke-width="1" fill="rgb(204, 204, 204)" fill-opacity="0.14" points="103.489,317.131 164.088,387.753 172.798,316.106 " />
<polygon stroke="black" stroke-width="1" fill="rgb(204, 204, 204)" fill-opacity="0.14" points="103.489,317.131 103.405,417.574 164.088,387.753 " />
<polygon stroke="black" stroke-width="1" fill="rgb(204, 204, 204)" fill-opacity="0.14" points="103.405,417.574 233.252,507.727 164.088,387.753 " />
<polygon stroke="black" stroke-width="1" fill="rgb(204, 204, 204)" fill-opacity="0.14" points="233.252,507.727 248.848,396.205 164.088,387.753 " />
<polygon stroke="black" stroke-width="1" fill="rgb(204, 204, 204)" fill-opacity="0.14" points="172.798,316.106 164.088,387.753 248.848,396.205 " />
<polygon stroke="black" stroke-width="1" fill="rgb(204, 204, 204)" fill-opacity="0.14" points="172.798,316.106 248.848,396.205 270.913,335.306 " />
<polygon stroke="black" stroke-width="1" fill="rgb(204, 204, 204)" fill-opacity="0.14" points="233.252,507.727 322.901,401.659 248.848,396.205 " />
<polygon stroke="black" stroke-width="1" fill="rgb(204, 204, 204)" fill-opacity="0.14" points="322.901,401.659 270.913,335.306 248.848,396.205 " />
<polygon stroke="black" stroke-width="1" fill="rgb(204, 204, 204)" fill-opacity="0.14" points="65.927,452.475 233.252,507.727 103.405,417.574 " />
<polygon stroke="black" stroke-width="1" fill="rgb(204, 204, 204)" fill-opacity="0.14" points="233.252,507.727 65.927,452.475 38.703,469.630 " />
<polygon stroke="black" stroke-width="1" fill="rgb(204, 204, 204)" fill-opacity="0.14" points="54.117,410.239 65.927,452.475 103.405,417.574 " />
<polygon stroke="black" stroke-width="1" fill="rgb(204, 204, 204)" fill-opacity="0.14" points="54.117,410.239 103.405,417.574 72.028,360.602 " />
<polygon stroke="black" stroke-width="1" fill="rgb(204, 204, 204)" fill-opacity="0.14" points="103.405,417.574 103.489,317.131 72.028,360.602 " />
<polygon stroke="black" stroke-width="1" fill="rgb(204, 204, 204)" fill-opacity="0.14" points="96.747,242.404 114.710,188.897 58.579,191.328 " />
<polygon stroke="black" stroke-width="1" fill="rgb(204, 204, 204)" fill-opacity="0.14" points="58.579,191.328 45.722,221.813 96.747,242.404 " />
<polygon stroke="black" stroke-width="1" fill="rgb(204, 204, 204)" fill-opacity="0.14" points="96.747,242.404 45.722,221.813 34.373,234.649 " />
<polygon stroke="black" stroke-width="1" fill="rgb(204, 204, 204)" fill-opacity="0.14" points="119.268,150.361 58.579,191.328 114.710,188.897 " />
<polygon stroke="black" stroke-width="1" fill="rgb(204, 204, 204)" fill-opacity="0.14" points="92.651,114.694 58.579,191.328 119.268,150.361 " />
<polygon stroke="black" stroke-width="1" fill="rgb(204, 204, 204)" fill-opacity="0.14" points="58.579,191.328 14.985,222.322 45.722,221.813 " />
<polygon stroke="black" stroke-width="1" fill="rgb(204, 204, 204)" fill-opacity="0.14" points="14.985,222.322 34.373,234.649 45.722,221.813 " />
<polygon stroke="black" stroke-width="1" fill="rgb(204, 204, 204)" fill-opacity="0.14" points="58.579,191.328 27.872,183.358 14.985,222.322 " />
<polygon stroke="black" stroke-width="1" fill="rgb(204, 204, 204)" fill-opacity="0.14" points="14.985,222.322 15.547,232.230 34.373,234.649 " />
<polygon stroke="black" stroke-width="1" fill="rgb(204, 204, 204)" fill-opacity="0.14" points="15.547,232.230 46.336,280.006 34.373,234.649 " />
<polygon stroke="black" stroke-width="1" fill="rgb(204, 204, 204)" fill-opacity="0.14" points="15.547,232.230 17.983,276.770 46.336,280.006 " />
<polygon stroke="black" stroke-width="1" fill="rgb(204, 204, 204)" fill-opacity="0.14" points="17.983,276.770 27.132,350.347 46.336,280.006 " />
<polygon stroke="black" stroke-width="1" fill="rgb(204, 204, 204)" fill-opacity="0.14" points="27.132,350.347 103.489,317.131 46.336,280.006 " />
<polygon stroke="black" stroke-width="1" fill="rgb(204, 204, 204)" fill-opacity="0.14" points="103.489,317.131 27.132,350.347 72.028,360.602 " />
<polygon stroke="black" stroke-width="1" fill="rgb(204, 204, 204)" fill-opacity="0.14" points="17.983,276.770 6.889,346.948 27.132,350.347 " />
<polygon stroke="black" stroke-width="1" fill="rgb(204, 204, 204)" fill-opacity="0.14" points="6.889,346.948 21.100,359.820 27.132,350.347 " />
<polygon stroke="black" stroke-width="1" fill="rgb(204, 204, 204)" fill-opacity="0.14" points="6.889,346.948 7.287,359.056 21.100,359.820 " />
<polygon stroke="black" stroke-width="1" fill="rgb(204, 204, 204)" fill-opacity="0.14" points="34.373,234.649 46.336,280.006 96.747,242.404 " />
<polygon stroke="black" stroke-width="1" fill="rgb(204, 204, 204)" fill-opacity="0.14" points="46.336,280.006 103.489,317.131 96.747,242.404 " />
<polygon stroke="black" stroke-width="1" fill="rgb(204, 204, 204)" fill-opacity="0.14" points="44.084,401.718 27.132,350.347 21.100,359.820 " />
<polygon stroke="black" stroke-width="1" fill="rgb(204, 204, 204)" fill-opacity="0.14" points="44.084,401.718 21.100,359.820 38.292,411.370 " />
<polygon stroke="black" stroke-width="1" fill="rgb(204, 204, 204)" fill-opacity="0.14" points="7.287,359.056 38.292,411.370 21.100,359.820 " />
<polygon stroke="black" stroke-width="1" fill="rgb(204, 204, 204)" fill-opacity="0.14" points="7.287,359.056 12.172,418.708 38.292,411.370 " />
<polygon stroke="black" stroke-width="1" fill="rgb(204, 204, 204)" fill-opacity="0.14" points="12.172,418.708 38.703,469.630 38.292,411.370 " />
<polygon stroke="black" stroke-width="1" fill="rgb(204, 204, 204)" fill-opacity="0.14" points="38.292,411.370 54.117,410.239 44.084,401.718 " />
<polygon stroke="black" stroke-width="1" fill="rgb(204, 204, 204)" fill-opacity="0.14" points="65.927,452.475 54.117,410.239 38.292,411.370 " />
<polygon stroke="black" stroke-width="1" fill="rgb(204, 204, 204)" fill-opacity="0.14" points="44.084,401.718 54.117,410.239 72.028,360.602 " />
<polygon stroke="black" stroke-width="1" fill="rgb(204, 204, 204)" fill-opacity="0.14" points="27.132,350.347 44.084,401.718 72.028,360.602 " />
<polygon stroke="black" stroke-width="1" fill="rgb(204, 204, 204)" fill-opacity="0.14" points="38.703,469.630 65.927,452.475 38.292,411.370 " />
<polygon stroke="black" stroke-width="1" fill="rgb(204, 204, 204)" fill-opacity="0.14" points="92.651,114.694 58.579,191.328 27.872,183.358 " />
<polygon stroke="black" stroke-width="1" fill="rgb(204, 204, 204)" fill-opacity="0.14" points="503.973,54.860 482.481,69.089 484.533,44.834 " />
<polygon stroke="black" stroke-width="1" fill="rgb(204, 204, 204)" fill-opacity="0.14" points="503.973,54.860 484.533,44.834 469.631,27.297 " />
<polygon stroke="black" stroke-width="1" fill="rgb(204, 204, 204)" fill-opacity="0.14" points="503.973,54.860 469.631,27.297 475.515,6.067 " />
<polygon stroke="black" stroke-width="1" fill="rgb(204, 204, 204)" fill-opacity="0.14" points="475.515,6.067 469.631,27.297 443.415,26.638 " />
<polygon stroke="black" stroke-width="1" fill="rgb(204, 204, 204)" fill-opacity="0.14" points="484.533,44.834 443.415,26.638 469.631,27.297 " />
<polygon stroke="black" stroke-width="1" fill="rgb(204, 204, 204)" fill-opacity="0.14" points="475.515,6.067 443.415,26.638 436.797,6.029 " />
<polygon stroke="black" stroke-width="1" fill="rgb(204, 204, 204)" fill-opacity="0.14" points="436.797,6.029 443.415,26.638 426.309,42.324 " />
<polygon stroke="black" stroke-width="1" fill="rgb(204, 204, 204)" fill-opacity="0.14" points="436.797,6.029 426.309,42.324 406.770,31.565 " />
<polygon stroke="black" stroke-width="1" fill="rgb(204, 204, 204)" fill-opacity="0.14" points="406.770,31.565 426.309,42.324 425.208,67.373 " />
<polygon stroke="black" stroke-width="1" fill="rgb(204, 204, 204)" fill-opacity="0.14" points="426.309,42.324 443.415,26.638 425.208,67.373 " />
<polygon stroke="black" stroke-width="1" fill="rgb(204, 204, 204)" fill-opacity="0.14" points="406.770,31.565 425.208,67.373 404.157,71.981 " />
<polygon stroke="black" stroke-width="1" fill="rgb(204, 204, 204)" fill-opacity="0.14" points="404.157,71.981 425.208,67.373 440.697,83.924 " />
<polygon stroke="black" stroke-width="1" fill="rgb(204, 204, 204)" fill-opacity="0.14" points="425.208,67.373 443.415,26.638 440.697,83.924 " />
<polygon stroke="black" stroke-width="1" fill="rgb(204, 204, 204)" fill-opacity="0.14" points="404.157,71.981 440.697,83.924 432.741,104.162 " />
<polygon stroke="black" stroke-width="1" fill="rgb(204, 204, 204)" fill-opacity="0.14" points="432.741,104.162 440.697,83.924 465.553,84.454 " />
<polygon stroke="black" stroke-width="1" fill="rgb(204, 204, 204)" fill-opacity="0.14" points="440.697,83.924 443.415,26.638 465.553,84.454 " />
<polygon stroke="black" stroke-width="1" fill="rgb(204, 204, 204)" fill-opacity="0.14" points="432.741,104.162 465.553,84.454 475.182,104.162 " />
<polygon stroke="black" stroke-width="1" fill="rgb(204, 204, 204)" fill-opacity="0.14" points="475.182,104.162 465.553,84.454 482.481,69.089 " />
<polygon stroke="black" stroke-width="1" fill="rgb(204, 204, 204)" fill-opacity="0.14" points="465.553,84.454 443.415,26.638 482.481,69.089 " />
<polygon stroke="black" stroke-width="1" fill="rgb(204, 204, 204)" fill-opacity="0.14" points="482.481,69.089 443.415,26.638 484.533,44.834 " />
<polygon stroke="black" stroke-width="1" fill="rgb(204, 204, 204)" fill-opacity="0.14" points="475.182,104.162 482.481,69.089 503.973,54.860 " />
<polygon stroke="black" stroke-width="1" fill="rgb(204, 204, 204)" fill-opacity="0.14" points="119.268,150.361 161.145,76.442 92.651,114.694 " />
<polygon stroke="black" stroke-width="1" fill="rgb(204, 204, 204)" fill-opacity="0.14" points="161.145,76.442 119.268,150.361 246.050,113.845 " />
<polygon stroke="black" stroke-width="1" fill="rgb(204, 204, 204)" fill-opacity="0.14" points="119.268,150.361 312.077,179.385 246.050,113.845 " />
<polygon stroke="black" stroke-width="1" fill="rgb(204, 204, 204)" fill-opacity="0.14" points="161.145,76.442 246.050,113.845 272.825,61.782 " />
<polygon stroke="black" stroke-width="1" fill="rgb(204, 204, 204)" fill-opacity="0.14" points="347.489,139.399 272.825,61.782 246.050,113.845 " />
<polygon stroke="black" stroke-width="1" fill="rgb(204, 204, 204)" fill-opacity="0.14" points="312.077,179.385 347.489,139.399 246.050,113.845 " />
<polygon stroke="black" stroke-width="1" fill="rgb(204, 204, 204)" fill-opacity="0.14" points="347.489,139.399 393.897,106.332 272.825,61.782 " />
<polygon stroke="black" stroke-width="1" fill="rgb(204, 204, 204)" fill-opacity="0.14" points="389.768,452.302 364.909,428.320 233.252,507.727 " />
<polygon stroke="black" stroke-width="1" fill="rgb(204, 204, 204)" fill-opacity="0.14" points="364.909,428.320 322.901,401.659 233.252,507.727 " />
<polygon stroke="black" stroke-width="1" fill="rgb(204, 204, 204)" fill-opacity="0.14" points="322.901,401.659 364.909,428.320 363.900,307.932 " />
<polygon stroke="black" stroke-width="1" fill="rgb(204, 204, 204)" fill-opacity="0.14" points="270.913,335.306 322.901,401.659 363.900,307.932 " />
<polygon stroke="black" stroke-width="1" fill="rgb(204, 204, 204)" fill-opacity="0.14" points="364.909,428.320 426.067,296.383 363.900,307.932 " />
<polygon stroke="black" stroke-width="1" fill="rgb(204, 204, 204)" fill-opacity="0.14" points="364.909,428.320 444.236,376.047 426.067,296.383 " />
<polygon stroke="black" stroke-width="1" fill="rgb(204, 204, 204)" fill-opacity="0.14" points="364.909,428.320 389.768,452.302 444.236,376.047 " />
<polygon stroke="black" stroke-width="1" fill="rgb(204, 204, 204)" fill-opacity="0.14" points="92.651,114.694 27.872,183.358 58.579,191.328 " />
<polygon stroke="black" stroke-width="1" fill="rgb(204, 204, 204)" fill-opacity="0.14" points="503.973,54.860 484.533,44.834 482.481,69.089 " />
<polygon stroke="black" stroke-width="1" fill="rgb(204, 204, 204)" fill-opacity="0.14" points="503.973,54.860 475.515,6.067 469.631,27.297 " />
<polygon stroke="black" stroke-width="1" fill="rgb(204, 204, 204)" fill-opacity="0.14" points="475.515,6.067 443.415,26.638 469.631,27.297 " />
<polygon stroke="black" stroke-width="1" fill="rgb(204, 204, 204)" fill-opacity="0.14" points="484.533,44.834 469.631,27.297 443.415,26.638 " />
<polygon stroke="black" stroke-width="1" fill="rgb(204, 204, 204)" fill-opacity="0.14" points="475.515,6.067 436.797,6.029 443.415,26.638 " />
<polygon stroke="black" stroke-width="1" fill="rgb(204, 204, 204)" fill-opacity="0.14" points="436.797,6.029 426.309,42.324 443.415,26.638 " />
<polygon stroke="black" stroke-width="1" fill="rgb(204, 204, 204)" fill-opacity="0.14" points="436.797,6.029 406.770,31.565 426.309,42.324 " />
<polygon stroke="black" stroke-width="1" fill="rgb(204, 204, 204)" fill-opacity="0.14" points="406.770,31.565 425.208,67.373 426.309,42.324 " />
<polygon stroke="black" stroke-width="1" fill="rgb(204, 204, 204)" fill-opacity="0.14" points="426.309,42.324 425.208,67.373 443.415,26.638 " />
<polygon stroke="black" stroke-width="1" fill="rgb(204, 204, 204)" fill-opacity="0.14" points="406.770,31.565 404.157,71.981 425.208,67.373 " />
<polygon stroke="black" stroke-width="1" fill="rgb(204, 204, 204)" fill-opacity="0.14" points="404.157,71.981 440.697,83.924 425.208,67.373 " />
<polygon stroke="black" stroke-width="1" fill="rgb(204, 204, 204)" fill-opacity="0.14" points="425.208,67.373 440.697,83.924 443.415,26.638 " />
<polygon stroke="black" stroke-width="1" fill="rgb(204, 204, 204)" fill-opacity="0.14" points="404.157,71.981 432.741,104.162 440.697,83.924 " />
<polygon stroke="black" stroke-width="1" fill="rgb(204, 204, 204)" fill-opacity="0.14" points="432.741,104.162 465.553,84.454 440.697,83.924 " />
<polygon stroke="black" stroke-width="1" fill="rgb(204, 204, 204)" fill-opacity="0.14" points="440.697,83.924 465.553,84.454 443.415,26.638 " />
<polygon stroke="black" stroke-width="1" fill="rgb(204, 204, 204)" fill-opacity="0.14" points="432.741,104.162 475.182,104.162 465.553,84.454 " />
<polygon stroke="black" stroke-width="1" fill="rgb(204, 204, 204)" fill-opacity="0.14" points="475.182,104.162 482.481,69.089 465.553,84.454 " />
<polygon stroke="black" stroke-width="1" fill="rgb(204, 204, 204)" fill-opacity="0.14" points="482.481,69.089 484.533,44.834 443.415,26.638 " />
<polygon stroke="black" stroke-width="1" fill="rgb(204, 204, 204)" fill-opacity="0.14" points="465.553,84.454 482.481,69.089 443.415,26.638 " />
<polygon stroke="black" stroke-width="1" fill="rgb(204, 204, 204)" fill-opacity="0.14" points="503.973,54.860 469.631,27.297 484.533,44.834 " />
<polygon stroke="black" stroke-width="1" fill="rgb(204, 204, 204)" fill-opacity="0.14" points="475.182,104.162 503.973,54.860 482.481,69.089 " />
<polygon stroke="black" stroke-width="1" fill="rgb(204, 204, 204)" fill-opacity="0.14" points="56.526,130.119 16.410,42.423 25.510,130.076 " />
<polygon stroke="black" stroke-width="1" fill="rgb(204, 204, 204)" fill-opacity="0.14" points="56.526,130.119 71.963,9.241 16.410,42.423 " />
<polygon stroke="black" stroke-width="1" fill="rgb(204, 204, 204)" fill-opacity="0.14" points="25.512,130.023 56.551,130.081 16.404,42.411 " />
<polygon stroke="black" stroke-width="1" fill="rgb(204, 204, 204)" fill-opacity="0.14" points="16.404,42.411 56.551,130.081 71.841,9.142 " />
<polygon stroke="black" stroke-width="1" fill="rgb(204, 204, 204)" fill-opacity="0.14" points="486.309,506.662 440.987,400.579 449.298,506.657 " />
<polygon stroke="black" stroke-width="1" fill="rgb(204, 204, 204)" fill-opacity="0.14" points="486.309,506.662 504.327,362.469 440.987,400.579 " />
<polygon stroke="black" stroke-width="1" fill="rgb(204, 204, 204)" fill-opacity="0.14" points="449.209,506.581 486.190,506.581 440.963,400.467 " />
<polygon stroke="black" stroke-width="1" fill="rgb(204, 204, 204)" fill-opacity="0.14" points="440.963,400.467 486.190,506.581 504.327,362.469 " />
<polygon stroke="black" stroke-width="1" fill="rgb(204, 204, 204)" fill-opacity="0.14" points="56.526,130.119 25.510,130.076 16.410,42.423 " />
<polygon stroke="black" stroke-width="1" fill="rgb(204, 204, 204)" fill-opacity="0.14" points="56.526,130.119 16.410,42.423 71.963,9.241 " />
<polygon stroke="black" stroke-width="1" fill="rgb(204, 204, 204)" fill-opacity="0.14" points="25.512,130.023 16.404,42.411 56.551,130.081 " />
<polygon stroke="black" stroke-width="1" fill="rgb(204, 204, 204)" fill-opacity="0.14" points="16.404,42.411 71.841,9.142 56.551,130.081 " />
<polygon stroke="black" stroke-width="1" fill="rgb(204, 204, 204)" fill-opacity="0.14" points="486.309,506.662 449.298,506.657 440.987,400.579 " />
<polygon stroke="black" stroke-width="1" fill="rgb(204, 204, 204)" fill-opacity="0.14" points="486.309,506.662 440.987,400.579 504.327,362.469 " />
<polygon stroke="black" stroke-width="1" fill="rgb(204, 204, 204)" fill-opacity="0.14" points="449.209,506.581 440.963,400.467 486.190,506.581 " />
<polygon stroke="black" stroke-width="1" fill="rgb(204, 204, 204)" fill-opacity="0.14" points="440.963,400.467 504.327,362.469 486.190,506.581 " />

</svg>
