{"asset":{"version":"2.0","generator":"Star Warfare Unity lightmap restoration"},"scene":0,"scenes":[{"nodes":[0]}],"nodes":[{"name":"RestoredStage","mesh":0}],"meshes":[{"name":"RestoredStage","primitives":[{"attributes":{"POSITION":0,"NORMAL":1,"TEXCOORD_0":2,"TEXCOORD_1":3},"indices":4,"material":0},{"attributes":{"POSITION":5,"NORMAL":6,"TEXCOORD_0":7,"TEXCOORD_1":8},"indices":9,"material":1},{"attributes":{"POSITION":10,"NORMAL":11,"TEXCOORD_0":12,"TEXCOORD_1":13},"indices":14,"material":2},{"attributes":{"POSITION":15,"NORMAL":16,"TEXCOORD_0":17,"TEXCOORD_1":18},"indices":19,"material":3},{"attributes":{"POSITION":20,"NORMAL":21,"TEXCOORD_0":22,"TEXCOORD_1":23},"indices":24,"material":4},{"attributes":{"POSITION":25,"NORMAL":26,"TEXCOORD_0":27,"TEXCOORD_1":28},"indices":29,"material":5},{"attributes":{"POSITION":30,"NORMAL":31,"TEXCOORD_0":32,"TEXCOORD_1":33},"indices":34,"material":6},{"attributes":{"POSITION":35,"NORMAL":36,"TEXCOORD_0":37,"TEXCOORD_1":38},"indices":39,"material":7},{"attributes":{"POSITION":40,"NORMAL":41,"TEXCOORD_0":42,"TEXCOORD_1":43},"indices":44,"material":8},{"attributes":{"POSITION":45,"NORMAL":46,"TEXCOORD_0":47,"TEXCOORD_1":48},"indices":49,"material":9},{"attributes":{"POSITION":50,"NORMAL":51,"TEXCOORD_0":52,"TEXCOORD_1":53},"indices":54,"material":10},{"attributes":{"POSITION":55,"NORMAL":56,"TEXCOORD_0":57,"TEXCOORD_1":58},"indices":59,"material":11},{"attributes":{"POSITION":60,"NORMAL":61,"TEXCOORD_0":62,"TEXCOORD_1":63},"indices":64,"material":12},{"attributes":{"POSITION":65,"NORMAL":66,"TEXCOORD_0":67,"TEXCOORD_1":68},"indices":69,"material":13},{"attributes":{"POSITION":70,"NORMAL":71,"TEXCOORD_0":72,"TEXCOORD_1":73},"indices":74,"material":14},{"attributes":{"POSITION":75,"NORMAL":76,"TEXCOORD_0":77,"TEXCOORD_1":78},"indices":79,"material":15},{"attributes":{"POSITION":80,"NORMAL":81,"TEXCOORD_0":82,"TEXCOORD_1":83},"indices":84,"material":16},{"attributes":{"POSITION":85,"NORMAL":86,"TEXCOORD_0":87,"TEXCOORD_1":88},"indices":89,"material":17},{"attributes":{"POSITION":90,"NORMAL":91,"TEXCOORD_0":92,"TEXCOORD_1":93},"indices":94,"material":18},{"attributes":{"POSITION":95,"NORMAL":96,"TEXCOORD_0":97,"TEXCOORD_1":98},"indices":99,"material":19},{"attributes":{"POSITION":100,"NORMAL":101,"TEXCOORD_0":102,"TEXCOORD_1":103},"indices":104,"material":20},{"attributes":{"POSITION":105,"NORMAL":106,"TEXCOORD_0":107,"TEXCOORD_1":108},"indices":109,"material":21},{"attributes":{"POSITION":110,"NORMAL":111,"TEXCOORD_0":112,"TEXCOORD_1":113},"indices":114,"material":22}]}],"bufferViews":[{"buffer":0,"byteOffset":0,"byteLength":44580},{"buffer":0,"byteOffset":44580,"byteLength":44580},{"buffer":0,"byteOffset":89160,"byteLength":29720},{"buffer":0,"byteOffset":118880,"byteLength":29720},{"buffer":0,"byteOffset":148600,"byteLength":24792},{"buffer":0,"byteOffset":173392,"byteLength":31740},{"buffer":0,"byteOffset":205132,"byteLength":31740},{"buffer":0,"byteOffset":236872,"byteLength":21160},{"buffer":0,"byteOffset":258032,"byteLength":21160},{"buffer":0,"byteOffset":279192,"byteLength":18744},{"buffer":0,"byteOffset":297936,"byteLength":1836},{"buffer":0,"byteOffset":299772,"byteLength":1836},{"buffer":0,"byteOffset":301608,"byteLength":1224},{"buffer":0,"byteOffset":302832,"byteLength":1224},{"buffer":0,"byteOffset":304056,"byteLength":972},{"buffer":0,"byteOffset":305028,"byteLength":936},{"buffer":0,"byteOffset":305964,"byteLength":936},{"buffer":0,"byteOffset":306900,"byteLength":624},{"buffer":0,"byteOffset":307524,"byteLength":624},{"buffer":0,"byteOffset":308148,"byteLength":768},{"buffer":0,"byteOffset":308916,"byteLength":1008},{"buffer":0,"byteOffset":309924,"byteLength":1008},{"buffer":0,"byteOffset":310932,"byteLength":672},{"buffer":0,"byteOffset":311604,"byteLength":672},{"buffer":0,"byteOffset":312276,"byteLength":576},{"buffer":0,"byteOffset":312852,"byteLength":1212},{"buffer":0,"byteOffset":314064,"byteLength":1212},{"buffer":0,"byteOffset":315276,"byteLength":808},{"buffer":0,"byteOffset":316084,"byteLength":808},{"buffer":0,"byteOffset":316892,"byteLength":1728},{"buffer":0,"byteOffset":318620,"byteLength":2772},{"buffer":0,"byteOffset":321392,"byteLength":2772},{"buffer":0,"byteOffset":324164,"byteLength":1848},{"buffer":0,"byteOffset":326012,"byteLength":1848},{"buffer":0,"byteOffset":327860,"byteLength":1500},{"buffer":0,"byteOffset":329360,"byteLength":3048},{"buffer":0,"byteOffset":332408,"byteLength":3048},{"buffer":0,"byteOffset":335456,"byteLength":2032},{"buffer":0,"byteOffset":337488,"byteLength":2032},{"buffer":0,"byteOffset":339520,"byteLength":1608},{"buffer":0,"byteOffset":341128,"byteLength":1776},{"buffer":0,"byteOffset":342904,"byteLength":1776},{"buffer":0,"byteOffset":344680,"byteLength":1184},{"buffer":0,"byteOffset":345864,"byteLength":1184},{"buffer":0,"byteOffset":347048,"byteLength":912},{"buffer":0,"byteOffset":347960,"byteLength":3816},{"buffer":0,"byteOffset":351776,"byteLength":3816},{"buffer":0,"byteOffset":355592,"byteLength":2544},{"buffer":0,"byteOffset":358136,"byteLength":2544},{"buffer":0,"byteOffset":360680,"byteLength":2184},{"buffer":0,"byteOffset":362864,"byteLength":2256},{"buffer":0,"byteOffset":365120,"byteLength":2256},{"buffer":0,"byteOffset":367376,"byteLength":1504},{"buffer":0,"byteOffset":368880,"byteLength":1504},{"buffer":0,"byteOffset":370384,"byteLength":1056},{"buffer":0,"byteOffset":371440,"byteLength":26076},{"buffer":0,"byteOffset":397516,"byteLength":26076},{"buffer":0,"byteOffset":423592,"byteLength":17384},{"buffer":0,"byteOffset":440976,"byteLength":17384},{"buffer":0,"byteOffset":458360,"byteLength":13656},{"buffer":0,"byteOffset":472016,"byteLength":816},{"buffer":0,"byteOffset":472832,"byteLength":816},{"buffer":0,"byteOffset":473648,"byteLength":544},{"buffer":0,"byteOffset":474192,"byteLength":544},{"buffer":0,"byteOffset":474736,"byteLength":408},{"buffer":0,"byteOffset":475144,"byteLength":5976},{"buffer":0,"byteOffset":481120,"byteLength":5976},{"buffer":0,"byteOffset":487096,"byteLength":3984},{"buffer":0,"byteOffset":491080,"byteLength":3984},{"buffer":0,"byteOffset":495064,"byteLength":3072},{"buffer":0,"byteOffset":498136,"byteLength":3360},{"buffer":0,"byteOffset":501496,"byteLength":3360},{"buffer":0,"byteOffset":504856,"byteLength":2240},{"buffer":0,"byteOffset":507096,"byteLength":2240},{"buffer":0,"byteOffset":509336,"byteLength":1680},{"buffer":0,"byteOffset":511016,"byteLength":36684},{"buffer":0,"byteOffset":547700,"byteLength":36684},{"buffer":0,"byteOffset":584384,"byteLength":24456},{"buffer":0,"byteOffset":608840,"byteLength":24456},{"buffer":0,"byteOffset":633296,"byteLength":20400},{"buffer":0,"byteOffset":653696,"byteLength":7932},{"buffer":0,"byteOffset":661628,"byteLength":7932},{"buffer":0,"byteOffset":669560,"byteLength":5288},{"buffer":0,"byteOffset":674848,"byteLength":5288},{"buffer":0,"byteOffset":680136,"byteLength":5700},{"buffer":0,"byteOffset":685836,"byteLength":48},{"buffer":0,"byteOffset":685884,"byteLength":48},{"buffer":0,"byteOffset":685932,"byteLength":32},{"buffer":0,"byteOffset":685964,"byteLength":32},{"buffer":0,"byteOffset":685996,"byteLength":24},{"buffer":0,"byteOffset":686020,"byteLength":696},{"buffer":0,"byteOffset":686716,"byteLength":696},{"buffer":0,"byteOffset":687412,"byteLength":464},{"buffer":0,"byteOffset":687876,"byteLength":464},{"buffer":0,"byteOffset":688340,"byteLength":384},{"buffer":0,"byteOffset":688724,"byteLength":264},{"buffer":0,"byteOffset":688988,"byteLength":264},{"buffer":0,"byteOffset":689252,"byteLength":176},{"buffer":0,"byteOffset":689428,"byteLength":176},{"buffer":0,"byteOffset":689604,"byteLength":144},{"buffer":0,"byteOffset":689748,"byteLength":96},{"buffer":0,"byteOffset":689844,"byteLength":96},{"buffer":0,"byteOffset":689940,"byteLength":64},{"buffer":0,"byteOffset":690004,"byteLength":64},{"buffer":0,"byteOffset":690068,"byteLength":48},{"buffer":0,"byteOffset":690116,"byteLength":96},{"buffer":0,"byteOffset":690212,"byteLength":96},{"buffer":0,"byteOffset":690308,"byteLength":64},{"buffer":0,"byteOffset":690372,"byteLength":64},{"buffer":0,"byteOffset":690436,"byteLength":48},{"buffer":0,"byteOffset":690484,"byteLength":240},{"buffer":0,"byteOffset":690724,"byteLength":240},{"buffer":0,"byteOffset":690964,"byteLength":160},{"buffer":0,"byteOffset":691124,"byteLength":160},{"buffer":0,"byteOffset":691284,"byteLength":144}],"accessors":[{"bufferView":0,"componentType":5126,"count":3715,"type":"VEC3","min":[-53.2703934,-0.0591186881,-53.2656174],"max":[54.5687675,17.5065041,11.0316811]},{"bufferView":1,"componentType":5126,"count":3715,"type":"VEC3","min":[-1.0,-1.0,-1.0],"max":[1.0,1.0,1.0]},{"bufferView":2,"componentType":5126,"count":3715,"type":"VEC2"},{"bufferView":3,"componentType":5126,"count":3715,"type":"VEC2"},{"bufferView":4,"componentType":5125,"count":6198,"type":"SCALAR"},{"bufferView":5,"componentType":5126,"count":2645,"type":"VEC3","min":[-18.284914,1.90098035,0.603523314],"max":[53.1113586,21.2950649,26.4091167]},{"bufferView":6,"componentType":5126,"count":2645,"type":"VEC3","min":[-1.0,-1.0,-1.0],"max":[1.0,1.0,1.0]},{"bufferView":7,"componentType":5126,"count":2645,"type":"VEC2"},{"bufferView":8,"componentType":5126,"count":2645,"type":"VEC2"},{"bufferView":9,"componentType":5125,"count":4686,"type":"SCALAR"},{"bufferView":10,"componentType":5126,"count":153,"type":"VEC3","min":[-17.3759518,1.90167582,1.8174448],"max":[51.5067215,14.6459017,24.740284]},{"bufferView":11,"componentType":5126,"count":153,"type":"VEC3","min":[-1.0,-0.997479654,-1.0],"max":[0.999984982,0.0240667022,1.0]},{"bufferView":12,"componentType":5126,"count":153,"type":"VEC2"},{"bufferView":13,"componentType":5126,"count":153,"type":"VEC2"},{"bufferView":14,"componentType":5125,"count":243,"type":"SCALAR"},{"bufferView":15,"componentType":5126,"count":78,"type":"VEC3","min":[-32.2112083,-0.0123017523,-37.7936325],"max":[52.3743629,7.6821847,45.7887039]},{"bufferView":16,"componentType":5126,"count":78,"type":"VEC3","min":[-0.321570035,0.912396127,-0.322156685],"max":[0.292819281,1.0,0.409308327]},{"bufferView":17,"componentType":5126,"count":78,"type":"VEC2"},{"bufferView":18,"componentType":5126,"count":78,"type":"VEC2"},{"bufferView":19,"componentType":5125,"count":192,"type":"SCALAR"},{"bufferView":20,"componentType":5126,"count":84,"type":"VEC3","min":[-36.4833069,0.00594991073,-10.8066483],"max":[28.6745453,5.00282526,36.7839508]},{"bufferView":21,"componentType":5126,"count":84,"type":"VEC3","min":[-0.323623706,0.883014524,-0.323623706],"max":[0.469345662,1.0,0.00199605733]},{"bufferView":22,"componentType":5126,"count":84,"type":"VEC2"},{"bufferView":23,"componentType":5126,"count":84,"type":"VEC2"},{"bufferView":24,"componentType":5125,"count":144,"type":"SCALAR"},{"bufferView":25,"componentType":5126,"count":101,"type":"VEC3","min":[-196.266556,-57.4855499,-193.401764],"max":[191.709091,219.029724,194.774155]},{"bufferView":26,"componentType":5126,"count":101,"type":"VEC3","min":[-0.991496746,-0.999416992,-0.992019102],"max":[0.991496746,0.228302587,0.992019102]},{"bufferView":27,"componentType":5126,"count":101,"type":"VEC2"},{"bufferView":28,"componentType":5126,"count":101,"type":"VEC2"},{"bufferView":29,"componentType":5125,"count":432,"type":"SCALAR"},{"bufferView":30,"componentType":5126,"count":231,"type":"VEC3","min":[-36.4833069,-0.114661038,-25.3286572],"max":[52.3478966,17.4081287,33.1762123]},{"bufferView":31,"componentType":5126,"count":231,"type":"VEC3","min":[-1.0,-0.236784692,-0.971562149],"max":[1.0,1.0,1.0]},{"bufferView":32,"componentType":5126,"count":231,"type":"VEC2"},{"bufferView":33,"componentType":5126,"count":231,"type":"VEC2"},{"bufferView":34,"componentType":5125,"count":375,"type":"SCALAR"},{"bufferView":35,"componentType":5126,"count":254,"type":"VEC3","min":[-36.4833069,-0.11428681,-25.3286572],"max":[52.3478966,8.04204845,33.1465149]},{"bufferView":36,"componentType":5126,"count":254,"type":"VEC3","min":[-1.0,-0.999999961,-1.0],"max":[1.0,0.000146937552,1.0]},{"bufferView":37,"componentType":5126,"count":254,"type":"VEC2"},{"bufferView":38,"componentType":5126,"count":254,"type":"VEC2"},{"bufferView":39,"componentType":5125,"count":402,"type":"SCALAR"},{"bufferView":40,"componentType":5126,"count":148,"type":"VEC3","min":[-17.2832851,-0.114659265,-7.16141987],"max":[9.65315819,12.2869253,3.75262642]},{"bufferView":41,"componentType":5126,"count":148,"type":"VEC3","min":[-1.0,-1.1920929e-07,-0.986564986],"max":[0.989007885,1.0,1.0]},{"bufferView":42,"componentType":5126,"count":148,"type":"VEC2"},{"bufferView":43,"componentType":5126,"count":148,"type":"VEC2"},{"bufferView":44,"componentType":5125,"count":228,"type":"SCALAR"},{"bufferView":45,"componentType":5126,"count":318,"type":"VEC3","min":[-22.6193924,-0.114660494,-55.0277214],"max":[52.7115898,8.20932007,5.76453829]},{"bufferView":46,"componentType":5126,"count":318,"type":"VEC3","min":[-1.0,-1.1920929e-07,-1.0],"max":[1.0,1.0,1.0]},{"bufferView":47,"componentType":5126,"count":318,"type":"VEC2"},{"bufferView":48,"componentType":5126,"count":318,"type":"VEC2"},{"bufferView":49,"componentType":5125,"count":546,"type":"SCALAR"},{"bufferView":50,"componentType":5126,"count":188,"type":"VEC3","min":[-36.4833069,-0.114661038,-49.243782],"max":[52.2660561,11.7781639,40.7501526]},{"bufferView":51,"componentType":5126,"count":188,"type":"VEC3","min":[-1.0,-0.0108689232,-1.0],"max":[1.0,0.00664830202,1.0]},{"bufferView":52,"componentType":5126,"count":188,"type":"VEC2"},{"bufferView":53,"componentType":5126,"count":188,"type":"VEC2"},{"bufferView":54,"componentType":5125,"count":264,"type":"SCALAR"},{"bufferView":55,"componentType":5126,"count":2173,"type":"VEC3","min":[-47.6409302,-0.114660375,-45.0277519],"max":[52.6669884,6.16625261,50.8049812]},{"bufferView":56,"componentType":5126,"count":2173,"type":"VEC3","min":[-1.0,-0.785045299,-1.0],"max":[1.0,1.0,1.0]},{"bufferView":57,"componentType":5126,"count":2173,"type":"VEC2"},{"bufferView":58,"componentType":5126,"count":2173,"type":"VEC2"},{"bufferView":59,"componentType":5125,"count":3414,"type":"SCALAR"},{"bufferView":60,"componentType":5126,"count":68,"type":"VEC3","min":[-10.968811,4.98461866,8.88315201],"max":[-1.49915314,9.65248585,16.9826889]},{"bufferView":61,"componentType":5126,"count":68,"type":"VEC3","min":[-1.0,-1.1920929e-07,-1.0],"max":[1.0,1.1920929e-07,1.0]},{"bufferView":62,"componentType":5126,"count":68,"type":"VEC2"},{"bufferView":63,"componentType":5126,"count":68,"type":"VEC2"},{"bufferView":64,"componentType":5125,"count":102,"type":"SCALAR"},{"bufferView":65,"componentType":5126,"count":498,"type":"VEC3","min":[-55.3781738,9.14441586,-63.3209686],"max":[59.6268387,26.3153076,59.4770279]},{"bufferView":66,"componentType":5126,"count":498,"type":"VEC3","min":[-0.999785595,-0.997124985,-0.997564792],"max":[0.999849279,0.999994209,0.999846445]},{"bufferView":67,"componentType":5126,"count":498,"type":"VEC2"},{"bufferView":68,"componentType":5126,"count":498,"type":"VEC2"},{"bufferView":69,"componentType":5125,"count":768,"type":"SCALAR"},{"bufferView":70,"componentType":5126,"count":280,"type":"VEC3","min":[-48.7156906,-9.80395384e-07,-66.9101486],"max":[55.466507,18.9391289,55.4455032]},{"bufferView":71,"componentType":5126,"count":280,"type":"VEC3","min":[-1.0,-0.577350269,-1.0],"max":[1.0,0.577350269,1.0]},{"bufferView":72,"componentType":5126,"count":280,"type":"VEC2"},{"bufferView":73,"componentType":5126,"count":280,"type":"VEC2"},{"bufferView":74,"componentType":5125,"count":420,"type":"SCALAR"},{"bufferView":75,"componentType":5126,"count":3057,"type":"VEC3","min":[-18.4456863,-0.376519531,0.728473365],"max":[50.2049942,12.4105101,51.5259552]},{"bufferView":76,"componentType":5126,"count":3057,"type":"VEC3","min":[-1.0,-1.0,-1.0],"max":[1.0,1.0,1.0]},{"bufferView":77,"componentType":5126,"count":3057,"type":"VEC2"},{"bufferView":78,"componentType":5126,"count":3057,"type":"VEC2"},{"bufferView":79,"componentType":5125,"count":5100,"type":"SCALAR"},{"bufferView":80,"componentType":5126,"count":661,"type":"VEC3","min":[-55.566555,-3.52587485,34.2572174],"max":[-36.318306,14.0110531,58.3447304]},{"bufferView":81,"componentType":5126,"count":661,"type":"VEC3","min":[-1.0,-1.0,-1.0],"max":[1.0,1.0,1.0]},{"bufferView":82,"componentType":5126,"count":661,"type":"VEC2"},{"bufferView":83,"componentType":5126,"count":661,"type":"VEC2"},{"bufferView":84,"componentType":5125,"count":1425,"type":"SCALAR"},{"bufferView":85,"componentType":5126,"count":4,"type":"VEC3","min":[-52.4261856,-6.54682117e-06,-54.9187241],"max":[52.4261856,6.54682117e-06,54.9187241]},{"bufferView":86,"componentType":5126,"count":4,"type":"VEC3","min":[0.0,1.0,1.1920929e-07],"max":[0.0,1.0,1.1920929e-07]},{"bufferView":87,"componentType":5126,"count":4,"type":"VEC2"},{"bufferView":88,"componentType":5126,"count":4,"type":"VEC2"},{"bufferView":89,"componentType":5125,"count":6,"type":"SCALAR"},{"bufferView":90,"componentType":5126,"count":58,"type":"VEC3","min":[-53.0808601,-0.114667237,-57.5016937],"max":[54.3406677,16.4931374,58.8857956]},{"bufferView":91,"componentType":5126,"count":58,"type":"VEC3","min":[-1.0,-1.1920929e-07,-1.0],"max":[1.0,1.0,1.0]},{"bufferView":92,"componentType":5126,"count":58,"type":"VEC2"},{"bufferView":93,"componentType":5126,"count":58,"type":"VEC2"},{"bufferView":94,"componentType":5125,"count":96,"type":"SCALAR"},{"bufferView":95,"componentType":5126,"count":22,"type":"VEC3","min":[-53.0808601,4.50869656,-57.4784241],"max":[53.243084,15.8338556,57.1865692]},{"bufferView":96,"componentType":5126,"count":22,"type":"VEC3","min":[-1.0,-1.1920929e-07,-1.0],"max":[1.0,1.1920929e-07,1.0]},{"bufferView":97,"componentType":5126,"count":22,"type":"VEC2"},{"bufferView":98,"componentType":5126,"count":22,"type":"VEC2"},{"bufferView":99,"componentType":5125,"count":36,"type":"SCALAR"},{"bufferView":100,"componentType":5126,"count":8,"type":"VEC3","min":[52.230545,-0.114656255,-50.5309334],"max":[52.230545,7.85960054,-33.2224998]},{"bufferView":101,"componentType":5126,"count":8,"type":"VEC3","min":[-1.0,0.0,0.0],"max":[-1.0,0.0,0.0]},{"bufferView":102,"componentType":5126,"count":8,"type":"VEC2"},{"bufferView":103,"componentType":5126,"count":8,"type":"VEC2"},{"bufferView":104,"componentType":5125,"count":12,"type":"SCALAR"},{"bufferView":105,"componentType":5126,"count":8,"type":"VEC3","min":[52.230545,7.85959816,-50.1447182],"max":[52.230545,15.8338547,-33.6087227]},{"bufferView":106,"componentType":5126,"count":8,"type":"VEC3","min":[-1.0,0.0,0.0],"max":[-1.0,0.0,0.0]},{"bufferView":107,"componentType":5126,"count":8,"type":"VEC2"},{"bufferView":108,"componentType":5126,"count":8,"type":"VEC2"},{"bufferView":109,"componentType":5125,"count":12,"type":"SCALAR"},{"bufferView":110,"componentType":5126,"count":20,"type":"VEC3","min":[-6.55207825,9.21255779,4.59101486],"max":[48.5649261,14.6459017,24.740284]},{"bufferView":111,"componentType":5126,"count":20,"type":"VEC3","min":[-0.211030047,-1.0,-1.1920929e-07],"max":[0.593965219,-0.80449072,0.000489926617]},{"bufferView":112,"componentType":5126,"count":20,"type":"VEC2"},{"bufferView":113,"componentType":5126,"count":20,"type":"VEC2"},{"bufferView":114,"componentType":5125,"count":36,"type":"SCALAR"}],"materials":[{"name":"sc10-booox_09","pbrMetallicRoughness":{"baseColorFactor":[1.0,1.0,1.0,1.0],"metallicFactor":0.0,"roughnessFactor":1.0,"baseColorTexture":{"index":0}},"doubleSided":false},{"name":"sc10-house_01","pbrMetallicRoughness":{"baseColorFactor":[1.0,1.0,1.0,1.0],"metallicFactor":0.0,"roughnessFactor":1.0,"baseColorTexture":{"index":1}},"doubleSided":false},{"name":"sc10-house_02","pbrMetallicRoughness":{"baseColorFactor":[1.0,1.0,1.0,1.0],"metallicFactor":0.0,"roughnessFactor":1.0,"baseColorTexture":{"index":2}},"doubleSided":false},{"name":"sc10-ground_01","pbrMetallicRoughness":{"baseColorFactor":[1.0,1.0,1.0,1.0],"metallicFactor":0.0,"roughnessFactor":1.0,"baseColorTexture":{"index":3}},"doubleSided":false},{"name":"sc10-ground_02","pbrMetallicRoughness":{"baseColorFactor":[1.0,1.0,1.0,1.0],"metallicFactor":0.0,"roughnessFactor":1.0,"baseColorTexture":{"index":4}},"doubleSided":false},{"name":"sc10-Standard_8","pbrMetallicRoughness":{"baseColorFactor":[1.0,1.0,1.0,1.0],"metallicFactor":0.0,"roughnessFactor":1.0,"baseColorTexture":{"index":5}},"doubleSided":false},{"name":"sc10-booox_04","pbrMetallicRoughness":{"baseColorFactor":[1.0,1.0,1.0,1.0],"metallicFactor":0.0,"roughnessFactor":1.0,"baseColorTexture":{"index":6}},"doubleSided":false},{"name":"sc10-booox_05","pbrMetallicRoughness":{"baseColorFactor":[1.0,1.0,1.0,1.0],"metallicFactor":0.0,"roughnessFactor":1.0,"baseColorTexture":{"index":7}},"doubleSided":false},{"name":"sc10-booox_03","pbrMetallicRoughness":{"baseColorFactor":[1.0,1.0,1.0,1.0],"metallicFactor":0.0,"roughnessFactor":1.0,"baseColorTexture":{"index":8}},"doubleSided":false},{"name":"sc10-booox_01","pbrMetallicRoughness":{"baseColorFactor":[1.0,1.0,1.0,1.0],"metallicFactor":0.0,"roughnessFactor":1.0,"baseColorTexture":{"index":9}},"doubleSided":false},{"name":"sc10-booox_02","pbrMetallicRoughness":{"baseColorFactor":[1.0,1.0,1.0,1.0],"metallicFactor":0.0,"roughnessFactor":1.0,"baseColorTexture":{"index":10}},"doubleSided":false},{"name":"sc10-booox_06","pbrMetallicRoughness":{"baseColorFactor":[1.0,1.0,1.0,1.0],"metallicFactor":0.0,"roughnessFactor":1.0,"baseColorTexture":{"index":11}},"doubleSided":false},{"name":"sc10-booox_12","pbrMetallicRoughness":{"baseColorFactor":[1.0,1.0,1.0,1.0],"metallicFactor":0.0,"roughnessFactor":1.0,"baseColorTexture":{"index":12}},"doubleSided":false},{"name":"sc10-booox_11","pbrMetallicRoughness":{"baseColorFactor":[1.0,1.0,1.0,1.0],"metallicFactor":0.0,"roughnessFactor":1.0,"baseColorTexture":{"index":13}},"doubleSided":false},{"name":"sc10-booox_13","pbrMetallicRoughness":{"baseColorFactor":[1.0,1.0,1.0,1.0],"metallicFactor":0.0,"roughnessFactor":1.0,"baseColorTexture":{"index":14}},"doubleSided":false},{"name":"sc10-booox_08","pbrMetallicRoughness":{"baseColorFactor":[1.0,1.0,1.0,1.0],"metallicFactor":0.0,"roughnessFactor":1.0,"baseColorTexture":{"index":15}},"doubleSided":false},{"name":"sc10-booox_07","pbrMetallicRoughness":{"baseColorFactor":[1.0,1.0,1.0,1.0],"metallicFactor":0.0,"roughnessFactor":1.0,"baseColorTexture":{"index":16}},"doubleSided":false},{"name":"sc10-booox_10","pbrMetallicRoughness":{"baseColorFactor":[1.0,1.0,1.0,1.0],"metallicFactor":0.0,"roughnessFactor":1.0,"baseColorTexture":{"index":17}},"doubleSided":false},{"name":"sc10-wall_01","pbrMetallicRoughness":{"baseColorFactor":[1.0,1.0,1.0,1.0],"metallicFactor":0.0,"roughnessFactor":1.0,"baseColorTexture":{"index":18}},"doubleSided":false},{"name":"sc10-wall_02","pbrMetallicRoughness":{"baseColorFactor":[1.0,1.0,1.0,1.0],"metallicFactor":0.0,"roughnessFactor":1.0,"baseColorTexture":{"index":19}},"doubleSided":false},{"name":"sc10-wall_03","pbrMetallicRoughness":{"baseColorFactor":[1.0,1.0,1.0,1.0],"metallicFactor":0.0,"roughnessFactor":1.0,"baseColorTexture":{"index":20}},"doubleSided":false},{"name":"sc10-wall_04","pbrMetallicRoughness":{"baseColorFactor":[1.0,1.0,1.0,1.0],"metallicFactor":0.0,"roughnessFactor":1.0,"baseColorTexture":{"index":21}},"doubleSided":false},{"name":"sc10-house_03","pbrMetallicRoughness":{"baseColorFactor":[1.0,1.0,1.0,1.0],"metallicFactor":0.0,"roughnessFactor":1.0,"baseColorTexture":{"index":22}},"doubleSided":false}],"images":[{"uri":"booox_009.png"},{"uri":"house_01.png"},{"uri":"house_02.png"},{"uri":"ground_01.png"},{"uri":"ground_02.png"},{"uri":"sky.png"},{"uri":"booox_004.png"},{"uri":"booox_005.png"},{"uri":"booox_003.png"},{"uri":"booox_001.png"},{"uri":"booox_002.png"},{"uri":"booox_006.png"},{"uri":"booox_012.png"},{"uri":"booox_011.png"},{"uri":"booox_013.png"},{"uri":"booox_008.png"},{"uri":"booox_007.png"},{"uri":"booox_010.png"},{"uri":"wall_001.png"},{"uri":"wall_002.png"},{"uri":"wall_003.png"},{"uri":"wall_004.png"},{"uri":"house_03.png"}],"textures":[{"source":0,"sampler":0},{"source":1,"sampler":0},{"source":2,"sampler":0},{"source":3,"sampler":0},{"source":4,"sampler":0},{"source":5,"sampler":0},{"source":6,"sampler":0},{"source":7,"sampler":0},{"source":8,"sampler":0},{"source":9,"sampler":0},{"source":10,"sampler":0},{"source":11,"sampler":0},{"source":12,"sampler":0},{"source":13,"sampler":0},{"source":14,"sampler":0},{"source":15,"sampler":0},{"source":16,"sampler":0},{"source":17,"sampler":0},{"source":18,"sampler":0},{"source":19,"sampler":0},{"source":20,"sampler":0},{"source":21,"sampler":0},{"source":22,"sampler":0}],"samplers":[{"magFilter":9729,"minFilter":9987,"wrapS":10497,"wrapT":10497}],"buffers":[{"uri":"stage.bin","byteLength":691428}]}
