# Generated from legacy Unity YAML Mesh assets without Unity.
mtllib ArmorBag_09.mtl

o ArmorBag_09_00_Bag
v -0.269383594 -0.136783212 -0.100437507
v -0.191087201 0.0354402363 -0.122584209
v -0.310400798 -0.0825642794 -0.0489094183
v -0.223772406 -0.0841429979 -0.0499384701
v -0.269383594 -0.136783212 -0.100437507
v -0.297589197 -0.33217746 -0.146890238
v -0.273690804 -0.171427935 -0.108592935
v -0.385446384 -0.276900351 -0.0653288066
v -0.252182796 -0.278529286 -0.0782875866
v -0.297589197 -0.33217746 -0.146890238
v 0.269383565 -0.136783212 -0.100437507
v 0.31040077 -0.0825642794 -0.0489094183
v 0.191087172 0.0354402363 -0.122584209
v 0.223772377 -0.0841429979 -0.0499384701
v 0.269383565 -0.136783212 -0.100437507
v 0.297589168 -0.33217746 -0.146890238
v 0.385446355 -0.276900351 -0.0653288066
v 0.273690775 -0.171427935 -0.108592935
v 0.252182767 -0.278529286 -0.0782875866
v 0.297589168 -0.33217746 -0.146890238
v 0.302884773 -0.337713987 -0.151714981
v 0.16615437 -0.493269235 -0.280710876
v 0.21830158 -0.385909945 -0.0237662941
v -8.74031367e-09 -0.543931723 -0.233504176
v -8.74031367e-09 -0.409734279 0.00625690818
v 0.273382381 -0.137787208 -0.100519791
v 0.187735171 -0.181897253 0.0361692011
v 0.196750373 0.0044388324 -0.0389560312
v 0.149835185 0.0367445946 -0.0290934592
v 0.133661584 0.101796448 -0.123691812
v 0.175989971 0.0694864094 -0.129923925
v -8.74031367e-09 -0.409734279 0.00625690818
v -8.74031367e-09 -0.176225811 0.0804229379
v -8.74031367e-09 0.064766258 0.0240151882
v -8.74031367e-09 0.131534606 -0.0936887711
v 0.133661584 0.101796448 -0.123691812
v -8.74031367e-09 0.131534606 -0.0936887711
v -8.74031367e-09 -0.215378314 -0.338024616
v 0.175989971 0.0694864094 -0.129923925
v 0.302884773 -0.337713987 -0.151714981
v 0.273382381 -0.137787208 -0.100519791
v 0.16615437 -0.493269235 -0.280710876
v -8.74031367e-09 -0.215378314 -0.338024616
v -8.74031367e-09 -0.543931723 -0.233504176
v -0.302884802 -0.337713987 -0.151714981
v -0.218301609 -0.385909945 -0.0237662941
v -0.166154399 -0.493269235 -0.280710876
v -8.74031367e-09 -0.543931723 -0.233504176
v -8.74031367e-09 -0.409734279 0.00625690818
v -0.27338241 -0.137787208 -0.100519791
v -0.187735199 -0.181897253 0.0361692011
v -0.196750402 0.0044388324 -0.0389560312
v -0.149835214 0.0367445946 -0.0290934592
v -0.133661612 0.101796448 -0.123691812
v -0.17599 0.0694864094 -0.129923925
v -8.74031367e-09 -0.409734279 0.00625690818
v -8.74031367e-09 -0.176225811 0.0804229379
v -8.74031367e-09 0.064766258 0.0240151882
v -8.74031367e-09 0.131534606 -0.0936887711
v -0.17599 0.0694864094 -0.129923925
v -8.74031367e-09 -0.215378314 -0.338024616
v -0.133661612 0.101796448 -0.123691812
v -8.74031367e-09 0.131534606 -0.0936887711
v -0.27338241 -0.137787208 -0.100519791
v -0.302884802 -0.337713987 -0.151714981
v -0.166154399 -0.493269235 -0.280710876
v -8.74031367e-09 -0.215378314 -0.338024616
v -8.74031367e-09 -0.543931723 -0.233504176
vt 0.827067018 0.117438003
vt 0.827067018 0.291170001
vt 0.993140996 0.117438003
vt 0.827067018 0.117438003
vt 0.870135009 0.0079239998
vt 0.827067018 0.117438003
vt 0.827067018 0.291170001
vt 0.993140996 0.117438003
vt 0.827067018 0.117438003
vt 0.870135009 0.0079239998
vt 0.827067018 0.117438003
vt 0.993140996 0.117438003
vt 0.827067018 0.291170001
vt 0.827067018 0.117438003
vt 0.870135009 0.0079239998
vt 0.827067018 0.117438003
vt 0.993140996 0.117438003
vt 0.827067018 0.291170001
vt 0.827067018 0.117438003
vt 0.870135009 0.0079239998
vt 0.615117013 0.125517994
vt 0.237528995 0.0095490003
vt 0.493079007 0.296804994
vt 0.00868699979 0.186039999
vt 0.284790993 0.464982986
vt 0.849538982 0.387326986
vt 0.661430001 0.497381002
vt 0.860700011 0.66466397
vt 0.85313499 0.743228018
vt 0.971291006 0.828783989
vt 0.995935023 0.734292984
vt 0.284790993 0.464982986
vt 0.496059 0.677541018
vt 0.712761998 0.895226002
vt 0.831933022 0.991174996
vt 0.430597007 0.989197016
vt 0.554030001 0.937385976
vt 0.342148989 0.579503
vt 0.375032991 0.986276984
vt 0.0272700004 0.756788015
vt 0.155977994 0.915690005
vt 0.0106429998 0.533645988
vt 0.342148989 0.579503
vt 0.0618459992 0.362877995
vt 0.615117013 0.125517994
vt 0.493079007 0.296804994
vt 0.237528995 0.0095490003
vt 0.00868699979 0.186039999
vt 0.284790993 0.464982986
vt 0.849538982 0.387326986
vt 0.661430001 0.497381002
vt 0.860700011 0.66466397
vt 0.85313499 0.743228018
vt 0.971291006 0.828783989
vt 0.995935023 0.734292984
vt 0.284790993 0.464982986
vt 0.496059 0.677541018
vt 0.712761998 0.895226002
vt 0.831933022 0.991174996
vt 0.375032991 0.986276984
vt 0.342148989 0.579503
vt 0.430597007 0.989197016
vt 0.554030001 0.937385976
vt 0.155977994 0.915690005
vt 0.0272700004 0.756788015
vt 0.0106429998 0.533645988
vt 0.342148989 0.579503
vt 0.0618459992 0.362877995
vn -0.651459957 0.202132461 -0.731260824
vn -0.721950353 0.688796734 -0.065929865
vn -0.846174578 0.425881334 0.320333689
vn 0.0140000445 0.121266411 0.992521262
vn -0.00399052173 -0.690469783 0.72335023
vn -0.558406622 0.269902383 -0.784432756
vn -0.701589489 0.707056463 -0.0885626738
vn -0.830526467 -0.009204624 0.5569031
vn 0.09092066 -0.243566727 0.965613113
vn 0.0480903742 -0.802018937 0.595359505
vn 0.651459957 0.202132461 -0.731260824
vn 0.846174578 0.425881334 0.320333689
vn 0.721950353 0.688796734 -0.065929865
vn -0.0140000445 0.121266411 0.992521262
vn 0.00399052173 -0.690469783 0.72335023
vn 0.558406622 0.269902383 -0.784432756
vn 0.830526467 -0.009204624 0.5569031
vn 0.701589489 0.707056463 -0.0885626738
vn -0.09092066 -0.243566727 0.965613113
vn -0.0480903742 -0.802018937 0.595359505
vn 0.817272332 -0.436953613 0.37568268
vn 0.499290343 -0.830833141 0.245815878
vn 0.528016542 -0.613759285 0.586939581
vn 0.251324212 -0.880545951 0.401839482
vn 0.160304111 -0.861327773 0.482096524
vn 0.867404025 0.106035473 0.486175622
vn 0.426699996 0.0171542171 0.904230527
vn 0.781036376 0.394567514 0.484044064
vn 0.383011798 0.58695699 0.713290582
vn 0.424096289 0.779683302 0.460691097
vn 0.843798753 0.508640231 0.171139647
vn 0.184880503 -0.276165258 0.943160617
vn 0.228241654 -0.0364118577 0.972923391
vn 0.310549711 0.397428409 0.863486848
vn 0.308815803 0.818396843 0.484622953
vn 0.0234627888 0.552942403 -0.832889066
vn -0.0553205849 0.574945614 -0.816319284
vn 0.0234627888 0.552942403 -0.832889066
vn 0.565047633 0.232674371 -0.79157047
vn 0.579559673 0.222559246 -0.783950233
vn 0.749103064 0.26591045 -0.606742311
vn 0.44464818 0.104093467 -0.889636188
vn 0.389941355 0.0434431727 -0.919814345
vn -0.175539941 -0.298445612 -0.938144949
vn -0.817272332 -0.436953613 0.37568268
vn -0.528016526 -0.613759294 0.586939586
vn -0.499290327 -0.830833148 0.245815884
vn -0.251324199 -0.880545953 0.401839484
vn -0.160304103 -0.861327775 0.482096525
vn -0.867404025 0.106035473 0.486175622
vn -0.426699979 0.0171542158 0.904230535
vn -0.781036376 0.394567514 0.484044064
vn -0.383011777 0.586956994 0.71329059
vn -0.424096271 0.779683307 0.460691104
vn -0.843798753 0.508640231 0.171139647
vn -0.184880493 -0.276165259 0.943160619
vn -0.228241641 -0.0364118578 0.972923394
vn -0.310549692 0.397428412 0.863486854
vn -0.30881578 0.818396849 0.484622958
vn -0.56504762 0.232674373 -0.791570479
vn -0.0234627872 0.552942403 -0.832889066
vn -0.0234627872 0.552942403 -0.832889066
vn 0.0553205802 0.574945614 -0.816319284
vn -0.749103064 0.26591045 -0.606742311
vn -0.579559673 0.222559246 -0.783950233
vn -0.444648164 0.104093465 -0.889636196
vn -0.389941333 0.0434431734 -0.919814355
vn 0.175539929 -0.298445612 -0.938144951

g ArmorBag_09_00_Bag_submesh_0
usemtl 10
f 1/1/1 3/3/3 2/2/2
f 2/2/2 3/3/3 4/4/4
f 3/3/3 5/5/5 4/4/4
f 6/6/6 8/8/8 7/7/7
f 7/7/7 8/8/8 9/9/9
f 8/8/8 10/10/10 9/9/9
f 11/11/11 13/13/13 12/12/12
f 13/13/13 14/14/14 12/12/12
f 12/12/12 14/14/14 15/15/15
f 16/16/16 18/18/18 17/17/17
f 18/18/18 19/19/19 17/17/17
f 17/17/17 19/19/19 20/20/20
f 21/21/21 23/23/23 22/22/22
f 24/24/24 22/22/22 23/23/23
f 25/25/25 24/24/24 23/23/23
f 26/26/26 23/23/23 21/21/21
f 26/26/26 27/27/27 23/23/23
f 27/27/27 26/26/26 28/28/28
f 29/29/29 27/27/27 28/28/28
f 30/30/30 29/29/29 28/28/28
f 30/30/30 28/28/28 31/31/31
f 26/26/26 31/31/31 28/28/28
f 27/27/27 32/32/32 23/23/23
f 27/27/27 33/33/33 32/32/32
f 33/33/33 27/27/27 34/34/34
f 34/34/34 27/27/27 29/29/29
f 35/35/35 34/34/34 29/29/29
f 35/35/35 29/29/29 30/30/30
f 36/36/36 38/38/38 37/37/37
f 39/39/39 38/38/38 36/36/36
f 40/40/40 39/39/39 41/41/41
f 42/42/42 39/39/39 40/40/40
f 42/42/42 43/43/43 39/39/39
f 43/43/43 42/42/42 44/44/44
f 45/45/45 47/47/47 46/46/46
f 48/48/48 46/46/46 47/47/47
f 49/49/49 46/46/46 48/48/48
f 50/50/50 45/45/45 46/46/46
f 50/50/50 46/46/46 51/51/51
f 51/51/51 52/52/52 50/50/50
f 53/53/53 52/52/52 51/51/51
f 54/54/54 52/52/52 53/53/53
f 54/54/54 55/55/55 52/52/52
f 50/50/50 52/52/52 55/55/55
f 51/51/51 46/46/46 56/56/56
f 51/51/51 56/56/56 57/57/57
f 57/57/57 58/58/58 51/51/51
f 58/58/58 53/53/53 51/51/51
f 59/59/59 54/54/54 53/53/53
f 59/59/59 53/53/53 58/58/58
f 60/60/60 62/62/62 61/61/61
f 61/61/61 62/62/62 63/63/63
f 60/60/60 65/65/65 64/64/64
f 66/66/66 65/65/65 60/60/60
f 66/66/66 60/60/60 67/67/67
f 67/67/67 68/68/68 66/66/66
