g foot
v -0.179160997 -0.032354001 0.609956026
v -0.228457004 -0.0459100008 0.542082012
v -0.231480002 -0.0168849993 0.612327993
v -0.179160997 -0.0613269955 0.539709985
v -0.233054996 0.0479479991 0.519445002
v -0.233054996 0.0658940002 0.578805983
v -0.183029994 0.0736609995 0.524818003
v -0.183029994 0.0891790017 0.575217009
v -0.220679998 -0.067385003 0.422428012
v -0.227821007 0.038364999 0.432933986
v -0.213479996 -0.0185850002 0.365828007
v -0.220170006 0.0386650003 0.393584013
v -0.183017001 0.0690049976 0.441556007
v -0.183017001 0.0713049993 0.41445601
v -0.179160997 -0.0317539982 0.36135599
v -0.179160997 -0.0819540024 0.420055985
v -0.135619 -0.0560609996 0.426084012
v -0.145269006 -0.0348110013 0.373284012
v -0.154732004 0.063304998 0.405856013
v -0.183017001 0.0690049976 0.441556007
v -0.151629999 0.0564050004 0.435555011
v -0.133058995 0.0595609993 0.521465003
v -0.127506003 -0.0373190008 0.529468
v -0.133058995 0.0750790015 0.579255998
v -0.183029994 0.0736609995 0.524818003
v -0.183029994 0.0891790017 0.575217009
v -0.125968993 -0.0126189999 0.595055997
v -0.179160997 -0.032354001 0.609956026
v -0.179160997 -0.0613269955 0.539709985
v -0.162999004 -0.0818340033 0.100337997
v -0.204598993 -0.0505720004 0.168941006
v -0.151058003 -0.0505720004 0.168941006
v -0.192653999 -0.0818340033 0.100337997
v -0.0984899998 0.00397500023 0.100337997
v -0.0984899998 0.00397199998 0.150149003
v -0.114952996 0.126971006 0.145915002
v -0.114952996 0.147410005 0.100337997
v -0.240702003 0.126971006 0.145915002
v -0.240702003 0.147410005 0.100337997
v -0.257164001 0.00397500023 0.100337997
v -0.257164001 0.00397199998 0.150149003
v -0.204598993 -0.0505720004 0.168941006
v -0.192653999 -0.0818340033 0.100337997
v -0.114952996 0.126971006 0.145915002
v -0.257164001 0.00397199998 0.150149003
v -0.240702003 0.126971006 0.145915002
v -0.0984899998 0.00397199998 0.150149003
v -0.151058003 -0.0505720004 0.168941006
v -0.204598993 -0.0505720004 0.168941006
v -0.273277998 -0.00511599984 0.132192001
v -0.273277998 -0.0186340008 0.0869179964
v -0.177258 -0.0413650014 0.136634007
v -0.204245999 -0.101557001 0.132318005
v -0.151410997 -0.101557001 0.132318005
v -0.0823789984 -0.0186340008 0.0869179964
v -0.0823789984 -0.00511599984 0.132192001
v -0.204245999 -0.0802569985 0.174416006
v -0.273277998 -0.0186340008 0.0869179964
v -0.273277998 -0.00511599984 0.132192001
v -0.204245999 -0.101557001 0.132318005
v -0.151410997 -0.101557001 0.132318005
v -0.151410997 -0.0802569985 0.174416006
v -0.0823789984 -0.0186340008 0.0869179964
v -0.0823789984 -0.00511599984 0.132192001
v -0.151410997 -0.0726829991 0.189384997
v -0.204245999 -0.0726829991 0.189384997
v -0.177258 -0.0413650014 0.136634007
v -0.204245999 -0.0802569985 0.174416006
v -0.273277998 -0.00511599984 0.132192001
v -0.204245999 -0.0726829991 0.189384997
v -0.151410997 -0.0726829991 0.189384997
v -0.151410997 -0.0802569985 0.174416006
v -0.0823789984 -0.00511599984 0.132192001
v -0.203496993 -0.0882230029 0.130058005
v -0.203496993 -0.110937998 0.102995008
v -0.255537003 -0.0237579998 0.0972419977
v -0.152160004 -0.0882230029 0.130058005
v -0.152160004 -0.110937998 0.102995008
v -0.100116998 -0.0237579998 0.0972419977
v -0.285192996 -0.138053998 0.00051099062
v -0.140564993 -0.237031996 0.00051099062
v -0.0704699978 -0.138053998 0.00051099062
v -0.215099007 -0.237031996 0.00051099062
v -0.278142005 0.186410993 0.00051099062
v -0.0775209963 0.186410993 0.00051099062
v -0.140564993 -0.237031996 0.00051099062
v -0.204787001 -0.220514998 0.0381259918
v -0.150876001 -0.220514998 0.0381259918
v -0.215099007 -0.237031996 0.00051099062
v -0.267755985 -0.130206004 0.0381230116
v -0.285192996 -0.138053998 0.00051099062
v -0.0879070014 -0.130206004 0.0381230116
v -0.0704699978 -0.138053998 0.00051099062
v -0.155861005 -0.122637004 0.103334993
v -0.199780002 -0.122637004 0.103334993
v -0.257164001 0.00397500023 0.100337997
v -0.0984899998 0.00397500023 0.100337997
v -0.240702003 0.147410005 0.100337997
v -0.0775209963 0.186410993 0.00051099062
v -0.114952996 0.147410005 0.100337997
v -0.278142005 0.186410993 0.00051099062
v -0.257164001 0.00397500023 0.100337997
v -0.285192996 -0.138053998 0.00051099062
v -0.267755985 -0.130206004 0.0381230116
v -0.0984899998 0.00397500023 0.100337997
v -0.0879070014 -0.130206004 0.0381230116
v -0.0704699978 -0.138053998 0.00051099062
v -0.199780002 -0.122637004 0.103334993
v -0.0984899998 0.00397500023 0.100337997
v -0.155861005 -0.122637004 0.103334993
v -0.257164001 0.00397500023 0.100337997
v -0.148340002 0.180634007 0.0908229947
v -0.215774998 0.239080995 0.0190730095
v -0.139881998 0.239080995 0.0190730095
v -0.207316995 0.180634007 0.0908229947
v -0.148340002 0.145228997 0.0908229947
v -0.207316995 0.145228997 0.0908229947
v -0.215774998 0.239605993 0.000771999359
v -0.139881998 0.239605993 0.000771999359
v -0.215774998 0.145233005 0.000771999359
v -0.207316995 0.180634007 0.0908229947
v -0.207316995 0.145228997 0.0908229947
v -0.215774998 0.239080995 0.0190730095
v -0.215774998 0.239605993 0.000771999359
v -0.139881998 0.239080995 0.0190730095
v -0.148340002 0.145228997 0.0908229947
v -0.148340002 0.180634007 0.0908229947
v -0.139881998 0.145233005 0.000771999359
v -0.139881998 0.239605993 0.000771999359
v -0.215774998 0.239605993 0.000771999359
v -0.139881998 0.145233005 0.000771999359
v -0.139881998 0.239605993 0.000771999359
v -0.215774998 0.145233005 0.000771999359
v -0.292715997 -0.0223980006 0.0414789915
v -0.261357009 0.0497380011 0.0965169966
v -0.266324997 -0.0354360007 0.0883470029
v -0.293572992 0.0735780001 0.0424839854
v -0.317589998 -0.080829002 -6.39855862E-05
v -0.313915014 -0.159297004 -7.90059566E-05
v -0.232657999 0.0497380011 0.0965169966
v -0.232660994 0.0725139976 0.0590910017
v -0.232659996 -0.0354360007 0.0883470029
v -0.232667997 -0.102586001 0.0281020105
v -0.0629379973 -0.0223980006 0.0414789915
v -0.0942969993 0.0497380011 0.0965169966
v -0.0620799996 0.0735780001 0.0424839854
v -0.0893289968 -0.0354360007 0.0883470029
v -0.0380639993 -0.080829002 -6.39855862E-05
v -0.0417389981 -0.159297004 -7.90059566E-05
v -0.122996002 0.0497380011 0.0965169966
v -0.122992001 0.0725139976 0.0590910017
v -0.122993998 -0.0354360007 0.0883470029
v -0.122985996 -0.102586001 0.0281020105
v -0.227064997 0.000636000012 0.218346
v -0.270788014 0.0249019992 0.243269995
v -0.240109995 -0.0452580005 0.355462015
v -0.178365007 -0.0445300005 0.217857003
v -0.178365007 -0.0962760001 0.347258002
v -0.178363994 -0.095592998 0.390814006
v -0.224684998 -0.0568160005 0.389979988
v -0.215260997 -0.122840002 0.434469998
v -0.178365007 -0.122873001 0.434634
v -0.256484985 0.0361870006 0.41099301
v -0.178365007 -0.0298100002 0.139657006
v -0.223896995 0.00632699998 0.139713004
v -0.255221009 0.0194070004 0.455870986
v -0.219712004 0.0857639983 0.426414013
v -0.242262006 0.140195996 0.337004006
v -0.281735986 0.0965600014 0.337253004
v -0.233355999 0.111408003 0.210536003
v -0.178365007 0.166721001 0.336775005
v -0.178363994 0.0986450016 0.430738986
v -0.178363994 0.141240001 0.210484996
v -0.219712004 0.0780659989 0.455992013
v -0.178363994 0.0909459963 0.456023008
v -0.230655998 0.106247 0.138823003
v -0.178363994 0.136061996 0.138823003
v -0.249392003 0.0228179991 0.138823003
v -0.305566013 0.0437479988 0.316480011
v -0.26474601 -0.0102850003 0.385751992
v -0.178363994 0.0909459963 0.456023008
v -0.178365007 -0.122873001 0.434634
v -0.219712004 0.0780659989 0.455992013
v -0.255221009 0.0194070004 0.455870986
v -0.215260997 -0.122840002 0.434469998
v -0.116622999 -0.0452580005 0.355462015
v -0.0859450027 0.0249019992 0.243269995
v -0.129666001 0.000636000012 0.218346
v -0.178365007 -0.0445300005 0.217857003
v -0.178365007 -0.0962760001 0.347258002
v -0.178363994 -0.095592998 0.390814006
v -0.132044002 -0.0568160005 0.389979988
v -0.141471997 -0.122840002 0.434469014
v -0.178365007 -0.122873001 0.434634
v -0.100248002 0.0361870006 0.41099301
v -0.178365007 -0.0298100002 0.139657006
v -0.132835999 0.00632699998 0.139713004
v -0.107340001 0.0228179991 0.138823003
v -0.123373002 0.111408003 0.210536003
v -0.126073003 0.106247 0.138823003
v -0.178363994 0.141240001 0.210484996
v -0.114467002 0.140195996 0.337004006
v -0.0749929994 0.0965600014 0.337253004
v -0.137020007 0.0857639983 0.426414013
v -0.178365007 0.166721001 0.336775005
v -0.178363994 0.0986450016 0.430738986
v -0.178363994 0.0909459963 0.456023008
v -0.137020007 0.0780659989 0.455992013
v -0.101507999 0.0194070004 0.455870986
v -0.178363994 0.136061996 0.138823003
v -0.0919860005 -0.0102850003 0.385751992
v -0.0511649996 0.0437479988 0.316480011
v -0.178363994 0.0909459963 0.456023008
v -0.137020007 0.0780659989 0.455992013
v -0.178365007 -0.122873001 0.434634
v -0.101507999 0.0194070004 0.455870986
v -0.141471997 -0.122840002 0.434469014
v -0.199226007 -0.123251997 0.426667988
v -0.144203007 -0.153198004 0.444168001
v -0.157388002 -0.123251997 0.426667988
v -0.212410003 -0.153198004 0.444168001
v -0.240109995 -0.0452580005 0.355462015
v -0.116622999 -0.0452580005 0.355462015
v -0.224728003 -0.120692998 0.507453024
v -0.144203007 -0.153198004 0.444168001
v -0.212410003 -0.153198004 0.444168001
v -0.131886005 -0.120692998 0.507453024
v -0.26474601 -0.0102850003 0.385751992
v -0.256484985 0.0361870006 0.41099301
v -0.0919860005 -0.0102850003 0.385751992
v -0.116622999 -0.0452580005 0.355462015
v -0.240109995 -0.0452580005 0.355462015
v -0.100248002 0.0361870006 0.41099301
v -0.146808997 -0.0916839987 0.495508999
v -0.224728003 -0.120692998 0.507453024
v -0.209803998 -0.0916839987 0.495508999
v -0.131886005 -0.120692998 0.507453024
v -0.100248002 0.0361870006 0.41099301
v -0.256484985 0.0361870006 0.41099301
v -0.240109995 -0.0452580005 0.355462015
v -0.209803998 -0.0916839987 0.495508999
v -0.256484985 0.0361870006 0.41099301
v -0.199226007 -0.123251997 0.426667988
v -0.157388002 -0.123251997 0.426667988
v -0.146808997 -0.0916839987 0.495508999
v -0.116622999 -0.0452580005 0.355462015
v -0.100248002 0.0361870006 0.41099301
v -0.179160997 -0.0819540024 0.420055985
v 0.179160997 -0.032354001 0.609956026
v 0.228457004 -0.0459100008 0.542082012
v 0.179160997 -0.0613269955 0.539709985
v 0.231480002 -0.0168849993 0.612327993
v 0.233054996 0.0479479991 0.519445002
v 0.233054996 0.0658940002 0.578805983
v 0.183029994 0.0736609995 0.524818003
v 0.183029994 0.0891790017 0.575217009
v 0.220679998 -0.067385003 0.422428012
v 0.227821007 0.038364999 0.432933986
v 0.213479996 -0.0185850002 0.365828007
v 0.220170006 0.0386650003 0.393584013
v 0.183017001 0.0690049976 0.441556007
v 0.183017001 0.0713049993 0.41445601
v 0.179160997 -0.0317539982 0.36135599
v 0.179160997 -0.0819540024 0.420055985
v 0.135619 -0.0560609996 0.426084012
v 0.145269006 -0.0348110013 0.373284012
v 0.154732004 0.063304998 0.405856013
v 0.183017001 0.0690049976 0.441556007
v 0.151629999 0.0564050004 0.435555011
v 0.133058995 0.0595609993 0.521465003
v 0.127506003 -0.0373190008 0.529468
v 0.133058995 0.0750790015 0.579255998
v 0.183029994 0.0736609995 0.524818003
v 0.183029994 0.0891790017 0.575217009
v 0.125968993 -0.0126189999 0.595055997
v 0.179160997 -0.032354001 0.609956026
v 0.179160997 -0.0613269955 0.539709985
v 0.162999004 -0.0818340033 0.100337997
v 0.204598993 -0.0505720004 0.168941006
v 0.192653999 -0.0818340033 0.100337997
v 0.151058003 -0.0505720004 0.168941006
v 0.0984899998 0.00397500023 0.100337997
v 0.0984899998 0.00397199998 0.150149003
v 0.114952996 0.126971006 0.145915002
v 0.114952996 0.147410005 0.100337997
v 0.240702003 0.126971006 0.145915002
v 0.240702003 0.147410005 0.100337997
v 0.257164001 0.00397500023 0.100337997
v 0.257164001 0.00397199998 0.150149003
v 0.204598993 -0.0505720004 0.168941006
v 0.192653999 -0.0818340033 0.100337997
v 0.114952996 0.126971006 0.145915002
v 0.257164001 0.00397199998 0.150149003
v 0.0984899998 0.00397199998 0.150149003
v 0.240702003 0.126971006 0.145915002
v 0.151058003 -0.0505720004 0.168941006
v 0.204598993 -0.0505720004 0.168941006
v 0.273277998 -0.00511599984 0.132192001
v 0.177258 -0.0413650014 0.136634007
v 0.273277998 -0.0186340008 0.0869179964
v 0.204245999 -0.101557001 0.132318005
v 0.151410997 -0.101557001 0.132318005
v 0.0823789984 -0.0186340008 0.0869179964
v 0.0823789984 -0.00511599984 0.132192001
v 0.204245999 -0.0802569985 0.174416006
v 0.273277998 -0.0186340008 0.0869179964
v 0.204245999 -0.101557001 0.132318005
v 0.273277998 -0.00511599984 0.132192001
v 0.151410997 -0.101557001 0.132318005
v 0.151410997 -0.0802569985 0.174416006
v 0.0823789984 -0.0186340008 0.0869179964
v 0.0823789984 -0.00511599984 0.132192001
v 0.151410997 -0.0726829991 0.189384997
v 0.204245999 -0.0726829991 0.189384997
v 0.177258 -0.0413650014 0.136634007
v 0.273277998 -0.00511599984 0.132192001
v 0.204245999 -0.0802569985 0.174416006
v 0.204245999 -0.0726829991 0.189384997
v 0.151410997 -0.0726829991 0.189384997
v 0.151410997 -0.0802569985 0.174416006
v 0.0823789984 -0.00511599984 0.132192001
v 0.203496993 -0.0882230029 0.130058005
v 0.255537003 -0.0237579998 0.0972419977
v 0.203496993 -0.110937998 0.102995008
v 0.152160004 -0.0882230029 0.130058005
v 0.152160004 -0.110937998 0.102995008
v 0.100116998 -0.0237579998 0.0972419977
v 0.285192996 -0.138053998 0.00051099062
v 0.140564993 -0.237031996 0.00051099062
v 0.215099007 -0.237031996 0.00051099062
v 0.0704699978 -0.138053998 0.00051099062
v 0.278142005 0.186410993 0.00051099062
v 0.0775209963 0.186410993 0.00051099062
v 0.140564993 -0.237031996 0.00051099062
v 0.204787001 -0.220514998 0.0381259918
v 0.215099007 -0.237031996 0.00051099062
v 0.150876001 -0.220514998 0.0381259918
v 0.267755985 -0.130206004 0.0381230116
v 0.285192996 -0.138053998 0.00051099062
v 0.0879070014 -0.130206004 0.0381230116
v 0.0704699978 -0.138053998 0.00051099062
v 0.155861005 -0.122637004 0.103334993
v 0.199780002 -0.122637004 0.103334993
v 0.257164001 0.00397500023 0.100337997
v 0.0984899998 0.00397500023 0.100337997
v 0.240702003 0.147410005 0.100337997
v 0.0775209963 0.186410993 0.00051099062
v 0.278142005 0.186410993 0.00051099062
v 0.114952996 0.147410005 0.100337997
v 0.257164001 0.00397500023 0.100337997
v 0.285192996 -0.138053998 0.00051099062
v 0.267755985 -0.130206004 0.0381230116
v 0.0984899998 0.00397500023 0.100337997
v 0.0879070014 -0.130206004 0.0381230116
v 0.0704699978 -0.138053998 0.00051099062
v 0.199780002 -0.122637004 0.103334993
v 0.0984899998 0.00397500023 0.100337997
v 0.257164001 0.00397500023 0.100337997
v 0.155861005 -0.122637004 0.103334993
v 0.148340002 0.180634007 0.0908229947
v 0.215774998 0.239080995 0.0190730095
v 0.207316995 0.180634007 0.0908229947
v 0.139881998 0.239080995 0.0190730095
v 0.148340002 0.145228997 0.0908229947
v 0.207316995 0.145228997 0.0908229947
v 0.215774998 0.239605993 0.000771999359
v 0.139881998 0.239605993 0.000771999359
v 0.215774998 0.145233005 0.000771999359
v 0.207316995 0.180634007 0.0908229947
v 0.215774998 0.239080995 0.0190730095
v 0.207316995 0.145228997 0.0908229947
v 0.215774998 0.239605993 0.000771999359
v 0.139881998 0.239080995 0.0190730095
v 0.148340002 0.145228997 0.0908229947
v 0.139881998 0.145233005 0.000771999359
v 0.148340002 0.180634007 0.0908229947
v 0.139881998 0.239605993 0.000771999359
v 0.215774998 0.239605993 0.000771999359
v 0.139881998 0.145233005 0.000771999359
v 0.215774998 0.145233005 0.000771999359
v 0.139881998 0.239605993 0.000771999359
v 0.292715997 -0.0223980006 0.0414789915
v 0.261357009 0.0497380011 0.0965169966
v 0.293572992 0.0735780001 0.0424839854
v 0.266324997 -0.0354360007 0.0883470029
v 0.317589998 -0.080829002 -6.39855862E-05
v 0.313915014 -0.159297004 -7.90059566E-05
v 0.232657999 0.0497380011 0.0965169966
v 0.232660994 0.0725139976 0.0590910017
v 0.232659996 -0.0354360007 0.0883470029
v 0.232667997 -0.102586001 0.0281020105
v 0.0629379973 -0.0223980006 0.0414789915
v 0.0942969993 0.0497380011 0.0965169966
v 0.0893289968 -0.0354360007 0.0883470029
v 0.0620799996 0.0735780001 0.0424839854
v 0.0380639993 -0.080829002 -6.39855862E-05
v 0.0417389981 -0.159297004 -7.90059566E-05
v 0.122996002 0.0497380011 0.0965169966
v 0.122992001 0.0725139976 0.0590910017
v 0.122993998 -0.0354360007 0.0883470029
v 0.122985996 -0.102586001 0.0281020105
v 0.227064997 0.000636000012 0.218346
v 0.240109995 -0.0452580005 0.355462015
v 0.270788014 0.0249019992 0.243269995
v 0.178365007 -0.0445300005 0.217857003
v 0.178365007 -0.0962760001 0.347258002
v 0.178363994 -0.095592998 0.390814006
v 0.224684998 -0.0568160005 0.389979988
v 0.215260997 -0.122840002 0.434469998
v 0.178365007 -0.122873001 0.434634
v 0.256484985 0.0361870006 0.41099301
v 0.178365007 -0.0298100002 0.139657006
v 0.223896995 0.00632699998 0.139713004
v 0.255221009 0.0194070004 0.455870986
v 0.219712004 0.0857639983 0.426414013
v 0.242262006 0.140195996 0.337004006
v 0.281735986 0.0965600014 0.337253004
v 0.233355999 0.111408003 0.210536003
v 0.178365007 0.166721001 0.336775005
v 0.178363994 0.0986450016 0.430738986
v 0.178363994 0.141240001 0.210484996
v 0.219712004 0.0780659989 0.455992013
v 0.178363994 0.0909459963 0.456023008
v 0.230655998 0.106247 0.138823003
v 0.178363994 0.136061996 0.138823003
v 0.249392003 0.0228179991 0.138823003
v 0.305566013 0.0437479988 0.316480011
v 0.26474601 -0.0102850003 0.385751992
v 0.178363994 0.0909459963 0.456023008
v 0.219712004 0.0780659989 0.455992013
v 0.178365007 -0.122873001 0.434634
v 0.255221009 0.0194070004 0.455870986
v 0.215260997 -0.122840002 0.434469998
v 0.116622999 -0.0452580005 0.355462015
v 0.129666001 0.000636000012 0.218346
v 0.0859450027 0.0249019992 0.243269995
v 0.178365007 -0.0445300005 0.217857003
v 0.178365007 -0.0962760001 0.347258002
v 0.178363994 -0.095592998 0.390814006
v 0.132044002 -0.0568160005 0.389979988
v 0.141471997 -0.122840002 0.434469014
v 0.178365007 -0.122873001 0.434634
v 0.100248002 0.0361870006 0.41099301
v 0.178365007 -0.0298100002 0.139657006
v 0.132835999 0.00632699998 0.139713004
v 0.107340001 0.0228179991 0.138823003
v 0.123373002 0.111408003 0.210536003
v 0.126073003 0.106247 0.138823003
v 0.178363994 0.141240001 0.210484996
v 0.114467002 0.140195996 0.337004006
v 0.0749929994 0.0965600014 0.337253004
v 0.137020007 0.0857639983 0.426414013
v 0.178365007 0.166721001 0.336775005
v 0.178363994 0.0986450016 0.430738986
v 0.178363994 0.0909459963 0.456023008
v 0.137020007 0.0780659989 0.455992013
v 0.101507999 0.0194070004 0.455870986
v 0.178363994 0.136061996 0.138823003
v 0.0919860005 -0.0102850003 0.385751992
v 0.0511649996 0.0437479988 0.316480011
v 0.178363994 0.0909459963 0.456023008
v 0.178365007 -0.122873001 0.434634
v 0.137020007 0.0780659989 0.455992013
v 0.101507999 0.0194070004 0.455870986
v 0.141471997 -0.122840002 0.434469014
v 0.199226007 -0.123251997 0.426667988
v 0.144203007 -0.153198004 0.444168001
v 0.212410003 -0.153198004 0.444168001
v 0.157388002 -0.123251997 0.426667988
v 0.240109995 -0.0452580005 0.355462015
v 0.116622999 -0.0452580005 0.355462015
v 0.224728003 -0.120692998 0.507453024
v 0.144203007 -0.153198004 0.444168001
v 0.131886005 -0.120692998 0.507453024
v 0.212410003 -0.153198004 0.444168001
v 0.26474601 -0.0102850003 0.385751992
v 0.256484985 0.0361870006 0.41099301
v 0.0919860005 -0.0102850003 0.385751992
v 0.116622999 -0.0452580005 0.355462015
v 0.240109995 -0.0452580005 0.355462015
v 0.100248002 0.0361870006 0.41099301
v 0.146808997 -0.0916839987 0.495508999
v 0.224728003 -0.120692998 0.507453024
v 0.131886005 -0.120692998 0.507453024
v 0.209803998 -0.0916839987 0.495508999
v 0.100248002 0.0361870006 0.41099301
v 0.256484985 0.0361870006 0.41099301
v 0.240109995 -0.0452580005 0.355462015
v 0.209803998 -0.0916839987 0.495508999
v 0.199226007 -0.123251997 0.426667988
v 0.256484985 0.0361870006 0.41099301
v 0.157388002 -0.123251997 0.426667988
v 0.146808997 -0.0916839987 0.495508999
v 0.116622999 -0.0452580005 0.355462015
v 0.100248002 0.0361870006 0.41099301
v 0.179160997 -0.0819540024 0.420055985
vt 0.447196007 0.10052
vt 0.485908002 0.160805002
vt 0.439612001 0.152523994
vt 0.49575001 0.112187997
vt 0.459681988 0.291933
vt 0.423361003 0.273867011
vt 0.434951991 0.388927013
vt 0.398443013 0.374624014
vt 0.562038004 0.182860002
vt 0.512201011 0.323161989
vt 0.588039994 0.241364002
vt 0.538203001 0.335079998
vt 0.489450008 0.414710999
vt 0.505701005 0.425545007
vt 0.607541978 0.216445997
vt 0.578289986 0.151440993
vt 0.539828002 0.238113999
vt 0.570164025 0.27224201
vt 0.52411902 0.367040008
vt 0.489450008 0.414710999
vt 0.506784022 0.352955997
vt 0.453462005 0.322508007
vt 0.475905001 0.211080998
vt 0.414694011 0.307451993
vt 0.434951991 0.388927013
vt 0.398443013 0.374624014
vt 0.435820997 0.196401998
vt 0.447196007 0.10052
vt 0.49575001 0.112187997
vt 0.445901006 0.729234993
vt 0.452051014 0.796935022
vt 0.48765099 0.771634996
vt 0.425900996 0.743035018
vt 0.528900981 0.701534986
vt 0.540951014 0.736734986
vt 0.64300102 0.703835011
vt 0.644775987 0.663060009
vt 0.756201029 0.705635011
vt 0.756676018 0.664810002
vt 0.868851006 0.713734984
vt 0.853451014 0.747434974
vt 0.902751029 0.787734985
vt 0.948550999 0.749785006
vt 0.767434001 0.907320023
vt 0.881084025 0.809019983
vt 0.867933989 0.907320023
vt 0.754284024 0.809019983
vt 0.79628402 0.762719989
vt 0.839084029 0.762719989
vt 0.0258389991 0.659740984
vt 0.0488159992 0.671000004
vt 0.0532479994 0.611329973
vt 0.0877280012 0.620957017
vt 0.0835010037 0.592658997
vt 0.0317340009 0.556071997
vt 0.0131240003 0.573633015
vt 0.244900003 0.0593000017
vt 0.363700002 0.00810000021
vt 0.356999993 0.0555999987
vt 0.244900003 0.0114000002
vt 0.191300005 0.0114000002
vt 0.191300005 0.0593000017
vt 0.0724000037 0.00810000021
vt 0.0791999996 0.0555999987
vt 0.191300005 0.0763000026
vt 0.244900003 0.0763000026
vt 0.164542004 0.597252011
vt 0.151056007 0.570484996
vt 0.116022997 0.612424016
vt 0.157205001 0.564907014
vt 0.182872996 0.569880009
vt 0.186582997 0.577306986
vt 0.203292996 0.629337013
vt 0.833880007 0.933144987
vt 0.833298981 0.987287998
vt 0.968393981 0.909590006
vt 0.755210996 0.932299972
vt 0.754629016 0.986443996
vt 0.621230006 0.905861974
vt 0.914704025 0.611082971
vt 0.955303013 0.583383024
vt 0.974902987 0.611283004
vt 0.934403002 0.583383024
vt 0.916354001 0.702133
vt 0.972603023 0.702283025
vt 0.0121299997 0.745766997
vt 0.0641350001 0.851866007
vt 0.0622380003 0.763072014
vt 0.0147529999 0.868529975
vt 0.162851006 0.95619601
vt 0.122985996 0.984655023
vt 0.156522006 0.659973979
vt 0.115429997 0.630993009
vt 0.222645 0.772310019
vt 0.224189997 0.844645977
vt 0.358949989 0.940008998
vt 0.353365988 0.678662002
vt 0.462388992 0.844645977
vt 0.578526974 0.919775009
vt 0.551479995 0.844027996
vt 0.436390996 0.920762002
vt 0.380203009 0.783747017
vt 0.255723 0.778530002
vt 0.278156996 0.758773029
vt 0.632816017 0.781997979
vt 0.734507024 0.755613983
vt 0.757211983 0.775059998
vt 0.971745014 0.778569996
vt 0.917128026 0.891277015
vt 0.93582499 0.778995991
vt 0.990513027 0.891277015
vt 0.273799986 0.0983000025
vt 0.335099995 0.182500005
vt 0.266099989 0.182500005
vt 0.327399999 0.0983000025
vt 0.273799986 0.0661000013
vt 0.327399999 0.0661000013
vt 0.335099995 0.199200004
vt 0.266099989 0.199200004
vt 0.259799987 0.0864999965
vt 0.1778 0.117899999
vt 0.1778 0.0864999965
vt 0.243100002 0.172499999
vt 0.259799987 0.172499999
vt 0.1008 0.170900002
vt 0.166600004 0.0852999985
vt 0.166600004 0.1175
vt 0.0842000023 0.0852999985
vt 0.0842000023 0.170900002
vt 0.343400002 0.151899993
vt 0.412499994 0.0661000013
vt 0.412499994 0.151899993
vt 0.343400002 0.0661000013
vt 0.157233 0.529312015
vt 0.0728249997 0.461385012
vt 0.165724993 0.466215014
vt 0.0421530008 0.528455973
vt 0.232132003 0.574419022
vt 0.320796996 0.557992995
vt 0.064052999 0.430914015
vt 0.0169779994 0.456234008
vt 0.168438002 0.427464008
vt 0.272460997 0.449021012
vt 0.157233 0.529312015
vt 0.0728249997 0.461385012
vt 0.0421530008 0.528455973
vt 0.165724993 0.466215014
vt 0.232132003 0.574419022
vt 0.320796996 0.557992995
vt 0.064052999 0.430914015
vt 0.0169779994 0.456234008
vt 0.168438002 0.427464008
vt 0.272460997 0.449021012
vt 0.561856985 0.173341006
vt 0.644174993 0.229699999
vt 0.511488974 0.456243008
vt 0.439321995 0.170901
vt 0.36393699 0.43383199
vt 0.365045995 0.515263021
vt 0.479315996 0.525026023
vt 0.372590005 0.629976988
vt 0.320003986 0.594698012
vt 0.673020005 0.569846988
vt 0.475100011 0.0231260005
vt 0.581825972 0.0231260005
vt 0.654825985 0.638630986
vt 0.806261003 0.584935009
vt 0.87471199 0.394448012
vt 0.785071015 0.394780993
vt 0.821460009 0.156339005
vt 0.994973004 0.399219006
vt 0.888024986 0.618439019
vt 0.94144398 0.149489
vt 0.786513984 0.639518023
vt 0.864948988 0.66259402
vt 0.800714016 0.0231260005
vt 0.913986027 0.0231260005
vt 0.63685298 0.0231260005
vt 0.689661026 0.361831009
vt 0.597691 0.493519008
vt 0.0114000002 0.191300005
vt 0.0114000002 0.0111999996
vt 0.0461499989 0.180549994
vt 0.0759000033 0.131500006
vt 0.0410999991 0.0109999999
vt 0.511536002 0.456243008
vt 0.644222021 0.229699999
vt 0.561903 0.173341006
vt 0.43936801 0.170901
vt 0.363983005 0.43383199
vt 0.365092009 0.515263021
vt 0.479362011 0.525026023
vt 0.372637004 0.629976988
vt 0.320050001 0.594698012
vt 0.673066974 0.569846988
vt 0.475147009 0.0231260005
vt 0.581873 0.0231260005
vt 0.636900008 0.0231260005
vt 0.821506977 0.156339005
vt 0.800759971 0.0231260005
vt 0.941489995 0.149489
vt 0.874759018 0.394448012
vt 0.785117984 0.394780993
vt 0.806307018 0.584935009
vt 0.995019019 0.399219006
vt 0.888071001 0.618439019
vt 0.864996016 0.66259402
vt 0.786559999 0.639518023
vt 0.654872 0.638630986
vt 0.914031982 0.0231260005
vt 0.597737014 0.493519008
vt 0.689707994 0.361831009
vt 0.305465996 0.456295997
vt 0.330253989 0.448626995
vt 0.305465996 0.327823997
vt 0.351476014 0.413637996
vt 0.32665199 0.327681988
vt 0.153699994 0.174500003
vt 0.198699996 0.147499993
vt 0.189400002 0.174500003
vt 0.144400001 0.147499993
vt 0.123999998 0.237499997
vt 0.219099998 0.237499997
vt 0.206 0.316100001
vt 0.140300006 0.257999986
vt 0.195999995 0.257999986
vt 0.130199999 0.316100001
vt 0.306699991 0.263500005
vt 0.326332003 0.288141012
vt 0.0296 0.263500005
vt 0.0497319996 0.237423003
vt 0.287111014 0.237229005
vt 0.0114740003 0.288937986
vt 0.391160011 0.189168006
vt 0.359162986 0.174493
vt 0.364905 0.186493993
vt 0.39785701 0.178433999
vt 0.406711012 0.245260999
vt 0.341594994 0.238628
vt 0.0520000011 0.319799989
vt 0.110699996 0.394199997
vt 0.0105999997 0.370099992
vt 0.119199999 0.335999995
vt 0.153500006 0.335999995
vt 0.162 0.394199997
vt 0.220699996 0.319799006
vt 0.262100011 0.370099008
vt 0.578289986 0.151440993
vt 0.447196007 0.10052
vt 0.485908002 0.160805002
vt 0.49575001 0.112187997
vt 0.439612001 0.152523994
vt 0.459681988 0.291933
vt 0.423361003 0.273867011
vt 0.434951991 0.388927013
vt 0.398443013 0.374624014
vt 0.562038004 0.182860002
vt 0.512201011 0.323161989
vt 0.588039994 0.241364002
vt 0.538203001 0.335079998
vt 0.489450008 0.414710999
vt 0.505701005 0.425545007
vt 0.607541978 0.216445997
vt 0.578289986 0.151440993
vt 0.539828002 0.238113999
vt 0.570164025 0.27224201
vt 0.52411902 0.367040008
vt 0.489450008 0.414710999
vt 0.506784022 0.352955997
vt 0.453462005 0.322508007
vt 0.475905001 0.211080998
vt 0.414694011 0.307451993
vt 0.434951991 0.388927013
vt 0.398443013 0.374624014
vt 0.435820997 0.196401998
vt 0.447196007 0.10052
vt 0.49575001 0.112187997
vt 0.445901006 0.729234993
vt 0.452051014 0.796935022
vt 0.425900996 0.743035018
vt 0.48765099 0.771634996
vt 0.528900981 0.701534986
vt 0.540951014 0.736734986
vt 0.64300102 0.703835011
vt 0.644775987 0.663060009
vt 0.756201029 0.705635011
vt 0.756676018 0.664810002
vt 0.868851006 0.713734984
vt 0.853451014 0.747434974
vt 0.902751029 0.787734985
vt 0.948550999 0.749785006
vt 0.767434001 0.907320023
vt 0.881084025 0.809019983
vt 0.754284024 0.809019983
vt 0.867933989 0.907320023
vt 0.79628402 0.762719989
vt 0.839084029 0.762719989
vt 0.0258389991 0.659740984
vt 0.0532479994 0.611329973
vt 0.0488159992 0.671000004
vt 0.0877280012 0.620957017
vt 0.0835010037 0.592658997
vt 0.0317340009 0.556071997
vt 0.0131240003 0.573633015
vt 0.244900003 0.0593000017
vt 0.363700002 0.00810000021
vt 0.244900003 0.0114000002
vt 0.356999993 0.0555999987
vt 0.191300005 0.0114000002
vt 0.191300005 0.0593000017
vt 0.0724000037 0.00810000021
vt 0.0791999996 0.0555999987
vt 0.191300005 0.0763000026
vt 0.244900003 0.0763000026
vt 0.164542004 0.597252011
vt 0.116022997 0.612424016
vt 0.151056007 0.570484996
vt 0.157205001 0.564907014
vt 0.182872996 0.569880009
vt 0.186582997 0.577306986
vt 0.203292996 0.629337013
vt 0.833880007 0.933144987
vt 0.968393981 0.909590006
vt 0.833298981 0.987287998
vt 0.755210996 0.932299972
vt 0.754629016 0.986443996
vt 0.621230006 0.905861974
vt 0.914704025 0.611082971
vt 0.955303013 0.583383024
vt 0.934403002 0.583383024
vt 0.974902987 0.611283004
vt 0.916354001 0.702133
vt 0.972603023 0.702283025
vt 0.0121299997 0.745766997
vt 0.0641350001 0.851866007
vt 0.0147529999 0.868529975
vt 0.0622380003 0.763072014
vt 0.162851006 0.95619601
vt 0.122985996 0.984655023
vt 0.156522006 0.659973979
vt 0.115429997 0.630993009
vt 0.222645 0.772310019
vt 0.224189997 0.844645977
vt 0.358949989 0.940008998
vt 0.353365988 0.678662002
vt 0.462388992 0.844645977
vt 0.578526974 0.919775009
vt 0.436390996 0.920762002
vt 0.551479995 0.844027996
vt 0.380203009 0.783747017
vt 0.255723 0.778530002
vt 0.278156996 0.758773029
vt 0.632816017 0.781997979
vt 0.734507024 0.755613983
vt 0.757211983 0.775059998
vt 0.971745014 0.778569996
vt 0.917128026 0.891277015
vt 0.990513027 0.891277015
vt 0.93582499 0.778995991
vt 0.273799986 0.0983000025
vt 0.335099995 0.182500005
vt 0.327399999 0.0983000025
vt 0.266099989 0.182500005
vt 0.273799986 0.0661000013
vt 0.327399999 0.0661000013
vt 0.335099995 0.199200004
vt 0.266099989 0.199200004
vt 0.259799987 0.0864999965
vt 0.1778 0.117899999
vt 0.243100002 0.172499999
vt 0.1778 0.0864999965
vt 0.259799987 0.172499999
vt 0.1008 0.170900002
vt 0.166600004 0.0852999985
vt 0.0842000023 0.0852999985
vt 0.166600004 0.1175
vt 0.0842000023 0.170900002
vt 0.343400002 0.151899993
vt 0.412499994 0.0661000013
vt 0.343400002 0.0661000013
vt 0.412499994 0.151899993
vt 0.157233 0.529312015
vt 0.0728249997 0.461385012
vt 0.0421530008 0.528455973
vt 0.165724993 0.466215014
vt 0.232132003 0.574419022
vt 0.320796996 0.557992995
vt 0.064052999 0.430914015
vt 0.0169779994 0.456234008
vt 0.168438002 0.427464008
vt 0.272460997 0.449021012
vt 0.157233 0.529312015
vt 0.0728249997 0.461385012
vt 0.165724993 0.466215014
vt 0.0421530008 0.528455973
vt 0.232132003 0.574419022
vt 0.320796996 0.557992995
vt 0.064052999 0.430914015
vt 0.0169779994 0.456234008
vt 0.168438002 0.427464008
vt 0.272460997 0.449021012
vt 0.561856985 0.173341006
vt 0.511488974 0.456243008
vt 0.644174993 0.229699999
vt 0.439321995 0.170901
vt 0.36393699 0.43383199
vt 0.365045995 0.515263021
vt 0.479315996 0.525026023
vt 0.372590005 0.629976988
vt 0.320003986 0.594698012
vt 0.673020005 0.569846988
vt 0.475100011 0.0231260005
vt 0.581825972 0.0231260005
vt 0.654825985 0.638630986
vt 0.806261003 0.584935009
vt 0.87471199 0.394448012
vt 0.785071015 0.394780993
vt 0.821460009 0.156339005
vt 0.994973004 0.399219006
vt 0.888024986 0.618439019
vt 0.94144398 0.149489
vt 0.786513984 0.639518023
vt 0.864948988 0.66259402
vt 0.800714016 0.0231260005
vt 0.913986027 0.0231260005
vt 0.63685298 0.0231260005
vt 0.689661026 0.361831009
vt 0.597691 0.493519008
vt 0.0114000002 0.191300005
vt 0.0461499989 0.180549994
vt 0.0114000002 0.0111999996
vt 0.0759000033 0.131500006
vt 0.0410999991 0.0109999999
vt 0.511536002 0.456243008
vt 0.561903 0.173341006
vt 0.644222021 0.229699999
vt 0.43936801 0.170901
vt 0.363983005 0.43383199
vt 0.365092009 0.515263021
vt 0.479362011 0.525026023
vt 0.372637004 0.629976988
vt 0.320050001 0.594698012
vt 0.673066974 0.569846988
vt 0.475147009 0.0231260005
vt 0.581873 0.0231260005
vt 0.636900008 0.0231260005
vt 0.821506977 0.156339005
vt 0.800759971 0.0231260005
vt 0.941489995 0.149489
vt 0.874759018 0.394448012
vt 0.785117984 0.394780993
vt 0.806307018 0.584935009
vt 0.995019019 0.399219006
vt 0.888071001 0.618439019
vt 0.864996016 0.66259402
vt 0.786559999 0.639518023
vt 0.654872 0.638630986
vt 0.914031982 0.0231260005
vt 0.597737014 0.493519008
vt 0.689707994 0.361831009
vt 0.305465996 0.456295997
vt 0.305465996 0.327823997
vt 0.330253989 0.448626995
vt 0.351476014 0.413637996
vt 0.32665199 0.327681988
vt 0.153699994 0.174500003
vt 0.198699996 0.147499993
vt 0.144400001 0.147499993
vt 0.189400002 0.174500003
vt 0.123999998 0.237499997
vt 0.219099998 0.237499997
vt 0.206 0.316100001
vt 0.140300006 0.257999986
vt 0.130199999 0.316100001
vt 0.195999995 0.257999986
vt 0.306699991 0.263500005
vt 0.326332003 0.288141012
vt 0.0296 0.263500005
vt 0.0497319996 0.237423003
vt 0.287111014 0.237229005
vt 0.0114740003 0.288937986
vt 0.391160011 0.189168006
vt 0.359162986 0.174493
vt 0.39785701 0.178433999
vt 0.364905 0.186493993
vt 0.406711012 0.245260999
vt 0.341594994 0.238628
vt 0.0520000011 0.319799989
vt 0.110699996 0.394199997
vt 0.119199999 0.335999995
vt 0.0105999997 0.370099992
vt 0.153500006 0.335999995
vt 0.162 0.394199997
vt 0.220699996 0.319799006
vt 0.262100011 0.370099008
vt 0.578289986 0.151440993
vn 0.062671259 -0.927698731 0.368031681
vn -0.765987873 -0.62477833 0.151375875
vn -0.809759021 -0.550649703 0.202670291
vn 0.0910701305 -0.959526122 0.266488224
vn -0.873365641 0.470629126 -0.125462085
vn -0.850756824 0.50268656 -0.153358981
vn -0.101925462 0.97602129 -0.192337617
vn -0.0683349371 0.95348841 -0.293581873
vn -0.727008581 -0.650689304 -0.219230458
vn -0.893363297 0.434094578 -0.11603412
vn -0.805058122 -0.390862733 -0.446214944
vn -0.926949978 0.34248656 -0.153188586
vn -0.146773934 0.98908025 -0.0133336606
vn -0.233891457 0.968779922 0.0822212398
vn -0.0772946775 -0.793882132 -0.603139102
vn 0.0934548825 -0.961734831 -0.257550389
vn 0.838392556 -0.512057483 -0.186801985
vn 0.658369958 -0.648866951 -0.381471485
vn 0.804511547 0.593636096 0.0189035702
vn -0.146773934 0.98908025 -0.0133336606
vn 0.795207202 0.602475882 -0.0683255419
vn 0.800932229 0.581331491 -0.143391788
vn 0.854608059 -0.508686423 0.104322635
vn 0.762356162 0.620021164 -0.185436785
vn -0.101925462 0.97602129 -0.192337617
vn -0.0683349371 0.95348841 -0.293581873
vn 0.869032323 -0.469383985 0.156401679
vn 0.062671259 -0.927698731 0.368031681
vn 0.0910701305 -0.959526122 0.266488224
vn 0.34970209 -0.87399435 0.337405324
vn -0.373937458 -0.449339658 0.811335027
vn 0.373920858 -0.449335307 0.81134516
vn -0.349690676 -0.874004245 0.337391436
vn 0.957395971 -0.28587243 0.0408648588
vn 0.770370841 -0.20001547 0.605411232
vn 0.558335483 0.481179327 0.675816476
vn 0.554728925 0.759186864 0.340457231
vn -0.558338284 0.481177241 0.675815701
vn -0.554731011 0.759185553 0.340456605
vn -0.957397103 -0.285870373 0.0408538617
vn -0.770372331 -0.200004697 0.605412841
vn -0.373937458 -0.449339658 0.811335027
vn -0.349690676 -0.874004245 0.337391436
vn 0.558335483 0.481179327 0.675816476
vn -0.770372331 -0.200004697 0.605412841
vn -0.558338284 0.481177241 0.675815701
vn 0.770370841 -0.20001547 0.605411232
vn 0.373920858 -0.449335307 0.81134516
vn -0.373937458 -0.449339658 0.811335027
vn -0.692845345 0.633524299 0.344401389
vn -0.592508316 0.234116882 -0.770793855
vn -0.00694548432 0.949468911 -0.313784063
vn -0.292518348 -0.868161082 -0.400910646
vn 0.293224514 -0.86716795 -0.402541012
vn 0.591018975 0.23475264 -0.771743357
vn 0.691823959 0.634792268 0.344119817
vn -0.639429569 -0.527659476 0.559200644
vn -0.592508316 0.234116882 -0.770793855
vn -0.692845345 0.633524299 0.344401389
vn -0.292518348 -0.868161082 -0.400910646
vn 0.293224514 -0.86716795 -0.402541012
vn 0.639307857 -0.532229424 0.554993153
vn 0.591018975 0.23475264 -0.771743357
vn 0.691823959 0.634792268 0.344119817
vn 0.652189553 0.0180747528 0.757840395
vn -0.655763566 0.0201791096 0.754696608
vn -0.00694548432 0.949468911 -0.313784063
vn -0.639429569 -0.527659476 0.559200644
vn -0.692845345 0.633524299 0.344401389
vn -0.655763566 0.0201791096 0.754696608
vn 0.652189553 0.0180747528 0.757840395
vn 0.639307857 -0.532229424 0.554993153
vn 0.691823959 0.634792268 0.344119817
vn -0.475291491 -0.673908651 0.565636992
vn -0.356672227 -0.715577483 0.60061121
vn -0.804447949 -0.454994798 0.38189432
vn 0.475278169 -0.673914254 0.565641582
vn 0.356664509 -0.715579748 0.600613058
vn 0.804431617 -0.455011725 0.381908387
vn -0.828280687 -0.299479455 -0.473564327
vn 0.423341423 -0.796013474 -0.432602197
vn 0.846304476 -0.268545419 -0.460056573
vn -0.423347026 -0.79601264 -0.432598293
vn -0.626096785 0.668619514 -0.401186675
vn 0.629015028 0.665462196 -0.401870996
vn 0.423341423 -0.796013474 -0.432602197
vn -0.338658899 -0.705246329 0.622846544
vn 0.338658333 -0.705259919 0.622831464
vn -0.423347026 -0.79601264 -0.432598293
vn -0.766898096 -0.327752918 0.55176568
vn -0.828280687 -0.299479455 -0.473564327
vn 0.798351049 -0.280003011 0.53313601
vn 0.846304476 -0.268545419 -0.460056573
vn 0.275010169 -0.303676009 0.912222683
vn -0.274933189 -0.303662181 0.912250519
vn -0.785680771 -0.0219045412 0.618244231
vn 0.808751762 -0.0320535675 0.587276042
vn -0.578431308 0.6625911 0.475804806
vn 0.629015028 0.665462196 -0.401870996
vn 0.578462243 0.66258955 0.47576952
vn -0.626096785 0.668619514 -0.401186675
vn -0.785680771 -0.0219045412 0.618244231
vn -0.828280687 -0.299479455 -0.473564327
vn -0.766898096 -0.327752918 0.55176568
vn 0.808751762 -0.0320535675 0.587276042
vn 0.798351049 -0.280003011 0.53313601
vn 0.846304476 -0.268545419 -0.460056573
vn -0.274933189 -0.303662181 0.912250519
vn 0.808751762 -0.0320535675 0.587276042
vn 0.275010169 -0.303676009 0.912222683
vn -0.785680771 -0.0219045412 0.618244231
vn 0.577688813 0.332975179 0.745253742
vn -0.649415076 0.705083132 0.284811974
vn 0.648901582 0.705956578 0.283816963
vn -0.584602237 0.330806196 0.740815341
vn 0.669531763 -0.00714885164 0.742748976
vn -0.673224092 0 0.739438474
vn -0.575857162 0.586325169 -0.569746673
vn 0.575857162 0.586325288 -0.569746673
vn -0.737183332 -0.00935185514 -0.675628006
vn -0.584602237 0.330806196 0.740815341
vn -0.673224092 0 0.739438474
vn -0.649415076 0.705083132 0.284811974
vn -0.575857162 0.586325169 -0.569746673
vn 0.648901582 0.705956578 0.283816963
vn 0.669531763 -0.00714885164 0.742748976
vn 0.577688813 0.332975179 0.745253742
vn 0.735489845 -0.0118137673 -0.677432835
vn 0.575857162 0.586325288 -0.569746673
vn -0.575857162 0.586325169 -0.569746673
vn 0.735489845 -0.0118137673 -0.677432835
vn 0.575857162 0.586325288 -0.569746673
vn -0.737183332 -0.00935185514 -0.675628006
vn -0.868203223 0.00833581667 0.496138662
vn -0.383900851 0.420524389 0.822057962
vn -0.433169425 -0.27867654 0.857148588
vn -0.669888556 0.425591558 0.608375847
vn -0.858180761 -0.0290408414 0.512525499
vn -0.473811448 -0.383794606 0.792593479
vn -0.0390350297 0.475558579 0.878817558
vn -0.125807777 0.847457945 0.515739799
vn -0 -0.401750296 0.915749192
vn 0.134457827 -0.623549104 0.770134747
vn 0.868202329 0.00833410677 0.49614042
vn 0.383897841 0.420523763 0.82205981
vn 0.669888198 0.425580889 0.608383596
vn 0.433169484 -0.27867651 0.857148588
vn 0.858180761 -0.0290409848 0.512525558
vn 0.473811299 -0.383794755 0.792593539
vn 0.0390348025 0.475553751 0.87882024
vn 0.125808418 0.847456276 0.515742183
vn -0 -0.401750326 0.915749311
vn -0.134457856 -0.623549044 0.770134807
vn -0.603695273 -0.775181949 -0.186131597
vn -0.907590926 -0.297380507 -0.296383977
vn -0.779741168 -0.623636603 -0.0555084608
vn -0 -0.95426327 -0.298967451
vn -0 -0.983715236 -0.179734215
vn 1.61049884E-05 -0.886236548 -0.463232905
vn -0.848009467 -0.522526026 -0.0885809585
vn -0.512209356 -0.811056554 0.282540023
vn -0 -0.903342187 0.428920597
vn -0.949496865 0.155759469 0.272387117
vn 1.15841603E-05 -0.990365744 -0.138475597
vn -0.579559863 -0.810790658 -0.0820298791
vn -0.727002084 -0.00871734507 0.686580002
vn -0.595275164 0.705125988 0.385285378
vn -0.575853884 0.795080006 0.190367714
vn -0.852846026 0.483223796 0.19785966
vn -0.750090301 0.633621752 -0.189441219
vn -0 0.981527388 0.191321895
vn 0.00419131108 0.895211995 0.445620865
vn -0 0.986217916 -0.16545178
vn -0.44541955 0.505255401 0.739133656
vn 0.00655211648 0.630682349 0.776013494
vn -0.804859221 0.58962816 -0.0673810467
vn -0 0.997399807 -0.072068058
vn -0.916687965 -0.375435442 -0.136862725
vn -0.997681618 -0.0383213051 -0.0562384799
vn -0.935323119 -0.321484715 0.147710443
vn 0.00655211648 0.630682349 0.776013494
vn -0 -0.903342187 0.428920597
vn -0.44541955 0.505255401 0.739133656
vn -0.727002084 -0.00871734507 0.686580002
vn -0.512209356 -0.811056554 0.282540023
vn 0.779749691 -0.623623431 -0.0555355549
vn 0.907587707 -0.297394961 -0.296379477
vn 0.603707016 -0.775173545 -0.186128721
vn -0 -0.95426327 -0.298967451
vn -0 -0.983715236 -0.179734215
vn 1.61049884E-05 -0.886236548 -0.463232905
vn 0.841269672 -0.528843582 -0.112204105
vn 0.506890178 -0.81441766 0.282464385
vn -0 -0.903342187 0.428920597
vn 0.953293025 0.138646364 0.268346161
vn 1.15841603E-05 -0.990365744 -0.138475597
vn 0.579564989 -0.810785592 -0.0820444375
vn 0.916680157 -0.375454217 -0.136863485
vn 0.750103652 0.63360554 -0.189442456
vn 0.804872155 0.589610577 -0.0673801377
vn -0 0.986217916 -0.16545178
vn 0.563817203 0.807248056 0.174529836
vn 0.868482947 0.469127417 0.160177678
vn 0.567046344 0.716825068 0.405734301
vn -0 0.981527388 0.191321895
vn 0.00419131108 0.895211995 0.445620865
vn 0.00655211648 0.630682349 0.776013494
vn 0.426048636 0.514510274 0.744151711
vn 0.718591571 -0.00352660636 0.695423424
vn -0 0.997399807 -0.072068058
vn 0.935316443 -0.321500868 0.147716805
vn 0.997680187 -0.0383426808 -0.0562504269
vn 0.00655211648 0.630682349 0.776013494
vn 0.426048636 0.514510274 0.744151711
vn -0 -0.903342187 0.428920597
vn 0.718591571 -0.00352660636 0.695423424
vn 0.506890178 -0.81441766 0.282464385
vn 0.462854564 -0.00332869799 -0.886428058
vn 0.41656366 -0.881989181 -0.220385462
vn -0.463211566 -0.00373545568 -0.886239827
vn -0.416307449 -0.882122755 -0.220335037
vn 0.244735673 -0.336422384 -0.909353793
vn -0.245484874 -0.336340547 -0.909182131
vn -0.543798685 -0.321638405 0.775133371
vn 0.41656366 -0.881989181 -0.220385462
vn -0.416307449 -0.882122755 -0.220335037
vn 0.54403609 -0.32153219 0.775010765
vn -0.976711988 -0.188632026 0.102233507
vn 0.0654465705 0.762176216 0.644052982
vn 0.976854742 -0.188209459 0.101647213
vn -0.245484874 -0.336340547 -0.909182131
vn 0.244735673 -0.336422384 -0.909353793
vn -0.0658731237 0.76206243 0.644143999
vn -0.16030328 0.751787186 0.639624119
vn -0.543798685 -0.321638405 0.775133371
vn 0.160397753 0.751929522 0.639432847
vn 0.54403609 -0.32153219 0.775010765
vn -0.0658731237 0.76206243 0.644143999
vn 0.0654465705 0.762176216 0.644052982
vn 0.244735673 -0.336422384 -0.909353793
vn 0.160397753 0.751929522 0.639432847
vn 0.0654465705 0.762176216 0.644052982
vn 0.462854564 -0.00332869799 -0.886428058
vn -0.463211566 -0.00373545568 -0.886239827
vn -0.16030328 0.751787186 0.639624119
vn -0.245484874 -0.336340547 -0.909182131
vn -0.0658731237 0.76206243 0.644143999
vn 0.0934548825 -0.961734831 -0.257550389
vn -0.062671259 -0.927698731 0.36803171
vn 0.765987933 -0.62477833 0.15137589
vn -0.0910701081 -0.959526122 0.266488224
vn 0.809759021 -0.550649703 0.202670336
vn 0.873365641 0.470629126 -0.125462085
vn 0.850756824 0.50268662 -0.153358996
vn 0.10192547 0.97602129 -0.192337602
vn 0.0683349222 0.95348841 -0.293581873
vn 0.727008581 -0.650689304 -0.219230458
vn 0.893363297 0.434094548 -0.11603412
vn 0.805058122 -0.390862733 -0.446214974
vn 0.926949978 0.342486471 -0.153188571
vn 0.146773934 0.98908025 -0.0133336578
vn 0.233891457 0.968779922 0.0822212398
vn 0.0772946775 -0.793882132 -0.603139102
vn -0.0934548825 -0.961734831 -0.257550389
vn -0.838392615 -0.512057424 -0.186802
vn -0.658369958 -0.648866951 -0.381471485
vn -0.804511547 0.593636036 0.0189035721
vn 0.146773934 0.98908025 -0.0133336578
vn -0.795207202 0.602475882 -0.0683255196
vn -0.800932169 0.581331611 -0.143391788
vn -0.854608059 -0.508686423 0.104322642
vn -0.762356162 0.620021224 -0.185436785
vn 0.10192547 0.97602129 -0.192337602
vn 0.0683349222 0.95348841 -0.293581873
vn -0.869032323 -0.469383985 0.156401694
vn -0.062671259 -0.927698731 0.36803171
vn -0.0910701081 -0.959526122 0.266488224
vn -0.34970209 -0.87399435 0.337405324
vn 0.373937458 -0.449339658 0.811335027
vn 0.349690676 -0.874004245 0.337391436
vn -0.373920858 -0.449335307 0.81134516
vn -0.957395971 -0.2858724 0.0408648588
vn -0.770370841 -0.20001547 0.605411232
vn -0.558335483 0.481179327 0.675816476
vn -0.554728925 0.759186864 0.340457201
vn 0.558338284 0.481177241 0.675815701
vn 0.554731011 0.759185553 0.340456605
vn 0.957396984 -0.285870373 0.0408538505
vn 0.770372391 -0.200004727 0.605412722
vn 0.373937458 -0.449339658 0.811335027
vn 0.349690676 -0.874004245 0.337391436
vn -0.558335483 0.481179327 0.675816476
vn 0.770372391 -0.200004727 0.605412722
vn -0.770370841 -0.20001547 0.605411232
vn 0.558338284 0.481177241 0.675815701
vn -0.373920858 -0.449335307 0.81134516
vn 0.373937458 -0.449339658 0.811335027
vn 0.692845285 0.633524239 0.344401389
vn 0.00694551226 0.94946903 -0.313784063
vn 0.592508316 0.234116882 -0.770793855
vn 0.292518348 -0.868161082 -0.400910646
vn -0.293224484 -0.86716795 -0.402541012
vn -0.591018856 0.234752655 -0.771743417
vn -0.691823959 0.634792328 0.344119847
vn 0.639429569 -0.527659476 0.559200644
vn 0.592508316 0.234116882 -0.770793855
vn 0.292518348 -0.868161082 -0.400910646
vn 0.692845285 0.633524239 0.344401389
vn -0.293224484 -0.86716795 -0.402541012
vn -0.639307857 -0.532229483 0.554993093
vn -0.591018856 0.234752655 -0.771743417
vn -0.691823959 0.634792328 0.344119847
vn -0.652189553 0.0180746689 0.757840395
vn 0.655763566 0.0201791096 0.754696608
vn 0.00694551226 0.94946903 -0.313784063
vn 0.692845285 0.633524239 0.344401389
vn 0.639429569 -0.527659476 0.559200644
vn 0.655763566 0.0201791096 0.754696608
vn -0.652189553 0.0180746689 0.757840395
vn -0.639307857 -0.532229483 0.554993093
vn -0.691823959 0.634792328 0.344119847
vn 0.47529152 -0.673908651 0.565636933
vn 0.804447949 -0.454994678 0.381894231
vn 0.356672257 -0.715577483 0.60061121
vn -0.475278169 -0.673914194 0.565641582
vn -0.356664538 -0.715579748 0.600613058
vn -0.804431617 -0.455011666 0.381908506
vn 0.828280687 -0.299479455 -0.473564327
vn -0.423341423 -0.796013474 -0.432602257
vn 0.423346996 -0.79601258 -0.432598293
vn -0.846304536 -0.268545389 -0.460056573
vn 0.626096785 0.668619514 -0.401186675
vn -0.629015028 0.665462196 -0.401870936
vn -0.423341423 -0.796013474 -0.432602257
vn 0.338658899 -0.705246389 0.622846544
vn 0.423346996 -0.79601258 -0.432598293
vn -0.338658303 -0.705259919 0.622831404
vn 0.766898096 -0.327752918 0.55176568
vn 0.828280687 -0.299479455 -0.473564327
vn -0.79835093 -0.280002981 0.53313607
vn -0.846304536 -0.268545389 -0.460056573
vn -0.275010169 -0.303676009 0.912222683
vn 0.274933189 -0.303662181 0.912250519
vn 0.785680771 -0.0219045412 0.618244231
vn -0.808751762 -0.0320535637 0.587275982
vn 0.578431308 0.6625911 0.475804806
vn -0.629015028 0.665462196 -0.401870936
vn 0.626096785 0.668619514 -0.401186675
vn -0.578462183 0.66258955 0.47576952
vn 0.785680771 -0.0219045412 0.618244231
vn 0.828280687 -0.299479455 -0.473564327
vn 0.766898096 -0.327752918 0.55176568
vn -0.808751762 -0.0320535637 0.587275982
vn -0.79835093 -0.280002981 0.53313607
vn -0.846304536 -0.268545389 -0.460056573
vn 0.274933189 -0.303662181 0.912250519
vn -0.808751762 -0.0320535637 0.587275982
vn 0.785680771 -0.0219045412 0.618244231
vn -0.275010169 -0.303676009 0.912222683
vn -0.577688813 0.332975179 0.745253742
vn 0.649415076 0.705083132 0.284811974
vn 0.584602237 0.330806196 0.740815341
vn -0.648901582 0.705956578 0.283816934
vn -0.669531763 -0.00714885164 0.742748976
vn 0.673224092 0 0.739438474
vn 0.575857162 0.586325169 -0.569746673
vn -0.575857162 0.586325288 -0.569746673
vn 0.737183332 -0.00935185514 -0.675628006
vn 0.584602237 0.330806196 0.740815341
vn 0.649415076 0.705083132 0.284811974
vn 0.673224092 0 0.739438474
vn 0.575857162 0.586325169 -0.569746673
vn -0.648901582 0.705956578 0.283816934
vn -0.669531763 -0.00714885164 0.742748976
vn -0.735489845 -0.0118137663 -0.677432775
vn -0.577688813 0.332975179 0.745253742
vn -0.575857162 0.586325288 -0.569746673
vn 0.575857162 0.586325169 -0.569746673
vn -0.735489845 -0.0118137663 -0.677432775
vn 0.737183332 -0.00935185514 -0.675628006
vn -0.575857162 0.586325288 -0.569746673
vn 0.868203223 0.00833581667 0.496138722
vn 0.383900851 0.420524389 0.822057962
vn 0.669888496 0.425591499 0.608375847
vn 0.433169395 -0.27867648 0.857148588
vn 0.858180761 -0.0290408302 0.512525499
vn 0.473811358 -0.383794636 0.792593539
vn 0.039035026 0.475558519 0.878817558
vn 0.125807762 0.847457826 0.515739799
vn -0 -0.401750296 0.915749192
vn -0.134457842 -0.623549104 0.770134747
vn -0.868202329 0.00833410677 0.49614042
vn -0.383897841 0.420523763 0.82205981
vn -0.433169425 -0.27867651 0.857148588
vn -0.669888198 0.425580889 0.608383596
vn -0.858180761 -0.0290409885 0.512525499
vn -0.473811358 -0.383794725 0.792593479
vn -0.0390348136 0.475553751 0.87882024
vn -0.125808448 0.847456276 0.515742242
vn -0 -0.401750326 0.915749311
vn 0.134457842 -0.623549044 0.770134807
vn 0.603695273 -0.775182009 -0.186131582
vn 0.779741168 -0.623636663 -0.0555084608
vn 0.907590926 -0.297380626 -0.296383947
vn -0 -0.95426327 -0.29896751
vn -0 -0.983715236 -0.1797342
vn -1.61350181E-05 -0.886236548 -0.463232905
vn 0.848009467 -0.522525966 -0.0885809958
vn 0.512209415 -0.811056554 0.282540053
vn -0 -0.903342187 0.428920567
vn 0.949496865 0.155759484 0.272387117
vn -1.16072824E-05 -0.990365863 -0.138475612
vn 0.579559922 -0.810790658 -0.0820298865
vn 0.727002025 -0.00871734507 0.686580002
vn 0.595275223 0.705126047 0.385285378
vn 0.575853884 0.795080006 0.190367714
vn 0.852846026 0.483223796 0.197859704
vn 0.750090301 0.633621752 -0.189441189
vn -0 0.981527388 0.191321865
vn -0.00419131061 0.895211995 0.445620805
vn -0 0.986217916 -0.16545178
vn 0.44541949 0.505255342 0.739133656
vn -0.0065521514 0.630682349 0.776013434
vn 0.804859221 0.58962816 -0.0673810467
vn -0 0.997399807 -0.0720680431
vn 0.916687965 -0.375435472 -0.13686274
vn 0.997681618 -0.0383213013 -0.0562384464
vn 0.935323119 -0.321484745 0.147710487
vn -0.0065521514 0.630682349 0.776013434
vn 0.44541949 0.505255342 0.739133656
vn -0 -0.903342187 0.428920567
vn 0.727002025 -0.00871734507 0.686580002
vn 0.512209415 -0.811056554 0.282540053
vn -0.779749691 -0.623623371 -0.0555355549
vn -0.603706956 -0.775173545 -0.186128691
vn -0.907587707 -0.297394931 -0.296379447
vn -0 -0.95426327 -0.29896751
vn -0 -0.983715236 -0.1797342
vn -1.61350181E-05 -0.886236548 -0.463232905
vn -0.841269672 -0.528843522 -0.112204134
vn -0.506890178 -0.81441766 0.282464355
vn -0 -0.903342187 0.428920567
vn -0.953293025 0.138646364 0.268346161
vn -1.16072824E-05 -0.990365863 -0.138475612
vn -0.579564989 -0.810785472 -0.0820444301
vn -0.916680157 -0.375454217 -0.13686347
vn -0.750103652 0.63360554 -0.189442456
vn -0.804872155 0.589610577 -0.0673801154
vn -0 0.986217916 -0.16545178
vn -0.563817203 0.807248056 0.174529806
vn -0.868482947 0.469127417 0.160177678
vn -0.567046344 0.716825068 0.40573433
vn -0 0.981527388 0.191321865
vn -0.00419131061 0.895211995 0.445620805
vn -0.0065521514 0.630682349 0.776013434
vn -0.426048577 0.514510274 0.744151771
vn -0.718591571 -0.00352661218 0.695423424
vn -0 0.997399807 -0.0720680431
vn -0.935316443 -0.321500838 0.14771682
vn -0.997680187 -0.0383426808 -0.0562503822
vn -0.0065521514 0.630682349 0.776013434
vn -0 -0.903342187 0.428920567
vn -0.426048577 0.514510274 0.744151771
vn -0.718591571 -0.00352661218 0.695423424
vn -0.506890178 -0.81441766 0.282464355
vn -0.462854564 -0.00332869799 -0.886428058
vn -0.41656369 -0.881989181 -0.220385462
vn 0.416307449 -0.882122755 -0.220335022
vn 0.463211536 -0.0037354799 -0.886239827
vn -0.244735733 -0.336422354 -0.909353912
vn 0.245484769 -0.336340725 -0.909182131
vn 0.543798685 -0.321638405 0.775133371
vn -0.41656369 -0.881989181 -0.220385462
vn -0.54403609 -0.32153219 0.775010765
vn 0.416307449 -0.882122755 -0.220335022
vn 0.976711988 -0.188632026 0.102233492
vn -0.065446578 0.762176216 0.644052863
vn -0.976854742 -0.188209459 0.101647243
vn 0.245484769 -0.336340725 -0.909182131
vn -0.244735733 -0.336422354 -0.909353912
vn 0.0658728778 0.762062371 0.644144177
vn 0.16030322 0.751787186 0.639624119
vn 0.543798685 -0.321638405 0.775133371
vn -0.54403609 -0.32153219 0.775010765
vn -0.160397798 0.751929522 0.639432907
vn 0.0658728778 0.762062371 0.644144177
vn -0.065446578 0.762176216 0.644052863
vn -0.244735733 -0.336422354 -0.909353912
vn -0.160397798 0.751929522 0.639432907
vn -0.462854564 -0.00332869799 -0.886428058
vn -0.065446578 0.762176216 0.644052863
vn 0.463211536 -0.0037354799 -0.886239827
vn 0.16030322 0.751787186 0.639624119
vn 0.245484769 -0.336340725 -0.909182131
vn 0.0658728778 0.762062371 0.644144177
vn -0.0934548825 -0.961734831 -0.257550389
g foot_0
f 3/3/3 2/2/2 1/1/1
f 2/2/2 4/4/4 1/1/1
f 5/5/5 2/2/2 3/3/3
f 6/6/6 5/5/5 3/3/3
f 7/7/7 5/5/5 6/6/6
f 8/8/8 7/7/7 6/6/6
f 2/2/2 5/5/5 9/9/9
f 2/2/2 9/9/9 4/4/4
f 5/5/5 10/10/10 9/9/9
f 5/5/5 7/7/7 10/10/10
f 9/9/9 10/10/10 11/11/11
f 10/10/10 12/12/12 11/11/11
f 10/10/10 13/13/13 12/12/12
f 7/7/7 13/13/13 10/10/10
f 13/13/13 14/14/14 12/12/12
f 9/9/9 11/11/11 15/15/15
f 16/16/16 9/9/9 15/15/15
f 17/17/17 16/16/16 15/15/15
f 18/18/18 17/17/17 15/15/15
f 18/18/18 19/19/19 17/17/17
f 14/14/14 20/20/20 19/19/19
f 20/20/20 21/21/21 19/19/19
f 19/19/19 21/21/21 17/17/17
f 21/21/21 22/22/22 17/17/17
f 22/22/22 21/21/21 20/20/20
f 22/22/22 23/23/23 17/17/17
f 22/22/22 24/24/24 23/23/23
f 22/22/22 25/25/25 24/24/24
f 25/25/25 22/22/22 20/20/20
f 25/25/25 26/26/26 24/24/24
f 24/24/24 27/27/27 23/23/23
f 23/23/23 27/27/27 28/28/28
f 29/29/29 23/23/23 28/28/28
f 23/23/23 29/29/29 17/17/17
f 29/29/29 16/16/16 17/17/17
f 32/32/32 31/31/31 30/30/30
f 31/31/31 33/33/33 30/30/30
f 30/30/30 34/34/34 32/32/32
f 34/34/34 35/35/35 32/32/32
f 35/35/35 34/34/34 36/36/36
f 34/34/34 37/37/37 36/36/36
f 38/38/38 36/36/36 37/37/37
f 39/39/39 38/38/38 37/37/37
f 39/39/39 40/40/40 38/38/38
f 40/40/40 41/41/41 38/38/38
f 42/42/42 41/41/41 40/40/40
f 43/43/43 42/42/42 40/40/40
f 46/46/46 45/45/45 44/44/44
f 45/45/45 47/47/47 44/44/44
f 47/47/47 45/45/45 48/48/48
f 45/45/45 49/49/49 48/48/48
f 52/52/52 51/51/51 50/50/50
f 53/53/53 51/51/51 52/52/52
f 53/53/53 52/52/52 54/54/54
f 54/54/54 52/52/52 55/55/55
f 56/56/56 55/55/55 52/52/52
f 59/59/59 58/58/58 57/57/57
f 58/58/58 60/60/60 57/57/57
f 57/57/57 60/60/60 61/61/61
f 62/62/62 57/57/57 61/61/61
f 62/62/62 61/61/61 63/63/63
f 64/64/64 62/62/62 63/63/63
f 57/57/57 62/62/62 65/65/65
f 66/66/66 57/57/57 65/65/65
f 69/69/69 68/68/68 67/67/67
f 68/68/68 70/70/70 67/67/67
f 70/70/70 71/71/71 67/67/67
f 72/72/72 67/67/67 71/71/71
f 67/67/67 72/72/72 73/73/73
f 76/76/76 75/75/75 74/74/74
f 74/74/74 75/75/75 77/77/77
f 75/75/75 78/78/78 77/77/77
f 79/79/79 77/77/77 78/78/78
f 82/82/82 81/81/81 80/80/80
f 81/81/81 83/83/83 80/80/80
f 82/82/82 80/80/80 84/84/84
f 85/85/85 82/82/82 84/84/84
f 88/88/88 87/87/87 86/86/86
f 87/87/87 89/89/89 86/86/86
f 89/89/89 87/87/87 90/90/90
f 91/91/91 89/89/89 90/90/90
f 92/92/92 88/88/88 86/86/86
f 93/93/93 92/92/92 86/86/86
f 88/88/88 94/94/94 87/87/87
f 92/92/92 94/94/94 88/88/88
f 94/94/94 95/95/95 87/87/87
f 87/87/87 95/95/95 90/90/90
f 90/90/90 95/95/95 96/96/96
f 97/97/97 94/94/94 92/92/92
f 100/100/100 99/99/99 98/98/98
f 99/99/99 101/101/101 98/98/98
f 98/98/98 101/101/101 102/102/102
f 101/101/101 103/103/103 102/102/102
f 103/103/103 104/104/104 102/102/102
f 100/100/100 105/105/105 99/99/99
f 105/105/105 106/106/106 99/99/99
f 106/106/106 107/107/107 99/99/99
f 110/110/110 109/109/109 108/108/108
f 109/109/109 111/111/111 108/108/108
f 114/114/114 113/113/113 112/112/112
f 113/113/113 115/115/115 112/112/112
f 116/116/116 112/112/112 115/115/115
f 117/117/117 116/116/116 115/115/115
f 118/118/118 113/113/113 114/114/114
f 119/119/119 118/118/118 114/114/114
f 122/122/122 121/121/121 120/120/120
f 121/121/121 123/123/123 120/120/120
f 120/120/120 123/123/123 124/124/124
f 127/127/127 126/126/126 125/125/125
f 126/126/126 128/128/128 125/125/125
f 128/128/128 129/129/129 125/125/125
f 132/132/132 131/131/131 130/130/130
f 131/131/131 133/133/133 130/130/130
f 136/136/136 135/135/135 134/134/134
f 135/135/135 137/137/137 134/134/134
f 136/136/136 134/134/134 138/138/138
f 139/139/139 136/136/136 138/138/138
f 135/135/135 140/140/140 137/137/137
f 140/140/140 135/135/135 136/136/136
f 140/140/140 141/141/141 137/137/137
f 142/142/142 140/140/140 136/136/136
f 142/142/142 136/136/136 143/143/143
f 136/136/136 139/139/139 143/143/143
f 146/146/146 145/145/145 144/144/144
f 145/145/145 147/147/147 144/144/144
f 144/144/144 147/147/147 148/148/148
f 147/147/147 149/149/149 148/148/148
f 150/150/150 145/145/145 146/146/146
f 145/145/145 150/150/150 147/147/147
f 151/151/151 150/150/150 146/146/146
f 150/150/150 152/152/152 147/147/147
f 149/149/149 147/147/147 153/153/153
f 147/147/147 152/152/152 153/153/153
f 156/156/156 155/155/155 154/154/154
f 156/156/156 154/154/154 157/157/157
f 158/158/158 156/156/156 157/157/157
f 158/158/158 159/159/159 156/156/156
f 159/159/159 160/160/160 156/156/156
f 161/161/161 160/160/160 159/159/159
f 162/162/162 161/161/161 159/159/159
f 160/160/160 163/163/163 156/156/156
f 164/164/164 157/157/157 154/154/154
f 165/165/165 164/164/164 154/154/154
f 163/163/163 160/160/160 166/166/166
f 160/160/160 161/161/161 166/166/166
f 163/163/163 166/166/166 167/167/167
f 167/167/167 168/168/168 163/163/163
f 168/168/168 169/169/169 163/163/163
f 155/155/155 169/169/169 170/170/170
f 169/169/169 168/168/168 170/170/170
f 171/171/171 168/168/168 167/167/167
f 172/172/172 171/171/171 167/167/167
f 170/170/170 168/168/168 173/173/173
f 168/168/168 171/171/171 173/173/173
f 167/167/167 174/174/174 172/172/172
f 166/166/166 174/174/174 167/167/167
f 174/174/174 175/175/175 172/172/172
f 176/176/176 170/170/170 173/173/173
f 177/177/177 176/176/176 173/173/173
f 170/170/170 176/176/176 178/178/178
f 178/178/178 165/165/165 154/154/154
f 155/155/155 178/178/178 154/154/154
f 155/155/155 170/170/170 178/178/178
f 155/155/155 179/179/179 169/169/169
f 169/169/169 179/179/179 180/180/180
f 180/180/180 179/179/179 155/155/155
f 163/163/163 169/169/169 180/180/180
f 156/156/156 180/180/180 155/155/155
f 183/183/183 182/182/182 181/181/181
f 184/184/184 182/182/182 183/183/183
f 185/185/185 182/182/182 184/184/184
f 188/188/188 187/187/187 186/186/186
f 188/188/188 186/186/186 189/189/189
f 186/186/186 190/190/190 189/189/189
f 191/191/191 190/190/190 186/186/186
f 192/192/192 191/191/191 186/186/186
f 192/192/192 193/193/193 191/191/191
f 193/193/193 194/194/194 191/191/191
f 186/186/186 195/195/195 192/192/192
f 192/192/192 195/195/195 193/193/193
f 189/189/189 196/196/196 188/188/188
f 196/196/196 197/197/197 188/188/188
f 197/197/197 198/198/198 188/188/188
f 198/198/198 187/187/187 188/188/188
f 199/199/199 187/187/187 198/198/198
f 200/200/200 199/199/199 198/198/198
f 199/199/199 200/200/200 201/201/201
f 202/202/202 199/199/199 201/201/201
f 199/199/199 202/202/202 203/203/203
f 195/195/195 203/203/203 204/204/204
f 203/203/203 202/202/202 204/204/204
f 204/204/204 202/202/202 205/205/205
f 205/205/205 202/202/202 201/201/201
f 206/206/206 204/204/204 205/205/205
f 206/206/206 207/207/207 204/204/204
f 207/207/207 208/208/208 204/204/204
f 204/204/204 208/208/208 195/195/195
f 208/208/208 209/209/209 195/195/195
f 200/200/200 210/210/210 201/201/201
f 195/195/195 209/209/209 193/193/193
f 195/195/195 211/211/211 203/203/203
f 211/211/211 212/212/212 203/203/203
f 187/187/187 212/212/212 211/211/211
f 187/187/187 203/203/203 212/212/212
f 186/186/186 187/187/187 211/211/211
f 199/199/199 203/203/203 187/187/187
f 215/215/215 214/214/214 213/213/213
f 215/215/215 216/216/216 214/214/214
f 216/216/216 215/215/215 217/217/217
f 220/220/220 219/219/219 218/218/218
f 219/219/219 221/221/221 218/218/218
f 218/218/218 221/221/221 222/222/222
f 220/220/220 223/223/223 219/219/219
f 226/226/226 225/225/225 224/224/224
f 225/225/225 227/227/227 224/224/224
f 226/226/226 224/224/224 228/228/228
f 224/224/224 229/229/229 228/228/228
f 227/227/227 225/225/225 230/230/230
f 231/231/231 230/230/230 225/225/225
f 226/226/226 228/228/228 232/232/232
f 233/233/233 227/227/227 230/230/230
f 236/236/236 235/235/235 234/234/234
f 235/235/235 237/237/237 234/234/234
f 238/238/238 234/234/234 237/237/237
f 235/235/235 236/236/236 239/239/239
f 242/242/242 241/241/241 240/240/240
f 241/241/241 243/243/243 240/240/240
f 243/243/243 241/241/241 244/244/244
f 241/241/241 245/245/245 244/244/244
f 244/244/244 245/245/245 246/246/246
f 245/245/245 247/247/247 246/246/246
f 9/9/9 248/248/248 4/4/4
f 251/251/251 250/250/250 249/249/249
f 250/250/250 252/252/252 249/249/249
f 250/250/250 253/253/253 252/252/252
f 253/253/253 254/254/254 252/252/252
f 253/253/253 255/255/255 254/254/254
f 255/255/255 256/256/256 254/254/254
f 253/253/253 250/250/250 257/257/257
f 257/257/257 250/250/250 251/251/251
f 258/258/258 253/253/253 257/257/257
f 255/255/255 253/253/253 258/258/258
f 258/258/258 257/257/257 259/259/259
f 260/260/260 258/258/258 259/259/259
f 261/261/261 258/258/258 260/260/260
f 261/261/261 255/255/255 258/258/258
f 262/262/262 261/261/261 260/260/260
f 259/259/259 257/257/257 263/263/263
f 257/257/257 264/264/264 263/263/263
f 264/264/264 265/265/265 263/263/263
f 265/265/265 266/266/266 263/263/263
f 267/267/267 266/266/266 265/265/265
f 268/268/268 262/262/262 267/267/267
f 269/269/269 268/268/268 267/267/267
f 269/269/269 267/267/267 265/265/265
f 270/270/270 269/269/269 265/265/265
f 269/269/269 270/270/270 268/268/268
f 271/271/271 270/270/270 265/265/265
f 272/272/272 270/270/270 271/271/271
f 273/273/273 270/270/270 272/272/272
f 270/270/270 273/273/273 268/268/268
f 274/274/274 273/273/273 272/272/272
f 275/275/275 272/272/272 271/271/271
f 275/275/275 271/271/271 276/276/276
f 271/271/271 277/277/277 276/276/276
f 264/264/264 277/277/277 265/265/265
f 277/277/277 271/271/271 265/265/265
f 280/280/280 279/279/279 278/278/278
f 279/279/279 281/281/281 278/278/278
f 282/282/282 278/278/278 281/281/281
f 283/283/283 282/282/282 281/281/281
f 282/282/282 283/283/283 284/284/284
f 285/285/285 282/282/282 284/284/284
f 284/284/284 286/286/286 285/285/285
f 286/286/286 287/287/287 285/285/285
f 288/288/288 287/287/287 286/286/286
f 289/289/289 288/288/288 286/286/286
f 289/289/289 290/290/290 288/288/288
f 290/290/290 291/291/291 288/288/288
f 294/294/294 293/293/293 292/292/292
f 293/293/293 295/295/295 292/292/292
f 293/293/293 294/294/294 296/296/296
f 297/297/297 293/293/293 296/296/296
f 300/300/300 299/299/299 298/298/298
f 300/300/300 301/301/301 299/299/299
f 299/299/299 301/301/301 302/302/302
f 299/299/299 302/302/302 303/303/303
f 303/303/303 304/304/304 299/299/299
f 307/307/307 306/306/306 305/305/305
f 306/306/306 308/308/308 305/305/305
f 307/307/307 305/305/305 309/309/309
f 305/305/305 310/310/310 309/309/309
f 309/309/309 310/310/310 311/311/311
f 310/310/310 312/312/312 311/311/311
f 310/310/310 305/305/305 313/313/313
f 305/305/305 314/314/314 313/313/313
f 317/317/317 316/316/316 315/315/315
f 318/318/318 317/317/317 315/315/315
f 319/319/319 318/318/318 315/315/315
f 315/315/315 320/320/320 319/319/319
f 320/320/320 315/315/315 321/321/321
f 324/324/324 323/323/323 322/322/322
f 324/324/324 322/322/322 325/325/325
f 326/326/326 324/324/324 325/325/325
f 325/325/325 327/327/327 326/326/326
f 330/330/330 329/329/329 328/328/328
f 329/329/329 331/331/331 328/328/328
f 328/328/328 331/331/331 332/332/332
f 331/331/331 333/333/333 332/332/332
f 336/336/336 335/335/335 334/334/334
f 335/335/335 337/337/337 334/334/334
f 335/335/335 336/336/336 338/338/338
f 336/336/336 339/339/339 338/338/338
f 337/337/337 340/340/340 334/334/334
f 340/340/340 341/341/341 334/334/334
f 342/342/342 337/337/337 335/335/335
f 342/342/342 340/340/340 337/337/337
f 343/343/343 342/342/342 335/335/335
f 343/343/343 335/335/335 338/338/338
f 343/343/343 338/338/338 344/344/344
f 342/342/342 345/345/345 340/340/340
f 348/348/348 347/347/347 346/346/346
f 347/347/347 349/349/349 346/346/346
f 348/348/348 346/346/346 350/350/350
f 351/351/351 348/348/348 350/350/350
f 352/352/352 351/351/351 350/350/350
f 353/353/353 349/349/349 347/347/347
f 354/354/354 353/353/353 347/347/347
f 355/355/355 354/354/354 347/347/347
f 358/358/358 357/357/357 356/356/356
f 357/357/357 359/359/359 356/356/356
f 362/362/362 361/361/361 360/360/360
f 361/361/361 363/363/363 360/360/360
f 360/360/360 364/364/364 362/362/362
f 364/364/364 365/365/365 362/362/362
f 361/361/361 366/366/366 363/363/363
f 366/366/366 367/367/367 363/363/363
f 370/370/370 369/369/369 368/368/368
f 369/369/369 371/371/371 368/368/368
f 370/370/370 368/368/368 372/372/372
f 375/375/375 374/374/374 373/373/373
f 374/374/374 376/376/376 373/373/373
f 377/377/377 375/375/375 373/373/373
f 380/380/380 379/379/379 378/378/378
f 379/379/379 381/381/381 378/378/378
f 384/384/384 383/383/383 382/382/382
f 383/383/383 385/385/385 382/382/382
f 382/382/382 385/385/385 386/386/386
f 385/385/385 387/387/387 386/386/386
f 388/388/388 383/383/383 384/384/384
f 383/383/383 388/388/388 385/385/385
f 389/389/389 388/388/388 384/384/384
f 388/388/388 390/390/390 385/385/385
f 387/387/387 385/385/385 391/391/391
f 385/385/385 390/390/390 391/391/391
f 394/394/394 393/393/393 392/392/392
f 393/393/393 395/395/395 392/392/392
f 394/394/394 392/392/392 396/396/396
f 397/397/397 394/394/394 396/396/396
f 393/393/393 398/398/398 395/395/395
f 398/398/398 393/393/393 394/394/394
f 398/398/398 399/399/399 395/395/395
f 400/400/400 398/398/398 394/394/394
f 400/400/400 394/394/394 401/401/401
f 394/394/394 397/397/397 401/401/401
f 404/404/404 403/403/403 402/402/402
f 402/402/402 403/403/403 405/405/405
f 403/403/403 406/406/406 405/405/405
f 407/407/407 406/406/406 403/403/403
f 408/408/408 407/407/407 403/403/403
f 408/408/408 409/409/409 407/407/407
f 409/409/409 410/410/410 407/407/407
f 411/411/411 408/408/408 403/403/403
f 405/405/405 412/412/412 402/402/402
f 412/412/412 413/413/413 402/402/402
f 409/409/409 408/408/408 414/414/414
f 408/408/408 411/411/411 414/414/414
f 414/414/414 411/411/411 415/415/415
f 416/416/416 415/415/415 411/411/411
f 417/417/417 416/416/416 411/411/411
f 417/417/417 404/404/404 418/418/418
f 416/416/416 417/417/417 418/418/418
f 416/416/416 419/419/419 415/415/415
f 419/419/419 420/420/420 415/415/415
f 419/419/419 416/416/416 421/421/421
f 416/416/416 418/418/418 421/421/421
f 422/422/422 415/415/415 420/420/420
f 422/422/422 414/414/414 415/415/415
f 423/423/423 422/422/422 420/420/420
f 418/418/418 424/424/424 421/421/421
f 424/424/424 425/425/425 421/421/421
f 424/424/424 418/418/418 426/426/426
f 413/413/413 426/426/426 402/402/402
f 426/426/426 404/404/404 402/402/402
f 418/418/418 404/404/404 426/426/426
f 427/427/427 404/404/404 417/417/417
f 427/427/427 417/417/417 428/428/428
f 427/427/427 428/428/428 404/404/404
f 417/417/417 411/411/411 428/428/428
f 428/428/428 403/403/403 404/404/404
f 431/431/431 430/430/430 429/429/429
f 431/431/431 432/432/432 430/430/430
f 431/431/431 433/433/433 432/432/432
f 436/436/436 435/435/435 434/434/434
f 434/434/434 435/435/435 437/437/437
f 438/438/438 434/434/434 437/437/437
f 438/438/438 439/439/439 434/434/434
f 439/439/439 440/440/440 434/434/434
f 441/441/441 440/440/440 439/439/439
f 442/442/442 441/441/441 439/439/439
f 443/443/443 434/434/434 440/440/440
f 443/443/443 440/440/440 441/441/441
f 444/444/444 437/437/437 435/435/435
f 445/445/445 444/444/444 435/435/435
f 436/436/436 446/446/446 435/435/435
f 446/446/446 445/445/445 435/435/435
f 436/436/436 447/447/447 446/446/446
f 447/447/447 448/448/448 446/446/446
f 448/448/448 447/447/447 449/449/449
f 447/447/447 450/450/450 449/449/449
f 450/450/450 447/447/447 451/451/451
f 451/451/451 447/447/447 436/436/436
f 450/450/450 451/451/451 452/452/452
f 451/451/451 443/443/443 452/452/452
f 450/450/450 452/452/452 453/453/453
f 450/450/450 453/453/453 449/449/449
f 452/452/452 454/454/454 453/453/453
f 455/455/455 454/454/454 452/452/452
f 456/456/456 455/455/455 452/452/452
f 456/456/456 452/452/452 443/443/443
f 457/457/457 456/456/456 443/443/443
f 458/458/458 448/448/448 449/449/449
f 457/457/457 443/443/443 441/441/441
f 459/459/459 443/443/443 451/451/451
f 460/460/460 459/459/459 451/451/451
f 460/460/460 436/436/436 459/459/459
f 451/451/451 436/436/436 460/460/460
f 436/436/436 434/434/434 459/459/459
f 463/463/463 462/462/462 461/461/461
f 464/464/464 462/462/462 463/463/463
f 462/462/462 464/464/464 465/465/465
f 468/468/468 467/467/467 466/466/466
f 467/467/467 469/469/469 466/466/466
f 468/468/468 466/466/466 470/470/470
f 471/471/471 469/469/469 467/467/467
f 474/474/474 473/473/473 472/472/472
f 473/473/473 475/475/475 472/472/472
f 472/472/472 475/475/475 476/476/476
f 477/477/477 472/472/472 476/476/476
f 473/473/473 474/474/474 478/478/478
f 478/478/478 479/479/479 473/473/473
f 476/476/476 475/475/475 480/480/480
f 474/474/474 481/481/481 478/478/478
f 484/484/484 483/483/483 482/482/482
f 483/483/483 485/485/485 482/482/482
f 482/482/482 486/486/486 484/484/484
f 485/485/485 483/483/483 487/487/487
f 490/490/490 489/489/489 488/488/488
f 489/489/489 491/491/491 488/488/488
f 489/489/489 490/490/490 492/492/492
f 493/493/493 489/489/489 492/492/492
f 493/493/493 492/492/492 494/494/494
f 495/495/495 493/493/493 494/494/494
f 496/496/496 257/257/257 251/251/251
