g hand
v -0.800324976 0.12454699 0.915104985
v -0.73663801 0.0405599996 0.935088992
v -0.76343298 0.117357999 0.957733989
v -0.769977987 0.0405599996 0.894205987
v -0.875537992 0.132058993 0.987679005
v -0.837182999 0.124586001 1.025828
v -0.925701976 0.0405599996 1.03345096
v -0.884745002 0.0405599996 1.07779503
v -0.851310015 0.0405599996 0.96213901
v -0.769977987 0.0405599996 0.894205987
v -0.800324976 0.12454699 0.915104985
v -0.875537992 0.132058993 0.987679005
v -0.925701976 0.0405599996 1.03345096
v -0.800324976 -0.0217290036 0.915104985
v -0.73663801 0.0405599996 0.935088992
v -0.769977987 0.0405599996 0.894205987
v -0.76343298 -0.0362369977 0.957733989
v -0.875537992 -0.029240001 0.987679005
v -0.837182999 -0.043465998 1.025828
v -0.925701976 0.0405599996 1.03345096
v -0.884745002 0.0405599996 1.07779503
v -0.851310015 0.0405599996 0.96213901
v -0.800324976 -0.0217290036 0.915104985
v -0.769977987 0.0405599996 0.894205987
v -0.875537992 -0.029240001 0.987679005
v -0.925701976 0.0405599996 1.03345096
v -0.811600983 0.00688200071 1.26084995
v -0.926926017 0.0392620005 1.17672801
v -0.826641977 0.043012999 1.29763401
v -0.926926017 0.0392620005 1.17672801
v -0.781310976 -0.037897002 1.19031203
v -0.933501005 -0.018153999 1.01086998
v -0.683236003 -0.0942310095 1.09614599
v -0.824954987 -0.0592119955 0.965044022
v -0.713810027 -0.0568520017 1.03751898
v -0.77630198 -0.019454997 0.911001027
v -0.680764019 -0.0174120031 0.977611005
v -0.757319987 0.0456059985 0.888323009
v -0.654788971 0.0494409986 0.95571202
v -0.682219982 -0.0553680025 1.04708898
v -0.974385023 0.0374870002 1.01217496
v -0.926926017 0.0392620005 1.17672801
v -0.745118976 0.0460620001 1.21925604
v -0.781310976 -0.037897002 1.19031203
v -0.811600983 0.00688200071 1.26084995
v -0.826641977 0.043012999 1.29763401
v -0.974385023 0.0374870002 1.01217496
v -0.933501005 -0.018153999 1.01086998
v -0.861895978 0.0416940004 0.965689003
v -0.824954987 -0.0592119955 0.965044022
v -0.77630198 -0.019454997 0.911001027
v -0.757319987 0.0456059985 0.888323009
v -0.779094994 0.0447920002 1.18500698
v -0.781310976 -0.037897002 1.19031203
v -0.745118976 0.0460620001 1.21925604
v -0.718769014 0.0470479988 1.11893201
v -0.683236003 -0.0942310095 1.09614599
v -0.70539403 0.0475479998 1.04391098
v -0.682219982 -0.0553680025 1.04708898
v -0.713810027 -0.0568520017 1.03751898
v -0.680764019 -0.0174120031 0.977611005
v -0.654788971 0.0494409986 0.95571202
v -0.787560999 0.127079993 1.19031203
v -0.685765028 0.114164993 0.977611005
v -0.721665025 0.151025996 1.03751898
v -0.690051973 0.151905 1.04708898
v -0.693969011 0.190584004 1.09614599
v -0.814422011 0.0801640004 1.26084995
v -0.826641977 0.043012999 1.29763401
v -0.926926017 0.0392620005 1.17672801
v -0.926926017 0.0392620005 1.17672801
v -0.787560999 0.127079993 1.19031203
v -0.937851012 0.0960230008 1.01086998
v -0.693969011 0.190584004 1.09614599
v -0.832287014 0.149672002 0.965044022
v -0.721665025 0.151025996 1.03751898
v -0.781188011 0.109065004 0.911001027
v -0.685765028 0.114164993 0.977611005
v -0.757319987 0.0456059985 0.888323009
v -0.654788971 0.0494409986 0.95571202
v -0.690051973 0.151905 1.04708898
v -0.926926017 0.0392620005 1.17672801
v -0.974385023 0.0374870002 1.01217496
v -0.745118976 0.0460620001 1.21925604
v -0.814422011 0.0801640004 1.26084995
v -0.787560999 0.127079993 1.19031203
v -0.826641977 0.043012999 1.29763401
v -0.974385023 0.0374870002 1.01217496
v -0.861895978 0.0416940004 0.965689003
v -0.937851012 0.0960230008 1.01086998
v -0.832287014 0.149672002 0.965044022
v -0.781188011 0.109065004 0.911001027
v -0.757319987 0.0456059985 0.888323009
v -0.816688001 -0.00511400029 0.846122026
v -0.866348982 -0.0494430028 0.840551019
v -0.783128023 -0.00996600091 0.951381028
v -0.822178006 -0.0286460035 0.98466301
v -0.903205991 -0.0744830072 0.904864013
v -0.895066023 -0.0468540005 0.980531991
v -0.88440901 0.03235 0.815941989
v -0.767917991 0.0514700003 0.923339009
v -0.810274005 0.0415350012 0.820685029
v -0.958306015 -0.0336350016 0.839559972
v -0.990768015 -0.0161160044 0.934675992
v -0.995872021 0.0210549999 0.862433016
v -0.948490024 0.0242480002 0.808372021
v -1.01088595 0.0223999992 0.929830015
v -0.951062977 -0.00693799928 0.997506976
v -0.878035009 -0.0119110011 1.01190805
v -0.957113981 0.0319200009 0.994202018
v -1.01088595 0.0223999992 0.929830015
v -0.897603989 0.0403180011 1.01985395
v -0.88440901 0.03235 0.815941989
v -0.838349998 0.000782001764 1.056898
v -0.796523988 -0.019654002 1.03249002
v -0.855534017 0.0472740009 1.05973303
v -0.752488971 -0.000314000994 0.999879003
v -0.736136019 0.0578840002 0.978179991
v -0.88440901 0.03235 0.815941989
v -0.810274005 0.0415350012 0.820685029
v -0.828292012 0.0873700008 0.840861022
v -0.797518015 0.109803997 0.944683015
v -0.883388996 0.118423998 0.833450973
v -0.840102017 0.121678993 0.976732016
v -0.929205 0.139342993 0.894371986
v -0.915202022 0.121585995 0.972114027
v -0.88440901 0.03235 0.815941989
v -0.767917991 0.0514700003 0.923339009
v -0.810274005 0.0415350012 0.820685029
v -0.972584009 0.0806939974 0.833975971
v -1.00054502 0.0648719966 0.930804014
v -0.995872021 0.0210549999 0.862433016
v -0.948490024 0.0242480002 0.808372021
v -1.01088595 0.0223999992 0.929830015
v -0.960195005 0.071262002 0.993569016
v -0.890541971 0.0947569981 1.00628495
v -0.957113981 0.0319200009 0.994202018
v -1.01088595 0.0223999992 0.929830015
v -0.897603989 0.0403180011 1.01985395
v -0.88440901 0.03235 0.815941989
v -0.849261999 0.0960879996 1.05160904
v -0.813347995 0.123519003 1.02476597
v -0.855534017 0.0472740009 1.05973303
v -0.765770018 0.112251997 0.993366003
v -0.736136019 0.0578840002 0.978179991
v -0.88440901 0.03235 0.815941989
v -0.810274005 0.0415350012 0.820685029
v -0.638505995 0.0614049993 1.24595702
v -0.592988014 0.0614049993 1.14809
v -0.624692976 -0.0298590027 1.22526598
v -0.589271009 -0.0560650043 1.15167201
v -0.55005002 -0.0273179971 1.070508
v -0.546316028 0.0614049993 1.03757703
v -0.609400988 0.0614049993 0.990473986
v -0.695463002 0.0614049993 0.960790992
v -0.718739986 0.00573400036 0.990423024
v -0.789916992 -0.01382 1.071558
v -0.823705971 0.0614049993 1.13670194
v -0.752662003 -0.0531519987 1.18079102
v -0.650472999 -0.0552339964 1.06764305
v -0.718739986 0.00573400036 0.990423024
v -0.589271009 -0.0560650043 1.15167201
v -0.55005002 -0.0273179971 1.070508
v -0.609400988 0.0614049993 0.990473986
v -0.734211028 0.0614049993 1.22571301
v -0.638505995 0.0614049993 1.24595702
v -0.624692976 -0.0298590027 1.22526598
v -0.609400988 0.0614049993 0.990473986
v -0.55005002 -0.0273179971 1.070508
v -0.546316028 0.0614049993 1.03757703
v -0.638505995 0.0614049993 1.24595702
v -0.633731008 0.149433002 1.21306896
v -0.592988014 0.0614049993 1.14809
v -0.598309994 0.175639004 1.13947499
v -0.563551009 0.147946 1.07432103
v -0.546316028 0.0614049993 1.03757703
v -0.609400988 0.0614049993 0.990473986
v -0.650472999 0.178045005 1.06764305
v -0.718739986 0.117076993 0.990423024
v -0.789916992 0.136630997 1.071558
v -0.752662003 0.175962999 1.18079102
v -0.823705971 0.0614049993 1.13670194
v -0.598309994 0.175639004 1.13947499
v -0.563551009 0.147946 1.07432103
v -0.734211028 0.0614049993 1.22571301
v -0.638505995 0.0614049993 1.24595702
v -0.633731008 0.149433002 1.21306896
v -0.609400988 0.0614049993 0.990473986
v -0.546316028 0.0614049993 1.03757703
v -0.563551009 0.147946 1.07432103
v -0.609400988 0.0614049993 0.990473986
v -0.718739986 0.117076993 0.990423024
v -0.695463002 0.0614049993 0.960790992
v -0.568350017 -0.0270499997 1.14775002
v -0.559863985 -0.0143170021 1.21596599
v -0.525110006 -0.0456629954 1.15631402
v -0.596050024 -0.00485000014 1.19254994
v -0.492347986 -0.0156799965 1.11049998
v -0.536599994 -0.00189999864 1.10029995
v -0.483855993 0.0516260006 1.10190296
v -0.529100001 0.0511500016 1.09224999
v -0.498062998 0.149290994 1.115255
v -0.542011976 0.153960004 1.10560203
v -0.602612019 -0.036249999 1.13530099
v -0.572227001 -0.00679400191 1.07450604
v -0.633760989 -0.00530000031 1.18490005
v -0.563426971 0.0539060012 1.06450605
v -0.578110993 0.146850005 1.09895003
v -0.549167991 0.137475997 1.19665897
v -0.542011976 0.153960004 1.10560203
v -0.498062998 0.149290994 1.115255
v -0.588679016 0.132896006 1.18094099
v -0.606700003 0.0511500016 1.22064996
v -0.572338998 0.0516260006 1.25024796
v -0.559863985 -0.0143170021 1.21596599
v -0.596050024 -0.00485000014 1.19254994
v -0.633760989 -0.00530000031 1.18490005
v -0.642660975 0.0513999984 1.20990002
v -0.625765026 0.133146003 1.172616
v -0.578110993 0.146850005 1.09895003
v 0.800324976 0.12454699 0.915104985
v 0.73663801 0.0405599996 0.935088992
v 0.769977987 0.0405599996 0.894205987
v 0.76343298 0.117357999 0.957733989
v 0.875537992 0.132058993 0.987679005
v 0.837182999 0.124586001 1.025828
v 0.925701976 0.0405599996 1.03345096
v 0.884745002 0.0405599996 1.07779503
v 0.851310015 0.0405599996 0.96213901
v 0.800324976 0.12454699 0.915104985
v 0.769977987 0.0405599996 0.894205987
v 0.875537992 0.132058993 0.987679005
v 0.925701976 0.0405599996 1.03345096
v 0.800324976 -0.0217290036 0.915104985
v 0.73663801 0.0405599996 0.935088992
v 0.76343298 -0.0362369977 0.957733989
v 0.769977987 0.0405599996 0.894205987
v 0.875537992 -0.029240001 0.987679005
v 0.837182999 -0.043465998 1.025828
v 0.925701976 0.0405599996 1.03345096
v 0.884745002 0.0405599996 1.07779503
v 0.851310015 0.0405599996 0.96213901
v 0.769977987 0.0405599996 0.894205987
v 0.800324976 -0.0217290036 0.915104985
v 0.875537992 -0.029240001 0.987679005
v 0.925701976 0.0405599996 1.03345096
v 0.811600983 0.00688200071 1.26084995
v 0.826641977 0.043012999 1.29763401
v 0.926926017 0.0392620005 1.17672801
v 0.926926017 0.0392620005 1.17672801
v 0.781310976 -0.037897002 1.19031203
v 0.933501005 -0.018153999 1.01086998
v 0.683236003 -0.0942310095 1.09614599
v 0.824954987 -0.0592119955 0.965044022
v 0.713810027 -0.0568520017 1.03751898
v 0.77630198 -0.019454997 0.911001027
v 0.680764019 -0.0174120031 0.977611005
v 0.757319987 0.0456059985 0.888323009
v 0.654788971 0.0494409986 0.95571202
v 0.682219982 -0.0553680025 1.04708898
v 0.926926017 0.0392620005 1.17672801
v 0.974385023 0.0374870002 1.01217496
v 0.745118976 0.0460620001 1.21925604
v 0.811600983 0.00688200071 1.26084995
v 0.781310976 -0.037897002 1.19031203
v 0.826641977 0.043012999 1.29763401
v 0.974385023 0.0374870002 1.01217496
v 0.861895978 0.0416940004 0.965689003
v 0.933501005 -0.018153999 1.01086998
v 0.824954987 -0.0592119955 0.965044022
v 0.77630198 -0.019454997 0.911001027
v 0.757319987 0.0456059985 0.888323009
v 0.779094994 0.0447920002 1.18500698
v 0.745118976 0.0460620001 1.21925604
v 0.781310976 -0.037897002 1.19031203
v 0.718769014 0.0470479988 1.11893201
v 0.683236003 -0.0942310095 1.09614599
v 0.70539403 0.0475479998 1.04391098
v 0.682219982 -0.0553680025 1.04708898
v 0.713810027 -0.0568520017 1.03751898
v 0.680764019 -0.0174120031 0.977611005
v 0.654788971 0.0494409986 0.95571202
v 0.787560999 0.127079993 1.19031203
v 0.685765028 0.114164993 0.977611005
v 0.721665025 0.151025996 1.03751898
v 0.690051973 0.151905 1.04708898
v 0.693969011 0.190584004 1.09614599
v 0.814422011 0.0801640004 1.26084995
v 0.926926017 0.0392620005 1.17672801
v 0.826641977 0.043012999 1.29763401
v 0.926926017 0.0392620005 1.17672801
v 0.787560999 0.127079993 1.19031203
v 0.937851012 0.0960230008 1.01086998
v 0.693969011 0.190584004 1.09614599
v 0.832287014 0.149672002 0.965044022
v 0.721665025 0.151025996 1.03751898
v 0.781188011 0.109065004 0.911001027
v 0.685765028 0.114164993 0.977611005
v 0.757319987 0.0456059985 0.888323009
v 0.654788971 0.0494409986 0.95571202
v 0.690051973 0.151905 1.04708898
v 0.974385023 0.0374870002 1.01217496
v 0.926926017 0.0392620005 1.17672801
v 0.745118976 0.0460620001 1.21925604
v 0.787560999 0.127079993 1.19031203
v 0.814422011 0.0801640004 1.26084995
v 0.826641977 0.043012999 1.29763401
v 0.974385023 0.0374870002 1.01217496
v 0.937851012 0.0960230008 1.01086998
v 0.861895978 0.0416940004 0.965689003
v 0.832287014 0.149672002 0.965044022
v 0.781188011 0.109065004 0.911001027
v 0.757319987 0.0456059985 0.888323009
v 0.816688001 -0.00511400029 0.846122026
v 0.783128023 -0.00996600091 0.951381028
v 0.866348982 -0.0494430028 0.840551019
v 0.822178006 -0.0286460035 0.98466301
v 0.903205991 -0.0744830072 0.904864013
v 0.895066023 -0.0468540005 0.980531991
v 0.88440901 0.03235 0.815941989
v 0.767917991 0.0514700003 0.923339009
v 0.810274005 0.0415350012 0.820685029
v 0.958306015 -0.0336350016 0.839559972
v 0.990768015 -0.0161160044 0.934675992
v 0.995872021 0.0210549999 0.862433016
v 0.948490024 0.0242480002 0.808372021
v 1.01088595 0.0223999992 0.929830015
v 0.951062977 -0.00693799928 0.997506976
v 0.878035009 -0.0119110011 1.01190805
v 0.957113981 0.0319200009 0.994202018
v 1.01088595 0.0223999992 0.929830015
v 0.897603989 0.0403180011 1.01985395
v 0.88440901 0.03235 0.815941989
v 0.838349998 0.000782001764 1.056898
v 0.796523988 -0.019654002 1.03249002
v 0.855534017 0.0472740009 1.05973303
v 0.752488971 -0.000314000994 0.999879003
v 0.736136019 0.0578840002 0.978179991
v 0.88440901 0.03235 0.815941989
v 0.810274005 0.0415350012 0.820685029
v 0.828292012 0.0873700008 0.840861022
v 0.883388996 0.118423998 0.833450973
v 0.797518015 0.109803997 0.944683015
v 0.840102017 0.121678993 0.976732016
v 0.929205 0.139342993 0.894371986
v 0.915202022 0.121585995 0.972114027
v 0.88440901 0.03235 0.815941989
v 0.767917991 0.0514700003 0.923339009
v 0.810274005 0.0415350012 0.820685029
v 0.972584009 0.0806939974 0.833975971
v 1.00054502 0.0648719966 0.930804014
v 0.995872021 0.0210549999 0.862433016
v 0.948490024 0.0242480002 0.808372021
v 1.01088595 0.0223999992 0.929830015
v 0.960195005 0.071262002 0.993569016
v 0.890541971 0.0947569981 1.00628495
v 0.957113981 0.0319200009 0.994202018
v 1.01088595 0.0223999992 0.929830015
v 0.897603989 0.0403180011 1.01985395
v 0.88440901 0.03235 0.815941989
v 0.849261999 0.0960879996 1.05160904
v 0.813347995 0.123519003 1.02476597
v 0.855534017 0.0472740009 1.05973303
v 0.765770018 0.112251997 0.993366003
v 0.736136019 0.0578840002 0.978179991
v 0.88440901 0.03235 0.815941989
v 0.810274005 0.0415350012 0.820685029
v 0.638505995 0.0614049993 1.24595702
v 0.624692976 -0.0298590027 1.22526598
v 0.592988014 0.0614049993 1.14809
v 0.589271009 -0.0560650043 1.15167201
v 0.55005002 -0.0273179971 1.070508
v 0.546316028 0.0614049993 1.03757703
v 0.609400988 0.0614049993 0.990473986
v 0.718739986 0.00573400036 0.990423024
v 0.695463002 0.0614049993 0.960790992
v 0.789916992 -0.01382 1.071558
v 0.752662003 -0.0531519987 1.18079102
v 0.823705971 0.0614049993 1.13670194
v 0.650472999 -0.0552339964 1.06764305
v 0.718739986 0.00573400036 0.990423024
v 0.589271009 -0.0560650043 1.15167201
v 0.55005002 -0.0273179971 1.070508
v 0.609400988 0.0614049993 0.990473986
v 0.734211028 0.0614049993 1.22571301
v 0.638505995 0.0614049993 1.24595702
v 0.624692976 -0.0298590027 1.22526598
v 0.609400988 0.0614049993 0.990473986
v 0.546316028 0.0614049993 1.03757703
v 0.55005002 -0.0273179971 1.070508
v 0.638505995 0.0614049993 1.24595702
v 0.592988014 0.0614049993 1.14809
v 0.633731008 0.149433002 1.21306896
v 0.598309994 0.175639004 1.13947499
v 0.563551009 0.147946 1.07432103
v 0.546316028 0.0614049993 1.03757703
v 0.609400988 0.0614049993 0.990473986
v 0.718739986 0.117076993 0.990423024
v 0.650472999 0.178045005 1.06764305
v 0.789916992 0.136630997 1.071558
v 0.752662003 0.175962999 1.18079102
v 0.823705971 0.0614049993 1.13670194
v 0.598309994 0.175639004 1.13947499
v 0.563551009 0.147946 1.07432103
v 0.734211028 0.0614049993 1.22571301
v 0.638505995 0.0614049993 1.24595702
v 0.633731008 0.149433002 1.21306896
v 0.609400988 0.0614049993 0.990473986
v 0.563551009 0.147946 1.07432103
v 0.546316028 0.0614049993 1.03757703
v 0.609400988 0.0614049993 0.990473986
v 0.695463002 0.0614049993 0.960790992
v 0.718739986 0.117076993 0.990423024
v 0.568350017 -0.0270499997 1.14775002
v 0.559863985 -0.0143170021 1.21596599
v 0.596050024 -0.00485000014 1.19254994
v 0.525110006 -0.0456629954 1.15631402
v 0.492347986 -0.0156799965 1.11049998
v 0.536599994 -0.00189999864 1.10029995
v 0.483855993 0.0516260006 1.10190296
v 0.529100001 0.0511500016 1.09224999
v 0.498062998 0.149290994 1.115255
v 0.542011976 0.153960004 1.10560203
v 0.602612019 -0.036249999 1.13530099
v 0.572227001 -0.00679400191 1.07450604
v 0.633760989 -0.00530000031 1.18490005
v 0.563426971 0.0539060012 1.06450605
v 0.578110993 0.146850005 1.09895003
v 0.549167991 0.137475997 1.19665897
v 0.542011976 0.153960004 1.10560203
v 0.588679016 0.132896006 1.18094099
v 0.498062998 0.149290994 1.115255
v 0.606700003 0.0511500016 1.22064996
v 0.572338998 0.0516260006 1.25024796
v 0.559863985 -0.0143170021 1.21596599
v 0.596050024 -0.00485000014 1.19254994
v 0.633760989 -0.00530000031 1.18490005
v 0.642660975 0.0513999984 1.20990002
v 0.625765026 0.133146003 1.172616
v 0.578110993 0.146850005 1.09895003
vt 0.52640003 0.581799984
vt 0.358099997 0.474299997
vt 0.52640003 0.474299997
vt 0.358099997 0.581799984
vt 0.745400012 0.581799984
vt 0.745400012 0.474299997
vt 0.972100019 0.581799984
vt 0.972100019 0.474299997
vt 0.128600001 0.969799995
vt 0.0109999999 0.969799995
vt 0.0529999994 0.876699984
vt 0.169300005 0.880850017
vt 0.242899999 0.969799995
vt 0.52640003 0.581799984
vt 0.358099997 0.474299997
vt 0.358099997 0.581799984
vt 0.52640003 0.474299997
vt 0.745400012 0.581799984
vt 0.745400012 0.474299997
vt 0.972100019 0.581799984
vt 0.972100019 0.474299997
vt 0.128600001 0.969799995
vt 0.0529999994 0.876699984
vt 0.0109999999 0.969799995
vt 0.169300005 0.880850017
vt 0.242899999 0.969799995
vt 0.395700008 0.953599989
vt 0.459699988 0.81370002
vt 0.459699988 0.977699995
vt 0.459699988 0.81370002
vt 0.303232998 0.907944024
vt 0.38014999 0.622866988
vt 0.149700001 0.843299985
vt 0.245299995 0.639199972
vt 0.158600003 0.760299981
vt 0.169485003 0.590213001
vt 0.0907000005 0.707199991
vt 0.0967800021 0.541725993
vt 0.00870000012 0.66839999
vt 0.126800001 0.777999997
vt 0.459699988 0.614117026
vt 0.459699988 0.81370002
vt 0.0144999996 0.206149995
vt 0.122299999 0.202399999
vt 0.0653000027 0.285100013
vt 0.0144999996 0.325300008
vt 0.297300011 0.343199998
vt 0.247549996 0.397199988
vt 0.161599994 0.341899991
vt 0.130600005 0.454750001
vt 0.050999999 0.416799992
vt 0.0164999999 0.34040001
vt 0.221002996 0.220091
vt 0.152520999 0.224162996
vt 0.219729006 0.254464
vt 0.223026007 0.164438993
vt 0.105742998 0.145425007
vt 0.225512996 0.0965830013
vt 0.139503002 0.10069
vt 0.139684007 0.089211002
vt 0.173186004 0.0372049995
vt 0.228317007 0.0197609998
vt 0.289162993 0.224873006
vt 0.282164991 0.037769001
vt 0.311859012 0.090106003
vt 0.311176002 0.101582997
vt 0.341639996 0.146653995
vt 0.395700008 0.953599989
vt 0.459699988 0.977699995
vt 0.459699988 0.81370002
vt 0.459699988 0.81370002
vt 0.303232998 0.907944024
vt 0.38014999 0.622866988
vt 0.149700001 0.843299985
vt 0.245299995 0.639199972
vt 0.158600003 0.760299981
vt 0.169485003 0.590213001
vt 0.0907000005 0.707199991
vt 0.0967800021 0.541725993
vt 0.00870000012 0.66839999
vt 0.126800001 0.777999997
vt 0.459699988 0.81370002
vt 0.459699988 0.614117026
vt 0.0144999996 0.206149995
vt 0.0653000027 0.285100013
vt 0.122299999 0.202399999
vt 0.0144999996 0.325300008
vt 0.297300011 0.343199998
vt 0.161599994 0.341899991
vt 0.247549996 0.397199988
vt 0.130600005 0.454750001
vt 0.050999999 0.416799992
vt 0.0164999999 0.34040001
vt 0.906700015 0.776899993
vt 0.837499976 0.736750007
vt 0.86014998 0.905300021
vt 0.787400007 0.915199995
vt 0.765100002 0.782525003
vt 0.718200028 0.859300017
vt 0.875999987 0.666000009
vt 0.944299996 0.903400004
vt 0.972299993 0.778100014
vt 0.751450002 0.70389998
vt 0.642199993 0.757700026
vt 0.685199976 0.658500016
vt 0.783800006 0.6329
vt 0.612299979 0.710699975
vt 0.639199972 0.844900012
vt 0.695349991 0.909200013
vt 0.595700026 0.852299988
vt 0.589699984 0.755100012
vt 0.619199991 0.924099982
vt 0.875999987 0.666000009
vt 0.702049971 0.975199997
vt 0.779299974 0.974300027
vt 0.629000008 0.984899998
vt 0.85680002 0.969699979
vt 0.93779999 0.973800004
vt 0.875999987 0.666000009
vt 0.957099974 0.726499975
vt 0.906700015 0.776899993
vt 0.86014998 0.905300021
vt 0.837499976 0.736750007
vt 0.787400007 0.915199995
vt 0.765100002 0.782525003
vt 0.718200028 0.859300017
vt 0.875999987 0.666000009
vt 0.944299996 0.903400004
vt 0.972299993 0.778100014
vt 0.751450002 0.70389998
vt 0.642199993 0.757700026
vt 0.685199976 0.658500016
vt 0.783800006 0.6329
vt 0.612299979 0.710699975
vt 0.639199972 0.844900012
vt 0.695349991 0.909200013
vt 0.595700026 0.852299988
vt 0.589699984 0.755100012
vt 0.619199991 0.924099982
vt 0.875999987 0.666000009
vt 0.702049971 0.975199997
vt 0.779299974 0.974300027
vt 0.629000008 0.984899998
vt 0.85680002 0.969699979
vt 0.93779999 0.973800004
vt 0.875999987 0.666000009
vt 0.957099974 0.726499975
vt 0.132200003 0.560299993
vt 0.228799999 0.560299993
vt 0.159299999 0.479999989
vt 0.232299998 0.45570001
vt 0.298900008 0.479900002
vt 0.325800002 0.560299993
vt 0.358099997 0.162349999
vt 0.358099997 0.368999988
vt 0.52640003 0.368999988
vt 0.745400012 0.368999988
vt 0.972100019 0.368999988
vt 0.824500024 0.162349999
vt 0.596350014 0.162349999
vt 0.52640003 0.368999988
vt 0.666299999 0.0199999996
vt 0.52640003 0.0199999996
vt 0.358099997 0.162349999
vt 0.972100019 0.162349999
vt 0.972100019 0.0199999996
vt 0.824500024 0.0199999996
vt 0.358099997 0.162349999
vt 0.52640003 0.0199999996
vt 0.358099997 0.0199999996
vt 0.132200003 0.560299993
vt 0.159299999 0.479999989
vt 0.228799999 0.560299993
vt 0.232299998 0.45570001
vt 0.298900008 0.479900002
vt 0.325800002 0.560299993
vt 0.358099997 0.162349999
vt 0.596350014 0.162349999
vt 0.52640003 0.368999988
vt 0.745400012 0.368999988
vt 0.824500024 0.162349999
vt 0.972100019 0.368999988
vt 0.666299999 0.0199999996
vt 0.52640003 0.0199999996
vt 0.972100019 0.162349999
vt 0.972100019 0.0199999996
vt 0.824500024 0.0199999996
vt 0.358099997 0.162349999
vt 0.358099997 0.0199999996
vt 0.52640003 0.0199999996
vt 0.358099997 0.162349999
vt 0.52640003 0.368999988
vt 0.358099997 0.368999988
vt 0.528789997 0.251392007
vt 0.486247987 0.312115997
vt 0.486202002 0.251379013
vt 0.528789997 0.312115997
vt 0.486155987 0.189769998
vt 0.52879101 0.189800993
vt 0.486247987 0.134975001
vt 0.52879101 0.135009006
vt 0.486249 0.0547920018
vt 0.52879101 0.0547920018
vt 0.563408017 0.251405001
vt 0.563408971 0.189833
vt 0.563408017 0.31260401
vt 0.563408971 0.135041997
vt 0.563408971 0.0547920018
vt 0.486155987 0.211447001
vt 0.52879101 0.0948830023
vt 0.486249 0.0948830023
vt 0.528753996 0.211463004
vt 0.528789997 0.269634992
vt 0.486247987 0.269634992
vt 0.486247987 0.312115997
vt 0.528789997 0.312115997
vt 0.563408017 0.31260401
vt 0.563408017 0.269636005
vt 0.56340301 0.211477995
vt 0.563408971 0.0948830023
vt 0.52640003 0.581799984
vt 0.358099997 0.474299997
vt 0.358099997 0.581799984
vt 0.52640003 0.474299997
vt 0.745400012 0.581799984
vt 0.745400012 0.474299997
vt 0.972100019 0.581799984
vt 0.972100019 0.474299997
vt 0.128600001 0.969799995
vt 0.0529999994 0.876699984
vt 0.0109999999 0.969799995
vt 0.169300005 0.880850017
vt 0.242899999 0.969799995
vt 0.52640003 0.581799984
vt 0.358099997 0.474299997
vt 0.52640003 0.474299997
vt 0.358099997 0.581799984
vt 0.745400012 0.581799984
vt 0.745400012 0.474299997
vt 0.972100019 0.581799984
vt 0.972100019 0.474299997
vt 0.128600001 0.969799995
vt 0.0109999999 0.969799995
vt 0.0529999994 0.876699984
vt 0.169300005 0.880850017
vt 0.242899999 0.969799995
vt 0.395700008 0.953599989
vt 0.459699988 0.977699995
vt 0.459699988 0.81370002
vt 0.459699988 0.81370002
vt 0.303232998 0.907944024
vt 0.38014999 0.622866988
vt 0.149700001 0.843299985
vt 0.245299995 0.639199972
vt 0.158600003 0.760299981
vt 0.169485003 0.590213001
vt 0.0907000005 0.707199991
vt 0.0967800021 0.541725993
vt 0.00870000012 0.66839999
vt 0.126800001 0.777999997
vt 0.459699988 0.81370002
vt 0.459699988 0.614117026
vt 0.0144999996 0.206149995
vt 0.0653000027 0.285100013
vt 0.122299999 0.202399999
vt 0.0144999996 0.325300008
vt 0.297300011 0.343199998
vt 0.161599994 0.341899991
vt 0.247549996 0.397199988
vt 0.130600005 0.454750001
vt 0.050999999 0.416799992
vt 0.0164999999 0.34040001
vt 0.221002996 0.220091
vt 0.219729006 0.254464
vt 0.152520999 0.224162996
vt 0.223026007 0.164438993
vt 0.105742998 0.145425007
vt 0.225512996 0.0965830013
vt 0.139503002 0.10069
vt 0.139684007 0.089211002
vt 0.173186004 0.0372049995
vt 0.228317007 0.0197609998
vt 0.289162993 0.224873006
vt 0.282164991 0.037769001
vt 0.311859012 0.090106003
vt 0.311176002 0.101582997
vt 0.341639996 0.146653995
vt 0.395700008 0.953599989
vt 0.459699988 0.81370002
vt 0.459699988 0.977699995
vt 0.459699988 0.81370002
vt 0.303232998 0.907944024
vt 0.38014999 0.622866988
vt 0.149700001 0.843299985
vt 0.245299995 0.639199972
vt 0.158600003 0.760299981
vt 0.169485003 0.590213001
vt 0.0907000005 0.707199991
vt 0.0967800021 0.541725993
vt 0.00870000012 0.66839999
vt 0.126800001 0.777999997
vt 0.459699988 0.614117026
vt 0.459699988 0.81370002
vt 0.0144999996 0.206149995
vt 0.122299999 0.202399999
vt 0.0653000027 0.285100013
vt 0.0144999996 0.325300008
vt 0.297300011 0.343199998
vt 0.247549996 0.397199988
vt 0.161599994 0.341899991
vt 0.130600005 0.454750001
vt 0.050999999 0.416799992
vt 0.0164999999 0.34040001
vt 0.906700015 0.776899993
vt 0.86014998 0.905300021
vt 0.837499976 0.736750007
vt 0.787400007 0.915199995
vt 0.765100002 0.782525003
vt 0.718200028 0.859300017
vt 0.875999987 0.666000009
vt 0.944299996 0.903400004
vt 0.972299993 0.778100014
vt 0.751450002 0.70389998
vt 0.642199993 0.757700026
vt 0.685199976 0.658500016
vt 0.783800006 0.6329
vt 0.612299979 0.710699975
vt 0.639199972 0.844900012
vt 0.695349991 0.909200013
vt 0.595700026 0.852299988
vt 0.589699984 0.755100012
vt 0.619199991 0.924099982
vt 0.875999987 0.666000009
vt 0.702049971 0.975199997
vt 0.779299974 0.974300027
vt 0.629000008 0.984899998
vt 0.85680002 0.969699979
vt 0.93779999 0.973800004
vt 0.875999987 0.666000009
vt 0.957099974 0.726499975
vt 0.906700015 0.776899993
vt 0.837499976 0.736750007
vt 0.86014998 0.905300021
vt 0.787400007 0.915199995
vt 0.765100002 0.782525003
vt 0.718200028 0.859300017
vt 0.875999987 0.666000009
vt 0.944299996 0.903400004
vt 0.972299993 0.778100014
vt 0.751450002 0.70389998
vt 0.642199993 0.757700026
vt 0.685199976 0.658500016
vt 0.783800006 0.6329
vt 0.612299979 0.710699975
vt 0.639199972 0.844900012
vt 0.695349991 0.909200013
vt 0.595700026 0.852299988
vt 0.589699984 0.755100012
vt 0.619199991 0.924099982
vt 0.875999987 0.666000009
vt 0.702049971 0.975199997
vt 0.779299974 0.974300027
vt 0.629000008 0.984899998
vt 0.85680002 0.969699979
vt 0.93779999 0.973800004
vt 0.875999987 0.666000009
vt 0.957099974 0.726499975
vt 0.132200003 0.560299993
vt 0.159299999 0.479999989
vt 0.228799999 0.560299993
vt 0.232299998 0.45570001
vt 0.298900008 0.479900002
vt 0.325800002 0.560299993
vt 0.358099997 0.162349999
vt 0.52640003 0.368999988
vt 0.358099997 0.368999988
vt 0.745400012 0.368999988
vt 0.824500024 0.162349999
vt 0.972100019 0.368999988
vt 0.596350014 0.162349999
vt 0.52640003 0.368999988
vt 0.666299999 0.0199999996
vt 0.52640003 0.0199999996
vt 0.358099997 0.162349999
vt 0.972100019 0.162349999
vt 0.972100019 0.0199999996
vt 0.824500024 0.0199999996
vt 0.358099997 0.162349999
vt 0.358099997 0.0199999996
vt 0.52640003 0.0199999996
vt 0.132200003 0.560299993
vt 0.228799999 0.560299993
vt 0.159299999 0.479999989
vt 0.232299998 0.45570001
vt 0.298900008 0.479900002
vt 0.325800002 0.560299993
vt 0.358099997 0.162349999
vt 0.52640003 0.368999988
vt 0.596350014 0.162349999
vt 0.745400012 0.368999988
vt 0.824500024 0.162349999
vt 0.972100019 0.368999988
vt 0.666299999 0.0199999996
vt 0.52640003 0.0199999996
vt 0.972100019 0.162349999
vt 0.972100019 0.0199999996
vt 0.824500024 0.0199999996
vt 0.358099997 0.162349999
vt 0.52640003 0.0199999996
vt 0.358099997 0.0199999996
vt 0.358099997 0.162349999
vt 0.358099997 0.368999988
vt 0.52640003 0.368999988
vt 0.528789997 0.251392007
vt 0.486247987 0.312115997
vt 0.528789997 0.312115997
vt 0.486202002 0.251379013
vt 0.486155987 0.189769998
vt 0.52879101 0.189800993
vt 0.486247987 0.134975001
vt 0.52879101 0.135009006
vt 0.486249 0.0547920018
vt 0.52879101 0.0547920018
vt 0.563408017 0.251405001
vt 0.563408971 0.189833
vt 0.563408017 0.31260401
vt 0.563408971 0.135041997
vt 0.563408971 0.0547920018
vt 0.486155987 0.211447001
vt 0.52879101 0.0948830023
vt 0.528753996 0.211463004
vt 0.486249 0.0948830023
vt 0.528789997 0.269634992
vt 0.486247987 0.269634992
vt 0.486247987 0.312115997
vt 0.528789997 0.312115997
vt 0.563408017 0.31260401
vt 0.563408017 0.269636005
vt 0.56340301 0.211477995
vt 0.563408971 0.0948830023
vn -0.0450308025 0.673312783 -0.737985194
vn 0.714112163 0.405779898 -0.570426524
vn 0.510453105 0.804004371 -0.304982901
vn 0.202731326 0.304815859 -0.930584431
vn -0.627883255 0.760336995 -0.166283503
vn -0.226097673 0.899700224 0.373389035
vn -0.827846229 0.550773025 0.106394157
vn -0.563755035 0.641137838 0.520694256
vn -0.678539753 0.0014862048 -0.734562159
vn 0.202731326 0.304815859 -0.930584431
vn -0.0450308025 0.673312783 -0.737985194
vn -0.627883255 0.760336995 -0.166283503
vn -0.827846229 0.550773025 0.106394157
vn -0.135498241 -0.573716581 -0.807768166
vn 0.647376776 -0.469210744 -0.600620151
vn 0.218087107 -0.404276013 -0.888256073
vn 0.247237727 -0.830374539 -0.499351144
vn -0.679623127 -0.661551416 -0.316957712
vn -0.385842115 -0.918904662 0.0820976049
vn -0.809566081 -0.579342246 0.0946854502
vn -0.563754976 -0.641137838 0.520694196
vn -0.68089968 -0.00525440695 -0.73235774
vn -0.135498241 -0.573716581 -0.807768166
vn 0.218087107 -0.404276013 -0.888256073
vn -0.679623127 -0.661551416 -0.316957712
vn -0.809566081 -0.579342246 0.0946854502
vn 0.0747235641 -0.759218812 0.646531701
vn -0.864380598 -0.0325043872 0.501786411
vn -0.124082528 -0.00471609319 0.992260754
vn -0.864380598 -0.0325043872 0.501786411
vn 0.222905934 -0.796127796 0.562577605
vn -0.626457095 -0.70023638 -0.342374921
vn 0.643113852 -0.734082699 0.218007475
vn -0.29640314 -0.81230396 -0.502302051
vn 0.509713531 -0.611250877 -0.605445802
vn -0.0550147295 -0.553909719 -0.830757201
vn 0.807027459 -0.564116478 -0.174583435
vn 0.075495638 0.00289915106 -0.997141898
vn 0.954310656 0.0360683873 -0.296631545
vn 0.81134516 -0.221406579 -0.541015744
vn -0.933700264 -0.0353147313 -0.356309742
vn -0.864380598 -0.0325043872 0.501786411
vn 0.994108081 0.0375772305 0.101670869
vn 0.222905934 -0.796127796 0.562577605
vn 0.0747235641 -0.759218812 0.646531701
vn -0.124082528 -0.00471609319 0.992260754
vn -0.933700264 -0.0353147313 -0.356309742
vn -0.626457095 -0.70023638 -0.342374921
vn -0.512286901 -0.0206953119 -0.858565032
vn -0.29640314 -0.81230396 -0.502302051
vn -0.0550147295 -0.553909719 -0.830757201
vn 0.075495638 0.00289915106 -0.997141898
vn 0.999250591 0.0378688797 0.00800449774
vn 0.222905934 -0.796127796 0.562577605
vn 0.994108081 0.0375772305 0.101670869
vn 0.870225549 0.0328312889 0.491558343
vn 0.643113852 -0.734082699 0.218007475
vn 0.972908616 0.0367747396 0.228246272
vn 0.81134516 -0.221406579 -0.541015744
vn 0.509713531 -0.611250877 -0.605445802
vn 0.807027459 -0.564116478 -0.174583435
vn 0.954310656 0.0360683873 -0.296631545
vn 0.162446022 0.810708523 0.562461436
vn 0.762275696 0.623241425 -0.174659252
vn 0.47807309 0.636554301 -0.605181575
vn 0.792293429 0.281736612 -0.541198134
vn 0.588057637 0.777953207 0.221307665
vn 0.017041631 0.762851655 0.646349013
vn -0.124082528 -0.00471609319 0.992260754
vn -0.864380598 -0.0325043872 0.501786411
vn -0.864380598 -0.0325043872 0.501786411
vn 0.162446022 0.810708523 0.562461436
vn -0.681377053 0.647791386 -0.340722322
vn 0.588057637 0.777953207 0.221307665
vn -0.345965356 0.798429072 -0.492766738
vn 0.47807309 0.636554301 -0.605181575
vn -0.0909543782 0.538410246 -0.837759912
vn 0.762275696 0.623241425 -0.174659252
vn 0.075495638 0.00289915106 -0.997141898
vn 0.954310656 0.0360683873 -0.296631545
vn 0.792293429 0.281736612 -0.541198134
vn -0.864380598 -0.0325043872 0.501786411
vn -0.933700264 -0.0353147313 -0.356309742
vn 0.994108081 0.0375772305 0.101670869
vn 0.017041631 0.762851655 0.646349013
vn 0.162446022 0.810708523 0.562461436
vn -0.124082528 -0.00471609319 0.992260754
vn -0.933700264 -0.0353147313 -0.356309742
vn -0.512286901 -0.0206953119 -0.858565032
vn -0.681377053 0.647791386 -0.340722322
vn -0.345965356 0.798429072 -0.492766738
vn -0.0909543782 0.538410246 -0.837759912
vn 0.075495638 0.00289915106 -0.997141898
vn 0.640987396 -0.502113938 -0.580531418
vn 0.280976623 -0.723292708 -0.630792916
vn 0.671851516 -0.708194852 -0.216969147
vn 0.238148972 -0.952365518 0.190485865
vn -0.0554595925 -0.998433411 0.00741333701
vn -0.102049649 -0.840515435 0.532089949
vn 0.0866397172 -0.0363156497 -0.995577574
vn 0.898977101 0.0856722668 -0.429535061
vn 0.566595852 0.0260216855 -0.823584974
vn -0.486588836 -0.645555258 -0.588633716
vn -0.757511258 -0.606678247 0.241077214
vn -0.914685667 -0.131126419 -0.382303387
vn -0.253217727 -0.0778101012 -0.964275122
vn -0.97288537 -0.107759111 0.20465073
vn -0.541320741 -0.405683428 0.736473262
vn -0.231674343 -0.620112777 0.749524593
vn -0.63570559 -0.0362427756 0.771080375
vn -0.97288537 -0.107759111 0.20465073
vn -0.497414291 -0.0125692477 0.867422044
vn 0.0866397172 -0.0363156497 -0.995577574
vn -0.447498798 -0.692075849 0.566370785
vn 0.0445206314 -0.985872209 0.161474288
vn -0.684057832 -0.0387495309 0.728397727
vn 0.649522126 -0.714138865 -0.261010766
vn 0.856260717 0.0722777098 -0.511462092
vn 0.0866397172 -0.0363156497 -0.995577574
vn 0.566595852 0.0260216855 -0.823584974
vn 0.511151195 0.572068095 -0.641453564
vn 0.491129637 0.821349323 -0.290132821
vn 0.122159064 0.712395728 -0.691063941
vn 0.00360898324 0.994888365 0.100916132
vn -0.2964544 0.951228678 -0.0853151083
vn -0.302540511 0.837865055 0.454369277
vn 0.0866397172 -0.0363156497 -0.995577574
vn 0.898977101 0.0856722668 -0.429535061
vn 0.566595852 0.0260216855 -0.823584974
vn -0.61865294 0.45386076 -0.641310394
vn -0.882034361 0.429246575 0.194326207
vn -0.914685667 -0.131126419 -0.382303387
vn -0.253217727 -0.0778101012 -0.964275122
vn -0.97288537 -0.107759111 0.20465073
vn -0.626997828 0.33736977 0.702179074
vn -0.376545459 0.618093669 0.690053403
vn -0.63570559 -0.0362427756 0.771080375
vn -0.97288537 -0.107759111 0.20465073
vn -0.497414291 -0.0125692477 0.867422044
vn 0.0866397172 -0.0363156497 -0.995577574
vn -0.600929081 0.621043682 0.503178895
vn -0.192433491 0.978832603 0.0696862862
vn -0.684057832 -0.0387495309 0.728397727
vn 0.468361557 0.815789878 -0.339299828
vn 0.856260717 0.0722777098 -0.511462092
vn 0.0866397172 -0.0363156497 -0.995577574
vn 0.566595852 0.0260216855 -0.823584974
vn 0.369025111 0.0536983348 0.927866876
vn 0.905986309 0.0576523282 0.419362545
vn 0.401801795 -0.477324218 0.781483769
vn 0.629336536 -0.718615592 0.295850009
vn 0.836658299 -0.53713882 -0.107167259
vn 0.916119933 0.105047263 0.386896968
vn 0.274686813 -0.538761497 -0.796418965
vn 0.274686784 -0.538761497 -0.796418965
vn 0.274686813 -0.538761497 -0.796418965
vn -0.553111553 -0.815340221 -0.171137378
vn -0.888322294 0 0.459220588
vn -0.480372399 -0.75939399 0.438819975
vn 0.0469662361 -0.905294001 -0.422181129
vn 0.0108022681 -0.78014642 -0.6255036
vn 0.629336536 -0.718615592 0.295850009
vn 0.836658299 -0.53713882 -0.107167259
vn 0.334684461 -0.0172846932 -0.942171693
vn -0.429410458 0 0.903109431
vn 0.369025111 0.0536983348 0.927866876
vn 0.401801795 -0.477324218 0.781483769
vn 0.569392681 -0.307009429 -0.762585819
vn 0.569392681 -0.307009459 -0.762585819
vn 0.569392622 -0.307009429 -0.762585819
vn 0.369025111 0.0536983348 0.927866876
vn 0.415873766 0.535594285 0.734974623
vn 0.902233422 0.0692486167 0.425651878
vn 0.608510613 0.742661357 0.27958709
vn 0.826329052 0.556214809 -0.0883490145
vn 0.921063006 0.0182763636 0.388984591
vn 0.334684461 -0.0172846932 -0.942171693
vn 0.07834512 0.907054722 -0.413659155
vn 0.0108048376 0.780145288 -0.625505149
vn -0.55311358 0.815339088 -0.171136305
vn -0.459839314 0.766145587 0.44896397
vn -0.888322294 0 0.459220588
vn 0.608510613 0.742661357 0.27958709
vn 0.826329052 0.556214809 -0.0883490145
vn -0.429410458 0 0.903109431
vn 0.369025111 0.0536983348 0.927866876
vn 0.415873766 0.535594285 0.734974623
vn 0.543668509 0.417428136 -0.72813338
vn 0.543668509 0.417428166 -0.7281335
vn 0.543668449 0.417428106 -0.72813338
vn 0.274688214 0.538754702 -0.796423078
vn 0.274688214 0.538754702 -0.796423078
vn 0.274688214 0.538754702 -0.796423078
vn -0.074618578 -0.996963203 -0.0222773626
vn -0.506821334 -0.724832833 0.466636419
vn -0.31734702 -0.889051795 -0.329966247
vn -0.312736213 -0.748498857 0.584761083
vn 0.00792918168 -0.52282995 -0.852400124
vn 0.276831239 -0.601180851 -0.74963069
vn 0.201912448 -0.000123333724 -0.979403555
vn 0.423169702 -0.0152340755 -0.905922353
vn 0.219390094 0.691838682 -0.687915146
vn 0.11679922 0.850252151 -0.51325351
vn 0.184445545 -0.963588893 0.193588004
vn 0.510940075 -0.628480136 -0.586474955
vn -0.133927986 -0.675079942 0.725486219
vn 0.577766836 0.00940606371 -0.816147685
vn -0.0797420368 0.866270125 -0.493170619
vn -0.280465394 0.833039045 0.476849198
vn 0.11679922 0.850252151 -0.51325351
vn 0.219390094 0.691838682 -0.687915146
vn -0.21320565 0.795844078 0.566723585
vn -0.455140501 0.021382235 0.890162945
vn -0.652152002 0.0527604707 0.756250024
vn -0.506821334 -0.724832833 0.466636419
vn -0.312736213 -0.748498857 0.584761083
vn -0.133927986 -0.675079942 0.725486219
vn -0.286355197 0.00739383465 0.958095074
vn -0.172305375 0.749331474 0.639384925
vn -0.0797420368 0.866270125 -0.493170619
vn 0.0450308062 0.673312843 -0.737985194
vn -0.757650018 -0.0355208293 -0.651693642
vn -0.224941 -0.0464373529 -0.973265231
vn -0.510453105 0.804004371 -0.304982871
vn 0.627883255 0.760336995 -0.166283503
vn 0.226097718 0.899700165 0.373389035
vn 0.992412031 -0.0162338298 0.121880464
vn 0.734605372 0 0.678494632
vn 0.679724514 -0.00188403577 -0.733465075
vn 0.0450308062 0.673312843 -0.737985194
vn -0.224941 -0.0464373529 -0.973265231
vn 0.627883255 0.760336995 -0.166283503
vn 0.992412031 -0.0162338298 0.121880464
vn 0.135498226 -0.57371664 -0.807768166
vn -0.757650018 -0.0355208293 -0.651693642
vn -0.247237727 -0.830374539 -0.499351293
vn -0.224941 -0.0464373529 -0.973265231
vn 0.679623067 -0.661551416 -0.316957742
vn 0.385842115 -0.918904662 0.0820975602
vn 0.992412031 -0.0162338298 0.121880464
vn 0.734605372 0 0.678494632
vn 0.679724514 -0.00188403577 -0.733465075
vn -0.224941 -0.0464373529 -0.973265231
vn 0.135498226 -0.57371664 -0.807768166
vn 0.679623067 -0.661551416 -0.316957742
vn 0.992412031 -0.0162338298 0.121880464
vn -0.074723646 -0.759218752 0.646531701
vn 0.124082528 -0.00471606664 0.992260754
vn 0.864380598 -0.0325043947 0.501786411
vn 0.864380598 -0.0325043947 0.501786411
vn -0.222905979 -0.796127796 0.562577605
vn 0.626457095 -0.70023638 -0.342374921
vn -0.643113852 -0.734082699 0.218007475
vn 0.29640311 -0.81230396 -0.502301991
vn -0.509713471 -0.611250818 -0.605445862
vn 0.0550147071 -0.553909659 -0.830757082
vn -0.807027459 -0.564116478 -0.174583465
vn -0.0754956082 0.00289912312 -0.997141898
vn -0.954310656 0.0360683873 -0.296631545
vn -0.81134516 -0.221406579 -0.541015804
vn 0.864380598 -0.0325043947 0.501786411
vn 0.933700264 -0.0353147686 -0.356309742
vn -0.994108081 0.0375772342 0.101670966
vn -0.074723646 -0.759218752 0.646531701
vn -0.222905979 -0.796127796 0.562577605
vn 0.124082528 -0.00471606664 0.992260754
vn 0.933700264 -0.0353147686 -0.356309742
vn 0.512286723 -0.0206953026 -0.858565032
vn 0.626457095 -0.70023638 -0.342374921
vn 0.29640311 -0.81230396 -0.502301991
vn 0.0550147071 -0.553909659 -0.830757082
vn -0.0754956082 0.00289912312 -0.997141898
vn -0.999250591 0.0378688984 0.00800454896
vn -0.994108081 0.0375772342 0.101670966
vn -0.222905979 -0.796127796 0.562577605
vn -0.870225549 0.0328313038 0.491558403
vn -0.643113852 -0.734082699 0.218007475
vn -0.972908616 0.0367747471 0.228246287
vn -0.81134516 -0.221406579 -0.541015804
vn -0.509713471 -0.611250818 -0.605445862
vn -0.807027459 -0.564116478 -0.174583465
vn -0.954310656 0.0360683873 -0.296631545
vn -0.162446052 0.810708523 0.562461436
vn -0.762275636 0.623241425 -0.174659237
vn -0.478073031 0.63655436 -0.605181634
vn -0.792293429 0.281736612 -0.541198134
vn -0.588057578 0.777953207 0.221307635
vn -0.017041631 0.762851655 0.646349013
vn 0.864380598 -0.0325043947 0.501786411
vn 0.124082528 -0.00471606664 0.992260754
vn 0.864380598 -0.0325043947 0.501786411
vn -0.162446052 0.810708523 0.562461436
vn 0.681377053 0.647791386 -0.340722263
vn -0.588057578 0.777953207 0.221307635
vn 0.345965356 0.798429072 -0.492766738
vn -0.478073031 0.63655436 -0.605181634
vn 0.0909544155 0.538410306 -0.837759912
vn -0.762275636 0.623241425 -0.174659237
vn -0.0754956082 0.00289912312 -0.997141898
vn -0.954310656 0.0360683873 -0.296631545
vn -0.792293429 0.281736612 -0.541198134
vn 0.933700264 -0.0353147686 -0.356309742
vn 0.864380598 -0.0325043947 0.501786411
vn -0.994108081 0.0375772342 0.101670966
vn -0.162446052 0.810708523 0.562461436
vn -0.017041631 0.762851655 0.646349013
vn 0.124082528 -0.00471606664 0.992260754
vn 0.933700264 -0.0353147686 -0.356309742
vn 0.681377053 0.647791386 -0.340722263
vn 0.512286723 -0.0206953026 -0.858565032
vn 0.345965356 0.798429072 -0.492766738
vn 0.0909544155 0.538410306 -0.837759912
vn -0.0754956082 0.00289912312 -0.997141898
vn -0.640987337 -0.502113998 -0.580531478
vn -0.671851397 -0.708194852 -0.216969147
vn -0.280976593 -0.723292708 -0.630792916
vn -0.238148913 -0.952365518 0.190485835
vn 0.0554596074 -0.998433411 0.00741334306
vn 0.102049649 -0.840515435 0.532089949
vn -0.0866397098 -0.0363156348 -0.995577574
vn -0.898977101 0.0856722891 -0.429535061
vn -0.566595852 0.0260216855 -0.823584974
vn 0.486588836 -0.645555317 -0.588633657
vn 0.757511258 -0.606678247 0.241077214
vn 0.914685667 -0.131126434 -0.382303387
vn 0.253217727 -0.0778101236 -0.964275122
vn 0.97288537 -0.107759133 0.204650745
vn 0.541320741 -0.405683368 0.736473262
vn 0.231674328 -0.620112777 0.749524593
vn 0.63570559 -0.0362427458 0.771080375
vn 0.97288537 -0.107759133 0.204650745
vn 0.497414291 -0.0125692394 0.867422044
vn -0.0866397098 -0.0363156348 -0.995577574
vn 0.447498798 -0.692075789 0.566370726
vn -0.0445206054 -0.985872209 0.161474273
vn 0.684057832 -0.0387495421 0.728397727
vn -0.649522066 -0.714138925 -0.261010796
vn -0.856260717 0.0722776875 -0.511462152
vn -0.0866397098 -0.0363156348 -0.995577574
vn -0.566595852 0.0260216855 -0.823584974
vn -0.511151135 0.572068095 -0.641453564
vn -0.122159027 0.712395728 -0.691064
vn -0.491129637 0.821349323 -0.29013291
vn -0.00360898837 0.994888365 0.100916147
vn 0.2964544 0.951228678 -0.0853150859
vn 0.302540511 0.837865055 0.454369277
vn -0.0866397098 -0.0363156348 -0.995577574
vn -0.898977101 0.0856722891 -0.429535061
vn -0.566595852 0.0260216855 -0.823584974
vn 0.61865294 0.45386073 -0.641310334
vn 0.882034361 0.429246575 0.194326222
vn 0.914685667 -0.131126434 -0.382303387
vn 0.253217727 -0.0778101236 -0.964275122
vn 0.97288537 -0.107759133 0.204650745
vn 0.626997769 0.3373698 0.702179074
vn 0.376545459 0.618093669 0.690053403
vn 0.63570559 -0.0362427458 0.771080375
vn 0.97288537 -0.107759133 0.204650745
vn 0.497414291 -0.0125692394 0.867422044
vn -0.0866397098 -0.0363156348 -0.995577574
vn 0.600929022 0.621043682 0.503178895
vn 0.192433491 0.978832603 0.0696862936
vn 0.684057832 -0.0387495421 0.728397727
vn -0.468361527 0.815789878 -0.339299828
vn -0.856260717 0.0722776875 -0.511462152
vn -0.0866397098 -0.0363156348 -0.995577574
vn -0.566595852 0.0260216855 -0.823584974
vn -0.369025141 0.0536983497 0.927866876
vn -0.401801795 -0.477324218 0.781483769
vn -0.904132545 0.0634474978 0.422514707
vn -0.629336476 -0.718615592 0.295850039
vn -0.836658299 -0.53713876 -0.107167259
vn -0.919358671 0.0634833649 0.388264805
vn -0.274686813 -0.538761497 -0.796418965
vn -0.274686813 -0.538761497 -0.796418965
vn -0.274686784 -0.538761497 -0.796418965
vn 0.553111553 -0.815340221 -0.171137378
vn 0.480372399 -0.75939399 0.438819975
vn 0.888322294 0 0.459220588
vn -0.0469662212 -0.905294001 -0.422181129
vn -0.0108022327 -0.78014642 -0.6255036
vn -0.629336476 -0.718615592 0.295850039
vn -0.836658299 -0.53713876 -0.107167259
vn -0.334684402 -0.017284669 -0.942171693
vn 0.429410458 0 0.903109431
vn -0.369025141 0.0536983497 0.927866876
vn -0.401801795 -0.477324218 0.781483769
vn -0.569392741 -0.307009488 -0.762585819
vn -0.569392741 -0.307009488 -0.762585819
vn -0.569392741 -0.307009488 -0.762585819
vn -0.369025141 0.0536983497 0.927866876
vn -0.904132545 0.0634474978 0.422514707
vn -0.415873706 0.535594285 0.734974623
vn -0.608510613 0.742661417 0.27958712
vn -0.826329052 0.556214809 -0.0883490145
vn -0.919358671 0.0634833649 0.388264805
vn -0.334684402 -0.017284669 -0.942171693
vn -0.0108048134 0.780145288 -0.625505149
vn -0.0783451125 0.907054722 -0.413659155
vn 0.55311358 0.815339088 -0.17113632
vn 0.459839314 0.766145587 0.44896403
vn 0.888322294 0 0.459220588
vn -0.608510613 0.742661417 0.27958712
vn -0.826329052 0.556214809 -0.0883490145
vn 0.429410458 0 0.903109431
vn -0.369025141 0.0536983497 0.927866876
vn -0.415873706 0.535594285 0.734974623
vn -0.543668509 0.417428136 -0.72813338
vn -0.543668449 0.417428106 -0.72813338
vn -0.543668509 0.417428166 -0.7281335
vn -0.274688214 0.538754702 -0.796423078
vn -0.274688214 0.538754702 -0.796423078
vn -0.274688214 0.538754702 -0.796423078
vn 0.0746185854 -0.996963203 -0.022277385
vn 0.506821334 -0.724832773 0.466636389
vn 0.312736213 -0.748498857 0.584761083
vn 0.31734702 -0.889051795 -0.329966247
vn -0.00792916957 -0.52282995 -0.852400124
vn -0.276831239 -0.601180851 -0.74963069
vn -0.201912448 -0.000123338876 -0.979403555
vn -0.423169702 -0.0152340708 -0.905922353
vn -0.219390079 0.691838682 -0.687915206
vn -0.116799198 0.850252211 -0.51325345
vn -0.184445545 -0.963588893 0.193588004
vn -0.510940135 -0.628480077 -0.586474955
vn 0.133928001 -0.675079942 0.725486219
vn -0.577766895 0.00940607395 -0.816147685
vn 0.0797420591 0.866270125 -0.493170619
vn 0.280465364 0.833039045 0.476849198
vn -0.116799198 0.850252211 -0.51325345
vn 0.213205621 0.795844078 0.566723585
vn -0.219390079 0.691838682 -0.687915206
vn 0.455140531 0.021382235 0.890162826
vn 0.652152061 0.052760493 0.756250024
vn 0.506821334 -0.724832773 0.466636389
vn 0.312736213 -0.748498857 0.584761083
vn 0.133928001 -0.675079942 0.725486219
vn 0.286355227 0.00739379134 0.958095074
vn 0.172305375 0.749331474 0.639384925
vn 0.0797420591 0.866270125 -0.493170619
g hand_0
f 3/3/3 2/2/2 1/1/1
f 2/2/2 4/4/4 1/1/1
f 3/3/3 1/1/1 5/5/5
f 6/6/6 3/3/3 5/5/5
f 6/6/6 5/5/5 7/7/7
f 8/8/8 6/6/6 7/7/7
f 11/11/11 10/10/10 9/9/9
f 12/12/12 11/11/11 9/9/9
f 13/13/13 12/12/12 9/9/9
f 16/16/16 15/15/15 14/14/14
f 15/15/15 17/17/17 14/14/14
f 14/14/14 17/17/17 18/18/18
f 17/17/17 19/19/19 18/18/18
f 18/18/18 19/19/19 20/20/20
f 19/19/19 21/21/21 20/20/20
f 24/24/24 23/23/23 22/22/22
f 23/23/23 25/25/25 22/22/22
f 25/25/25 26/26/26 22/22/22
f 29/29/29 28/28/28 27/27/27
f 31/31/31 27/27/27 30/30/30
f 31/31/31 30/30/30 32/32/32
f 33/33/33 31/31/31 32/32/32
f 33/33/33 32/32/32 34/34/34
f 33/33/33 34/34/34 35/35/35
f 34/34/34 36/36/36 35/35/35
f 36/36/36 37/37/37 35/35/35
f 36/36/36 38/38/38 37/37/37
f 38/38/38 39/39/39 37/37/37
f 40/40/40 33/33/33 35/35/35
f 42/42/42 41/41/41 32/32/32
f 45/45/45 44/44/44 43/43/43
f 45/45/45 43/43/43 46/46/46
f 49/49/49 48/48/48 47/47/47
f 48/48/48 49/49/49 50/50/50
f 49/49/49 51/51/51 50/50/50
f 51/51/51 49/49/49 52/52/52
f 55/55/55 54/54/54 53/53/53
f 53/53/53 54/54/54 56/56/56
f 54/54/54 57/57/57 56/56/56
f 56/56/56 57/57/57 58/58/58
f 57/57/57 59/59/59 58/58/58
f 58/58/58 59/59/59 60/60/60
f 58/58/58 60/60/60 61/61/61
f 62/62/62 58/58/58 61/61/61
f 63/63/63 55/55/55 53/53/53
f 63/63/63 53/53/53 56/56/56
f 58/58/58 62/62/62 64/64/64
f 65/65/65 58/58/58 64/64/64
f 66/66/66 58/58/58 65/65/65
f 66/66/66 67/67/67 58/58/58
f 67/67/67 56/56/56 58/58/58
f 67/67/67 63/63/63 56/56/56
f 70/70/70 69/69/69 68/68/68
f 68/68/68 72/72/72 71/71/71
f 71/71/71 72/72/72 73/73/73
f 72/72/72 74/74/74 73/73/73
f 75/75/75 73/73/73 74/74/74
f 75/75/75 74/74/74 76/76/76
f 77/77/77 75/75/75 76/76/76
f 78/78/78 77/77/77 76/76/76
f 79/79/79 77/77/77 78/78/78
f 80/80/80 79/79/79 78/78/78
f 74/74/74 81/81/81 76/76/76
f 83/83/83 82/82/82 73/73/73
f 86/86/86 85/85/85 84/84/84
f 84/84/84 85/85/85 87/87/87
f 90/90/90 89/89/89 88/88/88
f 89/89/89 90/90/90 91/91/91
f 92/92/92 89/89/89 91/91/91
f 89/89/89 92/92/92 93/93/93
f 96/96/96 95/95/95 94/94/94
f 95/95/95 96/96/96 97/97/97
f 98/98/98 95/95/95 97/97/97
f 98/98/98 97/97/97 99/99/99
f 94/94/94 95/95/95 100/100/100
f 96/96/96 94/94/94 101/101/101
f 94/94/94 102/102/102 101/101/101
f 103/103/103 95/95/95 98/98/98
f 98/98/98 104/104/104 103/103/103
f 99/99/99 104/104/104 98/98/98
f 103/103/103 104/104/104 105/105/105
f 103/103/103 105/105/105 106/106/106
f 104/104/104 107/107/107 105/105/105
f 108/108/108 104/104/104 99/99/99
f 108/108/108 99/99/99 109/109/109
f 97/97/97 109/109/109 99/99/99
f 104/104/104 108/108/108 110/110/110
f 111/111/111 104/104/104 110/110/110
f 109/109/109 112/112/112 108/108/108
f 112/112/112 110/110/110 108/108/108
f 103/103/103 106/106/106 113/113/113
f 95/95/95 103/103/103 113/113/113
f 109/109/109 114/114/114 112/112/112
f 109/109/109 97/97/97 114/114/114
f 97/97/97 115/115/115 114/114/114
f 114/114/114 116/116/116 112/112/112
f 117/117/117 115/115/115 97/97/97
f 96/96/96 117/117/117 97/97/97
f 117/117/117 96/96/96 118/118/118
f 96/96/96 101/101/101 118/118/118
f 120/120/120 94/94/94 119/119/119
f 123/123/123 122/122/122 121/121/121
f 122/122/122 123/123/123 124/124/124
f 123/123/123 125/125/125 124/124/124
f 124/124/124 125/125/125 126/126/126
f 123/123/123 121/121/121 127/127/127
f 121/121/121 122/122/122 128/128/128
f 129/129/129 121/121/121 128/128/128
f 123/123/123 130/130/130 125/125/125
f 131/131/131 125/125/125 130/130/130
f 131/131/131 126/126/126 125/125/125
f 131/131/131 130/130/130 132/132/132
f 132/132/132 130/130/130 133/133/133
f 134/134/134 131/131/131 132/132/132
f 131/131/131 135/135/135 126/126/126
f 126/126/126 135/135/135 136/136/136
f 136/136/136 124/124/124 126/126/126
f 135/135/135 131/131/131 137/137/137
f 131/131/131 138/138/138 137/137/137
f 137/137/137 139/139/139 135/135/135
f 139/139/139 136/136/136 135/135/135
f 133/133/133 130/130/130 140/140/140
f 130/130/130 123/123/123 140/140/140
f 141/141/141 136/136/136 139/139/139
f 124/124/124 136/136/136 141/141/141
f 142/142/142 124/124/124 141/141/141
f 143/143/143 141/141/141 139/139/139
f 142/142/142 144/144/144 124/124/124
f 144/144/144 122/122/122 124/124/124
f 122/122/122 144/144/144 145/145/145
f 128/128/128 122/122/122 145/145/145
f 121/121/121 147/147/147 146/146/146
f 150/150/150 149/149/149 148/148/148
f 151/151/151 149/149/149 150/150/150
f 152/152/152 149/149/149 151/151/151
f 153/153/153 149/149/149 152/152/152
f 156/156/156 155/155/155 154/154/154
f 159/159/159 158/158/158 157/157/157
f 160/160/160 159/159/159 157/157/157
f 157/157/157 161/161/161 160/160/160
f 159/159/159 160/160/160 162/162/162
f 162/162/162 160/160/160 163/163/163
f 163/163/163 160/160/160 164/164/164
f 160/160/160 161/161/161 164/164/164
f 159/159/159 165/165/165 158/158/158
f 165/165/165 159/159/159 166/166/166
f 159/159/159 167/167/167 166/166/166
f 167/167/167 159/159/159 162/162/162
f 170/170/170 169/169/169 168/168/168
f 173/173/173 172/172/172 171/171/171
f 173/173/173 174/174/174 172/172/172
f 173/173/173 175/175/175 174/174/174
f 173/173/173 176/176/176 175/175/175
f 179/179/179 178/178/178 177/177/177
f 179/179/179 180/180/180 178/178/178
f 181/181/181 178/178/178 180/180/180
f 182/182/182 181/181/181 180/180/180
f 178/178/178 181/181/181 183/183/183
f 178/178/178 183/183/183 184/184/184
f 178/178/178 184/184/184 177/177/177
f 182/182/182 185/185/185 181/181/181
f 181/181/181 185/185/185 186/186/186
f 187/187/187 181/181/181 186/186/186
f 181/181/181 187/187/187 183/183/183
f 190/190/190 189/189/189 188/188/188
f 193/193/193 192/192/192 191/191/191
f 196/196/196 195/195/195 194/194/194
f 195/195/195 197/197/197 194/194/194
f 196/196/196 194/194/194 198/198/198
f 194/194/194 199/199/199 198/198/198
f 200/200/200 198/198/198 199/199/199
f 201/201/201 200/200/200 199/199/199
f 202/202/202 200/200/200 201/201/201
f 203/203/203 202/202/202 201/201/201
f 199/199/199 194/194/194 204/204/204
f 205/205/205 199/199/199 204/204/204
f 204/204/204 194/194/194 206/206/206
f 194/194/194 197/197/197 206/206/206
f 205/205/205 207/207/207 199/199/199
f 207/207/207 201/201/201 199/199/199
f 201/201/201 207/207/207 203/203/203
f 207/207/207 208/208/208 203/203/203
f 211/211/211 210/210/210 209/209/209
f 210/210/210 212/212/212 209/209/209
f 212/212/212 213/213/213 209/209/209
f 213/213/213 214/214/214 209/209/209
f 215/215/215 214/214/214 213/213/213
f 216/216/216 215/215/215 213/213/213
f 217/217/217 216/216/216 213/213/213
f 218/218/218 217/217/217 213/213/213
f 218/218/218 213/213/213 219/219/219
f 213/213/213 212/212/212 219/219/219
f 219/219/219 212/212/212 210/210/210
f 220/220/220 219/219/219 210/210/210
f 223/223/223 222/222/222 221/221/221
f 222/222/222 224/224/224 221/221/221
f 221/221/221 224/224/224 225/225/225
f 224/224/224 226/226/226 225/225/225
f 225/225/225 226/226/226 227/227/227
f 226/226/226 228/228/228 227/227/227
f 231/231/231 230/230/230 229/229/229
f 230/230/230 232/232/232 229/229/229
f 232/232/232 233/233/233 229/229/229
f 236/236/236 235/235/235 234/234/234
f 235/235/235 237/237/237 234/234/234
f 236/236/236 234/234/234 238/238/238
f 239/239/239 236/236/236 238/238/238
f 239/239/239 238/238/238 240/240/240
f 241/241/241 239/239/239 240/240/240
f 244/244/244 243/243/243 242/242/242
f 245/245/245 244/244/244 242/242/242
f 246/246/246 245/245/245 242/242/242
f 249/249/249 248/248/248 247/247/247
f 247/247/247 251/251/251 250/250/250
f 250/250/250 251/251/251 252/252/252
f 251/251/251 253/253/253 252/252/252
f 252/252/252 253/253/253 254/254/254
f 254/254/254 253/253/253 255/255/255
f 256/256/256 254/254/254 255/255/255
f 257/257/257 256/256/256 255/255/255
f 258/258/258 256/256/256 257/257/257
f 259/259/259 258/258/258 257/257/257
f 253/253/253 260/260/260 255/255/255
f 262/262/262 261/261/261 252/252/252
f 265/265/265 264/264/264 263/263/263
f 263/263/263 264/264/264 266/266/266
f 269/269/269 268/268/268 267/267/267
f 268/268/268 269/269/269 270/270/270
f 271/271/271 268/268/268 270/270/270
f 268/268/268 271/271/271 272/272/272
f 275/275/275 274/274/274 273/273/273
f 275/275/275 273/273/273 276/276/276
f 277/277/277 275/275/275 276/276/276
f 277/277/277 276/276/276 278/278/278
f 279/279/279 277/277/277 278/278/278
f 279/279/279 278/278/278 280/280/280
f 280/280/280 278/278/278 281/281/281
f 278/278/278 282/282/282 281/281/281
f 274/274/274 283/283/283 273/273/273
f 273/273/273 283/283/283 276/276/276
f 282/282/282 278/278/278 284/284/284
f 278/278/278 285/285/285 284/284/284
f 278/278/278 286/286/286 285/285/285
f 276/276/276 287/287/287 278/278/278
f 287/287/287 286/286/286 278/278/278
f 283/283/283 287/287/287 276/276/276
f 290/290/290 289/289/289 288/288/288
f 292/292/292 288/288/288 291/291/291
f 292/292/292 291/291/291 293/293/293
f 294/294/294 292/292/292 293/293/293
f 293/293/293 295/295/295 294/294/294
f 294/294/294 295/295/295 296/296/296
f 295/295/295 297/297/297 296/296/296
f 297/297/297 298/298/298 296/296/296
f 297/297/297 299/299/299 298/298/298
f 299/299/299 300/300/300 298/298/298
f 301/301/301 294/294/294 296/296/296
f 303/303/303 302/302/302 293/293/293
f 306/306/306 305/305/305 304/304/304
f 306/306/306 304/304/304 307/307/307
f 310/310/310 309/309/309 308/308/308
f 309/309/309 310/310/310 311/311/311
f 310/310/310 312/312/312 311/311/311
f 312/312/312 310/310/310 313/313/313
f 316/316/316 315/315/315 314/314/314
f 315/315/315 316/316/316 317/317/317
f 316/316/316 318/318/318 317/317/317
f 317/317/317 318/318/318 319/319/319
f 316/316/316 314/314/314 320/320/320
f 314/314/314 315/315/315 321/321/321
f 322/322/322 314/314/314 321/321/321
f 316/316/316 323/323/323 318/318/318
f 324/324/324 318/318/318 323/323/323
f 324/324/324 319/319/319 318/318/318
f 324/324/324 323/323/323 325/325/325
f 325/325/325 323/323/323 326/326/326
f 327/327/327 324/324/324 325/325/325
f 324/324/324 328/328/328 319/319/319
f 319/319/319 328/328/328 329/329/329
f 329/329/329 317/317/317 319/319/319
f 328/328/328 324/324/324 330/330/330
f 324/324/324 331/331/331 330/330/330
f 330/330/330 332/332/332 328/328/328
f 332/332/332 329/329/329 328/328/328
f 326/326/326 323/323/323 333/333/333
f 323/323/323 316/316/316 333/333/333
f 334/334/334 329/329/329 332/332/332
f 317/317/317 329/329/329 334/334/334
f 335/335/335 317/317/317 334/334/334
f 336/336/336 334/334/334 332/332/332
f 335/335/335 337/337/337 317/317/317
f 337/337/337 315/315/315 317/317/317
f 315/315/315 337/337/337 338/338/338
f 321/321/321 315/315/315 338/338/338
f 314/314/314 340/340/340 339/339/339
f 343/343/343 342/342/342 341/341/341
f 342/342/342 343/343/343 344/344/344
f 345/345/345 342/342/342 344/344/344
f 345/345/345 344/344/344 346/346/346
f 341/341/341 342/342/342 347/347/347
f 343/343/343 341/341/341 348/348/348
f 341/341/341 349/349/349 348/348/348
f 350/350/350 342/342/342 345/345/345
f 345/345/345 351/351/351 350/350/350
f 346/346/346 351/351/351 345/345/345
f 350/350/350 351/351/351 352/352/352
f 350/350/350 352/352/352 353/353/353
f 351/351/351 354/354/354 352/352/352
f 355/355/355 351/351/351 346/346/346
f 355/355/355 346/346/346 356/356/356
f 344/344/344 356/356/356 346/346/346
f 351/351/351 355/355/355 357/357/357
f 358/358/358 351/351/351 357/357/357
f 356/356/356 359/359/359 355/355/355
f 359/359/359 357/357/357 355/355/355
f 350/350/350 353/353/353 360/360/360
f 342/342/342 350/350/350 360/360/360
f 356/356/356 361/361/361 359/359/359
f 356/356/356 344/344/344 361/361/361
f 344/344/344 362/362/362 361/361/361
f 361/361/361 363/363/363 359/359/359
f 364/364/364 362/362/362 344/344/344
f 343/343/343 364/364/364 344/344/344
f 364/364/364 343/343/343 365/365/365
f 343/343/343 348/348/348 365/365/365
f 367/367/367 341/341/341 366/366/366
f 370/370/370 369/369/369 368/368/368
f 370/370/370 371/371/371 369/369/369
f 370/370/370 372/372/372 371/371/371
f 370/370/370 373/373/373 372/372/372
f 376/376/376 375/375/375 374/374/374
f 379/379/379 378/378/378 377/377/377
f 378/378/378 380/380/380 377/377/377
f 381/381/381 377/377/377 380/380/380
f 380/380/380 378/378/378 382/382/382
f 380/380/380 382/382/382 383/383/383
f 380/380/380 383/383/383 384/384/384
f 381/381/381 380/380/380 384/384/384
f 385/385/385 378/378/378 379/379/379
f 378/378/378 385/385/385 386/386/386
f 387/387/387 378/378/378 386/386/386
f 378/378/378 387/387/387 382/382/382
f 390/390/390 389/389/389 388/388/388
f 393/393/393 392/392/392 391/391/391
f 394/394/394 392/392/392 393/393/393
f 395/395/395 392/392/392 394/394/394
f 396/396/396 392/392/392 395/395/395
f 399/399/399 398/398/398 397/397/397
f 400/400/400 398/398/398 399/399/399
f 399/399/399 401/401/401 400/400/400
f 401/401/401 402/402/402 400/400/400
f 401/401/401 399/399/399 403/403/403
f 403/403/403 399/399/399 404/404/404
f 404/404/404 399/399/399 397/397/397
f 405/405/405 402/402/402 401/401/401
f 405/405/405 401/401/401 406/406/406
f 401/401/401 407/407/407 406/406/406
f 407/407/407 401/401/401 403/403/403
f 410/410/410 409/409/409 408/408/408
f 413/413/413 412/412/412 411/411/411
f 416/416/416 415/415/415 414/414/414
f 415/415/415 417/417/417 414/414/414
f 414/414/414 417/417/417 418/418/418
f 419/419/419 414/414/414 418/418/418
f 418/418/418 420/420/420 419/419/419
f 420/420/420 421/421/421 419/419/419
f 420/420/420 422/422/422 421/421/421
f 422/422/422 423/423/423 421/421/421
f 414/414/414 419/419/419 424/424/424
f 419/419/419 425/425/425 424/424/424
f 416/416/416 414/414/414 426/426/426
f 414/414/414 424/424/424 426/426/426
f 421/421/421 427/427/427 419/419/419
f 427/427/427 425/425/425 419/419/419
f 427/427/427 421/421/421 423/423/423
f 428/428/428 427/427/427 423/423/423
f 431/431/431 430/430/430 429/429/429
f 430/430/430 432/432/432 429/429/429
f 433/433/433 431/431/431 429/429/429
f 434/434/434 433/433/433 429/429/429
f 434/434/434 435/435/435 433/433/433
f 435/435/435 436/436/436 433/433/433
f 436/436/436 437/437/437 433/433/433
f 437/437/437 438/438/438 433/433/433
f 431/431/431 433/433/433 439/439/439
f 433/433/433 438/438/438 439/439/439
f 431/431/431 439/439/439 430/430/430
f 439/439/439 440/440/440 430/430/430
