# Generated from legacy Unity YAML Mesh assets without Unity.
mtllib collision.mtl

o collision_PZ_MOT_3_M1
v 39.4050302 2.34719851 -55.0368984
v 41.9063437 0.612593679 -52.7936108
v 39.3007559 0.612594623 -54.8691711
v 42.0106222 2.34719756 -52.9613347
v 39.359175 3.50457479 -55.2926795
v 41.9647628 3.50457385 -53.2171192
v 44.0237818 0.612593686 -50.0848736
v 44.128045 2.34719757 -50.2525961
v 44.0821937 3.50457386 -50.5083775
v 45.5008489 2.34719853 -46.6695605
v 45.4549899 3.50457386 -46.9253413
v 45.9283356 2.34719853 -44.3356075
v 46.3812596 3.50457386 -44.6756681
v 48.1005805 2.34719853 -42.7933678
v 47.9963024 0.612593698 -42.6256401
v 36.1738776 2.34719754 -56.872913
v 36.1911395 0.612594612 -56.6761782
v 45.1680925 0.612593689 -47.098195
v 35.1061153 3.50457478 -57.2349837
v 38.6823078 -1.36973189 -54.4138676
v 41.3432939 -2.14772889 -52.1490484
v 38.737714 -2.1477289 -54.2246055
v 41.2878995 -1.36973283 -52.3383077
v 39.3007559 0.612594623 -54.8691711
v 41.9063437 0.612593679 -52.7936108
v 43.4607289 -2.14772889 -49.4403032
v 43.4053227 -1.36973282 -49.6295653
v 44.0237818 0.612593686 -50.0848736
v 35.9697364 -1.3697319 -55.9408036
v 36.1276393 -2.14772891 -55.8226808
v 36.1911395 0.612594612 -56.6761782
v 45.1680925 0.612593689 -47.098195
v 44.432138 -1.36973282 -46.949552
v 44.833521 -2.14772888 -45.8572704
v 44.7781227 -1.36973282 -46.0465294
v 45.2056132 -1.36973282 -43.7125767
v 47.4332488 -2.14772888 -41.9810774
v 45.261008 -2.14772888 -43.5233137
v 47.377854 -1.36973281 -42.1703404
v 45.1680925 0.612593689 -47.098195
v 45.5008489 2.34719853 -46.6695605
v 45.396578 0.61259369 -46.5018373
v 45.824065 0.61259369 -44.1678806
v 45.9283356 2.34719853 -44.3356075
v 47.9963024 0.612593698 -42.6256401
v 44.432138 -1.36973282 -46.949552
v 45.396578 0.61259369 -46.5018373
v 44.7781227 -1.36973282 -46.0465294
v 45.1680925 0.612593689 -47.098195
v 45.2056132 -1.36973282 -43.7125767
v 45.261008 -2.14772888 -43.5233137
v 44.833521 -2.14772888 -45.8572704
v 45.824065 0.61259369 -44.1678806
v 47.377854 -1.36973281 -42.1703404
v 47.9963024 0.612593698 -42.6256401
vt 0.500544131 0.67509824
vt 1.01087213 0.96178031
vt 0.538700581 0.96178031
vt 0.972715616 0.67509824
vt 0.44235608 0.483816028
vt 0.914527178 0.483816028
vt 1.62708509 0.96178031
vt 1.58892953 0.675098062
vt 1.5307411 0.483815849
vt 2.40403676 0.675097883
vt 2.34584951 0.483815849
vt 2.93499041 0.675097883
vt 2.85762978 0.483815849
vt 3.28583622 0.675097883
vt 3.32399297 0.96178025
vt 0.0828666091 0.67509836
vt 0.127622351 0.96178031
vt 2.3065269 0.96178025
vt 0.000499314396 0.483816028
vt 0.642278552 0.138004214
vt 1.15750372 0.000499636633
vt 0.685333431 0.000499630638
vt 1.11444926 0.138004214
vt 0.538700581 0.488365084
vt 1.01087213 0.488365084
vt 1.77371883 0.000499644375
vt 1.73066306 0.138004228
vt 1.62708509 0.488365084
vt 0.294913501 0.138004199
vt 0.321784705 0.000499626098
vt 0.127622351 0.488365084
vt 2.3065269 0.488365114
vt 2.34034204 0.138004228
vt 2.58882546 0.000499654619
vt 2.54577088 0.138004228
vt 3.07672429 0.138004243
vt 3.47062516 0.000499665737
vt 3.11977959 0.000499661313
vt 3.42756939 0.138004243
vt 0.578227818 0.491903305
vt 0.578671336 0.490599275
vt 0.578844905 0.491903305
vt 0.581260085 0.491903305
vt 0.581086516 0.490599275
vt 0.58285594 0.491903305
vt 0.578381598 0.493223667
vt 0.578844905 0.491903305
vt 0.57931608 0.493223667
vt 0.578227818 0.491903305
vt 0.5817312 0.493223667
vt 0.581927061 0.493808448
vt 0.579511881 0.493808448
vt 0.581260085 0.491903305
vt 0.583327115 0.493223667
vt 0.58285594 0.491903305
vn -0.552043064 0.099319108 0.827879321
vn -0.692584856 0.233825138 0.682387003
vn -0.549385256 0.228551166 0.803704054
vn -0.709600958 0.117085846 0.694807444
vn -0.529454644 0.0787188706 0.844678116
vn -0.695058045 0.128781776 0.707325645
vn -0.847861759 0.228427524 0.478488561
vn -0.870981124 0.0847004578 0.483960447
vn -0.85807644 0.0781697592 0.507537498
vn -0.948675758 0.118534876 0.29319582
vn -0.937721139 0.12583266 0.323798097
vn -0.81437229 0.220247561 0.536925307
vn -0.801755116 0.331446064 0.497325085
vn -0.568794581 0.186107114 0.801147219
vn -0.563848549 0.226613738 0.794179468
vn -0.468771002 0.053588316 0.881692713
vn -0.485487233 0.21925335 0.846303796
vn -0.910483555 0.222103239 0.348840718
vn -0.450561997 0.0214585099 0.89248721
vn -0.54190036 0.236911976 0.806360165
vn -0.716930528 0.116169058 0.687397533
vn -0.568535718 0.125423316 0.813041284
vn -0.681854902 0.244393871 0.689453065
vn -0.549385256 0.228551166 0.803704054
vn -0.692584856 0.233825138 0.682387003
vn -0.880333495 0.0520091565 0.471495478
vn -0.84527493 0.216521528 0.488496388
vn -0.847861759 0.228427524 0.478488561
vn -0.486943381 0.237145985 0.840623534
vn -0.503742688 0.100438511 0.857994994
vn -0.485487233 0.21925335 0.846303796
vn -0.910483555 0.222103239 0.348840718
vn -0.917178516 0.187875788 0.351406116
vn -0.966638667 -0.00653994849 0.256060379
vn -0.947046011 0.174682686 0.269424966
vn -0.84069482 0.20372419 0.501725697
vn -0.571890443 0.155236165 0.805507948
vn -0.80933905 0.083793286 0.5813338
vn -0.560640087 0.249235399 0.789660945
vn -0.910483555 0.222103239 0.348840718
vn -0.948675758 0.118534876 0.29319582
vn -0.940484257 0.212736874 0.265013933
vn -0.817383921 0.241155896 0.523189602
vn -0.81437229 0.220247561 0.536925307
vn -0.563848549 0.226613738 0.794179468
vn -0.917178516 0.187875788 0.351406116
vn -0.940484257 0.212736874 0.265013933
vn -0.947046011 0.174682686 0.269424966
vn -0.910483555 0.222103239 0.348840718
vn -0.84069482 0.20372419 0.501725697
vn -0.80933905 0.083793286 0.5813338
vn -0.966638667 -0.00653994849 0.256060379
vn -0.817383921 0.241155896 0.523189602
vn -0.560640087 0.249235399 0.789660945
vn -0.563848549 0.226613738 0.794179468

g collision_PZ_MOT_3_M1_submesh_0
usemtl collision
f 1/1/1 3/3/3 2/2/2
f 1/1/1 2/2/2 4/4/4
f 5/5/5 1/1/1 4/4/4
f 5/5/5 4/4/4 6/6/6
f 4/4/4 2/2/2 7/7/7
f 4/4/4 7/7/7 8/8/8
f 6/6/6 4/4/4 8/8/8
f 6/6/6 8/8/8 9/9/9
f 9/9/9 8/8/8 10/10/10
f 10/10/10 8/8/8 7/7/7
f 9/9/9 10/10/10 11/11/11
f 11/11/11 10/10/10 12/12/12
f 11/11/11 12/12/12 13/13/13
f 13/13/13 12/12/12 14/14/14
f 12/12/12 15/15/15 14/14/14
f 16/16/16 3/3/3 1/1/1
f 16/16/16 17/17/17 3/3/3
f 10/10/10 7/7/7 18/18/18
f 19/19/19 16/16/16 1/1/1
f 19/19/19 1/1/1 5/5/5

g collision_PZ_MOT_3_M1_submesh_1
usemtl collision
f 20/20/20 22/22/22 21/21/21
f 20/20/20 21/21/21 23/23/23
f 23/23/23 24/24/24 20/20/20
f 23/23/23 25/25/25 24/24/24
f 23/23/23 21/21/21 26/26/26
f 23/23/23 26/26/26 27/27/27
f 25/25/25 23/23/23 27/27/27
f 25/25/25 27/27/27 28/28/28
f 29/29/29 22/22/22 20/20/20
f 29/29/29 30/30/30 22/22/22
f 31/31/31 29/29/29 20/20/20
f 31/31/31 20/20/20 24/24/24
f 32/32/32 28/28/28 27/27/27
f 32/32/32 27/27/27 33/33/33
f 33/33/33 27/27/27 26/26/26
f 33/33/33 26/26/26 34/34/34
f 34/34/34 35/35/35 33/33/33
f 36/36/36 38/38/38 37/37/37
f 36/36/36 37/37/37 39/39/39

g collision_PZ_MOT_3_M1_submesh_2
usemtl collision
f 40/40/40 42/42/42 41/41/41
f 41/41/41 42/42/42 43/43/43
f 41/41/41 43/43/43 44/44/44
f 44/44/44 43/43/43 45/45/45
f 46/46/46 48/48/48 47/47/47
f 46/46/46 47/47/47 49/49/49
f 47/47/47 48/48/48 50/50/50
f 48/48/48 51/51/51 50/50/50
f 48/48/48 52/52/52 51/51/51
f 47/47/47 50/50/50 53/53/53
f 53/53/53 50/50/50 54/54/54
f 53/53/53 54/54/54 55/55/55

o collision_PZ_MOT_1_M6
v -34.7589529 0.579272643 -2.59728727
v -39.1592062 -0.107968774 0.621256092
v -39.8783987 0.569982903 0.436224239
v -33.8751791 -0.106423822 -1.76249816
v -41.0822409 7.19114972 -0.794202304
v -35.02647 6.95708661 -3.67213142
v -32.7026938 0.57604541 -2.73376567
v -32.9378622 -0.106756654 -1.9143536
v -31.7216833 3.02812851 -3.19076249
v -29.872341 4.5613628 -3.55886163
v -28.1104048 6.92271095 -4.03820877
v -27.6224325 5.2394375 -3.67768943
vt 5.77343655 0.111885697
vt 5.13353634 0.014736928
vt 5.13353634 0.111885697
vt 5.77343655 0.014736928
vt 5.13353634 0.993095636
vt 5.77343655 0.993095636
vt 5.97695017 0.111885697
vt 5.87995434 0.014736929
vt 6.07373381 0.451515853
vt 6.25657511 0.664147735
vt 6.41333628 0.993095636
vt 6.464921 0.759554565
vn 0.259104535 0.493263795 0.830394887
vn 0.294249114 0.769645977 0.566623798
vn 0.418703452 0.446644107 0.790693658
vn 0.147447592 0.781877371 0.605744983
vn 0.460852724 0.205282961 0.863408172
vn 0.26713824 0.189743698 0.944793358
vn 0.0634144043 0.439702837 0.895901796
vn 0.0608360452 0.780665734 0.621980697
vn 0.0576248394 0.166936876 0.984282204
vn 0.0426209401 0.171367359 0.984284859
vn 0.0216890013 0.183324952 0.98281308
vn -0.0105580776 0.206488844 0.978391989

g collision_PZ_MOT_1_M6_submesh_0
usemtl collision_2
f 56/56/56 58/58/58 57/57/57
f 56/56/56 57/57/57 59/59/59
f 60/60/60 58/58/58 56/56/56
f 60/60/60 56/56/56 61/61/61
f 62/62/62 56/56/56 59/59/59
f 61/61/61 56/56/56 62/62/62
f 62/62/62 59/59/59 63/63/63
f 61/61/61 62/62/62 64/64/64
f 65/65/65 61/61/61 64/64/64
f 65/65/65 66/66/66 61/61/61
f 65/65/65 67/67/67 66/66/66

o collision_PZ_MOT_1_M5
v -41.0822409 7.19114972 -0.794202304
v -43.0506476 0.569645302 6.34521964
v -44.7734945 6.92685562 5.96388732
v -39.8783987 0.569982903 0.436224239
v -41.900852 -0.108243432 6.25793938
v -39.1592062 -0.107968774 0.621256092
vt 5.13353634 0.993095636
vt 4.49363661 0.111885697
vt 4.49363661 0.993095636
vt 5.13353634 0.111885697
vt 4.49363661 0.014736928
vt 5.13353634 0.014736928
vn 0.849275104 0.249310079 0.465377569
vn 0.769769231 0.486257033 0.413532863
vn 0.849275075 0.2493101 0.465377612
vn 0.73512362 0.553037281 0.39210079
vn 0.553355166 0.783222462 0.283479513
vn 0.553355171 0.783222469 0.283479485

g collision_PZ_MOT_1_M5_submesh_0
usemtl collision_3
f 68/68/68 70/70/70 69/69/69
f 68/68/68 69/69/69 71/71/71
f 72/72/72 71/71/71 69/69/69
f 72/72/72 73/73/73 71/71/71

o collision_PZ_MOT_1_M4
v -42.8026007 0.579177275 14.2544626
v -40.0706137 -0.108417001 19.1053909
v -40.3903464 0.569129365 19.333937
v -41.8420828 -0.10661551 13.8200678
v -42.9604757 0.571339028 11.3084259
v -44.0284613 6.92825228 14.3786577
v -44.3505591 7.23958492 11.490837
v -42.2530096 -0.107682672 11.3428497
v -41.1949576 6.92271191 19.8018629
v -43.687908 0.566300767 9.80301314
v -45.086788 7.0395079 9.73655349
v -42.8108252 -0.110282387 9.53356586
v -43.0506476 0.569645302 6.34521964
v -41.900852 -0.108243432 6.25793938
v -44.7734945 6.92685562 5.96388732
vt 2.57393742 0.111885697
vt 1.93403757 0.014736928
vt 1.93403757 0.111885697
vt 2.57393742 0.014736928
vt 3.21383715 0.111885697
vt 2.57393742 0.993095636
vt 3.21383715 0.993095636
vt 3.21383715 0.014736928
vt 1.93403757 0.993095636
vt 3.85373664 0.111885697
vt 3.85373664 0.993095636
vt 3.85373664 0.014736928
vt 4.49363661 0.111885697
vt 4.49363661 0.014736928
vt 4.49363661 0.993095636
vn 0.847051073 0.47738868 -0.23367612
vn 0.638950063 0.725018526 -0.257081607
vn 0.80733684 0.458553659 -0.37139705
vn 0.632946413 0.758770942 -0.153770921
vn 0.820064308 0.531265208 -0.212724728
vn 0.950619749 0.184348648 -0.249675128
vn 0.948235347 0.198445321 -0.24792979
vn 0.619526665 0.77206951 -0.141758184
vn 0.882942834 0.161680712 -0.44076218
vn 0.849423635 0.51240927 -0.126159534
vn 0.962358202 0.223661266 -0.154409613
vn 0.596402268 0.802074367 -0.0313216283
vn 0.802915051 0.580442631 0.135697355
vn 0.566654815 0.81349758 0.130858735
vn 0.963276967 0.238665595 0.123029344

g collision_PZ_MOT_1_M4_submesh_0
usemtl collision_4
f 74/74/74 76/76/76 75/75/75
f 74/74/74 75/75/75 77/77/77
f 77/77/77 78/78/78 74/74/74
f 78/78/78 79/79/79 74/74/74
f 78/78/78 80/80/80 79/79/79
f 77/77/77 81/81/81 78/78/78
f 82/82/82 76/76/76 74/74/74
f 82/82/82 74/74/74 79/79/79
f 83/83/83 80/80/80 78/78/78
f 81/81/81 83/83/83 78/78/78
f 83/83/83 84/84/84 80/80/80
f 81/81/81 85/85/85 83/83/83
f 85/85/85 86/86/86 83/83/83
f 84/84/84 83/83/83 86/86/86
f 85/85/85 87/87/87 86/86/86
f 84/84/84 86/86/86 88/88/88

o collision_PZ_MOT_1_M3
v -40.3903464 0.569129365 19.333937
v -37.2319296 6.95708757 24.4088604
v -41.1949576 6.92271191 19.8018629
v -36.5156515 0.579273596 23.4399733
v -36.2009314 -0.106422868 22.3402268
v -40.0706137 -0.108417001 19.1053909
vt 1.93403757 0.111885697
vt 1.29413784 0.993095636
vt 1.93403757 0.993095636
vt 1.29413784 0.111885697
vt 1.29413784 0.014736928
vt 1.93403757 0.014736928
vn 0.642775874 0.453696882 -0.61725061
vn 0.733217085 0.162118446 -0.66038649
vn 0.733217083 0.162118461 -0.660386488
vn 0.66146112 0.409730512 -0.628164067
vn 0.47916665 0.716703877 -0.506690117
vn 0.479166644 0.716703927 -0.506690051

g collision_PZ_MOT_1_M3_submesh_0
usemtl collision_5
f 89/89/89 91/91/91 90/90/90
f 89/89/89 90/90/90 92/92/92
f 93/93/93 89/89/89 92/92/92
f 93/93/93 94/94/94 89/89/89

o collision_PZ_MOT_1_M2
v -36.5156515 0.579273596 23.4399733
v -31.0704611 -0.101655451 24.1711896
v -30.7543142 0.56998481 24.8681041
v -36.2009314 -0.106422868 22.3402268
v -31.2071646 7.19115067 26.5900581
v -37.2319296 6.95708757 24.4088604
vt 1.29413784 0.111885697
vt 0.654237926 0.014736928
vt 0.654237926 0.111885697
vt 1.29413784 0.014736928
vt 0.654237926 0.993095636
vt 1.29413784 0.993095636
vn 0.245729533 0.522742243 -0.816307261
vn 0.177847785 0.785109291 -0.593273602
vn 0.253376945 0.477441201 -0.841338234
vn 0.177847777 0.785109321 -0.593273565
vn 0.281906748 0.218732835 -0.934175857
vn 0.281906774 0.218732847 -0.934175846

g collision_PZ_MOT_1_M2_submesh_0
usemtl collision_6
f 95/95/95 97/97/97 96/96/96
f 95/95/95 96/96/96 98/98/98
f 99/99/99 97/97/97 95/95/95
f 99/99/99 95/95/95 100/100/100

o collision_PZ_MOT_1_M1
v -18.4326361 0.571338074 -0.370328487
v -21.3798826 6.9282518 -3.06074619
v -18.1581114 7.23958349 -1.69683579
v -21.6722677 0.579177275 -1.79658629
v -16.7806967 0.553515812 -0.423287919
v -16.3022268 7.25476502 -1.51416142
v -21.5654562 -0.106616464 -0.825395077
v -18.6829107 -0.107683625 0.240251835
v -16.7242315 -0.113757576 0.330873765
v -22.2171744 2.64512821 -2.30099598
v -23.5342978 3.95699566 -2.76249415
v -25.3441771 5.03062769 -3.25073334
v -27.6224325 5.2394375 -3.67768943
v -28.1104048 6.92271095 -4.03820877
vt 7.69313526 0.111885697
vt 7.05323648 0.993095636
vt 7.69313526 0.993095636
vt 7.05323648 0.111885697
vt 8.33303452 0.111885697
vt 8.33303452 0.993095636
vt 7.05323648 0.014736928
vt 7.69313526 0.014736928
vt 8.33303452 0.014736928
vt 6.992383 0.398699194
vt 6.86140919 0.58093524
vt 6.68455982 0.730254829
vt 6.464921 0.759554565
vt 6.41333628 0.993095636
vn -0.17447623 0.504042502 0.845871859
vn -0.275070418 0.198011989 0.940812158
vn -0.215639983 0.190887186 0.95763327
vn -0.333713551 0.423283245 0.84229838
vn -0.02049974 0.465475691 0.884823226
vn -0.0362161966 0.179786161 0.983038821
vn -0.250958371 0.744033599 0.619220396
vn -0.138926252 0.735842749 0.662748025
vn -0.00261071154 0.712084647 0.702088769
vn -0.140988795 0.199566851 0.969688214
vn -0.141710862 0.200068009 0.969479666
vn -0.145818432 0.192229842 0.97045591
vn -0.147091436 0.189032379 0.970891791
vn -0.147091437 0.189032365 0.970891793

g collision_PZ_MOT_1_M1_submesh_0
usemtl collision_7
f 101/101/101 103/103/103 102/102/102
f 101/101/101 102/102/102 104/104/104
f 105/105/105 103/103/103 101/101/101
f 105/105/105 106/106/106 103/103/103
f 107/107/107 101/101/101 104/104/104
f 107/107/107 108/108/108 101/101/101
f 108/108/108 105/105/105 101/101/101
f 108/108/108 109/109/109 105/105/105
f 110/110/110 104/104/104 102/102/102
f 111/111/111 110/110/110 102/102/102
f 111/111/111 102/102/102 112/112/112
f 102/102/102 113/113/113 112/112/112
f 102/102/102 114/114/114 113/113/113

o collision_ground
v -57.633128 -1.99450644 -83.915195
v -35.2172573 -1.99450644 -87.3051097
v -31.0954922 -1.99450644 -78.1033294
v -40.450877 -1.994433 -58.0553597
v -57.633128 -1.99450644 -57.658761
v -29.071162 -1.99438437 -58.3180207
v -40.3085354 2.90727653e-15 -37.7152225
v -28.6899517 5.19164601e-15 -48.003108
v -25.3546703 -1.99450644 -65.2870287
v -12.4679439 -4.2800499 -64.0764767
v -14.0031612 -4.2800499 -77.6576469
v 1.64233896 -4.2800499 -62.3281555
v 6.64137765 -4.2800499 -76.0402118
v 6.64137765 -4.2800499 -82.1064948
v -14.0031612 -4.2800499 -83.7239337
v -12.4679439 -4.2800499 -60.795502
v 1.64233896 -4.2800499 -59.0471808
v 14.6546986 -2.04035194 -57.5050364
v 18.0399067 -2.04035194 -67.1572332
v 14.3299153 -2.04035194 -44.2743547
v 56.0470554 -2.04035194 -55.6037001
v 19.9735386 -2.04035194 -32.2160686
v 35.6745121 -2.04035194 -29.2078533
v 55.3839695 -2.04035194 -25.4316366
v -2.13955954 0.0892708123 0.463253818
v 6.01236459 0.0892710507 8.54546084
v 9.34893533 -1.29243319e-14 33.5840033
v -17.5822475 -1.28927359e-14 33.4417075
v -5.21613577 -4.56553547e-15 -4.06066915
v -15.6212948 -4.56553547e-15 -4.06066915
v 6.33956262 -1.55910909e-15 -17.6004099
v -45.7063396 -4.56553547e-15 -4.06066915
v 6.33956644 6.44457943e-15 -53.6458185
v 1.32000467 2.8861041e-15 -37.6198704
v -45.7063396 2.9081079e-15 -37.7189666
v -28.6762646 6.44457943e-15 -53.6458185
v -48.6051052 -1.13383986e-14 26.4415945
v 5.131345 3.40621526e-16 -26.156036
v 6.33956644 -1.55910803e-15 -17.6004146
v 6.33956644 -1.55910803e-15 -17.6004146
v 6.33956262 -1.55910909e-15 -17.6004099
v 1.66740152 -0.183105432 26.2941794
v -24.5012081 1.58972136 43.2706126
v -26.8059261 -0.183105432 27.5597431
v -0.169970308 1.58972136 42.0050489
v -23.0593441 2.33801223 51.4569208
v 1.27189371 2.33801223 50.191357
v -21.310931 2.86439457 62.9949739
v 3.02030679 2.86439457 61.7294102
v -21.310931 9.24641234 85.1418811
v 3.02030679 9.24641234 83.8763174
v 12.6585591 9.24641234 83.8763174
v 12.6585591 2.86439457 61.7294102
v -21.3686779 2.2327967 -34.6218622
v -23.852969 -0.177006209 -35.906343
v -23.9126766 2.28019526 -37.3408635
v -26.7447384 -0.196377238 -42.9807702
v -26.4534481 2.46787022 -43.835451
v -27.5153301 -0.174703563 -48.320075
v -27.1240108 2.59118243 -48.7737988
v -25.446841 -0.155593841 -53.0561618
v -24.8329723 2.67952842 -52.9291057
v -23.8921383 5.28134383 -40.2205855
v -25.6827877 5.52083906 -48.2924413
v -21.511317 5.00359626 -34.3398265
v -23.8533581 5.50611529 -52.8901615
v -23.4298961 7.63270464 -47.5656691
v -22.6158855 7.64034786 -41.7926639
v -22.6375759 7.36251875 -52.445879
v -20.862521 7.02601054 -34.1564864
v -20.9103573 8.5529377 -45.3402134
v -19.829211 8.37306046 -41.4887928
v -21.7418545 8.47710631 -48.1906004
v -21.4074428 8.19325569 -51.3132995
v -18.9229153 6.98562292 -33.9374866
v -21.4297207 2.66865677 -54.8914962
v -21.7497509 -0.154410331 -54.797113
v -20.977885 5.46570621 -54.8722511
v -20.3944729 7.19574355 -54.372522
v -19.7919262 8.02021629 -52.9649219
v -20.3944729 7.19574355 -54.372522
v -19.5628231 -0.206837613 -54.7559067
v -19.4927242 2.44301437 -54.6788116
v -19.4802044 5.49137721 -54.3830735
v -18.6832226 7.28253934 -53.1220378
v -18.1999691 5.5677522 -52.9971218
v -16.6829098 5.70995407 -50.121554
v -17.2559307 7.56841174 -50.0317331
v -15.9751613 5.83018806 -46.8794834
v -16.7750652 8.13987665 -46.9000771
v -16.5187023 5.85780837 -43.3534622
v -17.3820141 8.20004299 -44.4336317
v -18.9229153 6.98562292 -33.9374866
v -18.2572506 5.33399094 -35.2920128
v -19.6179989 5.17243759 -34.3532771
v -19.6019161 2.35552788 -35.7975612
v -17.5953243 2.24555257 -39.3234165
v -15.904063 2.39258528 -42.5962678
v -15.3207271 2.48215411 -46.7560074
v -16.1556881 2.5182955 -50.1799837
v -17.7688701 2.4780979 -52.9533634
v -19.194125 -0.198286017 -35.2924592
v -17.2149761 -0.206838566 -39.1352509
v -15.5414837 -0.206838566 -42.4250642
v -14.8774822 -0.206837613 -46.6970933
v -15.8652675 -0.206838566 -50.0479532
v -17.5287502 -0.20683952 -52.7857265
v -18.6832226 7.28253934 -53.1220378
v -17.2559307 7.56841174 -50.0317331
v -20.9103573 8.5529377 -45.3402134
v -17.3820141 8.20004299 -44.4336317
v -19.829211 8.37306046 -41.4887928
v -21.4074428 8.19325569 -51.3132995
v -16.7750652 8.13987665 -46.9000771
v -21.7418545 8.47710631 -48.1906004
v -17.2559307 7.56841174 -50.0317331
v -21.7418545 8.47710631 -48.1906004
v -17.3820141 8.20004299 -44.4336317
v -20.9103573 8.5529377 -45.3402134
v -21.7418545 8.47710631 -48.1906004
v -16.7750652 8.13987665 -46.9000771
v -17.3820141 8.20004299 -44.4336317
v -19.829211 8.37306046 -41.4887928
v -17.3820141 8.20004299 -44.4336317
v -18.9229153 6.98562292 -33.9374866
v -19.7919262 8.02021629 -52.9649219
v -17.2559307 7.56841174 -50.0317331
v -21.4074428 8.19325569 -51.3132995
vt 0.216996208 0.00999902375
vt 0.0100007262 1.37875986
vt 0.571881115 1.63044393
vt 1.79605341 1.05918407
vt 1.82027054 0.00999902375
vt 1.78001463 1.75405395
vt 3.0380652 1.06787574
vt 2.40986538 1.77733123
vt 1.35447204 1.98099089
vt 1.42839074 2.76788163
vt 0.599095345 2.67413759
vt 1.53514683 3.62948513
vt 0.697859526 3.93473768
vt 0.327439338 3.93473768
vt 0.228675038 2.67413759
vt 1.62873459 2.76788163
vt 1.73549044 3.62948513
vt 1.82965744 4.42404795
vt 1.24027336 4.6307559
vt 2.63755059 4.40421581
vt 1.94575703 6.95155287
vt 3.37385607 4.74882746
vt 3.55754423 5.70756245
vt 3.78812718 6.91106367
vt 5.36932611 3.39855433
vt 5.86284208 3.89632821
vt 7.39174938 4.10006618
vt 7.38306046 2.4555912
vt 5.09308529 3.21069169
vt 5.09308529 2.57533121
vt 4.2663188 3.91630673
vt 5.09308529 0.738274038
vt 2.06530952 3.91630673
vt 3.04388809 3.60980201
vt 3.03783703 0.738274038
vt 2.06530952 1.77816713
vt 6.95561934 0.561269283
vt 3.74389434 3.84253025
vt 4.2663188 3.91630673
vt 4.2663188 3.91630673
vt 4.2663188 3.91630673
vt 0.0485968292 1.20969951
vt 0.677140057 0.0561580434
vt 0.00999997742 0.0100001115
vt 0.702391326 1.08192706
vt 1.02553642 0.0903275684
vt 1.05078781 1.11609662
vt 1.51566339 0.126570299
vt 1.54091477 1.15233934
vt 2.44563293 0.0552145243
vt 2.47088385 1.08098352
vt 2.50193787 1.48570287
vt 1.57196832 1.55705845
vt 3.58912349 0.276406914
vt 3.58912349 0.0251390785
vt 3.42280054 0.276697397
vt 3.15841269 0.0251390785
vt 3.06463218 0.277003706
vt 2.84657073 0.0251390785
vt 2.78218412 0.27920866
vt 2.55506325 0.0251390785
vt 2.51318049 0.279151291
vt 3.23517418 0.540824234
vt 2.75632477 0.461054862
vt 3.58912349 0.622150242
vt 2.46128082 0.468369335
vt 2.75889587 0.627713919
vt 3.09954 0.697668195
vt 2.45839906 0.630531311
vt 3.58912349 0.77797699
vt 2.8799336 0.782608569
vt 3.1053257 0.836144686
vt 2.71674609 0.731503963
vt 2.53699565 0.725565851
vt 3.58912349 0.879463613
vt 2.30293226 0.27918613
vt 2.33478475 0.0251390785
vt 2.27829266 0.467928112
vt 2.2644341 0.609589398
vt 2.43587685 0.805733085
vt 2.33793306 0.770649314
vt 2.22542429 0.0251390785
vt 2.21163511 0.280710042
vt 2.20203853 0.465597242
vt 2.11731982 0.593710959
vt 2.09968567 0.453143716
vt 1.91919112 0.444187284
vt 1.92174196 0.586614013
vt 1.73230743 0.451885521
vt 1.74649 0.621022463
vt 1.52970266 0.476522952
vt 1.61320353 0.64425993
vt 0.966043174 0.646820366
vt 1.04894996 0.517611146
vt 0.966043174 0.512847662
vt 0.966043174 0.276163936
vt 1.22515512 0.27895993
vt 1.4456346 0.280489743
vt 1.69413352 0.281838715
vt 1.90064573 0.281955838
vt 2.08400202 0.281438172
vt 0.966043174 0.0251390785
vt 1.19056296 0.0251390785
vt 1.40733886 0.0251390785
vt 1.66459537 0.0251390785
vt 1.87588501 0.0251390785
vt 2.06684947 0.0251390785
vt 2.39749193 0.877988279
vt 2.58090162 0.971078098
vt 2.8799336 0.782608569
vt 3.1053257 0.836144686
vt 3.1053257 0.836144686
vt 2.53699565 0.725565851
vt 2.71674609 0.731503963
vt 2.71674609 0.731503963
vt 2.53699565 0.725565851
vt 2.71674609 0.731503963
vt 3.1053257 0.836144686
vt 2.8799336 0.782608569
vt 2.71674609 0.731503963
vt 2.71674609 0.731503963
vt 3.1053257 0.836144686
vt 3.1053257 0.836144686
vt 3.1053257 0.836144686
vt 3.58912349 0.879463613
vt 2.43587685 0.805733085
vt 2.53699565 0.725565851
vt 2.53699565 0.725565851
vn 0 1 2.22044605e-16
vn 0 1 2.22044605e-16
vn 0.0404840352 0.99911785 -0.0111608856
vn -0.000758415564 0.99946229 -0.0327804083
vn 0 1 2.22044605e-16
vn -0.0244259025 0.9981956 -0.0548536113
vn -0.0123989376 0.999631134 -0.0241632286
vn -0.0583349063 0.996120889 -0.0658802924
vn 0.0739472315 0.9970538 -0.0203844855
vn 0.0453597509 0.998892475 -0.0125026869
vn 0.0552866143 0.998354229 -0.0152388676
vn -0.0470202218 0.998751418 -0.0168731755
vn -0.0470656874 0.998749001 -0.0168894899
vn 0 1 2.22044605e-16
vn 0 1 2.22044605e-16
vn 0 1 2.22044605e-16
vn 0 1 2.22044605e-16
vn -0.0535977173 0.998377362 -0.0192335032
vn -0.0816304523 0.996232095 -0.0292930324
vn 0.0448064401 0.998833323 -0.0180104164
vn 0 1 2.22044605e-16
vn 0.0401001746 0.998779457 -0.0288369781
vn 0.00540934085 0.999917688 -0.0116342299
vn 0 1 2.22044605e-16
vn 0.00459109481 0.999867083 -0.0156441238
vn 0.00730126656 0.999864026 -0.0147858604
vn -0.000687792345 0.99999546 0.00293387423
vn -0.00105380049 0.999999055 0.000882381756
vn -0.00290758117 0.999995313 -0.000958751851
vn -0.00154002922 0.999998685 -0.000507812421
vn 0 1 2.22044605e-16
vn 0 1 2.22044605e-16
vn 0 1 2.22044605e-16
vn 0.0385626522 0.999135952 -0.0155006607
vn 0 1 2.22044605e-16
vn 0 1 2.22044605e-16
vn 0 1 2.22044605e-16
vn 0.0414280194 0.999002711 -0.0166524269
vn 0 1 2.22044605e-16
vn 0 1 2.22044605e-16
vn 0 1 2.22044605e-16
vn -0.00537092462 0.993688208 -0.112048647
vn -0.00505523377 0.994782987 -0.101888433
vn -0.00537092462 0.993688208 -0.112048647
vn -0.00503628662 0.994845329 -0.101278858
vn -0.00360432927 0.99758967 -0.069295441
vn -0.00344025581 0.997804354 -0.0661410249
vn -0.00834580095 0.987008191 -0.160453042
vn -0.00559144883 0.979084281 -0.203378236
vn -0.0144011638 0.960799156 -0.276871068
vn -0.00731342919 0.960873111 -0.276892359
vn 0 0.960898812 -0.276899754
vn 0 0.960898812 -0.276899754
vn -0.797472407 0.256721138 0.546014668
vn -0.803142458 0.290487963 0.520172025
vn -0.848593337 0.254756627 0.463668427
vn -0.943477837 0.186070667 0.274275915
vn -0.920413452 0.316927661 0.228901585
vn -0.980850337 0.153239936 -0.120208727
vn -0.945043508 0.279733059 -0.169240017
vn -0.727464313 0.115478163 -0.676358239
vn -0.718629971 0.202087862 -0.665380689
vn -0.847257381 0.436890095 0.302129071
vn -0.832462739 0.547987201 -0.0819500816
vn -0.854545437 0.343792522 0.389305533
vn -0.690228148 0.43024032 -0.581788941
vn -0.61143449 0.791266544 -0.00671716164
vn -0.573097864 0.801885951 0.168931226
vn -0.536721153 0.735564929 -0.413369858
vn -0.451278234 0.855877449 0.252629665
vn -0.363800823 0.927874837 0.0818367183
vn -0.243317389 0.960341442 0.136165208
vn -0.442894612 0.895555683 -0.0427127782
vn -0.397030634 0.887076681 -0.235502945
vn 7.69732423e-05 0.98353809 0.180700913
vn -0.197198822 0.06867491 -0.977955204
vn -0.225172867 0.0412311499 -0.973446029
vn -0.17249276 0.225112209 -0.958942512
vn 0.00525168169 0.603247155 -0.797537015
vn 0.136465084 0.874730491 -0.464998762
vn 0.00525168169 0.603247155 -0.797537015
vn 0.402167432 0.00133690592 -0.915565164
vn 0.441506993 0.0293700031 -0.896776995
vn 0.507906282 0.136474284 -0.850532761
vn 0.65738259 0.517463118 -0.547795629
vn 0.80243215 0.157001703 -0.575719646
vn 0.913960345 0.217404128 -0.342654247
vn 0.882090899 0.34005907 -0.325999196
vn 0.963599141 0.265494054 -0.0314579387
vn 0.938057939 0.346425037 -0.00608243724
vn 0.949294602 0.244078589 0.198154991
vn 0.916842678 0.356737952 0.179269453
vn 0.864985231 0.0177235404 0.501484223
vn 0.881331391 -0.0893803886 0.463967806
vn 0.649195272 -0.405365254 0.643602757
vn 0.831222837 -0.149667943 0.535413954
vn 0.908015176 0.0621427147 0.414302696
vn 0.954926347 0.136187085 0.263758884
vn 0.985213888 0.164379309 -0.0483015327
vn 0.919325722 0.120797316 -0.374497296
vn 0.79220984 0.0696897625 -0.606256469
vn 0.863128081 0.200091706 0.463652052
vn 0.870151721 0.180631202 0.458484843
vn 0.938567167 0.160342597 0.305584563
vn 0.988570222 0.141323602 -0.0525029082
vn 0.920215698 0.0910433818 -0.380675941
vn 0.791429495 0.0348519455 -0.610266087
vn 0.65738259 0.517463118 -0.547795629
vn 0.882090899 0.34005907 -0.325999196
vn 0.0944159636 0.995332273 0.0199822778
vn 0.094415971 0.995332273 0.0199822796
vn 0.0944159783 0.995332272 0.0199822796
vn 0.142180988 0.980260128 -0.137385033
vn 0.142180974 0.980260132 -0.137385019
vn 0.142180974 0.980260132 -0.137385019
vn 0.142180974 0.98026013 -0.137385034
vn 0.0884372335 0.995653588 -0.0292025529
vn 0.0884372261 0.995653588 -0.0292025511
vn 0.0884372261 0.995653588 -0.0292025529
vn 0.0884372335 0.995653588 -0.0292025529
vn 0.0884372335 0.995653588 -0.0292025548
vn 0.0884372261 0.995653588 -0.0292025511
vn 0.244392841 0.958503081 0.14677869
vn 0.244392841 0.958503078 0.146778704
vn 0.244392841 0.958503078 0.146778704
vn 0.139007387 0.989765374 0.0322715034
vn 0.139007387 0.989765375 0.0322714997
vn 0.139007387 0.989765374 0.0322715034

g collision_ground_submesh_0
usemtl collision_8
f 115/115/115 117/117/117 116/116/116
f 118/118/118 117/117/117 115/115/115
f 115/115/115 119/119/119 118/118/118
f 117/117/117 118/118/118 120/120/120
f 118/118/118 121/121/121 120/120/120
f 121/121/121 122/122/122 120/120/120
f 117/117/117 120/120/120 123/123/123
f 117/117/117 123/123/123 124/124/124
f 117/117/117 124/124/124 125/125/125
f 125/125/125 124/124/124 126/126/126
f 125/125/125 126/126/126 127/127/127
f 125/125/125 127/127/127 128/128/128
f 125/125/125 128/128/128 129/129/129
f 126/126/126 124/124/124 130/130/130
f 126/126/126 130/130/130 131/131/131
f 127/127/127 126/126/126 132/132/132
f 127/127/127 132/132/132 133/133/133
f 133/133/133 132/132/132 134/134/134
f 133/133/133 134/134/134 135/135/135
f 135/135/135 134/134/134 136/136/136
f 135/135/135 136/136/136 137/137/137
f 137/137/137 138/138/138 135/135/135
f 137/137/137 136/136/136 139/139/139
f 137/137/137 139/139/139 140/140/140
f 139/139/139 141/141/141 140/140/140
f 139/139/139 142/142/142 141/141/141
f 143/143/143 142/142/142 139/139/139
f 143/143/143 144/144/144 142/142/142
f 144/144/144 143/143/143 145/145/145
f 142/142/142 144/144/144 146/146/146
f 147/147/147 146/146/146 144/144/144
f 147/147/147 144/144/144 148/148/148
f 148/148/148 136/136/136 134/134/134
f 147/147/147 121/121/121 146/146/146
f 149/149/149 146/146/146 121/121/121
f 147/147/147 122/122/122 121/121/121
f 122/122/122 147/147/147 150/150/150
f 142/142/142 146/146/146 151/151/151
f 148/148/148 144/144/144 152/152/152
f 144/144/144 153/153/153 152/152/152
f 148/148/148 152/152/152 136/136/136
f 144/144/144 155/155/155 154/154/154
f 156/156/156 158/158/158 157/157/157
f 156/156/156 157/157/157 159/159/159
f 159/159/159 157/157/157 160/160/160
f 159/159/159 160/160/160 161/161/161
f 161/161/161 160/160/160 162/162/162
f 161/161/161 162/162/162 163/163/163
f 163/163/163 162/162/162 164/164/164
f 163/163/163 164/164/164 165/165/165
f 163/163/163 165/165/165 166/166/166
f 163/163/163 166/166/166 167/167/167

g collision_ground_submesh_1
usemtl collision_8
f 168/168/168 170/170/170 169/169/169
f 170/170/170 171/171/171 169/169/169
f 170/170/170 172/172/172 171/171/171
f 172/172/172 173/173/173 171/171/171
f 172/172/172 174/174/174 173/173/173
f 174/174/174 175/175/175 173/173/173
f 174/174/174 176/176/176 175/175/175
f 170/170/170 177/177/177 172/172/172
f 168/168/168 177/177/177 170/170/170
f 177/177/177 178/178/178 172/172/172
f 176/176/176 174/174/174 178/178/178
f 178/178/178 174/174/174 172/172/172
f 168/168/168 179/179/179 177/177/177
f 176/176/176 178/178/178 180/180/180
f 181/181/181 178/178/178 177/177/177
f 181/181/181 177/177/177 182/182/182
f 182/182/182 177/177/177 179/179/179
f 178/178/178 181/181/181 183/183/183
f 178/178/178 183/183/183 180/180/180
f 182/182/182 179/179/179 184/184/184
f 185/185/185 182/182/182 184/184/184
f 181/181/181 182/182/182 185/185/185
f 185/185/185 184/184/184 186/186/186
f 183/183/183 181/181/181 187/187/187
f 181/181/181 185/185/185 187/187/187
f 183/183/183 187/187/187 188/188/188
f 184/184/184 189/189/189 186/186/186
f 190/190/190 175/175/175 176/176/176
f 190/190/190 191/191/191 175/175/175
f 192/192/192 190/190/190 176/176/176
f 192/192/192 176/176/176 180/180/180
f 193/193/193 192/192/192 180/180/180
f 193/193/193 180/180/180 183/183/183
f 194/194/194 183/183/183 188/188/188
f 194/194/194 195/195/195 183/183/183
f 190/190/190 196/196/196 191/191/191
f 190/190/190 197/197/197 196/196/196
f 197/197/197 190/190/190 192/192/192
f 192/192/192 193/193/193 198/198/198
f 197/197/197 192/192/192 198/198/198
f 193/193/193 199/199/199 198/198/198
f 200/200/200 197/197/197 198/198/198
f 199/199/199 200/200/200 198/198/198
f 201/201/201 200/200/200 199/199/199
f 201/201/201 199/199/199 202/202/202
f 203/203/203 201/201/201 202/202/202
f 203/203/203 202/202/202 204/204/204
f 204/204/204 205/205/205 203/203/203
f 204/204/204 206/206/206 205/205/205
f 207/207/207 205/205/205 206/206/206
f 207/207/207 208/208/208 205/205/205
f 207/207/207 209/209/209 208/208/208
f 210/210/210 208/208/208 209/209/209
f 210/210/210 211/211/211 208/208/208
f 208/208/208 211/211/211 212/212/212
f 208/208/208 212/212/212 205/205/205
f 205/205/205 212/212/212 213/213/213
f 205/205/205 213/213/213 203/203/203
f 203/203/203 213/213/213 214/214/214
f 203/203/203 214/214/214 201/201/201
f 214/214/214 200/200/200 201/201/201
f 214/214/214 215/215/215 200/200/200
f 200/200/200 215/215/215 197/197/197
f 216/216/216 211/211/211 210/210/210
f 216/216/216 217/217/217 211/211/211
f 211/211/211 217/217/217 218/218/218
f 211/211/211 218/218/218 212/212/212
f 218/218/218 213/213/213 212/212/212
f 218/218/218 219/219/219 213/213/213
f 213/213/213 219/219/219 220/220/220
f 213/213/213 220/220/220 214/214/214
f 220/220/220 215/215/215 214/214/214
f 220/220/220 221/221/221 215/215/215
f 215/215/215 221/221/221 196/196/196
f 215/215/215 196/196/196 197/197/197
f 195/195/195 194/194/194 222/222/222
f 194/194/194 223/223/223 222/222/222

g collision_ground_submesh_2
usemtl collision_8
f 224/224/224 226/226/226 225/225/225
f 227/227/227 229/229/229 228/228/228
f 227/227/227 228/228/228 230/230/230
f 231/231/231 233/233/233 232/232/232
f 234/234/234 236/236/236 235/235/235
f 237/237/237 239/239/239 238/238/238
f 240/240/240 242/242/242 241/241/241
