{"asset":{"version":"2.0","generator":"Star Warfare Unity lightmap restoration"},"scene":0,"scenes":[{"nodes":[0]}],"nodes":[{"name":"RestoredStage","mesh":0}],"meshes":[{"name":"RestoredStage","primitives":[{"attributes":{"POSITION":0,"NORMAL":1,"TEXCOORD_0":2,"TEXCOORD_1":3},"indices":4,"material":0},{"attributes":{"POSITION":5,"NORMAL":6,"TEXCOORD_0":7,"TEXCOORD_1":8},"indices":9,"material":1},{"attributes":{"POSITION":10,"NORMAL":11,"TEXCOORD_0":12,"TEXCOORD_1":13},"indices":14,"material":2},{"attributes":{"POSITION":15,"NORMAL":16,"TEXCOORD_0":17,"TEXCOORD_1":18},"indices":19,"material":3},{"attributes":{"POSITION":20,"NORMAL":21,"TEXCOORD_0":22,"TEXCOORD_1":23},"indices":24,"material":4},{"attributes":{"POSITION":25,"NORMAL":26,"TEXCOORD_0":27,"TEXCOORD_1":28},"indices":29,"material":5},{"attributes":{"POSITION":30,"NORMAL":31,"TEXCOORD_0":32,"TEXCOORD_1":33},"indices":34,"material":6},{"attributes":{"POSITION":35,"NORMAL":36,"TEXCOORD_0":37,"TEXCOORD_1":38},"indices":39,"material":7},{"attributes":{"POSITION":40,"NORMAL":41,"TEXCOORD_0":42,"TEXCOORD_1":43},"indices":44,"material":8},{"attributes":{"POSITION":45,"NORMAL":46,"TEXCOORD_0":47,"TEXCOORD_1":48},"indices":49,"material":9},{"attributes":{"POSITION":50,"NORMAL":51,"TEXCOORD_0":52,"TEXCOORD_1":53},"indices":54,"material":10},{"attributes":{"POSITION":55,"NORMAL":56,"TEXCOORD_0":57,"TEXCOORD_1":58},"indices":59,"material":11},{"attributes":{"POSITION":60,"NORMAL":61,"TEXCOORD_0":62,"TEXCOORD_1":63},"indices":64,"material":12},{"attributes":{"POSITION":65,"NORMAL":66,"TEXCOORD_0":67,"TEXCOORD_1":68},"indices":69,"material":13},{"attributes":{"POSITION":70,"NORMAL":71,"TEXCOORD_0":72,"TEXCOORD_1":73},"indices":74,"material":14},{"attributes":{"POSITION":75,"NORMAL":76,"TEXCOORD_0":77,"TEXCOORD_1":78},"indices":79,"material":15},{"attributes":{"POSITION":80,"NORMAL":81,"TEXCOORD_0":82,"TEXCOORD_1":83},"indices":84,"material":16},{"attributes":{"POSITION":85,"NORMAL":86,"TEXCOORD_0":87,"TEXCOORD_1":88},"indices":89,"material":17},{"attributes":{"POSITION":90,"NORMAL":91,"TEXCOORD_0":92,"TEXCOORD_1":93},"indices":94,"material":18},{"attributes":{"POSITION":95,"NORMAL":96,"TEXCOORD_0":97,"TEXCOORD_1":98},"indices":99,"material":19},{"attributes":{"POSITION":100,"NORMAL":101,"TEXCOORD_0":102,"TEXCOORD_1":103},"indices":104,"material":20},{"attributes":{"POSITION":105,"NORMAL":106,"TEXCOORD_0":107,"TEXCOORD_1":108},"indices":109,"material":21},{"attributes":{"POSITION":110,"NORMAL":111,"TEXCOORD_0":112,"TEXCOORD_1":113},"indices":114,"material":22},{"attributes":{"POSITION":115,"NORMAL":116,"TEXCOORD_0":117,"TEXCOORD_1":118},"indices":119,"material":23},{"attributes":{"POSITION":120,"NORMAL":121,"TEXCOORD_0":122,"TEXCOORD_1":123},"indices":124,"material":24},{"attributes":{"POSITION":125,"NORMAL":126,"TEXCOORD_0":127,"TEXCOORD_1":128},"indices":129,"material":25}]}],"bufferViews":[{"buffer":0,"byteOffset":0,"byteLength":11796},{"buffer":0,"byteOffset":11796,"byteLength":11796},{"buffer":0,"byteOffset":23592,"byteLength":7864},{"buffer":0,"byteOffset":31456,"byteLength":7864},{"buffer":0,"byteOffset":39320,"byteLength":5892},{"buffer":0,"byteOffset":45212,"byteLength":744},{"buffer":0,"byteOffset":45956,"byteLength":744},{"buffer":0,"byteOffset":46700,"byteLength":496},{"buffer":0,"byteOffset":47196,"byteLength":496},{"buffer":0,"byteOffset":47692,"byteLength":768},{"buffer":0,"byteOffset":48460,"byteLength":11832},{"buffer":0,"byteOffset":60292,"byteLength":11832},{"buffer":0,"byteOffset":72124,"byteLength":7888},{"buffer":0,"byteOffset":80012,"byteLength":7888},{"buffer":0,"byteOffset":87900,"byteLength":14976},{"buffer":0,"byteOffset":102876,"byteLength":948},{"buffer":0,"byteOffset":103824,"byteLength":948},{"buffer":0,"byteOffset":104772,"byteLength":632},{"buffer":0,"byteOffset":105404,"byteLength":632},{"buffer":0,"byteOffset":106036,"byteLength":828},{"buffer":0,"byteOffset":106864,"byteLength":18984},{"buffer":0,"byteOffset":125848,"byteLength":18984},{"buffer":0,"byteOffset":144832,"byteLength":12656},{"buffer":0,"byteOffset":157488,"byteLength":12656},{"buffer":0,"byteOffset":170144,"byteLength":21120},{"buffer":0,"byteOffset":191264,"byteLength":16584},{"buffer":0,"byteOffset":207848,"byteLength":16584},{"buffer":0,"byteOffset":224432,"byteLength":11056},{"buffer":0,"byteOffset":235488,"byteLength":11056},{"buffer":0,"byteOffset":246544,"byteLength":16512},{"buffer":0,"byteOffset":263056,"byteLength":14436},{"buffer":0,"byteOffset":277492,"byteLength":14436},{"buffer":0,"byteOffset":291928,"byteLength":9624},{"buffer":0,"byteOffset":301552,"byteLength":9624},{"buffer":0,"byteOffset":311176,"byteLength":18972},{"buffer":0,"byteOffset":330148,"byteLength":1428},{"buffer":0,"byteOffset":331576,"byteLength":1428},{"buffer":0,"byteOffset":333004,"byteLength":952},{"buffer":0,"byteOffset":333956,"byteLength":952},{"buffer":0,"byteOffset":334908,"byteLength":1296},{"buffer":0,"byteOffset":336204,"byteLength":14472},{"buffer":0,"byteOffset":350676,"byteLength":14472},{"buffer":0,"byteOffset":365148,"byteLength":9648},{"buffer":0,"byteOffset":374796,"byteLength":9648},{"buffer":0,"byteOffset":384444,"byteLength":15900},{"buffer":0,"byteOffset":400344,"byteLength":5868},{"buffer":0,"byteOffset":406212,"byteLength":5868},{"buffer":0,"byteOffset":412080,"byteLength":3912},{"buffer":0,"byteOffset":415992,"byteLength":3912},{"buffer":0,"byteOffset":419904,"byteLength":5328},{"buffer":0,"byteOffset":425232,"byteLength":9672},{"buffer":0,"byteOffset":434904,"byteLength":9672},{"buffer":0,"byteOffset":444576,"byteLength":6448},{"buffer":0,"byteOffset":451024,"byteLength":6448},{"buffer":0,"byteOffset":457472,"byteLength":9804},{"buffer":0,"byteOffset":467276,"byteLength":2028},{"buffer":0,"byteOffset":469304,"byteLength":2028},{"buffer":0,"byteOffset":471332,"byteLength":1352},{"buffer":0,"byteOffset":472684,"byteLength":1352},{"buffer":0,"byteOffset":474036,"byteLength":1848},{"buffer":0,"byteOffset":475884,"byteLength":2316},{"buffer":0,"byteOffset":478200,"byteLength":2316},{"buffer":0,"byteOffset":480516,"byteLength":1544},{"buffer":0,"byteOffset":482060,"byteLength":1544},{"buffer":0,"byteOffset":483604,"byteLength":2868},{"buffer":0,"byteOffset":486472,"byteLength":1320},{"buffer":0,"byteOffset":487792,"byteLength":1320},{"buffer":0,"byteOffset":489112,"byteLength":880},{"buffer":0,"byteOffset":489992,"byteLength":880},{"buffer":0,"byteOffset":490872,"byteLength":1212},{"buffer":0,"byteOffset":492084,"byteLength":480},{"buffer":0,"byteOffset":492564,"byteLength":480},{"buffer":0,"byteOffset":493044,"byteLength":320},{"buffer":0,"byteOffset":493364,"byteLength":320},{"buffer":0,"byteOffset":493684,"byteLength":288},{"buffer":0,"byteOffset":493972,"byteLength":852},{"buffer":0,"byteOffset":494824,"byteLength":852},{"buffer":0,"byteOffset":495676,"byteLength":568},{"buffer":0,"byteOffset":496244,"byteLength":568},{"buffer":0,"byteOffset":496812,"byteLength":1296},{"buffer":0,"byteOffset":498108,"byteLength":2508},{"buffer":0,"byteOffset":500616,"byteLength":2508},{"buffer":0,"byteOffset":503124,"byteLength":1672},{"buffer":0,"byteOffset":504796,"byteLength":1672},{"buffer":0,"byteOffset":506468,"byteLength":3456},{"buffer":0,"byteOffset":509924,"byteLength":1608},{"buffer":0,"byteOffset":511532,"byteLength":1608},{"buffer":0,"byteOffset":513140,"byteLength":1072},{"buffer":0,"byteOffset":514212,"byteLength":1072},{"buffer":0,"byteOffset":515284,"byteLength":1752},{"buffer":0,"byteOffset":517036,"byteLength":1884},{"buffer":0,"byteOffset":518920,"byteLength":1884},{"buffer":0,"byteOffset":520804,"byteLength":1256},{"buffer":0,"byteOffset":522060,"byteLength":1256},{"buffer":0,"byteOffset":523316,"byteLength":1800},{"buffer":0,"byteOffset":525116,"byteLength":1824},{"buffer":0,"byteOffset":526940,"byteLength":1824},{"buffer":0,"byteOffset":528764,"byteLength":1216},{"buffer":0,"byteOffset":529980,"byteLength":1216},{"buffer":0,"byteOffset":531196,"byteLength":2376},{"buffer":0,"byteOffset":533572,"byteLength":23424},{"buffer":0,"byteOffset":556996,"byteLength":23424},{"buffer":0,"byteOffset":580420,"byteLength":15616},{"buffer":0,"byteOffset":596036,"byteLength":15616},{"buffer":0,"byteOffset":611652,"byteLength":11904},{"buffer":0,"byteOffset":623556,"byteLength":1236},{"buffer":0,"byteOffset":624792,"byteLength":1236},{"buffer":0,"byteOffset":626028,"byteLength":824},{"buffer":0,"byteOffset":626852,"byteLength":824},{"buffer":0,"byteOffset":627676,"byteLength":1092},{"buffer":0,"byteOffset":628768,"byteLength":2748},{"buffer":0,"byteOffset":631516,"byteLength":2748},{"buffer":0,"byteOffset":634264,"byteLength":1832},{"buffer":0,"byteOffset":636096,"byteLength":1832},{"buffer":0,"byteOffset":637928,"byteLength":3240},{"buffer":0,"byteOffset":641168,"byteLength":972},{"buffer":0,"byteOffset":642140,"byteLength":972},{"buffer":0,"byteOffset":643112,"byteLength":648},{"buffer":0,"byteOffset":643760,"byteLength":648},{"buffer":0,"byteOffset":644408,"byteLength":912},{"buffer":0,"byteOffset":645320,"byteLength":9252},{"buffer":0,"byteOffset":654572,"byteLength":9252},{"buffer":0,"byteOffset":663824,"byteLength":6168},{"buffer":0,"byteOffset":669992,"byteLength":6168},{"buffer":0,"byteOffset":676160,"byteLength":12492},{"buffer":0,"byteOffset":688652,"byteLength":636},{"buffer":0,"byteOffset":689288,"byteLength":636},{"buffer":0,"byteOffset":689924,"byteLength":424},{"buffer":0,"byteOffset":690348,"byteLength":424},{"buffer":0,"byteOffset":690772,"byteLength":624}],"accessors":[{"bufferView":0,"componentType":5126,"count":983,"type":"VEC3","min":[-50.1508789,-0.535295188,-85.1940079],"max":[58.6771088,31.4522591,3.79556847]},{"bufferView":1,"componentType":5126,"count":983,"type":"VEC3","min":[-0.999438783,-0.999766737,-0.995520166],"max":[0.952418006,0.809257796,0.997321268]},{"bufferView":2,"componentType":5126,"count":983,"type":"VEC2"},{"bufferView":3,"componentType":5126,"count":983,"type":"VEC2"},{"bufferView":4,"componentType":5125,"count":1473,"type":"SCALAR"},{"bufferView":5,"componentType":5126,"count":62,"type":"VEC3","min":[-42.9768105,6.79427767,-57.0225182],"max":[13.3293848,25.4636993,2.18636703]},{"bufferView":6,"componentType":5126,"count":62,"type":"VEC3","min":[-0.765055756,-0.997518356,-0.866224103],"max":[0.87149545,0.995071707,0.910445531]},{"bufferView":7,"componentType":5126,"count":62,"type":"VEC2"},{"bufferView":8,"componentType":5126,"count":62,"type":"VEC2"},{"bufferView":9,"componentType":5125,"count":192,"type":"SCALAR"},{"bufferView":10,"componentType":5126,"count":986,"type":"VEC3","min":[-58.7637405,-2.15474105,-86.2237015],"max":[55.3698769,29.7302818,-1.8435657]},{"bufferView":11,"componentType":5126,"count":986,"type":"VEC3","min":[-0.994837234,-0.999698646,-0.998831251],"max":[0.999639127,0.999844282,0.999755194]},{"bufferView":12,"componentType":5126,"count":986,"type":"VEC2"},{"bufferView":13,"componentType":5126,"count":986,"type":"VEC2"},{"bufferView":14,"componentType":5125,"count":3744,"type":"SCALAR"},{"bufferView":15,"componentType":5126,"count":79,"type":"VEC3","min":[-38.1023216,-2.14772916,-68.1903458],"max":[20.6052303,1.27209938,-36.7755623]},{"bufferView":16,"componentType":5126,"count":79,"type":"VEC3","min":[-0.986856632,0.0283259182,-0.988965247],"max":[0.978765282,0.40184808,0.980584059]},{"bufferView":17,"componentType":5126,"count":79,"type":"VEC2"},{"bufferView":18,"componentType":5126,"count":79,"type":"VEC2"},{"bufferView":19,"componentType":5125,"count":207,"type":"SCALAR"},{"bufferView":20,"componentType":5126,"count":1582,"type":"VEC3","min":[-63.1743011,-11.3621168,-92.1029129],"max":[50.6476593,20.8974991,18.2714748]},{"bufferView":21,"componentType":5126,"count":1582,"type":"VEC3","min":[-0.998488712,-0.99636599,-0.998989239],"max":[0.998311374,0.998821287,0.999822693]},{"bufferView":22,"componentType":5126,"count":1582,"type":"VEC2"},{"bufferView":23,"componentType":5126,"count":1582,"type":"VEC2"},{"bufferView":24,"componentType":5125,"count":5280,"type":"SCALAR"},{"bufferView":25,"componentType":5126,"count":1382,"type":"VEC3","min":[-56.6246643,-4.98912907,-83.8965836],"max":[47.3499222,33.0935097,32.0884285]},{"bufferView":26,"componentType":5126,"count":1382,"type":"VEC3","min":[-0.999557302,-0.999885741,-0.998309165],"max":[0.998568117,0.999959373,0.999841873]},{"bufferView":27,"componentType":5126,"count":1382,"type":"VEC2"},{"bufferView":28,"componentType":5126,"count":1382,"type":"VEC2"},{"bufferView":29,"componentType":5125,"count":4128,"type":"SCALAR"},{"bufferView":30,"componentType":5126,"count":1203,"type":"VEC3","min":[-45.3874931,-2.43800521,-74.7978668],"max":[54.9770851,25.3401318,27.2267017]},{"bufferView":31,"componentType":5126,"count":1203,"type":"VEC3","min":[-0.996526694,-0.999994783,-0.998344169],"max":[0.998095457,0.997876103,0.999185534]},{"bufferView":32,"componentType":5126,"count":1203,"type":"VEC2"},{"bufferView":33,"componentType":5126,"count":1203,"type":"VEC2"},{"bufferView":34,"componentType":5125,"count":4743,"type":"SCALAR"},{"bufferView":35,"componentType":5126,"count":119,"type":"VEC3","min":[-43.0725555,1.72869885,1.10504484],"max":[-1.41020203,25.187521,19.6463108]},{"bufferView":36,"componentType":5126,"count":119,"type":"VEC3","min":[-0.981130297,-0.360687358,-0.997775272],"max":[0.981775192,0.517749536,0.999822693]},{"bufferView":37,"componentType":5126,"count":119,"type":"VEC2"},{"bufferView":38,"componentType":5126,"count":119,"type":"VEC2"},{"bufferView":39,"componentType":5125,"count":324,"type":"SCALAR"},{"bufferView":40,"componentType":5126,"count":1206,"type":"VEC3","min":[-57.730999,-3.85003376,-84.6652222],"max":[47.9962997,21.4042339,1.90416431]},{"bufferView":41,"componentType":5126,"count":1206,"type":"VEC3","min":[-0.999858345,-0.994369263,-0.999736419],"max":[0.99991766,0.997870803,0.999231028]},{"bufferView":42,"componentType":5126,"count":1206,"type":"VEC2"},{"bufferView":43,"componentType":5126,"count":1206,"type":"VEC2"},{"bufferView":44,"componentType":5125,"count":3975,"type":"SCALAR"},{"bufferView":45,"componentType":5126,"count":489,"type":"VEC3","min":[-57.730999,-0.17341888,-84.6652222],"max":[48.1005783,24.6614113,-3.03882599]},{"bufferView":46,"componentType":5126,"count":489,"type":"VEC3","min":[-0.948696076,-0.783497291,-0.999736419],"max":[0.99991766,0.780010397,0.999231028]},{"bufferView":47,"componentType":5126,"count":489,"type":"VEC2"},{"bufferView":48,"componentType":5126,"count":489,"type":"VEC2"},{"bufferView":49,"componentType":5125,"count":1332,"type":"SCALAR"},{"bufferView":50,"componentType":5126,"count":806,"type":"VEC3","min":[-56.9842033,-11.0313826,-84.1449814],"max":[47.4332466,6.33645058,2.30219817]},{"bufferView":51,"componentType":5126,"count":806,"type":"VEC3","min":[-0.995271978,-0.325044867,-0.999344561],"max":[0.993312296,0.880736226,0.997050468]},{"bufferView":52,"componentType":5126,"count":806,"type":"VEC2"},{"bufferView":53,"componentType":5126,"count":806,"type":"VEC2"},{"bufferView":54,"componentType":5125,"count":2451,"type":"SCALAR"},{"bufferView":55,"componentType":5126,"count":169,"type":"VEC3","min":[-45.086792,-2.16531992,-29.9387321],"max":[35.0108833,7.42521667,30.9650078]},{"bufferView":56,"componentType":5126,"count":169,"type":"VEC3","min":[-0.979623076,0.102202735,-0.934229711],"max":[0.963258427,0.813617981,0.984290542]},{"bufferView":57,"componentType":5126,"count":169,"type":"VEC2"},{"bufferView":58,"componentType":5126,"count":169,"type":"VEC2"},{"bufferView":59,"componentType":5125,"count":462,"type":"SCALAR"},{"bufferView":60,"componentType":5126,"count":193,"type":"VEC3","min":[-39.4429932,-1.38814986,-52.9649315],"max":[37.974823,21.9510803,33.2025986]},{"bufferView":61,"componentType":5126,"count":193,"type":"VEC3","min":[-0.960634868,0.138725301,-0.830459158],"max":[0.244388684,0.995658668,0.280782405]},{"bufferView":62,"componentType":5126,"count":193,"type":"VEC2"},{"bufferView":63,"componentType":5126,"count":193,"type":"VEC2"},{"bufferView":64,"componentType":5125,"count":717,"type":"SCALAR"},{"bufferView":65,"componentType":5126,"count":110,"type":"VEC3","min":[-45.3874969,6.92270947,-26.8077145],"max":[40.3708801,21.7132034,33.2025909]},{"bufferView":66,"componentType":5126,"count":110,"type":"VEC3","min":[-0.869752064,-0.16864952,-0.940237622],"max":[0.989383001,0.85284249,0.996142127]},{"bufferView":67,"componentType":5126,"count":110,"type":"VEC2"},{"bufferView":68,"componentType":5126,"count":110,"type":"VEC2"},{"bufferView":69,"componentType":5125,"count":303,"type":"SCALAR"},{"bufferView":70,"componentType":5126,"count":40,"type":"VEC3","min":[-32.4490814,-4.67138052,-53.1210022],"max":[-7.86390686,31.1586494,-20.1305141]},{"bufferView":71,"componentType":5126,"count":40,"type":"VEC3","min":[-0.98582008,-0.186923754,-0.769671684],"max":[0.98582008,0.54406103,0.879087355]},{"bufferView":72,"componentType":5126,"count":40,"type":"VEC2"},{"bufferView":73,"componentType":5126,"count":40,"type":"VEC2"},{"bufferView":74,"componentType":5125,"count":72,"type":"SCALAR"},{"bufferView":75,"componentType":5126,"count":71,"type":"VEC3","min":[-183.501053,-64.9860306,-189.254044],"max":[151.343796,231.227463,147.111328]},{"bufferView":76,"componentType":5126,"count":71,"type":"VEC3","min":[-0.999644542,-1.0,-0.999644542],"max":[0.999644542,5.96357838e-08,0.999644542]},{"bufferView":77,"componentType":5126,"count":71,"type":"VEC2"},{"bufferView":78,"componentType":5126,"count":71,"type":"VEC2"},{"bufferView":79,"componentType":5125,"count":324,"type":"SCALAR"},{"bufferView":80,"componentType":5126,"count":209,"type":"VEC3","min":[-27.4738731,-12.0329914,-83.4290237],"max":[-6.69585943,7.96235323,-27.9080563]},{"bufferView":81,"componentType":5126,"count":209,"type":"VEC3","min":[-0.982800091,-0.619894687,-0.980456832],"max":[0.999603272,0.980050832,0.986928782]},{"bufferView":82,"componentType":5126,"count":209,"type":"VEC2"},{"bufferView":83,"componentType":5126,"count":209,"type":"VEC2"},{"bufferView":84,"componentType":5125,"count":864,"type":"SCALAR"},{"bufferView":85,"componentType":5126,"count":134,"type":"VEC3","min":[-46.3401337,-11.7925425,-2.83839488],"max":[-1.59428406,4.03840637,24.4008904]},{"bufferView":86,"componentType":5126,"count":134,"type":"VEC3","min":[-0.99628749,-0.121974068,-0.99265559],"max":[0.981775192,0.554838506,0.994359087]},{"bufferView":87,"componentType":5126,"count":134,"type":"VEC2"},{"bufferView":88,"componentType":5126,"count":134,"type":"VEC2"},{"bufferView":89,"componentType":5125,"count":438,"type":"SCALAR"},{"bufferView":90,"componentType":5126,"count":157,"type":"VEC3","min":[-4.06234026,0.681461692,-45.2848587],"max":[4.41123247,24.6112404,-10.518981]},{"bufferView":91,"componentType":5126,"count":157,"type":"VEC3","min":[-0.999099849,-0.946727479,-0.799059391],"max":[-0.312889035,0.377576012,0.752673113]},{"bufferView":92,"componentType":5126,"count":157,"type":"VEC2"},{"bufferView":93,"componentType":5126,"count":157,"type":"VEC2"},{"bufferView":94,"componentType":5125,"count":450,"type":"SCALAR"},{"bufferView":95,"componentType":5126,"count":152,"type":"VEC3","min":[-16.7806892,-2.00792241,-70.401207],"max":[37.1059418,26.833107,11.0441656]},{"bufferView":96,"componentType":5126,"count":152,"type":"VEC3","min":[-0.937870022,-0.997605439,-0.973506032],"max":[0.99457817,0.885172475,0.99728586]},{"bufferView":97,"componentType":5126,"count":152,"type":"VEC2"},{"bufferView":98,"componentType":5126,"count":152,"type":"VEC2"},{"bufferView":99,"componentType":5125,"count":594,"type":"SCALAR"},{"bufferView":100,"componentType":5126,"count":1952,"type":"VEC3","min":[-32.9159355,1.2810955,-66.214447],"max":[55.9095688,25.67729,13.0292234]},{"bufferView":101,"componentType":5126,"count":1952,"type":"VEC3","min":[-0.998615691,-0.999680742,-0.99898427],"max":[0.992831955,0.996739784,0.996832724]},{"bufferView":102,"componentType":5126,"count":1952,"type":"VEC2"},{"bufferView":103,"componentType":5126,"count":1952,"type":"VEC2"},{"bufferView":104,"componentType":5125,"count":2976,"type":"SCALAR"},{"bufferView":105,"componentType":5126,"count":103,"type":"VEC3","min":[-59.5295105,7.39794922,73.1552505],"max":[15.0727997,28.9422913,106.54393]},{"bufferView":106,"componentType":5126,"count":103,"type":"VEC3","min":[-0.996129242,0.00300791786,-0.97920349],"max":[0.952952821,0.990491229,0.679485435]},{"bufferView":107,"componentType":5126,"count":103,"type":"VEC2"},{"bufferView":108,"componentType":5126,"count":103,"type":"VEC2"},{"bufferView":109,"componentType":5125,"count":273,"type":"SCALAR"},{"bufferView":110,"componentType":5126,"count":229,"type":"VEC3","min":[-36.6770935,0.560694993,-24.0840664],"max":[45.9271774,44.0671959,92.5977859]},{"bufferView":111,"componentType":5126,"count":229,"type":"VEC3","min":[-0.998443209,-0.982065074,-0.991469085],"max":[0.969803236,0.999199215,0.986045184]},{"bufferView":112,"componentType":5126,"count":229,"type":"VEC2"},{"bufferView":113,"componentType":5126,"count":229,"type":"VEC2"},{"bufferView":114,"componentType":5125,"count":810,"type":"SCALAR"},{"bufferView":115,"componentType":5126,"count":81,"type":"VEC3","min":[-31.6286926,-0.483973861,22.1672173],"max":[6.4287014,21.320612,37.7029419]},{"bufferView":116,"componentType":5126,"count":81,"type":"VEC3","min":[-0.991740288,-0.00460519161,-0.896342173],"max":[0.996058563,0.995017382,0.463521378]},{"bufferView":117,"componentType":5126,"count":81,"type":"VEC2"},{"bufferView":118,"componentType":5126,"count":81,"type":"VEC2"},{"bufferView":119,"componentType":5125,"count":228,"type":"SCALAR"},{"bufferView":120,"componentType":5126,"count":771,"type":"VEC3","min":[-31.8905582,-12.7670717,-54.8915062],"max":[7.07115793,13.6883879,42.101593]},{"bufferView":121,"componentType":5126,"count":771,"type":"VEC3","min":[-0.998023227,-0.405371982,-0.995452835],"max":[0.999866332,0.997189859,0.999826868]},{"bufferView":122,"componentType":5126,"count":771,"type":"VEC2"},{"bufferView":123,"componentType":5126,"count":771,"type":"VEC2"},{"bufferView":124,"componentType":5125,"count":3123,"type":"SCALAR"},{"bufferView":125,"componentType":5126,"count":53,"type":"VEC3","min":[-57.6331253,-4.28004694,-87.30513],"max":[56.0470581,9.24640274,85.1419144]},{"bufferView":126,"componentType":5126,"count":53,"type":"VEC3","min":[-0.081615456,0.960776459,-0.276978523],"max":[0.0739485632,1.0,0.00293492194]},{"bufferView":127,"componentType":5126,"count":53,"type":"VEC2"},{"bufferView":128,"componentType":5126,"count":53,"type":"VEC2"},{"bufferView":129,"componentType":5125,"count":156,"type":"SCALAR"}],"materials":[{"name":"sc_08-sc08_MOT2_9","pbrMetallicRoughness":{"baseColorFactor":[0.588,0.588,0.588,1.0],"metallicFactor":0.0,"roughnessFactor":1.0,"baseColorTexture":{"index":0}},"doubleSided":false,"alphaMode":"BLEND"},{"name":"sc_08-sc08_MOT2_10","pbrMetallicRoughness":{"baseColorFactor":[1.0,1.0,1.0,1.0],"metallicFactor":0.0,"roughnessFactor":1.0,"baseColorTexture":{"index":1}},"doubleSided":false},{"name":"sc_08-sc08_MOT3_4","pbrMetallicRoughness":{"baseColorFactor":[1.0,1.0,1.0,1.0],"metallicFactor":0.0,"roughnessFactor":1.0,"baseColorTexture":{"index":2}},"doubleSided":false},{"name":"sc_08-sc08_MOT3_5","pbrMetallicRoughness":{"baseColorFactor":[1.0,1.0,1.0,1.0],"metallicFactor":0.0,"roughnessFactor":1.0,"baseColorTexture":{"index":3}},"doubleSided":false},{"name":"sc_08-sc08_MOT2_4","pbrMetallicRoughness":{"baseColorFactor":[1.0,1.0,1.0,1.0],"metallicFactor":0.0,"roughnessFactor":1.0,"baseColorTexture":{"index":2}},"doubleSided":false},{"name":"sc_08-sc08_MOT2_1","pbrMetallicRoughness":{"baseColorFactor":[1.0,1.0,1.0,1.0],"metallicFactor":0.0,"roughnessFactor":1.0,"baseColorTexture":{"index":4}},"doubleSided":false},{"name":"sc_08-sc08_MOT2_7","pbrMetallicRoughness":{"baseColorFactor":[1.0,1.0,1.0,1.0],"metallicFactor":0.0,"roughnessFactor":1.0,"baseColorTexture":{"index":5}},"doubleSided":false},{"name":"sc_08-sc08_MOT2_2","pbrMetallicRoughness":{"baseColorFactor":[1.0,1.0,1.0,1.0],"metallicFactor":0.0,"roughnessFactor":1.0,"baseColorTexture":{"index":6}},"doubleSided":false},{"name":"sc_08-sc08_MOT3_1","pbrMetallicRoughness":{"baseColorFactor":[1.0,1.0,1.0,1.0],"metallicFactor":0.0,"roughnessFactor":1.0,"baseColorTexture":{"index":4}},"doubleSided":false},{"name":"sc_08-sc08_MOT3_2","pbrMetallicRoughness":{"baseColorFactor":[1.0,1.0,1.0,1.0],"metallicFactor":0.0,"roughnessFactor":1.0,"baseColorTexture":{"index":6}},"doubleSided":false},{"name":"sc_08-sc08_MOT3_3","pbrMetallicRoughness":{"baseColorFactor":[1.0,1.0,1.0,1.0],"metallicFactor":0.0,"roughnessFactor":1.0,"baseColorTexture":{"index":7}},"doubleSided":false},{"name":"sc_08-sc08_MOT1_3","pbrMetallicRoughness":{"baseColorFactor":[1.0,1.0,1.0,1.0],"metallicFactor":0.0,"roughnessFactor":1.0,"baseColorTexture":{"index":7}},"doubleSided":false},{"name":"sc_08-sc08_MOT1_1","pbrMetallicRoughness":{"baseColorFactor":[1.0,1.0,1.0,1.0],"metallicFactor":0.0,"roughnessFactor":1.0,"baseColorTexture":{"index":4}},"doubleSided":false},{"name":"sc_08-sc08_MOT1_2","pbrMetallicRoughness":{"baseColorFactor":[1.0,1.0,1.0,1.0],"metallicFactor":0.0,"roughnessFactor":1.0,"baseColorTexture":{"index":6}},"doubleSided":false},{"name":"sc_08-Standard_4","pbrMetallicRoughness":{"baseColorFactor":[1.0,1.0,1.0,1.0],"metallicFactor":0.0,"roughnessFactor":1.0,"baseColorTexture":{"index":8}},"doubleSided":true,"alphaMode":"BLEND"},{"name":"sc_08-Standard_10","pbrMetallicRoughness":{"baseColorFactor":[1.0,1.0,1.0,1.0],"metallicFactor":0.0,"roughnessFactor":1.0,"baseColorTexture":{"index":9}},"doubleSided":false},{"name":"sc_08-sc08_MOT2_8","pbrMetallicRoughness":{"baseColorFactor":[1.0,1.0,1.0,1.0],"metallicFactor":0.0,"roughnessFactor":1.0,"baseColorTexture":{"index":10}},"doubleSided":false},{"name":"sc_08-sc08_MOT2_3","pbrMetallicRoughness":{"baseColorFactor":[1.0,1.0,1.0,1.0],"metallicFactor":0.0,"roughnessFactor":1.0,"baseColorTexture":{"index":7}},"doubleSided":false},{"name":"sc_08-sc08_MOT3_10","pbrMetallicRoughness":{"baseColorFactor":[1.0,1.0,1.0,1.0],"metallicFactor":0.0,"roughnessFactor":1.0,"baseColorTexture":{"index":1}},"doubleSided":false},{"name":"sc_08-sc08_MOT3_7","pbrMetallicRoughness":{"baseColorFactor":[1.0,1.0,1.0,1.0],"metallicFactor":0.0,"roughnessFactor":1.0,"baseColorTexture":{"index":5}},"doubleSided":false},{"name":"sc_08-sc08_MOT3_12","pbrMetallicRoughness":{"baseColorFactor":[1.0,1.0,1.0,1.0],"metallicFactor":0.0,"roughnessFactor":1.0,"baseColorTexture":{"index":11}},"doubleSided":false,"alphaMode":"BLEND"},{"name":"sc_08-sc08_BG_1","pbrMetallicRoughness":{"baseColorFactor":[1.0,1.0,1.0,1.0],"metallicFactor":0.0,"roughnessFactor":1.0,"baseColorTexture":{"index":2}},"doubleSided":false},{"name":"sc_08-sc08_MOT1_4","pbrMetallicRoughness":{"baseColorFactor":[1.0,1.0,1.0,1.0],"metallicFactor":0.0,"roughnessFactor":1.0,"baseColorTexture":{"index":2}},"doubleSided":false},{"name":"sc_08-sc08_MOT1_12","pbrMetallicRoughness":{"baseColorFactor":[0.588,0.588,0.588,1.0],"metallicFactor":0.0,"roughnessFactor":1.0,"baseColorTexture":{"index":11}},"doubleSided":false,"alphaMode":"BLEND"},{"name":"sc_08-sc08_MOT1_8","pbrMetallicRoughness":{"baseColorFactor":[0.588,0.588,0.588,1.0],"metallicFactor":0.0,"roughnessFactor":1.0,"baseColorTexture":{"index":10}},"doubleSided":false},{"name":"sc_08-sc08_MOT1_6","pbrMetallicRoughness":{"baseColorFactor":[1.0,1.0,1.0,1.0],"metallicFactor":0.0,"roughnessFactor":1.0,"baseColorTexture":{"index":12}},"doubleSided":false}],"images":[{"uri":"grass_1.png"},{"uri":"grass_2.png"},{"uri":"MOT_04.png"},{"uri":"MOT_11.png"},{"uri":"MOT_05.png"},{"uri":"MOT_10.png"},{"uri":"MOT_06.png"},{"uri":"MOT_08.png"},{"uri":"light_1.png"},{"uri":"sc_sky_line.png"},{"uri":"MOT_09.png"},{"uri":"MOT_12.png"},{"uri":"MOT_03.png"}],"textures":[{"source":0,"sampler":0},{"source":1,"sampler":0},{"source":2,"sampler":0},{"source":3,"sampler":0},{"source":4,"sampler":0},{"source":5,"sampler":0},{"source":6,"sampler":0},{"source":7,"sampler":0},{"source":8,"sampler":0},{"source":9,"sampler":0},{"source":10,"sampler":0},{"source":11,"sampler":0},{"source":12,"sampler":0}],"samplers":[{"magFilter":9729,"minFilter":9987,"wrapS":10497,"wrapT":10497}],"buffers":[{"uri":"stage.bin","byteLength":691396}]}
