# Generated from legacy Unity YAML Mesh assets without Unity.
mtllib ArmorBag_20.mtl

o ArmorBag_20_00_Bag
v -0.186639264 -0.31348455 -0.245310009
v 3.93586745e-08 0.0451580137 -0.128891826
v -0.164373025 0.014099434 -0.144946352
v 5.69373277e-08 -0.272948563 -0.245309964
v -0.0967864841 0.0421193391 -0.115037836
v -0.0743240491 0.137288764 -0.0332080871
v 2.30701467e-08 0.155271843 -0.0210177712
v -0.0425881408 0.155271843 -0.0210177284
v -0.0607550964 -0.00563642383 0.0487390906
v 2.30701467e-08 0.155271843 -0.0210177712
v 1.25371598e-08 -0.00563642383 0.0487390533
v -0.0425881408 0.155271843 -0.0210177284
v 1.61484497e-08 -0.181194574 0.0248225629
v -0.0650949776 -0.181194589 0.0248225927
v 3.66204738e-08 -0.248397097 -0.110757515
v -0.134547696 -0.318210363 -0.110757492
v -0.186639264 -0.31348455 -0.245310009
v -0.0967864841 0.0421193391 -0.115037836
v -0.127902091 -0.16155462 0.00837985799
v -0.164373025 0.014099434 -0.144946352
v -0.0743240491 0.137288764 -0.0332080871
v -0.186639264 -0.31348455 -0.245310009
v 5.69373277e-08 -0.272948563 -0.245309964
v -0.134547696 -0.318210363 -0.110757492
v -0.186639264 -0.31348455 -0.245310009
v -0.365208566 -0.237252712 0.107954323
v -0.0573469773 -0.112621807 -0.0558310822
v -0.272374898 -0.288191378 0.159196854
v -0.150180683 -0.0616831407 -0.10707359
v -0.416451067 -0.288191348 0.0151206516
v -0.201423153 -0.112621829 -0.199907213
v -0.37485984 -0.390068531 -0.0264705401
v -0.159831971 -0.214499027 -0.241498455
v -0.272374898 -0.288191378 0.159196854
v -0.0157557912 -0.214499056 -0.0974222943
v -0.230783671 -0.390068591 0.117605612
v -0.0573469773 -0.112621807 -0.0558310822
v -0.0669982731 -0.265437663 -0.190255985
v -0.282026172 -0.441007257 0.0247719362
v -0.159831971 -0.214499027 -0.241498455
v -0.37485984 -0.390068531 -0.0264705401
v -0.253200471 0.0953216851 -0.0183429345
v -0.121240422 -0.0479743853 -0.0199080724
v -0.251540124 0.0362813324 0.0529262424
v -0.122900754 0.0110659599 -0.091177173
v -0.306094706 0.0773133636 -0.0921379402
v -0.175795078 -0.00694236159 -0.164972186
v -0.357328743 0.000264555216 -0.0946637243
v -0.227029055 -0.0839912295 -0.167498022
v -0.251540124 0.0362813324 0.0529262424
v -0.172474369 -0.125023171 -0.0224338677
v -0.302774042 -0.0407674387 0.050400354
v -0.121240422 -0.0479743853 -0.0199080724
v -0.225368634 -0.143031567 -0.0962288678
v -0.355668426 -0.058775872 -0.0233946349
v -0.227029055 -0.0839912295 -0.167498022
v -0.357328743 0.000264555216 -0.0946637243
v -0.122900754 0.0110659599 -0.091177173
v -0.0943130776 -0.109990045 -0.144961059
v -0.121240422 -0.0479743853 -0.0199080724
v -0.225368634 -0.143031567 -0.0962288678
v -0.227029055 -0.0839912295 -0.167498022
v -0.121240422 -0.0479743853 -0.0199080724
v -0.0943130776 -0.109990045 -0.144961059
v -0.172474369 -0.125023171 -0.0224338677
v -0.227029055 -0.0839912295 -0.167498022
v -0.175795078 -0.00694236159 -0.164972186
v -0.172474369 -0.125023171 -0.0224338677
v -0.0943130776 -0.109990045 -0.144961059
v -0.225368634 -0.143031567 -0.0962288678
v -0.175795078 -0.00694236159 -0.164972186
v -0.122900754 0.0110659599 -0.091177173
v -0.272374898 -0.288191378 0.159196854
v -0.342715561 -0.360207379 0.085156709
v -0.365208566 -0.237252712 0.107954323
v -0.416451067 -0.288191348 0.0151206516
v -0.37485984 -0.390068531 -0.0264705401
v -0.230783671 -0.390068591 0.117605612
v -0.342715561 -0.360207379 0.085156709
v -0.272374898 -0.288191378 0.159196854
v -0.282026172 -0.441007257 0.0247719362
v -0.37485984 -0.390068531 -0.0264705401
v -0.251540124 0.0362813324 0.0529262424
v -0.34133935 0.0420920998 0.0053482987
v -0.253200471 0.0953216851 -0.0183429345
v -0.306094706 0.0773133636 -0.0921379402
v -0.357328743 0.000264555216 -0.0946637243
v -0.302774042 -0.0407674387 0.050400354
v -0.34133935 0.0420920998 0.0053482987
v -0.251540124 0.0362813324 0.0529262424
v -0.355668426 -0.058775872 -0.0233946349
v -0.357328743 0.000264555216 -0.0946637243
v -0.0785712898 0.0131765306 -0.120152578
v -0.116202243 0.0361799896 -0.122036137
v -0.105027728 0.0168253034 -0.133423448
v -0.0785712898 0.0131765306 -0.120152578
v -0.0973880216 0.0457680374 -0.100977421
v -0.127910629 0.0564595461 -0.131024987
v -0.0973880216 0.0457680374 -0.100977421
v -0.117103845 0.079916805 -0.116113834
v -0.132405072 0.0642441213 -0.154441759
v -0.115257777 0.0341650844 -0.0797293931
v -0.0887301192 -0.0117821842 -0.106762387
v -0.14305304 0.0823077708 -0.101068594
v -0.117103845 0.079916805 -0.116113834
v -0.124672003 0.093025282 -0.155545443
v -0.153722599 0.100788027 -0.160449982
v -0.124672003 0.093025282 -0.155545443
v -0.0887301192 -0.0117821842 -0.106762387
v -0.13407205 0.0245770514 -0.100788124
v -0.115257777 0.0341650844 -0.0797293931
v -0.115186594 -0.00813345611 -0.120033287
v -0.153859839 0.0588504821 -0.115979776
v -0.14305304 0.0823077708 -0.101068594
v -0.161455661 0.0720068663 -0.155555382
v -0.153722599 0.100788027 -0.160449982
v -0.132405072 0.0642441213 -0.154441759
v -0.161455661 0.0720068663 -0.155555382
v -0.153859839 0.0588504821 -0.115979776
v -0.127910629 0.0564595461 -0.131024987
v -0.13407205 0.0245770514 -0.100788124
v -0.116202243 0.0361799896 -0.122036137
v -0.115186594 -0.00813345611 -0.120033287
v -0.105027728 0.0168253034 -0.133423448
v 0.186639383 -0.31348455 -0.245309919
v 3.93586745e-08 0.0451580137 -0.128891826
v 5.69373277e-08 -0.272948563 -0.245309964
v 0.164373115 0.014099434 -0.144946277
v 0.0967865512 0.0421193391 -0.115037814
v 0.0743240938 0.137288764 -0.0332080647
v 2.30701467e-08 0.155271843 -0.0210177712
v 0.0425881855 0.155271843 -0.0210177172
v 0.0607551187 -0.00563642383 0.0487391055
v 2.30701467e-08 0.155271843 -0.0210177712
v 0.0425881855 0.155271843 -0.0210177172
v 1.25371598e-08 -0.00563642383 0.0487390533
v 1.61484497e-08 -0.181194574 0.0248225629
v 0.0650950149 -0.181194589 0.0248226151
v 3.66204738e-08 -0.248397097 -0.110757515
v 0.134547755 -0.318210363 -0.110757448
v 0.186639383 -0.31348455 -0.245309919
v 0.0967865512 0.0421193391 -0.115037814
v 0.127902135 -0.16155462 0.00837989151
v 0.164373115 0.014099434 -0.144946277
v 0.0743240938 0.137288764 -0.0332080647
v 0.186639383 -0.31348455 -0.245309919
v 5.69373277e-08 -0.272948563 -0.245309964
v 0.186639383 -0.31348455 -0.245309919
v 0.134547755 -0.318210363 -0.110757448
v 0.365208566 -0.237252712 0.107954443
v 0.0573470332 -0.112621807 -0.0558310598
v 0.150180742 -0.0616831407 -0.107073545
v 0.272374898 -0.288191378 0.159196943
v 0.416451067 -0.288191348 0.0151207745
v 0.201423243 -0.112621829 -0.199907154
v 0.374859929 -0.390068531 -0.0264704283
v 0.159832075 -0.214499027 -0.241498411
v 0.272374898 -0.288191378 0.159196943
v 0.0157558601 -0.214499056 -0.0974222943
v 0.0573470332 -0.112621807 -0.0558310598
v 0.230783671 -0.390068591 0.117605671
v 0.06699837 -0.265437663 -0.19025597
v 0.282026231 -0.441007257 0.0247720256
v 0.159832075 -0.214499027 -0.241498411
v 0.374859929 -0.390068531 -0.0264704283
v 0.253200531 0.0953216851 -0.0183428563
v 0.121240467 -0.0479743853 -0.0199080389
v 0.122900821 0.0110659599 -0.0911771506
v 0.251540184 0.0362813324 0.0529263094
v 0.306094795 0.0773133636 -0.0921378508
v 0.175795168 -0.00694236159 -0.164972112
v 0.357328832 0.000264555216 -0.0946636051
v 0.227029145 -0.0839912295 -0.167497963
v 0.251540184 0.0362813324 0.0529263094
v 0.172474414 -0.125023171 -0.0224338118
v 0.121240467 -0.0479743853 -0.0199080389
v 0.302774101 -0.0407674387 0.0504004508
v 0.225368723 -0.143031567 -0.0962288082
v 0.355668455 -0.058775872 -0.0233945344
v 0.227029145 -0.0839912295 -0.167497963
v 0.357328832 0.000264555216 -0.0946636051
v 0.122900821 0.0110659599 -0.0911771506
v 0.121240467 -0.0479743853 -0.0199080389
v 0.094313167 -0.109990045 -0.144961029
v 0.225368723 -0.143031567 -0.0962288082
v 0.227029145 -0.0839912295 -0.167497963
v 0.121240467 -0.0479743853 -0.0199080389
v 0.172474414 -0.125023171 -0.0224338118
v 0.094313167 -0.109990045 -0.144961029
v 0.227029145 -0.0839912295 -0.167497963
v 0.175795168 -0.00694236159 -0.164972112
v 0.172474414 -0.125023171 -0.0224338118
v 0.225368723 -0.143031567 -0.0962288082
v 0.094313167 -0.109990045 -0.144961029
v 0.175795168 -0.00694236159 -0.164972112
v 0.122900821 0.0110659599 -0.0911771506
v 0.272374898 -0.288191378 0.159196943
v 0.365208566 -0.237252712 0.107954443
v 0.342715561 -0.360207379 0.0851568133
v 0.416451067 -0.288191348 0.0151207745
v 0.374859929 -0.390068531 -0.0264704283
v 0.230783671 -0.390068591 0.117605671
v 0.272374898 -0.288191378 0.159196943
v 0.342715561 -0.360207379 0.0851568133
v 0.282026231 -0.441007257 0.0247720256
v 0.374859929 -0.390068531 -0.0264704283
v 0.251540184 0.0362813324 0.0529263094
v 0.253200531 0.0953216851 -0.0183428563
v 0.34133938 0.0420920998 0.00534841046
v 0.306094795 0.0773133636 -0.0921378508
v 0.357328832 0.000264555216 -0.0946636051
v 0.302774101 -0.0407674387 0.0504004508
v 0.251540184 0.0362813324 0.0529263094
v 0.34133938 0.0420920998 0.00534841046
v 0.355668455 -0.058775872 -0.0233945344
v 0.357328832 0.000264555216 -0.0946636051
v 0.0785713643 0.0131765306 -0.120152555
v 0.11620231 0.0361799896 -0.122036114
v 0.0973880887 0.0457680374 -0.100977398
v 0.127910718 0.0564595461 -0.131024972
v 0.0785713643 0.0131765306 -0.120152555
v 0.105027817 0.0168253034 -0.133423433
v 0.0973880887 0.0457680374 -0.100977398
v 0.117103912 0.079916805 -0.116113812
v 0.132405162 0.0642441213 -0.154441744
v 0.115257844 0.0341650844 -0.0797293633
v 0.0887301862 -0.0117821842 -0.106762365
v 0.1430531 0.0823077708 -0.101068549
v 0.117103912 0.079916805 -0.116113812
v 0.124672092 0.093025282 -0.155545413
v 0.153722689 0.100788027 -0.160449952
v 0.124672092 0.093025282 -0.155545413
v 0.0887301862 -0.0117821842 -0.106762365
v 0.13407211 0.0245770514 -0.100788102
v 0.115186661 -0.00813345611 -0.120033264
v 0.115257844 0.0341650844 -0.0797293633
v 0.153859913 0.0588504821 -0.115979731
v 0.1430531 0.0823077708 -0.101068549
v 0.16145575 0.0720068663 -0.155555308
v 0.153722689 0.100788027 -0.160449952
v 0.132405162 0.0642441213 -0.154441744
v 0.16145575 0.0720068663 -0.155555308
v 0.127910718 0.0564595461 -0.131024972
v 0.153859913 0.0588504821 -0.115979731
v 0.11620231 0.0361799896 -0.122036114
v 0.13407211 0.0245770514 -0.100788102
v 0.105027817 0.0168253034 -0.133423433
v 0.115186661 -0.00813345611 -0.120033264
vt 0.178221434 0.00573917525
vt 0.00360458042 0.31254226
vt 0.154663831 0.289112061
vt 0.00360458042 0.00573917525
vt 0.0936386511 0.318601847
vt 0.0646744817 0.402239054
vt 0.00360458042 0.41168651
vt 0.0344708189 0.415550172
vt 0.869462669 0.741954148
vt 0.995069802 0.996167481
vt 0.995069802 0.741954148
vt 0.928122759 0.996167481
vt 0.995069802 0.50975275
vt 0.869462669 0.50975275
vt 0.995069802 0.241247535
vt 0.745954394 0.241247535
vt 0.660044491 0.0498176962
vt 0.677490294 0.86498934
vt 0.745954394 0.50975275
vt 0.550238669 0.735025227
vt 0.869462669 0.980728269
vt 0.660044491 0.0498176962
vt 0.995069802 0.0148908217
vt 0.745954394 0.241247535
vt 0.660044491 0.0498176962
vt 0.00300626038 0.680388451
vt 0.455277473 0.522240758
vt 0.00300626038 0.522240758
vt 0.455277473 0.680388451
vt 0.00300626038 0.838755131
vt 0.455277473 0.838755131
vt 0.00300626038 0.997012615
vt 0.455277473 0.997012615
vt 0.00300626038 0.522240758
vt 0.455277473 0.680607319
vt 0.00300626038 0.680607319
vt 0.455277473 0.522240758
vt 0.455277473 0.838755131
vt 0.00300626038 0.838755131
vt 0.455277473 0.997012615
vt 0.00300626038 0.997012615
vt 0.462716699 0.154367283
vt 0.191781253 0.0234091878
vt 0.462716699 0.0234091878
vt 0.191781253 0.154367283
vt 0.462716699 0.285325289
vt 0.191781253 0.285325289
vt 0.462716699 0.41628322
vt 0.191781253 0.41628322
vt 0.462716699 0.0234091878
vt 0.191781253 0.154367283
vt 0.462716699 0.154367283
vt 0.191781253 0.0234091878
vt 0.191781253 0.285325289
vt 0.462716699 0.285325289
vt 0.191781253 0.41628322
vt 0.462716699 0.41628322
vt 0.6093871 0.870045424
vt 0.539987743 0.731427073
vt 0.461116016 0.870045424
vt 0.461116016 0.870045424
vt 0.6093871 0.870045424
vt 0.461116016 0.870045424
vt 0.539987743 0.731427073
vt 0.6093871 0.870045424
vt 0.6093871 0.870045424
vt 0.461116016 0.870045424
vt 0.6093871 0.870045424
vt 0.539987743 0.731427073
vt 0.461116016 0.870045424
vt 0.461116016 0.870045424
vt 0.6093871 0.870045424
vt 0.468800485 0.389040887
vt 0.468800485 0.218035981
vt 0.608396709 0.30803901
vt 0.608396709 0.140691638
vt 0.468800485 0.054343123
vt 0.608396709 0.30803901
vt 0.468800485 0.218035981
vt 0.468800485 0.389040887
vt 0.608396709 0.140691638
vt 0.468800485 0.054343123
vt 0.458780974 0.996341407
vt 0.586747646 0.996341407
vt 0.525496542 0.880576134
vt 0.658946633 0.880576134
vt 0.725396395 0.996341407
vt 0.525496542 0.880576134
vt 0.586747646 0.996341407
vt 0.458780974 0.996341407
vt 0.658946633 0.880576134
vt 0.725396395 0.996341407
vt 0.00545249367 0.514252007
vt 0.102942958 0.422007143
vt 0.00545249367 0.422007143
vt 0.00545249367 0.514252007
vt 0.102942958 0.514252007
vt 0.207067266 0.422007143
vt 0.102942958 0.514252007
vt 0.207067266 0.514252007
vt 0.304122359 0.422007143
vt 0.102942958 0.422007143
vt 0.00545249367 0.422007143
vt 0.207067266 0.422007143
vt 0.207067266 0.514252007
vt 0.304122359 0.514252007
vt 0.304122359 0.422007143
vt 0.304122359 0.514252007
vt 0.00545249367 0.422007143
vt 0.102942958 0.514252007
vt 0.102942958 0.422007143
vt 0.00545249367 0.514252007
vt 0.207067266 0.514252007
vt 0.207067266 0.422007143
vt 0.304122359 0.514252007
vt 0.304122359 0.422007143
vt 0.304122359 0.422007143
vt 0.304122359 0.514252007
vt 0.207067266 0.514252007
vt 0.207067266 0.422007143
vt 0.102942958 0.514252007
vt 0.102942958 0.422007143
vt 0.00545249367 0.514252007
vt 0.00545249367 0.422007143
vt 0.178221434 0.00573917525
vt 0.00360458042 0.31254226
vt 0.00360458042 0.00573917525
vt 0.154663831 0.289112061
vt 0.0936386511 0.318601847
vt 0.0646744817 0.402239054
vt 0.00360458042 0.41168651
vt 0.0344708189 0.415550172
vt 0.869462669 0.741954148
vt 0.995069802 0.996167481
vt 0.928122759 0.996167481
vt 0.995069802 0.741954148
vt 0.995069802 0.50975275
vt 0.869462669 0.50975275
vt 0.995069802 0.241247535
vt 0.745954394 0.241247535
vt 0.660044491 0.0498176962
vt 0.677490294 0.86498934
vt 0.745954394 0.50975275
vt 0.550238669 0.735025227
vt 0.869462669 0.980728269
vt 0.660044491 0.0498176962
vt 0.995069802 0.0148908217
vt 0.660044491 0.0498176962
vt 0.745954394 0.241247535
vt 0.00300626038 0.680388451
vt 0.455277473 0.522240758
vt 0.455277473 0.680388451
vt 0.00300626038 0.522240758
vt 0.00300626038 0.838755131
vt 0.455277473 0.838755131
vt 0.00300626038 0.997012615
vt 0.455277473 0.997012615
vt 0.00300626038 0.522240758
vt 0.455277473 0.680607319
vt 0.455277473 0.522240758
vt 0.00300626038 0.680607319
vt 0.455277473 0.838755131
vt 0.00300626038 0.838755131
vt 0.455277473 0.997012615
vt 0.00300626038 0.997012615
vt 0.462716699 0.154367283
vt 0.191781253 0.0234091878
vt 0.191781253 0.154367283
vt 0.462716699 0.0234091878
vt 0.462716699 0.285325289
vt 0.191781253 0.285325289
vt 0.462716699 0.41628322
vt 0.191781253 0.41628322
vt 0.462716699 0.0234091878
vt 0.191781253 0.154367283
vt 0.191781253 0.0234091878
vt 0.462716699 0.154367283
vt 0.191781253 0.285325289
vt 0.462716699 0.285325289
vt 0.191781253 0.41628322
vt 0.462716699 0.41628322
vt 0.6093871 0.870045424
vt 0.461116016 0.870045424
vt 0.539987743 0.731427073
vt 0.461116016 0.870045424
vt 0.6093871 0.870045424
vt 0.461116016 0.870045424
vt 0.6093871 0.870045424
vt 0.539987743 0.731427073
vt 0.6093871 0.870045424
vt 0.461116016 0.870045424
vt 0.6093871 0.870045424
vt 0.461116016 0.870045424
vt 0.539987743 0.731427073
vt 0.461116016 0.870045424
vt 0.6093871 0.870045424
vt 0.468800485 0.389040887
vt 0.608396709 0.30803901
vt 0.468800485 0.218035981
vt 0.608396709 0.140691638
vt 0.468800485 0.054343123
vt 0.608396709 0.30803901
vt 0.468800485 0.389040887
vt 0.468800485 0.218035981
vt 0.608396709 0.140691638
vt 0.468800485 0.054343123
vt 0.458780974 0.996341407
vt 0.525496542 0.880576134
vt 0.586747646 0.996341407
vt 0.658946633 0.880576134
vt 0.725396395 0.996341407
vt 0.525496542 0.880576134
vt 0.458780974 0.996341407
vt 0.586747646 0.996341407
vt 0.658946633 0.880576134
vt 0.725396395 0.996341407
vt 0.00545249367 0.514252007
vt 0.102942958 0.422007143
vt 0.102942958 0.514252007
vt 0.207067266 0.422007143
vt 0.00545249367 0.514252007
vt 0.00545249367 0.422007143
vt 0.102942958 0.514252007
vt 0.207067266 0.514252007
vt 0.304122359 0.422007143
vt 0.102942958 0.422007143
vt 0.00545249367 0.422007143
vt 0.207067266 0.422007143
vt 0.207067266 0.514252007
vt 0.304122359 0.514252007
vt 0.304122359 0.422007143
vt 0.304122359 0.514252007
vt 0.00545249367 0.422007143
vt 0.102942958 0.514252007
vt 0.00545249367 0.514252007
vt 0.102942958 0.422007143
vt 0.207067266 0.514252007
vt 0.207067266 0.422007143
vt 0.304122359 0.514252007
vt 0.304122359 0.422007143
vt 0.304122359 0.422007143
vt 0.304122359 0.514252007
vt 0.207067266 0.422007143
vt 0.207067266 0.514252007
vt 0.102942958 0.422007143
vt 0.102942958 0.514252007
vt 0.00545249367 0.422007143
vt 0.00545249367 0.514252007
vn -0.0217007122 0.318874778 -0.947548392
vn -0.0361097371 0.400793168 -0.915456675
vn 0.0281105865 0.337578798 -0.940877436
vn -0.0744360971 0.342726198 -0.936481725
vn -0.121122451 0.714013724 -0.689575053
vn -0.0874175838 0.677141644 -0.730641746
vn -0.0482589747 0.689402781 -0.722768895
vn -8.32652118e-07 0.56111014 -0.827741149
vn -0.691115447 0.0947723026 0.716503768
vn 7.11081414e-07 0.397750964 0.917493417
vn 6.0755234e-07 0.134993368 0.990846502
vn -0.243182755 0.408792829 0.879630929
vn 5.5706215e-07 -0.408201667 0.912891778
vn -0.372124842 -0.395011838 0.839933777
vn 0.317477613 -0.917762924 0.238577409
vn -0.499078132 -0.757315735 0.421181547
vn 0.450780959 -0.868768408 -0.205031655
vn -0.821868293 0.248694498 0.512526639
vn -0.809985067 0.0917640327 0.579226686
vn -0.936368413 0.0351089166 0.349258584
vn -0.918063593 0.127970841 0.375210213
vn 0.208945043 -0.962043168 0.175541766
vn 0.208945043 -0.962043168 0.175541766
vn -0.932086119 -0.0466993817 0.359213911
vn -0.932086119 -0.0466993817 0.359213911
vn -0.213551833 0.85042002 0.480813274
vn 0.0473672374 0.749999956 0.659739654
vn 0.0473672052 0.749999989 0.659739619
vn -0.480813178 0.850420055 0.21355191
vn -0.76597752 0.566946617 -0.303067604
vn -0.783880589 0.283473312 -0.552425654
vn -0.707106806 6.39627111e-08 -0.707106757
vn -0.707106965 2.6339051e-07 -0.707106597
vn 0.70710685 -8.60276514e-08 0.707106712
vn 0.783880648 -0.283473401 0.552425525
vn 0.765977546 -0.56694669 0.303067402
vn 0.707106855 -1.20742455e-07 0.707106707
vn 0.480813184 -0.850420033 -0.213551983
vn 0.213551749 -0.850420015 -0.48081332
vn -0.0473675388 -0.749999822 -0.659739784
vn -0.0473678126 -0.749999749 -0.659739848
vn 0.607839835 0.769031109 0.197792541
vn 0.649490933 0.592910748 0.476044507
vn 0.649491022 0.592910832 0.476044282
vn 0.479226311 0.865764901 -0.144198747
vn 0.105127964 0.738399626 -0.666118686
vn -0.140357015 0.514300068 -0.846046895
vn -0.340280349 0.255933009 -0.904824612
vn -0.34028034 0.255933078 -0.904824596
vn 0.340280212 -0.255933159 0.904824621
vn 0.140356878 -0.514300177 0.846046851
vn -0.105127813 -0.738399527 0.66611882
vn 0.340280618 -0.25593292 0.904824536
vn -0.47922568 -0.865765117 0.144199547
vn -0.607839566 -0.769031448 -0.197792048
vn -0.649490875 -0.592910728 -0.476044611
vn -0.649491226 -0.592909988 -0.476045055
vn 0.976674601 0.175982 0.123032756
vn 0.76015759 -0.491541516 -0.424908668
vn 0.976674601 0.175982 0.123032756
vn -0.0426827768 -0.769867772 -0.636774524
vn -0.0426827768 -0.769867772 -0.636774524
vn 0.750867083 -0.512931491 0.416052771
vn 0.760157657 -0.491540645 -0.424909557
vn 0.750867083 -0.512931491 0.416052771
vn 0.153686045 -0.069882509 -0.985645491
vn 0.153686045 -0.069882509 -0.985645491
vn 0.26099997 -0.964134595 0.0482026722
vn 0.76015807 -0.491540672 -0.424908786
vn 0.26099997 -0.964134595 0.0482026722
vn 0.683367681 0.425089197 -0.59355521
vn 0.683367681 0.425089197 -0.59355521
vn -0.569273755 -0.249396939 0.783408296
vn -0.737385567 -0.331151265 0.588728601
vn -0.684276521 -0.252054707 0.684276309
vn -0.803280918 -0.363976299 0.471445672
vn -0.803942066 -0.474544134 0.358448071
vn -0.366281698 -0.601431557 0.710012536
vn -0.451215571 -0.6535566 0.607674485
vn -0.359538456 -0.474742664 0.803337726
vn -0.485337693 -0.727251596 0.485337449
vn -0.594220123 -0.717679 0.363096817
vn -0.278973579 0.736305206 0.616464423
vn -0.583613534 0.779325592 0.22813782
vn -0.398923902 0.832071317 0.385379091
vn -0.681291517 0.731788866 0.0180810329
vn -0.827102952 0.553236865 -0.0991447346
vn -0.649477681 0.107028738 0.752810462
vn -0.820450751 0.114545141 0.560124964
vn -0.438299589 0.263275322 0.859406525
vn -0.932737251 0.0301188091 0.359296644
vn -0.987724137 0.108212115 0.112655079
vn 0.416519384 0.627512624 -0.657829392
vn 0.516692559 0.504856744 -0.691482803
vn 0.416519384 0.627512624 -0.657829392
vn 0.882067942 0.291512626 0.370103411
vn 0.552039165 0.453524691 -0.699691443
vn 0.803219852 0.00857622908 -0.595620951
vn 0.752504523 0.448149719 0.482595868
vn 0.831338595 -0.0302360334 -0.55494317
vn 0.928740962 -0.25968428 -0.264583258
vn 0.669760308 0.249376656 0.699451509
vn 0.751700433 0.046960804 0.657830634
vn 0.385628087 0.742997376 0.547033708
vn 0.561224621 0.76666741 0.311846129
vn 0.928740867 -0.259684926 -0.264582955
vn 0.221404202 0.939984775 0.259632049
vn 0.205043862 0.93988073 0.27309564
vn -0.416518852 -0.62751114 0.657831145
vn -0.627592802 -0.631822048 0.454893586
vn -0.6329768 -0.313059873 0.708049353
vn -0.867126485 -0.498068882 -0.0043643787
vn -0.835227421 -0.272188807 0.477816292
vn -0.88850357 0.143987656 0.435693654
vn -0.924697231 0.278389598 0.25968108
vn -0.921698843 0.291223711 0.25624206
vn -0.239477028 -0.934155303 -0.26458387
vn -0.239477457 -0.934155132 -0.264584085
vn -0.389654972 -0.734720034 -0.555297645
vn -0.409119545 -0.691120521 -0.595796629
vn -0.669021541 -0.250844745 -0.699633541
vn -0.695676815 -0.194789085 -0.691441235
vn -0.751698318 -0.0469609632 -0.657833038
vn -0.751698318 -0.0469609632 -0.657833038
vn 0.0217011526 0.318874771 -0.947548384
vn 0.0361101341 0.400793138 -0.915456672
vn 0.0744365427 0.342726193 -0.936481691
vn -0.0281101738 0.337578734 -0.940877472
vn 0.121122629 0.714013649 -0.6895751
vn 0.0874177828 0.677141653 -0.730641713
vn 0.0482591932 0.689402776 -0.722768886
vn 1.04986583e-06 0.561110051 -0.82774121
vn 0.691115253 0.094772317 0.716503953
vn -9.42596331e-07 0.397750962 0.917493418
vn 0.243182505 0.40879282 0.879631002
vn -8.50573315e-07 0.134993368 0.990846502
vn -8.34432997e-07 -0.408201667 0.912891778
vn 0.372124614 -0.395011784 0.839933903
vn -0.317477702 -0.917762918 0.238577314
vn 0.499078006 -0.757315758 0.421181655
vn -0.450780917 -0.868768371 -0.205031906
vn 0.821868099 0.248694552 0.512526925
vn 0.809984851 0.0917640329 0.579226988
vn 0.936368269 0.0351088864 0.349258974
vn 0.9180635 0.127970821 0.375210447
vn -0.20894512 -0.962043163 0.175541702
vn -0.20894512 -0.962043163 0.175541702
vn 0.932085939 -0.046699434 0.359214372
vn 0.932085939 -0.046699434 0.359214372
vn 0.213551729 0.850420036 0.480813292
vn -0.0473674385 0.749999963 0.659739631
vn 0.480813157 0.850420041 0.213552012
vn -0.0473674189 0.749999983 0.65973961
vn 0.765977603 0.566946695 -0.303067248
vn 0.783880775 0.283473469 -0.552425311
vn 0.707107089 2.85174575e-07 -0.707106473
vn 0.70710713 3.36009026e-07 -0.707106433
vn -0.707107074 -1.29117167e-07 0.707106488
vn -0.783880814 -0.283473414 0.552425283
vn -0.707107082 -1.81189458e-07 0.707106481
vn -0.765977615 -0.566946738 0.303067138
vn -0.48081307 -0.850420054 -0.213552158
vn -0.213551555 -0.85042002 -0.480813398
vn 0.0473677319 -0.74999983 -0.659739761
vn 0.0473679804 -0.749999764 -0.659739819
vn -0.607839835 0.769031138 0.197792425
vn -0.649491016 0.592910744 0.4760444
vn -0.479226243 0.865764913 -0.144198901
vn -0.64949105 0.592910777 0.476044311
vn -0.105127723 0.738399548 -0.666118811
vn 0.140357286 0.514299984 -0.846046901
vn 0.340280539 0.255933045 -0.904824531
vn 0.340280499 0.255933354 -0.904824458
vn -0.34028048 -0.255933029 0.904824557
vn -0.140357115 -0.514300147 0.84604683
vn -0.340280851 -0.25593281 0.90482448
vn 0.105127628 -0.738399516 0.666118861
vn 0.479225709 -0.865765084 0.144199648
vn 0.607839709 -0.76903136 -0.197791951
vn 0.649491064 -0.592910707 -0.47604438
vn 0.649491346 -0.592910112 -0.476044736
vn -0.976674646 0.175981987 0.123032419
vn -0.976674646 0.175981987 0.123032419
vn -0.760157475 -0.491541487 -0.424908907
vn 0.0426829202 -0.769867769 -0.636774518
vn 0.0426829202 -0.769867769 -0.636774518
vn -0.750867243 -0.512931468 0.416052513
vn -0.750867243 -0.512931468 0.416052513
vn -0.760157676 -0.491540396 -0.424909809
vn -0.153685889 -0.0698822133 -0.985645537
vn -0.153685889 -0.0698822133 -0.985645537
vn -0.260999937 -0.964134611 0.0482025439
vn -0.260999937 -0.964134611 0.0482025439
vn -0.760157683 -0.49154105 -0.424909042
vn -0.683367376 0.425089137 -0.593555603
vn -0.683367376 0.425089137 -0.593555603
vn 0.569273597 -0.249397022 0.783408385
vn 0.684276427 -0.252054785 0.684276375
vn 0.737385461 -0.331151152 0.588728797
vn 0.803280853 -0.363976093 0.471445941
vn 0.803942076 -0.474543698 0.358448625
vn 0.366281451 -0.601431548 0.71001267
vn 0.359538183 -0.474742804 0.803337765
vn 0.451215363 -0.653556541 0.607674702
vn 0.48533755 -0.727251469 0.485337783
vn 0.594220014 -0.717678871 0.363097251
vn 0.278973411 0.736305198 0.616464509
vn 0.398923844 0.832071292 0.385379204
vn 0.583613527 0.77932553 0.228138049
vn 0.681291555 0.731788822 0.0180814156
vn 0.827103019 0.553236855 -0.0991442341
vn 0.649477688 0.107028823 0.752810444
vn 0.438299338 0.263275485 0.859406603
vn 0.820450668 0.114545105 0.560125093
vn 0.932737181 0.0301187048 0.359296835
vn 0.987724083 0.108211902 0.112655756
vn -0.882068015 0.291512588 0.370103267
vn -0.516692524 0.504856745 -0.691482829
vn -0.552039138 0.453524731 -0.699691438
vn -0.80321969 0.0085760878 -0.595621172
vn -0.416519384 0.627512478 -0.657829531
vn -0.416519384 0.627512478 -0.657829531
vn -0.752504824 0.448149616 0.482595494
vn -0.831338404 -0.0302363905 -0.554943438
vn -0.928740817 -0.259684413 -0.264583636
vn -0.669760485 0.249376617 0.699451353
vn -0.751700576 0.0469608794 0.657830465
vn -0.385628394 0.742997389 0.547033475
vn -0.561224781 0.766667443 0.311845758
vn -0.928740763 -0.259684781 -0.264583464
vn -0.221404313 0.939984791 0.259631898
vn -0.205043877 0.939880745 0.273095577
vn 0.416518955 -0.627511168 0.657831053
vn 0.62759288 -0.631822068 0.45489345
vn 0.867126516 -0.498068831 -0.00436416105
vn 0.632976747 -0.313060047 0.708049323
vn 0.835227271 -0.272188853 0.477816528
vn 0.888503303 0.143987901 0.435694118
vn 0.924696996 0.278389902 0.259681591
vn 0.921698581 0.29122412 0.256242538
vn 0.23947749 -0.934155199 -0.264583815
vn 0.239477968 -0.934155009 -0.264584055
vn 0.409119921 -0.691120555 -0.595796331
vn 0.389655628 -0.734719943 -0.555297305
vn 0.695677065 -0.194789318 -0.691440917
vn 0.669021524 -0.250845038 -0.699633452
vn 0.751699196 -0.0469609381 -0.657832037
vn 0.751699196 -0.0469609381 -0.657832037

g ArmorBag_20_00_Bag_submesh_0
usemtl 18_-_Default
f 1/1/1 3/3/3 2/2/2
f 1/1/1 2/2/2 4/4/4
f 2/2/2 3/3/3 5/5/5
f 2/2/2 5/5/5 6/6/6
f 2/2/2 6/6/6 7/7/7
f 6/6/6 8/8/8 7/7/7
f 9/9/9 11/11/11 10/10/10
f 9/9/9 10/10/10 12/12/12
f 13/13/13 11/11/11 9/9/9
f 13/13/13 9/9/9 14/14/14
f 15/15/15 13/13/13 14/14/14
f 15/15/15 14/14/14 16/16/16
f 17/17/17 15/15/15 16/16/16
f 14/14/14 9/9/9 18/18/18
f 18/18/18 19/19/19 14/14/14
f 14/14/14 19/19/19 16/16/16
f 20/20/20 16/16/16 19/19/19
f 18/18/18 20/20/20 19/19/19
f 9/9/9 12/12/12 21/21/21
f 9/9/9 21/21/21 18/18/18
f 22/22/22 23/23/23 15/15/15
f 20/20/20 25/25/25 24/24/24
f 26/26/26 28/28/28 27/27/27
f 26/26/26 27/27/27 29/29/29
f 30/30/30 26/26/26 29/29/29
f 30/30/30 29/29/29 31/31/31
f 32/32/32 30/30/30 31/31/31
f 32/32/32 31/31/31 33/33/33
f 34/34/34 36/36/36 35/35/35
f 34/34/34 35/35/35 37/37/37
f 36/36/36 38/38/38 35/35/35
f 36/36/36 39/39/39 38/38/38
f 39/39/39 40/40/40 38/38/38
f 39/39/39 41/41/41 40/40/40
f 42/42/42 44/44/44 43/43/43
f 42/42/42 43/43/43 45/45/45
f 46/46/46 42/42/42 45/45/45
f 46/46/46 45/45/45 47/47/47
f 48/48/48 46/46/46 47/47/47
f 48/48/48 47/47/47 49/49/49
f 50/50/50 52/52/52 51/51/51
f 50/50/50 51/51/51 53/53/53
f 52/52/52 54/54/54 51/51/51
f 52/52/52 55/55/55 54/54/54
f 55/55/55 56/56/56 54/54/54
f 55/55/55 57/57/57 56/56/56
f 58/58/58 60/60/60 59/59/59
f 61/61/61 62/62/62 59/59/59
f 63/63/63 65/65/65 64/64/64
f 66/66/66 67/67/67 64/64/64
f 68/68/68 70/70/70 69/69/69
f 71/71/71 72/72/72 69/69/69
f 73/73/73 75/75/75 74/74/74
f 75/75/75 76/76/76 74/74/74
f 76/76/76 77/77/77 74/74/74
f 78/78/78 80/80/80 79/79/79
f 81/81/81 78/78/78 79/79/79
f 82/82/82 81/81/81 79/79/79
f 83/83/83 85/85/85 84/84/84
f 85/85/85 86/86/86 84/84/84
f 86/86/86 87/87/87 84/84/84
f 88/88/88 90/90/90 89/89/89
f 91/91/91 88/88/88 89/89/89
f 92/92/92 91/91/91 89/89/89
f 93/93/93 95/95/95 94/94/94
f 96/96/96 94/94/94 97/97/97
f 97/97/97 94/94/94 98/98/98
f 99/99/99 98/98/98 100/100/100
f 100/100/100 98/98/98 101/101/101
f 96/96/96 99/99/99 102/102/102
f 96/96/96 102/102/102 103/103/103
f 99/99/99 104/104/104 102/102/102
f 99/99/99 105/105/105 104/104/104
f 105/105/105 101/101/101 106/106/106
f 105/105/105 107/107/107 104/104/104
f 105/105/105 108/108/108 107/107/107
f 109/109/109 111/111/111 110/110/110
f 109/109/109 110/110/110 112/112/112
f 111/111/111 113/113/113 110/110/110
f 111/111/111 114/114/114 113/113/113
f 114/114/114 115/115/115 113/113/113
f 114/114/114 116/116/116 115/115/115
f 117/117/117 113/113/113 118/118/118
f 117/117/117 120/120/120 119/119/119
f 120/120/120 110/110/110 119/119/119
f 120/120/120 122/122/122 121/121/121
f 122/122/122 112/112/112 121/121/121
f 122/122/122 124/124/124 123/123/123
f 125/125/125 127/127/127 126/126/126
f 125/125/125 126/126/126 128/128/128
f 126/126/126 129/129/129 128/128/128
f 126/126/126 130/130/130 129/129/129
f 126/126/126 131/131/131 130/130/130
f 130/130/130 131/131/131 132/132/132
f 133/133/133 135/135/135 134/134/134
f 133/133/133 134/134/134 136/136/136
f 137/137/137 133/133/133 136/136/136
f 137/137/137 138/138/138 133/133/133
f 139/139/139 138/138/138 137/137/137
f 139/139/139 140/140/140 138/138/138
f 141/141/141 140/140/140 139/139/139
f 138/138/138 142/142/142 133/133/133
f 142/142/142 138/138/138 143/143/143
f 138/138/138 140/140/140 143/143/143
f 144/144/144 143/143/143 140/140/140
f 142/142/142 143/143/143 144/144/144
f 133/133/133 145/145/145 135/135/135
f 142/142/142 145/145/145 133/133/133
f 146/146/146 139/139/139 147/147/147
f 144/144/144 149/149/149 148/148/148
f 150/150/150 152/152/152 151/151/151
f 150/150/150 151/151/151 153/153/153
f 154/154/154 152/152/152 150/150/150
f 154/154/154 155/155/155 152/152/152
f 156/156/156 155/155/155 154/154/154
f 156/156/156 157/157/157 155/155/155
f 158/158/158 160/160/160 159/159/159
f 158/158/158 159/159/159 161/161/161
f 161/161/161 159/159/159 162/162/162
f 161/161/161 162/162/162 163/163/163
f 163/163/163 162/162/162 164/164/164
f 163/163/163 164/164/164 165/165/165
f 166/166/166 168/168/168 167/167/167
f 166/166/166 167/167/167 169/169/169
f 170/170/170 168/168/168 166/166/166
f 170/170/170 171/171/171 168/168/168
f 172/172/172 171/171/171 170/170/170
f 172/172/172 173/173/173 171/171/171
f 174/174/174 176/176/176 175/175/175
f 174/174/174 175/175/175 177/177/177
f 177/177/177 175/175/175 178/178/178
f 177/177/177 178/178/178 179/179/179
f 179/179/179 178/178/178 180/180/180
f 179/179/179 180/180/180 181/181/181
f 182/182/182 184/184/184 183/183/183
f 185/185/185 184/184/184 186/186/186
f 187/187/187 189/189/189 188/188/188
f 190/190/190 189/189/189 191/191/191
f 192/192/192 194/194/194 193/193/193
f 195/195/195 194/194/194 196/196/196
f 197/197/197 199/199/199 198/198/198
f 198/198/198 199/199/199 200/200/200
f 200/200/200 199/199/199 201/201/201
f 202/202/202 204/204/204 203/203/203
f 205/205/205 204/204/204 202/202/202
f 206/206/206 204/204/204 205/205/205
f 207/207/207 209/209/209 208/208/208
f 208/208/208 209/209/209 210/210/210
f 210/210/210 209/209/209 211/211/211
f 212/212/212 214/214/214 213/213/213
f 215/215/215 214/214/214 212/212/212
f 216/216/216 214/214/214 215/215/215
f 217/217/217 219/219/219 218/218/218
f 219/219/219 220/220/220 218/218/218
f 221/221/221 218/218/218 222/222/222
f 223/223/223 224/224/224 220/220/220
f 224/224/224 225/225/225 220/220/220
f 217/217/217 226/226/226 223/223/223
f 217/217/217 227/227/227 226/226/226
f 223/223/223 226/226/226 228/228/228
f 223/223/223 228/228/228 229/229/229
f 229/229/229 230/230/230 225/225/225
f 229/229/229 228/228/228 231/231/231
f 229/229/229 231/231/231 232/232/232
f 233/233/233 235/235/235 234/234/234
f 233/233/233 234/234/234 236/236/236
f 236/236/236 234/234/234 237/237/237
f 236/236/236 237/237/237 238/238/238
f 238/238/238 237/237/237 239/239/239
f 238/238/238 239/239/239 240/240/240
f 241/241/241 242/242/242 237/237/237
f 241/241/241 244/244/244 243/243/243
f 243/243/243 244/244/244 234/234/234
f 243/243/243 246/246/246 245/245/245
f 245/245/245 246/246/246 235/235/235
f 245/245/245 248/248/248 247/247/247
