<svg xmlns="http://www.w3.org/2000/svg" width="1024" height="1024" viewBox="0 0 1024 1024"><rect width="1024" height="1024" fill="#17222d"/><polygon points="206.85,425.06 31.44,530.84 29.49,385.64" fill="none" stroke="#668b97" stroke-width="1"/><polygon points="206.85,425.06 29.49,385.64 204.60,348.57" fill="none" stroke="#668b97" stroke-width="1"/><polygon points="29.49,385.64 150.63,242.38 204.60,348.57" fill="none" stroke="#668b97" stroke-width="1"/><polygon points="150.63,242.38 210.12,269.41 204.60,348.57" fill="none" stroke="#668b97" stroke-width="1"/><polygon points="29.49,385.64 32.77,216.88 150.63,242.38" fill="none" stroke="#668b97" stroke-width="1"/><polygon points="206.85,425.06 180.63,526.34 31.44,530.84" fill="none" stroke="#668b97" stroke-width="1"/><polygon points="206.85,425.06 228.15,515.28 180.63,526.34" fill="none" stroke="#668b97" stroke-width="1"/><polygon points="252.83,599.24 180.63,526.34 228.15,515.28" fill="none" stroke="#668b97" stroke-width="1"/><polygon points="163.94,616.65 31.44,530.84 180.63,526.34" fill="none" stroke="#668b97" stroke-width="1"/><polygon points="252.83,599.24 163.94,616.65 180.63,526.34" fill="none" stroke="#668b97" stroke-width="1"/><polygon points="163.94,616.65 37.38,618.80 31.44,530.84" fill="none" stroke="#668b97" stroke-width="1"/><polygon points="37.38,618.80 163.94,616.65 146.64,686.39" fill="none" stroke="#668b97" stroke-width="1"/><polygon points="37.38,618.80 146.64,686.39 29.49,693.04" fill="none" stroke="#668b97" stroke-width="1"/><polygon points="235.52,710.86 163.94,616.65 252.83,599.24" fill="none" stroke="#668b97" stroke-width="1"/><polygon points="235.52,710.86 146.64,686.39 163.94,616.65" fill="none" stroke="#668b97" stroke-width="1"/><polygon points="29.49,693.04 146.64,686.39 118.17,783.56" fill="none" stroke="#668b97" stroke-width="1"/><polygon points="118.17,783.56 146.64,686.39 235.52,710.86" fill="none" stroke="#668b97" stroke-width="1"/><polygon points="29.49,693.04 118.17,783.56 29.49,786.12" fill="none" stroke="#668b97" stroke-width="1"/><polygon points="252.83,599.24 394.75,677.68 235.52,710.86" fill="none" stroke="#668b97" stroke-width="1"/><polygon points="105.68,890.37 29.49,786.12 118.17,783.56" fill="none" stroke="#668b97" stroke-width="1"/><polygon points="105.68,890.37 29.49,897.02 29.49,786.12" fill="none" stroke="#668b97" stroke-width="1"/><polygon points="29.49,897.02 105.68,890.37 173.77,961.43" fill="none" stroke="#668b97" stroke-width="1"/><polygon points="105.68,890.37 118.17,783.56 236.75,849.51" fill="none" stroke="#668b97" stroke-width="1"/><polygon points="236.75,849.51 118.17,783.56 235.52,710.86" fill="none" stroke="#668b97" stroke-width="1"/><polygon points="236.75,849.51 235.52,710.86 394.75,677.68" fill="none" stroke="#668b97" stroke-width="1"/><polygon points="173.77,961.43 105.68,890.37 236.75,849.51" fill="none" stroke="#668b97" stroke-width="1"/><polygon points="252.83,599.24 381.03,591.67 394.75,677.68" fill="none" stroke="#668b97" stroke-width="1"/><polygon points="236.75,849.51 394.75,677.68 440.12,778.14" fill="none" stroke="#668b97" stroke-width="1"/><polygon points="236.75,849.51 440.12,778.14 465.31,903.88" fill="none" stroke="#668b97" stroke-width="1"/><polygon points="394.75,677.68 564.22,753.36 440.12,778.14" fill="none" stroke="#668b97" stroke-width="1"/><polygon points="465.31,903.88 440.12,778.14 564.22,753.36" fill="none" stroke="#668b97" stroke-width="1"/><polygon points="465.31,903.88 564.22,753.36 566.27,872.65" fill="none" stroke="#668b97" stroke-width="1"/><polygon points="465.31,903.88 566.27,872.65 562.07,974.64" fill="none" stroke="#668b97" stroke-width="1"/><polygon points="394.75,677.68 565.25,665.91 564.22,753.36" fill="none" stroke="#668b97" stroke-width="1"/><polygon points="565.25,594.43 565.25,665.91 394.75,677.68" fill="none" stroke="#668b97" stroke-width="1"/><polygon points="565.25,594.43 394.75,677.68 381.03,591.67" fill="none" stroke="#668b97" stroke-width="1"/><polygon points="565.25,507.70 565.25,594.43 381.03,591.67" fill="none" stroke="#668b97" stroke-width="1"/><polygon points="395.06,510.67 565.25,507.70 381.03,591.67" fill="none" stroke="#668b97" stroke-width="1"/><polygon points="395.06,510.67 381.03,591.67 375.81,507.49" fill="none" stroke="#668b97" stroke-width="1"/><polygon points="395.06,510.67 375.81,507.49 372.53,388.81" fill="none" stroke="#668b97" stroke-width="1"/><polygon points="395.06,510.67 372.53,388.81 429.98,361.98" fill="none" stroke="#668b97" stroke-width="1"/><polygon points="565.25,507.70 395.06,510.67 429.98,361.98" fill="none" stroke="#668b97" stroke-width="1"/><polygon points="565.25,507.70 429.98,361.98 562.89,372.02" fill="none" stroke="#668b97" stroke-width="1"/><polygon points="173.77,961.43 236.75,849.51 105.68,890.37" fill="none" stroke="#668b97" stroke-width="1"/><polygon points="29.49,897.02 173.77,961.43 105.68,890.37" fill="none" stroke="#668b97" stroke-width="1"/><polygon points="29.49,786.12 29.49,897.02 105.68,890.37" fill="none" stroke="#668b97" stroke-width="1"/><polygon points="29.49,786.12 105.68,890.37 118.17,783.56" fill="none" stroke="#668b97" stroke-width="1"/><polygon points="105.68,890.37 236.75,849.51 118.17,783.56" fill="none" stroke="#668b97" stroke-width="1"/><polygon points="118.17,783.56 29.49,693.04 29.49,786.12" fill="none" stroke="#668b97" stroke-width="1"/><polygon points="118.17,783.56 147.87,686.18 29.49,693.04" fill="none" stroke="#668b97" stroke-width="1"/><polygon points="147.87,686.18 37.48,619.21 29.49,693.04" fill="none" stroke="#668b97" stroke-width="1"/><polygon points="236.75,849.51 239.92,711.07 118.17,783.56" fill="none" stroke="#668b97" stroke-width="1"/><polygon points="118.17,783.56 239.92,711.07 147.87,686.18" fill="none" stroke="#668b97" stroke-width="1"/><polygon points="147.87,686.18 163.94,616.65 37.48,619.21" fill="none" stroke="#668b97" stroke-width="1"/><polygon points="163.94,616.65 147.87,686.18 239.92,711.07" fill="none" stroke="#668b97" stroke-width="1"/><polygon points="163.94,616.65 31.44,530.84 37.48,619.21" fill="none" stroke="#668b97" stroke-width="1"/><polygon points="236.75,849.51 394.75,677.68 239.92,711.07" fill="none" stroke="#668b97" stroke-width="1"/><polygon points="163.94,616.65 239.92,711.07 252.83,599.24" fill="none" stroke="#668b97" stroke-width="1"/><polygon points="252.83,599.24 239.92,711.07 394.75,677.68" fill="none" stroke="#668b97" stroke-width="1"/><polygon points="180.63,526.34 163.94,616.65 252.83,599.24" fill="none" stroke="#668b97" stroke-width="1"/><polygon points="163.94,616.65 180.63,526.34 31.44,530.84" fill="none" stroke="#668b97" stroke-width="1"/><polygon points="180.63,526.34 252.83,599.24 228.15,515.28" fill="none" stroke="#668b97" stroke-width="1"/><polygon points="206.85,425.06 180.63,526.34 228.15,515.28" fill="none" stroke="#668b97" stroke-width="1"/><polygon points="206.85,425.06 31.44,530.84 180.63,526.34" fill="none" stroke="#668b97" stroke-width="1"/><polygon points="206.85,425.06 29.49,385.64 31.44,530.84" fill="none" stroke="#668b97" stroke-width="1"/><polygon points="206.85,425.06 204.60,348.57 29.49,385.64" fill="none" stroke="#668b97" stroke-width="1"/><polygon points="29.49,385.64 204.60,348.57 151.04,242.07" fill="none" stroke="#668b97" stroke-width="1"/><polygon points="151.04,242.07 204.60,348.57 210.12,269.41" fill="none" stroke="#668b97" stroke-width="1"/><polygon points="29.49,385.64 151.04,242.07 32.77,216.88" fill="none" stroke="#668b97" stroke-width="1"/><polygon points="252.83,599.24 394.75,677.68 381.03,591.67" fill="none" stroke="#668b97" stroke-width="1"/><polygon points="236.75,849.51 440.12,778.14 394.75,677.68" fill="none" stroke="#668b97" stroke-width="1"/><polygon points="236.75,849.51 465.31,903.88 440.12,778.14" fill="none" stroke="#668b97" stroke-width="1"/><polygon points="394.75,677.68 440.12,778.14 564.22,753.36" fill="none" stroke="#668b97" stroke-width="1"/><polygon points="465.31,903.88 564.22,753.36 440.12,778.14" fill="none" stroke="#668b97" stroke-width="1"/><polygon points="465.31,903.88 566.27,872.65 564.22,753.36" fill="none" stroke="#668b97" stroke-width="1"/><polygon points="465.31,903.88 562.07,974.64 566.27,872.65" fill="none" stroke="#668b97" stroke-width="1"/><polygon points="394.75,677.68 564.22,753.36 565.25,665.91" fill="none" stroke="#668b97" stroke-width="1"/><polygon points="394.75,677.68 565.25,665.91 565.25,594.43" fill="none" stroke="#668b97" stroke-width="1"/><polygon points="394.75,677.68 565.25,594.43 381.03,591.67" fill="none" stroke="#668b97" stroke-width="1"/><polygon points="381.03,591.67 565.25,594.43 565.25,507.70" fill="none" stroke="#668b97" stroke-width="1"/><polygon points="395.06,510.67 381.03,591.67 565.25,507.70" fill="none" stroke="#668b97" stroke-width="1"/><polygon points="395.06,510.67 375.81,507.49 381.03,591.67" fill="none" stroke="#668b97" stroke-width="1"/><polygon points="372.53,388.81 375.81,507.49 395.06,510.67" fill="none" stroke="#668b97" stroke-width="1"/><polygon points="372.53,388.81 395.06,510.67 430.08,362.29" fill="none" stroke="#668b97" stroke-width="1"/><polygon points="565.25,507.70 430.08,362.29 395.06,510.67" fill="none" stroke="#668b97" stroke-width="1"/><polygon points="565.25,507.70 562.89,372.22 430.08,362.29" fill="none" stroke="#668b97" stroke-width="1"/><polygon points="998.60,507.19 903.68,648.40 895.90,488.65" fill="none" stroke="#668b97" stroke-width="1"/><polygon points="903.68,648.40 692.12,637.85 739.53,562.07" fill="none" stroke="#668b97" stroke-width="1"/><polygon points="903.68,648.40 739.53,562.07 895.90,488.65" fill="none" stroke="#668b97" stroke-width="1"/><polygon points="895.90,488.65 739.53,562.07 685.98,460.29" fill="none" stroke="#668b97" stroke-width="1"/><polygon points="998.60,507.19 1000.24,627.71 903.68,648.40" fill="none" stroke="#668b97" stroke-width="1"/><polygon points="903.68,648.40 1000.24,627.71 998.60,507.19" fill="none" stroke="#668b97" stroke-width="1"/><polygon points="957.13,374.27 998.60,507.19 895.90,488.65" fill="none" stroke="#668b97" stroke-width="1"/><polygon points="957.13,374.27 895.90,488.65 827.80,367.10" fill="none" stroke="#668b97" stroke-width="1"/><polygon points="895.90,488.65 685.98,460.29 827.80,367.10" fill="none" stroke="#668b97" stroke-width="1"/><polygon points="961.13,243.92 957.13,374.27 827.80,367.10" fill="none" stroke="#668b97" stroke-width="1"/><polygon points="877.67,159.13 961.13,243.92 827.80,367.10" fill="none" stroke="#668b97" stroke-width="1"/><polygon points="827.80,367.10 685.98,460.29 650.34,379.70" fill="none" stroke="#668b97" stroke-width="1"/><polygon points="685.98,460.29 599.76,451.48 650.34,379.70" fill="none" stroke="#668b97" stroke-width="1"/><polygon points="877.67,159.13 827.80,367.10 747.11,281.19" fill="none" stroke="#668b97" stroke-width="1"/><polygon points="827.80,367.10 650.34,379.70 747.11,281.19" fill="none" stroke="#668b97" stroke-width="1"/><polygon points="772.61,93.70 877.67,159.13 747.11,281.19" fill="none" stroke="#668b97" stroke-width="1"/><polygon points="599.76,451.48 577.84,320.51 650.34,379.70" fill="none" stroke="#668b97" stroke-width="1"/><polygon points="772.61,93.70 747.11,281.19 676.15,211.97" fill="none" stroke="#668b97" stroke-width="1"/><polygon points="676.15,211.97 747.11,281.19 650.34,379.70" fill="none" stroke="#668b97" stroke-width="1"/><polygon points="676.15,211.97 650.34,379.70 577.84,320.51" fill="none" stroke="#668b97" stroke-width="1"/><polygon points="642.66,58.16 772.61,93.70 676.15,211.97" fill="none" stroke="#668b97" stroke-width="1"/><polygon points="676.15,211.97 577.84,320.51 519.48,256.61" fill="none" stroke="#668b97" stroke-width="1"/><polygon points="642.66,58.16 676.15,211.97 577.64,139.26" fill="none" stroke="#668b97" stroke-width="1"/><polygon points="676.15,211.97 519.48,256.61 577.64,139.26" fill="none" stroke="#668b97" stroke-width="1"/><polygon points="577.64,139.26 528.49,10.44 642.66,58.16" fill="none" stroke="#668b97" stroke-width="1"/><polygon points="519.48,256.61 458.34,78.34 577.64,139.26" fill="none" stroke="#668b97" stroke-width="1"/><polygon points="577.64,139.26 458.34,78.34 528.49,10.44" fill="none" stroke="#668b97" stroke-width="1"/><polygon points="519.48,256.61 393.52,281.80 458.34,78.34" fill="none" stroke="#668b97" stroke-width="1"/><polygon points="528.49,10.44 458.34,78.34 577.64,139.26" fill="none" stroke="#668b97" stroke-width="1"/><polygon points="528.49,10.44 577.64,139.26 642.66,58.16" fill="none" stroke="#668b97" stroke-width="1"/><polygon points="519.48,256.61 577.64,139.26 458.34,78.34" fill="none" stroke="#668b97" stroke-width="1"/><polygon points="519.48,256.61 458.34,78.34 393.52,281.80" fill="none" stroke="#668b97" stroke-width="1"/><polygon points="676.15,211.97 642.66,58.16 577.64,139.26" fill="none" stroke="#668b97" stroke-width="1"/><polygon points="519.48,256.61 676.15,211.97 577.64,139.26" fill="none" stroke="#668b97" stroke-width="1"/><polygon points="676.15,211.97 772.61,93.70 642.66,58.16" fill="none" stroke="#668b97" stroke-width="1"/><polygon points="519.48,256.61 577.84,320.51 676.15,211.97" fill="none" stroke="#668b97" stroke-width="1"/><polygon points="747.11,281.19 772.61,93.70 676.15,211.97" fill="none" stroke="#668b97" stroke-width="1"/><polygon points="747.11,281.19 877.67,159.13 772.61,93.70" fill="none" stroke="#668b97" stroke-width="1"/><polygon points="650.34,379.70 676.15,211.97 577.84,320.51" fill="none" stroke="#668b97" stroke-width="1"/><polygon points="650.34,379.70 747.11,281.19 676.15,211.97" fill="none" stroke="#668b97" stroke-width="1"/><polygon points="599.76,451.48 650.34,379.70 577.84,320.51" fill="none" stroke="#668b97" stroke-width="1"/><polygon points="685.98,460.29 650.34,379.70 599.76,451.48" fill="none" stroke="#668b97" stroke-width="1"/><polygon points="827.80,367.10 747.11,281.19 650.34,379.70" fill="none" stroke="#668b97" stroke-width="1"/><polygon points="827.80,367.10 877.67,159.13 747.11,281.19" fill="none" stroke="#668b97" stroke-width="1"/><polygon points="827.80,367.10 650.34,379.70 685.98,460.29" fill="none" stroke="#668b97" stroke-width="1"/><polygon points="827.80,367.10 961.13,243.92 877.67,159.13" fill="none" stroke="#668b97" stroke-width="1"/><polygon points="961.13,243.92 827.80,367.10 957.13,374.27" fill="none" stroke="#668b97" stroke-width="1"/><polygon points="685.98,460.29 895.90,488.65 827.80,367.10" fill="none" stroke="#668b97" stroke-width="1"/><polygon points="957.13,374.27 827.80,367.10 895.90,488.65" fill="none" stroke="#668b97" stroke-width="1"/><polygon points="957.13,374.27 895.90,488.65 998.60,507.19" fill="none" stroke="#668b97" stroke-width="1"/><polygon points="685.98,460.29 739.53,562.07 895.90,488.65" fill="none" stroke="#668b97" stroke-width="1"/><polygon points="903.68,648.40 895.90,488.65 739.53,562.07" fill="none" stroke="#668b97" stroke-width="1"/><polygon points="903.68,648.40 998.60,507.19 895.90,488.65" fill="none" stroke="#668b97" stroke-width="1"/><polygon points="903.68,648.40 739.53,562.07 692.12,637.85" fill="none" stroke="#668b97" stroke-width="1"/><polygon points="305.97,133.43 315.90,26.83 404.28,135.27" fill="none" stroke="#668b97" stroke-width="1"/><polygon points="170.80,14.23 315.90,26.83 305.97,133.43" fill="none" stroke="#668b97" stroke-width="1"/><polygon points="170.80,14.23 305.97,133.43 95.95,138.24" fill="none" stroke="#668b97" stroke-width="1"/><polygon points="369.66,281.40 305.97,133.43 404.28,135.27" fill="none" stroke="#668b97" stroke-width="1"/><polygon points="369.66,281.40 223.33,313.45 305.97,133.43" fill="none" stroke="#668b97" stroke-width="1"/><polygon points="369.66,281.40 305.97,133.43 223.33,313.45" fill="none" stroke="#668b97" stroke-width="1"/><polygon points="369.66,281.40 404.28,135.27 305.97,133.43" fill="none" stroke="#668b97" stroke-width="1"/><polygon points="305.97,133.43 404.28,135.27 315.90,26.83" fill="none" stroke="#668b97" stroke-width="1"/><polygon points="170.80,14.23 305.97,133.43 315.90,26.83" fill="none" stroke="#668b97" stroke-width="1"/><polygon points="170.80,14.23 95.95,138.24 305.97,133.43" fill="none" stroke="#668b97" stroke-width="1"/><polygon points="823.40,784.49 979.87,696.52 1007.92,782.44" fill="none" stroke="#668b97" stroke-width="1"/><polygon points="823.40,784.49 851.05,703.39 979.87,696.52" fill="none" stroke="#668b97" stroke-width="1"/><polygon points="823.40,784.49 1007.92,782.44 977.82,955.19" fill="none" stroke="#668b97" stroke-width="1"/><polygon points="823.40,784.49 977.82,955.19 858.21,954.68" fill="none" stroke="#668b97" stroke-width="1"/><polygon points="678.71,674.00 585.11,600.78 678.71,600.17" fill="none" stroke="#668b97" stroke-width="1"/><polygon points="678.71,674.00 585.11,674.00 585.11,600.78" fill="none" stroke="#668b97" stroke-width="1"/><polygon points="678.71,600.17 585.11,600.78 585.11,528.69" fill="none" stroke="#668b97" stroke-width="1"/><polygon points="678.71,674.00 585.11,755.51 585.11,674.00" fill="none" stroke="#668b97" stroke-width="1"/><polygon points="678.71,600.17 585.11,528.69 678.71,528.69" fill="none" stroke="#668b97" stroke-width="1"/><polygon points="678.71,475.14 678.71,528.69 585.11,528.69" fill="none" stroke="#668b97" stroke-width="1"/><polygon points="678.71,475.14 585.11,528.69 585.11,475.14" fill="none" stroke="#668b97" stroke-width="1"/><polygon points="678.71,674.00 678.71,755.40 585.11,755.51" fill="none" stroke="#668b97" stroke-width="1"/><polygon points="678.71,844.90 585.11,755.51 678.71,755.40" fill="none" stroke="#668b97" stroke-width="1"/><polygon points="678.71,844.90 585.11,844.90 585.11,755.51" fill="none" stroke="#668b97" stroke-width="1"/><polygon points="678.71,920.37 585.11,844.90 678.71,844.90" fill="none" stroke="#668b97" stroke-width="1"/><polygon points="678.71,920.37 585.11,920.37 585.11,844.90" fill="none" stroke="#668b97" stroke-width="1"/><polygon points="678.71,920.37 585.11,987.85 585.11,920.37" fill="none" stroke="#668b97" stroke-width="1"/><polygon points="678.71,920.37 678.71,987.85 585.11,987.85" fill="none" stroke="#668b97" stroke-width="1"/><polygon points="585.11,844.90 678.71,920.37 678.71,844.90" fill="none" stroke="#668b97" stroke-width="1"/><polygon points="585.11,844.90 678.71,844.90 678.71,755.40" fill="none" stroke="#668b97" stroke-width="1"/><polygon points="585.11,844.90 585.11,920.37 678.71,920.37" fill="none" stroke="#668b97" stroke-width="1"/><polygon points="585.11,987.85 678.71,920.37 585.11,920.37" fill="none" stroke="#668b97" stroke-width="1"/><polygon points="585.11,987.85 678.71,987.85 678.71,920.37" fill="none" stroke="#668b97" stroke-width="1"/><polygon points="585.11,844.90 678.71,755.40 585.11,755.51" fill="none" stroke="#668b97" stroke-width="1"/><polygon points="585.11,674.00 585.11,755.51 678.71,755.40" fill="none" stroke="#668b97" stroke-width="1"/><polygon points="585.11,674.00 678.71,755.40 678.71,674.00" fill="none" stroke="#668b97" stroke-width="1"/><polygon points="585.11,600.78 585.11,674.00 678.71,674.00" fill="none" stroke="#668b97" stroke-width="1"/><polygon points="585.11,600.78 678.71,674.00 678.71,600.17" fill="none" stroke="#668b97" stroke-width="1"/><polygon points="585.11,528.69 585.11,600.78 678.71,600.17" fill="none" stroke="#668b97" stroke-width="1"/><polygon points="585.11,528.69 678.71,600.17 678.71,528.69" fill="none" stroke="#668b97" stroke-width="1"/><polygon points="585.11,528.69 678.71,528.69 678.71,475.14" fill="none" stroke="#668b97" stroke-width="1"/><polygon points="585.11,528.69 678.71,475.14 585.11,475.14" fill="none" stroke="#668b97" stroke-width="1"/><polygon points="823.40,784.49 979.87,696.52 851.05,703.39" fill="none" stroke="#668b97" stroke-width="1"/><polygon points="823.40,784.49 1007.92,782.44 979.87,696.52" fill="none" stroke="#668b97" stroke-width="1"/><polygon points="823.40,784.49 977.82,955.19 1007.92,782.44" fill="none" stroke="#668b97" stroke-width="1"/><polygon points="823.40,784.49 858.21,954.68 977.82,955.19" fill="none" stroke="#668b97" stroke-width="1"/><polygon points="678.71,674.00 585.11,600.78 585.11,674.00" fill="none" stroke="#668b97" stroke-width="1"/><polygon points="585.11,755.51 678.71,674.00 585.11,674.00" fill="none" stroke="#668b97" stroke-width="1"/><polygon points="678.71,674.00 678.71,600.17 585.11,600.78" fill="none" stroke="#668b97" stroke-width="1"/><polygon points="585.11,755.51 678.71,755.40 678.71,674.00" fill="none" stroke="#668b97" stroke-width="1"/><polygon points="678.71,600.17 585.11,528.69 585.11,600.78" fill="none" stroke="#668b97" stroke-width="1"/><polygon points="678.71,844.90 678.71,755.40 585.11,755.51" fill="none" stroke="#668b97" stroke-width="1"/><polygon points="678.71,600.17 678.71,528.69 585.11,528.69" fill="none" stroke="#668b97" stroke-width="1"/><polygon points="585.11,528.69 678.71,528.69 678.71,475.14" fill="none" stroke="#668b97" stroke-width="1"/><polygon points="585.11,528.69 678.71,475.14 585.11,475.14" fill="none" stroke="#668b97" stroke-width="1"/><polygon points="678.71,844.90 585.11,755.51 585.11,844.90" fill="none" stroke="#668b97" stroke-width="1"/><polygon points="678.71,920.37 678.71,844.90 585.11,844.90" fill="none" stroke="#668b97" stroke-width="1"/><polygon points="678.71,920.37 585.11,844.90 585.11,920.37" fill="none" stroke="#668b97" stroke-width="1"/><polygon points="585.11,987.85 678.71,920.37 585.11,920.37" fill="none" stroke="#668b97" stroke-width="1"/><polygon points="585.11,987.85 678.71,987.85 678.71,920.37" fill="none" stroke="#668b97" stroke-width="1"/><polygon points="678.71,920.37 585.11,844.90 678.71,844.90" fill="none" stroke="#668b97" stroke-width="1"/><polygon points="585.11,844.90 678.71,755.40 678.71,844.90" fill="none" stroke="#668b97" stroke-width="1"/><polygon points="678.71,920.37 585.11,920.37 585.11,844.90" fill="none" stroke="#668b97" stroke-width="1"/><polygon points="585.11,987.85 585.11,920.37 678.71,920.37" fill="none" stroke="#668b97" stroke-width="1"/><polygon points="585.11,987.85 678.71,920.37 678.71,987.85" fill="none" stroke="#668b97" stroke-width="1"/><polygon points="585.11,844.90 585.11,755.51 678.71,755.40" fill="none" stroke="#668b97" stroke-width="1"/><polygon points="678.71,755.40 585.11,755.51 585.11,674.00" fill="none" stroke="#668b97" stroke-width="1"/><polygon points="678.71,755.40 585.11,674.00 678.71,674.00" fill="none" stroke="#668b97" stroke-width="1"/><polygon points="678.71,674.00 585.11,674.00 585.11,600.78" fill="none" stroke="#668b97" stroke-width="1"/><polygon points="678.71,674.00 585.11,600.78 678.71,600.17" fill="none" stroke="#668b97" stroke-width="1"/><polygon points="678.71,600.17 585.11,600.78 585.11,528.69" fill="none" stroke="#668b97" stroke-width="1"/><polygon points="678.71,600.17 585.11,528.69 678.71,528.69" fill="none" stroke="#668b97" stroke-width="1"/><polygon points="585.11,528.69 678.71,475.14 678.71,528.69" fill="none" stroke="#668b97" stroke-width="1"/><polygon points="585.11,528.69 585.11,475.14 678.71,475.14" fill="none" stroke="#668b97" stroke-width="1"/><polygon points="29.49,385.64 204.60,348.57 206.85,425.06 228.15,515.28 180.63,526.34 31.44,530.84" fill="#518e62" fill-opacity=".72" stroke="#b1ddc7" stroke-width="2"/><polygon points="190.46,351.23 209.92,351.23 220.16,440.32 211.97,525.31 30.72,530.43 30.72,498.69 171.01,492.54 187.39,421.89" fill="#8caec6" stroke="#e7f0f6" stroke-width="2"/><polyline points="29.49,385.64 31.44,530.84" fill="none" stroke="#8fff9b" stroke-width="3"/><path d="M42 435 L300 390" fill="none" stroke="#8fff9b" stroke-width="2"/><text x="306" y="390" fill="#a9ffb5" font-family="Arial" font-size="17">CHEST CENTRE: GREEN, NO VERTICAL SILVER</text><path d="M198 400 L300 423" fill="none" stroke="#cfebff" stroke-width="2"/><text x="306" y="427" fill="#cfebff" font-family="Arial" font-size="17">OUTER U ARM: SILVER BLUE</text><path d="M120 510 L300 530" fill="none" stroke="#cfebff" stroke-width="2"/><text x="306" y="535" fill="#cfebff" font-family="Arial" font-size="17">BOTTOM U BAR: SILVER BLUE</text><text x="50" y="1000" fill="#cfebff" font-family="Arial" font-size="17">TECHNICAL GUIDE ONLY. MIRRORED HALF CHEST. DO NOT PAINT LABELS OR WIRES.</text></svg>