<svg xmlns="http://www.w3.org/2000/svg" width="1024" height="1024" viewBox="0 0 1024 1024"><rect width="1024" height="1024" fill="#17222d"/><polygon points="789.50,720.38 567.71,808.14 566.58,723.97" fill="none" stroke="#668b97" stroke-width="1"/><polygon points="682.50,865.08 567.71,808.14 789.50,720.38" fill="none" stroke="#668b97" stroke-width="1"/><polygon points="682.50,865.08 569.75,914.33 567.71,808.14" fill="none" stroke="#668b97" stroke-width="1"/><polygon points="682.50,865.08 637.03,1008.13 569.75,914.33" fill="none" stroke="#668b97" stroke-width="1"/><polygon points="637.03,1008.13 571.19,1015.09 569.75,914.33" fill="none" stroke="#668b97" stroke-width="1"/><polygon points="800.26,842.75 682.50,865.08 789.50,720.38" fill="none" stroke="#668b97" stroke-width="1"/><polygon points="637.03,1008.13 682.50,865.08 800.26,842.75" fill="none" stroke="#668b97" stroke-width="1"/><polygon points="988.36,718.03 800.26,842.75 789.50,720.38" fill="none" stroke="#668b97" stroke-width="1"/><polygon points="822.07,949.86 637.03,1008.13 800.26,842.75" fill="none" stroke="#668b97" stroke-width="1"/><polygon points="988.36,718.03 979.66,858.42 800.26,842.75" fill="none" stroke="#668b97" stroke-width="1"/><polygon points="979.66,858.42 822.07,949.86 800.26,842.75" fill="none" stroke="#668b97" stroke-width="1"/><polygon points="497.56,201.42 656.38,22.94 691.20,248.32" fill="none" stroke="#668b97" stroke-width="1"/><polygon points="656.38,22.94 836.92,102.81 691.20,248.32" fill="none" stroke="#668b97" stroke-width="1"/><polygon points="497.56,201.42 468.89,17.41 656.38,22.94" fill="none" stroke="#668b97" stroke-width="1"/><polygon points="386.87,219.85 468.89,17.41 497.56,201.42" fill="none" stroke="#668b97" stroke-width="1"/><polygon points="386.87,219.85 292.86,75.06 468.89,17.41" fill="none" stroke="#668b97" stroke-width="1"/><polygon points="214.02,151.35 292.86,75.06 386.87,219.85" fill="none" stroke="#668b97" stroke-width="1"/><polygon points="330.14,276.79 214.02,151.35 386.87,219.85" fill="none" stroke="#668b97" stroke-width="1"/><polygon points="547.02,351.95 386.87,219.85 497.56,201.42" fill="none" stroke="#668b97" stroke-width="1"/><polygon points="691.20,248.32 547.02,351.95 497.56,201.42" fill="none" stroke="#668b97" stroke-width="1"/><polygon points="386.87,219.85 547.02,351.95 330.14,276.79" fill="none" stroke="#668b97" stroke-width="1"/><polygon points="547.02,351.95 500.84,431.82 330.14,276.79" fill="none" stroke="#668b97" stroke-width="1"/><polygon points="500.84,431.82 346.42,320.61 330.14,276.79" fill="none" stroke="#668b97" stroke-width="1"/><polygon points="691.20,248.32 664.78,396.80 547.02,351.95" fill="none" stroke="#668b97" stroke-width="1"/><polygon points="664.78,396.80 500.84,431.82 547.02,351.95" fill="none" stroke="#668b97" stroke-width="1"/><polygon points="500.84,431.82 441.45,446.67 346.42,320.61" fill="none" stroke="#668b97" stroke-width="1"/><polygon points="691.20,248.32 780.29,390.45 664.78,396.80" fill="none" stroke="#668b97" stroke-width="1"/><polygon points="780.29,390.45 691.20,248.32 836.92,102.81" fill="none" stroke="#668b97" stroke-width="1"/><polygon points="664.78,396.80 661.40,498.59 500.84,431.82" fill="none" stroke="#668b97" stroke-width="1"/><polygon points="780.29,390.45 661.40,498.59 664.78,396.80" fill="none" stroke="#668b97" stroke-width="1"/><polygon points="432.03,561.46 441.45,446.67 500.84,431.82" fill="none" stroke="#668b97" stroke-width="1"/><polygon points="432.03,561.46 500.84,431.82 661.40,498.59" fill="none" stroke="#668b97" stroke-width="1"/><polygon points="330.14,276.79 346.42,320.61 187.39,208.28" fill="none" stroke="#668b97" stroke-width="1"/><polygon points="330.14,276.79 187.39,208.28 214.02,151.35" fill="none" stroke="#668b97" stroke-width="1"/><polygon points="432.03,561.46 403.97,544.36 441.45,446.67" fill="none" stroke="#668b97" stroke-width="1"/><polygon points="780.29,390.45 836.92,102.81 979.76,278.12" fill="none" stroke="#668b97" stroke-width="1"/><polygon points="1013.15,457.83 780.29,390.45 979.76,278.12" fill="none" stroke="#668b97" stroke-width="1"/><polygon points="1013.15,457.83 814.90,512.10 780.29,390.45" fill="none" stroke="#668b97" stroke-width="1"/><polygon points="661.40,498.59 780.29,390.45 814.90,512.10" fill="none" stroke="#668b97" stroke-width="1"/><polygon points="993.59,678.09 814.90,512.10 1013.15,457.83" fill="none" stroke="#668b97" stroke-width="1"/><polygon points="993.59,678.09 826.98,694.89 814.90,512.10" fill="none" stroke="#668b97" stroke-width="1"/><polygon points="826.98,694.89 661.40,498.59 814.90,512.10" fill="none" stroke="#668b97" stroke-width="1"/><polygon points="826.98,694.89 616.45,705.33 661.40,498.59" fill="none" stroke="#668b97" stroke-width="1"/><polygon points="432.03,561.46 661.40,498.59 616.45,705.33" fill="none" stroke="#668b97" stroke-width="1"/><polygon points="432.03,561.46 616.45,705.33 442.68,611.33" fill="none" stroke="#668b97" stroke-width="1"/><polygon points="616.45,705.33 463.26,708.20 442.68,611.33" fill="none" stroke="#668b97" stroke-width="1"/><polygon points="442.68,611.33 463.26,708.20 432.33,771.58" fill="none" stroke="#668b97" stroke-width="1"/><polygon points="261.84,630.27 432.03,561.46 442.68,611.33" fill="none" stroke="#668b97" stroke-width="1"/><polygon points="261.84,630.27 403.97,544.36 432.03,561.46" fill="none" stroke="#668b97" stroke-width="1"/><polygon points="284.67,666.73 442.68,611.33 432.33,771.58" fill="none" stroke="#668b97" stroke-width="1"/><polygon points="261.84,630.27 442.68,611.33 284.67,666.73" fill="none" stroke="#668b97" stroke-width="1"/><polygon points="284.67,666.73 432.33,771.58 294.71,792.27" fill="none" stroke="#668b97" stroke-width="1"/><polygon points="294.71,792.27 228.97,772.92 284.67,666.73" fill="none" stroke="#668b97" stroke-width="1"/><polygon points="284.67,666.73 228.97,772.92 76.80,776.60" fill="none" stroke="#668b97" stroke-width="1"/><polygon points="261.84,630.27 261.22,601.19 403.97,544.36" fill="none" stroke="#668b97" stroke-width="1"/><polygon points="101.99,603.75 261.22,601.19 261.84,630.27" fill="none" stroke="#668b97" stroke-width="1"/><polygon points="80.18,652.60 284.67,666.73 76.80,776.60" fill="none" stroke="#668b97" stroke-width="1"/><polygon points="80.18,652.60 261.84,630.27 284.67,666.73" fill="none" stroke="#668b97" stroke-width="1"/><polygon points="54.37,761.04 80.18,652.60 76.80,776.60" fill="none" stroke="#668b97" stroke-width="1"/><polygon points="101.99,603.75 261.84,630.27 83.66,630.37" fill="none" stroke="#668b97" stroke-width="1"/><polygon points="80.18,652.60 83.66,630.37 261.84,630.27" fill="none" stroke="#668b97" stroke-width="1"/><polygon points="25.70,601.50 101.99,603.75 83.66,630.37" fill="none" stroke="#668b97" stroke-width="1"/><polygon points="25.70,601.50 39.63,572.83 101.99,603.75" fill="none" stroke="#668b97" stroke-width="1"/><polygon points="18.33,633.14 25.70,601.50 83.66,630.37" fill="none" stroke="#668b97" stroke-width="1"/><polygon points="18.33,633.14 83.66,630.37 80.18,652.60" fill="none" stroke="#668b97" stroke-width="1"/><polygon points="54.37,761.04 52.63,663.96 80.18,652.60" fill="none" stroke="#668b97" stroke-width="1"/><polygon points="18.33,633.14 80.18,652.60 52.63,663.96" fill="none" stroke="#668b97" stroke-width="1"/><polygon points="52.63,663.96 54.37,761.04 13.52,748.85" fill="none" stroke="#668b97" stroke-width="1"/><polygon points="18.33,633.14 52.63,663.96 17.61,656.08" fill="none" stroke="#668b97" stroke-width="1"/><polygon points="52.63,663.96 13.52,748.85 17.61,656.08" fill="none" stroke="#668b97" stroke-width="1"/><polygon points="14.85,114.79 12.29,300.34 131.28,145.20" fill="none" stroke="#668b97" stroke-width="1"/><polygon points="12.29,300.34 182.37,252.31 131.28,145.20" fill="none" stroke="#668b97" stroke-width="1"/><polygon points="12.29,300.34 175.00,335.67 182.37,252.31" fill="none" stroke="#668b97" stroke-width="1"/><polygon points="12.29,300.34 168.45,375.19 175.00,335.67" fill="none" stroke="#668b97" stroke-width="1"/><polygon points="136.70,448.72 168.45,375.19 12.29,300.34" fill="none" stroke="#668b97" stroke-width="1"/><polygon points="103.63,481.48 136.70,448.72 12.29,300.34" fill="none" stroke="#668b97" stroke-width="1"/><polygon points="60.01,555.42 103.63,481.48 12.29,300.34" fill="none" stroke="#668b97" stroke-width="1"/><polygon points="60.01,555.42 12.29,300.34 47.10,543.33" fill="none" stroke="#668b97" stroke-width="1"/><polygon points="23.14,545.08 47.10,543.33 12.29,300.34" fill="none" stroke="#668b97" stroke-width="1"/><polygon points="789.71,720.59 566.58,723.97 567.71,808.14" fill="none" stroke="#668b97" stroke-width="1"/><polygon points="682.50,865.08 789.71,720.59 567.71,808.14" fill="none" stroke="#668b97" stroke-width="1"/><polygon points="569.75,914.33 682.50,865.08 567.71,808.14" fill="none" stroke="#668b97" stroke-width="1"/><polygon points="569.75,914.33 637.03,1008.13 682.50,865.08" fill="none" stroke="#668b97" stroke-width="1"/><polygon points="637.03,1008.13 569.75,914.33 571.19,1015.09" fill="none" stroke="#668b97" stroke-width="1"/><polygon points="800.26,842.75 789.71,720.59 682.50,865.08" fill="none" stroke="#668b97" stroke-width="1"/><polygon points="637.03,1008.13 800.26,842.75 682.50,865.08" fill="none" stroke="#668b97" stroke-width="1"/><polygon points="988.67,717.41 789.71,720.59 800.26,842.75" fill="none" stroke="#668b97" stroke-width="1"/><polygon points="822.07,949.86 800.26,842.75 637.03,1008.13" fill="none" stroke="#668b97" stroke-width="1"/><polygon points="988.67,717.41 800.26,842.75 979.66,858.42" fill="none" stroke="#668b97" stroke-width="1"/><polygon points="979.66,858.42 800.26,842.75 822.07,949.86" fill="none" stroke="#668b97" stroke-width="1"/><polygon points="497.56,201.42 656.38,22.94 468.89,17.41" fill="none" stroke="#668b97" stroke-width="1"/><polygon points="497.56,201.42 691.20,248.32 656.38,22.94" fill="none" stroke="#668b97" stroke-width="1"/><polygon points="656.38,22.94 691.20,248.32 836.92,102.81" fill="none" stroke="#668b97" stroke-width="1"/><polygon points="386.87,219.85 497.56,201.42 468.89,17.41" fill="none" stroke="#668b97" stroke-width="1"/><polygon points="386.87,219.85 468.89,17.41 292.86,75.06" fill="none" stroke="#668b97" stroke-width="1"/><polygon points="386.87,219.85 292.86,75.06 214.02,151.35" fill="none" stroke="#668b97" stroke-width="1"/><polygon points="330.14,276.79 386.87,219.85 214.02,151.35" fill="none" stroke="#668b97" stroke-width="1"/><polygon points="547.02,351.95 497.56,201.42 386.87,219.85" fill="none" stroke="#668b97" stroke-width="1"/><polygon points="691.20,248.32 497.56,201.42 547.02,351.95" fill="none" stroke="#668b97" stroke-width="1"/><polygon points="386.87,219.85 330.14,276.79 547.02,351.95" fill="none" stroke="#668b97" stroke-width="1"/><polygon points="330.14,276.79 500.84,431.82 547.02,351.95" fill="none" stroke="#668b97" stroke-width="1"/><polygon points="500.84,431.82 330.14,276.79 314.68,334.44" fill="none" stroke="#668b97" stroke-width="1"/><polygon points="187.39,208.28 314.68,334.44 330.14,276.79" fill="none" stroke="#668b97" stroke-width="1"/><polygon points="187.39,208.28 330.14,276.79 214.02,151.35" fill="none" stroke="#668b97" stroke-width="1"/><polygon points="500.84,431.82 314.68,334.44 441.96,448.31" fill="none" stroke="#668b97" stroke-width="1"/><polygon points="500.84,431.82 664.78,396.80 547.02,351.95" fill="none" stroke="#668b97" stroke-width="1"/><polygon points="691.20,248.32 547.02,351.95 664.78,396.80" fill="none" stroke="#668b97" stroke-width="1"/><polygon points="432.03,561.46 500.84,431.82 441.96,448.31" fill="none" stroke="#668b97" stroke-width="1"/><polygon points="691.20,248.32 664.78,396.80 780.29,390.45" fill="none" stroke="#668b97" stroke-width="1"/><polygon points="780.29,390.45 836.92,102.81 691.20,248.32" fill="none" stroke="#668b97" stroke-width="1"/><polygon points="500.84,431.82 661.40,498.59 664.78,396.80" fill="none" stroke="#668b97" stroke-width="1"/><polygon points="780.29,390.45 664.78,396.80 661.40,498.59" fill="none" stroke="#668b97" stroke-width="1"/><polygon points="432.03,561.46 661.40,498.59 500.84,431.82" fill="none" stroke="#668b97" stroke-width="1"/><polygon points="432.03,561.46 441.96,448.31 403.97,544.36" fill="none" stroke="#668b97" stroke-width="1"/><polygon points="432.03,561.46 616.45,705.33 661.40,498.59" fill="none" stroke="#668b97" stroke-width="1"/><polygon points="661.40,498.59 616.45,705.33 826.98,694.89" fill="none" stroke="#668b97" stroke-width="1"/><polygon points="661.40,498.59 826.98,694.89 814.90,512.10" fill="none" stroke="#668b97" stroke-width="1"/><polygon points="661.40,498.59 814.90,512.10 780.29,390.45" fill="none" stroke="#668b97" stroke-width="1"/><polygon points="814.90,512.10 826.98,694.89 993.59,678.09" fill="none" stroke="#668b97" stroke-width="1"/><polygon points="814.90,512.10 993.59,678.09 1013.15,457.83" fill="none" stroke="#668b97" stroke-width="1"/><polygon points="780.29,390.45 814.90,512.10 1013.15,457.83" fill="none" stroke="#668b97" stroke-width="1"/><polygon points="780.29,390.45 1013.15,457.83 979.76,278.12" fill="none" stroke="#668b97" stroke-width="1"/><polygon points="780.29,390.45 979.76,278.12 836.92,102.81" fill="none" stroke="#668b97" stroke-width="1"/><polygon points="432.03,561.46 442.68,611.33 616.45,705.33" fill="none" stroke="#668b97" stroke-width="1"/><polygon points="616.45,705.33 442.68,611.33 463.26,708.20" fill="none" stroke="#668b97" stroke-width="1"/><polygon points="442.68,611.33 432.33,771.58 463.26,708.20" fill="none" stroke="#668b97" stroke-width="1"/><polygon points="261.84,630.27 442.68,611.33 432.03,561.46" fill="none" stroke="#668b97" stroke-width="1"/><polygon points="261.84,630.27 432.03,561.46 403.97,544.36" fill="none" stroke="#668b97" stroke-width="1"/><polygon points="432.33,771.58 442.68,611.33 284.67,666.73" fill="none" stroke="#668b97" stroke-width="1"/><polygon points="261.84,630.27 284.67,666.73 442.68,611.33" fill="none" stroke="#668b97" stroke-width="1"/><polygon points="432.33,771.58 284.67,666.73 294.71,792.27" fill="none" stroke="#668b97" stroke-width="1"/><polygon points="294.71,792.27 284.67,666.73 228.97,772.92" fill="none" stroke="#668b97" stroke-width="1"/><polygon points="261.84,630.27 403.97,544.36 261.22,601.19" fill="none" stroke="#668b97" stroke-width="1"/><polygon points="284.67,666.73 76.80,776.60 228.97,772.92" fill="none" stroke="#668b97" stroke-width="1"/><polygon points="101.99,603.75 261.84,630.27 261.22,601.19" fill="none" stroke="#668b97" stroke-width="1"/><polygon points="80.18,652.60 76.80,776.60 284.67,666.73" fill="none" stroke="#668b97" stroke-width="1"/><polygon points="80.18,652.60 284.67,666.73 261.84,630.27" fill="none" stroke="#668b97" stroke-width="1"/><polygon points="54.37,761.04 76.80,776.60 80.18,652.60" fill="none" stroke="#668b97" stroke-width="1"/><polygon points="101.99,603.75 83.66,630.37 261.84,630.27" fill="none" stroke="#668b97" stroke-width="1"/><polygon points="80.18,652.60 261.84,630.27 83.66,630.37" fill="none" stroke="#668b97" stroke-width="1"/><polygon points="101.99,603.75 25.70,601.50 83.66,630.37" fill="none" stroke="#668b97" stroke-width="1"/><polygon points="101.99,603.75 39.63,572.83 25.70,601.50" fill="none" stroke="#668b97" stroke-width="1"/><polygon points="83.66,630.37 25.70,601.50 18.33,633.14" fill="none" stroke="#668b97" stroke-width="1"/><polygon points="83.66,630.37 18.33,633.14 80.18,652.60" fill="none" stroke="#668b97" stroke-width="1"/><polygon points="54.37,761.04 80.18,652.60 52.63,663.96" fill="none" stroke="#668b97" stroke-width="1"/><polygon points="52.63,663.96 80.18,652.60 18.33,633.14" fill="none" stroke="#668b97" stroke-width="1"/><polygon points="13.52,748.85 54.37,761.04 52.63,663.96" fill="none" stroke="#668b97" stroke-width="1"/><polygon points="52.63,663.96 18.33,633.14 17.61,656.08" fill="none" stroke="#668b97" stroke-width="1"/><polygon points="13.52,748.85 52.63,663.96 17.61,656.08" fill="none" stroke="#668b97" stroke-width="1"/><polygon points="14.85,114.79 131.28,145.20 12.29,300.34" fill="none" stroke="#668b97" stroke-width="1"/><polygon points="12.29,300.34 131.28,145.20 182.37,252.31" fill="none" stroke="#668b97" stroke-width="1"/><polygon points="12.29,300.34 182.37,252.31 175.00,335.67" fill="none" stroke="#668b97" stroke-width="1"/><polygon points="12.29,300.34 175.00,335.67 168.45,375.19" fill="none" stroke="#668b97" stroke-width="1"/><polygon points="136.70,448.72 12.29,300.34 168.45,375.19" fill="none" stroke="#668b97" stroke-width="1"/><polygon points="103.63,481.48 12.29,300.34 136.70,448.72" fill="none" stroke="#668b97" stroke-width="1"/><polygon points="60.01,555.42 12.29,300.34 103.63,481.48" fill="none" stroke="#668b97" stroke-width="1"/><polygon points="60.01,555.42 47.10,543.33 12.29,300.34" fill="none" stroke="#668b97" stroke-width="1"/><polygon points="23.14,545.08 12.29,300.34 47.10,543.33" fill="none" stroke="#668b97" stroke-width="1"/><polygon points="125.64,979.35 46.49,861.49 125.64,861.49" fill="none" stroke="#668b97" stroke-width="1"/><polygon points="125.64,979.35 46.49,979.35 46.49,861.49" fill="none" stroke="#668b97" stroke-width="1"/><polygon points="125.64,979.35 125.64,861.49 188.83,861.49" fill="none" stroke="#668b97" stroke-width="1"/><polygon points="125.64,979.35 188.83,861.49 188.83,979.35" fill="none" stroke="#668b97" stroke-width="1"/><polygon points="188.83,861.49 258.66,979.35 188.83,979.35" fill="none" stroke="#668b97" stroke-width="1"/><polygon points="188.83,861.49 258.66,861.49 258.66,979.35" fill="none" stroke="#668b97" stroke-width="1"/><polygon points="328.50,861.49 258.66,979.35 258.66,861.49" fill="none" stroke="#668b97" stroke-width="1"/><polygon points="328.50,861.49 328.50,979.35 258.66,979.35" fill="none" stroke="#668b97" stroke-width="1"/><polygon points="328.50,979.35 328.50,861.49 389.22,861.49" fill="none" stroke="#668b97" stroke-width="1"/><polygon points="328.50,979.35 389.22,861.49 389.22,979.35" fill="none" stroke="#668b97" stroke-width="1"/><polygon points="446.05,979.35 389.22,979.35 389.22,861.49" fill="none" stroke="#668b97" stroke-width="1"/><polygon points="446.05,979.35 389.22,861.49 446.05,861.49" fill="none" stroke="#668b97" stroke-width="1"/><polygon points="497.56,201.42 656.38,22.94 673.05,130.79 639.89,235.89" fill="#518e62" stroke="#e7f0f6" stroke-width="1"/><polygon points="656.38,22.94 716.74,49.64 673.05,130.79" fill="#518e62" stroke="#e7f0f6" stroke-width="1"/><polygon points="497.56,201.42 468.89,17.41 656.38,22.94" fill="#518e62" stroke="#e7f0f6" stroke-width="1"/><polygon points="386.87,219.85 468.89,17.41 497.56,201.42" fill="#518e62" stroke="#e7f0f6" stroke-width="1"/><polygon points="386.87,219.85 292.86,75.06 468.89,17.41" fill="#518e62" stroke="#e7f0f6" stroke-width="1"/><polygon points="261.41,105.49 292.86,75.06 386.87,219.85 309.54,189.20" fill="#518e62" stroke="#e7f0f6" stroke-width="1"/><polygon points="309.54,189.20 386.87,219.85 358.72,248.10" fill="#518e62" stroke="#e7f0f6" stroke-width="1"/><polygon points="547.02,351.95 386.87,219.85 497.56,201.42" fill="#518e62" stroke="#e7f0f6" stroke-width="1"/><polygon points="603.72,311.20 547.02,351.95 497.56,201.42 639.89,235.89" fill="#518e62" stroke="#e7f0f6" stroke-width="1"/><polygon points="386.87,219.85 547.02,351.95 412.02,305.16 358.72,248.10" fill="#518e62" stroke="#e7f0f6" stroke-width="1"/><polygon points="547.02,351.95 510.50,415.11 412.02,305.16" fill="#518e62" stroke="#e7f0f6" stroke-width="1"/><polygon points="576.40,363.14 547.02,351.95 603.72,311.20" fill="#518e62" stroke="#e7f0f6" stroke-width="1"/><polygon points="530.67,425.45 527.08,426.22 510.50,415.11 547.02,351.95 576.40,363.14" fill="#518e62" stroke="#e7f0f6" stroke-width="1"/><polygon points="527.08,426.22 530.67,425.45 529.53,427.53" fill="#518e62" stroke="#e7f0f6" stroke-width="1"/><polygon points="497.56,201.42 656.38,22.94 468.89,17.41" fill="#518e62" stroke="#e7f0f6" stroke-width="1"/><polygon points="497.56,201.42 639.89,235.89 673.05,130.79 656.38,22.94" fill="#518e62" stroke="#e7f0f6" stroke-width="1"/><polygon points="656.38,22.94 673.05,130.79 716.74,49.64" fill="#518e62" stroke="#e7f0f6" stroke-width="1"/><polygon points="386.87,219.85 497.56,201.42 468.89,17.41" fill="#518e62" stroke="#e7f0f6" stroke-width="1"/><polygon points="386.87,219.85 468.89,17.41 292.86,75.06" fill="#518e62" stroke="#e7f0f6" stroke-width="1"/><polygon points="386.87,219.85 292.86,75.06 261.41,105.49 309.54,189.20" fill="#518e62" stroke="#e7f0f6" stroke-width="1"/><polygon points="358.72,248.10 386.87,219.85 309.54,189.20" fill="#518e62" stroke="#e7f0f6" stroke-width="1"/><polygon points="547.02,351.95 497.56,201.42 386.87,219.85" fill="#518e62" stroke="#e7f0f6" stroke-width="1"/><polygon points="639.89,235.89 497.56,201.42 547.02,351.95 603.72,311.20" fill="#518e62" stroke="#e7f0f6" stroke-width="1"/><polygon points="386.87,219.85 358.72,248.10 412.02,305.16 547.02,351.95" fill="#518e62" stroke="#e7f0f6" stroke-width="1"/><polygon points="510.50,415.11 547.02,351.95 412.02,305.16" fill="#518e62" stroke="#e7f0f6" stroke-width="1"/><polygon points="527.08,426.22 530.67,425.45 576.40,363.14 547.02,351.95 510.50,415.11" fill="#518e62" stroke="#e7f0f6" stroke-width="1"/><polygon points="603.72,311.20 547.02,351.95 576.40,363.14" fill="#518e62" stroke="#e7f0f6" stroke-width="1"/><polygon points="529.53,427.53 530.67,425.45 527.08,426.22" fill="#518e62" stroke="#e7f0f6" stroke-width="1"/><polygon points="214.02,151.35 261.41,105.49 309.54,189.20" fill="#8caec6" stroke="#e7f0f6" stroke-width="1"/><polygon points="330.14,276.79 214.02,151.35 309.54,189.20 358.72,248.10" fill="#8caec6" stroke="#e7f0f6" stroke-width="1"/><polygon points="412.02,305.16 330.14,276.79 358.72,248.10" fill="#8caec6" stroke="#e7f0f6" stroke-width="1"/><polygon points="510.50,415.11 500.84,431.82 330.14,276.79 412.02,305.16" fill="#8caec6" stroke="#e7f0f6" stroke-width="1"/><polygon points="500.84,431.82 346.42,320.61 330.14,276.79" fill="#8caec6" stroke="#e7f0f6" stroke-width="1"/><polygon points="527.08,426.22 500.84,431.82 510.50,415.11" fill="#8caec6" stroke="#e7f0f6" stroke-width="1"/><polygon points="500.84,431.82 441.45,446.67 346.42,320.61" fill="#8caec6" stroke="#e7f0f6" stroke-width="1"/><polygon points="522.28,440.74 500.84,431.82 527.08,426.22 529.53,427.53" fill="#8caec6" stroke="#e7f0f6" stroke-width="1"/><polygon points="438.25,485.59 441.45,446.67 500.84,431.82 474.62,481.22" fill="#8caec6" stroke="#e7f0f6" stroke-width="1"/><polygon points="474.62,481.22 500.84,431.82 522.28,440.74 489.93,490.30" fill="#8caec6" stroke="#e7f0f6" stroke-width="1"/><polygon points="330.14,276.79 346.42,320.61 187.39,208.28" fill="#8caec6" stroke="#e7f0f6" stroke-width="1"/><polygon points="330.14,276.79 187.39,208.28 214.02,151.35" fill="#8caec6" stroke="#e7f0f6" stroke-width="1"/><polygon points="429.10,478.85 441.45,446.67 438.25,485.59" fill="#8caec6" stroke="#e7f0f6" stroke-width="1"/><polygon points="261.41,105.49 214.02,151.35 309.54,189.20" fill="#8caec6" stroke="#e7f0f6" stroke-width="1"/><polygon points="330.14,276.79 358.72,248.10 309.54,189.20 214.02,151.35" fill="#8caec6" stroke="#e7f0f6" stroke-width="1"/><polygon points="358.72,248.10 330.14,276.79 412.02,305.16" fill="#8caec6" stroke="#e7f0f6" stroke-width="1"/><polygon points="330.14,276.79 500.84,431.82 510.50,415.11 412.02,305.16" fill="#8caec6" stroke="#e7f0f6" stroke-width="1"/><polygon points="500.84,431.82 330.14,276.79 314.68,334.44" fill="#8caec6" stroke="#e7f0f6" stroke-width="1"/><polygon points="187.39,208.28 314.68,334.44 330.14,276.79" fill="#8caec6" stroke="#e7f0f6" stroke-width="1"/><polygon points="187.39,208.28 330.14,276.79 214.02,151.35" fill="#8caec6" stroke="#e7f0f6" stroke-width="1"/><polygon points="500.84,431.82 314.68,334.44 441.96,448.31" fill="#8caec6" stroke="#e7f0f6" stroke-width="1"/><polygon points="500.84,431.82 527.08,426.22 510.50,415.11" fill="#8caec6" stroke="#e7f0f6" stroke-width="1"/><polygon points="474.61,481.22 500.84,431.82 441.96,448.31 438.59,486.67" fill="#8caec6" stroke="#e7f0f6" stroke-width="1"/><polygon points="500.84,431.82 522.28,440.74 529.53,427.53 527.08,426.22" fill="#8caec6" stroke="#e7f0f6" stroke-width="1"/><polygon points="489.93,490.30 522.28,440.74 500.84,431.82 474.61,481.22" fill="#8caec6" stroke="#e7f0f6" stroke-width="1"/><polygon points="438.59,486.67 441.96,448.31 429.44,479.95" fill="#8caec6" stroke="#e7f0f6" stroke-width="1"/></svg>