# Generated from legacy Unity YAML Mesh assets without Unity.
mtllib ArmorBag_05.mtl

o ArmorBag_05_00_Bag
v 0.220955178 -0.312602609 0.0149594843
v -9.22964048e-09 -0.390628606 -0.0224012733
v -9.22964048e-09 -0.232985407 0.0577270985
v 0.115265578 -0.484026611 -0.188673288
v 0.214933589 -0.466584563 -0.188673288
v 0.275205955 -0.377542198 -0.151232079
v 0.319713965 -0.150434971 -0.0969736949
v 0.261616781 -0.0916005149 0.0285479128
v 0.242771983 0.0755049586 -0.0171553046
v 0.0784135909 -0.033575356 0.0526982844
v -9.22964048e-09 -0.232985407 0.0577270985
v -9.22964048e-09 -0.033575356 0.0526982844
v -9.22964048e-09 0.0154753625 -0.142007694
v 0.055830788 0.0154753625 -0.142007694
v 0.125537187 0.0825249553 -0.00166930258
v 0.114098393 0.130267799 -0.105298072
v 0.239618361 0.130255401 -0.125586092
v 0.289243564 0.0154753625 -0.162798882
v -9.22964048e-09 -0.390628606 -0.0224012733
v -9.22964048e-09 -0.395550996 -0.160947278
v -9.22964048e-09 -0.390628606 -0.0224012733
v -0.115265593 -0.484026611 -0.188673288
v -0.220955208 -0.312602609 0.0149594843
v -0.214933619 -0.466584563 -0.188673288
v -0.275205985 -0.377542198 -0.151232079
v -0.319713995 -0.150434971 -0.0969736949
v -0.261616811 -0.0916005149 0.0285479128
v -0.242772013 0.0755049586 -0.0171553046
v -0.0784136056 -0.033575356 0.0526982844
v -9.22964048e-09 -0.232985407 0.0577270985
v -9.22964048e-09 -0.033575356 0.0526982844
v -9.22964048e-09 0.0154753625 -0.142007694
v -0.0558308101 0.0154753625 -0.142007694
v -0.125537217 0.0825249553 -0.00166930258
v -0.114098407 0.130267799 -0.105298072
v -0.239618391 0.130255401 -0.125586092
v -0.289243594 0.0154753625 -0.162798882
v -9.22964048e-09 -0.390628606 -0.0224012733
v -9.22964048e-09 -0.232985407 0.0577270985
v 0.055830788 0.0154753625 -0.142007694
v 0.239618361 0.130255401 -0.125586092
v 0.114098393 0.130267799 -0.105298072
v 0.289243564 0.0154753625 -0.162798882
v -9.22964048e-09 -0.149130151 -0.311553687
v -9.22964048e-09 0.0154753625 -0.142007694
v 0.275205955 -0.377542198 -0.151232079
v -9.22964048e-09 -0.149130151 -0.311553687
v 0.214933589 -0.466584563 -0.188673288
v 0.319713965 -0.150434971 -0.0969736949
v 0.115265578 -0.484026611 -0.188673288
v -9.22964048e-09 -0.395550996 -0.160947278
v -0.0558308101 0.0154753625 -0.142007694
v -0.239618391 0.130255401 -0.125586092
v -0.289243594 0.0154753625 -0.162798882
v -0.114098407 0.130267799 -0.105298072
v -9.22964048e-09 -0.149130151 -0.311553687
v -9.22964048e-09 0.0154753625 -0.142007694
v -0.275205985 -0.377542198 -0.151232079
v -9.22964048e-09 -0.149130151 -0.311553687
v -0.214933619 -0.466584563 -0.188673288
v -0.319713995 -0.150434971 -0.0969736949
v -0.115265593 -0.484026611 -0.188673288
v -9.22964048e-09 -0.395550996 -0.160947278
vt 0.447890997 0.321390986
vt 0.138775006 0.415978014
vt 0.305938989 0.61669302
vt 0.132282004 0.0962240025
vt 0.257227987 0.0115940003
vt 0.469408005 0.0812549964
vt 0.741724014 0.285973996
vt 0.672366023 0.472943008
vt 0.835821986 0.598282993
vt 0.58822 0.718945026
vt 0.305938989 0.61669302
vt 0.517929971 0.799709976
vt 0.722086012 0.990305007
vt 0.779417992 0.935012996
vt 0.77255398 0.726719975
vt 0.910122991 0.799494028
vt 0.989480972 0.62438798
vt 0.961386979 0.429751992
vt 0.138775006 0.415978014
vt 0.0115940003 0.272428989
vt 0.138775006 0.415978014
vt 0.132282004 0.0962240025
vt 0.447890997 0.321390986
vt 0.257227987 0.0115940003
vt 0.469408005 0.0812549964
vt 0.741724014 0.285973996
vt 0.672366023 0.472943008
vt 0.835821986 0.598282993
vt 0.58822 0.718945026
vt 0.305938989 0.61669302
vt 0.517929971 0.799709976
vt 0.722086012 0.990305007
vt 0.779417992 0.935012996
vt 0.77255398 0.726719975
vt 0.910122991 0.799494028
vt 0.989480972 0.62438798
vt 0.961386979 0.429751992
vt 0.138775006 0.415978014
vt 0.305938989 0.61669302
vt 0.424133986 0.828664005
vt 0.373959988 0.99396503
vt 0.452823013 0.930979013
vt 0.281264007 0.94778198
vt 0.327176988 0.662084997
vt 0.456283987 0.79816097
vt 0.0318260007 0.759856999
vt 0.327176988 0.662084997
vt 0.00778899994 0.672734976
vt 0.141747996 0.913217008
vt 0.0366280004 0.597774029
vt 0.136115998 0.535399973
vt 0.424133986 0.828664005
vt 0.373959988 0.99396503
vt 0.281264007 0.94778198
vt 0.452823013 0.930979013
vt 0.327176988 0.662084997
vt 0.456283987 0.79816097
vt 0.0318260007 0.759856999
vt 0.327176988 0.662084997
vt 0.00778899994 0.672734976
vt 0.141747996 0.913217008
vt 0.0366280004 0.597774029
vt 0.136115998 0.535399973
vn 0.422521993 -0.49689009 0.758007522
vn 0.112183237 -0.669346249 0.734432107
vn 0.00927512899 -0.453096038 0.891413458
vn 0.010196552 -0.862068451 0.50668927
vn 0.36763336 -0.746970135 0.553968709
vn 0.817757432 -0.392995534 0.420508375
vn 0.928757414 -0.030560726 0.369426187
vn 0.434929432 0.0137756095 0.900359162
vn 0.689567112 0.40659848 0.599312001
vn -0.0486037985 0.411033942 0.910323442
vn 0.122803284 -0.0484701454 0.991246689
vn 0 0.626541326 0.7793882
vn 0 0.969702382 0.244289359
vn -0.75296683 0.602871909 0.263792368
vn -0.436928583 0.722424616 0.53590679
vn -0.509955494 0.758499518 0.405738678
vn 0.440443706 0.813109734 0.38060728
vn 0.940536606 0.286920624 0.181844571
vn -0.604353632 -0.796213816 0.0282886173
vn 0 -0.999369445 0.0355065175
vn 0.604353645 -0.796213807 0.028288617
vn -0.0101965514 -0.862068448 0.506689275
vn -0.422521977 -0.496890097 0.758007526
vn -0.36763333 -0.746970144 0.553968717
vn -0.817757432 -0.392995534 0.420508375
vn -0.928757414 -0.030560726 0.369426187
vn -0.434929414 0.0137756132 0.900359171
vn -0.689567101 0.406598478 0.599312015
vn 0.0486037964 0.411033949 0.910323439
vn -0.122803279 -0.0484701435 0.99124669
vn 0 0.626541326 0.7793882
vn 0 0.969702382 0.244289359
vn 0.752966805 0.602871931 0.26379239
vn 0.436928563 0.722424624 0.535906796
vn 0.509955469 0.758499501 0.405738741
vn -0.440443686 0.813109745 0.380607281
vn -0.940536606 0.286920624 0.181844571
vn -0.112183233 -0.669346251 0.734432106
vn -0.00927512852 -0.453096038 0.891413458
vn -0.0742686073 0.580889714 -0.810587018
vn -0.108153359 0.308391227 -0.945091372
vn -0.148282954 0.368719488 -0.91763724
vn 0.372853768 0.197938674 -0.906532045
vn -0.0494041993 0.724688707 -0.687303065
vn 0 0.717483044 -0.69657597
vn 0.546816099 -0.0309738321 -0.836679613
vn 0.288667306 -0.15234676 -0.945231004
vn 0.31753435 -0.147587054 -0.936690983
vn 0.857644752 -0.0457075821 -0.512207279
vn -0.248130272 -0.407816047 -0.878702134
vn -0.517968668 -0.446082396 -0.729875986
vn 0.0742686039 0.580889711 -0.810587021
vn 0.108153352 0.308391224 -0.945091374
vn -0.372853757 0.197938675 -0.90653205
vn 0.148282938 0.368719473 -0.917637249
vn 0.0494041974 0.724688707 -0.687303065
vn 0 0.717483044 -0.69657597
vn -0.546816087 -0.0309738299 -0.836679622
vn -0.288667295 -0.152346759 -0.945231008
vn -0.317534327 -0.147587061 -0.93669099
vn -0.857644752 -0.0457075821 -0.512207279
vn 0.248130258 -0.407816042 -0.87870214
vn 0.51796868 -0.446082392 -0.72987598

g ArmorBag_05_00_Bag_submesh_0
usemtl 06
f 1/1/1 3/3/3 2/2/2
f 1/1/1 2/2/2 4/4/4
f 1/1/1 4/4/4 5/5/5
f 1/1/1 5/5/5 6/6/6
f 7/7/7 1/1/1 6/6/6
f 7/7/7 8/8/8 1/1/1
f 7/7/7 9/9/9 8/8/8
f 10/10/10 8/8/8 9/9/9
f 11/11/11 8/8/8 10/10/10
f 11/11/11 1/1/1 8/8/8
f 11/11/11 10/10/10 12/12/12
f 13/13/13 12/12/12 10/10/10
f 13/13/13 10/10/10 14/14/14
f 14/14/14 10/10/10 15/15/15
f 10/10/10 9/9/9 15/15/15
f 14/14/14 15/15/15 16/16/16
f 16/16/16 15/15/15 17/17/17
f 17/17/17 15/15/15 9/9/9
f 17/17/17 9/9/9 18/18/18
f 7/7/7 18/18/18 9/9/9
f 19/19/19 20/20/20 4/4/4
f 21/21/21 22/22/22 20/20/20
f 23/23/23 24/24/24 22/22/22
f 23/23/23 25/25/25 24/24/24
f 26/26/26 25/25/25 23/23/23
f 26/26/26 23/23/23 27/27/27
f 26/26/26 27/27/27 28/28/28
f 29/29/29 28/28/28 27/27/27
f 30/30/30 29/29/29 27/27/27
f 30/30/30 27/27/27 23/23/23
f 30/30/30 31/31/31 29/29/29
f 32/32/32 29/29/29 31/31/31
f 32/32/32 33/33/33 29/29/29
f 33/33/33 34/34/34 29/29/29
f 29/29/29 34/34/34 28/28/28
f 33/33/33 35/35/35 34/34/34
f 35/35/35 36/36/36 34/34/34
f 36/36/36 28/28/28 34/34/34
f 36/36/36 37/37/37 28/28/28
f 26/26/26 28/28/28 37/37/37
f 23/23/23 22/22/22 38/38/38
f 23/23/23 38/38/38 39/39/39
f 40/40/40 42/42/42 41/41/41
f 40/40/40 41/41/41 43/43/43
f 44/44/44 40/40/40 43/43/43
f 45/45/45 40/40/40 44/44/44
f 46/46/46 47/47/47 43/43/43
f 47/47/47 46/46/46 48/48/48
f 46/46/46 43/43/43 49/49/49
f 47/47/47 48/48/48 50/50/50
f 47/47/47 50/50/50 51/51/51
f 52/52/52 54/54/54 53/53/53
f 52/52/52 53/53/53 55/55/55
f 56/56/56 54/54/54 52/52/52
f 57/57/57 56/56/56 52/52/52
f 58/58/58 54/54/54 59/59/59
f 59/59/59 60/60/60 58/58/58
f 58/58/58 61/61/61 54/54/54
f 59/59/59 62/62/62 60/60/60
f 59/59/59 63/63/63 62/62/62
