# Generated from legacy Unity YAML Mesh assets without Unity.
mtllib collision.mtl

o collision_PZ_sc_05_010
v -46.2065221 -8.43818333e-07 -20.3630598
v -46.1630879 6.80680579 -25.5962155
v -46.2065221 6.80680484 -20.3630589
v -46.3321553 -0.0351840281 -25.5956843
v -45.1773625 6.80680579 -28.0038959
v -45.3464299 -0.0351835512 -28.003365
v -43.6361752 6.80680627 -29.81365
v -43.8052426 -0.0351833128 -29.813119
v -44.211649 6.80680531 -25.0199202
v -46.2065221 6.80680484 -20.3630589
v -46.1630879 6.80680579 -25.5962155
v -44.211649 6.80680484 -20.3630589
v -43.4851399 6.80680579 -26.8604362
v -45.1773625 6.80680579 -28.0038959
v -42.2833806 6.80680627 -28.4147312
v -43.6361752 6.80680627 -29.81365
v -40.3592473 6.80680627 -29.7388555
v -41.4777699 6.80680627 -31.2855792
v -38.0985547 6.80680627 -30.2764003
v -38.8068562 6.80680674 -32.1515859
v -43.8052426 -0.0351833128 -29.813119
v -41.4777699 6.80680627 -31.2855792
v -43.6361752 6.80680627 -29.81365
v -41.6468373 -0.0351830744 -31.285048
v -38.8068562 6.80680674 -32.1515859
v -38.9759236 -0.0351830744 -32.1510547
v -44.211649 6.80680484 -20.3630589
v -44.211649 -0.0351840281 -25.0199212
v -44.211649 -0.0351847433 -20.3567122
v -44.211649 6.80680531 -25.0199202
v -43.4851399 -0.0351837897 -26.8604381
v -43.4851399 6.80680579 -26.8604362
v -42.2833806 -0.0351835512 -28.4147323
v -42.2833806 6.80680627 -28.4147312
v -40.3592473 6.80680627 -29.7388555
v -38.0985547 -0.0351833128 -30.2764032
v -40.3592473 -0.0351833128 -29.7388555
v -38.0985547 6.80680627 -30.2764003
v -42.2833806 6.80680627 -28.4147312
v -42.2833806 -0.0351835512 -28.4147323
vt 0.314269871 0.00230363198
vt 0.0730987117 0.14470771
vt 0.0730987117 0.00230446388
vt 0.314270377 0.144707069
vt 0.0730987117 0.203618973
vt 0.314271361 0.203618139
vt 0.0730992183 0.252053708
vt 0.314271361 0.252053291
vt 0.0730987117 0.14470771
vt 0.00567913754 0.00230446388
vt 0.00567913754 0.14470771
vt 0.0730987117 0.00230446388
vt 0.0730987117 0.203618973
vt 0.00567964232 0.203618973
vt 0.0730992183 0.252053708
vt 0.00568014756 0.252053708
vt 0.0730992183 0.312638968
vt 0.00568014756 0.312638968
vt 0.0731002241 0.382187814
vt 0.00568014756 0.382187814
vt 0.314271361 0.252053291
vt 0.0730992183 0.312638968
vt 0.0730992183 0.252053708
vt 0.314271361 0.312638551
vt 0.0731002241 0.382187814
vt 0.314271361 0.382187396
vt 0.0730987117 0.00230446388
vt 0.314270377 0.144707069
vt 0.314269871 0.00230363198
vt 0.0730987117 0.14470771
vt 0.314271361 0.203618139
vt 0.0730987117 0.203618973
vt 0.314271361 0.252053291
vt 0.0730992183 0.252053708
vt 0.0730992183 0.312638968
vt 0.314271361 0.382187396
vt 0.314271361 0.312638551
vt 0.0731002241 0.382187814
vt 0.0730992183 0.252053708
vt 0.314271361 0.252053291
vn -0.999892778 0.0123859569 0.00781160196
vn -0.981658104 0.0179774686 -0.189800361
vn -0.999892778 0.012385956 0.00781160196
vn -0.981802494 0.0179573011 -0.189053955
vn -0.853218817 0.0210428234 -0.521128439
vn -0.854567255 0.021076316 -0.518912898
vn -0.667061315 0.0164254624 -0.744821728
vn -0.669382515 0.0164829828 -0.742735054
vn 0 1 2.22044605e-16
vn 0 1 2.22044605e-16
vn 0 1 2.22044605e-16
vn 0 1 2.22044605e-16
vn 0 1 2.22044605e-16
vn 0 1 2.22044605e-16
vn 0 1 2.22044605e-16
vn 0 1 2.22044605e-16
vn 0 1 2.22044605e-16
vn 0 1 2.22044605e-16
vn 0 1 2.22044605e-16
vn 0 1 2.22044605e-16
vn -0.669382515 0.0164829828 -0.742735054
vn -0.438551359 0.0107669714 -0.898641629
vn -0.667061315 0.0164254624 -0.744821728
vn -0.442156708 0.0108561973 -0.896872114
vn -0.308419824 0.00754729944 -0.951220401
vn -0.308419824 0.00754729944 -0.951220401
vn 1 0 0
vn 0.982384101 -4.14941182e-17 0.186872895
vn 1 0 0
vn 0.982384098 -4.14941213e-17 0.186872909
vn 0.869273256 -1.09763727e-16 0.494331878
vn 0.869273256 -1.09763727e-16 0.494331878
vn 0.687237951 -1.6130039e-16 0.726432377
vn 0.687237951 -1.6130039e-16 0.726432377
vn 0.406017576 -2.02918852e-16 0.913865268
vn 0.231329903 -2.16021726e-16 0.972875365
vn 0.406017529 -2.02918857e-16 0.913865289
vn 0.231329903 -2.16021726e-16 0.972875365
vn 0.687237951 -1.6130039e-16 0.726432377
vn 0.687237951 -1.6130039e-16 0.726432377

g collision_PZ_sc_05_010_submesh_0
usemtl collision
f 1/1/1 3/3/3 2/2/2
f 1/1/1 2/2/2 4/4/4
f 4/4/4 2/2/2 5/5/5
f 4/4/4 5/5/5 6/6/6
f 6/6/6 5/5/5 7/7/7
f 6/6/6 7/7/7 8/8/8
f 9/9/9 11/11/11 10/10/10
f 9/9/9 10/10/10 12/12/12
f 13/13/13 11/11/11 9/9/9
f 13/13/13 14/14/14 11/11/11
f 15/15/15 14/14/14 13/13/13
f 15/15/15 16/16/16 14/14/14
f 17/17/17 16/16/16 15/15/15
f 17/17/17 18/18/18 16/16/16
f 19/19/19 18/18/18 17/17/17
f 19/19/19 20/20/20 18/18/18
f 21/21/21 23/23/23 22/22/22
f 21/21/21 22/22/22 24/24/24
f 24/24/24 22/22/22 25/25/25
f 24/24/24 25/25/25 26/26/26
f 27/27/27 29/29/29 28/28/28
f 27/27/27 28/28/28 30/30/30
f 30/30/30 28/28/28 31/31/31
f 30/30/30 31/31/31 32/32/32
f 32/32/32 31/31/31 33/33/33
f 32/32/32 33/33/33 34/34/34
f 35/35/35 37/37/37 36/36/36
f 35/35/35 36/36/36 38/38/38
f 39/39/39 37/37/37 35/35/35
f 39/39/39 40/40/40 37/37/37

o collision_PZ_Object112
v 50.7999325 4.96952345 -10.696964
v 43.3792248 4.96952441 -17.8584416
v 50.7999325 4.96952441 -17.8584416
v 43.3792248 4.96952345 -10.696964
v 35.9585114 4.96952917 -49.1052873
v 28.3859673 4.96952774 -40.092691
v 28.3859597 4.96952917 -49.1052873
v 35.9585152 4.96952774 -40.092691
v 50.7999325 4.96952774 -40.092691
v 43.3792172 4.96952917 -49.1052873
v 50.7999249 4.96952917 -49.1052873
v 43.3792248 4.96952774 -40.092691
v 50.7999325 4.96952679 -32.144912
v 43.3792248 4.96952774 -40.092691
v 50.7999325 4.96952774 -40.092691
v 43.3792248 4.96952679 -32.144912
v 50.7999325 4.96952536 -25.0199192
v 43.3792248 4.96952679 -32.144912
v 50.7999325 4.96952679 -32.144912
v 43.3792248 4.96952536 -25.0199192
v 28.3859597 4.96952917 -49.1052873
v 20.9011651 4.96952774 -40.092691
v 20.9011612 4.96952917 -49.1052873
v 28.3859673 4.96952774 -40.092691
v 28.3859673 4.96952679 -31.7497953
v 35.9585152 4.96952774 -40.092691
v 35.9585152 4.96952679 -32.144912
v 28.3859673 4.96952774 -40.092691
v 35.9585152 4.96952536 -25.0199192
v 34.5150109 4.96952631 -29.7104757
v 35.9585152 4.96952679 -32.144912
v 28.3859673 4.96952679 -31.7497953
v 20.9011651 4.96952679 -31.7497953
v 28.3859673 4.96952774 -40.092691
v 28.3859673 4.96952679 -31.7497953
v 20.9011651 4.96952774 -40.092691
v 20.9011612 4.96952917 -49.1052873
v 13.0726781 4.96952774 -40.092691
v 13.0726743 4.96952917 -49.1052873
v 20.9011651 4.96952774 -40.092691
v 35.9585152 4.96952393 -13.1458714
v 30.8014031 -0.0351847909 -24.1863841
v 35.9585152 -0.0351847909 -24.1895561
v 30.8014031 4.96952393 -13.1458714
v 35.9585152 4.96952393 -13.1458714
v 30.8014031 4.96952345 -10.696964
v 30.8014031 4.96952393 -13.1458714
v 35.9585152 4.96952345 -10.696964
v 44.1982632 0.863195786 25.2115237
v 50.7336865 0.863196739 18.1636221
v 50.7336865 0.863195786 25.2115237
v 44.1982632 0.863196739 18.1636221
v 41.927084 -0.0351919435 25.2115237
v 44.1982632 0.863196739 18.1636221
v 44.1982632 0.863195786 25.2115237
v 41.927084 -0.0351909898 18.1636221
v 44.1982632 0.863198647 4.06781495
v 50.7336865 -0.0351881288 2.17758706
v 50.7336865 0.863198647 4.06781495
v 44.1982632 -0.0351881288 2.17758706
v 35.9585152 4.96952441 -17.8584416
v 43.3792248 4.96952536 -25.0199192
v 43.3792248 4.96952441 -17.8584416
v 35.9585152 4.96952536 -25.0199192
v 43.3792248 4.96952345 -10.696964
v 35.9585152 4.96952441 -17.8584416
v 43.3792248 4.96952441 -17.8584416
v 35.9585152 4.96952345 -10.696964
v 43.3792248 4.96952774 -40.092691
v 35.9585114 4.96952917 -49.1052873
v 43.3792172 4.96952917 -49.1052873
v 35.9585152 4.96952774 -40.092691
v 43.3792248 4.96952679 -32.144912
v 35.9585152 4.96952774 -40.092691
v 43.3792248 4.96952774 -40.092691
v 35.9585152 4.96952679 -32.144912
v 43.3792248 4.96952536 -25.0199192
v 35.9585152 4.96952679 -32.144912
v 43.3792248 4.96952679 -32.144912
v 35.9585152 4.96952536 -25.0199192
v 43.3792248 4.96952536 -25.0199192
v 50.7999325 4.96952441 -17.8584416
v 43.3792248 4.96952441 -17.8584416
v 50.7999325 4.96952536 -25.0199192
v 20.9011651 2.46717219 -35.1842791
v 13.0726781 -0.0351833604 -30.2758671
v 13.0726781 2.46717219 -35.1842791
v 20.9011651 -0.0351833604 -30.2758671
v 44.1982632 0.863197693 11.1157185
v 50.7336865 0.863198647 4.06781495
v 50.7336865 0.863197693 11.1157185
v 44.1982632 0.863198647 4.06781495
v 44.1982632 0.863196739 18.1636221
v 50.7336865 0.863197693 11.1157185
v 50.7336865 0.863196739 18.1636221
v 44.1982632 0.863197693 11.1157185
v 50.7336865 0.863195786 25.2115237
v 44.1982632 0.863194355 32.2594273
v 44.1982632 0.863195786 25.2115237
v 50.7336865 0.863194355 32.2594273
v 41.927084 -0.0351895593 11.1157185
v 44.1982632 0.863198647 4.06781495
v 44.1982632 0.863197693 11.1157185
v 41.927084 -0.0351886056 4.06781495
v 41.927084 -0.0351909898 18.1636221
v 44.1982632 0.863197693 11.1157185
v 44.1982632 0.863196739 18.1636221
v 41.927084 -0.0351895593 11.1157185
v 44.1982632 0.863195786 25.2115237
v 41.927084 -0.035193374 32.2594273
v 41.927084 -0.0351919435 25.2115237
v 44.1982632 0.863194355 32.2594273
v 35.9585076 4.9695306 -58.1178816
v 28.3859597 4.96952917 -49.1052873
v 28.385952 4.9695306 -58.1178816
v 35.9585114 4.96952917 -49.1052873
v 50.7999249 4.96952917 -49.1052873
v 43.3792172 4.9695306 -58.1178816
v 50.7999249 4.9695306 -58.1178816
v 43.3792172 4.96952917 -49.1052873
v 28.385952 4.9695306 -58.1178816
v 20.9011612 4.96952917 -49.1052873
v 20.9011574 4.9695306 -58.1178816
v 28.3859597 4.96952917 -49.1052873
v 20.9011574 4.9695306 -58.1178816
v 13.0726743 4.96952917 -49.1052873
v 13.0726705 4.9695306 -58.1178816
v 20.9011612 4.96952917 -49.1052873
v 43.3792172 4.96952917 -49.1052873
v 35.9585076 4.9695306 -58.1178816
v 43.3792172 4.9695306 -58.1178816
v 35.9585114 4.96952917 -49.1052873
v 13.0726781 2.46717219 -35.1842791
v 20.9011651 4.96952774 -40.092691
v 20.9011651 2.46717219 -35.1842791
v 13.0726781 4.96952774 -40.092691
v 13.0726738 4.96952917 -49.1052873
v 5.24419074 4.96952774 -40.092691
v 5.24418692 4.96952917 -49.1052873
v 13.0726777 4.96952774 -40.092691
v 13.0726777 2.46717219 -35.1842791
v 5.24419074 -0.0351833604 -30.2758671
v 5.24419074 2.46717219 -35.1842791
v 13.0726777 -0.0351833604 -30.2758671
v 13.07267 4.9695306 -58.1178816
v 5.24418692 4.96952917 -49.1052873
v 5.24418311 4.9695306 -58.1178816
v 13.0726738 4.96952917 -49.1052873
v 5.24419074 2.46717219 -35.1842791
v 13.0726777 4.96952774 -40.092691
v 13.0726777 2.46717219 -35.1842791
v 5.24419074 4.96952774 -40.092691
v 5.24418644 4.96952917 -49.1052873
v -2.58429809 4.96952774 -40.092691
v -2.58430095 4.96952917 -49.1052873
v 5.24419026 4.96952774 -40.092691
v 5.24419026 2.46717219 -35.1842791
v -2.58429809 -0.0351833604 -30.2758671
v -2.58429809 2.46717219 -35.1842791
v 5.24419026 -0.0351833604 -30.2758671
v 5.24418263 4.9695306 -58.1178816
v -2.58430095 4.96952917 -49.1052873
v -2.58430381 4.9695306 -58.1178816
v 5.24418644 4.96952917 -49.1052873
v -2.58429809 2.46717219 -35.1842791
v 5.24419026 4.96952774 -40.092691
v 5.24419026 2.46717219 -35.1842791
v -2.58429809 4.96952774 -40.092691
v -2.58430095 4.96952917 -49.1052873
v -5.95295139 4.96952774 -40.092691
v -5.9529533 4.96952917 -49.1052873
v -2.58429809 4.96952774 -40.092691
v -2.58429809 2.46717219 -35.1842791
v -5.95295139 -0.0351833604 -30.2758671
v -5.95295139 2.46717219 -35.1842791
v -2.58429809 -0.0351833604 -30.2758671
v -2.58430381 4.9695306 -58.1178816
v -5.9529533 4.96952917 -49.1052873
v -5.95295425 4.9695306 -58.1178816
v -2.58430095 4.96952917 -49.1052873
v -5.95295139 2.46717219 -35.1842791
v -2.58429809 4.96952774 -40.092691
v -2.58429809 2.46717219 -35.1842791
v -5.95295139 4.96952774 -40.092691
vt -2.00055718 0.166604772
vt -2.33464551 0.499622405
vt -2.00055718 0.499622405
vt -2.33464551 0.166604772
vt -2.33464551 0.499622405
vt -2.00055718 0.166604772
vt -2.00055718 0.499622405
vt -2.33464551 0.166604772
vt -2.00055718 0.166604772
vt -2.33464551 0.499622405
vt -2.00055718 0.499622405
vt -2.33464551 0.166604772
vt -2.00055718 0.166604772
vt -2.33464551 0.499622405
vt -2.00055718 0.499622405
vt -2.33464551 0.166604772
vt -2.00055718 0.166604772
vt -2.33464551 0.499622405
vt -2.00055718 0.499622405
vt -2.33464551 0.166604772
vt -2.00055718 0.499622405
vt -2.33464551 0.166604772
vt -2.33464551 0.499622405
vt -2.00055718 0.166604772
vt -2.00055718 0.499622405
vt -2.33464551 0.166604772
vt -2.33464551 0.499622405
vt -2.00055718 0.166604772
vt -2.33464551 0.166604772
vt -2.26820469 0.394598544
vt -2.33464551 0.499622405
vt -2.00055718 0.499622405
vt -2.33464551 0.499622405
vt -2.00055718 0.166604772
vt -2.00055718 0.499622405
vt -2.33464551 0.166604772
vt -2.33507848 0.498776436
vt -1.99968493 0.167501092
vt -1.99968493 0.498776436
vt -2.33507848 0.167501092
vt 2.75637388 0.999992132
vt 2.99949336 1.16518021
vt 2.9996016 0.999992132
vt 2.75637388 1.16518021
vt 2.75638628 0.999992132
vt 2.66590452 1.16518021
vt 2.75638628 1.16518021
vt 2.66590452 0.999992132
vt 0.664845943 0.499669731
vt 0.360981286 0.195965767
vt 0.360981256 0.499669701
vt 0.664845943 0.195965827
vt 1.75674891 0.000113642629
vt 1.81800461 0.16568388
vt 1.81800461 0.000113642629
vt 1.75674891 0.16568388
vt 1.81800461 0.16568388
vt 1.75674891 0.000113642629
vt 1.81800461 0.000113642629
vt 1.75674891 0.16568388
vt -2.00055718 0.166604772
vt -2.33464551 0.499622405
vt -2.33464551 0.166604772
vt -2.00055718 0.499622405
vt -2.33464551 0.166604772
vt -2.00055718 0.499622405
vt -2.33464551 0.499622405
vt -2.00055718 0.166604772
vt -2.33464551 0.166604772
vt -2.00055718 0.499622405
vt -2.33464551 0.499622405
vt -2.00055718 0.166604772
vt -2.33464551 0.166604772
vt -2.00055718 0.499622405
vt -2.33464551 0.499622405
vt -2.00055718 0.166604772
vt -2.33464551 0.166604772
vt -2.00055718 0.499622405
vt -2.33464551 0.499622405
vt -2.00055718 0.166604772
vt -2.33464551 0.499622405
vt -2.00055718 0.166604772
vt -2.33464551 0.166604772
vt -2.00055718 0.499622405
vt 1.75709236 -0.00070657488
vt 1.99947977 0.165904045
vt 1.75709236 0.165904045
vt 1.99947977 -0.00070657488
vt 0.664845943 0.499669731
vt 0.360981286 0.195965767
vt 0.360981256 0.499669701
vt 0.664845943 0.195965827
vt 0.664845943 0.195965827
vt 0.360981256 0.499669701
vt 0.360981286 0.195965767
vt 0.664845943 0.499669731
vt 0.360981256 0.499669701
vt 0.664845943 0.195965827
vt 0.664845943 0.499669731
vt 0.360981286 0.195965767
vt 1.75674891 0.000113642629
vt 1.81800461 0.16568388
vt 1.81800461 0.000113642629
vt 1.75674891 0.16568388
vt 1.75674891 0.16568388
vt 1.81800461 0.000113642629
vt 1.81800461 0.16568388
vt 1.75674891 0.000113642629
vt 1.81800461 0.000113642629
vt 1.75674891 0.16568388
vt 1.75674891 0.000113642629
vt 1.81800461 0.16568388
vt -2.33464551 0.499622405
vt -2.00055718 0.166604772
vt -2.00055718 0.499622405
vt -2.33464551 0.166604772
vt -2.00055718 0.166604772
vt -2.33464551 0.499622405
vt -2.00055718 0.499622405
vt -2.33464551 0.166604772
vt -2.00055718 0.499622405
vt -2.33464551 0.166604772
vt -2.33464551 0.499622405
vt -2.00055718 0.166604772
vt -2.33507848 0.498776436
vt -1.99968493 0.167501092
vt -1.99968493 0.498776436
vt -2.33507848 0.167501092
vt -2.33464551 0.166604772
vt -2.00055718 0.499622405
vt -2.33464551 0.499622405
vt -2.00055718 0.166604772
vt 1.99947977 0.165904045
vt 1.66545057 -0.00070657488
vt 1.99947977 -0.00070657488
vt 1.66545057 0.16590406
vt -2.33507848 0.498776436
vt -1.99968493 0.167501092
vt -1.99968493 0.498776436
vt -2.33507848 0.167501092
vt 1.75709236 -0.00070657488
vt 1.99947977 0.165904045
vt 1.75709236 0.165904045
vt 1.99947977 -0.00070657488
vt -2.33507848 0.498776436
vt -1.99968493 0.167501092
vt -1.99968493 0.498776436
vt -2.33507848 0.167501092
vt 1.99947977 0.165904045
vt 1.66545057 -0.00070657488
vt 1.99947977 -0.00070657488
vt 1.66545057 0.16590406
vt -2.33507848 0.498776436
vt -1.99968493 0.167501092
vt -1.99968493 0.498776436
vt -2.33507848 0.167501092
vt 1.75709236 -0.00070657488
vt 1.99947977 0.165904045
vt 1.75709236 0.165904045
vt 1.99947977 -0.00070657488
vt -2.33507848 0.498776436
vt -1.99968493 0.167501092
vt -1.99968493 0.498776436
vt -2.33507848 0.167501092
vt 1.99947977 0.165904045
vt 1.66545057 -0.00070657488
vt 1.99947977 -0.00070657488
vt 1.66545057 0.16590406
vt -2.2249229 0.498776436
vt -2.11289549 0.167501092
vt -2.11289573 0.498776406
vt -2.2249229 0.167501122
vt 1.75709236 0.0503123254
vt 1.99947977 0.122006036
vt 1.75709236 0.122006036
vt 1.99947977 0.0503123254
vt -2.22492313 0.498776436
vt -2.11289573 0.167501092
vt -2.11289573 0.498776406
vt -2.2249229 0.167501137
vt 1.99947977 0.122006036
vt 1.66545057 0.0503123291
vt 1.99947977 0.0503123254
vt 1.66545057 0.122006044
vn 0 1 2.22044605e-16
vn 0 1 2.22044605e-16
vn 0 1 2.22044605e-16
vn 0 1 2.22044605e-16
vn 0 1 2.22044605e-16
vn 0 1 2.22044605e-16
vn 0 1 2.22044605e-16
vn 0 1 2.22044605e-16
vn 0 1 2.22044605e-16
vn 0 1 2.22044605e-16
vn 0 1 2.22044605e-16
vn 0 1 2.22044605e-16
vn 0 1 2.22044605e-16
vn 0 1 2.22044605e-16
vn 0 1 2.22044605e-16
vn 0 1 2.22044605e-16
vn 0 1 2.22044605e-16
vn 0 1 2.22044605e-16
vn 0 1 2.22044605e-16
vn 0 1 2.22044605e-16
vn 0 1 2.22044605e-16
vn 0 1 2.22044605e-16
vn 0 1 2.22044605e-16
vn 0 1 2.22044605e-16
vn 0 1 2.22044605e-16
vn 0 1 2.22044605e-16
vn 0 1 2.22044605e-16
vn 0 1 2.22044605e-16
vn 0 1 2.22044605e-16
vn 0 1 2.22044605e-16
vn 0 1 2.22044605e-16
vn 0 1 2.22044605e-16
vn 0 1 2.22044605e-16
vn 0 1 2.22044605e-16
vn 0 1 2.22044605e-16
vn 0 1 2.22044605e-16
vn 0 1 2.22044605e-16
vn 0 1 2.22044605e-16
vn 0 1 2.22044605e-16
vn 0 1 2.22044605e-16
vn -0.000126955481 0.910814224 -0.412816464
vn -0.00012695548 0.910814213 -0.412816489
vn -0.000126955483 0.910814235 -0.412816439
vn -0.000126955481 0.910814224 -0.412816464
vn 0 1 2.22044605e-16
vn 0 1 2.22044605e-16
vn 0 1 2.22044605e-16
vn 0 1 2.22044605e-16
vn 0 1 2.22044605e-16
vn 0 1 2.22044605e-16
vn 0 1 2.22044605e-16
vn 0 1 2.22044605e-16
vn -0.367828742 0.929893551 2.06477846e-16
vn -0.367828742 0.929893551 2.06477846e-16
vn -0.367828742 0.929893551 2.06477846e-16
vn -0.367828742 0.929893551 2.06477846e-16
vn 0 0.90317964 -0.429262784
vn 0 0.90317964 -0.429262784
vn 0 0.90317964 -0.429262784
vn 0 0.90317964 -0.429262784
vn 0 1 2.22044605e-16
vn 0 1 2.22044605e-16
vn 0 1 2.22044605e-16
vn 0 1 2.22044605e-16
vn 0 1 2.22044605e-16
vn 0 1 2.22044605e-16
vn 0 1 2.22044605e-16
vn 0 1 2.22044605e-16
vn 0 1 2.22044605e-16
vn 0 1 2.22044605e-16
vn 0 1 2.22044605e-16
vn 0 1 2.22044605e-16
vn 0 1 2.22044605e-16
vn 0 1 2.22044605e-16
vn 0 1 2.22044605e-16
vn 0 1 2.22044605e-16
vn 0 1 2.22044605e-16
vn 0 1 2.22044605e-16
vn 0 1 2.22044605e-16
vn 0 1 2.22044605e-16
vn 0 1 2.22044605e-16
vn 0 1 2.22044605e-16
vn 0 1 2.22044605e-16
vn 0 1 2.22044605e-16
vn 0 0.890904112 0.454191438
vn 0 0.890904112 0.454191438
vn 0 0.890904112 0.454191438
vn 0 0.890904112 0.454191438
vn 0 1 2.22044605e-16
vn 0 1 2.22044605e-16
vn 0 1 2.22044605e-16
vn 0 1 2.22044605e-16
vn 0 1 2.22044605e-16
vn 0 1 2.22044605e-16
vn 0 1 2.22044605e-16
vn 0 1 2.22044605e-16
vn 0 1 2.22044605e-16
vn 0 1 2.22044605e-16
vn 0 1 2.22044605e-16
vn 0 1 2.22044605e-16
vn -0.367828587 0.929893612 2.0647786e-16
vn -0.367828587 0.929893612 2.0647786e-16
vn -0.367828546 0.929893629 2.06477863e-16
vn -0.367828546 0.929893629 2.06477863e-16
vn -0.367828639 0.929893592 2.06477855e-16
vn -0.367828639 0.929893592 2.06477855e-16
vn -0.367828639 0.929893592 2.06477855e-16
vn -0.367828639 0.929893592 2.06477855e-16
vn -0.367828742 0.929893551 2.06477846e-16
vn -0.367828742 0.929893551 2.06477846e-16
vn -0.367828742 0.929893551 2.06477846e-16
vn -0.367828742 0.929893551 2.06477846e-16
vn 0 1 2.22044605e-16
vn 0 1 2.22044605e-16
vn 0 1 2.22044605e-16
vn 0 1 2.22044605e-16
vn 0 1 2.22044605e-16
vn 0 1 2.22044605e-16
vn 0 1 2.22044605e-16
vn 0 1 2.22044605e-16
vn 0 1 2.22044605e-16
vn 0 1 2.22044605e-16
vn 0 1 2.22044605e-16
vn 0 1 2.22044605e-16
vn 0 1 2.22044605e-16
vn 0 1 2.22044605e-16
vn 0 1 2.22044605e-16
vn 0 1 2.22044605e-16
vn 0 1 2.22044605e-16
vn 0 1 2.22044605e-16
vn 0 1 2.22044605e-16
vn 0 1 2.22044605e-16
vn 0 0.890904112 0.454191438
vn 0 0.890904112 0.454191438
vn 0 0.890904112 0.454191438
vn 0 0.890904112 0.454191438
vn 0 1 2.22044605e-16
vn 0 1 2.22044605e-16
vn 0 1 2.22044605e-16
vn 0 1 2.22044605e-16
vn 0 0.8909041 0.454191462
vn 0 0.890904076 0.45419151
vn 0 0.8909041 0.454191462
vn 0 0.890904076 0.45419151
vn 0 1 2.22044605e-16
vn 0 1 2.22044605e-16
vn 0 1 2.22044605e-16
vn 0 1 2.22044605e-16
vn 0 0.8909041 0.454191462
vn 0 0.890904112 0.454191438
vn 0 0.8909041 0.454191462
vn 0 0.890904112 0.454191438
vn 0 1 2.22044605e-16
vn 0 0.97234357 0.233555095
vn 0 1 2.22044605e-16
vn 0 1 2.22044605e-16
vn 0 0.8909041 0.454191462
vn 0 0.8909041 0.454191462
vn 0 0.8909041 0.454191462
vn 0 0.8909041 0.454191462
vn 0 1 2.22044605e-16
vn 0 1 2.22044605e-16
vn 0 1 2.22044605e-16
vn 0 1 2.22044605e-16
vn 0 0.8909041 0.454191462
vn 0 0.8909041 0.454191462
vn 0 0.8909041 0.454191462
vn 0 0.97234357 0.233555095
vn 0 1 2.22044605e-16
vn 0 1 2.22044605e-16
vn 0 1 2.22044605e-16
vn 0 0.97234357 0.233555095
vn 0 0.8909041 0.454191462
vn 0 0.890904112 0.454191438
vn 0 0.890904112 0.454191438
vn 0 0.8909041 0.454191462
vn 0 1 2.22044605e-16
vn 0 1 2.22044605e-16
vn 0 1 2.22044605e-16
vn 0 1 2.22044605e-16
vn 0 0.890904112 0.454191438
vn 0 0.97234357 0.233555095
vn 0 0.8909041 0.454191462
vn 0 0.890904112 0.454191438

g collision_PZ_Object112_submesh_0
usemtl collision_2
f 41/41/41 43/43/43 42/42/42
f 41/41/41 42/42/42 44/44/44
f 45/45/45 47/47/47 46/46/46
f 45/45/45 46/46/46 48/48/48
f 49/49/49 51/51/51 50/50/50
f 49/49/49 50/50/50 52/52/52
f 53/53/53 55/55/55 54/54/54
f 53/53/53 54/54/54 56/56/56
f 57/57/57 59/59/59 58/58/58
f 57/57/57 58/58/58 60/60/60
f 61/61/61 63/63/63 62/62/62
f 61/61/61 62/62/62 64/64/64
f 65/65/65 67/67/67 66/66/66
f 65/65/65 66/66/66 68/68/68
f 69/69/69 71/71/71 70/70/70
f 71/71/71 72/72/72 70/70/70
f 73/73/73 75/75/75 74/74/74
f 73/73/73 74/74/74 76/76/76
f 77/77/77 79/79/79 78/78/78
f 77/77/77 78/78/78 80/80/80
f 81/81/81 83/83/83 82/82/82
f 81/81/81 82/82/82 84/84/84
f 85/85/85 87/87/87 86/86/86
f 85/85/85 86/86/86 88/88/88
f 89/89/89 91/91/91 90/90/90
f 89/89/89 90/90/90 92/92/92
f 93/93/93 95/95/95 94/94/94
f 93/93/93 94/94/94 96/96/96
f 97/97/97 99/99/99 98/98/98
f 97/97/97 98/98/98 100/100/100
f 101/101/101 103/103/103 102/102/102
f 101/101/101 102/102/102 104/104/104
f 105/105/105 107/107/107 106/106/106
f 105/105/105 106/106/106 108/108/108
f 109/109/109 111/111/111 110/110/110
f 109/109/109 110/110/110 112/112/112
f 113/113/113 115/115/115 114/114/114
f 113/113/113 114/114/114 116/116/116
f 117/117/117 119/119/119 118/118/118
f 117/117/117 118/118/118 120/120/120
f 121/121/121 123/123/123 122/122/122
f 121/121/121 122/122/122 124/124/124
f 125/125/125 127/127/127 126/126/126
f 125/125/125 126/126/126 128/128/128
f 129/129/129 131/131/131 130/130/130
f 129/129/129 130/130/130 132/132/132
f 133/133/133 135/135/135 134/134/134
f 133/133/133 134/134/134 136/136/136
f 137/137/137 139/139/139 138/138/138
f 137/137/137 138/138/138 140/140/140
f 141/141/141 143/143/143 142/142/142
f 141/141/141 142/142/142 144/144/144
f 145/145/145 147/147/147 146/146/146
f 145/145/145 146/146/146 148/148/148
f 149/149/149 151/151/151 150/150/150
f 149/149/149 150/150/150 152/152/152
f 153/153/153 155/155/155 154/154/154
f 153/153/153 154/154/154 156/156/156
f 157/157/157 159/159/159 158/158/158
f 157/157/157 158/158/158 160/160/160
f 161/161/161 163/163/163 162/162/162
f 161/161/161 162/162/162 164/164/164
f 165/165/165 167/167/167 166/166/166
f 165/165/165 166/166/166 168/168/168
f 169/169/169 171/171/171 170/170/170
f 169/169/169 170/170/170 172/172/172
f 173/173/173 175/175/175 174/174/174
f 173/173/173 174/174/174 176/176/176
f 177/177/177 179/179/179 178/178/178
f 177/177/177 178/178/178 180/180/180
f 181/181/181 183/183/183 182/182/182
f 181/181/181 182/182/182 184/184/184
f 185/185/185 187/187/187 186/186/186
f 185/185/185 186/186/186 188/188/188
f 189/189/189 191/191/191 190/190/190
f 189/189/189 190/190/190 192/192/192
f 193/193/193 195/195/195 194/194/194
f 193/193/193 194/194/194 196/196/196
f 197/197/197 199/199/199 198/198/198
f 197/197/197 198/198/198 200/200/200
f 201/201/201 203/203/203 202/202/202
f 201/201/201 202/202/202 204/204/204
f 205/205/205 207/207/207 206/206/206
f 205/205/205 206/206/206 208/208/208
f 209/209/209 211/211/211 210/210/210
f 209/209/209 210/210/210 212/212/212
f 213/213/213 215/215/215 214/214/214
f 213/213/213 214/214/214 216/216/216
f 217/217/217 219/219/219 218/218/218
f 217/217/217 218/218/218 220/220/220
f 221/221/221 223/223/223 222/222/222
f 221/221/221 222/222/222 224/224/224

o collision_PZ_Object111
v -59.2029743 4.96952345 -10.696964
v -51.7822666 4.96952441 -17.8584416
v -51.7822666 4.96952345 -10.696964
v -59.2029743 4.96952441 -17.8584416
v -44.3615532 4.96952917 -49.1052873
v -36.7889996 4.96952774 -40.092691
v -44.3615532 4.96952774 -40.092691
v -36.7889996 4.96952917 -49.1052873
v -59.2029743 4.96952774 -40.092691
v -51.7822666 4.96952917 -49.1052873
v -51.7822666 4.96952774 -40.092691
v -59.2029743 4.96952917 -49.1052873
v -59.2029743 4.96952679 -32.144912
v -51.7822666 4.96952774 -40.092691
v -51.7822666 4.96952679 -32.144912
v -59.2029743 4.96952774 -40.092691
v -59.2029743 4.96952536 -25.0199192
v -51.7822666 4.96952679 -32.144912
v -51.7822666 4.96952536 -25.0199192
v -59.2029743 4.96952679 -32.144912
v -36.7889996 4.96952917 -49.1052873
v -29.3042021 4.96952774 -40.092691
v -36.7889996 4.96952774 -40.092691
v -29.3042011 4.96952917 -49.1052873
v -36.7889996 4.96952679 -31.7497953
v -44.3615532 4.96952774 -40.092691
v -36.7889996 4.96952774 -40.092691
v -44.3615532 4.96952679 -32.144912
v -44.3615532 4.96952536 -25.0199192
v -44.3615532 4.96952679 -32.144912
v -42.9180508 4.96952631 -29.7104757
v -36.7889996 4.96952679 -31.7497953
v -29.3042021 4.96952679 -31.7497953
v -36.7889996 4.96952774 -40.092691
v -29.3042021 4.96952774 -40.092691
v -36.7889996 4.96952679 -31.7497953
v -29.3042011 4.96952917 -49.1052873
v -21.520453 4.96952774 -40.092691
v -29.3042021 4.96952774 -40.092691
v -21.520453 4.96952917 -49.1052873
v -44.3615532 4.96952393 -13.1458714
v -39.2044411 -0.0351847909 -23.8215256
v -39.2044411 4.96952393 -13.1458714
v -44.3615532 -0.0351847909 -23.8246975
v -44.3615532 4.96952393 -13.1458714
v -39.2044411 4.96952345 -10.696964
v -44.3615532 4.96952345 -10.696964
v -39.2044411 4.96952393 -13.1458714
v -59.1367283 0.863195786 25.2115237
v -52.601305 0.863196739 18.1636221
v -52.601305 0.863195786 25.2115237
v -59.1367283 0.863196739 18.1636221
v -52.601305 0.863195786 25.2115237
v -50.3301258 -0.0351909898 18.1636221
v -50.3301258 -0.0351919435 25.2115237
v -52.601305 0.863196739 18.1636221
v -52.601305 0.863198647 4.06781495
v -59.1367283 -0.0351881288 2.17758706
v -52.601305 -0.0351881288 2.17758706
v -59.1367283 0.863198647 4.06781495
v -59.2029743 4.96952441 -17.8584416
v -51.7822666 4.96952536 -25.0199192
v -51.7822666 4.96952441 -17.8584416
v -59.2029743 4.96952536 -25.0199192
v -51.7822666 4.96952441 -17.8584416
v -44.3615532 4.96952345 -10.696964
v -51.7822666 4.96952345 -10.696964
v -44.3615532 4.96952441 -17.8584416
v -51.7822666 4.96952917 -49.1052873
v -44.3615532 4.96952774 -40.092691
v -51.7822666 4.96952774 -40.092691
v -44.3615532 4.96952917 -49.1052873
v -51.7822666 4.96952774 -40.092691
v -44.3615532 4.96952679 -32.144912
v -51.7822666 4.96952679 -32.144912
v -44.3615532 4.96952774 -40.092691
v -51.7822666 4.96952679 -32.144912
v -44.3615532 4.96952536 -25.0199192
v -51.7822666 4.96952536 -25.0199192
v -44.3615532 4.96952679 -32.144912
v -51.7822666 4.96952536 -25.0199192
v -44.3615532 4.96952441 -17.8584416
v -51.7822666 4.96952441 -17.8584416
v -44.3615532 4.96952536 -25.0199192
v -59.1367283 0.863197693 11.1157185
v -52.601305 0.863198647 4.06781495
v -52.601305 0.863197693 11.1157185
v -59.1367283 0.863198647 4.06781495
v -59.1367283 0.863196739 18.1636221
v -52.601305 0.863197693 11.1157185
v -52.601305 0.863196739 18.1636221
v -59.1367283 0.863197693 11.1157185
v -52.601305 0.863195786 25.2115237
v -59.1367283 0.863194355 32.2594273
v -59.1367283 0.863195786 25.2115237
v -52.601305 0.863194355 32.2594273
v -52.601305 0.863197693 11.1157185
v -50.3301258 -0.0351886056 4.06781495
v -50.3301258 -0.0351895593 11.1157185
v -52.601305 0.863198647 4.06781495
v -52.601305 0.863196739 18.1636221
v -50.3301258 -0.0351895593 11.1157185
v -50.3301258 -0.0351909898 18.1636221
v -52.601305 0.863197693 11.1157185
v -50.3301258 -0.0351919435 25.2115237
v -52.601305 0.863194355 32.2594273
v -52.601305 0.863195786 25.2115237
v -50.3301258 -0.035193374 32.2594273
v -21.520453 4.96952774 -40.092691
v -29.3042021 2.46717219 -35.1842791
v -29.3042021 4.96952774 -40.092691
v -21.520453 2.46717219 -35.1842791
v -21.520453 2.46717219 -35.1842791
v -29.3042021 -0.0351833604 -30.2758671
v -29.3042021 2.46717219 -35.1842791
v -21.520453 -0.0351833604 -30.2758671
v -21.520453 4.96952917 -49.1052873
v -13.7367044 4.96952774 -40.092691
v -21.5204535 4.96952774 -40.092691
v -13.7367036 4.96952917 -49.1052873
v -13.7367044 4.96952774 -40.092691
v -21.5204535 2.46717219 -35.1842791
v -21.5204535 4.96952774 -40.092691
v -13.7367044 2.46717219 -35.1842791
v -13.7367044 2.46717219 -35.1842791
v -21.5204535 -0.0351833604 -30.2758671
v -21.5204535 2.46717219 -35.1842791
v -13.7367044 -0.0351833604 -30.2758671
v -13.7367036 4.96952917 -49.1052873
v -5.9529543 4.96952774 -40.092691
v -13.7367039 4.96952774 -40.092691
v -5.95295334 4.96952917 -49.1052873
v -5.9529543 4.96952774 -40.092691
v -13.7367039 2.46717219 -35.1842791
v -13.7367039 4.96952774 -40.092691
v -5.9529543 2.46717219 -35.1842791
v -5.9529543 2.46717219 -35.1842791
v -13.7367039 -0.0351833604 -30.2758671
v -13.7367039 2.46717219 -35.1842791
v -5.9529543 -0.0351833604 -30.2758671
v -44.3615532 4.9695306 -58.1178816
v -36.7889996 4.96952917 -49.1052873
v -44.3615532 4.96952917 -49.1052873
v -36.7889996 4.9695306 -58.1178816
v -59.2029743 4.96952917 -49.1052873
v -51.7822666 4.9695306 -58.1178816
v -51.7822666 4.96952917 -49.1052873
v -59.2029743 4.9695306 -58.1178816
v -36.7889996 4.9695306 -58.1178816
v -29.3042011 4.96952917 -49.1052873
v -36.7889996 4.96952917 -49.1052873
v -29.3042011 4.9695306 -58.1178816
v -29.3042011 4.9695306 -58.1178816
v -21.520453 4.96952917 -49.1052873
v -29.3042011 4.96952917 -49.1052873
v -21.5204525 4.9695306 -58.1178816
v -51.7822666 4.9695306 -58.1178816
v -44.3615532 4.96952917 -49.1052873
v -51.7822666 4.96952917 -49.1052873
v -44.3615532 4.9695306 -58.1178816
v -21.5204525 4.9695306 -58.1178816
v -13.7367036 4.96952917 -49.1052873
v -21.520453 4.96952917 -49.1052873
v -13.7367039 4.9695306 -58.1178816
v -13.736702 4.9695306 -58.1178816
v -5.95295334 4.96952917 -49.1052873
v -13.7367036 4.96952917 -49.1052873
v -5.95295334 4.9695306 -58.1178816
vt -2.00055718 0.166604772
vt -2.33464551 0.499622405
vt -2.33464551 0.166604772
vt -2.00055718 0.499622405
vt -2.33464551 0.499622405
vt -2.00055718 0.166604772
vt -2.33464551 0.166604772
vt -2.00055718 0.499622405
vt -2.00055718 0.166604772
vt -2.33464551 0.499622405
vt -2.33464551 0.166604772
vt -2.00055718 0.499622405
vt -2.00055718 0.166604772
vt -2.33464551 0.499622405
vt -2.33464551 0.166604772
vt -2.00055718 0.499622405
vt -2.00055718 0.166604772
vt -2.33464551 0.499622405
vt -2.33464551 0.166604772
vt -2.00055718 0.499622405
vt -2.00055718 0.499622405
vt -2.33464551 0.166604772
vt -2.00055718 0.166604772
vt -2.33464551 0.499622405
vt -2.00055718 0.499622405
vt -2.33464551 0.166604772
vt -2.00055718 0.166604772
vt -2.33464551 0.499622405
vt -2.33464551 0.166604772
vt -2.33464551 0.499622405
vt -2.2680974 0.394598544
vt -2.00055718 0.499622405
vt -2.33464551 0.499622405
vt -2.00055718 0.166604772
vt -2.33464551 0.166604772
vt -2.00055718 0.499622405
vt -2.33513236 0.498776436
vt -2.00162625 0.167501092
vt -2.33513236 0.167501092
vt -2.00162625 0.498776436
vt 2.999614 1.16513658
vt 2.75649309 0.999949098
vt 2.999614 0.999949098
vt 2.7563839 1.16513658
vt 2.75637412 1.16513658
vt 2.66589236 0.999949098
vt 2.66589236 1.16513658
vt 2.75637412 0.999949098
vt 0.664845943 0.499669731
vt 0.360981286 0.195965767
vt 0.360981256 0.499669701
vt 0.664845943 0.195965827
vt 1.75674891 0.000113642629
vt 1.81800461 0.16568388
vt 1.81800461 0.000113642629
vt 1.75674891 0.16568388
vt 1.81800461 0.000113642629
vt 1.75674891 0.16568388
vt 1.75674891 0.000113642629
vt 1.81800461 0.16568388
vt -2.00055718 0.166604772
vt -2.33464551 0.499622405
vt -2.33464551 0.166604772
vt -2.00055718 0.499622405
vt -2.33464551 0.499622405
vt -2.00055718 0.166604772
vt -2.33464551 0.166604772
vt -2.00055718 0.499622405
vt -2.33464551 0.499622405
vt -2.00055718 0.166604772
vt -2.33464551 0.166604772
vt -2.00055718 0.499622405
vt -2.33464551 0.499622405
vt -2.00055718 0.166604772
vt -2.33464551 0.166604772
vt -2.00055718 0.499622405
vt -2.33464551 0.499622405
vt -2.00055718 0.166604772
vt -2.33464551 0.166604772
vt -2.00055718 0.499622405
vt -2.33464551 0.499622405
vt -2.00055718 0.166604772
vt -2.33464551 0.166604772
vt -2.00055718 0.499622405
vt 0.664845943 0.499669731
vt 0.360981286 0.195965767
vt 0.360981256 0.499669701
vt 0.664845943 0.195965827
vt 0.664845943 0.195965827
vt 0.360981256 0.499669701
vt 0.360981286 0.195965767
vt 0.664845943 0.499669731
vt 0.360981256 0.499669701
vt 0.664845943 0.195965827
vt 0.664845943 0.499669731
vt 0.360981286 0.195965767
vt 1.75674891 0.000113642629
vt 1.81800461 0.16568388
vt 1.81800461 0.000113642629
vt 1.75674891 0.16568388
vt 1.75674891 0.16568388
vt 1.81800461 0.000113642629
vt 1.81800461 0.16568388
vt 1.75674891 0.000113642629
vt 1.81800461 0.000113642629
vt 1.75674891 0.16568388
vt 1.75674891 0.000113642629
vt 1.81800461 0.16568388
vt 1.66545057 0.164951921
vt 1.99947977 -0.00070657488
vt 1.66545057 -0.00070657488
vt 1.99947977 0.164951935
vt 1.75709236 0.164951935
vt 1.99947977 -0.00070657488
vt 1.75709236 -0.00070657488
vt 1.99947977 0.164951935
vt -2.33513236 0.498776436
vt -2.00162625 0.167501092
vt -2.33513236 0.167501092
vt -2.00162625 0.498776436
vt 1.66545057 0.164951921
vt 1.99947977 -0.00070657488
vt 1.66545057 -0.00070657488
vt 1.99947977 0.164951935
vt 1.75709236 0.164951935
vt 1.99947977 -0.00070657488
vt 1.75709236 -0.00070657488
vt 1.99947977 0.164951935
vt -2.33513236 0.498776436
vt -2.00162625 0.167501092
vt -2.33513236 0.167501092
vt -2.00162625 0.498776436
vt 1.66545057 0.164951921
vt 1.99947977 -0.00070657488
vt 1.66545057 -0.00070657488
vt 1.99947977 0.164951935
vt 1.75709236 0.164951935
vt 1.99947977 -0.00070657488
vt 1.75709236 -0.00070657488
vt 1.99947977 0.164951935
vt -2.33464551 0.499622405
vt -2.00055718 0.166604772
vt -2.33464551 0.166604772
vt -2.00055718 0.499622405
vt -2.00055718 0.166604772
vt -2.33464551 0.499622405
vt -2.33464551 0.166604772
vt -2.00055718 0.499622405
vt -2.00055718 0.499622405
vt -2.33464551 0.166604772
vt -2.00055718 0.166604772
vt -2.33464551 0.499622405
vt -2.33513236 0.498776436
vt -2.00162625 0.167501092
vt -2.33513236 0.167501092
vt -2.00162625 0.498776436
vt -2.33464551 0.499622405
vt -2.00055718 0.166604772
vt -2.33464551 0.166604772
vt -2.00055718 0.499622405
vt -2.33513236 0.498776436
vt -2.00162625 0.167501092
vt -2.33513236 0.167501092
vt -2.00162625 0.498776436
vt -2.33513236 0.498776436
vt -2.00162625 0.167501092
vt -2.33513236 0.167501092
vt -2.00162625 0.498776436
vn 0 1 2.22044605e-16
vn 0 1 2.22044605e-16
vn 0 1 2.22044605e-16
vn 0 1 2.22044605e-16
vn 0 1 2.22044605e-16
vn 0 1 2.22044605e-16
vn 0 1 2.22044605e-16
vn 0 1 2.22044605e-16
vn 0 1 2.22044605e-16
vn 0 1 2.22044605e-16
vn 0 1 2.22044605e-16
vn 0 1 2.22044605e-16
vn 0 1 2.22044605e-16
vn 0 1 2.22044605e-16
vn 0 1 2.22044605e-16
vn 0 1 2.22044605e-16
vn 0 1 2.22044605e-16
vn 0 1 2.22044605e-16
vn 0 1 2.22044605e-16
vn 0 1 2.22044605e-16
vn 0 1 2.22044605e-16
vn 0 1 2.22044605e-16
vn 0 1 2.22044605e-16
vn 0 1 2.22044605e-16
vn 0 1 2.22044605e-16
vn 0 1 2.22044605e-16
vn 0 1 2.22044605e-16
vn 0 1 2.22044605e-16
vn 0 1 2.22044605e-16
vn 0 1 2.22044605e-16
vn 0 1 2.22044605e-16
vn 0 1 2.22044605e-16
vn 0 1 2.22044605e-16
vn 0 1 2.22044605e-16
vn 0 1 2.22044605e-16
vn 0 1 2.22044605e-16
vn 0 1 2.22044605e-16
vn 0 1 2.22044605e-16
vn 0 1 2.22044605e-16
vn 0 1 2.22044605e-16
vn 0.0001305151 0.905466992 -0.42441667
vn 0.000130515073 0.905467003 -0.424416645
vn 0.0001305151 0.905466992 -0.42441667
vn 0.000130515102 0.905467003 -0.424416645
vn 0 1 2.22044605e-16
vn 0 1 2.22044605e-16
vn 0 1 2.22044605e-16
vn 0 1 2.22044605e-16
vn 0 1 2.22044605e-16
vn 0 1 2.22044605e-16
vn 0 1 2.22044605e-16
vn 0 1 2.22044605e-16
vn 0.367828742 0.929893551 2.06477846e-16
vn 0.367828742 0.929893551 2.06477846e-16
vn 0.367828742 0.929893551 2.06477846e-16
vn 0.367828742 0.929893551 2.06477846e-16
vn 0 0.903179617 -0.429262833
vn 0 0.903179617 -0.429262833
vn 0 0.903179617 -0.429262833
vn 0 0.903179617 -0.429262833
vn 0 1 2.22044605e-16
vn 0 1 2.22044605e-16
vn 0 1 2.22044605e-16
vn 0 1 2.22044605e-16
vn 0 1 2.22044605e-16
vn 0 1 2.22044605e-16
vn 0 1 2.22044605e-16
vn 0 1 2.22044605e-16
vn 0 1 2.22044605e-16
vn 0 1 2.22044605e-16
vn 0 1 2.22044605e-16
vn 0 1 2.22044605e-16
vn 0 1 2.22044605e-16
vn 0 1 2.22044605e-16
vn 0 1 2.22044605e-16
vn 0 1 2.22044605e-16
vn 0 1 2.22044605e-16
vn 0 1 2.22044605e-16
vn 0 1 2.22044605e-16
vn 0 1 2.22044605e-16
vn 0 1 2.22044605e-16
vn 0 1 2.22044605e-16
vn 0 1 2.22044605e-16
vn 0 1 2.22044605e-16
vn 0 1 2.22044605e-16
vn 0 1 2.22044605e-16
vn 0 1 2.22044605e-16
vn 0 1 2.22044605e-16
vn 0 1 2.22044605e-16
vn 0 1 2.22044605e-16
vn 0 1 2.22044605e-16
vn 0 1 2.22044605e-16
vn 0 1 2.22044605e-16
vn 0 1 2.22044605e-16
vn 0 1 2.22044605e-16
vn 0 1 2.22044605e-16
vn 0.367828546 0.929893629 2.06477863e-16
vn 0.367828546 0.929893629 2.06477863e-16
vn 0.367828587 0.929893612 2.0647786e-16
vn 0.367828587 0.929893612 2.0647786e-16
vn 0.367828639 0.929893592 2.06477855e-16
vn 0.367828639 0.929893592 2.06477855e-16
vn 0.367828639 0.929893592 2.06477855e-16
vn 0.367828639 0.929893592 2.06477855e-16
vn 0.367828742 0.929893551 2.06477846e-16
vn 0.367828742 0.929893551 2.06477846e-16
vn 0.367828742 0.929893551 2.06477846e-16
vn 0.367828742 0.929893551 2.06477846e-16
vn 0 0.890904112 0.454191438
vn 0 0.890904112 0.454191438
vn 0 0.890904112 0.454191438
vn 0 0.890904112 0.454191438
vn 0 0.890904112 0.454191438
vn 0 0.8909041 0.454191462
vn 0 0.890904112 0.454191438
vn 0 0.8909041 0.454191462
vn 0 1 2.22044605e-16
vn 0 1 2.22044605e-16
vn 0 1 2.22044605e-16
vn 0 1 2.22044605e-16
vn 0 0.890904112 0.454191438
vn 0 0.890904112 0.454191438
vn 0 0.890904112 0.454191438
vn 0 0.890904112 0.454191438
vn 0 0.890904112 0.454191438
vn 0 0.890904112 0.454191438
vn 0 0.890904112 0.454191438
vn 0 0.890904112 0.454191438
vn 0 1 2.22044605e-16
vn 0 1 2.22044605e-16
vn 0 1 2.22044605e-16
vn 0 1 2.22044605e-16
vn 0 0.8909041 0.454191462
vn 0 0.8909041 0.454191462
vn 0 0.8909041 0.454191462
vn 0 0.8909041 0.454191462
vn 0 0.8909041 0.454191462
vn 0 0.8909041 0.454191462
vn 0 0.8909041 0.454191462
vn 0 0.8909041 0.454191462
vn 0 1 2.22044605e-16
vn 0 1 2.22044605e-16
vn 0 1 2.22044605e-16
vn 0 1 2.22044605e-16
vn 0 1 2.22044605e-16
vn 0 1 2.22044605e-16
vn 0 1 2.22044605e-16
vn 0 1 2.22044605e-16
vn 0 1 2.22044605e-16
vn 0 1 2.22044605e-16
vn 0 1 2.22044605e-16
vn 0 1 2.22044605e-16
vn 0 1 2.22044605e-16
vn 0 1 2.22044605e-16
vn 0 1 2.22044605e-16
vn 0 1 2.22044605e-16
vn 0 1 2.22044605e-16
vn 0 1 2.22044605e-16
vn 0 1 2.22044605e-16
vn 0 1 2.22044605e-16
vn 0 1 2.22044605e-16
vn 0 1 2.22044605e-16
vn 0 1 2.22044605e-16
vn 0 1 2.22044605e-16
vn 0 1 2.22044605e-16
vn 0 1 2.22044605e-16
vn 0 1 2.22044605e-16
vn 0 1 2.22044605e-16

g collision_PZ_Object111_submesh_0
usemtl collision_3
f 225/225/225 227/227/227 226/226/226
f 225/225/225 226/226/226 228/228/228
f 229/229/229 231/231/231 230/230/230
f 229/229/229 230/230/230 232/232/232
f 233/233/233 235/235/235 234/234/234
f 233/233/233 234/234/234 236/236/236
f 237/237/237 239/239/239 238/238/238
f 237/237/237 238/238/238 240/240/240
f 241/241/241 243/243/243 242/242/242
f 241/241/241 242/242/242 244/244/244
f 245/245/245 247/247/247 246/246/246
f 245/245/245 246/246/246 248/248/248
f 249/249/249 251/251/251 250/250/250
f 249/249/249 250/250/250 252/252/252
f 253/253/253 255/255/255 254/254/254
f 254/254/254 255/255/255 256/256/256
f 257/257/257 259/259/259 258/258/258
f 257/257/257 258/258/258 260/260/260
f 261/261/261 263/263/263 262/262/262
f 261/261/261 262/262/262 264/264/264
f 265/265/265 267/267/267 266/266/266
f 265/265/265 266/266/266 268/268/268
f 269/269/269 271/271/271 270/270/270
f 269/269/269 270/270/270 272/272/272
f 273/273/273 275/275/275 274/274/274
f 273/273/273 274/274/274 276/276/276
f 277/277/277 279/279/279 278/278/278
f 277/277/277 278/278/278 280/280/280
f 281/281/281 283/283/283 282/282/282
f 281/281/281 282/282/282 284/284/284
f 285/285/285 287/287/287 286/286/286
f 285/285/285 286/286/286 288/288/288
f 289/289/289 291/291/291 290/290/290
f 289/289/289 290/290/290 292/292/292
f 293/293/293 295/295/295 294/294/294
f 293/293/293 294/294/294 296/296/296
f 297/297/297 299/299/299 298/298/298
f 297/297/297 298/298/298 300/300/300
f 301/301/301 303/303/303 302/302/302
f 301/301/301 302/302/302 304/304/304
f 305/305/305 307/307/307 306/306/306
f 305/305/305 306/306/306 308/308/308
f 309/309/309 311/311/311 310/310/310
f 309/309/309 310/310/310 312/312/312
f 313/313/313 315/315/315 314/314/314
f 313/313/313 314/314/314 316/316/316
f 317/317/317 319/319/319 318/318/318
f 317/317/317 318/318/318 320/320/320
f 321/321/321 323/323/323 322/322/322
f 321/321/321 322/322/322 324/324/324
f 325/325/325 327/327/327 326/326/326
f 325/325/325 326/326/326 328/328/328
f 329/329/329 331/331/331 330/330/330
f 329/329/329 330/330/330 332/332/332
f 333/333/333 335/335/335 334/334/334
f 333/333/333 334/334/334 336/336/336
f 337/337/337 339/339/339 338/338/338
f 337/337/337 338/338/338 340/340/340
f 341/341/341 343/343/343 342/342/342
f 341/341/341 342/342/342 344/344/344
f 345/345/345 347/347/347 346/346/346
f 345/345/345 346/346/346 348/348/348
f 349/349/349 351/351/351 350/350/350
f 349/349/349 350/350/350 352/352/352
f 353/353/353 355/355/355 354/354/354
f 353/353/353 354/354/354 356/356/356
f 357/357/357 359/359/359 358/358/358
f 357/357/357 358/358/358 360/360/360
f 361/361/361 363/363/363 362/362/362
f 361/361/361 362/362/362 364/364/364
f 365/365/365 367/367/367 366/366/366
f 365/365/365 366/366/366 368/368/368
f 369/369/369 371/371/371 370/370/370
f 369/369/369 370/370/370 372/372/372
f 373/373/373 375/375/375 374/374/374
f 373/373/373 374/374/374 376/376/376
f 377/377/377 379/379/379 378/378/378
f 377/377/377 378/378/378 380/380/380
f 381/381/381 383/383/383 382/382/382
f 381/381/381 382/382/382 384/384/384
f 385/385/385 387/387/387 386/386/386
f 385/385/385 386/386/386 388/388/388
f 389/389/389 391/391/391 390/390/390
f 389/389/389 390/390/390 392/392/392

o collision_PZ_Object71
v -39.20444 4.96952248 -13.1458726
v -39.20444 -0.0351848141 -23.8215277
v -39.20444 -0.0351879135 -13.1458726
vt 0.431878924 0.752018034
vt 0.761258602 0.523306608
vt 0.431877226 0.523308754
vn 1 0 0
vn 1 0 0
vn 1 0 0

g collision_PZ_Object71_submesh_0
usemtl collision_4
f 393/393/393 395/395/395 394/394/394

o collision_PZ_Object55
v 37.8034841 -8.43818333e-07 -20.3630598
v 37.7600499 6.80680579 -25.5962155
v 37.9291173 -0.0351840281 -25.5956843
v 37.8034841 6.80680484 -20.3630589
v 36.7743245 6.80680579 -28.0038959
v 36.9433919 -0.0351835512 -28.003365
v 35.2331372 6.80680627 -29.81365
v 35.4022046 -0.0351833128 -29.813119
v 35.808611 6.80680531 -25.0199202
v 37.8034841 6.80680484 -20.3630589
v 35.808611 6.80680484 -20.3630589
v 37.7600499 6.80680579 -25.5962155
v 35.0821019 6.80680579 -26.8604362
v 36.7743245 6.80680579 -28.0038959
v 33.8803426 6.80680627 -28.4147312
v 35.2331372 6.80680627 -29.81365
v 31.9562093 6.80680627 -29.7388555
v 33.0747319 6.80680627 -31.2855792
v 29.6955167 6.80680627 -30.2764003
v 30.4038182 6.80680674 -32.1515859
v 35.4022046 -0.0351833128 -29.813119
v 33.0747319 6.80680627 -31.2855792
v 33.2437993 -0.0351830744 -31.285048
v 35.2331372 6.80680627 -29.81365
v 30.4038182 6.80680674 -32.1515859
v 30.5728856 -0.0351830744 -32.1510547
v 35.808611 6.80680484 -20.3630589
v 35.808611 -0.0351840281 -25.0199212
v 35.808611 6.80680531 -25.0199202
v 35.808611 -0.0351847433 -20.3567122
v 35.0821019 -0.0351837897 -26.8604381
v 35.0821019 6.80680579 -26.8604362
v 33.8803426 -0.0351835512 -28.4147323
v 33.8803426 6.80680627 -28.4147312
v 31.9562093 6.80680627 -29.7388555
v 29.6955167 -0.0351833128 -30.2764032
v 29.6955167 6.80680627 -30.2764003
v 31.9562093 -0.0351833128 -29.7388555
v 33.8803426 6.80680627 -28.4147312
v 33.8803426 -0.0351835512 -28.4147323
vt 0.314269871 0.00230363198
vt 0.0730987117 0.14470771
vt 0.314270377 0.144707069
vt 0.0730987117 0.00230446388
vt 0.0730987117 0.203618973
vt 0.314271361 0.203618139
vt 0.0730992183 0.252053708
vt 0.314271361 0.252053291
vt 0.0730987117 0.14470771
vt 0.00567913754 0.00230446388
vt 0.0730987117 0.00230446388
vt 0.00567913754 0.14470771
vt 0.0730987117 0.203618973
vt 0.00567964232 0.203618973
vt 0.0730992183 0.252053708
vt 0.00568014756 0.252053708
vt 0.0730992183 0.312638968
vt 0.00568014756 0.312638968
vt 0.0731002241 0.382187814
vt 0.00568014756 0.382187814
vt 0.314271361 0.252053291
vt 0.0730992183 0.312638968
vt 0.314271361 0.312638551
vt 0.0730992183 0.252053708
vt 0.0731002241 0.382187814
vt 0.314271361 0.382187396
vt 0.0730987117 0.00230446388
vt 0.314270377 0.144707069
vt 0.0730987117 0.14470771
vt 0.314269871 0.00230363198
vt 0.314271361 0.203618139
vt 0.0730987117 0.203618973
vt 0.314271361 0.252053291
vt 0.0730992183 0.252053708
vt 0.0730992183 0.312638968
vt 0.314271361 0.382187396
vt 0.0731002241 0.382187814
vt 0.314271361 0.312638551
vt 0.0730992183 0.252053708
vt 0.314271361 0.252053291
vn 0.999892778 0.0123859569 0.00781160196
vn 0.981658104 0.0179774686 -0.189800361
vn 0.9818025 0.0179573012 -0.189053926
vn 0.999892778 0.012385956 0.00781160196
vn 0.853218844 0.0210428259 -0.521128395
vn 0.854567255 0.021076316 -0.518912898
vn 0.667061374 0.016425462 -0.744821675
vn 0.669382545 0.0164829798 -0.742735027
vn 0 1 2.22044605e-16
vn 0 1 2.22044605e-16
vn 0 1 2.22044605e-16
vn 0 1 2.22044605e-16
vn 0 1 2.22044605e-16
vn 0 1 2.22044605e-16
vn 0 1 2.22044605e-16
vn 0 1 2.22044605e-16
vn 0 1 2.22044605e-16
vn 0 1 2.22044605e-16
vn 0 1 2.22044605e-16
vn 0 1 2.22044605e-16
vn 0.669382545 0.0164829798 -0.742735027
vn 0.438551359 0.0107669677 -0.898641629
vn 0.442156708 0.0108561945 -0.896872114
vn 0.667061374 0.016425462 -0.744821675
vn 0.308419824 0.00754729944 -0.951220401
vn 0.308419824 0.00754729944 -0.951220401
vn -1 0 0
vn -0.982384101 -4.14941182e-17 0.186872895
vn -0.982384101 -4.14941182e-17 0.186872895
vn -1 0 0
vn -0.869273256 -1.09763727e-16 0.494331878
vn -0.869273256 -1.09763727e-16 0.494331878
vn -0.687237951 -1.6130039e-16 0.726432377
vn -0.68723792 -1.61300397e-16 0.726432407
vn -0.406017576 -2.02918852e-16 0.913865268
vn -0.231329903 -2.16021726e-16 0.972875365
vn -0.231329903 -2.16021726e-16 0.972875365
vn -0.406017529 -2.02918857e-16 0.913865289
vn -0.68723792 -1.61300397e-16 0.726432407
vn -0.687237951 -1.6130039e-16 0.726432377

g collision_PZ_Object55_submesh_0
usemtl collision_5
f 396/396/396 398/398/398 397/397/397
f 396/396/396 397/397/397 399/399/399
f 398/398/398 400/400/400 397/397/397
f 398/398/398 401/401/401 400/400/400
f 401/401/401 402/402/402 400/400/400
f 401/401/401 403/403/403 402/402/402
f 404/404/404 406/406/406 405/405/405
f 404/404/404 405/405/405 407/407/407
f 408/408/408 404/404/404 407/407/407
f 408/408/408 407/407/407 409/409/409
f 410/410/410 408/408/408 409/409/409
f 410/410/410 409/409/409 411/411/411
f 412/412/412 410/410/410 411/411/411
f 412/412/412 411/411/411 413/413/413
f 414/414/414 412/412/412 413/413/413
f 414/414/414 413/413/413 415/415/415
f 416/416/416 418/418/418 417/417/417
f 416/416/416 417/417/417 419/419/419
f 418/418/418 420/420/420 417/417/417
f 418/418/418 421/421/421 420/420/420
f 422/422/422 424/424/424 423/423/423
f 422/422/422 423/423/423 425/425/425
f 424/424/424 426/426/426 423/423/423
f 424/424/424 427/427/427 426/426/426
f 427/427/427 428/428/428 426/426/426
f 427/427/427 429/429/429 428/428/428
f 430/430/430 432/432/432 431/431/431
f 430/430/430 431/431/431 433/433/433
f 434/434/434 430/430/430 433/433/433
f 434/434/434 433/433/433 435/435/435

o collision_PZ_Object41
v -10.9526616 5.23875563 -49.1052911
v -4.44179543 5.23875515 -44.5934912
v -10.9526616 5.23875515 -44.5934912
v -4.44179543 5.23875563 -49.1052911
v -10.9526616 5.23875563 -49.1052911
v -11.2425128 4.98150013 -44.5934912
v -11.2425128 4.98150108 -49.1052911
v -10.9526616 5.23875515 -44.5934912
v 2.06907073 5.23875563 -49.1052911
v -4.44179543 5.23875515 -44.5934912
v -4.44179543 5.23875563 -49.1052911
v 2.06907264 5.23875515 -44.5934912
v 2.35892288 4.98150108 -49.1052911
v 2.06907264 5.23875515 -44.5934912
v 2.06907073 5.23875563 -49.1052911
v 2.35892478 4.98150013 -44.5934912
v -10.9526616 5.2387542 -40.0816913
v -10.9526616 4.98149917 -40.0816913
v -11.2425128 4.98149917 -40.0816913
v 2.06907264 4.98149917 -40.0816913
v 2.06907264 5.2387542 -40.0816913
v 2.35892478 4.98149917 -40.0816913
v -4.44179543 5.23875515 -44.5934912
v -10.9526616 5.2387542 -40.0816913
v -10.9526616 5.23875515 -44.5934912
v -4.44179543 5.2387542 -40.0816913
v -10.9526616 5.23875515 -44.5934912
v -11.2425128 4.98149917 -40.0816913
v -11.2425128 4.98150013 -44.5934912
v -10.9526616 5.2387542 -40.0816913
v 2.06907264 5.23875515 -44.5934912
v -4.44179543 5.2387542 -40.0816913
v -4.44179543 5.23875515 -44.5934912
v 2.06907264 5.2387542 -40.0816913
v 2.35892478 4.98150013 -44.5934912
v 2.06907264 5.2387542 -40.0816913
v 2.06907264 5.23875515 -44.5934912
v 2.35892478 4.98149917 -40.0816913
v -4.44179543 5.23875372 -35.7315388
v -10.9526625 5.23875277 -31.3813876
v -10.9526616 5.23875372 -35.7315388
v -4.44179543 5.23875277 -31.3813876
v 2.06907264 5.23875372 -35.7315397
v -4.44179543 5.23875277 -31.3813876
v -4.44179543 5.23875372 -35.7315388
v 2.06907264 5.23875277 -31.3813886
v -4.44179543 5.23875277 -31.3813876
v -10.9526625 5.23875229 -27.0312369
v -10.9526625 5.23875277 -31.3813876
v -4.44179543 5.23875229 -27.0312369
v -10.9526616 5.23875372 -35.7315388
v -4.44179543 5.2387542 -40.0816913
v -4.44179543 5.23875372 -35.7315388
v -10.9526616 5.2387542 -40.0816913
v 2.06907264 5.23875277 -31.3813886
v -4.44179543 5.23875229 -27.0312369
v -4.44179543 5.23875277 -31.3813876
v 2.06907264 5.23875229 -27.0312369
v -4.44179543 5.23875372 -35.7315388
v 2.06907264 5.2387542 -40.0816913
v 2.06907264 5.23875372 -35.7315397
v -4.44179543 5.2387542 -40.0816913
vt 0.360489339 0.195280224
vt 0.665106893 0.000314016594
vt 0.360489339 0.000314016594
vt 0.665106893 0.195280224
vt 1.99723673 0.516690254
vt 1.73382628 0.499898851
vt 1.99723673 0.499898851
vt 1.73382628 0.516690254
vt 0.360489339 0.195280224
vt 0.665106893 0.000314016594
vt 0.665106893 0.195280224
vt 0.360489339 0.000314016594
vt 1.99723673 0.516690254
vt 1.73382628 0.499898851
vt 1.99723673 0.499898851
vt 1.73382628 0.516690254
vt 0.795324028 0.514994681
vt 0.795323968 0.50030005
vt 0.780531108 0.50030005
vt 0.795323968 0.50030005
vt 0.780531108 0.50030005
vt 0.795324028 0.514994681
vt 0.665106893 0.000314016594
vt 0.360489339 0.195280224
vt 0.360489339 0.000314016594
vt 0.665106893 0.195280224
vt 1.99723661 0.516690254
vt 1.73382616 0.499898851
vt 1.99723661 0.499898851
vt 1.73382616 0.516690254
vt 0.360489339 0.000314016594
vt 0.665106893 0.195280224
vt 0.665106893 0.000314016594
vt 0.360489339 0.195280224
vt 1.99723661 0.516690254
vt 1.73382616 0.499898851
vt 1.99723661 0.499898851
vt 1.73382616 0.516690254
vt 0.665106893 0.000314016594
vt 0.360489339 0.195280224
vt 0.360489339 0.000314016594
vt 0.665106893 0.195280224
vt 0.360489339 0.000314016594
vt 0.665106893 0.195280224
vt 0.665106893 0.000314016594
vt 0.360489339 0.195280224
vt 0.665106893 0.195280224
vt 0.360489339 0.000314016594
vt 0.360489339 0.195280224
vt 0.665106893 0.000314016594
vt 0.360489339 0.000314016594
vt 0.665106893 0.195280224
vt 0.665106893 0.000314016594
vt 0.360489339 0.195280224
vt 0.360489339 0.195280224
vt 0.665106893 0.000314016594
vt 0.665106893 0.195280224
vt 0.360489339 0.000314016594
vt 0.665106893 0.000314016594
vt 0.360489339 0.195280224
vt 0.360489339 0.000314016594
vt 0.665106893 0.195280224
vn 0 1 2.22044605e-16
vn 0 1 2.22044605e-16
vn 0 1 2.22044605e-16
vn 0 1 2.22044605e-16
vn -0.663800423 0.747909753 1.66069326e-16
vn -0.663800456 0.747909723 1.66069319e-16
vn -0.663800423 0.747909753 1.66069326e-16
vn -0.663800486 0.747909697 1.66069313e-16
vn 0 1 2.22044605e-16
vn 0 1 2.22044605e-16
vn 0 1 2.22044605e-16
vn 0 1 2.22044605e-16
vn 0.663799194 0.747910844 1.66069568e-16
vn 0.663799194 0.747910844 1.66069568e-16
vn 0.663799224 0.747910817 1.66069562e-16
vn 0.663799224 0.747910817 1.66069562e-16
vn 0 -2.22044605e-16 1
vn 0 -2.22044605e-16 1
vn 0 -2.22044605e-16 1
vn 0 -2.22044605e-16 1
vn 0 -2.22044605e-16 1
vn 0 -2.22044605e-16 1
vn 0 1 2.22044605e-16
vn 0 1 2.22044605e-16
vn 0 1 2.22044605e-16
vn 0 1 2.22044605e-16
vn -0.663800804 0.747909414 1.6606925e-16
vn -0.663800804 0.747909414 1.6606925e-16
vn -0.663800804 0.747909414 1.6606925e-16
vn -0.663800804 0.747909414 1.6606925e-16
vn 0 1 2.22044605e-16
vn 0 1 2.22044605e-16
vn 0 1 2.22044605e-16
vn 0 1 2.22044605e-16
vn 0.663799601 0.747910482 1.66069488e-16
vn 0.663799601 0.747910482 1.66069488e-16
vn 0.663799601 0.747910482 1.66069488e-16
vn 0.663799601 0.747910482 1.66069488e-16
vn 0 1 2.22044605e-16
vn 0 1 2.22044605e-16
vn 0 1 2.22044605e-16
vn 0 1 2.22044605e-16
vn 0 1 2.22044605e-16
vn 0 1 2.22044605e-16
vn 0 1 2.22044605e-16
vn 0 1 2.22044605e-16
vn 0 1 2.22044605e-16
vn 0 1 2.22044605e-16
vn 0 1 2.22044605e-16
vn 0 1 2.22044605e-16
vn 0 1 2.22044605e-16
vn 0 1 2.22044605e-16
vn 0 1 2.22044605e-16
vn 0 1 2.22044605e-16
vn 0 1 2.22044605e-16
vn 0 1 2.22044605e-16
vn 0 1 2.22044605e-16
vn 0 1 2.22044605e-16
vn 0 1 2.22044605e-16
vn 0 1 2.22044605e-16
vn 0 1 2.22044605e-16
vn 0 1 2.22044605e-16

g collision_PZ_Object41_submesh_0
usemtl collision_6
f 436/436/436 438/438/438 437/437/437
f 436/436/436 437/437/437 439/439/439
f 440/440/440 442/442/442 441/441/441
f 440/440/440 441/441/441 443/443/443
f 444/444/444 446/446/446 445/445/445
f 444/444/444 445/445/445 447/447/447
f 448/448/448 450/450/450 449/449/449
f 448/448/448 449/449/449 451/451/451
f 452/452/452 454/454/454 453/453/453
f 455/455/455 457/457/457 456/456/456
f 458/458/458 460/460/460 459/459/459
f 458/458/458 459/459/459 461/461/461
f 462/462/462 464/464/464 463/463/463
f 462/462/462 463/463/463 465/465/465
f 466/466/466 468/468/468 467/467/467
f 466/466/466 467/467/467 469/469/469
f 470/470/470 472/472/472 471/471/471
f 470/470/470 471/471/471 473/473/473
f 474/474/474 476/476/476 475/475/475
f 474/474/474 475/475/475 477/477/477
f 478/478/478 480/480/480 479/479/479
f 478/478/478 479/479/479 481/481/481
f 482/482/482 484/484/484 483/483/483
f 482/482/482 483/483/483 485/485/485
f 486/486/486 488/488/488 487/487/487
f 486/486/486 487/487/487 489/489/489
f 490/490/490 492/492/492 491/491/491
f 490/490/490 491/491/491 493/493/493
f 494/494/494 496/496/496 495/495/495
f 494/494/494 495/495/495 497/497/497

o collision_PZ_Object36
v 30.801403 4.96952248 -13.1458726
v 30.801403 -0.0351879135 -13.1458726
v 30.801403 -0.0351848141 -24.1863844
vt 0.431878924 0.752018034
vt 0.431877226 0.523308754
vt 0.761258602 0.523306608
vn -1 0 0
vn -1 0 0
vn -1 0 0

g collision_PZ_Object36_submesh_0
usemtl collision_7
f 498/498/498 500/500/500 499/499/499

o collision_PZ_G_01
v -21.8092347 2.58936193 29.5368405
v -16.1257153 2.58936121 33.2331861
v -22.3004151 2.58936121 33.2331861
v -16.1257153 2.58936193 29.5368405
v -14.2912407 2.58936193 29.5368405
v -8.98672299 2.58936121 33.2331861
v -14.2912407 2.58936121 33.2331861
v -8.98672299 2.58936193 29.5368405
v -8.98672299 -0.0351905129 27.6094308
v -4.44179539 2.58936121 33.2331861
v -8.98672299 2.58936121 33.2331861
v -4.44179539 -0.0351905129 27.6094308
v -8.98672299 2.58936193 29.5368405
v -14.2912407 2.58936217 27.6094308
v -8.98672299 2.58936217 27.6094308
v -14.2912407 2.58936193 29.5368405
v -14.2912407 2.58936121 33.2331861
v -16.1257153 2.5893605 38.6625273
v -16.1257153 2.58936121 33.2331861
v -14.2912407 2.5893605 38.6625273
v -8.98672299 2.58936121 33.2331861
v -14.2912407 2.5893605 38.6625273
v -14.2912407 2.58936121 33.2331861
v -8.98672299 2.5893605 38.6625273
v -4.44179539 2.58936121 33.2331861
v -8.98672299 2.5893605 38.6625273
v -8.98672299 2.58936121 33.2331861
v -4.44179539 2.5893605 38.6625273
v -14.2912407 2.5893605 38.6625273
v -16.1257163 2.58936026 42.1972708
v -16.1257153 2.5893605 38.6625273
v -14.2912407 2.58936026 42.1972708
v -22.300417 2.5893605 38.6625273
v -22.300417 2.58936026 42.1972708
v -8.98672299 2.5893605 38.6625273
v -14.2912407 2.58936026 42.1972708
v -14.2912407 2.5893605 38.6625273
v -8.98672299 2.58936026 42.1972708
v -4.44179539 2.5893605 38.6625273
v -8.98672299 2.58936026 42.1972708
v -8.98672299 2.5893605 38.6625273
v -4.44179539 2.58936026 42.1972708
v -16.1257153 2.58936193 29.5368405
v -14.2912407 2.58936121 33.2331861
v -16.1257153 2.58936121 33.2331861
v -14.2912407 2.58936193 29.5368405
v -16.1257153 2.5893605 38.6625273
v -22.3004151 -0.0351914666 33.2331861
v -16.1257153 2.58936121 33.2331861
v -22.300417 -0.0351924203 38.6625273
v 12.9256439 2.58936193 29.5368405
v 7.24212261 2.58936121 33.2331861
v 7.24212261 2.58936193 29.5368405
v 13.4168243 2.58936121 33.2331861
v 5.40764995 2.58936193 29.5368405
v 0.103132204 2.58936121 33.2331861
v 0.103132204 2.58936193 29.5368405
v 5.40764995 2.58936121 33.2331861
v 0.103132204 -0.0351905129 27.6094308
v -4.44179539 2.58936121 33.2331861
v -4.44179539 -0.0351905129 27.6094308
v 0.103132204 2.58936121 33.2331861
v 0.103132204 2.58936193 29.5368405
v 5.40764995 2.58936217 27.6094308
v 5.40764995 2.58936193 29.5368405
v 0.103132204 2.58936217 27.6094308
v 5.40764995 2.58936121 33.2331861
v 7.24212261 2.5893605 38.6625273
v 5.40764995 2.5893605 38.6625273
v 7.24212261 2.58936121 33.2331861
v 0.103132204 2.58936121 33.2331861
v 5.40764995 2.5893605 38.6625273
v 0.103132204 2.5893605 38.6625273
v 5.40764995 2.58936121 33.2331861
v -4.44179539 2.58936121 33.2331861
v 0.103132204 2.5893605 38.6625273
v -4.44179539 2.5893605 38.6625273
v 0.103132204 2.58936121 33.2331861
v 5.40764995 2.5893605 38.6625273
v 7.24212642 2.58936026 42.1972708
v 5.40764995 2.58936026 42.1972708
v 7.24212261 2.5893605 38.6625273
v 13.4168243 2.5893605 38.6625273
v 13.4168281 2.58936026 42.1972708
v 0.103132204 2.5893605 38.6625273
v 5.40764995 2.58936026 42.1972708
v 0.103132204 2.58936026 42.1972708
v 5.40764995 2.5893605 38.6625273
v -4.44179539 2.5893605 38.6625273
v 0.103132204 2.58936026 42.1972708
v -4.44179539 2.58936026 42.1972708
v 0.103132204 2.5893605 38.6625273
v 7.24212261 2.58936193 29.5368405
v 5.40764995 2.58936121 33.2331861
v 5.40764995 2.58936193 29.5368405
v 7.24212261 2.58936121 33.2331861
v 7.24212261 2.5893605 38.6625273
v 13.4168243 -0.0351914666 33.2331861
v 13.4168243 -0.0351924203 38.6625273
v 7.24212261 2.58936121 33.2331861
vt -0.334161133 1.196298
vt -0.638058543 1.00082719
vt -0.334161133 1.00082719
vt -0.638058543 1.196298
vt -0.639058471 1.196298
vt -0.334044367 1.00082719
vt -0.639058471 1.00082719
vt -0.334044367 1.196298
vt 1.9997648 0.165043786
vt 1.75719392 0.000247377437
vt 1.75719392 0.165043786
vt 1.9997648 0.000247377437
vt -0.334044367 1.196298
vt -0.639641643 1.09407485
vt -0.334044367 1.09407485
vt -0.639058471 1.196298
vt 1.66743088 0.164864004
vt 1.7570833 -7.70608312e-06
vt 1.7570833 0.164864004
vt 1.66743088 -7.70608312e-06
vt -0.637945175 0.19497779
vt -0.334433794 0.000165803664
vt -0.334433794 0.19497779
vt -0.637945175 0.000165803664
vt -0.334433794 0.19497779
vt -0.637945175 0.000165803664
vt -0.637945175 0.19497779
vt -0.334433794 0.000165803664
vt -0.334433794 0.19497779
vt -0.403042018 0.000165803664
vt -0.403042018 0.19497779
vt -0.334433794 0.000165803664
vt -0.637945175 0.19497779
vt -0.637945175 0.000165803664
vt -0.637945175 0.19497779
vt -0.334433794 0.000165803664
vt -0.334433794 0.19497779
vt -0.637945175 0.000165803664
vt -0.334433794 0.19497779
vt -0.637945175 0.000165803664
vt -0.637945175 0.19497779
vt -0.334433794 0.000165803664
vt -0.543058455 1.196298
vt -0.639058471 1.00082719
vt -0.543058455 1.00082719
vt -0.639058471 1.196298
vt 1.99975097 -7.70608312e-06
vt 1.7570833 0.164864004
vt 1.99975097 0.164864004
vt 1.7570833 -7.70608312e-06
vt -0.334161133 1.196298
vt -0.638462663 1.00082719
vt -0.638462663 1.196298
vt -0.334161133 1.00082719
vt -0.639345229 1.196298
vt -0.333907932 1.00082719
vt -0.333907932 1.196298
vt -0.639345229 1.00082719
vt 1.9997648 0.165043786
vt 1.75719392 0.000247377437
vt 1.9997648 0.000247377437
vt 1.75719392 0.165043786
vt -0.333907932 1.196298
vt -0.639345229 1.09407485
vt -0.639345229 1.196298
vt -0.333907932 1.09407485
vt 1.66743088 0.164864004
vt 1.7570833 -7.70608312e-06
vt 1.66743088 -7.70608312e-06
vt 1.7570833 0.164864004
vt -0.637945175 0.19497779
vt -0.334433794 0.000165803664
vt -0.637945175 0.000165803664
vt -0.334433794 0.19497779
vt -0.334433794 0.19497779
vt -0.637945175 0.000165803664
vt -0.334433794 0.000165803664
vt -0.637945175 0.19497779
vt -0.334433794 0.19497779
vt -0.402798086 0.000165803664
vt -0.334433794 0.000165803664
vt -0.402798086 0.19497779
vt -0.637945175 0.19497779
vt -0.637945175 0.000165803664
vt -0.637945175 0.19497779
vt -0.334433794 0.000165803664
vt -0.637945175 0.000165803664
vt -0.334433794 0.19497779
vt -0.334433794 0.19497779
vt -0.637945175 0.000165803664
vt -0.334433794 0.000165803664
vt -0.637945175 0.19497779
vt -0.543398976 1.196298
vt -0.639345229 1.00082719
vt -0.639345229 1.196298
vt -0.543398976 1.00082719
vt 1.7570833 -7.70608312e-06
vt 1.99975097 0.164864004
vt 1.99975097 -7.70608312e-06
vt 1.7570833 0.164864004
vn 0 1 2.22044605e-16
vn 0 1 2.22044605e-16
vn 0 1 2.22044605e-16
vn 0 1 2.22044605e-16
vn 0 1 2.22044605e-16
vn 0 0.994190354 -0.107636148
vn 0 1 2.22044605e-16
vn 0 1 2.22044605e-16
vn 0 0.906174946 -0.422903024
vn 0 0.906174946 -0.422903024
vn 0 0.994190354 -0.107636148
vn 0 0.906174946 -0.422903024
vn 0 1 2.22044605e-16
vn 0 1 2.22044605e-16
vn 0 1 2.22044605e-16
vn 0 1 2.22044605e-16
vn 0 1 2.22044605e-16
vn 0 1 2.22044605e-16
vn 0 1 2.22044605e-16
vn 0 1 2.22044605e-16
vn 0 0.994190354 -0.107636148
vn 0 1 2.22044605e-16
vn 0 1 2.22044605e-16
vn 0 1 2.22044605e-16
vn 0 1 2.22044605e-16
vn 0 1 2.22044605e-16
vn 0 0.994190354 -0.107636148
vn 0 1 2.22044605e-16
vn 0 1 2.22044605e-16
vn 0 1 2.22044605e-16
vn 0 1 2.22044605e-16
vn 0 1 2.22044605e-16
vn 0 1 2.22044605e-16
vn 0 1 2.22044605e-16
vn 0 1 2.22044605e-16
vn 0 1 2.22044605e-16
vn 0 1 2.22044605e-16
vn 0 1 2.22044605e-16
vn 0 1 2.22044605e-16
vn 0 1 2.22044605e-16
vn 0 1 2.22044605e-16
vn 0 1 2.22044605e-16
vn 0 1 2.22044605e-16
vn 0 1 2.22044605e-16
vn 0 1 2.22044605e-16
vn 0 1 2.22044605e-16
vn -0.391179104 0.92031457 2.04350885e-16
vn -0.391179155 0.920314549 2.0435088e-16
vn -0.391179155 0.920314549 2.0435088e-16
vn -0.39117913 0.92031456 2.04350883e-16
vn 0 1 2.22044605e-16
vn 0 1 2.22044605e-16
vn 0 1 2.22044605e-16
vn 0 1 2.22044605e-16
vn 0 1 2.22044605e-16
vn 0 0.9895774 -0.144001974
vn 0 1 2.22044605e-16
vn 0 1 2.22044605e-16
vn 0 0.906174946 -0.422903024
vn 0 0.906174946 -0.422903024
vn 0 0.906174946 -0.422903024
vn 0 0.9895774 -0.144001974
vn 0 1 2.22044605e-16
vn 0 1 2.22044605e-16
vn 0 1 2.22044605e-16
vn 0 1 2.22044605e-16
vn 0 1 2.22044605e-16
vn 0 1 2.22044605e-16
vn 0 1 2.22044605e-16
vn 0 1 2.22044605e-16
vn 0 0.9895774 -0.144001974
vn 0 1 2.22044605e-16
vn 0 1 2.22044605e-16
vn 0 1 2.22044605e-16
vn 0 1 2.22044605e-16
vn 0 1 2.22044605e-16
vn 0 1 2.22044605e-16
vn 0 1 2.22044605e-16
vn 0 1 2.22044605e-16
vn 0 1 2.22044605e-16
vn 0 1 2.22044605e-16
vn 0 1 2.22044605e-16
vn 0 1 2.22044605e-16
vn 0 1 2.22044605e-16
vn 0 1 2.22044605e-16
vn 0 1 2.22044605e-16
vn 0 1 2.22044605e-16
vn 0 1 2.22044605e-16
vn 0 1 2.22044605e-16
vn 0 1 2.22044605e-16
vn 0 1 2.22044605e-16
vn 0 1 2.22044605e-16
vn 0 1 2.22044605e-16
vn 0 1 2.22044605e-16
vn 0 1 2.22044605e-16
vn 0 1 2.22044605e-16
vn 0.391179079 0.920314581 2.04350888e-16
vn 0.391179079 0.920314581 2.04350888e-16
vn 0.391179079 0.920314581 2.04350888e-16
vn 0.391179079 0.920314581 2.04350888e-16

g collision_PZ_G_01_submesh_0
usemtl collision_8
f 501/501/501 503/503/503 502/502/502
f 501/501/501 502/502/502 504/504/504
f 505/505/505 507/507/507 506/506/506
f 505/505/505 506/506/506 508/508/508
f 509/509/509 511/511/511 510/510/510
f 509/509/509 510/510/510 512/512/512
f 513/513/513 515/515/515 514/514/514
f 513/513/513 514/514/514 516/516/516
f 517/517/517 519/519/519 518/518/518
f 517/517/517 518/518/518 520/520/520
f 521/521/521 523/523/523 522/522/522
f 521/521/521 522/522/522 524/524/524
f 525/525/525 527/527/527 526/526/526
f 525/525/525 526/526/526 528/528/528
f 529/529/529 531/531/531 530/530/530
f 529/529/529 530/530/530 532/532/532
f 530/530/530 531/531/531 533/533/533
f 530/530/530 533/533/533 534/534/534
f 535/535/535 537/537/537 536/536/536
f 535/535/535 536/536/536 538/538/538
f 539/539/539 541/541/541 540/540/540
f 539/539/539 540/540/540 542/542/542
f 543/543/543 545/545/545 544/544/544
f 543/543/543 544/544/544 546/546/546
f 547/547/547 549/549/549 548/548/548
f 547/547/547 548/548/548 550/550/550
f 551/551/551 553/553/553 552/552/552
f 551/551/551 552/552/552 554/554/554
f 555/555/555 557/557/557 556/556/556
f 555/555/555 556/556/556 558/558/558
f 559/559/559 561/561/561 560/560/560
f 559/559/559 560/560/560 562/562/562
f 563/563/563 565/565/565 564/564/564
f 563/563/563 564/564/564 566/566/566
f 567/567/567 569/569/569 568/568/568
f 567/567/567 568/568/568 570/570/570
f 571/571/571 573/573/573 572/572/572
f 571/571/571 572/572/572 574/574/574
f 575/575/575 577/577/577 576/576/576
f 575/575/575 576/576/576 578/578/578
f 579/579/579 581/581/581 580/580/580
f 579/579/579 580/580/580 582/582/582
f 580/580/580 583/583/583 582/582/582
f 580/580/580 584/584/584 583/583/583
f 585/585/585 587/587/587 586/586/586
f 585/585/585 586/586/586 588/588/588
f 589/589/589 591/591/591 590/590/590
f 589/589/589 590/590/590 592/592/592
f 593/593/593 595/595/595 594/594/594
f 593/593/593 594/594/594 596/596/596
f 597/597/597 599/599/599 598/598/598
f 597/597/597 598/598/598 600/600/600
