{"asset":{"version":"2.0","generator":"Star Warfare Unity lightmap restoration"},"scene":0,"scenes":[{"nodes":[0]}],"nodes":[{"name":"RestoredStage","mesh":0}],"meshes":[{"name":"RestoredStage","primitives":[{"attributes":{"POSITION":0,"NORMAL":1,"TEXCOORD_0":2,"TEXCOORD_1":3},"indices":4,"material":0},{"attributes":{"POSITION":5,"NORMAL":6,"TEXCOORD_0":7,"TEXCOORD_1":8},"indices":9,"material":1},{"attributes":{"POSITION":10,"NORMAL":11,"TEXCOORD_0":12,"TEXCOORD_1":13},"indices":14,"material":2},{"attributes":{"POSITION":15,"NORMAL":16,"TEXCOORD_0":17,"TEXCOORD_1":18},"indices":19,"material":3},{"attributes":{"POSITION":20,"NORMAL":21,"TEXCOORD_0":22,"TEXCOORD_1":23},"indices":24,"material":4},{"attributes":{"POSITION":25,"NORMAL":26,"TEXCOORD_0":27,"TEXCOORD_1":28},"indices":29,"material":5},{"attributes":{"POSITION":30,"NORMAL":31,"TEXCOORD_0":32,"TEXCOORD_1":33},"indices":34,"material":6},{"attributes":{"POSITION":35,"NORMAL":36,"TEXCOORD_0":37,"TEXCOORD_1":38},"indices":39,"material":7}]}],"bufferViews":[{"buffer":0,"byteOffset":0,"byteLength":492},{"buffer":0,"byteOffset":492,"byteLength":492},{"buffer":0,"byteOffset":984,"byteLength":328},{"buffer":0,"byteOffset":1312,"byteLength":328},{"buffer":0,"byteOffset":1640,"byteLength":648},{"buffer":0,"byteOffset":2288,"byteLength":384},{"buffer":0,"byteOffset":2672,"byteLength":384},{"buffer":0,"byteOffset":3056,"byteLength":256},{"buffer":0,"byteOffset":3312,"byteLength":256},{"buffer":0,"byteOffset":3568,"byteLength":192},{"buffer":0,"byteOffset":3760,"byteLength":78768},{"buffer":0,"byteOffset":82528,"byteLength":78768},{"buffer":0,"byteOffset":161296,"byteLength":52512},{"buffer":0,"byteOffset":213808,"byteLength":52512},{"buffer":0,"byteOffset":266320,"byteLength":47592},{"buffer":0,"byteOffset":313912,"byteLength":56712},{"buffer":0,"byteOffset":370624,"byteLength":56712},{"buffer":0,"byteOffset":427336,"byteLength":37808},{"buffer":0,"byteOffset":465144,"byteLength":37808},{"buffer":0,"byteOffset":502952,"byteLength":25224},{"buffer":0,"byteOffset":528176,"byteLength":10320},{"buffer":0,"byteOffset":538496,"byteLength":10320},{"buffer":0,"byteOffset":548816,"byteLength":6880},{"buffer":0,"byteOffset":555696,"byteLength":6880},{"buffer":0,"byteOffset":562576,"byteLength":4656},{"buffer":0,"byteOffset":567232,"byteLength":37284},{"buffer":0,"byteOffset":604516,"byteLength":37284},{"buffer":0,"byteOffset":641800,"byteLength":24856},{"buffer":0,"byteOffset":666656,"byteLength":24856},{"buffer":0,"byteOffset":691512,"byteLength":18936},{"buffer":0,"byteOffset":710448,"byteLength":96},{"buffer":0,"byteOffset":710544,"byteLength":96},{"buffer":0,"byteOffset":710640,"byteLength":64},{"buffer":0,"byteOffset":710704,"byteLength":64},{"buffer":0,"byteOffset":710768,"byteLength":48},{"buffer":0,"byteOffset":710816,"byteLength":4032},{"buffer":0,"byteOffset":714848,"byteLength":4032},{"buffer":0,"byteOffset":718880,"byteLength":2688},{"buffer":0,"byteOffset":721568,"byteLength":2688},{"buffer":0,"byteOffset":724256,"byteLength":1728}],"accessors":[{"bufferView":0,"componentType":5126,"count":41,"type":"VEC3","min":[-128.506912,-5.49533129,-142.343735],"max":[119.882339,231.181946,124.2108]},{"bufferView":1,"componentType":5126,"count":41,"type":"VEC3","min":[-0.923912688,-1.0,-0.99144515],"max":[0.923912688,5.96360187e-08,0.99144515]},{"bufferView":2,"componentType":5126,"count":41,"type":"VEC2"},{"bufferView":3,"componentType":5126,"count":41,"type":"VEC2"},{"bufferView":4,"componentType":5125,"count":162,"type":"SCALAR"},{"bufferView":5,"componentType":5126,"count":32,"type":"VEC3","min":[-19.7955303,10.0580893,-12.7795496],"max":[10.8990078,12.4244518,8.43022442]},{"bufferView":6,"componentType":5126,"count":32,"type":"VEC3","min":[-1.0,0.0,-1.0],"max":[0.0,1.1920929e-07,0.0]},{"bufferView":7,"componentType":5126,"count":32,"type":"VEC2"},{"bufferView":8,"componentType":5126,"count":32,"type":"VEC2"},{"bufferView":9,"componentType":5125,"count":48,"type":"SCALAR"},{"bufferView":10,"componentType":5126,"count":6564,"type":"VEC3","min":[-59.4320564,-0.291925162,-58.1418533],"max":[51.0290184,11.135066,42.8099976]},{"bufferView":11,"componentType":5126,"count":6564,"type":"VEC3","min":[-1.0,-1.0,-1.0],"max":[1.0,1.0,1.0]},{"bufferView":12,"componentType":5126,"count":6564,"type":"VEC2"},{"bufferView":13,"componentType":5126,"count":6564,"type":"VEC2"},{"bufferView":14,"componentType":5125,"count":11898,"type":"SCALAR"},{"bufferView":15,"componentType":5126,"count":4726,"type":"VEC3","min":[-21.3797779,-0.0589712113,-20.5555248],"max":[13.7387619,8.10083485,10.9369144]},{"bufferView":16,"componentType":5126,"count":4726,"type":"VEC3","min":[-0.999824153,-0.999994913,-0.998212139],"max":[0.999777004,0.999489725,0.998870759]},{"bufferView":17,"componentType":5126,"count":4726,"type":"VEC2"},{"bufferView":18,"componentType":5126,"count":4726,"type":"VEC2"},{"bufferView":19,"componentType":5125,"count":6306,"type":"SCALAR"},{"bufferView":20,"componentType":5126,"count":860,"type":"VEC3","min":[-59.5292702,-0.17311272,-59.0669785],"max":[52.1505356,12.2027683,42.0739441]},{"bufferView":21,"componentType":5126,"count":860,"type":"VEC3","min":[-0.995877219,-0.986232103,-0.990756506],"max":[0.984170848,0.959618085,0.994531993]},{"bufferView":22,"componentType":5126,"count":860,"type":"VEC2"},{"bufferView":23,"componentType":5126,"count":860,"type":"VEC2"},{"bufferView":24,"componentType":5125,"count":1164,"type":"SCALAR"},{"bufferView":25,"componentType":5126,"count":3107,"type":"VEC3","min":[-65.8759918,-0.206055522,-64.4999466],"max":[57.47295,32.9219627,59.8674469]},{"bufferView":26,"componentType":5126,"count":3107,"type":"VEC3","min":[-1.0,-1.0,-1.0],"max":[1.0,1.0,1.0]},{"bufferView":27,"componentType":5126,"count":3107,"type":"VEC2"},{"bufferView":28,"componentType":5126,"count":3107,"type":"VEC2"},{"bufferView":29,"componentType":5125,"count":4734,"type":"SCALAR"},{"bufferView":30,"componentType":5126,"count":8,"type":"VEC3","min":[-15.4864082,6.80310154,41.6108322],"max":[6.60281801,7.3009243,42.108654]},{"bufferView":31,"componentType":5126,"count":8,"type":"VEC3","min":[0.0,-0.707106781,-0.707106781],"max":[0.0,-0.707106781,-0.707106781]},{"bufferView":32,"componentType":5126,"count":8,"type":"VEC2"},{"bufferView":33,"componentType":5126,"count":8,"type":"VEC2"},{"bufferView":34,"componentType":5125,"count":12,"type":"SCALAR"},{"bufferView":35,"componentType":5126,"count":336,"type":"VEC3","min":[-44.0277328,1.60119402,-31.4592533],"max":[35.6100159,6.43974304,-20.8326435]},{"bufferView":36,"componentType":5126,"count":336,"type":"VEC3","min":[-0.985854233,-0.250379738,-0.3585535],"max":[0.985854233,0.250379738,0.968157119]},{"bufferView":37,"componentType":5126,"count":336,"type":"VEC2"},{"bufferView":38,"componentType":5126,"count":336,"type":"VEC2"},{"bufferView":39,"componentType":5125,"count":432,"type":"SCALAR"}],"materials":[{"name":"sc_05-Standard_10","pbrMetallicRoughness":{"baseColorFactor":[1.0,1.0,1.0,1.0],"metallicFactor":0.0,"roughnessFactor":1.0,"baseColorTexture":{"index":0}},"doubleSided":false},{"name":"sc_05-Standard_14","pbrMetallicRoughness":{"baseColorFactor":[1.0,1.0,1.0,1.0],"metallicFactor":0.0,"roughnessFactor":1.0,"baseColorTexture":{"index":1}},"doubleSided":true,"alphaMode":"BLEND"},{"name":"sc_05-Standard_2","pbrMetallicRoughness":{"baseColorFactor":[1.0,1.0,1.0,1.0],"metallicFactor":0.0,"roughnessFactor":1.0,"baseColorTexture":{"index":2}},"doubleSided":false},{"name":"sc_05-Standard_3","pbrMetallicRoughness":{"baseColorFactor":[1.0,1.0,1.0,1.0],"metallicFactor":0.0,"roughnessFactor":1.0,"baseColorTexture":{"index":3}},"doubleSided":false},{"name":"sc_05-ent","pbrMetallicRoughness":{"baseColorFactor":[1.0,1.0,1.0,1.0],"metallicFactor":0.0,"roughnessFactor":1.0,"baseColorTexture":{"index":4}},"doubleSided":false},{"name":"sc_05-orig_Standard_1_G_01_","pbrMetallicRoughness":{"baseColorFactor":[1.0,1.0,1.0,1.0],"metallicFactor":0.0,"roughnessFactor":1.0,"baseColorTexture":{"index":4}},"doubleSided":false},{"name":"sc_05-01_-_Default","pbrMetallicRoughness":{"baseColorFactor":[1.0,1.0,1.0,1.0],"metallicFactor":0.0,"roughnessFactor":1.0,"baseColorTexture":{"index":5}},"doubleSided":false},{"name":"sc_05-Standard_1","pbrMetallicRoughness":{"baseColorFactor":[1.0,1.0,1.0,1.0],"metallicFactor":0.0,"roughnessFactor":1.0,"baseColorTexture":{"index":6}},"doubleSided":false}],"images":[{"uri":"sc_sky_line.png"},{"uri":"sc_05_sfx.png"},{"uri":"sc_G_02.png"},{"uri":"sc_C_01.png"},{"uri":"sc05_01.png"},{"uri":"sc_05_sfx03.png"},{"uri":"sc05_sfx01.png"}],"textures":[{"source":0,"sampler":0},{"source":1,"sampler":0},{"source":2,"sampler":0},{"source":3,"sampler":0},{"source":4,"sampler":0},{"source":5,"sampler":0},{"source":6,"sampler":0}],"samplers":[{"magFilter":9729,"minFilter":9987,"wrapS":10497,"wrapT":10497}],"buffers":[{"uri":"stage.bin","byteLength":725984}]}
