# Generated from legacy Unity YAML Mesh assets without Unity.
mtllib ArmorBag_24.mtl

o ArmorBag_24_00_Object05
v 0.0908417706 -0.0212093137 0.0932585765
v 4.12490931e-07 0.265092349 -0.0546133597
v 0.136152969 0.124194638 -0.0491159298
v 7.01133089e-07 -0.014992478 0.135200197
v 0.226188046 0.0303793079 -0.00740457506
v 0.0923319238 -0.297267557 0.0659987503
v 7.20202378e-07 -0.340606726 0.112010287
v 0.231083089 -0.098648919 0.00533432549
v 0.260920521 0.00531331903 -0.0366704019
v 0.249645395 0.113160094 -0.134457936
v 0.256451904 -0.220237881 0.0300251768
v 0.307230531 -0.127165477 -0.0765379879
v 0.136152969 0.124194638 -0.0491159298
v 0.201080368 0.0381222865 -0.14194787
v 0.226188046 0.0303793079 -0.00740457506
v 0.201080368 0.0381222865 -0.14194787
v 0.249645395 0.113160094 -0.134457936
v 0.0825005232 -0.403498463 -0.0584751555
v 7.20202378e-07 -0.340606726 0.112010287
v 0.0923319238 -0.297267557 0.0659987503
v 5.54552415e-07 -0.48538799 -0.0324674967
v 0.168602939 -0.210964973 -0.114679246
v 0.229735507 -0.21668276 -0.066690511
v 0.288860356 -0.127801787 -0.207576395
v 0.229735507 -0.21668276 -0.066690511
v 0.307230531 -0.127165477 -0.0765379879
v 0.168602939 -0.210964973 -0.114679246
v 0.233200385 -0.0710493136 -0.163821469
v 0.231083089 -0.098648919 0.00533432549
v 0.244915361 0.00400337703 -0.173491594
v 0.260920521 0.00531331903 -0.0366704019
v 0.249645395 0.113160094 -0.134457936
v 0.244915361 0.00400337703 -0.173491594
v 0.249645395 0.113160094 -0.134457936
v 0.201080368 0.0381222865 -0.14194787
v 0.233200385 -0.0710493136 -0.163821469
v 3.58550754e-07 0.0171792621 -0.125017188
v 0.136152969 0.124194638 -0.0491159298
v 4.12490931e-07 0.265092349 -0.0546133597
v 0.288860356 -0.127801787 -0.207576395
v 0.168602939 -0.210964973 -0.114679246
v 0.0825005232 -0.403498463 -0.0584751555
v 5.54552415e-07 -0.48538799 -0.0324674967
v 0.307230531 -0.127165477 -0.0765379879
v 0.335830488 -0.21787239 -0.105036974
v 0.256451904 -0.220237881 0.0300251768
v 0.229735507 -0.21668276 -0.066690511
v 0.238260562 -0.360478498 -0.0539358811
v 0.229735507 -0.21668276 -0.066690511
v 0.256451904 -0.220237881 0.0300251768
v 0.360168097 -0.242058052 -0.0635691517
v 0.426635475 -0.00297363711 -0.123028953
v 0.431530431 -0.0328187497 -0.161541653
v 0.34985573 -0.107926417 0.0363370276
v 0.1654407 -0.467729237 0.0635449156
v 0.167860851 -0.197250192 0.199552175
v 0.313143101 -0.0931945893 -0.00245117041
v 0.238260562 -0.360478498 -0.0539358811
v 0.126390615 -0.439942574 -0.00206600956
v 0.125070752 -0.179478044 0.132023955
v 0.335830488 -0.21787239 -0.105036974
v 0.125070752 -0.179478044 0.132023955
v 0.1654407 -0.467729237 0.0635449156
v 0.238260562 -0.360478498 -0.0539358811
v 0.256451904 -0.220237881 0.0300251768
v 0.126390615 -0.439942574 -0.00206600956
v 0.125070752 -0.179478044 0.132023955
v 0.313143101 -0.0931945893 -0.00245117041
v 0.335830488 -0.21787239 -0.105036974
v 0.426635475 -0.00297363711 -0.123028953
v 0.431530431 -0.0328187497 -0.161541653
v 0.405020669 -0.16250171 0.00638753949
v 0.43582063 -0.205047082 -0.0300687216
v 0.335858305 -0.39579702 0.089504782
v 0.345723883 -0.404050718 0.0408891787
v 0.21527083 -0.533638281 0.149625369
v 0.454685578 -0.197975752 -0.0637620228
v 0.437993097 -0.147612428 -0.0356838262
v 0.433950577 -0.197425808 -0.0872937993
v 0.41734061 -0.147117329 -0.0591504758
v 0.437993097 -0.147612428 -0.0356838262
v 0.418770586 -0.204597354 -0.0494401948
v 0.21527083 -0.533638281 0.149625369
v 0.21527083 -0.533638281 0.149625369
v 0.387860639 -0.162107237 -0.0131138003
v 0.41734061 -0.147117329 -0.0591504758
v 0.437993097 -0.147612428 -0.0356838262
v 0.318794525 -0.39540258 0.0700197143
v 0.345723883 -0.404050718 0.0408891787
v 0.418770586 -0.204597354 -0.0494401948
v 0.21527083 -0.533638281 0.149625369
v 0.387860639 -0.162107237 -0.0131138003
v 0.433950577 -0.197425808 -0.0872937993
v 0.41734061 -0.147117329 -0.0591504758
v 0.256451904 -0.220237881 0.0300251768
v 0.229735507 -0.21668276 -0.066690511
v 0.0923319238 -0.297267557 0.0659987503
v -0.0908404748 -0.0212093301 0.0932589023
v 4.12490931e-07 0.265092349 -0.0546133597
v 7.01133089e-07 -0.014992478 0.135200197
v -0.136152092 0.124194606 -0.0491154411
v -0.226187047 0.0303792423 -0.00740376065
v -0.0923306164 -0.29726759 0.0659990764
v 7.20202378e-07 -0.340606726 0.112010287
v -0.231081989 -0.0986489846 0.00533514076
v -0.260919592 0.00531323707 -0.036669504
v -0.249644746 0.113160028 -0.13445704
v -0.256450734 -0.220237963 0.030026074
v -0.307229609 -0.127165567 -0.0765369269
v -0.136152092 0.124194606 -0.0491154411
v -0.226187047 0.0303792423 -0.00740376065
v -0.20107972 0.038122221 -0.141947137
v -0.20107972 0.038122221 -0.141947137
v -0.249644746 0.113160028 -0.13445704
v -0.0824995162 -0.403498463 -0.0584748311
v 7.20202378e-07 -0.340606726 0.112010287
v 5.54552415e-07 -0.48538799 -0.0324674967
v -0.0923306164 -0.29726759 0.0659990764
v -0.168602122 -0.210965022 -0.114678674
v -0.229734583 -0.216682842 -0.066689696
v -0.288859785 -0.127801877 -0.207575376
v -0.229734583 -0.216682842 -0.066689696
v -0.168602122 -0.210965022 -0.114678674
v -0.307229609 -0.127165567 -0.0765369269
v -0.233199741 -0.0710493791 -0.163820653
v -0.231081989 -0.0986489846 0.00533514076
v -0.244914784 0.00400329508 -0.173490737
v -0.260919592 0.00531323707 -0.036669504
v -0.249644746 0.113160028 -0.13445704
v -0.244914784 0.00400329508 -0.173490737
v -0.20107972 0.038122221 -0.141947137
v -0.249644746 0.113160028 -0.13445704
v -0.233199741 -0.0710493791 -0.163820653
v 3.58550754e-07 0.0171792621 -0.125017188
v -0.136152092 0.124194606 -0.0491154411
v 4.12490931e-07 0.265092349 -0.0546133597
v -0.288859785 -0.127801877 -0.207575376
v -0.168602122 -0.210965022 -0.114678674
v -0.0824995162 -0.403498463 -0.0584748311
v 5.54552415e-07 -0.48538799 -0.0324674967
v -0.307229609 -0.127165567 -0.0765369269
v -0.256450734 -0.220237963 0.030026074
v -0.335829637 -0.217872488 -0.105035752
v -0.229734583 -0.216682842 -0.066689696
v -0.238259538 -0.360478564 -0.0539350646
v -0.256450734 -0.220237963 0.030026074
v -0.229734583 -0.216682842 -0.066689696
v -0.360167107 -0.242058151 -0.0635678489
v -0.426634692 -0.00297375185 -0.123027445
v -0.349854526 -0.107926515 0.0363382511
v -0.431529787 -0.0328188808 -0.161540105
v -0.165439361 -0.46772927 0.0635454869
v -0.167859226 -0.197250241 0.199552747
v -0.313142035 -0.0931946876 -0.00245003086
v -0.238259538 -0.360478564 -0.0539350646
v -0.126389451 -0.439942607 -0.00206552255
v -0.125069319 -0.179478094 0.132024364
v -0.335829637 -0.217872488 -0.105035752
v -0.125069319 -0.179478094 0.132024364
v -0.165439361 -0.46772927 0.0635454869
v -0.238259538 -0.360478564 -0.0539350646
v -0.126389451 -0.439942607 -0.00206552255
v -0.256450734 -0.220237963 0.030026074
v -0.125069319 -0.179478094 0.132024364
v -0.313142035 -0.0931946876 -0.00245003086
v -0.335829637 -0.217872488 -0.105035752
v -0.426634692 -0.00297375185 -0.123027445
v -0.431529787 -0.0328188808 -0.161540105
v -0.405019536 -0.162501825 0.00638900505
v -0.335856895 -0.395797118 0.089506003
v -0.435819569 -0.205047213 -0.0300671732
v -0.345722612 -0.404050816 0.0408904015
v -0.215269246 -0.533638347 0.149626104
v -0.454684588 -0.1979759 -0.0637603935
v -0.437992102 -0.147612559 -0.0356822774
v -0.433949657 -0.197425939 -0.0872922512
v -0.417339619 -0.14711746 -0.059149008
v -0.437992102 -0.147612559 -0.0356822774
v -0.418769594 -0.204597485 -0.0494387269
v -0.215269246 -0.533638347 0.149626104
v -0.387859575 -0.162107352 -0.0131124152
v -0.215269246 -0.533638347 0.149626104
v -0.417339619 -0.14711746 -0.059149008
v -0.437992102 -0.147612559 -0.0356822774
v -0.318793118 -0.395402678 0.0700208548
v -0.418769594 -0.204597485 -0.0494387269
v -0.345722612 -0.404050816 0.0408904015
v -0.215269246 -0.533638347 0.149626104
v -0.387859575 -0.162107352 -0.0131124152
v -0.433949657 -0.197425939 -0.0872922512
v -0.417339619 -0.14711746 -0.059149008
v -0.256450734 -0.220237963 0.030026074
v -0.0923306164 -0.29726759 0.0659990764
v -0.229734583 -0.216682842 -0.066689696
vt 0.135406762 0.581283092
vt 0.113218583 0.930293739
vt 0.239003986 0.780366302
vt 0.0288092718 0.590359867
vt 0.305496365 0.642256498
vt 0.143311262 0.257943869
vt 0.0166112594 0.234946698
vt 0.313373685 0.477466345
vt 0.347190797 0.606366634
vt 0.430713236 0.710942864
vt 0.302693784 0.334154308
vt 0.422474205 0.450511366
vt 0.239003986 0.780366302
vt 0.358046293 0.762231767
vt 0.305496365 0.642256498
vt 0.358046293 0.762231767
vt 0.43119058 0.73458153
vt 0.206453443 0.124292351
vt 0.0166112594 0.234946698
vt 0.143311262 0.257943869
vt 0.112379715 0.0397398174
vt 0.300727367 0.218900204
vt 0.254422098 0.268927634
vt 0.522731066 0.487513751
vt 0.459132791 0.341210604
vt 0.422474205 0.450511366
vt 0.529062808 0.320862353
vt 0.463457227 0.544681549
vt 0.313373685 0.477466345
vt 0.461164117 0.614769578
vt 0.347190797 0.606366634
vt 0.430713236 0.710942864
vt 0.771859825 0.181466013
vt 0.83811307 0.175717577
vt 0.791373014 0.149808243
vt 0.725995421 0.17416802
vt 0.773814738 0.024564134
vt 0.84354198 0.0991431028
vt 0.920666814 0.0118349446
vt 0.69132179 0.214193776
vt 0.634747744 0.129232287
vt 0.533179104 0.0701965839
vt 0.484691352 0.0178895853
vt 0.289627492 0.1967531
vt 0.334350705 0.157101393
vt 0.261861682 0.108455315
vt 0.370566547 0.220837265
vt 0.426251888 0.184317619
vt 0.370566547 0.220837265
vt 0.43624112 0.240236551
vt 0.414072037 0.941085458
vt 0.229663983 0.863963068
vt 0.2350218 0.903480351
vt 0.367259711 0.825093389
vt 0.651770055 0.925278127
vt 0.530960917 0.75020504
vt 0.352606595 0.788353801
vt 0.544208229 0.963677645
vt 0.671043813 0.932687879
vt 0.543790281 0.715210497
vt 0.39684543 0.972285688
vt 0.543790281 0.715210497
vt 0.651770055 0.925278127
vt 0.531639576 0.084561497
vt 0.458939552 0.122259155
vt 0.603879213 0.120886937
vt 0.483637989 0.225158229
vt 0.38473618 0.13606596
vt 0.431737006 0.0688697994
vt 0.312446892 0.0824218839
vt 0.322374135 0.0623460524
vt 0.86085248 0.89748472
vt 0.916535258 0.883849502
vt 0.908095598 0.652847052
vt 0.949441016 0.662896335
vt 0.868439078 0.472003073
vt 0.935468614 0.907389522
vt 0.890017211 0.929257691
vt 0.951204836 0.92101258
vt 0.89052856 0.948571086
vt 0.890017211 0.929257691
vt 0.950436294 0.958777249
vt 0.868439078 0.472003073
vt 0.868439078 0.472003073
vt 0.842841804 0.905707955
vt 0.89052856 0.948571086
vt 0.890017211 0.929257691
vt 0.613947153 0.307331443
vt 0.64236629 0.320777893
vt 0.606096745 0.505882621
vt 0.607627153 0.150845349
vt 0.555200756 0.510570467
vt 0.626135528 0.523203969
vt 0.574072003 0.534379601
vt 0.43624112 0.240236551
vt 0.370566547 0.220837265
vt 0.392888099 0.310375512
vt 0.135406762 0.581283092
vt 0.113218583 0.930293739
vt 0.0288092718 0.590359867
vt 0.239003986 0.780366302
vt 0.305496365 0.642256498
vt 0.143311262 0.257943869
vt 0.0166112594 0.234946698
vt 0.313373685 0.477466345
vt 0.347190797 0.606366634
vt 0.430713236 0.710942864
vt 0.302693784 0.334154308
vt 0.422474205 0.450511366
vt 0.239003986 0.780366302
vt 0.305496365 0.642256498
vt 0.358046293 0.762231767
vt 0.358046293 0.762231767
vt 0.43119058 0.73458153
vt 0.206453443 0.124292351
vt 0.0166112594 0.234946698
vt 0.112379715 0.0397398174
vt 0.143311262 0.257943869
vt 0.300727367 0.218900204
vt 0.254422098 0.268927634
vt 0.522731066 0.487513751
vt 0.459132791 0.341210604
vt 0.529062808 0.320862353
vt 0.422474205 0.450511366
vt 0.463457227 0.544681549
vt 0.313373685 0.477466345
vt 0.461164117 0.614769578
vt 0.347190797 0.606366634
vt 0.430713236 0.710942864
vt 0.771859825 0.181466013
vt 0.791373014 0.149808243
vt 0.83811307 0.175717577
vt 0.725995421 0.17416802
vt 0.773814738 0.024564134
vt 0.84354198 0.0991431028
vt 0.920666814 0.0118349446
vt 0.69132179 0.214193776
vt 0.634747744 0.129232287
vt 0.533179104 0.0701965839
vt 0.484691352 0.0178895853
vt 0.289627492 0.1967531
vt 0.261861682 0.108455315
vt 0.334350705 0.157101393
vt 0.370566547 0.220837265
vt 0.426251888 0.184317619
vt 0.43624112 0.240236551
vt 0.370566547 0.220837265
vt 0.414072037 0.941085458
vt 0.229663983 0.863963068
vt 0.367259711 0.825093389
vt 0.2350218 0.903480351
vt 0.651770055 0.925278127
vt 0.530960917 0.75020504
vt 0.352606595 0.788353801
vt 0.544208229 0.963677645
vt 0.671043813 0.932687879
vt 0.543790281 0.715210497
vt 0.39684543 0.972285688
vt 0.543790281 0.715210497
vt 0.651770055 0.925278127
vt 0.531639576 0.084561497
vt 0.603879213 0.120886937
vt 0.458939552 0.122259155
vt 0.483637989 0.225158229
vt 0.38473618 0.13606596
vt 0.431737006 0.0688697994
vt 0.312446892 0.0824218839
vt 0.322374135 0.0623460524
vt 0.86085248 0.89748472
vt 0.908095598 0.652847052
vt 0.916535258 0.883849502
vt 0.949441016 0.662896335
vt 0.868439078 0.472003073
vt 0.935468614 0.907389522
vt 0.890017211 0.929257691
vt 0.951204836 0.92101258
vt 0.89052856 0.948571086
vt 0.890017211 0.929257691
vt 0.950436294 0.958777249
vt 0.868439078 0.472003073
vt 0.842841804 0.905707955
vt 0.868439078 0.472003073
vt 0.89052856 0.948571086
vt 0.890017211 0.929257691
vt 0.613947153 0.307331443
vt 0.606096745 0.505882621
vt 0.64236629 0.320777893
vt 0.607627153 0.150845349
vt 0.555200756 0.510570467
vt 0.626135528 0.523203969
vt 0.574072003 0.534379601
vt 0.43624112 0.240236551
vt 0.392888099 0.310375512
vt 0.370566547 0.220837265
vn 0.476032051 0.265925236 0.838258466
vn 0.452454886 0.518358853 0.7256643
vn 0.431951891 0.558670887 0.708028533
vn 0.443154754 0.139441218 0.885533744
vn 0.522531275 0.37841473 0.764044082
vn 0.410165924 -0.0258734786 0.911643833
vn 0.468581373 -0.0627572996 0.881188412
vn 0.492180935 0.0764431271 0.867129964
vn 0.735734109 0.326972894 0.593113858
vn 0.740625097 0.492182895 0.457417166
vn 0.382434972 0.259851501 0.886690865
vn 0.749730613 0.278340591 0.600358662
vn 0.739677592 0.665530161 -0.099732963
vn 0.739677592 0.665530161 -0.099732963
vn 0.122215996 0.991911444 0.034277362
vn -0.833288265 0.520797071 0.185475275
vn -0.833288265 0.520797071 0.185475275
vn 0.776512167 -0.488801483 0.397620379
vn 0.628756118 -0.579812435 0.518153726
vn 0.739304758 -0.64705639 0.186404139
vn 0.678758387 -0.518727414 0.519816239
vn 0.785651096 -0.617582786 0.0366586789
vn 0.193322869 -0.914565155 -0.355241954
vn 0.814803182 -0.493399124 -0.304389684
vn 0.551291985 -0.79035023 -0.267252055
vn 0.928598108 0.370645574 -0.0180945246
vn 0.260502633 -0.862138441 -0.434575295
vn 0.818926598 0.573216052 0.0279747175
vn 0.984583598 0.174577148 0.0108608837
vn 0.983682632 -0.159366672 -0.0834909772
vn 0.980508905 -0.160614138 -0.113160882
vn 0.993227966 -0.00149673353 -0.116172149
vn -0.478577228 0.179723971 -0.859455136
vn -0.371029916 0.326891217 -0.869182911
vn -0.187590657 0.414323976 -0.890587103
vn -0.0910128649 0.322197892 -0.942287205
vn -0.133504189 0.018800827 -0.990869901
vn 0.132323508 0.455894535 -0.88014241
vn 0.306110179 0.2600697 -0.915783986
vn -0.34647518 -0.164408751 -0.923539231
vn -0.304601219 -0.26654116 -0.914425452
vn -0.168860604 -0.186214675 -0.967889555
vn -0.129171512 -0.179591284 -0.975223919
vn 0.902972211 0.358931502 -0.236240054
vn 0.186050166 0.102754195 -0.97715245
vn 0.85592855 0.111212315 0.504993205
vn -0.339806572 0.00934505018 -0.940448916
vn -0.857440315 -0.0956814905 -0.50560969
vn -0.963671415 -0.0336297993 0.26496498
vn -0.963671415 -0.0336297993 0.26496498
vn 0.881584871 -0.420404777 0.214634432
vn 0.903327725 0.011703896 0.428791372
vn 0.89847071 -0.395589271 -0.190419304
vn 0.77020444 -0.169107317 0.614969784
vn 0.653469044 -0.511714471 0.557787154
vn 0.389289841 0.00877942817 0.921073472
vn -0.139475725 0.904440664 0.40315457
vn 0.545919622 -0.723713279 -0.422150277
vn -0.74623601 -0.643138659 0.171768688
vn -0.862342792 -0.228154315 0.45200721
vn 0.553599135 -0.53588611 -0.637459077
vn -0.171434723 0.920582023 0.35091149
vn -0.876235375 -0.224068846 0.426620113
vn -0.621086699 0.460323398 -0.634313552
vn -0.617159372 0.319799178 -0.718917795
vn -0.531655478 0.421992981 -0.734346224
vn -0.531032861 0.285118804 -0.797941958
vn -0.759028213 0.211422146 -0.615773374
vn -0.823287366 0.285373165 -0.490673079
vn -0.815957805 0.303590986 -0.49198107
vn -0.866514854 0.335176728 -0.369876424
vn 0.22024158 0.36461523 0.904737189
vn 0.858095887 -0.136632406 0.494977812
vn 0.686924499 -0.0652469688 0.723793869
vn 0.873545211 -0.472201486 0.11808692
vn 0.780142177 -0.57114783 0.255280903
vn 0.950954215 -0.27698788 -0.137709096
vn 0.821731503 0.0245800148 0.5693445
vn 0.46485977 -0.473981122 -0.747828383
vn 0.0840249996 0.507379341 -0.857616466
vn 0.644842452 0.523959419 -0.556457312
vn -0.918692651 -0.0879055797 -0.385066776
vn 0.130596212 0.298156056 0.945540901
vn -0.627387732 0.538028612 0.562947463
vn -0.594549949 0.599965752 0.535305012
vn -0.192933397 0.962696636 0.189715289
vn -0.192577358 0.962752161 0.189795251
vn -0.650714412 -0.0556998387 -0.757276886
vn -0.808155583 0.0870441724 -0.582501387
vn -0.808529506 0.0195319651 -0.588131397
vn -0.520449752 -0.0986748514 -0.848171757
vn -0.628737324 -0.102551552 -0.770825893
vn -0.923562921 0.186510462 -0.335030416
vn -0.819039325 -0.115321065 -0.562028145
vn 0.39479446 -0.907663818 -0.142420954
vn 0.39479446 -0.907663818 -0.142420954
vn 0.39479446 -0.907663818 -0.142420954
vn -0.476029318 0.265925175 0.838260037
vn -0.452452546 0.518358899 0.725665726
vn -0.44315179 0.13944113 0.88553524
vn -0.431949614 0.558670942 0.708029879
vn -0.522528969 0.378414598 0.764045724
vn -0.410162843 -0.0258736114 0.911645215
vn -0.468578419 -0.0627574655 0.881189972
vn -0.492178162 0.0764429646 0.867131553
vn -0.735732706 0.326972512 0.593115807
vn -0.740624118 0.492182566 0.457419105
vn -0.382432135 0.2598515 0.886692088
vn -0.749729075 0.278340596 0.600360581
vn -0.739678067 0.665529916 -0.0997310735
vn -0.122216117 0.99191142 0.0342776361
vn -0.739678067 0.665529916 -0.0997310735
vn 0.833288703 0.520797156 0.185473073
vn 0.833288703 0.520797156 0.185473073
vn -0.776510833 -0.488801847 0.397622535
vn -0.628754262 -0.579812816 0.518155552
vn -0.678756548 -0.518727837 0.519818219
vn -0.739303961 -0.647056769 0.186405982
vn -0.785650733 -0.617583133 0.0366605987
vn -0.193323743 -0.914565161 -0.355241463
vn -0.814803913 -0.493399231 -0.304387553
vn -0.55129271 -0.790350188 -0.267250686
vn -0.260503867 -0.862138384 -0.434574669
vn -0.92859829 0.370645237 -0.0180920842
vn -0.818926862 0.573215571 0.0279768449
vn -0.98458368 0.174576525 0.0108634301
vn -0.983682776 -0.159367118 -0.083488435
vn -0.980509133 -0.16061453 -0.113158349
vn -0.993228264 -0.00149695944 -0.116169593
vn 0.47857466 0.179724319 -0.859456493
vn 0.187587398 0.414324208 -0.890587682
vn 0.371027264 0.326891491 -0.869183941
vn 0.091009472 0.322198093 -0.942287464
vn 0.133500661 0.0188008963 -0.990870375
vn -0.132326792 0.45589441 -0.880141981
vn -0.306113437 0.260069537 -0.915782944
vn 0.346472062 -0.164408595 -0.923540429
vn 0.304598315 -0.266541158 -0.91442642
vn 0.168857257 -0.186214739 -0.967890127
vn 0.129167685 -0.179591277 -0.975224427
vn -0.902972911 0.358931254 -0.236237755
vn -0.855927105 0.11121266 0.504995579
vn -0.18605387 0.102754427 -0.977151721
vn 0.339803183 0.00934506526 -0.94045014
vn 0.857438944 -0.0956810394 -0.5056121
vn 0.963672109 -0.0336293869 0.264962507
vn 0.963672109 -0.0336293869 0.264962507
vn -0.881584166 -0.420405001 0.214636888
vn -0.903326485 0.0117036247 0.428793992
vn -0.770202591 -0.169107666 0.614972005
vn -0.898471345 -0.395589339 -0.190416169
vn -0.653467166 -0.511714806 0.557789047
vn -0.38928674 0.0087792021 0.921074785
vn 0.139476962 0.904440649 0.403154176
vn -0.545920937 -0.723713249 -0.422148627
vn 0.7462366 -0.643138449 0.171766913
vn 0.862344089 -0.228153988 0.452004901
vn -0.553601283 -0.535886095 -0.637457224
vn 0.171435919 0.92058202 0.350910915
vn 0.876236477 -0.224068557 0.426618001
vn 0.621084893 0.460323815 -0.634315018
vn 0.531653066 0.421993238 -0.734347822
vn 0.617157013 0.319799495 -0.718919679
vn 0.531030078 0.285119009 -0.797943737
vn 0.759026364 0.211422455 -0.615775547
vn 0.823285897 0.285373388 -0.490675412
vn 0.815956342 0.303591113 -0.491983419
vn 0.866513443 0.335176645 -0.369879805
vn -0.220238266 0.364615398 0.904737927
vn -0.686922291 -0.0652472532 0.723795939
vn -0.858094535 -0.136632783 0.494980053
vn -0.873544787 -0.472201686 0.118089256
vn -0.780141264 -0.571148132 0.255283019
vn -0.950954472 -0.276988065 -0.137706951
vn -0.821729965 0.0245793371 0.56934675
vn -0.464862466 -0.473981148 -0.74782669
vn -0.0840289171 0.507378802 -0.857616401
vn -0.644843878 0.523958472 -0.556456551
vn 0.918691681 -0.0879059085 -0.385069016
vn -0.130592296 0.298156262 0.945541377
vn 0.594552176 0.599965645 0.535302657
vn 0.627390041 0.538028549 0.562944951
vn 0.192933772 0.962696701 0.189714579
vn 0.192577415 0.962752275 0.189794614
vn 0.650712105 -0.0556996277 -0.757278884
vn 0.808527765 0.0195321451 -0.588133784
vn 0.808153562 0.0870439762 -0.58250422
vn 0.52044707 -0.0986746842 -0.848173422
vn 0.628735284 -0.10255115 -0.77082761
vn 0.92356208 0.18651096 -0.335032455
vn 0.819038183 -0.115321288 -0.562029764
vn -0.394794632 -0.907663912 -0.142419878
vn -0.394794632 -0.907663912 -0.142419878
vn -0.394794632 -0.907663912 -0.142419878

g ArmorBag_24_00_Object05_submesh_0
usemtl _bag25-Material_1_
f 1/1/1 3/3/3 2/2/2
f 1/1/1 2/2/2 4/4/4
f 3/3/3 1/1/1 5/5/5
f 4/4/4 6/6/6 1/1/1
f 4/4/4 7/7/7 6/6/6
f 8/8/8 5/5/5 1/1/1
f 8/8/8 1/1/1 6/6/6
f 8/8/8 9/9/9 5/5/5
f 10/10/10 5/5/5 9/9/9
f 6/6/6 11/11/11 8/8/8
f 8/8/8 11/11/11 12/12/12
f 13/13/13 15/15/15 14/14/14
f 16/16/16 15/15/15 17/17/17
f 18/18/18 20/20/20 19/19/19
f 18/18/18 19/19/19 21/21/21
f 22/22/22 20/20/20 18/18/18
f 22/22/22 23/23/23 20/20/20
f 24/24/24 26/26/26 25/25/25
f 24/24/24 25/25/25 27/27/27
f 28/28/28 26/26/26 24/24/24
f 28/28/28 29/29/29 26/26/26
f 30/30/30 29/29/29 28/28/28
f 30/30/30 31/31/31 29/29/29
f 32/32/32 31/31/31 30/30/30
f 33/33/33 35/35/35 34/34/34
f 35/35/35 33/33/33 36/36/36
f 37/37/37 35/35/35 36/36/36
f 37/37/37 38/38/38 35/35/35
f 39/39/39 38/38/38 37/37/37
f 37/37/37 36/36/36 40/40/40
f 37/37/37 40/40/40 41/41/41
f 37/37/37 41/41/41 42/42/42
f 43/43/43 37/37/37 42/42/42
f 44/44/44 46/46/46 45/45/45
f 44/44/44 45/45/45 47/47/47
f 47/47/47 45/45/45 48/48/48
f 48/48/48 50/50/50 49/49/49
f 51/51/51 53/53/53 52/52/52
f 51/51/51 52/52/52 54/54/54
f 55/55/55 51/51/51 54/54/54
f 55/55/55 54/54/54 56/56/56
f 52/52/52 57/57/57 54/54/54
f 57/57/57 56/56/56 54/54/54
f 55/55/55 58/58/58 51/51/51
f 55/55/55 59/59/59 58/58/58
f 56/56/56 60/60/60 55/55/55
f 51/51/51 61/61/61 53/53/53
f 58/58/58 61/61/61 51/51/51
f 57/57/57 62/62/62 56/56/56
f 60/60/60 59/59/59 63/63/63
f 64/64/64 66/66/66 65/65/65
f 66/66/66 67/67/67 65/65/65
f 67/67/67 68/68/68 65/65/65
f 68/68/68 69/69/69 65/65/65
f 70/70/70 69/69/69 68/68/68
f 70/70/70 71/71/71 69/69/69
f 72/72/72 74/74/74 73/73/73
f 73/73/73 74/74/74 75/75/75
f 75/75/75 74/74/74 76/76/76
f 75/75/75 77/77/77 73/73/73
f 73/73/73 78/78/78 72/72/72
f 73/73/73 77/77/77 78/78/78
f 79/79/79 77/77/77 75/75/75
f 77/77/77 79/79/79 80/80/80
f 77/77/77 80/80/80 81/81/81
f 79/79/79 82/82/82 80/80/80
f 72/72/72 83/83/83 74/74/74
f 72/72/72 85/85/85 84/84/84
f 86/86/86 85/85/85 72/72/72
f 86/86/86 72/72/72 87/87/87
f 88/88/88 90/90/90 89/89/89
f 88/88/88 89/89/89 91/91/91
f 88/88/88 92/92/92 90/90/90
f 88/88/88 91/91/91 92/92/92
f 93/93/93 89/89/89 90/90/90
f 94/94/94 90/90/90 92/92/92
f 95/95/95 97/97/97 96/96/96
f 98/98/98 100/100/100 99/99/99
f 98/98/98 99/99/99 101/101/101
f 101/101/101 102/102/102 98/98/98
f 100/100/100 98/98/98 103/103/103
f 100/100/100 103/103/103 104/104/104
f 105/105/105 98/98/98 102/102/102
f 105/105/105 103/103/103 98/98/98
f 105/105/105 102/102/102 106/106/106
f 107/107/107 106/106/106 102/102/102
f 103/103/103 105/105/105 108/108/108
f 105/105/105 109/109/109 108/108/108
f 110/110/110 112/112/112 111/111/111
f 113/113/113 114/114/114 111/111/111
f 115/115/115 117/117/117 116/116/116
f 115/115/115 116/116/116 118/118/118
f 119/119/119 115/115/115 118/118/118
f 119/119/119 118/118/118 120/120/120
f 121/121/121 123/123/123 122/122/122
f 121/121/121 122/122/122 124/124/124
f 125/125/125 121/121/121 124/124/124
f 125/125/125 124/124/124 126/126/126
f 127/127/127 125/125/125 126/126/126
f 127/127/127 126/126/126 128/128/128
f 129/129/129 127/127/127 128/128/128
f 130/130/130 132/132/132 131/131/131
f 131/131/131 133/133/133 130/130/130
f 134/134/134 133/133/133 131/131/131
f 134/134/134 131/131/131 135/135/135
f 136/136/136 134/134/134 135/135/135
f 134/134/134 137/137/137 133/133/133
f 134/134/134 138/138/138 137/137/137
f 134/134/134 139/139/139 138/138/138
f 140/140/140 139/139/139 134/134/134
f 141/141/141 143/143/143 142/142/142
f 141/141/141 144/144/144 143/143/143
f 144/144/144 145/145/145 143/143/143
f 145/145/145 147/147/147 146/146/146
f 148/148/148 150/150/150 149/149/149
f 148/148/148 149/149/149 151/151/151
f 152/152/152 150/150/150 148/148/148
f 152/152/152 153/153/153 150/150/150
f 149/149/149 150/150/150 154/154/154
f 154/154/154 150/150/150 153/153/153
f 152/152/152 148/148/148 155/155/155
f 152/152/152 155/155/155 156/156/156
f 153/153/153 152/152/152 157/157/157
f 148/148/148 151/151/151 158/158/158
f 155/155/155 148/148/148 158/158/158
f 154/154/154 153/153/153 159/159/159
f 160/160/160 156/156/156 157/157/157
f 161/161/161 163/163/163 162/162/162
f 162/162/162 163/163/163 164/164/164
f 164/164/164 163/163/163 165/165/165
f 165/165/165 163/163/163 166/166/166
f 167/167/167 165/165/165 166/166/166
f 167/167/167 166/166/166 168/168/168
f 169/169/169 171/171/171 170/170/170
f 171/171/171 172/172/172 170/170/170
f 172/172/172 173/173/173 170/170/170
f 172/172/172 171/171/171 174/174/174
f 171/171/171 169/169/169 175/175/175
f 171/171/171 175/175/175 174/174/174
f 176/176/176 172/172/172 174/174/174
f 174/174/174 177/177/177 176/176/176
f 174/174/174 178/178/178 177/177/177
f 176/176/176 177/177/177 179/179/179
f 169/169/169 170/170/170 180/180/180
f 169/169/169 182/182/182 181/181/181
f 183/183/183 169/169/169 181/181/181
f 183/183/183 184/184/184 169/169/169
f 185/185/185 187/187/187 186/186/186
f 185/185/185 188/188/188 187/187/187
f 185/185/185 186/186/186 189/189/189
f 185/185/185 189/189/189 188/188/188
f 190/190/190 186/186/186 187/187/187
f 191/191/191 189/189/189 186/186/186
f 192/192/192 194/194/194 193/193/193
