# Generated from legacy Unity YAML Mesh assets without Unity.
mtllib collision.mtl

o collision_ground_01
v 61.2800197 0.166840078 40.8989755
v 53.8037871 0.166840078 43.7673675
v 53.8037871 0.166840078 40.898975
v 61.2800197 0.166840078 43.7673675
v 47.7796744 0.166840078 43.7673675
v 47.7796764 0.166840078 40.8996521
v 61.2800273 0.166840078 51.8196641
v 53.8037891 0.166840078 51.8196622
v 34.8915757 0.166840078 43.7673675
v 47.7796744 0.166840078 51.8196622
v 34.8915757 0.166840078 51.8196641
v 34.8933801 0.166840078 40.9037458
v 47.7796744 0.166840078 61.960972
v 34.8915748 0.166840078 61.960972
v 61.2800273 0.166840078 61.960972
v 53.8037871 0.166840078 61.960972
v 53.8037871 0.166840078 72.1022798
v 61.2800197 0.166840078 72.1022798
v 47.7796744 0.166840078 72.1022798
v 34.8915748 0.166840078 72.1022798
v 60.6666621 0.12801552 40.898975
v 53.8037871 0.166840078 40.898975
v 53.8037871 0.12801552 40.898975
v 61.2800197 0.166840078 40.8989755
v 47.7796764 0.166840078 40.8996521
v 47.7796744 0.12801552 40.8996521
v 34.8933801 0.166840078 40.9037458
v 34.8933801 0.12801552 40.9037458
v 34.8933801 0.12801552 40.9037458
v 34.8915757 0.166840078 43.7673675
v 34.8915757 0.12801552 43.7673675
v 34.8933801 0.166840078 40.9037458
v 34.8915757 0.166840078 51.8196641
v 34.8915757 0.12801552 51.8196641
v 34.8915748 0.166840078 61.960972
v 34.8915757 0.12801552 61.4976655
v 34.8915748 0.166840078 72.1022798
v 34.8915757 0.12801552 71.1756669
v 53.7375869 0.00417089652 36.2559511
v 47.7373981 0.00417089652 40.007208
v 47.7373981 0.00417089652 36.2559511
v 53.7375869 0.00417089652 40.007208
v 37.7276038 0.00417089652 40.007208
v 37.7276038 0.00417089652 36.2559511
v 53.7375869 0.00417089652 43.758465
v 65.9003886 0.00417089652 43.758465
v 65.9003886 0.00417089652 40.007208
v 47.7373981 0.00417089652 43.758465
v 37.7276038 0.00417089652 43.758465
v 47.7374 0.00417089652 48.2585565
v 37.7276038 0.00417089652 48.2585565
v 33.4643215 0.0973565597 43.758465
v 33.4634713 0.08038521 40.007208
v 47.7374 0.00417089652 52.7586481
v 37.7276038 0.00417089652 52.7586481
v 37.7276038 0.00417089652 62.0072996
v 47.7374 0.00417089652 62.0072996
v 47.7374 0.00417089652 68.5958368
v 37.7276038 0.00417089652 68.5958368
v 33.4684552 0.00417089652 62.0072996
v 33.467853 0.0457408447 68.5958368
v 37.7276038 0.00417089652 70.7920152
v 33.46845 0.0873107929 70.7920152
v 47.7373981 0.00417089652 70.7920152
v 47.7373962 0.00417089652 79.5767328
v 37.7276048 0.00417089652 79.5767328
v 33.470838 0.178847792 79.5767328
v 33.46636 0.00417089652 52.7586481
v 33.4653405 0.172941925 48.2585565
v 33.4626216 0.0634136219 36.2559511
v 50.8229179 0.0109484215 37.6192151
v 47.384941 0.0109484215 34.8670905
v 50.8229179 0.0109484215 34.8670907
v 47.384941 0.0109484215 37.6192147
v 54.3232459 0.0109484215 37.6192151
v 50.8852691 0.0109484215 34.8670905
v 54.3232459 0.0109484215 34.8670907
v 50.8852691 0.0109484215 37.6192147
v 40.8726262 0.0119760055 37.6192151
v 37.4346503 0.0119760055 34.8670905
v 40.8726262 0.0119760055 34.8670907
v 37.4346503 0.0119760055 37.6192147
v 37.3722982 0.0109484215 37.6192151
v 33.9343223 0.0109484215 34.8670905
v 37.3722982 0.0109484215 34.8670907
v 33.9343223 0.0109484215 37.6192147
v 21.4023265 0.0510237236 34.1221887
v -11.6304646 0.0510237236 74.8832094
v -11.6304646 0.0510237236 33.7216226
v 25.0017852 0.0510237236 74.8832094
v 21.4023265 -0.167457579 34.1221887
v 25.0017852 0.0510237236 74.8832094
v 21.4023265 0.0510237236 34.1221887
v 25.0017852 -0.167457579 74.8832094
v -11.6304646 -0.167457579 33.7216226
v 21.4023265 0.0510237236 34.1221887
v -11.6304646 0.0510237236 33.7216226
v 21.4023265 -0.167457579 34.1221887
v 18.3124046 0.0200455208 -4.55752168
v -9.61429032 0.0200455208 26.7465135
v -9.61429795 0.0200455208 -4.55752168
v 20.8639468 0.0200455208 27.0101072
v 20.8639468 -0.16757655 27.0101072
v -9.61429032 0.0200455208 26.7465135
v 20.8639468 0.0200455208 27.0101072
v -9.61429032 -0.16757655 26.7465135
v 18.3124046 -0.16757655 -4.55752168
v 20.8639468 0.0200455208 27.0101072
v 18.3124046 0.0200455208 -4.55752168
v 20.8639468 -0.16757655 27.0101072
v 33.3768481 -0.0564501267 26.6165935
v 30.6247234 -0.0564501267 30.0545694
v 30.6247234 -0.0564501267 26.6165935
v 33.3768481 -0.0564501267 30.0545694
v 33.3768481 -0.0564501267 30.1169216
v 30.6247234 -0.0564501267 33.5548974
v 30.6247234 -0.0564501267 30.1169216
v 33.3768481 -0.0564501267 33.5548974
v 65.9003886 0.00417089652 36.2559511
v 24.1297847 -0.0651171188 -12.0485648
v 21.533306 -0.0651171188 -1.20341478
v 20.5281252 -0.0651171188 -12.0485648
v 25.1072384 -0.0651171188 -1.20341478
v 26.0846923 -0.0651171188 9.6417314
v 22.5384864 -0.0651171188 9.6417314
v 23.3361611 -0.0651171188 18.2480356
v 26.8603636 -0.0651171188 18.2480356
v 23.9620585 -0.0651171188 24.6621343
v 27.4689967 -0.0651171188 24.6621343
v 24.1706912 -0.0651171188 26.8001663
v 27.6718744 -0.0651171188 26.8001663
v 27.9696864 -0.0651171188 30.2702943
v 27.6718744 -0.0651171188 26.8001663
v 24.476951 -0.0651171188 30.2702943
v 28.2674984 -0.0651171188 33.7404224
v 24.7832109 -0.0651171188 33.7404224
v 25.0052213 -0.0651171188 36.2559511
v 28.2674984 -0.0651171188 33.7404224
v 28.4833852 -0.0651171188 36.2559511
v 25.352906 -0.0651171188 40.007208
v 28.8214792 -0.0651171188 40.007208
v 29.1595735 -0.0651171188 43.758465
v 25.7005908 -0.0651171188 43.758465
v 29.5651588 -0.0651171188 48.2585565
v 26.1176809 -0.0651171188 48.2585565
v 26.5347711 -0.0651171188 52.7586481
v 29.9707441 -0.0651171188 52.7586481
v 27.3919818 -0.0651171188 62.0073015
v 30.8043093 -0.0651171188 62.0072996
v 31.3981227 -0.0651171188 68.5958368
v 28.0026392 -0.0651171188 68.5958368
v 31.5960602 -0.0651171188 70.7920152
v 28.2061917 -0.0651171188 70.7920152
v 29.0204016 -0.0651171188 79.5767328
v 32.3878111 -0.0651171188 79.5767328
v 22.2416081 -0.0651171188 43.758465
v 26.1176809 -0.0651171188 48.2585565
v 22.6702031 -0.0651171188 48.2585565
v 25.7005908 -0.0651171188 43.758465
v 26.5347711 -0.0651171188 52.7586481
v 23.0987987 -0.0651171188 52.7586481
v 23.9796542 -0.0651171188 62.0073015
v 27.3919818 -0.0651171188 62.0073015
v 28.0026392 -0.0651171188 68.5958368
v 24.607156 -0.0651171188 68.5958368
v 28.2061917 -0.0651171188 70.7920152
v 24.8163232 -0.0651171188 70.7920152
v 29.0204016 -0.0651171188 79.5767328
v 25.6529922 -0.0651171188 79.5767328
v 21.8843326 -0.0651171188 40.007208
v 25.352906 -0.0651171188 40.007208
v 25.0052213 -0.0651171188 36.2559511
v 21.5270576 -0.0651171188 36.2559511
v 24.7832109 -0.0651171188 33.7404224
v 21.2989234 -0.0651171188 33.7404224
v 20.9842157 -0.0651171188 30.2702943
v 21.2989234 -0.0651171188 33.7404224
v 24.476951 -0.0651171188 30.2702943
v 24.1706912 -0.0651171188 26.8001663
v 20.6695079 -0.0651171188 26.8001663
v 20.4551205 -0.0651171188 24.6621343
v 20.6695079 -0.0651171188 26.8001663
v 23.9620585 -0.0651171188 24.6621343
v 23.3361611 -0.0651171188 18.2480356
v 19.8119582 -0.0651171188 18.2480356
v 18.9922809 -0.0651171188 9.6417314
v 22.5384864 -0.0651171188 9.6417314
v 17.9593734 -0.0651171188 -1.20341478
v 21.533306 -0.0651171188 -1.20341478
v 20.5281252 -0.0651171188 -12.0485648
v 16.9264659 -0.0651171188 -12.0485648
v 53.7375869 -0.0651171188 26.8001663
v 65.9003886 -0.0651171188 30.2702943
v 53.7375869 -0.0651171188 30.2702943
v 65.9003886 -0.0651171188 26.8001663
v 47.7373981 -0.0651171188 26.8001663
v 47.7373981 -0.0651171188 30.2702943
v 37.7276038 -0.0651171188 26.8001663
v 37.7276038 -0.0651171188 30.2702943
v 31.1724309 -0.0651171188 26.8001653
v 31.3585633 -0.0651171188 30.2702943
v 27.9696864 -0.0651171188 30.2702943
v 27.6718744 -0.0651171188 26.8001663
v 1.16244117 -0.0651171188 26.8001663
v 13.9999713 -0.0651171188 30.2702943
v 1.16244117 -0.0651171188 30.2702943
v 13.9212951 -0.0651171188 26.8001663
v 19.8748387 -0.0651171188 26.8001663
v 20.1108688 -0.0651171188 30.2702943
v -9.76907548 -0.0651171188 30.2702943
v -9.76907548 -0.0651171188 26.8001663
v 37.7276038 -0.0651171188 33.7404219
v 31.3585633 -0.0651171188 30.2702943
v 37.7276038 -0.0651171188 30.2702943
v 31.5446953 -0.0651171188 33.7404224
v 47.7373981 -0.0651171188 33.7404219
v 47.7373981 -0.0651171188 30.2702943
v 53.7375869 -0.0651171188 33.7404219
v 53.7375869 -0.0651171188 30.2702943
v 65.9003886 -0.0651171188 33.7404219
v 65.9003886 -0.0651171188 30.2702943
v 28.2674984 -0.0651171188 33.7404224
v 27.9696864 -0.0651171188 30.2702943
v 21.2989234 -0.0651171188 33.7404224
v 20.1108688 -0.0651171188 30.2702943
v 20.9842157 -0.0651171188 30.2702943
v 20.3468999 -0.0651171188 33.7404224
v 1.16244117 -0.0651171188 30.2702943
v 13.9722404 -0.0651171188 33.7404221
v 1.16244117 -0.0651171188 33.7404219
v 13.9999713 -0.0651171188 30.2702943
v 20.1108688 -0.0651171188 30.2702943
v 20.3468999 -0.0651171188 33.7404224
v -9.76907548 -0.0651171188 33.7404219
v -9.76907548 -0.0651171188 30.2702943
v 20.9842157 -0.0651171188 30.2702943
v 19.8748387 -0.0651171188 26.8001663
v 20.6695079 -0.0651171188 26.8001663
v 20.1108688 -0.0651171188 30.2702943
v 16.9264659 -0.0651171188 -12.0485648
v 17.8422374 0.00417089652 -1.20341478
v 16.9264659 0.00417089652 -12.0485648
v 16.9264659 -0.0651171188 -12.0485648
v 17.9593734 -0.0651171188 -1.20341478
v 17.8422374 0.00417089652 -1.20341478
v 18.6169185 0.00417089652 9.6417314
v 18.9922809 -0.0651171188 9.6417314
v 19.231676 0.00417089652 18.2480356
v 19.8119582 -0.0651171188 18.2480356
v 19.7140474 0.00417089652 24.6621343
v 20.4551205 -0.0651171188 24.6621343
v 19.8748387 -0.0651171188 26.8001663
v 20.6695079 -0.0651171188 26.8001663
v 21.5270576 -0.0651171188 36.2559511
v 20.7859568 0.000941755282 40.007208
v 20.5180005 0.00978136252 36.2559511
v 21.8843326 -0.0651171188 40.007208
v 20.3468999 -0.0651171188 33.7404224
v 21.2989234 -0.0651171188 33.7404224
v 22.2416081 -0.0651171188 43.758465
v 21.2146367 -0.000993011487 46.0085107
v 22.6702031 -0.0651171188 48.2585565
v 22.0271272 -0.344878672 57.3829748
v 23.0987987 -0.0651171188 52.7586481
v 23.9796542 -0.0651171188 62.0073015
v 22.8280744 0.00417089652 68.5958368
v 24.607156 -0.0651171188 68.5958368
v 53.7375869 0.00417089652 -12.0485648
v 47.7373981 0.00417089652 -1.1935576
v 47.7373981 0.00417089652 -12.0485648
v 53.7375869 0.00417089652 -1.1935576
v 37.7276038 0.00417089652 -1.20341478
v 37.7276038 0.00417089652 -12.0485648
v 53.7375869 0.00417089652 9.66145338
v 65.9003886 0.00417089652 9.65159239
v 65.9003886 0.00417089652 18.2480356
v 53.7375869 0.00417089652 18.2480356
v 65.9003886 0.00417089652 -1.19848619
v 47.7373981 0.00417089652 9.66145338
v 37.7276038 0.00417089652 9.6417314
v 47.7373981 0.00417089652 18.2480356
v 47.7373981 0.00417089652 24.6621343
v 53.7375869 0.00417089652 24.6621343
v 37.7276038 0.00417089652 24.6621343
v 37.7276038 0.00417089652 18.2480356
v 30.6652359 0.00417089652 18.2480356
v 31.0456323 0.00417089652 24.6621343
v 37.7276038 -0.0651171188 26.8001663
v 31.1724309 -0.0651171188 26.8001653
v 53.7375869 -0.0651171188 26.8001663
v 65.9003886 -0.0651171188 26.8001663
v 65.9003886 0.00417089652 24.6621343
v 47.7373981 -0.0651171188 26.8001663
v 30.1804418 0.00417089652 9.6417314
v 26.8603636 -0.0651171188 18.2480356
v 26.0846923 -0.0651171188 9.6417314
v 29.8551349 0.00417089652 -1.20341478
v 25.1072384 -0.0651171188 -1.20341478
v 29.5298273 0.00417089652 -12.0485648
v 27.6718744 -0.0651171188 26.8001663
v 24.1297847 -0.0651171188 -12.0485648
v 27.4689967 -0.0651171188 24.6621343
v 32.3878111 -0.0651171188 79.5767328
v 33.46845 0.0873107929 70.7920152
v 33.470838 0.178847792 79.5767328
v 31.5960602 -0.0651171188 70.7920152
v 31.3981227 -0.0651171188 68.5958368
v 33.467853 0.0457408447 68.5958368
v 30.8043093 -0.0651171188 62.0072996
v 33.46636 0.00417089652 52.7586481
v 33.4684552 0.00417089652 62.0072996
v 29.9707441 -0.0651171188 52.7586481
v 33.4653405 0.172941925 48.2585565
v 29.5651588 -0.0651171188 48.2585565
v 29.1595735 -0.0651171188 43.758465
v 33.4643215 0.0973565597 43.758465
v 33.4634713 0.08038521 40.007208
v 28.8214792 -0.0651171188 40.007208
v 31.3981227 -0.0651171188 68.5958368
v 33.467853 0.0457408447 68.5958368
v 28.4833852 -0.0651171188 36.2559511
v 33.4626216 0.0634136219 36.2559511
v 31.5446953 -0.0651171188 33.7404224
v 28.2674984 -0.0651171188 33.7404224
v 37.7276038 -0.0651171188 33.7404219
v 37.7276038 0.00417089652 36.2559511
v 47.7373981 0.00417089652 36.2559511
v 47.7373981 -0.0651171188 33.7404219
v 53.7375869 0.00417089652 36.2559511
v 53.7375869 -0.0651171188 33.7404219
v 65.9003886 0.00417089652 36.2559511
v 65.9003886 -0.0651171188 33.7404219
v 1.16244117 -0.0651171188 33.7404219
v 14.6254977 -0.00749087144 36.2559511
v 1.16244117 0.00417089652 36.2559511
v 13.9722404 -0.0651171188 33.7404221
v 20.3468999 -0.0651171188 33.7404224
v 20.5180005 0.00978136252 36.2559511
v -9.76907548 0.00417089652 36.2559511
v -9.76907548 -0.0651171188 33.7404219
v 1.16244117 0.00417089652 24.6621343
v 13.9212951 -0.0651171188 26.8001663
v 1.16244117 -0.0651171188 26.8001663
v 13.8676976 0.00417089652 24.6621343
v 19.7140474 0.00417089652 24.6621343
v 19.8748387 -0.0651171188 26.8001663
v -9.76907548 -0.0651171188 26.8001663
v -9.76907548 0.00417089652 24.6621343
v 23.6124515 0.00417089652 79.5767328
v 24.8163232 -0.0651171188 70.7920152
v 25.6529922 -0.0651171188 79.5767328
v 22.98495 0.00417089652 70.7920152
v 24.607156 -0.0651171188 68.5958368
v 22.8280744 0.00417089652 68.5958368
v 65.9003886 0.00417089652 -12.0485648
vt 0.0165640153 5.29836988
vt 0.593197882 3.69661522
vt 0.016612323 3.69661522
vt 0.593197882 5.29836988
vt 0.593197882 2.29062247
vt 0.016722776 2.29062295
vt 2.21189022 5.29836988
vt 2.21188998 3.6966157
vt 0.593197942 0.0178064499
vt 2.21188998 2.29062247
vt 2.21189046 0.0178065319
vt 0.017202707 0.0182276778
vt 4.15738583 2.29062247
vt 4.1573863 0.0178065281
vt 4.15738583 5.29836988
vt 4.15738583 3.69661522
vt 6.10288191 3.69661498
vt 6.10288191 5.29836988
vt 6.10288191 2.29062247
vt 6.10288191 0.0178065244
vt 0.00873660389 5.29836893
vt 0.016612323 3.69661522
vt 0.00883320533 3.69661498
vt 0.0165640153 5.29836988
vt 0.016722776 2.29062295
vt 0.00891799666 2.29062176
vt 0.017202707 0.0182276778
vt 0.00905504171 0.0182270315
vt 0.0175455511 0.00874425098
vt 0.593197942 0.0178064499
vt 0.593198001 0.00874431245
vt 0.0175455511 0.0178062953
vt 2.21189046 0.0178065319
vt 2.2118907 0.0087444745
vt 4.1573863 0.0178067237
vt 4.15738678 0.00874466915
vt 6.10288239 0.0178069137
vt 6.10288239 0.00874486379
vt 0.0100002959 3.0563066
vt 0.496610373 2.27796698
vt 0.0100002959 2.27796698
vt 0.496610373 3.05630684
vt 0.496610522 0.979505241
vt 0.0100002959 0.979505241
vt 0.983220458 3.05630684
vt 0.98322016 4.63405514
vt 0.496610075 4.63405514
vt 0.983220458 2.27796721
vt 0.983220756 0.979505241
vt 1.56696844 2.27796721
vt 1.56696868 0.979505241
vt 0.983220756 0.249788523
vt 0.496610701 0.222377688
vt 2.1507163 2.27796721
vt 2.15071654 0.979505241
vt 3.35044384 0.979505241
vt 3.3504436 2.27796745
vt 4.2051034 2.27796745
vt 4.2051034 0.979505837
vt 3.35044384 0.383134305
vt 4.2051034 0.363714457
vt 4.48999023 0.979505837
vt 4.48999023 0.38297227
vt 4.48998976 2.27796745
vt 5.62953568 2.27796745
vt 5.62953568 0.979505837
vt 5.62953663 0.460000545
vt 2.15071654 0.315553248
vt 1.56696868 0.282670736
vt 0.010000594 0.194966868
vt 0 0
vt 1 1
vt 1 0
vt 0 1
vt 0 0
vt 1 1
vt 1 0
vt 0 1
vt 0 0
vt 1 1
vt 1 0
vt 0 1
vt 0 0
vt 1 1
vt 1 0
vt 0 1
vt 0.158753827 2.17879152
vt 2.77485728 -0.0797404274
vt 0.113387764 -0.0797405168
vt 2.77357984 2.47805309
vt 0.208469987 2.04019666
vt 2.77357984 2.47805309
vt 0.158753827 2.17879152
vt 2.76742935 2.5322535
vt 0.0588542968 -0.0797404572
vt 0.158753827 2.17879152
vt 0.113387764 -0.0797405168
vt 0.0653914139 2.0089705
vt 0.476429641 0.091382131
vt 5.47222853 5.46556187
vt 5.4724865 0.0913905352
vt 0.504139245 5.51496696
vt 0.504677594 5.55012035
vt 5.47222853 5.46556187
vt 0.504139245 5.51496696
vt 5.47224998 5.50073624
vt 0.444211423 0.0882861167
vt 0.504139245 5.51496696
vt 0.476429641 0.091382131
vt 0.471918881 5.51188755
vt 0 0
vt 1 1
vt 1 0
vt 0 1
vt 0 0
vt 1 1
vt 1 0
vt 0 1
vt 0.00999999791 4.63405514
vt 11.6857815 0.014238527
vt 9.2575531 0.992084384
vt 11.6857815 0.992084384
vt 9.2575531 0.014238527
vt 6.82932806 0.014238527
vt 6.82932806 0.992082059
vt 4.90237856 0.992082059
vt 4.90237856 0.0142374123
vt 3.46626282 0.992082059
vt 3.46626282 0.0142374123
vt 2.98755932 0.992082059
vt 2.98755932 0.0142374123
vt 2.21059752 -0.00189874321
vt 2.98755932 -0.00189874321
vt 2.21059752 0.992082059
vt 1.43363667 -0.00189874321
vt 1.43363667 0.992082059
vt 0.870412588 0.992082059
vt 1.43363667 0.0142374123
vt 0.870412588 0.0142374123
vt 0.0305057764 0.992082059
vt 0.0305057764 0.0142374123
vt -0.809401035 0.0142374123
vt -0.809401035 0.992082059
vt -1.81697166 0.0142362947
vt -1.81697166 0.992082059
vt -2.82454133 0.992082059
vt -2.82454133 0.0142362947
vt -4.89531088 0.992082059
vt -4.89531088 0.0142362947
vt -6.37048149 0.0142362947
vt -6.37048149 0.992082059
vt -6.86220741 0.0142362947
vt -6.86220741 0.992082059
vt -8.82910347 0.992079854
vt -8.82910347 0.0142362947
vt 3.86474991 0.013790519
vt 4.88855028 0.98596102
vt 4.88855028 0.013790519
vt 3.86474991 0.98596102
vt 5.91235113 0.98596102
vt 5.91235113 0.013790519
vt 8.01647758 0.013790519
vt 8.01647758 0.98596102
vt 9.51541138 0.98596102
vt 9.51541138 0.013790519
vt 10.0150566 0.98596102
vt 10.0150566 0.013790519
vt 12.0136337 0.985963941
vt 12.0136337 0.013790519
vt 3.01131392 0.013790519
vt 3.01131392 0.98596102
vt 2.15787792 0.98596102
vt 2.15787792 0.013790519
vt 1.58557987 0.98596102
vt 1.58557987 0.013790519
vt 0.796104312 -0.00234563649
vt 1.58557987 -0.00234563649
vt 0.796104312 0.98596102
vt 0.00662600994 0.98596102
vt 0.00662600994 -0.00234563649
vt -0.47978735 0.013790519
vt 0.00662600994 0.013790519
vt -0.47978735 0.98596102
vt -1.93903577 0.98596102
vt -1.93903577 0.0137876775
vt -3.89702725 0.0137876775
vt -3.89702725 0.98596102
vt -6.36436605 0.0137876775
vt -6.36436605 0.985958278
vt -8.83170891 0.985958278
vt -8.83170891 0.0137876775
vt 5.41780567 0.0339124203
vt 7.90499926 0.983337343
vt 5.41780567 0.983337343
vt 7.90499926 0.0339124203
vt 4.19081926 0.0339124203
vt 4.19081926 0.983337343
vt 2.14389753 0.0339124203
vt 2.14389753 0.983337343
vt 0.858700991 0.0339124203
vt 0.896762133 0.983338833
vt 0.148482323 0.983338833
vt 0.0875825882 0.0339124203
vt 2.43223238 0.0339124203
vt 5.05739975 0.983338118
vt 2.43223238 0.983337343
vt 5.04131079 0.0339124203
vt 6.25876141 0.0339124203
vt 6.30702782 0.983338833
vt 0.196827412 0.983337343
vt 0.196827412 0.0339124203
vt 3.68863916 0.0493525453
vt 2.29870415 0.968392551
vt 3.68863916 0.968393922
vt 2.34112501 0.0493490472
vt 5.96993685 0.0493525453
vt 5.96993685 0.968393922
vt 7.33741522 0.0493525453
vt 7.33741522 0.968393922
vt 10.1093969 0.0493511483
vt 10.1093969 0.968393922
vt 1.53261948 0.0493483469
vt 1.4647454 0.968392551
vt 7.71004438 0.0493483469
vt 7.43927908 0.968392551
vt 7.63831902 0.968392551
vt 7.49307251 0.0493497476
vt 3.12081361 0.968393922
vt 6.17450571 0.0493511483
vt 3.12081361 0.0493525453
vt 6.04656744 0.968393207
vt 7.43927908 0.968392551
vt 7.49307251 0.0493497476
vt 0.629451275 0.0493511483
vt 0.629451275 0.968393922
vt 6.48561764 0.983338833
vt 6.25876141 0.0339124203
vt 6.42126465 0.0339124203
vt 6.30702782 0.983338833
vt 15.4108419 23.8018074
vt 15.7975597 19.2220287
vt 15.4108419 23.8018074
vt 15.4108419 23.8018074
vt 15.8470259 19.2220287
vt 15.7975597 19.2220287
vt 16.1246986 14.6422491
vt 16.2832127 14.6422491
vt 16.384306 11.0079107
vt 16.6293507 11.0079107
vt 16.5880032 8.29930878
vt 16.9009514 8.29930878
vt 16.6559067 7.39644289
vt 16.9914818 7.39644289
vt 17.3536186 3.40337634
vt 17.040659 1.81926477
vt 16.9275055 3.40337634
vt 17.5044918 1.81926477
vt 16.8552513 4.4656558
vt 17.2572784 4.4656558
vt 17.655365 0.235153198
vt 17.2216854 -0.715014458
vt 17.8363552 -1.66518211
vt 17.5647926 -5.5183177
vt 18.0173454 -3.56551838
vt 18.3893204 -7.47111702
vt 17.9030228 -10.2533779
vt 18.6543064 -10.2533779
vt 30.9557457 23.8018074
vt 28.4219398 19.2178669
vt 28.4219398 23.8018074
vt 30.9557457 19.2178669
vt 24.1949177 19.2220287
vt 24.1949177 23.8018074
vt 30.9557457 14.6339216
vt 36.0919533 14.6380854
vt 36.0919533 11.0079107
vt 30.9557457 11.0079107
vt 36.0919533 19.2199478
vt 28.4219398 14.6339216
vt 24.1949177 14.6422491
vt 28.4219398 11.0079107
vt 28.4219398 8.29930878
vt 30.9557457 8.29930878
vt 24.1949177 8.29930878
vt 24.1949177 11.0079107
vt 21.2125626 11.0079107
vt 21.3731995 8.29930878
vt 24.1949177 7.39644289
vt 21.4267464 7.39644289
vt 30.9557457 7.39644289
vt 36.0919533 7.39644289
vt 36.0919533 8.29930878
vt 28.4219398 7.39644289
vt 21.0078392 14.6422491
vt 19.6058121 11.0079107
vt 19.2782555 14.6422491
vt 20.8704643 19.2220287
vt 18.8654861 19.2220287
vt 20.7330952 23.8018074
vt 19.9485016 7.39644289
vt 18.4527187 23.8018074
vt 19.8628273 8.29930878
vt 0.820821702 1.69460011
vt 0.711142302 0.394566059
vt 0.623265266 1.69460011
vt 0.937991142 0.394566059
vt 0.967283547 0.0695576668
vt 0.733111739 0.0695575476
vt 21.2712936 -7.47111702
vt 21.5098705 -3.56551838
vt 21.7738762 -7.47111702
vt 20.9192886 -3.56551838
vt 21.3814163 -1.66518211
vt 20.7480125 -1.66518211
vt 20.5767403 0.235153198
vt 21.252964 0.235153198
vt 21.4469452 1.81926477
vt 20.4339676 1.81926465
vt 21.5220528 -10.2533779
vt 22.1902695 -10.2533779
vt 20.2911949 3.40337634
vt 21.6409283 3.40337634
vt 21.58395 4.4656558
vt 20.2000275 4.4656558
vt 24.1949177 4.4656558
vt 24.1949177 3.40337634
vt 28.4219398 3.40337634
vt 28.4219398 4.4656558
vt 30.9557457 3.40337634
vt 30.9557457 4.4656558
vt 36.0919533 3.40337634
vt 36.0919533 4.4656558
vt 8.75387955 4.4656558
vt 14.4391708 3.40337634
vt 8.75387955 3.40337634
vt 14.412075 4.4656558
vt 16.8552513 4.4656558
vt 16.9275055 3.40337634
vt 4.13762903 3.40337634
vt 4.13762903 4.4656558
vt 8.75387955 8.29930878
vt 14.1417933 7.39644289
vt 8.75387955 7.39644289
vt 14.1191597 8.29930878
vt 16.5880032 8.29930878
vt 16.6559067 7.39644289
vt 4.13762903 7.39644289
vt 4.13762903 8.29930878
vt 1.51043785 1.62188005
vt 1.33227921 0.321846008
vt 1.208462 1.62188005
vt 1.60330081 0.321846038
vt 1.36323357 -0.00316262245
vt 1.62651658 -0.00316257635
vt 36.0919533 23.8018074
vn 0 1 2.22044605e-16
vn 0 1 2.22044605e-16
vn 0 1 2.22044605e-16
vn 0 1 2.22044605e-16
vn 0 1 2.22044605e-16
vn 0 1 2.22044605e-16
vn 0 1 2.22044605e-16
vn 0 1 2.22044605e-16
vn 0 1 2.22044605e-16
vn 0 1 2.22044605e-16
vn 0 1 2.22044605e-16
vn 0 1 2.22044605e-16
vn 0 1 2.22044605e-16
vn 0 1 2.22044605e-16
vn 0 1 2.22044605e-16
vn 0 1 2.22044605e-16
vn 0 1 2.22044605e-16
vn 0 1 2.22044605e-16
vn 0 1 2.22044605e-16
vn 0 1 2.22044605e-16
vn 0 2.22044605e-16 -1
vn -5.61832566e-05 2.22044605e-16 -0.999999998
vn -5.61832566e-05 2.22044605e-16 -0.999999998
vn 0 2.22044605e-16 -1
vn -0.000215033923 2.220446e-16 -0.999999977
vn -0.000215040326 2.220446e-16 -0.999999977
vn -0.000317674463 2.22044594e-16 -0.99999995
vn -0.000317674463 2.22044594e-16 -0.99999995
vn -0.999999801 1.3990902e-19 -0.000630094212
vn -0.99999995 6.99545123e-20 -0.000315047116
vn -0.99999995 6.99545123e-20 -0.000315047116
vn -0.999999801 1.3990902e-19 -0.000630094212
vn -1 0 0
vn -1 0 0
vn -1 -2.42292117e-05 -5.37996574e-21
vn -1 -1.23292193e-05 -2.73763663e-21
vn -1 -2.45636929e-05 -5.45423549e-21
vn -1 -2.45636929e-05 -5.45423549e-21
vn 0 0.999905215 -0.0137681391
vn 0 1 2.22044605e-16
vn 0 0.999905215 -0.0137681391
vn 0 1 2.22044605e-16
vn 0.00893563282 0.999959436 -0.00113192558
vn 0.0053872011 0.999826786 -0.0178150449
vn 0 1 2.22044605e-16
vn 0 1 2.22044605e-16
vn 0 1 2.22044605e-16
vn 0 1 2.22044605e-16
vn 0.0126441488 0.999916507 -0.00266557547
vn 0 1 2.22044605e-16
vn 0.0126276763 0.999916922 0.00258668375
vn -0.00815424903 0.999957111 -0.0043913793
vn -0.00678562773 0.999975772 -0.00155271329
vn 0 1 2.22044605e-16
vn 0.00494866829 0.999976776 0.0046860125
vn 0.00121991618 0.999998945 -0.000788612829
vn 0 1 2.22044605e-16
vn 0 1 2.22044605e-16
vn 0.00487927638 0.99998312 -0.00315486664
vn -0.0139109799 0.999902837 -0.000894925551
vn -0.0213084752 0.999759809 -0.00512582646
vn 0.0112253111 0.999930261 -0.00366941094
vn -0.038763174 0.999235538 -0.00507512795
vn 0 1 2.22044605e-16
vn 0 1 2.22044605e-16
vn 0.0151319868 0.999882109 -0.00260614303
vn -0.051446547 0.998673342 -0.00219307449
vn -0.0110582396 0.999887888 0.0100958873
vn -0.00994144898 0.999931413 0.00619161103
vn -0.00342538154 0.99982779 -0.0182388974
vn 0 1 2.22044605e-16
vn 0 1 2.22044605e-16
vn 0 1 2.22044605e-16
vn 0 1 2.22044605e-16
vn 0 1 2.22044605e-16
vn 0 1 2.22044605e-16
vn 0 1 2.22044605e-16
vn 0 1 2.22044605e-16
vn 0 1 2.22044605e-16
vn 0 1 2.22044605e-16
vn 0 1 2.22044605e-16
vn 0 1 2.22044605e-16
vn 0 1 2.22044605e-16
vn 0 1 2.22044605e-16
vn 0 1 2.22044605e-16
vn 0 1 2.22044605e-16
vn 0 1 2.22044605e-16
vn 0 1 2.22044605e-16
vn 0 1 2.22044605e-16
vn 0 1 2.22044605e-16
vn 0.679750215 1.62857214e-16 -0.733443689
vn 0.996123649 1.95319462e-17 -0.0879640655
vn 0.679750215 1.62857214e-16 -0.733443689
vn 0.996123649 1.95319462e-17 -0.0879640655
vn 0.0121254236 2.22028281e-16 -0.999926484
vn 0.679750215 1.62857214e-16 -0.733443689
vn 0.0121254236 2.22028281e-16 -0.999926484
vn 0.679750215 1.62857214e-16 -0.733443689
vn 0 1 2.22044605e-16
vn 0 1 2.22044605e-16
vn 0 1 2.22044605e-16
vn 0 1 2.22044605e-16
vn -0.00864826256 -2.22036301e-16 0.999962603
vn -0.00864826256 -2.22036301e-16 0.999962603
vn -0.00864826256 -2.22036301e-16 0.999962603
vn -0.00864826256 -2.22036301e-16 0.999962603
vn 0.996749352 1.78890372e-17 -0.0805650612
vn 0.996749352 1.78890372e-17 -0.0805650612
vn 0.996749352 1.78890372e-17 -0.0805650612
vn 0.996749352 1.78890372e-17 -0.0805650612
vn 0 1 2.22044605e-16
vn 0 1 2.22044605e-16
vn 0 1 2.22044605e-16
vn 0 1 2.22044605e-16
vn 0 1 2.22044605e-16
vn 0 1 2.22044605e-16
vn 0 1 2.22044605e-16
vn 0 1 2.22044605e-16
vn 0 0.999905215 -0.01376814
vn -0.0064366508 0.99997921 0.000386597716
vn 0 1 2.22044605e-16
vn 0 1 2.22044605e-16
vn -0.00730188199 0.999973245 0.000438565133
vn -0.00827474659 0.999965612 0.000551425414
vn 0 1 2.22044605e-16
vn 0 1 2.22044605e-16
vn -0.00904544989 0.999958858 0.000679453359
vn 0 1 2.22044605e-16
vn -0.0072752498 0.999963998 0.00436737947
vn 0 1 2.22044605e-16
vn -0.00259459369 0.999986535 0.00449427872
vn 0 1 2.22044605e-16
vn -0.00259459369 0.999986535 0.00449427872
vn 0 1 2.22044605e-16
vn -0.00367881621 0.999983211 -0.00447699017
vn 0 1 2.22044605e-16
vn 0 1 2.22044605e-16
vn -0.00367881621 0.999983211 -0.00447699017
vn -0.0108142421 0.999927883 -0.00522311221
vn 0 1 2.22044605e-16
vn -0.0156354826 0.999877668 -0.00042426428
vn -0.0205894929 0.999786661 -0.00164501565
vn 0 1 2.22044605e-16
vn -0.0226778477 0.999737626 0.00322389973
vn 0 1 2.22044605e-16
vn 0 1 2.22044605e-16
vn -0.0162761326 0.999851361 0.00568714979
vn 0 1 2.22044605e-16
vn -0.0149093011 0.999888848 -7.09811831e-05
vn -0.0257675274 0.999666162 -0.00189729408
vn 0 1 2.22044605e-16
vn -0.0490204106 0.998796647 -0.00150248063
vn 0 1 2.22044605e-16
vn 0 1 2.22044605e-16
vn -0.0703821692 0.99752 0.000447301496
vn 0.0278683049 0.999609124 -0.00222637074
vn 0 1 2.22044605e-16
vn -0.0216625924 0.999707108 0.0107902491
vn 0 1 2.22044605e-16
vn 0 1 2.22044605e-16
vn -0.0365779833 0.99924994 0.012712499
vn -0.0250362916 0.999664122 -0.00669538731
vn 0 1 2.22044605e-16
vn 0 1 2.22044605e-16
vn 0.0018007674 0.999986954 -0.0047799663
vn 0 1 2.22044605e-16
vn 0.0184942435 0.999827779 -0.00154124136
vn 0 1 2.22044605e-16
vn 0.0168054702 0.999857797 -0.00140050451
vn 0.0306798708 0.99952687 -0.00218673635
vn 0 1 2.22044605e-16
vn 0 1 2.22044605e-16
vn 0.0266932482 0.999629176 -0.00538345259
vn 0 1 2.22044605e-16
vn 0.0100906425 0.999937882 -0.00473401598
vn 0 1 2.22044605e-16
vn 0.0100906425 0.999937882 -0.00473401598
vn 0 1 2.22044605e-16
vn 0 1 2.22044605e-16
vn 0.0105521571 0.999940223 0.00286395367
vn 0.0364366472 0.999335349 0.00110984594
vn 0.0105521571 0.999940223 0.00286395367
vn 0 1 2.22044605e-16
vn 0 1 2.22044605e-16
vn 0.0615662102 0.998089178 -0.00525299715
vn 0.102329512 0.994714003 -0.00852776168
vn 0 1 2.22044605e-16
vn 0.267762833 0.963196672 -0.0235634552
vn 0 1 2.22044605e-16
vn 0 1 2.22044605e-16
vn 0.433233556 0.900440865 -0.0389221569
vn 0 0.999868815 0.0161973136
vn 0 1 2.22044605e-16
vn 0 1 2.22044605e-16
vn 0 0.999868815 0.0161973136
vn 0 0.999868815 0.0161973117
vn 0 1 2.22044605e-16
vn 0 0.999868815 0.0161973136
vn 0 1 2.22044605e-16
vn -0.00235511622 0.999919309 0.0124831229
vn 0 1 2.22044605e-16
vn 0 1 2.22044605e-16
vn -0.00259459369 0.999986535 0.00449427872
vn 0 0.999868815 0.0161973117
vn 0 1 2.22044605e-16
vn 0 1 2.22044605e-16
vn 0 0.999868815 0.0161973136
vn 0.011808389 0.999870672 0.0109179105
vn 0 1 2.22044605e-16
vn 0 1 2.22044605e-16
vn 0 0.999868815 0.0161973099
vn 0.0014165671 0.999850248 -0.0172474473
vn 0 1 2.22044605e-16
vn 0 1 2.22044605e-16
vn -0.00467369503 0.999907578 -0.0127667957
vn 0 0.999905215 -0.0137681391
vn 0 1 2.22044605e-16
vn 0 0.999905215 -0.0137681391
vn 0 1 2.22044605e-16
vn 0 0.999905215 -0.01376814
vn 0 1 2.22044605e-16
vn -0.00367881621 0.999983211 -0.00447699017
vn 0 1 2.22044605e-16
vn 0.0100906425 0.999937882 -0.00473401598
vn 0 1 2.22044605e-16
vn 0 1 2.22044605e-16
vn 0.00876204569 0.999900095 -0.0110917584
vn 0 1 2.22044605e-16
vn -0.00016612065 0.999917909 -0.0128120137
vn 0.000110942139 0.999912824 -0.0132035003
vn 0 1 2.22044605e-16
vn 0 1 2.22044605e-16
vn 0.00876204569 0.999900095 -0.0110917584
vn 0 0.999905215 -0.0137681391
vn 0 1 2.22044605e-16
vn 0 1 2.22044605e-16
vn 0.011808389 0.999870672 0.0109179105
vn 0.0105521571 0.999940223 0.00286395367
vn 0 1 2.22044605e-16
vn 0.433233556 0.900440865 -0.0389221569
vn 0.551007724 0.83308252 -0.0486210116
vn 0.761921353 0.644042081 -0.0684518075
vn 0.433233556 0.900440865 -0.0389221569
vn 0.267762833 0.963196672 -0.0235634552
vn 0.551007724 0.83308252 -0.0486210116
vn 0.210431058 0.9774514 -0.0175365455
vn 0.102329512 0.994714003 -0.00852776168
vn 0.124829458 0.992121355 -0.0106218325
vn 0.0615662102 0.998089178 -0.00525299715
vn 0.0499905343 0.998679688 0.0118248815
vn 0.0364366472 0.999335349 0.00110984594
vn 0.011808389 0.999870672 0.0109179105
vn 0.0105521571 0.999940223 0.00286395367
vn 0.0266932482 0.999629176 -0.00538345259
vn 0.0618700078 0.998074636 -0.00437288492
vn 0.0345924831 0.999270258 -0.0161960609
vn 0.0306798708 0.99952687 -0.00218673635
vn 0.00876204569 0.999900095 -0.0110917584
vn 0.0100906425 0.999937882 -0.00473401598
vn 0.0278683049 0.999609124 -0.00222637074
vn 0.0344860448 0.999405164 0.000176994381
vn -0.0216625924 0.999707108 0.0107902491
vn -0.155151495 0.987782262 0.0146360988
vn -0.0365779833 0.99924994 0.012712499
vn -0.0250362916 0.999664122 -0.00669538731
vn -0.000298048764 0.999947145 -0.0102770762
vn 0.0018007674 0.999986954 -0.0047799663
vn 0 1 2.22044605e-16
vn 0 1 2.22044605e-16
vn 0 1 2.22044605e-16
vn 0 1 2.22044605e-16
vn 0 1 2.22044605e-16
vn 0 1 2.22044605e-16
vn 0 1 2.22044605e-16
vn 0 1 2.22044605e-16
vn 0 1 2.22044605e-16
vn 0 1 2.22044605e-16
vn 0 1 2.22044605e-16
vn 0 1 2.22044605e-16
vn 0 1 2.22044605e-16
vn 0 1 2.22044605e-16
vn 0 0.999868815 0.0161973117
vn 0 0.999868815 0.0161973117
vn 0 0.999868815 0.0161973136
vn 0 1 2.22044605e-16
vn -0.00909709176 0.999958386 0.000685012892
vn -0.00705546013 0.999896478 0.0125400818
vn 0 0.999868815 0.0161973136
vn -0.00235511622 0.999919309 0.0124831229
vn 0 0.999868815 0.0161973136
vn 0 0.999868815 0.0161973136
vn 0 0.999868815 0.0161973136
vn 0 0.999868815 0.0161973117
vn -0.00838377219 0.999964697 0.000563344559
vn -0.00904544989 0.999958858 0.000679453359
vn -0.00827474659 0.999965612 0.000551425414
vn -0.00734029122 0.999972963 0.000440872081
vn -0.00730188199 0.999973245 0.000438565133
vn -0.00695764059 0.999975708 0.00041788934
vn -0.00259459369 0.999986535 0.00449427872
vn -0.0064366508 0.99997921 0.000386597716
vn -0.0072752498 0.999963998 0.00436737947
vn -0.0703821692 0.99752 0.000447301496
vn -0.038763174 0.999235538 -0.00507512795
vn -0.051446547 0.998673342 -0.00219307449
vn -0.0490204106 0.998796647 -0.00150248063
vn -0.0257675274 0.999666162 -0.00189729408
vn -0.0213084752 0.999759809 -0.00512582646
vn -0.0149093011 0.999888848 -7.09811831e-05
vn -0.0110582396 0.999887888 0.0100958873
vn -0.0139109799 0.999902837 -0.000894925551
vn -0.0162761326 0.999851361 0.00568714979
vn -0.00994144898 0.999931413 0.00619161103
vn -0.0226778477 0.999737626 0.00322389973
vn -0.0205894929 0.999786661 -0.00164501565
vn -0.00815424903 0.999957111 -0.0043913793
vn -0.00678562773 0.999975772 -0.00155271329
vn -0.0156354826 0.999877668 -0.00042426428
vn -0.0257675274 0.999666162 -0.00189729408
vn -0.0213084752 0.999759809 -0.00512582646
vn -0.0108142421 0.999927883 -0.00522311221
vn -0.00342538154 0.99982779 -0.0182388974
vn -0.00467369503 0.999907578 -0.0127667957
vn -0.00367881621 0.999983211 -0.00447699017
vn 0.0014165671 0.999850248 -0.0172474473
vn 0.0053872011 0.999826786 -0.0178150449
vn 0 0.999905215 -0.0137681391
vn 0 0.999905215 -0.0137681391
vn 0 0.999905215 -0.0137681391
vn 0 0.999905215 -0.0137681391
vn 0 0.999905215 -0.01376814
vn 0 0.999905215 -0.01376814
vn 0.000110942139 0.999912824 -0.0132035003
vn -0.000631590244 0.999668072 -0.025755506
vn 0.00022186333 0.99965131 -0.026404716
vn -0.00016612065 0.999917909 -0.0128120137
vn 0.00876204569 0.999900095 -0.0110917584
vn 0.0345924831 0.999270258 -0.0161960609
vn 0 0.999620877 -0.027533668
vn 0 0.999905215 -0.0137681391
vn 0 0.999475294 0.0323903745
vn 0 0.999868815 0.0161973136
vn 0 0.999868815 0.0161973117
vn 0 0.999475294 0.0323903745
vn 0.0499905343 0.998679688 0.0118248815
vn 0.011808389 0.999870672 0.0109179105
vn 0 0.999868815 0.0161973099
vn 0 0.999475294 0.0323903708
vn 0.0357670031 0.999355711 -0.00298068736
vn 0.0184942435 0.999827779 -0.00154124136
vn 0.0168054702 0.999857797 -0.00140050451
vn 0.0371189186 0.999306068 -0.00309335249
vn 0.0018007674 0.999986954 -0.0047799663
vn -0.000298048764 0.999947145 -0.0102770762
vn 0 1 2.22044605e-16

g collision_ground_01_submesh_0
usemtl collision
f 1/1/1 3/3/3 2/2/2
f 1/1/1 2/2/2 4/4/4
f 3/3/3 5/5/5 2/2/2
f 3/3/3 6/6/6 5/5/5
f 2/2/2 7/7/7 4/4/4
f 2/2/2 8/8/8 7/7/7
f 6/6/6 9/9/9 5/5/5
f 9/9/9 10/10/10 5/5/5
f 9/9/9 11/11/11 10/10/10
f 6/6/6 12/12/12 9/9/9
f 11/11/11 13/13/13 10/10/10
f 11/11/11 14/14/14 13/13/13
f 15/15/15 7/7/7 8/8/8
f 15/15/15 8/8/8 16/16/16
f 16/16/16 8/8/8 10/10/10
f 16/16/16 10/10/10 13/13/13
f 17/17/17 15/15/15 16/16/16
f 17/17/17 18/18/18 15/15/15
f 19/19/19 17/17/17 16/16/16
f 19/19/19 16/16/16 13/13/13
f 14/14/14 19/19/19 13/13/13
f 14/14/14 20/20/20 19/19/19
f 21/21/21 23/23/23 22/22/22
f 21/21/21 22/22/22 24/24/24
f 23/23/23 25/25/25 22/22/22
f 23/23/23 26/26/26 25/25/25
f 26/26/26 27/27/27 25/25/25
f 26/26/26 28/28/28 27/27/27
f 29/29/29 31/31/31 30/30/30
f 29/29/29 30/30/30 32/32/32
f 31/31/31 33/33/33 30/30/30
f 31/31/31 34/34/34 33/33/33
f 34/34/34 35/35/35 33/33/33
f 34/34/34 36/36/36 35/35/35
f 36/36/36 37/37/37 35/35/35
f 36/36/36 38/38/38 37/37/37
f 39/39/39 41/41/41 40/40/40
f 39/39/39 40/40/40 42/42/42
f 41/41/41 43/43/43 40/40/40
f 41/41/41 44/44/44 43/43/43
f 40/40/40 45/45/45 42/42/42
f 42/42/42 45/45/45 46/46/46
f 42/42/42 46/46/46 47/47/47
f 40/40/40 48/48/48 45/45/45
f 43/43/43 48/48/48 40/40/40
f 43/43/43 49/49/49 48/48/48
f 49/49/49 50/50/50 48/48/48
f 49/49/49 51/51/51 50/50/50
f 52/52/52 49/49/49 43/43/43
f 51/51/51 49/49/49 52/52/52
f 52/52/52 43/43/43 53/53/53
f 51/51/51 54/54/54 50/50/50
f 51/51/51 55/55/55 54/54/54
f 54/54/54 55/55/55 56/56/56
f 54/54/54 56/56/56 57/57/57
f 56/56/56 58/58/58 57/57/57
f 56/56/56 59/59/59 58/58/58
f 59/59/59 56/56/56 60/60/60
f 60/60/60 56/56/56 55/55/55
f 59/59/59 60/60/60 61/61/61
f 62/62/62 59/59/59 61/61/61
f 62/62/62 61/61/61 63/63/63
f 59/59/59 62/62/62 64/64/64
f 59/59/59 64/64/64 58/58/58
f 62/62/62 65/65/65 64/64/64
f 62/62/62 66/66/66 65/65/65
f 67/67/67 66/66/66 62/62/62
f 67/67/67 62/62/62 63/63/63
f 60/60/60 55/55/55 68/68/68
f 68/68/68 55/55/55 51/51/51
f 68/68/68 51/51/51 69/69/69
f 51/51/51 52/52/52 69/69/69
f 43/43/43 44/44/44 70/70/70
f 43/43/43 70/70/70 53/53/53
f 71/71/71 73/73/73 72/72/72
f 71/71/71 72/72/72 74/74/74
f 75/75/75 77/77/77 76/76/76
f 75/75/75 76/76/76 78/78/78
f 79/79/79 81/81/81 80/80/80
f 79/79/79 80/80/80 82/82/82
f 83/83/83 85/85/85 84/84/84
f 83/83/83 84/84/84 86/86/86
f 87/87/87 89/89/89 88/88/88
f 87/87/87 88/88/88 90/90/90
f 91/91/91 93/93/93 92/92/92
f 91/91/91 92/92/92 94/94/94
f 95/95/95 97/97/97 96/96/96
f 95/95/95 96/96/96 98/98/98
f 99/99/99 101/101/101 100/100/100
f 99/99/99 100/100/100 102/102/102
f 103/103/103 105/105/105 104/104/104
f 103/103/103 104/104/104 106/106/106
f 107/107/107 109/109/109 108/108/108
f 107/107/107 108/108/108 110/110/110
f 111/111/111 113/113/113 112/112/112
f 111/111/111 112/112/112 114/114/114
f 115/115/115 117/117/117 116/116/116
f 115/115/115 116/116/116 118/118/118
f 119/119/119 39/39/39 42/42/42
f 119/119/119 42/42/42 47/47/47

g collision_ground_01_submesh_1
usemtl collision
f 120/120/120 122/122/122 121/121/121
f 120/120/120 121/121/121 123/123/123
f 121/121/121 124/124/124 123/123/123
f 121/121/121 125/125/125 124/124/124
f 126/126/126 124/124/124 125/125/125
f 126/126/126 127/127/127 124/124/124
f 127/127/127 126/126/126 128/128/128
f 127/127/127 128/128/128 129/129/129
f 130/130/130 129/129/129 128/128/128
f 130/130/130 131/131/131 129/129/129
f 132/132/132 133/133/133 130/130/130
f 132/132/132 130/130/130 134/134/134
f 135/135/135 132/132/132 134/134/134
f 135/135/135 134/134/134 136/136/136
f 137/137/137 138/138/138 136/136/136
f 137/137/137 139/139/139 138/138/138
f 139/139/139 137/137/137 140/140/140
f 139/139/139 140/140/140 141/141/141
f 140/140/140 142/142/142 141/141/141
f 140/140/140 143/143/143 142/142/142
f 144/144/144 142/142/142 143/143/143
f 144/144/144 143/143/143 145/145/145
f 146/146/146 144/144/144 145/145/145
f 146/146/146 147/147/147 144/144/144
f 147/147/147 146/146/146 148/148/148
f 147/147/147 148/148/148 149/149/149
f 150/150/150 149/149/149 148/148/148
f 150/150/150 148/148/148 151/151/151
f 152/152/152 150/150/150 151/151/151
f 152/152/152 151/151/151 153/153/153
f 154/154/154 152/152/152 153/153/153
f 154/154/154 155/155/155 152/152/152
f 156/156/156 158/158/158 157/157/157
f 156/156/156 157/157/157 159/159/159
f 158/158/158 160/160/160 157/157/157
f 158/158/158 161/161/161 160/160/160
f 160/160/160 161/161/161 162/162/162
f 160/160/160 162/162/162 163/163/163
f 162/162/162 164/164/164 163/163/163
f 162/162/162 165/165/165 164/164/164
f 165/165/165 166/166/166 164/164/164
f 165/165/165 167/167/167 166/166/166
f 167/167/167 168/168/168 166/166/166
f 167/167/167 169/169/169 168/168/168
f 170/170/170 156/156/156 159/159/159
f 170/170/170 159/159/159 171/171/171
f 172/172/172 170/170/170 171/171/171
f 172/172/172 173/173/173 170/170/170
f 173/173/173 172/172/172 174/174/174
f 173/173/173 174/174/174 175/175/175
f 176/176/176 177/177/177 174/174/174
f 176/176/176 174/174/174 178/178/178
f 179/179/179 176/176/176 178/178/178
f 179/179/179 180/180/180 176/176/176
f 181/181/181 182/182/182 179/179/179
f 181/181/181 179/179/179 183/183/183
f 184/184/184 181/181/181 183/183/183
f 184/184/184 185/185/185 181/181/181
f 186/186/186 185/185/185 184/184/184
f 186/186/186 184/184/184 187/187/187
f 188/188/188 186/186/186 187/187/187
f 188/188/188 187/187/187 189/189/189
f 190/190/190 188/188/188 189/189/189
f 190/190/190 191/191/191 188/188/188
f 192/192/192 194/194/194 193/193/193
f 192/192/192 193/193/193 195/195/195
f 196/196/196 194/194/194 192/192/192
f 196/196/196 197/197/197 194/194/194
f 198/198/198 197/197/197 196/196/196
f 198/198/198 199/199/199 197/197/197
f 199/199/199 198/198/198 200/200/200
f 199/199/199 200/200/200 201/201/201
f 200/200/200 202/202/202 201/201/201
f 200/200/200 203/203/203 202/202/202
f 204/204/204 206/206/206 205/205/205
f 204/204/204 205/205/205 207/207/207
f 208/208/208 207/207/207 205/205/205
f 208/208/208 205/205/205 209/209/209
f 210/210/210 206/206/206 204/204/204
f 210/210/210 204/204/204 211/211/211
f 212/212/212 214/214/214 213/213/213
f 212/212/212 213/213/213 215/215/215
f 214/214/214 212/212/212 216/216/216
f 214/214/214 216/216/216 217/217/217
f 217/217/217 216/216/216 218/218/218
f 217/217/217 218/218/218 219/219/219
f 219/219/219 218/218/218 220/220/220
f 219/219/219 220/220/220 221/221/221
f 213/213/213 222/222/222 215/215/215
f 213/213/213 223/223/223 222/222/222
f 224/224/224 226/226/226 225/225/225
f 224/224/224 225/225/225 227/227/227
f 228/228/228 230/230/230 229/229/229
f 228/228/228 229/229/229 231/231/231
f 232/232/232 231/231/231 229/229/229
f 232/232/232 229/229/229 233/233/233
f 234/234/234 230/230/230 228/228/228
f 234/234/234 228/228/228 235/235/235
f 236/236/236 238/238/238 237/237/237
f 236/236/236 237/237/237 239/239/239

g collision_ground_01_submesh_2
usemtl collision
f 240/240/240 242/242/242 241/241/241
f 243/243/243 245/245/245 244/244/244
f 246/246/246 244/244/244 245/245/245
f 246/246/246 247/247/247 244/244/244
f 248/248/248 247/247/247 246/246/246
f 248/248/248 249/249/249 247/247/247
f 249/249/249 248/248/248 250/250/250
f 249/249/249 250/250/250 251/251/251
f 252/252/252 251/251/251 250/250/250
f 252/252/252 253/253/253 251/251/251
f 254/254/254 256/256/256 255/255/255
f 254/254/254 255/255/255 257/257/257
f 254/254/254 258/258/258 256/256/256
f 254/254/254 259/259/259 258/258/258
f 255/255/255 260/260/260 257/257/257
f 255/255/255 261/261/261 260/260/260
f 262/262/262 260/260/260 261/261/261
f 263/263/263 262/262/262 261/261/261
f 263/263/263 264/264/264 262/262/262
f 264/264/264 263/263/263 265/265/265
f 266/266/266 265/265/265 263/263/263
f 266/266/266 267/267/267 265/265/265
f 268/268/268 270/270/270 269/269/269
f 268/268/268 269/269/269 271/271/271
f 270/270/270 272/272/272 269/269/269
f 270/270/270 273/273/273 272/272/272
f 269/269/269 274/274/274 271/271/271
f 271/271/271 274/274/274 275/275/275
f 274/274/274 276/276/276 275/275/275
f 274/274/274 277/277/277 276/276/276
f 271/271/271 275/275/275 278/278/278
f 269/269/269 279/279/279 274/274/274
f 272/272/272 279/279/279 269/269/269
f 272/272/272 280/280/280 279/279/279
f 280/280/280 281/281/281 279/279/279
f 277/277/277 281/281/281 282/282/282
f 277/277/277 282/282/282 283/283/283
f 276/276/276 277/277/277 283/283/283
f 281/281/281 284/284/284 282/282/282
f 281/281/281 285/285/285 284/284/284
f 280/280/280 285/285/285 281/281/281
f 284/284/284 285/285/285 286/286/286
f 286/286/286 285/285/285 280/280/280
f 284/284/284 286/286/286 287/287/287
f 288/288/288 284/284/284 287/287/287
f 288/288/288 287/287/287 289/289/289
f 282/282/282 290/290/290 283/283/283
f 283/283/283 290/290/290 291/291/291
f 283/283/283 291/291/291 292/292/292
f 282/282/282 293/293/293 290/290/290
f 284/284/284 288/288/288 293/293/293
f 284/284/284 293/293/293 282/282/282
f 286/286/286 280/280/280 294/294/294
f 295/295/295 286/286/286 294/294/294
f 295/295/295 294/294/294 296/296/296
f 296/296/296 294/294/294 297/297/297
f 296/296/296 297/297/297 298/298/298
f 294/294/294 272/272/272 297/297/297
f 294/294/294 280/280/280 272/272/272
f 272/272/272 299/299/299 297/297/297
f 299/299/299 298/298/298 297/297/297
f 272/272/272 273/273/273 299/299/299
f 287/287/287 300/300/300 289/289/289
f 299/299/299 301/301/301 298/298/298
f 287/287/287 302/302/302 300/300/300
f 286/286/286 295/295/295 302/302/302
f 286/286/286 302/302/302 287/287/287
f 276/276/276 283/283/283 292/292/292
f 303/303/303 305/305/305 304/304/304
f 303/303/303 304/304/304 306/306/306
f 307/307/307 306/306/306 304/304/304
f 307/307/307 304/304/304 308/308/308
f 309/309/309 311/311/311 310/310/310
f 309/309/309 310/310/310 312/312/312
f 312/312/312 310/310/310 313/313/313
f 312/312/312 313/313/313 314/314/314
f 313/313/313 315/315/315 314/314/314
f 313/313/313 316/316/316 315/315/315
f 315/315/315 316/316/316 317/317/317
f 315/315/315 317/317/317 318/318/318
f 311/311/311 309/309/309 319/319/319
f 311/311/311 319/319/319 320/320/320
f 317/317/317 321/321/321 318/318/318
f 317/317/317 322/322/322 321/321/321
f 321/321/321 322/322/322 323/323/323
f 321/321/321 323/323/323 324/324/324
f 322/322/322 325/325/325 323/323/323
f 322/322/322 326/326/326 325/325/325
f 325/325/325 326/326/326 327/327/327
f 325/325/325 327/327/327 328/328/328
f 328/328/328 327/327/327 329/329/329
f 328/328/328 329/329/329 330/330/330
f 330/330/330 329/329/329 331/331/331
f 330/330/330 331/331/331 332/332/332
f 333/333/333 335/335/335 334/334/334
f 333/333/333 334/334/334 336/336/336
f 337/337/337 336/336/336 334/334/334
f 337/337/337 334/334/334 338/338/338
f 339/339/339 335/335/335 333/333/333
f 339/339/339 333/333/333 340/340/340
f 341/341/341 343/343/343 342/342/342
f 341/341/341 342/342/342 344/344/344
f 342/342/342 345/345/345 344/344/344
f 342/342/342 346/346/346 345/345/345
f 347/347/347 343/343/343 341/341/341
f 347/347/347 341/341/341 348/348/348
f 349/349/349 351/351/351 350/350/350
f 349/349/349 350/350/350 352/352/352
f 352/352/352 350/350/350 353/353/353
f 352/352/352 353/353/353 354/354/354
f 355/355/355 268/268/268 271/271/271
f 355/355/355 271/271/271 278/278/278

o collision_ground_02
v 47.7796726 0.166840109 51.8196644
v 50.7806909 -1.36373374 49.7266697
v 50.7806911 0.166840109 51.8196644
v 47.7745208 -1.36373374 49.7266697
v 53.7817096 0.166840109 51.8196644
v 53.7868611 -1.36373374 49.7266697
v 47.7703492 -4.52563545 45.5772098
v 50.7806911 -5.09656426 44.8616394
v 50.7806911 -4.52563521 45.5772098
v 47.7693669 -5.09656426 44.8616394
v 50.7806911 -2.1587634 48.7128834
v 47.7732636 -2.1587634 48.7128834
v 47.7745208 -1.36373374 49.7266697
v 50.7806909 -1.36373374 49.7266697
v 53.7910323 -4.52563545 45.5772098
v 53.7920145 -5.09656426 44.8616394
v 53.7868611 -1.36373374 49.7266697
v 53.7881181 -2.1587634 48.7128834
v 50.7806911 -4.48418304 15.5061811
v 47.7693672 -5.09656426 16.409305
v 47.7691078 -4.48418423 15.5061811
v 50.7806911 -5.09656426 16.409305
v 53.7920155 -5.09656426 16.409305
v 53.7922749 -4.48418423 15.5061811
v 50.7806911 3.26873835e-08 9.66145362
v 47.7681083 -1.37939164 11.4463314
v 47.7668495 3.26873835e-08 9.66145362
v 50.7806911 -1.37939164 11.4463314
v 53.7932741 -1.37939164 11.4463314
v 53.7945327 3.26873835e-08 9.66145362
v 50.7806911 -1.37939164 11.4463314
v 47.7684345 -2.15192032 12.5856365
v 47.7681083 -1.37939164 11.4463314
v 50.7806911 -2.15192163 12.5856403
v 53.792948 -2.15192032 12.5856365
v 53.7932741 -1.37939164 11.4463314
v 50.7806911 -2.15192163 12.5856403
v 47.7691078 -4.48418423 15.5061811
v 47.7684345 -2.15192032 12.5856365
v 50.7806911 -4.48418304 15.5061811
v 53.7922749 -4.48418423 15.5061811
v 53.792948 -2.15192032 12.5856365
v 47.7693672 -5.09656426 32.3654684
v 50.7806911 -5.09656426 16.409305
v 50.7806911 -5.09656426 32.3654684
v 47.7693672 -5.09656426 16.409305
v 50.7806911 -5.09656426 32.3654684
v 47.7693669 -5.09656426 44.8616394
v 47.7693672 -5.09656426 32.3654684
v 50.7806911 -5.09656426 44.8616394
v 53.792015 -5.09656426 32.3654684
v 50.7806911 -5.09656426 16.409305
v 53.7920155 -5.09656426 16.409305
v 50.7806911 -5.09656426 32.3654684
v 50.7806911 -5.09656426 32.3654684
v 53.7920145 -5.09656426 44.8616394
v 50.7806911 -5.09656426 44.8616394
v 53.792015 -5.09656426 32.3654684
vt 0.0107827522 0.722840965
vt 0.466764569 1.07325089
vt 0.466764569 0.722840846
vt 0.00999998394 1.07325113
vt 0.92274642 0.722840846
vt 0.923529148 1.07325089
vt 1.0070684 0.937472105
vt 0.504675031 1.07147861
vt 0.504675031 0.937472105
vt 1.00723255 1.07147861
vt 0.504674911 0.539251685
vt 1.00658214 0.539251685
vt 1.00637233 0.367655814
vt 0.504674911 0.367655873
vt 0.00228166976 0.937472224
vt 0.00211788248 1.07147861
vt 0.00297768577 0.367655873
vt 0.00276789279 0.539251804
vt 0.504675031 0.925872445
vt 1.00310683 1.06944644
vt 1.00314975 0.925872445
vt 0.504675031 1.06944644
vt 0.00624315068 1.06944644
vt 0.00620014872 0.925872624
vt 0.504674852 0.728704631
vt 1.00331521 1.10208309
vt 1.00352347 0.728704631
vt 0.504674911 1.10208309
vt 0.00603470206 1.10208309
vt 0.00582633168 0.728704631
vt 0.504674911 0.370086372
vt 1.00326121 0.551207185
vt 1.00331521 0.370086312
vt 0.504674911 0.551207721
vt 0.00608877093 0.551207304
vt 0.00603470206 0.370086372
vt 0.504674911 0.551207721
vt 1.00314975 0.925872445
vt 1.00326121 0.551207185
vt 0.504675031 0.925872445
vt 0.00620014872 0.925872624
vt 0.00608877093 0.551207304
vt 0.93734026 0.711117566
vt 0.487857819 0.0586095564
vt 0.48785761 0.711117566
vt 0.937340558 0.0586095564
vt 0.48785761 0.0586095564
vt 0.937340021 0.711117566
vt 0.93734026 0.0586095564
vt 0.487857342 0.711117566
vt 0.93734026 0.711117566
vt 0.487857819 0.0586095564
vt 0.937340558 0.0586095564
vt 0.48785761 0.711117566
vt 0.48785761 0.0586095564
vt 0.937340021 0.711117566
vt 0.487857342 0.711117566
vt 0.93734026 0.0586095564
vn 0 0.807193055 -0.590287533
vn 0 0.807193055 -0.590287533
vn 0 0.807193055 -0.590287533
vn 0 0.807193055 -0.590287533
vn 0 0.807193112 -0.590287455
vn 0 0.807193084 -0.590287494
vn 0 0.781682061 -0.623677124
vn 0 0.781682061 -0.623677124
vn 0 0.781682061 -0.623677124
vn 0 0.78168209 -0.623677088
vn 0 0.786889885 -0.617093436
vn 0 0.786889914 -0.617093399
vn 0 0.786889914 -0.617093399
vn 0 0.786889914 -0.617093399
vn 0 0.781682061 -0.623677124
vn 0 0.78168209 -0.623677088
vn 0 0.786889943 -0.617093363
vn 0 0.786889943 -0.617093363
vn 0 0.827668779 0.561216886
vn 0 0.82766876 0.561216913
vn 0 0.827668779 0.561216886
vn 0 0.827668779 0.561216886
vn 0 0.827668806 0.561216845
vn 0 0.827668806 0.561216845
vn 0 0.791248974 0.611494122
vn 0 0.791248945 0.611494159
vn 0 0.791249003 0.611494084
vn 0 0.791248974 0.611494122
vn 0 0.791248974 0.611494122
vn 0 0.791249003 0.611494084
vn 0 0.827668732 0.561216954
vn 0 0.827668732 0.561216954
vn 0 0.82766876 0.561216913
vn 0 0.827668732 0.561216954
vn 0 0.827668732 0.561216954
vn 0 0.82766876 0.561216913
vn 0 0.781412956 0.624014256
vn 0 0.781412956 0.624014256
vn 0 0.781412956 0.624014256
vn 0 0.781412956 0.624014256
vn 0 0.781412956 0.624014256
vn 0 0.781412956 0.624014256
vn 0 1 2.22044605e-16
vn 0 1 2.22044605e-16
vn 0 1 2.22044605e-16
vn 0 1 2.22044605e-16
vn 0 1 2.22044605e-16
vn 0 1 2.22044605e-16
vn 0 1 2.22044605e-16
vn 0 1 2.22044605e-16
vn 0 1 2.22044605e-16
vn 0 1 2.22044605e-16
vn 0 1 2.22044605e-16
vn 0 1 2.22044605e-16
vn 0 1 2.22044605e-16
vn 0 1 2.22044605e-16
vn 0 1 2.22044605e-16
vn 0 1 2.22044605e-16

g collision_ground_02_submesh_0
usemtl collision_2
f 356/356/356 358/358/358 357/357/357
f 356/356/356 357/357/357 359/359/359
f 360/360/360 357/357/357 358/358/358
f 360/360/360 361/361/361 357/357/357
f 362/362/362 364/364/364 363/363/363
f 362/362/362 363/363/363 365/365/365
f 362/362/362 366/366/366 364/364/364
f 362/362/362 367/367/367 366/366/366
f 368/368/368 366/366/366 367/367/367
f 368/368/368 369/369/369 366/366/366
f 370/370/370 363/363/363 364/364/364
f 370/370/370 364/364/364 366/366/366
f 370/370/370 371/371/371 363/363/363
f 372/372/372 366/366/366 369/369/369
f 372/372/372 373/373/373 366/366/366
f 370/370/370 366/366/366 373/373/373
f 374/374/374 376/376/376 375/375/375
f 374/374/374 375/375/375 377/377/377
f 374/374/374 377/377/377 378/378/378
f 374/374/374 378/378/378 379/379/379
f 380/380/380 382/382/382 381/381/381
f 380/380/380 381/381/381 383/383/383
f 380/380/380 383/383/383 384/384/384
f 380/380/380 384/384/384 385/385/385
f 386/386/386 388/388/388 387/387/387
f 386/386/386 387/387/387 389/389/389
f 386/386/386 389/389/389 390/390/390
f 386/386/386 390/390/390 391/391/391
f 392/392/392 394/394/394 393/393/393
f 392/392/392 393/393/393 395/395/395
f 392/392/392 395/395/395 396/396/396
f 392/392/392 396/396/396 397/397/397

g collision_ground_02_submesh_1
usemtl collision_2
f 398/398/398 400/400/400 399/399/399
f 398/398/398 399/399/399 401/401/401
f 402/402/402 404/404/404 403/403/403
f 402/402/402 403/403/403 405/405/405
f 406/406/406 408/408/408 407/407/407
f 406/406/406 407/407/407 409/409/409
f 410/410/410 412/412/412 411/411/411
f 410/410/410 411/411/411 413/413/413
