{"asset":{"version":"2.0","generator":"Star Warfare Unity lightmap restoration"},"scene":0,"scenes":[{"nodes":[0]}],"nodes":[{"name":"RestoredStage","mesh":0}],"meshes":[{"name":"RestoredStage","primitives":[{"attributes":{"POSITION":0,"NORMAL":1,"TEXCOORD_0":2,"TEXCOORD_1":3},"indices":4,"material":0},{"attributes":{"POSITION":5,"NORMAL":6,"TEXCOORD_0":7,"TEXCOORD_1":8},"indices":9,"material":1},{"attributes":{"POSITION":10,"NORMAL":11,"TEXCOORD_0":12,"TEXCOORD_1":13},"indices":14,"material":2},{"attributes":{"POSITION":15,"NORMAL":16,"TEXCOORD_0":17,"TEXCOORD_1":18},"indices":19,"material":3},{"attributes":{"POSITION":20,"NORMAL":21,"TEXCOORD_0":22,"TEXCOORD_1":23},"indices":24,"material":4},{"attributes":{"POSITION":25,"NORMAL":26,"TEXCOORD_0":27,"TEXCOORD_1":28},"indices":29,"material":5},{"attributes":{"POSITION":30,"NORMAL":31,"TEXCOORD_0":32,"TEXCOORD_1":33},"indices":34,"material":6},{"attributes":{"POSITION":35,"NORMAL":36,"TEXCOORD_0":37,"TEXCOORD_1":38},"indices":39,"material":7},{"attributes":{"POSITION":40,"NORMAL":41,"TEXCOORD_0":42,"TEXCOORD_1":43},"indices":44,"material":8},{"attributes":{"POSITION":45,"NORMAL":46,"TEXCOORD_0":47,"TEXCOORD_1":48},"indices":49,"material":9},{"attributes":{"POSITION":50,"NORMAL":51,"TEXCOORD_0":52,"TEXCOORD_1":53},"indices":54,"material":10},{"attributes":{"POSITION":55,"NORMAL":56,"TEXCOORD_0":57,"TEXCOORD_1":58},"indices":59,"material":11},{"attributes":{"POSITION":60,"NORMAL":61,"TEXCOORD_0":62,"TEXCOORD_1":63},"indices":64,"material":12},{"attributes":{"POSITION":65,"NORMAL":66,"TEXCOORD_0":67,"TEXCOORD_1":68},"indices":69,"material":13},{"attributes":{"POSITION":70,"NORMAL":71,"TEXCOORD_0":72,"TEXCOORD_1":73},"indices":74,"material":14},{"attributes":{"POSITION":75,"NORMAL":76,"TEXCOORD_0":77,"TEXCOORD_1":78},"indices":79,"material":15},{"attributes":{"POSITION":80,"NORMAL":81,"TEXCOORD_0":82,"TEXCOORD_1":83},"indices":84,"material":16},{"attributes":{"POSITION":85,"NORMAL":86,"TEXCOORD_0":87,"TEXCOORD_1":88},"indices":89,"material":17},{"attributes":{"POSITION":90,"NORMAL":91,"TEXCOORD_0":92,"TEXCOORD_1":93},"indices":94,"material":18},{"attributes":{"POSITION":95,"NORMAL":96,"TEXCOORD_0":97,"TEXCOORD_1":98},"indices":99,"material":19},{"attributes":{"POSITION":100,"NORMAL":101,"TEXCOORD_0":102,"TEXCOORD_1":103},"indices":104,"material":20},{"attributes":{"POSITION":105,"NORMAL":106,"TEXCOORD_0":107,"TEXCOORD_1":108},"indices":109,"material":21},{"attributes":{"POSITION":110,"NORMAL":111,"TEXCOORD_0":112,"TEXCOORD_1":113},"indices":114,"material":22},{"attributes":{"POSITION":115,"NORMAL":116,"TEXCOORD_0":117,"TEXCOORD_1":118},"indices":119,"material":23},{"attributes":{"POSITION":120,"NORMAL":121,"TEXCOORD_0":122,"TEXCOORD_1":123},"indices":124,"material":24},{"attributes":{"POSITION":125,"NORMAL":126,"TEXCOORD_0":127,"TEXCOORD_1":128},"indices":129,"material":25},{"attributes":{"POSITION":130,"NORMAL":131,"TEXCOORD_0":132,"TEXCOORD_1":133},"indices":134,"material":26},{"attributes":{"POSITION":135,"NORMAL":136,"TEXCOORD_0":137,"TEXCOORD_1":138},"indices":139,"material":27},{"attributes":{"POSITION":140,"NORMAL":141,"TEXCOORD_0":142,"TEXCOORD_1":143},"indices":144,"material":28},{"attributes":{"POSITION":145,"NORMAL":146,"TEXCOORD_0":147,"TEXCOORD_1":148},"indices":149,"material":29},{"attributes":{"POSITION":150,"NORMAL":151,"TEXCOORD_0":152,"TEXCOORD_1":153},"indices":154,"material":30},{"attributes":{"POSITION":155,"NORMAL":156,"TEXCOORD_0":157,"TEXCOORD_1":158},"indices":159,"material":31}]}],"bufferViews":[{"buffer":0,"byteOffset":0,"byteLength":3540},{"buffer":0,"byteOffset":3540,"byteLength":3540},{"buffer":0,"byteOffset":7080,"byteLength":2360},{"buffer":0,"byteOffset":9440,"byteLength":2360},{"buffer":0,"byteOffset":11800,"byteLength":2076},{"buffer":0,"byteOffset":13876,"byteLength":3996},{"buffer":0,"byteOffset":17872,"byteLength":3996},{"buffer":0,"byteOffset":21868,"byteLength":2664},{"buffer":0,"byteOffset":24532,"byteLength":2664},{"buffer":0,"byteOffset":27196,"byteLength":2256},{"buffer":0,"byteOffset":29452,"byteLength":10800},{"buffer":0,"byteOffset":40252,"byteLength":10800},{"buffer":0,"byteOffset":51052,"byteLength":7200},{"buffer":0,"byteOffset":58252,"byteLength":7200},{"buffer":0,"byteOffset":65452,"byteLength":5496},{"buffer":0,"byteOffset":70948,"byteLength":8448},{"buffer":0,"byteOffset":79396,"byteLength":8448},{"buffer":0,"byteOffset":87844,"byteLength":5632},{"buffer":0,"byteOffset":93476,"byteLength":5632},{"buffer":0,"byteOffset":99108,"byteLength":4368},{"buffer":0,"byteOffset":103476,"byteLength":33624},{"buffer":0,"byteOffset":137100,"byteLength":33624},{"buffer":0,"byteOffset":170724,"byteLength":22416},{"buffer":0,"byteOffset":193140,"byteLength":22416},{"buffer":0,"byteOffset":215556,"byteLength":18000},{"buffer":0,"byteOffset":233556,"byteLength":10176},{"buffer":0,"byteOffset":243732,"byteLength":10176},{"buffer":0,"byteOffset":253908,"byteLength":6784},{"buffer":0,"byteOffset":260692,"byteLength":6784},{"buffer":0,"byteOffset":267476,"byteLength":5376},{"buffer":0,"byteOffset":272852,"byteLength":1428},{"buffer":0,"byteOffset":274280,"byteLength":1428},{"buffer":0,"byteOffset":275708,"byteLength":952},{"buffer":0,"byteOffset":276660,"byteLength":952},{"buffer":0,"byteOffset":277612,"byteLength":1200},{"buffer":0,"byteOffset":278812,"byteLength":1440},{"buffer":0,"byteOffset":280252,"byteLength":1440},{"buffer":0,"byteOffset":281692,"byteLength":960},{"buffer":0,"byteOffset":282652,"byteLength":960},{"buffer":0,"byteOffset":283612,"byteLength":1200},{"buffer":0,"byteOffset":284812,"byteLength":1392},{"buffer":0,"byteOffset":286204,"byteLength":1392},{"buffer":0,"byteOffset":287596,"byteLength":928},{"buffer":0,"byteOffset":288524,"byteLength":928},{"buffer":0,"byteOffset":289452,"byteLength":1344},{"buffer":0,"byteOffset":290796,"byteLength":672},{"buffer":0,"byteOffset":291468,"byteLength":672},{"buffer":0,"byteOffset":292140,"byteLength":448},{"buffer":0,"byteOffset":292588,"byteLength":448},{"buffer":0,"byteOffset":293036,"byteLength":384},{"buffer":0,"byteOffset":293420,"byteLength":840},{"buffer":0,"byteOffset":294260,"byteLength":840},{"buffer":0,"byteOffset":295100,"byteLength":560},{"buffer":0,"byteOffset":295660,"byteLength":560},{"buffer":0,"byteOffset":296220,"byteLength":576},{"buffer":0,"byteOffset":296796,"byteLength":2124},{"buffer":0,"byteOffset":298920,"byteLength":2124},{"buffer":0,"byteOffset":301044,"byteLength":1416},{"buffer":0,"byteOffset":302460,"byteLength":1416},{"buffer":0,"byteOffset":303876,"byteLength":1344},{"buffer":0,"byteOffset":305220,"byteLength":1560},{"buffer":0,"byteOffset":306780,"byteLength":1560},{"buffer":0,"byteOffset":308340,"byteLength":1040},{"buffer":0,"byteOffset":309380,"byteLength":1040},{"buffer":0,"byteOffset":310420,"byteLength":1128},{"buffer":0,"byteOffset":311548,"byteLength":5016},{"buffer":0,"byteOffset":316564,"byteLength":5016},{"buffer":0,"byteOffset":321580,"byteLength":3344},{"buffer":0,"byteOffset":324924,"byteLength":3344},{"buffer":0,"byteOffset":328268,"byteLength":4272},{"buffer":0,"byteOffset":332540,"byteLength":576},{"buffer":0,"byteOffset":333116,"byteLength":576},{"buffer":0,"byteOffset":333692,"byteLength":384},{"buffer":0,"byteOffset":334076,"byteLength":384},{"buffer":0,"byteOffset":334460,"byteLength":288},{"buffer":0,"byteOffset":334748,"byteLength":4788},{"buffer":0,"byteOffset":339536,"byteLength":4788},{"buffer":0,"byteOffset":344324,"byteLength":3192},{"buffer":0,"byteOffset":347516,"byteLength":3192},{"buffer":0,"byteOffset":350708,"byteLength":2760},{"buffer":0,"byteOffset":353468,"byteLength":144},{"buffer":0,"byteOffset":353612,"byteLength":144},{"buffer":0,"byteOffset":353756,"byteLength":96},{"buffer":0,"byteOffset":353852,"byteLength":96},{"buffer":0,"byteOffset":353948,"byteLength":96},{"buffer":0,"byteOffset":354044,"byteLength":624},{"buffer":0,"byteOffset":354668,"byteLength":624},{"buffer":0,"byteOffset":355292,"byteLength":416},{"buffer":0,"byteOffset":355708,"byteLength":416},{"buffer":0,"byteOffset":356124,"byteLength":432},{"buffer":0,"byteOffset":356556,"byteLength":2100},{"buffer":0,"byteOffset":358656,"byteLength":2100},{"buffer":0,"byteOffset":360756,"byteLength":1400},{"buffer":0,"byteOffset":362156,"byteLength":1400},{"buffer":0,"byteOffset":363556,"byteLength":3168},{"buffer":0,"byteOffset":366724,"byteLength":564},{"buffer":0,"byteOffset":367288,"byteLength":564},{"buffer":0,"byteOffset":367852,"byteLength":376},{"buffer":0,"byteOffset":368228,"byteLength":376},{"buffer":0,"byteOffset":368604,"byteLength":288},{"buffer":0,"byteOffset":368892,"byteLength":816},{"buffer":0,"byteOffset":369708,"byteLength":816},{"buffer":0,"byteOffset":370524,"byteLength":544},{"buffer":0,"byteOffset":371068,"byteLength":544},{"buffer":0,"byteOffset":371612,"byteLength":432},{"buffer":0,"byteOffset":372044,"byteLength":780},{"buffer":0,"byteOffset":372824,"byteLength":780},{"buffer":0,"byteOffset":373604,"byteLength":520},{"buffer":0,"byteOffset":374124,"byteLength":520},{"buffer":0,"byteOffset":374644,"byteLength":528},{"buffer":0,"byteOffset":375172,"byteLength":17520},{"buffer":0,"byteOffset":392692,"byteLength":17520},{"buffer":0,"byteOffset":410212,"byteLength":11680},{"buffer":0,"byteOffset":421892,"byteLength":11680},{"buffer":0,"byteOffset":433572,"byteLength":8208},{"buffer":0,"byteOffset":441780,"byteLength":1200},{"buffer":0,"byteOffset":442980,"byteLength":1200},{"buffer":0,"byteOffset":444180,"byteLength":800},{"buffer":0,"byteOffset":444980,"byteLength":800},{"buffer":0,"byteOffset":445780,"byteLength":600},{"buffer":0,"byteOffset":446380,"byteLength":480},{"buffer":0,"byteOffset":446860,"byteLength":480},{"buffer":0,"byteOffset":447340,"byteLength":320},{"buffer":0,"byteOffset":447660,"byteLength":320},{"buffer":0,"byteOffset":447980,"byteLength":240},{"buffer":0,"byteOffset":448220,"byteLength":1104},{"buffer":0,"byteOffset":449324,"byteLength":1104},{"buffer":0,"byteOffset":450428,"byteLength":736},{"buffer":0,"byteOffset":451164,"byteLength":736},{"buffer":0,"byteOffset":451900,"byteLength":744},{"buffer":0,"byteOffset":452644,"byteLength":2784},{"buffer":0,"byteOffset":455428,"byteLength":2784},{"buffer":0,"byteOffset":458212,"byteLength":1856},{"buffer":0,"byteOffset":460068,"byteLength":1856},{"buffer":0,"byteOffset":461924,"byteLength":2208},{"buffer":0,"byteOffset":464132,"byteLength":2040},{"buffer":0,"byteOffset":466172,"byteLength":2040},{"buffer":0,"byteOffset":468212,"byteLength":1360},{"buffer":0,"byteOffset":469572,"byteLength":1360},{"buffer":0,"byteOffset":470932,"byteLength":1224},{"buffer":0,"byteOffset":472156,"byteLength":7584},{"buffer":0,"byteOffset":479740,"byteLength":7584},{"buffer":0,"byteOffset":487324,"byteLength":5056},{"buffer":0,"byteOffset":492380,"byteLength":5056},{"buffer":0,"byteOffset":497436,"byteLength":4944},{"buffer":0,"byteOffset":502380,"byteLength":25488},{"buffer":0,"byteOffset":527868,"byteLength":25488},{"buffer":0,"byteOffset":553356,"byteLength":16992},{"buffer":0,"byteOffset":570348,"byteLength":16992},{"buffer":0,"byteOffset":587340,"byteLength":13536},{"buffer":0,"byteOffset":600876,"byteLength":816},{"buffer":0,"byteOffset":601692,"byteLength":816},{"buffer":0,"byteOffset":602508,"byteLength":544},{"buffer":0,"byteOffset":603052,"byteLength":544},{"buffer":0,"byteOffset":603596,"byteLength":408},{"buffer":0,"byteOffset":604004,"byteLength":864},{"buffer":0,"byteOffset":604868,"byteLength":864},{"buffer":0,"byteOffset":605732,"byteLength":576},{"buffer":0,"byteOffset":606308,"byteLength":576},{"buffer":0,"byteOffset":606884,"byteLength":432}],"accessors":[{"bufferView":0,"componentType":5126,"count":295,"type":"VEC3","min":[-9.42410088,-1.10768406e-06,37.9781876],"max":[21.4207878,10.7646942,71.3095779]},{"bufferView":1,"componentType":5126,"count":295,"type":"VEC3","min":[-1.0,-1.0,-1.0],"max":[1.0,1.0,1.0]},{"bufferView":2,"componentType":5126,"count":295,"type":"VEC2"},{"bufferView":3,"componentType":5126,"count":295,"type":"VEC2"},{"bufferView":4,"componentType":5125,"count":519,"type":"SCALAR"},{"bufferView":5,"componentType":5126,"count":333,"type":"VEC3","min":[52.0235519,-3.24287726e-07,47.460453],"max":[60.7398605,25.0498581,70.6963806]},{"bufferView":6,"componentType":5126,"count":333,"type":"VEC3","min":[-1.0,-1.0,-1.0],"max":[0.957219292,1.0,1.0]},{"bufferView":7,"componentType":5126,"count":333,"type":"VEC2"},{"bufferView":8,"componentType":5126,"count":333,"type":"VEC2"},{"bufferView":9,"componentType":5125,"count":564,"type":"SCALAR"},{"bufferView":10,"componentType":5126,"count":900,"type":"VEC3","min":[1.53176498,-0.102599598,2.94847417],"max":[14.3882475,3.22489166,34.7483292]},{"bufferView":11,"componentType":5126,"count":900,"type":"VEC3","min":[-1.0,-1.0,-1.0],"max":[1.0,1.0,1.0]},{"bufferView":12,"componentType":5126,"count":900,"type":"VEC2"},{"bufferView":13,"componentType":5126,"count":900,"type":"VEC2"},{"bufferView":14,"componentType":5125,"count":1374,"type":"SCALAR"},{"bufferView":15,"componentType":5126,"count":704,"type":"VEC3","min":[-5.48484993,-0.0897333398,1.08045566],"max":[16.9093323,3.53124881,39.7107849]},{"bufferView":16,"componentType":5126,"count":704,"type":"VEC3","min":[-1.0,0.0,-0.999998932],"max":[1.0,1.0,0.999998932]},{"bufferView":17,"componentType":5126,"count":704,"type":"VEC2"},{"bufferView":18,"componentType":5126,"count":704,"type":"VEC2"},{"bufferView":19,"componentType":5125,"count":1092,"type":"SCALAR"},{"bufferView":20,"componentType":5126,"count":2802,"type":"VEC3","min":[31.1161041,-0.183806717,27.0284843],"max":[53.82798,1.45827055,37.4203148]},{"bufferView":21,"componentType":5126,"count":2802,"type":"VEC3","min":[-1.0,-0.84271473,-1.0],"max":[1.0,0.991602454,1.0]},{"bufferView":22,"componentType":5126,"count":2802,"type":"VEC2"},{"bufferView":23,"componentType":5126,"count":2802,"type":"VEC2"},{"bufferView":24,"componentType":5125,"count":4500,"type":"SCALAR"},{"bufferView":25,"componentType":5126,"count":848,"type":"VEC3","min":[3.43331242,-0.0477954112,2.10175872],"max":[16.1352348,4.33348513,21.8571796]},{"bufferView":26,"componentType":5126,"count":848,"type":"VEC3","min":[-1.0,-1.0,-1.0],"max":[1.0,1.0,1.0]},{"bufferView":27,"componentType":5126,"count":848,"type":"VEC2"},{"bufferView":28,"componentType":5126,"count":848,"type":"VEC2"},{"bufferView":29,"componentType":5125,"count":1344,"type":"SCALAR"},{"bufferView":30,"componentType":5126,"count":119,"type":"VEC3","min":[-11.6304646,-0.167575762,-4.55752659],"max":[65.9003906,0.178842366,79.5767365]},{"bufferView":31,"componentType":5126,"count":119,"type":"VEC3","min":[-1.0,-2.45571136e-05,-1.0],"max":[0.996753059,1.0,0.999962605]},{"bufferView":32,"componentType":5126,"count":119,"type":"VEC2"},{"bufferView":33,"componentType":5126,"count":119,"type":"VEC2"},{"bufferView":34,"componentType":5125,"count":300,"type":"SCALAR"},{"bufferView":35,"componentType":5126,"count":120,"type":"VEC3","min":[-9.76907539,-0.065122582,-12.0485706],"max":[65.9003906,-0.0651116595,79.5767365]},{"bufferView":36,"componentType":5126,"count":120,"type":"VEC3","min":[-0.0704051597,0.900481756,-0.0389138503],"max":[0.433149304,1.0,0.0161953598]},{"bufferView":37,"componentType":5126,"count":120,"type":"VEC2"},{"bufferView":38,"componentType":5126,"count":120,"type":"VEC2"},{"bufferView":39,"componentType":5125,"count":300,"type":"SCALAR"},{"bufferView":40,"componentType":5126,"count":116,"type":"VEC3","min":[-9.76907539,-0.344881535,-12.0485706],"max":[65.9003906,0.178842366,79.5767365]},{"bufferView":41,"componentType":5126,"count":116,"type":"VEC3","min":[-0.155224602,0.643857551,-0.0684526095],"max":[0.762077223,1.0,0.0323937918]},{"bufferView":42,"componentType":5126,"count":116,"type":"VEC2"},{"bufferView":43,"componentType":5126,"count":116,"type":"VEC2"},{"bufferView":44,"componentType":5125,"count":336,"type":"SCALAR"},{"bufferView":45,"componentType":5126,"count":56,"type":"VEC3","min":[47.3275452,-5.0965662,11.4463291],"max":[54.2338371,-1.36234486,49.7266731]},{"bufferView":46,"componentType":5126,"count":56,"type":"VEC3","min":[-0.965598744,-0.999999993,-0.0417989096],"max":[0.965598744,1.0,0.0352270154]},{"bufferView":47,"componentType":5126,"count":56,"type":"VEC2"},{"bufferView":48,"componentType":5126,"count":56,"type":"VEC2"},{"bufferView":49,"componentType":5125,"count":96,"type":"SCALAR"},{"bufferView":50,"componentType":5126,"count":70,"type":"VEC3","min":[47.7668495,-5.0965662,9.66145134],"max":[53.7945328,0.166838795,51.8196678]},{"bufferView":51,"componentType":5126,"count":70,"type":"VEC3","min":[-0.999999584,-0.00336618757,-0.999996497],"max":[0.999999584,0.827743097,0.999999292]},{"bufferView":52,"componentType":5126,"count":70,"type":"VEC2"},{"bufferView":53,"componentType":5126,"count":70,"type":"VEC2"},{"bufferView":54,"componentType":5125,"count":144,"type":"SCALAR"},{"bufferView":55,"componentType":5126,"count":177,"type":"VEC3","min":[-6.04070187,4.66380596,0.540558696],"max":[16.0302658,8.12861538,21.7329941]},{"bufferView":56,"componentType":5126,"count":177,"type":"VEC3","min":[-1.0,-1.1920929e-07,-1.0],"max":[1.0,1.0,1.0]},{"bufferView":57,"componentType":5126,"count":177,"type":"VEC2"},{"bufferView":58,"componentType":5126,"count":177,"type":"VEC2"},{"bufferView":59,"componentType":5125,"count":336,"type":"SCALAR"},{"bufferView":60,"componentType":5126,"count":130,"type":"VEC3","min":[-6.04070187,-1.61739172e-06,0.540558159],"max":[16.0302658,4.67253208,21.7329941]},{"bufferView":61,"componentType":5126,"count":130,"type":"VEC3","min":[-1.0,-1.0,-1.0],"max":[1.0,0.0037941505,1.0]},{"bufferView":62,"componentType":5126,"count":130,"type":"VEC2"},{"bufferView":63,"componentType":5126,"count":130,"type":"VEC2"},{"bufferView":64,"componentType":5125,"count":282,"type":"SCALAR"},{"bufferView":65,"componentType":5126,"count":418,"type":"VEC3","min":[-5.3701973,-0.00202077138,1.12466562],"max":[15.450263,5.94289875,21.0817795]},{"bufferView":66,"componentType":5126,"count":418,"type":"VEC3","min":[-1.0,-1.0,-1.0],"max":[1.0,1.0,1.0]},{"bufferView":67,"componentType":5126,"count":418,"type":"VEC2"},{"bufferView":68,"componentType":5126,"count":418,"type":"VEC2"},{"bufferView":69,"componentType":5125,"count":1068,"type":"SCALAR"},{"bufferView":70,"componentType":5126,"count":48,"type":"VEC3","min":[52.2800179,22.8179817,65.808403],"max":[58.0143929,26.026947,69.9947357]},{"bufferView":71,"componentType":5126,"count":48,"type":"VEC3","min":[-1.0,0.0,-1.0],"max":[-5.96046448e-08,0.0,5.96046448e-08]},{"bufferView":72,"componentType":5126,"count":48,"type":"VEC2"},{"bufferView":73,"componentType":5126,"count":48,"type":"VEC2"},{"bufferView":74,"componentType":5125,"count":72,"type":"SCALAR"},{"bufferView":75,"componentType":5126,"count":399,"type":"VEC3","min":[7.77043629,4.23105764,39.6341591],"max":[20.8576107,5.66009092,55.148716]},{"bufferView":76,"componentType":5126,"count":399,"type":"VEC3","min":[-0.990807013,-0.99707346,-0.986083262],"max":[0.999335148,0.99707346,0.992907703]},{"bufferView":77,"componentType":5126,"count":399,"type":"VEC2"},{"bufferView":78,"componentType":5126,"count":399,"type":"VEC2"},{"bufferView":79,"componentType":5125,"count":690,"type":"SCALAR"},{"bufferView":80,"componentType":5126,"count":12,"type":"VEC3","min":[49.432106,7.43579292,65.775032],"max":[54.90728,35.2120018,69.8571701]},{"bufferView":81,"componentType":5126,"count":12,"type":"VEC3","min":[-1.0,-0.0,-1.0],"max":[0.0,-0.0,0.0]},{"bufferView":82,"componentType":5126,"count":12,"type":"VEC2"},{"bufferView":83,"componentType":5126,"count":12,"type":"VEC2"},{"bufferView":84,"componentType":5125,"count":24,"type":"SCALAR"},{"bufferView":85,"componentType":5126,"count":52,"type":"VEC3","min":[52.4611816,6.8354454,47.6190453],"max":[59.7868423,12.6233521,69.8612671]},{"bufferView":86,"componentType":5126,"count":52,"type":"VEC3","min":[-1.0,-1.0,-0.999600987],"max":[0.12469577,1.0,1.0]},{"bufferView":87,"componentType":5126,"count":52,"type":"VEC2"},{"bufferView":88,"componentType":5126,"count":52,"type":"VEC2"},{"bufferView":89,"componentType":5125,"count":108,"type":"SCALAR"},{"bufferView":90,"componentType":5126,"count":175,"type":"VEC3","min":[-313.120056,-13.4074144,-313.120056],"max":[313.120056,210.228653,313.120117]},{"bufferView":91,"componentType":5126,"count":175,"type":"VEC3","min":[-0.983431432,-1.0,-0.983431432],"max":[0.983431432,-0.181280496,0.983431432]},{"bufferView":92,"componentType":5126,"count":175,"type":"VEC2"},{"bufferView":93,"componentType":5126,"count":175,"type":"VEC2"},{"bufferView":94,"componentType":5125,"count":792,"type":"SCALAR"},{"bufferView":95,"componentType":5126,"count":47,"type":"VEC3","min":[-9.42409992,5.03143406,37.9781876],"max":[21.4207878,10.7646942,71.3095779]},{"bufferView":96,"componentType":5126,"count":47,"type":"VEC3","min":[-0.0530730169,0.0,-0.999998771],"max":[0.999995426,5.9634019e-08,-0.00302461062]},{"bufferView":97,"componentType":5126,"count":47,"type":"VEC2"},{"bufferView":98,"componentType":5126,"count":47,"type":"VEC2"},{"bufferView":99,"componentType":5125,"count":72,"type":"SCALAR"},{"bufferView":100,"componentType":5126,"count":68,"type":"VEC3","min":[47.3275452,-5.12030792,12.5856342],"max":[54.2338371,-2.15191817,48.7128868]},{"bufferView":101,"componentType":5126,"count":68,"type":"VEC3","min":[-1.0,0.0,-0.274258914],"max":[1.0,1.0,0.241002669]},{"bufferView":102,"componentType":5126,"count":68,"type":"VEC2"},{"bufferView":103,"componentType":5126,"count":68,"type":"VEC2"},{"bufferView":104,"componentType":5125,"count":108,"type":"SCALAR"},{"bufferView":105,"componentType":5126,"count":65,"type":"VEC3","min":[54.5954132,0.0369271152,48.6266212],"max":[61.0801697,10.0369291,64.9533844]},{"bufferView":106,"componentType":5126,"count":65,"type":"VEC3","min":[-1.0,-5.96122899e-08,-0.999999991],"max":[0.999998737,1.0,0.949340501]},{"bufferView":107,"componentType":5126,"count":65,"type":"VEC2"},{"bufferView":108,"componentType":5126,"count":65,"type":"VEC2"},{"bufferView":109,"componentType":5125,"count":132,"type":"SCALAR"},{"bufferView":110,"componentType":5126,"count":1460,"type":"VEC3","min":[-8.15947914,-3.42476439,-3.56216455],"max":[60.1183014,3.15974069,71.2487335]},{"bufferView":111,"componentType":5126,"count":1460,"type":"VEC3","min":[-1.0,-1.1920929e-07,-1.0],"max":[1.0,1.0,1.0]},{"bufferView":112,"componentType":5126,"count":1460,"type":"VEC2"},{"bufferView":113,"componentType":5126,"count":1460,"type":"VEC2"},{"bufferView":114,"componentType":5125,"count":2052,"type":"SCALAR"},{"bufferView":115,"componentType":5126,"count":100,"type":"VEC3","min":[24.8210716,-0.126865789,18.7603168],"max":[54.3648186,0.201028332,55.6471443]},{"bufferView":116,"componentType":5126,"count":100,"type":"VEC3","min":[-1.0,-1.1920929e-07,-1.0],"max":[1.0,1.0,1.0]},{"bufferView":117,"componentType":5126,"count":100,"type":"VEC2"},{"bufferView":118,"componentType":5126,"count":100,"type":"VEC2"},{"bufferView":119,"componentType":5125,"count":150,"type":"SCALAR"},{"bufferView":120,"componentType":5126,"count":40,"type":"VEC3","min":[20.0720215,-0.0735938549,26.6905918],"max":[28.9418793,-0.00218378589,33.6946487]},{"bufferView":121,"componentType":5126,"count":40,"type":"VEC3","min":[-0.303111487,-5.9620521e-08,-0.995669608],"max":[0.303111864,1.0,0.995870657]},{"bufferView":122,"componentType":5126,"count":40,"type":"VEC2"},{"bufferView":123,"componentType":5126,"count":40,"type":"VEC2"},{"bufferView":124,"componentType":5125,"count":60,"type":"SCALAR"},{"bufferView":125,"componentType":5126,"count":92,"type":"VEC3","min":[35.1958084,0.182887852,41.2781563],"max":[56.4976883,0.27664876,67.5123138]},{"bufferView":126,"componentType":5126,"count":92,"type":"VEC3","min":[0.0,1.0,1.1920929e-07],"max":[0.0,1.0,1.1920929e-07]},{"bufferView":127,"componentType":5126,"count":92,"type":"VEC2"},{"bufferView":128,"componentType":5126,"count":92,"type":"VEC2"},{"bufferView":129,"componentType":5125,"count":186,"type":"SCALAR"},{"bufferView":130,"componentType":5126,"count":232,"type":"VEC3","min":[-1.46412182,-4.77162814e-07,7.14498758],"max":[16.6860924,6.32278776,22.2845421]},{"bufferView":131,"componentType":5126,"count":232,"type":"VEC3","min":[-1.0,-1.1920929e-07,-1.0],"max":[1.0,1.0,1.0]},{"bufferView":132,"componentType":5126,"count":232,"type":"VEC2"},{"bufferView":133,"componentType":5126,"count":232,"type":"VEC2"},{"bufferView":134,"componentType":5125,"count":552,"type":"SCALAR"},{"bufferView":135,"componentType":5126,"count":170,"type":"VEC3","min":[52.3377647,0.0498590395,65.9687881],"max":[60.9808197,25.4080181,69.8612747]},{"bufferView":136,"componentType":5126,"count":170,"type":"VEC3","min":[-1.0,-1.1920929e-07,-1.0],"max":[1.0,1.0,1.0]},{"bufferView":137,"componentType":5126,"count":170,"type":"VEC2"},{"bufferView":138,"componentType":5126,"count":170,"type":"VEC2"},{"bufferView":139,"componentType":5125,"count":306,"type":"SCALAR"},{"bufferView":140,"componentType":5126,"count":632,"type":"VEC3","min":[-4.95464659,-0.0718996748,-4.31909657],"max":[60.9032364,2.84722066,24.8776703]},{"bufferView":141,"componentType":5126,"count":632,"type":"VEC3","min":[-1.0,-0.18387052,-1.0],"max":[1.0,1.0,1.0]},{"bufferView":142,"componentType":5126,"count":632,"type":"VEC2"},{"bufferView":143,"componentType":5126,"count":632,"type":"VEC2"},{"bufferView":144,"componentType":5125,"count":1236,"type":"SCALAR"},{"bufferView":145,"componentType":5126,"count":2124,"type":"VEC3","min":[-145.810196,-46.1286278,-91.2926636],"max":[201.236313,48.1262932,130.024429]},{"bufferView":146,"componentType":5126,"count":2124,"type":"VEC3","min":[-1.0,-1.0,-1.0],"max":[1.0,1.0,1.0]},{"bufferView":147,"componentType":5126,"count":2124,"type":"VEC2"},{"bufferView":148,"componentType":5126,"count":2124,"type":"VEC2"},{"bufferView":149,"componentType":5125,"count":3384,"type":"SCALAR"},{"bufferView":150,"componentType":5126,"count":68,"type":"VEC3","min":[-9.60513687,-8.56032276,-56.0574074],"max":[176.727524,23.2386665,72.1836166]},{"bufferView":151,"componentType":5126,"count":68,"type":"VEC3","min":[-1.0,-1.1920929e-07,-1.0],"max":[1.0,1.0,1.0]},{"bufferView":152,"componentType":5126,"count":68,"type":"VEC2"},{"bufferView":153,"componentType":5126,"count":68,"type":"VEC2"},{"bufferView":154,"componentType":5125,"count":102,"type":"SCALAR"},{"bufferView":155,"componentType":5126,"count":72,"type":"VEC3","min":[-9.35616684,-8.56032372,-56.0574074],"max":[176.727524,23.2386665,72.3125305]},{"bufferView":156,"componentType":5126,"count":72,"type":"VEC3","min":[-1.0,-1.1920929e-07,-1.0],"max":[1.0,1.0,1.0]},{"bufferView":157,"componentType":5126,"count":72,"type":"VEC2"},{"bufferView":158,"componentType":5126,"count":72,"type":"VEC2"},{"bufferView":159,"componentType":5125,"count":108,"type":"SCALAR"}],"materials":[{"name":"Brocklightmap_02","pbrMetallicRoughness":{"baseColorFactor":[1.0,1.0,1.0,1.0],"metallicFactor":0.0,"roughnessFactor":1.0,"baseColorTexture":{"index":0}},"doubleSided":false},{"name":"Airlightmap_01","pbrMetallicRoughness":{"baseColorFactor":[1.0,1.0,1.0,1.0],"metallicFactor":0.0,"roughnessFactor":1.0,"baseColorTexture":{"index":1}},"doubleSided":false},{"name":"Objlightmap_01","pbrMetallicRoughness":{"baseColorFactor":[1.0,1.0,1.0,1.0],"metallicFactor":0.0,"roughnessFactor":1.0,"baseColorTexture":{"index":2}},"doubleSided":false},{"name":"Objlightmap_07","pbrMetallicRoughness":{"baseColorFactor":[1.0,1.0,1.0,1.0],"metallicFactor":0.0,"roughnessFactor":1.0,"baseColorTexture":{"index":3}},"doubleSided":false},{"name":"Objlightmap_06","pbrMetallicRoughness":{"baseColorFactor":[1.0,1.0,1.0,1.0],"metallicFactor":0.0,"roughnessFactor":1.0,"baseColorTexture":{"index":4}},"doubleSided":false},{"name":"Depotlightmap_06","pbrMetallicRoughness":{"baseColorFactor":[1.0,1.0,1.0,1.0],"metallicFactor":0.0,"roughnessFactor":1.0,"baseColorTexture":{"index":5}},"doubleSided":false},{"name":"Groundlightmap_03","pbrMetallicRoughness":{"baseColorFactor":[1.0,1.0,1.0,1.0],"metallicFactor":0.0,"roughnessFactor":1.0,"baseColorTexture":{"index":6}},"doubleSided":true},{"name":"Groundlightmap_02","pbrMetallicRoughness":{"baseColorFactor":[1.0,1.0,1.0,1.0],"metallicFactor":0.0,"roughnessFactor":1.0,"baseColorTexture":{"index":7}},"doubleSided":true},{"name":"Groundlightmap_01","pbrMetallicRoughness":{"baseColorFactor":[1.0,1.0,1.0,1.0],"metallicFactor":0.0,"roughnessFactor":1.0,"baseColorTexture":{"index":8}},"doubleSided":true},{"name":"Tunellightmap_02","pbrMetallicRoughness":{"baseColorFactor":[1.0,1.0,1.0,1.0],"metallicFactor":0.0,"roughnessFactor":1.0,"baseColorTexture":{"index":9}},"doubleSided":false},{"name":"Tunellightmap_03","pbrMetallicRoughness":{"baseColorFactor":[1.0,1.0,1.0,1.0],"metallicFactor":0.0,"roughnessFactor":1.0,"baseColorTexture":{"index":10}},"doubleSided":false},{"name":"Depotlightmap_02","pbrMetallicRoughness":{"baseColorFactor":[1.0,1.0,1.0,1.0],"metallicFactor":0.0,"roughnessFactor":1.0,"baseColorTexture":{"index":9}},"doubleSided":false},{"name":"Depotlightmap_01","pbrMetallicRoughness":{"baseColorFactor":[1.0,1.0,1.0,1.0],"metallicFactor":0.0,"roughnessFactor":1.0,"baseColorTexture":{"index":11}},"doubleSided":false},{"name":"Depotlightmap_04","pbrMetallicRoughness":{"baseColorFactor":[1.0,1.0,1.0,1.0],"metallicFactor":0.0,"roughnessFactor":1.0,"baseColorTexture":{"index":10}},"doubleSided":false},{"name":"Standard_10","pbrMetallicRoughness":{"baseColorFactor":[1.0,1.0,1.0,1.0],"metallicFactor":0.0,"roughnessFactor":1.0,"baseColorTexture":{"index":12}},"doubleSided":false,"alphaMode":"BLEND"},{"name":"Brocklightmap_01","pbrMetallicRoughness":{"baseColorFactor":[1.0,1.0,1.0,1.0],"metallicFactor":0.0,"roughnessFactor":1.0,"baseColorTexture":{"index":13}},"doubleSided":false},{"name":"lighting","pbrMetallicRoughness":{"baseColorFactor":[1.0,1.0,1.0,1.0],"metallicFactor":0.0,"roughnessFactor":1.0,"baseColorTexture":{"index":14}},"doubleSided":false,"alphaMode":"BLEND"},{"name":"Airlightmap_03","pbrMetallicRoughness":{"baseColorFactor":[1.0,1.0,1.0,1.0],"metallicFactor":0.0,"roughnessFactor":1.0,"baseColorTexture":{"index":15}},"doubleSided":false},{"name":"_Material_25_","pbrMetallicRoughness":{"baseColorFactor":[1.0,1.0,1.0,1.0],"metallicFactor":0.0,"roughnessFactor":1.0,"baseColorTexture":{"index":16}},"doubleSided":false},{"name":"Brocklightmap_03","pbrMetallicRoughness":{"baseColorFactor":[1.0,1.0,1.0,1.0],"metallicFactor":0.0,"roughnessFactor":1.0,"baseColorTexture":{"index":17}},"doubleSided":false},{"name":"Tunellightmap_01","pbrMetallicRoughness":{"baseColorFactor":[1.0,1.0,1.0,1.0],"metallicFactor":0.0,"roughnessFactor":1.0,"baseColorTexture":{"index":11}},"doubleSided":false},{"name":"Airlightmap_02","pbrMetallicRoughness":{"baseColorFactor":[1.0,1.0,1.0,1.0],"metallicFactor":0.0,"roughnessFactor":1.0,"baseColorTexture":{"index":9}},"doubleSided":false},{"name":"Objlightmap_02","pbrMetallicRoughness":{"baseColorFactor":[1.0,1.0,1.0,1.0],"metallicFactor":0.0,"roughnessFactor":1.0,"baseColorTexture":{"index":18}},"doubleSided":false},{"name":"Objlightmap_03","pbrMetallicRoughness":{"baseColorFactor":[1.0,1.0,1.0,1.0],"metallicFactor":0.0,"roughnessFactor":1.0,"baseColorTexture":{"index":19}},"doubleSided":false},{"name":"Objlightmap_04","pbrMetallicRoughness":{"baseColorFactor":[1.0,1.0,1.0,1.0],"metallicFactor":0.0,"roughnessFactor":1.0,"baseColorTexture":{"index":15}},"doubleSided":false},{"name":"Objlightmap_05","pbrMetallicRoughness":{"baseColorFactor":[1.0,1.0,1.0,1.0],"metallicFactor":0.0,"roughnessFactor":1.0,"baseColorTexture":{"index":20}},"doubleSided":false},{"name":"Depotlightmap_05","pbrMetallicRoughness":{"baseColorFactor":[1.0,1.0,1.0,1.0],"metallicFactor":0.0,"roughnessFactor":1.0,"baseColorTexture":{"index":21}},"doubleSided":false},{"name":"Airlightmap_04","pbrMetallicRoughness":{"baseColorFactor":[1.0,1.0,1.0,1.0],"metallicFactor":0.0,"roughnessFactor":1.0,"baseColorTexture":{"index":17}},"doubleSided":false},{"name":"Tunellightmap_04","pbrMetallicRoughness":{"baseColorFactor":[1.0,1.0,1.0,1.0],"metallicFactor":0.0,"roughnessFactor":1.0,"baseColorTexture":{"index":13}},"doubleSided":false},{"name":"OutsideLightmap_01","pbrMetallicRoughness":{"baseColorFactor":[1.0,1.0,1.0,1.0],"metallicFactor":0.0,"roughnessFactor":1.0,"baseColorTexture":{"index":22}},"doubleSided":false},{"name":"OutsideLightmap_02","pbrMetallicRoughness":{"baseColorFactor":[1.0,1.0,1.0,1.0],"metallicFactor":0.0,"roughnessFactor":1.0,"baseColorTexture":{"index":23}},"doubleSided":false},{"name":"OutsideLightmap_03","pbrMetallicRoughness":{"baseColorFactor":[1.0,1.0,1.0,1.0],"metallicFactor":0.0,"roughnessFactor":1.0,"baseColorTexture":{"index":5}},"doubleSided":false}],"images":[{"uri":"SC_11_GROUNDIN02.png"},{"uri":"SC_11_BUILDING0top.png"},{"uri":"SC_11_BOX02.png"},{"uri":"SC_11_GROUNDIN.png"},{"uri":"SC_11_GROUNDCRASH.png"},{"uri":"SC_11_DOOR.png"},{"uri":"SC_11_GROUND06.png"},{"uri":"SC_11_GROUND03.png"},{"uri":"SC_11_GROUND01.png"},{"uri":"SC_11_BUILDING01.png"},{"uri":"SC_11_BUILDING04.png"},{"uri":"SC_11_BUILDING02.png"},{"uri":"lighting02.png"},{"uri":"SC_11_WALL01.png"},{"uri":"lighting01.png"},{"uri":"SC_11_GROUND05.png"},{"uri":"SC_11_SKY.png"},{"uri":"SC_11_TOWER.png"},{"uri":"SC_11_BOX01.png"},{"uri":"SC_11_GROUND04.png"},{"uri":"SC_11_line.png"},{"uri":"SC_11_BUILDING03.png"},{"uri":"SC_11_PILLA02.png"},{"uri":"SC_11_WALL03.png"}],"textures":[{"source":0,"sampler":0},{"source":1,"sampler":0},{"source":2,"sampler":0},{"source":3,"sampler":0},{"source":4,"sampler":0},{"source":5,"sampler":0},{"source":6,"sampler":0},{"source":7,"sampler":0},{"source":8,"sampler":0},{"source":9,"sampler":0},{"source":10,"sampler":0},{"source":11,"sampler":0},{"source":12,"sampler":0},{"source":13,"sampler":0},{"source":14,"sampler":0},{"source":15,"sampler":0},{"source":16,"sampler":0},{"source":17,"sampler":0},{"source":18,"sampler":0},{"source":19,"sampler":0},{"source":20,"sampler":0},{"source":21,"sampler":0},{"source":22,"sampler":0},{"source":23,"sampler":0}],"samplers":[{"magFilter":9729,"minFilter":9987,"wrapS":10497,"wrapT":10497}],"buffers":[{"uri":"stage.bin","byteLength":607316}]}
