# Generated from legacy Unity YAML Mesh assets without Unity.
mtllib ArmorBag_13.mtl

o ArmorBag_13_00_Bag
v -0.080380649 -0.393070072 0.0283474978
v -0.194194437 -0.287752092 -0.183701277
v -0.129677281 -0.263920337 -0.014822985
v -0.0817893079 -0.473492801 -0.0837359279
v -1.52040262e-08 -0.473492801 -0.0837359279
v -1.52040262e-08 -0.393070072 0.0283474978
v -1.52040262e-08 -0.41069153 -0.231039345
v -0.106957459 -0.41069153 -0.231039345
v -1.52040262e-08 -0.263920337 -0.014822985
v -0.0837520069 -0.0853351653 0.0595727637
v -1.52040262e-08 -0.263920337 -0.014822985
v -0.299255297 -0.0648882389 0.00488089398
v -0.28794311 0.0786345527 -0.077085793
v -0.0837520069 0.147440255 -0.0750125051
v -0.0402727915 0.00665821135 0.0973792076
v -0.0402727915 0.197105497 -0.0335914418
v -1.52040262e-08 0.153102338 -0.165446162
v -0.333309368 -0.123137668 -0.129281327
v -0.312158958 0.0628050342 -0.168153569
v -1.52040262e-08 0.00665821135 0.0973792076
v -0.106957459 -0.41069153 -0.231039345
v -1.52040262e-08 -0.126253337 -0.315043539
v -0.194194437 -0.287752092 -0.183701277
v -1.52040262e-08 -0.41069153 -0.231039345
v -0.312158958 0.0628050342 -0.168153569
v -0.333309368 -0.123137668 -0.129281327
v -1.52040262e-08 0.153102338 -0.165446162
v -0.0402727915 0.197105497 -0.0335914418
v 0.0402727605 0.197105497 -0.0335914418
v -1.52040262e-08 0.00665821135 0.0973792076
v -1.52040262e-08 0.153102338 -0.165446162
v 0.0837519759 0.147440255 -0.0750125051
v 0.0402727605 0.00665821135 0.0973792076
v 0.0837519759 -0.0853351653 0.0595727637
v -1.52040262e-08 -0.263920337 -0.014822985
v 0.12967725 -0.263920337 -0.014822985
v 0.194194406 -0.287752092 -0.183701277
v 0.080380618 -0.393070072 0.0283474978
v 0.0817892769 -0.473492801 -0.0837359279
v -1.52040262e-08 -0.473492801 -0.0837359279
v -1.52040262e-08 -0.393070072 0.0283474978
v -1.52040262e-08 -0.41069153 -0.231039345
v 0.106957428 -0.41069153 -0.231039345
v 0.287943079 0.0786345527 -0.077085793
v 0.299255266 -0.0648882389 0.00488089398
v 0.333309337 -0.123137668 -0.129281327
v 0.312158927 0.0628050342 -0.168153569
v -1.52040262e-08 -0.263920337 -0.014822985
v -0.247199864 -0.0649083927 0.00777758379
v -0.190463216 0.102044769 0.293877155
v -0.158812255 -0.0761263892 0.0256597754
v -0.278851227 0.113262959 0.275994956
v -0.287324057 0.000686511397 -0.040530175
v -0.318975017 0.178857207 0.227686837
v -0.290811316 0.198124349 0.256074488
v -0.262701199 0.152200848 0.289897084
v -0.200821266 0.144354969 0.302411079
v -0.158812255 -0.0761263892 0.0256597754
v -0.120369949 0.153650761 0.267867476
v -0.0887186012 -0.0245201215 -0.000349552371
v -0.190463216 0.102044769 0.293877155
v -0.121352248 0.229220301 0.21755226
v -0.089701288 0.0510496125 -0.0506647304
v -0.200821266 0.144354969 0.302411079
v -0.151733623 0.180473864 0.28421092
v -0.15242143 0.233390927 0.248978138
v -0.089701288 0.0510496125 -0.0506647304
v -0.192671016 0.271848053 0.180819631
v -0.161019683 0.0936773494 -0.0873977318
v -0.121352248 0.229220301 0.21755226
v -0.280621634 0.249434412 0.185330138
v -0.248970286 0.0712631568 -0.0828872696
v -0.318975017 0.178857207 0.227686837
v -0.287324057 0.000686511397 -0.040530175
v -0.15242143 0.233390927 0.248978138
v -0.202366725 0.263222247 0.223267496
v -0.263940767 0.24753806 0.226420477
v -0.290811316 0.198124349 0.256074488
v -0.200821266 0.144354969 0.302411079
v -0.15242143 0.233390927 0.248978138
v -0.151733623 0.180473864 0.28421092
v -0.202366725 0.263222247 0.223267496
v -0.263940767 0.24753806 0.226420477
v -0.262701199 0.152200848 0.289897084
v -0.290811316 0.198124349 0.256074488
v 0.106957428 -0.41069153 -0.231039345
v 0.194194406 -0.287752092 -0.183701277
v -1.52040262e-08 -0.126253337 -0.315043539
v -1.52040262e-08 -0.41069153 -0.231039345
v 0.312158927 0.0628050342 -0.168153569
v 0.333309337 -0.123137668 -0.129281327
v -1.52040262e-08 0.153102338 -0.165446162
v 0.247199833 -0.0649083927 0.00777758379
v 0.190463185 0.102044769 0.293877155
v 0.278851196 0.113262959 0.275994956
v 0.158812224 -0.0761263892 0.0256597754
v 0.287324026 0.000686511397 -0.040530175
v 0.318974986 0.178857207 0.227686837
v 0.290811285 0.198124349 0.256074488
v 0.262701168 0.152200848 0.289897084
v 0.200821235 0.144354969 0.302411079
v 0.158812224 -0.0761263892 0.0256597754
v 0.120369918 0.153650761 0.267867476
v 0.190463185 0.102044769 0.293877155
v 0.0887185702 -0.0245201215 -0.000349552371
v 0.121352218 0.229220301 0.21755226
v 0.0897012571 0.0510496125 -0.0506647304
v 0.200821235 0.144354969 0.302411079
v 0.151733592 0.180473864 0.28421092
v 0.152421399 0.233390927 0.248978138
v 0.0897012571 0.0510496125 -0.0506647304
v 0.192670985 0.271848053 0.180819631
v 0.121352218 0.229220301 0.21755226
v 0.161019652 0.0936773494 -0.0873977318
v 0.280621603 0.249434412 0.185330138
v 0.248970255 0.0712631568 -0.0828872696
v 0.318974986 0.178857207 0.227686837
v 0.287324026 0.000686511397 -0.040530175
v 0.152421399 0.233390927 0.248978138
v 0.202366694 0.263222247 0.223267496
v 0.263940736 0.24753806 0.226420477
v 0.290811285 0.198124349 0.256074488
v 0.200821235 0.144354969 0.302411079
v 0.152421399 0.233390927 0.248978138
v 0.202366694 0.263222247 0.223267496
v 0.151733592 0.180473864 0.28421092
v 0.263940736 0.24753806 0.226420477
v 0.262701168 0.152200848 0.289897084
v 0.290811285 0.198124349 0.256074488
v -0.0402727915 0.00665821135 0.0973792076
vt 0.157694995 0.397657007
vt 0.432711005 0.217196003
vt 0.334872007 0.448112011
vt 0.135330006 0.235291004
vt 0.0126649998 0.213810995
vt 0.0706060007 0.438021988
vt 0.119630001 0.0207989998
vt 0.257878006 0.080678001
vt 0.213073 0.578359008
vt 0.483473212 0.681300998
vt 0.213075235 0.578359008
vt 0.687403023 0.492841989
vt 0.852088988 0.566582024
vt 0.830767989 0.820150018
vt 0.526988983 0.820460975
vt 0.793094993 0.909147024
vt 0.964505017 0.924677014
vt 0.727006018 0.317699999
vt 0.952655971 0.50058198
vt 0.502561688 0.863860965
vt 0.44758299 0.0303189997
vt 0.564812005 0.214891002
vt 0.572937012 0.0209139995
vt 0.394939005 0.0953229964
vt 0.808372974 0.104330003
vt 0.721611977 0.0074339998
vt 0.762890995 0.298999012
vt 0.776064992 0.995882988
vt 0.793094993 0.909147024
vt 0.502559483 0.863860965
vt 0.964505017 0.924677014
vt 0.830767989 0.820150018
vt 0.526988983 0.820460975
vt 0.483471006 0.681300998
vt 0.213073 0.578359008
vt 0.334872007 0.448112011
vt 0.432711005 0.217196003
vt 0.157694995 0.397657007
vt 0.135330006 0.235291004
vt 0.0126649998 0.213810995
vt 0.0706060007 0.438021988
vt 0.119630001 0.0207989998
vt 0.257878006 0.080678001
vt 0.852088988 0.566582024
vt 0.687403023 0.492841989
vt 0.727006018 0.317699999
vt 0.952655971 0.50058198
vt 0.213073 0.578359008
vt 0.912427008 0.0088630002
vt 0.995575011 0.333564013
vt 0.995575011 0.00886099972
vt 0.912427008 0.333564013
vt 0.826014996 0.00928900018
vt 0.826014996 0.333299994
vt 0.826014996 0.379992008
vt 0.912427008 0.379992008
vt 0.995575011 0.379992008
vt 0.995575011 0.00886099972
vt 0.912427008 0.333564013
vt 0.912427008 0.00886099972
vt 0.995575011 0.333564013
vt 0.826014996 0.333299994
vt 0.826014996 0.00886099972
vt 0.995575011 0.379992008
vt 0.912427008 0.379992008
vt 0.826014996 0.379992008
vt 0.0113580003 0.620115995
vt 0.0826419964 0.944553971
vt 0.0830850005 0.620115995
vt 0.0113580003 0.944553971
vt 0.150249004 0.944553971
vt 0.149801999 0.620115995
vt 0.221504003 0.944553971
vt 0.221504003 0.620115995
vt 0.0113580003 0.990885019
vt 0.0826419964 0.990885019
vt 0.150249004 0.990885019
vt 0.221504003 0.990885019
vt 0.309873015 0.805881977
vt 0.246096 0.938151002
vt 0.246096 0.856661975
vt 0.309873015 0.988931
vt 0.389376998 0.97081399
vt 0.389376998 0.824000001
vt 0.424784005 0.897406995
vt 0.44758299 0.0303189997
vt 0.572937012 0.0209139995
vt 0.564812005 0.214891002
vt 0.394939005 0.0953229964
vt 0.808372974 0.104330003
vt 0.721611977 0.0074339998
vt 0.762890995 0.298999012
vt 0.912427008 0.0088630002
vt 0.995575011 0.333564013
vt 0.912427008 0.333564013
vt 0.995575011 0.00886099972
vt 0.826014996 0.00928900018
vt 0.826014996 0.333299994
vt 0.826014996 0.379992008
vt 0.912427008 0.379992008
vt 0.995575011 0.379992008
vt 0.995575011 0.00886099972
vt 0.912427008 0.333564013
vt 0.995575011 0.333564013
vt 0.912427008 0.00886099972
vt 0.826014996 0.333299994
vt 0.826014996 0.00886099972
vt 0.995575011 0.379992008
vt 0.912427008 0.379992008
vt 0.826014996 0.379992008
vt 0.0113580003 0.620115995
vt 0.0826419964 0.944553971
vt 0.0113580003 0.944553971
vt 0.0830850005 0.620115995
vt 0.150249004 0.944553971
vt 0.149801999 0.620115995
vt 0.221504003 0.944553971
vt 0.221504003 0.620115995
vt 0.0113580003 0.990885019
vt 0.0826419964 0.990885019
vt 0.150249004 0.990885019
vt 0.221504003 0.990885019
vt 0.309873015 0.805881977
vt 0.246096 0.938151002
vt 0.309873015 0.988931
vt 0.246096 0.856661975
vt 0.389376998 0.97081399
vt 0.389376998 0.824000001
vt 0.424784005 0.897406995
vt 0.478130013 0.907261014
vn -0.695461794 -0.439956823 0.568129287
vn -0.725391266 -0.511497786 0.460627318
vn -0.588948575 -0.0363660858 0.807351896
vn -0.618237403 -0.785728744 0.0203188063
vn 0 -0.967452499 0.253052688
vn 0 0.00175523063 0.99999846
vn 0 -0.919886751 -0.392184097
vn -0.560422527 -0.792080056 -0.241941679
vn 0 0.317024533 0.948417337
vn -0.404876988 -0.0390923719 0.913535118
vn 0.00172017937 -0.383531686 0.923526116
vn -0.528011726 -0.359051749 0.769600844
vn -0.490238865 0.681348239 0.543535125
vn -0.544127777 0.629118158 0.555099365
vn -0.621109198 0.0109655909 0.783647319
vn -0.810754014 0.555322373 0.185189067
vn -0.325720437 0.925793855 -0.191864365
vn -0.919730277 -0.202829743 0.336089738
vn -0.635476146 0.771331092 0.0349057997
vn 0 -0.383047321 0.923728721
vn -0.324697304 -0.153531118 -0.933273731
vn -0.329548486 0.0889674975 -0.93993754
vn -0.495919845 -0.106011714 -0.861872974
vn 0 -0.283239577 -0.959049186
vn -0.353598107 0.136157383 -0.925434788
vn -0.486594489 -0.125396459 -0.864581709
vn -0.127853511 0.468206207 -0.874320552
vn 0 0.805343184 0.592808869
vn 0.382620404 0.791281632 0.476943399
vn 0 0.370407984 0.928869165
vn 0.275867404 0.937165986 -0.213581579
vn 0.544127777 0.629118158 0.555099366
vn 0.557998063 0.0927993951 0.824637153
vn 0.404876988 -0.0390923716 0.913535118
vn -0.00172017938 -0.383531686 0.923526116
vn 0.588948577 -0.036366086 0.807351895
vn 0.725391266 -0.511497786 0.460627318
vn 0.695461796 -0.439956822 0.568129286
vn 0.618237404 -0.785728743 0.0203188067
vn 0 -0.967452499 0.253052688
vn 0 0.00175523108 0.99999846
vn 0 -0.919886751 -0.392184097
vn 0.560422528 -0.792080055 -0.241941679
vn 0.490238865 0.681348239 0.543535125
vn 0.528011726 -0.359051749 0.769600844
vn 0.919730277 -0.202829743 0.336089738
vn 0.635476147 0.771331091 0.0349058
vn 0 0.317024533 0.948417337
vn -0.479534355 -0.755973864 0.445589856
vn -0.216893659 -0.78590872 0.579054941
vn -0.21069484 -0.82554516 0.523529248
vn -0.731896667 -0.563407062 0.383275033
vn -0.891738757 -0.418321914 0.172652154
vn -0.896691198 -0.373274282 0.237931096
vn -0.727921176 0.0577893346 0.68322116
vn -0.386423319 -0.163718857 0.907674586
vn -0.22190409 -0.244701295 0.943864318
vn 0.628573655 -0.611605431 0.480451825
vn 0.814002451 -0.377007002 0.44188882
vn 0.956716607 -0.177371301 0.230722249
vn 0.618816522 -0.565923565 0.544790446
vn 0.98610817 0.100748828 0.13206192
vn 0.99514498 0.0631832715 0.07546087
vn 0.401444055 -0.0858559422 0.911850551
vn 0.621688592 0.281585376 0.730898742
vn 0.67379128 0.415563731 0.610992714
vn 0.611645972 0.690347966 -0.386405086
vn 0.350624492 0.837322317 -0.419468477
vn 0.0540092043 0.834677462 -0.548084429
vn 0.601948031 0.731886171 -0.319376267
vn -0.506951564 0.733960216 -0.451998354
vn -0.742911963 0.513845262 -0.429004501
vn -0.905716228 0.341496423 -0.251114134
vn -0.901135062 0.304494596 -0.308607584
vn 0.38886795 0.88152871 0.267747737
vn -0.0574880789 0.980844119 0.186118066
vn -0.616892169 0.73395638 0.284169111
vn -0.734969987 0.594933957 0.325380861
vn -0.0978240504 0.550668773 0.828971868
vn -0.0978295255 0.550668628 0.828971318
vn -0.097826638 0.550667652 0.828972307
vn -0.0978239436 0.550669499 0.828971398
vn -0.0978185984 0.550668814 0.828972484
vn -0.0978187398 0.550667921 0.82897306
vn -0.0978088631 0.550668548 0.828973809
vn 0.324697305 -0.153531118 -0.933273731
vn 0.495919846 -0.106011714 -0.861872974
vn 0.329548487 0.0889674974 -0.93993754
vn 0 -0.283239577 -0.959049186
vn 0.353598107 0.136157383 -0.925434787
vn 0.486594489 -0.125396459 -0.864581709
vn 0.127853511 0.468206207 -0.874320552
vn 0.479534355 -0.755973864 0.445589856
vn 0.216893659 -0.78590872 0.579054941
vn 0.731896667 -0.563407062 0.383275033
vn 0.21069484 -0.82554516 0.523529248
vn 0.891738757 -0.418321914 0.172652154
vn 0.896691198 -0.373274282 0.237931096
vn 0.727921176 0.0577893346 0.68322116
vn 0.386423319 -0.163718857 0.907674586
vn 0.22190409 -0.244701295 0.943864318
vn -0.628573655 -0.611605431 0.480451825
vn -0.814002451 -0.377007002 0.44188882
vn -0.618816522 -0.565923565 0.544790446
vn -0.956716607 -0.177371301 0.230722249
vn -0.98610817 0.100748828 0.13206192
vn -0.99514498 0.0631832715 0.07546087
vn -0.401444055 -0.0858559422 0.911850551
vn -0.621688592 0.281585376 0.730898742
vn -0.67379128 0.415563731 0.610992714
vn -0.611645972 0.690347966 -0.386405086
vn -0.350624492 0.837322317 -0.419468477
vn -0.601948031 0.731886171 -0.319376267
vn -0.0540092043 0.834677462 -0.548084429
vn 0.506951564 0.733960216 -0.451998354
vn 0.742911963 0.513845262 -0.429004501
vn 0.905716228 0.341496423 -0.251114134
vn 0.901135062 0.304494596 -0.308607584
vn -0.38886795 0.88152871 0.267747737
vn 0.0574880789 0.980844119 0.186118066
vn 0.616892169 0.73395638 0.284169111
vn 0.734969987 0.594933957 0.325380861
vn 0.0978240504 0.550668773 0.828971868
vn 0.0978295255 0.550668628 0.828971318
vn 0.0978239436 0.550669499 0.828971398
vn 0.097826638 0.550667652 0.828972307
vn 0.0978185984 0.550668814 0.828972484
vn 0.0978187398 0.550667921 0.82897306
vn 0.0978088631 0.550668548 0.828973809
vn 0 0.566640869 0.823964881

g ArmorBag_13_00_Bag_submesh_0
usemtl 14
f 1/1/1 3/3/3 2/2/2
f 1/1/1 2/2/2 4/4/4
f 5/5/5 1/1/1 4/4/4
f 5/5/5 6/6/6 1/1/1
f 6/6/6 3/3/3 1/1/1
f 7/7/7 5/5/5 4/4/4
f 7/7/7 4/4/4 8/8/8
f 8/8/8 4/4/4 2/2/2
f 6/6/6 9/9/9 3/3/3
f 2/2/2 3/3/3 10/10/10
f 10/10/10 3/3/3 11/11/11
f 12/12/12 2/2/2 10/10/10
f 10/10/10 13/13/13 12/12/12
f 10/10/10 14/14/14 13/13/13
f 14/14/14 10/10/10 15/15/15
f 15/15/15 10/10/10 11/11/11
f 14/14/14 15/15/15 16/16/16
f 17/17/17 14/14/14 16/16/16
f 17/17/17 13/13/13 14/14/14
f 12/12/12 18/18/18 2/2/2
f 18/18/18 12/12/12 13/13/13
f 18/18/18 13/13/13 19/19/19
f 17/17/17 19/19/19 13/13/13
f 15/15/15 11/11/11 20/20/20
f 21/21/21 23/23/23 22/22/22
f 21/21/21 22/22/22 24/24/24
f 25/25/25 22/22/22 23/23/23
f 25/25/25 23/23/23 26/26/26
f 22/22/22 25/25/25 27/27/27
f 28/28/28 30/30/30 29/29/29
f 31/31/31 28/28/28 29/29/29
f 31/31/31 29/29/29 32/32/32
f 32/32/32 29/29/29 33/33/33
f 30/30/30 33/33/33 29/29/29
f 32/32/32 33/33/33 34/34/34
f 35/35/35 34/34/34 33/33/33
f 35/35/35 33/33/33 30/30/30
f 34/34/34 35/35/35 36/36/36
f 37/37/37 34/34/34 36/36/36
f 38/38/38 37/37/37 36/36/36
f 38/38/38 39/39/39 37/37/37
f 40/40/40 39/39/39 38/38/38
f 40/40/40 38/38/38 41/41/41
f 36/36/36 41/41/41 38/38/38
f 42/42/42 39/39/39 40/40/40
f 42/42/42 43/43/43 39/39/39
f 43/43/43 37/37/37 39/39/39
f 34/34/34 44/44/44 32/32/32
f 31/31/31 32/32/32 44/44/44
f 34/34/34 45/45/45 44/44/44
f 45/45/45 34/34/34 37/37/37
f 45/45/45 37/37/37 46/46/46
f 46/46/46 44/44/44 45/45/45
f 46/46/46 47/47/47 44/44/44
f 31/31/31 44/44/44 47/47/47
f 36/36/36 48/48/48 41/41/41
f 49/49/49 51/51/51 50/50/50
f 49/49/49 50/50/50 52/52/52
f 53/53/53 49/49/49 52/52/52
f 53/53/53 52/52/52 54/54/54
f 52/52/52 55/55/55 54/54/54
f 52/52/52 56/56/56 55/55/55
f 56/56/56 52/52/52 50/50/50
f 56/56/56 50/50/50 57/57/57
f 58/58/58 60/60/60 59/59/59
f 58/58/58 59/59/59 61/61/61
f 60/60/60 62/62/62 59/59/59
f 60/60/60 63/63/63 62/62/62
f 64/64/64 61/61/61 59/59/59
f 64/64/64 59/59/59 65/65/65
f 65/65/65 59/59/59 62/62/62
f 65/65/65 62/62/62 66/66/66
f 67/67/67 69/69/69 68/68/68
f 67/67/67 68/68/68 70/70/70
f 69/69/69 71/71/71 68/68/68
f 69/69/69 72/72/72 71/71/71
f 72/72/72 73/73/73 71/71/71
f 72/72/72 74/74/74 73/73/73
f 75/75/75 70/70/70 68/68/68
f 75/75/75 68/68/68 76/76/76
f 76/76/76 68/68/68 71/71/71
f 76/76/76 71/71/71 77/77/77
f 77/77/77 71/71/71 73/73/73
f 77/77/77 73/73/73 78/78/78
f 79/79/79 81/81/81 80/80/80
f 79/79/79 80/80/80 82/82/82
f 79/79/79 82/82/82 83/83/83
f 79/79/79 83/83/83 84/84/84
f 84/84/84 83/83/83 85/85/85
f 86/86/86 88/88/88 87/87/87
f 86/86/86 89/89/89 88/88/88
f 90/90/90 87/87/87 88/88/88
f 90/90/90 91/91/91 87/87/87
f 88/88/88 92/92/92 90/90/90
f 93/93/93 95/95/95 94/94/94
f 93/93/93 94/94/94 96/96/96
f 97/97/97 95/95/95 93/93/93
f 97/97/97 98/98/98 95/95/95
f 95/95/95 98/98/98 99/99/99
f 95/95/95 99/99/99 100/100/100
f 100/100/100 94/94/94 95/95/95
f 100/100/100 101/101/101 94/94/94
f 102/102/102 104/104/104 103/103/103
f 102/102/102 103/103/103 105/105/105
f 105/105/105 103/103/103 106/106/106
f 105/105/105 106/106/106 107/107/107
f 108/108/108 103/103/103 104/104/104
f 108/108/108 109/109/109 103/103/103
f 109/109/109 106/106/106 103/103/103
f 109/109/109 110/110/110 106/106/106
f 111/111/111 113/113/113 112/112/112
f 111/111/111 112/112/112 114/114/114
f 114/114/114 112/112/112 115/115/115
f 114/114/114 115/115/115 116/116/116
f 116/116/116 115/115/115 117/117/117
f 116/116/116 117/117/117 118/118/118
f 119/119/119 112/112/112 113/113/113
f 119/119/119 120/120/120 112/112/112
f 120/120/120 115/115/115 112/112/112
f 120/120/120 121/121/121 115/115/115
f 121/121/121 117/117/117 115/115/115
f 121/121/121 122/122/122 117/117/117
f 123/123/123 125/125/125 124/124/124
f 123/123/123 124/124/124 126/126/126
f 123/123/123 127/127/127 125/125/125
f 123/123/123 128/128/128 127/127/127
f 128/128/128 129/129/129 127/127/127
f 28/28/28 130/130/130 30/30/30
