# Generated from legacy Unity YAML Mesh assets without Unity.
mtllib ArmorBag_06.mtl

o ArmorBag_06_00_Bag
v -0.246458799 -0.34574309 -0.123178363
v -0.169717611 -0.313441962 0.00651432574
v -0.195064799 -0.443059981 -0.118664406
v -0.0800740131 -0.5123564 -0.112164229
v -1.32680579e-08 -0.332030058 0.0571926087
v -0.266610012 -0.0409479141 -0.139905959
v -0.160924018 -0.0363196284 -0.00464065373
v -1.32680579e-08 -0.0449948758 0.0690376833
v -0.178717599 0.0156538486 -0.133964151
v -1.32680579e-08 -0.332030058 0.0571926087
v -1.32680579e-08 -0.481433541 -0.0459236577
v -0.0810896092 0.134382993 -0.0801975131
v -0.0801380062 0.131821901 -0.0335018411
v -1.32680579e-08 -0.481433541 -0.0459236577
v -0.0523968087 -0.582452834 -0.117809907
v -1.32680579e-08 -0.595274627 -0.0750330612
v 0.0523967846 -0.582452834 -0.117809907
v 0.0800739816 -0.5123564 -0.112164229
v -1.32680579e-08 -0.332030058 0.0571926087
v 0.169717579 -0.313441962 0.00651432574
v 0.195064767 -0.443059981 -0.118664406
v 0.246458768 -0.34574309 -0.123178363
v 0.266609981 -0.0409479141 -0.139905959
v 0.160923987 -0.0363196284 -0.00464065373
v -1.32680579e-08 -0.0449948758 0.0690376833
v 0.178717568 0.0156538486 -0.133964151
v -1.32680579e-08 -0.332030058 0.0571926087
v -1.32680579e-08 -0.481433541 -0.0459236577
v 0.0810895777 0.134382993 -0.0801975131
v 0.0801379747 0.131821901 -0.0335018411
v -0.0810896092 0.134382993 -0.0801975131
v -0.0801380062 0.131821901 -0.0335018411
v -0.178717599 0.0156538486 -0.133964151
v -0.266610012 -0.0409479141 -0.139905959
v -0.180549205 -0.46073103 -0.212293118
v -0.246458799 -0.34574309 -0.123178363
v -0.195064799 -0.443059981 -0.118664406
v -0.0800740131 -0.5123564 -0.112164229
v -0.0744960093 -0.532761872 -0.210520536
v -0.0523968087 -0.582452834 -0.117809907
v 0.0523967846 -0.582452834 -0.117809907
v 0.0744959778 -0.532761872 -0.210520536
v 0.0800739816 -0.5123564 -0.112164229
v 0.180549174 -0.46073103 -0.212293118
v 0.195064767 -0.443059981 -0.118664406
v 0.246458768 -0.34574309 -0.123178363
v 0.266609981 -0.0409479141 -0.139905959
v 0.178717568 0.0156538486 -0.133964151
v 0.0810895777 0.134382993 -0.0801975131
v -0.0810896092 0.134382993 -0.0801975131
v -1.32680579e-08 -0.595274627 -0.0750330612
vt 0.538269997 0.0362230018
vt 0.467041999 0.238294005
vt 0.369917005 0.0128180003
vt 0.174041003 0.0478090011
vt 0.286671996 0.410728008
vt 0.931802988 0.265513003
vt 0.787001014 0.458900988
vt 0.627976 0.662750006
vt 0.987823009 0.420632988
vt 0.286671996 0.410728008
vt 0.132053003 0.201040998
vt 0.994153023 0.664556026
vt 0.93404597 0.676388025
vt 0.132053003 0.201040998
vt 0.0733729973 0.0144880004
vt 0.00946499966 0.0912080035
vt 0.0733729973 0.0144880004
vt 0.174041003 0.0478090011
vt 0.286671996 0.410728008
vt 0.467041999 0.238294005
vt 0.369917005 0.0128180003
vt 0.538269997 0.0362230018
vt 0.931802988 0.265513003
vt 0.787001014 0.458900988
vt 0.627976 0.662750006
vt 0.987823009 0.420632988
vt 0.286671996 0.410728008
vt 0.132053003 0.201040998
vt 0.994153023 0.664556026
vt 0.93404597 0.676388025
vt 0.934956014 0.891425014
vt 0.866750002 0.882974982
vt 0.103179999 0.905997992
vt 0.143225998 0.974731028
vt 0.443991989 0.883763015
vt 0.38033101 0.994457006
vt 0.479997009 0.976083994
vt 0.575209975 0.894069016
vt 0.498356998 0.824541986
vt 0.605588973 0.829227984
vt 0.606468976 0.731774986
vt 0.499413997 0.734827995
vt 0.577376008 0.666390002
vt 0.446465999 0.674799979
vt 0.483698994 0.582855999
vt 0.384494007 0.562677979
vt 0.147350997 0.578272998
vt 0.105410002 0.644546986
vt 0.00946499966 0.715144992
vt 0.00845399965 0.833773017
vt 0.646246016 0.780996978
vn -0.840647595 -0.121693536 0.527733175
vn -0.57564948 -0.171063333 0.799603034
vn -0.559920226 -0.516315391 0.6480029
vn -0.367635774 -0.55130343 0.748938225
vn -0.290385737 -0.583407204 0.758493347
vn -0.817108882 0.117908592 0.564296587
vn -0.646197707 0.262954405 0.716438067
vn -0.361905158 0.0845209572 0.92837539
vn -0.700768187 0.62334663 0.346933605
vn -0.329465671 -0.157521637 0.930934641
vn -0.419004185 -0.515761649 0.747278672
vn -0.833084763 0.497049857 0.242716331
vn -0.53322949 0.385457907 0.753052795
vn -3.33484985e-17 -0.293026432 0.956104341
vn -0.598352944 -0.234782354 0.766062008
vn 0 -0.247731526 0.968828721
vn 0.598352956 -0.234782331 0.766062006
vn 0.367635785 -0.551303428 0.748938221
vn 0.290385744 -0.583407206 0.758493344
vn 0.575649487 -0.171063333 0.799603029
vn 0.559920226 -0.516315391 0.6480029
vn 0.840647595 -0.121693536 0.527733175
vn 0.817108882 0.117908592 0.564296587
vn 0.646197713 0.262954407 0.716438061
vn 0.296727952 0.172560833 0.939241865
vn 0.700768187 0.62334663 0.346933605
vn 0.329465681 -0.157521634 0.930934638
vn 0.419004206 -0.515761644 0.747278664
vn 0.728487391 0.647432688 0.223913008
vn 0.261851351 0.603343053 0.753266905
vn 0 0.998499318 0.0547641544
vn 0 0.639561093 0.768740274
vn -0.00352321071 0.200216943 -0.979745254
vn -0.457349144 0.0592451769 -0.88731154
vn -0.205447756 0.0208523173 -0.978445911
vn -0.887617781 -0.18031623 -0.423816862
vn -0.708170999 -0.705653368 0.0233914627
vn -0.646818075 -0.756897419 0.0934487837
vn -0.223942341 -0.605195346 -0.763929592
vn -0.35155113 -0.87581288 -0.330701681
vn 0.19747765 -0.894346911 -0.401430169
vn 0.401938073 -0.786778025 -0.468429423
vn 0.646818086 -0.75689741 0.0934487806
vn 0.121597777 0.0752542057 -0.98972258
vn 0.708170999 -0.705653368 0.0233914627
vn 0.887617781 -0.18031623 -0.423816862
vn 0.457349144 0.0592451769 -0.88731154
vn 0.00616120965 0.207898604 -0.978130978
vn 0 0.412523453 -0.91094698
vn 0 0.412523453 -0.91094698
vn 0 -0.957895655 -0.287116552

g ArmorBag_06_00_Bag_submesh_0
usemtl 07
f 1/1/1 3/3/3 2/2/2
f 2/2/2 3/3/3 4/4/4
f 4/4/4 5/5/5 2/2/2
f 1/1/1 2/2/2 6/6/6
f 6/6/6 2/2/2 7/7/7
f 7/7/7 2/2/2 8/8/8
f 6/6/6 7/7/7 9/9/9
f 10/10/10 8/8/8 2/2/2
f 4/4/4 11/11/11 10/10/10
f 12/12/12 9/9/9 7/7/7
f 12/12/12 7/7/7 13/13/13
f 8/8/8 13/13/13 7/7/7
f 14/14/14 4/4/4 15/15/15
f 14/14/14 15/15/15 16/16/16
f 14/14/14 16/16/16 17/17/17
f 14/14/14 17/17/17 18/18/18
f 18/18/18 20/20/20 19/19/19
f 20/20/20 18/18/18 21/21/21
f 22/22/22 20/20/20 21/21/21
f 22/22/22 23/23/23 20/20/20
f 20/20/20 23/23/23 24/24/24
f 24/24/24 25/25/25 20/20/20
f 23/23/23 26/26/26 24/24/24
f 27/27/27 20/20/20 25/25/25
f 18/18/18 27/27/27 28/28/28
f 29/29/29 24/24/24 26/26/26
f 29/29/29 30/30/30 24/24/24
f 25/25/25 24/24/24 30/30/30
f 31/31/31 30/30/30 29/29/29
f 31/31/31 32/32/32 30/30/30
f 25/25/25 30/30/30 32/32/32
f 33/33/33 35/35/35 34/34/34
f 35/35/35 36/36/36 34/34/34
f 36/36/36 35/35/35 37/37/37
f 35/35/35 38/38/38 37/37/37
f 35/35/35 39/39/39 38/38/38
f 38/38/38 39/39/39 40/40/40
f 39/39/39 41/41/41 40/40/40
f 39/39/39 42/42/42 41/41/41
f 43/43/43 41/41/41 42/42/42
f 44/44/44 43/43/43 42/42/42
f 44/44/44 42/42/42 39/39/39
f 44/44/44 39/39/39 35/35/35
f 44/44/44 35/35/35 33/33/33
f 44/44/44 45/45/45 43/43/43
f 46/46/46 45/45/45 44/44/44
f 44/44/44 47/47/47 46/46/46
f 44/44/44 48/48/48 47/47/47
f 44/44/44 33/33/33 48/48/48
f 49/49/49 48/48/48 33/33/33
f 49/49/49 33/33/33 50/50/50
f 40/40/40 41/41/41 51/51/51
