# Generated from legacy Unity YAML Mesh assets without Unity.
mtllib ArmorBag_18.mtl

o ArmorBag_18_00_Bag
v 1.74523854e-10 0.0885169059 -0.00623942632
v -0.185246453 -0.105974808 0.0792501345
v -0.272562265 0.172408596 -0.0627378598
v 1.74523854e-10 -0.0973003581 0.0789077282
v -0.152260497 -0.137591064 0.0873539522
v 1.74523854e-10 -0.244652867 0.101735368
v -0.153287739 -0.250588089 0.0996808782
v -0.116991751 -0.285628498 0.0967132673
v 1.74523854e-10 -0.338816941 0.0904356539
v -0.111284845 -0.332196891 0.0914629027
v -0.272562265 0.162935033 -0.0742658302
v -0.185246453 -0.113393798 0.064069733
v -0.152260497 -0.145695001 0.0718311295
v -0.153287739 -0.261202931 0.0831307992
v -0.153287739 -0.250588089 0.0996808782
v -0.152260497 -0.137591064 0.0873539522
v -0.116991751 -0.297156483 0.0797066614
v -0.111284845 -0.343839049 0.0741138682
v 1.74523854e-10 -0.350459069 0.0730866119
v -0.0300183725 -0.538444817 0.00779949222
v 1.74523854e-10 -0.538444817 0.00779949222
v 1.74523854e-10 -0.0192296803 -0.156217158
v -0.242543906 0.125954226 -0.0836251974
v -0.242543906 0.0869190246 -0.20392698
v 1.74523854e-10 0.0810979158 -0.019137051
v -0.272562265 0.162935033 -0.0742658302
v -0.185246453 -0.113393798 0.064069733
v -0.165957078 -0.105404161 0.0617869608
v -0.152260497 -0.145695001 0.0718311295
v -0.132058024 -0.139303133 0.0704614818
v -0.153287739 -0.261202931 0.0831307992
v -0.132058024 -0.272502542 -0.229151562
v -0.132058024 -0.139303133 0.0704614818
v -0.132058024 -0.256637335 0.0831307992
v -0.0957620442 -0.291906059 0.0801632255
v -0.0957620442 -0.395657837 -0.0772335306
v -0.111284845 -0.343839049 0.0741138682
v -0.132058024 -0.256637335 0.0831307992
v -0.116991751 -0.297156483 0.0797066614
v -0.0300183725 -0.538444817 0.00779949222
v -0.242543906 0.125954226 -0.0836251974
v -0.165957078 -0.105404161 0.0617869608
v 1.74523854e-10 0.0810979158 -0.019137051
v -0.272562265 0.172408596 -0.0627378598
v -0.272562265 0.162935033 -0.0742658302
v 1.74523854e-10 -0.092506431 0.121595465
v -0.135824606 0.131546989 0.0148761664
v 1.74523854e-10 0.116823152 0.0285727531
v -0.103409305 -0.0945609882 0.122166149
v 1.74523854e-10 -0.225021094 0.13905859
v -0.103409305 -0.208699331 0.139971718
v -0.0699667782 -0.24476704 0.139286846
v 1.74523854e-10 -0.300808847 0.134721339
v -0.0697385147 -0.302863419 0.135292023
v 1.74523854e-10 0.0732222944 -0.0152563574
v -0.120986611 0.0886310488 -0.0286105387
v -0.0552429408 -0.302064449 0.0769673288
v 1.74523854e-10 -0.302064449 0.0769673288
v -0.120986611 0.0886310488 -0.0286105387
v -0.103409305 -0.0945609882 0.122166149
v -0.0889137313 -0.214520395 0.0817611665
v -0.135824606 0.131546989 0.0148761664
v -0.103409305 -0.208699331 0.139971718
v -0.0699667782 -0.24476704 0.139286846
v -0.0554712191 -0.245223522 0.0809621885
v -0.0697385147 -0.302863419 0.135292023
v -0.0552429408 -0.302064449 0.0769673288
v -0.0304749161 0.0814402252 0.159032837
v 1.74523854e-10 -0.0692223161 0.219754398
v -0.0229417961 -0.0694506317 0.219754398
v 1.74523854e-10 0.0825816542 0.158690438
v 1.74523854e-10 -0.20436205 0.23721756
v -0.0229417961 -0.210068971 0.23641859
v -0.0676840246 0.114083901 0.136775896
v 1.74523854e-10 0.206079289 0.0931750536
v -0.0494218878 0.0590692014 0.113035083
v -0.0429159962 -0.0826905593 0.170332506
v -0.0535308681 -0.212808311 0.185398743
v 1.74523854e-10 -0.28962335 0.192589432
v -0.0872016624 0.0877179354 0.0935174748
v -0.103181042 0.171837822 0.0351927951
v -0.084804751 0.206535891 0.09226197
v 1.74523854e-10 0.171837822 0.0358776338
v 1.74523854e-10 0.171837822 0.0358776338
v 1.74523854e-10 -0.28962335 0.192589432
v 1.74523854e-10 -0.0826905593 0.170332506
v -0.0494218878 0.0590692014 0.113035083
v -0.0429159962 -0.0826905593 0.170332506
v 1.74523854e-10 0.060895443 0.112350278
v 1.74523854e-10 -0.195573434 0.187224954
v -0.0535308681 -0.212808311 0.185398743
v 1.74523854e-10 -0.28962335 0.192589432
v 1.74523854e-10 0.171837822 0.0358776338
v -0.103181042 0.171837822 0.0351927951
v -0.0872016624 0.0877179354 0.0935174748
v -0.0393777192 -0.387782276 0.13300924
v 1.74523854e-10 -0.334251493 0.146705836
v 1.74523854e-10 -0.435606241 0.117258139
v -0.0451987684 -0.334822148 0.14647755
v 1.74523854e-10 -0.274899513 0.152869344
v -0.0530743077 -0.224107981 0.155722797
v 1.74523854e-10 -0.27752471 0.0767390504
v 1.74523854e-10 -0.274899513 0.152869344
v -0.0445139445 -0.235293478 0.0795925409
v 0.0530743077 -0.224107981 0.155722797
v 0.0445139445 -0.235293478 0.0795925409
v 1.74523854e-10 -0.274899513 0.152869344
v 1.74523854e-10 -0.274899513 0.152869344
v 0.0451987684 -0.334822148 0.14647755
v 1.74523854e-10 -0.334251493 0.146705836
v 0.0393777192 -0.387782276 0.13300924
v 1.74523854e-10 -0.435606241 0.117258139
v -0.0451987684 -0.334822148 0.14647755
v -0.0393777192 -0.387782276 0.13300924
v -0.0334425271 -0.367465615 0.0603031442
v 1.74523854e-10 -0.435606241 0.117258139
v 1.74523854e-10 -0.409582675 0.0464923866
v -0.0530743077 -0.224107981 0.155722797
v -0.0445139445 -0.235293478 0.0795925409
v 0.0334425271 -0.367465615 0.0603031442
v 0.0393777192 -0.387782276 0.13300924
v 0.0451987684 -0.334822148 0.14647755
v 0.0530743077 -0.224107981 0.155722797
v 0.0445139445 -0.235293478 0.0795925409
v -0.0511339605 -0.470304251 0.0202405676
v -0.031616319 -0.387439907 0.0474055186
v -0.074646458 -0.397027463 0.0401006453
v 1.74523854e-10 -0.524862349 0.00814189762
v -0.031616319 -0.563212872 0.011794311
v 1.74523854e-10 -0.563212872 0.011794311
v -0.0722495466 -0.481261551 0.033252351
v -0.0804675072 -0.407984734 0.0609879419
v -0.031616319 -0.398397118 0.11760056
v 1.74523854e-10 -0.387439907 0.100593954
v 1.74523854e-10 -0.398397118 0.11760056
v 1.74523854e-10 -0.563212872 0.011794311
v -0.031616319 -0.398397118 0.11760056
v 1.74523854e-10 -0.398397118 0.11760056
v -0.031616319 -0.563212872 0.011794311
v -0.0722495466 -0.481261551 0.033252351
v -0.0804675072 -0.407984734 0.0609879419
v -0.132058024 -0.272502542 -0.229151562
v 1.74523854e-10 -0.0192296803 -0.156217158
v -0.242543906 0.0869190246 -0.20392698
v 1.74523854e-10 -0.272502542 -0.229151562
v -0.0957620442 -0.395657837 -0.0772335306
v 1.74523854e-10 -0.395657837 -0.0772335306
v -0.0300183725 -0.538444817 0.00779949222
v 1.74523854e-10 -0.538444817 0.00779949222
v -0.261947393 -0.289280862 0.0983112007
v -0.318902403 -0.191007778 -0.0429919846
v -0.276214689 -0.12252488 0.0496882983
v -0.29071027 -0.328087926 0.014990245
v -0.20465 -0.289280862 0.0983112007
v -0.187985793 -0.0951316208 0.0416986272
v -0.16036433 -0.108371668 -0.0811141804
v -0.176001281 -0.328087926 0.014990245
v -0.275986433 -0.249674931 -0.136699557
v -0.261947393 -0.367009163 -0.0683307424
v -0.196317881 -0.175713271 -0.160554454
v -0.20465 -0.367009163 -0.0683307424
v -0.176001281 -0.328087926 0.014990245
v -0.16036433 -0.108371668 -0.0811141804
v -0.29733029 -0.0450248718 -0.111474968
v -0.265371591 0.0395516157 -0.0342033058
v -0.197459236 -0.0242518187 -0.0045273602
v -0.265371591 -0.111909986 -0.190344542
v -0.20465 -0.367009163 -0.0683307424
v -0.29071027 -0.328087926 0.014990245
v -0.176001281 -0.328087926 0.014990245
v -0.261947393 -0.367009163 -0.0683307424
v -0.20465 -0.289280862 0.0983112007
v -0.261947393 -0.289280862 0.0983112007
v -0.16036433 -0.108371668 -0.0811141804
v -0.265371591 -0.111909986 -0.190344542
v -0.196317881 -0.175713271 -0.160554454
v -0.29733029 -0.0450248718 -0.111474968
v -0.265371591 0.0395516157 -0.0342033058
v -0.197459236 -0.0242518187 -0.0045273602
v -0.279981256 -0.266453207 -0.000874982215
v -0.235010788 -0.395315379 0.0347361378
v -0.257496029 -0.300009847 -0.0577158779
v -0.212525517 -0.300009847 -0.0577158779
v -0.257496029 -0.232782409 0.0558517501
v -0.235010788 -0.395315379 0.0347361378
v -0.212525517 -0.232782409 0.0558517501
v -0.235010788 -0.395315379 0.0347361378
v -0.190154403 -0.266453207 -0.000874982215
v -0.235010788 -0.395315379 0.0347361378
v -0.212525517 -0.300009847 -0.0577158779
v -0.057183288 -0.0716191903 0.0884953439
v -0.0312738977 -0.21258001 0.195214629
v -0.053416729 -0.227874488 0.132552698
v -0.0344697721 -0.0353231877 0.168848738
v -0.0682547018 0.116138324 0.0179578997
v -0.0463401526 0.150836423 0.0737715513
v 1.74523854e-10 0.109175965 0.0237789676
v 1.74523854e-10 0.14330326 0.0800491348
v 1.74523854e-10 -0.273301601 0.195671201
v 1.74523854e-10 -0.268735975 0.130041644
v 0.0312738977 -0.21258001 0.195214629
v 0.053416729 -0.227874488 0.132552698
v 0.057183288 -0.0716191903 0.0884953439
v 0.0344697721 -0.0353231877 0.168848738
v 0.0682547018 0.116138324 0.0179578997
v 0.0463401526 0.150836423 0.0737715513
v 1.74523854e-10 0.109175965 0.0237789676
v 1.74523854e-10 0.14330326 0.0800491348
v 1.74523854e-10 -0.273301601 0.195671201
v 1.74523854e-10 -0.268735975 0.130041644
v 1.74523854e-10 0.0885169059 -0.00623942632
v 0.185246453 -0.105974808 0.0792501345
v 1.74523854e-10 -0.0973003581 0.0789077282
v 0.272562265 0.172408596 -0.0627378598
v 0.152260497 -0.137591064 0.0873539522
v 1.74523854e-10 -0.244652867 0.101735368
v 0.153287739 -0.250588089 0.0996808782
v 0.116991751 -0.285628498 0.0967132673
v 1.74523854e-10 -0.338816941 0.0904356539
v 0.111284845 -0.332196891 0.0914629027
v 0.272562265 0.162935033 -0.0742658302
v 0.185246453 -0.113393798 0.064069733
v 0.152260497 -0.145695001 0.0718311295
v 0.153287739 -0.261202931 0.0831307992
v 0.153287739 -0.250588089 0.0996808782
v 0.152260497 -0.137591064 0.0873539522
v 0.116991751 -0.297156483 0.0797066614
v 0.111284845 -0.343839049 0.0741138682
v 1.74523854e-10 -0.350459069 0.0730866119
v 0.0300183725 -0.538444817 0.00779949222
v 1.74523854e-10 -0.538444817 0.00779949222
v 1.74523854e-10 -0.0192296803 -0.156217158
v 0.242543906 0.125954226 -0.0836251974
v 1.74523854e-10 0.0810979158 -0.019137051
v 0.242543906 0.0869190246 -0.20392698
v 0.272562265 0.162935033 -0.0742658302
v 0.185246453 -0.113393798 0.064069733
v 0.165957078 -0.105404161 0.0617869608
v 0.152260497 -0.145695001 0.0718311295
v 0.132058024 -0.139303133 0.0704614818
v 0.153287739 -0.261202931 0.0831307992
v 0.132058024 -0.272502542 -0.229151562
v 0.132058024 -0.139303133 0.0704614818
v 0.132058024 -0.256637335 0.0831307992
v 0.0957620442 -0.291906059 0.0801632255
v 0.0957620442 -0.395657837 -0.0772335306
v 0.111284845 -0.343839049 0.0741138682
v 0.132058024 -0.256637335 0.0831307992
v 0.116991751 -0.297156483 0.0797066614
v 0.0300183725 -0.538444817 0.00779949222
v 0.242543906 0.125954226 -0.0836251974
v 0.165957078 -0.105404161 0.0617869608
v 1.74523854e-10 0.0810979158 -0.019137051
v 0.272562265 0.172408596 -0.0627378598
v 0.272562265 0.162935033 -0.0742658302
v 1.74523854e-10 -0.092506431 0.121595465
v 0.135824606 0.131546989 0.0148761664
v 0.103409305 -0.0945609882 0.122166149
v 1.74523854e-10 0.116823152 0.0285727531
v 1.74523854e-10 -0.225021094 0.13905859
v 0.103409305 -0.208699331 0.139971718
v 0.0699667782 -0.24476704 0.139286846
v 1.74523854e-10 -0.300808847 0.134721339
v 0.0697385147 -0.302863419 0.135292023
v 1.74523854e-10 0.0732222944 -0.0152563574
v 0.120986611 0.0886310488 -0.0286105387
v 0.0552429408 -0.302064449 0.0769673288
v 1.74523854e-10 -0.302064449 0.0769673288
v 0.120986611 0.0886310488 -0.0286105387
v 0.103409305 -0.0945609882 0.122166149
v 0.135824606 0.131546989 0.0148761664
v 0.0889137313 -0.214520395 0.0817611665
v 0.103409305 -0.208699331 0.139971718
v 0.0699667782 -0.24476704 0.139286846
v 0.0554712191 -0.245223522 0.0809621885
v 0.0697385147 -0.302863419 0.135292023
v 0.0552429408 -0.302064449 0.0769673288
v 0.0304749161 0.0814402252 0.159032837
v 1.74523854e-10 -0.0692223161 0.219754398
v 1.74523854e-10 0.0825816542 0.158690438
v 0.0229417961 -0.0694506317 0.219754398
v 1.74523854e-10 -0.20436205 0.23721756
v 0.0229417961 -0.210068971 0.23641859
v 0.0676840246 0.114083901 0.136775896
v 1.74523854e-10 0.206079289 0.0931750536
v 0.0494218878 0.0590692014 0.113035083
v 0.0429159962 -0.0826905593 0.170332506
v 0.0535308681 -0.212808311 0.185398743
v 1.74523854e-10 -0.28962335 0.192589432
v 0.0872016624 0.0877179354 0.0935174748
v 0.103181042 0.171837822 0.0351927951
v 0.084804751 0.206535891 0.09226197
v 1.74523854e-10 0.171837822 0.0358776338
v 1.74523854e-10 0.171837822 0.0358776338
v 1.74523854e-10 -0.28962335 0.192589432
v 1.74523854e-10 -0.0826905593 0.170332506
v 0.0494218878 0.0590692014 0.113035083
v 1.74523854e-10 0.060895443 0.112350278
v 0.0429159962 -0.0826905593 0.170332506
v 1.74523854e-10 -0.195573434 0.187224954
v 0.0535308681 -0.212808311 0.185398743
v 1.74523854e-10 -0.28962335 0.192589432
v 1.74523854e-10 0.171837822 0.0358776338
v 0.103181042 0.171837822 0.0351927951
v 0.0872016624 0.0877179354 0.0935174748
v 0.0511339605 -0.470304251 0.0202405676
v 0.031616319 -0.387439907 0.0474055186
v 1.74523854e-10 -0.524862349 0.00814189762
v 0.074646458 -0.397027463 0.0401006453
v 0.031616319 -0.563212872 0.011794311
v 1.74523854e-10 -0.563212872 0.011794311
v 0.0722495466 -0.481261551 0.033252351
v 0.0804675072 -0.407984734 0.0609879419
v 0.031616319 -0.398397118 0.11760056
v 1.74523854e-10 -0.387439907 0.100593954
v 1.74523854e-10 -0.398397118 0.11760056
v 1.74523854e-10 -0.563212872 0.011794311
v 0.031616319 -0.398397118 0.11760056
v 0.031616319 -0.563212872 0.011794311
v 1.74523854e-10 -0.398397118 0.11760056
v 0.0722495466 -0.481261551 0.033252351
v 0.0804675072 -0.407984734 0.0609879419
v 0.132058024 -0.272502542 -0.229151562
v 1.74523854e-10 -0.0192296803 -0.156217158
v 1.74523854e-10 -0.272502542 -0.229151562
v 0.242543906 0.0869190246 -0.20392698
v 0.0957620442 -0.395657837 -0.0772335306
v 1.74523854e-10 -0.395657837 -0.0772335306
v 0.0300183725 -0.538444817 0.00779949222
v 1.74523854e-10 -0.538444817 0.00779949222
v 0.261947393 -0.289280862 0.0983112007
v 0.318902403 -0.191007778 -0.0429919846
v 0.29071027 -0.328087926 0.014990245
v 0.276214689 -0.12252488 0.0496882983
v 0.20465 -0.289280862 0.0983112007
v 0.187985793 -0.0951316208 0.0416986272
v 0.16036433 -0.108371668 -0.0811141804
v 0.176001281 -0.328087926 0.014990245
v 0.275986433 -0.249674931 -0.136699557
v 0.261947393 -0.367009163 -0.0683307424
v 0.196317881 -0.175713271 -0.160554454
v 0.20465 -0.367009163 -0.0683307424
v 0.176001281 -0.328087926 0.014990245
v 0.16036433 -0.108371668 -0.0811141804
v 0.29733029 -0.0450248718 -0.111474968
v 0.265371591 0.0395516157 -0.0342033058
v 0.197459236 -0.0242518187 -0.0045273602
v 0.265371591 -0.111909986 -0.190344542
v 0.20465 -0.367009163 -0.0683307424
v 0.29071027 -0.328087926 0.014990245
v 0.261947393 -0.367009163 -0.0683307424
v 0.176001281 -0.328087926 0.014990245
v 0.20465 -0.289280862 0.0983112007
v 0.261947393 -0.289280862 0.0983112007
v 0.16036433 -0.108371668 -0.0811141804
v 0.265371591 -0.111909986 -0.190344542
v 0.29733029 -0.0450248718 -0.111474968
v 0.196317881 -0.175713271 -0.160554454
v 0.265371591 0.0395516157 -0.0342033058
v 0.197459236 -0.0242518187 -0.0045273602
v 0.279981256 -0.266453207 -0.000874982215
v 0.257496029 -0.300009847 -0.0577158779
v 0.235010788 -0.395315379 0.0347361378
v 0.212525517 -0.300009847 -0.0577158779
v 0.257496029 -0.232782409 0.0558517501
v 0.235010788 -0.395315379 0.0347361378
v 0.212525517 -0.232782409 0.0558517501
v 0.235010788 -0.395315379 0.0347361378
v 0.190154403 -0.266453207 -0.000874982215
v 0.235010788 -0.395315379 0.0347361378
v 0.212525517 -0.300009847 -0.0577158779
vt 0.0180025604 0.893219769
vt 0.185512751 0.686463892
vt 0.280264318 0.9777143
vt 0.0107976962 0.699036419
vt 0.154698193 0.655425787
vt 0.00662823254 0.556513846
vt 0.150932014 0.548466384
vt 0.11773023 0.515511572
vt 0.00669124769 0.465652674
vt 0.110489234 0.472020507
vt 0.292561203 0.970149398
vt 0.197804302 0.678672373
vt 0.168198407 0.645230055
vt 0.161811084 0.535449743
vt 0.150932014 0.548466384
vt 0.154698193 0.655425787
vt 0.127806127 0.498395205
vt 0.115961134 0.454548806
vt 0.00898608938 0.445317805
vt 0.0436498448 0.257572025
vt 0.0152075198 0.256750673
vt 0.80767113 0.784546733
vt 0.950855076 0.5792979
vt 0.846382678 0.574248314
vt 0.94206816 0.799872994
vt 0.980925977 0.58247602
vt 0.993970335 0.334887117
vt 0.977905333 0.335983723
vt 0.984255731 0.296293765
vt 0.969716132 0.299170822
vt 0.959528029 0.203165382
vt 0.701116025 0.305027992
vt 0.969716132 0.299170822
vt 0.941173136 0.208367914
vt 0.920922697 0.176642984
vt 0.770193875 0.155227154
vt 0.90269202 0.138128847
vt 0.941173136 0.208367914
vt 0.933314502 0.168832213
vt 0.775047004 0.00784656778
vt 0.950855076 0.5792979
vt 0.977905333 0.335983723
vt 0.0140827354 0.906734467
vt 0.280264318 0.9777143
vt 0.275637597 0.990943789
vt 0.539856493 0.23274824
vt 0.653774917 0.443939
vt 0.539783776 0.427799314
vt 0.625932276 0.237257928
vt 0.559956729 0.116017118
vt 0.636394441 0.147483915
vt 0.626631439 0.111029878
vt 0.571795285 0.0544189401
vt 0.629272878 0.0614012666
vt 0.532347977 0.47902444
vt 0.63415426 0.49279955
vt 0.622908294 0.0115165887
vt 0.576944768 0.00635411125
vt 0.700122416 0.419038206
vt 0.625932276 0.237257928
vt 0.68331486 0.145986766
vt 0.653774917 0.443939
vt 0.636394441 0.147483915
vt 0.626631439 0.111029878
vt 0.680714786 0.104376748
vt 0.629272878 0.0614012666
vt 0.678425968 0.0576687045
vt 0.318475008 0.746989727
vt 0.261615753 0.569875717
vt 0.287048221 0.56855911
vt 0.282576948 0.751211524
vt 0.261835188 0.413577646
vt 0.286787093 0.413706094
vt 0.353881776 0.79229039
vt 0.280938119 0.908342898
vt 0.380052835 0.733059943
vt 0.347885907 0.563258708
vt 0.352473855 0.414021522
vt 0.313603282 0.314871609
vt 0.41413942 0.78587842
vt 0.425377518 0.919227898
vt 0.365558624 0.894458592
vt 0.314193279 0.981337011
vt 0.314193279 0.981337011
vt 0.313603282 0.314871609
vt 0.542450309 0.934222579
vt 0.64459157 0.961961389
vt 0.5437904 0.962446272
vt 0.644336581 0.929383874
vt 0.467360348 0.937744081
vt 0.457955539 0.973583102
vt 0.405395687 0.9409796
vt 0.733000159 0.925303817
vt 0.736380279 0.993185341
vt 0.668543696 0.985769749
vt 0.752947271 0.425853759
vt 0.719876111 0.470952183
vt 0.720993221 0.38396439
vt 0.757131398 0.470955044
vt 0.71922189 0.520128489
vt 0.762437999 0.562601507
vt 0.672494948 0.562065899
vt 0.71922189 0.520128489
vt 0.70887059 0.597280741
vt 0.762437999 0.562601507
vt 0.70887059 0.597280741
vt 0.71922189 0.520128489
vt 0.71922189 0.520128489
vt 0.757131398 0.470955044
vt 0.719876111 0.470952183
vt 0.752947271 0.425853759
vt 0.720993221 0.38396439
vt 0.712701976 0.708084166
vt 0.713013351 0.662790358
vt 0.775412142 0.664150536
vt 0.718585908 0.610402286
vt 0.780183256 0.618635833
vt 0.727397621 0.798700869
vt 0.786273181 0.774087608
vt 0.775412142 0.664150536
vt 0.713013351 0.662790358
vt 0.712701976 0.708084166
vt 0.727397621 0.798700869
vt 0.786273181 0.774087608
vt 0.389326811 0.602463424
vt 0.42962718 0.65534538
vt 0.399311543 0.656382978
vt 0.405021191 0.549360096
vt 0.371309042 0.535634935
vt 0.391610861 0.524607241
vt 0.370328665 0.604987085
vt 0.388251543 0.664043248
vt 0.427131176 0.708234012
vt 0.451823235 0.69484061
vt 0.450166464 0.708786666
vt 0.576082289 0.500339091
vt 0.613917053 0.733907223
vt 0.576205134 0.733951807
vt 0.613793194 0.500345767
vt 0.671378136 0.596264064
vt 0.690896511 0.687921524
vt 0.568864644 0.864304423
vt 0.462287784 0.918968439
vt 0.423651516 0.817265332
vt 0.568828821 0.91749227
vt 0.648236036 0.878934562
vt 0.648210168 0.917807281
vt 0.715683997 0.905622661
vt 0.715683937 0.917807996
vt 0.191501051 0.0332986638
vt 0.27593708 0.164994568
vt 0.179662898 0.182719558
vt 0.278785348 0.0345195159
vt 0.137095213 0.0278634652
vt 0.109462298 0.19907698
vt 0.00508039631 0.21481216
vt 0.0536027327 0.00861028675
vt 0.371125996 0.150787443
vt 0.36428681 0.0338298604
vt 0.442264557 0.21204862
vt 0.413834572 0.029127501
vt 0.496210873 0.0169402137
vt 0.537023365 0.220758289
vt 0.274962813 0.304948807
vt 0.165022179 0.338944674
vt 0.101826094 0.269881487
vt 0.375570506 0.277904332
vt 0.171570256 0.343660504
vt 0.253010482 0.438040525
vt 0.139569566 0.433463722
vt 0.22823444 0.34594658
vt 0.164234444 0.525505543
vt 0.220898613 0.5277915
vt 0.555270255 0.854558706
vt 0.515184045 0.739255786
vt 0.480530173 0.809138238
vt 0.60105437 0.740318835
vt 0.686742306 0.780466199
vt 0.650304437 0.848688364
vt 0.778346539 0.944422424
vt 0.850078583 0.798457801
vt 0.722334623 0.886737287
vt 0.700391412 0.839756548
vt 0.845116615 0.989142954
vt 0.850078583 0.798457801
vt 0.896658897 0.983432949
vt 0.850078583 0.798457801
vt 0.951956272 0.925180495
vt 0.850078583 0.798457801
vt 0.994018912 0.856707156
vt 0.522006094 0.458931357
vt 0.450553834 0.294455737
vt 0.518943667 0.296005964
vt 0.431823909 0.473298699
vt 0.543994844 0.659316838
vt 0.477194846 0.67838186
vt 0.539909601 0.728278935
vt 0.473953933 0.72573477
vt 0.45513165 0.226072535
vt 0.521102071 0.228505716
vt 0.450553834 0.294455737
vt 0.518943667 0.296005964
vt 0.522006094 0.458931357
vt 0.431823909 0.473298699
vt 0.543994844 0.659316838
vt 0.477194846 0.67838186
vt 0.539909601 0.728278935
vt 0.473953933 0.72573477
vt 0.45513165 0.226072535
vt 0.521102071 0.228505716
vt 0.0180025604 0.893219769
vt 0.185512751 0.686463892
vt 0.0107976962 0.699036419
vt 0.280264318 0.9777143
vt 0.154698193 0.655425787
vt 0.00662823254 0.556513846
vt 0.150932014 0.548466384
vt 0.11773023 0.515511572
vt 0.00669124769 0.465652674
vt 0.110489234 0.472020507
vt 0.292561203 0.970149398
vt 0.197804302 0.678672373
vt 0.168198407 0.645230055
vt 0.161811084 0.535449743
vt 0.150932014 0.548466384
vt 0.154698193 0.655425787
vt 0.127806127 0.498395205
vt 0.115961134 0.454548806
vt 0.00898608938 0.445317805
vt 0.0436498448 0.257572025
vt 0.0152075198 0.256750673
vt 0.80767113 0.784546733
vt 0.950855076 0.5792979
vt 0.94206816 0.799872994
vt 0.846382678 0.574248314
vt 0.980925977 0.58247602
vt 0.993970335 0.334887117
vt 0.977905333 0.335983723
vt 0.984255731 0.296293765
vt 0.969716132 0.299170822
vt 0.959528029 0.203165382
vt 0.701116025 0.305027992
vt 0.969716132 0.299170822
vt 0.941173136 0.208367914
vt 0.920922697 0.176642984
vt 0.770193875 0.155227154
vt 0.90269202 0.138128847
vt 0.941173136 0.208367914
vt 0.933314502 0.168832213
vt 0.775047004 0.00784656778
vt 0.950855076 0.5792979
vt 0.977905333 0.335983723
vt 0.0140827354 0.906734467
vt 0.280264318 0.9777143
vt 0.275637597 0.990943789
vt 0.539856493 0.23274824
vt 0.653774917 0.443939
vt 0.625932276 0.237257928
vt 0.539783776 0.427799314
vt 0.559956729 0.116017118
vt 0.636394441 0.147483915
vt 0.626631439 0.111029878
vt 0.571795285 0.0544189401
vt 0.629272878 0.0614012666
vt 0.532347977 0.47902444
vt 0.63415426 0.49279955
vt 0.622908294 0.0115165887
vt 0.576944768 0.00635411125
vt 0.700122416 0.419038206
vt 0.625932276 0.237257928
vt 0.653774917 0.443939
vt 0.68331486 0.145986766
vt 0.636394441 0.147483915
vt 0.626631439 0.111029878
vt 0.680714786 0.104376748
vt 0.629272878 0.0614012666
vt 0.678425968 0.0576687045
vt 0.318475008 0.746989727
vt 0.261615753 0.569875717
vt 0.282576948 0.751211524
vt 0.287048221 0.56855911
vt 0.261835188 0.413577646
vt 0.286787093 0.413706094
vt 0.353881776 0.79229039
vt 0.280938119 0.908342898
vt 0.380052835 0.733059943
vt 0.347885907 0.563258708
vt 0.352473855 0.414021522
vt 0.313603282 0.314871609
vt 0.41413942 0.78587842
vt 0.425377518 0.919227898
vt 0.365558624 0.894458592
vt 0.314193279 0.981337011
vt 0.314193279 0.981337011
vt 0.313603282 0.314871609
vt 0.542450309 0.934222579
vt 0.64459157 0.961961389
vt 0.644336581 0.929383874
vt 0.5437904 0.962446272
vt 0.467360348 0.937744081
vt 0.457955539 0.973583102
vt 0.405395687 0.9409796
vt 0.733000159 0.925303817
vt 0.736380279 0.993185341
vt 0.668543696 0.985769749
vt 0.389326811 0.602463424
vt 0.42962718 0.65534538
vt 0.405021191 0.549360096
vt 0.399311543 0.656382978
vt 0.371309042 0.535634935
vt 0.391610861 0.524607241
vt 0.370328665 0.604987085
vt 0.388251543 0.664043248
vt 0.427131176 0.708234012
vt 0.451823235 0.69484061
vt 0.450166464 0.708786666
vt 0.576082289 0.500339091
vt 0.613917053 0.733907223
vt 0.613793194 0.500345767
vt 0.576205134 0.733951807
vt 0.671378136 0.596264064
vt 0.690896511 0.687921524
vt 0.568864644 0.864304423
vt 0.462287784 0.918968439
vt 0.568828821 0.91749227
vt 0.423651516 0.817265332
vt 0.648236036 0.878934562
vt 0.648210168 0.917807281
vt 0.715683997 0.905622661
vt 0.715683937 0.917807996
vt 0.191501051 0.0332986638
vt 0.27593708 0.164994568
vt 0.278785348 0.0345195159
vt 0.179662898 0.182719558
vt 0.137095213 0.0278634652
vt 0.109462298 0.19907698
vt 0.00508039631 0.21481216
vt 0.0536027327 0.00861028675
vt 0.371125996 0.150787443
vt 0.36428681 0.0338298604
vt 0.442264557 0.21204862
vt 0.413834572 0.029127501
vt 0.496210873 0.0169402137
vt 0.537023365 0.220758289
vt 0.274962813 0.304948807
vt 0.165022179 0.338944674
vt 0.101826094 0.269881487
vt 0.375570506 0.277904332
vt 0.171570256 0.343660504
vt 0.253010482 0.438040525
vt 0.22823444 0.34594658
vt 0.139569566 0.433463722
vt 0.164234444 0.525505543
vt 0.220898613 0.5277915
vt 0.555270255 0.854558706
vt 0.515184045 0.739255786
vt 0.60105437 0.740318835
vt 0.480530173 0.809138238
vt 0.686742306 0.780466199
vt 0.650304437 0.848688364
vt 0.778346539 0.944422424
vt 0.722334623 0.886737287
vt 0.850078583 0.798457801
vt 0.700391412 0.839756548
vt 0.845116615 0.989142954
vt 0.850078583 0.798457801
vt 0.896658897 0.983432949
vt 0.850078583 0.798457801
vt 0.951956272 0.925180495
vt 0.850078583 0.798457801
vt 0.994018912 0.856707156
vn -0.0262125693 0.465061625 0.884890155
vn -0.122074909 0.395954881 0.910119469
vn -0.108459745 0.424471598 0.898921769
vn -0.00617502679 0.312979395 0.949739842
vn -0.0244570255 0.12539502 0.991805396
vn -0.000792529042 0.0622698775 0.998059033
vn -0.0389462327 0.0326588043 0.998707461
vn -0.0827259818 -0.162793419 0.983186002
vn -0.0103266358 -0.293691305 0.955844536
vn -0.21517957 -0.371700072 0.903070766
vn -0.962393146 -0.229592336 0.145212916
vn -0.92439434 -0.341710513 0.169496401
vn -0.992730128 -0.106881444 0.0553466381
vn -0.909678512 -0.346604322 0.228802203
vn -0.999951809 0.00847888106 -0.00494854824
vn -0.999952933 0.00860061589 -0.00449008855
vn -0.9016829 -0.358055724 0.242412967
vn -0.0451771136 -0.427469909 0.902900053
vn -0.0113212819 -0.370335828 0.928828942
vn -0.00844305882 -0.326860704 0.945034811
vn 0 -0.328075774 0.94465141
vn 0.358373859 0.820957751 -0.444518332
vn -0.161558103 0.759598399 -0.630007343
vn -0.995518314 -0.0945541761 -0.00167162236
vn 0.298941451 0.725937901 -0.619393392
vn -0.359503132 -0.0560789148 -0.931457274
vn -0.458404462 -0.529267227 -0.71396187
vn -0.94040991 -0.331047313 0.0776973515
vn -0.0212639165 -0.16149408 -0.98664457
vn -0.0236050628 -0.137574545 -0.990210102
vn -0.00759533391 -0.0734289397 -0.997271529
vn -0.95503629 -0.287036198 0.0742691375
vn -0.976477859 -0.211664408 0.0410994967
vn -0.973398957 -0.227601495 -0.0263064582
vn -0.965727733 -0.259186371 0.0138698077
vn -0.977226911 -0.206793259 0.0475826942
vn -0.967149209 -0.250795673 -0.0415203395
vn 0.023080713 -0.107323749 -0.993956183
vn -0.00798069689 0.0942700319 -0.995514676
vn -0.916797459 -0.397143618 0.0419448042
vn 0.107056983 -0.503434036 -0.857375632
vn 0.107056983 -0.503434036 -0.857375632
vn 0.344136939 0.772230726 -0.53406879
vn 0.344136939 0.772230726 -0.53406879
vn 0.339042327 0.726829945 -0.597301039
vn -0.0220032751 0.362964984 0.931542954
vn 0.0166037197 0.65093942 0.75894808
vn -0.00873248285 0.636706393 0.771056881
vn 0.00671176928 0.288669716 0.957405216
vn 0.0163737235 0.0967098881 0.995177923
vn 0.0275884349 0.119266547 0.992478901
vn 0.0132265767 -0.0495585426 0.998683638
vn 0.0215490092 -0.640031079 0.768046781
vn 0.0271501877 -0.732670489 0.680041779
vn 0.155684081 0.714788626 -0.681791527
vn 0.1661441 0.729624394 -0.663358411
vn 0.0164638401 -0.999846524 0.00598915981
vn 0 -0.999763759 0.0217353742
vn -0.987357719 -0.145840749 -0.0620903389
vn -0.987557418 -0.130242663 -0.0881316896
vn -0.978427296 -0.190406715 -0.080158022
vn -0.970494442 -0.201773939 -0.132014451
vn -0.948360235 -0.235382007 -0.212622141
vn -0.868445603 -0.457491193 -0.191060311
vn -0.949895539 -0.206825595 -0.23435366
vn -0.970404737 0.012907854 -0.241139033
vn -0.970435982 0.0130408863 -0.241006101
vn -0.619749689 0.11299525 0.776622429
vn -0.00302194244 0.310457415 0.950582485
vn -0.777107888 0.137001209 0.614275182
vn -0.0430119185 0.445530217 0.894233079
vn -0.00300149302 -0.0290740281 0.999572755
vn -0.774371426 -0.0790223844 0.627777315
vn -0.514280222 0.279469252 0.81080996
vn -0.0348317695 0.700352373 0.712946914
vn -0.924663329 0.013437312 0.380548509
vn -0.908929599 0.0907560998 0.406952472
vn -0.848537856 -0.120564356 0.515216209
vn 0.0842038275 -0.462094586 0.882824053
vn -0.852077576 -0.200001238 0.483697539
vn -0.887632561 0.456946064 0.0575215782
vn -0.417903362 0.880526055 0.223675313
vn 0.00345350808 0.853963257 -0.520321851
vn 0.0101444792 0.858352818 -0.512959579
vn -0.743673622 -0.474130079 0.471328135
vn 0.000397688822 -0.318184239 -0.948028814
vn 0.00313366972 -0.498563208 -0.866847685
vn 0.0273751051 -0.220736398 -0.974949253
vn 0.00500781276 -0.467080001 -0.884200879
vn 0.0453818911 -0.10953745 -0.992946137
vn 0.0640256264 -0.0935842852 -0.993550553
vn 0.0523224271 -0.0568680612 -0.997009723
vn 0.00678196047 -0.56669359 -0.82390071
vn 0.00276055285 -0.567189371 -0.823582781
vn -0.00878526213 -0.570894417 -0.820976482
vn 0.0277078047 -0.266864922 0.963335555
vn 0.0186765407 -0.220222318 0.975270894
vn 0.0452222166 -0.278718085 0.959307657
vn -0.0157929172 -0.127478719 0.991715564
vn -0.0199762778 -0.0911343556 0.995638226
vn 0.622107623 0.6264427 0.469629268
vn 0 0.99930749 -0.0372094159
vn 0.690484196 0.722917805 -0.0249283392
vn 0.686968901 0.726090383 -0.0294361091
vn -0.622107626 0.626442698 0.469629267
vn -0.686968904 0.72609038 -0.0294361084
vn -0.690484199 0.722917803 -0.0249283392
vn 0.0199762779 -0.0911343556 0.995638226
vn 0.0157929173 -0.127478719 0.991715564
vn -0.0186765409 -0.220222318 0.975270894
vn -0.0277078049 -0.266864922 0.963335555
vn -0.045222217 -0.278718085 0.959307657
vn -0.991661109 -0.0677727946 -0.109613384
vn -0.916285087 -0.360070944 -0.175415376
vn -0.966494511 -0.214248864 -0.141371086
vn 3.94592858e-17 -0.934635822 -0.355606357
vn 0 -0.938549573 -0.345144461
vn -0.992175367 -0.0648641778 -0.106680268
vn -0.99248104 -0.0683133218 -0.101561194
vn 0.966494512 -0.214248862 -0.141371086
vn 0.916285088 -0.360070942 -0.175415375
vn 0.991661109 -0.0677727946 -0.109613384
vn 0.992175367 -0.0648641778 -0.106680268
vn 0.99248104 -0.0683133218 -0.101561194
vn -0.137912618 0.172142248 -0.975370266
vn -0.111904957 0.776366339 -0.620268158
vn -0.460075366 0.32395862 -0.8266689
vn -0.0177634185 0.164879831 -0.986153691
vn -0.26760332 0.000635465804 -0.963528961
vn 0 -0.0948086466 -0.995495515
vn -0.691662685 0.00443314709 -0.722207088
vn -0.61394232 0.785463042 0.0782472817
vn -0.285125335 0.940141884 0.186646137
vn -0.200836496 0.950082634 0.238762832
vn 0 0.840629581 0.541610476
vn 0 -0.540227361 0.841519101
vn -0.346522391 -0.492290071 0.798481508
vn 0 -0.540227361 0.841519101
vn -0.341081446 -0.507831951 0.791056355
vn -0.599808966 -0.40707007 0.688856416
vn -0.688801794 -0.322919662 0.649056993
vn 0.156448663 0.00756702164 -0.987657104
vn 0.175972056 0.186582553 -0.966550974
vn 0.251477917 0.144468774 -0.957020183
vn 0 -0.376279016 -0.926506396
vn 0 -0.715609051 -0.698501028
vn 0 -0.646949938 -0.762532477
vn 0 -0.511665005 -0.859185034
vn 0 -0.511665005 -0.859185034
vn -0.817491729 0.0719853354 0.571423997
vn -0.999757884 -0.0194778769 0.0102364588
vn -0.645292436 0.307026639 0.69952292
vn -0.977343281 -0.206461636 -0.0466229923
vn 0.761748505 0.140736959 0.632402027
vn 0.714609228 0.236115784 0.658470187
vn 0.967099267 0.0589074328 0.247485197
vn 0.952417981 0.0626855857 0.298279244
vn -0.728745484 -0.337789346 -0.595674725
vn -0.341267744 -0.476116536 -0.810462443
vn 0.68532938 -0.341535829 -0.643177206
vn 0.730104619 -0.322292992 -0.602556614
vn 0.948955856 -0.175441863 -0.262112448
vn 0.944729475 -0.185481852 -0.270338125
vn -0.987892961 0.145700868 0.0532799733
vn -0.716099704 0.358042239 0.599171903
vn 0.36072895 0.496741436 0.789381131
vn -0.800482353 -0.147923965 -0.580815378
vn 0 -0.906024273 0.423225727
vn 0 -0.906262191 0.42271603
vn 0 -0.906262191 0.42271603
vn 0 -0.906024273 0.423225727
vn 0 -0.906499946 0.422205931
vn 0 -0.906499946 0.422205931
vn 0.543977465 0.603277945 -0.58321886
vn 0.549254991 0.63049887 -0.54844337
vn 0.651937343 0.406808581 -0.639909743
vn 0.437339963 0.645497863 -0.626151951
vn 0.53809967 0.57687454 -0.614544148
vn 0.719063402 0.613795153 -0.32588853
vn -0.944291247 -0.283209998 0.167648853
vn -0.670919511 -0.591765647 -0.446856161
vn -0.670919511 -0.591765647 -0.446856161
vn 0 -0.696279851 -0.717770416
vn -0.577532832 -0.183249988 0.795534581
vn -0.873328156 -0.179644157 0.452797868
vn 0.578128932 -0.18327553 0.795095603
vn 0 -0.128833187 0.991666279
vn 0.944550493 -0.282569092 0.167269463
vn 0.944550493 -0.282569092 0.167269463
vn 0.920410708 -0.361518579 -0.148823541
vn -0.961047452 0.039809336 0.273501391
vn -0.951582072 -0.0280199891 0.306115077
vn -0.925523996 -0.257188815 0.277955474
vn -0.960247234 0.0510828468 0.274437229
vn -0.961193337 0.181808856 0.20749195
vn -0.850059446 0.526017307 0.0265467733
vn 0.161479655 0.826589479 -0.539142054
vn 0.204810224 0.836909755 -0.507577417
vn -0.313802844 -0.862794844 0.39637461
vn -0.608285624 -0.791804549 -0.0550831655
vn 0.951582072 -0.0280199884 0.306115077
vn 0.925523997 -0.257188812 0.277955474
vn 0.961047452 0.039809336 0.273501391
vn 0.960247234 0.0510828468 0.274437229
vn 0.961193337 0.181808855 0.20749195
vn 0.850059447 0.526017305 0.026546775
vn -0.161479655 0.826589479 -0.539142054
vn -0.204810226 0.836909755 -0.507577416
vn 0.608285627 -0.791804547 -0.0550831654
vn 0.608285627 -0.791804547 -0.0550831654
vn 0.0262125693 0.465061625 0.884890155
vn 0.122074909 0.395954881 0.910119469
vn 0.0061750268 0.312979395 0.949739842
vn 0.108459745 0.424471597 0.898921769
vn 0.0244570256 0.12539502 0.991805396
vn 0.000792529044 0.0622698775 0.998059033
vn 0.0389462328 0.0326588042 0.998707461
vn 0.0827259821 -0.162793419 0.983186002
vn 0.0103266358 -0.293691305 0.955844536
vn 0.215179571 -0.371700072 0.903070766
vn 0.962393146 -0.229592336 0.145212916
vn 0.92439434 -0.341710513 0.169496401
vn 0.992730128 -0.106881444 0.0553466381
vn 0.909678512 -0.346604322 0.228802203
vn 0.999951809 0.00847888106 -0.00494854824
vn 0.999952933 0.00860061589 -0.00449008855
vn 0.9016829 -0.358055724 0.242412967
vn 0.0451771137 -0.427469909 0.902900053
vn 0.011321282 -0.370335828 0.928828942
vn 0.00844305886 -0.326860704 0.945034811
vn 0 -0.328075774 0.94465141
vn -0.35837386 0.820957751 -0.444518332
vn 0.161558103 0.759598399 -0.630007343
vn -0.298941451 0.725937901 -0.619393391
vn 0.995518314 -0.0945541764 -0.00167162225
vn 0.359503132 -0.0560789151 -0.931457274
vn 0.458404462 -0.529267227 -0.71396187
vn 0.94040991 -0.331047313 0.0776973515
vn 0.0212639165 -0.16149408 -0.98664457
vn 0.0236050628 -0.137574545 -0.990210102
vn 0.00759533391 -0.0734289397 -0.997271529
vn 0.95503629 -0.287036198 0.0742691375
vn 0.976477859 -0.211664408 0.0410994967
vn 0.973398957 -0.227601495 -0.0263064582
vn 0.965727733 -0.259186371 0.0138698077
vn 0.977226911 -0.206793259 0.0475826942
vn 0.967149209 -0.250795673 -0.0415203395
vn -0.023080713 -0.107323749 -0.993956183
vn 0.00798069689 0.0942700319 -0.995514676
vn 0.916797459 -0.397143618 0.0419448042
vn -0.107056983 -0.503434036 -0.857375632
vn -0.107056983 -0.503434036 -0.857375632
vn -0.34413694 0.772230726 -0.53406879
vn -0.34413694 0.772230726 -0.53406879
vn -0.339042328 0.726829945 -0.597301039
vn 0.0220032751 0.362964984 0.931542954
vn -0.0166037198 0.65093942 0.75894808
vn -0.0067117693 0.288669716 0.957405216
vn 0.00873248287 0.636706393 0.771056881
vn -0.0163737235 0.0967098881 0.995177923
vn -0.027588435 0.119266547 0.992478901
vn -0.0132265768 -0.0495585426 0.998683638
vn -0.0215490093 -0.640031078 0.768046782
vn -0.0271501878 -0.732670489 0.680041779
vn -0.155684081 0.714788626 -0.681791527
vn -0.1661441 0.729624394 -0.663358411
vn -0.0164638402 -0.999846524 0.00598915982
vn 0 -0.999763759 0.0217353742
vn 0.987357719 -0.145840749 -0.0620903389
vn 0.987557418 -0.130242663 -0.0881316896
vn 0.970494442 -0.201773939 -0.132014451
vn 0.978427296 -0.190406715 -0.080158022
vn 0.948360235 -0.235382007 -0.212622141
vn 0.868445603 -0.457491193 -0.191060311
vn 0.949895539 -0.206825595 -0.23435366
vn 0.970404737 0.012907854 -0.241139033
vn 0.970435982 0.0130408863 -0.241006101
vn 0.619749692 0.112995248 0.776622427
vn 0.00302194248 0.310457416 0.950582485
vn 0.0430119188 0.445530217 0.894233079
vn 0.77710789 0.137001208 0.614275179
vn 0.00300149306 -0.0290740281 0.999572755
vn 0.774371428 -0.0790223833 0.627777313
vn 0.514280223 0.279469251 0.810809959
vn 0.0348317696 0.700352373 0.712946914
vn 0.924663329 0.013437312 0.380548509
vn 0.908929599 0.0907560998 0.406952472
vn 0.848537856 -0.120564355 0.515216209
vn -0.0842038288 -0.462094586 0.882824053
vn 0.852077576 -0.200001238 0.483697539
vn 0.887632561 0.456946062 0.0575215792
vn 0.417903363 0.880526055 0.223675313
vn -0.0101444793 0.858352818 -0.512959579
vn -0.00345350809 0.853963257 -0.520321851
vn 0.743673624 -0.474130077 0.471328136
vn -0.000397688825 -0.318184239 -0.948028814
vn -0.00313366974 -0.498563208 -0.866847684
vn -0.0050078128 -0.467080001 -0.884200879
vn -0.0273751053 -0.220736398 -0.974949253
vn -0.0453818914 -0.10953745 -0.992946137
vn -0.0640256268 -0.0935842852 -0.993550553
vn -0.0523224275 -0.0568680612 -0.997009723
vn -0.00678196051 -0.56669359 -0.82390071
vn -0.00276055286 -0.567189371 -0.823582781
vn 0.00878526213 -0.570894417 -0.820976482
vn 0.137912619 0.172142248 -0.975370266
vn 0.111904957 0.776366339 -0.620268158
vn 0.0177634187 0.164879831 -0.986153691
vn 0.460075366 0.32395862 -0.8266689
vn 0.267603322 0.000635465577 -0.963528961
vn 0 -0.0948086466 -0.995495515
vn 0.691662685 0.00443314709 -0.722207088
vn 0.61394232 0.785463042 0.0782472817
vn 0.285125337 0.940141884 0.186646137
vn 0.200836498 0.950082634 0.238762832
vn 0 0.840629581 0.541610476
vn 0 -0.540227361 0.841519101
vn 0.346522392 -0.49229007 0.798481508
vn 0.341081448 -0.507831951 0.791056354
vn 0 -0.540227361 0.841519101
vn 0.599808966 -0.40707007 0.688856416
vn 0.688801794 -0.322919662 0.649056993
vn -0.156448663 0.00756702181 -0.987657104
vn -0.175972056 0.186582553 -0.966550974
vn 0 -0.376279016 -0.926506396
vn -0.251477918 0.144468774 -0.957020183
vn 0 -0.715609051 -0.698501028
vn 0 -0.646949938 -0.762532477
vn 0 -0.511665005 -0.859185034
vn 0 -0.511665005 -0.859185034
vn 0.817491729 0.0719853354 0.571423997
vn 0.999757884 -0.0194778769 0.0102364588
vn 0.977343281 -0.206461636 -0.0466229923
vn 0.645292436 0.307026639 0.69952292
vn -0.761748505 0.140736959 0.632402027
vn -0.714609228 0.236115784 0.658470187
vn -0.967099267 0.0589074328 0.247485197
vn -0.952417981 0.0626855857 0.298279244
vn 0.728745484 -0.337789346 -0.595674725
vn 0.341267744 -0.476116536 -0.810462443
vn -0.68532938 -0.341535829 -0.643177206
vn -0.730104619 -0.322292992 -0.602556614
vn -0.948955856 -0.175441863 -0.262112448
vn -0.944729475 -0.185481852 -0.270338125
vn 0.987892961 0.145700868 0.0532799733
vn 0.716099704 0.358042239 0.599171903
vn -0.36072895 0.496741436 0.789381131
vn 0.800482353 -0.147923965 -0.580815378
vn 0 -0.906024273 0.423225727
vn 0 -0.906262191 0.42271603
vn 0 -0.906024273 0.423225727
vn 0 -0.906262191 0.42271603
vn 0 -0.906499946 0.422205931
vn 0 -0.906499946 0.422205931
vn -0.543977465 0.603277945 -0.58321886
vn -0.549254991 0.63049887 -0.54844337
vn -0.437339963 0.645497863 -0.626151951
vn -0.651937343 0.406808581 -0.639909743
vn -0.53809967 0.57687454 -0.614544148
vn -0.719063402 0.613795153 -0.32588853
vn 0.944291247 -0.283209998 0.167648853
vn 0.670919511 -0.591765647 -0.446856161
vn 0.670919511 -0.591765647 -0.446856161
vn 0 -0.696279851 -0.717770416
vn 0.577532832 -0.183249988 0.795534581
vn 0.873328156 -0.179644157 0.452797868
vn -0.578128932 -0.18327553 0.795095603
vn 0 -0.128833187 0.991666279
vn -0.944550493 -0.282569092 0.167269463
vn -0.944550493 -0.282569092 0.167269463
vn -0.920410708 -0.361518579 -0.148823541

g ArmorBag_18_00_Bag_submesh_0
usemtl bag_19
f 1/1/1 3/3/3 2/2/2
f 1/1/1 2/2/2 4/4/4
f 4/4/4 2/2/2 5/5/5
f 6/6/6 4/4/4 5/5/5
f 6/6/6 5/5/5 7/7/7
f 6/6/6 7/7/7 8/8/8
f 9/9/9 6/6/6 8/8/8
f 9/9/9 8/8/8 10/10/10
f 11/11/11 2/2/2 3/3/3
f 11/11/11 12/12/12 2/2/2
f 12/12/12 5/5/5 2/2/2
f 12/12/12 13/13/13 5/5/5
f 14/14/14 8/8/8 7/7/7
f 13/13/13 14/14/14 15/15/15
f 13/13/13 15/15/15 16/16/16
f 14/14/14 17/17/17 8/8/8
f 17/17/17 10/10/10 8/8/8
f 17/17/17 18/18/18 10/10/10
f 18/18/18 9/9/9 10/10/10
f 18/18/18 19/19/19 9/9/9
f 20/20/20 19/19/19 18/18/18
f 20/20/20 21/21/21 19/19/19
f 22/22/22 24/24/24 23/23/23
f 22/22/22 23/23/23 25/25/25
f 25/25/25 23/23/23 26/26/26
f 23/23/23 27/27/27 26/26/26
f 24/24/24 28/28/28 23/23/23
f 28/28/28 29/29/29 27/27/27
f 28/28/28 30/30/30 29/29/29
f 30/30/30 31/31/31 29/29/29
f 24/24/24 32/32/32 28/28/28
f 32/32/32 33/33/33 28/28/28
f 32/32/32 34/34/34 33/33/33
f 32/32/32 35/35/35 34/34/34
f 32/32/32 36/36/36 35/35/35
f 36/36/36 37/37/37 35/35/35
f 33/33/33 38/38/38 31/31/31
f 34/34/34 35/35/35 39/39/39
f 34/34/34 39/39/39 31/31/31
f 35/35/35 37/37/37 39/39/39
f 36/36/36 40/40/40 37/37/37
f 41/41/41 42/42/42 27/27/27
f 43/43/43 45/45/45 44/44/44
f 43/43/43 44/44/44 1/1/1
f 46/46/46 48/48/48 47/47/47
f 46/46/46 47/47/47 49/49/49
f 49/49/49 50/50/50 46/46/46
f 49/49/49 51/51/51 50/50/50
f 51/51/51 52/52/52 50/50/50
f 52/52/52 53/53/53 50/50/50
f 52/52/52 54/54/54 53/53/53
f 47/47/47 48/48/48 55/55/55
f 47/47/47 55/55/55 56/56/56
f 57/57/57 53/53/53 54/54/54
f 57/57/57 58/58/58 53/53/53
f 59/59/59 61/61/61 60/60/60
f 59/59/59 60/60/60 62/62/62
f 61/61/61 63/63/63 60/60/60
f 61/61/61 64/64/64 63/63/63
f 61/61/61 65/65/65 64/64/64
f 66/66/66 64/64/64 65/65/65
f 66/66/66 65/65/65 67/67/67
f 68/68/68 70/70/70 69/69/69
f 68/68/68 69/69/69 71/71/71
f 72/72/72 69/69/69 70/70/70
f 72/72/72 70/70/70 73/73/73
f 71/71/71 74/74/74 68/68/68
f 71/71/71 75/75/75 74/74/74
f 76/76/76 70/70/70 68/68/68
f 76/76/76 77/77/77 70/70/70
f 77/77/77 73/73/73 70/70/70
f 77/77/77 78/78/78 73/73/73
f 72/72/72 73/73/73 79/79/79
f 80/80/80 76/76/76 68/68/68
f 80/80/80 68/68/68 74/74/74
f 81/81/81 80/80/80 74/74/74
f 81/81/81 74/74/74 82/82/82
f 75/75/75 82/82/82 74/74/74
f 83/83/83 81/81/81 82/82/82
f 84/84/84 82/82/82 75/75/75
f 73/73/73 78/78/78 85/85/85
f 86/86/86 88/88/88 87/87/87
f 86/86/86 87/87/87 89/89/89
f 88/88/88 86/86/86 90/90/90
f 88/88/88 90/90/90 91/91/91
f 92/92/92 91/91/91 90/90/90
f 89/89/89 87/87/87 93/93/93
f 87/87/87 94/94/94 93/93/93
f 87/87/87 95/95/95 94/94/94
f 96/96/96 98/98/98 97/97/97
f 96/96/96 97/97/97 99/99/99
f 100/100/100 99/99/99 97/97/97
f 100/100/100 101/101/101 99/99/99
f 101/101/101 103/103/103 102/102/102
f 101/101/101 102/102/102 104/104/104
f 105/105/105 106/106/106 102/102/102
f 105/105/105 102/102/102 107/107/107
f 108/108/108 109/109/109 105/105/105
f 108/108/108 110/110/110 109/109/109
f 111/111/111 109/109/109 110/110/110
f 111/111/111 110/110/110 112/112/112
f 113/113/113 115/115/115 114/114/114
f 116/116/116 114/114/114 115/115/115
f 116/116/116 115/115/115 117/117/117
f 118/118/118 115/115/115 113/113/113
f 118/118/118 119/119/119 115/115/115
f 116/116/116 117/117/117 120/120/120
f 116/116/116 120/120/120 121/121/121
f 122/122/122 121/121/121 120/120/120
f 123/123/123 122/122/122 120/120/120
f 123/123/123 120/120/120 124/124/124
f 125/125/125 127/127/127 126/126/126
f 125/125/125 126/126/126 128/128/128
f 129/129/129 125/125/125 128/128/128
f 129/129/129 128/128/128 130/130/130
f 129/129/129 131/131/131 125/125/125
f 131/131/131 127/127/127 125/125/125
f 131/131/131 132/132/132 127/127/127
f 132/132/132 126/126/126 127/127/127
f 132/132/132 133/133/133 126/126/126
f 133/133/133 134/134/134 126/126/126
f 133/133/133 135/135/135 134/134/134
f 136/136/136 138/138/138 137/137/137
f 136/136/136 137/137/137 139/139/139
f 137/137/137 140/140/140 139/139/139
f 137/137/137 141/141/141 140/140/140
f 142/142/142 144/144/144 143/143/143
f 142/142/142 143/143/143 145/145/145
f 146/146/146 142/142/142 145/145/145
f 146/146/146 145/145/145 147/147/147
f 148/148/148 146/146/146 147/147/147
f 148/148/148 147/147/147 149/149/149
f 150/150/150 152/152/152 151/151/151
f 150/150/150 151/151/151 153/153/153
f 154/154/154 152/152/152 150/150/150
f 154/154/154 155/155/155 152/152/152
f 154/154/154 156/156/156 155/155/155
f 154/154/154 157/157/157 156/156/156
f 153/153/153 151/151/151 158/158/158
f 153/153/153 158/158/158 159/159/159
f 159/159/159 158/158/158 160/160/160
f 159/159/159 160/160/160 161/161/161
f 162/162/162 161/161/161 160/160/160
f 162/162/162 160/160/160 163/163/163
f 152/152/152 164/164/164 151/151/151
f 152/152/152 165/165/165 164/164/164
f 166/166/166 165/165/165 152/152/152
f 166/166/166 152/152/152 155/155/155
f 156/156/156 166/166/166 155/155/155
f 158/158/158 167/167/167 160/160/160
f 151/151/151 164/164/164 167/167/167
f 151/151/151 167/167/167 158/158/158
f 168/168/168 170/170/170 169/169/169
f 168/168/168 169/169/169 171/171/171
f 172/172/172 169/169/169 170/170/170
f 172/172/172 173/173/173 169/169/169
f 174/174/174 176/176/176 175/175/175
f 174/174/174 175/175/175 177/177/177
f 178/178/178 174/174/174 177/177/177
f 178/178/178 179/179/179 174/174/174
f 180/180/180 182/182/182 181/181/181
f 182/182/182 183/183/183 181/181/181
f 184/184/184 180/180/180 185/185/185
f 186/186/186 184/184/184 187/187/187
f 188/188/188 186/186/186 189/189/189
f 190/190/190 188/188/188 189/189/189
f 191/191/191 193/193/193 192/192/192
f 191/191/191 192/192/192 194/194/194
f 195/195/195 191/191/191 194/194/194
f 195/195/195 194/194/194 196/196/196
f 197/197/197 195/195/195 196/196/196
f 197/197/197 196/196/196 198/198/198
f 199/199/199 192/192/192 193/193/193
f 199/199/199 193/193/193 200/200/200
f 199/199/199 202/202/202 201/201/201
f 203/203/203 201/201/201 202/202/202
f 203/203/203 204/204/204 201/201/201
f 205/205/205 204/204/204 203/203/203
f 205/205/205 206/206/206 204/204/204
f 207/207/207 206/206/206 205/205/205
f 207/207/207 208/208/208 206/206/206
f 209/209/209 210/210/210 202/202/202
f 211/211/211 213/213/213 212/212/212
f 211/211/211 212/212/212 214/214/214
f 213/213/213 215/215/215 212/212/212
f 216/216/216 215/215/215 213/213/213
f 216/216/216 217/217/217 215/215/215
f 216/216/216 218/218/218 217/217/217
f 219/219/219 218/218/218 216/216/216
f 219/219/219 220/220/220 218/218/218
f 221/221/221 214/214/214 212/212/212
f 221/221/221 212/212/212 222/222/222
f 222/222/222 212/212/212 215/215/215
f 222/222/222 215/215/215 223/223/223
f 224/224/224 217/217/217 218/218/218
f 223/223/223 225/225/225 224/224/224
f 223/223/223 226/226/226 225/225/225
f 224/224/224 218/218/218 227/227/227
f 227/227/227 218/218/218 220/220/220
f 227/227/227 220/220/220 228/228/228
f 228/228/228 220/220/220 219/219/219
f 228/228/228 219/219/219 229/229/229
f 230/230/230 228/228/228 229/229/229
f 230/230/230 229/229/229 231/231/231
f 232/232/232 234/234/234 233/233/233
f 232/232/232 233/233/233 235/235/235
f 234/234/234 236/236/236 233/233/233
f 233/233/233 236/236/236 237/237/237
f 235/235/235 233/233/233 238/238/238
f 238/238/238 237/237/237 239/239/239
f 238/238/238 239/239/239 240/240/240
f 240/240/240 239/239/239 241/241/241
f 235/235/235 238/238/238 242/242/242
f 242/242/242 238/238/238 243/243/243
f 242/242/242 243/243/243 244/244/244
f 242/242/242 244/244/244 245/245/245
f 242/242/242 245/245/245 246/246/246
f 246/246/246 245/245/245 247/247/247
f 243/243/243 241/241/241 248/248/248
f 244/244/244 241/241/241 249/249/249
f 244/244/244 249/249/249 245/245/245
f 245/245/245 249/249/249 247/247/247
f 246/246/246 247/247/247 250/250/250
f 251/251/251 237/237/237 252/252/252
f 253/253/253 211/211/211 254/254/254
f 253/253/253 254/254/254 255/255/255
f 256/256/256 258/258/258 257/257/257
f 256/256/256 257/257/257 259/259/259
f 258/258/258 256/256/256 260/260/260
f 258/258/258 260/260/260 261/261/261
f 261/261/261 260/260/260 262/262/262
f 262/262/262 260/260/260 263/263/263
f 262/262/262 263/263/263 264/264/264
f 257/257/257 265/265/265 259/259/259
f 257/257/257 266/266/266 265/265/265
f 267/267/267 264/264/264 263/263/263
f 267/267/267 263/263/263 268/268/268
f 269/269/269 271/271/271 270/270/270
f 269/269/269 270/270/270 272/272/272
f 272/272/272 270/270/270 273/273/273
f 272/272/272 273/273/273 274/274/274
f 272/272/272 274/274/274 275/275/275
f 276/276/276 275/275/275 274/274/274
f 276/276/276 277/277/277 275/275/275
f 278/278/278 280/280/280 279/279/279
f 278/278/278 279/279/279 281/281/281
f 282/282/282 281/281/281 279/279/279
f 282/282/282 283/283/283 281/281/281
f 280/280/280 278/278/278 284/284/284
f 280/280/280 284/284/284 285/285/285
f 286/286/286 278/278/278 281/281/281
f 286/286/286 281/281/281 287/287/287
f 287/287/287 281/281/281 283/283/283
f 287/287/287 283/283/283 288/288/288
f 282/282/282 289/289/289 283/283/283
f 290/290/290 284/284/284 278/278/278
f 290/290/290 278/278/278 286/286/286
f 291/291/291 284/284/284 290/290/290
f 291/291/291 292/292/292 284/284/284
f 285/285/285 284/284/284 292/292/292
f 293/293/293 285/285/285 292/292/292
f 294/294/294 292/292/292 291/291/291
f 283/283/283 295/295/295 288/288/288
f 296/296/296 298/298/298 297/297/297
f 296/296/296 297/297/297 299/299/299
f 299/299/299 300/300/300 296/296/296
f 299/299/299 301/301/301 300/300/300
f 302/302/302 300/300/300 301/301/301
f 298/298/298 303/303/303 297/297/297
f 297/297/297 303/303/303 304/304/304
f 297/297/297 304/304/304 305/305/305
f 306/306/306 308/308/308 307/307/307
f 306/306/306 307/307/307 309/309/309
f 310/310/310 308/308/308 306/306/306
f 310/310/310 311/311/311 308/308/308
f 310/310/310 306/306/306 312/312/312
f 312/312/312 306/306/306 309/309/309
f 312/312/312 309/309/309 313/313/313
f 313/313/313 309/309/309 307/307/307
f 313/313/313 307/307/307 314/314/314
f 314/314/314 307/307/307 315/315/315
f 314/314/314 315/315/315 316/316/316
f 317/317/317 319/319/319 318/318/318
f 317/317/317 318/318/318 320/320/320
f 318/318/318 319/319/319 321/321/321
f 318/318/318 321/321/321 322/322/322
f 323/323/323 325/325/325 324/324/324
f 323/323/323 324/324/324 326/326/326
f 327/327/327 325/325/325 323/323/323
f 327/327/327 328/328/328 325/325/325
f 329/329/329 328/328/328 327/327/327
f 329/329/329 330/330/330 328/328/328
f 331/331/331 333/333/333 332/332/332
f 331/331/331 332/332/332 334/334/334
f 335/335/335 331/331/331 334/334/334
f 335/335/335 334/334/334 336/336/336
f 335/335/335 336/336/336 337/337/337
f 335/335/335 337/337/337 338/338/338
f 333/333/333 339/339/339 332/332/332
f 333/333/333 340/340/340 339/339/339
f 340/340/340 341/341/341 339/339/339
f 340/340/340 342/342/342 341/341/341
f 343/343/343 341/341/341 342/342/342
f 343/343/343 344/344/344 341/341/341
f 334/334/334 332/332/332 345/345/345
f 334/334/334 345/345/345 346/346/346
f 347/347/347 336/336/336 334/334/334
f 347/347/347 334/334/334 346/346/346
f 337/337/337 336/336/336 347/347/347
f 339/339/339 341/341/341 348/348/348
f 332/332/332 339/339/339 348/348/348
f 332/332/332 348/348/348 345/345/345
f 349/349/349 351/351/351 350/350/350
f 349/349/349 350/350/350 352/352/352
f 353/353/353 352/352/352 350/350/350
f 353/353/353 350/350/350 354/354/354
f 355/355/355 357/357/357 356/356/356
f 355/355/355 356/356/356 358/358/358
f 359/359/359 357/357/357 355/355/355
f 359/359/359 355/355/355 360/360/360
f 361/361/361 363/363/363 362/362/362
f 362/362/362 363/363/363 364/364/364
f 365/365/365 366/366/366 361/361/361
f 367/367/367 368/368/368 365/365/365
f 369/369/369 370/370/370 367/367/367
f 371/371/371 370/370/370 369/369/369
