# Generated from legacy Unity YAML Mesh assets without Unity.
mtllib ArmorBag_00.mtl

o ArmorBag_00_00_Bag
v 0.106659979 -0.473691642 -0.0282704011
v 0.107483179 -0.387904823 -0.0326004177
v 0.155825585 -0.335306078 -0.165887624
v -1.16192825e-08 -0.473691642 -0.0282704011
v -1.16192825e-08 -0.387904823 -0.0326004177
v -1.16192825e-08 -0.501711607 -0.238874018
v 0.125702769 -0.501711607 -0.238874018
v 0.096141182 -0.345677286 0.0728867874
v -1.16192825e-08 -0.345677286 0.0853151605
v 0.0864163787 -0.153396502 0.0550435856
v -1.16192825e-08 -0.153396502 0.0550435856
v -0.106660008 -0.473691642 -0.0282704011
v -0.155825615 -0.335306078 -0.165887624
v -0.107483208 -0.387904823 -0.0326004177
v -1.16192825e-08 -0.473691642 -0.0282704011
v -1.16192825e-08 -0.387904823 -0.0326004177
v -1.16192825e-08 -0.501711607 -0.238874018
v -0.125702798 -0.501711607 -0.238874018
v -0.0961412116 -0.345677286 0.0728867874
v -1.16192825e-08 -0.345677286 0.0853151605
v -0.0864164083 -0.153396502 0.0550435856
v -1.16192825e-08 -0.153396502 0.0550435856
v 0.290741965 -0.275122434 -0.0355372094
v 0.111327171 -0.314063251 -0.00822521746
v 0.119495981 -0.15346764 0.0569155589
v -1.16192825e-08 -0.318073273 -0.0257840306
v -1.16192825e-08 -0.15346764 0.0527735576
v 0.0906663836 -0.0909584984 0.0947051868
v 0.183683172 0.0465563722 -0.0567964166
v 0.161985576 0.100233927 -0.0454020165
v -1.16192825e-08 -0.0909588784 0.108062766
v -1.16192825e-08 0.122342385 -0.0324696191
v 0.193370775 0.0413126908 -0.127161235
v 0.168324381 0.0928902552 -0.129612029
v -1.16192825e-08 0.112155043 -0.120253213
v 0.324769184 -0.0686593056 -0.0413588174
v 0.347574785 -0.0787825584 -0.111562431
v 0.311015561 -0.299769312 -0.14949283
v 0.128180772 -0.339407235 -0.165887624
v -1.16192825e-08 0.112155043 -0.120253213
v -1.16192825e-08 -0.136955261 -0.252432019
v 0.168324381 0.0928902552 -0.129612029
v 0.193370775 0.0413126908 -0.127161235
v 0.347574785 -0.0787825584 -0.111562431
v 0.311015561 -0.299769312 -0.14949283
v 0.128180772 -0.339407235 -0.165887624
v -0.290741995 -0.275122434 -0.0355372094
v -0.11949601 -0.15346764 0.0569155589
v -0.111327201 -0.314063251 -0.00822521746
v -1.16192825e-08 -0.318073273 -0.0257840306
v -1.16192825e-08 -0.15346764 0.0527735576
v -0.0906664132 -0.0909584984 0.0947051868
v -0.183683202 0.0465563722 -0.0567964166
v -0.161985606 0.100233927 -0.0454020165
v -1.16192825e-08 -0.0909588784 0.108062766
v -1.16192825e-08 0.122342385 -0.0324696191
v -0.193370804 0.0413126908 -0.127161235
v -0.168324411 0.0928902552 -0.129612029
v -1.16192825e-08 0.112155043 -0.120253213
v -0.324769214 -0.0686593056 -0.0413588174
v -0.347574815 -0.0787825584 -0.111562431
v -0.311015591 -0.299769312 -0.14949283
v -0.128180802 -0.339407235 -0.165887624
v -0.168324411 0.0928902552 -0.129612029
v -0.193370804 0.0413126908 -0.127161235
v -1.16192825e-08 -0.136955261 -0.252432019
v -0.347574815 -0.0787825584 -0.111562431
v -0.311015591 -0.299769312 -0.14949283
v -0.128180802 -0.339407235 -0.165887624
v -1.16192825e-08 0.112155043 -0.120253213
v 0.125702769 -0.501711607 -0.238874018
v 0.155825585 -0.335306078 -0.165887624
v -1.16192825e-08 -0.136955261 -0.252432019
v -1.16192825e-08 -0.136955261 -0.252432019
v -1.16192825e-08 -0.501711607 -0.238874018
v -1.16192825e-08 -0.501711607 -0.238874018
v -1.16192825e-08 -0.136955261 -0.252432019
v -0.125702798 -0.501711607 -0.238874018
v -1.16192825e-08 -0.136955261 -0.252432019
v -0.155825615 -0.335306078 -0.165887624
vt 0.799448013 0.467871994
vt 0.757975996 0.588562012
vt 0.996984005 0.575573027
vt 0.670346022 0.41060999
vt 0.608983994 0.531795025
vt 0.889033973 0.225887001
vt 0.994706988 0.317176998
vt 0.681818008 0.705417991
vt 0.55013603 0.690651
vt 0.681818008 0.995507002
vt 0.55013603 0.995507002
vt 0.799448013 0.467871994
vt 0.996984005 0.575573027
vt 0.757975996 0.588562012
vt 0.670346022 0.41060999
vt 0.608983994 0.531795025
vt 0.889033973 0.225887001
vt 0.994706988 0.317176998
vt 0.681818008 0.705417991
vt 0.55013603 0.690651
vt 0.681818008 0.995507002
vt 0.55013603 0.995507002
vt 0.441471994 0.283179998
vt 0.183369994 0.179560006
vt 0.170166999 0.484232008
vt 0.0251109991 0.179560006
vt 0.0108249998 0.475708991
vt 0.123131998 0.570858002
vt 0.342781007 0.749185026
vt 0.306416005 0.806324005
vt 0.0124909999 0.594820976
vt 0.130446002 0.897944987
vt 0.4296 0.799067974
vt 0.379406005 0.869812012
vt 0.193586007 0.992554009
vt 0.479993999 0.554292023
vt 0.573445976 0.554657996
vt 0.569113016 0.200723007
vt 0.33336699 0.0187790003
vt 0.98684001 0.0177900009
vt 0.82761699 0.0101340003
vt 0.98684001 0.149508998
vt 0.926106989 0.158583999
vt 0.77094698 0.259355992
vt 0.587655008 0.172840998
vt 0.592437029 0.0177900009
vt 0.441471994 0.283179998
vt 0.170166999 0.484232008
vt 0.183369994 0.179560006
vt 0.0251109991 0.179560006
vt 0.0108249998 0.475708991
vt 0.123131998 0.570858002
vt 0.342781007 0.749185026
vt 0.306416005 0.806324005
vt 0.0124909999 0.594820976
vt 0.130446002 0.897944987
vt 0.4296 0.799067974
vt 0.379406005 0.869812012
vt 0.193586007 0.992554009
vt 0.479993999 0.554292023
vt 0.573445976 0.554657996
vt 0.569113016 0.200723007
vt 0.33336699 0.0187790003
vt 0.98684001 0.149508998
vt 0.926106989 0.158583999
vt 0.82761699 0.0101340003
vt 0.77094698 0.259355992
vt 0.587655008 0.172840998
vt 0.592437029 0.0177900009
vt 0.98684001 0.0177900009
vt 0.587655008 0.172840998
vt 0.592437029 0.0177900009
vt 0.82761699 0.0101340003
vt 0.82761699 0.0101340003
vt 0.698276997 0.225656003
vt 0.698276997 0.225656003
vt 0.82761699 0.0101340003
vt 0.587656021 0.172840998
vt 0.82761699 0.0101340003
vt 0.592437029 0.0177900009
vn 0.587195864 -0.745285387 0.315833356
vn 0.564296807 -0.350401008 0.747521403
vn 0.97368377 -0.0754502011 0.215051583
vn 0 -0.710009722 0.704191873
vn 0.018428344 -0.779848091 0.625697492
vn 0 -0.991265177 0.131883847
vn 0.685734821 -0.710810886 0.156574709
vn 0.790474237 -0.278023678 0.545759394
vn 0.0731028262 -0.172670646 0.982263114
vn 0.712886277 0.116145795 0.691594759
vn 0 0.155518707 0.987832947
vn -0.587195846 -0.7452854 0.315833359
vn -0.97368377 -0.0754502011 0.215051583
vn -0.564296789 -0.350401012 0.747521414
vn 0 -0.710009722 0.704191873
vn -0.0184283428 -0.779848092 0.625697491
vn 0 -0.991265177 0.131883847
vn -0.685734808 -0.710810899 0.15657471
vn -0.790474223 -0.27802369 0.545759407
vn -0.0731028213 -0.172670646 0.982263114
vn -0.712886259 0.116145797 0.691594777
vn 0 0.155518707 0.987832947
vn 0.497443314 -0.541872602 0.677439468
vn 0.158704094 -0.66404611 0.730654347
vn 0.287933427 -0.104013515 0.951985047
vn -0.0788238245 -0.401260346 0.912566129
vn -0.0027873626 -0.501862061 0.864943179
vn 0.356722031 0.298823915 0.885129177
vn 0.617236823 0.481301495 0.622388605
vn 0.401033536 0.65629334 0.639101834
vn 0.139382138 0.292401161 0.946083601
vn 0.146114721 0.779440508 0.60919864
vn 0.751762888 0.658162925 0.0409160604
vn 0.244948439 0.965966008 -0.0831260083
vn 0.106665948 0.987666334 -0.114619316
vn 0.655339427 0.153063236 0.739663357
vn 0.857558388 0.479125814 0.18716855
vn 0.797760451 -0.52717841 0.292679323
vn 0.213383403 -0.955224021 0.204974614
vn 0.00452968301 0.468704989 -0.883343147
vn 0.258332431 0.151411753 -0.954116783
vn 0.114655535 0.401565329 -0.908625002
vn 0.342337977 0.262598691 -0.902134489
vn 0.343690592 0.178902878 -0.921884232
vn 0.291834622 -0.0465341542 -0.955336133
vn 0.150702511 -0.306375858 -0.939905626
vn -0.497443314 -0.541872602 0.677439468
vn -0.287933423 -0.10401352 0.951985048
vn -0.158704092 -0.664046106 0.730654351
vn 0.0788238202 -0.401260346 0.912566129
vn 0.00278736244 -0.501862061 0.864943179
vn -0.356722018 0.298823917 0.885129182
vn -0.617236823 0.481301495 0.622388605
vn -0.401033525 0.656293345 0.639101836
vn -0.139382128 0.292401161 0.946083603
vn -0.146114714 0.779440508 0.609198642
vn -0.751762888 0.658162925 0.0409160604
vn -0.244948431 0.96596601 -0.083126009
vn -0.106665944 0.987666335 -0.114619316
vn -0.655339427 0.153063236 0.739663357
vn -0.857558388 0.479125814 0.18716855
vn -0.797760451 -0.52717841 0.292679323
vn -0.213383403 -0.955224021 0.204974614
vn -0.114655531 0.401565329 -0.908625003
vn -0.342337973 0.262598686 -0.902134492
vn -0.258332427 0.151411755 -0.954116784
vn -0.343690587 0.178902877 -0.921884234
vn -0.291834618 -0.0465341508 -0.955336134
vn -0.150702511 -0.306375854 -0.939905628
vn -0.00452968284 0.468704989 -0.883343147
vn 0.346905771 0.0848322287 -0.934055608
vn 0.657560187 0.199605953 -0.726479225
vn 0.657560187 0.199605953 -0.726479225
vn 0 -0.0371443684 -0.99930991
vn 0 -0.0371443684 -0.99930991
vn 0 -0.0371443684 -0.99930991
vn 0 -0.0371443684 -0.99930991
vn -0.346905758 0.08483223 -0.934055613
vn -0.657560174 0.19960596 -0.726479235
vn -0.657560174 0.19960596 -0.726479235

g ArmorBag_00_00_Bag_submesh_0
usemtl 01
f 1/1/1 3/3/3 2/2/2
f 4/4/4 1/1/1 2/2/2
f 4/4/4 2/2/2 5/5/5
f 6/6/6 1/1/1 4/4/4
f 6/6/6 7/7/7 1/1/1
f 7/7/7 3/3/3 1/1/1
f 5/5/5 2/2/2 8/8/8
f 3/3/3 8/8/8 2/2/2
f 5/5/5 8/8/8 9/9/9
f 10/10/10 9/9/9 8/8/8
f 3/3/3 10/10/10 8/8/8
f 10/10/10 11/11/11 9/9/9
f 12/12/12 14/14/14 13/13/13
f 15/15/15 14/14/14 12/12/12
f 15/15/15 16/16/16 14/14/14
f 17/17/17 15/15/15 12/12/12
f 17/17/17 12/12/12 18/18/18
f 18/18/18 12/12/12 13/13/13
f 16/16/16 19/19/19 14/14/14
f 13/13/13 14/14/14 19/19/19
f 16/16/16 20/20/20 19/19/19
f 21/21/21 19/19/19 20/20/20
f 13/13/13 19/19/19 21/21/21
f 21/21/21 20/20/20 22/22/22
f 23/23/23 25/25/25 24/24/24
f 25/25/25 26/26/26 24/24/24
f 25/25/25 27/27/27 26/26/26
f 28/28/28 27/27/27 25/25/25
f 29/29/29 28/28/28 25/25/25
f 29/29/29 30/30/30 28/28/28
f 28/28/28 31/31/31 27/27/27
f 32/32/32 31/31/31 28/28/28
f 32/32/32 28/28/28 30/30/30
f 30/30/30 29/29/29 33/33/33
f 30/30/30 33/33/33 34/34/34
f 32/32/32 30/30/30 34/34/34
f 32/32/32 34/34/34 35/35/35
f 25/25/25 23/23/23 36/36/36
f 25/25/25 36/36/36 29/29/29
f 37/37/37 33/33/33 29/29/29
f 37/37/37 29/29/29 36/36/36
f 38/38/38 36/36/36 23/23/23
f 37/37/37 36/36/36 38/38/38
f 23/23/23 24/24/24 39/39/39
f 23/23/23 39/39/39 38/38/38
f 40/40/40 42/42/42 41/41/41
f 41/41/41 42/42/42 43/43/43
f 43/43/43 44/44/44 41/41/41
f 44/44/44 45/45/45 41/41/41
f 41/41/41 45/45/45 46/46/46
f 47/47/47 49/49/49 48/48/48
f 48/48/48 49/49/49 50/50/50
f 48/48/48 50/50/50 51/51/51
f 52/52/52 48/48/48 51/51/51
f 53/53/53 48/48/48 52/52/52
f 53/53/53 52/52/52 54/54/54
f 52/52/52 51/51/51 55/55/55
f 56/56/56 54/54/54 52/52/52
f 56/56/56 52/52/52 55/55/55
f 54/54/54 57/57/57 53/53/53
f 54/54/54 58/58/58 57/57/57
f 56/56/56 58/58/58 54/54/54
f 56/56/56 59/59/59 58/58/58
f 48/48/48 60/60/60 47/47/47
f 48/48/48 53/53/53 60/60/60
f 61/61/61 60/60/60 53/53/53
f 61/61/61 53/53/53 57/57/57
f 47/47/47 60/60/60 62/62/62
f 62/62/62 60/60/60 61/61/61
f 47/47/47 62/62/62 63/63/63
f 47/47/47 63/63/63 49/49/49
f 64/64/64 66/66/66 65/65/65
f 65/65/65 66/66/66 67/67/67
f 67/67/67 66/66/66 68/68/68
f 68/68/68 66/66/66 69/69/69
f 70/70/70 66/66/66 64/64/64
f 71/71/71 73/73/73 72/72/72
f 71/71/71 75/75/75 74/74/74
f 76/76/76 78/78/78 77/77/77
f 79/79/79 78/78/78 80/80/80
