# Generated from legacy Unity YAML Mesh assets without Unity.
mtllib ArmorBag_08.mtl

o ArmorBag_08_00_Bag
v 0.301347569 -0.0657137334 -0.135549024
v 0.308227077 -0.19151704 -0.107152231
v 0.360402569 -0.153268024 -0.0940122455
v 0.362286642 -0.144818693 -0.0651680157
v 0.306061462 -0.0491529405 -0.078515321
v 0.315305725 -0.172034815 -0.0214583352
v 0.093067296 -0.205430195 0.00929606706
v -1.17453162e-08 -0.194330454 0.00956897438
v -1.17453162e-08 -0.181767955 0.0390371531
v -1.17453162e-08 -0.062864624 -0.00736975297
v -1.17453162e-08 -0.390734166 -0.0753038749
v 0.104403839 -0.0742156655 -0.0215218514
v 0.169495165 -0.175868735 0.0693532601
v 0.18621023 0.0179401189 0.013021566
v 0.307073787 0.0162360817 -0.0557433367
v 0.316553637 -0.170060158 0.00783382356
v 0.134676531 0.00650548935 -0.13439098
v 0.20704335 0.116368368 -0.138728693
v 0.26937817 0.103040323 -0.160473049
v 0.295044497 0.00678893924 -0.193343639
v 0.295044497 0.00678893924 -0.193343639
v 0.305480823 -0.200069651 -0.131977469
v 0.306660339 -0.327905774 -0.0391290858
v 0.172362656 -0.346773446 0.0256532654
v 0.27254127 -0.444343984 -0.1469405
v 0.188464388 -0.470116496 -0.130401552
v 0.270509049 -0.402090013 -0.222946435
v 0.270509049 -0.402090013 -0.222946435
v 0.0818820001 -0.410677433 -0.188824862
v 0.0834194721 -0.362544 -0.0667282939
v -1.17453162e-08 -0.410677433 -0.188824862
v 0.134676531 0.00650548935 -0.13439098
v 0.270509049 -0.402090013 -0.222946435
v 0.295044497 0.00678893924 -0.193343639
v 0.0818820001 -0.410677433 -0.188824862
v 0.270509049 -0.402090013 -0.222946435
v -1.17453162e-08 0.00136554241 -0.0810617805
v -1.17453162e-08 -0.410677433 -0.188824862
v 0.305480823 -0.200069651 -0.131977469
v 0.295044497 0.00678893924 -0.193343639
v -1.17453162e-08 0.00136554241 -0.0810617805
v -0.301347598 -0.0657137334 -0.135549024
v -0.360402599 -0.153268024 -0.0940122455
v -0.308227107 -0.19151704 -0.107152231
v -0.362286672 -0.144818693 -0.0651680157
v -0.306061491 -0.0491529405 -0.078515321
v -0.315305754 -0.172034815 -0.0214583352
v -0.0930673255 -0.205430195 0.00929606706
v -1.17453162e-08 -0.181767955 0.0390371531
v -1.17453162e-08 -0.194330454 0.00956897438
v -1.17453162e-08 -0.390734166 -0.0753038749
v -1.17453162e-08 -0.062864624 -0.00736975297
v -0.104403868 -0.0742156655 -0.0215218514
v -0.169495195 -0.175868735 0.0693532601
v -0.18621026 0.0179401189 0.013021566
v -0.307073817 0.0162360817 -0.0557433367
v -0.316553667 -0.170060158 0.00783382356
v -0.134676561 0.00650548935 -0.13439098
v -0.207043379 0.116368368 -0.138728693
v -0.2693782 0.103040323 -0.160473049
v -0.295044526 0.00678893924 -0.193343639
v -0.295044526 0.00678893924 -0.193343639
v -0.305480853 -0.200069651 -0.131977469
v -0.306660369 -0.327905774 -0.0391290858
v -0.172362685 -0.346773446 0.0256532654
v -0.272541299 -0.444343984 -0.1469405
v -0.188464418 -0.470116496 -0.130401552
v -0.270509079 -0.402090013 -0.222946435
v -0.270509079 -0.402090013 -0.222946435
v -0.0818820297 -0.410677433 -0.188824862
v -0.0834195017 -0.362544 -0.0667282939
v -1.17453162e-08 -0.410677433 -0.188824862
v -0.134676561 0.00650548935 -0.13439098
v -0.270509079 -0.402090013 -0.222946435
v -0.0818820297 -0.410677433 -0.188824862
v -1.17453162e-08 0.00136554241 -0.0810617805
v -1.17453162e-08 -0.410677433 -0.188824862
v -0.295044526 0.00678893924 -0.193343639
v -0.270509079 -0.402090013 -0.222946435
v -0.305480853 -0.200069651 -0.131977469
v -0.295044526 0.00678893924 -0.193343639
v -1.17453162e-08 0.00136554241 -0.0810617805
vt 0.775941014 0.918018997
vt 0.732168972 0.655234993
vt 0.805579007 0.734485984
vt 0.869093001 0.734485984
vt 0.896995008 0.918018997
vt 0.951144993 0.655234993
vt 0.495545 0.514928997
vt 0.643987 0.46478501
vt 0.65338999 0.55074501
vt 0.590101004 0.786183
vt 0.606420994 0.192535996
vt 0.436915994 0.726631999
vt 0.353922993 0.544991016
vt 0.293431014 0.737996995
vt 0.155080006 0.72715503
vt 0.159088999 0.521350026
vt 0.364136994 0.900332987
vt 0.241916001 0.872344017
vt 0.128661007 0.873278022
vt 0.174287006 0.990831017
vt 0.0107340002 0.778878987
vt 0.0162450001 0.488602012
vt 0.168856993 0.362444013
vt 0.340683997 0.357111007
vt 0.142373994 0.148843005
vt 0.27056399 0.140483007
vt 0.00727100018 0.181208998
vt 0.137590006 0.00982300006
vt 0.445178002 0.0471969992
vt 0.476209998 0.230024993
vt 0.587517977 0.0523010008
vt 0.864304006 0.0155849997
vt 0.744238019 0.585437
vt 0.709859014 0.0155849997
vt 0.913367987 0.585437
vt 0.744238019 0.585437
vt 0.991446018 -0.0436890014
vt 0.992471993 0.585437
vt 0.672330976 0.267262012
vt 0.709859014 0.0155849997
vt 0.530232012 0.930020988
vt 0.775941014 0.918018997
vt 0.805579007 0.734485984
vt 0.732168972 0.655234993
vt 0.869093001 0.734485984
vt 0.896995008 0.918018997
vt 0.951144993 0.655234993
vt 0.495545 0.514928997
vt 0.65338999 0.55074501
vt 0.643987 0.46478501
vt 0.606420994 0.192535996
vt 0.590101004 0.786183
vt 0.436915994 0.726631999
vt 0.353922993 0.544991016
vt 0.293431014 0.737996995
vt 0.155080006 0.72715503
vt 0.159088999 0.521350026
vt 0.364136994 0.900332987
vt 0.241916001 0.872344017
vt 0.128661007 0.873278022
vt 0.174287006 0.990831017
vt 0.0107340002 0.778878987
vt 0.0162450001 0.488602012
vt 0.168856993 0.362444013
vt 0.340683997 0.357111007
vt 0.142373994 0.148843005
vt 0.27056399 0.140483007
vt 0.00727100018 0.181208998
vt 0.137590006 0.00982300006
vt 0.445178002 0.0471969992
vt 0.476209998 0.230024993
vt 0.587517977 0.0523010008
vt 0.864304006 0.0155849997
vt 0.744238019 0.585437
vt 0.913367987 0.585437
vt 0.991446018 -0.0436890014
vt 0.992471993 0.585437
vt 0.709859014 0.0155849997
vt 0.744238019 0.585437
vt 0.672330976 0.267262012
vt 0.709859014 0.0155849997
vt 0.530232012 0.930020988
vn 0.765430613 0.228943709 -0.601415625
vn 0.60040703 -0.625720318 -0.497981408
vn 0.674614975 -0.127237443 -0.72712122
vn 0.949567882 0.116947225 0.290936736
vn 0.773983381 0.507687157 0.378422352
vn 0.714200351 -0.127572437 0.688217358
vn -0.250774168 -0.161434567 0.95449002
vn -0.0545953148 -0.479298819 0.87595205
vn 0.329875618 0.120635696 0.936284735
vn 0.234199744 0.545130468 0.80497407
vn 0.0588768853 -0.674195142 0.736202705
vn -0.436795383 0.491721899 0.753272439
vn 0.123624363 0.0524455677 0.990942218
vn -0.264343608 0.619660073 0.739015461
vn 0.688898034 0.412581818 0.595983006
vn 0.912317644 0.0265559331 0.408621217
vn -0.55909035 0.827656698 0.0490139878
vn -0.21011594 0.913829278 0.347515961
vn 0.300906508 0.607881713 -0.73480276
vn -0.336719195 0.22265653 -0.914901226
vn 0.993154224 0.0745079647 -0.0899624956
vn 0.993549098 -0.0391468796 -0.106431725
vn 0.829878617 -0.313789621 0.461343208
vn -0.0348662168 -0.56733424 0.822749176
vn 0.571835098 -0.7234873 0.386743775
vn -0.204313044 -0.962607007 0.177887406
vn 0.981937714 -0.123637975 -0.143220028
vn -0.010128006 -0.801391929 -0.598053844
vn -0.179073464 -0.983459996 -0.0271869773
vn -0.38118569 -0.676830299 0.629760443
vn 0 -0.984916678 0.173029295
vn -0.290936056 0.134739008 -0.947207269
vn -0.343823213 0.088316319 -0.934872091
vn -0.343823213 0.088316319 -0.934872091
vn -0.213050699 0.177623974 -0.96075966
vn 0.183912168 0.121094165 -0.975455031
vn -0.238728551 0.201029488 -0.950050432
vn 0 0.25302334 -0.967460175
vn 0.957365722 -0.0367029993 -0.286537543
vn 0.957365722 -0.0367029993 -0.286537543
vn 0.225451375 0.734436339 0.640136659
vn -0.765430613 0.228943709 -0.601415625
vn -0.674614975 -0.127237443 -0.72712122
vn -0.60040703 -0.625720318 -0.497981408
vn -0.949567882 0.116947225 0.290936736
vn -0.773983381 0.507687157 0.378422352
vn -0.714200351 -0.127572437 0.688217358
vn 0.250774158 -0.161434568 0.954490022
vn -0.329875598 0.120635697 0.936284742
vn 0.0545953112 -0.479298819 0.87595205
vn -0.0588768812 -0.674195143 0.736202704
vn -0.234199731 0.545130469 0.804974072
vn 0.436795374 0.491721901 0.753272443
vn -0.123624363 0.0524455677 0.990942218
vn 0.264343608 0.619660073 0.739015461
vn -0.688898034 0.412581818 0.595983006
vn -0.912317644 0.0265559331 0.408621217
vn 0.55909034 0.827656703 0.0490140024
vn 0.21011594 0.913829278 0.347515961
vn -0.300906508 0.607881713 -0.73480276
vn 0.336719195 0.22265653 -0.914901226
vn -0.993154224 0.0745079647 -0.0899624956
vn -0.993549098 -0.0391468796 -0.106431725
vn -0.829878617 -0.313789621 0.461343208
vn 0.0348662168 -0.56733424 0.822749176
vn -0.571835098 -0.7234873 0.386743775
vn 0.204313044 -0.962607007 0.177887406
vn -0.981937714 -0.123637975 -0.143220028
vn 0.010128006 -0.801391929 -0.598053844
vn 0.179073459 -0.983459997 -0.0271869678
vn 0.381185682 -0.676830301 0.629760447
vn 0 -0.984916678 0.173029295
vn 0.290936053 0.134739008 -0.94720727
vn -0.183912168 0.121094165 -0.975455031
vn 0.213050693 0.177623974 -0.960759661
vn 0.238728538 0.201029488 -0.950050435
vn 0 0.25302334 -0.967460175
vn 0.343823213 0.088316319 -0.934872091
vn 0.343823213 0.088316319 -0.934872091
vn -0.957365722 -0.0367029993 -0.286537543
vn -0.957365722 -0.0367029993 -0.286537543
vn -0.225451366 0.73443634 0.64013666

g ArmorBag_08_00_Bag_submesh_0
usemtl 09
f 1/1/1 3/3/3 2/2/2
f 1/1/1 4/4/4 3/3/3
f 2/2/2 3/3/3 4/4/4
f 1/1/1 5/5/5 4/4/4
f 6/6/6 4/4/4 5/5/5
f 2/2/2 4/4/4 6/6/6
f 7/7/7 9/9/9 8/8/8
f 9/9/9 7/7/7 10/10/10
f 7/7/7 8/8/8 11/11/11
f 7/7/7 12/12/12 10/10/10
f 12/12/12 7/7/7 13/13/13
f 12/12/12 13/13/13 14/14/14
f 15/15/15 14/14/14 13/13/13
f 15/15/15 13/13/13 16/16/16
f 14/14/14 17/17/17 12/12/12
f 12/12/12 17/17/17 10/10/10
f 14/14/14 18/18/18 17/17/17
f 15/15/15 18/18/18 14/14/14
f 15/15/15 19/19/19 18/18/18
f 19/19/19 17/17/17 18/18/18
f 19/19/19 20/20/20 17/17/17
f 21/21/21 15/15/15 16/16/16
f 21/21/21 19/19/19 15/15/15
f 21/21/21 16/16/16 22/22/22
f 13/13/13 23/23/23 16/16/16
f 22/22/22 16/16/16 23/23/23
f 13/13/13 24/24/24 23/23/23
f 24/24/24 25/25/25 23/23/23
f 24/24/24 26/26/26 25/25/25
f 27/27/27 23/23/23 25/25/25
f 27/27/27 22/22/22 23/23/23
f 26/26/26 28/28/28 25/25/25
f 26/26/26 29/29/29 28/28/28
f 24/24/24 30/30/30 26/26/26
f 29/29/29 26/26/26 30/30/30
f 11/11/11 29/29/29 30/30/30
f 11/11/11 31/31/31 29/29/29
f 24/24/24 7/7/7 30/30/30
f 7/7/7 11/11/11 30/30/30
f 24/24/24 13/13/13 7/7/7
f 32/32/32 34/34/34 33/33/33
f 32/32/32 36/36/36 35/35/35
f 37/37/37 32/32/32 35/35/35
f 37/37/37 35/35/35 38/38/38
f 39/39/39 36/36/36 40/40/40
f 17/17/17 41/41/41 10/10/10
f 42/42/42 44/44/44 43/43/43
f 42/42/42 43/43/43 45/45/45
f 44/44/44 45/45/45 43/43/43
f 42/42/42 45/45/45 46/46/46
f 47/47/47 46/46/46 45/45/45
f 44/44/44 47/47/47 45/45/45
f 48/48/48 50/50/50 49/49/49
f 48/48/48 51/51/51 50/50/50
f 52/52/52 48/48/48 49/49/49
f 53/53/53 48/48/48 52/52/52
f 53/53/53 54/54/54 48/48/48
f 53/53/53 55/55/55 54/54/54
f 56/56/56 54/54/54 55/55/55
f 56/56/56 57/57/57 54/54/54
f 55/55/55 53/53/53 58/58/58
f 53/53/53 52/52/52 58/58/58
f 55/55/55 58/58/58 59/59/59
f 56/56/56 55/55/55 59/59/59
f 56/56/56 59/59/59 60/60/60
f 60/60/60 59/59/59 58/58/58
f 60/60/60 58/58/58 61/61/61
f 62/62/62 57/57/57 56/56/56
f 62/62/62 56/56/56 60/60/60
f 62/62/62 63/63/63 57/57/57
f 54/54/54 57/57/57 64/64/64
f 63/63/63 64/64/64 57/57/57
f 54/54/54 64/64/64 65/65/65
f 65/65/65 64/64/64 66/66/66
f 65/65/65 66/66/66 67/67/67
f 68/68/68 66/66/66 64/64/64
f 68/68/68 64/64/64 63/63/63
f 67/67/67 66/66/66 69/69/69
f 67/67/67 69/69/69 70/70/70
f 65/65/65 67/67/67 71/71/71
f 70/70/70 71/71/71 67/67/67
f 51/51/51 71/71/71 70/70/70
f 51/51/51 70/70/70 72/72/72
f 65/65/65 71/71/71 48/48/48
f 48/48/48 71/71/71 51/51/51
f 65/65/65 48/48/48 54/54/54
f 73/73/73 75/75/75 74/74/74
f 76/76/76 75/75/75 73/73/73
f 76/76/76 77/77/77 75/75/75
f 73/73/73 79/79/79 78/78/78
f 80/80/80 81/81/81 74/74/74
f 58/58/58 52/52/52 82/82/82
