# Generated from legacy Unity YAML Mesh assets without Unity.
mtllib ArmorBag_17.mtl

o ArmorBag_17_00_Bag
v -1.11030429e-09 -0.469121754 0.0493929908
v 0.116447501 -0.285256892 0.0911386982
v 0.144627795 -0.469121754 0.0493929908
v -1.11030429e-09 -0.285256892 0.0911386982
v -1.11030429e-09 -0.514150143 -0.0610826984
v 0.0954869464 -0.143857628 0.117882349
v -1.11030429e-09 -0.143857628 0.117882349
v 0.0887329951 -0.0589511842 0.10105703
v -1.11030429e-09 -0.0589511842 0.10105703
v -1.11030429e-09 0.1044745 -0.0201321337
v 0.183987051 -0.428285271 0.0339475647
v 0.162677154 -0.259476721 0.063756682
v 0.203433782 -0.12358252 -0.142742753
v 0.182473227 -0.365122139 -0.223080128
v 0.183288351 -0.474999547 -0.0571196377
v 0.138456076 -0.0701349229 0.0707025677
v 0.144161999 -0.14251098 0.0850684717
v 0.143929109 -0.0470033139 -0.140104875
v 0.144744247 -0.514150143 -0.0610826984
v 0.144744247 -0.395286918 -0.240664244
v -1.11030429e-09 -0.395286918 -0.240664244
v -1.11030429e-09 -0.514150143 -0.0610826984
v 0.0888494402 0.1044745 -0.0201321337
v -1.11030429e-09 0.1044745 -0.0201321337
v 0.0888494402 0.132023439 -0.0613289103
v -1.11030429e-09 0.132023439 -0.0613289103
v 0.135894224 0.0867590755 -0.0197922029
v 0.134031057 0.121424273 -0.0613804236
v 0.133798167 0.0949410051 -0.159709364
v -1.11030429e-09 0.104375377 -0.163999259
v -1.11030429e-09 -0.395286918 -0.240664244
v 0.182473227 -0.365122139 -0.223080128
v -1.11030429e-09 -0.121977836 -0.14176777
v 0.144744247 -0.395286918 -0.240664244
v 0.203433782 -0.12358252 -0.142742753
v 0.143929109 -0.0470033139 -0.140104875
v -1.11030429e-09 -0.0469025075 -0.139519721
v 0.133798167 0.0949410051 -0.159709364
v -1.11030429e-09 0.104375377 -0.163999259
v 0.284597665 -0.382711947 -0.0885410085
v 0.177000195 -0.372908473 -0.154327378
v 0.172808081 -0.372117519 -0.0969933495
v 0.291700959 -0.373205304 -0.143268853
v 0.183171913 -0.344093204 -0.20364441
v 0.294961512 -0.354549408 -0.196003765
v 0.309750348 -0.358445942 -0.137630671
v 0.311380595 -0.342920542 -0.19091557
v 0.301016778 -0.370941728 -0.0843809247
v 0.232079864 -0.132896453 -0.134256035
v 0.171527162 -0.13055405 -0.0913250595
v 0.177582443 -0.133677751 -0.139868498
v 0.228935778 -0.130700886 -0.0858539939
v 0.168848872 -0.157049045 -0.0503329746
v 0.223462746 -0.156381056 -0.0448400676
v 0.271788448 -0.188584715 -0.0472187735
v 0.291351646 -0.278386742 -0.0650057346
v 0.280754924 -0.164446279 -0.139296472
v 0.271322668 -0.145616531 -0.0856719017
v 0.297639817 -0.190220177 -0.0947903693
v 0.30090031 -0.252424777 -0.164256826
v 0.307654291 -0.264395624 -0.113206312
v 0.309750348 -0.358445942 -0.137630671
v 0.301016778 -0.370941728 -0.0843809247
v 0.284597665 -0.382711947 -0.0885410085
v 0.172808081 -0.372117519 -0.0969933495
v 0.311380595 -0.342920542 -0.19091557
v 0.177582443 -0.133677751 -0.139868498
v 0.294961512 -0.354549408 -0.196003765
v 0.311380595 -0.342920542 -0.19091557
v 0.30090031 -0.252424777 -0.164256826
v 0.280754924 -0.164446279 -0.139296472
v 0.232079864 -0.132896453 -0.134256035
v 0.183171913 -0.344093204 -0.20364441
v 0.0577579625 -0.0235277265 -0.15974395
v 0.152779117 -0.0422560126 -0.0565710329
v 0.152779117 -0.0235277265 -0.15974395
v 0.0577579625 -0.0422560126 -0.0565710329
v 0.0577579625 0.152626351 -0.0650860146
v 0.152779117 0.144957885 -0.022423733
v 0.0577579625 0.144957885 -0.022423733
v 0.152779117 0.152626351 -0.0650860146
v 0.152779117 0.129376963 -0.131992534
v 0.0577579625 0.129376963 -0.131992534
v 0.0577579625 -0.0235277265 -0.15974395
v 0.152779117 -0.0235277265 -0.15974395
v 0.20355022 -0.00397148728 -0.124505185
v 0.20355022 0.123463318 -0.0592288822
v 0.20355022 0.108010814 -0.104142584
v 0.20355022 -0.0114828944 -0.0833530575
v 0.152779117 -0.0235277265 -0.15974395
v 0.152779117 -0.0422560126 -0.0565710329
v 0.152779117 -0.0422560126 -0.0565710329
v 0.152779117 0.144957885 -0.022423733
v 0.152779117 0.152626351 -0.0650860146
v 0.152779117 0.129376963 -0.131992534
v 0.152779117 -0.0235277265 -0.15974395
v 0.152779117 -0.0422560126 -0.0565710329
v 0.0577579625 0.144957885 -0.022423733
v 0.152779117 0.144957885 -0.022423733
v 0.0577579625 -0.0422560126 -0.0565710329
v 0.0577579625 0.129376963 -0.131992534
v 0.0577579625 0.144957885 -0.022423733
v 0.0577579625 -0.0422560126 -0.0565710329
v 0.0577579625 0.152626351 -0.0650860146
v 0.0577579625 -0.0235277265 -0.15974395
v 0.0907125995 -0.563504577 -0.0885010287
v 0.0847737789 -0.482984424 -0.00701050088
v 0.0867533907 -0.475521624 -0.107107624
v 0.0907125995 -0.579713285 0.0293007065
v 0.0866369382 -0.525720298 0.0965664238
v 0.0812803507 -0.444826186 0.107707359
v 0.0813967958 -0.439164817 0.0486826897
v 0.0754579827 -0.362371027 0.156166807
v 0.0755744278 -0.352226198 0.0646454319
v 0.0465789959 -0.311183453 0.0762310997
v 0.0464625582 -0.320586801 0.161831409
v -1.11030429e-09 -0.563504577 -0.0885010287
v -1.11030429e-09 -0.580350697 0.053047426
v 0.0447158404 -0.270137489 0.0877003372
v 0.0447158404 -0.278605938 0.160162479
v 0.0296941083 -0.0760416389 0.130186632
v 0.0292283203 -0.0499825925 0.0793977231
v -1.11030429e-09 -0.278805882 0.167612404
v -1.11030429e-09 -0.0702705234 0.136515468
v -1.11030429e-09 -0.0702705234 0.136515468
v -1.11030429e-09 -0.0499825925 0.0793977231
v -1.11030429e-09 -0.362911552 0.176304981
v -1.11030429e-09 -0.321130425 0.182086021
v -1.11030429e-09 -0.445597947 0.136459559
v -1.11030429e-09 -0.52635771 0.120313175
v 0.0907125995 -0.563504577 -0.0885010287
v -1.11030429e-09 -0.475521624 -0.107107624
v -1.11030429e-09 -0.563504577 -0.0885010287
v 0.0867533907 -0.475521624 -0.107107624
v -1.11030429e-09 -0.469121754 0.0493929908
v -0.116447508 -0.285256892 0.0911386982
v -1.11030429e-09 -0.285256892 0.0911386982
v -0.144627795 -0.469121754 0.0493929908
v -1.11030429e-09 -0.514150143 -0.0610826984
v -0.0954869464 -0.143857628 0.117882349
v -1.11030429e-09 -0.143857628 0.117882349
v -0.0887329876 -0.0589511842 0.10105703
v -1.11030429e-09 -0.0589511842 0.10105703
v -1.11030429e-09 0.1044745 -0.0201321337
v -0.183987051 -0.428285271 0.0339475647
v -0.162677124 -0.259476721 0.063756682
v -0.203433782 -0.12358252 -0.142742753
v -0.182473227 -0.365122139 -0.223080128
v -0.183288351 -0.474999547 -0.0571196377
v -0.138456061 -0.0701349229 0.0707025677
v -0.144161999 -0.14251098 0.0850684717
v -0.143929094 -0.0470033139 -0.140104875
v -0.144744217 -0.514150143 -0.0610826984
v -1.11030429e-09 -0.514150143 -0.0610826984
v -1.11030429e-09 -0.395286918 -0.240664244
v -0.144744217 -0.395286918 -0.240664244
v -0.0888494551 0.1044745 -0.0201321337
v -1.11030429e-09 0.1044745 -0.0201321337
v -0.0888494551 0.132023439 -0.0613289103
v -1.11030429e-09 0.132023439 -0.0613289103
v -0.135894239 0.0867590755 -0.0197922029
v -0.134031057 0.121424273 -0.0613804236
v -0.133798182 0.0949410051 -0.159709364
v -1.11030429e-09 0.104375377 -0.163999259
v -1.11030429e-09 -0.395286918 -0.240664244
v -0.182473227 -0.365122139 -0.223080128
v -0.144744217 -0.395286918 -0.240664244
v -1.11030429e-09 -0.121977836 -0.14176777
v -0.203433782 -0.12358252 -0.142742753
v -0.143929094 -0.0470033139 -0.140104875
v -1.11030429e-09 -0.0469025075 -0.139519721
v -0.133798182 0.0949410051 -0.159709364
v -1.11030429e-09 0.104375377 -0.163999259
v -0.284597695 -0.382711947 -0.0885410085
v -0.177000195 -0.372908473 -0.154327378
v -0.291701019 -0.373205304 -0.143268853
v -0.172808081 -0.372117519 -0.0969933495
v -0.183171883 -0.344093204 -0.20364441
v -0.294961512 -0.354549408 -0.196003765
v -0.309750378 -0.358445942 -0.137630671
v -0.311380625 -0.342920542 -0.19091557
v -0.301016837 -0.370941728 -0.0843809247
v -0.232079864 -0.132896453 -0.134256035
v -0.171527147 -0.13055405 -0.0913250595
v -0.228935778 -0.130700886 -0.0858539939
v -0.177582458 -0.133677751 -0.139868498
v -0.168848872 -0.157049045 -0.0503329746
v -0.223462746 -0.156381056 -0.0448400676
v -0.271788448 -0.188584715 -0.0472187735
v -0.291351676 -0.278386742 -0.0650057346
v -0.280754924 -0.164446279 -0.139296472
v -0.271322668 -0.145616531 -0.0856719017
v -0.297639847 -0.190220177 -0.0947903693
v -0.30090037 -0.252424777 -0.164256826
v -0.307654321 -0.264395624 -0.113206312
v -0.309750378 -0.358445942 -0.137630671
v -0.301016837 -0.370941728 -0.0843809247
v -0.284597695 -0.382711947 -0.0885410085
v -0.172808081 -0.372117519 -0.0969933495
v -0.311380625 -0.342920542 -0.19091557
v -0.177582458 -0.133677751 -0.139868498
v -0.311380625 -0.342920542 -0.19091557
v -0.294961512 -0.354549408 -0.196003765
v -0.30090037 -0.252424777 -0.164256826
v -0.280754924 -0.164446279 -0.139296472
v -0.232079864 -0.132896453 -0.134256035
v -0.183171883 -0.344093204 -0.20364441
v -0.0577579625 -0.0235277265 -0.15974395
v -0.152779117 -0.0422560126 -0.0565710329
v -0.0577579625 -0.0422560126 -0.0565710329
v -0.152779117 -0.0235277265 -0.15974395
v -0.0577579625 0.152626351 -0.0650860146
v -0.152779117 0.144957885 -0.022423733
v -0.152779117 0.152626351 -0.0650860146
v -0.0577579625 0.144957885 -0.022423733
v -0.152779117 0.129376963 -0.131992534
v -0.0577579625 0.129376963 -0.131992534
v -0.0577579625 -0.0235277265 -0.15974395
v -0.152779117 -0.0235277265 -0.15974395
v -0.20355022 -0.00397148728 -0.124505185
v -0.20355022 0.123463318 -0.0592288822
v -0.20355022 -0.0114828944 -0.0833530575
v -0.20355022 0.108010814 -0.104142584
v -0.152779117 -0.0235277265 -0.15974395
v -0.152779117 -0.0422560126 -0.0565710329
v -0.152779117 -0.0422560126 -0.0565710329
v -0.152779117 0.144957885 -0.022423733
v -0.152779117 0.152626351 -0.0650860146
v -0.152779117 0.129376963 -0.131992534
v -0.152779117 -0.0235277265 -0.15974395
v -0.152779117 -0.0422560126 -0.0565710329
v -0.0577579625 0.144957885 -0.022423733
v -0.0577579625 -0.0422560126 -0.0565710329
v -0.152779117 0.144957885 -0.022423733
v -0.0577579625 0.129376963 -0.131992534
v -0.0577579625 0.144957885 -0.022423733
v -0.0577579625 0.152626351 -0.0650860146
v -0.0577579625 -0.0422560126 -0.0565710329
v -0.0577579625 -0.0235277265 -0.15974395
v -0.0907126069 -0.563504577 -0.0885010287
v -0.0847737715 -0.482984424 -0.00701050088
v -0.0907126069 -0.579713285 0.0293007065
v -0.0867533982 -0.475521624 -0.107107624
v -0.0866369307 -0.525720298 0.0965664238
v -0.0812803581 -0.444826186 0.107707359
v -0.0813967884 -0.439164817 0.0486826897
v -0.0754579902 -0.362371027 0.156166807
v -0.0755744204 -0.352226198 0.0646454319
v -0.0465790071 -0.311183453 0.0762310997
v -0.0464625582 -0.320586801 0.161831409
v -1.11030429e-09 -0.563504577 -0.0885010287
v -1.11030429e-09 -0.580350697 0.053047426
v -0.0447158478 -0.270137489 0.0877003372
v -0.0447158478 -0.278605938 0.160162479
v -0.029694112 -0.0760416389 0.130186632
v -0.0292283315 -0.0499825925 0.0793977231
v -1.11030429e-09 -0.278805882 0.167612404
v -1.11030429e-09 -0.0702705234 0.136515468
v -1.11030429e-09 -0.0702705234 0.136515468
v -1.11030429e-09 -0.0499825925 0.0793977231
v -1.11030429e-09 -0.362911552 0.176304981
v -1.11030429e-09 -0.321130425 0.182086021
v -1.11030429e-09 -0.445597947 0.136459559
v -1.11030429e-09 -0.52635771 0.120313175
v -0.0907126069 -0.563504577 -0.0885010287
v -1.11030429e-09 -0.475521624 -0.107107624
v -0.0867533982 -0.475521624 -0.107107624
v -1.11030429e-09 -0.563504577 -0.0885010287
vt 0.440300673 0.220629111
vt 0.33116883 0.449838042
vt 0.300013274 0.270344019
vt 0.46158734 0.449777365
vt 0.333646625 0.0657946169
vt 0.329614192 0.603591859
vt 0.428496599 0.61659658
vt 0.3068901 0.68883431
vt 0.383245438 0.713690758
vt 0.247581288 0.897662401
vt 0.255700231 0.30790028
vt 0.265435457 0.472919106
vt 0.00357668428 0.552271843
vt 0.00629841769 0.24026911
vt 0.201060981 0.231970906
vt 0.245445535 0.655909836
vt 0.266936302 0.592769384
vt 0.0058593438 0.661841631
vt 0.225720868 0.187192485
vt 0.0123300496 0.182108387
vt 0.0724854693 0.0103259813
vt 0.333646625 0.0657946169
vt 0.181310505 0.832471728
vt 0.247581288 0.897662401
vt 0.140111253 0.860564768
vt 0.19693765 0.934181511
vt 0.153684586 0.791189551
vt 0.120246656 0.821070671
vt 0.018150337 0.827135623
vt 0.086679019 0.982259452
vt 0.686533272 0.870765984
vt 0.706050754 0.76685816
vt 0.851935506 0.870719016
vt 0.686253667 0.788396657
vt 0.850909591 0.754950345
vt 0.894542575 0.788776457
vt 0.894677997 0.870683968
vt 0.976095557 0.794418633
vt 0.981886864 0.870765984
vt 0.395540029 0.973386228
vt 0.337301999 0.858531713
vt 0.39577648 0.858780444
vt 0.339044809 0.974337578
vt 0.278975666 0.86054498
vt 0.282491535 0.97486639
vt 0.339438081 0.998416483
vt 0.282772005 0.996082067
vt 0.39577648 0.994435728
vt 0.866771817 0.73059386
vt 0.964922369 0.721811056
vt 0.927987993 0.769367039
vt 0.903711796 0.69067806
vt 0.981797993 0.665854692
vt 0.922662079 0.655715108
vt 0.883386254 0.623110056
vt 0.856979728 0.540147603
vt 0.808934093 0.675563335
vt 0.868579388 0.66429776
vt 0.836532414 0.6260764
vt 0.74736917 0.574149489
vt 0.802120268 0.556536853
vt 0.778620422 0.445734978
vt 0.848233104 0.433093429
vt 0.865166843 0.420370042
vt 0.978605568 0.428797007
vt 0.713932574 0.464784563
vt 0.654726267 0.853251696
vt 0.402794033 0.756484628
vt 0.414061099 0.73776567
vt 0.513992786 0.73776567
vt 0.612019777 0.748259068
vt 0.650835633 0.795700669
vt 0.424024373 0.873044848
vt 0.402919352 0.896840453
vt 0.513314188 0.996875048
vt 0.402919352 0.996876597
vt 0.513314068 0.896836519
vt 0.759296477 0.896839142
vt 0.713663638 0.996871948
vt 0.71366328 0.896838188
vt 0.759299219 0.99687171
vt 0.833868563 0.996875048
vt 0.833868206 0.896837711
vt 0.997475684 0.896835923
vt 0.997477233 0.996870875
vt 0.822671771 0.113469191
vt 0.908156633 0.314233094
vt 0.850924611 0.288018495
vt 0.891865849 0.105368204
vt 0.769143283 0.0257014725
vt 0.934089124 0.0142992232
vt 0.990763485 0.0657171085
vt 0.983294666 0.374230057
vt 0.897877574 0.39878729
vt 0.778361559 0.346589118
vt 0.719486773 0.0987204388
vt 0.513314188 0.996875048
vt 0.71366328 0.896838188
vt 0.713663638 0.996871948
vt 0.513314068 0.896836519
vt 0.722242236 0.692474663
vt 0.61170584 0.729310453
vt 0.61170584 0.528962195
vt 0.657339334 0.72919327
vt 0.722100377 0.528868258
vt 0.517533839 0.0677842572
vt 0.495005935 0.200425655
vt 0.424746722 0.113208927
vt 0.591158211 0.156671315
vt 0.606312692 0.230260342
vt 0.582246363 0.310581148
vt 0.519777954 0.280178964
vt 0.57964021 0.402977586
vt 0.490577638 0.370450377
vt 0.486219764 0.427070022
vt 0.582889616 0.453804135
vt 0.609315097 0.00766569935
vt 0.688643396 0.150725871
vt 0.485456616 0.470267206
vt 0.566878259 0.49698171
vt 0.480261743 0.673951626
vt 0.424748838 0.690958619
vt 0.609751999 0.517499685
vt 0.500259042 0.697189808
vt 0.500259042 0.697189808
vt 0.438897431 0.72238183
vt 0.652526557 0.438703001
vt 0.634935439 0.477666318
vt 0.67522639 0.340207309
vt 0.698118627 0.250857115
vt 0.360064268 0.00752539001
vt 0.443813801 0.0920116901
vt 0.360060662 0.0920075774
vt 0.443813801 0.0112174526
vt 0.440300673 0.220629111
vt 0.33116883 0.449838042
vt 0.46158734 0.449777365
vt 0.300013274 0.270344019
vt 0.333646625 0.0657946169
vt 0.329614192 0.603591859
vt 0.428496599 0.61659658
vt 0.3068901 0.68883431
vt 0.383245438 0.713690758
vt 0.247581288 0.897662401
vt 0.255700231 0.30790028
vt 0.265435457 0.472919106
vt 0.00357668428 0.552271843
vt 0.00629841769 0.24026911
vt 0.201060981 0.231970906
vt 0.245445535 0.655909836
vt 0.266936302 0.592769384
vt 0.0058593438 0.661841631
vt 0.225720868 0.187192485
vt 0.333646625 0.0657946169
vt 0.0724854693 0.0103259813
vt 0.0123300496 0.182108387
vt 0.181310505 0.832471728
vt 0.247581288 0.897662401
vt 0.140111253 0.860564768
vt 0.19693765 0.934181511
vt 0.153684586 0.791189551
vt 0.120246656 0.821070671
vt 0.018150337 0.827135623
vt 0.086679019 0.982259452
vt 0.686533272 0.870765984
vt 0.706050754 0.76685816
vt 0.686253667 0.788396657
vt 0.851935506 0.870719016
vt 0.850909591 0.754950345
vt 0.894542575 0.788776457
vt 0.894677997 0.870683968
vt 0.976095557 0.794418633
vt 0.981886864 0.870765984
vt 0.395540029 0.973386228
vt 0.337301999 0.858531713
vt 0.339044809 0.974337578
vt 0.39577648 0.858780444
vt 0.278975666 0.86054498
vt 0.282491535 0.97486639
vt 0.339438081 0.998416483
vt 0.282772005 0.996082067
vt 0.39577648 0.994435728
vt 0.866771817 0.73059386
vt 0.964922369 0.721811056
vt 0.903711796 0.69067806
vt 0.927987993 0.769367039
vt 0.981797993 0.665854692
vt 0.922662079 0.655715108
vt 0.883386254 0.623110056
vt 0.856979728 0.540147603
vt 0.808934093 0.675563335
vt 0.868579388 0.66429776
vt 0.836532414 0.6260764
vt 0.74736917 0.574149489
vt 0.802120268 0.556536853
vt 0.778620422 0.445734978
vt 0.848233104 0.433093429
vt 0.865166843 0.420370042
vt 0.978605568 0.428797007
vt 0.713932574 0.464784563
vt 0.654726267 0.853251696
vt 0.414061099 0.73776567
vt 0.402794033 0.756484628
vt 0.513992786 0.73776567
vt 0.612019777 0.748259068
vt 0.650835633 0.795700669
vt 0.424024373 0.873044848
vt 0.402919352 0.896840453
vt 0.513314188 0.996875048
vt 0.513314068 0.896836519
vt 0.402919352 0.996876597
vt 0.759296477 0.896839142
vt 0.713663638 0.996871948
vt 0.759299219 0.99687171
vt 0.71366328 0.896838188
vt 0.833868563 0.996875048
vt 0.833868206 0.896837711
vt 0.997475684 0.896835923
vt 0.997477233 0.996870875
vt 0.822671771 0.113469191
vt 0.908156633 0.314233094
vt 0.891865849 0.105368204
vt 0.850924611 0.288018495
vt 0.769143283 0.0257014725
vt 0.934089124 0.0142992232
vt 0.990763485 0.0657171085
vt 0.983294666 0.374230057
vt 0.897877574 0.39878729
vt 0.778361559 0.346589118
vt 0.719486773 0.0987204388
vt 0.513314188 0.996875048
vt 0.71366328 0.896838188
vt 0.513314068 0.896836519
vt 0.713663638 0.996871948
vt 0.722242236 0.692474663
vt 0.61170584 0.729310453
vt 0.657339334 0.72919327
vt 0.61170584 0.528962195
vt 0.722100377 0.528868258
vt 0.517533839 0.0677842572
vt 0.495005935 0.200425655
vt 0.591158211 0.156671315
vt 0.424746722 0.113208927
vt 0.606312692 0.230260342
vt 0.582246363 0.310581148
vt 0.519777954 0.280178964
vt 0.57964021 0.402977586
vt 0.490577638 0.370450377
vt 0.486219764 0.427070022
vt 0.582889616 0.453804135
vt 0.609315097 0.00766569935
vt 0.688643396 0.150725871
vt 0.485456616 0.470267206
vt 0.566878259 0.49698171
vt 0.480261743 0.673951626
vt 0.424748838 0.690958619
vt 0.609751999 0.517499685
vt 0.500259042 0.697189808
vt 0.500259042 0.697189808
vt 0.438897431 0.72238183
vt 0.652526557 0.438703001
vt 0.634935439 0.477666318
vt 0.67522639 0.340207309
vt 0.698118627 0.250857115
vt 0.360064268 0.00752539001
vt 0.443813801 0.0920116901
vt 0.443813801 0.0112174526
vt 0.360060662 0.0920075774
vn 0 -0.44219393 0.896919466
vn 0.15928711 -0.183252879 0.970075254
vn 0.18485838 -0.66258305 0.725817526
vn 0 -0.200761377 0.979640173
vn 0 -0.926034433 0.377439041
vn 0.198820422 -0.0730671151 0.977308363
vn 0 0.0187279735 0.999824616
vn 0.164261638 0.467791941 0.868440449
vn 0 0.485783296 0.874079281
vn 0 0.595649889 0.803244178
vn 0.980604072 -0.0547735445 0.188190096
vn 0.912322415 0.0608720521 0.404922715
vn 0.987586477 0.0922877992 0.127105907
vn 0.9778248 -0.181839815 -0.10388909
vn 0.918636226 -0.394436905 -0.0229567623
vn 0.91368826 0.270793509 0.303058804
vn 0.65216578 0.100725582 0.751354878
vn 0.977769598 0.206999153 0.0334359585
vn 0.197488738 -0.9074489 -0.370856701
vn 0.187644475 -0.819071855 -0.542135452
vn 0 -0.833884127 -0.551939546
vn 0 -0.969095508 -0.246685826
vn 0.195894804 0.607894452 0.769473561
vn 0 0.681651201 0.731677279
vn 0.089458667 0.987246808 0.131684802
vn 0.0409456958 0.984382441 -0.171215246
vn 0.946949306 0.210797967 0.242592725
vn 0.956129854 0.292929733 0.00280614495
vn 0.494618264 0.831460873 -0.253032783
vn 0.0762013386 0.962793953 -0.259270438
vn 0.031402425 0.354753605 -0.934432324
vn 0.0156257281 0.336483029 -0.94155988
vn 0.0123046875 0.270457848 -0.962653181
vn 0 0.503614461 -0.863928512
vn -0.00264938703 0.252085507 -0.967701337
vn -0.00425922259 -0.0433130713 -0.99905247
vn 0.00558458153 -0.111571708 -0.993740694
vn 0.00809656313 -0.148394135 -0.988895154
vn 0.0203828754 -0.159707265 -0.986953964
vn 0.0115049361 -0.996616967 -0.0813772515
vn -0.0116228704 -0.973392181 -0.228850544
vn -0.0948555816 -0.995467837 0.00679742061
vn 0.108579634 -0.942980285 -0.314640502
vn -0.00816078663 -0.906384778 -0.422374285
vn 0.141457212 -0.93720871 -0.318794119
vn 0.639653471 -0.751193692 -0.16294623
vn 0.607217261 -0.767613182 -0.205078523
vn 0.620608264 -0.781153518 -0.0681510434
vn 0.190128444 0.980996652 -0.0386877681
vn -0.0176612207 0.987946771 0.153783152
vn -0.00759524767 0.997846094 -0.0651573915
vn 0.182935951 0.956126475 0.22881565
vn -0.0962140379 -0.117310597 0.988423534
vn 0.186738929 0.637282782 0.747662509
vn 0.519704713 0.0614125268 0.852135854
vn 0.481577306 -0.128864318 0.866877895
vn 0.773462889 0.617021733 -0.145049443
vn 0.619326288 0.718813781 0.315819089
vn 0.963112428 0.252384678 0.0933617984
vn 0.972444935 0.192166037 -0.131996447
vn 0.98452075 0.0641753912 0.163096329
vn 0.985258129 0.00767020617 0.170902276
vn 0.218962324 -0.177792204 0.959398475
vn -0.0937276687 -0.212751074 0.972600691
vn -0.0936995492 -0.212737608 0.972606346
vn 0.996693119 0.0759314437 -0.0289351523
vn 0.0920311503 0.2911973 -0.952226023
vn 0.0918897969 0.290873543 -0.95233862
vn 0.0913438338 0.290763341 -0.952424792
vn 0.0920958495 0.29120759 -0.952216621
vn 0.0923950975 0.292120422 -0.951907981
vn 0.0936387194 0.296316905 -0.950488339
vn 0.0923091828 0.291070794 -0.95223779
vn 0 -0.983920939 -0.178604554
vn 0 -0.983920939 -0.178604554
vn 0 -0.983920939 -0.178604554
vn 0 -0.983920939 -0.178604554
vn 0 0.990040071 -0.140785857
vn 0 0.984226516 0.176912877
vn 0 0.984226516 0.176912877
vn 0 0.990040071 -0.140785857
vn 0 0.473346578 -0.880876278
vn 0 0.473346578 -0.880876278
vn 0 0.17857749 -0.983925851
vn 0 0.17857749 -0.983925851
vn 0.821322546 0.0145750179 -0.570277866
vn 0.826791292 0.0522078295 0.560080799
vn 0.755787398 0.431817987 -0.492258707
vn 0.805467032 -0.497954027 0.321348173
vn 0.449037534 -0.879101764 -0.159829229
vn 0.448753044 -0.879286663 -0.159610997
vn 0.53453672 -0.150426731 0.831650343
vn 0.596249179 0.0350432261 0.802034219
vn 0.504673609 0.846400747 -0.170030359
vn 0.553794265 0.308698251 -0.773315784
vn 0.52332141 0.152172197 -0.838438027
vn 0 -0.179436849 0.983769494
vn 0 -0.179436849 0.983769494
vn 0 -0.179436849 0.983769494
vn 0 -0.179436849 0.983769494
vn -1 0 0
vn -1 0 0
vn -1 0 0
vn -1 0 0
vn -1 0 0
vn 0.896486336 -0.439783538 -0.0538766184
vn 0.998031642 0.0615601013 0.0119664281
vn 0.998478794 0.0498939994 0.0234667016
vn 0.581833576 -0.811134754 0.0594146519
vn 0.732754941 -0.386375118 0.560164676
vn 0.746818676 -0.152584467 0.647286525
vn 0.997813343 0.0655595631 0.00839506739
vn 0.836847882 -0.0201480514 0.547064602
vn 0.966102883 0.256448365 0.0296556185
vn 0.901980621 0.42903898 0.0485439219
vn 0.852043028 0.183854572 0.490122613
vn -0.013062092 -0.991890934 -0.126418974
vn 0.089808142 -0.946836734 0.308925068
vn 0.997638793 0.06713325 0.0144901939
vn 0.830558297 0.141507932 0.538654268
vn 0.855904282 0.170826237 0.488104759
vn 0.935919381 0.324718644 0.13642842
vn 0.187033253 0.170565014 0.967432756
vn 0.232884134 0.143434528 0.961868763
vn 0.131207626 0.911094386 0.390757698
vn 0 0.942321922 0.334707927
vn 0.276062353 -0.254681042 0.926783224
vn 0.327313468 0.0799916799 0.941523885
vn 0.291212035 -0.366450086 0.883691057
vn 0.270063483 -0.385603244 0.882256115
vn 0 -0.206903428 -0.978361371
vn 0 -0.206903428 -0.978361371
vn 0 -0.206903428 -0.978361371
vn 0 -0.206903428 -0.978361371
vn 0 -0.442193925 0.896919468
vn -0.159287127 -0.183252869 0.970075253
vn 0 -0.200761378 0.979640173
vn -0.184858385 -0.662583059 0.725817517
vn 0 -0.926034433 0.377439041
vn -0.198820439 -0.0730671151 0.97730836
vn 0 0.0187279696 0.999824616
vn -0.164261644 0.467791944 0.868440446
vn 0 0.485783296 0.874079281
vn 0 0.595649889 0.803244178
vn -0.980604071 -0.0547734942 0.188190119
vn -0.912322419 0.0608720906 0.404922699
vn -0.987586465 0.0922878292 0.127105985
vn -0.977824775 -0.181839912 -0.103889155
vn -0.918636143 -0.394437093 -0.0229568457
vn -0.913688282 0.270793445 0.303058796
vn -0.652165903 0.100725574 0.751354772
vn -0.977769613 0.206999085 0.0334359526
vn -0.19748874 -0.907448895 -0.370856711
vn 0 -0.969095508 -0.246685826
vn 0 -0.833884127 -0.551939546
vn -0.187644477 -0.819071854 -0.542135451
vn -0.195894796 0.607894438 0.769473574
vn 0 0.681651201 0.731677279
vn -0.0894586662 0.987246808 0.131684805
vn -0.040945691 0.984382441 -0.171215243
vn -0.946949352 0.210797839 0.242592652
vn -0.956129897 0.292929591 0.002806136
vn -0.494618293 0.831460875 -0.253032719
vn -0.0762013315 0.962793953 -0.259270438
vn -0.0314024259 0.354753602 -0.934432325
vn -0.0156257284 0.336483028 -0.941559881
vn 0 0.503614461 -0.863928512
vn -0.0123046878 0.27045785 -0.96265318
vn 0.00264938706 0.252085507 -0.967701337
vn 0.00425922295 -0.0433130686 -0.99905247
vn -0.00558458172 -0.111571712 -0.993740693
vn -0.00809656323 -0.148394136 -0.988895154
vn -0.0203828734 -0.159707265 -0.986953964
vn -0.0115049302 -0.996616968 -0.0813772449
vn 0.0116228654 -0.973392176 -0.228850564
vn -0.108579605 -0.942980278 -0.314640533
vn 0.0948555567 -0.995467839 0.00679742247
vn 0.00816078404 -0.90638478 -0.422374279
vn -0.141457195 -0.937208696 -0.318794169
vn -0.639653709 -0.751193428 -0.162946515
vn -0.607216568 -0.767613685 -0.205078691
vn -0.620608264 -0.781153518 -0.0681510434
vn -0.19012844 0.980996653 -0.0386877685
vn 0.0176612191 0.987946766 0.153783186
vn -0.182935935 0.956126477 0.228815655
vn 0.00759524924 0.997846093 -0.0651573964
vn 0.0962140158 -0.117310615 0.988423534
vn -0.186738929 0.637282782 0.747662509
vn -0.519704645 0.0614126147 0.852135889
vn -0.481577373 -0.128864209 0.866877874
vn -0.77346267 0.617021983 -0.145049542
vn -0.619326169 0.718813883 0.315819091
vn -0.963112335 0.252384949 0.0933620276
vn -0.97244496 0.192166081 -0.131996201
vn -0.984520713 0.0641753174 0.163096581
vn -0.985258153 0.00767034451 0.170902128
vn -0.218962278 -0.177792121 0.9593985
vn 0.0937276258 -0.212751065 0.972600697
vn 0.0936995244 -0.212737608 0.972606349
vn -0.996693142 0.075931222 -0.0289349272
vn -0.0920311184 0.291197291 -0.952226029
vn -0.0913437501 0.290763299 -0.952424812
vn -0.0918897555 0.290873518 -0.952338632
vn -0.0920958271 0.291207602 -0.95221662
vn -0.0923951282 0.29212048 -0.951907961
vn -0.0936387431 0.29631694 -0.950488325
vn -0.0923091571 0.291070776 -0.952237797
vn 0 -0.983920939 -0.178604554
vn 0 -0.983920939 -0.178604554
vn 0 -0.983920939 -0.178604554
vn 0 -0.983920939 -0.178604554
vn 0 0.990040071 -0.140785857
vn 0 0.984226516 0.176912877
vn 0 0.990040071 -0.140785857
vn 0 0.984226516 0.176912877
vn 0 0.473346578 -0.880876278
vn 0 0.473346578 -0.880876278
vn 0 0.17857749 -0.983925851
vn 0 0.17857749 -0.983925851
vn -0.821322546 0.0145750179 -0.570277866
vn -0.826791292 0.0522078295 0.560080799
vn -0.805467032 -0.497954027 0.321348173
vn -0.755787398 0.431817987 -0.492258707
vn -0.449037534 -0.879101764 -0.159829229
vn -0.448753044 -0.879286663 -0.159610997
vn -0.53453672 -0.150426731 0.831650343
vn -0.596249179 0.0350432261 0.802034219
vn -0.504673609 0.846400747 -0.170030359
vn -0.553794265 0.308698251 -0.773315784
vn -0.52332141 0.152172197 -0.838438027
vn 0 -0.179436849 0.983769494
vn 0 -0.179436849 0.983769494
vn 0 -0.179436849 0.983769494
vn 0 -0.179436849 0.983769494
vn 1 0 0
vn 1 0 0
vn 1 0 0
vn 1 0 0
vn 1 0 0
vn -0.896486365 -0.439783487 -0.0538765526
vn -0.998031637 0.0615601729 0.0119664507
vn -0.581833601 -0.811134733 0.0594146831
vn -0.998478789 0.0498940311 0.0234668525
vn -0.732754959 -0.386375114 0.560164656
vn -0.746818712 -0.152584493 0.647286478
vn -0.997813337 0.0655596732 0.00839487118
vn -0.836847907 -0.020148063 0.547064563
vn -0.966102914 0.256448269 0.0296554505
vn -0.901980645 0.429038929 0.0485439418
vn -0.852042998 0.183854579 0.490122662
vn 0.0130620912 -0.991890934 -0.126418974
vn -0.089808142 -0.946836737 0.308925056
vn -0.997638792 0.0671332435 0.0144902563
vn -0.830558276 0.141507921 0.538654302
vn -0.855904243 0.170826241 0.488104827
vn -0.935919352 0.324718668 0.136428564
vn -0.187033236 0.170565016 0.967432759
vn -0.232884123 0.143434528 0.961868765
vn -0.131207604 0.911094385 0.390757707
vn 0 0.942321922 0.334707927
vn -0.276062341 -0.254681037 0.926783229
vn -0.327313466 0.0799916689 0.941523886
vn -0.291212018 -0.366450088 0.883691062
vn -0.270063495 -0.385603246 0.882256111
vn 0 -0.206903428 -0.978361371
vn 0 -0.206903428 -0.978361371
vn 0 -0.206903428 -0.978361371
vn 0 -0.206903428 -0.978361371

g ArmorBag_17_00_Bag_submesh_0
usemtl bag_18
f 1/1/1 3/3/3 2/2/2
f 1/1/1 2/2/2 4/4/4
f 5/5/5 3/3/3 1/1/1
f 4/4/4 2/2/2 6/6/6
f 4/4/4 6/6/6 7/7/7
f 8/8/8 7/7/7 6/6/6
f 8/8/8 9/9/9 7/7/7
f 8/8/8 10/10/10 9/9/9
f 11/11/11 2/2/2 3/3/3
f 11/11/11 12/12/12 2/2/2
f 12/12/12 6/6/6 2/2/2
f 11/11/11 13/13/13 12/12/12
f 14/14/14 13/13/13 11/11/11
f 14/14/14 11/11/11 15/15/15
f 3/3/3 15/15/15 11/11/11
f 12/12/12 13/13/13 16/16/16
f 12/12/12 16/16/16 17/17/17
f 12/12/12 17/17/17 6/6/6
f 8/8/8 6/6/6 17/17/17
f 8/8/8 17/17/17 16/16/16
f 16/16/16 13/13/13 18/18/18
f 19/19/19 14/14/14 15/15/15
f 19/19/19 20/20/20 14/14/14
f 19/19/19 21/21/21 20/20/20
f 19/19/19 22/22/22 21/21/21
f 22/22/22 19/19/19 3/3/3
f 3/3/3 19/19/19 15/15/15
f 23/23/23 8/8/8 16/16/16
f 8/8/8 23/23/23 24/24/24
f 25/25/25 24/24/24 23/23/23
f 25/25/25 26/26/26 24/24/24
f 25/25/25 23/23/23 27/27/27
f 23/23/23 16/16/16 27/27/27
f 16/16/16 18/18/18 27/27/27
f 25/25/25 27/27/27 28/28/28
f 18/18/18 28/28/28 27/27/27
f 26/26/26 25/25/25 29/29/29
f 18/18/18 29/29/29 28/28/28
f 28/28/28 29/29/29 25/25/25
f 26/26/26 29/29/29 30/30/30
f 31/31/31 33/33/33 32/32/32
f 31/31/31 32/32/32 34/34/34
f 32/32/32 33/33/33 35/35/35
f 36/36/36 35/35/35 33/33/33
f 36/36/36 33/33/33 37/37/37
f 38/38/38 36/36/36 37/37/37
f 38/38/38 37/37/37 39/39/39
f 40/40/40 42/42/42 41/41/41
f 40/40/40 41/41/41 43/43/43
f 44/44/44 43/43/43 41/41/41
f 44/44/44 45/45/45 43/43/43
f 46/46/46 43/43/43 45/45/45
f 46/46/46 45/45/45 47/47/47
f 43/43/43 46/46/46 48/48/48
f 43/43/43 48/48/48 40/40/40
f 49/49/49 51/51/51 50/50/50
f 49/49/49 50/50/50 52/52/52
f 53/53/53 52/52/52 50/50/50
f 53/53/53 54/54/54 52/52/52
f 53/53/53 55/55/55 54/54/54
f 53/53/53 56/56/56 55/55/55
f 52/52/52 57/57/57 49/49/49
f 52/52/52 58/58/58 57/57/57
f 58/58/58 52/52/52 54/54/54
f 58/58/58 54/54/54 55/55/55
f 57/57/57 58/58/58 59/59/59
f 55/55/55 59/59/59 58/58/58
f 59/59/59 60/60/60 57/57/57
f 59/59/59 61/61/61 60/60/60
f 61/61/61 59/59/59 55/55/55
f 61/61/61 55/55/55 56/56/56
f 56/56/56 62/62/62 61/61/61
f 56/56/56 63/63/63 62/62/62
f 63/63/63 56/56/56 53/53/53
f 53/53/53 64/64/64 63/63/63
f 65/65/65 64/64/64 53/53/53
f 61/61/61 62/62/62 66/66/66
f 61/61/61 66/66/66 60/60/60
f 67/67/67 69/69/69 68/68/68
f 67/67/67 70/70/70 69/69/69
f 67/67/67 71/71/71 70/70/70
f 67/67/67 72/72/72 71/71/71
f 68/68/68 73/73/73 67/67/67
f 74/74/74 76/76/76 75/75/75
f 74/74/74 75/75/75 77/77/77
f 78/78/78 80/80/80 79/79/79
f 78/78/78 79/79/79 81/81/81
f 78/78/78 81/81/81 82/82/82
f 78/78/78 82/82/82 83/83/83
f 84/84/84 83/83/83 82/82/82
f 84/84/84 82/82/82 85/85/85
f 86/86/86 88/88/88 87/87/87
f 86/86/86 87/87/87 89/89/89
f 90/90/90 86/86/86 89/89/89
f 90/90/90 89/89/89 91/91/91
f 92/92/92 89/89/89 87/87/87
f 92/92/92 87/87/87 93/93/93
f 93/93/93 87/87/87 94/94/94
f 94/94/94 87/87/87 88/88/88
f 94/94/94 88/88/88 95/95/95
f 95/95/95 88/88/88 86/86/86
f 95/95/95 86/86/86 96/96/96
f 97/97/97 99/99/99 98/98/98
f 97/97/97 98/98/98 100/100/100
f 101/101/101 103/103/103 102/102/102
f 101/101/101 102/102/102 104/104/104
f 103/103/103 101/101/101 105/105/105
f 106/106/106 108/108/108 107/107/107
f 106/106/106 107/107/107 109/109/109
f 107/107/107 110/110/110 109/109/109
f 107/107/107 111/111/111 110/110/110
f 107/107/107 112/112/112 111/111/111
f 112/112/112 113/113/113 111/111/111
f 112/112/112 114/114/114 113/113/113
f 113/113/113 114/114/114 115/115/115
f 113/113/113 115/115/115 116/116/116
f 117/117/117 106/106/106 109/109/109
f 117/117/117 109/109/109 118/118/118
f 110/110/110 118/118/118 109/109/109
f 116/116/116 115/115/115 119/119/119
f 116/116/116 119/119/119 120/120/120
f 119/119/119 121/121/121 120/120/120
f 119/119/119 122/122/122 121/121/121
f 123/123/123 120/120/120 121/121/121
f 123/123/123 121/121/121 124/124/124
f 122/122/122 125/125/125 121/121/121
f 122/122/122 126/126/126 125/125/125
f 116/116/116 127/127/127 113/113/113
f 116/116/116 128/128/128 127/127/127
f 120/120/120 123/123/123 128/128/128
f 120/120/120 128/128/128 116/116/116
f 113/113/113 127/127/127 129/129/129
f 113/113/113 129/129/129 111/111/111
f 111/111/111 129/129/129 130/130/130
f 111/111/111 130/130/130 110/110/110
f 110/110/110 130/130/130 118/118/118
f 131/131/131 133/133/133 132/132/132
f 131/131/131 132/132/132 134/134/134
f 135/135/135 137/137/137 136/136/136
f 135/135/135 136/136/136 138/138/138
f 139/139/139 135/135/135 138/138/138
f 137/137/137 140/140/140 136/136/136
f 137/137/137 141/141/141 140/140/140
f 142/142/142 140/140/140 141/141/141
f 142/142/142 141/141/141 143/143/143
f 142/142/142 143/143/143 144/144/144
f 145/145/145 138/138/138 136/136/136
f 145/145/145 136/136/136 146/146/146
f 146/146/146 136/136/136 140/140/140
f 145/145/145 146/146/146 147/147/147
f 148/148/148 145/145/145 147/147/147
f 148/148/148 149/149/149 145/145/145
f 138/138/138 145/145/145 149/149/149
f 146/146/146 150/150/150 147/147/147
f 146/146/146 151/151/151 150/150/150
f 146/146/146 140/140/140 151/151/151
f 142/142/142 150/150/150 151/151/151
f 142/142/142 151/151/151 140/140/140
f 150/150/150 152/152/152 147/147/147
f 153/153/153 149/149/149 148/148/148
f 138/138/138 149/149/149 153/153/153
f 154/154/154 138/138/138 153/153/153
f 153/153/153 155/155/155 154/154/154
f 153/153/153 156/156/156 155/155/155
f 153/153/153 148/148/148 156/156/156
f 157/157/157 150/150/150 142/142/142
f 142/142/142 158/158/158 157/157/157
f 159/159/159 157/157/157 158/158/158
f 159/159/159 158/158/158 160/160/160
f 159/159/159 161/161/161 157/157/157
f 157/157/157 161/161/161 150/150/150
f 150/150/150 161/161/161 152/152/152
f 159/159/159 162/162/162 161/161/161
f 152/152/152 161/161/161 162/162/162
f 160/160/160 163/163/163 159/159/159
f 152/152/152 162/162/162 163/163/163
f 162/162/162 159/159/159 163/163/163
f 160/160/160 164/164/164 163/163/163
f 165/165/165 167/167/167 166/166/166
f 165/165/165 166/166/166 168/168/168
f 166/166/166 169/169/169 168/168/168
f 170/170/170 168/168/168 169/169/169
f 170/170/170 171/171/171 168/168/168
f 172/172/172 171/171/171 170/170/170
f 172/172/172 173/173/173 171/171/171
f 174/174/174 176/176/176 175/175/175
f 174/174/174 175/175/175 177/177/177
f 178/178/178 175/175/175 176/176/176
f 178/178/178 176/176/176 179/179/179
f 180/180/180 179/179/179 176/176/176
f 180/180/180 181/181/181 179/179/179
f 176/176/176 174/174/174 182/182/182
f 176/176/176 182/182/182 180/180/180
f 183/183/183 185/185/185 184/184/184
f 183/183/183 184/184/184 186/186/186
f 187/187/187 184/184/184 185/185/185
f 187/187/187 185/185/185 188/188/188
f 187/187/187 188/188/188 189/189/189
f 187/187/187 189/189/189 190/190/190
f 185/185/185 183/183/183 191/191/191
f 185/185/185 191/191/191 192/192/192
f 192/192/192 189/189/189 188/188/188
f 192/192/192 188/188/188 185/185/185
f 191/191/191 193/193/193 192/192/192
f 189/189/189 192/192/192 193/193/193
f 193/193/193 191/191/191 194/194/194
f 193/193/193 194/194/194 195/195/195
f 195/195/195 190/190/190 189/189/189
f 195/195/195 189/189/189 193/193/193
f 190/190/190 195/195/195 196/196/196
f 190/190/190 196/196/196 197/197/197
f 197/197/197 187/187/187 190/190/190
f 187/187/187 197/197/197 198/198/198
f 199/199/199 187/187/187 198/198/198
f 195/195/195 194/194/194 200/200/200
f 195/195/195 200/200/200 196/196/196
f 201/201/201 203/203/203 202/202/202
f 201/201/201 202/202/202 204/204/204
f 201/201/201 204/204/204 205/205/205
f 201/201/201 205/205/205 206/206/206
f 203/203/203 201/201/201 207/207/207
f 208/208/208 210/210/210 209/209/209
f 208/208/208 209/209/209 211/211/211
f 212/212/212 214/214/214 213/213/213
f 212/212/212 213/213/213 215/215/215
f 212/212/212 216/216/216 214/214/214
f 212/212/212 217/217/217 216/216/216
f 218/218/218 216/216/216 217/217/217
f 218/218/218 219/219/219 216/216/216
f 220/220/220 222/222/222 221/221/221
f 220/220/220 221/221/221 223/223/223
f 224/224/224 222/222/222 220/220/220
f 224/224/224 225/225/225 222/222/222
f 226/226/226 221/221/221 222/222/222
f 226/226/226 227/227/227 221/221/221
f 227/227/227 228/228/228 221/221/221
f 228/228/228 223/223/223 221/221/221
f 228/228/228 229/229/229 223/223/223
f 229/229/229 220/220/220 223/223/223
f 229/229/229 230/230/230 220/220/220
f 231/231/231 233/233/233 232/232/232
f 231/231/231 232/232/232 234/234/234
f 235/235/235 237/237/237 236/236/236
f 235/235/235 236/236/236 238/238/238
f 238/238/238 239/239/239 235/235/235
f 240/240/240 242/242/242 241/241/241
f 240/240/240 241/241/241 243/243/243
f 241/241/241 242/242/242 244/244/244
f 241/241/241 244/244/244 245/245/245
f 241/241/241 245/245/245 246/246/246
f 246/246/246 245/245/245 247/247/247
f 246/246/246 247/247/247 248/248/248
f 247/247/247 249/249/249 248/248/248
f 247/247/247 250/250/250 249/249/249
f 251/251/251 242/242/242 240/240/240
f 251/251/251 252/252/252 242/242/242
f 244/244/244 242/242/242 252/252/252
f 250/250/250 253/253/253 249/249/249
f 250/250/250 254/254/254 253/253/253
f 253/253/253 254/254/254 255/255/255
f 253/253/253 255/255/255 256/256/256
f 257/257/257 255/255/255 254/254/254
f 257/257/257 258/258/258 255/255/255
f 256/256/256 255/255/255 259/259/259
f 256/256/256 259/259/259 260/260/260
f 250/250/250 247/247/247 261/261/261
f 250/250/250 261/261/261 262/262/262
f 254/254/254 250/250/250 262/262/262
f 254/254/254 262/262/262 257/257/257
f 247/247/247 263/263/263 261/261/261
f 247/247/247 245/245/245 263/263/263
f 245/245/245 264/264/264 263/263/263
f 245/245/245 244/244/244 264/264/264
f 244/244/244 252/252/252 264/264/264
f 265/265/265 267/267/267 266/266/266
f 265/265/265 266/266/266 268/268/268
