# Generated from legacy Unity YAML Mesh assets without Unity.
mtllib collision.mtl

o collision_PZ_window_
v 20.9045124 1.56389464 49.9142133
v 22.32584 16.0085863 46.7578419
v 20.9045124 16.0085863 49.9142133
v 22.32584 1.56389464 46.7578419
v 12.4964848 1.56389464 56.9231307
v 8.23285675 16.0085863 57.6890226
v 8.23285675 1.56389464 57.6890226
v 12.4964848 16.0085863 56.9231307
v 8.23285675 1.56389464 57.6890226
v 6.93375397 14.6784798 57.9745297
v 6.93375397 2.89400111 57.9745297
v 8.23285675 16.0085863 57.6890226
v 17.3807068 1.56389464 53.9992879
v 12.4964848 16.0085863 56.9231307
v 12.4964848 1.56389464 56.9231307
v 17.3807068 16.0085863 53.9992879
v 20.9045124 1.56389464 49.9142133
v 17.3807068 16.0085863 53.9992879
v 17.3807068 1.56389464 53.9992879
v 20.9045124 16.0085863 49.9142133
v 22.32584 16.0085863 46.7578419
v 22.7834663 2.89400111 45.5089408
v 22.7834663 14.6784798 45.5089408
v 22.32584 1.56389464 46.7578419
v -41.0929565 2.57100885 -50.8879058
v -46.1987572 6.80636148 -46.4766289
v -41.0929565 6.80636148 -50.8879058
v -46.1987572 2.57100885 -46.4766289
v -41.0929565 2.57100885 -50.8879058
v -32.0979538 6.80636148 -50.8879058
v -32.0979538 2.57100885 -50.8879058
v -41.0929565 6.80636148 -50.8879058
v -46.1987572 2.57100885 -46.4766289
v -46.1987572 6.80636148 -33.1219334
v -46.1987572 6.80636148 -46.4766289
v -46.1987572 2.57100885 -33.1219334
vt 0.436497152 0.000281114713
vt 0.599042416 0.0743933916
vt 0.599042416 0.000281114713
vt 0.436497152 0.0743933916
vt 0.438978553 0.00106799603
vt 0.599045277 0.073832579
vt 0.438978553 0.073832579
vt 0.599045336 0.00106799603
vt 0.438978553 0.0738326386
vt 0.599045336 0.00106805563
vt 0.438978553 0.00106805563
vt 0.599045277 0.0738326386
vt 0.438978672 0.0738326386
vt 0.599045396 0.00106805563
vt 0.438978612 0.00106805563
vt 0.599045396 0.0738326386
vt 0.438978553 0.0738326386
vt 0.599045336 0.00106805563
vt 0.438978553 0.00106805563
vt 0.599045277 0.0738326386
vt 0.599045396 0.0738326386
vt 0.438978612 0.00106805563
vt 0.599045396 0.00106805563
vt 0.438978672 0.0738326386
vt 0.436497152 0.000281114713
vt 0.599042416 0.0743933916
vt 0.599042416 0.000281114713
vt 0.436497152 0.0743933916
vt 0.438978553 0.0738326386
vt 0.599045336 0.00106805563
vt 0.438978553 0.00106805563
vt 0.599045277 0.0738326386
vt 0.436497152 0.000281114713
vt 0.599042416 0.0743933916
vt 0.599042416 0.000281114713
vt 0.436497152 0.0743933916
vn -0.911817635 9.11704981e-17 -0.410595421
vn -0.911817635 9.11704981e-17 -0.410595421
vn -0.911817635 9.11704981e-17 -0.410595421
vn -0.911817635 9.11704981e-17 -0.410595421
vn -0.17680389 2.18546536e-16 -0.9842461
vn -0.17680389 2.18546536e-16 -0.9842461
vn -0.17680389 2.18546536e-16 -0.9842461
vn -0.17680389 2.18546536e-16 -0.9842461
vn -0.2146499 2.1686898e-16 -0.976691057
vn -0.214649886 2.16868981e-16 -0.97669106
vn -0.214649886 2.16868981e-16 -0.97669106
vn -0.2146499 2.1686898e-16 -0.976691057
vn -0.513631309 1.90516714e-16 -0.858011001
vn -0.513631309 1.90516714e-16 -0.858011001
vn -0.513631309 1.90516714e-16 -0.858011001
vn -0.513631309 1.90516714e-16 -0.858011001
vn -0.757209212 1.45033412e-16 -0.653172419
vn -0.757209212 1.45033412e-16 -0.653172419
vn -0.757209212 1.45033412e-16 -0.653172419
vn -0.757209212 1.45033412e-16 -0.653172419
vn -0.938950163 7.63951528e-17 -0.344053182
vn -0.938950172 7.63951469e-17 -0.344053155
vn -0.938950172 7.63951469e-17 -0.344053155
vn -0.938950163 7.63951528e-17 -0.344053182
vn 0.653765985 -1.68020441e-16 0.756696793
vn 0.653765985 -1.68020441e-16 0.756696793
vn 0.653765985 -1.68020441e-16 0.756696793
vn 0.653765985 -1.68020441e-16 0.756696793
vn 0 -2.22044605e-16 1
vn 0 -2.22044605e-16 1
vn 0 -2.22044605e-16 1
vn 0 -2.22044605e-16 1
vn 1 0 0
vn 1 0 0
vn 1 0 0
vn 1 0 0

g collision_PZ_window__submesh_0
usemtl collision
f 1/1/1 3/3/3 2/2/2
f 1/1/1 2/2/2 4/4/4
f 5/5/5 7/7/7 6/6/6
f 5/5/5 6/6/6 8/8/8
f 9/9/9 11/11/11 10/10/10
f 9/9/9 10/10/10 12/12/12
f 13/13/13 15/15/15 14/14/14
f 13/13/13 14/14/14 16/16/16
f 17/17/17 19/19/19 18/18/18
f 17/17/17 18/18/18 20/20/20
f 21/21/21 23/23/23 22/22/22
f 21/21/21 22/22/22 24/24/24
f 25/25/25 27/27/27 26/26/26
f 25/25/25 26/26/26 28/28/28
f 29/29/29 31/31/31 30/30/30
f 29/29/29 30/30/30 32/32/32
f 33/33/33 35/35/35 34/34/34
f 33/33/33 34/34/34 36/36/36

o collision_PZ_Object52
v -1.76393762 9.3039315 10.9154527
v 0.883739204 13.5091754 3.97239563
v -1.76393712 9.30395629 -7.30624989
v -1.76393795 9.30395043 18.4683931
v 0.883739268 13.5091753 -8.93046883
v -1.76393689 9.30395053 -23.5091822
v -6.17698854 7.07940075 -22.1241515
v -1.76393689 9.30395053 -23.5091822
v -1.85378839 7.07940252 -26.6461795
v -10.8848022 7.07940064 -15.1393426
v -1.76393712 9.30395629 -7.30624989
v -12.6768629 7.0794008 -6.67085603
v -12.6768634 7.07940065 2.35430976
v -10.5947786 7.07940067 10.8228004
v -1.76393762 9.3039315 10.9154527
v -6.17698763 7.07940019 17.1206433
v -3.43353841 7.06318005 19.9525926
v -1.76393795 9.30395043 18.4683931
v -6.17698763 7.07940019 17.1206433
v -6.17698755 4.96637835 17.1206433
v -3.43353841 7.06318005 19.9525926
v -10.5947786 7.07940067 10.8228004
v -12.6768634 4.96422351 2.35430976
v -10.5947791 4.96422326 10.8228004
v -12.6768634 7.07940065 2.35430976
v -12.6768629 7.0794008 -6.67085603
v -10.8848021 4.95622795 -15.1393426
v -12.6768633 4.95622795 -6.67085603
v -10.8848022 7.07940064 -15.1393426
v -9.4981974 6.13334032 12.3860471
v -6.17698755 4.96637835 17.1206433
v -6.17698763 7.07940019 17.1206433
v -10.5905435 4.96422534 10.8288371
v -10.5947786 7.07940067 10.8228004
v -10.5947791 4.96422326 10.8228004
v -6.17698854 7.07940075 -22.1241515
v -10.8848021 4.95622795 -15.1393426
v -10.8848022 7.07940064 -15.1393426
v -6.17698867 4.96637878 -22.1241496
v -12.6768629 7.0794008 -6.67085603
v -12.6768634 4.96422351 2.35430976
v -12.6768634 7.07940065 2.35430976
v -12.6768633 4.95622795 -6.67085603
v -1.85378839 7.07940252 -26.6461795
v -6.17698867 4.96637878 -22.1241496
v -6.17698854 7.07940075 -22.1241515
vt 0.3933025 0.110453747
vt 0.40143922 0.0875102282
vt 0.357066959 0.110452794
vt 0.40143922 0.110453151
vt 0.348020732 0.0875101089
vt 0.348020732 0.110452794
vt 0.552465916 3.68262362
vt 0.383253962 3.14347267
vt 1.37175931e-07 3.15445065
vt 1.40581429 4.2577858
vt 2.36279964 3.14347267
vt 2.44042754 4.47672844
vt 3.543051 4.47672844
vt 4.57766485 4.22235441
vt 4.58898401 3.14347267
vt 5.347085 3.68262362
vt 5.73928595 3.34744716
vt 5.51174259 3.14347267
vt 0.753142953 0.989900529
vt 0.753142953 0.8494066
vt 0.564850032 0.988821924
vt 1.17188561 0.989900529
vt 1.73494899 0.849262953
vt 1.17188561 0.849262953
vt 1.73494899 0.989900529
vt 2.3350296 0.989900529
vt 2.89809299 0.848730683
vt 2.3350296 0.848730683
vt 2.89809299 0.989900529
vt 1.0679456 0.926997304
vt 0.753142953 0.8494066
vt 0.753142953 0.989900529
vt 1.17148411 0.849263072
vt 1.17188561 0.989900529
vt 1.17188561 0.849262953
vt 3.36251068 0.989900529
vt 2.89809299 0.848730683
vt 2.89809299 0.989900529
vt 3.36251068 0.8494066
vt 2.3350296 0.989900529
vt 1.73494899 0.849262953
vt 1.73494899 0.989900529
vt 2.3350296 0.848730683
vt 3.66317749 0.989900529
vt 3.36251068 0.8494066
vt 3.36251068 0.989900529
vn 0.846239845 -0.532802144 0
vn 0.846238653 -0.532804037 0
vn 0.846237857 -0.532805301 0
vn 0.846240158 -0.532801646 0
vn 0.846237729 -0.532805505 0
vn 0.846237758 -0.532805459 0
vn 0.344528255 -0.925645431 0.156463468
vn 0.423080339 -0.854559676 0.301215516
vn 0.510171554 -0.708403207 0.487739563
vn 0.253819523 -0.965841454 0.0522104903
vn 0.228137834 -0.973380895 0.0219718309
vn 0.200767215 -0.979453604 0.0190568488
vn 0.208506857 -0.977951248 -0.0116724516
vn 0.223325608 -0.972211256 -0.0702207016
vn 0.279897603 -0.956175954 -0.085935306
vn 0.38256483 -0.912273524 -0.14629138
vn 0.477216496 -0.869498129 -0.127426135
vn 0.477216543 -0.869498099 -0.127426165
vn 0.718240201 -2.81022244e-08 -0.695795238
vn 0.718240201 -2.81022244e-08 -0.695795238
vn 0.718240238 -5.33552631e-08 -0.6957952
vn 0.971080502 -6.63734809e-08 -0.238752295
vn 0.971080502 -6.63734809e-08 -0.238752295
vn 0.971080502 -6.63734809e-08 -0.238752295
vn 0.971080502 -6.63734809e-08 -0.238752295
vn 0.978334488 -2.20136698e-08 0.207030503
vn 0.978334488 -2.20136698e-08 0.207030503
vn 0.978334488 -2.20136698e-08 0.207030503
vn 0.978334488 -2.20136698e-08 0.207030503
vn 0.818663592 5.41157036e-08 -0.574273388
vn 0.81866357 4.77167361e-08 -0.574273419
vn 0.818663592 5.41157036e-08 -0.574273388
vn 0.81866357 4.77167361e-08 -0.574273419
vn 0.818663427 2.18089053e-07 -0.574273622
vn 0.818663427 2.18089053e-07 -0.574273622
vn 0.829230093 2.33334362e-07 0.558907374
vn 0.829230093 2.33334362e-07 0.558907374
vn 0.829230066 2.33334354e-07 0.558907415
vn 0.829230114 2.39733319e-07 0.558907343
vn 1 -2.50403459e-08 0
vn 1 -2.50403459e-08 0
vn 1 -2.50403459e-08 0
vn 1 -2.50403459e-08 0
vn 0.722819049 5.4515485e-07 0.691037352
vn 0.722819071 5.70407917e-07 0.691037329
vn 0.722819071 5.70407917e-07 0.691037329

g collision_PZ_Object52_submesh_0
usemtl collision_2
f 37/37/37 39/39/39 38/38/38
f 40/40/40 37/37/37 38/38/38
f 39/39/39 41/41/41 38/38/38
f 39/39/39 42/42/42 41/41/41

g collision_PZ_Object52_submesh_1
usemtl collision_2
f 43/43/43 45/45/45 44/44/44
f 46/46/46 43/43/43 44/44/44
f 46/46/46 44/44/44 47/47/47
f 48/48/48 46/46/46 47/47/47
f 49/49/49 48/48/48 47/47/47
f 50/50/50 49/49/49 47/47/47
f 50/50/50 47/47/47 51/51/51
f 52/52/52 50/50/50 51/51/51
f 53/53/53 52/52/52 51/51/51
f 53/53/53 51/51/51 54/54/54

g collision_PZ_Object52_submesh_2
usemtl collision_2
f 55/55/55 57/57/57 56/56/56
f 58/58/58 60/60/60 59/59/59
f 58/58/58 59/59/59 61/61/61
f 62/62/62 64/64/64 63/63/63
f 62/62/62 63/63/63 65/65/65
f 66/66/66 68/68/68 67/67/67
f 66/66/66 67/67/67 69/69/69
f 69/69/69 70/70/70 66/66/66
f 70/70/70 68/68/68 66/66/66
f 69/69/69 71/71/71 70/70/70
f 72/72/72 74/74/74 73/73/73
f 72/72/72 73/73/73 75/75/75
f 76/76/76 78/78/78 77/77/77
f 76/76/76 77/77/77 79/79/79
f 80/80/80 82/82/82 81/81/81

o collision_PZ_Object51_1
v -13.1618915 1.89599922 -6.28330167
v -13.1613489 -0.046769438 -5.83641141
v -13.16287 -0.0505097479 -7.09260813
v -13.1628709 6.23960244 -7.09260861
v -13.1593109 6.66648415 -4.14974001
v -13.1623187 6.65208367 -6.63284422
v -12.143888 6.66648415 -4.15096644
v -13.1618915 1.89599922 -6.28330167
v -13.1593109 6.66648415 -4.14974001
v -12.146463 1.89599922 -6.28453048
v -12.1468912 6.65208367 -6.63407637
v -13.1593109 6.66648415 -4.14974001
v -13.1623187 6.65208367 -6.63284422
v -12.143888 6.66648415 -4.15096644
v -12.146463 1.89599922 -6.28453048
v -13.1613489 -0.046769438 -5.83641141
v -13.1618915 1.89599922 -6.28330167
v -12.1459213 -0.046769438 -5.83763736
v -12.143888 6.66648415 -4.15096644
v -12.1468912 6.65208367 -6.63407637
v -12.1474452 6.23960244 -7.09383599
v -12.146463 1.89599922 -6.28453048
v -12.1474452 -0.0505097479 -7.09383599
v -12.1459213 -0.046769438 -5.83763736
v -13.1628709 6.23960244 -7.09260861
v -12.1474452 -0.0505097479 -7.09383599
v -12.1474452 6.23960244 -7.09383599
v -13.16287 -0.0505097479 -7.09260813
v -13.1628709 6.23960244 -7.09260861
v -12.1468912 6.65208367 -6.63407637
v -13.1623187 6.65208367 -6.63284422
v -12.1474452 6.23960244 -7.09383599
vt 1.84028065 0.10951031
vt 1.81914496 0.0182907991
vt 1.87855542 0.0181150623
vt 1.87855649 0.313456893
vt 1.73937702 0.333500773
vt 1.85681307 0.33282432
vt -0.00238163513 0.00073358044
vt -0.0529110283 0.261097193
vt -0.0529121123 0.00073374575
vt -0.00238055084 0.261097014
vt -0.0542545132 0.337406039
vt -0.11621125 0.197519377
vt -0.116209731 0.337406725
vt -0.0542560332 0.197518736
vt -0.00238055084 0.261097014
vt -0.0529106185 0.327675045
vt -0.0529110283 0.261097193
vt -0.00238014129 0.327674866
vt 1.7398082 0.333384842
vt 1.85724366 0.332670927
vt 1.87897801 0.313296586
vt 1.84060657 0.109362237
vt 1.87883854 0.0179547668
vt 1.81942832 0.0181493852
vt -0.0543168858 0.376405358
vt -0.117064647 0.000382721366
vt -0.117064647 0.37640515
vt -0.0543168858 0.000382928731
vt -0.116209298 0.376002192
vt -0.0542545132 0.337406039
vt -0.116209731 0.337406725
vt -0.0542540811 0.376001537
vn -0.999999267 -2.68870919e-19 0.00121088697
vn -0.999999267 -2.68870919e-19 0.00121088697
vn -0.999999267 -2.68870919e-19 0.00121088697
vn -0.999999266 -1.16020186e-05 0.00121140863
vn -0.999999266 -1.16020195e-05 0.00121140863
vn -0.999999266 -1.16020177e-05 0.00121140863
vn 0.00110360836 -0.408270458 0.912860348
vn 0.00110360848 -0.408270458 0.912860348
vn 0.00110360839 -0.408270408 0.91286037
vn 0.00110360839 -0.408270408 0.91286037
vn 0 0.999983184 -0.00579927438
vn 0 0.999983184 -0.00579927438
vn 0 0.999983184 -0.00579927392
vn 0 0.999983184 -0.00579927392
vn 0.00117796247 0.224174014 0.974548421
vn 0.00117796247 0.224174 0.974548424
vn 0.00117796259 0.224174014 0.974548421
vn 0.00117796247 0.224174014 0.974548421
vn 0.999999269 2.6855093e-19 -0.00120944587
vn 0.999999269 2.68550956e-19 -0.00120944599
vn 0.999999269 2.6855093e-19 -0.00120944587
vn 0.999999269 2.68426233e-19 -0.00120888428
vn 0.999999264 2.69375551e-19 -0.00121315963
vn 0.999999264 2.69375551e-19 -0.00121315963
vn -0.00120896762 2.22044443e-16 -0.999999269
vn -0.0012089675 2.22044443e-16 -0.999999269
vn -0.0012089675 2.22044443e-16 -0.999999269
vn -0.0012089675 2.22044443e-16 -0.999999269
vn -0.000808757439 0.744343686 -0.667796243
vn -0.000808757465 0.744343657 -0.667796277
vn -0.000808757465 0.744343657 -0.667796277
vn -0.000808757407 0.744343657 -0.667796277

g collision_PZ_Object51_1_submesh_0
usemtl collision_3
f 83/83/83 85/85/85 84/84/84
f 83/83/83 86/86/86 85/85/85
f 83/83/83 87/87/87 86/86/86
f 87/87/87 88/88/88 86/86/86
f 89/89/89 91/91/91 90/90/90
f 89/89/89 90/90/90 92/92/92
f 93/93/93 95/95/95 94/94/94
f 93/93/93 94/94/94 96/96/96
f 97/97/97 99/99/99 98/98/98
f 97/97/97 98/98/98 100/100/100
f 101/101/101 103/103/103 102/102/102
f 101/101/101 104/104/104 103/103/103
f 104/104/104 105/105/105 103/103/103
f 104/104/104 106/106/106 105/105/105
f 107/107/107 109/109/109 108/108/108
f 107/107/107 108/108/108 110/110/110
f 111/111/111 113/113/113 112/112/112
f 111/111/111 112/112/112 114/114/114

o collision_PZ_Object51
v -9.90905125 1.89599894 10.6415064
v -10.3593324 -0.0505104196 9.96902864
v -9.66041309 -0.046770109 11.0128423
v -10.3593305 6.23960303 9.96902673
v -8.72198615 6.66648482 12.4143487
v -10.1035264 6.65208434 10.3510572
v -9.56573228 6.66648482 12.9793074
v -9.90905125 1.89599894 10.6415064
v -10.7528032 1.89599894 11.2064669
v -8.72198615 6.66648482 12.4143487
v -10.9472765 6.65208434 10.9160158
v -8.72198615 6.66648482 12.4143487
v -9.56573228 6.66648482 12.9793074
v -10.1035264 6.65208434 10.3510572
v -10.7528032 1.89599894 11.2064669
v -9.66041309 -0.046770109 11.0128423
v -10.5041631 -0.046770109 11.5778048
v -9.90905125 1.89599894 10.6415064
v -9.56573228 6.66648482 12.9793074
v -11.2030805 6.23960303 10.5339891
v -10.9472765 6.65208434 10.9160158
v -10.7528032 1.89599894 11.2064669
v -11.2030805 -0.0505104196 10.5339891
v -10.5041631 -0.046770109 11.5778048
v -10.3593305 6.23960303 9.96902673
v -11.2030805 -0.0505104196 10.5339891
v -10.3593324 -0.0505104196 9.96902864
v -11.2030805 6.23960303 10.5339891
v -10.3593305 6.23960303 9.96902673
v -10.9472765 6.65208434 10.9160158
v -11.2030805 6.23960303 10.5339891
v -10.1035264 6.65208434 10.3510572
vt 1.84028065 0.10951031
vt 1.87855542 0.0181150623
vt 1.81914496 0.0182907991
vt 1.87855649 0.313456893
vt 1.73937702 0.333500773
vt 1.85681307 0.33282432
vt -0.00238163513 0.00073358044
vt -0.0529110283 0.261097193
vt -0.00238055084 0.261097014
vt -0.0529121123 0.00073374575
vt -0.0542545132 0.337406039
vt -0.11621125 0.197519377
vt -0.0542560332 0.197518736
vt -0.116209731 0.337406725
vt -0.00238055084 0.261097014
vt -0.0529106185 0.327675045
vt -0.00238014129 0.327674866
vt -0.0529110283 0.261097193
vt 1.7398082 0.333384842
vt 1.87897801 0.313296586
vt 1.85724366 0.332670927
vt 1.84060657 0.109362237
vt 1.87883854 0.0179547668
vt 1.81942832 0.0181493852
vt -0.0543168858 0.376405358
vt -0.117064647 0.000382721366
vt -0.0543168858 0.000382928731
vt -0.117064647 0.37640515
vt -0.116209298 0.376002192
vt -0.0542545132 0.337406039
vt -0.0542540811 0.376001537
vt -0.116209731 0.337406725
vn 0.830930386 -6.17701885e-17 -0.556376395
vn 0.830930386 -6.17701885e-17 -0.556376395
vn 0.830930386 -6.17701885e-17 -0.556376395
vn 0.83093102 -6.17700833e-17 -0.556375449
vn 0.83093103 -6.17700818e-17 -0.556375435
vn 0.830931011 -6.17700849e-17 -0.556375462
vn 0.507894352 -0.40827034 0.758523999
vn 0.507894377 -0.40827029 0.758524009
vn 0.507894352 -0.40827034 0.758523999
vn 0.507894352 -0.40827034 0.758523999
vn -0.00322658041 0.999983184 -0.00481879708
vn -0.00322658061 0.999983184 -0.00481879751
vn -0.00322658067 0.999983184 -0.00481879747
vn -0.00322658063 0.999983184 -0.00481879694
vn 0.542216487 0.224174007 0.809782252
vn 0.542216514 0.224174007 0.809782234
vn 0.542216487 0.224174007 0.809782252
vn 0.542216485 0.224174022 0.80978225
vn -0.830930367 1.14802769e-05 0.556376423
vn -0.830930367 1.14802769e-05 0.556376423
vn -0.830930357 1.14802769e-05 0.556376439
vn -0.830929473 6.17703398e-17 0.556377759
vn -0.830931563 6.17699934e-17 0.556374638
vn -0.830931535 6.1769998e-17 0.55637468
vn -0.556377717 -9.22517064e-17 -0.830929501
vn -0.556377675 -9.22517095e-17 -0.830929529
vn -0.556377689 -9.22517085e-17 -0.83092952
vn -0.556377675 -9.22517095e-17 -0.830929529
vn -0.371546469 0.744343686 -0.55489251
vn -0.37154648 0.744343713 -0.554892468
vn -0.37154648 0.744343713 -0.554892468
vn -0.371546461 0.744343742 -0.55489244

g collision_PZ_Object51_submesh_0
usemtl collision_4
f 115/115/115 117/117/117 116/116/116
f 115/115/115 116/116/116 118/118/118
f 115/115/115 118/118/118 119/119/119
f 119/119/119 118/118/118 120/120/120
f 121/121/121 123/123/123 122/122/122
f 121/121/121 122/122/122 124/124/124
f 125/125/125 127/127/127 126/126/126
f 125/125/125 126/126/126 128/128/128
f 129/129/129 131/131/131 130/130/130
f 129/129/129 130/130/130 132/132/132
f 133/133/133 135/135/135 134/134/134
f 133/133/133 134/134/134 136/136/136
f 136/136/136 134/134/134 137/137/137
f 136/136/136 137/137/137 138/138/138
f 139/139/139 141/141/141 140/140/140
f 139/139/139 140/140/140 142/142/142
f 143/143/143 145/145/145 144/144/144
f 143/143/143 144/144/144 146/146/146

o collision_PZ_Object50_1
v -10.067514 1.89599894 -15.2738261
v -9.81887202 -0.046770109 -15.645164
v -10.5177942 -0.0505104196 -14.6013522
v -10.5177942 6.23960303 -14.6013522
v -8.88044502 6.66648482 -17.0466722
v -10.2619892 6.65208434 -14.9833826
v -9.72419493 6.66648482 -17.6116328
v -10.067514 1.89599894 -15.2738261
v -8.88044502 6.66648482 -17.0466722
v -10.9112621 1.89599894 -15.8387904
v -11.1057401 6.65208434 -15.548347
v -8.88044502 6.66648482 -17.0466722
v -10.2619892 6.65208434 -14.9833826
v -9.72419493 6.66648482 -17.6116328
v -10.9112621 1.89599894 -15.8387904
v -9.81887202 -0.046770109 -15.645164
v -10.067514 1.89599894 -15.2738261
v -10.6626201 -0.046770109 -16.2101283
v -9.72419493 6.66648482 -17.6116328
v -11.1057401 6.65208434 -15.548347
v -11.3615413 6.23960303 -15.1663127
v -10.9112621 1.89599894 -15.8387904
v -11.3615413 -0.0505104196 -15.1663127
v -10.6626201 -0.046770109 -16.2101283
v -10.5177942 6.23960303 -14.6013522
v -11.3615413 -0.0505104196 -15.1663127
v -11.3615413 6.23960303 -15.1663127
v -10.5177942 -0.0505104196 -14.6013522
v -10.5177942 6.23960303 -14.6013522
v -11.1057401 6.65208434 -15.548347
v -10.2619892 6.65208434 -14.9833826
v -11.3615413 6.23960303 -15.1663127
vt 1.8401587 0.10951031
vt 1.81902301 0.0182907991
vt 1.87843335 0.0181150623
vt 1.87843454 0.313456893
vt 1.73925531 0.333500773
vt 1.85669076 0.33282432
vt -0.00249675079 0.000733324327
vt -0.0530260466 0.261096954
vt -0.0530271307 0.000733490102
vt -0.00249566254 0.261096776
vt -0.116599113 0.337406576
vt -0.0546453707 0.197518736
vt -0.0546438508 0.33740592
vt -0.116600633 0.197519451
vt -0.00249566254 0.261096776
vt -0.0530256368 0.327674776
vt -0.0530260466 0.261096954
vt -0.00249525695 0.327674598
vt 1.7397306 0.333372384
vt 1.85716569 0.332658589
vt 1.87890065 0.313284189
vt 1.84052896 0.109349802
vt 1.87876105 0.0179423206
vt 1.8193506 0.0181370191
vt -0.0543168858 0.376405358
vt -0.117064647 0.000382721366
vt -0.117064647 0.37640515
vt -0.0543168858 0.000382928731
vt -0.0546434186 0.376001537
vt -0.116599113 0.337406576
vt -0.0546438508 0.33740592
vt -0.116598688 0.376002192
vn 0.830928845 0 0.556378697
vn 0.830928864 0 0.556378669
vn 0.830928845 0 0.556378697
vn 0.830930115 0 0.556376801
vn 0.830930115 0 0.556376801
vn 0.830930105 0 0.556376815
vn 0.507896028 -0.408270743 -0.75852266
vn 0.507896034 -0.408270718 -0.758522669
vn 0.507896006 -0.408270718 -0.758522688
vn 0.507896056 -0.408270743 -0.758522641
vn -0.00322659234 0.999983184 0.00481879553
vn -0.00322659214 0.999983184 0.0048187951
vn -0.00322659219 0.999983184 0.00481879507
vn -0.00322659198 0.999983184 0.00481879521
vn 0.542219632 0.224175131 -0.809779835
vn 0.542219632 0.224175131 -0.809779835
vn 0.542219605 0.224175117 -0.809779857
vn 0.542219605 0.224175117 -0.809779857
vn -0.830929397 0 -0.556377873
vn -0.830929416 0 -0.556377845
vn -0.830929397 0 -0.556377873
vn -0.830929949 0 -0.556377049
vn -0.830930151 0 -0.556376746
vn -0.830930133 0 -0.556376773
vn -0.556377941 0 0.830929351
vn -0.556377941 0 0.830929351
vn -0.556377941 0 0.830929351
vn -0.556377941 0 0.830929351
vn -0.371546426 0.744345666 0.554889884
vn -0.371546426 0.744345666 0.554889884
vn -0.371546408 0.744345695 0.554889857
vn -0.371546412 0.744345666 0.554889893

g collision_PZ_Object50_1_submesh_0
usemtl collision_5
f 147/147/147 149/149/149 148/148/148
f 147/147/147 150/150/150 149/149/149
f 147/147/147 151/151/151 150/150/150
f 151/151/151 152/152/152 150/150/150
f 153/153/153 155/155/155 154/154/154
f 153/153/153 154/154/154 156/156/156
f 157/157/157 159/159/159 158/158/158
f 157/157/157 158/158/158 160/160/160
f 161/161/161 163/163/163 162/162/162
f 161/161/161 162/162/162 164/164/164
f 165/165/165 167/167/167 166/166/166
f 165/165/165 168/168/168 167/167/167
f 168/168/168 169/169/169 167/167/167
f 168/168/168 170/170/170 169/169/169
f 171/171/171 173/173/173 172/172/172
f 171/171/171 172/172/172 174/174/174
f 175/175/175 177/177/177 176/176/176
f 175/175/175 176/176/176 178/178/178

o collision_PZ_Object50
v -12.1378216 1.89599922 2.00760254
v -12.1383605 -0.046769438 1.56070799
v -12.1368441 -0.0505097479 2.81690566
v -12.1368441 6.23960244 2.81690566
v -12.1404004 6.66648415 -0.125962935
v -12.1373982 6.65208367 2.35714127
v -13.1558299 6.66648415 -0.124734602
v -12.1378216 1.89599922 2.00760254
v -12.1404004 6.66648415 -0.125962935
v -13.1532483 1.89599922 2.00882515
v -13.1528287 6.65208367 2.35836961
v -12.1404004 6.66648415 -0.125962935
v -12.1373982 6.65208367 2.35714127
v -13.1558299 6.66648415 -0.124734602
v -13.1532483 1.89599922 2.00882515
v -12.1383605 -0.046769438 1.56070799
v -12.1378216 1.89599922 2.00760254
v -13.15379 -0.046769438 1.56193155
v -13.1558299 6.66648415 -0.124734602
v -13.1528287 6.65208367 2.35836961
v -13.1522698 6.23960244 2.81813113
v -13.1532483 1.89599922 2.00882515
v -13.1522698 -0.0505097479 2.81813113
v -13.15379 -0.046769438 1.56193155
v -12.1368441 6.23960244 2.81690566
v -13.1522698 -0.0505097479 2.81813113
v -13.1522698 6.23960244 2.81813113
v -12.1368441 -0.0505097479 2.81690566
v -12.1368441 6.23960244 2.81690566
v -13.1528287 6.65208367 2.35836961
v -12.1373982 6.65208367 2.35714127
v -13.1522698 6.23960244 2.81813113
vt 1.8401587 0.10951031
vt 1.81902301 0.0182907991
vt 1.87843335 0.0181150623
vt 1.87843454 0.313456893
vt 1.73925531 0.333500773
vt 1.85669076 0.33282432
vt -0.00249675079 0.000733324327
vt -0.0530260466 0.261096954
vt -0.0530271307 0.000733490102
vt -0.00249566254 0.261096776
vt -0.116599113 0.337406576
vt -0.0546453707 0.197518736
vt -0.0546438508 0.33740592
vt -0.116600633 0.197519451
vt -0.00249566254 0.261096776
vt -0.0530256368 0.327674776
vt -0.0530260466 0.261096954
vt -0.00249525695 0.327674598
vt 1.7397306 0.333372384
vt 1.85716569 0.332658589
vt 1.87890065 0.313284189
vt 1.84052896 0.109349802
vt 1.87876105 0.0179423206
vt 1.8193506 0.0181370191
vt -0.0543168858 0.376405358
vt -0.117064647 0.000382721366
vt -0.117064647 0.37640515
vt -0.0543168858 0.000382928731
vt -0.0546434186 0.376001537
vt -0.116599113 0.337406576
vt -0.0546438508 0.33740592
vt -0.116598688 0.376002192
vn 0.999999271 2.68027145e-19 -0.00120708695
vn 0.999999271 2.6802717e-19 -0.00120708707
vn 0.999999271 2.6802717e-19 -0.00120708707
vn 0.999999269 2.68465757e-19 -0.00120906228
vn 0.999999269 2.68465782e-19 -0.0012090624
vn 0.999999269 2.68465757e-19 -0.00120906228
vn -0.00110169619 -0.408270335 -0.912860406
vn -0.00110169631 -0.408270335 -0.912860406
vn -0.00110169637 -0.408270312 -0.912860416
vn -0.00110169619 -0.408270335 -0.912860406
vn 0 0.999983184 0.00579927997
vn 0 0.999983184 0.00579927997
vn 0 0.999983184 0.00579927997
vn 0 0.999983184 0.00579927951
vn -0.00117384336 0.224175126 -0.97454817
vn -0.00117384359 0.224175126 -0.97454817
vn -0.00117384359 0.22417514 -0.974548166
vn -0.00117384359 0.224175126 -0.97454817
vn -0.99999927 -2.68364918e-19 0.00120860815
vn -0.99999927 -2.68364918e-19 0.00120860815
vn -0.99999927 -2.68364892e-19 0.00120860803
vn -0.999999268 -2.68609246e-19 0.0012097085
vn -0.999999268 -2.68701554e-19 0.00121012422
vn -0.999999268 -2.68701554e-19 0.00121012422
vn 0.00120685375 -2.22044443e-16 0.999999272
vn 0.00120685375 -2.22044443e-16 0.999999272
vn 0.00120685375 -2.22044443e-16 0.999999272
vn 0.00120685375 -2.22044443e-16 0.999999272
vn 0.000806869583 0.744344335 0.667795522
vn 0.000806869664 0.744344362 0.667795493
vn 0.000806869583 0.744344335 0.667795522
vn 0.000806869521 0.744344391 0.66779546

g collision_PZ_Object50_submesh_0
usemtl collision_6
f 179/179/179 181/181/181 180/180/180
f 179/179/179 182/182/182 181/181/181
f 179/179/179 183/183/183 182/182/182
f 183/183/183 184/184/184 182/182/182
f 185/185/185 187/187/187 186/186/186
f 185/185/185 186/186/186 188/188/188
f 189/189/189 191/191/191 190/190/190
f 189/189/189 190/190/190 192/192/192
f 193/193/193 195/195/195 194/194/194
f 193/193/193 194/194/194 196/196/196
f 197/197/197 199/199/199 198/198/198
f 197/197/197 200/200/200 199/199/199
f 200/200/200 201/201/201 199/199/199
f 200/200/200 202/202/202 201/201/201
f 203/203/203 205/205/205 204/204/204
f 203/203/203 204/204/204 206/206/206
f 207/207/207 209/209/209 208/208/208
f 207/207/207 208/208/208 210/210/210

o collision_PZ_h_85
v -6.93261219 1.89599908 -21.7807597
v -7.18125031 -0.0467697735 -21.4094257
v -6.48233112 -0.0505100838 -22.4532373
v -6.48233307 6.23960274 -22.4532411
v -8.11967712 6.66648448 -20.0079177
v -6.73813705 6.652084 -22.0712107
v -7.27593115 6.66648448 -19.4429611
v -6.93261219 1.89599908 -21.7807597
v -8.11967712 6.66648448 -20.0079177
v -6.08886052 1.89599908 -21.2157994
v -5.89438733 6.652084 -21.5062503
v -8.11967712 6.66648448 -20.0079177
v -6.73813705 6.652084 -22.0712107
v -7.27593115 6.66648448 -19.4429611
v -6.08886052 1.89599908 -21.2157994
v -7.18125031 -0.0467697735 -21.4094257
v -6.93261219 1.89599908 -21.7807597
v -6.33750054 -0.0467697735 -20.8444616
v -7.27593115 6.66648448 -19.4429611
v -5.89438733 6.652084 -21.5062503
v -5.63858328 6.23960274 -21.8882769
v -6.08886052 1.89599908 -21.2157994
v -5.63858328 -0.0505100838 -21.8882769
v -6.33750054 -0.0467697735 -20.8444616
v -6.48233307 6.23960274 -22.4532411
v -5.63858328 -0.0505100838 -21.8882769
v -5.63858328 6.23960274 -21.8882769
v -6.48233112 -0.0505100838 -22.4532373
v -6.48233307 6.23960274 -22.4532411
v -5.89438733 6.652084 -21.5062503
v -6.73813705 6.652084 -22.0712107
v -5.63858328 6.23960274 -21.8882769
vt 1.84028065 0.10951031
vt 1.81914496 0.0182907991
vt 1.87855542 0.0181150623
vt 1.87855649 0.313456893
vt 1.73937702 0.333500773
vt 1.85681307 0.33282432
vt -0.00238163513 0.00073358044
vt -0.0529110283 0.261097193
vt -0.0529121123 0.00073374575
vt -0.00238055084 0.261097014
vt -0.0542545132 0.337406039
vt -0.11621125 0.197519377
vt -0.116209731 0.337406725
vt -0.0542560332 0.197518736
vt -0.00238055084 0.261097014
vt -0.0529106185 0.327675045
vt -0.0529110283 0.261097193
vt -0.00238014129 0.327674866
vt 1.7398082 0.333384842
vt 1.85724366 0.332670927
vt 1.87897801 0.313296586
vt 1.84060657 0.109362237
vt 1.87883854 0.0179547668
vt 1.81942832 0.0181493852
vt -0.0543168858 0.376405358
vt -0.117064647 0.000382721366
vt -0.117064647 0.37640515
vt -0.0543168858 0.000382928731
vt -0.116209298 0.376002192
vt -0.0542545132 0.337406039
vt -0.116209731 0.337406725
vt -0.0542540811 0.376001537
vn -0.830929936 1.23540526e-16 -0.556377067
vn -0.830929936 1.23540526e-16 -0.556377067
vn -0.830929918 1.23540532e-16 -0.556377095
vn -0.830931298 1.23540075e-16 -0.556375034
vn -0.830931298 1.23540075e-16 -0.556375034
vn -0.830931298 1.23540075e-16 -0.556375034
vn -0.507893839 -0.40827018 0.758524428
vn -0.507893777 -0.408270155 0.758524484
vn -0.507893798 -0.40827018 0.758524456
vn -0.507893786 -0.40827023 0.758524437
vn 0.00322473928 0.999983184 -0.00482003007
vn 0.00322473928 0.999983184 -0.00482003007
vn 0.00322473928 0.999983184 -0.00482003007
vn 0.00322473928 0.999983184 -0.00482003007
vn -0.5422172 0.224173565 0.809781897
vn -0.542217198 0.224173579 0.809781895
vn -0.5422172 0.224173565 0.809781897
vn -0.5422172 0.224173565 0.809781897
vn 0.83093012 1.10116984e-05 0.556376792
vn 0.830930111 1.10116984e-05 0.556376806
vn 0.83093012 1.10116984e-05 0.556376792
vn 0.830929302 -1.23540737e-16 0.556378015
vn 0.830931564 -1.23539986e-16 0.556374636
vn 0.830931537 -1.23539995e-16 0.556374677
vn 0.556378331 1.84503322e-16 -0.83092909
vn 0.556378331 1.84503322e-16 -0.83092909
vn 0.556378331 1.84503322e-16 -0.83092909
vn 0.556378317 1.84503324e-16 -0.830929099
vn 0.371547357 0.744343691 -0.55489191
vn 0.371547336 0.744343691 -0.554891923
vn 0.371547382 0.744343661 -0.554891932
vn 0.371547325 0.744343721 -0.554891891

g collision_PZ_h_85_submesh_0
usemtl collision_7
f 211/211/211 213/213/213 212/212/212
f 211/211/211 214/214/214 213/213/213
f 211/211/211 215/215/215 214/214/214
f 215/215/215 216/216/216 214/214/214
f 217/217/217 219/219/219 218/218/218
f 217/217/217 218/218/218 220/220/220
f 221/221/221 223/223/223 222/222/222
f 221/221/221 222/222/222 224/224/224
f 225/225/225 227/227/227 226/226/226
f 225/225/225 226/226/226 228/228/228
f 229/229/229 231/231/231 230/230/230
f 229/229/229 232/232/232 231/231/231
f 232/232/232 233/233/233 231/231/231
f 232/232/232 234/234/234 233/233/233
f 235/235/235 237/237/237 236/236/236
f 235/235/235 236/236/236 238/238/238
f 239/239/239 241/241/241 240/240/240
f 239/239/239 240/240/240 242/242/242

o collision_PZ_h_84
v -6.77414889 1.89599922 17.1484372
v -6.32386871 -0.0505097479 17.820911
v -7.02279086 -0.046769438 16.7770994
v -6.32386871 6.23960244 17.820911
v -7.96121783 6.66648415 15.3755923
v -6.57967372 6.65208367 17.4388806
v -7.11746783 6.66648415 14.810632
v -6.77414889 1.89599922 17.1484372
v -5.9304008 1.89599922 16.583473
v -7.96121783 6.66648415 15.3755923
v -5.73592277 6.65208367 16.8739164
v -7.96121783 6.66648415 15.3755923
v -7.11746783 6.66648415 14.810632
v -6.57967372 6.65208367 17.4388806
v -5.9304008 1.89599922 16.583473
v -7.02279086 -0.046769438 16.7770994
v -6.17904277 -0.046769438 16.2121352
v -6.77414889 1.89599922 17.1484372
v -7.11746783 6.66648415 14.810632
v -5.48012157 6.23960244 17.2559506
v -5.73592277 6.65208367 16.8739164
v -5.9304008 1.89599922 16.583473
v -5.48012157 -0.0505097479 17.2559506
v -6.17904277 -0.046769438 16.2121352
v -6.32386871 6.23960244 17.820911
v -5.48012157 -0.0505097479 17.2559506
v -6.32386871 -0.0505097479 17.820911
v -5.48012157 6.23960244 17.2559506
v -6.32386871 6.23960244 17.820911
v -5.73592277 6.65208367 16.8739164
v -5.48012157 6.23960244 17.2559506
v -6.57967372 6.65208367 17.4388806
vt 1.8401587 0.10951031
vt 1.87843335 0.0181150623
vt 1.81902301 0.0182907991
vt 1.87843454 0.313456893
vt 1.73925531 0.333500773
vt 1.85669076 0.33282432
vt -0.00249675079 0.000733324327
vt -0.0530260466 0.261096954
vt -0.00249566254 0.261096776
vt -0.0530271307 0.000733490102
vt -0.116599113 0.337406576
vt -0.0546453707 0.197518736
vt -0.116600633 0.197519451
vt -0.0546438508 0.33740592
vt -0.00249566254 0.261096776
vt -0.0530256368 0.327674776
vt -0.00249525695 0.327674598
vt -0.0530260466 0.261096954
vt 1.7397306 0.333372384
vt 1.87890065 0.313284189
vt 1.85716569 0.332658589
vt 1.84052896 0.109349802
vt 1.87876105 0.0179423206
vt 1.8193506 0.0181370191
vt -0.0543168858 0.376405358
vt -0.117064647 0.000382721366
vt -0.0543168858 0.000382928731
vt -0.117064647 0.37640515
vt -0.0546434186 0.376001537
vt -0.116599113 0.337406576
vt -0.116598688 0.376002192
vt -0.0546438508 0.33740592
vn -0.830928815 -1.23540898e-16 0.556378742
vn -0.830928815 -1.23540898e-16 0.556378742
vn -0.830928833 -1.23540892e-16 0.556378715
vn -0.830929983 -1.23540511e-16 0.556376998
vn -0.830929983 -1.23540511e-16 0.556376998
vn -0.830929983 -1.23540511e-16 0.556376998
vn -0.507895961 -0.408270613 -0.758522774
vn -0.507895961 -0.408270613 -0.758522774
vn -0.507896006 -0.408270601 -0.758522751
vn -0.507896006 -0.408270601 -0.758522751
vn 0.0032265913 0.999983184 0.00481879614
vn 0.0032265913 0.999983184 0.00481879661
vn 0.0032265913 0.999983184 0.00481879661
vn 0.00322659107 0.999983184 0.00481879614
vn -0.542219451 0.224175186 -0.809779941
vn -0.542219451 0.224175186 -0.809779941
vn -0.542219496 0.224175151 -0.80977992
vn -0.542219496 0.224175151 -0.80977992
vn 0.830929229 1.23540761e-16 -0.556378124
vn 0.830929229 1.23540761e-16 -0.556378124
vn 0.830929229 1.23540761e-16 -0.556378124
vn 0.830929808 1.23540569e-16 -0.556377258
vn 0.830930102 1.23540471e-16 -0.556376819
vn 0.830930102 1.23540471e-16 -0.556376819
vn 0.556377833 -1.84503396e-16 0.830929424
vn 0.556377833 -1.84503396e-16 0.830929424
vn 0.556377833 -1.84503396e-16 0.830929424
vn 0.556377833 -1.84503396e-16 0.830929424
vn 0.371546348 0.744345674 0.554889924
vn 0.371546348 0.744345674 0.554889924
vn 0.371546348 0.744345674 0.554889924
vn 0.371546348 0.744345674 0.554889924

g collision_PZ_h_84_submesh_0
usemtl collision_8
f 243/243/243 245/245/245 244/244/244
f 243/243/243 244/244/244 246/246/246
f 243/243/243 246/246/246 247/247/247
f 247/247/247 246/246/246 248/248/248
f 249/249/249 251/251/251 250/250/250
f 249/249/249 250/250/250 252/252/252
f 253/253/253 255/255/255 254/254/254
f 253/253/253 254/254/254 256/256/256
f 257/257/257 259/259/259 258/258/258
f 257/257/257 258/258/258 260/260/260
f 261/261/261 263/263/263 262/262/262
f 261/261/261 262/262/262 264/264/264
f 264/264/264 262/262/262 265/265/265
f 264/264/264 265/265/265 266/266/266
f 267/267/267 269/269/269 268/268/268
f 267/267/267 268/268/268 270/270/270
f 271/271/271 273/273/273 272/272/272
f 271/271/271 272/272/272 274/274/274

o collision_PZ_h_83
v 10.5505658 0.108404144 19.7229122
v 18.191454 0.108404144 20.0964015
v 10.550561 0.108404144 20.0964015
v 18.191454 0.108404144 19.7229122
v 18.191454 0.108404144 20.0964015
v 10.550561 -0.049188598 20.3156092
v 10.550561 0.108404144 20.0964015
v 18.1914521 -0.049188598 20.3156092
v 10.5505658 0.108404144 19.7229122
v 18.1914521 -0.049188598 19.5036968
v 18.191454 0.108404144 19.7229122
v 10.5505658 -0.049188598 19.5036968
vt 0.925642312 0.376787841
vt 0.899522722 0.000526156276
vt 0.899524689 0.376788139
vt 0.925640404 0.000526110176
vt 0.899522722 0.000526156276
vt 0.884195805 0.376788169
vt 0.899524689 0.376788139
vt 0.884193957 0.000526293181
vt 0.925642312 0.376787841
vt 0.940969884 0.000526156276
vt 0.925640404 0.000526110176
vt 0.940971792 0.376787812
vn 0 1 2.22044605e-16
vn 0 1 2.22044605e-16
vn 0 1 2.22044605e-16
vn 0 1 2.22044605e-16
vn 0 0.811950108 0.583726838
vn 0 0.81195008 0.583726878
vn 0 0.81195008 0.583726878
vn 0 0.811950108 0.583726838
vn 0 0.811959706 -0.583713488
vn 0 0.811959734 -0.583713448
vn 0 0.811959734 -0.583713448
vn 0 0.811959706 -0.583713488

g collision_PZ_h_83_submesh_0
usemtl collision_9
f 275/275/275 277/277/277 276/276/276
f 275/275/275 276/276/276 278/278/278
f 279/279/279 281/281/281 280/280/280
f 279/279/279 280/280/280 282/282/282
f 283/283/283 285/285/285 284/284/284
f 283/283/283 284/284/284 286/286/286

o collision_PZ_h_52
v -8.65856171 -0.0034153762 54.7017643
v -19.1976871 -0.204580535 55.2357455
v -18.8812695 -0.0034153762 54.7017566
v -7.81432152 -0.204580535 55.2357531
v -19.1976871 -0.204580535 55.2357455
v -18.8812695 -0.0034153762 44.5131829
v -7.81432152 -0.204580535 44.0645365
v -8.65856171 -0.0034153762 44.5131829
v -19.1976871 -0.204580535 44.0645365
v -18.8812695 -0.0034153762 54.7017566
v -19.1976871 -0.204580535 44.0645365
v -18.8812695 -0.0034153762 44.5131829
v -18.8812695 -0.0034153762 54.7017566
v -19.1976871 -0.204580535 55.2357455
v -8.65856171 -0.0034153762 44.5131829
v -7.81432152 -0.204580535 55.2357531
v -8.65856171 -0.0034153762 54.7017643
v -7.81432152 -0.204580535 44.0645365
vt 0.0502149872 0.970903695
vt 0.0621363968 0.6881271
vt 0.0502149872 0.702906132
vt 0.0621363968 0.997972965
vt 0.0621363968 0.6881271
vt 0.0502149872 0.702906132
vt 0.0621363968 0.997972965
vt 0.0502149872 0.970903695
vt 0.0621363968 0.6881271
vt 0.0502149872 0.702906132
vt 0.0621363968 0.997972965
vt 0.0502149872 0.970903695
vt 0.0502149872 0.702906132
vt 0.0621363968 0.6881271
vt 0.833056331 0.848113298
vt 0.819177866 0.671843886
vt 0.833056331 0.680622339
vt 0.819177866 0.855489135
vn 0 0.935798414 0.352535571
vn 0 0.935798394 0.352535623
vn 0 0.935798404 0.352535597
vn 0 0.935798404 0.352535597
vn 0 0.935798394 0.352535623
vn 0 0.91247306 -0.409136792
vn 0 0.91247306 -0.409136792
vn 0 0.912473071 -0.409136767
vn 0 0.912473049 -0.409136817
vn -0.536511823 0.843892804 1.87381844e-16
vn -0.53651185 0.843892786 1.8738184e-16
vn -0.53651185 0.843892786 1.8738184e-16
vn -0.536511823 0.843892804 1.87381844e-16
vn -0.53651185 0.843892786 1.8738184e-16
vn 0.231790212 0.972765798 2.15997397e-16
vn 0.231790212 0.972765798 2.15997397e-16
vn 0.231790198 0.972765801 2.15997398e-16
vn 0.231790212 0.972765798 2.15997397e-16

g collision_PZ_h_52_submesh_0
usemtl collision_10
f 287/287/287 289/289/289 288/288/288
f 287/287/287 291/291/291 290/290/290
f 292/292/292 294/294/294 293/293/293
f 292/292/292 293/293/293 295/295/295
f 296/296/296 298/298/298 297/297/297
f 299/299/299 297/297/297 300/300/300
f 301/301/301 303/303/303 302/302/302
f 301/301/301 302/302/302 304/304/304

o collision_PZ_h_30
v 12.5125642 6.79808539 -34.083419
v 8.19741201 5.79722347 -34.0834114
v 10.4405513 1.24332652 -34.0834152
v 12.5125632 -0.928742592 -34.083419
v 9.41286421 -0.024327642 -34.083419
v 0.765954495 -0.928742592 -34.0834228
v 1.55928469 1.24332652 -34.0834457
v 0.765954495 6.79808539 -34.0834228
v 2.5809865 -0.024327642 -34.0834495
v 3.79213858 5.79722347 -34.0834343
v 8.20149756 5.79722347 -26.4545505
v 12.5125566 6.79808539 -26.4545563
v 10.4405456 1.24332652 -26.4545505
v 12.5125566 -0.928742592 -26.4545563
v 9.41285086 -0.024327642 -26.4545505
v 14.5845675 1.24332652 -26.454562
v 15.6062636 -0.024327642 -26.4545658
v 16.8236136 5.79722347 -26.454562
v 1.55927801 1.24332652 -26.454562
v 0.765947819 -0.928742592 -26.454562
v 0.765947819 6.79808539 -26.454562
v 2.58097315 -0.024327642 -26.4545658
v 3.79832411 5.79722347 -26.454562
v -3.01418257 5.51382967 -26.4545658
v -3.01417589 -0.928742592 -34.0834267
v -3.01417589 5.51382967 -34.0834267
v -3.01418257 -0.928742592 -26.4545658
v 23.955606 -0.928742592 -26.4545505
v 23.9556136 6.79808539 -34.0834114
v 23.9556136 -0.928742592 -34.0834152
v 23.955606 6.79808539 -26.4545505
v 23.9556136 6.79808539 -34.0834114
v 21.2267947 5.79722347 -34.0834114
v 23.4658408 1.24332652 -34.0834152
v 23.9556136 -0.928742592 -34.0834152
v 22.4381537 -0.024327642 -34.083419
v 12.5125632 -0.928742592 -34.083419
v 14.5845733 1.24332652 -34.0834457
v 12.5125642 6.79808539 -34.083419
v 15.6062751 -0.024327642 -34.0834495
v 16.8236213 5.79722347 -34.0834343
v 21.2267871 5.79722347 -26.4545505
v 23.955606 6.79808539 -26.4545505
v 23.4658351 1.24332652 -26.4545505
v 23.955606 -0.928742592 -26.4545505
v 22.4381404 -0.024327642 -26.4545505
v 0.765947819 6.79808539 -26.454562
v -1.72991991 6.79808539 -34.0834267
v 0.765954495 6.79808539 -34.0834228
v -1.72992659 6.79808539 -26.4545639
v 0.765954495 6.79808539 -34.0834228
v -3.01417589 5.51382967 -34.0834267
v 0.765954495 -0.928742592 -34.0834228
v -1.72991991 6.79808539 -34.0834267
v -3.01417589 -0.928742592 -34.0834267
v 0.765947819 -0.928742592 -26.454562
v -3.01418257 -0.928742592 -26.4545658
v -3.01418257 5.51382967 -26.4545658
v 0.765947819 6.79808539 -26.454562
v -1.72992659 6.79808539 -26.4545639
v -3.01418257 5.51382967 -26.4545658
v -1.72991991 6.79808539 -34.0834267
v -1.72992659 6.79808539 -26.4545639
v -3.01417589 5.51382967 -34.0834267
v 10.4405456 1.24332652 -26.4545505
v 8.19741201 5.79722347 -34.0834114
v 8.20149756 5.79722347 -26.4545505
v 10.4405513 1.24332652 -34.0834152
v 3.79832411 5.79722347 -26.454562
v 1.55928469 1.24332652 -34.0834457
v 1.55927801 1.24332652 -26.454562
v 3.79213858 5.79722347 -34.0834343
v 23.4658351 1.24332652 -26.4545505
v 21.2267947 5.79722347 -34.0834114
v 21.2267871 5.79722347 -26.4545505
v 23.4658408 1.24332652 -34.0834152
v 16.8236136 5.79722347 -26.454562
v 14.5845733 1.24332652 -34.0834457
v 14.5845675 1.24332652 -26.454562
v 16.8236213 5.79722347 -34.0834343
v 1.55927801 1.24332652 -26.454562
v 2.5809865 -0.024327642 -34.0834495
v 2.58097315 -0.024327642 -26.4545658
v 1.55928469 1.24332652 -34.0834457
v 9.41285086 -0.024327642 -26.4545505
v 10.4405513 1.24332652 -34.0834152
v 10.4405456 1.24332652 -26.4545505
v 9.41286421 -0.024327642 -34.083419
v 14.5845675 1.24332652 -26.454562
v 15.6062751 -0.024327642 -34.0834495
v 15.6062636 -0.024327642 -26.4545658
v 14.5845733 1.24332652 -34.0834457
v 22.4381404 -0.024327642 -26.4545505
v 23.4658408 1.24332652 -34.0834152
v 23.4658351 1.24332652 -26.4545505
v 22.4381537 -0.024327642 -34.083419
vt 0.289012045 0.507650733
vt 0.554874897 0.442223042
vt 0.416671634 0.14452827
vt 0.289011925 0.00253696926
vt 0.479989111 0.0616599396
vt 1.0127387 0.0025370745
vt 0.963860273 0.14452827
vt 1.0127387 0.507650852
vt 0.900911748 0.0616600513
vt 0.826290727 0.442223042
vt 5.09570312 0.927734375
vt 5.36523438 0.991210938
vt 5.23535156 0.643554688
vt 5.36523438 0.508789062
vt 5.171875 0.565429688
vt 5.49511719 0.643554688
vt 5.55664062 0.565429688
vt 5.63378906 0.927734375
vt 4.68164062 0.643554688
vt 4.6328125 0.508789062
vt 4.6328125 0.991210938
vt 4.74511719 0.565429688
vt 4.82128906 0.927734375
vt 1.36113763 0.634528041
vt 1.15005946 0.884472609
vt 1.36113763 0.884472609
vt 1.15005946 0.634528041
vt 1.30616367 0.0159457922
vt 1.78718543 0.481368661
vt 1.78718579 0.0159457922
vt 1.30616355 0.481368661
vt 0.994510055 0.507650733
vt 0.826270163 0.442222953
vt 0.964314044 0.144528165
vt 0.994510055 0.00253696926
vt 0.900954127 0.0616598353
vt 0.289011925 0.00253696926
vt 0.416757584 0.14452827
vt 0.289012045 0.507650733
vt 0.479748487 0.0616599396
vt 0.554801464 0.442223042
vt 5.90917969 0.927734375
vt 6.08398438 0.991210938
vt 6.04785156 0.643554688
vt 6.08398438 0.508789062
vt 5.984375 0.565429688
vt 2.30179048 0.524687469
vt 2.22001839 0.774632156
vt 2.30179071 0.774632037
vt 2.22001815 0.524687529
vt 1.0127387 0.507650852
vt 0.774240136 0.423697263
vt 1.0127387 0.0025370745
vt 0.855267227 0.507650852
vt 0.774240136 0.00253717951
vt 6.86230469 0.508789062
vt 6.62597656 0.509765625
vt 6.62695312 0.911132812
vt 6.86328125 0.991210938
vt 6.70703125 0.991210938
vt 1.36113763 0.634528041
vt 1.40321374 0.884472609
vt 1.40321374 0.634527981
vt 1.36113763 0.884472609
vt 2.43805289 0.655432284
vt 2.79246974 0.993886054
vt 2.43805289 0.993886054
vt 2.79246974 0.655432522
vt 1.53435671 0.993886054
vt 1.1799401 0.655432284
vt 1.53435671 0.655432522
vt 1.1799401 0.993886054
vt 1.1799401 0.655432284
vt 1.53435671 0.993886054
vt 1.1799401 0.993886054
vt 1.53435671 0.655432522
vt 2.54602575 0.993886054
vt 2.19160914 0.655432284
vt 2.54602575 0.655432522
vt 2.19160914 0.993886054
vt 1.7370826 0.751505494
vt 1.77340329 0.864471257
vt 1.77340329 0.751505494
vt 1.7370826 0.864471257
vt 1.77340329 0.864471257
vt 1.7370826 0.751505494
vt 1.7370826 0.864471257
vt 1.77340329 0.751505494
vt 1.7370826 0.751505494
vt 1.77340329 0.864471257
vt 1.77340329 0.751505494
vt 1.7370826 0.864471257
vt 1.77340329 0.864471257
vt 1.7370826 0.751505494
vt 1.7370826 0.864471257
vt 1.77340329 0.751505494
vn 0 2.22044605e-16 -1
vn 0 2.22044605e-16 -1
vn 0 2.22044605e-16 -1
vn 0 2.22044605e-16 -1
vn 0 2.22044605e-16 -1
vn -2.88507632e-05 2.22044605e-16 -1
vn -2.88507614e-05 2.22044605e-16 -1
vn -2.88507614e-05 2.22044605e-16 -1
vn -1.15663638e-05 2.22044605e-16 -1
vn 0 2.22044605e-16 -1
vn 0 -2.22044605e-16 1
vn 0 -2.22044605e-16 1
vn 0 -2.22044605e-16 1
vn 0 -2.22044605e-16 1
vn 0 -2.22044605e-16 1
vn 0 -2.22044605e-16 1
vn 0 -2.22044605e-16 1
vn 0 -2.22044605e-16 1
vn 0 -2.22044605e-16 1
vn 0 -2.22044605e-16 1
vn 0 -2.22044605e-16 1
vn 0 -2.22044605e-16 1
vn 0 -2.22044605e-16 1
vn -1 0 0
vn -1 0 0
vn -1 0 0
vn -1 0 0
vn 1 0 0
vn 1 0 0
vn 1 0 0
vn 1 0 0
vn 0 2.22044605e-16 -1
vn 0 2.22044605e-16 -1
vn 0 2.22044605e-16 -1
vn 0 2.22044605e-16 -1
vn 0 2.22044605e-16 -1
vn -1.28874264e-05 2.22044605e-16 -1
vn -1.28874273e-05 2.22044605e-16 -1
vn -1.28874273e-05 2.22044605e-16 -1
vn 0 2.22044605e-16 -1
vn 0 2.22044605e-16 -1
vn 0 -2.22044605e-16 1
vn 0 -2.22044605e-16 1
vn 0 -2.22044605e-16 1
vn 0 -2.22044605e-16 1
vn 0 -2.22044605e-16 1
vn 0 1 2.22044605e-16
vn 0 1 2.22044605e-16
vn 0 1 2.22044605e-16
vn 0 1 2.22044605e-16
vn 0 2.22044605e-16 -1
vn 0 2.22044605e-16 -1
vn 0 2.22044605e-16 -1
vn 0 2.22044605e-16 -1
vn 0 2.22044605e-16 -1
vn 0 -2.22044605e-16 1
vn 0 -2.22044605e-16 1
vn 0 -2.22044605e-16 1
vn 0 -2.22044605e-16 1
vn 0 -2.22044605e-16 1
vn -0.70710677 0.707106792 1.57009248e-16
vn -0.70710671 0.707106852 1.57009262e-16
vn -0.70710677 0.707106792 1.57009248e-16
vn -0.70710677 0.707106792 1.57009248e-16
vn -0.897235048 -0.441553181 0.000239907857
vn -0.897235036 -0.441553205 0.000239907854
vn -0.897235036 -0.441553205 0.000239907854
vn -0.897235036 -0.441553205 0.000239907854
vn 0.897636317 -0.440736781 -0.000363508729
vn 0.897636317 -0.440736781 -0.000363508729
vn 0.897636317 -0.440736781 -0.0003635087
vn 0.897636317 -0.440736781 -0.000363508729
vn -0.897394797 -0.441228488 -9.79724054e-17
vn -0.897394797 -0.441228488 -9.79724054e-17
vn -0.897394785 -0.441228512 -9.79724107e-17
vn -0.897394785 -0.441228512 -9.79724107e-17
vn 0.897394749 -0.441228584 -9.79724267e-17
vn 0.897394773 -0.441228536 -9.79724161e-17
vn 0.897394749 -0.441228584 -9.79724267e-17
vn 0.897394773 -0.441228536 -9.79724161e-17
vn 0.778594071 0.627527906 1.39339186e-16
vn 0.778594071 0.627527906 1.39339186e-16
vn 0.778594071 0.627527906 1.39339186e-16
vn 0.778594042 0.627527942 1.39339194e-16
vn -0.776796775 0.629751356 1.39832891e-16
vn -0.776796804 0.62975132 1.39832883e-16
vn -0.776796804 0.62975132 1.39832883e-16
vn -0.776796804 0.62975132 1.39832883e-16
vn 0.778593884 0.627528138 1.39339237e-16
vn 0.778593884 0.627528138 1.39339237e-16
vn 0.778593884 0.627528138 1.39339237e-16
vn 0.778593913 0.627528102 1.39339229e-16
vn -0.776796746 0.629751392 1.39832899e-16
vn -0.776796775 0.629751356 1.39832891e-16
vn -0.776796775 0.629751356 1.39832891e-16
vn -0.776796775 0.629751356 1.39832891e-16

g collision_PZ_h_30_submesh_0
usemtl collision_11
f 305/305/305 307/307/307 306/306/306
f 305/305/305 308/308/308 307/307/307
f 307/307/307 308/308/308 309/309/309
f 310/310/310 312/312/312 311/311/311
f 310/310/310 311/311/311 313/313/313
f 312/312/312 314/314/314 311/311/311
f 315/315/315 317/317/317 316/316/316
f 317/317/317 318/318/318 316/316/316
f 317/317/317 319/319/319 318/318/318
f 320/320/320 316/316/316 318/318/318
f 321/321/321 320/320/320 318/318/318
f 320/320/320 322/322/322 316/316/316
f 323/323/323 325/325/325 324/324/324
f 326/326/326 323/323/323 324/324/324
f 323/323/323 327/327/327 325/325/325
f 328/328/328 330/330/330 329/329/329
f 328/328/328 329/329/329 331/331/331
f 332/332/332 334/334/334 333/333/333
f 332/332/332 333/333/333 335/335/335
f 336/336/336 338/338/338 337/337/337
f 336/336/336 339/339/339 338/338/338
f 338/338/338 339/339/339 340/340/340
f 341/341/341 343/343/343 342/342/342
f 341/341/341 342/342/342 344/344/344
f 343/343/343 345/345/345 342/342/342
f 346/346/346 348/348/348 347/347/347
f 348/348/348 349/349/349 347/347/347
f 348/348/348 350/350/350 349/349/349
f 351/351/351 353/353/353 352/352/352
f 351/351/351 352/352/352 354/354/354
f 355/355/355 357/357/357 356/356/356
f 355/355/355 356/356/356 358/358/358
f 357/357/357 359/359/359 356/356/356
f 360/360/360 362/362/362 361/361/361
f 363/363/363 362/362/362 360/360/360
f 363/363/363 364/364/364 362/362/362
f 365/365/365 367/367/367 366/366/366
f 365/365/365 366/366/366 368/368/368

g collision_PZ_h_30_submesh_1
usemtl collision_11
f 369/369/369 371/371/371 370/370/370
f 369/369/369 370/370/370 372/372/372
f 373/373/373 375/375/375 374/374/374
f 373/373/373 374/374/374 376/376/376
f 377/377/377 379/379/379 378/378/378
f 377/377/377 378/378/378 380/380/380
f 381/381/381 383/383/383 382/382/382
f 381/381/381 382/382/382 384/384/384

g collision_PZ_h_30_submesh_2
usemtl collision_11
f 385/385/385 387/387/387 386/386/386
f 385/385/385 386/386/386 388/388/388
f 389/389/389 391/391/391 390/390/390
f 389/389/389 390/390/390 392/392/392
f 393/393/393 395/395/395 394/394/394
f 393/393/393 394/394/394 396/396/396
f 397/397/397 399/399/399 398/398/398
f 397/397/397 398/398/398 400/400/400

o collision_PZ_h_29
v -7.66919984 0.115850432 -43.1033544
v -7.18875016 0.115850432 -34.4732558
v -7.66919984 0.115850432 -34.4732558
v -7.18875016 0.115850432 -43.1033544
v -7.18875016 0.115850432 -43.1033544
v -7.04129495 -0.0511417221 -34.4732558
v -7.18875016 0.115850432 -34.4732558
v -7.04129495 -0.0511417221 -43.1033544
v -7.66919984 0.115850432 -34.4732558
v -7.81665505 -0.0511417221 -43.1033544
v -7.66919984 0.115850432 -43.1033544
v -7.81665505 -0.0511417221 -34.4732558
vt 0.898518324 0.376597703
vt 0.925199628 0.0018375963
vt 0.898290217 0.0018376857
vt 0.924975872 0.376597643
vt 0.924975872 0.376597643
vt 0.941292465 0.00183753669
vt 0.925199628 0.0018375963
vt 0.941292465 0.376597583
vt 0.898290217 0.0018376857
vt 0.88545233 0.376597792
vt 0.898518324 0.376597703
vt 0.88545233 0.00183774531
vn 0 1 2.22044605e-16
vn 0 1 2.22044605e-16
vn 0 1 2.22044605e-16
vn 0 1 2.22044605e-16
vn 0.749594653 0.661897164 1.46970694e-16
vn 0.749594653 0.661897164 1.46970694e-16
vn 0.749594653 0.661897164 1.46970694e-16
vn 0.749594653 0.661897164 1.46970694e-16
vn -0.749594653 0.661897164 1.46970694e-16
vn -0.749594653 0.661897164 1.46970694e-16
vn -0.749594653 0.661897164 1.46970694e-16
vn -0.749594653 0.661897164 1.46970694e-16

g collision_PZ_h_29_submesh_0
usemtl collision_12
f 401/401/401 403/403/403 402/402/402
f 401/401/401 402/402/402 404/404/404
f 405/405/405 407/407/407 406/406/406
f 405/405/405 406/406/406 408/408/408
f 409/409/409 411/411/411 410/410/410
f 409/409/409 410/410/410 412/412/412
