{"asset":{"version":"2.0","generator":"Star Warfare Unity lightmap restoration"},"scene":0,"scenes":[{"nodes":[0]}],"nodes":[{"name":"RestoredStage","mesh":0}],"meshes":[{"name":"RestoredStage","primitives":[{"attributes":{"POSITION":0,"NORMAL":1,"TEXCOORD_0":2,"TEXCOORD_1":3},"indices":4,"material":0},{"attributes":{"POSITION":5,"NORMAL":6,"TEXCOORD_0":7,"TEXCOORD_1":8},"indices":9,"material":1},{"attributes":{"POSITION":10,"NORMAL":11,"TEXCOORD_0":12,"TEXCOORD_1":13},"indices":14,"material":2},{"attributes":{"POSITION":15,"NORMAL":16,"TEXCOORD_0":17,"TEXCOORD_1":18},"indices":19,"material":3},{"attributes":{"POSITION":20,"NORMAL":21,"TEXCOORD_0":22,"TEXCOORD_1":23},"indices":24,"material":4},{"attributes":{"POSITION":25,"NORMAL":26,"TEXCOORD_0":27,"TEXCOORD_1":28},"indices":29,"material":5},{"attributes":{"POSITION":30,"NORMAL":31,"TEXCOORD_0":32,"TEXCOORD_1":33},"indices":34,"material":6},{"attributes":{"POSITION":35,"NORMAL":36,"TEXCOORD_0":37,"TEXCOORD_1":38},"indices":39,"material":7},{"attributes":{"POSITION":40,"NORMAL":41,"TEXCOORD_0":42,"TEXCOORD_1":43},"indices":44,"material":8},{"attributes":{"POSITION":45,"NORMAL":46,"TEXCOORD_0":47,"TEXCOORD_1":48},"indices":49,"material":9},{"attributes":{"POSITION":50,"NORMAL":51,"TEXCOORD_0":52,"TEXCOORD_1":53},"indices":54,"material":10},{"attributes":{"POSITION":55,"NORMAL":56,"TEXCOORD_0":57,"TEXCOORD_1":58},"indices":59,"material":11},{"attributes":{"POSITION":60,"NORMAL":61,"TEXCOORD_0":62,"TEXCOORD_1":63},"indices":64,"material":12},{"attributes":{"POSITION":65,"NORMAL":66,"TEXCOORD_0":67,"TEXCOORD_1":68},"indices":69,"material":13}]}],"bufferViews":[{"buffer":0,"byteOffset":0,"byteLength":264},{"buffer":0,"byteOffset":264,"byteLength":264},{"buffer":0,"byteOffset":528,"byteLength":176},{"buffer":0,"byteOffset":704,"byteLength":176},{"buffer":0,"byteOffset":880,"byteLength":144},{"buffer":0,"byteOffset":1024,"byteLength":91584},{"buffer":0,"byteOffset":92608,"byteLength":91584},{"buffer":0,"byteOffset":184192,"byteLength":61056},{"buffer":0,"byteOffset":245248,"byteLength":61056},{"buffer":0,"byteOffset":306304,"byteLength":48444},{"buffer":0,"byteOffset":354748,"byteLength":468},{"buffer":0,"byteOffset":355216,"byteLength":468},{"buffer":0,"byteOffset":355684,"byteLength":312},{"buffer":0,"byteOffset":355996,"byteLength":312},{"buffer":0,"byteOffset":356308,"byteLength":348},{"buffer":0,"byteOffset":356656,"byteLength":1296},{"buffer":0,"byteOffset":357952,"byteLength":1296},{"buffer":0,"byteOffset":359248,"byteLength":864},{"buffer":0,"byteOffset":360112,"byteLength":864},{"buffer":0,"byteOffset":360976,"byteLength":720},{"buffer":0,"byteOffset":361696,"byteLength":9984},{"buffer":0,"byteOffset":371680,"byteLength":9984},{"buffer":0,"byteOffset":381664,"byteLength":6656},{"buffer":0,"byteOffset":388320,"byteLength":6656},{"buffer":0,"byteOffset":394976,"byteLength":5484},{"buffer":0,"byteOffset":400460,"byteLength":1536},{"buffer":0,"byteOffset":401996,"byteLength":1536},{"buffer":0,"byteOffset":403532,"byteLength":1024},{"buffer":0,"byteOffset":404556,"byteLength":1024},{"buffer":0,"byteOffset":405580,"byteLength":792},{"buffer":0,"byteOffset":406372,"byteLength":360},{"buffer":0,"byteOffset":406732,"byteLength":360},{"buffer":0,"byteOffset":407092,"byteLength":240},{"buffer":0,"byteOffset":407332,"byteLength":240},{"buffer":0,"byteOffset":407572,"byteLength":432},{"buffer":0,"byteOffset":408004,"byteLength":216},{"buffer":0,"byteOffset":408220,"byteLength":216},{"buffer":0,"byteOffset":408436,"byteLength":144},{"buffer":0,"byteOffset":408580,"byteLength":144},{"buffer":0,"byteOffset":408724,"byteLength":144},{"buffer":0,"byteOffset":408868,"byteLength":17808},{"buffer":0,"byteOffset":426676,"byteLength":17808},{"buffer":0,"byteOffset":444484,"byteLength":11872},{"buffer":0,"byteOffset":456356,"byteLength":11872},{"buffer":0,"byteOffset":468228,"byteLength":9480},{"buffer":0,"byteOffset":477708,"byteLength":48},{"buffer":0,"byteOffset":477756,"byteLength":48},{"buffer":0,"byteOffset":477804,"byteLength":32},{"buffer":0,"byteOffset":477836,"byteLength":32},{"buffer":0,"byteOffset":477868,"byteLength":24},{"buffer":0,"byteOffset":477892,"byteLength":1488},{"buffer":0,"byteOffset":479380,"byteLength":1488},{"buffer":0,"byteOffset":480868,"byteLength":992},{"buffer":0,"byteOffset":481860,"byteLength":992},{"buffer":0,"byteOffset":482852,"byteLength":1080},{"buffer":0,"byteOffset":483932,"byteLength":2412},{"buffer":0,"byteOffset":486344,"byteLength":2412},{"buffer":0,"byteOffset":488756,"byteLength":1608},{"buffer":0,"byteOffset":490364,"byteLength":1608},{"buffer":0,"byteOffset":491972,"byteLength":1524},{"buffer":0,"byteOffset":493496,"byteLength":1404},{"buffer":0,"byteOffset":494900,"byteLength":1404},{"buffer":0,"byteOffset":496304,"byteLength":936},{"buffer":0,"byteOffset":497240,"byteLength":936},{"buffer":0,"byteOffset":498176,"byteLength":744},{"buffer":0,"byteOffset":498920,"byteLength":432},{"buffer":0,"byteOffset":499352,"byteLength":432},{"buffer":0,"byteOffset":499784,"byteLength":288},{"buffer":0,"byteOffset":500072,"byteLength":288},{"buffer":0,"byteOffset":500360,"byteLength":216}],"accessors":[{"bufferView":0,"componentType":5126,"count":22,"type":"VEC3","min":[-5.55626518,-0.12073512,16.4851886],"max":[-2.05527532,7.13638501,19.9869319]},{"bufferView":1,"componentType":5126,"count":22,"type":"VEC3","min":[-0.696396189,-6.88828832e-06,-0.717659172],"max":[0.714218567,1.0,0.717656292]},{"bufferView":2,"componentType":5126,"count":22,"type":"VEC2"},{"bufferView":3,"componentType":5126,"count":22,"type":"VEC2"},{"bufferView":4,"componentType":5125,"count":36,"type":"SCALAR"},{"bufferView":5,"componentType":5126,"count":7632,"type":"VEC3","min":[-77.0045776,-14.3750505,-51.0556068],"max":[92.4751827,24.753252,75.3656768]},{"bufferView":6,"componentType":5126,"count":7632,"type":"VEC3","min":[-1.0,-1.0,-1.0],"max":[1.0,1.0,1.0]},{"bufferView":7,"componentType":5126,"count":7632,"type":"VEC2"},{"bufferView":8,"componentType":5126,"count":7632,"type":"VEC2"},{"bufferView":9,"componentType":5125,"count":12111,"type":"SCALAR"},{"bufferView":10,"componentType":5126,"count":39,"type":"VEC3","min":[-12.6768637,5.72879648,-26.646183],"max":[23.9659271,19.0706749,56.6191559]},{"bufferView":11,"componentType":5126,"count":39,"type":"VEC3","min":[-0.0508567525,-1.0,-0.922570057],"max":[0.510061568,-0.385828663,0.576376272]},{"bufferView":12,"componentType":5126,"count":39,"type":"VEC2"},{"bufferView":13,"componentType":5126,"count":39,"type":"VEC2"},{"bufferView":14,"componentType":5125,"count":87,"type":"SCALAR"},{"bufferView":15,"componentType":5126,"count":108,"type":"VEC3","min":[-12.6934929,-0.120736383,-26.5621986],"max":[1.01593781,3.45724726,10.2113466]},{"bufferView":16,"componentType":5126,"count":108,"type":"VEC3","min":[-1.0,-1.19256675e-07,-0.979625494],"max":[1.0,1.0,1.0]},{"bufferView":17,"componentType":5126,"count":108,"type":"VEC2"},{"bufferView":18,"componentType":5126,"count":108,"type":"VEC2"},{"bufferView":19,"componentType":5125,"count":180,"type":"SCALAR"},{"bufferView":20,"componentType":5126,"count":832,"type":"VEC3","min":[-101.000351,-71.0462341,-110.841385],"max":[119.24884,71.0064087,60.8669472]},{"bufferView":21,"componentType":5126,"count":832,"type":"VEC3","min":[-1.0,-0.844966228,-1.0],"max":[1.0,1.0,1.0]},{"bufferView":22,"componentType":5126,"count":832,"type":"VEC2"},{"bufferView":23,"componentType":5126,"count":832,"type":"VEC2"},{"bufferView":24,"componentType":5125,"count":1371,"type":"SCALAR"},{"bufferView":25,"componentType":5126,"count":128,"type":"VEC3","min":[-24.539875,-6.48878622,-43.076107],"max":[23.4658413,18.7225132,52.8526154]},{"bufferView":26,"componentType":5126,"count":128,"type":"VEC3","min":[-1.0,-0.6975177,-1.0],"max":[0.978345899,0.698996545,0.966747865]},{"bufferView":27,"componentType":5126,"count":128,"type":"VEC2"},{"bufferView":28,"componentType":5126,"count":128,"type":"VEC2"},{"bufferView":29,"componentType":5125,"count":198,"type":"SCALAR"},{"bufferView":30,"componentType":5126,"count":30,"type":"VEC3","min":[-130.35762,-107.933556,-338.829041],"max":[298.389679,415.391357,166.206665]},{"bufferView":31,"componentType":5126,"count":30,"type":"VEC3","min":[-0.867939842,-0.482925478,-0.137719066],"max":[0.193636914,1.0,0.630991776]},{"bufferView":32,"componentType":5126,"count":30,"type":"VEC2"},{"bufferView":33,"componentType":5126,"count":30,"type":"VEC2"},{"bufferView":34,"componentType":5125,"count":108,"type":"SCALAR"},{"bufferView":35,"componentType":5126,"count":18,"type":"VEC3","min":[-575.998901,-614.901245,-629.754333],"max":[637.78717,678.86438,656.941772]},{"bufferView":36,"componentType":5126,"count":18,"type":"VEC3","min":[-0.918727423,-0.979212607,-0.973865694],"max":[0.918727423,0.979212607,0.973865694]},{"bufferView":37,"componentType":5126,"count":18,"type":"VEC2"},{"bufferView":38,"componentType":5126,"count":18,"type":"VEC2"},{"bufferView":39,"componentType":5125,"count":36,"type":"SCALAR"},{"bufferView":40,"componentType":5126,"count":1484,"type":"VEC3","min":[-77.0045776,-31.8747101,-60.1570091],"max":[127.421135,48.6700974,83.1861496]},{"bufferView":41,"componentType":5126,"count":1484,"type":"VEC3","min":[-1.0,-1.0,-1.0],"max":[1.0,1.0,1.0]},{"bufferView":42,"componentType":5126,"count":1484,"type":"VEC2"},{"bufferView":43,"componentType":5126,"count":1484,"type":"VEC2"},{"bufferView":44,"componentType":5125,"count":2370,"type":"SCALAR"},{"bufferView":45,"componentType":5126,"count":4,"type":"VEC3","min":[-1.3562603,-16.0096664,-34.43573],"max":[-1.15472221,6.79808712,-31.3380985]},{"bufferView":46,"componentType":5126,"count":4,"type":"VEC3","min":[0.999960937,0.00883880958,0.0],"max":[0.999960937,0.00883880958,0.0]},{"bufferView":47,"componentType":5126,"count":4,"type":"VEC2"},{"bufferView":48,"componentType":5126,"count":4,"type":"VEC2"},{"bufferView":49,"componentType":5125,"count":6,"type":"SCALAR"},{"bufferView":50,"componentType":5126,"count":124,"type":"VEC3","min":[-45.0571823,-0.160157323,-50.1326752],"max":[29.9255371,4.39783287,59.3654556]},{"bufferView":51,"componentType":5126,"count":124,"type":"VEC3","min":[-0.887607213,0.445269111,-0.887607213],"max":[0.873122827,1.0,0.873122827]},{"bufferView":52,"componentType":5126,"count":124,"type":"VEC2"},{"bufferView":53,"componentType":5126,"count":124,"type":"VEC2"},{"bufferView":54,"componentType":5125,"count":270,"type":"SCALAR"},{"bufferView":55,"componentType":5126,"count":201,"type":"VEC3","min":[-102.185593,-157.182281,-135.306595],"max":[241.830475,186.110184,334.714325]},{"bufferView":56,"componentType":5126,"count":201,"type":"VEC3","min":[-1.0,-0.915235799,-1.0],"max":[1.0,0.976132453,0.999014107]},{"bufferView":57,"componentType":5126,"count":201,"type":"VEC2"},{"bufferView":58,"componentType":5126,"count":201,"type":"VEC2"},{"bufferView":59,"componentType":5125,"count":381,"type":"SCALAR"},{"bufferView":60,"componentType":5126,"count":117,"type":"VEC3","min":[-41.4225922,-2.16359591,-21.3565865],"max":[25.6620026,13.2899342,58.8550911]},{"bufferView":61,"componentType":5126,"count":117,"type":"VEC3","min":[-0.984029664,-1.0,-0.953290675],"max":[0.984029664,0.592548968,0.984029664]},{"bufferView":62,"componentType":5126,"count":117,"type":"VEC2"},{"bufferView":63,"componentType":5126,"count":117,"type":"VEC2"},{"bufferView":64,"componentType":5125,"count":186,"type":"SCALAR"},{"bufferView":65,"componentType":5126,"count":36,"type":"VEC3","min":[-46.1987572,1.56389308,-50.8879204],"max":[22.7834663,16.0085907,57.9745522]},{"bufferView":66,"componentType":5126,"count":36,"type":"VEC3","min":[-0.938913152,-1.1920929e-07,-0.984242882],"max":[1.0,5.96347591e-08,1.0]},{"bufferView":67,"componentType":5126,"count":36,"type":"VEC2"},{"bufferView":68,"componentType":5126,"count":36,"type":"VEC2"},{"bufferView":69,"componentType":5125,"count":54,"type":"SCALAR"}],"materials":[{"name":"sc03-orig_Standard_16","pbrMetallicRoughness":{"baseColorFactor":[1.0,1.0,1.0,1.0],"metallicFactor":0.0,"roughnessFactor":1.0,"baseColorTexture":{"index":0}},"doubleSided":false},{"name":"SC03-Standard_1s","pbrMetallicRoughness":{"baseColorFactor":[1.0,1.0,1.0,1.0],"metallicFactor":0.0,"roughnessFactor":1.0,"baseColorTexture":{"index":1}},"doubleSided":false},{"name":"SC03-Standard_5","pbrMetallicRoughness":{"baseColorFactor":[1.0,1.0,1.0,1.0],"metallicFactor":0.0,"roughnessFactor":1.0,"baseColorTexture":{"index":2}},"doubleSided":false},{"name":"sc03-orig_Standard_15","pbrMetallicRoughness":{"baseColorFactor":[1.0,1.0,1.0,1.0],"metallicFactor":0.0,"roughnessFactor":1.0,"baseColorTexture":{"index":0}},"doubleSided":false},{"name":"SC03-Standard_3","pbrMetallicRoughness":{"baseColorFactor":[1.0,1.0,1.0,1.0],"metallicFactor":0.0,"roughnessFactor":1.0,"baseColorTexture":{"index":3}},"doubleSided":false,"alphaMode":"BLEND"},{"name":"sc03-Standard_19","pbrMetallicRoughness":{"baseColorFactor":[0.588,0.588,0.588,1.0],"metallicFactor":0.0,"roughnessFactor":1.0,"baseColorTexture":{"index":4}},"doubleSided":false},{"name":"SC03-Standard_1","pbrMetallicRoughness":{"baseColorFactor":[1.0,1.0,1.0,1.0],"metallicFactor":0.0,"roughnessFactor":1.0,"baseColorTexture":{"index":5}},"doubleSided":false,"alphaMode":"BLEND"},{"name":"SC03-Standard_22","pbrMetallicRoughness":{"baseColorFactor":[1.0,1.0,1.0,1.0],"metallicFactor":0.0,"roughnessFactor":1.0,"baseColorTexture":{"index":6}},"doubleSided":false},{"name":"SC03-Standard_20","pbrMetallicRoughness":{"baseColorFactor":[1.0,1.0,1.0,1.0],"metallicFactor":0.0,"roughnessFactor":1.0,"baseColorTexture":{"index":7}},"doubleSided":false},{"name":"_SC03-Material_1601_","pbrMetallicRoughness":{"baseColorFactor":[0.588,0.588,0.588,1.0],"metallicFactor":0.0,"roughnessFactor":1.0,"baseColorTexture":{"index":8}},"doubleSided":false},{"name":"SC03-Standard_13_ground_","pbrMetallicRoughness":{"baseColorFactor":[1.0,1.0,1.0,1.0],"metallicFactor":0.0,"roughnessFactor":1.0,"baseColorTexture":{"index":1}},"doubleSided":false},{"name":"_sc03-Material_1629_","pbrMetallicRoughness":{"baseColorFactor":[1.0,1.0,1.0,1.0],"metallicFactor":0.0,"roughnessFactor":1.0,"baseColorTexture":{"index":9}},"doubleSided":false,"alphaMode":"BLEND"},{"name":"SC03-Standard_2","pbrMetallicRoughness":{"baseColorFactor":[1.0,1.0,1.0,0.5],"metallicFactor":0.0,"roughnessFactor":1.0,"baseColorTexture":{"index":10}},"doubleSided":true,"alphaMode":"BLEND"},{"name":"SC03-Standard_1s_1","pbrMetallicRoughness":{"baseColorFactor":[1.0,1.0,1.0,0.5],"metallicFactor":0.0,"roughnessFactor":1.0,"baseColorTexture":{"index":1}},"doubleSided":true,"alphaMode":"BLEND"}],"images":[{"uri":"sc03_4.png"},{"uri":"ground.png"},{"uri":"wall_1.png"},{"uri":"sc03_6.png"},{"uri":"sc03_5.png"},{"uri":"sc_03_star.png"},{"uri":"sky.png"},{"uri":"sc03_1.png"},{"uri":"sc03_2.png"},{"uri":"sc03_61.png"},{"uri":"sc03_fx.png"}],"textures":[{"source":0,"sampler":0},{"source":1,"sampler":0},{"source":2,"sampler":0},{"source":3,"sampler":0},{"source":4,"sampler":0},{"source":5,"sampler":0},{"source":6,"sampler":0},{"source":7,"sampler":0},{"source":8,"sampler":0},{"source":9,"sampler":0},{"source":10,"sampler":0}],"samplers":[{"magFilter":9729,"minFilter":9987,"wrapS":10497,"wrapT":10497}],"buffers":[{"uri":"stage.bin","byteLength":500576}]}
