# Generated from legacy Unity YAML Mesh assets without Unity.
mtllib ArmorBag_19.mtl

o ArmorBag_19_00_Bag
v -1.41518535 -0.361357033 -0.168691471
v -1.31392219 -0.446759522 -0.0620643497
v -1.31392218 -0.408425033 -0.165967286
v -1.42707085 -0.394663274 -0.0650795475
v -1.3139222 -0.344930172 -0.0152602047
v -1.42223463 -0.29540807 -0.0252123326
v -1.42299508 -0.197433114 0.000743374228
v -1.5263196 -0.223643571 -0.0695950761
v -1.51975496 -0.148911253 -0.0452083573
v -1.53540694 -0.0870673433 -0.0438191444
v -1.5279654 -0.10939987 -0.147425383
v -1.56787882 -0.0175099522 -0.0572181195
v -1.48039326 0.00161544979 -0.00728781521
v -1.53499177 0.109990224 -0.0516057462
v -1.61084897 0.0531483889 -0.0816779435
v -1.56832201 0.06876266 -0.193585604
v -1.5279654 -0.10939987 -0.147425383
v -1.44271405 -0.0892437324 0.00910671055
v -1.31392221 -0.230018929 0.0190459788
v -1.31392221 -0.127670646 0.037046507
v -1.37900731 -0.0612529665 0.0305389613
v -1.51472368 -0.190389544 -0.182977438
v -1.41914783 0.036667794 0.0151468515
v -1.45258819 0.14669399 -0.0178596526
v -1.3998725 0.185316458 0.0711454153
v -1.38504964 0.063741982 0.0773856491
v -1.31392222 0.0779801756 0.111992881
v -1.3547057 -0.0375425071 0.0674807131
v -1.31392222 -0.0240753591 0.087821424
v -1.31392222 0.198407933 0.122263089
v -1.61084897 0.0531483889 -0.0816779435
v -1.53499177 0.109990224 -0.0516057462
v -1.31392218 -0.0655059442 -0.126195878
v -1.5279654 -0.10939987 -0.147425383
v -1.31392219 0.15982984 -0.0997031331
v -1.5279654 -0.10939987 -0.147425383
v -1.45258819 0.14669399 -0.0178596526
v -1.3998725 0.185316458 0.0711454153
v -1.31392222 0.198407933 0.122263089
v -1.51472368 -0.190389544 -0.182977438
v -1.31392218 -0.236965507 -0.146081582
v -1.31392218 -0.408425033 -0.165967286
v -1.41518535 -0.361357033 -0.168691471
v -1.55459825 -0.249724835 -0.175152451
v -1.49146796 -0.389761478 -0.166424856
v -1.50240785 -0.424471021 -0.0897915885
v -1.56079115 -0.267341286 -0.109763607
v -1.51472368 -0.190389544 -0.182977438
v -1.50240785 -0.424471021 -0.0897915885
v -1.50240785 -0.424471021 -0.0897915885
v -1.49146796 -0.389761478 -0.166424856
v -1.212659 -0.361357033 -0.168691441
v -1.31392219 -0.446759522 -0.0620643497
v -1.20077353 -0.394663274 -0.0650795177
v -1.31392218 -0.408425033 -0.165967286
v -1.3139222 -0.344930172 -0.0152602047
v -1.20560977 -0.29540807 -0.0252123028
v -1.20484932 -0.197433114 0.000743404031
v -1.1015248 -0.223643571 -0.0695950165
v -1.10808944 -0.148911253 -0.0452082977
v -1.09243746 -0.0870673433 -0.0438190848
v -1.09987897 -0.10939987 -0.147425324
v -1.05996558 -0.0175099522 -0.057218045
v -1.14745117 0.00161544979 -0.00728775561
v -1.09285263 0.109990224 -0.0516056865
v -1.01699537 0.0531483889 -0.0816778541
v -1.05952233 0.06876266 -0.19358553
v -1.09987897 -0.10939987 -0.147425324
v -1.18513038 -0.0892437324 0.00910674036
v -1.31392221 -0.230018929 0.0190459788
v -1.31392221 -0.127670646 0.037046507
v -1.24883711 -0.0612529665 0.0305389911
v -1.11312069 -0.190389544 -0.182977378
v -1.20869658 0.036667794 0.0151468813
v -1.17525621 0.14669399 -0.0178596228
v -1.22797193 0.185316458 0.0711454153
v -1.24279479 0.063741982 0.0773856491
v -1.31392222 0.0779801756 0.111992881
v -1.27313872 -0.0375425071 0.0674807131
v -1.31392222 -0.0240753591 0.087821424
v -1.31392222 0.198407933 0.122263089
v -1.01699537 0.0531483889 -0.0816778541
v -1.09285263 0.109990224 -0.0516056865
v -1.17525621 0.14669399 -0.0178596228
v -1.31392219 0.15982984 -0.0997031331
v -1.09987897 -0.10939987 -0.147425324
v -1.22797193 0.185316458 0.0711454153
v -1.31392222 0.198407933 0.122263089
v -1.09987897 -0.10939987 -0.147425324
v -1.31392218 -0.0655059442 -0.126195878
v -1.11312069 -0.190389544 -0.182977378
v -1.31392218 -0.236965507 -0.146081582
v -1.31392218 -0.408425033 -0.165967286
v -1.212659 -0.361357033 -0.168691441
v -1.07324612 -0.249724835 -0.175152376
v -1.13637641 -0.389761478 -0.166424796
v -1.12543655 -0.424471021 -0.0897915289
v -1.11312069 -0.190389544 -0.182977378
v -1.06705325 -0.267341286 -0.109763533
v -1.12543655 -0.424471021 -0.0897915289
v -1.12543655 -0.424471021 -0.0897915289
v -1.13637641 -0.389761478 -0.166424796
v -1.51205869 -0.376397729 -0.100185618
v -1.55260204 -0.314110905 -0.0785781518
v -1.48256652 -0.355067879 -0.0866608247
v -1.57434818 -0.307811886 -0.0995652229
v -1.56459222 -0.270719051 -0.0318983644
v -1.58220888 -0.260941148 -0.0552880019
v -1.55087963 -0.203153089 -0.0219103694
v -1.56491116 -0.18772018 -0.0446693301
v -1.49806084 -0.160073549 -0.0296232998
v -1.50728627 -0.14158389 -0.0525591671
v -1.53085594 -0.304276168 -0.0981590673
v -1.49712666 -0.335440814 -0.102556087
v -1.48256652 -0.355067879 -0.0866608247
v -1.55260204 -0.314110905 -0.0785781518
v -1.53954991 -0.2684398 -0.0498069897
v -1.56459222 -0.270719051 -0.0318983644
v -1.53684804 -0.221108571 -0.0427369103
v -1.55087963 -0.203153089 -0.0219103694
v -1.48883543 -0.181085795 -0.0502729192
v -1.49806084 -0.160073549 -0.0296232998
v -1.49712666 -0.335440814 -0.102556087
v -1.55260203 -0.297977149 -0.119146124
v -1.50459268 -0.357180595 -0.123163581
v -1.53085594 -0.304276168 -0.0981590673
v -1.55260203 -0.297977149 -0.119146124
v -1.55716656 -0.258661866 -0.0731965825
v -1.53954991 -0.2684398 -0.0498069897
v -1.55087963 -0.205675691 -0.065495871
v -1.50459268 -0.357180595 -0.123163581
v -1.57434818 -0.307811886 -0.0995652229
v -1.51205869 -0.376397729 -0.100185618
v -1.58220888 -0.260941148 -0.0552880019
v -1.55716656 -0.258661866 -0.0731965825
v -1.56491116 -0.18772018 -0.0446693301
v -1.50728627 -0.14158389 -0.0525591671
v -1.49806084 -0.162596151 -0.0732087865
v -1.53684804 -0.221108571 -0.0427369103
v -1.55087963 -0.205675691 -0.065495871
v -1.48883543 -0.181085795 -0.0502729192
v -1.49806084 -0.162596151 -0.0732087865
v -1.11578571 -0.376397729 -0.100185439
v -1.07524236 -0.314110905 -0.0785779655
v -1.05349619 -0.307811886 -0.0995650515
v -1.14527788 -0.355067849 -0.0866606534
v -1.06325218 -0.270719051 -0.0318981856
v -1.04563552 -0.260941148 -0.055287838
v -1.07696477 -0.203153074 -0.0219102055
v -1.06293324 -0.187720165 -0.0446691588
v -1.12978356 -0.160073549 -0.029623121
v -1.12055813 -0.14158389 -0.0525589883
v -1.13071774 -0.335440814 -0.102555916
v -1.09698846 -0.304276168 -0.0981588811
v -1.14527788 -0.355067849 -0.0866606534
v -1.07524236 -0.314110905 -0.0785779655
v -1.08829449 -0.2684398 -0.0498068109
v -1.06325218 -0.270719051 -0.0318981856
v -1.09099636 -0.221108571 -0.0427367315
v -1.07696477 -0.203153074 -0.0219102055
v -1.13900897 -0.181085795 -0.050272733
v -1.12978356 -0.160073549 -0.029623121
v -1.13071774 -0.335440814 -0.102555916
v -1.07524234 -0.297977149 -0.119145945
v -1.09698846 -0.304276168 -0.0981588811
v -1.07067784 -0.258661866 -0.0731964037
v -1.08829449 -0.2684398 -0.0498068109
v -1.07696477 -0.205675691 -0.0654956922
v -1.12325169 -0.357180595 -0.123163417
v -1.07524234 -0.297977149 -0.119145945
v -1.12325169 -0.357180595 -0.123163417
v -1.05349619 -0.307811886 -0.0995650515
v -1.11578571 -0.376397729 -0.100185439
v -1.04563552 -0.260941148 -0.055287838
v -1.07067784 -0.258661866 -0.0731964037
v -1.06293324 -0.187720165 -0.0446691588
v -1.12055813 -0.14158389 -0.0525589883
v -1.12978356 -0.162596151 -0.0732086077
v -1.07696477 -0.205675691 -0.0654956922
v -1.09099636 -0.221108571 -0.0427367315
v -1.12978356 -0.162596151 -0.0732086077
v -1.13900897 -0.181085795 -0.050272733
vt 0.801243305 0.00502480567
vt 0.997304022 0.0516822264
vt 0.997583389 0.00298030023
vt 0.807381332 0.081890665
vt 0.997188926 0.181507468
vt 0.806078494 0.237060219
vt 0.798275709 0.385683656
vt 0.635095477 0.339861482
vt 0.63953191 0.459203809
vt 0.612442791 0.553900003
vt 0.465268373 0.482922077
vt 0.558989108 0.657248974
vt 0.692157745 0.686341584
vt 0.597579837 0.855615914
vt 0.488646507 0.75997597
vt 0.360247463 0.66026479
vt 0.465268373 0.482922077
vt 0.758658171 0.545652092
vt 0.997188926 0.341827035
vt 0.997188926 0.493767083
vt 0.84692204 0.5860129
vt 0.446622789 0.345285892
vt 0.785246611 0.74479562
vt 0.724236846 0.916028082
vt 0.860938907 0.983393848
vt 0.88049686 0.792527735
vt 0.997188926 0.809226692
vt 0.899384141 0.632853687
vt 0.997188926 0.651456773
vt 0.997188926 0.997054398
vt 0.394567817 0.784245431
vt 0.285179287 0.808954477
vt 0.00221807417 0.435949832
vt 0.465268373 0.482922077
vt 0.00221807417 0.720743358
vt 0.465268373 0.482922077
vt 0.170053065 0.829752386
vt 0.102236614 0.936200202
vt 0.00221807417 0.996344149
vt 0.446622789 0.345285892
vt 0.00221807417 0.221806243
vt 0.00221807417 0.00766259385
vt 0.315944433 0.0464169905
vt 0.482314795 0.264109075
vt 0.487879902 0.0853028297
vt 0.648109436 0.0912123546
vt 0.588864744 0.264412701
vt 0.446622789 0.345285892
vt 0.648109436 0.0912123546
vt 0.648109436 0.0912123546
vt 0.660802305 0.00883667544
vt 0.801243305 0.00502480567
vt 0.997304022 0.0516822264
vt 0.807381332 0.081890665
vt 0.997583389 0.00298030023
vt 0.997188926 0.181507468
vt 0.806078494 0.237060219
vt 0.798275709 0.385683656
vt 0.635095477 0.339861482
vt 0.63953191 0.459203809
vt 0.612442791 0.553900003
vt 0.465268373 0.482922077
vt 0.558989108 0.657248974
vt 0.692157745 0.686341584
vt 0.597579837 0.855615914
vt 0.488646507 0.75997597
vt 0.360247463 0.66026479
vt 0.465268373 0.482922077
vt 0.758658171 0.545652092
vt 0.997188926 0.341827035
vt 0.997188926 0.493767083
vt 0.84692204 0.5860129
vt 0.446622789 0.345285892
vt 0.785246611 0.74479562
vt 0.724236846 0.916028082
vt 0.860938907 0.983393848
vt 0.88049686 0.792527735
vt 0.997188926 0.809226692
vt 0.899384141 0.632853687
vt 0.997188926 0.651456773
vt 0.997188926 0.997054398
vt 0.394567817 0.784245431
vt 0.285179287 0.808954477
vt 0.170053065 0.829752386
vt 0.00221807417 0.720743358
vt 0.465268373 0.482922077
vt 0.102236614 0.936200202
vt 0.00221807417 0.996344149
vt 0.465268373 0.482922077
vt 0.00221807417 0.435949832
vt 0.446622789 0.345285892
vt 0.00221807417 0.221806243
vt 0.00221807417 0.00766259385
vt 0.315944433 0.0464169905
vt 0.482314795 0.264109075
vt 0.487879902 0.0853028297
vt 0.648109436 0.0912123546
vt 0.446622789 0.345285892
vt 0.588864744 0.264412701
vt 0.648109436 0.0912123546
vt 0.648109436 0.0912123546
vt 0.660802305 0.00883667544
vt 0.166375309 0.986649334
vt 0.269323885 0.867283881
vt 0.166375309 0.867283881
vt 0.269323885 0.986649334
vt 0.372272462 0.867283881
vt 0.372272462 0.986649334
vt 0.475220978 0.867283881
vt 0.475220978 0.986649334
vt 0.578169346 0.867283881
vt 0.578169346 0.986649334
vt 0.269323885 0.986649334
vt 0.166375309 0.986649334
vt 0.166375309 0.867283881
vt 0.269323885 0.867283881
vt 0.372272462 0.986649334
vt 0.372272462 0.867283881
vt 0.475220978 0.986649334
vt 0.475220978 0.867283881
vt 0.578169346 0.986649334
vt 0.578169346 0.867283881
vt 0.166375309 0.986649334
vt 0.269323885 0.867283881
vt 0.166375309 0.867283881
vt 0.269323885 0.986649334
vt 0.269323885 0.867283881
vt 0.372272462 0.867283881
vt 0.372272462 0.986649334
vt 0.475220978 0.867283881
vt 0.166375309 0.867283881
vt 0.269323885 0.986649334
vt 0.166375309 0.986649334
vt 0.372272462 0.986649334
vt 0.372272462 0.867283881
vt 0.475220978 0.986649334
vt 0.578169346 0.986649334
vt 0.578169346 0.867283881
vt 0.475220978 0.986649334
vt 0.475220978 0.867283881
vt 0.578169346 0.986649334
vt 0.578169346 0.867283881
vt 0.166375309 0.986649334
vt 0.269323885 0.867283881
vt 0.269323885 0.986649334
vt 0.166375309 0.867283881
vt 0.372272462 0.867283881
vt 0.372272462 0.986649334
vt 0.475220978 0.867283881
vt 0.475220978 0.986649334
vt 0.578169346 0.867283881
vt 0.578169346 0.986649334
vt 0.166375309 0.986649334
vt 0.269323885 0.986649334
vt 0.166375309 0.867283881
vt 0.269323885 0.867283881
vt 0.372272462 0.986649334
vt 0.372272462 0.867283881
vt 0.475220978 0.986649334
vt 0.475220978 0.867283881
vt 0.578169346 0.986649334
vt 0.578169346 0.867283881
vt 0.166375309 0.986649334
vt 0.269323885 0.867283881
vt 0.269323885 0.986649334
vt 0.372272462 0.867283881
vt 0.372272462 0.986649334
vt 0.475220978 0.867283881
vt 0.166375309 0.867283881
vt 0.269323885 0.867283881
vt 0.166375309 0.867283881
vt 0.269323885 0.986649334
vt 0.166375309 0.986649334
vt 0.372272462 0.986649334
vt 0.372272462 0.867283881
vt 0.475220978 0.986649334
vt 0.578169346 0.986649334
vt 0.578169346 0.867283881
vt 0.475220978 0.867283881
vt 0.475220978 0.986649334
vt 0.578169346 0.867283881
vt 0.578169346 0.986649334
vn -0.220468797 -0.921417168 -0.319974862
vn -0.419404691 -0.901551451 0.106323496
vn -0.392514405 -0.862890369 -0.318359314
vn -0.277283632 -0.688823966 0.669802456
vn -0.225297154 -0.324718939 0.918585218
vn -0.386942679 -0.284707538 0.877050159
vn -0.367435387 -0.206556842 0.906821651
vn -0.680586202 -0.0630752409 0.729947899
vn -0.927977261 -0.145145174 0.343207053
vn -0.701100978 -0.195875204 0.685631331
vn -0.961610305 -0.274245833 0.00973880961
vn -0.907223041 -0.251296918 0.337336941
vn -0.442507492 0.0369701677 0.896002414
vn -0.446117761 0.114496313 0.887620154
vn -0.854698444 -0.409187995 0.319461663
vn -0.322181412 0.428371312 -0.844213928
vn -0.953066184 -0.257248275 -0.159650161
vn -0.341533092 -0.111334823 0.933252219
vn -0.233425111 -0.189670145 0.953696993
vn -0.314990155 -0.261079752 0.912479351
vn -0.441675478 -0.134317262 0.887063495
vn -0.286210388 0.225303842 -0.931301129
vn -0.664197546 -0.0354265655 0.746717201
vn -0.676919361 0.0150253831 0.735903809
vn -0.684867834 -0.0681558474 0.725472832
vn -0.639566868 -0.142044391 0.755498254
vn -0.443051425 -0.106003405 0.890207118
vn -0.554876819 -0.300910417 0.775605981
vn -0.334991946 -0.322621922 0.885265774
vn -0.50148621 -0.0735154092 0.862036581
vn -0.570031265 0.815155819 -0.102885119
vn -0.458806508 0.876332237 -0.146759664
vn 0.107428705 0.170942494 -0.979406829
vn 0.055888912 0.2005242 -0.978093285
vn 0.0795660694 0.505073275 -0.859401086
vn 0.388506263 -0.147650319 -0.909539591
vn -0.257563731 0.934250359 -0.246651965
vn -0.142305237 0.966034411 -0.215700573
vn -0.048169583 0.984086593 -0.17103587
vn 0.172242345 0.0820454119 -0.981631868
vn 0.204806329 0.112764654 -0.972285195
vn 0.147817013 0.059112684 -0.987246586
vn -0.020176692 -0.0877513356 -0.995938052
vn -0.715321656 -0.0947551952 -0.692341231
vn -0.521277824 -0.285128368 -0.804345227
vn -0.860263717 -0.406959384 -0.307132539
vn -0.946866738 -0.141772631 0.288693438
vn -0.984343486 0.169733997 0.0475212738
vn -0.752865213 -0.627608689 0.198245568
vn -0.263225421 -0.127510015 0.956270659
vn 0.380022392 -0.880282686 -0.284051711
vn 0.220468906 -0.921417162 -0.319974803
vn 0.419404663 -0.901551449 0.106323624
vn 0.277283464 -0.68882395 0.669802543
vn 0.392514499 -0.86289037 -0.318359196
vn 0.225296902 -0.324718942 0.918585279
vn 0.386942458 -0.284707545 0.877050254
vn 0.367435125 -0.206556804 0.906821766
vn 0.680586046 -0.0630752528 0.729948044
vn 0.927977181 -0.145145223 0.343207249
vn 0.701100745 -0.195875169 0.68563158
vn 0.961610295 -0.274245858 0.00973906794
vn 0.907222869 -0.251297028 0.337337324
vn 0.442507267 0.0369701349 0.896002527
vn 0.44611744 0.114496328 0.887620313
vn 0.854698083 -0.409188415 0.319462093
vn 0.322181651 0.428371257 -0.844213865
vn 0.953066232 -0.257248333 -0.159649781
vn 0.341532859 -0.111334857 0.9332523
vn 0.233424858 -0.189670113 0.953697061
vn 0.314989955 -0.261079798 0.912479407
vn 0.441675237 -0.134317316 0.887063607
vn 0.286210667 0.225303795 -0.931301054
vn 0.664197293 -0.0354264816 0.74671743
vn 0.676919117 0.0150254324 0.735904032
vn 0.68486765 -0.0681558152 0.725473009
vn 0.63956668 -0.142044334 0.755498424
vn 0.443051371 -0.106003388 0.890207147
vn 0.554876595 -0.300910329 0.775606174
vn 0.334991884 -0.322621897 0.885265807
vn 0.501486153 -0.0735153991 0.862036615
vn 0.570031038 0.815155994 -0.102884995
vn 0.458806479 0.876332279 -0.146759506
vn 0.257563807 0.934250356 -0.246651897
vn -0.0795658403 0.505073255 -0.85940112
vn -0.388505975 -0.147650276 -0.909539721
vn 0.142305268 0.966034412 -0.215700544
vn 0.0481695842 0.984086595 -0.171035855
vn -0.0558886438 0.20052419 -0.978093303
vn -0.107428433 0.170942489 -0.97940686
vn -0.172242065 0.0820454082 -0.981631918
vn -0.204806059 0.112764653 -0.972285252
vn -0.147816728 0.0591126788 -0.987246629
vn 0.0201770249 -0.0877513607 -0.995938043
vn 0.715321926 -0.0947552247 -0.692340948
vn 0.521278138 -0.28512841 -0.804345009
vn 0.860263831 -0.406959383 -0.307132221
vn 0.984343483 0.169733941 0.04752153
vn 0.946866647 -0.14177265 0.288693727
vn 0.752865221 -0.627608597 0.198245827
vn 0.263225132 -0.127509989 0.956270742
vn -0.380022363 -0.88028266 -0.284051831
vn -0.372043666 -0.510984968 0.774905074
vn -0.450552081 -0.561130254 0.694359893
vn 0.067272359 -0.196781579 0.978136718
vn -0.682701621 -0.580413479 0.443890402
vn -0.549724949 -0.433614053 0.713989729
vn -0.827638048 -0.0943731483 0.553271154
vn -0.510618373 0.104683472 0.853410949
vn -0.574379875 0.470063295 0.67017032
vn -0.40762338 0.621599046 0.66892287
vn -0.407984107 0.623612843 0.666825307
vn 0.685324255 0.237367908 0.688467241
vn 0.675314209 0.696776522 0.241770961
vn 0.406544949 0.551424861 0.728458529
vn 0.631209426 -0.137278735 0.763367022
vn 0.612837668 -0.431874337 0.661751123
vn 0.560924796 -0.378719336 0.736162372
vn 0.598222171 -0.302072896 0.742214389
vn 0.599610912 -0.360291414 0.714602582
vn 0.499914014 -0.473498413 0.725179448
vn 0.500370517 -0.485093002 0.717156974
vn 0.562061514 0.564662369 -0.604353592
vn -0.363236701 0.333307465 -0.870037489
vn 0.532219187 0.478959871 -0.698097543
vn 0.666168672 0.633234982 -0.393995886
vn 0.616165944 0.651227679 -0.442992144
vn 0.760800245 0.435058504 -0.481567321
vn 0.836834364 0.237416955 -0.4932965
vn -0.308955225 0.399984993 -0.862878134
vn -0.557411419 -0.455937335 -0.693839792
vn -0.6534108 -0.2320806 -0.720550429
vn -0.580677441 -0.521716344 -0.625000612
vn -0.605624591 0.424855659 -0.672842124
vn -0.603971815 0.365858072 -0.708071972
vn -0.583832501 0.326650491 -0.743262449
vn -0.49085457 0.480552061 -0.72672657
vn -0.0645402532 -0.0986591021 -0.993026151
vn 0.560813839 -0.484816366 -0.671148962
vn 0.637114081 -0.395949446 -0.661293947
vn 0.412851626 -0.620764923 -0.666486644
vn 0.412851626 -0.620764923 -0.666486644
vn 0.372043383 -0.510984932 0.774905233
vn 0.450551812 -0.561130269 0.694360055
vn 0.682701507 -0.58041342 0.443890656
vn -0.0672728338 -0.196781462 0.978136709
vn 0.549725167 -0.433613783 0.713989726
vn 0.827638093 -0.0943729656 0.553271118
vn 0.510618551 0.104683439 0.853410846
vn 0.574379845 0.470063221 0.670170398
vn 0.40762332 0.621599021 0.66892293
vn 0.407984056 0.623612873 0.666825311
vn -0.675314383 0.69677676 0.241769789
vn -0.685324407 0.237368006 0.688467055
vn -0.406544902 0.551424922 0.728458508
vn -0.631209425 -0.137278755 0.763367019
vn -0.612837676 -0.431874283 0.661751152
vn -0.560924805 -0.378719285 0.736162391
vn -0.598221959 -0.302072707 0.742214637
vn -0.599610632 -0.360291162 0.714602945
vn -0.499913723 -0.473498289 0.725179729
vn -0.500370234 -0.48509304 0.717157145
vn -0.562061197 0.564662314 -0.604353938
vn -0.616165658 0.65122766 -0.44299257
vn -0.666168486 0.633234984 -0.393996197
vn -0.760800119 0.435058538 -0.48156749
vn -0.836834365 0.237416931 -0.49329651
vn 0.308955016 0.399984921 -0.862878242
vn -0.532218848 0.478959793 -0.698097855
vn 0.363236381 0.333307768 -0.870037507
vn 0.557411563 -0.455937557 -0.69383953
vn 0.653410933 -0.232080721 -0.72055027
vn 0.580677663 -0.521716871 -0.624999966
vn 0.605624346 0.424855882 -0.672842203
vn 0.603971527 0.365858215 -0.708072144
vn 0.583832207 0.326650442 -0.743262701
vn 0.490854419 0.480551989 -0.72672672
vn 0.0645402532 -0.0986591021 -0.993026151
vn -0.637114081 -0.395949446 -0.661293947
vn -0.560813882 -0.484816387 -0.671148911
vn -0.412851778 -0.620764958 -0.666486517
vn -0.412851778 -0.620764958 -0.666486517

g ArmorBag_19_00_Bag_submesh_0
usemtl bag20
f 1/1/1 3/3/3 2/2/2
f 1/1/1 2/2/2 4/4/4
f 4/4/4 2/2/2 5/5/5
f 4/4/4 5/5/5 6/6/6
f 5/5/5 7/7/7 6/6/6
f 7/7/7 8/8/8 6/6/6
f 4/4/4 6/6/6 8/8/8
f 7/7/7 9/9/9 8/8/8
f 10/10/10 9/9/9 7/7/7
f 9/9/9 10/10/10 11/11/11
f 10/10/10 12/12/12 11/11/11
f 13/13/13 12/12/12 10/10/10
f 14/14/14 12/12/12 13/13/13
f 14/14/14 15/15/15 12/12/12
f 12/12/12 15/15/15 16/16/16
f 12/12/12 16/16/16 17/17/17
f 13/13/13 10/10/10 18/18/18
f 10/10/10 7/7/7 18/18/18
f 19/19/19 18/18/18 7/7/7
f 5/5/5 19/19/19 7/7/7
f 19/19/19 20/20/20 18/18/18
f 20/20/20 21/21/21 18/18/18
f 21/21/21 13/13/13 18/18/18
f 8/8/8 9/9/9 22/22/22
f 23/23/23 14/14/14 13/13/13
f 21/21/21 23/23/23 13/13/13
f 23/23/23 24/24/24 14/14/14
f 25/25/25 24/24/24 23/23/23
f 25/25/25 23/23/23 26/26/26
f 27/27/27 25/25/25 26/26/26
f 27/27/27 26/26/26 28/28/28
f 21/21/21 20/20/20 28/28/28
f 28/28/28 26/26/26 23/23/23
f 28/28/28 23/23/23 21/21/21
f 27/27/27 28/28/28 29/29/29
f 28/28/28 20/20/20 29/29/29
f 27/27/27 30/30/30 25/25/25
f 31/31/31 32/32/32 16/16/16
f 22/22/22 34/34/34 33/33/33
f 34/34/34 35/35/35 33/33/33
f 36/36/36 16/16/16 35/35/35
f 37/37/37 35/35/35 16/16/16
f 32/32/32 37/37/37 16/16/16
f 37/37/37 38/38/38 35/35/35
f 38/38/38 39/39/39 35/35/35
f 40/40/40 33/33/33 41/41/41
f 42/42/42 40/40/40 41/41/41
f 42/42/42 43/43/43 40/40/40
f 43/43/43 45/45/45 44/44/44
f 46/46/46 44/44/44 45/45/45
f 43/43/43 44/44/44 22/22/22
f 44/44/44 47/47/47 8/8/8
f 44/44/44 8/8/8 48/48/48
f 49/49/49 8/8/8 47/47/47
f 49/49/49 47/47/47 44/44/44
f 50/50/50 4/4/4 8/8/8
f 4/4/4 49/49/49 51/51/51
f 4/4/4 51/51/51 1/1/1
f 9/9/9 11/11/11 48/48/48
f 52/52/52 54/54/54 53/53/53
f 52/52/52 53/53/53 55/55/55
f 54/54/54 56/56/56 53/53/53
f 54/54/54 57/57/57 56/56/56
f 56/56/56 57/57/57 58/58/58
f 58/58/58 57/57/57 59/59/59
f 54/54/54 59/59/59 57/57/57
f 58/58/58 59/59/59 60/60/60
f 61/61/61 58/58/58 60/60/60
f 60/60/60 62/62/62 61/61/61
f 61/61/61 62/62/62 63/63/63
f 64/64/64 61/61/61 63/63/63
f 65/65/65 64/64/64 63/63/63
f 65/65/65 63/63/63 66/66/66
f 63/63/63 67/67/67 66/66/66
f 63/63/63 68/68/68 67/67/67
f 64/64/64 69/69/69 61/61/61
f 61/61/61 69/69/69 58/58/58
f 70/70/70 58/58/58 69/69/69
f 56/56/56 58/58/58 70/70/70
f 70/70/70 69/69/69 71/71/71
f 71/71/71 69/69/69 72/72/72
f 72/72/72 69/69/69 64/64/64
f 59/59/59 73/73/73 60/60/60
f 74/74/74 64/64/64 65/65/65
f 72/72/72 64/64/64 74/74/74
f 74/74/74 65/65/65 75/75/75
f 76/76/76 74/74/74 75/75/75
f 76/76/76 77/77/77 74/74/74
f 78/78/78 77/77/77 76/76/76
f 78/78/78 79/79/79 77/77/77
f 72/72/72 79/79/79 71/71/71
f 79/79/79 72/72/72 74/74/74
f 79/79/79 74/74/74 77/77/77
f 78/78/78 80/80/80 79/79/79
f 79/79/79 80/80/80 71/71/71
f 78/78/78 76/76/76 81/81/81
f 82/82/82 67/67/67 83/83/83
f 83/83/83 67/67/67 84/84/84
f 84/84/84 67/67/67 85/85/85
f 86/86/86 85/85/85 67/67/67
f 84/84/84 85/85/85 87/87/87
f 87/87/87 85/85/85 88/88/88
f 89/89/89 90/90/90 85/85/85
f 73/73/73 90/90/90 89/89/89
f 91/91/91 92/92/92 90/90/90
f 93/93/93 92/92/92 91/91/91
f 93/93/93 91/91/91 94/94/94
f 94/94/94 73/73/73 95/95/95
f 94/94/94 95/95/95 96/96/96
f 97/97/97 96/96/96 95/95/95
f 95/95/95 98/98/98 59/59/59
f 95/95/95 59/59/59 99/99/99
f 100/100/100 99/99/99 59/59/59
f 100/100/100 95/95/95 99/99/99
f 101/101/101 59/59/59 54/54/54
f 54/54/54 102/102/102 100/100/100
f 54/54/54 52/52/52 102/102/102
f 60/60/60 98/98/98 62/62/62
f 103/103/103 105/105/105 104/104/104
f 103/103/103 104/104/104 106/106/106
f 106/106/106 104/104/104 107/107/107
f 106/106/106 107/107/107 108/108/108
f 108/108/108 107/107/107 109/109/109
f 108/108/108 109/109/109 110/110/110
f 110/110/110 109/109/109 111/111/111
f 110/110/110 111/111/111 112/112/112
f 105/105/105 114/114/114 113/113/113
f 115/115/115 113/113/113 116/116/116
f 116/116/116 113/113/113 117/117/117
f 116/116/116 117/117/117 118/118/118
f 118/118/118 117/117/117 119/119/119
f 107/107/107 119/119/119 120/120/120
f 120/120/120 119/119/119 121/121/121
f 109/109/109 121/121/121 122/122/122
f 123/123/123 125/125/125 124/124/124
f 123/123/123 127/127/127 126/126/126
f 126/126/126 127/127/127 128/128/128
f 126/126/126 128/128/128 129/129/129
f 129/129/129 128/128/128 130/130/130
f 131/131/131 132/132/132 124/124/124
f 131/131/131 133/133/133 132/132/132
f 124/124/124 132/132/132 134/134/134
f 124/124/124 134/134/134 135/135/135
f 135/135/135 134/134/134 136/136/136
f 135/135/135 136/136/136 130/130/130
f 130/130/130 136/136/136 137/137/137
f 130/130/130 137/137/137 138/138/138
f 129/129/129 140/140/140 139/139/139
f 139/139/139 140/140/140 138/138/138
f 139/139/139 142/142/142 141/141/141
f 143/143/143 145/145/145 144/144/144
f 143/143/143 144/144/144 146/146/146
f 145/145/145 147/147/147 144/144/144
f 145/145/145 148/148/148 147/147/147
f 148/148/148 149/149/149 147/147/147
f 148/148/148 150/150/150 149/149/149
f 150/150/150 151/151/151 149/149/149
f 150/150/150 152/152/152 151/151/151
f 146/146/146 154/154/154 153/153/153
f 155/155/155 156/156/156 154/154/154
f 156/156/156 157/157/157 154/154/154
f 156/156/156 158/158/158 157/157/157
f 158/158/158 159/159/159 157/157/157
f 147/147/147 160/160/160 159/159/159
f 160/160/160 161/161/161 159/159/159
f 149/149/149 162/162/162 161/161/161
f 163/163/163 165/165/165 164/164/164
f 165/165/165 166/166/166 164/164/164
f 165/165/165 167/167/167 166/166/166
f 167/167/167 168/168/168 166/166/166
f 163/163/163 170/170/170 169/169/169
f 171/171/171 170/170/170 172/172/172
f 171/171/171 172/172/172 173/173/173
f 170/170/170 174/174/174 172/172/172
f 170/170/170 175/175/175 174/174/174
f 175/175/175 168/168/168 176/176/176
f 175/175/175 176/176/176 174/174/174
f 168/168/168 177/177/177 176/176/176
f 168/168/168 178/178/178 177/177/177
f 167/167/167 180/180/180 179/179/179
f 180/180/180 178/178/178 179/179/179
f 180/180/180 182/182/182 181/181/181
