# Generated from legacy Unity YAML Mesh assets without Unity.
mtllib ArmorBag_03.mtl

o ArmorBag_03_00_Bag
v 0.278651966 -0.101774633 0.134557009
v 0.285922749 -0.00244706869 0.104918636
v 0.239349572 -0.100187808 -0.019868169
v 0.193641973 -0.246710986 0.161074221
v 0.213180376 -0.0844782218 0.198314607
v 0.214363573 0.0153673664 0.170207471
v 0.193641973 -0.246710986 0.161074221
v 0.125630764 -0.0884317756 0.173508644
v 0.121227978 0.0118881762 0.146805435
v 0.0897663811 -0.0871445984 0.0182114244
v 0.193641973 -0.246710986 0.161074221
v 0.0719079727 0.0709538087 -0.0492973626
v 0.138065977 0.17989108 0.04470025
v 0.240669576 0.170944661 0.0185802579
v 0.185345961 0.228873312 -0.0539553463
v 0.24456316 0.0548769608 -0.0989757329
v 0.154745174 0.230205774 -0.0470037274
v 0.193641973 -0.246710986 0.161074221
v 0.193641973 -0.246710986 0.161074221
v 0.239349572 -0.100187808 -0.019868169
v 0.185345961 0.228873312 -0.0539553463
v 0.0719079727 0.0709538087 -0.0492973626
v 0.24456316 0.0548769608 -0.0989757329
v 0.154745174 0.230205774 -0.0470037274
v 0.318825973 -0.150195435 -0.107476927
v 0.144068835 -0.428623766 -0.224933535
v 0.228899164 -0.227725342 -0.0342717469
v 0.24508716 -0.0991221741 -0.0169053376
v 0.257741971 0.0696945712 -0.108496167
v 0.317662788 -0.00591291487 -0.142754152
v -1.34465089e-08 -0.0891694427 0.0430342332
v -1.34465089e-08 0.079736568 -0.027410537
v -1.34465089e-08 0.0869785771 -0.108335331
v 0.262770368 0.068663083 -0.161925346
v -1.34465089e-08 -0.322201759 -0.0291877575
v -1.34465089e-08 -0.453861713 -0.164439753
v 0.262770368 0.068663083 -0.161925346
v -1.34465089e-08 0.0869785771 -0.108335331
v -1.34465089e-08 -0.166243017 -0.357811749
v 0.317662788 -0.00591291487 -0.142754152
v 0.144068835 -0.428623766 -0.224933535
v -1.34465089e-08 -0.453861713 -0.164439753
v 0.318825973 -0.150195435 -0.107476927
v -0.318826007 -0.150195435 -0.107476927
v -0.228899198 -0.227725342 -0.0342717469
v -0.144068869 -0.428623766 -0.224933535
v -0.245087193 -0.0991221741 -0.0169053376
v -0.257742005 0.0696945712 -0.108496167
v -0.317662822 -0.00591291487 -0.142754152
v -1.34465089e-08 -0.0891694427 0.0430342332
v -1.34465089e-08 0.079736568 -0.027410537
v -1.34465089e-08 0.0869785771 -0.108335331
v -0.262770401 0.068663083 -0.161925346
v -1.34465089e-08 -0.322201759 -0.0291877575
v -1.34465089e-08 -0.453861713 -0.164439753
v -0.262770401 0.068663083 -0.161925346
v -1.34465089e-08 -0.166243017 -0.357811749
v -1.34465089e-08 0.0869785771 -0.108335331
v -0.317662822 -0.00591291487 -0.142754152
v -0.144068869 -0.428623766 -0.224933535
v -1.34465089e-08 -0.453861713 -0.164439753
v -0.318826007 -0.150195435 -0.107476927
v -0.278651999 -0.101774633 0.134557009
v -0.239349606 -0.100187808 -0.019868169
v -0.285922783 -0.00244706869 0.104918636
v -0.193642007 -0.246710986 0.161074221
v -0.21318041 -0.0844782218 0.198314607
v -0.214363607 0.0153673664 0.170207471
v -0.193642007 -0.246710986 0.161074221
v -0.125630798 -0.0884317756 0.173508644
v -0.121228011 0.0118881762 0.146805435
v -0.089766415 -0.0871445984 0.0182114244
v -0.193642007 -0.246710986 0.161074221
v -0.0719080066 0.0709538087 -0.0492973626
v -0.138066011 0.17989108 0.04470025
v -0.24066961 0.170944661 0.0185802579
v -0.185345994 0.228873312 -0.0539553463
v -0.244563194 0.0548769608 -0.0989757329
v -0.154745208 0.230205774 -0.0470037274
v -0.193642007 -0.246710986 0.161074221
v -0.239349606 -0.100187808 -0.019868169
v -0.193642007 -0.246710986 0.161074221
v -0.185345994 0.228873312 -0.0539553463
v -0.0719080066 0.0709538087 -0.0492973626
v -0.154745208 0.230205774 -0.0470037274
v -0.244563194 0.0548769608 -0.0989757329
vt 0.79865098 0.224788994
vt 0.812686026 0.346610993
vt 0.993651986 0.233116999
vt 0.69836998 0.0105640003
vt 0.697804987 0.223055005
vt 0.699451029 0.340929002
vt 0.69836998 0.0105640003
vt 0.599622011 0.229301006
vt 0.58899498 0.351366997
vt 0.409842014 0.238520995
vt 0.69836998 0.0105640003
vt 0.413816005 0.537927985
vt 0.631307006 0.590471029
vt 0.765291989 0.590471029
vt 0.713469028 0.708491027
vt 0.986204028 0.534856975
vt 0.673879981 0.708370984
vt 0.69836998 0.0105640003
vt 0.69836998 0.0105640003
vt 0.364012986 0.0269220006
vt 0.553080976 0.769389987
vt 0.435885012 0.971607029
vt 0.639156997 0.971607029
vt 0.513490975 0.76926899
vt 0.398573995 0.606036007
vt 0.309298009 0.229486004
vt 0.262430996 0.509450972
vt 0.28857699 0.665069997
vt 0.342186987 0.884424984
vt 0.441623002 0.817206025
vt 0.00632099994 0.680903018
vt 0.00632099994 0.903369009
vt 0.00632099994 0.995487988
vt 0.380383015 0.934333026
vt 0.00632099994 0.400180012
vt 0.00632200018 0.20544
vt 0.97696197 0.915126979
vt 0.993214011 0.721383989
vt 0.84067601 0.666494012
vt 0.929720998 0.967984974
vt 0.679607987 0.922272027
vt 0.674700975 0.755277991
vt 0.840260983 0.997895002
vt 0.398573995 0.606036007
vt 0.262430996 0.509450972
vt 0.309298009 0.229486004
vt 0.28857699 0.665069997
vt 0.342186987 0.884424984
vt 0.441623002 0.817206025
vt 0.00632099994 0.680903018
vt 0.00632099994 0.903369009
vt 0.00632099994 0.995487988
vt 0.380383015 0.934333026
vt 0.00632099994 0.400180012
vt 0.00632200018 0.20544
vt 0.97696197 0.915126979
vt 0.84067601 0.666494012
vt 0.993214011 0.721383989
vt 0.929720998 0.967984974
vt 0.679607987 0.922272027
vt 0.674700975 0.755277991
vt 0.840260983 0.997895002
vt 0.79865098 0.224788994
vt 0.993651986 0.233116999
vt 0.812686026 0.346610993
vt 0.69836998 0.0105640003
vt 0.697804987 0.223055005
vt 0.699451029 0.340929002
vt 0.69836998 0.0105640003
vt 0.599622011 0.229301006
vt 0.58899498 0.351366997
vt 0.409842014 0.238520995
vt 0.69836998 0.0105640003
vt 0.413816005 0.537927985
vt 0.631307006 0.590471029
vt 0.765291989 0.590471029
vt 0.713469028 0.708491027
vt 0.986204028 0.534856975
vt 0.673879981 0.708370984
vt 0.69836998 0.0105640003
vt 0.364012986 0.0269220006
vt 0.69836998 0.0105640003
vt 0.553080976 0.769389987
vt 0.435885012 0.971607029
vt 0.513490975 0.76926899
vt 0.639156997 0.971607029
vn 0.936732961 -0.322717871 0.135589587
vn 0.988197889 0.114978845 0.101216586
vn 0.925323427 -0.29730595 -0.235341726
vn 0.824657667 -0.523071997 -0.215256634
vn 0.337950607 -0.0110385571 0.941099111
vn 0.196351497 0.500185824 0.843362455
vn 0.64269584 -0.244099799 0.726193738
vn -0.757318104 -0.133338856 0.639288698
vn -0.840380513 0.228578111 0.491439356
vn -0.897854547 -0.433185877 -0.0787858368
vn -0.893738115 -0.399985904 0.203084855
vn -0.945667294 0.217646832 0.241543426
vn -0.465025081 0.642567707 0.608981457
vn 0.793945114 0.544716749 0.270064473
vn 0.696910853 0.716452705 0.0317928265
vn 0.966622365 0.107769876 -0.232436782
vn -0.79765079 0.578050437 0.172078208
vn -0.260047465 -0.186174069 0.947477985
vn -0.228127635 -0.7276711 -0.646879087
vn -0.228127635 -0.7276711 -0.646879087
vn -0.252982595 0.153549705 -0.955207985
vn -0.252982595 0.153549705 -0.955207985
vn -0.259394597 0.158228969 -0.952721385
vn -0.214571478 0.12556281 -0.968603666
vn 0.821022551 -0.222010463 0.525959433
vn 0.476175617 -0.690915304 0.543960315
vn 0.39988181 -0.491299615 0.773769492
vn 0.447539978 0.175435786 0.876886682
vn 0.394670855 0.56710246 0.722931336
vn 0.748863407 0.334182728 0.572298438
vn 0.233015824 0.102854903 0.967018353
vn 0.25525191 0.630158404 0.733312245
vn 0.0668602669 0.996579514 0.0485692955
vn 0.281453709 0.959541758 0.00796390603
vn 0.271319175 -0.56558747 0.778778993
vn 0.385989021 -0.661027153 0.643471506
vn 0.0825872471 0.582138782 -0.808884284
vn -0.0959172219 0.698583384 -0.709070618
vn 0.28954305 0.123714398 -0.949136223
vn 0.599850158 -0.0560029104 -0.798150025
vn 0.456658892 -0.223979161 -0.860985477
vn -0.243193933 -0.541193591 -0.804963482
vn 0.714127719 -0.160819392 -0.681291952
vn -0.821022551 -0.222010463 0.525959433
vn -0.399881801 -0.491299614 0.773769497
vn -0.476175606 -0.690915306 0.543960322
vn -0.44753997 0.175435787 0.876886686
vn -0.394670848 0.567102463 0.722931337
vn -0.748863407 0.334182728 0.572298438
vn -0.233015818 0.102854904 0.967018354
vn -0.255251904 0.630158405 0.733312246
vn -0.0668602651 0.996579514 0.0485692955
vn -0.281453703 0.95954176 0.00796390546
vn -0.271319166 -0.565587471 0.778778995
vn -0.385989005 -0.661027157 0.643471511
vn -0.0825872452 0.582138782 -0.808884285
vn -0.289543042 0.123714397 -0.949136226
vn 0.0959172194 0.698583384 -0.709070619
vn -0.59985015 -0.0560029075 -0.798150031
vn -0.456658882 -0.22397916 -0.860985483
vn 0.243193922 -0.541193593 -0.804963484
vn -0.714127719 -0.160819392 -0.681291952
vn -0.936732961 -0.322717871 0.135589587
vn -0.925323427 -0.29730595 -0.235341726
vn -0.988197889 0.114978845 0.101216586
vn -0.824657667 -0.523071997 -0.215256634
vn -0.337950607 -0.0110385571 0.941099111
vn -0.196351497 0.500185824 0.843362455
vn -0.64269584 -0.244099799 0.726193738
vn 0.757318104 -0.133338856 0.639288698
vn 0.840380513 0.228578111 0.491439356
vn 0.897854547 -0.433185877 -0.0787858368
vn 0.893738115 -0.399985904 0.203084855
vn 0.945667294 0.217646832 0.241543426
vn 0.465025081 0.642567707 0.608981457
vn -0.793945114 0.544716749 0.270064473
vn -0.696910853 0.716452705 0.0317928265
vn -0.966622365 0.107769876 -0.232436782
vn 0.79765079 0.578050437 0.172078208
vn 0.260047465 -0.186174069 0.947477985
vn 0.228127635 -0.7276711 -0.646879087
vn 0.228127635 -0.7276711 -0.646879087
vn 0.252982595 0.153549705 -0.955207985
vn 0.252982595 0.153549705 -0.955207985
vn 0.214571478 0.12556281 -0.968603666
vn 0.259394597 0.158228969 -0.952721385

g ArmorBag_03_00_Bag_submesh_0
usemtl 04
f 1/1/1 3/3/3 2/2/2
f 3/3/3 1/1/1 4/4/4
f 5/5/5 1/1/1 2/2/2
f 5/5/5 2/2/2 6/6/6
f 1/1/1 5/5/5 7/7/7
f 8/8/8 5/5/5 6/6/6
f 8/8/8 6/6/6 9/9/9
f 10/10/10 8/8/8 9/9/9
f 8/8/8 10/10/10 11/11/11
f 10/10/10 9/9/9 12/12/12
f 9/9/9 6/6/6 13/13/13
f 12/12/12 9/9/9 13/13/13
f 6/6/6 14/14/14 13/13/13
f 6/6/6 2/2/2 14/14/14
f 15/15/15 13/13/13 14/14/14
f 14/14/14 16/16/16 15/15/15
f 2/2/2 16/16/16 14/14/14
f 2/2/2 3/3/3 16/16/16
f 15/15/15 17/17/17 13/13/13
f 12/12/12 13/13/13 17/17/17
f 18/18/18 5/5/5 8/8/8
f 10/10/10 20/20/20 19/19/19
f 21/21/21 23/23/23 22/22/22
f 21/21/21 22/22/22 24/24/24
f 25/25/25 27/27/27 26/26/26
f 25/25/25 28/28/28 27/27/27
f 25/25/25 29/29/29 28/28/28
f 25/25/25 30/30/30 29/29/29
f 31/31/31 28/28/28 29/29/29
f 27/27/27 28/28/28 31/31/31
f 31/31/31 29/29/29 32/32/32
f 33/33/33 32/32/32 29/29/29
f 33/33/33 29/29/29 34/34/34
f 30/30/30 34/34/34 29/29/29
f 35/35/35 27/27/27 31/31/31
f 26/26/26 27/27/27 35/35/35
f 36/36/36 26/26/26 35/35/35
f 37/37/37 39/39/39 38/38/38
f 40/40/40 39/39/39 37/37/37
f 39/39/39 40/40/40 41/41/41
f 39/39/39 41/41/41 42/42/42
f 41/41/41 40/40/40 43/43/43
f 44/44/44 46/46/46 45/45/45
f 44/44/44 45/45/45 47/47/47
f 44/44/44 47/47/47 48/48/48
f 44/44/44 48/48/48 49/49/49
f 50/50/50 48/48/48 47/47/47
f 45/45/45 50/50/50 47/47/47
f 50/50/50 51/51/51 48/48/48
f 52/52/52 48/48/48 51/51/51
f 52/52/52 53/53/53 48/48/48
f 49/49/49 48/48/48 53/53/53
f 54/54/54 50/50/50 45/45/45
f 46/46/46 54/54/54 45/45/45
f 55/55/55 54/54/54 46/46/46
f 56/56/56 58/58/58 57/57/57
f 59/59/59 56/56/56 57/57/57
f 57/57/57 60/60/60 59/59/59
f 57/57/57 61/61/61 60/60/60
f 60/60/60 62/62/62 59/59/59
f 63/63/63 65/65/65 64/64/64
f 64/64/64 66/66/66 63/63/63
f 67/67/67 65/65/65 63/63/63
f 67/67/67 68/68/68 65/65/65
f 63/63/63 69/69/69 67/67/67
f 70/70/70 68/68/68 67/67/67
f 70/70/70 71/71/71 68/68/68
f 72/72/72 71/71/71 70/70/70
f 70/70/70 73/73/73 72/72/72
f 72/72/72 74/74/74 71/71/71
f 71/71/71 75/75/75 68/68/68
f 74/74/74 75/75/75 71/71/71
f 68/68/68 75/75/75 76/76/76
f 68/68/68 76/76/76 65/65/65
f 77/77/77 76/76/76 75/75/75
f 76/76/76 77/77/77 78/78/78
f 65/65/65 76/76/76 78/78/78
f 65/65/65 78/78/78 64/64/64
f 77/77/77 75/75/75 79/79/79
f 74/74/74 79/79/79 75/75/75
f 80/80/80 70/70/70 67/67/67
f 72/72/72 82/82/82 81/81/81
f 83/83/83 85/85/85 84/84/84
f 83/83/83 84/84/84 86/86/86
