# Generated from legacy Unity YAML Mesh assets without Unity.
mtllib collision.mtl

o collision_ground_1
v 25 -8.8817842e-15 42.5
v -22.9467888 -8.38218384e-15 40.2610245
v 22.789917 -8.38218384e-15 40.2610245
v -25 -8.8817842e-15 42.5
v 18.8295441 -1 -38.4528808
v -20.8931503 9.1038288e-15 -38.4528808
v -19.260643 -1 -38.4528808
v 20.5796661 9.1038288e-15 -38.4528808
v 20.5796661 9.1038288e-15 -38.4528808
v -20.8931503 9.1038288e-15 -38.4528808
vt 79.4668427 46.7456284
vt 77.373642 1.92053711
vt 77.373642 44.6794777
vt 79.4668427 0.00100401521
vt 35.7042542 -0.0134749562
vt -1.51310372 -0.953758597
vt 0.0164459869 -0.0134749562
vt 37.3440018 -0.953758597
vt 3.78462315 42.6130867
vt 3.78462315 3.84046626
vn 0 1 2.22044605e-16
vn 0 1 2.22044605e-16
vn 0 1 2.22044605e-16
vn 0 1 2.22044605e-16
vn 0 2.22044605e-16 -1
vn 0 2.22044605e-16 -1
vn 0 2.22044605e-16 -1
vn 0 2.22044605e-16 -1
vn 0 1 2.22044605e-16
vn 0 1 2.22044605e-16

g collision_ground_1_submesh_0
usemtl collision
f 1/1/1 3/3/3 2/2/2
f 1/1/1 2/2/2 4/4/4
f 5/5/5 7/7/7 6/6/6
f 5/5/5 6/6/6 8/8/8

g collision_ground_1_submesh_1
usemtl collision
f 9/9/9 10/10/10 2/2/2
f 9/9/9 2/2/2 3/3/3

o collision_ground_3
v 22.7898331 9.43689571e-15 -42.5
v 20.5796661 8.53825474e-15 -38.4528809
v 20.5796661 9.43689571e-15 -42.5
v 22.789917 -8.93974327e-15 40.2610245
v 21.7620831 -10.7595215 -22.3162842
v 21.6074543 -10.7595215 -22.0331402
v 21.6074543 -10.7595215 -22.3162842
v 21.7620888 -10.7595215 -16.5261459
v 25 -9.43689571e-15 42.5
v 25 9.43689571e-15 -42.5
vt 0.00100221334 44.6793594
vt 3.78462315 42.6130867
vt 0.00100221334 42.6130867
vt 77.373642 44.6794777
vt 0.00100221334 44.6793594
vt 3.78462315 42.6130867
vt 0.00100221334 42.6130867
vt 77.373642 44.6794777
vt 79.4668427 46.7456284
vt 0.00100221334 46.7456284
vn 0 1 2.22044605e-16
vn 0 1 2.22044605e-16
vn 0 1 2.22044605e-16
vn 0 1 2.22044605e-16
vn 0 1 2.22044605e-16
vn 0 1 2.22044605e-16
vn 0 1 2.22044605e-16
vn 0 1 2.22044605e-16
vn 0 1 2.22044605e-16
vn 0 1 2.22044605e-16

g collision_ground_3_submesh_0
usemtl collision_2
f 11/11/11 13/13/13 12/12/12
f 11/11/11 12/12/12 14/14/14
f 15/15/15 17/17/17 16/16/16
f 15/15/15 16/16/16 18/18/18

g collision_ground_3_submesh_1
usemtl collision_2
f 19/19/19 20/20/20 11/11/11
f 19/19/19 11/11/11 14/14/14

o collision_ground_2
v -22.9465752 9.43689571e-15 -42.5
v -25 -9.43689571e-15 42.5
v -25 9.43689571e-15 -42.5
v -22.9467888 -8.93974327e-15 40.2610245
v -20.8931503 8.53825474e-15 -38.4528809
v -20.8931503 9.43689571e-15 -42.5
v -21.8503895 -8.70349121 -21.9934864
v -21.989439 -8.70349121 -22.2675419
v -21.8503895 -8.70349121 -22.2675419
v -21.9894543 -8.70349121 -16.6632843
vt 0.00100221334 1.92073512
vt 79.4668427 0.00100401521
vt 0.00100221334 0.00100401521
vt 77.373642 1.92053711
vt 3.78462315 3.84046626
vt 0.00100221334 3.84046626
vt 3.78462315 3.84046626
vt 0.00100221334 1.92073512
vt 0.00100221334 3.84046626
vt 77.373642 1.92053711
vn 0 1 2.22044605e-16
vn 0 1 2.22044605e-16
vn 0 1 2.22044605e-16
vn 0 1 2.22044605e-16
vn 0 1 2.22044605e-16
vn 0 1 2.22044605e-16
vn 0 1 2.22044605e-16
vn 0 1 2.22044605e-16
vn 0 1 2.22044605e-16
vn 0 1 2.22044605e-16

g collision_ground_2_submesh_0
usemtl collision_3
f 21/21/21 23/23/23 22/22/22
f 21/21/21 22/22/22 24/24/24

g collision_ground_2_submesh_1
usemtl collision_3
f 25/25/25 26/26/26 21/21/21
f 25/25/25 21/21/21 24/24/24
f 27/27/27 29/29/29 28/28/28
f 27/27/27 28/28/28 30/30/30
