{"asset":{"version":"2.0","generator":"Star Warfare Unity lightmap restoration"},"scene":0,"scenes":[{"nodes":[0]}],"nodes":[{"name":"RestoredStage","mesh":0}],"meshes":[{"name":"RestoredStage","primitives":[{"attributes":{"POSITION":0,"NORMAL":1,"TEXCOORD_0":2,"TEXCOORD_1":3},"indices":4,"material":0},{"attributes":{"POSITION":5,"NORMAL":6,"TEXCOORD_0":7,"TEXCOORD_1":8},"indices":9,"material":1},{"attributes":{"POSITION":10,"NORMAL":11,"TEXCOORD_0":12,"TEXCOORD_1":13},"indices":14,"material":2},{"attributes":{"POSITION":15,"NORMAL":16,"TEXCOORD_0":17,"TEXCOORD_1":18},"indices":19,"material":3},{"attributes":{"POSITION":20,"NORMAL":21,"TEXCOORD_0":22,"TEXCOORD_1":23},"indices":24,"material":4},{"attributes":{"POSITION":25,"NORMAL":26,"TEXCOORD_0":27,"TEXCOORD_1":28},"indices":29,"material":5},{"attributes":{"POSITION":30,"NORMAL":31,"TEXCOORD_0":32,"TEXCOORD_1":33},"indices":34,"material":6},{"attributes":{"POSITION":35,"NORMAL":36,"TEXCOORD_0":37,"TEXCOORD_1":38},"indices":39,"material":7},{"attributes":{"POSITION":40,"NORMAL":41,"TEXCOORD_0":42,"TEXCOORD_1":43},"indices":44,"material":8},{"attributes":{"POSITION":45,"NORMAL":46,"TEXCOORD_0":47,"TEXCOORD_1":48},"indices":49,"material":9},{"attributes":{"POSITION":50,"NORMAL":51,"TEXCOORD_0":52,"TEXCOORD_1":53},"indices":54,"material":10},{"attributes":{"POSITION":55,"NORMAL":56,"TEXCOORD_0":57,"TEXCOORD_1":58},"indices":59,"material":11},{"attributes":{"POSITION":60,"NORMAL":61,"TEXCOORD_0":62,"TEXCOORD_1":63},"indices":64,"material":12},{"attributes":{"POSITION":65,"NORMAL":66,"TEXCOORD_0":67,"TEXCOORD_1":68},"indices":69,"material":13},{"attributes":{"POSITION":70,"NORMAL":71,"TEXCOORD_0":72,"TEXCOORD_1":73},"indices":74,"material":14},{"attributes":{"POSITION":75,"NORMAL":76,"TEXCOORD_0":77,"TEXCOORD_1":78},"indices":79,"material":15},{"attributes":{"POSITION":80,"NORMAL":81,"TEXCOORD_0":82,"TEXCOORD_1":83},"indices":84,"material":16},{"attributes":{"POSITION":85,"NORMAL":86,"TEXCOORD_0":87,"TEXCOORD_1":88},"indices":89,"material":17}]}],"bufferViews":[{"buffer":0,"byteOffset":0,"byteLength":1800},{"buffer":0,"byteOffset":1800,"byteLength":1800},{"buffer":0,"byteOffset":3600,"byteLength":1200},{"buffer":0,"byteOffset":4800,"byteLength":1200},{"buffer":0,"byteOffset":6000,"byteLength":2880},{"buffer":0,"byteOffset":8880,"byteLength":5244},{"buffer":0,"byteOffset":14124,"byteLength":5244},{"buffer":0,"byteOffset":19368,"byteLength":3496},{"buffer":0,"byteOffset":22864,"byteLength":3496},{"buffer":0,"byteOffset":26360,"byteLength":2628},{"buffer":0,"byteOffset":28988,"byteLength":192},{"buffer":0,"byteOffset":29180,"byteLength":192},{"buffer":0,"byteOffset":29372,"byteLength":128},{"buffer":0,"byteOffset":29500,"byteLength":128},{"buffer":0,"byteOffset":29628,"byteLength":96},{"buffer":0,"byteOffset":29724,"byteLength":240},{"buffer":0,"byteOffset":29964,"byteLength":240},{"buffer":0,"byteOffset":30204,"byteLength":160},{"buffer":0,"byteOffset":30364,"byteLength":160},{"buffer":0,"byteOffset":30524,"byteLength":120},{"buffer":0,"byteOffset":30644,"byteLength":4056},{"buffer":0,"byteOffset":34700,"byteLength":4056},{"buffer":0,"byteOffset":38756,"byteLength":2704},{"buffer":0,"byteOffset":41460,"byteLength":2704},{"buffer":0,"byteOffset":44164,"byteLength":2040},{"buffer":0,"byteOffset":46204,"byteLength":432},{"buffer":0,"byteOffset":46636,"byteLength":432},{"buffer":0,"byteOffset":47068,"byteLength":288},{"buffer":0,"byteOffset":47356,"byteLength":288},{"buffer":0,"byteOffset":47644,"byteLength":192},{"buffer":0,"byteOffset":47836,"byteLength":5760},{"buffer":0,"byteOffset":53596,"byteLength":5760},{"buffer":0,"byteOffset":59356,"byteLength":3840},{"buffer":0,"byteOffset":63196,"byteLength":3840},{"buffer":0,"byteOffset":67036,"byteLength":2928},{"buffer":0,"byteOffset":69964,"byteLength":5460},{"buffer":0,"byteOffset":75424,"byteLength":5460},{"buffer":0,"byteOffset":80884,"byteLength":3640},{"buffer":0,"byteOffset":84524,"byteLength":3640},{"buffer":0,"byteOffset":88164,"byteLength":2748},{"buffer":0,"byteOffset":90912,"byteLength":192},{"buffer":0,"byteOffset":91104,"byteLength":192},{"buffer":0,"byteOffset":91296,"byteLength":128},{"buffer":0,"byteOffset":91424,"byteLength":128},{"buffer":0,"byteOffset":91552,"byteLength":96},{"buffer":0,"byteOffset":91648,"byteLength":1260},{"buffer":0,"byteOffset":92908,"byteLength":1260},{"buffer":0,"byteOffset":94168,"byteLength":840},{"buffer":0,"byteOffset":95008,"byteLength":840},{"buffer":0,"byteOffset":95848,"byteLength":660},{"buffer":0,"byteOffset":96508,"byteLength":2040},{"buffer":0,"byteOffset":98548,"byteLength":2040},{"buffer":0,"byteOffset":100588,"byteLength":1360},{"buffer":0,"byteOffset":101948,"byteLength":1360},{"buffer":0,"byteOffset":103308,"byteLength":1008},{"buffer":0,"byteOffset":104316,"byteLength":2712},{"buffer":0,"byteOffset":107028,"byteLength":2712},{"buffer":0,"byteOffset":109740,"byteLength":1808},{"buffer":0,"byteOffset":111548,"byteLength":1808},{"buffer":0,"byteOffset":113356,"byteLength":1320},{"buffer":0,"byteOffset":114676,"byteLength":1152},{"buffer":0,"byteOffset":115828,"byteLength":1152},{"buffer":0,"byteOffset":116980,"byteLength":768},{"buffer":0,"byteOffset":117748,"byteLength":768},{"buffer":0,"byteOffset":118516,"byteLength":576},{"buffer":0,"byteOffset":119092,"byteLength":336},{"buffer":0,"byteOffset":119428,"byteLength":336},{"buffer":0,"byteOffset":119764,"byteLength":224},{"buffer":0,"byteOffset":119988,"byteLength":224},{"buffer":0,"byteOffset":120212,"byteLength":168},{"buffer":0,"byteOffset":120380,"byteLength":192},{"buffer":0,"byteOffset":120572,"byteLength":192},{"buffer":0,"byteOffset":120764,"byteLength":128},{"buffer":0,"byteOffset":120892,"byteLength":128},{"buffer":0,"byteOffset":121020,"byteLength":96},{"buffer":0,"byteOffset":121116,"byteLength":3960},{"buffer":0,"byteOffset":125076,"byteLength":3960},{"buffer":0,"byteOffset":129036,"byteLength":2640},{"buffer":0,"byteOffset":131676,"byteLength":2640},{"buffer":0,"byteOffset":134316,"byteLength":1704},{"buffer":0,"byteOffset":136020,"byteLength":264},{"buffer":0,"byteOffset":136284,"byteLength":264},{"buffer":0,"byteOffset":136548,"byteLength":176},{"buffer":0,"byteOffset":136724,"byteLength":176},{"buffer":0,"byteOffset":136900,"byteLength":192},{"buffer":0,"byteOffset":137092,"byteLength":4608},{"buffer":0,"byteOffset":141700,"byteLength":4608},{"buffer":0,"byteOffset":146308,"byteLength":3072},{"buffer":0,"byteOffset":149380,"byteLength":3072},{"buffer":0,"byteOffset":152452,"byteLength":2304}],"accessors":[{"bufferView":0,"componentType":5126,"count":150,"type":"VEC3","min":[-150.741634,-0.548037453,-132.961191],"max":[120.84161,93.1321135,138.622042]},{"bufferView":1,"componentType":5126,"count":150,"type":"VEC3","min":[-0.982558929,-0.958756138,-0.975291613],"max":[0.982558905,-0.179776822,0.982559027]},{"bufferView":2,"componentType":5126,"count":150,"type":"VEC2"},{"bufferView":3,"componentType":5126,"count":150,"type":"VEC2"},{"bufferView":4,"componentType":5125,"count":720,"type":"SCALAR"},{"bufferView":5,"componentType":5126,"count":437,"type":"VEC3","min":[-25.0,-5.23974657,-42.5295372],"max":[25.0,28.2720318,42.5000038]},{"bufferView":6,"componentType":5126,"count":437,"type":"VEC3","min":[-1.0,-1.0,-1.0],"max":[1.0,1.0,1.0]},{"bufferView":7,"componentType":5126,"count":437,"type":"VEC2"},{"bufferView":8,"componentType":5126,"count":437,"type":"VEC2"},{"bufferView":9,"componentType":5125,"count":657,"type":"SCALAR"},{"bufferView":10,"componentType":5126,"count":16,"type":"VEC3","min":[-24.3328533,-9.56399276e-07,-19.4541016],"max":[24.5453262,5.15965605,41.633358]},{"bufferView":11,"componentType":5126,"count":16,"type":"VEC3","min":[-1.0,0.0,0.0],"max":[1.0,0.0,1.0]},{"bufferView":12,"componentType":5126,"count":16,"type":"VEC2"},{"bufferView":13,"componentType":5126,"count":16,"type":"VEC2"},{"bufferView":14,"componentType":5125,"count":24,"type":"SCALAR"},{"bufferView":15,"componentType":5126,"count":20,"type":"VEC3","min":[-22.9467888,-10.7595205,-42.5000038],"max":[22.789917,5.06639481e-06,40.2610283]},{"bufferView":16,"componentType":5126,"count":20,"type":"VEC3","min":[0.0,1.0,1.1920929e-07],"max":[0.0,1.0,1.1920929e-07]},{"bufferView":17,"componentType":5126,"count":20,"type":"VEC2"},{"bufferView":18,"componentType":5126,"count":20,"type":"VEC2"},{"bufferView":19,"componentType":5125,"count":30,"type":"SCALAR"},{"bufferView":20,"componentType":5126,"count":338,"type":"VEC3","min":[-26.367918,-9.39544407e-07,-19.4801159],"max":[16.319767,7.99401665,42.1634483]},{"bufferView":21,"componentType":5126,"count":338,"type":"VEC3","min":[-1.0,-1.0,-1.0],"max":[1.0,1.0,1.0]},{"bufferView":22,"componentType":5126,"count":338,"type":"VEC2"},{"bufferView":23,"componentType":5126,"count":338,"type":"VEC2"},{"bufferView":24,"componentType":5125,"count":510,"type":"SCALAR"},{"bufferView":25,"componentType":5126,"count":36,"type":"VEC3","min":[-24.8051376,0.567992508,-35.8321037],"max":[21.7641048,27.8360176,42.1634483]},{"bufferView":26,"componentType":5126,"count":36,"type":"VEC3","min":[-1.0,-1.0,-1.0],"max":[1.0,1.1920929e-07,1.0]},{"bufferView":27,"componentType":5126,"count":36,"type":"VEC2"},{"bufferView":28,"componentType":5126,"count":36,"type":"VEC2"},{"bufferView":29,"componentType":5125,"count":48,"type":"SCALAR"},{"bufferView":30,"componentType":5126,"count":480,"type":"VEC3","min":[-19.9497833,-2.59404374e-06,-28.1824532],"max":[24.4693317,26.3755379,15.7452774]},{"bufferView":31,"componentType":5126,"count":480,"type":"VEC3","min":[-1.0,-1.1920929e-07,-1.0],"max":[1.0,1.0,1.0]},{"bufferView":32,"componentType":5126,"count":480,"type":"VEC2"},{"bufferView":33,"componentType":5126,"count":480,"type":"VEC2"},{"bufferView":34,"componentType":5125,"count":732,"type":"SCALAR"},{"bufferView":35,"componentType":5126,"count":455,"type":"VEC3","min":[-21.1666603,-1.0,-50.0754128],"max":[20.7028179,26.5336895,42.2923622]},{"bufferView":36,"componentType":5126,"count":455,"type":"VEC3","min":[-1.0,-1.0,-1.0],"max":[1.0,1.0,1.0]},{"bufferView":37,"componentType":5126,"count":455,"type":"VEC2"},{"bufferView":38,"componentType":5126,"count":455,"type":"VEC2"},{"bufferView":39,"componentType":5125,"count":687,"type":"SCALAR"},{"bufferView":40,"componentType":5126,"count":16,"type":"VEC3","min":[-18.4888573,2.39163518,-28.7652931],"max":[-4.71547413,26.3755379,-19.4540997]},{"bufferView":41,"componentType":5126,"count":16,"type":"VEC3","min":[-1.0,0.0,-1.0],"max":[0.0,1.1920929e-07,1.0]},{"bufferView":42,"componentType":5126,"count":16,"type":"VEC2"},{"bufferView":43,"componentType":5126,"count":16,"type":"VEC2"},{"bufferView":44,"componentType":5125,"count":24,"type":"SCALAR"},{"bufferView":45,"componentType":5126,"count":105,"type":"VEC3","min":[-24.866272,5.1596489,-42.6107368],"max":[40.9708595,27.8360176,42.2857666]},{"bufferView":46,"componentType":5126,"count":105,"type":"VEC3","min":[-1.0,-0.698259795,-1.0],"max":[1.0,0.0,1.0]},{"bufferView":47,"componentType":5126,"count":105,"type":"VEC2"},{"bufferView":48,"componentType":5126,"count":105,"type":"VEC2"},{"bufferView":49,"componentType":5125,"count":165,"type":"SCALAR"},{"bufferView":50,"componentType":5126,"count":170,"type":"VEC3","min":[-20.8931503,-1.81176519,-42.5],"max":[23.7326641,24.2751503,36.2134209]},{"bufferView":51,"componentType":5126,"count":170,"type":"VEC3","min":[-1.0,-1.0,-1.0],"max":[1.0,1.0,1.0]},{"bufferView":52,"componentType":5126,"count":170,"type":"VEC2"},{"bufferView":53,"componentType":5126,"count":170,"type":"VEC2"},{"bufferView":54,"componentType":5125,"count":252,"type":"SCALAR"},{"bufferView":55,"componentType":5126,"count":226,"type":"VEC3","min":[-12.7031631,-3.051043e-06,-28.6122761],"max":[24.8125706,24.2751503,36.2134209]},{"bufferView":56,"componentType":5126,"count":226,"type":"VEC3","min":[-0.669261497,-0.999998447,-1.0],"max":[1.0,1.0,1.0]},{"bufferView":57,"componentType":5126,"count":226,"type":"VEC2"},{"bufferView":58,"componentType":5126,"count":226,"type":"VEC2"},{"bufferView":59,"componentType":5125,"count":330,"type":"SCALAR"},{"bufferView":60,"componentType":5126,"count":96,"type":"VEC3","min":[-24.8413677,-2.19766846e-07,-41.2255402],"max":[24.7613449,15.3627596,-30.0735207]},{"bufferView":61,"componentType":5126,"count":96,"type":"VEC3","min":[-1.0,-1.0,-1.0],"max":[1.0,1.0,1.0]},{"bufferView":62,"componentType":5126,"count":96,"type":"VEC2"},{"bufferView":63,"componentType":5126,"count":96,"type":"VEC2"},{"bufferView":64,"componentType":5125,"count":144,"type":"SCALAR"},{"bufferView":65,"componentType":5126,"count":28,"type":"VEC3","min":[-24.618742,11.6502056,-39.8801804],"max":[21.7640934,27.5503731,35.0976753]},{"bufferView":66,"componentType":5126,"count":28,"type":"VEC3","min":[0.0,-1.0,-1.1920929e-07],"max":[0.0,-1.0,3.57627869e-07]},{"bufferView":67,"componentType":5126,"count":28,"type":"VEC2"},{"bufferView":68,"componentType":5126,"count":28,"type":"VEC2"},{"bufferView":69,"componentType":5125,"count":42,"type":"SCALAR"},{"bufferView":70,"componentType":5126,"count":16,"type":"VEC3","min":[-23.3899059,-0.999999464,-42.5],"max":[20.5796661,5.00000191,41.4864731]},{"bufferView":71,"componentType":5126,"count":16,"type":"VEC3","min":[-0.496138938,0.742102643,-0.670286258],"max":[0.537223062,0.868243142,5.96261646e-08]},{"bufferView":72,"componentType":5126,"count":16,"type":"VEC2"},{"bufferView":73,"componentType":5126,"count":16,"type":"VEC2"},{"bufferView":74,"componentType":5125,"count":24,"type":"SCALAR"},{"bufferView":75,"componentType":5126,"count":330,"type":"VEC3","min":[-38.8814316,-0.443939209,-42.5],"max":[25.0000267,5.15965891,51.4901695]},{"bufferView":76,"componentType":5126,"count":330,"type":"VEC3","min":[-1.0,-0.162180538,-1.0],"max":[1.0,0.512771116,1.0]},{"bufferView":77,"componentType":5126,"count":330,"type":"VEC2"},{"bufferView":78,"componentType":5126,"count":330,"type":"VEC2"},{"bufferView":79,"componentType":5125,"count":426,"type":"SCALAR"},{"bufferView":80,"componentType":5126,"count":22,"type":"VEC3","min":[-24.5662613,21.0315247,-42.4306488],"max":[12.409029,27.8360176,41.9857597]},{"bufferView":81,"componentType":5126,"count":22,"type":"VEC3","min":[0.0,-0.693544959,-0.723044916],"max":[0.928375616,-0.371643263,0.725179214]},{"bufferView":82,"componentType":5126,"count":22,"type":"VEC2"},{"bufferView":83,"componentType":5126,"count":22,"type":"VEC2"},{"bufferView":84,"componentType":5125,"count":48,"type":"SCALAR"},{"bufferView":85,"componentType":5126,"count":384,"type":"VEC3","min":[-21.1666603,-0.0319831297,-38.1626968],"max":[20.7028179,6.9914546,42.2923622]},{"bufferView":86,"componentType":5126,"count":384,"type":"VEC3","min":[-1.0,-1.1920929e-07,-1.0],"max":[1.0,1.0,1.0]},{"bufferView":87,"componentType":5126,"count":384,"type":"VEC2"},{"bufferView":88,"componentType":5126,"count":384,"type":"VEC2"},{"bufferView":89,"componentType":5125,"count":576,"type":"SCALAR"}],"materials":[{"name":"Standard_8","pbrMetallicRoughness":{"baseColorFactor":[1.0,1.0,1.0,1.0],"metallicFactor":0.0,"roughnessFactor":1.0,"baseColorTexture":{"index":0}},"doubleSided":false},{"name":"booox_6","pbrMetallicRoughness":{"baseColorFactor":[1.0,1.0,1.0,1.0],"metallicFactor":0.0,"roughnessFactor":1.0,"baseColorTexture":{"index":1}},"doubleSided":false},{"name":"booox_14","pbrMetallicRoughness":{"baseColorFactor":[1.0,1.0,1.0,1.0],"metallicFactor":0.0,"roughnessFactor":1.0,"baseColorTexture":{"index":2}},"doubleSided":false},{"name":"booox_16","pbrMetallicRoughness":{"baseColorFactor":[1.0,1.0,1.0,1.0],"metallicFactor":0.0,"roughnessFactor":1.0,"baseColorTexture":{"index":3}},"doubleSided":false},{"name":"booox_7","pbrMetallicRoughness":{"baseColorFactor":[1.0,1.0,1.0,1.0],"metallicFactor":0.0,"roughnessFactor":1.0,"baseColorTexture":{"index":4}},"doubleSided":false},{"name":"booox_8","pbrMetallicRoughness":{"baseColorFactor":[1.0,1.0,1.0,1.0],"metallicFactor":0.0,"roughnessFactor":1.0,"baseColorTexture":{"index":5}},"doubleSided":false},{"name":"booox_9","pbrMetallicRoughness":{"baseColorFactor":[1.0,1.0,1.0,1.0],"metallicFactor":0.0,"roughnessFactor":1.0,"baseColorTexture":{"index":6}},"doubleSided":false},{"name":"booox_3","pbrMetallicRoughness":{"baseColorFactor":[1.0,1.0,1.0,1.0],"metallicFactor":0.0,"roughnessFactor":1.0,"baseColorTexture":{"index":7}},"doubleSided":false},{"name":"booox_15","pbrMetallicRoughness":{"baseColorFactor":[1.0,1.0,1.0,1.0],"metallicFactor":0.0,"roughnessFactor":1.0,"baseColorTexture":{"index":8}},"doubleSided":false},{"name":"booox_12","pbrMetallicRoughness":{"baseColorFactor":[1.0,1.0,1.0,1.0],"metallicFactor":0.0,"roughnessFactor":1.0,"baseColorTexture":{"index":9}},"doubleSided":false},{"name":"booox_1","pbrMetallicRoughness":{"baseColorFactor":[1.0,1.0,1.0,1.0],"metallicFactor":0.0,"roughnessFactor":1.0,"baseColorTexture":{"index":10}},"doubleSided":false},{"name":"booox_2","pbrMetallicRoughness":{"baseColorFactor":[1.0,1.0,1.0,1.0],"metallicFactor":0.0,"roughnessFactor":1.0,"baseColorTexture":{"index":11}},"doubleSided":false},{"name":"booox_10","pbrMetallicRoughness":{"baseColorFactor":[1.0,1.0,1.0,1.0],"metallicFactor":0.0,"roughnessFactor":1.0,"baseColorTexture":{"index":12}},"doubleSided":false},{"name":"booox_17","pbrMetallicRoughness":{"baseColorFactor":[1.0,1.0,1.0,1.0],"metallicFactor":0.0,"roughnessFactor":1.0,"baseColorTexture":{"index":13}},"doubleSided":false},{"name":"booox_5","pbrMetallicRoughness":{"baseColorFactor":[1.0,1.0,1.0,1.0],"metallicFactor":0.0,"roughnessFactor":1.0,"baseColorTexture":{"index":14}},"doubleSided":false},{"name":"booox_11","pbrMetallicRoughness":{"baseColorFactor":[1.0,1.0,1.0,1.0],"metallicFactor":0.0,"roughnessFactor":1.0,"baseColorTexture":{"index":15}},"doubleSided":false},{"name":"booox_13","pbrMetallicRoughness":{"baseColorFactor":[0.588,0.588,0.588,1.0],"metallicFactor":0.0,"roughnessFactor":1.0,"baseColorTexture":{"index":16}},"doubleSided":false,"alphaMode":"BLEND"},{"name":"booox_4","pbrMetallicRoughness":{"baseColorFactor":[1.0,1.0,1.0,1.0],"metallicFactor":0.0,"roughnessFactor":1.0,"baseColorTexture":{"index":17}},"doubleSided":false}],"images":[{"uri":"str_skyline.png"},{"uri":"booox_6.png"},{"uri":"booox_14.png"},{"uri":"booox_16.png"},{"uri":"booox_7.png"},{"uri":"booox_8.png"},{"uri":"booox_9.png"},{"uri":"booox_3.png"},{"uri":"booox_15.png"},{"uri":"booox_12.png"},{"uri":"booox_1.png"},{"uri":"booox_2.png"},{"uri":"booox_10.png"},{"uri":"booox_17.png"},{"uri":"booox_5.png"},{"uri":"booox_11.png"},{"uri":"booox_13.png"},{"uri":"booox_4.png"}],"textures":[{"source":0,"sampler":0},{"source":1,"sampler":0},{"source":2,"sampler":0},{"source":3,"sampler":0},{"source":4,"sampler":0},{"source":5,"sampler":0},{"source":6,"sampler":0},{"source":7,"sampler":0},{"source":8,"sampler":0},{"source":9,"sampler":0},{"source":10,"sampler":0},{"source":11,"sampler":0},{"source":12,"sampler":0},{"source":13,"sampler":0},{"source":14,"sampler":0},{"source":15,"sampler":0},{"source":16,"sampler":0},{"source":17,"sampler":0}],"samplers":[{"magFilter":9729,"minFilter":9987,"wrapS":10497,"wrapT":10497}],"buffers":[{"uri":"stage.bin","byteLength":154756}]}
