# Generated from legacy Unity YAML Mesh assets without Unity.
mtllib ArmorBag_22.mtl

o ArmorBag_22_00_Bag
v -2.27305819e-09 0.221274987 -0.124881677
v 0.0852654576 0.138598114 -0.0207148977
v -2.27305819e-09 0.180404246 0.00767911086
v -2.27305819e-09 0.221274987 -0.124881677
v 0.19163169 0.161832407 -0.123574048
v 0.190986589 -0.313036382 -0.0684007257
v 0.0656095967 -0.240355179 0.0922884122
v 0.15423815 -0.191485524 0.0323740728
v 0.137163654 -0.348003 0.0079841055
v 0.17538476 -0.531193256 -0.181710839
v 0.0852065161 -0.453638643 -0.0225837398
v 0.163178846 -0.445752978 -0.106263481
v 0.101858191 -0.55283004 -0.102446966
v 0.168109268 -0.602088809 -0.252616107
v 0.17538476 -0.531193256 -0.181710839
v 0.251637548 -0.561496675 -0.332096905
v 0.287404746 -0.517502964 -0.336105436
v 0.180459097 0.0295519363 -0.0219844859
v 0.0584831238 -0.0376110971 0.105611503
v -2.27305819e-09 0.0830301791 0.0572554693
v 0.180459097 0.0295519363 -0.0219844859
v -2.27305819e-09 0.0830301791 0.0572554693
v 0.0597656444 0.104127936 -0.0238688905
v -2.27305819e-09 0.0784041584 0.114150651
v -2.27305819e-09 0.180404246 0.00767911086
v 0.0852654576 0.138598114 -0.0207148977
v 0.281928033 -0.11960385 -0.0653842688
v 0.335106194 -0.041206494 -0.150198594
v 0.331108421 -0.122646481 -0.131262243
v 0.28804186 -0.0421250239 -0.0834809318
v 0.200693265 0.0680321231 -0.00955819525
v 0.335106194 -0.041206494 -0.150198594
v 0.28804186 -0.0421250239 -0.0834809318
v 0.350602329 0.0265280493 -0.169229016
v 0.200693265 0.0680321231 -0.00955819525
v 0.19163169 0.161832407 -0.123574048
v 0.350602329 0.0265280493 -0.169229016
v 0.19163169 0.161832407 -0.123574048
v 0.200693265 0.0680321231 -0.00955819525
v 0.0852654576 0.138598114 -0.0207148977
v 0.29045105 0.0161654949 -0.207968339
v 0.335106194 -0.041206494 -0.150198594
v 0.350602329 0.0265280493 -0.169229016
v 0.293774068 -0.0447742231 -0.176077262
v 0.293774068 -0.0447742231 -0.176077262
v 0.331108421 -0.122646481 -0.131262243
v 0.335106194 -0.041206494 -0.150198594
v 0.311351269 -0.143102437 -0.144867092
v 0.311351269 -0.143102437 -0.144867092
v 0.281928033 -0.11960385 -0.0653842688
v 0.331108421 -0.122646481 -0.131262243
v 0.230726063 -0.148257524 -0.0593000129
v 0.230726063 -0.148257524 -0.0593000129
v 0.28804186 -0.0421250239 -0.0834809318
v 0.281928033 -0.11960385 -0.0653842688
v 0.243470877 -0.0447742417 -0.0807498097
v 0.243470877 -0.0447742417 -0.0807498097
v 0.200693265 0.0680321231 -0.00955819525
v 0.28804186 -0.0421250239 -0.0834809318
v 0.180459097 0.0295519363 -0.0219844859
v 0.180459097 0.0295519363 -0.0219844859
v 0.0852654576 0.138598114 -0.0207148977
v 0.200693265 0.0680321231 -0.00955819525
v 0.0597656444 0.104127936 -0.0238688905
v 0.0597656444 0.104127936 -0.0238688905
v -2.27305819e-09 0.0784041584 0.114150651
v 0.0852654576 0.138598114 -0.0207148977
v -2.27305819e-09 0.0830301791 0.0572554693
v -2.27305819e-09 0.121361986 -0.222950265
v 0.19163169 0.161832407 -0.123574048
v -2.27305819e-09 0.221274987 -0.124881677
v 0.161558822 0.0774136335 -0.209377646
v 0.161558822 0.0774136335 -0.209377646
v 0.350602329 0.0265280493 -0.169229016
v 0.19163169 0.161832407 -0.123574048
v 0.29045105 0.0161654949 -0.207968339
v -2.27305819e-09 -0.149062127 0.0953123569
v 0.052806139 -0.079639852 0.0608188137
v 0.15423815 -0.191485524 0.0323740728
v -2.27305819e-09 -0.136149511 0.136508778
v -2.27305819e-09 -0.0376481116 0.121434651
v 0.0584831238 -0.0376110971 0.105611503
v 0.0584831238 -0.0376110971 0.105611503
v 0.180459097 0.0295519363 -0.0219844859
v 0.179522112 -0.171769768 0.0449226536
v -2.27305819e-09 -0.357802927 0.0339301787
v 0.0555200353 -0.268603206 0.0504975431
v 0.10558942 -0.350065827 -0.00273754308
v 0.11174769 -0.595580518 -0.191084117
v 0.168109268 -0.602088809 -0.252616107
v 0.097451739 -0.623807609 -0.222289085
v 0.17538476 -0.531193256 -0.181710839
v 0.180459097 0.0295519363 -0.0219844859
v 0.230726063 -0.148257524 -0.0593000129
v 0.179522112 -0.171769768 0.0449226536
v 0.243470877 -0.0447742417 -0.0807498097
v 0.230726063 -0.148257524 -0.0593000129
v 0.2211449 -0.287664384 -0.0501611196
v 0.179522112 -0.171769768 0.0449226536
v 0.291671753 -0.268721491 -0.130885109
v 0.190986589 -0.313036382 -0.0684007257
v 0.2211449 -0.287664384 -0.0501611196
v 0.258259803 -0.287012637 -0.173538104
v 0.2211449 -0.287664384 -0.0501611196
v 0.15423815 -0.191485524 0.0323740728
v 0.179522112 -0.171769768 0.0449226536
v 0.190986589 -0.313036382 -0.0684007257
v 0.179522112 -0.171769768 0.0449226536
v 0.052806139 -0.079639852 0.0608188137
v 0.0584831238 -0.0376110971 0.105611503
v 0.15423815 -0.191485524 0.0323740728
v 0.0584831238 -0.0376110971 0.105611503
v -2.27305819e-09 -0.149062127 0.0953123569
v -2.27305819e-09 -0.136149511 0.136508778
v 0.052806139 -0.079639852 0.0608188137
v -2.27305819e-09 -0.149062127 0.0953123569
v 0.0584831238 -0.0376110971 0.105611503
v -2.27305819e-09 -0.0376481116 0.121434651
v -2.27305819e-09 0.0830301791 0.0572554693
v 0.190986589 -0.313036382 -0.0684007257
v 0.20083122 -0.440141499 -0.0874758512
v 0.137163654 -0.348003 0.0079841055
v 0.258259803 -0.287012637 -0.173538104
v 0.10558942 -0.350065827 -0.00273754308
v 0.20083122 -0.440141499 -0.0874758512
v 0.163178846 -0.445752978 -0.106263481
v 0.137163654 -0.348003 0.0079841055
v 0.17538476 -0.531193256 -0.181710839
v 0.256902069 -0.445982218 -0.235232711
v 0.221094266 -0.477370411 -0.246085897
v 0.206487224 -0.509833515 -0.153142408
v -2.27305819e-09 -0.38239193 0.0824422315
v -2.27305819e-09 -0.243211657 0.118773513
v 0.0656095967 -0.240355179 0.0922884122
v 0.137163654 -0.348003 0.0079841055
v 0.0555200353 -0.268603206 0.0504975431
v 0.0656095967 -0.240355179 0.0922884122
v 0.10558942 -0.350065827 -0.00273754308
v -2.27305819e-09 -0.243211657 0.118773513
v -2.27305819e-09 -0.149062127 0.0953123569
v 0.0656095967 -0.240355179 0.0922884122
v 0.0656095967 -0.240355179 0.0922884122
v -2.27305819e-09 -0.357802927 0.0339301787
v -2.27305819e-09 -0.38239193 0.0824422315
v 0.0555200353 -0.268603206 0.0504975431
v -2.27305819e-09 -0.357802927 0.0339301787
v -2.27305819e-09 -0.149062127 0.0953123569
v 0.15423815 -0.191485524 0.0323740728
v 0.0656095967 -0.240355179 0.0922884122
v 0.258259803 -0.287012637 -0.173538104
v 0.256902069 -0.445982218 -0.235232711
v 0.20083122 -0.440141499 -0.0874758512
v 0.230726063 -0.148257524 -0.0593000129
v 0.291671753 -0.268721491 -0.130885109
v 0.2211449 -0.287664384 -0.0501611196
v 0.311351269 -0.143102437 -0.144867092
v 0.206487224 -0.509833515 -0.153142408
v 0.20083122 -0.440141499 -0.0874758512
v 0.256902069 -0.445982218 -0.235232711
v 0.17538476 -0.531193256 -0.181710839
v 0.20083122 -0.440141499 -0.0874758512
v 0.206487224 -0.509833515 -0.153142408
v 0.163178846 -0.445752978 -0.106263481
v -2.27305819e-09 -0.620913804 -0.204036474
v 0.0828305259 -0.534546852 -0.153401256
v 0.0929381773 -0.579959154 -0.20363149
v -2.27305819e-09 -0.556811631 -0.105518721
v 0.0828305259 -0.534546852 -0.153401256
v -2.27305819e-09 -0.403532207 -0.0451842174
v 0.0581302457 -0.444914579 -0.0438381508
v -2.27305819e-09 -0.556811631 -0.105518721
v -2.27305819e-09 -0.386303425 0.01854432
v 0.163178846 -0.445752978 -0.106263481
v 0.0852065161 -0.453638643 -0.0225837398
v 0.10558942 -0.350065827 -0.00273754308
v 0.101858191 -0.55283004 -0.102446966
v 0.17538476 -0.531193256 -0.181710839
v 0.11174769 -0.595580518 -0.191084117
v 0.291671753 -0.268721491 -0.130885109
v -2.27305819e-09 -0.143102437 -0.189882025
v 0.258259803 -0.287012637 -0.173538104
v -2.27305819e-09 -0.143102437 -0.189882025
v 0.311351269 -0.143102437 -0.144867092
v 0.293774068 -0.0447742231 -0.176077262
v 0.256902069 -0.445982218 -0.235232711
v -2.27305819e-09 -0.143102437 -0.189882025
v -2.27305819e-09 -0.461676329 -0.285871595
v 0.258259803 -0.287012637 -0.173538104
v 0.221094266 -0.477370411 -0.246085897
v 0.256902069 -0.445982218 -0.235232711
v -2.27305819e-09 -0.461676329 -0.285871595
v 0.293774068 -0.0447742231 -0.176077262
v 0.161558822 0.0774136335 -0.209377646
v -2.27305819e-09 -0.143102437 -0.189882025
v 0.29045105 0.0161654949 -0.207968339
v -2.27305819e-09 -0.143102437 -0.189882025
v 0.161558822 0.0774136335 -0.209377646
v -2.27305819e-09 0.121361986 -0.222950265
v 0.11174769 -0.595580518 -0.191084117
v 0.097451739 -0.623807609 -0.222289085
v 0.0929381773 -0.579959154 -0.20363149
v -2.27305819e-09 -0.620913804 -0.204036474
v 0.0929381773 -0.579959154 -0.20363149
v -2.27305819e-09 -0.461676329 -0.285871595
v 0.097451739 -0.623807609 -0.222289085
v 0.168109268 -0.602088809 -0.252616107
v 0.164155602 -0.56488657 -0.303340763
v 0.168109268 -0.602088809 -0.252616107
v 0.251637548 -0.561496675 -0.332096905
v 0.164155602 -0.56488657 -0.303340763
v -2.27305819e-09 -0.461676329 -0.285871595
v 0.0929381773 -0.579959154 -0.20363149
v 0.221094266 -0.477370411 -0.246085897
v 0.251637548 -0.561496675 -0.332096905
v 0.287404746 -0.517502964 -0.336105436
v 0.164155602 -0.56488657 -0.303340763
v 0.164155602 -0.56488657 -0.303340763
v 0.287404746 -0.517502964 -0.336105436
v 0.221094266 -0.477370411 -0.246085897
v 0.221094266 -0.477370411 -0.246085897
v 0.0929381773 -0.579959154 -0.20363149
v 0.164155602 -0.56488657 -0.303340763
v 0.17538476 -0.531193256 -0.181710839
v 0.221094266 -0.477370411 -0.246085897
v 0.287404746 -0.517502964 -0.336105436
v 0.291671753 -0.268721491 -0.130885109
v 0.311351269 -0.143102437 -0.144867092
v -2.27305819e-09 -0.143102437 -0.189882025
v 0.0581302457 -0.444914579 -0.0438381508
v 0.101858191 -0.55283004 -0.102446966
v 0.0828305259 -0.534546852 -0.153401256
v 0.0852065161 -0.453638643 -0.0225837398
v 0.101858191 -0.55283004 -0.102446966
v 0.0828305259 -0.534546852 -0.153401256
v 0.11174769 -0.595580518 -0.191084117
v 0.0929381773 -0.579959154 -0.20363149
v 0.101858191 -0.55283004 -0.102446966
v 0.0581302457 -0.444914579 -0.0438381508
v -2.27305819e-09 -0.386303425 0.01854432
v 0.0852065161 -0.453638643 -0.0225837398
v -2.27305819e-09 -0.403532207 -0.0451842174
v 0.097451739 -0.623807609 -0.222289085
v 0.164155602 -0.56488657 -0.303340763
v 0.0929381773 -0.579959154 -0.20363149
v -2.27305819e-09 -0.386303425 0.01854432
v -2.27305819e-09 -0.357802927 0.0339301787
v 0.10558942 -0.350065827 -0.00273754308
v -2.27305819e-09 0.221274987 -0.124881677
v -0.0852654576 0.138598114 -0.0207148977
v -0.19163169 0.161832407 -0.123574048
v -2.27305819e-09 0.221274987 -0.124881677
v -2.27305819e-09 0.180404246 0.00767911086
v -0.190986589 -0.313036382 -0.0684007257
v -0.0656096041 -0.240355179 0.0922884122
v -0.137163654 -0.348003 0.0079841055
v -0.15423815 -0.191485524 0.0323740728
v -0.17538476 -0.531193256 -0.181710839
v -0.0852065161 -0.453638643 -0.0225837398
v -0.101858191 -0.55283004 -0.102446966
v -0.163178846 -0.445752978 -0.106263481
v -0.168109268 -0.602088809 -0.252616107
v -0.251637548 -0.561496675 -0.332096905
v -0.17538476 -0.531193256 -0.181710839
v -0.287404746 -0.517502964 -0.336105436
v -0.180459097 0.0295519363 -0.0219844859
v -2.27305819e-09 0.0830301791 0.0572554693
v -0.058483135 -0.0376110971 0.105611503
v -0.180459097 0.0295519363 -0.0219844859
v -0.0597656555 0.104127936 -0.0238688905
v -2.27305819e-09 0.0830301791 0.0572554693
v -2.27305819e-09 0.0784041584 0.114150651
v -0.0852654576 0.138598114 -0.0207148977
v -2.27305819e-09 0.180404246 0.00767911086
v -0.281928033 -0.11960385 -0.0653842688
v -0.335106194 -0.041206494 -0.150198594
v -0.28804186 -0.0421250239 -0.0834809318
v -0.331108421 -0.122646481 -0.131262243
v -0.200693265 0.0680321231 -0.00955819525
v -0.335106194 -0.041206494 -0.150198594
v -0.350602329 0.0265280493 -0.169229016
v -0.28804186 -0.0421250239 -0.0834809318
v -0.200693265 0.0680321231 -0.00955819525
v -0.350602329 0.0265280493 -0.169229016
v -0.19163169 0.161832407 -0.123574048
v -0.19163169 0.161832407 -0.123574048
v -0.0852654576 0.138598114 -0.0207148977
v -0.200693265 0.0680321231 -0.00955819525
v -0.29045105 0.0161654949 -0.207968339
v -0.335106194 -0.041206494 -0.150198594
v -0.293774068 -0.0447742231 -0.176077262
v -0.350602329 0.0265280493 -0.169229016
v -0.293774068 -0.0447742231 -0.176077262
v -0.331108421 -0.122646481 -0.131262243
v -0.311351269 -0.143102437 -0.144867092
v -0.335106194 -0.041206494 -0.150198594
v -0.311351269 -0.143102437 -0.144867092
v -0.281928033 -0.11960385 -0.0653842688
v -0.230726063 -0.148257524 -0.0593000129
v -0.331108421 -0.122646481 -0.131262243
v -0.230726063 -0.148257524 -0.0593000129
v -0.28804186 -0.0421250239 -0.0834809318
v -0.243470877 -0.0447742417 -0.0807498097
v -0.281928033 -0.11960385 -0.0653842688
v -0.243470877 -0.0447742417 -0.0807498097
v -0.200693265 0.0680321231 -0.00955819525
v -0.180459097 0.0295519363 -0.0219844859
v -0.28804186 -0.0421250239 -0.0834809318
v -0.180459097 0.0295519363 -0.0219844859
v -0.0852654576 0.138598114 -0.0207148977
v -0.0597656555 0.104127936 -0.0238688905
v -0.200693265 0.0680321231 -0.00955819525
v -0.0597656555 0.104127936 -0.0238688905
v -2.27305819e-09 0.0784041584 0.114150651
v -2.27305819e-09 0.0830301791 0.0572554693
v -0.0852654576 0.138598114 -0.0207148977
v -2.27305819e-09 0.121361986 -0.222950265
v -0.19163169 0.161832407 -0.123574048
v -0.161558822 0.0774136335 -0.209377646
v -2.27305819e-09 0.221274987 -0.124881677
v -0.161558822 0.0774136335 -0.209377646
v -0.350602329 0.0265280493 -0.169229016
v -0.29045105 0.0161654949 -0.207968339
v -0.19163169 0.161832407 -0.123574048
v -2.27305819e-09 -0.149062127 0.0953123569
v -0.15423815 -0.191485524 0.0323740728
v -0.0528061502 -0.079639852 0.0608188137
v -2.27305819e-09 -0.136149511 0.136508778
v -0.058483135 -0.0376110971 0.105611503
v -2.27305819e-09 -0.0376481116 0.121434651
v -0.058483135 -0.0376110971 0.105611503
v -0.179522112 -0.171769768 0.0449226536
v -0.180459097 0.0295519363 -0.0219844859
v -2.27305819e-09 -0.357802927 0.0339301787
v -0.10558942 -0.350065827 -0.00273754308
v -0.0555200428 -0.268603206 0.0504975431
v -0.11174769 -0.595580518 -0.191084117
v -0.168109268 -0.602088809 -0.252616107
v -0.17538476 -0.531193256 -0.181710839
v -0.097451739 -0.623807609 -0.222289085
v -0.180459097 0.0295519363 -0.0219844859
v -0.230726063 -0.148257524 -0.0593000129
v -0.243470877 -0.0447742417 -0.0807498097
v -0.179522112 -0.171769768 0.0449226536
v -0.230726063 -0.148257524 -0.0593000129
v -0.179522112 -0.171769768 0.0449226536
v -0.2211449 -0.287664384 -0.0501611196
v -0.291671753 -0.268721491 -0.130885109
v -0.190986589 -0.313036382 -0.0684007257
v -0.258259803 -0.287012637 -0.173538104
v -0.2211449 -0.287664384 -0.0501611196
v -0.2211449 -0.287664384 -0.0501611196
v -0.15423815 -0.191485524 0.0323740728
v -0.190986589 -0.313036382 -0.0684007257
v -0.179522112 -0.171769768 0.0449226536
v -0.179522112 -0.171769768 0.0449226536
v -0.0528061502 -0.079639852 0.0608188137
v -0.15423815 -0.191485524 0.0323740728
v -0.058483135 -0.0376110971 0.105611503
v -0.058483135 -0.0376110971 0.105611503
v -2.27305819e-09 -0.149062127 0.0953123569
v -0.0528061502 -0.079639852 0.0608188137
v -2.27305819e-09 -0.136149511 0.136508778
v -2.27305819e-09 -0.149062127 0.0953123569
v -0.058483135 -0.0376110971 0.105611503
v -2.27305819e-09 0.0830301791 0.0572554693
v -2.27305819e-09 -0.0376481116 0.121434651
v -0.190986589 -0.313036382 -0.0684007257
v -0.137163654 -0.348003 0.0079841055
v -0.20083122 -0.440141499 -0.0874758512
v -0.258259803 -0.287012637 -0.173538104
v -0.10558942 -0.350065827 -0.00273754308
v -0.20083122 -0.440141499 -0.0874758512
v -0.137163654 -0.348003 0.0079841055
v -0.163178846 -0.445752978 -0.106263481
v -0.17538476 -0.531193256 -0.181710839
v -0.256902069 -0.445982218 -0.235232711
v -0.206487224 -0.509833515 -0.153142408
v -0.221094266 -0.477370411 -0.246085897
v -2.27305819e-09 -0.38239193 0.0824422315
v -0.0656096041 -0.240355179 0.0922884122
v -2.27305819e-09 -0.243211657 0.118773513
v -0.137163654 -0.348003 0.0079841055
v -0.0555200428 -0.268603206 0.0504975431
v -0.10558942 -0.350065827 -0.00273754308
v -0.0656096041 -0.240355179 0.0922884122
v -2.27305819e-09 -0.243211657 0.118773513
v -0.0656096041 -0.240355179 0.0922884122
v -2.27305819e-09 -0.149062127 0.0953123569
v -0.0656096041 -0.240355179 0.0922884122
v -2.27305819e-09 -0.357802927 0.0339301787
v -0.0555200428 -0.268603206 0.0504975431
v -2.27305819e-09 -0.38239193 0.0824422315
v -2.27305819e-09 -0.357802927 0.0339301787
v -2.27305819e-09 -0.149062127 0.0953123569
v -0.0656096041 -0.240355179 0.0922884122
v -0.15423815 -0.191485524 0.0323740728
v -0.258259803 -0.287012637 -0.173538104
v -0.20083122 -0.440141499 -0.0874758512
v -0.256902069 -0.445982218 -0.235232711
v -0.230726063 -0.148257524 -0.0593000129
v -0.291671753 -0.268721491 -0.130885109
v -0.311351269 -0.143102437 -0.144867092
v -0.2211449 -0.287664384 -0.0501611196
v -0.206487224 -0.509833515 -0.153142408
v -0.256902069 -0.445982218 -0.235232711
v -0.20083122 -0.440141499 -0.0874758512
v -0.17538476 -0.531193256 -0.181710839
v -0.20083122 -0.440141499 -0.0874758512
v -0.163178846 -0.445752978 -0.106263481
v -0.206487224 -0.509833515 -0.153142408
v -2.27305819e-09 -0.620913804 -0.204036474
v -0.0828305259 -0.534546852 -0.153401256
v -2.27305819e-09 -0.556811631 -0.105518721
v -0.0929381773 -0.579959154 -0.20363149
v -0.0828305259 -0.534546852 -0.153401256
v -2.27305819e-09 -0.403532207 -0.0451842174
v -2.27305819e-09 -0.556811631 -0.105518721
v -0.0581302531 -0.444914579 -0.0438381508
v -2.27305819e-09 -0.386303425 0.01854432
v -0.163178846 -0.445752978 -0.106263481
v -0.10558942 -0.350065827 -0.00273754308
v -0.0852065161 -0.453638643 -0.0225837398
v -0.101858191 -0.55283004 -0.102446966
v -0.11174769 -0.595580518 -0.191084117
v -0.17538476 -0.531193256 -0.181710839
v -0.291671753 -0.268721491 -0.130885109
v -0.258259803 -0.287012637 -0.173538104
v -2.27305819e-09 -0.143102437 -0.189882025
v -2.27305819e-09 -0.143102437 -0.189882025
v -0.293774068 -0.0447742231 -0.176077262
v -0.311351269 -0.143102437 -0.144867092
v -0.256902069 -0.445982218 -0.235232711
v -2.27305819e-09 -0.143102437 -0.189882025
v -0.258259803 -0.287012637 -0.173538104
v -2.27305819e-09 -0.461676329 -0.285871595
v -0.221094266 -0.477370411 -0.246085897
v -2.27305819e-09 -0.461676329 -0.285871595
v -0.256902069 -0.445982218 -0.235232711
v -0.293774068 -0.0447742231 -0.176077262
v -0.161558822 0.0774136335 -0.209377646
v -0.29045105 0.0161654949 -0.207968339
v -2.27305819e-09 -0.143102437 -0.189882025
v -2.27305819e-09 -0.143102437 -0.189882025
v -2.27305819e-09 0.121361986 -0.222950265
v -0.161558822 0.0774136335 -0.209377646
v -0.11174769 -0.595580518 -0.191084117
v -0.0929381773 -0.579959154 -0.20363149
v -0.097451739 -0.623807609 -0.222289085
v -2.27305819e-09 -0.620913804 -0.204036474
v -2.27305819e-09 -0.461676329 -0.285871595
v -0.0929381773 -0.579959154 -0.20363149
v -0.097451739 -0.623807609 -0.222289085
v -0.164155602 -0.56488657 -0.303340763
v -0.168109268 -0.602088809 -0.252616107
v -0.168109268 -0.602088809 -0.252616107
v -0.164155602 -0.56488657 -0.303340763
v -0.251637548 -0.561496675 -0.332096905
v -2.27305819e-09 -0.461676329 -0.285871595
v -0.221094266 -0.477370411 -0.246085897
v -0.0929381773 -0.579959154 -0.20363149
v -0.251637548 -0.561496675 -0.332096905
v -0.164155602 -0.56488657 -0.303340763
v -0.287404746 -0.517502964 -0.336105436
v -0.164155602 -0.56488657 -0.303340763
v -0.221094266 -0.477370411 -0.246085897
v -0.287404746 -0.517502964 -0.336105436
v -0.221094266 -0.477370411 -0.246085897
v -0.164155602 -0.56488657 -0.303340763
v -0.0929381773 -0.579959154 -0.20363149
v -0.17538476 -0.531193256 -0.181710839
v -0.287404746 -0.517502964 -0.336105436
v -0.221094266 -0.477370411 -0.246085897
v -0.291671753 -0.268721491 -0.130885109
v -2.27305819e-09 -0.143102437 -0.189882025
v -0.311351269 -0.143102437 -0.144867092
v -0.0581302531 -0.444914579 -0.0438381508
v -0.101858191 -0.55283004 -0.102446966
v -0.0852065161 -0.453638643 -0.0225837398
v -0.0828305259 -0.534546852 -0.153401256
v -0.101858191 -0.55283004 -0.102446966
v -0.0828305259 -0.534546852 -0.153401256
v -0.11174769 -0.595580518 -0.191084117
v -0.101858191 -0.55283004 -0.102446966
v -0.0929381773 -0.579959154 -0.20363149
v -0.0581302531 -0.444914579 -0.0438381508
v -2.27305819e-09 -0.386303425 0.01854432
v -2.27305819e-09 -0.403532207 -0.0451842174
v -0.0852065161 -0.453638643 -0.0225837398
v -0.097451739 -0.623807609 -0.222289085
v -0.0929381773 -0.579959154 -0.20363149
v -0.164155602 -0.56488657 -0.303340763
v -2.27305819e-09 -0.386303425 0.01854432
v -0.10558942 -0.350065827 -0.00273754308
v -2.27305819e-09 -0.357802927 0.0339301787
vt 0.744621098 0.980745196
vt 0.72413975 0.837601185
vt 0.658846021 0.897006989
vt 0.744621098 0.980745196
vt 0.859404206 0.847843051
vt 0.795258403 0.385427266
vt 0.614530325 0.468349069
vt 0.711312115 0.505703628
vt 0.70629096 0.366972327
vt 0.811355948 0.155227706
vt 0.6672405 0.256042123
vt 0.765324891 0.248131275
vt 0.717370987 0.161191523
vt 0.829873502 0.0674248189
vt 0.811355948 0.155227706
vt 0.936295271 0.0684627146
vt 0.97211796 0.100643799
vt 0.778652906 0.708527446
vt 0.621508956 0.659042001
vt 0.616736174 0.784393668
vt 0.778652906 0.708527446
vt 0.616736174 0.784393668
vt 0.702129185 0.807934046
vt 0.574138582 0.800370216
vt 0.658846021 0.897006989
vt 0.72413975 0.837601185
vt 0.875359356 0.573473692
vt 0.963784218 0.642526746
vt 0.945942104 0.56776762
vt 0.891075015 0.641241908
vt 0.794769943 0.739379168
vt 0.963784218 0.642526746
vt 0.891075015 0.641241908
vt 0.986470461 0.70450139
vt 0.794769943 0.739379168
vt 0.859404206 0.847843051
vt 0.986470461 0.70450139
vt 0.859404206 0.847843051
vt 0.794769943 0.739379168
vt 0.72413975 0.837601185
vt 0.304135561 0.720479906
vt 0.367613554 0.662248433
vt 0.370095253 0.738179147
vt 0.318832397 0.659149587
vt 0.318832397 0.659149587
vt 0.36999476 0.579633832
vt 0.367613554 0.662248433
vt 0.345194459 0.560650766
vt 0.938606203 0.537575364
vt 0.875359356 0.573473692
vt 0.945942104 0.56776762
vt 0.832577288 0.545087695
vt 0.832577288 0.545087695
vt 0.891075015 0.641241908
vt 0.875359356 0.573473692
vt 0.851869524 0.638119578
vt 0.851869524 0.638119578
vt 0.794769943 0.739379168
vt 0.891075015 0.641241908
vt 0.778652906 0.708527446
vt 0.778652906 0.708527446
vt 0.72413975 0.837601185
vt 0.794769943 0.739379168
vt 0.702129185 0.807934046
vt 0.702129185 0.807934046
vt 0.574138582 0.800370216
vt 0.72413975 0.837601185
vt 0.616736174 0.784393668
vt 0.0178537816 0.802473128
vt 0.216415748 0.884416461
vt 0.0280622076 0.938883543
vt 0.1777073 0.770032406
vt 0.1777073 0.770032406
vt 0.370095253 0.738179147
vt 0.216415748 0.884416461
vt 0.304135561 0.720479906
vt 0.567644179 0.557129025
vt 0.62635988 0.609397769
vt 0.711312115 0.505703628
vt 0.541282833 0.587765098
vt 0.569580138 0.672860742
vt 0.621508956 0.659042001
vt 0.621508956 0.659042001
vt 0.778652906 0.708527446
vt 0.72844696 0.528659225
vt 0.583182335 0.341346353
vt 0.620913863 0.425637841
vt 0.680635214 0.351123005
vt 0.757610321 0.0883385912
vt 0.829873502 0.0674248189
vt 0.763099253 0.0496927872
vt 0.811355948 0.155227706
vt 0.778652906 0.708527446
vt 0.832577288 0.545087695
vt 0.72844696 0.528659225
vt 0.851869524 0.638119578
vt 0.832577288 0.545087695
vt 0.808909059 0.422048211
vt 0.72844696 0.528659225
vt 0.903672516 0.427278727
vt 0.795258403 0.385427266
vt 0.808909059 0.422048211
vt 0.912174463 0.375663221
vt 0.808909059 0.422048211
vt 0.711312115 0.505703628
vt 0.72844696 0.528659225
vt 0.795258403 0.385427266
vt 0.72844696 0.528659225
vt 0.62635988 0.609397769
vt 0.621508956 0.659042001
vt 0.711312115 0.505703628
vt 0.621508956 0.659042001
vt 0.567644179 0.557129025
vt 0.541282833 0.587765098
vt 0.62635988 0.609397769
vt 0.567644179 0.557129025
vt 0.621508956 0.659042001
vt 0.569580138 0.672860742
vt 0.616736174 0.784393668
vt 0.795258403 0.385427266
vt 0.790008664 0.271468014
vt 0.70629096 0.366972327
vt 0.912174463 0.375663221
vt 0.680635214 0.351123005
vt 0.790008664 0.271468014
vt 0.765324891 0.248131275
vt 0.70629096 0.366972327
vt 0.811355948 0.155227706
vt 0.916737735 0.21762605
vt 0.897481203 0.172986344
vt 0.8185063 0.194979787
vt 0.538697422 0.35006097
vt 0.551245272 0.475124747
vt 0.614530325 0.468349069
vt 0.70629096 0.366972327
vt 0.620913863 0.425637841
vt 0.614530325 0.468349069
vt 0.680635214 0.351123005
vt 0.551245272 0.475124747
vt 0.567644179 0.557129025
vt 0.614530325 0.468349069
vt 0.614530325 0.468349069
vt 0.583182335 0.341346353
vt 0.538697422 0.35006097
vt 0.620913863 0.425637841
vt 0.583182335 0.341346353
vt 0.567644179 0.557129025
vt 0.711312115 0.505703628
vt 0.614530325 0.468349069
vt 0.912174463 0.375663221
vt 0.916737735 0.21762605
vt 0.790008664 0.271468014
vt 0.832577288 0.545087695
vt 0.903672516 0.427278727
vt 0.808909059 0.422048211
vt 0.938606203 0.537575364
vt 0.8185063 0.194979787
vt 0.790008664 0.271468014
vt 0.916737735 0.21762605
vt 0.811355948 0.155227706
vt 0.790008664 0.271468014
vt 0.8185063 0.194979787
vt 0.765324891 0.248131275
vt 0.661365807 0.0178036783
vt 0.693066716 0.124433205
vt 0.731709719 0.0767093077
vt 0.61174798 0.111690268
vt 0.693066716 0.124433205
vt 0.582940161 0.255601287
vt 0.639648259 0.239017114
vt 0.61174798 0.111690268
vt 0.587826848 0.315018982
vt 0.765324891 0.248131275
vt 0.6672405 0.256042123
vt 0.680635214 0.351123005
vt 0.717370987 0.161191523
vt 0.811355948 0.155227706
vt 0.757610321 0.0883385912
vt 0.334398031 0.435514659
vt 0.0386482291 0.543225646
vt 0.289635658 0.401071787
vt 0.0386482291 0.543225646
vt 0.345194459 0.560650766
vt 0.318832397 0.659149587
vt 0.277052641 0.234872088
vt 0.0386482291 0.543225646
vt 0.0218307823 0.220301554
vt 0.289635658 0.401071787
vt 0.241049513 0.203458503
vt 0.277052641 0.234872088
vt 0.0218307823 0.220301554
vt 0.318832397 0.659149587
vt 0.1777073 0.770032406
vt 0.0386482291 0.543225646
vt 0.304135561 0.720479906
vt 0.0386482291 0.543225646
vt 0.1777073 0.770032406
vt 0.0178537816 0.802473128
vt 0.757610321 0.0883385912
vt 0.763099253 0.0496927872
vt 0.731709719 0.0767093077
vt 0.0302341413 0.0461101234
vt 0.120805368 0.0859072581
vt 0.0218307823 0.220301554
vt 0.137421355 0.0353960842
vt 0.220415935 0.0351926833
vt 0.237618014 0.0914018229
vt 0.220415935 0.0351926833
vt 0.324135065 0.100995816
vt 0.237618014 0.0914018229
vt 0.0218307823 0.220301554
vt 0.120805368 0.0859072581
vt 0.241049513 0.203458503
vt 0.324135065 0.100995816
vt 0.352412939 0.152619258
vt 0.237618014 0.0914018229
vt 0.237618014 0.0914018229
vt 0.352412939 0.152619258
vt 0.241049513 0.203458503
vt 0.241049513 0.203458503
vt 0.120805368 0.0859072581
vt 0.237618014 0.0914018229
vt 0.811355948 0.155227706
vt 0.897481203 0.172986344
vt 0.97211796 0.100643799
vt 0.334398031 0.435514659
vt 0.345194459 0.560650766
vt 0.0386482291 0.543225646
vt 0.639648259 0.239017114
vt 0.717370987 0.161191523
vt 0.693066716 0.124433205
vt 0.6672405 0.256042123
vt 0.717370987 0.161191523
vt 0.693066716 0.124433205
vt 0.757610321 0.0883385912
vt 0.731709719 0.0767093077
vt 0.717370987 0.161191523
vt 0.639648259 0.239017114
vt 0.587826848 0.315018982
vt 0.6672405 0.256042123
vt 0.582940161 0.255601287
vt 0.137421355 0.0353960842
vt 0.237618014 0.0914018229
vt 0.120805368 0.0859072581
vt 0.587826848 0.315018982
vt 0.583182335 0.341346353
vt 0.680635214 0.351123005
vt 0.744621098 0.980745196
vt 0.72413975 0.837601185
vt 0.859404206 0.847843051
vt 0.744621098 0.980745196
vt 0.658846021 0.897006989
vt 0.795258403 0.385427266
vt 0.614530325 0.468349069
vt 0.70629096 0.366972327
vt 0.711312115 0.505703628
vt 0.811355948 0.155227706
vt 0.6672405 0.256042123
vt 0.717370987 0.161191523
vt 0.765324891 0.248131275
vt 0.829873502 0.0674248189
vt 0.936295271 0.0684627146
vt 0.811355948 0.155227706
vt 0.97211796 0.100643799
vt 0.778652906 0.708527446
vt 0.616736174 0.784393668
vt 0.621508956 0.659042001
vt 0.778652906 0.708527446
vt 0.702129185 0.807934046
vt 0.616736174 0.784393668
vt 0.574138582 0.800370216
vt 0.72413975 0.837601185
vt 0.658846021 0.897006989
vt 0.875359356 0.573473692
vt 0.963784218 0.642526746
vt 0.891075015 0.641241908
vt 0.945942104 0.56776762
vt 0.794769943 0.739379168
vt 0.963784218 0.642526746
vt 0.986470461 0.70450139
vt 0.891075015 0.641241908
vt 0.794769943 0.739379168
vt 0.986470461 0.70450139
vt 0.859404206 0.847843051
vt 0.859404206 0.847843051
vt 0.72413975 0.837601185
vt 0.794769943 0.739379168
vt 0.304135561 0.720479906
vt 0.367613554 0.662248433
vt 0.318832397 0.659149587
vt 0.370095253 0.738179147
vt 0.318832397 0.659149587
vt 0.36999476 0.579633832
vt 0.345194459 0.560650766
vt 0.367613554 0.662248433
vt 0.938606203 0.537575364
vt 0.875359356 0.573473692
vt 0.832577288 0.545087695
vt 0.945942104 0.56776762
vt 0.832577288 0.545087695
vt 0.891075015 0.641241908
vt 0.851869524 0.638119578
vt 0.875359356 0.573473692
vt 0.851869524 0.638119578
vt 0.794769943 0.739379168
vt 0.778652906 0.708527446
vt 0.891075015 0.641241908
vt 0.778652906 0.708527446
vt 0.72413975 0.837601185
vt 0.702129185 0.807934046
vt 0.794769943 0.739379168
vt 0.702129185 0.807934046
vt 0.574138582 0.800370216
vt 0.616736174 0.784393668
vt 0.72413975 0.837601185
vt 0.0178537816 0.802473128
vt 0.216415748 0.884416461
vt 0.1777073 0.770032406
vt 0.0280622076 0.938883543
vt 0.1777073 0.770032406
vt 0.370095253 0.738179147
vt 0.304135561 0.720479906
vt 0.216415748 0.884416461
vt 0.567644179 0.557129025
vt 0.711312115 0.505703628
vt 0.62635988 0.609397769
vt 0.541282833 0.587765098
vt 0.621508956 0.659042001
vt 0.569580138 0.672860742
vt 0.621508956 0.659042001
vt 0.72844696 0.528659225
vt 0.778652906 0.708527446
vt 0.583182335 0.341346353
vt 0.680635214 0.351123005
vt 0.620913863 0.425637841
vt 0.757610321 0.0883385912
vt 0.829873502 0.0674248189
vt 0.811355948 0.155227706
vt 0.763099253 0.0496927872
vt 0.778652906 0.708527446
vt 0.832577288 0.545087695
vt 0.851869524 0.638119578
vt 0.72844696 0.528659225
vt 0.832577288 0.545087695
vt 0.72844696 0.528659225
vt 0.808909059 0.422048211
vt 0.903672516 0.427278727
vt 0.795258403 0.385427266
vt 0.912174463 0.375663221
vt 0.808909059 0.422048211
vt 0.808909059 0.422048211
vt 0.711312115 0.505703628
vt 0.795258403 0.385427266
vt 0.72844696 0.528659225
vt 0.72844696 0.528659225
vt 0.62635988 0.609397769
vt 0.711312115 0.505703628
vt 0.621508956 0.659042001
vt 0.621508956 0.659042001
vt 0.567644179 0.557129025
vt 0.62635988 0.609397769
vt 0.541282833 0.587765098
vt 0.567644179 0.557129025
vt 0.621508956 0.659042001
vt 0.616736174 0.784393668
vt 0.569580138 0.672860742
vt 0.795258403 0.385427266
vt 0.70629096 0.366972327
vt 0.790008664 0.271468014
vt 0.912174463 0.375663221
vt 0.680635214 0.351123005
vt 0.790008664 0.271468014
vt 0.70629096 0.366972327
vt 0.765324891 0.248131275
vt 0.811355948 0.155227706
vt 0.916737735 0.21762605
vt 0.8185063 0.194979787
vt 0.897481203 0.172986344
vt 0.538697422 0.35006097
vt 0.614530325 0.468349069
vt 0.551245272 0.475124747
vt 0.70629096 0.366972327
vt 0.620913863 0.425637841
vt 0.680635214 0.351123005
vt 0.614530325 0.468349069
vt 0.551245272 0.475124747
vt 0.614530325 0.468349069
vt 0.567644179 0.557129025
vt 0.614530325 0.468349069
vt 0.583182335 0.341346353
vt 0.620913863 0.425637841
vt 0.538697422 0.35006097
vt 0.583182335 0.341346353
vt 0.567644179 0.557129025
vt 0.614530325 0.468349069
vt 0.711312115 0.505703628
vt 0.912174463 0.375663221
vt 0.790008664 0.271468014
vt 0.916737735 0.21762605
vt 0.832577288 0.545087695
vt 0.903672516 0.427278727
vt 0.938606203 0.537575364
vt 0.808909059 0.422048211
vt 0.8185063 0.194979787
vt 0.916737735 0.21762605
vt 0.790008664 0.271468014
vt 0.811355948 0.155227706
vt 0.790008664 0.271468014
vt 0.765324891 0.248131275
vt 0.8185063 0.194979787
vt 0.661365807 0.0178036783
vt 0.693066716 0.124433205
vt 0.61174798 0.111690268
vt 0.731709719 0.0767093077
vt 0.693066716 0.124433205
vt 0.582940161 0.255601287
vt 0.61174798 0.111690268
vt 0.639648259 0.239017114
vt 0.587826848 0.315018982
vt 0.765324891 0.248131275
vt 0.680635214 0.351123005
vt 0.6672405 0.256042123
vt 0.717370987 0.161191523
vt 0.757610321 0.0883385912
vt 0.811355948 0.155227706
vt 0.334398031 0.435514659
vt 0.289635658 0.401071787
vt 0.0386482291 0.543225646
vt 0.0386482291 0.543225646
vt 0.318832397 0.659149587
vt 0.345194459 0.560650766
vt 0.277052641 0.234872088
vt 0.0386482291 0.543225646
vt 0.289635658 0.401071787
vt 0.0218307823 0.220301554
vt 0.241049513 0.203458503
vt 0.0218307823 0.220301554
vt 0.277052641 0.234872088
vt 0.318832397 0.659149587
vt 0.1777073 0.770032406
vt 0.304135561 0.720479906
vt 0.0386482291 0.543225646
vt 0.0386482291 0.543225646
vt 0.0178537816 0.802473128
vt 0.1777073 0.770032406
vt 0.757610321 0.0883385912
vt 0.731709719 0.0767093077
vt 0.763099253 0.0496927872
vt 0.0302341413 0.0461101234
vt 0.0218307823 0.220301554
vt 0.120805368 0.0859072581
vt 0.137421355 0.0353960842
vt 0.237618014 0.0914018229
vt 0.220415935 0.0351926833
vt 0.220415935 0.0351926833
vt 0.237618014 0.0914018229
vt 0.324135065 0.100995816
vt 0.0218307823 0.220301554
vt 0.241049513 0.203458503
vt 0.120805368 0.0859072581
vt 0.324135065 0.100995816
vt 0.237618014 0.0914018229
vt 0.352412939 0.152619258
vt 0.237618014 0.0914018229
vt 0.241049513 0.203458503
vt 0.352412939 0.152619258
vt 0.241049513 0.203458503
vt 0.237618014 0.0914018229
vt 0.120805368 0.0859072581
vt 0.811355948 0.155227706
vt 0.97211796 0.100643799
vt 0.897481203 0.172986344
vt 0.334398031 0.435514659
vt 0.0386482291 0.543225646
vt 0.345194459 0.560650766
vt 0.639648259 0.239017114
vt 0.717370987 0.161191523
vt 0.6672405 0.256042123
vt 0.693066716 0.124433205
vt 0.717370987 0.161191523
vt 0.693066716 0.124433205
vt 0.757610321 0.0883385912
vt 0.717370987 0.161191523
vt 0.731709719 0.0767093077
vt 0.639648259 0.239017114
vt 0.587826848 0.315018982
vt 0.582940161 0.255601287
vt 0.6672405 0.256042123
vt 0.137421355 0.0353960842
vt 0.120805368 0.0859072581
vt 0.237618014 0.0914018229
vt 0.587826848 0.315018982
vt 0.680635214 0.351123005
vt 0.583182335 0.341346353
vn 0.49300536 0.831406733 0.256336808
vn 0.349638283 0.85188043 0.389939489
vn 0.49300536 0.831406733 0.256336808
vn 0.260091406 0.848619205 0.460649439
vn 0.260091406 0.848619205 0.460649439
vn 0.733604163 -0.182055936 0.654737023
vn 0.733604163 -0.182055936 0.654737023
vn 0.650396312 -0.358552218 0.669645387
vn 0.801037954 0.06655701 0.594901975
vn 0.709580638 -0.385334518 0.58992595
vn 0.709580638 -0.385334518 0.58992595
vn 0.681118418 -0.42755124 0.594371633
vn 0.732804665 -0.347838524 0.58481252
vn 0.703604722 -0.53729789 0.465028357
vn 0.705075637 -0.535102482 0.465331796
vn 0.705075637 -0.535102482 0.465331796
vn 0.70693579 -0.532309937 0.465712271
vn 0.467974012 0.514783784 0.718329994
vn 0.467974012 0.514783784 0.718329994
vn 0.467974012 0.514783784 0.718329994
vn 0.443974741 0.731599145 0.517348162
vn 0.443974741 0.731599145 0.517348162
vn 0.443974741 0.731599145 0.517348162
vn 0.504571688 0.623445586 0.597262934
vn 0.504571688 0.623445586 0.597262934
vn 0.504571688 0.623445586 0.597262934
vn 0.807010836 0.0848378144 0.584410862
vn 0.807010836 0.0848378144 0.584410862
vn 0.799608984 0.0984901653 0.592389365
vn 0.814674203 0.0701702761 0.575657949
vn 0.759516184 0.108887073 0.641310199
vn 0.759516184 0.108887073 0.641310199
vn 0.789570601 0.250004002 0.560425076
vn 0.731922651 0.0238749896 0.680969322
vn 0.649995019 0.611395872 0.451333095
vn 0.649995019 0.611395872 0.451333095
vn 0.649995019 0.611395872 0.451333095
vn 0.389244823 0.726281216 0.566572204
vn 0.389244823 0.726281216 0.566572204
vn 0.389244823 0.726281216 0.566572204
vn 0.536416961 -0.353942115 -0.76614739
vn 0.536416961 -0.353942115 -0.76614739
vn 0.549891595 -0.340128496 -0.762844571
vn 0.514950951 -0.375254524 -0.770720157
vn 0.58244915 -0.177293605 -0.793296896
vn 0.58244915 -0.177293605 -0.793296896
vn 0.531448394 -0.216510498 -0.818954094
vn 0.646344159 -0.123464671 -0.752991171
vn 0.48962877 -0.770093167 0.408925643
vn 0.48962877 -0.770093167 0.408925643
vn 0.503642346 -0.759839538 0.41108182
vn 0.48232759 -0.775299981 0.407762228
vn 0.0208576909 0.21137444 0.977182584
vn 0.0208576909 0.21137444 0.977182584
vn -0.012101143 0.228336129 0.973507152
vn 0.0482912502 0.197020962 0.979209219
vn 0.174182478 -0.477458001 0.861216768
vn 0.174182478 -0.477458001 0.861216768
vn 0.0827592862 -0.509237124 0.856637877
vn 0.291130566 -0.429191187 0.855007555
vn -0.132347167 -0.126979781 0.983036298
vn -0.132347167 -0.126979781 0.983036298
vn -0.212963912 -0.197052156 0.956983187
vn -0.04938164 -0.0547195051 0.997279915
vn 0.618414726 -0.776145505 0.123131561
vn 0.618414726 -0.776145505 0.123131561
vn 0.773485764 -0.5927356 0.224464433
vn 0.235068137 -0.968781883 -0.0787695022
vn 0.225746551 0.669286014 -0.707880447
vn 0.225746551 0.669286014 -0.707880447
vn 0.216868586 0.683817846 -0.696678671
vn 0.237381689 0.649574831 -0.722289743
vn 0.31972154 0.627972036 -0.70952749
vn 0.31972154 0.627972036 -0.70952749
vn 0.318905834 0.617346165 -0.719154213
vn 0.321933709 0.66190993 -0.676929784
vn 0.406724215 0.139233944 0.902878354
vn 0.406724215 0.139233944 0.902878354
vn 0.406724215 0.139233944 0.902878354
vn 0.258278787 0.146140866 0.954952834
vn 0.258278787 0.146140866 0.954952834
vn 0.258278787 0.146140866 0.954952834
vn 0.635059949 0.240955088 0.733920641
vn 0.635059949 0.240955088 0.733920641
vn 0.635059949 0.240955088 0.733920641
vn 0.329077038 -0.366467826 0.870292845
vn 0.329077038 -0.366467826 0.870292845
vn 0.329077038 -0.366467826 0.870292845
vn 0.512393082 -0.667749856 0.539966165
vn 0.512393082 -0.667749856 0.539966165
vn 0.440031537 -0.756946417 0.483119414
vn 0.544563066 -0.620385022 0.56442315
vn 0.830236538 0.120495147 0.544231762
vn 0.830236538 0.120495147 0.544231762
vn 0.873609892 0.149805461 0.462994688
vn 0.71559959 0.0561847508 0.696247442
vn 0.899989538 -0.0333619353 0.434632964
vn 0.899989538 -0.0333619353 0.434632964
vn 0.899989538 -0.0333619353 0.434632964
vn 0.468768524 -0.872725135 0.136407147
vn 0.468768524 -0.872725135 0.136407147
vn 0.52161163 -0.810838322 0.265447777
vn 0.428671607 -0.902018575 0.0510210089
vn 0.0710954255 -0.620638143 0.780867297
vn 0.0710954255 -0.620638143 0.780867297
vn 0.0880107625 -0.612736251 0.7853715
vn 0.0574244623 -0.62684858 0.777022065
vn -0.309876281 -0.558915035 0.769149318
vn -0.309876281 -0.558915035 0.769149318
vn -0.38810096 -0.647033922 0.656296235
vn -0.159296804 -0.376557391 0.912594685
vn 0.849507375 -0.468236547 0.243087961
vn 0.870151916 -0.470226002 0.147387752
vn 0.870151916 -0.470226002 0.147387752
vn 0.82315855 -0.462399237 0.329540509
vn 0.82315855 -0.462399237 0.329540509
vn 0.232068047 0.456729102 0.858803207
vn 0.232068047 0.456729102 0.858803207
vn 0.232068047 0.456729102 0.858803207
vn 0.834525718 -0.0180055012 0.550674703
vn 0.834525718 -0.0180055012 0.550674703
vn 0.821919967 -0.0217600874 0.569187198
vn 0.843922803 -0.0151131609 0.536251709
vn -0.177567828 -0.767370528 0.616126724
vn -0.177567828 -0.767370528 0.616126724
vn -0.188443715 -0.771238039 0.60801386
vn -0.163037419 -0.761985989 0.626734515
vn 0.665290438 -0.731189865 -0.15083108
vn 0.665290438 -0.731189865 -0.15083108
vn 0.675384608 -0.726323566 -0.127709467
vn 0.657865477 -0.734348481 -0.167168546
vn 0.372658656 -0.234380807 0.897881486
vn 0.372658656 -0.234380807 0.897881486
vn 0.372658656 -0.234380807 0.897881486
vn -0.325264225 -0.684044792 0.652905741
vn -0.325264225 -0.684044792 0.652905741
vn -0.393906407 -0.714579668 0.578112136
vn -0.214617774 -0.623304116 0.751951588
vn 0.35617431 0.22593905 0.906692565
vn 0.35617431 0.22593905 0.906692565
vn 0.35617431 0.22593905 0.906692565
vn 0.886694669 -0.455271859 -0.0806231855
vn 0.894323649 -0.399083481 -0.202280959
vn 0.894323649 -0.399083481 -0.202280959
vn 0.822466283 -0.543242986 0.16863058
vn 0.822466283 -0.543242986 0.16863058
vn 0.427579458 0.278805442 0.85990891
vn 0.427579458 0.278805442 0.85990891
vn 0.427579458 0.278805442 0.85990891
vn 0.922989948 -0.146055082 0.35603015
vn 0.922989948 -0.146055082 0.35603015
vn 0.922989948 -0.146055082 0.35603015
vn 0.741468765 -0.0233617528 0.670580569
vn 0.741468765 -0.0233617528 0.670580569
vn 0.754059484 -0.00877160102 0.656747557
vn 0.728427434 -0.037975521 0.684069684
vn 0.899779693 -0.258324562 0.35166024
vn 0.899779693 -0.258324562 0.35166024
vn 0.899779693 -0.258324562 0.35166024
vn -0.224785311 -0.669709333 0.707785966
vn -0.224785311 -0.669709333 0.707785966
vn -0.182092048 -0.68209744 0.70822706
vn -0.25419405 -0.66032054 0.706655623
vn 0.410179742 -0.720895326 0.558625552
vn 0.410179742 -0.720895326 0.558625552
vn 0.295920513 -0.678182791 0.672680572
vn 0.475541995 -0.737348454 0.479767723
vn 0.193968174 -0.548938007 0.813045763
vn 0.193968174 -0.548938007 0.813045763
vn -0.519772469 -0.714917111 0.467685905
vn 0.536873301 -0.309008981 0.785035355
vn 0.525601625 -0.258729147 0.810433317
vn 0.525601625 -0.258729147 0.810433317
vn 0.642668705 0.423117829 0.638708258
vn 0.348199201 -0.583886233 0.73337179
vn 0.624066022 -0.674273906 0.394837055
vn 0.624066022 -0.674273906 0.394837055
vn 0.624066022 -0.674273906 0.394837055
vn 0.413873198 0.673129221 -0.612867056
vn 0.413873198 0.673129221 -0.612867056
vn 0.413873198 0.673129221 -0.612867056
vn 0.137481938 -0.27725036 -0.950910592
vn 0.137481938 -0.27725036 -0.950910592
vn 0.137481938 -0.27725036 -0.950910592
vn 0.197432812 0.306869567 -0.931048524
vn 0.197432812 0.306869567 -0.931048524
vn 0.168656871 0.284365813 -0.943764242
vn 0.2512499 0.348328304 -0.90307302
vn 0.18438023 0.126668588 -0.974658401
vn 0.18438023 0.126668588 -0.974658401
vn 0.18438023 0.126668588 -0.974658401
vn 0.0534305234 -0.208340562 -0.976595817
vn 0.0534305234 -0.208340562 -0.976595817
vn 0.0996469192 -0.159832009 -0.98210194
vn -0.210250851 -0.462279277 -0.86144788
vn 0.0495492837 -0.123919967 -0.991054343
vn 0.0495492837 -0.123919967 -0.991054343
vn 0.0495492837 -0.123919967 -0.991054343
vn -0.700544421 -0.339246475 0.627813143
vn -0.700544421 -0.339246475 0.627813143
vn -0.700544421 -0.339246475 0.627813143
vn 0.201105103 -0.447751368 -0.871249362
vn 0.201105103 -0.447751368 -0.871249362
vn 0.201105103 -0.447751368 -0.871249362
vn -0.00578247263 -0.806574875 -0.591103658
vn -0.00578247263 -0.806574875 -0.591103658
vn -0.00578247263 -0.806574875 -0.591103658
vn -0.158226893 -0.80205646 -0.575907706
vn -0.158226893 -0.80205646 -0.575907706
vn -0.158226893 -0.80205646 -0.575907706
vn 0.118458188 -0.502415691 -0.856473077
vn 0.118458188 -0.502415691 -0.856473077
vn 0.118458188 -0.502415691 -0.856473077
vn -0.313667135 0.169892039 -0.934210696
vn -0.313667135 0.169892039 -0.934210696
vn -0.313667135 0.169892039 -0.934210696
vn -0.420437292 0.672216066 -0.609391537
vn -0.420437292 0.672216066 -0.609391537
vn -0.420437292 0.672216066 -0.609391537
vn -0.652468313 0.663743302 -0.365691029
vn -0.652468313 0.663743302 -0.365691029
vn -0.652468313 0.663743302 -0.365691029
vn 0.808580617 0.016761506 0.588146613
vn 0.808580617 0.016761506 0.588146613
vn 0.808580617 0.016761506 0.588146613
vn 0.141850273 -0.131426033 -0.981124711
vn 0.141850273 -0.131426033 -0.981124711
vn 0.141850273 -0.131426033 -0.981124711
vn -0.802073486 -0.501302239 0.324613908
vn -0.878630493 -0.447092761 0.167679812
vn -0.878630493 -0.447092761 0.167679812
vn -0.617207444 -0.553689401 0.559001806
vn -0.617207444 -0.553689401 0.559001806
vn -0.825574412 -0.522592496 0.212894279
vn -0.825574412 -0.522592496 0.212894279
vn -0.727348364 -0.575464118 0.373905611
vn -0.857427001 -0.494399282 0.142787561
vn -0.539357881 -0.803408552 0.252245466
vn -0.539357881 -0.803408552 0.252245466
vn -0.497918678 -0.813540973 0.300379887
vn -0.569740624 -0.793344135 0.21447775
vn -0.814908947 0.153882113 -0.558787709
vn -0.814908947 0.153882113 -0.558787709
vn -0.814908947 0.153882113 -0.558787709
vn 0.322234371 -0.449704639 0.833025059
vn 0.322234371 -0.449704639 0.833025059
vn 0.322234371 -0.449704639 0.833025059
vn -0.260091411 0.848619201 0.460649443
vn -0.349638293 0.851880424 0.389939491
vn -0.260091411 0.848619201 0.460649443
vn -0.49300538 0.831406722 0.256336804
vn -0.49300538 0.831406722 0.256336804
vn -0.733604181 -0.182055935 0.654737002
vn -0.733604181 -0.182055935 0.654737002
vn -0.801037965 0.0665569701 0.594901965
vn -0.650396343 -0.358552194 0.66964537
vn -0.709580638 -0.385334518 0.58992595
vn -0.709580638 -0.385334518 0.58992595
vn -0.732804665 -0.347838524 0.58481252
vn -0.681118418 -0.42755124 0.594371633
vn -0.703604722 -0.53729789 0.465028357
vn -0.705075637 -0.535102482 0.465331796
vn -0.705075637 -0.535102482 0.465331796
vn -0.70693579 -0.532309937 0.465712271
vn -0.467974021 0.514783805 0.718329973
vn -0.467974021 0.514783805 0.718329973
vn -0.467974021 0.514783805 0.718329973
vn -0.443974758 0.731599107 0.517348201
vn -0.443974758 0.731599107 0.517348201
vn -0.443974758 0.731599107 0.517348201
vn -0.504571708 0.623445578 0.597262926
vn -0.504571708 0.623445578 0.597262926
vn -0.504571708 0.623445578 0.597262926
vn -0.807010836 0.0848378144 0.584410862
vn -0.807010836 0.0848378144 0.584410862
vn -0.814674203 0.0701702761 0.575657949
vn -0.799608984 0.0984901653 0.592389365
vn -0.759516184 0.108887073 0.641310199
vn -0.759516184 0.108887073 0.641310199
vn -0.731922651 0.0238749896 0.680969322
vn -0.789570601 0.250004002 0.560425076
vn -0.649995019 0.611395872 0.451333095
vn -0.649995019 0.611395872 0.451333095
vn -0.649995019 0.611395872 0.451333095
vn -0.389244823 0.726281216 0.566572204
vn -0.389244823 0.726281216 0.566572204
vn -0.389244823 0.726281216 0.566572204
vn -0.536416961 -0.353942115 -0.76614739
vn -0.536416961 -0.353942115 -0.76614739
vn -0.514950951 -0.375254524 -0.770720157
vn -0.549891595 -0.340128496 -0.762844571
vn -0.58244915 -0.177293605 -0.793296896
vn -0.58244915 -0.177293605 -0.793296896
vn -0.646344159 -0.123464671 -0.752991171
vn -0.531448394 -0.216510498 -0.818954094
vn -0.48962877 -0.770093167 0.408925643
vn -0.48962877 -0.770093167 0.408925643
vn -0.48232759 -0.775299981 0.407762228
vn -0.503642346 -0.759839538 0.41108182
vn -0.0208576909 0.21137444 0.977182584
vn -0.0208576909 0.21137444 0.977182584
vn -0.0482912502 0.197020962 0.979209219
vn 0.012101143 0.228336129 0.973507152
vn -0.174182478 -0.477458001 0.861216768
vn -0.174182478 -0.477458001 0.861216768
vn -0.291130566 -0.429191187 0.855007555
vn -0.0827592862 -0.509237124 0.856637877
vn 0.13234718 -0.126979793 0.983036294
vn 0.13234718 -0.126979793 0.983036294
vn 0.0493816499 -0.0547195137 0.997279914
vn 0.212963912 -0.197052156 0.956983187
vn -0.618414782 -0.77614545 0.123131625
vn -0.618414782 -0.77614545 0.123131625
vn -0.235068113 -0.968781889 -0.0787695027
vn -0.773485861 -0.592735431 0.224464543
vn -0.225746557 0.669286012 -0.707880446
vn -0.225746557 0.669286012 -0.707880446
vn -0.237381695 0.649574829 -0.722289743
vn -0.216868591 0.683817845 -0.69667867
vn -0.31972154 0.627972036 -0.70952749
vn -0.31972154 0.627972036 -0.70952749
vn -0.321933709 0.66190993 -0.676929784
vn -0.318905834 0.617346165 -0.719154213
vn -0.406724219 0.139233905 0.902878358
vn -0.406724219 0.139233905 0.902878358
vn -0.406724219 0.139233905 0.902878358
vn -0.25827876 0.146140867 0.954952841
vn -0.25827876 0.146140867 0.954952841
vn -0.25827876 0.146140867 0.954952841
vn -0.635059984 0.240955079 0.733920613
vn -0.635059984 0.240955079 0.733920613
vn -0.635059984 0.240955079 0.733920613
vn -0.329077049 -0.366467842 0.870292834
vn -0.329077049 -0.366467842 0.870292834
vn -0.329077049 -0.366467842 0.870292834
vn -0.512393082 -0.667749856 0.539966165
vn -0.512393082 -0.667749856 0.539966165
vn -0.544563066 -0.620385022 0.56442315
vn -0.440031537 -0.756946417 0.483119414
vn -0.830236538 0.120495147 0.544231762
vn -0.830236538 0.120495147 0.544231762
vn -0.71559959 0.0561847508 0.696247442
vn -0.873609892 0.149805461 0.462994688
vn -0.899989538 -0.0333619353 0.434632964
vn -0.899989538 -0.0333619353 0.434632964
vn -0.899989538 -0.0333619353 0.434632964
vn -0.468768524 -0.872725135 0.136407147
vn -0.468768524 -0.872725135 0.136407147
vn -0.428671607 -0.902018575 0.0510210089
vn -0.52161163 -0.810838322 0.265447777
vn -0.0710954255 -0.620638143 0.780867297
vn -0.0710954255 -0.620638143 0.780867297
vn -0.0574244623 -0.62684858 0.777022065
vn -0.0880107625 -0.612736251 0.7853715
vn 0.309876301 -0.558915025 0.769149318
vn 0.309876301 -0.558915025 0.769149318
vn 0.159296811 -0.376557382 0.912594687
vn 0.388100988 -0.647033912 0.656296229
vn -0.849507346 -0.468236585 0.243087987
vn -0.823158516 -0.462399271 0.329540545
vn -0.823158516 -0.462399271 0.329540545
vn -0.870151892 -0.470226043 0.147387765
vn -0.870151892 -0.470226043 0.147387765
vn -0.232068022 0.456729105 0.858803213
vn -0.232068022 0.456729105 0.858803213
vn -0.232068022 0.456729105 0.858803213
vn -0.834525718 -0.0180055012 0.550674703
vn -0.821919967 -0.0217600874 0.569187198
vn -0.834525718 -0.0180055012 0.550674703
vn -0.843922803 -0.0151131609 0.536251709
vn 0.177567828 -0.767370528 0.616126724
vn 0.177567828 -0.767370528 0.616126724
vn 0.163037419 -0.761985989 0.626734515
vn 0.188443715 -0.771238039 0.60801386
vn -0.665290438 -0.731189865 -0.15083108
vn -0.665290438 -0.731189865 -0.15083108
vn -0.657865477 -0.734348481 -0.167168546
vn -0.675384608 -0.726323566 -0.127709467
vn -0.372658642 -0.234380808 0.897881492
vn -0.372658642 -0.234380808 0.897881492
vn -0.372658642 -0.234380808 0.897881492
vn 0.32526424 -0.68404478 0.652905746
vn 0.32526424 -0.68404478 0.652905746
vn 0.214617778 -0.623304104 0.751951597
vn 0.393906432 -0.714579655 0.578112133
vn -0.356174296 0.225939051 0.90669257
vn -0.356174296 0.225939051 0.90669257
vn -0.356174296 0.225939051 0.90669257
vn -0.88669466 -0.455271877 -0.0806231838
vn -0.822466266 -0.543243005 0.168630597
vn -0.822466266 -0.543243005 0.168630597
vn -0.894323641 -0.399083495 -0.202280967
vn -0.894323641 -0.399083495 -0.202280967
vn -0.427579471 0.278805466 0.859908895
vn -0.427579471 0.278805466 0.859908895
vn -0.427579471 0.278805466 0.859908895
vn -0.922989948 -0.146055082 0.35603015
vn -0.922989948 -0.146055082 0.35603015
vn -0.922989948 -0.146055082 0.35603015
vn -0.741468765 -0.0233617528 0.670580569
vn -0.741468765 -0.0233617528 0.670580569
vn -0.728427434 -0.037975521 0.684069684
vn -0.754059484 -0.00877160102 0.656747557
vn -0.899779693 -0.258324562 0.35166024
vn -0.899779693 -0.258324562 0.35166024
vn -0.899779693 -0.258324562 0.35166024
vn 0.224785311 -0.669709333 0.707785966
vn 0.224785311 -0.669709333 0.707785966
vn 0.25419405 -0.66032054 0.706655623
vn 0.182092048 -0.68209744 0.70822706
vn -0.41017976 -0.720895319 0.558625548
vn -0.41017976 -0.720895319 0.558625548
vn -0.475542015 -0.737348445 0.479767717
vn -0.295920526 -0.678182787 0.672680571
vn -0.193968174 -0.548938011 0.81304576
vn -0.193968174 -0.548938011 0.81304576
vn -0.536873322 -0.309008976 0.785035343
vn 0.51977244 -0.714917106 0.467685943
vn -0.525601634 -0.258729148 0.81043331
vn -0.525601634 -0.258729148 0.81043331
vn -0.348199213 -0.583886226 0.73337179
vn -0.642668718 0.423117796 0.638708267
vn -0.624066022 -0.674273906 0.394837055
vn -0.624066022 -0.674273906 0.394837055
vn -0.624066022 -0.674273906 0.394837055
vn -0.413873202 0.673129216 -0.612867058
vn -0.413873202 0.673129216 -0.612867058
vn -0.413873202 0.673129216 -0.612867058
vn -0.13748194 -0.27725036 -0.950910592
vn -0.13748194 -0.27725036 -0.950910592
vn -0.13748194 -0.27725036 -0.950910592
vn -0.197432815 0.306869567 -0.931048523
vn -0.197432815 0.306869567 -0.931048523
vn -0.251249904 0.348328304 -0.903073019
vn -0.168656874 0.284365813 -0.943764241
vn -0.184380234 0.126668584 -0.974658401
vn -0.184380234 0.126668584 -0.974658401
vn -0.184380234 0.126668584 -0.974658401
vn -0.053430524 -0.208340562 -0.976595817
vn -0.053430524 -0.208340562 -0.976595817
vn 0.210250851 -0.462279277 -0.86144788
vn -0.0996469203 -0.159832008 -0.98210194
vn -0.0495492851 -0.123919967 -0.991054343
vn -0.0495492851 -0.123919967 -0.991054343
vn -0.0495492851 -0.123919967 -0.991054343
vn 0.700544421 -0.339246475 0.627813143
vn 0.700544421 -0.339246475 0.627813143
vn 0.700544421 -0.339246475 0.627813143
vn -0.201105112 -0.447751367 -0.87124936
vn -0.201105112 -0.447751367 -0.87124936
vn -0.201105112 -0.447751367 -0.87124936
vn 0.00578247263 -0.806574875 -0.591103658
vn 0.00578247263 -0.806574875 -0.591103658
vn 0.00578247263 -0.806574875 -0.591103658
vn 0.158226893 -0.80205646 -0.575907706
vn 0.158226893 -0.80205646 -0.575907706
vn 0.158226893 -0.80205646 -0.575907706
vn -0.11845819 -0.502415693 -0.856473075
vn -0.11845819 -0.502415693 -0.856473075
vn -0.11845819 -0.502415693 -0.856473075
vn 0.313667135 0.169892039 -0.934210696
vn 0.313667135 0.169892039 -0.934210696
vn 0.313667135 0.169892039 -0.934210696
vn 0.420437292 0.672216066 -0.609391537
vn 0.420437292 0.672216066 -0.609391537
vn 0.420437292 0.672216066 -0.609391537
vn 0.652468313 0.663743302 -0.365691029
vn 0.652468313 0.663743302 -0.365691029
vn 0.652468313 0.663743302 -0.365691029
vn -0.808580617 0.016761506 0.588146613
vn -0.808580617 0.016761506 0.588146613
vn -0.808580617 0.016761506 0.588146613
vn -0.141850275 -0.131426033 -0.98112471
vn -0.141850275 -0.131426033 -0.98112471
vn -0.141850275 -0.131426033 -0.98112471
vn 0.802073533 -0.501302184 0.324613875
vn 0.617207545 -0.55368936 0.559001734
vn 0.617207545 -0.55368936 0.559001734
vn 0.87863051 -0.447092719 0.167679834
vn 0.87863051 -0.447092719 0.167679834
vn 0.825574412 -0.522592496 0.212894279
vn 0.825574412 -0.522592496 0.212894279
vn 0.857427001 -0.494399282 0.142787561
vn 0.727348364 -0.575464118 0.373905611
vn 0.539357899 -0.803408552 0.252245425
vn 0.539357899 -0.803408552 0.252245425
vn 0.569740605 -0.793344148 0.214477753
vn 0.497918742 -0.813540966 0.300379797
vn 0.814908947 0.153882113 -0.558787709
vn 0.814908947 0.153882113 -0.558787709
vn 0.814908947 0.153882113 -0.558787709
vn -0.322234383 -0.449704637 0.833025055
vn -0.322234383 -0.449704637 0.833025055
vn -0.322234383 -0.449704637 0.833025055

g ArmorBag_22_00_Bag_submesh_0
usemtl man18_beibao
f 1/1/1 3/3/3 2/2/2
f 4/4/4 2/2/2 5/5/5
f 6/6/6 8/8/8 7/7/7
f 6/6/6 7/7/7 9/9/9
f 10/10/10 12/12/12 11/11/11
f 10/10/10 11/11/11 13/13/13
f 14/14/14 16/16/16 15/15/15
f 15/15/15 16/16/16 17/17/17
f 18/18/18 20/20/20 19/19/19
f 21/21/21 23/23/23 22/22/22
f 24/24/24 26/26/26 25/25/25
f 27/27/27 29/29/29 28/28/28
f 27/27/27 28/28/28 30/30/30
f 31/31/31 33/33/33 32/32/32
f 31/31/31 32/32/32 34/34/34
f 35/35/35 37/37/37 36/36/36
f 38/38/38 40/40/40 39/39/39
f 41/41/41 43/43/43 42/42/42
f 41/41/41 42/42/42 44/44/44
f 45/45/45 47/47/47 46/46/46
f 45/45/45 46/46/46 48/48/48
f 49/49/49 51/51/51 50/50/50
f 49/49/49 50/50/50 52/52/52
f 53/53/53 55/55/55 54/54/54
f 53/53/53 54/54/54 56/56/56
f 57/57/57 59/59/59 58/58/58
f 57/57/57 58/58/58 60/60/60
f 61/61/61 63/63/63 62/62/62
f 61/61/61 62/62/62 64/64/64
f 65/65/65 67/67/67 66/66/66
f 65/65/65 66/66/66 68/68/68
f 69/69/69 71/71/71 70/70/70
f 69/69/69 70/70/70 72/72/72
f 73/73/73 75/75/75 74/74/74
f 73/73/73 74/74/74 76/76/76
f 77/77/77 79/79/79 78/78/78
f 80/80/80 82/82/82 81/81/81
f 83/83/83 85/85/85 84/84/84
f 86/86/86 88/88/88 87/87/87
f 89/89/89 91/91/91 90/90/90
f 89/89/89 90/90/90 92/92/92
f 93/93/93 95/95/95 94/94/94
f 93/93/93 94/94/94 96/96/96
f 97/97/97 99/99/99 98/98/98
f 100/100/100 102/102/102 101/101/101
f 100/100/100 101/101/101 103/103/103
f 104/104/104 106/106/106 105/105/105
f 104/104/104 105/105/105 107/107/107
f 108/108/108 110/110/110 109/109/109
f 108/108/108 109/109/109 111/111/111
f 112/112/112 114/114/114 113/113/113
f 112/112/112 116/116/116 115/115/115
f 117/117/117 119/119/119 118/118/118
f 120/120/120 122/122/122 121/121/121
f 120/120/120 121/121/121 123/123/123
f 124/124/124 126/126/126 125/125/125
f 124/124/124 125/125/125 127/127/127
f 128/128/128 130/130/130 129/129/129
f 128/128/128 129/129/129 131/131/131
f 132/132/132 134/134/134 133/133/133
f 135/135/135 137/137/137 136/136/136
f 135/135/135 136/136/136 138/138/138
f 139/139/139 141/141/141 140/140/140
f 142/142/142 144/144/144 143/143/143
f 142/142/142 146/146/146 145/145/145
f 147/147/147 149/149/149 148/148/148
f 150/150/150 152/152/152 151/151/151
f 153/153/153 155/155/155 154/154/154
f 153/153/153 154/154/154 156/156/156
f 157/157/157 159/159/159 158/158/158
f 160/160/160 162/162/162 161/161/161
f 160/160/160 161/161/161 163/163/163
f 164/164/164 166/166/166 165/165/165
f 164/164/164 165/165/165 167/167/167
f 168/168/168 170/170/170 169/169/169
f 168/168/168 169/169/169 171/171/171
f 172/172/172 174/174/174 173/173/173
f 172/172/172 173/173/173 175/175/175
f 176/176/176 178/178/178 177/177/177
f 179/179/179 181/181/181 180/180/180
f 182/182/182 184/184/184 183/183/183
f 185/185/185 187/187/187 186/186/186
f 185/185/185 186/186/186 188/188/188
f 189/189/189 191/191/191 190/190/190
f 192/192/192 194/194/194 193/193/193
f 192/192/192 193/193/193 195/195/195
f 196/196/196 198/198/198 197/197/197
f 199/199/199 201/201/201 200/200/200
f 202/202/202 204/204/204 203/203/203
f 205/205/205 207/207/207 206/206/206
f 208/208/208 210/210/210 209/209/209
f 211/211/211 213/213/213 212/212/212
f 214/214/214 216/216/216 215/215/215
f 217/217/217 219/219/219 218/218/218
f 220/220/220 222/222/222 221/221/221
f 223/223/223 225/225/225 224/224/224
f 226/226/226 228/228/228 227/227/227
f 229/229/229 231/231/231 230/230/230
f 229/229/229 233/233/233 232/232/232
f 234/234/234 236/236/236 235/235/235
f 234/234/234 235/235/235 237/237/237
f 238/238/238 240/240/240 239/239/239
f 238/238/238 239/239/239 241/241/241
f 242/242/242 244/244/244 243/243/243
f 245/245/245 247/247/247 246/246/246
f 248/248/248 250/250/250 249/249/249
f 251/251/251 249/249/249 252/252/252
f 253/253/253 255/255/255 254/254/254
f 253/253/253 254/254/254 256/256/256
f 257/257/257 259/259/259 258/258/258
f 257/257/257 258/258/258 260/260/260
f 261/261/261 263/263/263 262/262/262
f 263/263/263 264/264/264 262/262/262
f 265/265/265 267/267/267 266/266/266
f 268/268/268 270/270/270 269/269/269
f 271/271/271 273/273/273 272/272/272
f 274/274/274 276/276/276 275/275/275
f 274/274/274 275/275/275 277/277/277
f 278/278/278 280/280/280 279/279/279
f 278/278/278 279/279/279 281/281/281
f 282/282/282 284/284/284 283/283/283
f 285/285/285 287/287/287 286/286/286
f 288/288/288 290/290/290 289/289/289
f 288/288/288 289/289/289 291/291/291
f 292/292/292 294/294/294 293/293/293
f 292/292/292 293/293/293 295/295/295
f 296/296/296 298/298/298 297/297/297
f 296/296/296 297/297/297 299/299/299
f 300/300/300 302/302/302 301/301/301
f 300/300/300 301/301/301 303/303/303
f 304/304/304 306/306/306 305/305/305
f 304/304/304 305/305/305 307/307/307
f 308/308/308 310/310/310 309/309/309
f 308/308/308 309/309/309 311/311/311
f 312/312/312 314/314/314 313/313/313
f 312/312/312 313/313/313 315/315/315
f 316/316/316 318/318/318 317/317/317
f 316/316/316 317/317/317 319/319/319
f 320/320/320 322/322/322 321/321/321
f 320/320/320 321/321/321 323/323/323
f 324/324/324 326/326/326 325/325/325
f 327/327/327 329/329/329 328/328/328
f 330/330/330 332/332/332 331/331/331
f 333/333/333 335/335/335 334/334/334
f 336/336/336 338/338/338 337/337/337
f 336/336/336 337/337/337 339/339/339
f 340/340/340 342/342/342 341/341/341
f 340/340/340 341/341/341 343/343/343
f 344/344/344 346/346/346 345/345/345
f 347/347/347 349/349/349 348/348/348
f 347/347/347 348/348/348 350/350/350
f 351/351/351 353/353/353 352/352/352
f 351/351/351 352/352/352 354/354/354
f 355/355/355 357/357/357 356/356/356
f 355/355/355 356/356/356 358/358/358
f 359/359/359 361/361/361 360/360/360
f 359/359/359 363/363/363 362/362/362
f 364/364/364 366/366/366 365/365/365
f 367/367/367 369/369/369 368/368/368
f 367/367/367 370/370/370 369/369/369
f 371/371/371 373/373/373 372/372/372
f 371/371/371 372/372/372 374/374/374
f 375/375/375 377/377/377 376/376/376
f 375/375/375 376/376/376 378/378/378
f 379/379/379 381/381/381 380/380/380
f 382/382/382 384/384/384 383/383/383
f 382/382/382 383/383/383 385/385/385
f 386/386/386 388/388/388 387/387/387
f 389/389/389 391/391/391 390/390/390
f 389/389/389 393/393/393 392/392/392
f 394/394/394 396/396/396 395/395/395
f 397/397/397 399/399/399 398/398/398
f 400/400/400 402/402/402 401/401/401
f 400/400/400 401/401/401 403/403/403
f 404/404/404 406/406/406 405/405/405
f 407/407/407 409/409/409 408/408/408
f 407/407/407 408/408/408 410/410/410
f 411/411/411 413/413/413 412/412/412
f 411/411/411 412/412/412 414/414/414
f 415/415/415 417/417/417 416/416/416
f 415/415/415 416/416/416 418/418/418
f 419/419/419 421/421/421 420/420/420
f 419/419/419 420/420/420 422/422/422
f 423/423/423 425/425/425 424/424/424
f 426/426/426 428/428/428 427/427/427
f 429/429/429 431/431/431 430/430/430
f 432/432/432 434/434/434 433/433/433
f 432/432/432 433/433/433 435/435/435
f 436/436/436 438/438/438 437/437/437
f 439/439/439 441/441/441 440/440/440
f 439/439/439 440/440/440 442/442/442
f 443/443/443 445/445/445 444/444/444
f 446/446/446 448/448/448 447/447/447
f 449/449/449 451/451/451 450/450/450
f 452/452/452 454/454/454 453/453/453
f 455/455/455 457/457/457 456/456/456
f 458/458/458 460/460/460 459/459/459
f 461/461/461 463/463/463 462/462/462
f 464/464/464 466/466/466 465/465/465
f 467/467/467 469/469/469 468/468/468
f 470/470/470 472/472/472 471/471/471
f 473/473/473 475/475/475 474/474/474
f 476/476/476 478/478/478 477/477/477
f 476/476/476 480/480/480 479/479/479
f 481/481/481 483/483/483 482/482/482
f 481/481/481 482/482/482 484/484/484
f 485/485/485 487/487/487 486/486/486
f 485/485/485 486/486/486 488/488/488
f 489/489/489 491/491/491 490/490/490
f 492/492/492 494/494/494 493/493/493
