# Generated from legacy Unity YAML Mesh assets without Unity.
mtllib ArmorBag_10.mtl

o ArmorBag_10_00_Bag
v 0.28509827 -0.0900536403 -0.151325509
v 0.242063105 0.00108587742 0.0369904488
v 0.297834352 0.0354107544 -0.170724213
v 0.223247409 -0.121226743 0.00407776237
v -8.90235348e-09 0.173245251 -0.153640985
v 0.181635678 -0.174341708 -0.0376827568
v 0.0802084134 -0.154515952 0.0656065792
v 0.100706712 0.0278308168 0.0634120703
v -8.90235348e-09 -0.125656217 0.0381323397
v -8.90235348e-09 -0.00399702042 0.0284409076
v -8.90235348e-09 0.0747371018 0.0613525659
v 0.0393562095 -0.410759926 -0.22562474
v -8.90235348e-09 -0.410759926 -0.22562474
v -8.90235348e-09 0.11830321 0.0604410172
v -8.90235348e-09 0.173245251 -0.153640985
v 0.160906702 -0.329229861 -0.149653748
v 0.22533834 -0.28707701 -0.209095627
v 0.0586938971 -0.394056082 -0.169562519
v 0.0393562095 -0.410759926 -0.22562474
v 0.0586938971 -0.394056082 -0.169562519
v 0.0393562095 -0.410759926 -0.22562474
v 0.22533834 -0.28707701 -0.209095627
v 0.28509827 -0.0900536403 -0.151325509
v -8.90235348e-09 -0.0905741826 -0.376845121
v 0.297834352 0.0354107544 -0.170724213
v -8.90235348e-09 0.173245251 -0.153640985
v 0.0393562095 -0.410759926 -0.22562474
v -8.90235348e-09 -0.410759926 -0.22562474
v 0.103764735 -0.158652693 0.0414701402
v 0.206474275 -0.28323704 0.0876012295
v 0.14839986 -0.23393923 0.0794808716
v 0.163770154 -0.149679303 -0.0039537847
v 0.205331355 -0.295754671 0.0679075867
v 0.155927777 -0.176749229 -0.0242755562
v 0.103764735 -0.158652693 0.0414701402
v 0.205331355 -0.295754671 0.0679075867
v 0.155927777 -0.176749229 -0.0242755562
v 0.14839986 -0.23393923 0.0794808716
v 0.205331355 -0.295754671 0.0679075867
v 0.14839986 -0.23393923 0.0794808716
v 0.206474275 -0.28323704 0.0876012295
v 0.0888438897 -0.248764366 -0.0420764536
v 0.174274534 -0.355295539 -0.0279408097
v 0.122814715 -0.317536682 -0.0245235637
v 0.143638626 -0.241245121 -0.0797803998
v 0.137347475 -0.251562119 -0.100699961
v 0.167983383 -0.365612119 -0.0488607213
v 0.0888438897 -0.248764366 -0.0420764536
v 0.167983383 -0.365612119 -0.0488607213
v 0.137347475 -0.251562119 -0.100699961
v 0.122814715 -0.317536682 -0.0245235637
v 0.167983383 -0.365612119 -0.0488607213
v 0.122814715 -0.317536682 -0.0245235637
v 0.174274534 -0.355295539 -0.0279408097
v 0.123514943 0.144084632 0.0430072397
v 0.242645994 0.128071845 0.108734518
v 0.134146378 0.051918596 0.0528889298
v 0.242884964 -0.00166717917 0.0429646224
v 0.322364524 0.0437246263 0.0496337861
v 0.345306084 0.142837495 0.0383572131
v 0.186972216 0.219366521 0.026577428
v 0.282859579 0.220048189 0.0193390101
v 0.344230309 0.128733546 -0.147785187
v 0.29342641 0.109440297 -0.260394067
v 0.28948538 0.036460571 -0.166581035
v 0.281366125 0.208779514 -0.1527154
v 0.266030118 0.164606094 -0.261035204
v 0.282859579 0.220048189 0.0193390101
v 0.345306084 0.142837495 0.0383572131
v 0.322364524 0.0437246263 0.0496337861
v 0.242884964 -0.00166717917 0.0429646224
v 0.186972216 0.219366521 0.026577428
v 0.180773139 0.198221415 -0.150529891
v 0.123514943 0.144084632 0.0430072397
v 0.204789013 0.143461317 -0.260405988
v 0.152425602 0.0996798724 -0.160168201
v 0.134146378 0.051918596 0.0528889298
v 0.204789013 0.143461317 -0.260405988
v 0.29342641 0.109440297 -0.260394067
v 0.266030118 0.164606094 -0.261035204
v 0.28948538 0.036460571 -0.166581035
v 0.152425602 0.0996798724 -0.160168201
v -0.285098299 -0.0900536403 -0.151325509
v -0.242063135 0.00108587742 0.0369904488
v -0.223247439 -0.121226743 0.00407776237
v -0.297834381 0.0354107544 -0.170724213
v -0.181635707 -0.174341708 -0.0376827568
v -0.0802084281 -0.154515952 0.0656065792
v -0.100706726 0.0278308168 0.0634120703
v -8.90235348e-09 -0.125656217 0.0381323397
v -8.90235348e-09 -0.00399702042 0.0284409076
v -8.90235348e-09 0.0747371018 0.0613525659
v -0.0393562241 -0.410759926 -0.22562474
v -8.90235348e-09 -0.410759926 -0.22562474
v -8.90235348e-09 0.11830321 0.0604410172
v -8.90235348e-09 0.173245251 -0.153640985
v -0.225338369 -0.28707701 -0.209095627
v -0.160906732 -0.329229861 -0.149653748
v -0.0586939117 -0.394056082 -0.169562519
v -0.0393562241 -0.410759926 -0.22562474
v -0.0586939117 -0.394056082 -0.169562519
v -0.0393562241 -0.410759926 -0.22562474
v -0.225338369 -0.28707701 -0.209095627
v -8.90235348e-09 -0.0905741826 -0.376845121
v -0.285098299 -0.0900536403 -0.151325509
v -0.297834381 0.0354107544 -0.170724213
v -8.90235348e-09 0.173245251 -0.153640985
v -0.0393562241 -0.410759926 -0.22562474
v -8.90235348e-09 -0.410759926 -0.22562474
v -0.10376475 -0.158652693 0.0414701402
v -0.206474304 -0.28323704 0.0876012295
v -0.163770184 -0.149679303 -0.0039537847
v -0.148399889 -0.23393923 0.0794808716
v -0.205331385 -0.295754671 0.0679075867
v -0.155927807 -0.176749229 -0.0242755562
v -0.10376475 -0.158652693 0.0414701402
v -0.205331385 -0.295754671 0.0679075867
v -0.148399889 -0.23393923 0.0794808716
v -0.155927807 -0.176749229 -0.0242755562
v -0.205331385 -0.295754671 0.0679075867
v -0.206474304 -0.28323704 0.0876012295
v -0.148399889 -0.23393923 0.0794808716
v -0.0888439043 -0.248764366 -0.0420764536
v -0.174274564 -0.355295539 -0.0279408097
v -0.143638655 -0.241245121 -0.0797803998
v -0.12281473 -0.317536682 -0.0245235637
v -0.137347504 -0.251562119 -0.100699961
v -0.167983413 -0.365612119 -0.0488607213
v -0.0888439043 -0.248764366 -0.0420764536
v -0.167983413 -0.365612119 -0.0488607213
v -0.12281473 -0.317536682 -0.0245235637
v -0.137347504 -0.251562119 -0.100699961
v -0.167983413 -0.365612119 -0.0488607213
v -0.174274564 -0.355295539 -0.0279408097
v -0.12281473 -0.317536682 -0.0245235637
v -0.125613049 0.142116249 0.0430072397
v -0.136244491 0.0499501973 0.0528889298
v -0.244744107 0.126103446 0.108734518
v -0.244983107 -0.00363556296 0.0429646224
v -0.324462637 0.04175625 0.0496337861
v -0.347404197 0.140869111 0.0383572131
v -0.189070329 0.217398137 0.026577428
v -0.284957692 0.218079805 0.0193390101
v -0.346328422 0.126765147 -0.147785187
v -0.291583493 0.0344921798 -0.166581035
v -0.295524523 0.107471898 -0.260394067
v -0.283464238 0.20681113 -0.1527154
v -0.268128231 0.162637711 -0.261035204
v -0.284957692 0.218079805 0.0193390101
v -0.347404197 0.140869111 0.0383572131
v -0.324462637 0.04175625 0.0496337861
v -0.244983107 -0.00363556296 0.0429646224
v -0.189070329 0.217398137 0.026577428
v -0.182871252 0.196253031 -0.150529891
v -0.125613049 0.142116249 0.0430072397
v -0.206887126 0.141492948 -0.260405988
v -0.154523715 0.0977114886 -0.160168201
v -0.136244491 0.0499501973 0.0528889298
v -0.206887126 0.141492948 -0.260405988
v -0.268128231 0.162637711 -0.261035204
v -0.295524523 0.107471898 -0.260394067
v -0.291583493 0.0344921798 -0.166581035
v -0.154523715 0.0977114886 -0.160168201
vt 0.516368985 0.474063993
vt 0.31179899 0.633825004
vt 0.521040976 0.715233982
vt 0.306048989 0.481604993
vt 0.013092 0.989326
vt 0.264714003 0.382692009
vt 0.11902 0.463946998
vt 0.140065998 0.675902009
vt 0.013092 0.47865501
vt 0.013092 0.63082701
vt 0.013092 0.734386981
vt 0.0583980009 0.0076580001
vt 0.013092 0.00950099993
vt 0.013092 0.788469017
vt 0.013092 0.989326
vt 0.230938002 0.141636997
vt 0.362331986 0.109407
vt 0.0942810029 0.0742150024
vt 0.0583980009 0.0076580001
vt 0.0942810029 0.0742150024
vt 0.0583980009 0.0076580001
vt 0.737532973 0.582795024
vt 0.690851986 0.75553
vt 0.991062999 0.709793985
vt 0.6972 0.85215199
vt 0.943987012 0.986617029
vt 0.861981988 0.442676991
vt 0.892525017 0.430361986
vt 0.384447992 0.878050029
vt 0.244152993 0.962918997
vt 0.259570003 0.908191979
vt 0.388758987 0.962918997
vt 0.218214005 0.986492991
vt 0.384521991 0.986492991
vt 0.384447992 0.986492991
vt 0.244152993 0.962918997
vt 0.388758987 0.962918997
vt 0.259570003 0.986492991
vt 0.218214005 0.986492991
vt 0.259570003 0.908191979
vt 0.244152993 0.962918997
vt 0.384447992 0.878050983
vt 0.244152993 0.962918997
vt 0.259570003 0.908191979
vt 0.388758987 0.962918997
vt 0.384521991 0.986492991
vt 0.218214005 0.986492991
vt 0.384447992 0.986492991
vt 0.244152993 0.962918997
vt 0.388758987 0.962918997
vt 0.259570003 0.986492991
vt 0.218214005 0.986492991
vt 0.259570003 0.908191979
vt 0.244152993 0.962918997
vt 0.431223989 0.905282974
vt 0.555483997 0.870082974
vt 0.446029991 0.80290699
vt 0.550216019 0.74169302
vt 0.64933002 0.79063499
vt 0.68087697 0.89753902
vt 0.498829007 0.990420997
vt 0.611095011 0.991599023
vt 0.767971992 0.215430006
vt 0.748829007 0.353302002
vt 0.853411019 0.268898994
vt 0.671007991 0.214484006
vt 0.676690996 0.353302002
vt 0.669353008 0.014161
vt 0.779092014 0.014161
vt 0.889820993 0.014161
vt 0.99455899 0.014161
vt 0.565461993 0.014161
vt 0.57328701 0.220703006
vt 0.458896995 0.014161
vt 0.600785017 0.353302002
vt 0.473428011 0.272367001
vt 0.357147008 0.014161
vt 0.693870008 0.515277028
vt 0.59207201 0.515277028
vt 0.640690982 0.559978008
vt 0.559063017 0.392518014
vt 0.727168024 0.392518014
vt 0.516368985 0.474063993
vt 0.31179899 0.633825004
vt 0.306048989 0.481604993
vt 0.521040976 0.715233982
vt 0.264714003 0.382692009
vt 0.11902 0.463946998
vt 0.140065998 0.675902009
vt 0.013092 0.47865501
vt 0.013092 0.63082701
vt 0.013092 0.734386981
vt 0.0583980009 0.0076580001
vt 0.013092 0.00950099993
vt 0.013092 0.788469017
vt 0.013092 0.989326
vt 0.362331986 0.109407
vt 0.230938002 0.141636997
vt 0.0942810029 0.0742150024
vt 0.0583980009 0.0076580001
vt 0.0942810029 0.0742150024
vt 0.0583980009 0.0076580001
vt 0.737532973 0.582795024
vt 0.991062999 0.709793985
vt 0.690851986 0.75553
vt 0.6972 0.85215199
vt 0.943987012 0.986617029
vt 0.861981988 0.442676991
vt 0.892525017 0.430361986
vt 0.384447992 0.878050029
vt 0.244152993 0.962918997
vt 0.388758987 0.962918997
vt 0.259570003 0.908191979
vt 0.218214005 0.986492991
vt 0.384521991 0.986492991
vt 0.384447992 0.986492991
vt 0.244152993 0.962918997
vt 0.259570003 0.986492991
vt 0.388758987 0.962918997
vt 0.218214005 0.986492991
vt 0.244152993 0.962918997
vt 0.259570003 0.908191979
vt 0.384447992 0.878050983
vt 0.244152993 0.962918997
vt 0.388758987 0.962918997
vt 0.259570003 0.908191979
vt 0.384521991 0.986492991
vt 0.218214005 0.986492991
vt 0.384447992 0.986492991
vt 0.244152993 0.962918997
vt 0.259570003 0.986492991
vt 0.388758987 0.962918997
vt 0.218214005 0.986492991
vt 0.244152993 0.962918997
vt 0.259570003 0.908191979
vt 0.431223989 0.905282974
vt 0.446029991 0.80290699
vt 0.555483997 0.870082974
vt 0.550216019 0.74169302
vt 0.64933002 0.79063499
vt 0.68087697 0.89753902
vt 0.498829007 0.990420997
vt 0.611095011 0.991599023
vt 0.767971992 0.215430006
vt 0.853411019 0.268898994
vt 0.748829007 0.353302002
vt 0.671007991 0.214484006
vt 0.676690996 0.353302002
vt 0.669353008 0.014161
vt 0.779092014 0.014161
vt 0.889820993 0.014161
vt 0.99455899 0.014161
vt 0.565461993 0.014161
vt 0.57328701 0.220703006
vt 0.458896995 0.014161
vt 0.600785017 0.353302002
vt 0.473428011 0.272367001
vt 0.357147008 0.014161
vt 0.693870008 0.515277028
vt 0.640690982 0.559978008
vt 0.59207201 0.515277028
vt 0.559063017 0.392518014
vt 0.727168024 0.392518014
vn 0.890987605 -0.307031348 0.334473973
vn 0.626589673 0.55338495 0.548771791
vn 0.647963093 0.704163389 0.290340752
vn 0.707460684 -0.468814821 0.528878101
vn 0 0.95938643 0.282095159
vn 0.695289914 -0.525607292 0.490213128
vn 0.0827628197 -0.506270175 0.85839433
vn -0.076590333 0.0170252952 0.996917279
vn -0.345113651 -0.427367617 0.835615634
vn -0.29485339 -0.109985913 0.949191539
vn 0.0319750891 -0.00632425032 0.999468658
vn -0.316040123 -0.667426252 0.674285428
vn 0 -0.679092138 0.734053042
vn 0.433160382 0.819399565 0.375441655
vn 0.442273898 0.868727209 0.222950299
vn 0.513926403 -0.634253304 0.577583239
vn 0.751821903 -0.553531335 0.358283249
vn 0.544704878 -0.838160701 0.0279863334
vn 0.549151677 -0.833639999 0.0589642879
vn 0.0253850592 -0.701500475 0.712216738
vn -0.868435503 -0.305428771 0.390554788
vn 0.485944802 -0.173925892 -0.856508864
vn 0.619784911 -0.0461138916 -0.783415709
vn 0.442726995 0.0995295346 -0.891115413
vn 0.391509135 0.416708696 -0.820411153
vn 0.247206383 0.625848784 -0.739731238
vn 0.274802531 -0.382789942 -0.882017817
vn 0 -0.427056085 -0.904225138
vn 0.419936196 0.598743496 0.682026258
vn 0.590103656 0.574668319 0.567039679
vn 0.405055995 0.591946181 0.696799368
vn 0.811067969 0.491869391 0.316596353
vn 0.940904978 0.110156622 -0.320255118
vn 0.90654626 0.0518478713 -0.418910105
vn -0.706608752 -0.596779206 -0.380208694
vn -0.706608752 -0.596779206 -0.380208694
vn -0.70121593 -0.595160243 -0.392530896
vn -0.722182377 -0.601022075 -0.342381484
vn -0.61404058 -0.649488731 0.448462433
vn -0.61404058 -0.649488731 0.448462433
vn -0.61404058 -0.649488731 0.448462433
vn 0.430766453 0.449297566 0.782669765
vn 0.773114091 0.409767961 0.484133061
vn 0.340893034 0.387052074 0.856727863
vn 0.701209404 0.442461621 0.559046587
vn 0.937885546 0.101075895 -0.331895114
vn 0.937886234 0.101077942 -0.331892545
vn -0.716084668 -0.454222566 -0.530004348
vn -0.716084668 -0.454222566 -0.530004348
vn -0.701209431 -0.442461543 -0.559046614
vn -0.754579747 -0.485430503 -0.44155026
vn -0.490650286 -0.713900319 0.499608479
vn -0.490650286 -0.713900319 0.499608479
vn -0.490650286 -0.713900319 0.499608479
vn -0.436472081 0.272434458 0.857479789
vn 0.0254866188 0.114753406 0.993067011
vn -0.300947796 -0.246744119 0.921166524
vn -0.00425912481 -0.452160892 0.891926223
vn 0.392154525 -0.249720016 0.885355715
vn 0.521115963 0.256610506 0.813995824
vn -0.169885326 0.599945917 0.781795288
vn 0.243681174 0.619077333 0.746567305
vn 0.983851131 0.0975494568 -0.150070167
vn 0.904085711 0.164572191 -0.394391963
vn 0.757290832 -0.638474824 -0.137333515
vn 0.353604095 0.910253915 -0.215411127
vn 0.104092217 0.891316824 -0.441269906
vn 0.586628821 0.807661168 -0.0595824149
vn 0.976370892 0.214985726 -0.0219321475
vn 0.827969413 -0.557839091 -0.0572904925
vn 0.498343045 -0.865721468 -0.0466963553
vn -0.325684266 0.941845076 -0.0828106987
vn -0.637292588 0.729607745 -0.248053816
vn -0.953540922 0.271543244 -0.130475965
vn -0.705426468 0.560671181 -0.433614259
vn -0.969733277 0.137157914 -0.202002666
vn -0.985628808 -0.125782735 -0.112758838
vn -0.316322512 -0.700720091 -0.63947746
vn -0.231841559 -0.6043005 -0.762279737
vn -0.00534452998 -0.0142748445 -0.999883826
vn -0.342289716 -0.757906414 -0.555351796
vn -0.37578626 -0.761073694 -0.528726317
vn -0.890987605 -0.307031348 0.334473973
vn -0.626589652 0.553384955 0.54877181
vn -0.707460661 -0.468814824 0.528878127
vn -0.647963079 0.704163402 0.29034075
vn -0.695289895 -0.5256073 0.490213145
vn -0.0827628136 -0.506270173 0.858394332
vn 0.0765903303 0.0170252953 0.996917279
vn 0.345113666 -0.42736761 0.835615631
vn 0.294853399 -0.109985913 0.949191536
vn -0.0319750876 -0.00632424726 0.999468658
vn 0.316040138 -0.667426248 0.674285425
vn 0 -0.679092138 0.734053042
vn -0.433160365 0.819399572 0.375441658
vn -0.442273881 0.868727217 0.222950301
vn -0.751821895 -0.553531354 0.358283239
vn -0.513926361 -0.634253324 0.577583254
vn -0.54470484 -0.838160726 0.0279863132
vn -0.549151645 -0.833640019 0.058964305
vn -0.0253850559 -0.701500475 0.712216738
vn 0.868435503 -0.305428771 0.390554788
vn -0.485944781 -0.173925896 -0.856508875
vn -0.44272698 0.0995295357 -0.891115421
vn -0.619784896 -0.0461138866 -0.783415721
vn -0.391509122 0.416708699 -0.820411157
vn -0.247206374 0.625848785 -0.73973124
vn -0.274802519 -0.382789947 -0.882017818
vn 0 -0.427056085 -0.904225138
vn -0.419936153 0.598743514 0.682026269
vn -0.590103608 0.574668344 0.567039705
vn -0.811067908 0.491869433 0.316596445
vn -0.405056071 0.591946253 0.696799263
vn -0.940904978 0.110156622 -0.320255118
vn -0.90654626 0.0518478713 -0.418910105
vn 0.706608703 -0.596779251 -0.380208715
vn 0.706608703 -0.596779251 -0.380208715
vn 0.722182411 -0.601022142 -0.342381294
vn 0.701215852 -0.595160278 -0.392530983
vn 0.61404058 -0.649488731 0.448462433
vn 0.61404058 -0.649488731 0.448462433
vn 0.61404058 -0.649488731 0.448462433
vn -0.430766353 0.449297554 0.782669827
vn -0.773113993 0.409767985 0.484133197
vn -0.701209311 0.442461641 0.559046687
vn -0.340892907 0.38705203 0.856727934
vn -0.937885546 0.101075895 -0.331895114
vn -0.937886234 0.101077942 -0.331892545
vn 0.716084563 -0.454222579 -0.530004479
vn 0.716084563 -0.454222579 -0.530004479
vn 0.754579616 -0.485430497 -0.441550491
vn 0.701209338 -0.442461563 -0.559046714
vn 0.490650191 -0.713900382 0.499608481
vn 0.490650191 -0.713900382 0.499608481
vn 0.490650191 -0.713900382 0.499608481
vn 0.436472041 0.272434426 0.857479819
vn 0.300947761 -0.246744167 0.921166522
vn -0.0254866176 0.114753407 0.993067011
vn 0.00425907331 -0.452160934 0.891926202
vn -0.392154602 -0.249719991 0.885355688
vn -0.521115936 0.256610514 0.813995839
vn 0.169885292 0.599945875 0.781795328
vn -0.243681149 0.619077288 0.746567351
vn -0.983851132 0.0975494562 -0.150070165
vn -0.757290886 -0.638474766 -0.137333488
vn -0.90408572 0.164572176 -0.39439195
vn -0.353604165 0.910253886 -0.215411134
vn -0.104092359 0.891316828 -0.441269863
vn -0.586628859 0.807661139 -0.0595824326
vn -0.97637089 0.214985732 -0.0219321651
vn -0.827969457 -0.557839028 -0.0572904608
vn -0.498343246 -0.865721354 -0.04669633
vn 0.325684258 0.941845079 -0.0828106998
vn 0.63729257 0.729607764 -0.248053806
vn 0.953540924 0.271543225 -0.130475988
vn 0.705426455 0.560671237 -0.433614208
vn 0.969733281 0.137157876 -0.202002676
vn 0.985628798 -0.125782795 -0.112758859
vn 0.316322603 -0.700720031 -0.639477482
vn 0.00534453409 -0.0142748427 -0.999883826
vn 0.231841752 -0.604300473 -0.7622797
vn 0.342289816 -0.757906354 -0.555351818
vn 0.375786273 -0.761073625 -0.528726407

g ArmorBag_10_00_Bag_submesh_0
usemtl 11
f 1/1/1 3/3/3 2/2/2
f 1/1/1 2/2/2 4/4/4
f 5/5/5 2/2/2 3/3/3
f 6/6/6 1/1/1 4/4/4
f 6/6/6 4/4/4 7/7/7
f 7/7/7 4/4/4 2/2/2
f 7/7/7 2/2/2 8/8/8
f 9/9/9 7/7/7 8/8/8
f 9/9/9 8/8/8 10/10/10
f 10/10/10 8/8/8 11/11/11
f 2/2/2 11/11/11 8/8/8
f 7/7/7 9/9/9 12/12/12
f 9/9/9 13/13/13 12/12/12
f 2/2/2 14/14/14 11/11/11
f 15/15/15 14/14/14 2/2/2
f 16/16/16 6/6/6 7/7/7
f 6/6/6 16/16/16 17/17/17
f 17/17/17 16/16/16 18/18/18
f 17/17/17 18/18/18 19/19/19
f 6/6/6 17/17/17 1/1/1
f 16/16/16 7/7/7 20/20/20
f 7/7/7 21/21/21 20/20/20
f 22/22/22 24/24/24 23/23/23
f 24/24/24 25/25/25 23/23/23
f 24/24/24 26/26/26 25/25/25
f 24/24/24 22/22/22 27/27/27
f 24/24/24 27/27/27 28/28/28
f 29/29/29 31/31/31 30/30/30
f 29/29/29 30/30/30 32/32/32
f 33/33/33 32/32/32 30/30/30
f 34/34/34 32/32/32 33/33/33
f 35/35/35 37/37/37 36/36/36
f 35/35/35 36/36/36 38/38/38
f 39/39/39 41/41/41 40/40/40
f 42/42/42 44/44/44 43/43/43
f 42/42/42 43/43/43 45/45/45
f 46/46/46 45/45/45 43/43/43
f 46/46/46 43/43/43 47/47/47
f 48/48/48 50/50/50 49/49/49
f 48/48/48 49/49/49 51/51/51
f 52/52/52 54/54/54 53/53/53
f 55/55/55 57/57/57 56/56/56
f 56/56/56 57/57/57 58/58/58
f 56/56/56 58/58/58 59/59/59
f 60/60/60 56/56/56 59/59/59
f 61/61/61 55/55/55 56/56/56
f 62/62/62 61/61/61 56/56/56
f 60/60/60 62/62/62 56/56/56
f 63/63/63 65/65/65 64/64/64
f 64/64/64 66/66/66 63/63/63
f 64/64/64 67/67/67 66/66/66
f 63/63/63 66/66/66 68/68/68
f 63/63/63 68/68/68 69/69/69
f 63/63/63 69/69/69 70/70/70
f 65/65/65 63/63/63 70/70/70
f 70/70/70 71/71/71 65/65/65
f 66/66/66 72/72/72 68/68/68
f 66/66/66 73/73/73 72/72/72
f 67/67/67 73/73/73 66/66/66
f 73/73/73 74/74/74 72/72/72
f 67/67/67 75/75/75 73/73/73
f 76/76/76 73/73/73 75/75/75
f 73/73/73 76/76/76 74/74/74
f 77/77/77 74/74/74 76/76/76
f 78/78/78 80/80/80 79/79/79
f 81/81/81 78/78/78 79/79/79
f 81/81/81 82/82/82 78/78/78
f 83/83/83 85/85/85 84/84/84
f 83/83/83 84/84/84 86/86/86
f 5/5/5 86/86/86 84/84/84
f 87/87/87 85/85/85 83/83/83
f 87/87/87 88/88/88 85/85/85
f 88/88/88 84/84/84 85/85/85
f 88/88/88 89/89/89 84/84/84
f 90/90/90 89/89/89 88/88/88
f 90/90/90 91/91/91 89/89/89
f 91/91/91 92/92/92 89/89/89
f 84/84/84 89/89/89 92/92/92
f 88/88/88 93/93/93 90/90/90
f 90/90/90 93/93/93 94/94/94
f 84/84/84 92/92/92 95/95/95
f 96/96/96 84/84/84 95/95/95
f 87/87/87 83/83/83 97/97/97
f 87/87/87 97/97/97 98/98/98
f 98/98/98 88/88/88 87/87/87
f 97/97/97 99/99/99 98/98/98
f 97/97/97 100/100/100 99/99/99
f 98/98/98 101/101/101 88/88/88
f 88/88/88 101/101/101 102/102/102
f 103/103/103 105/105/105 104/104/104
f 104/104/104 105/105/105 106/106/106
f 104/104/104 106/106/106 107/107/107
f 104/104/104 108/108/108 103/103/103
f 104/104/104 109/109/109 108/108/108
f 110/110/110 112/112/112 111/111/111
f 110/110/110 111/111/111 113/113/113
f 114/114/114 111/111/111 112/112/112
f 115/115/115 114/114/114 112/112/112
f 116/116/116 118/118/118 117/117/117
f 116/116/116 117/117/117 119/119/119
f 120/120/120 122/122/122 121/121/121
f 123/123/123 125/125/125 124/124/124
f 123/123/123 124/124/124 126/126/126
f 127/127/127 124/124/124 125/125/125
f 127/127/127 128/128/128 124/124/124
f 129/129/129 131/131/131 130/130/130
f 129/129/129 130/130/130 132/132/132
f 133/133/133 135/135/135 134/134/134
f 136/136/136 138/138/138 137/137/137
f 138/138/138 139/139/139 137/137/137
f 138/138/138 140/140/140 139/139/139
f 141/141/141 140/140/140 138/138/138
f 142/142/142 138/138/138 136/136/136
f 143/143/143 138/138/138 142/142/142
f 141/141/141 138/138/138 143/143/143
f 144/144/144 146/146/146 145/145/145
f 146/146/146 144/144/144 147/147/147
f 146/146/146 147/147/147 148/148/148
f 144/144/144 149/149/149 147/147/147
f 144/144/144 150/150/150 149/149/149
f 144/144/144 151/151/151 150/150/150
f 145/145/145 151/151/151 144/144/144
f 151/151/151 145/145/145 152/152/152
f 147/147/147 149/149/149 153/153/153
f 147/147/147 153/153/153 154/154/154
f 148/148/148 147/147/147 154/154/154
f 154/154/154 153/153/153 155/155/155
f 148/148/148 154/154/154 156/156/156
f 157/157/157 156/156/156 154/154/154
f 154/154/154 155/155/155 157/157/157
f 158/158/158 157/157/157 155/155/155
f 159/159/159 161/161/161 160/160/160
f 162/162/162 161/161/161 159/159/159
f 162/162/162 159/159/159 163/163/163
