# Generated from legacy Unity YAML Mesh assets without Unity.
mtllib ArmorBag_21.mtl

o ArmorBag_21_00_Bone01
v 0.0970525461 -0.137731983 0.0465045824
v -0.0881528454 -0.0826273999 0.154876175
v 0.0711999157 -0.0444961033 0.195237067
v -0.00143287886 -0.161298438 0.0215601895
v -0.204171177 -0.0726747951 0.0327409777
v -0.0731361471 -0.155147388 -0.0539235168
v -0.232539951 -0.0184398434 -0.124517077
v -0.0906690177 -0.121628343 -0.15111433
v -0.162423285 0.0593615257 -0.256830705
v -0.0473345292 -0.0735444567 -0.232888656
v -0.0206033038 0.131011919 -0.313660699
v 0.0403150387 -0.02926208 -0.26801151
v 0.138749566 0.169143216 -0.273299769
v 0.138800519 -0.0056956253 -0.243067103
v 0.254767873 0.159190596 -0.151164464
v 0.210503792 -0.0118466905 -0.167583332
v 0.283136531 0.104955585 0.00609364174
v 0.228036583 -0.0453657798 -0.0703924764
v 0.213019687 0.0271541336 0.138407293
v 0.184701982 -0.093449711 0.011381842
v 0.0711999157 -0.0444961033 0.195237067
v 0.0970525461 -0.137731983 0.0465045824
v -0.216050676 0.216039256 -0.193121708
v -0.0742307018 0.287689642 -0.249951671
v 0.0851221457 0.325820939 -0.209590769
v 0.201140436 0.315868304 -0.0874554934
v 0.22950911 0.261633293 0.0698026167
v 0.15939225 0.183831856 0.202116249
v 0.017572505 0.112181635 0.258946021
v -0.100083331 0.380925522 -0.101219232
v -0.187732887 0.336643175 -0.0660963636
v -0.286167328 0.13823788 -0.0608081021
v -0.257798554 0.0840029427 0.0964499428
v -0.141780252 0.0740503454 0.218585143
v 0.017572505 0.112181635 0.258946021
v -0.141831252 0.248889194 0.188352451
v -0.0433458235 0.272455648 0.21329686
v -0.213534477 0.255040244 0.112868744
v -0.231067369 0.288559274 0.0156779445
v -0.0433458235 0.272455648 0.21329686
v -0.088286349 0.375106648 0.0757259618
v -0.088286349 0.375106648 0.0757259618
v -0.088286349 0.375106648 0.0757259618
v 0.0443036095 0.316737906 0.178174133
v 0.0876381869 0.364821837 0.0963997955
v 0.0701054036 0.398340897 -0.000791058469
v -0.00159785452 0.404491977 -0.0762748101
v -0.088286349 0.375106648 0.0757259618
v -0.088286349 0.375106648 0.0757259618
v -0.088286349 0.375106648 0.0757259618
v -0.088286349 0.375106648 0.0757259618
v -0.088286349 0.375106648 0.0757259618
v -0.088286349 0.375106648 0.0757259618
v -0.088286349 0.375106648 0.0757259618
v 0.151131497 -0.324322595 -0.208343998
v 0.0919342001 -0.344388976 -0.104546678
v 0.15918735 -0.328296139 -0.0875128443
v 0.0327154554 -0.290666654 -0.0135087477
v 0.141533246 -0.264627799 0.0140526862
v -0.0465102817 -0.283870264 -0.0969115717
v 0.0429699716 -0.340188607 -0.15609244
v 0.151131497 -0.324322595 -0.208343998
v -0.0658825672 -0.24683468 -0.204298962
v 0.0309972082 -0.31729932 -0.222461508
v 0.151131497 -0.324322595 -0.208343998
v -0.0180018642 -0.193706169 -0.294652442
v 0.0605892301 -0.284464135 -0.278303059
v 0.151131497 -0.324322595 -0.208343998
v 0.0788432737 -0.144778027 -0.333460113
v 0.120442798 -0.254224881 -0.302287551
v 0.151131497 -0.324322595 -0.208343998
v 0.187661114 -0.118739187 -0.305898711
v 0.187695929 -0.238131984 -0.285253642
v 0.151131497 -0.324322595 -0.208343998
v 0.266886999 -0.125535547 -0.222495778
v 0.236660148 -0.242332413 -0.233707775
v 0.151131497 -0.324322595 -0.208343998
v 0.286259201 -0.162571176 -0.115108413
v 0.248632817 -0.26522164 -0.167338657
v 0.151131497 -0.324322595 -0.208343998
v 0.238378182 -0.215699717 -0.0247549582
v 0.219040738 -0.298056855 -0.1114972
v 0.151131497 -0.324322595 -0.208343998
v 0.141533246 -0.264627799 0.0140526862
v 0.15918735 -0.328296139 -0.0875128443
v 0.151131497 -0.324322595 -0.208343998
v 0.230266266 -0.0185445092 -0.178990615
v 0.151040411 -0.0117481641 -0.262393535
v 0.24963847 -0.055580183 -0.0716032125
v 0.201757497 -0.108708724 0.0187502696
v 0.104912508 -0.157636716 0.0575577732
v 0.208022737 -0.0045445702 -0.164279103
v 0.136319494 0.00160643542 -0.239762862
v 0.0422225525 -0.0377870045 -0.289954995
v -0.0546225194 -0.0867151312 -0.251147298
v -0.102503278 -0.139843597 -0.1607938
v -0.0831310173 -0.176879182 -0.0534064456
v -0.00390524277 -0.183675571 0.0299964062
v 0.104912508 -0.157636716 0.0575577732
v -0.00391392349 -0.153996362 0.0248643501
v 0.0945715021 -0.130429878 0.0498087504
v -0.0756171225 -0.147845253 -0.0506193227
v -0.0931499708 -0.114326238 -0.147810138
v -0.0498155315 -0.0662423513 -0.229584475
v 0.0378339983 -0.0219599447 -0.264707208
v 0.225555555 -0.0380636743 -0.0670882795
v 0.182220863 -0.086147531 0.0146860066
v 0.0945715021 -0.130429878 0.0498087504
v -0.253030464 0.0910815754 -0.0157796127
v -0.838080498 -0.200866683 -0.0132653153
v -0.234372509 0.029972271 -0.0819282249
v -0.846525368 -0.173207625 0.016674648
v -0.858552245 -0.17779158 0.0173323229
v -0.850107316 -0.205450638 -0.0126076418
v -0.870579123 -0.182375475 0.0179899866
v -0.862134194 -0.210034593 -0.0119499725
v -1.40896997 -0.417789622 -0.0141323351
v -1.4266065 -0.360025301 0.0483953883
v -1.47941992 -0.404439314 0.0512834056
v -1.46829555 -0.440873488 0.0118446778
v -0.130431509 0.0731241115 -0.0224837271
v -0.234372509 0.029972271 -0.0819282249
v -0.826421313 -0.228525831 0.0155752921
v -0.208612912 -0.0311370484 -0.0182085107
v -0.838080498 -0.200866683 -0.0132653153
v -0.850107316 -0.205450638 -0.0126076418
v -0.838448251 -0.233109786 0.0162329647
v -0.862134194 -0.210034593 -0.0119499725
v -0.85047501 -0.237693681 0.0168906275
v -1.3846203 -0.475553914 0.0460994447
v -1.40896997 -0.417789622 -0.0141323351
v -1.46829555 -0.440873488 0.0118446778
v -1.45293756 -0.47730784 0.0498352633
v -0.130431509 0.0731241115 -0.0224837271
v -0.227270881 0.029972271 0.0479400986
v -0.208612912 -0.0311370484 -0.0182085107
v -0.834866183 -0.200866713 0.0455152461
v -0.826421313 -0.228525831 0.0155752921
v -0.838448251 -0.233109786 0.0162329647
v -0.846892942 -0.205450608 0.0461729089
v -0.85047501 -0.237693681 0.0168906275
v -0.858919939 -0.210034593 0.0468305847
v -1.40225695 -0.417789622 0.108627171
v -1.3846203 -0.475553914 0.0460994447
v -1.45293756 -0.47730784 0.0498352633
v -1.46406134 -0.440873488 0.0892739566
v -0.227270881 0.029972271 0.0479400986
v -0.846525368 -0.173207625 0.016674648
v -0.253030464 0.0910815754 -0.0157796127
v -0.834866183 -0.200866713 0.0455152461
v -0.846892942 -0.205450608 0.0461729089
v -0.858552245 -0.17779158 0.0173323229
v -0.858919939 -0.210034593 0.0468305847
v -0.870579123 -0.182375475 0.0179899866
v -1.4266065 -0.360025301 0.0483953883
v -1.40225695 -0.417789622 0.108627171
v -1.46406134 -0.440873488 0.0892739566
v -1.47941992 -0.404439314 0.0512834056
v -0.130431509 0.0731241115 -0.0224837271
v -1.25427516 -0.479000851 0.0376682121
v -1.46530282 -0.511823579 -0.0307061066
v -1.34376455 -0.507602736 -0.159631441
v -1.42993344 -0.500519081 0.047273785
v -1.5419783 -0.539114996 -0.0596146966
v -1.53776376 -0.576653763 -0.232774114
v -1.61504426 -0.566406413 -0.0225177516
v -1.7226307 -0.64570479 -0.138913792
v -1.64169978 -0.577710911 0.0588538754
v -1.79007284 -0.674306675 0.0669674174
v -1.6063304 -0.566406413 0.136833776
v -1.70058332 -0.64570479 0.264267095
v -1.52965504 -0.539114996 0.165742358
v -1.50658423 -0.576653763 0.337409731
v -1.45658896 -0.511823579 0.128645421
v -1.32171741 -0.507602736 0.24354946
v -1.42857671 -0.210570618 0.0471995951
v -1.62622605 -0.290345951 0.0580077208
v -1.49542843 -0.231937214 -0.100190197
v -1.64035265 -0.283520742 -0.154830341
v -1.77845474 -0.335104271 -0.0847133865
v -1.82883638 -0.356470867 0.06908713
v -1.76198466 -0.335104271 0.216476937
v -1.61706045 -0.283520742 0.271117058
v -1.47895835 -0.231937214 0.201000126
v -1.46530282 -0.511823579 -0.0307061066
v -1.44934032 -0.353546186 0.0483350175
v -1.49474059 -0.368056699 -0.0517603384
v -1.42993344 -0.500519081 0.047273785
v -1.5419783 -0.539114996 -0.0596146966
v -1.59316155 -0.403088137 -0.0888675347
v -1.61504426 -0.566406413 -0.0225177516
v -1.68694948 -0.438119575 -0.0412497238
v -1.64169978 -0.577710911 0.0588538754
v -1.72116458 -0.452630087 0.0631992759
v -1.6063304 -0.566406413 0.136833776
v -1.67576432 -0.438119575 0.163294637
v -1.52965504 -0.539114996 0.165742358
v -1.57734335 -0.403088137 0.200401819
v -1.45658896 -0.511823579 0.128645421
v -1.48355555 -0.368056699 0.152784029
v -1.42993344 -0.500519081 0.047273785
v -1.44934032 -0.353546186 0.0483350175
v -1.49542843 -0.231937214 -0.100190197
v -1.64035265 -0.283520742 -0.154830341
v -1.77845474 -0.335104271 -0.0847133865
v -1.82883638 -0.356470867 0.06908713
v -1.76198466 -0.335104271 0.216476937
v -1.61706045 -0.283520742 0.271117058
v -1.47895835 -0.231937214 0.201000126
v -1.42857671 -0.210570618 0.0471995951
v -1.42857671 -0.210570618 0.0471995951
v -1.34376455 -0.507602736 -0.159631441
v -1.522174 -0.576653882 0.0523178064
v -1.25427516 -0.479000851 0.0376682121
v -1.53776376 -0.576653763 -0.232774114
v -1.7226307 -0.64570479 -0.138913792
v -1.79007284 -0.674306675 0.0669674174
v -1.70058332 -0.64570479 0.264267095
v -1.50658423 -0.576653763 0.337409731
v -1.32171741 -0.507602736 0.24354946
vt 0.00642260909 0.527342439
vt 0.105138108 0.395506829
vt 0.00642260909 0.395506829
vt 0.105138108 0.527342439
vt 0.203853607 0.395506829
vt 0.203853607 0.527342439
vt 0.302569002 0.395506829
vt 0.302569002 0.527342439
vt 0.401284486 0.395506829
vt 0.401284486 0.527342439
vt 0.5 0.395506829
vt 0.5 0.527342439
vt 0.598715425 0.395506829
vt 0.598715425 0.527342439
vt 0.697430849 0.395506829
vt 0.697430849 0.527342439
vt 0.796146393 0.395506829
vt 0.796146393 0.527342439
vt 0.894862056 0.395506829
vt 0.894862056 0.527342439
vt 0.99357748 0.395506829
vt 0.99357748 0.527342439
vt 0.401284486 0.263671219
vt 0.5 0.263671219
vt 0.598715425 0.263671219
vt 0.697430849 0.263671219
vt 0.796146393 0.263671219
vt 0.894862056 0.263671219
vt 0.99357748 0.263671219
vt 0.5 0.131835595
vt 0.401284486 0.131835595
vt 0.302569002 0.263671219
vt 0.203853607 0.263671219
vt 0.105138108 0.263671219
vt 0.00642260909 0.263671219
vt 0.105138108 0.131835595
vt 0.00642260909 0.131835595
vt 0.203853607 0.131835595
vt 0.302569002 0.131835595
vt 0.99357748 0.131835595
vt 0.5 0
vt 0.5 0
vt 0.5 0
vt 0.894862056 0.131835595
vt 0.796146393 0.131835595
vt 0.697430849 0.131835595
vt 0.598715425 0.131835595
vt 0.5 0
vt 0.5 0
vt 0.5 0
vt 0.5 0
vt 0.5 0
vt 0.5 0
vt 0.5 0
vt 0.374759197 0.857100904
vt 0.0790623054 0.775850713
vt 0.00513808616 0.775850713
vt 0.0790623054 0.694600582
vt 0.00513808616 0.694600582
vt 0.152986526 0.694600582
vt 0.152986526 0.775850713
vt 0.374759197 0.857100904
vt 0.223699421 0.694600582
vt 0.223699421 0.775850713
vt 0.374759197 0.857100904
vt 0.302975863 0.692031562
vt 0.302975863 0.775850713
vt 0.374759197 0.857100904
vt 0.374759197 0.692031562
vt 0.374759197 0.775850713
vt 0.374759197 0.857100904
vt 0.446542501 0.692031562
vt 0.446542501 0.775850713
vt 0.374759197 0.857100904
vt 0.525818884 0.694600582
vt 0.525818884 0.775850713
vt 0.374759197 0.857100904
vt 0.596531868 0.694600582
vt 0.596531868 0.775850713
vt 0.374759197 0.857100904
vt 0.670456111 0.694600582
vt 0.670456111 0.775850713
vt 0.374759197 0.857100904
vt 0.744380355 0.694600582
vt 0.744380355 0.775850713
vt 0.374759197 0.857100904
vt 0.525818884 0.613350451
vt 0.446542501 0.613350451
vt 0.596531868 0.613350451
vt 0.670456111 0.613350451
vt 0.744380355 0.613350451
vt 0.525818884 0.586315513
vt 0.448683381 0.586315513
vt 0.374759197 0.613350451
vt 0.302975863 0.613350451
vt 0.223699421 0.613350451
vt 0.152986526 0.613350451
vt 0.0790623054 0.613350451
vt 0.00513808616 0.613350451
vt 0.0790623054 0.586315513
vt 0.00513808616 0.586315513
vt 0.152986526 0.586315513
vt 0.223699421 0.586315513
vt 0.300834984 0.586315513
vt 0.374759197 0.586315513
vt 0.596531868 0.586315513
vt 0.670456111 0.586315513
vt 0.744380355 0.586315513
vt 0.0840496495 0.934424758
vt 0.528699934 0.978464305
vt 0.0843300298 0.993381023
vt 0.528573632 0.949980319
vt 0.537386 0.949986696
vt 0.537541628 0.978487968
vt 0.546198606 0.949993014
vt 0.546324909 0.978477299
vt 0.945177078 0.99239099
vt 0.944947898 0.936661959
vt 0.989805162 0.945639312
vt 0.989928067 0.9784199
vt 0.00757565908 0.962738097
vt 0.0840496495 0.993381023
vt 0.528699934 0.949341476
vt 0.0843300298 0.934424758
vt 0.528573632 0.977825463
vt 0.537386 0.977819085
vt 0.537541628 0.949317813
vt 0.546198606 0.977812767
vt 0.546324909 0.949328482
vt 0.945177078 0.935414791
vt 0.944947898 0.991143823
vt 0.989805162 0.982166469
vt 0.989928067 0.949385881
vt 0.00757565908 0.965067685
vt 0.0840496495 0.993381023
vt 0.0843300298 0.934424758
vt 0.528573632 0.977825463
vt 0.528699934 0.949341476
vt 0.537541628 0.949317813
vt 0.537386 0.977819085
vt 0.546324909 0.949328482
vt 0.546198606 0.977812767
vt 0.944947898 0.991143823
vt 0.945177078 0.935414791
vt 0.989928067 0.949385881
vt 0.989805162 0.982166469
vt 0.0840496495 0.993381023
vt 0.528699934 0.949341476
vt 0.0843300298 0.934424758
vt 0.528573632 0.977825463
vt 0.537386 0.977819085
vt 0.537541628 0.949317813
vt 0.546198606 0.977812767
vt 0.546324909 0.949328482
vt 0.945177078 0.935414791
vt 0.944947898 0.991143823
vt 0.989805162 0.982166469
vt 0.989928067 0.949385881
vt 0.00757565908 0.965067685
vt 0.86510396 0.820388496
vt 0.816644311 0.865760684
vt 0.864978135 0.885468543
vt 0.816598594 0.84027952
vt 0.798984647 0.883615911
vt 0.81903398 0.931788027
vt 0.773858964 0.883400679
vt 0.753703952 0.931764245
vt 0.756210089 0.86530751
vt 0.707730234 0.885198534
vt 0.756168365 0.839790702
vt 0.707874775 0.820049763
vt 0.773845077 0.821946323
vt 0.75389564 0.773737013
vt 0.798966706 0.822195649
vt 0.819205999 0.773845851
vt 0.691139221 0.848187625
vt 0.628512442 0.873933792
vt 0.691011906 0.900040507
vt 0.654225647 0.936588049
vt 0.602401495 0.936401486
vt 0.565885246 0.899680018
vt 0.566012442 0.847827137
vt 0.60279882 0.811279714
vt 0.654622853 0.811466277
vt 0.993040502 0.584178805
vt 0.930936873 0.534726262
vt 0.930936873 0.584178805
vt 0.993040502 0.534726262
vt 0.993040502 0.633631349
vt 0.930936873 0.633631349
vt 0.993040502 0.683083832
vt 0.930936873 0.683083832
vt 0.993040502 0.732536316
vt 0.930936873 0.732536316
vt 0.993040502 0.781988978
vt 0.930936873 0.781988978
vt 0.993040502 0.831441343
vt 0.930936873 0.831441343
vt 0.993040502 0.880893767
vt 0.930936873 0.880893767
vt 0.993040502 0.930346429
vt 0.930936873 0.930346429
vt 0.871189177 0.584178805
vt 0.871189177 0.633631349
vt 0.871189177 0.683083832
vt 0.871189177 0.732536316
vt 0.871189177 0.781988978
vt 0.871189177 0.831441343
vt 0.871189177 0.880893767
vt 0.871189177 0.930346429
vt 0.871189177 0.534726262
vt 0.829134464 0.538763702
vt 0.807087243 0.591506958
vt 0.859965205 0.569764435
vt 0.785376787 0.538602471
vt 0.754312336 0.569463074
vt 0.75420928 0.613249481
vt 0.785040081 0.644250214
vt 0.828797758 0.644411445
vt 0.859862149 0.613550842
vn 0.0648111556 -0.840395739 0.538084117
vn -0.336808615 -0.698122474 0.631810864
vn -0.0685712796 -0.575790914 0.814716394
vn -0.25758053 -0.896171698 0.361287364
vn -0.73113647 -0.654488064 0.192574234
vn -0.551344972 -0.833286858 -0.040641524
vn -0.812969532 -0.45793329 -0.359691037
vn -0.567121475 -0.649009772 -0.507109011
vn -0.551050278 -0.183535205 -0.81403834
vn -0.298883934 -0.41372797 -0.85994044
vn -0.0454229031 0.063895196 -0.996922346
vn 0.150910132 -0.217311166 -0.964366107
vn 0.510780195 0.189848029 -0.838487518
vn 0.610454587 -0.134783848 -0.780498886
vn 0.905108082 0.14621351 -0.399250511
vn 0.904219 -0.197668813 -0.378569731
vn 0.986940794 -0.0503415351 0.153015029
vn 0.919995158 -0.381946146 0.0878979561
vn 0.725021425 -0.324739433 0.607361699
vn 0.651757536 -0.617227863 0.440728806
vn 0.529081224 -0.508272694 0.679508592
vn 0.541892055 -0.666493232 0.511995872
vn -0.765145871 0.296444856 -0.571552485
vn -0.276412934 0.551385661 -0.787127526
vn 0.284675014 0.692787736 -0.662574742
vn 0.703801037 0.666640163 -0.245468924
vn 0.820873179 0.482930383 0.304869594
vn 0.591174217 0.211829544 0.778229587
vn 0.382188478 -0.0237788414 0.923778401
vn -0.411033902 0.845469464 -0.340928904
vn -0.731119317 0.662893567 -0.1613588
vn -0.994844729 0.025343947 -0.0981918975
vn -0.877772202 -0.158365561 0.452146337
vn -0.4586463 -0.184513048 0.869251693
vn -0.231343178 -0.0609394792 0.970961747
vn -0.432038477 0.364158721 0.825064349
vn -0.319133009 0.451980329 0.832987337
vn -0.744100769 0.365427148 0.559264736
vn -0.858339567 0.479533652 0.182484699
vn 0.110900004 0.473527086 0.873769585
vn -0.328057878 0.702614444 0.631435643
vn -0.499473351 0.685073485 0.530283595
vn -0.589352692 0.725029518 0.356364423
vn 0.278735861 0.658788682 0.698787373
vn 0.405956184 0.84214856 0.354944191
vn 0.291717609 0.956255208 -0.0218360789
vn -0.0203448528 0.957523698 -0.287635975
vn -0.243959907 0.968590886 0.0481171509
vn -0.0725440341 0.986131831 0.149269469
vn 0.0173352135 0.946175749 0.323188709
vn -0.00865259464 0.863984444 0.503444152
vn -0.431436647 0.900253011 0.0583689708
vn -0.563365062 0.807220802 0.176109009
vn -0.140580975 0.770952414 0.621183841
vn 0.243958792 -0.968591173 -0.0481170236
vn -0.115220235 -0.971396023 0.207639264
vn 0.1179747 -0.911088183 0.394968723
vn -0.336808737 -0.698122488 0.631810784
vn -0.0685714905 -0.575790867 0.814716409
vn -0.731136713 -0.654487829 0.192574113
vn -0.362799318 -0.924655702 -0.115708629
vn 0.0725438636 -0.98613195 -0.149268771
vn -0.812969795 -0.457933244 -0.359690501
vn -0.385403863 -0.777147432 -0.497499478
vn -0.0173358778 -0.946175758 -0.323188648
vn -0.551050329 -0.183535398 -0.814038262
vn -0.1743999 -0.585213901 -0.791902371
vn 0.00865172929 -0.86398472 -0.503443691
vn -0.045422751 0.0638951332 -0.996922357
vn 0.189616686 -0.422167391 -0.886465006
vn 0.140580465 -0.770952384 -0.621183994
vn 0.510779974 0.189848079 -0.838487642
vn 0.567603567 -0.350286372 -0.745067546
vn 0.328057878 -0.702614283 -0.631435823
vn 0.905108018 0.146213295 -0.399250733
vn 0.815182567 -0.397027179 -0.421718866
vn 0.499473473 -0.685073352 -0.530283653
vn 0.986940744 -0.0503421842 0.153015138
vn 0.837786729 -0.544535754 -0.0399275437
vn 0.589353377 -0.725029641 -0.356363041
vn 0.725021305 -0.324739743 0.607361677
vn 0.626783335 -0.736468286 0.254474193
vn 0.563365476 -0.807220791 -0.176107738
vn 0.529082027 -0.508272101 0.679508411
vn 0.513252874 -0.82309322 0.243082368
vn 0.431438236 -0.900252247 -0.0583690082
vn 0.763848292 0.538765021 -0.355342144
vn 0.313057914 0.553731972 -0.771605888
vn 0.90933428 0.357567143 0.212736704
vn 0.693945019 0.0793499239 0.715642299
vn 0.429894135 -0.143939126 0.891331903
vn 0.458182055 0.877408831 -0.142207413
vn 0.0779099228 0.879968698 -0.468599119
vn -0.270850399 0.396751819 -0.877056472
vn -0.764843744 0.127784887 -0.631415133
vn -0.980232375 -0.150432291 -0.128509212
vn -0.834746265 -0.331629622 0.4395685
vn -0.383955717 -0.346596611 0.855832225
vn -0.184562829 -0.238020936 0.953563105
vn -0.431669119 0.153573568 0.888862718
vn -0.278818878 0.163552375 0.946314247
vn -0.81194137 0.156133348 0.562470967
vn -0.949641486 0.296444335 0.101497802
vn -0.792172943 0.520912808 -0.317980933
vn -0.399682844 0.743799819 -0.535738232
vn 0.595882151 0.737097354 0.318766297
vn 0.438412836 0.512629184 0.738244881
vn 0.198261933 0.33745543 0.92022608
vn -0.28424501 0.662942384 -0.692612568
vn -0.325334054 0.647067741 -0.689536868
vn -0.267987292 0.668812354 -0.69344996
vn -0.325075161 0.647172881 -0.689560297
vn -0.28975331 0.660901469 -0.692280483
vn -0.289753113 0.660901189 -0.692280833
vn -0.25378732 0.673752927 -0.694009359
vn -0.254062165 0.673658646 -0.69400032
vn -0.282676592 0.663518289 -0.692702985
vn -0.280220855 0.66441652 -0.69283978
vn -0.505341589 0.558113306 -0.658133281
vn -0.505342392 0.558111897 -0.658133859
vn 0.0723826649 0.742698602 -0.665702288
vn 0.223779524 -0.656658626 -0.720223697
vn 0.176530811 -0.67377626 -0.717539144
vn 0.242093246 -0.649516122 -0.720777128
vn 0.176795716 -0.673685147 -0.717559474
vn 0.212539088 -0.66090084 -0.719748022
vn 0.212538704 -0.660901193 -0.719747811
vn 0.248139655 -0.647094318 -0.720899199
vn 0.247870658 -0.64720311 -0.720894078
vn 0.219605568 -0.658246336 -0.720059134
vn 0.222050824 -0.657317833 -0.720157412
vn -0.0190005274 -0.725431192 -0.688032387
vn -0.0189998251 -0.725430371 -0.688033272
vn 0.798430242 -0.600502193 -0.043660794
vn 0.319243626 -0.649516104 0.6900814
vn 0.300978806 -0.656658662 0.691528134
vn 0.253719087 -0.67377631 0.694011606
vn 0.25398472 -0.673685343 0.694002753
vn 0.289752795 -0.660901103 0.692281048
vn 0.289752917 -0.660901086 0.692281014
vn 0.32526734 -0.647094375 0.689543347
vn 0.324999221 -0.647202832 0.689567981
vn 0.296811814 -0.65824638 0.691819666
vn 0.299253259 -0.657318033 0.691650555
vn 0.0561363021 -0.725431172 0.686001698
vn 0.0561351147 -0.725430725 0.686002269
vn -0.207027261 0.662942252 0.719477091
vn -0.248206652 0.647067603 0.720900114
vn -0.190775236 0.668812326 0.718536626
vn -0.24794658 0.647172494 0.720895454
vn -0.212538782 0.660901323 0.719747669
vn -0.212538106 0.660901454 0.719747749
vn -0.176598928 0.673752827 0.717544387
vn -0.176873215 0.673658822 0.717565089
vn -0.205458359 0.663518137 0.719395958
vn -0.203002329 0.664416258 0.719264271
vn -0.430564852 0.55811283 0.709312327
vn -0.430563158 0.558112641 0.709313504
vn 0.144539594 0.742698583 0.653840286
vn -0.122058488 0.992484317 -0.00875249086
vn -0.15505783 0.981300333 -0.114047032
vn -0.202670277 0.966182167 -0.15942641
vn -0.118224012 0.991255361 0.0586164773
vn -0.295700318 0.932079184 -0.209259928
vn -0.359441425 0.910133858 -0.206053931
vn -0.457765274 0.872424894 -0.17124765
vn -0.500537457 0.857171789 -0.121320971
vn -0.546316764 0.83728234 -0.0222772768
vn -0.543306177 0.83832038 0.0451368972
vn -0.509482965 0.847237275 0.150386526
vn -0.462694445 0.864622407 0.195810991
vn -0.368840283 0.896458483 0.245599337
vn -0.305923243 0.92067079 0.242438169
vn -0.206775617 0.956112726 0.207586849
vn -0.164827284 0.973632905 0.157705208
vn -0.373245251 0.927508169 0.020410279
vn -0.341509916 0.939692623 0.0186748865
vn -0.362578244 0.930917469 0.0439281532
vn -0.339453809 0.939148253 0.0526466495
vn -0.317417912 0.947379044 0.0414586103
vn -0.309378894 0.95078835 0.0169178564
vn -0.320045917 0.947379043 -0.00659998985
vn -0.343170368 0.939148253 -0.0153185134
vn -0.365206249 0.930917469 -0.00413049942
vn 0.78510196 0.0706454688 -0.615324411
vn 0.90850724 0.031689362 -0.416665789
vn 0.729534887 -0.105213171 -0.675802514
vn 0.897203711 0.121535963 -0.424563906
vn 0.166685717 -0.146955679 -0.974997385
vn 0.104275325 -0.327215361 -0.939178771
vn -0.506716332 -0.395844554 -0.765862682
vn -0.509922211 -0.556052508 -0.656342096
vn -0.840634683 -0.530225326 -0.110428406
vn -0.75326919 -0.657674817 0.00702578448
vn -0.639464444 -0.471379536 0.60736032
vn -0.483216074 -0.572553337 0.662332924
vn -0.0210480819 -0.253777984 0.96703346
vn 0.142043598 -0.350550976 0.925709258
vn 0.652353921 -0.00488901774 0.757898713
vn 0.756241173 -0.121713952 0.642872461
vn 0.938148504 0.12153616 0.324201088
vn 0.951041652 -0.0596194041 0.303257816
vn 0.644410836 -0.253432032 -0.721461627
vn 0.0268112091 -0.4747397 -0.879717782
vn -0.512130955 -0.677599627 -0.527807381
vn -0.656710256 -0.743179377 0.128125145
vn -0.322234184 -0.633063149 0.703843861
vn 0.295365439 -0.411755793 0.862100008
vn 0.834307412 -0.208896003 0.510189771
vn 0.946988552 -0.135211944 0.291428229
vn 0.909564555 -0.135211665 -0.392950538
vn 0.341510254 -0.939692494 -0.0186751737
vn 0.341510056 -0.939692572 -0.0186748941
vn 0.341510391 -0.939692452 -0.0186748113
vn 0.341509979 -0.939692592 -0.0186752828
vn 0.341509733 -0.939692684 -0.0186751633
vn 0.341509644 -0.93969272 -0.0186749727
vn 0.341509853 -0.93969265 -0.0186746973
vn 0.341510211 -0.939692523 -0.0186745097
vn 0.341510384 -0.93969246 -0.0186745421

g ArmorBag_21_00_Bone01_submesh_0
usemtl bag_xueren
f 1/1/1 3/3/3 2/2/2
f 1/1/1 2/2/2 4/4/4
f 4/4/4 2/2/2 5/5/5
f 4/4/4 5/5/5 6/6/6
f 6/6/6 5/5/5 7/7/7
f 6/6/6 7/7/7 8/8/8
f 8/8/8 7/7/7 9/9/9
f 8/8/8 9/9/9 10/10/10
f 10/10/10 9/9/9 11/11/11
f 10/10/10 11/11/11 12/12/12
f 12/12/12 11/11/11 13/13/13
f 12/12/12 13/13/13 14/14/14
f 14/14/14 13/13/13 15/15/15
f 14/14/14 15/15/15 16/16/16
f 16/16/16 15/15/15 17/17/17
f 16/16/16 17/17/17 18/18/18
f 18/18/18 17/17/17 19/19/19
f 18/18/18 19/19/19 20/20/20
f 20/20/20 19/19/19 21/21/21
f 20/20/20 21/21/21 22/22/22
f 7/7/7 23/23/23 9/9/9
f 9/9/9 23/23/23 24/24/24
f 9/9/9 24/24/24 11/11/11
f 11/11/11 24/24/24 25/25/25
f 11/11/11 25/25/25 13/13/13
f 13/13/13 25/25/25 26/26/26
f 13/13/13 26/26/26 15/15/15
f 15/15/15 26/26/26 27/27/27
f 15/15/15 27/27/27 17/17/17
f 17/17/17 27/27/27 28/28/28
f 17/17/17 28/28/28 19/19/19
f 19/19/19 28/28/28 29/29/29
f 19/19/19 29/29/29 21/21/21
f 23/23/23 30/30/30 24/24/24
f 23/23/23 31/31/31 30/30/30
f 32/32/32 31/31/31 23/23/23
f 7/7/7 32/32/32 23/23/23
f 5/5/5 32/32/32 7/7/7
f 5/5/5 33/33/33 32/32/32
f 2/2/2 33/33/33 5/5/5
f 2/2/2 34/34/34 33/33/33
f 3/3/3 34/34/34 2/2/2
f 3/3/3 35/35/35 34/34/34
f 35/35/35 36/36/36 34/34/34
f 35/35/35 37/37/37 36/36/36
f 34/34/34 36/36/36 38/38/38
f 34/34/34 38/38/38 33/33/33
f 33/33/33 38/38/38 39/39/39
f 33/33/33 39/39/39 32/32/32
f 32/32/32 39/39/39 31/31/31
f 28/28/28 40/40/40 29/29/29
f 41/41/41 36/36/36 37/37/37
f 42/42/42 38/38/38 36/36/36
f 43/43/43 39/39/39 38/38/38
f 28/28/28 44/44/44 40/40/40
f 27/27/27 44/44/44 28/28/28
f 27/27/27 45/45/45 44/44/44
f 26/26/26 45/45/45 27/27/27
f 26/26/26 46/46/46 45/45/45
f 25/25/25 46/46/46 26/26/26
f 25/25/25 47/47/47 46/46/46
f 24/24/24 47/47/47 25/25/25
f 24/24/24 30/30/30 47/47/47
f 48/48/48 47/47/47 30/30/30
f 49/49/49 46/46/46 47/47/47
f 50/50/50 45/45/45 46/46/46
f 51/51/51 44/44/44 45/45/45
f 52/52/52 30/30/30 31/31/31
f 53/53/53 31/31/31 39/39/39
f 54/54/54 40/40/40 44/44/44
f 55/55/55 57/57/57 56/56/56
f 57/57/57 58/58/58 56/56/56
f 57/57/57 59/59/59 58/58/58
f 56/56/56 58/58/58 60/60/60
f 56/56/56 60/60/60 61/61/61
f 62/62/62 56/56/56 61/61/61
f 61/61/61 60/60/60 63/63/63
f 61/61/61 63/63/63 64/64/64
f 65/65/65 61/61/61 64/64/64
f 64/64/64 63/63/63 66/66/66
f 64/64/64 66/66/66 67/67/67
f 68/68/68 64/64/64 67/67/67
f 67/67/67 66/66/66 69/69/69
f 67/67/67 69/69/69 70/70/70
f 71/71/71 67/67/67 70/70/70
f 70/70/70 69/69/69 72/72/72
f 70/70/70 72/72/72 73/73/73
f 74/74/74 70/70/70 73/73/73
f 73/73/73 72/72/72 75/75/75
f 73/73/73 75/75/75 76/76/76
f 77/77/77 73/73/73 76/76/76
f 76/76/76 75/75/75 78/78/78
f 76/76/76 78/78/78 79/79/79
f 80/80/80 76/76/76 79/79/79
f 79/79/79 78/78/78 81/81/81
f 79/79/79 81/81/81 82/82/82
f 83/83/83 79/79/79 82/82/82
f 82/82/82 81/81/81 84/84/84
f 82/82/82 84/84/84 85/85/85
f 86/86/86 82/82/82 85/85/85
f 72/72/72 87/87/87 75/75/75
f 72/72/72 88/88/88 87/87/87
f 75/75/75 87/87/87 89/89/89
f 75/75/75 89/89/89 78/78/78
f 78/78/78 89/89/89 90/90/90
f 78/78/78 90/90/90 81/81/81
f 81/81/81 90/90/90 91/91/91
f 81/81/81 91/91/91 84/84/84
f 88/88/88 92/92/92 87/87/87
f 88/88/88 93/93/93 92/92/92
f 94/94/94 93/93/93 88/88/88
f 69/69/69 94/94/94 88/88/88
f 66/66/66 94/94/94 69/69/69
f 66/66/66 95/95/95 94/94/94
f 63/63/63 95/95/95 66/66/66
f 63/63/63 96/96/96 95/95/95
f 60/60/60 96/96/96 63/63/63
f 60/60/60 97/97/97 96/96/96
f 58/58/58 97/97/97 60/60/60
f 58/58/58 98/98/98 97/97/97
f 59/59/59 98/98/98 58/58/58
f 59/59/59 99/99/99 98/98/98
f 99/99/99 100/100/100 98/98/98
f 99/99/99 101/101/101 100/100/100
f 98/98/98 100/100/100 102/102/102
f 98/98/98 102/102/102 97/97/97
f 97/97/97 102/102/102 103/103/103
f 97/97/97 103/103/103 96/96/96
f 96/96/96 103/103/103 104/104/104
f 96/96/96 104/104/104 95/95/95
f 95/95/95 104/104/104 105/105/105
f 95/95/95 105/105/105 94/94/94
f 94/94/94 105/105/105 93/93/93
f 69/69/69 88/88/88 72/72/72
f 87/87/87 92/92/92 106/106/106
f 87/87/87 106/106/106 89/89/89
f 89/89/89 106/106/106 107/107/107
f 89/89/89 107/107/107 90/90/90
f 90/90/90 107/107/107 108/108/108
f 90/90/90 108/108/108 91/91/91

g ArmorBag_21_00_Bone01_submesh_1
usemtl bag_xueren_2
f 109/109/109 111/111/111 110/110/110
f 109/109/109 110/110/110 112/112/112
f 110/110/110 113/113/113 112/112/112
f 110/110/110 114/114/114 113/113/113
f 114/114/114 115/115/115 113/113/113
f 114/114/114 116/116/116 115/115/115
f 117/117/117 115/115/115 116/116/116
f 117/117/117 118/118/118 115/115/115
f 117/117/117 119/119/119 118/118/118
f 117/117/117 120/120/120 119/119/119
f 111/111/111 109/109/109 121/121/121
f 122/122/122 124/124/124 123/123/123
f 122/122/122 123/123/123 125/125/125
f 123/123/123 126/126/126 125/125/125
f 123/123/123 127/127/127 126/126/126
f 127/127/127 128/128/128 126/126/126
f 127/127/127 129/129/129 128/128/128
f 130/130/130 128/128/128 129/129/129
f 130/130/130 131/131/131 128/128/128
f 130/130/130 132/132/132 131/131/131
f 130/130/130 133/133/133 132/132/132
f 124/124/124 122/122/122 134/134/134
f 135/135/135 136/136/136 134/134/134
f 136/136/136 135/135/135 137/137/137
f 136/136/136 137/137/137 138/138/138
f 137/137/137 139/139/139 138/138/138
f 137/137/137 140/140/140 139/139/139
f 140/140/140 141/141/141 139/139/139
f 140/140/140 142/142/142 141/141/141
f 143/143/143 141/141/141 142/142/142
f 143/143/143 144/144/144 141/141/141
f 143/143/143 145/145/145 144/144/144
f 143/143/143 146/146/146 145/145/145
f 147/147/147 149/149/149 148/148/148
f 147/147/147 148/148/148 150/150/150
f 148/148/148 151/151/151 150/150/150
f 148/148/148 152/152/152 151/151/151
f 152/152/152 153/153/153 151/151/151
f 152/152/152 154/154/154 153/153/153
f 155/155/155 153/153/153 154/154/154
f 155/155/155 156/156/156 153/153/153
f 155/155/155 157/157/157 156/156/156
f 155/155/155 158/158/158 157/157/157
f 149/149/149 147/147/147 159/159/159
f 160/160/160 162/162/162 161/161/161
f 160/160/160 161/161/161 163/163/163
f 162/162/162 164/164/164 161/161/161
f 162/162/162 165/165/165 164/164/164
f 165/165/165 166/166/166 164/164/164
f 165/165/165 167/167/167 166/166/166
f 167/167/167 168/168/168 166/166/166
f 167/167/167 169/169/169 168/168/168
f 169/169/169 170/170/170 168/168/168
f 169/169/169 171/171/171 170/170/170
f 171/171/171 172/172/172 170/170/170
f 171/171/171 173/173/173 172/172/172
f 173/173/173 174/174/174 172/172/172
f 173/173/173 175/175/175 174/174/174
f 175/175/175 160/160/160 163/163/163
f 175/175/175 163/163/163 174/174/174
f 176/176/176 178/178/178 177/177/177
f 178/178/178 179/179/179 177/177/177
f 179/179/179 180/180/180 177/177/177
f 180/180/180 181/181/181 177/177/177
f 181/181/181 182/182/182 177/177/177
f 182/182/182 183/183/183 177/177/177
f 183/183/183 184/184/184 177/177/177
f 184/184/184 176/176/176 177/177/177
f 185/185/185 187/187/187 186/186/186
f 185/185/185 186/186/186 188/188/188
f 189/189/189 187/187/187 185/185/185
f 189/189/189 190/190/190 187/187/187
f 191/191/191 190/190/190 189/189/189
f 191/191/191 192/192/192 190/190/190
f 193/193/193 192/192/192 191/191/191
f 193/193/193 194/194/194 192/192/192
f 195/195/195 194/194/194 193/193/193
f 195/195/195 196/196/196 194/194/194
f 197/197/197 196/196/196 195/195/195
f 197/197/197 198/198/198 196/196/196
f 199/199/199 198/198/198 197/197/197
f 199/199/199 200/200/200 198/198/198
f 201/201/201 200/200/200 199/199/199
f 201/201/201 202/202/202 200/200/200
f 190/190/190 203/203/203 187/187/187
f 190/190/190 204/204/204 203/203/203
f 192/192/192 204/204/204 190/190/190
f 192/192/192 205/205/205 204/204/204
f 194/194/194 205/205/205 192/192/192
f 194/194/194 206/206/206 205/205/205
f 196/196/196 206/206/206 194/194/194
f 196/196/196 207/207/207 206/206/206
f 198/198/198 207/207/207 196/196/196
f 198/198/198 208/208/208 207/207/207
f 200/200/200 208/208/208 198/198/198
f 200/200/200 209/209/209 208/208/208
f 202/202/202 209/209/209 200/200/200
f 202/202/202 210/210/210 209/209/209
f 187/187/187 203/203/203 211/211/211
f 187/187/187 211/211/211 186/186/186
f 212/212/212 214/214/214 213/213/213
f 215/215/215 212/212/212 213/213/213
f 216/216/216 215/215/215 213/213/213
f 217/217/217 216/216/216 213/213/213
f 218/218/218 217/217/217 213/213/213
f 219/219/219 218/218/218 213/213/213
f 220/220/220 219/219/219 213/213/213
f 214/214/214 220/220/220 213/213/213
