# Generated from legacy Unity YAML Mesh assets without Unity.
mtllib ArmorBag_23.mtl

o ArmorBag_23_00_fbx_dwings_fly02
v -0.39679617 -0.742783115 0.23759846
v -0.892031068 -0.782319734 0.326135044
v -0.596710711 -1.26118057 0.380079782
v -0.489327852 -0.556771149 0.194400693
v -0.489302346 -0.559646243 0.177643228
v -0.596494266 -1.28571697 0.23707351
v -0.891730237 -0.816410209 0.127442857
v -0.388761345 -0.753359126 0.211031615
vt 0.000182906631 0.111046687
vt 1.00375485 0.795673549
vt 0.000182906631 0.792446017
vt 1.00375485 0.114274256
vt 0.000182906631 0.111046687
vt 1.00375485 0.795673549
vt 0.000182906631 0.792446017
vt 1.00375485 0.114274256
vn -0.153454182 -0.229930647 -0.961032628
vn -0.153454182 -0.229930647 -0.961032628
vn -0.156337606 -0.205253641 -0.966141551
vn -0.145680461 -0.291988012 -0.945261976
vn -0.175943572 0.106080896 0.978667821
vn -0.175943572 0.106080896 0.978667821
vn -0.190624533 0.108005643 0.975703371
vn -0.133850307 0.10045824 0.985896667

g ArmorBag_23_00_fbx_dwings_fly02_submesh_0
usemtl dwings_fly01
f 1/1/1 3/3/3 2/2/2
f 1/1/1 2/2/2 4/4/4
f 5/5/5 7/7/7 6/6/6
f 5/5/5 6/6/6 8/8/8

o ArmorBag_23_01_fbx_dwings_fly02
v 0.398813488 -0.738853917 0.216597587
v 0.892930262 -0.775023374 0.3125131
v 0.598696542 -1.25414314 0.369980729
v 0.491230882 -0.55318007 0.171732825
v 0.491446374 -0.556319031 0.155024146
v 0.600536747 -1.28093135 0.227390823
v 0.89548693 -0.8122425 0.114399404
v 0.391184139 -0.749879203 0.190093932
vt 0.000182906631 0.111046687
vt 1.00375485 0.795673549
vt 0.000182906631 0.792446017
vt 1.00375485 0.114274256
vt 0.000182906631 0.111046687
vt 1.00375485 0.795673549
vt 0.000182906631 0.792446017
vt 1.00375485 0.114274256
vn 0.167503804 -0.244439623 -0.955087298
vn 0.167503804 -0.244439623 -0.955087298
vn 0.170364478 -0.219834958 -0.960545957
vn 0.159747192 -0.306271069 -0.938444919
vn 0.162083278 0.122192097 0.979182364
vn 0.162083278 0.122192097 0.979182364
vn 0.176796251 0.124128153 0.976388902
vn 0.119916079 0.116516998 0.985922879

g ArmorBag_23_01_fbx_dwings_fly02_submesh_0
usemtl dwings_fly01_2
f 9/9/9 10/10/10 11/11/11
f 9/9/9 12/12/12 10/10/10
f 13/13/13 14/14/14 15/15/15
f 13/13/13 16/16/16 14/14/14

o ArmorBag_23_02_fbx_dwings_fly01
v 0.0765500069 -0.215622907 0.26960523
v 0.415994883 -0.389471923 0.364702652
v 0.108764499 -0.136463855 0.241560231
v 0.178755134 -0.452455525 0.371381323
v 0.108723015 -0.141439294 0.204119484
v 0.171880811 -0.486340259 0.247040431
v 0.0726948082 -0.225813483 0.218661378
v 0.409226805 -0.42283312 0.242283027
v -0.0769102871 -0.200701212 0.2643661
v -0.416355103 -0.374550288 0.359463463
v -0.179115325 -0.43753389 0.366142104
v -0.109124869 -0.121542131 0.236321102
v -0.109083384 -0.126517569 0.198880355
v -0.172240943 -0.471418654 0.241801272
v -0.409586996 -0.407911544 0.237043838
v -0.0730550587 -0.210891788 0.213422219
vt 0.00341457315 0.108126447
vt 0.999320388 0.795428157
vt 0.999320388 0.111366622
vt 0.00341457315 0.792188048
vt 0.00341457315 0.108126447
vt 0.999320388 0.795428157
vt 0.999320388 0.111366622
vt 0.00341457315 0.792188048
vt 0.00341457315 0.108126447
vt 0.999320388 0.795428157
vt 0.00341457315 0.792188048
vt 0.999320388 0.111366622
vt 0.00341457315 0.108126447
vt 0.999320388 0.795428157
vt 0.00341457315 0.792188048
vt 0.999320388 0.111366622
vn 0.0730098983 -0.365123219 -0.928091908
vn 0.0730098983 -0.365123219 -0.928091908
vn 0.0759419905 -0.360299861 -0.929740192
vn 0.07149271 -0.367612447 -0.927226985
vn 0.00296015651 0.124024953 0.992274684
vn 0.00296015651 0.124024953 0.992274684
vn 0.0775381535 0.137089786 0.987519228
vn -0.0125403918 0.121220328 0.992546407
vn -0.0730098528 -0.36512295 -0.928092018
vn -0.0730098528 -0.36512295 -0.928092018
vn -0.0714927184 -0.367612089 -0.927227126
vn -0.0759418392 -0.360299767 -0.929740241
vn -0.00296021909 0.124024836 0.992274698
vn -0.00296021909 0.124024836 0.992274698
vn 0.0125402253 0.121220241 0.99254642
vn -0.0775376344 0.137089514 0.987519306

g ArmorBag_23_02_fbx_dwings_fly01_submesh_0
usemtl dwings_fly01_3
f 17/17/17 19/19/19 18/18/18
f 17/17/17 18/18/18 20/20/20
f 21/21/21 23/23/23 22/22/22
f 21/21/21 22/22/22 24/24/24
f 25/25/25 27/27/27 26/26/26
f 25/25/25 26/26/26 28/28/28
f 29/29/29 31/31/31 30/30/30
f 29/29/29 30/30/30 32/32/32

o ArmorBag_23_03_Plane06
v -0.0619337498 -0.285924584 0.190422786
v -0.100227576 0.0539825021 0.116888053
v -0.195226878 -0.193390189 0.167454485
v 1.43038319e-08 -0.285924584 0.190422786
v 1.43038319e-08 0.0539825021 0.116888053
v -0.100227576 0.0249344345 0.235617962
v -0.0619337459 -0.248401766 0.323381625
v -0.195226878 -0.155867377 0.294064073
v 1.43038319e-08 -0.248401766 0.323381625
v 1.43038319e-08 0.0249344345 0.235617962
v -0.195226878 -0.193390189 0.167454485
v -0.0619337459 -0.248401766 0.323381625
v -0.0619337498 -0.285924584 0.190422786
v -0.195226878 -0.155867377 0.294064073
v -0.100227576 0.0539825021 0.116888053
v -0.195226878 -0.155867377 0.294064073
v -0.195226878 -0.193390189 0.167454485
v -0.100227576 0.0249344345 0.235617962
v -0.0619337498 -0.285924584 0.190422786
v 1.43038319e-08 -0.248401766 0.323381625
v 1.43038319e-08 -0.285924584 0.190422786
v -0.0619337459 -0.248401766 0.323381625
v 1.43038319e-08 0.0539825021 0.116888053
v -0.100227576 0.0249344345 0.235617962
v -0.100227576 0.0539825021 0.116888053
v 1.43038319e-08 0.0249344345 0.235617962
v -0.122320645 0.0064466775 0.0241442636
v -0.122320676 -0.215435431 0.104758682
v -0.122320668 -0.240868412 0.0515610097
v -0.12232066 0.00821203726 0.0656053622
v -0.122320645 0.0699392818 0.00026287369
v -0.12232066 -0.293049721 0.0392517657
v -0.122320637 0.0723440623 -0.0457621603
v -0.122320645 -0.325688091 -0.019382251
v 1.43038319e-08 -0.215435424 0.104758729
v -0.122320668 -0.240868412 0.0515610097
v -0.122320676 -0.215435431 0.104758682
v 1.43038319e-08 -0.240868396 0.0515611034
v 1.43038319e-08 0.0064466775 0.0241443261
v -0.12232066 0.00821203726 0.0656053622
v -0.122320645 0.0064466775 0.0241442636
v 1.43038319e-08 0.00821202164 0.0656054403
v 1.43038319e-08 0.00821202164 0.0656054403
v -0.122320676 -0.215435431 0.104758682
v -0.12232066 0.00821203726 0.0656053622
v 1.43038319e-08 -0.215435424 0.104758729
v 1.43038319e-08 -0.240868396 0.0515611034
v -0.12232066 -0.293049721 0.0392517657
v -0.122320668 -0.240868412 0.0515610097
v 1.43038319e-08 -0.293049721 0.0392518282
v 1.43038319e-08 0.0699392662 0.000262920556
v -0.122320645 0.0064466775 0.0241442636
v -0.122320645 0.0699392818 0.00026287369
v 1.43038319e-08 0.0064466775 0.0241443261
v 1.43038319e-08 -0.293049721 0.0392518282
v -0.122320645 -0.325688091 -0.019382251
v -0.12232066 -0.293049721 0.0392517657
v 1.43038319e-08 -0.325688091 -0.0193822354
v 1.43038319e-08 0.0723440623 -0.0457621096
v -0.122320645 0.0699392818 0.00026287369
v -0.122320637 0.0723440623 -0.0457621603
v 1.43038319e-08 0.0699392662 0.000262920556
v 1.43038319e-08 0.15939634 -0.137955969
v -0.229451394 0.0614956211 -0.1293908
v -0.199601867 -0.137060877 -0.112019487
v 1.43038319e-08 -0.438007836 -0.0856901504
v -0.261643378 -0.308673518 -0.0970054169
v -0.199601867 -0.128291787 -0.0117877656
v -0.229451394 0.0702647027 -0.0291591102
v 1.43038319e-08 0.168165453 -0.0377242477
v 1.43038319e-08 -0.429238755 0.0145415452
v -0.261643378 -0.299904436 0.00322630212
v -0.229451394 0.0614956211 -0.1293908
v 1.43038319e-08 0.168165453 -0.0377242477
v -0.229451394 0.0702647027 -0.0291591102
v 1.43038319e-08 0.15939634 -0.137955969
v -0.199601867 -0.137060877 -0.112019487
v -0.229451394 0.0702647027 -0.0291591102
v -0.199601867 -0.128291787 -0.0117877656
v -0.229451394 0.0614956211 -0.1293908
v -0.261643378 -0.308673518 -0.0970054169
v -0.261643378 -0.299904436 0.00322630212
v 1.43038319e-08 -0.438007836 -0.0856901504
v -0.261643378 -0.299904436 0.00322630212
v 1.43038319e-08 -0.429238755 0.0145415452
v -0.261643378 -0.308673518 -0.0970054169
v 0.0619337751 -0.285924584 0.190422786
v 0.195226919 -0.193390185 0.167454485
v 0.100227601 0.0539824865 0.116888053
v 1.43038319e-08 -0.285924584 0.190422786
v 1.43038319e-08 0.0539825021 0.116888053
v 0.100227601 0.0249344189 0.235617962
v 0.195226919 -0.155867377 0.294064073
v 0.0619337712 -0.248401758 0.323381625
v 1.43038319e-08 -0.248401766 0.323381625
v 1.43038319e-08 0.0249344345 0.235617962
v 0.195226919 -0.193390185 0.167454485
v 0.0619337712 -0.248401758 0.323381625
v 0.195226919 -0.155867377 0.294064073
v 0.0619337751 -0.285924584 0.190422786
v 0.100227601 0.0539824865 0.116888053
v 0.195226919 -0.155867377 0.294064073
v 0.100227601 0.0249344189 0.235617962
v 0.195226919 -0.193390185 0.167454485
v 0.0619337751 -0.285924584 0.190422786
v 1.43038319e-08 -0.248401766 0.323381625
v 0.0619337712 -0.248401758 0.323381625
v 1.43038319e-08 -0.285924584 0.190422786
v 1.43038319e-08 0.0539825021 0.116888053
v 0.100227601 0.0249344189 0.235617962
v 1.43038319e-08 0.0249344345 0.235617962
v 0.100227601 0.0539824865 0.116888053
v 0.12232067 0.00644666188 0.0241442792
v 0.122320701 -0.215435424 0.104758698
v 0.122320686 0.00821202164 0.0656053778
v 0.122320694 -0.240868404 0.0515610253
v 0.12232067 0.0699392662 0.000262889312
v 0.122320686 -0.293049706 0.0392517813
v 0.122320662 0.0723440467 -0.0457621408
v 0.12232067 -0.325688075 -0.0193822432
v 1.43038319e-08 -0.215435424 0.104758729
v 0.122320694 -0.240868404 0.0515610253
v 1.43038319e-08 -0.240868396 0.0515611034
v 0.122320701 -0.215435424 0.104758698
v 1.43038319e-08 0.0064466775 0.0241443261
v 0.122320686 0.00821202164 0.0656053778
v 1.43038319e-08 0.00821202164 0.0656054403
v 0.12232067 0.00644666188 0.0241442792
v 1.43038319e-08 0.00821202164 0.0656054403
v 0.122320701 -0.215435424 0.104758698
v 1.43038319e-08 -0.215435424 0.104758729
v 0.122320686 0.00821202164 0.0656053778
v 1.43038319e-08 -0.240868396 0.0515611034
v 0.122320686 -0.293049706 0.0392517813
v 1.43038319e-08 -0.293049721 0.0392518282
v 0.122320694 -0.240868404 0.0515610253
v 1.43038319e-08 0.0699392662 0.000262920556
v 0.12232067 0.00644666188 0.0241442792
v 1.43038319e-08 0.0064466775 0.0241443261
v 0.12232067 0.0699392662 0.000262889312
v 1.43038319e-08 -0.293049721 0.0392518282
v 0.12232067 -0.325688075 -0.0193822432
v 1.43038319e-08 -0.325688091 -0.0193822354
v 0.122320686 -0.293049706 0.0392517813
v 1.43038319e-08 0.0723440623 -0.0457621096
v 0.12232067 0.0699392662 0.000262889312
v 1.43038319e-08 0.0699392662 0.000262920556
v 0.122320662 0.0723440467 -0.0457621408
v 1.43038319e-08 0.15939634 -0.137955969
v 0.199601908 -0.137060877 -0.112019455
v 0.229451435 0.0614956211 -0.129390767
v 1.43038319e-08 -0.438007836 -0.0856901504
v 0.261643419 -0.308673502 -0.0970053866
v 0.199601908 -0.128291789 -0.01178775
v 1.43038319e-08 0.168165453 -0.0377242477
v 0.229451435 0.0702646871 -0.0291590868
v 1.43038319e-08 -0.429238755 0.0145415452
v 0.261643419 -0.299904421 0.00322631774
v 0.229451435 0.0614956211 -0.129390767
v 1.43038319e-08 0.168165453 -0.0377242477
v 1.43038319e-08 0.15939634 -0.137955969
v 0.229451435 0.0702646871 -0.0291590868
v 0.199601908 -0.137060877 -0.112019455
v 0.229451435 0.0702646871 -0.0291590868
v 0.229451435 0.0614956211 -0.129390767
v 0.199601908 -0.128291789 -0.01178775
v 0.261643419 -0.308673502 -0.0970053866
v 0.261643419 -0.299904421 0.00322631774
v 1.43038319e-08 -0.438007836 -0.0856901504
v 0.261643419 -0.299904421 0.00322631774
v 0.261643419 -0.308673502 -0.0970053866
v 1.43038319e-08 -0.429238755 0.0145415452
v 0.0437117336 0.0502462698 0.0447672063
v 0.0848219767 -0.196492661 0.0729177651
v 0.147422365 0.0571313565 0.0438285928
v 0.0437117336 -0.196658836 0.0729404326
v 0.217197972 0.0914213314 0.0391539592
v 0.406086242 -0.237020053 0.0784427483
v 0.0848219767 -0.196492661 0.0729177651
v 0.222988487 -0.39915958 0.100546758
v 0.418916282 -0.315227182 0.0891045092
v 0.228540172 -0.558342962 0.122247769
v 0.621485475 -0.587476347 0.12621943
v 0.621485475 -0.587476347 0.12621943
v 0.397708004 -0.970192542 0.207416689
v 0.619708129 -0.665715324 0.144953128
v 0.228540172 -0.558342962 0.122247769
v 0.476953904 -0.973700932 0.207894971
v 0.0848219767 -0.180915341 0.187182084
v 0.0437117336 0.0255775678 0.159031521
v 0.14742235 0.0324626545 0.158092892
v 0.0437117336 -0.181081516 0.187204736
v 0.217197972 0.0667526451 0.153418243
v 0.406086242 -0.221442737 0.192707067
v 0.222988487 -0.383582263 0.214811093
v 0.0848219767 -0.180915341 0.187182084
v 0.418916282 -0.299649865 0.203368828
v 0.228540172 -0.54276563 0.236512072
v 0.621485475 -0.571899015 0.240483765
v 0.397707973 -0.902412451 0.285541682
v 0.619708066 -0.650137926 0.251149838
v 0.476953842 -0.905920716 0.286019963
v 0.222988487 -0.39915958 0.100546758
v 0.222988487 -0.383582263 0.214811093
v 0.0848219767 -0.196492661 0.0729177651
v 0.228540172 -0.558342962 0.122247769
v 0.222988487 -0.383582263 0.214811093
v 0.228540172 -0.54276563 0.236512072
v 0.397708004 -0.970192542 0.207416689
v 0.397707973 -0.902412451 0.285541682
v 0.0848219767 -0.196492661 0.0729177651
v 0.0437117336 -0.181081516 0.187204736
v 0.0848219767 -0.180915341 0.187182084
v 0.0437117336 -0.196658836 0.0729404326
v 0.0437117336 0.0502462698 0.0447672063
v 0.14742235 0.0324626545 0.158092892
v 0.0437117336 0.0255775678 0.159031521
v 0.147422365 0.0571313565 0.0438285928
v 0.217197972 0.0667526451 0.153418243
v 0.217197972 0.0914213314 0.0391539592
v 0.217197972 0.0914213314 0.0391539592
v 0.406086242 -0.221442737 0.192707067
v 0.217197972 0.0667526451 0.153418243
v 0.406086242 -0.237020053 0.0784427483
v 0.418916282 -0.299649865 0.203368828
v 0.406086242 -0.221442737 0.192707067
v 0.418916282 -0.315227182 0.0891045092
v 0.621485475 -0.571899015 0.240483765
v 0.418916282 -0.299649865 0.203368828
v 0.621485475 -0.587476347 0.12621943
v 0.621485475 -0.587476347 0.12621943
v 0.619708066 -0.650137926 0.251149838
v 0.619708129 -0.665715324 0.144953128
v 0.476953842 -0.905920716 0.286019963
v 0.476953904 -0.973700932 0.207894971
v 0.476953904 -0.973700932 0.207894971
v 0.397707973 -0.902412451 0.285541682
v 0.476953842 -0.905920716 0.286019963
v 0.397708004 -0.970192542 0.207416689
v 0.0437117336 -0.196658836 0.0729404326
v 0.0437117336 0.0255775678 0.159031521
v 0.0437117336 -0.181081516 0.187204736
v 0.0437117336 0.0502462698 0.0447672063
v -0.0437117083 0.0502462698 0.0447672063
v -0.0848219514 -0.196492661 0.0729177651
v -0.0437117083 -0.196658836 0.0729404326
v -0.147422324 0.0571313565 0.0438285928
v -0.217197931 0.0914213314 0.0391539592
v -0.406086232 -0.237020053 0.0784427483
v -0.0848219514 -0.196492661 0.0729177651
v -0.222988446 -0.39915958 0.100546758
v -0.418916272 -0.315227182 0.0891045092
v -0.228540131 -0.558342962 0.122247769
v -0.621485466 -0.587476347 0.12621943
v -0.621485466 -0.587476347 0.12621943
v -0.397707994 -0.970192542 0.207416689
v -0.228540131 -0.558342962 0.122247769
v -0.619708119 -0.665715324 0.144953128
v -0.476953895 -0.973700932 0.207894971
v -0.0848219514 -0.180915341 0.187182084
v -0.0437117083 0.0255775678 0.159031521
v -0.0437117083 -0.181081516 0.187204736
v -0.147422309 0.0324626545 0.158092892
v -0.217197931 0.0667526451 0.153418243
v -0.406086232 -0.221442737 0.192707067
v -0.0848219514 -0.180915341 0.187182084
v -0.222988446 -0.383582263 0.214811093
v -0.418916272 -0.299649865 0.203368828
v -0.228540131 -0.54276563 0.236512072
v -0.621485466 -0.571899015 0.240483765
v -0.397707963 -0.902412451 0.285541682
v -0.619708056 -0.650137926 0.251149838
v -0.476953832 -0.905920716 0.286019963
v -0.0848219514 -0.196492661 0.0729177651
v -0.0437117083 -0.181081516 0.187204736
v -0.0437117083 -0.196658836 0.0729404326
v -0.0848219514 -0.180915341 0.187182084
v -0.0437117083 0.0502462698 0.0447672063
v -0.147422309 0.0324626545 0.158092892
v -0.147422324 0.0571313565 0.0438285928
v -0.0437117083 0.0255775678 0.159031521
v -0.217197931 0.0667526451 0.153418243
v -0.217197931 0.0914213314 0.0391539592
v -0.217197931 0.0914213314 0.0391539592
v -0.406086232 -0.221442737 0.192707067
v -0.406086232 -0.237020053 0.0784427483
v -0.217197931 0.0667526451 0.153418243
v -0.418916272 -0.299649865 0.203368828
v -0.418916272 -0.315227182 0.0891045092
v -0.406086232 -0.221442737 0.192707067
v -0.621485466 -0.571899015 0.240483765
v -0.621485466 -0.587476347 0.12621943
v -0.418916272 -0.299649865 0.203368828
v -0.621485466 -0.587476347 0.12621943
v -0.619708056 -0.650137926 0.251149838
v -0.619708119 -0.665715324 0.144953128
v -0.476953832 -0.905920716 0.286019963
v -0.476953895 -0.973700932 0.207894971
v -0.222988446 -0.39915958 0.100546758
v -0.0848219514 -0.180915341 0.187182084
v -0.0848219514 -0.196492661 0.0729177651
v -0.222988446 -0.383582263 0.214811093
v -0.228540131 -0.558342962 0.122247769
v -0.222988446 -0.383582263 0.214811093
v -0.228540131 -0.54276563 0.236512072
v -0.397707994 -0.970192542 0.207416689
v -0.397707963 -0.902412451 0.285541682
v -0.476953895 -0.973700932 0.207894971
v -0.397707963 -0.902412451 0.285541682
v -0.397707994 -0.970192542 0.207416689
v -0.476953832 -0.905920716 0.286019963
v -0.0437117083 -0.196658836 0.0729404326
v -0.0437117083 0.0255775678 0.159031521
v -0.0437117083 0.0502462698 0.0447672063
v -0.0437117083 -0.181081516 0.187204736
vt 0.107147932 0.447289944
vt 0.166531429 0.986525178
vt 0.313899785 0.595135093
vt 0.0110894497 0.447287917
vt 0.0110850222 0.98652184
vt 0.334499121 0.353399605
vt 0.124417521 0.381390423
vt 0.195583522 0.283906549
vt 0.124395855 0.426729769
vt 0.334507108 0.42674306
vt 0.118153058 0.226071179
vt 0.124417521 0.381390423
vt 0.0438855961 0.320254028
vt 0.195583522 0.283906549
vt 0.407514811 0.302692115
vt 0.195583522 0.283906549
vt 0.240003288 0.198637903
vt 0.334499121 0.353399605
vt 0.0233090669 0.381332397
vt 0.124395855 0.426729769
vt 0.0232806653 0.426660359
vt 0.124417521 0.381390423
vt 0.423964322 0.426745385
vt 0.334499121 0.353399605
vt 0.42396152 0.353390276
vt 0.334507108 0.42674306
vt 0.295545787 0.87050879
vt 0.407804519 0.89035058
vt 0.415465206 0.862926602
vt 0.298163205 0.890377045
vt 0.263354331 0.864444137
vt 0.439258307 0.852720499
vt 0.258372456 0.842753053
vt 0.449893087 0.822110057
vt 0.407827407 0.986929655
vt 0.436278731 0.890344441
vt 0.407804519 0.89035058
vt 0.436300546 0.986923754
vt 0.2781488 0.986961484
vt 0.298163205 0.890377045
vt 0.278122336 0.89038229
vt 0.298187405 0.98695612
vt 0.298187405 0.98695612
vt 0.407804519 0.89035058
vt 0.298163205 0.890377045
vt 0.407827407 0.986929655
vt 0.436300546 0.986923754
vt 0.462168545 0.890339017
vt 0.436278731 0.890344441
vt 0.462189764 0.986918211
vt 0.245392114 0.986970782
vt 0.278122336 0.89038229
vt 0.2453641 0.890391469
vt 0.2781488 0.986961484
vt 0.462189764 0.986918211
vt 0.494573921 0.890332103
vt 0.462168545 0.890339017
vt 0.494595021 0.986911178
vt 0.223136857 0.986977518
vt 0.2453641 0.890391469
vt 0.223108247 0.890398324
vt 0.245392114 0.986970782
vt 0.456762195 0.0172165632
vt 0.383736432 0.187725604
vt 0.235623926 0.165546477
vt 0.0111305937 0.017224431
vt 0.107610717 0.211652055
vt 0.727352977 0.159116596
vt 0.585276902 0.17359288
vt 0.522520304 0.0144859497
vt 0.935969949 0.0150338132
vt 0.85193938 0.196956381
vt 0.5340783 0.194846585
vt 0.522520304 0.0144859497
vt 0.585276902 0.17359288
vt 0.470590174 0.0339681134
vt 0.72205466 0.215523914
vt 0.585276902 0.17359288
vt 0.727352977 0.159116596
vt 0.588282406 0.226810232
vt 0.839009523 0.248416051
vt 0.85193938 0.196956381
vt 0.986696482 0.0373402536
vt 0.85193938 0.196956381
vt 0.935969949 0.0150338132
vt 0.901861072 0.221081838
vt 0.107147932 0.447289944
vt 0.313899785 0.595135093
vt 0.166531429 0.986525178
vt 0.0110894497 0.447287917
vt 0.0110850222 0.98652184
vt 0.334499121 0.353399605
vt 0.195583522 0.283906549
vt 0.124417521 0.381390423
vt 0.124395855 0.426729769
vt 0.334507108 0.42674306
vt 0.118153058 0.226071179
vt 0.124417521 0.381390423
vt 0.195583522 0.283906549
vt 0.0438855961 0.320254028
vt 0.407514811 0.302692115
vt 0.195583522 0.283906549
vt 0.334499121 0.353399605
vt 0.240003288 0.198637903
vt 0.0233090669 0.381332397
vt 0.124395855 0.426729769
vt 0.124417521 0.381390423
vt 0.0232806653 0.426660359
vt 0.423964322 0.426745385
vt 0.334499121 0.353399605
vt 0.334507108 0.42674306
vt 0.42396152 0.353390276
vt 0.295545787 0.87050879
vt 0.407804519 0.89035058
vt 0.298163205 0.890377045
vt 0.415465206 0.862926602
vt 0.263354331 0.864444137
vt 0.439258307 0.852720499
vt 0.258372456 0.842753053
vt 0.449893087 0.822110057
vt 0.407827407 0.986929655
vt 0.436278731 0.890344441
vt 0.436300546 0.986923754
vt 0.407804519 0.89035058
vt 0.2781488 0.986961484
vt 0.298163205 0.890377045
vt 0.298187405 0.98695612
vt 0.278122336 0.89038229
vt 0.298187405 0.98695612
vt 0.407804519 0.89035058
vt 0.407827407 0.986929655
vt 0.298163205 0.890377045
vt 0.436300546 0.986923754
vt 0.462168545 0.890339017
vt 0.462189764 0.986918211
vt 0.436278731 0.890344441
vt 0.245392114 0.986970782
vt 0.278122336 0.89038229
vt 0.2781488 0.986961484
vt 0.2453641 0.890391469
vt 0.462189764 0.986918211
vt 0.494573921 0.890332103
vt 0.494595021 0.986911178
vt 0.462168545 0.890339017
vt 0.223136857 0.986977518
vt 0.2453641 0.890391469
vt 0.245392114 0.986970782
vt 0.223108247 0.890398324
vt 0.456762195 0.0172165632
vt 0.235623926 0.165546477
vt 0.383736432 0.187725604
vt 0.0111305937 0.017224431
vt 0.107610717 0.211652055
vt 0.727352977 0.159116596
vt 0.522520304 0.0144859497
vt 0.585276902 0.17359288
vt 0.935969949 0.0150338132
vt 0.85193938 0.196956381
vt 0.5340783 0.194846585
vt 0.522520304 0.0144859497
vt 0.470590174 0.0339681134
vt 0.585276902 0.17359288
vt 0.72205466 0.215523914
vt 0.585276902 0.17359288
vt 0.588282406 0.226810232
vt 0.727352977 0.159116596
vt 0.839009523 0.248416051
vt 0.85193938 0.196956381
vt 0.986696482 0.0373402536
vt 0.85193938 0.196956381
vt 0.901861072 0.221081838
vt 0.935969949 0.0150338132
vt 0.830028594 0.994757116
vt 0.793846965 0.852694809
vt 0.886964262 0.974196255
vt 0.771882951 0.862225354
vt 0.932272494 0.976323783
vt 0.955614567 0.755718708
vt 0.793846965 0.852694809
vt 0.819681704 0.711279273
vt 0.943992555 0.710622668
vt 0.785062253 0.624294102
vt 0.987755239 0.516694844
vt 0.987755239 0.516694844
vt 0.77685672 0.360422432
vt 0.967986524 0.474222988
vt 0.785062253 0.624294102
vt 0.818290293 0.339991659
vt 0.716831803 0.802826881
vt 0.701892197 0.925413609
vt 0.644498944 0.913127899
vt 0.731813192 0.818021894
vt 0.601081371 0.916313529
vt 0.551198542 0.728684962
vt 0.673113704 0.663485587
vt 0.716831803 0.802826881
vt 0.547720611 0.684135079
vt 0.681140125 0.572144687
vt 0.47029683 0.504804432
vt 0.639359534 0.351563632
vt 0.486454934 0.464583278
vt 0.595523119 0.339776009
vt 0.740513027 0.654168665
vt 0.673113704 0.663485587
vt 0.779998124 0.780666113
vt 0.742721379 0.565856874
vt 0.673113704 0.663485587
vt 0.681140125 0.572144687
vt 0.684206843 0.314036816
vt 0.639359534 0.351563632
vt 0.779998124 0.780666113
vt 0.731813192 0.818021894
vt 0.716831803 0.802826881
vt 0.789027512 0.80036509
vt 0.689694881 0.98938477
vt 0.644498944 0.913127899
vt 0.701892197 0.925413609
vt 0.632758319 0.979628325
vt 0.601081371 0.916313529
vt 0.589685321 0.979667187
vt 0.545399547 0.951920629
vt 0.551198542 0.728684962
vt 0.601081371 0.916313529
vt 0.490180522 0.744361877
vt 0.547720611 0.684135079
vt 0.551198542 0.728684962
vt 0.482926279 0.7038064
vt 0.47029683 0.504804432
vt 0.547720611 0.684135079
vt 0.410950035 0.528562069
vt 0.411533087 0.468861639
vt 0.486454934 0.464583278
vt 0.439818591 0.430067837
vt 0.595523119 0.339776009
vt 0.574401319 0.285461515
vt 0.60990423 0.282953978
vt 0.639359534 0.351563632
vt 0.595523119 0.339776009
vt 0.653186381 0.294785589
vt 0.926020145 0.281679422
vt 0.98365581 0.371528268
vt 0.977561653 0.278310001
vt 0.935709119 0.392561555
vt 0.830028594 0.994757116
vt 0.793846965 0.852694809
vt 0.771882951 0.862225354
vt 0.886964262 0.974196255
vt 0.932272494 0.976323783
vt 0.955614567 0.755718708
vt 0.793846965 0.852694809
vt 0.819681704 0.711279273
vt 0.943992555 0.710622668
vt 0.785062253 0.624294102
vt 0.987755239 0.516694844
vt 0.987755239 0.516694844
vt 0.77685672 0.360422432
vt 0.785062253 0.624294102
vt 0.967986524 0.474222988
vt 0.818290293 0.339991659
vt 0.716831803 0.802826881
vt 0.701892197 0.925413609
vt 0.731813192 0.818021894
vt 0.644498944 0.913127899
vt 0.601081371 0.916313529
vt 0.551198542 0.728684962
vt 0.716831803 0.802826881
vt 0.673113704 0.663485587
vt 0.547720611 0.684135079
vt 0.681140125 0.572144687
vt 0.47029683 0.504804432
vt 0.639359534 0.351563632
vt 0.486454934 0.464583278
vt 0.595523119 0.339776009
vt 0.779998124 0.780666113
vt 0.731813192 0.818021894
vt 0.789027512 0.80036509
vt 0.716831803 0.802826881
vt 0.689694881 0.98938477
vt 0.644498944 0.913127899
vt 0.632758319 0.979628325
vt 0.701892197 0.925413609
vt 0.601081371 0.916313529
vt 0.589685321 0.979667187
vt 0.545399547 0.951920629
vt 0.551198542 0.728684962
vt 0.490180522 0.744361877
vt 0.601081371 0.916313529
vt 0.547720611 0.684135079
vt 0.482926279 0.7038064
vt 0.551198542 0.728684962
vt 0.47029683 0.504804432
vt 0.410950035 0.528562069
vt 0.547720611 0.684135079
vt 0.411533087 0.468861639
vt 0.486454934 0.464583278
vt 0.439818591 0.430067837
vt 0.595523119 0.339776009
vt 0.574401319 0.285461515
vt 0.740513027 0.654168665
vt 0.716831803 0.802826881
vt 0.779998124 0.780666113
vt 0.673113704 0.663485587
vt 0.742721379 0.565856874
vt 0.673113704 0.663485587
vt 0.681140125 0.572144687
vt 0.684206843 0.314036816
vt 0.639359534 0.351563632
vt 0.60990423 0.282953978
vt 0.639359534 0.351563632
vt 0.653186381 0.294785589
vt 0.595523119 0.339776009
vt 0.926020145 0.281679422
vt 0.98365581 0.371528268
vt 0.935709119 0.392561555
vt 0.977561653 0.278310001
vn 0.015603957 -0.209740873 -0.977632489
vn 0.0101163936 -0.210346564 -0.97757454
vn 0.0234701358 -0.208861397 -0.977663577
vn 0 -0.211446269 -0.977389623
vn 0 -0.211446269 -0.977389623
vn 0.0013268277 0.305879365 0.952069353
vn 0.00205639183 0.305971639 0.952038407
vn 0.00311467181 0.306105194 0.951992599
vn 0 0.305711126 0.952124313
vn 0 0.305711126 0.952124313
vn -0.585040294 -0.779095868 0.225249823
vn -0.585040294 -0.779095868 0.225249823
vn -0.581581018 -0.782908477 0.220947587
vn -0.58860887 -0.77509484 0.229711968
vn -0.915269508 0.40260194 -0.0139070488
vn -0.915269508 0.40260194 -0.0139070488
vn -0.935507232 0.338744147 -0.10039234
vn -0.862254344 0.491965716 0.120362708
vn 0 -0.962408803 0.271605037
vn 0 -0.962408803 0.271605037
vn 0 -0.962408803 0.271605037
vn 0 -0.962408803 0.271605037
vn 0 0.971351431 0.237647634
vn 0 0.971351431 0.237647634
vn 0 0.971351431 0.237647634
vn 0 0.971351431 0.237647634
vn -1 5.95038975e-08 -1.66708284e-07
vn -1 4.60638337e-08 -2.60787952e-07
vn -1 6.03457046e-08 -1.91273976e-07
vn -1 3.8592314e-09 -3.76951367e-07
vn -1 3.15908375e-08 -1.81826933e-07
vn -1 7.35706716e-09 -2.7309137e-07
vn -1 1.12796204e-08 -2.2715695e-07
vn -1 1.89606826e-09 -2.67487891e-07
vn -1.61471053e-07 -0.902196114 0.431326061
vn -1.61471053e-07 -0.902196114 0.431326061
vn -1.07647324e-07 -0.902196162 0.431325961
vn -2.15294828e-07 -0.902196066 0.431326162
vn 8.82474259e-08 0.999094766 -0.042539962
vn 8.82474259e-08 0.999094766 -0.042539962
vn 2.17320701e-08 0.999094758 -0.0425401579
vn 1.54762749e-07 0.999094774 -0.0425397661
vn -4.97695169e-07 0.172444431 0.985019248
vn -4.97695169e-07 0.172444431 0.985019248
vn -6.06977797e-07 0.172444489 0.985019237
vn -3.88412541e-07 0.172444373 0.985019258
vn -6.06848527e-07 -0.229592523 0.97328684
vn -6.06848527e-07 -0.229592523 0.97328684
vn -7.16489482e-07 -0.22959228 0.973286898
vn -4.97207612e-07 -0.229592767 0.973286783
vn -3.95900374e-07 0.352049594 0.935981348
vn -3.95900374e-07 0.352049594 0.935981348
vn -3.13650896e-07 0.352049455 0.9359814
vn -4.78149864e-07 0.352049733 0.935981296
vn -1.55290359e-07 -0.873752709 0.486370439
vn -1.55290359e-07 -0.873752709 0.486370439
vn -2.48464635e-07 -0.873752626 0.486370588
vn -6.21161286e-08 -0.873752791 0.486370291
vn 4.29453348e-08 0.99863778 0.0521783979
vn 4.29453348e-08 0.99863778 0.0521783979
vn -2.16573616e-08 0.998637789 0.0521782267
vn 1.07548032e-07 0.998637771 0.0521785691
vn 6.24704353e-08 -0.0871552386 -0.996194742
vn -1.20481001e-07 -0.0871551164 -0.996194753
vn 8.49268746e-08 -0.0871552475 -0.996194741
vn 1.42768222e-07 -0.0871552844 -0.996194738
vn 1.56092914e-07 -0.0871552757 -0.996194739
vn -8.05349549e-08 0.087155241 0.996194742
vn -8.26607438e-08 0.0871552457 0.996194742
vn -7.84424822e-08 0.0871552429 0.996194742
vn -7.99363484e-08 0.0871552397 0.996194742
vn -8.71661482e-08 0.0871552349 0.996194743
vn -0.39371072 0.915736461 -0.0801161873
vn -0.39371072 0.915736461 -0.0801161873
vn -0.393710768 0.915736451 -0.0801160562
vn -0.393710672 0.91573647 -0.0801163183
vn -0.999991582 0.00408747839 -0.000357608757
vn -0.988971056 -0.147545318 0.0129084657
vn -0.985318402 0.170077157 -0.0148797301
vn -0.988971057 -0.147545317 0.0129084617
vn -0.940843942 0.337550821 -0.0295316898
vn -0.940843944 0.337550816 -0.029531676
vn -0.44449081 -0.892374728 0.0780721694
vn -0.44449081 -0.892374728 0.0780721694
vn -0.444490808 -0.892374729 0.0780721786
vn -0.444490813 -0.892374728 0.0780721602
vn -0.0156039466 -0.209740883 -0.977632487
vn -0.0234701189 -0.208861408 -0.977663575
vn -0.0101163986 -0.21034657 -0.977574539
vn -2.03699728e-08 -0.211446273 -0.977389622
vn -3.29572156e-08 -0.211446269 -0.977389623
vn -0.00132681929 0.305879381 0.952069348
vn -0.00311467169 0.306105217 0.951992592
vn -0.00205640499 0.305971664 0.952038398
vn 1.47255451e-08 0.305711137 0.95212431
vn 4.76498361e-08 0.305711126 0.952124313
vn 0.585040241 -0.779095901 0.225249845
vn 0.585040241 -0.779095901 0.225249845
vn 0.588608795 -0.775094899 0.229711962
vn 0.581580987 -0.782908486 0.220947635
vn 0.915269471 0.402602025 -0.0139070453
vn 0.915269471 0.402602025 -0.0139070453
vn 0.862254286 0.49196581 0.120362731
vn 0.935507204 0.33874422 -0.100392351
vn 6.06888433e-08 -0.962408795 0.271605064
vn 6.06888433e-08 -0.962408795 0.271605064
vn 1.2137769e-07 -0.962408788 0.27160509
vn 0 -0.962408803 0.271605037
vn 1.5140002e-07 0.971351431 0.237647634
vn 1.5140002e-07 0.971351431 0.237647634
vn 1.5140002e-07 0.971351431 0.237647634
vn 1.5140002e-07 0.971351431 0.237647634
vn 1 5.95039036e-08 -1.6670828e-07
vn 1 4.6063838e-08 -2.60787954e-07
vn 1 3.85923174e-09 -3.76951367e-07
vn 1 6.03457108e-08 -1.91273973e-07
vn 1 3.159084e-08 -1.81826938e-07
vn 1 7.35707145e-09 -2.73091362e-07
vn 1 1.12796255e-08 -2.27156943e-07
vn 1 1.89607831e-09 -2.67487861e-07
vn 1.63996138e-07 -0.902196114 0.431326061
vn 1.63996138e-07 -0.902196114 0.431326061
vn 2.17819898e-07 -0.902196066 0.431326162
vn 1.10172423e-07 -0.902196162 0.431325961
vn 4.478349e-08 0.999094766 -0.042539962
vn 4.478349e-08 0.999094766 -0.042539962
vn -2.17318675e-08 0.999094774 -0.0425397661
vn 1.1129888e-07 0.999094758 -0.0425401579
vn 3.77400801e-07 0.17244444 0.985019246
vn 3.77400801e-07 0.17244444 0.985019246
vn 2.51600521e-07 0.172444373 0.985019258
vn 5.03201095e-07 0.172444507 0.985019234
vn 5.0453814e-07 -0.22959254 0.973286836
vn 5.0453814e-07 -0.22959254 0.973286836
vn 4.0222776e-07 -0.229592767 0.973286783
vn 6.0684857e-07 -0.229592312 0.97328689
vn 3.21324471e-07 0.352049594 0.935981348
vn 3.21324471e-07 0.352049594 0.935981348
vn 4.03573987e-07 0.352049733 0.935981296
vn 2.39074965e-07 0.352049455 0.9359814
vn 2.20293271e-07 -0.873752722 0.486370414
vn 2.20293271e-07 -0.873752722 0.486370414
vn 1.42648103e-07 -0.873752791 0.486370291
vn 2.97938468e-07 -0.873752654 0.486370538
vn 7.70974416e-08 0.998637779 0.0521784001
vn 7.70974416e-08 0.998637779 0.0521784001
vn 1.33276939e-08 0.998637771 0.0521785691
vn 1.40867194e-07 0.998637788 0.0521782311
vn 8.94960077e-08 -0.0871552422 -0.996194742
vn 5.51657076e-08 -0.0871552416 -0.996194742
vn 2.59294513e-07 -0.0871551287 -0.996194752
vn -2.31546367e-09 -0.0871552733 -0.996194739
vn -5.36294419e-08 -0.0871552395 -0.996194742
vn 2.0946026e-09 0.0871552342 0.996194743
vn -6.25212342e-09 0.0871552379 0.996194742
vn -2.06755759e-08 0.0871552282 0.996194743
vn 8.50651684e-09 0.0871552359 0.996194742
vn 2.85459675e-08 0.0871552227 0.996194744
vn 0.393710737 0.915736459 -0.0801161197
vn 0.393710737 0.915736459 -0.0801161197
vn 0.393710664 0.915736473 -0.0801163186
vn 0.39371081 0.915736445 -0.0801159208
vn 0.999991582 0.00408747537 -0.000357615645
vn 0.988971056 -0.147545325 0.0129084547
vn 0.988971057 -0.147545319 0.0129084401
vn 0.9853184 0.170077172 -0.0148797324
vn 0.940843931 0.33755085 -0.0295316929
vn 0.940843933 0.337550846 -0.029531683
vn 0.444490831 -0.892374718 0.0780721742
vn 0.444490831 -0.892374718 0.0780721742
vn 0.444490832 -0.892374718 0.0780721707
vn 0.44449083 -0.892374718 0.0780721776
vn -0.00106705428 -0.113530533 -0.993533935
vn -2.96443232e-05 -0.115866656 -0.993264777
vn -0.00541889279 -0.112625135 -0.993622773
vn -8.9565382e-05 -0.113369828 -0.993552854
vn 0.000299749455 -0.116608251 -0.993177943
vn 0.00126956179 -0.125190649 -0.992131891
vn 4.30339035e-09 -0.13507766 -0.990835014
vn 3.6261165e-08 -0.135077681 -0.990835012
vn 1.29007231e-08 -0.135077643 -0.990835017
vn 1.64131888e-09 -0.135077627 -0.990835019
vn -1.70206585e-08 -0.135077612 -0.990835021
vn -0.000161223057 -0.207450772 -0.978245445
vn -0.000503189391 -0.206386178 -0.978470486
vn 0.0173998632 -0.21309307 -0.976876957
vn -0.005274725 -0.204585821 -0.978834419
vn -0.00289274415 -0.198939574 -0.980007489
vn -0.334461893 -0.100270049 0.937059848
vn 2.32653245e-08 0.135077592 0.990835024
vn 1.02420859e-08 0.135077611 0.990835021
vn -5.64209474e-08 0.135077576 0.990835026
vn -1.71244629e-08 0.135077607 0.990835022
vn -5.48533294e-09 0.135077672 0.990835013
vn 2.70369257e-08 0.135077676 0.990835012
vn 7.6752963e-09 0.135077741 0.990835003
vn -2.51047298e-08 0.135077611 0.990835021
vn -4.2335683e-08 0.135077615 0.990835021
vn -4.84719725e-08 0.135077623 0.990835019
vn -4.97493174e-08 0.135077639 0.990835017
vn -1.36742384e-08 0.135077635 0.990835018
vn -1.21570785e-07 0.135077728 0.990835005
vn -0.896297505 -0.439389007 0.0599006054
vn -0.828658944 -0.554623704 0.0756101968
vn -0.828658936 -0.554623711 0.075610227
vn -0.971651194 -0.234252247 0.0319349503
vn -0.999403462 -0.0342192669 0.00466501366
vn -0.938781564 -0.316769002 0.135449528
vn -0.913812171 -0.372661369 0.161464611
vn -0.873672623 -0.367486585 0.318825591
vn 0.00407955759 -0.990826771 0.135076523
vn 0.00407955759 -0.990826771 0.135076523
vn 0.00407953192 -0.990826772 0.135076514
vn 0.00407958325 -0.99082677 0.135076532
vn -0.0628579601 0.975546683 0.210612312
vn -0.162305658 0.964518806 0.208231475
vn -0.0628579492 0.975546686 0.210612303
vn -0.282336533 0.937711326 0.202443945
vn -0.422558197 0.88592482 0.191263647
vn -0.422558174 0.885924834 0.191263632
vn 0.851329716 0.524216373 0.0208544795
vn 0.851329716 0.524216373 0.0208544795
vn 0.822752809 0.555598812 0.119949055
vn 0.915615517 0.398370176 -0.0543086264
vn 0.987045152 0.158972273 -0.0216722192
vn 0.987045152 0.158972273 -0.0216722192
vn 0.832666448 0.548699513 -0.0748026112
vn 0.841588195 0.535169529 -0.0729581084
vn 0.804903307 0.587967435 -0.0801558592
vn 0.804903321 0.587967407 -0.0801559249
vn 0.999750341 -0.0221241589 0.00312678676
vn 0.944998483 -0.323617994 0.0474263773
vn 0.912046941 -0.373956945 0.168305022
vn 0.888894833 -0.41741074 0.188770363
vn 0.886772137 -0.349125276 0.302897207
vn -0.037369255 -0.7548177 0.654869284
vn -0.037369255 -0.7548177 0.654869284
vn -0.037368657 -0.754817421 0.654869639
vn -0.037369853 -0.754817978 0.654868929
vn -1 0 0
vn -1 0 0
vn -1 0 0
vn -1 0 0
vn 0.0010670544 -0.113530533 -0.993533935
vn 2.96443231e-05 -0.115866656 -0.993264777
vn 8.9565382e-05 -0.113369828 -0.993552854
vn 0.00541889323 -0.112625136 -0.993622773
vn -0.000299749443 -0.116608251 -0.993177943
vn -0.00126956172 -0.125190649 -0.992131891
vn -4.30339008e-09 -0.13507766 -0.990835014
vn -3.62611612e-08 -0.135077681 -0.990835012
vn -1.29007217e-08 -0.135077643 -0.990835017
vn -1.64131871e-09 -0.135077627 -0.990835019
vn 1.7020657e-08 -0.135077612 -0.990835021
vn 0.000161223046 -0.207450772 -0.978245445
vn 0.000503189361 -0.206386178 -0.978470486
vn 0.0052747246 -0.204585821 -0.978834419
vn -0.0173998632 -0.21309307 -0.976876957
vn 0.00289274415 -0.198939574 -0.980007489
vn 7.58694943e-09 0.135077604 0.990835022
vn -2.3265327e-08 0.135077592 0.990835024
vn 5.64209474e-08 0.135077576 0.990835026
vn -1.02420867e-08 0.135077611 0.990835021
vn 1.71244623e-08 0.135077607 0.990835022
vn 5.48533262e-09 0.135077672 0.990835013
vn -7.67529581e-09 0.135077741 0.990835003
vn -2.70369229e-08 0.135077676 0.990835012
vn 2.51047271e-08 0.135077611 0.990835021
vn 4.23356792e-08 0.135077615 0.990835021
vn 4.84719689e-08 0.135077623 0.990835019
vn 4.97493145e-08 0.135077639 0.990835017
vn 1.36742384e-08 0.135077635 0.990835018
vn 1.21570785e-07 0.135077728 0.990835005
vn -0.00407955759 -0.990826771 0.135076523
vn -0.00407955759 -0.990826771 0.135076523
vn -0.00407958325 -0.99082677 0.135076532
vn -0.00407953192 -0.990826772 0.135076514
vn 0.0628579695 0.975546683 0.210612312
vn 0.162305676 0.964518803 0.208231474
vn 0.28233655 0.937711321 0.202443944
vn 0.0628579587 0.975546685 0.210612302
vn 0.422558197 0.88592482 0.191263647
vn 0.422558174 0.885924834 0.191263632
vn -0.851329677 0.524216435 0.020854482
vn -0.851329677 0.524216435 0.020854482
vn -0.915615496 0.398370225 -0.054308633
vn -0.822752765 0.555598874 0.119949068
vn -0.987045152 0.158972273 -0.0216722192
vn -0.832666448 0.548699513 -0.0748026112
vn -0.987045152 0.158972273 -0.0216722192
vn -0.841588195 0.535169529 -0.0729581084
vn -0.804903321 0.587967407 -0.0801559249
vn -0.804903307 0.587967435 -0.0801558592
vn -0.999750341 -0.0221241589 0.00312678676
vn -0.944998483 -0.323617994 0.0474263773
vn -0.912046941 -0.373956945 0.168305022
vn -0.888894833 -0.41741074 0.188770363
vn -0.886772137 -0.349125276 0.302897207
vn 0.896297525 -0.439388968 0.0599006
vn 0.828658969 -0.554623664 0.075610206
vn 0.828658966 -0.554623668 0.0756102212
vn 0.828658973 -0.554623661 0.0756101909
vn 0.971651185 -0.234252286 0.0319349555
vn 0.999403462 -0.0342192669 0.00466501366
vn 0.938781544 -0.316769053 0.13544955
vn 0.913812143 -0.372661427 0.161464636
vn 0.873672585 -0.367486637 0.318825636
vn 0.037369255 -0.7548177 0.654869284
vn 0.037369255 -0.7548177 0.654869284
vn 0.037369853 -0.754817978 0.654868929
vn 0.037368657 -0.754817421 0.654869639
vn 1 0 0
vn 1 0 0
vn 1 0 0
vn 1 0 0

g ArmorBag_23_03_Plane06_submesh_0
usemtl man19_beibao
f 33/33/33 35/35/35 34/34/34
f 36/36/36 33/33/33 34/34/34
f 36/36/36 34/34/34 37/37/37
f 38/38/38 40/40/40 39/39/39
f 38/38/38 39/39/39 41/41/41
f 38/38/38 41/41/41 42/42/42
f 43/43/43 45/45/45 44/44/44
f 43/43/43 44/44/44 46/46/46
f 47/47/47 49/49/49 48/48/48
f 47/47/47 48/48/48 50/50/50
f 51/51/51 53/53/53 52/52/52
f 51/51/51 52/52/52 54/54/54
f 55/55/55 57/57/57 56/56/56
f 55/55/55 56/56/56 58/58/58
f 59/59/59 61/61/61 60/60/60
f 59/59/59 60/60/60 62/62/62
f 63/63/63 61/61/61 59/59/59
f 63/63/63 64/64/64 61/61/61
f 65/65/65 64/64/64 63/63/63
f 65/65/65 66/66/66 64/64/64
f 67/67/67 69/69/69 68/68/68
f 67/67/67 68/68/68 70/70/70
f 71/71/71 73/73/73 72/72/72
f 71/71/71 72/72/72 74/74/74
f 75/75/75 77/77/77 76/76/76
f 75/75/75 76/76/76 78/78/78
f 79/79/79 81/81/81 80/80/80
f 79/79/79 80/80/80 82/82/82
f 83/83/83 85/85/85 84/84/84
f 83/83/83 84/84/84 86/86/86
f 87/87/87 89/89/89 88/88/88
f 87/87/87 88/88/88 90/90/90
f 91/91/91 93/93/93 92/92/92
f 91/91/91 92/92/92 94/94/94
f 95/95/95 97/97/97 96/96/96
f 95/95/95 98/98/98 97/97/97
f 98/98/98 99/99/99 97/97/97
f 100/100/100 102/102/102 101/101/101
f 103/103/103 102/102/102 100/100/100
f 104/104/104 103/103/103 100/100/100
f 105/105/105 107/107/107 106/106/106
f 105/105/105 106/106/106 108/108/108
f 109/109/109 111/111/111 110/110/110
f 109/109/109 110/110/110 112/112/112
f 113/113/113 111/111/111 109/109/109
f 113/113/113 114/114/114 111/111/111
f 115/115/115 117/117/117 116/116/116
f 115/115/115 116/116/116 118/118/118
f 119/119/119 121/121/121 120/120/120
f 122/122/122 121/121/121 119/119/119
f 122/122/122 123/123/123 121/121/121
f 124/124/124 126/126/126 125/125/125
f 124/124/124 127/127/127 126/126/126
f 124/124/124 128/128/128 127/127/127
f 129/129/129 131/131/131 130/130/130
f 129/129/129 130/130/130 132/132/132
f 133/133/133 135/135/135 134/134/134
f 133/133/133 134/134/134 136/136/136
f 137/137/137 139/139/139 138/138/138
f 137/137/137 138/138/138 140/140/140
f 141/141/141 143/143/143 142/142/142
f 141/141/141 142/142/142 144/144/144
f 145/145/145 147/147/147 146/146/146
f 145/145/145 146/146/146 148/148/148
f 149/149/149 145/145/145 148/148/148
f 149/149/149 148/148/148 150/150/150
f 151/151/151 149/149/149 150/150/150
f 151/151/151 150/150/150 152/152/152
f 153/153/153 155/155/155 154/154/154
f 153/153/153 154/154/154 156/156/156
f 157/157/157 159/159/159 158/158/158
f 157/157/157 158/158/158 160/160/160
f 161/161/161 163/163/163 162/162/162
f 161/161/161 162/162/162 164/164/164
f 165/165/165 167/167/167 166/166/166
f 165/165/165 166/166/166 168/168/168
f 169/169/169 171/171/171 170/170/170
f 169/169/169 170/170/170 172/172/172
f 173/173/173 175/175/175 174/174/174
f 173/173/173 174/174/174 176/176/176
f 177/177/177 179/179/179 178/178/178
f 177/177/177 178/178/178 180/180/180
f 181/181/181 183/183/183 182/182/182
f 181/181/181 182/182/182 184/184/184
f 184/184/184 182/182/182 185/185/185
f 186/186/186 188/188/188 187/187/187
f 189/189/189 186/186/186 187/187/187
f 190/190/190 186/186/186 189/189/189
f 191/191/191 193/193/193 192/192/192
f 191/191/191 192/192/192 194/194/194
f 195/195/195 197/197/197 196/196/196
f 195/195/195 196/196/196 198/198/198
f 199/199/199 195/195/195 198/198/198
f 199/199/199 198/198/198 200/200/200
f 201/201/201 203/203/203 202/202/202
f 201/201/201 202/202/202 204/204/204
f 205/205/205 207/207/207 206/206/206
f 205/205/205 206/206/206 208/208/208
f 206/206/206 207/207/207 209/209/209
f 206/206/206 209/209/209 210/210/210
f 211/211/211 210/210/210 212/212/212
f 210/210/210 213/213/213 212/212/212
f 213/213/213 214/214/214 212/212/212
f 213/213/213 215/215/215 214/214/214
f 216/216/216 218/218/218 217/217/217
f 216/216/216 217/217/217 219/219/219
f 218/218/218 220/220/220 217/217/217
f 221/221/221 223/223/223 222/222/222
f 221/221/221 222/222/222 224/224/224
f 225/225/225 223/223/223 221/221/221
f 225/225/225 221/221/221 226/226/226
f 226/226/226 228/228/228 227/227/227
f 229/229/229 226/226/226 227/227/227
f 230/230/230 229/229/229 227/227/227
f 230/230/230 231/231/231 229/229/229
f 232/232/232 231/231/231 230/230/230
f 232/232/232 233/233/233 231/231/231
f 234/234/234 233/233/233 232/232/232
f 235/235/235 236/236/236 221/221/221
f 235/235/235 221/221/221 237/237/237
f 238/238/238 239/239/239 235/235/235
f 238/238/238 240/240/240 239/239/239
f 241/241/241 240/240/240 238/238/238
f 241/241/241 242/242/242 240/240/240
f 243/243/243 245/245/245 244/244/244
f 243/243/243 244/244/244 246/246/246
f 247/247/247 249/249/249 248/248/248
f 247/247/247 248/248/248 250/250/250
f 250/250/250 248/248/248 251/251/251
f 250/250/250 251/251/251 252/252/252
f 253/253/253 255/255/255 254/254/254
f 253/253/253 254/254/254 256/256/256
f 256/256/256 258/258/258 257/257/257
f 256/256/256 257/257/257 259/259/259
f 259/259/259 261/261/261 260/260/260
f 259/259/259 260/260/260 262/262/262
f 263/263/263 260/260/260 264/264/264
f 263/263/263 264/264/264 265/265/265
f 265/265/265 264/264/264 266/266/266
f 265/265/265 266/266/266 267/267/267
f 268/268/268 270/270/270 269/269/269
f 268/268/268 269/269/269 271/271/271
f 272/272/272 274/274/274 273/273/273
f 272/272/272 273/273/273 275/275/275
f 276/276/276 278/278/278 277/277/277
f 276/276/276 277/277/277 279/279/279
f 277/277/277 280/280/280 279/279/279
f 277/277/277 281/281/281 280/280/280
f 282/282/282 283/283/283 281/281/281
f 281/281/281 283/283/283 284/284/284
f 284/284/284 283/283/283 285/285/285
f 284/284/284 285/285/285 286/286/286
f 287/287/287 289/289/289 288/288/288
f 287/287/287 288/288/288 290/290/290
f 290/290/290 288/288/288 291/291/291
f 292/292/292 294/294/294 293/293/293
f 292/292/292 293/293/293 295/295/295
f 296/296/296 292/292/292 295/295/295
f 296/296/296 297/297/297 292/292/292
f 297/297/297 299/299/299 298/298/298
f 300/300/300 299/299/299 297/297/297
f 301/301/301 299/299/299 300/300/300
f 301/301/301 300/300/300 302/302/302
f 303/303/303 301/301/301 302/302/302
f 303/303/303 302/302/302 304/304/304
f 305/305/305 303/303/303 304/304/304
f 306/306/306 308/308/308 307/307/307
f 306/306/306 307/307/307 309/309/309
f 310/310/310 312/312/312 311/311/311
f 310/310/310 311/311/311 313/313/313
f 312/312/312 314/314/314 311/311/311
f 312/312/312 315/315/315 314/314/314
f 316/316/316 318/318/318 317/317/317
f 316/316/316 317/317/317 319/319/319
f 318/318/318 321/321/321 320/320/320
f 318/318/318 320/320/320 322/322/322
f 321/321/321 324/324/324 323/323/323
f 321/321/321 323/323/323 325/325/325
f 326/326/326 327/327/327 323/323/323
f 326/326/326 328/328/328 327/327/327
f 328/328/328 329/329/329 327/327/327
f 328/328/328 330/330/330 329/329/329
f 331/331/331 333/333/333 332/332/332
f 331/331/331 332/332/332 334/334/334
f 335/335/335 331/331/331 336/336/336
f 335/335/335 336/336/336 337/337/337
f 338/338/338 335/335/335 337/337/337
f 338/338/338 337/337/337 339/339/339
f 340/340/340 342/342/342 341/341/341
f 340/340/340 341/341/341 343/343/343
f 344/344/344 346/346/346 345/345/345
f 344/344/344 345/345/345 347/347/347
