# Generated from legacy Unity YAML Mesh assets without Unity.
mtllib gun04.mtl

o gun04
v -0.0706739426 0.330435872 -0.300592065
v -0.0706739426 0.318347723 -0.283309221
v -0.0616994798 0.274110556 -0.603175998
v -0.000160256459 0.30855763 -0.597271085
v -0.000160256459 0.387471706 -0.301962852
v -0.000160256459 0.365442157 -0.284761727
v -0.000160256459 0.366922349 -0.183164135
v -0.0706739426 0.319499344 -0.18202436
v -0.0485582873 0.0723882693 -0.325489223
v -0.0636225715 0.292351574 0.142443538
v -0.0626610219 0.347641111 -0.158334404
v -0.0626610219 0.354221255 0.128773391
v -0.000160256459 0.384497613 -0.15889962
v -0.000160256459 0.391093105 0.128849044
v -0.000160256459 0.355474919 0.140926421
v -0.0485582873 0.0937978702 -0.555239439
v -0.0485582873 0.125136107 -0.598633647
v -0.0549686216 0.0208542647 -0.0151832253
v -0.0485582873 0.0137579891 -0.257072717
v -0.0485582873 0.012791008 -0.283980668
v -0.0344555527 -0.00922065949 -0.0526129119
v -0.0344555527 -0.0146179346 -0.237154156
v -0.0671482608 0.254207552 0.356244892
v -0.0706739426 0.112681531 0.403890491
v -0.0450326055 -0.0569640098 0.255357713
v -0.0402248539 -0.0642525849 0.0721443444
v -0.0636225715 0.25677082 0.42287004
v -0.0456736386 0.216606677 0.472567976
v -0.0508019067 0.114398882 0.475345135
v -0.0645841286 0.293546289 0.298872173
v -0.000160256459 0.358110309 0.290587664
v -0.000160256459 0.355474919 0.140926421
v -0.000160256459 0.30855763 -0.597271085
v -0.0616994798 0.274110556 -0.603175998
v 0.0616994835 0.274110556 -0.603175998
v -0.0485582873 0.125136107 -0.598633647
v 0.0485582948 0.125136107 -0.598633647
v 0.0485582948 0.0937978702 -0.555239439
v -0.0485582873 0.0937978702 -0.555239439
v 0.0485582948 0.0723882693 -0.325489223
v -0.0485582873 0.0937978702 -0.555239439
v -0.0485582873 0.0723882693 -0.325489223
v 0.0485582948 0.0937978702 -0.555239439
v 0.0485582948 0.012791008 -0.283980668
v -0.0485582873 0.012791008 -0.283980668
v 0.0485582948 0.0137579891 -0.257072717
v -0.0485582873 0.0137579891 -0.257072717
v -0.0344555527 -0.0146179346 -0.237154156
v 0.0341350399 -0.0146179346 -0.237154156
v -0.0344555527 -0.00922065949 -0.0526129119
v 0.0341350399 -0.00922065949 -0.0526129119
v -0.0549686216 0.0208542647 -0.0151832253
v 0.054968629 0.0208542647 -0.0151832253
v 0.0399043411 -0.0642525849 0.0721443444
v -0.0549686216 0.0208542647 -0.0151832253
v -0.0402248539 -0.0642525849 0.0721443444
v 0.054968629 0.0208542647 -0.0151832253
v 0.0450326093 -0.0569640098 0.255357713
v -0.0450326055 -0.0569640098 0.255357713
v 0.0706739575 0.112681531 0.403890491
v -0.0706739426 0.112681531 0.403890491
v 0.0508019142 0.114398882 0.475345135
v -0.0508019067 0.114398882 0.475345135
v 0.0671482757 0.254207552 0.356244892
v -0.0645841286 0.293546289 0.298872173
v 0.064584136 0.293546289 0.298872173
v -0.0671482608 0.254207552 0.356244892
v -0.0636225715 0.25677082 0.42287004
v 0.0636225864 0.25677082 0.42287004
v -0.0456736386 0.216606677 0.472567976
v 0.0456736423 0.216606677 0.472567976
v -0.0508019067 0.114398882 0.475345135
v 0.0508019142 0.114398882 0.475345135
v -0.000160256459 0.358110309 0.290587664
v 0.0706739575 0.330435872 -0.300592065
v 0.0616994835 0.274110556 -0.603175998
v 0.0706739575 0.318347723 -0.283309221
v -0.000160256459 0.30855763 -0.597271085
v -0.000160256459 0.387471706 -0.301962852
v -0.000160256459 0.365442157 -0.284761727
v -0.000160256459 0.366922349 -0.183164135
v 0.0706739575 0.319499344 -0.18202436
v 0.0485582948 0.0723882693 -0.325489223
v 0.0636225864 0.292351574 0.142443538
v 0.0626610368 0.347641111 -0.158334404
v 0.0626610368 0.354221255 0.128773391
v -0.000160256459 0.384497613 -0.15889962
v -0.000160256459 0.391093105 0.128849044
v -0.000160256459 0.355474919 0.140926421
v 0.0485582948 0.0937978702 -0.555239439
v 0.0485582948 0.125136107 -0.598633647
v 0.054968629 0.0208542647 -0.0151832253
v 0.0485582948 0.0137579891 -0.257072717
v 0.0485582948 0.012791008 -0.283980668
v 0.0341350399 -0.00922065949 -0.0526129119
v 0.0341350399 -0.0146179346 -0.237154156
v 0.0671482757 0.254207552 0.356244892
v 0.0706739575 0.112681531 0.403890491
v 0.0450326093 -0.0569640098 0.255357713
v 0.0399043411 -0.0642525849 0.0721443444
v 0.0636225864 0.25677082 0.42287004
v 0.0456736423 0.216606677 0.472567976
v 0.0508019142 0.114398882 0.475345135
v 0.064584136 0.293546289 0.298872173
v -0.000160256459 0.358110309 0.290587664
v -0.000160256459 0.355474919 0.140926421
v 0.0219554007 0.174309388 -0.687021255
v -0.0216348805 0.217887059 -0.688068628
v -0.0216348805 0.174309388 -0.687021255
v 0.0219554007 0.217887059 -0.688068628
v -0.0216348805 0.174309388 -0.687021255
v -0.038301751 0.23529622 -0.657387853
v -0.038301751 0.158394233 -0.655539632
v -0.0216348805 0.217887059 -0.688068628
v -0.0443915725 0.242862761 -0.596012771
v 0.0389427878 0.23529622 -0.657387853
v 0.0219554007 0.217887059 -0.688068628
v -0.0216348805 0.217887059 -0.688068628
v 0.0447120927 0.242862761 -0.596012771
v -0.0443915725 0.153784931 -0.593871832
v 0.0389427878 0.158394233 -0.655539632
v -0.0216348805 0.174309388 -0.687021255
v 0.0219554007 0.174309388 -0.687021255
v 0.0447120927 0.153784931 -0.593871832
v 0.0389427878 0.158394233 -0.655539632
v 0.0219554007 0.217887059 -0.688068628
v 0.0219554007 0.174309388 -0.687021255
v 0.0389427878 0.23529622 -0.657387853
v 0.0447120927 0.153784931 -0.593871832
v 0.0447120927 0.242862761 -0.596012771
vt 0.385199994 0.316900015
vt 0.401800007 0.306699991
vt 0.147100002 0.268900007
vt 0.147100002 0.330799997
vt 0.379900008 0.386799991
vt 0.400200009 0.376399994
vt 0.479499996 0.375499994
vt 0.481599987 0.307700008
vt 0.371300012 0.114699997
vt 0.729600012 0.288800001
vt 0.501100004 0.328500003
vt 0.716300011 0.328399986
vt 0.501100004 0.382400006
vt 0.715200007 0.381900012
vt 0.738699973 0.360599995
vt 0.180500001 0.127100006
vt 0.147100002 0.150900006
vt 0.609499991 0.0784000009
vt 0.424199998 0.0703999996
vt 0.403699994 0.0693999976
vt 0.580799997 0.0502999984
vt 0.439599991 0.0460000001
vt 0.894999981 0.256399989
vt 0.931100011 0.147699997
vt 0.816399992 0.0167999994
vt 0.675899982 0.0118000004
vt 0.946200013 0.256399989
vt 0.986899972 0.227599993
vt 0.984499991 0.149200007
vt 0.851400018 0.286599994
vt 0.8495 0.354400009
vt 0.738699973 0.360599995
vt 0.155000001 0.0676999986
vt 0.177699998 0.120499998
vt 0.178599998 0.0153000001
vt 0.291599989 0.104999997
vt 0.292199999 0.0326000005
vt 0.336600006 0.0329999998
vt 0.335999995 0.105400003
vt 0.190099999 0.397799999
vt 0.0113000004 0.486000001
vt 0.190099999 0.486000001
vt 0.0113000004 0.397799999
vt 0.246600002 0.397799999
vt 0.246600002 0.486000001
vt 0.269800007 0.397799999
vt 0.269800007 0.486000001
vt 0.294400007 0.472900003
vt 0.294400007 0.41080001
vt 0.437599987 0.472900003
vt 0.437599987 0.41080001
vt 0.474900007 0.491699994
vt 0.474900007 0.39199999
vt 0.5704 0.409799993
vt 0.489499986 0.471799999
vt 0.569700003 0.462900013
vt 0.490500003 0.398900002
vt 0.691100001 0.408199996
vt 0.690299988 0.467700005
vt 0.839699984 0.393000007
vt 0.838500023 0.486799985
vt 0.886699975 0.406800002
vt 0.885800004 0.47420001
vt 0.99119997 0.412699997
vt 0.898199975 0.456400007
vt 0.989499986 0.456400007
vt 0.896499991 0.412699997
vt 0.898999989 0.370799989
vt 0.988699973 0.370799989
vt 0.911599994 0.330599993
vt 0.976100028 0.330599993
vt 0.907999992 0.266400009
vt 0.979700029 0.266400009
vt 0.943799973 0.497099996
vt 0.385199994 0.316900015
vt 0.147100002 0.268900007
vt 0.401800007 0.306699991
vt 0.147100002 0.330799997
vt 0.379900008 0.386799991
vt 0.400200009 0.376399994
vt 0.479499996 0.375499994
vt 0.481599987 0.307700008
vt 0.371300012 0.114699997
vt 0.729600012 0.288800001
vt 0.501100004 0.328500003
vt 0.716300011 0.328399986
vt 0.501100004 0.382400006
vt 0.715200007 0.381900012
vt 0.738699973 0.360599995
vt 0.180500001 0.127100006
vt 0.147100002 0.150900006
vt 0.609499991 0.0784000009
vt 0.424199998 0.0703999996
vt 0.403699994 0.0693999976
vt 0.580799997 0.0502999984
vt 0.439599991 0.0460000001
vt 0.894999981 0.256399989
vt 0.931100011 0.147699997
vt 0.816399992 0.0167999994
vt 0.675899982 0.0118000004
vt 0.946200013 0.256399989
vt 0.986899972 0.227599993
vt 0.984499991 0.149200007
vt 0.851400018 0.286599994
vt 0.8495 0.354400009
vt 0.738699973 0.360599995
vt 0.0178999994 0.126200005
vt 0.129800007 0.0142999999
vt 0.0178999994 0.0142999999
vt 0.129800007 0.126200005
vt 0.0201999992 0.239399999
vt 0.0571000017 0.304800004
vt 0.0571000017 0.221300006
vt 0.0201999992 0.28670001
vt 0.140699998 0.305299997
vt 0.0571000017 0.388300002
vt 0.0193000007 0.369800001
vt 0.0198999997 0.322400004
vt 0.140699998 0.389800012
vt 0.140699998 0.220799997
vt 0.0571000017 0.1373
vt 0.0196000002 0.203600004
vt 0.0196000002 0.156000003
vt 0.140699998 0.135900006
vt 0.0571000017 0.221300006
vt 0.0201999992 0.28670001
vt 0.0201999992 0.239399999
vt 0.0571000017 0.304800004
vt 0.140699998 0.220799997
vt 0.140699998 0.305299997
vn -0.619367448 0.774176275 -0.130518426
vn -0.999746428 0.0217326201 -0.0058968769
vn -0.984622758 0.16217151 -0.0649494075
vn -0.554477432 0.809863667 -0.191508794
vn -0.624345972 0.768519961 -0.139889874
vn -0.552099765 0.810785024 0.194456923
vn -0.548985699 0.824676793 -0.136098823
vn -0.999977663 0.00663350819 -0.000818665748
vn -0.997930721 -0.0639400405 -0.00677838997
vn -0.999110906 0.0418102319 0.00541307361
vn -0.859006291 0.508704787 -0.0576856309
vn -0.72555378 0.681601839 0.0948190131
vn -0.507759119 0.860366545 -0.0441597727
vn -0.50643008 0.858269439 0.0830791445
vn -0.189565051 0.252471489 0.948853644
vn -0.996432173 -0.0829609842 -0.0155048414
vn -0.993867618 -0.0896440422 -0.064738738
vn -0.997955083 -0.0598968469 -0.0223163527
vn -0.965162636 -0.261389779 -0.0116820405
vn -1 0 0
vn -0.860165718 -0.510010676 0.00201180269
vn -0.898980252 -0.437801959 0.0128043875
vn -0.999721195 0.00127870008 -0.0235774847
vn -0.99875098 -0.0468796757 0.0172851536
vn -0.987936129 -0.154644719 -0.00819852243
vn -0.981841683 -0.188821965 -0.0182530778
vn -0.981753867 0.0231839423 0.188737516
vn -0.951755756 0.0269570921 0.305670242
vn -0.962293778 0.0555184656 0.266286285
vn -0.843092966 0.53768761 -0.00928900063
vn -0.706937932 0.707188955 -0.0110698503
vn -0.705305808 0.708793296 -0.0124811636
vn 0 0.168955484 -0.985623683
vn 0 0.007428379 -0.999972409
vn 0 -0.00735787981 -0.99997293
vn 0 -0.235381063 -0.971903161
vn 0 -0.256927881 -0.966430579
vn 0 -0.810697176 -0.585465702
vn 0 -0.810697176 -0.585465702
vn 0 -0.979738978 -0.200278645
vn 0 -0.99568622 -0.0927844379
vn 0 -0.912075501 -0.410022293
vn 0 -0.99568622 -0.0927844379
vn 0 -0.680924442 -0.732353674
vn 0 -0.855631594 -0.517585332
vn 0 -0.883790235 -0.46788334
vn 0 -0.863028116 -0.505155888
vn 0 -0.965076462 -0.261968362
vn 0 -0.998980213 -0.0451501204
vn 0 -0.994984158 0.100032624
vn 0 -0.958676061 0.28449993
vn 0 -0.779534383 0.626359438
vn 0 -0.779534383 0.626359438
vn 0 -0.894969731 -0.446126865
vn 0 -0.716153964 -0.697942333
vn 0 -0.989491333 -0.144592191
vn 0 -0.716153964 -0.697942333
vn 0 -0.937638319 0.347612403
vn 0 -0.786749775 0.617272056
vn 0 -0.747660307 0.664081369
vn 0 -0.84377448 0.536697891
vn 0 -0.999711305 0.0240272078
vn 0 -0.999711305 0.0240272078
vn 0 0.958378242 0.285501568
vn 0 0.654368379 0.756175922
vn 0 0.534193249 0.845362391
vn 0 0.958723609 0.284339658
vn 0 0.982966972 0.183782295
vn 0 0.916303637 0.400484263
vn 0 0.523038556 0.852309022
vn 0 0.212064441 0.977255685
vn 0 0.0271616719 0.999631054
vn 0 0.0271616719 0.999631054
vn 0 0.127271184 0.991867958
vn 0.617521498 0.775614146 -0.130728327
vn 0.984419428 0.163319022 -0.0651558657
vn 0.999736683 0.022181501 -0.00587754555
vn 0.552623382 0.811071942 -0.191754279
vn 0.622617495 0.769876065 -0.140136719
vn 0.550359404 0.811903115 0.194725083
vn 0.547220485 0.825801286 -0.136389066
vn 0.999975416 0.00695476615 -0.000893975964
vn 0.99793072 -0.0639400665 -0.00677839264
vn 0.999095988 0.0421570774 0.00547606522
vn 0.857987071 0.51038923 -0.0579743059
vn 0.723806641 0.683421107 0.0950764799
vn 0.505832558 0.861497654 -0.0442178287
vn 0.504505092 0.85939188 0.0831877951
vn 0.188632621 0.252508748 0.949029539
vn 0.996432172 -0.0829609913 -0.0155048593
vn 0.993867621 -0.0896440171 -0.0647387199
vn 0.997922293 -0.0604144464 -0.0223873284
vn 0.963995006 -0.265670122 -0.0115332378
vn 1 0 0
vn 0.855981871 -0.517000812 0.00227949325
vn 0.895042254 -0.445790728 0.013038035
vn 0.999721195 0.00127869761 -0.023577492
vn 0.998750978 -0.046879702 0.0172851609
vn 0.987755113 -0.155778854 -0.00853137905
vn 0.980829001 -0.193867834 -0.0197416481
vn 0.98175385 0.02318393 0.188737604
vn 0.951755712 0.0269570955 0.305670376
vn 0.96229375 0.0555185018 0.266286376
vn 0.841919078 0.539523729 -0.00929576798
vn 0.705167162 0.708954418 -0.0110863617
vn 0.703517911 0.710567371 -0.0125124033
vn 0 -0.0240276823 -0.999711294
vn 0 -0.0240276823 -0.999711294
vn 0 -0.0240276823 -0.999711294
vn 0 -0.0240276823 -0.999711294
vn -0.881345183 -0.0113520795 -0.472336532
vn -0.652430061 0.645353469 -0.397308338
vn -0.837635918 -0.481661992 -0.257619477
vn -0.881345465 -0.0113524168 -0.472335997
vn -0.699607223 0.697424659 -0.155398128
vn 0 0.979248429 -0.202663547
vn 0 0.86973766 -0.493514339
vn 0 0.86973766 -0.493514339
vn 0 0.99248612 -0.122357269
vn -0.467993614 -0.876639261 -0.111738904
vn 0 -0.98219319 -0.187873728
vn 0 -0.892441534 -0.451163062
vn 0 -0.892441534 -0.451163062
vn 0 -0.997218313 -0.0745361445
vn 0.959466223 -0.00677133921 -0.281742287
vn 0.877549937 -0.0115205642 -0.479346832
vn 0.877549647 -0.0115209321 -0.479347353
vn 0.984251017 -0.00424736567 -0.176725482
vn 0.99563422 -0.00224270524 -0.0933138307
vn 0.995634214 -0.00224275069 -0.0933138885

g gun04_submesh_0
usemtl FL334AR-Newlambert2
f 1/1/1 3/3/3 2/2/2
f 4/4/4 3/3/3 1/1/1
f 4/4/4 1/1/1 5/5/5
f 6/6/6 5/5/5 1/1/1
f 6/6/6 1/1/1 2/2/2
f 7/7/7 6/6/6 2/2/2
f 7/7/7 2/2/2 8/8/8
f 2/2/2 9/9/9 8/8/8
f 8/8/8 9/9/9 10/10/10
f 10/10/10 11/11/11 8/8/8
f 7/7/7 8/8/8 11/11/11
f 10/10/10 12/12/12 11/11/11
f 7/7/7 11/11/11 13/13/13
f 13/13/13 11/11/11 12/12/12
f 13/13/13 12/12/12 14/14/14
f 15/15/15 14/14/14 12/12/12
f 15/15/15 12/12/12 10/10/10
f 2/2/2 16/16/16 9/9/9
f 3/3/3 16/16/16 2/2/2
f 3/3/3 17/17/17 16/16/16
f 18/18/18 10/10/10 9/9/9
f 18/18/18 9/9/9 19/19/19
f 19/19/19 9/9/9 20/20/20
f 19/19/19 21/21/21 18/18/18
f 19/19/19 22/22/22 21/21/21
f 10/10/10 18/18/18 23/23/23
f 24/24/24 23/23/23 18/18/18
f 18/18/18 25/25/25 24/24/24
f 18/18/18 26/26/26 25/25/25
f 24/24/24 27/27/27 23/23/23
f 24/24/24 28/28/28 27/27/27
f 24/24/24 29/29/29 28/28/28
f 10/10/10 23/23/23 30/30/30
f 31/31/31 10/10/10 30/30/30
f 31/31/31 32/32/32 10/10/10
f 33/33/33 35/35/35 34/34/34
f 35/35/35 36/36/36 34/34/34
f 35/35/35 37/37/37 36/36/36
f 38/38/38 36/36/36 37/37/37
f 38/38/38 39/39/39 36/36/36
f 40/40/40 42/42/42 41/41/41
f 40/40/40 41/41/41 43/43/43
f 44/44/44 42/42/42 40/40/40
f 44/44/44 45/45/45 42/42/42
f 46/46/46 45/45/45 44/44/44
f 46/46/46 47/47/47 45/45/45
f 46/46/46 48/48/48 47/47/47
f 46/46/46 49/49/49 48/48/48
f 49/49/49 50/50/50 48/48/48
f 49/49/49 51/51/51 50/50/50
f 52/52/52 50/50/50 51/51/51
f 52/52/52 51/51/51 53/53/53
f 54/54/54 56/56/56 55/55/55
f 54/54/54 55/55/55 57/57/57
f 58/58/58 56/56/56 54/54/54
f 58/58/58 59/59/59 56/56/56
f 60/60/60 59/59/59 58/58/58
f 60/60/60 61/61/61 59/59/59
f 62/62/62 61/61/61 60/60/60
f 62/62/62 63/63/63 61/61/61
f 64/64/64 66/66/66 65/65/65
f 64/64/64 65/65/65 67/67/67
f 64/64/64 67/67/67 68/68/68
f 64/64/64 68/68/68 69/69/69
f 69/69/69 68/68/68 70/70/70
f 69/69/69 70/70/70 71/71/71
f 71/71/71 70/70/70 72/72/72
f 71/71/71 72/72/72 73/73/73
f 65/65/65 66/66/66 74/74/74
f 75/75/75 77/77/77 76/76/76
f 75/75/75 76/76/76 78/78/78
f 75/75/75 78/78/78 79/79/79
f 80/80/80 77/77/77 75/75/75
f 80/80/80 75/75/75 79/79/79
f 81/81/81 77/77/77 80/80/80
f 81/81/81 82/82/82 77/77/77
f 77/77/77 82/82/82 83/83/83
f 82/82/82 84/84/84 83/83/83
f 85/85/85 84/84/84 82/82/82
f 85/85/85 82/82/82 81/81/81
f 85/85/85 86/86/86 84/84/84
f 85/85/85 81/81/81 87/87/87
f 86/86/86 85/85/85 87/87/87
f 86/86/86 87/87/87 88/88/88
f 89/89/89 84/84/84 86/86/86
f 89/89/89 86/86/86 88/88/88
f 77/77/77 83/83/83 90/90/90
f 90/90/90 76/76/76 77/77/77
f 90/90/90 91/91/91 76/76/76
f 92/92/92 83/83/83 84/84/84
f 92/92/92 93/93/93 83/83/83
f 93/93/93 94/94/94 83/83/83
f 95/95/95 93/93/93 92/92/92
f 95/95/95 96/96/96 93/93/93
f 84/84/84 97/97/97 92/92/92
f 98/98/98 92/92/92 97/97/97
f 99/99/99 92/92/92 98/98/98
f 99/99/99 100/100/100 92/92/92
f 98/98/98 97/97/97 101/101/101
f 98/98/98 101/101/101 102/102/102
f 98/98/98 102/102/102 103/103/103
f 84/84/84 104/104/104 97/97/97
f 105/105/105 104/104/104 84/84/84
f 105/105/105 84/84/84 106/106/106
f 107/107/107 109/109/109 108/108/108
f 107/107/107 108/108/108 110/110/110
f 111/111/111 113/113/113 112/112/112
f 111/111/111 112/112/112 114/114/114
f 113/113/113 115/115/115 112/112/112
f 116/116/116 112/112/112 115/115/115
f 117/117/117 112/112/112 116/116/116
f 117/117/117 118/118/118 112/112/112
f 116/116/116 115/115/115 119/119/119
f 113/113/113 120/120/120 115/115/115
f 121/121/121 120/120/120 113/113/113
f 121/121/121 113/113/113 122/122/122
f 121/121/121 122/122/122 123/123/123
f 121/121/121 124/124/124 120/120/120
f 125/125/125 127/127/127 126/126/126
f 125/125/125 126/126/126 128/128/128
f 129/129/129 125/125/125 128/128/128
f 129/129/129 128/128/128 130/130/130
