# Generated by tools/yaml_mesh_converter/split_fr28a.py; do not hand-edit.
# Source gun00.obj normalized SHA256: 6a3e13be8d5f155ee860d379e5ff2b1cd5d483459c4747e6e36ab3320ebce531
# Original coordinates, UVs, normals and material; no centering or scaling.
mtllib gun00.mtl

o gun00_body
v -0.07475999 -0.00133480877 0.0802512467
v -0.07475999 -0.029679887 -0.0281684548
v -0.07475999 0.0666931346 -0.0813153833
v -0.07475999 -0.0310969576 0.0657244325
v -0.07475999 0.0638585836 0.189733893
v -0.0496037863 -0.0566074774 0.283626795
v -0.0496037863 -0.148728907 0.183356285
v -0.07475999 0.248101413 0.163869113
v -0.0506667234 0.138973117 0.353780776
v -0.07475999 0.240306497 0.343151361
v -0.0609418005 0.20558399 0.386023223
v -0.0513753556 0.14570491 0.421808839
v -0.0471235961 0.0833460689 0.429249406
v -0.0350769609 -0.0357033685 0.433501124
v -0.0357855894 -0.015153192 0.464326382
v -0.0457063466 0.100707315 0.328978866
v -0.0496037863 -0.123218365 0.277249157
v -0.07475999 0.192119986 -0.501530349
v -0.07475999 0.247392654 -0.501176
v 5.48260104e-09 0.293807745 -0.501176
v 5.48260104e-09 0.293807745 0.162451833
v -0.07475999 0.0691733137 -0.259534717
v -0.0577529855 0.0734253526 -0.541921973
v -0.07475999 0.192119986 -0.540150404
v -0.07475999 -0.0459784493 -0.203198969
v -0.07475999 -0.000272117555 -0.260597646
v 0.0747600049 -0.029679887 -0.0281684548
v -0.07475999 0.0666931346 -0.0813153833
v -0.07475999 -0.029679887 -0.0281684548
v 0.0747600049 0.0666931346 -0.0813153833
v 0.0747600049 -0.0310969576 0.0657244325
v -0.07475999 -0.0310969576 0.0657244325
v 0.0747600049 -0.00133480877 0.0802512467
v -0.07475999 -0.00133480877 0.0802512467
v 0.0747600049 0.240306497 0.343151361
v -0.0609418005 0.20558399 0.386023223
v -0.07475999 0.240306497 0.343151361
v 0.0609418079 0.20558399 0.386023223
v 0.0747600049 0.248101413 0.163869113
v -0.07475999 0.248101413 0.163869113
v -0.0513753556 0.14570491 0.421808839
v 0.051375363 0.14570491 0.421808839
v -0.0471235961 0.0833460689 0.429249406
v 0.0471236072 0.0833460689 0.429249406
v -0.0357855894 -0.015153192 0.464326382
v 0.0357855968 -0.015153192 0.464326382
v 5.48260104e-09 0.293807745 0.162451833
v 0.0350769721 -0.0357033685 0.433501124
v -0.0506667234 0.138973117 0.353780776
v -0.0350769609 -0.0357033685 0.433501124
v 0.0506667346 0.138973117 0.353780776
v 0.0357855968 -0.015153192 0.464326382
v -0.0357855894 -0.015153192 0.464326382
v -0.0457063466 0.100707315 0.328978866
v 0.0457063578 0.100707315 0.328978866
v -0.07475999 0.0638585836 0.189733893
v 0.0747600049 0.0638585836 0.189733893
v 0.0747600049 0.247392654 -0.501176
v -0.07475999 0.192119986 -0.501530349
v 0.0747600049 0.192119986 -0.501530349
v -0.07475999 0.247392654 -0.501176
v 5.48260104e-09 0.293807745 -0.501176
v 0.0496037975 -0.148728907 0.183356285
v -0.07475999 -0.00133480877 0.0802512467
v -0.0496037863 -0.148728907 0.183356285
v 0.0747600049 -0.00133480877 0.0802512467
v 0.0496037975 -0.123218365 0.277249157
v -0.0496037863 -0.123218365 0.277249157
v 0.0496037975 -0.0566074774 0.283626795
v -0.0496037863 -0.0566074774 0.283626795
v 0.0747600049 0.0638585836 0.189733893
v -0.07475999 0.0638585836 0.189733893
v 0.0747600049 -0.000272117555 -0.260597646
v -0.07475999 0.0691733137 -0.259534717
v -0.07475999 -0.000272117555 -0.260597646
v 0.0747600049 0.0691733137 -0.259534717
v 0.0747600049 -0.0459784493 -0.203198969
v -0.07475999 -0.0459784493 -0.203198969
v 0.0747600049 0.0666931346 -0.0813153833
v -0.07475999 0.0666931346 -0.0813153833
v -0.0577529855 0.0734253526 -0.541921973
v 0.057752993 0.0734253526 -0.541921973
v 0.0747600049 0.192119986 -0.540150404
v -0.07475999 0.192119986 -0.501530349
v -0.07475999 0.192119986 -0.540150404
v 0.0747600049 0.192119986 -0.501530349
v 0.057752993 0.0734253526 -0.541921973
v -0.07475999 0.192119986 -0.540150404
v -0.0577529855 0.0734253526 -0.541921973
v 0.0747600049 0.192119986 -0.540150404
v 0.0747600049 -0.00133480877 0.0802512467
v 0.0747600049 -0.029679887 -0.0281684548
v 0.0747600049 -0.0310969576 0.0657244325
v 0.0747600049 0.0666931346 -0.0813153833
v 0.0747600049 0.0638585836 0.189733893
v 0.0496037975 -0.0566074774 0.283626795
v 0.0496037975 -0.148728907 0.183356285
v 0.0747600049 0.248101413 0.163869113
v 0.0506667346 0.138973117 0.353780776
v 0.0747600049 0.240306497 0.343151361
v 0.0609418079 0.20558399 0.386023223
v 0.051375363 0.14570491 0.421808839
v 0.0471236072 0.0833460689 0.429249406
v 0.0350769721 -0.0357033685 0.433501124
v 0.0357855968 -0.015153192 0.464326382
v 0.0457063578 0.100707315 0.328978866
v 0.0496037975 -0.123218365 0.277249157
v 0.0747600049 0.192119986 -0.501530349
v 0.0747600049 0.247392654 -0.501176
v 0.0747600049 0.0691733137 -0.259534717
v 0.057752993 0.0734253526 -0.541921973
v 0.0747600049 0.192119986 -0.540150404
v 5.48260104e-09 0.293807745 -0.501176
v 5.48260104e-09 0.293807745 0.162451833
v 0.0747600049 -0.0459784493 -0.203198969
v 0.0747600049 -0.000272117555 -0.260597646
v -0.0333053991 0.323924243 -0.248551011
v -0.0538555384 0.376008421 0.0203724205
v -0.0333053991 0.323924243 0.0203724205
v -0.0538555384 0.371402025 -0.292840123
v -0.0375571512 0.402227283 -0.00124065578
v -0.0375571512 0.402227283 -0.318350613
v -0.0333053991 0.323924243 -0.292840123
v -0.0333053991 0.263336837 -0.0132873356
v -0.0333053991 0.263336837 -0.229772419
v -0.0361399017 0.323924243 0.0834400654
v -0.0361399017 0.376362383 0.0834400654
v -0.0435804725 0.389472008 0.118871361
v -0.0435804725 0.310814619 0.118871361
v -0.0379114635 0.33384496 0.169183791
v -0.0379114635 0.369276226 0.169183791
v 5.48260104e-09 0.417817086 0.00053088367
v 5.48260104e-09 0.417817086 -0.331460208
v 5.48260104e-09 0.391598225 0.0217896402
v 5.48260104e-09 0.391598225 0.0217896402
v 5.48260104e-09 0.391952187 0.0834400654
v 5.48260104e-09 0.391952187 0.0834400654
v 5.48260104e-09 0.382031471 0.169183791
v 5.48260104e-09 0.405061811 0.118871361
v 5.48260104e-09 0.391952187 0.0834400654
v 5.48260104e-09 0.405061811 0.118871361
v 0.0375571623 0.402227283 -0.318350613
v -0.0538555384 0.371402025 -0.292840123
v 0.0538555495 0.371402025 -0.292840123
v -0.0375571512 0.402227283 -0.318350613
v 0.0333054103 0.323924243 -0.292840123
v -0.0333053991 0.323924243 -0.292840123
v 0.0333054103 0.323924243 -0.248551011
v -0.0333053991 0.323924243 -0.248551011
v 0.0333054103 0.263336837 -0.229772419
v -0.0333053991 0.263336837 -0.229772419
v 5.48260104e-09 0.417817086 -0.331460208
v -0.0379114635 0.369276226 0.169183791
v 5.48260104e-09 0.382031471 0.169183791
v 0.0379114747 0.369276226 0.169183791
v -0.0379114635 0.33384496 0.169183791
v 0.0379114747 0.33384496 0.169183791
v -0.0435804725 0.310814619 0.118871361
v 0.0379114747 0.33384496 0.169183791
v 0.0435804799 0.310814619 0.118871361
v -0.0379114635 0.33384496 0.169183791
v -0.0361399017 0.323924243 0.0834400654
v 0.0361399092 0.323924243 0.0834400654
v -0.0333053991 0.323924243 0.0203724205
v 0.0333054103 0.323924243 0.0203724205
v 0.0333054103 0.263336837 -0.0132873356
v -0.0333053991 0.263336837 -0.0132873356
v 0.0333054103 0.323924243 -0.248551011
v 0.0333054103 0.323924243 0.0203724205
v 0.0538555495 0.376008421 0.0203724205
v 0.0538555495 0.371402025 -0.292840123
v 0.0375571623 0.402227283 -0.00124065578
v 0.0375571623 0.402227283 -0.318350613
v 0.0333054103 0.323924243 -0.292840123
v 0.0333054103 0.263336837 -0.0132873356
v 0.0333054103 0.263336837 -0.229772419
v 0.0361399092 0.323924243 0.0834400654
v 0.0361399092 0.376362383 0.0834400654
v 0.0435804799 0.389472008 0.118871361
v 0.0435804799 0.310814619 0.118871361
v 0.0379114747 0.33384496 0.169183791
v 0.0379114747 0.369276226 0.169183791
v 5.48260104e-09 0.417817086 0.00053088367
v 5.48260104e-09 0.417817086 -0.331460208
v 5.48260104e-09 0.391598225 0.0217896402
v 5.48260104e-09 0.391598225 0.0217896402
v 5.48260104e-09 0.391952187 0.0834400654
v 5.48260104e-09 0.391952187 0.0834400654
v 5.48260104e-09 0.382031471 0.169183791
v 5.48260104e-09 0.405061811 0.118871361
v 5.48260104e-09 0.405061811 0.118871361
v 5.48260104e-09 0.391952187 0.0834400654
v 0.0382657871 0.249518469 -0.657782316
v -0.0403916575 0.202040702 -0.657782316
v 0.0382657871 0.202040702 -0.657782316
v -0.0403916575 0.249518469 -0.657782316
v 0.0382657871 0.249518469 -0.615619063
v -0.0403916575 0.249518469 -0.615619063
v -0.00106293114 0.271840513 -0.615619063
v -0.0403916575 0.202040702 -0.657782316
v 0.0382657871 0.202040702 -0.485231936
v 0.0382657871 0.202040702 -0.657782316
v -0.0403916575 0.202040702 -0.485231936
v -0.00106293114 0.271840513 -0.615619063
v -0.0403916575 0.249518469 -0.485231936
v -0.0403916575 0.249518469 -0.615619063
v -0.00106293114 0.271840513 -0.485231936
v -0.0403916575 0.202040702 -0.485231936
v -0.0403916575 0.202040702 -0.657782316
v -0.0403916575 0.249518469 -0.657782316
v 0.0382657871 0.249518469 -0.485231936
v -0.00106293114 0.271840513 -0.615619063
v 0.0382657871 0.249518469 -0.615619063
v -0.00106293114 0.271840513 -0.485231936
v 0.0382657871 0.202040702 -0.485231936
v 0.0382657871 0.202040702 -0.657782316
v 0.0382657871 0.249518469 -0.657782316
v -0.00106293114 0.174758732 -0.715180933
v -0.0467692837 0.151728377 -0.532001257
v -0.0467692837 0.151728377 -0.715180933
v -0.00106293114 0.174758732 -0.532001257
v -0.0467692837 0.0971640199 -0.715180933
v -0.0467692837 0.0971640199 -0.532001257
v -0.0467692837 0.0971640199 -0.715180933
v 0.0446434207 0.0971640199 -0.532001257
v 0.0446434207 0.0971640199 -0.715180933
v -0.0467692837 0.0971640199 -0.532001257
v 0.0446434207 0.151728377 -0.715180933
v -0.0467692837 0.0971640199 -0.715180933
v 0.0446434207 0.0971640199 -0.715180933
v -0.0467692837 0.151728377 -0.715180933
v -0.00106293114 0.174758732 -0.715180933
v 0.0446434207 0.151728377 -0.532001257
v -0.00106293114 0.174758732 -0.715180933
v 0.0446434207 0.151728377 -0.715180933
v -0.00106293114 0.174758732 -0.532001257
v 0.0446434207 0.0971640199 -0.715180933
v 0.0446434207 0.0971640199 -0.532001257
vt 0.619700015 0.6347
vt 0.538100004 0.613799989
vt 0.498699993 0.68629998
vt 0.608500004 0.612399995
vt 0.702000022 0.683200002
vt 0.772499979 0.591700017
vt 0.69690001 0.523000002
vt 0.684599996 0.822899997
vt 0.826300025 0.739000022
vt 0.817900002 0.816399992
vt 0.850199997 0.789300025
vt 0.877200007 0.744199991
vt 0.8829 0.697300017
vt 0.886200011 0.607800007
vt 0.909399986 0.623099983
vt 0.808099985 0.709900022
vt 0.767400026 0.541499972
vt 0.183699995 0.781700015
vt 0.184100002 0.836799979
vt 0.184300005 0.866400003
vt 0.682500005 0.87470001
vt 0.364800006 0.688799977
vt 0.152799994 0.692300022
vt 0.154799998 0.781899989
vt 0.406800002 0.601999998
vt 0.363900006 0.636600018
vt 0.851000011 0.529200017
vt 0.800800025 0.583000004
vt 0.851000011 0.583000004
vt 0.800800025 0.529200017
vt 0.89380002 0.529200017
vt 0.89380002 0.583000004
vt 0.908999979 0.529200017
vt 0.908999979 0.583000004
vt 0.498299986 0.579400003
vt 0.528299987 0.521000028
vt 0.498299986 0.515100002
vt 0.528299987 0.573499978
vt 0.4005 0.579400003
vt 0.4005 0.515100002
vt 0.566200018 0.525099993
vt 0.566200018 0.569400012
vt 0.600399971 0.527100027
vt 0.600399971 0.567499995
vt 0.657299995 0.531899989
vt 0.657299995 0.562600017
vt 0.380699992 0.547299981
vt 0.882300019 0.764100015
vt 0.910000026 0.880200028
vt 0.914600015 0.767499983
vt 0.863399982 0.875199974
vt 0.884299994 0.742399991
vt 0.917200029 0.745899975
vt 0.904999971 0.906499982
vt 0.862800002 0.902100027
vt 0.909500003 0.991900027
vt 0.840600014 0.984600008
vt 0.0728999972 0.510500014
vt 0.114299998 0.599399984
vt 0.114500001 0.510599971
vt 0.0727000013 0.599300027
vt 0.0450000018 0.554799974
vt 0.123400003 0.617200017
vt 0.00700000022 0.683099985
vt 0.123400003 0.666800022
vt 0.00710000005 0.603900015
vt 0.186299995 0.617299974
vt 0.186199993 0.666899979
vt 0.229699999 0.617299974
vt 0.229699999 0.666899979
vt 0.328500003 0.604099989
vt 0.328399986 0.683300018
vt 0.987600029 0.688399971
vt 0.921700001 0.6523
vt 0.921700001 0.688300014
vt 0.987699986 0.652400017
vt 0.987200022 0.907199979
vt 0.921199977 0.907000005
vt 0.986999989 0.993099988
vt 0.921000004 0.992999971
vt 0.9296 0.506299973
vt 0.980499983 0.506399989
vt 0.143399999 0.510699987
vt 0.114299998 0.599399984
vt 0.143199995 0.5995
vt 0.114500001 0.510599971
vt 0.232700005 0.521099985
vt 0.143199995 0.5995
vt 0.232500002 0.589600027
vt 0.143399999 0.510699987
vt 0.619700015 0.6347
vt 0.538100004 0.613799989
vt 0.608500004 0.612399995
vt 0.498699993 0.68629998
vt 0.702000022 0.683200002
vt 0.772499979 0.591700017
vt 0.69690001 0.523000002
vt 0.684599996 0.822899997
vt 0.826300025 0.739000022
vt 0.817900002 0.816399992
vt 0.850199997 0.789300025
vt 0.877200007 0.744199991
vt 0.8829 0.697300017
vt 0.886200011 0.607800007
vt 0.909399986 0.623099983
vt 0.808099985 0.709900022
vt 0.767400026 0.541499972
vt 0.183699995 0.781700015
vt 0.184100002 0.836799979
vt 0.364800006 0.688799977
vt 0.152799994 0.692300022
vt 0.154799998 0.781899989
vt 0.184300005 0.866400003
vt 0.682500005 0.87470001
vt 0.406800002 0.601999998
vt 0.363900006 0.636600018
vt 0.365700006 0.908100009
vt 0.589299977 0.949500024
vt 0.590900004 0.908100009
vt 0.326999992 0.94569999
vt 0.570800006 0.971400023
vt 0.305000007 0.971400023
vt 0.328599989 0.908100009
vt 0.591899991 0.876699984
vt 0.366699994 0.876699984
vt 0.64380002 0.907500029
vt 0.642700016 0.951200008
vt 0.673399985 0.960699975
vt 0.675000012 0.894900024
vt 0.719600022 0.915300012
vt 0.718800008 0.944999993
vt 0.570800006 0.989600003
vt 0.2958 0.989600003
vt 0.589600027 0.963800013
vt 0.589600027 0.963800013
vt 0.641300023 0.963999987
vt 0.641300023 0.963999987
vt 0.720300019 0.96359998
vt 0.675100029 0.982800007
vt 0.641300023 0.963999987
vt 0.675100029 0.982800007
vt 0.00410000002 0.970600009
vt 0.072300002 0.9296
vt 0.00410000002 0.9296
vt 0.072300002 0.970600009
vt 0.0121999998 0.879599988
vt 0.064199999 0.879599988
vt 0.0121999998 0.835699975
vt 0.064199999 0.835699975
vt 0.0121999998 0.78609997
vt 0.064199999 0.78609997
vt 0.0381999984 0.99150002
vt 0.735199988 0.970600009
vt 0.784099996 0.994799972
vt 0.833100021 0.970600009
vt 0.735199988 0.903400004
vt 0.833100021 0.903400004
vt 0.810599983 0.883300006
vt 0.857900023 0.82980001
vt 0.811800003 0.824800014
vt 0.85680002 0.880599976
vt 0.779299974 0.877399981
vt 0.780300021 0.829100013
vt 0.729600012 0.874300003
vt 0.730499983 0.829699993
vt 0.691100001 0.828700006
vt 0.690100014 0.873300016
vt 0.365700006 0.908100009
vt 0.590900004 0.908100009
vt 0.589299977 0.949500024
vt 0.326999992 0.94569999
vt 0.570800006 0.971400023
vt 0.305000007 0.971400023
vt 0.328599989 0.908100009
vt 0.591899991 0.876699984
vt 0.366699994 0.876699984
vt 0.64380002 0.907500029
vt 0.642700016 0.951200008
vt 0.673399985 0.960699975
vt 0.675000012 0.894900024
vt 0.719600022 0.915300012
vt 0.718800008 0.944999993
vt 0.570800006 0.989600003
vt 0.2958 0.989600003
vt 0.589600027 0.963800013
vt 0.589600027 0.963800013
vt 0.641300023 0.963999987
vt 0.641300023 0.963999987
vt 0.720300019 0.96359998
vt 0.675100029 0.982800007
vt 0.675100029 0.982800007
vt 0.641300023 0.963999987
vt 0.0873999968 0.926500022
vt 0.152400002 0.877099991
vt 0.0873999968 0.877099991
vt 0.152400002 0.926500022
vt 0.0873999968 0.970799983
vt 0.152400002 0.970799983
vt 0.119900003 0.994199991
vt 0.244000003 0.94569999
vt 0.317799985 0.921700001
vt 0.244000003 0.921700001
vt 0.317799985 0.94569999
vt 0.0935000032 0.863200009
vt 0.181899995 0.833299994
vt 0.0935000032 0.833299994
vt 0.181899995 0.863200009
vt 0.181899995 0.796599984
vt 0.0720999986 0.796599984
vt 0.0720999986 0.833299994
vt 0.181899995 0.833299994
vt 0.0935000032 0.863200009
vt 0.0935000032 0.833299994
vt 0.181899995 0.863200009
vt 0.181899995 0.796599984
vt 0.0720999986 0.796599984
vt 0.0720999986 0.833299994
vt 0.0275999997 0.772499979
vt 0.152500004 0.740800023
vt 0.0275999997 0.740800023
vt 0.152500004 0.772499979
vt 0.0275999997 0.700399995
vt 0.152500004 0.700399995
vt 0.172999993 0.914200008
vt 0.317999989 0.881200016
vt 0.172999993 0.881200016
vt 0.317999989 0.914200008
vt 0.165700004 0.971000016
vt 0.233400002 0.919200003
vt 0.1655 0.919399977
vt 0.233600006 0.970700026
vt 0.199699998 0.992600024
vt 0.152500004 0.740800023
vt 0.0275999997 0.772499979
vt 0.0275999997 0.740800023
vt 0.152500004 0.772499979
vt 0.0275999997 0.700399995
vt 0.152500004 0.700399995
vn -0.99628821 -0.0688641725 0.0516481147
vn -1 0 0
vn -1 0 0
vn -1 0 0
vn -0.997821889 -0.02856494 0.0594602554
vn -0.991301338 -0.105289423 0.0789670446
vn -0.993699137 -0.0825357215 0.0758279646
vn -0.954126364 0.299116143 0.0131306735
vn -0.991775687 -0.102555069 0.0765731254
vn -0.973135396 -0.229635767 0.0165805984
vn -0.980342825 -0.184746638 0.0692576681
vn -0.993700033 -0.11207006 0.000738881361
vn -0.995681289 -0.0926453115 -0.00596794148
vn -0.994872197 -0.100913138 -0.00677134924
vn -0.99414448 -0.099055435 0.0431830172
vn -0.917389573 -0.293291351 0.269028911
vn -1 0 0
vn -0.999671823 -0.0234640488 -0.0102803473
vn -0.805689187 0.592338194 -0.000631272854
vn -0.52455109 0.851378851 -0.00045415411
vn -0.521613423 0.853181948 2.1410093e-16
vn -0.998314905 -0.0517348854 -0.0262840776
vn -0.990860409 -0.123552924 -0.0541324719
vn -0.989890295 -0.141835129 0
vn -0.998683464 -0.040128306 -0.031954006
vn -0.992276973 -0.115503535 -0.0452254508
vn 0 -0.717823987 -0.696224622
vn 0 -0.48290741 -0.875671418
vn 0 -0.924678667 -0.380748425
vn 0 -0.48290741 -0.875671418
vn 0 -0.991258046 0.131937436
vn 0 -0.904109041 0.427301816
vn 0 -0.438635646 0.898664993
vn 0 -0.438635646 0.898664993
vn 0 0.964091183 0.265571441
vn 0 0.691272596 0.722594075
vn 0 0.992237426 0.124357911
vn 0 0.600052232 0.799960823
vn 0 0.985810898 0.167859685
vn 0 0.958854972 0.28389636
vn 0 0.405265043 0.914199237
vn 0 0.268678483 0.963229917
vn 0 0.216017055 0.97638959
vn 0 0.281580466 0.959537618
vn 0 0.335476751 0.942048486
vn 0 0.335476751 0.942048486
vn 0 0.0309934819 0.999519587
vn 0 -0.485476916 -0.874249486
vn 0 -0.527326266 -0.84966288
vn 0 -0.729429591 -0.684055898
vn 0 -0.779745385 -0.626096745
vn 0 -0.832050232 0.554700289
vn 0 -0.832050232 0.554700289
vn 0 -0.852328656 0.523006561
vn 0 -0.94516343 0.326597751
vn 0 -0.966722799 0.255826173
vn 0 -0.966722799 0.255826173
vn 0 0.00451509984 -0.999989807
vn 0 0.00641080557 -0.999979451
vn 0 0.00641080557 -0.999979451
vn 0 0.00348466192 -0.999993929
vn 0 2.39194411e-15 -1
vn 0 -0.715547951 -0.698563619
vn 0 -0.573198038 -0.819416871
vn 0 -0.949259882 -0.314492728
vn 0 -0.573198038 -0.819416871
vn 0 -0.855281398 0.518163807
vn 0 -0.557689111 0.830049911
vn 0 0.304631047 0.952470433
vn 0 0.527722789 0.849416658
vn 0 0.614744264 0.788726499
vn 0 0.614744264 0.788726499
vn 0 0.345349538 -0.938474132
vn 0 -0.890565752 -0.454854528
vn 0 0.471175583 -0.882039438
vn 0 -0.988329908 -0.152328568
vn 0 -0.670679316 0.741747434
vn 0 -0.701637995 0.712533594
vn 0 -0.734311831 0.678812297
vn 0 -0.734311831 0.678812297
vn 0 -0.999886656 -0.0150557677
vn 0 -0.999886656 -0.0150557677
vn 0 1 0
vn 0 1 0
vn 0 1 0
vn 0 1 0
vn 0 0.0149237747 -0.999888634
vn 0 0.0149237747 -0.999888634
vn 0 0.0149237747 -0.999888634
vn 0 0.0149237747 -0.999888634
vn 0.996288209 -0.0688641826 0.0516481223
vn 1 0 0
vn 1 0 0
vn 1 0 0
vn 0.997821888 -0.0285649432 0.059460264
vn 0.991301336 -0.105289438 0.0789670561
vn 0.993699135 -0.0825357335 0.0758279757
vn 0.95412636 0.299116156 0.0131306755
vn 0.991775685 -0.102555073 0.0765731494
vn 0.973135388 -0.229635799 0.0165806246
vn 0.98034282 -0.184746631 0.0692577681
vn 0.993700038 -0.112070013 0.000738931046
vn 0.995681291 -0.0926452941 -0.00596790292
vn 0.994872197 -0.100913136 -0.00677131396
vn 0.994144476 -0.0990554304 0.0431831343
vn 0.91738956 -0.293291366 0.269028937
vn 1 0 0
vn 0.999671822 -0.0234640591 -0.0102803518
vn 0.805689172 0.592338214 -0.000631272875
vn 0.998314903 -0.051734908 -0.0262840891
vn 0.990860401 -0.123552977 -0.0541324951
vn 0.989890286 -0.14183519 0
vn 0.52455107 0.851378863 -0.000454154116
vn 0.521613403 0.85318196 2.08821917e-16
vn 0.998683463 -0.040128312 -0.0319540108
vn 0.992276971 -0.115503552 -0.0452254574
vn -0.978167679 -0.20781159 0.00152813559
vn -0.995689414 -0.0789592265 0.0486624184
vn -0.979975158 -0.199073184 -0.00430778735
vn -0.996573935 0.0827048109 0.000553486184
vn -0.70008849 0.71145744 0.0608639234
vn -0.558513623 0.829495348 1.40712017e-16
vn -0.917721732 -0.397223895 0
vn -1 0 0
vn -1 0 0
vn -0.993267888 -0.114562577 -0.0171557405
vn -0.743896909 0.668030619 0.0187744895
vn -0.881070511 0.472375455 0.0240038281
vn -0.999786627 8.03610733e-18 -0.0206567162
vn -0.993711859 -9.38475634e-18 0.111967588
vn -0.744817706 0.585996639 0.319146557
vn -0.384580048 0.922386419 0.0360760318
vn -0.383378517 0.923591312 1.54430701e-16
vn -0.249294327 0.658237293 0.710335135
vn -0.327668089 0.943894768 0.0411860343
vn -0.396086455 0.918198088 -0.00527177872
vn -0.364808462 0.845690197 -0.38951621
vn -0.302430342 0.869486515 0.390549726
vn -0.309315703 0.864675825 0.395802368
vn -0.318072479 0.889154933 -0.328988455
vn -0.318072479 0.889154933 -0.328988455
vn 0 -0.638613065 -0.769528007
vn 0 -0.317859673 -0.948137769
vn 0 -0.309766944 -0.950812516
vn 0 -0.639606255 -0.768702698
vn 0 -0.335758007 -0.941948279
vn 0 -0.881375733 -0.472415936
vn 0 -0.870884201 -0.491488259
vn 0 -0.559723232 -0.828679614
vn 0 -0.296048379 -0.955172946
vn 0 -0.296048379 -0.955172946
vn 0 -0.643599566 -0.765362397
vn 0 0 1
vn 0 0 1
vn 0 0 1
vn 0 0 1
vn 0 0 1
vn 0 -0.974279024 0.225345033
vn 0 -0.909266807 0.416213736
vn 0 -0.999965907 -0.00825746147
vn 0 -0.909266807 0.416213736
vn 0 -0.979672179 -0.200605139
vn 0 -0.996515177 -0.0834116384
vn 0 -0.853907398 0.520424976
vn 0 -0.847475036 0.530835251
vn 0 -0.48564388 0.874156749
vn 0 -0.48564388 0.874156749
vn 0.978167679 -0.20781159 0.00152813559
vn 0.979975158 -0.199073184 -0.00430778169
vn 0.995689414 -0.0789592262 0.0486624283
vn 0.996573935 0.0827048109 0.000553486184
vn 0.700088489 0.711457441 0.0608639236
vn 0.558513622 0.829495349 1.40712017e-16
vn 0.917721732 -0.397223895 0
vn 1 0 0
vn 1 0 0
vn 0.993267888 -0.114562577 -0.0171557061
vn 0.743896924 0.668030601 0.0187745191
vn 0.881070523 0.472375434 0.0240037973
vn 0.999786626 7.27095828e-18 -0.0206567596
vn 0.993711867 -9.38475642e-18 0.111967516
vn 0.744817717 0.585996651 0.319146508
vn 0.384580046 0.92238642 0.0360760318
vn 0.383378516 0.923591313 1.54430701e-16
vn 0.249294326 0.658237293 0.710335135
vn 0.3276681 0.943894764 0.0411860456
vn 0.396086487 0.918198074 -0.00527177864
vn 0.364808491 0.845690183 -0.389516211
vn 0.302430354 0.869486515 0.390549716
vn 0.309315725 0.864675818 0.395802365
vn 0.318072502 0.889154926 -0.328988452
vn 0.318072502 0.889154926 -0.328988452
vn 0 0.405823322 -0.913951547
vn 0 0 -1
vn 0 0 -1
vn 0 0.871380714 -0.490607432
vn 0 0.966704316 -0.255896007
vn 0 0.883785128 -0.467892987
vn 0 4.97366207e-15 -1
vn 0 -1 -1.60854908e-16
vn 0 -1 -1.60854908e-16
vn 0 -1 -1.60854908e-16
vn 0 -1 -1.60854908e-16
vn -0.493611109 0.869682743 9.19383129e-17
vn -0.760495828 0.649342819 6.86451281e-17
vn -0.966451648 0.256848618 5.43053862e-17
vn -0.493611109 0.869682743 0
vn -1 0 0
vn -1 0 0
vn -1 0 0
vn 0.760495894 0.649342741 6.91129635e-17
vn 0.493611187 0.869682699 9.25649042e-17
vn 0.966451661 0.256848568 5.46754882e-17
vn 0.493611187 0.869682699 0
vn 1 0 0
vn 1 0 0
vn 1 0 0
vn -0.44998092 0.893038169 2.74087941e-16
vn -0.861631229 0.507534851 1.55770702e-16
vn -0.861631229 0.507534851 1.57736983e-16
vn -0.44998092 0.893038169 2.70628149e-16
vn -1 0 0
vn -1 0 0
vn 0 -1 -1.51521043e-16
vn 0 -1 -1.51521043e-16
vn 0 -1 -1.51521043e-16
vn 0 -1 -1.51521043e-16
vn 0 0 -1
vn 0 0 -1
vn 0 0 -1
vn 0 0 -1
vn 0 0 -1
vn 0.861631233 0.507534845 1.55770701e-16
vn 0.449980925 0.893038166 2.74087942e-16
vn 0.861631233 0.507534845 1.53804418e-16
vn 0.449980925 0.893038166 2.77547736e-16
vn 1 0 0
vn 1 0 0

g material_FR28A-Newlambert2
usemtl FR28A-Newlambert2
f 1/1/1 3/3/3 2/2/2
f 1/1/1 2/2/2 4/4/4
f 5/5/5 3/3/3 1/1/1
f 1/1/1 6/6/6 5/5/5
f 1/1/1 7/7/7 6/6/6
f 5/5/5 8/8/8 3/3/3
f 5/5/5 9/9/9 8/8/8
f 9/9/9 10/10/10 8/8/8
f 9/9/9 11/11/11 10/10/10
f 11/11/11 9/9/9 12/12/12
f 13/13/13 12/12/12 9/9/9
f 13/13/13 9/9/9 14/14/14
f 13/13/13 14/14/14 15/15/15
f 5/5/5 16/16/16 9/9/9
f 6/6/6 7/7/7 17/17/17
f 18/18/18 3/3/3 8/8/8
f 8/8/8 19/19/19 18/18/18
f 20/20/20 19/19/19 8/8/8
f 20/20/20 8/8/8 21/21/21
f 18/18/18 23/23/23 22/22/22
f 18/18/18 24/24/24 23/23/23
f 18/18/18 22/22/22 3/3/3
f 22/22/22 25/25/25 3/3/3
f 22/22/22 26/26/26 25/25/25
f 27/27/27 29/29/29 28/28/28
f 27/27/27 28/28/28 30/30/30
f 31/31/31 29/29/29 27/27/27
f 31/31/31 32/32/32 29/29/29
f 33/33/33 32/32/32 31/31/31
f 33/33/33 34/34/34 32/32/32
f 35/35/35 37/37/37 36/36/36
f 35/35/35 36/36/36 38/38/38
f 39/39/39 37/37/37 35/35/35
f 39/39/39 40/40/40 37/37/37
f 38/38/38 36/36/36 41/41/41
f 38/38/38 41/41/41 42/42/42
f 42/42/42 41/41/41 43/43/43
f 42/42/42 43/43/43 44/44/44
f 44/44/44 43/43/43 45/45/45
f 44/44/44 45/45/45 46/46/46
f 39/39/39 47/47/47 40/40/40
f 48/48/48 50/50/50 49/49/49
f 48/48/48 49/49/49 51/51/51
f 52/52/52 50/50/50 48/48/48
f 52/52/52 53/53/53 50/50/50
f 51/51/51 49/49/49 54/54/54
f 51/51/51 54/54/54 55/55/55
f 55/55/55 54/54/54 56/56/56
f 55/55/55 56/56/56 57/57/57
f 58/58/58 60/60/60 59/59/59
f 58/58/58 59/59/59 61/61/61
f 62/62/62 58/58/58 61/61/61
f 63/63/63 65/65/65 64/64/64
f 63/63/63 64/64/64 66/66/66
f 67/67/67 65/65/65 63/63/63
f 67/67/67 68/68/68 65/65/65
f 69/69/69 68/68/68 67/67/67
f 69/69/69 70/70/70 68/68/68
f 71/71/71 70/70/70 69/69/69
f 71/71/71 72/72/72 70/70/70
f 73/73/73 75/75/75 74/74/74
f 73/73/73 74/74/74 76/76/76
f 79/79/79 78/78/78 77/77/77
f 79/79/79 80/80/80 78/78/78
f 76/76/76 74/74/74 81/81/81
f 76/76/76 81/81/81 82/82/82
f 83/83/83 85/85/85 84/84/84
f 83/83/83 84/84/84 86/86/86
f 87/87/87 89/89/89 88/88/88
f 87/87/87 88/88/88 90/90/90
f 91/91/91 93/93/93 92/92/92
f 91/91/91 92/92/92 94/94/94
f 95/95/95 91/91/91 94/94/94
f 96/96/96 91/91/91 95/95/95
f 96/96/96 97/97/97 91/91/91
f 95/95/95 94/94/94 98/98/98
f 99/99/99 95/95/95 98/98/98
f 100/100/100 99/99/99 98/98/98
f 100/100/100 101/101/101 99/99/99
f 101/101/101 102/102/102 99/99/99
f 103/103/103 99/99/99 102/102/102
f 103/103/103 104/104/104 99/99/99
f 103/103/103 105/105/105 104/104/104
f 99/99/99 106/106/106 95/95/95
f 96/96/96 107/107/107 97/97/97
f 94/94/94 108/108/108 98/98/98
f 109/109/109 98/98/98 108/108/108
f 94/94/94 110/110/110 108/108/108
f 108/108/108 110/110/110 111/111/111
f 108/108/108 111/111/111 112/112/112
f 98/98/98 109/109/109 113/113/113
f 98/98/98 113/113/113 114/114/114
f 110/110/110 94/94/94 115/115/115
f 110/110/110 115/115/115 116/116/116
f 117/117/117 119/119/119 118/118/118
f 117/117/117 118/118/118 120/120/120
f 120/120/120 118/118/118 121/121/121
f 120/120/120 121/121/121 122/122/122
f 117/117/117 120/120/120 123/123/123
f 117/117/117 124/124/124 119/119/119
f 117/117/117 125/125/125 124/124/124
f 118/118/118 119/119/119 126/126/126
f 127/127/127 118/118/118 126/126/126
f 126/126/126 128/128/128 127/127/127
f 126/126/126 129/129/129 128/128/128
f 130/130/130 128/128/128 129/129/129
f 130/130/130 131/131/131 128/128/128
f 132/132/132 122/122/122 121/121/121
f 132/132/132 133/133/133 122/122/122
f 134/134/134 132/132/132 121/121/121
f 134/134/134 121/121/121 118/118/118
f 135/135/135 118/118/118 127/127/127
f 135/135/135 127/127/127 136/136/136
f 137/137/137 127/127/127 128/128/128
f 128/128/128 131/131/131 138/138/138
f 128/128/128 138/138/138 139/139/139
f 140/140/140 128/128/128 141/141/141
f 142/142/142 144/144/144 143/143/143
f 142/142/142 143/143/143 145/145/145
f 146/146/146 143/143/143 144/144/144
f 146/146/146 147/147/147 143/143/143
f 148/148/148 147/147/147 146/146/146
f 148/148/148 149/149/149 147/147/147
f 150/150/150 149/149/149 148/148/148
f 150/150/150 151/151/151 149/149/149
f 152/152/152 142/142/142 145/145/145
f 153/153/153 155/155/155 154/154/154
f 155/155/155 153/153/153 156/156/156
f 155/155/155 156/156/156 157/157/157
f 158/158/158 160/160/160 159/159/159
f 158/158/158 159/159/159 161/161/161
f 160/160/160 158/158/158 162/162/162
f 160/160/160 162/162/162 163/163/163
f 163/163/163 162/162/162 164/164/164
f 163/163/163 164/164/164 165/165/165
f 166/166/166 165/165/165 164/164/164
f 166/166/166 164/164/164 167/167/167
f 168/168/168 170/170/170 169/169/169
f 168/168/168 171/171/171 170/170/170
f 171/171/171 172/172/172 170/170/170
f 171/171/171 173/173/173 172/172/172
f 168/168/168 174/174/174 171/171/171
f 175/175/175 168/168/168 169/169/169
f 175/175/175 176/176/176 168/168/168
f 170/170/170 177/177/177 169/169/169
f 178/178/178 177/177/177 170/170/170
f 179/179/179 177/177/177 178/178/178
f 179/179/179 180/180/180 177/177/177
f 181/181/181 180/180/180 179/179/179
f 181/181/181 179/179/179 182/182/182
f 183/183/183 172/172/172 173/173/173
f 183/183/183 173/173/173 184/184/184
f 185/185/185 170/170/170 172/172/172
f 185/185/185 172/172/172 183/183/183
f 178/178/178 170/170/170 186/186/186
f 178/178/178 186/186/186 187/187/187
f 179/179/179 178/178/178 188/188/188
f 179/179/179 189/189/189 182/182/182
f 179/179/179 190/190/190 189/189/189
f 179/179/179 192/192/192 191/191/191
f 193/193/193 195/195/195 194/194/194
f 193/193/193 194/194/194 196/196/196
f 197/197/197 193/193/193 196/196/196
f 197/197/197 196/196/196 198/198/198
f 199/199/199 197/197/197 198/198/198
f 200/200/200 202/202/202 201/201/201
f 200/200/200 201/201/201 203/203/203
f 204/204/204 206/206/206 205/205/205
f 204/204/204 205/205/205 207/207/207
f 206/206/206 208/208/208 205/205/205
f 206/206/206 209/209/209 208/208/208
f 209/209/209 206/206/206 210/210/210
f 211/211/211 213/213/213 212/212/212
f 211/211/211 212/212/212 214/214/214
f 213/213/213 211/211/211 215/215/215
f 213/213/213 215/215/215 216/216/216
f 216/216/216 217/217/217 213/213/213
f 218/218/218 220/220/220 219/219/219
f 218/218/218 219/219/219 221/221/221
f 222/222/222 219/219/219 220/220/220
f 222/222/222 223/223/223 219/219/219
f 224/224/224 226/226/226 225/225/225
f 224/224/224 225/225/225 227/227/227
f 228/228/228 230/230/230 229/229/229
f 228/228/228 229/229/229 231/231/231
f 232/232/232 228/228/228 231/231/231
f 233/233/233 235/235/235 234/234/234
f 233/233/233 234/234/234 236/236/236
f 233/233/233 237/237/237 235/235/235
f 233/233/233 238/238/238 237/237/237
