# Generated by tools/yaml_mesh_converter/split_reload_parts.py
mtllib gun01.mtl
o gun01_body
v 0.0363852158 0.0723478347 -0.728072405
vt 0.0670000017 0.00520000001
vn 0 -0.99394175 -0.109908128
v -0.036385186 0.0723478347 -0.728072405
vt 0.0670000017 0.0905999988
vn 0 -0.948081783 0.318026624
v -0.036385186 0.0903360844 -0.774950743
vt 0.00810000021 0.0905999988
vn 0 -0.933624785 -0.358252372
v 0.0363852158 0.0723478347 -0.728072405
vt 0.0670000017 0.00520000001
vn 0 -0.99394175 -0.109908128
v -0.036385186 0.0903360844 -0.774950743
vt 0.00810000021 0.0905999988
vn 0 -0.933624785 -0.358252372
v 0.0363852158 0.0903360844 -0.774950743
vt 0.00810000021 0.00520000001
vn 0 -0.933624785 -0.358252372
v 0.0363852158 0.0957869813 -0.708448946
vt 0.102799997 0.00520000001
vn 0 -0.850395525 0.526143945
v -0.036385186 0.0723478347 -0.728072405
vt 0.0670000017 0.0905999988
vn 0 -0.948081783 0.318026624
v 0.0363852158 0.0723478347 -0.728072405
vt 0.0670000017 0.00520000001
vn 0 -0.99394175 -0.109908128
v 0.0363852158 0.0957869813 -0.708448946
vt 0.102799997 0.00520000001
vn 0 -0.850395525 0.526143945
v -0.036385186 0.0957869813 -0.708448946
vt 0.102799997 0.0905999988
vn 0 -0.96946791 0.245218212
v -0.036385186 0.0723478347 -0.728072405
vt 0.0670000017 0.0905999988
vn 0 -0.948081783 0.318026624
v 0.0363852158 0.0957869813 -0.671927452
vt 0.145799994 0.00520000001
vn 0 -0.984695787 -0.174281976
v -0.036385186 0.0957869813 -0.708448946
vt 0.102799997 0.0905999988
vn 0 -0.96946791 0.245218212
v 0.0363852158 0.0957869813 -0.708448946
vt 0.102799997 0.00520000001
vn 0 -0.850395525 0.526143945
v 0.0363852158 0.0957869813 -0.671927452
vt 0.145799994 0.00520000001
vn 0 -0.984695787 -0.174281976
v -0.036385186 0.0957869813 -0.671927452
vt 0.145799994 0.0905999988
vn 0 -0.917070319 -0.398725507
v -0.036385186 0.0957869813 -0.708448946
vt 0.102799997 0.0905999988
vn 0 -0.96946791 0.245218212
v 0.0363852158 0.0794341266 -0.652576566
vt 0.175500005 0.00520000001
vn 0 -0.99211642 -0.125319626
v -0.036385186 0.0957869813 -0.671927452
vt 0.145799994 0.0905999988
vn 0 -0.917070319 -0.398725507
v 0.0363852158 0.0957869813 -0.671927452
vt 0.145799994 0.00520000001
vn 0 -0.984695787 -0.174281976
v 0.0363852158 0.0794341266 -0.652576566
vt 0.175500005 0.00520000001
vn 0 -0.99211642 -0.125319626
v -0.036385186 0.0794341266 -0.652576566
vt 0.175500005 0.0905999988
vn 0 -0.99936813 -0.0355435128
v -0.036385186 0.0957869813 -0.671927452
vt 0.145799994 0.0905999988
vn 0 -0.917070319 -0.398725507
v 0.0363852158 0.0794341266 -0.43235743
vt 0.433600008 0.00520000001
vn 0 -0.998242797 -0.0592563839
v -0.036385186 0.0794341266 -0.652576566
vt 0.175500005 0.0905999988
vn 0 -0.99936813 -0.0355435128
v 0.0363852158 0.0794341266 -0.652576566
vt 0.175500005 0.00520000001
vn 0 -0.99211642 -0.125319626
v 0.0363852158 0.0794341266 -0.43235743
vt 0.433600008 0.00520000001
vn 0 -0.998242797 -0.0592563839
v -0.036385186 0.0794341266 -0.43235743
vt 0.433600008 0.0905999988
vn 0 -0.98195455 -0.189117059
v -0.036385186 0.0794341266 -0.652576566
vt 0.175500005 0.0905999988
vn 0 -0.99936813 -0.0355435128
v 0.0363852158 0.051089108 -0.395290852
vt 0.488499999 0.00520000001
vn 0 -0.960346305 -0.278809925
v -0.036385186 0.0794341266 -0.43235743
vt 0.433600008 0.0905999988
vn 0 -0.98195455 -0.189117059
v 0.0363852158 0.0794341266 -0.43235743
vt 0.433600008 0.00520000001
vn 0 -0.998242797 -0.0592563839
v 0.0363852158 0.051089108 -0.395290852
vt 0.488499999 0.00520000001
vn 0 -0.960346305 -0.278809925
v -0.036385186 0.051089108 -0.395290852
vt 0.488499999 0.0905999988
vn 0 -0.992777809 -0.119967585
v -0.036385186 0.0794341266 -0.43235743
vt 0.433600008 0.0905999988
vn 0 -0.98195455 -0.189117059
v 0.0363852158 0.0464558303 -0.258199036
vt 0.649299979 0.00520000001
vn 0 -0.999429374 -0.0337776093
v -0.036385186 0.051089108 -0.395290852
vt 0.488499999 0.0905999988
vn 0 -0.992777809 -0.119967585
v 0.0363852158 0.051089108 -0.395290852
vt 0.488499999 0.00520000001
vn 0 -0.960346305 -0.278809925
v 0.0363852158 0.0464558303 -0.258199036
vt 0.649299979 0.00520000001
vn 0 -0.999429374 -0.0337776093
v -0.036385186 0.0464558303 -0.258199036
vt 0.649299979 0.0905999988
vn 0 -0.999429374 -0.0337776093
v -0.036385186 0.051089108 -0.395290852
vt 0.488499999 0.0905999988
vn 0 -0.992777809 -0.119967585
v 0.0363852158 0.206169009 -0.774950743
vt 0.0265999995 0.221799999
vn 0 0 -1
v 0.0363852158 0.0903360844 -0.774950743
vt 0.126499996 0.221799999
vn 0 0 -1
v -0.036385186 0.0903360844 -0.774950743
vt 0.126499996 0.28459999
vn 0 0 -1
v 0.0363852158 0.206169009 -0.774950743
vt 0.0265999995 0.221799999
vn 0 0 -1
v -0.036385186 0.0903360844 -0.774950743
vt 0.126499996 0.28459999
vn 0 0 -1
v -0.036385186 0.206169009 -0.774950743
vt 0.0265999995 0.28459999
vn 0 0 -1
v -0.000136260569 0.226882711 -0.774950743
vt 0.00870000012 0.253199995
vn 0 0 -1
v 0.0363852158 0.206169009 -0.774950743
vt 0.0265999995 0.221799999
vn 0 0 -1
v -0.036385186 0.206169009 -0.774950743
vt 0.0265999995 0.28459999
vn 0 0 -1
v 0.0303891525 -0.10807921 0.0304296017
vt 0.982800007 0.219899997
vn 0 -0.103307563 -0.99464946
v -0.0306616742 -0.10807921 0.0304296017
vt 0.932600021 0.220300004
vn 0 -0.57746537 -0.81641518
v -0.0369302817 -0.0699224472 0.0462374091
vt 0.927100003 0.186399996
vn 0 -0.0384201482 -0.999261674
v 0.0303891525 -0.10807921 0.0304296017
vt 0.982800007 0.219899997
vn 0 -0.103307563 -0.99464946
v -0.0369302817 -0.0699224472 0.0462374091
vt 0.927100003 0.186399996
vn 0 -0.0384201482 -0.999261674
v 0.0366577655 -0.0699224472 0.0462374091
vt 0.987600029 0.185900003
vn 0 -0.212224916 -0.977220848
v 0.0303891525 -0.144873157 0.077853024
vt 0.983200014 0.269300014
vn 0 -0.964573476 -0.263814347
v -0.0306616742 -0.10807921 0.0304296017
vt 0.932600021 0.220300004
vn 0 -0.57746537 -0.81641518
v 0.0303891525 -0.10807921 0.0304296017
vt 0.982800007 0.219899997
vn 0 -0.103307563 -0.99464946
v 0.0303891525 -0.144873157 0.077853024
vt 0.983200014 0.269300014
vn 0 -0.964573476 -0.263814347
v -0.0306616742 -0.144873157 0.077853024
vt 0.933000028 0.269699991
vn 0 -0.940916558 0.338638496
v -0.0306616742 -0.10807921 0.0304296017
vt 0.932600021 0.220300004
vn 0 -0.57746537 -0.81641518
v 0.0303891525 -0.10617137 0.110558808
vt 0.983500004 0.31099999
vn 0 -0.77863492 0.62747722
v -0.0306616742 -0.144873157 0.077853024
vt 0.933000028 0.269699991
vn 0 -0.940916558 0.338638496
v 0.0303891525 -0.144873157 0.077853024
vt 0.983200014 0.269300014
vn 0 -0.964573476 -0.263814347
v 0.0303891525 -0.10617137 0.110558808
vt 0.983500004 0.31099999
vn 0 -0.77863492 0.62747722
v -0.0306616742 -0.10617137 0.110558808
vt 0.933300018 0.311500013
vn 0 -0.87712969 0.480253586
v -0.0306616742 -0.144873157 0.077853024
vt 0.933000028 0.269699991
vn 0 -0.940916558 0.338638496
v 0.0366577655 -0.0699224472 0.0462374091
vt 0.987600029 0.185900003
vn 0 -0.212224916 -0.977220848
v -0.0369302817 -0.0699224472 0.0462374091
vt 0.927100003 0.186399996
vn 0 -0.0384201482 -0.999261674
v -0.04183615 0.0437302217 0.0102609992
vt 0.922299981 0.0882999972
vn 0 -0.301788002 -0.953375058
v 0.0366577655 -0.0699224472 0.0462374091
vt 0.987600029 0.185900003
vn 0 -0.212224916 -0.977220848
v -0.04183615 0.0437302217 0.0102609992
vt 0.922299981 0.0882999972
vn 0 -0.301788002 -0.953375058
v 0.0415636338 0.0437302217 0.0102609992
vt 0.99089998 0.0878000036
vn 0 -0.301788002 -0.953375058
v 0.0303891525 -0.0862752944 0.165886134
vt 0.983900011 0.359200001
vn 0 -0.258019567 0.966139691
v -0.0306616742 -0.10617137 0.110558808
vt 0.933300018 0.311500013
vn 0 -0.87712969 0.480253586
v 0.0303891525 -0.10617137 0.110558808
vt 0.983500004 0.31099999
vn 0 -0.77863492 0.62747722
v 0.0303891525 -0.0862752944 0.165886134
vt 0.983900011 0.359200001
vn 0 -0.258019567 0.966139691
v -0.0306616742 -0.0862752944 0.165886134
vt 0.933700025 0.359600008
vn 0 0.243336781 0.96994186
v -0.0306616742 -0.10617137 0.110558808
vt 0.933300018 0.311500013
vn 0 -0.87712969 0.480253586
v 0.0415636338 0.0576302186 0.104290217
vt 0.994199991 0.488000005
vn 0 0.393498961 0.919325061
v -0.0306616742 -0.0862752944 0.165886134
vt 0.933700025 0.359600008
vn 0 0.243336781 0.96994186
v 0.0303891525 -0.0862752944 0.165886134
vt 0.983900011 0.359200001
vn 0 -0.258019567 0.966139691
v 0.0415636338 0.0576302186 0.104290217
vt 0.994199991 0.488000005
vn 0 0.393498961 0.919325061
v -0.04183615 0.0576302186 0.104290217
vt 0.925499976 0.488599986
vn 0 0.393498961 0.919325061
v -0.0306616742 -0.0862752944 0.165886134
vt 0.933700025 0.359600008
vn 0 0.243336781 0.96994186
v -0.036385186 0.271853149 0.23729375
vt 0.795599997 0.332300007
vn 0 -0.340334117 0.940304572
v 0.0363852158 0.271853149 0.23729375
vt 0.84740001 0.331999987
vn 0 -0.396603391 0.91799006
v -0.000136260569 0.292566866 0.23729375
vt 0.82160002 0.346899986
vn 0 0 1
v 0.0363852158 0.271853149 0.23729375
vt 0.84740001 0.331999987
vn 0 -0.396603391 0.91799006
v -0.036385186 0.271853149 0.23729375
vt 0.795599997 0.332300007
vn 0 -0.340334117 0.940304572
v -0.0486498624 0.219523981 0.210856587
vt 0.78670001 0.282299995
vn 0 -0.412466481 0.910972778
v 0.0363852158 0.271853149 0.23729375
vt 0.84740001 0.331999987
vn 0 -0.396603391 0.91799006
v -0.0486498624 0.219523981 0.210856587
vt 0.78670001 0.282299995
vn 0 -0.412466481 0.910972778
v 0.0486498922 0.219523981 0.210856587
vt 0.855799973 0.281800002
vn 0 -0.397254816 0.917708348
v 0.0486498922 0.219523981 0.210856587
vt 0.855799973 0.281800002
vn 0 -0.397254816 0.917708348
v -0.0486498624 0.219523981 0.210856587
vt 0.78670001 0.282299995
vn 0 -0.412466481 0.910972778
v -0.036385186 0.0873380378 0.155801833
vt 0.79460001 0.188800007
vn 0 -0.469720598 0.882815133
v 0.0486498922 0.219523981 0.210856587
vt 0.855799973 0.281800002
vn 0 -0.397254816 0.917708348
v -0.036385186 0.0873380378 0.155801833
vt 0.79460001 0.188800007
vn 0 -0.469720598 0.882815133
v 0.0363852158 0.0873380378 0.155801833
vt 0.846400023 0.1884
vn 0 -0.64550142 0.76375907
v 0.0363852158 0.0873380378 0.155801833
vt 0.846400023 0.1884
vn 0 -0.64550142 0.76375907
v -0.036385186 0.0873380378 0.155801833
vt 0.79460001 0.188800007
vn 0 -0.469720598 0.882815133
v -0.04183615 0.0576302186 0.104290217
vt 0.790499985 0.146599993
vn 0 -0.866261429 0.499590969
v 0.0363852158 0.0873380378 0.155801833
vt 0.846400023 0.1884
vn 0 -0.64550142 0.76375907
v -0.04183615 0.0576302186 0.104290217
vt 0.790499985 0.146599993
vn 0 -0.866261429 0.499590969
v 0.0415636338 0.0576302186 0.104290217
vt 0.849900007 0.146200001
vn 0 -0.866261429 0.499590969
v 0.0363852158 0.045093026 -0.0894916654
vt 0.301999986 0.182300001
vn 0 -0.966824937 0.255439899
v -0.036385186 0.045093026 -0.0894916654
vt 0.361499995 0.182300001
vn 0 -0.993325455 0.115345308
v -0.036385186 0.00639107823 -0.183520854
vt 0.361600012 0.265300006
vn 0 -0.924733326 0.380615653
v 0.0363852158 0.045093026 -0.0894916654
vt 0.301999986 0.182300001
vn 0 -0.966824937 0.255439899
v -0.036385186 0.00639107823 -0.183520854
vt 0.361600012 0.265300006
vn 0 -0.924733326 0.380615653
v 0.0363852158 0.00639107823 -0.183520854
vt 0.301999986 0.265399992
vn 0 -0.924733326 0.380615653
v 0.0415636338 0.0437302217 0.0102609992
vt 0.297600001 0.100500003
vn 0 -0.99990669 -0.013660559
v -0.036385186 0.045093026 -0.0894916654
vt 0.361499995 0.182300001
vn 0 -0.993325455 0.115345308
v 0.0363852158 0.045093026 -0.0894916654
vt 0.301999986 0.182300001
vn 0 -0.966824937 0.255439899
v 0.0415636338 0.0437302217 0.0102609992
vt 0.297600001 0.100500003
vn 0 -0.99990669 -0.013660559
v -0.04183615 0.0437302217 0.0102609992
vt 0.36590001 0.100400001
vn 0 -0.99990669 -0.013660559
v -0.036385186 0.045093026 -0.0894916654
vt 0.361499995 0.182300001
vn 0 -0.993325455 0.115345308
v -0.036385186 0.0903360844 -0.774950743
vt 0.0149999997 0.307599992
vn -1 0 0
v -0.036385186 0.0723478347 -0.728072405
vt 0.0533999987 0.291299999
vn -1 0 0
v -0.036385186 0.0957869813 -0.708448946
vt 0.0693999976 0.312299997
vn -1 0 0
v -0.036385186 0.0903360844 -0.774950743
vt 0.0149999997 0.307599992
vn -1 0 0
v -0.036385186 0.0957869813 -0.708448946
vt 0.0693999976 0.312299997
vn -1 0 0
v -0.036385186 0.206169009 -0.774950743
vt 0.0152000003 0.411500007
vn -0.975855992 0.217306725 -0.0219742841
v -0.036385186 0.0957869813 -0.671927452
vt 0.0993999988 0.31220001
vn -1 0 0
v -0.036385186 0.206169009 -0.774950743
vt 0.0152000003 0.411500007
vn -0.975855992 0.217306725 -0.0219742841
v -0.036385186 0.0957869813 -0.708448946
vt 0.0693999976 0.312299997
vn -1 0 0
v -0.036385186 0.0794341266 -0.43235743
vt 0.295300007 0.297100008
vn -0.996930039 -0.0748060436 -0.0231204094
v -0.036385186 0.206169009 -0.774950743
vt 0.0152000003 0.411500007
vn -0.975855992 0.217306725 -0.0219742841
v -0.036385186 0.0957869813 -0.671927452
vt 0.0993999988 0.31220001
vn -1 0 0
v -0.036385186 0.0794341266 -0.43235743
vt 0.295300007 0.297100008
vn -0.996930039 -0.0748060436 -0.0231204094
v -0.036385186 0.0957869813 -0.671927452
vt 0.0993999988 0.31220001
vn -1 0 0
v -0.036385186 0.0794341266 -0.652576566
vt 0.115199998 0.297500014
vn -1 0 0
v -0.036385186 0.0794341266 -0.43235743
vt 0.295300007 0.297100008
vn -0.996930039 -0.0748060436 -0.0231204094
v -0.0486498624 0.206169009 -0.514394522
vt 0.225199997 0.408800006
vn -0.999312904 0.031128463 -0.0201181176
v -0.036385186 0.206169009 -0.774950743
vt 0.0152000003 0.411500007
vn -0.975855992 0.217306725 -0.0219742841
v -0.036385186 0.0464558303 -0.258199036
vt 0.435400009 0.26730001
vn -0.997688645 -0.0671433872 -0.0104467225
v -0.0486498624 0.206169009 -0.514394522
vt 0.225199997 0.408800006
vn -0.999312904 0.031128463 -0.0201181176
v -0.036385186 0.0794341266 -0.43235743
vt 0.295300007 0.297100008
vn -0.996930039 -0.0748060436 -0.0231204094
v -0.036385186 0.0464558303 -0.258199036
vt 0.435400009 0.26730001
vn -0.997688645 -0.0671433872 -0.0104467225
v -0.036385186 0.0794341266 -0.43235743
vt 0.295300007 0.297100008
vn -0.996930039 -0.0748060436 -0.0231204094
v -0.036385186 0.051089108 -0.395290852
vt 0.325700015 0.271800011
vn -1 0 0
v -0.0486498624 0.206169009 -0.514394522
vt 0.225199997 0.408800006
vn -0.999312904 0.031128463 -0.0201181176
v -0.036385186 0.0464558303 -0.258199036
vt 0.435400009 0.26730001
vn -0.997688645 -0.0671433872 -0.0104467225
v -0.036385186 0.045093026 -0.0894916654
vt 0.575800002 0.265700012
vn -0.998146351 -0.0606761661 -0.00471849674
v -0.036385186 0.045093026 -0.0894916654
vt 0.575800002 0.265700012
vn -0.998146351 -0.0606761661 -0.00471849674
v -0.036385186 0.0464558303 -0.258199036
vt 0.435400009 0.26730001
vn -0.997688645 -0.0671433872 -0.0104467225
v -0.036385186 0.00639107823 -0.183520854
vt 0.49970001 0.231299996
vn -0.999165528 -0.0359915746 -0.019309435
v -0.0486498624 0.206169009 -0.514394522
vt 0.225199997 0.408800006
vn -0.999312904 0.031128463 -0.0201181176
v -0.036385186 0.045093026 -0.0894916654
vt 0.575800002 0.265700012
vn -0.998146351 -0.0606761661 -0.00471849674
v -0.0486498624 0.219523981 0.210856587
vt 0.822300017 0.419499993
vn -0.999489666 0.0319424724 -0.000294974858
v -0.0486498624 0.219523981 0.210856587
vt 0.822300017 0.419499993
vn -0.999489666 0.0319424724 -0.000294974858
v -0.036385186 0.045093026 -0.0894916654
vt 0.575800002 0.265700012
vn -0.998146351 -0.0606761661 -0.00471849674
v -0.04183615 0.0437302217 0.0102609992
vt 0.657800019 0.263399988
vn -0.999693245 -0.0160987143 -0.0188214695
v -0.0486498624 0.219523981 0.210856587
vt 0.822300017 0.419499993
vn -0.999489666 0.0319424724 -0.000294974858
v -0.04183615 0.0437302217 0.0102609992
vt 0.657800019 0.263399988
vn -0.999693245 -0.0160987143 -0.0188214695
v -0.04183615 0.0576302186 0.104290217
vt 0.734700024 0.275900006
vn -0.997034396 -0.0642567368 0.0423495569
v -0.04183615 0.0576302186 0.104290217
vt 0.734700024 0.275900006
vn -0.997034396 -0.0642567368 0.0423495569
v -0.04183615 0.0437302217 0.0102609992
vt 0.657800019 0.263399988
vn -0.999693245 -0.0160987143 -0.0188214695
v -0.0369302817 -0.0699224472 0.0462374091
vt 0.68690002 0.162300006
vn -0.997384535 -0.0669054386 0.0273450529
v -0.0369302817 -0.0699224472 0.0462374091
vt 0.68690002 0.162300006
vn -0.997384535 -0.0669054386 0.0273450529
v -0.0306616742 -0.0862752944 0.165886134
vt 0.784600019 0.148599997
vn -0.996862329 -0.066353879 0.0431585359
v -0.04183615 0.0576302186 0.104290217
vt 0.734700024 0.275900006
vn -0.997034396 -0.0642567368 0.0423495569
v -0.0369302817 -0.0699224472 0.0462374091
vt 0.68690002 0.162300006
vn -0.997384535 -0.0669054386 0.0273450529
v -0.0306616742 -0.10617137 0.110558808
vt 0.739400029 0.130799994
vn -0.995797309 -0.0904205831 0.0145546525
v -0.0306616742 -0.0862752944 0.165886134
vt 0.784600019 0.148599997
vn -0.996862329 -0.066353879 0.0431585359
v -0.0306616742 -0.10617137 0.110558808
vt 0.739400029 0.130799994
vn -0.995797309 -0.0904205831 0.0145546525
v -0.0369302817 -0.0699224472 0.0462374091
vt 0.68690002 0.162300006
vn -0.997384535 -0.0669054386 0.0273450529
v -0.0306616742 -0.10807921 0.0304296017
vt 0.673799992 0.129299998
vn -0.996587292 -0.0825221758 0.0019648159
v -0.0306616742 -0.10617137 0.110558808
vt 0.739400029 0.130799994
vn -0.995797309 -0.0904205831 0.0145546525
v -0.0306616742 -0.10807921 0.0304296017
vt 0.673799992 0.129299998
vn -0.996587292 -0.0825221758 0.0019648159
v -0.0306616742 -0.144873157 0.077853024
vt 0.712599993 0.0961999968
vn -1 0 0
v -0.0486498624 0.219523981 0.210856587
vt 0.822300017 0.419499993
vn -0.999489666 0.0319424724 -0.000294974858
v -0.04183615 0.0576302186 0.104290217
vt 0.734700024 0.275900006
vn -0.997034396 -0.0642567368 0.0423495569
v -0.036385186 0.0873380378 0.155801833
vt 0.776799977 0.303200006
vn -0.963849919 -0.173611271 0.202119917
v -0.0486498624 0.219523981 0.210856587
vt 0.822300017 0.419499993
vn -0.999489666 0.0319424724 -0.000294974858
v -0.036385186 0.249504238 -0.404830098
vt 0.318100005 0.449499995
vn -0.865837668 0.500140809 0.0135758732
v -0.0486498624 0.206169009 -0.514394522
vt 0.225199997 0.408800006
vn -0.999312904 0.031128463 -0.0201181176
v -0.0486498624 0.219523981 0.210856587
vt 0.822300017 0.419499993
vn -0.999489666 0.0319424724 -0.000294974858
v -0.036385186 0.247869 0.159617513
vt 0.780099988 0.447100013
vn -0.648887085 0.760710885 -0.0162634806
v -0.036385186 0.249504238 -0.404830098
vt 0.318100005 0.449499995
vn -0.865837668 0.500140809 0.0135758732
v -0.0486498624 0.219523981 0.210856587
vt 0.822300017 0.419499993
vn -0.999489666 0.0319424724 -0.000294974858
v -0.036385186 0.271853149 0.16915673
vt 0.788100004 0.468600005
vn -0.830943881 0.502377349 -0.239059126
v -0.036385186 0.247869 0.159617513
vt 0.780099988 0.447100013
vn -0.648887085 0.760710885 -0.0162634806
v -0.0486498624 0.219523981 0.210856587
vt 0.822300017 0.419499993
vn -0.999489666 0.0319424724 -0.000294974858
v -0.036385186 0.271853149 0.23729375
vt 0.843699992 0.468499988
vn -0.741791082 0.670631039 0
v -0.036385186 0.271853149 0.16915673
vt 0.788100004 0.468600005
vn -0.830943881 0.502377349 -0.239059126
v -0.000136260569 0.270217925 -0.399106503
vt 0.321500003 0.474400014
vn -0.495959554 0.867541826 0.0373537316
v -0.036385186 0.249504238 -0.404830098
vt 0.318100005 0.449499995
vn -0.865837668 0.500140809 0.0135758732
v -0.036385186 0.247869 0.159617513
vt 0.780099988 0.447100013
vn -0.648887085 0.760710885 -0.0162634806
v -0.000136260569 0.270217925 -0.399106503
vt 0.321500003 0.474400014
vn -0.495959554 0.867541826 0.0373537316
v -0.036385186 0.247869 0.159617513
vt 0.780099988 0.447100013
vn -0.648887085 0.760710885 -0.0162634806
v -0.000136260569 0.268582702 0.155256718
vt 0.77609998 0.472000003
vn -0.497975279 0.864416498 -0.0693162291
v -0.000136260569 0.268582702 0.155256718
vt 0.77609998 0.472000003
vn -0.497975279 0.864416498 -0.0693162291
v -0.036385186 0.247869 0.159617513
vt 0.780099988 0.447100013
vn -0.648887085 0.760710885 -0.0162634806
v -0.036385186 0.271853149 0.16915673
vt 0.788100004 0.468600005
vn -0.830943881 0.502377349 -0.239059126
v -0.000136260569 0.268582702 0.155256718
vt 0.77609998 0.472000003
vn -0.497975279 0.864416498 -0.0693162291
v -0.036385186 0.271853149 0.16915673
vt 0.788100004 0.468600005
vn -0.830943881 0.502377349 -0.239059126
v -0.000136260569 0.292566866 0.16915673
vt 0.787500024 0.493600011
vn -0.275446045 0.48202953 -0.831731332
v -0.000136260569 0.292566866 0.16915673
vt 0.787500024 0.493600011
vn -0.496139752 0.868242677 0
v -0.036385186 0.271853149 0.16915673
vt 0.788100004 0.468600005
vn -0.830943881 0.502377349 -0.239059126
v -0.036385186 0.271853149 0.23729375
vt 0.843699992 0.468499988
vn -0.741791082 0.670631039 0
v -0.000136260569 0.292566866 0.16915673
vt 0.787500024 0.493600011
vn -0.496139752 0.868242677 0
v -0.036385186 0.271853149 0.23729375
vt 0.843699992 0.468499988
vn -0.741791082 0.670631039 0
v -0.000136260569 0.292566866 0.23729375
vt 0.843100011 0.493499994
vn -0.496139752 0.868242677 0
v -0.036385186 0.249504238 -0.404830098
vt 0.318100005 0.449499995
vn -0.865837668 0.500140809 0.0135758732
v -0.036385186 0.271853149 -0.401559472
vt 0.320899993 0.473699987
vn -0.647997254 0.710137923 0.275324698
v -0.036385186 0.271853149 -0.45961231
vt 0.273499995 0.473800004
vn -0.730420568 0.565001326 -0.38374379
v -0.036385186 0.249504238 -0.404830098
vt 0.318100005 0.449499995
vn -0.865837668 0.500140809 0.0135758732
v -0.036385186 0.271853149 -0.45961231
vt 0.273499995 0.473800004
vn -0.730420568 0.565001326 -0.38374379
v -0.0486498624 0.206169009 -0.514394522
vt 0.225199997 0.408800006
vn -0.999312904 0.031128463 -0.0201181176
v -0.000136260569 0.292566866 -0.45961231
vt 0.272899985 0.494700015
vn -0.496139752 0.868242677 0
v -0.036385186 0.271853149 -0.45961231
vt 0.273499995 0.473800004
vn -0.730420568 0.565001326 -0.38374379
v -0.036385186 0.271853149 -0.401559472
vt 0.320899993 0.473699987
vn -0.647997254 0.710137923 0.275324698
v -0.000136260569 0.292566866 -0.45961231
vt 0.272899985 0.494700015
vn -0.496139752 0.868242677 0
v -0.036385186 0.271853149 -0.401559472
vt 0.320899993 0.473699987
vn -0.647997254 0.710137923 0.275324698
v -0.000136260569 0.292566866 -0.401559472
vt 0.320300013 0.494599998
vn -0.472439181 0.826766768 0.305381615
v -0.000136260569 0.270217925 -0.399106503
vt 0.321500003 0.474400014
vn -0.495959554 0.867541826 0.0373537316
v -0.000136260569 0.292566866 -0.401559472
vt 0.320300013 0.494599998
vn -0.472439181 0.826766768 0.305381615
v -0.036385186 0.271853149 -0.401559472
vt 0.320899993 0.473699987
vn -0.647997254 0.710137923 0.275324698
v -0.000136260569 0.270217925 -0.399106503
vt 0.321500003 0.474400014
vn 0.493149511 0.869150514 0.0371610641
v -0.036385186 0.271853149 -0.401559472
vt 0.320899993 0.473699987
vn -0.647997254 0.710137923 0.275324698
v -0.036385186 0.249504238 -0.404830098
vt 0.318100005 0.449499995
vn -0.865837668 0.500140809 0.0135758732
v -0.000136260569 0.226882711 -0.514394522
vt 0.227799997 0.435900003
vn -0.306168217 0.626435165 -0.716826343
v -0.0486498624 0.206169009 -0.514394522
vt 0.225199997 0.408800006
vn -0.999312904 0.031128463 -0.0201181176
v -0.036385186 0.271853149 -0.45961231
vt 0.273499995 0.473800004
vn -0.730420568 0.565001326 -0.38374379
v -0.000136260569 0.226882711 -0.514394522
vt 0.227799997 0.435900003
vn -0.306168217 0.626435165 -0.716826343
v -0.036385186 0.271853149 -0.45961231
vt 0.273499995 0.473800004
vn -0.730420568 0.565001326 -0.38374379
v -0.000136260569 0.292566866 -0.45961231
vt 0.272899985 0.494700015
vn -0.343702312 0.601477737 -0.721174911
v -0.000136260569 0.226882711 -0.514394522
vt 0.227799997 0.435900003
vn -0.439083562 0.898386794 -0.0103340803
v -0.036385186 0.206169009 -0.774950743
vt 0.0152000003 0.411500007
vn -0.975855992 0.217306725 -0.0219742841
v -0.0486498624 0.206169009 -0.514394522
vt 0.225199997 0.408800006
vn -0.999312904 0.031128463 -0.0201181176
v -0.000136260569 0.226882711 -0.514394522
vt 0.227799997 0.435900003
vn -0.439083562 0.898386794 -0.0103340803
v -0.000136260569 0.226882711 -0.774950743
vt 0.0146000003 0.436399996
vn -0.496139483 0.868242831 1.84977963e-16
v -0.036385186 0.206169009 -0.774950743
vt 0.0152000003 0.411500007
vn -0.975855992 0.217306725 -0.0219742841
v -0.000136260569 0.270217925 -0.399106503
vt 0.321500003 0.474400014
vn -0.495959554 0.867541826 0.0373537316
v 0.0363852158 0.249504238 -0.404830098
vt 0.318100005 0.449499995
vn 0.864936774 0.50169517 0.0136504204
v 0.0363852158 0.271853149 -0.401559472
vt 0.320899993 0.473699987
vn 0.64517876 0.712365355 0.276188286
v 0.0363852158 0.271853149 -0.45961231
vt 0.273499995 0.473800004
vn 0.728223514 0.56677017 -0.385307782
v 0.0363852158 0.271853149 -0.401559472
vt 0.320899993 0.473699987
vn 0.64517876 0.712365355 0.276188286
v 0.0363852158 0.249504238 -0.404830098
vt 0.318100005 0.449499995
vn 0.864936774 0.50169517 0.0136504204
v 0.0363852158 0.271853149 -0.45961231
vt 0.273499995 0.473800004
vn 0.728223514 0.56677017 -0.385307782
v 0.0363852158 0.249504238 -0.404830098
vt 0.318100005 0.449499995
vn 0.864936774 0.50169517 0.0136504204
v 0.0486498922 0.206169009 -0.514394522
vt 0.225199997 0.408800006
vn 0.999300354 0.0314818037 -0.0201915463
v 0.0363852158 0.249504238 -0.404830098
vt 0.318100005 0.449499995
vn 0.864936774 0.50169517 0.0136504204
v 0.0486498922 0.219523981 0.210856587
vt 0.822300017 0.419499993
vn 0.99950363 0.0315030978 -0.000222205362
v 0.0486498922 0.206169009 -0.514394522
vt 0.225199997 0.408800006
vn 0.999300354 0.0314818037 -0.0201915463
v 0.0363852158 0.045093026 -0.0894916654
vt 0.575800002 0.265700012
vn 0.99811898 -0.0611452669 -0.00444496494
v 0.0486498922 0.206169009 -0.514394522
vt 0.225199997 0.408800006
vn 0.999300354 0.0314818037 -0.0201915463
v 0.0486498922 0.219523981 0.210856587
vt 0.822300017 0.419499993
vn 0.99950363 0.0315030978 -0.000222205362
v 0.0486498922 0.219523981 0.210856587
vt 0.822300017 0.419499993
vn 0.99950363 0.0315030978 -0.000222205362
v 0.0415636338 0.0437302217 0.0102609992
vt 0.657800019 0.263399988
vn 0.999671492 -0.0186125663 -0.0176204283
v 0.0363852158 0.045093026 -0.0894916654
vt 0.575800002 0.265700012
vn 0.99811898 -0.0611452669 -0.00444496494
v 0.0486498922 0.219523981 0.210856587
vt 0.822300017 0.419499993
vn 0.99950363 0.0315030978 -0.000222205362
v 0.0415636338 0.0576302186 0.104290217
vt 0.734700024 0.275900006
vn 0.997048783 -0.0644863557 0.0416561345
v 0.0415636338 0.0437302217 0.0102609992
vt 0.657800019 0.263399988
vn 0.999671492 -0.0186125663 -0.0176204283
v 0.0415636338 0.0576302186 0.104290217
vt 0.734700024 0.275900006
vn 0.997048783 -0.0644863557 0.0416561345
v 0.0366577655 -0.0699224472 0.0462374091
vt 0.68690002 0.162300006
vn 0.997384532 -0.0669054705 0.0273450775
v 0.0415636338 0.0437302217 0.0102609992
vt 0.657800019 0.263399988
vn 0.999671492 -0.0186125663 -0.0176204283
v 0.0303891525 -0.0862752944 0.165886134
vt 0.784600019 0.148599997
vn 0.996862325 -0.0663539111 0.0431585778
v 0.0366577655 -0.0699224472 0.0462374091
vt 0.68690002 0.162300006
vn 0.997384532 -0.0669054705 0.0273450775
v 0.0415636338 0.0576302186 0.104290217
vt 0.734700024 0.275900006
vn 0.997048783 -0.0644863557 0.0416561345
v 0.0303891525 -0.0862752944 0.165886134
vt 0.784600019 0.148599997
vn 0.996862325 -0.0663539111 0.0431585778
v 0.0303891525 -0.10617137 0.110558808
vt 0.739400029 0.130799994
vn 0.995797301 -0.0904206631 0.0145546654
v 0.0366577655 -0.0699224472 0.0462374091
vt 0.68690002 0.162300006
vn 0.997384532 -0.0669054705 0.0273450775
v 0.0303891525 -0.10617137 0.110558808
vt 0.739400029 0.130799994
vn 0.995797301 -0.0904206631 0.0145546654
v 0.0303891525 -0.10807921 0.0304296017
vt 0.673799992 0.129299998
vn 0.996587286 -0.0825222488 0.00196481764
v 0.0366577655 -0.0699224472 0.0462374091
vt 0.68690002 0.162300006
vn 0.997384532 -0.0669054705 0.0273450775
v 0.0303891525 -0.10617137 0.110558808
vt 0.739400029 0.130799994
vn 0.995797301 -0.0904206631 0.0145546654
v 0.0303891525 -0.144873157 0.077853024
vt 0.712599993 0.0961999968
vn 1 0 0
v 0.0303891525 -0.10807921 0.0304296017
vt 0.673799992 0.129299998
vn 0.996587286 -0.0825222488 0.00196481764
v 0.0486498922 0.219523981 0.210856587
vt 0.822300017 0.419499993
vn 0.99950363 0.0315030978 -0.000222205362
v 0.0363852158 0.0873380378 0.155801833
vt 0.776799977 0.303200006
vn 0.96560457 -0.171126764 0.195763751
v 0.0415636338 0.0576302186 0.104290217
vt 0.734700024 0.275900006
vn 0.997048783 -0.0644863557 0.0416561345
v 0.0363852158 0.045093026 -0.0894916654
vt 0.575800002 0.265700012
vn 0.99811898 -0.0611452669 -0.00444496494
v 0.0363852158 0.0464558303 -0.258199036
vt 0.435400009 0.26730001
vn 0.997688645 -0.0671433834 -0.0104467213
v 0.0486498922 0.206169009 -0.514394522
vt 0.225199997 0.408800006
vn 0.999300354 0.0314818037 -0.0201915463
v 0.0363852158 0.045093026 -0.0894916654
vt 0.575800002 0.265700012
vn 0.99811898 -0.0611452669 -0.00444496494
v 0.0363852158 0.00639107823 -0.183520854
vt 0.49970001 0.231299996
vn 0.999165528 -0.0359915674 -0.0193094312
v 0.0363852158 0.0464558303 -0.258199036
vt 0.435400009 0.26730001
vn 0.997688645 -0.0671433834 -0.0104467213
v 0.0363852158 0.0464558303 -0.258199036
vt 0.435400009 0.26730001
vn 0.997688645 -0.0671433834 -0.0104467213
v 0.0363852158 0.0794341266 -0.43235743
vt 0.295300007 0.297100008
vn 0.996930039 -0.0748060436 -0.0231204094
v 0.0486498922 0.206169009 -0.514394522
vt 0.225199997 0.408800006
vn 0.999300354 0.0314818037 -0.0201915463
v 0.0363852158 0.0794341266 -0.43235743
vt 0.295300007 0.297100008
vn 0.996930039 -0.0748060436 -0.0231204094
v 0.0363852158 0.206169009 -0.774950743
vt 0.0152000003 0.411500007
vn 0.975488768 0.218950128 -0.0219660149
v 0.0486498922 0.206169009 -0.514394522
vt 0.225199997 0.408800006
vn 0.999300354 0.0314818037 -0.0201915463
v 0.0363852158 0.0794341266 -0.43235743
vt 0.295300007 0.297100008
vn 0.996930039 -0.0748060436 -0.0231204094
v 0.0363852158 0.0957869813 -0.671927452
vt 0.0993999988 0.31220001
vn 1 0 0
v 0.0363852158 0.206169009 -0.774950743
vt 0.0152000003 0.411500007
vn 0.975488768 0.218950128 -0.0219660149
v 0.0363852158 0.0957869813 -0.671927452
vt 0.0993999988 0.31220001
vn 1 0 0
v 0.0363852158 0.0957869813 -0.708448946
vt 0.0693999976 0.312299997
vn 1 0 0
v 0.0363852158 0.206169009 -0.774950743
vt 0.0152000003 0.411500007
vn 0.975488768 0.218950128 -0.0219660149
v 0.0363852158 0.0903360844 -0.774950743
vt 0.0149999997 0.307599992
vn 1 0 0
v 0.0363852158 0.206169009 -0.774950743
vt 0.0152000003 0.411500007
vn 0.975488768 0.218950128 -0.0219660149
v 0.0363852158 0.0957869813 -0.708448946
vt 0.0693999976 0.312299997
vn 1 0 0
v 0.0363852158 0.0903360844 -0.774950743
vt 0.0149999997 0.307599992
vn 1 0 0
v 0.0363852158 0.0957869813 -0.708448946
vt 0.0693999976 0.312299997
vn 1 0 0
v 0.0363852158 0.0723478347 -0.728072405
vt 0.0533999987 0.291299999
vn 1 0 0
v 0.0363852158 0.0794341266 -0.43235743
vt 0.295300007 0.297100008
vn 0.996930039 -0.0748060436 -0.0231204094
v 0.0363852158 0.0794341266 -0.652576566
vt 0.115199998 0.297500014
vn 1 0 0
v 0.0363852158 0.0957869813 -0.671927452
vt 0.0993999988 0.31220001
vn 1 0 0
v 0.0363852158 0.0464558303 -0.258199036
vt 0.435400009 0.26730001
vn 0.997688645 -0.0671433834 -0.0104467213
v 0.0363852158 0.051089108 -0.395290852
vt 0.325700015 0.271800011
vn 1 0 0
v 0.0363852158 0.0794341266 -0.43235743
vt 0.295300007 0.297100008
vn 0.996930039 -0.0748060436 -0.0231204094
v -0.000136260569 0.226882711 -0.514394522
vt 0.227799997 0.435900003
vn 0.43681492 0.899492653 -0.0102806865
v 0.0486498922 0.206169009 -0.514394522
vt 0.225199997 0.408800006
vn 0.999300354 0.0314818037 -0.0201915463
v 0.0363852158 0.206169009 -0.774950743
vt 0.0152000003 0.411500007
vn 0.975488768 0.218950128 -0.0219660149
v -0.000136260569 0.226882711 -0.514394522
vt 0.227799997 0.435900003
vn 0.43681492 0.899492653 -0.0102806865
v 0.0363852158 0.206169009 -0.774950743
vt 0.0152000003 0.411500007
vn 0.975488768 0.218950128 -0.0219660149
v -0.000136260569 0.226882711 -0.774950743
vt 0.0146000003 0.436399996
vn 0.493340622 0.869836209 1.8531743e-16
v 0.0363852158 0.271853149 -0.45961231
vt 0.273499995 0.473800004
vn 0.728223514 0.56677017 -0.385307782
v 0.0486498922 0.206169009 -0.514394522
vt 0.225199997 0.408800006
vn 0.999300354 0.0314818037 -0.0201915463
v -0.000136260569 0.226882711 -0.514394522
vt 0.227799997 0.435900003
vn 0.30434581 0.626711015 -0.717361089
v 0.0363852158 0.271853149 -0.45961231
vt 0.273499995 0.473800004
vn 0.728223514 0.56677017 -0.385307782
v -0.000136260569 0.226882711 -0.514394522
vt 0.227799997 0.435900003
vn 0.30434581 0.626711015 -0.717361089
v -0.000136260569 0.292566866 -0.45961231
vt 0.272899985 0.494700015
vn 0.341437359 0.60200671 -0.721809151
v 0.0363852158 0.271853149 -0.401559472
vt 0.320899993 0.473699987
vn 0.64517876 0.712365355 0.276188286
v 0.0363852158 0.271853149 -0.45961231
vt 0.273499995 0.473800004
vn 0.728223514 0.56677017 -0.385307782
v -0.000136260569 0.292566866 -0.45961231
vt 0.272899985 0.494700015
vn 0.493340891 0.869836057 0
v 0.0363852158 0.271853149 -0.401559472
vt 0.320899993 0.473699987
vn 0.64517876 0.712365355 0.276188286
v -0.000136260569 0.292566866 -0.45961231
vt 0.272899985 0.494700015
vn 0.493340891 0.869836057 0
v -0.000136260569 0.292566866 -0.401559472
vt 0.320300013 0.494599998
vn 0.469693569 0.828142182 0.30588965
v -0.000136260569 0.270217925 -0.399106503
vt 0.321500003 0.474400014
vn 0.493149511 0.869150514 0.0371610641
v 0.0363852158 0.271853149 -0.401559472
vt 0.320899993 0.473699987
vn 0.64517876 0.712365355 0.276188286
v -0.000136260569 0.292566866 -0.401559472
vt 0.320300013 0.494599998
vn 0.469693569 0.828142182 0.30588965
v 0.0363852158 0.247869 0.159617513
vt 0.780099988 0.447100013
vn 0.646483093 0.762754329 -0.0162924768
v 0.0363852158 0.249504238 -0.404830098
vt 0.318100005 0.449499995
vn 0.864936774 0.50169517 0.0136504204
v -0.000136260569 0.270217925 -0.399106503
vt 0.321500003 0.474400014
vn 0.493149511 0.869150514 0.0371610641
v 0.0363852158 0.249504238 -0.404830098
vt 0.318100005 0.449499995
vn 0.864936774 0.50169517 0.0136504204
v 0.0363852158 0.247869 0.159617513
vt 0.780099988 0.447100013
vn 0.646483093 0.762754329 -0.0162924768
v 0.0486498922 0.219523981 0.210856587
vt 0.822300017 0.419499993
vn 0.99950363 0.0315030978 -0.000222205362
v 0.0486498922 0.219523981 0.210856587
vt 0.822300017 0.419499993
vn 0.99950363 0.0315030978 -0.000222205362
v 0.0363852158 0.247869 0.159617513
vt 0.780099988 0.447100013
vn 0.646483093 0.762754329 -0.0162924768
v 0.0363852158 0.271853149 0.16915673
vt 0.788100004 0.468600005
vn 0.829412964 0.504381366 -0.240153228
v 0.0486498922 0.219523981 0.210856587
vt 0.822300017 0.419499993
vn 0.99950363 0.0315030978 -0.000222205362
v 0.0363852158 0.271853149 0.16915673
vt 0.788100004 0.468600005
vn 0.829412964 0.504381366 -0.240153228
v 0.0363852158 0.271853149 0.23729375
vt 0.843699992 0.468499988
vn 0.739648035 0.672993896 0
v 0.0363852158 0.247869 0.159617513
vt 0.780099988 0.447100013
vn 0.646483093 0.762754329 -0.0162924768
v -0.000136260569 0.270217925 -0.399106503
vt 0.321500003 0.474400014
vn 0.493149511 0.869150514 0.0371610641
v -0.000136260569 0.268582702 0.155256718
vt 0.77609998 0.472000003
vn 0.495172806 0.866014648 -0.0694443823
v 0.0363852158 0.271853149 0.16915673
vt 0.788100004 0.468600005
vn 0.829412964 0.504381366 -0.240153228
v 0.0363852158 0.247869 0.159617513
vt 0.780099988 0.447100013
vn 0.646483093 0.762754329 -0.0162924768
v -0.000136260569 0.268582702 0.155256718
vt 0.77609998 0.472000003
vn 0.495172806 0.866014648 -0.0694443823
v 0.0363852158 0.271853149 0.16915673
vt 0.788100004 0.468600005
vn 0.829412964 0.504381366 -0.240153228
v -0.000136260569 0.268582702 0.155256718
vt 0.77609998 0.472000003
vn 0.495172806 0.866014648 -0.0694443823
v -0.000136260569 0.292566866 0.16915673
vt 0.787500024 0.493600011
vn 0.273544806 0.482301669 -0.832200901
v 0.0363852158 0.271853149 0.23729375
vt 0.843699992 0.468499988
vn 0.739648035 0.672993896 0
v 0.0363852158 0.271853149 0.16915673
vt 0.788100004 0.468600005
vn 0.829412964 0.504381366 -0.240153228
v -0.000136260569 0.292566866 0.16915673
vt 0.787500024 0.493600011
vn 0.493340891 0.869836057 0
v 0.0363852158 0.271853149 0.23729375
vt 0.843699992 0.468499988
vn 0.739648035 0.672993896 0
v -0.000136260569 0.292566866 0.16915673
vt 0.787500024 0.493600011
vn 0.493340891 0.869836057 0
v -0.000136260569 0.292566866 0.23729375
vt 0.843100011 0.493499994
vn 0.493340891 0.869836057 0
v -0.0252107065 0.115955651 -0.804658413
vt 0.911599994 0.0184000004
vn -1 0 0
v -0.0252107065 0.115955651 -0.78939575
vt 0.911599994 0.0691
vn -1 0 0
v -0.0252107065 0.206986785 -0.788850725
vt 0.737800002 0.0691
vn -1 0 0
v -0.0252107065 0.115955651 -0.804658413
vt 0.911599994 0.0184000004
vn -1 0 0
v -0.0252107065 0.206986785 -0.788850725
vt 0.737800002 0.0691
vn -1 0 0
v -0.0252107065 0.207259223 -0.804113388
vt 0.737800002 0.0184000004
vn -1 0 0
v 0.0238479916 0.206986785 -0.788850725
vt 0.738499999 0.0687000006
vn 1 0 0
v 0.0238479916 0.115955651 -0.78939575
vt 0.911800027 0.0687000006
vn 1 0 0
v 0.0238479916 0.115955651 -0.804658413
vt 0.911800027 0.0176999997
vn 1 0 0
v 0.0238479916 0.206986785 -0.788850725
vt 0.738499999 0.0687000006
vn 1 0 0
v 0.0238479916 0.115955651 -0.804658413
vt 0.911800027 0.0176999997
vn 1 0 0
v 0.0238479916 0.207259223 -0.804113388
vt 0.738499999 0.0176999997
vn 1 0 0
v 0.0238479916 0.115955651 -0.804658413
vt 0.564199984 0.225999996
vn 0 0.00596926439 -0.999982184
v -0.0252107065 0.115955651 -0.804658413
vt 0.514100015 0.225999996
vn 0 0.00596926439 -0.999982184
v -0.0252107065 0.207259223 -0.804113388
vt 0.514100015 0.1074
vn 0 0.00596926439 -0.999982184
v 0.0238479916 0.115955651 -0.804658413
vt 0.564199984 0.225999996
vn 0 0.00596926439 -0.999982184
v -0.0252107065 0.207259223 -0.804113388
vt 0.514100015 0.1074
vn 0 0.00596926439 -0.999982184
v 0.0238479916 0.207259223 -0.804113388
vt 0.564199984 0.1074
vn 0 0.00596926439 -0.999982184
v 0.0238479916 0.115955651 -0.78939575
vt 0.990700006 0.0691
vn 0 -1 0
v -0.0252107065 0.115955651 -0.78939575
vt 0.911599994 0.0691
vn 0 -1 0
v -0.0252107065 0.115955651 -0.804658413
vt 0.911599994 0.0184000004
vn 0 -1 0
v 0.0238479916 0.115955651 -0.78939575
vt 0.990700006 0.0691
vn 0 -1 0
v -0.0252107065 0.115955651 -0.804658413
vt 0.911599994 0.0184000004
vn 0 -1 0
v 0.0238479916 0.115955651 -0.804658413
vt 0.990700006 0.0184000004
vn 0 -1 0
v 0.0238479916 0.206986785 -0.788850725
vt 0.589699984 0.108599998
vn 0 -0.00598712856 0.999982077
v -0.0252107065 0.206986785 -0.788850725
vt 0.637499988 0.108599998
vn 0 -0.00598712856 0.999982077
v -0.0252107065 0.115955651 -0.78939575
vt 0.637499988 0.2245
vn 0 -0.00598712856 0.999982077
v 0.0238479916 0.206986785 -0.788850725
vt 0.589699984 0.108599998
vn 0 -0.00598712856 0.999982077
v -0.0252107065 0.115955651 -0.78939575
vt 0.637499988 0.2245
vn 0 -0.00598712856 0.999982077
v 0.0238479916 0.115955651 -0.78939575
vt 0.589699984 0.2245
vn 0 -0.00598712856 0.999982077
v 0.0238479916 0.207259223 -0.804113388
vt 0.658699989 0.0184000004
vn 0 0.999840728 0.017847117
v -0.0252107065 0.207259223 -0.804113388
vt 0.737800002 0.0184000004
vn 0 0.999840728 0.017847117
v -0.0252107065 0.206986785 -0.788850725
vt 0.737800002 0.0691
vn 0 0.999840728 0.017847117
v 0.0238479916 0.207259223 -0.804113388
vt 0.658699989 0.0184000004
vn 0 0.999840728 0.017847117
v -0.0252107065 0.206986785 -0.788850725
vt 0.737800002 0.0691
vn 0 0.999840728 0.017847117
v 0.0238479916 0.206986785 -0.788850725
vt 0.658699989 0.0691
vn 0 0.999840728 0.017847117
v -0.017034255 0.14675352 -0.766501606
vt 0.290199995 0.160699993
vn -0.892946112 -0.450163571 -1.52811157e-16
v -0.017034255 0.179731816 -0.766501606
vt 0.290199995 0.222100005
vn -0.444273318 0.895891299 3.04116537e-16
v -0.017034255 0.179731816 -0.848266244
vt 0.138500005 0.222100005
vn -0.892946112 0.450163571 1.52811157e-16
v -0.017034255 0.14675352 -0.766501606
vt 0.290199995 0.160699993
vn -0.892946112 -0.450163571 -1.52811157e-16
v -0.017034255 0.179731816 -0.848266244
vt 0.138500005 0.222100005
vn -0.892946112 0.450163571 1.52811157e-16
v -0.017034255 0.14675352 -0.848266244
vt 0.138500005 0.160699993
vn -0.444273318 -0.895891299 -3.04116537e-16
v 0.0162166376 0.14675352 -0.766501606
vt 0.290199995 0.0989999995
vn 0 -1 -3.3945696e-16
v -0.017034255 0.14675352 -0.766501606
vt 0.290199995 0.160699993
vn -0.892946112 -0.450163571 -1.52811157e-16
v -0.017034255 0.14675352 -0.848266244
vt 0.138500005 0.160699993
vn -0.444273318 -0.895891299 -3.04116537e-16
v 0.0162166376 0.14675352 -0.766501606
vt 0.290199995 0.0989999995
vn 0 -1 -3.3945696e-16
v -0.017034255 0.14675352 -0.848266244
vt 0.138500005 0.160699993
vn -0.444273318 -0.895891299 -3.04116537e-16
v 0.0162166376 0.14675352 -0.848266244
vt 0.138500005 0.0989999995
vn 0 -1 -3.3945696e-16
v 0.0162166376 0.179731816 -0.848266244
vt 0.138500005 0.283800006
vn 0 1 3.3945696e-16
v -0.017034255 0.179731816 -0.848266244
vt 0.138500005 0.222100005
vn -0.892946112 0.450163571 1.52811157e-16
v -0.017034255 0.179731816 -0.766501606
vt 0.290199995 0.222100005
vn -0.444273318 0.895891299 3.04116537e-16
v 0.0162166376 0.179731816 -0.848266244
vt 0.138500005 0.283800006
vn 0 1 3.3945696e-16
v -0.017034255 0.179731816 -0.766501606
vt 0.290199995 0.222100005
vn -0.444273318 0.895891299 3.04116537e-16
v 0.0162166376 0.179731816 -0.766501606
vt 0.290199995 0.283800006
vn 0 1 3.3945696e-16
v 0.0162166376 0.179731816 -0.848266244
vt 0.138500005 0.222100005
vn 1 0 0
v 0.0162166376 0.179731816 -0.766501606
vt 0.290199995 0.222100005
vn 1 0 0
v 0.0162166376 0.14675352 -0.766501606
vt 0.290199995 0.160699993
vn 1 0 0
v 0.0162166376 0.179731816 -0.848266244
vt 0.138500005 0.222100005
vn 1 0 0
v 0.0162166376 0.14675352 -0.766501606
vt 0.290199995 0.160699993
vn 1 0 0
v 0.0162166376 0.14675352 -0.848266244
vt 0.138500005 0.160699993
vn 1 0 0
v 0.0162166376 0.14675352 -0.848266244
vt 0.126000002 0.104099996
vn 0 0 -1
v -0.017034255 0.14675352 -0.848266244
vt 0.126000002 0.213799998
vn 0 0 -1
v -0.017034255 0.179731816 -0.848266244
vt 0.0165999997 0.213799998
vn 0 0 -1
v 0.0162166376 0.14675352 -0.848266244
vt 0.126000002 0.104099996
vn 0 0 -1
v -0.017034255 0.179731816 -0.848266244
vt 0.0165999997 0.213799998
vn 0 0 -1
v 0.0162166376 0.179731816 -0.848266244
vt 0.0165999997 0.104099996
vn 0 0 -1
usemtl MA72-Newlambert6
f 1/1/1 2/2/2 3/3/3
f 4/4/4 5/5/5 6/6/6
f 7/7/7 8/8/8 9/9/9
f 10/10/10 11/11/11 12/12/12
f 13/13/13 14/14/14 15/15/15
f 16/16/16 17/17/17 18/18/18
f 19/19/19 20/20/20 21/21/21
f 22/22/22 23/23/23 24/24/24
f 25/25/25 26/26/26 27/27/27
f 28/28/28 29/29/29 30/30/30
f 31/31/31 32/32/32 33/33/33
f 34/34/34 35/35/35 36/36/36
f 37/37/37 38/38/38 39/39/39
f 40/40/40 41/41/41 42/42/42
f 43/43/43 44/44/44 45/45/45
f 46/46/46 47/47/47 48/48/48
f 49/49/49 50/50/50 51/51/51
f 52/52/52 53/53/53 54/54/54
f 55/55/55 56/56/56 57/57/57
f 58/58/58 59/59/59 60/60/60
f 61/61/61 62/62/62 63/63/63
f 64/64/64 65/65/65 66/66/66
f 67/67/67 68/68/68 69/69/69
f 70/70/70 71/71/71 72/72/72
f 73/73/73 74/74/74 75/75/75
f 76/76/76 77/77/77 78/78/78
f 79/79/79 80/80/80 81/81/81
f 82/82/82 83/83/83 84/84/84
f 85/85/85 86/86/86 87/87/87
f 88/88/88 89/89/89 90/90/90
f 91/91/91 92/92/92 93/93/93
f 94/94/94 95/95/95 96/96/96
f 97/97/97 98/98/98 99/99/99
f 100/100/100 101/101/101 102/102/102
f 103/103/103 104/104/104 105/105/105
f 106/106/106 107/107/107 108/108/108
f 109/109/109 110/110/110 111/111/111
f 112/112/112 113/113/113 114/114/114
f 115/115/115 116/116/116 117/117/117
f 118/118/118 119/119/119 120/120/120
f 121/121/121 122/122/122 123/123/123
f 124/124/124 125/125/125 126/126/126
f 127/127/127 128/128/128 129/129/129
f 130/130/130 131/131/131 132/132/132
f 133/133/133 134/134/134 135/135/135
f 136/136/136 137/137/137 138/138/138
f 139/139/139 140/140/140 141/141/141
f 142/142/142 143/143/143 144/144/144
f 145/145/145 146/146/146 147/147/147
f 148/148/148 149/149/149 150/150/150
f 151/151/151 152/152/152 153/153/153
f 154/154/154 155/155/155 156/156/156
f 157/157/157 158/158/158 159/159/159
f 160/160/160 161/161/161 162/162/162
f 163/163/163 164/164/164 165/165/165
f 166/166/166 167/167/167 168/168/168
f 169/169/169 170/170/170 171/171/171
f 172/172/172 173/173/173 174/174/174
f 175/175/175 176/176/176 177/177/177
f 178/178/178 179/179/179 180/180/180
f 181/181/181 182/182/182 183/183/183
f 184/184/184 185/185/185 186/186/186
f 187/187/187 188/188/188 189/189/189
f 190/190/190 191/191/191 192/192/192
f 193/193/193 194/194/194 195/195/195
f 196/196/196 197/197/197 198/198/198
f 199/199/199 200/200/200 201/201/201
f 202/202/202 203/203/203 204/204/204
f 205/205/205 206/206/206 207/207/207
f 208/208/208 209/209/209 210/210/210
f 211/211/211 212/212/212 213/213/213
f 214/214/214 215/215/215 216/216/216
f 217/217/217 218/218/218 219/219/219
f 220/220/220 221/221/221 222/222/222
f 223/223/223 224/224/224 225/225/225
f 226/226/226 227/227/227 228/228/228
f 229/229/229 230/230/230 231/231/231
f 232/232/232 233/233/233 234/234/234
f 235/235/235 236/236/236 237/237/237
f 238/238/238 239/239/239 240/240/240
f 241/241/241 242/242/242 243/243/243
f 244/244/244 245/245/245 246/246/246
f 247/247/247 248/248/248 249/249/249
f 250/250/250 251/251/251 252/252/252
f 253/253/253 254/254/254 255/255/255
f 256/256/256 257/257/257 258/258/258
f 259/259/259 260/260/260 261/261/261
f 262/262/262 263/263/263 264/264/264
f 265/265/265 266/266/266 267/267/267
f 268/268/268 269/269/269 270/270/270
f 271/271/271 272/272/272 273/273/273
f 274/274/274 275/275/275 276/276/276
f 277/277/277 278/278/278 279/279/279
f 280/280/280 281/281/281 282/282/282
f 283/283/283 284/284/284 285/285/285
f 286/286/286 287/287/287 288/288/288
f 289/289/289 290/290/290 291/291/291
f 292/292/292 293/293/293 294/294/294
f 295/295/295 296/296/296 297/297/297
f 298/298/298 299/299/299 300/300/300
f 301/301/301 302/302/302 303/303/303
f 304/304/304 305/305/305 306/306/306
f 307/307/307 308/308/308 309/309/309
f 310/310/310 311/311/311 312/312/312
f 313/313/313 314/314/314 315/315/315
f 316/316/316 317/317/317 318/318/318
f 319/319/319 320/320/320 321/321/321
f 322/322/322 323/323/323 324/324/324
f 325/325/325 326/326/326 327/327/327
f 328/328/328 329/329/329 330/330/330
f 331/331/331 332/332/332 333/333/333
f 334/334/334 335/335/335 336/336/336
f 337/337/337 338/338/338 339/339/339
f 340/340/340 341/341/341 342/342/342
f 343/343/343 344/344/344 345/345/345
f 346/346/346 347/347/347 348/348/348
f 349/349/349 350/350/350 351/351/351
f 352/352/352 353/353/353 354/354/354
f 355/355/355 356/356/356 357/357/357
f 358/358/358 359/359/359 360/360/360
f 361/361/361 362/362/362 363/363/363
f 364/364/364 365/365/365 366/366/366
f 367/367/367 368/368/368 369/369/369
f 370/370/370 371/371/371 372/372/372
f 373/373/373 374/374/374 375/375/375
f 376/376/376 377/377/377 378/378/378
f 379/379/379 380/380/380 381/381/381
f 382/382/382 383/383/383 384/384/384
f 385/385/385 386/386/386 387/387/387
f 388/388/388 389/389/389 390/390/390
f 391/391/391 392/392/392 393/393/393
f 394/394/394 395/395/395 396/396/396
f 397/397/397 398/398/398 399/399/399
f 400/400/400 401/401/401 402/402/402
f 403/403/403 404/404/404 405/405/405
f 406/406/406 407/407/407 408/408/408
f 409/409/409 410/410/410 411/411/411
f 412/412/412 413/413/413 414/414/414
f 415/415/415 416/416/416 417/417/417
f 418/418/418 419/419/419 420/420/420
