# Generated by tools/yaml_mesh_converter/split_reload_parts.py
mtllib gun02.mtl
o gun02_body
v 0.0196106229 0.217934176 -0.81477797
vt 0.277999997 0.714399993
vn 1 0 0
v 0.0196106229 0.217934176 -0.729197741
vt 0.379599988 0.714399993
vn 1 0 0
v 0.0196106229 0.170783281 -0.729197741
vt 0.379599988 0.656499982
vn 1 0 0
v 0.0196106229 0.217934176 -0.81477797
vt 0.277999997 0.714399993
vn 1 0 0
v 0.0196106229 0.170783281 -0.729197741
vt 0.379599988 0.656499982
vn 1 0 0
v 0.0196106229 0.170783281 -0.81477797
vt 0.277999997 0.656499982
vn 1 0 0
v -0.0201814305 0.170783281 -0.729197741
vt 0.379599988 0.656499982
vn -0.764223691 -0.644951277 -2.09172071e-16
v -0.0201814305 0.217934176 -0.729197741
vt 0.379599988 0.714399993
vn -0.764223691 0.644951277 2.09172071e-16
v -0.0201814305 0.217934176 -0.81477797
vt 0.277999997 0.714399993
vn -0.764223691 0.644951277 2.09172071e-16
v -0.0201814305 0.170783281 -0.729197741
vt 0.379599988 0.656499982
vn -0.764223691 -0.644951277 -2.09172071e-16
v -0.0201814305 0.217934176 -0.81477797
vt 0.277999997 0.714399993
vn -0.764223691 0.644951277 2.09172071e-16
v -0.0201814305 0.170783281 -0.81477797
vt 0.277999997 0.656499982
vn -0.764223691 -0.644951277 -2.09172071e-16
v 0.0196106229 0.170783281 -0.81477797
vt 0.277999997 0.602400005
vn 0 -1 -3.24322284e-16
v -0.0201814305 0.170783281 -0.729197741
vt 0.379599988 0.656499982
vn -0.764223691 -0.644951277 -2.09172071e-16
v -0.0201814305 0.170783281 -0.81477797
vt 0.277999997 0.656499982
vn -0.764223691 -0.644951277 -2.09172071e-16
v 0.0196106229 0.170783281 -0.81477797
vt 0.277999997 0.602400005
vn 0 -1 -3.24322284e-16
v 0.0196106229 0.170783281 -0.729197741
vt 0.379599988 0.602400005
vn 0 -1 -3.24322284e-16
v -0.0201814305 0.170783281 -0.729197741
vt 0.379599988 0.656499982
vn -0.764223691 -0.644951277 -2.09172071e-16
v 0.0196106229 0.217934176 -0.729197741
vt 0.379599988 0.76849997
vn 0 1 3.24322284e-16
v -0.0201814305 0.217934176 -0.81477797
vt 0.277999997 0.714399993
vn -0.764223691 0.644951277 2.09172071e-16
v -0.0201814305 0.217934176 -0.729197741
vt 0.379599988 0.714399993
vn -0.764223691 0.644951277 2.09172071e-16
v 0.0196106229 0.217934176 -0.729197741
vt 0.379599988 0.76849997
vn 0 1 3.24322284e-16
v 0.0196106229 0.217934176 -0.81477797
vt 0.277999997 0.76849997
vn 0 1 3.24322284e-16
v -0.0201814305 0.217934176 -0.81477797
vt 0.277999997 0.714399993
vn -0.764223691 0.644951277 2.09172071e-16
v 0.0196106229 0.217934176 -0.81477797
vt 0.103399999 0.767400026
vn 0 0 -1
v 0.0196106229 0.170783281 -0.81477797
vt 0.103399999 0.663200021
vn 0 0 -1
v -0.0201814305 0.170783281 -0.81477797
vt 0.200900003 0.663200021
vn 0 0 -1
v 0.0196106229 0.217934176 -0.81477797
vt 0.103399999 0.767400026
vn 0 0 -1
v -0.0201814305 0.170783281 -0.81477797
vt 0.200900003 0.663200021
vn 0 0 -1
v -0.0201814305 0.217934176 -0.81477797
vt 0.200900003 0.767400026
vn 0 0 -1
v -0.0395323597 0.0993757993 0.15494895
vt 0.837100029 0.796000004
vn -1 0 0
v -0.0395323597 0.256363362 0.227719337
vt 0.90109998 0.958100021
vn -0.931060171 0.36486567 6.00951828e-17
v -0.0395323597 0.256363362 -0.10724251
vt 0.613799989 0.953800023
vn -0.981577423 0.184563004 -0.049419238
v -0.0395323597 0.0993757993 0.15494895
vt 0.837100029 0.796000004
vn -1 0 0
v -0.0395323597 0.256363362 -0.10724251
vt 0.613799989 0.953800023
vn -0.981577423 0.184563004 -0.049419238
v -0.0395323597 0.207577243 -0.121960118
vt 0.596899986 0.909300029
vn -0.996754583 0.0774029998 -0.0221150859
v -0.0395323597 0.0721209943 0.0996216238
vt 0.788800001 0.772700012
vn -0.999867798 -0.0146054327 0.00714623657
v -0.0395323597 0.0993757993 0.15494895
vt 0.837100029 0.796000004
vn -1 0 0
v -0.0395323597 0.207577243 -0.121960118
vt 0.596899986 0.909300029
vn -0.996754583 0.0774029998 -0.0221150859
v -0.0395323597 0.0721209943 0.0996216238
vt 0.788800001 0.772700012
vn -0.999867798 -0.0146054327 0.00714623657
v -0.0395323597 0.207577243 -0.121960118
vt 0.596899986 0.909300029
vn -0.996754583 0.0774029998 -0.0221150859
v -0.0395323597 0.0862932652 -0.116236627
vt 0.600899994 0.78640002
vn -1 0 0
v -0.0395323597 0.0347818546 0.0233081281
vt 0.722100019 0.74059999
vn -0.998416235 -0.0461995239 0.0321033654
v -0.0395323597 0.0721209943 0.0996216238
vt 0.788800001 0.772700012
vn -0.999867798 -0.0146054327 0.00714623657
v -0.0395323597 0.0862932652 -0.116236627
vt 0.600899994 0.78640002
vn -1 0 0
v -0.0395323597 0.0347818546 0.0233081281
vt 0.722100019 0.74059999
vn -0.998416235 -0.0461995239 0.0321033654
v -0.0395323597 0.0862932652 -0.116236627
vt 0.600899994 0.78640002
vn -1 0 0
v -0.0395323597 0.03559931 -0.0666328073
vt 0.643899977 0.741900027
vn -1 0 0
v -0.0395323597 0.207577243 -0.121960118
vt 0.596899986 0.909300029
vn -0.996754583 0.0774029998 -0.0221150859
v -0.0395323597 0.0862932652 -0.159026667
vt 0.56370002 0.786599994
vn -0.999777256 -0.0210126899 0.001976397
v -0.0395323597 0.0862932652 -0.116236627
vt 0.600899994 0.78640002
vn -1 0 0
v -0.0395323597 0.210030258 -0.269408792
vt 0.468400002 0.912400007
vn -0.960984791 0.276301053 0.0128824965
v -0.0395323597 0.0862932652 -0.159026667
vt 0.56370002 0.786599994
vn -0.999777256 -0.0210126899 0.001976397
v -0.0395323597 0.207577243 -0.121960118
vt 0.596899986 0.909300029
vn -0.996754583 0.0774029998 -0.0221150859
v -0.0395323597 0.210030258 -0.269408792
vt 0.468400002 0.912400007
vn -0.960984791 0.276301053 0.0128824965
v -0.0395323597 0.0759366602 -0.26913619
vt 0.467799991 0.778299987
vn -0.998794132 -0.0485744976 -0.00712737511
v -0.0395323597 0.0862932652 -0.159026667
vt 0.56370002 0.786599994
vn -0.999777256 -0.0210126899 0.001976397
v -0.0395323597 0.0759366602 -0.26913619
vt 0.467799991 0.778299987
vn -0.998794132 -0.0485744976 -0.00712737511
v -0.0395323597 0.210030258 -0.269408792
vt 0.468400002 0.912400007
vn -0.960984791 0.276301053 0.0128824965
v -0.0395323597 0.220932379 -0.313561618
vt 0.430200011 0.922200024
vn -0.982181599 0.187878675 0.00457275311
v -0.0395323597 0.220932379 -0.313561618
vt 0.430200011 0.922200024
vn -0.982181599 0.187878675 0.00457275311
v -0.0395323597 0.156610698 -0.738191843
vt 0.0599999987 0.851499975
vn -0.999018596 -0.0436517838 -0.00750777784
v -0.0395323597 0.0759366602 -0.26913619
vt 0.467799991 0.778299987
vn -0.998794132 -0.0485744976 -0.00712737511
v -0.0395323597 0.0759366602 -0.26913619
vt 0.467799991 0.778299987
vn -0.998794132 -0.0485744976 -0.00712737511
v -0.0395323597 0.156610698 -0.738191843
vt 0.0599999987 0.851499975
vn -0.999018596 -0.0436517838 -0.00750777784
v -0.0278127845 0.0759366602 -0.738464475
vt 0.0590999983 0.780499995
vn -0.989322182 -0.143636055 -0.024704319
v -0.0395323597 0.220932379 -0.313561618
vt 0.430200011 0.922200024
vn -0.982181599 0.187878675 0.00457275311
v -0.0395323597 0.211665496 -0.7403723
vt 0.0436000004 0.92750001
vn -0.81457594 0.580041895 -0.00417584004
v -0.0395323597 0.156610698 -0.738191843
vt 0.0599999987 0.851499975
vn -0.999018596 -0.0436517838 -0.00750777784
v -0.0395323597 0.0347818546 0.0233081281
vt 0.722100019 0.74059999
vn -0.998416235 -0.0461995239 0.0321033654
v -0.0283578802 -0.0262690261 0.155766606
vt 0.837199986 0.68629998
vn -0.996728253 -0.0663740728 0.0461223608
v -0.0395323597 0.0721209943 0.0996216238
vt 0.788800001 0.772700012
vn -0.999867798 -0.0146054327 0.00714623657
v -0.0395323597 0.0347818546 0.0233081281
vt 0.722100019 0.74059999
vn -0.998416235 -0.0461995239 0.0321033654
v -0.0283578802 -0.096313864 0.0775452554
vt 0.768599987 0.625899971
vn -0.997427748 -0.053398753 0.0478169573
v -0.0283578802 -0.0262690261 0.155766606
vt 0.837199986 0.68629998
vn -0.996728253 -0.0663740728 0.0461223608
v -0.0283578802 -0.096313864 0.0775452554
vt 0.768599987 0.625899971
vn -0.997427748 -0.053398753 0.0478169573
v -0.0283578802 -0.0895003378 0.117609859
vt 0.803600013 0.631500006
vn -1 0 0
v -0.0283578802 -0.0262690261 0.155766606
vt 0.837199986 0.68629998
vn -0.996728253 -0.0663740728 0.0461223608
v -0.000557952328 0.231561586 -0.269408792
vt 0.469500005 0.950500011
vn -0.481613583 0.871781151 0.089699393
v -0.0395323597 0.220932379 -0.313561618
vt 0.430200011 0.922200024
vn -0.982181599 0.187878675 0.00457275311
v -0.0395323597 0.210030258 -0.269408792
vt 0.468400002 0.912400007
vn -0.960984791 0.276301053 0.0128824965
v -0.000557952328 0.231561586 -0.269408792
vt 0.469500005 0.950500011
vn -0.481613583 0.871781151 0.089699393
v -0.000557952328 0.242463693 -0.313561618
vt 0.431100011 0.961899996
vn -0.575490571 0.81779793 0.00414116719
v -0.0395323597 0.220932379 -0.313561618
vt 0.430200011 0.922200024
vn -0.982181599 0.187878675 0.00457275311
v -0.000557952328 0.242463693 -0.313561618
vt 0.431100011 0.961899996
vn -0.575490571 0.81779793 0.00414116719
v -0.0395323597 0.211665496 -0.7403723
vt 0.0436000004 0.92750001
vn -0.81457594 0.580041895 -0.00417584004
v -0.0395323597 0.220932379 -0.313561618
vt 0.430200011 0.922200024
vn -0.982181599 0.187878675 0.00457275311
v -0.000557952328 0.229108557 -0.121960118
vt 0.588 0.949400008
vn -0.483511538 0.875216879 0.0145604972
v -0.000557952328 0.231561586 -0.269408792
vt 0.469500005 0.950500011
vn -0.481613583 0.871781151 0.089699393
v -0.0395323597 0.210030258 -0.269408792
vt 0.468400002 0.912400007
vn -0.960984791 0.276301053 0.0128824965
v -0.000557952328 0.229108557 -0.121960118
vt 0.588 0.949400008
vn -0.483511538 0.875216879 0.0145604972
v -0.0395323597 0.210030258 -0.269408792
vt 0.468400002 0.912400007
vn -0.960984791 0.276301053 0.0128824965
v -0.0395323597 0.207577243 -0.121960118
vt 0.596899986 0.909300029
vn -0.996754583 0.0774029998 -0.0221150859
v -0.000557952328 0.242463693 -0.313561618
vt 0.431100011 0.961899996
vn -0.575490571 0.81779793 0.00414116719
v -0.000557952328 0.245461568 -0.757542729
vt 0.0285 0.968100011
vn -0.653838342 0.756617025 0.00510887371
v -0.0395323597 0.211665496 -0.7403723
vt 0.0436000004 0.92750001
vn -0.81457594 0.580041895 -0.00417584004
v -0.0395323597 0.256363362 -0.10724251
vt 0.613799989 0.953800023
vn -0.981577423 0.184563004 -0.049419238
v -0.000557952328 0.229108557 -0.121960118
vt 0.588 0.949400008
vn -0.157564669 0.285212026 -0.945424495
v -0.0395323597 0.207577243 -0.121960118
vt 0.596899986 0.909300029
vn -0.996754583 0.0774029998 -0.0221150859
v -0.0395323597 0.256363362 -0.10724251
vt 0.613799989 0.953800023
vn -0.981577423 0.184563004 -0.049419238
v -0.000557952328 0.277894676 -0.10724251
vt 0.612399995 0.987500012
vn -0.482638051 0.873636059 -0.0618105818
v -0.000557952328 0.229108557 -0.121960118
vt 0.588 0.949400008
vn -0.157564669 0.285212026 -0.945424495
v -0.0395323597 0.256363362 0.227719337
vt 0.90109998 0.958100021
vn -0.931060171 0.36486567 6.00951828e-17
v -0.000557952328 0.277894676 -0.10724251
vt 0.612399995 0.987500012
vn -0.482638051 0.873636059 -0.0618105818
v -0.0395323597 0.256363362 -0.10724251
vt 0.613799989 0.953800023
vn -0.981577423 0.184563004 -0.049419238
v -0.0395323597 0.256363362 0.227719337
vt 0.90109998 0.958100021
vn -0.931060171 0.36486567 6.00951828e-17
v -0.000557952328 0.277894676 0.232625216
vt 0.90079999 0.988300025
vn -0.483562672 0.875309741 1.43288912e-16
v -0.000557952328 0.277894676 -0.10724251
vt 0.612399995 0.987500012
vn -0.482638051 0.873636059 -0.0618105818
v -0.000557952328 0.277894676 0.232625216
vt 0.945299983 0.988600016
vn 0 -0.222154968 0.975011369
v -0.0395323597 0.256363362 0.227719337
vt 0.910300016 0.969399989
vn 0 -0.409162824 0.912461387
v 0.0386890061 0.256363362 0.227719337
vt 0.980300009 0.969399989
vn 0 -0.398982539 0.916958523
v -0.0395323597 0.256363362 0.227719337
vt 0.910300016 0.969399989
vn 0 -0.409162824 0.912461387
v 0.0386890061 0.0993757993 0.15494895
vt 0.980300009 0.814400017
vn 0 -0.570851578 0.821053272
v 0.0386890061 0.256363362 0.227719337
vt 0.980300009 0.969399989
vn 0 -0.398982539 0.916958523
v -0.0395323597 0.256363362 0.227719337
vt 0.910300016 0.969399989
vn 0 -0.409162824 0.912461387
v -0.0395323597 0.0993757993 0.15494895
vt 0.910300016 0.814400017
vn 0 -0.570851578 0.821053272
v 0.0386890061 0.0993757993 0.15494895
vt 0.980300009 0.814400017
vn 0 -0.570851578 0.821053272
v -0.0395323597 0.0721209943 0.0996216238
vt 0.910300016 0.759299994
vn 0 -0.897063117 0.441902438
v 0.0386890061 0.0993757993 0.15494895
vt 0.980300009 0.814400017
vn 0 -0.570851578 0.821053272
v -0.0395323597 0.0993757993 0.15494895
vt 0.910300016 0.814400017
vn 0 -0.570851578 0.821053272
v -0.0395323597 0.0721209943 0.0996216238
vt 0.910300016 0.759299994
vn 0 -0.897063117 0.441902438
v 0.0386890061 0.0721209943 0.0996216238
vt 0.980300009 0.759299994
vn 0 -0.897063117 0.441902438
v 0.0386890061 0.0993757993 0.15494895
vt 0.980300009 0.814400017
vn 0 -0.570851578 0.821053272
v -0.0395323597 0.0347818546 0.0233081281
vt 0.498800009 0.589299977
vn 0 -0.38229536 -0.924040182
v 0.0386890061 0.0347818546 0.0233081281
vt 0.497599989 0.509800017
vn 0 -0.38229536 -0.924040182
v 0.0275145248 -0.096313864 0.0775452554
vt 0.641700029 0.518999994
vn 0 -0.483957784 -0.875091345
v -0.0395323597 0.0347818546 0.0233081281
vt 0.498800009 0.589299977
vn 0 -0.38229536 -0.924040182
v 0.0275145248 -0.096313864 0.0775452554
vt 0.641700029 0.518999994
vn 0 -0.483957784 -0.875091345
v -0.0283578802 -0.096313864 0.0775452554
vt 0.642499983 0.575600028
vn 0 -0.752859506 -0.658181255
v -0.0283578802 -0.096313864 0.0775452554
vt 0.642499983 0.575600028
vn 0 -0.752859506 -0.658181255
v 0.0275145248 -0.096313864 0.0775452554
vt 0.641700029 0.518999994
vn 0 -0.483957784 -0.875091345
v 0.0275145248 -0.0895003378 0.117609859
vt 0.683000028 0.518400013
vn 0 -0.838532705 0.544851267
v -0.0283578802 -0.096313864 0.0775452554
vt 0.642499983 0.575600028
vn 0 -0.752859506 -0.658181255
v 0.0275145248 -0.0895003378 0.117609859
vt 0.683000028 0.518400013
vn 0 -0.838532705 0.544851267
v -0.0283578802 -0.0895003378 0.117609859
vt 0.683799982 0.574999988
vn 0 -0.657740729 0.753244405
v -0.0283578802 -0.0895003378 0.117609859
vt 0.683799982 0.574999988
vn 0 -0.657740729 0.753244405
v 0.0275145248 -0.0895003378 0.117609859
vt 0.683000028 0.518400013
vn 0 -0.838532705 0.544851267
v 0.0275145248 -0.0262690261 0.155766606
vt 0.758000016 0.517199993
vn 0 -0.0893379165 0.996001374
v -0.0283578802 -0.0895003378 0.117609859
vt 0.683799982 0.574999988
vn 0 -0.657740729 0.753244405
v 0.0275145248 -0.0262690261 0.155766606
vt 0.758000016 0.517199993
vn 0 -0.0893379165 0.996001374
v -0.0283578802 -0.0262690261 0.155766606
vt 0.758899987 0.573800027
vn 0 0.307063515 0.951689024
v -0.0283578802 -0.0262690261 0.155766606
vt 0.758899987 0.573800027
vn 0 0.307063515 0.951689024
v 0.0275145248 -0.0262690261 0.155766606
vt 0.758000016 0.517199993
vn 0 -0.0893379165 0.996001374
v 0.0386890061 0.0721209943 0.0996216238
vt 0.872799993 0.504000008
vn 0 0.495620549 0.868539159
v -0.0283578802 -0.0262690261 0.155766606
vt 0.758899987 0.573800027
vn 0 0.307063515 0.951689024
v 0.0386890061 0.0721209943 0.0996216238
vt 0.872799993 0.504000008
vn 0 0.495620549 0.868539159
v -0.0395323597 0.0721209943 0.0996216238
vt 0.874000013 0.583500028
vn 0 0.495620549 0.868539159
v -0.0395323597 0.03559931 -0.0666328073
vt 0.643599987 0.692399979
vn 0 -0.974973741 -0.22232005
v 0.0386890061 0.03559931 -0.0666328073
vt 0.643599987 0.621900022
vn 0 -0.879778702 -0.475383461
v 0.0386890061 0.0347818546 0.0233081281
vt 0.724399984 0.621900022
vn 0 -0.999958699 -0.00908842661
v -0.0395323597 0.03559931 -0.0666328073
vt 0.643599987 0.692399979
vn 0 -0.974973741 -0.22232005
v 0.0386890061 0.0347818546 0.0233081281
vt 0.724399984 0.621900022
vn 0 -0.999958699 -0.00908842661
v -0.0395323597 0.0347818546 0.0233081281
vt 0.724399984 0.692399979
vn 0 -0.999958699 -0.00908842661
v -0.0395323597 0.0862932652 -0.116236627
vt 0.579699993 0.692399979
vn 0 -0.813839188 -0.581090161
v 0.0386890061 0.03559931 -0.0666328073
vt 0.643599987 0.621900022
vn 0 -0.879778702 -0.475383461
v -0.0395323597 0.03559931 -0.0666328073
vt 0.643599987 0.692399979
vn 0 -0.974973741 -0.22232005
v -0.0395323597 0.0862932652 -0.116236627
vt 0.579699993 0.692399979
vn 0 -0.813839188 -0.581090161
v 0.0386890061 0.0862932652 -0.116236627
vt 0.579699993 0.621900022
vn 0 -0.936329195 -0.351123396
v 0.0386890061 0.03559931 -0.0666328073
vt 0.643599987 0.621900022
vn 0 -0.879778702 -0.475383461
v -0.0395323597 0.0862932652 -0.159026667
vt 0.541199982 0.692399979
vn 0 -1 -3.24322849e-16
v 0.0386890061 0.0862932652 -0.116236627
vt 0.579699993 0.621900022
vn 0 -0.936329195 -0.351123396
v -0.0395323597 0.0862932652 -0.116236627
vt 0.579699993 0.692399979
vn 0 -0.813839188 -0.581090161
v -0.0395323597 0.0862932652 -0.159026667
vt 0.541199982 0.692399979
vn 0 -1 -3.24322849e-16
v 0.0386890061 0.0862932652 -0.159026667
vt 0.541199982 0.621900022
vn 0 -1 -3.24322849e-16
v 0.0386890061 0.0862932652 -0.116236627
vt 0.579699993 0.621900022
vn 0 -0.936329195 -0.351123396
v -0.0395323597 0.156610698 -0.738191843
vt 0.991299987 0.614400029
vn 0 -0.00893112826 -0.999960117
v 0.0386890061 0.156610698 -0.738191843
vt 0.891900003 0.614600003
vn 0 -0.0214239772 -0.99977048
v 0.0269694291 0.0759366602 -0.738464475
vt 0.906499982 0.512099981
vn 0 0.00337940306 -0.99999429
v -0.0395323597 0.156610698 -0.738191843
vt 0.991299987 0.614400029
vn 0 -0.00893112826 -0.999960117
v 0.0269694291 0.0759366602 -0.738464475
vt 0.906499982 0.512099981
vn 0 0.00337940306 -0.99999429
v -0.0278127845 0.0759366602 -0.738464475
vt 0.976100028 0.511900008
vn 0 0.00337940306 -0.99999429
v -0.0395323597 0.211665496 -0.7403723
vt 0.99150002 0.684000015
vn 0 -0.147974087 -0.988991238
v 0.0386890061 0.156610698 -0.738191843
vt 0.891900003 0.614600003
vn 0 -0.0214239772 -0.99977048
v -0.0395323597 0.156610698 -0.738191843
vt 0.991299987 0.614400029
vn 0 -0.00893112826 -0.999960117
v -0.0395323597 0.211665496 -0.7403723
vt 0.99150002 0.684000015
vn 0 -0.147974087 -0.988991238
v 0.0386890061 0.211665496 -0.7403723
vt 0.892099977 0.684300005
vn 0 -0.212802193 -0.977095301
v 0.0386890061 0.156610698 -0.738191843
vt 0.891900003 0.614600003
vn 0 -0.0214239772 -0.99977048
v 0.0386890061 0.211665496 -0.7403723
vt 0.892099977 0.684300005
vn 0 -0.212802193 -0.977095301
v -0.0395323597 0.211665496 -0.7403723
vt 0.99150002 0.684000015
vn 0 -0.147974087 -0.988991238
v -0.000557952328 0.245461568 -0.757542729
vt 0.941900015 0.732299984
vn 0 -0.452952907 -0.891534443
v -0.0278127845 0.0759366602 -0.738464475
vt 0.0138999997 0.644900024
vn 0 -1 -2.36555746e-16
v 0.0269694291 0.0759366602 -0.738464475
vt 0.0138999997 0.593800008
vn 0 -1 -2.36555746e-16
v 0.0386890061 0.0759366602 -0.26913619
vt 0.267800003 0.587100029
vn 0 -1 -2.36555746e-16
v -0.0278127845 0.0759366602 -0.738464475
vt 0.0138999997 0.644900024
vn 0 -1 -2.36555746e-16
v 0.0386890061 0.0759366602 -0.26913619
vt 0.267800003 0.587100029
vn 0 -1 -2.36555746e-16
v -0.0395323597 0.0759366602 -0.26913619
vt 0.267800003 0.660000026
vn 0 -1 -2.36555746e-16
v 0.0386890061 0.256363362 -0.10724251
vt 0.613799989 0.953800023
vn 0.981326058 0.185806074 -0.0497520867
v 0.0386890061 0.256363362 0.227719337
vt 0.90109998 0.958100021
vn 0.930191571 0.367074435 6.02488113e-17
v 0.0386890061 0.0993757993 0.15494895
vt 0.837100029 0.796000004
vn 1 0 0
v 0.0386890061 0.256363362 -0.10724251
vt 0.613799989 0.953800023
vn 0.981326058 0.185806074 -0.0497520867
v 0.0386890061 0.0993757993 0.15494895
vt 0.837100029 0.796000004
vn 1 0 0
v 0.0386890061 0.207577243 -0.121960118
vt 0.596899986 0.909300029
vn 0.996709258 0.0779407407 -0.0222687258
v 0.0386890061 0.207577243 -0.121960118
vt 0.596899986 0.909300029
vn 0.996709258 0.0779407407 -0.0222687258
v 0.0386890061 0.0993757993 0.15494895
vt 0.837100029 0.796000004
vn 1 0 0
v 0.0386890061 0.0721209943 0.0996216238
vt 0.788800001 0.772700012
vn 0.999867798 -0.0146054352 0.00714623776
v 0.0386890061 0.207577243 -0.121960118
vt 0.596899986 0.909300029
vn 0.996709258 0.0779407407 -0.0222687258
v 0.0386890061 0.0721209943 0.0996216238
vt 0.788800001 0.772700012
vn 0.999867798 -0.0146054352 0.00714623776
v 0.0386890061 0.0862932652 -0.116236627
vt 0.600899994 0.78640002
vn 1 0 0
v 0.0386890061 0.0862932652 -0.116236627
vt 0.600899994 0.78640002
vn 1 0 0
v 0.0386890061 0.0721209943 0.0996216238
vt 0.788800001 0.772700012
vn 0.999867798 -0.0146054352 0.00714623776
v 0.0386890061 0.0347818546 0.0233081281
vt 0.722100019 0.74059999
vn 0.998416234 -0.0461995316 0.0321033707
v 0.0386890061 0.0862932652 -0.116236627
vt 0.600899994 0.78640002
vn 1 0 0
v 0.0386890061 0.0347818546 0.0233081281
vt 0.722100019 0.74059999
vn 0.998416234 -0.0461995316 0.0321033707
v 0.0386890061 0.03559931 -0.0666328073
vt 0.643899977 0.741900027
vn 1 0 0
v 0.0386890061 0.207577243 -0.121960118
vt 0.596899986 0.909300029
vn 0.996709258 0.0779407407 -0.0222687258
v 0.0386890061 0.0862932652 -0.116236627
vt 0.600899994 0.78640002
vn 1 0 0
v 0.0386890061 0.0862932652 -0.159026667
vt 0.56370002 0.786599994
vn 0.999777255 -0.0210126934 0.00197639733
v 0.0386890061 0.0862932652 -0.159026667
vt 0.56370002 0.786599994
vn 0.999777255 -0.0210126934 0.00197639733
v 0.0386890061 0.210030258 -0.269408792
vt 0.468400002 0.912400007
vn 0.960469255 0.278083985 0.0129656254
v 0.0386890061 0.207577243 -0.121960118
vt 0.596899986 0.909300029
vn 0.996709258 0.0779407407 -0.0222687258
v 0.0386890061 0.0862932652 -0.159026667
vt 0.56370002 0.786599994
vn 0.999777255 -0.0210126934 0.00197639733
v 0.0386890061 0.0759366602 -0.26913619
vt 0.467799991 0.778299987
vn 0.998794132 -0.0485745054 -0.00712737625
v 0.0386890061 0.210030258 -0.269408792
vt 0.468400002 0.912400007
vn 0.960469255 0.278083985 0.0129656254
v 0.0386890061 0.0759366602 -0.26913619
vt 0.467799991 0.778299987
vn 0.998794132 -0.0485745054 -0.00712737625
v 0.0386890061 0.220932379 -0.313561618
vt 0.430200011 0.922200024
vn 0.981938252 0.18914565 0.00460358985
v 0.0386890061 0.210030258 -0.269408792
vt 0.468400002 0.912400007
vn 0.960469255 0.278083985 0.0129656254
v 0.0386890061 0.156610698 -0.738191843
vt 0.0599999987 0.851499975
vn 0.999018596 -0.0436517907 -0.00750777903
v 0.0386890061 0.220932379 -0.313561618
vt 0.430200011 0.922200024
vn 0.981938252 0.18914565 0.00460358985
v 0.0386890061 0.0759366602 -0.26913619
vt 0.467799991 0.778299987
vn 0.998794132 -0.0485745054 -0.00712737625
v 0.0386890061 0.0759366602 -0.26913619
vt 0.467799991 0.778299987
vn 0.998794132 -0.0485745054 -0.00712737625
v 0.0269694291 0.0759366602 -0.738464475
vt 0.0590999983 0.780499995
vn 0.989322179 -0.143636078 -0.0247043229
v 0.0386890061 0.156610698 -0.738191843
vt 0.0599999987 0.851499975
vn 0.999018596 -0.0436517907 -0.00750777903
v 0.0386890061 0.156610698 -0.738191843
vt 0.0599999987 0.851499975
vn 0.999018596 -0.0436517907 -0.00750777903
v 0.0386890061 0.211665496 -0.7403723
vt 0.0436000004 0.92750001
vn 0.812659381 0.582723889 -0.00419514826
v 0.0386890061 0.220932379 -0.313561618
vt 0.430200011 0.922200024
vn 0.981938252 0.18914565 0.00460358985
v 0.0275145248 -0.0262690261 0.155766606
vt 0.837199986 0.68629998
vn 0.996728252 -0.0663740838 0.0461223685
v 0.0386890061 0.0347818546 0.0233081281
vt 0.722100019 0.74059999
vn 0.998416234 -0.0461995316 0.0321033707
v 0.0386890061 0.0721209943 0.0996216238
vt 0.788800001 0.772700012
vn 0.999867798 -0.0146054352 0.00714623776
v 0.0275145248 -0.0262690261 0.155766606
vt 0.837199986 0.68629998
vn 0.996728252 -0.0663740838 0.0461223685
v 0.0275145248 -0.096313864 0.0775452554
vt 0.768599987 0.625899971
vn 0.997427747 -0.0533987619 0.0478169653
v 0.0386890061 0.0347818546 0.0233081281
vt 0.722100019 0.74059999
vn 0.998416234 -0.0461995316 0.0321033707
v 0.0275145248 -0.096313864 0.0775452554
vt 0.768599987 0.625899971
vn 0.997427747 -0.0533987619 0.0478169653
v 0.0275145248 -0.0262690261 0.155766606
vt 0.837199986 0.68629998
vn 0.996728252 -0.0663740838 0.0461223685
v 0.0275145248 -0.0895003378 0.117609859
vt 0.803600013 0.631500006
vn 1 0 0
v -0.000557952328 0.242463693 -0.313561618
vt 0.431100011 0.961899996
vn 0.572808432 0.819678762 0.00415069135
v 0.0386890061 0.220932379 -0.313561618
vt 0.430200011 0.922200024
vn 0.981938252 0.18914565 0.00460358985
v 0.0386890061 0.211665496 -0.7403723
vt 0.0436000004 0.92750001
vn 0.812659381 0.582723889 -0.00419514826
v -0.000557952328 0.242463693 -0.313561618
vt 0.431100011 0.961899996
vn 0.572808432 0.819678762 0.00415069135
v 0.0386890061 0.211665496 -0.7403723
vt 0.0436000004 0.92750001
vn 0.812659381 0.582723889 -0.00419514826
v -0.000557952328 0.245461568 -0.757542729
vt 0.0285 0.968100011
vn 0.651227269 0.758865462 0.00512405573
v -0.000557952328 0.231561586 -0.269408792
vt 0.469500005 0.950500011
vn 0.47903858 0.873183912 0.089843726
v 0.0386890061 0.210030258 -0.269408792
vt 0.468400002 0.912400007
vn 0.960469255 0.278083985 0.0129656254
v 0.0386890061 0.220932379 -0.313561618
vt 0.430200011 0.922200024
vn 0.981938252 0.18914565 0.00460358985
v -0.000557952328 0.231561586 -0.269408792
vt 0.469500005 0.950500011
vn 0.47903858 0.873183912 0.089843726
v 0.0386890061 0.220932379 -0.313561618
vt 0.430200011 0.922200024
vn 0.981938252 0.18914565 0.00460358985
v -0.000557952328 0.242463693 -0.313561618
vt 0.431100011 0.961899996
vn 0.572808432 0.819678762 0.00415069135
v -0.000557952328 0.229108557 -0.121960118
vt 0.588 0.949400008
vn 0.480932504 0.876636316 0.0145841116
v 0.0386890061 0.210030258 -0.269408792
vt 0.468400002 0.912400007
vn 0.960469255 0.278083985 0.0129656254
v -0.000557952328 0.231561586 -0.269408792
vt 0.469500005 0.950500011
vn 0.47903858 0.873183912 0.089843726
v -0.000557952328 0.229108557 -0.121960118
vt 0.588 0.949400008
vn 0.480932504 0.876636316 0.0145841116
v 0.0386890061 0.207577243 -0.121960118
vt 0.596899986 0.909300029
vn 0.996709258 0.0779407407 -0.0222687258
v 0.0386890061 0.210030258 -0.269408792
vt 0.468400002 0.912400007
vn 0.960469255 0.278083985 0.0129656254
v -0.000557952328 0.229108557 -0.121960118
vt 0.588 0.949400008
vn 0.156497349 0.285261041 -0.94558697
v 0.0386890061 0.256363362 -0.10724251
vt 0.613799989 0.953800023
vn 0.981326058 0.185806074 -0.0497520867
v 0.0386890061 0.207577243 -0.121960118
vt 0.596899986 0.909300029
vn 0.996709258 0.0779407407 -0.0222687258
v -0.000557952328 0.229108557 -0.121960118
vt 0.588 0.949400008
vn 0.156497349 0.285261041 -0.94558697
v -0.000557952328 0.277894676 -0.10724251
vt 0.612399995 0.987500012
vn 0.480060864 0.875047805 -0.0619104642
v 0.0386890061 0.256363362 -0.10724251
vt 0.613799989 0.953800023
vn 0.981326058 0.185806074 -0.0497520867
v -0.000557952328 0.277894676 -0.10724251
vt 0.612399995 0.987500012
vn 0.480060864 0.875047805 -0.0619104642
v 0.0386890061 0.256363362 0.227719337
vt 0.90109998 0.958100021
vn 0.930191571 0.367074435 6.02488113e-17
v 0.0386890061 0.256363362 -0.10724251
vt 0.613799989 0.953800023
vn 0.981326058 0.185806074 -0.0497520867
v -0.000557952328 0.277894676 -0.10724251
vt 0.612399995 0.987500012
vn 0.480060864 0.875047805 -0.0619104642
v -0.000557952328 0.277894676 0.232625216
vt 0.90079999 0.988300025
vn 0.480983531 0.876729629 1.43197683e-16
v 0.0386890061 0.256363362 0.227719337
vt 0.90109998 0.958100021
vn 0.930191571 0.367074435 6.02488113e-17
usemtl MS06-Newlambert6
f 1/1/1 2/2/2 3/3/3
f 4/4/4 5/5/5 6/6/6
f 7/7/7 8/8/8 9/9/9
f 10/10/10 11/11/11 12/12/12
f 13/13/13 14/14/14 15/15/15
f 16/16/16 17/17/17 18/18/18
f 19/19/19 20/20/20 21/21/21
f 22/22/22 23/23/23 24/24/24
f 25/25/25 26/26/26 27/27/27
f 28/28/28 29/29/29 30/30/30
f 31/31/31 32/32/32 33/33/33
f 34/34/34 35/35/35 36/36/36
f 37/37/37 38/38/38 39/39/39
f 40/40/40 41/41/41 42/42/42
f 43/43/43 44/44/44 45/45/45
f 46/46/46 47/47/47 48/48/48
f 49/49/49 50/50/50 51/51/51
f 52/52/52 53/53/53 54/54/54
f 55/55/55 56/56/56 57/57/57
f 58/58/58 59/59/59 60/60/60
f 61/61/61 62/62/62 63/63/63
f 64/64/64 65/65/65 66/66/66
f 67/67/67 68/68/68 69/69/69
f 70/70/70 71/71/71 72/72/72
f 73/73/73 74/74/74 75/75/75
f 76/76/76 77/77/77 78/78/78
f 79/79/79 80/80/80 81/81/81
f 82/82/82 83/83/83 84/84/84
f 85/85/85 86/86/86 87/87/87
f 88/88/88 89/89/89 90/90/90
f 91/91/91 92/92/92 93/93/93
f 94/94/94 95/95/95 96/96/96
f 97/97/97 98/98/98 99/99/99
f 100/100/100 101/101/101 102/102/102
f 103/103/103 104/104/104 105/105/105
f 106/106/106 107/107/107 108/108/108
f 109/109/109 110/110/110 111/111/111
f 112/112/112 113/113/113 114/114/114
f 115/115/115 116/116/116 117/117/117
f 118/118/118 119/119/119 120/120/120
f 121/121/121 122/122/122 123/123/123
f 124/124/124 125/125/125 126/126/126
f 127/127/127 128/128/128 129/129/129
f 130/130/130 131/131/131 132/132/132
f 133/133/133 134/134/134 135/135/135
f 136/136/136 137/137/137 138/138/138
f 139/139/139 140/140/140 141/141/141
f 142/142/142 143/143/143 144/144/144
f 145/145/145 146/146/146 147/147/147
f 148/148/148 149/149/149 150/150/150
f 151/151/151 152/152/152 153/153/153
f 154/154/154 155/155/155 156/156/156
f 157/157/157 158/158/158 159/159/159
f 160/160/160 161/161/161 162/162/162
f 163/163/163 164/164/164 165/165/165
f 166/166/166 167/167/167 168/168/168
f 169/169/169 170/170/170 171/171/171
f 172/172/172 173/173/173 174/174/174
f 175/175/175 176/176/176 177/177/177
f 178/178/178 179/179/179 180/180/180
f 181/181/181 182/182/182 183/183/183
f 184/184/184 185/185/185 186/186/186
f 187/187/187 188/188/188 189/189/189
f 190/190/190 191/191/191 192/192/192
f 193/193/193 194/194/194 195/195/195
f 196/196/196 197/197/197 198/198/198
f 199/199/199 200/200/200 201/201/201
f 202/202/202 203/203/203 204/204/204
f 205/205/205 206/206/206 207/207/207
f 208/208/208 209/209/209 210/210/210
f 211/211/211 212/212/212 213/213/213
f 214/214/214 215/215/215 216/216/216
f 217/217/217 218/218/218 219/219/219
f 220/220/220 221/221/221 222/222/222
f 223/223/223 224/224/224 225/225/225
f 226/226/226 227/227/227 228/228/228
f 229/229/229 230/230/230 231/231/231
f 232/232/232 233/233/233 234/234/234
f 235/235/235 236/236/236 237/237/237
f 238/238/238 239/239/239 240/240/240
f 241/241/241 242/242/242 243/243/243
f 244/244/244 245/245/245 246/246/246
f 247/247/247 248/248/248 249/249/249
f 250/250/250 251/251/251 252/252/252
f 253/253/253 254/254/254 255/255/255
f 256/256/256 257/257/257 258/258/258
f 259/259/259 260/260/260 261/261/261
f 262/262/262 263/263/263 264/264/264
