# Generated from legacy Unity YAML Mesh assets without Unity.
mtllib gun07.mtl

o gun07
v -0.0119921258 0.230820179 -0.64097327
v -0.00953919254 0.251534045 -0.194811627
v -0.0119921258 0.230820179 -0.202988133
v -0.00953919254 0.251534045 -0.685126066
v -0.0119921258 0.221553624 -0.181729257
v -0.0119921258 0.230820179 -0.698208392
v -0.0119921258 0.205473199 -0.668773174
v -0.0119921258 0.205473199 -0.698208392
v 0.00844899658 0.251534045 -0.685126066
v 0.00844899658 0.251534045 -0.194811627
v 0.0111744795 0.221553624 -0.181729257
v 0.0111744795 0.230820179 -0.698208392
v 0.0111744795 0.205473199 -0.698208392
v -0.0119921258 0.205473199 -0.698208392
v -0.0119921258 0.221553624 -0.181729257
v -0.0119921258 0.221553624 -0.199717492
v 0.00844899658 0.251534045 -0.194811627
v 0.0111744795 0.230820179 -0.64097327
v 0.0111744795 0.230820179 -0.202988133
v 0.00844899658 0.251534045 -0.685126066
v 0.0111744795 0.221553624 -0.181729257
v 0.0111744795 0.221553624 -0.199717492
v 0.0111744795 0.230820179 -0.698208392
v 0.0111744795 0.205473199 -0.668773174
v 0.0111744795 0.205473199 -0.698208392
v 0.0111744795 0.230820179 -0.202988133
v -0.0119921258 0.230820179 -0.64097327
v -0.0119921258 0.230820179 -0.202988133
v 0.0111744795 0.230820179 -0.64097327
v 0.0111744795 0.221553624 -0.199717492
v -0.0119921258 0.221553624 -0.199717492
v -0.0119921258 0.205473199 -0.668773174
v 0.0111744795 0.205473199 -0.668773174
v -0.0166254491 0.172494903 -0.278756469
v -0.0179881882 0.208198816 -0.712380946
v -0.0179881882 0.208198816 -0.278756469
v -0.0166254491 0.172494903 -0.712380946
v 0.0155352531 0.172494903 -0.278756469
v 0.0155352531 0.172494903 -0.712380946
v 0.016897995 0.208198816 -0.712380946
v 0.016897995 0.208198816 -0.278756469
v 0.016897995 0.208198816 -0.712380946
v 0.0155352531 0.172494903 -0.278756469
v 0.016897995 0.208198816 -0.278756469
v 0.0155352531 0.172494903 -0.712380946
v 0.0155352531 0.172494903 -0.712380946
v -0.0179881882 0.208198816 -0.712380946
v -0.0166254491 0.172494903 -0.712380946
v 0.016897995 0.208198816 -0.712380946
v -0.0209862199 0.116350055 -0.28502515
v -0.0245293472 0.165681362 -0.705022097
v -0.0245293472 0.165681362 -0.28502515
v -0.0209862199 0.116350055 -0.705022097
v 0.019623477 0.116350055 -0.28502515
v 0.019623477 0.116350055 -0.705022097
v 0.0231666062 0.165681362 -0.705022097
v 0.0231666062 0.165681362 -0.28502515
v 0.0231666062 0.165681362 -0.705022097
v 0.019623477 0.116350055 -0.28502515
v 0.0231666062 0.165681362 -0.28502515
v 0.019623477 0.116350055 -0.705022097
v 0.019623477 0.116350055 -0.705022097
v -0.0245293472 0.165681362 -0.705022097
v -0.0209862199 0.116350055 -0.705022097
v 0.0231666062 0.165681362 -0.705022097
v 0.0155352531 0.243630126 -0.174370527
v -0.0158078056 0.304135799 -0.163195968
v -0.0158078056 0.243630126 -0.174370527
v 0.0155352531 0.304135799 -0.163195968
v -0.0158078056 0.304135799 -0.163195968
v -0.0158078056 0.243902713 -0.152294025
v -0.0158078056 0.243630126 -0.174370527
v -0.0158078056 0.299502373 -0.141937256
v 0.0155352531 0.304135799 -0.163195968
v 0.0155352531 0.299502373 -0.141937256
v 0.0155352531 0.299502373 -0.141937256
v 0.0155352531 0.243902713 -0.152294025
v -0.0158078056 0.299502373 -0.141937256
v 0.0155352531 0.243902713 -0.152294025
v 0.0155352531 0.304135799 -0.163195968
v 0.0155352531 0.243630126 -0.174370527
v 0.0155352531 0.299502373 -0.141937256
v 0.0294352174 0.104630485 -0.649422228
v -0.0376116708 0.172222316 -0.649422228
v -0.030797964 0.104630485 -0.649422228
v 0.0362489261 0.172222316 -0.649422228
v -0.030797964 0.104630485 -0.649422228
v -0.0376116708 0.172222316 -0.634159565
v -0.030797964 0.104630485 -0.634159565
v -0.0376116708 0.172222316 -0.649422228
v 0.0294352174 0.104630485 -0.634159565
v 0.0294352174 0.104630485 -0.649422228
v -0.030797964 0.104630485 -0.634159565
v 0.0362489261 0.172222316 -0.634159565
v 0.0294352174 0.104630485 -0.634159565
v -0.0376116708 0.172222316 -0.634159565
v 0.0294352174 0.104630485 -0.634159565
v 0.0362489261 0.172222316 -0.649422228
v 0.0294352174 0.104630485 -0.649422228
v 0.0362489261 0.172222316 -0.634159565
v 0.0362489261 0.172222316 -0.649422228
v -0.0376116708 0.172222316 -0.634159565
v -0.0376116708 0.172222316 -0.649422228
v 0.0362489261 0.172222316 -0.634159565
v 0.00981173757 0.206835836 -0.353979856
v -0.0106293866 0.222643673 -0.353979856
v -0.0106293866 0.206835836 -0.353979856
v 0.00981173757 0.222643673 -0.353979856
v -0.0106293866 0.206835836 -0.353979856
v -0.0106293866 0.222643673 -0.313370168
v -0.0106293866 0.206835836 -0.313370168
v -0.0106293866 0.222643673 -0.353979856
v 0.00981173757 0.222643673 -0.353979856
v 0.00981173757 0.222643673 -0.313370168
v 0.00981173757 0.206835836 -0.313370168
v 0.00981173757 0.206835836 -0.353979856
v -0.0106293866 0.206835836 -0.313370168
v 0.00981173757 0.222643673 -0.313370168
v 0.00981173757 0.206835836 -0.313370168
v -0.0106293866 0.222643673 -0.313370168
v -0.0348861851 0.229730129 -0.0607178584
v -0.0286175758 0.231365368 0.0736484975
v -0.0348861851 0.132702738 0.10744442
v -0.0226215124 0.187757552 0.137697265
v -0.0297077671 0.134610578 0.131428763
v -0.0212587677 0.145240098 0.23254405
v -0.0212587677 0.173040092 0.23254405
v -0.0348861851 0.0986343995 0.0771915615
v -0.0348861851 0.110898837 -0.167011634
v -0.0264371876 0.0588422418 -0.00947871804
v -0.0264371876 0.0618404448 -0.125584394
v -0.0348861851 0.0645657331 0.0673798323
v -0.0264371876 -0.100053474 0.129248336
v -0.0348861851 -0.0618965477 0.181577519
v -0.0348861851 -0.0896965414 0.187846199
v -0.0264371876 -0.145296365 0.123252228
v -0.0264371876 -0.133849397 0.112895474
v -0.0348861851 0.10762836 -0.292656481
v -0.0348861851 0.19375363 -0.292656481
v -0.0348861851 0.223734051 -0.182819456
v -0.0348861851 0.222643673 -0.274123192
v -0.0264371876 0.247990653 -0.0825217664
v -0.0264371876 0.246628001 -0.182819456
v 0.0343410857 0.229730129 -0.0607178584
v -0.0286175758 0.231365368 0.0736484975
v -0.0348861851 0.229730129 -0.0607178584
v 0.0280724745 0.231365368 0.0736484975
v -0.0226215124 0.187757552 0.137697265
v 0.0220764112 0.187757552 0.137697265
v -0.0212587677 0.173040092 0.23254405
v 0.0209862199 0.173040092 0.23254405
v 0.0209862199 0.145240098 0.23254405
v -0.0297077671 0.134610578 0.131428763
v -0.0212587677 0.145240098 0.23254405
v 0.0291626696 0.134610578 0.131428763
v -0.0348861851 0.132702738 0.10744442
v 0.0343410857 0.132702738 0.10744442
v -0.0348861851 0.0986343995 0.0771915615
v 0.0343410857 0.0986343995 0.0771915615
v -0.0348861851 0.0645657331 0.0673798323
v 0.0343410857 0.0645657331 0.0673798323
v -0.0348861851 -0.0618965477 0.181577519
v 0.0343410857 -0.0618965477 0.181577519
v -0.0348861851 -0.0896965414 0.187846199
v 0.0343410857 -0.0896965414 0.187846199
v 0.0343410857 0.110898837 -0.167011634
v -0.0348861851 0.10762836 -0.292656481
v -0.0348861851 0.110898837 -0.167011634
v 0.0343410857 0.10762836 -0.292656481
v 0.0258920901 0.0618404448 -0.125584394
v -0.0264371876 0.0618404448 -0.125584394
v 0.0258920901 0.0588422418 -0.00947871804
v -0.0264371876 0.0588422418 -0.00947871804
v 0.0343410857 0.10762836 -0.292656481
v -0.0348861851 0.19375363 -0.292656481
v -0.0348861851 0.10762836 -0.292656481
v 0.0343410857 0.19375363 -0.292656481
v -0.0348861851 0.222643673 -0.274123192
v 0.0343410857 0.222643673 -0.274123192
v 0.0343410857 0.222643673 -0.274123192
v -0.0348861851 0.223734051 -0.182819456
v -0.0348861851 0.222643673 -0.274123192
v 0.0343410857 0.223734051 -0.182819456
v 0.0258920901 0.247990653 -0.0825217664
v -0.0348861851 0.229730129 -0.0607178584
v -0.0264371876 0.247990653 -0.0825217664
v 0.0343410857 0.229730129 -0.0607178584
v 0.0258920901 0.246628001 -0.182819456
v -0.0264371876 0.246628001 -0.182819456
v 0.0343410857 0.223734051 -0.182819456
v -0.0264371876 0.246628001 -0.182819456
v -0.0348861851 0.223734051 -0.182819456
v 0.0258920901 0.246628001 -0.182819456
v 0.0258920901 -0.100053474 0.129248336
v -0.0264371876 0.0588422418 -0.00947871804
v -0.0264371876 -0.100053474 0.129248336
v 0.0258920901 0.0588422418 -0.00947871804
v 0.0258920901 -0.133849397 0.112895474
v -0.0264371876 -0.133849397 0.112895474
v 0.0258920901 -0.145296365 0.123252228
v -0.0264371876 -0.145296365 0.123252228
v 0.0343410857 -0.0896965414 0.187846199
v -0.0264371876 -0.145296365 0.123252228
v -0.0348861851 -0.0896965414 0.187846199
v 0.0258920901 -0.145296365 0.123252228
v 0.0343410857 0.229730129 -0.0607178584
v 0.0343410857 0.132702738 0.10744442
v 0.0280724745 0.231365368 0.0736484975
v 0.0220764112 0.187757552 0.137697265
v 0.0291626696 0.134610578 0.131428763
v 0.0209862199 0.145240098 0.23254405
v 0.0209862199 0.173040092 0.23254405
v 0.0343410857 0.0986343995 0.0771915615
v 0.0343410857 0.110898837 -0.167011634
v 0.0258920901 0.0588422418 -0.00947871804
v 0.0258920901 0.0618404448 -0.125584394
v 0.0343410857 0.0645657331 0.0673798323
v 0.0258920901 -0.100053474 0.129248336
v 0.0343410857 -0.0618965477 0.181577519
v 0.0343410857 -0.0896965414 0.187846199
v 0.0258920901 -0.145296365 0.123252228
v 0.0258920901 -0.133849397 0.112895474
v 0.0343410857 0.10762836 -0.292656481
v 0.0343410857 0.19375363 -0.292656481
v 0.0343410857 0.223734051 -0.182819456
v 0.0343410857 0.222643673 -0.274123192
v 0.0258920901 0.247990653 -0.0825217664
v 0.0258920901 0.246628001 -0.182819456
v -0.0280724801 0.10490308 -0.382597387
v -0.0397920571 0.139516607 -0.613990963
v -0.0397920571 0.139516607 -0.382597387
v -0.0280724801 0.10490308 -0.613990963
v 0.0267097354 0.10490308 -0.382597387
v 0.0267097354 0.10490308 -0.613990963
v -0.0280724801 0.173584953 -0.613990963
v -0.0280724801 0.173584953 -0.382597387
v 0.0267097354 0.173584953 -0.613990963
v 0.0267097354 0.173584953 -0.382597387
v 0.0384293124 0.139516607 -0.382597387
v -0.0280724801 0.10490308 -0.382597387
v -0.0397920571 0.139516607 -0.382597387
v 0.0267097354 0.10490308 -0.382597387
v -0.0280724801 0.173584953 -0.382597387
v 0.0267097354 0.173584953 -0.382597387
v 0.0267097354 0.10490308 -0.613990963
v -0.0397920571 0.139516607 -0.613990963
v -0.0280724801 0.10490308 -0.613990963
v 0.0384293124 0.139516607 -0.613990963
v -0.0280724801 0.173584953 -0.613990963
v 0.0267097354 0.173584953 -0.613990963
v 0.0384293124 0.139516607 -0.613990963
v 0.0267097354 0.10490308 -0.382597387
v 0.0384293124 0.139516607 -0.382597387
v 0.0267097354 0.10490308 -0.613990963
v 0.0267097354 0.173584953 -0.382597387
v 0.0267097354 0.173584953 -0.613990963
v -0.0269822832 0.153144002 0.210740313
v -0.0171705447 0.246355414 0.115348324
v -0.0340685435 0.148783162 0.380265355
v -0.0171705447 0.238451496 0.105809182
v -0.0340685435 0.152053639 0.438045621
v -0.0340685435 0.142241895 0.402614295
v -0.0280724801 0.0691991746 0.377812386
v -0.0324332491 0.00951093435 0.372906506
v -0.0419724397 -0.0886063427 0.426053464
v -0.0248019006 0.0610226654 0.345651686
v -0.0258920919 0.10490308 0.331751704
v -0.0209862199 0.0877322853 0.312400818
v -0.0354312807 -0.064076975 0.359551668
v -0.0223489646 0.120165721 0.210467711
v 0.0171705429 0.238451496 0.105809182
v -0.0171705447 0.246355414 0.115348324
v -0.0171705447 0.238451496 0.105809182
v 0.0171705429 0.246355414 0.115348324
v -0.0340685435 0.152053639 0.438045621
v 0.034068536 0.152053639 0.438045621
v -0.0419724397 -0.0886063427 0.426053464
v 0.0419724397 -0.0886063427 0.426053464
v 0.0269822832 0.153144002 0.210740313
v -0.0171705447 0.238451496 0.105809182
v -0.0269822832 0.153144002 0.210740313
v 0.0171705429 0.238451496 0.105809182
v 0.022348959 0.120165721 0.210467711
v -0.0223489646 0.120165721 0.210467711
v 0.0258920901 0.10490308 0.331751704
v -0.0280724801 0.0691991746 0.377812386
v -0.0258920919 0.10490308 0.331751704
v 0.0280724745 0.0691991746 0.377812386
v 0.034068536 0.148783162 0.380265355
v -0.0340685435 0.148783162 0.380265355
v 0.034068536 0.142241895 0.402614295
v -0.0340685435 0.142241895 0.402614295
v 0.0280724745 0.0691991746 0.377812386
v -0.0280724801 0.0691991746 0.377812386
v 0.024801895 0.0610226654 0.345651686
v -0.0209862199 0.0877322853 0.312400818
v -0.0248019006 0.0610226654 0.345651686
v 0.0209862199 0.0877322853 0.312400818
v 0.0324332491 0.00951093435 0.372906506
v -0.0324332491 0.00951093435 0.372906506
v 0.035158731 -0.064076975 0.359551668
v -0.0354312807 -0.064076975 0.359551668
v -0.0223489646 0.120165721 0.210467711
v 0.022348959 0.120165721 0.210467711
v 0.0419724397 -0.0886063427 0.426053464
v -0.0354312807 -0.064076975 0.359551668
v -0.0419724397 -0.0886063427 0.426053464
v 0.035158731 -0.064076975 0.359551668
v 0.0269822832 0.153144002 0.210740313
v 0.0171705429 0.246355414 0.115348324
v 0.0171705429 0.238451496 0.105809182
v 0.034068536 0.148783162 0.380265355
v 0.034068536 0.152053639 0.438045621
v 0.034068536 0.142241895 0.402614295
v 0.0280724745 0.0691991746 0.377812386
v 0.0324332491 0.00951093435 0.372906506
v 0.0419724397 -0.0886063427 0.426053464
v 0.024801895 0.0610226654 0.345651686
v 0.0258920901 0.10490308 0.331751704
v 0.0209862199 0.0877322853 0.312400818
v 0.035158731 -0.064076975 0.359551668
v 0.022348959 0.120165721 0.210467711
vt 0.611199975 0.0340999998
vt 0.961199999 0.0623000003
vt 0.958400011 0.0326000005
vt 0.575999975 0.0626000017
vt 0.979200006 0.0247000009
vt 0.565599978 0.0401999988
vt 0.589399993 0.0124000004
vt 0.564999998 0.0137
vt 0.57190001 0.0854000002
vt 0.960900009 0.0847999975
vt 0.992999971 0.0403999984
vt 0.548099995 0.0513000004
vt 0.543600023 0.0208000001
vt 0.564999998 0.0137
vt 0.979200006 0.0247000009
vt 0.961099982 0.0286999997
vt 0.961199999 0.0623000003
vt 0.611199975 0.0340999998
vt 0.958400011 0.0326000005
vt 0.575999975 0.0626000017
vt 0.979200006 0.0247000009
vt 0.961099982 0.0286999997
vt 0.565599978 0.0401999988
vt 0.589399993 0.0124000004
vt 0.564999998 0.0137
vt 0.86589998 0.0046000001
vt 0.678499997 0.0348000005
vt 0.86589998 0.0348000005
vt 0.678499997 0.0046000001
vt 0.939300001 0.0046000001
vt 0.939300001 0.0348000005
vt 0.617500007 0.0348000005
vt 0.617500007 0.0046000001
vt 0.319200009 0.413599998
vt 0.0425999984 0.453399986
vt 0.319200009 0.453799993
vt 0.0425999984 0.413300008
vt 0.319200009 0.374900013
vt 0.0425999984 0.374599993
vt 0.0425999984 0.495599985
vt 0.319200009 0.495999992
vt 0.0425999984 0.45449999
vt 0.319200009 0.414799988
vt 0.319200009 0.454899997
vt 0.0425999984 0.414400011
vt 0.0055999998 0.493900001
vt 0.0425999984 0.453399986
vt 0.0057000001 0.4551
vt 0.0425999984 0.495599985
vt 0.319099993 0.283199996
vt 0.0427000001 0.326000005
vt 0.319200009 0.325399995
vt 0.0425999984 0.283800006
vt 0.319099993 0.245399997
vt 0.0425999984 0.246000007
vt 0.0427000001 0.370299995
vt 0.319200009 0.369700015
vt 0.0427000001 0.326000005
vt 0.319099993 0.283199996
vt 0.319200009 0.325399995
vt 0.0425999984 0.283800006
vt 0.00469999993 0.3671
vt 0.0427000001 0.326000005
vt 0.00469999993 0.329299986
vt 0.0427000001 0.370299995
vt 0.442900002 0.372500002
vt 0.397700012 0.296499997
vt 0.397700012 0.372500002
vt 0.442900002 0.296499997
vt 0.397700012 0.296499997
vt 0.373699993 0.3662
vt 0.397700012 0.372500002
vt 0.373699993 0.296499997
vt 0.397700012 0.254700005
vt 0.368900001 0.254700005
vt 0.327199996 0.296499997
vt 0.327199996 0.3662
vt 0.373699993 0.296499997
vt 0.373699993 0.3662
vt 0.397700012 0.296499997
vt 0.397700012 0.372500002
vt 0.373699993 0.296499997
vt 0.330000013 0.174500003
vt 0.398400009 0.238499999
vt 0.391400009 0.174700007
vt 0.322600007 0.238299996
vt 0.541400015 0.292299986
vt 0.497700006 0.323599994
vt 0.541400015 0.323599994
vt 0.497700006 0.292299986
vt 0.583100021 0.323599994
vt 0.583100021 0.292299986
vt 0.741599977 0.250400007
vt 0.808000028 0.31189999
vt 0.800999999 0.25029999
vt 0.734899998 0.312099993
vt 0.541400015 0.323199987
vt 0.497700006 0.292699993
vt 0.541400015 0.292699993
vt 0.497700006 0.323199987
vt 0.4463 0.292299986
vt 0.497700006 0.323599994
vt 0.497700006 0.292299986
vt 0.4463 0.323599994
vt 0.323199987 0.172399998
vt 0.301400006 0.202900007
vt 0.323199987 0.202900007
vt 0.301400006 0.172399998
vt 0.301400006 0.224700004
vt 0.2412 0.202900007
vt 0.2412 0.224700004
vt 0.301400006 0.202900007
vt 0.301400006 0.172399998
vt 0.2412 0.172399998
vt 0.2412 0.150600001
vt 0.301400006 0.150600001
vt 0.219400004 0.202900007
vt 0.2412 0.172399998
vt 0.219400004 0.172399998
vt 0.2412 0.202900007
vt 0.537299991 0.478899986
vt 0.659099996 0.477499992
vt 0.687699974 0.39379999
vt 0.716799974 0.440200001
vt 0.709699988 0.395399988
vt 0.801800013 0.402399987
vt 0.80250001 0.425799996
vt 0.663699985 0.370000005
vt 0.4375 0.385600001
vt 0.580200016 0.333700001
vt 0.475100011 0.3389
vt 0.650300026 0.337500006
vt 0.703299999 0.197999999
vt 0.751699984 0.229300007
vt 0.756799996 0.206100002
vt 0.697399974 0.160099998
vt 0.68809998 0.170000002
vt 0.324999988 0.38530001
vt 0.326599985 0.453799993
vt 0.426800013 0.476500005
vt 0.343899995 0.477499992
vt 0.518000007 0.496300012
vt 0.42719999 0.497000009
vt 0.289900005 0.0688999966
vt 0.394199997 0.0108000003
vt 0.289299995 0.00650000013
vt 0.394699991 0.061900001
vt 0.453299999 0.0153000001
vt 0.453700006 0.0559
vt 0.528100014 0.0154999997
vt 0.528500021 0.0537
vt 0.671999991 0.0983999968
vt 0.592400014 0.137999997
vt 0.672100008 0.131500006
vt 0.592400014 0.0920000002
vt 0.573800027 0.142100006
vt 0.573700011 0.0879999995
vt 0.539499998 0.142100006
vt 0.539499998 0.0879999995
vt 0.513700008 0.142100006
vt 0.513599992 0.0879999995
vt 0.385399997 0.142199993
vt 0.385399997 0.0881000012
vt 0.364800006 0.142199993
vt 0.36469999 0.0881000012
vt 0.510999978 0.148699999
vt 0.406800002 0.205899999
vt 0.510800004 0.206300005
vt 0.407000005 0.148300007
vt 0.561800003 0.155900002
vt 0.561699986 0.199499995
vt 0.657999992 0.156200007
vt 0.657899976 0.199900001
vt 0.306899995 0.0731000006
vt 0.359800011 0.134299994
vt 0.359800011 0.0731000006
vt 0.306899995 0.134299994
vt 0.359800011 0.160600007
vt 0.306899995 0.160600007
vt 0.405699998 0.287
vt 0.486200005 0.220699996
vt 0.405699998 0.220699996
vt 0.486200005 0.287
vt 0.592999995 0.277200013
vt 0.6171 0.223800004
vt 0.592999995 0.231099993
vt 0.6171 0.284500003
vt 0.504800022 0.277200013
vt 0.504800022 0.231099993
vt 0.486200005 0.287
vt 0.504800022 0.231099993
vt 0.486200005 0.220699996
vt 0.504800022 0.277200013
vt 0.1646 0.194399998
vt 0.0124000004 0.241500005
vt 0.1646 0.241500005
vt 0.0124000004 0.194399998
vt 0.1919 0.194399998
vt 0.1919 0.241500005
vt 0.214599997 0.194399998
vt 0.214599997 0.241500005
vt 0.802600026 0.167699993
vt 0.724799991 0.169499993
vt 0.772499979 0.210700005
vt 0.747600019 0.136999995
vt 0.537299991 0.478899986
vt 0.687699974 0.39379999
vt 0.659099996 0.477499992
vt 0.716799974 0.440200001
vt 0.709699988 0.395399988
vt 0.801800013 0.402399987
vt 0.80250001 0.425799996
vt 0.663699985 0.370000005
vt 0.4375 0.385600001
vt 0.580200016 0.333700001
vt 0.475100011 0.3389
vt 0.650300026 0.337500006
vt 0.703299999 0.197999999
vt 0.751699984 0.229300007
vt 0.756799996 0.206100002
vt 0.697399974 0.160099998
vt 0.68809998 0.170000002
vt 0.324999988 0.38530001
vt 0.326599985 0.453799993
vt 0.426800013 0.476500005
vt 0.343899995 0.477499992
vt 0.518000007 0.496300012
vt 0.42719999 0.497000009
vt 0.201100007 0.060800001
vt 0.00689999992 0.0945999995
vt 0.201100007 0.0945999995
vt 0.00689999992 0.060800001
vt 0.201100007 0.00669999979
vt 0.00689999992 0.00669999979
vt 0.00689999992 0.127700001
vt 0.201100007 0.127700001
vt 0.00689999992 0.181799993
vt 0.201100007 0.181799993
vt 0.286300004 0.0388000011
vt 0.222399995 0.00760000013
vt 0.210999995 0.0384000018
vt 0.275099993 0.00779999979
vt 0.222100005 0.0687000006
vt 0.274800003 0.0688999966
vt 0.221399993 0.0810000002
vt 0.286500007 0.112400003
vt 0.275000006 0.0810000002
vt 0.209900007 0.112400003
vt 0.275000006 0.143099993
vt 0.221399993 0.143099993
vt 0.00689999992 0.0945999995
vt 0.201100007 0.060800001
vt 0.201100007 0.0945999995
vt 0.00689999992 0.060800001
vt 0.201100007 0.127700001
vt 0.00689999992 0.127700001
vt 0.787199974 0.40959999
vt 0.698800027 0.483200014
vt 0.938499987 0.412200004
vt 0.690500021 0.476399988
vt 0.989799976 0.417199999
vt 0.958500028 0.407799989
vt 0.939199984 0.346500009
vt 0.93779999 0.296799988
vt 0.989700019 0.218400002
vt 0.910600007 0.338200003
vt 0.896399975 0.373899996
vt 0.879599988 0.358599991
vt 0.92930001 0.235699996
vt 0.787899971 0.382099986
vt 0.685000002 0.128099993
vt 0.693799973 0.105899997
vt 0.685100019 0.105899997
vt 0.693700016 0.128099993
vt 0.876800001 0.0965000018
vt 0.876600027 0.140499994
vt 0.959999979 0.0923999995
vt 0.959699988 0.146599993
vt 0.822000027 0.310499996
vt 0.723699987 0.387199998
vt 0.838100016 0.3565
vt 0.713500023 0.35800001
vt 0.84920001 0.305500001
vt 0.862600029 0.343400002
vt 0.815699995 0.234099999
vt 0.844299972 0.264600009
vt 0.843299985 0.234300002
vt 0.814400017 0.264400005
vt 0.811500013 0.200200006
vt 0.84799999 0.200399995
vt 0.811500013 0.187900007
vt 0.848100007 0.188099995
vt 0.814999998 0.149399996
vt 0.845000029 0.149599999
vt 0.865100026 0.232899994
vt 0.907800019 0.261200011
vt 0.911599994 0.233099997
vt 0.868499994 0.261099994
vt 0.858299971 0.195500001
vt 0.91900003 0.195700005
vt 0.85589999 0.148399994
vt 0.921999991 0.148699999
vt 0.908599973 0.333400011
vt 0.866699994 0.333200008
vt 0.959699988 0.146599993
vt 0.993499994 0.0970000029
vt 0.959999979 0.0923999995
vt 0.993200004 0.1426
vt 0.787199974 0.40959999
vt 0.698800027 0.483200014
vt 0.690500021 0.476399988
vt 0.938499987 0.412200004
vt 0.989799976 0.417199999
vt 0.958500028 0.407799989
vt 0.939199984 0.346500009
vt 0.93779999 0.296799988
vt 0.989700019 0.218400002
vt 0.910600007 0.338200003
vt 0.896399975 0.373899996
vt 0.879599988 0.358599991
vt 0.92930001 0.235699996
vt 0.787899971 0.382099986
vn -0.993943413 0.109893094 2.47011445e-17
vn -0.698789476 0.71505079 0.0198906232
vn -0.993395861 0.114714013 0.00231468178
vn -0.726261294 0.685247972 -0.0545870846
vn -0.348437138 0.398683523 0.848317753
vn -0.892148338 0.116969989 -0.436336298
vn -1 0 0
vn -1 0 0
vn 0 0.999782815 -0.0208404282
vn 0 0.99142019 0.130713457
vn 0 0.399944574 0.916539327
vn 0 0.35027972 -0.93664514
vn 0 0 -1
vn 0 0 -1
vn -1 0 0
vn -1 0 0
vn 0.991518286 0.129961071 0.00126826469
vn 0.992538588 0.121930928 2.73205375e-17
vn 0.991865589 0.127263742 0.00256790828
vn 0.991454455 0.130453302 3.30637329e-17
vn 0.995742993 0.0844949627 0.0368306045
vn 1 0 0
vn 0.998938201 0.046070271 2.23412976e-17
vn 1 0 0
vn 1 0 0
vn 0 -0.999944467 -0.0105386823
vn 0 -0.999606948 0.0280348007
vn 0 -0.999132028 -0.0416556218
vn 0 -0.994767138 0.102168198
vn 0 -0.332828446 -0.942987394
vn 0 -0.332828446 -0.942987394
vn 0 -0.73895574 0.673753972
vn 0 -0.73895574 0.673753972
vn -0.898505032 -0.438963219 -1.12324877e-16
vn -0.911791566 0.410653309 1.05206191e-16
vn -0.462687554 0.88652142 2.27045243e-16
vn -0.477575361 -0.878590789 -2.24948493e-16
vn 0 -1 -2.56033293e-16
vn 0 -1 -2.56033293e-16
vn 0 1 2.56033293e-16
vn 0 1 2.56033293e-16
vn 0.999272402 -0.038140089 -9.69358751e-18
vn 0.999272402 -0.038140089 -9.69358751e-18
vn 0.999272402 -0.038140089 -9.76513258e-18
vn 0.999272402 -0.038140089 -9.62204244e-18
vn 0 0 -1
vn 0 0 -1
vn 0 0 -1
vn 0 0 -1
vn -0.900316698 -0.435235389 -8.87114876e-17
vn -0.924731164 0.380620907 1.02513416e-16
vn -0.473164687 0.880973995 2.32575643e-16
vn -0.503007319 -0.864282151 -1.71348736e-16
vn 0 -1 -1.98255553e-16
vn 0 -1 -1.98255553e-16
vn 0 1 2.64340737e-16
vn 0 1 2.64340737e-16
vn 0.997430655 -0.0716385974 -1.6645235e-17
vn 0.997430655 -0.0716385974 -1.6645235e-17
vn 0.997430655 -0.0716385974 -1.89369996e-17
vn 0.997430655 -0.0716385974 -1.43534704e-17
vn 0 0 -1
vn 0 0 -1
vn 0 0 -1
vn 0 0 -1
vn 0 0.18161477 -0.983369755
vn 0 0.18161477 -0.983369755
vn 0 0.18161477 -0.983369755
vn 0 0.18161477 -0.983369755
vn -0.966368451 0.251262703 0.0547637748
vn -0.585820037 -0.148411258 0.796736457
vn -1 0 0
vn -0.669699664 0.725597588 0.158147081
vn 0 0.977062046 0.212954829
vn 0 0.977062046 0.212954829
vn 0 -0.183124036 0.983089816
vn 0 -0.183124036 0.983089816
vn 0 -0.183124036 0.983089816
vn 1 0 0
vn 1 0 0
vn 1 0 0
vn 1 0 0
vn 0 0 -1
vn 0 0 -1
vn 0 0 -1
vn 0 0 -1
vn -0.709962942 -0.704239036 0
vn -0.994957408 -0.100298335 0
vn -0.709962942 -0.704239036 0
vn -0.994957408 -0.100298335 0
vn 0 -1 0
vn 0 -1 0
vn 0 0 1
vn 0 0 1
vn 0 0 1
vn 0 0 1
vn 0.994957405 -0.100298362 0
vn 0.994957405 -0.100298362 0
vn 0.994957405 -0.100298362 0
vn 0.994957405 -0.100298362 0
vn 0 1 0
vn 0 1 0
vn 0 1 0
vn 0 1 0
vn 0 0 -1
vn 0 0 -1
vn 0 0 -1
vn 0 0 -1
vn -1 0 0
vn -0.611748477 0.791052338 0
vn -1 0 0
vn -0.611748477 0.791052338 0
vn 0.611748477 0.791052338 0
vn 0.611748477 0.791052338 0
vn 1 0 0
vn 1 0 0
vn 0 0 1
vn 0 0 1
vn 0 0 1
vn 0 0 1
vn -0.99950412 0.0304201603 0.00813184903
vn -0.992620949 0.0906530162 0.0805337392
vn -0.996071084 0.0636902637 0.0615300382
vn -0.989186723 0.0989170235 0.108282268
vn -0.988105902 0.120475986 0.0955628789
vn -0.995203879 0.083129014 0.0515636119
vn -0.999896798 0 0.0143663708
vn -0.999256756 -0.0378160746 -0.00747525566
vn -0.999346428 -0.0361161378 -0.00152987531
vn -0.990241994 -0.12822698 -0.0545768639
vn -0.984842385 -0.173393854 -0.00447755871
vn -0.991935667 -0.0767594778 -0.100854429
vn -0.991816276 -0.0736675294 -0.104276413
vn -0.991588246 -0.079663335 -0.102012268
vn -0.989777646 -0.000532203946 -0.142618118
vn -0.992478981 0.0160832323 -0.121354038
vn -1 0 0
vn -1 0 0
vn -1 0 0
vn -0.998475874 0.0551597443 -0.00182512121
vn -1 0 0
vn -0.927274023 0.374178569 -0.0123807906
vn -0.938141386 0.34622047 -0.00470377608
vn 0 0.999925954 -0.0121690987
vn 0 0.993974213 0.109614156
vn 0 0.999925954 -0.0121690987
vn 0 0.956030848 0.29326612
vn 0 0.903901106 0.4277415
vn 0 0.960264385 0.279091938
vn 0 0.988174132 0.153335856
vn 0 0.988174132 0.153335856
vn 0 -0.994519978 0.104546703
vn 0 -0.994836319 0.101492357
vn 0 -0.994519978 0.104546703
vn 0 -0.995384175 0.0959705368
vn 0 -0.893073691 0.449910417
vn 0 -0.769849336 0.638225666
vn 0 -0.56680944 0.823848929
vn 0 -0.43856492 0.898699511
vn 0 0.437107444 0.899409296
vn 0 0.605906645 0.795535755
vn 0 0.641356157 0.767243299
vn 0 0.571316705 0.820729689
vn 0 0.219969124 0.975506835
vn 0 0.219969124 0.975506835
vn 0 -0.989615106 -0.143742621
vn 0 -0.999661404 0.0260207222
vn 0 -0.922729599 -0.385447905
vn 0 -0.999661404 0.0260207222
vn 0 -0.875917836 -0.482460303
vn 0 -0.980354679 -0.197242755
vn 0 -0.999666752 -0.0258144477
vn 0 -0.999666752 -0.0258144477
vn 0 6.44539652e-16 -1
vn 0 0.0917523117 -0.99578186
vn 0 6.44539652e-16 -1
vn 0 0.249434537 -0.968391662
vn 0 0.539955808 -0.841693368
vn 0 0.539955808 -0.841693368
vn 0 0.999928698 -0.011941459
vn 0 0.999928698 -0.011941459
vn 0 0.999928698 -0.011941459
vn 0 0.999928698 -0.011941459
vn 0 0.964945604 0.262449959
vn 0 0.766652282 0.64206252
vn 0 0.997569183 0.0696830347
vn 0 0.766652282 0.64206252
vn 0 0.999907722 -0.0135848179
vn 0 0.999907722 -0.0135848179
vn 0 0 -1
vn 0 0 -1
vn 0 0 -1
vn 0 0 -1
vn 0 -0.596209322 -0.802829025
vn 0 -0.657680709 -0.75329681
vn 0 -0.423959377 -0.905681206
vn 0 -0.657680709 -0.75329681
vn 0 0.272091325 -0.962271433
vn 0 -0.0766945348 -0.997054637
vn 0 -0.670912389 -0.741536625
vn 0 -0.670912389 -0.741536625
vn 0 -0.757900846 0.652369762
vn 0 -0.757900846 0.652369762
vn 0 -0.757900846 0.652369762
vn 0 -0.757900846 0.652369762
vn 0.99950412 0.0304201615 0.00813185183
vn 0.996071083 0.0636902825 0.0615300437
vn 0.992620945 0.0906530396 0.0805337533
vn 0.989340135 0.0990526907 0.106745785
vn 0.988278683 0.120754116 0.0934006875
vn 0.995324198 0.0833531688 0.0488056422
vn 0.999933948 0 0.0114934765
vn 0.999256757 -0.0378160663 -0.00747525401
vn 0.999346429 -0.0361161299 -0.00152987498
vn 0.990241999 -0.128226952 -0.0545768521
vn 0.984842391 -0.173393817 -0.00447755775
vn 0.99193567 -0.0767594612 -0.100854407
vn 0.991816279 -0.0736675135 -0.10427639
vn 0.99158825 -0.0796633177 -0.102012246
vn 0.989777651 -0.000532203831 -0.142618087
vn 0.992478984 0.0160832288 -0.121354011
vn 1 0 0
vn 1 0 0
vn 1 0 0
vn 0.998475875 0.0551597321 -0.00182512081
vn 1 0 0
vn 0.927274052 0.374178498 -0.0123807883
vn 0.938141411 0.346220402 -0.00470377517
vn -0.66274158 -0.748848181 -1.79646237e-16
vn -0.993625243 -0.11273365 -2.70428126e-17
vn -0.99355807 0.113324141 2.71863793e-17
vn -0.274434899 -0.961605681 -2.30688507e-16
vn 0 -1 -2.39899276e-16
vn 0 -1 -2.39899276e-16
vn -0.656826802 0.754041479 1.80892092e-16
vn -0.270430863 0.962739398 2.30958909e-16
vn 0 1 2.39899276e-16
vn 0 1 2.39899276e-16
vn 0 -8.08235834e-16 1
vn 0 -1.60374153e-15 1
vn 0 -8.08235834e-16 1
vn 0 -1.60374153e-15 1
vn 0 0 1
vn 0 0 1
vn 0 0 -1
vn 0 0 -1
vn 0 0 -1
vn 0 0 -1
vn 0 0 -1
vn 0 0 -1
vn 1 2.72883222e-17 0
vn 0.947180819 -0.32070001 -7.69329855e-17
vn 1 0 0
vn 0.947180819 -0.32070001 -7.69302709e-17
vn 0.945613336 0.325292819 7.80347583e-17
vn 0.945613336 0.325292819 7.80320049e-17
vn -0.998467613 -0.0337140588 -0.0438838107
vn -0.995697907 0.0870472012 -0.0317562939
vn -0.998951834 0.0306901548 -0.0339609634
vn -0.99727506 0.0568066267 -0.0470686926
vn -0.99466471 0.0597975747 -0.0840616702
vn -0.996905672 -0.0757560607 0.0209785852
vn -0.993329411 0.0172707732 -0.114010533
vn -0.991695808 0.0519043916 -0.117666302
vn -0.994089128 0.0425436463 -0.0998841547
vn -0.992259819 -0.00298628329 -0.124143197
vn -0.988456005 -0.136037709 -0.0666968402
vn -0.985491949 -0.155248055 -0.068583238
vn -0.995472887 0.054666805 -0.0777513476
vn -0.989835441 -0.138812271 -0.0309346581
vn 0 0.770019265 -0.638020636
vn 0 0.974626429 0.223837718
vn 0 0.770019265 -0.638020636
vn 0 0.962654439 0.270733137
vn 0 0.777802142 0.628509211
vn 0 0.424359038 0.905494013
vn 0 -0.0497685385 0.998760778
vn 0 -0.0497685385 0.998760778
vn 0 -0.704760707 -0.709445097
vn 0 -0.775929578 -0.630819539
vn 0 -0.582833299 -0.812591746
vn 0 -0.775929578 -0.630819539
vn 0 0.00826581977 -0.999965838
vn 0 0.00826581977 -0.999965838
vn 0 0.372531239 0.928019653
vn 0 0.790357914 0.612645385
vn 0 -0.434716371 0.900567419
vn 0 0.790357914 0.612645385
vn 0 -0.836090912 0.54859091
vn 0 -0.949514169 0.313724152
vn 0 -0.225084118 -0.974339335
vn 0 0.16161299 -0.986854215
vn 0 0.321523709 -0.946901528
vn 0 0.321523709 -0.946901528
vn 0 -0.66028298 -0.751016902
vn 0 -0.88726023 -0.46126921
vn 0 -0.551089442 -0.83444618
vn 0 -0.933425268 -0.35877189
vn 0 -0.206649649 -0.978415005
vn 0 0.00308616299 -0.999995238
vn 0 0.178564677 -0.983928176
vn 0 0.178564677 -0.983928176
vn 0 -0.95292531 -0.303205135
vn 0 -0.95292531 -0.303205135
vn 0 -0.938211676 -0.346061918
vn 0 -0.938211676 -0.346061918
vn 0 -0.938211676 -0.346061918
vn 0 -0.938211676 -0.346061918
vn 0.998467615 -0.0337140186 -0.0438837852
vn 0.995697906 0.0870472316 -0.031756264
vn 0.997275059 0.0568066374 -0.0470687015
vn 0.998951834 0.0306901978 -0.0339609277
vn 0.99466471 0.0597975922 -0.084061656
vn 0.996905674 -0.0757560373 0.0209785788
vn 0.993329405 0.0172708235 -0.114010575
vn 0.991597962 0.0513071585 -0.118747875
vn 0.993982088 0.0417887319 -0.101258628
vn 0.992259823 -0.00298628027 -0.124143169
vn 0.988456014 -0.136037665 -0.0666967925
vn 0.985491939 -0.155248109 -0.0685832503
vn 0.995211925 0.0518915157 -0.0828281097
vn 0.989835415 -0.138812435 -0.0309347646

g gun07_submesh_0
usemtl SD58-Newlambert14
f 1/1/1 3/3/3 2/2/2
f 1/1/1 2/2/2 4/4/4
f 3/3/3 5/5/5 2/2/2
f 6/6/6 1/1/1 4/4/4
f 6/6/6 7/7/7 1/1/1
f 6/6/6 8/8/8 7/7/7
f 9/9/9 4/4/4 2/2/2
f 9/9/9 2/2/2 10/10/10
f 10/10/10 2/2/2 5/5/5
f 10/10/10 5/5/5 11/11/11
f 12/12/12 6/6/6 4/4/4
f 12/12/12 4/4/4 9/9/9
f 13/13/13 6/6/6 12/12/12
f 13/13/13 14/14/14 6/6/6
f 3/3/3 16/16/16 15/15/15
f 17/17/17 19/19/19 18/18/18
f 17/17/17 18/18/18 20/20/20
f 21/21/21 19/19/19 17/17/17
f 21/21/21 22/22/22 19/19/19
f 23/23/23 20/20/20 18/18/18
f 24/24/24 23/23/23 18/18/18
f 24/24/24 25/25/25 23/23/23
f 26/26/26 28/28/28 27/27/27
f 26/26/26 27/27/27 29/29/29
f 30/30/30 28/28/28 26/26/26
f 30/30/30 31/31/31 28/28/28
f 29/29/29 27/27/27 32/32/32
f 29/29/29 32/32/32 33/33/33
f 34/34/34 36/36/36 35/35/35
f 34/34/34 35/35/35 37/37/37
f 38/38/38 34/34/34 37/37/37
f 38/38/38 37/37/37 39/39/39
f 40/40/40 35/35/35 36/36/36
f 40/40/40 36/36/36 41/41/41
f 42/42/42 44/44/44 43/43/43
f 42/42/42 43/43/43 45/45/45
f 46/46/46 48/48/48 47/47/47
f 46/46/46 47/47/47 49/49/49
f 50/50/50 52/52/52 51/51/51
f 50/50/50 51/51/51 53/53/53
f 54/54/54 50/50/50 53/53/53
f 54/54/54 53/53/53 55/55/55
f 56/56/56 51/51/51 52/52/52
f 56/56/56 52/52/52 57/57/57
f 58/58/58 60/60/60 59/59/59
f 58/58/58 59/59/59 61/61/61
f 62/62/62 64/64/64 63/63/63
f 62/62/62 63/63/63 65/65/65
f 66/66/66 68/68/68 67/67/67
f 66/66/66 67/67/67 69/69/69
f 70/70/70 72/72/72 71/71/71
f 70/70/70 71/71/71 73/73/73
f 74/74/74 70/70/70 73/73/73
f 74/74/74 73/73/73 75/75/75
f 71/71/71 77/77/77 76/76/76
f 71/71/71 76/76/76 78/78/78
f 79/79/79 81/81/81 80/80/80
f 79/79/79 80/80/80 82/82/82
f 83/83/83 85/85/85 84/84/84
f 83/83/83 84/84/84 86/86/86
f 87/87/87 89/89/89 88/88/88
f 87/87/87 88/88/88 90/90/90
f 91/91/91 89/89/89 87/87/87
f 91/91/91 87/87/87 92/92/92
f 93/93/93 95/95/95 94/94/94
f 93/93/93 94/94/94 96/96/96
f 97/97/97 99/99/99 98/98/98
f 97/97/97 98/98/98 100/100/100
f 101/101/101 103/103/103 102/102/102
f 101/101/101 102/102/102 104/104/104
f 105/105/105 107/107/107 106/106/106
f 105/105/105 106/106/106 108/108/108
f 109/109/109 111/111/111 110/110/110
f 109/109/109 110/110/110 112/112/112
f 113/113/113 112/112/112 110/110/110
f 113/113/113 110/110/110 114/114/114
f 115/115/115 113/113/113 114/114/114
f 115/115/115 116/116/116 113/113/113
f 117/117/117 119/119/119 118/118/118
f 117/117/117 118/118/118 120/120/120
f 121/121/121 123/123/123 122/122/122
f 123/123/123 124/124/124 122/122/122
f 123/123/123 125/125/125 124/124/124
f 124/124/124 125/125/125 126/126/126
f 124/124/124 126/126/126 127/127/127
f 121/121/121 128/128/128 123/123/123
f 121/121/121 129/129/129 128/128/128
f 128/128/128 129/129/129 130/130/130
f 130/130/130 129/129/129 131/131/131
f 128/128/128 130/130/130 132/132/132
f 132/132/132 130/130/130 133/133/133
f 132/132/132 133/133/133 134/134/134
f 135/135/135 134/134/134 133/133/133
f 135/135/135 133/133/133 136/136/136
f 136/136/136 133/133/133 137/137/137
f 138/138/138 129/129/129 139/139/139
f 129/129/129 140/140/140 139/139/139
f 139/139/139 140/140/140 141/141/141
f 129/129/129 121/121/121 140/140/140
f 142/142/142 140/140/140 121/121/121
f 142/142/142 143/143/143 140/140/140
f 144/144/144 146/146/146 145/145/145
f 144/144/144 145/145/145 147/147/147
f 147/147/147 145/145/145 148/148/148
f 147/147/147 148/148/148 149/149/149
f 149/149/149 148/148/148 150/150/150
f 149/149/149 150/150/150 151/151/151
f 152/152/152 154/154/154 153/153/153
f 152/152/152 153/153/153 155/155/155
f 155/155/155 153/153/153 156/156/156
f 155/155/155 156/156/156 157/157/157
f 157/157/157 156/156/156 158/158/158
f 157/157/157 158/158/158 159/159/159
f 159/159/159 158/158/158 160/160/160
f 159/159/159 160/160/160 161/161/161
f 161/161/161 160/160/160 162/162/162
f 161/161/161 162/162/162 163/163/163
f 163/163/163 162/162/162 164/164/164
f 163/163/163 164/164/164 165/165/165
f 166/166/166 168/168/168 167/167/167
f 166/166/166 167/167/167 169/169/169
f 170/170/170 168/168/168 166/166/166
f 170/170/170 171/171/171 168/168/168
f 172/172/172 171/171/171 170/170/170
f 172/172/172 173/173/173 171/171/171
f 174/174/174 176/176/176 175/175/175
f 174/174/174 175/175/175 177/177/177
f 177/177/177 175/175/175 178/178/178
f 177/177/177 178/178/178 179/179/179
f 180/180/180 182/182/182 181/181/181
f 180/180/180 181/181/181 183/183/183
f 184/184/184 186/186/186 185/185/185
f 184/184/184 185/185/185 187/187/187
f 188/188/188 186/186/186 184/184/184
f 188/188/188 189/189/189 186/186/186
f 190/190/190 192/192/192 191/191/191
f 190/190/190 191/191/191 193/193/193
f 194/194/194 196/196/196 195/195/195
f 194/194/194 195/195/195 197/197/197
f 198/198/198 196/196/196 194/194/194
f 198/198/198 199/199/199 196/196/196
f 200/200/200 199/199/199 198/198/198
f 200/200/200 201/201/201 199/199/199
f 202/202/202 204/204/204 203/203/203
f 202/202/202 203/203/203 205/205/205
f 206/206/206 208/208/208 207/207/207
f 209/209/209 207/207/207 208/208/208
f 209/209/209 210/210/210 207/207/207
f 209/209/209 211/211/211 210/210/210
f 209/209/209 212/212/212 211/211/211
f 213/213/213 206/206/206 207/207/207
f 213/213/213 214/214/214 206/206/206
f 213/213/213 215/215/215 214/214/214
f 215/215/215 216/216/216 214/214/214
f 213/213/213 217/217/217 215/215/215
f 217/217/217 218/218/218 215/215/215
f 217/217/217 219/219/219 218/218/218
f 218/218/218 219/219/219 220/220/220
f 218/218/218 220/220/220 221/221/221
f 221/221/221 222/222/222 218/218/218
f 223/223/223 224/224/224 214/214/214
f 214/214/214 224/224/224 225/225/225
f 224/224/224 226/226/226 225/225/225
f 214/214/214 225/225/225 206/206/206
f 225/225/225 227/227/227 206/206/206
f 225/225/225 228/228/228 227/227/227
f 229/229/229 231/231/231 230/230/230
f 229/229/229 230/230/230 232/232/232
f 233/233/233 229/229/229 232/232/232
f 233/233/233 232/232/232 234/234/234
f 231/231/231 235/235/235 230/230/230
f 231/231/231 236/236/236 235/235/235
f 237/237/237 235/235/235 236/236/236
f 237/237/237 236/236/236 238/238/238
f 239/239/239 241/241/241 240/240/240
f 239/239/239 240/240/240 242/242/242
f 239/239/239 243/243/243 241/241/241
f 239/239/239 244/244/244 243/243/243
f 245/245/245 247/247/247 246/246/246
f 245/245/245 246/246/246 248/248/248
f 248/248/248 246/246/246 249/249/249
f 248/248/248 249/249/249 250/250/250
f 251/251/251 253/253/253 252/252/252
f 251/251/251 252/252/252 254/254/254
f 251/251/251 255/255/255 253/253/253
f 251/251/251 256/256/256 255/255/255
f 257/257/257 259/259/259 258/258/258
f 257/257/257 258/258/258 260/260/260
f 258/258/258 259/259/259 261/261/261
f 261/261/261 259/259/259 262/262/262
f 262/262/262 263/263/263 261/261/261
f 261/261/261 263/263/263 264/264/264
f 261/261/261 264/264/264 265/265/265
f 264/264/264 263/263/263 266/266/266
f 266/266/266 263/263/263 267/267/267
f 257/257/257 267/267/267 259/259/259
f 266/266/266 267/267/267 268/268/268
f 257/257/257 268/268/268 267/267/267
f 265/265/265 264/264/264 269/269/269
f 257/257/257 270/270/270 268/268/268
f 271/271/271 273/273/273 272/272/272
f 271/271/271 272/272/272 274/274/274
f 274/274/274 272/272/272 275/275/275
f 274/274/274 275/275/275 276/276/276
f 276/276/276 275/275/275 277/277/277
f 276/276/276 277/277/277 278/278/278
f 279/279/279 281/281/281 280/280/280
f 279/279/279 280/280/280 282/282/282
f 283/283/283 281/281/281 279/279/279
f 283/283/283 284/284/284 281/281/281
f 285/285/285 287/287/287 286/286/286
f 285/285/285 286/286/286 288/288/288
f 289/289/289 287/287/287 285/285/285
f 289/289/289 290/290/290 287/287/287
f 291/291/291 290/290/290 289/289/289
f 291/291/291 292/292/292 290/290/290
f 293/293/293 292/292/292 291/291/291
f 293/293/293 294/294/294 292/292/292
f 295/295/295 297/297/297 296/296/296
f 295/295/295 296/296/296 298/298/298
f 299/299/299 297/297/297 295/295/295
f 299/299/299 300/300/300 297/297/297
f 301/301/301 300/300/300 299/299/299
f 301/301/301 302/302/302 300/300/300
f 298/298/298 296/296/296 303/303/303
f 298/298/298 303/303/303 304/304/304
f 305/305/305 307/307/307 306/306/306
f 305/305/305 306/306/306 308/308/308
f 309/309/309 311/311/311 310/310/310
f 309/309/309 310/310/310 312/312/312
f 310/310/310 313/313/313 312/312/312
f 313/313/313 314/314/314 312/312/312
f 314/314/314 313/313/313 315/315/315
f 313/313/313 316/316/316 315/315/315
f 313/313/313 317/317/317 316/316/316
f 316/316/316 318/318/318 315/315/315
f 318/318/318 319/319/319 315/315/315
f 309/309/309 312/312/312 319/319/319
f 318/318/318 320/320/320 319/319/319
f 309/309/309 319/319/319 320/320/320
f 317/317/317 321/321/321 316/316/316
f 309/309/309 320/320/320 322/322/322
