# Generated from legacy Unity YAML Mesh assets without Unity.
mtllib gun05.mtl

o gun05
v -0.027118545 0.0225436538 -0.101482451
v -0.0372028314 0.143827632 -0.101482451
v -0.0282087363 -0.00743676722 -0.0524237454
v -0.0309342202 0.0358984619 0.284991056
v -0.0372028314 0.156909853 0.329688996
v -0.027118545 -0.0736659467 0.086848408
v -0.027118545 -0.0589485019 -0.021625787
v 0.0282087661 -0.00743676722 -0.0524237454
v -0.027118545 0.0225436538 -0.101482451
v -0.0282087363 -0.00743676722 -0.0524237454
v 0.027118573 0.0225436538 -0.101482451
v -0.0372028314 0.143827632 -0.101482451
v 0.0372028612 0.143827632 -0.101482451
v 0.027118573 -0.0589485019 -0.021625787
v -0.027118545 -0.0589485019 -0.021625787
v 0.0372028612 0.156909853 0.329688996
v -0.0309342202 0.0358984619 0.284991056
v -0.0372028314 0.156909853 0.329688996
v 0.03093425 0.0358984619 0.284991056
v -0.027118545 -0.0736659467 0.086848408
v 0.027118573 -0.0736659467 0.086848408
v -0.027118545 -0.0589485019 -0.021625787
v 0.027118573 -0.0589485019 -0.021625787
v 0.027118573 0.0225436538 -0.101482451
v 0.0282087661 -0.00743676722 -0.0524237454
v 0.0372028612 0.143827632 -0.101482451
v 0.03093425 0.0358984619 0.284991056
v 0.0372028612 0.156909853 0.329688996
v 0.027118573 -0.0736659467 0.086848408
v 0.027118573 -0.0589485019 -0.021625787
v -0.0486498624 0.219323367 0.0661348104
v -0.0486498624 0.137831554 0.335957676
v -0.0486498624 0.131017685 -0.0458826125
v -0.0486498624 0.221776396 0.335957676
v -0.0486498624 0.247941136 0.00671923161
v -0.0486498624 0.247941136 -0.566177249
v -0.0486498624 0.153094187 -0.624502718
v -0.0431988947 0.0732375979 -0.231215447
v -0.037747927 0.0718749613 -0.0774981976
v -0.0475596711 0.0211810023 -0.516301036
v -0.0410185046 0.042439729 -0.584165514
v -0.0410185046 0.0410767645 -0.624502718
v -0.0410185046 0.0762354806 -0.674924076
v -0.0486498624 0.118753254 -0.675741673
v -0.0410185046 0.0162749738 -0.57762444
v -0.0350224413 0.0040102154 -0.263103604
v -0.0410185046 -0.0417777002 -0.471603066
v 0.000136289353 0.285825133 -0.540557861
v 0.000136289353 0.285825133 0.00671923161
v 0.000136289353 0.243852884 0.0661348104
v 0.000136289353 0.246305913 0.321239978
v 0.0486498922 0.137831554 0.335957676
v -0.0486498624 0.131017685 -0.0458826125
v -0.0486498624 0.137831554 0.335957676
v 0.0486498922 0.131017685 -0.0458826125
v -0.037747927 0.0718749613 -0.0774981976
v 0.0377479568 0.0718749613 -0.0774981976
v -0.0486498624 0.221776396 0.335957676
v 0.000136289353 0.246305913 0.321239978
v 0.0486498922 0.221776396 0.335957676
v -0.0486498624 0.137831554 0.335957676
v 0.0486498922 0.137831554 0.335957676
v 0.0410185345 0.042439729 -0.584165514
v -0.0410185046 0.0410767645 -0.624502718
v -0.0410185046 0.042439729 -0.584165514
v 0.0410185345 0.0410767645 -0.624502718
v -0.0410185046 0.0762354806 -0.674924076
v 0.0410185345 0.0762354806 -0.674924076
v 0.0410185345 0.0162749738 -0.57762444
v -0.0410185046 0.0162749738 -0.57762444
v 0.0478322431 0.0211810023 -0.516301036
v -0.0475596711 0.0211810023 -0.516301036
v 0.0486498922 0.118753254 -0.675741673
v -0.0486498624 0.153094187 -0.624502718
v -0.0486498624 0.118753254 -0.675741673
v 0.0486498922 0.153094187 -0.624502718
v 0.0410185345 0.0762354806 -0.674924076
v -0.0410185046 0.0762354806 -0.674924076
v 0.0486498922 0.247941136 -0.566177249
v -0.0486498624 0.247941136 -0.566177249
v 0.000136289353 0.285825133 -0.540557861
v 0.0377479568 0.0718749613 -0.0774981976
v -0.0431988947 0.0732375979 -0.231215447
v -0.037747927 0.0718749613 -0.0774981976
v 0.0431989245 0.0732375979 -0.231215447
v -0.0350224413 0.0040102154 -0.263103604
v 0.0350224711 0.0040102154 -0.263103604
v -0.0410185046 -0.0417777002 -0.471603066
v 0.0410185345 -0.0417777002 -0.471603066
v -0.0475596711 0.0211810023 -0.516301036
v 0.0478322431 0.0211810023 -0.516301036
v 0.0486498922 0.219323367 0.0661348104
v 0.0486498922 0.137831554 0.335957676
v 0.0486498922 0.221776396 0.335957676
v 0.0486498922 0.131017685 -0.0458826125
v 0.0486498922 0.247941136 0.00671923161
v 0.0486498922 0.247941136 -0.566177249
v 0.0486498922 0.153094187 -0.624502718
v 0.0431989245 0.0732375979 -0.231215447
v 0.0377479568 0.0718749613 -0.0774981976
v 0.0478322431 0.0211810023 -0.516301036
v 0.0410185345 0.042439729 -0.584165514
v 0.0410185345 0.0410767645 -0.624502718
v 0.0410185345 0.0762354806 -0.674924076
v 0.0486498922 0.118753254 -0.675741673
v 0.0410185345 0.0162749738 -0.57762444
v 0.0350224711 0.0040102154 -0.263103604
v 0.0410185345 -0.0417777002 -0.471603066
v 0.000136289353 0.285825133 -0.540557861
v 0.000136289353 0.285825133 0.00671923161
v 0.000136289353 0.243852884 0.0661348104
v 0.000136289353 0.246305913 0.321239978
v -0.0230303165 0.256117642 -1.04150164
v -0.0230303165 0.203515545 -0.762139559
v -0.0230303165 0.204605922 -1.04150164
v -0.0273910929 0.254754692 -0.549551845
v -0.0355675444 0.183892056 -0.704086661
v -0.0159440618 0.183619797 -0.762139559
v -0.0273910929 0.254754692 -0.549551845
v -0.040473409 0.142737255 -0.619051695
v -0.0241205133 0.143282443 -0.694820166
v 0.0238479935 0.256117642 -1.04150164
v -0.0273910929 0.254754692 -0.549551845
v -0.0230303165 0.256117642 -1.04150164
v 0.0279362183 0.254754692 -0.549551845
v 0.0238479935 0.204605922 -1.04150164
v -0.0230303165 0.256117642 -1.04150164
v -0.0230303165 0.204605922 -1.04150164
v 0.0238479935 0.256117642 -1.04150164
v 0.0238479935 0.203515545 -0.762139559
v -0.0230303165 0.204605922 -1.04150164
v -0.0230303165 0.203515545 -0.762139559
v 0.0238479935 0.204605922 -1.04150164
v 0.0167617351 0.183619797 -0.762139559
v -0.0159440618 0.183619797 -0.762139559
v 0.0363852158 0.183892056 -0.704086661
v -0.0355675444 0.183892056 -0.704086661
v 0.0249381848 0.143282443 -0.694820166
v -0.0241205133 0.143282443 -0.694820166
v 0.0412910841 0.142737255 -0.619051695
v -0.040473409 0.142737255 -0.619051695
v 0.0238479935 0.203515545 -0.762139559
v 0.0238479935 0.256117642 -1.04150164
v 0.0238479935 0.204605922 -1.04150164
v 0.0279362183 0.254754692 -0.549551845
v 0.0363852158 0.183892056 -0.704086661
v 0.0167617351 0.183619797 -0.762139559
v 0.0412910841 0.142737255 -0.619051695
v 0.0249381848 0.143282443 -0.694820166
v -0.026300896 0.258025467 -0.440805137
v -0.026300896 0.335156441 -0.500493169
v -0.026300896 0.29536432 -0.436716855
v -0.026300896 0.258025467 -0.536197007
v -0.026300896 0.326435089 -0.417093396
v -0.0219401252 0.380944699 -0.446801215
v -0.026300896 0.326435089 -0.232305661
v -0.0219401252 0.380944699 -0.182974428
v -0.026300896 0.255027294 -0.138821587
v -0.026300896 0.254754692 -0.20614098
v 0.0268460251 0.29536432 -0.436716855
v -0.026300896 0.258025467 -0.440805137
v -0.026300896 0.29536432 -0.436716855
v 0.0268460251 0.258025467 -0.440805137
v 0.0268460251 0.326435089 -0.417093396
v -0.026300896 0.326435089 -0.417093396
v 0.0268460251 0.326435089 -0.232305661
v -0.026300896 0.326435089 -0.232305661
v 0.0268460251 0.254754692 -0.20614098
v -0.026300896 0.254754692 -0.20614098
v 0.0268460251 0.258025467 -0.536197007
v -0.026300896 0.335156441 -0.500493169
v -0.026300896 0.258025467 -0.536197007
v 0.0268460251 0.335156441 -0.500493169
v -0.0219401252 0.380944699 -0.446801215
v 0.0224852506 0.380944699 -0.446801215
v -0.0219401252 0.380944699 -0.182974428
v 0.0224852506 0.380944699 -0.182974428
v -0.026300896 0.255027294 -0.138821587
v 0.0268460251 0.255027294 -0.138821587
v 0.0268460251 0.335156441 -0.500493169
v 0.0268460251 0.258025467 -0.440805137
v 0.0268460251 0.29536432 -0.436716855
v 0.0268460251 0.258025467 -0.536197007
v 0.0268460251 0.326435089 -0.417093396
v 0.0224852506 0.380944699 -0.446801215
v 0.0268460251 0.326435089 -0.232305661
v 0.0224852506 0.380944699 -0.182974428
v 0.0268460251 0.255027294 -0.138821587
v 0.0268460251 0.254754692 -0.20614098
v 0.0317518935 0.193431526 -0.983994007
v -0.029571481 0.265656799 -0.983994007
v -0.029571481 0.193431526 -0.983994007
v 0.0317518935 0.265656799 -0.983994007
v -0.029571481 0.193431526 -0.983994007
v -0.029571481 0.265656799 -0.88015306
v -0.029571481 0.193431526 -0.88015306
v -0.029571481 0.265656799 -0.983994007
v 0.0317518935 0.265656799 -0.983994007
v 0.0317518935 0.265656799 -0.88015306
v -0.029571481 0.193431526 -0.88015306
v 0.0317518935 0.265656799 -0.88015306
v 0.0317518935 0.193431526 -0.88015306
v -0.029571481 0.265656799 -0.88015306
v 0.0317518935 0.193431526 -0.88015306
v 0.0317518935 0.265656799 -0.983994007
v 0.0317518935 0.193431526 -0.983994007
v 0.0317518935 0.265656799 -0.88015306
v 0.0317518935 0.193431526 -0.88015306
v -0.029571481 0.193431526 -0.983994007
v -0.029571481 0.193431526 -0.88015306
v 0.0317518935 0.193431526 -0.983994007
vt 0.565599978 0.686699986
vt 0.565299988 0.782800019
vt 0.605499983 0.663200021
vt 0.881200016 0.697799981
vt 0.913399994 0.784099996
vt 0.717999995 0.611299992
vt 0.630599976 0.622699976
vt 0.403699994 0.515600026
vt 0.352400005 0.565599978
vt 0.404000014 0.566299975
vt 0.352100015 0.51700002
vt 0.275299996 0.575100005
vt 0.274899989 0.5079
vt 0.456800014 0.516300023
vt 0.457100004 0.564999998
vt 0.917200029 0.508300006
vt 0.804400027 0.574100018
vt 0.916299999 0.58160001
vt 0.805100024 0.513100028
vt 0.579599977 0.567399979
vt 0.580299973 0.514299989
vt 0.472200006 0.566100001
vt 0.472799987 0.513000011
vt 0.565599978 0.686699986
vt 0.605499983 0.663200021
vt 0.565299988 0.782800019
vt 0.881200016 0.697799981
vt 0.913399994 0.784099996
vt 0.717999995 0.611299992
vt 0.630599976 0.622699976
vt 0.699899971 0.8398
vt 0.925300002 0.767199993
vt 0.607800007 0.762899995
vt 0.925499976 0.841700017
vt 0.649399996 0.85710001
vt 0.194100007 0.858399987
vt 0.147599995 0.784699976
vt 0.460299999 0.722000003
vt 0.582700014 0.720099986
vt 0.233600006 0.681900024
vt 0.179199994 0.698300004
vt 0.147100002 0.697399974
vt 0.107100002 0.724799991
vt 0.106600001 0.75849998
vt 0.184599996 0.677999973
vt 0.435099989 0.667900026
vt 0.268999994 0.632700026
vt 0.214499995 0.903599977
vt 0.649800003 0.902999997
vt 0.701300025 0.885399997
vt 0.912899971 0.886699975
vt 0.922200024 0.648500025
vt 0.766099989 0.630599976
vt 0.9023 0.692300022
vt 0.786000013 0.586700022
vt 0.738699973 0.612200022
vt 0.754100025 0.578199983
vt 0.836700022 0.972800016
vt 0.878899992 0.997200012
vt 0.921199977 0.972800016
vt 0.836700022 0.901600003
vt 0.921199977 0.901600003
vt 0.188299999 0.573800027
vt 0.251899987 0.605000019
vt 0.251899987 0.573800027
vt 0.188299999 0.605000019
vt 0.251899987 0.652199984
vt 0.188299999 0.652199984
vt 0.188299999 0.553300023
vt 0.251899987 0.553300023
vt 0.183200002 0.505800009
vt 0.256999999 0.505800009
vt 0.109300002 0.53579998
vt 0.180899993 0.580799997
vt 0.180899993 0.53579998
vt 0.109300002 0.580799997
vt 0.1149 0.505299985
vt 0.1752 0.505299985
vt 0.109300002 0.661300004
vt 0.180899993 0.661300004
vt 0.145099998 0.689800024
vt 0.587300003 0.577300012
vt 0.509199977 0.627099991
vt 0.588699996 0.621500015
vt 0.507600009 0.576499999
vt 0.468300015 0.623399973
vt 0.467000008 0.582499981
vt 0.361499995 0.630299985
vt 0.360000014 0.582300007
vt 0.321099997 0.635399997
vt 0.319299996 0.579599977
vt 0.699899971 0.8398
vt 0.925300002 0.767199993
vt 0.925499976 0.841700017
vt 0.607800007 0.762899995
vt 0.649399996 0.85710001
vt 0.194100007 0.858399987
vt 0.147599995 0.784699976
vt 0.460299999 0.722000003
vt 0.582700014 0.720099986
vt 0.233600006 0.681900024
vt 0.179199994 0.698300004
vt 0.147100002 0.697399974
vt 0.107100002 0.724799991
vt 0.106600001 0.75849998
vt 0.184599996 0.677999973
vt 0.435099989 0.667900026
vt 0.268999994 0.632700026
vt 0.214499995 0.903599977
vt 0.649800003 0.902999997
vt 0.701300025 0.885399997
vt 0.912899971 0.886699975
vt 0.0496999994 0.505200028
vt 0.101199999 0.815400004
vt 0.100599997 0.505200028
vt 0.0500000007 0.996399999
vt 0.122299999 0.865499973
vt 0.121699996 0.813300014
vt 0.0500000007 0.996399999
vt 0.162100002 0.938499987
vt 0.164299995 0.872300029
vt 0.00989999995 0.504899979
vt 0.0500000007 0.996399999
vt 0.0496999994 0.505200028
vt 0.0027999999 0.996100008
vt 0.165900007 0.92049998
vt 0.236100003 0.996200025
vt 0.236100003 0.92049998
vt 0.165900007 0.996200025
vt 0.932200015 0.676199973
vt 0.984300017 0.996299982
vt 0.984300017 0.676199973
vt 0.932200015 0.996299982
vt 0.939999998 0.659300029
vt 0.976499975 0.659300029
vt 0.925199986 0.608200014
vt 0.99119997 0.608200014
vt 0.935800016 0.57249999
vt 0.980700016 0.57249999
vt 0.920700014 0.505599976
vt 0.995700002 0.505599976
vt 0.101199999 0.815400004
vt 0.0496999994 0.505200028
vt 0.100599997 0.505200028
vt 0.0500000007 0.996399999
vt 0.122299999 0.865499973
vt 0.121699996 0.813300014
vt 0.162100002 0.938499987
vt 0.164299995 0.872300029
vt 0.305900007 0.907800019
vt 0.263300002 0.962300003
vt 0.309100002 0.936999977
vt 0.234400004 0.907800019
vt 0.327899992 0.959399998
vt 0.304699987 0.990100026
vt 0.473199993 0.959399998
vt 0.512000024 0.990199983
vt 0.546899974 0.907800019
vt 0.493999988 0.907800019
vt 0.457500011 0.940999985
vt 0.474599987 0.909200013
vt 0.457500011 0.909200013
vt 0.474599987 0.940999985
vt 0.441500008 0.940999985
vt 0.441500008 0.909200013
vt 0.355800003 0.941100001
vt 0.355800003 0.909200013
vt 0.321799994 0.941100001
vt 0.321799994 0.909200013
vt 0.552200019 0.977999985
vt 0.595700026 0.923200011
vt 0.552100003 0.923300028
vt 0.595899999 0.977900028
vt 0.633899987 0.927600026
vt 0.634000003 0.97329998
vt 0.76789999 0.927299976
vt 0.768000007 0.97299999
vt 0.826600015 0.922599971
vt 0.826699972 0.977299988
vt 0.263300002 0.962300003
vt 0.305900007 0.907800019
vt 0.309100002 0.936999977
vt 0.234400004 0.907800019
vt 0.327899992 0.959399998
vt 0.304699987 0.990100026
vt 0.473199993 0.959399998
vt 0.512000024 0.990199983
vt 0.546899974 0.907800019
vt 0.493999988 0.907800019
vt 0.487100005 0.671000004
vt 0.452899992 0.631600022
vt 0.452899992 0.671000004
vt 0.487100005 0.631600022
vt 0.496199995 0.63349998
vt 0.561200023 0.677699983
vt 0.561200023 0.63349998
vt 0.496199995 0.677699983
vt 0.496199995 0.716099977
vt 0.561200023 0.716099977
vt 0.491899997 0.712100029
vt 0.459500015 0.674799979
vt 0.459500015 0.712100029
vt 0.491899997 0.674799979
vt 0.561200023 0.63349998
vt 0.496199995 0.677699983
vt 0.496199995 0.63349998
vt 0.561200023 0.677699983
vt 0.662800014 0.577300012
vt 0.603500009 0.612299979
vt 0.662800014 0.612299979
vt 0.603500009 0.577300012
vn -0.993932075 -0.0826415474 -0.0725906738
vn -0.998345057 -0.057408258 -0.00338220849
vn -0.998785615 -0.0488318353 -0.006538095
vn -0.998766443 -0.0496516468 -0.000553347458
vn -0.998629259 -0.0523171431 0.0015873603
vn -0.999656694 -0.0258198358 -0.00445321974
vn -0.999729983 -0.0230260747 -0.00312410691
vn 0 -0.755010729 -0.655712436
vn 0 -0.480966927 -0.876738738
vn 0 -0.641175214 -0.767394517
vn 0 -0.152633522 -0.988282858
vn 0 2.28847833e-16 -1
vn 0 2.28847833e-16 -1
vn 0 -0.513158702 -0.858293741
vn 0 -0.513158702 -0.858293741
vn 0 -0.346488763 0.938054123
vn 0 -0.619217005 0.785219906
vn 0 -0.346488763 0.938054123
vn 0 -0.786921783 0.61705276
vn 0 -0.924368879 0.381499901
vn 0 -0.981872706 0.189541524
vn 0 -0.990921042 -0.134445116
vn 0 -0.990921042 -0.134445116
vn 0.99393207 -0.0826415623 -0.0725907205
vn 0.998785615 -0.0488318452 -0.00653809746
vn 0.998345057 -0.0574082588 -0.00338221103
vn 0.998766443 -0.0496516515 -0.000553346852
vn 0.998629259 -0.0523171431 0.0015873603
vn 0.999656693 -0.0258198605 -0.00445321815
vn 0.999729983 -0.023026114 -0.00312411225
vn -0.939746741 0.341590296 0.0138611773
vn -1 0 0
vn -0.999719297 -0.0236757932 0.000885992798
vn -0.912190055 0.409750445 -0.00372514681
vn -0.895153207 0.445036911 0.0253551608
vn -0.981890145 0.189451165 4.55644914e-17
vn -0.999512312 -0.0311369395 -0.00237273751
vn -0.997613454 -0.0675512563 0.0142907262
vn -0.979605817 -0.198203707 0.032980814
vn -0.998691442 -0.0498227366 0.011536836
vn -0.992828756 -0.0877831259 -0.0811491484
vn -0.997368041 -0.0679472188 -0.0253014953
vn -0.995157382 -0.0982912035 -0.000790681159
vn -0.977995494 -0.173303282 0.116149842
vn -0.994240422 -0.0259927607 -0.103972879
vn -0.993422343 -0.106541106 0.0419647606
vn -0.996416163 -0.0719604477 0.0444581165
vn -0.61332724 0.789828904 1.75433585e-16
vn -0.612413665 0.788652423 0.0545606004
vn -0.4734033 0.866577014 0.157903754
vn -0.450200231 0.892888633 -0.0083450748
vn 0 -0.999840819 0.0178419733
vn 0 -0.99583988 0.0911204292
vn 0 -0.999840819 0.0178419733
vn 0 -0.968907294 0.247424039
vn 0 -0.471433162 0.881901794
vn 0 -0.471433162 0.881901794
vn 0 0.134447189 0.99092076
vn 0 0.514495449 0.85749311
vn 0 0.0762649156 0.99708759
vn 0 0 1
vn 0 0 1
vn 0 -0.965733145 -0.259537074
vn 0 -0.97073398 -0.240157323
vn 0 -0.723522297 -0.690301011
vn 0 -0.898552118 -0.438866826
vn 0 -0.820271784 -0.57197395
vn 0 -0.820271784 -0.57197395
vn 0 -0.843278859 -0.537476293
vn 0 -0.993812502 -0.111070748
vn 0 -0.996815077 0.0797477446
vn 0 -0.996815077 0.0797477446
vn 0 0.674740528 -0.738055025
vn 0 0.646807403 -0.762653384
vn 0 0.403696771 -0.914892845
vn 0 0.646807403 -0.762653384
vn 0 -0.0192259782 -0.999815164
vn 0 -0.0192259782 -0.999815164
vn 0 0.530090415 -0.847941125
vn 0 0.534515371 -0.845158753
vn 0 0.560189022 -0.828364811
vn 0 -0.999960712 -0.0088642176
vn 0 -0.978966506 0.204021027
vn 0 -0.999960712 -0.0088642176
vn 0 -0.862642718 0.505813741
vn 0 -0.812901913 0.582400618
vn 0 -0.944441382 0.328679899
vn 0 -0.998710062 0.0507761012
vn 0 -0.958834642 -0.283965013
vn 0 -0.578898596 -0.815399543
vn 0 -0.578898596 -0.815399543
vn 0.940359224 0.339903355 0.013792724
vn 1 0 0
vn 0.913044537 0.407843016 -0.00370780588
vn 0.999719297 -0.0236757932 0.000885992798
vn 0.896145755 0.443041368 0.0252414683
vn 0.982086535 0.188430458 4.56452081e-17
vn 0.99953118 -0.0305210176 -0.00242657797
vn 0.997668951 -0.0666449116 0.0146669557
vn 0.979605817 -0.198203707 0.032980814
vn 0.998706157 -0.0494830726 0.011723393
vn 0.992505061 -0.0887446277 -0.0840124669
vn 0.997368041 -0.0679472188 -0.0253014953
vn 0.995157382 -0.0982912035 -0.000790681159
vn 0.977995494 -0.173303282 0.116149842
vn 0.99375505 -0.0270625492 -0.108252108
vn 0.993173872 -0.108471453 0.0428906037
vn 0.99610517 -0.0756684162 0.0452634683
vn 0.615469946 0.788160356 1.76267235e-16
vn 0.61455704 0.786991304 0.0544456808
vn 0.475462939 0.865484952 0.157704763
vn 0.452213384 0.891870828 -0.00833556223
vn -0.999517407 -0.0305272356 -0.00574808366
vn -0.999478559 0.0162296568 -0.0279142894
vn -1 0 0
vn -0.998820163 -0.0477235026 -0.00898603099
vn -0.991981068 0.101678085 -0.0750674841
vn -0.898029128 -0.319850418 -0.302058597
vn -0.980298273 0.194008263 -0.0370956897
vn -0.998635826 0.0280743655 -0.0440263264
vn -0.92942899 -0.308266395 -0.202814159
vn 0 0.999996162 0.00277049485
vn 0 0.999996162 0.00277049485
vn 0 0.999996162 0.00277049485
vn 0 0.999996162 0.00277049485
vn 0 0 -1
vn 0 0 -1
vn 0 0 -1
vn 0 0 -1
vn 0 -0.9992203 -0.0394815381
vn 0 -0.999992383 -0.00390306821
vn 0 -0.992301196 -0.123848036
vn 0 -0.999992383 -0.00390306821
vn 0 -0.769762525 -0.638330366
vn 0 -0.994797049 -0.101876553
vn 0 -0.918955223 -0.394361888
vn 0 -0.73454145 -0.67856382
vn 0 -0.69965557 -0.714480289
vn 0 -0.98075851 -0.195224858
vn 0 -0.999974114 -0.00719527088
vn 0 -0.999974114 -0.00719527088
vn 0.99945711 0.018136642 -0.0275054018
vn 0.99957581 -0.0286209345 -0.00538913932
vn 1 0 0
vn 0.997908022 0.0612195115 -0.0207786117
vn 0.99186681 0.103294413 -0.0743672981
vn 0.898029087 -0.319850572 -0.302058554
vn 0.998624324 0.0295713446 -0.0433012061
vn 0.929428978 -0.308266402 -0.202814202
vn -1 0 0
vn -0.999767404 0.0214500714 0.00224309503
vn -1 0 0
vn -1 0 0
vn -0.997672989 0.0681446742 0.00221603784
vn -0.996757011 0.0804594426 0.00131897788
vn -0.998027357 0.0622428437 0.00819892221
vn -0.997622019 0.067586027 0.0135069198
vn -0.999273566 0.0302851552 0.023133311
vn -1 0 0
vn 0 -0.25424933 0.967138707
vn 0 -0.108840913 0.994059181
vn 0 -0.399368198 0.916790621
vn 0 -0.108840913 0.994059181
vn 0 -0.963618013 0.267283228
vn 0 -0.996828528 0.0795794296
vn 0 -0.98398888 -0.178229864
vn 0 -0.855751693 -0.517386741
vn 0 -0.342889636 -0.939375696
vn 0 -0.342889636 -0.939375696
vn 0 0.420075645 -0.907489092
vn 0 0.530206936 -0.847868271
vn 0 0.420075645 -0.907489092
vn 0 0.64004043 -0.768341232
vn 0 0.967009223 -0.254741364
vn 0 0.996912587 -0.0785193811
vn 0 0.976601442 0.215057257
vn 0 0.793668957 0.608349889
vn 0 0.330896166 0.94366717
vn 0 0.330896166 0.94366717
vn 0.999767404 0.0214500897 0.00224309694
vn 1 0 0
vn 1 0 0
vn 1 0 0
vn 0.997672985 0.0681447322 0.00221603972
vn 0.996757005 0.0804595109 0.001318979
vn 0.998027354 0.0622428967 0.00819892918
vn 0.997622015 0.0675860844 0.0135069313
vn 0.999273565 0.030285181 0.0231333307
vn 1 0 0
vn 0 1.53716696e-15 -1
vn 0 1.53716696e-15 -1
vn 0 1.53716696e-15 -1
vn 0 1.53716696e-15 -1
vn -1 0 0
vn -0.762293924 0.647231005 0
vn -1 0 0
vn -0.762293924 0.647231005 0
vn 0 1 0
vn 0 1 0
vn 0 -1.53716696e-15 1
vn 0 -1.53716696e-15 1
vn 0 -1.53716696e-15 1
vn 0 -1.53716696e-15 1
vn 1 0 0
vn 1 0 0
vn 1 0 0
vn 1 0 0
vn 0 -1 -2.67289315e-16
vn 0 -1 -2.67289315e-16
vn 0 -1 -2.67289315e-16
vn 0 -1 -2.67289315e-16

g gun05_submesh_0
usemtl TB10-LW-Newlambert5SG1
f 1/1/1 3/3/3 2/2/2
f 2/2/2 3/3/3 4/4/4
f 2/2/2 4/4/4 5/5/5
f 3/3/3 6/6/6 4/4/4
f 3/3/3 7/7/7 6/6/6
f 8/8/8 10/10/10 9/9/9
f 8/8/8 9/9/9 11/11/11
f 11/11/11 9/9/9 12/12/12
f 11/11/11 12/12/12 13/13/13
f 14/14/14 10/10/10 8/8/8
f 14/14/14 15/15/15 10/10/10
f 16/16/16 18/18/18 17/17/17
f 16/16/16 17/17/17 19/19/19
f 19/19/19 17/17/17 20/20/20
f 19/19/19 20/20/20 21/21/21
f 21/21/21 20/20/20 22/22/22
f 21/21/21 22/22/22 23/23/23
f 24/24/24 26/26/26 25/25/25
f 26/26/26 27/27/27 25/25/25
f 26/26/26 28/28/28 27/27/27
f 29/29/29 25/25/25 27/27/27
f 29/29/29 30/30/30 25/25/25
f 31/31/31 33/33/33 32/32/32
f 31/31/31 32/32/32 34/34/34
f 31/31/31 35/35/35 33/33/33
f 33/33/33 35/35/35 36/36/36
f 33/33/33 36/36/36 37/37/37
f 33/33/33 37/37/37 38/38/38
f 33/33/33 38/38/38 39/39/39
f 40/40/40 38/38/38 37/37/37
f 41/41/41 40/40/40 37/37/37
f 41/41/41 37/37/37 42/42/42
f 37/37/37 43/43/43 42/42/42
f 37/37/37 44/44/44 43/43/43
f 41/41/41 45/45/45 40/40/40
f 46/46/46 38/38/38 40/40/40
f 46/46/46 40/40/40 47/47/47
f 48/48/48 36/36/36 35/35/35
f 48/48/48 35/35/35 49/49/49
f 50/50/50 49/49/49 35/35/35
f 50/50/50 35/35/35 31/31/31
f 51/51/51 50/50/50 31/31/31
f 51/51/51 31/31/31 34/34/34
f 52/52/52 54/54/54 53/53/53
f 52/52/52 53/53/53 55/55/55
f 55/55/55 53/53/53 56/56/56
f 55/55/55 56/56/56 57/57/57
f 58/58/58 60/60/60 59/59/59
f 60/60/60 58/58/58 61/61/61
f 60/60/60 61/61/61 62/62/62
f 63/63/63 65/65/65 64/64/64
f 63/63/63 64/64/64 66/66/66
f 66/66/66 64/64/64 67/67/67
f 66/66/66 67/67/67 68/68/68
f 69/69/69 65/65/65 63/63/63
f 69/69/69 70/70/70 65/65/65
f 71/71/71 70/70/70 69/69/69
f 71/71/71 72/72/72 70/70/70
f 73/73/73 75/75/75 74/74/74
f 73/73/73 74/74/74 76/76/76
f 77/77/77 75/75/75 73/73/73
f 77/77/77 78/78/78 75/75/75
f 79/79/79 76/76/76 74/74/74
f 79/79/79 74/74/74 80/80/80
f 81/81/81 79/79/79 80/80/80
f 82/82/82 84/84/84 83/83/83
f 82/82/82 83/83/83 85/85/85
f 85/85/85 83/83/83 86/86/86
f 85/85/85 86/86/86 87/87/87
f 87/87/87 86/86/86 88/88/88
f 87/87/87 88/88/88 89/89/89
f 89/89/89 88/88/88 90/90/90
f 89/89/89 90/90/90 91/91/91
f 92/92/92 94/94/94 93/93/93
f 92/92/92 93/93/93 95/95/95
f 92/92/92 95/95/95 96/96/96
f 95/95/95 97/97/97 96/96/96
f 95/95/95 98/98/98 97/97/97
f 95/95/95 99/99/99 98/98/98
f 95/95/95 100/100/100 99/99/99
f 101/101/101 98/98/98 99/99/99
f 102/102/102 98/98/98 101/101/101
f 102/102/102 103/103/103 98/98/98
f 104/104/104 98/98/98 103/103/103
f 104/104/104 105/105/105 98/98/98
f 102/102/102 101/101/101 106/106/106
f 107/107/107 101/101/101 99/99/99
f 107/107/107 108/108/108 101/101/101
f 96/96/96 97/97/97 109/109/109
f 96/96/96 109/109/109 110/110/110
f 111/111/111 96/96/96 110/110/110
f 111/111/111 92/92/92 96/96/96
f 112/112/112 92/92/92 111/111/111
f 112/112/112 94/94/94 92/92/92
f 113/113/113 115/115/115 114/114/114
f 113/113/113 114/114/114 116/116/116
f 117/117/117 114/114/114 118/118/118
f 119/119/119 114/114/114 117/117/117
f 120/120/120 119/119/119 117/117/117
f 120/120/120 117/117/117 121/121/121
f 122/122/122 124/124/124 123/123/123
f 122/122/122 123/123/123 125/125/125
f 126/126/126 128/128/128 127/127/127
f 126/126/126 127/127/127 129/129/129
f 130/130/130 132/132/132 131/131/131
f 130/130/130 131/131/131 133/133/133
f 134/134/134 132/132/132 130/130/130
f 134/134/134 135/135/135 132/132/132
f 136/136/136 135/135/135 134/134/134
f 136/136/136 137/137/137 135/135/135
f 138/138/138 137/137/137 136/136/136
f 138/138/138 139/139/139 137/137/137
f 140/140/140 139/139/139 138/138/138
f 140/140/140 141/141/141 139/139/139
f 142/142/142 144/144/144 143/143/143
f 142/142/142 143/143/143 145/145/145
f 145/145/145 146/146/146 142/142/142
f 146/146/146 147/147/147 142/142/142
f 148/148/148 146/146/146 145/145/145
f 148/148/148 149/149/149 146/146/146
f 150/150/150 152/152/152 151/151/151
f 150/150/150 151/151/151 153/153/153
f 151/151/151 152/152/152 154/154/154
f 151/151/151 154/154/154 155/155/155
f 155/155/155 154/154/154 156/156/156
f 155/155/155 156/156/156 157/157/157
f 156/156/156 158/158/158 157/157/157
f 156/156/156 159/159/159 158/158/158
f 160/160/160 162/162/162 161/161/161
f 160/160/160 161/161/161 163/163/163
f 164/164/164 162/162/162 160/160/160
f 164/164/164 165/165/165 162/162/162
f 166/166/166 165/165/165 164/164/164
f 166/166/166 167/167/167 165/165/165
f 168/168/168 167/167/167 166/166/166
f 168/168/168 169/169/169 167/167/167
f 170/170/170 172/172/172 171/171/171
f 170/170/170 171/171/171 173/173/173
f 173/173/173 171/171/171 174/174/174
f 173/173/173 174/174/174 175/175/175
f 175/175/175 174/174/174 176/176/176
f 175/175/175 176/176/176 177/177/177
f 177/177/177 176/176/176 178/178/178
f 177/177/177 178/178/178 179/179/179
f 180/180/180 182/182/182 181/181/181
f 180/180/180 181/181/181 183/183/183
f 180/180/180 184/184/184 182/182/182
f 180/180/180 185/185/185 184/184/184
f 185/185/185 186/186/186 184/184/184
f 185/185/185 187/187/187 186/186/186
f 188/188/188 186/186/186 187/187/187
f 188/188/188 189/189/189 186/186/186
f 190/190/190 192/192/192 191/191/191
f 190/190/190 191/191/191 193/193/193
f 194/194/194 196/196/196 195/195/195
f 194/194/194 195/195/195 197/197/197
f 198/198/198 197/197/197 195/195/195
f 198/198/198 195/195/195 199/199/199
f 200/200/200 202/202/202 201/201/201
f 200/200/200 201/201/201 203/203/203
f 204/204/204 206/206/206 205/205/205
f 204/204/204 205/205/205 207/207/207
f 208/208/208 210/210/210 209/209/209
f 208/208/208 209/209/209 211/211/211
