# Generated by tools/yaml_mesh_converter/split_reload_parts.py
mtllib gun04.mtl
o gun04_reload
v -0.0549686216 0.0208542647 -0.0151832253
vt 0.609499991 0.0784000009
vn -0.997955083 -0.0598968469 -0.0223163527
v -0.0485582873 0.0723882693 -0.325489223
vt 0.371300012 0.114699997
vn -0.997930721 -0.0639400405 -0.00677838997
v -0.0485582873 0.0137579891 -0.257072717
vt 0.424199998 0.0703999996
vn -0.965162636 -0.261389779 -0.0116820405
v -0.0485582873 0.0137579891 -0.257072717
vt 0.424199998 0.0703999996
vn -0.965162636 -0.261389779 -0.0116820405
v -0.0485582873 0.0723882693 -0.325489223
vt 0.371300012 0.114699997
vn -0.997930721 -0.0639400405 -0.00677838997
v -0.0485582873 0.012791008 -0.283980668
vt 0.403699994 0.0693999976
vn -1 0 0
v -0.0485582873 0.0137579891 -0.257072717
vt 0.424199998 0.0703999996
vn -0.965162636 -0.261389779 -0.0116820405
v -0.0344555527 -0.00922065949 -0.0526129119
vt 0.580799997 0.0502999984
vn -0.860165718 -0.510010676 0.00201180269
v -0.0549686216 0.0208542647 -0.0151832253
vt 0.609499991 0.0784000009
vn -0.997955083 -0.0598968469 -0.0223163527
v -0.0485582873 0.0137579891 -0.257072717
vt 0.424199998 0.0703999996
vn -0.965162636 -0.261389779 -0.0116820405
v -0.0344555527 -0.0146179346 -0.237154156
vt 0.439599991 0.0460000001
vn -0.898980252 -0.437801959 0.0128043875
v -0.0344555527 -0.00922065949 -0.0526129119
vt 0.580799997 0.0502999984
vn -0.860165718 -0.510010676 0.00201180269
v 0.0485582948 0.012791008 -0.283980668
vt 0.246600002 0.397799999
vn 0 -0.680924442 -0.732353674
v -0.0485582873 0.0723882693 -0.325489223
vt 0.190099999 0.486000001
vn 0 -0.912075501 -0.410022293
v 0.0485582948 0.0723882693 -0.325489223
vt 0.190099999 0.397799999
vn 0 -0.979738978 -0.200278645
v 0.0485582948 0.012791008 -0.283980668
vt 0.246600002 0.397799999
vn 0 -0.680924442 -0.732353674
v -0.0485582873 0.012791008 -0.283980668
vt 0.246600002 0.486000001
vn 0 -0.855631594 -0.517585332
v -0.0485582873 0.0723882693 -0.325489223
vt 0.190099999 0.486000001
vn 0 -0.912075501 -0.410022293
v 0.0485582948 0.0137579891 -0.257072717
vt 0.269800007 0.397799999
vn 0 -0.883790235 -0.46788334
v -0.0485582873 0.012791008 -0.283980668
vt 0.246600002 0.486000001
vn 0 -0.855631594 -0.517585332
v 0.0485582948 0.012791008 -0.283980668
vt 0.246600002 0.397799999
vn 0 -0.680924442 -0.732353674
v 0.0485582948 0.0137579891 -0.257072717
vt 0.269800007 0.397799999
vn 0 -0.883790235 -0.46788334
v -0.0485582873 0.0137579891 -0.257072717
vt 0.269800007 0.486000001
vn 0 -0.863028116 -0.505155888
v -0.0485582873 0.012791008 -0.283980668
vt 0.246600002 0.486000001
vn 0 -0.855631594 -0.517585332
v 0.0485582948 0.0137579891 -0.257072717
vt 0.269800007 0.397799999
vn 0 -0.883790235 -0.46788334
v -0.0344555527 -0.0146179346 -0.237154156
vt 0.294400007 0.472900003
vn 0 -0.965076462 -0.261968362
v -0.0485582873 0.0137579891 -0.257072717
vt 0.269800007 0.486000001
vn 0 -0.863028116 -0.505155888
v 0.0485582948 0.0137579891 -0.257072717
vt 0.269800007 0.397799999
vn 0 -0.883790235 -0.46788334
v 0.0341350399 -0.0146179346 -0.237154156
vt 0.294400007 0.41080001
vn 0 -0.998980213 -0.0451501204
v -0.0344555527 -0.0146179346 -0.237154156
vt 0.294400007 0.472900003
vn 0 -0.965076462 -0.261968362
v 0.0341350399 -0.0146179346 -0.237154156
vt 0.294400007 0.41080001
vn 0 -0.998980213 -0.0451501204
v -0.0344555527 -0.00922065949 -0.0526129119
vt 0.437599987 0.472900003
vn 0 -0.994984158 0.100032624
v -0.0344555527 -0.0146179346 -0.237154156
vt 0.294400007 0.472900003
vn 0 -0.965076462 -0.261968362
v 0.0341350399 -0.0146179346 -0.237154156
vt 0.294400007 0.41080001
vn 0 -0.998980213 -0.0451501204
v 0.0341350399 -0.00922065949 -0.0526129119
vt 0.437599987 0.41080001
vn 0 -0.958676061 0.28449993
v -0.0344555527 -0.00922065949 -0.0526129119
vt 0.437599987 0.472900003
vn 0 -0.994984158 0.100032624
v -0.0549686216 0.0208542647 -0.0151832253
vt 0.474900007 0.491699994
vn 0 -0.779534383 0.626359438
v -0.0344555527 -0.00922065949 -0.0526129119
vt 0.437599987 0.472900003
vn 0 -0.994984158 0.100032624
v 0.0341350399 -0.00922065949 -0.0526129119
vt 0.437599987 0.41080001
vn 0 -0.958676061 0.28449993
v -0.0549686216 0.0208542647 -0.0151832253
vt 0.474900007 0.491699994
vn 0 -0.779534383 0.626359438
v 0.0341350399 -0.00922065949 -0.0526129119
vt 0.437599987 0.41080001
vn 0 -0.958676061 0.28449993
v 0.054968629 0.0208542647 -0.0151832253
vt 0.474900007 0.39199999
vn 0 -0.779534383 0.626359438
v 0.054968629 0.0208542647 -0.0151832253
vt 0.609499991 0.0784000009
vn 0.997922293 -0.0604144464 -0.0223873284
v 0.0485582948 0.0137579891 -0.257072717
vt 0.424199998 0.0703999996
vn 0.963995006 -0.265670122 -0.0115332378
v 0.0485582948 0.0723882693 -0.325489223
vt 0.371300012 0.114699997
vn 0.99793072 -0.0639400665 -0.00677839264
v 0.0485582948 0.0137579891 -0.257072717
vt 0.424199998 0.0703999996
vn 0.963995006 -0.265670122 -0.0115332378
v 0.0485582948 0.012791008 -0.283980668
vt 0.403699994 0.0693999976
vn 1 0 0
v 0.0485582948 0.0723882693 -0.325489223
vt 0.371300012 0.114699997
vn 0.99793072 -0.0639400665 -0.00677839264
v 0.0341350399 -0.00922065949 -0.0526129119
vt 0.580799997 0.0502999984
vn 0.855981871 -0.517000812 0.00227949325
v 0.0485582948 0.0137579891 -0.257072717
vt 0.424199998 0.0703999996
vn 0.963995006 -0.265670122 -0.0115332378
v 0.054968629 0.0208542647 -0.0151832253
vt 0.609499991 0.0784000009
vn 0.997922293 -0.0604144464 -0.0223873284
v 0.0341350399 -0.00922065949 -0.0526129119
vt 0.580799997 0.0502999984
vn 0.855981871 -0.517000812 0.00227949325
v 0.0341350399 -0.0146179346 -0.237154156
vt 0.439599991 0.0460000001
vn 0.895042254 -0.445790728 0.013038035
v 0.0485582948 0.0137579891 -0.257072717
vt 0.424199998 0.0703999996
vn 0.963995006 -0.265670122 -0.0115332378
v 3.72499999769e-09 0.046621267 -0.17033622415
vt 0.371300012 0.114699997
vn 0 0.986488442784 0.163830864776
v -0.0485582873 0.0723882693 -0.325489223
vt 0.371300012 0.114699997
vn 0 0.986488442784 0.163830864776
v -0.0549686216 0.0208542647 -0.0151832253
vt 0.371300012 0.114699997
vn 0 0.986488442784 0.163830864776
v 3.72499999769e-09 0.046621267 -0.17033622415
vt 0.371300012 0.114699997
vn 0 0.986488442784 0.163830864776
v -0.0549686216 0.0208542647 -0.0151832253
vt 0.371300012 0.114699997
vn 0 0.986488442784 0.163830864776
v 0.054968629 0.0208542647 -0.0151832253
vt 0.371300012 0.114699997
vn 0 0.986488442784 0.163830864776
v 3.72499999769e-09 0.046621267 -0.17033622415
vt 0.371300012 0.114699997
vn 0 0.986488442784 0.163830864776
v 0.054968629 0.0208542647 -0.0151832253
vt 0.371300012 0.114699997
vn 0 0.986488442784 0.163830864776
v 0.0485582948 0.0723882693 -0.325489223
vt 0.371300012 0.114699997
vn 0 0.986488442784 0.163830864776
v 3.72499999769e-09 0.046621267 -0.17033622415
vt 0.371300012 0.114699997
vn 0 0.986488442784 0.163830864776
v 0.0485582948 0.0723882693 -0.325489223
vt 0.371300012 0.114699997
vn 0 0.986488442784 0.163830864776
v -0.0485582873 0.0723882693 -0.325489223
vt 0.371300012 0.114699997
vn 0 0.986488442784 0.163830864776
usemtl FL334AR-Newlambert2
f 1/1/1 2/2/2 3/3/3
f 4/4/4 5/5/5 6/6/6
f 7/7/7 8/8/8 9/9/9
f 10/10/10 11/11/11 12/12/12
f 13/13/13 14/14/14 15/15/15
f 16/16/16 17/17/17 18/18/18
f 19/19/19 20/20/20 21/21/21
f 22/22/22 23/23/23 24/24/24
f 25/25/25 26/26/26 27/27/27
f 28/28/28 29/29/29 30/30/30
f 31/31/31 32/32/32 33/33/33
f 34/34/34 35/35/35 36/36/36
f 37/37/37 38/38/38 39/39/39
f 40/40/40 41/41/41 42/42/42
f 43/43/43 44/44/44 45/45/45
f 46/46/46 47/47/47 48/48/48
f 49/49/49 50/50/50 51/51/51
f 52/52/52 53/53/53 54/54/54
f 55/55/55 56/56/56 57/57/57
f 58/58/58 59/59/59 60/60/60
f 61/61/61 62/62/62 63/63/63
f 64/64/64 65/65/65 66/66/66
