# Generated by tools/yaml_mesh_converter/split_fr28a.py; do not hand-edit.
# Source gun00.obj normalized SHA256: 6a3e13be8d5f155ee860d379e5ff2b1cd5d483459c4747e6e36ab3320ebce531
# Original coordinates, UVs, normals and material; no centering or scaling.
mtllib gun00.mtl

o gun00_magazine
v -0.07475999 -0.0459784493 -0.203198969
v -0.07475999 -0.000272117555 -0.260597646
v -0.0496037863 -0.168216377 -0.30169791
v -0.0496037863 -0.16467309 -0.370080292
v 0.0747600049 -0.000272117555 -0.260597646
v -0.07475999 -0.000272117555 -0.260597646
v 0.0496037975 -0.16467309 -0.370080292
v -0.0496037863 -0.16467309 -0.370080292
v 0.0496037975 -0.168216377 -0.30169791
v -0.0496037863 -0.168216377 -0.30169791
v 0.0747600049 -0.0459784493 -0.203198969
v -0.07475999 -0.0459784493 -0.203198969
v 0.0747600049 -0.0459784493 -0.203198969
v 0.0747600049 -0.000272117555 -0.260597646
v 0.0496037975 -0.168216377 -0.30169791
v 0.0496037975 -0.16467309 -0.370080292
vt 0.406800002 0.601999998
vt 0.363900006 0.636600018
vt 0.331699997 0.510100007
vt 0.280499995 0.513100028
vt 0.987600029 0.688399971
vt 0.921700001 0.688300014
vt 0.976400018 0.790600002
vt 0.932500005 0.790499985
vt 0.976300001 0.825999975
vt 0.932399988 0.825900018
vt 0.987200022 0.907199979
vt 0.921199977 0.907000005
vt 0.406800002 0.601999998
vt 0.363900006 0.636600018
vt 0.331699997 0.510100007
vt 0.280499995 0.513100028
vn -0.998683464 -0.040128306 -0.031954006
vn -0.992276973 -0.115503535 -0.0452254508
vn -0.989396587 -0.135241559 -0.0529538814
vn -0.989208674 -0.146317186 -0.00758154133
vn 0 0.345349538 -0.938474132
vn 0 0.471175583 -0.882039438
vn 0 0.444187371 -0.895933914
vn 0 -0.157115099 -0.987580298
vn 0 -0.898183098 0.439621568
vn 0 -0.721153412 0.692775401
vn 0 -0.670679316 0.741747434
vn 0 -0.701637995 0.712533594
vn 0.998683463 -0.040128312 -0.0319540108
vn 0.992276971 -0.115503552 -0.0452254574
vn 0.989396584 -0.135241579 -0.0529538891
vn 0.989208671 -0.146317207 -0.00758154243
vn -0 0.782280291737 0.622926596927

g material_FR28A-Newlambert2
usemtl FR28A-Newlambert2
f 2/2/2 3/3/3 1/1/1
f 2/2/2 4/4/4 3/3/3
f 7/7/7 6/6/6 5/5/5
f 7/7/7 8/8/8 6/6/6
f 9/9/9 8/8/8 7/7/7
f 9/9/9 10/10/10 8/8/8
f 11/11/11 10/10/10 9/9/9
f 11/11/11 12/12/12 10/10/10
f 15/15/15 14/14/14 13/13/13
f 15/15/15 16/16/16 14/14/14
# Magazine top cap: original four boundary corners, dark shell UV sample.
f 1/1/17 13/1/17 14/1/17
f 1/1/17 14/1/17 2/1/17
