# Generated from legacy Unity YAML Mesh assets without Unity.
mtllib gun08.mtl

o gun08
v -0.0128097693 0.26167807 -0.277462333
v -0.0179881882 0.247505471 -0.242576152
v -0.0128097693 0.240419179 -0.258656502
v -0.0196234751 0.280483782 -0.271466285
v 0.0125372233 0.240419179 -0.258656502
v 0.0177156404 0.247505471 -0.242576152
v 0.019350931 0.280483782 -0.271466285
v 0.0125372233 0.26167807 -0.277462333
v -0.00981173757 0.224338919 -0.302264214
v -0.00981173757 0.208803684 -0.288364261
v 0.00953919254 0.224338919 -0.302264214
v 0.0188058354 0.293021142 -0.194607645
v -0.0220764112 0.293021142 -0.194607645
v -0.0138999661 0.335538566 -0.236034989
v -0.024801895 0.330360264 -0.223225221
v 0.0136274165 0.335538566 -0.236034989
v -0.0220764112 0.293021142 -0.194607645
v -0.0128097693 0.240419179 -0.258656502
v 0.00953919254 0.208803684 -0.288364261
v -0.00981173757 0.208803684 -0.288364261
v 0.0188058354 0.293021142 -0.194607645
v 0.0242567994 0.330360264 -0.223225221
v -0.0220764112 0.293021142 -0.194607645
v -0.0138999661 0.335538566 -0.236034989
v 0.0136274165 0.335538566 -0.236034989
v 0.0177156404 0.247505471 -0.242576152
v 0.0125372233 0.26167807 -0.277462333
v 0.0125372233 0.240419179 -0.258656502
v 0.019350931 0.280483782 -0.271466285
v 0.00953919254 0.224338919 -0.302264214
v 0.00953919254 0.208803684 -0.288364261
v 0.0242567994 0.330360264 -0.223225221
v 0.0136274165 0.335538566 -0.236034989
v 0.0188058354 0.293021142 -0.194607645
v -0.0117195779 0.13385281 0.11691507
v -0.0117195779 0.168193907 0.34040466
v -0.0117195779 0.13385281 0.34040466
v -0.0117195779 0.168193907 0.11691507
v -0.0144450618 0.181548893 0.355667382
v -0.0117195779 0.104962774 0.381559461
v -0.0212587677 0.183184117 0.410994679
v -0.0117195779 0.0112061873 0.434433848
v -0.0117195779 0.000304229558 0.416718274
v 0.0106293838 0.168193907 0.34040466
v 0.0106293838 0.13385281 0.11691507
v 0.0106293838 0.13385281 0.34040466
v 0.0106293838 0.168193907 0.11691507
v 0.0133548677 0.181548893 0.355667382
v 0.0106293838 0.104962774 0.381559461
v 0.0204411242 0.183184117 0.410994679
v 0.0106293838 0.0112061873 0.434433848
v 0.0106293838 0.000304229558 0.416718274
v 0.0106293838 0.13385281 0.34040466
v -0.0117195779 0.13385281 0.11691507
v -0.0117195779 0.13385281 0.34040466
v 0.0106293838 0.13385281 0.11691507
v 0.0106293838 0.104962774 0.381559461
v -0.0117195779 0.104962774 0.381559461
v 0.0106293838 0.000304229558 0.416718274
v -0.0117195779 0.000304229558 0.416718274
v 0.0106293838 0.168193907 0.11691507
v -0.0117195779 0.168193907 0.34040466
v -0.0117195779 0.168193907 0.11691507
v 0.0106293838 0.168193907 0.34040466
v -0.0144450618 0.181548893 0.355667382
v 0.0133548677 0.181548893 0.355667382
v -0.0212587677 0.183184117 0.410994679
v 0.0204411242 0.183184117 0.410994679
v -0.0117195779 0.0112061873 0.434433848
v 0.0106293838 0.0112061873 0.434433848
v -0.0117195779 0.000304229558 0.416718274
v 0.0106293838 0.000304229558 0.416718274
v -0.0346136317 0.12213324 0.0962014124
v -0.0335234404 0.182638943 0.007623218
v -0.0310705062 0.183729142 0.0842092857
v -0.0381567664 0.10632541 -0.0294433758
v -0.0286175702 0.0744373277 0.0632230863
v -0.0267097354 0.0523609892 -0.0188139677
v -0.022348959 0.0534510389 -0.122654893
v -0.0395195037 0.10632541 -0.153452843
v -0.0283450224 0.0373707786 0.00735066086
v -0.0277999267 0.036007978 0.0708544031
v -0.031343054 -0.0264055431 0.0302447006
v -0.0310705062 -0.0471192449 0.117732726
v -0.0367940217 -0.117981717 -0.0111826137
v -0.0294352192 -0.0288585722 -0.0231747404
v -0.0395195037 -0.119071916 0.177148253
v -0.0310705062 -0.0648349077 0.156707138
v -0.0261646397 0.174735188 0.121820949
v -0.0346136317 0.194903702 -0.0291708186
v -0.0395195037 0.160017565 -0.26710549
v -0.0395195037 0.10632541 -0.169805765
v -0.0357038304 0.215617388 -0.0520648621
v -0.0395195037 0.160017565 -0.325975925
v -0.0395195037 0.215072215 -0.651398599
v -0.0395195037 0.160017565 -0.585714459
v -0.0348861851 0.0962412357 -0.325975925
v -0.0348861851 0.0962412357 -0.585714459
v -0.0250744428 0.0749823526 -0.55600673
v -0.0250744428 0.0749823526 -0.348052353
v -0.0395195037 0.160017565 -0.651398599
v 0 0.235785902 -0.0746863931
v 0 0.232515275 -0.647855461
v -0.0395195037 0.10632541 -0.251842797
v -0.0275273789 0.0635353774 -0.169805765
v -0.0275273789 0.0635353774 -0.251842797
v -0.0395195037 0.10632541 -0.26710549
v -0.0261646397 0.125948906 0.120185666
v -0.0357038304 0.215617388 -0.0520648621
v 0 0.235785902 -0.0746863931
v 0.0354312807 0.215617388 -0.0520648621
v -0.0346136317 0.194903702 -0.0291708186
v 0.0346136354 0.194903702 -0.0291708186
v -0.0335234404 0.182638943 0.007623218
v 0.0332508981 0.182638943 0.007623218
v -0.0310705062 0.183729142 0.0842092857
v 0.0307979602 0.183729142 0.0842092857
v -0.0261646397 0.174735188 0.121820949
v 0.0261646397 0.174735188 0.121820949
v -0.0261646397 0.125948906 0.120185666
v 0.0261646397 0.125948906 0.120185666
v 0.0223489627 0.0534510389 -0.122654893
v -0.0395195037 0.10632541 -0.153452843
v -0.022348959 0.0534510389 -0.122654893
v 0.0395195074 0.10632541 -0.153452843
v 0.0267097354 0.0523609892 -0.0188139677
v -0.0267097354 0.0523609892 -0.0188139677
v 0.0280724764 0.0373707786 0.00735066086
v -0.0283450224 0.0373707786 0.00735066086
v 0.0313430578 -0.0264055431 0.0302447006
v -0.031343054 -0.0264055431 0.0302447006
v 0.0346136354 0.12213324 0.0962014124
v -0.0286175702 0.0744373277 0.0632230863
v -0.0346136317 0.12213324 0.0962014124
v 0.0283450242 0.0744373277 0.0632230863
v -0.0277999267 0.036007978 0.0708544031
v 0.0275273807 0.036007978 0.0708544031
v -0.0310705062 -0.0471192449 0.117732726
v 0.0310705081 -0.0471192449 0.117732726
v -0.0310705062 -0.0648349077 0.156707138
v 0.0310705081 -0.0648349077 0.156707138
v -0.0395195037 -0.119071916 0.177148253
v 0.0395195074 -0.119071916 0.177148253
v 0.0261646397 0.125948906 0.120185666
v -0.0261646397 0.125948906 0.120185666
v 0.0294352192 -0.0288585722 -0.0231747404
v -0.031343054 -0.0264055431 0.0302447006
v -0.0294352192 -0.0288585722 -0.0231747404
v 0.0313430578 -0.0264055431 0.0302447006
v 0.0367940255 -0.117981717 -0.0111826137
v -0.0294352192 -0.0288585722 -0.0231747404
v -0.0367940217 -0.117981717 -0.0111826137
v 0.0294352192 -0.0288585722 -0.0231747404
v 0.0395195074 -0.119071916 0.177148253
v -0.0367940217 -0.117981717 -0.0111826137
v -0.0395195037 -0.119071916 0.177148253
v 0.0367940255 -0.117981717 -0.0111826137
v 0.027254831 0.0635353774 -0.251842797
v -0.0395195037 0.10632541 -0.251842797
v -0.0275273789 0.0635353774 -0.251842797
v 0.0395195074 0.10632541 -0.251842797
v 0.027254831 0.0635353774 -0.169805765
v -0.0275273789 0.0635353774 -0.251842797
v -0.0275273789 0.0635353774 -0.169805765
v 0.027254831 0.0635353774 -0.251842797
v 0.0395195074 0.10632541 -0.169805765
v -0.0275273789 0.0635353774 -0.169805765
v -0.0395195037 0.10632541 -0.169805765
v 0.027254831 0.0635353774 -0.169805765
v 0.0395195074 0.10632541 -0.251842797
v -0.0395195037 0.10632541 -0.26710549
v -0.0395195037 0.10632541 -0.251842797
v 0.0395195074 0.10632541 -0.26710549
v 0.0395195074 0.10632541 -0.26710549
v -0.0395195037 0.160017565 -0.26710549
v -0.0395195037 0.10632541 -0.26710549
v 0.0395195074 0.160017565 -0.26710549
v 0.0395195074 0.10632541 -0.153452843
v -0.0395195037 0.10632541 -0.169805765
v -0.0395195037 0.10632541 -0.153452843
v 0.0395195074 0.10632541 -0.169805765
v 0.0346136354 0.0962412357 -0.585714459
v -0.0395195037 0.160017565 -0.585714459
v -0.0348861851 0.0962412357 -0.585714459
v 0.0395195074 0.160017565 -0.585714459
v 0.0250744466 0.0749823526 -0.55600673
v -0.0250744428 0.0749823526 -0.55600673
v 0.0250744466 0.0749823526 -0.348052353
v -0.0250744428 0.0749823526 -0.348052353
v 0.0346136354 0.0962412357 -0.325975925
v -0.0348861851 0.0962412357 -0.325975925
v 0.0395195074 0.160017565 -0.325975925
v -0.0395195037 0.160017565 -0.325975925
v 0.0395195074 0.160017565 -0.26710549
v -0.0395195037 0.160017565 -0.325975925
v -0.0395195037 0.160017565 -0.26710549
v 0.0395195074 0.160017565 -0.325975925
v 0.0395195074 0.215072215 -0.651398599
v -0.0395195037 0.160017565 -0.651398599
v 0.0395195074 0.160017565 -0.651398599
v -0.0395195037 0.215072215 -0.651398599
v 0.0395195074 0.160017565 -0.585714459
v -0.0395195037 0.160017565 -0.585714459
v 0 0.232515275 -0.647855461
v 0.0332508981 0.182638943 0.007623218
v 0.0346136354 0.12213324 0.0962014124
v 0.0307979602 0.183729142 0.0842092857
v 0.0381567664 0.10632541 -0.0294433758
v 0.0283450242 0.0744373277 0.0632230863
v 0.0267097354 0.0523609892 -0.0188139677
v 0.0223489627 0.0534510389 -0.122654893
v 0.0395195074 0.10632541 -0.153452843
v 0.0280724764 0.0373707786 0.00735066086
v 0.0275273807 0.036007978 0.0708544031
v 0.0313430578 -0.0264055431 0.0302447006
v 0.0310705081 -0.0471192449 0.117732726
v 0.0367940255 -0.117981717 -0.0111826137
v 0.0294352192 -0.0288585722 -0.0231747404
v 0.0395195074 -0.119071916 0.177148253
v 0.0310705081 -0.0648349077 0.156707138
v 0.0261646397 0.174735188 0.121820949
v 0.0261646397 0.125948906 0.120185666
v 0.0346136354 0.194903702 -0.0291708186
v 0.0395195074 0.160017565 -0.26710549
v 0.0395195074 0.10632541 -0.169805765
v 0.0354312807 0.215617388 -0.0520648621
v 0.0395195074 0.160017565 -0.325975925
v 0.0395195074 0.215072215 -0.651398599
v 0.0395195074 0.160017565 -0.585714459
v 0.0346136354 0.0962412357 -0.325975925
v 0.0346136354 0.0962412357 -0.585714459
v 0.0250744466 0.0749823526 -0.55600673
v 0.0250744466 0.0749823526 -0.348052353
v 0.0395195074 0.160017565 -0.651398599
v 0 0.235785902 -0.0746863931
v 0 0.232515275 -0.647855461
v 0.0395195074 0.10632541 -0.251842797
v 0.027254831 0.0635353774 -0.169805765
v 0.027254831 0.0635353774 -0.251842797
v 0.0395195074 0.10632541 -0.26710549
v 0.012809772 0.113956898 -0.602067351
v -0.0119921258 0.139031276 -0.602067351
v -0.0119921258 0.113956898 -0.602067351
v 0.012809772 0.139031276 -0.602067351
v -0.0119921258 0.139031276 -0.25838396
v -0.0119921258 0.113956898 -0.25838396
v 0.012809772 0.113956898 -0.25838396
v -0.0119921258 0.113956898 -0.602067351
v 0.012809772 0.113956898 -0.602067351
v 0.012809772 0.139031276 -0.602067351
v -0.0119921258 0.139031276 -0.602067351
v 0.012809772 0.139031276 -0.25838396
v 0.012809772 0.113956898 -0.25838396
v 0.012809772 0.139031276 -0.602067351
v 0.012809772 0.113956898 -0.602067351
v 0.012809772 0.139031276 -0.25838396
vt 0.529900014 0.592499971
vt 0.580299973 0.620800018
vt 0.575399995 0.594099998
vt 0.525300026 0.619300008
vt 0.61650002 0.586499989
vt 0.630400002 0.610400021
vt 0.467200011 0.603699982
vt 0.488000005 0.5801
vt 0.541100025 0.524299979
vt 0.572700024 0.525699973
vt 0.510100007 0.516099989
vt 0.647400022 0.699999988
vt 0.58829999 0.710099995
vt 0.500999987 0.702899992
vt 0.524800003 0.708599985
vt 0.459300011 0.695299983
vt 0.58829999 0.710099995
vt 0.575399995 0.594099998
vt 0.603699982 0.521899998
vt 0.572700024 0.525699973
vt 0.595000029 0.769900024
vt 0.532800019 0.7852
vt 0.58829999 0.710099995
vt 0.506699979 0.731400013
vt 0.511200011 0.771799982
vt 0.580299973 0.620800018
vt 0.529900014 0.592499971
vt 0.575399995 0.594099998
vt 0.525300026 0.619300008
vt 0.541100025 0.524299979
vt 0.572700024 0.525699973
vt 0.524800003 0.708599985
vt 0.500999987 0.702899992
vt 0.58829999 0.710099995
vt 0.0738999993 0.867900014
vt 0.0306000002 0.64410001
vt 0.0734999999 0.637499988
vt 0.0313000008 0.867999971
vt 0.0137999998 0.620899975
vt 0.1096 0.583800018
vt 0.0116999997 0.540499985
vt 0.226899996 0.507799983
vt 0.2403 0.533200026
vt 0.0306000002 0.64410001
vt 0.0738999993 0.867900014
vt 0.0734999999 0.637499988
vt 0.0313000008 0.867999971
vt 0.0137999998 0.620899975
vt 0.1096 0.583800018
vt 0.0116999997 0.540499985
vt 0.226899996 0.507799983
vt 0.2403 0.533200026
vt 0.850300014 0.608799994
vt 0.669399977 0.646700025
vt 0.850300014 0.646799982
vt 0.669399977 0.608900011
vt 0.888000011 0.608799994
vt 0.888000011 0.646799982
vt 0.962800026 0.608799994
vt 0.962800026 0.646799982
vt 0.639299989 0.986199975
vt 0.743600011 0.943000019
vt 0.639299989 0.939899981
vt 0.743600011 0.983099997
vt 0.76880002 0.94569999
vt 0.76880002 0.980400026
vt 0.8222 0.936999977
vt 0.8222 0.989099979
vt 0.967599988 0.949100018
vt 0.967599988 0.976999998
vt 0.986800015 0.949100018
vt 0.986800015 0.976999998
vt 0.782800019 0.853999972
vt 0.691399992 0.908999979
vt 0.770399988 0.91079998
vt 0.653100014 0.840200007
vt 0.749100029 0.810899973
vt 0.664499998 0.790600002
vt 0.557299972 0.789499998
vt 0.524999976 0.839699984
vt 0.691600025 0.777400017
vt 0.757099986 0.77670002
vt 0.713500023 0.744700015
vt 0.804099977 0.727100015
vt 0.671400011 0.656799972
vt 0.658299983 0.742399991
vt 0.865999997 0.657000005
vt 0.844299972 0.711700022
vt 0.809700012 0.897499979
vt 0.653199971 0.919399977
vt 0.407299995 0.887099981
vt 0.508000016 0.839600027
vt 0.629299998 0.937699974
vt 0.346599996 0.886799991
vt 0.0152000003 0.935000002
vt 0.0784000009 0.885900021
vt 0.346799999 0.8301
vt 0.0785999969 0.829100013
vt 0.109300002 0.806500018
vt 0.324000001 0.807299972
vt 0.0210999995 0.885699987
vt 0.611299992 0.978500009
vt 0.0293000005 0.978600025
vt 0.423200011 0.839299977
vt 0.508099973 0.799300015
vt 0.423299998 0.799000025
vt 0.407499999 0.839299977
vt 0.808499992 0.855799973
vt 0.210199997 0.712400019
vt 0.175099999 0.755900025
vt 0.209999993 0.79610002
vt 0.245800003 0.715699971
vt 0.2456 0.798399985
vt 0.292800009 0.723999977
vt 0.292600006 0.796999991
vt 0.386500001 0.72359997
vt 0.386400014 0.789099991
vt 0.426999986 0.724399984
vt 0.426899999 0.788500011
vt 0.487800002 0.7245
vt 0.487599999 0.788600028
vt 0.200800002 0.591099977
vt 0.157600001 0.642499983
vt 0.200800002 0.628300011
vt 0.157499999 0.577000022
vt 0.282099992 0.587400019
vt 0.282200009 0.631699979
vt 0.305000007 0.586099982
vt 0.305000007 0.6329
vt 0.334699988 0.583400011
vt 0.334800005 0.635500014
vt 0.685599983 0.595700026
vt 0.745100021 0.524399996
vt 0.685599983 0.5176
vt 0.745100021 0.58890003
vt 0.783399999 0.525399983
vt 0.783399999 0.587899983
vt 0.85799998 0.521600008
vt 0.85799998 0.591799974
vt 0.905099988 0.521600008
vt 0.905099988 0.591799974
vt 0.968699992 0.512099981
vt 0.968699992 0.601199985
vt 0.657299995 0.586199999
vt 0.657299995 0.527100027
vt 0.376599997 0.584999979
vt 0.334800005 0.635500014
vt 0.376700014 0.63380003
vt 0.334699988 0.583400011
vt 0.442099988 0.578700006
vt 0.376700014 0.63380003
vt 0.442200005 0.639800012
vt 0.376599997 0.584999979
vt 0.831399977 0.740800023
vt 0.888499975 0.879599988
vt 0.889699996 0.740499973
vt 0.834200025 0.879899979
vt 0.372299999 0.51880002
vt 0.343100011 0.574699998
vt 0.372299999 0.564599991
vt 0.343100011 0.508599997
vt 0.436800003 0.51880002
vt 0.372299999 0.564599991
vt 0.436800003 0.564599991
vt 0.372299999 0.51880002
vt 0.465999991 0.508599997
vt 0.436800003 0.564599991
vt 0.465999991 0.574699998
vt 0.436800003 0.51880002
vt 0.343100011 0.508599997
vt 0.331200004 0.574699998
vt 0.343100011 0.574699998
vt 0.331200004 0.508599997
vt 0.331200004 0.508599997
vt 0.294800013 0.574699998
vt 0.331200004 0.574699998
vt 0.294800013 0.508599997
vt 0.478899986 0.508599997
vt 0.465999991 0.574699998
vt 0.478899986 0.574699998
vt 0.465999991 0.508599997
vt 0.2421 0.646700025
vt 0.209800005 0.706099987
vt 0.2421 0.706099987
vt 0.209700003 0.646700025
vt 0.262600005 0.655900002
vt 0.262600005 0.697000027
vt 0.384799987 0.655799985
vt 0.384799987 0.697000027
vt 0.40169999 0.646700025
vt 0.40169999 0.706099987
vt 0.433999985 0.646700025
vt 0.433999985 0.706099987
vt 0.294800013 0.508599997
vt 0.248600006 0.574699998
vt 0.294800013 0.574699998
vt 0.248600006 0.508599997
vt 0.076700002 0.77609998
vt 0.167699993 0.721700013
vt 0.076700002 0.721700013
vt 0.167699993 0.77609998
vt 0.076700002 0.659399986
vt 0.167699993 0.659399986
vt 0.120999999 0.799799979
vt 0.691399992 0.908999979
vt 0.782800019 0.853999972
vt 0.770399988 0.91079998
vt 0.653100014 0.840200007
vt 0.749100029 0.810899973
vt 0.664499998 0.790600002
vt 0.557299972 0.789499998
vt 0.524999976 0.839699984
vt 0.691600025 0.777400017
vt 0.757099986 0.77670002
vt 0.713500023 0.744700015
vt 0.804099977 0.727100015
vt 0.671400011 0.656799972
vt 0.658299983 0.742399991
vt 0.865999997 0.657000005
vt 0.844299972 0.711700022
vt 0.809700012 0.897499979
vt 0.808499992 0.855799973
vt 0.653199971 0.919399977
vt 0.407299995 0.887099981
vt 0.508000016 0.839600027
vt 0.629299998 0.937699974
vt 0.346599996 0.886799991
vt 0.0152000003 0.935000002
vt 0.0784000009 0.885900021
vt 0.346799999 0.8301
vt 0.0785999969 0.829100013
vt 0.109300002 0.806500018
vt 0.324000001 0.807299972
vt 0.0210999995 0.885699987
vt 0.611299992 0.978500009
vt 0.0293000005 0.978600025
vt 0.423200011 0.839299977
vt 0.508099973 0.799300015
vt 0.423299998 0.799000025
vt 0.407499999 0.839299977
vt 0.938600004 0.931900024
vt 0.964399993 0.914499998
vt 0.938600004 0.914499998
vt 0.964399993 0.931900024
vt 0.964399993 0.671599984
vt 0.938600004 0.671599984
vt 0.908999979 0.671599984
vt 0.938600004 0.914499998
vt 0.908999979 0.914499998
vt 0.994000018 0.914499998
vt 0.964399993 0.914499998
vt 0.994000018 0.671599984
vt 0.938600004 0.671599984
vt 0.964399993 0.914499998
vt 0.938600004 0.914499998
vt 0.964399993 0.671599984
vn -0.684149449 0.182928361 -0.706028856
vn -0.750582761 -0.555725823 0.357483326
vn -0.974134572 -0.225453694 -0.0152468964
vn -0.75277435 0.264679796 -0.602723305
vn 0 -0.814866052 0.579649306
vn 0 -0.772783048 0.634670277
vn 0 0.49054184 -0.87141764
vn 0 0.506550396 -0.862210355
vn -0.721213879 0.34209845 -0.602344745
vn -0.997602829 -0.0461420008 -0.0515704541
vn 0 0.553295707 -0.83298491
vn 0 -0.725410176 0.688316843
vn 0 -0.725410176 0.688316843
vn -0.172226984 0.545690291 -0.820097538
vn -0.851240498 0.386612639 0.354852479
vn 0 0.541178314 -0.840907862
vn -0.9967668 -0.0798188057 -0.00921434576
vn 0 -0.684777756 0.728751964
vn 0 -0.684777756 0.728751964
vn 0 -0.684777756 0.728751964
vn 0 0.608309927 0.793699586
vn 0 0.730687936 0.682711608
vn 0 0.608309927 0.793699586
vn 0 0.927112944 0.374782055
vn 0 0.927112944 0.374782055
vn 0.993575302 -0.110612766 -0.0239360634
vn 0.978543991 -0.14421201 -0.147154865
vn 0.99366992 -0.0745336142 -0.0840525421
vn 0.984514527 0.00478490486 -0.1752377
vn 0.997608951 -0.0459150117 -0.0516545555
vn 0.99760283 -0.0461419866 -0.0515704381
vn 0.998099597 -0.00901634989 -0.0609581867
vn 0.779184757 0.394478724 -0.487091009
vn 0.993344861 -0.0939749338 0.0665935379
vn -1 0 0
vn -0.999982618 0 -0.00589612594
vn -0.999812006 -0.0105769058 -0.0162505882
vn -1 0 0
vn -0.993624915 -0.0605718445 -0.0950819612
vn -0.993837074 -0.059301448 -0.093654727
vn -0.989422295 -0.0736264449 -0.124990671
vn -0.99373959 -0.0548800124 -0.0973129521
vn -1 0 0
vn 0.999982618 0 -0.00589612594
vn 1 0 0
vn 0.999812006 -0.0105769058 -0.0162505882
vn 1 0 0
vn 0.993290088 -0.0615239495 -0.0979265244
vn 0.993481101 -0.0606286627 -0.0965373914
vn 0.988766004 -0.0754770371 -0.129015527
vn 0.993380334 -0.0564276192 -0.10005716
vn 1 0 0
vn 0 -0.998253177 -0.0590812591
vn 0 -1 -2.4838361e-16
vn 0 -0.98261355 -0.185662627
vn 0 -1 -2.4838361e-16
vn 0 -0.585987579 -0.810320034
vn 0 -0.423850344 -0.905732237
vn 0 -0.318449312 -0.94793989
vn 0 -0.318449312 -0.94793989
vn 0 1 2.4838361e-16
vn 0 0.999582894 -0.0288797194
vn 0 1 2.4838361e-16
vn 0 0.993308356 -0.11549247
vn 0 0.955026987 -0.296518893
vn 0 0.993612029 -0.112850058
vn 0 0.564175266 0.825655055
vn 0 0.328583072 0.944475074
vn 0 0.0977061969 0.995215303
vn 0 -0.0617657504 0.998090673
vn 0 -0.85165689 0.524099744
vn 0 -0.85165689 0.524099744
vn -0.998201981 0.00263726022 0.05988197
vn -0.998252839 0.0517857368 0.0284518503
vn -0.995108813 0.0706774153 0.0690155946
vn -0.995792133 -0.090368993 0.0152142593
vn -0.991983765 -0.123776339 0.0254485225
vn -0.98495138 -0.172319867 -0.013290679
vn -0.964488599 -0.263755701 -0.0139524947
vn -0.999435094 -0.0310056889 0.0129669195
vn -0.999579822 0.0289766962 -0.000728440856
vn -0.999298425 0.0355827795 0.0116843401
vn -0.998442597 0.055691573 0.00329072012
vn -0.996556088 0.0826847155 0.00626113997
vn -0.996499196 0.0831480314 -0.00870390211
vn -0.996263698 0.076997031 -0.0391165175
vn -0.993403406 0.114646351 -0.00242616318
vn -0.979339064 0.184098928 0.0836814301
vn -0.97508828 0.0515418892 0.215745869
vn -0.999481034 0.0266668441 0.0180704721
vn -0.999721099 0.0199397846 0.0126542417
vn -0.993799303 -0.111188785 -1.88092417e-17
vn -0.921905186 0.387353821 0.00691699815
vn -0.999987504 0.0039054475 0.00312082386
vn -0.849855298 0.527013654 0.00160630149
vn -0.998890228 -0.0470989726 -1.03369767e-17
vn -0.987065693 -0.160316308 -3.39041439e-17
vn -0.985876767 -0.167472386 -3.64102877e-17
vn -0.907960197 -0.419056417 -8.68668906e-17
vn -0.907960197 -0.419056417 -8.35025696e-17
vn -1 0 0
vn -0.447507233 0.89427913 -0.00145402541
vn -0.403397618 0.915009891 -0.00522124339
vn -0.987334721 -0.158651026 -2.21612204e-17
vn -0.962900216 -0.269857694 -3.76951601e-17
vn -0.962900216 -0.269857694 -2.97398654e-17
vn -1 0 0
vn -0.942569876 -0.0111894727 0.333821546
vn 0 0.743958741 0.668225555
vn 0 0.746417483 0.665477979
vn 0 0.743161648 0.669111922
vn 0 0.8376401 0.54622254
vn 0 0.904749861 0.425943294
vn 0 0.987798351 0.155738298
vn 0 0.998483254 0.055056261
vn 0 0.999416627 0.0341526797
vn 0 0.994404684 0.105637706
vn 0 0.761770934 0.647846467
vn 0 0.306718013 0.951800431
vn 0 -0.03350051 0.9994387
vn 0 -0.03350051 0.9994387
vn 0 -0.788573432 -0.6149406
vn 0 -0.503316946 -0.864101876
vn 0 -0.977939601 -0.208887859
vn 0 -0.503316946 -0.864101876
vn 0 -0.996945132 -0.0781050787
vn 0 -0.980118805 -0.19841151
vn 0 -0.621942077 -0.78306325
vn 0 -0.445690631 -0.895187054
vn 0 -0.337864434 -0.941194786
vn 0 -0.337864434 -0.941194786
vn 0 -0.679684879 0.733504237
vn 0 -0.413437314 0.910532585
vn 0 -0.80984683 0.586641383
vn 0 -0.14376878 0.989611306
vn 0 0.360977982 0.932574338
vn 0 0.446215916 0.894925335
vn 0 0.589450359 0.807804602
vn 0 0.725078441 0.688666286
vn 0 0.73910595 0.673589189
vn 0 0.518292906 0.855203171
vn 0 0.352669384 0.935747993
vn 0 0.352669384 0.935747993
vn 0 -0.987580376 0.157114614
vn 0 -0.987580376 0.157114614
vn 0 0.998947334 -0.0458718191
vn 0 0.998947334 -0.0458718191
vn 0 0.998947334 -0.0458718191
vn 0 0.998947334 -0.0458718191
vn 0 -0.133355001 -0.991068335
vn 0 -0.133355001 -0.991068335
vn 0 -0.133355001 -0.991068335
vn 0 -0.133355001 -0.991068335
vn 0 -0.999983246 -0.0057886448
vn 0 -0.999983246 -0.0057886448
vn 0 -0.999983246 -0.0057886448
vn 0 -0.999983246 -0.0057886448
vn 0 0 -1
vn 0 0 -1
vn 0 0 -1
vn 0 0 -1
vn 0 -1 -1.69164919e-16
vn 0 -1 -1.69164919e-16
vn 0 -1 -1.69164919e-16
vn 0 -1 -1.69164919e-16
vn 0 0 1
vn 0 0 1
vn 0 0 1
vn 0 0 1
vn 0 -1 0
vn 0 -1 0
vn 0 -1 0
vn 0 -1 0
vn 0 1.03387826e-15 -1
vn 0 1.03387826e-15 -1
vn 0 1.03387826e-15 -1
vn 0 1.03387826e-15 -1
vn 0 -1 -8.4864271e-16
vn 0 -1 -8.4864271e-16
vn 0 -1 -8.4864271e-16
vn 0 -1 -8.4864271e-16
vn 0 -0.185278109 -0.982686126
vn 0 0 -1
vn 0 -0.453992622 -0.891005443
vn 0 0 -1
vn 0 -0.98385501 -0.178967367
vn 0 -0.998863975 -0.0476524844
vn 0 -0.998824113 0.04848083
vn 0 -0.981584559 0.191028149
vn 0 -0.354107032 0.935204903
vn 0 -0.138754526 0.990326805
vn 0 -8.70403674e-16 1
vn 0 -8.70403674e-16 1
vn 0 -1 -4.7146884e-16
vn 0 -1 -4.7146884e-16
vn 0 -1 -4.7146884e-16
vn 0 -1 -4.7146884e-16
vn 0 0.0277672034 -0.999614417
vn 0 -0.766394148 -0.642370617
vn 0 -0.766394148 -0.642370617
vn 0 0.0488141574 -0.998807878
vn 0 -1 0
vn 0 -1 0
vn 0 0.199060829 -0.979987136
vn 0.998047305 0.0550074349 0.0295932413
vn 0.998236448 0.00386897184 0.059237024
vn 0.994961884 0.0746610042 0.0669072773
vn 0.995784452 -0.0903065873 0.0160637915
vn 0.991531448 -0.126933466 0.0274460123
vn 0.984804506 -0.173300982 -0.0112629256
vn 0.964488603 -0.263755689 -0.0139524631
vn 0.999435093 -0.0310056988 0.0129669345
vn 0.999572616 0.0292283257 0.000539614399
vn 0.99917295 0.0388031884 0.0121543921
vn 0.998345018 0.0573993681 0.00354088871
vn 0.996490228 0.0834606348 0.00644573537
vn 0.996499194 0.083148047 -0.00870390828
vn 0.996263692 0.0769970627 -0.0391165882
vn 0.993403403 0.114646378 -0.00242616089
vn 0.979339056 0.184098967 0.0836814478
vn 0.975849284 0.0536024362 0.211766272
vn 0.94256983 -0.0111894771 0.333821677
vn 0.999425211 0.0284286373 0.0184678136
vn 0.999670982 0.0224784089 0.0123551029
vn 0.993517013 -0.113683531 -1.2250161e-17
vn 0.921828689 0.38753242 0.00710567817
vn 0.999984687 0.00440976575 0.00334373478
vn 0.850211141 0.526438605 0.00184691174
vn 0.998756074 -0.0498628562 -1.0631612e-17
vn 0.987014463 -0.160631408 -3.39023843e-17
vn 0.985876767 -0.167472386 -3.57920898e-17
vn 0.912359568 -0.409389812 -8.58994471e-17
vn 0.912359568 -0.409389812 -8.39071675e-17
vn 1 0 0
vn 0.448785017 0.893638743 -0.00134346099
vn 0.403397586 0.915009905 -0.00522124347
vn 0.986763988 -0.162162981 -2.24532168e-17
vn 0.961292453 -0.275530072 -3.81501154e-17
vn 0.961292453 -0.275530072 -4.66100223e-17
vn 1 0 0
vn 0 0 -1
vn -0.989744389 0 -0.142849726
vn -0.999349662 0 -0.0360590136
vn 0 0 -1
vn -0.710959178 0.703233281 1.70377548e-16
vn -0.710959178 -0.703233281 -1.70377548e-16
vn 0 -1 -2.42277424e-16
vn 0 -1 -2.42277424e-16
vn 0 -1 -2.42277424e-16
vn 0 1 2.42277424e-16
vn 0 1 2.42277424e-16
vn 0 1 2.42277424e-16
vn 1 0 0
vn 1 0 0
vn 1 0 0
vn 1 0 0

g gun08_submesh_0
usemtl WD03S-Newlambert14
f 1/1/1 3/3/3 2/2/2
f 1/1/1 2/2/2 4/4/4
f 2/2/2 3/3/3 5/5/5
f 2/2/2 5/5/5 6/6/6
f 7/7/7 1/1/1 4/4/4
f 7/7/7 8/8/8 1/1/1
f 3/3/3 1/1/1 9/9/9
f 8/8/8 9/9/9 1/1/1
f 3/3/3 9/9/9 10/10/10
f 8/8/8 11/11/11 9/9/9
f 2/2/2 6/6/6 12/12/12
f 2/2/2 12/12/12 13/13/13
f 7/7/7 4/4/4 14/14/14
f 15/15/15 14/14/14 4/4/4
f 15/15/15 4/4/4 2/2/2
f 7/7/7 14/14/14 16/16/16
f 15/15/15 2/2/2 17/17/17
f 18/18/18 19/19/19 5/5/5
f 18/18/18 20/20/20 19/19/19
f 21/21/21 22/22/22 15/15/15
f 21/21/21 15/15/15 23/23/23
f 22/22/22 24/24/24 15/15/15
f 22/22/22 25/25/25 24/24/24
f 26/26/26 28/28/28 27/27/27
f 26/26/26 27/27/27 29/29/29
f 28/28/28 30/30/30 27/27/27
f 28/28/28 31/31/31 30/30/30
f 26/26/26 29/29/29 32/32/32
f 33/33/33 32/32/32 29/29/29
f 26/26/26 32/32/32 34/34/34
f 35/35/35 37/37/37 36/36/36
f 35/35/35 36/36/36 38/38/38
f 37/37/37 39/39/39 36/36/36
f 37/37/37 40/40/40 39/39/39
f 39/39/39 40/40/40 41/41/41
f 40/40/40 42/42/42 41/41/41
f 40/40/40 43/43/43 42/42/42
f 44/44/44 46/46/46 45/45/45
f 44/44/44 45/45/45 47/47/47
f 48/48/48 46/46/46 44/44/44
f 48/48/48 49/49/49 46/46/46
f 48/48/48 50/50/50 49/49/49
f 51/51/51 49/49/49 50/50/50
f 51/51/51 52/52/52 49/49/49
f 53/53/53 55/55/55 54/54/54
f 53/53/53 54/54/54 56/56/56
f 57/57/57 55/55/55 53/53/53
f 57/57/57 58/58/58 55/55/55
f 59/59/59 58/58/58 57/57/57
f 59/59/59 60/60/60 58/58/58
f 61/61/61 63/63/63 62/62/62
f 61/61/61 62/62/62 64/64/64
f 64/64/64 62/62/62 65/65/65
f 64/64/64 65/65/65 66/66/66
f 66/66/66 65/65/65 67/67/67
f 66/66/66 67/67/67 68/68/68
f 68/68/68 67/67/67 69/69/69
f 68/68/68 69/69/69 70/70/70
f 70/70/70 69/69/69 71/71/71
f 70/70/70 71/71/71 72/72/72
f 73/73/73 75/75/75 74/74/74
f 73/73/73 74/74/74 76/76/76
f 77/77/77 73/73/73 76/76/76
f 77/77/77 76/76/76 78/78/78
f 76/76/76 79/79/79 78/78/78
f 76/76/76 80/80/80 79/79/79
f 77/77/77 78/78/78 81/81/81
f 77/77/77 81/81/81 82/82/82
f 82/82/82 81/81/81 83/83/83
f 82/82/82 83/83/83 84/84/84
f 84/84/84 83/83/83 85/85/85
f 85/85/85 83/83/83 86/86/86
f 84/84/84 85/85/85 87/87/87
f 84/84/84 87/87/87 88/88/88
f 73/73/73 89/89/89 75/75/75
f 90/90/90 76/76/76 74/74/74
f 90/90/90 80/80/80 76/76/76
f 91/91/91 80/80/80 90/90/90
f 91/91/91 92/92/92 80/80/80
f 93/93/93 91/91/91 90/90/90
f 93/93/93 94/94/94 91/91/91
f 93/93/93 95/95/95 94/94/94
f 94/94/94 95/95/95 96/96/96
f 96/96/96 97/97/97 94/94/94
f 96/96/96 98/98/98 97/97/97
f 97/97/97 98/98/98 99/99/99
f 97/97/97 99/99/99 100/100/100
f 96/96/96 95/95/95 101/101/101
f 102/102/102 95/95/95 93/93/93
f 102/102/102 103/103/103 95/95/95
f 91/91/91 104/104/104 92/92/92
f 104/104/104 105/105/105 92/92/92
f 104/104/104 106/106/106 105/105/105
f 107/107/107 104/104/104 91/91/91
f 73/73/73 108/108/108 89/89/89
f 109/109/109 111/111/111 110/110/110
f 111/111/111 109/109/109 112/112/112
f 111/111/111 112/112/112 113/113/113
f 113/113/113 112/112/112 114/114/114
f 113/113/113 114/114/114 115/115/115
f 115/115/115 114/114/114 116/116/116
f 115/115/115 116/116/116 117/117/117
f 117/117/117 116/116/116 118/118/118
f 117/117/117 118/118/118 119/119/119
f 119/119/119 118/118/118 120/120/120
f 119/119/119 120/120/120 121/121/121
f 122/122/122 124/124/124 123/123/123
f 122/122/122 123/123/123 125/125/125
f 126/126/126 124/124/124 122/122/122
f 126/126/126 127/127/127 124/124/124
f 128/128/128 127/127/127 126/126/126
f 128/128/128 129/129/129 127/127/127
f 130/130/130 129/129/129 128/128/128
f 130/130/130 131/131/131 129/129/129
f 132/132/132 134/134/134 133/133/133
f 132/132/132 133/133/133 135/135/135
f 135/135/135 133/133/133 136/136/136
f 135/135/135 136/136/136 137/137/137
f 137/137/137 136/136/136 138/138/138
f 137/137/137 138/138/138 139/139/139
f 139/139/139 138/138/138 140/140/140
f 139/139/139 140/140/140 141/141/141
f 141/141/141 140/140/140 142/142/142
f 141/141/141 142/142/142 143/143/143
f 144/144/144 134/134/134 132/132/132
f 144/144/144 145/145/145 134/134/134
f 146/146/146 148/148/148 147/147/147
f 146/146/146 147/147/147 149/149/149
f 150/150/150 152/152/152 151/151/151
f 150/150/150 151/151/151 153/153/153
f 154/154/154 156/156/156 155/155/155
f 154/154/154 155/155/155 157/157/157
f 158/158/158 160/160/160 159/159/159
f 158/158/158 159/159/159 161/161/161
f 162/162/162 164/164/164 163/163/163
f 162/162/162 163/163/163 165/165/165
f 166/166/166 168/168/168 167/167/167
f 166/166/166 167/167/167 169/169/169
f 170/170/170 172/172/172 171/171/171
f 170/170/170 171/171/171 173/173/173
f 174/174/174 176/176/176 175/175/175
f 174/174/174 175/175/175 177/177/177
f 178/178/178 180/180/180 179/179/179
f 178/178/178 179/179/179 181/181/181
f 182/182/182 184/184/184 183/183/183
f 182/182/182 183/183/183 185/185/185
f 186/186/186 184/184/184 182/182/182
f 186/186/186 187/187/187 184/184/184
f 188/188/188 187/187/187 186/186/186
f 188/188/188 189/189/189 187/187/187
f 190/190/190 189/189/189 188/188/188
f 190/190/190 191/191/191 189/189/189
f 192/192/192 191/191/191 190/190/190
f 192/192/192 193/193/193 191/191/191
f 194/194/194 196/196/196 195/195/195
f 194/194/194 195/195/195 197/197/197
f 198/198/198 200/200/200 199/199/199
f 198/198/198 199/199/199 201/201/201
f 202/202/202 199/199/199 200/200/200
f 202/202/202 203/203/203 199/199/199
f 204/204/204 198/198/198 201/201/201
f 205/205/205 207/207/207 206/206/206
f 205/205/205 206/206/206 208/208/208
f 209/209/209 208/208/208 206/206/206
f 209/209/209 210/210/210 208/208/208
f 208/208/208 210/210/210 211/211/211
f 208/208/208 211/211/211 212/212/212
f 209/209/209 213/213/213 210/210/210
f 209/209/209 214/214/214 213/213/213
f 214/214/214 215/215/215 213/213/213
f 214/214/214 216/216/216 215/215/215
f 216/216/216 217/217/217 215/215/215
f 217/217/217 218/218/218 215/215/215
f 216/216/216 219/219/219 217/217/217
f 216/216/216 220/220/220 219/219/219
f 221/221/221 206/206/206 207/207/207
f 221/221/221 222/222/222 206/206/206
f 223/223/223 208/208/208 212/212/212
f 223/223/223 205/205/205 208/208/208
f 212/212/212 224/224/224 223/223/223
f 212/212/212 225/225/225 224/224/224
f 226/226/226 223/223/223 224/224/224
f 226/226/226 224/224/224 227/227/227
f 226/226/226 227/227/227 228/228/228
f 227/227/227 229/229/229 228/228/228
f 230/230/230 229/229/229 227/227/227
f 230/230/230 231/231/231 229/229/229
f 230/230/230 232/232/232 231/231/231
f 230/230/230 233/233/233 232/232/232
f 229/229/229 234/234/234 228/228/228
f 228/228/228 235/235/235 226/226/226
f 228/228/228 236/236/236 235/235/235
f 224/224/224 225/225/225 237/237/237
f 238/238/238 237/237/237 225/225/225
f 238/238/238 239/239/239 237/237/237
f 240/240/240 224/224/224 237/237/237
f 241/241/241 243/243/243 242/242/242
f 241/241/241 242/242/242 244/244/244
f 243/243/243 245/245/245 242/242/242
f 243/243/243 246/246/246 245/245/245
f 247/247/247 246/246/246 248/248/248
f 247/247/247 248/248/248 249/249/249
f 250/250/250 251/251/251 245/245/245
f 250/250/250 245/245/245 252/252/252
f 253/253/253 255/255/255 254/254/254
f 253/253/253 254/254/254 256/256/256
