# Generated by tools/yaml_mesh_converter/split_reload_parts.py
mtllib gun01.mtl
o gun01_reload
v 0.027118573 -0.1148929 -0.35413605
vt 0.907599986 0.252799988
vn 0 0.324558517 -0.945865619
v -0.0271185413 -0.1148929 -0.35413605
vt 0.860499978 0.252600014
vn 0 -0.337098887 -0.941469246
v -0.036385186 0.0464558303 -0.258199036
vt 0.853299975 0.0892999992
vn 0 0.51107512 -0.85953605
v 0.027118573 -0.1148929 -0.35413605
vt 0.907599986 0.252799988
vn 0 0.324558517 -0.945865619
v -0.036385186 0.0464558303 -0.258199036
vt 0.853299975 0.0892999992
vn 0 0.51107512 -0.85953605
v 0.0363852158 0.0464558303 -0.258199036
vt 0.916499972 0.0896999985
vn 0 0.51107512 -0.85953605
v 0.027118573 -0.140784904 -0.268010795
vt 0.907199979 0.331099987
vn 0 -0.980050029 -0.198750954
v -0.0271185413 -0.1148929 -0.35413605
vt 0.860499978 0.252600014
vn 0 -0.337098887 -0.941469246
v 0.027118573 -0.1148929 -0.35413605
vt 0.907599986 0.252799988
vn 0 0.324558517 -0.945865619
v 0.027118573 -0.140784904 -0.268010795
vt 0.907199979 0.331099987
vn 0 -0.980050029 -0.198750954
v -0.0271185413 -0.140784904 -0.268010795
vt 0.860099971 0.330900013
vn 0 -0.999946194 -0.0103734468
v -0.0271185413 -0.1148929 -0.35413605
vt 0.860499978 0.252600014
vn 0 -0.337098887 -0.941469246
v 0.027118573 -0.12852031 -0.245389268
vt 0.907100022 0.353399992
vn 0 -0.557644131 0.83008013
v -0.0271185413 -0.140784904 -0.268010795
vt 0.860099971 0.330900013
vn 0 -0.999946194 -0.0103734468
v 0.027118573 -0.140784904 -0.268010795
vt 0.907199979 0.331099987
vn 0 -0.980050029 -0.198750954
v 0.027118573 -0.12852031 -0.245389268
vt 0.907100022 0.353399992
vn 0 -0.557644131 0.83008013
v -0.0271185413 -0.12852031 -0.245389268
vt 0.860000014 0.353199989
vn 0 -0.45459221 0.890699681
v -0.0271185413 -0.140784904 -0.268010795
vt 0.860099971 0.330900013
vn 0 -0.999946194 -0.0103734468
v 0.0363852158 0.00639107823 -0.183520854
vt 0.914499998 0.4824
vn 0 -0.416844168 0.908977965
v -0.0271185413 -0.12852031 -0.245389268
vt 0.860000014 0.353199989
vn 0 -0.45459221 0.890699681
v 0.027118573 -0.12852031 -0.245389268
vt 0.907100022 0.353399992
vn 0 -0.557644131 0.83008013
v 0.0363852158 0.00639107823 -0.183520854
vt 0.914499998 0.4824
vn 0 -0.416844168 0.908977965
v -0.036385186 0.00639107823 -0.183520854
vt 0.851300001 0.48210001
vn 0 -0.416844168 0.908977965
v -0.0271185413 -0.12852031 -0.245389268
vt 0.860000014 0.353199989
vn 0 -0.45459221 0.890699681
v -0.0271185413 -0.12852031 -0.245389268
vt 0.457599998 0.112199999
vn -0.998567221 -0.0513566986 -0.0150331346
v -0.036385186 0.00639107823 -0.183520854
vt 0.49970001 0.231299996
vn -0.999165528 -0.0359915746 -0.019309435
v -0.036385186 0.0464558303 -0.258199036
vt 0.435400009 0.26730001
vn -0.997688645 -0.0671433872 -0.0104467225
v -0.0271185413 -0.12852031 -0.245389268
vt 0.457599998 0.112199999
vn -0.998567221 -0.0513566986 -0.0150331346
v -0.036385186 0.0464558303 -0.258199036
vt 0.435400009 0.26730001
vn -0.997688645 -0.0671433872 -0.0104467225
v -0.0271185413 -0.1148929 -0.35413605
vt 0.368499994 0.124499999
vn -0.998774545 -0.0491074188 -0.00615380901
v 0.0363852158 0.0464558303 -0.258199036
vt 0.435400009 0.26730001
vn 0.997688645 -0.0671433834 -0.0104467213
v 0.0363852158 0.00639107823 -0.183520854
vt 0.49970001 0.231299996
vn 0.999165528 -0.0359915674 -0.0193094312
v 0.027118573 -0.12852031 -0.245389268
vt 0.457599998 0.112199999
vn 0.998567221 -0.0513566883 -0.0150331316
v 0.0363852158 0.0464558303 -0.258199036
vt 0.435400009 0.26730001
vn 0.997688645 -0.0671433834 -0.0104467213
v 0.027118573 -0.12852031 -0.245389268
vt 0.457599998 0.112199999
vn 0.998567221 -0.0513566883 -0.0150331316
v 0.027118573 -0.1148929 -0.35413605
vt 0.368499994 0.124499999
vn 0.998774546 -0.0491074089 -0.00615380778
v 0.027118573 -0.140784904 -0.268010795
vt 0.439200014 0.101099998
vn 1 0 0
v 0.027118573 -0.1148929 -0.35413605
vt 0.368499994 0.124499999
vn 0.998774546 -0.0491074089 -0.00615380778
v 0.027118573 -0.12852031 -0.245389268
vt 0.457599998 0.112199999
vn 0.998567221 -0.0513566883 -0.0150331316
v -0.0271185413 -0.140784904 -0.268010795
vt 0.439200014 0.101099998
vn -1 0 0
v -0.0271185413 -0.12852031 -0.245389268
vt 0.457599998 0.112199999
vn -0.998567221 -0.0513566986 -0.0150331346
v -0.0271185413 -0.1148929 -0.35413605
vt 0.368499994 0.124499999
vn -0.998774545 -0.0491074188 -0.00615380901
v 1.49000000012e-08 0.026423454265 -0.220859945
vt 0.435400009 0.26730001
vn 0 0.881192061492 0.472758448642
v -0.036385186 0.0464558303 -0.258199036
vt 0.435400009 0.26730001
vn 0 0.881192061492 0.472758448642
v -0.036385186 0.00639107823 -0.183520854
vt 0.435400009 0.26730001
vn 0 0.881192061492 0.472758448642
v 1.49000000012e-08 0.026423454265 -0.220859945
vt 0.435400009 0.26730001
vn 0 0.881192061492 0.472758448642
v -0.036385186 0.00639107823 -0.183520854
vt 0.435400009 0.26730001
vn 0 0.881192061492 0.472758448642
v 0.0363852158 0.00639107823 -0.183520854
vt 0.435400009 0.26730001
vn 0 0.881192061492 0.472758448642
v 1.49000000012e-08 0.026423454265 -0.220859945
vt 0.435400009 0.26730001
vn 0 0.881192061492 0.472758448642
v 0.0363852158 0.00639107823 -0.183520854
vt 0.435400009 0.26730001
vn 0 0.881192061492 0.472758448642
v 0.0363852158 0.0464558303 -0.258199036
vt 0.435400009 0.26730001
vn 0 0.881192061492 0.472758448642
v 1.49000000012e-08 0.026423454265 -0.220859945
vt 0.435400009 0.26730001
vn 0 0.881192061492 0.472758448642
v 0.0363852158 0.0464558303 -0.258199036
vt 0.435400009 0.26730001
vn 0 0.881192061492 0.472758448642
v -0.036385186 0.0464558303 -0.258199036
vt 0.435400009 0.26730001
vn 0 0.881192061492 0.472758448642
usemtl MA72-Newlambert6
f 1/1/1 2/2/2 3/3/3
f 4/4/4 5/5/5 6/6/6
f 7/7/7 8/8/8 9/9/9
f 10/10/10 11/11/11 12/12/12
f 13/13/13 14/14/14 15/15/15
f 16/16/16 17/17/17 18/18/18
f 19/19/19 20/20/20 21/21/21
f 22/22/22 23/23/23 24/24/24
f 25/25/25 26/26/26 27/27/27
f 28/28/28 29/29/29 30/30/30
f 31/31/31 32/32/32 33/33/33
f 34/34/34 35/35/35 36/36/36
f 37/37/37 38/38/38 39/39/39
f 40/40/40 41/41/41 42/42/42
f 43/43/43 44/44/44 45/45/45
f 46/46/46 47/47/47 48/48/48
f 49/49/49 50/50/50 51/51/51
f 52/52/52 53/53/53 54/54/54
