# Generated by tools/yaml_mesh_converter/split_reload_parts.py
mtllib gun05.mtl
o gun05_body
v -0.027118545 0.0225436538 -0.101482451
vt 0.565599978 0.686699986
vn -0.993932075 -0.0826415474 -0.0725906738
v -0.0282087363 -0.00743676722 -0.0524237454
vt 0.605499983 0.663200021
vn -0.998785615 -0.0488318353 -0.006538095
v -0.0372028314 0.143827632 -0.101482451
vt 0.565299988 0.782800019
vn -0.998345057 -0.057408258 -0.00338220849
v -0.0372028314 0.143827632 -0.101482451
vt 0.565299988 0.782800019
vn -0.998345057 -0.057408258 -0.00338220849
v -0.0282087363 -0.00743676722 -0.0524237454
vt 0.605499983 0.663200021
vn -0.998785615 -0.0488318353 -0.006538095
v -0.0309342202 0.0358984619 0.284991056
vt 0.881200016 0.697799981
vn -0.998766443 -0.0496516468 -0.000553347458
v -0.0372028314 0.143827632 -0.101482451
vt 0.565299988 0.782800019
vn -0.998345057 -0.057408258 -0.00338220849
v -0.0309342202 0.0358984619 0.284991056
vt 0.881200016 0.697799981
vn -0.998766443 -0.0496516468 -0.000553347458
v -0.0372028314 0.156909853 0.329688996
vt 0.913399994 0.784099996
vn -0.998629259 -0.0523171431 0.0015873603
v -0.0282087363 -0.00743676722 -0.0524237454
vt 0.605499983 0.663200021
vn -0.998785615 -0.0488318353 -0.006538095
v -0.027118545 -0.0736659467 0.086848408
vt 0.717999995 0.611299992
vn -0.999656694 -0.0258198358 -0.00445321974
v -0.0309342202 0.0358984619 0.284991056
vt 0.881200016 0.697799981
vn -0.998766443 -0.0496516468 -0.000553347458
v -0.0282087363 -0.00743676722 -0.0524237454
vt 0.605499983 0.663200021
vn -0.998785615 -0.0488318353 -0.006538095
v -0.027118545 -0.0589485019 -0.021625787
vt 0.630599976 0.622699976
vn -0.999729983 -0.0230260747 -0.00312410691
v -0.027118545 -0.0736659467 0.086848408
vt 0.717999995 0.611299992
vn -0.999656694 -0.0258198358 -0.00445321974
v 0.0282087661 -0.00743676722 -0.0524237454
vt 0.403699994 0.515600026
vn 0 -0.755010729 -0.655712436
v -0.0282087363 -0.00743676722 -0.0524237454
vt 0.404000014 0.566299975
vn 0 -0.641175214 -0.767394517
v -0.027118545 0.0225436538 -0.101482451
vt 0.352400005 0.565599978
vn 0 -0.480966927 -0.876738738
v 0.0282087661 -0.00743676722 -0.0524237454
vt 0.403699994 0.515600026
vn 0 -0.755010729 -0.655712436
v -0.027118545 0.0225436538 -0.101482451
vt 0.352400005 0.565599978
vn 0 -0.480966927 -0.876738738
v 0.027118573 0.0225436538 -0.101482451
vt 0.352100015 0.51700002
vn 0 -0.152633522 -0.988282858
v 0.027118573 0.0225436538 -0.101482451
vt 0.352100015 0.51700002
vn 0 -0.152633522 -0.988282858
v -0.027118545 0.0225436538 -0.101482451
vt 0.352400005 0.565599978
vn 0 -0.480966927 -0.876738738
v -0.0372028314 0.143827632 -0.101482451
vt 0.275299996 0.575100005
vn 0 2.28847833e-16 -1
v 0.027118573 0.0225436538 -0.101482451
vt 0.352100015 0.51700002
vn 0 -0.152633522 -0.988282858
v -0.0372028314 0.143827632 -0.101482451
vt 0.275299996 0.575100005
vn 0 2.28847833e-16 -1
v 0.0372028612 0.143827632 -0.101482451
vt 0.274899989 0.5079
vn 0 2.28847833e-16 -1
v 0.027118573 -0.0589485019 -0.021625787
vt 0.456800014 0.516300023
vn 0 -0.513158702 -0.858293741
v -0.0282087363 -0.00743676722 -0.0524237454
vt 0.404000014 0.566299975
vn 0 -0.641175214 -0.767394517
v 0.0282087661 -0.00743676722 -0.0524237454
vt 0.403699994 0.515600026
vn 0 -0.755010729 -0.655712436
v 0.027118573 -0.0589485019 -0.021625787
vt 0.456800014 0.516300023
vn 0 -0.513158702 -0.858293741
v -0.027118545 -0.0589485019 -0.021625787
vt 0.457100004 0.564999998
vn 0 -0.513158702 -0.858293741
v -0.0282087363 -0.00743676722 -0.0524237454
vt 0.404000014 0.566299975
vn 0 -0.641175214 -0.767394517
v 0.0372028612 0.156909853 0.329688996
vt 0.917200029 0.508300006
vn 0 -0.346488763 0.938054123
v -0.0372028314 0.156909853 0.329688996
vt 0.916299999 0.58160001
vn 0 -0.346488763 0.938054123
v -0.0309342202 0.0358984619 0.284991056
vt 0.804400027 0.574100018
vn 0 -0.619217005 0.785219906
v 0.0372028612 0.156909853 0.329688996
vt 0.917200029 0.508300006
vn 0 -0.346488763 0.938054123
v -0.0309342202 0.0358984619 0.284991056
vt 0.804400027 0.574100018
vn 0 -0.619217005 0.785219906
v 0.03093425 0.0358984619 0.284991056
vt 0.805100024 0.513100028
vn 0 -0.786921783 0.61705276
v 0.03093425 0.0358984619 0.284991056
vt 0.805100024 0.513100028
vn 0 -0.786921783 0.61705276
v -0.0309342202 0.0358984619 0.284991056
vt 0.804400027 0.574100018
vn 0 -0.619217005 0.785219906
v -0.027118545 -0.0736659467 0.086848408
vt 0.579599977 0.567399979
vn 0 -0.924368879 0.381499901
v 0.03093425 0.0358984619 0.284991056
vt 0.805100024 0.513100028
vn 0 -0.786921783 0.61705276
v -0.027118545 -0.0736659467 0.086848408
vt 0.579599977 0.567399979
vn 0 -0.924368879 0.381499901
v 0.027118573 -0.0736659467 0.086848408
vt 0.580299973 0.514299989
vn 0 -0.981872706 0.189541524
v 0.027118573 -0.0736659467 0.086848408
vt 0.580299973 0.514299989
vn 0 -0.981872706 0.189541524
v -0.027118545 -0.0736659467 0.086848408
vt 0.579599977 0.567399979
vn 0 -0.924368879 0.381499901
v -0.027118545 -0.0589485019 -0.021625787
vt 0.472200006 0.566100001
vn 0 -0.990921042 -0.134445116
v 0.027118573 -0.0736659467 0.086848408
vt 0.580299973 0.514299989
vn 0 -0.981872706 0.189541524
v -0.027118545 -0.0589485019 -0.021625787
vt 0.472200006 0.566100001
vn 0 -0.990921042 -0.134445116
v 0.027118573 -0.0589485019 -0.021625787
vt 0.472799987 0.513000011
vn 0 -0.990921042 -0.134445116
v 0.027118573 0.0225436538 -0.101482451
vt 0.565599978 0.686699986
vn 0.99393207 -0.0826415623 -0.0725907205
v 0.0372028612 0.143827632 -0.101482451
vt 0.565299988 0.782800019
vn 0.998345057 -0.0574082588 -0.00338221103
v 0.0282087661 -0.00743676722 -0.0524237454
vt 0.605499983 0.663200021
vn 0.998785615 -0.0488318452 -0.00653809746
v 0.0372028612 0.143827632 -0.101482451
vt 0.565299988 0.782800019
vn 0.998345057 -0.0574082588 -0.00338221103
v 0.03093425 0.0358984619 0.284991056
vt 0.881200016 0.697799981
vn 0.998766443 -0.0496516515 -0.000553346852
v 0.0282087661 -0.00743676722 -0.0524237454
vt 0.605499983 0.663200021
vn 0.998785615 -0.0488318452 -0.00653809746
v 0.0372028612 0.143827632 -0.101482451
vt 0.565299988 0.782800019
vn 0.998345057 -0.0574082588 -0.00338221103
v 0.0372028612 0.156909853 0.329688996
vt 0.913399994 0.784099996
vn 0.998629259 -0.0523171431 0.0015873603
v 0.03093425 0.0358984619 0.284991056
vt 0.881200016 0.697799981
vn 0.998766443 -0.0496516515 -0.000553346852
v 0.027118573 -0.0736659467 0.086848408
vt 0.717999995 0.611299992
vn 0.999656693 -0.0258198605 -0.00445321815
v 0.0282087661 -0.00743676722 -0.0524237454
vt 0.605499983 0.663200021
vn 0.998785615 -0.0488318452 -0.00653809746
v 0.03093425 0.0358984619 0.284991056
vt 0.881200016 0.697799981
vn 0.998766443 -0.0496516515 -0.000553346852
v 0.027118573 -0.0736659467 0.086848408
vt 0.717999995 0.611299992
vn 0.999656693 -0.0258198605 -0.00445321815
v 0.027118573 -0.0589485019 -0.021625787
vt 0.630599976 0.622699976
vn 0.999729983 -0.023026114 -0.00312411225
v 0.0282087661 -0.00743676722 -0.0524237454
vt 0.605499983 0.663200021
vn 0.998785615 -0.0488318452 -0.00653809746
v -0.0486498624 0.219323367 0.0661348104
vt 0.699899971 0.8398
vn -0.939746741 0.341590296 0.0138611773
v -0.0486498624 0.131017685 -0.0458826125
vt 0.607800007 0.762899995
vn -0.999719297 -0.0236757932 0.000885992798
v -0.0486498624 0.137831554 0.335957676
vt 0.925300002 0.767199993
vn -1 0 0
v -0.0486498624 0.219323367 0.0661348104
vt 0.699899971 0.8398
vn -0.939746741 0.341590296 0.0138611773
v -0.0486498624 0.137831554 0.335957676
vt 0.925300002 0.767199993
vn -1 0 0
v -0.0486498624 0.221776396 0.335957676
vt 0.925499976 0.841700017
vn -0.912190055 0.409750445 -0.00372514681
v -0.0486498624 0.219323367 0.0661348104
vt 0.699899971 0.8398
vn -0.939746741 0.341590296 0.0138611773
v -0.0486498624 0.247941136 0.00671923161
vt 0.649399996 0.85710001
vn -0.895153207 0.445036911 0.0253551608
v -0.0486498624 0.131017685 -0.0458826125
vt 0.607800007 0.762899995
vn -0.999719297 -0.0236757932 0.000885992798
v -0.0486498624 0.131017685 -0.0458826125
vt 0.607800007 0.762899995
vn -0.999719297 -0.0236757932 0.000885992798
v -0.0486498624 0.247941136 0.00671923161
vt 0.649399996 0.85710001
vn -0.895153207 0.445036911 0.0253551608
v -0.0486498624 0.247941136 -0.566177249
vt 0.194100007 0.858399987
vn -0.981890145 0.189451165 4.55644914e-17
v -0.0486498624 0.131017685 -0.0458826125
vt 0.607800007 0.762899995
vn -0.999719297 -0.0236757932 0.000885992798
v -0.0486498624 0.247941136 -0.566177249
vt 0.194100007 0.858399987
vn -0.981890145 0.189451165 4.55644914e-17
v -0.0486498624 0.153094187 -0.624502718
vt 0.147599995 0.784699976
vn -0.999512312 -0.0311369395 -0.00237273751
v -0.0486498624 0.131017685 -0.0458826125
vt 0.607800007 0.762899995
vn -0.999719297 -0.0236757932 0.000885992798
v -0.0486498624 0.153094187 -0.624502718
vt 0.147599995 0.784699976
vn -0.999512312 -0.0311369395 -0.00237273751
v -0.0431988947 0.0732375979 -0.231215447
vt 0.460299999 0.722000003
vn -0.997613454 -0.0675512563 0.0142907262
v -0.0486498624 0.131017685 -0.0458826125
vt 0.607800007 0.762899995
vn -0.999719297 -0.0236757932 0.000885992798
v -0.0431988947 0.0732375979 -0.231215447
vt 0.460299999 0.722000003
vn -0.997613454 -0.0675512563 0.0142907262
v -0.037747927 0.0718749613 -0.0774981976
vt 0.582700014 0.720099986
vn -0.979605817 -0.198203707 0.032980814
v 0.000136289353 0.285825133 -0.540557861
vt 0.214499995 0.903599977
vn -0.61332724 0.789828904 1.75433585e-16
v -0.0486498624 0.247941136 -0.566177249
vt 0.194100007 0.858399987
vn -0.981890145 0.189451165 4.55644914e-17
v -0.0486498624 0.247941136 0.00671923161
vt 0.649399996 0.85710001
vn -0.895153207 0.445036911 0.0253551608
v 0.000136289353 0.285825133 -0.540557861
vt 0.214499995 0.903599977
vn -0.61332724 0.789828904 1.75433585e-16
v -0.0486498624 0.247941136 0.00671923161
vt 0.649399996 0.85710001
vn -0.895153207 0.445036911 0.0253551608
v 0.000136289353 0.285825133 0.00671923161
vt 0.649800003 0.902999997
vn -0.612413665 0.788652423 0.0545606004
v 0.000136289353 0.243852884 0.0661348104
vt 0.701300025 0.885399997
vn -0.4734033 0.866577014 0.157903754
v 0.000136289353 0.285825133 0.00671923161
vt 0.649800003 0.902999997
vn -0.612413665 0.788652423 0.0545606004
v -0.0486498624 0.247941136 0.00671923161
vt 0.649399996 0.85710001
vn -0.895153207 0.445036911 0.0253551608
v 0.000136289353 0.243852884 0.0661348104
vt 0.701300025 0.885399997
vn -0.4734033 0.866577014 0.157903754
v -0.0486498624 0.247941136 0.00671923161
vt 0.649399996 0.85710001
vn -0.895153207 0.445036911 0.0253551608
v -0.0486498624 0.219323367 0.0661348104
vt 0.699899971 0.8398
vn -0.939746741 0.341590296 0.0138611773
v 0.000136289353 0.246305913 0.321239978
vt 0.912899971 0.886699975
vn -0.450200231 0.892888633 -0.0083450748
v 0.000136289353 0.243852884 0.0661348104
vt 0.701300025 0.885399997
vn -0.4734033 0.866577014 0.157903754
v -0.0486498624 0.219323367 0.0661348104
vt 0.699899971 0.8398
vn -0.939746741 0.341590296 0.0138611773
v 0.000136289353 0.246305913 0.321239978
vt 0.912899971 0.886699975
vn -0.450200231 0.892888633 -0.0083450748
v -0.0486498624 0.219323367 0.0661348104
vt 0.699899971 0.8398
vn -0.939746741 0.341590296 0.0138611773
v -0.0486498624 0.221776396 0.335957676
vt 0.925499976 0.841700017
vn -0.912190055 0.409750445 -0.00372514681
v 0.0486498922 0.137831554 0.335957676
vt 0.922200024 0.648500025
vn 0 -0.999840819 0.0178419733
v -0.0486498624 0.137831554 0.335957676
vt 0.9023 0.692300022
vn 0 -0.999840819 0.0178419733
v -0.0486498624 0.131017685 -0.0458826125
vt 0.766099989 0.630599976
vn 0 -0.99583988 0.0911204292
v 0.0486498922 0.137831554 0.335957676
vt 0.922200024 0.648500025
vn 0 -0.999840819 0.0178419733
v -0.0486498624 0.131017685 -0.0458826125
vt 0.766099989 0.630599976
vn 0 -0.99583988 0.0911204292
v 0.0486498922 0.131017685 -0.0458826125
vt 0.786000013 0.586700022
vn 0 -0.968907294 0.247424039
v 0.0486498922 0.131017685 -0.0458826125
vt 0.786000013 0.586700022
vn 0 -0.968907294 0.247424039
v -0.0486498624 0.131017685 -0.0458826125
vt 0.766099989 0.630599976
vn 0 -0.99583988 0.0911204292
v -0.037747927 0.0718749613 -0.0774981976
vt 0.738699973 0.612200022
vn 0 -0.471433162 0.881901794
v 0.0486498922 0.131017685 -0.0458826125
vt 0.786000013 0.586700022
vn 0 -0.968907294 0.247424039
v -0.037747927 0.0718749613 -0.0774981976
vt 0.738699973 0.612200022
vn 0 -0.471433162 0.881901794
v 0.0377479568 0.0718749613 -0.0774981976
vt 0.754100025 0.578199983
vn 0 -0.471433162 0.881901794
v -0.0486498624 0.221776396 0.335957676
vt 0.836700022 0.972800016
vn 0 0.134447189 0.99092076
v 0.0486498922 0.221776396 0.335957676
vt 0.921199977 0.972800016
vn 0 0.0762649156 0.99708759
v 0.000136289353 0.246305913 0.321239978
vt 0.878899992 0.997200012
vn 0 0.514495449 0.85749311
v 0.0486498922 0.221776396 0.335957676
vt 0.921199977 0.972800016
vn 0 0.0762649156 0.99708759
v -0.0486498624 0.221776396 0.335957676
vt 0.836700022 0.972800016
vn 0 0.134447189 0.99092076
v -0.0486498624 0.137831554 0.335957676
vt 0.836700022 0.901600003
vn 0 0 1
v 0.0486498922 0.221776396 0.335957676
vt 0.921199977 0.972800016
vn 0 0.0762649156 0.99708759
v -0.0486498624 0.137831554 0.335957676
vt 0.836700022 0.901600003
vn 0 0 1
v 0.0486498922 0.137831554 0.335957676
vt 0.921199977 0.901600003
vn 0 0 1
v 0.0486498922 0.247941136 -0.566177249
vt 0.109300002 0.661300004
vn 0 0.530090415 -0.847941125
v 0.0486498922 0.153094187 -0.624502718
vt 0.109300002 0.580799997
vn 0 0.646807403 -0.762653384
v -0.0486498624 0.153094187 -0.624502718
vt 0.180899993 0.580799997
vn 0 0.646807403 -0.762653384
v 0.0486498922 0.247941136 -0.566177249
vt 0.109300002 0.661300004
vn 0 0.530090415 -0.847941125
v -0.0486498624 0.153094187 -0.624502718
vt 0.180899993 0.580799997
vn 0 0.646807403 -0.762653384
v -0.0486498624 0.247941136 -0.566177249
vt 0.180899993 0.661300004
vn 0 0.534515371 -0.845158753
v 0.000136289353 0.285825133 -0.540557861
vt 0.145099998 0.689800024
vn 0 0.560189022 -0.828364811
v 0.0486498922 0.247941136 -0.566177249
vt 0.109300002 0.661300004
vn 0 0.530090415 -0.847941125
v -0.0486498624 0.247941136 -0.566177249
vt 0.180899993 0.661300004
vn 0 0.534515371 -0.845158753
v 0.0377479568 0.0718749613 -0.0774981976
vt 0.587300003 0.577300012
vn 0 -0.999960712 -0.0088642176
v -0.037747927 0.0718749613 -0.0774981976
vt 0.588699996 0.621500015
vn 0 -0.999960712 -0.0088642176
v -0.0431988947 0.0732375979 -0.231215447
vt 0.509199977 0.627099991
vn 0 -0.978966506 0.204021027
v 0.0377479568 0.0718749613 -0.0774981976
vt 0.587300003 0.577300012
vn 0 -0.999960712 -0.0088642176
v -0.0431988947 0.0732375979 -0.231215447
vt 0.509199977 0.627099991
vn 0 -0.978966506 0.204021027
v 0.0431989245 0.0732375979 -0.231215447
vt 0.507600009 0.576499999
vn 0 -0.862642718 0.505813741
v 0.0486498922 0.219323367 0.0661348104
vt 0.699899971 0.8398
vn 0.940359224 0.339903355 0.013792724
v 0.0486498922 0.221776396 0.335957676
vt 0.925499976 0.841700017
vn 0.913044537 0.407843016 -0.00370780588
v 0.0486498922 0.137831554 0.335957676
vt 0.925300002 0.767199993
vn 1 0 0
v 0.0486498922 0.219323367 0.0661348104
vt 0.699899971 0.8398
vn 0.940359224 0.339903355 0.013792724
v 0.0486498922 0.137831554 0.335957676
vt 0.925300002 0.767199993
vn 1 0 0
v 0.0486498922 0.131017685 -0.0458826125
vt 0.607800007 0.762899995
vn 0.999719297 -0.0236757932 0.000885992798
v 0.0486498922 0.219323367 0.0661348104
vt 0.699899971 0.8398
vn 0.940359224 0.339903355 0.013792724
v 0.0486498922 0.131017685 -0.0458826125
vt 0.607800007 0.762899995
vn 0.999719297 -0.0236757932 0.000885992798
v 0.0486498922 0.247941136 0.00671923161
vt 0.649399996 0.85710001
vn 0.896145755 0.443041368 0.0252414683
v 0.0486498922 0.131017685 -0.0458826125
vt 0.607800007 0.762899995
vn 0.999719297 -0.0236757932 0.000885992798
v 0.0486498922 0.247941136 -0.566177249
vt 0.194100007 0.858399987
vn 0.982086535 0.188430458 4.56452081e-17
v 0.0486498922 0.247941136 0.00671923161
vt 0.649399996 0.85710001
vn 0.896145755 0.443041368 0.0252414683
v 0.0486498922 0.131017685 -0.0458826125
vt 0.607800007 0.762899995
vn 0.999719297 -0.0236757932 0.000885992798
v 0.0486498922 0.153094187 -0.624502718
vt 0.147599995 0.784699976
vn 0.99953118 -0.0305210176 -0.00242657797
v 0.0486498922 0.247941136 -0.566177249
vt 0.194100007 0.858399987
vn 0.982086535 0.188430458 4.56452081e-17
v 0.0486498922 0.131017685 -0.0458826125
vt 0.607800007 0.762899995
vn 0.999719297 -0.0236757932 0.000885992798
v 0.0431989245 0.0732375979 -0.231215447
vt 0.460299999 0.722000003
vn 0.997668951 -0.0666449116 0.0146669557
v 0.0486498922 0.153094187 -0.624502718
vt 0.147599995 0.784699976
vn 0.99953118 -0.0305210176 -0.00242657797
v 0.0486498922 0.131017685 -0.0458826125
vt 0.607800007 0.762899995
vn 0.999719297 -0.0236757932 0.000885992798
v 0.0377479568 0.0718749613 -0.0774981976
vt 0.582700014 0.720099986
vn 0.979605817 -0.198203707 0.032980814
v 0.0431989245 0.0732375979 -0.231215447
vt 0.460299999 0.722000003
vn 0.997668951 -0.0666449116 0.0146669557
v 0.0486498922 0.247941136 0.00671923161
vt 0.649399996 0.85710001
vn 0.896145755 0.443041368 0.0252414683
v 0.0486498922 0.247941136 -0.566177249
vt 0.194100007 0.858399987
vn 0.982086535 0.188430458 4.56452081e-17
v 0.000136289353 0.285825133 -0.540557861
vt 0.214499995 0.903599977
vn 0.615469946 0.788160356 1.76267235e-16
v 0.0486498922 0.247941136 0.00671923161
vt 0.649399996 0.85710001
vn 0.896145755 0.443041368 0.0252414683
v 0.000136289353 0.285825133 -0.540557861
vt 0.214499995 0.903599977
vn 0.615469946 0.788160356 1.76267235e-16
v 0.000136289353 0.285825133 0.00671923161
vt 0.649800003 0.902999997
vn 0.61455704 0.786991304 0.0544456808
v 0.000136289353 0.243852884 0.0661348104
vt 0.701300025 0.885399997
vn 0.475462939 0.865484952 0.157704763
v 0.0486498922 0.247941136 0.00671923161
vt 0.649399996 0.85710001
vn 0.896145755 0.443041368 0.0252414683
v 0.000136289353 0.285825133 0.00671923161
vt 0.649800003 0.902999997
vn 0.61455704 0.786991304 0.0544456808
v 0.000136289353 0.243852884 0.0661348104
vt 0.701300025 0.885399997
vn 0.475462939 0.865484952 0.157704763
v 0.0486498922 0.219323367 0.0661348104
vt 0.699899971 0.8398
vn 0.940359224 0.339903355 0.013792724
v 0.0486498922 0.247941136 0.00671923161
vt 0.649399996 0.85710001
vn 0.896145755 0.443041368 0.0252414683
v 0.000136289353 0.246305913 0.321239978
vt 0.912899971 0.886699975
vn 0.452213384 0.891870828 -0.00833556223
v 0.0486498922 0.219323367 0.0661348104
vt 0.699899971 0.8398
vn 0.940359224 0.339903355 0.013792724
v 0.000136289353 0.243852884 0.0661348104
vt 0.701300025 0.885399997
vn 0.475462939 0.865484952 0.157704763
v 0.000136289353 0.246305913 0.321239978
vt 0.912899971 0.886699975
vn 0.452213384 0.891870828 -0.00833556223
v 0.0486498922 0.221776396 0.335957676
vt 0.925499976 0.841700017
vn 0.913044537 0.407843016 -0.00370780588
v 0.0486498922 0.219323367 0.0661348104
vt 0.699899971 0.8398
vn 0.940359224 0.339903355 0.013792724
v -0.0230303165 0.256117642 -1.04150164
vt 0.0496999994 0.505200028
vn -0.999517407 -0.0305272356 -0.00574808366
v -0.0230303165 0.204605922 -1.04150164
vt 0.100599997 0.505200028
vn -1 0 0
v -0.0230303165 0.203515545 -0.762139559
vt 0.101199999 0.815400004
vn -0.999478559 0.0162296568 -0.0279142894
v -0.0230303165 0.256117642 -1.04150164
vt 0.0496999994 0.505200028
vn -0.999517407 -0.0305272356 -0.00574808366
v -0.0230303165 0.203515545 -0.762139559
vt 0.101199999 0.815400004
vn -0.999478559 0.0162296568 -0.0279142894
v -0.0273910929 0.254754692 -0.549551845
vt 0.0500000007 0.996399999
vn -0.998820163 -0.0477235026 -0.00898603099
v -0.0355675444 0.183892056 -0.704086661
vt 0.122299999 0.865499973
vn -0.991981068 0.101678085 -0.0750674841
v -0.0230303165 0.203515545 -0.762139559
vt 0.101199999 0.815400004
vn -0.999478559 0.0162296568 -0.0279142894
v -0.0159440618 0.183619797 -0.762139559
vt 0.121699996 0.813300014
vn -0.898029128 -0.319850418 -0.302058597
v -0.0273910929 0.254754692 -0.549551845
vt 0.0500000007 0.996399999
vn -0.980298273 0.194008263 -0.0370956897
v -0.0230303165 0.203515545 -0.762139559
vt 0.101199999 0.815400004
vn -0.999478559 0.0162296568 -0.0279142894
v -0.0355675444 0.183892056 -0.704086661
vt 0.122299999 0.865499973
vn -0.991981068 0.101678085 -0.0750674841
v -0.040473409 0.142737255 -0.619051695
vt 0.162100002 0.938499987
vn -0.998635826 0.0280743655 -0.0440263264
v -0.0273910929 0.254754692 -0.549551845
vt 0.0500000007 0.996399999
vn -0.980298273 0.194008263 -0.0370956897
v -0.0355675444 0.183892056 -0.704086661
vt 0.122299999 0.865499973
vn -0.991981068 0.101678085 -0.0750674841
v -0.040473409 0.142737255 -0.619051695
vt 0.162100002 0.938499987
vn -0.998635826 0.0280743655 -0.0440263264
v -0.0355675444 0.183892056 -0.704086661
vt 0.122299999 0.865499973
vn -0.991981068 0.101678085 -0.0750674841
v -0.0241205133 0.143282443 -0.694820166
vt 0.164299995 0.872300029
vn -0.92942899 -0.308266395 -0.202814159
v 0.0238479935 0.256117642 -1.04150164
vt 0.00989999995 0.504899979
vn 0 0.999996162 0.00277049485
v -0.0230303165 0.256117642 -1.04150164
vt 0.0496999994 0.505200028
vn 0 0.999996162 0.00277049485
v -0.0273910929 0.254754692 -0.549551845
vt 0.0500000007 0.996399999
vn 0 0.999996162 0.00277049485
v 0.0238479935 0.256117642 -1.04150164
vt 0.00989999995 0.504899979
vn 0 0.999996162 0.00277049485
v -0.0273910929 0.254754692 -0.549551845
vt 0.0500000007 0.996399999
vn 0 0.999996162 0.00277049485
v 0.0279362183 0.254754692 -0.549551845
vt 0.0027999999 0.996100008
vn 0 0.999996162 0.00277049485
v 0.0238479935 0.204605922 -1.04150164
vt 0.165900007 0.92049998
vn 0 0 -1
v -0.0230303165 0.204605922 -1.04150164
vt 0.236100003 0.92049998
vn 0 0 -1
v -0.0230303165 0.256117642 -1.04150164
vt 0.236100003 0.996200025
vn 0 0 -1
v 0.0238479935 0.204605922 -1.04150164
vt 0.165900007 0.92049998
vn 0 0 -1
v -0.0230303165 0.256117642 -1.04150164
vt 0.236100003 0.996200025
vn 0 0 -1
v 0.0238479935 0.256117642 -1.04150164
vt 0.165900007 0.996200025
vn 0 0 -1
v 0.0238479935 0.203515545 -0.762139559
vt 0.932200015 0.676199973
vn 0 -0.9992203 -0.0394815381
v -0.0230303165 0.203515545 -0.762139559
vt 0.984300017 0.676199973
vn 0 -0.992301196 -0.123848036
v -0.0230303165 0.204605922 -1.04150164
vt 0.984300017 0.996299982
vn 0 -0.999992383 -0.00390306821
v 0.0238479935 0.203515545 -0.762139559
vt 0.932200015 0.676199973
vn 0 -0.9992203 -0.0394815381
v -0.0230303165 0.204605922 -1.04150164
vt 0.984300017 0.996299982
vn 0 -0.999992383 -0.00390306821
v 0.0238479935 0.204605922 -1.04150164
vt 0.932200015 0.996299982
vn 0 -0.999992383 -0.00390306821
v 0.0167617351 0.183619797 -0.762139559
vt 0.939999998 0.659300029
vn 0 -0.769762525 -0.638330366
v -0.0230303165 0.203515545 -0.762139559
vt 0.984300017 0.676199973
vn 0 -0.992301196 -0.123848036
v 0.0238479935 0.203515545 -0.762139559
vt 0.932200015 0.676199973
vn 0 -0.9992203 -0.0394815381
v 0.0167617351 0.183619797 -0.762139559
vt 0.939999998 0.659300029
vn 0 -0.769762525 -0.638330366
v -0.0159440618 0.183619797 -0.762139559
vt 0.976499975 0.659300029
vn 0 -0.994797049 -0.101876553
v -0.0230303165 0.203515545 -0.762139559
vt 0.984300017 0.676199973
vn 0 -0.992301196 -0.123848036
v 0.0363852158 0.183892056 -0.704086661
vt 0.925199986 0.608200014
vn 0 -0.918955223 -0.394361888
v -0.0159440618 0.183619797 -0.762139559
vt 0.976499975 0.659300029
vn 0 -0.994797049 -0.101876553
v 0.0167617351 0.183619797 -0.762139559
vt 0.939999998 0.659300029
vn 0 -0.769762525 -0.638330366
v 0.0363852158 0.183892056 -0.704086661
vt 0.925199986 0.608200014
vn 0 -0.918955223 -0.394361888
v -0.0355675444 0.183892056 -0.704086661
vt 0.99119997 0.608200014
vn 0 -0.73454145 -0.67856382
v -0.0159440618 0.183619797 -0.762139559
vt 0.976499975 0.659300029
vn 0 -0.994797049 -0.101876553
v 0.0249381848 0.143282443 -0.694820166
vt 0.935800016 0.57249999
vn 0 -0.69965557 -0.714480289
v -0.0355675444 0.183892056 -0.704086661
vt 0.99119997 0.608200014
vn 0 -0.73454145 -0.67856382
v 0.0363852158 0.183892056 -0.704086661
vt 0.925199986 0.608200014
vn 0 -0.918955223 -0.394361888
v 0.0249381848 0.143282443 -0.694820166
vt 0.935800016 0.57249999
vn 0 -0.69965557 -0.714480289
v -0.0241205133 0.143282443 -0.694820166
vt 0.980700016 0.57249999
vn 0 -0.98075851 -0.195224858
v -0.0355675444 0.183892056 -0.704086661
vt 0.99119997 0.608200014
vn 0 -0.73454145 -0.67856382
v 0.0412910841 0.142737255 -0.619051695
vt 0.920700014 0.505599976
vn 0 -0.999974114 -0.00719527088
v -0.0241205133 0.143282443 -0.694820166
vt 0.980700016 0.57249999
vn 0 -0.98075851 -0.195224858
v 0.0249381848 0.143282443 -0.694820166
vt 0.935800016 0.57249999
vn 0 -0.69965557 -0.714480289
v 0.0412910841 0.142737255 -0.619051695
vt 0.920700014 0.505599976
vn 0 -0.999974114 -0.00719527088
v -0.040473409 0.142737255 -0.619051695
vt 0.995700002 0.505599976
vn 0 -0.999974114 -0.00719527088
v -0.0241205133 0.143282443 -0.694820166
vt 0.980700016 0.57249999
vn 0 -0.98075851 -0.195224858
v 0.0238479935 0.203515545 -0.762139559
vt 0.101199999 0.815400004
vn 0.99945711 0.018136642 -0.0275054018
v 0.0238479935 0.204605922 -1.04150164
vt 0.100599997 0.505200028
vn 1 0 0
v 0.0238479935 0.256117642 -1.04150164
vt 0.0496999994 0.505200028
vn 0.99957581 -0.0286209345 -0.00538913932
v 0.0238479935 0.203515545 -0.762139559
vt 0.101199999 0.815400004
vn 0.99945711 0.018136642 -0.0275054018
v 0.0238479935 0.256117642 -1.04150164
vt 0.0496999994 0.505200028
vn 0.99957581 -0.0286209345 -0.00538913932
v 0.0279362183 0.254754692 -0.549551845
vt 0.0500000007 0.996399999
vn 0.997908022 0.0612195115 -0.0207786117
v 0.0279362183 0.254754692 -0.549551845
vt 0.0500000007 0.996399999
vn 0.997908022 0.0612195115 -0.0207786117
v 0.0363852158 0.183892056 -0.704086661
vt 0.122299999 0.865499973
vn 0.99186681 0.103294413 -0.0743672981
v 0.0238479935 0.203515545 -0.762139559
vt 0.101199999 0.815400004
vn 0.99945711 0.018136642 -0.0275054018
v 0.0363852158 0.183892056 -0.704086661
vt 0.122299999 0.865499973
vn 0.99186681 0.103294413 -0.0743672981
v 0.0167617351 0.183619797 -0.762139559
vt 0.121699996 0.813300014
vn 0.898029087 -0.319850572 -0.302058554
v 0.0238479935 0.203515545 -0.762139559
vt 0.101199999 0.815400004
vn 0.99945711 0.018136642 -0.0275054018
v 0.0412910841 0.142737255 -0.619051695
vt 0.162100002 0.938499987
vn 0.998624324 0.0295713446 -0.0433012061
v 0.0363852158 0.183892056 -0.704086661
vt 0.122299999 0.865499973
vn 0.99186681 0.103294413 -0.0743672981
v 0.0279362183 0.254754692 -0.549551845
vt 0.0500000007 0.996399999
vn 0.997908022 0.0612195115 -0.0207786117
v 0.0412910841 0.142737255 -0.619051695
vt 0.162100002 0.938499987
vn 0.998624324 0.0295713446 -0.0433012061
v 0.0249381848 0.143282443 -0.694820166
vt 0.164299995 0.872300029
vn 0.929428978 -0.308266402 -0.202814202
v 0.0363852158 0.183892056 -0.704086661
vt 0.122299999 0.865499973
vn 0.99186681 0.103294413 -0.0743672981
v -0.026300896 0.258025467 -0.440805137
vt 0.305900007 0.907800019
vn -1 0 0
v -0.026300896 0.29536432 -0.436716855
vt 0.309100002 0.936999977
vn -1 0 0
v -0.026300896 0.335156441 -0.500493169
vt 0.263300002 0.962300003
vn -0.999767404 0.0214500714 0.00224309503
v -0.026300896 0.258025467 -0.440805137
vt 0.305900007 0.907800019
vn -1 0 0
v -0.026300896 0.335156441 -0.500493169
vt 0.263300002 0.962300003
vn -0.999767404 0.0214500714 0.00224309503
v -0.026300896 0.258025467 -0.536197007
vt 0.234400004 0.907800019
vn -1 0 0
v -0.026300896 0.335156441 -0.500493169
vt 0.263300002 0.962300003
vn -0.999767404 0.0214500714 0.00224309503
v -0.026300896 0.29536432 -0.436716855
vt 0.309100002 0.936999977
vn -1 0 0
v -0.026300896 0.326435089 -0.417093396
vt 0.327899992 0.959399998
vn -0.997672989 0.0681446742 0.00221603784
v -0.026300896 0.335156441 -0.500493169
vt 0.263300002 0.962300003
vn -0.999767404 0.0214500714 0.00224309503
v -0.026300896 0.326435089 -0.417093396
vt 0.327899992 0.959399998
vn -0.997672989 0.0681446742 0.00221603784
v -0.0219401252 0.380944699 -0.446801215
vt 0.304699987 0.990100026
vn -0.996757011 0.0804594426 0.00131897788
v -0.0219401252 0.380944699 -0.446801215
vt 0.304699987 0.990100026
vn -0.996757011 0.0804594426 0.00131897788
v -0.026300896 0.326435089 -0.417093396
vt 0.327899992 0.959399998
vn -0.997672989 0.0681446742 0.00221603784
v -0.026300896 0.326435089 -0.232305661
vt 0.473199993 0.959399998
vn -0.998027357 0.0622428437 0.00819892221
v -0.0219401252 0.380944699 -0.446801215
vt 0.304699987 0.990100026
vn -0.996757011 0.0804594426 0.00131897788
v -0.026300896 0.326435089 -0.232305661
vt 0.473199993 0.959399998
vn -0.998027357 0.0622428437 0.00819892221
v -0.0219401252 0.380944699 -0.182974428
vt 0.512000024 0.990199983
vn -0.997622019 0.067586027 0.0135069198
v -0.026300896 0.326435089 -0.232305661
vt 0.473199993 0.959399998
vn -0.998027357 0.0622428437 0.00819892221
v -0.026300896 0.255027294 -0.138821587
vt 0.546899974 0.907800019
vn -0.999273566 0.0302851552 0.023133311
v -0.0219401252 0.380944699 -0.182974428
vt 0.512000024 0.990199983
vn -0.997622019 0.067586027 0.0135069198
v -0.026300896 0.326435089 -0.232305661
vt 0.473199993 0.959399998
vn -0.998027357 0.0622428437 0.00819892221
v -0.026300896 0.254754692 -0.20614098
vt 0.493999988 0.907800019
vn -1 0 0
v -0.026300896 0.255027294 -0.138821587
vt 0.546899974 0.907800019
vn -0.999273566 0.0302851552 0.023133311
v 0.0268460251 0.29536432 -0.436716855
vt 0.457500011 0.940999985
vn 0 -0.25424933 0.967138707
v -0.026300896 0.29536432 -0.436716855
vt 0.457500011 0.909200013
vn 0 -0.399368198 0.916790621
v -0.026300896 0.258025467 -0.440805137
vt 0.474599987 0.909200013
vn 0 -0.108840913 0.994059181
v 0.0268460251 0.29536432 -0.436716855
vt 0.457500011 0.940999985
vn 0 -0.25424933 0.967138707
v -0.026300896 0.258025467 -0.440805137
vt 0.474599987 0.909200013
vn 0 -0.108840913 0.994059181
v 0.0268460251 0.258025467 -0.440805137
vt 0.474599987 0.940999985
vn 0 -0.108840913 0.994059181
v 0.0268460251 0.326435089 -0.417093396
vt 0.441500008 0.940999985
vn 0 -0.963618013 0.267283228
v -0.026300896 0.29536432 -0.436716855
vt 0.457500011 0.909200013
vn 0 -0.399368198 0.916790621
v 0.0268460251 0.29536432 -0.436716855
vt 0.457500011 0.940999985
vn 0 -0.25424933 0.967138707
v 0.0268460251 0.326435089 -0.417093396
vt 0.441500008 0.940999985
vn 0 -0.963618013 0.267283228
v -0.026300896 0.326435089 -0.417093396
vt 0.441500008 0.909200013
vn 0 -0.996828528 0.0795794296
v -0.026300896 0.29536432 -0.436716855
vt 0.457500011 0.909200013
vn 0 -0.399368198 0.916790621
v 0.0268460251 0.326435089 -0.232305661
vt 0.355800003 0.941100001
vn 0 -0.98398888 -0.178229864
v -0.026300896 0.326435089 -0.417093396
vt 0.441500008 0.909200013
vn 0 -0.996828528 0.0795794296
v 0.0268460251 0.326435089 -0.417093396
vt 0.441500008 0.940999985
vn 0 -0.963618013 0.267283228
v 0.0268460251 0.326435089 -0.232305661
vt 0.355800003 0.941100001
vn 0 -0.98398888 -0.178229864
v -0.026300896 0.326435089 -0.232305661
vt 0.355800003 0.909200013
vn 0 -0.855751693 -0.517386741
v -0.026300896 0.326435089 -0.417093396
vt 0.441500008 0.909200013
vn 0 -0.996828528 0.0795794296
v 0.0268460251 0.254754692 -0.20614098
vt 0.321799994 0.941100001
vn 0 -0.342889636 -0.939375696
v -0.026300896 0.326435089 -0.232305661
vt 0.355800003 0.909200013
vn 0 -0.855751693 -0.517386741
v 0.0268460251 0.326435089 -0.232305661
vt 0.355800003 0.941100001
vn 0 -0.98398888 -0.178229864
v 0.0268460251 0.254754692 -0.20614098
vt 0.321799994 0.941100001
vn 0 -0.342889636 -0.939375696
v -0.026300896 0.254754692 -0.20614098
vt 0.321799994 0.909200013
vn 0 -0.342889636 -0.939375696
v -0.026300896 0.326435089 -0.232305661
vt 0.355800003 0.909200013
vn 0 -0.855751693 -0.517386741
v 0.0268460251 0.258025467 -0.536197007
vt 0.552200019 0.977999985
vn 0 0.420075645 -0.907489092
v -0.026300896 0.258025467 -0.536197007
vt 0.552100003 0.923300028
vn 0 0.420075645 -0.907489092
v -0.026300896 0.335156441 -0.500493169
vt 0.595700026 0.923200011
vn 0 0.530206936 -0.847868271
v 0.0268460251 0.258025467 -0.536197007
vt 0.552200019 0.977999985
vn 0 0.420075645 -0.907489092
v -0.026300896 0.335156441 -0.500493169
vt 0.595700026 0.923200011
vn 0 0.530206936 -0.847868271
v 0.0268460251 0.335156441 -0.500493169
vt 0.595899999 0.977900028
vn 0 0.64004043 -0.768341232
v 0.0268460251 0.335156441 -0.500493169
vt 0.595899999 0.977900028
vn 0 0.64004043 -0.768341232
v -0.026300896 0.335156441 -0.500493169
vt 0.595700026 0.923200011
vn 0 0.530206936 -0.847868271
v -0.0219401252 0.380944699 -0.446801215
vt 0.633899987 0.927600026
vn 0 0.967009223 -0.254741364
v 0.0268460251 0.335156441 -0.500493169
vt 0.595899999 0.977900028
vn 0 0.64004043 -0.768341232
v -0.0219401252 0.380944699 -0.446801215
vt 0.633899987 0.927600026
vn 0 0.967009223 -0.254741364
v 0.0224852506 0.380944699 -0.446801215
vt 0.634000003 0.97329998
vn 0 0.996912587 -0.0785193811
v 0.0224852506 0.380944699 -0.446801215
vt 0.634000003 0.97329998
vn 0 0.996912587 -0.0785193811
v -0.0219401252 0.380944699 -0.446801215
vt 0.633899987 0.927600026
vn 0 0.967009223 -0.254741364
v -0.0219401252 0.380944699 -0.182974428
vt 0.76789999 0.927299976
vn 0 0.976601442 0.215057257
v 0.0224852506 0.380944699 -0.446801215
vt 0.634000003 0.97329998
vn 0 0.996912587 -0.0785193811
v -0.0219401252 0.380944699 -0.182974428
vt 0.76789999 0.927299976
vn 0 0.976601442 0.215057257
v 0.0224852506 0.380944699 -0.182974428
vt 0.768000007 0.97299999
vn 0 0.793668957 0.608349889
v 0.0224852506 0.380944699 -0.182974428
vt 0.768000007 0.97299999
vn 0 0.793668957 0.608349889
v -0.0219401252 0.380944699 -0.182974428
vt 0.76789999 0.927299976
vn 0 0.976601442 0.215057257
v -0.026300896 0.255027294 -0.138821587
vt 0.826600015 0.922599971
vn 0 0.330896166 0.94366717
v 0.0224852506 0.380944699 -0.182974428
vt 0.768000007 0.97299999
vn 0 0.793668957 0.608349889
v -0.026300896 0.255027294 -0.138821587
vt 0.826600015 0.922599971
vn 0 0.330896166 0.94366717
v 0.0268460251 0.255027294 -0.138821587
vt 0.826699972 0.977299988
vn 0 0.330896166 0.94366717
v 0.0268460251 0.335156441 -0.500493169
vt 0.263300002 0.962300003
vn 0.999767404 0.0214500897 0.00224309694
v 0.0268460251 0.29536432 -0.436716855
vt 0.309100002 0.936999977
vn 1 0 0
v 0.0268460251 0.258025467 -0.440805137
vt 0.305900007 0.907800019
vn 1 0 0
v 0.0268460251 0.335156441 -0.500493169
vt 0.263300002 0.962300003
vn 0.999767404 0.0214500897 0.00224309694
v 0.0268460251 0.258025467 -0.440805137
vt 0.305900007 0.907800019
vn 1 0 0
v 0.0268460251 0.258025467 -0.536197007
vt 0.234400004 0.907800019
vn 1 0 0
v 0.0268460251 0.335156441 -0.500493169
vt 0.263300002 0.962300003
vn 0.999767404 0.0214500897 0.00224309694
v 0.0268460251 0.326435089 -0.417093396
vt 0.327899992 0.959399998
vn 0.997672985 0.0681447322 0.00221603972
v 0.0268460251 0.29536432 -0.436716855
vt 0.309100002 0.936999977
vn 1 0 0
v 0.0268460251 0.335156441 -0.500493169
vt 0.263300002 0.962300003
vn 0.999767404 0.0214500897 0.00224309694
v 0.0224852506 0.380944699 -0.446801215
vt 0.304699987 0.990100026
vn 0.996757005 0.0804595109 0.001318979
v 0.0268460251 0.326435089 -0.417093396
vt 0.327899992 0.959399998
vn 0.997672985 0.0681447322 0.00221603972
v 0.0224852506 0.380944699 -0.446801215
vt 0.304699987 0.990100026
vn 0.996757005 0.0804595109 0.001318979
v 0.0268460251 0.326435089 -0.232305661
vt 0.473199993 0.959399998
vn 0.998027354 0.0622428967 0.00819892918
v 0.0268460251 0.326435089 -0.417093396
vt 0.327899992 0.959399998
vn 0.997672985 0.0681447322 0.00221603972
v 0.0224852506 0.380944699 -0.446801215
vt 0.304699987 0.990100026
vn 0.996757005 0.0804595109 0.001318979
v 0.0224852506 0.380944699 -0.182974428
vt 0.512000024 0.990199983
vn 0.997622015 0.0675860844 0.0135069313
v 0.0268460251 0.326435089 -0.232305661
vt 0.473199993 0.959399998
vn 0.998027354 0.0622428967 0.00819892918
v 0.0268460251 0.255027294 -0.138821587
vt 0.546899974 0.907800019
vn 0.999273565 0.030285181 0.0231333307
v 0.0268460251 0.326435089 -0.232305661
vt 0.473199993 0.959399998
vn 0.998027354 0.0622428967 0.00819892918
v 0.0224852506 0.380944699 -0.182974428
vt 0.512000024 0.990199983
vn 0.997622015 0.0675860844 0.0135069313
v 0.0268460251 0.255027294 -0.138821587
vt 0.546899974 0.907800019
vn 0.999273565 0.030285181 0.0231333307
v 0.0268460251 0.254754692 -0.20614098
vt 0.493999988 0.907800019
vn 1 0 0
v 0.0268460251 0.326435089 -0.232305661
vt 0.473199993 0.959399998
vn 0.998027354 0.0622428967 0.00819892918
v 0.0317518935 0.193431526 -0.983994007
vt 0.487100005 0.671000004
vn 0 1.53716696e-15 -1
v -0.029571481 0.193431526 -0.983994007
vt 0.452899992 0.671000004
vn 0 1.53716696e-15 -1
v -0.029571481 0.265656799 -0.983994007
vt 0.452899992 0.631600022
vn 0 1.53716696e-15 -1
v 0.0317518935 0.193431526 -0.983994007
vt 0.487100005 0.671000004
vn 0 1.53716696e-15 -1
v -0.029571481 0.265656799 -0.983994007
vt 0.452899992 0.631600022
vn 0 1.53716696e-15 -1
v 0.0317518935 0.265656799 -0.983994007
vt 0.487100005 0.631600022
vn 0 1.53716696e-15 -1
v -0.029571481 0.193431526 -0.983994007
vt 0.496199995 0.63349998
vn -1 0 0
v -0.029571481 0.193431526 -0.88015306
vt 0.561200023 0.63349998
vn -1 0 0
v -0.029571481 0.265656799 -0.88015306
vt 0.561200023 0.677699983
vn -0.762293924 0.647231005 0
v -0.029571481 0.193431526 -0.983994007
vt 0.496199995 0.63349998
vn -1 0 0
v -0.029571481 0.265656799 -0.88015306
vt 0.561200023 0.677699983
vn -0.762293924 0.647231005 0
v -0.029571481 0.265656799 -0.983994007
vt 0.496199995 0.677699983
vn -0.762293924 0.647231005 0
v 0.0317518935 0.265656799 -0.983994007
vt 0.496199995 0.716099977
vn 0 1 0
v -0.029571481 0.265656799 -0.983994007
vt 0.496199995 0.677699983
vn -0.762293924 0.647231005 0
v -0.029571481 0.265656799 -0.88015306
vt 0.561200023 0.677699983
vn -0.762293924 0.647231005 0
v 0.0317518935 0.265656799 -0.983994007
vt 0.496199995 0.716099977
vn 0 1 0
v -0.029571481 0.265656799 -0.88015306
vt 0.561200023 0.677699983
vn -0.762293924 0.647231005 0
v 0.0317518935 0.265656799 -0.88015306
vt 0.561200023 0.716099977
vn 0 1 0
v -0.029571481 0.193431526 -0.88015306
vt 0.491899997 0.712100029
vn 0 -1.53716696e-15 1
v 0.0317518935 0.193431526 -0.88015306
vt 0.459500015 0.712100029
vn 0 -1.53716696e-15 1
v 0.0317518935 0.265656799 -0.88015306
vt 0.459500015 0.674799979
vn 0 -1.53716696e-15 1
v -0.029571481 0.193431526 -0.88015306
vt 0.491899997 0.712100029
vn 0 -1.53716696e-15 1
v 0.0317518935 0.265656799 -0.88015306
vt 0.459500015 0.674799979
vn 0 -1.53716696e-15 1
v -0.029571481 0.265656799 -0.88015306
vt 0.491899997 0.674799979
vn 0 -1.53716696e-15 1
v 0.0317518935 0.193431526 -0.88015306
vt 0.561200023 0.63349998
vn 1 0 0
v 0.0317518935 0.193431526 -0.983994007
vt 0.496199995 0.63349998
vn 1 0 0
v 0.0317518935 0.265656799 -0.983994007
vt 0.496199995 0.677699983
vn 1 0 0
v 0.0317518935 0.193431526 -0.88015306
vt 0.561200023 0.63349998
vn 1 0 0
v 0.0317518935 0.265656799 -0.983994007
vt 0.496199995 0.677699983
vn 1 0 0
v 0.0317518935 0.265656799 -0.88015306
vt 0.561200023 0.677699983
vn 1 0 0
v 0.0317518935 0.193431526 -0.88015306
vt 0.662800014 0.577300012
vn 0 -1 -2.67289315e-16
v -0.029571481 0.193431526 -0.88015306
vt 0.662800014 0.612299979
vn 0 -1 -2.67289315e-16
v -0.029571481 0.193431526 -0.983994007
vt 0.603500009 0.612299979
vn 0 -1 -2.67289315e-16
v 0.0317518935 0.193431526 -0.88015306
vt 0.662800014 0.577300012
vn 0 -1 -2.67289315e-16
v -0.029571481 0.193431526 -0.983994007
vt 0.603500009 0.612299979
vn 0 -1 -2.67289315e-16
v 0.0317518935 0.193431526 -0.983994007
vt 0.603500009 0.577300012
vn 0 -1 -2.67289315e-16
usemtl TB10-LW-Newlambert5SG1
f 1/1/1 2/2/2 3/3/3
f 4/4/4 5/5/5 6/6/6
f 7/7/7 8/8/8 9/9/9
f 10/10/10 11/11/11 12/12/12
f 13/13/13 14/14/14 15/15/15
f 16/16/16 17/17/17 18/18/18
f 19/19/19 20/20/20 21/21/21
f 22/22/22 23/23/23 24/24/24
f 25/25/25 26/26/26 27/27/27
f 28/28/28 29/29/29 30/30/30
f 31/31/31 32/32/32 33/33/33
f 34/34/34 35/35/35 36/36/36
f 37/37/37 38/38/38 39/39/39
f 40/40/40 41/41/41 42/42/42
f 43/43/43 44/44/44 45/45/45
f 46/46/46 47/47/47 48/48/48
f 49/49/49 50/50/50 51/51/51
f 52/52/52 53/53/53 54/54/54
f 55/55/55 56/56/56 57/57/57
f 58/58/58 59/59/59 60/60/60
f 61/61/61 62/62/62 63/63/63
f 64/64/64 65/65/65 66/66/66
f 67/67/67 68/68/68 69/69/69
f 70/70/70 71/71/71 72/72/72
f 73/73/73 74/74/74 75/75/75
f 76/76/76 77/77/77 78/78/78
f 79/79/79 80/80/80 81/81/81
f 82/82/82 83/83/83 84/84/84
f 85/85/85 86/86/86 87/87/87
f 88/88/88 89/89/89 90/90/90
f 91/91/91 92/92/92 93/93/93
f 94/94/94 95/95/95 96/96/96
f 97/97/97 98/98/98 99/99/99
f 100/100/100 101/101/101 102/102/102
f 103/103/103 104/104/104 105/105/105
f 106/106/106 107/107/107 108/108/108
f 109/109/109 110/110/110 111/111/111
f 112/112/112 113/113/113 114/114/114
f 115/115/115 116/116/116 117/117/117
f 118/118/118 119/119/119 120/120/120
f 121/121/121 122/122/122 123/123/123
f 124/124/124 125/125/125 126/126/126
f 127/127/127 128/128/128 129/129/129
f 130/130/130 131/131/131 132/132/132
f 133/133/133 134/134/134 135/135/135
f 136/136/136 137/137/137 138/138/138
f 139/139/139 140/140/140 141/141/141
f 142/142/142 143/143/143 144/144/144
f 145/145/145 146/146/146 147/147/147
f 148/148/148 149/149/149 150/150/150
f 151/151/151 152/152/152 153/153/153
f 154/154/154 155/155/155 156/156/156
f 157/157/157 158/158/158 159/159/159
f 160/160/160 161/161/161 162/162/162
f 163/163/163 164/164/164 165/165/165
f 166/166/166 167/167/167 168/168/168
f 169/169/169 170/170/170 171/171/171
f 172/172/172 173/173/173 174/174/174
f 175/175/175 176/176/176 177/177/177
f 178/178/178 179/179/179 180/180/180
f 181/181/181 182/182/182 183/183/183
f 184/184/184 185/185/185 186/186/186
f 187/187/187 188/188/188 189/189/189
f 190/190/190 191/191/191 192/192/192
f 193/193/193 194/194/194 195/195/195
f 196/196/196 197/197/197 198/198/198
f 199/199/199 200/200/200 201/201/201
f 202/202/202 203/203/203 204/204/204
f 205/205/205 206/206/206 207/207/207
f 208/208/208 209/209/209 210/210/210
f 211/211/211 212/212/212 213/213/213
f 214/214/214 215/215/215 216/216/216
f 217/217/217 218/218/218 219/219/219
f 220/220/220 221/221/221 222/222/222
f 223/223/223 224/224/224 225/225/225
f 226/226/226 227/227/227 228/228/228
f 229/229/229 230/230/230 231/231/231
f 232/232/232 233/233/233 234/234/234
f 235/235/235 236/236/236 237/237/237
f 238/238/238 239/239/239 240/240/240
f 241/241/241 242/242/242 243/243/243
f 244/244/244 245/245/245 246/246/246
f 247/247/247 248/248/248 249/249/249
f 250/250/250 251/251/251 252/252/252
f 253/253/253 254/254/254 255/255/255
f 256/256/256 257/257/257 258/258/258
f 259/259/259 260/260/260 261/261/261
f 262/262/262 263/263/263 264/264/264
f 265/265/265 266/266/266 267/267/267
f 268/268/268 269/269/269 270/270/270
f 271/271/271 272/272/272 273/273/273
f 274/274/274 275/275/275 276/276/276
f 277/277/277 278/278/278 279/279/279
f 280/280/280 281/281/281 282/282/282
f 283/283/283 284/284/284 285/285/285
f 286/286/286 287/287/287 288/288/288
f 289/289/289 290/290/290 291/291/291
f 292/292/292 293/293/293 294/294/294
f 295/295/295 296/296/296 297/297/297
f 298/298/298 299/299/299 300/300/300
f 301/301/301 302/302/302 303/303/303
f 304/304/304 305/305/305 306/306/306
f 307/307/307 308/308/308 309/309/309
f 310/310/310 311/311/311 312/312/312
f 313/313/313 314/314/314 315/315/315
f 316/316/316 317/317/317 318/318/318
f 319/319/319 320/320/320 321/321/321
f 322/322/322 323/323/323 324/324/324
f 325/325/325 326/326/326 327/327/327
f 328/328/328 329/329/329 330/330/330
f 331/331/331 332/332/332 333/333/333
f 334/334/334 335/335/335 336/336/336
f 337/337/337 338/338/338 339/339/339
f 340/340/340 341/341/341 342/342/342
f 343/343/343 344/344/344 345/345/345
f 346/346/346 347/347/347 348/348/348
f 349/349/349 350/350/350 351/351/351
f 352/352/352 353/353/353 354/354/354
f 355/355/355 356/356/356 357/357/357
f 358/358/358 359/359/359 360/360/360
f 361/361/361 362/362/362 363/363/363
f 364/364/364 365/365/365 366/366/366
f 367/367/367 368/368/368 369/369/369
f 370/370/370 371/371/371 372/372/372
f 373/373/373 374/374/374 375/375/375
f 376/376/376 377/377/377 378/378/378
f 379/379/379 380/380/380 381/381/381
f 382/382/382 383/383/383 384/384/384
f 385/385/385 386/386/386 387/387/387
f 388/388/388 389/389/389 390/390/390
