# Generated from legacy Unity YAML Mesh assets without Unity.
mtllib gun09.mtl

o gun09
v -0.0466057584 0.200993508 -0.255524218
v -0.0466057584 0.233971804 -0.367541611
v -0.0466057584 0.237242609 -0.267788917
v -0.0466057584 0.211623043 -0.383076847
v -0.0466057584 0.127133012 -0.256341875
v -0.048786141 0.200175732 -0.187659711
v -0.0466057584 0.125770032 -0.144869626
v -0.0528743677 0.215166092 -0.171034262
v -0.044697918 0.209715202 0.0172966272
v -0.0329783373 0.0723508 -0.0928128883
v -0.031888146 0.101240844 0.0900670439
v -0.0329783373 0.0279252008 -0.000419035554
v -0.0329783373 0.0178411901 0.0933376104
v -0.0466057584 0.0549077392 0.10941799
v -0.0286175683 0.173738703 0.0848886222
v -0.031888146 0.102330893 0.190092251
v -0.034341082 0.161201358 0.224433377
v -0.0346136317 0.128495649 0.327456594
v -0.0466057584 0.0865233913 -0.582037091
v -0.0329783373 0.0606312305 -0.512264729
v -0.0329783373 0.0557251945 -0.316847622
v 7.68463071e-09 0.221979648 -0.194745958
v 7.68463071e-09 0.222797424 -0.24952817
v -0.0444253683 0.215438694 0.295295894
v -0.0444253683 0.199085683 0.319552779
v -0.0248018876 0.00584901869 0.311376274
v -0.0248018876 0.0260173678 0.378423154
v -0.0547822043 0.211623043 -0.652082026
v -0.044970464 0.0668999031 -0.651264369
v -0.0436077267 0.183005258 -0.730030894
v -0.0387018546 0.0818899497 -0.730030894
v -0.0313430503 0.0194764212 -0.664074183
v 7.68463071e-09 0.233699203 -0.637091875
v 7.68463071e-09 0.233699203 -0.383076847
v 7.68463071e-09 0.256048322 -0.367541611
v 7.68463071e-09 0.259318769 -0.267788917
v 7.68463071e-09 0.222797424 -0.24952817
v 7.68463071e-09 0.259318769 -0.267788917
v 7.68463071e-09 0.237242609 -0.171034262
v 7.68463071e-09 0.22961095 0.00802999735
v 0.0327058062 0.0723508 -0.0928128883
v -0.0466057584 0.125770032 -0.144869626
v -0.0329783373 0.0723508 -0.0928128883
v 0.0466057658 0.125770032 -0.144869626
v 0.0327058062 0.0279252008 -0.000419035554
v -0.0329783373 0.0279252008 -0.000419035554
v 0.0327058062 0.0178411901 0.0933376104
v -0.0329783373 0.0178411901 0.0933376104
v -0.0466057584 0.127133012 -0.256341875
v 0.0466057658 0.127133012 -0.256341875
v 0.0245293546 0.0260173678 0.378423154
v -0.0248018876 0.00584901869 0.311376274
v -0.0248018876 0.0260173678 0.378423154
v 0.0245293546 0.00584901869 0.311376274
v -0.031888146 0.102330893 0.190092251
v 0.0318881609 0.102330893 0.190092251
v -0.031888146 0.101240844 0.0900670439
v 0.0318881609 0.101240844 0.0900670439
v 0.0343410969 0.128495649 0.327456594
v -0.0248018876 0.0260173678 0.378423154
v -0.0346136317 0.128495649 0.327456594
v 0.0245293546 0.0260173678 0.378423154
v 0.0444253832 0.199085683 0.319552779
v -0.0444253683 0.199085683 0.319552779
v 0.0444253832 0.215438694 0.295295894
v -0.0444253683 0.215438694 0.295295894
v 0.0343410969 0.161201358 0.224433377
v -0.0444253683 0.215438694 0.295295894
v -0.034341082 0.161201358 0.224433377
v 0.0444253832 0.215438694 0.295295894
v 0.0286175814 0.173738703 0.0848886222
v -0.0286175683 0.173738703 0.0848886222
v -0.044697918 0.209715202 0.0172966272
v 0.0446979329 0.209715202 0.0172966272
v 7.68463071e-09 0.22961095 0.00802999735
v 0.0466057658 0.0549077392 0.10941799
v -0.0329783373 0.0178411901 0.0933376104
v -0.0466057584 0.0549077392 0.10941799
v 0.0327058062 0.0178411901 0.0933376104
v 0.0318881609 0.101240844 0.0900670439
v -0.031888146 0.101240844 0.0900670439
v 0.0313430652 0.0194764212 -0.664074183
v -0.0387018546 0.0818899497 -0.730030894
v -0.0313430503 0.0194764212 -0.664074183
v 0.0384293199 0.0818899497 -0.730030894
v -0.0436077267 0.183005258 -0.730030894
v 0.0436077341 0.183005258 -0.730030894
v 0.054782223 0.211623043 -0.652082026
v -0.0547822043 0.211623043 -0.652082026
v 7.68463071e-09 0.233699203 -0.637091875
v 0.0449704789 0.0668999031 -0.651264369
v -0.0313430503 0.0194764212 -0.664074183
v -0.044970464 0.0668999031 -0.651264369
v 0.0313430652 0.0194764212 -0.664074183
v 0.0466057658 0.0865233913 -0.582037091
v -0.0466057584 0.0865233913 -0.582037091
v 0.0327058062 0.0606312305 -0.512264729
v -0.0329783373 0.0606312305 -0.512264729
v 0.0327058062 0.0557251945 -0.316847622
v -0.0329783373 0.0557251945 -0.316847622
v 0.0466057658 0.127133012 -0.256341875
v -0.0466057584 0.127133012 -0.256341875
v 0.0466057658 0.233971804 -0.367541611
v 0.0466057658 0.200993508 -0.255524218
v 0.0466057658 0.237242609 -0.267788917
v 0.0466057658 0.211623043 -0.383076847
v 0.0466057658 0.127133012 -0.256341875
v 0.0487861596 0.200175732 -0.187659711
v 0.0466057658 0.125770032 -0.144869626
v 0.0526018292 0.215166092 -0.171034262
v 0.0446979329 0.209715202 0.0172966272
v 0.0327058062 0.0723508 -0.0928128883
v 0.0318881609 0.101240844 0.0900670439
v 0.0327058062 0.0279252008 -0.000419035554
v 0.0327058062 0.0178411901 0.0933376104
v 0.0466057658 0.0549077392 0.10941799
v 0.0286175814 0.173738703 0.0848886222
v 0.0318881609 0.102330893 0.190092251
v 0.0343410969 0.161201358 0.224433377
v 0.0343410969 0.128495649 0.327456594
v 0.0466057658 0.0865233913 -0.582037091
v 0.0327058062 0.0606312305 -0.512264729
v 0.0327058062 0.0557251945 -0.316847622
v 7.68463071e-09 0.221979648 -0.194745958
v 7.68463071e-09 0.222797424 -0.24952817
v 0.0444253832 0.215438694 0.295295894
v 0.0444253832 0.199085683 0.319552779
v 0.0245293546 0.00584901869 0.311376274
v 0.0245293546 0.0260173678 0.378423154
v 0.054782223 0.211623043 -0.652082026
v 0.0449704789 0.0668999031 -0.651264369
v 0.0436077341 0.183005258 -0.730030894
v 0.0384293199 0.0818899497 -0.730030894
v 0.0313430652 0.0194764212 -0.664074183
v 7.68463071e-09 0.233699203 -0.637091875
v 7.68463071e-09 0.233699203 -0.383076847
v 7.68463071e-09 0.256048322 -0.367541611
v 7.68463071e-09 0.259318769 -0.267788917
v 7.68463071e-09 0.222797424 -0.24952817
v 7.68463071e-09 0.259318769 -0.267788917
v 7.68463071e-09 0.237242609 -0.171034262
v 7.68463071e-09 0.22961095 0.00802999735
vt 0.467999995 0.913399994
vt 0.361699998 0.952099979
vt 0.446200013 0.952600002
vt 0.334500015 0.923300028
vt 0.459399998 0.846300006
vt 0.508400023 0.907999992
vt 0.564800024 0.8477
vt 0.544200003 0.920099974
vt 0.684300005 0.920099974
vt 0.602699995 0.803499997
vt 0.754400015 0.809599996
vt 0.677299976 0.758300006
vt 0.750999987 0.740199983
vt 0.770600021 0.769400001
vt 0.755699992 0.870999992
vt 0.837700009 0.801199973
vt 0.870899975 0.847000003
vt 0.953999996 0.809700012
vt 0.1567 0.797999978
vt 0.223299995 0.773599982
vt 0.407499999 0.77640003
vt 0.522899985 0.959599972
vt 0.475600004 0.963999987
vt 0.934400022 0.885599971
vt 0.953199983 0.869499981
vt 0.930899978 0.708800018
vt 0.988399982 0.718999982
vt 0.0925000012 0.921899974
vt 0.0917999968 0.776499987
vt 0.0126999998 0.882399976
vt 0.0166999996 0.786800027
vt 0.0810000002 0.729600012
vt 0.106200002 0.969200015
vt 0.339300007 0.973399997
vt 0.360599995 0.985899985
vt 0.448199987 0.985400021
vt 0.475600004 0.963999987
vt 0.448199987 0.985400021
vt 0.546000004 0.964100003
vt 0.674499989 0.959399998
vt 0.514800012 0.529799998
vt 0.443800002 0.601300001
vt 0.514800012 0.58890003
vt 0.443800002 0.517400026
vt 0.6153 0.529799998
vt 0.6153 0.58890003
vt 0.708999991 0.529799998
vt 0.708999991 0.58890003
vt 0.331 0.601300001
vt 0.331 0.517400026
vt 0.98269999 0.626600027
vt 0.901499987 0.688499987
vt 0.983299971 0.6875
vt 0.900900006 0.627600014
vt 0.725199997 0.699899971
vt 0.724399984 0.620899975
vt 0.607800007 0.701399982
vt 0.606999993 0.622500002
vt 0.881699979 0.526300013
vt 0.774600029 0.578100026
vt 0.880800009 0.588500023
vt 0.775200009 0.533599973
vt 0.94630003 0.518299997
vt 0.945100009 0.598399997
vt 0.974600017 0.51880002
vt 0.973500013 0.598800004
vt 0.915300012 0.974799991
vt 0.989700019 0.906700015
vt 0.915099978 0.91170001
vt 0.99000001 0.979399979
vt 0.794799984 0.975199997
vt 0.79460001 0.912100017
vt 0.729900002 0.898199975
vt 0.730199993 0.989400029
vt 0.696200013 0.943899989
vt 0.552299976 0.605199993
vt 0.509199977 0.703800023
vt 0.553499997 0.720200002
vt 0.508400023 0.622699976
vt 0.606999993 0.622500002
vt 0.607800007 0.701399982
vt 0.288599998 0.524900019
vt 0.203799993 0.586300015
vt 0.288599998 0.579900026
vt 0.203799993 0.51849997
vt 0.1052 0.592499971
vt 0.1052 0.512300014
vt 0.0344999991 0.504199982
vt 0.0344999991 0.600499988
vt 0.00510000018 0.552399993
vt 0.0666000023 0.637399971
vt 0.0215000007 0.704699993
vt 0.0656000003 0.717499971
vt 0.0221999995 0.649100006
vt 0.136999995 0.637000024
vt 0.135900006 0.719699979
vt 0.208900005 0.650099993
vt 0.208199993 0.708400011
vt 0.400999993 0.652400017
vt 0.400200009 0.710799992
vt 0.488499999 0.641300023
vt 0.487500012 0.724099994
vt 0.361699998 0.952099979
vt 0.467999995 0.913399994
vt 0.446200013 0.952600002
vt 0.334500015 0.923300028
vt 0.459399998 0.846300006
vt 0.508400023 0.907999992
vt 0.564800024 0.8477
vt 0.544200003 0.920099974
vt 0.684300005 0.920099974
vt 0.602699995 0.803499997
vt 0.754400015 0.809599996
vt 0.677299976 0.758300006
vt 0.750999987 0.740199983
vt 0.770600021 0.769400001
vt 0.755699992 0.870999992
vt 0.837700009 0.801199973
vt 0.870899975 0.847000003
vt 0.953999996 0.809700012
vt 0.1567 0.797999978
vt 0.223299995 0.773599982
vt 0.407499999 0.77640003
vt 0.522899985 0.959599972
vt 0.475600004 0.963999987
vt 0.934400022 0.885599971
vt 0.953199983 0.869499981
vt 0.930899978 0.708800018
vt 0.988399982 0.718999982
vt 0.0925000012 0.921899974
vt 0.0917999968 0.776499987
vt 0.0126999998 0.882399976
vt 0.0166999996 0.786800027
vt 0.0810000002 0.729600012
vt 0.106200002 0.969200015
vt 0.339300007 0.973399997
vt 0.360599995 0.985899985
vt 0.448199987 0.985400021
vt 0.475600004 0.963999987
vt 0.448199987 0.985400021
vt 0.546000004 0.964100003
vt 0.674499989 0.959399998
vn -0.964879088 0.255281322 0.0619660544
vn -0.827196345 0.527566547 -0.193441841
vn -0.625687715 0.749622279 0.215827064
vn -0.96249969 0.271277342 0.0017178522
vn -0.995894577 -0.0904334706 0.00397234344
vn -0.975631673 0.207188029 -0.0722215939
vn -0.995229207 -0.0882174045 0.0416715116
vn -0.822424446 0.568750756 -0.0118578551
vn -0.996015406 0.0573230511 0.0683182114
vn -0.994921501 -0.0928947291 0.0387527532
vn -0.999563463 -0.0269731603 0.0120553627
vn -0.999935242 0.0109217101 0.00319815504
vn -0.992114874 0.00806404015 -0.125072173
vn -0.778947226 -0.0144028813 -0.626924059
vn -0.998746019 0.0235304872 0.0441894379
vn -0.999308233 -0.0345406808 -0.0137839189
vn -0.99766747 -0.0592022595 -0.0339810459
vn -0.996384679 -0.0841484139 -0.0116883044
vn -0.99689786 -0.076751344 0.0174323985
vn -0.963226662 -0.268061723 0.0183660297
vn -0.982974741 -0.183682858 -0.00461144229
vn -0.41463477 0.891876042 -0.180651965
vn -0.425142789 0.905025463 0.0135100032
vn -0.989953176 -0.13121021 -0.052693362
vn -0.983956215 -0.147932612 -0.0997301856
vn -0.996751553 -0.080386733 0.00493091699
vn -0.996239317 -0.0829716114 0.0249586619
vn -0.982550139 0.185975973 -0.00285692078
vn -0.993393475 -0.0847189591 -0.0774086693
vn -0.992643598 -0.0597767872 -0.105287336
vn -0.988312227 -0.114647703 -0.100473109
vn -0.9621403 -0.243287113 -0.122871573
vn -0.400032162 0.916479765 0.00625375714
vn -0.423848829 0.89480155 -0.140293817
vn -0.424964419 0.89714971 -0.12053066
vn -0.427894508 0.903343316 -0.0296166102
vn -0.234677078 0.37601897 0.89640192
vn -0.207237434 0.437506319 0.875009067
vn -0.385060179 0.9222386 -0.0347076711
vn -0.391492553 0.919247408 0.0414461609
vn 0 -0.782627514 -0.6224903
vn 0 -0.907924979 -0.419132714
vn 0 -0.857231317 -0.51493152
vn 0 -0.979788357 -0.200036936
vn 0 -0.942324397 -0.334700958
vn 0 -0.974391452 -0.224858397
vn 0 -0.994265648 -0.106938397
vn 0 -0.994265648 -0.106938397
vn 0 -0.999925258 -0.0122261599
vn 0 -0.999925258 -0.0122261599
vn 0 -0.957612626 0.288059125
vn 0 -0.976674902 -0.214723394
vn 0 -0.957612626 0.288059125
vn 0 -0.864081965 -0.503351128
vn 0 -0.880075141 -0.474834441
vn 0 -0.95953375 -0.281593647
vn 0 -0.999940625 0.0108971034
vn 0 -0.999940625 0.0108971034
vn 0 0.36085789 0.932620814
vn 0 0.445307306 0.895377799
vn 0 0.25303366 0.967457475
vn 0 0.445307306 0.895377799
vn 0 0.260847367 0.965380055
vn 0 0.479338454 0.877630131
vn 0 0.829171684 0.558994024
vn 0 0.829171684 0.558994024
vn 0 0.937765755 -0.347268467
vn 0 0.794096301 -0.607791958
vn 0 0.995455573 -0.0952271092
vn 0 0.794096301 -0.607791958
vn 0 0.970280302 0.241983751
vn 0 0.97365163 0.228040576
vn 0 0.835830664 0.548987341
vn 0 0.808860891 0.58800005
vn 0 0.422209934 0.906498082
vn 0 -0.0734040233 0.997302286
vn 0 -0.39798681 0.917391137
vn 0 0.141991499 0.989867877
vn 0 -0.39798681 0.917391137
vn 0 0.385387124 0.922754986
vn 0 0.385387124 0.922754986
vn 0 -0.726347211 -0.687327964
vn 0 -0.487296843 -0.873236387
vn 0 -0.726347211 -0.687327964
vn 0 -0.230953011 -0.972964905
vn 0 0.567592012 -0.823309971
vn 0 0.515025267 -0.857174996
vn 0 0.903604799 -0.428367094
vn 0 0.877895836 -0.478851647
vn 0 0.561755415 -0.827303362
vn 0 -0.672532782 0.740067333
vn 0 -0.260769693 0.96540104
vn 0 -0.869436986 0.494043852
vn 0 -0.260769693 0.96540104
vn 0 -0.998111339 0.0614308992
vn 0 -0.991620113 -0.129188049
vn 0 -0.98323532 -0.182341179
vn 0 -0.997009131 -0.0772838427
vn 0 -0.990815648 0.135219643
vn 0 -0.897615713 0.440778893
vn 0 -0.646463542 0.76294488
vn 0 -0.646463542 0.76294488
vn 0.827196389 0.527566486 -0.193441818
vn 0.964879095 0.255281308 0.0619660008
vn 0.62568778 0.74962223 0.21582705
vn 0.9624997 0.271277306 0.00171787156
vn 0.995735074 -0.0921678976 0.00409152102
vn 0.975578846 0.207953662 -0.0707190839
vn 0.995233606 -0.0879264736 0.0421782567
vn 0.822424468 0.568750724 -0.0118578422
vn 0.996075811 0.056955826 0.0677422447
vn 0.994756098 -0.0948183391 0.0383378075
vn 0.999536772 -0.0283774646 0.0109981867
vn 0.999963572 0.00819153329 0.0023986897
vn 0.991929944 0.0047562898 -0.126697923
vn 0.775631599 -0.0171389519 -0.630953151
vn 0.998746018 0.0235305059 0.0441894422
vn 0.999312629 -0.0348883337 -0.0125329348
vn 0.997638658 -0.0604055427 -0.0326845398
vn 0.996319273 -0.0851067674 -0.0102344897
vn 0.996817888 -0.0777550727 0.0175569442
vn 0.961825079 -0.273024907 0.0187060782
vn 0.982305096 -0.187228746 -0.00470046344
vn 0.41490988 0.891954859 -0.179628288
vn 0.425142848 0.905025435 0.0135100028
vn 0.989653977 -0.133874557 -0.051600481
vn 0.983075325 -0.151905757 -0.102408719
vn 0.996729483 -0.0805645181 0.00630048855
vn 0.996239319 -0.0829715957 0.0249586572
vn 0.982550145 0.18597594 -0.00285690007
vn 0.993244804 -0.0852435776 -0.0787292354
vn 0.992405755 -0.0608681044 -0.106891965
vn 0.987767708 -0.116077654 -0.104119803
vn 0.961961046 -0.24238664 -0.126014537
vn 0.400032179 0.916479758 0.00625376594
vn 0.423848888 0.894801523 -0.140293813
vn 0.424964478 0.897149683 -0.120530656
vn 0.427894567 0.903343288 -0.0296166093
vn 0.234677116 0.376018967 0.896401912
vn 0.207237468 0.437506315 0.875009061
vn 0.386757565 0.921529064 -0.0346809683
vn 0.392446278 0.918853411 0.0411622187

g gun09_submesh_0
usemtl SD58_WD03S
f 1/1/1 3/3/3 2/2/2
f 1/1/1 2/2/2 4/4/4
f 4/4/4 5/5/5 1/1/1
f 6/6/6 1/1/1 5/5/5
f 6/6/6 5/5/5 7/7/7
f 7/7/7 8/8/8 6/6/6
f 7/7/7 9/9/9 8/8/8
f 9/9/9 7/7/7 10/10/10
f 9/9/9 10/10/10 11/11/11
f 11/11/11 10/10/10 12/12/12
f 11/11/11 12/12/12 13/13/13
f 11/11/11 13/13/13 14/14/14
f 9/9/9 11/11/11 15/15/15
f 15/15/15 11/11/11 16/16/16
f 15/15/15 16/16/16 17/17/17
f 16/16/16 18/18/18 17/17/17
f 19/19/19 5/5/5 4/4/4
f 5/5/5 19/19/19 20/20/20
f 5/5/5 20/20/20 21/21/21
f 22/22/22 6/6/6 8/8/8
f 22/22/22 1/1/1 6/6/6
f 22/22/22 23/23/23 1/1/1
f 18/18/18 24/24/24 17/17/17
f 18/18/18 25/25/25 24/24/24
f 26/26/26 18/18/18 16/16/16
f 26/26/26 27/27/27 18/18/18
f 28/28/28 29/29/29 19/19/19
f 29/29/29 28/28/28 30/30/30
f 29/29/29 30/30/30 31/31/31
f 31/31/31 32/32/32 29/29/29
f 19/19/19 4/4/4 28/28/28
f 33/33/33 28/28/28 4/4/4
f 33/33/33 4/4/4 34/34/34
f 34/34/34 4/4/4 2/2/2
f 34/34/34 2/2/2 35/35/35
f 35/35/35 2/2/2 3/3/3
f 35/35/35 3/3/3 36/36/36
f 37/37/37 38/38/38 3/3/3
f 37/37/37 3/3/3 1/1/1
f 22/22/22 8/8/8 39/39/39
f 40/40/40 39/39/39 8/8/8
f 40/40/40 8/8/8 9/9/9
f 41/41/41 43/43/43 42/42/42
f 41/41/41 42/42/42 44/44/44
f 45/45/45 43/43/43 41/41/41
f 45/45/45 46/46/46 43/43/43
f 47/47/47 46/46/46 45/45/45
f 47/47/47 48/48/48 46/46/46
f 49/49/49 44/44/44 42/42/42
f 49/49/49 50/50/50 44/44/44
f 51/51/51 53/53/53 52/52/52
f 51/51/51 52/52/52 54/54/54
f 54/54/54 52/52/52 55/55/55
f 54/54/54 55/55/55 56/56/56
f 56/56/56 55/55/55 57/57/57
f 56/56/56 57/57/57 58/58/58
f 59/59/59 61/61/61 60/60/60
f 59/59/59 60/60/60 62/62/62
f 63/63/63 61/61/61 59/59/59
f 63/63/63 64/64/64 61/61/61
f 65/65/65 64/64/64 63/63/63
f 65/65/65 66/66/66 64/64/64
f 67/67/67 69/69/69 68/68/68
f 67/67/67 68/68/68 70/70/70
f 71/71/71 69/69/69 67/67/67
f 71/71/71 72/72/72 69/69/69
f 71/71/71 73/73/73 72/72/72
f 71/71/71 74/74/74 73/73/73
f 73/73/73 74/74/74 75/75/75
f 76/76/76 78/78/78 77/77/77
f 76/76/76 77/77/77 79/79/79
f 80/80/80 78/78/78 76/76/76
f 80/80/80 81/81/81 78/78/78
f 82/82/82 84/84/84 83/83/83
f 82/82/82 83/83/83 85/85/85
f 85/85/85 83/83/83 86/86/86
f 85/85/85 86/86/86 87/87/87
f 88/88/88 87/87/87 86/86/86
f 88/88/88 86/86/86 89/89/89
f 90/90/90 88/88/88 89/89/89
f 91/91/91 93/93/93 92/92/92
f 91/91/91 92/92/92 94/94/94
f 95/95/95 93/93/93 91/91/91
f 95/95/95 96/96/96 93/93/93
f 97/97/97 96/96/96 95/95/95
f 97/97/97 98/98/98 96/96/96
f 99/99/99 98/98/98 97/97/97
f 99/99/99 100/100/100 98/98/98
f 101/101/101 100/100/100 99/99/99
f 101/101/101 102/102/102 100/100/100
f 103/103/103 105/105/105 104/104/104
f 103/103/103 104/104/104 106/106/106
f 106/106/106 104/104/104 107/107/107
f 108/108/108 107/107/107 104/104/104
f 108/108/108 109/109/109 107/107/107
f 110/110/110 109/109/109 108/108/108
f 110/110/110 111/111/111 109/109/109
f 111/111/111 112/112/112 109/109/109
f 111/111/111 113/113/113 112/112/112
f 113/113/113 114/114/114 112/112/112
f 113/113/113 115/115/115 114/114/114
f 113/113/113 116/116/116 115/115/115
f 111/111/111 117/117/117 113/113/113
f 117/117/117 118/118/118 113/113/113
f 117/117/117 119/119/119 118/118/118
f 118/118/118 119/119/119 120/120/120
f 106/106/106 107/107/107 121/121/121
f 107/107/107 122/122/122 121/121/121
f 107/107/107 123/123/123 122/122/122
f 110/110/110 108/108/108 124/124/124
f 124/124/124 108/108/108 104/104/104
f 124/124/124 104/104/104 125/125/125
f 126/126/126 120/120/120 119/119/119
f 126/126/126 127/127/127 120/120/120
f 128/128/128 118/118/118 120/120/120
f 128/128/128 120/120/120 129/129/129
f 130/130/130 121/121/121 131/131/131
f 132/132/132 130/130/130 131/131/131
f 132/132/132 131/131/131 133/133/133
f 133/133/133 131/131/131 134/134/134
f 106/106/106 121/121/121 130/130/130
f 106/106/106 130/130/130 135/135/135
f 106/106/106 135/135/135 136/136/136
f 103/103/103 106/106/106 136/136/136
f 103/103/103 136/136/136 137/137/137
f 105/105/105 103/103/103 137/137/137
f 105/105/105 137/137/137 138/138/138
f 139/139/139 104/104/104 105/105/105
f 139/139/139 105/105/105 140/140/140
f 110/110/110 124/124/124 141/141/141
f 142/142/142 110/110/110 141/141/141
f 142/142/142 111/111/111 110/110/110
