# Generated by tools/yaml_mesh_converter/split_reload_parts.py
mtllib gun03.mtl
o gun03_body
v -0.012673486 0.241041541 -0.401726663
vt 0.559000015 0.94569999
vn -0.743293343 -0.668965625 -1.35169889e-16
v -0.012673486 0.241041541 -0.126997933
vt 0.369399995 0.94569999
vn -0.743293343 -0.668965625 -1.35169889e-16
v -0.012673486 0.271021783 -0.126997933
vt 0.369399995 0.972000003
vn -0.743293343 0.668965625 1.35169889e-16
v -0.012673486 0.241041541 -0.401726663
vt 0.559000015 0.94569999
vn -0.743293343 -0.668965625 -1.35169889e-16
v -0.012673486 0.271021783 -0.126997933
vt 0.369399995 0.972000003
vn -0.743293343 0.668965625 1.35169889e-16
v -0.012673486 0.271021783 -0.401726663
vt 0.559000015 0.972000003
vn -0.743293343 0.668965625 1.35169889e-16
v 0.0143087972 0.241041541 -0.126997933
vt 0.369399995 0.921999991
vn 0 -1 -2.02058049e-16
v -0.012673486 0.241041541 -0.126997933
vt 0.369399995 0.94569999
vn -0.743293343 -0.668965625 -1.35169889e-16
v -0.012673486 0.241041541 -0.401726663
vt 0.559000015 0.94569999
vn -0.743293343 -0.668965625 -1.35169889e-16
v 0.0143087972 0.241041541 -0.126997933
vt 0.369399995 0.921999991
vn 0 -1 -2.02058049e-16
v -0.012673486 0.241041541 -0.401726663
vt 0.559000015 0.94569999
vn -0.743293343 -0.668965625 -1.35169889e-16
v 0.0143087972 0.241041541 -0.401726663
vt 0.559000015 0.921999991
vn 0 -1 -2.02058049e-16
v 0.0143087972 0.271021783 -0.401726663
vt 0.559000015 0.995700002
vn 0 1 2.02058049e-16
v -0.012673486 0.271021783 -0.401726663
vt 0.559000015 0.972000003
vn -0.743293343 0.668965625 1.35169889e-16
v -0.012673486 0.271021783 -0.126997933
vt 0.369399995 0.972000003
vn -0.743293343 0.668965625 1.35169889e-16
v 0.0143087972 0.271021783 -0.401726663
vt 0.559000015 0.995700002
vn 0 1 2.02058049e-16
v -0.012673486 0.271021783 -0.126997933
vt 0.369399995 0.972000003
vn -0.743293343 0.668965625 1.35169889e-16
v 0.0143087972 0.271021783 -0.126997933
vt 0.369399995 0.995700002
vn 0 1 2.02058049e-16
v 0.0143087972 0.241041541 -0.126997933
vt 0.369399995 0.944999993
vn 1 0 0
v 0.0143087972 0.241041541 -0.401726663
vt 0.559000015 0.944999993
vn 1 0 0
v 0.0143087972 0.271021783 -0.401726663
vt 0.559000015 0.971300006
vn 1 0 0
v 0.0143087972 0.241041541 -0.126997933
vt 0.369399995 0.944999993
vn 1 0 0
v 0.0143087972 0.271021783 -0.401726663
vt 0.559000015 0.971300006
vn 1 0 0
v 0.0143087972 0.271021783 -0.126997933
vt 0.369399995 0.971300006
vn 1 0 0
v -0.0402008668 0.0273636058 -0.0629490912
vt 0.644999981 0.735899985
vn -0.999761103 -0.0213918156 0.00448644076
v -0.0402008668 0.0249105878 -0.130268484
vt 0.585699975 0.733099997
vn -0.999736693 -0.0229313326 0.000835583456
v -0.0322969668 -0.101824291 -0.043325603
vt 0.662400007 0.622600019
vn -0.998169916 -0.059184019 0.0124124853
v -0.0402008668 0.0273636058 -0.0629490912
vt 0.644999981 0.735899985
vn -0.999761103 -0.0213918156 0.00448644076
v -0.0322969668 -0.101824291 -0.043325603
vt 0.662400007 0.622600019
vn -0.998169916 -0.059184019 0.0124124853
v -0.0322969668 -0.0854714438 -0.0209766775
vt 0.684199989 0.633899987
vn -0.997680607 -0.0549338813 0.0401954612
v -0.0402008668 0.175629795 -0.116641089
vt 0.596300006 0.869499981
vn -0.999071126 0.0350449356 -0.0250746435
v -0.0402008668 0.0249105878 -0.130268484
vt 0.585699975 0.733099997
vn -0.999736693 -0.0229313326 0.000835583456
v -0.0402008668 0.0273636058 -0.0629490912
vt 0.644999981 0.735899985
vn -0.999761103 -0.0213918156 0.00448644076
v -0.0402008668 0.0238205381 -0.159158617
vt 0.560400009 0.731899977
vn -0.999767849 -0.0214940872 -0.00150082757
v -0.0402008668 0.0249105878 -0.130268484
vt 0.585699975 0.733099997
vn -0.999736693 -0.0229313326 0.000835583456
v -0.0402008668 0.175629795 -0.116641089
vt 0.596300006 0.869499981
vn -0.999071126 0.0350449356 -0.0250746435
v -0.0402008668 0.0238205381 -0.159158617
vt 0.560400009 0.731899977
vn -0.999767849 -0.0214940872 -0.00150082757
v -0.0402008668 0.175629795 -0.116641089
vt 0.596300006 0.869499981
vn -0.999071126 0.0350449356 -0.0250746435
v -0.0402008668 0.0314518586 -0.268450499
vt 0.464100003 0.737900019
vn -0.999795628 -0.0198056218 -0.00405445661
v -0.0402008668 0.0314518586 -0.268450499
vt 0.464100003 0.737900019
vn -0.999795628 -0.0198056218 -0.00405445661
v -0.0402008668 0.175629795 -0.116641089
vt 0.596300006 0.869499981
vn -0.999071126 0.0350449356 -0.0250746435
v -0.0402008668 0.175629795 -0.265452474
vt 0.46540001 0.868300021
vn -0.97780962 0.209495456 4.11477206e-17
v -0.0402008668 0.0314518586 -0.268450499
vt 0.464100003 0.737900019
vn -0.999795628 -0.0198056218 -0.00405445661
v -0.0402008668 0.175629795 -0.265452474
vt 0.46540001 0.868300021
vn -0.97780962 0.209495456 4.11477206e-17
v -0.0402008668 0.0535282008 -0.294887692
vt 0.440699995 0.757499993
vn -1 0 0
v -0.0402008668 0.200704336 -0.401454061
vt 0.345499992 0.889699996
vn -0.99651719 0.073251339 0.0398463415
v -0.0402008668 0.0535282008 -0.294887692
vt 0.440699995 0.757499993
vn -1 0 0
v -0.0402008668 0.175629795 -0.265452474
vt 0.46540001 0.868300021
vn -0.97780962 0.209495456 4.11477206e-17
v -0.0402008668 0.200704336 -0.401454061
vt 0.345499992 0.889699996
vn -0.99651719 0.073251339 0.0398463415
v -0.0402008668 0.0538007915 -0.448604941
vt 0.305400014 0.756600022
vn -0.99947218 -0.0317470436 -0.00689099539
v -0.0402008668 0.0535282008 -0.294887692
vt 0.440699995 0.757499993
vn -1 0 0
v -0.0402008668 0.200704336 -0.401454061
vt 0.345499992 0.889699996
vn -0.99651719 0.073251339 0.0398463415
v -0.0402008668 0.200704336 -0.499844015
vt 0.2588 0.888899982
vn -0.976291846 0.214266301 -0.0307275775
v -0.0402008668 0.0538007915 -0.448604941
vt 0.305400014 0.756600022
vn -0.99947218 -0.0317470436 -0.00689099539
v -0.0402008668 0.200704336 -0.401454061
vt 0.345499992 0.889699996
vn -0.99651719 0.073251339 0.0398463415
v -0.0402008668 0.273202211 -0.445061803
vt 0.306499988 0.954900026
vn -0.847925291 0.402310544 -0.345208526
v -0.0402008668 0.200704336 -0.499844015
vt 0.2588 0.888899982
vn -0.976291846 0.214266301 -0.0307275775
v -0.0402008668 0.200704336 -0.401454061
vt 0.345499992 0.889699996
vn -0.99651719 0.073251339 0.0398463415
v -0.0402008668 0.273202211 -0.385918826
vt 0.358399987 0.95539999
vn -0.817942961 0.575299324 0
v -0.0402008668 0.273202211 -0.445061803
vt 0.306499988 0.954900026
vn -0.847925291 0.402310544 -0.345208526
v -0.0402008668 0.200704336 -0.401454061
vt 0.345499992 0.889699996
vn -0.99651719 0.073251339 0.0398463415
v -0.0402008668 0.175629795 -0.265452474
vt 0.46540001 0.868300021
vn -0.97780962 0.209495456 4.11477206e-17
v -0.0402008668 0.200704336 -0.252642691
vt 0.476399988 0.890999973
vn -0.638639482 0.769506083 1.41729609e-16
v -0.000136264745 0.221418053 -0.495483249
vt 0.262800008 0.914399981
vn -0.217386471 0.589388483 -0.778051629
v -0.0402008668 0.200704336 -0.499844015
vt 0.2588 0.888899982
vn -0.976291846 0.214266301 -0.0307275775
v -0.0402008668 0.273202211 -0.445061803
vt 0.306499988 0.954900026
vn -0.847925291 0.402310544 -0.345208526
v -0.000136264745 0.221418053 -0.495483249
vt 0.262800008 0.914399981
vn -0.217386471 0.589388483 -0.778051629
v -0.0402008668 0.273202211 -0.445061803
vt 0.306499988 0.954900026
vn -0.847925291 0.402310544 -0.345208526
v -0.000136264745 0.293915898 -0.440428525
vt 0.310400009 0.980400026
vn -0.215398509 0.590582917 -0.777698721
v -0.000136264745 0.293915898 -0.440428525
vt 0.310400009 0.980400026
vn -0.459258783 0.888302522 0
v -0.0402008668 0.273202211 -0.445061803
vt 0.306499988 0.954900026
vn -0.847925291 0.402310544 -0.345208526
v -0.0402008668 0.273202211 -0.385918826
vt 0.358399987 0.95539999
vn -0.817942961 0.575299324 0
v -0.000136264745 0.293915898 -0.440428525
vt 0.310400009 0.980400026
vn -0.459258783 0.888302522 0
v -0.0402008668 0.273202211 -0.385918826
vt 0.358399987 0.95539999
vn -0.817942961 0.575299324 0
v -0.000136264745 0.293915898 -0.381285548
vt 0.362399995 0.98089999
vn -0.459258783 0.888302522 0
v -0.000136264745 0.221418053 -0.396820784
vt 0.357600003 0.915300012
vn -0.459259304 0.888302252 1.63609793e-16
v -0.0402008668 0.200704336 -0.401454061
vt 0.345499992 0.889699996
vn -0.99651719 0.073251339 0.0398463415
v -0.0402008668 0.200704336 -0.252642691
vt 0.476399988 0.890999973
vn -0.638639482 0.769506083 1.41729609e-16
v -0.000136264745 0.221418053 -0.396820784
vt 0.357600003 0.915300012
vn -0.459259304 0.888302252 1.63609793e-16
v -0.0402008668 0.200704336 -0.252642691
vt 0.476399988 0.890999973
vn -0.638639482 0.769506083 1.41729609e-16
v -0.000136264745 0.221418053 -0.248009399
vt 0.480399996 0.916499972
vn -0.459259304 0.888302252 1.65681815e-16
v -0.0402008668 0.200704336 -0.499844015
vt 0.2588 0.888899982
vn -0.976291846 0.214266301 -0.0307275775
v -0.037475381 0.110490829 -0.787654996
vt 0.00650000013 0.805400014
vn -0.999410392 -0.0326593076 -0.010594228
v -0.0402008668 0.0538007915 -0.448604941
vt 0.305400014 0.756600022
vn -0.99947218 -0.0317470436 -0.00689099539
v -0.037475381 0.110490829 -0.787654996
vt 0.00650000013 0.805400014
vn -0.999410392 -0.0326593076 -0.010594228
v -0.0322969668 -0.000436387956 -0.636663198
vt 0.140599996 0.707199991
vn -0.994844655 -0.100512803 -0.0134643409
v -0.0402008668 0.0538007915 -0.448604941
vt 0.305400014 0.756600022
vn -0.99947218 -0.0317470436 -0.00689099539
v -0.037475381 0.110490829 -0.787654996
vt 0.00650000013 0.805400014
vn -0.999410392 -0.0326593076 -0.010594228
v -0.0322969668 0.0230027586 -0.713794529
vt 0.0724000037 0.727900028
vn -0.996555896 -0.0793411695 -0.024110686
v -0.0322969668 -0.000436387956 -0.636663198
vt 0.140599996 0.707199991
vn -0.994844655 -0.100512803 -0.0134643409
v -0.0402008668 0.200704336 -0.499844015
vt 0.2588 0.888899982
vn -0.976291846 0.214266301 -0.0307275775
v -0.0402008668 0.200704336 -0.771029592
vt 0.0201999992 0.886600018
vn -0.947747795 0.31902056 6.69661344e-17
v -0.037475381 0.110490829 -0.787654996
vt 0.00650000013 0.805400014
vn -0.999410392 -0.0326593076 -0.010594228
v -0.000136264745 0.221418053 -0.766668916
vt 0.0241999999 0.912100017
vn -0.459259304 0.888302252 1.83991799e-16
v -0.0402008668 0.200704336 -0.771029592
vt 0.0201999992 0.886600018
vn -0.947747795 0.31902056 6.69661344e-17
v -0.0402008668 0.200704336 -0.499844015
vt 0.2588 0.888899982
vn -0.976291846 0.214266301 -0.0307275775
v -0.000136264745 0.221418053 -0.766668916
vt 0.0241999999 0.912100017
vn -0.459259304 0.888302252 1.83991799e-16
v -0.0402008668 0.200704336 -0.499844015
vt 0.2588 0.888899982
vn -0.976291846 0.214266301 -0.0307275775
v -0.000136264745 0.221418053 -0.495483249
vt 0.262800008 0.914399981
vn -0.459259304 0.888302252 1.81833654e-16
v -0.0402008668 0.0538007915 -0.448604941
vt 0.305400014 0.756600022
vn -0.99947218 -0.0317470436 -0.00689099539
v -0.0322969668 -0.000436387956 -0.636663198
vt 0.140599996 0.707199991
vn -0.994844655 -0.100512803 -0.0134643409
v -0.0322969668 0.0219127089 -0.450785369
vt 0.303799987 0.728999972
vn -0.969749126 -0.242358186 0.0291400355
v -0.0402008668 0.175629795 0.215322733
vt 0.888300002 0.872399986
vn -1 0 0
v -0.0402008668 0.267478704 0.24721089
vt 0.915499985 0.955600023
vn -0.942102795 0.335324207 9.68134374e-17
v -0.0402008668 0.267478704 -0.137082189
vt 0.577400029 0.952400029
vn -0.93867443 0.334802652 -0.0824469482
v -0.0402008668 0.175629795 0.215322733
vt 0.888300002 0.872399986
vn -1 0 0
v -0.0402008668 0.267478704 -0.137082189
vt 0.577400029 0.952400029
vn -0.93867443 0.334802652 -0.0824469482
v -0.0402008668 0.175629795 -0.116641089
vt 0.596300006 0.869499981
vn -0.999071126 0.0350449356 -0.0250746435
v -0.0402008668 0.175629795 -0.116641089
vt 0.596300006 0.869499981
vn -0.999071126 0.0350449356 -0.0250746435
v -0.0402008668 0.0300890543 0.0106389821
vt 0.709800005 0.739000022
vn -0.999859988 -0.0146401684 0.00810369772
v -0.0402008668 0.175629795 0.215322733
vt 0.888300002 0.872399986
vn -1 0 0
v -0.0402008668 0.175629795 -0.116641089
vt 0.596300006 0.869499981
vn -0.999071126 0.0350449356 -0.0250746435
v -0.0402008668 0.0273636058 -0.0629490912
vt 0.644999981 0.735899985
vn -0.999761103 -0.0213918156 0.00448644076
v -0.0402008668 0.0300890543 0.0106389821
vt 0.709800005 0.739000022
vn -0.999859988 -0.0146401684 0.00810369772
v -0.0402008668 0.175629795 0.215322733
vt 0.888300002 0.872399986
vn -1 0 0
v -0.0402008668 0.0300890543 0.0106389821
vt 0.709800005 0.739000022
vn -0.999859988 -0.0146401684 0.00810369772
v -0.0402008668 0.0535282008 0.121566117
vt 0.807099998 0.761099994
vn -0.999552837 -0.0292559455 0.00618184537
v -0.0402008668 0.0300890543 0.0106389821
vt 0.709800005 0.739000022
vn -0.999859988 -0.0146401684 0.00810369772
v -0.0322969668 -0.0688459948 0.19515419
vt 0.873099983 0.65259999
vn -0.999153905 -0.0359829205 0.0199174424
v -0.0402008668 0.0535282008 0.121566117
vt 0.807099998 0.761099994
vn -0.999552837 -0.0292559455 0.00618184537
v -0.0402008668 0.0300890543 0.0106389821
vt 0.709800005 0.739000022
vn -0.999859988 -0.0146401684 0.00810369772
v -0.0322969668 -0.16096735 0.0973093212
vt 0.787899971 0.573800027
vn -0.999394928 -0.0253240141 0.0238426657
v -0.0322969668 -0.0688459948 0.19515419
vt 0.873099983 0.65259999
vn -0.999153905 -0.0359829205 0.0199174424
v -0.0402008668 0.175629795 0.215322733
vt 0.888300002 0.872399986
vn -1 0 0
v -0.0402008668 0.0535282008 0.121566117
vt 0.807099998 0.761099994
vn -0.999552837 -0.0292559455 0.00618184537
v -0.0402008668 0.0927751735 0.178801268
vt 0.85710001 0.797200024
vn -1 0 0
v -0.0322969668 -0.0688459948 0.19515419
vt 0.873099983 0.65259999
vn -0.999153905 -0.0359829205 0.0199174424
v -0.0322969668 -0.16096735 0.0973093212
vt 0.787899971 0.573800027
vn -0.999394928 -0.0253240141 0.0238426657
v -0.0322969668 -0.147884965 0.152909189
vt 0.836700022 0.580900013
vn -1 0 0
v -0.000136264745 0.196343511 -0.130541086
vt 0.583999991 0.894900024
vn -0.220757166 -0.211877121 -0.952036953
v -0.0402008668 0.175629795 -0.116641089
vt 0.596300006 0.869499981
vn -0.999071126 0.0350449356 -0.0250746435
v -0.0402008668 0.267478704 -0.137082189
vt 0.577400029 0.952400029
vn -0.93867443 0.334802652 -0.0824469482
v -0.000136264745 0.196343511 -0.130541086
vt 0.583999991 0.894900024
vn -0.220757166 -0.211877121 -0.952036953
v -0.0402008668 0.267478704 -0.137082189
vt 0.577400029 0.952400029
vn -0.93867443 0.334802652 -0.0824469482
v -0.000136264745 0.288192421 -0.150982186
vt 0.565100014 0.977699995
vn 0.426980802 0.879558208 -0.209916062
v -0.000136264745 0.288192421 0.251571685
vt 0.919499993 0.98119998
vn -0.459259304 0.888302252 2.50594929e-16
v -0.0402008668 0.267478704 -0.137082189
vt 0.577400029 0.952400029
vn -0.93867443 0.334802652 -0.0824469482
v -0.0402008668 0.267478704 0.24721089
vt 0.915499985 0.955600023
vn -0.942102795 0.335324207 9.68134374e-17
v -0.000136264745 0.288192421 0.251571685
vt 0.919499993 0.98119998
vn -0.459259304 0.888302252 2.50594929e-16
v -0.000136264745 0.288192421 -0.150982186
vt 0.565100014 0.977699995
vn -0.429332258 0.877789364 -0.212507989
v -0.0402008668 0.267478704 -0.137082189
vt 0.577400029 0.952400029
vn -0.93867443 0.334802652 -0.0824469482
v -0.000136264745 0.196343511 -0.130541086
vt 0.583999991 0.894900024
vn -0.459259304 0.888302252 1.7447449e-16
v -0.0402008668 0.175629795 -0.265452474
vt 0.46540001 0.868300021
vn -0.97780962 0.209495456 4.11477206e-17
v -0.0402008668 0.175629795 -0.116641089
vt 0.596300006 0.869499981
vn -0.999071126 0.0350449356 -0.0250746435
v -0.000136264745 0.196343511 -0.130541086
vt 0.583999991 0.894900024
vn -0.459259304 0.888302252 1.7447449e-16
v -0.000136264745 0.196343511 -0.260819197
vt 0.481700003 0.893899977
vn -0.459259304 0.888302252 1.89251596e-16
v -0.0402008668 0.175629795 -0.265452474
vt 0.46540001 0.868300021
vn -0.97780962 0.209495456 4.11477206e-17
v 0.0402008891 0.267478704 -0.137082189
vt 0.577400029 0.952400029
vn 0.937913585 0.336807029 -0.0829405369
v -0.000136264745 0.196343511 -0.130541086
vt 0.583999991 0.894900024
vn 0.219337537 -0.211946687 -0.95234954
v -0.000136264745 0.288192421 -0.150982186
vt 0.565100014 0.977699995
vn -0.429332258 0.877789364 -0.212507989
v 0.0402008891 0.267478704 -0.137082189
vt 0.577400029 0.952400029
vn 0.937913585 0.336807029 -0.0829405369
v 0.0402008891 0.175629795 -0.116641089
vt 0.596300006 0.869499981
vn 0.999058463 0.0352828924 -0.0252449016
v -0.000136264745 0.196343511 -0.130541086
vt 0.583999991 0.894900024
vn 0.219337537 -0.211946687 -0.95234954
v 0.0402008891 0.267478704 -0.137082189
vt 0.577400029 0.952400029
vn 0.937913585 0.336807029 -0.0829405369
v 0.0402008891 0.175629795 0.215322733
vt 0.888300002 0.872399986
vn 1 0 0
v 0.0402008891 0.175629795 -0.116641089
vt 0.596300006 0.869499981
vn 0.999058463 0.0352828924 -0.0252449016
v 0.0402008891 0.267478704 -0.137082189
vt 0.577400029 0.952400029
vn 0.937913585 0.336807029 -0.0829405369
v 0.0402008891 0.267478704 0.24721089
vt 0.915499985 0.955600023
vn 0.941380538 0.337346531 9.6739216e-17
v 0.0402008891 0.175629795 0.215322733
vt 0.888300002 0.872399986
vn 1 0 0
v 0.0402008891 0.175629795 -0.116641089
vt 0.596300006 0.869499981
vn 0.999058463 0.0352828924 -0.0252449016
v 0.0402008891 0.175629795 0.215322733
vt 0.888300002 0.872399986
vn 1 0 0
v 0.0402008891 0.0300890543 0.0106389821
vt 0.709800005 0.739000022
vn 0.999850168 -0.0151448626 0.0083830585
v 0.0402008891 0.175629795 -0.116641089
vt 0.596300006 0.869499981
vn 0.999058463 0.0352828924 -0.0252449016
v 0.0402008891 0.0300890543 0.0106389821
vt 0.709800005 0.739000022
vn 0.999850168 -0.0151448626 0.0083830585
v 0.0402008891 0.0273636058 -0.0629490912
vt 0.644999981 0.735899985
vn 0.999744349 -0.0221291074 0.00464107076
v 0.0402008891 0.175629795 -0.116641089
vt 0.596300006 0.869499981
vn 0.999058463 0.0352828924 -0.0252449016
v 0.0402008891 0.0273636058 -0.0629490912
vt 0.644999981 0.735899985
vn 0.999744349 -0.0221291074 0.00464107076
v 0.0402008891 0.0249105878 -0.130268484
vt 0.585699975 0.733099997
vn 0.999718229 -0.023721645 0.000864381256
v 0.0402008891 0.0273636058 -0.0629490912
vt 0.644999981 0.735899985
vn 0.999744349 -0.0221291074 0.00464107076
v 0.0320244357 -0.101824291 -0.043325603
vt 0.662400007 0.622600019
vn 0.998041902 -0.0612170337 0.0128388633
v 0.0402008891 0.0249105878 -0.130268484
vt 0.585699975 0.733099997
vn 0.999718229 -0.023721645 0.000864381256
v 0.0402008891 0.0273636058 -0.0629490912
vt 0.644999981 0.735899985
vn 0.999744349 -0.0221291074 0.00464107076
v 0.0320244357 -0.0854714438 -0.0209766775
vt 0.684199989 0.633899987
vn 0.997518493 -0.0568189547 0.0415747811
v 0.0320244357 -0.101824291 -0.043325603
vt 0.662400007 0.622600019
vn 0.998041902 -0.0612170337 0.0128388633
v 0.0402008891 0.0238205381 -0.159158617
vt 0.560400009 0.731899977
vn 0.999751568 -0.0222349145 -0.00155255593
v 0.0402008891 0.175629795 -0.116641089
vt 0.596300006 0.869499981
vn 0.999058463 0.0352828924 -0.0252449016
v 0.0402008891 0.0249105878 -0.130268484
vt 0.585699975 0.733099997
vn 0.999718229 -0.023721645 0.000864381256
v 0.0402008891 0.0238205381 -0.159158617
vt 0.560400009 0.731899977
vn 0.999751568 -0.0222349145 -0.00155255593
v 0.0402008891 0.0314518586 -0.268450499
vt 0.464100003 0.737900019
vn 0.999781295 -0.0204882934 -0.00419420797
v 0.0402008891 0.175629795 -0.116641089
vt 0.596300006 0.869499981
vn 0.999058463 0.0352828924 -0.0252449016
v 0.0402008891 0.0314518586 -0.268450499
vt 0.464100003 0.737900019
vn 0.999781295 -0.0204882934 -0.00419420797
v 0.0402008891 0.175629795 -0.265452474
vt 0.46540001 0.868300021
vn 0.97751682 0.210857455 4.12770893e-17
v 0.0402008891 0.175629795 -0.116641089
vt 0.596300006 0.869499981
vn 0.999058463 0.0352828924 -0.0252449016
v 0.0402008891 0.0314518586 -0.268450499
vt 0.464100003 0.737900019
vn 0.999781295 -0.0204882934 -0.00419420797
v 0.0402008891 0.0535282008 -0.294887692
vt 0.440699995 0.757499993
vn 1 0 0
v 0.0402008891 0.175629795 -0.265452474
vt 0.46540001 0.868300021
vn 0.97751682 0.210857455 4.12770893e-17
v 0.0402008891 0.200704336 -0.401454061
vt 0.345499992 0.889699996
vn 0.996469895 0.0737461537 0.0401155046
v 0.0402008891 0.175629795 -0.265452474
vt 0.46540001 0.868300021
vn 0.97751682 0.210857455 4.12770893e-17
v 0.0402008891 0.0535282008 -0.294887692
vt 0.440699995 0.757499993
vn 1 0 0
v 0.0402008891 0.200704336 -0.401454061
vt 0.345499992 0.889699996
vn 0.996469895 0.0737461537 0.0401155046
v 0.0402008891 0.0535282008 -0.294887692
vt 0.440699995 0.757499993
vn 1 0 0
v 0.0402008891 0.0538007915 -0.448604941
vt 0.305400014 0.756600022
vn 0.999439706 -0.0326353306 -0.00743034014
v 0.0402008891 0.200704336 -0.401454061
vt 0.345499992 0.889699996
vn 0.996469895 0.0737461537 0.0401155046
v 0.0402008891 0.0538007915 -0.448604941
vt 0.305400014 0.756600022
vn 0.999439706 -0.0326353306 -0.00743034014
v 0.0402008891 0.200704336 -0.499844015
vt 0.2588 0.888899982
vn 0.976129189 0.21492667 -0.0312783229
v 0.0402008891 0.200704336 -0.499844015
vt 0.2588 0.888899982
vn 0.976129189 0.21492667 -0.0312783229
v 0.0402008891 0.0538007915 -0.448604941
vt 0.305400014 0.756600022
vn 0.999439706 -0.0326353306 -0.00743034014
v 0.0372028574 0.110490829 -0.787654996
vt 0.00650000013 0.805400014
vn 0.999362452 -0.0338807616 -0.0112597876
v 0.0402008891 0.200704336 -0.499844015
vt 0.2588 0.888899982
vn 0.976129189 0.21492667 -0.0312783229
v 0.0372028574 0.110490829 -0.787654996
vt 0.00650000013 0.805400014
vn 0.999362452 -0.0338807616 -0.0112597876
v 0.0402008891 0.200704336 -0.771029592
vt 0.0201999992 0.886600018
vn 0.94774778 0.319020605 6.53028868e-17
v 0.0402008891 0.200704336 -0.401454061
vt 0.345499992 0.889699996
vn 0.996469895 0.0737461537 0.0401155046
v 0.0402008891 0.200704336 -0.499844015
vt 0.2588 0.888899982
vn 0.976129189 0.21492667 -0.0312783229
v 0.0402008891 0.273202211 -0.445061803
vt 0.306499988 0.954900026
vn 0.846303427 0.404272634 -0.346892126
v 0.0402008891 0.200704336 -0.401454061
vt 0.345499992 0.889699996
vn 0.996469895 0.0737461537 0.0401155046
v 0.0402008891 0.273202211 -0.445061803
vt 0.306499988 0.954900026
vn 0.846303427 0.404272634 -0.346892126
v 0.0402008891 0.273202211 -0.385918826
vt 0.358399987 0.95539999
vn 0.81610132 0.577908847 0
v 0.0402008891 0.200704336 -0.401454061
vt 0.345499992 0.889699996
vn 0.996469895 0.0737461537 0.0401155046
v 0.0402008891 0.200704336 -0.252642691
vt 0.476399988 0.890999973
vn 0.636073702 0.771628308 1.41646424e-16
v 0.0402008891 0.175629795 -0.265452474
vt 0.46540001 0.868300021
vn 0.97751682 0.210857455 4.12770893e-17
v 0.0402008891 0.273202211 -0.445061803
vt 0.306499988 0.954900026
vn 0.846303427 0.404272634 -0.346892126
v 0.0402008891 0.200704336 -0.499844015
vt 0.2588 0.888899982
vn 0.976129189 0.21492667 -0.0312783229
v -0.000136264745 0.221418053 -0.495483249
vt 0.262800008 0.914399981
vn 0.215986369 0.589576133 -0.778299346
v 0.0402008891 0.273202211 -0.445061803
vt 0.306499988 0.954900026
vn 0.846303427 0.404272634 -0.346892126
v -0.000136264745 0.221418053 -0.495483249
vt 0.262800008 0.914399981
vn 0.215986369 0.589576133 -0.778299346
v -0.000136264745 0.293915898 -0.440428525
vt 0.310400009 0.980400026
vn 0.21400997 0.590767522 -0.777941815
v 0.0402008891 0.273202211 -0.385918826
vt 0.358399987 0.95539999
vn 0.81610132 0.577908847 0
v 0.0402008891 0.273202211 -0.445061803
vt 0.306499988 0.954900026
vn 0.846303427 0.404272634 -0.346892126
v -0.000136264745 0.293915898 -0.440428525
vt 0.310400009 0.980400026
vn 0.456804918 0.889566899 0
v 0.0402008891 0.273202211 -0.385918826
vt 0.358399987 0.95539999
vn 0.81610132 0.577908847 0
v -0.000136264745 0.293915898 -0.440428525
vt 0.310400009 0.980400026
vn 0.456804918 0.889566899 0
v -0.000136264745 0.293915898 -0.381285548
vt 0.362399995 0.98089999
vn 0.456804918 0.889566899 0
v 0.0402008891 0.200704336 -0.252642691
vt 0.476399988 0.890999973
vn 0.636073702 0.771628308 1.41646424e-16
v 0.0402008891 0.200704336 -0.401454061
vt 0.345499992 0.889699996
vn 0.996469895 0.0737461537 0.0401155046
v -0.000136264745 0.221418053 -0.396820784
vt 0.357600003 0.915300012
vn 0.456805438 0.889566632 1.63296151e-16
v 0.0402008891 0.200704336 -0.252642691
vt 0.476399988 0.890999973
vn 0.636073702 0.771628308 1.41646424e-16
v -0.000136264745 0.221418053 -0.396820784
vt 0.357600003 0.915300012
vn 0.456805438 0.889566632 1.63296151e-16
v -0.000136264745 0.221418053 -0.248009399
vt 0.480399996 0.916499972
vn 0.456805438 0.889566632 1.60674644e-16
v 0.0402008891 0.200704336 -0.499844015
vt 0.2588 0.888899982
vn 0.976129189 0.21492667 -0.0312783229
v 0.0402008891 0.200704336 -0.771029592
vt 0.0201999992 0.886600018
vn 0.94774778 0.319020605 6.53028868e-17
v -0.000136264745 0.221418053 -0.766668916
vt 0.0241999999 0.912100017
vn 0.456805438 0.889566632 1.83623898e-16
v 0.0402008891 0.200704336 -0.499844015
vt 0.2588 0.888899982
vn 0.976129189 0.21492667 -0.0312783229
v -0.000136264745 0.221418053 -0.766668916
vt 0.0241999999 0.912100017
vn 0.456805438 0.889566632 1.83623898e-16
v -0.000136264745 0.221418053 -0.495483249
vt 0.262800008 0.914399981
vn 0.456805438 0.889566632 1.85155266e-16
v 0.0372028574 0.110490829 -0.787654996
vt 0.00650000013 0.805400014
vn 0.999362452 -0.0338807616 -0.0112597876
v 0.0402008891 0.0538007915 -0.448604941
vt 0.305400014 0.756600022
vn 0.999439706 -0.0326353306 -0.00743034014
v 0.0320244357 -0.000436387956 -0.636663198
vt 0.140599996 0.707199991
vn 0.994605249 -0.102774767 -0.014062214
v 0.0320244357 -0.000436387956 -0.636663198
vt 0.140599996 0.707199991
vn 0.994605249 -0.102774767 -0.014062214
v 0.0402008891 0.0538007915 -0.448604941
vt 0.305400014 0.756600022
vn 0.999439706 -0.0326353306 -0.00743034014
v 0.0320244357 0.0219127089 -0.450785369
vt 0.303799987 0.728999972
vn 0.967728512 -0.250193119 0.030082072
v 0.0372028574 0.110490829 -0.787654996
vt 0.00650000013 0.805400014
vn 0.999362452 -0.0338807616 -0.0112597876
v 0.0320244357 -0.000436387956 -0.636663198
vt 0.140599996 0.707199991
vn 0.994605249 -0.102774767 -0.014062214
v 0.0320244357 0.0230027586 -0.713794529
vt 0.0724000037 0.727900028
vn 0.996555886 -0.0793412829 -0.0241107205
v -0.000136264745 0.221418053 -0.396820784
vt 0.357600003 0.915300012
vn -0.00475009131 -0.209526464 0.977791439
v -0.000136264745 0.293915898 -0.381285548
vt 0.362399995 0.98089999
vn -0.00475014693 -0.209526505 0.97779143
v -0.0402008668 0.273202211 -0.385918826
vt 0.358399987 0.95539999
vn -0.00475009131 -0.209526464 0.977791439
v -0.000136264745 0.221418053 -0.396820784
vt 0.357600003 0.915300012
vn -0.00475009131 -0.209526464 0.977791439
v -0.0402008668 0.273202211 -0.385918826
vt 0.358399987 0.95539999
vn -0.00475009131 -0.209526464 0.977791439
v -0.0402008668 0.200704336 -0.401454061
vt 0.345499992 0.889699996
vn -0.99651719 0.073251339 0.0398463415
v -0.000136264745 0.196343511 -0.260819197
vt 0.481700003 0.893899977
vn 0.131081778 -0.451014252 0.88283844
v -0.000136264745 0.221418053 -0.248009399
vt 0.480399996 0.916499972
vn 0.131081735 -0.451014463 0.882838339
v -0.0402008668 0.200704336 -0.252642691
vt 0.476399988 0.890999973
vn 0.131081778 -0.451014252 0.88283844
v -0.000136264745 0.196343511 -0.260819197
vt 0.481700003 0.893899977
vn 0.131081778 -0.451014252 0.88283844
v -0.0402008668 0.200704336 -0.252642691
vt 0.476399988 0.890999973
vn 0.131081778 -0.451014252 0.88283844
v -0.0402008668 0.175629795 -0.265452474
vt 0.46540001 0.868300021
vn 0.131081822 -0.451014042 0.882838541
v 0.0320244357 -0.101824291 -0.043325603
vt 0.71509999 0.516600013
vn 0 -0.565700785 -0.824610588
v -0.0322969668 -0.101824291 -0.043325603
vt 0.715399981 0.564400017
vn 0 -0.565700785 -0.824610588
v -0.0402008668 0.0249105878 -0.130268484
vt 0.602999985 0.57099998
vn 0 -0.632488018 -0.774570143
v 0.0320244357 -0.101824291 -0.043325603
vt 0.71509999 0.516600013
vn 0 -0.565700785 -0.824610588
v -0.0402008668 0.0249105878 -0.130268484
vt 0.602999985 0.57099998
vn 0 -0.632488018 -0.774570143
v 0.0402008891 0.0249105878 -0.130268484
vt 0.602699995 0.511099994
vn 0 -0.757944688 -0.652318826
v 0.0402008891 0.0249105878 -0.130268484
vt 0.602699995 0.511099994
vn 0 -0.757944688 -0.652318826
v -0.0402008668 0.0249105878 -0.130268484
vt 0.602999985 0.57099998
vn 0 -0.632488018 -0.774570143
v -0.0402008668 0.0238205381 -0.159158617
vt 0.58160001 0.571099997
vn 0 -0.99928895 0.0377040378
v 0.0402008891 0.0249105878 -0.130268484
vt 0.602699995 0.511099994
vn 0 -0.757944688 -0.652318826
v -0.0402008668 0.0238205381 -0.159158617
vt 0.58160001 0.571099997
vn 0 -0.99928895 0.0377040378
v 0.0402008891 0.0238205381 -0.159158617
vt 0.58130002 0.511200011
vn 0 -0.99928895 0.0377040378
v 0.0320244357 -0.0854714438 -0.0209766775
vt 0.735700011 0.516499996
vn 0 -0.0187230013 0.999824709
v -0.0322969668 -0.0854714438 -0.0209766775
vt 0.735899985 0.564300001
vn 0 0.257753502 0.966210708
v -0.0322969668 -0.101824291 -0.043325603
vt 0.715399981 0.564400017
vn 0 -0.807030757 0.590509405
v 0.0320244357 -0.0854714438 -0.0209766775
vt 0.735700011 0.516499996
vn 0 -0.0187230013 0.999824709
v -0.0322969668 -0.101824291 -0.043325603
vt 0.715399981 0.564400017
vn 0 -0.807030757 0.590509405
v 0.0320244357 -0.101824291 -0.043325603
vt 0.71509999 0.516600013
vn 0 -0.807030757 0.590509405
v 0.0402008891 0.0273636058 -0.0629490912
vt 0.826900005 0.50999999
vn 0 0.348640894 0.937256383
v -0.0322969668 -0.0854714438 -0.0209766775
vt 0.735899985 0.564300001
vn 0 0.257753502 0.966210708
v 0.0320244357 -0.0854714438 -0.0209766775
vt 0.735700011 0.516499996
vn 0 -0.0187230013 0.999824709
v 0.0402008891 0.0273636058 -0.0629490912
vt 0.826900005 0.50999999
vn 0 0.348640894 0.937256383
v -0.0402008668 0.0273636058 -0.0629490912
vt 0.827199996 0.569800019
vn 0 0.348640894 0.937256383
v -0.0322969668 -0.0854714438 -0.0209766775
vt 0.735899985 0.564300001
vn 0 0.257753502 0.966210708
v -0.0402008668 0.267478704 0.24721089
vt 0.0272000004 0.921899974
vn 0 -0.306531142 0.95186063
v 0.0402008891 0.267478704 0.24721089
vt 0.0272000004 0.993700027
vn 0 -0.316227476 0.948683395
v -0.000136264745 0.288192421 0.251571685
vt 0.00850000046 0.957799971
vn 0 -0.206011049 0.978549665
v 0.0402008891 0.267478704 0.24721089
vt 0.0272000004 0.993700027
vn 0 -0.316227476 0.948683395
v -0.0402008668 0.267478704 0.24721089
vt 0.0272000004 0.921899974
vn 0 -0.306531142 0.95186063
v -0.0402008668 0.175629795 0.215322733
vt 0.113799997 0.921999991
vn 0 -0.352171755 0.93593539
v 0.0402008891 0.267478704 0.24721089
vt 0.0272000004 0.993700027
vn 0 -0.316227476 0.948683395
v -0.0402008668 0.175629795 0.215322733
vt 0.113799997 0.921999991
vn 0 -0.352171755 0.93593539
v 0.0402008891 0.175629795 0.215322733
vt 0.113799997 0.993700027
vn 0 -0.377296848 0.926092376
v 0.0402008891 0.175629795 0.215322733
vt 0.113799997 0.993700027
vn 0 -0.377296848 0.926092376
v -0.0402008668 0.175629795 0.215322733
vt 0.113799997 0.921999991
vn 0 -0.352171755 0.93593539
v -0.0402008668 0.0927751735 0.178801268
vt 0.194299996 0.921999991
vn 0 -0.536439899 0.843938525
v 0.0402008891 0.175629795 0.215322733
vt 0.113799997 0.993700027
vn 0 -0.377296848 0.926092376
v -0.0402008668 0.0927751735 0.178801268
vt 0.194299996 0.921999991
vn 0 -0.536439899 0.843938525
v 0.0402008891 0.0927751735 0.178801268
vt 0.194299996 0.993700027
vn 0 -0.683284509 0.730152231
v 0.0402008891 0.0927751735 0.178801268
vt 0.194299996 0.993700027
vn 0 -0.683284509 0.730152231
v -0.0402008668 0.0927751735 0.178801268
vt 0.194299996 0.921999991
vn 0 -0.536439899 0.843938525
v -0.0402008668 0.0535282008 0.121566117
vt 0.256199986 0.921999991
vn 0 -0.824728774 0.565528469
v 0.0402008891 0.0927751735 0.178801268
vt 0.194299996 0.993700027
vn 0 -0.683284509 0.730152231
v -0.0402008668 0.0535282008 0.121566117
vt 0.256199986 0.921999991
vn 0 -0.824728774 0.565528469
v 0.0402008891 0.0535282008 0.121566117
vt 0.256199986 0.993700027
vn 0 -0.824728774 0.565528469
v 0.0320244357 0.0230027586 -0.713794529
vt 0.179299995 0.626100004
vn 0 -0.744181589 -0.667977367
v -0.0322969668 0.0230027586 -0.713794529
vt 0.179299995 0.686399996
vn 0 -0.861643082 -0.507514728
v -0.037475381 0.110490829 -0.787654996
vt 0.0918999985 0.691299975
vn 0 -0.282058429 -0.959397229
v 0.0320244357 0.0230027586 -0.713794529
vt 0.179299995 0.626100004
vn 0 -0.744181589 -0.667977367
v -0.037475381 0.110490829 -0.787654996
vt 0.0918999985 0.691299975
vn 0 -0.282058429 -0.959397229
v 0.0372028574 0.110490829 -0.787654996
vt 0.0918999985 0.621200025
vn 0 -0.306575677 -0.951846287
v 0.0320244357 -0.000436387956 -0.636663198
vt 0.240899995 0.626100004
vn 0 -0.997409819 -0.0719281058
v -0.0322969668 0.0230027586 -0.713794529
vt 0.179299995 0.686399996
vn 0 -0.861643082 -0.507514728
v 0.0320244357 0.0230027586 -0.713794529
vt 0.179299995 0.626100004
vn 0 -0.744181589 -0.667977367
v 0.0320244357 -0.000436387956 -0.636663198
vt 0.240899995 0.626100004
vn 0 -0.997409819 -0.0719281058
v -0.0322969668 -0.000436387956 -0.636663198
vt 0.240899995 0.686399996
vn 0 -0.998880424 0.0473064411
v -0.0322969668 0.0230027586 -0.713794529
vt 0.179299995 0.686399996
vn 0 -0.861643082 -0.507514728
v 0.0320244357 0.0219127089 -0.450785369
vt 0.383700013 0.626100004
vn 0 -0.979663799 0.20064606
v -0.0322969668 -0.000436387956 -0.636663198
vt 0.240899995 0.686399996
vn 0 -0.998880424 0.0473064411
v 0.0320244357 -0.000436387956 -0.636663198
vt 0.240899995 0.626100004
vn 0 -0.997409819 -0.0719281058
v 0.0320244357 0.0219127089 -0.450785369
vt 0.383700013 0.626100004
vn 0 -0.979663799 0.20064606
v -0.0322969668 0.0219127089 -0.450785369
vt 0.383700013 0.686399996
vn 0 -0.896848256 0.442338338
v -0.0322969668 -0.000436387956 -0.636663198
vt 0.240899995 0.686399996
vn 0 -0.998880424 0.0473064411
v 0.0402008891 0.0538007915 -0.448604941
vt 0.408300012 0.618499994
vn 0 -0.0682182077 0.997670425
v -0.0322969668 0.0219127089 -0.450785369
vt 0.383700013 0.686399996
vn 0 -0.896848256 0.442338338
v 0.0320244357 0.0219127089 -0.450785369
vt 0.383700013 0.626100004
vn 0 -0.979663799 0.20064606
v 0.0402008891 0.0538007915 -0.448604941
vt 0.408300012 0.618499994
vn 0 -0.0682182077 0.997670425
v -0.0402008668 0.0538007915 -0.448604941
vt 0.408300012 0.694000006
vn 0 -0.0682182077 0.997670425
v -0.0322969668 0.0219127089 -0.450785369
vt 0.383700013 0.686399996
vn 0 -0.896848256 0.442338338
v 0.0402008891 0.200704336 -0.771029592
vt 0.0218000002 0.618499994
vn 0 0.183889688 -0.982946887
v 0.0372028574 0.110490829 -0.787654996
vt 0.0918999985 0.621200025
vn 0 -0.306575677 -0.951846287
v -0.037475381 0.110490829 -0.787654996
vt 0.0918999985 0.691299975
vn 0 -0.282058429 -0.959397229
v 0.0402008891 0.200704336 -0.771029592
vt 0.0218000002 0.618499994
vn 0 0.183889688 -0.982946887
v -0.037475381 0.110490829 -0.787654996
vt 0.0918999985 0.691299975
vn 0 -0.282058429 -0.959397229
v -0.0402008668 0.200704336 -0.771029592
vt 0.0218000002 0.694000006
vn 0 0.185890373 -0.982570491
v -0.000136264745 0.221418053 -0.766668916
vt 0.0057000001 0.656300008
vn 0 0.206005656 -0.978550801
v 0.0402008891 0.200704336 -0.771029592
vt 0.0218000002 0.618499994
vn 0 0.183889688 -0.982946887
v -0.0402008668 0.200704336 -0.771029592
vt 0.0218000002 0.694000006
vn 0 0.185890373 -0.982570491
v 0.0402008891 0.0314518586 -0.268450499
vt 0.179499999 0.508599997
vn 0 0.0245948388 -0.999697501
v -0.0402008668 0.0314518586 -0.268450499
vt 0.179000005 0.579999983
vn 0 0.264002294 -0.964522052
v -0.0402008668 0.0535282008 -0.294887692
vt 0.148599997 0.57980001
vn 0 -0.977651262 -0.210233227
v 0.0402008891 0.0314518586 -0.268450499
vt 0.179499999 0.508599997
vn 0 0.0245948388 -0.999697501
v -0.0402008668 0.0535282008 -0.294887692
vt 0.148599997 0.57980001
vn 0 -0.977651262 -0.210233227
v 0.0402008891 0.0535282008 -0.294887692
vt 0.149100006 0.508400023
vn 0 -0.997712493 -0.0676001507
v 0.0402008891 0.0535282008 -0.294887692
vt 0.149100006 0.508400023
vn 0 -0.997712493 -0.0676001507
v -0.0402008668 0.0535282008 -0.294887692
vt 0.148599997 0.57980001
vn 0 -0.977651262 -0.210233227
v -0.0402008668 0.0538007915 -0.448604941
vt 0.0122999996 0.578800023
vn 0 -0.999998428 -0.00177332238
v 0.0402008891 0.0535282008 -0.294887692
vt 0.149100006 0.508400023
vn 0 -0.997712493 -0.0676001507
v -0.0402008668 0.0538007915 -0.448604941
vt 0.0122999996 0.578800023
vn 0 -0.999998428 -0.00177332238
v 0.0402008891 0.0538007915 -0.448604941
vt 0.0127999997 0.507399976
vn 0 -0.999998428 -0.00177332238
v 0.0402008891 0.0300890543 0.0106389821
vt 0.881699979 0.5097
vn 0 -0.999314852 0.0370111759
v -0.0402008668 0.0300890543 0.0106389821
vt 0.882000029 0.569500029
vn 0 -0.999314852 0.0370111759
v -0.0402008668 0.0273636058 -0.0629490912
vt 0.827199996 0.569800019
vn 0 -0.999314852 0.0370111759
v 0.0402008891 0.0300890543 0.0106389821
vt 0.881699979 0.5097
vn 0 -0.999314852 0.0370111759
v -0.0402008668 0.0273636058 -0.0629490912
vt 0.827199996 0.569800019
vn 0 -0.999314852 0.0370111759
v 0.0402008891 0.0273636058 -0.0629490912
vt 0.826900005 0.50999999
vn 0 -0.999314852 0.0370111759
v 0.0320244357 -0.16096735 0.0973093212
vt 0.99000001 0.699500024
vn 0 -0.51529898 -0.857010479
v -0.0322969668 -0.16096735 0.0973093212
vt 0.927900016 0.699599981
vn 0 -0.768221462 -0.640184181
v -0.0402008668 0.0300890543 0.0106389821
vt 0.920599997 0.50849998
vn 0 -0.413117516 -0.910677724
v 0.0320244357 -0.16096735 0.0973093212
vt 0.99000001 0.699500024
vn 0 -0.51529898 -0.857010479
v -0.0402008668 0.0300890543 0.0106389821
vt 0.920599997 0.50849998
vn 0 -0.413117516 -0.910677724
v 0.0402008891 0.0300890543 0.0106389821
vt 0.994000018 0.508400023
vn 0 -0.413117516 -0.910677724
v 0.0320244357 -0.147884965 0.152909189
vt 0.990100026 0.751600027
vn 0 -0.824767728 0.565471657
v -0.0322969668 -0.16096735 0.0973093212
vt 0.927900016 0.699599981
vn 0 -0.768221462 -0.640184181
v 0.0320244357 -0.16096735 0.0973093212
vt 0.99000001 0.699500024
vn 0 -0.51529898 -0.857010479
v 0.0320244357 -0.147884965 0.152909189
vt 0.990100026 0.751600027
vn 0 -0.824767728 0.565471657
v -0.0322969668 -0.147884965 0.152909189
vt 0.927999973 0.751699984
vn 0 -0.633372118 0.773847375
v -0.0322969668 -0.16096735 0.0973093212
vt 0.927900016 0.699599981
vn 0 -0.768221462 -0.640184181
v 0.0320244357 -0.0688459948 0.19515419
vt 0.990199983 0.833199978
vn 0 -0.0388433497 0.999245312
v -0.0322969668 -0.147884965 0.152909189
vt 0.927999973 0.751699984
vn 0 -0.633372118 0.773847375
v 0.0320244357 -0.147884965 0.152909189
vt 0.990100026 0.751600027
vn 0 -0.824767728 0.565471657
v 0.0320244357 -0.0688459948 0.19515419
vt 0.990199983 0.833199978
vn 0 -0.0388433497 0.999245312
v -0.0322969668 -0.0688459948 0.19515419
vt 0.92809999 0.833299994
vn 0 0.328675724 0.944442835
v -0.0322969668 -0.147884965 0.152909189
vt 0.927999973 0.751699984
vn 0 -0.633372118 0.773847375
v 0.0402008891 0.0535282008 0.121566117
vt 0.994799972 0.96329999
vn 0 0.515337701 0.856987196
v -0.0322969668 -0.0688459948 0.19515419
vt 0.92809999 0.833299994
vn 0 0.328675724 0.944442835
v 0.0320244357 -0.0688459948 0.19515419
vt 0.990199983 0.833199978
vn 0 -0.0388433497 0.999245312
v 0.0402008891 0.0535282008 0.121566117
vt 0.994799972 0.96329999
vn 0 0.515337701 0.856987196
v -0.0402008668 0.0535282008 0.121566117
vt 0.921400011 0.963400006
vn 0 0.515337701 0.856987196
v -0.0322969668 -0.0688459948 0.19515419
vt 0.92809999 0.833299994
vn 0 0.328675724 0.944442835
v 0.0320244357 -0.0688459948 0.19515419
vt 0.873099983 0.65259999
vn 0.999094627 -0.0372215258 0.0206030413
v 0.0320244357 -0.16096735 0.0973093212
vt 0.787899971 0.573800027
vn 0.99935252 -0.0261961608 0.0246637955
v 0.0402008891 0.0300890543 0.0106389821
vt 0.709800005 0.739000022
vn 0.999850168 -0.0151448626 0.0083830585
v 0.0320244357 -0.0688459948 0.19515419
vt 0.873099983 0.65259999
vn 0.999094627 -0.0372215258 0.0206030413
v 0.0402008891 0.0300890543 0.0106389821
vt 0.709800005 0.739000022
vn 0.999850168 -0.0151448626 0.0083830585
v 0.0402008891 0.0535282008 0.121566117
vt 0.807099998 0.761099994
vn 0.999521489 -0.030263841 0.00639481591
v 0.0402008891 0.175629795 0.215322733
vt 0.888300002 0.872399986
vn 1 0 0
v 0.0402008891 0.0535282008 0.121566117
vt 0.807099998 0.761099994
vn 0.999521489 -0.030263841 0.00639481591
v 0.0402008891 0.0300890543 0.0106389821
vt 0.709800005 0.739000022
vn 0.999850168 -0.0151448626 0.0083830585
v 0.0402008891 0.175629795 0.215322733
vt 0.888300002 0.872399986
vn 1 0 0
v 0.0402008891 0.0927751735 0.178801268
vt 0.85710001 0.797200024
vn 1 0 0
v 0.0402008891 0.0535282008 0.121566117
vt 0.807099998 0.761099994
vn 0.999521489 -0.030263841 0.00639481591
v 0.0320244357 -0.0688459948 0.19515419
vt 0.873099983 0.65259999
vn 0.999094627 -0.0372215258 0.0206030413
v 0.0320244357 -0.147884965 0.152909189
vt 0.836700022 0.580900013
vn 1 0 0
v 0.0320244357 -0.16096735 0.0973093212
vt 0.787899971 0.573800027
vn 0.99935252 -0.0261961608 0.0246637955
v -0.000136264745 0.221418053 -0.396820784
vt 0.357600003 0.915300012
vn 0.0047179964 -0.209526496 0.977791587
v 0.0402008891 0.200704336 -0.401454061
vt 0.345499992 0.889699996
vn 0.996469895 0.0737461537 0.0401155046
v 0.0402008891 0.273202211 -0.385918826
vt 0.358399987 0.95539999
vn 0.0047179964 -0.209526496 0.977791587
v -0.000136264745 0.221418053 -0.396820784
vt 0.357600003 0.915300012
vn 0.0047179964 -0.209526496 0.977791587
v 0.0402008891 0.273202211 -0.385918826
vt 0.358399987 0.95539999
vn 0.0047179964 -0.209526496 0.977791587
v -0.000136264745 0.293915898 -0.381285548
vt 0.362399995 0.98089999
vn 0.00471805164 -0.209526537 0.977791578
v -0.000136264745 0.196343511 -0.260819197
vt 0.481700003 0.893899977
vn -0.130211146 -0.451066447 0.882940608
v 0.0402008891 0.175629795 -0.265452474
vt 0.46540001 0.868300021
vn -0.13021119 -0.451066236 0.88294071
v 0.0402008891 0.200704336 -0.252642691
vt 0.476399988 0.890999973
vn -0.130211146 -0.451066447 0.882940608
v -0.000136264745 0.196343511 -0.260819197
vt 0.481700003 0.893899977
vn -0.130211146 -0.451066447 0.882940608
v 0.0402008891 0.200704336 -0.252642691
vt 0.476399988 0.890999973
vn -0.130211146 -0.451066447 0.882940608
v -0.000136264745 0.221418053 -0.248009399
vt 0.480399996 0.916499972
vn -0.130211103 -0.451066657 0.882940507
v -0.000136264745 0.196343511 -0.130541086
vt 0.583999991 0.894900024
vn 0.456805438 0.889566632 1.7414002e-16
v 0.0402008891 0.175629795 -0.116641089
vt 0.596300006 0.869499981
vn 0.999058463 0.0352828924 -0.0252449016
v 0.0402008891 0.175629795 -0.265452474
vt 0.46540001 0.868300021
vn 0.97751682 0.210857455 4.12770893e-17
v -0.000136264745 0.196343511 -0.130541086
vt 0.583999991 0.894900024
vn 0.456805438 0.889566632 1.7414002e-16
v 0.0402008891 0.175629795 -0.265452474
vt 0.46540001 0.868300021
vn 0.97751682 0.210857455 4.12770893e-17
v -0.000136264745 0.196343511 -0.260819197
vt 0.481700003 0.893899977
vn 0.456805438 0.889566632 1.8952097e-16
v -0.000136264745 0.288192421 0.251571685
vt 0.919499993 0.98119998
vn 0.456805438 0.889566632 2.50104067e-16
v 0.0402008891 0.267478704 0.24721089
vt 0.915499985 0.955600023
vn 0.941380538 0.337346531 9.6739216e-17
v 0.0402008891 0.267478704 -0.137082189
vt 0.577400029 0.952400029
vn 0.937913585 0.336807029 -0.0829405369
v -0.000136264745 0.288192421 0.251571685
vt 0.919499993 0.98119998
vn 0.456805438 0.889566632 2.50104067e-16
v 0.0402008891 0.267478704 -0.137082189
vt 0.577400029 0.952400029
vn 0.937913585 0.336807029 -0.0829405369
v -0.000136264745 0.288192421 -0.150982186
vt 0.565100014 0.977699995
vn 0.426980802 0.879558208 -0.209916062
usemtl FR43C-Newlambert12
f 1/1/1 2/2/2 3/3/3
f 4/4/4 5/5/5 6/6/6
f 7/7/7 8/8/8 9/9/9
f 10/10/10 11/11/11 12/12/12
f 13/13/13 14/14/14 15/15/15
f 16/16/16 17/17/17 18/18/18
f 19/19/19 20/20/20 21/21/21
f 22/22/22 23/23/23 24/24/24
f 25/25/25 26/26/26 27/27/27
f 28/28/28 29/29/29 30/30/30
f 31/31/31 32/32/32 33/33/33
f 34/34/34 35/35/35 36/36/36
f 37/37/37 38/38/38 39/39/39
f 40/40/40 41/41/41 42/42/42
f 43/43/43 44/44/44 45/45/45
f 46/46/46 47/47/47 48/48/48
f 49/49/49 50/50/50 51/51/51
f 52/52/52 53/53/53 54/54/54
f 55/55/55 56/56/56 57/57/57
f 58/58/58 59/59/59 60/60/60
f 61/61/61 62/62/62 63/63/63
f 64/64/64 65/65/65 66/66/66
f 67/67/67 68/68/68 69/69/69
f 70/70/70 71/71/71 72/72/72
f 73/73/73 74/74/74 75/75/75
f 76/76/76 77/77/77 78/78/78
f 79/79/79 80/80/80 81/81/81
f 82/82/82 83/83/83 84/84/84
f 85/85/85 86/86/86 87/87/87
f 88/88/88 89/89/89 90/90/90
f 91/91/91 92/92/92 93/93/93
f 94/94/94 95/95/95 96/96/96
f 97/97/97 98/98/98 99/99/99
f 100/100/100 101/101/101 102/102/102
f 103/103/103 104/104/104 105/105/105
f 106/106/106 107/107/107 108/108/108
f 109/109/109 110/110/110 111/111/111
f 112/112/112 113/113/113 114/114/114
f 115/115/115 116/116/116 117/117/117
f 118/118/118 119/119/119 120/120/120
f 121/121/121 122/122/122 123/123/123
f 124/124/124 125/125/125 126/126/126
f 127/127/127 128/128/128 129/129/129
f 130/130/130 131/131/131 132/132/132
f 133/133/133 134/134/134 135/135/135
f 136/136/136 137/137/137 138/138/138
f 139/139/139 140/140/140 141/141/141
f 142/142/142 143/143/143 144/144/144
f 145/145/145 146/146/146 147/147/147
f 148/148/148 149/149/149 150/150/150
f 151/151/151 152/152/152 153/153/153
f 154/154/154 155/155/155 156/156/156
f 157/157/157 158/158/158 159/159/159
f 160/160/160 161/161/161 162/162/162
f 163/163/163 164/164/164 165/165/165
f 166/166/166 167/167/167 168/168/168
f 169/169/169 170/170/170 171/171/171
f 172/172/172 173/173/173 174/174/174
f 175/175/175 176/176/176 177/177/177
f 178/178/178 179/179/179 180/180/180
f 181/181/181 182/182/182 183/183/183
f 184/184/184 185/185/185 186/186/186
f 187/187/187 188/188/188 189/189/189
f 190/190/190 191/191/191 192/192/192
f 193/193/193 194/194/194 195/195/195
f 196/196/196 197/197/197 198/198/198
f 199/199/199 200/200/200 201/201/201
f 202/202/202 203/203/203 204/204/204
f 205/205/205 206/206/206 207/207/207
f 208/208/208 209/209/209 210/210/210
f 211/211/211 212/212/212 213/213/213
f 214/214/214 215/215/215 216/216/216
f 217/217/217 218/218/218 219/219/219
f 220/220/220 221/221/221 222/222/222
f 223/223/223 224/224/224 225/225/225
f 226/226/226 227/227/227 228/228/228
f 229/229/229 230/230/230 231/231/231
f 232/232/232 233/233/233 234/234/234
f 235/235/235 236/236/236 237/237/237
f 238/238/238 239/239/239 240/240/240
f 241/241/241 242/242/242 243/243/243
f 244/244/244 245/245/245 246/246/246
f 247/247/247 248/248/248 249/249/249
f 250/250/250 251/251/251 252/252/252
f 253/253/253 254/254/254 255/255/255
f 256/256/256 257/257/257 258/258/258
f 259/259/259 260/260/260 261/261/261
f 262/262/262 263/263/263 264/264/264
f 265/265/265 266/266/266 267/267/267
f 268/268/268 269/269/269 270/270/270
f 271/271/271 272/272/272 273/273/273
f 274/274/274 275/275/275 276/276/276
f 277/277/277 278/278/278 279/279/279
f 280/280/280 281/281/281 282/282/282
f 283/283/283 284/284/284 285/285/285
f 286/286/286 287/287/287 288/288/288
f 289/289/289 290/290/290 291/291/291
f 292/292/292 293/293/293 294/294/294
f 295/295/295 296/296/296 297/297/297
f 298/298/298 299/299/299 300/300/300
f 301/301/301 302/302/302 303/303/303
f 304/304/304 305/305/305 306/306/306
f 307/307/307 308/308/308 309/309/309
f 310/310/310 311/311/311 312/312/312
f 313/313/313 314/314/314 315/315/315
f 316/316/316 317/317/317 318/318/318
f 319/319/319 320/320/320 321/321/321
f 322/322/322 323/323/323 324/324/324
f 325/325/325 326/326/326 327/327/327
f 328/328/328 329/329/329 330/330/330
f 331/331/331 332/332/332 333/333/333
f 334/334/334 335/335/335 336/336/336
f 337/337/337 338/338/338 339/339/339
f 340/340/340 341/341/341 342/342/342
f 343/343/343 344/344/344 345/345/345
f 346/346/346 347/347/347 348/348/348
f 349/349/349 350/350/350 351/351/351
f 352/352/352 353/353/353 354/354/354
f 355/355/355 356/356/356 357/357/357
f 358/358/358 359/359/359 360/360/360
f 361/361/361 362/362/362 363/363/363
f 364/364/364 365/365/365 366/366/366
f 367/367/367 368/368/368 369/369/369
f 370/370/370 371/371/371 372/372/372
f 373/373/373 374/374/374 375/375/375
f 376/376/376 377/377/377 378/378/378
f 379/379/379 380/380/380 381/381/381
f 382/382/382 383/383/383 384/384/384
f 385/385/385 386/386/386 387/387/387
f 388/388/388 389/389/389 390/390/390
f 391/391/391 392/392/392 393/393/393
f 394/394/394 395/395/395 396/396/396
f 397/397/397 398/398/398 399/399/399
f 400/400/400 401/401/401 402/402/402
f 403/403/403 404/404/404 405/405/405
f 406/406/406 407/407/407 408/408/408
f 409/409/409 410/410/410 411/411/411
f 412/412/412 413/413/413 414/414/414
