# Generated by tools/yaml_mesh_converter/split_reload_parts.py
mtllib gun02.mtl
o gun02_reload
v -0.0395323597 0.0759366602 -0.26913619
vt 0.467799991 0.778299987
vn -0.998794132 -0.0485744976 -0.00712737511
v -0.0283578802 -0.109123811 -0.246514738
vt 0.486299992 0.616699994
vn -0.998270568 -0.0585585822 -0.00517360206
v -0.0395323597 0.0862932652 -0.159026667
vt 0.56370002 0.786599994
vn -0.999777256 -0.0210126899 0.001976397
v -0.0395323597 0.0759366602 -0.26913619
vt 0.467799991 0.778299987
vn -0.998794132 -0.0485744976 -0.00712737511
v -0.0283578802 -0.0799611807 -0.349265456
vt 0.397000015 0.642700016
vn -0.998213006 -0.0574856409 -0.0163155307
v -0.0283578802 -0.109123811 -0.246514738
vt 0.486299992 0.616699994
vn -0.998270568 -0.0585585822 -0.00517360206
v -0.0283578802 -0.0799611807 -0.349265456
vt 0.397000015 0.642700016
vn -0.998213006 -0.0574856409 -0.0163155307
v -0.0283578802 -0.115937352 -0.276767582
vt 0.460099995 0.611100018
vn -1 0 0
v -0.0283578802 -0.109123811 -0.246514738
vt 0.486299992 0.616699994
vn -0.998270568 -0.0585585822 -0.00517360206
v -0.0395323597 0.0759366602 -0.26913619
vt 0.0119000003 0.583400011
vn 0 0.457137003 -0.88939629
v 0.0386890061 0.0759366602 -0.26913619
vt 0.0125000002 0.512000024
vn 0 0.457137003 -0.88939629
v 0.0275145248 -0.0799611807 -0.349265456
vt 0.172399998 0.523599982
vn 0 0.457137003 -0.88939629
v -0.0395323597 0.0759366602 -0.26913619
vt 0.0119000003 0.583400011
vn 0 0.457137003 -0.88939629
v 0.0275145248 -0.0799611807 -0.349265456
vt 0.172399998 0.523599982
vn 0 0.457137003 -0.88939629
v -0.0283578802 -0.0799611807 -0.349265456
vt 0.172000006 0.574500024
vn 0 0.457137003 -0.88939629
v -0.0283578802 -0.0799611807 -0.349265456
vt 0.172000006 0.574500024
vn 0 -0.895771226 -0.444515366
v 0.0275145248 -0.0799611807 -0.349265456
vt 0.172399998 0.523599982
vn 0 -0.895771226 -0.444515366
v 0.0275145248 -0.115937352 -0.276767582
vt 0.246399999 0.524200022
vn 0 -0.937344124 -0.348404927
v -0.0283578802 -0.0799611807 -0.349265456
vt 0.172000006 0.574500024
vn 0 -0.895771226 -0.444515366
v 0.0275145248 -0.115937352 -0.276767582
vt 0.246399999 0.524200022
vn 0 -0.937344124 -0.348404927
v -0.0283578802 -0.115937352 -0.276767582
vt 0.246000007 0.575100005
vn 0 -0.986174425 -0.165710601
v -0.0283578802 -0.115937352 -0.276767582
vt 0.246000007 0.575100005
vn 0 -0.986174425 -0.165710601
v 0.0275145248 -0.115937352 -0.276767582
vt 0.246399999 0.524200022
vn 0 -0.937344124 -0.348404927
v 0.0275145248 -0.109123811 -0.246514738
vt 0.274599999 0.524399996
vn 0 -0.577811447 0.816170284
v -0.0283578802 -0.115937352 -0.276767582
vt 0.246000007 0.575100005
vn 0 -0.986174425 -0.165710601
v 0.0275145248 -0.109123811 -0.246514738
vt 0.274599999 0.524399996
vn 0 -0.577811447 0.816170284
v -0.0283578802 -0.109123811 -0.246514738
vt 0.274100006 0.575299978
vn 0 -0.450687704 0.892681687
v -0.0283578802 -0.109123811 -0.246514738
vt 0.274100006 0.575299978
vn 0 -0.450687704 0.892681687
v 0.0275145248 -0.109123811 -0.246514738
vt 0.274599999 0.524399996
vn 0 -0.577811447 0.816170284
v 0.0386890061 0.0862932652 -0.159026667
vt 0.469999999 0.515799999
vn 0 -0.408617607 0.912705676
v -0.0283578802 -0.109123811 -0.246514738
vt 0.274100006 0.575299978
vn 0 -0.450687704 0.892681687
v 0.0386890061 0.0862932652 -0.159026667
vt 0.469999999 0.515799999
vn 0 -0.408617607 0.912705676
v -0.0395323597 0.0862932652 -0.159026667
vt 0.469500005 0.587300003
vn 0 -0.408617607 0.912705676
v 0.0275145248 -0.109123811 -0.246514738
vt 0.486299992 0.616699994
vn 0.998270567 -0.0585585919 -0.00517360292
v 0.0386890061 0.0759366602 -0.26913619
vt 0.467799991 0.778299987
vn 0.998794132 -0.0485745054 -0.00712737625
v 0.0386890061 0.0862932652 -0.159026667
vt 0.56370002 0.786599994
vn 0.999777255 -0.0210126934 0.00197639733
v 0.0275145248 -0.109123811 -0.246514738
vt 0.486299992 0.616699994
vn 0.998270567 -0.0585585919 -0.00517360292
v 0.0275145248 -0.0799611807 -0.349265456
vt 0.397000015 0.642700016
vn 0.998213005 -0.0574856504 -0.0163155334
v 0.0386890061 0.0759366602 -0.26913619
vt 0.467799991 0.778299987
vn 0.998794132 -0.0485745054 -0.00712737625
v 0.0275145248 -0.0799611807 -0.349265456
vt 0.397000015 0.642700016
vn 0.998213005 -0.0574856504 -0.0163155334
v 0.0275145248 -0.109123811 -0.246514738
vt 0.486299992 0.616699994
vn 0.998270567 -0.0585585919 -0.00517360292
v 0.0275145248 -0.115937352 -0.276767582
vt 0.460099995 0.611100018
vn 1 0 0
v -0.0004216768 0.0811149627 -0.2140814285
vt 0.467799991 0.778299987
vn 0 0.995605746512 -0.093643993466
v -0.0395323597 0.0759366602 -0.26913619
vt 0.467799991 0.778299987
vn 0 0.995605746512 -0.093643993466
v -0.0395323597 0.0862932652 -0.159026667
vt 0.467799991 0.778299987
vn 0 0.995605746512 -0.093643993466
v -0.0004216768 0.0811149627 -0.2140814285
vt 0.467799991 0.778299987
vn 0 0.995605746512 -0.093643993466
v -0.0395323597 0.0862932652 -0.159026667
vt 0.467799991 0.778299987
vn 0 0.995605746512 -0.093643993466
v 0.0386890061 0.0862932652 -0.159026667
vt 0.467799991 0.778299987
vn 0 0.995605746512 -0.093643993466
v -0.0004216768 0.0811149627 -0.2140814285
vt 0.467799991 0.778299987
vn 0 0.995605746512 -0.093643993466
v 0.0386890061 0.0862932652 -0.159026667
vt 0.467799991 0.778299987
vn 0 0.995605746512 -0.093643993466
v 0.0386890061 0.0759366602 -0.26913619
vt 0.467799991 0.778299987
vn 0 0.995605746512 -0.093643993466
v -0.0004216768 0.0811149627 -0.2140814285
vt 0.467799991 0.778299987
vn 0 0.995605746512 -0.093643993466
v 0.0386890061 0.0759366602 -0.26913619
vt 0.467799991 0.778299987
vn 0 0.995605746512 -0.093643993466
v -0.0395323597 0.0759366602 -0.26913619
vt 0.467799991 0.778299987
vn 0 0.995605746512 -0.093643993466
usemtl MS06-Newlambert6
f 1/1/1 2/2/2 3/3/3
f 4/4/4 5/5/5 6/6/6
f 7/7/7 8/8/8 9/9/9
f 10/10/10 11/11/11 12/12/12
f 13/13/13 14/14/14 15/15/15
f 16/16/16 17/17/17 18/18/18
f 19/19/19 20/20/20 21/21/21
f 22/22/22 23/23/23 24/24/24
f 25/25/25 26/26/26 27/27/27
f 28/28/28 29/29/29 30/30/30
f 31/31/31 32/32/32 33/33/33
f 34/34/34 35/35/35 36/36/36
f 37/37/37 38/38/38 39/39/39
f 40/40/40 41/41/41 42/42/42
f 43/43/43 44/44/44 45/45/45
f 46/46/46 47/47/47 48/48/48
f 49/49/49 50/50/50 51/51/51
f 52/52/52 53/53/53 54/54/54
