# Generated by tools/yaml_mesh_converter/split_reload_parts.py
mtllib gun04.mtl
o gun04_body
v -0.0706739426 0.330435872 -0.300592065
vt 0.385199994 0.316900015
vn -0.619367448 0.774176275 -0.130518426
v -0.0616994798 0.274110556 -0.603175998
vt 0.147100002 0.268900007
vn -0.984622758 0.16217151 -0.0649494075
v -0.0706739426 0.318347723 -0.283309221
vt 0.401800007 0.306699991
vn -0.999746428 0.0217326201 -0.0058968769
v -0.000160256459 0.30855763 -0.597271085
vt 0.147100002 0.330799997
vn -0.554477432 0.809863667 -0.191508794
v -0.0616994798 0.274110556 -0.603175998
vt 0.147100002 0.268900007
vn -0.984622758 0.16217151 -0.0649494075
v -0.0706739426 0.330435872 -0.300592065
vt 0.385199994 0.316900015
vn -0.619367448 0.774176275 -0.130518426
v -0.000160256459 0.30855763 -0.597271085
vt 0.147100002 0.330799997
vn -0.554477432 0.809863667 -0.191508794
v -0.0706739426 0.330435872 -0.300592065
vt 0.385199994 0.316900015
vn -0.619367448 0.774176275 -0.130518426
v -0.000160256459 0.387471706 -0.301962852
vt 0.379900008 0.386799991
vn -0.624345972 0.768519961 -0.139889874
v -0.000160256459 0.365442157 -0.284761727
vt 0.400200009 0.376399994
vn -0.552099765 0.810785024 0.194456923
v -0.000160256459 0.387471706 -0.301962852
vt 0.379900008 0.386799991
vn -0.624345972 0.768519961 -0.139889874
v -0.0706739426 0.330435872 -0.300592065
vt 0.385199994 0.316900015
vn -0.619367448 0.774176275 -0.130518426
v -0.000160256459 0.365442157 -0.284761727
vt 0.400200009 0.376399994
vn -0.552099765 0.810785024 0.194456923
v -0.0706739426 0.330435872 -0.300592065
vt 0.385199994 0.316900015
vn -0.619367448 0.774176275 -0.130518426
v -0.0706739426 0.318347723 -0.283309221
vt 0.401800007 0.306699991
vn -0.999746428 0.0217326201 -0.0058968769
v -0.000160256459 0.366922349 -0.183164135
vt 0.479499996 0.375499994
vn -0.548985699 0.824676793 -0.136098823
v -0.000160256459 0.365442157 -0.284761727
vt 0.400200009 0.376399994
vn -0.552099765 0.810785024 0.194456923
v -0.0706739426 0.318347723 -0.283309221
vt 0.401800007 0.306699991
vn -0.999746428 0.0217326201 -0.0058968769
v -0.000160256459 0.366922349 -0.183164135
vt 0.479499996 0.375499994
vn -0.548985699 0.824676793 -0.136098823
v -0.0706739426 0.318347723 -0.283309221
vt 0.401800007 0.306699991
vn -0.999746428 0.0217326201 -0.0058968769
v -0.0706739426 0.319499344 -0.18202436
vt 0.481599987 0.307700008
vn -0.999977663 0.00663350819 -0.000818665748
v -0.0706739426 0.318347723 -0.283309221
vt 0.401800007 0.306699991
vn -0.999746428 0.0217326201 -0.0058968769
v -0.0485582873 0.0723882693 -0.325489223
vt 0.371300012 0.114699997
vn -0.997930721 -0.0639400405 -0.00677838997
v -0.0706739426 0.319499344 -0.18202436
vt 0.481599987 0.307700008
vn -0.999977663 0.00663350819 -0.000818665748
v -0.0706739426 0.319499344 -0.18202436
vt 0.481599987 0.307700008
vn -0.999977663 0.00663350819 -0.000818665748
v -0.0485582873 0.0723882693 -0.325489223
vt 0.371300012 0.114699997
vn -0.997930721 -0.0639400405 -0.00677838997
v -0.0636225715 0.292351574 0.142443538
vt 0.729600012 0.288800001
vn -0.999110906 0.0418102319 0.00541307361
v -0.0636225715 0.292351574 0.142443538
vt 0.729600012 0.288800001
vn -0.999110906 0.0418102319 0.00541307361
v -0.0626610219 0.347641111 -0.158334404
vt 0.501100004 0.328500003
vn -0.859006291 0.508704787 -0.0576856309
v -0.0706739426 0.319499344 -0.18202436
vt 0.481599987 0.307700008
vn -0.999977663 0.00663350819 -0.000818665748
v -0.000160256459 0.366922349 -0.183164135
vt 0.479499996 0.375499994
vn -0.548985699 0.824676793 -0.136098823
v -0.0706739426 0.319499344 -0.18202436
vt 0.481599987 0.307700008
vn -0.999977663 0.00663350819 -0.000818665748
v -0.0626610219 0.347641111 -0.158334404
vt 0.501100004 0.328500003
vn -0.859006291 0.508704787 -0.0576856309
v -0.0636225715 0.292351574 0.142443538
vt 0.729600012 0.288800001
vn -0.999110906 0.0418102319 0.00541307361
v -0.0626610219 0.354221255 0.128773391
vt 0.716300011 0.328399986
vn -0.72555378 0.681601839 0.0948190131
v -0.0626610219 0.347641111 -0.158334404
vt 0.501100004 0.328500003
vn -0.859006291 0.508704787 -0.0576856309
v -0.000160256459 0.366922349 -0.183164135
vt 0.479499996 0.375499994
vn -0.548985699 0.824676793 -0.136098823
v -0.0626610219 0.347641111 -0.158334404
vt 0.501100004 0.328500003
vn -0.859006291 0.508704787 -0.0576856309
v -0.000160256459 0.384497613 -0.15889962
vt 0.501100004 0.382400006
vn -0.507759119 0.860366545 -0.0441597727
v -0.000160256459 0.384497613 -0.15889962
vt 0.501100004 0.382400006
vn -0.507759119 0.860366545 -0.0441597727
v -0.0626610219 0.347641111 -0.158334404
vt 0.501100004 0.328500003
vn -0.859006291 0.508704787 -0.0576856309
v -0.0626610219 0.354221255 0.128773391
vt 0.716300011 0.328399986
vn -0.72555378 0.681601839 0.0948190131
v -0.000160256459 0.384497613 -0.15889962
vt 0.501100004 0.382400006
vn -0.507759119 0.860366545 -0.0441597727
v -0.0626610219 0.354221255 0.128773391
vt 0.716300011 0.328399986
vn -0.72555378 0.681601839 0.0948190131
v -0.000160256459 0.391093105 0.128849044
vt 0.715200007 0.381900012
vn -0.50643008 0.858269439 0.0830791445
v -0.000160256459 0.355474919 0.140926421
vt 0.738699973 0.360599995
vn -0.189565051 0.252471489 0.948853644
v -0.000160256459 0.391093105 0.128849044
vt 0.715200007 0.381900012
vn -0.50643008 0.858269439 0.0830791445
v -0.0626610219 0.354221255 0.128773391
vt 0.716300011 0.328399986
vn -0.72555378 0.681601839 0.0948190131
v -0.000160256459 0.355474919 0.140926421
vt 0.738699973 0.360599995
vn -0.189565051 0.252471489 0.948853644
v -0.0626610219 0.354221255 0.128773391
vt 0.716300011 0.328399986
vn -0.72555378 0.681601839 0.0948190131
v -0.0636225715 0.292351574 0.142443538
vt 0.729600012 0.288800001
vn -0.999110906 0.0418102319 0.00541307361
v -0.0706739426 0.318347723 -0.283309221
vt 0.401800007 0.306699991
vn -0.999746428 0.0217326201 -0.0058968769
v -0.0485582873 0.0937978702 -0.555239439
vt 0.180500001 0.127100006
vn -0.996432173 -0.0829609842 -0.0155048414
v -0.0485582873 0.0723882693 -0.325489223
vt 0.371300012 0.114699997
vn -0.997930721 -0.0639400405 -0.00677838997
v -0.0616994798 0.274110556 -0.603175998
vt 0.147100002 0.268900007
vn -0.984622758 0.16217151 -0.0649494075
v -0.0485582873 0.0937978702 -0.555239439
vt 0.180500001 0.127100006
vn -0.996432173 -0.0829609842 -0.0155048414
v -0.0706739426 0.318347723 -0.283309221
vt 0.401800007 0.306699991
vn -0.999746428 0.0217326201 -0.0058968769
v -0.0616994798 0.274110556 -0.603175998
vt 0.147100002 0.268900007
vn -0.984622758 0.16217151 -0.0649494075
v -0.0485582873 0.125136107 -0.598633647
vt 0.147100002 0.150900006
vn -0.993867618 -0.0896440422 -0.064738738
v -0.0485582873 0.0937978702 -0.555239439
vt 0.180500001 0.127100006
vn -0.996432173 -0.0829609842 -0.0155048414
v -0.0549686216 0.0208542647 -0.0151832253
vt 0.609499991 0.0784000009
vn -0.997955083 -0.0598968469 -0.0223163527
v -0.0636225715 0.292351574 0.142443538
vt 0.729600012 0.288800001
vn -0.999110906 0.0418102319 0.00541307361
v -0.0485582873 0.0723882693 -0.325489223
vt 0.371300012 0.114699997
vn -0.997930721 -0.0639400405 -0.00677838997
v -0.0636225715 0.292351574 0.142443538
vt 0.729600012 0.288800001
vn -0.999110906 0.0418102319 0.00541307361
v -0.0549686216 0.0208542647 -0.0151832253
vt 0.609499991 0.0784000009
vn -0.997955083 -0.0598968469 -0.0223163527
v -0.0671482608 0.254207552 0.356244892
vt 0.894999981 0.256399989
vn -0.999721195 0.00127870008 -0.0235774847
v -0.0706739426 0.112681531 0.403890491
vt 0.931100011 0.147699997
vn -0.99875098 -0.0468796757 0.0172851536
v -0.0671482608 0.254207552 0.356244892
vt 0.894999981 0.256399989
vn -0.999721195 0.00127870008 -0.0235774847
v -0.0549686216 0.0208542647 -0.0151832253
vt 0.609499991 0.0784000009
vn -0.997955083 -0.0598968469 -0.0223163527
v -0.0549686216 0.0208542647 -0.0151832253
vt 0.609499991 0.0784000009
vn -0.997955083 -0.0598968469 -0.0223163527
v -0.0450326055 -0.0569640098 0.255357713
vt 0.816399992 0.0167999994
vn -0.987936129 -0.154644719 -0.00819852243
v -0.0706739426 0.112681531 0.403890491
vt 0.931100011 0.147699997
vn -0.99875098 -0.0468796757 0.0172851536
v -0.0549686216 0.0208542647 -0.0151832253
vt 0.609499991 0.0784000009
vn -0.997955083 -0.0598968469 -0.0223163527
v -0.0402248539 -0.0642525849 0.0721443444
vt 0.675899982 0.0118000004
vn -0.981841683 -0.188821965 -0.0182530778
v -0.0450326055 -0.0569640098 0.255357713
vt 0.816399992 0.0167999994
vn -0.987936129 -0.154644719 -0.00819852243
v -0.0706739426 0.112681531 0.403890491
vt 0.931100011 0.147699997
vn -0.99875098 -0.0468796757 0.0172851536
v -0.0636225715 0.25677082 0.42287004
vt 0.946200013 0.256399989
vn -0.981753867 0.0231839423 0.188737516
v -0.0671482608 0.254207552 0.356244892
vt 0.894999981 0.256399989
vn -0.999721195 0.00127870008 -0.0235774847
v -0.0706739426 0.112681531 0.403890491
vt 0.931100011 0.147699997
vn -0.99875098 -0.0468796757 0.0172851536
v -0.0456736386 0.216606677 0.472567976
vt 0.986899972 0.227599993
vn -0.951755756 0.0269570921 0.305670242
v -0.0636225715 0.25677082 0.42287004
vt 0.946200013 0.256399989
vn -0.981753867 0.0231839423 0.188737516
v -0.0706739426 0.112681531 0.403890491
vt 0.931100011 0.147699997
vn -0.99875098 -0.0468796757 0.0172851536
v -0.0508019067 0.114398882 0.475345135
vt 0.984499991 0.149200007
vn -0.962293778 0.0555184656 0.266286285
v -0.0456736386 0.216606677 0.472567976
vt 0.986899972 0.227599993
vn -0.951755756 0.0269570921 0.305670242
v -0.0636225715 0.292351574 0.142443538
vt 0.729600012 0.288800001
vn -0.999110906 0.0418102319 0.00541307361
v -0.0671482608 0.254207552 0.356244892
vt 0.894999981 0.256399989
vn -0.999721195 0.00127870008 -0.0235774847
v -0.0645841286 0.293546289 0.298872173
vt 0.851400018 0.286599994
vn -0.843092966 0.53768761 -0.00928900063
v -0.000160256459 0.358110309 0.290587664
vt 0.8495 0.354400009
vn -0.706937932 0.707188955 -0.0110698503
v -0.0636225715 0.292351574 0.142443538
vt 0.729600012 0.288800001
vn -0.999110906 0.0418102319 0.00541307361
v -0.0645841286 0.293546289 0.298872173
vt 0.851400018 0.286599994
vn -0.843092966 0.53768761 -0.00928900063
v -0.000160256459 0.358110309 0.290587664
vt 0.8495 0.354400009
vn -0.706937932 0.707188955 -0.0110698503
v -0.000160256459 0.355474919 0.140926421
vt 0.738699973 0.360599995
vn -0.705305808 0.708793296 -0.0124811636
v -0.0636225715 0.292351574 0.142443538
vt 0.729600012 0.288800001
vn -0.999110906 0.0418102319 0.00541307361
v -0.000160256459 0.30855763 -0.597271085
vt 0.155000001 0.0676999986
vn 0 0.168955484 -0.985623683
v 0.0616994835 0.274110556 -0.603175998
vt 0.178599998 0.0153000001
vn 0 -0.00735787981 -0.99997293
v -0.0616994798 0.274110556 -0.603175998
vt 0.177699998 0.120499998
vn 0 0.007428379 -0.999972409
v 0.0616994835 0.274110556 -0.603175998
vt 0.178599998 0.0153000001
vn 0 -0.00735787981 -0.99997293
v -0.0485582873 0.125136107 -0.598633647
vt 0.291599989 0.104999997
vn 0 -0.235381063 -0.971903161
v -0.0616994798 0.274110556 -0.603175998
vt 0.177699998 0.120499998
vn 0 0.007428379 -0.999972409
v 0.0616994835 0.274110556 -0.603175998
vt 0.178599998 0.0153000001
vn 0 -0.00735787981 -0.99997293
v 0.0485582948 0.125136107 -0.598633647
vt 0.292199999 0.0326000005
vn 0 -0.256927881 -0.966430579
v -0.0485582873 0.125136107 -0.598633647
vt 0.291599989 0.104999997
vn 0 -0.235381063 -0.971903161
v 0.0485582948 0.0937978702 -0.555239439
vt 0.336600006 0.0329999998
vn 0 -0.810697176 -0.585465702
v -0.0485582873 0.125136107 -0.598633647
vt 0.291599989 0.104999997
vn 0 -0.235381063 -0.971903161
v 0.0485582948 0.125136107 -0.598633647
vt 0.292199999 0.0326000005
vn 0 -0.256927881 -0.966430579
v 0.0485582948 0.0937978702 -0.555239439
vt 0.336600006 0.0329999998
vn 0 -0.810697176 -0.585465702
v -0.0485582873 0.0937978702 -0.555239439
vt 0.335999995 0.105400003
vn 0 -0.810697176 -0.585465702
v -0.0485582873 0.125136107 -0.598633647
vt 0.291599989 0.104999997
vn 0 -0.235381063 -0.971903161
v 0.0485582948 0.0723882693 -0.325489223
vt 0.190099999 0.397799999
vn 0 -0.979738978 -0.200278645
v -0.0485582873 0.0723882693 -0.325489223
vt 0.190099999 0.486000001
vn 0 -0.912075501 -0.410022293
v -0.0485582873 0.0937978702 -0.555239439
vt 0.0113000004 0.486000001
vn 0 -0.99568622 -0.0927844379
v 0.0485582948 0.0723882693 -0.325489223
vt 0.190099999 0.397799999
vn 0 -0.979738978 -0.200278645
v -0.0485582873 0.0937978702 -0.555239439
vt 0.0113000004 0.486000001
vn 0 -0.99568622 -0.0927844379
v 0.0485582948 0.0937978702 -0.555239439
vt 0.0113000004 0.397799999
vn 0 -0.99568622 -0.0927844379
v 0.0399043411 -0.0642525849 0.0721443444
vt 0.5704 0.409799993
vn 0 -0.894969731 -0.446126865
v -0.0402248539 -0.0642525849 0.0721443444
vt 0.569700003 0.462900013
vn 0 -0.989491333 -0.144592191
v -0.0549686216 0.0208542647 -0.0151832253
vt 0.489499986 0.471799999
vn 0 -0.716153964 -0.697942333
v 0.0399043411 -0.0642525849 0.0721443444
vt 0.5704 0.409799993
vn 0 -0.894969731 -0.446126865
v -0.0549686216 0.0208542647 -0.0151832253
vt 0.489499986 0.471799999
vn 0 -0.716153964 -0.697942333
v 0.054968629 0.0208542647 -0.0151832253
vt 0.490500003 0.398900002
vn 0 -0.716153964 -0.697942333
v 0.0450326093 -0.0569640098 0.255357713
vt 0.691100001 0.408199996
vn 0 -0.937638319 0.347612403
v -0.0402248539 -0.0642525849 0.0721443444
vt 0.569700003 0.462900013
vn 0 -0.989491333 -0.144592191
v 0.0399043411 -0.0642525849 0.0721443444
vt 0.5704 0.409799993
vn 0 -0.894969731 -0.446126865
v 0.0450326093 -0.0569640098 0.255357713
vt 0.691100001 0.408199996
vn 0 -0.937638319 0.347612403
v -0.0450326055 -0.0569640098 0.255357713
vt 0.690299988 0.467700005
vn 0 -0.786749775 0.617272056
v -0.0402248539 -0.0642525849 0.0721443444
vt 0.569700003 0.462900013
vn 0 -0.989491333 -0.144592191
v 0.0706739575 0.112681531 0.403890491
vt 0.839699984 0.393000007
vn 0 -0.747660307 0.664081369
v -0.0450326055 -0.0569640098 0.255357713
vt 0.690299988 0.467700005
vn 0 -0.786749775 0.617272056
v 0.0450326093 -0.0569640098 0.255357713
vt 0.691100001 0.408199996
vn 0 -0.937638319 0.347612403
v 0.0706739575 0.112681531 0.403890491
vt 0.839699984 0.393000007
vn 0 -0.747660307 0.664081369
v -0.0706739426 0.112681531 0.403890491
vt 0.838500023 0.486799985
vn 0 -0.84377448 0.536697891
v -0.0450326055 -0.0569640098 0.255357713
vt 0.690299988 0.467700005
vn 0 -0.786749775 0.617272056
v 0.0508019142 0.114398882 0.475345135
vt 0.886699975 0.406800002
vn 0 -0.999711305 0.0240272078
v -0.0706739426 0.112681531 0.403890491
vt 0.838500023 0.486799985
vn 0 -0.84377448 0.536697891
v 0.0706739575 0.112681531 0.403890491
vt 0.839699984 0.393000007
vn 0 -0.747660307 0.664081369
v 0.0508019142 0.114398882 0.475345135
vt 0.886699975 0.406800002
vn 0 -0.999711305 0.0240272078
v -0.0508019067 0.114398882 0.475345135
vt 0.885800004 0.47420001
vn 0 -0.999711305 0.0240272078
v -0.0706739426 0.112681531 0.403890491
vt 0.838500023 0.486799985
vn 0 -0.84377448 0.536697891
v 0.0671482757 0.254207552 0.356244892
vt 0.99119997 0.412699997
vn 0 0.958378242 0.285501568
v 0.064584136 0.293546289 0.298872173
vt 0.989499986 0.456400007
vn 0 0.534193249 0.845362391
v -0.0645841286 0.293546289 0.298872173
vt 0.898199975 0.456400007
vn 0 0.654368379 0.756175922
v 0.0671482757 0.254207552 0.356244892
vt 0.99119997 0.412699997
vn 0 0.958378242 0.285501568
v -0.0645841286 0.293546289 0.298872173
vt 0.898199975 0.456400007
vn 0 0.654368379 0.756175922
v -0.0671482608 0.254207552 0.356244892
vt 0.896499991 0.412699997
vn 0 0.958723609 0.284339658
v 0.0671482757 0.254207552 0.356244892
vt 0.99119997 0.412699997
vn 0 0.958378242 0.285501568
v -0.0671482608 0.254207552 0.356244892
vt 0.896499991 0.412699997
vn 0 0.958723609 0.284339658
v -0.0636225715 0.25677082 0.42287004
vt 0.898999989 0.370799989
vn 0 0.982966972 0.183782295
v 0.0671482757 0.254207552 0.356244892
vt 0.99119997 0.412699997
vn 0 0.958378242 0.285501568
v -0.0636225715 0.25677082 0.42287004
vt 0.898999989 0.370799989
vn 0 0.982966972 0.183782295
v 0.0636225864 0.25677082 0.42287004
vt 0.988699973 0.370799989
vn 0 0.916303637 0.400484263
v 0.0636225864 0.25677082 0.42287004
vt 0.988699973 0.370799989
vn 0 0.916303637 0.400484263
v -0.0636225715 0.25677082 0.42287004
vt 0.898999989 0.370799989
vn 0 0.982966972 0.183782295
v -0.0456736386 0.216606677 0.472567976
vt 0.911599994 0.330599993
vn 0 0.523038556 0.852309022
v 0.0636225864 0.25677082 0.42287004
vt 0.988699973 0.370799989
vn 0 0.916303637 0.400484263
v -0.0456736386 0.216606677 0.472567976
vt 0.911599994 0.330599993
vn 0 0.523038556 0.852309022
v 0.0456736423 0.216606677 0.472567976
vt 0.976100028 0.330599993
vn 0 0.212064441 0.977255685
v 0.0456736423 0.216606677 0.472567976
vt 0.976100028 0.330599993
vn 0 0.212064441 0.977255685
v -0.0456736386 0.216606677 0.472567976
vt 0.911599994 0.330599993
vn 0 0.523038556 0.852309022
v -0.0508019067 0.114398882 0.475345135
vt 0.907999992 0.266400009
vn 0 0.0271616719 0.999631054
v 0.0456736423 0.216606677 0.472567976
vt 0.976100028 0.330599993
vn 0 0.212064441 0.977255685
v -0.0508019067 0.114398882 0.475345135
vt 0.907999992 0.266400009
vn 0 0.0271616719 0.999631054
v 0.0508019142 0.114398882 0.475345135
vt 0.979700029 0.266400009
vn 0 0.0271616719 0.999631054
v -0.0645841286 0.293546289 0.298872173
vt 0.898199975 0.456400007
vn 0 0.654368379 0.756175922
v 0.064584136 0.293546289 0.298872173
vt 0.989499986 0.456400007
vn 0 0.534193249 0.845362391
v -0.000160256459 0.358110309 0.290587664
vt 0.943799973 0.497099996
vn 0 0.127271184 0.991867958
v 0.0706739575 0.330435872 -0.300592065
vt 0.385199994 0.316900015
vn 0.617521498 0.775614146 -0.130728327
v 0.0706739575 0.318347723 -0.283309221
vt 0.401800007 0.306699991
vn 0.999736683 0.022181501 -0.00587754555
v 0.0616994835 0.274110556 -0.603175998
vt 0.147100002 0.268900007
vn 0.984419428 0.163319022 -0.0651558657
v 0.0706739575 0.330435872 -0.300592065
vt 0.385199994 0.316900015
vn 0.617521498 0.775614146 -0.130728327
v 0.0616994835 0.274110556 -0.603175998
vt 0.147100002 0.268900007
vn 0.984419428 0.163319022 -0.0651558657
v -0.000160256459 0.30855763 -0.597271085
vt 0.147100002 0.330799997
vn 0.552623382 0.811071942 -0.191754279
v 0.0706739575 0.330435872 -0.300592065
vt 0.385199994 0.316900015
vn 0.617521498 0.775614146 -0.130728327
v -0.000160256459 0.30855763 -0.597271085
vt 0.147100002 0.330799997
vn 0.552623382 0.811071942 -0.191754279
v -0.000160256459 0.387471706 -0.301962852
vt 0.379900008 0.386799991
vn 0.622617495 0.769876065 -0.140136719
v -0.000160256459 0.365442157 -0.284761727
vt 0.400200009 0.376399994
vn 0.550359404 0.811903115 0.194725083
v 0.0706739575 0.318347723 -0.283309221
vt 0.401800007 0.306699991
vn 0.999736683 0.022181501 -0.00587754555
v 0.0706739575 0.330435872 -0.300592065
vt 0.385199994 0.316900015
vn 0.617521498 0.775614146 -0.130728327
v -0.000160256459 0.365442157 -0.284761727
vt 0.400200009 0.376399994
vn 0.550359404 0.811903115 0.194725083
v 0.0706739575 0.330435872 -0.300592065
vt 0.385199994 0.316900015
vn 0.617521498 0.775614146 -0.130728327
v -0.000160256459 0.387471706 -0.301962852
vt 0.379900008 0.386799991
vn 0.622617495 0.769876065 -0.140136719
v -0.000160256459 0.366922349 -0.183164135
vt 0.479499996 0.375499994
vn 0.547220485 0.825801286 -0.136389066
v 0.0706739575 0.318347723 -0.283309221
vt 0.401800007 0.306699991
vn 0.999736683 0.022181501 -0.00587754555
v -0.000160256459 0.365442157 -0.284761727
vt 0.400200009 0.376399994
vn 0.550359404 0.811903115 0.194725083
v -0.000160256459 0.366922349 -0.183164135
vt 0.479499996 0.375499994
vn 0.547220485 0.825801286 -0.136389066
v 0.0706739575 0.319499344 -0.18202436
vt 0.481599987 0.307700008
vn 0.999975416 0.00695476615 -0.000893975964
v 0.0706739575 0.318347723 -0.283309221
vt 0.401800007 0.306699991
vn 0.999736683 0.022181501 -0.00587754555
v 0.0706739575 0.318347723 -0.283309221
vt 0.401800007 0.306699991
vn 0.999736683 0.022181501 -0.00587754555
v 0.0706739575 0.319499344 -0.18202436
vt 0.481599987 0.307700008
vn 0.999975416 0.00695476615 -0.000893975964
v 0.0485582948 0.0723882693 -0.325489223
vt 0.371300012 0.114699997
vn 0.99793072 -0.0639400665 -0.00677839264
v 0.0706739575 0.319499344 -0.18202436
vt 0.481599987 0.307700008
vn 0.999975416 0.00695476615 -0.000893975964
v 0.0636225864 0.292351574 0.142443538
vt 0.729600012 0.288800001
vn 0.999095988 0.0421570774 0.00547606522
v 0.0485582948 0.0723882693 -0.325489223
vt 0.371300012 0.114699997
vn 0.99793072 -0.0639400665 -0.00677839264
v 0.0626610368 0.347641111 -0.158334404
vt 0.501100004 0.328500003
vn 0.857987071 0.51038923 -0.0579743059
v 0.0636225864 0.292351574 0.142443538
vt 0.729600012 0.288800001
vn 0.999095988 0.0421570774 0.00547606522
v 0.0706739575 0.319499344 -0.18202436
vt 0.481599987 0.307700008
vn 0.999975416 0.00695476615 -0.000893975964
v 0.0626610368 0.347641111 -0.158334404
vt 0.501100004 0.328500003
vn 0.857987071 0.51038923 -0.0579743059
v 0.0706739575 0.319499344 -0.18202436
vt 0.481599987 0.307700008
vn 0.999975416 0.00695476615 -0.000893975964
v -0.000160256459 0.366922349 -0.183164135
vt 0.479499996 0.375499994
vn 0.547220485 0.825801286 -0.136389066
v 0.0626610368 0.347641111 -0.158334404
vt 0.501100004 0.328500003
vn 0.857987071 0.51038923 -0.0579743059
v 0.0626610368 0.354221255 0.128773391
vt 0.716300011 0.328399986
vn 0.723806641 0.683421107 0.0950764799
v 0.0636225864 0.292351574 0.142443538
vt 0.729600012 0.288800001
vn 0.999095988 0.0421570774 0.00547606522
v 0.0626610368 0.347641111 -0.158334404
vt 0.501100004 0.328500003
vn 0.857987071 0.51038923 -0.0579743059
v -0.000160256459 0.366922349 -0.183164135
vt 0.479499996 0.375499994
vn 0.547220485 0.825801286 -0.136389066
v -0.000160256459 0.384497613 -0.15889962
vt 0.501100004 0.382400006
vn 0.505832558 0.861497654 -0.0442178287
v 0.0626610368 0.354221255 0.128773391
vt 0.716300011 0.328399986
vn 0.723806641 0.683421107 0.0950764799
v 0.0626610368 0.347641111 -0.158334404
vt 0.501100004 0.328500003
vn 0.857987071 0.51038923 -0.0579743059
v -0.000160256459 0.384497613 -0.15889962
vt 0.501100004 0.382400006
vn 0.505832558 0.861497654 -0.0442178287
v 0.0626610368 0.354221255 0.128773391
vt 0.716300011 0.328399986
vn 0.723806641 0.683421107 0.0950764799
v -0.000160256459 0.384497613 -0.15889962
vt 0.501100004 0.382400006
vn 0.505832558 0.861497654 -0.0442178287
v -0.000160256459 0.391093105 0.128849044
vt 0.715200007 0.381900012
vn 0.504505092 0.85939188 0.0831877951
v -0.000160256459 0.355474919 0.140926421
vt 0.738699973 0.360599995
vn 0.188632621 0.252508748 0.949029539
v 0.0636225864 0.292351574 0.142443538
vt 0.729600012 0.288800001
vn 0.999095988 0.0421570774 0.00547606522
v 0.0626610368 0.354221255 0.128773391
vt 0.716300011 0.328399986
vn 0.723806641 0.683421107 0.0950764799
v -0.000160256459 0.355474919 0.140926421
vt 0.738699973 0.360599995
vn 0.188632621 0.252508748 0.949029539
v 0.0626610368 0.354221255 0.128773391
vt 0.716300011 0.328399986
vn 0.723806641 0.683421107 0.0950764799
v -0.000160256459 0.391093105 0.128849044
vt 0.715200007 0.381900012
vn 0.504505092 0.85939188 0.0831877951
v 0.0706739575 0.318347723 -0.283309221
vt 0.401800007 0.306699991
vn 0.999736683 0.022181501 -0.00587754555
v 0.0485582948 0.0723882693 -0.325489223
vt 0.371300012 0.114699997
vn 0.99793072 -0.0639400665 -0.00677839264
v 0.0485582948 0.0937978702 -0.555239439
vt 0.180500001 0.127100006
vn 0.996432172 -0.0829609913 -0.0155048593
v 0.0485582948 0.0937978702 -0.555239439
vt 0.180500001 0.127100006
vn 0.996432172 -0.0829609913 -0.0155048593
v 0.0616994835 0.274110556 -0.603175998
vt 0.147100002 0.268900007
vn 0.984419428 0.163319022 -0.0651558657
v 0.0706739575 0.318347723 -0.283309221
vt 0.401800007 0.306699991
vn 0.999736683 0.022181501 -0.00587754555
v 0.0485582948 0.0937978702 -0.555239439
vt 0.180500001 0.127100006
vn 0.996432172 -0.0829609913 -0.0155048593
v 0.0485582948 0.125136107 -0.598633647
vt 0.147100002 0.150900006
vn 0.993867621 -0.0896440171 -0.0647387199
v 0.0616994835 0.274110556 -0.603175998
vt 0.147100002 0.268900007
vn 0.984419428 0.163319022 -0.0651558657
v 0.054968629 0.0208542647 -0.0151832253
vt 0.609499991 0.0784000009
vn 0.997922293 -0.0604144464 -0.0223873284
v 0.0485582948 0.0723882693 -0.325489223
vt 0.371300012 0.114699997
vn 0.99793072 -0.0639400665 -0.00677839264
v 0.0636225864 0.292351574 0.142443538
vt 0.729600012 0.288800001
vn 0.999095988 0.0421570774 0.00547606522
v 0.0636225864 0.292351574 0.142443538
vt 0.729600012 0.288800001
vn 0.999095988 0.0421570774 0.00547606522
v 0.0671482757 0.254207552 0.356244892
vt 0.894999981 0.256399989
vn 0.999721195 0.00127869761 -0.023577492
v 0.054968629 0.0208542647 -0.0151832253
vt 0.609499991 0.0784000009
vn 0.997922293 -0.0604144464 -0.0223873284
v 0.0706739575 0.112681531 0.403890491
vt 0.931100011 0.147699997
vn 0.998750978 -0.046879702 0.0172851609
v 0.054968629 0.0208542647 -0.0151832253
vt 0.609499991 0.0784000009
vn 0.997922293 -0.0604144464 -0.0223873284
v 0.0671482757 0.254207552 0.356244892
vt 0.894999981 0.256399989
vn 0.999721195 0.00127869761 -0.023577492
v 0.0450326093 -0.0569640098 0.255357713
vt 0.816399992 0.0167999994
vn 0.987755113 -0.155778854 -0.00853137905
v 0.054968629 0.0208542647 -0.0151832253
vt 0.609499991 0.0784000009
vn 0.997922293 -0.0604144464 -0.0223873284
v 0.0706739575 0.112681531 0.403890491
vt 0.931100011 0.147699997
vn 0.998750978 -0.046879702 0.0172851609
v 0.0450326093 -0.0569640098 0.255357713
vt 0.816399992 0.0167999994
vn 0.987755113 -0.155778854 -0.00853137905
v 0.0399043411 -0.0642525849 0.0721443444
vt 0.675899982 0.0118000004
vn 0.980829001 -0.193867834 -0.0197416481
v 0.054968629 0.0208542647 -0.0151832253
vt 0.609499991 0.0784000009
vn 0.997922293 -0.0604144464 -0.0223873284
v 0.0706739575 0.112681531 0.403890491
vt 0.931100011 0.147699997
vn 0.998750978 -0.046879702 0.0172851609
v 0.0671482757 0.254207552 0.356244892
vt 0.894999981 0.256399989
vn 0.999721195 0.00127869761 -0.023577492
v 0.0636225864 0.25677082 0.42287004
vt 0.946200013 0.256399989
vn 0.98175385 0.02318393 0.188737604
v 0.0706739575 0.112681531 0.403890491
vt 0.931100011 0.147699997
vn 0.998750978 -0.046879702 0.0172851609
v 0.0636225864 0.25677082 0.42287004
vt 0.946200013 0.256399989
vn 0.98175385 0.02318393 0.188737604
v 0.0456736423 0.216606677 0.472567976
vt 0.986899972 0.227599993
vn 0.951755712 0.0269570955 0.305670376
v 0.0706739575 0.112681531 0.403890491
vt 0.931100011 0.147699997
vn 0.998750978 -0.046879702 0.0172851609
v 0.0456736423 0.216606677 0.472567976
vt 0.986899972 0.227599993
vn 0.951755712 0.0269570955 0.305670376
v 0.0508019142 0.114398882 0.475345135
vt 0.984499991 0.149200007
vn 0.96229375 0.0555185018 0.266286376
v 0.0636225864 0.292351574 0.142443538
vt 0.729600012 0.288800001
vn 0.999095988 0.0421570774 0.00547606522
v 0.064584136 0.293546289 0.298872173
vt 0.851400018 0.286599994
vn 0.841919078 0.539523729 -0.00929576798
v 0.0671482757 0.254207552 0.356244892
vt 0.894999981 0.256399989
vn 0.999721195 0.00127869761 -0.023577492
v -0.000160256459 0.358110309 0.290587664
vt 0.8495 0.354400009
vn 0.705167162 0.708954418 -0.0110863617
v 0.064584136 0.293546289 0.298872173
vt 0.851400018 0.286599994
vn 0.841919078 0.539523729 -0.00929576798
v 0.0636225864 0.292351574 0.142443538
vt 0.729600012 0.288800001
vn 0.999095988 0.0421570774 0.00547606522
v -0.000160256459 0.358110309 0.290587664
vt 0.8495 0.354400009
vn 0.705167162 0.708954418 -0.0110863617
v 0.0636225864 0.292351574 0.142443538
vt 0.729600012 0.288800001
vn 0.999095988 0.0421570774 0.00547606522
v -0.000160256459 0.355474919 0.140926421
vt 0.738699973 0.360599995
vn 0.703517911 0.710567371 -0.0125124033
v 0.0219554007 0.174309388 -0.687021255
vt 0.0178999994 0.126200005
vn 0 -0.0240276823 -0.999711294
v -0.0216348805 0.174309388 -0.687021255
vt 0.0178999994 0.0142999999
vn 0 -0.0240276823 -0.999711294
v -0.0216348805 0.217887059 -0.688068628
vt 0.129800007 0.0142999999
vn 0 -0.0240276823 -0.999711294
v 0.0219554007 0.174309388 -0.687021255
vt 0.0178999994 0.126200005
vn 0 -0.0240276823 -0.999711294
v -0.0216348805 0.217887059 -0.688068628
vt 0.129800007 0.0142999999
vn 0 -0.0240276823 -0.999711294
v 0.0219554007 0.217887059 -0.688068628
vt 0.129800007 0.126200005
vn 0 -0.0240276823 -0.999711294
v -0.0216348805 0.174309388 -0.687021255
vt 0.0201999992 0.239399999
vn -0.881345183 -0.0113520795 -0.472336532
v -0.038301751 0.158394233 -0.655539632
vt 0.0571000017 0.221300006
vn -0.837635918 -0.481661992 -0.257619477
v -0.038301751 0.23529622 -0.657387853
vt 0.0571000017 0.304800004
vn -0.652430061 0.645353469 -0.397308338
v -0.0216348805 0.174309388 -0.687021255
vt 0.0201999992 0.239399999
vn -0.881345183 -0.0113520795 -0.472336532
v -0.038301751 0.23529622 -0.657387853
vt 0.0571000017 0.304800004
vn -0.652430061 0.645353469 -0.397308338
v -0.0216348805 0.217887059 -0.688068628
vt 0.0201999992 0.28670001
vn -0.881345465 -0.0113524168 -0.472335997
v -0.038301751 0.158394233 -0.655539632
vt 0.0571000017 0.221300006
vn -0.837635918 -0.481661992 -0.257619477
v -0.0443915725 0.242862761 -0.596012771
vt 0.140699998 0.305299997
vn -0.699607223 0.697424659 -0.155398128
v -0.038301751 0.23529622 -0.657387853
vt 0.0571000017 0.304800004
vn -0.652430061 0.645353469 -0.397308338
v 0.0389427878 0.23529622 -0.657387853
vt 0.0571000017 0.388300002
vn 0 0.979248429 -0.202663547
v -0.038301751 0.23529622 -0.657387853
vt 0.0571000017 0.304800004
vn -0.652430061 0.645353469 -0.397308338
v -0.0443915725 0.242862761 -0.596012771
vt 0.140699998 0.305299997
vn -0.699607223 0.697424659 -0.155398128
v 0.0219554007 0.217887059 -0.688068628
vt 0.0193000007 0.369800001
vn 0 0.86973766 -0.493514339
v -0.038301751 0.23529622 -0.657387853
vt 0.0571000017 0.304800004
vn -0.652430061 0.645353469 -0.397308338
v 0.0389427878 0.23529622 -0.657387853
vt 0.0571000017 0.388300002
vn 0 0.979248429 -0.202663547
v 0.0219554007 0.217887059 -0.688068628
vt 0.0193000007 0.369800001
vn 0 0.86973766 -0.493514339
v -0.0216348805 0.217887059 -0.688068628
vt 0.0198999997 0.322400004
vn 0 0.86973766 -0.493514339
v -0.038301751 0.23529622 -0.657387853
vt 0.0571000017 0.304800004
vn -0.652430061 0.645353469 -0.397308338
v 0.0389427878 0.23529622 -0.657387853
vt 0.0571000017 0.388300002
vn 0 0.979248429 -0.202663547
v -0.0443915725 0.242862761 -0.596012771
vt 0.140699998 0.305299997
vn -0.699607223 0.697424659 -0.155398128
v 0.0447120927 0.242862761 -0.596012771
vt 0.140699998 0.389800012
vn 0 0.99248612 -0.122357269
v -0.038301751 0.158394233 -0.655539632
vt 0.0571000017 0.221300006
vn -0.837635918 -0.481661992 -0.257619477
v -0.0443915725 0.153784931 -0.593871832
vt 0.140699998 0.220799997
vn -0.467993614 -0.876639261 -0.111738904
v -0.0443915725 0.242862761 -0.596012771
vt 0.140699998 0.305299997
vn -0.699607223 0.697424659 -0.155398128
v 0.0389427878 0.158394233 -0.655539632
vt 0.0571000017 0.1373
vn 0 -0.98219319 -0.187873728
v -0.0443915725 0.153784931 -0.593871832
vt 0.140699998 0.220799997
vn -0.467993614 -0.876639261 -0.111738904
v -0.038301751 0.158394233 -0.655539632
vt 0.0571000017 0.221300006
vn -0.837635918 -0.481661992 -0.257619477
v 0.0389427878 0.158394233 -0.655539632
vt 0.0571000017 0.1373
vn 0 -0.98219319 -0.187873728
v -0.038301751 0.158394233 -0.655539632
vt 0.0571000017 0.221300006
vn -0.837635918 -0.481661992 -0.257619477
v -0.0216348805 0.174309388 -0.687021255
vt 0.0196000002 0.203600004
vn 0 -0.892441534 -0.451163062
v 0.0389427878 0.158394233 -0.655539632
vt 0.0571000017 0.1373
vn 0 -0.98219319 -0.187873728
v -0.0216348805 0.174309388 -0.687021255
vt 0.0196000002 0.203600004
vn 0 -0.892441534 -0.451163062
v 0.0219554007 0.174309388 -0.687021255
vt 0.0196000002 0.156000003
vn 0 -0.892441534 -0.451163062
v 0.0389427878 0.158394233 -0.655539632
vt 0.0571000017 0.1373
vn 0 -0.98219319 -0.187873728
v 0.0447120927 0.153784931 -0.593871832
vt 0.140699998 0.135900006
vn 0 -0.997218313 -0.0745361445
v -0.0443915725 0.153784931 -0.593871832
vt 0.140699998 0.220799997
vn -0.467993614 -0.876639261 -0.111738904
v 0.0389427878 0.158394233 -0.655539632
vt 0.0571000017 0.221300006
vn 0.959466223 -0.00677133921 -0.281742287
v 0.0219554007 0.174309388 -0.687021255
vt 0.0201999992 0.239399999
vn 0.877549647 -0.0115209321 -0.479347353
v 0.0219554007 0.217887059 -0.688068628
vt 0.0201999992 0.28670001
vn 0.877549937 -0.0115205642 -0.479346832
v 0.0389427878 0.158394233 -0.655539632
vt 0.0571000017 0.221300006
vn 0.959466223 -0.00677133921 -0.281742287
v 0.0219554007 0.217887059 -0.688068628
vt 0.0201999992 0.28670001
vn 0.877549937 -0.0115205642 -0.479346832
v 0.0389427878 0.23529622 -0.657387853
vt 0.0571000017 0.304800004
vn 0.984251017 -0.00424736567 -0.176725482
v 0.0447120927 0.153784931 -0.593871832
vt 0.140699998 0.220799997
vn 0.99563422 -0.00224270524 -0.0933138307
v 0.0389427878 0.158394233 -0.655539632
vt 0.0571000017 0.221300006
vn 0.959466223 -0.00677133921 -0.281742287
v 0.0389427878 0.23529622 -0.657387853
vt 0.0571000017 0.304800004
vn 0.984251017 -0.00424736567 -0.176725482
v 0.0447120927 0.153784931 -0.593871832
vt 0.140699998 0.220799997
vn 0.99563422 -0.00224270524 -0.0933138307
v 0.0389427878 0.23529622 -0.657387853
vt 0.0571000017 0.304800004
vn 0.984251017 -0.00424736567 -0.176725482
v 0.0447120927 0.242862761 -0.596012771
vt 0.140699998 0.305299997
vn 0.995634214 -0.00224275069 -0.0933138885
usemtl FL334AR-Newlambert2
f 1/1/1 2/2/2 3/3/3
f 4/4/4 5/5/5 6/6/6
f 7/7/7 8/8/8 9/9/9
f 10/10/10 11/11/11 12/12/12
f 13/13/13 14/14/14 15/15/15
f 16/16/16 17/17/17 18/18/18
f 19/19/19 20/20/20 21/21/21
f 22/22/22 23/23/23 24/24/24
f 25/25/25 26/26/26 27/27/27
f 28/28/28 29/29/29 30/30/30
f 31/31/31 32/32/32 33/33/33
f 34/34/34 35/35/35 36/36/36
f 37/37/37 38/38/38 39/39/39
f 40/40/40 41/41/41 42/42/42
f 43/43/43 44/44/44 45/45/45
f 46/46/46 47/47/47 48/48/48
f 49/49/49 50/50/50 51/51/51
f 52/52/52 53/53/53 54/54/54
f 55/55/55 56/56/56 57/57/57
f 58/58/58 59/59/59 60/60/60
f 61/61/61 62/62/62 63/63/63
f 64/64/64 65/65/65 66/66/66
f 67/67/67 68/68/68 69/69/69
f 70/70/70 71/71/71 72/72/72
f 73/73/73 74/74/74 75/75/75
f 76/76/76 77/77/77 78/78/78
f 79/79/79 80/80/80 81/81/81
f 82/82/82 83/83/83 84/84/84
f 85/85/85 86/86/86 87/87/87
f 88/88/88 89/89/89 90/90/90
f 91/91/91 92/92/92 93/93/93
f 94/94/94 95/95/95 96/96/96
f 97/97/97 98/98/98 99/99/99
f 100/100/100 101/101/101 102/102/102
f 103/103/103 104/104/104 105/105/105
f 106/106/106 107/107/107 108/108/108
f 109/109/109 110/110/110 111/111/111
f 112/112/112 113/113/113 114/114/114
f 115/115/115 116/116/116 117/117/117
f 118/118/118 119/119/119 120/120/120
f 121/121/121 122/122/122 123/123/123
f 124/124/124 125/125/125 126/126/126
f 127/127/127 128/128/128 129/129/129
f 130/130/130 131/131/131 132/132/132
f 133/133/133 134/134/134 135/135/135
f 136/136/136 137/137/137 138/138/138
f 139/139/139 140/140/140 141/141/141
f 142/142/142 143/143/143 144/144/144
f 145/145/145 146/146/146 147/147/147
f 148/148/148 149/149/149 150/150/150
f 151/151/151 152/152/152 153/153/153
f 154/154/154 155/155/155 156/156/156
f 157/157/157 158/158/158 159/159/159
f 160/160/160 161/161/161 162/162/162
f 163/163/163 164/164/164 165/165/165
f 166/166/166 167/167/167 168/168/168
f 169/169/169 170/170/170 171/171/171
f 172/172/172 173/173/173 174/174/174
f 175/175/175 176/176/176 177/177/177
f 178/178/178 179/179/179 180/180/180
f 181/181/181 182/182/182 183/183/183
f 184/184/184 185/185/185 186/186/186
f 187/187/187 188/188/188 189/189/189
f 190/190/190 191/191/191 192/192/192
f 193/193/193 194/194/194 195/195/195
f 196/196/196 197/197/197 198/198/198
f 199/199/199 200/200/200 201/201/201
f 202/202/202 203/203/203 204/204/204
f 205/205/205 206/206/206 207/207/207
f 208/208/208 209/209/209 210/210/210
f 211/211/211 212/212/212 213/213/213
f 214/214/214 215/215/215 216/216/216
f 217/217/217 218/218/218 219/219/219
f 220/220/220 221/221/221 222/222/222
f 223/223/223 224/224/224 225/225/225
f 226/226/226 227/227/227 228/228/228
f 229/229/229 230/230/230 231/231/231
f 232/232/232 233/233/233 234/234/234
f 235/235/235 236/236/236 237/237/237
f 238/238/238 239/239/239 240/240/240
f 241/241/241 242/242/242 243/243/243
f 244/244/244 245/245/245 246/246/246
f 247/247/247 248/248/248 249/249/249
f 250/250/250 251/251/251 252/252/252
f 253/253/253 254/254/254 255/255/255
f 256/256/256 257/257/257 258/258/258
f 259/259/259 260/260/260 261/261/261
f 262/262/262 263/263/263 264/264/264
f 265/265/265 266/266/266 267/267/267
f 268/268/268 269/269/269 270/270/270
f 271/271/271 272/272/272 273/273/273
f 274/274/274 275/275/275 276/276/276
f 277/277/277 278/278/278 279/279/279
f 280/280/280 281/281/281 282/282/282
f 283/283/283 284/284/284 285/285/285
f 286/286/286 287/287/287 288/288/288
f 289/289/289 290/290/290 291/291/291
f 292/292/292 293/293/293 294/294/294
f 295/295/295 296/296/296 297/297/297
f 298/298/298 299/299/299 300/300/300
f 301/301/301 302/302/302 303/303/303
f 304/304/304 305/305/305 306/306/306
f 307/307/307 308/308/308 309/309/309
f 310/310/310 311/311/311 312/312/312
