# Generated from legacy Unity YAML Mesh assets without Unity.
mtllib gun06.mtl

o gun06
v -0.037083108 0.20835574 -0.90331316
v -0.0368591063 0.14033851 -0.786874056
v -0.0368591063 0.140338272 -0.90331316
v -0.0412038527 0.208355978 -0.688053548
v -0.0412053578 0.198020771 -0.676182866
v -0.0301776063 0.102504104 -0.66395545
v -0.031401854 0.0974219739 -0.608570337
v 0.000982141239 0.0631516874 -0.654966116
v 0.000982141239 0.0634535253 -0.621046126
v 0.0321418867 0.102504104 -0.66395545
v 0.0333661363 0.0974219739 -0.608570337
v 0.0431693904 0.198020771 -0.676182866
v -0.0296821054 0.103704304 -0.786873817
v 0.0388233848 0.14033851 -0.786874056
v 0.0431678854 0.208355978 -0.688053548
v 0.0316463858 0.103704304 -0.786873817
v 0.0390471369 0.20835574 -0.90331316
v 0.0388231389 0.140338272 -0.90331316
v 0.0456331335 0.196003988 -0.138685539
v -0.043668855 0.196003988 -0.138685539
v -0.0534071028 0.143544286 -0.138685331
v -0.0375503562 0.111755215 -0.280326873
v -0.0405726023 0.111755215 -0.191222623
v -0.0421653576 0.0680144727 -0.150492713
v 0.0553713813 0.143544286 -0.138685331
v 0.0395143889 0.111755215 -0.280326873
v 0.042536635 0.111755215 -0.191222623
v 0.0441293903 0.0680144727 -0.150492713
v -0.0375503562 0.0933578908 -0.303793073
v 0.0395143889 0.0933578908 -0.303793073
v -0.0368591063 0.14033851 -0.786874056
v 0.0388231389 0.140338272 -0.90331316
v -0.0368591063 0.140338272 -0.90331316
v 0.0388233848 0.14033851 -0.786874056
v -0.0368591063 0.140338272 -0.90331316
v 0.0390471369 0.20835574 -0.90331316
v -0.037083108 0.20835574 -0.90331316
v 0.0388231389 0.140338272 -0.90331316
v -0.0421653576 0.0680144727 -0.150492713
v 0.042536635 0.111755215 -0.191222623
v -0.0405726023 0.111755215 -0.191222623
v 0.0441293903 0.0680144727 -0.150492713
v 0.0395143889 0.111755215 -0.280326873
v -0.0375503562 0.111755215 -0.280326873
v 0.0395143889 0.0933578908 -0.303793073
v -0.0375503562 0.0933578908 -0.303793073
v 0.0333661363 0.0974219739 -0.608570337
v -0.031401854 0.0974219739 -0.608570337
v -0.0412053578 0.198020771 -0.676182866
v 0.0456331335 0.196003988 -0.138685539
v -0.043668855 0.196003988 -0.138685539
v 0.0431693904 0.198020771 -0.676182866
v -0.0412038527 0.208355978 -0.688053548
v 0.0431678854 0.208355978 -0.688053548
v -0.037083108 0.20835574 -0.90331316
v 0.0390471369 0.20835574 -0.90331316
v -0.0296821054 0.103704304 -0.786873817
v 0.0388233848 0.14033851 -0.786874056
v -0.0368591063 0.14033851 -0.786874056
v 0.0316463858 0.103704304 -0.786873817
v -0.0301776063 0.102504104 -0.66395545
v 0.0316463858 0.103704304 -0.786873817
v -0.0296821054 0.103704304 -0.786873817
v 0.0321418867 0.102504104 -0.66395545
v -0.0301776063 0.102504104 -0.66395545
v 0.000982141239 0.0631516874 -0.654966116
v 0.0321418867 0.102504104 -0.66395545
v 0.0333661363 0.0974219739 -0.608570337
v 0.000982141239 0.0634535253 -0.621046126
v -0.031401854 0.0974219739 -0.608570337
v 0.0369478874 0.192679241 -0.139726594
v 0.0369478874 0.245403603 -0.139726594
v 0.0341538861 0.245403603 -0.337428004
v 0.0328316353 0.245403603 -0.388219684
v 0.0328316353 0.264265835 -0.388219684
v 0.0328316353 0.264265835 -0.371553659
v 0.0344428867 0.245403603 -0.621625304
v 0.0278278869 0.192679241 -0.799266577
v 0.0248656366 0.245403603 -0.711182952
v 0.0248656366 0.268987477 -0.699064195
v 0.0248656366 0.245403603 -0.799266577
v -0.0351738594 0.245403603 -0.139726594
v -0.0351738594 0.192679241 -0.139726594
v -0.0323796086 0.245403603 -0.337428004
v -0.0310573559 0.245403603 -0.388219684
v -0.0310573559 0.264265835 -0.388219684
v -0.0310573559 0.264265835 -0.371553659
v -0.0326686092 0.245403603 -0.621625304
v -0.0260536056 0.192679241 -0.799266577
v -0.0230913572 0.245403603 -0.711182952
v -0.0230913572 0.268987477 -0.699064195
v -0.0230913572 0.245403603 -0.799266577
v -0.0323796086 0.245403603 -0.337428004
v 0.0369478874 0.245403603 -0.139726594
v -0.0351738594 0.245403603 -0.139726594
v 0.0341538861 0.245403603 -0.337428004
v -0.0310573559 0.264265835 -0.371553659
v 0.0328316353 0.264265835 -0.371553659
v -0.0310573559 0.264265835 -0.388219684
v 0.0328316353 0.264265835 -0.388219684
v -0.0230913572 0.268987477 -0.699064195
v 0.0344428867 0.245403603 -0.621625304
v -0.0326686092 0.245403603 -0.621625304
v 0.0248656366 0.268987477 -0.699064195
v -0.0230913572 0.245403603 -0.711182952
v 0.0248656366 0.245403603 -0.711182952
v -0.0230913572 0.245403603 -0.799266577
v 0.0248656366 0.245403603 -0.799266577
v 0.0328316353 0.245403603 -0.388219684
v -0.0310573559 0.245403603 -0.388219684
v -0.0310573559 0.245403603 -0.388219684
v 0.0328316353 0.264265835 -0.388219684
v -0.0310573559 0.264265835 -0.388219684
v 0.0328316353 0.245403603 -0.388219684
v -0.0260536056 0.192679241 -0.799266577
v 0.0248656366 0.245403603 -0.799266577
v -0.0230913572 0.245403603 -0.799266577
v 0.0278278869 0.192679241 -0.799266577
v -0.0491828546 0.169853285 0.139140099
v -0.0690403506 0.103030056 0.143053174
v -0.0491828546 0.217453793 0.103684127
v -0.0690403506 0.155214384 -0.14576818
v -0.0520080999 0.0694008768 0.0552417934
v -0.0461268537 0.0424295366 -0.0832054019
v -0.041176606 0.00993285328 0.0195975304
v -0.0403818525 0.0413950384 0.0712979734
v -0.0387438573 -0.0618709475 0.0813793838
v -0.0568843484 0.000909425318 0.173998684
v -0.0568843484 -0.0679687411 0.190933794
v -0.0437856056 -0.152424216 0.106540382
v -0.0428328551 0.0162442662 -0.0386854112
v -0.0491828546 0.242997244 -0.0846674144
v -0.0491828546 0.264098227 -0.0931590199
v -0.0491828546 0.264882147 -0.146391794
v -0.0520080999 0.0640438497 -0.159956187
v -0.0606943518 0.154310063 -0.159956187
v -0.0491828546 0.169853285 0.139140099
v 0.0690403804 0.103030056 0.143053174
v -0.0690403506 0.103030056 0.143053174
v 0.0491828844 0.169853285 0.139140099
v -0.0491828546 0.217453793 0.103684127
v 0.0491828844 0.217453793 0.103684127
v -0.0491828546 0.242997244 -0.0846674144
v 0.0491828844 0.242997244 -0.0846674144
v -0.0491828546 0.264098227 -0.0931590199
v 0.0491828844 0.264098227 -0.0931590199
v -0.0491828546 0.264882147 -0.146391794
v 0.0491828844 0.264882147 -0.146391794
v 0.0520081297 0.0694008768 0.0552417934
v -0.0520080999 0.0694008768 0.0552417934
v -0.0520080999 0.0640438497 -0.159956187
v 0.0606943816 0.154310063 -0.159956187
v -0.0606943518 0.154310063 -0.159956187
v 0.0520081297 0.0640438497 -0.159956187
v 0.0690403804 0.155214384 -0.14576818
v -0.0690403506 0.155214384 -0.14576818
v 0.0491828844 0.264882147 -0.146391794
v -0.0491828546 0.264882147 -0.146391794
v -0.0461268537 0.0424295366 -0.0832054019
v 0.0520081297 0.0640438497 -0.159956187
v -0.0520080999 0.0640438497 -0.159956187
v 0.0461268835 0.0424295366 -0.0832054019
v -0.0428328551 0.0162442662 -0.0386854112
v 0.0428328849 0.0162442662 -0.0386854112
v -0.041176606 0.00993285328 0.0195975304
v 0.0411766358 0.00993285328 0.0195975304
v -0.0387438573 -0.0618709475 0.0813793838
v 0.0387438871 -0.0618709475 0.0813793838
v -0.0437856056 -0.152424216 0.106540382
v 0.0437856354 -0.152424216 0.106540382
v -0.0520080999 0.0694008768 0.0552417934
v 0.0403816365 0.0413950384 0.0712979734
v -0.0403818525 0.0413950384 0.0712979734
v 0.0520081297 0.0694008768 0.0552417934
v 0.0568843856 0.000909425318 0.173998684
v -0.0568843484 0.000909425318 0.173998684
v 0.0568843856 -0.0679687411 0.190933794
v -0.0568843484 -0.0679687411 0.190933794
v 0.0437856354 -0.152424216 0.106540382
v -0.0437856056 -0.152424216 0.106540382
v 0.0690403804 0.103030056 0.143053174
v 0.0491828844 0.169853285 0.139140099
v 0.0491828844 0.217453793 0.103684127
v 0.0690403804 0.155214384 -0.14576818
v 0.0520081297 0.0694008768 0.0552417934
v 0.0461268835 0.0424295366 -0.0832054019
v 0.0411766358 0.00993285328 0.0195975304
v 0.0403816365 0.0413950384 0.0712979734
v 0.0387438871 -0.0618709475 0.0813793838
v 0.0568843856 0.000909425318 0.173998684
v 0.0568843856 -0.0679687411 0.190933794
v 0.0437856354 -0.152424216 0.106540382
v 0.0428328849 0.0162442662 -0.0386854112
v 0.0491828844 0.242997244 -0.0846674144
v 0.0491828844 0.264098227 -0.0931590199
v 0.0491828844 0.264882147 -0.146391794
v 0.0520081297 0.0640438497 -0.159956187
v 0.0606943816 0.154310063 -0.159956187
vt 0.00896599982 0.909089983
vt 0.111537002 0.852304995
vt 0.00953000039 0.850907981
vt 0.197567999 0.909313977
vt 0.208055004 0.904103994
vt 0.216300994 0.816366971
vt 0.268121988 0.804207981
vt 0.226120993 0.776682019
vt 0.257532001 0.776602983
vt 0.216300994 0.816366971
vt 0.268121988 0.804207981
vt 0.208055004 0.904103994
vt 0.111851998 0.815889001
vt 0.111537002 0.852304995
vt 0.197567999 0.909313977
vt 0.111851998 0.815887988
vt 0.00896599982 0.909089983
vt 0.00953000039 0.850907981
vt 0.659866989 0.908870995
vt 0.659866989 0.908870995
vt 0.660650015 0.858587027
vt 0.542926013 0.825693011
vt 0.62114203 0.828616023
vt 0.651453972 0.786364019
vt 0.660650015 0.858587027
vt 0.542209029 0.82555902
vt 0.62114203 0.828616023
vt 0.651453972 0.786364019
vt 0.523400009 0.803453982
vt 0.523428023 0.803222001
vt 0.340799004 0.58118701
vt 0.239528 0.508942008
vt 0.239161 0.580368996
vt 0.341167003 0.509760022
vt 0.640466988 0.676464021
vt 0.696681023 0.754719973
vt 0.696681023 0.676234007
vt 0.640466988 0.754489005
vt 0.894059002 0.588567972
vt 0.859803975 0.510752022
vt 0.859412014 0.586833
vt 0.894465029 0.509571016
vt 0.783977985 0.512911022
vt 0.78361398 0.583458006
vt 0.764011979 0.512750983
vt 0.763648987 0.583298981
vt 0.504670978 0.516304016
vt 0.504365981 0.575595021
vt 0.819002986 0.595830023
vt 0.86164099 0.675936997
vt 0.862263024 0.594083011
vt 0.818415999 0.67316699
vt 0.806357026 0.597689986
vt 0.805769026 0.673016012
vt 0.617807984 0.598272979
vt 0.61727798 0.667048991
vt 0.372750998 0.574635029
vt 0.341167003 0.509760022
vt 0.340799004 0.58118701
vt 0.373048007 0.516753972
vt 0.47625199 0.575964987
vt 0.373048007 0.516753972
vt 0.372750998 0.574635029
vt 0.476554006 0.517149985
vt 0.150018007 0.562824011
vt 0.191631004 0.52067101
vt 0.233244002 0.562824011
vt 0.233244002 0.562824011
vt 0.191631004 0.52067101
vt 0.150018007 0.562824011
vt 0.660108984 0.916155994
vt 0.660224974 0.968684018
vt 0.483465999 0.969309986
vt 0.436435014 0.969470978
vt 0.436475992 0.988263011
vt 0.451907992 0.988209009
vt 0.225792006 0.970209002
vt 0.065200001 0.918242991
vt 0.142864004 0.961248994
vt 0.154137 0.993950009
vt 0.0652659982 0.961528003
vt 0.660224974 0.968684018
vt 0.660108984 0.916155994
vt 0.483465999 0.969309986
vt 0.436435014 0.969470978
vt 0.436475992 0.988263011
vt 0.451907992 0.988209009
vt 0.225792006 0.970209002
vt 0.065200001 0.918242991
vt 0.142864004 0.961248994
vt 0.154137999 0.993950009
vt 0.0652659982 0.961528003
vt 0.448264003 0.659021974
vt 0.611558974 0.58909899
vt 0.611460984 0.662118971
vt 0.448354989 0.591660976
vt 0.415006012 0.657607973
vt 0.415093005 0.592925012
vt 0.400344014 0.657576025
vt 0.400431007 0.592890978
vt 0.110257 0.651857018
vt 0.180778995 0.590766013
vt 0.180687994 0.658712029
vt 0.110330999 0.597305
vt 0.0894270018 0.65180999
vt 0.0895000026 0.597258985
vt 0.0119340001 0.651636004
vt 0.0120069999 0.597083986
vt 0.386117995 0.59285903
vt 0.386031002 0.657544017
vt 0.386031002 0.657544017
vt 0.400431007 0.592890978
vt 0.400344014 0.657576025
vt 0.386117995 0.59285903
vt 0.990212023 0.512519002
vt 0.937837005 0.579288006
vt 0.937837005 0.512519002
vt 0.990212023 0.579288006
vt 0.933705986 0.903654993
vt 0.939108014 0.832405984
vt 0.896946013 0.948917985
vt 0.661018014 0.869512022
vt 0.856803 0.789646983
vt 0.726189971 0.753687024
vt 0.828839004 0.726791024
vt 0.873667002 0.759878993
vt 0.885861993 0.654492021
vt 0.973464012 0.722624004
vt 0.991343021 0.652722001
vt 0.912680984 0.56280601
vt 0.769559026 0.729188025
vt 0.71676898 0.963591993
vt 0.711589992 0.971964002
vt 0.660652995 0.970233977
vt 0.652319014 0.772274017
vt 0.653748989 0.869617999
vt 0.272300005 0.768208981
vt 0.318659991 0.664523005
vt 0.318643004 0.786137998
vt 0.272302985 0.682458997
vt 0.229060993 0.768449008
vt 0.229067996 0.682237029
vt 0.0745880008 0.768429995
vt 0.0745939985 0.682219982
vt 0.0611589998 0.768428981
vt 0.0611650012 0.682217002
vt 0.0177929997 0.768423975
vt 0.0177989993 0.682211995
vt 0.394360989 0.679542005
vt 0.394347012 0.771153986
vt 0.126056999 0.515900016
vt 0.0781280026 0.587692976
vt 0.077944003 0.510479987
vt 0.126214996 0.582062006
vt 0.069362998 0.593021989
vt 0.0691530034 0.505191028
vt 0.0134070003 0.580513
vt 0.0132569997 0.517944992
vt 0.946826994 0.937143028
vt 0.994922996 0.993285
vt 0.946826994 0.993285
vt 0.994922996 0.937143028
vt 0.946826994 0.901663005
vt 0.994921982 0.901663005
vt 0.946826994 0.860086024
vt 0.994921982 0.860086977
vt 0.946826994 0.797954977
vt 0.994921982 0.797954977
vt 0.946828008 0.739763021
vt 0.994921982 0.738685012
vt 0.403669 0.680414975
vt 0.425193012 0.762673974
vt 0.424953014 0.690641999
vt 0.40397799 0.773185015
vt 0.504714012 0.776865005
vt 0.504375994 0.675396979
vt 0.549973011 0.776564002
vt 0.549634993 0.675096989
vt 0.631609976 0.764339983
vt 0.631349027 0.686236978
vt 0.939108014 0.832405984
vt 0.933705986 0.903654993
vt 0.896946013 0.948917985
vt 0.661018014 0.869512022
vt 0.856803 0.789646983
vt 0.726189971 0.753687024
vt 0.828839004 0.726791024
vt 0.873667002 0.759878993
vt 0.885861993 0.654492021
vt 0.973464012 0.722624004
vt 0.991343021 0.652722001
vt 0.912680984 0.56280601
vt 0.769559026 0.729188025
vt 0.71676898 0.963591993
vt 0.711589992 0.971964002
vt 0.660652995 0.970233977
vt 0.652319014 0.772274017
vt 0.653748989 0.869617999
vn -0.999621438 -0.024551225 -0.0124184174
vn -0.997640156 -0.0685822182 -0.00325552462
vn -0.999994577 -0.00329327889 6.7432576e-09
vn -0.999187053 -0.0351539123 -0.0197341055
vn -0.994810293 -0.101681926 -0.00364249343
vn -0.981437853 -0.191619366 -0.00785874455
vn -0.996222148 -0.0837788316 -0.0228590949
vn -0.446552066 -0.893722833 -0.0430203412
vn 0.476400832 -0.87823659 -0.0417461319
vn 0.97426836 -0.225281158 -0.00704006028
vn 0.996955908 -0.0744119043 -0.0232762838
vn 0.994810521 -0.101679684 -0.00364265138
vn -0.981328278 -0.192251884 -0.00583305463
vn 0.997640304 -0.0685800602 -0.0032556552
vn 0.999187176 -0.0351505064 -0.0197339692
vn 0.981328287 -0.192251836 -0.0058330542
vn 0.999621488 -0.0245488457 -0.0124191702
vn 0.999994577 -0.00329322412 -2.10481404e-06
vn 0.999656832 -0.0109391458 -0.0238023971
vn -0.999656823 -0.0109406408 -0.0238020912
vn -0.997891155 -0.0298771548 -0.0576246319
vn -0.956325429 -0.292132514 -0.0100133938
vn -0.970711594 -0.215116386 -0.106976359
vn -0.97872228 -0.119608179 -0.166723069
vn 0.997891045 -0.0298808918 -0.0576246028
vn 0.956323169 -0.292139944 -0.010012464
vn 0.970710418 -0.215120948 -0.106977854
vn 0.978721483 -0.11961081 -0.166725863
vn -0.999483571 0.0252886659 -0.0198261236
vn 0.999483613 0.0252876404 -0.0198253196
vn 0 -1 2.0475817e-06
vn 0 -1 2.0475817e-06
vn 0 -1 2.0475817e-06
vn 0 -1 2.0475817e-06
vn 0 0 -1
vn 0 0 -1
vn 0 0 -1
vn 0 0 -1
vn 0 -0.68147025 -0.731845816
vn 0 -0.887948568 -0.459942759
vn 0 -0.979457582 -0.201650306
vn 0 -0.68147025 -0.731845816
vn 0 -0.996135767 0.0878267279
vn 0 -0.965313357 0.261094087
vn 0 -0.99569772 0.092660941
vn 0 -0.999825535 0.0186788749
vn 0 -0.999911106 -0.0133334152
vn 0 -0.999911106 -0.0133334152
vn 0 0.9999161 0.0129535296
vn 0 0.999992961 0.00375214622
vn 0 0.999992961 0.00375214622
vn 0 0.999183998 0.0403898252
vn 0 0.99628084 0.086165467
vn 0 0.99969935 0.024519575
vn 0 1 -1.10758622e-06
vn 0 1 -1.10758622e-06
vn 0 -6.5080863e-06 -1
vn 0 -6.5080863e-06 -1
vn 0 -6.5080863e-06 -1
vn 0 -6.5080863e-06 -1
vn 0 -0.999952334 -0.00976373136
vn 0 -0.999952334 -0.00976373136
vn 0 -0.999952334 -0.00976373136
vn 0 -0.999952334 -0.00976373136
vn 0 -0.222695216 -0.974888117
vn 0 -0.222695216 -0.974888117
vn 0 -0.222695216 -0.974888117
vn 0 -0.344758611 0.938691376
vn 0 -0.344758611 0.938691376
vn 0 -0.344758611 0.938691376
vn 0.999637252 -0.024934213 -0.0101808221
vn 0.999900152 0 -0.0141310185
vn 0.999835368 -0.00677931206 -0.0168308623
vn 0.996980573 0.0776490062 -0.000606814268
vn 0.999658099 0.0173130147 -0.019594481
vn 0.997551983 0.0699288335 2.36533898e-16
vn 0.99977748 -0.00290531152 -0.0208937737
vn 0.999267663 -0.0310818048 -0.0223172196
vn 0.989753614 0.128126717 -0.0630184706
vn 0.992849558 0.0545587635 -0.106174836
vn 0.998425422 0.056095245 0
vn -0.999900134 0 -0.0141322806
vn -0.999637295 -0.0249323203 -0.010181263
vn -0.999835358 -0.00677845364 -0.0168317867
vn -0.996980227 0.0776534484 -0.000606816255
vn -0.999658099 0.017313039 -0.0195945086
vn -0.997551976 0.0699289315 2.32919098e-16
vn -0.99977748 -0.00290342528 -0.0208940221
vn -0.999267686 -0.0310808462 -0.0223175247
vn -0.989753615 0.128126705 -0.0630184829
vn -0.992849556 0.054558774 -0.106174856
vn -0.998425424 0.0560952098 0
vn 0 0.999107426 0.0422415872
vn 0 1 2.80782779e-16
vn 0 1 2.80782779e-16
vn 0 0.990377042 0.138395504
vn 0 0.913275293 0.407342902
vn 0 0.963060058 0.269286697
vn 0 1 3.33079732e-15
vn 0 1 3.33079732e-15
vn 0 0.986381173 0.164475477
vn 0 0.993958052 0.109760608
vn 0 0.999022674 0.0442006374
vn 0 0.974138499 -0.225951732
vn 0 0.922003 -0.387182733
vn 0 0.992246632 -0.124284434
vn 0 1 0
vn 0 1 0
vn 0 1 2.37831254e-16
vn 0 1 2.37831254e-16
vn 0 0 -1
vn 0 0 -1
vn 0 0 -1
vn 0 0 -1
vn 0 0 -1
vn 0 0 -1
vn 0 0 -1
vn 0 0 -1
vn -0.879939407 0.283797974 0.381005707
vn -0.999223366 0.0319953676 0.0229991699
vn -0.979744896 0.194520686 0.0475567139
vn -0.999960415 0.00749069087 0.00480185993
vn -0.969299433 -0.245465154 -0.0143341517
vn -0.982171566 -0.187968743 0.00260112707
vn -0.991393086 -0.127454929 0.0299163944
vn -0.995989359 -0.0559108906 -0.0698510522
vn -0.99069916 -0.018654383 -0.134785711
vn -0.985026725 -0.0358386517 -0.168635529
vn -0.986385328 -0.0121106862 -0.164004012
vn -0.986607003 0.0096884947 -0.162827376
vn -0.995358911 -0.0945243442 0.0180495386
vn -0.980663385 0.190428748 0.0451244625
vn -0.986628042 0.15361803 0.054466578
vn -0.983993293 0.178186175 0.00262401801
vn -0.982650318 -0.173290141 -0.0660975058
vn -0.861265486 -0.0828789506 -0.501351017
vn 0 0.210615232 0.977569038
vn 0 -0.480462804 0.877015105
vn 0 -0.766343124 0.642431487
vn 0 0.419264177 0.907864279
vn 0 0.906511355 0.422181434
vn 0 0.972510728 0.232858077
vn 0 0.982888876 0.184199502
vn 0 0.949649362 0.31331468
vn 0 0.852870194 0.522123005
vn 0 0.981106583 0.193468013
vn 0 0.999891586 0.014724675
vn 0 0.999891586 0.014724675
vn 0 -0.933859279 0.357640668
vn 0 -0.933859279 0.357640668
vn 0 0 -1
vn 0 0.0838958409 -0.996474529
vn 0 0.312459778 -0.949930991
vn 0 0 -1
vn 0 0.22765761 -0.973741245
vn 0 0.0693627436 -0.997591504
vn 0 -0.00568629738 -0.999983833
vn 0 -0.00568629738 -0.999983833
vn 0 -0.94465337 -0.32807013
vn 0 -0.962558855 -0.271072777
vn 0 -0.962558855 -0.271072777
vn 0 -0.914138534 -0.405401949
vn 0 -0.927631842 -0.373495871
vn 0 -0.971767014 -0.235942515
vn 0 -0.90549535 -0.424356185
vn 0 -0.774213546 -0.63292447
vn 0 -0.538691933 -0.84250282
vn 0 -0.399581335 -0.916697746
vn 0 -0.267716094 -0.963497843
vn 0 -0.267716094 -0.963497843
vn 0 0.49737244 0.867537121
vn 0 0.800045106 0.599939854
vn 0 0.902753658 0.430157916
vn 0 0.49737244 0.867537121
vn 0 0.812586069 0.582841213
vn 0 0.608203691 0.793780997
vn 0 -0.221706676 0.975113403
vn 0 -0.518560139 0.855041158
vn 0 -0.706846824 0.707366643
vn 0 -0.706846824 0.707366643
vn 0.999223366 0.0319953676 0.0229991699
vn 0.879939407 0.283797974 0.381005707
vn 0.979744896 0.194520686 0.0475567139
vn 0.999960415 0.00749069087 0.00480185993
vn 0.969299388 -0.24546535 -0.0143338039
vn 0.982171566 -0.187968743 0.00260112707
vn 0.991393077 -0.127454533 0.0299183784
vn 0.995989512 -0.0559092702 -0.069850164
vn 0.990699182 -0.0186532576 -0.134785706
vn 0.985026615 -0.0358373873 -0.168636444
vn 0.986385317 -0.012110704 -0.164004078
vn 0.986606992 0.00968847566 -0.162827442
vn 0.995358911 -0.0945243442 0.0180495386
vn 0.980663385 0.190428748 0.0451244625
vn 0.986628042 0.15361803 0.054466578
vn 0.983993293 0.178186175 0.00262401801
vn 0.982650318 -0.173290141 -0.0660975058
vn 0.861265486 -0.0828789506 -0.501351017

g gun06_submesh_0
usemtl gun0506
f 1/1/1 3/3/3 2/2/2
f 1/1/1 2/2/2 4/4/4
f 4/4/4 2/2/2 5/5/5
f 2/2/2 6/6/6 5/5/5
f 5/5/5 6/6/6 7/7/7
f 7/7/7 6/6/6 8/8/8
f 7/7/7 8/8/8 9/9/9
f 10/10/10 9/9/9 8/8/8
f 10/10/10 11/11/11 9/9/9
f 10/10/10 12/12/12 11/11/11
f 2/2/2 13/13/13 6/6/6
f 10/10/10 14/14/14 12/12/12
f 14/14/14 15/15/15 12/12/12
f 10/10/10 16/16/16 14/14/14
f 17/17/17 15/15/15 14/14/14
f 17/17/17 14/14/14 18/18/18
f 11/11/11 12/12/12 19/19/19
f 5/5/5 7/7/7 20/20/20
f 20/20/20 7/7/7 21/21/21
f 21/21/21 7/7/7 22/22/22
f 22/22/22 23/23/23 21/21/21
f 21/21/21 23/23/23 24/24/24
f 19/19/19 25/25/25 11/11/11
f 11/11/11 25/25/25 26/26/26
f 26/26/26 25/25/25 27/27/27
f 25/25/25 28/28/28 27/27/27
f 22/22/22 7/7/7 29/29/29
f 11/11/11 26/26/26 30/30/30
f 31/31/31 33/33/33 32/32/32
f 31/31/31 32/32/32 34/34/34
f 35/35/35 37/37/37 36/36/36
f 35/35/35 36/36/36 38/38/38
f 39/39/39 41/41/41 40/40/40
f 39/39/39 40/40/40 42/42/42
f 41/41/41 43/43/43 40/40/40
f 41/41/41 44/44/44 43/43/43
f 44/44/44 45/45/45 43/43/43
f 44/44/44 46/46/46 45/45/45
f 46/46/46 47/47/47 45/45/45
f 46/46/46 48/48/48 47/47/47
f 49/49/49 51/51/51 50/50/50
f 49/49/49 50/50/50 52/52/52
f 53/53/53 49/49/49 52/52/52
f 53/53/53 52/52/52 54/54/54
f 55/55/55 53/53/53 54/54/54
f 55/55/55 54/54/54 56/56/56
f 57/57/57 59/59/59 58/58/58
f 57/57/57 58/58/58 60/60/60
f 61/61/61 63/63/63 62/62/62
f 61/61/61 62/62/62 64/64/64
f 65/65/65 67/67/67 66/66/66
f 68/68/68 70/70/70 69/69/69
f 71/71/71 73/73/73 72/72/72
f 71/71/71 74/74/74 73/73/73
f 73/73/73 74/74/74 75/75/75
f 73/73/73 75/75/75 76/76/76
f 71/71/71 77/77/77 74/74/74
f 71/71/71 78/78/78 77/77/77
f 77/77/77 78/78/78 79/79/79
f 77/77/77 79/79/79 80/80/80
f 79/79/79 78/78/78 81/81/81
f 82/82/82 84/84/84 83/83/83
f 84/84/84 85/85/85 83/83/83
f 86/86/86 85/85/85 84/84/84
f 86/86/86 84/84/84 87/87/87
f 88/88/88 83/83/83 85/85/85
f 88/88/88 89/89/89 83/83/83
f 90/90/90 89/89/89 88/88/88
f 91/91/91 90/90/90 88/88/88
f 92/92/92 89/89/89 90/90/90
f 93/93/93 95/95/95 94/94/94
f 93/93/93 94/94/94 96/96/96
f 97/97/97 93/93/93 96/96/96
f 97/97/97 96/96/96 98/98/98
f 99/99/99 97/97/97 98/98/98
f 99/99/99 98/98/98 100/100/100
f 101/101/101 103/103/103 102/102/102
f 101/101/101 102/102/102 104/104/104
f 105/105/105 101/101/101 104/104/104
f 105/105/105 104/104/104 106/106/106
f 107/107/107 105/105/105 106/106/106
f 107/107/107 106/106/106 108/108/108
f 103/103/103 109/109/109 102/102/102
f 103/103/103 110/110/110 109/109/109
f 111/111/111 113/113/113 112/112/112
f 111/111/111 112/112/112 114/114/114
f 115/115/115 117/117/117 116/116/116
f 115/115/115 116/116/116 118/118/118
f 119/119/119 121/121/121 120/120/120
f 122/122/122 120/120/120 121/121/121
f 123/123/123 120/120/120 122/122/122
f 123/123/123 122/122/122 124/124/124
f 125/125/125 123/123/123 124/124/124
f 123/123/123 125/125/125 126/126/126
f 127/127/127 126/126/126 125/125/125
f 127/127/127 128/128/128 126/126/126
f 129/129/129 128/128/128 127/127/127
f 129/129/129 127/127/127 130/130/130
f 125/125/125 124/124/124 131/131/131
f 122/122/122 121/121/121 132/132/132
f 122/122/122 132/132/132 133/133/133
f 122/122/122 133/133/133 134/134/134
f 124/124/124 122/122/122 135/135/135
f 135/135/135 122/122/122 136/136/136
f 137/137/137 139/139/139 138/138/138
f 137/137/137 138/138/138 140/140/140
f 141/141/141 137/137/137 140/140/140
f 141/141/141 140/140/140 142/142/142
f 143/143/143 141/141/141 142/142/142
f 143/143/143 142/142/142 144/144/144
f 145/145/145 143/143/143 144/144/144
f 145/145/145 144/144/144 146/146/146
f 147/147/147 145/145/145 146/146/146
f 147/147/147 146/146/146 148/148/148
f 139/139/139 149/149/149 138/138/138
f 139/139/139 150/150/150 149/149/149
f 151/151/151 153/153/153 152/152/152
f 151/151/151 152/152/152 154/154/154
f 153/153/153 155/155/155 152/152/152
f 153/153/153 156/156/156 155/155/155
f 156/156/156 157/157/157 155/155/155
f 156/156/156 158/158/158 157/157/157
f 159/159/159 161/161/161 160/160/160
f 159/159/159 160/160/160 162/162/162
f 163/163/163 159/159/159 162/162/162
f 163/163/163 162/162/162 164/164/164
f 165/165/165 163/163/163 164/164/164
f 165/165/165 164/164/164 166/166/166
f 167/167/167 165/165/165 166/166/166
f 167/167/167 166/166/166 168/168/168
f 169/169/169 167/167/167 168/168/168
f 169/169/169 168/168/168 170/170/170
f 171/171/171 173/173/173 172/172/172
f 171/171/171 172/172/172 174/174/174
f 173/173/173 175/175/175 172/172/172
f 173/173/173 176/176/176 175/175/175
f 176/176/176 177/177/177 175/175/175
f 176/176/176 178/178/178 177/177/177
f 178/178/178 179/179/179 177/177/177
f 178/178/178 180/180/180 179/179/179
f 181/181/181 183/183/183 182/182/182
f 183/183/183 181/181/181 184/184/184
f 184/184/184 181/181/181 185/185/185
f 184/184/184 185/185/185 186/186/186
f 186/186/186 185/185/185 187/187/187
f 188/188/188 187/187/187 185/185/185
f 188/188/188 189/189/189 187/187/187
f 188/188/188 190/190/190 189/189/189
f 189/189/189 190/190/190 191/191/191
f 189/189/189 191/191/191 192/192/192
f 186/186/186 187/187/187 193/193/193
f 183/183/183 184/184/184 194/194/194
f 195/195/195 194/194/194 184/184/184
f 196/196/196 195/195/195 184/184/184
f 197/197/197 184/184/184 186/186/186
f 198/198/198 184/184/184 197/197/197
