# Generated from legacy Unity YAML Mesh assets without Unity.
mtllib gun03.mtl

o gun03
v -0.012673486 0.241041541 -0.401726663
v -0.012673486 0.271021783 -0.126997933
v -0.012673486 0.241041541 -0.126997933
v -0.012673486 0.271021783 -0.401726663
v 0.0143087972 0.241041541 -0.126997933
v 0.0143087972 0.241041541 -0.401726663
v 0.0143087972 0.271021783 -0.401726663
v 0.0143087972 0.271021783 -0.126997933
v 0.0143087972 0.241041541 -0.126997933
v 0.0143087972 0.271021783 -0.401726663
v 0.0143087972 0.241041541 -0.401726663
v 0.0143087972 0.271021783 -0.126997933
v -0.0402008668 0.0273636058 -0.0629490912
v -0.0322969668 -0.101824291 -0.043325603
v -0.0402008668 0.0249105878 -0.130268484
v -0.0322969668 -0.0854714438 -0.0209766775
v -0.0402008668 0.175629795 -0.116641089
v -0.0402008668 0.0238205381 -0.159158617
v -0.0402008668 0.0314518586 -0.268450499
v -0.0402008668 0.175629795 -0.265452474
v -0.0402008668 0.0535282008 -0.294887692
v -0.0402008668 0.200704336 -0.401454061
v -0.0402008668 0.0538007915 -0.448604941
v -0.0402008668 0.200704336 -0.499844015
v -0.0402008668 0.273202211 -0.445061803
v -0.0402008668 0.273202211 -0.385918826
v -0.0402008668 0.200704336 -0.252642691
v -0.0322969668 -0.142979085 -0.250189751
v -0.0322969668 -0.112726249 -0.325958252
v -0.000136264745 0.221418053 -0.495483249
v -0.000136264745 0.293915898 -0.440428525
v -0.000136264745 0.293915898 -0.440428525
v -0.000136264745 0.293915898 -0.381285548
v -0.000136264745 0.221418053 -0.396820784
v -0.000136264745 0.221418053 -0.248009399
v -0.037475381 0.110490829 -0.787654996
v -0.0322969668 -0.000436387956 -0.636663198
v -0.0322969668 0.0230027586 -0.713794529
v -0.0402008668 0.200704336 -0.771029592
v -0.000136264745 0.221418053 -0.766668916
v -0.000136264745 0.221418053 -0.495483249
v -0.0322969668 0.0219127089 -0.450785369
v -0.0402008668 0.175629795 0.215322733
v -0.0402008668 0.267478704 -0.137082189
v -0.0402008668 0.267478704 0.24721089
v -0.0402008668 0.0300890543 0.0106389821
v -0.0402008668 0.0535282008 0.121566117
v -0.0322969668 -0.0688459948 0.19515419
v -0.0322969668 -0.16096735 0.0973093212
v -0.0402008668 0.0927751735 0.178801268
v -0.0322969668 -0.147884965 0.152909189
v -0.000136264745 0.196343511 -0.130541086
v -0.000136264745 0.288192421 -0.150982186
v -0.000136264745 0.288192421 0.251571685
v -0.000136264745 0.288192421 -0.150982186
v -0.000136264745 0.196343511 -0.130541086
v -0.000136264745 0.196343511 -0.260819197
v 0.0402008891 0.267478704 -0.137082189
v -0.000136264745 0.196343511 -0.130541086
v 0.0402008891 0.175629795 -0.116641089
v 0.0402008891 0.175629795 0.215322733
v 0.0402008891 0.267478704 0.24721089
v 0.0402008891 0.0300890543 0.0106389821
v 0.0402008891 0.0273636058 -0.0629490912
v 0.0402008891 0.0249105878 -0.130268484
v 0.0320244357 -0.101824291 -0.043325603
v 0.0320244357 -0.0854714438 -0.0209766775
v 0.0402008891 0.0238205381 -0.159158617
v 0.0402008891 0.0314518586 -0.268450499
v 0.0402008891 0.175629795 -0.265452474
v 0.0402008891 0.0535282008 -0.294887692
v 0.0402008891 0.200704336 -0.401454061
v 0.0402008891 0.0538007915 -0.448604941
v 0.0402008891 0.200704336 -0.499844015
v 0.0372028574 0.110490829 -0.787654996
v 0.0402008891 0.200704336 -0.771029592
v 0.0402008891 0.273202211 -0.445061803
v 0.0402008891 0.273202211 -0.385918826
v 0.0402008891 0.200704336 -0.252642691
v 0.0320244357 -0.142979085 -0.250189751
v 0.0320244357 -0.112726249 -0.325958252
v -0.000136264745 0.221418053 -0.495483249
v -0.000136264745 0.293915898 -0.440428525
v -0.000136264745 0.293915898 -0.440428525
v -0.000136264745 0.293915898 -0.381285548
v -0.000136264745 0.221418053 -0.396820784
v -0.000136264745 0.221418053 -0.248009399
v -0.000136264745 0.221418053 -0.766668916
v -0.000136264745 0.221418053 -0.495483249
v 0.0320244357 -0.000436387956 -0.636663198
v 0.0320244357 0.0219127089 -0.450785369
v 0.0320244357 0.0230027586 -0.713794529
v -0.000136264745 0.221418053 -0.396820784
v -0.0402008668 0.273202211 -0.385918826
v -0.000136264745 0.293915898 -0.381285548
v -0.000136264745 0.196343511 -0.260819197
v -0.0402008668 0.200704336 -0.252642691
v -0.000136264745 0.221418053 -0.248009399
v -0.0402008668 0.175629795 -0.265452474
v 0.0320244357 -0.101824291 -0.043325603
v -0.0402008668 0.0249105878 -0.130268484
v -0.0322969668 -0.101824291 -0.043325603
v 0.0402008891 0.0249105878 -0.130268484
v -0.0402008668 0.0238205381 -0.159158617
v 0.0402008891 0.0238205381 -0.159158617
v 0.0320244357 -0.0854714438 -0.0209766775
v -0.0322969668 -0.101824291 -0.043325603
v -0.0322969668 -0.0854714438 -0.0209766775
v 0.0320244357 -0.101824291 -0.043325603
v 0.0402008891 0.0273636058 -0.0629490912
v -0.0402008668 0.0273636058 -0.0629490912
v -0.0402008668 0.267478704 0.24721089
v -0.000136264745 0.288192421 0.251571685
v 0.0402008891 0.267478704 0.24721089
v -0.0402008668 0.175629795 0.215322733
v 0.0402008891 0.175629795 0.215322733
v -0.0402008668 0.0927751735 0.178801268
v 0.0402008891 0.0927751735 0.178801268
v -0.0402008668 0.0535282008 0.121566117
v 0.0402008891 0.0535282008 0.121566117
v 0.0320244357 0.0230027586 -0.713794529
v -0.037475381 0.110490829 -0.787654996
v -0.0322969668 0.0230027586 -0.713794529
v 0.0372028574 0.110490829 -0.787654996
v 0.0320244357 -0.000436387956 -0.636663198
v -0.0322969668 -0.000436387956 -0.636663198
v 0.0320244357 0.0219127089 -0.450785369
v -0.0322969668 0.0219127089 -0.450785369
v 0.0402008891 0.0538007915 -0.448604941
v -0.0402008668 0.0538007915 -0.448604941
v 0.0402008891 0.200704336 -0.771029592
v -0.0402008668 0.200704336 -0.771029592
v -0.000136264745 0.221418053 -0.766668916
v 0.0402008891 0.0314518586 -0.268450499
v -0.0402008668 0.0535282008 -0.294887692
v -0.0402008668 0.0314518586 -0.268450499
v 0.0402008891 0.0535282008 -0.294887692
v -0.0402008668 0.0538007915 -0.448604941
v 0.0402008891 0.0538007915 -0.448604941
v 0.0320244357 -0.112726249 -0.325958252
v -0.0322969668 -0.112726249 -0.325958252
v 0.0320244357 -0.142979085 -0.250189751
v -0.0322969668 -0.112726249 -0.325958252
v -0.0322969668 -0.142979085 -0.250189751
v 0.0320244357 -0.112726249 -0.325958252
v 0.0402008891 0.0238205381 -0.159158617
v -0.0402008668 0.0238205381 -0.159158617
v 0.0402008891 0.0300890543 0.0106389821
v -0.0402008668 0.0273636058 -0.0629490912
v -0.0402008668 0.0300890543 0.0106389821
v 0.0402008891 0.0273636058 -0.0629490912
v 0.0320244357 -0.16096735 0.0973093212
v -0.0402008668 0.0300890543 0.0106389821
v -0.0322969668 -0.16096735 0.0973093212
v 0.0402008891 0.0300890543 0.0106389821
v 0.0320244357 -0.147884965 0.152909189
v -0.0322969668 -0.147884965 0.152909189
v 0.0320244357 -0.0688459948 0.19515419
v -0.0322969668 -0.0688459948 0.19515419
v 0.0402008891 0.0535282008 0.121566117
v -0.0402008668 0.0535282008 0.121566117
v 0.0320244357 -0.0688459948 0.19515419
v 0.0320244357 -0.16096735 0.0973093212
v 0.0402008891 0.0535282008 0.121566117
v 0.0402008891 0.0927751735 0.178801268
v 0.0320244357 -0.147884965 0.152909189
v -0.000136264745 0.221418053 -0.396820784
v 0.0402008891 0.273202211 -0.385918826
v -0.000136264745 0.293915898 -0.381285548
v -0.000136264745 0.196343511 -0.260819197
v 0.0402008891 0.200704336 -0.252642691
v 0.0402008891 0.175629795 -0.265452474
v -0.000136264745 0.221418053 -0.248009399
v -0.000136264745 0.196343511 -0.130541086
v -0.000136264745 0.196343511 -0.260819197
v -0.000136264745 0.288192421 0.251571685
vt 0.559000015 0.94569999
vt 0.369399995 0.972000003
vt 0.369399995 0.94569999
vt 0.559000015 0.972000003
vt 0.369399995 0.921999991
vt 0.559000015 0.921999991
vt 0.559000015 0.995700002
vt 0.369399995 0.995700002
vt 0.369399995 0.944999993
vt 0.559000015 0.971300006
vt 0.559000015 0.944999993
vt 0.369399995 0.971300006
vt 0.644999981 0.735899985
vt 0.662400007 0.622600019
vt 0.585699975 0.733099997
vt 0.684199989 0.633899987
vt 0.596300006 0.869499981
vt 0.560400009 0.731899977
vt 0.464100003 0.737900019
vt 0.46540001 0.868300021
vt 0.440699995 0.757499993
vt 0.345499992 0.889699996
vt 0.305400014 0.756600022
vt 0.2588 0.888899982
vt 0.306499988 0.954900026
vt 0.358399987 0.95539999
vt 0.476399988 0.890999973
vt 0.481999993 0.581700027
vt 0.414999992 0.608500004
vt 0.262800008 0.914399981
vt 0.310400009 0.980400026
vt 0.310400009 0.980400026
vt 0.362399995 0.98089999
vt 0.357600003 0.915300012
vt 0.480399996 0.916499972
vt 0.00650000013 0.805400014
vt 0.140599996 0.707199991
vt 0.0724000037 0.727900028
vt 0.0201999992 0.886600018
vt 0.0241999999 0.912100017
vt 0.262800008 0.914399981
vt 0.303799987 0.728999972
vt 0.888300002 0.872399986
vt 0.577400029 0.952400029
vt 0.915499985 0.955600023
vt 0.709800005 0.739000022
vt 0.807099998 0.761099994
vt 0.873099983 0.65259999
vt 0.787899971 0.573800027
vt 0.85710001 0.797200024
vt 0.836700022 0.580900013
vt 0.583999991 0.894900024
vt 0.565100014 0.977699995
vt 0.919499993 0.98119998
vt 0.565100014 0.977699995
vt 0.583999991 0.894900024
vt 0.481700003 0.893899977
vt 0.577400029 0.952400029
vt 0.583999991 0.894900024
vt 0.596300006 0.869499981
vt 0.888300002 0.872399986
vt 0.915499985 0.955600023
vt 0.709800005 0.739000022
vt 0.644999981 0.735899985
vt 0.585699975 0.733099997
vt 0.662400007 0.622600019
vt 0.684199989 0.633899987
vt 0.560400009 0.731899977
vt 0.464100003 0.737900019
vt 0.46540001 0.868300021
vt 0.440699995 0.757499993
vt 0.345499992 0.889699996
vt 0.305400014 0.756600022
vt 0.2588 0.888899982
vt 0.00650000013 0.805400014
vt 0.0201999992 0.886600018
vt 0.306499988 0.954900026
vt 0.358399987 0.95539999
vt 0.476399988 0.890999973
vt 0.481999993 0.581700027
vt 0.414999992 0.608500004
vt 0.262800008 0.914399981
vt 0.310400009 0.980400026
vt 0.310400009 0.980400026
vt 0.362399995 0.98089999
vt 0.357600003 0.915300012
vt 0.480399996 0.916499972
vt 0.0241999999 0.912100017
vt 0.262800008 0.914399981
vt 0.140599996 0.707199991
vt 0.303799987 0.728999972
vt 0.0724000037 0.727900028
vt 0.357600003 0.915300012
vt 0.358399987 0.95539999
vt 0.362399995 0.98089999
vt 0.481700003 0.893899977
vt 0.476399988 0.890999973
vt 0.480399996 0.916499972
vt 0.46540001 0.868300021
vt 0.71509999 0.516600013
vt 0.602999985 0.57099998
vt 0.715399981 0.564400017
vt 0.602699995 0.511099994
vt 0.58160001 0.571099997
vt 0.58130002 0.511200011
vt 0.735700011 0.516499996
vt 0.715399981 0.564400017
vt 0.735899985 0.564300001
vt 0.71509999 0.516600013
vt 0.826900005 0.50999999
vt 0.827199996 0.569800019
vt 0.0272000004 0.921899974
vt 0.00850000046 0.957799971
vt 0.0272000004 0.993700027
vt 0.113799997 0.921999991
vt 0.113799997 0.993700027
vt 0.194299996 0.921999991
vt 0.194299996 0.993700027
vt 0.256199986 0.921999991
vt 0.256199986 0.993700027
vt 0.179299995 0.626100004
vt 0.0918999985 0.691299975
vt 0.179299995 0.686399996
vt 0.0918999985 0.621200025
vt 0.240899995 0.626100004
vt 0.240899995 0.686399996
vt 0.383700013 0.626100004
vt 0.383700013 0.686399996
vt 0.408300012 0.618499994
vt 0.408300012 0.694000006
vt 0.0218000002 0.618499994
vt 0.0218000002 0.694000006
vt 0.0057000001 0.656300008
vt 0.179499999 0.508599997
vt 0.148599997 0.57980001
vt 0.179000005 0.579999983
vt 0.149100006 0.508400023
vt 0.0122999996 0.578800023
vt 0.0127999997 0.507399976
vt 0.317099988 0.516799986
vt 0.316700011 0.573800027
vt 0.389499992 0.51730001
vt 0.316700011 0.573800027
vt 0.389099985 0.574400008
vt 0.317099988 0.516799986
vt 0.558000028 0.511399984
vt 0.557500005 0.582799971
vt 0.881699979 0.5097
vt 0.827199996 0.569800019
vt 0.882000029 0.569500029
vt 0.826900005 0.50999999
vt 0.99000001 0.699500024
vt 0.920599997 0.50849998
vt 0.927900016 0.699599981
vt 0.994000018 0.508400023
vt 0.990100026 0.751600027
vt 0.927999973 0.751699984
vt 0.990199983 0.833199978
vt 0.92809999 0.833299994
vt 0.994799972 0.96329999
vt 0.921400011 0.963400006
vt 0.873099983 0.65259999
vt 0.787899971 0.573800027
vt 0.807099998 0.761099994
vt 0.85710001 0.797200024
vt 0.836700022 0.580900013
vt 0.357600003 0.915300012
vt 0.358399987 0.95539999
vt 0.362399995 0.98089999
vt 0.481700003 0.893899977
vt 0.476399988 0.890999973
vt 0.46540001 0.868300021
vt 0.480399996 0.916499972
vt 0.583999991 0.894900024
vt 0.481700003 0.893899977
vt 0.919499993 0.98119998
vn -0.743293343 -0.668965625 -1.35169889e-16
vn -0.743293343 0.668965625 1.35169889e-16
vn -0.743293343 -0.668965625 -1.35169889e-16
vn -0.743293343 0.668965625 1.35169889e-16
vn 0 -1 -2.02058049e-16
vn 0 -1 -2.02058049e-16
vn 0 1 2.02058049e-16
vn 0 1 2.02058049e-16
vn 1 0 0
vn 1 0 0
vn 1 0 0
vn 1 0 0
vn -0.999761103 -0.0213918156 0.00448644076
vn -0.998169916 -0.059184019 0.0124124853
vn -0.999736693 -0.0229313326 0.000835583456
vn -0.997680607 -0.0549338813 0.0401954612
vn -0.999071126 0.0350449356 -0.0250746435
vn -0.999767849 -0.0214940872 -0.00150082757
vn -0.999795628 -0.0198056218 -0.00405445661
vn -0.97780962 0.209495456 4.11477206e-17
vn -1 0 0
vn -0.99651719 0.073251339 0.0398463415
vn -0.99947218 -0.0317470436 -0.00689099539
vn -0.976291846 0.214266301 -0.0307275775
vn -0.847925291 0.402310544 -0.345208526
vn -0.817942961 0.575299324 0
vn -0.638639482 0.769506083 1.41729609e-16
vn -0.998884872 -0.0462532034 -0.00946860483
vn -0.998706126 -0.0472279706 -0.0188571777
vn -0.217386471 0.589388483 -0.778051629
vn -0.215398509 0.590582917 -0.777698721
vn -0.459258783 0.888302522 0
vn -0.459258783 0.888302522 0
vn -0.459259304 0.888302252 1.63609793e-16
vn -0.459259304 0.888302252 1.65681815e-16
vn -0.999410392 -0.0326593076 -0.010594228
vn -0.994844655 -0.100512803 -0.0134643409
vn -0.996555896 -0.0793411695 -0.024110686
vn -0.947747795 0.31902056 6.69661344e-17
vn -0.459259304 0.888302252 1.83991799e-16
vn -0.459259304 0.888302252 1.81833654e-16
vn -0.969749126 -0.242358186 0.0291400355
vn -1 0 0
vn -0.93867443 0.334802652 -0.0824469482
vn -0.942102795 0.335324207 9.68134374e-17
vn -0.999859988 -0.0146401684 0.00810369772
vn -0.999552837 -0.0292559455 0.00618184537
vn -0.999153905 -0.0359829205 0.0199174424
vn -0.999394928 -0.0253240141 0.0238426657
vn -1 0 0
vn -1 0 0
vn -0.220757166 -0.211877121 -0.952036953
vn 0.426980802 0.879558208 -0.209916062
vn -0.459259304 0.888302252 2.50594929e-16
vn -0.429332258 0.877789364 -0.212507989
vn -0.459259304 0.888302252 1.7447449e-16
vn -0.459259304 0.888302252 1.89251596e-16
vn 0.937913585 0.336807029 -0.0829405369
vn 0.219337537 -0.211946687 -0.95234954
vn 0.999058463 0.0352828924 -0.0252449016
vn 1 0 0
vn 0.941380538 0.337346531 9.6739216e-17
vn 0.999850168 -0.0151448626 0.0083830585
vn 0.999744349 -0.0221291074 0.00464107076
vn 0.999718229 -0.023721645 0.000864381256
vn 0.998041902 -0.0612170337 0.0128388633
vn 0.997518493 -0.0568189547 0.0415747811
vn 0.999751568 -0.0222349145 -0.00155255593
vn 0.999781295 -0.0204882934 -0.00419420797
vn 0.97751682 0.210857455 4.12770893e-17
vn 1 0 0
vn 0.996469895 0.0737461537 0.0401155046
vn 0.999439706 -0.0326353306 -0.00743034014
vn 0.976129189 0.21492667 -0.0312783229
vn 0.999362452 -0.0338807616 -0.0112597876
vn 0.94774778 0.319020605 6.53028868e-17
vn 0.846303427 0.404272634 -0.346892126
vn 0.81610132 0.577908847 0
vn 0.636073702 0.771628308 1.41646424e-16
vn 0.998806779 -0.0478444307 -0.00979434882
vn 0.998615541 -0.0488521207 -0.0195056681
vn 0.215986369 0.589576133 -0.778299346
vn 0.21400997 0.590767522 -0.777941815
vn 0.456804918 0.889566899 0
vn 0.456804918 0.889566899 0
vn 0.456805438 0.889566632 1.63296151e-16
vn 0.456805438 0.889566632 1.60674644e-16
vn 0.456805438 0.889566632 1.83623898e-16
vn 0.456805438 0.889566632 1.85155266e-16
vn 0.994605249 -0.102774767 -0.014062214
vn 0.967728512 -0.250193119 0.030082072
vn 0.996555886 -0.0793412829 -0.0241107205
vn -0.00475009131 -0.209526464 0.977791439
vn -0.00475009131 -0.209526464 0.977791439
vn -0.00475014693 -0.209526505 0.97779143
vn 0.131081778 -0.451014252 0.88283844
vn 0.131081778 -0.451014252 0.88283844
vn 0.131081735 -0.451014463 0.882838339
vn 0.131081822 -0.451014042 0.882838541
vn 0 -0.565700785 -0.824610588
vn 0 -0.632488018 -0.774570143
vn 0 -0.565700785 -0.824610588
vn 0 -0.757944688 -0.652318826
vn 0 -0.99928895 0.0377040378
vn 0 -0.99928895 0.0377040378
vn 0 -0.0187230013 0.999824709
vn 0 -0.807030757 0.590509405
vn 0 0.257753502 0.966210708
vn 0 -0.807030757 0.590509405
vn 0 0.348640894 0.937256383
vn 0 0.348640894 0.937256383
vn 0 -0.306531142 0.95186063
vn 0 -0.206011049 0.978549665
vn 0 -0.316227476 0.948683395
vn 0 -0.352171755 0.93593539
vn 0 -0.377296848 0.926092376
vn 0 -0.536439899 0.843938525
vn 0 -0.683284509 0.730152231
vn 0 -0.824728774 0.565528469
vn 0 -0.824728774 0.565528469
vn 0 -0.744181589 -0.667977367
vn 0 -0.282058429 -0.959397229
vn 0 -0.861643082 -0.507514728
vn 0 -0.306575677 -0.951846287
vn 0 -0.997409819 -0.0719281058
vn 0 -0.998880424 0.0473064411
vn 0 -0.979663799 0.20064606
vn 0 -0.896848256 0.442338338
vn 0 -0.0682182077 0.997670425
vn 0 -0.0682182077 0.997670425
vn 0 0.183889688 -0.982946887
vn 0 0.185890373 -0.982570491
vn 0 0.206005656 -0.978550801
vn 0 0.0245948388 -0.999697501
vn 0 -0.977651262 -0.210233227
vn 0 0.264002294 -0.964522052
vn 0 -0.997712493 -0.0676001507
vn 0 -0.999998428 -0.00177332238
vn 0 -0.999998428 -0.00177332238
vn 0 0.370482525 -0.928839437
vn 0 0.370482525 -0.928839437
vn 0 -0.915920916 0.401358786
vn 0 -0.928707131 -0.370814057
vn 0 -0.630915488 0.775851562
vn 0 -0.928707131 -0.370814057
vn 0 -0.479052968 0.877785996
vn 0 -0.479052968 0.877785996
vn 0 -0.999314852 0.0370111759
vn 0 -0.999314852 0.0370111759
vn 0 -0.999314852 0.0370111759
vn 0 -0.999314852 0.0370111759
vn 0 -0.51529898 -0.857010479
vn 0 -0.413117516 -0.910677724
vn 0 -0.768221462 -0.640184181
vn 0 -0.413117516 -0.910677724
vn 0 -0.824767728 0.565471657
vn 0 -0.633372118 0.773847375
vn 0 -0.0388433497 0.999245312
vn 0 0.328675724 0.944442835
vn 0 0.515337701 0.856987196
vn 0 0.515337701 0.856987196
vn 0.999094627 -0.0372215258 0.0206030413
vn 0.99935252 -0.0261961608 0.0246637955
vn 0.999521489 -0.030263841 0.00639481591
vn 1 0 0
vn 1 0 0
vn 0.0047179964 -0.209526496 0.977791587
vn 0.0047179964 -0.209526496 0.977791587
vn 0.00471805164 -0.209526537 0.977791578
vn -0.130211146 -0.451066447 0.882940608
vn -0.130211146 -0.451066447 0.882940608
vn -0.13021119 -0.451066236 0.88294071
vn -0.130211103 -0.451066657 0.882940507
vn 0.456805438 0.889566632 1.7414002e-16
vn 0.456805438 0.889566632 1.8952097e-16
vn 0.456805438 0.889566632 2.50104067e-16

g gun03_submesh_0
usemtl FR43C-Newlambert12
f 1/1/1 3/3/3 2/2/2
f 1/1/1 2/2/2 4/4/4
f 5/5/5 3/3/3 1/1/1
f 5/5/5 1/1/1 6/6/6
f 7/7/7 4/4/4 2/2/2
f 7/7/7 2/2/2 8/8/8
f 9/9/9 11/11/11 10/10/10
f 9/9/9 10/10/10 12/12/12
f 13/13/13 15/15/15 14/14/14
f 13/13/13 14/14/14 16/16/16
f 17/17/17 15/15/15 13/13/13
f 18/18/18 15/15/15 17/17/17
f 18/18/18 17/17/17 19/19/19
f 19/19/19 17/17/17 20/20/20
f 19/19/19 20/20/20 21/21/21
f 22/22/22 21/21/21 20/20/20
f 22/22/22 23/23/23 21/21/21
f 22/22/22 24/24/24 23/23/23
f 22/22/22 25/25/25 24/24/24
f 22/22/22 26/26/26 25/25/25
f 22/22/22 20/20/20 27/27/27
f 19/19/19 28/28/28 18/18/18
f 19/19/19 29/29/29 28/28/28
f 30/30/30 24/24/24 25/25/25
f 30/30/30 25/25/25 31/31/31
f 32/32/32 25/25/25 26/26/26
f 32/32/32 26/26/26 33/33/33
f 34/34/34 22/22/22 27/27/27
f 34/34/34 27/27/27 35/35/35
f 24/24/24 36/36/36 23/23/23
f 36/36/36 37/37/37 23/23/23
f 36/36/36 38/38/38 37/37/37
f 24/24/24 39/39/39 36/36/36
f 40/40/40 39/39/39 24/24/24
f 40/40/40 24/24/24 41/41/41
f 23/23/23 37/37/37 42/42/42
f 43/43/43 45/45/45 44/44/44
f 43/43/43 44/44/44 17/17/17
f 17/17/17 46/46/46 43/43/43
f 17/17/17 13/13/13 46/46/46
f 43/43/43 46/46/46 47/47/47
f 46/46/46 48/48/48 47/47/47
f 46/46/46 49/49/49 48/48/48
f 43/43/43 47/47/47 50/50/50
f 48/48/48 49/49/49 51/51/51
f 52/52/52 17/17/17 44/44/44
f 52/52/52 44/44/44 53/53/53
f 54/54/54 44/44/44 45/45/45
f 54/54/54 55/55/55 44/44/44
f 56/56/56 20/20/20 17/17/17
f 56/56/56 57/57/57 20/20/20
f 58/58/58 59/59/59 55/55/55
f 58/58/58 60/60/60 59/59/59
f 58/58/58 61/61/61 60/60/60
f 58/58/58 62/62/62 61/61/61
f 60/60/60 61/61/61 63/63/63
f 60/60/60 63/63/63 64/64/64
f 60/60/60 64/64/64 65/65/65
f 64/64/64 66/66/66 65/65/65
f 64/64/64 67/67/67 66/66/66
f 68/68/68 60/60/60 65/65/65
f 68/68/68 69/69/69 60/60/60
f 69/69/69 70/70/70 60/60/60
f 69/69/69 71/71/71 70/70/70
f 72/72/72 70/70/70 71/71/71
f 72/72/72 71/71/71 73/73/73
f 72/72/72 73/73/73 74/74/74
f 74/74/74 73/73/73 75/75/75
f 74/74/74 75/75/75 76/76/76
f 72/72/72 74/74/74 77/77/77
f 72/72/72 77/77/77 78/78/78
f 72/72/72 79/79/79 70/70/70
f 80/80/80 69/69/69 68/68/68
f 80/80/80 81/81/81 69/69/69
f 77/77/77 74/74/74 82/82/82
f 77/77/77 82/82/82 83/83/83
f 78/78/78 77/77/77 84/84/84
f 78/78/78 84/84/84 85/85/85
f 79/79/79 72/72/72 86/86/86
f 79/79/79 86/86/86 87/87/87
f 74/74/74 76/76/76 88/88/88
f 74/74/74 88/88/88 89/89/89
f 75/75/75 73/73/73 90/90/90
f 90/90/90 73/73/73 91/91/91
f 75/75/75 90/90/90 92/92/92
f 93/93/93 95/95/95 94/94/94
f 93/93/93 94/94/94 22/22/22
f 96/96/96 98/98/98 97/97/97
f 96/96/96 97/97/97 99/99/99
f 100/100/100 102/102/102 101/101/101
f 100/100/100 101/101/101 103/103/103
f 103/103/103 101/101/101 104/104/104
f 103/103/103 104/104/104 105/105/105
f 106/106/106 108/108/108 107/107/107
f 106/106/106 107/107/107 109/109/109
f 110/110/110 108/108/108 106/106/106
f 110/110/110 111/111/111 108/108/108
f 112/112/112 114/114/114 113/113/113
f 114/114/114 112/112/112 115/115/115
f 114/114/114 115/115/115 116/116/116
f 116/116/116 115/115/115 117/117/117
f 116/116/116 117/117/117 118/118/118
f 118/118/118 117/117/117 119/119/119
f 118/118/118 119/119/119 120/120/120
f 121/121/121 123/123/123 122/122/122
f 121/121/121 122/122/122 124/124/124
f 125/125/125 123/123/123 121/121/121
f 125/125/125 126/126/126 123/123/123
f 127/127/127 126/126/126 125/125/125
f 127/127/127 128/128/128 126/126/126
f 129/129/129 128/128/128 127/127/127
f 129/129/129 130/130/130 128/128/128
f 131/131/131 124/124/124 122/122/122
f 131/131/131 122/122/122 132/132/132
f 133/133/133 131/131/131 132/132/132
f 134/134/134 136/136/136 135/135/135
f 134/134/134 135/135/135 137/137/137
f 137/137/137 135/135/135 138/138/138
f 137/137/137 138/138/138 139/139/139
f 140/140/140 136/136/136 134/134/134
f 140/140/140 141/141/141 136/136/136
f 142/142/142 144/144/144 143/143/143
f 142/142/142 143/143/143 145/145/145
f 146/146/146 144/144/144 142/142/142
f 146/146/146 147/147/147 144/144/144
f 148/148/148 150/150/150 149/149/149
f 148/148/148 149/149/149 151/151/151
f 152/152/152 154/154/154 153/153/153
f 152/152/152 153/153/153 155/155/155
f 156/156/156 154/154/154 152/152/152
f 156/156/156 157/157/157 154/154/154
f 158/158/158 157/157/157 156/156/156
f 158/158/158 159/159/159 157/157/157
f 160/160/160 159/159/159 158/158/158
f 160/160/160 161/161/161 159/159/159
f 162/162/162 163/163/163 63/63/63
f 162/162/162 63/63/63 164/164/164
f 61/61/61 164/164/164 63/63/63
f 61/61/61 165/165/165 164/164/164
f 162/162/162 166/166/166 163/163/163
f 167/167/167 72/72/72 168/168/168
f 167/167/167 168/168/168 169/169/169
f 170/170/170 172/172/172 171/171/171
f 170/170/170 171/171/171 173/173/173
f 174/174/174 60/60/60 70/70/70
f 174/174/174 70/70/70 175/175/175
f 176/176/176 62/62/62 58/58/58
f 176/176/176 58/58/58 53/53/53
