# Generated from legacy Unity YAML Mesh assets without Unity.
mtllib gun02.mtl

o gun02
v 0.0196106229 0.217934176 -0.81477797
v 0.0196106229 0.170783281 -0.729197741
v 0.0196106229 0.217934176 -0.729197741
v 0.0196106229 0.170783281 -0.81477797
v -0.0201814305 0.170783281 -0.729197741
v -0.0201814305 0.217934176 -0.81477797
v -0.0201814305 0.217934176 -0.729197741
v -0.0201814305 0.170783281 -0.81477797
v 0.0196106229 0.170783281 -0.81477797
v 0.0196106229 0.170783281 -0.729197741
v 0.0196106229 0.217934176 -0.729197741
v 0.0196106229 0.217934176 -0.81477797
v 0.0196106229 0.217934176 -0.81477797
v -0.0201814305 0.170783281 -0.81477797
v 0.0196106229 0.170783281 -0.81477797
v -0.0201814305 0.217934176 -0.81477797
v -0.0395323597 0.0993757993 0.15494895
v -0.0395323597 0.256363362 -0.10724251
v -0.0395323597 0.256363362 0.227719337
v -0.0395323597 0.207577243 -0.121960118
v -0.0395323597 0.0721209943 0.0996216238
v -0.0395323597 0.0862932652 -0.116236627
v -0.0395323597 0.0347818546 0.0233081281
v -0.0395323597 0.03559931 -0.0666328073
v -0.0395323597 0.0862932652 -0.159026667
v -0.0395323597 0.210030258 -0.269408792
v -0.0395323597 0.0759366602 -0.26913619
v -0.0395323597 0.220932379 -0.313561618
v -0.0395323597 0.156610698 -0.738191843
v -0.0278127845 0.0759366602 -0.738464475
v -0.0395323597 0.211665496 -0.7403723
v -0.0283578802 -0.109123811 -0.246514738
v -0.0283578802 -0.0799611807 -0.349265456
v -0.0283578802 -0.115937352 -0.276767582
v -0.0283578802 -0.0262690261 0.155766606
v -0.0283578802 -0.096313864 0.0775452554
v -0.0283578802 -0.0895003378 0.117609859
v -0.000557952328 0.231561586 -0.269408792
v -0.000557952328 0.242463693 -0.313561618
v -0.000557952328 0.229108557 -0.121960118
v -0.000557952328 0.245461568 -0.757542729
v -0.000557952328 0.229108557 -0.121960118
v -0.000557952328 0.277894676 -0.10724251
v -0.000557952328 0.277894676 0.232625216
v -0.000557952328 0.277894676 0.232625216
v 0.0386890061 0.256363362 0.227719337
v -0.0395323597 0.256363362 0.227719337
v 0.0386890061 0.0993757993 0.15494895
v -0.0395323597 0.0993757993 0.15494895
v -0.0395323597 0.0721209943 0.0996216238
v 0.0386890061 0.0721209943 0.0996216238
v -0.0395323597 0.0347818546 0.0233081281
v 0.0275145248 -0.096313864 0.0775452554
v 0.0386890061 0.0347818546 0.0233081281
v -0.0283578802 -0.096313864 0.0775452554
v 0.0275145248 -0.0895003378 0.117609859
v -0.0283578802 -0.0895003378 0.117609859
v 0.0275145248 -0.0262690261 0.155766606
v -0.0283578802 -0.0262690261 0.155766606
v 0.0386890061 0.0721209943 0.0996216238
v -0.0395323597 0.0721209943 0.0996216238
v -0.0395323597 0.03559931 -0.0666328073
v 0.0386890061 0.0347818546 0.0233081281
v 0.0386890061 0.03559931 -0.0666328073
v -0.0395323597 0.0347818546 0.0233081281
v -0.0395323597 0.0862932652 -0.116236627
v 0.0386890061 0.0862932652 -0.116236627
v -0.0395323597 0.0862932652 -0.159026667
v 0.0386890061 0.0862932652 -0.159026667
v -0.0395323597 0.0759366602 -0.26913619
v 0.0275145248 -0.0799611807 -0.349265456
v 0.0386890061 0.0759366602 -0.26913619
v -0.0283578802 -0.0799611807 -0.349265456
v -0.0283578802 -0.0799611807 -0.349265456
v 0.0275145248 -0.115937352 -0.276767582
v 0.0275145248 -0.0799611807 -0.349265456
v -0.0283578802 -0.115937352 -0.276767582
v 0.0275145248 -0.109123811 -0.246514738
v -0.0283578802 -0.109123811 -0.246514738
v 0.0386890061 0.0862932652 -0.159026667
v -0.0395323597 0.0862932652 -0.159026667
v -0.0395323597 0.156610698 -0.738191843
v 0.0269694291 0.0759366602 -0.738464475
v 0.0386890061 0.156610698 -0.738191843
v -0.0278127845 0.0759366602 -0.738464475
v -0.0395323597 0.211665496 -0.7403723
v 0.0386890061 0.211665496 -0.7403723
v -0.000557952328 0.245461568 -0.757542729
v -0.0278127845 0.0759366602 -0.738464475
v 0.0386890061 0.0759366602 -0.26913619
v 0.0269694291 0.0759366602 -0.738464475
v -0.0395323597 0.0759366602 -0.26913619
v 0.0386890061 0.256363362 -0.10724251
v 0.0386890061 0.0993757993 0.15494895
v 0.0386890061 0.256363362 0.227719337
v 0.0386890061 0.207577243 -0.121960118
v 0.0386890061 0.0721209943 0.0996216238
v 0.0386890061 0.0862932652 -0.116236627
v 0.0386890061 0.0347818546 0.0233081281
v 0.0386890061 0.03559931 -0.0666328073
v 0.0386890061 0.0862932652 -0.159026667
v 0.0386890061 0.210030258 -0.269408792
v 0.0386890061 0.0759366602 -0.26913619
v 0.0386890061 0.220932379 -0.313561618
v 0.0386890061 0.156610698 -0.738191843
v 0.0269694291 0.0759366602 -0.738464475
v 0.0386890061 0.211665496 -0.7403723
v 0.0275145248 -0.109123811 -0.246514738
v 0.0275145248 -0.0799611807 -0.349265456
v 0.0275145248 -0.115937352 -0.276767582
v 0.0275145248 -0.0262690261 0.155766606
v 0.0275145248 -0.096313864 0.0775452554
v 0.0275145248 -0.0895003378 0.117609859
v -0.000557952328 0.242463693 -0.313561618
v -0.000557952328 0.245461568 -0.757542729
v -0.000557952328 0.231561586 -0.269408792
v -0.000557952328 0.229108557 -0.121960118
v -0.000557952328 0.229108557 -0.121960118
v -0.000557952328 0.277894676 -0.10724251
v -0.000557952328 0.277894676 0.232625216
vt 0.277999997 0.714399993
vt 0.379599988 0.656499982
vt 0.379599988 0.714399993
vt 0.277999997 0.656499982
vt 0.379599988 0.656499982
vt 0.277999997 0.714399993
vt 0.379599988 0.714399993
vt 0.277999997 0.656499982
vt 0.277999997 0.602400005
vt 0.379599988 0.602400005
vt 0.379599988 0.76849997
vt 0.277999997 0.76849997
vt 0.103399999 0.767400026
vt 0.200900003 0.663200021
vt 0.103399999 0.663200021
vt 0.200900003 0.767400026
vt 0.837100029 0.796000004
vt 0.613799989 0.953800023
vt 0.90109998 0.958100021
vt 0.596899986 0.909300029
vt 0.788800001 0.772700012
vt 0.600899994 0.78640002
vt 0.722100019 0.74059999
vt 0.643899977 0.741900027
vt 0.56370002 0.786599994
vt 0.468400002 0.912400007
vt 0.467799991 0.778299987
vt 0.430200011 0.922200024
vt 0.0599999987 0.851499975
vt 0.0590999983 0.780499995
vt 0.0436000004 0.92750001
vt 0.486299992 0.616699994
vt 0.397000015 0.642700016
vt 0.460099995 0.611100018
vt 0.837199986 0.68629998
vt 0.768599987 0.625899971
vt 0.803600013 0.631500006
vt 0.469500005 0.950500011
vt 0.431100011 0.961899996
vt 0.588 0.949400008
vt 0.0285 0.968100011
vt 0.588 0.949400008
vt 0.612399995 0.987500012
vt 0.90079999 0.988300025
vt 0.945299983 0.988600016
vt 0.980300009 0.969399989
vt 0.910300016 0.969399989
vt 0.980300009 0.814400017
vt 0.910300016 0.814400017
vt 0.910300016 0.759299994
vt 0.980300009 0.759299994
vt 0.498800009 0.589299977
vt 0.641700029 0.518999994
vt 0.497599989 0.509800017
vt 0.642499983 0.575600028
vt 0.683000028 0.518400013
vt 0.683799982 0.574999988
vt 0.758000016 0.517199993
vt 0.758899987 0.573800027
vt 0.872799993 0.504000008
vt 0.874000013 0.583500028
vt 0.643599987 0.692399979
vt 0.724399984 0.621900022
vt 0.643599987 0.621900022
vt 0.724399984 0.692399979
vt 0.579699993 0.692399979
vt 0.579699993 0.621900022
vt 0.541199982 0.692399979
vt 0.541199982 0.621900022
vt 0.0119000003 0.583400011
vt 0.172399998 0.523599982
vt 0.0125000002 0.512000024
vt 0.172000006 0.574500024
vt 0.172000006 0.574500024
vt 0.246399999 0.524200022
vt 0.172399998 0.523599982
vt 0.246000007 0.575100005
vt 0.274599999 0.524399996
vt 0.274100006 0.575299978
vt 0.469999999 0.515799999
vt 0.469500005 0.587300003
vt 0.991299987 0.614400029
vt 0.906499982 0.512099981
vt 0.891900003 0.614600003
vt 0.976100028 0.511900008
vt 0.99150002 0.684000015
vt 0.892099977 0.684300005
vt 0.941900015 0.732299984
vt 0.0138999997 0.644900024
vt 0.267800003 0.587100029
vt 0.0138999997 0.593800008
vt 0.267800003 0.660000026
vt 0.613799989 0.953800023
vt 0.837100029 0.796000004
vt 0.90109998 0.958100021
vt 0.596899986 0.909300029
vt 0.788800001 0.772700012
vt 0.600899994 0.78640002
vt 0.722100019 0.74059999
vt 0.643899977 0.741900027
vt 0.56370002 0.786599994
vt 0.468400002 0.912400007
vt 0.467799991 0.778299987
vt 0.430200011 0.922200024
vt 0.0599999987 0.851499975
vt 0.0590999983 0.780499995
vt 0.0436000004 0.92750001
vt 0.486299992 0.616699994
vt 0.397000015 0.642700016
vt 0.460099995 0.611100018
vt 0.837199986 0.68629998
vt 0.768599987 0.625899971
vt 0.803600013 0.631500006
vt 0.431100011 0.961899996
vt 0.0285 0.968100011
vt 0.469500005 0.950500011
vt 0.588 0.949400008
vt 0.588 0.949400008
vt 0.612399995 0.987500012
vt 0.90079999 0.988300025
vn 1 0 0
vn 1 0 0
vn 1 0 0
vn 1 0 0
vn -0.764223691 -0.644951277 -2.09172071e-16
vn -0.764223691 0.644951277 2.09172071e-16
vn -0.764223691 0.644951277 2.09172071e-16
vn -0.764223691 -0.644951277 -2.09172071e-16
vn 0 -1 -3.24322284e-16
vn 0 -1 -3.24322284e-16
vn 0 1 3.24322284e-16
vn 0 1 3.24322284e-16
vn 0 0 -1
vn 0 0 -1
vn 0 0 -1
vn 0 0 -1
vn -1 0 0
vn -0.981577423 0.184563004 -0.049419238
vn -0.931060171 0.36486567 6.00951828e-17
vn -0.996754583 0.0774029998 -0.0221150859
vn -0.999867798 -0.0146054327 0.00714623657
vn -1 0 0
vn -0.998416235 -0.0461995239 0.0321033654
vn -1 0 0
vn -0.999777256 -0.0210126899 0.001976397
vn -0.960984791 0.276301053 0.0128824965
vn -0.998794132 -0.0485744976 -0.00712737511
vn -0.982181599 0.187878675 0.00457275311
vn -0.999018596 -0.0436517838 -0.00750777784
vn -0.989322182 -0.143636055 -0.024704319
vn -0.81457594 0.580041895 -0.00417584004
vn -0.998270568 -0.0585585822 -0.00517360206
vn -0.998213006 -0.0574856409 -0.0163155307
vn -1 0 0
vn -0.996728253 -0.0663740728 0.0461223608
vn -0.997427748 -0.053398753 0.0478169573
vn -1 0 0
vn -0.481613583 0.871781151 0.089699393
vn -0.575490571 0.81779793 0.00414116719
vn -0.483511538 0.875216879 0.0145604972
vn -0.653838342 0.756617025 0.00510887371
vn -0.157564669 0.285212026 -0.945424495
vn -0.482638051 0.873636059 -0.0618105818
vn -0.483562672 0.875309741 1.43288912e-16
vn 0 -0.222154968 0.975011369
vn 0 -0.398982539 0.916958523
vn 0 -0.409162824 0.912461387
vn 0 -0.570851578 0.821053272
vn 0 -0.570851578 0.821053272
vn 0 -0.897063117 0.441902438
vn 0 -0.897063117 0.441902438
vn 0 -0.38229536 -0.924040182
vn 0 -0.483957784 -0.875091345
vn 0 -0.38229536 -0.924040182
vn 0 -0.752859506 -0.658181255
vn 0 -0.838532705 0.544851267
vn 0 -0.657740729 0.753244405
vn 0 -0.0893379165 0.996001374
vn 0 0.307063515 0.951689024
vn 0 0.495620549 0.868539159
vn 0 0.495620549 0.868539159
vn 0 -0.974973741 -0.22232005
vn 0 -0.999958699 -0.00908842661
vn 0 -0.879778702 -0.475383461
vn 0 -0.999958699 -0.00908842661
vn 0 -0.813839188 -0.581090161
vn 0 -0.936329195 -0.351123396
vn 0 -1 -3.24322849e-16
vn 0 -1 -3.24322849e-16
vn 0 0.457137003 -0.88939629
vn 0 0.457137003 -0.88939629
vn 0 0.457137003 -0.88939629
vn 0 0.457137003 -0.88939629
vn 0 -0.895771226 -0.444515366
vn 0 -0.937344124 -0.348404927
vn 0 -0.895771226 -0.444515366
vn 0 -0.986174425 -0.165710601
vn 0 -0.577811447 0.816170284
vn 0 -0.450687704 0.892681687
vn 0 -0.408617607 0.912705676
vn 0 -0.408617607 0.912705676
vn 0 -0.00893112826 -0.999960117
vn 0 0.00337940306 -0.99999429
vn 0 -0.0214239772 -0.99977048
vn 0 0.00337940306 -0.99999429
vn 0 -0.147974087 -0.988991238
vn 0 -0.212802193 -0.977095301
vn 0 -0.452952907 -0.891534443
vn 0 -1 -2.36555746e-16
vn 0 -1 -2.36555746e-16
vn 0 -1 -2.36555746e-16
vn 0 -1 -2.36555746e-16
vn 0.981326058 0.185806074 -0.0497520867
vn 1 0 0
vn 0.930191571 0.367074435 6.02488113e-17
vn 0.996709258 0.0779407407 -0.0222687258
vn 0.999867798 -0.0146054352 0.00714623776
vn 1 0 0
vn 0.998416234 -0.0461995316 0.0321033707
vn 1 0 0
vn 0.999777255 -0.0210126934 0.00197639733
vn 0.960469255 0.278083985 0.0129656254
vn 0.998794132 -0.0485745054 -0.00712737625
vn 0.981938252 0.18914565 0.00460358985
vn 0.999018596 -0.0436517907 -0.00750777903
vn 0.989322179 -0.143636078 -0.0247043229
vn 0.812659381 0.582723889 -0.00419514826
vn 0.998270567 -0.0585585919 -0.00517360292
vn 0.998213005 -0.0574856504 -0.0163155334
vn 1 0 0
vn 0.996728252 -0.0663740838 0.0461223685
vn 0.997427747 -0.0533987619 0.0478169653
vn 1 0 0
vn 0.572808432 0.819678762 0.00415069135
vn 0.651227269 0.758865462 0.00512405573
vn 0.47903858 0.873183912 0.089843726
vn 0.480932504 0.876636316 0.0145841116
vn 0.156497349 0.285261041 -0.94558697
vn 0.480060864 0.875047805 -0.0619104642
vn 0.480983531 0.876729629 1.43197683e-16

g gun02_submesh_0
usemtl MS06-Newlambert6
f 1/1/1 3/3/3 2/2/2
f 1/1/1 2/2/2 4/4/4
f 5/5/5 7/7/7 6/6/6
f 5/5/5 6/6/6 8/8/8
f 9/9/9 5/5/5 8/8/8
f 9/9/9 10/10/10 5/5/5
f 11/11/11 6/6/6 7/7/7
f 11/11/11 12/12/12 6/6/6
f 13/13/13 15/15/15 14/14/14
f 13/13/13 14/14/14 16/16/16
f 17/17/17 19/19/19 18/18/18
f 17/17/17 18/18/18 20/20/20
f 21/21/21 17/17/17 20/20/20
f 21/21/21 20/20/20 22/22/22
f 23/23/23 21/21/21 22/22/22
f 23/23/23 22/22/22 24/24/24
f 20/20/20 25/25/25 22/22/22
f 26/26/26 25/25/25 20/20/20
f 26/26/26 27/27/27 25/25/25
f 27/27/27 26/26/26 28/28/28
f 28/28/28 29/29/29 27/27/27
f 27/27/27 29/29/29 30/30/30
f 28/28/28 31/31/31 29/29/29
f 27/27/27 32/32/32 25/25/25
f 27/27/27 33/33/33 32/32/32
f 33/33/33 34/34/34 32/32/32
f 23/23/23 35/35/35 21/21/21
f 23/23/23 36/36/36 35/35/35
f 36/36/36 37/37/37 35/35/35
f 38/38/38 28/28/28 26/26/26
f 38/38/38 39/39/39 28/28/28
f 39/39/39 31/31/31 28/28/28
f 40/40/40 38/38/38 26/26/26
f 40/40/40 26/26/26 20/20/20
f 39/39/39 41/41/41 31/31/31
f 18/18/18 42/42/42 20/20/20
f 18/18/18 43/43/43 42/42/42
f 19/19/19 43/43/43 18/18/18
f 19/19/19 44/44/44 43/43/43
f 45/45/45 47/47/47 46/46/46
f 47/47/47 48/48/48 46/46/46
f 47/47/47 49/49/49 48/48/48
f 50/50/50 48/48/48 49/49/49
f 50/50/50 51/51/51 48/48/48
f 52/52/52 54/54/54 53/53/53
f 52/52/52 53/53/53 55/55/55
f 55/55/55 53/53/53 56/56/56
f 55/55/55 56/56/56 57/57/57
f 57/57/57 56/56/56 58/58/58
f 57/57/57 58/58/58 59/59/59
f 59/59/59 58/58/58 60/60/60
f 59/59/59 60/60/60 61/61/61
f 62/62/62 64/64/64 63/63/63
f 62/62/62 63/63/63 65/65/65
f 66/66/66 64/64/64 62/62/62
f 66/66/66 67/67/67 64/64/64
f 68/68/68 67/67/67 66/66/66
f 68/68/68 69/69/69 67/67/67
f 70/70/70 72/72/72 71/71/71
f 70/70/70 71/71/71 73/73/73
f 74/74/74 76/76/76 75/75/75
f 74/74/74 75/75/75 77/77/77
f 77/77/77 75/75/75 78/78/78
f 77/77/77 78/78/78 79/79/79
f 79/79/79 78/78/78 80/80/80
f 79/79/79 80/80/80 81/81/81
f 82/82/82 84/84/84 83/83/83
f 82/82/82 83/83/83 85/85/85
f 86/86/86 84/84/84 82/82/82
f 86/86/86 87/87/87 84/84/84
f 87/87/87 86/86/86 88/88/88
f 89/89/89 91/91/91 90/90/90
f 89/89/89 90/90/90 92/92/92
f 93/93/93 95/95/95 94/94/94
f 93/93/93 94/94/94 96/96/96
f 96/96/96 94/94/94 97/97/97
f 96/96/96 97/97/97 98/98/98
f 98/98/98 97/97/97 99/99/99
f 98/98/98 99/99/99 100/100/100
f 96/96/96 98/98/98 101/101/101
f 101/101/101 102/102/102 96/96/96
f 101/101/101 103/103/103 102/102/102
f 103/103/103 104/104/104 102/102/102
f 105/105/105 104/104/104 103/103/103
f 103/103/103 106/106/106 105/105/105
f 105/105/105 107/107/107 104/104/104
f 108/108/108 103/103/103 101/101/101
f 108/108/108 109/109/109 103/103/103
f 109/109/109 108/108/108 110/110/110
f 111/111/111 99/99/99 97/97/97
f 111/111/111 112/112/112 99/99/99
f 112/112/112 111/111/111 113/113/113
f 114/114/114 104/104/104 107/107/107
f 114/114/114 107/107/107 115/115/115
f 116/116/116 102/102/102 104/104/104
f 116/116/116 104/104/104 114/114/114
f 117/117/117 102/102/102 116/116/116
f 117/117/117 96/96/96 102/102/102
f 118/118/118 93/93/93 96/96/96
f 118/118/118 119/119/119 93/93/93
f 119/119/119 95/95/95 93/93/93
f 119/119/119 120/120/120 95/95/95
