# Generated by tools/yaml_mesh_converter/split_reload_parts.py
mtllib gun03.mtl
o gun03_reload
v -0.0402008668 0.0314518586 -0.268450499
vt 0.464100003 0.737900019
vn -0.999795628 -0.0198056218 -0.00405445661
v -0.0322969668 -0.142979085 -0.250189751
vt 0.481999993 0.581700027
vn -0.998884872 -0.0462532034 -0.00946860483
v -0.0402008668 0.0238205381 -0.159158617
vt 0.560400009 0.731899977
vn -0.999767849 -0.0214940872 -0.00150082757
v -0.0402008668 0.0314518586 -0.268450499
vt 0.464100003 0.737900019
vn -0.999795628 -0.0198056218 -0.00405445661
v -0.0322969668 -0.112726249 -0.325958252
vt 0.414999992 0.608500004
vn -0.998706126 -0.0472279706 -0.0188571777
v -0.0322969668 -0.142979085 -0.250189751
vt 0.481999993 0.581700027
vn -0.998884872 -0.0462532034 -0.00946860483
v 0.0320244357 -0.142979085 -0.250189751
vt 0.481999993 0.581700027
vn 0.998806779 -0.0478444307 -0.00979434882
v 0.0402008891 0.0314518586 -0.268450499
vt 0.464100003 0.737900019
vn 0.999781295 -0.0204882934 -0.00419420797
v 0.0402008891 0.0238205381 -0.159158617
vt 0.560400009 0.731899977
vn 0.999751568 -0.0222349145 -0.00155255593
v 0.0320244357 -0.142979085 -0.250189751
vt 0.481999993 0.581700027
vn 0.998806779 -0.0478444307 -0.00979434882
v 0.0320244357 -0.112726249 -0.325958252
vt 0.414999992 0.608500004
vn 0.998615541 -0.0488521207 -0.0195056681
v 0.0402008891 0.0314518586 -0.268450499
vt 0.464100003 0.737900019
vn 0.999781295 -0.0204882934 -0.00419420797
v 0.0320244357 -0.112726249 -0.325958252
vt 0.317099988 0.516799986
vn 0 0.370482525 -0.928839437
v -0.0402008668 0.0314518586 -0.268450499
vt 0.179000005 0.579999983
vn 0 0.264002294 -0.964522052
v 0.0402008891 0.0314518586 -0.268450499
vt 0.179499999 0.508599997
vn 0 0.0245948388 -0.999697501
v 0.0320244357 -0.112726249 -0.325958252
vt 0.317099988 0.516799986
vn 0 0.370482525 -0.928839437
v -0.0322969668 -0.112726249 -0.325958252
vt 0.316700011 0.573800027
vn 0 0.370482525 -0.928839437
v -0.0402008668 0.0314518586 -0.268450499
vt 0.179000005 0.579999983
vn 0 0.264002294 -0.964522052
v 0.0320244357 -0.142979085 -0.250189751
vt 0.389499992 0.51730001
vn 0 -0.915920916 0.401358786
v -0.0322969668 -0.142979085 -0.250189751
vt 0.389099985 0.574400008
vn 0 -0.630915488 0.775851562
v -0.0322969668 -0.112726249 -0.325958252
vt 0.316700011 0.573800027
vn 0 -0.928707131 -0.370814057
v 0.0320244357 -0.142979085 -0.250189751
vt 0.389499992 0.51730001
vn 0 -0.915920916 0.401358786
v -0.0322969668 -0.112726249 -0.325958252
vt 0.316700011 0.573800027
vn 0 -0.928707131 -0.370814057
v 0.0320244357 -0.112726249 -0.325958252
vt 0.317099988 0.516799986
vn 0 -0.928707131 -0.370814057
v 0.0402008891 0.0238205381 -0.159158617
vt 0.558000028 0.511399984
vn 0 -0.479052968 0.877785996
v -0.0322969668 -0.142979085 -0.250189751
vt 0.389099985 0.574400008
vn 0 -0.630915488 0.775851562
v 0.0320244357 -0.142979085 -0.250189751
vt 0.389499992 0.51730001
vn 0 -0.915920916 0.401358786
v 0.0402008891 0.0238205381 -0.159158617
vt 0.558000028 0.511399984
vn 0 -0.479052968 0.877785996
v -0.0402008668 0.0238205381 -0.159158617
vt 0.557500005 0.582799971
vn 0 -0.479052968 0.877785996
v -0.0322969668 -0.142979085 -0.250189751
vt 0.389099985 0.574400008
vn 0 -0.630915488 0.775851562
v 1.11499999997e-08 0.02763619835 -0.213804558
vt 0.179499999 0.508599997
vn 0 0.997571103262 0.0696555377327
v 0.0402008891 0.0314518586 -0.268450499
vt 0.179499999 0.508599997
vn 0 0.997571103262 0.0696555377327
v -0.0402008668 0.0314518586 -0.268450499
vt 0.179499999 0.508599997
vn 0 0.997571103262 0.0696555377327
v 1.11499999997e-08 0.02763619835 -0.213804558
vt 0.179499999 0.508599997
vn 0 0.997571103262 0.0696555377327
v -0.0402008668 0.0314518586 -0.268450499
vt 0.179499999 0.508599997
vn 0 0.997571103262 0.0696555377327
v -0.0402008668 0.0238205381 -0.159158617
vt 0.179499999 0.508599997
vn 0 0.997571103262 0.0696555377327
v 1.11499999997e-08 0.02763619835 -0.213804558
vt 0.179499999 0.508599997
vn 0 0.997571103262 0.0696555377327
v -0.0402008668 0.0238205381 -0.159158617
vt 0.179499999 0.508599997
vn 0 0.997571103262 0.0696555377327
v 0.0402008891 0.0238205381 -0.159158617
vt 0.179499999 0.508599997
vn 0 0.997571103262 0.0696555377327
v 1.11499999997e-08 0.02763619835 -0.213804558
vt 0.179499999 0.508599997
vn 0 0.997571103262 0.0696555377327
v 0.0402008891 0.0238205381 -0.159158617
vt 0.179499999 0.508599997
vn 0 0.997571103262 0.0696555377327
v 0.0402008891 0.0314518586 -0.268450499
vt 0.179499999 0.508599997
vn 0 0.997571103262 0.0696555377327
usemtl FR43C-Newlambert12
f 1/1/1 2/2/2 3/3/3
f 4/4/4 5/5/5 6/6/6
f 7/7/7 8/8/8 9/9/9
f 10/10/10 11/11/11 12/12/12
f 13/13/13 14/14/14 15/15/15
f 16/16/16 17/17/17 18/18/18
f 19/19/19 20/20/20 21/21/21
f 22/22/22 23/23/23 24/24/24
f 25/25/25 26/26/26 27/27/27
f 28/28/28 29/29/29 30/30/30
f 31/31/31 32/32/32 33/33/33
f 34/34/34 35/35/35 36/36/36
f 37/37/37 38/38/38 39/39/39
f 40/40/40 41/41/41 42/42/42
