# Generated by tools/yaml_mesh_converter/split_reload_parts.py
mtllib gun05.mtl
o gun05_reload
v -0.0475596711 0.0211810023 -0.516301036
vt 0.233600006 0.681900024
vn -0.998691442 -0.0498227366 0.011536836
v -0.0431988947 0.0732375979 -0.231215447
vt 0.460299999 0.722000003
vn -0.997613454 -0.0675512563 0.0142907262
v -0.0486498624 0.153094187 -0.624502718
vt 0.147599995 0.784699976
vn -0.999512312 -0.0311369395 -0.00237273751
v -0.0410185046 0.042439729 -0.584165514
vt 0.179199994 0.698300004
vn -0.992828756 -0.0877831259 -0.0811491484
v -0.0475596711 0.0211810023 -0.516301036
vt 0.233600006 0.681900024
vn -0.998691442 -0.0498227366 0.011536836
v -0.0486498624 0.153094187 -0.624502718
vt 0.147599995 0.784699976
vn -0.999512312 -0.0311369395 -0.00237273751
v -0.0410185046 0.042439729 -0.584165514
vt 0.179199994 0.698300004
vn -0.992828756 -0.0877831259 -0.0811491484
v -0.0486498624 0.153094187 -0.624502718
vt 0.147599995 0.784699976
vn -0.999512312 -0.0311369395 -0.00237273751
v -0.0410185046 0.0410767645 -0.624502718
vt 0.147100002 0.697399974
vn -0.997368041 -0.0679472188 -0.0253014953
v -0.0486498624 0.153094187 -0.624502718
vt 0.147599995 0.784699976
vn -0.999512312 -0.0311369395 -0.00237273751
v -0.0410185046 0.0762354806 -0.674924076
vt 0.107100002 0.724799991
vn -0.995157382 -0.0982912035 -0.000790681159
v -0.0410185046 0.0410767645 -0.624502718
vt 0.147100002 0.697399974
vn -0.997368041 -0.0679472188 -0.0253014953
v -0.0486498624 0.153094187 -0.624502718
vt 0.147599995 0.784699976
vn -0.999512312 -0.0311369395 -0.00237273751
v -0.0486498624 0.118753254 -0.675741673
vt 0.106600001 0.75849998
vn -0.977995494 -0.173303282 0.116149842
v -0.0410185046 0.0762354806 -0.674924076
vt 0.107100002 0.724799991
vn -0.995157382 -0.0982912035 -0.000790681159
v -0.0410185046 0.042439729 -0.584165514
vt 0.179199994 0.698300004
vn -0.992828756 -0.0877831259 -0.0811491484
v -0.0410185046 0.0162749738 -0.57762444
vt 0.184599996 0.677999973
vn -0.994240422 -0.0259927607 -0.103972879
v -0.0475596711 0.0211810023 -0.516301036
vt 0.233600006 0.681900024
vn -0.998691442 -0.0498227366 0.011536836
v -0.0350224413 0.0040102154 -0.263103604
vt 0.435099989 0.667900026
vn -0.993422343 -0.106541106 0.0419647606
v -0.0431988947 0.0732375979 -0.231215447
vt 0.460299999 0.722000003
vn -0.997613454 -0.0675512563 0.0142907262
v -0.0475596711 0.0211810023 -0.516301036
vt 0.233600006 0.681900024
vn -0.998691442 -0.0498227366 0.011536836
v -0.0350224413 0.0040102154 -0.263103604
vt 0.435099989 0.667900026
vn -0.993422343 -0.106541106 0.0419647606
v -0.0475596711 0.0211810023 -0.516301036
vt 0.233600006 0.681900024
vn -0.998691442 -0.0498227366 0.011536836
v -0.0410185046 -0.0417777002 -0.471603066
vt 0.268999994 0.632700026
vn -0.996416163 -0.0719604477 0.0444581165
v 0.0410185345 0.042439729 -0.584165514
vt 0.188299999 0.573800027
vn 0 -0.965733145 -0.259537074
v -0.0410185046 0.042439729 -0.584165514
vt 0.251899987 0.573800027
vn 0 -0.723522297 -0.690301011
v -0.0410185046 0.0410767645 -0.624502718
vt 0.251899987 0.605000019
vn 0 -0.97073398 -0.240157323
v 0.0410185345 0.042439729 -0.584165514
vt 0.188299999 0.573800027
vn 0 -0.965733145 -0.259537074
v -0.0410185046 0.0410767645 -0.624502718
vt 0.251899987 0.605000019
vn 0 -0.97073398 -0.240157323
v 0.0410185345 0.0410767645 -0.624502718
vt 0.188299999 0.605000019
vn 0 -0.898552118 -0.438866826
v 0.0410185345 0.0410767645 -0.624502718
vt 0.188299999 0.605000019
vn 0 -0.898552118 -0.438866826
v -0.0410185046 0.0410767645 -0.624502718
vt 0.251899987 0.605000019
vn 0 -0.97073398 -0.240157323
v -0.0410185046 0.0762354806 -0.674924076
vt 0.251899987 0.652199984
vn 0 -0.820271784 -0.57197395
v 0.0410185345 0.0410767645 -0.624502718
vt 0.188299999 0.605000019
vn 0 -0.898552118 -0.438866826
v -0.0410185046 0.0762354806 -0.674924076
vt 0.251899987 0.652199984
vn 0 -0.820271784 -0.57197395
v 0.0410185345 0.0762354806 -0.674924076
vt 0.188299999 0.652199984
vn 0 -0.820271784 -0.57197395
v 0.0410185345 0.0162749738 -0.57762444
vt 0.188299999 0.553300023
vn 0 -0.843278859 -0.537476293
v -0.0410185046 0.042439729 -0.584165514
vt 0.251899987 0.573800027
vn 0 -0.723522297 -0.690301011
v 0.0410185345 0.042439729 -0.584165514
vt 0.188299999 0.573800027
vn 0 -0.965733145 -0.259537074
v 0.0410185345 0.0162749738 -0.57762444
vt 0.188299999 0.553300023
vn 0 -0.843278859 -0.537476293
v -0.0410185046 0.0162749738 -0.57762444
vt 0.251899987 0.553300023
vn 0 -0.993812502 -0.111070748
v -0.0410185046 0.042439729 -0.584165514
vt 0.251899987 0.573800027
vn 0 -0.723522297 -0.690301011
v 0.0478322431 0.0211810023 -0.516301036
vt 0.183200002 0.505800009
vn 0 -0.996815077 0.0797477446
v -0.0410185046 0.0162749738 -0.57762444
vt 0.251899987 0.553300023
vn 0 -0.993812502 -0.111070748
v 0.0410185345 0.0162749738 -0.57762444
vt 0.188299999 0.553300023
vn 0 -0.843278859 -0.537476293
v 0.0478322431 0.0211810023 -0.516301036
vt 0.183200002 0.505800009
vn 0 -0.996815077 0.0797477446
v -0.0475596711 0.0211810023 -0.516301036
vt 0.256999999 0.505800009
vn 0 -0.996815077 0.0797477446
v -0.0410185046 0.0162749738 -0.57762444
vt 0.251899987 0.553300023
vn 0 -0.993812502 -0.111070748
v 0.0486498922 0.118753254 -0.675741673
vt 0.109300002 0.53579998
vn 0 0.674740528 -0.738055025
v -0.0486498624 0.118753254 -0.675741673
vt 0.180899993 0.53579998
vn 0 0.403696771 -0.914892845
v -0.0486498624 0.153094187 -0.624502718
vt 0.180899993 0.580799997
vn 0 0.646807403 -0.762653384
v 0.0486498922 0.118753254 -0.675741673
vt 0.109300002 0.53579998
vn 0 0.674740528 -0.738055025
v -0.0486498624 0.153094187 -0.624502718
vt 0.180899993 0.580799997
vn 0 0.646807403 -0.762653384
v 0.0486498922 0.153094187 -0.624502718
vt 0.109300002 0.580799997
vn 0 0.646807403 -0.762653384
v 0.0410185345 0.0762354806 -0.674924076
vt 0.1149 0.505299985
vn 0 -0.0192259782 -0.999815164
v -0.0486498624 0.118753254 -0.675741673
vt 0.180899993 0.53579998
vn 0 0.403696771 -0.914892845
v 0.0486498922 0.118753254 -0.675741673
vt 0.109300002 0.53579998
vn 0 0.674740528 -0.738055025
v 0.0410185345 0.0762354806 -0.674924076
vt 0.1149 0.505299985
vn 0 -0.0192259782 -0.999815164
v -0.0410185046 0.0762354806 -0.674924076
vt 0.1752 0.505299985
vn 0 -0.0192259782 -0.999815164
v -0.0486498624 0.118753254 -0.675741673
vt 0.180899993 0.53579998
vn 0 0.403696771 -0.914892845
v 0.0431989245 0.0732375979 -0.231215447
vt 0.507600009 0.576499999
vn 0 -0.862642718 0.505813741
v -0.0431988947 0.0732375979 -0.231215447
vt 0.509199977 0.627099991
vn 0 -0.978966506 0.204021027
v -0.0350224413 0.0040102154 -0.263103604
vt 0.468300015 0.623399973
vn 0 -0.812901913 0.582400618
v 0.0431989245 0.0732375979 -0.231215447
vt 0.507600009 0.576499999
vn 0 -0.862642718 0.505813741
v -0.0350224413 0.0040102154 -0.263103604
vt 0.468300015 0.623399973
vn 0 -0.812901913 0.582400618
v 0.0350224711 0.0040102154 -0.263103604
vt 0.467000008 0.582499981
vn 0 -0.944441382 0.328679899
v 0.0350224711 0.0040102154 -0.263103604
vt 0.467000008 0.582499981
vn 0 -0.944441382 0.328679899
v -0.0350224413 0.0040102154 -0.263103604
vt 0.468300015 0.623399973
vn 0 -0.812901913 0.582400618
v -0.0410185046 -0.0417777002 -0.471603066
vt 0.361499995 0.630299985
vn 0 -0.998710062 0.0507761012
v 0.0350224711 0.0040102154 -0.263103604
vt 0.467000008 0.582499981
vn 0 -0.944441382 0.328679899
v -0.0410185046 -0.0417777002 -0.471603066
vt 0.361499995 0.630299985
vn 0 -0.998710062 0.0507761012
v 0.0410185345 -0.0417777002 -0.471603066
vt 0.360000014 0.582300007
vn 0 -0.958834642 -0.283965013
v 0.0410185345 -0.0417777002 -0.471603066
vt 0.360000014 0.582300007
vn 0 -0.958834642 -0.283965013
v -0.0410185046 -0.0417777002 -0.471603066
vt 0.361499995 0.630299985
vn 0 -0.998710062 0.0507761012
v -0.0475596711 0.0211810023 -0.516301036
vt 0.321099997 0.635399997
vn 0 -0.578898596 -0.815399543
v 0.0410185345 -0.0417777002 -0.471603066
vt 0.360000014 0.582300007
vn 0 -0.958834642 -0.283965013
v -0.0475596711 0.0211810023 -0.516301036
vt 0.321099997 0.635399997
vn 0 -0.578898596 -0.815399543
v 0.0478322431 0.0211810023 -0.516301036
vt 0.319299996 0.579599977
vn 0 -0.578898596 -0.815399543
v 0.0478322431 0.0211810023 -0.516301036
vt 0.233600006 0.681900024
vn 0.998706157 -0.0494830726 0.011723393
v 0.0486498922 0.153094187 -0.624502718
vt 0.147599995 0.784699976
vn 0.99953118 -0.0305210176 -0.00242657797
v 0.0431989245 0.0732375979 -0.231215447
vt 0.460299999 0.722000003
vn 0.997668951 -0.0666449116 0.0146669557
v 0.0410185345 0.042439729 -0.584165514
vt 0.179199994 0.698300004
vn 0.992505061 -0.0887446277 -0.0840124669
v 0.0486498922 0.153094187 -0.624502718
vt 0.147599995 0.784699976
vn 0.99953118 -0.0305210176 -0.00242657797
v 0.0478322431 0.0211810023 -0.516301036
vt 0.233600006 0.681900024
vn 0.998706157 -0.0494830726 0.011723393
v 0.0410185345 0.042439729 -0.584165514
vt 0.179199994 0.698300004
vn 0.992505061 -0.0887446277 -0.0840124669
v 0.0410185345 0.0410767645 -0.624502718
vt 0.147100002 0.697399974
vn 0.997368041 -0.0679472188 -0.0253014953
v 0.0486498922 0.153094187 -0.624502718
vt 0.147599995 0.784699976
vn 0.99953118 -0.0305210176 -0.00242657797
v 0.0410185345 0.0762354806 -0.674924076
vt 0.107100002 0.724799991
vn 0.995157382 -0.0982912035 -0.000790681159
v 0.0486498922 0.153094187 -0.624502718
vt 0.147599995 0.784699976
vn 0.99953118 -0.0305210176 -0.00242657797
v 0.0410185345 0.0410767645 -0.624502718
vt 0.147100002 0.697399974
vn 0.997368041 -0.0679472188 -0.0253014953
v 0.0410185345 0.0762354806 -0.674924076
vt 0.107100002 0.724799991
vn 0.995157382 -0.0982912035 -0.000790681159
v 0.0486498922 0.118753254 -0.675741673
vt 0.106600001 0.75849998
vn 0.977995494 -0.173303282 0.116149842
v 0.0486498922 0.153094187 -0.624502718
vt 0.147599995 0.784699976
vn 0.99953118 -0.0305210176 -0.00242657797
v 0.0410185345 0.042439729 -0.584165514
vt 0.179199994 0.698300004
vn 0.992505061 -0.0887446277 -0.0840124669
v 0.0478322431 0.0211810023 -0.516301036
vt 0.233600006 0.681900024
vn 0.998706157 -0.0494830726 0.011723393
v 0.0410185345 0.0162749738 -0.57762444
vt 0.184599996 0.677999973
vn 0.99375505 -0.0270625492 -0.108252108
v 0.0350224711 0.0040102154 -0.263103604
vt 0.435099989 0.667900026
vn 0.993173872 -0.108471453 0.0428906037
v 0.0478322431 0.0211810023 -0.516301036
vt 0.233600006 0.681900024
vn 0.998706157 -0.0494830726 0.011723393
v 0.0431989245 0.0732375979 -0.231215447
vt 0.460299999 0.722000003
vn 0.997668951 -0.0666449116 0.0146669557
v 0.0350224711 0.0040102154 -0.263103604
vt 0.435099989 0.667900026
vn 0.993173872 -0.108471453 0.0428906037
v 0.0410185345 -0.0417777002 -0.471603066
vt 0.268999994 0.632700026
vn 0.99610517 -0.0756684162 0.0452634683
v 0.0478322431 0.0211810023 -0.516301036
vt 0.233600006 0.681900024
vn 0.998706157 -0.0494830726 0.011723393
v 1.49000000012e-08 0.11316589245 -0.4278590825
vt 0.147599995 0.784699976
vn 0 0.980001845297 0.198988399696
v -0.0486498624 0.153094187 -0.624502718
vt 0.147599995 0.784699976
vn 0 0.980001845297 0.198988399696
v -0.0431988947 0.0732375979 -0.231215447
vt 0.147599995 0.784699976
vn 0 0.980001845297 0.198988399696
v 1.49000000012e-08 0.11316589245 -0.4278590825
vt 0.147599995 0.784699976
vn 0 0.980001845297 0.198988399696
v -0.0431988947 0.0732375979 -0.231215447
vt 0.147599995 0.784699976
vn 0 0.980001845297 0.198988399696
v 0.0431989245 0.0732375979 -0.231215447
vt 0.147599995 0.784699976
vn 0 0.980001845297 0.198988399696
v 1.49000000012e-08 0.11316589245 -0.4278590825
vt 0.147599995 0.784699976
vn 0 0.980001845297 0.198988399696
v 0.0431989245 0.0732375979 -0.231215447
vt 0.147599995 0.784699976
vn 0 0.980001845297 0.198988399696
v 0.0486498922 0.153094187 -0.624502718
vt 0.147599995 0.784699976
vn 0 0.980001845297 0.198988399696
v 1.49000000012e-08 0.11316589245 -0.4278590825
vt 0.147599995 0.784699976
vn 0 0.980001845297 0.198988399696
v 0.0486498922 0.153094187 -0.624502718
vt 0.147599995 0.784699976
vn 0 0.980001845297 0.198988399696
v -0.0486498624 0.153094187 -0.624502718
vt 0.147599995 0.784699976
vn 0 0.980001845297 0.198988399696
usemtl TB10-LW-Newlambert5SG1
f 1/1/1 2/2/2 3/3/3
f 4/4/4 5/5/5 6/6/6
f 7/7/7 8/8/8 9/9/9
f 10/10/10 11/11/11 12/12/12
f 13/13/13 14/14/14 15/15/15
f 16/16/16 17/17/17 18/18/18
f 19/19/19 20/20/20 21/21/21
f 22/22/22 23/23/23 24/24/24
f 25/25/25 26/26/26 27/27/27
f 28/28/28 29/29/29 30/30/30
f 31/31/31 32/32/32 33/33/33
f 34/34/34 35/35/35 36/36/36
f 37/37/37 38/38/38 39/39/39
f 40/40/40 41/41/41 42/42/42
f 43/43/43 44/44/44 45/45/45
f 46/46/46 47/47/47 48/48/48
f 49/49/49 50/50/50 51/51/51
f 52/52/52 53/53/53 54/54/54
f 55/55/55 56/56/56 57/57/57
f 58/58/58 59/59/59 60/60/60
f 61/61/61 62/62/62 63/63/63
f 64/64/64 65/65/65 66/66/66
f 67/67/67 68/68/68 69/69/69
f 70/70/70 71/71/71 72/72/72
f 73/73/73 74/74/74 75/75/75
f 76/76/76 77/77/77 78/78/78
f 79/79/79 80/80/80 81/81/81
f 82/82/82 83/83/83 84/84/84
f 85/85/85 86/86/86 87/87/87
f 88/88/88 89/89/89 90/90/90
f 91/91/91 92/92/92 93/93/93
f 94/94/94 95/95/95 96/96/96
f 97/97/97 98/98/98 99/99/99
f 100/100/100 101/101/101 102/102/102
f 103/103/103 104/104/104 105/105/105
f 106/106/106 107/107/107 108/108/108
f 109/109/109 110/110/110 111/111/111
f 112/112/112 113/113/113 114/114/114
