# Generated from legacy Unity YAML Mesh assets without Unity.
mtllib gun01.mtl

o gun01
v 0.0363852158 0.0723478347 -0.728072405
v -0.036385186 0.0903360844 -0.774950743
v -0.036385186 0.0723478347 -0.728072405
v 0.0363852158 0.0903360844 -0.774950743
v 0.0363852158 0.0957869813 -0.708448946
v -0.036385186 0.0957869813 -0.708448946
v 0.0363852158 0.0957869813 -0.671927452
v -0.036385186 0.0957869813 -0.671927452
v 0.0363852158 0.0794341266 -0.652576566
v -0.036385186 0.0794341266 -0.652576566
v 0.0363852158 0.0794341266 -0.43235743
v -0.036385186 0.0794341266 -0.43235743
v 0.0363852158 0.051089108 -0.395290852
v -0.036385186 0.051089108 -0.395290852
v 0.0363852158 0.0464558303 -0.258199036
v -0.036385186 0.0464558303 -0.258199036
v 0.0363852158 0.206169009 -0.774950743
v -0.036385186 0.0903360844 -0.774950743
v 0.0363852158 0.0903360844 -0.774950743
v -0.036385186 0.206169009 -0.774950743
v -0.000136260569 0.226882711 -0.774950743
v 0.0303891525 -0.10807921 0.0304296017
v -0.0369302817 -0.0699224472 0.0462374091
v -0.0306616742 -0.10807921 0.0304296017
v 0.0366577655 -0.0699224472 0.0462374091
v 0.0303891525 -0.144873157 0.077853024
v -0.0306616742 -0.144873157 0.077853024
v 0.0303891525 -0.10617137 0.110558808
v -0.0306616742 -0.10617137 0.110558808
v -0.04183615 0.0437302217 0.0102609992
v 0.0415636338 0.0437302217 0.0102609992
v 0.0303891525 -0.0862752944 0.165886134
v -0.0306616742 -0.0862752944 0.165886134
v 0.0415636338 0.0576302186 0.104290217
v -0.04183615 0.0576302186 0.104290217
v 0.027118573 -0.1148929 -0.35413605
v -0.036385186 0.0464558303 -0.258199036
v -0.0271185413 -0.1148929 -0.35413605
v 0.0363852158 0.0464558303 -0.258199036
v 0.027118573 -0.140784904 -0.268010795
v -0.0271185413 -0.140784904 -0.268010795
v 0.027118573 -0.12852031 -0.245389268
v -0.0271185413 -0.12852031 -0.245389268
v 0.0363852158 0.00639107823 -0.183520854
v -0.036385186 0.00639107823 -0.183520854
v -0.036385186 0.271853149 0.23729375
v -0.000136260569 0.292566866 0.23729375
v 0.0363852158 0.271853149 0.23729375
v -0.0486498624 0.219523981 0.210856587
v 0.0486498922 0.219523981 0.210856587
v -0.036385186 0.0873380378 0.155801833
v 0.0363852158 0.0873380378 0.155801833
v -0.04183615 0.0576302186 0.104290217
v 0.0415636338 0.0576302186 0.104290217
v 0.0363852158 0.045093026 -0.0894916654
v -0.036385186 0.00639107823 -0.183520854
v -0.036385186 0.045093026 -0.0894916654
v 0.0363852158 0.00639107823 -0.183520854
v 0.0415636338 0.0437302217 0.0102609992
v -0.04183615 0.0437302217 0.0102609992
v -0.036385186 0.0903360844 -0.774950743
v -0.036385186 0.0957869813 -0.708448946
v -0.036385186 0.0723478347 -0.728072405
v -0.036385186 0.206169009 -0.774950743
v -0.036385186 0.0957869813 -0.671927452
v -0.036385186 0.0794341266 -0.43235743
v -0.036385186 0.0794341266 -0.652576566
v -0.0486498624 0.206169009 -0.514394522
v -0.036385186 0.0464558303 -0.258199036
v -0.036385186 0.051089108 -0.395290852
v -0.036385186 0.045093026 -0.0894916654
v -0.036385186 0.00639107823 -0.183520854
v -0.0271185413 -0.12852031 -0.245389268
v -0.0271185413 -0.1148929 -0.35413605
v -0.0486498624 0.219523981 0.210856587
v -0.04183615 0.0437302217 0.0102609992
v -0.04183615 0.0576302186 0.104290217
v -0.0369302817 -0.0699224472 0.0462374091
v -0.0306616742 -0.0862752944 0.165886134
v -0.0306616742 -0.10617137 0.110558808
v -0.0306616742 -0.10807921 0.0304296017
v -0.0306616742 -0.144873157 0.077853024
v -0.036385186 0.0873380378 0.155801833
v -0.036385186 0.249504238 -0.404830098
v -0.036385186 0.247869 0.159617513
v -0.036385186 0.271853149 0.16915673
v -0.036385186 0.271853149 0.23729375
v -0.000136260569 0.270217925 -0.399106503
v -0.000136260569 0.268582702 0.155256718
v -0.000136260569 0.292566866 0.16915673
v -0.000136260569 0.292566866 0.16915673
v -0.000136260569 0.292566866 0.23729375
v -0.036385186 0.271853149 -0.45961231
v -0.036385186 0.271853149 -0.401559472
v -0.000136260569 0.292566866 -0.45961231
v -0.000136260569 0.292566866 -0.401559472
v -0.000136260569 0.270217925 -0.399106503
v -0.000136260569 0.226882711 -0.514394522
v -0.000136260569 0.292566866 -0.45961231
v -0.000136260569 0.226882711 -0.514394522
v -0.000136260569 0.226882711 -0.774950743
v 0.0363852158 0.271853149 -0.401559472
v 0.0363852158 0.249504238 -0.404830098
v 0.0363852158 0.271853149 -0.45961231
v 0.0486498922 0.206169009 -0.514394522
v 0.0486498922 0.219523981 0.210856587
v 0.0363852158 0.045093026 -0.0894916654
v 0.0415636338 0.0437302217 0.0102609992
v 0.0415636338 0.0576302186 0.104290217
v 0.0366577655 -0.0699224472 0.0462374091
v 0.0303891525 -0.0862752944 0.165886134
v 0.0303891525 -0.10617137 0.110558808
v 0.0303891525 -0.10807921 0.0304296017
v 0.0303891525 -0.144873157 0.077853024
v 0.0363852158 0.0873380378 0.155801833
v 0.0363852158 0.0464558303 -0.258199036
v 0.0363852158 0.00639107823 -0.183520854
v 0.027118573 -0.12852031 -0.245389268
v 0.027118573 -0.1148929 -0.35413605
v 0.0363852158 0.0794341266 -0.43235743
v 0.0363852158 0.206169009 -0.774950743
v 0.0363852158 0.0957869813 -0.671927452
v 0.0363852158 0.0957869813 -0.708448946
v 0.0363852158 0.0903360844 -0.774950743
v 0.0363852158 0.0723478347 -0.728072405
v 0.0363852158 0.0794341266 -0.652576566
v 0.0363852158 0.051089108 -0.395290852
v 0.027118573 -0.140784904 -0.268010795
v -0.000136260569 0.226882711 -0.514394522
v -0.000136260569 0.226882711 -0.774950743
v -0.000136260569 0.226882711 -0.514394522
v -0.000136260569 0.292566866 -0.45961231
v -0.000136260569 0.292566866 -0.45961231
v -0.000136260569 0.292566866 -0.401559472
v 0.0363852158 0.247869 0.159617513
v 0.0363852158 0.271853149 0.16915673
v 0.0363852158 0.271853149 0.23729375
v -0.000136260569 0.268582702 0.155256718
v -0.000136260569 0.292566866 0.16915673
v -0.000136260569 0.292566866 0.16915673
v -0.000136260569 0.292566866 0.23729375
v -0.0271185413 -0.140784904 -0.268010795
v -0.0252107065 0.115955651 -0.804658413
v -0.0252107065 0.206986785 -0.788850725
v -0.0252107065 0.115955651 -0.78939575
v -0.0252107065 0.207259223 -0.804113388
v 0.0238479916 0.206986785 -0.788850725
v 0.0238479916 0.115955651 -0.804658413
v 0.0238479916 0.115955651 -0.78939575
v 0.0238479916 0.207259223 -0.804113388
v 0.0238479916 0.115955651 -0.804658413
v -0.0252107065 0.207259223 -0.804113388
v -0.0252107065 0.115955651 -0.804658413
v 0.0238479916 0.207259223 -0.804113388
v 0.0238479916 0.115955651 -0.78939575
v -0.0252107065 0.115955651 -0.804658413
v -0.0252107065 0.115955651 -0.78939575
v 0.0238479916 0.115955651 -0.804658413
v 0.0238479916 0.206986785 -0.788850725
v -0.0252107065 0.115955651 -0.78939575
v -0.0252107065 0.206986785 -0.788850725
v 0.0238479916 0.115955651 -0.78939575
v 0.0238479916 0.207259223 -0.804113388
v -0.0252107065 0.206986785 -0.788850725
v -0.0252107065 0.207259223 -0.804113388
v 0.0238479916 0.206986785 -0.788850725
v -0.017034255 0.14675352 -0.766501606
v -0.017034255 0.179731816 -0.848266244
v -0.017034255 0.179731816 -0.766501606
v -0.017034255 0.14675352 -0.848266244
v 0.0162166376 0.14675352 -0.766501606
v 0.0162166376 0.14675352 -0.848266244
v 0.0162166376 0.179731816 -0.848266244
v 0.0162166376 0.179731816 -0.766501606
v 0.0162166376 0.179731816 -0.848266244
v 0.0162166376 0.14675352 -0.766501606
v 0.0162166376 0.179731816 -0.766501606
v 0.0162166376 0.14675352 -0.848266244
v 0.0162166376 0.14675352 -0.848266244
v -0.017034255 0.179731816 -0.848266244
v -0.017034255 0.14675352 -0.848266244
v 0.0162166376 0.179731816 -0.848266244
vt 0.0670000017 0.00520000001
vt 0.00810000021 0.0905999988
vt 0.0670000017 0.0905999988
vt 0.00810000021 0.00520000001
vt 0.102799997 0.00520000001
vt 0.102799997 0.0905999988
vt 0.145799994 0.00520000001
vt 0.145799994 0.0905999988
vt 0.175500005 0.00520000001
vt 0.175500005 0.0905999988
vt 0.433600008 0.00520000001
vt 0.433600008 0.0905999988
vt 0.488499999 0.00520000001
vt 0.488499999 0.0905999988
vt 0.649299979 0.00520000001
vt 0.649299979 0.0905999988
vt 0.0265999995 0.221799999
vt 0.126499996 0.28459999
vt 0.126499996 0.221799999
vt 0.0265999995 0.28459999
vt 0.00870000012 0.253199995
vt 0.982800007 0.219899997
vt 0.927100003 0.186399996
vt 0.932600021 0.220300004
vt 0.987600029 0.185900003
vt 0.983200014 0.269300014
vt 0.933000028 0.269699991
vt 0.983500004 0.31099999
vt 0.933300018 0.311500013
vt 0.922299981 0.0882999972
vt 0.99089998 0.0878000036
vt 0.983900011 0.359200001
vt 0.933700025 0.359600008
vt 0.994199991 0.488000005
vt 0.925499976 0.488599986
vt 0.907599986 0.252799988
vt 0.853299975 0.0892999992
vt 0.860499978 0.252600014
vt 0.916499972 0.0896999985
vt 0.907199979 0.331099987
vt 0.860099971 0.330900013
vt 0.907100022 0.353399992
vt 0.860000014 0.353199989
vt 0.914499998 0.4824
vt 0.851300001 0.48210001
vt 0.795599997 0.332300007
vt 0.82160002 0.346899986
vt 0.84740001 0.331999987
vt 0.78670001 0.282299995
vt 0.855799973 0.281800002
vt 0.79460001 0.188800007
vt 0.846400023 0.1884
vt 0.790499985 0.146599993
vt 0.849900007 0.146200001
vt 0.301999986 0.182300001
vt 0.361600012 0.265300006
vt 0.361499995 0.182300001
vt 0.301999986 0.265399992
vt 0.297600001 0.100500003
vt 0.36590001 0.100400001
vt 0.0149999997 0.307599992
vt 0.0693999976 0.312299997
vt 0.0533999987 0.291299999
vt 0.0152000003 0.411500007
vt 0.0993999988 0.31220001
vt 0.295300007 0.297100008
vt 0.115199998 0.297500014
vt 0.225199997 0.408800006
vt 0.435400009 0.26730001
vt 0.325700015 0.271800011
vt 0.575800002 0.265700012
vt 0.49970001 0.231299996
vt 0.457599998 0.112199999
vt 0.368499994 0.124499999
vt 0.822300017 0.419499993
vt 0.657800019 0.263399988
vt 0.734700024 0.275900006
vt 0.68690002 0.162300006
vt 0.784600019 0.148599997
vt 0.739400029 0.130799994
vt 0.673799992 0.129299998
vt 0.712599993 0.0961999968
vt 0.776799977 0.303200006
vt 0.318100005 0.449499995
vt 0.780099988 0.447100013
vt 0.788100004 0.468600005
vt 0.843699992 0.468499988
vt 0.321500003 0.474400014
vt 0.77609998 0.472000003
vt 0.787500024 0.493600011
vt 0.787500024 0.493600011
vt 0.843100011 0.493499994
vt 0.273499995 0.473800004
vt 0.320899993 0.473699987
vt 0.272899985 0.494700015
vt 0.320300013 0.494599998
vt 0.321500003 0.474400014
vt 0.227799997 0.435900003
vt 0.272899985 0.494700015
vt 0.227799997 0.435900003
vt 0.0146000003 0.436399996
vt 0.320899993 0.473699987
vt 0.318100005 0.449499995
vt 0.273499995 0.473800004
vt 0.225199997 0.408800006
vt 0.822300017 0.419499993
vt 0.575800002 0.265700012
vt 0.657800019 0.263399988
vt 0.734700024 0.275900006
vt 0.68690002 0.162300006
vt 0.784600019 0.148599997
vt 0.739400029 0.130799994
vt 0.673799992 0.129299998
vt 0.712599993 0.0961999968
vt 0.776799977 0.303200006
vt 0.435400009 0.26730001
vt 0.49970001 0.231299996
vt 0.457599998 0.112199999
vt 0.368499994 0.124499999
vt 0.295300007 0.297100008
vt 0.0152000003 0.411500007
vt 0.0993999988 0.31220001
vt 0.0693999976 0.312299997
vt 0.0149999997 0.307599992
vt 0.0533999987 0.291299999
vt 0.115199998 0.297500014
vt 0.325700015 0.271800011
vt 0.439200014 0.101099998
vt 0.227799997 0.435900003
vt 0.0146000003 0.436399996
vt 0.227799997 0.435900003
vt 0.272899985 0.494700015
vt 0.272899985 0.494700015
vt 0.320300013 0.494599998
vt 0.780099988 0.447100013
vt 0.788100004 0.468600005
vt 0.843699992 0.468499988
vt 0.77609998 0.472000003
vt 0.787500024 0.493600011
vt 0.787500024 0.493600011
vt 0.843100011 0.493499994
vt 0.439200014 0.101099998
vt 0.911599994 0.0184000004
vt 0.737800002 0.0691
vt 0.911599994 0.0691
vt 0.737800002 0.0184000004
vt 0.738499999 0.0687000006
vt 0.911800027 0.0176999997
vt 0.911800027 0.0687000006
vt 0.738499999 0.0176999997
vt 0.564199984 0.225999996
vt 0.514100015 0.1074
vt 0.514100015 0.225999996
vt 0.564199984 0.1074
vt 0.990700006 0.0691
vt 0.911599994 0.0184000004
vt 0.911599994 0.0691
vt 0.990700006 0.0184000004
vt 0.589699984 0.108599998
vt 0.637499988 0.2245
vt 0.637499988 0.108599998
vt 0.589699984 0.2245
vt 0.658699989 0.0184000004
vt 0.737800002 0.0691
vt 0.737800002 0.0184000004
vt 0.658699989 0.0691
vt 0.290199995 0.160699993
vt 0.138500005 0.222100005
vt 0.290199995 0.222100005
vt 0.138500005 0.160699993
vt 0.290199995 0.0989999995
vt 0.138500005 0.0989999995
vt 0.138500005 0.283800006
vt 0.290199995 0.283800006
vt 0.138500005 0.222100005
vt 0.290199995 0.160699993
vt 0.290199995 0.222100005
vt 0.138500005 0.160699993
vt 0.126000002 0.104099996
vt 0.0165999997 0.213799998
vt 0.126000002 0.213799998
vt 0.0165999997 0.104099996
vn 0 -0.99394175 -0.109908128
vn 0 -0.933624785 -0.358252372
vn 0 -0.948081783 0.318026624
vn 0 -0.933624785 -0.358252372
vn 0 -0.850395525 0.526143945
vn 0 -0.96946791 0.245218212
vn 0 -0.984695787 -0.174281976
vn 0 -0.917070319 -0.398725507
vn 0 -0.99211642 -0.125319626
vn 0 -0.99936813 -0.0355435128
vn 0 -0.998242797 -0.0592563839
vn 0 -0.98195455 -0.189117059
vn 0 -0.960346305 -0.278809925
vn 0 -0.992777809 -0.119967585
vn 0 -0.999429374 -0.0337776093
vn 0 -0.999429374 -0.0337776093
vn 0 0 -1
vn 0 0 -1
vn 0 0 -1
vn 0 0 -1
vn 0 0 -1
vn 0 -0.103307563 -0.99464946
vn 0 -0.0384201482 -0.999261674
vn 0 -0.57746537 -0.81641518
vn 0 -0.212224916 -0.977220848
vn 0 -0.964573476 -0.263814347
vn 0 -0.940916558 0.338638496
vn 0 -0.77863492 0.62747722
vn 0 -0.87712969 0.480253586
vn 0 -0.301788002 -0.953375058
vn 0 -0.301788002 -0.953375058
vn 0 -0.258019567 0.966139691
vn 0 0.243336781 0.96994186
vn 0 0.393498961 0.919325061
vn 0 0.393498961 0.919325061
vn 0 0.324558517 -0.945865619
vn 0 0.51107512 -0.85953605
vn 0 -0.337098887 -0.941469246
vn 0 0.51107512 -0.85953605
vn 0 -0.980050029 -0.198750954
vn 0 -0.999946194 -0.0103734468
vn 0 -0.557644131 0.83008013
vn 0 -0.45459221 0.890699681
vn 0 -0.416844168 0.908977965
vn 0 -0.416844168 0.908977965
vn 0 -0.340334117 0.940304572
vn 0 0 1
vn 0 -0.396603391 0.91799006
vn 0 -0.412466481 0.910972778
vn 0 -0.397254816 0.917708348
vn 0 -0.469720598 0.882815133
vn 0 -0.64550142 0.76375907
vn 0 -0.866261429 0.499590969
vn 0 -0.866261429 0.499590969
vn 0 -0.966824937 0.255439899
vn 0 -0.924733326 0.380615653
vn 0 -0.993325455 0.115345308
vn 0 -0.924733326 0.380615653
vn 0 -0.99990669 -0.013660559
vn 0 -0.99990669 -0.013660559
vn -1 0 0
vn -1 0 0
vn -1 0 0
vn -0.975855992 0.217306725 -0.0219742841
vn -1 0 0
vn -0.996930039 -0.0748060436 -0.0231204094
vn -1 0 0
vn -0.999312904 0.031128463 -0.0201181176
vn -0.997688645 -0.0671433872 -0.0104467225
vn -1 0 0
vn -0.998146351 -0.0606761661 -0.00471849674
vn -0.999165528 -0.0359915746 -0.019309435
vn -0.998567221 -0.0513566986 -0.0150331346
vn -0.998774545 -0.0491074188 -0.00615380901
vn -0.999489666 0.0319424724 -0.000294974858
vn -0.999693245 -0.0160987143 -0.0188214695
vn -0.997034396 -0.0642567368 0.0423495569
vn -0.997384535 -0.0669054386 0.0273450529
vn -0.996862329 -0.066353879 0.0431585359
vn -0.995797309 -0.0904205831 0.0145546525
vn -0.996587292 -0.0825221758 0.0019648159
vn -1 0 0
vn -0.963849919 -0.173611271 0.202119917
vn -0.865837668 0.500140809 0.0135758732
vn -0.648887085 0.760710885 -0.0162634806
vn -0.830943881 0.502377349 -0.239059126
vn -0.741791082 0.670631039 0
vn -0.495959554 0.867541826 0.0373537316
vn -0.497975279 0.864416498 -0.0693162291
vn -0.275446045 0.48202953 -0.831731332
vn -0.496139752 0.868242677 0
vn -0.496139752 0.868242677 0
vn -0.730420568 0.565001326 -0.38374379
vn -0.647997254 0.710137923 0.275324698
vn -0.496139752 0.868242677 0
vn -0.472439181 0.826766768 0.305381615
vn 0.493149511 0.869150514 0.0371610641
vn -0.306168217 0.626435165 -0.716826343
vn -0.343702312 0.601477737 -0.721174911
vn -0.439083562 0.898386794 -0.0103340803
vn -0.496139483 0.868242831 1.84977963e-16
vn 0.64517876 0.712365355 0.276188286
vn 0.864936774 0.50169517 0.0136504204
vn 0.728223514 0.56677017 -0.385307782
vn 0.999300354 0.0314818037 -0.0201915463
vn 0.99950363 0.0315030978 -0.000222205362
vn 0.99811898 -0.0611452669 -0.00444496494
vn 0.999671492 -0.0186125663 -0.0176204283
vn 0.997048783 -0.0644863557 0.0416561345
vn 0.997384532 -0.0669054705 0.0273450775
vn 0.996862325 -0.0663539111 0.0431585778
vn 0.995797301 -0.0904206631 0.0145546654
vn 0.996587286 -0.0825222488 0.00196481764
vn 1 0 0
vn 0.96560457 -0.171126764 0.195763751
vn 0.997688645 -0.0671433834 -0.0104467213
vn 0.999165528 -0.0359915674 -0.0193094312
vn 0.998567221 -0.0513566883 -0.0150331316
vn 0.998774546 -0.0491074089 -0.00615380778
vn 0.996930039 -0.0748060436 -0.0231204094
vn 0.975488768 0.218950128 -0.0219660149
vn 1 0 0
vn 1 0 0
vn 1 0 0
vn 1 0 0
vn 1 0 0
vn 1 0 0
vn 1 0 0
vn 0.43681492 0.899492653 -0.0102806865
vn 0.493340622 0.869836209 1.8531743e-16
vn 0.30434581 0.626711015 -0.717361089
vn 0.341437359 0.60200671 -0.721809151
vn 0.493340891 0.869836057 0
vn 0.469693569 0.828142182 0.30588965
vn 0.646483093 0.762754329 -0.0162924768
vn 0.829412964 0.504381366 -0.240153228
vn 0.739648035 0.672993896 0
vn 0.495172806 0.866014648 -0.0694443823
vn 0.273544806 0.482301669 -0.832200901
vn 0.493340891 0.869836057 0
vn 0.493340891 0.869836057 0
vn -1 0 0
vn -1 0 0
vn -1 0 0
vn -1 0 0
vn -1 0 0
vn 1 0 0
vn 1 0 0
vn 1 0 0
vn 1 0 0
vn 0 0.00596926439 -0.999982184
vn 0 0.00596926439 -0.999982184
vn 0 0.00596926439 -0.999982184
vn 0 0.00596926439 -0.999982184
vn 0 -1 0
vn 0 -1 0
vn 0 -1 0
vn 0 -1 0
vn 0 -0.00598712856 0.999982077
vn 0 -0.00598712856 0.999982077
vn 0 -0.00598712856 0.999982077
vn 0 -0.00598712856 0.999982077
vn 0 0.999840728 0.017847117
vn 0 0.999840728 0.017847117
vn 0 0.999840728 0.017847117
vn 0 0.999840728 0.017847117
vn -0.892946112 -0.450163571 -1.52811157e-16
vn -0.892946112 0.450163571 1.52811157e-16
vn -0.444273318 0.895891299 3.04116537e-16
vn -0.444273318 -0.895891299 -3.04116537e-16
vn 0 -1 -3.3945696e-16
vn 0 -1 -3.3945696e-16
vn 0 1 3.3945696e-16
vn 0 1 3.3945696e-16
vn 1 0 0
vn 1 0 0
vn 1 0 0
vn 1 0 0
vn 0 0 -1
vn 0 0 -1
vn 0 0 -1
vn 0 0 -1

g gun01_submesh_0
usemtl MA72-Newlambert6
f 1/1/1 3/3/3 2/2/2
f 1/1/1 2/2/2 4/4/4
f 5/5/5 3/3/3 1/1/1
f 5/5/5 6/6/6 3/3/3
f 7/7/7 6/6/6 5/5/5
f 7/7/7 8/8/8 6/6/6
f 9/9/9 8/8/8 7/7/7
f 9/9/9 10/10/10 8/8/8
f 11/11/11 10/10/10 9/9/9
f 11/11/11 12/12/12 10/10/10
f 13/13/13 12/12/12 11/11/11
f 13/13/13 14/14/14 12/12/12
f 15/15/15 14/14/14 13/13/13
f 15/15/15 16/16/16 14/14/14
f 17/17/17 19/19/19 18/18/18
f 17/17/17 18/18/18 20/20/20
f 21/21/21 17/17/17 20/20/20
f 22/22/22 24/24/24 23/23/23
f 22/22/22 23/23/23 25/25/25
f 26/26/26 24/24/24 22/22/22
f 26/26/26 27/27/27 24/24/24
f 28/28/28 27/27/27 26/26/26
f 28/28/28 29/29/29 27/27/27
f 25/25/25 23/23/23 30/30/30
f 25/25/25 30/30/30 31/31/31
f 32/32/32 29/29/29 28/28/28
f 32/32/32 33/33/33 29/29/29
f 34/34/34 33/33/33 32/32/32
f 34/34/34 35/35/35 33/33/33
f 36/36/36 38/38/38 37/37/37
f 36/36/36 37/37/37 39/39/39
f 40/40/40 38/38/38 36/36/36
f 40/40/40 41/41/41 38/38/38
f 42/42/42 41/41/41 40/40/40
f 42/42/42 43/43/43 41/41/41
f 44/44/44 43/43/43 42/42/42
f 44/44/44 45/45/45 43/43/43
f 46/46/46 48/48/48 47/47/47
f 48/48/48 46/46/46 49/49/49
f 48/48/48 49/49/49 50/50/50
f 50/50/50 49/49/49 51/51/51
f 50/50/50 51/51/51 52/52/52
f 52/52/52 51/51/51 53/53/53
f 52/52/52 53/53/53 54/54/54
f 55/55/55 57/57/57 56/56/56
f 55/55/55 56/56/56 58/58/58
f 59/59/59 57/57/57 55/55/55
f 59/59/59 60/60/60 57/57/57
f 61/61/61 63/63/63 62/62/62
f 61/61/61 62/62/62 64/64/64
f 65/65/65 64/64/64 62/62/62
f 66/66/66 64/64/64 65/65/65
f 66/66/66 65/65/65 67/67/67
f 66/66/66 68/68/68 64/64/64
f 69/69/69 68/68/68 66/66/66
f 69/69/69 66/66/66 70/70/70
f 68/68/68 69/69/69 71/71/71
f 71/71/71 69/69/69 72/72/72
f 73/73/73 72/72/72 69/69/69
f 73/73/73 69/69/69 74/74/74
f 68/68/68 71/71/71 75/75/75
f 75/75/75 71/71/71 76/76/76
f 75/75/75 76/76/76 77/77/77
f 77/77/77 76/76/76 78/78/78
f 78/78/78 79/79/79 77/77/77
f 78/78/78 80/80/80 79/79/79
f 80/80/80 78/78/78 81/81/81
f 80/80/80 81/81/81 82/82/82
f 75/75/75 77/77/77 83/83/83
f 75/75/75 84/84/84 68/68/68
f 75/75/75 85/85/85 84/84/84
f 75/75/75 86/86/86 85/85/85
f 75/75/75 87/87/87 86/86/86
f 88/88/88 84/84/84 85/85/85
f 88/88/88 85/85/85 89/89/89
f 89/89/89 85/85/85 86/86/86
f 89/89/89 86/86/86 90/90/90
f 91/91/91 86/86/86 87/87/87
f 91/91/91 87/87/87 92/92/92
f 84/84/84 94/94/94 93/93/93
f 84/84/84 93/93/93 68/68/68
f 95/95/95 93/93/93 94/94/94
f 95/95/95 94/94/94 96/96/96
f 88/88/88 96/96/96 94/94/94
f 97/97/97 94/94/94 84/84/84
f 98/98/98 68/68/68 93/93/93
f 98/98/98 93/93/93 99/99/99
f 100/100/100 64/64/64 68/68/68
f 100/100/100 101/101/101 64/64/64
f 88/88/88 103/103/103 102/102/102
f 104/104/104 102/102/102 103/103/103
f 104/104/104 103/103/103 105/105/105
f 103/103/103 106/106/106 105/105/105
f 107/107/107 105/105/105 106/106/106
f 106/106/106 108/108/108 107/107/107
f 106/106/106 109/109/109 108/108/108
f 109/109/109 110/110/110 108/108/108
f 111/111/111 110/110/110 109/109/109
f 111/111/111 112/112/112 110/110/110
f 112/112/112 113/113/113 110/110/110
f 112/112/112 114/114/114 113/113/113
f 106/106/106 115/115/115 109/109/109
f 107/107/107 116/116/116 105/105/105
f 107/107/107 117/117/117 116/116/116
f 116/116/116 117/117/117 118/118/118
f 116/116/116 118/118/118 119/119/119
f 116/116/116 120/120/120 105/105/105
f 120/120/120 121/121/121 105/105/105
f 120/120/120 122/122/122 121/121/121
f 122/122/122 123/123/123 121/121/121
f 124/124/124 121/121/121 123/123/123
f 124/124/124 123/123/123 125/125/125
f 120/120/120 126/126/126 122/122/122
f 116/116/116 127/127/127 120/120/120
f 128/128/128 119/119/119 118/118/118
f 129/129/129 105/105/105 121/121/121
f 129/129/129 121/121/121 130/130/130
f 104/104/104 105/105/105 131/131/131
f 104/104/104 131/131/131 132/132/132
f 102/102/102 104/104/104 133/133/133
f 102/102/102 133/133/133 134/134/134
f 97/97/97 102/102/102 134/134/134
f 135/135/135 103/103/103 97/97/97
f 103/103/103 135/135/135 106/106/106
f 106/106/106 135/135/135 136/136/136
f 106/106/106 136/136/136 137/137/137
f 135/135/135 97/97/97 138/138/138
f 136/136/136 135/135/135 138/138/138
f 136/136/136 138/138/138 139/139/139
f 137/137/137 136/136/136 140/140/140
f 137/137/137 140/140/140 141/141/141
f 142/142/142 73/73/73 74/74/74
f 143/143/143 145/145/145 144/144/144
f 143/143/143 144/144/144 146/146/146
f 147/147/147 149/149/149 148/148/148
f 147/147/147 148/148/148 150/150/150
f 151/151/151 153/153/153 152/152/152
f 151/151/151 152/152/152 154/154/154
f 155/155/155 157/157/157 156/156/156
f 155/155/155 156/156/156 158/158/158
f 159/159/159 161/161/161 160/160/160
f 159/159/159 160/160/160 162/162/162
f 163/163/163 165/165/165 164/164/164
f 163/163/163 164/164/164 166/166/166
f 167/167/167 169/169/169 168/168/168
f 167/167/167 168/168/168 170/170/170
f 171/171/171 167/167/167 170/170/170
f 171/171/171 170/170/170 172/172/172
f 173/173/173 168/168/168 169/169/169
f 173/173/173 169/169/169 174/174/174
f 175/175/175 177/177/177 176/176/176
f 175/175/175 176/176/176 178/178/178
f 179/179/179 181/181/181 180/180/180
f 179/179/179 180/180/180 182/182/182
