# Generated from legacy Unity YAML Mesh assets without Unity.
mtllib gun16.mtl

o gun16
v 0.0689247464 0.36787945 -0.104762554
v 0.0689247613 0.392943084 -0.179383546
v 0.0655070012 0.277593762 -0.179383546
v 0.0689247464 0.392943084 -0.104762554
v 0.0655069789 0.277308881 -0.0341289267
v 0.0729121184 0.36787945 -0.0335592031
v 0.000854440115 0.410316646 -0.104762569
v 0.000854451407 0.410316646 -0.179383561
v -0.066931055 0.36787945 -0.104762577
v -0.0669310401 0.392943084 -0.179383576
v -0.066931055 0.392943084 -0.104762577
v -0.0637980933 0.277593762 -0.179383576
v -0.0637981156 0.277308881 -0.0341289416
v -0.0712032626 0.36787945 -0.033559218
v 0.000854451407 0.410316646 -0.179383561
v 0.000854440115 0.410316646 -0.104762569
v 0.000854440115 0.410316646 -0.104762569
v 0.0689247464 0.392943084 -0.104762554
v -0.066931055 0.392943084 -0.104762577
v 0.0689247464 0.36787945 -0.104762554
v -0.066931055 0.36787945 -0.104762577
v -0.0637980933 0.277593762 -0.179383576
v 0.0655069789 0.277308881 -0.0341289267
v 0.0655070012 0.277593762 -0.179383546
v -0.0637981156 0.277308881 -0.0341289416
v -0.0712032626 0.36787945 -0.033559218
v 0.0689247464 0.36787945 -0.104762554
v 0.0729121184 0.36787945 -0.0335592031
v -0.066931055 0.36787945 -0.104762577
v 0.0578170931 0.197561264 -0.450525552
v 0.0578170931 0.342531115 -0.450525552
v 0.0578171005 0.257656842 -0.489544958
v 0.057817108 0.342531115 -0.547931612
v 0.057817108 0.257656842 -0.547931612
v -0.0543992306 0.197561264 -0.450525552
v -0.0543992231 0.257656842 -0.489544958
v -0.0543992306 0.342531115 -0.450525552
v -0.0543992157 0.342531115 -0.547931612
v -0.0543992157 0.257656842 -0.547931612
v -0.0543992231 0.257656842 -0.489544958
v 0.0578170931 0.197561264 -0.450525552
v 0.0578171005 0.257656842 -0.489544958
v -0.0543992306 0.197561264 -0.450525552
v -0.0543992157 0.257656842 -0.547931612
v 0.057817108 0.257656842 -0.547931612
v -0.0543992157 0.342531115 -0.547931612
v 0.057817108 0.257656842 -0.547931612
v 0.057817108 0.342531115 -0.547931612
v -0.0543992157 0.257656842 -0.547931612
v -0.0543992306 0.342531115 -0.450525552
v 0.057817108 0.342531115 -0.547931612
v 0.0578170931 0.342531115 -0.450525552
v -0.0543992157 0.342531115 -0.547931612
v 0.0384498527 0.143446818 -0.753851295
v -0.0358863222 0.143446818 -0.869200706
v 0.0384498676 0.143446818 -0.869200706
v -0.0358863371 0.143446818 -0.753851295
v 0.0384498676 0.143446818 -0.869200706
v -0.0358863222 0.0656928644 -0.869200706
v 0.0384498676 0.0656928644 -0.869200706
v -0.0358863222 0.143446818 -0.869200706
v 0.0384498676 0.0656928644 -0.869200706
v -0.0358863371 0.0656928644 -0.753851295
v 0.0384498527 0.0656928644 -0.753851295
v -0.0358863222 0.0656928644 -0.869200706
v 0.0384498676 0.0656928644 -0.869200706
v 0.0384498527 0.143446818 -0.753851295
v 0.0384498676 0.143446818 -0.869200706
v 0.0384498527 0.0656928644 -0.753851295
v -0.0358863371 0.0656928644 -0.753851295
v -0.0358863222 0.143446818 -0.869200706
v -0.0358863371 0.143446818 -0.753851295
v -0.0358863222 0.0656928644 -0.869200706
v 0.0484182825 0.0235405862 -0.563596249
v 0.0333231864 -0.0826947093 -0.525716066
v 0.05382971 0.0235405862 -0.479006827
v 0.0287661822 -0.0909543037 -0.564735532
v 0.0361713199 -0.174404532 -0.538532734
v 0.0307598775 -0.144499123 -0.592932105
v 0.0421524001 -0.210860521 -0.581539512
v 0.0364561518 -0.168708265 -0.676951885
v 0.051836065 -0.225101173 -0.731920838
v 0.0467094322 -0.169277877 -0.758123517
v 0.0364561593 -0.14364472 -0.720813155
v -0.0299052997 -0.0826947093 -0.525716066
v -0.0450003827 0.0235405862 -0.563596249
v -0.0506966571 0.0235405862 -0.479006827
v -0.0256330995 -0.0909543037 -0.564735532
v -0.0327534275 -0.174404532 -0.538532734
v -0.0276267855 -0.144499123 -0.592932105
v -0.0387344929 -0.210860521 -0.581539512
v -0.0330382223 -0.168708265 -0.676951885
v -0.0487029227 -0.225101173 -0.731920838
v -0.0435762899 -0.169277877 -0.758123517
v -0.0330382148 -0.14364472 -0.720813155
v -0.0506966571 0.0235405862 -0.479006827
v 0.0333231864 -0.0826947093 -0.525716066
v -0.0299052997 -0.0826947093 -0.525716066
v 0.05382971 0.0235405862 -0.479006827
v -0.0327534275 -0.174404532 -0.538532734
v 0.0361713199 -0.174404532 -0.538532734
v -0.0387344929 -0.210860521 -0.581539512
v 0.0421524001 -0.210860521 -0.581539512
v -0.0487029227 -0.225101173 -0.731920838
v 0.051836065 -0.225101173 -0.731920838
v 0.0287661822 -0.0909543037 -0.564735532
v -0.0450003827 0.0235405862 -0.563596249
v -0.0256330995 -0.0909543037 -0.564735532
v 0.0484182825 0.0235405862 -0.563596249
v 0.0307598775 -0.144499123 -0.592932105
v -0.0276267855 -0.144499123 -0.592932105
v 0.0364561518 -0.168708265 -0.676951885
v -0.0330382223 -0.168708265 -0.676951885
v 0.0364561593 -0.14364472 -0.720813155
v -0.0330382148 -0.14364472 -0.720813155
v -0.0435762899 -0.169277877 -0.758123517
v 0.051836065 -0.225101173 -0.731920838
v 0.0467094322 -0.169277877 -0.758123517
v -0.0487029227 -0.225101173 -0.731920838
v -0.0330382148 -0.14364472 -0.720813155
v 0.0364561593 -0.14364472 -0.720813155
v 0.0213608807 0.0819271803 0.527807117
v 0.0279115913 0.126073226 0.44834432
v 0.0213608881 0.0611358657 0.482237071
v 0.0279115783 0.155408993 0.530085564
v 0.0239242026 0.00787582994 0.490781456
v 0.0304748928 0.00673654675 0.553440332
v 0.0281963916 -0.00807371736 0.531509638
v -0.0199370059 0.0819271803 0.527807117
v -0.0264876923 0.126073226 0.44834432
v -0.0264877053 0.155408993 0.530085564
v -0.0199369984 0.0611358657 0.482237071
v -0.0225003166 0.00787582994 0.490781456
v -0.0290510236 0.00673654675 0.553440332
v -0.0267725168 -0.00807371736 0.531509638
v -0.0264876923 0.126073226 0.44834432
v 0.0213608881 0.0611358657 0.482237071
v 0.0279115913 0.126073226 0.44834432
v -0.0199369984 0.0611358657 0.482237071
v 0.0239242026 0.00787582994 0.490781456
v -0.0225003166 0.00787582994 0.490781456
v -0.0199370059 0.0819271803 0.527807117
v 0.0279115783 0.155408993 0.530085564
v 0.0213608807 0.0819271803 0.527807117
v -0.0264877053 0.155408993 0.530085564
v -0.0290510236 0.00673654675 0.553440332
v 0.0304748928 0.00673654675 0.553440332
v -0.0267725168 -0.00807371736 0.531509638
v 0.0304748928 0.00673654675 0.553440332
v 0.0281963916 -0.00807371736 0.531509638
v -0.0290510236 0.00673654675 0.553440332
v -0.0225003166 0.00787582994 0.490781456
v 0.0239242026 0.00787582994 0.490781456
v 0.0330382203 0.425696552 0.503597975
v 0.0330382241 0.449051201 0.479388922
v 0.0825956901 0.380411267 0.432679623
v 0.0313293328 0.459304482 0.553155422
v 0.029620449 0.420000196 0.590750813
v 0.0387344537 0.486931324 0.658821106
v 0.0412977738 0.557564974 0.615529537
v 0.000854359905 0.411455929 0.426413745
v 0.0860135173 0.380411267 -0.0386858359
v 0.000854430161 0.408892512 -0.0386858508
v 0.0934186047 0.227466673 0.321317673
v 0.071487992 0.205251217 0.380558878
v 0.0552536239 0.280726701 0.549737811
v 0.0498421779 0.333417118 0.547174454
v 0.0586713766 0.184175044 0.55600369
v 0.0569624928 0.210377857 0.584769726
v 0.041297785 0.14088349 0.540623784
v 0.0917097767 0.238859206 0.00403606892
v 0.0917097842 0.240283251 -0.0403948277
v 0.0703487759 0.158257082 0.100587577
v 0.0609499206 0.158257082 0.321317673
v 0.0766146769 0.205536082 0.00432093441
v 0.032753407 0.112117365 0.484515518
v 0.0412978036 0.126642853 0.410749048
v 0.0390192857 0.369018704 0.552301049
v -0.0373106012 0.369018704 0.552301049
v 0.0330382203 0.425696552 0.503597975
v 0.0390192857 0.369018704 0.552301049
v -0.0310447095 0.425696552 0.503597975
v -0.0481334934 0.333417118 0.547174454
v 0.0498421779 0.333417118 0.547174454
v -0.0535449395 0.280726701 0.549737811
v 0.0552536239 0.280726701 0.549737811
v -0.055253827 0.210377857 0.584769726
v 0.0569624928 0.210377857 0.584769726
v -0.0917098606 0.227466673 0.321317673
v 0.071487992 0.205251217 0.380558878
v 0.0934186047 0.227466673 0.321317673
v -0.0694944421 0.205251217 0.380558878
v 0.0412978036 0.126642853 0.410749048
v -0.0395890857 0.126642853 0.410749048
v -0.0569626997 0.184175044 0.55600369
v 0.0569624928 0.210377857 0.584769726
v 0.0586713766 0.184175044 0.55600369
v -0.055253827 0.210377857 0.584769726
v -0.0393042909 0.14088349 0.540623784
v 0.041297785 0.14088349 0.540623784
v -0.0307598925 0.112117365 0.484515518
v 0.032753407 0.112117365 0.484515518
v -0.0395890857 0.126642853 0.410749048
v 0.0412978036 0.126642853 0.410749048
v -0.0293358369 0.459304482 0.553155422
v -0.0310447058 0.449051201 0.479388922
v -0.0393043021 0.557564974 0.615529537
v -0.0310447095 0.425696552 0.503597975
v 0.029620449 0.420000196 0.590750813
v 0.0330382203 0.425696552 0.503597975
v -0.0276269643 0.420000196 0.590750813
v 0.0387344537 0.486931324 0.658821106
v -0.0367409932 0.486931324 0.658821106
v 0.0412977738 0.557564974 0.615529537
v -0.0393043021 0.557564974 0.615529537
v -0.0592411692 0.158257082 0.321317673
v 0.0934186047 0.227466673 0.321317673
v 0.0609499206 0.158257082 0.321317673
v -0.0917098606 0.227466673 0.321317673
v -0.0686399648 0.158257082 0.100587547
v 0.0609499206 0.158257082 0.321317673
v 0.0703487759 0.158257082 0.100587577
v -0.0592411692 0.158257082 0.321317673
v -0.0746210227 0.205536082 0.00432090461
v 0.0766146769 0.205536082 0.00432093441
v 0.0917097767 0.238859206 0.00403606892
v -0.090000921 0.238859206 0.00403603911
v -0.0900009135 0.240283251 -0.0403948575
v 0.0917097842 0.240283251 -0.0403948277
v 0.000854430161 0.408892512 -0.0386858508
v -0.0840198407 0.380411267 -0.0386858657
v 0.0860135173 0.380411267 -0.0386858359
v -0.0900009135 0.240283251 -0.0403948575
v 0.0917097842 0.240283251 -0.0403948277
v -0.0310447095 0.425696552 0.503597975
v -0.0808869759 0.380411267 0.432679623
v -0.0310447058 0.449051201 0.479388922
v -0.0293358369 0.459304482 0.553155422
v -0.0276269643 0.420000196 0.590750813
v -0.0367409932 0.486931324 0.658821106
v -0.0393043021 0.557564974 0.615529537
v 0.000854359905 0.411455929 0.426413745
v -0.0840198407 0.380411267 -0.0386858657
v 0.000854430161 0.408892512 -0.0386858508
v -0.0917098606 0.227466673 0.321317673
v -0.0694944421 0.205251217 0.380558878
v -0.0535449395 0.280726701 0.549737811
v -0.0481334934 0.333417118 0.547174454
v -0.0569626997 0.184175044 0.55600369
v -0.055253827 0.210377857 0.584769726
v -0.0393042909 0.14088349 0.540623784
v -0.090000921 0.238859206 0.00403603911
v -0.0900009135 0.240283251 -0.0403948575
v -0.0686399648 0.158257082 0.100587547
v -0.0592411692 0.158257082 0.321317673
v -0.0746210227 0.205536082 0.00432090461
v -0.0307598925 0.112117365 0.484515518
v -0.0395890857 0.126642853 0.410749048
v -0.0373106012 0.369018704 0.552301049
v 0.0515511697 0.0451863185 -0.208719239
v 0.051551166 0.16423814 -0.173972055
v 0.0515511846 0.163383722 -0.286188304
v 0.0424371687 -0.00294707716 -0.286188334
v 0.0424371576 -0.00294707716 -0.216124415
v 0.0489878347 0.0431926399 -0.0959332436
v 0.0515511287 0.185029536 0.0715367496
v 0.0515511436 0.286707759 -0.0349833369
v 0.051551166 0.286707759 -0.173972055
v 0.0515511362 0.0406293273 0.0197008401
v 0.051551125 0.122655496 0.0872015208
v 0.0336079215 -0.0300043076 -0.0349833369
v 0.0381649127 -0.0300043076 0.085207656
v 0.0515511101 0.0318000913 0.192582309
v 0.0447156047 -0.0721565783 0.124511927
v 0.0572473621 -0.0525045395 0.227329493
v 0.0498422375 -0.126271129 0.147296995
v 0.0447156047 -0.118865937 0.123087794
v 0.0572473583 0.0127176791 0.234164953
v -0.0401586155 -0.00294707716 -0.21612443
v 0.0515511697 0.0451863185 -0.208719239
v 0.0424371576 -0.00294707716 -0.216124415
v -0.0492726313 0.0451863185 -0.208719254
v -0.0401586043 -0.00294707716 -0.286188334
v 0.0424371687 -0.00294707716 -0.286188334
v 0.0489878347 0.0431926399 -0.0959332436
v -0.0469941469 0.0431926399 -0.0959332585
v -0.0401586043 -0.00294707716 -0.286188334
v 0.0515511846 0.163383722 -0.286188304
v -0.0492726164 0.163383722 -0.286188334
v 0.0424371687 -0.00294707716 -0.286188334
v -0.049272676 0.122655496 0.0872015059
v 0.0515511287 0.185029536 0.0715367496
v 0.051551125 0.122655496 0.0872015208
v -0.0492726723 0.185029536 0.0715367347
v -0.0492726909 0.0318000913 0.192582309
v 0.0515511101 0.0318000913 0.192582309
v -0.0552537749 0.0127176791 0.234164953
v 0.0572473583 0.0127176791 0.234164953
v -0.0361712771 -0.0300043076 0.085207656
v 0.0447156047 -0.0721565783 0.124511927
v 0.0381649127 -0.0300043076 0.085207656
v -0.0424371707 -0.0721565783 0.124511927
v 0.0447156047 -0.118865937 0.123087794
v -0.0424371707 -0.118865937 0.123087794
v 0.0498422375 -0.126271129 0.147296995
v -0.0475638071 -0.126271129 0.147296995
v -0.0316142561 -0.0300043076 -0.0349833518
v 0.0336079215 -0.0300043076 -0.0349833369
v -0.0469941469 0.0431926399 -0.0959332585
v 0.0489878347 0.0431926399 -0.0959332436
v -0.0475638071 -0.126271129 0.147296995
v 0.0572473621 -0.0525045395 0.227329493
v 0.0498422375 -0.126271129 0.147296995
v -0.0552537712 -0.0525045395 0.227329493
v 0.0572473583 0.0127176791 0.234164953
v -0.0552537749 0.0127176791 0.234164953
v -0.0492726313 0.0451863185 -0.208719254
v -0.0492726164 0.163383722 -0.286188334
v -0.0492726351 0.16423814 -0.17397207
v -0.0401586043 -0.00294707716 -0.286188334
v -0.0401586155 -0.00294707716 -0.21612443
v -0.0469941469 0.0431926399 -0.0959332585
v -0.0492726723 0.185029536 0.0715367347
v -0.0492726574 0.286707759 -0.0349833518
v -0.0492726351 0.286707759 -0.17397207
v -0.0492726649 0.0406293273 0.0197008252
v -0.049272676 0.122655496 0.0872015059
v -0.0316142561 -0.0300043076 -0.0349833518
v -0.0361712771 -0.0300043076 0.085207656
v -0.0492726909 0.0318000913 0.192582309
v -0.0424371707 -0.0721565783 0.124511927
v -0.0552537712 -0.0525045395 0.227329493
v -0.0475638071 -0.126271129 0.147296995
v -0.0424371707 -0.118865937 0.123087794
v -0.0552537749 0.0127176791 0.234164953
v 0.0373105993 0.185599178 -0.743313313
v 0.0373105546 0.254523903 -0.44312036
v 0.0373105993 0.254523903 -0.743313313
v 0.0373105546 0.185599178 -0.44312036
v 0.00142411616 0.272467136 -0.44312036
v 0.00113934904 0.272467136 -0.743313313
v -0.0347470874 0.185599178 -0.743313313
v 0.0373105546 0.185599178 -0.44312036
v 0.0373105993 0.185599178 -0.743313313
v -0.0347471321 0.185599178 -0.44312036
v 0.00113934904 0.272467136 -0.743313313
v -0.0347470874 0.254523903 -0.743313313
v 0.0373105993 0.254523903 -0.743313313
v -0.0347470874 0.185599178 -0.743313313
v 0.0373105993 0.185599178 -0.743313313
v -0.0344623225 0.254523903 -0.44312036
v -0.0347470874 0.185599178 -0.743313313
v -0.0347470874 0.254523903 -0.743313313
v -0.0347471321 0.185599178 -0.44312036
v 0.00142411616 0.272467136 -0.44312036
v 0.00113934904 0.272467136 -0.743313313
v -0.0911400998 0.481804699 -0.461633235
v -0.182849937 0.316613168 -0.168560594
v -0.182849892 0.316613168 -0.461633265
v -0.0911401445 0.481804699 -0.168560579
v -0.0911401445 0.151706398 -0.168560579
v -0.0911400998 0.151706398 -0.461633235
v -0.0911401445 0.151706398 -0.168560579
v 0.0911402022 0.151706398 -0.461633235
v -0.0911400998 0.151706398 -0.461633235
v 0.0911401575 0.151706398 -0.16856055
v -0.0911401445 0.481804699 -0.168560579
v 0.0911402022 0.481804699 -0.461633235
v 0.0911401575 0.481804699 -0.16856055
v -0.0911400998 0.481804699 -0.461633235
v -0.0911401445 0.481804699 -0.168560579
v 0.18284995 0.316613168 -0.168560535
v -0.182849937 0.316613168 -0.168560594
v 0.0911401575 0.481804699 -0.16856055
v 0.0911401575 0.151706398 -0.16856055
v -0.0911401445 0.151706398 -0.168560579
v -0.0911400998 0.481804699 -0.461633235
v 0.182849995 0.316613168 -0.461633205
v 0.0911402022 0.481804699 -0.461633235
v -0.182849892 0.316613168 -0.461633265
v -0.0911400998 0.151706398 -0.461633235
v 0.0911402022 0.151706398 -0.461633235
v 0.18284995 0.316613168 -0.168560535
v 0.0911402022 0.481804699 -0.461633235
v 0.182849995 0.316613168 -0.461633205
v 0.0911401575 0.481804699 -0.16856055
v 0.0911401575 0.151706398 -0.16856055
v 0.0911402022 0.151706398 -0.461633235
v 0.02876624 0.247118711 -0.955498934
v 0.00113938105 0.261074573 -0.955498934
v -0.0264874818 0.247118711 -0.955498934
v 0.02876624 0.192434639 -0.955498934
v -0.0264874818 0.192434639 -0.955498934
v -0.0264875153 0.192434639 -0.727079034
v 0.02876624 0.192434639 -0.955498934
v -0.0264874818 0.192434639 -0.955498934
v 0.0287662064 0.192434639 -0.727079034
v 0.00113934659 0.261074573 -0.727079034
v 0.02876624 0.247118711 -0.955498934
v 0.0287662064 0.247118711 -0.727079034
v 0.00113938105 0.261074573 -0.955498934
v 0.0287662064 0.192434639 -0.727079034
v 0.02876624 0.192434639 -0.955498934
v -0.0264874818 0.247118711 -0.955498934
v 0.00113934659 0.261074573 -0.727079034
v -0.0264875153 0.247118711 -0.727079034
v 0.00113938105 0.261074573 -0.955498934
v -0.0264875153 0.192434639 -0.727079034
v -0.0264874818 0.192434639 -0.955498934
v 0.0116774337 0.251675814 -0.763819933
v 0.0116774402 0.273891151 -0.810814023
v 0.0116774402 0.251675814 -0.810814023
v 0.0116774337 0.273891151 -0.763819933
v 0.00142416517 0.282435536 -0.767237544
v 0.00142417123 0.282435536 -0.807396173
v 0.0116774337 0.273891151 -0.763819933
v -0.0091139153 0.251675814 -0.763819933
v -0.0091139153 0.273891151 -0.763819933
v 0.0116774337 0.251675814 -0.763819933
v 0.00142416517 0.282435536 -0.767237544
v 0.00142417123 0.282435536 -0.807396173
v -0.00911390878 0.273891151 -0.810814023
v 0.0116774402 0.273891151 -0.810814023
v -0.00911390878 0.251675814 -0.810814023
v 0.0116774402 0.251675814 -0.810814023
v -0.00911390878 0.273891151 -0.810814023
v -0.0091139153 0.251675814 -0.763819933
v -0.00911390878 0.251675814 -0.810814023
v -0.0091139153 0.273891151 -0.763819933
v 0.00142416517 0.282435536 -0.767237544
v 0.00142417123 0.282435536 -0.807396173
v 0.0694944178 0.0155657828 -0.397835016
v 0.0803173547 0.155978635 -0.764104605
v 0.06949447 0.0155657828 -0.742174029
v 0.0803172951 0.155978635 -0.366790533
v 0.0694944104 -0.0132003576 -0.366790533
v 0.06949447 0.000470727682 -0.764104605
v -0.068070204 0.0155657828 -0.742174029
v 0.0694944178 0.0155657828 -0.397835016
v 0.06949447 0.0155657828 -0.742174029
v -0.0680702562 0.0155657828 -0.397835076
v 0.0694944104 -0.0132003576 -0.366790533
v -0.0680702636 -0.0132003576 -0.366790563
v -0.068070204 0.000470727682 -0.764104605
v 0.06949447 0.000470727682 -0.764104605
v -0.0788931633 0.155978635 -0.366790563
v 0.0803173547 0.155978635 -0.764104605
v 0.0803172951 0.155978635 -0.366790533
v -0.0788931037 0.155978635 -0.764104605
v -0.0680702636 -0.0132003576 -0.366790563
v 0.0803172951 0.155978635 -0.366790533
v 0.0694944104 -0.0132003576 -0.366790533
v -0.0788931633 0.155978635 -0.366790563
v -0.0788931037 0.155978635 -0.764104605
v 0.06949447 0.000470727682 -0.764104605
v 0.0803173547 0.155978635 -0.764104605
v -0.068070204 0.000470727682 -0.764104605
v -0.0680702562 0.0155657828 -0.397835076
v -0.0788931037 0.155978635 -0.764104605
v -0.0788931633 0.155978635 -0.366790563
v -0.068070204 0.0155657828 -0.742174029
v -0.0680702636 -0.0132003576 -0.366790563
v -0.068070204 0.000470727682 -0.764104605
v -0.0327534424 0.345379233 -0.449386269
v 0.0270573021 0.355917335 -0.540241599
v -0.0267723548 0.355917335 -0.540241599
v 0.0330383619 0.345379233 -0.449386269
v 0.0330383619 0.463861376 -0.449386269
v -0.0267723548 0.453038573 -0.540241599
v 0.0270573021 0.453038573 -0.540241599
v -0.0327534424 0.463861376 -0.449386269
v -0.0267723548 0.453038573 -0.540241599
v 0.0541145345 0.40462029 -0.540241599
v 0.0270573021 0.453038573 -0.540241599
v -0.053829589 0.40462029 -0.540241599
v -0.0267723548 0.355917335 -0.540241599
v 0.0270573021 0.355917335 -0.540241599
v 0.0330383619 0.463861376 -0.449386269
v 0.0541145345 0.40462029 -0.540241599
v 0.0660766652 0.40462029 -0.449386269
v 0.0270573021 0.453038573 -0.540241599
v 0.0330383619 0.345379233 -0.449386269
v 0.0270573021 0.355917335 -0.540241599
v -0.053829589 0.40462029 -0.540241599
v -0.0327534424 0.463861376 -0.449386269
v -0.0655069361 0.40462029 -0.449386269
v -0.0267723548 0.453038573 -0.540241599
v -0.0327534424 0.345379233 -0.449386269
v -0.0267723548 0.355917335 -0.540241599
v -0.0629435713 0.196706861 -0.813377261
v -0.127311357 0.196706861 -0.450810432
v -0.127311298 0.196706861 -0.813377261
v -0.0629436234 0.196706861 -0.450810403
v -0.127311298 0.129775822 -0.813377261
v -0.127311357 0.129775822 -0.450810432
v -0.0629436234 0.129775822 -0.450810403
v -0.0629435713 0.129775822 -0.813377261
v -0.0629435713 0.129775822 -0.813377261
v -0.127311298 0.196706861 -0.813377261
v -0.127311298 0.129775822 -0.813377261
v -0.0629435713 0.196706861 -0.813377261
v -0.0629435713 0.196706861 -0.813377261
v -0.0629436234 0.129775822 -0.450810403
v -0.0629436234 0.196706861 -0.450810403
v -0.0629435713 0.129775822 -0.813377261
v -0.0629436234 0.196706861 -0.450810403
v -0.127311357 0.129775822 -0.450810432
v -0.127311357 0.196706861 -0.450810432
v -0.0629436234 0.129775822 -0.450810403
v 0.129589966 0.196706861 -0.450810373
v 0.0652222847 0.196706861 -0.813377261
v 0.129590026 0.196706861 -0.813377261
v 0.0652222326 0.196706861 -0.450810403
v 0.129590026 0.129775822 -0.813377261
v 0.129589966 0.129775822 -0.450810373
v 0.0652222326 0.129775822 -0.450810403
v 0.0652222847 0.129775822 -0.813377261
v 0.129590026 0.196706861 -0.813377261
v 0.0652222847 0.129775822 -0.813377261
v 0.129590026 0.129775822 -0.813377261
v 0.0652222847 0.196706861 -0.813377261
v 0.0652222326 0.129775822 -0.450810403
v 0.0652222847 0.196706861 -0.813377261
v 0.0652222326 0.196706861 -0.450810403
v 0.0652222847 0.129775822 -0.813377261
v 0.129589966 0.129775822 -0.450810373
v 0.0652222326 0.196706861 -0.450810403
v 0.129589966 0.196706861 -0.450810373
v 0.0652222326 0.129775822 -0.450810403
vt 0.458900005 0.372000009
vt 0.499500006 0.385600001
vt 0.500100017 0.324999988
vt 0.458799988 0.385199994
vt 0.4208 0.324099988
vt 0.420100003 0.371800005
vt 0.458499998 0.423400015
vt 0.499199986 0.423799992
vt 0.458900005 0.372000009
vt 0.499500006 0.385600001
vt 0.458799988 0.385199994
vt 0.500100017 0.324999988
vt 0.4208 0.324099988
vt 0.420100003 0.371800005
vt 0.499199986 0.423799992
vt 0.458499998 0.423400015
vt 0.578999996 0.472499996
vt 0.567799985 0.448300004
vt 0.568499982 0.496800005
vt 0.551800013 0.448399991
vt 0.55250001 0.496899992
vt 0.453299999 0.377200007
vt 0.423599988 0.403600007
vt 0.453299999 0.403600007
vt 0.423599988 0.377200007
vt 0.505800009 0.49849999
vt 0.551800013 0.448399991
vt 0.505100012 0.447100013
vt 0.55250001 0.496899992
vt 0.658599973 0.282200009
vt 0.658399999 0.363900006
vt 0.681400001 0.316000015
vt 0.715600014 0.363999993
vt 0.715600014 0.316100001
vt 0.658599973 0.282200009
vt 0.681400001 0.316000015
vt 0.658399999 0.363900006
vt 0.715600014 0.363999993
vt 0.715600014 0.316100001
vt 0.788200021 0.316100001
vt 0.762399971 0.357600003
vt 0.788200021 0.357600003
vt 0.762399971 0.316100001
vt 0.809899986 0.316100001
vt 0.809899986 0.357600003
vt 0.84009999 0.316100001
vt 0.809899986 0.357600003
vt 0.84009999 0.357600003
vt 0.809899986 0.316100001
vt 0.718599975 0.363599986
vt 0.760399997 0.315499991
vt 0.718599975 0.315499991
vt 0.760399997 0.363599986
vt 0.735099971 0.0650999993
vt 0.799799979 0.107000001
vt 0.799799979 0.0650999993
vt 0.735099971 0.107000001
vt 0.997500002 0.233799994
vt 0.951600015 0.185100004
vt 0.951600015 0.233799994
vt 0.997500002 0.185100004
vt 0.873000026 0.0173000004
vt 0.828299999 0.0864000022
vt 0.873000026 0.0864000022
vt 0.828299999 0.0173000004
vt 0.949500024 0.185599998
vt 0.874300003 0.234300002
vt 0.949500024 0.234300002
vt 0.874300003 0.185599998
vt 0.874300003 0.185599998
vt 0.949500024 0.234300002
vt 0.874300003 0.234300002
vt 0.949500024 0.185599998
vt 0.714600027 0.148900002
vt 0.6954 0.0908999965
vt 0.667599976 0.147799999
vt 0.717400014 0.0869000033
vt 0.703100026 0.0421000011
vt 0.733200014 0.058600001
vt 0.727199972 0.0226000007
vt 0.779900014 0.0454999991
vt 0.810699999 0.0144999996
vt 0.825299978 0.0443000011
vt 0.804400027 0.058699999
vt 0.6954 0.0908999965
vt 0.714600027 0.148900002
vt 0.667599976 0.147799999
vt 0.717400014 0.0869000033
vt 0.703100026 0.0421000011
vt 0.733200014 0.058600001
vt 0.727199972 0.0226000007
vt 0.779900014 0.0454999991
vt 0.810699999 0.0144999996
vt 0.825299978 0.0443000011
vt 0.804400027 0.058699999
vt 0.912899971 0.00789999962
vt 0.882300019 0.0505999997
vt 0.905099988 0.0507999994
vt 0.875100017 0.00760000013
vt 0.905900002 0.0848999992
vt 0.881099999 0.0847000033
vt 0.907899976 0.106200002
vt 0.878799975 0.105999999
vt 0.91109997 0.164000005
vt 0.874800026 0.163699999
vt 0.76910001 0.118199997
vt 0.719500005 0.1505
vt 0.76880002 0.142499998
vt 0.720000029 0.108800001
vt 0.795300007 0.117600001
vt 0.7949 0.143700004
vt 0.834200025 0.115699999
vt 0.833800018 0.146699995
vt 0.856599987 0.115999997
vt 0.85619998 0.147
vt 0.666800022 0.128600001
vt 0.62620002 0.103100002
vt 0.628300011 0.1285
vt 0.66900003 0.103200004
vt 0.662199974 0.147499993
vt 0.632700026 0.147499993
vt 0.0667999983 0.204600006
vt 0.113799997 0.217999995
vt 0.0885000005 0.188899994
vt 0.074000001 0.242300004
vt 0.0781000033 0.162900001
vt 0.0447000004 0.169400007
vt 0.0548 0.159400001
vt 0.0667999983 0.204600006
vt 0.113799997 0.217999995
vt 0.074000001 0.242300004
vt 0.0885000005 0.188899994
vt 0.0781000033 0.162900001
vt 0.0447000004 0.169400007
vt 0.0548 0.159400001
vt 0.195299998 0.159799993
vt 0.137099996 0.188299999
vt 0.194199994 0.193599999
vt 0.137899995 0.162799999
vt 0.0952999964 0.189199999
vt 0.0961999968 0.160300002
vt 0.00939999986 0.214900002
vt 0.0417999998 0.265799999
vt 0.0372000001 0.214900002
vt 0.00480000023 0.265799999
vt 0.00300000003 0.159899995
vt 0.0434999987 0.159899995
vt 0.140400007 0.225299999
vt 0.158600003 0.195899993
vt 0.143600002 0.195500001
vt 0.155100003 0.228100002
vt 0.115999997 0.220400006
vt 0.118699998 0.195199996
vt 0.0976999998 0.404199988
vt 0.1074 0.417899996
vt 0.146400005 0.376199991
vt 0.0683000013 0.420599997
vt 0.0485000014 0.397700012
vt 0.00719999988 0.431699991
vt 0.0291000009 0.471899986
vt 0.150399998 0.426600009
vt 0.419099987 0.373699993
vt 0.41929999 0.425399989
vt 0.210099995 0.290499985
vt 0.173899993 0.277799994
vt 0.0764999986 0.32100001
vt 0.0772999972 0.350499988
vt 0.0724000037 0.2676
vt 0.0559 0.282200009
vt 0.0803000033 0.241300002
vt 0.393700004 0.29519999
vt 0.419400007 0.295700014
vt 0.337599993 0.248999998
vt 0.209800005 0.247600004
vt 0.393599987 0.274699986
vt 0.112099998 0.223499998
vt 0.155000001 0.231399998
vt 0.0724000037 0.370700002
vt 0.269899994 0.0864999965
vt 0.318699986 0.0263999999
vt 0.269899994 0.0211999994
vt 0.318699986 0.0812000036
vt 0.246800005 0.0957999974
vt 0.246800005 0.0120000001
vt 0.212799996 0.100400001
vt 0.212699994 0.00730000017
vt 0.156900004 0.101899996
vt 0.161699995 0.00590000022
vt 0.264699996 0.203099996
vt 0.216000006 0.183899999
vt 0.212799996 0.203099996
vt 0.261500001 0.183899999
vt 0.225700006 0.160400003
vt 0.251800001 0.160400003
vt 0.00300000003 0.1285
vt 0.0795999989 0.155100003
vt 0.0810000002 0.1294
vt 0.00389999989 0.154300004
vt 0.0152000003 0.0987000018
vt 0.0694999993 0.0992999971
vt 0.0212999992 0.0566000007
vt 0.064199999 0.057
vt 0.0161000006 0.0057000001
vt 0.070600003 0.00630000001
vt 0.0856999978 0.446999997
vt 0.116499998 0.446799994
vt 0.0599999987 0.493000001
vt 0.0103000002 0.274199992
vt 0.0386000015 0.314300001
vt 0.0399000011 0.273999989
vt 0.0120999999 0.314500004
vt 0.0432000011 0.357600003
vt 0.00820000004 0.357899994
vt 0.0445999987 0.394899994
vt 0.00730000017 0.395200014
vt 0.307599992 0.435400009
vt 0.28490001 0.496699989
vt 0.307700008 0.489300013
vt 0.284700006 0.428200006
vt 0.383399993 0.433499992
vt 0.307700008 0.489300013
vt 0.383599997 0.49059999
vt 0.307599992 0.435400009
vt 0.419999987 0.430900007
vt 0.420100003 0.493000001
vt 0.431199998 0.499199986
vt 0.430999994 0.424600005
vt 0.446200013 0.424499989
vt 0.446399987 0.499199986
vt 0.475300014 0.495900005
vt 0.499799997 0.488099992
vt 0.450800002 0.487899989
vt 0.501699984 0.449299991
vt 0.449299991 0.449099988
vt 0.0976999998 0.404199988
vt 0.146400005 0.376199991
vt 0.1074 0.417899996
vt 0.0683000013 0.420599997
vt 0.0485000014 0.397700012
vt 0.00719999988 0.431699991
vt 0.0291000009 0.471899986
vt 0.150399998 0.426600009
vt 0.419099987 0.373699993
vt 0.41929999 0.425399989
vt 0.210099995 0.290499985
vt 0.173899993 0.277799994
vt 0.0764999986 0.32100001
vt 0.0772999972 0.350499988
vt 0.0724000037 0.2676
vt 0.0559 0.282200009
vt 0.0803000033 0.241300002
vt 0.393700004 0.29519999
vt 0.419400007 0.295700014
vt 0.337599993 0.248999998
vt 0.209800005 0.247600004
vt 0.393599987 0.274699986
vt 0.112099998 0.223499998
vt 0.155000001 0.231399998
vt 0.0724000037 0.370700002
vt 0.522499979 0.186900005
vt 0.50120002 0.254999995
vt 0.568099976 0.254900008
vt 0.569000006 0.159500003
vt 0.5273 0.158899993
vt 0.455199987 0.185299993
vt 0.354999989 0.265700012
vt 0.418000013 0.324400008
vt 0.500800014 0.324999988
vt 0.386400014 0.183300003
vt 0.345899999 0.230000004
vt 0.41929999 0.141900003
vt 0.347600013 0.142100006
vt 0.283199996 0.1778
vt 0.323799998 0.118000001
vt 0.262100011 0.1294
vt 0.309799999 0.0870999992
vt 0.324499995 0.0913000032
vt 0.25819999 0.166899994
vt 0.223499998 0.206900001
vt 0.205400005 0.246900007
vt 0.223100007 0.243100002
vt 0.205799997 0.203099996
vt 0.249799997 0.207100004
vt 0.249500006 0.243499994
vt 0.162900001 0.245199993
vt 0.163200006 0.202800006
vt 0.249799997 0.207100004
vt 0.309799999 0.248500004
vt 0.310200006 0.203899994
vt 0.249500006 0.243499994
vt 0.158500001 0.1065
vt 0.139799997 0.156100005
vt 0.158500001 0.156100005
vt 0.139799997 0.1065
vt 0.234300002 0.1065
vt 0.234300002 0.156100005
vt 0.255800009 0.103600003
vt 0.255800009 0.158999994
vt 0.131999999 0.0623000003
vt 0.0886000022 0.0381999984
vt 0.0914999992 0.0617000014
vt 0.136099994 0.0388999991
vt 0.0890000015 0.0196000002
vt 0.136600003 0.0203000009
vt 0.0864999965 0.00910000037
vt 0.139599994 0.00980000012
vt 0.128399998 0.112099998
vt 0.0927999988 0.111599997
vt 0.135900006 0.150999993
vt 0.0834000036 0.150299996
vt 0.1338 0.454299986
vt 0.104599997 0.497799993
vt 0.1338 0.494700015
vt 0.104599997 0.451200008
vt 0.0873000026 0.497799993
vt 0.0873000026 0.451200008
vt 0.522499979 0.186900005
vt 0.568099976 0.254900008
vt 0.50120002 0.254999995
vt 0.569000006 0.159500003
vt 0.5273 0.158899993
vt 0.455199987 0.185299993
vt 0.354999989 0.265700012
vt 0.418000013 0.324400008
vt 0.500800014 0.324999988
vt 0.386400014 0.183300003
vt 0.345899999 0.230000004
vt 0.41929999 0.141900003
vt 0.347600013 0.142100006
vt 0.283199996 0.1778
vt 0.323799998 0.118000001
vt 0.262100011 0.1294
vt 0.309799999 0.0870999992
vt 0.324499995 0.0913000032
vt 0.25819999 0.166899994
vt 0.8574 0.249899998
vt 0.682600021 0.288399994
vt 0.8574 0.288399994
vt 0.682600021 0.249899998
vt 0.682600021 0.311699986
vt 0.8574 0.311699986
vt 0.843400002 0.360300004
vt 0.763199985 0.38319999
vt 0.843400002 0.38319999
vt 0.763199985 0.360300004
vt 0.728699982 0.497299999
vt 0.743300021 0.490099996
vt 0.71420002 0.489800006
vt 0.743499994 0.461800009
vt 0.714399993 0.461600006
vt 0.682600021 0.288399994
vt 0.8574 0.249899998
vt 0.8574 0.288399994
vt 0.682600021 0.249899998
vt 0.682600021 0.311699986
vt 0.8574 0.311699986
vt 0.658999979 0.443800002
vt 0.500699997 0.344799995
vt 0.658999979 0.344799995
vt 0.500699997 0.443800002
vt 0.500699997 0.245900005
vt 0.658999979 0.245900005
vt 0.526499987 0.0614
vt 0.438699991 0.00659999996
vt 0.438699991 0.0614
vt 0.526499987 0.00659999996
vt 0.527700007 0.0998999998
vt 0.687300026 0.00499999989
vt 0.527700007 0.00499999989
vt 0.687300026 0.0998999998
vt 0.349799991 0.1228
vt 0.442600012 0.0692000017
vt 0.318899989 0.0692000017
vt 0.41170001 0.1228
vt 0.41170001 0.0155999996
vt 0.349799991 0.0155999996
vt 0.460099995 0.0775000006
vt 0.541199982 0.1259
vt 0.515900016 0.0775000006
vt 0.432200015 0.1259
vt 0.460099995 0.174199998
vt 0.515900016 0.174199998
vt 0.500699997 0.344799995
vt 0.658999979 0.443800002
vt 0.658999979 0.344799995
vt 0.500699997 0.443800002
vt 0.500699997 0.245900005
vt 0.658999979 0.245900005
vt 0.709299982 0.407999992
vt 0.731700003 0.41870001
vt 0.754100025 0.407999992
vt 0.709299982 0.365500003
vt 0.754100025 0.365500003
vt 0.992999971 0.327899992
vt 0.860199988 0.3037
vt 0.860199988 0.327899992
vt 0.992999971 0.3037
vt 0.858699977 0.300999999
vt 0.993300021 0.282000005
vt 0.858699977 0.282000005
vt 0.993300021 0.300999999
vt 0.858699977 0.249200001
vt 0.993300021 0.249200001
vt 0.993300021 0.282000005
vt 0.858699977 0.300999999
vt 0.858699977 0.282000005
vt 0.993300021 0.300999999
vt 0.858699977 0.249200001
vt 0.993300021 0.249200001
vt 0.646300018 0.448799998
vt 0.706799984 0.476200014
vt 0.706799984 0.448799998
vt 0.646300018 0.476200014
vt 0.65079999 0.493299991
vt 0.702199996 0.493299991
vt 0.988900006 0.408899993
vt 0.961099982 0.388000011
vt 0.961099982 0.408899993
vt 0.988900006 0.388000011
vt 0.975000024 0.417600006
vt 0.975499988 0.495900005
vt 0.988699973 0.486000001
vt 0.962499976 0.485700011
vt 0.989000022 0.462000012
vt 0.962800026 0.461699992
vt 0.706799984 0.476200014
vt 0.646300018 0.448799998
vt 0.706799984 0.448799998
vt 0.646300018 0.476200014
vt 0.65079999 0.493299991
vt 0.702199996 0.493299991
vt 0.625999987 0.151999995
vt 0.872099996 0.243900001
vt 0.857599974 0.152700007
vt 0.604900002 0.243100002
vt 0.605199993 0.133300006
vt 0.872399986 0.143000007
vt 0.273400009 0.42899999
vt 0.164499998 0.497099996
vt 0.273400009 0.497099996
vt 0.164499998 0.42899999
vt 0.1514 0.497099996
vt 0.1514 0.42899999
vt 0.281699985 0.42899999
vt 0.281699985 0.497099996
vt 0.861699998 0.382699996
vt 0.991599977 0.331099987
vt 0.861699998 0.331099987
vt 0.991599977 0.382699996
vt 0.91930002 0.0908000022
vt 0.993900001 0.172000006
vt 0.988099992 0.0904999971
vt 0.914200008 0.172299996
vt 0.995000005 0.0807999969
vt 0.921899974 0.00639999984
vt 0.916199982 0.0804999992
vt 0.99000001 0.00669999979
vt 0.625999987 0.151999995
vt 0.872099996 0.243900001
vt 0.604900002 0.243100002
vt 0.857599974 0.152700007
vt 0.605199993 0.133300006
vt 0.872399986 0.143000007
vt 0.570900023 0.208700001
vt 0.601599991 0.161799997
vt 0.5722 0.161799997
vt 0.602900028 0.208700001
vt 0.541199982 0.1021
vt 0.602400005 0.151099995
vt 0.602400005 0.106799997
vt 0.541199982 0.156000003
vt 0.628000021 0.496800005
vt 0.584599972 0.471799999
vt 0.599099994 0.496800005
vt 0.642400026 0.471799999
vt 0.628000021 0.446799994
vt 0.599099994 0.446799994
vt 0.659600019 0.4375
vt 0.707400024 0.401199996
vt 0.659600019 0.401300013
vt 0.707400024 0.430900007
vt 0.659600019 0.365099996
vt 0.707400024 0.371499985
vt 0.707400024 0.401199996
vt 0.659600019 0.4375
vt 0.659600019 0.401300013
vt 0.707400024 0.430900007
vt 0.659600019 0.365099996
vt 0.707400024 0.371499985
vt 0.956399977 0.495200008
vt 0.755200028 0.458799988
vt 0.957099974 0.459199995
vt 0.755900025 0.495200008
vt 0.957199991 0.421400011
vt 0.755200028 0.421799988
vt 0.755800009 0.38530001
vt 0.956499994 0.38530001
vt 0.995700002 0.421000004
vt 0.957099974 0.459199995
vt 0.957199991 0.421400011
vt 0.995700002 0.459600002
vt 0.957799971 0.458799988
vt 0.754499972 0.421799988
vt 0.754499972 0.458799988
vt 0.957799971 0.421799988
vt 0.712899983 0.458099991
vt 0.755200028 0.421799988
vt 0.754499972 0.458799988
vt 0.713500023 0.421099991
vt 0.755200028 0.458799988
vt 0.956399977 0.495200008
vt 0.957099974 0.459199995
vt 0.755900025 0.495200008
vt 0.957199991 0.421400011
vt 0.755200028 0.421799988
vt 0.755800009 0.38530001
vt 0.956499994 0.38530001
vt 0.957099974 0.459199995
vt 0.995700002 0.421000004
vt 0.957199991 0.421400011
vt 0.995700002 0.459600002
vt 0.754499972 0.421799988
vt 0.957799971 0.458799988
vt 0.754499972 0.458799988
vt 0.957799971 0.421799988
vt 0.755200028 0.421799988
vt 0.712899983 0.458099991
vt 0.754499972 0.458799988
vt 0.713500023 0.421099991
vn 0.998989136 -0.0424181793 -0.014879638
vn 0.797024708 0.603924111 -0.00522334047
vn 0.999395354 -0.034540862 -0.00398189822
vn 0.529041665 0.84859585 1.05645006e-07
vn 0.998472479 -0.052075802 -0.0184612938
vn 0.995153779 -0.0810142066 -0.0557283917
vn 0.247301845 0.96893849 4.34039257e-08
vn 0.247301839 0.968938492 3.74238284e-08
vn -0.999066009 -0.0403349261 -0.0154984644
vn -0.925316451 0.379145594 -0.00617119671
vn -0.403640373 0.914917728 -7.4933039e-08
vn -0.999491853 -0.0316655578 -0.00365075505
vn -0.998555317 -0.0499625806 -0.0197742354
vn -0.994927208 -0.0809708077 -0.0596957179
vn -0.24827701 0.968689076 -4.35750732e-08
vn -0.248277004 0.968689078 -3.75713973e-08
vn -1.64525486e-07 2.1307438e-07 1
vn -1.64525486e-07 8.72315162e-08 1
vn -1.64525486e-07 5.484171e-08 1
vn -1.64525486e-07 0 1
vn -1.64525486e-07 0 1
vn 3.39021699e-10 -0.999998077 -0.00196124459
vn 3.39021699e-10 -0.999998077 -0.00196124459
vn 4.52028955e-10 -0.999998077 -0.0019612447
vn 2.26014454e-10 -0.999998077 -0.00196124449
vn 0 1 0
vn 0 1 0
vn 0 1 0
vn 0 1 0
vn 1 0 1.90945516e-07
vn 1 1.03632732e-08 1.68403521e-07
vn 1 7.64309284e-09 1.57695295e-07
vn 1 1.09127655e-08 1.43471035e-07
vn 1 0 1.27607597e-07
vn -1 0 -1.90945516e-07
vn -1 -7.64309284e-09 -1.57695295e-07
vn -1 -1.03632732e-08 -1.68403521e-07
vn -1 -1.09127655e-08 -1.43471035e-07
vn -1 0 -1.27607597e-07
vn 0 -0.750340394 -0.661051657
vn 0 -0.544569149 -0.838715949
vn 0 -0.932993407 -0.359893459
vn 0 -0.544569149 -0.838715949
vn 0 -1 0
vn 0 -1 0
vn 0 0 -1
vn 0 0 -1
vn 0 0 -1
vn 0 0 -1
vn 0 1 0
vn 0 1 0
vn 0 1 0
vn 0 1 0
vn 0 1 2.40621735e-16
vn 0 1 2.40621735e-16
vn 0 1 2.40621735e-16
vn 0 1 2.40621735e-16
vn 0 0 -1
vn 0 0 -1
vn 0 0 -1
vn 0 0 -1
vn 0 -1 -2.40621735e-16
vn 0 -1 -2.40621735e-16
vn 0 -1 -2.40621735e-16
vn 0 -1 -2.40621735e-16
vn 1 0 1.2918281e-07
vn 1 0 1.2918281e-07
vn 1 0 1.2918281e-07
vn 1 0 1.2918281e-07
vn -1 0 -1.2918281e-07
vn -1 0 -1.2918281e-07
vn -1 0 -1.2918281e-07
vn -1 0 -1.2918281e-07
vn 0.984052109 -0.164209511 -0.0683862822
vn 0.98935097 -0.121289644 -0.0804579422
vn 0.984715143 -0.162381377 -0.0629950467
vn 0.995734804 -0.0282056412 -0.0878444149
vn 0.993469835 0.0935627122 -0.0652970625
vn 0.989868753 0.141539073 -0.011249135
vn 0.980332466 0.195894609 0.0239490701
vn 0.97961937 0.1913655 0.0610338862
vn 0.977808613 0.196886093 0.0715973655
vn 0.978161276 0.168000024 0.122378555
vn 0.969797063 0.211775986 0.121014829
vn -0.98944576 -0.121514773 -0.0789382567
vn -0.984052086 -0.164209508 -0.0683866215
vn -0.984314552 -0.163497075 -0.0662840058
vn -0.996248312 -0.028296262 -0.0817839969
vn -0.993983975 0.0913453075 -0.0604308963
vn -0.99038479 0.137962977 -0.0102071135
vn -0.980454992 0.195204912 0.0245570817
vn -0.979369654 0.192286277 0.0621374917
vn -0.97711468 0.19951045 0.0737731765
vn -0.97725866 0.170797139 0.125673583
vn -0.968176217 0.217294913 0.124168167
vn 0 -0.402491046 0.915423922
vn 0 -0.303281939 0.952900869
vn 0 -0.28797973 0.957636505
vn 0 -0.402491046 0.915423922
vn 0 -0.30333432 0.952884196
vn 0 -0.52803693 0.849221408
vn 0 -0.942252015 0.334904672
vn 0 -0.984209421 0.177007951
vn 0 -0.995546177 0.0942751822
vn 0 -0.995546177 0.0942751822
vn 0 0.0854982904 -0.996338317
vn 0 0.00995002295 -0.999950497
vn 0 0.255514174 -0.96680531
vn 0 0.00995002295 -0.999950497
vn 0 0.735312326 -0.6777284
vn 0 0.89365348 -0.448757683
vn 0 0.995215242 -0.0977068138
vn 0 0.988803693 0.149222172
vn 0 0.868243469 0.496138367
vn 0 0.868243469 0.496138367
vn 0 -0.12483925 -0.992176981
vn 0 -0.4249059 -0.905237525
vn 0 0.366243012 -0.93051924
vn 0 -0.4249059 -0.905237525
vn 0 0.824224603 -0.566263017
vn 0 0.824224603 -0.566263017
vn 0.999752115 -0.0185863622 -0.0122579205
vn 0.995673023 -0.0864650134 0.0340445785
vn 0.999492819 -0.0289719327 0.0132185957
vn 0.995444388 -0.0897397004 0.0322064579
vn 0.995068637 0.0629008228 -0.0766935139
vn 0.99219239 0.071142316 -0.102435506
vn 0.994580855 0.000931839356 -0.103961797
vn -0.999752111 -0.0185863746 -0.0122582251
vn -0.995673032 -0.0864650322 0.0340442654
vn -0.995444397 -0.0897397167 0.0322061462
vn -0.999492823 -0.0289719389 0.0132182717
vn -0.995068615 0.0629008191 -0.0766937997
vn -0.992192363 0.0711423032 -0.102435769
vn -0.994580827 0.000931857603 -0.10396206
vn 0 -0.462698942 -0.886515476
vn 0 -0.393030015 -0.919525642
vn 0 -0.462698942 -0.886515476
vn 0 -0.280523584 -0.959847133
vn 0 -0.158402253 -0.987374663
vn 0 -0.158402253 -0.987374663
vn 0 0.0826343203 0.996579936
vn 0 -0.0309920586 0.999519631
vn 0 0.228391311 0.973569417
vn 0 -0.0309920586 0.999519631
vn 0 0.32267444 0.946510014
vn 0 0.32267444 0.946510014
vn 0 -0.985458392 0.169916912
vn 0 -0.828725199 0.559655738
vn 0 -0.988859712 -0.148850492
vn 0 -0.828725199 0.559655738
vn 0 -0.931146291 -0.364645835
vn 0 -0.931146291 -0.364645835
vn 0.925768273 0.257015919 0.27730114
vn 0.326339933 0.887867401 -0.324335823
vn 0.945364992 0.31812755 0.0712733799
vn 0.700376394 0.451017694 -0.553223233
vn 0.998276332 -0.0569534139 -0.0141659661
vn 0.995887397 -0.0755222814 -0.0500467533
vn 0.674635092 0.345596482 -0.652250384
vn 0.327240232 0.942155584 -0.0725030119
vn 0.871228703 0.490875334 0.0013978094
vn 0.317174262 0.948352871 -0.00522684081
vn 0.99810326 -0.0562395438 0.0250398991
vn 0.980110237 -0.157289951 0.12101155
vn 0.990438111 -0.023773905 0.135893889
vn 0.905273918 0.253768857 0.340705885
vn 0.994488065 -0.0882857253 0.0565607504
vn 0.998985864 0.0370249471 0.0256202486
vn 0.930982294 -0.363889698 0.0292618525
vn 0.996581608 -0.081516527 -0.0134221841
vn 0.999174591 0.0406010239 0.00130146156
vn 0.940171395 -0.34066284 -0.00515531661
vn 0.904652792 -0.424404846 0.0385208035
vn 0.901154247 -0.409432982 -0.142427724
vn 0.937014031 -0.347210701 0.0380714471
vn 0.937886308 -0.344536282 0.0407924489
vn 0.947009937 0.260914728 0.18733842
vn 0 0.516956106 0.856011907
vn 0 0.65173248 0.758448926
vn 0 0.258983958 0.965881623
vn 0 0.65173248 0.758448926
vn 0 -0.056423972 0.998406899
vn 0 0.00192966392 0.999998138
vn 0 0.227896037 0.973685471
vn 0 0.352710047 0.935732666
vn 0 0.445762345 0.895151346
vn 0 0.445762345 0.895151346
vn 0 -0.936329158 -0.351123493
vn 0 -0.789504562 -0.613744692
vn 0 -0.936329158 -0.351123493
vn 0 -0.590433159 -0.807086541
vn 0 -0.358525748 -0.933519838
vn 0 -0.358525748 -0.933519838
vn 0 -0.604660282 0.796483486
vn 0 -0.739276198 0.673402334
vn 0 -0.482240219 0.876039024
vn 0 -0.739276198 0.673402334
vn 0 -0.571972442 0.820272836
vn 0 -0.773758063 0.633481223
vn 0 -0.969599259 0.244698341
vn 0 -0.999819072 -0.0190216656
vn 0 -0.981159044 -0.193201789
vn 0 -0.981159044 -0.193201789
vn 0 0.873427347 -0.486954485
vn 0 0.935549275 -0.353196198
vn 0 0.535925472 -0.844265295
vn 0 -0.99787082 -0.0652213721
vn 0 -0.977252072 0.212081087
vn 0 -0.99787082 -0.0652213721
vn 0 -0.853630631 0.52087882
vn 0 -0.375953683 0.926638456
vn 0 0.100214947 0.994965811
vn 0 0.522561855 0.852601376
vn 0 0.522561855 0.852601376
vn 0 0 1
vn 0 0 1
vn 0 0 1
vn 0 0 1
vn 1.98750876e-08 -0.995694903 -0.0926912123
vn 2.89179538e-23 -1 -2.51488802e-16
vn 4.68094788e-08 -0.973679217 -0.227922754
vn 0 -1 -2.51488785e-16
vn 1.28319414e-07 -0.748768203 -0.662831938
vn 1.26285701e-07 -0.767663658 -0.640852954
vn 1.03730016e-07 -0.813474578 -0.581600474
vn 1.00634919e-07 -0.789623896 -0.613591153
vn 5.25393996e-09 -0.99948677 -0.0320343188
vn 5.25393996e-09 -0.99948677 -0.0320343188
vn 1.75273386e-07 8.7637888e-10 -1
vn 1.75264383e-07 0.0101352856 -0.999948637
vn 1.69964673e-07 0.0111041733 -0.999938347
vn 1.69441989e-07 0.0121950254 -0.999925638
vn 1.63997533e-07 0.0121950322 -0.999925638
vn -0.925151229 0.258895751 0.277611587
vn -0.945356467 0.318165454 0.0712172319
vn -0.735054489 0.598660149 -0.31827806
vn -0.998152438 -0.0539871514 -0.0278764597
vn -0.998276326 -0.0569534321 -0.0141662822
vn -0.995887378 -0.075522316 -0.0500470764
vn -0.996324353 -0.0680474024 -0.0520320551
vn -0.340196729 0.939137347 -0.047824986
vn -0.87122781 0.490877632 0.00111976134
vn -0.318131056 0.948032346 -0.00522517019
vn -0.998132814 -0.0557036858 0.0250596241
vn -0.979950441 -0.158338767 0.120937871
vn -0.99056649 -0.0244544097 0.134833266
vn -0.904787105 0.255505809 0.34070086
vn -0.994428465 -0.0899830218 0.0549097759
vn -0.998985873 0.0370249965 0.025619816
vn -0.930117482 -0.366179594 0.0281775661
vn -0.996655903 -0.0805615542 -0.0136691973
vn -0.999090104 0.0426274215 0.00136607407
vn -0.939975933 -0.34119385 -0.00565700152
vn -0.904652763 -0.42440493 0.0385205528
vn -0.897438049 -0.415469705 -0.148289824
vn -0.937610636 -0.345386886 0.0399273648
vn -0.939363653 -0.339889994 0.0455051615
vn -0.947672522 0.261780807 0.182722744
vn 0.999286546 -0.0332524682 -0.017907336
vn 0.999969245 -0.00701758004 0.00350181209
vn 0.998795204 -0.0269004124 -0.0410427567
vn 0.994431565 -0.0822449138 -0.0658910913
vn 0.982541543 -0.186043319 1.56724854e-07
vn 0.999346266 -0.0359919093 -0.00340928026
vn 0.999973466 -0.00614065334 -0.00391902671
vn 1 7.00949566e-09 1.54640548e-07
vn 1 -3.64463208e-23 1.6081695e-07
vn 0.995638435 -0.0932256709 0.00361671821
vn 0.997372846 -0.0723447102 -0.00369456343
vn 0.974330222 -0.222860501 -0.0318404538
vn 0.994805276 -0.0961282014 -0.0334937614
vn 0.994086525 -0.0293095485 -0.104560657
vn 0.990778476 0.024341552 -0.133287288
vn 0.991712255 0.0234642635 -0.126317975
vn 0.98943045 0.0344247272 -0.140862778
vn 0.978672269 0.00626043314 -0.205332408
vn 0.991475171 0.0135810157 -0.12958604
vn -1.26300168e-07 -0.629106163 0.777319391
vn -9.135e-08 -0.827791668 0.561035609
vn -5.59571025e-08 -0.950682708 0.310165099
vn -2.81445767e-08 -0.981620377 0.190844008
vn 2.01006768e-23 -1 -2.22832425e-16
vn 0 -1 -2.22832401e-16
vn 2.67635898e-09 -0.999843805 -0.0176738886
vn 2.74386357e-09 -0.999843805 -0.0176738886
vn 1.6248169e-07 8.95875027e-08 -1
vn 1.6248169e-07 8.95875027e-08 -1
vn 2.95588166e-07 1.61966045e-08 -1
vn 0 1.79175009e-07 -1
vn -1.24816988e-07 0.535503428 0.844533053
vn -1.43342705e-07 0.243578374 0.969881217
vn -6.80203171e-08 0.680089965 0.733128665
vn -1.43342705e-07 0.243578374 0.969881217
vn -4.16390177e-08 0.78250307 0.622646726
vn 0 0.827435388 0.561560931
vn 0 0.908868515 0.417082752
vn 0 0.908868515 0.417082752
vn 0 -0.913473166 -0.406898975
vn 0 -0.49656609 -0.867998916
vn 1.81462116e-23 -0.98757967 -0.157119047
vn 0 -0.259682038 -0.965694175
vn 0 -0.207263197 -0.978285218
vn 0 -0.624157784 -0.781298317
vn 0 -0.956263927 -0.292505216
vn 0 -0.956263927 -0.292505216
vn 5.12289239e-08 -0.974536644 -0.224228296
vn 1.02689646e-07 -0.831543256 -0.555460002
vn 1.42068874e-07 -0.63988974 -0.768466734
vn 1.19304127e-07 -0.639889755 -0.768466721
vn 0 -0.735304943 0.67773641
vn 0 -0.609999344 0.792401919
vn 0 -0.735304943 0.67773641
vn 0 -0.417047116 0.908884868
vn 0 -0.104231783 0.994553033
vn 0 -0.104231783 0.994553033
vn -0.999279759 -0.0330226829 -0.0186939856
vn -0.998795191 -0.026900388 -0.0410430958
vn -0.999975701 -0.00623787139 0.00311244438
vn -0.994431543 -0.0822449091 -0.065891439
vn -0.982541538 -0.186043346 -1.56724886e-07
vn -0.99938894 -0.0348163349 -0.00309343843
vn -0.999979034 -0.00545837791 -0.00348388054
vn -1 -7.00949566e-09 -1.54640548e-07
vn -1 2.42975472e-23 -1.6081695e-07
vn -0.995739852 -0.092102181 0.00439724865
vn -0.997483032 -0.0708132751 -0.00361666314
vn -0.975013193 -0.22002198 -0.0306529118
vn -0.994974966 -0.0946211599 -0.0327361284
vn -0.994133512 -0.0284138042 -0.104360984
vn -0.990698848 0.0240655661 -0.133927748
vn -0.991253448 0.0242616922 -0.129722671
vn -0.98916132 0.0335179213 -0.14295605
vn -0.978672239 0.0062604375 -0.205332551
vn -0.990613564 0.0142476191 -0.13594768
vn 1 -1.19935035e-22 1.48915833e-07
vn 0.974481184 0.2244692 1.45115677e-07
vn 0.824041937 0.566528789 -0.000133721591
vn 1 0 1.48915833e-07
vn 0.44579808 0.895133525 -0.000211411875
vn 0.444390098 0.895833278 -0.000421554507
vn 0 -1 -1.84918236e-16
vn 0 -1 -1.84918236e-16
vn 0 -1 -1.84918236e-16
vn 0 -1 -1.84918236e-16
vn 0 0 -1
vn 0 1.27805815e-15 -1
vn 0 1.42525695e-15 -1
vn 0 1.61077614e-15 -1
vn 0 1.61077614e-15 -1
vn -0.974090061 0.226159873 0.000515161691
vn -0.999997753 0.00206608716 0.00047422761
vn -0.82508699 0.565005174 0.00078268373
vn -0.999991463 0.00413214833 -1.48914562e-07
vn -0.447213844 0.894426966 0.000424231502
vn -0.447213855 0.894426961 0.00042423316
vn -0.874299422 0.485386981 -1.33360203e-07
vn -0.983285755 0.18206901 -1.499843e-07
vn -0.983266999 -0.182170274 -1.49981439e-07
vn -0.874299422 0.485386981 -1.33360206e-07
vn -0.873943636 -0.486027284 -1.33305934e-07
vn -0.873943636 -0.486027284 -1.33305937e-07
vn 2.32261135e-23 -1 -2.84116314e-16
vn 2.32261135e-23 -1 -2.84116314e-16
vn 0 -1 -2.84116328e-16
vn 4.64522247e-23 -1 -2.84116299e-16
vn -1.54840757e-23 1 1.89410876e-16
vn -1.54840757e-23 1 1.89410876e-16
vn -3.09681498e-23 1 1.89410866e-16
vn 0 1 1.89410885e-16
vn -1.63157298e-07 -1.68020563e-16 1
vn -1.63089554e-07 1.12556014e-10 1
vn -1.63089413e-07 1.12594729e-10 1
vn -1.63497219e-07 -5.63799141e-10 1
vn -1.63157298e-07 -3.3662143e-16 1
vn -1.63497219e-07 -5.64772878e-10 1
vn 1.08771532e-07 3.36041145e-16 -1
vn 1.08771532e-07 1.68165516e-16 -1
vn 0 -1.80410715e-07 -1
vn 1.62987868e-07 1.68165516e-16 -1
vn 1.08771532e-07 0 -1
vn 0 1.80722249e-07 -1
vn 0.983285753 0.182069022 1.49984295e-07
vn 0.874299422 0.485386981 1.33360196e-07
vn 0.983266997 -0.182170286 1.49981434e-07
vn 0.874299422 0.485386981 1.33360193e-07
vn 0.873943636 -0.486027284 1.33305927e-07
vn 0.873943636 -0.486027284 1.33305923e-07
vn 0 1.61745934e-15 -1
vn 0 7.95524546e-15 -1
vn 0 9.00248908e-16 -1
vn 0 0 -1
vn 0 0 -1
vn 0 -1 -2.43022395e-16
vn 0 -1 -2.43022395e-16
vn 0 -1 -2.43022395e-16
vn 0 -1 -2.43022395e-16
vn 0.450891195 0.892578921 6.71012814e-08
vn 0.927678162 0.373380809 1.36549683e-07
vn 0.927678159 0.373380814 1.36165168e-07
vn 0.450891201 0.892578918 6.8020478e-08
vn 1 0 1.46780612e-07
vn 1 0 1.46780612e-07
vn -0.927678147 0.373380844 -1.36549681e-07
vn -0.450891156 0.892578941 -6.71012751e-08
vn -0.92767815 0.373380839 -1.36165166e-07
vn -0.45089115 0.892578944 -6.80204698e-08
vn -1 0 -1.46780612e-07
vn -1 0 -1.46780612e-07
vn 1 0 1.38725061e-07
vn 0.953671505 0.300849897 1.33686377e-07
vn 1 0 1.38725061e-07
vn 0.948683036 0.316228553 1.31606112e-07
vn 0.64018417 0.768221471 9.23544627e-08
vn 0.64018418 0.768221463 9.65027173e-08
vn 0 0.0643797531 0.997925472
vn 0 0 1
vn 0 0.110427193 0.993884216
vn 0 0 1
vn 0 0.371377276 0.928482051
vn 0 0.37139961 -0.928473117
vn 0 0.110434802 -0.993883371
vn 0 0.0643842258 -0.997925183
vn 0 0 -1
vn 0 0 -1
vn -0.951249766 0.308421598 -1.33346896e-07
vn -1 0 -1.38725061e-07
vn -1 0 -1.38725061e-07
vn -0.946022445 0.324101115 -1.31237022e-07
vn -0.629801783 0.776755891 -9.08566753e-08
vn -0.629801772 0.776755899 -9.49376512e-08
vn 0.997086451 -0.0762270035 -0.00283764045
vn 0.99705954 -0.0766157901 0.00151474034
vn 0.997075191 -0.0763620193 0.00314724708
vn 0.997115223 -0.0757322138 -0.00508559151
vn 0.99621836 -0.0637310598 -0.0590536224
vn 0.99644971 -0.0693499164 0.0477343066
vn 4.65294293e-23 -0.999774456 0.021237643
vn 1.73038649e-08 -0.99920222 -0.039936494
vn 0 -0.996989605 0.0775353255
vn 4.55464231e-08 -0.990129062 -0.140158626
vn 2.20870509e-07 -0.733510502 -0.679678118
vn 1.47246968e-07 -0.733510664 -0.679677942
vn 0 -0.823729947 0.56698234
vn 0 -0.823729947 0.56698234
vn -1.96148993e-23 1 2.09574077e-16
vn -1.96148993e-23 1 2.09574077e-16
vn -3.92297971e-23 1 2.09574069e-16
vn 0 1 2.09574085e-16
vn -2.00841102e-07 -9.1730891e-15 1
vn -2.00841102e-07 -9.1730891e-15 1
vn -2.16642264e-07 1.38592514e-08 1
vn -1.8718822e-07 -1.19750056e-08 1
vn 0 0 -1
vn 0 0 -1
vn 0 0 -1
vn 0 0 -1
vn -0.99708644 -0.076227148 -0.00283795356
vn -0.997059529 -0.0766159365 0.00151445163
vn -0.997115211 -0.0757323524 -0.00508591299
vn -0.997075181 -0.0763621676 0.00314696975
vn -0.996218325 -0.0637311453 -0.0590541231
vn -0.996449701 -0.0693500112 0.0477343719
vn 0 -0.993340544 -0.11521529
vn 0 -0.993340544 -0.11521529
vn 0 -0.993340544 -0.11521529
vn 0 -0.993340544 -0.11521529
vn 0 0.992979686 -0.118285006
vn 0 0.992979686 -0.118285006
vn 0 0.992979686 -0.118285006
vn 0 0.992979686 -0.118285006
vn 0 0 -1
vn 0 0 -1
vn 0 0 -1
vn 0 0 -1
vn 0 0 -1
vn 0 0 -1
vn 0.867432837 0.484201618 -0.11449483
vn 0.991462862 6.58509419e-17 -0.130389389
vn 0.991443732 3.99424799e-17 -0.130534768
vn 0.867171252 0.484594917 -0.114811957
vn 0.868051467 -0.483269215 -0.113743204
vn 0.868543728 -0.482524917 -0.113143701
vn -0.99168225 8.78206843e-17 -0.128710198
vn -0.868544118 0.482524243 -0.113143579
vn -0.99184137 3.99584996e-17 -0.127478222
vn -0.867171211 0.484594927 -0.114812222
vn -0.869158562 -0.481592312 -0.112393232
vn -0.868543687 -0.482524928 -0.113143967
vn -5.31661639e-23 1 2.29658967e-16
vn -0.72077407 0.693170066 -1.18492589e-07
vn -0.720774104 0.69317003 -1.18492595e-07
vn -1.06332317e-22 1 2.29658958e-16
vn -0.72077407 -0.693170066 -1.1849259e-07
vn -0.720774064 -0.693170072 -1.18492589e-07
vn 5.31661639e-23 -1 -2.29658967e-16
vn 0 -1 -2.29658958e-16
vn 0 0 -1
vn 0 0 -1
vn 0 0 -1
vn 0 0 -1
vn 1 0 1.4384675e-07
vn 1 0 1.4384675e-07
vn 1 0 1.4384675e-07
vn 1 0 1.4384675e-07
vn -4.63000957e-07 0 1
vn -4.63000957e-07 0 1
vn -4.63000957e-07 0 1
vn -4.63000957e-07 0 1
vn 0.720774058 0.693170078 1.18492568e-07
vn -5.31661533e-23 1 2.29658948e-16
vn 0.720774024 0.693170113 1.18492563e-07
vn -1.06332317e-22 1 2.29658958e-16
vn 0.720774058 -0.693170078 1.18492568e-07
vn 0.720774064 -0.693170072 1.18492569e-07
vn 5.31661533e-23 -1 -2.29658948e-16
vn 0 -1 -2.29658958e-16
vn 0 0 -1
vn 0 0 -1
vn 0 0 -1
vn 0 0 -1
vn -1 0 -1.4384675e-07
vn -1 0 -1.4384675e-07
vn -1 0 -1.4384675e-07
vn -1 0 -1.4384675e-07
vn -4.63000957e-07 0 1
vn -4.63000957e-07 0 1
vn -4.63000957e-07 0 1
vn -4.63000957e-07 0 1

g gun16_submesh_0
usemtl M347-Newlambert8
f 1/1/1 3/3/3 2/2/2
f 1/1/1 2/2/2 4/4/4
f 5/5/5 3/3/3 1/1/1
f 5/5/5 1/1/1 6/6/6
f 7/7/7 4/4/4 2/2/2
f 7/7/7 2/2/2 8/8/8
f 9/9/9 11/11/11 10/10/10
f 9/9/9 10/10/10 12/12/12
f 9/9/9 12/12/12 13/13/13
f 9/9/9 13/13/13 14/14/14
f 11/11/11 15/15/15 10/10/10
f 11/11/11 16/16/16 15/15/15
f 17/17/17 19/19/19 18/18/18
f 19/19/19 20/20/20 18/18/18
f 19/19/19 21/21/21 20/20/20
f 22/22/22 24/24/24 23/23/23
f 22/22/22 23/23/23 25/25/25
f 26/26/26 28/28/28 27/27/27
f 26/26/26 27/27/27 29/29/29
f 30/30/30 32/32/32 31/31/31
f 32/32/32 33/33/33 31/31/31
f 32/32/32 34/34/34 33/33/33
f 35/35/35 37/37/37 36/36/36
f 38/38/38 36/36/36 37/37/37
f 38/38/38 39/39/39 36/36/36
f 40/40/40 42/42/42 41/41/41
f 40/40/40 41/41/41 43/43/43
f 44/44/44 42/42/42 40/40/40
f 44/44/44 45/45/45 42/42/42
f 46/46/46 48/48/48 47/47/47
f 46/46/46 47/47/47 49/49/49
f 50/50/50 52/52/52 51/51/51
f 50/50/50 51/51/51 53/53/53
f 54/54/54 56/56/56 55/55/55
f 54/54/54 55/55/55 57/57/57
f 58/58/58 60/60/60 59/59/59
f 58/58/58 59/59/59 61/61/61
f 62/62/62 64/64/64 63/63/63
f 62/62/62 63/63/63 65/65/65
f 66/66/66 68/68/68 67/67/67
f 66/66/66 67/67/67 69/69/69
f 70/70/70 72/72/72 71/71/71
f 70/70/70 71/71/71 73/73/73
f 74/74/74 76/76/76 75/75/75
f 74/74/74 75/75/75 77/77/77
f 78/78/78 77/77/77 75/75/75
f 78/78/78 79/79/79 77/77/77
f 79/79/79 78/78/78 80/80/80
f 80/80/80 81/81/81 79/79/79
f 80/80/80 82/82/82 81/81/81
f 81/81/81 82/82/82 83/83/83
f 81/81/81 83/83/83 84/84/84
f 85/85/85 87/87/87 86/86/86
f 85/85/85 86/86/86 88/88/88
f 89/89/89 85/85/85 88/88/88
f 89/89/89 88/88/88 90/90/90
f 90/90/90 91/91/91 89/89/89
f 92/92/92 91/91/91 90/90/90
f 92/92/92 93/93/93 91/91/91
f 92/92/92 94/94/94 93/93/93
f 92/92/92 95/95/95 94/94/94
f 96/96/96 98/98/98 97/97/97
f 96/96/96 97/97/97 99/99/99
f 100/100/100 97/97/97 98/98/98
f 100/100/100 101/101/101 97/97/97
f 102/102/102 101/101/101 100/100/100
f 102/102/102 103/103/103 101/101/101
f 104/104/104 103/103/103 102/102/102
f 104/104/104 105/105/105 103/103/103
f 106/106/106 108/108/108 107/107/107
f 106/106/106 107/107/107 109/109/109
f 108/108/108 106/106/106 110/110/110
f 108/108/108 110/110/110 111/111/111
f 111/111/111 110/110/110 112/112/112
f 111/111/111 112/112/112 113/113/113
f 113/113/113 112/112/112 114/114/114
f 113/113/113 114/114/114 115/115/115
f 116/116/116 118/118/118 117/117/117
f 116/116/116 117/117/117 119/119/119
f 120/120/120 118/118/118 116/116/116
f 120/120/120 121/121/121 118/118/118
f 122/122/122 124/124/124 123/123/123
f 122/122/122 123/123/123 125/125/125
f 126/126/126 124/124/124 122/122/122
f 126/126/126 122/122/122 127/127/127
f 127/127/127 128/128/128 126/126/126
f 129/129/129 131/131/131 130/130/130
f 129/129/129 130/130/130 132/132/132
f 129/129/129 132/132/132 133/133/133
f 129/129/129 133/133/133 134/134/134
f 134/134/134 133/133/133 135/135/135
f 136/136/136 138/138/138 137/137/137
f 136/136/136 137/137/137 139/139/139
f 139/139/139 137/137/137 140/140/140
f 139/139/139 140/140/140 141/141/141
f 142/142/142 144/144/144 143/143/143
f 142/142/142 143/143/143 145/145/145
f 146/146/146 144/144/144 142/142/142
f 146/146/146 147/147/147 144/144/144
f 148/148/148 150/150/150 149/149/149
f 148/148/148 149/149/149 151/151/151
f 152/152/152 150/150/150 148/148/148
f 152/152/152 153/153/153 150/150/150
f 154/154/154 156/156/156 155/155/155
f 154/154/154 155/155/155 157/157/157
f 154/154/154 157/157/157 158/158/158
f 157/157/157 159/159/159 158/158/158
f 157/157/157 160/160/160 159/159/159
f 161/161/161 155/155/155 156/156/156
f 162/162/162 161/161/161 156/156/156
f 162/162/162 163/163/163 161/161/161
f 164/164/164 162/162/162 156/156/156
f 156/156/156 165/165/165 164/164/164
f 156/156/156 166/166/166 165/165/165
f 156/156/156 167/167/167 166/166/166
f 167/167/167 156/156/156 154/154/154
f 165/165/165 166/166/166 168/168/168
f 168/168/168 166/166/166 169/169/169
f 168/168/168 170/170/170 165/165/165
f 164/164/164 171/171/171 162/162/162
f 162/162/162 171/171/171 172/172/172
f 173/173/173 171/171/171 164/164/164
f 164/164/164 174/174/174 173/173/173
f 173/173/173 175/175/175 171/171/171
f 165/165/165 170/170/170 176/176/176
f 165/165/165 176/176/176 177/177/177
f 167/167/167 154/154/154 178/178/178
f 179/179/179 181/181/181 180/180/180
f 179/179/179 180/180/180 182/182/182
f 183/183/183 181/181/181 179/179/179
f 183/183/183 184/184/184 181/181/181
f 185/185/185 184/184/184 183/183/183
f 185/185/185 186/186/186 184/184/184
f 187/187/187 186/186/186 185/185/185
f 187/187/187 188/188/188 186/186/186
f 189/189/189 191/191/191 190/190/190
f 189/189/189 190/190/190 192/192/192
f 192/192/192 190/190/190 193/193/193
f 192/192/192 193/193/193 194/194/194
f 195/195/195 197/197/197 196/196/196
f 195/195/195 196/196/196 198/198/198
f 199/199/199 197/197/197 195/195/195
f 199/199/199 200/200/200 197/197/197
f 201/201/201 200/200/200 199/199/199
f 201/201/201 202/202/202 200/200/200
f 203/203/203 202/202/202 201/201/201
f 203/203/203 204/204/204 202/202/202
f 205/205/205 157/157/157 155/155/155
f 205/205/205 155/155/155 206/206/206
f 207/207/207 157/157/157 205/205/205
f 207/207/207 160/160/160 157/157/157
f 161/161/161 206/206/206 155/155/155
f 208/208/208 210/210/210 209/209/209
f 208/208/208 209/209/209 211/211/211
f 211/211/211 209/209/209 212/212/212
f 211/211/211 212/212/212 213/213/213
f 213/213/213 212/212/212 214/214/214
f 213/213/213 214/214/214 215/215/215
f 216/216/216 218/218/218 217/217/217
f 216/216/216 217/217/217 219/219/219
f 220/220/220 222/222/222 221/221/221
f 220/220/220 221/221/221 223/223/223
f 224/224/224 222/222/222 220/220/220
f 224/224/224 225/225/225 222/222/222
f 224/224/224 226/226/226 225/225/225
f 224/224/224 227/227/227 226/226/226
f 228/228/228 226/226/226 227/227/227
f 228/228/228 229/229/229 226/226/226
f 230/230/230 232/232/232 231/231/231
f 232/232/232 233/233/233 231/231/231
f 232/232/232 234/234/234 233/233/233
f 235/235/235 237/237/237 236/236/236
f 235/235/235 238/238/238 237/237/237
f 235/235/235 239/239/239 238/238/238
f 240/240/240 238/238/238 239/239/239
f 240/240/240 241/241/241 238/238/238
f 242/242/242 236/236/236 237/237/237
f 242/242/242 243/243/243 236/236/236
f 242/242/242 244/244/244 243/243/243
f 243/243/243 245/245/245 236/236/236
f 236/236/236 245/245/245 246/246/246
f 247/247/247 236/236/236 246/246/246
f 247/247/247 248/248/248 236/236/236
f 248/248/248 235/235/235 236/236/236
f 246/246/246 249/249/249 247/247/247
f 249/249/249 250/250/250 247/247/247
f 249/249/249 246/246/246 251/251/251
f 243/243/243 252/252/252 245/245/245
f 243/243/243 253/253/253 252/252/252
f 252/252/252 254/254/254 245/245/245
f 245/245/245 254/254/254 255/255/255
f 252/252/252 256/256/256 254/254/254
f 246/246/246 257/257/257 251/251/251
f 246/246/246 258/258/258 257/257/257
f 248/248/248 259/259/259 235/235/235
f 260/260/260 262/262/262 261/261/261
f 263/263/263 262/262/262 260/260/260
f 263/263/263 260/260/260 264/264/264
f 261/261/261 265/265/265 260/260/260
f 265/265/265 261/261/261 266/266/266
f 261/261/261 267/267/267 266/266/266
f 261/261/261 268/268/268 267/267/267
f 265/265/265 266/266/266 269/269/269
f 269/269/269 266/266/266 270/270/270
f 269/269/269 271/271/271 265/265/265
f 269/269/269 272/272/272 271/271/271
f 270/270/270 272/272/272 269/269/269
f 270/270/270 273/273/273 272/272/272
f 272/272/272 273/273/273 274/274/274
f 273/273/273 275/275/275 274/274/274
f 274/274/274 275/275/275 276/276/276
f 274/274/274 276/276/276 277/277/277
f 273/273/273 278/278/278 275/275/275
f 279/279/279 281/281/281 280/280/280
f 279/279/279 280/280/280 282/282/282
f 283/283/283 281/281/281 279/279/279
f 283/283/283 284/284/284 281/281/281
f 282/282/282 280/280/280 285/285/285
f 282/282/282 285/285/285 286/286/286
f 287/287/287 289/289/289 288/288/288
f 287/287/287 288/288/288 290/290/290
f 291/291/291 293/293/293 292/292/292
f 291/291/291 292/292/292 294/294/294
f 295/295/295 293/293/293 291/291/291
f 295/295/295 296/296/296 293/293/293
f 297/297/297 296/296/296 295/295/295
f 297/297/297 298/298/298 296/296/296
f 299/299/299 301/301/301 300/300/300
f 299/299/299 300/300/300 302/302/302
f 302/302/302 300/300/300 303/303/303
f 302/302/302 303/303/303 304/304/304
f 304/304/304 303/303/303 305/305/305
f 304/304/304 305/305/305 306/306/306
f 307/307/307 301/301/301 299/299/299
f 307/307/307 308/308/308 301/301/301
f 309/309/309 308/308/308 307/307/307
f 309/309/309 310/310/310 308/308/308
f 311/311/311 313/313/313 312/312/312
f 311/311/311 312/312/312 314/314/314
f 314/314/314 312/312/312 315/315/315
f 314/314/314 315/315/315 316/316/316
f 317/317/317 319/319/319 318/318/318
f 320/320/320 317/317/317 318/318/318
f 320/320/320 321/321/321 317/317/317
f 319/319/319 317/317/317 322/322/322
f 323/323/323 319/319/319 322/322/322
f 324/324/324 319/319/319 323/323/323
f 324/324/324 325/325/325 319/319/319
f 323/323/323 322/322/322 326/326/326
f 326/326/326 327/327/327 323/323/323
f 326/326/326 322/322/322 328/328/328
f 326/326/326 328/328/328 329/329/329
f 329/329/329 327/327/327 326/326/326
f 329/329/329 330/330/330 327/327/327
f 329/329/329 331/331/331 330/330/330
f 332/332/332 330/330/330 331/331/331
f 331/331/331 333/333/333 332/332/332
f 331/331/331 334/334/334 333/333/333
f 332/332/332 335/335/335 330/330/330
f 336/336/336 338/338/338 337/337/337
f 336/336/336 337/337/337 339/339/339
f 340/340/340 337/337/337 338/338/338
f 340/340/340 338/338/338 341/341/341
f 342/342/342 344/344/344 343/343/343
f 342/342/342 343/343/343 345/345/345
f 346/346/346 348/348/348 347/347/347
f 348/348/348 349/349/349 347/347/347
f 348/348/348 350/350/350 349/349/349
f 351/351/351 353/353/353 352/352/352
f 351/351/351 352/352/352 354/354/354
f 353/353/353 351/351/351 355/355/355
f 353/353/353 355/355/355 356/356/356
f 357/357/357 359/359/359 358/358/358
f 357/357/357 358/358/358 360/360/360
f 359/359/359 361/361/361 358/358/358
f 359/359/359 362/362/362 361/361/361
f 363/363/363 365/365/365 364/364/364
f 363/363/363 364/364/364 366/366/366
f 367/367/367 369/369/369 368/368/368
f 367/367/367 368/368/368 370/370/370
f 371/371/371 373/373/373 372/372/372
f 371/371/371 372/372/372 374/374/374
f 375/375/375 372/372/372 373/373/373
f 375/375/375 373/373/373 376/376/376
f 377/377/377 379/379/379 378/378/378
f 377/377/377 378/378/378 380/380/380
f 378/378/378 381/381/381 380/380/380
f 378/378/378 382/382/382 381/381/381
f 383/383/383 385/385/385 384/384/384
f 383/383/383 384/384/384 386/386/386
f 387/387/387 385/385/385 383/383/383
f 387/387/387 388/388/388 385/385/385
f 389/389/389 391/391/391 390/390/390
f 391/391/391 389/389/389 392/392/392
f 391/391/391 392/392/392 393/393/393
f 394/394/394 396/396/396 395/395/395
f 394/394/394 395/395/395 397/397/397
f 398/398/398 400/400/400 399/399/399
f 398/398/398 399/399/399 401/401/401
f 402/402/402 399/399/399 400/400/400
f 402/402/402 403/403/403 399/399/399
f 404/404/404 406/406/406 405/405/405
f 404/404/404 405/405/405 407/407/407
f 404/404/404 408/408/408 406/406/406
f 404/404/404 409/409/409 408/408/408
f 410/410/410 412/412/412 411/411/411
f 410/410/410 411/411/411 413/413/413
f 414/414/414 413/413/413 411/411/411
f 414/414/414 411/411/411 415/415/415
f 416/416/416 418/418/418 417/417/417
f 416/416/416 417/417/417 419/419/419
f 418/418/418 416/416/416 420/420/420
f 421/421/421 423/423/423 422/422/422
f 423/423/423 424/424/424 422/422/422
f 423/423/423 425/425/425 424/424/424
f 426/426/426 428/428/428 427/427/427
f 426/426/426 427/427/427 429/429/429
f 426/426/426 429/429/429 430/430/430
f 426/426/426 430/430/430 431/431/431
f 432/432/432 434/434/434 433/433/433
f 432/432/432 433/433/433 435/435/435
f 436/436/436 432/432/432 435/435/435
f 434/434/434 437/437/437 433/433/433
f 438/438/438 440/440/440 439/439/439
f 438/438/438 439/439/439 441/441/441
f 441/441/441 439/439/439 442/442/442
f 441/441/441 442/442/442 443/443/443
f 444/444/444 440/440/440 438/438/438
f 444/444/444 445/445/445 440/440/440
f 446/446/446 448/448/448 447/447/447
f 446/446/446 447/447/447 449/449/449
f 450/450/450 452/452/452 451/451/451
f 450/450/450 451/451/451 453/453/453
f 454/454/454 456/456/456 455/455/455
f 454/454/454 455/455/455 457/457/457
f 458/458/458 460/460/460 459/459/459
f 458/458/458 459/459/459 461/461/461
f 462/462/462 460/460/460 458/458/458
f 461/461/461 459/459/459 463/463/463
f 464/464/464 466/466/466 465/465/465
f 464/464/464 465/465/465 467/467/467
f 468/468/468 470/470/470 469/469/469
f 468/468/468 469/469/469 471/471/471
f 472/472/472 474/474/474 473/473/473
f 472/472/472 473/473/473 475/475/475
f 473/473/473 476/476/476 475/475/475
f 473/473/473 477/477/477 476/476/476
f 478/478/478 480/480/480 479/479/479
f 478/478/478 479/479/479 481/481/481
f 482/482/482 479/479/479 480/480/480
f 482/482/482 483/483/483 479/479/479
f 484/484/484 486/486/486 485/485/485
f 484/484/484 485/485/485 487/487/487
f 484/484/484 488/488/488 486/486/486
f 484/484/484 489/489/489 488/488/488
f 490/490/490 492/492/492 491/491/491
f 490/490/490 491/491/491 493/493/493
f 491/491/491 492/492/492 494/494/494
f 491/491/491 494/494/494 495/495/495
f 496/496/496 495/495/495 494/494/494
f 496/496/496 494/494/494 497/497/497
f 498/498/498 500/500/500 499/499/499
f 498/498/498 499/499/499 501/501/501
f 502/502/502 504/504/504 503/503/503
f 502/502/502 503/503/503 505/505/505
f 506/506/506 508/508/508 507/507/507
f 506/506/506 507/507/507 509/509/509
f 510/510/510 512/512/512 511/511/511
f 510/510/510 511/511/511 513/513/513
f 514/514/514 512/512/512 510/510/510
f 514/514/514 510/510/510 515/515/515
f 514/514/514 515/515/515 516/516/516
f 514/514/514 516/516/516 517/517/517
f 518/518/518 520/520/520 519/519/519
f 518/518/518 519/519/519 521/521/521
f 522/522/522 524/524/524 523/523/523
f 522/522/522 523/523/523 525/525/525
f 526/526/526 528/528/528 527/527/527
f 526/526/526 527/527/527 529/529/529
