# Generated by tools/yaml_mesh_converter/split_reload_parts.py
mtllib gun16.mtl
o gun16_reload
v -0.0911400998 0.481804699 -0.461633235
vt 0.658999979 0.443800002
vn -0.874299422 0.485386981 -1.33360203e-07
v -0.182849892 0.316613168 -0.461633265
vt 0.658999979 0.344799995
vn -0.983266999 -0.182170274 -1.49981439e-07
v -0.182849937 0.316613168 -0.168560594
vt 0.500699997 0.344799995
vn -0.983285755 0.18206901 -1.499843e-07
v -0.0911400998 0.481804699 -0.461633235
vt 0.658999979 0.443800002
vn -0.874299422 0.485386981 -1.33360203e-07
v -0.182849937 0.316613168 -0.168560594
vt 0.500699997 0.344799995
vn -0.983285755 0.18206901 -1.499843e-07
v -0.0911401445 0.481804699 -0.168560579
vt 0.500699997 0.443800002
vn -0.874299422 0.485386981 -1.33360206e-07
v -0.182849892 0.316613168 -0.461633265
vt 0.658999979 0.344799995
vn -0.983266999 -0.182170274 -1.49981439e-07
v -0.0911401445 0.151706398 -0.168560579
vt 0.500699997 0.245900005
vn -0.873943636 -0.486027284 -1.33305934e-07
v -0.182849937 0.316613168 -0.168560594
vt 0.500699997 0.344799995
vn -0.983285755 0.18206901 -1.499843e-07
v -0.182849892 0.316613168 -0.461633265
vt 0.658999979 0.344799995
vn -0.983266999 -0.182170274 -1.49981439e-07
v -0.0911400998 0.151706398 -0.461633235
vt 0.658999979 0.245900005
vn -0.873943636 -0.486027284 -1.33305937e-07
v -0.0911401445 0.151706398 -0.168560579
vt 0.500699997 0.245900005
vn -0.873943636 -0.486027284 -1.33305934e-07
v -0.0911401445 0.151706398 -0.168560579
vt 0.526499987 0.0614
vn 2.32261135e-23 -1 -2.84116314e-16
v -0.0911400998 0.151706398 -0.461633235
vt 0.438699991 0.0614
vn 0 -1 -2.84116328e-16
v 0.0911402022 0.151706398 -0.461633235
vt 0.438699991 0.00659999996
vn 2.32261135e-23 -1 -2.84116314e-16
v -0.0911401445 0.151706398 -0.168560579
vt 0.526499987 0.0614
vn 2.32261135e-23 -1 -2.84116314e-16
v 0.0911402022 0.151706398 -0.461633235
vt 0.438699991 0.00659999996
vn 2.32261135e-23 -1 -2.84116314e-16
v 0.0911401575 0.151706398 -0.16856055
vt 0.526499987 0.00659999996
vn 4.64522247e-23 -1 -2.84116299e-16
v -0.0911401445 0.481804699 -0.168560579
vt 0.527700007 0.0998999998
vn -1.54840757e-23 1 1.89410876e-16
v 0.0911401575 0.481804699 -0.16856055
vt 0.527700007 0.00499999989
vn -3.09681498e-23 1 1.89410866e-16
v 0.0911402022 0.481804699 -0.461633235
vt 0.687300026 0.00499999989
vn -1.54840757e-23 1 1.89410876e-16
v -0.0911401445 0.481804699 -0.168560579
vt 0.527700007 0.0998999998
vn -1.54840757e-23 1 1.89410876e-16
v 0.0911402022 0.481804699 -0.461633235
vt 0.687300026 0.00499999989
vn -1.54840757e-23 1 1.89410876e-16
v -0.0911400998 0.481804699 -0.461633235
vt 0.687300026 0.0998999998
vn 0 1 1.89410885e-16
v -0.0911401445 0.481804699 -0.168560579
vt 0.349799991 0.1228
vn -1.63157298e-07 -1.68020563e-16 1
v -0.182849937 0.316613168 -0.168560594
vt 0.318899989 0.0692000017
vn -1.63089413e-07 1.12594729e-10 1
v 0.18284995 0.316613168 -0.168560535
vt 0.442600012 0.0692000017
vn -1.63089554e-07 1.12556014e-10 1
v -0.0911401445 0.481804699 -0.168560579
vt 0.349799991 0.1228
vn -1.63157298e-07 -1.68020563e-16 1
v 0.18284995 0.316613168 -0.168560535
vt 0.442600012 0.0692000017
vn -1.63089554e-07 1.12556014e-10 1
v 0.0911401575 0.481804699 -0.16856055
vt 0.41170001 0.1228
vn -1.63497219e-07 -5.63799141e-10 1
v 0.0911401575 0.151706398 -0.16856055
vt 0.41170001 0.0155999996
vn -1.63157298e-07 -3.3662143e-16 1
v 0.18284995 0.316613168 -0.168560535
vt 0.442600012 0.0692000017
vn -1.63089554e-07 1.12556014e-10 1
v -0.182849937 0.316613168 -0.168560594
vt 0.318899989 0.0692000017
vn -1.63089413e-07 1.12594729e-10 1
v 0.0911401575 0.151706398 -0.16856055
vt 0.41170001 0.0155999996
vn -1.63157298e-07 -3.3662143e-16 1
v -0.182849937 0.316613168 -0.168560594
vt 0.318899989 0.0692000017
vn -1.63089413e-07 1.12594729e-10 1
v -0.0911401445 0.151706398 -0.168560579
vt 0.349799991 0.0155999996
vn -1.63497219e-07 -5.64772878e-10 1
v -0.0911400998 0.481804699 -0.461633235
vt 0.460099995 0.0775000006
vn 1.08771532e-07 3.36041145e-16 -1
v 0.0911402022 0.481804699 -0.461633235
vt 0.515900016 0.0775000006
vn 0 -1.80410715e-07 -1
v 0.182849995 0.316613168 -0.461633205
vt 0.541199982 0.1259
vn 1.08771532e-07 1.68165516e-16 -1
v -0.0911400998 0.481804699 -0.461633235
vt 0.460099995 0.0775000006
vn 1.08771532e-07 3.36041145e-16 -1
v 0.182849995 0.316613168 -0.461633205
vt 0.541199982 0.1259
vn 1.08771532e-07 1.68165516e-16 -1
v -0.182849892 0.316613168 -0.461633265
vt 0.432200015 0.1259
vn 1.62987868e-07 1.68165516e-16 -1
v 0.182849995 0.316613168 -0.461633205
vt 0.541199982 0.1259
vn 1.08771532e-07 1.68165516e-16 -1
v -0.0911400998 0.151706398 -0.461633235
vt 0.460099995 0.174199998
vn 1.08771532e-07 0 -1
v -0.182849892 0.316613168 -0.461633265
vt 0.432200015 0.1259
vn 1.62987868e-07 1.68165516e-16 -1
v 0.182849995 0.316613168 -0.461633205
vt 0.541199982 0.1259
vn 1.08771532e-07 1.68165516e-16 -1
v 0.0911402022 0.151706398 -0.461633235
vt 0.515900016 0.174199998
vn 0 1.80722249e-07 -1
v -0.0911400998 0.151706398 -0.461633235
vt 0.460099995 0.174199998
vn 1.08771532e-07 0 -1
v 0.18284995 0.316613168 -0.168560535
vt 0.500699997 0.344799995
vn 0.983285753 0.182069022 1.49984295e-07
v 0.182849995 0.316613168 -0.461633205
vt 0.658999979 0.344799995
vn 0.983266997 -0.182170286 1.49981434e-07
v 0.0911402022 0.481804699 -0.461633235
vt 0.658999979 0.443800002
vn 0.874299422 0.485386981 1.33360196e-07
v 0.18284995 0.316613168 -0.168560535
vt 0.500699997 0.344799995
vn 0.983285753 0.182069022 1.49984295e-07
v 0.0911402022 0.481804699 -0.461633235
vt 0.658999979 0.443800002
vn 0.874299422 0.485386981 1.33360196e-07
v 0.0911401575 0.481804699 -0.16856055
vt 0.500699997 0.443800002
vn 0.874299422 0.485386981 1.33360193e-07
v 0.0911401575 0.151706398 -0.16856055
vt 0.500699997 0.245900005
vn 0.873943636 -0.486027284 1.33305927e-07
v 0.182849995 0.316613168 -0.461633205
vt 0.658999979 0.344799995
vn 0.983266997 -0.182170286 1.49981434e-07
v 0.18284995 0.316613168 -0.168560535
vt 0.500699997 0.344799995
vn 0.983285753 0.182069022 1.49984295e-07
v 0.0911401575 0.151706398 -0.16856055
vt 0.500699997 0.245900005
vn 0.873943636 -0.486027284 1.33305927e-07
v 0.0911402022 0.151706398 -0.461633235
vt 0.658999979 0.245900005
vn 0.873943636 -0.486027284 1.33305923e-07
v 0.182849995 0.316613168 -0.461633205
vt 0.658999979 0.344799995
vn 0.983266997 -0.182170286 1.49981434e-07
usemtl M347-Newlambert8
f 1/1/1 2/2/2 3/3/3
f 4/4/4 5/5/5 6/6/6
f 7/7/7 8/8/8 9/9/9
f 10/10/10 11/11/11 12/12/12
f 13/13/13 14/14/14 15/15/15
f 16/16/16 17/17/17 18/18/18
f 19/19/19 20/20/20 21/21/21
f 22/22/22 23/23/23 24/24/24
f 25/25/25 26/26/26 27/27/27
f 28/28/28 29/29/29 30/30/30
f 31/31/31 32/32/32 33/33/33
f 34/34/34 35/35/35 36/36/36
f 37/37/37 38/38/38 39/39/39
f 40/40/40 41/41/41 42/42/42
f 43/43/43 44/44/44 45/45/45
f 46/46/46 47/47/47 48/48/48
f 49/49/49 50/50/50 51/51/51
f 52/52/52 53/53/53 54/54/54
f 55/55/55 56/56/56 57/57/57
f 58/58/58 59/59/59 60/60/60
