# Generated by tools/yaml_mesh_converter/split_reload_parts.py
mtllib gun14.mtl
o gun14_body
v 0.0416832641 0.14482826 -0.529187799
vt 0.579159021 0.416610003
vn 0.99886377 -0.0476534919 -0.000559561885
v 0.0416832641 0.148586363 -0.849235892
vt 0.794001997 0.416934997
vn 0.994563607 -0.104105069 0.00231640616
v 0.0416832641 0.241924942 -0.848278284
vt 0.794001997 0.480830997
vn 1 0 0
v 0.0416832641 0.14482826 -0.529187799
vt 0.579159021 0.416610003
vn 0.99886377 -0.0476534919 -0.000559561885
v 0.0416832641 0.241924942 -0.848278284
vt 0.794001997 0.480830997
vn 1 0 0
v 0.0416832641 0.231984496 -0.528293729
vt 0.579159021 0.476274014
vn 1 0 0
v 0.0295595136 0.0712395683 -0.53092885
vt 0.579834998 0.365547001
vn 0.988907403 -0.148524974 0.00157500755
v 0.0416832641 0.148586363 -0.849235892
vt 0.794001997 0.416934997
vn 0.994563607 -0.104105069 0.00231640616
v 0.0416832641 0.14482826 -0.529187799
vt 0.579159021 0.416610003
vn 0.99886377 -0.0476534919 -0.000559561885
v 0.0295595136 0.0712395683 -0.53092885
vt 0.579834998 0.365547001
vn 0.988907403 -0.148524974 0.00157500755
v 0.0308167655 0.0678516477 -0.965368867
vt 0.877188981 0.36037299
vn 0.989843599 -0.142028929 0.00611825402
v 0.0416832641 0.148586363 -0.849235892
vt 0.794001997 0.416934997
vn 0.994563607 -0.104105069 0.00231640616
v 0.0416832641 0.148586363 -0.849235892
vt 0.794001997 0.416934997
vn 0.994563607 -0.104105069 0.00231640616
v 0.0308167655 0.0678516477 -0.965368867
vt 0.877188981 0.36037299
vn 0.989843599 -0.142028929 0.00611825402
v 0.0433605127 0.148670658 -0.966245174
vt 0.878359973 0.416350007
vn 0.988094091 -0.15320761 0.0140532841
v -0.0551649854 0.14482826 -0.529187799
vt 0.579159021 0.416610003
vn -0.998863771 -0.0476534846 -0.000559561799
v -0.0551649854 0.231984496 -0.528293729
vt 0.579159021 0.476274014
vn -1 0 0
v -0.0551649854 0.241924942 -0.848278284
vt 0.794001997 0.480830997
vn -1 0 0
v -0.0551649854 0.14482826 -0.529187799
vt 0.579159021 0.416610003
vn -0.998863771 -0.0476534846 -0.000559561799
v -0.0551649854 0.241924942 -0.848278284
vt 0.794001997 0.480830997
vn -1 0 0
v -0.0551649854 0.148586363 -0.849235892
vt 0.794001997 0.416934997
vn -0.994563638 -0.104104777 0.0023161979
v -0.0430412367 0.0712395683 -0.53092885
vt 0.579834998 0.365547001
vn -0.988907403 -0.148524971 0.00157500267
v -0.0551649854 0.14482826 -0.529187799
vt 0.579159021 0.416610003
vn -0.998863771 -0.0476534846 -0.000559561799
v -0.0551649854 0.148586363 -0.849235892
vt 0.794001997 0.416934997
vn -0.994563638 -0.104104777 0.0023161979
v -0.0430412367 0.0712395683 -0.53092885
vt 0.579834998 0.365547001
vn -0.988907403 -0.148524971 0.00157500267
v -0.0551649854 0.148586363 -0.849235892
vt 0.794001997 0.416934997
vn -0.994563638 -0.104104777 0.0023161979
v -0.0442984849 0.0678516477 -0.965368867
vt 0.877188981 0.36037299
vn -0.989843691 -0.142028306 0.00611779607
v -0.0442984849 0.0678516477 -0.965368867
vt 0.877188981 0.36037299
vn -0.989843691 -0.142028306 0.00611779607
v -0.0551649854 0.148586363 -0.849235892
vt 0.794001997 0.416934997
vn -0.994563638 -0.104104777 0.0023161979
v -0.0568419844 0.148670658 -0.966245174
vt 0.878359973 0.416350007
vn -0.988094576 -0.153204679 0.0140511855
v 0.0295595136 0.0712395683 -0.53092885
vt 0.701492012 0.0536650009
vn 0 -0.999969594 0.00779812498
v -0.0430412367 0.0712395683 -0.53092885
vt 0.701912999 0.00456999987
vn 0 -0.999969594 0.00779812498
v -0.0442984849 0.0678516477 -0.965368867
vt 0.995715976 0.00623700023
vn 0 -0.999969594 0.00779812498
v 0.0295595136 0.0712395683 -0.53092885
vt 0.701492012 0.0536650009
vn 0 -0.999969594 0.00779812498
v -0.0442984849 0.0678516477 -0.965368867
vt 0.995715976 0.00623700023
vn 0 -0.999969594 0.00779812498
v 0.0308167655 0.0678516477 -0.965368867
vt 0.995280981 0.0570329987
vn 0 -0.999969594 0.00779812498
v -0.0551649854 0.241924942 -0.848278284
vt 0.991268992 0.126449004
vn 0 0.99951782 0.0310504122
v -0.0551649854 0.231984496 -0.528293729
vt 0.771239996 0.124554001
vn 0 0.99951782 0.0310504122
v 0.0416832641 0.231984496 -0.528293729
vt 0.771813989 0.0576580018
vn 0 0.99951782 0.0310504122
v -0.0551649854 0.241924942 -0.848278284
vt 0.991268992 0.126449004
vn 0 0.99951782 0.0310504122
v 0.0416832641 0.231984496 -0.528293729
vt 0.771813989 0.0576580018
vn 0 0.99951782 0.0310504122
v 0.0416832641 0.241924942 -0.848278284
vt 0.991841972 0.0595530011
vn 0 0.99951782 0.0310504122
v -0.0568419844 0.148670658 -0.966245174
vt 0.945415974 0.414294988
vn 0 -0.0108422013 -0.999941222
v 0.0433605127 0.148670658 -0.966245174
vt 0.890763998 0.414294988
vn 0 -0.0108422013 -0.999941222
v 0.0308167655 0.0678516477 -0.965368867
vt 0.897606015 0.370213002
vn 0 -0.0108422013 -0.999941222
v -0.0568419844 0.148670658 -0.966245174
vt 0.945415974 0.414294988
vn 0 -0.0108422013 -0.999941222
v 0.0308167655 0.0678516477 -0.965368867
vt 0.897606015 0.370213002
vn 0 -0.0108422013 -0.999941222
v -0.0442984849 0.0678516477 -0.965368867
vt 0.938574016 0.370213002
vn 0 -0.0108422013 -0.999941222
v -0.0611059889 0.143484831 -0.990583301
vt 0.950028002 0.421162009
vn 0 0.0102585543 -0.99994738
v -0.0678864866 0.256917953 -0.98941958
vt 0.953436971 0.482802004
vn 0 0.0102585543 -0.99994738
v 0.054404512 0.256917953 -0.98941958
vt 0.887004972 0.48250699
vn 0 0.0102585543 -0.99994738
v -0.0611059889 0.143484831 -0.990583301
vt 0.950028002 0.421162009
vn 0 0.0102585543 -0.99994738
v 0.054404512 0.256917953 -0.98941958
vt 0.887004972 0.48250699
vn 0 0.0102585543 -0.99994738
v 0.0476242602 0.143484831 -0.990583301
vt 0.890963018 0.420899987
vn 0 0.0102585543 -0.99994738
v -0.0678864866 0.256917953 -0.98941958
vt 0.622160971 0.00486500002
vn 0 0.999460104 0.0328557639
v -0.0678864866 0.252121061 -0.843499899
vt 0.621415019 0.0918349996
vn 0 0.999460104 0.0328557639
v 0.054404512 0.252121061 -0.843499899
vt 0.694281995 0.092459999
vn 0 0.999460104 0.0328557639
v -0.0678864866 0.256917953 -0.98941958
vt 0.622160971 0.00486500002
vn 0 0.999460104 0.0328557639
v 0.054404512 0.252121061 -0.843499899
vt 0.694281995 0.092459999
vn 0 0.999460104 0.0328557639
v 0.054404512 0.256917953 -0.98941958
vt 0.695026994 0.00548999989
vn 0 0.999460104 0.0328557639
v -0.0611059889 0.145287037 -0.844595909
vt 0.798471987 0.419124991
vn -0.998110375 -0.0614433248 -0.000630349534
v -0.0678864866 0.252121061 -0.843499899
vt 0.797927022 0.482787013
vn -0.997991185 -0.0633187382 -0.00208150931
v -0.0678864866 0.256917953 -0.98941958
vt 0.884707987 0.485489011
vn -0.998110375 -0.0614433248 -0.000630349534
v -0.0611059889 0.145287037 -0.844595909
vt 0.798471987 0.419124991
vn -0.998110375 -0.0614433248 -0.000630349534
v -0.0678864866 0.256917953 -0.98941958
vt 0.884707987 0.485489011
vn -0.998110375 -0.0614433248 -0.000630349534
v -0.0611059889 0.143484831 -0.990583301
vt 0.885286987 0.41791001
vn -0.99821751 -0.0596762984 0.000736700507
v 0.0476242602 0.145287037 -0.844595909
vt 0.0311099999 0.38350901
vn 0 -0.787151474 0.616759724
v -0.0611059889 0.145287037 -0.844595909
vt 0.0337270014 0.355042994
vn 0 -0.804378918 0.594116619
v -0.0611059889 0.143484831 -0.990583301
vt 0.0709540024 0.358556986
vn 0 -0.99992381 0.0123440025
v 0.0476242602 0.145287037 -0.844595909
vt 0.0311099999 0.38350901
vn 0 -0.787151474 0.616759724
v -0.0611059889 0.143484831 -0.990583301
vt 0.0709540024 0.358556986
vn 0 -0.99992381 0.0123440025
v 0.0476242602 0.143484831 -0.990583301
vt 0.0708289966 0.387023002
vn 0 -0.99992381 0.0123440025
v -0.0678864866 0.252121061 -0.843499899
vt 0.00591900013 0.350697011
vn 0 -0.0102584597 0.999947381
v -0.0611059889 0.145287037 -0.844595909
vt 0.0337270014 0.355042994
vn 0 -0.804378918 0.594116619
v 0.0476242602 0.145287037 -0.844595909
vt 0.0311099999 0.38350901
vn 0 -0.787151474 0.616759724
v -0.0678864866 0.252121061 -0.843499899
vt 0.00591900013 0.350697011
vn 0 -0.0102584597 0.999947381
v 0.0476242602 0.145287037 -0.844595909
vt 0.0311099999 0.38350901
vn 0 -0.787151474 0.616759724
v 0.054404512 0.252121061 -0.843499899
vt 0.00297600008 0.38271299
vn 0 -0.0102584597 0.999947381
v 0.054404512 0.252121061 -0.843499899
vt 0.797927022 0.482787013
vn 0.998110512 -0.0614411052 -0.000630326763
v 0.0476242602 0.145287037 -0.844595909
vt 0.798471987 0.419126004
vn 0.99799133 -0.0633458274 0.000782000634
v 0.0476242602 0.143484831 -0.990583301
vt 0.885286987 0.41791001
vn 0.998110512 -0.0614411052 -0.000630326763
v 0.054404512 0.252121061 -0.843499899
vt 0.797927022 0.482787013
vn 0.998110512 -0.0614411052 -0.000630326763
v 0.0476242602 0.143484831 -0.990583301
vt 0.885286987 0.41791001
vn 0.998110512 -0.0614411052 -0.000630326763
v 0.054404512 0.256917953 -0.98941958
vt 0.884707987 0.485489011
vn 0.998217639 -0.0596464686 -0.00196078892
v 0.0445917621 0.347007215 -0.625762343
vt 0.921114028 0.36610499
vn 1 -1.38233634e-06 2.88355372e-06
v 0.0445915125 0.34621346 -0.548394442
vt 0.880859971 0.365759999
vn 1 -3.30916855e-08 3.22573286e-06
v 0.0445915125 0.327434957 -0.548587084
vt 0.880944014 0.355989993
vn 0.996788581 0.0800740275 0.000821811963
v 0.0445917621 0.347007215 -0.625762343
vt 0.921114028 0.36610499
vn 1 -1.38233634e-06 2.88355372e-06
v 0.0445915125 0.327434957 -0.548587084
vt 0.880944014 0.355989993
vn 0.996788581 0.0800740275 0.000821811963
v 0.0445917621 0.328408539 -0.643487811
vt 0.930319011 0.356413007
vn 0.997513093 0.0700364508 0.0079072537
v 0.0445917621 0.328408539 -0.643487811
vt 0.930319011 0.356413007
vn 0.997513093 0.0700364508 0.0079072537
v 0.0445915125 0.327434957 -0.548587084
vt 0.880944014 0.355989993
vn 0.996788581 0.0800740275 0.000821811963
v 0.0506002605 0.256351531 -0.624846816
vt 0.920560002 0.318809986
vn 0.991745785 -0.128219046 -0.000417831762
v 0.0445915125 0.327434957 -0.548587084
vt 0.880944014 0.355989993
vn 0.996788581 0.0800740275 0.000821811963
v 0.0506002605 0.251133502 -0.116217852
vt 0.655927002 0.31653899
vn 0.999955807 -0.00940074177 -9.64402203e-05
v 0.0506002605 0.256351531 -0.624846816
vt 0.920560002 0.318809986
vn 0.991745785 -0.128219046 -0.000417831762
v 0.0506002605 0.256351531 -0.624846816
vt 0.920560002 0.318809986
vn 0.991745785 -0.128219046 -0.000417831762
v 0.0506002605 0.251133502 -0.116217852
vt 0.655927002 0.31653899
vn 0.999955807 -0.00940074177 -9.64402203e-05
v 0.0370437615 0.218506917 -0.116552569
vt 0.656085014 0.298155993
vn 0.92346455 -0.383663566 -0.00393601344
v 0.0506002605 0.256351531 -0.624846816
vt 0.920560002 0.318809986
vn 0.991745785 -0.128219046 -0.000417831762
v 0.0370437615 0.218506917 -0.116552569
vt 0.656085014 0.298155993
vn 0.92346455 -0.383663566 -0.00393601344
v 0.0370437615 0.223724961 -0.625181556
vt 0.920718014 0.300428987
vn 0.92346452 -0.38366364 -0.00393601973
v 0.0445915125 0.327434957 -0.548587084
vt 0.880944014 0.355989993
vn 0.996788581 0.0800740275 0.000821811963
v 0.0445915125 0.322309792 -0.0490130633
vt 0.621022999 0.353758991
vn 0.996522479 0.0833199749 0.000854785478
v 0.0506002605 0.251133502 -0.116217852
vt 0.655927002 0.31653899
vn 0.999955807 -0.00940074177 -9.64402203e-05
v 0.0445917621 0.328408539 -0.643487811
vt 0.930319011 0.356413007
vn 0.997513093 0.0700364508 0.0079072537
v 0.0506002605 0.256351531 -0.624846816
vt 0.920560002 0.318809986
vn 0.991745785 -0.128219046 -0.000417831762
v 0.0506002605 0.26825276 -0.644014716
vt 0.930558026 0.324961007
vn 0.993232635 0.0986697661 0.0612634424
v -0.05844374 0.347007215 -0.625762343
vt 0.920952976 0.366162986
vn -1 0 0
v -0.05844374 0.327434957 -0.548587084
vt 0.88094902 0.355978012
vn -0.996788562 0.0800742604 0.000821484399
v -0.05844374 0.34621346 -0.548394442
vt 0.880864978 0.365749002
vn -1 0 0
v -0.05844374 0.347007215 -0.625762343
vt 0.920952976 0.366162986
vn -1 0 0
v -0.05844374 0.328408539 -0.643487811
vt 0.930320024 0.35641399
vn -0.99751291 0.0700392805 0.00790526354
v -0.05844374 0.327434957 -0.548587084
vt 0.88094902 0.355978012
vn -0.996788562 0.0800742604 0.000821484399
v -0.05844374 0.328408539 -0.643487811
vt 0.930320024 0.35641399
vn -0.99751291 0.0700392805 0.00790526354
v -0.0644524843 0.256351531 -0.624846816
vt 0.920560002 0.318809986
vn -0.991745826 -0.128218729 -0.000418020622
v -0.05844374 0.327434957 -0.548587084
vt 0.88094902 0.355978012
vn -0.996788562 0.0800742604 0.000821484399
v -0.05844374 0.327434957 -0.548587084
vt 0.88094902 0.355978012
vn -0.996788562 0.0800742604 0.000821484399
v -0.0644524843 0.256351531 -0.624846816
vt 0.920560002 0.318809986
vn -0.991745826 -0.128218729 -0.000418020622
v -0.0644524843 0.251133502 -0.116217852
vt 0.655853987 0.316321999
vn -0.999955807 -0.00940076267 -9.64404347e-05
v -0.0644524843 0.256351531 -0.624846816
vt 0.920560002 0.318809986
vn -0.991745826 -0.128218729 -0.000418020622
v -0.0508959889 0.218506917 -0.116552569
vt 0.656085014 0.298155993
vn -0.923464588 -0.383663477 -0.00393601252
v -0.0644524843 0.251133502 -0.116217852
vt 0.655853987 0.316321999
vn -0.999955807 -0.00940076267 -9.64404347e-05
v -0.0644524843 0.256351531 -0.624846816
vt 0.920560002 0.318809986
vn -0.991745826 -0.128218729 -0.000418020622
v -0.0508959889 0.223724961 -0.625181556
vt 0.920718014 0.300428987
vn -0.923464557 -0.38366355 -0.0039360188
v -0.0508959889 0.218506917 -0.116552569
vt 0.656085014 0.298155993
vn -0.923464588 -0.383663477 -0.00393601252
v -0.05844374 0.327434957 -0.548587084
vt 0.88094902 0.355978012
vn -0.996788562 0.0800742604 0.000821484399
v -0.0644524843 0.251133502 -0.116217852
vt 0.655853987 0.316321999
vn -0.999955807 -0.00940076267 -9.64404347e-05
v -0.05844374 0.322309792 -0.0490130633
vt 0.621022999 0.353758991
vn -0.996522483 0.0833199236 0.000854784952
v -0.05844374 0.328408539 -0.643487811
vt 0.930320024 0.35641399
vn -0.99751291 0.0700392805 0.00790526354
v -0.0644524843 0.26825276 -0.644014716
vt 0.930565 0.324947
vn -0.993232087 0.0986737492 0.0612659155
v -0.0644524843 0.256351531 -0.624846816
vt 0.920560002 0.318809986
vn -0.991745826 -0.128218729 -0.000418020622
v -0.05844374 0.347007215 -0.625762343
vt 0.533264995 0.0669879988
vn 0 0.995170513 -0.0981613472
v -0.05844374 0.34621346 -0.548394442
vt 0.488191009 0.0666019991
vn 0 0.999947376 0.010258948
v 0.0445915125 0.34621346 -0.548394442
vt 0.488705993 0.0065779998
vn 0 0.999947376 0.010258948
v -0.05844374 0.347007215 -0.625762343
vt 0.533264995 0.0669879988
vn 0 0.995170513 -0.0981613472
v 0.0445915125 0.34621346 -0.548394442
vt 0.488705993 0.0065779998
vn 0 0.999947376 0.010258948
v 0.0445917621 0.347007215 -0.625762343
vt 0.533779979 0.00696399994
vn 0 0.951682925 -0.307082416
v -0.05844374 0.328408539 -0.643487811
vt 0.548232973 0.0671169981
vn 0 0.346645983 -0.937996035
v -0.05844374 0.347007215 -0.625762343
vt 0.533264995 0.0669879988
vn 0 0.995170513 -0.0981613472
v 0.0445917621 0.347007215 -0.625762343
vt 0.533779979 0.00696399994
vn 0 0.951682925 -0.307082416
v -0.05844374 0.328408539 -0.643487811
vt 0.548232973 0.0671169981
vn 0 0.346645983 -0.937996035
v 0.0445917621 0.347007215 -0.625762343
vt 0.533779979 0.00696399994
vn 0 0.951682925 -0.307082416
v 0.0445917621 0.328408539 -0.643487811
vt 0.548747003 0.00709199999
vn 0 0.128048406 -0.991767919
v -0.0644524843 0.26825276 -0.644014716
vt 0.583248019 0.0709180012
vn 0 -0.14280143 -0.989751359
v -0.05844374 0.328408539 -0.643487811
vt 0.548232973 0.0671169981
vn 0 0.346645983 -0.937996035
v 0.0445917621 0.328408539 -0.643487811
vt 0.548747003 0.00709199999
vn 0 0.128048406 -0.991767919
v -0.0644524843 0.26825276 -0.644014716
vt 0.583248019 0.0709180012
vn 0 -0.14280143 -0.989751359
v 0.0445917621 0.328408539 -0.643487811
vt 0.548747003 0.00709199999
vn 0 0.128048406 -0.991767919
v 0.0506002605 0.26825276 -0.644014716
vt 0.583823025 0.00389200007
vn 0 -0.410614722 -0.911808944
v -0.0644524843 0.256351531 -0.624846816
vt 0.596391976 0.0710299984
vn 0 -0.558578508 -0.829451656
v -0.0644524843 0.26825276 -0.644014716
vt 0.583248019 0.0709180012
vn 0 -0.14280143 -0.989751359
v 0.0506002605 0.26825276 -0.644014716
vt 0.583823025 0.00389200007
vn 0 -0.410614722 -0.911808944
v -0.0644524843 0.256351531 -0.624846816
vt 0.596391976 0.0710299984
vn 0 -0.558578508 -0.829451656
v 0.0506002605 0.26825276 -0.644014716
vt 0.583823025 0.00389200007
vn 0 -0.410614722 -0.911808944
v 0.0506002605 0.256351531 -0.624846816
vt 0.596966982 0.004005
vn 0 -0.258352294 -0.966050771
v -0.0508959889 0.223724961 -0.625181556
vt 0.615468025 0.0632959977
vn 0 0.0102591868 -0.999947373
v -0.0644524843 0.256351531 -0.624846816
vt 0.596391976 0.0710299984
vn 0 -0.558578508 -0.829451656
v 0.0506002605 0.256351531 -0.624846816
vt 0.596966982 0.004005
vn 0 -0.258352294 -0.966050771
v -0.0508959889 0.223724961 -0.625181556
vt 0.615468025 0.0632959977
vn 0 0.0102591868 -0.999947373
v 0.0506002605 0.256351531 -0.624846816
vt 0.596966982 0.004005
vn 0 -0.258352294 -0.966050771
v 0.0370437615 0.223724961 -0.625181556
vt 0.615907013 0.0120649999
vn 0 0.0102591868 -0.999947373
v -0.05844374 0.34621346 -0.548394442
vt 0.488191009 0.0666019991
vn 0 -0.0102581168 0.999947384
v -0.05844374 0.327434957 -0.548587084
vt 0.477250993 0.0665080026
vn 0 -0.0102581168 0.999947384
v 0.0445915125 0.327434957 -0.548587084
vt 0.477764994 0.00648400001
vn 0 -0.0102581168 0.999947384
v -0.05844374 0.34621346 -0.548394442
vt 0.488191009 0.0666019991
vn 0 -0.0102581168 0.999947384
v 0.0445915125 0.327434957 -0.548587084
vt 0.477764994 0.00648400001
vn 0 -0.0102581168 0.999947384
v 0.0445915125 0.34621346 -0.548394442
vt 0.488705993 0.0065779998
vn 0 -0.0102581168 0.999947384
v -0.0644524843 0.251133502 -0.116217852
vt 0.613958001 0.280243993
vn 0 -0.465945785 0.884813272
v -0.0508959889 0.218506917 -0.116552569
vt 0.618789017 0.268893003
vn 0 -0.0102584971 0.99994738
v 0.0370437615 0.218506917 -0.116552569
vt 0.649492979 0.269156009
vn 0 -0.0102584971 0.99994738
v -0.0644524843 0.251133502 -0.116217852
vt 0.613958001 0.280243993
vn 0 -0.465945785 0.884813272
v 0.0370437615 0.218506917 -0.116552569
vt 0.649492979 0.269156009
vn 0 -0.0102584971 0.99994738
v 0.0506002605 0.251133502 -0.116217852
vt 0.654129028 0.280589014
vn 0 -0.60625806 0.795267983
v -0.05844374 0.322309792 -0.0490130633
vt 0.615763009 0.314440012
vn 0 -0.686530313 0.727101182
v -0.0644524843 0.251133502 -0.116217852
vt 0.613958001 0.280243993
vn 0 -0.465945785 0.884813272
v 0.0506002605 0.251133502 -0.116217852
vt 0.654129028 0.280589014
vn 0 -0.60625806 0.795267983
v -0.05844374 0.322309792 -0.0490130633
vt 0.615763009 0.314440012
vn 0 -0.686530313 0.727101182
v 0.0506002605 0.251133502 -0.116217852
vt 0.654129028 0.280589014
vn 0 -0.60625806 0.795267983
v 0.0445915125 0.322309792 -0.0490130633
vt 0.651737988 0.314749002
vn 0 -0.686530313 0.727101182
v -0.05844374 0.327434957 -0.548587084
vt 0.477250993 0.0665080026
vn 0 0.99994738 0.0102585304
v -0.05844374 0.322309792 -0.0490130633
vt 0.186203003 0.0640140027
vn 0 0.99994738 0.0102585304
v 0.0445915125 0.322309792 -0.0490130633
vt 0.186717004 0.00398899987
vn 0 0.99994738 0.0102585304
v -0.05844374 0.327434957 -0.548587084
vt 0.477250993 0.0665080026
vn 0 0.99994738 0.0102585304
v 0.0445915125 0.322309792 -0.0490130633
vt 0.186717004 0.00398899987
vn 0 0.99994738 0.0102585304
v 0.0445915125 0.327434957 -0.548587084
vt 0.477764994 0.00648400001
vn 0 0.99994738 0.0102585304
v 0.0244517643 0.307630658 0.382099003
vt 0.733566999 0.243337005
vn 0.998450237 -0.0555782171 -0.00286104769
v 0.016791014 0.200031102 0.380995125
vt 0.73437798 0.191937
vn 0.99837059 -0.0539401293 -0.0186179264
v 0.016791014 0.202445626 0.145639271
vt 0.864386022 0.192546993
vn 0.99842505 -0.0561003391 0.000413290495
v 0.0167912636 0.0669144392 0.538323045
vt 0.659471989 0.122614004
vn 0.999515343 -0.030509397 -0.00618507943
v 0.016791014 0.200031102 0.380995125
vt 0.73437798 0.191937
vn 0.99837059 -0.0539401293 -0.0186179264
v 0.0244517643 0.307630658 0.382099003
vt 0.733566999 0.243337005
vn 0.998450237 -0.0555782171 -0.00286104769
v 0.016791014 0.0678175092 0.437513262
vt 0.709869981 0.123308003
vn 1 -1.0624543e-06 -2.48541276e-06
v 0.016791014 0.200031102 0.380995125
vt 0.73437798 0.191937
vn 0.99837059 -0.0539401293 -0.0186179264
v 0.0167912636 0.0669144392 0.538323045
vt 0.659471989 0.122614004
vn 0.999515343 -0.030509397 -0.00618507943
v 0.0167912636 0.0669144392 0.538323045
vt 0.659471989 0.122614004
vn 0.999515343 -0.030509397 -0.00618507943
v 0.0244517643 0.307630658 0.382099003
vt 0.733566999 0.243337005
vn 0.998450237 -0.0555782171 -0.00286104769
v 0.0244520139 0.376555443 0.541499615
vt 0.65713799 0.277413011
vn 0.999710441 -0.0220873369 0.00954899355
v 0.0244520139 0.376555443 0.541499615
vt 0.65713799 0.277413011
vn 0.999710441 -0.0220873369 0.00954899355
v 0.0244517643 0.307630658 0.382099003
vt 0.733566999 0.243337005
vn 0.998450237 -0.0555782171 -0.00286104769
v 0.0244517643 0.374410331 0.447578698
vt 0.704100013 0.276565999
vn 1 2.66545606e-06 -2.71837372e-06
v 0.0244517643 0.307630658 0.382099003
vt 0.733566999 0.243337005
vn 0.998450237 -0.0555782171 -0.00286104769
v 0.016791014 0.202445626 0.145639271
vt 0.864386022 0.192546993
vn 0.99842505 -0.0561003391 0.000413290495
v 0.0172240138 0.205316365 -0.134185284
vt 0.995361984 0.193426996
vn 0.998295323 -0.0583647049 9.36090657e-05
v 0.0172240138 0.205316365 -0.134185284
vt 0.995361984 0.193426996
vn 0.998295323 -0.0583647049 9.36090657e-05
v 0.016791014 0.202445626 0.145639271
vt 0.864386022 0.192546993
vn 0.99842505 -0.0561003391 0.000413290495
v 0.0172237642 0.149729133 0.0869165957
vt 0.894541979 0.167002007
vn 0.999978142 0.00641189533 0.00161314369
v 0.0244517643 0.307630658 0.382099003
vt 0.733566999 0.243337005
vn 0.998450237 -0.0555782171 -0.00286104769
v 0.0172240138 0.205316365 -0.134185284
vt 0.995361984 0.193426996
vn 0.998295323 -0.0583647049 9.36090657e-05
v 0.0244517643 0.312915921 -0.133081406
vt 0.994552016 0.247218996
vn 0.997751758 -0.0670146056 -0.000687506383
v -0.0321334861 0.202445626 0.145639271
vt 0.864386022 0.192546993
vn -0.998143053 -0.0609133913 -7.2334175e-05
v -0.0397942364 0.307630658 0.382099003
vt 0.733566999 0.243337005
vn -0.997749949 -0.0668937743 0.0045013407
v -0.0397942364 0.312915921 -0.133081406
vt 0.994552016 0.247218996
vn -0.997574252 -0.0696102155 -0.000171116795
v -0.0321334861 0.202445626 0.145639271
vt 0.864386022 0.192546993
vn -0.998143053 -0.0609133913 -7.2334175e-05
v -0.0397942364 0.312915921 -0.133081406
vt 0.994552016 0.247218996
vn -0.997574252 -0.0696102155 -0.000171116795
v -0.0325662382 0.205316365 -0.134185284
vt 0.995361984 0.193426996
vn -0.999084732 -0.0427606563 0.00110641229
v -0.0321334861 0.202445626 0.145639271
vt 0.864386022 0.192546993
vn -0.998143053 -0.0609133913 -7.2334175e-05
v -0.0325662382 0.205316365 -0.134185284
vt 0.995361984 0.193426996
vn -0.999084732 -0.0427606563 0.00110641229
v -0.0325662382 0.149729133 0.0869165957
vt 0.894541979 0.167002007
vn -0.999978137 0.00641290524 0.00161226875
v -0.0321334861 0.202445626 0.145639271
vt 0.864386022 0.192546993
vn -0.998143053 -0.0609133913 -7.2334175e-05
v -0.0321334861 0.200031102 0.380995125
vt 0.73437798 0.191937
vn -0.999175127 -0.0403165011 -0.00486271312
v -0.0397942364 0.307630658 0.382099003
vt 0.733566999 0.243337005
vn -0.997749949 -0.0668937743 0.0045013407
v -0.0397939906 0.376555443 0.541499615
vt 0.65713799 0.277413011
vn -0.999414981 -0.0335196477 -0.00679177777
v -0.0397942364 0.307630658 0.382099003
vt 0.733566999 0.243337005
vn -0.997749949 -0.0668937743 0.0045013407
v -0.0321334861 0.200031102 0.380995125
vt 0.73437798 0.191937
vn -0.999175127 -0.0403165011 -0.00486271312
v -0.0397942364 0.374410331 0.447578698
vt 0.704100013 0.276565999
vn -1 -2.62567313e-06 2.67780098e-06
v -0.0397942364 0.307630658 0.382099003
vt 0.733566999 0.243337005
vn -0.997749949 -0.0668937743 0.0045013407
v -0.0397939906 0.376555443 0.541499615
vt 0.65713799 0.277413011
vn -0.999414981 -0.0335196477 -0.00679177777
v -0.0397939906 0.376555443 0.541499615
vt 0.65713799 0.277413011
vn -0.999414981 -0.0335196477 -0.00679177777
v -0.0321334861 0.200031102 0.380995125
vt 0.73437798 0.191937
vn -0.999175127 -0.0403165011 -0.00486271312
v -0.0321332365 0.0669144392 0.538323045
vt 0.659471989 0.122614004
vn -0.999680272 -0.0193037549 -0.0163315062
v -0.0321332365 0.0669144392 0.538323045
vt 0.659471989 0.122614004
vn -0.999680272 -0.0193037549 -0.0163315062
v -0.0321334861 0.200031102 0.380995125
vt 0.73437798 0.191937
vn -0.999175127 -0.0403165011 -0.00486271312
v -0.0321334861 0.0678175092 0.437513262
vt 0.709869981 0.123308003
vn -1 1.0624543e-06 2.48541276e-06
v -0.0321334861 0.200031102 0.380995125
vt 0.806250989 0.246987998
vn 0 -0.908057558 -0.418845402
v -0.0321334861 0.202445626 0.145639271
vt 0.914942026 0.248465002
vn 0 -0.985684422 0.168600773
v 0.016791014 0.202445626 0.145639271
vt 0.914637029 0.267179012
vn 0 -0.985473828 0.169827364
v -0.0321334861 0.200031102 0.380995125
vt 0.806250989 0.246987998
vn 0 -0.908057558 -0.418845402
v 0.016791014 0.202445626 0.145639271
vt 0.914637029 0.267179012
vn 0 -0.985473828 0.169827364
v 0.016791014 0.200031102 0.380995125
vt 0.805944979 0.267630994
vn 0 -0.908057558 -0.418845402
v 0.016791014 0.202445626 0.145639271
vt 0.914637029 0.267179012
vn 0 -0.985473828 0.169827364
v -0.0321334861 0.202445626 0.145639271
vt 0.914942026 0.248465002
vn 0 -0.985684422 0.168600773
v -0.0325662382 0.149729133 0.0869165957
vt 0.945950985 0.248796999
vn 0 -0.744137349 0.668026651
v 0.016791014 0.202445626 0.145639271
vt 0.914637029 0.267179012
vn 0 -0.985473828 0.169827364
v -0.0325662382 0.149729133 0.0869165957
vt 0.945950985 0.248796999
vn 0 -0.744137349 0.668026651
v 0.0172237642 0.149729133 0.0869165957
vt 0.945640028 0.267883986
vn 0 -0.744137349 0.668026651
v -0.0321334861 0.200031102 0.380995125
vt 0.806250989 0.246987998
vn 0 -0.908057558 -0.418845402
v 0.016791014 0.200031102 0.380995125
vt 0.805944979 0.267630994
vn 0 -0.908057558 -0.418845402
v 0.016791014 0.0678175092 0.437513262
vt 0.738678992 0.266732991
vn 0 -0.39306817 -0.919509333
v -0.0321334861 0.200031102 0.380995125
vt 0.806250989 0.246987998
vn 0 -0.908057558 -0.418845402
v 0.016791014 0.0678175092 0.437513262
vt 0.738678992 0.266732991
vn 0 -0.39306817 -0.919509333
v -0.0321334861 0.0678175092 0.437513262
vt 0.738983989 0.246089995
vn 0 -0.39306817 -0.919509333
v -0.0397942364 0.307630658 0.382099003
vt 0.775608003 0.295630008
vn 0 0.998687095 -0.051225839
v 0.0244517643 0.307630658 0.382099003
vt 0.775797009 0.273526996
vn 0 0.980858151 -0.194723618
v 0.0244517643 0.312915921 -0.133081406
vt 0.953047991 0.275045991
vn 0 0.99994738 0.0102585131
v -0.0397942364 0.307630658 0.382099003
vt 0.775608003 0.295630008
vn 0 0.998687095 -0.051225839
v 0.0244517643 0.312915921 -0.133081406
vt 0.953047991 0.275045991
vn 0 0.99994738 0.0102585131
v -0.0397942364 0.312915921 -0.133081406
vt 0.952858984 0.297149003
vn 0 0.99994738 0.0102585131
v 0.0244517643 0.307630658 0.382099003
vt 0.775797009 0.273526996
vn 0 0.980858151 -0.194723618
v -0.0397942364 0.307630658 0.382099003
vt 0.775608003 0.295630008
vn 0 0.998687095 -0.051225839
v -0.0397942364 0.374410331 0.447578698
vt 0.743430972 0.295354009
vn 0 0.856186274 -0.516667267
v 0.0244517643 0.307630658 0.382099003
vt 0.775797009 0.273526996
vn 0 0.980858151 -0.194723618
v -0.0397942364 0.374410331 0.447578698
vt 0.743430972 0.295354009
vn 0 0.856186274 -0.516667267
v 0.0244517643 0.374410331 0.447578698
vt 0.743620992 0.273250997
vn 0 0.962825865 -0.270122849
v 0.0244517643 0.374410331 0.447578698
vt 0.743620992 0.273250997
vn 0 0.962825865 -0.270122849
v -0.0397942364 0.374410331 0.447578698
vt 0.743430972 0.295354009
vn 0 0.856186274 -0.516667267
v -0.0397939906 0.376555443 0.541499615
vt 0.711109996 0.295076996
vn 0 0.999739279 -0.0228335963
v 0.0244517643 0.374410331 0.447578698
vt 0.743620992 0.273250997
vn 0 0.962825865 -0.270122849
v -0.0397939906 0.376555443 0.541499615
vt 0.711109996 0.295076996
vn 0 0.999739279 -0.0228335963
v 0.0244520139 0.376555443 0.541499615
vt 0.711300015 0.272974014
vn 0 0.999739279 -0.0228335963
v -0.0397939906 0.376555443 0.541499615
vt 0.211358994 0.49485001
vn 0 -0.0102583403 0.999947382
v -0.0321332365 0.0669144392 0.538323045
vt 0.0650269985 0.48744601
vn 0 -0.0102583403 0.999947382
v 0.0167912636 0.0669144392 0.538323045
vt 0.0655269995 0.461490989
vn 0 -0.0102583403 0.999947382
v -0.0397939906 0.376555443 0.541499615
vt 0.211358994 0.49485001
vn 0 -0.0102583403 0.999947382
v 0.0167912636 0.0669144392 0.538323045
vt 0.0655269995 0.461490989
vn 0 -0.0102583403 0.999947382
v 0.0244520139 0.376555443 0.541499615
vt 0.212015003 0.460767001
vn 0 -0.0102583403 0.999947382
v -0.0321334861 0.0678175092 0.437513262
vt 0.00176999997 0.486299992
vn 0 -0.999959878 -0.00895779869
v 0.016791014 0.0678175092 0.437513262
vt 0.00227100006 0.460345
vn 0 -0.999959878 -0.00895779869
v 0.0167912636 0.0669144392 0.538323045
vt 0.0655269995 0.461490989
vn 0 -0.999959878 -0.00895779869
v -0.0321334861 0.0678175092 0.437513262
vt 0.00176999997 0.486299992
vn 0 -0.999959878 -0.00895779869
v 0.0167912636 0.0669144392 0.538323045
vt 0.0655269995 0.461490989
vn 0 -0.999959878 -0.00895779869
v -0.0321332365 0.0669144392 0.538323045
vt 0.0650269985 0.48744601
vn 0 -0.999959878 -0.00895779869
v 0.0600567609 0.0576297231 -0.42885834
vt 0.506021976 0.353652
vn 1 0 0
v 0.0600567609 0.058743 -0.537374854
vt 0.582295001 0.354306012
vn 1 0 0
v 0.0600567609 0.202395737 -0.53590107
vt 0.581429005 0.455273986
vn 0.997777602 0.0666287406 0.000683541264
v 0.0600567609 0.0576297231 -0.42885834
vt 0.506021976 0.353652
vn 1 0 0
v 0.0600567609 0.202395737 -0.53590107
vt 0.581429005 0.455273986
vn 0.997777602 0.0666287406 0.000683541264
v 0.0600567609 0.201282471 -0.427384585
vt 0.505156994 0.454620987
vn 0.982759185 0.184880467 0.0018966926
v 0.0600567609 0.201282471 -0.427384585
vt 0.505156994 0.454620987
vn 0.982759185 0.184880467 0.0018966926
v 0.0600567609 0.202395737 -0.53590107
vt 0.581429005 0.455273986
vn 0.997777602 0.0666287406 0.000683541264
v 0.0377470106 0.249147654 -0.535421491
vt 0.581148028 0.48813501
vn 0.902517314 0.43063091 0.00441785156
v 0.0600567609 0.201282471 -0.427384585
vt 0.505156994 0.454620987
vn 0.982759185 0.184880467 0.0018966926
v 0.0377470106 0.249147654 -0.535421491
vt 0.581148028 0.48813501
vn 0.902517314 0.43063091 0.00441785156
v 0.0377470106 0.248034373 -0.426904947
vt 0.504875004 0.487480998
vn 0.902517288 0.430630963 0.00441788046
v -0.074840486 0.0576297231 -0.42885834
vt 0.506021976 0.353652
vn -1 0 0
v -0.074840486 0.201282471 -0.427384585
vt 0.505156994 0.454620987
vn -0.993206162 0.116361915 0.00119375167
v -0.074840486 0.202395737 -0.53590107
vt 0.581429005 0.455273986
vn -0.99320616 0.116361925 0.00119375944
v -0.074840486 0.0576297231 -0.42885834
vt 0.506021976 0.353652
vn -1 0 0
v -0.074840486 0.202395737 -0.53590107
vt 0.581429005 0.455273986
vn -0.99320616 0.116361925 0.00119375944
v -0.074840486 0.058743 -0.537374854
vt 0.582295001 0.354306012
vn -1 0 0
v -0.074840486 0.202395737 -0.53590107
vt 0.581429005 0.455273986
vn -0.99320616 0.116361925 0.00119375944
v -0.074840486 0.201282471 -0.427384585
vt 0.505156994 0.454620987
vn -0.993206162 0.116361915 0.00119375167
v -0.0525307357 0.248034373 -0.426904947
vt 0.504875004 0.487480998
vn -0.902517314 0.43063091 0.00441785156
v -0.074840486 0.202395737 -0.53590107
vt 0.581429005 0.455273986
vn -0.99320616 0.116361925 0.00119375944
v -0.0525307357 0.248034373 -0.426904947
vt 0.504875004 0.487480998
vn -0.902517314 0.43063091 0.00441785156
v -0.0525307357 0.249147654 -0.535421491
vt 0.581148028 0.48813501
vn -0.90251734 0.430630856 0.00441787937
v -0.074840486 0.058743 -0.537374854
vt 0.570325017 0.117367998
vn 0 0.0102588153 -0.999947377
v -0.074840486 0.202395737 -0.53590107
vt 0.569881022 0.169116005
vn 0 0.0102584711 -0.999947381
v 0.0600567609 0.202395737 -0.53590107
vt 0.521290004 0.168699995
vn 0 0.0102585159 -0.99994738
v -0.074840486 0.058743 -0.537374854
vt 0.570325017 0.117367998
vn 0 0.0102588153 -0.999947377
v 0.0600567609 0.202395737 -0.53590107
vt 0.521290004 0.168699995
vn 0 0.0102585159 -0.99994738
v 0.0600567609 0.058743 -0.537374854
vt 0.521732986 0.116952002
vn 0 0.0102588153 -0.999947377
v 0.0600567609 0.202395737 -0.53590107
vt 0.521290004 0.168699995
vn 0 0.0102585159 -0.99994738
v -0.074840486 0.202395737 -0.53590107
vt 0.569881022 0.169116005
vn 0 0.0102584711 -0.999947381
v -0.0525307357 0.249147654 -0.535421491
vt 0.561701 0.185889006
vn 0 0.0102574136 -0.999947391
v 0.0600567609 0.202395737 -0.53590107
vt 0.521290004 0.168699995
vn 0 0.0102585159 -0.99994738
v -0.0525307357 0.249147654 -0.535421491
vt 0.561701 0.185889006
vn 0 0.0102574136 -0.999947391
v 0.0377470106 0.249147654 -0.535421491
vt 0.529182017 0.185609996
vn 0 0.0102574136 -0.999947391
v -0.00954898633 0.108661629 0.580013037
vt 0.631286979 0.156053007
vn 0.642497612 -0.00786092935 0.766247365
v 0.0478632599 0.109155446 0.531877995
vt 0.657483995 0.155888006
vn 0.974608158 -0.00229704556 0.223905477
v 0.0478632599 0.325066209 0.534093022
vt 0.658082008 0.249202996
vn 0.971789317 -0.00588818036 0.235777124
v -0.00954898633 0.108661629 0.580013037
vt 0.631286979 0.156053007
vn 0.642497612 -0.00786092935 0.766247365
v 0.0478632599 0.325066209 0.534093022
vt 0.658082008 0.249202996
vn 0.971789317 -0.00588818036 0.235777124
v -0.00954898633 0.324572384 0.582228065
vt 0.629867017 0.249375999
vn 0.642497613 -0.00786092949 0.766247365
v 0.0478632599 0.325066209 0.534093022
vt 0.658082008 0.249202996
vn 0.971789317 -0.00588818036 0.235777124
v 0.0478632599 0.109155446 0.531877995
vt 0.657483995 0.155888006
vn 0.974608158 -0.00229704556 0.223905477
v 0.0152177643 0.109767474 0.47222051
vt 0.687659979 0.155696005
vn 0.88580522 -0.000953207617 -0.464056251
v 0.0478632599 0.325066209 0.534093022
vt 0.658082008 0.249202996
vn 0.971789317 -0.00588818036 0.235777124
v 0.0152177643 0.109767474 0.47222051
vt 0.687659979 0.155696005
vn 0.88580522 -0.000953207617 -0.464056251
v 0.0180032644 0.325678229 0.474435538
vt 0.688257992 0.249002993
vn 0.89418965 -0.00694380653 -0.447634508
v -0.00954898633 0.108661629 0.580013037
vt 0.631286979 0.156053007
vn -0.642495923 -0.00786094388 0.766248781
v -0.00954898633 0.324572384 0.582228065
vt 0.629867017 0.249375999
vn -0.642495923 -0.00786094401 0.766248781
v -0.0669614896 0.325066209 0.534093022
vt 0.658082008 0.249202996
vn -0.878111194 -0.00490822667 0.478431437
v -0.00954898633 0.108661629 0.580013037
vt 0.631286979 0.156053007
vn -0.642495923 -0.00786094388 0.766248781
v -0.0669614896 0.325066209 0.534093022
vt 0.658082008 0.249202996
vn -0.878111194 -0.00490822667 0.478431437
v -0.0669614896 0.109155446 0.531877995
vt 0.657483995 0.155888006
vn -0.999527194 -0.00428176839 -0.0304475609
v -0.0669614896 0.109155446 0.531877995
vt 0.657483995 0.155888006
vn -0.999527194 -0.00428176839 -0.0304475609
v -0.0669614896 0.325066209 0.534093022
vt 0.658082008 0.249202996
vn -0.878111194 -0.00490822667 0.478431437
v -0.037101239 0.325678229 0.474435538
vt 0.688257992 0.249004006
vn -0.885803662 -0.000953167074 -0.464059224
v -0.0669614896 0.109155446 0.531877995
vt 0.657483995 0.155888006
vn -0.999527194 -0.00428176839 -0.0304475609
v -0.037101239 0.325678229 0.474435538
vt 0.688257992 0.249004006
vn -0.885803662 -0.000953167074 -0.464059224
v -0.0343157388 0.109767474 0.47222051
vt 0.687659979 0.155696005
vn -0.877198277 -0.00639168081 -0.480085752
v -0.00954898633 0.108661629 0.580013037
vt 0.641331017 0.134324998
vn 0 -0.999947381 -0.0102584526
v -0.0669614896 0.109155446 0.531877995
vt 0.619876027 0.117174
vn 0 -0.99994738 -0.0102584736
v 0.0478632599 0.109155446 0.531877995
vt 0.663075984 0.117544003
vn 0 -0.99994738 -0.0102584769
v 0.0478632599 0.109155446 0.531877995
vt 0.663075984 0.117544003
vn 0 -0.99994738 -0.0102584769
v -0.0669614896 0.109155446 0.531877995
vt 0.619876027 0.117174
vn 0 -0.99994738 -0.0102584736
v -0.0343157388 0.109767474 0.47222051
vt 0.632355988 0.0962510034
vn 0 -0.99994738 -0.0102584905
v 0.0478632599 0.109155446 0.531877995
vt 0.663075984 0.117544003
vn 0 -0.99994738 -0.0102584769
v -0.0343157388 0.109767474 0.47222051
vt 0.632355988 0.0962510034
vn 0 -0.99994738 -0.0102584905
v 0.0152177643 0.109767474 0.47222051
vt 0.650978029 0.096412003
vn 0 -0.99994738 -0.0102584905
v -0.0669614896 0.325066209 0.534093022
vt 0.619876027 0.117174
vn 0 0.99994738 0.0102584736
v -0.00954898633 0.324572384 0.582228065
vt 0.641331017 0.134324998
vn 0 0.999947379 0.0102586073
v 0.0478632599 0.325066209 0.534093022
vt 0.663075984 0.117544003
vn 0 0.999947381 0.0102584509
v -0.037101239 0.325678229 0.474435538
vt 0.632337987 0.0962530002
vn 0 0.999947382 0.0102583657
v -0.0669614896 0.325066209 0.534093022
vt 0.619876027 0.117174
vn 0 0.99994738 0.0102584736
v 0.0478632599 0.325066209 0.534093022
vt 0.663075984 0.117544003
vn 0 0.999947381 0.0102584509
v -0.037101239 0.325678229 0.474435538
vt 0.632337987 0.0962530002
vn 0 0.999947382 0.0102583657
v 0.0478632599 0.325066209 0.534093022
vt 0.663075984 0.117544003
vn 0 0.999947381 0.0102584509
v 0.0180032644 0.325678229 0.474435538
vt 0.650973976 0.096412003
vn 0 0.999947382 0.0102583657
v 0.106146015 0.123684041 -0.0898243114
vt 0.259339988 0.398209989
vn 0.953373085 -0.0276948887 0.300520805
v 0.0713922605 0.237355873 -0.088084124
vt 0.259043008 0.470829993
vn 0.928356692 0.280093 0.244339446
v 0.0408400148 0.157096773 0.120000958
vt 0.120263003 0.427902997
vn 0.94909318 0.163230925 0.269402672
v 0.106146015 0.123684041 -0.0898243114
vt 0.259339988 0.398209989
vn 0.953373085 -0.0276948887 0.300520805
v 0.0408400148 0.157096773 0.120000958
vt 0.120263003 0.427902997
vn 0.94909318 0.163230925 0.269402672
v 0.0366960131 0.121652931 0.104253501
vt 0.128766999 0.404630005
vn 0.944402026 -0.170256933 0.281278136
v 0.0713922605 -0.00140422583 -0.0917392001
vt 0.259667009 0.318296999
vn 0.910528989 -0.257922345 0.323130042
v 0.106146015 0.123684041 -0.0898243114
vt 0.259339988 0.398209989
vn 0.953373085 -0.0276948887 0.300520805
v 0.0366960131 0.121652931 0.104253501
vt 0.128766999 0.404630005
vn 0.944402026 -0.170256933 0.281278136
v 0.062933512 0.0425785109 -0.0269728601
vt 0.208565995 0.347959012
vn 0.96789647 -0.221740109 0.118354333
v 0.0366960131 0.121652931 0.104253501
vt 0.128766999 0.404630005
vn 0.944402026 -0.170256933 0.281278136
v 0.0366960131 0.0628584549 0.147759378
vt 0.0982299969 0.36926499
vn 0.99360705 -0.110165976 -0.0246675308
v 0.0190465134 -0.0330721736 0.086520344
vt 0.132424995 0.304118991
vn 0.9548715 -0.295420228 0.0307783663
v 0.062933512 0.0425785109 -0.0269728601
vt 0.208565995 0.347959012
vn 0.96789647 -0.221740109 0.118354333
v 0.0366960131 0.0628584549 0.147759378
vt 0.0982299969 0.36926499
vn 0.99360705 -0.110165976 -0.0246675308
v 0.0366960131 0.0628584549 0.147759378
vt 0.0982299969 0.36926499
vn 0.99360705 -0.110165976 -0.0246675308
v 0.0210992638 -0.0989233553 0.143119514
vt 0.0925360024 0.265547991
vn 0.971475743 -0.0291733135 -0.235337626
v 0.0190465134 -0.0330721736 0.086520344
vt 0.132424995 0.304118991
vn 0.9548715 -0.295420228 0.0307783663
v 0.0366960131 0.0628584549 0.147759378
vt 0.0982299969 0.36926499
vn 0.99360705 -0.110165976 -0.0246675308
v 0.0565605126 -0.0163914263 0.268534333
vt 0.0153259998 0.326790988
vn 0.980236013 -0.0642026703 -0.187123958
v 0.0210992638 -0.0989233553 0.143119514
vt 0.0925360024 0.265547991
vn 0.971475743 -0.0291733135 -0.235337626
v 0.0190465134 -0.0330721736 0.086520344
vt 0.132424995 0.304118991
vn 0.9548715 -0.295420228 0.0307783663
v 0.0190465134 -0.0205137283 0.00233696401
vt 0.186683998 0.307668
vn 0.797824351 -0.596291369 -0.0889545248
v 0.062933512 0.0425785109 -0.0269728601
vt 0.208565995 0.347959012
vn 0.96789647 -0.221740109 0.118354333
v 0.0210992638 -0.0989233553 0.143119514
vt 0.0925360024 0.265547991
vn 0.971475743 -0.0291733135 -0.235337626
v 0.0565605126 -0.0163914263 0.268534333
vt 0.0153259998 0.326790988
vn 0.980236013 -0.0642026703 -0.187123958
v 0.0336835124 -0.150083169 0.142759174
vt 0.086473003 0.232439995
vn 0.988827618 -0.0323010756 -0.145521761
v 0.0336835124 -0.150083169 0.142759174
vt 0.086473003 0.232439995
vn 0.988827618 -0.0323010756 -0.145521761
v 0.0565605126 -0.0163914263 0.268534333
vt 0.0153259998 0.326790988
vn 0.980236013 -0.0642026703 -0.187123958
v 0.0401185118 -0.0833325237 0.268895596
vt 0.0105109997 0.283019006
vn 0.968403247 -0.237446664 0.0762511227
v -0.0861747414 -0.00140422583 -0.0917392001
vt 0.259667009 0.318296999
vn 0.648508165 0.587690084 -0.48379492
v -0.0777162388 0.0425785109 -0.0269728601
vt 0.208565995 0.347959012
vn 0.648508165 0.587690084 -0.48379492
v -0.0514784902 0.121652931 0.104253501
vt 0.128766999 0.404630005
vn 0.648508165 0.587690084 -0.48379492
v -0.0861747414 -0.00140422583 -0.0917392001
vt 0.259667009 0.318296999
vn -0.910730371 -0.257499116 0.322899978
v -0.0514784902 0.121652931 0.104253501
vt 0.128766999 0.404630005
vn -0.944295282 -0.24065085 0.224485163
v -0.120928481 0.123919576 -0.0898207054
vt 0.259339988 0.398360997
vn -0.953373096 -0.0276948769 0.300520772
v -0.120928481 0.123919576 -0.0898207054
vt 0.259339988 0.398360997
vn -0.953373096 -0.0276948769 0.300520772
v -0.0514784902 0.121652931 0.104253501
vt 0.128766999 0.404630005
vn -0.944295282 -0.24065085 0.224485163
v -0.0556224883 0.157096773 0.120000958
vt 0.120263003 0.427902997
vn -0.949016819 0.163464998 0.269529725
v -0.120928481 0.123919576 -0.0898207054
vt 0.259339988 0.398360997
vn -0.953373096 -0.0276948769 0.300520772
v -0.0556224883 0.157096773 0.120000958
vt 0.120263003 0.427902997
vn -0.949016819 0.163464998 0.269529725
v -0.0861747414 0.237355873 -0.088084124
vt 0.259043992 0.470829993
vn -0.928153006 0.280617179 0.24451175
v -0.0338292383 -0.0205137283 0.00233696401
vt 0.186683998 0.307666987
vn -0.946579665 -0.257074276 0.194678593
v -0.0514784902 0.121652931 0.104253501
vt 0.128766999 0.404630005
vn -0.944295282 -0.24065085 0.224485163
v -0.0777162388 0.0425785109 -0.0269728601
vt 0.208565995 0.347959012
vn -0.828825626 -0.390291624 0.40089965
v -0.0514784902 0.121652931 0.104253501
vt 0.128766999 0.404630005
vn -0.944295282 -0.24065085 0.224485163
v -0.0338292383 -0.0205137283 0.00233696401
vt 0.186683998 0.307666987
vn -0.946579665 -0.257074276 0.194678593
v -0.0338292383 -0.0330721736 0.086520344
vt 0.132424995 0.304118007
vn -0.991168819 -0.101666942 -0.0851363899
v -0.0514784902 0.121652931 0.104253501
vt 0.128766999 0.404630005
vn -0.944295282 -0.24065085 0.224485163
v -0.0338292383 -0.0330721736 0.086520344
vt 0.132424995 0.304118007
vn -0.991168819 -0.101666942 -0.0851363899
v -0.0514784902 0.0628584549 0.147759378
vt 0.0982310027 0.36926499
vn -0.979395916 -0.0905115002 -0.180530628
v -0.0514784902 0.0628584549 0.147759378
vt 0.0982310027 0.36926499
vn -0.979395916 -0.0905115002 -0.180530628
v -0.0338292383 -0.0330721736 0.086520344
vt 0.132424995 0.304118007
vn -0.991168819 -0.101666942 -0.0851363899
v -0.0358817391 -0.0989233553 0.143119514
vt 0.0925360024 0.265547007
vn -0.97147599 -0.029173355 -0.235336602
v -0.0514784902 0.0628584549 0.147759378
vt 0.0982310027 0.36926499
vn -0.979395916 -0.0905115002 -0.180530628
v -0.0358817391 -0.0989233553 0.143119514
vt 0.0925360024 0.265547007
vn -0.97147599 -0.029173355 -0.235336602
v -0.0713429898 -0.0163914263 0.268534333
vt 0.0153259998 0.326790988
vn -0.980235896 -0.0642017903 -0.187124874
v -0.0713429898 -0.0163914263 0.268534333
vt 0.0153259998 0.326790988
vn -0.980235896 -0.0642017903 -0.187124874
v -0.0358817391 -0.0989233553 0.143119514
vt 0.0925360024 0.265547007
vn -0.97147599 -0.029173355 -0.235336602
v -0.0484659895 -0.150083169 0.142759174
vt 0.0864740014 0.232440993
vn -0.988827367 -0.0322989932 -0.145523929
v -0.0484659895 -0.150083169 0.142759174
vt 0.0864740014 0.232440993
vn -0.988827367 -0.0322989932 -0.145523929
v -0.0549012348 -0.0833325237 0.268895596
vt 0.010516 0.28301999
vn -0.968404337 -0.237443395 0.0762474494
v -0.0713429898 -0.0163914263 0.268534333
vt 0.0153259998 0.326790988
vn -0.980235896 -0.0642017903 -0.187124874
v -0.0861747414 0.237355873 -0.088084124
vt 0.135830998 0.300601989
vn 0 0.933005105 0.359863133
v -0.0556224883 0.157096773 0.120000958
vt 0.103355996 0.252292991
vn 0 0.933005105 0.359863133
v 0.0408400148 0.157096773 0.120000958
vt 0.119825996 0.237141997
vn 0 0.933005105 0.359863133
v -0.0861747414 0.237355873 -0.088084124
vt 0.135830998 0.300601989
vn 0 0.933005105 0.359863133
v 0.0408400148 0.157096773 0.120000958
vt 0.119825996 0.237141997
vn 0 0.933005105 0.359863133
v 0.0713922605 0.237355873 -0.088084124
vt 0.165262997 0.27352801
vn 0 0.933005105 0.359863133
v -0.0777162388 0.0425785109 -0.0269728601
vt 0.106625997 0.056127999
vn 0 -0.999342649 0.0362528547
v -0.0861747414 -0.00140422583 -0.0917392001
vt 0.0860669985 0.00404899986
vn 0 -0.827273054 0.561800049
v 0.0713922605 -0.00140422583 -0.0917392001
vt 0.181448996 0.00486700004
vn 0 -0.827273054 0.561800049
v -0.0777162388 0.0425785109 -0.0269728601
vt 0.106625997 0.056127999
vn 0 -0.999342649 0.0362528547
v 0.0713922605 -0.00140422583 -0.0917392001
vt 0.181448996 0.00486700004
vn 0 -0.827273054 0.561800049
v 0.062933512 0.0425785109 -0.0269728601
vt 0.160000995 0.056584999
vn 0 -0.979986747 -0.199062742
v -0.0777162388 0.0425785109 -0.0269728601
vt 0.106625997 0.056127999
vn 0 -0.999342649 0.0362528547
v 0.062933512 0.0425785109 -0.0269728601
vt 0.160000995 0.056584999
vn 0 -0.979986747 -0.199062742
v 0.0190465134 -0.0205137283 0.00233696401
vt 0.148956001 0.0986059979
vn 0 -0.732684052 -0.680568939
v -0.0777162388 0.0425785109 -0.0269728601
vt 0.106625997 0.056127999
vn 0 -0.999342649 0.0362528547
v 0.0190465134 -0.0205137283 0.00233696401
vt 0.148956001 0.0986059979
vn 0 -0.732684052 -0.680568939
v -0.0338292383 -0.0205137283 0.00233696401
vt 0.116948999 0.0983320028
vn 0 -0.832089042 -0.55464207
v -0.0338292383 -0.0330721736 0.086520344
vt 0.116507001 0.149855003
vn 0 -0.927075125 -0.374875596
v -0.0338292383 -0.0205137283 0.00233696401
vt 0.116948999 0.0983320028
vn 0 -0.832089042 -0.55464207
v 0.0190465134 -0.0205137283 0.00233696401
vt 0.148956001 0.0986059979
vn 0 -0.732684052 -0.680568939
v -0.0338292383 -0.0330721736 0.086520344
vt 0.116507001 0.149855003
vn 0 -0.927075125 -0.374875596
v 0.0190465134 -0.0205137283 0.00233696401
vt 0.148956001 0.0986059979
vn 0 -0.732684052 -0.680568939
v 0.0190465134 -0.0330721736 0.086520344
vt 0.148515001 0.150129005
vn 0 -0.803729157 -0.594995329
v -0.0358817391 -0.0989233553 0.143119514
vt 0.114813998 0.202407002
vn 0 -0.521137564 -0.853472694
v -0.0338292383 -0.0330721736 0.086520344
vt 0.116507001 0.149855003
vn 0 -0.927075125 -0.374875596
v 0.0190465134 -0.0330721736 0.086520344
vt 0.148515001 0.150129005
vn 0 -0.803729157 -0.594995329
v -0.0358817391 -0.0989233553 0.143119514
vt 0.114813998 0.202407002
vn 0 -0.521137564 -0.853472694
v 0.0190465134 -0.0330721736 0.086520344
vt 0.148515001 0.150129005
vn 0 -0.803729157 -0.594995329
v 0.0210992638 -0.0989233553 0.143119514
vt 0.149306998 0.202702999
vn 0 -0.28036463 -0.959893575
v -0.0484659895 -0.150083169 0.142759174
vt 0.106931001 0.233311996
vn 0 0.00704324183 -0.999975196
v -0.0358817391 -0.0989233553 0.143119514
vt 0.114813998 0.202407002
vn 0 -0.521137564 -0.853472694
v 0.0210992638 -0.0989233553 0.143119514
vt 0.149306998 0.202702999
vn 0 -0.28036463 -0.959893575
v -0.0484659895 -0.150083169 0.142759174
vt 0.106931001 0.233311996
vn 0 0.00704324183 -0.999975196
v 0.0210992638 -0.0989233553 0.143119514
vt 0.149306998 0.202702999
vn 0 -0.28036463 -0.959893575
v 0.0336835124 -0.150083169 0.142759174
vt 0.156659007 0.233738005
vn 0 0.00704324183 -0.999975196
v -0.0556224883 0.157096773 0.120000958
vt 0.0164110009 0.227102995
vn 0 -0.406023036 0.913862842
v -0.0514784902 0.121652931 0.104253501
vt 0.01664 0.200285003
vn 0 0.422150769 0.906525636
v 0.0366960131 0.121652931 0.104253501
vt 0.0776069984 0.200808004
vn 0 0.0789236165 0.996880666
v -0.0556224883 0.157096773 0.120000958
vt 0.0164110009 0.227102995
vn 0 -0.406023036 0.913862842
v 0.0366960131 0.121652931 0.104253501
vt 0.0776069984 0.200808004
vn 0 0.0789236165 0.996880666
v 0.0408400148 0.157096773 0.120000958
vt 0.077376999 0.227624997
vn 0 -0.406023036 0.913862842
v -0.0514784902 0.121652931 0.104253501
vt 0.01664 0.200285003
vn 0 0.422150769 0.906525636
v 0.0366960131 0.0628584549 0.147759378
vt 0.0780399963 0.150235996
vn 0 0.775493591 0.631355438
v 0.0366960131 0.121652931 0.104253501
vt 0.0776069984 0.200808004
vn 0 0.0789236165 0.996880666
v -0.0514784902 0.121652931 0.104253501
vt 0.01664 0.200285003
vn 0 0.422150769 0.906525636
v -0.0514784902 0.0628584549 0.147759378
vt 0.0170740001 0.149713993
vn 0 0.765593633 0.643324482
v 0.0366960131 0.0628584549 0.147759378
vt 0.0780399963 0.150235996
vn 0 0.775493591 0.631355438
v 0.0366960131 0.0628584549 0.147759378
vt 0.0780399963 0.150235996
vn 0 0.775493591 0.631355438
v -0.0514784902 0.0628584549 0.147759378
vt 0.0170740001 0.149713993
vn 0 0.765593633 0.643324482
v -0.0713429898 -0.0163914263 0.268534333
vt 0.00419500005 0.0497159995
vn 0 0.632617553 0.774464351
v 0.0366960131 0.0628584549 0.147759378
vt 0.0780399963 0.150235996
vn 0 0.775493591 0.631355438
v -0.0713429898 -0.0163914263 0.268534333
vt 0.00419500005 0.0497159995
vn 0 0.632617553 0.774464351
v 0.0565605126 -0.0163914263 0.268534333
vt 0.0926309973 0.0504730009
vn 0 0.638038322 0.770004611
v -0.0713429898 -0.0163914263 0.268534333
vt 0.00419500005 0.0497159995
vn 0 0.632617553 0.774464351
v 0.0401185118 -0.0833325237 0.268895596
vt 0.0816600025 0.00408999994
vn 0 0.00539666222 0.999985438
v 0.0565605126 -0.0163914263 0.268534333
vt 0.0926309973 0.0504730009
vn 0 0.638038322 0.770004611
v -0.0713429898 -0.0163914263 0.268534333
vt 0.00419500005 0.0497159995
vn 0 0.632617553 0.774464351
v -0.0549012348 -0.0833325237 0.268895596
vt 0.0159600005 0.00352700008
vn 0 0.00539666222 0.999985438
v 0.0401185118 -0.0833325237 0.268895596
vt 0.0816600025 0.00408999994
vn 0 0.00539666222 0.999985438
v -0.0549012348 -0.0833325237 0.268895596
vt 0.0831549987 0.182776004
vn 0 -0.883867472 0.467737418
v -0.0484659895 -0.150083169 0.142759174
vt 0.085878998 0.131432995
vn 0 -0.883867472 0.467737418
v 0.0336835124 -0.150083169 0.142759174
vt 0.111180998 0.131852999
vn 0 -0.883867472 0.467737418
v -0.0549012348 -0.0833325237 0.268895596
vt 0.0831549987 0.182776004
vn 0 -0.883867472 0.467737418
v 0.0336835124 -0.150083169 0.142759174
vt 0.111180998 0.131852999
vn 0 -0.883867472 0.467737418
v 0.0401185118 -0.0833325237 0.268895596
vt 0.112420999 0.183261007
vn 0 -0.883867472 0.467737418
v 0.0713922605 -0.00140422583 -0.0917392001
vt 0.259667009 0.318296999
vn -0.648536089 0.587667093 -0.483785416
v 0.0366960131 0.121652931 0.104253501
vt 0.128766999 0.404630005
vn -0.648536089 0.587667093 -0.483785416
v 0.062933512 0.0425785109 -0.0269728601
vt 0.208565995 0.347959012
vn -0.648536089 0.587667093 -0.483785416
v 0.0402542651 0.0879368335 -0.554697514
vt 0.598650992 0.351123989
vn 0.995894746 -0.0512961052 -0.0745812624
v 0.052320011 0.0861191154 -0.377515852
vt 0.500983 0.35028699
vn 0.996375085 -0.0506176804 -0.0683706044
v 0.0278217643 -0.200670645 -0.522209764
vt 0.581027985 0.192230999
vn 0.995894746 -0.0512961052 -0.0745812624
v 0.0402542651 0.0879368335 -0.554697514
vt 0.598650992 0.351123989
vn 0.995894746 -0.0512961052 -0.0745812624
v 0.0278217643 -0.200670645 -0.522209764
vt 0.581027985 0.192230999
vn 0.995894746 -0.0512961052 -0.0745812624
v 0.0207547639 -0.199848726 -0.602326035
vt 0.625258982 0.192562997
vn 0.994695768 -0.052786819 -0.0882829637
v -0.0414459854 -0.200670645 -0.522209764
vt 0.581027985 0.192230999
vn -0.995894822 -0.0512960026 -0.0745803225
v -0.0659442395 0.0861191154 -0.377515852
vt 0.500983 0.35028699
vn -0.996375082 -0.0506176849 -0.0683706462
v -0.0538784862 0.0879368335 -0.554697514
vt 0.598650992 0.351123989
vn -0.995894822 -0.0512960026 -0.0745803225
v -0.0414459854 -0.200670645 -0.522209764
vt 0.581027985 0.192230999
vn -0.995894822 -0.0512960026 -0.0745803225
v -0.0538784862 0.0879368335 -0.554697514
vt 0.598650992 0.351123989
vn -0.995894822 -0.0512960026 -0.0745803225
v -0.0343792364 -0.199848726 -0.602326035
vt 0.625258982 0.192562997
vn -0.994696061 -0.0527864827 -0.0882798641
v -0.0538784862 0.0879368335 -0.554697514
vt 0.260502011 0.119698003
vn 0 0.844543964 -0.535486221
v -0.0659442395 0.0861191154 -0.377515852
vt 0.167800993 0.130847007
vn 0 0.99994738 0.010258525
v 0.052320011 0.0861191154 -0.377515852
vt 0.164691001 0.0672399998
vn 0 0.99994738 0.010258525
v -0.0538784862 0.0879368335 -0.554697514
vt 0.260502011 0.119698003
vn 0 0.844543964 -0.535486221
v 0.052320011 0.0861191154 -0.377515852
vt 0.164691001 0.0672399998
vn 0 0.99994738 0.010258525
v 0.0402542651 0.0879368335 -0.554697514
vt 0.260309011 0.0690699965
vn 0 0.485925654 -0.874000148
v 0.0402542651 0.0879368335 -0.554697514
vt 0.260309011 0.0690699965
vn 0 0.485925654 -0.874000148
v -0.0343792364 -0.199848726 -0.602326035
vt 0.417448014 0.101539999
vn 0 0.163279019 -0.986579932
v -0.0538784862 0.0879368335 -0.554697514
vt 0.260502011 0.119698003
vn 0 0.844543964 -0.535486221
v 0.0402542651 0.0879368335 -0.554697514
vt 0.260309011 0.0690699965
vn 0 0.485925654 -0.874000148
v 0.0207547639 -0.199848726 -0.602326035
vt 0.417710006 0.071886003
vn 0 0.163279019 -0.986579932
v -0.0343792364 -0.199848726 -0.602326035
vt 0.417448014 0.101539999
vn 0 0.163279019 -0.986579932
v -0.0414459854 -0.200670645 -0.522209764
vt 0.0048349998 0.265042007
vn 0 -0.99994738 -0.0102585278
v -0.0343792364 -0.199848726 -0.602326035
vt 0.00797200017 0.232653007
vn 0 -0.99994738 -0.0102585278
v 0.0207547639 -0.199848726 -0.602326035
vt 0.0302779991 0.232843995
vn 0 -0.99994738 -0.0102585278
v -0.0414459854 -0.200670645 -0.522209764
vt 0.0048349998 0.265042007
vn 0 -0.99994738 -0.0102585278
v 0.0207547639 -0.199848726 -0.602326035
vt 0.0302779991 0.232843995
vn 0 -0.99994738 -0.0102585278
v 0.0278217643 -0.200670645 -0.522209764
vt 0.0328590013 0.265282005
vn 0 -0.99994738 -0.0102585278
v -0.0659442395 0.0861191154 -0.377515852
vt 0.424879998 0.0700799972
vn 0 -0.450445876 0.892803737
v -0.0414459854 -0.200670645 -0.522209764
vt 0.566320002 0.0722760037
vn 0 -0.450445876 0.892803737
v 0.0278217643 -0.200670645 -0.522209764
vt 0.568664014 0.106063999
vn 0 -0.450445876 0.892803737
v -0.0659442395 0.0861191154 -0.377515852
vt 0.424879998 0.0700799972
vn 0 -0.450445876 0.892803737
v 0.0278217643 -0.200670645 -0.522209764
vt 0.568664014 0.106063999
vn 0 -0.450445876 0.892803737
v 0.052320011 0.0861191154 -0.377515852
vt 0.428882003 0.127768993
vn 0 -0.450445876 0.892803737
v 0.0406657606 0.316848457 -0.111033872
vt 0.245910004 0.129554003
vn 0.982456871 0.186127935 0.0116141362
v 0.0406657606 0.318194926 -0.24228248
vt 0.311836988 0.130119994
vn 0.986553364 0.163430869 0.00167662415
v 0.0276077632 0.396642447 -0.205503315
vt 0.293430001 0.169554994
vn 0.982861905 0.183359555 0.0190197181
v 0.0406657606 0.316848457 -0.111033872
vt 0.245910004 0.129554003
vn 0.982456871 0.186127935 0.0116141362
v 0.0276077632 0.396642447 -0.205503315
vt 0.293430001 0.169554994
vn 0.982861905 0.183359555 0.0190197181
v 0.0220757648 0.414021552 -0.205443278
vt 0.293384999 0.181670994
vn 0.809921184 0.586138647 0.0216601546
v 0.0406657606 0.316848457 -0.111033872
vt 0.245910004 0.129554003
vn 0.982456871 0.186127935 0.0116141362
v 0.0220757648 0.414021552 -0.205443278
vt 0.293384999 0.181670994
vn 0.809921184 0.586138647 0.0216601546
v 0.0220757648 0.413042903 -0.110047013
vt 0.245467007 0.181260005
vn 0.581276226 0.813663489 0.0083471893
v -0.0359622389 0.414021552 -0.205443278
vt 0.293136001 0.210822001
vn 0 0.999947383 0.0102582335
v 0.0220757648 0.413042903 -0.110047013
vt 0.245467007 0.181260005
vn 0.581276226 0.813663489 0.0083471893
v 0.0220757648 0.414021552 -0.205443278
vt 0.293384999 0.181670994
vn 0.809921184 0.586138647 0.0216601546
v -0.0359622389 0.414021552 -0.205443278
vt 0.293136001 0.210822001
vn 0 0.999947383 0.0102582335
v -0.0359622389 0.413042903 -0.110047013
vt 0.245217994 0.210410997
vn 0 0.999947383 0.0102582335
v 0.0220757648 0.413042903 -0.110047013
vt 0.245467007 0.181260005
vn 0.581276226 0.813663489 0.0083471893
v -0.054611735 0.316848457 -0.111033872
vt 0.245910004 0.129554003
vn -0.982358311 0.186633488 0.0118359921
v -0.0415537357 0.396642447 -0.205503076
vt 0.293430001 0.169554994
vn -0.982771443 0.183803311 0.0194070726
v -0.054611735 0.318194926 -0.24228248
vt 0.311836988 0.130119994
vn -0.986553361 0.163430887 0.00167662433
v -0.054611735 0.316848457 -0.111033872
vt 0.245910004 0.129554003
vn -0.982358311 0.186633488 0.0118359921
v -0.0359622389 0.414021552 -0.205443278
vt 0.293384999 0.181670994
vn -0.977787074 0.208499916 0.0214527968
v -0.0415537357 0.396642447 -0.205503076
vt 0.293430001 0.169554994
vn -0.982771443 0.183803311 0.0194070726
v -0.054611735 0.316848457 -0.111033872
vt 0.245910004 0.129554003
vn -0.982358311 0.186633488 0.0118359921
v -0.0359622389 0.413042903 -0.110047013
vt 0.245467007 0.181260005
vn -0.98172224 0.190309308 0.00195234005
v -0.0359622389 0.414021552 -0.205443278
vt 0.293384999 0.181670994
vn -0.977787074 0.208499916 0.0214527968
v 0.0296287648 0.341811597 -0.400399745
vt 0.996303022 0.474985003
vn 0.996269822 0.000885217334 -0.0862882238
v 0.0215362646 0.354733586 -0.42963177
vt 0.989220023 0.492033988
vn 0.964056978 0.00272558585 -0.265681605
v 0.0215362646 0.404491067 -0.429121315
vt 0.961355984 0.492008001
vn 0.96405695 0.00272553682 -0.265681704
v 0.0296287648 0.341811597 -0.400399745
vt 0.996303022 0.474985003
vn 0.996269822 0.000885217334 -0.0862882238
v 0.0215362646 0.404491067 -0.429121315
vt 0.961355984 0.492008001
vn 0.96405695 0.00272553682 -0.265681704
v 0.0296287648 0.416810334 -0.399630368
vt 0.95430398 0.474947006
vn 0.99191171 -0.00130210673 0.126923067
v 0.0215362646 0.347360849 -0.387200445
vt 0.993128002 0.466340005
vn 0.998886366 -0.000483990813 0.0471783129
v 0.0296287648 0.341811597 -0.400399745
vt 0.996303022 0.474985003
vn 0.996269822 0.000885217334 -0.0862882238
v 0.0296287648 0.416810334 -0.399630368
vt 0.95430398 0.474947006
vn 0.99191171 -0.00130210673 0.126923067
v 0.0215362646 0.347360849 -0.387200445
vt 0.993128002 0.466340005
vn 0.998886366 -0.000483990813 0.0471783129
v 0.0296287648 0.416810334 -0.399630368
vt 0.95430398 0.474947006
vn 0.99191171 -0.00130210673 0.126923067
v 0.0215362646 0.410991669 -0.386547655
vt 0.957494974 0.466307014
vn 0.999933641 -0.000118179444 0.0115195607
v 0.0215362646 0.3438254 -0.042580843
vt 0.993304014 0.273351997
vn 0.999503236 0.000323308481 -0.0315147162
v 0.0215362646 0.347360849 -0.387200445
vt 0.993128002 0.466340005
vn 0.998886366 -0.000483990813 0.0471783129
v 0.0215362646 0.410991669 -0.386547655
vt 0.957494974 0.466307014
vn 0.999933641 -0.000118179444 0.0115195607
v 0.0215362646 0.3438254 -0.042580843
vt 0.993304014 0.273351997
vn 0.999503236 0.000323308481 -0.0315147162
v 0.0215362646 0.410991669 -0.386547655
vt 0.957494974 0.466307014
vn 0.999933641 -0.000118179444 0.0115195607
v 0.0215362646 0.407456219 -0.0419280529
vt 0.957670987 0.273319006
vn 0.999587046 0.000294784129 -0.0287341314
v 0.0215362646 0.3438254 -0.042580843
vt 0.993304014 0.273351997
vn 0.999503236 0.000323308481 -0.0315147162
v 0.0215362646 0.407456219 -0.0419280529
vt 0.957670987 0.273319006
vn 0.999587046 0.000294784129 -0.0287341314
v 0.032114014 0.413840652 -0.0185455382
vt 0.953975022 0.258978993
vn 0.910665492 0.0042382132 -0.413122741
v 0.0215362646 0.3438254 -0.042580843
vt 0.993304014 0.273351997
vn 0.999503236 0.000323308481 -0.0315147162
v 0.032114014 0.413840652 -0.0185455382
vt 0.953975022 0.258978993
vn 0.910665492 0.0042382132 -0.413122741
v 0.032114014 0.336962342 -0.0193342268
vt 0.99702698 0.259018004
vn 0.910665514 0.00423819393 -0.413122694
v -0.0441104844 0.341811597 -0.400399745
vt 0.996698022 0.474945992
vn -0.996269597 0.000885244028 -0.0862908259
v -0.0441104844 0.416810334 -0.399630368
vt 0.954698026 0.474985003
vn -0.991911224 -0.00130214565 0.126926861
v -0.0360177383 0.404491067 -0.429121315
vt 0.961781025 0.492033988
vn -0.964054883 0.00272561379 -0.265689207
v -0.0441104844 0.341811597 -0.400399745
vt 0.996698022 0.474945992
vn -0.996269597 0.000885244028 -0.0862908259
v -0.0360177383 0.404491067 -0.429121315
vt 0.961781025 0.492033988
vn -0.964054883 0.00272561379 -0.265689207
v -0.0360177383 0.354733586 -0.42963177
vt 0.989646018 0.492008001
vn -0.96405491 0.00272566282 -0.265689107
v -0.0360177383 0.347360849 -0.387200445
vt 0.993507028 0.466307014
vn -0.998886299 -0.000484005485 0.0471797431
v -0.0441104844 0.416810334 -0.399630368
vt 0.954698026 0.474985003
vn -0.991911224 -0.00130214565 0.126926861
v -0.0441104844 0.341811597 -0.400399745
vt 0.996698022 0.474945992
vn -0.996269597 0.000885244028 -0.0862908259
v -0.0360177383 0.347360849 -0.387200445
vt 0.993507028 0.466307014
vn -0.998886299 -0.000484005485 0.0471797431
v -0.0360177383 0.410991669 -0.386547655
vt 0.957874 0.466340005
vn -0.999933637 -0.000118183034 0.0115199107
v -0.0441104844 0.416810334 -0.399630368
vt 0.954698026 0.474985003
vn -0.991911224 -0.00130214565 0.126926861
v -0.0360177383 0.3438254 -0.042580843
vt 0.993330002 0.273319006
vn -0.999503236 0.000323308368 -0.0315147051
v -0.0360177383 0.410991669 -0.386547655
vt 0.957874 0.466340005
vn -0.999933637 -0.000118183034 0.0115199107
v -0.0360177383 0.347360849 -0.387200445
vt 0.993507028 0.466307014
vn -0.998886299 -0.000484005485 0.0471797431
v -0.0360177383 0.3438254 -0.042580843
vt 0.993330002 0.273319006
vn -0.999503236 0.000323308368 -0.0315147051
v -0.0360177383 0.407456219 -0.0419280529
vt 0.957696974 0.273351997
vn -0.999587046 0.000294784025 -0.0287341213
v -0.0360177383 0.410991669 -0.386547655
vt 0.957874 0.466340005
vn -0.999933637 -0.000118183034 0.0115199107
v -0.0360177383 0.3438254 -0.042580843
vt 0.993330002 0.273319006
vn -0.999503236 0.000323308368 -0.0315147051
v -0.046595484 0.413840652 -0.0185455382
vt 0.953975022 0.259018004
vn -0.910665547 0.00423821196 -0.41312262
v -0.0360177383 0.407456219 -0.0419280529
vt 0.957696974 0.273351997
vn -0.999587046 0.000294784025 -0.0287341213
v -0.0360177383 0.3438254 -0.042580843
vt 0.993330002 0.273319006
vn -0.999503236 0.000323308368 -0.0315147051
v -0.046595484 0.336962342 -0.0193342268
vt 0.99702698 0.258978993
vn -0.910665568 0.00423819269 -0.413122573
v -0.046595484 0.413840652 -0.0185455382
vt 0.953975022 0.259018004
vn -0.910665547 0.00423821196 -0.41312262
v -0.0441104844 0.341811597 -0.400399745
vt 0.858448982 0.165220007
vn 0 -0.966016356 -0.258480945
v -0.0360177383 0.354733586 -0.42963177
vt 0.868393004 0.167906001
vn 0 -0.914622828 -0.404308153
v 0.0215362646 0.354733586 -0.42963177
vt 0.868107975 0.185886994
vn 0 -0.914622828 -0.404308153
v -0.0441104844 0.341811597 -0.400399745
vt 0.858448982 0.165220007
vn 0 -0.966016356 -0.258480945
v 0.0215362646 0.354733586 -0.42963177
vt 0.868107975 0.185886994
vn 0 -0.914622828 -0.404308153
v 0.0296287648 0.341811597 -0.400399745
vt 0.85808301 0.188256994
vn 0 -0.998340822 -0.0575812709
v -0.0360177383 0.347360849 -0.387200445
vt 0.853935003 0.167677
vn 0 -0.99970374 0.0243399286
v -0.0441104844 0.341811597 -0.400399745
vt 0.858448982 0.165220007
vn 0 -0.966016356 -0.258480945
v 0.0296287648 0.341811597 -0.400399745
vt 0.85808301 0.188256994
vn 0 -0.998340822 -0.0575812709
v -0.0360177383 0.347360849 -0.387200445
vt 0.853935003 0.167677
vn 0 -0.99970374 0.0243399286
v 0.0296287648 0.341811597 -0.400399745
vt 0.85808301 0.188256994
vn 0 -0.998340822 -0.0575812709
v 0.0215362646 0.347360849 -0.387200445
vt 0.85364902 0.185657993
vn 0 -0.999997654 -0.00216623007
v -0.0360177383 0.3438254 -0.042580843
vt 0.746264994 0.165967003
vn 0 -0.99980882 -0.0195530807
v -0.0360177383 0.347360849 -0.387200445
vt 0.853935003 0.167677
vn 0 -0.99970374 0.0243399286
v 0.0215362646 0.347360849 -0.387200445
vt 0.85364902 0.185657993
vn 0 -0.999997654 -0.00216623007
v -0.0360177383 0.3438254 -0.042580843
vt 0.746264994 0.165967003
vn 0 -0.99980882 -0.0195530807
v 0.0215362646 0.347360849 -0.387200445
vt 0.85364902 0.185657993
vn 0 -0.999997654 -0.00216623007
v 0.0215362646 0.3438254 -0.042580843
vt 0.745979011 0.183947995
vn 0 -0.998776973 -0.0494424709
v -0.046595484 0.336962342 -0.0193342268
vt 0.738744974 0.162542999
vn 0 -0.959076665 -0.283146518
v -0.0360177383 0.3438254 -0.042580843
vt 0.746264994 0.165967003
vn 0 -0.99980882 -0.0195530807
v 0.0215362646 0.3438254 -0.042580843
vt 0.745979011 0.183947995
vn 0 -0.998776973 -0.0494424709
v -0.046595484 0.336962342 -0.0193342268
vt 0.738744974 0.162542999
vn 0 -0.959076665 -0.283146518
v 0.0215362646 0.3438254 -0.042580843
vt 0.745979011 0.183947995
vn 0 -0.998776973 -0.0494424709
v 0.032114014 0.336962342 -0.0193342268
vt 0.738354027 0.187132001
vn 0 -0.959076665 -0.283146518
v -0.0360177383 0.354733586 -0.42963177
vt 0.425213009 0.274410993
vn 0 0.0102583031 -0.999947382
v -0.0360177383 0.404491067 -0.429121315
vt 0.424964994 0.303360999
vn 0 0.0102583031 -0.999947382
v 0.0215362646 0.404491067 -0.429121315
vt 0.393067002 0.303074002
vn 0 0.0102583031 -0.999947382
v -0.0360177383 0.354733586 -0.42963177
vt 0.425213009 0.274410993
vn 0 0.0102583031 -0.999947382
v 0.0215362646 0.404491067 -0.429121315
vt 0.393067002 0.303074002
vn 0 0.0102583031 -0.999947382
v 0.0215362646 0.354733586 -0.42963177
vt 0.393314987 0.274123996
vn 0 0.0102583031 -0.999947382
v -0.0360177383 0.404491067 -0.429121315
vt 0.980919003 0.162735
vn 0 0.922728054 -0.385451603
v -0.0441104844 0.416810334 -0.399630368
vt 0.965341985 0.166503996
vn 0 0.99931196 -0.0370891709
v 0.0296287648 0.416810334 -0.399630368
vt 0.965722024 0.130661994
vn 0 0.971116973 -0.238603909
v -0.0360177383 0.404491067 -0.429121315
vt 0.980919003 0.162735
vn 0 0.922728054 -0.385451603
v 0.0296287648 0.416810334 -0.399630368
vt 0.965722024 0.130661994
vn 0 0.971116973 -0.238603909
v 0.0215362646 0.404491067 -0.429121315
vt 0.981216013 0.134760007
vn 0 0.922728054 -0.385451603
v -0.0441104844 0.416810334 -0.399630368
vt 0.965341985 0.166503996
vn 0 0.99931196 -0.0370891709
v 0.0215362646 0.410991669 -0.386547655
vt 0.958720982 0.134520993
vn 0 0.998994036 0.0448432435
v 0.0296287648 0.416810334 -0.399630368
vt 0.965722024 0.130661994
vn 0 0.971116973 -0.238603909
v -0.0441104844 0.416810334 -0.399630368
vt 0.965341985 0.166503996
vn 0 0.99931196 -0.0370891709
v -0.0360177383 0.410991669 -0.386547655
vt 0.958423972 0.162496001
vn 0 0.99983163 0.0183496962
v 0.0215362646 0.410991669 -0.386547655
vt 0.958720982 0.134520993
vn 0 0.998994036 0.0448432435
v -0.0360177383 0.410991669 -0.386547655
vt 0.958423972 0.162496001
vn 0 0.99983163 0.0183496962
v 0.0215362646 0.407456219 -0.0419280529
vt 0.791203022 0.132745996
vn 0 0.999999536 0.000963297016
v 0.0215362646 0.410991669 -0.386547655
vt 0.958720982 0.134520993
vn 0 0.998994036 0.0448432435
v -0.0360177383 0.410991669 -0.386547655
vt 0.958423972 0.162496001
vn 0 0.99983163 0.0183496962
v -0.0360177383 0.407456219 -0.0419280529
vt 0.790906012 0.160721004
vn 0 0.999581156 -0.028939813
v 0.0215362646 0.407456219 -0.0419280529
vt 0.791203022 0.132745996
vn 0 0.999999536 0.000963297016
v -0.0360177383 0.407456219 -0.0419280529
vt 0.790906012 0.160721004
vn 0 0.999581156 -0.028939813
v 0.032114014 0.413840652 -0.0185455382
vt 0.779474974 0.127479002
vn 0 0.96468646 -0.2634009
v 0.0215362646 0.407456219 -0.0419280529
vt 0.791203022 0.132745996
vn 0 0.999999536 0.000963297016
v -0.0360177383 0.407456219 -0.0419280529
vt 0.790906012 0.160721004
vn 0 0.999581156 -0.028939813
v -0.046595484 0.413840652 -0.0185455382
vt 0.77907002 0.165738001
vn 0 0.96468646 -0.2634009
v 0.032114014 0.413840652 -0.0185455382
vt 0.779474974 0.127479002
vn 0 0.96468646 -0.2634009
v -0.046595484 0.413840652 -0.0185455382
vt 0.311082989 0.187061995
vn 0 -0.0102583833 0.999947381
v -0.046595484 0.336962342 -0.0193342268
vt 0.311434001 0.146096006
vn 0 -0.0102583833 0.999947381
v 0.032114014 0.336962342 -0.0193342268
vt 0.353374004 0.146455005
vn 0 -0.0102583833 0.999947381
v -0.046595484 0.413840652 -0.0185455382
vt 0.311082989 0.187061995
vn 0 -0.0102583833 0.999947381
v 0.032114014 0.336962342 -0.0193342268
vt 0.353374004 0.146455005
vn 0 -0.0102583833 0.999947381
v 0.032114014 0.413840652 -0.0185455382
vt 0.353022993 0.187422007
vn 0 -0.0102583833 0.999947381
v -0.0558889881 0.317646384 -0.319032162
vt 0.386038989 0.116278
vn -0.965524803 0.260128757 -0.00974092672
v -0.0558889881 0.316800475 -0.236576214
vt 0.348051995 0.115952
vn -0.982134267 0.18506021 -0.0341320929
v -0.042787239 0.369284868 -0.3290084
vt 0.390675008 0.140058994
vn -0.981376672 0.187463301 -0.0419206205
v -0.042787239 0.369284868 -0.3290084
vt 0.390675008 0.140058994
vn -0.981376672 0.187463301 -0.0419206205
v -0.0558889881 0.316800475 -0.236576214
vt 0.348051995 0.115952
vn -0.982134267 0.18506021 -0.0341320929
v -0.0351144895 0.433298647 -0.289755166
vt 0.374969006 0.172408
vn -0.986557361 0.153170973 -0.0569493295
v -0.042787239 0.369284868 -0.3290084
vt 0.390675008 0.140058994
vn -0.981376672 0.187463301 -0.0419206205
v -0.0351144895 0.433298647 -0.289755166
vt 0.374969006 0.172408
vn -0.986557361 0.153170973 -0.0569493295
v -0.0351144895 0.412736416 -0.338432252
vt 0.395372003 0.162701994
vn -0.9849296 0.159324026 -0.0673018399
v -0.0558889881 0.317646384 -0.319032162
vt 0.386038989 0.116278
vn -0.965524803 0.260128757 -0.00974092672
v -0.042787239 0.369284868 -0.3290084
vt 0.390675008 0.140058994
vn -0.981376672 0.187463301 -0.0419206205
v -0.0403277352 0.369674861 -0.367018402
vt 0.408185989 0.140209004
vn -0.962560617 0.270402312 -0.0189643659
v -0.0558889881 0.317646384 -0.319032162
vt 0.386038989 0.116278
vn -0.965524803 0.260128757 -0.00974092672
v -0.0403277352 0.369674861 -0.367018402
vt 0.408185989 0.140209004
vn -0.962560617 0.270402312 -0.0189643659
v -0.0558889881 0.31837368 -0.389926612
vt 0.41870001 0.116558
vn -0.957307277 0.289057061 0.00296539445
v 0.0303597637 0.369284868 -0.3290084
vt 0.390675008 0.140058994
vn 0.986901823 0.158444186 -0.0303353033
v 0.0403142646 0.316800475 -0.236576214
vt 0.348051995 0.115952
vn 0.987718935 0.155169919 -0.0182647421
v 0.0403142646 0.317646384 -0.319032162
vt 0.386038989 0.116278
vn 0.978923342 0.203958421 -0.0104906531
v 0.0226867646 0.433298647 -0.289755166
vt 0.374969006 0.172408
vn 0.803469484 0.554654897 -0.216320906
v 0.0403142646 0.316800475 -0.236576214
vt 0.348051995 0.115952
vn 0.987718935 0.155169919 -0.0182647421
v 0.0303597637 0.369284868 -0.3290084
vt 0.390675008 0.140058994
vn 0.986901823 0.158444186 -0.0303353033
v 0.0226867646 0.433298647 -0.289755166
vt 0.374969006 0.172408
vn 0.803469484 0.554654897 -0.216320906
v 0.0303597637 0.369284868 -0.3290084
vt 0.390675008 0.140058994
vn 0.986901823 0.158444186 -0.0303353033
v 0.0226867646 0.412736416 -0.338432252
vt 0.395372003 0.162701994
vn 0.555091023 0.76623118 -0.323672265
v 0.0279000141 0.369674861 -0.367018402
vt 0.408185989 0.140209004
vn 0.976481952 0.214683188 -0.0198526127
v 0.0303597637 0.369284868 -0.3290084
vt 0.390675008 0.140058994
vn 0.986901823 0.158444186 -0.0303353033
v 0.0403142646 0.317646384 -0.319032162
vt 0.386038989 0.116278
vn 0.978923342 0.203958421 -0.0104906531
v 0.0279000141 0.369674861 -0.367018402
vt 0.408185989 0.140209004
vn 0.976481952 0.214683188 -0.0198526127
v 0.0403142646 0.317646384 -0.319032162
vt 0.386038989 0.116278
vn 0.978923342 0.203958421 -0.0104906531
v 0.0403142646 0.31837368 -0.389926612
vt 0.41870001 0.116558
vn 0.972189104 0.234184916 0.00240246907
v 0.0226867646 0.433298647 -0.289755166
vt 0.374969006 0.172408
vn 0.803469484 0.554654897 -0.216320906
v 0.0226867646 0.412736416 -0.338432252
vt 0.395372003 0.162701994
vn 0.555091023 0.76623118 -0.323672265
v -0.0351144895 0.412736416 -0.338432252
vt 0.403705001 0.187726006
vn 0 0.921183879 -0.389127564
v 0.0226867646 0.433298647 -0.289755166
vt 0.374969006 0.172408
vn 0.803469484 0.554654897 -0.216320906
v -0.0351144895 0.412736416 -0.338432252
vt 0.403705001 0.187726006
vn 0 0.921183879 -0.389127564
v -0.0351144895 0.433298647 -0.289755166
vt 0.385913998 0.196854994
vn 0 0.921183879 -0.389127564
usemtl gun0506
f 1/1/1 2/2/2 3/3/3
f 4/4/4 5/5/5 6/6/6
f 7/7/7 8/8/8 9/9/9
f 10/10/10 11/11/11 12/12/12
f 13/13/13 14/14/14 15/15/15
f 16/16/16 17/17/17 18/18/18
f 19/19/19 20/20/20 21/21/21
f 22/22/22 23/23/23 24/24/24
f 25/25/25 26/26/26 27/27/27
f 28/28/28 29/29/29 30/30/30
f 31/31/31 32/32/32 33/33/33
f 34/34/34 35/35/35 36/36/36
f 37/37/37 38/38/38 39/39/39
f 40/40/40 41/41/41 42/42/42
f 43/43/43 44/44/44 45/45/45
f 46/46/46 47/47/47 48/48/48
f 49/49/49 50/50/50 51/51/51
f 52/52/52 53/53/53 54/54/54
f 55/55/55 56/56/56 57/57/57
f 58/58/58 59/59/59 60/60/60
f 61/61/61 62/62/62 63/63/63
f 64/64/64 65/65/65 66/66/66
f 67/67/67 68/68/68 69/69/69
f 70/70/70 71/71/71 72/72/72
f 73/73/73 74/74/74 75/75/75
f 76/76/76 77/77/77 78/78/78
f 79/79/79 80/80/80 81/81/81
f 82/82/82 83/83/83 84/84/84
f 85/85/85 86/86/86 87/87/87
f 88/88/88 89/89/89 90/90/90
f 91/91/91 92/92/92 93/93/93
f 94/94/94 95/95/95 96/96/96
f 97/97/97 98/98/98 99/99/99
f 100/100/100 101/101/101 102/102/102
f 103/103/103 104/104/104 105/105/105
f 106/106/106 107/107/107 108/108/108
f 109/109/109 110/110/110 111/111/111
f 112/112/112 113/113/113 114/114/114
f 115/115/115 116/116/116 117/117/117
f 118/118/118 119/119/119 120/120/120
f 121/121/121 122/122/122 123/123/123
f 124/124/124 125/125/125 126/126/126
f 127/127/127 128/128/128 129/129/129
f 130/130/130 131/131/131 132/132/132
f 133/133/133 134/134/134 135/135/135
f 136/136/136 137/137/137 138/138/138
f 139/139/139 140/140/140 141/141/141
f 142/142/142 143/143/143 144/144/144
f 145/145/145 146/146/146 147/147/147
f 148/148/148 149/149/149 150/150/150
f 151/151/151 152/152/152 153/153/153
f 154/154/154 155/155/155 156/156/156
f 157/157/157 158/158/158 159/159/159
f 160/160/160 161/161/161 162/162/162
f 163/163/163 164/164/164 165/165/165
f 166/166/166 167/167/167 168/168/168
f 169/169/169 170/170/170 171/171/171
f 172/172/172 173/173/173 174/174/174
f 175/175/175 176/176/176 177/177/177
f 178/178/178 179/179/179 180/180/180
f 181/181/181 182/182/182 183/183/183
f 184/184/184 185/185/185 186/186/186
f 187/187/187 188/188/188 189/189/189
f 190/190/190 191/191/191 192/192/192
f 193/193/193 194/194/194 195/195/195
f 196/196/196 197/197/197 198/198/198
f 199/199/199 200/200/200 201/201/201
f 202/202/202 203/203/203 204/204/204
f 205/205/205 206/206/206 207/207/207
f 208/208/208 209/209/209 210/210/210
f 211/211/211 212/212/212 213/213/213
f 214/214/214 215/215/215 216/216/216
f 217/217/217 218/218/218 219/219/219
f 220/220/220 221/221/221 222/222/222
f 223/223/223 224/224/224 225/225/225
f 226/226/226 227/227/227 228/228/228
f 229/229/229 230/230/230 231/231/231
f 232/232/232 233/233/233 234/234/234
f 235/235/235 236/236/236 237/237/237
f 238/238/238 239/239/239 240/240/240
f 241/241/241 242/242/242 243/243/243
f 244/244/244 245/245/245 246/246/246
f 247/247/247 248/248/248 249/249/249
f 250/250/250 251/251/251 252/252/252
f 253/253/253 254/254/254 255/255/255
f 256/256/256 257/257/257 258/258/258
f 259/259/259 260/260/260 261/261/261
f 262/262/262 263/263/263 264/264/264
f 265/265/265 266/266/266 267/267/267
f 268/268/268 269/269/269 270/270/270
f 271/271/271 272/272/272 273/273/273
f 274/274/274 275/275/275 276/276/276
f 277/277/277 278/278/278 279/279/279
f 280/280/280 281/281/281 282/282/282
f 283/283/283 284/284/284 285/285/285
f 286/286/286 287/287/287 288/288/288
f 289/289/289 290/290/290 291/291/291
f 292/292/292 293/293/293 294/294/294
f 295/295/295 296/296/296 297/297/297
f 298/298/298 299/299/299 300/300/300
f 301/301/301 302/302/302 303/303/303
f 304/304/304 305/305/305 306/306/306
f 307/307/307 308/308/308 309/309/309
f 310/310/310 311/311/311 312/312/312
f 313/313/313 314/314/314 315/315/315
f 316/316/316 317/317/317 318/318/318
f 319/319/319 320/320/320 321/321/321
f 322/322/322 323/323/323 324/324/324
f 325/325/325 326/326/326 327/327/327
f 328/328/328 329/329/329 330/330/330
f 331/331/331 332/332/332 333/333/333
f 334/334/334 335/335/335 336/336/336
f 337/337/337 338/338/338 339/339/339
f 340/340/340 341/341/341 342/342/342
f 343/343/343 344/344/344 345/345/345
f 346/346/346 347/347/347 348/348/348
f 349/349/349 350/350/350 351/351/351
f 352/352/352 353/353/353 354/354/354
f 355/355/355 356/356/356 357/357/357
f 358/358/358 359/359/359 360/360/360
f 361/361/361 362/362/362 363/363/363
f 364/364/364 365/365/365 366/366/366
f 367/367/367 368/368/368 369/369/369
f 370/370/370 371/371/371 372/372/372
f 373/373/373 374/374/374 375/375/375
f 376/376/376 377/377/377 378/378/378
f 379/379/379 380/380/380 381/381/381
f 382/382/382 383/383/383 384/384/384
f 385/385/385 386/386/386 387/387/387
f 388/388/388 389/389/389 390/390/390
f 391/391/391 392/392/392 393/393/393
f 394/394/394 395/395/395 396/396/396
f 397/397/397 398/398/398 399/399/399
f 400/400/400 401/401/401 402/402/402
f 403/403/403 404/404/404 405/405/405
f 406/406/406 407/407/407 408/408/408
f 409/409/409 410/410/410 411/411/411
f 412/412/412 413/413/413 414/414/414
f 415/415/415 416/416/416 417/417/417
f 418/418/418 419/419/419 420/420/420
f 421/421/421 422/422/422 423/423/423
f 424/424/424 425/425/425 426/426/426
f 427/427/427 428/428/428 429/429/429
f 430/430/430 431/431/431 432/432/432
f 433/433/433 434/434/434 435/435/435
f 436/436/436 437/437/437 438/438/438
f 439/439/439 440/440/440 441/441/441
f 442/442/442 443/443/443 444/444/444
f 445/445/445 446/446/446 447/447/447
f 448/448/448 449/449/449 450/450/450
f 451/451/451 452/452/452 453/453/453
f 454/454/454 455/455/455 456/456/456
f 457/457/457 458/458/458 459/459/459
f 460/460/460 461/461/461 462/462/462
f 463/463/463 464/464/464 465/465/465
f 466/466/466 467/467/467 468/468/468
f 469/469/469 470/470/470 471/471/471
f 472/472/472 473/473/473 474/474/474
f 475/475/475 476/476/476 477/477/477
f 478/478/478 479/479/479 480/480/480
f 481/481/481 482/482/482 483/483/483
f 484/484/484 485/485/485 486/486/486
f 487/487/487 488/488/488 489/489/489
f 490/490/490 491/491/491 492/492/492
f 493/493/493 494/494/494 495/495/495
f 496/496/496 497/497/497 498/498/498
f 499/499/499 500/500/500 501/501/501
f 502/502/502 503/503/503 504/504/504
f 505/505/505 506/506/506 507/507/507
f 508/508/508 509/509/509 510/510/510
f 511/511/511 512/512/512 513/513/513
f 514/514/514 515/515/515 516/516/516
f 517/517/517 518/518/518 519/519/519
f 520/520/520 521/521/521 522/522/522
f 523/523/523 524/524/524 525/525/525
f 526/526/526 527/527/527 528/528/528
f 529/529/529 530/530/530 531/531/531
f 532/532/532 533/533/533 534/534/534
f 535/535/535 536/536/536 537/537/537
f 538/538/538 539/539/539 540/540/540
f 541/541/541 542/542/542 543/543/543
f 544/544/544 545/545/545 546/546/546
f 547/547/547 548/548/548 549/549/549
f 550/550/550 551/551/551 552/552/552
f 553/553/553 554/554/554 555/555/555
f 556/556/556 557/557/557 558/558/558
f 559/559/559 560/560/560 561/561/561
f 562/562/562 563/563/563 564/564/564
f 565/565/565 566/566/566 567/567/567
f 568/568/568 569/569/569 570/570/570
f 571/571/571 572/572/572 573/573/573
f 574/574/574 575/575/575 576/576/576
f 577/577/577 578/578/578 579/579/579
f 580/580/580 581/581/581 582/582/582
f 583/583/583 584/584/584 585/585/585
f 586/586/586 587/587/587 588/588/588
f 589/589/589 590/590/590 591/591/591
f 592/592/592 593/593/593 594/594/594
f 595/595/595 596/596/596 597/597/597
f 598/598/598 599/599/599 600/600/600
f 601/601/601 602/602/602 603/603/603
f 604/604/604 605/605/605 606/606/606
f 607/607/607 608/608/608 609/609/609
f 610/610/610 611/611/611 612/612/612
f 613/613/613 614/614/614 615/615/615
f 616/616/616 617/617/617 618/618/618
f 619/619/619 620/620/620 621/621/621
f 622/622/622 623/623/623 624/624/624
f 625/625/625 626/626/626 627/627/627
f 628/628/628 629/629/629 630/630/630
f 631/631/631 632/632/632 633/633/633
f 634/634/634 635/635/635 636/636/636
f 637/637/637 638/638/638 639/639/639
f 640/640/640 641/641/641 642/642/642
f 643/643/643 644/644/644 645/645/645
f 646/646/646 647/647/647 648/648/648
f 649/649/649 650/650/650 651/651/651
f 652/652/652 653/653/653 654/654/654
f 655/655/655 656/656/656 657/657/657
f 658/658/658 659/659/659 660/660/660
f 661/661/661 662/662/662 663/663/663
f 664/664/664 665/665/665 666/666/666
f 667/667/667 668/668/668 669/669/669
f 670/670/670 671/671/671 672/672/672
f 673/673/673 674/674/674 675/675/675
f 676/676/676 677/677/677 678/678/678
f 679/679/679 680/680/680 681/681/681
f 682/682/682 683/683/683 684/684/684
f 685/685/685 686/686/686 687/687/687
f 688/688/688 689/689/689 690/690/690
f 691/691/691 692/692/692 693/693/693
f 694/694/694 695/695/695 696/696/696
