# Generated from legacy Unity YAML Mesh assets without Unity.
mtllib gun12.mtl

o gun12
v 0.0596907064 0.231555611 0.695780456
v -0.0016488441 0.296523094 -0.514195144
v 0.0570526198 0.231555611 -0.514195144
v -0.00164902676 0.299491286 0.695780456
v -0.00164902676 0.163620338 0.695780456
v -0.0016488441 0.166588485 -0.514195144
v -0.0629887581 0.231555611 0.695780456
v -0.0603503063 0.231555611 -0.514195144
v -0.00164883968 0.263214946 -0.54321599
v -0.0448504724 0.231555611 -0.54321599
v -0.00164883968 0.191651866 -0.54321599
v -0.00164883968 0.191651866 -0.54321599
v 0.0415528007 0.231555611 -0.54321599
v -0.00164883968 0.263214946 -0.54321599
v 0.0517760925 0.230566472 -0.601257861
v -0.00164883095 0.279374301 -0.601257861
v -0.0547439717 0.230566472 -0.601257861
v -0.00164883095 0.279374301 -0.601257861
v -0.00164883095 0.17549254 -0.601257861
v 0.0629886389 0.355554342 0.0309369881
v -0.0554036275 0.336426854 -0.0139135597
v 0.0524355732 0.336426854 -0.013913543
v -0.0659567043 0.355554342 0.0309369657
v -0.0554035939 0.336426854 -0.222336724
v 0.0524356067 0.336426854 -0.222336695
v -0.067935355 0.358522475 -0.262900144
v 0.0646376088 0.358522475 -0.262900114
v 0.127296403 0.233534247 0.0309369955
v 0.0524355732 0.336426854 -0.013913543
v 0.106190287 0.233534247 -0.0139135355
v 0.0629886389 0.355554342 0.0309369881
v -0.00164892641 0.0927169099 0.0309369769
v -0.00164891954 0.111844383 -0.0139135513
v -0.130594268 0.233534247 0.0309369583
v -0.109488115 0.233534247 -0.0139135681
v -0.0554036275 0.336426854 -0.0139135597
v -0.0659567043 0.355554342 0.0309369657
v -0.109488085 0.233534247 -0.222336724
v -0.0554035939 0.336426854 -0.222336724
v -0.133892074 0.233534247 -0.262900144
v -0.067935355 0.358522475 -0.262900144
v -0.00164888205 0.0894189179 -0.262900114
v -0.00164888811 0.111844383 -0.222336709
v 0.130924076 0.233534247 -0.262900114
v 0.106190316 0.233534247 -0.222336695
v 0.0524356067 0.336426854 -0.222336695
v 0.0646376088 0.358522475 -0.262900114
v 0.127296403 0.233534247 0.0309369955
v -0.00164892641 0.0927169099 0.0309369769
v -0.130594268 0.233534247 0.0309369583
v -0.0659567043 0.355554342 0.0309369657
v 0.0629886389 0.355554342 0.0309369881
v 0.0646376088 0.358522475 -0.262900114
v -0.133892074 0.233534247 -0.262900144
v 0.130924076 0.233534247 -0.262900114
v -0.067935355 0.358522475 -0.262900144
v -0.00164888205 0.0894189179 -0.262900114
v 0.107509263 0.388862491 1.01105356
v -0.0494676381 0.313671947 0.737003446
v 0.0464993566 0.313671947 0.737003446
v -0.110477626 0.388862491 1.01105356
v -0.0652972311 0.340384126 0.681599796
v 0.0619991869 0.340384126 0.681599796
v 0.107509263 0.388862491 1.01105356
v 0.0943179727 0.226608813 0.737003446
v 0.188306227 0.222651541 1.01105356
v 0.0464993566 0.313671947 0.737003446
v -0.00164907437 0.0617172271 1.01105356
v -0.00164903293 0.139216229 0.737003446
v 0.0619991869 0.340384126 0.681599796
v 0.125647396 0.224630177 0.681599796
v -0.00164902466 0.108876228 0.681599796
v -0.00164907437 0.0617172271 1.01105356
v -0.0972862393 0.226608813 0.737003446
v -0.191604376 0.222651541 1.01105356
v -0.00164903293 0.139216229 0.737003446
v -0.110477626 0.388862491 1.01105356
v -0.0494676381 0.313671947 0.737003446
v -0.0652972311 0.340384126 0.681599796
v -0.12894544 0.224630177 0.681599796
v -0.00164902466 0.108876228 0.681599796
v 0.0619991869 0.340384126 0.681599796
v -0.12894544 0.224630177 0.681599796
v 0.125647396 0.224630177 0.681599796
v -0.0652972311 0.340384126 0.681599796
v -0.00164902466 0.108876228 0.681599796
v -0.110477626 0.388862491 1.01105356
v 0.188306227 0.222651541 1.01105356
v -0.191604376 0.222651541 1.01105356
v 0.107509263 0.388862491 1.01105356
v -0.00164907437 0.0617172271 1.01105356
v 0.180061802 0.251012921 -0.165613949
v 0.114764698 0.250023782 -0.336771667
v 0.118392281 0.251012921 -0.165613964
v 0.184019253 0.250023782 -0.336771667
v 0.107179649 0.236172557 -0.15341191
v 0.191604227 0.236172557 -0.153411895
v 0.109158345 0.236832231 -0.0722852647
v 0.189625517 0.236832231 -0.0722852498
v 0.120700769 0.251672596 -0.0610725358
v 0.178083107 0.251672596 -0.0610725284
v 0.123668797 0.253321379 0.0751280487
v 0.175115034 0.253321379 0.0751280561
v 0.107839182 0.235183433 0.113712631
v 0.190614849 0.235183433 0.113712646
v 0.165881082 0.296523094 0.0751280487
v 0.132572964 0.29850173 -0.0610725358
v 0.165881097 0.29850173 -0.0610725284
v 0.132902727 0.296523094 0.0751280487
v 0.174455449 0.314661086 0.113712646
v 0.123998582 0.314661086 0.113712631
v 0.121360324 0.311692923 -0.0722852647
v 0.177423522 0.311692923 -0.0722852573
v 0.121030569 0.31268245 -0.15341191
v 0.177753329 0.31268245 -0.153411895
v 0.132572979 0.299491286 -0.165613964
v 0.166210905 0.299491286 -0.165613949
v 0.132572994 0.299491286 -0.229591951
v 0.16621092 0.299491286 -0.229591936
v 0.127956033 0.32059738 -0.272463828
v 0.170827895 0.32059738 -0.272463828
v 0.176763996 0.354564816 -0.272133976
v 0.122019932 0.354564816 -0.272134006
v 0.114764698 0.250023782 -0.336771667
v 0.178083152 0.354894638 -0.33578217
v 0.120700806 0.354894638 -0.33578217
v 0.184019253 0.250023782 -0.336771667
v 0.123998582 0.314661086 0.113712631
v 0.190614849 0.235183433 0.113712646
v 0.107839182 0.235183433 0.113712631
v 0.174455449 0.314661086 0.113712646
v 0.176763996 0.354564816 -0.272133976
v 0.120700806 0.354894638 -0.33578217
v 0.178083152 0.354894638 -0.33578217
v 0.122019932 0.354564816 -0.272134006
v 0.170827895 0.32059738 -0.272463828
v 0.178083152 0.354894638 -0.33578217
v 0.184019253 0.250023782 -0.336771667
v 0.176763996 0.354564816 -0.272133976
v 0.16621092 0.299491286 -0.229591936
v 0.180061802 0.251012921 -0.165613949
v 0.166210905 0.299491286 -0.165613949
v 0.177753329 0.31268245 -0.153411895
v 0.191604227 0.236172557 -0.153411895
v 0.189625517 0.236832231 -0.0722852498
v 0.177423522 0.311692923 -0.0722852573
v 0.178083107 0.251672596 -0.0610725284
v 0.165881097 0.29850173 -0.0610725284
v 0.175115034 0.253321379 0.0751280561
v 0.165881082 0.296523094 0.0751280487
v 0.174455449 0.314661086 0.113712646
v 0.190614849 0.235183433 0.113712646
v 0.127956033 0.32059738 -0.272463828
v 0.120700806 0.354894638 -0.33578217
v 0.122019932 0.354564816 -0.272134006
v 0.114764698 0.250023782 -0.336771667
v 0.132572994 0.299491286 -0.229591951
v 0.118392281 0.251012921 -0.165613964
v 0.132572979 0.299491286 -0.165613964
v 0.121030569 0.31268245 -0.15341191
v 0.107179649 0.236172557 -0.15341191
v 0.109158345 0.236832231 -0.0722852647
v 0.121360324 0.311692923 -0.0722852647
v 0.120700769 0.251672596 -0.0610725358
v 0.132572964 0.29850173 -0.0610725358
v 0.123668797 0.253321379 0.0751280487
v 0.132902727 0.296523094 0.0751280487
v 0.123998582 0.314661086 0.113712631
v 0.107839182 0.235183433 0.113712631
v 0.0709035397 0.231885433 -0.594332457
v -0.00164882478 0.301799744 -0.641491473
v 0.0748609379 0.231885433 -0.641491473
v -0.001648832 0.298171908 -0.594332457
v 0.0478187017 0.230566472 -0.673810303
v -0.00164882001 0.275746852 -0.673810303
v -0.00164879661 0.310373962 -0.828149021
v 0.0834353492 0.232545108 -0.828149021
v -0.00164876133 0.241449177 -1.06196535
v 0.0125319324 0.228258014 -1.06196535
v -0.00164875248 0.241449177 -1.12033713
v 0.0125319408 0.228258014 -1.12033713
v -0.001648832 0.156694904 -0.594332457
v 0.0748609379 0.231885433 -0.641491473
v -0.00164882478 0.153067082 -0.641491473
v 0.0709035397 0.231885433 -0.594332457
v 0.0478187017 0.230566472 -0.673810303
v -0.00164882001 0.179449812 -0.673810303
v 0.0834353492 0.232545108 -0.828149021
v -0.00164879661 0.144822702 -0.828149021
v 0.0125319324 0.228258014 -1.06196535
v -0.00164876133 0.213747486 -1.06196535
v 0.0125319408 0.228258014 -1.12033713
v -0.00164875248 0.213747486 -1.12033713
v -0.0778288171 0.231885433 -0.641491473
v -0.0742011964 0.231885433 -0.594332457
v -0.0158294495 0.228258014 -1.06196535
v -0.0867329389 0.232545108 -0.828149021
v -0.0511163436 0.230566472 -0.673810303
v -0.0158294402 0.228258014 -1.12033713
v -0.001648832 0.298171908 -0.594332457
v 0.0709035397 0.231885433 -0.594332457
v -0.001648832 0.156694904 -0.594332457
v -0.0742011964 0.231885433 -0.594332457
v -0.00164875248 0.241449177 -1.12033713
v -0.0158294402 0.228258014 -1.12033713
v -0.00164875248 0.213747486 -1.12033713
v 0.0125319408 0.228258014 -1.12033713
v -0.00164882478 0.301799744 -0.641491473
v -0.0742011964 0.231885433 -0.594332457
v -0.0778288171 0.231885433 -0.641491473
v -0.001648832 0.298171908 -0.594332457
v -0.0511163436 0.230566472 -0.673810303
v -0.00164882001 0.275746852 -0.673810303
v -0.00164879661 0.310373962 -0.828149021
v -0.0867329389 0.232545108 -0.828149021
v -0.00164876133 0.241449177 -1.06196535
v -0.0158294495 0.228258014 -1.06196535
v -0.00164875248 0.241449177 -1.12033713
v -0.0158294402 0.228258014 -1.12033713
v 0.0220954753 0.116131492 0.0797449723
v 0.0171488114 0.192641377 -0.479567856
v 0.0191275086 0.139546067 -0.480227351
v 0.0171487052 0.192641377 0.218583852
v 0.0191274676 0.0406111181 -0.217389926
v 0.0191274881 0.0419300795 -0.350622535
v 0.0184678696 -0.082727924 0.0164264571
v 0.0184678584 -0.0777811408 0.0797449723
v 0.018467864 -0.100206599 0.0513836071
v 0.0184678677 -0.0995469242 0.0170861352
v 0.0184678901 -0.082727924 -0.122412436
v 0.0184679031 -0.028973341 -0.216070771
v -0.0211060736 0.192641377 -0.479567856
v 0.0191275086 0.139546067 -0.480227351
v 0.0171488114 0.192641377 -0.479567856
v -0.0234145578 0.139546067 -0.480227351
v 0.0191274881 0.0419300795 -0.350622535
v -0.0234145783 0.0419300795 -0.350622535
v 0.0191274676 0.0406111181 -0.217389926
v -0.0230848156 0.0406111181 -0.217389926
v -0.0260529108 0.116131492 0.0797449648
v 0.0171487052 0.192641377 0.218583852
v 0.0220954753 0.116131492 0.0797449723
v -0.0211061798 0.192641377 0.218583852
v -0.0224252921 -0.0777811408 0.0797449723
v 0.0184678584 -0.0777811408 0.0797449723
v -0.0224252865 -0.100206599 0.0513836071
v 0.018467864 -0.100206599 0.0513836071
v -0.0224252827 -0.0995469242 0.0170861278
v 0.0184678677 -0.0995469242 0.0170861352
v -0.0224252809 -0.082727924 0.0164264496
v 0.0184678696 -0.082727924 0.0164264571
v -0.0224252604 -0.082727924 -0.122412436
v 0.0184678696 -0.082727924 0.0164264571
v 0.0184678901 -0.082727924 -0.122412436
v -0.0224252809 -0.082727924 0.0164264496
v -0.0224252474 -0.028973341 -0.216070771
v 0.0184679031 -0.028973341 -0.216070771
v -0.0230848156 0.0406111181 -0.217389926
v 0.0191274676 0.0406111181 -0.217389926
v -0.0260529108 0.116131492 0.0797449648
v -0.0211060736 0.192641377 -0.479567856
v -0.0211061798 0.192641377 0.218583852
v -0.0234145578 0.139546067 -0.480227351
v -0.0230848156 0.0406111181 -0.217389926
v -0.0234145783 0.0419300795 -0.350622535
v -0.0224252809 -0.082727924 0.0164264496
v -0.0224252921 -0.0777811408 0.0797449723
v -0.0224252865 -0.100206599 0.0513836071
v -0.0224252827 -0.0995469242 0.0170861278
v -0.0224252604 -0.082727924 -0.122412436
v -0.0224252474 -0.028973341 -0.216070771
v 0.163242668 0.305097342 1.06282961
v 0.0906902999 0.238810867 1.06282961
v 0.0178081449 0.305097342 1.06282961
v 0.0540843271 0.371053964 1.06282961
v 0.126966491 0.371053964 1.06282961
v 0.0445206128 0.305097342 0.998851538
v 0.0906903073 0.262885123 0.998851538
v 0.0178081449 0.305097342 1.06282961
v 0.0676054507 0.346980095 0.998851538
v 0.0540843271 0.371053964 1.06282961
v 0.136859998 0.305097342 0.998851538
v 0.0906902999 0.238810867 1.06282961
v 0.163242668 0.305097342 1.06282961
v 0.0906903073 0.262885123 0.998851538
v 0.113775156 0.346980095 0.998851538
v 0.126966491 0.371053964 1.06282961
v 0.0676054507 0.346980095 0.998851538
v 0.0540843271 0.371053964 1.06282961
v -0.168849319 0.305097342 1.06282961
v -0.0164893381 0.305097342 1.06282961
v -0.0926693231 0.23551327 1.06282961
v -0.0544144399 0.374351978 1.06282961
v -0.130594417 0.374351978 1.06282961
v -0.0464996286 0.305097342 0.998851538
v -0.0926693231 0.23551327 1.06282961
v -0.0164893381 0.305097342 1.06282961
v -0.0926693156 0.262885123 0.998851538
v -0.069584474 0.346980095 0.998851538
v -0.0544144399 0.374351978 1.06282961
v -0.0926693231 0.23551327 1.06282961
v -0.138838992 0.305097342 0.998851538
v -0.168849319 0.305097342 1.06282961
v -0.0926693156 0.262885123 0.998851538
v -0.115754157 0.346980095 0.998851538
v -0.130594417 0.374351978 1.06282961
v -0.069584474 0.346980095 0.998851538
v -0.0544144399 0.374351978 1.06282961
v 0.0732117742 0.1464715 1.06711674
v -1.65148165e-07 0.0660043359 1.06711674
v -0.0732120946 0.1464715 1.06711674
v -0.0280317608 0.208800703 1.06711674
v 0.028031433 0.208800703 1.06711674
v -0.0230849981 0.209130526 1.00313878
v 0.028031433 0.208800703 1.06711674
v -0.0280317608 0.208800703 1.06711674
v 0.0230846927 0.209130526 1.00313878
v 0.0458397493 0.147461012 1.00313878
v 0.0732117742 0.1464715 1.06711674
v -1.55487754e-07 0.105248794 1.00313878
v -1.65148165e-07 0.0660043359 1.06711674
v -1.55487754e-07 0.105248794 1.00313878
v -0.0732120946 0.1464715 1.06711674
v -0.0458400585 0.147461012 1.00313878
v -0.0280317608 0.208800703 1.06711674
v -0.0230849981 0.209130526 1.00313878
vt 0.264499992 0.950200021
vt 0.917299986 0.986400008
vt 0.917299986 0.950200021
vt 0.264499992 0.986400008
vt 0.264499992 0.907800019
vt 0.917299986 0.907800019
vt 0.264499992 0.950200021
vt 0.917299986 0.950200021
vt 0.934300005 0.971499979
vt 0.934300005 0.950399995
vt 0.934400022 0.924000025
vt 0.934300005 0.923900008
vt 0.934300005 0.950299978
vt 0.934300005 0.971499979
vt 0.971899986 0.950200021
vt 0.971899986 0.989300013
vt 0.971899986 0.950200021
vt 0.971899986 0.989300013
vt 0.971899986 0.906099975
vt 0.101599999 0.507499993
vt 0.0173000004 0.540799975
vt 0.0940999985 0.540799975
vt 0.00980000012 0.507499993
vt 0.0173000004 0.681200027
vt 0.0940999985 0.681200027
vt 0.00860000029 0.712800026
vt 0.102799997 0.712800026
vt 0.109499998 0.616599977
vt 0.140200004 0.683799982
vt 0.140200004 0.616599977
vt 0.109499998 0.700999975
vt 0.109499998 0.5097
vt 0.140200004 0.524299979
vt 0.1096 0.616400003
vt 0.140300006 0.616400003
vt 0.140300006 0.683600008
vt 0.1096 0.700900018
vt 0.291500002 0.616400003
vt 0.291500002 0.683600008
vt 0.320600003 0.616400003
vt 0.320600003 0.703199983
vt 0.320600003 0.507200003
vt 0.291500002 0.524100006
vt 0.320499986 0.616599977
vt 0.291399986 0.616599977
vt 0.291399986 0.683799982
vt 0.320499986 0.703400016
vt 0.376700014 0.60650003
vt 0.427700013 0.655900002
vt 0.375099987 0.701600015
vt 0.333200008 0.674799979
vt 0.333000004 0.630500019
vt 0.334300011 0.530399978
vt 0.375499994 0.59829998
vt 0.376899987 0.508700013
vt 0.333600014 0.575200021
vt 0.424899995 0.55430001
vt 0.212099999 0.706700027
vt 0.0399000011 0.786499977
vt 0.0412000008 0.730400026
vt 0.209600002 0.817799985
vt 0.00860000029 0.793600023
vt 0.0102000004 0.721899986
vt 0.0103000002 0.983799994
vt 0.165999994 0.89200002
vt 0.0103000002 0.892099977
vt 0.165999994 0.943799973
vt 0.0103000002 0.800999999
vt 0.165999994 0.840300024
vt 0.197600007 0.958199978
vt 0.197600007 0.89200002
vt 0.197600007 0.825900018
vt 0.0104 0.801299989
vt 0.166099995 0.89200002
vt 0.0103000002 0.89200002
vt 0.166099995 0.840200007
vt 0.0104 0.983799994
vt 0.166099995 0.943700016
vt 0.197699994 0.958199978
vt 0.197699994 0.89200002
vt 0.197699994 0.825800002
vt 0.531099975 0.7051
vt 0.611899972 0.656799972
vt 0.504700005 0.656099975
vt 0.584800005 0.70539999
vt 0.558600008 0.60769999
vt 0.621699989 0.655200005
vt 0.709500015 0.602699995
vt 0.597899973 0.602699995
vt 0.685699999 0.655200005
vt 0.653699994 0.551900029
vt 0.415899992 0.758599997
vt 0.520799994 0.718999982
vt 0.416099995 0.720899999
vt 0.520600021 0.761300027
vt 0.404399991 0.713800013
vt 0.404199988 0.765600026
vt 0.354799986 0.714900017
vt 0.354600012 0.763999999
vt 0.343499988 0.721899986
vt 0.343300015 0.757000029
vt 0.25999999 0.723399997
vt 0.259900004 0.754800022
vt 0.233999997 0.713699996
vt 0.233799994 0.764299989
vt 0.251800001 0.859700024
vt 0.331 0.889699996
vt 0.331 0.859600008
vt 0.251800001 0.889500022
vt 0.2271 0.851800025
vt 0.2271 0.897499979
vt 0.341100007 0.900099993
vt 0.341100007 0.84920001
vt 0.388200015 0.900200009
vt 0.388200015 0.848999977
vt 0.398699999 0.889900029
vt 0.398699999 0.859399974
vt 0.435799986 0.889999986
vt 0.435799986 0.859300017
vt 0.463699996 0.89410001
vt 0.463699996 0.855199993
vt 0.483399987 0.850000024
vt 0.483399987 0.899299979
vt 0.260600001 0.902199984
vt 0.205599993 0.991100013
vt 0.254599988 0.991599977
vt 0.2016 0.901600003
vt 0.539099991 0.772899985
vt 0.590900004 0.711099982
vt 0.526600003 0.711099982
vt 0.578400016 0.772899985
vt 0.483399987 0.850000024
vt 0.520299971 0.900699973
vt 0.520299971 0.84859997
vt 0.483399987 0.899299979
vt 0.527100027 0.844699979
vt 0.578100026 0.871500015
vt 0.579100013 0.78579998
vt 0.526799977 0.871399999
vt 0.494700015 0.828000009
vt 0.446500003 0.786499977
vt 0.4463 0.827600002
vt 0.437099993 0.836899996
vt 0.437299997 0.772899985
vt 0.375999987 0.773599982
vt 0.375800014 0.835799992
vt 0.367500007 0.787100017
vt 0.367399991 0.826499999
vt 0.264400005 0.788200021
vt 0.264200002 0.824599981
vt 0.234999999 0.837800026
vt 0.235300004 0.771200001
vt 0.527100027 0.844699979
vt 0.578100026 0.871500015
vt 0.526799977 0.871399999
vt 0.579100013 0.78579998
vt 0.494700015 0.828000009
vt 0.446500003 0.786499977
vt 0.4463 0.827600002
vt 0.437099993 0.836899996
vt 0.437299997 0.772899985
vt 0.375999987 0.773599982
vt 0.375800014 0.835799992
vt 0.367500007 0.787100017
vt 0.367399991 0.826499999
vt 0.264400005 0.788200021
vt 0.264200002 0.824599981
vt 0.234999999 0.837800026
vt 0.235300004 0.771200001
vt 0.763499975 0.506399989
vt 0.716899991 0.533100009
vt 0.763000011 0.533100009
vt 0.716600001 0.506399989
vt 0.763499975 0.546999991
vt 0.726899981 0.546999991
vt 0.704200029 0.637799978
vt 0.761200011 0.637799978
vt 0.750800014 0.781400025
vt 0.761200011 0.781400025
vt 0.750999987 0.813600004
vt 0.760699987 0.813600004
vt 0.81370002 0.506399989
vt 0.763000011 0.533100009
vt 0.812900007 0.533100009
vt 0.763499975 0.506399989
vt 0.763499975 0.546999991
vt 0.802100003 0.546999991
vt 0.761200011 0.637799978
vt 0.821799994 0.637799978
vt 0.761200011 0.781400025
vt 0.772300005 0.781400025
vt 0.760699987 0.813600004
vt 0.771099985 0.813600004
vt 0.763000011 0.533100009
vt 0.763499975 0.506399989
vt 0.761200011 0.781400025
vt 0.761200011 0.637799978
vt 0.763499975 0.546999991
vt 0.760699987 0.813600004
vt 0.65990001 0.756900012
vt 0.708400011 0.71359998
vt 0.66109997 0.663500011
vt 0.612500012 0.712400019
vt 0.802299976 0.775900006
vt 0.783699989 0.792400002
vt 0.801800013 0.811600029
vt 0.8204 0.792900026
vt 0.716899991 0.533100009
vt 0.763499975 0.506399989
vt 0.763000011 0.533100009
vt 0.716600001 0.506399989
vt 0.763499975 0.546999991
vt 0.726899981 0.546999991
vt 0.704200029 0.637799978
vt 0.761200011 0.637799978
vt 0.750800014 0.781400025
vt 0.761200011 0.781400025
vt 0.750999987 0.813600004
vt 0.760699987 0.813600004
vt 0.591899991 0.86650002
vt 0.875899971 0.905499995
vt 0.87620002 0.878600001
vt 0.521300018 0.905399978
vt 0.742699981 0.828199983
vt 0.810500026 0.82889998
vt 0.624000013 0.765500009
vt 0.591899991 0.768000007
vt 0.606299996 0.756699979
vt 0.623600006 0.756900012
vt 0.700500011 0.765600026
vt 0.7421 0.788999975
vt 0.86650002 0.831799984
vt 0.826399982 0.779200017
vt 0.828400016 0.831799984
vt 0.868600011 0.779200017
vt 0.826399982 0.630500019
vt 0.868600011 0.630500019
vt 0.826600015 0.508400023
vt 0.868399978 0.508400023
vt 0.934800029 0.75120002
vt 0.981599987 0.888700008
vt 0.987100005 0.751100004
vt 0.939999998 0.888800025
vt 0.939100027 0.583100021
vt 0.983299971 0.583000004
vt 0.939100027 0.551900029
vt 0.983299971 0.551699996
vt 0.939199984 0.522199988
vt 0.983399987 0.522099972
vt 0.939199984 0.507399976
vt 0.983399987 0.507300019
vt 0.876699984 0.70630002
vt 0.921500027 0.858500004
vt 0.921500027 0.70630002
vt 0.876699984 0.858500004
vt 0.876699984 0.587800026
vt 0.921500027 0.587800026
vt 0.875999987 0.511300027
vt 0.922200024 0.511300027
vt 0.591899991 0.86650002
vt 0.875899971 0.905499995
vt 0.521300018 0.905399978
vt 0.87620002 0.878600001
vt 0.742699981 0.828199983
vt 0.810500026 0.82889998
vt 0.624000013 0.765500009
vt 0.591899991 0.768000007
vt 0.606299996 0.756699979
vt 0.623600006 0.756900012
vt 0.700500011 0.765600026
vt 0.7421 0.788999975
vt 0.527400017 0.550199986
vt 0.479600012 0.505900025
vt 0.430900007 0.549300015
vt 0.454600006 0.593400002
vt 0.502799988 0.593900025
vt 0.430900007 0.549300015
vt 0.479600012 0.505900025
vt 0.430900007 0.549300015
vt 0.454600006 0.593400002
vt 0.454600006 0.593400002
vt 0.4991 0.640799999
vt 0.434799999 0.595899999
vt 0.434799999 0.640799999
vt 0.4991 0.606000006
vt 0.4991 0.671400011
vt 0.434799999 0.682900012
vt 0.4991 0.691600025
vt 0.434799999 0.710500002
vt 0.527400017 0.550199986
vt 0.430900007 0.549300015
vt 0.479600012 0.505900025
vt 0.454600006 0.593400002
vt 0.502799988 0.593900025
vt 0.430900007 0.549300015
vt 0.479600012 0.505900025
vt 0.430900007 0.549300015
vt 0.479600012 0.505900025
vt 0.454600006 0.593400002
vt 0.454600006 0.593400002
vt 0.434799999 0.595899999
vt 0.4991 0.640799999
vt 0.434799999 0.640799999
vt 0.4991 0.606000006
vt 0.4991 0.671400011
vt 0.434799999 0.682900012
vt 0.4991 0.691600025
vt 0.434799999 0.710500002
vt 0.621200025 0.558200002
vt 0.575699985 0.508300006
vt 0.530300021 0.558200002
vt 0.558399975 0.596899986
vt 0.593100011 0.596899986
vt 0.4991 0.691600025
vt 0.434799999 0.682900012
vt 0.434799999 0.710500002
vt 0.4991 0.671400011
vt 0.4991 0.640799999
vt 0.434799999 0.640799999
vt 0.4991 0.606000006
vt 0.434799999 0.595899999
vt 0.4991 0.606000006
vt 0.434799999 0.640799999
vt 0.4991 0.640799999
vt 0.434799999 0.682900012
vt 0.4991 0.671400011
vn 0.959838955 0.280543675 -0.00210391819
vn 0.350387798 0.936413635 -0.0189181329
vn 0.956949582 -0.289581846 -0.0197446623
vn -0.337203442 0.941429 -0.00229730784
vn 0.337201794 -0.94142959 -0.00229717994
vn -0.35041035 -0.936479443 -0.0147932268
vn -0.959838822 -0.280544128 -0.00210420093
vn -0.956949739 0.28958131 -0.0197449273
vn -0.653938171 0.747716084 -0.115262855
vn -0.997933119 6.94625085e-17 -0.0642611126
vn -0.705981148 -0.705191961 -0.0655356167
vn 0.705264803 -0.706054249 -0.0639449316
vn 0.998168497 6.94788924e-17 -0.0604950488
vn 0.653222962 0.748571156 -0.113758457
vn 0.972077129 -1.24196753e-16 0.234661577
vn 0.66067245 0.723170347 0.20133694
vn -0.972818815 -1.24291514e-16 0.231567599
vn -0.662975493 0.721211686 0.200791432
vn 0 -0.963361158 0.268207532
vn 6.48037413e-08 0.919842836 -0.392287084
vn 2.23976078e-08 0.990765978 -0.135583102
vn 6.43464558e-09 0.999142936 -0.041393167
vn 6.80001274e-08 0.919842833 -0.392287091
vn -1.3334236e-08 0.998835305 0.0482497079
vn -4.03209313e-08 0.986686741 0.162632332
vn -1.18596702e-07 0.878167376 0.478353489
vn -1.0753357e-07 0.87816739 0.478353463
vn 0.905712539 -0.026950841 -0.423034809
vn 0.878448456 0.459632253 -0.130638826
vn 0.991697945 -0.0969851815 -0.0844337623
vn 0.81939478 0.431842339 -0.376967357
vn 0.289623793 -0.870442703 -0.39805472
vn 0.223189522 -0.971220798 -0.0831660927
vn -0.892007457 -0.216061401 -0.397039251
vn -0.914437782 -0.401280348 -0.0527031811
vn -0.882300187 0.464145087 -0.0782030597
vn -0.818319019 0.433487211 -0.377415979
vn -0.990936743 -0.0890314068 0.100587172
vn -0.873977161 0.459695435 0.157619891
vn -0.857204157 -0.0281174251 0.514208561
vn -0.782264231 0.412803534 0.466536081
vn -0.270815967 -0.829329353 0.488744857
vn -0.231582406 -0.967694419 0.0996850091
vn 0.848117198 -0.206788677 0.487786491
vn 0.912790419 -0.403636377 0.062380494
vn 0.882157754 0.461548481 0.0936520021
vn 0.783498931 0.41552214 0.462028977
vn -1.49895019e-07 1.17682898e-10 1
vn -1.44452309e-07 -6.67044268e-15 1
vn -1.44452309e-07 7.17730275e-09 1
vn -1.5408246e-07 2.08229357e-10 1
vn -1.73342761e-07 -3.02958689e-08 1
vn 1.49990633e-07 1.97854956e-10 -1
vn 1.33717927e-07 -4.48709884e-08 -1
vn 1.12539671e-07 -2.77211491e-08 -1
vn 2.24799397e-07 -1.18627418e-07 -1
vn 1.12539671e-07 -1.03526232e-07 -1
vn 0 0.964361083 -0.264589687
vn 0 0.974482923 -0.224461651
vn 0 0.99947631 -0.0323590092
vn 0 0.964361083 -0.264589687
vn 0 0.900770557 0.434295296
vn 0 0.900770557 0.434295296
vn 0.851402593 0.432352325 -0.296959748
vn 0.935840166 -0.288458282 -0.202472227
vn 0.900833296 -0.300580432 -0.313290243
vn 0.860788038 0.47277982 -0.188475981
vn 0.639780524 -0.73663999 -0.21918578
vn 0.669565192 -0.735258806 -0.105247052
vn 0.790718024 0.434572998 0.431174345
vn 0.843184257 -0.23181572 0.485079149
vn 0.623562949 -0.685312218 0.376186672
vn -0.640144724 -0.736209162 -0.219569582
vn -0.936169539 -0.287394966 -0.202461667
vn -0.900775973 -0.29965326 -0.314341485
vn -0.670836039 -0.734122761 -0.105084637
vn -0.850828387 0.433168539 -0.297415656
vn -0.860927565 0.472856306 -0.187644989
vn -0.789109603 0.433688964 0.434994158
vn -0.841128414 -0.231250491 0.488903059
vn -0.623628446 -0.684371752 0.3777868
vn 0 9.59123241e-16 -1
vn 0 5.75473945e-16 -1
vn 0 4.79561621e-16 -1
vn 0 9.59123241e-16 -1
vn 0 0 -1
vn 0 0 1
vn 0 0 1
vn 0 0 1
vn 0 0 1
vn 0 0 1
vn 1.76107843e-08 -0.996468133 -0.083971776
vn -6.57739973e-10 -0.999983301 0.00577901259
vn 1.82011186e-08 -0.997158913 -0.0753266307
vn 0 -0.999983301 0.00577901234
vn 4.86636845e-08 -0.971336202 -0.23770987
vn 1.39406397e-08 -0.996861666 -0.0791632423
vn -1.67936168e-08 -0.99586289 0.0908686133
vn -4.09417588e-08 -0.96783252 0.251595337
vn -3.58222967e-08 -0.974843789 0.222889181
vn -8.71844523e-09 -0.997785382 0.0665156537
vn 6.5719548e-09 -0.998996084 -0.0447975942
vn 3.16775652e-08 -0.981913039 -0.189332471
vn 7.08448648e-08 -0.904994886 -0.425422445
vn 7.65839589e-08 -0.90499489 -0.425422437
vn -1.4296928e-09 0.998973856 -0.0452905556
vn -1.19995429e-08 0.998163821 0.0605721554
vn -3.72224389e-08 0.975661963 0.219280036
vn 3.44487247e-08 0.982819383 -0.184569934
vn 7.59787118e-08 0.904994498 -0.42542327
vn 1.25638031e-07 0.904994477 -0.425423314
vn -3.58669357e-08 0.976150285 0.217095881
vn -1.22662316e-08 0.996233243 0.0867140425
vn 1.76875412e-08 0.997914471 -0.0645500514
vn 6.50555251e-08 0.980746589 -0.195284738
vn 1.13421496e-07 0.939008422 -0.343894145
vn 4.15088832e-08 0.995600263 -0.0937022774
vn -5.43188269e-08 0.992453758 0.122619483
vn -5.54962714e-08 0.958543936 0.284944773
vn -2.24723427e-07 0.550102861 0.835096906
vn 0 0.611314531 0.791387733
vn -3.05287449e-07 -0.00970993689 0.999952857
vn -5.44368008e-07 -0.00970959339 0.999952861
vn 0 0.0094349632 -0.99995549
vn 0 0.0094349632 -0.99995549
vn 0 0.0094349632 -0.99995549
vn 0 0.0094349632 -0.99995549
vn -2.23686524e-07 -1.74612451e-16 1
vn -2.23686524e-07 -1.74612451e-16 1
vn -1.80018618e-07 3.66013941e-08 1
vn -2.95324744e-07 -6.00454417e-08 1
vn -1.37730586e-09 0.999986574 0.00518189016
vn -1.37730586e-09 0.999986574 0.00518189016
vn 0 0.999986574 0.00518188895
vn -2.8209889e-09 0.999986574 0.00518189144
vn 0.992462909 0.0194494757 0.120992114
vn 0.993564415 -0.00107631626 0.113263384
vn 0.982329764 0.164980615 0.0883721141
vn 0.984850992 -0.172300715 0.0195188977
vn 0.971603136 0.231701652 0.0479759359
vn 0.954796393 0.282897535 -0.0912843458
vn 0.944056779 0.269729265 -0.189744358
vn 0.980762527 0.174167871 -0.0881499812
vn 0.981339 0.177655796 -0.0735675527
vn 0.983545451 0.168707541 0.0646228344
vn 0.968832835 0.164589329 0.185130467
vn 0.953378786 0.238332236 0.185112495
vn 0.970630978 0.231998627 0.0636564375
vn 0.971812569 0.222965183 -0.0765954206
vn 0.975704587 0.208547472 -0.0671454376
vn 0.936516932 0.193849237 -0.292161787
vn 0.938623225 0.190840921 -0.287343321
vn -0.992462955 0.0194495195 0.120991733
vn -0.993564463 -0.00107623466 0.113262966
vn -0.984851004 -0.172300695 0.019518446
vn -0.982109795 0.166731548 0.0875268006
vn -0.970865094 0.234984365 0.0469395018
vn -0.953617477 0.286988558 -0.090836529
vn -0.94220752 0.275610777 -0.190482781
vn -0.980840802 0.174467747 -0.0866736755
vn -0.981583485 0.177700343 -0.0701174053
vn -0.983545465 0.16870757 0.0646225502
vn -0.969369319 0.164198294 0.182652795
vn -0.955142552 0.232775395 0.183080093
vn -0.971479981 0.228507631 0.0633317332
vn -0.972255961 0.220496959 -0.0780988971
vn -0.97570468 0.208546999 -0.0671455676
vn -0.934304632 0.193391162 -0.299457363
vn -0.936436848 0.190396387 -0.294678206
vn 0.673459366 0.737053681 0.0566070139
vn 0.663595424 0.726288486 -0.179293469
vn 0.660412631 0.722713459 -0.203814653
vn 0.673422796 0.737079794 0.0567019885
vn 0.674140574 0.737477261 0.0407648995
vn 0.673998851 0.73795423 0.0338984369
vn 0.674678822 0.737784214 -0.0219759211
vn 0.673387542 0.735025719 -0.0792868858
vn 0.661545285 0.721110111 -0.205810698
vn 0.673885135 0.724436375 -0.145157718
vn 0.68109898 0.732191355 1.00519227e-07
vn 0.681098986 0.732191349 9.78024919e-08
vn 0 -0.996811005 0.0797986251
vn 0.714244928 -0.691828303 -0.105961225
vn 0 -0.92934061 -0.369223552
vn 0.71830993 -0.693107091 0.0602777302
vn 0.715101606 -0.692478698 -0.0954093599
vn -1.91751478e-17 -0.988877479 0.148732413
vn 0.717818268 -0.69593448 -0.0203010776
vn 0 -0.99433085 -0.106330432
vn 0.703701997 -0.683423423 -0.194257364
vn 0 -0.981214498 -0.192919957
vn 0.71518841 -0.698931712 1.05550276e-07
vn 0 -1 -4.83338568e-16
vn -0.715186 -0.690829091 -0.106132712
vn -0.718518482 -0.693308257 0.0552707136
vn -0.703702003 -0.683423359 -0.194257573
vn -0.717818274 -0.695934468 -0.0203013051
vn -0.715516329 -0.692249495 -0.0939522193
vn -0.715188547 -0.698931572 -1.11255719e-07
vn 0 -7.84737445e-16 1
vn 8.13272157e-16 -7.84737445e-16 1
vn 0 -7.84737445e-16 1
vn -8.13272238e-16 -7.84737445e-16 1
vn 0 0 -1
vn 0 0 -1
vn 0 0 -1
vn 0 0 -1
vn -0.664425827 0.72548042 -0.179489502
vn -0.674359868 0.736406417 0.0542619371
vn -0.661908198 0.721228037 -0.204224523
vn -0.67342284 0.737079769 0.0567017805
vn -0.674278585 0.737311722 0.0414706484
vn -0.673998841 0.737954248 0.0338982342
vn -0.674678828 0.737784202 -0.0219761276
vn -0.673387558 0.735025682 -0.079287095
vn -0.661545294 0.721110047 -0.205810894
vn -0.673885255 0.724436218 -0.145157948
vn -0.681099124 0.732191221 -1.0595272e-07
vn -0.68109913 0.732191215 -1.08669458e-07
vn 0.999904174 0.0133849778 -0.00353340776
vn 0.998496873 0.0547924289 -0.00133568553
vn 0.999983828 0.00359203805 -0.00440911274
vn 0.997916394 0.0645203156 1.5175721e-07
vn 0.999904514 -0.0130270961 -0.00461054126
vn 1 -5.79135045e-09 1.53727067e-07
vn 0.999893748 -0.0141541609 -0.00348597063
vn 0.999855643 -0.0169393465 0.0013235694
vn 1 -1.32375382e-08 1.53232195e-07
vn 1 -1.06566679e-07 1.06567359e-07
vn 0.999977706 -0.00650572893 -0.00150401457
vn 0.999938965 -0.009582298 -0.00549955744
vn 0 0.0124200181 -0.999922869
vn 0 -0.543071217 -0.83968664
vn 0 0.0124200181 -0.999922869
vn 0 -0.721221251 -0.692704777
vn 0 -0.894126414 -0.447814645
vn 0 -0.969279471 -0.245962002
vn 0 -0.999951002 -0.00989920388
vn 0 -0.999951002 -0.00989920388
vn -1.00964743e-07 -0.601143365 0.799141198
vn -4.16180048e-08 -0.875820052 0.48263779
vn -9.16204316e-08 -0.303985018 0.952676812
vn 0 -0.875820058 0.48263778
vn -7.92941715e-08 -0.0636535493 0.997972057
vn 0 -0.231135642 0.972921536
vn 0 -0.899580293 0.436755418
vn 1.21126557e-09 -0.977116392 0.212705328
vn 4.44828385e-08 -0.96737143 -0.253362423
vn 1.26378925e-07 -0.720320329 -0.693641567
vn 1.82056315e-07 -0.0391920619 -0.999231696
vn 1.82056315e-07 -0.0391920619 -0.999231696
vn 1.34778061e-23 -0.989684134 -0.143266588
vn 1.82116233e-23 -1 -1.99912113e-16
vn 0 -0.949734463 -0.313056625
vn 3.64232476e-23 -1 -1.99912118e-16
vn 0 -0.729059665 -0.684450148
vn 0 -0.442632044 -0.896703336
vn 0 -0.0189542052 -0.999820353
vn 0 -0.0189542052 -0.999820353
vn -0.999899122 0.0138193812 -0.0032817639
vn -0.99837364 0.0570000728 -0.00103291539
vn -0.997916391 0.064520356 -1.5175721e-07
vn -0.999981334 0.00499904794 -0.00351286846
vn -0.999901091 -0.0134217732 -0.00420290074
vn -0.99999131 0.00333013077 0.00250803575
vn -0.999893747 -0.0141541902 -0.00348626897
vn -0.999855643 -0.0169393606 0.00132321739
vn -1 1.32375212e-08 -1.53232171e-07
vn -1 1.06566679e-07 -1.06567336e-07
vn -0.999977706 -0.00650577869 -0.00150431453
vn -0.999938963 -0.00958235744 -0.00549986996
vn 0 0 1
vn -0.563270292 -0.618056941 0.548390551
vn 0 0 1
vn 0 0 1
vn 0 0 1
vn -0.795512402 -0.507662015 -0.330816106
vn -0.650162524 -0.711116508 -0.267585509
vn -0.92034028 -0.0714658107 -0.384534012
vn -0.82262746 0.452821661 -0.3438555
vn -0.822697833 0.452484305 -0.344131121
vn 0.796992687 -0.506858823 -0.328476469
vn 0.649964625 -0.711208003 -0.267823005
vn 0.922127342 -0.0698581188 -0.380527278
vn 0.65016258 -0.711116513 -0.267585359
vn 0.661244564 0.647088478 -0.37951565
vn 0.359460436 0.846530422 -0.392650531
vn 0 0.935933769 -0.352176063
vn 0 0.935933769 -0.352176063
vn 0 0 1
vn 0 0 1
vn 0 0 1
vn 0 0 1
vn 0 0 1
vn 0.7815951 -0.504850242 -0.366381403
vn 0.643178498 -0.70389347 -0.301422301
vn 0.902435645 -0.0757518374 -0.424112681
vn 0.643454517 -0.703779499 -0.301099155
vn 0.810374589 0.444862983 -0.381300343
vn 0.810545962 0.443869747 -0.382092778
vn -0.643178447 -0.703893414 -0.301422539
vn -0.781594976 -0.504850219 -0.366381701
vn -0.902959376 -0.0741480946 -0.423280551
vn -0.643454579 -0.703779397 -0.301099261
vn -0.651842697 0.630563934 -0.421295886
vn -0.356315822 0.826312136 -0.436173462
vn 0 0.919390915 -0.393345072
vn 0 0.919390915 -0.393345072
vn 0 0 1
vn 0 0 1
vn 0 0 1
vn 0 0 1
vn 0 0 1
vn 0 0.999986712 0.00515518056
vn 0.582993053 0.80006414 -0.141479583
vn 0 0.999986712 0.00515518056
vn 0.666037139 0.744394416 -0.0476600857
vn 0.950888591 0.126407762 -0.282545511
vn 0.846905624 -0.338158314 -0.410365471
vn 0.672497078 -0.652611838 -0.349063704
vn 0 -0.852410278 -0.52287352
vn -0.672497073 -0.652611769 -0.349063842
vn -0.846905571 -0.338158273 -0.410365613
vn -0.950888531 0.126407743 -0.282545721
vn -0.857134647 0.469599862 -0.211651048
vn -0.935832128 0.34530703 -0.0705782074

g gun12_submesh_0
usemtl RPG-24-Newlambert15
f 1/1/1 3/3/3 2/2/2
f 1/1/1 2/2/2 4/4/4
f 5/5/5 3/3/3 1/1/1
f 5/5/5 6/6/6 3/3/3
f 7/7/7 6/6/6 5/5/5
f 7/7/7 8/8/8 6/6/6
f 4/4/4 2/2/2 8/8/8
f 4/4/4 8/8/8 7/7/7
f 8/8/8 2/2/2 9/9/9
f 8/8/8 9/9/9 10/10/10
f 8/8/8 10/10/10 11/11/11
f 8/8/8 11/11/11 6/6/6
f 3/3/3 6/6/6 12/12/12
f 3/3/3 12/12/12 13/13/13
f 3/3/3 13/13/13 14/14/14
f 3/3/3 14/14/14 2/2/2
f 14/14/14 13/13/13 15/15/15
f 12/12/12 15/15/15 13/13/13
f 14/14/14 15/15/15 16/16/16
f 9/9/9 17/17/17 10/10/10
f 11/11/11 10/10/10 17/17/17
f 9/9/9 18/18/18 17/17/17
f 11/11/11 17/17/17 19/19/19
f 12/12/12 19/19/19 15/15/15
f 20/20/20 22/22/22 21/21/21
f 20/20/20 21/21/21 23/23/23
f 22/22/22 24/24/24 21/21/21
f 22/22/22 25/25/25 24/24/24
f 25/25/25 26/26/26 24/24/24
f 25/25/25 27/27/27 26/26/26
f 28/28/28 30/30/30 29/29/29
f 28/28/28 29/29/29 31/31/31
f 32/32/32 30/30/30 28/28/28
f 32/32/32 33/33/33 30/30/30
f 34/34/34 33/33/33 32/32/32
f 34/34/34 35/35/35 33/33/33
f 34/34/34 36/36/36 35/35/35
f 34/34/34 37/37/37 36/36/36
f 36/36/36 38/38/38 35/35/35
f 36/36/36 39/39/39 38/38/38
f 39/39/39 40/40/40 38/38/38
f 39/39/39 41/41/41 40/40/40
f 38/38/38 40/40/40 42/42/42
f 38/38/38 42/42/42 43/43/43
f 35/35/35 38/38/38 43/43/43
f 35/35/35 43/43/43 33/33/33
f 43/43/43 42/42/42 44/44/44
f 43/43/43 44/44/44 45/45/45
f 33/33/33 43/43/43 45/45/45
f 33/33/33 45/45/45 30/30/30
f 46/46/46 45/45/45 44/44/44
f 46/46/46 44/44/44 47/47/47
f 30/30/30 45/45/45 46/46/46
f 30/30/30 46/46/46 29/29/29
f 48/48/48 50/50/50 49/49/49
f 51/51/51 50/50/50 48/48/48
f 51/51/51 48/48/48 52/52/52
f 53/53/53 55/55/55 54/54/54
f 53/53/53 54/54/54 56/56/56
f 54/54/54 55/55/55 57/57/57
f 58/58/58 60/60/60 59/59/59
f 58/58/58 59/59/59 61/61/61
f 60/60/60 62/62/62 59/59/59
f 60/60/60 63/63/63 62/62/62
f 64/64/64 66/66/66 65/65/65
f 64/64/64 65/65/65 67/67/67
f 68/68/68 65/65/65 66/66/66
f 68/68/68 69/69/69 65/65/65
f 65/65/65 70/70/70 67/67/67
f 65/65/65 71/71/71 70/70/70
f 65/65/65 69/69/69 72/72/72
f 65/65/65 72/72/72 71/71/71
f 73/73/73 75/75/75 74/74/74
f 73/73/73 74/74/74 76/76/76
f 77/77/77 74/74/74 75/75/75
f 77/77/77 78/78/78 74/74/74
f 74/74/74 78/78/78 79/79/79
f 74/74/74 79/79/79 80/80/80
f 74/74/74 80/80/80 81/81/81
f 74/74/74 81/81/81 76/76/76
f 82/82/82 84/84/84 83/83/83
f 82/82/82 83/83/83 85/85/85
f 83/83/83 84/84/84 86/86/86
f 87/87/87 89/89/89 88/88/88
f 87/87/87 88/88/88 90/90/90
f 88/88/88 89/89/89 91/91/91
f 92/92/92 94/94/94 93/93/93
f 92/92/92 93/93/93 95/95/95
f 92/92/92 96/96/96 94/94/94
f 92/92/92 97/97/97 96/96/96
f 97/97/97 98/98/98 96/96/96
f 97/97/97 99/99/99 98/98/98
f 100/100/100 98/98/98 99/99/99
f 100/100/100 99/99/99 101/101/101
f 101/101/101 102/102/102 100/100/100
f 101/101/101 103/103/103 102/102/102
f 103/103/103 104/104/104 102/102/102
f 103/103/103 105/105/105 104/104/104
f 106/106/106 108/108/108 107/107/107
f 106/106/106 107/107/107 109/109/109
f 109/109/109 110/110/110 106/106/106
f 109/109/109 111/111/111 110/110/110
f 108/108/108 112/112/112 107/107/107
f 108/108/108 113/113/113 112/112/112
f 113/113/113 114/114/114 112/112/112
f 113/113/113 115/115/115 114/114/114
f 116/116/116 114/114/114 115/115/115
f 116/116/116 115/115/115 117/117/117
f 117/117/117 118/118/118 116/116/116
f 117/117/117 119/119/119 118/118/118
f 119/119/119 120/120/120 118/118/118
f 119/119/119 121/121/121 120/120/120
f 122/122/122 120/120/120 121/121/121
f 122/122/122 123/123/123 120/120/120
f 124/124/124 126/126/126 125/125/125
f 124/124/124 125/125/125 127/127/127
f 128/128/128 130/130/130 129/129/129
f 128/128/128 129/129/129 131/131/131
f 132/132/132 134/134/134 133/133/133
f 132/132/132 133/133/133 135/135/135
f 136/136/136 138/138/138 137/137/137
f 136/136/136 137/137/137 139/139/139
f 140/140/140 138/138/138 136/136/136
f 140/140/140 141/141/141 138/138/138
f 140/140/140 142/142/142 141/141/141
f 141/141/141 142/142/142 143/143/143
f 141/141/141 143/143/143 144/144/144
f 143/143/143 145/145/145 144/144/144
f 143/143/143 146/146/146 145/145/145
f 147/147/147 145/145/145 146/146/146
f 147/147/147 146/146/146 148/148/148
f 148/148/148 149/149/149 147/147/147
f 148/148/148 150/150/150 149/149/149
f 149/149/149 150/150/150 151/151/151
f 149/149/149 151/151/151 152/152/152
f 153/153/153 155/155/155 154/154/154
f 153/153/153 154/154/154 156/156/156
f 157/157/157 153/153/153 156/156/156
f 157/157/157 156/156/156 158/158/158
f 157/157/157 158/158/158 159/159/159
f 158/158/158 160/160/160 159/159/159
f 158/158/158 161/161/161 160/160/160
f 162/162/162 160/160/160 161/161/161
f 162/162/162 163/163/163 160/160/160
f 163/163/163 162/162/162 164/164/164
f 163/163/163 164/164/164 165/165/165
f 166/166/166 165/165/165 164/164/164
f 166/166/166 167/167/167 165/165/165
f 166/166/166 168/168/168 167/167/167
f 166/166/166 169/169/169 168/168/168
f 170/170/170 172/172/172 171/171/171
f 170/170/170 171/171/171 173/173/173
f 171/171/171 172/172/172 174/174/174
f 171/171/171 174/174/174 175/175/175
f 174/174/174 176/176/176 175/175/175
f 174/174/174 177/177/177 176/176/176
f 177/177/177 178/178/178 176/176/176
f 177/177/177 179/179/179 178/178/178
f 179/179/179 180/180/180 178/178/178
f 179/179/179 181/181/181 180/180/180
f 182/182/182 184/184/184 183/183/183
f 182/182/182 183/183/183 185/185/185
f 184/184/184 186/186/186 183/183/183
f 184/184/184 187/187/187 186/186/186
f 187/187/187 188/188/188 186/186/186
f 187/187/187 189/189/189 188/188/188
f 189/189/189 190/190/190 188/188/188
f 189/189/189 191/191/191 190/190/190
f 191/191/191 192/192/192 190/190/190
f 191/191/191 193/193/193 192/192/192
f 194/194/194 184/184/184 182/182/182
f 194/194/194 182/182/182 195/195/195
f 196/196/196 191/191/191 189/189/189
f 196/196/196 189/189/189 197/197/197
f 197/197/197 189/189/189 187/187/187
f 197/197/197 187/187/187 198/198/198
f 198/198/198 187/187/187 184/184/184
f 198/198/198 184/184/184 194/194/194
f 199/199/199 193/193/193 191/191/191
f 199/199/199 191/191/191 196/196/196
f 200/200/200 202/202/202 201/201/201
f 200/200/200 203/203/203 202/202/202
f 204/204/204 206/206/206 205/205/205
f 204/204/204 207/207/207 206/206/206
f 208/208/208 210/210/210 209/209/209
f 208/208/208 209/209/209 211/211/211
f 208/208/208 212/212/212 210/210/210
f 208/208/208 213/213/213 212/212/212
f 214/214/214 212/212/212 213/213/213
f 214/214/214 215/215/215 212/212/212
f 216/216/216 215/215/215 214/214/214
f 216/216/216 217/217/217 215/215/215
f 218/218/218 217/217/217 216/216/216
f 218/218/218 219/219/219 217/217/217
f 220/220/220 222/222/222 221/221/221
f 220/220/220 221/221/221 223/223/223
f 224/224/224 222/222/222 220/220/220
f 224/224/224 225/225/225 222/222/222
f 226/226/226 224/224/224 220/220/220
f 227/227/227 226/226/226 220/220/220
f 226/226/226 227/227/227 228/228/228
f 226/226/226 228/228/228 229/229/229
f 226/226/226 230/230/230 224/224/224
f 224/224/224 230/230/230 231/231/231
f 232/232/232 234/234/234 233/233/233
f 232/232/232 233/233/233 235/235/235
f 235/235/235 233/233/233 236/236/236
f 235/235/235 236/236/236 237/237/237
f 237/237/237 236/236/236 238/238/238
f 237/237/237 238/238/238 239/239/239
f 240/240/240 242/242/242 241/241/241
f 240/240/240 241/241/241 243/243/243
f 244/244/244 242/242/242 240/240/240
f 244/244/244 245/245/245 242/242/242
f 246/246/246 245/245/245 244/244/244
f 246/246/246 247/247/247 245/245/245
f 248/248/248 247/247/247 246/246/246
f 248/248/248 249/249/249 247/247/247
f 250/250/250 249/249/249 248/248/248
f 250/250/250 251/251/251 249/249/249
f 252/252/252 254/254/254 253/253/253
f 252/252/252 253/253/253 255/255/255
f 256/256/256 254/254/254 252/252/252
f 256/256/256 257/257/257 254/254/254
f 258/258/258 257/257/257 256/256/256
f 258/258/258 259/259/259 257/257/257
f 260/260/260 262/262/262 261/261/261
f 260/260/260 261/261/261 263/263/263
f 263/263/263 264/264/264 260/260/260
f 263/263/263 265/265/265 264/264/264
f 264/264/264 266/266/266 260/260/260
f 267/267/267 260/260/260 266/266/266
f 268/268/268 267/267/267 266/266/266
f 268/268/268 266/266/266 269/269/269
f 264/264/264 270/270/270 266/266/266
f 264/264/264 271/271/271 270/270/270
f 272/272/272 274/274/274 273/273/273
f 275/275/275 274/274/274 272/272/272
f 275/275/275 272/272/272 276/276/276
f 277/277/277 278/278/278 273/273/273
f 277/277/277 273/273/273 279/279/279
f 280/280/280 277/277/277 279/279/279
f 280/280/280 279/279/279 281/281/281
f 282/282/282 284/284/284 283/283/283
f 282/282/282 283/283/283 285/285/285
f 286/286/286 284/284/284 282/282/282
f 286/286/286 287/287/287 284/284/284
f 288/288/288 287/287/287 286/286/286
f 288/288/288 289/289/289 287/287/287
f 290/290/290 292/292/292 291/291/291
f 290/290/290 291/291/291 293/293/293
f 290/290/290 293/293/293 294/294/294
f 295/295/295 297/297/297 296/296/296
f 295/295/295 296/296/296 298/298/298
f 299/299/299 297/297/297 295/295/295
f 299/299/299 300/300/300 297/297/297
f 301/301/301 303/303/303 302/302/302
f 301/301/301 302/302/302 304/304/304
f 303/303/303 305/305/305 302/302/302
f 303/303/303 306/306/306 305/305/305
f 306/306/306 307/307/307 305/305/305
f 306/306/306 308/308/308 307/307/307
f 309/309/309 311/311/311 310/310/310
f 312/312/312 311/311/311 309/309/309
f 312/312/312 309/309/309 313/313/313
f 314/314/314 316/316/316 315/315/315
f 314/314/314 315/315/315 317/317/317
f 318/318/318 317/317/317 315/315/315
f 318/318/318 315/315/315 319/319/319
f 320/320/320 318/318/318 319/319/319
f 320/320/320 319/319/319 321/321/321
f 322/322/322 321/321/321 323/323/323
f 322/322/322 323/323/323 324/324/324
f 324/324/324 323/323/323 325/325/325
f 324/324/324 325/325/325 326/326/326
