# Generated by tools/yaml_mesh_converter/split_reload_parts.py
mtllib gun12.mtl
o gun12_body
v 0.0596907064 0.231555611 0.695780456
vt 0.264499992 0.950200021
vn 0.959838955 0.280543675 -0.00210391819
v 0.0570526198 0.231555611 -0.514195144
vt 0.917299986 0.950200021
vn 0.956949582 -0.289581846 -0.0197446623
v -0.0016488441 0.296523094 -0.514195144
vt 0.917299986 0.986400008
vn 0.350387798 0.936413635 -0.0189181329
v 0.0596907064 0.231555611 0.695780456
vt 0.264499992 0.950200021
vn 0.959838955 0.280543675 -0.00210391819
v -0.0016488441 0.296523094 -0.514195144
vt 0.917299986 0.986400008
vn 0.350387798 0.936413635 -0.0189181329
v -0.00164902676 0.299491286 0.695780456
vt 0.264499992 0.986400008
vn -0.337203442 0.941429 -0.00229730784
v -0.00164902676 0.163620338 0.695780456
vt 0.264499992 0.907800019
vn 0.337201794 -0.94142959 -0.00229717994
v 0.0570526198 0.231555611 -0.514195144
vt 0.917299986 0.950200021
vn 0.956949582 -0.289581846 -0.0197446623
v 0.0596907064 0.231555611 0.695780456
vt 0.264499992 0.950200021
vn 0.959838955 0.280543675 -0.00210391819
v -0.00164902676 0.163620338 0.695780456
vt 0.264499992 0.907800019
vn 0.337201794 -0.94142959 -0.00229717994
v -0.0016488441 0.166588485 -0.514195144
vt 0.917299986 0.907800019
vn -0.35041035 -0.936479443 -0.0147932268
v 0.0570526198 0.231555611 -0.514195144
vt 0.917299986 0.950200021
vn 0.956949582 -0.289581846 -0.0197446623
v -0.0629887581 0.231555611 0.695780456
vt 0.264499992 0.950200021
vn -0.959838822 -0.280544128 -0.00210420093
v -0.0016488441 0.166588485 -0.514195144
vt 0.917299986 0.907800019
vn -0.35041035 -0.936479443 -0.0147932268
v -0.00164902676 0.163620338 0.695780456
vt 0.264499992 0.907800019
vn 0.337201794 -0.94142959 -0.00229717994
v -0.0629887581 0.231555611 0.695780456
vt 0.264499992 0.950200021
vn -0.959838822 -0.280544128 -0.00210420093
v -0.0603503063 0.231555611 -0.514195144
vt 0.917299986 0.950200021
vn -0.956949739 0.28958131 -0.0197449273
v -0.0016488441 0.166588485 -0.514195144
vt 0.917299986 0.907800019
vn -0.35041035 -0.936479443 -0.0147932268
v -0.00164902676 0.299491286 0.695780456
vt 0.264499992 0.986400008
vn -0.337203442 0.941429 -0.00229730784
v -0.0016488441 0.296523094 -0.514195144
vt 0.917299986 0.986400008
vn 0.350387798 0.936413635 -0.0189181329
v -0.0603503063 0.231555611 -0.514195144
vt 0.917299986 0.950200021
vn -0.956949739 0.28958131 -0.0197449273
v -0.00164902676 0.299491286 0.695780456
vt 0.264499992 0.986400008
vn -0.337203442 0.941429 -0.00229730784
v -0.0603503063 0.231555611 -0.514195144
vt 0.917299986 0.950200021
vn -0.956949739 0.28958131 -0.0197449273
v -0.0629887581 0.231555611 0.695780456
vt 0.264499992 0.950200021
vn -0.959838822 -0.280544128 -0.00210420093
v -0.0603503063 0.231555611 -0.514195144
vt 0.917299986 0.950200021
vn -0.956949739 0.28958131 -0.0197449273
v -0.0016488441 0.296523094 -0.514195144
vt 0.917299986 0.986400008
vn 0.350387798 0.936413635 -0.0189181329
v -0.00164883968 0.263214946 -0.54321599
vt 0.934300005 0.971499979
vn -0.653938171 0.747716084 -0.115262855
v -0.0603503063 0.231555611 -0.514195144
vt 0.917299986 0.950200021
vn -0.956949739 0.28958131 -0.0197449273
v -0.00164883968 0.263214946 -0.54321599
vt 0.934300005 0.971499979
vn -0.653938171 0.747716084 -0.115262855
v -0.0448504724 0.231555611 -0.54321599
vt 0.934300005 0.950399995
vn -0.997933119 6.94625085e-17 -0.0642611126
v -0.0603503063 0.231555611 -0.514195144
vt 0.917299986 0.950200021
vn -0.956949739 0.28958131 -0.0197449273
v -0.0448504724 0.231555611 -0.54321599
vt 0.934300005 0.950399995
vn -0.997933119 6.94625085e-17 -0.0642611126
v -0.00164883968 0.191651866 -0.54321599
vt 0.934400022 0.924000025
vn -0.705981148 -0.705191961 -0.0655356167
v -0.0603503063 0.231555611 -0.514195144
vt 0.917299986 0.950200021
vn -0.956949739 0.28958131 -0.0197449273
v -0.00164883968 0.191651866 -0.54321599
vt 0.934400022 0.924000025
vn -0.705981148 -0.705191961 -0.0655356167
v -0.0016488441 0.166588485 -0.514195144
vt 0.917299986 0.907800019
vn -0.35041035 -0.936479443 -0.0147932268
v 0.0570526198 0.231555611 -0.514195144
vt 0.917299986 0.950200021
vn 0.956949582 -0.289581846 -0.0197446623
v -0.0016488441 0.166588485 -0.514195144
vt 0.917299986 0.907800019
vn -0.35041035 -0.936479443 -0.0147932268
v -0.00164883968 0.191651866 -0.54321599
vt 0.934300005 0.923900008
vn 0.705264803 -0.706054249 -0.0639449316
v 0.0570526198 0.231555611 -0.514195144
vt 0.917299986 0.950200021
vn 0.956949582 -0.289581846 -0.0197446623
v -0.00164883968 0.191651866 -0.54321599
vt 0.934300005 0.923900008
vn 0.705264803 -0.706054249 -0.0639449316
v 0.0415528007 0.231555611 -0.54321599
vt 0.934300005 0.950299978
vn 0.998168497 6.94788924e-17 -0.0604950488
v 0.0570526198 0.231555611 -0.514195144
vt 0.917299986 0.950200021
vn 0.956949582 -0.289581846 -0.0197446623
v 0.0415528007 0.231555611 -0.54321599
vt 0.934300005 0.950299978
vn 0.998168497 6.94788924e-17 -0.0604950488
v -0.00164883968 0.263214946 -0.54321599
vt 0.934300005 0.971499979
vn 0.653222962 0.748571156 -0.113758457
v 0.0570526198 0.231555611 -0.514195144
vt 0.917299986 0.950200021
vn 0.956949582 -0.289581846 -0.0197446623
v -0.00164883968 0.263214946 -0.54321599
vt 0.934300005 0.971499979
vn 0.653222962 0.748571156 -0.113758457
v -0.0016488441 0.296523094 -0.514195144
vt 0.917299986 0.986400008
vn 0.350387798 0.936413635 -0.0189181329
v -0.00164883968 0.263214946 -0.54321599
vt 0.934300005 0.971499979
vn 0.653222962 0.748571156 -0.113758457
v 0.0415528007 0.231555611 -0.54321599
vt 0.934300005 0.950299978
vn 0.998168497 6.94788924e-17 -0.0604950488
v 0.0517760925 0.230566472 -0.601257861
vt 0.971899986 0.950200021
vn 0.972077129 -1.24196753e-16 0.234661577
v -0.00164883968 0.191651866 -0.54321599
vt 0.934300005 0.923900008
vn 0.705264803 -0.706054249 -0.0639449316
v 0.0517760925 0.230566472 -0.601257861
vt 0.971899986 0.950200021
vn 0.972077129 -1.24196753e-16 0.234661577
v 0.0415528007 0.231555611 -0.54321599
vt 0.934300005 0.950299978
vn 0.998168497 6.94788924e-17 -0.0604950488
v -0.00164883968 0.263214946 -0.54321599
vt 0.934300005 0.971499979
vn 0.653222962 0.748571156 -0.113758457
v 0.0517760925 0.230566472 -0.601257861
vt 0.971899986 0.950200021
vn 0.972077129 -1.24196753e-16 0.234661577
v -0.00164883095 0.279374301 -0.601257861
vt 0.971899986 0.989300013
vn 0.66067245 0.723170347 0.20133694
v -0.00164883968 0.263214946 -0.54321599
vt 0.934300005 0.971499979
vn -0.653938171 0.747716084 -0.115262855
v -0.0547439717 0.230566472 -0.601257861
vt 0.971899986 0.950200021
vn -0.972818815 -1.24291514e-16 0.231567599
v -0.0448504724 0.231555611 -0.54321599
vt 0.934300005 0.950399995
vn -0.997933119 6.94625085e-17 -0.0642611126
v -0.00164883968 0.191651866 -0.54321599
vt 0.934400022 0.924000025
vn -0.705981148 -0.705191961 -0.0655356167
v -0.0448504724 0.231555611 -0.54321599
vt 0.934300005 0.950399995
vn -0.997933119 6.94625085e-17 -0.0642611126
v -0.0547439717 0.230566472 -0.601257861
vt 0.971899986 0.950200021
vn -0.972818815 -1.24291514e-16 0.231567599
v -0.00164883968 0.263214946 -0.54321599
vt 0.934300005 0.971499979
vn -0.653938171 0.747716084 -0.115262855
v -0.00164883095 0.279374301 -0.601257861
vt 0.971899986 0.989300013
vn -0.662975493 0.721211686 0.200791432
v -0.0547439717 0.230566472 -0.601257861
vt 0.971899986 0.950200021
vn -0.972818815 -1.24291514e-16 0.231567599
v -0.00164883968 0.191651866 -0.54321599
vt 0.934400022 0.924000025
vn -0.705981148 -0.705191961 -0.0655356167
v -0.0547439717 0.230566472 -0.601257861
vt 0.971899986 0.950200021
vn -0.972818815 -1.24291514e-16 0.231567599
v -0.00164883095 0.17549254 -0.601257861
vt 0.971899986 0.906099975
vn 0 -0.963361158 0.268207532
v -0.00164883968 0.191651866 -0.54321599
vt 0.934300005 0.923900008
vn 0.705264803 -0.706054249 -0.0639449316
v -0.00164883095 0.17549254 -0.601257861
vt 0.971899986 0.906099975
vn 0 -0.963361158 0.268207532
v 0.0517760925 0.230566472 -0.601257861
vt 0.971899986 0.950200021
vn 0.972077129 -1.24196753e-16 0.234661577
v 0.0629886389 0.355554342 0.0309369881
vt 0.101599999 0.507499993
vn 6.48037413e-08 0.919842836 -0.392287084
v 0.0524355732 0.336426854 -0.013913543
vt 0.0940999985 0.540799975
vn 6.43464558e-09 0.999142936 -0.041393167
v -0.0554036275 0.336426854 -0.0139135597
vt 0.0173000004 0.540799975
vn 2.23976078e-08 0.990765978 -0.135583102
v 0.0629886389 0.355554342 0.0309369881
vt 0.101599999 0.507499993
vn 6.48037413e-08 0.919842836 -0.392287084
v -0.0554036275 0.336426854 -0.0139135597
vt 0.0173000004 0.540799975
vn 2.23976078e-08 0.990765978 -0.135583102
v -0.0659567043 0.355554342 0.0309369657
vt 0.00980000012 0.507499993
vn 6.80001274e-08 0.919842833 -0.392287091
v 0.0524355732 0.336426854 -0.013913543
vt 0.0940999985 0.540799975
vn 6.43464558e-09 0.999142936 -0.041393167
v -0.0554035939 0.336426854 -0.222336724
vt 0.0173000004 0.681200027
vn -1.3334236e-08 0.998835305 0.0482497079
v -0.0554036275 0.336426854 -0.0139135597
vt 0.0173000004 0.540799975
vn 2.23976078e-08 0.990765978 -0.135583102
v 0.0524355732 0.336426854 -0.013913543
vt 0.0940999985 0.540799975
vn 6.43464558e-09 0.999142936 -0.041393167
v 0.0524356067 0.336426854 -0.222336695
vt 0.0940999985 0.681200027
vn -4.03209313e-08 0.986686741 0.162632332
v -0.0554035939 0.336426854 -0.222336724
vt 0.0173000004 0.681200027
vn -1.3334236e-08 0.998835305 0.0482497079
v 0.0524356067 0.336426854 -0.222336695
vt 0.0940999985 0.681200027
vn -4.03209313e-08 0.986686741 0.162632332
v -0.067935355 0.358522475 -0.262900144
vt 0.00860000029 0.712800026
vn -1.18596702e-07 0.878167376 0.478353489
v -0.0554035939 0.336426854 -0.222336724
vt 0.0173000004 0.681200027
vn -1.3334236e-08 0.998835305 0.0482497079
v 0.0524356067 0.336426854 -0.222336695
vt 0.0940999985 0.681200027
vn -4.03209313e-08 0.986686741 0.162632332
v 0.0646376088 0.358522475 -0.262900114
vt 0.102799997 0.712800026
vn -1.0753357e-07 0.87816739 0.478353463
v -0.067935355 0.358522475 -0.262900144
vt 0.00860000029 0.712800026
vn -1.18596702e-07 0.878167376 0.478353489
v 0.127296403 0.233534247 0.0309369955
vt 0.109499998 0.616599977
vn 0.905712539 -0.026950841 -0.423034809
v 0.106190287 0.233534247 -0.0139135355
vt 0.140200004 0.616599977
vn 0.991697945 -0.0969851815 -0.0844337623
v 0.0524355732 0.336426854 -0.013913543
vt 0.140200004 0.683799982
vn 0.878448456 0.459632253 -0.130638826
v 0.127296403 0.233534247 0.0309369955
vt 0.109499998 0.616599977
vn 0.905712539 -0.026950841 -0.423034809
v 0.0524355732 0.336426854 -0.013913543
vt 0.140200004 0.683799982
vn 0.878448456 0.459632253 -0.130638826
v 0.0629886389 0.355554342 0.0309369881
vt 0.109499998 0.700999975
vn 0.81939478 0.431842339 -0.376967357
v -0.00164892641 0.0927169099 0.0309369769
vt 0.109499998 0.5097
vn 0.289623793 -0.870442703 -0.39805472
v 0.106190287 0.233534247 -0.0139135355
vt 0.140200004 0.616599977
vn 0.991697945 -0.0969851815 -0.0844337623
v 0.127296403 0.233534247 0.0309369955
vt 0.109499998 0.616599977
vn 0.905712539 -0.026950841 -0.423034809
v -0.00164892641 0.0927169099 0.0309369769
vt 0.109499998 0.5097
vn 0.289623793 -0.870442703 -0.39805472
v -0.00164891954 0.111844383 -0.0139135513
vt 0.140200004 0.524299979
vn 0.223189522 -0.971220798 -0.0831660927
v 0.106190287 0.233534247 -0.0139135355
vt 0.140200004 0.616599977
vn 0.991697945 -0.0969851815 -0.0844337623
v -0.130594268 0.233534247 0.0309369583
vt 0.1096 0.616400003
vn -0.892007457 -0.216061401 -0.397039251
v -0.00164891954 0.111844383 -0.0139135513
vt 0.140200004 0.524299979
vn 0.223189522 -0.971220798 -0.0831660927
v -0.00164892641 0.0927169099 0.0309369769
vt 0.109499998 0.5097
vn 0.289623793 -0.870442703 -0.39805472
v -0.130594268 0.233534247 0.0309369583
vt 0.1096 0.616400003
vn -0.892007457 -0.216061401 -0.397039251
v -0.109488115 0.233534247 -0.0139135681
vt 0.140300006 0.616400003
vn -0.914437782 -0.401280348 -0.0527031811
v -0.00164891954 0.111844383 -0.0139135513
vt 0.140200004 0.524299979
vn 0.223189522 -0.971220798 -0.0831660927
v -0.130594268 0.233534247 0.0309369583
vt 0.1096 0.616400003
vn -0.892007457 -0.216061401 -0.397039251
v -0.0554036275 0.336426854 -0.0139135597
vt 0.140300006 0.683600008
vn -0.882300187 0.464145087 -0.0782030597
v -0.109488115 0.233534247 -0.0139135681
vt 0.140300006 0.616400003
vn -0.914437782 -0.401280348 -0.0527031811
v -0.130594268 0.233534247 0.0309369583
vt 0.1096 0.616400003
vn -0.892007457 -0.216061401 -0.397039251
v -0.0659567043 0.355554342 0.0309369657
vt 0.1096 0.700900018
vn -0.818319019 0.433487211 -0.377415979
v -0.0554036275 0.336426854 -0.0139135597
vt 0.140300006 0.683600008
vn -0.882300187 0.464145087 -0.0782030597
v -0.0554036275 0.336426854 -0.0139135597
vt 0.140300006 0.683600008
vn -0.882300187 0.464145087 -0.0782030597
v -0.109488085 0.233534247 -0.222336724
vt 0.291500002 0.616400003
vn -0.990936743 -0.0890314068 0.100587172
v -0.109488115 0.233534247 -0.0139135681
vt 0.140300006 0.616400003
vn -0.914437782 -0.401280348 -0.0527031811
v -0.0554036275 0.336426854 -0.0139135597
vt 0.140300006 0.683600008
vn -0.882300187 0.464145087 -0.0782030597
v -0.0554035939 0.336426854 -0.222336724
vt 0.291500002 0.683600008
vn -0.873977161 0.459695435 0.157619891
v -0.109488085 0.233534247 -0.222336724
vt 0.291500002 0.616400003
vn -0.990936743 -0.0890314068 0.100587172
v -0.0554035939 0.336426854 -0.222336724
vt 0.291500002 0.683600008
vn -0.873977161 0.459695435 0.157619891
v -0.133892074 0.233534247 -0.262900144
vt 0.320600003 0.616400003
vn -0.857204157 -0.0281174251 0.514208561
v -0.109488085 0.233534247 -0.222336724
vt 0.291500002 0.616400003
vn -0.990936743 -0.0890314068 0.100587172
v -0.0554035939 0.336426854 -0.222336724
vt 0.291500002 0.683600008
vn -0.873977161 0.459695435 0.157619891
v -0.067935355 0.358522475 -0.262900144
vt 0.320600003 0.703199983
vn -0.782264231 0.412803534 0.466536081
v -0.133892074 0.233534247 -0.262900144
vt 0.320600003 0.616400003
vn -0.857204157 -0.0281174251 0.514208561
v -0.109488085 0.233534247 -0.222336724
vt 0.291500002 0.616400003
vn -0.990936743 -0.0890314068 0.100587172
v -0.133892074 0.233534247 -0.262900144
vt 0.320600003 0.616400003
vn -0.857204157 -0.0281174251 0.514208561
v -0.00164888205 0.0894189179 -0.262900114
vt 0.320600003 0.507200003
vn -0.270815967 -0.829329353 0.488744857
v -0.109488085 0.233534247 -0.222336724
vt 0.291500002 0.616400003
vn -0.990936743 -0.0890314068 0.100587172
v -0.00164888205 0.0894189179 -0.262900114
vt 0.320600003 0.507200003
vn -0.270815967 -0.829329353 0.488744857
v -0.00164888811 0.111844383 -0.222336709
vt 0.291500002 0.524100006
vn -0.231582406 -0.967694419 0.0996850091
v -0.109488115 0.233534247 -0.0139135681
vt 0.140300006 0.616400003
vn -0.914437782 -0.401280348 -0.0527031811
v -0.109488085 0.233534247 -0.222336724
vt 0.291500002 0.616400003
vn -0.990936743 -0.0890314068 0.100587172
v -0.00164888811 0.111844383 -0.222336709
vt 0.291500002 0.524100006
vn -0.231582406 -0.967694419 0.0996850091
v -0.109488115 0.233534247 -0.0139135681
vt 0.140300006 0.616400003
vn -0.914437782 -0.401280348 -0.0527031811
v -0.00164888811 0.111844383 -0.222336709
vt 0.291500002 0.524100006
vn -0.231582406 -0.967694419 0.0996850091
v -0.00164891954 0.111844383 -0.0139135513
vt 0.140200004 0.524299979
vn 0.223189522 -0.971220798 -0.0831660927
v -0.00164888811 0.111844383 -0.222336709
vt 0.291500002 0.524100006
vn -0.231582406 -0.967694419 0.0996850091
v -0.00164888205 0.0894189179 -0.262900114
vt 0.320600003 0.507200003
vn -0.270815967 -0.829329353 0.488744857
v 0.130924076 0.233534247 -0.262900114
vt 0.320499986 0.616599977
vn 0.848117198 -0.206788677 0.487786491
v -0.00164888811 0.111844383 -0.222336709
vt 0.291500002 0.524100006
vn -0.231582406 -0.967694419 0.0996850091
v 0.130924076 0.233534247 -0.262900114
vt 0.320499986 0.616599977
vn 0.848117198 -0.206788677 0.487786491
v 0.106190316 0.233534247 -0.222336695
vt 0.291399986 0.616599977
vn 0.912790419 -0.403636377 0.062380494
v -0.00164891954 0.111844383 -0.0139135513
vt 0.140200004 0.524299979
vn 0.223189522 -0.971220798 -0.0831660927
v -0.00164888811 0.111844383 -0.222336709
vt 0.291500002 0.524100006
vn -0.231582406 -0.967694419 0.0996850091
v 0.106190316 0.233534247 -0.222336695
vt 0.291399986 0.616599977
vn 0.912790419 -0.403636377 0.062380494
v -0.00164891954 0.111844383 -0.0139135513
vt 0.140200004 0.524299979
vn 0.223189522 -0.971220798 -0.0831660927
v 0.106190316 0.233534247 -0.222336695
vt 0.291399986 0.616599977
vn 0.912790419 -0.403636377 0.062380494
v 0.106190287 0.233534247 -0.0139135355
vt 0.140200004 0.616599977
vn 0.991697945 -0.0969851815 -0.0844337623
v 0.0524356067 0.336426854 -0.222336695
vt 0.291399986 0.683799982
vn 0.882157754 0.461548481 0.0936520021
v 0.106190316 0.233534247 -0.222336695
vt 0.291399986 0.616599977
vn 0.912790419 -0.403636377 0.062380494
v 0.130924076 0.233534247 -0.262900114
vt 0.320499986 0.616599977
vn 0.848117198 -0.206788677 0.487786491
v 0.0524356067 0.336426854 -0.222336695
vt 0.291399986 0.683799982
vn 0.882157754 0.461548481 0.0936520021
v 0.130924076 0.233534247 -0.262900114
vt 0.320499986 0.616599977
vn 0.848117198 -0.206788677 0.487786491
v 0.0646376088 0.358522475 -0.262900114
vt 0.320499986 0.703400016
vn 0.783498931 0.41552214 0.462028977
v 0.106190287 0.233534247 -0.0139135355
vt 0.140200004 0.616599977
vn 0.991697945 -0.0969851815 -0.0844337623
v 0.106190316 0.233534247 -0.222336695
vt 0.291399986 0.616599977
vn 0.912790419 -0.403636377 0.062380494
v 0.0524356067 0.336426854 -0.222336695
vt 0.291399986 0.683799982
vn 0.882157754 0.461548481 0.0936520021
v 0.106190287 0.233534247 -0.0139135355
vt 0.140200004 0.616599977
vn 0.991697945 -0.0969851815 -0.0844337623
v 0.0524356067 0.336426854 -0.222336695
vt 0.291399986 0.683799982
vn 0.882157754 0.461548481 0.0936520021
v 0.0524355732 0.336426854 -0.013913543
vt 0.140200004 0.683799982
vn 0.878448456 0.459632253 -0.130638826
v 0.127296403 0.233534247 0.0309369955
vt 0.376700014 0.60650003
vn -1.49895019e-07 1.17682898e-10 1
v -0.130594268 0.233534247 0.0309369583
vt 0.375099987 0.701600015
vn -1.44452309e-07 7.17730275e-09 1
v -0.00164892641 0.0927169099 0.0309369769
vt 0.427700013 0.655900002
vn -1.44452309e-07 -6.67044268e-15 1
v -0.0659567043 0.355554342 0.0309369657
vt 0.333200008 0.674799979
vn -1.5408246e-07 2.08229357e-10 1
v -0.130594268 0.233534247 0.0309369583
vt 0.375099987 0.701600015
vn -1.44452309e-07 7.17730275e-09 1
v 0.127296403 0.233534247 0.0309369955
vt 0.376700014 0.60650003
vn -1.49895019e-07 1.17682898e-10 1
v -0.0659567043 0.355554342 0.0309369657
vt 0.333200008 0.674799979
vn -1.5408246e-07 2.08229357e-10 1
v 0.127296403 0.233534247 0.0309369955
vt 0.376700014 0.60650003
vn -1.49895019e-07 1.17682898e-10 1
v 0.0629886389 0.355554342 0.0309369881
vt 0.333000004 0.630500019
vn -1.73342761e-07 -3.02958689e-08 1
v 0.0646376088 0.358522475 -0.262900114
vt 0.334300011 0.530399978
vn 1.49990633e-07 1.97854956e-10 -1
v 0.130924076 0.233534247 -0.262900114
vt 0.376899987 0.508700013
vn 1.12539671e-07 -2.77211491e-08 -1
v -0.133892074 0.233534247 -0.262900144
vt 0.375499994 0.59829998
vn 1.33717927e-07 -4.48709884e-08 -1
v 0.0646376088 0.358522475 -0.262900114
vt 0.334300011 0.530399978
vn 1.49990633e-07 1.97854956e-10 -1
v -0.133892074 0.233534247 -0.262900144
vt 0.375499994 0.59829998
vn 1.33717927e-07 -4.48709884e-08 -1
v -0.067935355 0.358522475 -0.262900144
vt 0.333600014 0.575200021
vn 2.24799397e-07 -1.18627418e-07 -1
v -0.133892074 0.233534247 -0.262900144
vt 0.375499994 0.59829998
vn 1.33717927e-07 -4.48709884e-08 -1
v 0.130924076 0.233534247 -0.262900114
vt 0.376899987 0.508700013
vn 1.12539671e-07 -2.77211491e-08 -1
v -0.00164888205 0.0894189179 -0.262900114
vt 0.424899995 0.55430001
vn 1.12539671e-07 -1.03526232e-07 -1
v 0.107509263 0.388862491 1.01105356
vt 0.212099999 0.706700027
vn 0 0.964361083 -0.264589687
v 0.0464993566 0.313671947 0.737003446
vt 0.0412000008 0.730400026
vn 0 0.99947631 -0.0323590092
v -0.0494676381 0.313671947 0.737003446
vt 0.0399000011 0.786499977
vn 0 0.974482923 -0.224461651
v 0.107509263 0.388862491 1.01105356
vt 0.212099999 0.706700027
vn 0 0.964361083 -0.264589687
v -0.0494676381 0.313671947 0.737003446
vt 0.0399000011 0.786499977
vn 0 0.974482923 -0.224461651
v -0.110477626 0.388862491 1.01105356
vt 0.209600002 0.817799985
vn 0 0.964361083 -0.264589687
v 0.0464993566 0.313671947 0.737003446
vt 0.0412000008 0.730400026
vn 0 0.99947631 -0.0323590092
v -0.0652972311 0.340384126 0.681599796
vt 0.00860000029 0.793600023
vn 0 0.900770557 0.434295296
v -0.0494676381 0.313671947 0.737003446
vt 0.0399000011 0.786499977
vn 0 0.974482923 -0.224461651
v 0.0464993566 0.313671947 0.737003446
vt 0.0412000008 0.730400026
vn 0 0.99947631 -0.0323590092
v 0.0619991869 0.340384126 0.681599796
vt 0.0102000004 0.721899986
vn 0 0.900770557 0.434295296
v -0.0652972311 0.340384126 0.681599796
vt 0.00860000029 0.793600023
vn 0 0.900770557 0.434295296
v 0.107509263 0.388862491 1.01105356
vt 0.0103000002 0.983799994
vn 0.851402593 0.432352325 -0.296959748
v 0.188306227 0.222651541 1.01105356
vt 0.0103000002 0.892099977
vn 0.900833296 -0.300580432 -0.313290243
v 0.0943179727 0.226608813 0.737003446
vt 0.165999994 0.89200002
vn 0.935840166 -0.288458282 -0.202472227
v 0.107509263 0.388862491 1.01105356
vt 0.0103000002 0.983799994
vn 0.851402593 0.432352325 -0.296959748
v 0.0943179727 0.226608813 0.737003446
vt 0.165999994 0.89200002
vn 0.935840166 -0.288458282 -0.202472227
v 0.0464993566 0.313671947 0.737003446
vt 0.165999994 0.943799973
vn 0.860788038 0.47277982 -0.188475981
v -0.00164907437 0.0617172271 1.01105356
vt 0.0103000002 0.800999999
vn 0.639780524 -0.73663999 -0.21918578
v 0.0943179727 0.226608813 0.737003446
vt 0.165999994 0.89200002
vn 0.935840166 -0.288458282 -0.202472227
v 0.188306227 0.222651541 1.01105356
vt 0.0103000002 0.892099977
vn 0.900833296 -0.300580432 -0.313290243
v -0.00164907437 0.0617172271 1.01105356
vt 0.0103000002 0.800999999
vn 0.639780524 -0.73663999 -0.21918578
v -0.00164903293 0.139216229 0.737003446
vt 0.165999994 0.840300024
vn 0.669565192 -0.735258806 -0.105247052
v 0.0943179727 0.226608813 0.737003446
vt 0.165999994 0.89200002
vn 0.935840166 -0.288458282 -0.202472227
v 0.0943179727 0.226608813 0.737003446
vt 0.165999994 0.89200002
vn 0.935840166 -0.288458282 -0.202472227
v 0.0619991869 0.340384126 0.681599796
vt 0.197600007 0.958199978
vn 0.790718024 0.434572998 0.431174345
v 0.0464993566 0.313671947 0.737003446
vt 0.165999994 0.943799973
vn 0.860788038 0.47277982 -0.188475981
v 0.0943179727 0.226608813 0.737003446
vt 0.165999994 0.89200002
vn 0.935840166 -0.288458282 -0.202472227
v 0.125647396 0.224630177 0.681599796
vt 0.197600007 0.89200002
vn 0.843184257 -0.23181572 0.485079149
v 0.0619991869 0.340384126 0.681599796
vt 0.197600007 0.958199978
vn 0.790718024 0.434572998 0.431174345
v 0.0943179727 0.226608813 0.737003446
vt 0.165999994 0.89200002
vn 0.935840166 -0.288458282 -0.202472227
v -0.00164903293 0.139216229 0.737003446
vt 0.165999994 0.840300024
vn 0.669565192 -0.735258806 -0.105247052
v -0.00164902466 0.108876228 0.681599796
vt 0.197600007 0.825900018
vn 0.623562949 -0.685312218 0.376186672
v 0.0943179727 0.226608813 0.737003446
vt 0.165999994 0.89200002
vn 0.935840166 -0.288458282 -0.202472227
v -0.00164902466 0.108876228 0.681599796
vt 0.197600007 0.825900018
vn 0.623562949 -0.685312218 0.376186672
v 0.125647396 0.224630177 0.681599796
vt 0.197600007 0.89200002
vn 0.843184257 -0.23181572 0.485079149
v -0.00164907437 0.0617172271 1.01105356
vt 0.0104 0.801299989
vn -0.640144724 -0.736209162 -0.219569582
v -0.191604376 0.222651541 1.01105356
vt 0.0103000002 0.89200002
vn -0.900775973 -0.29965326 -0.314341485
v -0.0972862393 0.226608813 0.737003446
vt 0.166099995 0.89200002
vn -0.936169539 -0.287394966 -0.202461667
v -0.00164907437 0.0617172271 1.01105356
vt 0.0104 0.801299989
vn -0.640144724 -0.736209162 -0.219569582
v -0.0972862393 0.226608813 0.737003446
vt 0.166099995 0.89200002
vn -0.936169539 -0.287394966 -0.202461667
v -0.00164903293 0.139216229 0.737003446
vt 0.166099995 0.840200007
vn -0.670836039 -0.734122761 -0.105084637
v -0.110477626 0.388862491 1.01105356
vt 0.0104 0.983799994
vn -0.850828387 0.433168539 -0.297415656
v -0.0972862393 0.226608813 0.737003446
vt 0.166099995 0.89200002
vn -0.936169539 -0.287394966 -0.202461667
v -0.191604376 0.222651541 1.01105356
vt 0.0103000002 0.89200002
vn -0.900775973 -0.29965326 -0.314341485
v -0.110477626 0.388862491 1.01105356
vt 0.0104 0.983799994
vn -0.850828387 0.433168539 -0.297415656
v -0.0494676381 0.313671947 0.737003446
vt 0.166099995 0.943700016
vn -0.860927565 0.472856306 -0.187644989
v -0.0972862393 0.226608813 0.737003446
vt 0.166099995 0.89200002
vn -0.936169539 -0.287394966 -0.202461667
v -0.0972862393 0.226608813 0.737003446
vt 0.166099995 0.89200002
vn -0.936169539 -0.287394966 -0.202461667
v -0.0494676381 0.313671947 0.737003446
vt 0.166099995 0.943700016
vn -0.860927565 0.472856306 -0.187644989
v -0.0652972311 0.340384126 0.681599796
vt 0.197699994 0.958199978
vn -0.789109603 0.433688964 0.434994158
v -0.0972862393 0.226608813 0.737003446
vt 0.166099995 0.89200002
vn -0.936169539 -0.287394966 -0.202461667
v -0.0652972311 0.340384126 0.681599796
vt 0.197699994 0.958199978
vn -0.789109603 0.433688964 0.434994158
v -0.12894544 0.224630177 0.681599796
vt 0.197699994 0.89200002
vn -0.841128414 -0.231250491 0.488903059
v -0.0972862393 0.226608813 0.737003446
vt 0.166099995 0.89200002
vn -0.936169539 -0.287394966 -0.202461667
v -0.12894544 0.224630177 0.681599796
vt 0.197699994 0.89200002
vn -0.841128414 -0.231250491 0.488903059
v -0.00164902466 0.108876228 0.681599796
vt 0.197699994 0.825800002
vn -0.623628446 -0.684371752 0.3777868
v -0.0972862393 0.226608813 0.737003446
vt 0.166099995 0.89200002
vn -0.936169539 -0.287394966 -0.202461667
v -0.00164902466 0.108876228 0.681599796
vt 0.197699994 0.825800002
vn -0.623628446 -0.684371752 0.3777868
v -0.00164903293 0.139216229 0.737003446
vt 0.166099995 0.840200007
vn -0.670836039 -0.734122761 -0.105084637
v 0.0619991869 0.340384126 0.681599796
vt 0.531099975 0.7051
vn 0 9.59123241e-16 -1
v 0.125647396 0.224630177 0.681599796
vt 0.504700005 0.656099975
vn 0 4.79561621e-16 -1
v -0.12894544 0.224630177 0.681599796
vt 0.611899972 0.656799972
vn 0 5.75473945e-16 -1
v 0.0619991869 0.340384126 0.681599796
vt 0.531099975 0.7051
vn 0 9.59123241e-16 -1
v -0.12894544 0.224630177 0.681599796
vt 0.611899972 0.656799972
vn 0 5.75473945e-16 -1
v -0.0652972311 0.340384126 0.681599796
vt 0.584800005 0.70539999
vn 0 9.59123241e-16 -1
v -0.12894544 0.224630177 0.681599796
vt 0.611899972 0.656799972
vn 0 5.75473945e-16 -1
v 0.125647396 0.224630177 0.681599796
vt 0.504700005 0.656099975
vn 0 4.79561621e-16 -1
v -0.00164902466 0.108876228 0.681599796
vt 0.558600008 0.60769999
vn 0 0 -1
v -0.110477626 0.388862491 1.01105356
vt 0.621699989 0.655200005
vn 0 0 1
v -0.191604376 0.222651541 1.01105356
vt 0.597899973 0.602699995
vn 0 0 1
v 0.188306227 0.222651541 1.01105356
vt 0.709500015 0.602699995
vn 0 0 1
v -0.110477626 0.388862491 1.01105356
vt 0.621699989 0.655200005
vn 0 0 1
v 0.188306227 0.222651541 1.01105356
vt 0.709500015 0.602699995
vn 0 0 1
v 0.107509263 0.388862491 1.01105356
vt 0.685699999 0.655200005
vn 0 0 1
v 0.188306227 0.222651541 1.01105356
vt 0.709500015 0.602699995
vn 0 0 1
v -0.191604376 0.222651541 1.01105356
vt 0.597899973 0.602699995
vn 0 0 1
v -0.00164907437 0.0617172271 1.01105356
vt 0.653699994 0.551900029
vn 0 0 1
v 0.180061802 0.251012921 -0.165613949
vt 0.415899992 0.758599997
vn 1.76107843e-08 -0.996468133 -0.083971776
v 0.118392281 0.251012921 -0.165613964
vt 0.416099995 0.720899999
vn 1.82011186e-08 -0.997158913 -0.0753266307
v 0.114764698 0.250023782 -0.336771667
vt 0.520799994 0.718999982
vn -6.57739973e-10 -0.999983301 0.00577901259
v 0.180061802 0.251012921 -0.165613949
vt 0.415899992 0.758599997
vn 1.76107843e-08 -0.996468133 -0.083971776
v 0.114764698 0.250023782 -0.336771667
vt 0.520799994 0.718999982
vn -6.57739973e-10 -0.999983301 0.00577901259
v 0.184019253 0.250023782 -0.336771667
vt 0.520600021 0.761300027
vn 0 -0.999983301 0.00577901234
v 0.180061802 0.251012921 -0.165613949
vt 0.415899992 0.758599997
vn 1.76107843e-08 -0.996468133 -0.083971776
v 0.107179649 0.236172557 -0.15341191
vt 0.404399991 0.713800013
vn 4.86636845e-08 -0.971336202 -0.23770987
v 0.118392281 0.251012921 -0.165613964
vt 0.416099995 0.720899999
vn 1.82011186e-08 -0.997158913 -0.0753266307
v 0.180061802 0.251012921 -0.165613949
vt 0.415899992 0.758599997
vn 1.76107843e-08 -0.996468133 -0.083971776
v 0.191604227 0.236172557 -0.153411895
vt 0.404199988 0.765600026
vn 1.39406397e-08 -0.996861666 -0.0791632423
v 0.107179649 0.236172557 -0.15341191
vt 0.404399991 0.713800013
vn 4.86636845e-08 -0.971336202 -0.23770987
v 0.191604227 0.236172557 -0.153411895
vt 0.404199988 0.765600026
vn 1.39406397e-08 -0.996861666 -0.0791632423
v 0.109158345 0.236832231 -0.0722852647
vt 0.354799986 0.714900017
vn -1.67936168e-08 -0.99586289 0.0908686133
v 0.107179649 0.236172557 -0.15341191
vt 0.404399991 0.713800013
vn 4.86636845e-08 -0.971336202 -0.23770987
v 0.191604227 0.236172557 -0.153411895
vt 0.404199988 0.765600026
vn 1.39406397e-08 -0.996861666 -0.0791632423
v 0.189625517 0.236832231 -0.0722852498
vt 0.354600012 0.763999999
vn -4.09417588e-08 -0.96783252 0.251595337
v 0.109158345 0.236832231 -0.0722852647
vt 0.354799986 0.714900017
vn -1.67936168e-08 -0.99586289 0.0908686133
v 0.120700769 0.251672596 -0.0610725358
vt 0.343499988 0.721899986
vn -3.58222967e-08 -0.974843789 0.222889181
v 0.109158345 0.236832231 -0.0722852647
vt 0.354799986 0.714900017
vn -1.67936168e-08 -0.99586289 0.0908686133
v 0.189625517 0.236832231 -0.0722852498
vt 0.354600012 0.763999999
vn -4.09417588e-08 -0.96783252 0.251595337
v 0.120700769 0.251672596 -0.0610725358
vt 0.343499988 0.721899986
vn -3.58222967e-08 -0.974843789 0.222889181
v 0.189625517 0.236832231 -0.0722852498
vt 0.354600012 0.763999999
vn -4.09417588e-08 -0.96783252 0.251595337
v 0.178083107 0.251672596 -0.0610725284
vt 0.343300015 0.757000029
vn -8.71844523e-09 -0.997785382 0.0665156537
v 0.178083107 0.251672596 -0.0610725284
vt 0.343300015 0.757000029
vn -8.71844523e-09 -0.997785382 0.0665156537
v 0.123668797 0.253321379 0.0751280487
vt 0.25999999 0.723399997
vn 6.5719548e-09 -0.998996084 -0.0447975942
v 0.120700769 0.251672596 -0.0610725358
vt 0.343499988 0.721899986
vn -3.58222967e-08 -0.974843789 0.222889181
v 0.178083107 0.251672596 -0.0610725284
vt 0.343300015 0.757000029
vn -8.71844523e-09 -0.997785382 0.0665156537
v 0.175115034 0.253321379 0.0751280561
vt 0.259900004 0.754800022
vn 3.16775652e-08 -0.981913039 -0.189332471
v 0.123668797 0.253321379 0.0751280487
vt 0.25999999 0.723399997
vn 6.5719548e-09 -0.998996084 -0.0447975942
v 0.175115034 0.253321379 0.0751280561
vt 0.259900004 0.754800022
vn 3.16775652e-08 -0.981913039 -0.189332471
v 0.107839182 0.235183433 0.113712631
vt 0.233999997 0.713699996
vn 7.08448648e-08 -0.904994886 -0.425422445
v 0.123668797 0.253321379 0.0751280487
vt 0.25999999 0.723399997
vn 6.5719548e-09 -0.998996084 -0.0447975942
v 0.175115034 0.253321379 0.0751280561
vt 0.259900004 0.754800022
vn 3.16775652e-08 -0.981913039 -0.189332471
v 0.190614849 0.235183433 0.113712646
vt 0.233799994 0.764299989
vn 7.65839589e-08 -0.90499489 -0.425422437
v 0.107839182 0.235183433 0.113712631
vt 0.233999997 0.713699996
vn 7.08448648e-08 -0.904994886 -0.425422445
v 0.165881082 0.296523094 0.0751280487
vt 0.251800001 0.859700024
vn -1.4296928e-09 0.998973856 -0.0452905556
v 0.165881097 0.29850173 -0.0610725284
vt 0.331 0.859600008
vn -3.72224389e-08 0.975661963 0.219280036
v 0.132572964 0.29850173 -0.0610725358
vt 0.331 0.889699996
vn -1.19995429e-08 0.998163821 0.0605721554
v 0.165881082 0.296523094 0.0751280487
vt 0.251800001 0.859700024
vn -1.4296928e-09 0.998973856 -0.0452905556
v 0.132572964 0.29850173 -0.0610725358
vt 0.331 0.889699996
vn -1.19995429e-08 0.998163821 0.0605721554
v 0.132902727 0.296523094 0.0751280487
vt 0.251800001 0.889500022
vn 3.44487247e-08 0.982819383 -0.184569934
v 0.132902727 0.296523094 0.0751280487
vt 0.251800001 0.889500022
vn 3.44487247e-08 0.982819383 -0.184569934
v 0.174455449 0.314661086 0.113712646
vt 0.2271 0.851800025
vn 7.59787118e-08 0.904994498 -0.42542327
v 0.165881082 0.296523094 0.0751280487
vt 0.251800001 0.859700024
vn -1.4296928e-09 0.998973856 -0.0452905556
v 0.132902727 0.296523094 0.0751280487
vt 0.251800001 0.889500022
vn 3.44487247e-08 0.982819383 -0.184569934
v 0.123998582 0.314661086 0.113712631
vt 0.2271 0.897499979
vn 1.25638031e-07 0.904994477 -0.425423314
v 0.174455449 0.314661086 0.113712646
vt 0.2271 0.851800025
vn 7.59787118e-08 0.904994498 -0.42542327
v 0.165881097 0.29850173 -0.0610725284
vt 0.331 0.859600008
vn -3.72224389e-08 0.975661963 0.219280036
v 0.121360324 0.311692923 -0.0722852647
vt 0.341100007 0.900099993
vn -3.58669357e-08 0.976150285 0.217095881
v 0.132572964 0.29850173 -0.0610725358
vt 0.331 0.889699996
vn -1.19995429e-08 0.998163821 0.0605721554
v 0.165881097 0.29850173 -0.0610725284
vt 0.331 0.859600008
vn -3.72224389e-08 0.975661963 0.219280036
v 0.177423522 0.311692923 -0.0722852573
vt 0.341100007 0.84920001
vn -1.22662316e-08 0.996233243 0.0867140425
v 0.121360324 0.311692923 -0.0722852647
vt 0.341100007 0.900099993
vn -3.58669357e-08 0.976150285 0.217095881
v 0.177423522 0.311692923 -0.0722852573
vt 0.341100007 0.84920001
vn -1.22662316e-08 0.996233243 0.0867140425
v 0.121030569 0.31268245 -0.15341191
vt 0.388200015 0.900200009
vn 1.76875412e-08 0.997914471 -0.0645500514
v 0.121360324 0.311692923 -0.0722852647
vt 0.341100007 0.900099993
vn -3.58669357e-08 0.976150285 0.217095881
v 0.177423522 0.311692923 -0.0722852573
vt 0.341100007 0.84920001
vn -1.22662316e-08 0.996233243 0.0867140425
v 0.177753329 0.31268245 -0.153411895
vt 0.388200015 0.848999977
vn 6.50555251e-08 0.980746589 -0.195284738
v 0.121030569 0.31268245 -0.15341191
vt 0.388200015 0.900200009
vn 1.76875412e-08 0.997914471 -0.0645500514
v 0.132572979 0.299491286 -0.165613964
vt 0.398699999 0.889900029
vn 1.13421496e-07 0.939008422 -0.343894145
v 0.121030569 0.31268245 -0.15341191
vt 0.388200015 0.900200009
vn 1.76875412e-08 0.997914471 -0.0645500514
v 0.177753329 0.31268245 -0.153411895
vt 0.388200015 0.848999977
vn 6.50555251e-08 0.980746589 -0.195284738
v 0.132572979 0.299491286 -0.165613964
vt 0.398699999 0.889900029
vn 1.13421496e-07 0.939008422 -0.343894145
v 0.177753329 0.31268245 -0.153411895
vt 0.388200015 0.848999977
vn 6.50555251e-08 0.980746589 -0.195284738
v 0.166210905 0.299491286 -0.165613949
vt 0.398699999 0.859399974
vn 4.15088832e-08 0.995600263 -0.0937022774
v 0.166210905 0.299491286 -0.165613949
vt 0.398699999 0.859399974
vn 4.15088832e-08 0.995600263 -0.0937022774
v 0.132572994 0.299491286 -0.229591951
vt 0.435799986 0.889999986
vn -5.43188269e-08 0.992453758 0.122619483
v 0.132572979 0.299491286 -0.165613964
vt 0.398699999 0.889900029
vn 1.13421496e-07 0.939008422 -0.343894145
v 0.166210905 0.299491286 -0.165613949
vt 0.398699999 0.859399974
vn 4.15088832e-08 0.995600263 -0.0937022774
v 0.16621092 0.299491286 -0.229591936
vt 0.435799986 0.859300017
vn -5.54962714e-08 0.958543936 0.284944773
v 0.132572994 0.299491286 -0.229591951
vt 0.435799986 0.889999986
vn -5.43188269e-08 0.992453758 0.122619483
v 0.16621092 0.299491286 -0.229591936
vt 0.435799986 0.859300017
vn -5.54962714e-08 0.958543936 0.284944773
v 0.127956033 0.32059738 -0.272463828
vt 0.463699996 0.89410001
vn -2.24723427e-07 0.550102861 0.835096906
v 0.132572994 0.299491286 -0.229591951
vt 0.435799986 0.889999986
vn -5.43188269e-08 0.992453758 0.122619483
v 0.16621092 0.299491286 -0.229591936
vt 0.435799986 0.859300017
vn -5.54962714e-08 0.958543936 0.284944773
v 0.170827895 0.32059738 -0.272463828
vt 0.463699996 0.855199993
vn 0 0.611314531 0.791387733
v 0.127956033 0.32059738 -0.272463828
vt 0.463699996 0.89410001
vn -2.24723427e-07 0.550102861 0.835096906
v 0.176763996 0.354564816 -0.272133976
vt 0.483399987 0.850000024
vn -3.05287449e-07 -0.00970993689 0.999952857
v 0.127956033 0.32059738 -0.272463828
vt 0.463699996 0.89410001
vn -2.24723427e-07 0.550102861 0.835096906
v 0.170827895 0.32059738 -0.272463828
vt 0.463699996 0.855199993
vn 0 0.611314531 0.791387733
v 0.176763996 0.354564816 -0.272133976
vt 0.483399987 0.850000024
vn -3.05287449e-07 -0.00970993689 0.999952857
v 0.122019932 0.354564816 -0.272134006
vt 0.483399987 0.899299979
vn -5.44368008e-07 -0.00970959339 0.999952861
v 0.127956033 0.32059738 -0.272463828
vt 0.463699996 0.89410001
vn -2.24723427e-07 0.550102861 0.835096906
v 0.114764698 0.250023782 -0.336771667
vt 0.260600001 0.902199984
vn 0 0.0094349632 -0.99995549
v 0.120700806 0.354894638 -0.33578217
vt 0.254599988 0.991599977
vn 0 0.0094349632 -0.99995549
v 0.178083152 0.354894638 -0.33578217
vt 0.205599993 0.991100013
vn 0 0.0094349632 -0.99995549
v 0.114764698 0.250023782 -0.336771667
vt 0.260600001 0.902199984
vn 0 0.0094349632 -0.99995549
v 0.178083152 0.354894638 -0.33578217
vt 0.205599993 0.991100013
vn 0 0.0094349632 -0.99995549
v 0.184019253 0.250023782 -0.336771667
vt 0.2016 0.901600003
vn 0 0.0094349632 -0.99995549
v 0.123998582 0.314661086 0.113712631
vt 0.539099991 0.772899985
vn -2.23686524e-07 -1.74612451e-16 1
v 0.107839182 0.235183433 0.113712631
vt 0.526600003 0.711099982
vn -1.80018618e-07 3.66013941e-08 1
v 0.190614849 0.235183433 0.113712646
vt 0.590900004 0.711099982
vn -2.23686524e-07 -1.74612451e-16 1
v 0.123998582 0.314661086 0.113712631
vt 0.539099991 0.772899985
vn -2.23686524e-07 -1.74612451e-16 1
v 0.190614849 0.235183433 0.113712646
vt 0.590900004 0.711099982
vn -2.23686524e-07 -1.74612451e-16 1
v 0.174455449 0.314661086 0.113712646
vt 0.578400016 0.772899985
vn -2.95324744e-07 -6.00454417e-08 1
v 0.176763996 0.354564816 -0.272133976
vt 0.483399987 0.850000024
vn -1.37730586e-09 0.999986574 0.00518189016
v 0.178083152 0.354894638 -0.33578217
vt 0.520299971 0.84859997
vn 0 0.999986574 0.00518188895
v 0.120700806 0.354894638 -0.33578217
vt 0.520299971 0.900699973
vn -1.37730586e-09 0.999986574 0.00518189016
v 0.176763996 0.354564816 -0.272133976
vt 0.483399987 0.850000024
vn -1.37730586e-09 0.999986574 0.00518189016
v 0.120700806 0.354894638 -0.33578217
vt 0.520299971 0.900699973
vn -1.37730586e-09 0.999986574 0.00518189016
v 0.122019932 0.354564816 -0.272134006
vt 0.483399987 0.899299979
vn -2.8209889e-09 0.999986574 0.00518189144
v 0.170827895 0.32059738 -0.272463828
vt 0.527100027 0.844699979
vn 0.992462909 0.0194494757 0.120992114
v 0.184019253 0.250023782 -0.336771667
vt 0.579100013 0.78579998
vn 0.982329764 0.164980615 0.0883721141
v 0.178083152 0.354894638 -0.33578217
vt 0.578100026 0.871500015
vn 0.993564415 -0.00107631626 0.113263384
v 0.170827895 0.32059738 -0.272463828
vt 0.527100027 0.844699979
vn 0.992462909 0.0194494757 0.120992114
v 0.178083152 0.354894638 -0.33578217
vt 0.578100026 0.871500015
vn 0.993564415 -0.00107631626 0.113263384
v 0.176763996 0.354564816 -0.272133976
vt 0.526799977 0.871399999
vn 0.984850992 -0.172300715 0.0195188977
v 0.16621092 0.299491286 -0.229591936
vt 0.494700015 0.828000009
vn 0.971603136 0.231701652 0.0479759359
v 0.184019253 0.250023782 -0.336771667
vt 0.579100013 0.78579998
vn 0.982329764 0.164980615 0.0883721141
v 0.170827895 0.32059738 -0.272463828
vt 0.527100027 0.844699979
vn 0.992462909 0.0194494757 0.120992114
v 0.16621092 0.299491286 -0.229591936
vt 0.494700015 0.828000009
vn 0.971603136 0.231701652 0.0479759359
v 0.180061802 0.251012921 -0.165613949
vt 0.446500003 0.786499977
vn 0.954796393 0.282897535 -0.0912843458
v 0.184019253 0.250023782 -0.336771667
vt 0.579100013 0.78579998
vn 0.982329764 0.164980615 0.0883721141
v 0.16621092 0.299491286 -0.229591936
vt 0.494700015 0.828000009
vn 0.971603136 0.231701652 0.0479759359
v 0.166210905 0.299491286 -0.165613949
vt 0.4463 0.827600002
vn 0.944056779 0.269729265 -0.189744358
v 0.180061802 0.251012921 -0.165613949
vt 0.446500003 0.786499977
vn 0.954796393 0.282897535 -0.0912843458
v 0.180061802 0.251012921 -0.165613949
vt 0.446500003 0.786499977
vn 0.954796393 0.282897535 -0.0912843458
v 0.166210905 0.299491286 -0.165613949
vt 0.4463 0.827600002
vn 0.944056779 0.269729265 -0.189744358
v 0.177753329 0.31268245 -0.153411895
vt 0.437099993 0.836899996
vn 0.980762527 0.174167871 -0.0881499812
v 0.180061802 0.251012921 -0.165613949
vt 0.446500003 0.786499977
vn 0.954796393 0.282897535 -0.0912843458
v 0.177753329 0.31268245 -0.153411895
vt 0.437099993 0.836899996
vn 0.980762527 0.174167871 -0.0881499812
v 0.191604227 0.236172557 -0.153411895
vt 0.437299997 0.772899985
vn 0.981339 0.177655796 -0.0735675527
v 0.177753329 0.31268245 -0.153411895
vt 0.437099993 0.836899996
vn 0.980762527 0.174167871 -0.0881499812
v 0.189625517 0.236832231 -0.0722852498
vt 0.375999987 0.773599982
vn 0.983545451 0.168707541 0.0646228344
v 0.191604227 0.236172557 -0.153411895
vt 0.437299997 0.772899985
vn 0.981339 0.177655796 -0.0735675527
v 0.177753329 0.31268245 -0.153411895
vt 0.437099993 0.836899996
vn 0.980762527 0.174167871 -0.0881499812
v 0.177423522 0.311692923 -0.0722852573
vt 0.375800014 0.835799992
vn 0.968832835 0.164589329 0.185130467
v 0.189625517 0.236832231 -0.0722852498
vt 0.375999987 0.773599982
vn 0.983545451 0.168707541 0.0646228344
v 0.178083107 0.251672596 -0.0610725284
vt 0.367500007 0.787100017
vn 0.953378786 0.238332236 0.185112495
v 0.189625517 0.236832231 -0.0722852498
vt 0.375999987 0.773599982
vn 0.983545451 0.168707541 0.0646228344
v 0.177423522 0.311692923 -0.0722852573
vt 0.375800014 0.835799992
vn 0.968832835 0.164589329 0.185130467
v 0.178083107 0.251672596 -0.0610725284
vt 0.367500007 0.787100017
vn 0.953378786 0.238332236 0.185112495
v 0.177423522 0.311692923 -0.0722852573
vt 0.375800014 0.835799992
vn 0.968832835 0.164589329 0.185130467
v 0.165881097 0.29850173 -0.0610725284
vt 0.367399991 0.826499999
vn 0.970630978 0.231998627 0.0636564375
v 0.165881097 0.29850173 -0.0610725284
vt 0.367399991 0.826499999
vn 0.970630978 0.231998627 0.0636564375
v 0.175115034 0.253321379 0.0751280561
vt 0.264400005 0.788200021
vn 0.971812569 0.222965183 -0.0765954206
v 0.178083107 0.251672596 -0.0610725284
vt 0.367500007 0.787100017
vn 0.953378786 0.238332236 0.185112495
v 0.165881097 0.29850173 -0.0610725284
vt 0.367399991 0.826499999
vn 0.970630978 0.231998627 0.0636564375
v 0.165881082 0.296523094 0.0751280487
vt 0.264200002 0.824599981
vn 0.975704587 0.208547472 -0.0671454376
v 0.175115034 0.253321379 0.0751280561
vt 0.264400005 0.788200021
vn 0.971812569 0.222965183 -0.0765954206
v 0.175115034 0.253321379 0.0751280561
vt 0.264400005 0.788200021
vn 0.971812569 0.222965183 -0.0765954206
v 0.165881082 0.296523094 0.0751280487
vt 0.264200002 0.824599981
vn 0.975704587 0.208547472 -0.0671454376
v 0.174455449 0.314661086 0.113712646
vt 0.234999999 0.837800026
vn 0.936516932 0.193849237 -0.292161787
v 0.175115034 0.253321379 0.0751280561
vt 0.264400005 0.788200021
vn 0.971812569 0.222965183 -0.0765954206
v 0.174455449 0.314661086 0.113712646
vt 0.234999999 0.837800026
vn 0.936516932 0.193849237 -0.292161787
v 0.190614849 0.235183433 0.113712646
vt 0.235300004 0.771200001
vn 0.938623225 0.190840921 -0.287343321
v 0.127956033 0.32059738 -0.272463828
vt 0.527100027 0.844699979
vn -0.992462955 0.0194495195 0.120991733
v 0.122019932 0.354564816 -0.272134006
vt 0.526799977 0.871399999
vn -0.984851004 -0.172300695 0.019518446
v 0.120700806 0.354894638 -0.33578217
vt 0.578100026 0.871500015
vn -0.993564463 -0.00107623466 0.113262966
v 0.127956033 0.32059738 -0.272463828
vt 0.527100027 0.844699979
vn -0.992462955 0.0194495195 0.120991733
v 0.120700806 0.354894638 -0.33578217
vt 0.578100026 0.871500015
vn -0.993564463 -0.00107623466 0.113262966
v 0.114764698 0.250023782 -0.336771667
vt 0.579100013 0.78579998
vn -0.982109795 0.166731548 0.0875268006
v 0.132572994 0.299491286 -0.229591951
vt 0.494700015 0.828000009
vn -0.970865094 0.234984365 0.0469395018
v 0.127956033 0.32059738 -0.272463828
vt 0.527100027 0.844699979
vn -0.992462955 0.0194495195 0.120991733
v 0.114764698 0.250023782 -0.336771667
vt 0.579100013 0.78579998
vn -0.982109795 0.166731548 0.0875268006
v 0.132572994 0.299491286 -0.229591951
vt 0.494700015 0.828000009
vn -0.970865094 0.234984365 0.0469395018
v 0.114764698 0.250023782 -0.336771667
vt 0.579100013 0.78579998
vn -0.982109795 0.166731548 0.0875268006
v 0.118392281 0.251012921 -0.165613964
vt 0.446500003 0.786499977
vn -0.953617477 0.286988558 -0.090836529
v 0.132572994 0.299491286 -0.229591951
vt 0.494700015 0.828000009
vn -0.970865094 0.234984365 0.0469395018
v 0.118392281 0.251012921 -0.165613964
vt 0.446500003 0.786499977
vn -0.953617477 0.286988558 -0.090836529
v 0.132572979 0.299491286 -0.165613964
vt 0.4463 0.827600002
vn -0.94220752 0.275610777 -0.190482781
v 0.118392281 0.251012921 -0.165613964
vt 0.446500003 0.786499977
vn -0.953617477 0.286988558 -0.090836529
v 0.121030569 0.31268245 -0.15341191
vt 0.437099993 0.836899996
vn -0.980840802 0.174467747 -0.0866736755
v 0.132572979 0.299491286 -0.165613964
vt 0.4463 0.827600002
vn -0.94220752 0.275610777 -0.190482781
v 0.118392281 0.251012921 -0.165613964
vt 0.446500003 0.786499977
vn -0.953617477 0.286988558 -0.090836529
v 0.107179649 0.236172557 -0.15341191
vt 0.437299997 0.772899985
vn -0.981583485 0.177700343 -0.0701174053
v 0.121030569 0.31268245 -0.15341191
vt 0.437099993 0.836899996
vn -0.980840802 0.174467747 -0.0866736755
v 0.109158345 0.236832231 -0.0722852647
vt 0.375999987 0.773599982
vn -0.983545465 0.16870757 0.0646225502
v 0.121030569 0.31268245 -0.15341191
vt 0.437099993 0.836899996
vn -0.980840802 0.174467747 -0.0866736755
v 0.107179649 0.236172557 -0.15341191
vt 0.437299997 0.772899985
vn -0.981583485 0.177700343 -0.0701174053
v 0.109158345 0.236832231 -0.0722852647
vt 0.375999987 0.773599982
vn -0.983545465 0.16870757 0.0646225502
v 0.121360324 0.311692923 -0.0722852647
vt 0.375800014 0.835799992
vn -0.969369319 0.164198294 0.182652795
v 0.121030569 0.31268245 -0.15341191
vt 0.437099993 0.836899996
vn -0.980840802 0.174467747 -0.0866736755
v 0.121360324 0.311692923 -0.0722852647
vt 0.375800014 0.835799992
vn -0.969369319 0.164198294 0.182652795
v 0.109158345 0.236832231 -0.0722852647
vt 0.375999987 0.773599982
vn -0.983545465 0.16870757 0.0646225502
v 0.120700769 0.251672596 -0.0610725358
vt 0.367500007 0.787100017
vn -0.955142552 0.232775395 0.183080093
v 0.121360324 0.311692923 -0.0722852647
vt 0.375800014 0.835799992
vn -0.969369319 0.164198294 0.182652795
v 0.120700769 0.251672596 -0.0610725358
vt 0.367500007 0.787100017
vn -0.955142552 0.232775395 0.183080093
v 0.132572964 0.29850173 -0.0610725358
vt 0.367399991 0.826499999
vn -0.971479981 0.228507631 0.0633317332
v 0.123668797 0.253321379 0.0751280487
vt 0.264400005 0.788200021
vn -0.972255961 0.220496959 -0.0780988971
v 0.132572964 0.29850173 -0.0610725358
vt 0.367399991 0.826499999
vn -0.971479981 0.228507631 0.0633317332
v 0.120700769 0.251672596 -0.0610725358
vt 0.367500007 0.787100017
vn -0.955142552 0.232775395 0.183080093
v 0.123668797 0.253321379 0.0751280487
vt 0.264400005 0.788200021
vn -0.972255961 0.220496959 -0.0780988971
v 0.132902727 0.296523094 0.0751280487
vt 0.264200002 0.824599981
vn -0.97570468 0.208546999 -0.0671455676
v 0.132572964 0.29850173 -0.0610725358
vt 0.367399991 0.826499999
vn -0.971479981 0.228507631 0.0633317332
v 0.123668797 0.253321379 0.0751280487
vt 0.264400005 0.788200021
vn -0.972255961 0.220496959 -0.0780988971
v 0.123998582 0.314661086 0.113712631
vt 0.234999999 0.837800026
vn -0.934304632 0.193391162 -0.299457363
v 0.132902727 0.296523094 0.0751280487
vt 0.264200002 0.824599981
vn -0.97570468 0.208546999 -0.0671455676
v 0.123668797 0.253321379 0.0751280487
vt 0.264400005 0.788200021
vn -0.972255961 0.220496959 -0.0780988971
v 0.107839182 0.235183433 0.113712631
vt 0.235300004 0.771200001
vn -0.936436848 0.190396387 -0.294678206
v 0.123998582 0.314661086 0.113712631
vt 0.234999999 0.837800026
vn -0.934304632 0.193391162 -0.299457363
v 0.0220954753 0.116131492 0.0797449723
vt 0.591899991 0.86650002
vn 0.999904174 0.0133849778 -0.00353340776
v 0.0191275086 0.139546067 -0.480227351
vt 0.87620002 0.878600001
vn 0.999983828 0.00359203805 -0.00440911274
v 0.0171488114 0.192641377 -0.479567856
vt 0.875899971 0.905499995
vn 0.998496873 0.0547924289 -0.00133568553
v 0.0220954753 0.116131492 0.0797449723
vt 0.591899991 0.86650002
vn 0.999904174 0.0133849778 -0.00353340776
v 0.0171488114 0.192641377 -0.479567856
vt 0.875899971 0.905499995
vn 0.998496873 0.0547924289 -0.00133568553
v 0.0171487052 0.192641377 0.218583852
vt 0.521300018 0.905399978
vn 0.997916394 0.0645203156 1.5175721e-07
v 0.0191274676 0.0406111181 -0.217389926
vt 0.742699981 0.828199983
vn 0.999904514 -0.0130270961 -0.00461054126
v 0.0191275086 0.139546067 -0.480227351
vt 0.87620002 0.878600001
vn 0.999983828 0.00359203805 -0.00440911274
v 0.0220954753 0.116131492 0.0797449723
vt 0.591899991 0.86650002
vn 0.999904174 0.0133849778 -0.00353340776
v 0.0191274676 0.0406111181 -0.217389926
vt 0.742699981 0.828199983
vn 0.999904514 -0.0130270961 -0.00461054126
v 0.0191274881 0.0419300795 -0.350622535
vt 0.810500026 0.82889998
vn 1 -5.79135045e-09 1.53727067e-07
v 0.0191275086 0.139546067 -0.480227351
vt 0.87620002 0.878600001
vn 0.999983828 0.00359203805 -0.00440911274
v 0.0184678696 -0.082727924 0.0164264571
vt 0.624000013 0.765500009
vn 0.999893748 -0.0141541609 -0.00348597063
v 0.0191274676 0.0406111181 -0.217389926
vt 0.742699981 0.828199983
vn 0.999904514 -0.0130270961 -0.00461054126
v 0.0220954753 0.116131492 0.0797449723
vt 0.591899991 0.86650002
vn 0.999904174 0.0133849778 -0.00353340776
v 0.0184678584 -0.0777811408 0.0797449723
vt 0.591899991 0.768000007
vn 0.999855643 -0.0169393465 0.0013235694
v 0.0184678696 -0.082727924 0.0164264571
vt 0.624000013 0.765500009
vn 0.999893748 -0.0141541609 -0.00348597063
v 0.0220954753 0.116131492 0.0797449723
vt 0.591899991 0.86650002
vn 0.999904174 0.0133849778 -0.00353340776
v 0.0184678696 -0.082727924 0.0164264571
vt 0.624000013 0.765500009
vn 0.999893748 -0.0141541609 -0.00348597063
v 0.0184678584 -0.0777811408 0.0797449723
vt 0.591899991 0.768000007
vn 0.999855643 -0.0169393465 0.0013235694
v 0.018467864 -0.100206599 0.0513836071
vt 0.606299996 0.756699979
vn 1 -1.32375382e-08 1.53232195e-07
v 0.0184678696 -0.082727924 0.0164264571
vt 0.624000013 0.765500009
vn 0.999893748 -0.0141541609 -0.00348597063
v 0.018467864 -0.100206599 0.0513836071
vt 0.606299996 0.756699979
vn 1 -1.32375382e-08 1.53232195e-07
v 0.0184678677 -0.0995469242 0.0170861352
vt 0.623600006 0.756900012
vn 1 -1.06566679e-07 1.06567359e-07
v 0.0184678696 -0.082727924 0.0164264571
vt 0.624000013 0.765500009
vn 0.999893748 -0.0141541609 -0.00348597063
v 0.0184678901 -0.082727924 -0.122412436
vt 0.700500011 0.765600026
vn 0.999977706 -0.00650572893 -0.00150401457
v 0.0191274676 0.0406111181 -0.217389926
vt 0.742699981 0.828199983
vn 0.999904514 -0.0130270961 -0.00461054126
v 0.0191274676 0.0406111181 -0.217389926
vt 0.742699981 0.828199983
vn 0.999904514 -0.0130270961 -0.00461054126
v 0.0184678901 -0.082727924 -0.122412436
vt 0.700500011 0.765600026
vn 0.999977706 -0.00650572893 -0.00150401457
v 0.0184679031 -0.028973341 -0.216070771
vt 0.7421 0.788999975
vn 0.999938965 -0.009582298 -0.00549955744
v -0.0211060736 0.192641377 -0.479567856
vt 0.86650002 0.831799984
vn 0 0.0124200181 -0.999922869
v 0.0171488114 0.192641377 -0.479567856
vt 0.828400016 0.831799984
vn 0 0.0124200181 -0.999922869
v 0.0191275086 0.139546067 -0.480227351
vt 0.826399982 0.779200017
vn 0 -0.543071217 -0.83968664
v -0.0211060736 0.192641377 -0.479567856
vt 0.86650002 0.831799984
vn 0 0.0124200181 -0.999922869
v 0.0191275086 0.139546067 -0.480227351
vt 0.826399982 0.779200017
vn 0 -0.543071217 -0.83968664
v -0.0234145578 0.139546067 -0.480227351
vt 0.868600011 0.779200017
vn 0 -0.721221251 -0.692704777
v -0.0234145578 0.139546067 -0.480227351
vt 0.868600011 0.779200017
vn 0 -0.721221251 -0.692704777
v 0.0191275086 0.139546067 -0.480227351
vt 0.826399982 0.779200017
vn 0 -0.543071217 -0.83968664
v 0.0191274881 0.0419300795 -0.350622535
vt 0.826399982 0.630500019
vn 0 -0.894126414 -0.447814645
v -0.0234145578 0.139546067 -0.480227351
vt 0.868600011 0.779200017
vn 0 -0.721221251 -0.692704777
v 0.0191274881 0.0419300795 -0.350622535
vt 0.826399982 0.630500019
vn 0 -0.894126414 -0.447814645
v -0.0234145783 0.0419300795 -0.350622535
vt 0.868600011 0.630500019
vn 0 -0.969279471 -0.245962002
v -0.0234145783 0.0419300795 -0.350622535
vt 0.868600011 0.630500019
vn 0 -0.969279471 -0.245962002
v 0.0191274881 0.0419300795 -0.350622535
vt 0.826399982 0.630500019
vn 0 -0.894126414 -0.447814645
v 0.0191274676 0.0406111181 -0.217389926
vt 0.826600015 0.508400023
vn 0 -0.999951002 -0.00989920388
v -0.0234145783 0.0419300795 -0.350622535
vt 0.868600011 0.630500019
vn 0 -0.969279471 -0.245962002
v 0.0191274676 0.0406111181 -0.217389926
vt 0.826600015 0.508400023
vn 0 -0.999951002 -0.00989920388
v -0.0230848156 0.0406111181 -0.217389926
vt 0.868399978 0.508400023
vn 0 -0.999951002 -0.00989920388
v -0.0260529108 0.116131492 0.0797449648
vt 0.934800029 0.75120002
vn -1.00964743e-07 -0.601143365 0.799141198
v 0.0220954753 0.116131492 0.0797449723
vt 0.987100005 0.751100004
vn -9.16204316e-08 -0.303985018 0.952676812
v 0.0171487052 0.192641377 0.218583852
vt 0.981599987 0.888700008
vn -4.16180048e-08 -0.875820052 0.48263779
v -0.0260529108 0.116131492 0.0797449648
vt 0.934800029 0.75120002
vn -1.00964743e-07 -0.601143365 0.799141198
v 0.0171487052 0.192641377 0.218583852
vt 0.981599987 0.888700008
vn -4.16180048e-08 -0.875820052 0.48263779
v -0.0211061798 0.192641377 0.218583852
vt 0.939999998 0.888800025
vn 0 -0.875820058 0.48263778
v -0.0224252921 -0.0777811408 0.0797449723
vt 0.939100027 0.583100021
vn -7.92941715e-08 -0.0636535493 0.997972057
v 0.0220954753 0.116131492 0.0797449723
vt 0.987100005 0.751100004
vn -9.16204316e-08 -0.303985018 0.952676812
v -0.0260529108 0.116131492 0.0797449648
vt 0.934800029 0.75120002
vn -1.00964743e-07 -0.601143365 0.799141198
v -0.0224252921 -0.0777811408 0.0797449723
vt 0.939100027 0.583100021
vn -7.92941715e-08 -0.0636535493 0.997972057
v 0.0184678584 -0.0777811408 0.0797449723
vt 0.983299971 0.583000004
vn 0 -0.231135642 0.972921536
v 0.0220954753 0.116131492 0.0797449723
vt 0.987100005 0.751100004
vn -9.16204316e-08 -0.303985018 0.952676812
v -0.0224252865 -0.100206599 0.0513836071
vt 0.939100027 0.551900029
vn 0 -0.899580293 0.436755418
v 0.0184678584 -0.0777811408 0.0797449723
vt 0.983299971 0.583000004
vn 0 -0.231135642 0.972921536
v -0.0224252921 -0.0777811408 0.0797449723
vt 0.939100027 0.583100021
vn -7.92941715e-08 -0.0636535493 0.997972057
v -0.0224252865 -0.100206599 0.0513836071
vt 0.939100027 0.551900029
vn 0 -0.899580293 0.436755418
v 0.018467864 -0.100206599 0.0513836071
vt 0.983299971 0.551699996
vn 1.21126557e-09 -0.977116392 0.212705328
v 0.0184678584 -0.0777811408 0.0797449723
vt 0.983299971 0.583000004
vn 0 -0.231135642 0.972921536
v -0.0224252827 -0.0995469242 0.0170861278
vt 0.939199984 0.522199988
vn 4.44828385e-08 -0.96737143 -0.253362423
v 0.018467864 -0.100206599 0.0513836071
vt 0.983299971 0.551699996
vn 1.21126557e-09 -0.977116392 0.212705328
v -0.0224252865 -0.100206599 0.0513836071
vt 0.939100027 0.551900029
vn 0 -0.899580293 0.436755418
v -0.0224252827 -0.0995469242 0.0170861278
vt 0.939199984 0.522199988
vn 4.44828385e-08 -0.96737143 -0.253362423
v 0.0184678677 -0.0995469242 0.0170861352
vt 0.983399987 0.522099972
vn 1.26378925e-07 -0.720320329 -0.693641567
v 0.018467864 -0.100206599 0.0513836071
vt 0.983299971 0.551699996
vn 1.21126557e-09 -0.977116392 0.212705328
v -0.0224252809 -0.082727924 0.0164264496
vt 0.939199984 0.507399976
vn 1.82056315e-07 -0.0391920619 -0.999231696
v 0.0184678677 -0.0995469242 0.0170861352
vt 0.983399987 0.522099972
vn 1.26378925e-07 -0.720320329 -0.693641567
v -0.0224252827 -0.0995469242 0.0170861278
vt 0.939199984 0.522199988
vn 4.44828385e-08 -0.96737143 -0.253362423
v -0.0224252809 -0.082727924 0.0164264496
vt 0.939199984 0.507399976
vn 1.82056315e-07 -0.0391920619 -0.999231696
v 0.0184678696 -0.082727924 0.0164264571
vt 0.983399987 0.507300019
vn 1.82056315e-07 -0.0391920619 -0.999231696
v 0.0184678677 -0.0995469242 0.0170861352
vt 0.983399987 0.522099972
vn 1.26378925e-07 -0.720320329 -0.693641567
v -0.0224252604 -0.082727924 -0.122412436
vt 0.876699984 0.70630002
vn 1.34778061e-23 -0.989684134 -0.143266588
v 0.0184678901 -0.082727924 -0.122412436
vt 0.921500027 0.70630002
vn 0 -0.949734463 -0.313056625
v 0.0184678696 -0.082727924 0.0164264571
vt 0.921500027 0.858500004
vn 1.82116233e-23 -1 -1.99912113e-16
v -0.0224252604 -0.082727924 -0.122412436
vt 0.876699984 0.70630002
vn 1.34778061e-23 -0.989684134 -0.143266588
v 0.0184678696 -0.082727924 0.0164264571
vt 0.921500027 0.858500004
vn 1.82116233e-23 -1 -1.99912113e-16
v -0.0224252809 -0.082727924 0.0164264496
vt 0.876699984 0.858500004
vn 3.64232476e-23 -1 -1.99912118e-16
v -0.0224252474 -0.028973341 -0.216070771
vt 0.876699984 0.587800026
vn 0 -0.729059665 -0.684450148
v 0.0184678901 -0.082727924 -0.122412436
vt 0.921500027 0.70630002
vn 0 -0.949734463 -0.313056625
v -0.0224252604 -0.082727924 -0.122412436
vt 0.876699984 0.70630002
vn 1.34778061e-23 -0.989684134 -0.143266588
v -0.0224252474 -0.028973341 -0.216070771
vt 0.876699984 0.587800026
vn 0 -0.729059665 -0.684450148
v 0.0184679031 -0.028973341 -0.216070771
vt 0.921500027 0.587800026
vn 0 -0.442632044 -0.896703336
v 0.0184678901 -0.082727924 -0.122412436
vt 0.921500027 0.70630002
vn 0 -0.949734463 -0.313056625
v -0.0230848156 0.0406111181 -0.217389926
vt 0.875999987 0.511300027
vn 0 -0.0189542052 -0.999820353
v 0.0184679031 -0.028973341 -0.216070771
vt 0.921500027 0.587800026
vn 0 -0.442632044 -0.896703336
v -0.0224252474 -0.028973341 -0.216070771
vt 0.876699984 0.587800026
vn 0 -0.729059665 -0.684450148
v -0.0230848156 0.0406111181 -0.217389926
vt 0.875999987 0.511300027
vn 0 -0.0189542052 -0.999820353
v 0.0191274676 0.0406111181 -0.217389926
vt 0.922200024 0.511300027
vn 0 -0.0189542052 -0.999820353
v 0.0184679031 -0.028973341 -0.216070771
vt 0.921500027 0.587800026
vn 0 -0.442632044 -0.896703336
v -0.0260529108 0.116131492 0.0797449648
vt 0.591899991 0.86650002
vn -0.999899122 0.0138193812 -0.0032817639
v -0.0211061798 0.192641377 0.218583852
vt 0.521300018 0.905399978
vn -0.997916391 0.064520356 -1.5175721e-07
v -0.0211060736 0.192641377 -0.479567856
vt 0.875899971 0.905499995
vn -0.99837364 0.0570000728 -0.00103291539
v -0.0260529108 0.116131492 0.0797449648
vt 0.591899991 0.86650002
vn -0.999899122 0.0138193812 -0.0032817639
v -0.0211060736 0.192641377 -0.479567856
vt 0.875899971 0.905499995
vn -0.99837364 0.0570000728 -0.00103291539
v -0.0234145578 0.139546067 -0.480227351
vt 0.87620002 0.878600001
vn -0.999981334 0.00499904794 -0.00351286846
v -0.0234145578 0.139546067 -0.480227351
vt 0.87620002 0.878600001
vn -0.999981334 0.00499904794 -0.00351286846
v -0.0230848156 0.0406111181 -0.217389926
vt 0.742699981 0.828199983
vn -0.999901091 -0.0134217732 -0.00420290074
v -0.0260529108 0.116131492 0.0797449648
vt 0.591899991 0.86650002
vn -0.999899122 0.0138193812 -0.0032817639
v -0.0234145578 0.139546067 -0.480227351
vt 0.87620002 0.878600001
vn -0.999981334 0.00499904794 -0.00351286846
v -0.0234145783 0.0419300795 -0.350622535
vt 0.810500026 0.82889998
vn -0.99999131 0.00333013077 0.00250803575
v -0.0230848156 0.0406111181 -0.217389926
vt 0.742699981 0.828199983
vn -0.999901091 -0.0134217732 -0.00420290074
v -0.0230848156 0.0406111181 -0.217389926
vt 0.742699981 0.828199983
vn -0.999901091 -0.0134217732 -0.00420290074
v -0.0224252809 -0.082727924 0.0164264496
vt 0.624000013 0.765500009
vn -0.999893747 -0.0141541902 -0.00348626897
v -0.0260529108 0.116131492 0.0797449648
vt 0.591899991 0.86650002
vn -0.999899122 0.0138193812 -0.0032817639
v -0.0224252921 -0.0777811408 0.0797449723
vt 0.591899991 0.768000007
vn -0.999855643 -0.0169393606 0.00132321739
v -0.0260529108 0.116131492 0.0797449648
vt 0.591899991 0.86650002
vn -0.999899122 0.0138193812 -0.0032817639
v -0.0224252809 -0.082727924 0.0164264496
vt 0.624000013 0.765500009
vn -0.999893747 -0.0141541902 -0.00348626897
v -0.0224252865 -0.100206599 0.0513836071
vt 0.606299996 0.756699979
vn -1 1.32375212e-08 -1.53232171e-07
v -0.0224252921 -0.0777811408 0.0797449723
vt 0.591899991 0.768000007
vn -0.999855643 -0.0169393606 0.00132321739
v -0.0224252809 -0.082727924 0.0164264496
vt 0.624000013 0.765500009
vn -0.999893747 -0.0141541902 -0.00348626897
v -0.0224252865 -0.100206599 0.0513836071
vt 0.606299996 0.756699979
vn -1 1.32375212e-08 -1.53232171e-07
v -0.0224252809 -0.082727924 0.0164264496
vt 0.624000013 0.765500009
vn -0.999893747 -0.0141541902 -0.00348626897
v -0.0224252827 -0.0995469242 0.0170861278
vt 0.623600006 0.756900012
vn -1 1.06566679e-07 -1.06567336e-07
v -0.0230848156 0.0406111181 -0.217389926
vt 0.742699981 0.828199983
vn -0.999901091 -0.0134217732 -0.00420290074
v -0.0224252604 -0.082727924 -0.122412436
vt 0.700500011 0.765600026
vn -0.999977706 -0.00650577869 -0.00150431453
v -0.0224252809 -0.082727924 0.0164264496
vt 0.624000013 0.765500009
vn -0.999893747 -0.0141541902 -0.00348626897
v -0.0230848156 0.0406111181 -0.217389926
vt 0.742699981 0.828199983
vn -0.999901091 -0.0134217732 -0.00420290074
v -0.0224252474 -0.028973341 -0.216070771
vt 0.7421 0.788999975
vn -0.999938963 -0.00958235744 -0.00549986996
v -0.0224252604 -0.082727924 -0.122412436
vt 0.700500011 0.765600026
vn -0.999977706 -0.00650577869 -0.00150431453
v 0.163242668 0.305097342 1.06282961
vt 0.527400017 0.550199986
vn 0 0 1
v 0.0178081449 0.305097342 1.06282961
vt 0.430900007 0.549300015
vn 0 0 1
v 0.0906902999 0.238810867 1.06282961
vt 0.479600012 0.505900025
vn -0.563270292 -0.618056941 0.548390551
v 0.0540843271 0.371053964 1.06282961
vt 0.454600006 0.593400002
vn 0 0 1
v 0.0178081449 0.305097342 1.06282961
vt 0.430900007 0.549300015
vn 0 0 1
v 0.163242668 0.305097342 1.06282961
vt 0.527400017 0.550199986
vn 0 0 1
v 0.0540843271 0.371053964 1.06282961
vt 0.454600006 0.593400002
vn 0 0 1
v 0.163242668 0.305097342 1.06282961
vt 0.527400017 0.550199986
vn 0 0 1
v 0.126966491 0.371053964 1.06282961
vt 0.502799988 0.593900025
vn 0 0 1
v 0.0445206128 0.305097342 0.998851538
vt 0.430900007 0.549300015
vn -0.795512402 -0.507662015 -0.330816106
v 0.0906903073 0.262885123 0.998851538
vt 0.479600012 0.505900025
vn -0.650162524 -0.711116508 -0.267585509
v 0.0906902999 0.238810867 1.06282961
vt 0.479600012 0.505900025
vn -0.563270292 -0.618056941 0.548390551
v 0.0445206128 0.305097342 0.998851538
vt 0.430900007 0.549300015
vn -0.795512402 -0.507662015 -0.330816106
v 0.0906902999 0.238810867 1.06282961
vt 0.479600012 0.505900025
vn -0.563270292 -0.618056941 0.548390551
v 0.0178081449 0.305097342 1.06282961
vt 0.430900007 0.549300015
vn -0.92034028 -0.0714658107 -0.384534012
v 0.0676054507 0.346980095 0.998851538
vt 0.454600006 0.593400002
vn -0.82262746 0.452821661 -0.3438555
v 0.0445206128 0.305097342 0.998851538
vt 0.430900007 0.549300015
vn -0.795512402 -0.507662015 -0.330816106
v 0.0178081449 0.305097342 1.06282961
vt 0.430900007 0.549300015
vn -0.92034028 -0.0714658107 -0.384534012
v 0.0676054507 0.346980095 0.998851538
vt 0.454600006 0.593400002
vn -0.82262746 0.452821661 -0.3438555
v 0.0178081449 0.305097342 1.06282961
vt 0.430900007 0.549300015
vn -0.92034028 -0.0714658107 -0.384534012
v 0.0540843271 0.371053964 1.06282961
vt 0.454600006 0.593400002
vn -0.822697833 0.452484305 -0.344131121
v 0.136859998 0.305097342 0.998851538
vt 0.4991 0.640799999
vn 0.796992687 -0.506858823 -0.328476469
v 0.163242668 0.305097342 1.06282961
vt 0.434799999 0.640799999
vn 0.922127342 -0.0698581188 -0.380527278
v 0.0906902999 0.238810867 1.06282961
vt 0.434799999 0.595899999
vn 0.649964625 -0.711208003 -0.267823005
v 0.136859998 0.305097342 0.998851538
vt 0.4991 0.640799999
vn 0.796992687 -0.506858823 -0.328476469
v 0.0906902999 0.238810867 1.06282961
vt 0.434799999 0.595899999
vn 0.649964625 -0.711208003 -0.267823005
v 0.0906903073 0.262885123 0.998851538
vt 0.4991 0.606000006
vn 0.65016258 -0.711116513 -0.267585359
v 0.113775156 0.346980095 0.998851538
vt 0.4991 0.671400011
vn 0.661244564 0.647088478 -0.37951565
v 0.163242668 0.305097342 1.06282961
vt 0.434799999 0.640799999
vn 0.922127342 -0.0698581188 -0.380527278
v 0.136859998 0.305097342 0.998851538
vt 0.4991 0.640799999
vn 0.796992687 -0.506858823 -0.328476469
v 0.113775156 0.346980095 0.998851538
vt 0.4991 0.671400011
vn 0.661244564 0.647088478 -0.37951565
v 0.126966491 0.371053964 1.06282961
vt 0.434799999 0.682900012
vn 0.359460436 0.846530422 -0.392650531
v 0.163242668 0.305097342 1.06282961
vt 0.434799999 0.640799999
vn 0.922127342 -0.0698581188 -0.380527278
v 0.0676054507 0.346980095 0.998851538
vt 0.4991 0.691600025
vn 0 0.935933769 -0.352176063
v 0.126966491 0.371053964 1.06282961
vt 0.434799999 0.682900012
vn 0.359460436 0.846530422 -0.392650531
v 0.113775156 0.346980095 0.998851538
vt 0.4991 0.671400011
vn 0.661244564 0.647088478 -0.37951565
v 0.0676054507 0.346980095 0.998851538
vt 0.4991 0.691600025
vn 0 0.935933769 -0.352176063
v 0.0540843271 0.371053964 1.06282961
vt 0.434799999 0.710500002
vn 0 0.935933769 -0.352176063
v 0.126966491 0.371053964 1.06282961
vt 0.434799999 0.682900012
vn 0.359460436 0.846530422 -0.392650531
v -0.168849319 0.305097342 1.06282961
vt 0.527400017 0.550199986
vn 0 0 1
v -0.0926693231 0.23551327 1.06282961
vt 0.479600012 0.505900025
vn 0 0 1
v -0.0164893381 0.305097342 1.06282961
vt 0.430900007 0.549300015
vn 0 0 1
v -0.168849319 0.305097342 1.06282961
vt 0.527400017 0.550199986
vn 0 0 1
v -0.0164893381 0.305097342 1.06282961
vt 0.430900007 0.549300015
vn 0 0 1
v -0.0544144399 0.374351978 1.06282961
vt 0.454600006 0.593400002
vn 0 0 1
v -0.168849319 0.305097342 1.06282961
vt 0.527400017 0.550199986
vn 0 0 1
v -0.0544144399 0.374351978 1.06282961
vt 0.454600006 0.593400002
vn 0 0 1
v -0.130594417 0.374351978 1.06282961
vt 0.502799988 0.593900025
vn 0 0 1
v -0.0464996286 0.305097342 0.998851538
vt 0.430900007 0.549300015
vn 0.7815951 -0.504850242 -0.366381403
v -0.0164893381 0.305097342 1.06282961
vt 0.430900007 0.549300015
vn 0.902435645 -0.0757518374 -0.424112681
v -0.0926693231 0.23551327 1.06282961
vt 0.479600012 0.505900025
vn 0.643178498 -0.70389347 -0.301422301
v -0.0464996286 0.305097342 0.998851538
vt 0.430900007 0.549300015
vn 0.7815951 -0.504850242 -0.366381403
v -0.0926693231 0.23551327 1.06282961
vt 0.479600012 0.505900025
vn 0.643178498 -0.70389347 -0.301422301
v -0.0926693156 0.262885123 0.998851538
vt 0.479600012 0.505900025
vn 0.643454517 -0.703779499 -0.301099155
v -0.069584474 0.346980095 0.998851538
vt 0.454600006 0.593400002
vn 0.810374589 0.444862983 -0.381300343
v -0.0164893381 0.305097342 1.06282961
vt 0.430900007 0.549300015
vn 0.902435645 -0.0757518374 -0.424112681
v -0.0464996286 0.305097342 0.998851538
vt 0.430900007 0.549300015
vn 0.7815951 -0.504850242 -0.366381403
v -0.069584474 0.346980095 0.998851538
vt 0.454600006 0.593400002
vn 0.810374589 0.444862983 -0.381300343
v -0.0544144399 0.374351978 1.06282961
vt 0.454600006 0.593400002
vn 0.810545962 0.443869747 -0.382092778
v -0.0164893381 0.305097342 1.06282961
vt 0.430900007 0.549300015
vn 0.902435645 -0.0757518374 -0.424112681
v -0.0926693231 0.23551327 1.06282961
vt 0.434799999 0.595899999
vn -0.643178447 -0.703893414 -0.301422539
v -0.168849319 0.305097342 1.06282961
vt 0.434799999 0.640799999
vn -0.902959376 -0.0741480946 -0.423280551
v -0.138838992 0.305097342 0.998851538
vt 0.4991 0.640799999
vn -0.781594976 -0.504850219 -0.366381701
v -0.0926693231 0.23551327 1.06282961
vt 0.434799999 0.595899999
vn -0.643178447 -0.703893414 -0.301422539
v -0.138838992 0.305097342 0.998851538
vt 0.4991 0.640799999
vn -0.781594976 -0.504850219 -0.366381701
v -0.0926693156 0.262885123 0.998851538
vt 0.4991 0.606000006
vn -0.643454579 -0.703779397 -0.301099261
v -0.168849319 0.305097342 1.06282961
vt 0.434799999 0.640799999
vn -0.902959376 -0.0741480946 -0.423280551
v -0.115754157 0.346980095 0.998851538
vt 0.4991 0.671400011
vn -0.651842697 0.630563934 -0.421295886
v -0.138838992 0.305097342 0.998851538
vt 0.4991 0.640799999
vn -0.781594976 -0.504850219 -0.366381701
v -0.168849319 0.305097342 1.06282961
vt 0.434799999 0.640799999
vn -0.902959376 -0.0741480946 -0.423280551
v -0.130594417 0.374351978 1.06282961
vt 0.434799999 0.682900012
vn -0.356315822 0.826312136 -0.436173462
v -0.115754157 0.346980095 0.998851538
vt 0.4991 0.671400011
vn -0.651842697 0.630563934 -0.421295886
v -0.130594417 0.374351978 1.06282961
vt 0.434799999 0.682900012
vn -0.356315822 0.826312136 -0.436173462
v -0.069584474 0.346980095 0.998851538
vt 0.4991 0.691600025
vn 0 0.919390915 -0.393345072
v -0.115754157 0.346980095 0.998851538
vt 0.4991 0.671400011
vn -0.651842697 0.630563934 -0.421295886
v -0.130594417 0.374351978 1.06282961
vt 0.434799999 0.682900012
vn -0.356315822 0.826312136 -0.436173462
v -0.0544144399 0.374351978 1.06282961
vt 0.434799999 0.710500002
vn 0 0.919390915 -0.393345072
v -0.069584474 0.346980095 0.998851538
vt 0.4991 0.691600025
vn 0 0.919390915 -0.393345072
v 0.0732117742 0.1464715 1.06711674
vt 0.621200025 0.558200002
vn 0 0 1
v -0.0732120946 0.1464715 1.06711674
vt 0.530300021 0.558200002
vn 0 0 1
v -1.65148165e-07 0.0660043359 1.06711674
vt 0.575699985 0.508300006
vn 0 0 1
v -0.0280317608 0.208800703 1.06711674
vt 0.558399975 0.596899986
vn 0 0 1
v -0.0732120946 0.1464715 1.06711674
vt 0.530300021 0.558200002
vn 0 0 1
v 0.0732117742 0.1464715 1.06711674
vt 0.621200025 0.558200002
vn 0 0 1
v -0.0280317608 0.208800703 1.06711674
vt 0.558399975 0.596899986
vn 0 0 1
v 0.0732117742 0.1464715 1.06711674
vt 0.621200025 0.558200002
vn 0 0 1
v 0.028031433 0.208800703 1.06711674
vt 0.593100011 0.596899986
vn 0 0 1
v -0.0230849981 0.209130526 1.00313878
vt 0.4991 0.691600025
vn 0 0.999986712 0.00515518056
v -0.0280317608 0.208800703 1.06711674
vt 0.434799999 0.710500002
vn 0 0.999986712 0.00515518056
v 0.028031433 0.208800703 1.06711674
vt 0.434799999 0.682900012
vn 0.582993053 0.80006414 -0.141479583
v -0.0230849981 0.209130526 1.00313878
vt 0.4991 0.691600025
vn 0 0.999986712 0.00515518056
v 0.028031433 0.208800703 1.06711674
vt 0.434799999 0.682900012
vn 0.582993053 0.80006414 -0.141479583
v 0.0230846927 0.209130526 1.00313878
vt 0.4991 0.671400011
vn 0.666037139 0.744394416 -0.0476600857
v 0.0458397493 0.147461012 1.00313878
vt 0.4991 0.640799999
vn 0.950888591 0.126407762 -0.282545511
v 0.0230846927 0.209130526 1.00313878
vt 0.4991 0.671400011
vn 0.666037139 0.744394416 -0.0476600857
v 0.028031433 0.208800703 1.06711674
vt 0.434799999 0.682900012
vn 0.582993053 0.80006414 -0.141479583
v 0.0458397493 0.147461012 1.00313878
vt 0.4991 0.640799999
vn 0.950888591 0.126407762 -0.282545511
v 0.028031433 0.208800703 1.06711674
vt 0.434799999 0.682900012
vn 0.582993053 0.80006414 -0.141479583
v 0.0732117742 0.1464715 1.06711674
vt 0.434799999 0.640799999
vn 0.846905624 -0.338158314 -0.410365471
v -1.55487754e-07 0.105248794 1.00313878
vt 0.4991 0.606000006
vn 0.672497078 -0.652611838 -0.349063704
v 0.0458397493 0.147461012 1.00313878
vt 0.4991 0.640799999
vn 0.950888591 0.126407762 -0.282545511
v 0.0732117742 0.1464715 1.06711674
vt 0.434799999 0.640799999
vn 0.846905624 -0.338158314 -0.410365471
v -1.55487754e-07 0.105248794 1.00313878
vt 0.4991 0.606000006
vn 0.672497078 -0.652611838 -0.349063704
v 0.0732117742 0.1464715 1.06711674
vt 0.434799999 0.640799999
vn 0.846905624 -0.338158314 -0.410365471
v -1.65148165e-07 0.0660043359 1.06711674
vt 0.434799999 0.595899999
vn 0 -0.852410278 -0.52287352
v -1.55487754e-07 0.105248794 1.00313878
vt 0.4991 0.606000006
vn -0.672497073 -0.652611769 -0.349063842
v -1.65148165e-07 0.0660043359 1.06711674
vt 0.434799999 0.595899999
vn 0 -0.852410278 -0.52287352
v -0.0732120946 0.1464715 1.06711674
vt 0.434799999 0.640799999
vn -0.846905571 -0.338158273 -0.410365613
v -1.55487754e-07 0.105248794 1.00313878
vt 0.4991 0.606000006
vn -0.672497073 -0.652611769 -0.349063842
v -0.0732120946 0.1464715 1.06711674
vt 0.434799999 0.640799999
vn -0.846905571 -0.338158273 -0.410365613
v -0.0458400585 0.147461012 1.00313878
vt 0.4991 0.640799999
vn -0.950888531 0.126407743 -0.282545721
v -0.0458400585 0.147461012 1.00313878
vt 0.4991 0.640799999
vn -0.950888531 0.126407743 -0.282545721
v -0.0732120946 0.1464715 1.06711674
vt 0.434799999 0.640799999
vn -0.846905571 -0.338158273 -0.410365613
v -0.0280317608 0.208800703 1.06711674
vt 0.434799999 0.682900012
vn -0.857134647 0.469599862 -0.211651048
v -0.0458400585 0.147461012 1.00313878
vt 0.4991 0.640799999
vn -0.950888531 0.126407743 -0.282545721
v -0.0280317608 0.208800703 1.06711674
vt 0.434799999 0.682900012
vn -0.857134647 0.469599862 -0.211651048
v -0.0230849981 0.209130526 1.00313878
vt 0.4991 0.671400011
vn -0.935832128 0.34530703 -0.0705782074
usemtl RPG-24-Newlambert15
f 1/1/1 2/2/2 3/3/3
f 4/4/4 5/5/5 6/6/6
f 7/7/7 8/8/8 9/9/9
f 10/10/10 11/11/11 12/12/12
f 13/13/13 14/14/14 15/15/15
f 16/16/16 17/17/17 18/18/18
f 19/19/19 20/20/20 21/21/21
f 22/22/22 23/23/23 24/24/24
f 25/25/25 26/26/26 27/27/27
f 28/28/28 29/29/29 30/30/30
f 31/31/31 32/32/32 33/33/33
f 34/34/34 35/35/35 36/36/36
f 37/37/37 38/38/38 39/39/39
f 40/40/40 41/41/41 42/42/42
f 43/43/43 44/44/44 45/45/45
f 46/46/46 47/47/47 48/48/48
f 49/49/49 50/50/50 51/51/51
f 52/52/52 53/53/53 54/54/54
f 55/55/55 56/56/56 57/57/57
f 58/58/58 59/59/59 60/60/60
f 61/61/61 62/62/62 63/63/63
f 64/64/64 65/65/65 66/66/66
f 67/67/67 68/68/68 69/69/69
f 70/70/70 71/71/71 72/72/72
f 73/73/73 74/74/74 75/75/75
f 76/76/76 77/77/77 78/78/78
f 79/79/79 80/80/80 81/81/81
f 82/82/82 83/83/83 84/84/84
f 85/85/85 86/86/86 87/87/87
f 88/88/88 89/89/89 90/90/90
f 91/91/91 92/92/92 93/93/93
f 94/94/94 95/95/95 96/96/96
f 97/97/97 98/98/98 99/99/99
f 100/100/100 101/101/101 102/102/102
f 103/103/103 104/104/104 105/105/105
f 106/106/106 107/107/107 108/108/108
f 109/109/109 110/110/110 111/111/111
f 112/112/112 113/113/113 114/114/114
f 115/115/115 116/116/116 117/117/117
f 118/118/118 119/119/119 120/120/120
f 121/121/121 122/122/122 123/123/123
f 124/124/124 125/125/125 126/126/126
f 127/127/127 128/128/128 129/129/129
f 130/130/130 131/131/131 132/132/132
f 133/133/133 134/134/134 135/135/135
f 136/136/136 137/137/137 138/138/138
f 139/139/139 140/140/140 141/141/141
f 142/142/142 143/143/143 144/144/144
f 145/145/145 146/146/146 147/147/147
f 148/148/148 149/149/149 150/150/150
f 151/151/151 152/152/152 153/153/153
f 154/154/154 155/155/155 156/156/156
f 157/157/157 158/158/158 159/159/159
f 160/160/160 161/161/161 162/162/162
f 163/163/163 164/164/164 165/165/165
f 166/166/166 167/167/167 168/168/168
f 169/169/169 170/170/170 171/171/171
f 172/172/172 173/173/173 174/174/174
f 175/175/175 176/176/176 177/177/177
f 178/178/178 179/179/179 180/180/180
f 181/181/181 182/182/182 183/183/183
f 184/184/184 185/185/185 186/186/186
f 187/187/187 188/188/188 189/189/189
f 190/190/190 191/191/191 192/192/192
f 193/193/193 194/194/194 195/195/195
f 196/196/196 197/197/197 198/198/198
f 199/199/199 200/200/200 201/201/201
f 202/202/202 203/203/203 204/204/204
f 205/205/205 206/206/206 207/207/207
f 208/208/208 209/209/209 210/210/210
f 211/211/211 212/212/212 213/213/213
f 214/214/214 215/215/215 216/216/216
f 217/217/217 218/218/218 219/219/219
f 220/220/220 221/221/221 222/222/222
f 223/223/223 224/224/224 225/225/225
f 226/226/226 227/227/227 228/228/228
f 229/229/229 230/230/230 231/231/231
f 232/232/232 233/233/233 234/234/234
f 235/235/235 236/236/236 237/237/237
f 238/238/238 239/239/239 240/240/240
f 241/241/241 242/242/242 243/243/243
f 244/244/244 245/245/245 246/246/246
f 247/247/247 248/248/248 249/249/249
f 250/250/250 251/251/251 252/252/252
f 253/253/253 254/254/254 255/255/255
f 256/256/256 257/257/257 258/258/258
f 259/259/259 260/260/260 261/261/261
f 262/262/262 263/263/263 264/264/264
f 265/265/265 266/266/266 267/267/267
f 268/268/268 269/269/269 270/270/270
f 271/271/271 272/272/272 273/273/273
f 274/274/274 275/275/275 276/276/276
f 277/277/277 278/278/278 279/279/279
f 280/280/280 281/281/281 282/282/282
f 283/283/283 284/284/284 285/285/285
f 286/286/286 287/287/287 288/288/288
f 289/289/289 290/290/290 291/291/291
f 292/292/292 293/293/293 294/294/294
f 295/295/295 296/296/296 297/297/297
f 298/298/298 299/299/299 300/300/300
f 301/301/301 302/302/302 303/303/303
f 304/304/304 305/305/305 306/306/306
f 307/307/307 308/308/308 309/309/309
f 310/310/310 311/311/311 312/312/312
f 313/313/313 314/314/314 315/315/315
f 316/316/316 317/317/317 318/318/318
f 319/319/319 320/320/320 321/321/321
f 322/322/322 323/323/323 324/324/324
f 325/325/325 326/326/326 327/327/327
f 328/328/328 329/329/329 330/330/330
f 331/331/331 332/332/332 333/333/333
f 334/334/334 335/335/335 336/336/336
f 337/337/337 338/338/338 339/339/339
f 340/340/340 341/341/341 342/342/342
f 343/343/343 344/344/344 345/345/345
f 346/346/346 347/347/347 348/348/348
f 349/349/349 350/350/350 351/351/351
f 352/352/352 353/353/353 354/354/354
f 355/355/355 356/356/356 357/357/357
f 358/358/358 359/359/359 360/360/360
f 361/361/361 362/362/362 363/363/363
f 364/364/364 365/365/365 366/366/366
f 367/367/367 368/368/368 369/369/369
f 370/370/370 371/371/371 372/372/372
f 373/373/373 374/374/374 375/375/375
f 376/376/376 377/377/377 378/378/378
f 379/379/379 380/380/380 381/381/381
f 382/382/382 383/383/383 384/384/384
f 385/385/385 386/386/386 387/387/387
f 388/388/388 389/389/389 390/390/390
f 391/391/391 392/392/392 393/393/393
f 394/394/394 395/395/395 396/396/396
f 397/397/397 398/398/398 399/399/399
f 400/400/400 401/401/401 402/402/402
f 403/403/403 404/404/404 405/405/405
f 406/406/406 407/407/407 408/408/408
f 409/409/409 410/410/410 411/411/411
f 412/412/412 413/413/413 414/414/414
f 415/415/415 416/416/416 417/417/417
f 418/418/418 419/419/419 420/420/420
f 421/421/421 422/422/422 423/423/423
f 424/424/424 425/425/425 426/426/426
f 427/427/427 428/428/428 429/429/429
f 430/430/430 431/431/431 432/432/432
f 433/433/433 434/434/434 435/435/435
f 436/436/436 437/437/437 438/438/438
f 439/439/439 440/440/440 441/441/441
f 442/442/442 443/443/443 444/444/444
f 445/445/445 446/446/446 447/447/447
f 448/448/448 449/449/449 450/450/450
f 451/451/451 452/452/452 453/453/453
f 454/454/454 455/455/455 456/456/456
f 457/457/457 458/458/458 459/459/459
f 460/460/460 461/461/461 462/462/462
f 463/463/463 464/464/464 465/465/465
f 466/466/466 467/467/467 468/468/468
f 469/469/469 470/470/470 471/471/471
f 472/472/472 473/473/473 474/474/474
f 475/475/475 476/476/476 477/477/477
f 478/478/478 479/479/479 480/480/480
f 481/481/481 482/482/482 483/483/483
f 484/484/484 485/485/485 486/486/486
f 487/487/487 488/488/488 489/489/489
f 490/490/490 491/491/491 492/492/492
f 493/493/493 494/494/494 495/495/495
f 496/496/496 497/497/497 498/498/498
f 499/499/499 500/500/500 501/501/501
f 502/502/502 503/503/503 504/504/504
f 505/505/505 506/506/506 507/507/507
f 508/508/508 509/509/509 510/510/510
f 511/511/511 512/512/512 513/513/513
f 514/514/514 515/515/515 516/516/516
f 517/517/517 518/518/518 519/519/519
f 520/520/520 521/521/521 522/522/522
f 523/523/523 524/524/524 525/525/525
f 526/526/526 527/527/527 528/528/528
f 529/529/529 530/530/530 531/531/531
f 532/532/532 533/533/533 534/534/534
f 535/535/535 536/536/536 537/537/537
f 538/538/538 539/539/539 540/540/540
f 541/541/541 542/542/542 543/543/543
f 544/544/544 545/545/545 546/546/546
f 547/547/547 548/548/548 549/549/549
f 550/550/550 551/551/551 552/552/552
f 553/553/553 554/554/554 555/555/555
f 556/556/556 557/557/557 558/558/558
f 559/559/559 560/560/560 561/561/561
f 562/562/562 563/563/563 564/564/564
f 565/565/565 566/566/566 567/567/567
f 568/568/568 569/569/569 570/570/570
f 571/571/571 572/572/572 573/573/573
f 574/574/574 575/575/575 576/576/576
f 577/577/577 578/578/578 579/579/579
f 580/580/580 581/581/581 582/582/582
f 583/583/583 584/584/584 585/585/585
f 586/586/586 587/587/587 588/588/588
f 589/589/589 590/590/590 591/591/591
f 592/592/592 593/593/593 594/594/594
f 595/595/595 596/596/596 597/597/597
f 598/598/598 599/599/599 600/600/600
f 601/601/601 602/602/602 603/603/603
f 604/604/604 605/605/605 606/606/606
f 607/607/607 608/608/608 609/609/609
f 610/610/610 611/611/611 612/612/612
f 613/613/613 614/614/614 615/615/615
f 616/616/616 617/617/617 618/618/618
f 619/619/619 620/620/620 621/621/621
f 622/622/622 623/623/623 624/624/624
f 625/625/625 626/626/626 627/627/627
f 628/628/628 629/629/629 630/630/630
f 631/631/631 632/632/632 633/633/633
f 634/634/634 635/635/635 636/636/636
f 637/637/637 638/638/638 639/639/639
f 640/640/640 641/641/641 642/642/642
f 643/643/643 644/644/644 645/645/645
f 646/646/646 647/647/647 648/648/648
f 649/649/649 650/650/650 651/651/651
f 652/652/652 653/653/653 654/654/654
f 655/655/655 656/656/656 657/657/657
f 658/658/658 659/659/659 660/660/660
f 661/661/661 662/662/662 663/663/663
f 664/664/664 665/665/665 666/666/666
f 667/667/667 668/668/668 669/669/669
f 670/670/670 671/671/671 672/672/672
f 673/673/673 674/674/674 675/675/675
f 676/676/676 677/677/677 678/678/678
f 679/679/679 680/680/680 681/681/681
f 682/682/682 683/683/683 684/684/684
f 685/685/685 686/686/686 687/687/687
f 688/688/688 689/689/689 690/690/690
f 691/691/691 692/692/692 693/693/693
