# Generated from legacy Unity YAML Mesh assets without Unity.
mtllib gun10.mtl

o gun10
v -0.0339322679 0.0898001492 -0.435512453
v -0.0339322679 0.0590021163 -0.511825979
v -0.0418361717 0.0816236436 -0.635562897
v -0.0339322679 0.0704492629 -0.454590827
v -0.0470145859 0.204270437 -0.523000479
v -0.0418361717 0.127956912 -0.306597084
v -0.0339322679 0.0941608399 -0.348569542
v -0.045379299 0.205360651 -0.313683361
v -0.0222126909 0.2424272 -0.404987037
v -0.000136279507 0.254146755 -0.506102443
v -0.000136279507 0.225801751 -0.532267094
v -0.000136279507 0.224984139 -0.7723822
v -0.049194976 0.203180224 -0.791733086
v -0.000136279507 0.253874183 -0.41398114
v -0.0222126909 0.242699787 -0.357563615
v -0.000136279507 0.244335026 -0.313410789
v -0.000136279507 0.255782008 -0.35074991
v -0.000136279507 0.227709576 -0.300873578
v -0.0418361717 0.207268476 0.113399804
v -0.0418361717 0.133953005 -0.26271683
v -0.0254832704 0.0810786188 -0.0885584503
v -0.031206786 0.0898001492 -0.18395035
v -0.0372028493 0.100702107 0.066521585
v -0.0418361717 0.1271393 0.127572387
v -0.0418361717 0.18164891 0.132478267
v -0.0197597549 0.0538238138 -0.0209664404
v -0.000136279507 0.225256726 0.0997723937
v -0.0213950474 0.0494629666 0.0223687589
v -0.0287538499 0.0693590492 0.0826019347
v -0.0279362065 0.00830816478 0.0528941154
v -0.0331146263 -0.0164937824 0.0926861763
v -0.0320244276 0.0290218629 0.178266346
v -0.0391106897 -0.0491994917 0.110946953
v -0.0358401083 -0.00014077127 0.192438841
v -0.0418361717 -0.0862660408 0.137111545
v -0.0459243946 -0.0650073141 0.0885979235
v -0.0470145859 -0.102619052 0.0954116285
v -0.049194976 0.163115636 -0.834795713
v -0.0423812673 0.20209001 -0.834795713
v -0.0440165543 0.0788981989 -0.855781913
v -0.0440165543 0.156029344 -0.852238834
v 0.0491949699 0.203180224 -0.791733086
v -0.0423812673 0.20209001 -0.834795713
v 0.0423812612 0.20209001 -0.834795713
v -0.049194976 0.203180224 -0.791733086
v -0.000136279507 0.224984139 -0.7723822
v 0.0491949699 0.163115636 -0.834795713
v -0.049194976 0.163115636 -0.834795713
v -0.0440165543 0.156029344 -0.852238834
v 0.0440165482 0.156029344 -0.852238834
v 0.0440165482 0.0788981989 -0.855781913
v -0.0440165543 0.0788981989 -0.855781913
v 0.0339322618 0.0590021163 -0.511825979
v -0.0418361717 0.0816236436 -0.635562897
v -0.0339322679 0.0590021163 -0.511825979
v 0.0418361618 0.0816236436 -0.635562897
v 0.0339322618 0.0704492629 -0.454590827
v -0.0339322679 0.0704492629 -0.454590827
v 0.0339322618 0.0898001492 -0.435512453
v -0.0339322679 0.0898001492 -0.435512453
v 0.0339322618 0.0941608399 -0.348569542
v -0.0339322679 0.0941608399 -0.348569542
v 0.0418361618 0.127956912 -0.306597084
v -0.0418361717 0.127956912 -0.306597084
v 0.0418361618 0.133953005 -0.26271683
v -0.0418361717 0.133953005 -0.26271683
v -0.0440165543 0.0788981989 -0.855781913
v 0.0440165482 0.0788981989 -0.855781913
v 0.0418361618 0.1271393 0.127572387
v -0.0372028493 0.100702107 0.066521585
v -0.0418361717 0.1271393 0.127572387
v 0.0372028395 0.100702107 0.066521585
v 0.0418361618 0.18164891 0.132478267
v -0.0418361717 0.18164891 0.132478267
v 0.0418361618 0.207268476 0.113399804
v -0.0418361717 0.207268476 0.113399804
v -0.000136279507 0.225256726 0.0997723937
v 0.0312067799 0.0898001492 -0.18395035
v -0.0418361717 0.133953005 -0.26271683
v -0.031206786 0.0898001492 -0.18395035
v 0.0418361618 0.133953005 -0.26271683
v 0.0254832643 0.0810786188 -0.0885584503
v -0.0254832704 0.0810786188 -0.0885584503
v 0.0197597488 0.0538238138 -0.0209664404
v -0.0197597549 0.0538238138 -0.0209664404
v 0.0213950395 0.0494629666 0.0223687589
v -0.0213950474 0.0494629666 0.0223687589
v 0.0372028395 0.100702107 0.066521585
v -0.0287538499 0.0693590492 0.0826019347
v -0.0372028493 0.100702107 0.066521585
v 0.0287538438 0.0693590492 0.0826019347
v -0.0320244276 0.0290218629 0.178266346
v 0.0320244215 0.0290218629 0.178266346
v -0.0358401083 -0.00014077127 0.192438841
v 0.0358401022 -0.00014077127 0.192438841
v -0.0418361717 -0.0862660408 0.137111545
v 0.0418361618 -0.0862660408 0.137111545
v -0.0470145859 -0.102619052 0.0954116285
v 0.0470145799 -0.102619052 0.0954116285
v 0.0279361985 0.00830816478 0.0528941154
v -0.0213950474 0.0494629666 0.0223687589
v -0.0279362065 0.00830816478 0.0528941154
v 0.0213950395 0.0494629666 0.0223687589
v 0.0331146165 -0.0164937824 0.0926861763
v -0.0331146263 -0.0164937824 0.0926861763
v 0.0391106799 -0.0491994917 0.110946953
v -0.0391106897 -0.0491994917 0.110946953
v 0.0459243886 -0.0650073141 0.0885979235
v -0.0459243946 -0.0650073141 0.0885979235
v 0.0470145799 -0.102619052 0.0954116285
v -0.0470145859 -0.102619052 0.0954116285
v 0.0222126848 0.242699787 -0.357563615
v -0.000136279507 0.255782008 -0.35074991
v -0.0222126909 0.242699787 -0.357563615
v -0.0222126909 0.2424272 -0.404987037
v 0.0222126848 0.2424272 -0.404987037
v -0.000136279507 0.253874183 -0.41398114
v 0.0339322618 0.0898001492 -0.435512453
v 0.0339322618 0.0590021163 -0.511825979
v 0.0339322618 0.0704492629 -0.454590827
v 0.0418361618 0.0816236436 -0.635562897
v 0.0470145799 0.204270437 -0.523000479
v 0.0418361618 0.127956912 -0.306597084
v 0.0339322618 0.0941608399 -0.348569542
v 0.0453792892 0.205360651 -0.313683361
v 0.0222126848 0.2424272 -0.404987037
v -0.000136279507 0.254146755 -0.506102443
v -0.000136279507 0.225801751 -0.532267094
v -0.000136279507 0.224984139 -0.7723822
v 0.0491949699 0.203180224 -0.791733086
v -0.000136279507 0.253874183 -0.41398114
v 0.0222126848 0.242699787 -0.357563615
v -0.000136279507 0.244335026 -0.313410789
v -0.000136279507 0.255782008 -0.35074991
v -0.000136279507 0.227709576 -0.300873578
v 0.0418361618 0.207268476 0.113399804
v 0.0418361618 0.133953005 -0.26271683
v 0.0254832643 0.0810786188 -0.0885584503
v 0.0312067799 0.0898001492 -0.18395035
v 0.0372028395 0.100702107 0.066521585
v 0.0418361618 0.1271393 0.127572387
v 0.0418361618 0.18164891 0.132478267
v 0.0197597488 0.0538238138 -0.0209664404
v -0.000136279507 0.225256726 0.0997723937
v 0.0213950395 0.0494629666 0.0223687589
v 0.0287538438 0.0693590492 0.0826019347
v 0.0279361985 0.00830816478 0.0528941154
v 0.0331146165 -0.0164937824 0.0926861763
v 0.0320244215 0.0290218629 0.178266346
v 0.0391106799 -0.0491994917 0.110946953
v 0.0358401022 -0.00014077127 0.192438841
v 0.0418361618 -0.0862660408 0.137111545
v 0.0459243886 -0.0650073141 0.0885979235
v 0.0470145799 -0.102619052 0.0954116285
v 0.0491949699 0.163115636 -0.834795713
v 0.0423812612 0.20209001 -0.834795713
v 0.0440165482 0.0788981989 -0.855781913
v 0.0440165482 0.156029344 -0.852238834
vt 0.414099991 0.309399992
vt 0.342799991 0.280800015
vt 0.226899996 0.303000003
vt 0.396299988 0.291099995
vt 0.332800001 0.420300007
vt 0.53579998 0.343800008
vt 0.495799989 0.311699986
vt 0.527899981 0.419699997
vt 0.44569999 0.460900009
vt 0.352699995 0.486600012
vt 0.322400004 0.472200006
vt 0.0970000029 0.470699996
vt 0.0790999979 0.416599989
vt 0.437700003 0.485599995
vt 0.488900006 0.456400007
vt 0.525300026 0.478799999
vt 0.496399999 0.480399996
vt 0.541400015 0.470099986
vt 0.929499984 0.421099991
vt 0.574999988 0.351399988
vt 0.738099992 0.297100008
vt 0.648500025 0.307399988
vt 0.88440001 0.314500004
vt 0.942300022 0.33919999
vt 0.947300017 0.396600008
vt 0.801100016 0.26910001
vt 0.917599976 0.467299998
vt 0.850300014 0.264400005
vt 0.898800015 0.283399999
vt 0.871399999 0.225299999
vt 0.903500021 0.2139
vt 0.979200006 0.261999995
vt 0.922200024 0.187700003
vt 0.992799997 0.234300002
vt 0.947399974 0.152799994
vt 0.900900006 0.171599999
vt 0.902999997 0.1197
vt 0.0390999988 0.378300011
vt 0.0386000015 0.415300012
vt 0.0215000007 0.299100012
vt 0.0230999999 0.370999992
vt 0.0163000003 0.239899993
vt 0.136000007 0.191
vt 0.0163000003 0.191
vt 0.136000007 0.239899993
vt 0.0762000009 0.272899985
vt 0.0163000003 0.146599993
vt 0.136000007 0.146599993
vt 0.127000004 0.129899994
vt 0.0252999999 0.129899994
vt 0.0252999999 0.0425000004
vt 0.127000004 0.0425000004
vt 0.461100012 0.0258000009
vt 0.3486 0.0992999971
vt 0.461299986 0.0910999998
vt 0.34830001 0.0185000002
vt 0.513199985 0.0255999994
vt 0.513499975 0.0908000022
vt 0.537599981 0.0254999995
vt 0.537899971 0.0907000005
vt 0.615700006 0.0251000002
vt 0.61589998 0.0904000029
vt 0.663900018 0.0172000006
vt 0.664200008 0.0979999974
vt 0.703499973 0.0170000009
vt 0.703800023 0.0978000015
vt 0.147 0.107000001
vt 0.146599993 0.0124000004
vt 0.669099987 0.181299999
vt 0.585600019 0.114699997
vt 0.579999983 0.180500001
vt 0.664600015 0.115400001
vt 0.668600023 0.235400006
vt 0.579599977 0.234599993
vt 0.668299973 0.26699999
vt 0.579299986 0.266299993
vt 0.623600006 0.289000005
vt 0.2764 0.144099995
vt 0.161899999 0.242899999
vt 0.275999993 0.229100004
vt 0.162499994 0.128999993
vt 0.397300005 0.152600005
vt 0.397000015 0.221900001
vt 0.489499986 0.160999998
vt 0.489300013 0.214399993
vt 0.555899978 0.158999994
vt 0.555599988 0.217099994
vt 0.792699993 0.240899995
vt 0.736699998 0.215000004
vt 0.729499996 0.240999997
vt 0.78549999 0.215000004
vt 0.733799994 0.149599999
vt 0.788200021 0.149599999
vt 0.730499983 0.125699997
vt 0.791400015 0.125599995
vt 0.725199997 0.0529000014
vt 0.796500027 0.0527999997
vt 0.720799983 0.0197999999
vt 0.800899982 0.0197000001
vt 0.83130002 0.147
vt 0.881299973 0.190500006
vt 0.887899995 0.146899998
vt 0.838100016 0.190699995
vt 0.825999975 0.105700001
vt 0.89289999 0.105499998
vt 0.819800019 0.0922000036
vt 0.898899972 0.0920000002
vt 0.81279999 0.0562999994
vt 0.905700028 0.0560000017
vt 0.811600029 0.0204000007
vt 0.906700015 0.0200999994
vt 0.463999987 0.232700005
vt 0.444799989 0.263399988
vt 0.463999987 0.294
vt 0.524600029 0.294
vt 0.524600029 0.232700005
vt 0.543600023 0.263399988
vt 0.414099991 0.309399992
vt 0.342799991 0.280800015
vt 0.396299988 0.291099995
vt 0.226899996 0.303000003
vt 0.332800001 0.420300007
vt 0.53579998 0.343800008
vt 0.495799989 0.311699986
vt 0.527899981 0.419699997
vt 0.44569999 0.460900009
vt 0.352699995 0.486600012
vt 0.322400004 0.472200006
vt 0.0970000029 0.470699996
vt 0.0790999979 0.416599989
vt 0.437700003 0.485599995
vt 0.488900006 0.456400007
vt 0.525300026 0.478799999
vt 0.496399999 0.480399996
vt 0.541400015 0.470099986
vt 0.929499984 0.421099991
vt 0.574999988 0.351399988
vt 0.738099992 0.297100008
vt 0.648500025 0.307399988
vt 0.88440001 0.314500004
vt 0.942300022 0.33919999
vt 0.947300017 0.396600008
vt 0.801100016 0.26910001
vt 0.917599976 0.467299998
vt 0.850300014 0.264400005
vt 0.898800015 0.283399999
vt 0.871399999 0.225299999
vt 0.903500021 0.2139
vt 0.979200006 0.261999995
vt 0.922200024 0.187700003
vt 0.992799997 0.234300002
vt 0.947399974 0.152799994
vt 0.900900006 0.171599999
vt 0.902999997 0.1197
vt 0.0390999988 0.378300011
vt 0.0386000015 0.415300012
vt 0.0215000007 0.299100012
vt 0.0230999999 0.370999992
vn -0.993864969 -0.109244535 0.0172642679
vn -0.994916778 -0.0933826523 0.0376866614
vn -0.997935321 -0.0609376351 0.0202904018
vn -1 0 0
vn -0.969838076 0.243638514 -0.00737430802
vn -0.99526116 -0.0970883354 -0.00539250175
vn -0.970206494 -0.24197534 0.0121364652
vn -0.94085378 0.337821007 0.0259062167
vn -0.768802316 0.639000509 -0.024926869
vn -0.638532826 0.751007476 -0.168117817
vn -0.431331956 0.896830877 -0.0982197609
vn -0.411511528 0.911403054 -0.00165381959
vn -0.989433658 0.144824579 0.0068467376
vn -0.459470118 0.88818934 0.00262800864
vn -0.708939289 0.681933076 0.179923218
vn -0.587610846 0.715088775 0.378631137
vn -0.549109801 0.799044591 0.244961565
vn -0.425429229 0.904748617 0.0209740581
vn -0.963669795 0.267096372 0.000232306357
vn -0.992979261 -0.115992664 0.0231924422
vn -0.989033139 -0.147693736 -0.000106334703
vn -0.986486825 -0.157602367 0.0447798906
vn -0.992937649 -0.100891007 -0.0624165847
vn -0.998286566 -0.0101913529 -0.0576200306
vn -1 0 0
vn -0.960090226 -0.276307895 -0.0433670999
vn -0.394535436 0.918863506 0.00562550188
vn -0.987067541 -0.137129267 -0.0830254973
vn -0.998341318 0.00292240084 -0.0574984578
vn -0.991458137 0.0460922216 -0.122009298
vn -0.996410629 0.0708655428 -0.0463026179
vn -0.995721489 0.0874738152 -0.0297833421
vn -0.993128788 0.116535499 -0.0107092135
vn -0.995862004 0.0897808194 -0.0140809649
vn -0.994928078 0.0864135479 0.0514861022
vn -0.985577969 0.107918611 0.130344316
vn -0.993363913 0.0477484022 0.104633777
vn -0.996668781 0.015294704 -0.0801087537
vn -0.972653952 0.170044568 -0.15820599
vn -0.998872545 -0.0473793538 0.00297259207
vn -0.95707515 0.0132999949 -0.289534571
vn 0 0.972496938 -0.23291566
vn 0 0.732133064 -0.681161637
vn 0 0.732133064 -0.681161637
vn 0 0.938831705 -0.344376291
vn 0 0.663781651 -0.747926414
vn 0 0.358808195 -0.933411313
vn 0 0.354154233 -0.935187029
vn 0 0.251712619 -0.967802024
vn 0 0.241796434 -0.970326999
vn 0 0.045887387 -0.998946619
vn 0 0.045887387 -0.998946619
vn 0 -0.993210527 -0.116330775
vn 0 -0.99631613 -0.0857564522
vn 0 -0.999999344 0.00114507686
vn 0 -0.999562757 -0.0295684635
vn 0 -0.953435125 0.30159818
vn 0 -0.885137423 0.465329713
vn 0 -0.945548362 0.325481636
vn 0 -0.98958297 0.143963692
vn 0 -0.981148348 0.193256099
vn 0 -0.914693169 0.404148991
vn 0 -0.872314204 0.488945732
vn 0 -0.942989986 0.332821104
vn 0 -0.99079258 0.135388565
vn 0 -0.99079258 0.135388565
vn 0 -0.999923425 0.0123751167
vn 0 -0.999923425 0.0123751167
vn 0 -0.754934258 0.655800478
vn 0 -0.917655151 0.397377684
vn 0 -0.463540863 0.886075543
vn 0 -0.917655151 0.397377684
vn 0 0.0686639691 0.997639845
vn 0 0.29995572 0.953953126
vn 0 0.598991246 0.800755573
vn 0 0.600000131 0.799999902
vn 0 0.603856226 0.797093256
vn 0 -0.928288051 -0.37186193
vn 0 -0.872299968 -0.48897113
vn 0 -0.972820751 -0.231559466
vn 0 -0.872299968 -0.48897113
vn 0 -0.986380625 -0.16447876
vn 0 -0.966601395 -0.256284496
vn 0 -0.947626967 -0.319379292
vn 0 -0.974511771 -0.224336374
vn 0 -0.994974874 -0.10012492
vn 0 -0.994974874 -0.10012492
vn 0 0.456473675 0.889736918
vn 0 0.763172468 0.64619485
vn 0 0.456473675 0.889736918
vn 0 0.882044066 0.471166919
vn 0 0.879863028 0.475227369
vn 0 0.776091343 0.63062051
vn 0 -0.197596439 0.980283452
vn 0 -0.439966975 0.898013954
vn 0 -0.633795561 0.773500605
vn 0 -0.765733822 0.643157612
vn 0 -0.930972418 0.365089519
vn 0 -0.930972418 0.365089519
vn 0 -0.692990028 -0.720947169
vn 0 -0.595735505 -0.803180682
vn 0 -0.77644023 -0.6301909
vn 0 -0.595735505 -0.803180682
vn 0 -0.75967542 -0.650302435
vn 0 -0.637851871 -0.770159069
vn 0 -0.147606669 -0.989046142
vn 0 0.41202397 -0.911173006
vn 0 0.459153934 -0.888356721
vn 0 0.0927177205 -0.995692435
vn 0 -0.178257537 -0.983983867
vn 0 -0.178257537 -0.983983867
vn 0 0.99113486 -0.132859662
vn 0 0.461936985 -0.886912748
vn 0 0.970997713 -0.239088771
vn 0 0.994534149 0.104411808
vn 0 0.980943807 0.194291655
vn 0 0.617823451 0.786316847
vn 0.99386497 -0.109244523 0.0172642654
vn 0.994916783 -0.0933826087 0.0376866439
vn 1 0 0
vn 0.99793532 -0.0609376493 0.020290401
vn 0.969483531 0.245040841 -0.00752784505
vn 0.995261161 -0.0970883189 -0.00539248459
vn 0.970206521 -0.241975232 0.0121364598
vn 0.940298066 0.339351627 0.0260772031
vn 0.767435882 0.640623157 -0.0253798585
vn 0.635597888 0.753305373 -0.168956621
vn 0.429299262 0.897794123 -0.0983252544
vn 0.409576633 0.912274196 -0.0016653767
vn 0.98928555 0.145833102 0.00684153982
vn 0.455032602 0.89047088 0.00263475935
vn 0.706782239 0.683702707 0.181685098
vn 0.584514788 0.7166938 0.380384621
vn 0.544406537 0.801980992 0.245861772
vn 0.423256181 0.905767053 0.0209821716
vn 0.963119377 0.269074361 0.000233577708
vn 0.992979264 -0.115992639 0.0231924388
vn 0.989033143 -0.147693705 -0.000106330255
vn 0.98648684 -0.15760227 0.0447799004
vn 0.992937651 -0.100890998 -0.0624165698
vn 0.998286566 -0.0101913529 -0.0576200306
vn 1 0 0
vn 0.960090235 -0.276307867 -0.0433670756
vn 0.392369016 0.919790653 0.00563117809
vn 0.987067543 -0.137129249 -0.0830255109
vn 0.998341317 0.00292237946 -0.0574984757
vn 0.991458139 0.0460921921 -0.1220093
vn 0.996410631 0.0708655051 -0.046302632
vn 0.995721491 0.0874737826 -0.0297833683
vn 0.993128789 0.116535489 -0.0107092322
vn 0.995862005 0.0897807992 -0.0140809982
vn 0.994928077 0.0864135512 0.0514861214
vn 0.985577952 0.107918651 0.130344408
vn 0.993363903 0.0477484167 0.104633859
vn 0.996668781 0.015294704 -0.0801087537
vn 0.972653952 0.170044568 -0.15820599
vn 0.998872544 -0.0473793614 0.00297260684
vn 0.95707515 0.0132999949 -0.289534571

g gun10_submesh_0
usemtl T740-Newlambert16
f 1/1/1 3/3/3 2/2/2
f 1/1/1 2/2/2 4/4/4
f 3/3/3 1/1/1 5/5/5
f 5/5/5 1/1/1 6/6/6
f 6/6/6 1/1/1 7/7/7
f 8/8/8 5/5/5 6/6/6
f 8/8/8 9/9/9 5/5/5
f 9/9/9 10/10/10 5/5/5
f 11/11/11 5/5/5 10/10/10
f 12/12/12 5/5/5 11/11/11
f 12/12/12 13/13/13 5/5/5
f 3/3/3 5/5/5 13/13/13
f 9/9/9 14/14/14 10/10/10
f 8/8/8 15/15/15 9/9/9
f 16/16/16 15/15/15 8/8/8
f 16/16/16 17/17/17 15/15/15
f 8/8/8 18/18/18 16/16/16
f 18/18/18 8/8/8 19/19/19
f 20/20/20 19/19/19 8/8/8
f 8/8/8 6/6/6 20/20/20
f 19/19/19 20/20/20 21/21/21
f 21/21/21 20/20/20 22/22/22
f 19/19/19 21/21/21 23/23/23
f 24/24/24 19/19/19 23/23/23
f 24/24/24 25/25/25 19/19/19
f 23/23/23 21/21/21 26/26/26
f 18/18/18 19/19/19 27/27/27
f 23/23/23 26/26/26 28/28/28
f 23/23/23 28/28/28 29/29/29
f 29/29/29 28/28/28 30/30/30
f 29/29/29 30/30/30 31/31/31
f 29/29/29 31/31/31 32/32/32
f 32/32/32 31/31/31 33/33/33
f 33/33/33 34/34/34 32/32/32
f 33/33/33 35/35/35 34/34/34
f 35/35/35 33/33/33 36/36/36
f 35/35/35 36/36/36 37/37/37
f 38/38/38 13/13/13 39/39/39
f 40/40/40 13/13/13 38/38/38
f 38/38/38 41/41/41 40/40/40
f 40/40/40 3/3/3 13/13/13
f 42/42/42 44/44/44 43/43/43
f 42/42/42 43/43/43 45/45/45
f 46/46/46 42/42/42 45/45/45
f 47/47/47 43/43/43 44/44/44
f 47/47/47 48/48/48 43/43/43
f 47/47/47 49/49/49 48/48/48
f 47/47/47 50/50/50 49/49/49
f 51/51/51 49/49/49 50/50/50
f 51/51/51 52/52/52 49/49/49
f 53/53/53 55/55/55 54/54/54
f 53/53/53 54/54/54 56/56/56
f 57/57/57 55/55/55 53/53/53
f 57/57/57 58/58/58 55/55/55
f 59/59/59 58/58/58 57/57/57
f 59/59/59 60/60/60 58/58/58
f 61/61/61 60/60/60 59/59/59
f 61/61/61 62/62/62 60/60/60
f 63/63/63 62/62/62 61/61/61
f 63/63/63 64/64/64 62/62/62
f 65/65/65 64/64/64 63/63/63
f 65/65/65 66/66/66 64/64/64
f 67/67/67 56/56/56 54/54/54
f 67/67/67 68/68/68 56/56/56
f 69/69/69 71/71/71 70/70/70
f 69/69/69 70/70/70 72/72/72
f 73/73/73 71/71/71 69/69/69
f 73/73/73 74/74/74 71/71/71
f 75/75/75 74/74/74 73/73/73
f 75/75/75 76/76/76 74/74/74
f 76/76/76 75/75/75 77/77/77
f 78/78/78 80/80/80 79/79/79
f 78/78/78 79/79/79 81/81/81
f 82/82/82 80/80/80 78/78/78
f 82/82/82 83/83/83 80/80/80
f 84/84/84 83/83/83 82/82/82
f 84/84/84 85/85/85 83/83/83
f 86/86/86 85/85/85 84/84/84
f 86/86/86 87/87/87 85/85/85
f 88/88/88 90/90/90 89/89/89
f 88/88/88 89/89/89 91/91/91
f 91/91/91 89/89/89 92/92/92
f 91/91/91 92/92/92 93/93/93
f 93/93/93 92/92/92 94/94/94
f 93/93/93 94/94/94 95/95/95
f 95/95/95 94/94/94 96/96/96
f 95/95/95 96/96/96 97/97/97
f 97/97/97 96/96/96 98/98/98
f 97/97/97 98/98/98 99/99/99
f 100/100/100 102/102/102 101/101/101
f 100/100/100 101/101/101 103/103/103
f 104/104/104 102/102/102 100/100/100
f 104/104/104 105/105/105 102/102/102
f 106/106/106 105/105/105 104/104/104
f 106/106/106 107/107/107 105/105/105
f 108/108/108 107/107/107 106/106/106
f 108/108/108 109/109/109 107/107/107
f 110/110/110 109/109/109 108/108/108
f 110/110/110 111/111/111 109/109/109
f 112/112/112 114/114/114 113/113/113
f 115/115/115 114/114/114 112/112/112
f 115/115/115 112/112/112 116/116/116
f 117/117/117 115/115/115 116/116/116
f 118/118/118 120/120/120 119/119/119
f 118/118/118 119/119/119 121/121/121
f 122/122/122 118/118/118 121/121/121
f 122/122/122 123/123/123 118/118/118
f 123/123/123 124/124/124 118/118/118
f 123/123/123 122/122/122 125/125/125
f 125/125/125 122/122/122 126/126/126
f 127/127/127 126/126/126 122/122/122
f 128/128/128 127/127/127 122/122/122
f 122/122/122 129/129/129 128/128/128
f 122/122/122 130/130/130 129/129/129
f 122/122/122 121/121/121 130/130/130
f 127/127/127 131/131/131 126/126/126
f 125/125/125 126/126/126 132/132/132
f 132/132/132 133/133/133 125/125/125
f 132/132/132 134/134/134 133/133/133
f 125/125/125 133/133/133 135/135/135
f 136/136/136 125/125/125 135/135/135
f 137/137/137 125/125/125 136/136/136
f 123/123/123 125/125/125 137/137/137
f 138/138/138 137/137/137 136/136/136
f 138/138/138 139/139/139 137/137/137
f 138/138/138 136/136/136 140/140/140
f 136/136/136 141/141/141 140/140/140
f 136/136/136 142/142/142 141/141/141
f 140/140/140 143/143/143 138/138/138
f 136/136/136 135/135/135 144/144/144
f 140/140/140 145/145/145 143/143/143
f 140/140/140 146/146/146 145/145/145
f 146/146/146 147/147/147 145/145/145
f 146/146/146 148/148/148 147/147/147
f 146/146/146 149/149/149 148/148/148
f 149/149/149 150/150/150 148/148/148
f 151/151/151 150/150/150 149/149/149
f 151/151/151 152/152/152 150/150/150
f 152/152/152 153/153/153 150/150/150
f 152/152/152 154/154/154 153/153/153
f 155/155/155 156/156/156 130/130/130
f 130/130/130 157/157/157 155/155/155
f 155/155/155 157/157/157 158/158/158
f 130/130/130 121/121/121 157/157/157
