# Generated from legacy Unity YAML Mesh assets without Unity.
mtllib gun19.mtl

o gun19
v -0.0335132331 0.152412519 -0.797112584
v -0.0500492342 0.177062139 0.112217128
v -0.0798387378 0.0619114488 0.0518369079
v -0.0255784858 0.17334877 -0.806239307
v -0.0765499771 0.0833028406 0.262904942
v -0.09621723 -0.00799788535 0.0905984044
v -0.0948744863 -0.00513185561 0.262904942
v -0.054463733 0.035968408 0.319116652
v -0.0385817327 0.076408729 -0.918967545
v -0.0289827343 0.149630412 -0.918967545
v -0.0532847308 -0.0892244726 0.118516386
v -0.0576184802 -0.0506314188 0.0495504737
v -0.0486122333 -0.0769552141 0.0488377213
v -0.0508492328 -0.0916460901 0.262904942
v -0.0291387346 -0.0736397654 0.315967977
v 0.0335132666 0.152412519 -0.797112584
v 0.0500490181 0.177062139 0.112217128
v 0.0255785156 0.17334877 -0.806239307
v 0.0798387676 0.0619114488 0.0518369079
v 0.0765497684 0.083303079 0.262904942
v 0.0385817662 0.076408729 -0.918967545
v 0.0289825145 0.149630412 -0.918967545
v 0.0962172598 -0.00799788535 0.0905984044
v 0.0954062641 -0.00398911536 0.262904942
v 0.053284768 -0.0892242342 0.118516386
v 0.0576185174 -0.0506311804 0.0495504737
v 0.0486120172 -0.0769549757 0.0488377213
v 0.0508490168 -0.0916460901 0.262904942
v 0.0291385148 -0.073639527 0.315967977
v 0.0544635169 0.035968408 0.319116652
v 0.0500490181 0.177062139 0.112217128
v -0.0255784858 0.17334877 -0.806239307
v 0.0255785156 0.17334877 -0.806239307
v -0.0500492342 0.177062139 0.112217128
v 0.0255785156 0.17334877 -0.806239307
v -0.0335132331 0.152412519 -0.797112584
v 0.0335132666 0.152412519 -0.797112584
v -0.0255784858 0.17334877 -0.806239307
v 0.0765497684 0.083303079 0.262904942
v -0.0500492342 0.177062139 0.112217128
v 0.0500490181 0.177062139 0.112217128
v -0.0765499771 0.0833028406 0.262904942
v 0.0544635169 0.035968408 0.319116652
v -0.054463733 0.035968408 0.319116652
v 0.0291385148 -0.073639527 0.315967977
v -0.0291387346 -0.0736397654 0.315967977
v 0.0962172598 -0.00799788535 0.0905984044
v -0.0576184802 -0.0506314188 0.0495504737
v 0.0576185174 -0.0506311804 0.0495504737
v -0.09621723 -0.00799788535 0.0905984044
v 0.0486120172 -0.0769549757 0.0488377213
v -0.0486122333 -0.0769552141 0.0488377213
v 0.0798387676 0.0619114488 0.0518369079
v -0.0798387378 0.0619114488 0.0518369079
v 0.0385817662 0.076408729 -0.918967545
v -0.0385817327 0.076408729 -0.918967545
v 0.0486120172 -0.0769549757 0.0488377213
v -0.0532847308 -0.0892244726 0.118516386
v 0.053284768 -0.0892242342 0.118516386
v -0.0486122333 -0.0769552141 0.0488377213
v -0.0508492328 -0.0916460901 0.262904942
v 0.0508490168 -0.0916460901 0.262904942
v -0.0291387346 -0.0736397654 0.315967977
v 0.0291385148 -0.073639527 0.315967977
v 0.0289825145 0.149630412 -0.918967545
v -0.0385817327 0.076408729 -0.918967545
v 0.0385817662 0.076408729 -0.918967545
v -0.0289827343 0.149630412 -0.918967545
v 0.0335132666 0.152412519 -0.797112584
v -0.0289827343 0.149630412 -0.918967545
v 0.0289825145 0.149630412 -0.918967545
v -0.0335132331 0.152412519 -0.797112584
v -0.0317654833 -0.0703455359 -0.0732936263
v -0.0251132343 0.0219474882 -0.0604118705
v -0.0317654833 -0.0735451132 -0.0140427947
v -0.0481594838 -0.104445592 -0.127362072
v -0.0481594838 -0.158440724 -0.0343883634
v -0.0364909843 0.0688596815 -0.0140427947
v -0.0251132343 0.0219474882 -0.146667778
v -0.0481594838 0.0688596815 -0.171903312
v -0.0317654833 -0.0368086249 -0.105490029
v -0.0481594838 -0.183700934 0.143185437
v -0.0317654833 -0.0750745684 0.263682425
v -0.0481594838 -0.180934802 0.229289114
v -0.0317654833 -0.154035226 0.261876404
v 0.0302445143 -0.0703455359 -0.0732936263
v 0.0302445143 -0.0735451132 -0.0140427947
v 0.0235922653 0.0219474882 -0.0604118705
v 0.0466387682 -0.104445592 -0.127362072
v 0.0466387682 -0.158440724 -0.0343883634
v 0.0349702686 0.0688596815 -0.0140427947
v 0.0235922653 0.0219474882 -0.146667778
v 0.0466387682 0.0688596815 -0.171903312
v 0.0302445143 -0.0368086249 -0.105490029
v 0.0466387682 -0.183701172 0.143185437
v 0.0302445143 -0.0750745684 0.263682425
v 0.0466387682 -0.180934802 0.229289114
v 0.0302445143 -0.154035226 0.261876404
v 0.0235922653 0.0219474882 -0.0604118705
v -0.0317654833 -0.0703455359 -0.0732936263
v 0.0302445143 -0.0703455359 -0.0732936263
v -0.0251132343 0.0219474882 -0.0604118705
v 0.0235922653 0.0219474882 -0.146667778
v -0.0251132343 0.0219474882 -0.146667778
v 0.0466387682 0.0688596815 -0.171903312
v -0.0481594838 0.0688596815 -0.171903312
v -0.0317654833 -0.0368086249 -0.105490029
v 0.0302445143 -0.0368086249 -0.105490029
v -0.0481594838 -0.104445592 -0.127362072
v 0.0466387682 -0.104445592 -0.127362072
v 0.0466387682 -0.104445592 -0.127362072
v -0.0481594838 -0.158440724 -0.0343883634
v 0.0466387682 -0.158440724 -0.0343883634
v -0.0481594838 -0.104445592 -0.127362072
v -0.0481594838 -0.183700934 0.143185437
v 0.0466387682 -0.183701172 0.143185437
v -0.0481594838 -0.180934802 0.229289114
v 0.0466387682 -0.180934802 0.229289114
v 0.0302445143 -0.0750745684 0.263682425
v -0.0317654833 -0.0735451132 -0.0140427947
v 0.0302445143 -0.0735451132 -0.0140427947
v -0.0317654833 -0.0750745684 0.263682425
v -0.0364909843 0.0688596815 -0.0140427947
v 0.0349702686 0.0688596815 -0.0140427947
v 0.0466387682 -0.180934802 0.229289114
v -0.0317654833 -0.154035226 0.261876404
v 0.0302445143 -0.154035226 0.261876404
v -0.0481594838 -0.180934802 0.229289114
v -0.0317654833 -0.0750745684 0.263682425
v 0.0302445143 -0.0750745684 0.263682425
v -0.0411769822 0.168005332 0.00535517931
v -0.00268698484 0.204744682 0.0820284486
v -0.0411769822 0.168005332 0.0937121511
v -0.00268698484 0.204744682 -0.00632852316
v 0.0358030163 0.168005332 0.00535517931
v -0.00268698484 0.204744682 0.0820284486
v -0.00268698484 0.204744682 -0.00632852316
v 0.0358030163 0.168005332 0.0937121511
v 0.0358030163 0.168005332 0.0937121511
v -0.0411769822 0.168005332 0.0937121511
v -0.00268698484 0.204744682 0.0820284486
v -0.00268698484 0.204744682 -0.00632852316
v -0.0411769822 0.168005332 0.00535517931
v 0.0358030163 0.168005332 0.00535517931
vt 0.114946 0.969969988
vt 0.815620005 0.99198401
vt 0.770155013 0.900123
vt 0.107711002 0.987136006
vt 0.930454016 0.918120027
vt 0.800598025 0.846071005
vt 0.927654028 0.852629006
vt 0.979183972 0.879895985
vt 0.0213179998 0.910821021
vt 0.0209759995 0.967732012
vt 0.824995995 0.777447999
vt 0.770187974 0.801944017
vt 0.771326005 0.780865014
vt 0.934576988 0.781057
vt 0.980387986 0.792542994
vt 0.114946 0.969969988
vt 0.815620005 0.99198401
vt 0.107711002 0.987136006
vt 0.770155013 0.900121987
vt 0.930454016 0.918120027
vt 0.0213179998 0.910821021
vt 0.0209759995 0.967732012
vt 0.800598025 0.846071005
vt 0.927654028 0.852629006
vt 0.824995995 0.777447999
vt 0.770187974 0.801944017
vt 0.771326005 0.780865014
vt 0.934576988 0.781057
vt 0.980387986 0.792542994
vt 0.979183972 0.879895985
vt 0.981889009 0.584181011
vt 0.261705011 0.516021013
vt 0.261462003 0.565101027
vt 0.982363999 0.505653024
vt 0.261462003 0.565101027
vt 0.243824005 0.514159977
vt 0.243506998 0.566745996
vt 0.261705011 0.516021013
vt 0.138021007 0.736286998
vt 0.0316420011 0.888005018
vt 0.116720997 0.887314975
vt 0.00789400004 0.737343013
vt 0.118743002 0.673978984
vt 0.0261599999 0.674730003
vt 0.0964609981 0.580954015
vt 0.0469290018 0.581354976
vt 0.718221009 0.588297009
vt 0.749445021 0.673731983
vt 0.750518024 0.610145986
vt 0.716430008 0.694478989
vt 0.764963984 0.615360975
vt 0.76406002 0.669008017
vt 0.673961997 0.596590996
vt 0.67247498 0.684697986
vt 0.137845993 0.610318005
vt 0.137127995 0.652895987
vt 0.983097017 0.671728015
vt 0.930302024 0.596279025
vt 0.930590987 0.675388992
vt 0.982833982 0.599556029
vt 0.823108971 0.598475993
vt 0.823383987 0.673969984
vt 0.781571984 0.614744008
vt 0.781728983 0.658004999
vt 0.213505 0.887980998
vt 0.309358001 0.784637988
vt 0.200198993 0.784354985
vt 0.295520008 0.888190985
vt 0.243506998 0.566745996
vt 0.148170993 0.517135978
vt 0.147897005 0.562614024
vt 0.243824005 0.514159977
vt 0.715911984 0.770694017
vt 0.72387898 0.842848003
vt 0.762003005 0.769519985
vt 0.674166024 0.740918994
vt 0.748049021 0.701927006
vt 0.760055006 0.880214989
vt 0.656858027 0.842594028
vt 0.637095988 0.883131027
vt 0.689612985 0.795457006
vt 0.886554003 0.686450005
vt 0.977747023 0.774405003
vt 0.953372002 0.69045198
vt 0.980349004 0.713091016
vt 0.715911984 0.770694017
vt 0.762003005 0.769519985
vt 0.72387898 0.842848003
vt 0.674166024 0.740918994
vt 0.748049021 0.701927006
vt 0.760055006 0.880214989
vt 0.656858027 0.842594028
vt 0.637095988 0.883131027
vt 0.689612985 0.795457006
vt 0.886552989 0.686450005
vt 0.977747023 0.774405003
vt 0.953372002 0.69045198
vt 0.980349004 0.713091016
vt 0.557892025 0.81495899
vt 0.590399027 0.765725017
vt 0.553986013 0.765725017
vt 0.586493015 0.81495899
vt 0.557892025 0.860530019
vt 0.586493015 0.860530019
vt 0.544359028 0.888674021
vt 0.600026011 0.888674021
vt 0.590399027 0.741163015
vt 0.553986013 0.741163015
vt 0.600026011 0.703607023
vt 0.544359028 0.703607023
vt 0.306614995 0.763539016
vt 0.370029002 0.706821024
vt 0.370427996 0.763086975
vt 0.306216002 0.707273006
vt 0.476485014 0.706067979
vt 0.476882994 0.762332976
vt 0.527616024 0.705706
vt 0.528014004 0.761970997
vt 0.187488005 0.667277992
vt 0.151800007 0.815836012
vt 0.185087994 0.816371977
vt 0.154199004 0.666742027
vt 0.148031995 0.892242014
vt 0.186395004 0.892858982
vt 0.674901009 0.701906025
vt 0.619993985 0.731748998
vt 0.663502991 0.73159498
vt 0.60838598 0.702142
vt 0.620190024 0.787165999
vt 0.663699985 0.787011981
vt 0.440198988 0.789502978
vt 0.512052 0.825281024
vt 0.522864997 0.789233983
vt 0.42938599 0.82555002
vt 0.440198988 0.789503992
vt 0.512052 0.825281024
vt 0.42938599 0.82555002
vt 0.522864997 0.789233983
vt 0.414205015 0.792080998
vt 0.325004011 0.792080998
vt 0.369605005 0.83465302
vt 0.369605005 0.83465302
vt 0.325004011 0.791401982
vt 0.414205015 0.791401982
vn -0.975436099 0.218074549 -0.0311112132
vn -0.961850264 0.272630313 -0.0227328283
vn -0.976386868 0.214296365 -0.0273084629
vn -0.938528529 0.344190925 -0.0263971187
vn -0.972490803 0.2292198 0.0414719363
vn -0.997303146 -0.0697801155 -0.0227413682
vn -0.961665985 -0.223547266 0.158824282
vn -0.809053637 -0.1482244 0.568736969
vn -0.990652293 0.130379518 -0.0401150409
vn -0.990730626 0.129879855 -0.0398001313
vn -0.886148872 -0.462270409 -0.0323457335
vn -0.859279481 -0.467481649 -0.207604628
vn -0.940399733 -0.318516009 -0.119146524
vn -0.869186185 -0.385202024 0.310056087
vn -0.876206611 -0.214840438 0.431399538
vn 0.975435855 0.218075647 -0.0311111638
vn 0.961849827 0.272631879 -0.0227325365
vn 0.938528446 0.344191171 -0.0263968662
vn 0.976386634 0.214297463 -0.0273082287
vn 0.971848411 0.232108724 0.0404500535
vn 0.990652238 0.130379867 -0.0401152611
vn 0.9907301 0.129883214 -0.0398022481
vn 0.997361655 -0.0684623332 -0.0241379016
vn 0.95614726 -0.223486134 0.189304955
vn 0.886280593 -0.462044568 -0.0319613422
vn 0.859277728 -0.467484191 -0.207606161
vn 0.940396504 -0.31852383 -0.119151104
vn 0.882244576 -0.448457066 0.143285617
vn 0.761652269 -0.279153717 0.584772626
vn 0.79551275 -0.0358066982 0.604877958
vn 0 0.999991827 -0.0040430214
vn 0 0.999991827 -0.0040430214
vn 0 0.999991827 -0.0040430214
vn 0 0.999991827 -0.0040430214
vn 0 -0.399609882 -0.916685302
vn 0 -0.399609882 -0.916685302
vn 0 -0.399609882 -0.916685302
vn 0 -0.399609882 -0.916685302
vn -8.79377477e-07 0.833583045 0.55239416
vn -7.99501389e-07 0.84906198 0.528293246
vn 0 0.849062281 0.528292762
vn -1.06515254e-06 0.816197801 0.577772576
vn -4.73977132e-07 0.508780928 0.860896026
vn 3.10970381e-08 0.231829513 0.972756433
vn 4.09447646e-08 -0.0287148295 0.999587644
vn 1.17475259e-07 -0.0287147712 0.999587646
vn -3.61550169e-07 0.191005992 -0.981588871
vn -4.46917198e-07 0.564059045 -0.825734457
vn -1.07174575e-06 0.518016521 -0.855370612
vn 0 -0.172550297 -0.985000708
vn -6.07465156e-08 0.027066432 -0.999633637
vn -6.63737167e-08 0.0270664093 -0.999633638
vn 0 -0.987491218 -0.157674013
vn 0 -0.998094648 -0.0617014907
vn 0 -0.999888517 -0.0149316002
vn 0 -0.999888517 -0.0149316002
vn 2.30435172e-06 -0.984848743 -0.173415549
vn 2.27657635e-06 -0.995682125 -0.0928283675
vn 1.35952173e-06 -0.998834578 -0.0482647425
vn 2.41509956e-06 -0.984848771 -0.173415392
vn 9.69915157e-07 -0.999300992 0.0373835125
vn 5.42455979e-07 -0.993600381 0.112952572
vn 1.41130076e-06 -0.946962875 0.321342983
vn 3.87412372e-06 -0.946961746 0.321346312
vn 0 0 -1
vn 0 0 -1
vn 0 0 -1
vn 0 0 -1
vn 0 0.999739468 -0.0228253454
vn 0 0.999739468 -0.0228253454
vn 0 0.999739468 -0.0228253454
vn 0 0.999739468 -0.0228253454
vn -0.982818619 0.175311417 0.0577362002
vn -0.995158148 -0.0496593492 -0.0848186903
vn -0.989456675 0.14482917 -6.262921e-06
vn -0.97260007 0.208605384 0.102629909
vn -0.982778973 0.17733256 0.0519485574
vn -0.96874599 -0.243814562 -0.0456690876
vn -0.934573166 -0.352955304 0.0446715806
vn -0.909347487 -0.410571777 0.0672157986
vn -0.967396215 0.175398735 0.182701522
vn -0.987185377 0.159420801 0.00707394119
vn -0.989666547 0.140193434 0.0300986273
vn -0.987229657 0.118181391 0.106821177
vn -0.889790629 -0.0104355301 0.456249643
vn 0.982818201 0.175313488 0.0577370373
vn 0.989456405 0.144831013 -6.24871639e-06
vn 0.99515792 -0.0496614069 -0.0848201606
vn 0.972599257 0.208608433 0.102631409
vn 0.982778453 0.177335172 0.0519494787
vn 0.968745 -0.243818261 -0.0456703389
vn 0.934571502 -0.352959722 0.044671501
vn 0.909345654 -0.410575859 0.0672156631
vn 0.967395257 0.175401271 0.182704164
vn 0.987185017 0.159423024 0.00707403983
vn 0.989666263 0.140195366 0.0300989497
vn 0.987229287 0.118183257 0.106822529
vn 0.889787765 -0.0104356578 0.456255225
vn 0 -0.262073531 -0.965047908
vn 0 0.387663602 -0.921800918
vn 0 0.950653752 -0.310253837
vn 0 -0.865718627 -0.500530977
vn 0 -0.972994929 -0.230826488
vn 0 -0.757960053 -0.652300972
vn 0 -0.47373773 -0.880665977
vn 0 -0.47373773 -0.880665977
vn 0 0.999978693 -0.00652795076
vn 0 0.536897893 -0.843647232
vn 0 0.307686512 -0.951487788
vn 0 0.307686512 -0.951487788
vn 0 -0.864746947 -0.502207843
vn 0 -0.938910236 -0.344162125
vn -9.70556981e-07 -0.973863253 -0.227135122
vn 0 -0.864746947 -0.502207843
vn -1.49416385e-06 -0.994194597 -0.10759695
vn -1.89289591e-06 -0.998413258 -0.0563113303
vn -1.25685668e-06 -0.999484328 0.032110418
vn 0 -0.999484283 0.0321118004
vn 0 0.999984836 0.00550699715
vn 0 0.967377094 0.253340796
vn 0 0.669611751 0.742711319
vn 0 0.999984836 0.00550699715
vn 0 -2.19269461e-16 1
vn 0 -2.19269461e-16 1
vn 0 -0.77119827 0.636595027
vn 0 -0.497122089 0.867680603
vn 0 -0.192209628 0.981353891
vn 0 -0.77119827 0.636595027
vn 0 -0.0228664322 0.999738529
vn 0 -0.0228664322 0.999738529
vn -0.690464903 0.723365895 2.28920853e-16
vn -0.690464903 0.723365895 2.28920853e-16
vn -0.690464903 0.723365895 2.27230929e-16
vn -0.690464903 0.723365895 2.30610776e-16
vn 0.690464868 0.723365928 2.28920852e-16
vn 0.690464868 0.723365928 2.28920852e-16
vn 0.690464868 0.723365928 2.30610764e-16
vn 0.690464868 0.723365928 2.2723094e-16
vn 0 0.303060197 0.952971414
vn 0 0.303060197 0.952971414
vn 0 0.303060197 0.952971414
vn 0 -0.303060197 -0.952971414
vn 0 -0.303060197 -0.952971414
vn 0 -0.303060197 -0.952971414

g gun19_submesh_0
usemtl gun0708
f 1/1/1 3/3/3 2/2/2
f 1/1/1 2/2/2 4/4/4
f 5/5/5 2/2/2 3/3/3
f 5/5/5 3/3/3 6/6/6
f 5/5/5 6/6/6 7/7/7
f 5/5/5 7/7/7 8/8/8
f 1/1/1 9/9/9 3/3/3
f 10/10/10 9/9/9 1/1/1
f 7/7/7 6/6/6 11/11/11
f 11/11/11 6/6/6 12/12/12
f 11/11/11 12/12/12 13/13/13
f 7/7/7 11/11/11 14/14/14
f 8/8/8 7/7/7 14/14/14
f 8/8/8 14/14/14 15/15/15
f 16/16/16 18/18/18 17/17/17
f 16/16/16 17/17/17 19/19/19
f 20/20/20 19/19/19 17/17/17
f 16/16/16 19/19/19 21/21/21
f 22/22/22 16/16/16 21/21/21
f 20/20/20 23/23/23 19/19/19
f 20/20/20 24/24/24 23/23/23
f 24/24/24 25/25/25 23/23/23
f 25/25/25 26/26/26 23/23/23
f 25/25/25 27/27/27 26/26/26
f 24/24/24 28/28/28 25/25/25
f 24/24/24 29/29/29 28/28/28
f 24/24/24 30/30/30 29/29/29
f 20/20/20 30/30/30 24/24/24
f 31/31/31 33/33/33 32/32/32
f 31/31/31 32/32/32 34/34/34
f 35/35/35 37/37/37 36/36/36
f 35/35/35 36/36/36 38/38/38
f 39/39/39 41/41/41 40/40/40
f 39/39/39 40/40/40 42/42/42
f 43/43/43 39/39/39 42/42/42
f 43/43/43 42/42/42 44/44/44
f 45/45/45 43/43/43 44/44/44
f 45/45/45 44/44/44 46/46/46
f 47/47/47 49/49/49 48/48/48
f 47/47/47 48/48/48 50/50/50
f 48/48/48 49/49/49 51/51/51
f 48/48/48 51/51/51 52/52/52
f 53/53/53 47/47/47 50/50/50
f 53/53/53 50/50/50 54/54/54
f 55/55/55 53/53/53 54/54/54
f 55/55/55 54/54/54 56/56/56
f 57/57/57 59/59/59 58/58/58
f 57/57/57 58/58/58 60/60/60
f 59/59/59 61/61/61 58/58/58
f 59/59/59 62/62/62 61/61/61
f 62/62/62 63/63/63 61/61/61
f 62/62/62 64/64/64 63/63/63
f 65/65/65 67/67/67 66/66/66
f 65/65/65 66/66/66 68/68/68
f 69/69/69 71/71/71 70/70/70
f 69/69/69 70/70/70 72/72/72
f 73/73/73 75/75/75 74/74/74
f 76/76/76 75/75/75 73/73/73
f 76/76/76 77/77/77 75/75/75
f 75/75/75 78/78/78 74/74/74
f 78/78/78 79/79/79 74/74/74
f 78/78/78 80/80/80 79/79/79
f 76/76/76 73/73/73 81/81/81
f 82/82/82 75/75/75 77/77/77
f 83/83/83 75/75/75 82/82/82
f 83/83/83 82/82/82 84/84/84
f 83/83/83 84/84/84 85/85/85
f 86/86/86 88/88/88 87/87/87
f 89/89/89 86/86/86 87/87/87
f 89/89/89 87/87/87 90/90/90
f 87/87/87 88/88/88 91/91/91
f 91/91/91 88/88/88 92/92/92
f 91/91/91 92/92/92 93/93/93
f 89/89/89 94/94/94 86/86/86
f 87/87/87 95/95/95 90/90/90
f 96/96/96 95/95/95 87/87/87
f 96/96/96 97/97/97 95/95/95
f 96/96/96 98/98/98 97/97/97
f 99/99/99 101/101/101 100/100/100
f 99/99/99 100/100/100 102/102/102
f 103/103/103 99/99/99 102/102/102
f 103/103/103 102/102/102 104/104/104
f 105/105/105 103/103/103 104/104/104
f 105/105/105 104/104/104 106/106/106
f 101/101/101 107/107/107 100/100/100
f 101/101/101 108/108/108 107/107/107
f 108/108/108 109/109/109 107/107/107
f 108/108/108 110/110/110 109/109/109
f 111/111/111 113/113/113 112/112/112
f 111/111/111 112/112/112 114/114/114
f 113/113/113 115/115/115 112/112/112
f 113/113/113 116/116/116 115/115/115
f 116/116/116 117/117/117 115/115/115
f 116/116/116 118/118/118 117/117/117
f 119/119/119 121/121/121 120/120/120
f 119/119/119 120/120/120 122/122/122
f 121/121/121 123/123/123 120/120/120
f 121/121/121 124/124/124 123/123/123
f 125/125/125 127/127/127 126/126/126
f 125/125/125 126/126/126 128/128/128
f 127/127/127 129/129/129 126/126/126
f 127/127/127 130/130/130 129/129/129
f 131/131/131 133/133/133 132/132/132
f 131/131/131 132/132/132 134/134/134
f 135/135/135 137/137/137 136/136/136
f 135/135/135 136/136/136 138/138/138
f 139/139/139 141/141/141 140/140/140
f 142/142/142 144/144/144 143/143/143
