# Generated by tools/yaml_mesh_converter/split_reload_parts.py
mtllib gun15.mtl
o gun15_reload
v 0.121829137 -0.0228415355 -0.477775574
vt 0.601800025 0.766499996
vn 0.919969758 -0.388866675 0.049379676
v 0.121829145 -0.0446452871 -0.563628435
vt 0.653900027 0.753499985
vn 0.924373931 -0.369749715 0.0939041249
v 0.203048542 0.158403128 -0.563628435
vt 0.652899981 0.877600014
vn 0.998811389 -5.45676992e-17 0.0487422731
v 0.121829137 -0.0228415355 -0.477775574
vt 0.601800025 0.766499996
vn 0.919969758 -0.388866675 0.049379676
v 0.203048542 0.158403128 -0.563628435
vt 0.652899981 0.877600014
vn 0.998811389 -5.45676992e-17 0.0487422731
v 0.203048527 0.158403128 -0.477775574
vt 0.600899994 0.877099991
vn 1 0 1.73566273e-07
v 0.203048542 0.158403128 -0.563628435
vt 0.652899981 0.877600014
vn 0.998811389 -5.45676992e-17 0.0487422731
v 0.121829137 0.327928215 -0.477775574
vt 0.600000024 0.980799973
vn 0.908792704 0.415368419 0.0395587888
v 0.203048527 0.158403128 -0.477775574
vt 0.600899994 0.877099991
vn 1 0 1.73566273e-07
v 0.203048542 0.158403128 -0.563628435
vt 0.652899981 0.877600014
vn 0.998811389 -5.45676992e-17 0.0487422731
v 0.121829145 0.344281048 -0.563628435
vt 0.651899993 0.991100013
vn 0.913688883 0.399236557 0.0760447023
v 0.121829137 0.327928215 -0.477775574
vt 0.600000024 0.980799973
vn 0.908792704 0.415368419 0.0395587888
v -0.121829063 -0.0228415355 -0.477775633
vt 0.601800025 0.766499996
vn -0.919969755 -0.388866709 0.0493794751
v -0.203048468 0.158403128 -0.477775633
vt 0.600899994 0.877099991
vn -1 0 -1.73566394e-07
v -0.203048453 0.158403128 -0.563628435
vt 0.652899981 0.877600014
vn -0.9988114 -5.45677377e-17 0.0487420519
v -0.121829063 -0.0228415355 -0.477775633
vt 0.601800025 0.766499996
vn -0.919969755 -0.388866709 0.0493794751
v -0.203048453 0.158403128 -0.563628435
vt 0.652899981 0.877600014
vn -0.9988114 -5.45677377e-17 0.0487420519
v -0.121829055 -0.0446452871 -0.563628435
vt 0.653900027 0.753499985
vn -0.924373939 -0.369749718 0.0939040305
v -0.203048453 0.158403128 -0.563628435
vt 0.652899981 0.877600014
vn -0.9988114 -5.45677377e-17 0.0487420519
v -0.203048468 0.158403128 -0.477775633
vt 0.600899994 0.877099991
vn -1 0 -1.73566394e-07
v -0.121829063 0.327928215 -0.477775633
vt 0.600000024 0.980799973
vn -0.908792697 0.415368454 0.039558583
v -0.203048453 0.158403128 -0.563628435
vt 0.652899981 0.877600014
vn -0.9988114 -5.45677377e-17 0.0487420519
v -0.121829063 0.327928215 -0.477775633
vt 0.600000024 0.980799973
vn -0.908792697 0.415368454 0.039558583
v -0.121829055 0.344281048 -0.563628435
vt 0.651899993 0.991100013
vn -0.91368889 0.399236561 0.0760445971
v -0.121829055 -0.0446452871 -0.563628435
vt 0.991699994 0.556800008
vn -3.01073855e-08 -0.969231152 0.246152339
v 0.121829145 -0.0446452871 -0.563628435
vt 0.886600018 0.555700004
vn 0 -0.969231172 0.246152258
v 0.121829137 -0.0228415355 -0.477775574
vt 0.887000024 0.509800017
vn -3.01073855e-08 -0.969231152 0.246152339
v -0.121829055 -0.0446452871 -0.563628435
vt 0.991699994 0.556800008
vn -3.01073855e-08 -0.969231152 0.246152339
v 0.121829137 -0.0228415355 -0.477775574
vt 0.887000024 0.509800017
vn -3.01073855e-08 -0.969231152 0.246152339
v -0.121829063 -0.0228415355 -0.477775633
vt 0.9921 0.510900021
vn -6.02147906e-08 -0.969231132 0.246152419
v -0.121829063 0.327928215 -0.477775633
vt 0.992900014 0.603699982
vn -2.28859378e-08 0.982338751 0.187111136
v 0.121829137 0.327928215 -0.477775574
vt 0.882799983 0.602800012
vn -4.57718603e-08 0.982338763 0.187111074
v 0.121829145 0.344281048 -0.563628435
vt 0.883099973 0.561800003
vn -2.28859378e-08 0.982338751 0.187111136
v -0.121829063 0.327928215 -0.477775633
vt 0.992900014 0.603699982
vn -2.28859378e-08 0.982338751 0.187111136
v 0.121829145 0.344281048 -0.563628435
vt 0.883099973 0.561800003
vn -2.28859378e-08 0.982338751 0.187111136
v -0.121829055 0.344281048 -0.563628435
vt 0.993300021 0.562699974
vn 0 0.98233874 0.187111199
v 0.121829145 0.344281048 -0.563628435
vt 0.704100013 0.692399979
vn 0 5.97286127e-16 -1
v 0.203048542 0.158403128 -0.563628435
vt 0.67900002 0.633400023
vn 0 2.17368834e-16 -1
v -0.203048453 0.158403128 -0.563628435
vt 0.807299972 0.634500027
vn 0 3.54949723e-16 -1
v 0.121829145 0.344281048 -0.563628435
vt 0.704100013 0.692399979
vn 0 5.97286127e-16 -1
v -0.203048453 0.158403128 -0.563628435
vt 0.807299972 0.634500027
vn 0 3.54949723e-16 -1
v -0.121829055 0.344281048 -0.563628435
vt 0.781099975 0.693000019
vn 0 5.97286127e-16 -1
v 0.203048542 0.158403128 -0.563628435
vt 0.67900002 0.633400023
vn 0 2.17368834e-16 -1
v -0.121829055 -0.0446452871 -0.563628435
vt 0.782199979 0.570200026
vn 0 0 -1
v -0.203048453 0.158403128 -0.563628435
vt 0.807299972 0.634500027
vn 0 3.54949723e-16 -1
v 0.203048542 0.158403128 -0.563628435
vt 0.67900002 0.633400023
vn 0 2.17368834e-16 -1
v 0.121829145 -0.0446452871 -0.563628435
vt 0.705200016 0.569500029
vn 0 0 -1
v -0.121829055 -0.0446452871 -0.563628435
vt 0.782199979 0.570200026
vn 0 0 -1
v -0.203048468 0.158403128 -0.477775633
vt 0.566100001 0.547800004
vn -1.69930983e-07 2.59423247e-08 1
v -0.121829063 -0.0228415355 -0.477775633
vt 0.586099982 0.504100025
vn -2.44624005e-07 -1.09620972e-07 1
v 0.121829137 -0.0228415355 -0.477775574
vt 0.645099998 0.504599988
vn -1.83468005e-07 -7.84825485e-15 1
v -0.203048468 0.158403128 -0.477775633
vt 0.566100001 0.547800004
vn -1.69930983e-07 2.59423247e-08 1
v 0.121829137 -0.0228415355 -0.477775574
vt 0.645099998 0.504599988
vn -1.83468005e-07 -7.84825485e-15 1
v 0.203048527 0.158403128 -0.477775574
vt 0.664300025 0.548600018
vn -1.68770232e-07 2.63454809e-08 1
v -0.121829063 0.327928215 -0.477775633
vt 0.585399985 0.588999987
vn -1.83468005e-07 8.063368e-15 1
v -0.203048468 0.158403128 -0.477775633
vt 0.566100001 0.547800004
vn -1.69930983e-07 2.59423247e-08 1
v 0.203048527 0.158403128 -0.477775574
vt 0.664300025 0.548600018
vn -1.68770232e-07 2.63454809e-08 1
v -0.121829063 0.327928215 -0.477775633
vt 0.585399985 0.588999987
vn -1.83468005e-07 8.063368e-15 1
v 0.203048527 0.158403128 -0.477775574
vt 0.664300025 0.548600018
vn -1.68770232e-07 2.63454809e-08 1
v 0.121829137 0.327928215 -0.477775574
vt 0.644400001 0.58950001
vn -2.44624005e-07 -1.17199247e-07 1
v 0.100570366 0.00768391043 -0.490585387
vt 0.603999972 0.792400002
vn 0.917968567 -0.396653136 1.50445262e-07
v 0.167344704 0.162218779 -0.490585357
vt 0.603200018 0.880800009
vn 0.988660426 0.150168444 1.65828033e-07
v 0.167344645 0.162218779 -0.149627537
vt 0.432000011 0.879299998
vn 0.989245093 -0.146267375 1.65538207e-07
v 0.100570366 0.00768391043 -0.490585387
vt 0.603999972 0.792400002
vn 0.917968567 -0.396653136 1.50445262e-07
v 0.167344645 0.162218779 -0.149627537
vt 0.432000011 0.879299998
vn 0.989245093 -0.146267375 1.65538207e-07
v 0.100570314 0.00768391043 -0.149627537
vt 0.432700008 0.790899992
vn 0.917968575 -0.396653117 1.40415573e-07
v 0.167344704 0.162218779 -0.490585357
vt 0.603200018 0.880800009
vn 0.988660426 0.150168444 1.65828033e-07
v 0.100570314 0.304761648 -0.149627537
vt 0.431300014 0.967700005
vn 0.905563001 0.4242118 1.48412122e-07
v 0.167344645 0.162218779 -0.149627537
vt 0.432000011 0.879299998
vn 0.989245093 -0.146267375 1.65538207e-07
v 0.167344704 0.162218779 -0.490585357
vt 0.603200018 0.880800009
vn 0.988660426 0.150168444 1.65828033e-07
v 0.100570366 0.304761648 -0.490585387
vt 0.602500021 0.969200015
vn 0.905562992 0.424211819 1.38517973e-07
v 0.100570314 0.304761648 -0.149627537
vt 0.431300014 0.967700005
vn 0.905563001 0.4242118 1.48412122e-07
v -0.167344689 0.162218779 -0.149627581
vt 0.603200018 0.880800009
vn -1 1.71261397e-17 -1.63889343e-07
v -0.16734463 0.162218779 -0.490585417
vt 0.432000011 0.879299998
vn -1 0 -1.74815296e-07
v -0.100570291 0.00768391043 -0.490585387
vt 0.432700008 0.790899992
vn -0.917968551 -0.396653173 -1.50445263e-07
v -0.167344689 0.162218779 -0.149627581
vt 0.603200018 0.880800009
vn -1 1.71261397e-17 -1.63889343e-07
v -0.100570291 0.00768391043 -0.490585387
vt 0.432700008 0.790899992
vn -0.917968551 -0.396653173 -1.50445263e-07
v -0.100570343 0.00768391043 -0.149627566
vt 0.603999972 0.792400002
vn -0.917968543 -0.396653192 -1.40415581e-07
v -0.167344689 0.162218779 -0.149627581
vt 0.603200018 0.880800009
vn -1 1.71261397e-17 -1.63889343e-07
v -0.100570291 0.304761648 -0.490585387
vt 0.431300014 0.967700005
vn -0.905562983 0.424211839 -1.48412122e-07
v -0.16734463 0.162218779 -0.490585417
vt 0.432000011 0.879299998
vn -1 0 -1.74815296e-07
v -0.167344689 0.162218779 -0.149627581
vt 0.603200018 0.880800009
vn -1 1.71261397e-17 -1.63889343e-07
v -0.100570343 0.304761648 -0.149627566
vt 0.602500021 0.969200015
vn -0.905562974 0.424211858 -1.38517983e-07
v -0.100570291 0.304761648 -0.490585387
vt 0.431300014 0.967700005
vn -0.905562983 0.424211839 -1.48412122e-07
v -0.100570291 0.00768391043 -0.490585387
vt 0.877900004 0.602199972
vn 1.65845047e-23 -1 -2.23862968e-16
v 0.100570366 0.00768391043 -0.490585387
vt 0.818099976 0.601700008
vn 0 -1 -2.23862958e-16
v 0.100570314 0.00768391043 -0.149627537
vt 0.818899989 0.504800022
vn 1.65845047e-23 -1 -2.23862968e-16
v -0.100570291 0.00768391043 -0.490585387
vt 0.877900004 0.602199972
vn 1.65845047e-23 -1 -2.23862968e-16
v 0.100570314 0.00768391043 -0.149627537
vt 0.818899989 0.504800022
vn 1.65845047e-23 -1 -2.23862968e-16
v -0.100570343 0.00768391043 -0.149627566
vt 0.878700018 0.505299985
vn 3.31690108e-23 -1 -2.23862978e-16
v -0.100570343 0.304761648 -0.149627566
vt 0.812399983 0.695100009
vn -1.2061458e-23 1 1.62809431e-16
v 0.100570314 0.304761648 -0.149627537
vt 0.813199997 0.607599974
vn -2.41229149e-23 1 1.62809424e-16
v 0.100570366 0.304761648 -0.490585387
vt 0.9551 0.608799994
vn -1.2061458e-23 1 1.62809431e-16
v -0.100570343 0.304761648 -0.149627566
vt 0.812399983 0.695100009
vn -1.2061458e-23 1 1.62809431e-16
v 0.100570366 0.304761648 -0.490585387
vt 0.9551 0.608799994
vn -1.2061458e-23 1 1.62809431e-16
v -0.100570291 0.304761648 -0.490585387
vt 0.954299986 0.69630003
vn 0 1 1.62809438e-16
v 0.0929389596 -0.00866894424 -0.158349067
vt 0.432500005 0.768299997
vn 0.884674495 -0.466209221 -4.82494143e-17
v 0.183424994 0.163036555 -0.158349067
vt 0.431600004 0.874599993
vn 0.984040984 0.177941964 3.05280712e-16
v 0.183424994 0.163036555 -0.124825582
vt 0.397599995 0.874300003
vn 0.984489587 -0.17544302 -3.63142746e-17
v 0.0929389596 -0.00866894424 -0.158349067
vt 0.432500005 0.768299997
vn 0.884674495 -0.466209221 -4.82494143e-17
v 0.183424994 0.163036555 -0.124825582
vt 0.397599995 0.874300003
vn 0.984489587 -0.17544302 -3.63142746e-17
v 0.0929389596 -0.00866894424 -0.124825597
vt 0.398499995 0.768000007
vn 0.884674495 -0.466209221 -9.64988501e-17
v 0.183424994 0.163036555 -0.158349067
vt 0.431600004 0.874599993
vn 0.984040984 0.177941964 3.05280712e-16
v 0.0929389596 0.32738319 -0.124825597
vt 0.396699995 0.981299996
vn 0.876001132 0.482309046 4.13729321e-16
v 0.183424994 0.163036555 -0.124825582
vt 0.397599995 0.874300003
vn 0.984489587 -0.17544302 -3.63142746e-17
v 0.183424994 0.163036555 -0.158349067
vt 0.431600004 0.874599993
vn 0.984040984 0.177941964 3.05280712e-16
v 0.0929389596 0.32738319 -0.158349067
vt 0.430700004 0.981599987
vn 0.876001132 0.482309046 8.27458826e-16
v 0.0929389596 0.32738319 -0.124825597
vt 0.396699995 0.981299996
vn 0.876001132 0.482309046 4.13729321e-16
v -0.183425024 0.163036555 -0.124825642
vt 0.431600004 0.874599993
vn -1 -7.69918113e-17 2.30975434e-16
v -0.183425024 0.163036555 -0.158349127
vt 0.397599995 0.874300003
vn -1 0 0
v -0.0929390043 -0.00866894424 -0.158349097
vt 0.398499995 0.768000007
vn -0.884674527 -0.466209161 0
v -0.183425024 0.163036555 -0.124825642
vt 0.431600004 0.874599993
vn -1 -7.69918113e-17 2.30975434e-16
v -0.0929390043 -0.00866894424 -0.158349097
vt 0.398499995 0.768000007
vn -0.884674527 -0.466209161 0
v -0.0929390043 -0.00866894424 -0.124825627
vt 0.432500005 0.768299997
vn -0.884674527 -0.466209161 0
v -0.183425024 0.163036555 -0.124825642
vt 0.431600004 0.874599993
vn -1 -7.69918113e-17 2.30975434e-16
v -0.0929390043 0.32738319 -0.158349097
vt 0.396699995 0.981299996
vn -0.876001166 0.482308985 4.13729337e-16
v -0.183425024 0.163036555 -0.158349127
vt 0.397599995 0.874300003
vn -1 0 0
v -0.183425024 0.163036555 -0.124825642
vt 0.431600004 0.874599993
vn -1 -7.69918113e-17 2.30975434e-16
v -0.0929390043 0.32738319 -0.124825627
vt 0.430700004 0.981599987
vn -0.876001166 0.482308985 8.27458858e-16
v -0.0929390043 0.32738319 -0.158349097
vt 0.396699995 0.981299996
vn -0.876001166 0.482308985 4.13729337e-16
v -0.0929390043 -0.00866894424 -0.158349097
vt 0.993700027 0.608799994
vn 3.3186655e-23 -1 -2.06986146e-16
v 0.0929389596 -0.00866894424 -0.158349067
vt 0.992900014 0.705600023
vn 3.3186655e-23 -1 -2.06986146e-16
v 0.0929389596 -0.00866894424 -0.124825597
vt 0.965200007 0.705299973
vn 3.3186655e-23 -1 -2.06986146e-16
v -0.0929390043 -0.00866894424 -0.158349097
vt 0.993700027 0.608799994
vn 3.3186655e-23 -1 -2.06986146e-16
v 0.0929389596 -0.00866894424 -0.124825597
vt 0.965200007 0.705299973
vn 3.3186655e-23 -1 -2.06986146e-16
v -0.0929390043 -0.00866894424 -0.124825627
vt 0.966000021 0.60860002
vn 3.3186655e-23 -1 -2.06986146e-16
v -0.0929390043 0.32738319 -0.124825627
vt 0.669399977 0.506299973
vn -2.6549324e-22 1 1.65588917e-15
v 0.0929389596 0.32738319 -0.124825597
vt 0.810100019 0.507799983
vn -2.6549324e-22 1 1.65588917e-15
v 0.0929389596 0.32738319 -0.158349067
vt 0.809700012 0.562699974
vn -2.6549324e-22 1 1.65588917e-15
v -0.0929390043 0.32738319 -0.124825627
vt 0.669399977 0.506299973
vn -2.6549324e-22 1 1.65588917e-15
v 0.0929389596 0.32738319 -0.158349067
vt 0.809700012 0.562699974
vn -2.6549324e-22 1 1.65588917e-15
v -0.0929390043 0.32738319 -0.158349097
vt 0.66900003 0.561200023
vn -2.6549324e-22 1 1.65588917e-15
v -0.0929390043 -0.00866894424 -0.124825627
vt 0.252999991 0.581799984
vn -1.61755818e-07 6.77637818e-15 1
v 0.0929389596 -0.00866894424 -0.124825597
vt 0.313800007 0.581799984
vn -1.60332735e-07 -2.29047862e-09 1
v 0.183424994 0.163036555 -0.124825582
vt 0.343300015 0.635999978
vn -1.61755818e-07 -2.06482658e-16 1
v -0.0929390043 -0.00866894424 -0.124825627
vt 0.252999991 0.581799984
vn -1.61755818e-07 6.77637818e-15 1
v 0.183424994 0.163036555 -0.124825582
vt 0.343300015 0.635999978
vn -1.61755818e-07 -2.06482658e-16 1
v -0.183425024 0.163036555 -0.124825642
vt 0.223299995 0.635800004
vn -1.62476875e-07 -2.06482661e-16 1
v 0.183424994 0.163036555 -0.124825582
vt 0.343300015 0.635999978
vn -1.61755818e-07 -2.06482658e-16 1
v -0.0929390043 0.32738319 -0.124825627
vt 0.252799988 0.689700007
vn -1.61755818e-07 -7.50201143e-15 1
v -0.183425024 0.163036555 -0.124825642
vt 0.223299995 0.635800004
vn -1.62476875e-07 -2.06482661e-16 1
v 0.183424994 0.163036555 -0.124825582
vt 0.343300015 0.635999978
vn -1.61755818e-07 -2.06482658e-16 1
v 0.0929389596 0.32738319 -0.124825597
vt 0.313600004 0.689800024
vn -1.60332735e-07 2.39303777e-09 1
v -0.0929390043 0.32738319 -0.124825627
vt 0.252799988 0.689700007
vn -1.61755818e-07 -7.50201143e-15 1
v -0.0929390043 0.32738319 -0.158349097
vt 0.591899991 0.694800019
vn 1.61755818e-07 9.06691057e-08 -1
v 0.0929389596 0.32738319 -0.158349067
vt 0.649100006 0.695299983
vn 1.60332735e-07 8.82760604e-08 -1
v 0.183424994 0.163036555 -0.158349067
vt 0.677399993 0.644800007
vn 1.61755818e-07 2.47779198e-16 -1
v -0.0929390043 0.32738319 -0.158349097
vt 0.591899991 0.694800019
vn 1.61755818e-07 9.06691057e-08 -1
v 0.183424994 0.163036555 -0.158349067
vt 0.677399993 0.644800007
vn 1.61755818e-07 2.47779198e-16 -1
v -0.183425024 0.163036555 -0.158349127
vt 0.564400017 0.64380002
vn 1.62476875e-07 2.47779193e-16 -1
v 0.183424994 0.163036555 -0.158349067
vt 0.677399993 0.644800007
vn 1.61755818e-07 2.47779198e-16 -1
v -0.0929390043 -0.00866894424 -0.158349097
vt 0.592800021 0.593200028
vn 1.61755818e-07 -8.67832564e-08 -1
v -0.183425024 0.163036555 -0.158349127
vt 0.564400017 0.64380002
vn 1.62476875e-07 2.47779193e-16 -1
v 0.183424994 0.163036555 -0.158349067
vt 0.677399993 0.644800007
vn 1.61755818e-07 2.47779198e-16 -1
v 0.0929389596 -0.00866894424 -0.158349067
vt 0.649999976 0.593699992
vn 1.60332735e-07 -8.4492771e-08 -1
v -0.0929390043 -0.00866894424 -0.158349097
vt 0.592800021 0.593200028
vn 1.61755818e-07 -8.67832564e-08 -1
v 3.73333333322e-08 0.15822144581 -0.490585387
vt 0.603200018 0.880800009
vn 1.1197581515e-07 0 -1
v 0.167344704 0.162218779 -0.490585357
vt 0.603200018 0.880800009
vn 1.1197581515e-07 0 -1
v 0.100570366 0.00768391043 -0.490585387
vt 0.603200018 0.880800009
vn 1.1197581515e-07 0 -1
v 3.73333333322e-08 0.15822144581 -0.490585387
vt 0.603200018 0.880800009
vn 1.1197581515e-07 0 -1
v 0.100570366 0.00768391043 -0.490585387
vt 0.603200018 0.880800009
vn 1.1197581515e-07 0 -1
v -0.100570291 0.00768391043 -0.490585387
vt 0.603200018 0.880800009
vn 1.1197581515e-07 0 -1
v 3.73333333322e-08 0.15822144581 -0.490585387
vt 0.603200018 0.880800009
vn 1.1197581515e-07 0 -1
v -0.100570291 0.00768391043 -0.490585387
vt 0.603200018 0.880800009
vn 1.1197581515e-07 0 -1
v -0.16734463 0.162218779 -0.490585417
vt 0.603200018 0.880800009
vn 1.1197581515e-07 0 -1
v 3.73333333322e-08 0.15822144581 -0.490585387
vt 0.603200018 0.880800009
vn 1.1197581515e-07 0 -1
v -0.16734463 0.162218779 -0.490585417
vt 0.603200018 0.880800009
vn 1.1197581515e-07 0 -1
v -0.100570291 0.304761648 -0.490585387
vt 0.603200018 0.880800009
vn 1.1197581515e-07 0 -1
v 3.73333333322e-08 0.15822144581 -0.490585387
vt 0.603200018 0.880800009
vn 1.1197581515e-07 0 -1
v -0.100570291 0.304761648 -0.490585387
vt 0.603200018 0.880800009
vn 1.1197581515e-07 0 -1
v 0.100570366 0.304761648 -0.490585387
vt 0.603200018 0.880800009
vn 1.1197581515e-07 0 -1
v 3.73333333322e-08 0.15822144581 -0.490585387
vt 0.603200018 0.880800009
vn 1.1197581515e-07 0 -1
v 0.100570366 0.304761648 -0.490585387
vt 0.603200018 0.880800009
vn 1.1197581515e-07 0 -1
v 0.167344704 0.162218779 -0.490585357
vt 0.603200018 0.880800009
vn 1.1197581515e-07 0 -1
v -1.70000000049e-08 0.15822144581 -0.149627554
vt 0.603200018 0.880800009
vn -1.36237241691e-07 -1.29910193551e-24 1
v -0.167344689 0.162218779 -0.149627581
vt 0.603200018 0.880800009
vn -1.36237241691e-07 -1.29910193551e-24 1
v -0.100570343 0.00768391043 -0.149627566
vt 0.603200018 0.880800009
vn -1.36237241691e-07 -1.29910193551e-24 1
v -1.70000000049e-08 0.15822144581 -0.149627554
vt 0.603200018 0.880800009
vn -1.36237241691e-07 -1.29910193551e-24 1
v -0.100570343 0.00768391043 -0.149627566
vt 0.603200018 0.880800009
vn -1.36237241691e-07 -1.29910193551e-24 1
v 0.100570314 0.00768391043 -0.149627537
vt 0.603200018 0.880800009
vn -1.36237241691e-07 -1.29910193551e-24 1
v -1.70000000049e-08 0.15822144581 -0.149627554
vt 0.603200018 0.880800009
vn -1.36237241691e-07 -1.29910193551e-24 1
v 0.100570314 0.00768391043 -0.149627537
vt 0.603200018 0.880800009
vn -1.36237241691e-07 -1.29910193551e-24 1
v 0.167344645 0.162218779 -0.149627537
vt 0.603200018 0.880800009
vn -1.36237241691e-07 -1.29910193551e-24 1
v -1.70000000049e-08 0.15822144581 -0.149627554
vt 0.603200018 0.880800009
vn -1.36237241691e-07 -1.29910193551e-24 1
v 0.167344645 0.162218779 -0.149627537
vt 0.603200018 0.880800009
vn -1.36237241691e-07 -1.29910193551e-24 1
v 0.100570314 0.304761648 -0.149627537
vt 0.603200018 0.880800009
vn -1.36237241691e-07 -1.29910193551e-24 1
v -1.70000000049e-08 0.15822144581 -0.149627554
vt 0.603200018 0.880800009
vn -1.36237241691e-07 -1.29910193551e-24 1
v 0.100570314 0.304761648 -0.149627537
vt 0.603200018 0.880800009
vn -1.36237241691e-07 -1.29910193551e-24 1
v -0.100570343 0.304761648 -0.149627566
vt 0.603200018 0.880800009
vn -1.36237241691e-07 -1.29910193551e-24 1
v -1.70000000049e-08 0.15822144581 -0.149627554
vt 0.603200018 0.880800009
vn -1.36237241691e-07 -1.29910193551e-24 1
v -0.100570343 0.304761648 -0.149627566
vt 0.603200018 0.880800009
vn -1.36237241691e-07 -1.29910193551e-24 1
v -0.167344689 0.162218779 -0.149627581
vt 0.603200018 0.880800009
vn -1.36237241691e-07 -1.29910193551e-24 1
usemtl M347-Newlambert8
f 1/1/1 2/2/2 3/3/3
f 4/4/4 5/5/5 6/6/6
f 7/7/7 8/8/8 9/9/9
f 10/10/10 11/11/11 12/12/12
f 13/13/13 14/14/14 15/15/15
f 16/16/16 17/17/17 18/18/18
f 19/19/19 20/20/20 21/21/21
f 22/22/22 23/23/23 24/24/24
f 25/25/25 26/26/26 27/27/27
f 28/28/28 29/29/29 30/30/30
f 31/31/31 32/32/32 33/33/33
f 34/34/34 35/35/35 36/36/36
f 37/37/37 38/38/38 39/39/39
f 40/40/40 41/41/41 42/42/42
f 43/43/43 44/44/44 45/45/45
f 46/46/46 47/47/47 48/48/48
f 49/49/49 50/50/50 51/51/51
f 52/52/52 53/53/53 54/54/54
f 55/55/55 56/56/56 57/57/57
f 58/58/58 59/59/59 60/60/60
f 61/61/61 62/62/62 63/63/63
f 64/64/64 65/65/65 66/66/66
f 67/67/67 68/68/68 69/69/69
f 70/70/70 71/71/71 72/72/72
f 73/73/73 74/74/74 75/75/75
f 76/76/76 77/77/77 78/78/78
f 79/79/79 80/80/80 81/81/81
f 82/82/82 83/83/83 84/84/84
f 85/85/85 86/86/86 87/87/87
f 88/88/88 89/89/89 90/90/90
f 91/91/91 92/92/92 93/93/93
f 94/94/94 95/95/95 96/96/96
f 97/97/97 98/98/98 99/99/99
f 100/100/100 101/101/101 102/102/102
f 103/103/103 104/104/104 105/105/105
f 106/106/106 107/107/107 108/108/108
f 109/109/109 110/110/110 111/111/111
f 112/112/112 113/113/113 114/114/114
f 115/115/115 116/116/116 117/117/117
f 118/118/118 119/119/119 120/120/120
f 121/121/121 122/122/122 123/123/123
f 124/124/124 125/125/125 126/126/126
f 127/127/127 128/128/128 129/129/129
f 130/130/130 131/131/131 132/132/132
f 133/133/133 134/134/134 135/135/135
f 136/136/136 137/137/137 138/138/138
f 139/139/139 140/140/140 141/141/141
f 142/142/142 143/143/143 144/144/144
f 145/145/145 146/146/146 147/147/147
f 148/148/148 149/149/149 150/150/150
f 151/151/151 152/152/152 153/153/153
f 154/154/154 155/155/155 156/156/156
f 157/157/157 158/158/158 159/159/159
f 160/160/160 161/161/161 162/162/162
f 163/163/163 164/164/164 165/165/165
f 166/166/166 167/167/167 168/168/168
f 169/169/169 170/170/170 171/171/171
f 172/172/172 173/173/173 174/174/174
f 175/175/175 176/176/176 177/177/177
f 178/178/178 179/179/179 180/180/180
f 181/181/181 182/182/182 183/183/183
f 184/184/184 185/185/185 186/186/186
f 187/187/187 188/188/188 189/189/189
f 190/190/190 191/191/191 192/192/192
