# Generated by tools/yaml_mesh_converter/split_rpg21.py
# Original coordinates, UVs, normals and materials.
mtllib gun11.mtl

o gun11_body
v -0.078605175 0.217653692 -0.571095228
v -0.092386961 0.171040207 -0.619721711
v -0.092386961 0.23324652 -0.619721711
v -0.078605175 0.217653692 -0.571095228
v -0.078605175 0.18610999 -0.571095228
v -0.078605175 0.18610999 -0.571095228
v 0.000225554322 0.202137738 -0.638657391
v -0.092386961 0.171040207 -0.619721711
v 0.000225554322 0.202137738 -0.638657391
v -0.078605175 0.217653692 -0.571095228
v -0.078605175 0.217653692 -0.571095228
v -0.092386961 0.23324652 -0.619721711
v 0.073932372 0.18610999 -0.572680533
v 0.0931918323 0.23324652 -0.619721711
v 0.0931918323 0.171040207 -0.619721711
v 0.073932372 0.217653692 -0.572680533
v 0.000225554322 0.202137738 -0.638657391
v 0.073932372 0.18610999 -0.572680533
v 0.0931918323 0.171040207 -0.619721711
v 0.073932372 0.217653692 -0.572680533
v 0.073932372 0.18610999 -0.572680533
v 0.000225554322 0.202137738 -0.638657391
v 0.000225554322 0.202137738 -0.638657391
v 0.0931918323 0.23324652 -0.619721711
v -0.0151078952 0.123135731 -0.571095228
v 0.03150592 0.10935396 -0.619721711
v -0.0307010543 0.10935396 -0.619721711
v -0.0151078952 0.123135731 -0.571095228
v 0.0164354835 0.123135731 -0.571095228
v 0.0164354835 0.123135731 -0.571095228
v 0.000408044289 0.201966494 -0.638657391
v 0.03150592 0.10935396 -0.619721711
v 0.000408044289 0.201966494 -0.638657391
v -0.0151078952 0.123135731 -0.571095228
v -0.0151078952 0.123135731 -0.571095228
v -0.0307010543 0.10935396 -0.619721711
v 0.0164354835 0.275672972 -0.572680533
v -0.0307010543 0.294932783 -0.619721711
v 0.03150592 0.294932783 -0.619721711
v -0.0151078952 0.275672972 -0.572680533
v 0.000408044289 0.201966494 -0.638657391
v 0.0164354835 0.275672972 -0.572680533
v 0.03150592 0.294932783 -0.619721711
v -0.0151078952 0.275672972 -0.572680533
v 0.0164354835 0.275672972 -0.572680533
v 0.000408044289 0.201966494 -0.638657391
v 0.000408044289 0.201966494 -0.638657391
v -0.0307010543 0.294932783 -0.619721711
v 0.171543062 0.228118628 -0.0540829375
v 0.148979977 0.186130121 -0.0672901645
v 0.161646038 0.188636139 -0.0672901645
v 0.140352786 0.228118628 -0.0540829375
v 0.171543062 0.228118315 -0.184249133
v 0.161646038 0.188636139 -0.167259365
v 0.148979977 0.186130121 -0.167259365
v 0.140352786 0.228118315 -0.184249133
v -1.65679381e-07 0.271945298 0.702389598
v 0.0606894717 0.201834798 -0.528254628
v 0.0633990988 0.201834798 0.702389598
v -1.65679381e-07 0.268948555 -0.528254628
v -1.65679381e-07 0.134721056 -0.528254628
v -1.65679381e-07 0.131724671 0.702389598
v -0.0606894754 0.201834798 -0.528254628
v -0.0633991063 0.201834798 0.702389598
v -1.65679381e-07 0.271945298 0.702389598
v -1.65679381e-07 0.237061307 -0.566275895
v -0.0474601053 0.202011704 -0.566275895
v -1.65679381e-07 0.158333212 -0.566275895
v 0.0474601015 0.202011704 -0.566275895
v -1.65679381e-07 0.266481817 -0.631288528
v -0.0706152096 0.201834798 -0.631288528
v -1.65679381e-07 0.158333212 -0.566275895
v -1.65679381e-07 0.134721056 -0.528254628
v -1.65679381e-07 0.128912404 -0.631288528
v -1.65679381e-07 0.128912404 -0.631288528
v 0.0706148744 0.201834798 -0.631288528
v -1.65679381e-07 0.266481817 -0.631288528
v -1.65679381e-07 0.237061307 -0.566275895
v -1.65679381e-07 0.268948555 -0.528254628
v -0.0666591749 0.340764463 0.0172386281
v 0.0557520092 0.320920587 -0.0268354435
v 0.0666591674 0.340764463 0.0172386281
v -0.0557523444 0.320920587 -0.0268354435
v 0.0557520092 0.320920587 -0.230822653
v -0.0557523444 0.320920587 -0.230822653
v 0.0684183985 0.343965173 -0.270552993
v -0.0684187338 0.343965173 -0.270552993
v 0.0666591674 0.340764463 0.0172386281
v 0.111504517 0.214695558 -0.0268354435
v 0.133318499 0.214695558 0.0172386281
v 0.0557520092 0.320920587 -0.0268354435
v -1.65679381e-07 0.0888025612 -0.0268354435
v -1.65679381e-07 0.0689586848 0.0172386281
v -0.111504517 0.214695558 -0.0268354435
v -0.133318514 0.214695558 0.0172386281
v -0.0557523444 0.320920587 -0.0268354435
v -0.0666591749 0.340764463 0.0172386281
v -0.0557523444 0.320920587 -0.230822653
v -0.111504517 0.214695558 -0.230822653
v -0.0684187338 0.343965173 -0.270552993
v -0.136836976 0.214695558 -0.270552993
v -1.65679381e-07 0.0888025612 -0.230822653
v -1.65679381e-07 0.065757975 -0.270552993
v 0.111504517 0.214695558 -0.230822653
v 0.136836976 0.214695558 -0.270552993
v 0.0557520092 0.320920587 -0.230822653
v 0.0684183985 0.343965173 -0.270552993
v 0.133318499 0.214695558 0.0172386281
v -1.65679381e-07 0.0689586848 0.0172386281
v -0.133318514 0.214695558 0.0172386281
v 0.0666591674 0.340764463 0.0172386281
v -0.0666591749 0.340764463 0.0172386281
v -0.0684187338 0.343965173 -0.270552993
v 0.136836976 0.214695558 -0.270552993
v 0.0684183985 0.343965173 -0.270552993
v -0.136836976 0.214695558 -0.270552993
v -1.65679381e-07 0.065757975 -0.270552993
v -0.018709844 0.0130216852 0.661974847
v 0.0188685749 0.0130213648 0.587585151
v -0.018709844 0.0130213648 0.587585151
v 0.0188685749 0.0130216852 0.661974847
v 0.0188685749 0.0999595225 0.691687047
v -0.018709844 0.0999595225 0.691687047
v 0.0188685749 0.0999595225 0.587585151
v 0.0188685749 0.0999595225 0.691687047
v 0.0188685749 0.156343967 0.691687047
v 0.0188685749 0.0130216852 0.661974847
v 0.0188685749 0.0130213648 0.587585151
v 0.0188685749 0.156343967 -0.499584854
v 7.93643194e-05 0.0999595225 -0.499584854
v -0.018709844 0.156343967 -0.499584854
v -0.018709844 0.0999595225 0.587585151
v -0.018709844 0.156343967 -0.499584854
v -0.018709844 0.156343967 0.691687047
v 7.93643194e-05 0.0999595225 -0.499584854
v -0.018709844 0.0999595225 0.691687047
v -0.018709844 0.0130213648 0.587585151
v -0.018709844 0.0130216852 0.661974847
v 0.0188685749 0.0999595225 0.587585151
v 7.93643194e-05 0.0999595225 -0.499584854
v -0.018709844 0.0999595225 0.587585151
v -0.018709844 0.0999595225 0.587585151
v 0.0188685749 0.0130213648 0.587585151
v 0.0188685749 0.0999595225 0.587585151
v -0.018709844 0.0130213648 0.587585151
v -0.0235654637 -0.00440166891 0.28533262
v 0.0285877343 -0.0395304859 0.216382712
v -0.0284290034 -0.0395304859 0.216382712
v 0.0237238649 -0.00440166891 0.285332918
v 0.0195114147 0.114046246 0.285332918
v -0.0193526838 0.114046246 0.28533262
v -0.0284290034 -0.068243131 0.21089083
v 0.0285877343 -0.068243131 0.21089083
v -0.0284290034 -0.108467817 0.130857408
v 0.0285877343 -0.108467817 0.130857408
v 0.0195114147 0.114046246 0.285332918
v 0.0285877343 -0.0395304859 0.216382712
v 0.0237238649 -0.00440166891 0.285332918
v 0.0142921349 0.0876957178 -0.0435249619
v 0.0285877343 -0.1024618 0.0951195881
v 0.0285877343 -0.068243131 0.21089083
v 0.0285877343 -0.108467817 0.130857408
v 0.0142921349 0.0876957178 -0.315097719
v 0.0195114147 0.114046246 -0.52670002
v 0.0138202338 0.0942832083 -0.537094355
v 0.0237238649 0.0237668306 -0.237151057
v 0.0142921349 0.0876957178 -0.134015828
v 0.0237238649 -0.0737930685 -0.233835548
v 0.0237238649 -0.125969037 -0.149684578
v 0.0237238649 -0.111808404 -0.134015828
v 0.0142921349 0.0876957178 -0.0435249619
v -0.0141334049 0.0876957178 -0.134015828
v -0.0141334049 0.0876957178 -0.0435249619
v 0.0142921349 0.0876957178 -0.134015828
v 0.0285877343 -0.1024618 0.0951195881
v -0.0284290034 -0.1024618 0.0951195881
v 0.0285877343 -0.108467817 0.130857408
v -0.0284290034 -0.108467817 0.130857408
v -0.0284290034 -0.0395304859 0.216382712
v -0.0284290034 -0.1024618 0.0951195881
v -0.0141334049 0.0876957178 -0.0435249619
v -0.0193526838 0.114046246 0.28533262
v -0.0235654637 -0.00440166891 0.28533262
v -0.0284290034 -0.108467817 0.130857408
v -0.0284290034 -0.068243131 0.21089083
v -0.0141334049 0.0876957178 -0.134015828
v -0.0141334049 0.0876957178 -0.315097719
v -0.0235654637 0.0237668306 -0.237151057
v -0.0235654637 -0.0737930685 -0.233835548
v -0.0235654637 -0.125969037 -0.149684578
v -0.0235654637 -0.111808404 -0.134015828
v -0.0193526838 0.114046246 -0.52670002
v -0.0136618344 0.0942832083 -0.537094355
v -0.0141334049 0.0876957178 -0.315097719
v 0.0138202338 0.0942832083 -0.537094355
v -0.0136618344 0.0942832083 -0.537094355
v 0.0142921349 0.0876957178 -0.315097719
v 0.0237238649 0.0237668306 -0.237151057
v -0.0235654637 0.0237668306 -0.237151057
v 0.0237238649 -0.0737930685 -0.233835548
v -0.0235654637 -0.0737930685 -0.233835548
v 0.0237238649 -0.125969037 -0.149684578
v -0.0235654637 -0.125969037 -0.149684578
v 0.0142921349 0.0876957178 -0.134015828
v -0.0235654637 -0.111808404 -0.134015828
v -0.0141334049 0.0876957178 -0.134015828
v 0.0237238649 -0.111808404 -0.134015828
v 0.0237238649 -0.125969037 -0.149684578
v -0.0235654637 -0.125969037 -0.149684578
v -0.0193526838 0.114046246 -0.52670002
v 0.0195114147 0.114046246 0.285332918
v -0.0193526838 0.114046246 0.28533262
v 0.0195114147 0.114046246 -0.52670002
v 0.0138202338 0.0942832083 -0.537094355
v -0.0136618344 0.0942832083 -0.537094355
v -0.10980469 0.394349515 1.02839029
v 0.0514234006 0.288133442 0.744903803
v 0.10980469 0.394349515 1.02839029
v -0.0514234044 0.288133442 0.744903803
v 0.0657780692 0.314249635 0.687760055
v -0.0657784045 0.314249635 0.687760055
v 0.0514234006 0.288133442 0.744903803
v 0.219609529 0.194576144 1.02839029
v 0.10980469 0.394349515 1.02839029
v 0.102846965 0.194576144 0.744903803
v -1.65679381e-07 0.101018839 0.744903803
v -1.65679381e-07 -0.00519730151 1.02839029
v 0.131556302 0.194576144 0.687760055
v 0.0657780692 0.314249635 0.687760055
v -1.65679381e-07 0.0749026239 0.687760055
v -1.65679381e-07 -0.00519730151 1.02839029
v -0.102846973 0.194576144 0.744903803
v -0.219609529 0.194576144 1.02839029
v -1.65679381e-07 0.101018839 0.744903803
v -0.0514234044 0.288133442 0.744903803
v -0.10980469 0.394349515 1.02839029
v -0.0657784045 0.314249635 0.687760055
v -0.131556302 0.194576144 0.687760055
v -1.65679381e-07 0.0749026239 0.687760055
v 0.219609529 0.194576144 1.02839029
v -1.65679381e-07 -0.00519730151 1.02839029
v -0.219609529 0.194576144 1.02839029
v 0.10980469 0.394349515 1.02839029
v -0.10980469 0.394349515 1.02839029
v -0.0657784045 0.314249635 0.687760055
v 0.131556302 0.194576144 0.687760055
v 0.0657780692 0.314249635 0.687760055
v -0.131556302 0.194576144 0.687760055
v -1.65679381e-07 0.0749026239 0.687760055
v 0.191793516 0.222585559 -0.379152
v 0.129317924 0.225991815 0.0670274049
v 0.182577595 0.225991815 0.0670274049
v 0.120102003 0.222585559 -0.379152
v 0.198796108 0.207333252 0.108793221
v 0.113099404 0.207333252 0.108793221
v 0.191793516 0.222585559 -0.379152
v 0.173527673 0.273905158 -0.202543616
v 0.186372593 0.280494928 -0.379152
v 0.182577595 0.225991815 0.0670274049
v 0.185115308 0.321243942 -0.342715472
v 0.173051476 0.270866871 0.0670274049
v 0.182115942 0.289525688 0.108793221
v 0.198796108 0.207333252 0.108793221
v 0.138844028 0.270866871 0.0670274049
v 0.173527673 0.273905158 -0.202543616
v 0.173051476 0.270866871 0.0670274049
v 0.138367832 0.273905158 -0.202543616
v 0.12977992 0.289525688 0.108793221
v 0.182115942 0.289525688 0.108793221
v 0.185115308 0.321243942 -0.342715472
v 0.126780555 0.321243942 -0.342715472
v 0.186372593 0.280494928 -0.379152
v 0.125523254 0.280494928 -0.379152
v 0.120102003 0.222585559 -0.379152
v 0.191793516 0.222585559 -0.379152
v 0.129317924 0.225991815 0.0670274049
v 0.138367832 0.273905158 -0.202543616
v 0.138844028 0.270866871 0.0670274049
v 0.113099404 0.207333252 0.108793221
v 0.12977992 0.289525688 0.108793221
v 0.120102003 0.222585559 -0.379152
v 0.125523254 0.280494928 -0.379152
v 0.126780555 0.321243942 -0.342715472
v 0.182115942 0.289525688 0.108793221
v 0.113099404 0.207333252 0.108793221
v 0.12977992 0.289525688 0.108793221
v 0.198796108 0.207333252 0.108793221
v 0.147115812 0.27022171 -0.0819534063
v 0.0795951709 0.27022171 -0.165285021
v 0.0795951709 0.27022171 -0.0819534063
v 0.147115812 0.27022171 -0.165285021
v 0.0795951709 0.248682261 -0.188310415
v 0.147115812 0.248682261 -0.188310415
v 0.147115812 0.248682261 -0.0589276254
v 0.0795951709 0.248682261 -0.0589276254
vt 0.204832003 0.276504993
vt 0.186868995 0.221715003
vt 0.162733003 0.266084999
vt 0.204832003 0.276504993
vt 0.217622995 0.250970006
vt 0.217622995 0.250970006
vt 0.284904003 0.303788006
vt 0.253390998 0.229387
vt 0.284904003 0.303788006
vt 0.204832003 0.276504993
vt 0.204832003 0.276504993
vt 0.205275998 0.317517012
vt 0.204832003 0.276504993
vt 0.186868995 0.221715003
vt 0.162733003 0.266084999
vt 0.217622995 0.250970006
vt 0.284916013 0.30379501
vt 0.204832003 0.276504993
vt 0.205275998 0.317517012
vt 0.217622995 0.250970006
vt 0.204832003 0.276504993
vt 0.284916013 0.30379501
vt 0.284916013 0.30379501
vt 0.253392994 0.229386002
vt 0.204832003 0.276504993
vt 0.186868995 0.221715003
vt 0.162733003 0.266084999
vt 0.204832003 0.276504993
vt 0.217622995 0.250970006
vt 0.217622995 0.250970006
vt 0.284904003 0.303788006
vt 0.253390998 0.229387
vt 0.284904003 0.303788006
vt 0.204832003 0.276504993
vt 0.204832003 0.276504993
vt 0.205275998 0.317517012
vt 0.204832003 0.276504993
vt 0.186868995 0.221715003
vt 0.162733003 0.266084999
vt 0.217622995 0.250970006
vt 0.284916013 0.30379501
vt 0.204832003 0.276504993
vt 0.205275998 0.317517012
vt 0.217622995 0.250970006
vt 0.204832003 0.276504993
vt 0.284916013 0.30379501
vt 0.284916013 0.30379501
vt 0.253392994 0.229386002
vt 0.0356080011 0.088169001
vt 0.0414920002 0.0501670018
vt 0.0450939983 0.0580819994
vt 0.0158719998 0.0763709992
vt 0.131564006 0.0873700008
vt 0.118790001 0.0574689992
vt 0.122028999 0.0492600016
vt 0.150142998 0.0738229975
vt 0.264463007 0.486203998
vt 0.917254984 0.450080991
vt 0.264463007 0.450080991
vt 0.917254984 0.484391987
vt 0.917254984 0.409491003
vt 0.264463007 0.407678992
vt 0.917262971 0.450096011
vt 0.264465988 0.450058013
vt 0.264465988 0.484939009
vt 0.934319019 0.471385002
vt 0.93432802 0.450203001
vt 0.934319019 0.423772007
vt 0.934319019 0.450188011
vt 0.971917987 0.489194006
vt 0.971908987 0.450080991
vt 0.934354007 0.423831999
vt 0.917262971 0.409507006
vt 0.971917987 0.405993998
vt 0.971908987 0.405979007
vt 0.971908987 0.450080991
vt 0.971908987 0.489178002
vt 0.934319019 0.471385002
vt 0.917254984 0.484391987
vt 0.492626011 0.0518009998
vt 0.563320994 0.079715997
vt 0.569620013 0.0518009998
vt 0.498925 0.079715997
vt 0.563320994 0.197522998
vt 0.498925 0.197522998
vt 0.570635974 0.224048004
vt 0.491609991 0.224048004
vt 0.576263011 0.209981993
vt 0.605648994 0.139136001
vt 0.576263011 0.139136001
vt 0.605650008 0.195510998
vt 0.605650008 0.0617020018
vt 0.576263011 0.0494959988
vt 0.605732977 0.139004007
vt 0.576346993 0.139004007
vt 0.605732977 0.195378006
vt 0.576346993 0.209849
vt 0.72892499 0.195378006
vt 0.72892499 0.139004007
vt 0.753363013 0.211817995
vt 0.753363013 0.139004007
vt 0.72892499 0.0615690015
vt 0.753363013 0.047394
vt 0.72884202 0.139136001
vt 0.753278971 0.139136001
vt 0.72884202 0.195510998
vt 0.753278971 0.211951002
vt 0.719386995 0.255340993
vt 0.673855007 0.303355992
vt 0.629859984 0.253928006
vt 0.697672009 0.212699994
vt 0.652908981 0.211994007
vt 0.652908981 0.211994007
vt 0.719385982 0.255340993
vt 0.697672009 0.212699994
vt 0.629851997 0.253928989
vt 0.67385 0.303359985
vt 0.368306994 0.342913985
vt 0.401980013 0.369857997
vt 0.401980013 0.342914999
vt 0.368306994 0.369857997
vt 0.326718003 0.369857997
vt 0.326718986 0.342913985
vt 0.320692003 0.373780996
vt 0.264445007 0.373780996
vt 0.264445007 0.40181601
vt 0.280499011 0.326806992
vt 0.320692003 0.326806992
vt 0.908096015 0.402188987
vt 0.908100009 0.373407006
vt 0.927264988 0.398607999
vt 0.320692003 0.373780996
vt 0.908097982 0.40181601
vt 0.264445007 0.40181601
vt 0.908097982 0.373780996
vt 0.264445007 0.373780996
vt 0.320692003 0.326806992
vt 0.280499011 0.326806992
vt 0.441334009 0.369857997
vt 0.905736983 0.364021987
vt 0.441334009 0.342913985
vt 0.441334009 0.342913985
vt 0.401980013 0.369857997
vt 0.441334009 0.369857997
vt 0.401980013 0.342914999
vt 0.0897369981 0.00926600024
vt 0.143365994 0.0454099998
vt 0.143365994 0.00589499995
vt 0.0897369981 0.0420389995
vt 0.00764800003 0.0391199999
vt 0.00764800003 0.0121860001
vt 0.163625002 0.00589499995
vt 0.163626 0.0454099998
vt 0.225703001 0.00589499995
vt 0.225703001 0.0454090014
vt 0.50208199 0.338364989
vt 0.540108979 0.258466989
vt 0.503467023 0.276172996
vt 0.674992025 0.328689992
vt 0.604525983 0.226967007
vt 0.543350995 0.243469998
vt 0.58585 0.223367006
vt 0.806986988 0.332340002
vt 0.928147972 0.349278003
vt 0.933881998 0.338629007
vt 0.777454019 0.299403995
vt 0.722470999 0.329905987
vt 0.774267018 0.246156007
vt 0.733108997 0.221477002
vt 0.724730015 0.225100994
vt 0.355794996 0.0389389992
vt 0.419366986 0.012906
vt 0.355794996 0.012906
vt 0.419366986 0.0389389992
vt 0.25839299 0.0459510013
vt 0.25839299 0.00589499995
vt 0.233285993 0.0459510013
vt 0.233285993 0.00589499995
vt 0.540108979 0.258466989
vt 0.604525983 0.226967007
vt 0.674992025 0.328689992
vt 0.50208199 0.338364989
vt 0.503467023 0.276172996
vt 0.58585 0.223367006
vt 0.543350995 0.243469998
vt 0.722470999 0.329905987
vt 0.806986988 0.332340002
vt 0.777454019 0.299403995
vt 0.774267018 0.246156007
vt 0.733108997 0.221477002
vt 0.724730015 0.225100994
vt 0.928147972 0.349278003
vt 0.933881998 0.338629007
vt 0.826896012 0.0137430001
vt 0.992495 0.0371370018
vt 0.992495 0.0141380001
vt 0.826896012 0.0375320017
vt 0.742532015 0.0454250015
vt 0.742532015 0.00584999984
vt 0.660839975 0.0454250015
vt 0.660839975 0.00584999984
vt 0.577979982 0.0454239994
vt 0.577979982 0.00584999984
vt 0.419366986 0.0389389992
vt 0.559524 0.00930900034
vt 0.419366986 0.012906
vt 0.559525013 0.0425309986
vt 0.569473028 0.0425309986
vt 0.569472015 0.00930900034
vt 0.970417023 0.393581003
vt 0.93345499 0.360448986
vt 0.933456004 0.393584996
vt 0.970417023 0.360444009
vt 0.992061019 0.36529699
vt 0.992061019 0.388727993
vt 0.491717994 0.338450015
vt 0.321083009 0.255493999
vt 0.491308987 0.227341995
vt 0.321289986 0.311554015
vt 0.289905995 0.247784004
vt 0.290170997 0.319492996
vt 0.178634003 0.44362101
vt 0.0229250006 0.391900986
vt 0.0229250006 0.48367101
vt 0.178634003 0.391896009
vt 0.178634003 0.340171009
vt 0.0229250006 0.300835997
vt 0.210226998 0.391896009
vt 0.210226998 0.458059996
vt 0.210226998 0.325733006
vt 0.0230470002 0.301108003
vt 0.178725004 0.391813993
vt 0.0229400005 0.391858995
vt 0.178725004 0.340070993
vt 0.178691 0.443581015
vt 0.0229819994 0.48367101
vt 0.210278004 0.458030999
vt 0.210278004 0.391855001
vt 0.210278004 0.325679988
vt 0.0820930004 0.240373999
vt 0.145365998 0.165609002
vt 0.0769060031 0.0955630019
vt 0.0149309998 0.206530005
vt 0.0123370001 0.134124994
vt 0.129933998 0.316552013
vt 0.0724069998 0.251183987
vt 0.0825729966 0.301694989
vt 0.167128995 0.280896991
vt 0.133283004 0.222957
vt 0.477966994 0.158455998
vt 0.190072 0.129730001
vt 0.190072 0.154218003
vt 0.477966994 0.125494003
vt 0.160557002 0.161675006
vt 0.160557002 0.122272998
vt 0.480125993 0.0512019992
vt 0.366225988 0.0878650025
vt 0.481312007 0.0892930031
vt 0.188927993 0.0622039996
vt 0.459491998 0.112824
vt 0.189619005 0.0902180001
vt 0.161225006 0.099740997
vt 0.160255998 0.0524290018
vt 0.194536 0.209337994
vt 0.370449007 0.186345994
vt 0.194488004 0.187092006
vt 0.370499015 0.209211007
vt 0.164724007 0.215305999
vt 0.164653003 0.181269005
vt 0.425336987 0.178571001
vt 0.425419003 0.216506004
vt 0.456093997 0.177700996
vt 0.456178993 0.217197999
vt 0.488710999 0.220623001
vt 0.488611013 0.174089
vt 0.188927993 0.0622039996
vt 0.366225988 0.0878650025
vt 0.189619005 0.0902180001
vt 0.160255998 0.0524290018
vt 0.161225006 0.0997399986
vt 0.480125993 0.0512019992
vt 0.481350005 0.0892859995
vt 0.459500998 0.112823002
vt 0.0496440008 0.283683985
vt 0.0140760001 0.239264995
vt 0.0219030008 0.28303799
vt 0.0595009997 0.240323007
vt 0.785252988 0.183669999
vt 0.82900399 0.237737
vt 0.829038978 0.183697999
vt 0.785219014 0.237709001
vt 0.828990996 0.258183002
vt 0.78520602 0.258154988
vt 0.785265982 0.163223997
vt 0.829051971 0.163251996
vn -0.962104499 0 0.272681009
vn -0.962104499 0 0.272681009
vn -0.962104499 0 0.272681009
vn -0.962104499 0 0.272681009
vn -0.962104499 0 0.272681009
vn 0.555255987 -0.673369825 0.4881228
vn 0.346796477 -0.919195867 0.186577493
vn 0.346796477 -0.919195867 0.186577493
vn 0.554422822 0.670575528 0.492893291
vn 0.650752318 0 0.759290077
vn 0.347950028 0.916922148 0.195408683
vn 0.347950028 0.916922148 0.195408683
vn 0.925441148 0 0.378891386
vn 0.925441148 0 0.378891386
vn 0.925441148 0 0.378891386
vn 0.925441148 0 0.378891386
vn -0.341885324 -0.926559106 0.156852314
vn -0.341885324 -0.926559106 0.156852314
vn -0.341885324 -0.926559106 0.156852314
vn -0.558458343 0.689080877 0.461835277
vn -0.666955711 0 0.745097363
vn -0.666955711 0 0.745097363
vn -0.343161523 0.924500333 0.1659497
vn -0.343161523 0.924500333 0.1659497
vn 0 -0.962104577 0.272680736
vn 0 -0.962104577 0.272680736
vn 0 -0.962104577 0.272680736
vn 0 -0.962104577 0.272680736
vn 0 -0.962104577 0.272680736
vn 0.673367996 0.555255432 0.488125953
vn 0.919192224 0.346800674 0.186587639
vn 0.919192224 0.346800674 0.186587639
vn -0.670575465 0.55442267 0.492893547
vn 0 0.650752154 0.759290217
vn -0.916919906 0.347953299 0.195413378
vn -0.916919906 0.347953299 0.195413378
vn 0 0.925438732 0.378897286
vn 0 0.925438732 0.378897286
vn 0 0.925438732 0.378897286
vn 0 0.925438732 0.378897286
vn 0.926556298 -0.341889364 0.156860093
vn 0.926556298 -0.341889364 0.156860093
vn 0.926556298 -0.341889364 0.156860093
vn -0.689082385 -0.558458703 0.461832592
vn 0 -0.666957418 0.745095835
vn 0 -0.666957418 0.745095835
vn -0.924498809 -0.343164571 0.16595189
vn -0.924498809 -0.343164571 0.16595189
vn -0.894627237 0.323003628 -0.308724412
vn -0.147277958 0.857962509 -0.49214788
vn -0.92869853 0.367831285 -0.0471082514
vn 0 0.300050702 -0.953923255
vn -0.933369232 0.309058899 0.182495134
vn -0.76612495 0.637556031 0.0810855643
vn -0.108353897 0.743548212 0.65984505
vn 0 0.375089299 0.926988683
vn 0.74171326 0.67071512 -0.00163317999
vn 0.959017921 0.283055571 -0.0128128814
vn 0.959727268 -0.280925444 -0.00211310947
vn -0.348529286 0.937199261 -0.0135971029
vn 0.34853568 -0.937223044 -0.0116553095
vn -0.337020899 -0.941494375 -0.00229238019
vn -0.958901199 -0.283380222 -0.0142877443
vn -0.959727682 0.280924029 -0.00211319014
vn -0.741715654 0.670712472 -0.00163325247
vn -0.646862615 0.755433501 -0.104350287
vn -0.983996603 0.15113686 0.0943839747
vn 0.698521779 -0.712923694 -0.0617019614
vn 0.981865277 0.115552215 0.150293926
vn -0.620149502 0.734469647 0.275624624
vn -0.905448418 -0.237092546 0.352065741
vn -0.690348006 -0.708247607 0.147665022
vn -0.615925897 -0.669249425 -0.415620616
vn 0 -0.924755062 0.380562841
vn 0.642499083 -0.698127993 0.315930742
vn 0.942035401 -3.65433058e-16 0.335513491
vn 0.620148778 0.734470803 0.275623173
vn 0.593955051 0.804267767 -0.0192550029
vn 0.492472496 0.666851395 -0.559267429
vn 0 0.911839852 -0.41054608
vn 0 0.989669096 -0.143370431
vn 0 0.911839852 -0.41054608
vn 0 0.999037887 -0.0438554376
vn 0 0.998677906 0.0514046783
vn 0 0.984949332 0.17284332
vn 0 0.865021845 0.5017342
vn 0 0.865021845 0.5017342
vn 0.811738144 0.427761319 -0.397619717
vn 0.932069921 -0.353003806 -0.081449223
vn 0.840231437 -0.376413047 -0.390287522
vn 0.884680276 0.464326959 -0.0417286972
vn -0.222739032 -0.970902134 -0.0879566379
vn -0.287239049 -0.862772104 -0.416074542
vn -0.991334879 -0.0964255897 -0.0892034902
vn -0.897049843 -0.0258814241 -0.441170863
vn -0.876759399 0.460762898 -0.137806053
vn -0.812358497 0.429537167 -0.394425525
vn -0.884392809 0.464173289 0.0489133622
vn -0.928958595 -0.357337511 0.0966738423
vn -0.772358872 0.407245449 0.487455553
vn -0.801395457 -0.356815989 0.480049655
vn 0.231600535 -0.967188561 0.104438877
vn 0.267593123 -0.818720313 0.508026543
vn 0.990250233 -0.0900336135 0.106294046
vn 0.844375651 -0.027820012 0.53502879
vn 0.872883296 0.45877361 0.166137071
vn 0.773417762 0.409347108 0.48400404
vn 0 -2.29759814e-16 1
vn 0 -2.38062398e-16 1
vn 0 -2.27952995e-16 1
vn 0 -2.20161947e-16 1
vn 0 -2.20161947e-16 1
vn 0 0 -1
vn 0 1.61914638e-16 -1
vn 0 0 -1
vn 0 1.99531686e-16 -1
vn 0 3.72714194e-16 -1
vn 0 -0.767544308 0.640995894
vn 0 -1 4.30671158e-06
vn 0 -1 4.30671158e-06
vn 0 -0.767544308 0.640995894
vn 0 -0.32339835 0.946262916
vn 0 -0.32339835 0.946262916
vn 0.990812814 -0.135058888 -0.00700462696
vn 1 0 0
vn 1 0 0
vn 1 0 0
vn 1 0 0
vn 0.987298941 -0.156984727 -0.0244253324
vn 0.947565938 -0.315761132 -0.0491294327
vn 0 9.8451181e-16 -1
vn -0.989978086 -0.14103152 -0.00731438859
vn -0.987560834 -0.15702635 -0.00814393651
vn -1 0 0
vn -0.948584095 -0.316100378 -0.0163940727
vn -1 0 0
vn -1 0 0
vn -1 0 0
vn 0 -1 -2.1700598e-16
vn 0 -1 -2.1700598e-16
vn 0 -1 -2.1700598e-16
vn 0 0 -1
vn 0 0 -1
vn 0 0 -1
vn 0 0 -1
vn -5.18922653e-06 -0.460350336 0.887737331
vn -1.00155351e-06 -0.74793784 0.663768775
vn 0 -0.759084192 0.650992465
vn -5.74927167e-06 -0.409577771 0.912275205
vn -6.91842992e-06 9.62838667e-12 1
vn -7.66834265e-06 2.72736249e-07 1
vn 0 -0.681826488 0.731513937
vn 0 -0.834856781 0.550467216
vn 0 -0.893496523 0.449070109
vn 0 -0.893496523 0.449070109
vn 0.999694594 -0.0236496612 -0.00717025705
vn 0.998158344 0.0583901625 -0.0164471605
vn 0.997999558 0.0354925917 0.0523178531
vn 0.998884073 0.041729886 -0.022118438
vn 0.998597558 0.0469914428 -0.0243869129
vn 1 0 0
vn 1 0 0
vn 0.993250867 -0.115981149 -0.00104295276
vn 0.978134854 -0.207964109 -0.00177126901
vn 0.962301464 -0.271797101 -0.0101108378
vn 0.995970016 0.0792751985 0.041942459
vn 0.997706152 0.0610984336 0.0291447416
vn 0.99842115 0.0283321879 0.0485025215
vn 0.998945869 0.0428980567 0.0163372932
vn 0.997975921 0.0471801753 -0.0426390848
vn 0 -0.859406575 -0.511292812
vn 0 -1 -1.53361199e-16
vn 0 -0.663750112 -0.747954403
vn 0 -1 -1.53361199e-16
vn 0 -0.641787502 -0.766882522
vn 0 -0.720608724 -0.693341955
vn 0 -0.986170561 -0.165733598
vn 0 -0.986170561 -0.165733598
vn -0.998232762 0.0571992093 -0.0161121826
vn -0.998425362 0.049790674 -0.0258396159
vn -0.998185673 0.0554881187 -0.0233758612
vn -0.999694594 -0.0236494529 -0.00717085484
vn -0.997999771 0.0354953771 0.0523119032
vn -1 0 0
vn -1 0 0
vn -0.999377717 0.0247900159 0.0250924979
vn -0.993766833 -0.111473167 -0.00110224963
vn -0.995969737 0.0792779395 0.0419439092
vn -0.99842104 0.0283331723 0.0485042068
vn -0.998945796 0.0428995488 0.0163378615
vn -0.997975781 0.0471818132 -0.042640565
vn -0.978135399 -0.207961546 -0.00177094069
vn -0.962305445 -0.271783072 -0.0101089968
vn 0 -0.961851159 -0.273573297
vn 0 -0.999560022 -0.0296607743
vn 0 -0.999560022 -0.0296607743
vn 0 -0.973459493 -0.22885938
vn 0 -0.539559509 -0.841947467
vn 0 -0.310369794 -0.950615901
vn 0 -0.344612236 -0.938745123
vn 0 -0.647631741 -0.761953495
vn 0 -0.849891983 -0.52695694
vn 0 -0.849891983 -0.52695694
vn 0 -2.78245635e-16 1
vn 0 -0.0897521071 0.995964136
vn 0 -2.78245635e-16 1
vn 0 -0.073136945 0.997321908
vn 0 -0.741909152 0.670500417
vn 0 -0.741909152 0.670500417
vn -8.42462367e-22 0.999788929 -0.0205450091
vn -8.51846893e-22 1 2.2217236e-16
vn -1.7036941e-21 1 2.22172401e-16
vn 0 0.999711401 -0.0240231989
vn 0 0.465491676 -0.885052258
vn 0 0.465491676 -0.885052258
vn 0 0.936428356 -0.350858851
vn 0 0.951191638 -0.308600824
vn 0 0.936428356 -0.350858851
vn 0 0.993691437 -0.11214869
vn 0 0.909514576 0.415672029
vn 0 0.909514576 0.415672029
vn 0.848446611 0.466346407 -0.250318553
vn 0.896158866 -0.246285634 -0.369110653
vn 0.824293454 0.453070444 -0.339510639
vn 0.92849204 -0.329348317 -0.171558202
vn 0.654329247 -0.719300467 -0.233366825
vn 0.648463603 -0.712851967 -0.267089926
vn 0.892903112 -0.0385015437 0.448599669
vn 0.80204964 0.440844568 0.402954639
vn 0.63746506 -0.700762207 0.320266494
vn -0.648464167 -0.712851519 -0.267089753
vn -0.833681874 -0.498168758 -0.238332585
vn -0.919149108 -0.108822462 -0.378579699
vn -0.670576991 -0.73715997 -0.0831966253
vn -0.836443439 0.459748897 -0.298317488
vn -0.824293457 0.453070445 -0.33951063
vn -0.802049459 0.440843337 0.402956347
vn -0.814063189 -0.412345036 0.408989848
vn -0.63746604 -0.700761281 0.320266569
vn 0 0 1
vn 0 0 1
vn 0 0 1
vn 0 0 1
vn 0 0 1
vn 0 9.27710072e-16 -1
vn 0 5.56626084e-16 -1
vn 0 9.27710072e-16 -1
vn 0 4.63854978e-16 -1
vn 0 0 -1
vn 0 -0.99997086 0.0076340529
vn 0 -0.999380827 -0.0351847031
vn 0 -0.999511819 -0.0312429767
vn 0 -0.99997086 0.0076340529
vn 0 -0.913031171 -0.407889789
vn 0 -0.913031171 -0.407889789
vn 0.973940988 0.223983071 0.0356445827
vn 0.98218254 0.184930505 0.0334389962
vn 0.996452629 0.0401313126 0.0739705009
vn 0.968255561 0.248396773 -0.0279322541
vn 0.996911452 -0.0329738427 0.0712761064
vn 0.977518895 0.207508623 -0.0373762072
vn 0.938999257 0.193658359 -0.284212659
vn 0.940810292 0.190928421 -0.280039877
vn 0 0.999774516 -0.0212347957
vn 0 0.996865535 0.0791145049
vn 0 0.993143767 -0.116899351
vn 0 0.980446287 0.196786887
vn 0 0.913029109 -0.407894405
vn 0 0.913029109 -0.407894405
vn 0 0.991073277 0.133318263
vn 0 0.986284517 -0.165054086
vn 0 0.327424133 -0.944877472
vn 0 0.346447861 -0.93806923
vn 0 0 -1
vn 0 0 -1
vn -0.967438492 0.253095092 -0.00237440518
vn -0.982182346 0.184931645 0.0334383944
vn -0.974843327 0.205145204 -0.0871546465
vn -0.938999857 0.193660961 -0.284208904
vn -0.938291897 0.190421334 -0.288700593
vn -0.973940671 0.223984533 0.0356440429
vn -0.996452596 0.0401354302 0.0739687184
vn -0.99691165 -0.0329718224 0.0712742617
vn 0 -3.37690145e-16 1
vn 0 -3.37690145e-16 1
vn 0 -3.37690145e-16 1
vn 0 -3.37690145e-16 1
vn 0 -0.993614724 -0.112826327
vn 0 -0.993614698 0.112826555
vn 0 -0.948790659 -0.315905502
vn 0 -0.948790092 0.315907205
vn 0 -0.730278289 0.683149779
vn 0 -0.730278289 0.683149779
vn 0 -0.730284024 -0.683143649
vn 0 -0.730284024 -0.683143649

usemtl gun0910
f 1/1/1 3/3/3 2/2/2
f 4/4/4 2/2/2 5/5/5
f 6/6/6 8/8/8 7/7/7
f 9/9/9 10/10/10 6/6/6
f 9/9/9 12/12/12 11/11/11
f 13/13/13 15/15/15 14/14/14
f 13/13/13 14/14/14 16/16/16
f 17/17/17 19/19/19 18/18/18
f 20/20/20 22/22/22 21/21/21
f 20/20/20 24/24/24 23/23/23
f 25/25/25 27/27/27 26/26/26
f 28/28/28 26/26/26 29/29/29
f 30/30/30 32/32/32 31/31/31
f 33/33/33 34/34/34 30/30/30
f 33/33/33 36/36/36 35/35/35
f 37/37/37 39/39/39 38/38/38
f 37/37/37 38/38/38 40/40/40
f 41/41/41 43/43/43 42/42/42
f 44/44/44 46/46/46 45/45/45
f 44/44/44 48/48/48 47/47/47
f 49/49/49 51/51/51 50/50/50
f 49/49/49 50/50/50 52/52/52
f 53/53/53 51/51/51 49/49/49
f 53/53/53 54/54/54 51/51/51
f 54/54/54 50/50/50 51/51/51
f 53/53/53 55/55/55 54/54/54
f 54/54/54 55/55/55 50/50/50
f 53/53/53 56/56/56 55/55/55
f 57/57/57 59/59/59 58/58/58
f 57/57/57 58/58/58 60/60/60
f 59/59/59 61/61/61 58/58/58
f 59/59/59 62/62/62 61/61/61
f 62/62/62 63/63/63 61/61/61
f 62/62/62 64/64/64 63/63/63
f 64/64/64 60/60/60 63/63/63
f 64/64/64 65/65/65 60/60/60
f 63/63/63 60/60/60 66/66/66
f 63/63/63 66/66/66 67/67/67
f 61/61/61 63/63/63 67/67/67
f 58/58/58 61/61/61 68/68/68
f 58/58/58 68/68/68 69/69/69
f 60/60/60 58/58/58 69/69/69
f 67/67/67 66/66/66 70/70/70
f 67/67/67 70/70/70 71/71/71
f 72/72/72 67/67/67 71/71/71
f 73/73/73 67/67/67 72/72/72
f 72/72/72 71/71/71 74/74/74
f 69/69/69 68/68/68 75/75/75
f 69/69/69 74/74/74 76/76/76
f 77/77/77 69/69/69 76/76/76
f 77/77/77 78/78/78 69/69/69
f 79/79/79 69/69/69 78/78/78
f 80/80/80 82/82/82 81/81/81
f 80/80/80 81/81/81 83/83/83
f 83/83/83 81/81/81 84/84/84
f 83/83/83 84/84/84 85/85/85
f 85/85/85 84/84/84 86/86/86
f 85/85/85 86/86/86 87/87/87
f 88/88/88 90/90/90 89/89/89
f 88/88/88 89/89/89 91/91/91
f 90/90/90 92/92/92 89/89/89
f 90/90/90 93/93/93 92/92/92
f 93/93/93 94/94/94 92/92/92
f 93/93/93 95/95/95 94/94/94
f 95/95/95 96/96/96 94/94/94
f 95/95/95 97/97/97 96/96/96
f 94/94/94 96/96/96 98/98/98
f 94/94/94 98/98/98 99/99/99
f 92/92/92 94/94/94 99/99/99
f 99/99/99 98/98/98 100/100/100
f 99/99/99 100/100/100 101/101/101
f 102/102/102 99/99/99 101/101/101
f 92/92/92 99/99/99 102/102/102
f 89/89/89 92/92/92 102/102/102
f 102/102/102 101/101/101 103/103/103
f 104/104/104 102/102/102 103/103/103
f 89/89/89 102/102/102 104/104/104
f 91/91/91 89/89/89 104/104/104
f 104/104/104 103/103/103 105/105/105
f 106/106/106 104/104/104 105/105/105
f 91/91/91 104/104/104 106/106/106
f 106/106/106 105/105/105 107/107/107
f 108/108/108 110/110/110 109/109/109
f 111/111/111 110/110/110 108/108/108
f 111/111/111 112/112/112 110/110/110
f 113/113/113 115/115/115 114/114/114
f 113/113/113 114/114/114 116/116/116
f 116/116/116 114/114/114 117/117/117
f 118/118/118 120/120/120 119/119/119
f 118/118/118 119/119/119 121/121/121
f 122/122/122 118/118/118 121/121/121
f 122/122/122 123/123/123 118/118/118
f 124/124/124 126/126/126 125/125/125
f 124/124/124 125/125/125 127/127/127
f 124/124/124 127/127/127 128/128/128
f 129/129/129 126/126/126 124/124/124
f 129/129/129 124/124/124 130/130/130
f 130/130/130 131/131/131 129/129/129
f 132/132/132 134/134/134 133/133/133
f 132/132/132 133/133/133 135/135/135
f 132/132/132 136/136/136 134/134/134
f 136/136/136 132/132/132 137/137/137
f 136/136/136 137/137/137 138/138/138
f 139/139/139 141/141/141 140/140/140
f 142/142/142 144/144/144 143/143/143
f 142/142/142 143/143/143 145/145/145
f 146/146/146 148/148/148 147/147/147
f 146/146/146 147/147/147 149/149/149
f 150/150/150 146/146/146 149/149/149
f 150/150/150 151/151/151 146/146/146
f 147/147/147 148/148/148 152/152/152
f 147/147/147 152/152/152 153/153/153
f 153/153/153 152/152/152 154/154/154
f 153/153/153 154/154/154 155/155/155
f 156/156/156 158/158/158 157/157/157
f 156/156/156 157/157/157 159/159/159
f 159/159/159 157/157/157 160/160/160
f 160/160/160 157/157/157 161/161/161
f 160/160/160 161/161/161 162/162/162
f 163/163/163 156/156/156 159/159/159
f 164/164/164 156/156/156 163/163/163
f 164/164/164 163/163/163 165/165/165
f 163/163/163 167/167/167 166/166/166
f 167/167/167 168/168/168 166/166/166
f 168/168/168 167/167/167 169/169/169
f 169/169/169 167/167/167 170/170/170
f 171/171/171 173/173/173 172/172/172
f 171/171/171 172/172/172 174/174/174
f 173/173/173 171/171/171 175/175/175
f 173/173/173 175/175/175 176/176/176
f 176/176/176 175/175/175 177/177/177
f 176/176/176 177/177/177 178/178/178
f 179/179/179 181/181/181 180/180/180
f 179/179/179 182/182/182 181/181/181
f 179/179/179 183/183/183 182/182/182
f 179/179/179 180/180/180 184/184/184
f 179/179/179 184/184/184 185/185/185
f 182/182/182 186/186/186 181/181/181
f 182/182/182 187/187/187 186/186/186
f 186/186/186 187/187/187 188/188/188
f 189/189/189 186/186/186 188/188/188
f 186/186/186 189/189/189 190/190/190
f 186/186/186 190/190/190 191/191/191
f 192/192/192 187/187/187 182/182/182
f 192/192/192 193/193/193 187/187/187
f 194/194/194 196/196/196 195/195/195
f 194/194/194 195/195/195 197/197/197
f 194/194/194 197/197/197 198/198/198
f 194/194/194 198/198/198 199/199/199
f 199/199/199 198/198/198 200/200/200
f 199/199/199 200/200/200 201/201/201
f 202/202/202 201/201/201 200/200/200
f 202/202/202 203/203/203 201/201/201
f 204/204/204 206/206/206 205/205/205
f 204/204/204 205/205/205 207/207/207
f 205/205/205 208/208/208 207/207/207
f 205/205/205 209/209/209 208/208/208
f 210/210/210 212/212/212 211/211/211
f 210/210/210 211/211/211 213/213/213
f 210/210/210 213/213/213 214/214/214
f 210/210/210 214/214/214 215/215/215
f 216/216/216 218/218/218 217/217/217
f 216/216/216 217/217/217 219/219/219
f 219/219/219 217/217/217 220/220/220
f 219/219/219 220/220/220 221/221/221
f 222/222/222 224/224/224 223/223/223
f 222/222/222 223/223/223 225/225/225
f 223/223/223 226/226/226 225/225/225
f 223/223/223 227/227/227 226/226/226
f 222/222/222 225/225/225 228/228/228
f 222/222/222 228/228/228 229/229/229
f 225/225/225 226/226/226 230/230/230
f 225/225/225 230/230/230 228/228/228
f 231/231/231 233/233/233 232/232/232
f 231/231/231 232/232/232 234/234/234
f 233/233/233 235/235/235 232/232/232
f 233/233/233 236/236/236 235/235/235
f 232/232/232 235/235/235 237/237/237
f 232/232/232 237/237/237 238/238/238
f 234/234/234 232/232/232 238/238/238
f 234/234/234 238/238/238 239/239/239
f 240/240/240 242/242/242 241/241/241
f 243/243/243 242/242/242 240/240/240
f 243/243/243 244/244/244 242/242/242
f 245/245/245 247/247/247 246/246/246
f 245/245/245 246/246/246 248/248/248
f 248/248/248 246/246/246 249/249/249
f 250/250/250 252/252/252 251/251/251
f 250/250/250 251/251/251 253/253/253
f 251/251/251 252/252/252 254/254/254
f 251/251/251 254/254/254 255/255/255
f 256/256/256 258/258/258 257/257/257
f 256/256/256 257/257/257 259/259/259
f 257/257/257 258/258/258 260/260/260
f 259/259/259 257/257/257 261/261/261
f 259/259/259 261/261/261 262/262/262
f 259/259/259 262/262/262 263/263/263
f 264/264/264 266/266/266 265/265/265
f 264/264/264 265/265/265 267/267/267
f 266/266/266 264/264/264 268/268/268
f 266/266/266 268/268/268 269/269/269
f 267/267/267 265/265/265 270/270/270
f 267/267/267 270/270/270 271/271/271
f 272/272/272 271/271/271 270/270/270
f 272/272/272 273/273/273 271/271/271
f 272/272/272 274/274/274 273/273/273
f 272/272/272 275/275/275 274/274/274
f 276/276/276 278/278/278 277/277/277
f 278/278/278 276/276/276 279/279/279
f 278/278/278 279/279/279 280/280/280
f 281/281/281 276/276/276 277/277/277
f 281/281/281 277/277/277 282/282/282
f 282/282/282 277/277/277 283/283/283
f 284/284/284 286/286/286 285/285/285
f 284/284/284 285/285/285 287/287/287
f 288/288/288 290/290/290 289/289/289
f 288/288/288 289/289/289 291/291/291
f 291/291/291 289/289/289 292/292/292
f 291/291/291 292/292/292 293/293/293
f 290/290/290 288/288/288 294/294/294
f 290/290/290 294/294/294 295/295/295
