# Generated by tools/yaml_mesh_converter/split_reload_parts.py
mtllib gun13.mtl
o gun13_reload
v 0.0681003854 0.204874098 -0.501596391
vt 0.827899992 0.00590000022
vn 0.673733278 0.734508203 0.0811244089
v 0.071728006 0.205203936 -0.534574687
vt 0.827400029 0.0348999985
vn 0.656053366 0.715396255 -0.240420839
v 0.000164991798 0.270830721 -0.534574687
vt 0.7773 0.0348999985
vn 0.660708039 0.719790604 -0.212993835
v 0.0681003854 0.204874098 -0.501596391
vt 0.827899992 0.00590000022
vn 0.673733278 0.734508203 0.0811244089
v 0.000164991798 0.270830721 -0.534574687
vt 0.7773 0.0348999985
vn 0.660708039 0.719790604 -0.212993835
v 0.000164986821 0.267203301 -0.501596391
vt 0.776899993 0.00590000022
vn 0.673839606 0.734448061 0.0807850875
v 0.000164991798 0.270830721 -0.534574687
vt 0.7773 0.0348999985
vn 0.660708039 0.719790604 -0.212993835
v 0.071728006 0.205203936 -0.534574687
vt 0.827400029 0.0348999985
vn 0.656053366 0.715396255 -0.240420839
v 0.0463346839 0.203555137 -0.564914703
vt 0.827899992 0.0500000007
vn 0.676086847 0.735808926 0.0386238254
v 0.000164991798 0.270830721 -0.534574687
vt 0.7773 0.0348999985
vn 0.660708039 0.719790604 -0.212993835
v 0.0463346839 0.203555137 -0.564914703
vt 0.827899992 0.0500000007
vn 0.676086847 0.735808926 0.0386238254
v 0.000164996381 0.246097177 -0.564914703
vt 0.788100004 0.0500000007
vn 0.677285117 0.73503861 0.0316719303
v 0.0463346839 0.203555137 -0.564914703
vt 0.827899992 0.0500000007
vn 0.676086847 0.735808926 0.0386238254
v 0.000165019534 0.278745651 -0.718264103
vt 0.763499975 0.148699999
vn 0.676168915 0.736471729 -0.0201243952
v 0.000164996381 0.246097177 -0.564914703
vt 0.788100004 0.0500000007
vn 0.677285117 0.73503861 0.0316719303
v 0.0463346839 0.203555137 -0.564914703
vt 0.827899992 0.0500000007
vn 0.676086847 0.735808926 0.0386238254
v 0.0799726248 0.205533773 -0.718264103
vt 0.825399995 0.148699999
vn 0.675289083 0.733768035 -0.0746265734
v 0.000165019534 0.278745651 -0.718264103
vt 0.763499975 0.148699999
vn 0.676168915 0.736471729 -0.0201243952
v 0.0799726248 0.205533773 -0.718264103
vt 0.825399995 0.148699999
vn 0.675289083 0.733768035 -0.0746265734
v 0.000165054342 0.21410799 -0.948782682
vt 0.819599986 0.306800008
vn 0.663731647 0.719893036 -0.203013097
v 0.000165019534 0.278745651 -0.718264103
vt 0.763499975 0.148699999
vn 0.676168915 0.736471729 -0.0201243952
v 0.0799726248 0.205533773 -0.718264103
vt 0.825399995 0.148699999
vn 0.675289083 0.733768035 -0.0746265734
v 0.0133563941 0.201576099 -0.948782682
vt 0.825500011 0.306800008
vn 0.673848362 0.709307348 -0.206909331
v 0.000165054342 0.21410799 -0.948782682
vt 0.819599986 0.306800008
vn 0.663731647 0.719893036 -0.203013097
v 0.000164986821 0.134630352 -0.501596391
vt 0.882399976 0.00590000022
vn 0 -0.994343241 0.106214491
v 0.000164991798 0.131002516 -0.534574687
vt 0.881600022 0.0348999985
vn 0 -0.91332927 -0.407221862
v 0.071728006 0.205203936 -0.534574687
vt 0.827400029 0.0348999985
vn 0.71340148 -0.688669815 -0.129584778
v 0.000164986821 0.134630352 -0.501596391
vt 0.882399976 0.00590000022
vn 0 -0.994343241 0.106214491
v 0.071728006 0.205203936 -0.534574687
vt 0.827400029 0.0348999985
vn 0.71340148 -0.688669815 -0.129584778
v 0.0681003854 0.204874098 -0.501596391
vt 0.827899992 0.00590000022
vn 0.71695705 -0.693396433 0.0719303457
v 0.000164991798 0.131002516 -0.534574687
vt 0.881600022 0.0348999985
vn 0 -0.91332927 -0.407221862
v 0.0463346839 0.203555137 -0.564914703
vt 0.827899992 0.0500000007
vn 0.716539823 -0.691673653 -0.0903229735
v 0.071728006 0.205203936 -0.534574687
vt 0.827400029 0.0348999985
vn 0.71340148 -0.688669815 -0.129584778
v 0.000164991798 0.131002516 -0.534574687
vt 0.881600022 0.0348999985
vn 0 -0.91332927 -0.407221862
v 0.000164996381 0.155736461 -0.564914703
vt 0.869899988 0.0500000007
vn 8.26538947e-17 -0.989856279 0.142072327
v 0.0463346839 0.203555137 -0.564914703
vt 0.827899992 0.0500000007
vn 0.716539823 -0.691673653 -0.0903229735
v 0.000164996381 0.155736461 -0.564914703
vt 0.869899988 0.0500000007
vn 8.26538947e-17 -0.989856279 0.142072327
v 0.0799726248 0.205533773 -0.718264103
vt 0.825399995 0.148699999
vn 0.71854149 -0.695212878 -0.0194211422
v 0.0463346839 0.203555137 -0.564914703
vt 0.827899992 0.0500000007
vn 0.716539823 -0.691673653 -0.0903229735
v 0.000164996381 0.155736461 -0.564914703
vt 0.869899988 0.0500000007
vn 8.26538947e-17 -0.989856279 0.142072327
v 0.000165019534 0.123087972 -0.718264103
vt 0.891200006 0.148699999
vn 0.716469534 -0.694032444 -0.0706425781
v 0.0799726248 0.205533773 -0.718264103
vt 0.825399995 0.148699999
vn 0.71854149 -0.695212878 -0.0194211422
v 0.000165019534 0.123087972 -0.718264103
vt 0.891200006 0.148699999
vn 0.716469534 -0.694032444 -0.0706425781
v 0.0133563941 0.201576099 -0.948782682
vt 0.825500011 0.306800008
vn 0.704734656 -0.68294013 -0.192202609
v 0.0799726248 0.205533773 -0.718264103
vt 0.825399995 0.148699999
vn 0.71854149 -0.695212878 -0.0194211422
v 0.000165019534 0.123087972 -0.718264103
vt 0.891200006 0.148699999
vn 0.716469534 -0.694032444 -0.0706425781
v 0.000165054342 0.188055098 -0.948782682
vt 0.832899988 0.306800008
vn 0.702306424 -0.685183209 -0.193105299
v 0.0133563941 0.201576099 -0.948782682
vt 0.825500011 0.306800008
vn 0.704734656 -0.68294013 -0.192202609
v -0.0717278123 0.205203936 -0.534574687
vt 0.827400029 0.0348999985
vn -0.711831527 -0.69037687 -0.129134246
v 0.000164991798 0.131002516 -0.534574687
vt 0.881600022 0.0348999985
vn 0 -0.91332927 -0.407221862
v 0.000164986821 0.134630352 -0.501596391
vt 0.882399976 0.00590000022
vn 0 -0.994343241 0.106214491
v -0.0717278123 0.205203936 -0.534574687
vt 0.827400029 0.0348999985
vn -0.711831527 -0.69037687 -0.129134246
v 0.000164986821 0.134630352 -0.501596391
vt 0.882399976 0.00590000022
vn 0 -0.994343241 0.106214491
v -0.0681001917 0.204874098 -0.501596391
vt 0.827899992 0.00590000022
vn -0.715287235 -0.695139618 0.0717292309
v -0.0463344753 0.203555137 -0.564914703
vt 0.827899992 0.0500000007
vn -0.714237096 -0.694019323 -0.0905679306
v 0.000164996381 0.155736461 -0.564914703
vt 0.869899988 0.0500000007
vn 8.26538947e-17 -0.989856279 0.142072327
v 0.000164991798 0.131002516 -0.534574687
vt 0.881600022 0.0348999985
vn 0 -0.91332927 -0.407221862
v -0.0463344753 0.203555137 -0.564914703
vt 0.827899992 0.0500000007
vn -0.714237096 -0.694019323 -0.0905679306
v 0.000164991798 0.131002516 -0.534574687
vt 0.881600022 0.0348999985
vn 0 -0.91332927 -0.407221862
v -0.0717278123 0.205203936 -0.534574687
vt 0.827400029 0.0348999985
vn -0.711831527 -0.69037687 -0.129134246
v -0.0799723715 0.205533773 -0.718264103
vt 0.825399995 0.148699999
vn -0.716914769 -0.696897285 -0.0191673704
v 0.000164996381 0.155736461 -0.564914703
vt 0.869899988 0.0500000007
vn 8.26538947e-17 -0.989856279 0.142072327
v -0.0463344753 0.203555137 -0.564914703
vt 0.827899992 0.0500000007
vn -0.714237096 -0.694019323 -0.0905679306
v -0.0799723715 0.205533773 -0.718264103
vt 0.825399995 0.148699999
vn -0.716914769 -0.696897285 -0.0191673704
v 0.000165019534 0.123087972 -0.718264103
vt 0.891200006 0.148699999
vn -0.715872219 -0.695828432 -0.0578771066
v 0.000164996381 0.155736461 -0.564914703
vt 0.869899988 0.0500000007
vn 8.26538947e-17 -0.989856279 0.142072327
v -0.0133560691 0.201576099 -0.948782682
vt 0.825500011 0.306800008
vn -0.70232069 -0.685427792 -0.19218322
v 0.000165019534 0.123087972 -0.718264103
vt 0.891200006 0.148699999
vn -0.715872219 -0.695828432 -0.0578771066
v -0.0799723715 0.205533773 -0.718264103
vt 0.825399995 0.148699999
vn -0.716914769 -0.696897285 -0.0191673704
v -0.0133560691 0.201576099 -0.948782682
vt 0.825500011 0.306800008
vn -0.70232069 -0.685427792 -0.19218322
v 0.000165054342 0.188055098 -0.948782682
vt 0.832899988 0.306800008
vn -0.693467268 -0.693473561 -0.195441982
v 0.000165019534 0.123087972 -0.718264103
vt 0.891200006 0.148699999
vn -0.693467268 -0.693473561 -0.195441982
v 0.000164986821 0.267203301 -0.501596391
vt 0.902700007 0.402999997
vn 0 -8.37443109e-16 1
v 0.000164986821 0.134630352 -0.501596391
vt 0.904100001 0.301299989
vn 0 -8.37443109e-16 1
v 0.0681003854 0.204874098 -0.501596391
vt 0.955500007 0.35589999
vn 8.65898225e-16 -8.37443109e-16 1
v 0.000164986821 0.267203301 -0.501596391
vt 0.902700007 0.402999997
vn 0 -8.37443109e-16 1
v -0.0681001917 0.204874098 -0.501596391
vt 0.851199985 0.354499996
vn -8.61715187e-16 -8.37443109e-16 1
v 0.000164986821 0.134630352 -0.501596391
vt 0.904100001 0.301299989
vn 0 -8.37443109e-16 1
v 0.000164991798 0.270830721 -0.534574687
vt 0.7773 0.0348999985
vn -0.658870147 0.721456423 -0.213051071
v -0.0717278123 0.205203936 -0.534574687
vt 0.827400029 0.0348999985
vn -0.654497173 0.716988299 -0.239919214
v -0.0681001917 0.204874098 -0.501596391
vt 0.827899992 0.00590000022
vn -0.672005891 0.736088959 0.0811241429
v 0.000164991798 0.270830721 -0.534574687
vt 0.7773 0.0348999985
vn -0.658870147 0.721456423 -0.213051071
v -0.0681001917 0.204874098 -0.501596391
vt 0.827899992 0.00590000022
vn -0.672005891 0.736088959 0.0811241429
v 0.000164986821 0.267203301 -0.501596391
vt 0.776899993 0.00590000022
vn -0.672056598 0.73606049 0.0809622421
v 0.000164991798 0.270830721 -0.534574687
vt 0.7773 0.0348999985
vn -0.658870147 0.721456423 -0.213051071
v -0.0463344753 0.203555137 -0.564914703
vt 0.827899992 0.0500000007
vn -0.674150382 0.73758477 0.0386001367
v -0.0717278123 0.205203936 -0.534574687
vt 0.827400029 0.0348999985
vn -0.654497173 0.716988299 -0.239919214
v 0.000164991798 0.270830721 -0.534574687
vt 0.7773 0.0348999985
vn -0.658870147 0.721456423 -0.213051071
v 0.000164996381 0.246097177 -0.564914703
vt 0.788100004 0.0500000007
vn -0.67467236 0.73743309 0.0317749011
v -0.0463344753 0.203555137 -0.564914703
vt 0.827899992 0.0500000007
vn -0.674150382 0.73758477 0.0386001367
v 0.000165019534 0.278745651 -0.718264103
vt 0.763499975 0.148699999
vn -0.674446062 0.73804593 -0.0202660881
v -0.0463344753 0.203555137 -0.564914703
vt 0.827899992 0.0500000007
vn -0.674150382 0.73758477 0.0386001367
v 0.000164996381 0.246097177 -0.564914703
vt 0.788100004 0.0500000007
vn -0.67467236 0.73743309 0.0317749011
v 0.000165019534 0.278745651 -0.718264103
vt 0.763499975 0.148699999
vn -0.674446062 0.73804593 -0.0202660881
v -0.0799723715 0.205533773 -0.718264103
vt 0.825399995 0.148699999
vn -0.673081634 0.735769734 -0.074859946
v -0.0463344753 0.203555137 -0.564914703
vt 0.827899992 0.0500000007
vn -0.674150382 0.73758477 0.0386001367
v 0.000165054342 0.21410799 -0.948782682
vt 0.819599986 0.306800008
vn -0.661195472 0.722228398 -0.202994309
v -0.0799723715 0.205533773 -0.718264103
vt 0.825399995 0.148699999
vn -0.673081634 0.735769734 -0.074859946
v 0.000165019534 0.278745651 -0.718264103
vt 0.763499975 0.148699999
vn -0.674446062 0.73804593 -0.0202660881
v 0.000165054342 0.21410799 -0.948782682
vt 0.819599986 0.306800008
vn -0.661195472 0.722228398 -0.202994309
v -0.0133560691 0.201576099 -0.948782682
vt 0.825500011 0.306800008
vn -0.665386397 0.717910112 -0.204611861
v -0.0799723715 0.205533773 -0.718264103
vt 0.825399995 0.148699999
vn -0.673081634 0.735769734 -0.074859946
v 0.000165054342 0.21410799 -0.948782682
vt 0.861999989 0.293900013
vn 0 0 -1
v 0.000165054342 0.188055098 -0.948782682
vt 0.861500025 0.331200004
vn 0 0 -1
v -0.0133560691 0.201576099 -0.948782682
vt 0.842599988 0.311199993
vn 0 0 -1
v 0.000165054342 0.21410799 -0.948782682
vt 0.861999989 0.293900013
vn 0 0 -1
v 0.0133563941 0.201576099 -0.948782682
vt 0.880900025 0.311699986
vn 0 0 -1
v 0.000165054342 0.188055098 -0.948782682
vt 0.861500025 0.331200004
vn 0 0 -1
usemtl RPG-31-Newlambert15
f 1/1/1 2/2/2 3/3/3
f 4/4/4 5/5/5 6/6/6
f 7/7/7 8/8/8 9/9/9
f 10/10/10 11/11/11 12/12/12
f 13/13/13 14/14/14 15/15/15
f 16/16/16 17/17/17 18/18/18
f 19/19/19 20/20/20 21/21/21
f 22/22/22 23/23/23 24/24/24
f 25/25/25 26/26/26 27/27/27
f 28/28/28 29/29/29 30/30/30
f 31/31/31 32/32/32 33/33/33
f 34/34/34 35/35/35 36/36/36
f 37/37/37 38/38/38 39/39/39
f 40/40/40 41/41/41 42/42/42
f 43/43/43 44/44/44 45/45/45
f 46/46/46 47/47/47 48/48/48
f 49/49/49 50/50/50 51/51/51
f 52/52/52 53/53/53 54/54/54
f 55/55/55 56/56/56 57/57/57
f 58/58/58 59/59/59 60/60/60
f 61/61/61 62/62/62 63/63/63
f 64/64/64 65/65/65 66/66/66
f 67/67/67 68/68/68 69/69/69
f 70/70/70 71/71/71 72/72/72
f 73/73/73 74/74/74 75/75/75
f 76/76/76 77/77/77 78/78/78
f 79/79/79 80/80/80 81/81/81
f 82/82/82 83/83/83 84/84/84
f 85/85/85 86/86/86 87/87/87
f 88/88/88 89/89/89 90/90/90
f 91/91/91 92/92/92 93/93/93
f 94/94/94 95/95/95 96/96/96
f 97/97/97 98/98/98 99/99/99
f 100/100/100 101/101/101 102/102/102
f 103/103/103 104/104/104 105/105/105
f 106/106/106 107/107/107 108/108/108
