# Generated by tools/yaml_mesh_converter/split_reload_parts.py
mtllib gun14.mtl
o gun14_reload
v 0.0996002629 -0.0441328734 -0.369388312
vt 0.456772 0.285035014
vn 0.920090067 -0.389023138 0.0457740874
v 0.0996002629 -0.0614102632 -0.439835787
vt 0.506609976 0.272722989
vn 0.924516563 -0.370171767 0.0907853962
v 0.16584526 0.104456194 -0.438134164
vt 0.505604982 0.39011699
vn 0.989382007 -0.141155222 0.034618612
v 0.0996002629 -0.0441328734 -0.369388312
vt 0.456772 0.285035014
vn 0.920090067 -0.389023138 0.0457740874
v 0.16584526 0.104456194 -0.438134164
vt 0.505604982 0.39011699
vn 0.989382007 -0.141155222 0.034618612
v 0.16584526 0.103735365 -0.367871344
vt 0.455875009 0.389690995
vn 0.988377159 0.149115926 0.0295809333
v 0.16584526 0.103735365 -0.367871344
vt 0.455875009 0.389690995
vn 0.988377159 0.149115926 0.0295809333
v 0.16584526 0.104456194 -0.438134164
vt 0.505604982 0.39011699
vn 0.989382007 -0.141155222 0.034618612
v 0.0996002629 0.256215692 -0.43657726
vt 0.504683971 0.497527003
vn 0.909066857 0.414405471 0.0431920626
v 0.16584526 0.103735365 -0.367871344
vt 0.455875009 0.389690995
vn 0.988377159 0.149115926 0.0295809333
v 0.0996002629 0.256215692 -0.43657726
vt 0.504683971 0.497527003
vn 0.909066857 0.414405471 0.0431920626
v 0.0996002629 0.242304116 -0.366449744
vt 0.455035001 0.487765014
vn 0.899268555 0.429036484 0.0851102893
v -0.0996002406 -0.0441328734 -0.369388312
vt 0.456772 0.285035014
vn -0.920090083 -0.389023101 0.0457740831
v -0.16584523 0.103735365 -0.367871344
vt 0.455875009 0.389690995
vn -1 0 -4.03990503e-17
v -0.16584523 0.104456194 -0.438134164
vt 0.505604982 0.39011699
vn -0.998817379 -0.000498744604 0.0486168212
v -0.0996002406 -0.0441328734 -0.369388312
vt 0.456772 0.285035014
vn -0.920090083 -0.389023101 0.0457740831
v -0.16584523 0.104456194 -0.438134164
vt 0.505604982 0.39011699
vn -0.998817379 -0.000498744604 0.0486168212
v -0.0996002406 -0.0614102632 -0.439835787
vt 0.506609976 0.272722989
vn -0.924516578 -0.370171732 0.0907853875
v -0.16584523 0.104456194 -0.438134164
vt 0.505604982 0.39011699
vn -0.998817379 -0.000498744604 0.0486168212
v -0.16584523 0.103735365 -0.367871344
vt 0.455875009 0.389690995
vn -1 0 -4.03990503e-17
v -0.0996002406 0.242304116 -0.366449744
vt 0.455035001 0.487765014
vn -0.909066875 0.414405433 0.0431920586
v -0.16584523 0.104456194 -0.438134164
vt 0.505604982 0.39011699
vn -0.998817379 -0.000498744604 0.0486168212
v -0.0996002406 0.242304116 -0.366449744
vt 0.455035001 0.487765014
vn -0.909066875 0.414405433 0.0431920586
v -0.0996002406 0.256215692 -0.43657726
vt 0.504683971 0.497527003
vn -0.913923168 0.398129072 0.0789790188
v -0.0996002406 -0.0441328734 -0.369388312
vt 0.726701975 0.0580889992
vn 0 -0.971217796 0.238193185
v -0.0996002406 -0.0614102632 -0.439835787
vt 0.767821014 0.0584409982
vn 0 -0.971217796 0.238193185
v 0.0996002629 -0.0614102632 -0.439835787
vt 0.766839027 0.152670994
vn 0 -0.971217796 0.238193185
v -0.0996002406 -0.0441328734 -0.369388312
vt 0.726701975 0.0580889992
vn 0 -0.971217796 0.238193185
v 0.0996002629 -0.0614102632 -0.439835787
vt 0.766839027 0.152670994
vn 0 -0.971217796 0.238193185
v 0.0996002629 -0.0441328734 -0.369388312
vt 0.725719988 0.152318001
vn 0 -0.971217796 0.238193185
v -0.0996002406 0.256215692 -0.43657726
vt 0.616169989 0.187619001
vn 0 0.980885928 0.19458365
v -0.0996002406 0.242304116 -0.366449744
vt 0.573583007 0.187267005
vn 0 0.980885928 0.19458365
v 0.0996002629 0.242304116 -0.366449744
vt 0.57456398 0.0726990029
vn 0 0.980885928 0.19458365
v -0.0996002406 0.256215692 -0.43657726
vt 0.616169989 0.187619001
vn 0 0.980885928 0.19458365
v 0.0996002629 0.242304116 -0.366449744
vt 0.57456398 0.0726990029
vn 0 0.980885928 0.19458365
v 0.0996002629 0.256215692 -0.43657726
vt 0.617151022 0.0730519965
vn 0 0.980885928 0.19458365
v -0.0996002406 0.256215692 -0.43657726
vt 0.374374986 0.303011
vn 0 0.0102584762 -0.99994738
v 0.0996002629 0.256215692 -0.43657726
vt 0.305501997 0.302421004
vn 0 0.0102584762 -0.99994738
v 0.16584526 0.104456194 -0.438134164
vt 0.283048004 0.249752
vn 0 0.0102584678 -0.999947381
v -0.0996002406 0.256215692 -0.43657726
vt 0.374374986 0.303011
vn 0 0.0102584762 -0.99994738
v 0.16584526 0.104456194 -0.438134164
vt 0.283048004 0.249752
vn 0 0.0102584678 -0.999947381
v -0.16584523 0.104456194 -0.438134164
vt 0.397729009 0.250734001
vn 0 0.010258463 -0.999947381
v -0.16584523 0.104456194 -0.438134164
vt 0.397729009 0.250734001
vn 0 0.010258463 -0.999947381
v 0.16584526 0.104456194 -0.438134164
vt 0.283048004 0.249752
vn 0 0.0102584678 -0.999947381
v 0.0996002629 -0.0614102632 -0.439835787
vt 0.306443989 0.192597002
vn 0 0.0102584555 -0.999947381
v -0.16584523 0.104456194 -0.438134164
vt 0.397729009 0.250734001
vn 0 0.010258463 -0.999947381
v 0.0996002629 -0.0614102632 -0.439835787
vt 0.306443989 0.192597002
vn 0 0.0102584555 -0.999947381
v -0.0996002406 -0.0614102632 -0.439835787
vt 0.375315994 0.193187997
vn 0 0.0102584555 -0.999947381
v 0.16584526 0.103735365 -0.367871344
vt 0.243371993 0.173927993
vn 0 -0.0102584713 0.99994738
v -0.16584523 0.103735365 -0.367871344
vt 0.155546993 0.173175007
vn 0 -0.0102585299 0.99994738
v -0.0996002406 -0.0441328734 -0.369388312
vt 0.173423007 0.134170994
vn 0 -0.0102583774 0.999947381
v 0.16584526 0.103735365 -0.367871344
vt 0.243371993 0.173927993
vn 0 -0.0102584713 0.99994738
v -0.0996002406 -0.0441328734 -0.369388312
vt 0.173423007 0.134170994
vn 0 -0.0102583774 0.999947381
v 0.0996002629 -0.0441328734 -0.369388312
vt 0.226168007 0.134623006
vn 0 -0.0102583774 0.999947381
v 0.0996002629 0.242304116 -0.366449744
vt 0.225518003 0.210468993
vn 0 -0.0102586316 0.999947379
v -0.16584523 0.103735365 -0.367871344
vt 0.155546993 0.173175007
vn 0 -0.0102585299 0.99994738
v 0.16584526 0.103735365 -0.367871344
vt 0.243371993 0.173927993
vn 0 -0.0102584713 0.99994738
v 0.0996002629 0.242304116 -0.366449744
vt 0.225518003 0.210468993
vn 0 -0.0102586316 0.999947379
v -0.0996002406 0.242304116 -0.366449744
vt 0.172773004 0.210016996
vn 0 -0.0102586316 0.999947379
v -0.16584523 0.103735365 -0.367871344
vt 0.155546993 0.173175007
vn 0 -0.0102585299 0.99994738
v 0.0826115087 -0.0231365263 -0.122694969
vt 0.294954985 0.308068007
vn 0.91575615 -0.401713443 -0.00412119282
v 0.0826115087 -0.0203877836 -0.390629143
vt 0.458820999 0.309473008
vn 0.915756154 -0.401713433 -0.00412118713
v 0.137557268 0.104854785 -0.389344275
vt 0.458104014 0.393115997
vn 0.989476794 -0.144684037 -0.00148431678
v 0.0826115087 -0.0231365263 -0.122694969
vt 0.294954985 0.308068007
vn 0.91575615 -0.401713443 -0.00412119282
v 0.137557268 0.104854785 -0.389344275
vt 0.458104014 0.393115997
vn 0.989476794 -0.144684037 -0.00148431678
v 0.137557268 0.102106035 -0.121410102
vt 0.294239014 0.391710997
vn 0.989476807 0.14468395 0.00148431589
v 0.137557268 0.102106035 -0.121410102
vt 0.294239014 0.391710997
vn 0.989476807 0.14468395 0.00148431589
v 0.137557268 0.104854785 -0.389344275
vt 0.458104014 0.393115997
vn 0.989476794 -0.144684037 -0.00148431678
v 0.0826115087 0.230097577 -0.388059407
vt 0.457387 0.476758987
vn 0.915756422 0.401712822 0.00412118644
v 0.137557268 0.102106035 -0.121410102
vt 0.294239014 0.391710997
vn 0.989476807 0.14468395 0.00148431589
v 0.0826115087 0.230097577 -0.388059407
vt 0.457387 0.476758987
vn 0.915756422 0.401712822 0.00412118644
v 0.0826115087 0.227348834 -0.120125234
vt 0.293522 0.475354999
vn 0.915756426 0.401712812 0.00412118076
v -0.0826114863 -0.0231365263 -0.122694969
vt 0.458820999 0.309473008
vn -0.91575621 -0.401713306 -0.00412119141
v -0.137557223 0.102106035 -0.121410102
vt 0.458104014 0.393115997
vn -1 -2.58448545e-17 6.86503948e-18
v -0.137557223 0.104854785 -0.389344275
vt 0.294239014 0.391710997
vn -1 -2.58448545e-17 5.04782315e-18
v -0.0826114863 -0.0231365263 -0.122694969
vt 0.458820999 0.309473008
vn -0.91575621 -0.401713306 -0.00412119141
v -0.137557223 0.104854785 -0.389344275
vt 0.294239014 0.391710997
vn -1 -2.58448545e-17 5.04782315e-18
v -0.0826114863 -0.0203877836 -0.390629143
vt 0.294955999 0.308068007
vn -0.915756214 -0.401713296 -0.00412118572
v -0.137557223 0.104854785 -0.389344275
vt 0.294239014 0.391710997
vn -1 -2.58448545e-17 5.04782315e-18
v -0.137557223 0.102106035 -0.121410102
vt 0.458104014 0.393115997
vn -1 -2.58448545e-17 6.86503948e-18
v -0.0826114863 0.227348834 -0.120125234
vt 0.457387 0.476758987
vn -0.915756482 0.401712685 0.00412118504
v -0.137557223 0.104854785 -0.389344275
vt 0.294239014 0.391710997
vn -1 -2.58448545e-17 5.04782315e-18
v -0.0826114863 0.227348834 -0.120125234
vt 0.457387 0.476758987
vn -0.915756482 0.401712685 0.00412118504
v -0.0826114863 0.230097577 -0.388059407
vt 0.293522 0.475354999
vn -0.915756478 0.401712695 0.00412117956
v -0.0826114863 -0.0231365263 -0.122694969
vt 0.411664009 0.190408006
vn 0 -0.99994738 -0.0102584826
v -0.0826114863 -0.0203877836 -0.390629143
vt 0.539029002 0.191498995
vn 0 -0.99994738 -0.0102584826
v 0.0826115087 -0.0203877836 -0.390629143
vt 0.538356006 0.270034999
vn 0 -0.99994738 -0.0102584826
v -0.0826114863 -0.0231365263 -0.122694969
vt 0.411664009 0.190408006
vn 0 -0.99994738 -0.0102584826
v 0.0826115087 -0.0203877836 -0.390629143
vt 0.538356006 0.270034999
vn 0 -0.99994738 -0.0102584826
v 0.0826115087 -0.0231365263 -0.122694969
vt 0.410991013 0.268943995
vn 0 -0.99994738 -0.0102584826
v -0.0826114863 0.230097577 -0.388059407
vt 0.516628981 0.188495994
vn 0 0.99994738 0.0102584826
v -0.0826114863 0.227348834 -0.120125234
vt 0.422809988 0.187692001
vn 0 0.99994738 0.0102584826
v 0.0826115087 0.227348834 -0.120125234
vt 0.423305988 0.129841
vn 0 0.99994738 0.0102584826
v -0.0826114863 0.230097577 -0.388059407
vt 0.516628981 0.188495994
vn 0 0.99994738 0.0102584826
v 0.0826115087 0.227348834 -0.120125234
vt 0.423305988 0.129841
vn 0 0.99994738 0.0102584826
v 0.0826115087 0.230097577 -0.388059407
vt 0.517123997 0.130645007
vn 0 0.99994738 0.0102584826
v 0.0826115087 -0.0461243242 -0.0843295231
vt 0.262154013 0.286408991
vn 0.877004013 -0.480457748 -0.00493097931
v 0.0826115087 -0.0455730408 -0.138065159
vt 0.294714987 0.286688
vn 0.877004302 -0.480457239 -0.00492909547
v 0.163180783 0.10147889 -0.136556551
vt 0.293844014 0.387263
vn 0.983685109 -0.179889381 -0.00184842445
v 0.0826115087 -0.0461243242 -0.0843295231
vt 0.262154013 0.286408991
vn 0.877004013 -0.480457748 -0.00493097931
v 0.163180783 0.10147889 -0.136556551
vt 0.293844014 0.387263
vn 0.983685109 -0.179889381 -0.00184842445
v 0.163181022 0.100927621 -0.0828209072
vt 0.26128301 0.386983991
vn 0.983639881 0.180136557 0.00184514082
v 0.163181022 0.100927621 -0.0828209072
vt 0.26128301 0.386983991
vn 0.983639881 0.180136557 0.00184514082
v 0.163180783 0.10147889 -0.136556551
vt 0.293844014 0.387263
vn 0.983685109 -0.179889381 -0.00184842445
v 0.0826115087 0.247905016 -0.135054365
vt 0.292975992 0.48853299
vn 0.876138105 0.482034837 0.00494326915
v 0.163181022 0.100927621 -0.0828209072
vt 0.26128301 0.386983991
vn 0.983639881 0.180136557 0.00184514082
v 0.0826115087 0.247905016 -0.135054365
vt 0.292975992 0.48853299
vn 0.876138105 0.482034837 0.00494326915
v 0.0826115087 0.247353733 -0.0813187212
vt 0.260414988 0.488254011
vn 0.876137794 0.482035383 0.00494528524
v -0.0826114863 -0.0461243242 -0.0843295231
vt 0.294714987 0.286688
vn -0.877003732 -0.48045828 -0.00492903919
v -0.163180992 0.100927621 -0.0828209072
vt 0.293844014 0.387263
vn -1 0 -1.49085694e-16
v -0.163180992 0.10147889 -0.136556551
vt 0.26128301 0.386983991
vn -1 1.90303616e-08 -9.25878041e-17
v -0.0826114863 -0.0461243242 -0.0843295231
vt 0.294714987 0.286688
vn -0.877003732 -0.48045828 -0.00492903919
v -0.163180992 0.10147889 -0.136556551
vt 0.26128301 0.386983991
vn -1 1.90303616e-08 -9.25878041e-17
v -0.0826114863 -0.0455730408 -0.138065159
vt 0.262154013 0.286408991
vn -0.877003722 -0.480458298 -0.00492910634
v -0.163180992 0.10147889 -0.136556551
vt 0.26128301 0.386983991
vn -1 1.90303616e-08 -9.25878041e-17
v -0.163180992 0.100927621 -0.0828209072
vt 0.293844014 0.387263
vn -1 0 -1.49085694e-16
v -0.0826114863 0.247353733 -0.0813187212
vt 0.292975992 0.48853299
vn -0.876137823 0.482035331 0.00494521787
v -0.163180992 0.10147889 -0.136556551
vt 0.26128301 0.386983991
vn -1 1.90303616e-08 -9.25878041e-17
v -0.0826114863 0.247353733 -0.0813187212
vt 0.292975992 0.48853299
vn -0.876137823 0.482035331 0.00494521787
v -0.0826114863 0.247905016 -0.135054365
vt 0.260416001 0.488254011
vn -0.876137833 0.482035311 0.00494528451
v -0.0826114863 -0.0461243242 -0.0843295231
vt 0.101769 0.394104004
vn 0 -0.999947379 -0.0102586363
v -0.0826114863 -0.0455730408 -0.138065159
vt 0.101497002 0.421851009
vn 0 -0.999947379 -0.0102586363
v 0.0826115087 -0.0455730408 -0.138065159
vt 0.00409599999 0.421016008
vn 0 -0.999947379 -0.0102586363
v -0.0826114863 -0.0461243242 -0.0843295231
vt 0.101769 0.394104004
vn 0 -0.999947379 -0.0102586363
v 0.0826115087 -0.0455730408 -0.138065159
vt 0.00409599999 0.421016008
vn 0 -0.999947379 -0.0102586363
v 0.0826115087 -0.0461243242 -0.0843295231
vt 0.0043680002 0.393269986
vn 0 -0.999947379 -0.0102586363
v -0.0826114863 0.247905016 -0.135054365
vt 0.00352000003 0.455107003
vn 0 0.999947379 0.0102586349
v -0.0826114863 0.247353733 -0.0813187212
vt 0.003792 0.423427999
vn 0 0.999947379 0.0102586349
v 0.0826115087 0.247353733 -0.0813187212
vt 0.101193003 0.424261987
vn 0 0.999947379 0.0102586349
v -0.0826114863 0.247905016 -0.135054365
vt 0.00352000003 0.455107003
vn 0 0.999947379 0.0102586349
v 0.0826115087 0.247353733 -0.0813187212
vt 0.101193003 0.424261987
vn 0 0.999947379 0.0102586349
v 0.0826115087 0.247905016 -0.135054365
vt 0.100920998 0.455942005
vn 0 0.999947379 0.0102586349
v -0.163180992 0.100927621 -0.0828209072
vt 0.160713002 0.259050012
vn 0 -0.0102584962 0.99994738
v -0.0826114863 -0.0461243242 -0.0843295231
vt 0.186038002 0.213752002
vn 0 -0.0102585282 0.99994738
v 0.0826115087 -0.0461243242 -0.0843295231
vt 0.237169996 0.214190006
vn 0 -0.0102585282 0.99994738
v -0.163180992 0.100927621 -0.0828209072
vt 0.160713002 0.259050012
vn 0 -0.0102584962 0.99994738
v 0.0826115087 -0.0461243242 -0.0843295231
vt 0.237169996 0.214190006
vn 0 -0.0102585282 0.99994738
v 0.163181022 0.100927621 -0.0828209072
vt 0.261714011 0.259914994
vn 0 -0.0102584962 0.99994738
v -0.163180992 0.100927621 -0.0828209072
vt 0.160713002 0.259050012
vn 0 -0.0102584962 0.99994738
v 0.163181022 0.100927621 -0.0828209072
vt 0.261714011 0.259914994
vn 0 -0.0102584962 0.99994738
v 0.0826115087 0.247353733 -0.0813187212
vt 0.236392006 0.305018991
vn 0 -0.0102584642 0.999947381
v -0.163180992 0.100927621 -0.0828209072
vt 0.160713002 0.259050012
vn 0 -0.0102584962 0.99994738
v 0.0826115087 0.247353733 -0.0813187212
vt 0.236392006 0.305018991
vn 0 -0.0102584642 0.999947381
v -0.0826114863 0.247353733 -0.0813187212
vt 0.185258999 0.304580986
vn 0 -0.0102584642 0.999947381
v -0.163180992 0.10147889 -0.136556551
vt 0.160713002 0.259050012
vn 0 0.0102584709 -0.999947381
v -0.0826114863 0.247905016 -0.135054365
vt 0.185258999 0.304634988
vn 0 0.0102584631 -0.999947381
v 0.0826115087 0.247905016 -0.135054365
vt 0.236390993 0.305072993
vn 0 0.0102584631 -0.999947381
v -0.163180992 0.10147889 -0.136556551
vt 0.160713002 0.259050012
vn 0 0.0102584709 -0.999947381
v 0.0826115087 0.247905016 -0.135054365
vt 0.236390993 0.305072993
vn 0 0.0102584631 -0.999947381
v 0.163180783 0.10147889 -0.136556551
vt 0.261714011 0.259914994
vn 0 0.0102584709 -0.999947381
v -0.163180992 0.10147889 -0.136556551
vt 0.160713002 0.259050012
vn 0 0.0102584709 -0.999947381
v 0.163180783 0.10147889 -0.136556551
vt 0.261714011 0.259914994
vn 0 0.0102584709 -0.999947381
v 0.0826115087 -0.0455730408 -0.138065159
vt 0.237169996 0.214190006
vn 0 0.0102584786 -0.99994738
v -0.163180992 0.10147889 -0.136556551
vt 0.160713002 0.259050012
vn 0 0.0102584709 -0.999947381
v 0.0826115087 -0.0455730408 -0.138065159
vt 0.237169996 0.214190006
vn 0 0.0102584786 -0.99994738
v -0.0826114863 -0.0455730408 -0.138065159
vt 0.186038002 0.213752002
vn 0 0.0102584786 -0.99994738
v 1.49666666699e-08 0.104854859467 -0.389344275
vt 0.458104014 0.393115997
vn 0 0.0102584868641 -0.999947380339
v 0.137557268 0.104854785 -0.389344275
vt 0.458104014 0.393115997
vn 0 0.0102584868641 -0.999947380339
v 0.0826115087 -0.0203877836 -0.390629143
vt 0.458104014 0.393115997
vn 0 0.0102584868641 -0.999947380339
v 1.49666666699e-08 0.104854859467 -0.389344275
vt 0.458104014 0.393115997
vn 0 0.0102584868641 -0.999947380339
v 0.0826115087 -0.0203877836 -0.390629143
vt 0.458104014 0.393115997
vn 0 0.0102584868641 -0.999947380339
v -0.0826114863 -0.0203877836 -0.390629143
vt 0.458104014 0.393115997
vn 0 0.0102584868641 -0.999947380339
v 1.49666666699e-08 0.104854859467 -0.389344275
vt 0.458104014 0.393115997
vn 0 0.0102584868641 -0.999947380339
v -0.0826114863 -0.0203877836 -0.390629143
vt 0.458104014 0.393115997
vn 0 0.0102584868641 -0.999947380339
v -0.137557223 0.104854785 -0.389344275
vt 0.458104014 0.393115997
vn 0 0.0102584868641 -0.999947380339
v 1.49666666699e-08 0.104854859467 -0.389344275
vt 0.458104014 0.393115997
vn 0 0.0102584868641 -0.999947380339
v -0.137557223 0.104854785 -0.389344275
vt 0.458104014 0.393115997
vn 0 0.0102584868641 -0.999947380339
v -0.0826114863 0.230097577 -0.388059407
vt 0.458104014 0.393115997
vn 0 0.0102584868641 -0.999947380339
v 1.49666666699e-08 0.104854859467 -0.389344275
vt 0.458104014 0.393115997
vn 0 0.0102584868641 -0.999947380339
v -0.0826114863 0.230097577 -0.388059407
vt 0.458104014 0.393115997
vn 0 0.0102584868641 -0.999947380339
v 0.0826115087 0.230097577 -0.388059407
vt 0.458104014 0.393115997
vn 0 0.0102584868641 -0.999947380339
v 1.49666666699e-08 0.104854859467 -0.389344275
vt 0.458104014 0.393115997
vn 0 0.0102584868641 -0.999947380339
v 0.0826115087 0.230097577 -0.388059407
vt 0.458104014 0.393115997
vn 0 0.0102584868641 -0.999947380339
v 0.137557268 0.104854785 -0.389344275
vt 0.458104014 0.393115997
vn 0 0.0102584868641 -0.999947380339
v 1.49666666699e-08 0.102106114233 -0.121410101667
vt 0.458104014 0.393115997
vn 0 -0.0102584828848 0.99994738038
v -0.137557223 0.102106035 -0.121410102
vt 0.458104014 0.393115997
vn 0 -0.0102584828848 0.99994738038
v -0.0826114863 -0.0231365263 -0.122694969
vt 0.458104014 0.393115997
vn 0 -0.0102584828848 0.99994738038
v 1.49666666699e-08 0.102106114233 -0.121410101667
vt 0.458104014 0.393115997
vn 0 -0.0102584828848 0.99994738038
v -0.0826114863 -0.0231365263 -0.122694969
vt 0.458104014 0.393115997
vn 0 -0.0102584828848 0.99994738038
v 0.0826115087 -0.0231365263 -0.122694969
vt 0.458104014 0.393115997
vn 0 -0.0102584828848 0.99994738038
v 1.49666666699e-08 0.102106114233 -0.121410101667
vt 0.458104014 0.393115997
vn 0 -0.0102584828848 0.99994738038
v 0.0826115087 -0.0231365263 -0.122694969
vt 0.458104014 0.393115997
vn 0 -0.0102584828848 0.99994738038
v 0.137557268 0.102106035 -0.121410102
vt 0.458104014 0.393115997
vn 0 -0.0102584828848 0.99994738038
v 1.49666666699e-08 0.102106114233 -0.121410101667
vt 0.458104014 0.393115997
vn 0 -0.0102584828848 0.99994738038
v 0.137557268 0.102106035 -0.121410102
vt 0.458104014 0.393115997
vn 0 -0.0102584828848 0.99994738038
v 0.0826115087 0.227348834 -0.120125234
vt 0.458104014 0.393115997
vn 0 -0.0102584828848 0.99994738038
v 1.49666666699e-08 0.102106114233 -0.121410101667
vt 0.458104014 0.393115997
vn 0 -0.0102584828848 0.99994738038
v 0.0826115087 0.227348834 -0.120125234
vt 0.458104014 0.393115997
vn 0 -0.0102584828848 0.99994738038
v -0.0826114863 0.227348834 -0.120125234
vt 0.458104014 0.393115997
vn 0 -0.0102584828848 0.99994738038
v 1.49666666699e-08 0.102106114233 -0.121410101667
vt 0.458104014 0.393115997
vn 0 -0.0102584828848 0.99994738038
v -0.0826114863 0.227348834 -0.120125234
vt 0.458104014 0.393115997
vn 0 -0.0102584828848 0.99994738038
v -0.137557223 0.102106035 -0.121410102
vt 0.458104014 0.393115997
vn 0 -0.0102584828848 0.99994738038
usemtl gun0506
f 1/1/1 2/2/2 3/3/3
f 4/4/4 5/5/5 6/6/6
f 7/7/7 8/8/8 9/9/9
f 10/10/10 11/11/11 12/12/12
f 13/13/13 14/14/14 15/15/15
f 16/16/16 17/17/17 18/18/18
f 19/19/19 20/20/20 21/21/21
f 22/22/22 23/23/23 24/24/24
f 25/25/25 26/26/26 27/27/27
f 28/28/28 29/29/29 30/30/30
f 31/31/31 32/32/32 33/33/33
f 34/34/34 35/35/35 36/36/36
f 37/37/37 38/38/38 39/39/39
f 40/40/40 41/41/41 42/42/42
f 43/43/43 44/44/44 45/45/45
f 46/46/46 47/47/47 48/48/48
f 49/49/49 50/50/50 51/51/51
f 52/52/52 53/53/53 54/54/54
f 55/55/55 56/56/56 57/57/57
f 58/58/58 59/59/59 60/60/60
f 61/61/61 62/62/62 63/63/63
f 64/64/64 65/65/65 66/66/66
f 67/67/67 68/68/68 69/69/69
f 70/70/70 71/71/71 72/72/72
f 73/73/73 74/74/74 75/75/75
f 76/76/76 77/77/77 78/78/78
f 79/79/79 80/80/80 81/81/81
f 82/82/82 83/83/83 84/84/84
f 85/85/85 86/86/86 87/87/87
f 88/88/88 89/89/89 90/90/90
f 91/91/91 92/92/92 93/93/93
f 94/94/94 95/95/95 96/96/96
f 97/97/97 98/98/98 99/99/99
f 100/100/100 101/101/101 102/102/102
f 103/103/103 104/104/104 105/105/105
f 106/106/106 107/107/107 108/108/108
f 109/109/109 110/110/110 111/111/111
f 112/112/112 113/113/113 114/114/114
f 115/115/115 116/116/116 117/117/117
f 118/118/118 119/119/119 120/120/120
f 121/121/121 122/122/122 123/123/123
f 124/124/124 125/125/125 126/126/126
f 127/127/127 128/128/128 129/129/129
f 130/130/130 131/131/131 132/132/132
f 133/133/133 134/134/134 135/135/135
f 136/136/136 137/137/137 138/138/138
f 139/139/139 140/140/140 141/141/141
f 142/142/142 143/143/143 144/144/144
f 145/145/145 146/146/146 147/147/147
f 148/148/148 149/149/149 150/150/150
f 151/151/151 152/152/152 153/153/153
f 154/154/154 155/155/155 156/156/156
f 157/157/157 158/158/158 159/159/159
f 160/160/160 161/161/161 162/162/162
f 163/163/163 164/164/164 165/165/165
f 166/166/166 167/167/167 168/168/168
f 169/169/169 170/170/170 171/171/171
f 172/172/172 173/173/173 174/174/174
f 175/175/175 176/176/176 177/177/177
f 178/178/178 179/179/179 180/180/180
f 181/181/181 182/182/182 183/183/183
f 184/184/184 185/185/185 186/186/186
f 187/187/187 188/188/188 189/189/189
f 190/190/190 191/191/191 192/192/192
