# Generated from legacy Unity YAML Mesh assets without Unity.
mtllib gun17.mtl

o gun17
v -0.0445863134 0.0677484274 -0.00393912196
v -0.0445863134 0.112489976 -0.332354426
v -0.0554609908 0.129578725 0.0992149711
v -0.0445863134 0.0677484274 -0.243181974
v -0.0554609908 0.093536973 0.0945543945
v -0.0436541973 -0.0111706927 0.157627523
v -0.0436541973 -0.0894683078 0.0737371445
v -0.0436541973 -0.0785936788 0.12376067
v -0.0436541973 -0.0807686076 -0.305323035
v -0.0436541973 -0.0695832148 -0.425565928
v -0.0436541973 -0.10935349 -0.341986209
v -0.0554609908 0.274367332 0.228779018
v -0.0554609908 0.140764102 0.154831171
v -0.0554609908 0.274367332 -0.900323272
v -0.0445863134 0.112489976 -0.772623479
v -0.0554609908 0.0867014378 -0.867077827
v -0.0436541973 0.0649520829 -0.839114428
v -0.0436541973 0.0649520829 -0.772623479
v -0.0554609908 0.24050042 -0.938850582
v -0.000155487757 0.305437803 -0.900323272
v -0.000155487757 0.305437803 0.234060943
v -0.000155487757 0.271570981 -0.946618199
v 0.0442753346 0.0677484274 -0.00393912196
v -0.0445863134 0.0677484274 -0.243181974
v -0.0445863134 0.0677484274 -0.00393912196
v 0.0442753346 0.0677484274 -0.243181974
v 0.0433432185 -0.0894683078 0.0737371445
v -0.0436541973 -0.0894683078 0.0737371445
v 0.0433432185 -0.0785936788 0.12376067
v -0.0436541973 -0.0785936788 0.12376067
v 0.0433432185 -0.0111706927 0.157627523
v -0.0436541973 -0.0111706927 0.157627523
v 0.0554607199 0.093536973 0.0945543945
v -0.0554609908 0.093536973 0.0945543945
v 0.0554607199 0.129578725 0.0992149711
v -0.0554609908 0.129578725 0.0992149711
v -0.0436541973 -0.0807686076 -0.305323035
v 0.0433432185 -0.0807686076 -0.305323035
v -0.0436541973 -0.10935349 -0.341986209
v 0.0433432185 -0.10935349 -0.341986209
v -0.0436541973 -0.0695832148 -0.425565928
v 0.0433432185 -0.0695832148 -0.425565928
v 0.0554607199 0.140764102 0.154831171
v -0.0554609908 0.140764102 0.154831171
v 0.0433432185 0.0649520829 -0.839114428
v -0.0554609908 0.0867014378 -0.867077827
v -0.0436541973 0.0649520829 -0.839114428
v 0.0554607199 0.0867014378 -0.867077827
v 0.0433432185 0.0649520829 -0.772623479
v -0.0436541973 0.0649520829 -0.772623479
v 0.0554607199 0.24050042 -0.938850582
v -0.0554609908 0.24050042 -0.938850582
v -0.000155487757 0.271570981 -0.946618199
v 0.0442753346 0.112489976 -0.772623479
v -0.0436541973 0.0649520829 -0.772623479
v -0.0445863134 0.112489976 -0.772623479
v 0.0433432185 0.0649520829 -0.772623479
v 0.0433432185 -0.0695832148 -0.425565928
v -0.0445863134 0.112489976 -0.332354426
v -0.0436541973 -0.0695832148 -0.425565928
v 0.0442753346 0.112489976 -0.332354426
v -0.0554609908 0.274367332 0.228779018
v -0.000155487757 0.305437803 0.234060943
v 0.0554607199 0.274367332 0.228779018
v -0.0554609908 0.140764102 0.154831171
v 0.0554607199 0.140764102 0.154831171
v 0.0442753346 0.112489976 -0.332354426
v -0.0445863134 0.112489976 -0.772623479
v -0.0445863134 0.112489976 -0.332354426
v 0.0442753346 0.112489976 -0.772623479
v 0.0442753346 0.0677484274 -0.00393912196
v 0.0442753346 0.112489976 -0.332354426
v 0.0442753346 0.0677484274 -0.243181974
v 0.0554607199 0.129578725 0.0992149711
v 0.0554607199 0.093536973 0.0945543945
v 0.0433432185 -0.0111706927 0.157627523
v 0.0433432185 -0.0894683078 0.0737371445
v 0.0433432185 -0.0785936788 0.12376067
v 0.0433432185 -0.0807686076 -0.305323035
v 0.0433432185 -0.0695832148 -0.425565928
v 0.0433432185 -0.10935349 -0.341986209
v 0.0554607199 0.274367332 0.228779018
v 0.0554607199 0.140764102 0.154831171
v 0.0554607199 0.274367332 -0.900323272
v 0.0442753346 0.112489976 -0.772623479
v 0.0554607199 0.0867014378 -0.867077827
v 0.0433432185 0.0649520829 -0.839114428
v 0.0433432185 0.0649520829 -0.772623479
v 0.0554607199 0.24050042 -0.938850582
v -0.000155487757 0.305437803 -0.900323272
v -0.000155487757 0.305437803 0.234060943
v -0.000155487757 0.271570981 -0.946618199
v 0.0365077094 0.0279781595 -0.74466002
v 0.0365077094 0.0568738021 -0.395738214
v 0.0365077094 0.0292209983 -0.369949669
v 0.0365077094 0.0581165478 -0.733163893
v 0.0377505296 0.0804873258 -0.809597313
v 0.0377505296 0.101926014 -0.788469434
v 0.0365077094 0.120879017 -0.372435361
v 0.0365077094 0.120568261 -0.321169019
v -0.0361972763 0.0279781595 -0.74466002
v -0.0361972763 0.0568738021 -0.395738214
v -0.0361972763 0.0581165478 -0.733163893
v -0.0361972763 0.0292209983 -0.369949669
v -0.0389936245 0.0804873258 -0.809597313
v -0.0389936245 0.101926014 -0.788469434
v -0.0361972763 0.120879017 -0.372435361
v -0.0361972763 0.120568261 -0.321169019
v -0.0361972763 0.0292209983 -0.369949669
v 0.0365077094 0.0279781595 -0.74466002
v 0.0365077094 0.0292209983 -0.369949669
v -0.0361972763 0.0279781595 -0.74466002
v 0.0377505296 0.0804873258 -0.809597313
v -0.0389936245 0.0804873258 -0.809597313
v -0.0361972763 0.0581165478 -0.733163893
v 0.0365077094 0.0568738021 -0.395738214
v 0.0365077094 0.0581165478 -0.733163893
v -0.0361972763 0.0568738021 -0.395738214
v 0.0377505296 0.101926014 -0.788469434
v -0.0389936245 0.101926014 -0.788469434
v 0.0365077094 0.120879017 -0.372435361
v -0.0361972763 0.120879017 -0.372435361
vt 0.797100008 0.2588
vt 0.523999989 0.296200007
vt 0.883300006 0.311199993
vt 0.598100007 0.258899987
vt 0.880100012 0.281199992
vt 0.944100022 0.201000005
vt 0.883300006 0.126900002
vt 0.923600018 0.141399994
vt 0.546500027 0.135299996
vt 0.446500003 0.144700006
vt 0.515999973 0.111500002
vt 0.99059999 0.431699991
vt 0.929499984 0.320499986
vt 0.0515000001 0.430400014
vt 0.157299995 0.29550001
vt 0.0768999979 0.274399996
vt 0.101499997 0.254799992
vt 0.144400001 0.255299985
vt 0.0178999994 0.405099988
vt 0.0509000011 0.481000006
vt 0.995000005 0.483500004
vt 0.00719999988 0.463400006
vt 0.57069999 0.0201999992
vt 0.427899987 0.0888999999
vt 0.571099997 0.0892999992
vt 0.427599996 0.0197999999
vt 0.675800025 0.0214000009
vt 0.676100016 0.0887999982
vt 0.706499994 0.0215000007
vt 0.706799984 0.0888999999
vt 0.751600027 0.0216000006
vt 0.751900017 0.0890000015
vt 0.824800014 0.0125000002
vt 0.825200021 0.0986000001
vt 0.846499979 0.0125000002
vt 0.846899986 0.0987000018
vt 0.33160001 0.0878000036
vt 0.33129999 0.0203000009
vt 0.3037 0.0877000019
vt 0.30340001 0.0203000009
vt 0.248300001 0.0874999985
vt 0.247999996 0.0200999994
vt 0.880500019 0.0126
vt 0.880900025 0.0988000035
vt 0.0211999994 0.0654999986
vt 0.106299996 0.0957999974
vt 0.0958999991 0.0654999986
vt 0.0109000001 0.0957999974
vt 0.0211999994 0.00829999987
vt 0.0958999991 0.00829999987
vt 0.0109000001 0.241699994
vt 0.107500002 0.241699994
vt 0.0604000017 0.271499991
vt 0.588699996 0.104099996
vt 0.560299993 0.157499999
vt 0.58859998 0.158199996
vt 0.560400009 0.104699999
vt 0.247999996 0.0200999994
vt 0.125799999 0.0879999995
vt 0.248300001 0.0874999985
vt 0.125499994 0.0188999996
vt 0.907199979 0.126000002
vt 0.950299978 0.1505
vt 0.993399978 0.126000002
vt 0.907199979 0.0074
vt 0.993399978 0.0074
vt 0.850600004 0.104800001
vt 0.58859998 0.158199996
vt 0.850499988 0.158899993
vt 0.588699996 0.104099996
vt 0.797100008 0.2588
vt 0.523999989 0.296200007
vt 0.598100007 0.258899987
vt 0.883300006 0.311199993
vt 0.880100012 0.281199992
vt 0.944100022 0.201000005
vt 0.883300006 0.126900002
vt 0.923600018 0.141399994
vt 0.546500027 0.135299996
vt 0.446500003 0.144700006
vt 0.515999973 0.111500002
vt 0.99059999 0.431699991
vt 0.929499984 0.320499986
vt 0.0515000001 0.430400014
vt 0.157299995 0.29550001
vt 0.0768999979 0.274399996
vt 0.101499997 0.254799992
vt 0.144400001 0.255299985
vt 0.0178999994 0.405099988
vt 0.0509000011 0.481000006
vt 0.995000005 0.483500004
vt 0.00719999988 0.463400006
vt 0.177000001 0.225899994
vt 0.467500001 0.248600006
vt 0.488700002 0.223100007
vt 0.186800003 0.251899987
vt 0.134900004 0.261099994
vt 0.151899993 0.282099992
vt 0.487599999 0.299100012
vt 0.530200005 0.298299998
vt 0.177000001 0.225899994
vt 0.467500001 0.248600006
vt 0.186800003 0.251899987
vt 0.488700002 0.223100007
vt 0.134900004 0.261099994
vt 0.151899993 0.282099992
vt 0.487599999 0.299100012
vt 0.530200005 0.298299998
vt 0.438800007 0.103299998
vt 0.160500005 0.177100003
vt 0.438800007 0.177100003
vt 0.160500005 0.103299998
vt 0.111599997 0.177100003
vt 0.111599997 0.103299998
vt 0.617600024 0.224800006
vt 0.778699994 0.176699996
vt 0.617600024 0.176699996
vt 0.778699994 0.224800006
vt 0.592199981 0.176699996
vt 0.592199981 0.224800006
vt 0.81129998 0.176699996
vt 0.81129998 0.224800006
vn -0.996738266 -0.0772775702 -0.0232595458
vn -0.998740332 -0.0498828493 -0.0054269281
vn -0.999422824 -0.0221633694 -0.0257449714
vn -0.999993947 -0.00310979263 -0.00156031301
vn -0.990122298 -0.115838159 -0.0789895951
vn -0.998171567 -0.056217209 -0.0222069438
vn -0.999988471 -0.00351037806 0.00327634986
vn -1 0 0
vn -0.999988862 -0.00455996375 -0.00121779435
vn -0.999991168 -0.0041847452 -0.000389278876
vn -1 0 0
vn -0.941698907 0.336424875 -0.00463383921
vn -1 0 0
vn -0.987716312 0.15616851 -0.00528049686
vn -0.998111814 -0.0552185141 0.0269021045
vn -0.996133502 -0.0150711936 0.0865500142
vn -0.985359533 -0.144922847 0.0897995517
vn -0.999807821 -0.0196040857 -4.28681124e-18
vn -0.960684173 0.208530351 -0.183305792
vn -0.48975563 0.871766047 -0.0127821385
vn -0.489795644 0.871837271 2.13317014e-16
vn -0.434796455 0.703696577 -0.561928083
vn 0 -0.96229105 -0.272021939
vn 0 -0.964276188 0.26489891
vn 0 -0.784009626 -0.620748666
vn 0 -0.776519342 0.630093415
vn 0 -0.559221035 -0.829018597
vn 0 -0.79530392 -0.606210916
vn 0 -0.832347638 0.554253922
vn 0 -0.628530327 0.777785078
vn 0 -0.0194515719 0.9998108
vn 0 0.337619565 0.941282651
vn 0 0.435691364 0.900096126
vn 0 0.290893981 0.956755294
vn 0 -0.61495894 0.78855913
vn 0 -0.892986258 0.450083929
vn 0 -0.442573757 0.896732106
vn 0 -0.55003341 0.835142651
vn 0 -0.993907709 0.110215541
vn 0 -0.970142483 -0.242535692
vn 0 -0.902984578 -0.42967296
vn 0 -0.902984578 -0.42967296
vn 0 -0.98036947 0.197169223
vn 0 -0.98036947 0.197169223
vn 0 -0.934690842 -0.355461715
vn 0 -0.487555066 -0.873092239
vn 0 -0.990992438 -0.133917839
vn 0 -0.493982377 -0.869471915
vn 0 -1 -2.08716948e-16
vn 0 -1 -2.08716948e-16
vn 0 -0.407924661 -0.913015592
vn 0 -0.395222606 -0.918585375
vn 0 -0.242534968 -0.970142664
vn 0 0 1
vn 0 0 1
vn 0 0 1
vn 0 0 1
vn 0 0.455699652 -0.890133601
vn 0 0.455699652 -0.890133601
vn 0 0.455699652 -0.890133601
vn 0 0.455699652 -0.890133601
vn 0 -0.433559876 0.90112476
vn 0 -0.167593803 0.985856134
vn 0 -0.456824471 0.889556857
vn 0 -0.484260322 0.874923963
vn 0 -0.484260322 0.874923963
vn 0 -1 -2.20648065e-16
vn 0 -1 -2.20648065e-16
vn 0 -1 -2.20648065e-16
vn 0 -1 -2.20648065e-16
vn 0.996554709 -0.0794019934 -0.0239590193
vn 0.998668222 -0.0512900601 -0.00557775677
vn 0.999993947 -0.00310979263 -0.00156031301
vn 0.999389402 -0.0227958518 -0.026479663
vn 0.989575059 -0.118913105 -0.0812457769
vn 0.998072219 -0.057675984 -0.0229200224
vn 0.999988471 -0.00351037806 0.00327634986
vn 1 0 0
vn 0.999988862 -0.00455996375 -0.00121779435
vn 0.999991168 -0.0041847452 -0.000389278876
vn 1 0 0
vn 0.941331753 0.337449006 -0.00476437751
vn 1 0 0
vn 0.987764683 0.155866126 -0.00516535689
vn 0.99800543 -0.0567454882 0.027660638
vn 0.995914112 -0.0154140794 0.0889802685
vn 0.984644921 -0.148244466 0.0921843708
vn 0.999807821 -0.0196040857 -4.28681124e-18
vn 0.960267236 0.209610857 -0.184255597
vn 0.487671661 0.872933291 -0.012799253
vn 0.487711611 0.873004802 2.13036346e-16
vn 0.432823511 0.70443887 -0.562520832
vn -0.999998499 0.000617485463 -0.00161880755
vn -1 0 0
vn -1 0 0
vn -0.999986967 0.00272925544 -0.00431482924
vn -0.999868248 0.00867725005 -0.0137183393
vn -0.999843064 0.0124351304 -0.0126180614
vn -1 0 0
vn -1 0 0
vn 0.999992402 0.00138933521 -0.00364229842
vn 1 0 0
vn 0.999934024 0.00614050576 -0.00970786149
vn 1 0 0
vn 0.999333537 0.0195133912 -0.0308497876
vn 0.999206267 0.0279612516 -0.0283725846
vn 1 0 0
vn 1 0 0
vn 0 0.999994499 -0.00331678044
vn 0 0.99811869 0.0613113388
vn 0 0.999994499 -0.00331678044
vn 0 0.978664251 0.205466018
vn 0 0.777590955 0.628770473
vn 0 0.777590955 0.628770473
vn 0 -0.993184258 -0.11655484
vn 0 -0.996140102 0.0877775462
vn 0 -0.993484456 -0.113967696
vn 0 -0.949601178 0.313460687
vn 0 -0.783867053 -0.620928694
vn 0 -0.783867053 -0.620928694
vn 0 -0.342109074 0.939660248
vn 0 -0.342109074 0.939660248

g gun17_submesh_0
usemtl LG002B-Newlambert12
f 1/1/1 3/3/3 2/2/2
f 1/1/1 2/2/2 4/4/4
f 5/5/5 3/3/3 1/1/1
f 1/1/1 6/6/6 5/5/5
f 1/1/1 7/7/7 6/6/6
f 6/6/6 7/7/7 8/8/8
f 2/2/2 9/9/9 4/4/4
f 2/2/2 10/10/10 9/9/9
f 9/9/9 10/10/10 11/11/11
f 2/2/2 3/3/3 12/12/12
f 12/12/12 3/3/3 13/13/13
f 2/2/2 12/12/12 14/14/14
f 2/2/2 14/14/14 15/15/15
f 16/16/16 15/15/15 14/14/14
f 15/15/15 16/16/16 17/17/17
f 15/15/15 17/17/17 18/18/18
f 16/16/16 14/14/14 19/19/19
f 20/20/20 14/14/14 12/12/12
f 20/20/20 12/12/12 21/21/21
f 22/22/22 19/19/19 14/14/14
f 22/22/22 14/14/14 20/20/20
f 23/23/23 25/25/25 24/24/24
f 23/23/23 24/24/24 26/26/26
f 25/25/25 23/23/23 27/27/27
f 25/25/25 27/27/27 28/28/28
f 29/29/29 28/28/28 27/27/27
f 29/29/29 30/30/30 28/28/28
f 31/31/31 30/30/30 29/29/29
f 31/31/31 32/32/32 30/30/30
f 33/33/33 32/32/32 31/31/31
f 33/33/33 34/34/34 32/32/32
f 35/35/35 34/34/34 33/33/33
f 35/35/35 36/36/36 34/34/34
f 26/26/26 24/24/24 37/37/37
f 26/26/26 37/37/37 38/38/38
f 38/38/38 37/37/37 39/39/39
f 38/38/38 39/39/39 40/40/40
f 40/40/40 39/39/39 41/41/41
f 40/40/40 41/41/41 42/42/42
f 43/43/43 36/36/36 35/35/35
f 43/43/43 44/44/44 36/36/36
f 45/45/45 47/47/47 46/46/46
f 45/45/45 46/46/46 48/48/48
f 49/49/49 47/47/47 45/45/45
f 49/49/49 50/50/50 47/47/47
f 51/51/51 48/48/48 46/46/46
f 51/51/51 46/46/46 52/52/52
f 53/53/53 51/51/51 52/52/52
f 54/54/54 56/56/56 55/55/55
f 54/54/54 55/55/55 57/57/57
f 58/58/58 60/60/60 59/59/59
f 58/58/58 59/59/59 61/61/61
f 62/62/62 64/64/64 63/63/63
f 64/64/64 62/62/62 65/65/65
f 64/64/64 65/65/65 66/66/66
f 67/67/67 69/69/69 68/68/68
f 67/67/67 68/68/68 70/70/70
f 71/71/71 73/73/73 72/72/72
f 71/71/71 72/72/72 74/74/74
f 75/75/75 71/71/71 74/74/74
f 76/76/76 71/71/71 75/75/75
f 76/76/76 77/77/77 71/71/71
f 76/76/76 78/78/78 77/77/77
f 79/79/79 72/72/72 73/73/73
f 79/79/79 80/80/80 72/72/72
f 79/79/79 81/81/81 80/80/80
f 72/72/72 82/82/82 74/74/74
f 82/82/82 83/83/83 74/74/74
f 72/72/72 84/84/84 82/82/82
f 72/72/72 85/85/85 84/84/84
f 86/86/86 84/84/84 85/85/85
f 85/85/85 87/87/87 86/86/86
f 85/85/85 88/88/88 87/87/87
f 86/86/86 89/89/89 84/84/84
f 82/82/82 84/84/84 90/90/90
f 82/82/82 90/90/90 91/91/91
f 84/84/84 89/89/89 92/92/92
f 84/84/84 92/92/92 90/90/90
f 93/93/93 95/95/95 94/94/94
f 93/93/93 94/94/94 96/96/96
f 96/96/96 97/97/97 93/93/93
f 96/96/96 98/98/98 97/97/97
f 95/95/95 99/99/99 94/94/94
f 95/95/95 100/100/100 99/99/99
f 101/101/101 103/103/103 102/102/102
f 101/101/101 102/102/102 104/104/104
f 105/105/105 103/103/103 101/101/101
f 105/105/105 106/106/106 103/103/103
f 107/107/107 104/104/104 102/102/102
f 107/107/107 108/108/108 104/104/104
f 109/109/109 111/111/111 110/110/110
f 109/109/109 110/110/110 112/112/112
f 112/112/112 110/110/110 113/113/113
f 112/112/112 113/113/113 114/114/114
f 115/115/115 117/117/117 116/116/116
f 115/115/115 116/116/116 118/118/118
f 115/115/115 119/119/119 117/117/117
f 115/115/115 120/120/120 119/119/119
f 118/118/118 116/116/116 121/121/121
f 118/118/118 121/121/121 122/122/122
