# Generated from legacy Unity YAML Mesh assets without Unity.
mtllib gun13.mtl

o gun13
v 0.0605152734 0.329861939 0.0969607234
v -0.0506217554 0.3120538 0.0547484905
v 0.0506217778 0.3120538 0.0547485054
v -0.0605152659 0.329861939 0.0969607085
v -0.0506217256 0.3120538 -0.140813142
v 0.0506218076 0.3120538 -0.140813142
v -0.062164139 0.332830071 -0.179068089
v 0.0621642321 0.332830071 -0.179068089
v 0.121195428 0.215427339 0.0969607383
v 0.0506217778 0.3120538 0.0547485054
v 0.101408429 0.215427339 0.0547485128
v 0.0605152734 0.329861939 0.0969607234
v 0.000164896497 0.0894499794 0.0966308787
v 0.000164902813 0.107587941 0.0547484979
v -0.121195428 0.215427339 0.0969606936
v -0.101408415 0.215427339 0.054748483
v -0.0506217554 0.3120538 0.0547484905
v -0.0605152659 0.329861939 0.0969607085
v -0.101408385 0.215427339 -0.140813172
v -0.0506217256 0.3120538 -0.140813142
v -0.124163441 0.215427339 -0.179068118
v -0.062164139 0.332830071 -0.179068089
v 0.000164938116 0.0894499794 -0.179068089
v 0.000164932339 0.110226251 -0.140813142
v 0.000164938116 0.0894499794 -0.179068089
v 0.101408459 0.215427339 -0.140813112
v 0.124163531 0.215427339 -0.179068059
v 0.0506218076 0.3120538 -0.140813142
v 0.0621642321 0.332830071 -0.179068089
v 0.121195428 0.215427339 0.0969607383
v 0.000164896497 0.0894499794 0.0966308787
v -0.121195428 0.215427339 0.0969606936
v -0.0605152659 0.329861939 0.0969607085
v 0.0605152734 0.329861939 0.0969607234
v 0.0621642321 0.332830071 -0.179068089
v -0.124163441 0.215427339 -0.179068118
v 0.124163531 0.215427339 -0.179068059
v -0.062164139 0.332830071 -0.179068089
v 0.000164938116 0.0894499794 -0.179068089
v 0.0681003854 0.204874098 -0.501596391
v 0.000164991798 0.270830721 -0.534574687
v 0.071728006 0.205203936 -0.534574687
v 0.000164986821 0.267203301 -0.501596391
v 0.0463346839 0.203555137 -0.564914703
v 0.000164996381 0.246097177 -0.564914703
v 0.000165019534 0.278745651 -0.718264103
v 0.0799726248 0.205533773 -0.718264103
v 0.000165054342 0.21410799 -0.948782682
v 0.0133563941 0.201576099 -0.948782682
v 0.000164986821 0.134630352 -0.501596391
v 0.071728006 0.205203936 -0.534574687
v 0.000164991798 0.131002516 -0.534574687
v 0.0681003854 0.204874098 -0.501596391
v 0.0463346839 0.203555137 -0.564914703
v 0.000164996381 0.155736461 -0.564914703
v 0.0799726248 0.205533773 -0.718264103
v 0.000165019534 0.123087972 -0.718264103
v 0.0133563941 0.201576099 -0.948782682
v 0.000165054342 0.188055098 -0.948782682
v -0.0717278123 0.205203936 -0.534574687
v -0.0681001917 0.204874098 -0.501596391
v -0.0463344753 0.203555137 -0.564914703
v -0.0799723715 0.205533773 -0.718264103
v 0.000165019534 0.123087972 -0.718264103
v -0.0133560691 0.201576099 -0.948782682
v 0.000165019534 0.123087972 -0.718264103
v 0.000165054342 0.188055098 -0.948782682
v 0.000164986821 0.267203301 -0.501596391
v 0.0681003854 0.204874098 -0.501596391
v 0.000164986821 0.134630352 -0.501596391
v -0.0681001917 0.204874098 -0.501596391
v 0.000164991798 0.270830721 -0.534574687
v -0.0681001917 0.204874098 -0.501596391
v -0.0717278123 0.205203936 -0.534574687
v 0.000164986821 0.267203301 -0.501596391
v -0.0463344753 0.203555137 -0.564914703
v 0.000164996381 0.246097177 -0.564914703
v 0.000165019534 0.278745651 -0.718264103
v -0.0799723715 0.205533773 -0.718264103
v 0.000165054342 0.21410799 -0.948782682
v -0.0133560691 0.201576099 -0.948782682
v 0.000165054342 0.21410799 -0.948782682
v -0.0133560691 0.201576099 -0.948782682
v 0.000165054342 0.188055098 -0.948782682
v 0.0133563941 0.201576099 -0.948782682
v 0.000164800978 0.254341573 0.7291556
v 0.0575471334 0.208501518 0.70211339
v 0.0423770845 0.208501518 0.7291556
v 0.000164805067 0.270830721 0.70211339
v 0.000164974175 0.26819241 -0.417831421
v 0.0552388169 0.208501518 -0.417831421
v 0.00016497905 0.237852409 -0.450150073
v 0.0407283492 0.208501518 -0.450150073
v 0.0189626347 0.146502554 -0.417831421
v 0.00016497905 0.171895772 -0.450150073
v 0.0499622896 0.207842246 -0.508191943
v 0.00016498781 0.252692759 -0.508191943
v 0.00016498781 0.15738526 -0.508191943
v 0.0189626012 0.146172717 -0.198525399
v 0.0150050633 0.143864244 0.70211339
v 0.000164800978 0.162991717 0.7291556
v 0.0150052132 0.0366845131 -0.290864766
v 0.0150052002 0.0363546759 -0.209737927
v 0.0150051992 0.0363546759 -0.198855013
v 0.0150052002 0.0139296055 -0.209408075
v 0.0150052123 7.83801079e-05 -0.288885921
v 0.0216008555 -0.130186096 -0.123664491
v 0.0216008443 -0.058623001 -0.0474844351
v 0.0150052188 0.0366845131 -0.328130186
v 0.0216008443 -0.0856650025 -0.0471545979
v -0.0423772708 0.208501518 0.7291556
v -0.0150052356 0.143864244 0.70211339
v -0.0575473122 0.208501518 0.70211339
v -0.055238653 0.208501518 -0.417831421
v 0.00016497905 0.237852409 -0.450150073
v -0.0403983891 0.208501518 -0.450150073
v -0.0189624671 0.146502554 -0.417831421
v 0.00016497905 0.171895772 -0.450150073
v -0.0499621034 0.207842246 -0.508191943
v 0.00016498781 0.252692759 -0.508191943
v 0.00016498781 0.15738526 -0.508191943
v -0.0189625006 0.146172717 -0.198525399
v -0.0150050856 0.0366845131 -0.290864766
v -0.0150050987 0.0363546759 -0.209737927
v -0.0150050996 0.0363546759 -0.198855013
v -0.0150050987 0.0139296055 -0.209408075
v -0.0150050865 7.83801079e-05 -0.288885921
v -0.021600781 -0.130186096 -0.123664491
v -0.0216007922 -0.058623001 -0.0474844351
v -0.01500508 0.0366845131 -0.328130186
v -0.0216007922 -0.0856650025 -0.0471545979
v 0.0150050633 0.143864244 0.70211339
v -0.0150052356 0.143864244 0.70211339
v 0.000164800978 0.162991717 0.7291556
v 0.0189626012 0.146172717 -0.198525399
v -0.0189625006 0.146172717 -0.198525399
v -0.0651323721 0.330521584 0.963277638
v 0.000164800978 0.254341573 0.7291556
v 0.0651321039 0.330521584 0.963277638
v 0.0862382203 0.369436204 0.978447616
v -0.0862385184 0.369436204 0.978447616
v 0.0888765082 0.369106382 1.02857459
v -0.0888767838 0.369106382 1.02857459
v -0.0888767838 0.369106382 1.02857459
v 0.057876844 0.317989707 1.02857459
v -0.0578771494 0.317989707 1.02857459
v 0.0888765082 0.369106382 1.02857459
v -0.114270106 0.225320503 1.02857471
v -0.175609857 0.226969689 1.02857471
v 0.000164738609 0.101981498 1.02857459
v 0.000164738609 0.0373441875 1.02857459
v 0.175609529 0.226969689 1.02857459
v 0.114269853 0.225320503 1.02857459
v 0.000164770056 0.206193045 0.857042968
v 0.00016497905 0.171895772 -0.450150073
v -0.0189624671 0.146502554 -0.417831421
v 0.0189626347 0.146502554 -0.417831421
v -0.01500508 0.0366845131 -0.328130186
v 0.0150052188 0.0366845131 -0.328130186
v 0.0150052002 0.0363546759 -0.209737927
v -0.0150050996 0.0363546759 -0.198855013
v 0.0150051992 0.0363546759 -0.198855013
v -0.0150050987 0.0363546759 -0.209737927
v -0.0189625006 0.146172717 -0.198525399
v 0.0189626012 0.146172717 -0.198525399
v 0.0150052002 0.0139296055 -0.209408075
v -0.0150050987 0.0139296055 -0.209408075
v 0.0216008443 -0.058623001 -0.0474844351
v -0.0216007922 -0.058623001 -0.0474844351
v -0.0216007922 -0.0856650025 -0.0471545979
v 0.0216008443 -0.0856650025 -0.0471545979
v 0.0216008555 -0.130186096 -0.123664491
v -0.021600781 -0.130186096 -0.123664491
v 0.0150052188 0.0366845131 -0.328130186
v -0.0150050856 0.0366845131 -0.290864766
v 0.0150052132 0.0366845131 -0.290864766
v -0.01500508 0.0366845131 -0.328130186
v -0.0150050865 7.83801079e-05 -0.288885921
v 0.0150052123 7.83801079e-05 -0.288885921
v -0.021600781 -0.130186096 -0.123664491
v 0.0216008555 -0.130186096 -0.123664491
v 0.0423770845 0.208501518 0.7291556
v 0.000164748475 0.0762584284 0.963277698
v 0.133727059 0.220703557 0.963277638
v 0.000164800978 0.162991717 0.7291556
v 0.0651321039 0.330521584 0.963277638
v 0.000164800978 0.254341573 0.7291556
v 0.000164746161 0.0373441875 0.978447616
v 0.175279751 0.226310015 0.978447556
v 0.0862382203 0.369436204 0.978447616
v 0.0888765082 0.369106382 1.02857459
v 0.175609529 0.226969689 1.02857459
v 0.000164738609 0.0373441875 1.02857459
v 0.000164746161 0.0373441875 0.978447616
v -0.0423772708 0.208501518 0.7291556
v -0.133727357 0.220703557 0.963277698
v -0.0651323721 0.330521584 0.963277638
v -0.17528002 0.226310015 0.978447616
v -0.175609857 0.226969689 1.02857471
v -0.0888767838 0.369106382 1.02857459
v -0.0862385184 0.369436204 0.978447616
v 0.000164748475 0.0762584284 0.963277698
v 0.0156647358 0.0825245604 -0.00659138709
v 0.0156647135 0.0472377688 0.143130407
v 0.0156647041 0.0825245604 0.209087044
v 0.0156647302 0.0498756841 0.0310040787
v 0.015664719 -0.000251069665 0.112130716
v 0.0156647302 -0.000251069665 0.0303444043
v 0.0156646781 0.131002516 0.384861708
v 0.0156646576 0.077907607 0.511828423
v 0.0156646371 0.131002516 0.655943692
v 0.0156646427 0.0294292569 0.615050673
v 0.0156646371 0.0294292569 0.655943692
v 0.0156647544 0.110885933 -0.129600585
v 0.0156646781 0.1511195 0.384861708
v 0.0156647544 0.1511195 -0.129600585
v -0.015664719 0.0472377688 0.143130392
v 0.0156647041 0.0825245604 0.209087044
v 0.0156647135 0.0472377688 0.143130407
v -0.0156647284 0.0825245604 0.209087044
v -0.0156647135 -0.000251069665 0.112130716
v 0.015664719 -0.000251069665 0.112130716
v -0.0156647023 -0.000251069665 0.0303444043
v 0.0156647302 -0.000251069665 0.0303444043
v -0.0156646967 0.0825245604 -0.00659138709
v 0.0156647302 0.0498756841 0.0310040787
v 0.0156647358 0.0825245604 -0.00659138709
v -0.0156647023 0.0498756841 0.0310040787
v 0.0156647302 -0.000251069665 0.0303444043
v -0.0156647023 -0.000251069665 0.0303444043
v -0.0156646781 0.110885933 -0.129600585
v 0.0156647544 0.110885933 -0.129600585
v -0.0156646781 0.1511195 -0.129600585
v 0.0156647544 0.1511195 -0.129600585
v -0.0156647954 0.0294292569 0.655943692
v 0.0156646371 0.131002516 0.655943692
v 0.0156646371 0.0294292569 0.655943692
v -0.0156647954 0.131002516 0.655943692
v -0.0156647898 0.0294292569 0.615050673
v 0.0156646371 0.0294292569 0.655943692
v 0.0156646427 0.0294292569 0.615050673
v -0.0156647954 0.0294292569 0.655943692
v -0.0156647749 0.077907607 0.511828423
v 0.0156646576 0.077907607 0.511828423
v -0.0156647284 0.0825245604 0.209087044
v 0.0156647041 0.0825245604 0.209087044
v -0.0156647544 0.131002516 0.384861708
v 0.0156646781 0.1511195 0.384861708
v 0.0156646781 0.131002516 0.384861708
v -0.0156647544 0.1511195 0.384861708
v -0.0156647954 0.131002516 0.655943692
v 0.0156646781 0.131002516 0.384861708
v 0.0156646371 0.131002516 0.655943692
v -0.0156647544 0.131002516 0.384861708
v -0.0156646967 0.0825245604 -0.00659138709
v -0.015664719 0.0472377688 0.143130392
v -0.0156647023 0.0498756841 0.0310040787
v -0.0156647284 0.0825245604 0.209087044
v -0.0156647135 -0.000251069665 0.112130716
v -0.0156647023 -0.000251069665 0.0303444043
v -0.0156647544 0.131002516 0.384861708
v -0.0156647749 0.077907607 0.511828423
v -0.0156647954 0.131002516 0.655943692
v -0.0156647898 0.0294292569 0.615050673
v -0.0156647954 0.0294292569 0.655943692
v -0.0156646781 0.110885933 -0.129600585
v -0.0156647544 0.1511195 0.384861708
v -0.0156646781 0.1511195 -0.129600585
v 0.0453452766 0.357564032 -0.209737927
v 0.0493026711 0.407361329 -0.148398221
v 0.0493026786 0.407361329 -0.209737927
v 0.0453452542 0.357564032 -0.0563886985
v 0.0453452356 0.357564032 0.0600249358
v 0.049302619 0.407361329 0.186002299
v 0.0466644093 0.4601264 -0.148398221
v 0.0466644168 0.471998632 -0.209737927
v 0.0466644205 0.460456252 -0.222269803
v 0.0493026823 0.419233561 -0.222269803
v 0.045345217 0.357564032 0.186002299
v 0.0453452133 0.342063993 0.221948564
v 0.0493026152 0.42286098 0.221948564
v 0.0407282785 0.326894164 0.0122062564
v 0.0407282747 0.326894164 0.0399081483
v 0.0407282859 0.326894164 -0.0319846049
v 0.0377602316 0.306447357 -0.0276974961
v 0.0377602279 0.306447357 0.00791914761
v 0.00214364193 0.407361329 -0.209737927
v 0.0453452766 0.357564032 -0.209737927
v 0.0493026786 0.407361329 -0.209737927
v 0.00610104622 0.357564032 -0.209737927
v 0.0021436438 0.419233561 -0.222269803
v 0.0493026823 0.419233561 -0.222269803
v 0.0051116962 0.460456252 -0.222269803
v 0.0466644205 0.460456252 -0.222269803
v 0.00511169434 0.471998632 -0.209737927
v 0.0466644168 0.471998632 -0.209737927
v 0.0021435821 0.407361329 0.186002284
v 0.0493026711 0.407361329 -0.148398221
v 0.049302619 0.407361329 0.186002299
v 0.00214363262 0.407361329 -0.148398221
v 0.00214357674 0.42286098 0.221948564
v 0.0493026152 0.42286098 0.221948564
v 0.00511168502 0.4601264 -0.148398221
v 0.0466644168 0.471998632 -0.209737927
v 0.0466644093 0.4601264 -0.148398221
v 0.00511169434 0.471998632 -0.209737927
v 0.00214363262 0.407361329 -0.148398221
v 0.0493026711 0.407361329 -0.148398221
v 0.00610098103 0.342063993 0.221948564
v 0.0493026152 0.42286098 0.221948564
v 0.0453452133 0.342063993 0.221948564
v 0.00214357674 0.42286098 0.221948564
v 0.00610098662 0.357564032 0.186002284
v 0.0453452133 0.342063993 0.221948564
v 0.045345217 0.357564032 0.186002299
v 0.00610098103 0.342063993 0.221948564
v 0.00610100525 0.357564032 0.0600249283
v 0.0453452356 0.357564032 0.0600249358
v 0.0110477582 0.326894164 0.0399081409
v 0.0407282747 0.326894164 0.0399081483
v 0.0110477619 0.326894164 0.0122062489
v 0.0407282785 0.326894164 0.0122062564
v 0.0140158162 0.306447357 0.00791914016
v 0.0377602279 0.306447357 0.00791914761
v 0.0453452542 0.357564032 -0.0563886985
v 0.00610104622 0.357564032 -0.209737927
v 0.00610102294 0.357564032 -0.0563886985
v 0.0453452766 0.357564032 -0.209737927
v 0.0407282859 0.326894164 -0.0319846049
v 0.0110477693 0.326894164 -0.0319846049
v 0.0377602316 0.306447357 -0.0276974961
v 0.0140158217 0.306447357 -0.0276974961
v 0.00610104622 0.357564032 -0.209737927
v 0.00214363262 0.407361329 -0.148398221
v 0.00610102294 0.357564032 -0.0563886985
v 0.00214364193 0.407361329 -0.209737927
v 0.00610100525 0.357564032 0.0600249283
v 0.0021435821 0.407361329 0.186002284
v 0.00511168502 0.4601264 -0.148398221
v 0.00511169434 0.471998632 -0.209737927
v 0.0051116962 0.460456252 -0.222269803
v 0.0021436438 0.419233561 -0.222269803
v 0.00610098662 0.357564032 0.186002284
v 0.00610098103 0.342063993 0.221948564
v 0.00214357674 0.42286098 0.221948564
v 0.0110477619 0.326894164 0.0122062489
v 0.0110477582 0.326894164 0.0399081409
v 0.0110477693 0.326894164 -0.0319846049
v 0.0140158217 0.306447357 -0.0276974961
v 0.0140158162 0.306447357 0.00791914016
vt 0.101599999 0.00579999993
vt 0.0173000004 0.0241
vt 0.0940999985 0.0241
vt 0.00980000012 0.00579999993
vt 0.0173000004 0.176400006
vt 0.0940999985 0.176400006
vt 0.00860000029 0.211199999
vt 0.102799997 0.211199999
vt 0.109499998 0.115000002
vt 0.140200004 0.1822
vt 0.140200004 0.115000002
vt 0.109499998 0.199399993
vt 0.109499998 0.00810000021
vt 0.140200004 0.0226000007
vt 0.1096 0.114799999
vt 0.140300006 0.114799999
vt 0.140300006 0.181999996
vt 0.1096 0.199300006
vt 0.291500002 0.114799999
vt 0.291500002 0.181999996
vt 0.320600003 0.114799999
vt 0.320600003 0.2016
vt 0.320600003 0.0055999998
vt 0.291500002 0.0225000009
vt 0.320600003 0.0055999998
vt 0.291399986 0.115000002
vt 0.320499986 0.115000002
vt 0.291399986 0.1822
vt 0.320499986 0.201800004
vt 0.367700011 0.0970000029
vt 0.41870001 0.146400005
vt 0.366100013 0.192100003
vt 0.324299991 0.165199995
vt 0.324000001 0.120999999
vt 0.332199991 0.0263999999
vt 0.374599993 0.0962999985
vt 0.376100004 0.00410000002
vt 0.331400007 0.0724999979
vt 0.425599992 0.050999999
vt 0.827899992 0.00590000022
vt 0.7773 0.0348999985
vt 0.827400029 0.0348999985
vt 0.776899993 0.00590000022
vt 0.827899992 0.0500000007
vt 0.788100004 0.0500000007
vt 0.763499975 0.148699999
vt 0.825399995 0.148699999
vt 0.819599986 0.306800008
vt 0.825500011 0.306800008
vt 0.882399976 0.00590000022
vt 0.827400029 0.0348999985
vt 0.881600022 0.0348999985
vt 0.827899992 0.00590000022
vt 0.827899992 0.0500000007
vt 0.869899988 0.0500000007
vt 0.825399995 0.148699999
vt 0.891200006 0.148699999
vt 0.825500011 0.306800008
vt 0.832899988 0.306800008
vt 0.827400029 0.0348999985
vt 0.827899992 0.00590000022
vt 0.827899992 0.0500000007
vt 0.825399995 0.148699999
vt 0.891200006 0.148699999
vt 0.825500011 0.306800008
vt 0.891200006 0.148699999
vt 0.832899988 0.306800008
vt 0.902700007 0.402999997
vt 0.955500007 0.35589999
vt 0.904100001 0.301299989
vt 0.851199985 0.354499996
vt 0.7773 0.0348999985
vt 0.827899992 0.00590000022
vt 0.827400029 0.0348999985
vt 0.776899993 0.00590000022
vt 0.827899992 0.0500000007
vt 0.788100004 0.0500000007
vt 0.763499975 0.148699999
vt 0.825399995 0.148699999
vt 0.819599986 0.306800008
vt 0.825500011 0.306800008
vt 0.861999989 0.293900013
vt 0.842599988 0.311199993
vt 0.861500025 0.331200004
vt 0.880900025 0.311699986
vt 0.205400005 0.485900015
vt 0.222100005 0.452399999
vt 0.205400005 0.453200012
vt 0.222100005 0.487100005
vt 0.893100023 0.487100005
vt 0.893100023 0.452399999
vt 0.91079998 0.476200014
vt 0.91079998 0.452600002
vt 0.893100023 0.418000013
vt 0.91079998 0.423099995
vt 0.949800014 0.452399999
vt 0.949800014 0.496100008
vt 0.949800014 0.403200001
vt 0.764400005 0.417899996
vt 0.222100005 0.417499989
vt 0.205400005 0.421799988
vt 0.818499982 0.3486
vt 0.770799994 0.348500013
vt 0.764500022 0.348500013
vt 0.770600021 0.334300011
vt 0.817300022 0.325700015
vt 0.720200002 0.243300006
vt 0.675400019 0.288599998
vt 0.840399981 0.348699987
vt 0.675300002 0.271499991
vt 0.205400005 0.453200012
vt 0.222100005 0.417499989
vt 0.222100005 0.452399999
vt 0.893100023 0.452399999
vt 0.91079998 0.476200014
vt 0.91079998 0.452600002
vt 0.893100023 0.418000013
vt 0.91079998 0.423099995
vt 0.949800014 0.452399999
vt 0.949800014 0.496100008
vt 0.949800014 0.403200001
vt 0.764400005 0.417899996
vt 0.818499982 0.3486
vt 0.770799994 0.348500013
vt 0.764500022 0.348500013
vt 0.770600021 0.334300011
vt 0.817300022 0.325700015
vt 0.720200002 0.243300006
vt 0.675400019 0.288599998
vt 0.840399981 0.348699987
vt 0.675300002 0.271499991
vt 0.239700004 0.411199987
vt 0.239700004 0.39230001
vt 0.221000001 0.401800007
vt 0.751299977 0.413399994
vt 0.751299977 0.389899999
vt 0.906599998 0.0511000007
vt 0.942300022 0.281100005
vt 0.979399979 0.0513999984
vt 0.991299987 0.0248000007
vt 0.894800007 0.0244999994
vt 0.992900014 0.00529999984
vt 0.893400013 0.00499999989
vt 0.150199994 0.310900003
vt 0.202800006 0.292600006
vt 0.161300004 0.292600006
vt 0.2139 0.310799986
vt 0.142800003 0.259499997
vt 0.119099997 0.25999999
vt 0.183300003 0.217299998
vt 0.181999996 0.192100003
vt 0.244900003 0.259900004
vt 0.222900003 0.25940001
vt 0.181999996 0.256700009
vt 0.976599991 0.492199987
vt 0.995199978 0.44659999
vt 0.958199978 0.446500003
vt 0.991900027 0.289900005
vt 0.962300003 0.289799988
vt 0.319000006 0.334800005
vt 0.294999987 0.341800004
vt 0.318899989 0.341800004
vt 0.294999987 0.334699988
vt 0.291700006 0.387400001
vt 0.32159999 0.387499988
vt 0.319000006 0.324900001
vt 0.295100003 0.324900001
vt 0.324699998 0.253600001
vt 0.290499985 0.253500015
vt 0.290600002 0.240400001
vt 0.324800014 0.240500003
vt 0.324999988 0.204600006
vt 0.290899992 0.204600006
vt 0.254000008 0.388300002
vt 0.2773 0.362100005
vt 0.253899992 0.362300009
vt 0.277399987 0.388200015
vt 0.277200013 0.336600006
vt 0.253800005 0.336699992
vt 0.281599998 0.188899994
vt 0.248199999 0.189099997
vt 0.0860000029 0.267800003
vt 0.0196000002 0.444000006
vt 0.0860000029 0.444000006
vt 0.0555000007 0.267800003
vt 0.166999996 0.444000006
vt 0.116999999 0.267800003
vt 0.00510000018 0.462000012
vt 0.0860000029 0.462000012
vt 0.182999998 0.462000012
vt 0.184499994 0.492300004
vt 0.0860000029 0.492300004
vt 0.00520000001 0.492300004
vt 0.00510000018 0.462000012
vt 0.0860000029 0.267800003
vt 0.0860000029 0.444000006
vt 0.166999996 0.444000006
vt 0.0860000029 0.462000012
vt 0.0860000029 0.492300004
vt 0.184499994 0.492300004
vt 0.182999998 0.462000012
vt 0.0196000002 0.444000006
vt 0.689100027 0.325700015
vt 0.609300017 0.297800004
vt 0.574100018 0.326900005
vt 0.66900003 0.299199998
vt 0.62559998 0.259000003
vt 0.669200003 0.25850001
vt 0.480399996 0.367199987
vt 0.412600011 0.324600011
vt 0.335799992 0.368699998
vt 0.3574 0.28580001
vt 0.335599989 0.2861
vt 0.754800022 0.347799987
vt 0.480399996 0.383599997
vt 0.754899979 0.380699992
vt 0.465799987 0.282999992
vt 0.401199996 0.308699995
vt 0.465799987 0.308699995
vt 0.400900006 0.282999992
vt 0.514599979 0.282999992
vt 0.514599979 0.308699995
vt 0.584900022 0.282999992
vt 0.584900022 0.308699995
vt 0.522000015 0.153500006
vt 0.468199998 0.185200006
vt 0.522000015 0.185200006
vt 0.468199998 0.153500006
vt 0.414299995 0.185200006
vt 0.414299995 0.153500006
vt 0.658100009 0.153500006
vt 0.658100009 0.185200006
vt 0.701699972 0.153500006
vt 0.701699972 0.185200006
vt 0.343899995 0.273900002
vt 0.407200009 0.2412
vt 0.343899995 0.2412
vt 0.407200009 0.273900002
vt 0.369800001 0.196899995
vt 0.335299999 0.231900007
vt 0.369800001 0.231900007
vt 0.335299999 0.196899995
vt 0.466600001 0.196899995
vt 0.466600001 0.231900007
vt 0.72329998 0.196899995
vt 0.72329998 0.231900007
vt 0.593500018 0.273900002
vt 0.606999993 0.2412
vt 0.593500018 0.2412
vt 0.606999993 0.273900002
vt 0.407200009 0.273900002
vt 0.593500018 0.2412
vt 0.407200009 0.2412
vt 0.593500018 0.273900002
vt 0.689100027 0.325700015
vt 0.609300017 0.297800004
vt 0.66900003 0.299199998
vt 0.574100018 0.326900005
vt 0.62559998 0.259000003
vt 0.669200003 0.25850001
vt 0.480399996 0.367199987
vt 0.412600011 0.324600011
vt 0.335799992 0.368699998
vt 0.3574 0.28580001
vt 0.335599989 0.2861
vt 0.754800022 0.347799987
vt 0.480399996 0.383599997
vt 0.754899979 0.380699992
vt 0.750699997 0.0943000019
vt 0.709599972 0.136899993
vt 0.750699997 0.136899993
vt 0.647899985 0.0943000019
vt 0.569899976 0.0943000019
vt 0.485599995 0.136899993
vt 0.709599972 0.181799993
vt 0.750699997 0.192100003
vt 0.759000003 0.1822
vt 0.759000003 0.146799996
vt 0.485599995 0.0943000019
vt 0.461600006 0.0812000036
vt 0.461600006 0.150000006
vt 0.601999998 0.0678000003
vt 0.583500028 0.0678000003
vt 0.631600022 0.0678000003
vt 0.628700018 0.0502000004
vt 0.604900002 0.0502000004
vt 0.925400019 0.215299994
vt 0.884599984 0.179000005
vt 0.880900025 0.215299994
vt 0.921599984 0.179000005
vt 0.925400019 0.231299996
vt 0.880900025 0.231399998
vt 0.922599971 0.280999988
vt 0.883599997 0.280999988
vt 0.922599971 0.297100008
vt 0.883599997 0.297100008
vt 0.477899998 0.0410000011
vt 0.68690002 0.00700000022
vt 0.477899998 0.00700000022
vt 0.68690002 0.0410000011
vt 0.453500003 0.0410000011
vt 0.453500003 0.00700000022
vt 0.719699979 0.0388999991
vt 0.75880003 0.00910000037
vt 0.719699979 0.00910000037
vt 0.75880003 0.0388999991
vt 0.68690002 0.0410000011
vt 0.68690002 0.00700000022
vt 0.958999991 0.209600002
vt 0.995100021 0.277999997
vt 0.992200017 0.209900007
vt 0.955200016 0.277700007
vt 0.452300012 0.0480999984
vt 0.429399997 0.0781000033
vt 0.452300012 0.0781000033
vt 0.429399997 0.0480999984
vt 0.526199996 0.0480999984
vt 0.526199996 0.0781000033
vt 0.547800004 0.0518000014
vt 0.547800004 0.0744000003
vt 0.56400001 0.0518000014
vt 0.56400001 0.0744000003
vt 0.576300025 0.0540000014
vt 0.576300025 0.0722000003
vt 0.682600021 0.0855000019
vt 0.769299984 0.0511000007
vt 0.682600021 0.0511000007
vt 0.769299984 0.0855000019
vt 0.66049999 0.0812999979
vt 0.66049999 0.0553000011
vt 0.648599982 0.0788000003
vt 0.648599982 0.0579000004
vt 0.750699997 0.0943000019
vt 0.709599972 0.136899993
vt 0.647899985 0.0943000019
vt 0.750699997 0.136899993
vt 0.569899976 0.0943000019
vt 0.485599995 0.136899993
vt 0.709599972 0.181799993
vt 0.750699997 0.192100003
vt 0.759000003 0.1822
vt 0.759000003 0.146799996
vt 0.485599995 0.0943000019
vt 0.461600006 0.0812000036
vt 0.461600006 0.150000006
vt 0.601999998 0.0678000003
vt 0.583500028 0.0678000003
vt 0.631600022 0.0678000003
vt 0.628700018 0.0502000004
vt 0.604900002 0.0502000004
vn 5.21162916e-08 0.921365257 -0.388697908
vn 1.80216368e-08 0.990925749 -0.134410418
vn 6.04339083e-09 0.999156648 -0.041060843
vn 4.78561038e-08 0.921365261 -0.388697899
vn -1.90057594e-23 0.998831407 0.0483303333
vn 0 0.986682554 0.162657729
vn 0 0.878763833 0.477256876
vn 0 0.878763833 0.477256876
vn 0.906427223 -0.0253047823 -0.421603318
vn 0.87735845 0.461848322 -0.13014714
vn 0.991628491 -0.0971865871 -0.0850159035
vn 0.818954188 0.434259055 -0.37514412
vn 0.276285855 -0.875542779 -0.39634703
vn 0.203543978 -0.974968282 -0.0894801573
vn -0.888878102 -0.221238124 -0.401185011
vn -0.906479432 -0.418450699 -0.0565159452
vn -0.882313033 0.46416736 -0.0779254346
vn -0.818954026 0.43425912 -0.375144399
vn -0.990552004 -0.0935843974 0.100243144
vn -0.874155164 0.459815396 0.15627716
vn -0.859902417 -0.0291916739 0.509623076
vn -0.784404972 0.414236929 0.461645542
vn -0.655429787 -0.646850449 0.389867018
vn -0.298675478 -0.952931603 0.0520991342
vn 0.318003989 -0.824978751 0.467208222
vn 0.892265748 -0.443581738 0.0842441538
vn 0.859922902 -0.028358279 0.509635566
vn 0.881271694 0.463409055 0.0928022065
vn 0.78440478 0.414237037 0.461645771
vn -1.72654004e-07 -0.00110850433 0.999999386
vn -1.84426637e-07 -0.0026182173 0.999996572
vn -1.84427095e-07 -0.00137198097 0.999999059
vn -1.6400973e-07 5.09660784e-15 1
vn -1.23119018e-07 6.49303627e-08 1
vn 1.59945767e-07 -2.30119544e-15 -1
vn 1.9333262e-07 1.30984301e-10 -1
vn 2.40024852e-07 -6.1144571e-08 -1
vn 0 2.53846923e-07 -1
vn 2.40024852e-07 3.14171885e-10 -1
vn 0.673733278 0.734508203 0.0811244089
vn 0.660708039 0.719790604 -0.212993835
vn 0.656053366 0.715396255 -0.240420839
vn 0.673839606 0.734448061 0.0807850875
vn 0.676086847 0.735808926 0.0386238254
vn 0.677285117 0.73503861 0.0316719303
vn 0.676168915 0.736471729 -0.0201243952
vn 0.675289083 0.733768035 -0.0746265734
vn 0.663731647 0.719893036 -0.203013097
vn 0.673848362 0.709307348 -0.206909331
vn 0 -0.994343241 0.106214491
vn 0.71340148 -0.688669815 -0.129584778
vn 0 -0.91332927 -0.407221862
vn 0.71695705 -0.693396433 0.0719303457
vn 0.716539823 -0.691673653 -0.0903229735
vn 8.26538947e-17 -0.989856279 0.142072327
vn 0.71854149 -0.695212878 -0.0194211422
vn 0.716469534 -0.694032444 -0.0706425781
vn 0.704734656 -0.68294013 -0.192202609
vn 0.702306424 -0.685183209 -0.193105299
vn -0.711831527 -0.69037687 -0.129134246
vn -0.715287235 -0.695139618 0.0717292309
vn -0.714237096 -0.694019323 -0.0905679306
vn -0.716914769 -0.696897285 -0.0191673704
vn -0.715872219 -0.695828432 -0.0578771066
vn -0.70232069 -0.685427792 -0.19218322
vn -0.693467268 -0.693473561 -0.195441982
vn -0.693467268 -0.693473561 -0.195441982
vn 0 -8.37443109e-16 1
vn 8.65898225e-16 -8.37443109e-16 1
vn 0 -8.37443109e-16 1
vn -8.61715187e-16 -8.37443109e-16 1
vn -0.658870147 0.721456423 -0.213051071
vn -0.672005891 0.736088959 0.0811241429
vn -0.654497173 0.716988299 -0.239919214
vn -0.672056598 0.73606049 0.0809622421
vn -0.674150382 0.73758477 0.0386001367
vn -0.67467236 0.73743309 0.0317749011
vn -0.674446062 0.73804593 -0.0202660881
vn -0.673081634 0.735769734 -0.074859946
vn -0.661195472 0.722228398 -0.202994309
vn -0.665386397 0.717910112 -0.204611861
vn 0 0 -1
vn 0 0 -1
vn 0 0 -1
vn 0 0 -1
vn 0 0.854269144 0.519830963
vn 0.984428686 0.175575057 0.00857679472
vn 0.782031863 -0.213282049 0.585608174
vn 0 0.999927095 0.012074965
vn -3.38510718e-18 0.9998823 -0.0153422791
vn 0.995433062 0.0930985166 -0.0211112804
vn 0.64955293 0.753621501 -0.100675837
vn 0.946968892 -0.139412313 -0.289506692
vn 0.967433471 -0.246700924 -0.0566668549
vn 0.687571847 -0.722778119 -0.0695467153
vn 0.976393861 -5.4287189e-16 0.215997752
vn 0.657475791 0.729992099 0.186647046
vn 0.701016961 -0.691851735 0.172963572
vn 0.892891741 -0.450271406 -4.29717217e-06
vn 0.832703883 -0.552568772 0.0356650314
vn 0 -0.608764202 0.793351213
vn 0.999489378 -0.0319527608 -6.22632058e-05
vn 0.999534324 -0.0305143052 -0.000109234779
vn 0.999351335 -0.0360126161 8.55210702e-08
vn 0.999424805 0.0297306591 -0.0163139852
vn 0.999417165 0.0336300531 -0.0058608199
vn 0.999324305 0.0322226618 -0.017681425
vn 0.999355919 0.026154916 -0.0245696272
vn 0.999351335 -0.0360126206 1.4985235e-07
vn 1 1.7691027e-09 1.45041485e-07
vn -0.780222322 -0.212788569 0.588195676
vn -0.832639365 -0.552647389 0.0359520608
vn -0.983947243 0.178252776 0.00858898769
vn -0.995198771 0.0955143041 -0.0213640647
vn -0.648205621 0.754746936 -0.100928367
vn -0.946300182 -0.13931388 -0.291732082
vn -0.967394822 -0.24669108 -0.0573652312
vn -0.686548945 -0.723810092 -0.06891659
vn -0.975697931 -5.87692035e-16 0.21911994
vn -0.655009572 0.732070206 0.187178186
vn -0.698660008 -0.694092074 0.173523448
vn -0.892891719 -0.450271448 -4.56942258e-06
vn -0.999489379 -0.0319527453 -6.25725697e-05
vn -0.999534325 -0.0305142869 -0.000109540942
vn -0.999351336 -0.0360126071 -8.55210703e-08
vn -0.9994248 0.0297306678 -0.0163142896
vn -0.999417163 0.033630064 -0.00586112628
vn -0.9993243 0.0322226681 -0.0176817269
vn -0.999355912 0.0261549228 -0.0245699268
vn -0.999351336 -0.0360126027 -1.4985235e-07
vn -1 -1.7691027e-09 -1.45041485e-07
vn 0 -0.999835689 0.018127176
vn 0 -0.999977359 0.00672913267
vn 0 -0.816414838 0.577465854
vn 0 -0.999996715 -0.00256314233
vn 0 -0.999996715 -0.00256314233
vn 0 0.85046029 -0.526039253
vn 0 0.95092614 -0.309417962
vn 0 0.907908413 -0.419168597
vn 0 0.748621603 -0.662997508
vn 0 0.950474204 -0.310803454
vn 0 0.999978354 0.00657959505
vn 0 0.999978354 0.00657959505
vn 2.12361783e-07 3.71629613e-07 1
vn -0.281818129 -0.523519616 0.804055815
vn 0.321664573 -0.597539261 0.734492161
vn 0 0 1
vn 0.62173272 0.167061005 0.765205231
vn 2.79178732e-07 0 1
vn 2.74013388e-07 0.538930186 0.842350434
vn 3.3941546e-07 0 1
vn 0 0 1
vn -0.622345382 0.166275451 0.764878226
vn 4.28503161e-07 1.15139756e-07 1
vn 0 -0.786318439 -0.617821424
vn 0 -0.669964431 -0.742393199
vn 0 -0.655909835 -0.754839247
vn 0 -0.632604381 -0.77447511
vn 0 -0.632604381 -0.77447511
vn 0 -0.690985404 0.72286871
vn 0 -0.197247627 0.980353698
vn 0 -0.0467273247 0.998907682
vn 0 -0.222241111 0.974991738
vn 0 -0.00300143944 0.999995496
vn 0 -0.00300143944 0.999995496
vn 0 0.810723146 0.58542974
vn 0 0.892844976 0.450364129
vn 0 0.840888432 0.541208504
vn 0 0.852252536 0.523130591
vn 0 -0.728848014 0.684675524
vn 0 -0.728848014 0.684675524
vn 0 -0.864317663 0.502946297
vn 0 -0.864317663 0.502946297
vn 0 -1 -3.72403902e-16
vn 0 -0.902067463 -0.431595056
vn 0 -0.490633776 -0.871365881
vn 0 -1 -3.72403902e-16
vn 0 -0.639325738 -0.768936018
vn 0 -0.752596491 -0.658481983
vn 0 -0.785283648 -0.619136166
vn 0 -0.785283648 -0.619136166
vn 0.914941421 -0.171988181 -0.365105822
vn 0.0238861844 -0.920973884 -0.388891444
vn 0.834630512 -0.237496883 -0.496978006
vn 8.19783916e-17 -0.93772084 -0.347389732
vn 0.707941139 0.497978234 -0.500836323
vn 0 0.847496352 -0.530801219
vn 0.363938753 -0.33694076 -0.868342967
vn 0.887422263 -0.200356563 -0.415137297
vn 0.721355944 0.448769504 -0.527495529
vn 0.851045671 0.524401113 -0.0269209615
vn 0.966055164 -0.258318954 -0.00295602893
vn -3.19058497e-07 -0.999995408 0.00303058382
vn -0.1958083 -0.861971502 -0.467615482
vn -0.914558734 -0.172788879 -0.365686103
vn -0.83437592 -0.238522742 -0.496914203
vn -0.707212246 0.498821043 -0.50102735
vn -0.887288619 -0.201171164 -0.415028998
vn -0.965815222 -0.25921476 -0.00294380646
vn -0.851045642 0.524401145 -0.026921261
vn -0.721356116 0.448769241 -0.527495519
vn -0.3648273 -0.338173365 -0.867490528
vn 1 -5.33413728e-09 1.47974149e-07
vn 1 1.85282035e-09 1.48429072e-07
vn 1 -9.29983853e-09 1.49914281e-07
vn 1 7.8970923e-09 1.45672474e-07
vn 1 1.04678399e-08 1.44226238e-07
vn 1 -1.79829445e-09 1.36647204e-07
vn 1 -1.13966429e-08 1.50041726e-07
vn 1 -1.59266648e-08 1.49665204e-07
vn 1 -1.23787831e-08 1.45992363e-07
vn 1 -1.9586548e-09 1.41512724e-07
vn 1 0 1.36647665e-07
vn 1 -3.91958989e-09 1.48596508e-07
vn 1 0 1.48443243e-07
vn 1 0 1.48443243e-07
vn -1.9568305e-07 -0.809727292 0.586806367
vn -1.12184478e-07 -0.881742071 0.47173183
vn -2.15614048e-07 -0.700757314 0.713399739
vn 0 -0.881742093 0.471731789
vn -1.31074099e-07 -0.834398236 0.55116203
vn 0 -0.971483343 0.237107811
vn 0 -1 -2.22046769e-16
vn 0 -1 -2.22046769e-16
vn 0 -0.904134795 -0.42724732
vn 0 -0.542454879 -0.840084939
vn 0 -0.953766592 -0.300548312
vn 0 -0.26332017 -0.964708499
vn 0 0.0131589868 -0.999913417
vn 0 0.0131589868 -0.999913417
vn 0 -0.930356831 -0.366655379
vn 0 -0.748958251 -0.662617188
vn 0 0 -1
vn 0 0 -1
vn 0 0 1
vn 0 0 1
vn 0 0 1
vn 0 0 1
vn 0 -0.967341718 -0.253475837
vn 0 -1 -2.5452611e-16
vn 0 -0.931022326 -0.364962228
vn 0 -1 -2.5452611e-16
vn 0 -0.980678158 -0.195628094
vn 0 -0.996700701 -0.0811647248
vn 0 -0.999883732 -0.0152487138
vn 0 -0.999883732 -0.0152487138
vn 0 0 1
vn 0 0 1
vn 0 0 1
vn 0 0 1
vn 0 1 2.04776247e-16
vn 0 1 2.04776247e-16
vn 0 1 2.04776247e-16
vn 0 1 2.04776247e-16
vn -1 5.33414739e-09 -1.47974151e-07
vn -1 -1.85280709e-09 -1.48429083e-07
vn -1 -7.89711216e-09 -1.45672488e-07
vn -1 9.2998526e-09 -1.49914281e-07
vn -1 -1.04678583e-08 -1.44226249e-07
vn -1 1.79829445e-09 -1.36647204e-07
vn -1 1.13966429e-08 -1.50041726e-07
vn -1 1.59266648e-08 -1.49665204e-07
vn -1 1.23787831e-08 -1.45992363e-07
vn -1 1.9586548e-09 -1.41512724e-07
vn -1 0 -1.36647665e-07
vn -1 3.91958989e-09 -1.48596508e-07
vn -1 0 -1.48443243e-07
vn -1 0 -1.48443243e-07
vn 0.996857119 -0.0792204729 1.38380012e-07
vn 0.997699313 -0.0677944021 1.48156203e-07
vn 0.999915568 0.0126937662 0.0027792728
vn 0.995180262 -0.0980624621 1.53966162e-07
vn 0.996067449 -0.0885981771 1.54409616e-07
vn 0.997104524 -0.0760431939 8.94566429e-08
vn 0.998982119 0.0448981775 0.00434511752
vn 0.999168034 0.0407824381 0.000182253298
vn 0.998759865 0.0497825447 0.000655461231
vn 0.996136389 0.0637529586 0.0603974688
vn 0.99682846 -0.0792181741 -0.00758297296
vn 0.998168497 -0.0604950518 -2.225638e-07
vn 0.99858051 -0.0489100476 0.0210896017
vn 0.989030066 -0.14771435 1.52556915e-07
vn 0.988858252 -0.148860195 1.32979511e-07
vn 0.989169276 -0.146779236 1.66773971e-07
vn 0.98962796 -0.143654098 1.38582885e-07
vn 0.98962797 -0.143654031 1.03509233e-07
vn 0 -0.120651945 -0.992694872
vn 0 0 -1
vn 0 -0.322589738 -0.946538885
vn 0 0 -1
vn 0 -0.359934483 -0.932977582
vn 0 -0.138794418 -0.990321215
vn 0 0.124900049 -0.992169329
vn 0 0.363142126 -0.931733758
vn 0 0.735549142 -0.677471372
vn 0 0.735549142 -0.677471372
vn 6.94766194e-09 0.999758237 -0.0219878868
vn -5.24527761e-23 1 3.32003984e-16
vn 1.20192475e-08 0.997101963 -0.0760767753
vn 0 1 3.32003992e-16
vn 6.25553951e-08 0.91827237 -0.395949308
vn 0 0.91827234 -0.395949377
vn 0 0.848511114 0.52917756
vn 0 0.981779759 0.190022381
vn 0 0.441897587 0.897065506
vn 0 0.981779759 0.190022381
vn 0 -5.26021758e-16 1
vn 0 -5.26021758e-16 1
vn 0 0 1
vn 0 0 1
vn 0 0 1
vn 0 0 1
vn 2.93854123e-08 -0.987948814 -0.154780946
vn 7.51731991e-08 -0.918268771 -0.395957654
vn 2.04129341e-08 -0.998553873 -0.0537602325
vn 0 -0.918268801 -0.395957584
vn -2.1266751e-08 -0.993706206 0.11201775
vn -6.84766456e-08 -0.948513707 0.316736086
vn -1.49482742e-07 -0.722446655 0.691426663
vn -9.44530191e-08 -0.926510906 0.376267911
vn -8.13474606e-08 -0.946036553 0.324059933
vn -2.00971323e-07 -0.693413666 0.72053972
vn -2.72981872e-07 -0.205209114 0.978718151
vn -3.07104619e-07 -0.205209071 0.97871816
vn 0 -0.995737298 -0.0922346621
vn 0 -1 -3.61991722e-16
vn 0 -0.964321196 -0.264735018
vn 0 -1 -3.61991722e-16
vn 0 -0.55373219 -0.832694819
vn 0 -0.429828383 -0.902910605
vn 0 -0.205209114 -0.978718151
vn 0 -0.205209114 -0.978718151
vn -0.996857117 -0.0792204981 -1.51353137e-07
vn -0.997736687 -0.0672421221 -1.5117544e-07
vn -0.994896097 -0.100904687 -1.52374328e-07
vn -0.999852314 0.0168990103 0.00312618173
vn -0.995940401 -0.0900151003 -1.4969907e-07
vn -0.997104522 -0.0760432242 -2.05460396e-07
vn -0.998712261 0.0504969398 0.00488666165
vn -0.998947386 0.0458702334 0.00020466908
vn -0.998431221 0.0559870835 0.000736670911
vn -0.995117629 0.0716489186 0.0678773624
vn -0.996828454 -0.0792182248 -0.00758326414
vn -0.998168495 -0.060495089 -4.77944062e-07
vn -0.998580514 -0.0489100766 0.0210893532
vn -0.987787011 -0.155810207 -1.53634955e-07
vn -0.987241134 -0.159232354 -1.32762045e-07
vn -0.988223926 -0.153014614 -1.66614613e-07
vn -0.989627954 -0.143654143 -1.61680062e-07
vn -0.989627952 -0.143654155 -1.55263879e-07

g gun13_submesh_0
usemtl RPG-31-Newlambert15
f 1/1/1 3/3/3 2/2/2
f 1/1/1 2/2/2 4/4/4
f 3/3/3 5/5/5 2/2/2
f 3/3/3 6/6/6 5/5/5
f 6/6/6 7/7/7 5/5/5
f 6/6/6 8/8/8 7/7/7
f 9/9/9 11/11/11 10/10/10
f 9/9/9 10/10/10 12/12/12
f 13/13/13 11/11/11 9/9/9
f 13/13/13 14/14/14 11/11/11
f 15/15/15 14/14/14 13/13/13
f 15/15/15 16/16/16 14/14/14
f 15/15/15 17/17/17 16/16/16
f 15/15/15 18/18/18 17/17/17
f 17/17/17 19/19/19 16/16/16
f 17/17/17 20/20/20 19/19/19
f 20/20/20 21/21/21 19/19/19
f 20/20/20 22/22/22 21/21/21
f 19/19/19 21/21/21 23/23/23
f 16/16/16 19/19/19 24/24/24
f 16/16/16 24/24/24 14/14/14
f 19/19/19 25/25/25 24/24/24
f 26/26/26 24/24/24 25/25/25
f 14/14/14 24/24/24 26/26/26
f 14/14/14 26/26/26 11/11/11
f 26/26/26 25/25/25 27/27/27
f 28/28/28 26/26/26 27/27/27
f 28/28/28 27/27/27 29/29/29
f 11/11/11 26/26/26 28/28/28
f 11/11/11 28/28/28 10/10/10
f 30/30/30 32/32/32 31/31/31
f 33/33/33 32/32/32 30/30/30
f 33/33/33 30/30/30 34/34/34
f 35/35/35 37/37/37 36/36/36
f 35/35/35 36/36/36 38/38/38
f 36/36/36 37/37/37 39/39/39
f 40/40/40 42/42/42 41/41/41
f 40/40/40 41/41/41 43/43/43
f 41/41/41 42/42/42 44/44/44
f 41/41/41 44/44/44 45/45/45
f 44/44/44 46/46/46 45/45/45
f 44/44/44 47/47/47 46/46/46
f 47/47/47 48/48/48 46/46/46
f 47/47/47 49/49/49 48/48/48
f 50/50/50 52/52/52 51/51/51
f 50/50/50 51/51/51 53/53/53
f 52/52/52 54/54/54 51/51/51
f 52/52/52 55/55/55 54/54/54
f 55/55/55 56/56/56 54/54/54
f 55/55/55 57/57/57 56/56/56
f 57/57/57 58/58/58 56/56/56
f 57/57/57 59/59/59 58/58/58
f 60/60/60 52/52/52 50/50/50
f 60/60/60 50/50/50 61/61/61
f 62/62/62 55/55/55 52/52/52
f 62/62/62 52/52/52 60/60/60
f 63/63/63 55/55/55 62/62/62
f 63/63/63 64/64/64 55/55/55
f 65/65/65 64/64/64 63/63/63
f 65/65/65 67/67/67 66/66/66
f 68/68/68 70/70/70 69/69/69
f 68/68/68 71/71/71 70/70/70
f 72/72/72 74/74/74 73/73/73
f 72/72/72 73/73/73 75/75/75
f 72/72/72 76/76/76 74/74/74
f 72/72/72 77/77/77 76/76/76
f 78/78/78 76/76/76 77/77/77
f 78/78/78 79/79/79 76/76/76
f 80/80/80 79/79/79 78/78/78
f 80/80/80 81/81/81 79/79/79
f 82/82/82 84/84/84 83/83/83
f 82/82/82 85/85/85 84/84/84
f 86/86/86 88/88/88 87/87/87
f 86/86/86 87/87/87 89/89/89
f 87/87/87 90/90/90 89/89/89
f 87/87/87 91/91/91 90/90/90
f 91/91/91 92/92/92 90/90/90
f 91/91/91 93/93/93 92/92/92
f 94/94/94 93/93/93 91/91/91
f 94/94/94 95/95/95 93/93/93
f 92/92/92 93/93/93 96/96/96
f 95/95/95 96/96/96 93/93/93
f 92/92/92 96/96/96 97/97/97
f 95/95/95 98/98/98 96/96/96
f 87/87/87 99/99/99 91/91/91
f 91/91/91 99/99/99 94/94/94
f 87/87/87 100/100/100 99/99/99
f 88/88/88 100/100/100 87/87/87
f 88/88/88 101/101/101 100/100/100
f 99/99/99 102/102/102 94/94/94
f 99/99/99 103/103/103 102/102/102
f 103/103/103 99/99/99 104/104/104
f 102/102/102 103/103/103 105/105/105
f 102/102/102 105/105/105 106/106/106
f 105/105/105 107/107/107 106/106/106
f 105/105/105 108/108/108 107/107/107
f 94/94/94 102/102/102 109/109/109
f 107/107/107 108/108/108 110/110/110
f 111/111/111 112/112/112 101/101/101
f 111/111/111 113/113/113 112/112/112
f 86/86/86 113/113/113 111/111/111
f 86/86/86 89/89/89 113/113/113
f 90/90/90 113/113/113 89/89/89
f 90/90/90 114/114/114 113/113/113
f 115/115/115 114/114/114 90/90/90
f 115/115/115 116/116/116 114/114/114
f 116/116/116 117/117/117 114/114/114
f 116/116/116 118/118/118 117/117/117
f 119/119/119 116/116/116 115/115/115
f 119/119/119 118/118/118 116/116/116
f 119/119/119 115/115/115 120/120/120
f 119/119/119 121/121/121 118/118/118
f 113/113/113 114/114/114 122/122/122
f 113/113/113 122/122/122 112/112/112
f 114/114/114 117/117/117 122/122/122
f 123/123/123 122/122/122 117/117/117
f 123/123/123 124/124/124 122/122/122
f 124/124/124 125/125/125 122/122/122
f 123/123/123 126/126/126 124/124/124
f 123/123/123 127/127/127 126/126/126
f 128/128/128 126/126/126 127/127/127
f 128/128/128 129/129/129 126/126/126
f 117/117/117 130/130/130 123/123/123
f 128/128/128 131/131/131 129/129/129
f 132/132/132 134/134/134 133/133/133
f 135/135/135 132/132/132 133/133/133
f 135/135/135 133/133/133 136/136/136
f 137/137/137 139/139/139 138/138/138
f 140/140/140 139/139/139 137/137/137
f 140/140/140 137/137/137 141/141/141
f 142/142/142 140/140/140 141/141/141
f 142/142/142 141/141/141 143/143/143
f 144/144/144 146/146/146 145/145/145
f 144/144/144 145/145/145 147/147/147
f 144/144/144 148/148/148 146/146/146
f 144/144/144 149/149/149 148/148/148
f 149/149/149 150/150/150 148/148/148
f 149/149/149 151/151/151 150/150/150
f 152/152/152 150/150/150 151/151/151
f 152/152/152 153/153/153 150/150/150
f 147/147/147 145/145/145 153/153/153
f 147/147/147 153/153/153 152/152/152
f 145/145/145 146/146/146 154/154/154
f 146/146/146 148/148/148 154/154/154
f 148/148/148 150/150/150 154/154/154
f 150/150/150 153/153/153 154/154/154
f 153/153/153 145/145/145 154/154/154
f 155/155/155 157/157/157 156/156/156
f 157/157/157 158/158/158 156/156/156
f 157/157/157 159/159/159 158/158/158
f 160/160/160 162/162/162 161/161/161
f 160/160/160 161/161/161 163/163/163
f 164/164/164 161/161/161 162/162/162
f 164/164/164 162/162/162 165/165/165
f 163/163/163 166/166/166 160/160/160
f 163/163/163 167/167/167 166/166/166
f 167/167/167 168/168/168 166/166/166
f 167/167/167 169/169/169 168/168/168
f 168/168/168 169/169/169 170/170/170
f 168/168/168 170/170/170 171/171/171
f 172/172/172 171/171/171 170/170/170
f 172/172/172 170/170/170 173/173/173
f 174/174/174 176/176/176 175/175/175
f 174/174/174 175/175/175 177/177/177
f 176/176/176 178/178/178 175/175/175
f 176/176/176 179/179/179 178/178/178
f 179/179/179 180/180/180 178/178/178
f 179/179/179 181/181/181 180/180/180
f 182/182/182 184/184/184 183/183/183
f 182/182/182 183/183/183 185/185/185
f 182/182/182 186/186/186 184/184/184
f 182/182/182 187/187/187 186/186/186
f 184/184/184 188/188/188 183/183/183
f 184/184/184 189/189/189 188/188/188
f 186/186/186 189/189/189 184/184/184
f 186/186/186 190/190/190 189/189/189
f 189/189/189 190/190/190 191/191/191
f 189/189/189 191/191/191 192/192/192
f 189/189/189 192/192/192 193/193/193
f 189/189/189 193/193/193 194/194/194
f 183/183/183 195/195/195 185/185/185
f 183/183/183 196/196/196 195/195/195
f 195/195/195 196/196/196 197/197/197
f 195/195/195 197/197/197 187/187/187
f 193/193/193 198/198/198 194/194/194
f 194/194/194 198/198/198 196/196/196
f 198/198/198 197/197/197 196/196/196
f 193/193/193 199/199/199 198/198/198
f 198/198/198 199/199/199 200/200/200
f 198/198/198 200/200/200 201/201/201
f 198/198/198 201/201/201 197/197/197
f 194/194/194 196/196/196 202/202/202
f 203/203/203 205/205/205 204/204/204
f 203/203/203 204/204/204 206/206/206
f 206/206/206 204/204/204 207/207/207
f 206/206/206 207/207/207 208/208/208
f 209/209/209 205/205/205 203/203/203
f 209/209/209 210/210/210 205/205/205
f 209/209/209 211/211/211 210/210/210
f 211/211/211 212/212/212 210/210/210
f 211/211/211 213/213/213 212/212/212
f 209/209/209 203/203/203 214/214/214
f 214/214/214 215/215/215 209/209/209
f 214/214/214 216/216/216 215/215/215
f 217/217/217 219/219/219 218/218/218
f 217/217/217 218/218/218 220/220/220
f 221/221/221 219/219/219 217/217/217
f 221/221/221 222/222/222 219/219/219
f 223/223/223 222/222/222 221/221/221
f 223/223/223 224/224/224 222/222/222
f 225/225/225 227/227/227 226/226/226
f 225/225/225 226/226/226 228/228/228
f 228/228/228 226/226/226 229/229/229
f 228/228/228 229/229/229 230/230/230
f 231/231/231 227/227/227 225/225/225
f 231/231/231 232/232/232 227/227/227
f 233/233/233 232/232/232 231/231/231
f 233/233/233 234/234/234 232/232/232
f 235/235/235 237/237/237 236/236/236
f 235/235/235 236/236/236 238/238/238
f 239/239/239 241/241/241 240/240/240
f 239/239/239 240/240/240 242/242/242
f 243/243/243 241/241/241 239/239/239
f 243/243/243 244/244/244 241/241/241
f 245/245/245 244/244/244 243/243/243
f 245/245/245 246/246/246 244/244/244
f 247/247/247 249/249/249 248/248/248
f 247/247/247 248/248/248 250/250/250
f 251/251/251 253/253/253 252/252/252
f 251/251/251 252/252/252 254/254/254
f 255/255/255 257/257/257 256/256/256
f 255/255/255 256/256/256 258/258/258
f 257/257/257 259/259/259 256/256/256
f 257/257/257 260/260/260 259/259/259
f 261/261/261 255/255/255 258/258/258
f 261/261/261 258/258/258 262/262/262
f 261/261/261 262/262/262 263/263/263
f 264/264/264 263/263/263 262/262/262
f 264/264/264 265/265/265 263/263/263
f 261/261/261 266/266/266 255/255/255
f 267/267/267 266/266/266 261/261/261
f 267/267/267 268/268/268 266/266/266
f 269/269/269 271/271/271 270/270/270
f 269/269/269 270/270/270 272/272/272
f 270/270/270 273/273/273 272/272/272
f 270/270/270 274/274/274 273/273/273
f 271/271/271 275/275/275 270/270/270
f 271/271/271 276/276/276 275/275/275
f 271/271/271 277/277/277 276/276/276
f 271/271/271 278/278/278 277/277/277
f 273/273/273 274/274/274 279/279/279
f 274/274/274 280/280/280 279/279/279
f 274/274/274 281/281/281 280/280/280
f 272/272/272 273/273/273 282/282/282
f 282/282/282 273/273/273 283/283/283
f 272/272/272 282/282/282 284/284/284
f 282/282/282 285/285/285 284/284/284
f 282/282/282 286/286/286 285/285/285
f 287/287/287 289/289/289 288/288/288
f 287/287/287 288/288/288 290/290/290
f 291/291/291 289/289/289 287/287/287
f 291/291/291 292/292/292 289/289/289
f 293/293/293 292/292/292 291/291/291
f 293/293/293 294/294/294 292/292/292
f 295/295/295 294/294/294 293/293/293
f 295/295/295 296/296/296 294/294/294
f 297/297/297 299/299/299 298/298/298
f 297/297/297 298/298/298 300/300/300
f 301/301/301 299/299/299 297/297/297
f 301/301/301 302/302/302 299/299/299
f 303/303/303 305/305/305 304/304/304
f 303/303/303 304/304/304 306/306/306
f 307/307/307 305/305/305 303/303/303
f 307/307/307 308/308/308 305/305/305
f 309/309/309 311/311/311 310/310/310
f 309/309/309 310/310/310 312/312/312
f 313/313/313 315/315/315 314/314/314
f 313/313/313 314/314/314 316/316/316
f 317/317/317 315/315/315 313/313/313
f 317/317/317 318/318/318 315/315/315
f 319/319/319 318/318/318 317/317/317
f 319/319/319 320/320/320 318/318/318
f 321/321/321 320/320/320 319/319/319
f 321/321/321 322/322/322 320/320/320
f 323/323/323 322/322/322 321/321/321
f 323/323/323 324/324/324 322/322/322
f 325/325/325 327/327/327 326/326/326
f 325/325/325 326/326/326 328/328/328
f 327/327/327 325/325/325 329/329/329
f 327/327/327 329/329/329 330/330/330
f 330/330/330 329/329/329 331/331/331
f 330/330/330 331/331/331 332/332/332
f 333/333/333 335/335/335 334/334/334
f 333/333/333 334/334/334 336/336/336
f 337/337/337 334/334/334 335/335/335
f 337/337/337 338/338/338 334/334/334
f 339/339/339 336/336/336 334/334/334
f 339/339/339 340/340/340 336/336/336
f 341/341/341 336/336/336 340/340/340
f 341/341/341 342/342/342 336/336/336
f 337/337/337 343/343/343 338/338/338
f 344/344/344 338/338/338 343/343/343
f 344/344/344 345/345/345 338/338/338
f 335/335/335 346/346/346 337/337/337
f 346/346/346 347/347/347 337/337/337
f 335/335/335 348/348/348 346/346/346
f 349/349/349 346/346/346 348/348/348
f 349/349/349 350/350/350 346/346/346
