# Generated from legacy Unity YAML Mesh assets without Unity.
mtllib gun15.mtl

o gun15
v 0.121829137 -0.0228415355 -0.477775574
v 0.203048542 0.158403128 -0.563628435
v 0.121829145 -0.0446452871 -0.563628435
v 0.203048527 0.158403128 -0.477775574
v 0.121829137 0.327928215 -0.477775574
v 0.121829145 0.344281048 -0.563628435
v -0.121829063 -0.0228415355 -0.477775633
v -0.203048453 0.158403128 -0.563628435
v -0.203048468 0.158403128 -0.477775633
v -0.121829055 -0.0446452871 -0.563628435
v -0.121829063 0.327928215 -0.477775633
v -0.121829055 0.344281048 -0.563628435
v -0.121829055 -0.0446452871 -0.563628435
v 0.121829137 -0.0228415355 -0.477775574
v 0.121829145 -0.0446452871 -0.563628435
v -0.121829063 -0.0228415355 -0.477775633
v -0.121829063 0.327928215 -0.477775633
v 0.121829145 0.344281048 -0.563628435
v 0.121829137 0.327928215 -0.477775574
v -0.121829055 0.344281048 -0.563628435
v 0.121829145 0.344281048 -0.563628435
v -0.203048453 0.158403128 -0.563628435
v 0.203048542 0.158403128 -0.563628435
v -0.121829055 0.344281048 -0.563628435
v -0.121829055 -0.0446452871 -0.563628435
v 0.121829145 -0.0446452871 -0.563628435
v -0.203048468 0.158403128 -0.477775633
v 0.121829137 -0.0228415355 -0.477775574
v -0.121829063 -0.0228415355 -0.477775633
v 0.203048527 0.158403128 -0.477775574
v -0.121829063 0.327928215 -0.477775633
v 0.121829137 0.327928215 -0.477775574
v 0.100570366 0.00768391043 -0.490585387
v 0.167344645 0.162218779 -0.149627537
v 0.167344704 0.162218779 -0.490585357
v 0.100570314 0.00768391043 -0.149627537
v 0.100570314 0.304761648 -0.149627537
v 0.100570366 0.304761648 -0.490585387
v -0.167344689 0.162218779 -0.149627581
v -0.100570291 0.00768391043 -0.490585387
v -0.16734463 0.162218779 -0.490585417
v -0.100570343 0.00768391043 -0.149627566
v -0.100570291 0.304761648 -0.490585387
v -0.100570343 0.304761648 -0.149627566
v -0.100570291 0.00768391043 -0.490585387
v 0.100570314 0.00768391043 -0.149627537
v 0.100570366 0.00768391043 -0.490585387
v -0.100570343 0.00768391043 -0.149627566
v -0.100570343 0.304761648 -0.149627566
v 0.100570366 0.304761648 -0.490585387
v 0.100570314 0.304761648 -0.149627537
v -0.100570291 0.304761648 -0.490585387
v 0.0929389596 -0.00866894424 -0.158349067
v 0.183424994 0.163036555 -0.124825582
v 0.183424994 0.163036555 -0.158349067
v 0.0929389596 -0.00866894424 -0.124825597
v 0.0929389596 0.32738319 -0.124825597
v 0.0929389596 0.32738319 -0.158349067
v -0.183425024 0.163036555 -0.124825642
v -0.0929390043 -0.00866894424 -0.158349097
v -0.183425024 0.163036555 -0.158349127
v -0.0929390043 -0.00866894424 -0.124825627
v -0.0929390043 0.32738319 -0.158349097
v -0.0929390043 0.32738319 -0.124825627
v -0.0929390043 -0.00866894424 -0.158349097
v 0.0929389596 -0.00866894424 -0.124825597
v 0.0929389596 -0.00866894424 -0.158349067
v -0.0929390043 -0.00866894424 -0.124825627
v -0.0929390043 0.32738319 -0.124825627
v 0.0929389596 0.32738319 -0.158349067
v 0.0929389596 0.32738319 -0.124825597
v -0.0929390043 0.32738319 -0.158349097
v -0.0929390043 -0.00866894424 -0.124825627
v 0.183424994 0.163036555 -0.124825582
v 0.0929389596 -0.00866894424 -0.124825597
v -0.183425024 0.163036555 -0.124825642
v -0.0929390043 0.32738319 -0.124825627
v 0.0929389596 0.32738319 -0.124825597
v -0.0929390043 0.32738319 -0.158349097
v 0.183424994 0.163036555 -0.158349067
v 0.0929389596 0.32738319 -0.158349067
v -0.183425024 0.163036555 -0.158349127
v -0.0929390043 -0.00866894424 -0.158349097
v 0.0929389596 -0.00866894424 -0.158349067
v 0.0569625534 0.297947943 0.0572366714
v 0.065139018 0.244800985 -0.0760394782
v 0.0476958938 0.244800985 0.12401104
v 0.065139018 0.297947943 -0.0760394782
v 0.0588704087 0.314028203 -0.0665001571
v 0.0517841354 0.314028203 0.0506955683
v 0.0476958938 0.297947943 0.12401104
v -0.0392470174 0.244800985 0.12401104
v -0.0485136509 0.297947943 0.0572366714
v -0.0392470174 0.297947943 0.12401104
v -0.0564175285 0.244800985 -0.076039508
v -0.0564175285 0.297947943 -0.076039508
v -0.0504214652 0.314028203 -0.0665001869
v -0.0430626832 0.314028203 0.0506955683
v -0.0485136509 0.297947943 0.0572366714
v 0.0476958938 0.297947943 0.12401104
v -0.0392470174 0.297947943 0.12401104
v 0.0569625534 0.297947943 0.0572366714
v -0.0430626832 0.314028203 0.0506955683
v 0.0517841354 0.314028203 0.0506955683
v 0.0588704087 0.314028203 -0.0665001571
v -0.0504214652 0.314028203 -0.0665001869
v -0.0564175285 0.297947943 -0.076039508
v 0.065139018 0.297947943 -0.0760394782
v -0.0392470174 0.244800985 0.12401104
v 0.0476958938 0.297947943 0.12401104
v 0.0476958938 0.244800985 0.12401104
v -0.0392470174 0.297947943 0.12401104
v 0.051784087 0.0861778557 0.366306484
v 0.0517840832 0.0300328434 0.404463232
v 0.0457880124 0.308032125 0.44643569
v 0.0517840944 0.109889597 0.321608543
v 0.0370665118 0.308032125 0.118832558
v 0.0416998304 0.109889597 0.118832558
v -0.0433352776 0.0861778557 0.366306484
v -0.0376117751 0.308032125 0.44643569
v -0.0433352813 0.0300328434 0.404463232
v -0.0433352701 0.109889597 0.321608543
v -0.0288901776 0.308032125 0.118832558
v -0.0335235037 0.109889597 0.118832558
v -0.0433352776 0.0861778557 0.366306484
v 0.0517840832 0.0300328434 0.404463232
v 0.051784087 0.0861778557 0.366306484
v -0.0433352813 0.0300328434 0.404463232
v -0.0433352701 0.109889597 0.321608543
v 0.0517840944 0.109889597 0.321608543
v -0.0335235037 0.109889597 0.118832558
v 0.0416998304 0.109889597 0.118832558
v -0.0288901776 0.308032125 0.118832558
v 0.0416998304 0.109889597 0.118832558
v 0.0370665118 0.308032125 0.118832558
v -0.0335235037 0.109889597 0.118832558
v -0.0376117751 0.308032125 0.44643569
v 0.0370665118 0.308032125 0.118832558
v 0.0457880124 0.308032125 0.44643569
v -0.0288901776 0.308032125 0.118832558
v 0.0907584727 -0.0310178772 0.480504274
v 0.0577801391 0.327110589 0.443165123
v 0.0907584876 -0.0310178772 0.388655424
v 0.0577801354 0.327110589 0.480504274
v -0.0817646086 -0.0310178772 0.480504274
v -0.0487862565 0.327110589 0.443165123
v -0.0487862602 0.327110589 0.480504274
v -0.0817645937 -0.0310178772 0.388655424
v -0.0817645937 -0.0310178772 0.388655424
v 0.0907584727 -0.0310178772 0.480504274
v 0.0907584876 -0.0310178772 0.388655424
v -0.0817646086 -0.0310178772 0.480504274
v 0.0577801354 0.327110589 0.480504274
v -0.0487862602 0.327110589 0.480504274
v -0.0487862565 0.327110589 0.443165123
v 0.0907584876 -0.0310178772 0.388655424
v 0.0577801391 0.327110589 0.443165123
v -0.0817645937 -0.0310178772 0.388655424
v -0.0487862602 0.327110589 0.480504274
v 0.0577801354 0.327110589 0.480504274
v 0.145813346 0.0322132669 -0.254013479
v 0.100025252 -0.0645413622 -0.38810724
v 0.10193307 -0.0607256964 -0.228666514
v 0.145268276 0.0311230533 -0.387834668
v 0.110927142 -0.04137481 -0.115831465
v 0.156987816 0.0559250042 -0.116376474
v 0.157260388 0.0567426234 -0.253740877
v 0.10193307 0.0529269651 -0.254013479
v 0.0561449714 -0.0438276604 -0.38810724
v 0.101388 0.0518367514 -0.387834668
v 0.0580527857 -0.040012002 -0.228666514
v 0.0670468584 -0.0206611082 -0.115831465
v 0.112834983 0.076638706 -0.116376489
v 0.113380097 0.0774563253 -0.253740907
v 0.0561449714 -0.0438276604 -0.38810724
v 0.10193307 -0.0607256964 -0.228666514
v 0.100025252 -0.0645413622 -0.38810724
v 0.0580527857 -0.040012002 -0.228666514
v 0.110927142 -0.04137481 -0.115831465
v 0.0670468584 -0.0206611082 -0.115831465
v 0.156987816 0.0559250042 -0.116376474
v 0.112834983 0.076638706 -0.116376489
v 0.101388 0.0518367514 -0.387834668
v 0.100025252 -0.0645413622 -0.38810724
v 0.145268276 0.0311230533 -0.387834668
v 0.0561449714 -0.0438276604 -0.38810724
v 0.10193307 0.0529269651 -0.254013479
v 0.145268276 0.0311230533 -0.387834668
v 0.145813346 0.0322132669 -0.254013479
v 0.101388 0.0518367514 -0.387834668
v 0.113380097 0.0774563253 -0.253740907
v 0.157260388 0.0567426234 -0.253740877
v 0.112834983 0.076638706 -0.116376489
v 0.157260388 0.0567426234 -0.253740877
v 0.156987816 0.0559250042 -0.116376474
v 0.113380097 0.0774563253 -0.253740907
v -0.144723162 0.0322132669 -0.254013538
v -0.098935023 -0.0645413622 -0.3881073
v -0.143905491 0.0311230533 -0.387834698
v -0.100842878 -0.0607256964 -0.228666544
v -0.109836996 -0.04137481 -0.115831494
v -0.155625105 0.0559250042 -0.116376534
v -0.156170189 0.0567426234 -0.253740937
v -0.100570329 0.0529269651 -0.254013509
v -0.0550547391 -0.0438276604 -0.3881073
v -0.0566900596 -0.040012002 -0.228666544
v -0.100025222 0.0518367514 -0.387834698
v -0.0659567118 -0.0206611082 -0.115831494
v -0.111744836 0.076638706 -0.116376519
v -0.112289906 0.0774563253 -0.253740937
v -0.100842878 -0.0607256964 -0.228666544
v -0.0550547391 -0.0438276604 -0.3881073
v -0.098935023 -0.0645413622 -0.3881073
v -0.0566900596 -0.040012002 -0.228666544
v -0.109836996 -0.04137481 -0.115831494
v -0.0659567118 -0.0206611082 -0.115831494
v -0.155625105 0.0559250042 -0.116376534
v -0.111744836 0.076638706 -0.116376519
v -0.098935023 -0.0645413622 -0.3881073
v -0.100025222 0.0518367514 -0.387834698
v -0.143905491 0.0311230533 -0.387834698
v -0.0550547391 -0.0438276604 -0.3881073
v -0.143905491 0.0311230533 -0.387834698
v -0.100570329 0.0529269651 -0.254013509
v -0.144723162 0.0322132669 -0.254013538
v -0.100025222 0.0518367514 -0.387834698
v -0.112289906 0.0774563253 -0.253740937
v -0.156170189 0.0567426234 -0.253740937
v -0.156170189 0.0567426234 -0.253740937
v -0.111744836 0.076638706 -0.116376519
v -0.155625105 0.0559250042 -0.116376534
v -0.112289906 0.0774563253 -0.253740937
v 0.0929389521 0.249434263 -0.0730414242
v 0.0929389521 0.300945997 -0.0730414242
v 0.0929389596 0.300945997 -0.13763538
v 0.0613233596 0.0706426203 -0.13763538
v 0.0422449484 0.0690073818 0.0337975025
v 0.064321354 0.249434263 0.124556065
v 0.0536919571 0.107436575 0.124556065
v 0.0498762876 -0.135403991 0.113109082
v 0.0659566149 -0.0424650162 0.249110669
v 0.0640487969 -0.191276401 0.116924733
v 0.0654115379 -0.19345668 0.156171709
v 0.0662291497 -0.0997000858 0.285087109
v -0.0858527422 0.300945997 -0.073041454
v 0.0929389596 0.300945997 -0.13763538
v 0.0929389521 0.300945997 -0.0730414242
v -0.0858527347 0.300945997 -0.13763541
v -0.0858527422 0.249434263 -0.073041454
v 0.0929389521 0.249434263 -0.0730414242
v -0.0572352074 0.249434263 0.124556065
v 0.064321354 0.249434263 0.124556065
v -0.0466058217 0.107436575 0.124556065
v 0.064321354 0.249434263 0.124556065
v 0.0536919571 0.107436575 0.124556065
v -0.0572352074 0.249434263 0.124556065
v 0.0659566149 -0.0424650162 0.249110669
v -0.0585979633 -0.0424650162 0.249110669
v -0.0591430701 -0.0997000858 0.285087109
v 0.0662291497 -0.0997000858 0.285087109
v 0.0613233596 0.0706426203 -0.13763538
v -0.0348862261 0.0690073818 0.0337975025
v 0.0422449484 0.0690073818 0.0337975025
v -0.0542371348 0.0706426203 -0.13763541
v -0.042790141 -0.135403991 0.113109082
v 0.0498762876 -0.135403991 0.113109082
v -0.0566901118 -0.191276401 0.116924733
v 0.0640487969 -0.191276401 0.116924733
v -0.0591430701 -0.0997000858 0.285087109
v 0.0654115379 -0.19345668 0.156171709
v -0.0583254024 -0.19345668 0.156171709
v 0.0662291497 -0.0997000858 0.285087109
v -0.0566901118 -0.191276401 0.116924733
v 0.0640487969 -0.191276401 0.116924733
v -0.0858527422 0.249434263 -0.073041454
v -0.0858527347 0.300945997 -0.13763541
v -0.0858527422 0.300945997 -0.073041454
v -0.0542371348 0.0706426203 -0.13763541
v -0.0348862261 0.0690073818 0.0337975025
v -0.0572352074 0.249434263 0.124556065
v -0.0466058217 0.107436575 0.124556065
v -0.042790141 -0.135403991 0.113109082
v -0.0585979633 -0.0424650162 0.249110669
v -0.0566901118 -0.191276401 0.116924733
v -0.0583254024 -0.19345668 0.156171709
v -0.0591430701 -0.0997000858 0.285087109
v 0.0618685111 0.288408786 -0.512934327
v 0.0504214726 0.396337807 -0.485407054
v 0.0504214764 0.402333885 -0.512934327
v 0.0618685074 0.294404715 -0.485407054
v 0.0504214242 0.396337807 -0.176882356
v 0.061868459 0.294404715 -0.176882356
v 0.0504214205 0.402333885 -0.150172576
v 0.0618684553 0.288408786 -0.150172576
v -0.0425175019 0.402333885 -0.512934327
v 0.0618685111 0.288408786 -0.512934327
v 0.0504214764 0.402333885 -0.512934327
v -0.0539645255 0.288408786 -0.512934327
v -0.0425175056 0.396337807 -0.485407084
v 0.0504214764 0.402333885 -0.512934327
v 0.0504214726 0.396337807 -0.485407054
v -0.0425175019 0.402333885 -0.512934327
v -0.042517554 0.396337807 -0.176882371
v 0.0504214242 0.396337807 -0.176882356
v -0.0425175577 0.402333885 -0.150172591
v 0.0504214205 0.402333885 -0.150172576
v -0.0539645813 0.288408786 -0.150172591
v 0.0504214205 0.402333885 -0.150172576
v 0.0618684553 0.288408786 -0.150172576
v -0.0425175577 0.402333885 -0.150172591
v -0.0425175056 0.396337807 -0.485407084
v -0.0539645255 0.288408786 -0.512934327
v -0.0425175019 0.402333885 -0.512934327
v -0.0536919869 0.294404715 -0.485407114
v -0.042517554 0.396337807 -0.176882371
v -0.0536920354 0.294404715 -0.176882371
v -0.0425175577 0.402333885 -0.150172591
v -0.0539645813 0.288408786 -0.150172591
v 0.0365214348 0.00196041912 0.00354467332
v -0.0294352677 0.00386825204 0.0667757988
v -0.0294352584 0.00196041912 0.00354467332
v 0.0365214236 0.00386825204 0.0667757988
v 0.0365214385 0.0136799887 -0.019076854
v -0.0294352546 0.0136799887 -0.019076854
v 0.0365214422 0.0760935172 -0.0392453671
v -0.0294352528 0.0760935172 -0.0392453671
v 0.0365214348 -0.0217513219 -0.00245141983
v 0.0365214236 -0.0201159194 0.0749523044
v -0.0294352695 -0.0201159194 0.0749523044
v -0.0294352584 -0.0217513219 -0.00245141983
v 0.0365214422 -0.00158264488 -0.0373375416
v -0.0294352528 -0.00158264488 -0.0373375416
v 0.036521446 0.076638706 -0.0648649335
v -0.0294352472 0.076638706 -0.0648649335
v -0.0294352677 0.00386825204 0.0667757988
v -0.0294352584 -0.0217513219 -0.00245141983
v -0.0294352584 0.00196041912 0.00354467332
v -0.0294352695 -0.0201159194 0.0749523044
v -0.0294352546 0.0136799887 -0.019076854
v -0.0294352528 -0.00158264488 -0.0373375416
v -0.0294352472 0.076638706 -0.0648649335
v -0.0294352528 0.0760935172 -0.0392453671
v 0.0452430621 -0.192094028 -0.522201061
v 0.069227308 0.0281250142 -0.541551948
v 0.0367940739 -0.148486197 -0.579981327
v 0.0874880403 0.0281250142 -0.426809043
v 0.0438803434 -0.237882107 -0.679188967
v 0.0359764434 -0.198362529 -0.687637866
v -0.0637762621 0.0281250142 -0.541551948
v 0.0367940739 -0.148486197 -0.579981327
v 0.069227308 0.0281250142 -0.541551948
v -0.0313430056 -0.148486197 -0.579981327
v 0.0359764434 -0.198362529 -0.687637866
v -0.0302527975 -0.198362529 -0.687637866
v 0.0438803434 -0.237882107 -0.679188967
v -0.0381566994 -0.237882107 -0.679188967
v -0.0395194702 -0.192094028 -0.522201061
v 0.0874880403 0.0281250142 -0.426809043
v 0.0452430621 -0.192094028 -0.522201061
v -0.0820370167 0.0281250142 -0.426809072
v -0.0381566994 -0.237882107 -0.679188967
v 0.0438803434 -0.237882107 -0.679188967
v -0.0395194702 -0.192094028 -0.522201061
v -0.0637762621 0.0281250142 -0.541551948
v -0.0820370167 0.0281250142 -0.426809072
v -0.0313430056 -0.148486197 -0.579981327
v -0.0381566994 -0.237882107 -0.679188967
v -0.0302527975 -0.198362529 -0.687637866
v 0.0596881472 0.160856128 -0.712439775
v 0.0504215099 0.244800985 -0.743237674
v 0.0504215099 0.167942435 -0.743237674
v 0.0596881472 0.251887262 -0.712439775
v -0.00081757782 0.142050266 -0.712439775
v -0.000817573164 0.15186201 -0.743237674
v -0.00081757782 0.270965576 -0.712439775
v -0.000817573164 0.260881394 -0.743237674
v -0.000817603897 0.270965576 -0.53937149
v 0.0596881211 0.251887262 -0.53937149
v 0.0596881211 0.160856128 -0.53937149
v -0.000817603897 0.142050266 -0.53937149
v -0.052056659 0.244800985 -0.743237674
v -0.0613233037 0.160856128 -0.712439775
v -0.052056659 0.167942435 -0.743237674
v -0.0613233037 0.251887262 -0.712439775
v -0.00081757782 0.142050266 -0.712439775
v -0.000817573164 0.15186201 -0.743237674
v -0.00081757782 0.270965576 -0.712439775
v -0.000817573164 0.260881394 -0.743237674
v -0.000817603897 0.270965576 -0.53937149
v -0.0613233298 0.251887262 -0.53937149
v -0.0613233298 0.160856128 -0.53937149
v -0.000817603897 0.142050266 -0.53937149
v -0.000817575085 0.302853823 -0.730427921
v 0.0910312384 0.274508804 -0.917941213
v 0.0910312086 0.274508804 -0.730427921
v -0.000817546737 0.302853823 -0.917941213
v 0.0910312086 0.138507202 -0.730427921
v 0.0910312384 0.138507202 -0.917941213
v -0.000817546737 0.109889597 -0.917941213
v -0.000817575085 0.109889597 -0.730427921
v 0.0727704987 0.260881394 -0.931296051
v -0.000817544758 0.283502936 -0.931296051
v 0.0727704987 0.152134597 -0.931296051
v -0.000817544758 0.129240483 -0.931296051
v -0.000817542546 0.302853823 -0.945741057
v 0.0727704987 0.260881394 -0.931296051
v -0.000817544758 0.283502936 -0.931296051
v 0.0910312384 0.274508804 -0.945741057
v 0.0727704987 0.152134597 -0.931296051
v 0.0910312384 0.138234615 -0.945741057
v -0.000817542546 0.109889597 -0.945741057
v -0.000817544758 0.129240483 -0.931296051
v 0.0910312459 0.274508804 -0.966727376
v -0.000817542546 0.302853823 -0.945741057
v -0.000817539403 0.302853823 -0.966727376
v 0.0910312459 0.138507202 -0.966727376
v -0.000817542546 0.109889597 -0.945741057
v -0.000817539403 0.109889597 -0.966727376
v -0.000817575085 0.109889597 -0.730427921
v 0.0910312086 0.274508804 -0.730427921
v 0.0910312086 0.138507202 -0.730427921
v -0.000817575085 0.302853823 -0.730427921
v -0.0926663578 0.274508804 -0.730427921
v -0.0926663578 0.138507202 -0.730427921
v -0.000817539403 0.109889597 -0.966727376
v -0.0926663205 0.274508804 -0.966727376
v -0.0926663205 0.138507202 -0.966727376
v -0.000817539403 0.302853823 -0.966727376
v 0.0910312459 0.138507202 -0.966727376
v 0.0910312459 0.274508804 -0.966727376
v -0.092666328 0.274508804 -0.917941213
v -0.000817575085 0.302853823 -0.730427921
v -0.0926663578 0.274508804 -0.730427921
v -0.000817546737 0.302853823 -0.917941213
v -0.0926663578 0.138507202 -0.730427921
v -0.092666328 0.138507202 -0.917941213
v -0.000817546737 0.109889597 -0.917941213
v -0.000817575085 0.109889597 -0.730427921
v -0.0741330385 0.260881394 -0.931296051
v -0.000817544758 0.283502936 -0.931296051
v -0.0741330385 0.152134597 -0.931296051
v -0.000817544758 0.129240483 -0.931296051
v -0.000817542546 0.302853823 -0.945741057
v -0.0741330385 0.260881394 -0.931296051
v -0.092666328 0.274508804 -0.945741057
v -0.000817544758 0.283502936 -0.931296051
v -0.0741330385 0.152134597 -0.931296051
v -0.092666328 0.138234615 -0.945741057
v -0.000817542546 0.109889597 -0.945741057
v -0.000817544758 0.129240483 -0.931296051
v -0.0926663205 0.274508804 -0.966727376
v -0.000817542546 0.302853823 -0.945741057
v -0.000817539403 0.302853823 -0.966727376
v -0.0926663205 0.138507202 -0.966727376
v -0.000817542546 0.109889597 -0.945741057
v -0.000817539403 0.109889597 -0.966727376
vt 0.601800025 0.766499996
vt 0.652899981 0.877600014
vt 0.653900027 0.753499985
vt 0.600899994 0.877099991
vt 0.600000024 0.980799973
vt 0.651899993 0.991100013
vt 0.601800025 0.766499996
vt 0.652899981 0.877600014
vt 0.600899994 0.877099991
vt 0.653900027 0.753499985
vt 0.600000024 0.980799973
vt 0.651899993 0.991100013
vt 0.991699994 0.556800008
vt 0.887000024 0.509800017
vt 0.886600018 0.555700004
vt 0.9921 0.510900021
vt 0.992900014 0.603699982
vt 0.883099973 0.561800003
vt 0.882799983 0.602800012
vt 0.993300021 0.562699974
vt 0.704100013 0.692399979
vt 0.807299972 0.634500027
vt 0.67900002 0.633400023
vt 0.781099975 0.693000019
vt 0.782199979 0.570200026
vt 0.705200016 0.569500029
vt 0.566100001 0.547800004
vt 0.645099998 0.504599988
vt 0.586099982 0.504100025
vt 0.664300025 0.548600018
vt 0.585399985 0.588999987
vt 0.644400001 0.58950001
vt 0.603999972 0.792400002
vt 0.432000011 0.879299998
vt 0.603200018 0.880800009
vt 0.432700008 0.790899992
vt 0.431300014 0.967700005
vt 0.602500021 0.969200015
vt 0.603200018 0.880800009
vt 0.432700008 0.790899992
vt 0.432000011 0.879299998
vt 0.603999972 0.792400002
vt 0.431300014 0.967700005
vt 0.602500021 0.969200015
vt 0.877900004 0.602199972
vt 0.818899989 0.504800022
vt 0.818099976 0.601700008
vt 0.878700018 0.505299985
vt 0.812399983 0.695100009
vt 0.9551 0.608799994
vt 0.813199997 0.607599974
vt 0.954299986 0.69630003
vt 0.432500005 0.768299997
vt 0.397599995 0.874300003
vt 0.431600004 0.874599993
vt 0.398499995 0.768000007
vt 0.396699995 0.981299996
vt 0.430700004 0.981599987
vt 0.431600004 0.874599993
vt 0.398499995 0.768000007
vt 0.397599995 0.874300003
vt 0.432500005 0.768299997
vt 0.396699995 0.981299996
vt 0.430700004 0.981599987
vt 0.993700027 0.608799994
vt 0.965200007 0.705299973
vt 0.992900014 0.705600023
vt 0.966000021 0.60860002
vt 0.669399977 0.506299973
vt 0.809700012 0.562699974
vt 0.810100019 0.507799983
vt 0.66900003 0.561200023
vt 0.252999991 0.581799984
vt 0.343300015 0.635999978
vt 0.313800007 0.581799984
vt 0.223299995 0.635800004
vt 0.252799988 0.689700007
vt 0.313600004 0.689800024
vt 0.591899991 0.694800019
vt 0.677399993 0.644800007
vt 0.649100006 0.695299983
vt 0.564400017 0.64380002
vt 0.592800021 0.593200028
vt 0.649999976 0.593699992
vt 0.275299996 0.973699987
vt 0.355599999 0.935299993
vt 0.233700007 0.935800016
vt 0.355800003 0.97329998
vt 0.351599991 0.985400021
vt 0.279199988 0.985800028
vt 0.233799994 0.973800004
vt 0.233700007 0.935800016
vt 0.275299996 0.973699987
vt 0.233799994 0.973800004
vt 0.355599999 0.935299993
vt 0.355800003 0.97329998
vt 0.351599991 0.985400021
vt 0.279199988 0.985800028
vt 0.0973000005 0.597100019
vt 0.0491999984 0.522700012
vt 0.0471000001 0.588400006
vt 0.0997999981 0.517199993
vt 0.1105 0.593500018
vt 0.112800002 0.521700025
vt 0.201700002 0.518999994
vt 0.199100003 0.601899981
vt 0.213100001 0.606899977
vt 0.216000006 0.514800012
vt 0.00680000009 0.587199986
vt 0.0491999984 0.522700012
vt 0.00889999978 0.521399975
vt 0.0471000001 0.588400006
vt 0.0819000006 0.842299998
vt 0.0590000004 0.808700025
vt 0.0340000018 0.975399971
vt 0.1087 0.85650003
vt 0.230599999 0.975399971
vt 0.230499998 0.856599987
vt 0.0819000006 0.842299998
vt 0.0340000018 0.975399971
vt 0.0590000004 0.808700025
vt 0.1087 0.85650003
vt 0.230599999 0.975399971
vt 0.230499998 0.856599987
vt 0.0931999981 0.786599994
vt 0.0584000014 0.801900029
vt 0.0772999972 0.813199997
vt 0.0742999986 0.775300026
vt 0.1074 0.795099974
vt 0.0913999975 0.821699977
vt 0.162300006 0.831799984
vt 0.149700001 0.852800012
vt 0.379900008 0.64319998
vt 0.34920001 0.583199978
vt 0.351900011 0.643100023
vt 0.381199986 0.583400011
vt 0.113399997 0.781199992
vt 0.217999995 0.833400011
vt 0.140499994 0.752499998
vt 0.194800004 0.853699982
vt 0.00439999998 0.776600003
vt 0.0294000003 0.983099997
vt 0.0590999983 0.776300013
vt 0.00540000014 0.983200014
vt 0.00439999998 0.776600003
vt 0.0294000003 0.983099997
vt 0.00540000014 0.983200014
vt 0.0590999983 0.776300013
vt 0.0037 0.608299971
vt 0.0621999986 0.641600013
vt 0.0621000007 0.608200014
vt 0.00380000006 0.641700029
vt 0.0511999987 0.772300005
vt 0.0149999997 0.772300005
vt 0.118600003 0.755299985
vt 0.0680999979 0.608299971
vt 0.0791999996 0.754899979
vt 0.131799996 0.608900011
vt 0.118500002 0.770299971
vt 0.0790999979 0.769999981
vt 0.516600013 0.773699999
vt 0.594799995 0.715499997
vt 0.504199982 0.714900017
vt 0.592700005 0.7755
vt 0.439700007 0.724900007
vt 0.43810001 0.786000013
vt 0.515999973 0.789200008
vt 0.516600013 0.773699999
vt 0.594799995 0.715499997
vt 0.592700005 0.7755
vt 0.504199982 0.714900017
vt 0.439700007 0.724900007
vt 0.43810001 0.786000013
vt 0.515999973 0.789200008
vt 0.389699996 0.506900012
vt 0.318800002 0.542599976
vt 0.389699996 0.542599976
vt 0.318800002 0.506900012
vt 0.2676 0.542599976
vt 0.2676 0.506900012
vt 0.219799995 0.542599976
vt 0.219799995 0.506900012
vt 0.340999991 0.577700019
vt 0.384000003 0.546800017
vt 0.340999991 0.546599984
vt 0.383899987 0.577899992
vt 0.286500007 0.577400029
vt 0.340999991 0.546599984
vt 0.286500007 0.546299994
vt 0.340999991 0.577700019
vt 0.275400013 0.577400029
vt 0.2755 0.546199977
vt 0.219600007 0.577099979
vt 0.2755 0.546199977
vt 0.219600007 0.545899987
vt 0.275400013 0.577400029
vt 0.516600013 0.773699999
vt 0.594799995 0.715499997
vt 0.592700005 0.7755
vt 0.504199982 0.714900017
vt 0.439700007 0.724900007
vt 0.43810001 0.786000013
vt 0.515999973 0.789200008
vt 0.516600013 0.773699999
vt 0.594799995 0.715499997
vt 0.504199982 0.714900017
vt 0.592700005 0.7755
vt 0.439700007 0.724900007
vt 0.43810001 0.786000013
vt 0.515999973 0.789200008
vt 0.318800002 0.542599976
vt 0.389699996 0.506900012
vt 0.389699996 0.542599976
vt 0.318800002 0.506900012
vt 0.2676 0.542599976
vt 0.2676 0.506900012
vt 0.219799995 0.542599976
vt 0.219799995 0.506900012
vt 0.384000003 0.546800017
vt 0.340999991 0.577700019
vt 0.340999991 0.546599984
vt 0.383899987 0.577899992
vt 0.340999991 0.546599984
vt 0.286500007 0.577400029
vt 0.286500007 0.546299994
vt 0.340999991 0.577700019
vt 0.275400013 0.577400029
vt 0.2755 0.546199977
vt 0.2755 0.546199977
vt 0.219600007 0.577099979
vt 0.219600007 0.545899987
vt 0.275400013 0.577400029
vt 0.357300013 0.933700025
vt 0.357300013 0.963400006
vt 0.39320001 0.963400006
vt 0.39320001 0.820800006
vt 0.287299991 0.82130003
vt 0.234300002 0.933700025
vt 0.234300002 0.847100019
vt 0.233500004 0.697899997
vt 0.151700005 0.758099973
vt 0.228100002 0.662899971
vt 0.203899994 0.662699997
vt 0.127800003 0.72420001
vt 0.145899996 0.640799999
vt 0.158000007 0.688399971
vt 0.171800002 0.67900002
vt 0.131999999 0.650200009
vt 0.156200007 0.63380003
vt 0.1822 0.671999991
vt 0.202700004 0.611199975
vt 0.220300004 0.637199998
vt 0.442499995 0.610000014
vt 0.487899989 0.668099999
vt 0.483599991 0.610000014
vt 0.438199997 0.668099999
vt 0.488499999 0.530399978
vt 0.437599987 0.530399978
vt 0.437400013 0.502699971
vt 0.488700002 0.502699971
vt 0.391200006 0.656400025
vt 0.423000008 0.601400018
vt 0.398099989 0.601100028
vt 0.428499997 0.656899989
vt 0.426499993 0.530600011
vt 0.396499991 0.530200005
vt 0.431300014 0.512600005
vt 0.39230001 0.512000024
vt 0.50880003 0.672100008
vt 0.562300026 0.710399985
vt 0.5625 0.672599971
vt 0.508700013 0.710500002
vt 0.575699985 0.673099995
vt 0.575600028 0.709999979
vt 0.357300013 0.933700025
vt 0.39320001 0.963400006
vt 0.357300013 0.963400006
vt 0.39320001 0.820800006
vt 0.287299991 0.82130003
vt 0.234300002 0.933700025
vt 0.234300002 0.847100019
vt 0.233500004 0.697899997
vt 0.151700005 0.758099973
vt 0.228100002 0.662899971
vt 0.203899994 0.662699997
vt 0.127800003 0.72420001
vt 0.999100029 0.997399986
vt 0.936699986 0.984700024
vt 0.933700025 0.997399986
vt 0.996200025 0.984700024
vt 0.936699986 0.842800021
vt 0.996200025 0.842800021
vt 0.933700025 0.830500007
vt 0.999100029 0.830500007
vt 0.981999993 0.821799994
vt 0.936600029 0.776499987
vt 0.941600025 0.82190001
vt 0.986800015 0.77640003
vt 0.875800014 0.98119998
vt 0.918799996 0.993900001
vt 0.918799996 0.98119998
vt 0.875800014 0.993900001
vt 0.875800014 0.842800021
vt 0.918799996 0.842800021
vt 0.875800014 0.830500007
vt 0.918799996 0.830500007
vt 0.87620002 0.777700007
vt 0.918299973 0.8204
vt 0.922999978 0.777700007
vt 0.880699992 0.820299983
vt 0.936699986 0.984700024
vt 0.999100029 0.997399986
vt 0.933700025 0.997399986
vt 0.996200025 0.984700024
vt 0.936699986 0.842800021
vt 0.996200025 0.842800021
vt 0.933700025 0.830500007
vt 0.999100029 0.830500007
vt 0.918500006 0.751900017
vt 0.878300011 0.773100019
vt 0.918500006 0.773100019
vt 0.878300011 0.752399981
vt 0.932799995 0.751900017
vt 0.932799995 0.773100019
vt 0.960699975 0.751900017
vt 0.960699975 0.773100019
vt 0.915300012 0.73119998
vt 0.870700002 0.73119998
vt 0.870700002 0.709299982
vt 0.915300012 0.709299982
vt 0.937600017 0.73119998
vt 0.937600017 0.709299982
vt 0.970300019 0.73119998
vt 0.970300019 0.709299982
vt 0.878300011 0.752399981
vt 0.915300012 0.73119998
vt 0.918500006 0.751900017
vt 0.870700002 0.73119998
vt 0.932799995 0.751900017
vt 0.937600017 0.73119998
vt 0.970300019 0.73119998
vt 0.960699975 0.751900017
vt 0.3926 0.672200024
vt 0.359400004 0.818199992
vt 0.421900004 0.711600006
vt 0.284500003 0.795700014
vt 0.502600014 0.671800017
vt 0.500800014 0.699299991
vt 0.565500021 0.666800022
vt 0.509899974 0.58069998
vt 0.491600007 0.666499972
vt 0.547800004 0.580799997
vt 0.510699987 0.524399996
vt 0.547399998 0.524500012
vt 0.506399989 0.505299985
vt 0.551999986 0.505400002
vt 0.323399991 0.689300001
vt 0.294400007 0.777499974
vt 0.343499988 0.710200012
vt 0.254299998 0.735800028
vt 0.363900006 0.650900006
vt 0.383300006 0.67110002
vt 0.3926 0.672200024
vt 0.359400004 0.818199992
vt 0.284500003 0.795700014
vt 0.421900004 0.711600006
vt 0.502600014 0.671800017
vt 0.500800014 0.699299991
vt 0.769800007 0.906700015
vt 0.790600002 0.956499994
vt 0.790600002 0.908200026
vt 0.769800007 0.958000004
vt 0.769800007 0.870899975
vt 0.790600002 0.87470001
vt 0.769800007 0.993799984
vt 0.790600002 0.989899993
vt 0.66170001 0.995000005
vt 0.661199987 0.958500028
vt 0.661199987 0.906099975
vt 0.66170001 0.869599998
vt 0.790600002 0.956499994
vt 0.769800007 0.906700015
vt 0.790600002 0.908200026
vt 0.769800007 0.958000004
vt 0.769800007 0.870899975
vt 0.790600002 0.87470001
vt 0.769800007 0.993799984
vt 0.790600002 0.989899993
vt 0.66170001 0.995000005
vt 0.661199987 0.958500028
vt 0.661199987 0.906099975
vt 0.66170001 0.869599998
vt 0.658699989 0.860300004
vt 0.811800003 0.838800013
vt 0.658699989 0.838800013
vt 0.811800003 0.860300004
vt 0.658699989 0.723800004
vt 0.811800003 0.723800004
vt 0.811800003 0.699699998
vt 0.658699989 0.699699998
vt 0.824000001 0.827300012
vt 0.824000001 0.846499979
vt 0.824000001 0.735300004
vt 0.824000001 0.716099977
vt 0.836600006 0.859200001
vt 0.824000001 0.827300012
vt 0.824000001 0.846499979
vt 0.836600006 0.838800013
vt 0.824000001 0.735300004
vt 0.836600006 0.723699987
vt 0.836600006 0.699699998
vt 0.824000001 0.716099977
vt 0.853900015 0.838800013
vt 0.836600006 0.859200001
vt 0.853900015 0.859099984
vt 0.853900015 0.723800004
vt 0.836600006 0.699699998
vt 0.853900015 0.699699998
vt 0.824199975 0.934300005
vt 0.854399979 0.987299979
vt 0.853999972 0.943300009
vt 0.824800014 0.996699989
vt 0.795000017 0.987800002
vt 0.79460001 0.943799973
vt 0.832599998 0.86500001
vt 0.864899993 0.922999978
vt 0.864899993 0.875
vt 0.832599998 0.933000028
vt 0.800199986 0.875
vt 0.800199986 0.922999978
vt 0.811800003 0.838800013
vt 0.658699989 0.860300004
vt 0.658699989 0.838800013
vt 0.811800003 0.860300004
vt 0.658699989 0.723800004
vt 0.811800003 0.723800004
vt 0.811800003 0.699699998
vt 0.658699989 0.699699998
vt 0.824000001 0.827300012
vt 0.824000001 0.846499979
vt 0.824000001 0.735300004
vt 0.824000001 0.716099977
vt 0.836600006 0.859200001
vt 0.824000001 0.827300012
vt 0.836600006 0.838800013
vt 0.824000001 0.846499979
vt 0.824000001 0.735300004
vt 0.836600006 0.723699987
vt 0.836600006 0.699699998
vt 0.824000001 0.716099977
vt 0.853900015 0.838800013
vt 0.836600006 0.859200001
vt 0.853900015 0.859099984
vt 0.853900015 0.723800004
vt 0.836600006 0.699699998
vt 0.853900015 0.699699998
vn 0.919969758 -0.388866675 0.049379676
vn 0.998811389 -5.45676992e-17 0.0487422731
vn 0.924373931 -0.369749715 0.0939041249
vn 1 0 1.73566273e-07
vn 0.908792704 0.415368419 0.0395587888
vn 0.913688883 0.399236557 0.0760447023
vn -0.919969755 -0.388866709 0.0493794751
vn -0.9988114 -5.45677377e-17 0.0487420519
vn -1 0 -1.73566394e-07
vn -0.924373939 -0.369749718 0.0939040305
vn -0.908792697 0.415368454 0.039558583
vn -0.91368889 0.399236561 0.0760445971
vn -3.01073855e-08 -0.969231152 0.246152339
vn -3.01073855e-08 -0.969231152 0.246152339
vn 0 -0.969231172 0.246152258
vn -6.02147906e-08 -0.969231132 0.246152419
vn -2.28859378e-08 0.982338751 0.187111136
vn -2.28859378e-08 0.982338751 0.187111136
vn -4.57718603e-08 0.982338763 0.187111074
vn 0 0.98233874 0.187111199
vn 0 5.97286127e-16 -1
vn 0 3.54949723e-16 -1
vn 0 2.17368834e-16 -1
vn 0 5.97286127e-16 -1
vn 0 0 -1
vn 0 0 -1
vn -1.69930983e-07 2.59423247e-08 1
vn -1.83468005e-07 -7.84825485e-15 1
vn -2.44624005e-07 -1.09620972e-07 1
vn -1.68770232e-07 2.63454809e-08 1
vn -1.83468005e-07 8.063368e-15 1
vn -2.44624005e-07 -1.17199247e-07 1
vn 0.917968567 -0.396653136 1.50445262e-07
vn 0.989245093 -0.146267375 1.65538207e-07
vn 0.988660426 0.150168444 1.65828033e-07
vn 0.917968575 -0.396653117 1.40415573e-07
vn 0.905563001 0.4242118 1.48412122e-07
vn 0.905562992 0.424211819 1.38517973e-07
vn -1 1.71261397e-17 -1.63889343e-07
vn -0.917968551 -0.396653173 -1.50445263e-07
vn -1 0 -1.74815296e-07
vn -0.917968543 -0.396653192 -1.40415581e-07
vn -0.905562983 0.424211839 -1.48412122e-07
vn -0.905562974 0.424211858 -1.38517983e-07
vn 1.65845047e-23 -1 -2.23862968e-16
vn 1.65845047e-23 -1 -2.23862968e-16
vn 0 -1 -2.23862958e-16
vn 3.31690108e-23 -1 -2.23862978e-16
vn -1.2061458e-23 1 1.62809431e-16
vn -1.2061458e-23 1 1.62809431e-16
vn -2.41229149e-23 1 1.62809424e-16
vn 0 1 1.62809438e-16
vn 0.884674495 -0.466209221 -4.82494143e-17
vn 0.984489587 -0.17544302 -3.63142746e-17
vn 0.984040984 0.177941964 3.05280712e-16
vn 0.884674495 -0.466209221 -9.64988501e-17
vn 0.876001132 0.482309046 4.13729321e-16
vn 0.876001132 0.482309046 8.27458826e-16
vn -1 -7.69918113e-17 2.30975434e-16
vn -0.884674527 -0.466209161 0
vn -1 0 0
vn -0.884674527 -0.466209161 0
vn -0.876001166 0.482308985 4.13729337e-16
vn -0.876001166 0.482308985 8.27458858e-16
vn 3.3186655e-23 -1 -2.06986146e-16
vn 3.3186655e-23 -1 -2.06986146e-16
vn 3.3186655e-23 -1 -2.06986146e-16
vn 3.3186655e-23 -1 -2.06986146e-16
vn -2.6549324e-22 1 1.65588917e-15
vn -2.6549324e-22 1 1.65588917e-15
vn -2.6549324e-22 1 1.65588917e-15
vn -2.6549324e-22 1 1.65588917e-15
vn -1.61755818e-07 6.77637818e-15 1
vn -1.61755818e-07 -2.06482658e-16 1
vn -1.60332735e-07 -2.29047862e-09 1
vn -1.62476875e-07 -2.06482661e-16 1
vn -1.61755818e-07 -7.50201143e-15 1
vn -1.60332735e-07 2.39303777e-09 1
vn 1.61755818e-07 9.06691057e-08 -1
vn 1.61755818e-07 2.47779198e-16 -1
vn 1.60332735e-07 8.82760604e-08 -1
vn 1.62476875e-07 2.47779193e-16 -1
vn 1.61755818e-07 -8.67832564e-08 -1
vn 1.60332735e-07 -8.4492771e-08 -1
vn 0.996169547 0.0284237504 0.0826941598
vn 0.996310336 -0.0387520484 0.0765767147
vn 0.993866189 -0.0482916086 0.0994882877
vn 0.994789125 0.08166959 0.0610301099
vn 0.942226902 0.330018072 0.0574154772
vn 0.943308257 0.326980529 0.0570374054
vn 0.990507544 -3.02607619e-17 0.137458377
vn -0.993904069 -0.0495689371 0.098476507
vn -0.996282981 0.0277101473 0.0815620608
vn -0.990507597 -3.5893172e-17 0.137457997
vn -0.996393316 -0.0397788466 0.0749533457
vn -0.995199682 0.0780657003 0.059019823
vn -0.942226876 0.330018201 0.0574151676
vn -0.937893815 0.341887497 0.058890837
vn 0 0.99224392 0.124306087
vn 0 1 0
vn 0 1 0
vn 0 0.933031469 0.359794773
vn 0 0.991950676 0.126624864
vn 0 0.991661279 0.128871668
vn 3.63207568e-08 0.99005653 -0.140670066
vn 3.43234181e-08 0.992046521 -0.125871757
vn 2.22063444e-07 0.510209179 -0.860050344
vn 2.10860684e-07 0.510209238 -0.860050309
vn 0 -2.61121017e-16 1
vn 0 -2.61121017e-16 1
vn 0 -2.61121017e-16 1
vn 0 -2.61121017e-16 1
vn 0.999612577 0.020040315 0.0193153302
vn 0.999507472 0.0176393154 0.0259551288
vn 0.999120969 0.039542787 -0.013916109
vn 0.998867914 0.0364026617 -0.030622482
vn 0.998652449 0.0379402023 -0.0354094313
vn 0.998493422 0.0233485371 -0.0496561329
vn -0.999646984 0.0191300431 0.018437725
vn -0.999166025 0.0382983472 -0.0141594844
vn -0.999551206 0.0168382418 0.0247762093
vn -0.998911399 0.0355372462 -0.0302178861
vn -0.998702247 0.0370935805 -0.0348982673
vn -0.998559058 0.0233501095 -0.048317498
vn 0 -0.664734988 -0.747079244
vn 0 -0.562089795 -0.827076213
vn 0 -0.776316559 -0.63034324
vn 0 -0.562089795 -0.827076213
vn 0 -0.98708184 -0.160216856
vn 0 -0.998314116 -0.0580424437
vn 0 -1 -2.05317032e-16
vn 0 -1 -2.05317032e-16
vn 0 2.1011826e-16 -1
vn 0 2.1011826e-16 -1
vn 0 2.1011826e-16 -1
vn 0 2.1011826e-16 -1
vn 0 1 3.38892678e-16
vn 0 1 3.38892678e-16
vn 0 1 3.38892678e-16
vn 0 1 3.38892678e-16
vn 0.995786931 0.0916972597 1.43573527e-07
vn 0.995786931 0.0916972597 1.43573527e-07
vn 0.995786931 0.0916972615 1.61552176e-07
vn 0.995786932 0.0916972551 9.93486811e-08
vn -0.995786929 0.0916972813 -1.43573527e-07
vn -0.995786929 0.0916972813 -1.43573527e-07
vn -0.995786929 0.0916972859 -9.93486808e-08
vn -0.995786929 0.0916972795 -1.61552175e-07
vn 0 -1 -2.26640635e-16
vn 0 -0.456399419 0.889775011
vn 0 -1 -2.26640635e-16
vn 0 -0.156584264 0.987664603
vn 0 -1.5500346e-16 1
vn 0 -1.5500346e-16 1
vn 0 0.188573084 -0.982059159
vn 0 0.150474075 -0.988613955
vn 0 0.339328044 -0.940668102
vn 0 0.150474075 -0.988613955
vn 0 1 0
vn 0 1 0
vn 0.904230021 -0.427045744 4.49357821e-05
vn 0.904115105 -0.427288784 -0.000414187577
vn 0.904289366 -0.426920049 0.00011679986
vn 0.903999991 -0.427532427 -0.000199080582
vn 0.904089245 -0.427343171 0.000672152566
vn 0.904313867 -0.426868147 0.000120294665
vn 0.906185837 -0.422879074 -0.000718913727
vn -0.904466446 0.426544506 -0.000481018746
vn -0.904115085 0.427288827 0.000414186045
vn -0.903999971 0.42753247 0.000199080156
vn -0.904289347 0.426920091 -0.000116816554
vn -0.904627673 0.426200382 -0.00141673348
vn -0.905094171 0.425208299 -0.00156332323
vn -0.906178124 0.422894838 -0.00107890872
vn -0.426726501 -0.903985329 0.0267398324
vn -0.425861123 -0.902152148 0.0690203282
vn -0.426726579 -0.903985291 0.0267398585
vn -0.423742777 -0.897664657 0.120996785
vn -0.355006387 -0.752052142 0.555326968
vn -0.182007391 -0.385555801 0.904555158
vn 0.00215672783 0.00458340032 0.99998717
vn 0.00215232703 0.00458856841 0.999987156
vn 0.00109951937 0.00232924181 -0.999996683
vn 0.00109951937 0.00232924181 -0.999996683
vn 0.00109951932 0.00232924181 -0.999996683
vn 0.00109951943 0.00232924181 -0.999996683
vn 0.424313725 0.898873944 -0.109469157
vn 0.426861489 0.904271175 -0.00910556841
vn 0.394696482 0.836131968 -0.380917338
vn 0.426861489 0.904271175 -0.00910556841
vn 0.00429882833 0.00910599782 -0.999949299
vn 0.00429934104 0.00910636533 -0.999949294
vn 0.425788038 0.904798478 0.00665282364
vn 0.425788038 0.904798478 0.00665282364
vn 0.424712415 0.905306873 0.00623131651
vn 0.426868438 0.90428605 0.00707645979
vn -0.904696392 -0.426056845 5.07581782e-05
vn -0.904574699 -0.426313251 -0.00127531408
vn -0.904994201 -0.425418894 -0.00206387693
vn -0.904289311 -0.426920166 0.000116539842
vn -0.904627682 -0.426200363 0.00141644133
vn -0.905094209 -0.42520822 0.00156309893
vn -0.9061781 -0.42289489 0.00107871183
vn 0.904459549 0.4265594 -3.98395458e-05
vn 0.904661362 0.426131035 -0.00040235698
vn 0.904289372 0.426920037 -0.000116526374
vn 0.904994024 0.425424221 0.000220556449
vn 0.904527517 0.426414955 0.00050720174
vn 0.904313915 0.426868047 -0.000120040262
vn 0.902299056 0.431109481 -0.00101432634
vn 0.424506348 -0.902804759 0.0688326023
vn 0.425649356 -0.904503704 0.0263756637
vn 0.426726548 -0.903985303 0.0267399531
vn 0.422231026 -0.89838983 0.120899436
vn 0.354303259 -0.75289909 0.554627948
vn 0.182350198 -0.386294283 0.904170964
vn -0.00216371239 0.00458328734 0.999987156
vn -0.00216382198 0.00458315903 0.999987156
vn -0.00110084994 0.00233206041 -0.999996675
vn -0.00110084994 0.00233206041 -0.999996675
vn -0.00110085003 0.00233206041 -0.999996675
vn -0.00110084985 0.00233206041 -0.999996675
vn -0.425778115 0.904777323 -0.00953900737
vn -0.423185412 0.899270816 -0.110571726
vn -0.392606236 0.836860053 -0.381478171
vn -0.426861548 0.904271146 -0.00910568724
vn -0.00427819113 0.00909186439 -0.999949516
vn -0.00429878611 0.00910662691 -0.999949294
vn -0.426868562 0.904285992 0.00707634456
vn -0.426868562 0.904285992 0.00707634456
vn -0.426868622 0.904285964 0.00707636816
vn -0.426868502 0.904286021 0.00707632095
vn 0.980171923 -0.181341328 0.0798644082
vn 1 -3.10750833e-23 1.15344857e-07
vn 0.989861537 -0.11104822 -0.088557497
vn 0.981647331 -0.187035412 0.037232684
vn 0.988386614 -0.144902355 0.0457734397
vn 0.983772692 -0.160604649 0.0799839781
vn 0.993600648 -0.0226507874 -0.11065575
vn 0.990584901 0.0211911789 -0.135249727
vn 0.993972444 0.0287402619 -0.105795929
vn 0.976274869 0.136672367 -0.167952504
vn 0.99984154 0.00657345791 -0.0165434173
vn 0.999977219 0.000531928856 -0.00672894805
vn -6.17372534e-08 0.928881341 0.370377449
vn -1.43248842e-22 1 8.59386153e-16
vn -1.41224628e-07 0.531206503 0.84724238
vn -1.43248842e-22 1 8.59386153e-16
vn -7.70622435e-08 0.886715264 0.462315953
vn -2.55612645e-08 0.988172168 0.153348512
vn -2.78755712e-23 1 2.80930428e-16
vn 0 1 2.80930449e-16
vn 0 0.394632053 0.918839237
vn 0 -1.95464983e-16 1
vn 0 0.392467773 0.919765757
vn 0 -1.95464983e-16 1
vn 0 0.610403642 0.792090521
vn 0 0.61257198 0.790414809
vn 0 0.532172714 0.846635814
vn 0 0.532172714 0.846635814
vn 1.47521174e-09 -0.99995451 -0.0095382168
vn 1.15141506e-09 -0.925005905 -0.379952728
vn 0 -0.608189556 -0.793791826
vn 2.45984579e-09 -0.99995451 -0.00953821624
vn 0 -0.327402199 -0.944885072
vn 0 -0.255702602 -0.966755491
vn 0 -0.0681335231 -0.997676212
vn 0 -0.0681335231 -0.997676212
vn 0 -0.808736264 0.58817145
vn 0 -0.877255816 0.480023159
vn 0 -0.878221647 0.478253844
vn 0 -0.808736264 0.58817145
vn 0 -0.998460507 -0.0554672482
vn 0 -0.998460507 -0.0554672482
vn -0.979980184 -0.182133491 0.0804128755
vn -0.989861517 -0.111048217 -0.0885577236
vn -1 3.10750833e-23 -1.15344857e-07
vn -0.981538905 -0.187393412 0.0382764465
vn -0.988315277 -0.145561301 0.0452196972
vn -0.983661119 -0.161677782 0.0791902582
vn -0.993536822 -0.0226493411 -0.111227651
vn -0.990684169 0.0206130995 -0.134610462
vn -0.994030779 0.0293022803 -0.105091324
vn -0.976274828 0.136672363 -0.167952747
vn -0.999732527 0.0107873827 -0.020457436
vn -0.999951321 0.00379982924 -0.00910587053
vn 0.994422576 0.105469148 4.20040765e-07
vn 0.993862233 0.11062487 1.97927124e-07
vn 0.994754081 0.0999514999 0.0217718888
vn 0.993752897 0.111597949 -0.00103794239
vn 0.993752896 0.111597949 -0.00103928628
vn 0.993859514 0.110649297 1.07756989e-07
vn 0.994422576 0.105469148 -1.55506751e-07
vn 0.994739442 0.0999500289 0.0224373621
vn 0 0 -1
vn 0 0 -1
vn 0 0 -1
vn 0 0 -1
vn -5.28547877e-09 0.999456484 0.0329656857
vn -3.41240472e-08 0.97708866 0.212832681
vn -2.98281368e-09 0.999956736 0.00930194807
vn 0 0.977088636 0.212832791
vn 1.49330057e-09 0.999956626 -0.00931375934
vn 5.30932815e-09 0.999451567 -0.033114435
vn 3.51190468e-08 0.975716212 -0.219038522
vn 3.51190468e-08 0.975716212 -0.219038522
vn -1.42750562e-07 -7.24543146e-15 1
vn -1.42750562e-07 -7.24543146e-15 1
vn -1.28643448e-07 -1.29259141e-08 1
vn -1.60332742e-07 1.61099939e-08 1
vn -0.994126759 0.108219109 0.000781967749
vn -0.994541458 0.104225947 0.00492353745
vn -0.994754097 0.0999514039 0.0217716222
vn -0.994044557 0.10897278 -0.000593527429
vn -0.99404422 0.108972743 -0.00101514517
vn -0.994124697 0.108238024 -0.000785980474
vn -0.994540707 0.104225869 -0.005074495
vn -0.994914804 0.0999675515 0.0122890698
vn 0.208056956 0.97674498 0.0517836603
vn 0 0.999545125 -0.0301586454
vn 0 0.98086401 0.194694104
vn 0.626945082 0.77870908 -0.0234953989
vn 0.570418987 0.497775946 0.653330917
vn 0 0.418712919 0.908118655
vn 0.180519684 0.302436057 0.935919374
vn 0 0.307487667 0.951552066
vn 0.361172897 -0.928820957 -0.0827391582
vn 0.343845694 -0.938816643 0.0198355685
vn 0 -0.999776874 0.0211234996
vn 0 -0.96712072 -0.25431774
vn 0.262260962 -0.612191468 -0.745949592
vn 0 -0.45380188 -0.891102606
vn 0.299718429 -0.316699586 -0.899927906
vn 0 -0.33196056 -0.943293267
vn -1 3.23550445e-08 -1.4650521e-07
vn -1 3.45387001e-08 -1.44520188e-07
vn -1 3.73255512e-08 -1.47605079e-07
vn -1 2.82356842e-08 -1.44980719e-07
vn -1 9.13882987e-09 -1.59775153e-07
vn -1 3.19448601e-08 -1.28703141e-07
vn -1 -4.13626988e-09 -1.68406164e-07
vn -1 -4.09192073e-08 -2.1898279e-07
vn 0.985169657 -0.0719655736 -0.155761689
vn 0.975678139 -0.122250384 -0.181953325
vn 0.989427482 0.0206006099 -0.143557907
vn 0.980377901 -0.120483627 -0.156022008
vn 0.987444392 0.145783561 -0.060833592
vn 0.980156528 0.176916382 -0.0894079097
vn 0 0.212617916 -0.977135416
vn 0 0.36096253 -0.932580319
vn 0 0.212617916 -0.977135416
vn 0 0.67378696 -0.738925661
vn 0 0.830711072 -0.556703794
vn 0 0.539913708 -0.841720374
vn 0 -0.209065781 -0.97790158
vn 0 -0.209065781 -0.97790158
vn -9.28464436e-08 -0.531408629 0.847115618
vn -1.07543316e-07 -0.397480274 0.917610719
vn 0 -0.793280103 0.608856862
vn -1.61314978e-07 -0.397480247 0.917610731
vn 0 -0.960000098 0.279999664
vn 0 -0.960000098 0.279999664
vn -0.985237115 -0.0737561799 -0.154492242
vn -0.975770385 -0.123358497 -0.180706495
vn -0.980233856 -0.121679095 -0.155999315
vn -0.989735539 0.0184958183 -0.141709094
vn -0.987899342 0.142706693 -0.0607428133
vn -0.980039758 0.176412661 -0.0916550345
vn 0.892356259 -0.44457449 -0.0778063637
vn 0.82026058 0.451418763 -0.351274367
vn 0.662403718 -0.662403552 -0.349918346
vn 0.87598892 0.48136055 -0.0305848391
vn 0.296697636 -0.95399111 -0.0432605453
vn 0.286489035 -0.912876134 -0.290828467
vn 0.299687678 0.950948802 -0.0767050998
vn 0.285809051 0.910710259 -0.298194586
vn 0.300719169 0.953712735 4.53108059e-08
vn 0.876398922 0.481585848 1.32051247e-07
vn 0.875894545 -0.482502586 1.3197525e-07
vn 0.296805484 -0.954937959 4.47211115e-08
vn -0.820260515 0.451418742 -0.351274546
vn -0.892356238 -0.444574487 -0.0778066188
vn -0.662403668 -0.662403525 -0.349918492
vn -0.87598891 0.481360552 -0.0305850986
vn -0.29669763 -0.953991108 -0.0432606339
vn -0.286489014 -0.912876115 -0.290828547
vn -0.299687671 0.950948797 -0.0767051882
vn -0.285809029 0.910710239 -0.298194667
vn -0.300719165 0.953712737 -4.53108046e-08
vn -0.876398919 0.481585854 -1.32051246e-07
vn -0.875894542 -0.482502592 -1.3197525e-07
vn -0.296805479 -0.95493796 -4.47211115e-08
vn 0.294882662 0.955533472 4.57228005e-08
vn 0.871452674 0.487030817 -0.0580622196
vn 0.87292533 0.48785384 1.3873791e-07
vn 0.291260983 0.943983081 -0.155122477
vn 0.873269264 -0.487237921 1.38203513e-07
vn 0.87092426 -0.465485363 -0.157525585
vn 0.296431136 -0.951439488 -0.0830149499
vn 0.297468633 -0.954731592 4.49695173e-08
vn 0.443782742 0.248272896 -0.861056007
vn 0.17200644 0.559538215 -0.810759379
vn 0.35505089 -0.366523381 -0.859999696
vn 0.174016586 -0.559337651 -0.810468765
vn 0.181519668 0.589210592 0.787325529
vn 0.374965997 0.388403229 0.84175022
vn 0.180856506 0.588327546 0.788138074
vn 0.724637244 0.318524545 0.611099811
vn 0.469168415 -0.261991837 0.843351218
vn 0.851078477 -0.318836548 0.417143478
vn 0.181574774 -0.586254143 0.789516739
vn 0.182963157 -0.588094416 0.787825768
vn 0.873097462 0.487545712 2.94527196e-07
vn 0.294882666 0.955533471 7.44276869e-08
vn 0.294882659 0.955533473 4.41658792e-08
vn 0.724276653 -0.689494946 -0.00447761827
vn 0.296170767 -0.955114863 -0.00620281973
vn 0.297468628 -0.954731593 4.45531912e-08
vn 0 -6.74977722e-16 1
vn 1.00159254e-18 -6.74977722e-16 1
vn 2.5434669e-16 -8.16330844e-16 1
vn 0 -5.75351736e-16 1
vn -1.00159255e-18 -6.74977722e-16 1
vn -2.54346693e-16 -8.16330844e-16 1
vn -6.56449417e-17 6.38144718e-16 -1
vn 1.00159257e-18 6.74977722e-16 -1
vn 2.54346697e-16 8.16330844e-16 -1
vn -6.62762318e-17 6.3814472e-16 -1
vn -1.00159252e-18 6.74977722e-16 -1
vn 2.51923996e-16 8.16330844e-16 -1
vn -0.871421561 0.487013415 -0.0586719391
vn -0.294882669 0.95553347 -4.57228011e-08
vn -0.872925332 0.487853835 -1.3873791e-07
vn -0.291304228 0.943946356 -0.155264688
vn -0.87326927 -0.487237911 -1.38203514e-07
vn -0.870664916 -0.46534673 -0.159358163
vn -0.296456175 -0.951425344 -0.0830876119
vn -0.297468636 -0.954731591 -4.49695182e-08
vn -0.440873617 0.246239052 -0.863131962
vn -0.172626844 0.559476546 -0.810670073
vn -0.353505216 -0.364326552 -0.861568468
vn -0.174643788 -0.559274556 -0.810377393
vn -0.181536993 0.588296054 0.788005123
vn -0.373417462 0.386161977 0.843468035
vn -0.721410483 0.317106192 0.61563835
vn -0.181506736 0.588255913 0.788042058
vn -0.466232528 -0.259923475 0.845616353
vn -0.84951414 -0.318250521 0.420763985
vn -0.181591259 -0.585341472 0.790189835
vn -0.183620437 -0.588021135 0.787727542
vn -0.873097462 0.487545713 -2.94527196e-07
vn -0.294882665 0.955533471 -7.44276869e-08
vn -0.294882672 0.955533469 -4.41658811e-08
vn -0.724276651 -0.689494945 -0.00447808865
vn -0.296170766 -0.955114863 -0.00620296923
vn -0.297468641 -0.954731589 -4.4553193e-08

g gun15_submesh_0
usemtl M347-Newlambert8
f 1/1/1 3/3/3 2/2/2
f 1/1/1 2/2/2 4/4/4
f 2/2/2 5/5/5 4/4/4
f 2/2/2 6/6/6 5/5/5
f 7/7/7 9/9/9 8/8/8
f 7/7/7 8/8/8 10/10/10
f 8/8/8 9/9/9 11/11/11
f 8/8/8 11/11/11 12/12/12
f 13/13/13 15/15/15 14/14/14
f 13/13/13 14/14/14 16/16/16
f 17/17/17 19/19/19 18/18/18
f 17/17/17 18/18/18 20/20/20
f 21/21/21 23/23/23 22/22/22
f 21/21/21 22/22/22 24/24/24
f 23/23/23 25/25/25 22/22/22
f 23/23/23 26/26/26 25/25/25
f 27/27/27 29/29/29 28/28/28
f 27/27/27 28/28/28 30/30/30
f 31/31/31 27/27/27 30/30/30
f 31/31/31 30/30/30 32/32/32
f 33/33/33 35/35/35 34/34/34
f 33/33/33 34/34/34 36/36/36
f 35/35/35 37/37/37 34/34/34
f 35/35/35 38/38/38 37/37/37
f 39/39/39 41/41/41 40/40/40
f 39/39/39 40/40/40 42/42/42
f 39/39/39 43/43/43 41/41/41
f 39/39/39 44/44/44 43/43/43
f 45/45/45 47/47/47 46/46/46
f 45/45/45 46/46/46 48/48/48
f 49/49/49 51/51/51 50/50/50
f 49/49/49 50/50/50 52/52/52
f 53/53/53 55/55/55 54/54/54
f 53/53/53 54/54/54 56/56/56
f 55/55/55 57/57/57 54/54/54
f 55/55/55 58/58/58 57/57/57
f 59/59/59 61/61/61 60/60/60
f 59/59/59 60/60/60 62/62/62
f 59/59/59 63/63/63 61/61/61
f 59/59/59 64/64/64 63/63/63
f 65/65/65 67/67/67 66/66/66
f 65/65/65 66/66/66 68/68/68
f 69/69/69 71/71/71 70/70/70
f 69/69/69 70/70/70 72/72/72
f 73/73/73 75/75/75 74/74/74
f 73/73/73 74/74/74 76/76/76
f 74/74/74 77/77/77 76/76/76
f 74/74/74 78/78/78 77/77/77
f 79/79/79 81/81/81 80/80/80
f 79/79/79 80/80/80 82/82/82
f 80/80/80 83/83/83 82/82/82
f 80/80/80 84/84/84 83/83/83
f 85/85/85 87/87/87 86/86/86
f 85/85/85 86/86/86 88/88/88
f 85/85/85 88/88/88 89/89/89
f 85/85/85 89/89/89 90/90/90
f 85/85/85 91/91/91 87/87/87
f 92/92/92 94/94/94 93/93/93
f 93/93/93 95/95/95 92/92/92
f 93/93/93 96/96/96 95/95/95
f 93/93/93 97/97/97 96/96/96
f 93/93/93 98/98/98 97/97/97
f 99/99/99 101/101/101 100/100/100
f 99/99/99 100/100/100 102/102/102
f 102/102/102 103/103/103 99/99/99
f 102/102/102 104/104/104 103/103/103
f 103/103/103 104/104/104 105/105/105
f 103/103/103 105/105/105 106/106/106
f 107/107/107 106/106/106 105/105/105
f 107/107/107 105/105/105 108/108/108
f 109/109/109 111/111/111 110/110/110
f 109/109/109 110/110/110 112/112/112
f 113/113/113 115/115/115 114/114/114
f 116/116/116 115/115/115 113/113/113
f 116/116/116 117/117/117 115/115/115
f 118/118/118 117/117/117 116/116/116
f 119/119/119 121/121/121 120/120/120
f 122/122/122 119/119/119 120/120/120
f 122/122/122 120/120/120 123/123/123
f 124/124/124 122/122/122 123/123/123
f 125/125/125 127/127/127 126/126/126
f 125/125/125 126/126/126 128/128/128
f 129/129/129 127/127/127 125/125/125
f 129/129/129 130/130/130 127/127/127
f 131/131/131 130/130/130 129/129/129
f 131/131/131 132/132/132 130/130/130
f 133/133/133 135/135/135 134/134/134
f 133/133/133 134/134/134 136/136/136
f 137/137/137 139/139/139 138/138/138
f 137/137/137 138/138/138 140/140/140
f 141/141/141 143/143/143 142/142/142
f 141/141/141 142/142/142 144/144/144
f 145/145/145 147/147/147 146/146/146
f 145/145/145 146/146/146 148/148/148
f 149/149/149 151/151/151 150/150/150
f 149/149/149 150/150/150 152/152/152
f 152/152/152 150/150/150 153/153/153
f 152/152/152 153/153/153 154/154/154
f 155/155/155 157/157/157 156/156/156
f 155/155/155 156/156/156 158/158/158
f 159/159/159 157/157/157 155/155/155
f 159/159/159 160/160/160 157/157/157
f 161/161/161 163/163/163 162/162/162
f 161/161/161 162/162/162 164/164/164
f 165/165/165 163/163/163 161/161/161
f 161/161/161 166/166/166 165/165/165
f 161/161/161 167/167/167 166/166/166
f 168/168/168 170/170/170 169/169/169
f 168/168/168 169/169/169 171/171/171
f 172/172/172 168/168/168 171/171/171
f 173/173/173 168/168/168 172/172/172
f 173/173/173 174/174/174 168/168/168
f 175/175/175 177/177/177 176/176/176
f 175/175/175 176/176/176 178/178/178
f 178/178/178 176/176/176 179/179/179
f 178/178/178 179/179/179 180/180/180
f 180/180/180 179/179/179 181/181/181
f 180/180/180 181/181/181 182/182/182
f 183/183/183 185/185/185 184/184/184
f 183/183/183 184/184/184 186/186/186
f 187/187/187 189/189/189 188/188/188
f 187/187/187 188/188/188 190/190/190
f 191/191/191 189/189/189 187/187/187
f 191/191/191 192/192/192 189/189/189
f 193/193/193 195/195/195 194/194/194
f 193/193/193 194/194/194 196/196/196
f 197/197/197 199/199/199 198/198/198
f 197/197/197 198/198/198 200/200/200
f 201/201/201 197/197/197 200/200/200
f 202/202/202 197/197/197 201/201/201
f 202/202/202 203/203/203 197/197/197
f 204/204/204 206/206/206 205/205/205
f 204/204/204 205/205/205 207/207/207
f 208/208/208 206/206/206 204/204/204
f 204/204/204 209/209/209 208/208/208
f 204/204/204 210/210/210 209/209/209
f 211/211/211 213/213/213 212/212/212
f 211/211/211 212/212/212 214/214/214
f 215/215/215 211/211/211 214/214/214
f 215/215/215 214/214/214 216/216/216
f 217/217/217 215/215/215 216/216/216
f 217/217/217 216/216/216 218/218/218
f 219/219/219 221/221/221 220/220/220
f 219/219/219 220/220/220 222/222/222
f 223/223/223 225/225/225 224/224/224
f 223/223/223 224/224/224 226/226/226
f 225/225/225 227/227/227 224/224/224
f 225/225/225 228/228/228 227/227/227
f 229/229/229 231/231/231 230/230/230
f 229/229/229 230/230/230 232/232/232
f 233/233/233 235/235/235 234/234/234
f 233/233/233 236/236/236 235/235/235
f 233/233/233 237/237/237 236/236/236
f 237/237/237 233/233/233 238/238/238
f 237/237/237 238/238/238 239/239/239
f 239/239/239 240/240/240 237/237/237
f 239/239/239 241/241/241 240/240/240
f 240/240/240 241/241/241 242/242/242
f 241/241/241 243/243/243 242/242/242
f 241/241/241 244/244/244 243/243/243
f 245/245/245 247/247/247 246/246/246
f 245/245/245 246/246/246 248/248/248
f 249/249/249 247/247/247 245/245/245
f 249/249/249 250/250/250 247/247/247
f 251/251/251 250/250/250 249/249/249
f 251/251/251 252/252/252 250/250/250
f 253/253/253 255/255/255 254/254/254
f 253/253/253 254/254/254 256/256/256
f 253/253/253 257/257/257 255/255/255
f 253/253/253 258/258/258 257/257/257
f 259/259/259 257/257/257 258/258/258
f 259/259/259 260/260/260 257/257/257
f 261/261/261 263/263/263 262/262/262
f 261/261/261 262/262/262 264/264/264
f 263/263/263 265/265/265 262/262/262
f 263/263/263 266/266/266 265/265/265
f 267/267/267 265/265/265 266/266/266
f 267/267/267 266/266/266 268/268/268
f 269/269/269 271/271/271 270/270/270
f 269/269/269 270/270/270 272/272/272
f 273/273/273 270/270/270 271/271/271
f 273/273/273 274/274/274 270/270/270
f 275/275/275 277/277/277 276/276/276
f 275/275/275 276/276/276 278/278/278
f 275/275/275 278/278/278 279/279/279
f 280/280/280 275/275/275 279/279/279
f 280/280/280 279/279/279 281/281/281
f 282/282/282 281/281/281 279/279/279
f 282/282/282 283/283/283 281/281/281
f 282/282/282 284/284/284 283/283/283
f 285/285/285 283/283/283 284/284/284
f 285/285/285 286/286/286 283/283/283
f 287/287/287 289/289/289 288/288/288
f 287/287/287 288/288/288 290/290/290
f 290/290/290 288/288/288 291/291/291
f 290/290/290 291/291/291 292/292/292
f 292/292/292 291/291/291 293/293/293
f 292/292/292 293/293/293 294/294/294
f 295/295/295 297/297/297 296/296/296
f 295/295/295 296/296/296 298/298/298
f 299/299/299 301/301/301 300/300/300
f 299/299/299 300/300/300 302/302/302
f 303/303/303 301/301/301 299/299/299
f 303/303/303 304/304/304 301/301/301
f 305/305/305 304/304/304 303/303/303
f 305/305/305 306/306/306 304/304/304
f 307/307/307 309/309/309 308/308/308
f 307/307/307 308/308/308 310/310/310
f 311/311/311 313/313/313 312/312/312
f 311/311/311 312/312/312 314/314/314
f 315/315/315 311/311/311 314/314/314
f 315/315/315 314/314/314 316/316/316
f 317/317/317 315/315/315 316/316/316
f 317/317/317 316/316/316 318/318/318
f 319/319/319 321/321/321 320/320/320
f 319/319/319 320/320/320 322/322/322
f 323/323/323 321/321/321 319/319/319
f 323/323/323 324/324/324 321/321/321
f 325/325/325 324/324/324 323/323/323
f 325/325/325 326/326/326 324/324/324
f 327/327/327 319/319/319 322/322/322
f 327/327/327 323/323/323 319/319/319
f 327/327/327 322/322/322 328/328/328
f 329/329/329 327/327/327 328/328/328
f 329/329/329 330/330/330 327/327/327
f 330/330/330 331/331/331 327/327/327
f 327/327/327 331/331/331 323/323/323
f 330/330/330 332/332/332 331/331/331
f 332/332/332 333/333/333 331/331/331
f 333/333/333 325/325/325 323/323/323
f 333/333/333 323/323/323 331/331/331
f 332/332/332 334/334/334 333/333/333
f 335/335/335 337/337/337 336/336/336
f 335/335/335 336/336/336 338/338/338
f 336/336/336 337/337/337 339/339/339
f 336/336/336 339/339/339 340/340/340
f 339/339/339 341/341/341 340/340/340
f 339/339/339 342/342/342 341/341/341
f 343/343/343 345/345/345 344/344/344
f 343/343/343 344/344/344 346/346/346
f 345/345/345 343/343/343 347/347/347
f 345/345/345 347/347/347 348/348/348
f 349/349/349 351/351/351 350/350/350
f 349/349/349 350/350/350 352/352/352
f 352/352/352 350/350/350 353/353/353
f 352/352/352 353/353/353 354/354/354
f 354/354/354 353/353/353 355/355/355
f 354/354/354 355/355/355 356/356/356
f 357/357/357 359/359/359 358/358/358
f 357/357/357 358/358/358 360/360/360
f 361/361/361 359/359/359 357/357/357
f 361/361/361 362/362/362 359/359/359
f 363/363/363 365/365/365 364/364/364
f 363/363/363 364/364/364 366/366/366
f 366/366/366 367/367/367 363/363/363
f 366/366/366 368/368/368 367/367/367
f 369/369/369 371/371/371 370/370/370
f 369/369/369 370/370/370 372/372/372
f 373/373/373 371/371/371 369/369/369
f 373/373/373 374/374/374 371/371/371
f 375/375/375 372/372/372 370/370/370
f 375/375/375 370/370/370 376/376/376
f 377/377/377 372/372/372 375/375/375
f 377/377/377 378/378/378 372/372/372
f 379/379/379 369/369/369 372/372/372
f 379/379/379 372/372/372 378/378/378
f 373/373/373 369/369/369 379/379/379
f 373/373/373 379/379/379 380/380/380
f 381/381/381 383/383/383 382/382/382
f 381/381/381 382/382/382 384/384/384
f 385/385/385 382/382/382 383/383/383
f 385/385/385 383/383/383 386/386/386
f 381/381/381 384/384/384 387/387/387
f 381/381/381 387/387/387 388/388/388
f 384/384/384 389/389/389 387/387/387
f 384/384/384 390/390/390 389/389/389
f 384/384/384 382/382/382 391/391/391
f 384/384/384 391/391/391 390/390/390
f 391/391/391 382/382/382 385/385/385
f 391/391/391 385/385/385 392/392/392
f 393/393/393 395/395/395 394/394/394
f 393/393/393 394/394/394 396/396/396
f 397/397/397 394/394/394 395/395/395
f 397/397/397 398/398/398 394/394/394
f 399/399/399 398/398/398 397/397/397
f 399/399/399 397/397/397 400/400/400
f 396/396/396 394/394/394 401/401/401
f 398/398/398 401/401/401 394/394/394
f 396/396/396 401/401/401 402/402/402
f 398/398/398 403/403/403 401/401/401
f 399/399/399 403/403/403 398/398/398
f 399/399/399 404/404/404 403/403/403
f 405/405/405 407/407/407 406/406/406
f 405/405/405 406/406/406 408/408/408
f 409/409/409 408/408/408 406/406/406
f 409/409/409 410/410/410 408/408/408
f 409/409/409 411/411/411 410/410/410
f 409/409/409 412/412/412 411/411/411
f 410/410/410 413/413/413 408/408/408
f 414/414/414 408/408/408 413/413/413
f 414/414/414 413/413/413 415/415/415
f 410/410/410 416/416/416 413/413/413
f 417/417/417 416/416/416 410/410/410
f 417/417/417 418/418/418 416/416/416
f 419/419/419 421/421/421 420/420/420
f 419/419/419 420/420/420 422/422/422
f 419/419/419 422/422/422 423/423/423
f 419/419/419 423/423/423 424/424/424
f 425/425/425 427/427/427 426/426/426
f 425/425/425 426/426/426 428/428/428
f 429/429/429 425/425/425 428/428/428
f 429/429/429 428/428/428 430/430/430
f 431/431/431 433/433/433 432/432/432
f 431/431/431 432/432/432 434/434/434
f 431/431/431 435/435/435 433/433/433
f 431/431/431 436/436/436 435/435/435
f 435/435/435 436/436/436 437/437/437
f 435/435/435 437/437/437 438/438/438
f 439/439/439 431/431/431 434/434/434
f 439/439/439 436/436/436 431/431/431
f 439/439/439 434/434/434 440/440/440
f 439/439/439 441/441/441 436/436/436
f 441/441/441 437/437/437 436/436/436
f 441/441/441 442/442/442 437/437/437
f 443/443/443 445/445/445 444/444/444
f 443/443/443 444/444/444 446/446/446
f 445/445/445 447/447/447 444/444/444
f 445/445/445 448/448/448 447/447/447
f 447/447/447 448/448/448 449/449/449
f 447/447/447 449/449/449 450/450/450
f 451/451/451 448/448/448 445/445/445
f 451/451/451 445/445/445 452/452/452
f 451/451/451 452/452/452 453/453/453
f 451/451/451 454/454/454 448/448/448
f 454/454/454 455/455/455 448/448/448
f 454/454/454 456/456/456 455/455/455
