# Generated from legacy Unity YAML Mesh assets without Unity.
mtllib gun18.mtl

o gun18
v -0.0340222642 -0.0112979636 -0.538114429
v -0.0340222642 0.0412112027 -0.255683541
v -0.0340222642 -0.0112979636 -0.233312786
v -0.0340222642 0.0412112027 -0.538114429
v -0.0421005934 0.139083341 -0.156879336
v -0.0421005934 0.140947506 -0.0776495636
v 0.034954261 -0.0112979636 -0.538114429
v 0.034954261 0.0412112027 -0.255683541
v 0.034954261 0.0412112027 -0.538114429
v 0.034954261 -0.0112979636 -0.233312786
v 0.0430325903 0.139083341 -0.156879336
v 0.0430325903 0.140947506 -0.0776495636
v 0.034954261 -0.0112979636 -0.233312786
v -0.0340222642 -0.0112979636 -0.538114429
v -0.0340222642 -0.0112979636 -0.233312786
v 0.034954261 -0.0112979636 -0.538114429
v 0.0430325903 0.140947506 -0.0776495636
v -0.0421005934 0.140947506 -0.0776495636
v 0.034954261 0.0412112027 -0.538114429
v -0.0340222642 0.0412112027 -0.255683541
v -0.0340222642 0.0412112027 -0.538114429
v 0.034954261 0.0412112027 -0.255683541
v -0.0421005934 0.139083341 -0.156879336
v 0.0430325903 0.139083341 -0.156879336
v -0.0669569969 -0.023104772 -0.528793335
v -0.0455183499 -0.097984612 -0.468827218
v -0.0455183499 -0.097984612 -0.910960555
v -0.0669569969 -0.0252797008 -0.496790677
v -0.0669569969 0.0067229569 -0.941720366
v -0.0542180985 0.0318900794 -0.932709932
v -0.0542180985 0.0604749657 -0.529725432
v -0.0542180985 0.103041492 -0.932709932
v -0.0265653431 0.0483574048 -0.960052013
v -0.0265653431 0.0868848339 -0.960052013
v -0.0504896306 0.0903026015 -0.463855952
v -0.0504896306 0.0604749657 -0.465409487
v -0.0669569969 0.217380941 -0.929292202
v -0.0567037314 0.133179888 -0.23175928
v -0.0517324507 0.135354817 -0.0559001863
v -0.045829054 0.0903026015 -0.275568694
v -0.0669569969 0.268958032 -0.28053996
v -0.0669569969 0.268958032 -0.177696556
v -0.0548395067 0.268958032 0.0133870542
v -0.0417898893 0.0952738747 0.0401076674
v -0.0284295715 0.0735245198 -0.00028398633
v -0.0340222642 0.106148601 -0.0472004414
v -0.0442755297 0.143433183 0.126483709
v -0.0402363651 0.0359292701 0.085781306
v -0.0414791852 0.0679318309 0.190799564
v -0.0532859787 -0.0398828536 0.223112911
v -0.0511110388 -0.0638071299 0.0888883471
v -0.0476932861 0.182582051 0.133319169
v -0.0489361025 0.185689062 0.198567182
v -0.0489361025 0.1670468 0.170293063
v 0.000155292219 0.293503731 -0.00774094462
v 0.000155292219 0.293503731 -0.177696556
v -0.0209726505 0.312456638 -0.187639147
v -0.0209726505 0.312456638 -0.270286709
v -0.0489361025 -0.0802744478 0.201363534
v 0.0212832391 0.312456638 -0.187639147
v 0.0212832391 0.312456638 -0.270286709
v 0.000155292219 0.293503731 -0.852548003
v 0.000155292219 0.293503731 -0.28053996
v -0.0576358512 0.268958032 -0.895114541
v 0.0504895113 0.0903026015 -0.463855952
v 0.0542179793 0.0604749657 -0.529725432
v 0.0504895113 0.0604749657 -0.465409487
v 0.054528676 0.103041492 -0.932709932
v 0.0669568777 0.217380941 -0.929292202
v 0.0567036122 0.133179888 -0.23175928
v 0.0458289385 0.0903026015 -0.275568694
v 0.0520430394 0.135354817 -0.0559001863
v 0.054528676 0.0318900794 -0.932709932
v 0.0669568777 -0.023104772 -0.528793335
v 0.0669568777 0.0067229569 -0.941720366
v 0.0458289385 -0.097984612 -0.910960555
v 0.0458289385 -0.097984612 -0.468827218
v 0.0669568777 -0.0252797008 -0.496790677
v 0.0265652239 0.0483574048 -0.960052013
v 0.0265652239 0.0868848339 -0.960052013
v 0.0669568777 0.268958032 -0.28053996
v 0.0669568777 0.268958032 -0.177696556
v 0.0548393875 0.268958032 0.0133870542
v 0.042100478 0.0952738747 0.0401076674
v 0.0284294542 0.0735245198 -0.00028398633
v 0.0343328491 0.106148601 -0.0472004414
v 0.0445861183 0.143433183 0.126483709
v 0.0405469537 0.0359292701 0.085781306
v 0.0417897739 0.0679318309 0.190799564
v 0.0535965636 -0.0398828536 0.223112911
v 0.0511109196 -0.0638071299 0.0888883471
v 0.0476931669 0.182582051 0.133319169
v 0.0489359908 0.185689062 0.198567182
v 0.0489359908 0.1670468 0.170293063
v 0.000155292219 0.293503731 -0.00774094462
v 0.000155292219 0.293503731 -0.177696556
v 0.0212832391 0.312456638 -0.187639147
v 0.0492466949 -0.0802744478 0.201363534
v 0.0212832391 0.312456638 -0.270286709
v 0.000155292219 0.293503731 -0.852548003
v 0.0579464324 0.268958032 -0.895114541
v 0.000155292219 0.293503731 -0.28053996
v 0.0669568777 -0.023104772 -0.528793335
v -0.0669569969 -0.0252797008 -0.496790677
v -0.0669569969 -0.023104772 -0.528793335
v 0.0669568777 -0.0252797008 -0.496790677
v -0.0455183499 -0.097984612 -0.468827218
v 0.0458289385 -0.097984612 -0.468827218
v 0.0542179793 0.0604749657 -0.529725432
v -0.0542180985 0.0604749657 -0.529725432
v 0.0504895113 0.0604749657 -0.465409487
v -0.0504896306 0.0604749657 -0.465409487
v 0.0504895113 0.0903026015 -0.463855952
v -0.0504896306 0.0903026015 -0.463855952
v 0.0458289385 -0.097984612 -0.468827218
v -0.0455183499 -0.097984612 -0.910960555
v -0.0455183499 -0.097984612 -0.468827218
v 0.0458289385 -0.097984612 -0.910960555
v 0.0669568777 0.0067229569 -0.941720366
v -0.0542180985 0.0318900794 -0.932709932
v -0.0669569969 0.0067229569 -0.941720366
v 0.054528676 0.0318900794 -0.932709932
v 0.0458289385 -0.097984612 -0.910960555
v -0.0455183499 -0.097984612 -0.910960555
v 0.0489359908 0.1670468 0.170293063
v -0.0476932861 0.182582051 0.133319169
v -0.0489361025 0.1670468 0.170293063
v 0.0476931669 0.182582051 0.133319169
v 0.0489359908 0.185689062 0.198567182
v -0.0489361025 0.1670468 0.170293063
v -0.0489361025 0.185689062 0.198567182
v 0.0489359908 0.1670468 0.170293063
v -0.0548395067 0.268958032 0.0133870542
v 0.000155292219 0.293503731 -0.00774094462
v 0.0548393875 0.268958032 0.0133870542
v -0.0489361025 0.185689062 0.198567182
v 0.0489359908 0.185689062 0.198567182
v 0.0511109196 -0.0638071299 0.0888883471
v -0.0402363651 0.0359292701 0.085781306
v -0.0511110388 -0.0638071299 0.0888883471
v 0.0405469537 0.0359292701 0.085781306
v -0.0417898893 0.0952738747 0.0401076674
v 0.042100478 0.0952738747 0.0401076674
v 0.0492466949 -0.0802744478 0.201363534
v -0.0511110388 -0.0638071299 0.0888883471
v -0.0489361025 -0.0802744478 0.201363534
v 0.0511109196 -0.0638071299 0.0888883471
v 0.0535965636 -0.0398828536 0.223112911
v -0.0532859787 -0.0398828536 0.223112911
v 0.0535965636 -0.0398828536 0.223112911
v -0.0414791852 0.0679318309 0.190799564
v 0.0417897739 0.0679318309 0.190799564
v -0.0532859787 -0.0398828536 0.223112911
v 0.0445861183 0.143433183 0.126483709
v -0.0442755297 0.143433183 0.126483709
v 0.0476931669 0.182582051 0.133319169
v -0.0476932861 0.182582051 0.133319169
v 0.0343328491 0.106148601 -0.0472004414
v -0.0517324507 0.135354817 -0.0559001863
v -0.0340222642 0.106148601 -0.0472004414
v 0.0520430394 0.135354817 -0.0559001863
v 0.0284294542 0.0735245198 -0.00028398633
v -0.0284295715 0.0735245198 -0.00028398633
v 0.042100478 0.0952738747 0.0401076674
v -0.0417898893 0.0952738747 0.0401076674
v 0.054528676 0.103041492 -0.932709932
v -0.0669569969 0.217380941 -0.929292202
v -0.0542180985 0.103041492 -0.932709932
v 0.0669568777 0.217380941 -0.929292202
v 0.0579464324 0.268958032 -0.895114541
v -0.0576358512 0.268958032 -0.895114541
v 0.000155292219 0.293503731 -0.852548003
v -0.0567037314 0.133179888 -0.23175928
v 0.0520430394 0.135354817 -0.0559001863
v 0.0567036122 0.133179888 -0.23175928
v -0.0517324507 0.135354817 -0.0559001863
v -0.045829054 0.0903026015 -0.275568694
v 0.0458289385 0.0903026015 -0.275568694
v -0.0504896306 0.0903026015 -0.463855952
v 0.0504895113 0.0903026015 -0.463855952
v 0.0265652239 0.0868848339 -0.960052013
v -0.0542180985 0.103041492 -0.932709932
v -0.0265653431 0.0868848339 -0.960052013
v 0.054528676 0.103041492 -0.932709932
v 0.0265652239 0.0483574048 -0.960052013
v -0.0265653431 0.0483574048 -0.960052013
v 0.054528676 0.0318900794 -0.932709932
v -0.0542180985 0.0318900794 -0.932709932
v 0.0212832391 0.312456638 -0.187639147
v 0.0669568777 0.268958032 -0.177696556
v 0.000155292219 0.293503731 -0.177696556
v -0.0209726505 0.312456638 -0.187639147
v -0.0669569969 0.268958032 -0.177696556
v 0.0669568777 0.268958032 -0.28053996
v 0.0212832391 0.312456638 -0.270286709
v 0.000155292219 0.293503731 -0.28053996
v -0.0209726505 0.312456638 -0.270286709
v -0.0669569969 0.268958032 -0.28053996
v 0.0504895113 0.0903026015 -0.463855952
v 0.0542179793 0.0604749657 -0.529725432
v 0.0504895113 0.0604749657 -0.465409487
v 0.0567036122 0.133179888 -0.23175928
v 0.0504895113 0.0903026015 -0.463855952
v 0.0458289385 0.0903026015 -0.275568694
vt 0.526799977 0.123400003
vt 0.716000021 0.159799993
vt 0.731100023 0.124600001
vt 0.526600003 0.158700004
vt 0.782000005 0.225999996
vt 0.835099995 0.227400005
vt 0.526799977 0.123400003
vt 0.716000021 0.159799993
vt 0.526600003 0.158700004
vt 0.731100023 0.124600001
vt 0.782000005 0.225999996
vt 0.835099995 0.227400005
vt 0.480599999 0.462399989
vt 0.352999985 0.489600003
vt 0.480599999 0.489600003
vt 0.352999985 0.462399989
vt 0.571799994 0.459199995
vt 0.571799994 0.492799997
vt 0.121699996 0.491600007
vt 0.267199993 0.462000012
vt 0.121699996 0.462000012
vt 0.267199993 0.491600007
vt 0.3389 0.458600014
vt 0.3389 0.495000005
vt 0.371800005 0.157399997
vt 0.420399994 0.0938000008
vt 0.0606999993 0.0952000022
vt 0.397899985 0.155499995
vt 0.0357000008 0.182300001
vt 0.0434999987 0.2051
vt 0.371399999 0.226099998
vt 0.0439000018 0.263099998
vt 0.0116999997 0.218600005
vt 0.0120000001 0.25
vt 0.425199986 0.25029999
vt 0.423900008 0.225899994
vt 0.0469999984 0.356599987
vt 0.614300013 0.28459999
vt 0.757499993 0.28549999
vt 0.578700006 0.248699993
vt 0.575299978 0.395900011
vt 0.658999979 0.395500004
vt 0.814400017 0.394699991
vt 0.835699975 0.251899987
vt 0.80250001 0.231399998
vt 0.763599992 0.257499993
vt 0.906099975 0.290600002
vt 0.872500002 0.203400001
vt 0.958299994 0.228799999
vt 0.984300017 0.140300006
vt 0.87470001 0.121600002
vt 0.912100017 0.32249999
vt 0.96509999 0.325100005
vt 0.942200005 0.309899986
vt 0.797500014 0.452899992
vt 0.659300029 0.453500003
vt 0.651000023 0.446999997
vt 0.583800018 0.447299987
vt 0.966300011 0.107500002
vt 0.651199996 0.481400013
vt 0.583999991 0.48179999
vt 0.109300002 0.450500011
vt 0.574899971 0.453900009
vt 0.0750999972 0.399199992
vt 0.425199986 0.25029999
vt 0.371399999 0.226099998
vt 0.423900008 0.225899994
vt 0.0439000018 0.263099998
vt 0.0469999984 0.356599987
vt 0.614300013 0.28459999
vt 0.578700006 0.248699993
vt 0.757499993 0.28549999
vt 0.0434999987 0.2051
vt 0.371800005 0.157399997
vt 0.0357000008 0.182300001
vt 0.0606999993 0.0952000022
vt 0.420399994 0.0938000008
vt 0.397899985 0.155499995
vt 0.0116999997 0.218600005
vt 0.0120000001 0.25
vt 0.575299978 0.395900011
vt 0.658999979 0.395500004
vt 0.814400017 0.394699991
vt 0.835699975 0.251899987
vt 0.80250001 0.231399998
vt 0.763599992 0.257499993
vt 0.906099975 0.290600002
vt 0.872500002 0.203400001
vt 0.958299994 0.228799999
vt 0.984300017 0.140300006
vt 0.87470001 0.121600002
vt 0.912100017 0.32249999
vt 0.96509999 0.325100005
vt 0.942200005 0.309899986
vt 0.797500014 0.452899992
vt 0.659300029 0.453500003
vt 0.651000023 0.446999997
vt 0.966300011 0.107500002
vt 0.583800018 0.447299987
vt 0.109300002 0.450500011
vt 0.0750999972 0.399199992
vt 0.574899971 0.453900009
vt 0.493900001 0.141800001
vt 0.4208 0.1241
vt 0.4208 0.141800001
vt 0.493900001 0.1241
vt 0.432500005 0.0812999979
vt 0.482300013 0.0812999979
vt 0.486900002 0.187700003
vt 0.4278 0.187700003
vt 0.484899998 0.223000005
vt 0.429899991 0.223000005
vt 0.484899998 0.239500001
vt 0.429899991 0.239500001
vt 0.375400007 0.0132999998
vt 0.0113000004 0.0885000005
vt 0.375400007 0.0885000005
vt 0.0113000004 0.0132999998
vt 0.849600017 0.0891999975
vt 0.932200015 0.106899999
vt 0.940699995 0.0886000022
vt 0.858200014 0.107299998
vt 0.863699973 0.0148
vt 0.925800025 0.0144999996
vt 0.733699977 0.0110999998
vt 0.703800023 0.103699997
vt 0.733799994 0.104800001
vt 0.703700006 0.0122999996
vt 0.968900025 0.479299992
vt 0.991699994 0.412900001
vt 0.968800008 0.412900001
vt 0.991900027 0.479299992
vt 0.83069998 0.400999993
vt 0.808899999 0.446500003
vt 0.83099997 0.492000014
vt 0.968800008 0.412900001
vt 0.968900025 0.479299992
vt 0.750699997 0.280999988
vt 0.678900003 0.228
vt 0.749800026 0.220599994
vt 0.6796 0.275700003
vt 0.625699997 0.227899998
vt 0.626399994 0.277399987
vt 0.967700005 0.360500008
vt 0.92110002 0.399699986
vt 0.966799974 0.399899989
vt 0.922100008 0.358599991
vt 0.986100018 0.359200001
vt 0.985099971 0.40200001
vt 0.515200019 0.00710000005
vt 0.599699974 0.0980999991
vt 0.599600017 0.0183000006
vt 0.515299976 0.1096
vt 0.674000025 0.0154999997
vt 0.674099982 0.100599997
vt 0.703700006 0.0122999996
vt 0.703800023 0.103699997
vt 0.422600001 0.0236000009
vt 0.399300009 0.0869000033
vt 0.422899991 0.0737000033
vt 0.398799986 0.0107000005
vt 0.467000008 0.0274999999
vt 0.467299998 0.0693000033
vt 0.502699971 0.0174000002
vt 0.503099978 0.0790000036
vt 0.754100025 0.00829999987
vt 0.842000008 0.0917000026
vt 0.832899988 0.00829999987
vt 0.745000005 0.0917000026
vt 0.751699984 0.136999995
vt 0.835300028 0.136999995
vt 0.793500006 0.172700003
vt 0.603900015 0.223499998
vt 0.681100011 0.168200001
vt 0.604700029 0.164199993
vt 0.680400014 0.222499996
vt 0.577400029 0.217299998
vt 0.578000009 0.169400007
vt 0.495400012 0.218099996
vt 0.496100008 0.165399998
vt 0.0272000004 0.474799991
vt 0.0828000009 0.496399999
vt 0.0636000037 0.474599987
vt 0.00810000021 0.496800005
vt 0.0271000005 0.448399991
vt 0.0634000003 0.448199987
vt 0.00779999979 0.426600009
vt 0.0825000033 0.426299989
vt 0.996100008 0.259000003
vt 0.988099992 0.201000005
vt 0.968800008 0.263300002
vt 0.973800004 0.290499985
vt 0.916299999 0.301800013
vt 0.681599975 0.459600002
vt 0.717800021 0.492799997
vt 0.733799994 0.476000011
vt 0.750199974 0.492399991
vt 0.78549999 0.458099991
vt 0.425199986 0.25029999
vt 0.371399999 0.226099998
vt 0.423900008 0.225899994
vt 0.614300013 0.28459999
vt 0.425199986 0.25029999
vt 0.578700006 0.248699993
vn -1 0 0
vn -0.999927213 -0.00472893096 -0.0110998585
vn -0.999659908 -0.0233392414 -0.0116339544
vn -1 0 0
vn -0.998855251 -0.0428110628 -0.0213401089
vn -0.998524451 -0.0542889358 0.00127734228
vn 1 0 0
vn 0.999927213 -0.00472893096 -0.0110998585
vn 1 0 0
vn 0.999659908 -0.0233392414 -0.0116339544
vn 0.998855251 -0.0428110628 -0.0213401089
vn 0.998524451 -0.0542889358 0.00127734228
vn 0 -0.980779273 0.195120522
vn 0 -1 -2.21961453e-16
vn 0 -0.886768435 0.462213957
vn 0 -1 -2.21961453e-16
vn 0 -0.714911549 0.699214901
vn 0 -0.714911549 0.699214901
vn 0 1 2.21116202e-16
vn 0 0.989300218 -0.145894065
vn 0 1 2.21116202e-16
vn 0 0.917140541 -0.398563958
vn 0 0.710449849 -0.703747833
vn 0 0.710449849 -0.703747833
vn -0.997498617 -0.0704734392 -0.00547747126
vn -0.961103499 -0.276185551 -0.00126690214
vn -0.971680526 -0.236154803 -0.00823796973
vn -0.956903567 -0.289737528 -0.0196908174
vn -0.997697161 -0.0676497982 -0.00488667412
vn -0.990201177 0.137249517 -0.0257720508
vn -0.996506698 0.0835044501 -0.00118664947
vn -0.998661182 -0.0447030607 -0.026028433
vn -0.703101007 0 -0.71108999
vn -0.703101007 0 -0.71108999
vn -0.994501156 -0.10460353 0.00505482676
vn -0.998319362 -0.00301428003 0.057873701
vn -0.998221411 -0.0595002793 0.00370568363
vn -0.995119756 -0.0983885803 0.00750720931
vn -0.996298196 -0.0838488078 0.0189547304
vn -0.96296151 -0.268583302 0.0238356855
vn -0.919309329 0.393535525 0.000384639861
vn -0.909934769 0.413424608 0.0331483038
vn -0.995642663 0.0824172241 0.0436244136
vn -0.995169205 -0.0953491687 0.023383535
vn -0.881065692 -0.453362157 -0.134855483
vn -0.775232186 -0.558177081 -0.295725217
vn -0.998291569 -0.058367632 0.00267652614
vn -0.998588512 0.0470307288 -0.0246798506
vn -0.999050925 0.0369400316 -0.023079951
vn -0.997138415 0.068688165 -0.03157401
vn -0.998443565 0.0498244872 -0.0250592701
vn -0.996471931 -0.0833375008 -0.00992735809
vn -0.996597984 -0.0810166458 -0.0151248857
vn -0.999305201 0.0311160165 -0.0205160388
vn -0.371133209 0.928496086 0.0124562728
vn -0.343488013 0.939157061 3.06748858e-16
vn -0.557275454 0.830327687 0
vn -0.316227092 0.948683523 0
vn -0.994055628 -0.108823655 0.00328938216
vn 0 1 0
vn 0 1 0
vn -0.364947698 0.931023608 -0.00286683
vn -0.343488013 0.939157061 1.80365398e-16
vn -0.744384734 0.667655528 -0.0112899537
vn 0.994599135 -0.103648579 0.00543436795
vn 0.996528405 0.0832521617 -0.000464475892
vn 0.998319362 -0.00301428003 0.057873701
vn 0.998725156 -0.0434678952 -0.0256633129
vn 0.998204026 -0.0597878909 0.00375893607
vn 0.994832275 -0.101279739 0.00715260646
vn 0.962961537 -0.268583206 0.0238356671
vn 0.996339327 -0.0834012985 0.018766181
vn 0.990435169 0.135591248 -0.0255575591
vn 0.997583868 -0.0692730527 -0.00526018181
vn 0.997697167 -0.0676497117 -0.00488666787
vn 0.972462091 -0.232919435 -0.00812510791
vn 0.962160057 -0.272482041 -0.00124991361
vn 0.9580668 -0.285885502 -0.0194290303
vn 0.699118143 0 -0.71500617
vn 0.699118143 0 -0.71500617
vn 0.919707303 0.392604506 0.00042357862
vn 0.910278192 0.412666903 0.0331608144
vn 0.995522946 0.0836811918 0.0439490846
vn 0.995236071 -0.0947333359 0.0230381781
vn 0.878996409 -0.457271824 -0.135158392
vn 0.777543792 -0.55790707 -0.290112654
vn 0.998385253 -0.0567273856 0.00298163242
vn 0.998620834 0.0460442923 -0.025226023
vn 0.999050925 0.0369400141 -0.0230799457
vn 0.997179997 0.0675252943 -0.0327473327
vn 0.99848776 0.0478739713 -0.0270236326
vn 0.996734789 -0.0803696615 -0.00777670799
vn 0.996597974 -0.0810167404 -0.0151249948
vn 0.999305193 0.0311162028 -0.0205161616
vn 0.372758594 0.927844011 0.0125108252
vn 0.344895971 0.938640916 3.06580274e-16
vn 0.689654358 0.724138706 0
vn 0.994208118 -0.107469365 0.000744120577
vn 0.689654358 0.724138706 0
vn 0.36576244 0.930704101 -0.00277745721
vn 0.74608789 0.66575762 -0.0109385978
vn 0.344895971 0.938640916 1.81104717e-16
vn 0 0.594071376 0.804412332
vn 0 0.766521099 0.642219125
vn 0 0.214462659 0.976732188
vn 0 0.536054589 0.84418332
vn 0 0.358979438 0.933345468
vn 0 0.358979438 0.933345468
vn 0 -0.316077126 0.948733498
vn 0 -0.827701729 0.561168289
vn 0 -0.976428421 0.215841469
vn 0 -0.748931322 0.662647625
vn 0 -0.0520132605 0.998646394
vn 0 -0.0520132605 0.998646394
vn 0 -1 -2.19717688e-16
vn 0 -1 -2.19717688e-16
vn 0 -1 -2.19717688e-16
vn 0 -1 -2.19717688e-16
vn 0 -0.0955761771 -0.995422119
vn 0 0.337072038 -0.941478859
vn 0 -0.207652303 -0.978202699
vn 0 0.337072038 -0.941478859
vn 0 -0.281858208 -0.95945607
vn 0 -0.281858208 -0.95945607
vn 0 -0.921926769 -0.387364211
vn 0 -0.921926769 -0.387364211
vn 0 -0.921926769 -0.387364211
vn 0 -0.921926769 -0.387364211
vn 0 -0.834862583 0.550458416
vn 0 -0.834862583 0.550458416
vn 0 -0.834862583 0.550458416
vn 0 -0.834862583 0.550458416
vn 0 0.8862752 0.463159011
vn 0 0.652371076 0.757899716
vn 0 0.897934474 0.440129162
vn 0 0.912035902 0.410110368
vn 0 0.912035902 0.410110368
vn 0 -0.0311374238 -0.999515113
vn 0 -0.181694528 -0.983355022
vn 0 -0.0311374238 -0.999515113
vn 0 -0.399602536 -0.916688504
vn 0 -0.609911609 -0.79246945
vn 0 -0.609911609 -0.79246945
vn 0 -0.999636377 0.0269650454
vn 0 -0.989451566 -0.144864072
vn 0 -0.918674677 0.395014984
vn 0 -0.989451566 -0.144864072
vn 0 -0.474100792 0.880470578
vn 0 -0.474100792 0.880470578
vn 0 0.287094714 0.9579022
vn 0 0.457096396 0.88941716
vn 0 0.466302132 0.884625526
vn 0 0.287094714 0.9579022
vn 0 0.536119369 0.844142181
vn 0 0.304816867 0.952410981
vn 0 -0.17199966 0.985097009
vn 0 -0.17199966 0.985097009
vn 0 -0.543949374 -0.839118036
vn 0 -0.285477217 -0.958385496
vn 0 -0.728612416 -0.684926235
vn 0 -0.285477217 -0.958385496
vn 0 -0.944274955 -0.329157727
vn 0 -0.989732877 0.142929467
vn 0 -0.880471074 0.474099871
vn 0 -0.880471074 0.474099871
vn 0 0.0298777418 -0.999553561
vn 0 0.22449703 -0.974474773
vn 0 0.0298777418 -0.999553561
vn 0 0.22098994 -0.975276087
vn 0 0.650384705 -0.759604986
vn 0 0.709975322 -0.704226556
vn 0 0.86629056 -0.499540454
vn 0 -0.992447528 0.122669902
vn 0 -0.999923532 0.0123665056
vn 0 -0.954485118 0.298258545
vn 0 -0.999923532 0.0123665056
vn 0 -0.948190343 0.317702808
vn 0 -0.995275479 0.0970912998
vn 0 -1 -2.21116202e-16
vn 0 -1 -2.21116202e-16
vn 0 0.688487889 -0.725247838
vn 0 0.860926883 -0.508728711
vn 0 0.281473911 -0.959568881
vn 0 0.860926883 -0.508728711
vn 0 -0.280612635 -0.959821103
vn 0 -0.684594016 -0.728924573
vn 0 -0.856633698 -0.515925098
vn 0 -0.856633698 -0.515925098
vn 0.086716453 0.385284496 0.918714381
vn 0.127118706 0.345955965 0.92959954
vn 0 0.371597732 0.928393842
vn -0.0865135563 0.385478122 0.918652286
vn -0.126686934 0.346384515 0.929498891
vn 0.13052909 0.35523739 -0.92561793
vn 0.0889866016 0.395370853 -0.914200893
vn 0 0.381540193 -0.924352249
vn -0.088778075 0.395568129 -0.914135826
vn -0.130084969 0.355675344 -0.925512264
vn 0.998319362 -0.00301428003 0.057873701
vn 0.998319362 -0.00301428003 0.057873701
vn 0.998319362 -0.00301428003 0.057873701
vn 0.962961537 -0.268583206 0.0238356671
vn 0.962961537 -0.268583206 0.0238356671
vn 0.962961537 -0.268583206 0.0238356671

g gun18_submesh_0
usemtl M2456s-Newlambert5SG1
f 1/1/1 3/3/3 2/2/2
f 1/1/1 2/2/2 4/4/4
f 3/3/3 5/5/5 2/2/2
f 3/3/3 6/6/6 5/5/5
f 7/7/7 9/9/9 8/8/8
f 7/7/7 8/8/8 10/10/10
f 11/11/11 10/10/10 8/8/8
f 11/11/11 12/12/12 10/10/10
f 13/13/13 15/15/15 14/14/14
f 13/13/13 14/14/14 16/16/16
f 17/17/17 15/15/15 13/13/13
f 17/17/17 18/18/18 15/15/15
f 19/19/19 21/21/21 20/20/20
f 19/19/19 20/20/20 22/22/22
f 22/22/22 20/20/20 23/23/23
f 22/22/22 23/23/23 24/24/24
f 25/25/25 27/27/27 26/26/26
f 25/25/25 26/26/26 28/28/28
f 27/27/27 25/25/25 29/29/29
f 30/30/30 29/29/29 25/25/25
f 30/30/30 25/25/25 31/31/31
f 32/32/32 30/30/30 31/31/31
f 32/32/32 33/33/33 30/30/30
f 32/32/32 34/34/34 33/33/33
f 32/32/32 31/31/31 35/35/35
f 35/35/35 31/31/31 36/36/36
f 35/35/35 37/37/37 32/32/32
f 37/37/37 35/35/35 38/38/38
f 39/39/39 37/37/37 38/38/38
f 38/38/38 35/35/35 40/40/40
f 41/41/41 37/37/37 39/39/39
f 39/39/39 42/42/42 41/41/41
f 39/39/39 43/43/43 42/42/42
f 44/44/44 43/43/43 39/39/39
f 39/39/39 45/45/45 44/44/44
f 39/39/39 46/46/46 45/45/45
f 44/44/44 47/47/47 43/43/43
f 48/48/48 47/47/47 44/44/44
f 48/48/48 49/49/49 47/47/47
f 48/48/48 50/50/50 49/49/49
f 48/48/48 51/51/51 50/50/50
f 43/43/43 47/47/47 52/52/52
f 52/52/52 53/53/53 43/43/43
f 52/52/52 54/54/54 53/53/53
f 55/55/55 42/42/42 43/43/43
f 55/55/55 56/56/56 42/42/42
f 57/57/57 41/41/41 42/42/42
f 57/57/57 58/58/58 41/41/41
f 50/50/50 51/51/51 59/59/59
f 60/60/60 58/58/58 57/57/57
f 60/60/60 61/61/61 58/58/58
f 41/41/41 63/63/63 62/62/62
f 41/41/41 62/62/62 64/64/64
f 41/41/41 64/64/64 37/37/37
f 65/65/65 67/67/67 66/66/66
f 66/66/66 68/68/68 65/65/65
f 65/65/65 68/68/68 69/69/69
f 69/69/69 70/70/70 65/65/65
f 65/65/65 70/70/70 71/71/71
f 72/72/72 70/70/70 69/69/69
f 66/66/66 73/73/73 68/68/68
f 74/74/74 73/73/73 66/66/66
f 74/74/74 75/75/75 73/73/73
f 76/76/76 75/75/75 74/74/74
f 77/77/77 76/76/76 74/74/74
f 77/77/77 74/74/74 78/78/78
f 79/79/79 68/68/68 73/73/73
f 79/79/79 80/80/80 68/68/68
f 69/69/69 81/81/81 72/72/72
f 72/72/72 81/81/81 82/82/82
f 72/72/72 82/82/82 83/83/83
f 84/84/84 72/72/72 83/83/83
f 85/85/85 72/72/72 84/84/84
f 85/85/85 86/86/86 72/72/72
f 84/84/84 83/83/83 87/87/87
f 87/87/87 88/88/88 84/84/84
f 87/87/87 89/89/89 88/88/88
f 90/90/90 88/88/88 89/89/89
f 90/90/90 91/91/91 88/88/88
f 83/83/83 92/92/92 87/87/87
f 93/93/93 92/92/92 83/83/83
f 93/93/93 94/94/94 92/92/92
f 95/95/95 83/83/83 82/82/82
f 95/95/95 82/82/82 96/96/96
f 81/81/81 97/97/97 82/82/82
f 90/90/90 98/98/98 91/91/91
f 81/81/81 99/99/99 97/97/97
f 81/81/81 101/101/101 100/100/100
f 81/81/81 100/100/100 102/102/102
f 69/69/69 101/101/101 81/81/81
f 103/103/103 105/105/105 104/104/104
f 103/103/103 104/104/104 106/106/106
f 106/106/106 104/104/104 107/107/107
f 106/106/106 107/107/107 108/108/108
f 109/109/109 105/105/105 103/103/103
f 109/109/109 110/110/110 105/105/105
f 111/111/111 110/110/110 109/109/109
f 111/111/111 112/112/112 110/110/110
f 113/113/113 112/112/112 111/111/111
f 113/113/113 114/114/114 112/112/112
f 115/115/115 117/117/117 116/116/116
f 115/115/115 116/116/116 118/118/118
f 119/119/119 121/121/121 120/120/120
f 119/119/119 120/120/120 122/122/122
f 123/123/123 121/121/121 119/119/119
f 123/123/123 124/124/124 121/121/121
f 125/125/125 127/127/127 126/126/126
f 125/125/125 126/126/126 128/128/128
f 129/129/129 131/131/131 130/130/130
f 129/129/129 130/130/130 132/132/132
f 133/133/133 135/135/135 134/134/134
f 135/135/135 133/133/133 136/136/136
f 135/135/135 136/136/136 137/137/137
f 138/138/138 140/140/140 139/139/139
f 138/138/138 139/139/139 141/141/141
f 141/141/141 139/139/139 142/142/142
f 141/141/141 142/142/142 143/143/143
f 144/144/144 146/146/146 145/145/145
f 144/144/144 145/145/145 147/147/147
f 148/148/148 146/146/146 144/144/144
f 148/148/148 149/149/149 146/146/146
f 150/150/150 152/152/152 151/151/151
f 150/150/150 151/151/151 153/153/153
f 154/154/154 151/151/151 152/152/152
f 154/154/154 155/155/155 151/151/151
f 156/156/156 155/155/155 154/154/154
f 156/156/156 157/157/157 155/155/155
f 158/158/158 160/160/160 159/159/159
f 158/158/158 159/159/159 161/161/161
f 162/162/162 160/160/160 158/158/158
f 162/162/162 163/163/163 160/160/160
f 164/164/164 163/163/163 162/162/162
f 164/164/164 165/165/165 163/163/163
f 166/166/166 168/168/168 167/167/167
f 166/166/166 167/167/167 169/169/169
f 170/170/170 169/169/169 167/167/167
f 170/170/170 167/167/167 171/171/171
f 172/172/172 170/170/170 171/171/171
f 173/173/173 175/175/175 174/174/174
f 173/173/173 174/174/174 176/176/176
f 175/175/175 173/173/173 177/177/177
f 175/175/175 177/177/177 178/178/178
f 179/179/179 178/178/178 177/177/177
f 179/179/179 180/180/180 178/178/178
f 181/181/181 183/183/183 182/182/182
f 181/181/181 182/182/182 184/184/184
f 185/185/185 183/183/183 181/181/181
f 185/185/185 186/186/186 183/183/183
f 187/187/187 186/186/186 185/185/185
f 187/187/187 188/188/188 186/186/186
f 189/189/189 191/191/191 190/190/190
f 192/192/192 191/191/191 189/189/189
f 193/193/193 191/191/191 192/192/192
f 194/194/194 196/196/196 195/195/195
f 196/196/196 197/197/197 195/195/195
f 196/196/196 198/198/198 197/197/197
f 199/199/199 201/201/201 200/200/200
f 202/202/202 204/204/204 203/203/203
