# Generated by tools/yaml_mesh_converter/split_rpg21.py
# Original coordinates, UVs, normals and materials.
mtllib gun11.mtl

o gun11_rocket
v -0.0523470752 0.297959507 -0.616407156
v 0.0523470715 0.297959507 -0.772884905
v 0.0523470715 0.297959507 -0.616407156
v -0.0523474067 0.297959507 -0.772884905
v 0.104694307 0.202721179 -0.772884905
v 0.104694307 0.202721179 -0.616407156
v 0.0523470715 0.107483506 -0.772884905
v 0.0523470715 0.107483506 -0.616407156
v 0.0381280296 0.272089839 -0.799486578
v -0.0381283648 0.272089839 -0.799486578
v -1.65679381e-07 0.133352876 -0.799486578
v 0.0762562305 0.202721179 -0.799486578
v -1.65679381e-07 0.133352876 -0.799486578
v 0.0381280296 0.272089839 -0.799486578
v 0.0910177901 0.202721179 -0.848237157
v 0.0455088094 0.285518169 -0.848237157
v 0.0455088094 0.285518169 -0.848237157
v -0.0455091447 0.285518169 -0.848237157
v -1.65679381e-07 0.216497362 -1.0975548
v -1.65679381e-07 0.216497362 -1.0975548
v 0.0125507247 0.19418177 -1.0975548
v 0.0455088094 0.119924523 -0.848237157
v -1.65679381e-07 0.133352876 -0.799486578
v -0.0455091447 0.119924523 -0.848237157
v -0.0910181254 0.202721179 -0.848237157
v -0.0125510553 0.19418177 -1.0975548
v -0.0455091447 0.285518169 -0.848237157
v -0.0762562305 0.202721179 -0.799486578
v -0.0381283648 0.272089839 -0.799486578
v -0.104694307 0.202721179 -0.772884905
v -0.0523474067 0.297959507 -0.772884905
v -0.104694307 0.202721179 -0.616407156
v -0.0523470752 0.107483506 -0.616407156
v -0.0523470752 0.107483506 -0.772884905
v -0.0523470752 0.297959507 -0.616407156
v -1.65679381e-07 0.133352876 -0.799486578
v 0.0523470715 0.107483506 -0.616407156
v -0.0523470752 0.107483506 -0.772884905
v -0.0523470752 0.107483506 -0.616407156
v 0.0523470715 0.107483506 -0.772884905
v -1.65679381e-07 0.133352876 -0.799486578
v -1.65679381e-07 0.133352876 -0.799486578
v 0.0455088094 0.119924523 -0.848237157
v -0.0455091447 0.119924523 -0.848237157
v -0.0125510553 0.19418177 -1.0975548
v 0.0125507247 0.19418177 -1.0975548
v 0.0523470715 0.297959507 -0.616407156
v -0.104694307 0.202721179 -0.616407156
v -0.0523470752 0.297959507 -0.616407156
v 0.104694307 0.202721179 -0.616407156
v -0.0523470752 0.107483506 -0.616407156
v 0.0523470715 0.107483506 -0.616407156
v -0.0125510553 0.19418177 -1.0975548
v 0.0125507247 0.19418177 -1.0975548
v -1.65679381e-07 0.216497362 -1.0975548
vt 0.832184017 0.0479869992
vt 0.890516996 0.132094994
vt 0.890515983 0.0479770005
vt 0.832186997 0.132088006
vt 0.93966198 0.132103994
vt 0.939662993 0.0479680002
vt 0.985199988 0.132103994
vt 0.985199988 0.0479680002
vt 0.880815029 0.152030006
vt 0.841376007 0.152031004
vt 0.974793017 0.151369005
vt 0.93966198 0.151369005
vt 0.974793017 0.151369005
vt 0.902364016 0.151369005
vt 0.93966198 0.172619998
vt 0.898235977 0.172619998
vt 0.884782016 0.169752002
vt 0.837409973 0.169753999
vt 0.860328972 0.318246007
vt 0.93225503 0.306674004
vt 0.944253981 0.306674004
vt 0.980058014 0.172619998
vt 0.974793017 0.151369005
vt 0.980072975 0.172620997
vt 0.939718008 0.172625005
vt 0.944310009 0.306695998
vt 0.898235977 0.172619998
vt 0.939718008 0.151371002
vt 0.902363002 0.151368007
vt 0.93966198 0.132101998
vt 0.890515983 0.132103994
vt 0.939662993 0.0479619987
vt 0.985216022 0.0479650013
vt 0.985216022 0.132102996
vt 0.890433013 0.0477470011
vt 0.974793017 0.151369005
vt 0.772090018 0.0479080006
vt 0.829291999 0.133402005
vt 0.829291999 0.0479080006
vt 0.772090018 0.133402005
vt 0.800691009 0.153676003
vt 0.237104997 0.329771012
vt 0.213787004 0.354613006
vt 0.259362012 0.355569005
vt 0.240125999 0.485482991
vt 0.227557003 0.485219002
vt 0.906293988 0.324063003
vt 0.868236005 0.292295009
vt 0.878354013 0.319828987
vt 0.924116015 0.300763994
vt 0.886057973 0.268996
vt 0.913998008 0.273231
vt 0.938486993 0.316926986
vt 0.944253981 0.306674004
vt 0.93225503 0.306674004
vn 0 1 3.5475428e-16
vn 0.381382919 0.912788853 -0.146162847
vn 0.672911381 0.739723106 2.16397155e-16
vn 0 0.976469851 -0.21565396
vn 0.971362334 0.115965133 -0.207382024
vn 0.983627071 -0.180215939 -5.10492084e-17
vn 0.863692969 -0.474727469 -0.169317116
vn 0.876345982 -0.481682177 -1.0201041e-16
vn 0 0.919108346 -0.394004885
vn 0 0.999639557 0.0268468873
vn -0.343504133 -0.8253572 -0.448096422
vn 0.93709597 -0.106823908 -0.332324834
vn 0.667944783 -0.734269975 -0.121232714
vn 0.876053839 0.481519198 0.025863732
vn 0.993000533 0.0204504657 -0.116325919
vn 0.859007398 0.472149419 -0.197942459
vn 0 0.991549287 -0.129730531
vn 0 0.983048153 -0.183347561
vn 0 0.963750899 -0.26680368
vn 0.708271501 0.604026655 -0.365381008
vn 0.916420128 -0.287344798 -0.278580537
vn 0.874699081 -0.480776227 -0.0612840702
vn 0.635111368 -0.349087422 0.689036662
vn -0.874699081 -0.480776227 -0.0612840724
vn -0.990366578 -0.0698088428 -0.119585814
vn -0.95118266 0.0635316746 -0.302018663
vn -0.863208208 0.4762836 -0.16740825
vn -0.918923712 -0.110492012 -0.378643272
vn -0.809995479 0.445206799 -0.381704375
vn -0.98066422 -0.136346028 -0.14038322
vn -0.873997299 0.480386246 -0.0731968363
vn -0.983627349 0.180214422 6.94716917e-07
vn -0.876345996 -0.481682151 -6.8222304e-17
vn -0.803593106 -0.483965372 -0.346432732
vn -0.876347396 0.481679604 1.85683724e-06
vn -0.579658397 -0.637214209 -0.507891912
vn 0 -1 -1.7737714e-16
vn 0 -0.997110449 -0.0759654658
vn 0 -1 -1.7737714e-16
vn 0 -0.990164011 -0.139911512
vn 0 -0.716905574 -0.697170279
vn 0 -0.964094361 0.265559904
vn 0 -0.976304678 -0.216400497
vn 0 -0.979804932 -0.199955734
vn 0 -0.958393659 -0.28544981
vn 0 -0.958393659 -0.28544981
vn 0 -1.16573133e-15 1
vn 0 -6.9944058e-16 1
vn 0 -1.16573133e-15 1
vn 0 -4.662946e-16 1
vn 0 0 1
vn 0 0 1
vn 0 0 -1
vn 0 0 -1
vn 0 0 -1

usemtl gun0910
f 1/1/1 3/3/3 2/2/2
f 1/1/1 2/2/2 4/4/4
f 3/3/3 5/5/5 2/2/2
f 3/3/3 6/6/6 5/5/5
f 6/6/6 7/7/7 5/5/5
f 6/6/6 8/8/8 7/7/7
f 4/4/4 2/2/2 9/9/9
f 4/4/4 9/9/9 10/10/10
f 11/11/11 5/5/5 7/7/7
f 2/2/2 5/5/5 12/12/12
f 13/13/13 12/12/12 5/5/5
f 2/2/2 12/12/12 14/14/14
f 14/14/14 12/12/12 15/15/15
f 15/15/15 12/12/12 13/13/13
f 14/14/14 15/15/15 16/16/16
f 10/10/10 9/9/9 17/17/17
f 10/10/10 17/17/17 18/18/18
f 18/18/18 17/17/17 19/19/19
f 20/20/20 16/16/16 15/15/15
f 20/20/20 15/15/15 21/21/21
f 21/21/21 15/15/15 22/22/22
f 15/15/15 23/23/23 22/22/22
f 11/11/11 25/25/25 24/24/24
f 26/26/26 24/24/24 25/25/25
f 26/26/26 25/25/25 27/27/27
f 26/26/26 27/27/27 20/20/20
f 28/28/28 27/27/27 25/25/25
f 28/28/28 29/29/29 27/27/27
f 30/30/30 29/29/29 28/28/28
f 30/30/30 31/31/31 29/29/29
f 32/32/32 31/31/31 30/30/30
f 33/33/33 32/32/32 30/30/30
f 33/33/33 30/30/30 34/34/34
f 34/34/34 30/30/30 28/28/28
f 32/32/32 35/35/35 31/31/31
f 34/34/34 28/28/28 36/36/36
f 36/36/36 28/28/28 25/25/25
f 37/37/37 39/39/39 38/38/38
f 37/37/37 38/38/38 40/40/40
f 40/40/40 38/38/38 41/41/41
f 42/42/42 44/44/44 43/43/43
f 43/43/43 44/44/44 45/45/45
f 43/43/43 45/45/45 46/46/46
f 47/47/47 49/49/49 48/48/48
f 47/47/47 48/48/48 50/50/50
f 50/50/50 48/48/48 51/51/51
f 50/50/50 51/51/51 52/52/52
f 53/53/53 55/55/55 54/54/54
