# Generated by tools/yaml_mesh_converter/split_reload_parts.py
mtllib gun12.mtl
o gun12_reload
v 0.0709035397 0.231885433 -0.594332457
vt 0.763499975 0.506399989
vn 0.673459366 0.737053681 0.0566070139
v 0.0748609379 0.231885433 -0.641491473
vt 0.763000011 0.533100009
vn 0.660412631 0.722713459 -0.203814653
v -0.00164882478 0.301799744 -0.641491473
vt 0.716899991 0.533100009
vn 0.663595424 0.726288486 -0.179293469
v 0.0709035397 0.231885433 -0.594332457
vt 0.763499975 0.506399989
vn 0.673459366 0.737053681 0.0566070139
v -0.00164882478 0.301799744 -0.641491473
vt 0.716899991 0.533100009
vn 0.663595424 0.726288486 -0.179293469
v -0.001648832 0.298171908 -0.594332457
vt 0.716600001 0.506399989
vn 0.673422796 0.737079794 0.0567019885
v -0.00164882478 0.301799744 -0.641491473
vt 0.716899991 0.533100009
vn 0.663595424 0.726288486 -0.179293469
v 0.0748609379 0.231885433 -0.641491473
vt 0.763000011 0.533100009
vn 0.660412631 0.722713459 -0.203814653
v 0.0478187017 0.230566472 -0.673810303
vt 0.763499975 0.546999991
vn 0.674140574 0.737477261 0.0407648995
v -0.00164882478 0.301799744 -0.641491473
vt 0.716899991 0.533100009
vn 0.663595424 0.726288486 -0.179293469
v 0.0478187017 0.230566472 -0.673810303
vt 0.763499975 0.546999991
vn 0.674140574 0.737477261 0.0407648995
v -0.00164882001 0.275746852 -0.673810303
vt 0.726899981 0.546999991
vn 0.673998851 0.73795423 0.0338984369
v 0.0478187017 0.230566472 -0.673810303
vt 0.763499975 0.546999991
vn 0.674140574 0.737477261 0.0407648995
v -0.00164879661 0.310373962 -0.828149021
vt 0.704200029 0.637799978
vn 0.674678822 0.737784214 -0.0219759211
v -0.00164882001 0.275746852 -0.673810303
vt 0.726899981 0.546999991
vn 0.673998851 0.73795423 0.0338984369
v 0.0478187017 0.230566472 -0.673810303
vt 0.763499975 0.546999991
vn 0.674140574 0.737477261 0.0407648995
v 0.0834353492 0.232545108 -0.828149021
vt 0.761200011 0.637799978
vn 0.673387542 0.735025719 -0.0792868858
v -0.00164879661 0.310373962 -0.828149021
vt 0.704200029 0.637799978
vn 0.674678822 0.737784214 -0.0219759211
v 0.0834353492 0.232545108 -0.828149021
vt 0.761200011 0.637799978
vn 0.673387542 0.735025719 -0.0792868858
v -0.00164876133 0.241449177 -1.06196535
vt 0.750800014 0.781400025
vn 0.661545285 0.721110111 -0.205810698
v -0.00164879661 0.310373962 -0.828149021
vt 0.704200029 0.637799978
vn 0.674678822 0.737784214 -0.0219759211
v 0.0834353492 0.232545108 -0.828149021
vt 0.761200011 0.637799978
vn 0.673387542 0.735025719 -0.0792868858
v 0.0125319324 0.228258014 -1.06196535
vt 0.761200011 0.781400025
vn 0.673885135 0.724436375 -0.145157718
v -0.00164876133 0.241449177 -1.06196535
vt 0.750800014 0.781400025
vn 0.661545285 0.721110111 -0.205810698
v 0.0125319324 0.228258014 -1.06196535
vt 0.761200011 0.781400025
vn 0.673885135 0.724436375 -0.145157718
v -0.00164875248 0.241449177 -1.12033713
vt 0.750999987 0.813600004
vn 0.68109898 0.732191355 1.00519227e-07
v -0.00164876133 0.241449177 -1.06196535
vt 0.750800014 0.781400025
vn 0.661545285 0.721110111 -0.205810698
v 0.0125319324 0.228258014 -1.06196535
vt 0.761200011 0.781400025
vn 0.673885135 0.724436375 -0.145157718
v 0.0125319408 0.228258014 -1.12033713
vt 0.760699987 0.813600004
vn 0.681098986 0.732191349 9.78024919e-08
v -0.00164875248 0.241449177 -1.12033713
vt 0.750999987 0.813600004
vn 0.68109898 0.732191355 1.00519227e-07
v -0.001648832 0.156694904 -0.594332457
vt 0.81370002 0.506399989
vn 0 -0.996811005 0.0797986251
v -0.00164882478 0.153067082 -0.641491473
vt 0.812900007 0.533100009
vn 0 -0.92934061 -0.369223552
v 0.0748609379 0.231885433 -0.641491473
vt 0.763000011 0.533100009
vn 0.714244928 -0.691828303 -0.105961225
v -0.001648832 0.156694904 -0.594332457
vt 0.81370002 0.506399989
vn 0 -0.996811005 0.0797986251
v 0.0748609379 0.231885433 -0.641491473
vt 0.763000011 0.533100009
vn 0.714244928 -0.691828303 -0.105961225
v 0.0709035397 0.231885433 -0.594332457
vt 0.763499975 0.506399989
vn 0.71830993 -0.693107091 0.0602777302
v -0.00164882478 0.153067082 -0.641491473
vt 0.812900007 0.533100009
vn 0 -0.92934061 -0.369223552
v 0.0478187017 0.230566472 -0.673810303
vt 0.763499975 0.546999991
vn 0.715101606 -0.692478698 -0.0954093599
v 0.0748609379 0.231885433 -0.641491473
vt 0.763000011 0.533100009
vn 0.714244928 -0.691828303 -0.105961225
v -0.00164882478 0.153067082 -0.641491473
vt 0.812900007 0.533100009
vn 0 -0.92934061 -0.369223552
v -0.00164882001 0.179449812 -0.673810303
vt 0.802100003 0.546999991
vn -1.91751478e-17 -0.988877479 0.148732413
v 0.0478187017 0.230566472 -0.673810303
vt 0.763499975 0.546999991
vn 0.715101606 -0.692478698 -0.0954093599
v -0.00164882001 0.179449812 -0.673810303
vt 0.802100003 0.546999991
vn -1.91751478e-17 -0.988877479 0.148732413
v 0.0834353492 0.232545108 -0.828149021
vt 0.761200011 0.637799978
vn 0.717818268 -0.69593448 -0.0203010776
v 0.0478187017 0.230566472 -0.673810303
vt 0.763499975 0.546999991
vn 0.715101606 -0.692478698 -0.0954093599
v -0.00164882001 0.179449812 -0.673810303
vt 0.802100003 0.546999991
vn -1.91751478e-17 -0.988877479 0.148732413
v -0.00164879661 0.144822702 -0.828149021
vt 0.821799994 0.637799978
vn 0 -0.99433085 -0.106330432
v 0.0834353492 0.232545108 -0.828149021
vt 0.761200011 0.637799978
vn 0.717818268 -0.69593448 -0.0203010776
v -0.00164879661 0.144822702 -0.828149021
vt 0.821799994 0.637799978
vn 0 -0.99433085 -0.106330432
v 0.0125319324 0.228258014 -1.06196535
vt 0.761200011 0.781400025
vn 0.703701997 -0.683423423 -0.194257364
v 0.0834353492 0.232545108 -0.828149021
vt 0.761200011 0.637799978
vn 0.717818268 -0.69593448 -0.0203010776
v -0.00164879661 0.144822702 -0.828149021
vt 0.821799994 0.637799978
vn 0 -0.99433085 -0.106330432
v -0.00164876133 0.213747486 -1.06196535
vt 0.772300005 0.781400025
vn 0 -0.981214498 -0.192919957
v 0.0125319324 0.228258014 -1.06196535
vt 0.761200011 0.781400025
vn 0.703701997 -0.683423423 -0.194257364
v -0.00164876133 0.213747486 -1.06196535
vt 0.772300005 0.781400025
vn 0 -0.981214498 -0.192919957
v 0.0125319408 0.228258014 -1.12033713
vt 0.760699987 0.813600004
vn 0.71518841 -0.698931712 1.05550276e-07
v 0.0125319324 0.228258014 -1.06196535
vt 0.761200011 0.781400025
vn 0.703701997 -0.683423423 -0.194257364
v -0.00164876133 0.213747486 -1.06196535
vt 0.772300005 0.781400025
vn 0 -0.981214498 -0.192919957
v -0.00164875248 0.213747486 -1.12033713
vt 0.771099985 0.813600004
vn 0 -1 -4.83338568e-16
v 0.0125319408 0.228258014 -1.12033713
vt 0.760699987 0.813600004
vn 0.71518841 -0.698931712 1.05550276e-07
v -0.0778288171 0.231885433 -0.641491473
vt 0.763000011 0.533100009
vn -0.715186 -0.690829091 -0.106132712
v -0.00164882478 0.153067082 -0.641491473
vt 0.812900007 0.533100009
vn 0 -0.92934061 -0.369223552
v -0.001648832 0.156694904 -0.594332457
vt 0.81370002 0.506399989
vn 0 -0.996811005 0.0797986251
v -0.0778288171 0.231885433 -0.641491473
vt 0.763000011 0.533100009
vn -0.715186 -0.690829091 -0.106132712
v -0.001648832 0.156694904 -0.594332457
vt 0.81370002 0.506399989
vn 0 -0.996811005 0.0797986251
v -0.0742011964 0.231885433 -0.594332457
vt 0.763499975 0.506399989
vn -0.718518482 -0.693308257 0.0552707136
v -0.0158294495 0.228258014 -1.06196535
vt 0.761200011 0.781400025
vn -0.703702003 -0.683423359 -0.194257573
v -0.00164876133 0.213747486 -1.06196535
vt 0.772300005 0.781400025
vn 0 -0.981214498 -0.192919957
v -0.00164879661 0.144822702 -0.828149021
vt 0.821799994 0.637799978
vn 0 -0.99433085 -0.106330432
v -0.0158294495 0.228258014 -1.06196535
vt 0.761200011 0.781400025
vn -0.703702003 -0.683423359 -0.194257573
v -0.00164879661 0.144822702 -0.828149021
vt 0.821799994 0.637799978
vn 0 -0.99433085 -0.106330432
v -0.0867329389 0.232545108 -0.828149021
vt 0.761200011 0.637799978
vn -0.717818274 -0.695934468 -0.0203013051
v -0.0867329389 0.232545108 -0.828149021
vt 0.761200011 0.637799978
vn -0.717818274 -0.695934468 -0.0203013051
v -0.00164879661 0.144822702 -0.828149021
vt 0.821799994 0.637799978
vn 0 -0.99433085 -0.106330432
v -0.00164882001 0.179449812 -0.673810303
vt 0.802100003 0.546999991
vn -1.91751478e-17 -0.988877479 0.148732413
v -0.0867329389 0.232545108 -0.828149021
vt 0.761200011 0.637799978
vn -0.717818274 -0.695934468 -0.0203013051
v -0.00164882001 0.179449812 -0.673810303
vt 0.802100003 0.546999991
vn -1.91751478e-17 -0.988877479 0.148732413
v -0.0511163436 0.230566472 -0.673810303
vt 0.763499975 0.546999991
vn -0.715516329 -0.692249495 -0.0939522193
v -0.0511163436 0.230566472 -0.673810303
vt 0.763499975 0.546999991
vn -0.715516329 -0.692249495 -0.0939522193
v -0.00164882001 0.179449812 -0.673810303
vt 0.802100003 0.546999991
vn -1.91751478e-17 -0.988877479 0.148732413
v -0.00164882478 0.153067082 -0.641491473
vt 0.812900007 0.533100009
vn 0 -0.92934061 -0.369223552
v -0.0511163436 0.230566472 -0.673810303
vt 0.763499975 0.546999991
vn -0.715516329 -0.692249495 -0.0939522193
v -0.00164882478 0.153067082 -0.641491473
vt 0.812900007 0.533100009
vn 0 -0.92934061 -0.369223552
v -0.0778288171 0.231885433 -0.641491473
vt 0.763000011 0.533100009
vn -0.715186 -0.690829091 -0.106132712
v -0.0158294402 0.228258014 -1.12033713
vt 0.760699987 0.813600004
vn -0.715188547 -0.698931572 -1.11255719e-07
v -0.00164875248 0.213747486 -1.12033713
vt 0.771099985 0.813600004
vn 0 -1 -4.83338568e-16
v -0.00164876133 0.213747486 -1.06196535
vt 0.772300005 0.781400025
vn 0 -0.981214498 -0.192919957
v -0.0158294402 0.228258014 -1.12033713
vt 0.760699987 0.813600004
vn -0.715188547 -0.698931572 -1.11255719e-07
v -0.00164876133 0.213747486 -1.06196535
vt 0.772300005 0.781400025
vn 0 -0.981214498 -0.192919957
v -0.0158294495 0.228258014 -1.06196535
vt 0.761200011 0.781400025
vn -0.703702003 -0.683423359 -0.194257573
v -0.001648832 0.298171908 -0.594332457
vt 0.65990001 0.756900012
vn 0 -7.84737445e-16 1
v -0.001648832 0.156694904 -0.594332457
vt 0.66109997 0.663500011
vn 0 -7.84737445e-16 1
v 0.0709035397 0.231885433 -0.594332457
vt 0.708400011 0.71359998
vn 8.13272157e-16 -7.84737445e-16 1
v -0.001648832 0.298171908 -0.594332457
vt 0.65990001 0.756900012
vn 0 -7.84737445e-16 1
v -0.0742011964 0.231885433 -0.594332457
vt 0.612500012 0.712400019
vn -8.13272238e-16 -7.84737445e-16 1
v -0.001648832 0.156694904 -0.594332457
vt 0.66109997 0.663500011
vn 0 -7.84737445e-16 1
v -0.00164875248 0.241449177 -1.12033713
vt 0.802299976 0.775900006
vn 0 0 -1
v -0.00164875248 0.213747486 -1.12033713
vt 0.801800013 0.811600029
vn 0 0 -1
v -0.0158294402 0.228258014 -1.12033713
vt 0.783699989 0.792400002
vn 0 0 -1
v -0.00164875248 0.241449177 -1.12033713
vt 0.802299976 0.775900006
vn 0 0 -1
v 0.0125319408 0.228258014 -1.12033713
vt 0.8204 0.792900026
vn 0 0 -1
v -0.00164875248 0.213747486 -1.12033713
vt 0.801800013 0.811600029
vn 0 0 -1
v -0.00164882478 0.301799744 -0.641491473
vt 0.716899991 0.533100009
vn -0.664425827 0.72548042 -0.179489502
v -0.0778288171 0.231885433 -0.641491473
vt 0.763000011 0.533100009
vn -0.661908198 0.721228037 -0.204224523
v -0.0742011964 0.231885433 -0.594332457
vt 0.763499975 0.506399989
vn -0.674359868 0.736406417 0.0542619371
v -0.00164882478 0.301799744 -0.641491473
vt 0.716899991 0.533100009
vn -0.664425827 0.72548042 -0.179489502
v -0.0742011964 0.231885433 -0.594332457
vt 0.763499975 0.506399989
vn -0.674359868 0.736406417 0.0542619371
v -0.001648832 0.298171908 -0.594332457
vt 0.716600001 0.506399989
vn -0.67342284 0.737079769 0.0567017805
v -0.00164882478 0.301799744 -0.641491473
vt 0.716899991 0.533100009
vn -0.664425827 0.72548042 -0.179489502
v -0.0511163436 0.230566472 -0.673810303
vt 0.763499975 0.546999991
vn -0.674278585 0.737311722 0.0414706484
v -0.0778288171 0.231885433 -0.641491473
vt 0.763000011 0.533100009
vn -0.661908198 0.721228037 -0.204224523
v -0.00164882478 0.301799744 -0.641491473
vt 0.716899991 0.533100009
vn -0.664425827 0.72548042 -0.179489502
v -0.00164882001 0.275746852 -0.673810303
vt 0.726899981 0.546999991
vn -0.673998841 0.737954248 0.0338982342
v -0.0511163436 0.230566472 -0.673810303
vt 0.763499975 0.546999991
vn -0.674278585 0.737311722 0.0414706484
v -0.00164879661 0.310373962 -0.828149021
vt 0.704200029 0.637799978
vn -0.674678828 0.737784202 -0.0219761276
v -0.0511163436 0.230566472 -0.673810303
vt 0.763499975 0.546999991
vn -0.674278585 0.737311722 0.0414706484
v -0.00164882001 0.275746852 -0.673810303
vt 0.726899981 0.546999991
vn -0.673998841 0.737954248 0.0338982342
v -0.00164879661 0.310373962 -0.828149021
vt 0.704200029 0.637799978
vn -0.674678828 0.737784202 -0.0219761276
v -0.0867329389 0.232545108 -0.828149021
vt 0.761200011 0.637799978
vn -0.673387558 0.735025682 -0.079287095
v -0.0511163436 0.230566472 -0.673810303
vt 0.763499975 0.546999991
vn -0.674278585 0.737311722 0.0414706484
v -0.00164876133 0.241449177 -1.06196535
vt 0.750800014 0.781400025
vn -0.661545294 0.721110047 -0.205810894
v -0.0867329389 0.232545108 -0.828149021
vt 0.761200011 0.637799978
vn -0.673387558 0.735025682 -0.079287095
v -0.00164879661 0.310373962 -0.828149021
vt 0.704200029 0.637799978
vn -0.674678828 0.737784202 -0.0219761276
v -0.00164876133 0.241449177 -1.06196535
vt 0.750800014 0.781400025
vn -0.661545294 0.721110047 -0.205810894
v -0.0158294495 0.228258014 -1.06196535
vt 0.761200011 0.781400025
vn -0.673885255 0.724436218 -0.145157948
v -0.0867329389 0.232545108 -0.828149021
vt 0.761200011 0.637799978
vn -0.673387558 0.735025682 -0.079287095
v -0.00164875248 0.241449177 -1.12033713
vt 0.750999987 0.813600004
vn -0.681099124 0.732191221 -1.0595272e-07
v -0.0158294495 0.228258014 -1.06196535
vt 0.761200011 0.781400025
vn -0.673885255 0.724436218 -0.145157948
v -0.00164876133 0.241449177 -1.06196535
vt 0.750800014 0.781400025
vn -0.661545294 0.721110047 -0.205810894
v -0.00164875248 0.241449177 -1.12033713
vt 0.750999987 0.813600004
vn -0.681099124 0.732191221 -1.0595272e-07
v -0.0158294402 0.228258014 -1.12033713
vt 0.760699987 0.813600004
vn -0.68109913 0.732191215 -1.08669458e-07
v -0.0158294495 0.228258014 -1.06196535
vt 0.761200011 0.781400025
vn -0.673885255 0.724436218 -0.145157948
usemtl RPG-24-Newlambert15
f 1/1/1 2/2/2 3/3/3
f 4/4/4 5/5/5 6/6/6
f 7/7/7 8/8/8 9/9/9
f 10/10/10 11/11/11 12/12/12
f 13/13/13 14/14/14 15/15/15
f 16/16/16 17/17/17 18/18/18
f 19/19/19 20/20/20 21/21/21
f 22/22/22 23/23/23 24/24/24
f 25/25/25 26/26/26 27/27/27
f 28/28/28 29/29/29 30/30/30
f 31/31/31 32/32/32 33/33/33
f 34/34/34 35/35/35 36/36/36
f 37/37/37 38/38/38 39/39/39
f 40/40/40 41/41/41 42/42/42
f 43/43/43 44/44/44 45/45/45
f 46/46/46 47/47/47 48/48/48
f 49/49/49 50/50/50 51/51/51
f 52/52/52 53/53/53 54/54/54
f 55/55/55 56/56/56 57/57/57
f 58/58/58 59/59/59 60/60/60
f 61/61/61 62/62/62 63/63/63
f 64/64/64 65/65/65 66/66/66
f 67/67/67 68/68/68 69/69/69
f 70/70/70 71/71/71 72/72/72
f 73/73/73 74/74/74 75/75/75
f 76/76/76 77/77/77 78/78/78
f 79/79/79 80/80/80 81/81/81
f 82/82/82 83/83/83 84/84/84
f 85/85/85 86/86/86 87/87/87
f 88/88/88 89/89/89 90/90/90
f 91/91/91 92/92/92 93/93/93
f 94/94/94 95/95/95 96/96/96
f 97/97/97 98/98/98 99/99/99
f 100/100/100 101/101/101 102/102/102
f 103/103/103 104/104/104 105/105/105
f 106/106/106 107/107/107 108/108/108
f 109/109/109 110/110/110 111/111/111
f 112/112/112 113/113/113 114/114/114
f 115/115/115 116/116/116 117/117/117
f 118/118/118 119/119/119 120/120/120
f 121/121/121 122/122/122 123/123/123
f 124/124/124 125/125/125 126/126/126
f 127/127/127 128/128/128 129/129/129
f 130/130/130 131/131/131 132/132/132
