# Generated by tools/yaml_mesh_converter/split_reload_parts.py
mtllib gun13.mtl
o gun13_body
v 0.0605152734 0.329861939 0.0969607234
vt 0.101599999 0.00579999993
vn 5.21162916e-08 0.921365257 -0.388697908
v 0.0506217778 0.3120538 0.0547485054
vt 0.0940999985 0.0241
vn 6.04339083e-09 0.999156648 -0.041060843
v -0.0506217554 0.3120538 0.0547484905
vt 0.0173000004 0.0241
vn 1.80216368e-08 0.990925749 -0.134410418
v 0.0605152734 0.329861939 0.0969607234
vt 0.101599999 0.00579999993
vn 5.21162916e-08 0.921365257 -0.388697908
v -0.0506217554 0.3120538 0.0547484905
vt 0.0173000004 0.0241
vn 1.80216368e-08 0.990925749 -0.134410418
v -0.0605152659 0.329861939 0.0969607085
vt 0.00980000012 0.00579999993
vn 4.78561038e-08 0.921365261 -0.388697899
v 0.0506217778 0.3120538 0.0547485054
vt 0.0940999985 0.0241
vn 6.04339083e-09 0.999156648 -0.041060843
v -0.0506217256 0.3120538 -0.140813142
vt 0.0173000004 0.176400006
vn -1.90057594e-23 0.998831407 0.0483303333
v -0.0506217554 0.3120538 0.0547484905
vt 0.0173000004 0.0241
vn 1.80216368e-08 0.990925749 -0.134410418
v 0.0506217778 0.3120538 0.0547485054
vt 0.0940999985 0.0241
vn 6.04339083e-09 0.999156648 -0.041060843
v 0.0506218076 0.3120538 -0.140813142
vt 0.0940999985 0.176400006
vn 0 0.986682554 0.162657729
v -0.0506217256 0.3120538 -0.140813142
vt 0.0173000004 0.176400006
vn -1.90057594e-23 0.998831407 0.0483303333
v 0.0506218076 0.3120538 -0.140813142
vt 0.0940999985 0.176400006
vn 0 0.986682554 0.162657729
v -0.062164139 0.332830071 -0.179068089
vt 0.00860000029 0.211199999
vn 0 0.878763833 0.477256876
v -0.0506217256 0.3120538 -0.140813142
vt 0.0173000004 0.176400006
vn -1.90057594e-23 0.998831407 0.0483303333
v 0.0506218076 0.3120538 -0.140813142
vt 0.0940999985 0.176400006
vn 0 0.986682554 0.162657729
v 0.0621642321 0.332830071 -0.179068089
vt 0.102799997 0.211199999
vn 0 0.878763833 0.477256876
v -0.062164139 0.332830071 -0.179068089
vt 0.00860000029 0.211199999
vn 0 0.878763833 0.477256876
v 0.121195428 0.215427339 0.0969607383
vt 0.109499998 0.115000002
vn 0.906427223 -0.0253047823 -0.421603318
v 0.101408429 0.215427339 0.0547485128
vt 0.140200004 0.115000002
vn 0.991628491 -0.0971865871 -0.0850159035
v 0.0506217778 0.3120538 0.0547485054
vt 0.140200004 0.1822
vn 0.87735845 0.461848322 -0.13014714
v 0.121195428 0.215427339 0.0969607383
vt 0.109499998 0.115000002
vn 0.906427223 -0.0253047823 -0.421603318
v 0.0506217778 0.3120538 0.0547485054
vt 0.140200004 0.1822
vn 0.87735845 0.461848322 -0.13014714
v 0.0605152734 0.329861939 0.0969607234
vt 0.109499998 0.199399993
vn 0.818954188 0.434259055 -0.37514412
v 0.000164896497 0.0894499794 0.0966308787
vt 0.109499998 0.00810000021
vn 0.276285855 -0.875542779 -0.39634703
v 0.101408429 0.215427339 0.0547485128
vt 0.140200004 0.115000002
vn 0.991628491 -0.0971865871 -0.0850159035
v 0.121195428 0.215427339 0.0969607383
vt 0.109499998 0.115000002
vn 0.906427223 -0.0253047823 -0.421603318
v 0.000164896497 0.0894499794 0.0966308787
vt 0.109499998 0.00810000021
vn 0.276285855 -0.875542779 -0.39634703
v 0.000164902813 0.107587941 0.0547484979
vt 0.140200004 0.0226000007
vn 0.203543978 -0.974968282 -0.0894801573
v 0.101408429 0.215427339 0.0547485128
vt 0.140200004 0.115000002
vn 0.991628491 -0.0971865871 -0.0850159035
v -0.121195428 0.215427339 0.0969606936
vt 0.1096 0.114799999
vn -0.888878102 -0.221238124 -0.401185011
v 0.000164902813 0.107587941 0.0547484979
vt 0.140200004 0.0226000007
vn 0.203543978 -0.974968282 -0.0894801573
v 0.000164896497 0.0894499794 0.0966308787
vt 0.109499998 0.00810000021
vn 0.276285855 -0.875542779 -0.39634703
v -0.121195428 0.215427339 0.0969606936
vt 0.1096 0.114799999
vn -0.888878102 -0.221238124 -0.401185011
v -0.101408415 0.215427339 0.054748483
vt 0.140300006 0.114799999
vn -0.906479432 -0.418450699 -0.0565159452
v 0.000164902813 0.107587941 0.0547484979
vt 0.140200004 0.0226000007
vn 0.203543978 -0.974968282 -0.0894801573
v -0.121195428 0.215427339 0.0969606936
vt 0.1096 0.114799999
vn -0.888878102 -0.221238124 -0.401185011
v -0.0506217554 0.3120538 0.0547484905
vt 0.140300006 0.181999996
vn -0.882313033 0.46416736 -0.0779254346
v -0.101408415 0.215427339 0.054748483
vt 0.140300006 0.114799999
vn -0.906479432 -0.418450699 -0.0565159452
v -0.121195428 0.215427339 0.0969606936
vt 0.1096 0.114799999
vn -0.888878102 -0.221238124 -0.401185011
v -0.0605152659 0.329861939 0.0969607085
vt 0.1096 0.199300006
vn -0.818954026 0.43425912 -0.375144399
v -0.0506217554 0.3120538 0.0547484905
vt 0.140300006 0.181999996
vn -0.882313033 0.46416736 -0.0779254346
v -0.0506217554 0.3120538 0.0547484905
vt 0.140300006 0.181999996
vn -0.882313033 0.46416736 -0.0779254346
v -0.101408385 0.215427339 -0.140813172
vt 0.291500002 0.114799999
vn -0.990552004 -0.0935843974 0.100243144
v -0.101408415 0.215427339 0.054748483
vt 0.140300006 0.114799999
vn -0.906479432 -0.418450699 -0.0565159452
v -0.0506217554 0.3120538 0.0547484905
vt 0.140300006 0.181999996
vn -0.882313033 0.46416736 -0.0779254346
v -0.0506217256 0.3120538 -0.140813142
vt 0.291500002 0.181999996
vn -0.874155164 0.459815396 0.15627716
v -0.101408385 0.215427339 -0.140813172
vt 0.291500002 0.114799999
vn -0.990552004 -0.0935843974 0.100243144
v -0.0506217256 0.3120538 -0.140813142
vt 0.291500002 0.181999996
vn -0.874155164 0.459815396 0.15627716
v -0.124163441 0.215427339 -0.179068118
vt 0.320600003 0.114799999
vn -0.859902417 -0.0291916739 0.509623076
v -0.101408385 0.215427339 -0.140813172
vt 0.291500002 0.114799999
vn -0.990552004 -0.0935843974 0.100243144
v -0.0506217256 0.3120538 -0.140813142
vt 0.291500002 0.181999996
vn -0.874155164 0.459815396 0.15627716
v -0.062164139 0.332830071 -0.179068089
vt 0.320600003 0.2016
vn -0.784404972 0.414236929 0.461645542
v -0.124163441 0.215427339 -0.179068118
vt 0.320600003 0.114799999
vn -0.859902417 -0.0291916739 0.509623076
v -0.101408385 0.215427339 -0.140813172
vt 0.291500002 0.114799999
vn -0.990552004 -0.0935843974 0.100243144
v -0.124163441 0.215427339 -0.179068118
vt 0.320600003 0.114799999
vn -0.859902417 -0.0291916739 0.509623076
v 0.000164938116 0.0894499794 -0.179068089
vt 0.320600003 0.0055999998
vn -0.655429787 -0.646850449 0.389867018
v -0.101408415 0.215427339 0.054748483
vt 0.140300006 0.114799999
vn -0.906479432 -0.418450699 -0.0565159452
v -0.101408385 0.215427339 -0.140813172
vt 0.291500002 0.114799999
vn -0.990552004 -0.0935843974 0.100243144
v 0.000164932339 0.110226251 -0.140813142
vt 0.291500002 0.0225000009
vn -0.298675478 -0.952931603 0.0520991342
v -0.101408415 0.215427339 0.054748483
vt 0.140300006 0.114799999
vn -0.906479432 -0.418450699 -0.0565159452
v 0.000164932339 0.110226251 -0.140813142
vt 0.291500002 0.0225000009
vn -0.298675478 -0.952931603 0.0520991342
v 0.000164902813 0.107587941 0.0547484979
vt 0.140200004 0.0226000007
vn 0.203543978 -0.974968282 -0.0894801573
v -0.101408385 0.215427339 -0.140813172
vt 0.291500002 0.114799999
vn -0.990552004 -0.0935843974 0.100243144
v 0.000164938116 0.0894499794 -0.179068089
vt 0.320600003 0.0055999998
vn 0.318003989 -0.824978751 0.467208222
v 0.000164932339 0.110226251 -0.140813142
vt 0.291500002 0.0225000009
vn -0.298675478 -0.952931603 0.0520991342
v 0.101408459 0.215427339 -0.140813112
vt 0.291399986 0.115000002
vn 0.892265748 -0.443581738 0.0842441538
v 0.000164932339 0.110226251 -0.140813142
vt 0.291500002 0.0225000009
vn -0.298675478 -0.952931603 0.0520991342
v 0.000164938116 0.0894499794 -0.179068089
vt 0.320600003 0.0055999998
vn 0.318003989 -0.824978751 0.467208222
v 0.000164902813 0.107587941 0.0547484979
vt 0.140200004 0.0226000007
vn 0.203543978 -0.974968282 -0.0894801573
v 0.000164932339 0.110226251 -0.140813142
vt 0.291500002 0.0225000009
vn -0.298675478 -0.952931603 0.0520991342
v 0.101408459 0.215427339 -0.140813112
vt 0.291399986 0.115000002
vn 0.892265748 -0.443581738 0.0842441538
v 0.000164902813 0.107587941 0.0547484979
vt 0.140200004 0.0226000007
vn 0.203543978 -0.974968282 -0.0894801573
v 0.101408459 0.215427339 -0.140813112
vt 0.291399986 0.115000002
vn 0.892265748 -0.443581738 0.0842441538
v 0.101408429 0.215427339 0.0547485128
vt 0.140200004 0.115000002
vn 0.991628491 -0.0971865871 -0.0850159035
v 0.101408459 0.215427339 -0.140813112
vt 0.291399986 0.115000002
vn 0.892265748 -0.443581738 0.0842441538
v 0.000164938116 0.0894499794 -0.179068089
vt 0.320600003 0.0055999998
vn 0.318003989 -0.824978751 0.467208222
v 0.124163531 0.215427339 -0.179068059
vt 0.320499986 0.115000002
vn 0.859922902 -0.028358279 0.509635566
v 0.0506218076 0.3120538 -0.140813142
vt 0.291399986 0.1822
vn 0.881271694 0.463409055 0.0928022065
v 0.101408459 0.215427339 -0.140813112
vt 0.291399986 0.115000002
vn 0.892265748 -0.443581738 0.0842441538
v 0.124163531 0.215427339 -0.179068059
vt 0.320499986 0.115000002
vn 0.859922902 -0.028358279 0.509635566
v 0.0506218076 0.3120538 -0.140813142
vt 0.291399986 0.1822
vn 0.881271694 0.463409055 0.0928022065
v 0.124163531 0.215427339 -0.179068059
vt 0.320499986 0.115000002
vn 0.859922902 -0.028358279 0.509635566
v 0.0621642321 0.332830071 -0.179068089
vt 0.320499986 0.201800004
vn 0.78440478 0.414237037 0.461645771
v 0.101408429 0.215427339 0.0547485128
vt 0.140200004 0.115000002
vn 0.991628491 -0.0971865871 -0.0850159035
v 0.101408459 0.215427339 -0.140813112
vt 0.291399986 0.115000002
vn 0.892265748 -0.443581738 0.0842441538
v 0.0506218076 0.3120538 -0.140813142
vt 0.291399986 0.1822
vn 0.881271694 0.463409055 0.0928022065
v 0.101408429 0.215427339 0.0547485128
vt 0.140200004 0.115000002
vn 0.991628491 -0.0971865871 -0.0850159035
v 0.0506218076 0.3120538 -0.140813142
vt 0.291399986 0.1822
vn 0.881271694 0.463409055 0.0928022065
v 0.0506217778 0.3120538 0.0547485054
vt 0.140200004 0.1822
vn 0.87735845 0.461848322 -0.13014714
v 0.121195428 0.215427339 0.0969607383
vt 0.367700011 0.0970000029
vn -1.72654004e-07 -0.00110850433 0.999999386
v -0.121195428 0.215427339 0.0969606936
vt 0.366100013 0.192100003
vn -1.84427095e-07 -0.00137198097 0.999999059
v 0.000164896497 0.0894499794 0.0966308787
vt 0.41870001 0.146400005
vn -1.84426637e-07 -0.0026182173 0.999996572
v -0.0605152659 0.329861939 0.0969607085
vt 0.324299991 0.165199995
vn -1.6400973e-07 5.09660784e-15 1
v -0.121195428 0.215427339 0.0969606936
vt 0.366100013 0.192100003
vn -1.84427095e-07 -0.00137198097 0.999999059
v 0.121195428 0.215427339 0.0969607383
vt 0.367700011 0.0970000029
vn -1.72654004e-07 -0.00110850433 0.999999386
v -0.0605152659 0.329861939 0.0969607085
vt 0.324299991 0.165199995
vn -1.6400973e-07 5.09660784e-15 1
v 0.121195428 0.215427339 0.0969607383
vt 0.367700011 0.0970000029
vn -1.72654004e-07 -0.00110850433 0.999999386
v 0.0605152734 0.329861939 0.0969607234
vt 0.324000001 0.120999999
vn -1.23119018e-07 6.49303627e-08 1
v 0.0621642321 0.332830071 -0.179068089
vt 0.332199991 0.0263999999
vn 1.59945767e-07 -2.30119544e-15 -1
v 0.124163531 0.215427339 -0.179068059
vt 0.376100004 0.00410000002
vn 2.40024852e-07 -6.1144571e-08 -1
v -0.124163441 0.215427339 -0.179068118
vt 0.374599993 0.0962999985
vn 1.9333262e-07 1.30984301e-10 -1
v 0.0621642321 0.332830071 -0.179068089
vt 0.332199991 0.0263999999
vn 1.59945767e-07 -2.30119544e-15 -1
v -0.124163441 0.215427339 -0.179068118
vt 0.374599993 0.0962999985
vn 1.9333262e-07 1.30984301e-10 -1
v -0.062164139 0.332830071 -0.179068089
vt 0.331400007 0.0724999979
vn 0 2.53846923e-07 -1
v -0.124163441 0.215427339 -0.179068118
vt 0.374599993 0.0962999985
vn 1.9333262e-07 1.30984301e-10 -1
v 0.124163531 0.215427339 -0.179068059
vt 0.376100004 0.00410000002
vn 2.40024852e-07 -6.1144571e-08 -1
v 0.000164938116 0.0894499794 -0.179068089
vt 0.425599992 0.050999999
vn 2.40024852e-07 3.14171885e-10 -1
v 0.000164800978 0.254341573 0.7291556
vt 0.205400005 0.485900015
vn 0 0.854269144 0.519830963
v 0.0423770845 0.208501518 0.7291556
vt 0.205400005 0.453200012
vn 0.782031863 -0.213282049 0.585608174
v 0.0575471334 0.208501518 0.70211339
vt 0.222100005 0.452399999
vn 0.984428686 0.175575057 0.00857679472
v 0.000164800978 0.254341573 0.7291556
vt 0.205400005 0.485900015
vn 0 0.854269144 0.519830963
v 0.0575471334 0.208501518 0.70211339
vt 0.222100005 0.452399999
vn 0.984428686 0.175575057 0.00857679472
v 0.000164805067 0.270830721 0.70211339
vt 0.222100005 0.487100005
vn 0 0.999927095 0.012074965
v 0.0575471334 0.208501518 0.70211339
vt 0.222100005 0.452399999
vn 0.984428686 0.175575057 0.00857679472
v 0.000164974175 0.26819241 -0.417831421
vt 0.893100023 0.487100005
vn -3.38510718e-18 0.9998823 -0.0153422791
v 0.000164805067 0.270830721 0.70211339
vt 0.222100005 0.487100005
vn 0 0.999927095 0.012074965
v 0.0575471334 0.208501518 0.70211339
vt 0.222100005 0.452399999
vn 0.984428686 0.175575057 0.00857679472
v 0.0552388169 0.208501518 -0.417831421
vt 0.893100023 0.452399999
vn 0.995433062 0.0930985166 -0.0211112804
v 0.000164974175 0.26819241 -0.417831421
vt 0.893100023 0.487100005
vn -3.38510718e-18 0.9998823 -0.0153422791
v 0.0552388169 0.208501518 -0.417831421
vt 0.893100023 0.452399999
vn 0.995433062 0.0930985166 -0.0211112804
v 0.00016497905 0.237852409 -0.450150073
vt 0.91079998 0.476200014
vn 0.64955293 0.753621501 -0.100675837
v 0.000164974175 0.26819241 -0.417831421
vt 0.893100023 0.487100005
vn -3.38510718e-18 0.9998823 -0.0153422791
v 0.0552388169 0.208501518 -0.417831421
vt 0.893100023 0.452399999
vn 0.995433062 0.0930985166 -0.0211112804
v 0.0407283492 0.208501518 -0.450150073
vt 0.91079998 0.452600002
vn 0.946968892 -0.139412313 -0.289506692
v 0.00016497905 0.237852409 -0.450150073
vt 0.91079998 0.476200014
vn 0.64955293 0.753621501 -0.100675837
v 0.0189626347 0.146502554 -0.417831421
vt 0.893100023 0.418000013
vn 0.967433471 -0.246700924 -0.0566668549
v 0.0407283492 0.208501518 -0.450150073
vt 0.91079998 0.452600002
vn 0.946968892 -0.139412313 -0.289506692
v 0.0552388169 0.208501518 -0.417831421
vt 0.893100023 0.452399999
vn 0.995433062 0.0930985166 -0.0211112804
v 0.0189626347 0.146502554 -0.417831421
vt 0.893100023 0.418000013
vn 0.967433471 -0.246700924 -0.0566668549
v 0.00016497905 0.171895772 -0.450150073
vt 0.91079998 0.423099995
vn 0.687571847 -0.722778119 -0.0695467153
v 0.0407283492 0.208501518 -0.450150073
vt 0.91079998 0.452600002
vn 0.946968892 -0.139412313 -0.289506692
v 0.00016497905 0.237852409 -0.450150073
vt 0.91079998 0.476200014
vn 0.64955293 0.753621501 -0.100675837
v 0.0407283492 0.208501518 -0.450150073
vt 0.91079998 0.452600002
vn 0.946968892 -0.139412313 -0.289506692
v 0.0499622896 0.207842246 -0.508191943
vt 0.949800014 0.452399999
vn 0.976393861 -5.4287189e-16 0.215997752
v 0.00016497905 0.171895772 -0.450150073
vt 0.91079998 0.423099995
vn 0.687571847 -0.722778119 -0.0695467153
v 0.0499622896 0.207842246 -0.508191943
vt 0.949800014 0.452399999
vn 0.976393861 -5.4287189e-16 0.215997752
v 0.0407283492 0.208501518 -0.450150073
vt 0.91079998 0.452600002
vn 0.946968892 -0.139412313 -0.289506692
v 0.00016497905 0.237852409 -0.450150073
vt 0.91079998 0.476200014
vn 0.64955293 0.753621501 -0.100675837
v 0.0499622896 0.207842246 -0.508191943
vt 0.949800014 0.452399999
vn 0.976393861 -5.4287189e-16 0.215997752
v 0.00016498781 0.252692759 -0.508191943
vt 0.949800014 0.496100008
vn 0.657475791 0.729992099 0.186647046
v 0.00016497905 0.171895772 -0.450150073
vt 0.91079998 0.423099995
vn 0.687571847 -0.722778119 -0.0695467153
v 0.00016498781 0.15738526 -0.508191943
vt 0.949800014 0.403200001
vn 0.701016961 -0.691851735 0.172963572
v 0.0499622896 0.207842246 -0.508191943
vt 0.949800014 0.452399999
vn 0.976393861 -5.4287189e-16 0.215997752
v 0.0575471334 0.208501518 0.70211339
vt 0.222100005 0.452399999
vn 0.984428686 0.175575057 0.00857679472
v 0.0189626012 0.146172717 -0.198525399
vt 0.764400005 0.417899996
vn 0.892891741 -0.450271406 -4.29717217e-06
v 0.0552388169 0.208501518 -0.417831421
vt 0.893100023 0.452399999
vn 0.995433062 0.0930985166 -0.0211112804
v 0.0552388169 0.208501518 -0.417831421
vt 0.893100023 0.452399999
vn 0.995433062 0.0930985166 -0.0211112804
v 0.0189626012 0.146172717 -0.198525399
vt 0.764400005 0.417899996
vn 0.892891741 -0.450271406 -4.29717217e-06
v 0.0189626347 0.146502554 -0.417831421
vt 0.893100023 0.418000013
vn 0.967433471 -0.246700924 -0.0566668549
v 0.0575471334 0.208501518 0.70211339
vt 0.222100005 0.452399999
vn 0.984428686 0.175575057 0.00857679472
v 0.0150050633 0.143864244 0.70211339
vt 0.222100005 0.417499989
vn 0.832703883 -0.552568772 0.0356650314
v 0.0189626012 0.146172717 -0.198525399
vt 0.764400005 0.417899996
vn 0.892891741 -0.450271406 -4.29717217e-06
v 0.0423770845 0.208501518 0.7291556
vt 0.205400005 0.453200012
vn 0.782031863 -0.213282049 0.585608174
v 0.0150050633 0.143864244 0.70211339
vt 0.222100005 0.417499989
vn 0.832703883 -0.552568772 0.0356650314
v 0.0575471334 0.208501518 0.70211339
vt 0.222100005 0.452399999
vn 0.984428686 0.175575057 0.00857679472
v 0.0423770845 0.208501518 0.7291556
vt 0.205400005 0.453200012
vn 0.782031863 -0.213282049 0.585608174
v 0.000164800978 0.162991717 0.7291556
vt 0.205400005 0.421799988
vn 0 -0.608764202 0.793351213
v 0.0150050633 0.143864244 0.70211339
vt 0.222100005 0.417499989
vn 0.832703883 -0.552568772 0.0356650314
v 0.0189626012 0.146172717 -0.198525399
vt 0.764400005 0.417899996
vn 0.892891741 -0.450271406 -4.29717217e-06
v 0.0150052132 0.0366845131 -0.290864766
vt 0.818499982 0.3486
vn 0.999489378 -0.0319527608 -6.22632058e-05
v 0.0189626347 0.146502554 -0.417831421
vt 0.893100023 0.418000013
vn 0.967433471 -0.246700924 -0.0566668549
v 0.0189626012 0.146172717 -0.198525399
vt 0.764400005 0.417899996
vn 0.892891741 -0.450271406 -4.29717217e-06
v 0.0150052002 0.0363546759 -0.209737927
vt 0.770799994 0.348500013
vn 0.999534324 -0.0305143052 -0.000109234779
v 0.0150052132 0.0366845131 -0.290864766
vt 0.818499982 0.3486
vn 0.999489378 -0.0319527608 -6.22632058e-05
v 0.0150052002 0.0363546759 -0.209737927
vt 0.770799994 0.348500013
vn 0.999534324 -0.0305143052 -0.000109234779
v 0.0189626012 0.146172717 -0.198525399
vt 0.764400005 0.417899996
vn 0.892891741 -0.450271406 -4.29717217e-06
v 0.0150051992 0.0363546759 -0.198855013
vt 0.764500022 0.348500013
vn 0.999351335 -0.0360126161 8.55210702e-08
v 0.0150052132 0.0366845131 -0.290864766
vt 0.818499982 0.3486
vn 0.999489378 -0.0319527608 -6.22632058e-05
v 0.0150052002 0.0363546759 -0.209737927
vt 0.770799994 0.348500013
vn 0.999534324 -0.0305143052 -0.000109234779
v 0.0150052002 0.0139296055 -0.209408075
vt 0.770600021 0.334300011
vn 0.999424805 0.0297306591 -0.0163139852
v 0.0150052132 0.0366845131 -0.290864766
vt 0.818499982 0.3486
vn 0.999489378 -0.0319527608 -6.22632058e-05
v 0.0150052002 0.0139296055 -0.209408075
vt 0.770600021 0.334300011
vn 0.999424805 0.0297306591 -0.0163139852
v 0.0150052123 7.83801079e-05 -0.288885921
vt 0.817300022 0.325700015
vn 0.999417165 0.0336300531 -0.0058608199
v 0.0150052002 0.0139296055 -0.209408075
vt 0.770600021 0.334300011
vn 0.999424805 0.0297306591 -0.0163139852
v 0.0216008555 -0.130186096 -0.123664491
vt 0.720200002 0.243300006
vn 0.999324305 0.0322226618 -0.017681425
v 0.0150052123 7.83801079e-05 -0.288885921
vt 0.817300022 0.325700015
vn 0.999417165 0.0336300531 -0.0058608199
v 0.0150052002 0.0139296055 -0.209408075
vt 0.770600021 0.334300011
vn 0.999424805 0.0297306591 -0.0163139852
v 0.0216008443 -0.058623001 -0.0474844351
vt 0.675400019 0.288599998
vn 0.999355919 0.026154916 -0.0245696272
v 0.0216008555 -0.130186096 -0.123664491
vt 0.720200002 0.243300006
vn 0.999324305 0.0322226618 -0.017681425
v 0.0189626347 0.146502554 -0.417831421
vt 0.893100023 0.418000013
vn 0.967433471 -0.246700924 -0.0566668549
v 0.0150052132 0.0366845131 -0.290864766
vt 0.818499982 0.3486
vn 0.999489378 -0.0319527608 -6.22632058e-05
v 0.0150052188 0.0366845131 -0.328130186
vt 0.840399981 0.348699987
vn 0.999351335 -0.0360126206 1.4985235e-07
v 0.0216008555 -0.130186096 -0.123664491
vt 0.720200002 0.243300006
vn 0.999324305 0.0322226618 -0.017681425
v 0.0216008443 -0.058623001 -0.0474844351
vt 0.675400019 0.288599998
vn 0.999355919 0.026154916 -0.0245696272
v 0.0216008443 -0.0856650025 -0.0471545979
vt 0.675300002 0.271499991
vn 1 1.7691027e-09 1.45041485e-07
v -0.0423772708 0.208501518 0.7291556
vt 0.205400005 0.453200012
vn -0.780222322 -0.212788569 0.588195676
v -0.0150052356 0.143864244 0.70211339
vt 0.222100005 0.417499989
vn -0.832639365 -0.552647389 0.0359520608
v 0.000164800978 0.162991717 0.7291556
vt 0.205400005 0.421799988
vn 0 -0.608764202 0.793351213
v -0.0423772708 0.208501518 0.7291556
vt 0.205400005 0.453200012
vn -0.780222322 -0.212788569 0.588195676
v -0.0575473122 0.208501518 0.70211339
vt 0.222100005 0.452399999
vn -0.983947243 0.178252776 0.00858898769
v -0.0150052356 0.143864244 0.70211339
vt 0.222100005 0.417499989
vn -0.832639365 -0.552647389 0.0359520608
v 0.000164800978 0.254341573 0.7291556
vt 0.205400005 0.485900015
vn 0 0.854269144 0.519830963
v -0.0575473122 0.208501518 0.70211339
vt 0.222100005 0.452399999
vn -0.983947243 0.178252776 0.00858898769
v -0.0423772708 0.208501518 0.7291556
vt 0.205400005 0.453200012
vn -0.780222322 -0.212788569 0.588195676
v 0.000164800978 0.254341573 0.7291556
vt 0.205400005 0.485900015
vn 0 0.854269144 0.519830963
v 0.000164805067 0.270830721 0.70211339
vt 0.222100005 0.487100005
vn 0 0.999927095 0.012074965
v -0.0575473122 0.208501518 0.70211339
vt 0.222100005 0.452399999
vn -0.983947243 0.178252776 0.00858898769
v 0.000164974175 0.26819241 -0.417831421
vt 0.893100023 0.487100005
vn -3.38510718e-18 0.9998823 -0.0153422791
v -0.0575473122 0.208501518 0.70211339
vt 0.222100005 0.452399999
vn -0.983947243 0.178252776 0.00858898769
v 0.000164805067 0.270830721 0.70211339
vt 0.222100005 0.487100005
vn 0 0.999927095 0.012074965
v 0.000164974175 0.26819241 -0.417831421
vt 0.893100023 0.487100005
vn -3.38510718e-18 0.9998823 -0.0153422791
v -0.055238653 0.208501518 -0.417831421
vt 0.893100023 0.452399999
vn -0.995198771 0.0955143041 -0.0213640647
v -0.0575473122 0.208501518 0.70211339
vt 0.222100005 0.452399999
vn -0.983947243 0.178252776 0.00858898769
v 0.00016497905 0.237852409 -0.450150073
vt 0.91079998 0.476200014
vn -0.648205621 0.754746936 -0.100928367
v -0.055238653 0.208501518 -0.417831421
vt 0.893100023 0.452399999
vn -0.995198771 0.0955143041 -0.0213640647
v 0.000164974175 0.26819241 -0.417831421
vt 0.893100023 0.487100005
vn -3.38510718e-18 0.9998823 -0.0153422791
v 0.00016497905 0.237852409 -0.450150073
vt 0.91079998 0.476200014
vn -0.648205621 0.754746936 -0.100928367
v -0.0403983891 0.208501518 -0.450150073
vt 0.91079998 0.452600002
vn -0.946300182 -0.13931388 -0.291732082
v -0.055238653 0.208501518 -0.417831421
vt 0.893100023 0.452399999
vn -0.995198771 0.0955143041 -0.0213640647
v -0.0403983891 0.208501518 -0.450150073
vt 0.91079998 0.452600002
vn -0.946300182 -0.13931388 -0.291732082
v -0.0189624671 0.146502554 -0.417831421
vt 0.893100023 0.418000013
vn -0.967394822 -0.24669108 -0.0573652312
v -0.055238653 0.208501518 -0.417831421
vt 0.893100023 0.452399999
vn -0.995198771 0.0955143041 -0.0213640647
v -0.0403983891 0.208501518 -0.450150073
vt 0.91079998 0.452600002
vn -0.946300182 -0.13931388 -0.291732082
v 0.00016497905 0.171895772 -0.450150073
vt 0.91079998 0.423099995
vn -0.686548945 -0.723810092 -0.06891659
v -0.0189624671 0.146502554 -0.417831421
vt 0.893100023 0.418000013
vn -0.967394822 -0.24669108 -0.0573652312
v -0.0499621034 0.207842246 -0.508191943
vt 0.949800014 0.452399999
vn -0.975697931 -5.87692035e-16 0.21911994
v -0.0403983891 0.208501518 -0.450150073
vt 0.91079998 0.452600002
vn -0.946300182 -0.13931388 -0.291732082
v 0.00016497905 0.237852409 -0.450150073
vt 0.91079998 0.476200014
vn -0.648205621 0.754746936 -0.100928367
v -0.0499621034 0.207842246 -0.508191943
vt 0.949800014 0.452399999
vn -0.975697931 -5.87692035e-16 0.21911994
v 0.00016497905 0.171895772 -0.450150073
vt 0.91079998 0.423099995
vn -0.686548945 -0.723810092 -0.06891659
v -0.0403983891 0.208501518 -0.450150073
vt 0.91079998 0.452600002
vn -0.946300182 -0.13931388 -0.291732082
v -0.0499621034 0.207842246 -0.508191943
vt 0.949800014 0.452399999
vn -0.975697931 -5.87692035e-16 0.21911994
v 0.00016497905 0.237852409 -0.450150073
vt 0.91079998 0.476200014
vn -0.648205621 0.754746936 -0.100928367
v 0.00016498781 0.252692759 -0.508191943
vt 0.949800014 0.496100008
vn -0.655009572 0.732070206 0.187178186
v -0.0499621034 0.207842246 -0.508191943
vt 0.949800014 0.452399999
vn -0.975697931 -5.87692035e-16 0.21911994
v 0.00016498781 0.15738526 -0.508191943
vt 0.949800014 0.403200001
vn -0.698660008 -0.694092074 0.173523448
v 0.00016497905 0.171895772 -0.450150073
vt 0.91079998 0.423099995
vn -0.686548945 -0.723810092 -0.06891659
v -0.0575473122 0.208501518 0.70211339
vt 0.222100005 0.452399999
vn -0.983947243 0.178252776 0.00858898769
v -0.055238653 0.208501518 -0.417831421
vt 0.893100023 0.452399999
vn -0.995198771 0.0955143041 -0.0213640647
v -0.0189625006 0.146172717 -0.198525399
vt 0.764400005 0.417899996
vn -0.892891719 -0.450271448 -4.56942258e-06
v -0.0575473122 0.208501518 0.70211339
vt 0.222100005 0.452399999
vn -0.983947243 0.178252776 0.00858898769
v -0.0189625006 0.146172717 -0.198525399
vt 0.764400005 0.417899996
vn -0.892891719 -0.450271448 -4.56942258e-06
v -0.0150052356 0.143864244 0.70211339
vt 0.222100005 0.417499989
vn -0.832639365 -0.552647389 0.0359520608
v -0.055238653 0.208501518 -0.417831421
vt 0.893100023 0.452399999
vn -0.995198771 0.0955143041 -0.0213640647
v -0.0189624671 0.146502554 -0.417831421
vt 0.893100023 0.418000013
vn -0.967394822 -0.24669108 -0.0573652312
v -0.0189625006 0.146172717 -0.198525399
vt 0.764400005 0.417899996
vn -0.892891719 -0.450271448 -4.56942258e-06
v -0.0150050856 0.0366845131 -0.290864766
vt 0.818499982 0.3486
vn -0.999489379 -0.0319527453 -6.25725697e-05
v -0.0189625006 0.146172717 -0.198525399
vt 0.764400005 0.417899996
vn -0.892891719 -0.450271448 -4.56942258e-06
v -0.0189624671 0.146502554 -0.417831421
vt 0.893100023 0.418000013
vn -0.967394822 -0.24669108 -0.0573652312
v -0.0150050856 0.0366845131 -0.290864766
vt 0.818499982 0.3486
vn -0.999489379 -0.0319527453 -6.25725697e-05
v -0.0150050987 0.0363546759 -0.209737927
vt 0.770799994 0.348500013
vn -0.999534325 -0.0305142869 -0.000109540942
v -0.0189625006 0.146172717 -0.198525399
vt 0.764400005 0.417899996
vn -0.892891719 -0.450271448 -4.56942258e-06
v -0.0150050987 0.0363546759 -0.209737927
vt 0.770799994 0.348500013
vn -0.999534325 -0.0305142869 -0.000109540942
v -0.0150050996 0.0363546759 -0.198855013
vt 0.764500022 0.348500013
vn -0.999351336 -0.0360126071 -8.55210703e-08
v -0.0189625006 0.146172717 -0.198525399
vt 0.764400005 0.417899996
vn -0.892891719 -0.450271448 -4.56942258e-06
v -0.0150050856 0.0366845131 -0.290864766
vt 0.818499982 0.3486
vn -0.999489379 -0.0319527453 -6.25725697e-05
v -0.0150050987 0.0139296055 -0.209408075
vt 0.770600021 0.334300011
vn -0.9994248 0.0297306678 -0.0163142896
v -0.0150050987 0.0363546759 -0.209737927
vt 0.770799994 0.348500013
vn -0.999534325 -0.0305142869 -0.000109540942
v -0.0150050856 0.0366845131 -0.290864766
vt 0.818499982 0.3486
vn -0.999489379 -0.0319527453 -6.25725697e-05
v -0.0150050865 7.83801079e-05 -0.288885921
vt 0.817300022 0.325700015
vn -0.999417163 0.033630064 -0.00586112628
v -0.0150050987 0.0139296055 -0.209408075
vt 0.770600021 0.334300011
vn -0.9994248 0.0297306678 -0.0163142896
v -0.021600781 -0.130186096 -0.123664491
vt 0.720200002 0.243300006
vn -0.9993243 0.0322226681 -0.0176817269
v -0.0150050987 0.0139296055 -0.209408075
vt 0.770600021 0.334300011
vn -0.9994248 0.0297306678 -0.0163142896
v -0.0150050865 7.83801079e-05 -0.288885921
vt 0.817300022 0.325700015
vn -0.999417163 0.033630064 -0.00586112628
v -0.021600781 -0.130186096 -0.123664491
vt 0.720200002 0.243300006
vn -0.9993243 0.0322226681 -0.0176817269
v -0.0216007922 -0.058623001 -0.0474844351
vt 0.675400019 0.288599998
vn -0.999355912 0.0261549228 -0.0245699268
v -0.0150050987 0.0139296055 -0.209408075
vt 0.770600021 0.334300011
vn -0.9994248 0.0297306678 -0.0163142896
v -0.0189624671 0.146502554 -0.417831421
vt 0.893100023 0.418000013
vn -0.967394822 -0.24669108 -0.0573652312
v -0.01500508 0.0366845131 -0.328130186
vt 0.840399981 0.348699987
vn -0.999351336 -0.0360126027 -1.4985235e-07
v -0.0150050856 0.0366845131 -0.290864766
vt 0.818499982 0.3486
vn -0.999489379 -0.0319527453 -6.25725697e-05
v -0.021600781 -0.130186096 -0.123664491
vt 0.720200002 0.243300006
vn -0.9993243 0.0322226681 -0.0176817269
v -0.0216007922 -0.0856650025 -0.0471545979
vt 0.675300002 0.271499991
vn -1 -1.7691027e-09 -1.45041485e-07
v -0.0216007922 -0.058623001 -0.0474844351
vt 0.675400019 0.288599998
vn -0.999355912 0.0261549228 -0.0245699268
v 0.0150050633 0.143864244 0.70211339
vt 0.239700004 0.411199987
vn 0 -0.999835689 0.018127176
v 0.000164800978 0.162991717 0.7291556
vt 0.221000001 0.401800007
vn 0 -0.816414838 0.577465854
v -0.0150052356 0.143864244 0.70211339
vt 0.239700004 0.39230001
vn 0 -0.999977359 0.00672913267
v 0.0189626012 0.146172717 -0.198525399
vt 0.751299977 0.413399994
vn 0 -0.999996715 -0.00256314233
v 0.0150050633 0.143864244 0.70211339
vt 0.239700004 0.411199987
vn 0 -0.999835689 0.018127176
v -0.0150052356 0.143864244 0.70211339
vt 0.239700004 0.39230001
vn 0 -0.999977359 0.00672913267
v 0.0189626012 0.146172717 -0.198525399
vt 0.751299977 0.413399994
vn 0 -0.999996715 -0.00256314233
v -0.0150052356 0.143864244 0.70211339
vt 0.239700004 0.39230001
vn 0 -0.999977359 0.00672913267
v -0.0189625006 0.146172717 -0.198525399
vt 0.751299977 0.389899999
vn 0 -0.999996715 -0.00256314233
v -0.0651323721 0.330521584 0.963277638
vt 0.906599998 0.0511000007
vn 0 0.85046029 -0.526039253
v 0.0651321039 0.330521584 0.963277638
vt 0.979399979 0.0513999984
vn 0 0.907908413 -0.419168597
v 0.000164800978 0.254341573 0.7291556
vt 0.942300022 0.281100005
vn 0 0.95092614 -0.309417962
v 0.0862382203 0.369436204 0.978447616
vt 0.991299987 0.0248000007
vn 0 0.748621603 -0.662997508
v 0.0651321039 0.330521584 0.963277638
vt 0.979399979 0.0513999984
vn 0 0.907908413 -0.419168597
v -0.0651323721 0.330521584 0.963277638
vt 0.906599998 0.0511000007
vn 0 0.85046029 -0.526039253
v 0.0862382203 0.369436204 0.978447616
vt 0.991299987 0.0248000007
vn 0 0.748621603 -0.662997508
v -0.0651323721 0.330521584 0.963277638
vt 0.906599998 0.0511000007
vn 0 0.85046029 -0.526039253
v -0.0862385184 0.369436204 0.978447616
vt 0.894800007 0.0244999994
vn 0 0.950474204 -0.310803454
v 0.0888765082 0.369106382 1.02857459
vt 0.992900014 0.00529999984
vn 0 0.999978354 0.00657959505
v 0.0862382203 0.369436204 0.978447616
vt 0.991299987 0.0248000007
vn 0 0.748621603 -0.662997508
v -0.0862385184 0.369436204 0.978447616
vt 0.894800007 0.0244999994
vn 0 0.950474204 -0.310803454
v 0.0888765082 0.369106382 1.02857459
vt 0.992900014 0.00529999984
vn 0 0.999978354 0.00657959505
v -0.0862385184 0.369436204 0.978447616
vt 0.894800007 0.0244999994
vn 0 0.950474204 -0.310803454
v -0.0888767838 0.369106382 1.02857459
vt 0.893400013 0.00499999989
vn 0 0.999978354 0.00657959505
v -0.0888767838 0.369106382 1.02857459
vt 0.150199994 0.310900003
vn 2.12361783e-07 3.71629613e-07 1
v -0.0578771494 0.317989707 1.02857459
vt 0.161300004 0.292600006
vn 0.321664573 -0.597539261 0.734492161
v 0.057876844 0.317989707 1.02857459
vt 0.202800006 0.292600006
vn -0.281818129 -0.523519616 0.804055815
v -0.0888767838 0.369106382 1.02857459
vt 0.150199994 0.310900003
vn 2.12361783e-07 3.71629613e-07 1
v 0.057876844 0.317989707 1.02857459
vt 0.202800006 0.292600006
vn -0.281818129 -0.523519616 0.804055815
v 0.0888765082 0.369106382 1.02857459
vt 0.2139 0.310799986
vn 0 0 1
v -0.0888767838 0.369106382 1.02857459
vt 0.150199994 0.310900003
vn 2.12361783e-07 3.71629613e-07 1
v -0.114270106 0.225320503 1.02857471
vt 0.142800003 0.259499997
vn 0.62173272 0.167061005 0.765205231
v -0.0578771494 0.317989707 1.02857459
vt 0.161300004 0.292600006
vn 0.321664573 -0.597539261 0.734492161
v -0.0888767838 0.369106382 1.02857459
vt 0.150199994 0.310900003
vn 2.12361783e-07 3.71629613e-07 1
v -0.175609857 0.226969689 1.02857471
vt 0.119099997 0.25999999
vn 2.79178732e-07 0 1
v -0.114270106 0.225320503 1.02857471
vt 0.142800003 0.259499997
vn 0.62173272 0.167061005 0.765205231
v -0.175609857 0.226969689 1.02857471
vt 0.119099997 0.25999999
vn 2.79178732e-07 0 1
v 0.000164738609 0.101981498 1.02857459
vt 0.183300003 0.217299998
vn 2.74013388e-07 0.538930186 0.842350434
v -0.114270106 0.225320503 1.02857471
vt 0.142800003 0.259499997
vn 0.62173272 0.167061005 0.765205231
v -0.175609857 0.226969689 1.02857471
vt 0.119099997 0.25999999
vn 2.79178732e-07 0 1
v 0.000164738609 0.0373441875 1.02857459
vt 0.181999996 0.192100003
vn 3.3941546e-07 0 1
v 0.000164738609 0.101981498 1.02857459
vt 0.183300003 0.217299998
vn 2.74013388e-07 0.538930186 0.842350434
v 0.175609529 0.226969689 1.02857459
vt 0.244900003 0.259900004
vn 0 0 1
v 0.000164738609 0.101981498 1.02857459
vt 0.183300003 0.217299998
vn 2.74013388e-07 0.538930186 0.842350434
v 0.000164738609 0.0373441875 1.02857459
vt 0.181999996 0.192100003
vn 3.3941546e-07 0 1
v 0.175609529 0.226969689 1.02857459
vt 0.244900003 0.259900004
vn 0 0 1
v 0.114269853 0.225320503 1.02857459
vt 0.222900003 0.25940001
vn -0.622345382 0.166275451 0.764878226
v 0.000164738609 0.101981498 1.02857459
vt 0.183300003 0.217299998
vn 2.74013388e-07 0.538930186 0.842350434
v 0.0888765082 0.369106382 1.02857459
vt 0.2139 0.310799986
vn 0 0 1
v 0.057876844 0.317989707 1.02857459
vt 0.202800006 0.292600006
vn -0.281818129 -0.523519616 0.804055815
v 0.114269853 0.225320503 1.02857459
vt 0.222900003 0.25940001
vn -0.622345382 0.166275451 0.764878226
v 0.0888765082 0.369106382 1.02857459
vt 0.2139 0.310799986
vn 0 0 1
v 0.114269853 0.225320503 1.02857459
vt 0.222900003 0.25940001
vn -0.622345382 0.166275451 0.764878226
v 0.175609529 0.226969689 1.02857459
vt 0.244900003 0.259900004
vn 0 0 1
v 0.057876844 0.317989707 1.02857459
vt 0.202800006 0.292600006
vn -0.281818129 -0.523519616 0.804055815
v -0.0578771494 0.317989707 1.02857459
vt 0.161300004 0.292600006
vn 0.321664573 -0.597539261 0.734492161
v 0.000164770056 0.206193045 0.857042968
vt 0.181999996 0.256700009
vn 4.28503161e-07 1.15139756e-07 1
v -0.0578771494 0.317989707 1.02857459
vt 0.161300004 0.292600006
vn 0.321664573 -0.597539261 0.734492161
v -0.114270106 0.225320503 1.02857471
vt 0.142800003 0.259499997
vn 0.62173272 0.167061005 0.765205231
v 0.000164770056 0.206193045 0.857042968
vt 0.181999996 0.256700009
vn 4.28503161e-07 1.15139756e-07 1
v -0.114270106 0.225320503 1.02857471
vt 0.142800003 0.259499997
vn 0.62173272 0.167061005 0.765205231
v 0.000164738609 0.101981498 1.02857459
vt 0.183300003 0.217299998
vn 2.74013388e-07 0.538930186 0.842350434
v 0.000164770056 0.206193045 0.857042968
vt 0.181999996 0.256700009
vn 4.28503161e-07 1.15139756e-07 1
v 0.000164738609 0.101981498 1.02857459
vt 0.183300003 0.217299998
vn 2.74013388e-07 0.538930186 0.842350434
v 0.114269853 0.225320503 1.02857459
vt 0.222900003 0.25940001
vn -0.622345382 0.166275451 0.764878226
v 0.000164770056 0.206193045 0.857042968
vt 0.181999996 0.256700009
vn 4.28503161e-07 1.15139756e-07 1
v 0.114269853 0.225320503 1.02857459
vt 0.222900003 0.25940001
vn -0.622345382 0.166275451 0.764878226
v 0.057876844 0.317989707 1.02857459
vt 0.202800006 0.292600006
vn -0.281818129 -0.523519616 0.804055815
v 0.000164770056 0.206193045 0.857042968
vt 0.181999996 0.256700009
vn 4.28503161e-07 1.15139756e-07 1
v 0.00016497905 0.171895772 -0.450150073
vt 0.976599991 0.492199987
vn 0 -0.786318439 -0.617821424
v 0.0189626347 0.146502554 -0.417831421
vt 0.958199978 0.446500003
vn 0 -0.655909835 -0.754839247
v -0.0189624671 0.146502554 -0.417831421
vt 0.995199978 0.44659999
vn 0 -0.669964431 -0.742393199
v 0.0189626347 0.146502554 -0.417831421
vt 0.958199978 0.446500003
vn 0 -0.655909835 -0.754839247
v -0.01500508 0.0366845131 -0.328130186
vt 0.991900027 0.289900005
vn 0 -0.632604381 -0.77447511
v -0.0189624671 0.146502554 -0.417831421
vt 0.995199978 0.44659999
vn 0 -0.669964431 -0.742393199
v 0.0189626347 0.146502554 -0.417831421
vt 0.958199978 0.446500003
vn 0 -0.655909835 -0.754839247
v 0.0150052188 0.0366845131 -0.328130186
vt 0.962300003 0.289799988
vn 0 -0.632604381 -0.77447511
v -0.01500508 0.0366845131 -0.328130186
vt 0.991900027 0.289900005
vn 0 -0.632604381 -0.77447511
v 0.0150052002 0.0363546759 -0.209737927
vt 0.319000006 0.334800005
vn 0 -0.690985404 0.72286871
v 0.0150051992 0.0363546759 -0.198855013
vt 0.318899989 0.341800004
vn 0 -0.0467273247 0.998907682
v -0.0150050996 0.0363546759 -0.198855013
vt 0.294999987 0.341800004
vn 0 -0.197247627 0.980353698
v 0.0150052002 0.0363546759 -0.209737927
vt 0.319000006 0.334800005
vn 0 -0.690985404 0.72286871
v -0.0150050996 0.0363546759 -0.198855013
vt 0.294999987 0.341800004
vn 0 -0.197247627 0.980353698
v -0.0150050987 0.0363546759 -0.209737927
vt 0.294999987 0.334699988
vn 0 -0.222241111 0.974991738
v -0.0189625006 0.146172717 -0.198525399
vt 0.291700006 0.387400001
vn 0 -0.00300143944 0.999995496
v -0.0150050996 0.0363546759 -0.198855013
vt 0.294999987 0.341800004
vn 0 -0.197247627 0.980353698
v 0.0150051992 0.0363546759 -0.198855013
vt 0.318899989 0.341800004
vn 0 -0.0467273247 0.998907682
v -0.0189625006 0.146172717 -0.198525399
vt 0.291700006 0.387400001
vn 0 -0.00300143944 0.999995496
v 0.0150051992 0.0363546759 -0.198855013
vt 0.318899989 0.341800004
vn 0 -0.0467273247 0.998907682
v 0.0189626012 0.146172717 -0.198525399
vt 0.32159999 0.387499988
vn 0 -0.00300143944 0.999995496
v -0.0150050987 0.0363546759 -0.209737927
vt 0.294999987 0.334699988
vn 0 -0.222241111 0.974991738
v 0.0150052002 0.0139296055 -0.209408075
vt 0.319000006 0.324900001
vn 0 0.810723146 0.58542974
v 0.0150052002 0.0363546759 -0.209737927
vt 0.319000006 0.334800005
vn 0 -0.690985404 0.72286871
v -0.0150050987 0.0363546759 -0.209737927
vt 0.294999987 0.334699988
vn 0 -0.222241111 0.974991738
v -0.0150050987 0.0139296055 -0.209408075
vt 0.295100003 0.324900001
vn 0 0.892844976 0.450364129
v 0.0150052002 0.0139296055 -0.209408075
vt 0.319000006 0.324900001
vn 0 0.810723146 0.58542974
v -0.0150050987 0.0139296055 -0.209408075
vt 0.295100003 0.324900001
vn 0 0.892844976 0.450364129
v 0.0216008443 -0.058623001 -0.0474844351
vt 0.324699998 0.253600001
vn 0 0.840888432 0.541208504
v 0.0150052002 0.0139296055 -0.209408075
vt 0.319000006 0.324900001
vn 0 0.810723146 0.58542974
v -0.0150050987 0.0139296055 -0.209408075
vt 0.295100003 0.324900001
vn 0 0.892844976 0.450364129
v -0.0216007922 -0.058623001 -0.0474844351
vt 0.290499985 0.253500015
vn 0 0.852252536 0.523130591
v 0.0216008443 -0.058623001 -0.0474844351
vt 0.324699998 0.253600001
vn 0 0.840888432 0.541208504
v 0.0216008443 -0.058623001 -0.0474844351
vt 0.324699998 0.253600001
vn 0 0.840888432 0.541208504
v -0.0216007922 -0.058623001 -0.0474844351
vt 0.290499985 0.253500015
vn 0 0.852252536 0.523130591
v -0.0216007922 -0.0856650025 -0.0471545979
vt 0.290600002 0.240400001
vn 0 -0.728848014 0.684675524
v 0.0216008443 -0.058623001 -0.0474844351
vt 0.324699998 0.253600001
vn 0 0.840888432 0.541208504
v -0.0216007922 -0.0856650025 -0.0471545979
vt 0.290600002 0.240400001
vn 0 -0.728848014 0.684675524
v 0.0216008443 -0.0856650025 -0.0471545979
vt 0.324800014 0.240500003
vn 0 -0.728848014 0.684675524
v 0.0216008555 -0.130186096 -0.123664491
vt 0.324999988 0.204600006
vn 0 -0.864317663 0.502946297
v 0.0216008443 -0.0856650025 -0.0471545979
vt 0.324800014 0.240500003
vn 0 -0.728848014 0.684675524
v -0.0216007922 -0.0856650025 -0.0471545979
vt 0.290600002 0.240400001
vn 0 -0.728848014 0.684675524
v 0.0216008555 -0.130186096 -0.123664491
vt 0.324999988 0.204600006
vn 0 -0.864317663 0.502946297
v -0.0216007922 -0.0856650025 -0.0471545979
vt 0.290600002 0.240400001
vn 0 -0.728848014 0.684675524
v -0.021600781 -0.130186096 -0.123664491
vt 0.290899992 0.204600006
vn 0 -0.864317663 0.502946297
v 0.0150052188 0.0366845131 -0.328130186
vt 0.254000008 0.388300002
vn 0 -1 -3.72403902e-16
v 0.0150052132 0.0366845131 -0.290864766
vt 0.253899992 0.362300009
vn 0 -0.490633776 -0.871365881
v -0.0150050856 0.0366845131 -0.290864766
vt 0.2773 0.362100005
vn 0 -0.902067463 -0.431595056
v 0.0150052188 0.0366845131 -0.328130186
vt 0.254000008 0.388300002
vn 0 -1 -3.72403902e-16
v -0.0150050856 0.0366845131 -0.290864766
vt 0.2773 0.362100005
vn 0 -0.902067463 -0.431595056
v -0.01500508 0.0366845131 -0.328130186
vt 0.277399987 0.388200015
vn 0 -1 -3.72403902e-16
v 0.0150052132 0.0366845131 -0.290864766
vt 0.253899992 0.362300009
vn 0 -0.490633776 -0.871365881
v -0.0150050865 7.83801079e-05 -0.288885921
vt 0.277200013 0.336600006
vn 0 -0.639325738 -0.768936018
v -0.0150050856 0.0366845131 -0.290864766
vt 0.2773 0.362100005
vn 0 -0.902067463 -0.431595056
v 0.0150052132 0.0366845131 -0.290864766
vt 0.253899992 0.362300009
vn 0 -0.490633776 -0.871365881
v 0.0150052123 7.83801079e-05 -0.288885921
vt 0.253800005 0.336699992
vn 0 -0.752596491 -0.658481983
v -0.0150050865 7.83801079e-05 -0.288885921
vt 0.277200013 0.336600006
vn 0 -0.639325738 -0.768936018
v 0.0150052123 7.83801079e-05 -0.288885921
vt 0.253800005 0.336699992
vn 0 -0.752596491 -0.658481983
v -0.021600781 -0.130186096 -0.123664491
vt 0.281599998 0.188899994
vn 0 -0.785283648 -0.619136166
v -0.0150050865 7.83801079e-05 -0.288885921
vt 0.277200013 0.336600006
vn 0 -0.639325738 -0.768936018
v 0.0150052123 7.83801079e-05 -0.288885921
vt 0.253800005 0.336699992
vn 0 -0.752596491 -0.658481983
v 0.0216008555 -0.130186096 -0.123664491
vt 0.248199999 0.189099997
vn 0 -0.785283648 -0.619136166
v -0.021600781 -0.130186096 -0.123664491
vt 0.281599998 0.188899994
vn 0 -0.785283648 -0.619136166
v 0.0423770845 0.208501518 0.7291556
vt 0.0860000029 0.267800003
vn 0.914941421 -0.171988181 -0.365105822
v 0.133727059 0.220703557 0.963277638
vt 0.0860000029 0.444000006
vn 0.834630512 -0.237496883 -0.496978006
v 0.000164748475 0.0762584284 0.963277698
vt 0.0196000002 0.444000006
vn 0.0238861844 -0.920973884 -0.388891444
v 0.0423770845 0.208501518 0.7291556
vt 0.0860000029 0.267800003
vn 0.914941421 -0.171988181 -0.365105822
v 0.000164748475 0.0762584284 0.963277698
vt 0.0196000002 0.444000006
vn 0.0238861844 -0.920973884 -0.388891444
v 0.000164800978 0.162991717 0.7291556
vt 0.0555000007 0.267800003
vn 8.19783916e-17 -0.93772084 -0.347389732
v 0.0423770845 0.208501518 0.7291556
vt 0.0860000029 0.267800003
vn 0.914941421 -0.171988181 -0.365105822
v 0.0651321039 0.330521584 0.963277638
vt 0.166999996 0.444000006
vn 0.707941139 0.497978234 -0.500836323
v 0.133727059 0.220703557 0.963277638
vt 0.0860000029 0.444000006
vn 0.834630512 -0.237496883 -0.496978006
v 0.0423770845 0.208501518 0.7291556
vt 0.0860000029 0.267800003
vn 0.914941421 -0.171988181 -0.365105822
v 0.000164800978 0.254341573 0.7291556
vt 0.116999999 0.267800003
vn 0 0.847496352 -0.530801219
v 0.0651321039 0.330521584 0.963277638
vt 0.166999996 0.444000006
vn 0.707941139 0.497978234 -0.500836323
v 0.133727059 0.220703557 0.963277638
vt 0.0860000029 0.444000006
vn 0.834630512 -0.237496883 -0.496978006
v 0.000164746161 0.0373441875 0.978447616
vt 0.00510000018 0.462000012
vn 0.363938753 -0.33694076 -0.868342967
v 0.000164748475 0.0762584284 0.963277698
vt 0.0196000002 0.444000006
vn 0.0238861844 -0.920973884 -0.388891444
v 0.133727059 0.220703557 0.963277638
vt 0.0860000029 0.444000006
vn 0.834630512 -0.237496883 -0.496978006
v 0.175279751 0.226310015 0.978447556
vt 0.0860000029 0.462000012
vn 0.887422263 -0.200356563 -0.415137297
v 0.000164746161 0.0373441875 0.978447616
vt 0.00510000018 0.462000012
vn 0.363938753 -0.33694076 -0.868342967
v 0.0651321039 0.330521584 0.963277638
vt 0.166999996 0.444000006
vn 0.707941139 0.497978234 -0.500836323
v 0.175279751 0.226310015 0.978447556
vt 0.0860000029 0.462000012
vn 0.887422263 -0.200356563 -0.415137297
v 0.133727059 0.220703557 0.963277638
vt 0.0860000029 0.444000006
vn 0.834630512 -0.237496883 -0.496978006
v 0.0651321039 0.330521584 0.963277638
vt 0.166999996 0.444000006
vn 0.707941139 0.497978234 -0.500836323
v 0.0862382203 0.369436204 0.978447616
vt 0.182999998 0.462000012
vn 0.721355944 0.448769504 -0.527495529
v 0.175279751 0.226310015 0.978447556
vt 0.0860000029 0.462000012
vn 0.887422263 -0.200356563 -0.415137297
v 0.175279751 0.226310015 0.978447556
vt 0.0860000029 0.462000012
vn 0.887422263 -0.200356563 -0.415137297
v 0.0862382203 0.369436204 0.978447616
vt 0.182999998 0.462000012
vn 0.721355944 0.448769504 -0.527495529
v 0.0888765082 0.369106382 1.02857459
vt 0.184499994 0.492300004
vn 0.851045671 0.524401113 -0.0269209615
v 0.175279751 0.226310015 0.978447556
vt 0.0860000029 0.462000012
vn 0.887422263 -0.200356563 -0.415137297
v 0.0888765082 0.369106382 1.02857459
vt 0.184499994 0.492300004
vn 0.851045671 0.524401113 -0.0269209615
v 0.175609529 0.226969689 1.02857459
vt 0.0860000029 0.492300004
vn 0.966055164 -0.258318954 -0.00295602893
v 0.175279751 0.226310015 0.978447556
vt 0.0860000029 0.462000012
vn 0.887422263 -0.200356563 -0.415137297
v 0.175609529 0.226969689 1.02857459
vt 0.0860000029 0.492300004
vn 0.966055164 -0.258318954 -0.00295602893
v 0.000164738609 0.0373441875 1.02857459
vt 0.00520000001 0.492300004
vn -3.19058497e-07 -0.999995408 0.00303058382
v 0.175279751 0.226310015 0.978447556
vt 0.0860000029 0.462000012
vn 0.887422263 -0.200356563 -0.415137297
v 0.000164738609 0.0373441875 1.02857459
vt 0.00520000001 0.492300004
vn -3.19058497e-07 -0.999995408 0.00303058382
v 0.000164746161 0.0373441875 0.978447616
vt 0.00510000018 0.462000012
vn -0.1958083 -0.861971502 -0.467615482
v 0.000164748475 0.0762584284 0.963277698
vt 0.0196000002 0.444000006
vn 0.0238861844 -0.920973884 -0.388891444
v -0.0423772708 0.208501518 0.7291556
vt 0.0860000029 0.267800003
vn -0.914558734 -0.172788879 -0.365686103
v 0.000164800978 0.162991717 0.7291556
vt 0.0555000007 0.267800003
vn 8.19783916e-17 -0.93772084 -0.347389732
v 0.000164748475 0.0762584284 0.963277698
vt 0.0196000002 0.444000006
vn 0.0238861844 -0.920973884 -0.388891444
v -0.133727357 0.220703557 0.963277698
vt 0.0860000029 0.444000006
vn -0.83437592 -0.238522742 -0.496914203
v -0.0423772708 0.208501518 0.7291556
vt 0.0860000029 0.267800003
vn -0.914558734 -0.172788879 -0.365686103
v -0.0423772708 0.208501518 0.7291556
vt 0.0860000029 0.267800003
vn -0.914558734 -0.172788879 -0.365686103
v -0.133727357 0.220703557 0.963277698
vt 0.0860000029 0.444000006
vn -0.83437592 -0.238522742 -0.496914203
v -0.0651323721 0.330521584 0.963277638
vt 0.166999996 0.444000006
vn -0.707212246 0.498821043 -0.50102735
v -0.0423772708 0.208501518 0.7291556
vt 0.0860000029 0.267800003
vn -0.914558734 -0.172788879 -0.365686103
v -0.0651323721 0.330521584 0.963277638
vt 0.166999996 0.444000006
vn -0.707212246 0.498821043 -0.50102735
v 0.000164800978 0.254341573 0.7291556
vt 0.116999999 0.267800003
vn 0 0.847496352 -0.530801219
v 0.000164738609 0.0373441875 1.02857459
vt 0.00520000001 0.492300004
vn -3.19058497e-07 -0.999995408 0.00303058382
v -0.17528002 0.226310015 0.978447616
vt 0.0860000029 0.462000012
vn -0.887288619 -0.201171164 -0.415028998
v 0.000164746161 0.0373441875 0.978447616
vt 0.00510000018 0.462000012
vn -0.1958083 -0.861971502 -0.467615482
v 0.000164746161 0.0373441875 0.978447616
vt 0.00510000018 0.462000012
vn -0.1958083 -0.861971502 -0.467615482
v -0.17528002 0.226310015 0.978447616
vt 0.0860000029 0.462000012
vn -0.887288619 -0.201171164 -0.415028998
v -0.133727357 0.220703557 0.963277698
vt 0.0860000029 0.444000006
vn -0.83437592 -0.238522742 -0.496914203
v -0.17528002 0.226310015 0.978447616
vt 0.0860000029 0.462000012
vn -0.887288619 -0.201171164 -0.415028998
v -0.0651323721 0.330521584 0.963277638
vt 0.166999996 0.444000006
vn -0.707212246 0.498821043 -0.50102735
v -0.133727357 0.220703557 0.963277698
vt 0.0860000029 0.444000006
vn -0.83437592 -0.238522742 -0.496914203
v 0.000164738609 0.0373441875 1.02857459
vt 0.00520000001 0.492300004
vn -3.19058497e-07 -0.999995408 0.00303058382
v -0.175609857 0.226969689 1.02857471
vt 0.0860000029 0.492300004
vn -0.965815222 -0.25921476 -0.00294380646
v -0.17528002 0.226310015 0.978447616
vt 0.0860000029 0.462000012
vn -0.887288619 -0.201171164 -0.415028998
v -0.17528002 0.226310015 0.978447616
vt 0.0860000029 0.462000012
vn -0.887288619 -0.201171164 -0.415028998
v -0.175609857 0.226969689 1.02857471
vt 0.0860000029 0.492300004
vn -0.965815222 -0.25921476 -0.00294380646
v -0.0888767838 0.369106382 1.02857459
vt 0.184499994 0.492300004
vn -0.851045642 0.524401145 -0.026921261
v -0.17528002 0.226310015 0.978447616
vt 0.0860000029 0.462000012
vn -0.887288619 -0.201171164 -0.415028998
v -0.0888767838 0.369106382 1.02857459
vt 0.184499994 0.492300004
vn -0.851045642 0.524401145 -0.026921261
v -0.0862385184 0.369436204 0.978447616
vt 0.182999998 0.462000012
vn -0.721356116 0.448769241 -0.527495519
v -0.17528002 0.226310015 0.978447616
vt 0.0860000029 0.462000012
vn -0.887288619 -0.201171164 -0.415028998
v -0.0862385184 0.369436204 0.978447616
vt 0.182999998 0.462000012
vn -0.721356116 0.448769241 -0.527495519
v -0.0651323721 0.330521584 0.963277638
vt 0.166999996 0.444000006
vn -0.707212246 0.498821043 -0.50102735
v 0.000164746161 0.0373441875 0.978447616
vt 0.00510000018 0.462000012
vn -0.1958083 -0.861971502 -0.467615482
v -0.133727357 0.220703557 0.963277698
vt 0.0860000029 0.444000006
vn -0.83437592 -0.238522742 -0.496914203
v 0.000164748475 0.0762584284 0.963277698
vt 0.0196000002 0.444000006
vn -0.3648273 -0.338173365 -0.867490528
v 0.0156647358 0.0825245604 -0.00659138709
vt 0.689100027 0.325700015
vn 1 -5.33413728e-09 1.47974149e-07
v 0.0156647041 0.0825245604 0.209087044
vt 0.574100018 0.326900005
vn 1 -9.29983853e-09 1.49914281e-07
v 0.0156647135 0.0472377688 0.143130407
vt 0.609300017 0.297800004
vn 1 1.85282035e-09 1.48429072e-07
v 0.0156647358 0.0825245604 -0.00659138709
vt 0.689100027 0.325700015
vn 1 -5.33413728e-09 1.47974149e-07
v 0.0156647135 0.0472377688 0.143130407
vt 0.609300017 0.297800004
vn 1 1.85282035e-09 1.48429072e-07
v 0.0156647302 0.0498756841 0.0310040787
vt 0.66900003 0.299199998
vn 1 7.8970923e-09 1.45672474e-07
v 0.0156647302 0.0498756841 0.0310040787
vt 0.66900003 0.299199998
vn 1 7.8970923e-09 1.45672474e-07
v 0.0156647135 0.0472377688 0.143130407
vt 0.609300017 0.297800004
vn 1 1.85282035e-09 1.48429072e-07
v 0.015664719 -0.000251069665 0.112130716
vt 0.62559998 0.259000003
vn 1 1.04678399e-08 1.44226238e-07
v 0.0156647302 0.0498756841 0.0310040787
vt 0.66900003 0.299199998
vn 1 7.8970923e-09 1.45672474e-07
v 0.015664719 -0.000251069665 0.112130716
vt 0.62559998 0.259000003
vn 1 1.04678399e-08 1.44226238e-07
v 0.0156647302 -0.000251069665 0.0303444043
vt 0.669200003 0.25850001
vn 1 -1.79829445e-09 1.36647204e-07
v 0.0156646781 0.131002516 0.384861708
vt 0.480399996 0.367199987
vn 1 -1.13966429e-08 1.50041726e-07
v 0.0156647041 0.0825245604 0.209087044
vt 0.574100018 0.326900005
vn 1 -9.29983853e-09 1.49914281e-07
v 0.0156647358 0.0825245604 -0.00659138709
vt 0.689100027 0.325700015
vn 1 -5.33413728e-09 1.47974149e-07
v 0.0156646781 0.131002516 0.384861708
vt 0.480399996 0.367199987
vn 1 -1.13966429e-08 1.50041726e-07
v 0.0156646576 0.077907607 0.511828423
vt 0.412600011 0.324600011
vn 1 -1.59266648e-08 1.49665204e-07
v 0.0156647041 0.0825245604 0.209087044
vt 0.574100018 0.326900005
vn 1 -9.29983853e-09 1.49914281e-07
v 0.0156646781 0.131002516 0.384861708
vt 0.480399996 0.367199987
vn 1 -1.13966429e-08 1.50041726e-07
v 0.0156646371 0.131002516 0.655943692
vt 0.335799992 0.368699998
vn 1 -1.23787831e-08 1.45992363e-07
v 0.0156646576 0.077907607 0.511828423
vt 0.412600011 0.324600011
vn 1 -1.59266648e-08 1.49665204e-07
v 0.0156646371 0.131002516 0.655943692
vt 0.335799992 0.368699998
vn 1 -1.23787831e-08 1.45992363e-07
v 0.0156646427 0.0294292569 0.615050673
vt 0.3574 0.28580001
vn 1 -1.9586548e-09 1.41512724e-07
v 0.0156646576 0.077907607 0.511828423
vt 0.412600011 0.324600011
vn 1 -1.59266648e-08 1.49665204e-07
v 0.0156646371 0.131002516 0.655943692
vt 0.335799992 0.368699998
vn 1 -1.23787831e-08 1.45992363e-07
v 0.0156646371 0.0294292569 0.655943692
vt 0.335599989 0.2861
vn 1 0 1.36647665e-07
v 0.0156646427 0.0294292569 0.615050673
vt 0.3574 0.28580001
vn 1 -1.9586548e-09 1.41512724e-07
v 0.0156646781 0.131002516 0.384861708
vt 0.480399996 0.367199987
vn 1 -1.13966429e-08 1.50041726e-07
v 0.0156647358 0.0825245604 -0.00659138709
vt 0.689100027 0.325700015
vn 1 -5.33413728e-09 1.47974149e-07
v 0.0156647544 0.110885933 -0.129600585
vt 0.754800022 0.347799987
vn 1 -3.91958989e-09 1.48596508e-07
v 0.0156647544 0.110885933 -0.129600585
vt 0.754800022 0.347799987
vn 1 -3.91958989e-09 1.48596508e-07
v 0.0156646781 0.1511195 0.384861708
vt 0.480399996 0.383599997
vn 1 0 1.48443243e-07
v 0.0156646781 0.131002516 0.384861708
vt 0.480399996 0.367199987
vn 1 -1.13966429e-08 1.50041726e-07
v 0.0156647544 0.110885933 -0.129600585
vt 0.754800022 0.347799987
vn 1 -3.91958989e-09 1.48596508e-07
v 0.0156647544 0.1511195 -0.129600585
vt 0.754899979 0.380699992
vn 1 0 1.48443243e-07
v 0.0156646781 0.1511195 0.384861708
vt 0.480399996 0.383599997
vn 1 0 1.48443243e-07
v -0.015664719 0.0472377688 0.143130392
vt 0.465799987 0.282999992
vn -1.9568305e-07 -0.809727292 0.586806367
v 0.0156647135 0.0472377688 0.143130407
vt 0.465799987 0.308699995
vn -2.15614048e-07 -0.700757314 0.713399739
v 0.0156647041 0.0825245604 0.209087044
vt 0.401199996 0.308699995
vn -1.12184478e-07 -0.881742071 0.47173183
v -0.015664719 0.0472377688 0.143130392
vt 0.465799987 0.282999992
vn -1.9568305e-07 -0.809727292 0.586806367
v 0.0156647041 0.0825245604 0.209087044
vt 0.401199996 0.308699995
vn -1.12184478e-07 -0.881742071 0.47173183
v -0.0156647284 0.0825245604 0.209087044
vt 0.400900006 0.282999992
vn 0 -0.881742093 0.471731789
v -0.0156647135 -0.000251069665 0.112130716
vt 0.514599979 0.282999992
vn -1.31074099e-07 -0.834398236 0.55116203
v 0.0156647135 0.0472377688 0.143130407
vt 0.465799987 0.308699995
vn -2.15614048e-07 -0.700757314 0.713399739
v -0.015664719 0.0472377688 0.143130392
vt 0.465799987 0.282999992
vn -1.9568305e-07 -0.809727292 0.586806367
v -0.0156647135 -0.000251069665 0.112130716
vt 0.514599979 0.282999992
vn -1.31074099e-07 -0.834398236 0.55116203
v 0.015664719 -0.000251069665 0.112130716
vt 0.514599979 0.308699995
vn 0 -0.971483343 0.237107811
v 0.0156647135 0.0472377688 0.143130407
vt 0.465799987 0.308699995
vn -2.15614048e-07 -0.700757314 0.713399739
v -0.0156647023 -0.000251069665 0.0303444043
vt 0.584900022 0.282999992
vn 0 -1 -2.22046769e-16
v 0.015664719 -0.000251069665 0.112130716
vt 0.514599979 0.308699995
vn 0 -0.971483343 0.237107811
v -0.0156647135 -0.000251069665 0.112130716
vt 0.514599979 0.282999992
vn -1.31074099e-07 -0.834398236 0.55116203
v -0.0156647023 -0.000251069665 0.0303444043
vt 0.584900022 0.282999992
vn 0 -1 -2.22046769e-16
v 0.0156647302 -0.000251069665 0.0303444043
vt 0.584900022 0.308699995
vn 0 -1 -2.22046769e-16
v 0.015664719 -0.000251069665 0.112130716
vt 0.514599979 0.308699995
vn 0 -0.971483343 0.237107811
v -0.0156646967 0.0825245604 -0.00659138709
vt 0.522000015 0.153500006
vn 0 -0.904134795 -0.42724732
v 0.0156647358 0.0825245604 -0.00659138709
vt 0.522000015 0.185200006
vn 0 -0.953766592 -0.300548312
v 0.0156647302 0.0498756841 0.0310040787
vt 0.468199998 0.185200006
vn 0 -0.542454879 -0.840084939
v -0.0156646967 0.0825245604 -0.00659138709
vt 0.522000015 0.153500006
vn 0 -0.904134795 -0.42724732
v 0.0156647302 0.0498756841 0.0310040787
vt 0.468199998 0.185200006
vn 0 -0.542454879 -0.840084939
v -0.0156647023 0.0498756841 0.0310040787
vt 0.468199998 0.153500006
vn 0 -0.26332017 -0.964708499
v -0.0156647023 0.0498756841 0.0310040787
vt 0.468199998 0.153500006
vn 0 -0.26332017 -0.964708499
v 0.0156647302 0.0498756841 0.0310040787
vt 0.468199998 0.185200006
vn 0 -0.542454879 -0.840084939
v 0.0156647302 -0.000251069665 0.0303444043
vt 0.414299995 0.185200006
vn 0 0.0131589868 -0.999913417
v -0.0156647023 0.0498756841 0.0310040787
vt 0.468199998 0.153500006
vn 0 -0.26332017 -0.964708499
v 0.0156647302 -0.000251069665 0.0303444043
vt 0.414299995 0.185200006
vn 0 0.0131589868 -0.999913417
v -0.0156647023 -0.000251069665 0.0303444043
vt 0.414299995 0.153500006
vn 0 0.0131589868 -0.999913417
v -0.0156646781 0.110885933 -0.129600585
vt 0.658100009 0.153500006
vn 0 -0.930356831 -0.366655379
v 0.0156647358 0.0825245604 -0.00659138709
vt 0.522000015 0.185200006
vn 0 -0.953766592 -0.300548312
v -0.0156646967 0.0825245604 -0.00659138709
vt 0.522000015 0.153500006
vn 0 -0.904134795 -0.42724732
v -0.0156646781 0.110885933 -0.129600585
vt 0.658100009 0.153500006
vn 0 -0.930356831 -0.366655379
v 0.0156647544 0.110885933 -0.129600585
vt 0.658100009 0.185200006
vn 0 -0.748958251 -0.662617188
v 0.0156647358 0.0825245604 -0.00659138709
vt 0.522000015 0.185200006
vn 0 -0.953766592 -0.300548312
v -0.0156646781 0.1511195 -0.129600585
vt 0.701699972 0.153500006
vn 0 0 -1
v 0.0156647544 0.110885933 -0.129600585
vt 0.658100009 0.185200006
vn 0 -0.748958251 -0.662617188
v -0.0156646781 0.110885933 -0.129600585
vt 0.658100009 0.153500006
vn 0 -0.930356831 -0.366655379
v -0.0156646781 0.1511195 -0.129600585
vt 0.701699972 0.153500006
vn 0 0 -1
v 0.0156647544 0.1511195 -0.129600585
vt 0.701699972 0.185200006
vn 0 0 -1
v 0.0156647544 0.110885933 -0.129600585
vt 0.658100009 0.185200006
vn 0 -0.748958251 -0.662617188
v -0.0156647954 0.0294292569 0.655943692
vt 0.343899995 0.273900002
vn 0 0 1
v 0.0156646371 0.0294292569 0.655943692
vt 0.343899995 0.2412
vn 0 0 1
v 0.0156646371 0.131002516 0.655943692
vt 0.407200009 0.2412
vn 0 0 1
v -0.0156647954 0.0294292569 0.655943692
vt 0.343899995 0.273900002
vn 0 0 1
v 0.0156646371 0.131002516 0.655943692
vt 0.407200009 0.2412
vn 0 0 1
v -0.0156647954 0.131002516 0.655943692
vt 0.407200009 0.273900002
vn 0 0 1
v -0.0156647898 0.0294292569 0.615050673
vt 0.369800001 0.196899995
vn 0 -0.967341718 -0.253475837
v 0.0156646427 0.0294292569 0.615050673
vt 0.369800001 0.231900007
vn 0 -0.931022326 -0.364962228
v 0.0156646371 0.0294292569 0.655943692
vt 0.335299999 0.231900007
vn 0 -1 -2.5452611e-16
v -0.0156647898 0.0294292569 0.615050673
vt 0.369800001 0.196899995
vn 0 -0.967341718 -0.253475837
v 0.0156646371 0.0294292569 0.655943692
vt 0.335299999 0.231900007
vn 0 -1 -2.5452611e-16
v -0.0156647954 0.0294292569 0.655943692
vt 0.335299999 0.196899995
vn 0 -1 -2.5452611e-16
v -0.0156647749 0.077907607 0.511828423
vt 0.466600001 0.196899995
vn 0 -0.980678158 -0.195628094
v 0.0156646427 0.0294292569 0.615050673
vt 0.369800001 0.231900007
vn 0 -0.931022326 -0.364962228
v -0.0156647898 0.0294292569 0.615050673
vt 0.369800001 0.196899995
vn 0 -0.967341718 -0.253475837
v -0.0156647749 0.077907607 0.511828423
vt 0.466600001 0.196899995
vn 0 -0.980678158 -0.195628094
v 0.0156646576 0.077907607 0.511828423
vt 0.466600001 0.231900007
vn 0 -0.996700701 -0.0811647248
v 0.0156646427 0.0294292569 0.615050673
vt 0.369800001 0.231900007
vn 0 -0.931022326 -0.364962228
v -0.0156647284 0.0825245604 0.209087044
vt 0.72329998 0.196899995
vn 0 -0.999883732 -0.0152487138
v 0.0156646576 0.077907607 0.511828423
vt 0.466600001 0.231900007
vn 0 -0.996700701 -0.0811647248
v -0.0156647749 0.077907607 0.511828423
vt 0.466600001 0.196899995
vn 0 -0.980678158 -0.195628094
v -0.0156647284 0.0825245604 0.209087044
vt 0.72329998 0.196899995
vn 0 -0.999883732 -0.0152487138
v 0.0156647041 0.0825245604 0.209087044
vt 0.72329998 0.231900007
vn 0 -0.999883732 -0.0152487138
v 0.0156646576 0.077907607 0.511828423
vt 0.466600001 0.231900007
vn 0 -0.996700701 -0.0811647248
v -0.0156647544 0.131002516 0.384861708
vt 0.593500018 0.273900002
vn 0 0 1
v 0.0156646781 0.131002516 0.384861708
vt 0.593500018 0.2412
vn 0 0 1
v 0.0156646781 0.1511195 0.384861708
vt 0.606999993 0.2412
vn 0 0 1
v -0.0156647544 0.131002516 0.384861708
vt 0.593500018 0.273900002
vn 0 0 1
v 0.0156646781 0.1511195 0.384861708
vt 0.606999993 0.2412
vn 0 0 1
v -0.0156647544 0.1511195 0.384861708
vt 0.606999993 0.273900002
vn 0 0 1
v -0.0156647954 0.131002516 0.655943692
vt 0.407200009 0.273900002
vn 0 1 2.04776247e-16
v 0.0156646371 0.131002516 0.655943692
vt 0.407200009 0.2412
vn 0 1 2.04776247e-16
v 0.0156646781 0.131002516 0.384861708
vt 0.593500018 0.2412
vn 0 1 2.04776247e-16
v -0.0156647954 0.131002516 0.655943692
vt 0.407200009 0.273900002
vn 0 1 2.04776247e-16
v 0.0156646781 0.131002516 0.384861708
vt 0.593500018 0.2412
vn 0 1 2.04776247e-16
v -0.0156647544 0.131002516 0.384861708
vt 0.593500018 0.273900002
vn 0 1 2.04776247e-16
v -0.0156646967 0.0825245604 -0.00659138709
vt 0.689100027 0.325700015
vn -1 5.33414739e-09 -1.47974151e-07
v -0.0156647023 0.0498756841 0.0310040787
vt 0.66900003 0.299199998
vn -1 -7.89711216e-09 -1.45672488e-07
v -0.015664719 0.0472377688 0.143130392
vt 0.609300017 0.297800004
vn -1 -1.85280709e-09 -1.48429083e-07
v -0.0156646967 0.0825245604 -0.00659138709
vt 0.689100027 0.325700015
vn -1 5.33414739e-09 -1.47974151e-07
v -0.015664719 0.0472377688 0.143130392
vt 0.609300017 0.297800004
vn -1 -1.85280709e-09 -1.48429083e-07
v -0.0156647284 0.0825245604 0.209087044
vt 0.574100018 0.326900005
vn -1 9.2998526e-09 -1.49914281e-07
v -0.0156647023 0.0498756841 0.0310040787
vt 0.66900003 0.299199998
vn -1 -7.89711216e-09 -1.45672488e-07
v -0.0156647135 -0.000251069665 0.112130716
vt 0.62559998 0.259000003
vn -1 -1.04678583e-08 -1.44226249e-07
v -0.015664719 0.0472377688 0.143130392
vt 0.609300017 0.297800004
vn -1 -1.85280709e-09 -1.48429083e-07
v -0.0156647023 0.0498756841 0.0310040787
vt 0.66900003 0.299199998
vn -1 -7.89711216e-09 -1.45672488e-07
v -0.0156647023 -0.000251069665 0.0303444043
vt 0.669200003 0.25850001
vn -1 1.79829445e-09 -1.36647204e-07
v -0.0156647135 -0.000251069665 0.112130716
vt 0.62559998 0.259000003
vn -1 -1.04678583e-08 -1.44226249e-07
v -0.0156647544 0.131002516 0.384861708
vt 0.480399996 0.367199987
vn -1 1.13966429e-08 -1.50041726e-07
v -0.0156646967 0.0825245604 -0.00659138709
vt 0.689100027 0.325700015
vn -1 5.33414739e-09 -1.47974151e-07
v -0.0156647284 0.0825245604 0.209087044
vt 0.574100018 0.326900005
vn -1 9.2998526e-09 -1.49914281e-07
v -0.0156647544 0.131002516 0.384861708
vt 0.480399996 0.367199987
vn -1 1.13966429e-08 -1.50041726e-07
v -0.0156647284 0.0825245604 0.209087044
vt 0.574100018 0.326900005
vn -1 9.2998526e-09 -1.49914281e-07
v -0.0156647749 0.077907607 0.511828423
vt 0.412600011 0.324600011
vn -1 1.59266648e-08 -1.49665204e-07
v -0.0156647544 0.131002516 0.384861708
vt 0.480399996 0.367199987
vn -1 1.13966429e-08 -1.50041726e-07
v -0.0156647749 0.077907607 0.511828423
vt 0.412600011 0.324600011
vn -1 1.59266648e-08 -1.49665204e-07
v -0.0156647954 0.131002516 0.655943692
vt 0.335799992 0.368699998
vn -1 1.23787831e-08 -1.45992363e-07
v -0.0156647898 0.0294292569 0.615050673
vt 0.3574 0.28580001
vn -1 1.9586548e-09 -1.41512724e-07
v -0.0156647954 0.131002516 0.655943692
vt 0.335799992 0.368699998
vn -1 1.23787831e-08 -1.45992363e-07
v -0.0156647749 0.077907607 0.511828423
vt 0.412600011 0.324600011
vn -1 1.59266648e-08 -1.49665204e-07
v -0.0156647898 0.0294292569 0.615050673
vt 0.3574 0.28580001
vn -1 1.9586548e-09 -1.41512724e-07
v -0.0156647954 0.0294292569 0.655943692
vt 0.335599989 0.2861
vn -1 0 -1.36647665e-07
v -0.0156647954 0.131002516 0.655943692
vt 0.335799992 0.368699998
vn -1 1.23787831e-08 -1.45992363e-07
v -0.0156647544 0.131002516 0.384861708
vt 0.480399996 0.367199987
vn -1 1.13966429e-08 -1.50041726e-07
v -0.0156646781 0.110885933 -0.129600585
vt 0.754800022 0.347799987
vn -1 3.91958989e-09 -1.48596508e-07
v -0.0156646967 0.0825245604 -0.00659138709
vt 0.689100027 0.325700015
vn -1 5.33414739e-09 -1.47974151e-07
v -0.0156647544 0.1511195 0.384861708
vt 0.480399996 0.383599997
vn -1 0 -1.48443243e-07
v -0.0156646781 0.110885933 -0.129600585
vt 0.754800022 0.347799987
vn -1 3.91958989e-09 -1.48596508e-07
v -0.0156647544 0.131002516 0.384861708
vt 0.480399996 0.367199987
vn -1 1.13966429e-08 -1.50041726e-07
v -0.0156647544 0.1511195 0.384861708
vt 0.480399996 0.383599997
vn -1 0 -1.48443243e-07
v -0.0156646781 0.1511195 -0.129600585
vt 0.754899979 0.380699992
vn -1 0 -1.48443243e-07
v -0.0156646781 0.110885933 -0.129600585
vt 0.754800022 0.347799987
vn -1 3.91958989e-09 -1.48596508e-07
v 0.0453452766 0.357564032 -0.209737927
vt 0.750699997 0.0943000019
vn 0.996857119 -0.0792204729 1.38380012e-07
v 0.0493026786 0.407361329 -0.209737927
vt 0.750699997 0.136899993
vn 0.999915568 0.0126937662 0.0027792728
v 0.0493026711 0.407361329 -0.148398221
vt 0.709599972 0.136899993
vn 0.997699313 -0.0677944021 1.48156203e-07
v 0.0453452766 0.357564032 -0.209737927
vt 0.750699997 0.0943000019
vn 0.996857119 -0.0792204729 1.38380012e-07
v 0.0493026711 0.407361329 -0.148398221
vt 0.709599972 0.136899993
vn 0.997699313 -0.0677944021 1.48156203e-07
v 0.0453452542 0.357564032 -0.0563886985
vt 0.647899985 0.0943000019
vn 0.995180262 -0.0980624621 1.53966162e-07
v 0.0493026711 0.407361329 -0.148398221
vt 0.709599972 0.136899993
vn 0.997699313 -0.0677944021 1.48156203e-07
v 0.0453452356 0.357564032 0.0600249358
vt 0.569899976 0.0943000019
vn 0.996067449 -0.0885981771 1.54409616e-07
v 0.0453452542 0.357564032 -0.0563886985
vt 0.647899985 0.0943000019
vn 0.995180262 -0.0980624621 1.53966162e-07
v 0.0493026711 0.407361329 -0.148398221
vt 0.709599972 0.136899993
vn 0.997699313 -0.0677944021 1.48156203e-07
v 0.049302619 0.407361329 0.186002299
vt 0.485599995 0.136899993
vn 0.997104524 -0.0760431939 8.94566429e-08
v 0.0453452356 0.357564032 0.0600249358
vt 0.569899976 0.0943000019
vn 0.996067449 -0.0885981771 1.54409616e-07
v 0.0493026786 0.407361329 -0.209737927
vt 0.750699997 0.136899993
vn 0.999915568 0.0126937662 0.0027792728
v 0.0466644093 0.4601264 -0.148398221
vt 0.709599972 0.181799993
vn 0.998982119 0.0448981775 0.00434511752
v 0.0493026711 0.407361329 -0.148398221
vt 0.709599972 0.136899993
vn 0.997699313 -0.0677944021 1.48156203e-07
v 0.0493026786 0.407361329 -0.209737927
vt 0.750699997 0.136899993
vn 0.999915568 0.0126937662 0.0027792728
v 0.0466644168 0.471998632 -0.209737927
vt 0.750699997 0.192100003
vn 0.999168034 0.0407824381 0.000182253298
v 0.0466644093 0.4601264 -0.148398221
vt 0.709599972 0.181799993
vn 0.998982119 0.0448981775 0.00434511752
v 0.0493026786 0.407361329 -0.209737927
vt 0.750699997 0.136899993
vn 0.999915568 0.0126937662 0.0027792728
v 0.0466644205 0.460456252 -0.222269803
vt 0.759000003 0.1822
vn 0.998759865 0.0497825447 0.000655461231
v 0.0466644168 0.471998632 -0.209737927
vt 0.750699997 0.192100003
vn 0.999168034 0.0407824381 0.000182253298
v 0.0493026786 0.407361329 -0.209737927
vt 0.750699997 0.136899993
vn 0.999915568 0.0126937662 0.0027792728
v 0.0493026823 0.419233561 -0.222269803
vt 0.759000003 0.146799996
vn 0.996136389 0.0637529586 0.0603974688
v 0.0466644205 0.460456252 -0.222269803
vt 0.759000003 0.1822
vn 0.998759865 0.0497825447 0.000655461231
v 0.0453452356 0.357564032 0.0600249358
vt 0.569899976 0.0943000019
vn 0.996067449 -0.0885981771 1.54409616e-07
v 0.049302619 0.407361329 0.186002299
vt 0.485599995 0.136899993
vn 0.997104524 -0.0760431939 8.94566429e-08
v 0.045345217 0.357564032 0.186002299
vt 0.485599995 0.0943000019
vn 0.99682846 -0.0792181741 -0.00758297296
v 0.049302619 0.407361329 0.186002299
vt 0.485599995 0.136899993
vn 0.997104524 -0.0760431939 8.94566429e-08
v 0.0453452133 0.342063993 0.221948564
vt 0.461600006 0.0812000036
vn 0.998168497 -0.0604950518 -2.225638e-07
v 0.045345217 0.357564032 0.186002299
vt 0.485599995 0.0943000019
vn 0.99682846 -0.0792181741 -0.00758297296
v 0.049302619 0.407361329 0.186002299
vt 0.485599995 0.136899993
vn 0.997104524 -0.0760431939 8.94566429e-08
v 0.0493026152 0.42286098 0.221948564
vt 0.461600006 0.150000006
vn 0.99858051 -0.0489100476 0.0210896017
v 0.0453452133 0.342063993 0.221948564
vt 0.461600006 0.0812000036
vn 0.998168497 -0.0604950518 -2.225638e-07
v 0.0453452542 0.357564032 -0.0563886985
vt 0.647899985 0.0943000019
vn 0.995180262 -0.0980624621 1.53966162e-07
v 0.0453452356 0.357564032 0.0600249358
vt 0.569899976 0.0943000019
vn 0.996067449 -0.0885981771 1.54409616e-07
v 0.0407282785 0.326894164 0.0122062564
vt 0.601999998 0.0678000003
vn 0.989030066 -0.14771435 1.52556915e-07
v 0.0407282785 0.326894164 0.0122062564
vt 0.601999998 0.0678000003
vn 0.989030066 -0.14771435 1.52556915e-07
v 0.0453452356 0.357564032 0.0600249358
vt 0.569899976 0.0943000019
vn 0.996067449 -0.0885981771 1.54409616e-07
v 0.0407282747 0.326894164 0.0399081483
vt 0.583500028 0.0678000003
vn 0.988858252 -0.148860195 1.32979511e-07
v 0.0453452542 0.357564032 -0.0563886985
vt 0.647899985 0.0943000019
vn 0.995180262 -0.0980624621 1.53966162e-07
v 0.0407282785 0.326894164 0.0122062564
vt 0.601999998 0.0678000003
vn 0.989030066 -0.14771435 1.52556915e-07
v 0.0407282859 0.326894164 -0.0319846049
vt 0.631600022 0.0678000003
vn 0.989169276 -0.146779236 1.66773971e-07
v 0.0407282785 0.326894164 0.0122062564
vt 0.601999998 0.0678000003
vn 0.989030066 -0.14771435 1.52556915e-07
v 0.0377602316 0.306447357 -0.0276974961
vt 0.628700018 0.0502000004
vn 0.98962796 -0.143654098 1.38582885e-07
v 0.0407282859 0.326894164 -0.0319846049
vt 0.631600022 0.0678000003
vn 0.989169276 -0.146779236 1.66773971e-07
v 0.0407282785 0.326894164 0.0122062564
vt 0.601999998 0.0678000003
vn 0.989030066 -0.14771435 1.52556915e-07
v 0.0377602279 0.306447357 0.00791914761
vt 0.604900002 0.0502000004
vn 0.98962797 -0.143654031 1.03509233e-07
v 0.0377602316 0.306447357 -0.0276974961
vt 0.628700018 0.0502000004
vn 0.98962796 -0.143654098 1.38582885e-07
v 0.00214364193 0.407361329 -0.209737927
vt 0.925400019 0.215299994
vn 0 -0.120651945 -0.992694872
v 0.0493026786 0.407361329 -0.209737927
vt 0.880900025 0.215299994
vn 0 -0.322589738 -0.946538885
v 0.0453452766 0.357564032 -0.209737927
vt 0.884599984 0.179000005
vn 0 0 -1
v 0.00214364193 0.407361329 -0.209737927
vt 0.925400019 0.215299994
vn 0 -0.120651945 -0.992694872
v 0.0453452766 0.357564032 -0.209737927
vt 0.884599984 0.179000005
vn 0 0 -1
v 0.00610104622 0.357564032 -0.209737927
vt 0.921599984 0.179000005
vn 0 0 -1
v 0.0021436438 0.419233561 -0.222269803
vt 0.925400019 0.231299996
vn 0 -0.359934483 -0.932977582
v 0.0493026786 0.407361329 -0.209737927
vt 0.880900025 0.215299994
vn 0 -0.322589738 -0.946538885
v 0.00214364193 0.407361329 -0.209737927
vt 0.925400019 0.215299994
vn 0 -0.120651945 -0.992694872
v 0.0021436438 0.419233561 -0.222269803
vt 0.925400019 0.231299996
vn 0 -0.359934483 -0.932977582
v 0.0493026823 0.419233561 -0.222269803
vt 0.880900025 0.231399998
vn 0 -0.138794418 -0.990321215
v 0.0493026786 0.407361329 -0.209737927
vt 0.880900025 0.215299994
vn 0 -0.322589738 -0.946538885
v 0.0051116962 0.460456252 -0.222269803
vt 0.922599971 0.280999988
vn 0 0.124900049 -0.992169329
v 0.0493026823 0.419233561 -0.222269803
vt 0.880900025 0.231399998
vn 0 -0.138794418 -0.990321215
v 0.0021436438 0.419233561 -0.222269803
vt 0.925400019 0.231299996
vn 0 -0.359934483 -0.932977582
v 0.0051116962 0.460456252 -0.222269803
vt 0.922599971 0.280999988
vn 0 0.124900049 -0.992169329
v 0.0466644205 0.460456252 -0.222269803
vt 0.883599997 0.280999988
vn 0 0.363142126 -0.931733758
v 0.0493026823 0.419233561 -0.222269803
vt 0.880900025 0.231399998
vn 0 -0.138794418 -0.990321215
v 0.00511169434 0.471998632 -0.209737927
vt 0.922599971 0.297100008
vn 0 0.735549142 -0.677471372
v 0.0466644205 0.460456252 -0.222269803
vt 0.883599997 0.280999988
vn 0 0.363142126 -0.931733758
v 0.0051116962 0.460456252 -0.222269803
vt 0.922599971 0.280999988
vn 0 0.124900049 -0.992169329
v 0.00511169434 0.471998632 -0.209737927
vt 0.922599971 0.297100008
vn 0 0.735549142 -0.677471372
v 0.0466644168 0.471998632 -0.209737927
vt 0.883599997 0.297100008
vn 0 0.735549142 -0.677471372
v 0.0466644205 0.460456252 -0.222269803
vt 0.883599997 0.280999988
vn 0 0.363142126 -0.931733758
v 0.0021435821 0.407361329 0.186002284
vt 0.477899998 0.0410000011
vn 6.94766194e-09 0.999758237 -0.0219878868
v 0.049302619 0.407361329 0.186002299
vt 0.477899998 0.00700000022
vn 1.20192475e-08 0.997101963 -0.0760767753
v 0.0493026711 0.407361329 -0.148398221
vt 0.68690002 0.00700000022
vn -5.24527761e-23 1 3.32003984e-16
v 0.0021435821 0.407361329 0.186002284
vt 0.477899998 0.0410000011
vn 6.94766194e-09 0.999758237 -0.0219878868
v 0.0493026711 0.407361329 -0.148398221
vt 0.68690002 0.00700000022
vn -5.24527761e-23 1 3.32003984e-16
v 0.00214363262 0.407361329 -0.148398221
vt 0.68690002 0.0410000011
vn 0 1 3.32003992e-16
v 0.00214357674 0.42286098 0.221948564
vt 0.453500003 0.0410000011
vn 6.25553951e-08 0.91827237 -0.395949308
v 0.049302619 0.407361329 0.186002299
vt 0.477899998 0.00700000022
vn 1.20192475e-08 0.997101963 -0.0760767753
v 0.0021435821 0.407361329 0.186002284
vt 0.477899998 0.0410000011
vn 6.94766194e-09 0.999758237 -0.0219878868
v 0.00214357674 0.42286098 0.221948564
vt 0.453500003 0.0410000011
vn 6.25553951e-08 0.91827237 -0.395949308
v 0.0493026152 0.42286098 0.221948564
vt 0.453500003 0.00700000022
vn 0 0.91827234 -0.395949377
v 0.049302619 0.407361329 0.186002299
vt 0.477899998 0.00700000022
vn 1.20192475e-08 0.997101963 -0.0760767753
v 0.00511168502 0.4601264 -0.148398221
vt 0.719699979 0.0388999991
vn 0 0.848511114 0.52917756
v 0.0466644093 0.4601264 -0.148398221
vt 0.719699979 0.00910000037
vn 0 0.441897587 0.897065506
v 0.0466644168 0.471998632 -0.209737927
vt 0.75880003 0.00910000037
vn 0 0.981779759 0.190022381
v 0.00511168502 0.4601264 -0.148398221
vt 0.719699979 0.0388999991
vn 0 0.848511114 0.52917756
v 0.0466644168 0.471998632 -0.209737927
vt 0.75880003 0.00910000037
vn 0 0.981779759 0.190022381
v 0.00511169434 0.471998632 -0.209737927
vt 0.75880003 0.0388999991
vn 0 0.981779759 0.190022381
v 0.00214363262 0.407361329 -0.148398221
vt 0.68690002 0.0410000011
vn 0 -5.26021758e-16 1
v 0.0466644093 0.4601264 -0.148398221
vt 0.719699979 0.00910000037
vn 0 0.441897587 0.897065506
v 0.00511168502 0.4601264 -0.148398221
vt 0.719699979 0.0388999991
vn 0 0.848511114 0.52917756
v 0.00214363262 0.407361329 -0.148398221
vt 0.68690002 0.0410000011
vn 0 -5.26021758e-16 1
v 0.0493026711 0.407361329 -0.148398221
vt 0.68690002 0.00700000022
vn 0 -5.26021758e-16 1
v 0.0466644093 0.4601264 -0.148398221
vt 0.719699979 0.00910000037
vn 0 0.441897587 0.897065506
v 0.00610098103 0.342063993 0.221948564
vt 0.958999991 0.209600002
vn 0 0 1
v 0.0453452133 0.342063993 0.221948564
vt 0.992200017 0.209900007
vn 0 0 1
v 0.0493026152 0.42286098 0.221948564
vt 0.995100021 0.277999997
vn 0 0 1
v 0.00610098103 0.342063993 0.221948564
vt 0.958999991 0.209600002
vn 0 0 1
v 0.0493026152 0.42286098 0.221948564
vt 0.995100021 0.277999997
vn 0 0 1
v 0.00214357674 0.42286098 0.221948564
vt 0.955200016 0.277700007
vn 0 0 1
v 0.00610098662 0.357564032 0.186002284
vt 0.452300012 0.0480999984
vn 2.93854123e-08 -0.987948814 -0.154780946
v 0.045345217 0.357564032 0.186002299
vt 0.452300012 0.0781000033
vn 2.04129341e-08 -0.998553873 -0.0537602325
v 0.0453452133 0.342063993 0.221948564
vt 0.429399997 0.0781000033
vn 7.51731991e-08 -0.918268771 -0.395957654
v 0.00610098662 0.357564032 0.186002284
vt 0.452300012 0.0480999984
vn 2.93854123e-08 -0.987948814 -0.154780946
v 0.0453452133 0.342063993 0.221948564
vt 0.429399997 0.0781000033
vn 7.51731991e-08 -0.918268771 -0.395957654
v 0.00610098103 0.342063993 0.221948564
vt 0.429399997 0.0480999984
vn 0 -0.918268801 -0.395957584
v 0.00610100525 0.357564032 0.0600249283
vt 0.526199996 0.0480999984
vn -2.1266751e-08 -0.993706206 0.11201775
v 0.045345217 0.357564032 0.186002299
vt 0.452300012 0.0781000033
vn 2.04129341e-08 -0.998553873 -0.0537602325
v 0.00610098662 0.357564032 0.186002284
vt 0.452300012 0.0480999984
vn 2.93854123e-08 -0.987948814 -0.154780946
v 0.00610100525 0.357564032 0.0600249283
vt 0.526199996 0.0480999984
vn -2.1266751e-08 -0.993706206 0.11201775
v 0.0453452356 0.357564032 0.0600249358
vt 0.526199996 0.0781000033
vn -6.84766456e-08 -0.948513707 0.316736086
v 0.045345217 0.357564032 0.186002299
vt 0.452300012 0.0781000033
vn 2.04129341e-08 -0.998553873 -0.0537602325
v 0.0110477582 0.326894164 0.0399081409
vt 0.547800004 0.0518000014
vn -1.49482742e-07 -0.722446655 0.691426663
v 0.0453452356 0.357564032 0.0600249358
vt 0.526199996 0.0781000033
vn -6.84766456e-08 -0.948513707 0.316736086
v 0.00610100525 0.357564032 0.0600249283
vt 0.526199996 0.0480999984
vn -2.1266751e-08 -0.993706206 0.11201775
v 0.0110477582 0.326894164 0.0399081409
vt 0.547800004 0.0518000014
vn -1.49482742e-07 -0.722446655 0.691426663
v 0.0407282747 0.326894164 0.0399081483
vt 0.547800004 0.0744000003
vn -9.44530191e-08 -0.926510906 0.376267911
v 0.0453452356 0.357564032 0.0600249358
vt 0.526199996 0.0781000033
vn -6.84766456e-08 -0.948513707 0.316736086
v 0.0110477619 0.326894164 0.0122062489
vt 0.56400001 0.0518000014
vn -8.13474606e-08 -0.946036553 0.324059933
v 0.0407282747 0.326894164 0.0399081483
vt 0.547800004 0.0744000003
vn -9.44530191e-08 -0.926510906 0.376267911
v 0.0110477582 0.326894164 0.0399081409
vt 0.547800004 0.0518000014
vn -1.49482742e-07 -0.722446655 0.691426663
v 0.0110477619 0.326894164 0.0122062489
vt 0.56400001 0.0518000014
vn -8.13474606e-08 -0.946036553 0.324059933
v 0.0407282785 0.326894164 0.0122062564
vt 0.56400001 0.0744000003
vn -2.00971323e-07 -0.693413666 0.72053972
v 0.0407282747 0.326894164 0.0399081483
vt 0.547800004 0.0744000003
vn -9.44530191e-08 -0.926510906 0.376267911
v 0.0140158162 0.306447357 0.00791914016
vt 0.576300025 0.0540000014
vn -2.72981872e-07 -0.205209114 0.978718151
v 0.0407282785 0.326894164 0.0122062564
vt 0.56400001 0.0744000003
vn -2.00971323e-07 -0.693413666 0.72053972
v 0.0110477619 0.326894164 0.0122062489
vt 0.56400001 0.0518000014
vn -8.13474606e-08 -0.946036553 0.324059933
v 0.0140158162 0.306447357 0.00791914016
vt 0.576300025 0.0540000014
vn -2.72981872e-07 -0.205209114 0.978718151
v 0.0377602279 0.306447357 0.00791914761
vt 0.576300025 0.0722000003
vn -3.07104619e-07 -0.205209071 0.97871816
v 0.0407282785 0.326894164 0.0122062564
vt 0.56400001 0.0744000003
vn -2.00971323e-07 -0.693413666 0.72053972
v 0.0453452542 0.357564032 -0.0563886985
vt 0.682600021 0.0855000019
vn 0 -0.995737298 -0.0922346621
v 0.00610102294 0.357564032 -0.0563886985
vt 0.682600021 0.0511000007
vn 0 -0.964321196 -0.264735018
v 0.00610104622 0.357564032 -0.209737927
vt 0.769299984 0.0511000007
vn 0 -1 -3.61991722e-16
v 0.0453452542 0.357564032 -0.0563886985
vt 0.682600021 0.0855000019
vn 0 -0.995737298 -0.0922346621
v 0.00610104622 0.357564032 -0.209737927
vt 0.769299984 0.0511000007
vn 0 -1 -3.61991722e-16
v 0.0453452766 0.357564032 -0.209737927
vt 0.769299984 0.0855000019
vn 0 -1 -3.61991722e-16
v 0.00610102294 0.357564032 -0.0563886985
vt 0.682600021 0.0511000007
vn 0 -0.964321196 -0.264735018
v 0.0453452542 0.357564032 -0.0563886985
vt 0.682600021 0.0855000019
vn 0 -0.995737298 -0.0922346621
v 0.0407282859 0.326894164 -0.0319846049
vt 0.66049999 0.0812999979
vn 0 -0.55373219 -0.832694819
v 0.00610102294 0.357564032 -0.0563886985
vt 0.682600021 0.0511000007
vn 0 -0.964321196 -0.264735018
v 0.0407282859 0.326894164 -0.0319846049
vt 0.66049999 0.0812999979
vn 0 -0.55373219 -0.832694819
v 0.0110477693 0.326894164 -0.0319846049
vt 0.66049999 0.0553000011
vn 0 -0.429828383 -0.902910605
v 0.0110477693 0.326894164 -0.0319846049
vt 0.66049999 0.0553000011
vn 0 -0.429828383 -0.902910605
v 0.0407282859 0.326894164 -0.0319846049
vt 0.66049999 0.0812999979
vn 0 -0.55373219 -0.832694819
v 0.0377602316 0.306447357 -0.0276974961
vt 0.648599982 0.0788000003
vn 0 -0.205209114 -0.978718151
v 0.0110477693 0.326894164 -0.0319846049
vt 0.66049999 0.0553000011
vn 0 -0.429828383 -0.902910605
v 0.0377602316 0.306447357 -0.0276974961
vt 0.648599982 0.0788000003
vn 0 -0.205209114 -0.978718151
v 0.0140158217 0.306447357 -0.0276974961
vt 0.648599982 0.0579000004
vn 0 -0.205209114 -0.978718151
v 0.00610104622 0.357564032 -0.209737927
vt 0.750699997 0.0943000019
vn -0.996857117 -0.0792204981 -1.51353137e-07
v 0.00610102294 0.357564032 -0.0563886985
vt 0.647899985 0.0943000019
vn -0.994896097 -0.100904687 -1.52374328e-07
v 0.00214363262 0.407361329 -0.148398221
vt 0.709599972 0.136899993
vn -0.997736687 -0.0672421221 -1.5117544e-07
v 0.00610104622 0.357564032 -0.209737927
vt 0.750699997 0.0943000019
vn -0.996857117 -0.0792204981 -1.51353137e-07
v 0.00214363262 0.407361329 -0.148398221
vt 0.709599972 0.136899993
vn -0.997736687 -0.0672421221 -1.5117544e-07
v 0.00214364193 0.407361329 -0.209737927
vt 0.750699997 0.136899993
vn -0.999852314 0.0168990103 0.00312618173
v 0.00610100525 0.357564032 0.0600249283
vt 0.569899976 0.0943000019
vn -0.995940401 -0.0900151003 -1.4969907e-07
v 0.00214363262 0.407361329 -0.148398221
vt 0.709599972 0.136899993
vn -0.997736687 -0.0672421221 -1.5117544e-07
v 0.00610102294 0.357564032 -0.0563886985
vt 0.647899985 0.0943000019
vn -0.994896097 -0.100904687 -1.52374328e-07
v 0.00610100525 0.357564032 0.0600249283
vt 0.569899976 0.0943000019
vn -0.995940401 -0.0900151003 -1.4969907e-07
v 0.0021435821 0.407361329 0.186002284
vt 0.485599995 0.136899993
vn -0.997104522 -0.0760432242 -2.05460396e-07
v 0.00214363262 0.407361329 -0.148398221
vt 0.709599972 0.136899993
vn -0.997736687 -0.0672421221 -1.5117544e-07
v 0.00511168502 0.4601264 -0.148398221
vt 0.709599972 0.181799993
vn -0.998712261 0.0504969398 0.00488666165
v 0.00214364193 0.407361329 -0.209737927
vt 0.750699997 0.136899993
vn -0.999852314 0.0168990103 0.00312618173
v 0.00214363262 0.407361329 -0.148398221
vt 0.709599972 0.136899993
vn -0.997736687 -0.0672421221 -1.5117544e-07
v 0.00511168502 0.4601264 -0.148398221
vt 0.709599972 0.181799993
vn -0.998712261 0.0504969398 0.00488666165
v 0.00511169434 0.471998632 -0.209737927
vt 0.750699997 0.192100003
vn -0.998947386 0.0458702334 0.00020466908
v 0.00214364193 0.407361329 -0.209737927
vt 0.750699997 0.136899993
vn -0.999852314 0.0168990103 0.00312618173
v 0.0051116962 0.460456252 -0.222269803
vt 0.759000003 0.1822
vn -0.998431221 0.0559870835 0.000736670911
v 0.00214364193 0.407361329 -0.209737927
vt 0.750699997 0.136899993
vn -0.999852314 0.0168990103 0.00312618173
v 0.00511169434 0.471998632 -0.209737927
vt 0.750699997 0.192100003
vn -0.998947386 0.0458702334 0.00020466908
v 0.0051116962 0.460456252 -0.222269803
vt 0.759000003 0.1822
vn -0.998431221 0.0559870835 0.000736670911
v 0.0021436438 0.419233561 -0.222269803
vt 0.759000003 0.146799996
vn -0.995117629 0.0716489186 0.0678773624
v 0.00214364193 0.407361329 -0.209737927
vt 0.750699997 0.136899993
vn -0.999852314 0.0168990103 0.00312618173
v 0.00610100525 0.357564032 0.0600249283
vt 0.569899976 0.0943000019
vn -0.995940401 -0.0900151003 -1.4969907e-07
v 0.00610098662 0.357564032 0.186002284
vt 0.485599995 0.0943000019
vn -0.996828454 -0.0792182248 -0.00758326414
v 0.0021435821 0.407361329 0.186002284
vt 0.485599995 0.136899993
vn -0.997104522 -0.0760432242 -2.05460396e-07
v 0.00610098103 0.342063993 0.221948564
vt 0.461600006 0.0812000036
vn -0.998168495 -0.060495089 -4.77944062e-07
v 0.0021435821 0.407361329 0.186002284
vt 0.485599995 0.136899993
vn -0.997104522 -0.0760432242 -2.05460396e-07
v 0.00610098662 0.357564032 0.186002284
vt 0.485599995 0.0943000019
vn -0.996828454 -0.0792182248 -0.00758326414
v 0.00610098103 0.342063993 0.221948564
vt 0.461600006 0.0812000036
vn -0.998168495 -0.060495089 -4.77944062e-07
v 0.00214357674 0.42286098 0.221948564
vt 0.461600006 0.150000006
vn -0.998580514 -0.0489100766 0.0210893532
v 0.0021435821 0.407361329 0.186002284
vt 0.485599995 0.136899993
vn -0.997104522 -0.0760432242 -2.05460396e-07
v 0.00610102294 0.357564032 -0.0563886985
vt 0.647899985 0.0943000019
vn -0.994896097 -0.100904687 -1.52374328e-07
v 0.0110477619 0.326894164 0.0122062489
vt 0.601999998 0.0678000003
vn -0.987787011 -0.155810207 -1.53634955e-07
v 0.00610100525 0.357564032 0.0600249283
vt 0.569899976 0.0943000019
vn -0.995940401 -0.0900151003 -1.4969907e-07
v 0.0110477619 0.326894164 0.0122062489
vt 0.601999998 0.0678000003
vn -0.987787011 -0.155810207 -1.53634955e-07
v 0.0110477582 0.326894164 0.0399081409
vt 0.583500028 0.0678000003
vn -0.987241134 -0.159232354 -1.32762045e-07
v 0.00610100525 0.357564032 0.0600249283
vt 0.569899976 0.0943000019
vn -0.995940401 -0.0900151003 -1.4969907e-07
v 0.00610102294 0.357564032 -0.0563886985
vt 0.647899985 0.0943000019
vn -0.994896097 -0.100904687 -1.52374328e-07
v 0.0110477693 0.326894164 -0.0319846049
vt 0.631600022 0.0678000003
vn -0.988223926 -0.153014614 -1.66614613e-07
v 0.0110477619 0.326894164 0.0122062489
vt 0.601999998 0.0678000003
vn -0.987787011 -0.155810207 -1.53634955e-07
v 0.0140158217 0.306447357 -0.0276974961
vt 0.628700018 0.0502000004
vn -0.989627954 -0.143654143 -1.61680062e-07
v 0.0110477619 0.326894164 0.0122062489
vt 0.601999998 0.0678000003
vn -0.987787011 -0.155810207 -1.53634955e-07
v 0.0110477693 0.326894164 -0.0319846049
vt 0.631600022 0.0678000003
vn -0.988223926 -0.153014614 -1.66614613e-07
v 0.0140158217 0.306447357 -0.0276974961
vt 0.628700018 0.0502000004
vn -0.989627954 -0.143654143 -1.61680062e-07
v 0.0140158162 0.306447357 0.00791914016
vt 0.604900002 0.0502000004
vn -0.989627952 -0.143654155 -1.55263879e-07
v 0.0110477619 0.326894164 0.0122062489
vt 0.601999998 0.0678000003
vn -0.987787011 -0.155810207 -1.53634955e-07
usemtl RPG-31-Newlambert15
f 1/1/1 2/2/2 3/3/3
f 4/4/4 5/5/5 6/6/6
f 7/7/7 8/8/8 9/9/9
f 10/10/10 11/11/11 12/12/12
f 13/13/13 14/14/14 15/15/15
f 16/16/16 17/17/17 18/18/18
f 19/19/19 20/20/20 21/21/21
f 22/22/22 23/23/23 24/24/24
f 25/25/25 26/26/26 27/27/27
f 28/28/28 29/29/29 30/30/30
f 31/31/31 32/32/32 33/33/33
f 34/34/34 35/35/35 36/36/36
f 37/37/37 38/38/38 39/39/39
f 40/40/40 41/41/41 42/42/42
f 43/43/43 44/44/44 45/45/45
f 46/46/46 47/47/47 48/48/48
f 49/49/49 50/50/50 51/51/51
f 52/52/52 53/53/53 54/54/54
f 55/55/55 56/56/56 57/57/57
f 58/58/58 59/59/59 60/60/60
f 61/61/61 62/62/62 63/63/63
f 64/64/64 65/65/65 66/66/66
f 67/67/67 68/68/68 69/69/69
f 70/70/70 71/71/71 72/72/72
f 73/73/73 74/74/74 75/75/75
f 76/76/76 77/77/77 78/78/78
f 79/79/79 80/80/80 81/81/81
f 82/82/82 83/83/83 84/84/84
f 85/85/85 86/86/86 87/87/87
f 88/88/88 89/89/89 90/90/90
f 91/91/91 92/92/92 93/93/93
f 94/94/94 95/95/95 96/96/96
f 97/97/97 98/98/98 99/99/99
f 100/100/100 101/101/101 102/102/102
f 103/103/103 104/104/104 105/105/105
f 106/106/106 107/107/107 108/108/108
f 109/109/109 110/110/110 111/111/111
f 112/112/112 113/113/113 114/114/114
f 115/115/115 116/116/116 117/117/117
f 118/118/118 119/119/119 120/120/120
f 121/121/121 122/122/122 123/123/123
f 124/124/124 125/125/125 126/126/126
f 127/127/127 128/128/128 129/129/129
f 130/130/130 131/131/131 132/132/132
f 133/133/133 134/134/134 135/135/135
f 136/136/136 137/137/137 138/138/138
f 139/139/139 140/140/140 141/141/141
f 142/142/142 143/143/143 144/144/144
f 145/145/145 146/146/146 147/147/147
f 148/148/148 149/149/149 150/150/150
f 151/151/151 152/152/152 153/153/153
f 154/154/154 155/155/155 156/156/156
f 157/157/157 158/158/158 159/159/159
f 160/160/160 161/161/161 162/162/162
f 163/163/163 164/164/164 165/165/165
f 166/166/166 167/167/167 168/168/168
f 169/169/169 170/170/170 171/171/171
f 172/172/172 173/173/173 174/174/174
f 175/175/175 176/176/176 177/177/177
f 178/178/178 179/179/179 180/180/180
f 181/181/181 182/182/182 183/183/183
f 184/184/184 185/185/185 186/186/186
f 187/187/187 188/188/188 189/189/189
f 190/190/190 191/191/191 192/192/192
f 193/193/193 194/194/194 195/195/195
f 196/196/196 197/197/197 198/198/198
f 199/199/199 200/200/200 201/201/201
f 202/202/202 203/203/203 204/204/204
f 205/205/205 206/206/206 207/207/207
f 208/208/208 209/209/209 210/210/210
f 211/211/211 212/212/212 213/213/213
f 214/214/214 215/215/215 216/216/216
f 217/217/217 218/218/218 219/219/219
f 220/220/220 221/221/221 222/222/222
f 223/223/223 224/224/224 225/225/225
f 226/226/226 227/227/227 228/228/228
f 229/229/229 230/230/230 231/231/231
f 232/232/232 233/233/233 234/234/234
f 235/235/235 236/236/236 237/237/237
f 238/238/238 239/239/239 240/240/240
f 241/241/241 242/242/242 243/243/243
f 244/244/244 245/245/245 246/246/246
f 247/247/247 248/248/248 249/249/249
f 250/250/250 251/251/251 252/252/252
f 253/253/253 254/254/254 255/255/255
f 256/256/256 257/257/257 258/258/258
f 259/259/259 260/260/260 261/261/261
f 262/262/262 263/263/263 264/264/264
f 265/265/265 266/266/266 267/267/267
f 268/268/268 269/269/269 270/270/270
f 271/271/271 272/272/272 273/273/273
f 274/274/274 275/275/275 276/276/276
f 277/277/277 278/278/278 279/279/279
f 280/280/280 281/281/281 282/282/282
f 283/283/283 284/284/284 285/285/285
f 286/286/286 287/287/287 288/288/288
f 289/289/289 290/290/290 291/291/291
f 292/292/292 293/293/293 294/294/294
f 295/295/295 296/296/296 297/297/297
f 298/298/298 299/299/299 300/300/300
f 301/301/301 302/302/302 303/303/303
f 304/304/304 305/305/305 306/306/306
f 307/307/307 308/308/308 309/309/309
f 310/310/310 311/311/311 312/312/312
f 313/313/313 314/314/314 315/315/315
f 316/316/316 317/317/317 318/318/318
f 319/319/319 320/320/320 321/321/321
f 322/322/322 323/323/323 324/324/324
f 325/325/325 326/326/326 327/327/327
f 328/328/328 329/329/329 330/330/330
f 331/331/331 332/332/332 333/333/333
f 334/334/334 335/335/335 336/336/336
f 337/337/337 338/338/338 339/339/339
f 340/340/340 341/341/341 342/342/342
f 343/343/343 344/344/344 345/345/345
f 346/346/346 347/347/347 348/348/348
f 349/349/349 350/350/350 351/351/351
f 352/352/352 353/353/353 354/354/354
f 355/355/355 356/356/356 357/357/357
f 358/358/358 359/359/359 360/360/360
f 361/361/361 362/362/362 363/363/363
f 364/364/364 365/365/365 366/366/366
f 367/367/367 368/368/368 369/369/369
f 370/370/370 371/371/371 372/372/372
f 373/373/373 374/374/374 375/375/375
f 376/376/376 377/377/377 378/378/378
f 379/379/379 380/380/380 381/381/381
f 382/382/382 383/383/383 384/384/384
f 385/385/385 386/386/386 387/387/387
f 388/388/388 389/389/389 390/390/390
f 391/391/391 392/392/392 393/393/393
f 394/394/394 395/395/395 396/396/396
f 397/397/397 398/398/398 399/399/399
f 400/400/400 401/401/401 402/402/402
f 403/403/403 404/404/404 405/405/405
f 406/406/406 407/407/407 408/408/408
f 409/409/409 410/410/410 411/411/411
f 412/412/412 413/413/413 414/414/414
f 415/415/415 416/416/416 417/417/417
f 418/418/418 419/419/419 420/420/420
f 421/421/421 422/422/422 423/423/423
f 424/424/424 425/425/425 426/426/426
f 427/427/427 428/428/428 429/429/429
f 430/430/430 431/431/431 432/432/432
f 433/433/433 434/434/434 435/435/435
f 436/436/436 437/437/437 438/438/438
f 439/439/439 440/440/440 441/441/441
f 442/442/442 443/443/443 444/444/444
f 445/445/445 446/446/446 447/447/447
f 448/448/448 449/449/449 450/450/450
f 451/451/451 452/452/452 453/453/453
f 454/454/454 455/455/455 456/456/456
f 457/457/457 458/458/458 459/459/459
f 460/460/460 461/461/461 462/462/462
f 463/463/463 464/464/464 465/465/465
f 466/466/466 467/467/467 468/468/468
f 469/469/469 470/470/470 471/471/471
f 472/472/472 473/473/473 474/474/474
f 475/475/475 476/476/476 477/477/477
f 478/478/478 479/479/479 480/480/480
f 481/481/481 482/482/482 483/483/483
f 484/484/484 485/485/485 486/486/486
f 487/487/487 488/488/488 489/489/489
f 490/490/490 491/491/491 492/492/492
f 493/493/493 494/494/494 495/495/495
f 496/496/496 497/497/497 498/498/498
f 499/499/499 500/500/500 501/501/501
f 502/502/502 503/503/503 504/504/504
f 505/505/505 506/506/506 507/507/507
f 508/508/508 509/509/509 510/510/510
f 511/511/511 512/512/512 513/513/513
f 514/514/514 515/515/515 516/516/516
f 517/517/517 518/518/518 519/519/519
f 520/520/520 521/521/521 522/522/522
f 523/523/523 524/524/524 525/525/525
f 526/526/526 527/527/527 528/528/528
f 529/529/529 530/530/530 531/531/531
f 532/532/532 533/533/533 534/534/534
f 535/535/535 536/536/536 537/537/537
f 538/538/538 539/539/539 540/540/540
f 541/541/541 542/542/542 543/543/543
f 544/544/544 545/545/545 546/546/546
f 547/547/547 548/548/548 549/549/549
f 550/550/550 551/551/551 552/552/552
f 553/553/553 554/554/554 555/555/555
f 556/556/556 557/557/557 558/558/558
f 559/559/559 560/560/560 561/561/561
f 562/562/562 563/563/563 564/564/564
f 565/565/565 566/566/566 567/567/567
f 568/568/568 569/569/569 570/570/570
f 571/571/571 572/572/572 573/573/573
f 574/574/574 575/575/575 576/576/576
f 577/577/577 578/578/578 579/579/579
f 580/580/580 581/581/581 582/582/582
f 583/583/583 584/584/584 585/585/585
f 586/586/586 587/587/587 588/588/588
f 589/589/589 590/590/590 591/591/591
f 592/592/592 593/593/593 594/594/594
f 595/595/595 596/596/596 597/597/597
f 598/598/598 599/599/599 600/600/600
f 601/601/601 602/602/602 603/603/603
f 604/604/604 605/605/605 606/606/606
f 607/607/607 608/608/608 609/609/609
f 610/610/610 611/611/611 612/612/612
f 613/613/613 614/614/614 615/615/615
f 616/616/616 617/617/617 618/618/618
f 619/619/619 620/620/620 621/621/621
f 622/622/622 623/623/623 624/624/624
f 625/625/625 626/626/626 627/627/627
f 628/628/628 629/629/629 630/630/630
f 631/631/631 632/632/632 633/633/633
f 634/634/634 635/635/635 636/636/636
f 637/637/637 638/638/638 639/639/639
f 640/640/640 641/641/641 642/642/642
f 643/643/643 644/644/644 645/645/645
f 646/646/646 647/647/647 648/648/648
f 649/649/649 650/650/650 651/651/651
f 652/652/652 653/653/653 654/654/654
f 655/655/655 656/656/656 657/657/657
f 658/658/658 659/659/659 660/660/660
f 661/661/661 662/662/662 663/663/663
f 664/664/664 665/665/665 666/666/666
f 667/667/667 668/668/668 669/669/669
f 670/670/670 671/671/671 672/672/672
f 673/673/673 674/674/674 675/675/675
f 676/676/676 677/677/677 678/678/678
f 679/679/679 680/680/680 681/681/681
f 682/682/682 683/683/683 684/684/684
f 685/685/685 686/686/686 687/687/687
f 688/688/688 689/689/689 690/690/690
f 691/691/691 692/692/692 693/693/693
f 694/694/694 695/695/695 696/696/696
f 697/697/697 698/698/698 699/699/699
f 700/700/700 701/701/701 702/702/702
f 703/703/703 704/704/704 705/705/705
f 706/706/706 707/707/707 708/708/708
f 709/709/709 710/710/710 711/711/711
f 712/712/712 713/713/713 714/714/714
f 715/715/715 716/716/716 717/717/717
f 718/718/718 719/719/719 720/720/720
f 721/721/721 722/722/722 723/723/723
f 724/724/724 725/725/725 726/726/726
f 727/727/727 728/728/728 729/729/729
f 730/730/730 731/731/731 732/732/732
f 733/733/733 734/734/734 735/735/735
f 736/736/736 737/737/737 738/738/738
f 739/739/739 740/740/740 741/741/741
f 742/742/742 743/743/743 744/744/744
f 745/745/745 746/746/746 747/747/747
f 748/748/748 749/749/749 750/750/750
f 751/751/751 752/752/752 753/753/753
f 754/754/754 755/755/755 756/756/756
f 757/757/757 758/758/758 759/759/759
f 760/760/760 761/761/761 762/762/762
f 763/763/763 764/764/764 765/765/765
f 766/766/766 767/767/767 768/768/768
f 769/769/769 770/770/770 771/771/771
f 772/772/772 773/773/773 774/774/774
f 775/775/775 776/776/776 777/777/777
f 778/778/778 779/779/779 780/780/780
f 781/781/781 782/782/782 783/783/783
f 784/784/784 785/785/785 786/786/786
f 787/787/787 788/788/788 789/789/789
f 790/790/790 791/791/791 792/792/792
f 793/793/793 794/794/794 795/795/795
f 796/796/796 797/797/797 798/798/798
f 799/799/799 800/800/800 801/801/801
f 802/802/802 803/803/803 804/804/804
f 805/805/805 806/806/806 807/807/807
f 808/808/808 809/809/809 810/810/810
f 811/811/811 812/812/812 813/813/813
f 814/814/814 815/815/815 816/816/816
