# Generated from legacy Unity YAML Mesh assets without Unity.
mtllib gun14.mtl

o gun14
v 0.0416832641 0.14482826 -0.529187799
v 0.0416832641 0.241924942 -0.848278284
v 0.0416832641 0.148586363 -0.849235892
v 0.0416832641 0.231984496 -0.528293729
v 0.0295595136 0.0712395683 -0.53092885
v 0.0308167655 0.0678516477 -0.965368867
v 0.0433605127 0.148670658 -0.966245174
v -0.0551649854 0.14482826 -0.529187799
v -0.0551649854 0.241924942 -0.848278284
v -0.0551649854 0.231984496 -0.528293729
v -0.0551649854 0.148586363 -0.849235892
v -0.0430412367 0.0712395683 -0.53092885
v -0.0442984849 0.0678516477 -0.965368867
v -0.0568419844 0.148670658 -0.966245174
v 0.0295595136 0.0712395683 -0.53092885
v -0.0442984849 0.0678516477 -0.965368867
v -0.0430412367 0.0712395683 -0.53092885
v 0.0308167655 0.0678516477 -0.965368867
v -0.0551649854 0.241924942 -0.848278284
v 0.0416832641 0.231984496 -0.528293729
v -0.0551649854 0.231984496 -0.528293729
v 0.0416832641 0.241924942 -0.848278284
v -0.0568419844 0.148670658 -0.966245174
v 0.0308167655 0.0678516477 -0.965368867
v 0.0433605127 0.148670658 -0.966245174
v -0.0442984849 0.0678516477 -0.965368867
v -0.0611059889 0.143484831 -0.990583301
v 0.054404512 0.256917953 -0.98941958
v -0.0678864866 0.256917953 -0.98941958
v 0.0476242602 0.143484831 -0.990583301
v -0.0678864866 0.256917953 -0.98941958
v 0.054404512 0.252121061 -0.843499899
v -0.0678864866 0.252121061 -0.843499899
v 0.054404512 0.256917953 -0.98941958
v -0.0611059889 0.145287037 -0.844595909
v -0.0678864866 0.256917953 -0.98941958
v -0.0678864866 0.252121061 -0.843499899
v -0.0611059889 0.143484831 -0.990583301
v 0.0476242602 0.145287037 -0.844595909
v -0.0611059889 0.143484831 -0.990583301
v -0.0611059889 0.145287037 -0.844595909
v 0.0476242602 0.143484831 -0.990583301
v -0.0678864866 0.252121061 -0.843499899
v 0.054404512 0.252121061 -0.843499899
v 0.054404512 0.252121061 -0.843499899
v 0.0476242602 0.143484831 -0.990583301
v 0.0476242602 0.145287037 -0.844595909
v 0.054404512 0.256917953 -0.98941958
v 0.0445917621 0.347007215 -0.625762343
v 0.0445915125 0.327434957 -0.548587084
v 0.0445915125 0.34621346 -0.548394442
v 0.0445917621 0.328408539 -0.643487811
v 0.0506002605 0.256351531 -0.624846816
v 0.0506002605 0.251133502 -0.116217852
v 0.0370437615 0.218506917 -0.116552569
v 0.0370437615 0.223724961 -0.625181556
v 0.0445915125 0.322309792 -0.0490130633
v 0.0506002605 0.26825276 -0.644014716
v -0.05844374 0.347007215 -0.625762343
v -0.05844374 0.34621346 -0.548394442
v -0.05844374 0.327434957 -0.548587084
v -0.05844374 0.328408539 -0.643487811
v -0.0644524843 0.256351531 -0.624846816
v -0.0644524843 0.251133502 -0.116217852
v -0.0508959889 0.218506917 -0.116552569
v -0.0508959889 0.223724961 -0.625181556
v -0.05844374 0.322309792 -0.0490130633
v -0.0644524843 0.26825276 -0.644014716
v -0.05844374 0.347007215 -0.625762343
v 0.0445915125 0.34621346 -0.548394442
v -0.05844374 0.34621346 -0.548394442
v 0.0445917621 0.347007215 -0.625762343
v -0.05844374 0.328408539 -0.643487811
v 0.0445917621 0.328408539 -0.643487811
v -0.0644524843 0.26825276 -0.644014716
v 0.0506002605 0.26825276 -0.644014716
v -0.0644524843 0.256351531 -0.624846816
v 0.0506002605 0.256351531 -0.624846816
v -0.0508959889 0.223724961 -0.625181556
v 0.0370437615 0.223724961 -0.625181556
v -0.05844374 0.34621346 -0.548394442
v 0.0445915125 0.327434957 -0.548587084
v -0.05844374 0.327434957 -0.548587084
v 0.0445915125 0.34621346 -0.548394442
v -0.0644524843 0.251133502 -0.116217852
v 0.0370437615 0.218506917 -0.116552569
v -0.0508959889 0.218506917 -0.116552569
v 0.0506002605 0.251133502 -0.116217852
v -0.05844374 0.322309792 -0.0490130633
v 0.0445915125 0.322309792 -0.0490130633
v -0.05844374 0.327434957 -0.548587084
v 0.0445915125 0.322309792 -0.0490130633
v -0.05844374 0.322309792 -0.0490130633
v 0.0445915125 0.327434957 -0.548587084
v 0.0244517643 0.307630658 0.382099003
v 0.016791014 0.202445626 0.145639271
v 0.016791014 0.200031102 0.380995125
v 0.0167912636 0.0669144392 0.538323045
v 0.016791014 0.0678175092 0.437513262
v 0.0244520139 0.376555443 0.541499615
v 0.0244517643 0.374410331 0.447578698
v 0.0172240138 0.205316365 -0.134185284
v 0.0172237642 0.149729133 0.0869165957
v 0.0244517643 0.312915921 -0.133081406
v -0.0321334861 0.202445626 0.145639271
v -0.0397942364 0.312915921 -0.133081406
v -0.0397942364 0.307630658 0.382099003
v -0.0325662382 0.205316365 -0.134185284
v -0.0325662382 0.149729133 0.0869165957
v -0.0321334861 0.200031102 0.380995125
v -0.0397939906 0.376555443 0.541499615
v -0.0397942364 0.374410331 0.447578698
v -0.0321332365 0.0669144392 0.538323045
v -0.0321334861 0.0678175092 0.437513262
v -0.0321334861 0.200031102 0.380995125
v 0.016791014 0.202445626 0.145639271
v -0.0321334861 0.202445626 0.145639271
v 0.016791014 0.200031102 0.380995125
v -0.0325662382 0.149729133 0.0869165957
v 0.0172237642 0.149729133 0.0869165957
v 0.016791014 0.0678175092 0.437513262
v -0.0321334861 0.0678175092 0.437513262
v -0.0397942364 0.307630658 0.382099003
v 0.0244517643 0.312915921 -0.133081406
v 0.0244517643 0.307630658 0.382099003
v -0.0397942364 0.312915921 -0.133081406
v -0.0397942364 0.374410331 0.447578698
v 0.0244517643 0.374410331 0.447578698
v -0.0397939906 0.376555443 0.541499615
v 0.0244520139 0.376555443 0.541499615
v -0.0397939906 0.376555443 0.541499615
v 0.0167912636 0.0669144392 0.538323045
v -0.0321332365 0.0669144392 0.538323045
v 0.0244520139 0.376555443 0.541499615
v -0.0321334861 0.0678175092 0.437513262
v 0.0167912636 0.0669144392 0.538323045
v 0.016791014 0.0678175092 0.437513262
v -0.0321332365 0.0669144392 0.538323045
v 0.0600567609 0.0576297231 -0.42885834
v 0.0600567609 0.202395737 -0.53590107
v 0.0600567609 0.058743 -0.537374854
v 0.0600567609 0.201282471 -0.427384585
v 0.0377470106 0.249147654 -0.535421491
v 0.0377470106 0.248034373 -0.426904947
v -0.074840486 0.0576297231 -0.42885834
v -0.074840486 0.202395737 -0.53590107
v -0.074840486 0.201282471 -0.427384585
v -0.074840486 0.058743 -0.537374854
v -0.0525307357 0.248034373 -0.426904947
v -0.0525307357 0.249147654 -0.535421491
v -0.074840486 0.058743 -0.537374854
v 0.0600567609 0.202395737 -0.53590107
v -0.074840486 0.202395737 -0.53590107
v 0.0600567609 0.058743 -0.537374854
v -0.0525307357 0.249147654 -0.535421491
v 0.0377470106 0.249147654 -0.535421491
v -0.00954898633 0.108661629 0.580013037
v 0.0478632599 0.325066209 0.534093022
v 0.0478632599 0.109155446 0.531877995
v -0.00954898633 0.324572384 0.582228065
v 0.0152177643 0.109767474 0.47222051
v 0.0180032644 0.325678229 0.474435538
v -0.00954898633 0.108661629 0.580013037
v -0.0669614896 0.325066209 0.534093022
v -0.00954898633 0.324572384 0.582228065
v -0.0669614896 0.109155446 0.531877995
v -0.037101239 0.325678229 0.474435538
v -0.0343157388 0.109767474 0.47222051
v -0.00954898633 0.108661629 0.580013037
v 0.0478632599 0.109155446 0.531877995
v -0.0669614896 0.109155446 0.531877995
v -0.0343157388 0.109767474 0.47222051
v 0.0152177643 0.109767474 0.47222051
v -0.0669614896 0.325066209 0.534093022
v 0.0478632599 0.325066209 0.534093022
v -0.00954898633 0.324572384 0.582228065
v -0.037101239 0.325678229 0.474435538
v 0.0180032644 0.325678229 0.474435538
v 0.106146015 0.123684041 -0.0898243114
v 0.0408400148 0.157096773 0.120000958
v 0.0713922605 0.237355873 -0.088084124
v 0.0366960131 0.121652931 0.104253501
v 0.0713922605 -0.00140422583 -0.0917392001
v 0.062933512 0.0425785109 -0.0269728601
v 0.0366960131 0.0628584549 0.147759378
v 0.0190465134 -0.0330721736 0.086520344
v 0.0210992638 -0.0989233553 0.143119514
v 0.0565605126 -0.0163914263 0.268534333
v 0.0190465134 -0.0205137283 0.00233696401
v 0.0336835124 -0.150083169 0.142759174
v 0.0401185118 -0.0833325237 0.268895596
v -0.0861747414 -0.00140422583 -0.0917392001
v -0.0514784902 0.121652931 0.104253501
v -0.0777162388 0.0425785109 -0.0269728601
v -0.0861747414 -0.00140422583 -0.0917392001
v -0.120928481 0.123919576 -0.0898207054
v -0.0514784902 0.121652931 0.104253501
v -0.0556224883 0.157096773 0.120000958
v -0.0861747414 0.237355873 -0.088084124
v -0.0338292383 -0.0205137283 0.00233696401
v -0.0777162388 0.0425785109 -0.0269728601
v -0.0338292383 -0.0330721736 0.086520344
v -0.0514784902 0.0628584549 0.147759378
v -0.0358817391 -0.0989233553 0.143119514
v -0.0713429898 -0.0163914263 0.268534333
v -0.0484659895 -0.150083169 0.142759174
v -0.0549012348 -0.0833325237 0.268895596
v -0.0861747414 0.237355873 -0.088084124
v 0.0408400148 0.157096773 0.120000958
v -0.0556224883 0.157096773 0.120000958
v 0.0713922605 0.237355873 -0.088084124
v -0.0777162388 0.0425785109 -0.0269728601
v 0.0713922605 -0.00140422583 -0.0917392001
v -0.0861747414 -0.00140422583 -0.0917392001
v 0.062933512 0.0425785109 -0.0269728601
v 0.0190465134 -0.0205137283 0.00233696401
v -0.0338292383 -0.0205137283 0.00233696401
v -0.0338292383 -0.0330721736 0.086520344
v 0.0190465134 -0.0330721736 0.086520344
v -0.0358817391 -0.0989233553 0.143119514
v 0.0210992638 -0.0989233553 0.143119514
v -0.0484659895 -0.150083169 0.142759174
v 0.0336835124 -0.150083169 0.142759174
v -0.0556224883 0.157096773 0.120000958
v 0.0366960131 0.121652931 0.104253501
v -0.0514784902 0.121652931 0.104253501
v 0.0408400148 0.157096773 0.120000958
v 0.0366960131 0.0628584549 0.147759378
v -0.0514784902 0.0628584549 0.147759378
v -0.0713429898 -0.0163914263 0.268534333
v 0.0565605126 -0.0163914263 0.268534333
v 0.0401185118 -0.0833325237 0.268895596
v -0.0549012348 -0.0833325237 0.268895596
v -0.0549012348 -0.0833325237 0.268895596
v 0.0336835124 -0.150083169 0.142759174
v -0.0484659895 -0.150083169 0.142759174
v 0.0401185118 -0.0833325237 0.268895596
v 0.0713922605 -0.00140422583 -0.0917392001
v 0.062933512 0.0425785109 -0.0269728601
v 0.0366960131 0.121652931 0.104253501
v 0.0402542651 0.0879368335 -0.554697514
v 0.0278217643 -0.200670645 -0.522209764
v 0.052320011 0.0861191154 -0.377515852
v 0.0207547639 -0.199848726 -0.602326035
v -0.0414459854 -0.200670645 -0.522209764
v -0.0538784862 0.0879368335 -0.554697514
v -0.0659442395 0.0861191154 -0.377515852
v -0.0343792364 -0.199848726 -0.602326035
v -0.0538784862 0.0879368335 -0.554697514
v 0.052320011 0.0861191154 -0.377515852
v -0.0659442395 0.0861191154 -0.377515852
v 0.0402542651 0.0879368335 -0.554697514
v -0.0343792364 -0.199848726 -0.602326035
v 0.0207547639 -0.199848726 -0.602326035
v -0.0414459854 -0.200670645 -0.522209764
v 0.0207547639 -0.199848726 -0.602326035
v -0.0343792364 -0.199848726 -0.602326035
v 0.0278217643 -0.200670645 -0.522209764
v -0.0659442395 0.0861191154 -0.377515852
v 0.0278217643 -0.200670645 -0.522209764
v -0.0414459854 -0.200670645 -0.522209764
v 0.052320011 0.0861191154 -0.377515852
v 0.0406657606 0.316848457 -0.111033872
v 0.0276077632 0.396642447 -0.205503315
v 0.0406657606 0.318194926 -0.24228248
v 0.0220757648 0.414021552 -0.205443278
v 0.0220757648 0.413042903 -0.110047013
v -0.0359622389 0.414021552 -0.205443278
v -0.0359622389 0.413042903 -0.110047013
v -0.054611735 0.316848457 -0.111033872
v -0.054611735 0.318194926 -0.24228248
v -0.0415537357 0.396642447 -0.205503076
v -0.0359622389 0.414021552 -0.205443278
v -0.0359622389 0.413042903 -0.110047013
v 0.0296287648 0.341811597 -0.400399745
v 0.0215362646 0.404491067 -0.429121315
v 0.0215362646 0.354733586 -0.42963177
v 0.0296287648 0.416810334 -0.399630368
v 0.0215362646 0.347360849 -0.387200445
v 0.0215362646 0.410991669 -0.386547655
v 0.0215362646 0.3438254 -0.042580843
v 0.0215362646 0.407456219 -0.0419280529
v 0.032114014 0.413840652 -0.0185455382
v 0.032114014 0.336962342 -0.0193342268
v -0.0441104844 0.341811597 -0.400399745
v -0.0360177383 0.404491067 -0.429121315
v -0.0441104844 0.416810334 -0.399630368
v -0.0360177383 0.354733586 -0.42963177
v -0.0360177383 0.347360849 -0.387200445
v -0.0360177383 0.410991669 -0.386547655
v -0.0360177383 0.3438254 -0.042580843
v -0.0360177383 0.407456219 -0.0419280529
v -0.046595484 0.413840652 -0.0185455382
v -0.046595484 0.336962342 -0.0193342268
v -0.0441104844 0.341811597 -0.400399745
v 0.0215362646 0.354733586 -0.42963177
v -0.0360177383 0.354733586 -0.42963177
v 0.0296287648 0.341811597 -0.400399745
v -0.0360177383 0.347360849 -0.387200445
v 0.0215362646 0.347360849 -0.387200445
v -0.0360177383 0.3438254 -0.042580843
v 0.0215362646 0.3438254 -0.042580843
v -0.046595484 0.336962342 -0.0193342268
v 0.032114014 0.336962342 -0.0193342268
v -0.0360177383 0.354733586 -0.42963177
v 0.0215362646 0.404491067 -0.429121315
v -0.0360177383 0.404491067 -0.429121315
v 0.0215362646 0.354733586 -0.42963177
v -0.0360177383 0.404491067 -0.429121315
v 0.0296287648 0.416810334 -0.399630368
v -0.0441104844 0.416810334 -0.399630368
v 0.0215362646 0.404491067 -0.429121315
v 0.0215362646 0.410991669 -0.386547655
v -0.0360177383 0.410991669 -0.386547655
v 0.0215362646 0.407456219 -0.0419280529
v -0.0360177383 0.407456219 -0.0419280529
v 0.032114014 0.413840652 -0.0185455382
v -0.046595484 0.413840652 -0.0185455382
v -0.046595484 0.413840652 -0.0185455382
v 0.032114014 0.336962342 -0.0193342268
v -0.046595484 0.336962342 -0.0193342268
v 0.032114014 0.413840652 -0.0185455382
v -0.0558889881 0.317646384 -0.319032162
v -0.042787239 0.369284868 -0.3290084
v -0.0558889881 0.316800475 -0.236576214
v -0.0351144895 0.433298647 -0.289755166
v -0.0351144895 0.412736416 -0.338432252
v -0.0403277352 0.369674861 -0.367018402
v -0.0558889881 0.31837368 -0.389926612
v 0.0303597637 0.369284868 -0.3290084
v 0.0403142646 0.317646384 -0.319032162
v 0.0403142646 0.316800475 -0.236576214
v 0.0226867646 0.433298647 -0.289755166
v 0.0226867646 0.412736416 -0.338432252
v 0.0279000141 0.369674861 -0.367018402
v 0.0403142646 0.31837368 -0.389926612
v -0.0351144895 0.412736416 -0.338432252
v -0.0351144895 0.433298647 -0.289755166
v 0.0996002629 -0.0441328734 -0.369388312
v 0.16584526 0.104456194 -0.438134164
v 0.0996002629 -0.0614102632 -0.439835787
v 0.16584526 0.103735365 -0.367871344
v 0.0996002629 0.256215692 -0.43657726
v 0.0996002629 0.242304116 -0.366449744
v -0.0996002406 -0.0441328734 -0.369388312
v -0.16584523 0.104456194 -0.438134164
v -0.16584523 0.103735365 -0.367871344
v -0.0996002406 -0.0614102632 -0.439835787
v -0.0996002406 0.242304116 -0.366449744
v -0.0996002406 0.256215692 -0.43657726
v -0.0996002406 -0.0441328734 -0.369388312
v 0.0996002629 -0.0614102632 -0.439835787
v -0.0996002406 -0.0614102632 -0.439835787
v 0.0996002629 -0.0441328734 -0.369388312
v -0.0996002406 0.256215692 -0.43657726
v 0.0996002629 0.242304116 -0.366449744
v -0.0996002406 0.242304116 -0.366449744
v 0.0996002629 0.256215692 -0.43657726
v -0.0996002406 0.256215692 -0.43657726
v 0.16584526 0.104456194 -0.438134164
v 0.0996002629 0.256215692 -0.43657726
v -0.16584523 0.104456194 -0.438134164
v 0.0996002629 -0.0614102632 -0.439835787
v -0.0996002406 -0.0614102632 -0.439835787
v 0.16584526 0.103735365 -0.367871344
v -0.0996002406 -0.0441328734 -0.369388312
v -0.16584523 0.103735365 -0.367871344
v 0.0996002629 -0.0441328734 -0.369388312
v 0.0996002629 0.242304116 -0.366449744
v -0.0996002406 0.242304116 -0.366449744
v 0.0826115087 -0.0231365263 -0.122694969
v 0.137557268 0.104854785 -0.389344275
v 0.0826115087 -0.0203877836 -0.390629143
v 0.137557268 0.102106035 -0.121410102
v 0.0826115087 0.230097577 -0.388059407
v 0.0826115087 0.227348834 -0.120125234
v -0.0826114863 -0.0231365263 -0.122694969
v -0.137557223 0.104854785 -0.389344275
v -0.137557223 0.102106035 -0.121410102
v -0.0826114863 -0.0203877836 -0.390629143
v -0.0826114863 0.227348834 -0.120125234
v -0.0826114863 0.230097577 -0.388059407
v -0.0826114863 -0.0231365263 -0.122694969
v 0.0826115087 -0.0203877836 -0.390629143
v -0.0826114863 -0.0203877836 -0.390629143
v 0.0826115087 -0.0231365263 -0.122694969
v -0.0826114863 0.230097577 -0.388059407
v 0.0826115087 0.227348834 -0.120125234
v -0.0826114863 0.227348834 -0.120125234
v 0.0826115087 0.230097577 -0.388059407
v 0.0826115087 -0.0461243242 -0.0843295231
v 0.163180783 0.10147889 -0.136556551
v 0.0826115087 -0.0455730408 -0.138065159
v 0.163181022 0.100927621 -0.0828209072
v 0.0826115087 0.247905016 -0.135054365
v 0.0826115087 0.247353733 -0.0813187212
v -0.0826114863 -0.0461243242 -0.0843295231
v -0.163180992 0.10147889 -0.136556551
v -0.163180992 0.100927621 -0.0828209072
v -0.0826114863 -0.0455730408 -0.138065159
v -0.0826114863 0.247353733 -0.0813187212
v -0.0826114863 0.247905016 -0.135054365
v -0.0826114863 -0.0461243242 -0.0843295231
v 0.0826115087 -0.0455730408 -0.138065159
v -0.0826114863 -0.0455730408 -0.138065159
v 0.0826115087 -0.0461243242 -0.0843295231
v -0.0826114863 0.247905016 -0.135054365
v 0.0826115087 0.247353733 -0.0813187212
v -0.0826114863 0.247353733 -0.0813187212
v 0.0826115087 0.247905016 -0.135054365
v -0.163180992 0.100927621 -0.0828209072
v 0.0826115087 -0.0461243242 -0.0843295231
v -0.0826114863 -0.0461243242 -0.0843295231
v 0.163181022 0.100927621 -0.0828209072
v 0.0826115087 0.247353733 -0.0813187212
v -0.0826114863 0.247353733 -0.0813187212
v -0.163180992 0.10147889 -0.136556551
v 0.0826115087 0.247905016 -0.135054365
v -0.0826114863 0.247905016 -0.135054365
v 0.163180783 0.10147889 -0.136556551
v 0.0826115087 -0.0455730408 -0.138065159
v -0.0826114863 -0.0455730408 -0.138065159
vt 0.579159021 0.416610003
vt 0.794001997 0.480830997
vt 0.794001997 0.416934997
vt 0.579159021 0.476274014
vt 0.579834998 0.365547001
vt 0.877188981 0.36037299
vt 0.878359973 0.416350007
vt 0.579159021 0.416610003
vt 0.794001997 0.480830997
vt 0.579159021 0.476274014
vt 0.794001997 0.416934997
vt 0.579834998 0.365547001
vt 0.877188981 0.36037299
vt 0.878359973 0.416350007
vt 0.701492012 0.0536650009
vt 0.995715976 0.00623700023
vt 0.701912999 0.00456999987
vt 0.995280981 0.0570329987
vt 0.991268992 0.126449004
vt 0.771813989 0.0576580018
vt 0.771239996 0.124554001
vt 0.991841972 0.0595530011
vt 0.945415974 0.414294988
vt 0.897606015 0.370213002
vt 0.890763998 0.414294988
vt 0.938574016 0.370213002
vt 0.950028002 0.421162009
vt 0.887004972 0.48250699
vt 0.953436971 0.482802004
vt 0.890963018 0.420899987
vt 0.622160971 0.00486500002
vt 0.694281995 0.092459999
vt 0.621415019 0.0918349996
vt 0.695026994 0.00548999989
vt 0.798471987 0.419124991
vt 0.884707987 0.485489011
vt 0.797927022 0.482787013
vt 0.885286987 0.41791001
vt 0.0311099999 0.38350901
vt 0.0709540024 0.358556986
vt 0.0337270014 0.355042994
vt 0.0708289966 0.387023002
vt 0.00591900013 0.350697011
vt 0.00297600008 0.38271299
vt 0.797927022 0.482787013
vt 0.885286987 0.41791001
vt 0.798471987 0.419126004
vt 0.884707987 0.485489011
vt 0.921114028 0.36610499
vt 0.880944014 0.355989993
vt 0.880859971 0.365759999
vt 0.930319011 0.356413007
vt 0.920560002 0.318809986
vt 0.655927002 0.31653899
vt 0.656085014 0.298155993
vt 0.920718014 0.300428987
vt 0.621022999 0.353758991
vt 0.930558026 0.324961007
vt 0.920952976 0.366162986
vt 0.880864978 0.365749002
vt 0.88094902 0.355978012
vt 0.930320024 0.35641399
vt 0.920560002 0.318809986
vt 0.655853987 0.316321999
vt 0.656085014 0.298155993
vt 0.920718014 0.300428987
vt 0.621022999 0.353758991
vt 0.930565 0.324947
vt 0.533264995 0.0669879988
vt 0.488705993 0.0065779998
vt 0.488191009 0.0666019991
vt 0.533779979 0.00696399994
vt 0.548232973 0.0671169981
vt 0.548747003 0.00709199999
vt 0.583248019 0.0709180012
vt 0.583823025 0.00389200007
vt 0.596391976 0.0710299984
vt 0.596966982 0.004005
vt 0.615468025 0.0632959977
vt 0.615907013 0.0120649999
vt 0.488191009 0.0666019991
vt 0.477764994 0.00648400001
vt 0.477250993 0.0665080026
vt 0.488705993 0.0065779998
vt 0.613958001 0.280243993
vt 0.649492979 0.269156009
vt 0.618789017 0.268893003
vt 0.654129028 0.280589014
vt 0.615763009 0.314440012
vt 0.651737988 0.314749002
vt 0.477250993 0.0665080026
vt 0.186717004 0.00398899987
vt 0.186203003 0.0640140027
vt 0.477764994 0.00648400001
vt 0.733566999 0.243337005
vt 0.864386022 0.192546993
vt 0.73437798 0.191937
vt 0.659471989 0.122614004
vt 0.709869981 0.123308003
vt 0.65713799 0.277413011
vt 0.704100013 0.276565999
vt 0.995361984 0.193426996
vt 0.894541979 0.167002007
vt 0.994552016 0.247218996
vt 0.864386022 0.192546993
vt 0.994552016 0.247218996
vt 0.733566999 0.243337005
vt 0.995361984 0.193426996
vt 0.894541979 0.167002007
vt 0.73437798 0.191937
vt 0.65713799 0.277413011
vt 0.704100013 0.276565999
vt 0.659471989 0.122614004
vt 0.709869981 0.123308003
vt 0.806250989 0.246987998
vt 0.914637029 0.267179012
vt 0.914942026 0.248465002
vt 0.805944979 0.267630994
vt 0.945950985 0.248796999
vt 0.945640028 0.267883986
vt 0.738678992 0.266732991
vt 0.738983989 0.246089995
vt 0.775608003 0.295630008
vt 0.953047991 0.275045991
vt 0.775797009 0.273526996
vt 0.952858984 0.297149003
vt 0.743430972 0.295354009
vt 0.743620992 0.273250997
vt 0.711109996 0.295076996
vt 0.711300015 0.272974014
vt 0.211358994 0.49485001
vt 0.0655269995 0.461490989
vt 0.0650269985 0.48744601
vt 0.212015003 0.460767001
vt 0.00176999997 0.486299992
vt 0.0655269995 0.461490989
vt 0.00227100006 0.460345
vt 0.0650269985 0.48744601
vt 0.506021976 0.353652
vt 0.581429005 0.455273986
vt 0.582295001 0.354306012
vt 0.505156994 0.454620987
vt 0.581148028 0.48813501
vt 0.504875004 0.487480998
vt 0.506021976 0.353652
vt 0.581429005 0.455273986
vt 0.505156994 0.454620987
vt 0.582295001 0.354306012
vt 0.504875004 0.487480998
vt 0.581148028 0.48813501
vt 0.570325017 0.117367998
vt 0.521290004 0.168699995
vt 0.569881022 0.169116005
vt 0.521732986 0.116952002
vt 0.561701 0.185889006
vt 0.529182017 0.185609996
vt 0.631286979 0.156053007
vt 0.658082008 0.249202996
vt 0.657483995 0.155888006
vt 0.629867017 0.249375999
vt 0.687659979 0.155696005
vt 0.688257992 0.249002993
vt 0.631286979 0.156053007
vt 0.658082008 0.249202996
vt 0.629867017 0.249375999
vt 0.657483995 0.155888006
vt 0.688257992 0.249004006
vt 0.687659979 0.155696005
vt 0.641331017 0.134324998
vt 0.663075984 0.117544003
vt 0.619876027 0.117174
vt 0.632355988 0.0962510034
vt 0.650978029 0.096412003
vt 0.619876027 0.117174
vt 0.663075984 0.117544003
vt 0.641331017 0.134324998
vt 0.632337987 0.0962530002
vt 0.650973976 0.096412003
vt 0.259339988 0.398209989
vt 0.120263003 0.427902997
vt 0.259043008 0.470829993
vt 0.128766999 0.404630005
vt 0.259667009 0.318296999
vt 0.208565995 0.347959012
vt 0.0982299969 0.36926499
vt 0.132424995 0.304118991
vt 0.0925360024 0.265547991
vt 0.0153259998 0.326790988
vt 0.186683998 0.307668
vt 0.086473003 0.232439995
vt 0.0105109997 0.283019006
vt 0.259667009 0.318296999
vt 0.128766999 0.404630005
vt 0.208565995 0.347959012
vt 0.259667009 0.318296999
vt 0.259339988 0.398360997
vt 0.128766999 0.404630005
vt 0.120263003 0.427902997
vt 0.259043992 0.470829993
vt 0.186683998 0.307666987
vt 0.208565995 0.347959012
vt 0.132424995 0.304118007
vt 0.0982310027 0.36926499
vt 0.0925360024 0.265547007
vt 0.0153259998 0.326790988
vt 0.0864740014 0.232440993
vt 0.010516 0.28301999
vt 0.135830998 0.300601989
vt 0.119825996 0.237141997
vt 0.103355996 0.252292991
vt 0.165262997 0.27352801
vt 0.106625997 0.056127999
vt 0.181448996 0.00486700004
vt 0.0860669985 0.00404899986
vt 0.160000995 0.056584999
vt 0.148956001 0.0986059979
vt 0.116948999 0.0983320028
vt 0.116507001 0.149855003
vt 0.148515001 0.150129005
vt 0.114813998 0.202407002
vt 0.149306998 0.202702999
vt 0.106931001 0.233311996
vt 0.156659007 0.233738005
vt 0.0164110009 0.227102995
vt 0.0776069984 0.200808004
vt 0.01664 0.200285003
vt 0.077376999 0.227624997
vt 0.0780399963 0.150235996
vt 0.0170740001 0.149713993
vt 0.00419500005 0.0497159995
vt 0.0926309973 0.0504730009
vt 0.0816600025 0.00408999994
vt 0.0159600005 0.00352700008
vt 0.0831549987 0.182776004
vt 0.111180998 0.131852999
vt 0.085878998 0.131432995
vt 0.112420999 0.183261007
vt 0.259667009 0.318296999
vt 0.208565995 0.347959012
vt 0.128766999 0.404630005
vt 0.598650992 0.351123989
vt 0.581027985 0.192230999
vt 0.500983 0.35028699
vt 0.625258982 0.192562997
vt 0.581027985 0.192230999
vt 0.598650992 0.351123989
vt 0.500983 0.35028699
vt 0.625258982 0.192562997
vt 0.260502011 0.119698003
vt 0.164691001 0.0672399998
vt 0.167800993 0.130847007
vt 0.260309011 0.0690699965
vt 0.417448014 0.101539999
vt 0.417710006 0.071886003
vt 0.0048349998 0.265042007
vt 0.0302779991 0.232843995
vt 0.00797200017 0.232653007
vt 0.0328590013 0.265282005
vt 0.424879998 0.0700799972
vt 0.568664014 0.106063999
vt 0.566320002 0.0722760037
vt 0.428882003 0.127768993
vt 0.245910004 0.129554003
vt 0.293430001 0.169554994
vt 0.311836988 0.130119994
vt 0.293384999 0.181670994
vt 0.245467007 0.181260005
vt 0.293136001 0.210822001
vt 0.245217994 0.210410997
vt 0.245910004 0.129554003
vt 0.311836988 0.130119994
vt 0.293430001 0.169554994
vt 0.293384999 0.181670994
vt 0.245467007 0.181260005
vt 0.996303022 0.474985003
vt 0.961355984 0.492008001
vt 0.989220023 0.492033988
vt 0.95430398 0.474947006
vt 0.993128002 0.466340005
vt 0.957494974 0.466307014
vt 0.993304014 0.273351997
vt 0.957670987 0.273319006
vt 0.953975022 0.258978993
vt 0.99702698 0.259018004
vt 0.996698022 0.474945992
vt 0.961781025 0.492033988
vt 0.954698026 0.474985003
vt 0.989646018 0.492008001
vt 0.993507028 0.466307014
vt 0.957874 0.466340005
vt 0.993330002 0.273319006
vt 0.957696974 0.273351997
vt 0.953975022 0.259018004
vt 0.99702698 0.258978993
vt 0.858448982 0.165220007
vt 0.868107975 0.185886994
vt 0.868393004 0.167906001
vt 0.85808301 0.188256994
vt 0.853935003 0.167677
vt 0.85364902 0.185657993
vt 0.746264994 0.165967003
vt 0.745979011 0.183947995
vt 0.738744974 0.162542999
vt 0.738354027 0.187132001
vt 0.425213009 0.274410993
vt 0.393067002 0.303074002
vt 0.424964994 0.303360999
vt 0.393314987 0.274123996
vt 0.980919003 0.162735
vt 0.965722024 0.130661994
vt 0.965341985 0.166503996
vt 0.981216013 0.134760007
vt 0.958720982 0.134520993
vt 0.958423972 0.162496001
vt 0.791203022 0.132745996
vt 0.790906012 0.160721004
vt 0.779474974 0.127479002
vt 0.77907002 0.165738001
vt 0.311082989 0.187061995
vt 0.353374004 0.146455005
vt 0.311434001 0.146096006
vt 0.353022993 0.187422007
vt 0.386038989 0.116278
vt 0.390675008 0.140058994
vt 0.348051995 0.115952
vt 0.374969006 0.172408
vt 0.395372003 0.162701994
vt 0.408185989 0.140209004
vt 0.41870001 0.116558
vt 0.390675008 0.140058994
vt 0.386038989 0.116278
vt 0.348051995 0.115952
vt 0.374969006 0.172408
vt 0.395372003 0.162701994
vt 0.408185989 0.140209004
vt 0.41870001 0.116558
vt 0.403705001 0.187726006
vt 0.385913998 0.196854994
vt 0.456772 0.285035014
vt 0.505604982 0.39011699
vt 0.506609976 0.272722989
vt 0.455875009 0.389690995
vt 0.504683971 0.497527003
vt 0.455035001 0.487765014
vt 0.456772 0.285035014
vt 0.505604982 0.39011699
vt 0.455875009 0.389690995
vt 0.506609976 0.272722989
vt 0.455035001 0.487765014
vt 0.504683971 0.497527003
vt 0.726701975 0.0580889992
vt 0.766839027 0.152670994
vt 0.767821014 0.0584409982
vt 0.725719988 0.152318001
vt 0.616169989 0.187619001
vt 0.57456398 0.0726990029
vt 0.573583007 0.187267005
vt 0.617151022 0.0730519965
vt 0.374374986 0.303011
vt 0.283048004 0.249752
vt 0.305501997 0.302421004
vt 0.397729009 0.250734001
vt 0.306443989 0.192597002
vt 0.375315994 0.193187997
vt 0.243371993 0.173927993
vt 0.173423007 0.134170994
vt 0.155546993 0.173175007
vt 0.226168007 0.134623006
vt 0.225518003 0.210468993
vt 0.172773004 0.210016996
vt 0.294954985 0.308068007
vt 0.458104014 0.393115997
vt 0.458820999 0.309473008
vt 0.294239014 0.391710997
vt 0.457387 0.476758987
vt 0.293522 0.475354999
vt 0.458820999 0.309473008
vt 0.294239014 0.391710997
vt 0.458104014 0.393115997
vt 0.294955999 0.308068007
vt 0.457387 0.476758987
vt 0.293522 0.475354999
vt 0.411664009 0.190408006
vt 0.538356006 0.270034999
vt 0.539029002 0.191498995
vt 0.410991013 0.268943995
vt 0.516628981 0.188495994
vt 0.423305988 0.129841
vt 0.422809988 0.187692001
vt 0.517123997 0.130645007
vt 0.262154013 0.286408991
vt 0.293844014 0.387263
vt 0.294714987 0.286688
vt 0.26128301 0.386983991
vt 0.292975992 0.48853299
vt 0.260414988 0.488254011
vt 0.294714987 0.286688
vt 0.26128301 0.386983991
vt 0.293844014 0.387263
vt 0.262154013 0.286408991
vt 0.292975992 0.48853299
vt 0.260416001 0.488254011
vt 0.101769 0.394104004
vt 0.00409599999 0.421016008
vt 0.101497002 0.421851009
vt 0.0043680002 0.393269986
vt 0.00352000003 0.455107003
vt 0.101193003 0.424261987
vt 0.003792 0.423427999
vt 0.100920998 0.455942005
vt 0.160713002 0.259050012
vt 0.237169996 0.214190006
vt 0.186038002 0.213752002
vt 0.261714011 0.259914994
vt 0.236392006 0.305018991
vt 0.185258999 0.304580986
vt 0.160713002 0.259050012
vt 0.236390993 0.305072993
vt 0.185258999 0.304634988
vt 0.261714011 0.259914994
vt 0.237169996 0.214190006
vt 0.186038002 0.213752002
vn 0.99886377 -0.0476534919 -0.000559561885
vn 1 0 0
vn 0.994563607 -0.104105069 0.00231640616
vn 1 0 0
vn 0.988907403 -0.148524974 0.00157500755
vn 0.989843599 -0.142028929 0.00611825402
vn 0.988094091 -0.15320761 0.0140532841
vn -0.998863771 -0.0476534846 -0.000559561799
vn -1 0 0
vn -1 0 0
vn -0.994563638 -0.104104777 0.0023161979
vn -0.988907403 -0.148524971 0.00157500267
vn -0.989843691 -0.142028306 0.00611779607
vn -0.988094576 -0.153204679 0.0140511855
vn 0 -0.999969594 0.00779812498
vn 0 -0.999969594 0.00779812498
vn 0 -0.999969594 0.00779812498
vn 0 -0.999969594 0.00779812498
vn 0 0.99951782 0.0310504122
vn 0 0.99951782 0.0310504122
vn 0 0.99951782 0.0310504122
vn 0 0.99951782 0.0310504122
vn 0 -0.0108422013 -0.999941222
vn 0 -0.0108422013 -0.999941222
vn 0 -0.0108422013 -0.999941222
vn 0 -0.0108422013 -0.999941222
vn 0 0.0102585543 -0.99994738
vn 0 0.0102585543 -0.99994738
vn 0 0.0102585543 -0.99994738
vn 0 0.0102585543 -0.99994738
vn 0 0.999460104 0.0328557639
vn 0 0.999460104 0.0328557639
vn 0 0.999460104 0.0328557639
vn 0 0.999460104 0.0328557639
vn -0.998110375 -0.0614433248 -0.000630349534
vn -0.998110375 -0.0614433248 -0.000630349534
vn -0.997991185 -0.0633187382 -0.00208150931
vn -0.99821751 -0.0596762984 0.000736700507
vn 0 -0.787151474 0.616759724
vn 0 -0.99992381 0.0123440025
vn 0 -0.804378918 0.594116619
vn 0 -0.99992381 0.0123440025
vn 0 -0.0102584597 0.999947381
vn 0 -0.0102584597 0.999947381
vn 0.998110512 -0.0614411052 -0.000630326763
vn 0.998110512 -0.0614411052 -0.000630326763
vn 0.99799133 -0.0633458274 0.000782000634
vn 0.998217639 -0.0596464686 -0.00196078892
vn 1 -1.38233634e-06 2.88355372e-06
vn 0.996788581 0.0800740275 0.000821811963
vn 1 -3.30916855e-08 3.22573286e-06
vn 0.997513093 0.0700364508 0.0079072537
vn 0.991745785 -0.128219046 -0.000417831762
vn 0.999955807 -0.00940074177 -9.64402203e-05
vn 0.92346455 -0.383663566 -0.00393601344
vn 0.92346452 -0.38366364 -0.00393601973
vn 0.996522479 0.0833199749 0.000854785478
vn 0.993232635 0.0986697661 0.0612634424
vn -1 0 0
vn -1 0 0
vn -0.996788562 0.0800742604 0.000821484399
vn -0.99751291 0.0700392805 0.00790526354
vn -0.991745826 -0.128218729 -0.000418020622
vn -0.999955807 -0.00940076267 -9.64404347e-05
vn -0.923464588 -0.383663477 -0.00393601252
vn -0.923464557 -0.38366355 -0.0039360188
vn -0.996522483 0.0833199236 0.000854784952
vn -0.993232087 0.0986737492 0.0612659155
vn 0 0.995170513 -0.0981613472
vn 0 0.999947376 0.010258948
vn 0 0.999947376 0.010258948
vn 0 0.951682925 -0.307082416
vn 0 0.346645983 -0.937996035
vn 0 0.128048406 -0.991767919
vn 0 -0.14280143 -0.989751359
vn 0 -0.410614722 -0.911808944
vn 0 -0.558578508 -0.829451656
vn 0 -0.258352294 -0.966050771
vn 0 0.0102591868 -0.999947373
vn 0 0.0102591868 -0.999947373
vn 0 -0.0102581168 0.999947384
vn 0 -0.0102581168 0.999947384
vn 0 -0.0102581168 0.999947384
vn 0 -0.0102581168 0.999947384
vn 0 -0.465945785 0.884813272
vn 0 -0.0102584971 0.99994738
vn 0 -0.0102584971 0.99994738
vn 0 -0.60625806 0.795267983
vn 0 -0.686530313 0.727101182
vn 0 -0.686530313 0.727101182
vn 0 0.99994738 0.0102585304
vn 0 0.99994738 0.0102585304
vn 0 0.99994738 0.0102585304
vn 0 0.99994738 0.0102585304
vn 0.998450237 -0.0555782171 -0.00286104769
vn 0.99842505 -0.0561003391 0.000413290495
vn 0.99837059 -0.0539401293 -0.0186179264
vn 0.999515343 -0.030509397 -0.00618507943
vn 1 -1.0624543e-06 -2.48541276e-06
vn 0.999710441 -0.0220873369 0.00954899355
vn 1 2.66545606e-06 -2.71837372e-06
vn 0.998295323 -0.0583647049 9.36090657e-05
vn 0.999978142 0.00641189533 0.00161314369
vn 0.997751758 -0.0670146056 -0.000687506383
vn -0.998143053 -0.0609133913 -7.2334175e-05
vn -0.997574252 -0.0696102155 -0.000171116795
vn -0.997749949 -0.0668937743 0.0045013407
vn -0.999084732 -0.0427606563 0.00110641229
vn -0.999978137 0.00641290524 0.00161226875
vn -0.999175127 -0.0403165011 -0.00486271312
vn -0.999414981 -0.0335196477 -0.00679177777
vn -1 -2.62567313e-06 2.67780098e-06
vn -0.999680272 -0.0193037549 -0.0163315062
vn -1 1.0624543e-06 2.48541276e-06
vn 0 -0.908057558 -0.418845402
vn 0 -0.985473828 0.169827364
vn 0 -0.985684422 0.168600773
vn 0 -0.908057558 -0.418845402
vn 0 -0.744137349 0.668026651
vn 0 -0.744137349 0.668026651
vn 0 -0.39306817 -0.919509333
vn 0 -0.39306817 -0.919509333
vn 0 0.998687095 -0.051225839
vn 0 0.99994738 0.0102585131
vn 0 0.980858151 -0.194723618
vn 0 0.99994738 0.0102585131
vn 0 0.856186274 -0.516667267
vn 0 0.962825865 -0.270122849
vn 0 0.999739279 -0.0228335963
vn 0 0.999739279 -0.0228335963
vn 0 -0.0102583403 0.999947382
vn 0 -0.0102583403 0.999947382
vn 0 -0.0102583403 0.999947382
vn 0 -0.0102583403 0.999947382
vn 0 -0.999959878 -0.00895779869
vn 0 -0.999959878 -0.00895779869
vn 0 -0.999959878 -0.00895779869
vn 0 -0.999959878 -0.00895779869
vn 1 0 0
vn 0.997777602 0.0666287406 0.000683541264
vn 1 0 0
vn 0.982759185 0.184880467 0.0018966926
vn 0.902517314 0.43063091 0.00441785156
vn 0.902517288 0.430630963 0.00441788046
vn -1 0 0
vn -0.99320616 0.116361925 0.00119375944
vn -0.993206162 0.116361915 0.00119375167
vn -1 0 0
vn -0.902517314 0.43063091 0.00441785156
vn -0.90251734 0.430630856 0.00441787937
vn 0 0.0102588153 -0.999947377
vn 0 0.0102585159 -0.99994738
vn 0 0.0102584711 -0.999947381
vn 0 0.0102588153 -0.999947377
vn 0 0.0102574136 -0.999947391
vn 0 0.0102574136 -0.999947391
vn 0.642497612 -0.00786092935 0.766247365
vn 0.971789317 -0.00588818036 0.235777124
vn 0.974608158 -0.00229704556 0.223905477
vn 0.642497613 -0.00786092949 0.766247365
vn 0.88580522 -0.000953207617 -0.464056251
vn 0.89418965 -0.00694380653 -0.447634508
vn -0.642495923 -0.00786094388 0.766248781
vn -0.878111194 -0.00490822667 0.478431437
vn -0.642495923 -0.00786094401 0.766248781
vn -0.999527194 -0.00428176839 -0.0304475609
vn -0.885803662 -0.000953167074 -0.464059224
vn -0.877198277 -0.00639168081 -0.480085752
vn 0 -0.999947381 -0.0102584526
vn 0 -0.99994738 -0.0102584769
vn 0 -0.99994738 -0.0102584736
vn 0 -0.99994738 -0.0102584905
vn 0 -0.99994738 -0.0102584905
vn 0 0.99994738 0.0102584736
vn 0 0.999947381 0.0102584509
vn 0 0.999947379 0.0102586073
vn 0 0.999947382 0.0102583657
vn 0 0.999947382 0.0102583657
vn 0.953373085 -0.0276948887 0.300520805
vn 0.94909318 0.163230925 0.269402672
vn 0.928356692 0.280093 0.244339446
vn 0.944402026 -0.170256933 0.281278136
vn 0.910528989 -0.257922345 0.323130042
vn 0.96789647 -0.221740109 0.118354333
vn 0.99360705 -0.110165976 -0.0246675308
vn 0.9548715 -0.295420228 0.0307783663
vn 0.971475743 -0.0291733135 -0.235337626
vn 0.980236013 -0.0642026703 -0.187123958
vn 0.797824351 -0.596291369 -0.0889545248
vn 0.988827618 -0.0323010756 -0.145521761
vn 0.968403247 -0.237446664 0.0762511227
vn 0.648508165 0.587690084 -0.48379492
vn 0.648508165 0.587690084 -0.48379492
vn 0.648508165 0.587690084 -0.48379492
vn -0.910730371 -0.257499116 0.322899978
vn -0.953373096 -0.0276948769 0.300520772
vn -0.944295282 -0.24065085 0.224485163
vn -0.949016819 0.163464998 0.269529725
vn -0.928153006 0.280617179 0.24451175
vn -0.946579665 -0.257074276 0.194678593
vn -0.828825626 -0.390291624 0.40089965
vn -0.991168819 -0.101666942 -0.0851363899
vn -0.979395916 -0.0905115002 -0.180530628
vn -0.97147599 -0.029173355 -0.235336602
vn -0.980235896 -0.0642017903 -0.187124874
vn -0.988827367 -0.0322989932 -0.145523929
vn -0.968404337 -0.237443395 0.0762474494
vn 0 0.933005105 0.359863133
vn 0 0.933005105 0.359863133
vn 0 0.933005105 0.359863133
vn 0 0.933005105 0.359863133
vn 0 -0.999342649 0.0362528547
vn 0 -0.827273054 0.561800049
vn 0 -0.827273054 0.561800049
vn 0 -0.979986747 -0.199062742
vn 0 -0.732684052 -0.680568939
vn 0 -0.832089042 -0.55464207
vn 0 -0.927075125 -0.374875596
vn 0 -0.803729157 -0.594995329
vn 0 -0.521137564 -0.853472694
vn 0 -0.28036463 -0.959893575
vn 0 0.00704324183 -0.999975196
vn 0 0.00704324183 -0.999975196
vn 0 -0.406023036 0.913862842
vn 0 0.0789236165 0.996880666
vn 0 0.422150769 0.906525636
vn 0 -0.406023036 0.913862842
vn 0 0.775493591 0.631355438
vn 0 0.765593633 0.643324482
vn 0 0.632617553 0.774464351
vn 0 0.638038322 0.770004611
vn 0 0.00539666222 0.999985438
vn 0 0.00539666222 0.999985438
vn 0 -0.883867472 0.467737418
vn 0 -0.883867472 0.467737418
vn 0 -0.883867472 0.467737418
vn 0 -0.883867472 0.467737418
vn -0.648536089 0.587667093 -0.483785416
vn -0.648536089 0.587667093 -0.483785416
vn -0.648536089 0.587667093 -0.483785416
vn 0.995894746 -0.0512961052 -0.0745812624
vn 0.995894746 -0.0512961052 -0.0745812624
vn 0.996375085 -0.0506176804 -0.0683706044
vn 0.994695768 -0.052786819 -0.0882829637
vn -0.995894822 -0.0512960026 -0.0745803225
vn -0.995894822 -0.0512960026 -0.0745803225
vn -0.996375082 -0.0506176849 -0.0683706462
vn -0.994696061 -0.0527864827 -0.0882798641
vn 0 0.844543964 -0.535486221
vn 0 0.99994738 0.010258525
vn 0 0.99994738 0.010258525
vn 0 0.485925654 -0.874000148
vn 0 0.163279019 -0.986579932
vn 0 0.163279019 -0.986579932
vn 0 -0.99994738 -0.0102585278
vn 0 -0.99994738 -0.0102585278
vn 0 -0.99994738 -0.0102585278
vn 0 -0.99994738 -0.0102585278
vn 0 -0.450445876 0.892803737
vn 0 -0.450445876 0.892803737
vn 0 -0.450445876 0.892803737
vn 0 -0.450445876 0.892803737
vn 0.982456871 0.186127935 0.0116141362
vn 0.982861905 0.183359555 0.0190197181
vn 0.986553364 0.163430869 0.00167662415
vn 0.809921184 0.586138647 0.0216601546
vn 0.581276226 0.813663489 0.0083471893
vn 0 0.999947383 0.0102582335
vn 0 0.999947383 0.0102582335
vn -0.982358311 0.186633488 0.0118359921
vn -0.986553361 0.163430887 0.00167662433
vn -0.982771443 0.183803311 0.0194070726
vn -0.977787074 0.208499916 0.0214527968
vn -0.98172224 0.190309308 0.00195234005
vn 0.996269822 0.000885217334 -0.0862882238
vn 0.96405695 0.00272553682 -0.265681704
vn 0.964056978 0.00272558585 -0.265681605
vn 0.99191171 -0.00130210673 0.126923067
vn 0.998886366 -0.000483990813 0.0471783129
vn 0.999933641 -0.000118179444 0.0115195607
vn 0.999503236 0.000323308481 -0.0315147162
vn 0.999587046 0.000294784129 -0.0287341314
vn 0.910665492 0.0042382132 -0.413122741
vn 0.910665514 0.00423819393 -0.413122694
vn -0.996269597 0.000885244028 -0.0862908259
vn -0.964054883 0.00272561379 -0.265689207
vn -0.991911224 -0.00130214565 0.126926861
vn -0.96405491 0.00272566282 -0.265689107
vn -0.998886299 -0.000484005485 0.0471797431
vn -0.999933637 -0.000118183034 0.0115199107
vn -0.999503236 0.000323308368 -0.0315147051
vn -0.999587046 0.000294784025 -0.0287341213
vn -0.910665547 0.00423821196 -0.41312262
vn -0.910665568 0.00423819269 -0.413122573
vn 0 -0.966016356 -0.258480945
vn 0 -0.914622828 -0.404308153
vn 0 -0.914622828 -0.404308153
vn 0 -0.998340822 -0.0575812709
vn 0 -0.99970374 0.0243399286
vn 0 -0.999997654 -0.00216623007
vn 0 -0.99980882 -0.0195530807
vn 0 -0.998776973 -0.0494424709
vn 0 -0.959076665 -0.283146518
vn 0 -0.959076665 -0.283146518
vn 0 0.0102583031 -0.999947382
vn 0 0.0102583031 -0.999947382
vn 0 0.0102583031 -0.999947382
vn 0 0.0102583031 -0.999947382
vn 0 0.922728054 -0.385451603
vn 0 0.971116973 -0.238603909
vn 0 0.99931196 -0.0370891709
vn 0 0.922728054 -0.385451603
vn 0 0.998994036 0.0448432435
vn 0 0.99983163 0.0183496962
vn 0 0.999999536 0.000963297016
vn 0 0.999581156 -0.028939813
vn 0 0.96468646 -0.2634009
vn 0 0.96468646 -0.2634009
vn 0 -0.0102583833 0.999947381
vn 0 -0.0102583833 0.999947381
vn 0 -0.0102583833 0.999947381
vn 0 -0.0102583833 0.999947381
vn -0.965524803 0.260128757 -0.00974092672
vn -0.981376672 0.187463301 -0.0419206205
vn -0.982134267 0.18506021 -0.0341320929
vn -0.986557361 0.153170973 -0.0569493295
vn -0.9849296 0.159324026 -0.0673018399
vn -0.962560617 0.270402312 -0.0189643659
vn -0.957307277 0.289057061 0.00296539445
vn 0.986901823 0.158444186 -0.0303353033
vn 0.978923342 0.203958421 -0.0104906531
vn 0.987718935 0.155169919 -0.0182647421
vn 0.803469484 0.554654897 -0.216320906
vn 0.555091023 0.76623118 -0.323672265
vn 0.976481952 0.214683188 -0.0198526127
vn 0.972189104 0.234184916 0.00240246907
vn 0 0.921183879 -0.389127564
vn 0 0.921183879 -0.389127564
vn 0.920090067 -0.389023138 0.0457740874
vn 0.989382007 -0.141155222 0.034618612
vn 0.924516563 -0.370171767 0.0907853962
vn 0.988377159 0.149115926 0.0295809333
vn 0.909066857 0.414405471 0.0431920626
vn 0.899268555 0.429036484 0.0851102893
vn -0.920090083 -0.389023101 0.0457740831
vn -0.998817379 -0.000498744604 0.0486168212
vn -1 0 -4.03990503e-17
vn -0.924516578 -0.370171732 0.0907853875
vn -0.909066875 0.414405433 0.0431920586
vn -0.913923168 0.398129072 0.0789790188
vn 0 -0.971217796 0.238193185
vn 0 -0.971217796 0.238193185
vn 0 -0.971217796 0.238193185
vn 0 -0.971217796 0.238193185
vn 0 0.980885928 0.19458365
vn 0 0.980885928 0.19458365
vn 0 0.980885928 0.19458365
vn 0 0.980885928 0.19458365
vn 0 0.0102584762 -0.99994738
vn 0 0.0102584678 -0.999947381
vn 0 0.0102584762 -0.99994738
vn 0 0.010258463 -0.999947381
vn 0 0.0102584555 -0.999947381
vn 0 0.0102584555 -0.999947381
vn 0 -0.0102584713 0.99994738
vn 0 -0.0102583774 0.999947381
vn 0 -0.0102585299 0.99994738
vn 0 -0.0102583774 0.999947381
vn 0 -0.0102586316 0.999947379
vn 0 -0.0102586316 0.999947379
vn 0.91575615 -0.401713443 -0.00412119282
vn 0.989476794 -0.144684037 -0.00148431678
vn 0.915756154 -0.401713433 -0.00412118713
vn 0.989476807 0.14468395 0.00148431589
vn 0.915756422 0.401712822 0.00412118644
vn 0.915756426 0.401712812 0.00412118076
vn -0.91575621 -0.401713306 -0.00412119141
vn -1 -2.58448545e-17 5.04782315e-18
vn -1 -2.58448545e-17 6.86503948e-18
vn -0.915756214 -0.401713296 -0.00412118572
vn -0.915756482 0.401712685 0.00412118504
vn -0.915756478 0.401712695 0.00412117956
vn 0 -0.99994738 -0.0102584826
vn 0 -0.99994738 -0.0102584826
vn 0 -0.99994738 -0.0102584826
vn 0 -0.99994738 -0.0102584826
vn 0 0.99994738 0.0102584826
vn 0 0.99994738 0.0102584826
vn 0 0.99994738 0.0102584826
vn 0 0.99994738 0.0102584826
vn 0.877004013 -0.480457748 -0.00493097931
vn 0.983685109 -0.179889381 -0.00184842445
vn 0.877004302 -0.480457239 -0.00492909547
vn 0.983639881 0.180136557 0.00184514082
vn 0.876138105 0.482034837 0.00494326915
vn 0.876137794 0.482035383 0.00494528524
vn -0.877003732 -0.48045828 -0.00492903919
vn -1 1.90303616e-08 -9.25878041e-17
vn -1 0 -1.49085694e-16
vn -0.877003722 -0.480458298 -0.00492910634
vn -0.876137823 0.482035331 0.00494521787
vn -0.876137833 0.482035311 0.00494528451
vn 0 -0.999947379 -0.0102586363
vn 0 -0.999947379 -0.0102586363
vn 0 -0.999947379 -0.0102586363
vn 0 -0.999947379 -0.0102586363
vn 0 0.999947379 0.0102586349
vn 0 0.999947379 0.0102586349
vn 0 0.999947379 0.0102586349
vn 0 0.999947379 0.0102586349
vn 0 -0.0102584962 0.99994738
vn 0 -0.0102585282 0.99994738
vn 0 -0.0102585282 0.99994738
vn 0 -0.0102584962 0.99994738
vn 0 -0.0102584642 0.999947381
vn 0 -0.0102584642 0.999947381
vn 0 0.0102584709 -0.999947381
vn 0 0.0102584631 -0.999947381
vn 0 0.0102584631 -0.999947381
vn 0 0.0102584709 -0.999947381
vn 0 0.0102584786 -0.99994738
vn 0 0.0102584786 -0.99994738

g gun14_submesh_0
usemtl gun0506
f 1/1/1 3/3/3 2/2/2
f 1/1/1 2/2/2 4/4/4
f 5/5/5 3/3/3 1/1/1
f 5/5/5 6/6/6 3/3/3
f 3/3/3 6/6/6 7/7/7
f 8/8/8 10/10/10 9/9/9
f 8/8/8 9/9/9 11/11/11
f 12/12/12 8/8/8 11/11/11
f 12/12/12 11/11/11 13/13/13
f 13/13/13 11/11/11 14/14/14
f 15/15/15 17/17/17 16/16/16
f 15/15/15 16/16/16 18/18/18
f 19/19/19 21/21/21 20/20/20
f 19/19/19 20/20/20 22/22/22
f 23/23/23 25/25/25 24/24/24
f 23/23/23 24/24/24 26/26/26
f 27/27/27 29/29/29 28/28/28
f 27/27/27 28/28/28 30/30/30
f 31/31/31 33/33/33 32/32/32
f 31/31/31 32/32/32 34/34/34
f 35/35/35 37/37/37 36/36/36
f 35/35/35 36/36/36 38/38/38
f 39/39/39 41/41/41 40/40/40
f 39/39/39 40/40/40 42/42/42
f 43/43/43 41/41/41 39/39/39
f 43/43/43 39/39/39 44/44/44
f 45/45/45 47/47/47 46/46/46
f 45/45/45 46/46/46 48/48/48
f 49/49/49 51/51/51 50/50/50
f 49/49/49 50/50/50 52/52/52
f 52/52/52 50/50/50 53/53/53
f 50/50/50 54/54/54 53/53/53
f 53/53/53 54/54/54 55/55/55
f 53/53/53 55/55/55 56/56/56
f 50/50/50 57/57/57 54/54/54
f 52/52/52 53/53/53 58/58/58
f 59/59/59 61/61/61 60/60/60
f 59/59/59 62/62/62 61/61/61
f 62/62/62 63/63/63 61/61/61
f 61/61/61 63/63/63 64/64/64
f 63/63/63 65/65/65 64/64/64
f 63/63/63 66/66/66 65/65/65
f 61/61/61 64/64/64 67/67/67
f 62/62/62 68/68/68 63/63/63
f 69/69/69 71/71/71 70/70/70
f 69/69/69 70/70/70 72/72/72
f 73/73/73 69/69/69 72/72/72
f 73/73/73 72/72/72 74/74/74
f 75/75/75 73/73/73 74/74/74
f 75/75/75 74/74/74 76/76/76
f 77/77/77 75/75/75 76/76/76
f 77/77/77 76/76/76 78/78/78
f 79/79/79 77/77/77 78/78/78
f 79/79/79 78/78/78 80/80/80
f 81/81/81 83/83/83 82/82/82
f 81/81/81 82/82/82 84/84/84
f 85/85/85 87/87/87 86/86/86
f 85/85/85 86/86/86 88/88/88
f 89/89/89 85/85/85 88/88/88
f 89/89/89 88/88/88 90/90/90
f 91/91/91 93/93/93 92/92/92
f 91/91/91 92/92/92 94/94/94
f 95/95/95 97/97/97 96/96/96
f 98/98/98 97/97/97 95/95/95
f 99/99/99 97/97/97 98/98/98
f 98/98/98 95/95/95 100/100/100
f 100/100/100 95/95/95 101/101/101
f 95/95/95 96/96/96 102/102/102
f 102/102/102 96/96/96 103/103/103
f 95/95/95 102/102/102 104/104/104
f 105/105/105 107/107/107 106/106/106
f 105/105/105 106/106/106 108/108/108
f 105/105/105 108/108/108 109/109/109
f 105/105/105 110/110/110 107/107/107
f 111/111/111 107/107/107 110/110/110
f 112/112/112 107/107/107 111/111/111
f 111/111/111 110/110/110 113/113/113
f 113/113/113 110/110/110 114/114/114
f 115/115/115 117/117/117 116/116/116
f 115/115/115 116/116/116 118/118/118
f 116/116/116 117/117/117 119/119/119
f 116/116/116 119/119/119 120/120/120
f 115/115/115 118/118/118 121/121/121
f 115/115/115 121/121/121 122/122/122
f 123/123/123 125/125/125 124/124/124
f 123/123/123 124/124/124 126/126/126
f 125/125/125 123/123/123 127/127/127
f 125/125/125 127/127/127 128/128/128
f 128/128/128 127/127/127 129/129/129
f 128/128/128 129/129/129 130/130/130
f 131/131/131 133/133/133 132/132/132
f 131/131/131 132/132/132 134/134/134
f 135/135/135 137/137/137 136/136/136
f 135/135/135 136/136/136 138/138/138
f 139/139/139 141/141/141 140/140/140
f 139/139/139 140/140/140 142/142/142
f 142/142/142 140/140/140 143/143/143
f 142/142/142 143/143/143 144/144/144
f 145/145/145 147/147/147 146/146/146
f 145/145/145 146/146/146 148/148/148
f 146/146/146 147/147/147 149/149/149
f 146/146/146 149/149/149 150/150/150
f 151/151/151 153/153/153 152/152/152
f 151/151/151 152/152/152 154/154/154
f 152/152/152 153/153/153 155/155/155
f 152/152/152 155/155/155 156/156/156
f 157/157/157 159/159/159 158/158/158
f 157/157/157 158/158/158 160/160/160
f 158/158/158 159/159/159 161/161/161
f 158/158/158 161/161/161 162/162/162
f 163/163/163 165/165/165 164/164/164
f 163/163/163 164/164/164 166/166/166
f 166/166/166 164/164/164 167/167/167
f 166/166/166 167/167/167 168/168/168
f 169/169/169 171/171/171 170/170/170
f 170/170/170 171/171/171 172/172/172
f 170/170/170 172/172/172 173/173/173
f 174/174/174 176/176/176 175/175/175
f 177/177/177 174/174/174 175/175/175
f 177/177/177 175/175/175 178/178/178
f 179/179/179 181/181/181 180/180/180
f 179/179/179 180/180/180 182/182/182
f 183/183/183 179/179/179 182/182/182
f 184/184/184 182/182/182 185/185/185
f 186/186/186 184/184/184 185/185/185
f 185/185/185 187/187/187 186/186/186
f 185/185/185 188/188/188 187/187/187
f 186/186/186 189/189/189 184/184/184
f 187/187/187 188/188/188 190/190/190
f 190/190/190 188/188/188 191/191/191
f 192/192/192 194/194/194 193/193/193
f 195/195/195 197/197/197 196/196/196
f 196/196/196 197/197/197 198/198/198
f 196/196/196 198/198/198 199/199/199
f 200/200/200 197/197/197 201/201/201
f 197/197/197 200/200/200 202/202/202
f 197/197/197 202/202/202 203/203/203
f 203/203/203 202/202/202 204/204/204
f 203/203/203 204/204/204 205/205/205
f 205/205/205 204/204/204 206/206/206
f 206/206/206 207/207/207 205/205/205
f 208/208/208 210/210/210 209/209/209
f 208/208/208 209/209/209 211/211/211
f 212/212/212 214/214/214 213/213/213
f 212/212/212 213/213/213 215/215/215
f 212/212/212 215/215/215 216/216/216
f 212/212/212 216/216/216 217/217/217
f 218/218/218 217/217/217 216/216/216
f 218/218/218 216/216/216 219/219/219
f 220/220/220 218/218/218 219/219/219
f 220/220/220 219/219/219 221/221/221
f 222/222/222 220/220/220 221/221/221
f 222/222/222 221/221/221 223/223/223
f 224/224/224 226/226/226 225/225/225
f 224/224/224 225/225/225 227/227/227
f 226/226/226 228/228/228 225/225/225
f 226/226/226 229/229/229 228/228/228
f 228/228/228 229/229/229 230/230/230
f 228/228/228 230/230/230 231/231/231
f 230/230/230 232/232/232 231/231/231
f 230/230/230 233/233/233 232/232/232
f 234/234/234 236/236/236 235/235/235
f 234/234/234 235/235/235 237/237/237
f 238/238/238 240/240/240 239/239/239
f 241/241/241 243/243/243 242/242/242
f 241/241/241 242/242/242 244/244/244
f 245/245/245 247/247/247 246/246/246
f 245/245/245 246/246/246 248/248/248
f 249/249/249 251/251/251 250/250/250
f 249/249/249 250/250/250 252/252/252
f 252/252/252 253/253/253 249/249/249
f 252/252/252 254/254/254 253/253/253
f 255/255/255 257/257/257 256/256/256
f 255/255/255 256/256/256 258/258/258
f 259/259/259 261/261/261 260/260/260
f 259/259/259 260/260/260 262/262/262
f 263/263/263 265/265/265 264/264/264
f 263/263/263 264/264/264 266/266/266
f 263/263/263 266/266/266 267/267/267
f 268/268/268 267/267/267 266/266/266
f 268/268/268 269/269/269 267/267/267
f 270/270/270 272/272/272 271/271/271
f 270/270/270 273/273/273 272/272/272
f 270/270/270 274/274/274 273/273/273
f 275/275/275 277/277/277 276/276/276
f 275/275/275 276/276/276 278/278/278
f 279/279/279 275/275/275 278/278/278
f 279/279/279 278/278/278 280/280/280
f 281/281/281 279/279/279 280/280/280
f 281/281/281 280/280/280 282/282/282
f 281/281/281 282/282/282 283/283/283
f 281/281/281 283/283/283 284/284/284
f 285/285/285 287/287/287 286/286/286
f 285/285/285 286/286/286 288/288/288
f 289/289/289 287/287/287 285/285/285
f 289/289/289 290/290/290 287/287/287
f 291/291/291 290/290/290 289/289/289
f 291/291/291 292/292/292 290/290/290
f 291/291/291 293/293/293 292/292/292
f 291/291/291 294/294/294 293/293/293
f 295/295/295 297/297/297 296/296/296
f 295/295/295 296/296/296 298/298/298
f 299/299/299 295/295/295 298/298/298
f 299/299/299 298/298/298 300/300/300
f 301/301/301 299/299/299 300/300/300
f 301/301/301 300/300/300 302/302/302
f 303/303/303 301/301/301 302/302/302
f 303/303/303 302/302/302 304/304/304
f 305/305/305 307/307/307 306/306/306
f 305/305/305 306/306/306 308/308/308
f 309/309/309 311/311/311 310/310/310
f 309/309/309 310/310/310 312/312/312
f 311/311/311 313/313/313 310/310/310
f 311/311/311 314/314/314 313/313/313
f 314/314/314 315/315/315 313/313/313
f 314/314/314 316/316/316 315/315/315
f 316/316/316 317/317/317 315/315/315
f 316/316/316 318/318/318 317/317/317
f 319/319/319 321/321/321 320/320/320
f 319/319/319 320/320/320 322/322/322
f 323/323/323 325/325/325 324/324/324
f 324/324/324 325/325/325 326/326/326
f 324/324/324 326/326/326 327/327/327
f 323/323/323 324/324/324 328/328/328
f 323/323/323 328/328/328 329/329/329
f 330/330/330 332/332/332 331/331/331
f 333/333/333 332/332/332 330/330/330
f 333/333/333 330/330/330 334/334/334
f 335/335/335 330/330/330 331/331/331
f 335/335/335 331/331/331 336/336/336
f 333/333/333 334/334/334 337/337/337
f 333/333/333 337/337/337 338/338/338
f 339/339/339 341/341/341 340/340/340
f 339/339/339 340/340/340 342/342/342
f 342/342/342 340/340/340 343/343/343
f 342/342/342 343/343/343 344/344/344
f 345/345/345 347/347/347 346/346/346
f 345/345/345 346/346/346 348/348/348
f 346/346/346 347/347/347 349/349/349
f 346/346/346 349/349/349 350/350/350
f 351/351/351 353/353/353 352/352/352
f 351/351/351 352/352/352 354/354/354
f 355/355/355 357/357/357 356/356/356
f 355/355/355 356/356/356 358/358/358
f 359/359/359 361/361/361 360/360/360
f 359/359/359 360/360/360 362/362/362
f 362/362/362 360/360/360 363/363/363
f 362/362/362 363/363/363 364/364/364
f 365/365/365 367/367/367 366/366/366
f 365/365/365 366/366/366 368/368/368
f 369/369/369 367/367/367 365/365/365
f 369/369/369 370/370/370 367/367/367
f 371/371/371 373/373/373 372/372/372
f 371/371/371 372/372/372 374/374/374
f 374/374/374 372/372/372 375/375/375
f 374/374/374 375/375/375 376/376/376
f 377/377/377 379/379/379 378/378/378
f 377/377/377 378/378/378 380/380/380
f 378/378/378 379/379/379 381/381/381
f 378/378/378 381/381/381 382/382/382
f 383/383/383 385/385/385 384/384/384
f 383/383/383 384/384/384 386/386/386
f 387/387/387 389/389/389 388/388/388
f 387/387/387 388/388/388 390/390/390
f 391/391/391 393/393/393 392/392/392
f 391/391/391 392/392/392 394/394/394
f 394/394/394 392/392/392 395/395/395
f 394/394/394 395/395/395 396/396/396
f 397/397/397 399/399/399 398/398/398
f 397/397/397 398/398/398 400/400/400
f 398/398/398 399/399/399 401/401/401
f 398/398/398 401/401/401 402/402/402
f 403/403/403 405/405/405 404/404/404
f 403/403/403 404/404/404 406/406/406
f 407/407/407 409/409/409 408/408/408
f 407/407/407 408/408/408 410/410/410
f 411/411/411 413/413/413 412/412/412
f 411/411/411 412/412/412 414/414/414
f 411/411/411 414/414/414 415/415/415
f 411/411/411 415/415/415 416/416/416
f 417/417/417 419/419/419 418/418/418
f 417/417/417 418/418/418 420/420/420
f 417/417/417 420/420/420 421/421/421
f 417/417/417 421/421/421 422/422/422
