# Generated from legacy Unity YAML Mesh assets without Unity.
mtllib gun28.mtl

o Cone01
v -0.0210374558 0.33985152 -0.0164369386
v -0.00307722402 0.431351933 0.0320153619
v -0.0161901602 0.239059788 0.0515819238
v -0.0210374558 0.33985152 -0.0164369386
v -0.00674162072 0.431351903 -0.0176089613
v 0.00757784384 0.686944824 0.0153115398
v 0.00488320353 0.686944824 -0.0190778392
v 0.0135945434 0.686944824 0.0462407303
v 0.0049552581 0.431351903 0.0766583677
v -0.0161901602 0.239059788 0.0515819238
v 0.0223443209 0.686944824 0.0706823029
v 0.0165694765 0.431351933 0.11195004
v -0.00604030502 0.299443364 0.0993744085
v 0.0329706742 0.686944765 0.0862435377
v 0.030628506 0.431351933 0.134435895
v 0.00987715635 0.188571713 0.177963519
v 0.0444334819 0.686944824 0.0914012458
v 0.0457562579 0.431351873 0.141914667
v 0.0277092046 0.252343187 0.192017785
v -0.00567941007 0.431351873 -0.0673569008
v -0.0197566674 0.239131328 -0.0846159214
v 0.0057743265 0.686944824 -0.0535610025
v 5.60271578e-06 0.431351933 -0.112359159
v -0.0121165515 0.294963688 -0.132665846
v 0.0101640931 0.686944824 -0.0847628469
v 0.00975688535 0.431351933 -0.148210406
v -0.000333935143 0.151614472 -0.21198033
v 0.0176226458 0.686944824 -0.10962876
v 0.0226198024 0.431351903 -0.171401228
v 0.0167326591 0.252343187 -0.22715716
v 0.0274200625 0.686944765 -0.125724887
v 0.0373354106 0.431351933 -0.179661536
v 0.0336034781 0.0306634395 -0.322178448
v 0.0167326591 0.252343187 -0.22715716
v 0.0385972074 0.686944765 -0.131475497
v 0.0524631179 0.431351903 -0.172182794
v 0.0554241947 0.252343187 -0.228170409
v 0.0500599852 0.686944765 -0.126317804
v 0.0665222144 0.431351933 -0.149697035
v 0.0732617116 0.151614472 -0.213907706
v 0.0606864205 0.686944824 -0.110756532
v 0.0781363881 0.431351963 -0.114405326
v 0.0891791916 0.294963688 -0.135318729
v 0.0694361812 0.686944824 -0.0863151303
v 0.0861689037 0.431351873 -0.0697623501
v 0.0993235967 0.239131328 -0.0877345774
v 0.0754528603 0.686944943 -0.055385802
v 0.0898333228 0.431351873 -0.0201379561
v 0.104170922 0.33985152 -0.0197156815
v 0.0781475789 0.686944705 -0.0209964714
v 0.0887710786 0.431351903 0.0296103187
v 0.102890108 0.239059788 0.0484636329
v 0.0772564149 0.686944765 0.0134870085
v 0.0830860398 0.431351933 0.074612461
v 0.0952554083 0.299443364 0.0967219129
v 0.072866652 0.686944824 0.0446887001
v 0.073334772 0.431351873 0.110463679
v 0.0834728068 0.188571713 0.176036412
v 0.0654080472 0.686944824 0.0695546428
v 0.060471814 0.431351903 0.133654448
v 0.0664007327 0.252343187 0.191004626
v 0.0556106305 0.686944824 0.0856505759
v 0.0457562579 0.431351873 0.141914667
v 0.0483041218 0.167293336 0.239213806
v 0.0664007327 0.252343187 0.191004626
v 0.0444334819 0.686944824 0.0914012458
v 0.0517926401 1.01912192 0.0463878494
v 0.0433526075 1.01912216 0.0501241509
v 0.0592224857 1.01912192 0.0359914901
v 0.0649148932 1.01912192 0.0199528446
v 0.0683127082 1.01912216 -0.00015831363
v 0.0690832621 1.01912216 -0.0223733049
v 0.0671510881 1.01912192 -0.0445174113
v 0.0627054087 1.01912192 -0.0644231608
v 0.0561814195 1.01912216 -0.0801419455
v 0.0482176355 1.0191218 -0.0901352583
v 0.0395936033 1.01912216 -0.0934246741
v 0.031153608 1.01912192 -0.0896883428
v 0.0237237326 1.01912216 -0.0792919835
v 0.0180313102 1.01912216 -0.0632531963
v 0.0146335455 1.01912216 -0.0431420754
v 0.0138630139 1.01912192 -0.0209272667
v 0.0157951581 1.01912192 0.00121683789
v 0.0202407985 1.01912192 0.0211225631
v 0.0267648398 1.01912192 0.0368414261
v 0.034728635 1.01912192 0.0468346159
v 0.0433526075 1.01912216 0.0501241509
v 0.021671865 1.42788334 -0.0108078678
v 0.0203097722 1.42788334 -0.0233517913
v 0.0249665043 1.4278831 0.000454155637
v 0.0298710949 1.42788334 0.00933176279
v 0.0359055995 1.42788334 0.0149560206
v 0.0424793622 1.4278831 0.0167761896
v 0.0253802872 2.01870043 -0.0159471283
v 0.0244068837 2.07609207 -0.021199034
v 0.0279289446 1.97245558 -0.0112530157
v 0.0318034551 1.93821153 -0.00757630484
v 0.036624465 1.91819963 -0.00527679722
v 0.0419201179 1.91322861 -0.00457956923
v 0.0210134572 1.4278831 -0.0359498079
v 0.0237141586 1.42788334 -0.0473688262
v 0.028147444 1.42788286 -0.0564909874
v 0.0338793247 1.42788334 -0.0624232875
v 0.0403488165 1.4278831 -0.0645851066
v 0.046922542 1.42788286 -0.0627648556
v 0.0529570765 1.42788358 -0.0571406742
v 0.0578616596 1.42788358 -0.0482630335
v 0.0611563212 1.4278831 -0.0370010548
v 0.0625184214 1.4278831 -0.0244571089
v 0.0618146694 1.42788334 -0.0118590439
v 0.059113968 1.4278831 -0.000440049828
v 0.0546806938 1.42788334 0.00868210023
v 0.0489488206 1.4278831 0.0146144264
v 0.0424793622 1.4278831 0.0167761896
v 0.0471720359 1.91819963 -0.00555299484
v 0.0419201179 1.91322861 -0.00457956923
v 0.0518660805 1.93821201 -0.00810168708
v 0.0555428303 1.97245558 -0.0119762248
v 0.0578424073 2.01869996 -0.016797135
v 0.0585395581 2.07609207 -0.0220928334
v 0.0585395581 2.07609207 -0.0220928334
v 0.0575661844 2.01869996 -0.0273447597
v 0.0585395581 2.07609207 -0.0220928334
v 0.0550174749 1.97245558 -0.0320388387
v 0.0511430016 1.93821201 -0.0357155728
v 0.0463219843 1.91819939 -0.0380151233
v 0.0410262941 1.91322861 -0.0387123038
v 0.0357744059 1.91819963 -0.0377388596
v 0.0310802906 1.93821153 -0.0351901915
v 0.0274035482 1.97245582 -0.0313156557
v 0.0251040905 2.01869996 -0.0264946579
v 0.0244068837 2.07609207 -0.021199034
v 0.0244068837 2.07609207 -0.021199034
v -0.0161901602 0.239059788 0.0515819238
v -0.00604030502 0.299443364 0.0993744085
v -0.00604030502 0.299443364 0.0993744085
v 0.00987715635 0.188571713 0.177963519
v 0.00987715635 0.188571713 0.177963519
v 0.0277092046 0.252343187 0.192017785
v 0.0277092046 0.252343187 0.192017785
v 0.0483041218 0.167293336 0.239213806
v 0.0664007327 0.252343187 0.191004626
v 0.0834728068 0.188571713 0.176036412
v 0.0834728068 0.188571713 0.176036412
v 0.0952554083 0.299443364 0.0967219129
v 0.0952554083 0.299443364 0.0967219129
v 0.102890108 0.239059788 0.0484636329
v 0.102890108 0.239059788 0.0484636329
v 0.104170922 0.33985152 -0.0197156815
v 0.104170922 0.33985152 -0.0197156815
v 0.0993235967 0.239131328 -0.0877345774
v 0.0993235967 0.239131328 -0.0877345774
v 0.0891791916 0.294963688 -0.135318729
v 0.0891791916 0.294963688 -0.135318729
v 0.0732617116 0.151614472 -0.213907706
v 0.0732617116 0.151614472 -0.213907706
v 0.0554241947 0.252343187 -0.228170409
v 0.0554241947 0.252343187 -0.228170409
v 0.0373354106 0.431351933 -0.179661536
v 0.0336034781 0.0306634395 -0.322178448
v 0.0167326591 0.252343187 -0.22715716
v -0.000333935143 0.151614472 -0.21198033
v -0.000333935143 0.151614472 -0.21198033
v -0.0121165515 0.294963688 -0.132665846
v -0.0121165515 0.294963688 -0.132665846
v -0.0197566674 0.239131328 -0.0846159214
v -0.0197566674 0.239131328 -0.0846159214
v -0.0210374558 0.33985152 -0.0164369386
vt 0.75 0
vt 0.800000012 0.199999988
vt 0.800000012 0
vt 0.75 0
vt 0.75 0.199999988
vt 0.800000012 0.399999976
vt 0.75 0.399999976
vt 0.850000024 0.399999976
vt 0.850000024 0.199999988
vt 0.800000012 0
vt 0.900000036 0.399999976
vt 0.900000036 0.199999988
vt 0.850000024 0
vt 0.949999988 0.399999976
vt 0.949999988 0.199999988
vt 0.900000036 0
vt 1 0.399999976
vt 1 0.199999988
vt 0.949999988 0
vt 0.700000286 0.199999988
vt 0.700000286 0
vt 0.700000286 0.399999976
vt 0.650000274 0.199999988
vt 0.650000274 0
vt 0.650000274 0.399999976
vt 0.600000203 0.199999988
vt 0.600000203 0
vt 0.600000203 0.399999976
vt 0.550000191 0.199999988
vt 0.550000191 0
vt 0.550000191 0.399999976
vt 0.500000179 0.199999988
vt 0.500000179 0
vt 0.550000191 0
vt 0.500000179 0.399999976
vt 0.450000137 0.199999988
vt 0.450000137 0
vt 0.450000137 0.399999976
vt 0.400000125 0.199999988
vt 0.400000125 0
vt 0.400000125 0.399999976
vt 0.350000143 0.199999988
vt 0.350000143 0
vt 0.350000143 0.399999976
vt 0.300000072 0.199999988
vt 0.300000072 0
vt 0.300000072 0.399999976
vt 0.25000006 0.199999988
vt 0.25000006 0
vt 0.25000006 0.399999976
vt 0.200000033 0.199999988
vt 0.200000033 0
vt 0.200000033 0.399999976
vt 0.150000051 0.199999988
vt 0.150000051 0
vt 0.150000051 0.399999976
vt 0.100000001 0.199999988
vt 0.100000001 0
vt 0.100000001 0.399999976
vt 0.0500000194 0.199999988
vt 0.0500000194 0
vt 0.0500000194 0.399999976
vt 3.79454939e-08 0.199999988
vt 3.79454939e-08 0
vt 0.0500000194 0
vt 3.79454939e-08 0.399999976
vt 0.0500000194 0.600000024
vt 3.79454939e-08 0.600000024
vt 0.100000001 0.600000024
vt 0.150000051 0.600000024
vt 0.200000033 0.600000024
vt 0.25000006 0.600000024
vt 0.300000072 0.600000024
vt 0.350000143 0.600000024
vt 0.400000125 0.600000024
vt 0.450000137 0.600000024
vt 0.500000179 0.600000024
vt 0.550000191 0.600000024
vt 0.600000203 0.600000024
vt 0.650000274 0.600000024
vt 0.700000286 0.600000024
vt 0.75 0.600000024
vt 0.800000012 0.600000024
vt 0.850000024 0.600000024
vt 0.900000036 0.600000024
vt 0.949999988 0.600000024
vt 1 0.600000024
vt 0.800000012 0.799999952
vt 0.75 0.799999952
vt 0.850000024 0.799999952
vt 0.900000036 0.799999952
vt 0.949999988 0.799999952
vt 1 0.799999952
vt 0.800000012 0.99999994
vt 0.75 0.99999994
vt 0.850000024 0.99999994
vt 0.900000036 0.99999994
vt 0.949999988 0.99999994
vt 1 0.99999994
vt 0.700000286 0.799999952
vt 0.650000274 0.799999952
vt 0.600000203 0.799999952
vt 0.550000191 0.799999952
vt 0.500000179 0.799999952
vt 0.450000137 0.799999952
vt 0.400000125 0.799999952
vt 0.350000143 0.799999952
vt 0.300000072 0.799999952
vt 0.25000006 0.799999952
vt 0.200000033 0.799999952
vt 0.150000051 0.799999952
vt 0.100000001 0.799999952
vt 0.0500000194 0.799999952
vt 3.79454939e-08 0.799999952
vt 0.0500000194 0.99999994
vt 3.79454939e-08 0.99999994
vt 0.100000001 0.99999994
vt 0.150000051 0.99999994
vt 0.200000033 0.99999994
vt 0.25000006 0.99999994
vt 0.25000006 0.99999994
vt 0.300000072 0.99999994
vt 0.25000006 0.99999994
vt 0.350000143 0.99999994
vt 0.400000125 0.99999994
vt 0.450000137 0.99999994
vt 0.500000179 0.99999994
vt 0.550000191 0.99999994
vt 0.600000203 0.99999994
vt 0.650000274 0.99999994
vt 0.700000286 0.99999994
vt 0.75 0.99999994
vt 0.75 0.99999994
vt 0.800000012 0
vt 0.850000024 0
vt 0.850000024 0
vt 0.900000036 0
vt 0.900000036 0
vt 0.949999988 0
vt 0.949999988 0
vt 1 0
vt 0.0500000194 0
vt 0.100000001 0
vt 0.100000001 0
vt 0.150000051 0
vt 0.150000051 0
vt 0.200000033 0
vt 0.200000033 0
vt 0.25000006 0
vt 0.25000006 0
vt 0.300000072 0
vt 0.300000072 0
vt 0.350000143 0
vt 0.350000143 0
vt 0.400000125 0
vt 0.400000125 0
vt 0.450000137 0
vt 0.450000137 0
vt 0.500000179 0.199999988
vt 0.500000179 0
vt 0.550000191 0
vt 0.600000203 0
vt 0.600000203 0
vt 0.650000274 0
vt 0.650000274 0
vt 0.700000286 0
vt 0.700000286 0
vt 0.75 0
vn -0.976335223 0.0867372127 0.198106508
vn -0.985797384 0.0717556499 0.151837558
vn -0.976335223 0.0867372127 0.198106508
vn -0.985252999 0.154865836 0.072753702
vn -0.997362889 0.0725639999 -0.00131636487
vn -0.990788042 0.0399700218 0.129388771
vn -0.999051046 0.0366068393 0.0235997396
vn -0.966046798 0.0504179178 0.253400115
vn -0.971118005 0.0804124695 0.224641171
vn -0.980648478 0.0848272128 0.176445196
vn -0.901217 0.0717092715 0.42739408
vn -0.901091188 0.116437163 0.41770451
vn -0.941591929 0.131851705 0.309870564
vn -0.694829273 0.112618616 0.71030228
vn -0.736540404 0.17063954 0.654515379
vn -0.836254241 0.165220204 0.522858613
vn -0.417660307 0.150935044 0.895979062
vn -0.517028624 0.245448024 0.820022359
vn -0.424996372 0.283460823 0.859667404
vn -0.99610035 0.0636517901 -0.0610945438
vn -0.996962032 0.0749237518 -0.0212870308
vn -0.995740452 0.0393907932 -0.0833625732
vn -0.972013138 0.0831723799 -0.219710753
vn -0.986500677 0.106234738 -0.124621806
vn -0.976085265 0.0492910148 -0.211726122
vn -0.937525074 0.0987053924 -0.333622512
vn -0.960651059 0.0942176778 -0.261290207
vn -0.915191603 0.0701672878 -0.396863808
vn -0.725973037 0.191402413 -0.660551486
vn -0.860684176 0.176996579 -0.477383451
vn -0.699874469 0.110602488 -0.705650634
vn -0.181491446 0.247977686 -0.951613326
vn -0.591632811 0.26967853 -0.759765824
vn -0.712591067 0.229892004 -0.662845108
vn 0.0159337597 0.14769516 -0.988904573
vn 0.770377799 0.152866999 -0.618990895
vn 0.425898495 0.276488617 -0.861489708
vn 0.695323237 0.106170908 -0.710811743
vn 0.898327855 0.107481904 -0.425975005
vn 0.839469853 0.140703793 -0.524874089
vn 0.901456262 0.0679186553 -0.427508671
vn 0.970805829 0.0779519746 -0.226846936
vn 0.942568597 0.123879728 -0.310190672
vn 0.966149571 0.0482690866 -0.253426717
vn 0.985932222 0.0706394503 -0.151485051
vn 0.980749043 0.0836169838 -0.17646392
vn 0.990826278 0.038991812 -0.129394457
vn 0.997346642 0.0727850734 0.00141710037
vn 0.985377459 0.154067394 -0.0727633255
vn 0.999050351 0.0366256299 -0.0235999962
vn 0.99613335 0.0646259683 0.0595133047
vn 0.996934677 0.0752869038 0.0212868851
vn 0.995699666 0.0404147896 0.0833595858
vn 0.973655182 0.0877036062 0.210484355
vn 0.985891685 0.111829879 0.124545831
vn 0.97597531 0.0515155248 0.211703435
vn 0.930116859 0.110855422 0.350133838
vn 0.959034215 0.110500786 0.260850439
vn 0.914929291 0.0741061131 0.396752664
vn 0.738719046 0.187919237 0.647287055
vn 0.859997212 0.181304854 0.477004555
vn 0.699329804 0.117328112 0.705104205
vn 0.468593431 0.225391024 0.854177431
vn 0.590036753 0.276106315 0.758697524
vn 0.686818753 0.242288063 0.685256518
vn 0.438365204 0.131420763 0.889136958
vn 0.637119235 0.0805742445 0.766542152
vn 0.378225772 0.0879112145 0.921529644
vn 0.887479544 0.0517650742 0.457930601
vn 0.967295285 0.0345227844 0.251292674
vn 0.994401478 0.0254588192 0.102555107
vn 0.99949792 0.022138394 -0.022667164
vn 0.988992584 0.0237740645 -0.146042672
vn 0.957101137 0.0307175205 -0.288121238
vn 0.876593893 0.0447392908 -0.479146683
vn 0.646666752 0.0689366994 -0.759651133
vn 0.0259867852 0.0911660514 -0.995496579
vn -0.637515313 0.0724997677 -0.76701891
vn -0.887697857 0.0467949855 -0.458042295
vn -0.96738722 0.0316679274 -0.251314762
vn -0.994434212 0.0241384453 -0.102556977
vn -0.999498421 0.0221155316 0.0226673894
vn -0.988962426 0.0250335435 0.146036439
vn -0.957016732 0.0334575671 0.288096452
vn -0.876398011 0.049474362 0.47903947
vn -0.646303641 0.07661028 0.759224913
vn -0.375131789 0.0992311418 0.9216449
vn -0.980500246 0.0140426355 0.196015487
vn -0.999474086 0.0113562133 0.0303741396
vn -0.925747967 0.0214463063 0.377532458
vn -0.804379559 0.0340695829 0.593138086
vn -0.539358889 0.0506515935 0.840551251
vn -0.300760683 0.0643399217 0.951526871
vn -0.970462714 0.00745030099 0.241136091
vn -0.97114732 0.00534648397 0.238420424
vn -0.874897497 0.0135188504 0.484119418
vn -0.694515288 0.0241532084 0.719072415
vn -0.429383465 0.0358082953 0.902412104
vn -0.190494864 0.0418386024 0.980796227
vn -0.98822726 0.0138933001 -0.152360947
vn -0.936436529 0.0217322926 -0.350163296
vn -0.803924689 0.0353255199 -0.59368106
vn -0.496865195 0.0526154469 -0.866231258
vn 0.0384237283 0.0609441263 -0.997401339
vn 0.538606032 0.050155945 -0.841063567
vn 0.803170191 0.0339344953 -0.594782393
vn 0.92507448 0.021528935 -0.37917504
vn 0.980298971 0.0142629419 -0.197003798
vn 0.999469428 0.0116915801 -0.0304001594
vn 0.988416756 0.0141787205 0.151100231
vn 0.937317843 0.0221337474 0.347771991
vn 0.806205509 0.0358641845 0.590547575
vn 0.500376354 0.0533617732 0.864162037
vn 0.265696253 0.053446519 0.962574138
vn 0.271084131 0.0413027825 0.961669108
vn 0.141950406 0.0436767254 0.988909716
vn 0.588913273 0.0317793683 0.807571191
vn 0.824488698 0.019494376 0.565542533
vn 0.954388187 0.0103673393 0.298388518
vn 0.998425845 0.0059251498 0.0557738679
vn 0.975600758 0.00839299035 0.219391703
vn 0.968607743 0.00914859564 -0.24842573
vn 0.967114895 0.00686372578 -0.254247259
vn 0.86763641 0.0175398741 -0.49688974
vn 0.68175516 0.0306260945 -0.730939083
vn 0.418974539 0.0440998474 -0.906926424
vn 0.0904158856 0.0520818447 -0.994541326
vn -0.258350773 0.0503706744 -0.964737101
vn -0.570113759 0.0396481604 -0.820608509
vn -0.812092767 0.0249893355 -0.582993028
vn -0.950451 0.0131522568 -0.310596064
vn -0.970073151 0.0105986436 -0.242581429
vn -0.998422577 0.00649590973 -0.0557688205
vn -0.991395942 0.0976515203 0.0871680401
vn -0.991395942 0.0976515203 0.0871680401
vn -0.923954615 0.123869272 0.361889863
vn -0.923954615 0.123869272 0.361889863
vn -0.888843257 0.15338518 0.431776159
vn -0.888843257 0.15338518 0.431776159
vn -0.602210428 0.270903065 0.750968794
vn -0.602210428 0.270903065 0.750968794
vn 0.902846471 0.146847347 0.404109028
vn 0.902846471 0.146847347 0.404109028
vn 0.930576474 0.142382705 0.337275247
vn 0.930576474 0.142382705 0.337275247
vn 0.995152347 0.0788336948 0.0587967199
vn 0.995152347 0.0788336948 0.0587967199
vn 0.958485898 0.151304816 0.241684992
vn 0.958485898 0.151304816 0.241684992
vn 0.976955157 0.0851578574 -0.195721131
vn 0.976955157 0.0851578574 -0.195721131
vn 0.990481698 0.0954083465 -0.0992131677
vn 0.990481698 0.0954083465 -0.0992131677
vn 0.914957525 0.111094661 -0.387957091
vn 0.914957525 0.111094661 -0.387957091
vn 0.936178893 0.118944882 -0.330788747
vn 0.936178893 0.118944882 -0.330788747
vn 0.586785444 0.266498944 -0.764631385
vn 0.586785444 0.266498944 -0.764631385
vn 0.586785444 0.266498944 -0.764631385
vn -0.937576251 0.109099744 -0.330224196
vn -0.937576251 0.109099744 -0.330224196
vn -0.912105681 0.138515793 -0.385845309
vn -0.912105681 0.138515793 -0.385845309
vn -0.994663743 0.0788210901 -0.0665678218
vn -0.994663743 0.0788210901 -0.0665678218
vn -0.960719499 0.147086454 -0.235337248
vn -0.960719499 0.147086454 -0.235337248

g Cone01_submesh_0
usemtl Passer-Standard_1
f 1/1/1 3/3/3 2/2/2
f 4/4/4 2/2/2 5/5/5
f 5/5/5 2/2/2 6/6/6
f 5/5/5 6/6/6 7/7/7
f 2/2/2 8/8/8 6/6/6
f 2/2/2 9/9/9 8/8/8
f 10/10/10 9/9/9 2/2/2
f 9/9/9 11/11/11 8/8/8
f 9/9/9 12/12/12 11/11/11
f 13/13/13 12/12/12 9/9/9
f 12/12/12 14/14/14 11/11/11
f 12/12/12 15/15/15 14/14/14
f 16/16/16 15/15/15 12/12/12
f 15/15/15 17/17/17 14/14/14
f 15/15/15 18/18/18 17/17/17
f 19/19/19 18/18/18 15/15/15
f 20/20/20 5/5/5 7/7/7
f 21/21/21 5/5/5 20/20/20
f 20/20/20 7/7/7 22/22/22
f 23/23/23 20/20/20 22/22/22
f 24/24/24 20/20/20 23/23/23
f 23/23/23 22/22/22 25/25/25
f 26/26/26 23/23/23 25/25/25
f 27/27/27 23/23/23 26/26/26
f 26/26/26 25/25/25 28/28/28
f 29/29/29 26/26/26 28/28/28
f 30/30/30 26/26/26 29/29/29
f 29/29/29 28/28/28 31/31/31
f 32/32/32 29/29/29 31/31/31
f 33/33/33 29/29/29 32/32/32
f 33/33/33 34/34/34 29/29/29
f 32/32/32 31/31/31 35/35/35
f 36/36/36 32/32/32 35/35/35
f 37/37/37 32/32/32 36/36/36
f 36/36/36 35/35/35 38/38/38
f 39/39/39 36/36/36 38/38/38
f 40/40/40 36/36/36 39/39/39
f 39/39/39 38/38/38 41/41/41
f 42/42/42 39/39/39 41/41/41
f 43/43/43 39/39/39 42/42/42
f 42/42/42 41/41/41 44/44/44
f 45/45/45 42/42/42 44/44/44
f 46/46/46 42/42/42 45/45/45
f 45/45/45 44/44/44 47/47/47
f 48/48/48 45/45/45 47/47/47
f 49/49/49 45/45/45 48/48/48
f 48/48/48 47/47/47 50/50/50
f 51/51/51 48/48/48 50/50/50
f 52/52/52 48/48/48 51/51/51
f 51/51/51 50/50/50 53/53/53
f 54/54/54 51/51/51 53/53/53
f 55/55/55 51/51/51 54/54/54
f 54/54/54 53/53/53 56/56/56
f 57/57/57 54/54/54 56/56/56
f 58/58/58 54/54/54 57/57/57
f 57/57/57 56/56/56 59/59/59
f 60/60/60 57/57/57 59/59/59
f 61/61/61 57/57/57 60/60/60
f 60/60/60 59/59/59 62/62/62
f 63/63/63 60/60/60 62/62/62
f 64/64/64 60/60/60 63/63/63
f 64/64/64 65/65/65 60/60/60
f 63/63/63 62/62/62 66/66/66
f 66/66/66 62/62/62 67/67/67
f 66/66/66 67/67/67 68/68/68
f 62/62/62 59/59/59 69/69/69
f 62/62/62 69/69/69 67/67/67
f 59/59/59 56/56/56 70/70/70
f 59/59/59 70/70/70 69/69/69
f 56/56/56 71/71/71 70/70/70
f 56/56/56 53/53/53 71/71/71
f 53/53/53 72/72/72 71/71/71
f 53/53/53 50/50/50 72/72/72
f 50/50/50 73/73/73 72/72/72
f 50/50/50 47/47/47 73/73/73
f 47/47/47 74/74/74 73/73/73
f 47/47/47 44/44/44 74/74/74
f 44/44/44 75/75/75 74/74/74
f 44/44/44 41/41/41 75/75/75
f 41/41/41 76/76/76 75/75/75
f 41/41/41 38/38/38 76/76/76
f 38/38/38 77/77/77 76/76/76
f 38/38/38 35/35/35 77/77/77
f 35/35/35 78/78/78 77/77/77
f 35/35/35 31/31/31 78/78/78
f 31/31/31 79/79/79 78/78/78
f 31/31/31 28/28/28 79/79/79
f 28/28/28 80/80/80 79/79/79
f 28/28/28 25/25/25 80/80/80
f 25/25/25 81/81/81 80/80/80
f 25/25/25 22/22/22 81/81/81
f 22/22/22 82/82/82 81/81/81
f 22/22/22 7/7/7 82/82/82
f 7/7/7 83/83/83 82/82/82
f 7/7/7 6/6/6 83/83/83
f 6/6/6 84/84/84 83/83/83
f 6/6/6 8/8/8 84/84/84
f 8/8/8 85/85/85 84/84/84
f 8/8/8 11/11/11 85/85/85
f 11/11/11 86/86/86 85/85/85
f 11/11/11 14/14/14 86/86/86
f 14/14/14 87/87/87 86/86/86
f 14/14/14 17/17/17 87/87/87
f 82/82/82 83/83/83 88/88/88
f 82/82/82 88/88/88 89/89/89
f 81/81/81 82/82/82 89/89/89
f 83/83/83 84/84/84 90/90/90
f 83/83/83 90/90/90 88/88/88
f 84/84/84 85/85/85 91/91/91
f 84/84/84 91/91/91 90/90/90
f 85/85/85 86/86/86 92/92/92
f 85/85/85 92/92/92 91/91/91
f 86/86/86 87/87/87 93/93/93
f 86/86/86 93/93/93 92/92/92
f 89/89/89 88/88/88 94/94/94
f 89/89/89 94/94/94 95/95/95
f 88/88/88 90/90/90 96/96/96
f 88/88/88 96/96/96 94/94/94
f 90/90/90 91/91/91 97/97/97
f 90/90/90 97/97/97 96/96/96
f 91/91/91 92/92/92 98/98/98
f 91/91/91 98/98/98 97/97/97
f 92/92/92 93/93/93 99/99/99
f 92/92/92 99/99/99 98/98/98
f 81/81/81 89/89/89 100/100/100
f 80/80/80 81/81/81 100/100/100
f 80/80/80 100/100/100 101/101/101
f 79/79/79 80/80/80 101/101/101
f 79/79/79 101/101/101 102/102/102
f 78/78/78 79/79/79 102/102/102
f 78/78/78 102/102/102 103/103/103
f 77/77/77 78/78/78 103/103/103
f 77/77/77 103/103/103 104/104/104
f 76/76/76 77/77/77 104/104/104
f 76/76/76 104/104/104 105/105/105
f 75/75/75 76/76/76 105/105/105
f 75/75/75 105/105/105 106/106/106
f 74/74/74 75/75/75 106/106/106
f 74/74/74 106/106/106 107/107/107
f 73/73/73 74/74/74 107/107/107
f 73/73/73 107/107/107 108/108/108
f 72/72/72 73/73/73 108/108/108
f 72/72/72 108/108/108 109/109/109
f 71/71/71 72/72/72 109/109/109
f 71/71/71 109/109/109 110/110/110
f 70/70/70 71/71/71 110/110/110
f 70/70/70 110/110/110 111/111/111
f 69/69/69 70/70/70 111/111/111
f 69/69/69 111/111/111 112/112/112
f 67/67/67 69/69/69 112/112/112
f 67/67/67 112/112/112 113/113/113
f 68/68/68 67/67/67 113/113/113
f 68/68/68 113/113/113 114/114/114
f 114/114/114 113/113/113 115/115/115
f 114/114/114 115/115/115 116/116/116
f 113/113/113 112/112/112 117/117/117
f 113/113/113 117/117/117 115/115/115
f 112/112/112 111/111/111 118/118/118
f 112/112/112 118/118/118 117/117/117
f 111/111/111 110/110/110 119/119/119
f 111/111/111 119/119/119 118/118/118
f 110/110/110 109/109/109 120/120/120
f 110/110/110 121/121/121 119/119/119
f 109/109/109 108/108/108 122/122/122
f 109/109/109 122/122/122 123/123/123
f 108/108/108 124/124/124 122/122/122
f 108/108/108 107/107/107 124/124/124
f 107/107/107 125/125/125 124/124/124
f 107/107/107 106/106/106 125/125/125
f 106/106/106 126/126/126 125/125/125
f 106/106/106 105/105/105 126/126/126
f 105/105/105 127/127/127 126/126/126
f 105/105/105 104/104/104 127/127/127
f 104/104/104 128/128/128 127/127/127
f 104/104/104 103/103/103 128/128/128
f 103/103/103 129/129/129 128/128/128
f 103/103/103 102/102/102 129/129/129
f 102/102/102 130/130/130 129/129/129
f 102/102/102 101/101/101 130/130/130
f 101/101/101 131/131/131 130/130/130
f 101/101/101 100/100/100 131/131/131
f 100/100/100 132/132/132 131/131/131
f 100/100/100 89/89/89 133/133/133
f 134/134/134 135/135/135 9/9/9
f 136/136/136 137/137/137 12/12/12
f 138/138/138 139/139/139 15/15/15
f 140/140/140 141/141/141 18/18/18
f 142/142/142 143/143/143 57/57/57
f 144/144/144 145/145/145 54/54/54
f 146/146/146 147/147/147 51/51/51
f 148/148/148 149/149/149 48/48/48
f 150/150/150 151/151/151 45/45/45
f 152/152/152 153/153/153 42/42/42
f 154/154/154 155/155/155 39/39/39
f 156/156/156 157/157/157 36/36/36
f 158/158/158 160/160/160 159/159/159
f 161/161/161 162/162/162 26/26/26
f 163/163/163 164/164/164 23/23/23
f 165/165/165 166/166/166 20/20/20
f 167/167/167 168/168/168 5/5/5

o gun_up_1_gzqgj
v 0.0168345085 0.250352631 -0.146903813
v 0.0192747674 0.461221305 -0.0537141491
v 0.0192510969 0.325516457 -0.0546180757
v 0.0625309533 0.461221305 -0.0548468532
v 0.0600906945 0.250352631 -0.14803651
v 0.0625072828 0.325516457 -0.0557507761
v 0.0388911477 0.540295731 -0.131104577
v 0.0625309533 0.461221305 -0.0548468532
v 0.0192747674 0.461221305 -0.0537141491
v 0.0600906945 0.250352631 -0.14803651
v 0.0365965291 0.290806533 -0.218732522
v 0.0168345085 0.250352631 -0.146903813
v 0.0168345085 0.250352631 -0.146903813
v 0.0388911477 0.540295731 -0.131104577
v 0.0192747674 0.461221305 -0.0537141491
v 0.0365965291 0.290806533 -0.218732522
v 0.0600906945 0.250352631 -0.14803651
v 0.0388911477 0.540295731 -0.131104577
v 0.0365965291 0.290806533 -0.218732522
v 0.0625309533 0.461221305 -0.0548468532
v 0.0422189383 1.91166649 -0.00402148733
v 0.0205429977 0.484098993 -0.00528243451
v 0.041214127 1.86231385 -0.04239362
v 0.0399947053 0.814943687 -0.0889614196
v 0.0390609576 0.606566248 -0.124619772
v 0.0637991837 0.484098993 -0.0064151386
v 0.0390609576 0.606566248 -0.124619772
v 0.0205429977 0.484098993 -0.00528243451
v 0.0637991837 0.484098993 -0.0064151386
v 0.0637991837 0.484098993 -0.0064151386
v 0.0205429977 0.484098993 -0.00528243451
v 0.0422189383 1.91166649 -0.00402148733
v 0.0205429977 0.484098993 -0.00528243451
v 0.0390609576 0.606566248 -0.124619772
v 0.0399947053 0.814943687 -0.0889614196
v 0.041214127 1.86231385 -0.04239362
v 0.0399947053 0.814943687 -0.0889614196
v 0.0637991837 0.484098993 -0.0064151386
v 0.0422189383 1.91166649 -0.00402148733
v 0.041214127 1.86231385 -0.04239362
v 0.0637991837 0.484098993 -0.0064151386
v 0.0205429977 0.484098993 -0.00528243451
v 0.0399947053 0.814943687 -0.0889614196
v 0.041214127 1.86231385 -0.04239362
v 0.044012986 0.780213975 0.0644904842
v 0.0450004264 0.596282005 0.102199251
v 0.0212607159 0.478615218 0.0221261822
v 0.0428888089 1.26277219 0.0215598339
v 0.0645169056 0.478615218 0.0209934856
v 0.044012986 0.780213975 0.0644904842
v 0.0428888089 1.26277219 0.0215598339
v 0.0212607159 0.478615218 0.0221261822
v 0.0645169056 0.478615218 0.0209934856
v 0.0645169056 0.478615218 0.0209934856
v 0.0212607159 0.478615218 0.0221261822
v 0.0450004264 0.596282005 0.102199251
v 0.0428888089 1.26277219 0.0215598339
v 0.044012986 0.780213975 0.0644904842
v 0.0212607159 0.478615218 0.0221261822
v 0.0645169056 0.478615218 0.0209934856
v 0.0450004264 0.596282005 0.102199251
v 0.044012986 0.780213975 0.0644904842
v 0.0726872719 0.250352631 -0.148366377
v 0.00306397292 0.250352631 -0.14654322
v 0.0369661002 0.269348448 -0.182188057
v 0.00306397292 0.250352631 -0.14654322
v 0.0751038602 0.325516457 -0.0560806281
v 0.00548056128 0.325516457 -0.0542574789
v 0.0726872719 0.250352631 -0.148366377
v 0.00548056128 0.325516457 -0.0542574789
v 0.0751275307 0.461221305 -0.0551767053
v 0.00550423178 0.461221305 -0.053353556
v 0.0751038602 0.325516457 -0.0560806281
v 0.0751275307 0.461221305 -0.0551767053
v 0.00453807029 0.499287833 -0.0902496545
v 0.00550423178 0.461221305 -0.053353556
v 0.0741613692 0.499287833 -0.0920728112
v 0.0389730296 0.514005081 -0.105546491
v 0.00501948955 0.557526179 -0.0718651121
v 0.0394544526 0.572243457 -0.0871616577
v 0.0746427885 0.557526179 -0.0736882614
v 0.0764431691 0.484292172 -0.00493428385
v 0.00681987393 0.484292172 -0.00311113459
v 0.00681987393 0.484292172 -0.00311113459
v 0.0764431691 0.456882147 -0.00493428385
v 0.00681987393 0.456882147 -0.00311113459
v 0.0764431691 0.484292172 -0.00493428385
v 0.00681987393 0.456882147 -0.00311113459
v 0.0760689637 0.438750835 -0.0192248559
v 0.00644566479 0.438750835 -0.0174017067
v 0.0764431691 0.456882147 -0.00493428385
v 0.00681987393 0.293701471 -0.00311113459
v 0.0737641117 0.209918219 -0.107243561
v 0.00414081278 0.209918219 -0.105420412
v 0.0764431691 0.293701471 -0.00493428385
v 0.0737641117 0.209918219 -0.107243561
v 0.00293065595 0.0486776731 -0.151634365
v 0.00414081278 0.209918219 -0.105420412
v 0.0725580937 0.0492285392 -0.153299629
v 0.0369906909 -0.0514673488 -0.181248956
v 0.0369661002 0.269348448 -0.182188057
v 0.0725580937 0.0492285392 -0.153299629
v 0.0726872719 0.250352631 -0.148366377
v 0.0369906909 -0.0514673488 -0.181248956
v 0.00644566479 0.438750835 -0.0174017067
v 0.0760689637 0.345817646 -0.0192248559
v 0.00644566479 0.345817646 -0.0174017067
v 0.0760689637 0.438750835 -0.0192248559
v 0.0394544526 0.572243457 -0.0871616577
v 0.0741613692 0.499287833 -0.0920728112
v 0.0746427885 0.557526179 -0.0736882614
v 0.0389730296 0.514005081 -0.105546491
v 0.00644566479 0.345817646 -0.0174017067
v 0.0764431691 0.328358465 -0.00493428385
v 0.00681987393 0.328358465 -0.00311113459
v 0.0760689637 0.345817646 -0.0192248559
v 0.00681987393 0.328358465 -0.00311113459
v 0.0764431691 0.293701471 -0.00493428385
v 0.00681987393 0.293701471 -0.00311113459
v 0.0764431691 0.328358465 -0.00493428385
v 0.0764431691 0.456882147 -0.00493428385
v 0.0751275307 0.461221305 -0.0551767053
v 0.0760689637 0.438750835 -0.0192248559
v 0.0764431691 0.484292172 -0.00493428385
v 0.0760689637 0.345817646 -0.0192248559
v 0.0751038602 0.325516457 -0.0560806281
v 0.0764431691 0.293701471 -0.00493428385
v 0.0737641117 0.209918219 -0.107243561
v 0.0726872719 0.250352631 -0.148366377
v 0.0764431691 0.328358465 -0.00493428385
v 0.0746427885 0.557526179 -0.0736882614
v 0.0741613692 0.499287833 -0.0920728112
v 0.0725580937 0.0492285392 -0.153299629
v 0.00501948955 0.557526179 -0.0718651121
v 0.00550423178 0.461221305 -0.053353556
v 0.00453807029 0.499287833 -0.0902496545
v 0.00681987393 0.484292172 -0.00311113459
v 0.00644566479 0.438750835 -0.0174017067
v 0.00644566479 0.345817646 -0.0174017067
v 0.00548056128 0.325516457 -0.0542574789
v 0.00681987393 0.293701471 -0.00311113459
v 0.00681987393 0.328358465 -0.00311113459
v 0.00414081278 0.209918219 -0.105420412
v 0.00306397292 0.250352631 -0.14654322
v 0.00293065595 0.0486776731 -0.151634365
v 0.00681987393 0.456882147 -0.00311113459
v 0.00453807029 0.499287833 -0.0902496545
v 0.0394544526 0.572243457 -0.0871616577
v 0.00501948955 0.557526179 -0.0718651121
v 0.0389730296 0.514005081 -0.105546491
v 0.0369906909 -0.0514673488 -0.181248956
v 0.00306397292 0.250352631 -0.14654322
v 0.00293065595 0.0486776731 -0.151634365
v 0.0369661002 0.269348448 -0.182188057
v 0.00814270961 0.254705319 0.0474059077
v 0.0436328835 0.284860852 0.0724060391
v 0.0439504123 0.267745739 0.0845320652
v 0.0446729063 0.386256916 0.112122901
v 0.00814270961 0.254705319 0.0474059077
v 0.00942439201 0.39097498 0.0963513658
v 0.0436328835 0.284860852 0.0724060391
v 0.00840102869 0.538035106 0.0572706831
v 0.0446729063 0.386256916 0.112122901
v 0.00942439201 0.39097498 0.0963513658
v 0.0436024329 0.559872336 0.0712432421
v 0.0446729063 0.386256916 0.112122901
v 0.0777660048 0.254705319 0.045582751
v 0.0436328835 0.284860852 0.0724060391
v 0.079047691 0.39097498 0.0945282091
v 0.0780243314 0.538035106 0.0554475264
v 0.0436024329 0.559872336 0.0712432421
v 0.00840102869 0.538035106 0.0572706831
v 0.0771974063 0.49323835 0.0238688354
v 0.0075741111 0.49323835 0.0256919921
v 0.0780243314 0.538035106 0.0554475264
v 0.0446729063 0.386256916 0.112122901
v 0.0436024329 0.559872336 0.0712432421
v 0.079047691 0.39097498 0.0945282091
v 0.00757431227 0.284860852 0.0256997184
v 0.0777660048 0.254705319 0.045582751
v 0.0771976149 0.284860852 0.0238765617
v 0.00814270961 0.254705319 0.0474059077
v 0.0435415356 0.22470732 0.0689176332
v 0.0777660048 0.254705319 0.045582751
v 0.0435415356 0.22470732 0.0689176332
v 0.0439504123 0.267745739 0.0845320652
v 0.0435415356 0.22470732 0.0689176332
v 0.0436328835 0.284860852 0.0724060391
v 0.0439504123 0.267745739 0.0845320652
v 0.00801429885 0.347787519 0.0425021154
v 0.0771976149 0.328674191 0.0238765617
v 0.0776376015 0.347787519 0.0406789587
v 0.00757431227 0.328674191 0.0256997184
v 0.00757431227 0.328674191 0.0256997184
v 0.0771976149 0.284860852 0.0238765617
v 0.0771976149 0.328674191 0.0238765617
v 0.00757431227 0.284860852 0.0256997184
v 0.00801429885 0.438081803 0.0425021154
v 0.0776376015 0.347787519 0.0406789587
v 0.0776376015 0.438081803 0.0406789587
v 0.00801429885 0.347787519 0.0425021154
v 0.0075741111 0.49323835 0.0256919921
v 0.0771976149 0.456206558 0.0238765617
v 0.0771974063 0.49323835 0.0238688354
v 0.00757431227 0.456206558 0.0256997184
v 0.00757431227 0.456206558 0.0256997184
v 0.0776376015 0.438081803 0.0406789587
v 0.0771976149 0.456206558 0.0238765617
v 0.00801429885 0.438081803 0.0425021154
v 0.0771976149 0.284860852 0.0238765617
v 0.0776376015 0.347787519 0.0406789587
v 0.0771976149 0.328674191 0.0238765617
v 0.0777660048 0.254705319 0.045582751
v 0.0776376015 0.438081803 0.0406789587
v 0.079047691 0.39097498 0.0945282091
v 0.0780243314 0.538035106 0.0554475264
v 0.0771976149 0.456206558 0.0238765617
v 0.0771974063 0.49323835 0.0238688354
v 0.00757431227 0.284860852 0.0256997184
v 0.00801429885 0.347787519 0.0425021154
v 0.00814270961 0.254705319 0.0474059077
v 0.00757431227 0.328674191 0.0256997184
v 0.00801429885 0.438081803 0.0425021154
v 0.00942439201 0.39097498 0.0963513658
v 0.00840102869 0.538035106 0.0572706831
v 0.00757431227 0.456206558 0.0256997184
v 0.0075741111 0.49323835 0.0256919921
v 0.00814270961 0.254705319 0.0474059077
v 0.0439504123 0.267745739 0.0845320652
v 0.0435415356 0.22470732 0.0689176332
v 0.0777660048 0.254705319 0.045582751
v 0.0439504123 0.267745739 0.0845320652
v 0.0436328835 0.284860852 0.0724060391
v 0.0231188162 0.25378699 0.0604759669
v 0.0176134481 0.248759697 0.0107943878
v 0.0181435681 0.296284259 0.0310388406
v 0.0182943268 0.173194612 0.0313085516
v 0.0170555598 0.248759697 -0.0105104612
v 0.018751595 0.219721989 -0.106301376
v 0.0170555598 0.297656059 -0.0105104612
v 0.016706027 0.173194612 -0.0293461529
v 0.0182943268 0.173194612 0.0313085516
v 0.0176134481 0.248759697 0.0107943878
v 0.0634944624 0.25378699 0.0594186999
v 0.0663921571 0.248759697 0.00951707545
v 0.0667858309 0.173194612 0.0300387494
v 0.0669222734 0.296284259 0.0297615282
v 0.0658342651 0.248759697 -0.0117877735
v 0.059127245 0.219721989 -0.107358643
v 0.065197531 0.173194612 -0.0306159476
v 0.0658342651 0.297656059 -0.0117877735
v 0.0667858309 0.173194612 0.0300387494
v 0.0663921571 0.248759697 0.00951707545
v 0.0231188162 0.25378699 0.0604759669
v 0.0667858309 0.173194612 0.0300387494
v 0.0182943268 0.173194612 0.0313085516
v 0.0231188162 0.25378699 0.0604759669
v 0.0634944624 0.25378699 0.0594186999
v 0.0176134481 0.248759697 0.0107943878
v 0.0669222734 0.296284259 0.0297615282
v 0.0181435681 0.296284259 0.0310388406
v 0.0176134481 0.248759697 0.0107943878
v 0.0663921571 0.248759697 0.00951707545
v 0.016706027 0.173194612 -0.0293461529
v 0.059127245 0.219721989 -0.107358643
v 0.018751595 0.219721989 -0.106301376
v 0.065197531 0.173194612 -0.0306159476
v 0.0170555598 0.297656059 -0.0105104612
v 0.0658342651 0.248759697 -0.0117877735
v 0.0170555598 0.248759697 -0.0105104612
v 0.0658342651 0.297656059 -0.0117877735
v 0.0182943268 0.173194612 0.0313085516
v 0.065197531 0.173194612 -0.0306159476
v 0.016706027 0.173194612 -0.0293461529
v 0.0182943268 0.173194612 0.0313085516
v 0.0667858309 0.173194612 0.0300387494
v 0.0170555598 0.248759697 -0.0105104612
v 0.0663921571 0.248759697 0.00951707545
v 0.0176134481 0.248759697 0.0107943878
v 0.0658342651 0.248759697 -0.0117877735
v 0.0641677043 0.204758067 0.037774179
v 0.0432577095 0.213816183 0.0580788399
v 0.0429204515 0.225062385 0.0451993591
v 0.058035422 0.199693819 0.0529144114
v 0.0425609573 0.184453212 0.0314708773
v 0.058035422 0.199693819 0.0529144114
v 0.0641677043 0.204758067 0.037774179
v 0.0430076792 0.185571753 0.0485304385
v 0.0213137082 0.204758067 0.0388963554
v 0.0430076792 0.185571753 0.0485304385
v 0.0425609573 0.184453212 0.0314708773
v 0.0282299666 0.199693819 0.0536948894
v 0.0429204515 0.225062385 0.0451993591
v 0.0282299666 0.199693819 0.0536948894
v 0.0213137082 0.204758067 0.0388963554
v 0.0432577095 0.213816183 0.0580788399
v 0.0432577095 0.213816183 0.0580788399
v 0.0430076792 0.185571753 0.0485304385
v 0.0282299666 0.199693819 0.0536948894
v 0.058035422 0.199693819 0.0529144114
v 0.0426820031 0.0198197325 0.0202210319
v 0.0196565724 0.178844357 -0.00104851627
v 0.0426820031 0.178844357 0.0202210319
v 0.0124583653 0.0198197325 -0.000860024072
v -0.00581404951 -0.0247784207 -0.000381544156
v 0.0426820031 0.0198197325 0.0202210319
v 0.0427216216 -0.024797077 0.0376064069
v 0.0124583653 0.0198197325 -0.000860024072
v 0.0252798981 -0.091680568 0.0380631348
v 0.0206720195 -0.230266704 0.0207971032
v -0.00581404951 -0.115433253 -0.000381544156
v 0.0892026386 -0.115452505 -0.0028696427
v 0.0641936696 -0.230266704 0.0196577308
v 0.0609940401 -0.091680568 0.0371279232
v 0.0415372922 0.0198197325 -0.0234936876
v 0.0196565724 0.178844357 -0.00104851627
v 0.0124583653 0.0198197325 -0.000860024072
v 0.0415372922 0.178844357 -0.0234936876
v 0.0406669675 -0.024797077 -0.0408575975
v 0.023225244 -0.091680568 -0.0404008695
v 0.058939386 -0.091680568 -0.0413360774
v 0.023225244 -0.091680568 -0.0404008695
v -0.00581404951 -0.115433253 -0.000381544156
v 0.019527316 -0.230266704 -0.0229173369
v 0.0892026386 -0.115452505 -0.0028696427
v 0.058939386 -0.091680568 -0.0413360774
v 0.0630489624 -0.230266704 -0.0240569905
v 0.0252798981 -0.091680568 0.0380631348
v 0.058939386 -0.091680568 -0.0413360774
v 0.023225244 -0.091680568 -0.0404008695
v 0.0609940401 -0.091680568 0.0371279232
v -0.00581404951 -0.115433253 -0.000381544156
v 0.0206720195 -0.230266704 0.0207971032
v 0.019527316 -0.230266704 -0.0229173369
v 0.0252798981 -0.091680568 0.0380631348
v 0.019527316 -0.230266704 -0.0229173369
v 0.0206720195 -0.230266704 0.0207971032
v 0.023225244 -0.091680568 -0.0404008695
v 0.0641936696 -0.230266704 0.0196577308
v 0.058939386 -0.091680568 -0.0413360774
v 0.0609940401 -0.091680568 0.0371279232
v 0.0630489624 -0.230266704 -0.0240569905
v 0.0630489624 -0.230266704 -0.0240569905
v 0.0641936696 -0.230266704 0.0196577308
v 0.0892026386 -0.115452505 -0.0028696427
v 0.0892026386 -0.024815614 -0.0028696427
v 0.0609940401 -0.091680568 0.0371279232
v 0.0427216216 -0.024797077 0.0376064069
v -0.00581404951 -0.0247784207 -0.000381544156
v 0.0415372922 0.0198197325 -0.0234936876
v 0.0124583653 0.0198197325 -0.000860024072
v 0.0406669675 -0.024797077 -0.0408575975
v 0.0427216216 -0.024797077 0.0376064069
v 0.0717609188 0.0198197325 -0.00241291475
v 0.0892026386 -0.024815614 -0.0028696427
v 0.0426820031 0.0198197325 0.0202210319
v 0.0717609188 0.0198197325 -0.00241291475
v 0.0426820031 0.178844357 0.0202210319
v 0.0645627117 0.178844357 -0.00222442255
v 0.0426820031 0.0198197325 0.0202210319
v 0.0645627117 0.178844357 -0.00222442255
v 0.0415372922 0.0198197325 -0.0234936876
v 0.0717609188 0.0198197325 -0.00241291475
v 0.0415372922 0.178844357 -0.0234936876
v 0.0406669675 -0.024797077 -0.0408575975
v 0.0717609188 0.0198197325 -0.00241291475
v 0.0415372922 0.0198197325 -0.0234936876
v 0.0892026386 -0.024815614 -0.0028696427
v -0.00581404951 -0.0247784207 -0.000381544156
v 0.023225244 -0.091680568 -0.0404008695
v 0.0406669675 -0.024797077 -0.0408575975
v 0.0609940401 -0.091680568 0.0371279232
v 0.0252798981 -0.091680568 0.0380631348
v 0.0427216216 -0.024797077 0.0376064069
v 0.0252798981 -0.091680568 0.0380631348
v -0.00581404951 -0.0247784207 -0.000381544156
v 0.0427216216 -0.024797077 0.0376064069
v 0.058939386 -0.091680568 -0.0413360774
v 0.0892026386 -0.024815614 -0.0028696427
v 0.0406669675 -0.024797077 -0.0408575975
v -0.00581404951 -0.0247784207 -0.000381544156
v -0.00581404951 -0.115433253 -0.000381544156
v 0.023225244 -0.091680568 -0.0404008695
v 0.0252798981 -0.091680568 0.0380631348
v -0.00581404951 -0.115433253 -0.000381544156
v -0.00581404951 -0.0247784207 -0.000381544156
v 0.0892026386 -0.024815614 -0.0028696427
v 0.0892026386 -0.115452505 -0.0028696427
v 0.0609940401 -0.091680568 0.0371279232
v 0.058939386 -0.091680568 -0.0413360774
v 0.0892026386 -0.115452505 -0.0028696427
v 0.0892026386 -0.024815614 -0.0028696427
v 0.0648067704 -0.088461143 0.0199402345
v 0.0186068228 -0.132607434 0.0211500222
v 0.0234336628 -0.0857017465 0.0210236232
v 0.0648067704 -0.132607434 0.0199402345
v 0.0174464843 -0.132607434 -0.0231614029
v 0.0414714626 -0.153301208 -0.00161975962
v 0.0636464319 -0.132607434 -0.0243711907
v 0.0174464843 -0.132607434 -0.0231614029
v 0.0186068228 -0.132607434 0.0211500222
v 0.0414714626 -0.153301208 -0.00161975962
v 0.0414714626 -0.153301208 -0.00161975962
v 0.0648067704 -0.132607434 0.0199402345
v 0.0636464319 -0.132607434 -0.0243711907
v 0.0186068228 -0.132607434 0.0211500222
v 0.0648067704 -0.132607434 0.0199402345
v 0.0414714626 -0.153301208 -0.00161975962
v 0.0636464319 -0.088461143 -0.0243711907
v 0.0174464843 -0.132607434 -0.0231614029
v 0.0636464319 -0.132607434 -0.0243711907
v 0.022273328 -0.0857020445 -0.0232877983
v 0.0253741181 0.307127891 0.0147045561
v 0.0256847887 0.361159312 0.0265685602
v 0.0261352471 0.307127891 0.0437708447
v 0.0253741181 0.347174843 0.0147045561
v 0.0256847887 0.410153307 0.0265685602
v 0.0261352471 0.469475861 0.0437708447
v 0.025369767 0.425274913 0.014538356
v 0.025369767 0.469475861 0.014538356
v 0.0588467604 0.307127891 0.0138280401
v 0.0591574347 0.361159312 0.0256920443
v 0.0588467604 0.347174843 0.0138280401
v 0.0596078894 0.307127891 0.0428943287
v 0.0596078894 0.469475861 0.0428943287
v 0.0591574347 0.410153307 0.0256920443
v 0.0588424093 0.425274913 0.0136618401
v 0.0588424093 0.469475861 0.0136618401
v 0.0253741181 0.347174843 0.0147045561
v 0.0591574347 0.361159312 0.0256920443
v 0.0256847887 0.361159312 0.0265685602
v 0.0588467604 0.347174843 0.0138280401
v 0.0253741181 0.307127891 0.0147045561
v 0.0588467604 0.347174843 0.0138280401
v 0.0253741181 0.347174843 0.0147045561
v 0.0588467604 0.307127891 0.0138280401
v 0.0261352471 0.307127891 0.0437708447
v 0.0588467604 0.307127891 0.0138280401
v 0.0253741181 0.307127891 0.0147045561
v 0.0596078894 0.307127891 0.0428943287
v 0.025369767 0.469475861 0.014538356
v 0.0596078894 0.469475861 0.0428943287
v 0.0261352471 0.469475861 0.0437708447
v 0.0588424093 0.469475861 0.0136618401
v 0.025369767 0.425274913 0.014538356
v 0.0588424093 0.469475861 0.0136618401
v 0.025369767 0.469475861 0.014538356
v 0.0588424093 0.425274913 0.0136618401
v 0.0256847887 0.410153307 0.0265685602
v 0.0588424093 0.425274913 0.0136618401
v 0.025369767 0.425274913 0.014538356
v 0.0591574347 0.410153307 0.0256920443
v 0.0256847887 0.361159312 0.0265685602
v 0.0591574347 0.410153307 0.0256920443
v 0.0256847887 0.410153307 0.0265685602
v 0.0591574347 0.361159312 0.0256920443
v 0.0586403421 0.307127891 0.00594531626
v 0.0583296752 0.361159312 -0.00591868044
v 0.0578792206 0.307127891 -0.0231206948
v 0.0586403421 0.347174843 0.00594531626
v 0.0583296752 0.410153307 -0.00591868044
v 0.0578792206 0.469475861 -0.0231206948
v 0.0586446932 0.425274913 0.0061115126
v 0.0586446932 0.469475861 0.0061115126
v 0.0251676998 0.307127891 0.00682182474
v 0.0248570329 0.361159312 -0.00504217196
v 0.0251676998 0.347174843 0.00682182474
v 0.0244065783 0.307127891 -0.0222441826
v 0.0244065783 0.469475861 -0.0222441826
v 0.0248570329 0.410153307 -0.00504217196
v 0.0251720546 0.425274913 0.00698802108
v 0.0251720546 0.469475861 0.00698802108
v 0.0586403421 0.347174843 0.00594531626
v 0.0248570329 0.361159312 -0.00504217196
v 0.0583296752 0.361159312 -0.00591868044
v 0.0251676998 0.347174843 0.00682182474
v 0.0586403421 0.307127891 0.00594531626
v 0.0251676998 0.347174843 0.00682182474
v 0.0586403421 0.347174843 0.00594531626
v 0.0251676998 0.307127891 0.00682182474
v 0.0578792206 0.307127891 -0.0231206948
v 0.0251676998 0.307127891 0.00682182474
v 0.0586403421 0.307127891 0.00594531626
v 0.0244065783 0.307127891 -0.0222441826
v 0.0586446932 0.469475861 0.0061115126
v 0.0244065783 0.469475861 -0.0222441826
v 0.0578792206 0.469475861 -0.0231206948
v 0.0251720546 0.469475861 0.00698802108
v 0.0586446932 0.425274913 0.0061115126
v 0.0251720546 0.469475861 0.00698802108
v 0.0586446932 0.469475861 0.0061115126
v 0.0251720546 0.425274913 0.00698802108
v 0.0583296752 0.410153307 -0.00591868044
v 0.0251720546 0.425274913 0.00698802108
v 0.0586446932 0.425274913 0.0061115126
v 0.0248570329 0.410153307 -0.00504217196
v 0.0583296752 0.361159312 -0.00591868044
v 0.0248570329 0.410153307 -0.00504217196
v 0.0583296752 0.410153307 -0.00591868044
v 0.0248570329 0.361159312 -0.00504217196
vt 0.164770007 0.201664001
vt 0.287265003 0.141268
vt 0.208433002 0.141854003
vt 0.287265003 0.141268
vt 0.164770007 0.201664001
vt 0.208433002 0.141854003
vt 0.333198994 0.191057995
vt 0.287265003 0.141268
vt 0.287265003 0.141268
vt 0.164770007 0.201664001
vt 0.188270003 0.247849002
vt 0.164770007 0.201664001
vt 0.164770007 0.201664001
vt 0.333198994 0.191057995
vt 0.287265003 0.141268
vt 0.188270003 0.247849002
vt 0.164770007 0.201664001
vt 0.333198994 0.191057995
vt 0.188270003 0.247849002
vt 0.287265003 0.141268
vt 0.836369991 0.0040839999
vt 0.00708999997 0.00526800007
vt 0.807700992 0.0289530009
vt 0.199278995 0.0591330007
vt 0.0782319978 0.082243003
vt 0.00708999997 0.00526800007
vt 0.0782319978 0.082243003
vt 0.00708999997 0.00526800007
vt 0.00708999997 0.00526800007
vt 0.00708999997 0.00526800007
vt 0.00708999997 0.00526800007
vt 0.836369991 0.0040839999
vt 0.00708999997 0.00526800007
vt 0.0782319978 0.082243003
vt 0.199278995 0.0591330007
vt 0.807700992 0.0289530009
vt 0.199278995 0.0591330007
vt 0.00708999997 0.00526800007
vt 0.836369991 0.0040839999
vt 0.807700992 0.0289530009
vt 0.00708999997 0.00526800007
vt 0.00708999997 0.00526800007
vt 0.199278995 0.0591330007
vt 0.807700992 0.0289530009
vt 0.184808999 0.118980996
vt 0.0789429992 0.147367999
vt 0.00869700033 0.0976779982
vt 0.433777988 0.0815349966
vt 0.00869700033 0.0976779982
vt 0.184808999 0.118980996
vt 0.433777988 0.0815349966
vt 0.00869700033 0.0976779982
vt 0.00869700033 0.0976779982
vt 0.00869700033 0.0976779982
vt 0.00869700033 0.0976779982
vt 0.0789429992 0.147367999
vt 0.433777988 0.0815349966
vt 0.184808999 0.118980996
vt 0.00869700033 0.0976779982
vt 0.00869700033 0.0976779982
vt 0.0789429992 0.147367999
vt 0.184808999 0.118980996
vt 0.619323015 0.452490985
vt 0.58573103 0.436881006
vt 0.609274983 0.4921
vt 0.58573103 0.436881006
vt 0.67888999 0.355421007
vt 0.67888999 0.320333004
vt 0.619323015 0.452490985
vt 0.67888999 0.320333004
vt 0.847084999 0.354279995
vt 0.847084999 0.319191992
vt 0.67888999 0.355421007
vt 0.847084999 0.354279995
vt 0.894264996 0.365788013
vt 0.847084999 0.319191992
vt 0.881296992 0.389418006
vt 0.922303975 0.395309001
vt 0.966446996 0.342570007
vt 0.994485974 0.372090995
vt 0.966446996 0.31683901
vt 0.875679016 0.230009004
vt 0.875680029 0.255739987
vt 0.875680029 0.255739987
vt 0.841706991 0.230009004
vt 0.841706991 0.255739987
vt 0.875679016 0.230009004
vt 0.841706991 0.255739987
vt 0.819235027 0.248056993
vt 0.819235027 0.273788005
vt 0.841706991 0.230009004
vt 0.639458001 0.255739987
vt 0.535615981 0.359216005
vt 0.535615981 0.384947002
vt 0.639458001 0.230009004
vt 0.535615981 0.359216005
vt 0.335772008 0.443311006
vt 0.535615981 0.384947002
vt 0.336454004 0.417380005
vt 0.211649999 0.490913987
vt 0.609274983 0.4921
vt 0.336454004 0.443111986
vt 0.58573103 0.436881006
vt 0.211649999 0.490913987
vt 0.819235027 0.273788005
vt 0.704051971 0.248056993
vt 0.704051971 0.273788005
vt 0.819235027 0.248056993
vt 0.994485974 0.372090995
vt 0.894264996 0.365788013
vt 0.966446996 0.342570007
vt 0.922303975 0.395309001
vt 0.704051971 0.273788005
vt 0.682412982 0.230009004
vt 0.682412982 0.255739987
vt 0.704051971 0.248056993
vt 0.682412982 0.255739987
vt 0.639458001 0.230009004
vt 0.639458001 0.255739987
vt 0.682412982 0.230009004
vt 0.841706991 0.255739987
vt 0.847084999 0.319191992
vt 0.819235027 0.273788005
vt 0.875680029 0.255739987
vt 0.704051971 0.273788005
vt 0.67888999 0.320333004
vt 0.639458001 0.255739987
vt 0.535615981 0.384947002
vt 0.58573103 0.436881006
vt 0.682412982 0.255739987
vt 0.966446996 0.342570007
vt 0.894264996 0.365788013
vt 0.336454004 0.443111986
vt 0.966446996 0.342570007
vt 0.847084999 0.319191992
vt 0.894264996 0.365788013
vt 0.875680029 0.255739987
vt 0.819235027 0.273788005
vt 0.704051971 0.273788005
vt 0.67888999 0.320333004
vt 0.639458001 0.255739987
vt 0.682412982 0.255739987
vt 0.535615981 0.384947002
vt 0.58573103 0.436881006
vt 0.335772008 0.443311006
vt 0.841706991 0.255739987
vt 0.894264996 0.365788013
vt 0.994485974 0.372090995
vt 0.966446996 0.342570007
vt 0.922303975 0.395309001
vt 0.211649999 0.490913987
vt 0.58573103 0.436881006
vt 0.335772008 0.443311006
vt 0.609274983 0.4921
vt 0.605742991 0.156083003
vt 0.643118978 0.109072
vt 0.621905982 0.0937580019
vt 0.768790007 0.0589129999
vt 0.605742991 0.156083003
vt 0.774637997 0.0942699984
vt 0.643118978 0.109072
vt 0.956906974 0.143625006
vt 0.768790007 0.0589129999
vt 0.774637997 0.0942699984
vt 0.983972013 0.110541001
vt 0.768790007 0.0589129999
vt 0.605742991 0.156083003
vt 0.643118978 0.109072
vt 0.774637997 0.0942699984
vt 0.96765703 0.167952001
vt 0.983972013 0.110541001
vt 0.956906974 0.143625006
vt 0.901385009 0.207833007
vt 0.901385009 0.183505997
vt 0.956906974 0.143625006
vt 0.768790007 0.0589129999
vt 0.983972013 0.110541001
vt 0.774637997 0.0942699984
vt 0.643118978 0.183495998
vt 0.594992995 0.180409998
vt 0.643118978 0.207822993
vt 0.605742991 0.156083003
vt 0.568562984 0.113476999
vt 0.605742991 0.156083003
vt 0.568562984 0.113476999
vt 0.621905982 0.0937580019
vt 0.621905982 0.0937580019
vt 0.643118978 0.109072
vt 0.621905982 0.0937580019
vt 0.721111 0.162276998
vt 0.697421014 0.207822993
vt 0.721111 0.186602995
vt 0.697421014 0.183495998
vt 0.697421014 0.183495998
vt 0.643118978 0.207822993
vt 0.697421014 0.207822993
vt 0.643118978 0.183495998
vt 0.833023012 0.162276998
vt 0.721111 0.186602995
vt 0.833023012 0.186602995
vt 0.721111 0.162276998
vt 0.901385009 0.183505997
vt 0.855486989 0.207822993
vt 0.901385009 0.207833007
vt 0.855486989 0.183495998
vt 0.855486989 0.183495998
vt 0.833023012 0.186602995
vt 0.855486989 0.207822993
vt 0.833023012 0.162276998
vt 0.643118978 0.183495998
vt 0.721111 0.162276998
vt 0.697421014 0.183495998
vt 0.605742991 0.156083003
vt 0.833023012 0.162276998
vt 0.774637997 0.0942699984
vt 0.956906974 0.143625006
vt 0.855486989 0.183495998
vt 0.901385009 0.183505997
vt 0.643118978 0.183495998
vt 0.721111 0.162276998
vt 0.605742991 0.156083003
vt 0.697421014 0.183495998
vt 0.833023012 0.162276998
vt 0.774637997 0.0942699984
vt 0.956906974 0.143625006
vt 0.855486989 0.183495998
vt 0.901385009 0.183505997
vt 0.605742991 0.156083003
vt 0.621905982 0.0937580019
vt 0.568562984 0.113476999
vt 0.605742991 0.156083003
vt 0.621905982 0.0937580019
vt 0.643118978 0.109072
vt 0.464379013 0.104211003
vt 0.486319989 0.164910004
vt 0.527429998 0.116567999
vt 0.391873002 0.180291995
vt 0.498073995 0.189762995
vt 0.518921018 0.316484988
vt 0.551863015 0.164322004
vt 0.425338 0.251046985
vt 0.391873002 0.180291995
vt 0.486319989 0.164910004
vt 0.464379013 0.104211003
vt 0.486319989 0.164910004
vt 0.391873002 0.180291995
vt 0.527429998 0.116567999
vt 0.498073995 0.189762995
vt 0.518921018 0.316484988
vt 0.425338 0.251046985
vt 0.551863015 0.164322004
vt 0.391873002 0.180291995
vt 0.486319989 0.164910004
vt 0.464379013 0.104211003
vt 0.352979988 0.181345999
vt 0.391873002 0.180291995
vt 0.464379013 0.104211003
vt 0.43641299 0.0965240002
vt 0.486319989 0.164910004
vt 0.535328984 0.133267999
vt 0.527429998 0.116567999
vt 0.486319989 0.164910004
vt 0.504607975 0.161852002
vt 0.425338 0.251046985
vt 0.508548021 0.348113
vt 0.518921018 0.316484988
vt 0.393956989 0.267984986
vt 0.551863015 0.164322004
vt 0.509019017 0.171177998
vt 0.498073995 0.189762995
vt 0.545171976 0.154079005
vt 0.391873002 0.180291995
vt 0.393956989 0.267984986
vt 0.425338 0.251046985
vt 0.391873002 0.180291995
vt 0.352979988 0.181345999
vt 0.498073995 0.189762995
vt 0.504607975 0.161852002
vt 0.486319989 0.164910004
vt 0.509019017 0.171177998
vt 0.989768982 0.237267002
vt 0.951259971 0.253989011
vt 0.951259971 0.275775999
vt 0.967981994 0.237267002
vt 0.951259971 0.198758006
vt 0.967981994 0.237267002
vt 0.989768982 0.237267002
vt 0.951259971 0.220544994
vt 0.912751019 0.237267002
vt 0.951259971 0.220544994
vt 0.951259971 0.198758006
vt 0.934538007 0.237267002
vt 0.951259971 0.275775999
vt 0.934538007 0.237267002
vt 0.912751019 0.237267002
vt 0.951259971 0.253989011
vt 0.951259971 0.253989011
vt 0.951259971 0.220544994
vt 0.934538007 0.237267002
vt 0.967981994 0.237267002
vt 0.260760009 0.378621012
vt 0.420926988 0.346956998
vt 0.420926988 0.378621012
vt 0.260760009 0.346956998
vt 0.215840995 0.346956998
vt 0.260760009 0.378621012
vt 0.215821996 0.403791994
vt 0.260760009 0.346956998
vt 0.148458004 0.403791994
vt 0.00887699984 0.378621012
vt 0.124535002 0.346956998
vt 0.124514997 0.346956998
vt 0.00887699984 0.378621012
vt 0.148458004 0.403791994
vt 0.260760009 0.315292001
vt 0.420926988 0.346956998
vt 0.260760009 0.346956998
vt 0.420926988 0.315292001
vt 0.215821996 0.290122002
vt 0.148458004 0.256639987
vt 0.148458004 0.290122002
vt 0.148458004 0.290122002
vt 0.124535002 0.346956998
vt 0.00887699984 0.315292001
vt 0.124514997 0.346956998
vt 0.148458004 0.290122002
vt 0.00887699984 0.315292001
vt 0.121971004 0.283226997
vt 0.121971004 0.234115005
vt 0.121971004 0.234115005
vt 0.121971004 0.283226997
vt 0.124535002 0.346956998
vt 0.00887699984 0.378621012
vt 0.00887699984 0.315292001
vt 0.121971004 0.283226997
vt 0.0137250004 0.234115005
vt 0.0137250004 0.283226997
vt 0.121971004 0.234115005
vt 0.0137250004 0.283226997
vt 0.121971004 0.234115005
vt 0.121971004 0.283226997
vt 0.0137250004 0.234115005
vt 0.00887699984 0.315292001
vt 0.00887699984 0.378621012
vt 0.124514997 0.346956998
vt 0.215803996 0.346956998
vt 0.148458004 0.403791994
vt 0.215821996 0.403791994
vt 0.215840995 0.346956998
vt 0.260760009 0.315292001
vt 0.260760009 0.346956998
vt 0.215821996 0.290122002
vt 0.215821996 0.403791994
vt 0.260760009 0.346956998
vt 0.215803996 0.346956998
vt 0.260760009 0.378621012
vt 0.260760009 0.346956998
vt 0.420926988 0.378621012
vt 0.420926988 0.346956998
vt 0.260760009 0.378621012
vt 0.420926988 0.346956998
vt 0.260760009 0.315292001
vt 0.260760009 0.346956998
vt 0.420926988 0.315292001
vt 0.215821996 0.290122002
vt 0.260760009 0.346956998
vt 0.260760009 0.315292001
vt 0.215803996 0.346956998
vt 0.215840995 0.346956998
vt 0.148458004 0.290122002
vt 0.215821996 0.290122002
vt 0.148458004 0.403791994
vt 0.148458004 0.440387994
vt 0.215821996 0.403791994
vt 0.148458004 0.403791994
vt 0.215840995 0.346956998
vt 0.215821996 0.403791994
vt 0.148458004 0.290122002
vt 0.215803996 0.346956998
vt 0.215821996 0.290122002
vt 0.215840995 0.346956998
vt 0.124535002 0.346956998
vt 0.148458004 0.290122002
vt 0.148458004 0.403791994
vt 0.124535002 0.346956998
vt 0.215840995 0.346956998
vt 0.215803996 0.346956998
vt 0.124514997 0.346956998
vt 0.148458004 0.403791994
vt 0.148458004 0.290122002
vt 0.124514997 0.346956998
vt 0.215803996 0.346956998
vt 0.0239739995 0.479523003
vt 0.0452379994 0.43117699
vt 0.0239739995 0.43117699
vt 0.0452379994 0.47952199
vt 0.0937469974 0.43117699
vt 0.0694930032 0.455633014
vt 0.0937480032 0.479521006
vt 0.0937469974 0.43117699
vt 0.0452379994 0.43117699
vt 0.0694930032 0.455633014
vt 0.0694930032 0.455633014
vt 0.0452379994 0.47952199
vt 0.0937480032 0.479521006
vt 0.0452379994 0.43117699
vt 0.0452379994 0.47952199
vt 0.0694930032 0.455633014
vt 0.115011998 0.479521006
vt 0.0937469974 0.43117699
vt 0.0937480032 0.479521006
vt 0.115011998 0.43117699
vt 0.718665004 0.453891009
vt 0.78441602 0.43858099
vt 0.718665004 0.416382998
vt 0.767398 0.453891009
vt 0.844035983 0.43858099
vt 0.916226029 0.416382998
vt 0.86243701 0.45410499
vt 0.916226029 0.45410499
vt 0.718665004 0.453891009
vt 0.78441602 0.43858099
vt 0.767398 0.453891009
vt 0.718665004 0.416382998
vt 0.916226029 0.416382998
vt 0.844035983 0.43858099
vt 0.86243701 0.45410499
vt 0.916226029 0.45410499
vt 0.767398 0.453891009
vt 0.784415007 0.457471013
vt 0.78441602 0.43858099
vt 0.767398 0.475838989
vt 0.718665004 0.453891009
vt 0.767398 0.475838989
vt 0.767398 0.453891009
vt 0.698930025 0.475838989
vt 0.718665004 0.416382998
vt 0.698930025 0.475838989
vt 0.718665004 0.453891009
vt 0.698930025 0.416382998
vt 0.916226029 0.45410499
vt 0.935959995 0.416382998
vt 0.916226029 0.416382998
vt 0.935959995 0.476096004
vt 0.86243701 0.45410499
vt 0.935959995 0.476096004
vt 0.916226029 0.45410499
vt 0.86243701 0.476096004
vt 0.844035983 0.43858099
vt 0.86243701 0.476096004
vt 0.86243701 0.45410499
vt 0.844035983 0.457471013
vt 0.78441602 0.43858099
vt 0.844035983 0.457471013
vt 0.844035983 0.43858099
vt 0.784415007 0.457471013
vt 0.718665004 0.453891009
vt 0.78441602 0.43858099
vt 0.718665004 0.416382998
vt 0.767398 0.453891009
vt 0.844035983 0.43858099
vt 0.916226029 0.416382998
vt 0.86243701 0.45410499
vt 0.916226029 0.45410499
vt 0.718665004 0.453891009
vt 0.78441602 0.43858099
vt 0.767398 0.453891009
vt 0.718665004 0.416382998
vt 0.916226029 0.416382998
vt 0.844035983 0.43858099
vt 0.86243701 0.45410499
vt 0.916226029 0.45410499
vt 0.767398 0.453891009
vt 0.784415007 0.457471013
vt 0.78441602 0.43858099
vt 0.767398 0.475838989
vt 0.718665004 0.453891009
vt 0.767398 0.475838989
vt 0.767398 0.453891009
vt 0.698930025 0.475838989
vt 0.718665004 0.416382998
vt 0.698930025 0.475838989
vt 0.718665004 0.453891009
vt 0.698930025 0.416382998
vt 0.916226029 0.45410499
vt 0.935959995 0.416382998
vt 0.916226029 0.416382998
vt 0.935959995 0.476096004
vt 0.86243701 0.45410499
vt 0.935959995 0.476096004
vt 0.916226029 0.45410499
vt 0.86243701 0.476096004
vt 0.844035983 0.43858099
vt 0.86243701 0.476096004
vt 0.86243701 0.45410499
vt 0.844035983 0.457471013
vt 0.78441602 0.43858099
vt 0.844035983 0.457471013
vt 0.844035983 0.43858099
vt 0.784415007 0.457471013
vn -0.999657325 2.44958162e-09 0.0261769602
vn -0.999657325 2.44958162e-09 0.0261769602
vn -0.999657325 2.44958162e-09 0.0261769602
vn 0.999657325 -3.16501895e-09 -0.0261769606
vn 0.999657325 -3.16501895e-09 -0.0261769606
vn 0.999657325 -3.16501895e-09 -0.0261769606
vn 0.0187720185 0.696950154 0.716873834
vn 0.0187720185 0.696950154 0.716873834
vn 0.0187720185 0.696950154 0.716873834
vn -0.0129195231 -0.869718209 -0.493379492
vn -0.0129195231 -0.869718209 -0.493379492
vn -0.0129195231 -0.869718209 -0.493379492
vn -0.978077094 0.084769208 -0.190208781
vn -0.978077094 0.084769208 -0.190208781
vn -0.982963525 0.0836931935 -0.163640329
vn -0.971929562 0.0858726248 -0.21904068
vn 0.966781901 0.0847692165 -0.241136757
vn 0.966781901 0.0847692165 -0.241136757
vn 0.959133856 0.0858726314 -0.269607377
vn 0.973052118 0.0836932037 -0.214860475
vn -0.999862634 0.0151758571 0.00666381507
vn -0.999862634 0.0151758571 0.00666381507
vn -0.999862634 0.0151758571 0.00666381507
vn 0.98355159 0.0261760406 -0.178720691
vn 0.98355159 0.0261760406 -0.178720691
vn 0.98355159 0.0261760406 -0.178720691
vn -0.0187881967 -0.696313674 -0.717491652
vn -0.0187881967 -0.696313674 -0.717491652
vn -0.0187881967 -0.696313674 -0.717491652
vn 0.0261769499 -0.00128044669 0.999656505
vn 0.0261769499 -0.00128044669 0.999656505
vn 0.0261769499 -0.00128044669 0.999656505
vn -0.991557195 0.0261760351 -0.127000564
vn -0.991557195 0.0261760351 -0.127000564
vn -0.991557195 0.0261760351 -0.127000564
vn 0.970389071 0.0096013033 -0.241356305
vn 0.970389071 0.0096013033 -0.241356305
vn 0.970389071 0.0096013033 -0.241356305
vn 0.99884111 0.0151758599 -0.0456741775
vn 0.99884111 0.0151758599 -0.0456741775
vn 0.99884111 0.0151758599 -0.0456741775
vn -0.981690818 0.00960130081 -0.190239202
vn -0.981690818 0.00960130081 -0.190239202
vn -0.981690818 0.00960130081 -0.190239202
vn -0.972883288 0.0414293952 0.227555956
vn -0.972883288 0.0414293952 0.227555956
vn -0.972883288 0.0414293952 0.227555956
vn 0.962240561 0.0263442093 0.270922654
vn 0.962240561 0.0263442093 0.270922654
vn 0.962240561 0.0263442093 0.270922654
vn -0.026176797 -6.21787654e-11 -0.999657329
vn -0.026176797 -6.21787654e-11 -0.999657329
vn -0.026176797 -6.21787654e-11 -0.999657329
vn 0.0215903632 -0.565439017 0.824507474
vn 0.0215903632 -0.565439017 0.824507474
vn 0.0215903632 -0.565439017 0.824507474
vn -0.946742893 0.0263442034 0.320911012
vn -0.946742893 0.0263442034 0.320911012
vn -0.946742893 0.0263442034 0.320911012
vn 0.983459338 0.0414294171 0.176327349
vn 0.983459338 0.0414294171 0.176327349
vn 0.983459338 0.0414294171 0.176327349
vn 0.0125572968 0.877429013 0.479542117
vn 0.0125572968 0.877429013 0.479542117
vn 0.0125572968 0.877429013 0.479542117
vn -0.0165276631 0.775472453 -0.631165042
vn -0.0165276631 0.775472453 -0.631165042
vn -0.0165276298 0.775472441 -0.631165058
vn -0.0165276965 0.775472466 -0.631165026
vn -0.026176353 0.00666308312 -0.999635134
vn -0.026176353 0.00666308312 -0.999635134
vn -0.026176353 0.00666308312 -0.999635134
vn -0.026176353 0.00666308312 -0.999635134
vn -0.0187935176 -0.696104549 -0.717694406
vn -0.018781064 -0.69659513 -0.717218583
vn -0.0187934802 -0.696104513 -0.717694442
vn -0.0187721145 -0.696948347 -0.716875588
vn -0.0187167648 -0.699117402 -0.714761877
vn 0.0190478128 0.685941862 0.727406999
vn 0.0187168892 0.699109553 0.714769551
vn 0.0190199235 0.687070293 0.726341968
vn 0.0190813535 0.684580087 0.728687866
vn 0.019081354 0.684580087 0.728687866
vn 0.0261769355 -2.24302591e-16 0.999657325
vn 0.0261769355 -2.24302591e-16 0.999657325
vn 0.0261769355 -2.21431817e-16 0.999657325
vn 0.0261769355 -2.27173366e-16 0.999657325
vn 0.0205561446 -0.619144611 0.785007895
vn 0.0205561446 -0.619144611 0.785007895
vn 0.020556144 -0.619144612 0.785007894
vn 0.0205561452 -0.61914461 0.785007896
vn 0.0165817918 -0.773783235 0.633233408
vn 0.0165817918 -0.773783235 0.633233408
vn 0.0165817914 -0.773783235 0.633233408
vn 0.0165817923 -0.773783235 0.633233408
vn 0.0251631062 -0.275608781 0.960940486
vn 0.0251631079 -0.275608685 0.960940514
vn 0.0251630986 -0.275608778 0.960940487
vn 0.0251631137 -0.275608628 0.96094053
vn 0.0251631134 -0.275608377 0.960940602
vn 0.651120515 0.00567742468 -0.758953122
vn 0.651120515 0.00567742468 -0.758953122
vn 0.692256229 0.0172512817 -0.721445568
vn 0.62178952 -0.00224488902 -0.783181175
vn 0.0261769341 -2.25027737e-16 0.999657325
vn 0.0261769341 -2.25027737e-16 0.999657325
vn 0.0261769341 -2.23919447e-16 0.999657325
vn 0.0261769341 -2.26136026e-16 0.999657325
vn 0.439974415 0.267024479 -0.85739165
vn 0.439974415 0.267024479 -0.85739165
vn 0.439971311 0.267023138 -0.857393661
vn 0.439977519 0.26702582 -0.857389639
vn 0.0202537526 0.633521435 0.773460004
vn 0.0202537526 0.633521435 0.773460004
vn 0.0202537531 0.633521436 0.773460003
vn 0.020253752 0.633521433 0.773460005
vn 0.0261769355 -2.24876902e-16 0.999657325
vn 0.0261769355 -2.24876902e-16 0.999657325
vn 0.0261769355 -2.2516611e-16 0.999657325
vn 0.0261769355 -2.24587695e-16 0.999657325
vn 0.999657328 1.01996606e-07 -0.0261768265
vn 0.999657325 1.49516569e-08 -0.0261769303
vn 0.999657325 5.55630176e-08 -0.0261769332
vn 0.999657328 1.63453304e-08 -0.0261768428
vn 0.999657325 -2.42039171e-08 -0.0261769411
vn 0.999657325 -2.21529927e-08 -0.0261769292
vn 0.999657327 -5.0495892e-08 -0.0261768607
vn 0.999657325 -2.54880558e-09 -0.0261769297
vn 0.999657325 1.35637567e-08 -0.0261769602
vn 0.999657337 6.83865885e-18 -0.0261765017
vn 0.999657326 6.95356062e-09 -0.0261769158
vn 0.999657322 -1.83092844e-08 -0.0261770472
vn 0.999657325 1.79886777e-08 -0.0261769558
vn -0.999657325 1.98718778e-09 0.0261769623
vn -0.999657325 -4.04897459e-09 0.0261769645
vn -0.999657322 1.95767075e-08 0.0261770537
vn -0.999657326 -1.90998566e-08 0.0261769106
vn -0.999657325 -1.85932688e-08 0.0261769421
vn -0.999657325 1.17609522e-08 0.0261769597
vn -0.999657325 6.48448187e-09 0.0261769537
vn -0.999657326 1.8505656e-08 0.0261769226
vn -0.99965733 -5.89614014e-18 0.0261767621
vn -0.999657325 1.33488356e-09 0.0261769587
vn -0.999657324 -2.90919584e-09 0.0261769754
vn -0.999657324 2.4075546e-09 0.0261769806
vn -0.99965733 -5.79835493e-18 0.0261767621
vn -0.484243919 0.267024436 -0.833190121
vn -0.484243919 0.267024436 -0.833190121
vn -0.484240888 0.267023079 -0.833192317
vn -0.484246949 0.267025793 -0.833187925
vn -0.688930612 0.00590310883 -0.724803259
vn -0.688930612 0.00590310883 -0.724803259
vn -0.621562045 0.0201798254 -0.783104973
vn -0.724044146 -0.00207455484 -0.689750514
vn -0.727800041 0.38741853 0.565874529
vn -0.727800041 0.38741853 0.565874529
vn -0.727800041 0.38741853 0.565874529
vn -0.384387551 -0.31937307 0.866168028
vn -0.384387551 -0.31937307 0.866168028
vn -0.422721237 -0.302825081 0.854168441
vn -0.329930882 -0.341360713 0.880124126
vn -0.423915232 0.216520163 0.879440103
vn -0.423915232 0.216520163 0.879440103
vn -0.370353991 0.236160872 0.898368501
vn -0.466166127 0.200042313 0.86178432
vn 0.429192683 -0.319373048 0.844863597
vn 0.429192683 -0.319373048 0.844863597
vn 0.375541076 -0.341360684 0.861650616
vn 0.4668458 -0.302825067 0.830874225
vn -0.0214700185 0.572098208 -0.819904067
vn -0.021628085 0.56334248 -0.825940359
vn -0.021439032 0.573791573 -0.818720709
vn -0.0213929364 0.576296861 -0.816960385
vn -0.0213929376 0.57629686 -0.816960386
vn 0.469360737 0.216520146 0.856048786
vn 0.469360737 0.216520146 0.856048786
vn 0.510629649 0.200042313 0.836205976
vn 0.416863589 0.23616084 0.877754411
vn -0.021243018 -0.584333896 -0.811235251
vn -0.0211503669 -0.589218244 -0.807697049
vn -0.0212430168 -0.584333894 -0.811235252
vn -0.0211039376 -0.591642787 -0.805923964
vn -0.0209642579 -0.598845912 -0.800589828
vn 0.68677178 -0.253657139 0.681177347
vn 0.68677178 -0.253657139 0.681177347
vn 0.68677178 -0.253657139 0.681177347
vn -0.999657329 2.13589673e-08 0.0261767869
vn -0.999657329 2.13589673e-08 0.0261767869
vn -0.999657329 2.13589673e-08 0.0261767869
vn -0.0196573588 0.660371627 -0.750681625
vn -0.0196573588 0.660371627 -0.750681625
vn -0.0196573588 0.660371627 -0.750681625
vn -0.0196573588 0.660371627 -0.750681625
vn -0.0261770396 2.38654997e-16 -0.999657323
vn -0.0261770396 2.38654997e-16 -0.999657323
vn -0.0261770396 2.39830396e-16 -0.999657323
vn -0.0261770396 2.37479598e-16 -0.999657323
vn -0.0261770396 2.29449257e-16 -0.999657323
vn -0.0261770396 2.29449257e-16 -0.999657323
vn -0.0261770396 2.28434885e-16 -0.999657323
vn -0.0261770396 2.3046363e-16 -0.999657323
vn -0.0261770405 -0.000208711643 -0.999657301
vn -0.0261770405 -0.000208711643 -0.999657301
vn -0.0261770419 -0.000208714277 -0.999657301
vn -0.0261770391 -0.00020870901 -0.999657301
vn -0.0191939632 -0.679973609 -0.732985322
vn -0.0191939632 -0.679973609 -0.732985322
vn -0.0191939632 -0.679973609 -0.732985322
vn -0.0191939632 -0.679973609 -0.732985322
vn 0.999657329 -4.58057399e-08 -0.0261767969
vn 0.999657334 -3.9159231e-08 -0.0261766115
vn 0.999657324 6.2186269e-18 -0.0261769683
vn 0.999657328 -4.04182665e-08 -0.0261768456
vn 0.999657326 -2.71059912e-08 -0.026176894
vn 0.999657326 -3.01743968e-08 -0.0261769224
vn 0.999657324 7.79364262e-09 -0.0261769929
vn 0.99965732 5.84524144e-08 -0.0261771509
vn 0.999657312 1.69889438e-07 -0.0261774395
vn -0.999657324 -2.16535513e-09 0.0261769764
vn -0.999657324 -1.85115755e-09 0.0261769852
vn -0.999657324 -2.056139e-09 0.0261769687
vn -0.999657324 -6.2186269e-18 0.0261769683
vn -0.999657324 2.93338519e-09 0.02617697
vn -0.999657324 2.32724207e-09 0.0261769672
vn -0.999657324 1.17977637e-08 0.0261769672
vn -0.999657325 1.69885395e-08 0.0261769555
vn -0.999657326 3.11270802e-08 0.0261769189
vn -0.65018038 -0.253657224 0.716186767
vn -0.65018038 -0.253657224 0.716186767
vn -0.65018038 -0.253657224 0.716186767
vn 0.756418308 0.387418327 0.527008902
vn 0.756418308 0.387418327 0.527008902
vn 0.756418308 0.387418327 0.527008902
vn -0.993904918 -0.000975776 0.110236391
vn -0.993904918 -0.000975776 0.110236391
vn -0.992799417 -0.0374019901 0.113799866
vn -0.993933394 0.0203848491 0.108078058
vn -0.999989686 0.00305375234 -0.00336185571
vn -0.999794387 0.00575056805 -0.019445162
vn -0.999843293 3.76831717e-18 -0.0177028217
vn -0.999986034 0.00502988505 -0.00162222647
vn -0.999655518 -0.00190097432 0.0261769221
vn -0.999655517 -0.001900955 0.026176957
vn 0.998312127 -0.0009758285 0.0580684411
vn 0.998312127 -0.0009758285 0.0580684411
vn 0.998227608 0.0203847489 0.0559115816
vn 0.99739464 -0.0374019605 0.0616848815
vn 0.998443288 0.00305370298 -0.0556926933
vn 0.997406523 0.00575053742 -0.0717437027
vn 0.998530687 0.00502983579 -0.0539552307
vn 0.997546548 1.49019189e-17 -0.0700063189
vn 0.999655517 -0.00190105825 -0.0261769699
vn 0.999655512 -0.00190114786 -0.0261771317
vn 0.0246032845 -0.34151019 0.939555995
vn 0.0246031491 -0.341510256 0.939555975
vn 0.0246032845 -0.34151019 0.939555995
vn 0.0246029865 -0.341510334 0.939555951
vn 0.0246029865 -0.341510334 0.939555951
vn -0.0240816376 0.392016889 -0.919642775
vn -0.0240816367 0.392016888 -0.919642775
vn -0.0240816376 0.392016889 -0.919642775
vn -0.0240816358 0.392016887 -0.919642776
vn -0.0240816358 0.392016887 -0.919642776
vn -0.0135539413 -0.855511968 -0.517605605
vn -0.0135539413 -0.855511968 -0.517605605
vn -0.0135538944 -0.85551198 -0.517605587
vn -0.0135539805 -0.855511958 -0.517605621
vn 0.0261768875 -2.11480138e-16 0.999657327
vn 0.0261768875 -2.11480138e-16 0.999657327
vn 0.0261768875 -2.12792397e-16 0.999657327
vn 0.0261768875 -2.10167879e-16 0.999657327
vn 0 -1 0
vn 0 -1 0
vn 0 -1 0
vn 0 -1 0
vn 0 -1 0
vn 0 1 0
vn 0 1 0
vn 0 1 0
vn 0 1 0
vn 0.691179644 0.553225955 0.464985745
vn 0.691179644 0.553225955 0.464985745
vn 0.691176972 0.553234994 0.464978961
vn 0.691183484 0.553212959 0.464995498
vn 0.679797689 -0.732775999 0.0302396683
vn 0.679797689 -0.732775999 0.0302396683
vn 0.6798004 -0.732773634 0.0302360312
vn 0.679793791 -0.732779399 0.0302448977
vn -0.677283338 -0.732776073 0.0657761833
vn -0.677283338 -0.732776073 0.0657761833
vn -0.677284317 -0.732774731 0.0657810583
vn -0.677281932 -0.732778002 0.0657691741
vn -0.665896896 0.553225943 0.500522107
vn -0.665896896 0.553225943 0.500522107
vn -0.665890097 0.553225281 0.500531884
vn -0.66590667 0.553226896 0.50050805
vn 0.02479718 -0.320356065 0.946972593
vn 0.02479718 -0.320356065 0.946972593
vn 0.0248010907 -0.320356065 0.94697249
vn 0.0247932693 -0.320356065 0.946972695
vn -0.622398172 0.0145501317 0.78256553
vn -0.622398172 0.0145501317 0.78256553
vn -0.678543679 -1.60259278e-16 0.734560056
vn -0.57188025 0.0268578325 0.819897333
vn -0.577311572 0.272132944 0.769840899
vn -0.577311572 0.272132944 0.769840899
vn -0.58924478 0.292889822 0.752998102
vn -0.555884762 0.236303251 0.796964808
vn -0.75926623 -0.0555379629 0.648405989
vn -0.75926623 -0.0555379629 0.648405989
vn -0.75926623 -0.0555379629 0.648405989
vn 0.79964612 -0.0568930635 0.597770242
vn 0.79964612 -0.0568930635 0.597770242
vn 0.79964612 -0.0568930635 0.597770242
vn -0.662496714 0.0145500181 -0.748923494
vn -0.662496714 0.0145500181 -0.748923494
vn -0.614001727 0.0268576013 -0.788847608
vn -0.716053114 1.52292947e-16 -0.6980458
vn -0.0261769523 -4.12977429e-09 -0.999657325
vn -0.0261769523 -4.12977429e-09 -0.999657325
vn -0.0261769523 -4.12977429e-09 -0.999657325
vn -0.792160653 -0.0555379914 -0.607780414
vn -0.792160653 -0.0555379914 -0.607780414
vn -0.792160653 -0.0555379914 -0.607780414
vn 0.767264925 -0.0568944043 -0.638801661
vn 0.767264925 -0.0568944043 -0.638801661
vn 0.767264925 -0.0568944043 -0.638801661
vn -9.25658683e-18 -1 -3.53494031e-16
vn -9.25658683e-18 -1 -3.53494031e-16
vn -9.25656818e-18 -1 -3.53494023e-16
vn -9.25660547e-18 -1 -3.53494039e-16
vn -0.975120486 -0.220199979 0.0255344415
vn -0.975120486 -0.220199979 0.0255344415
vn -0.975120486 -0.220199979 0.0255344415
vn 0.999208486 -0.0299630386 -0.0261652145
vn 0.999208486 -0.0299630386 -0.0261652145
vn 0.999208486 -0.0299630413 -0.0261652083
vn 0.999208486 -0.029963037 -0.0261652179
vn -0.999309683 -0.0263704624 0.0261678355
vn -0.999309683 -0.0263704624 0.0261678355
vn -0.999309683 -0.0263704476 0.0261678691
vn -0.999309684 -0.0263704891 0.026167775
vn 0.97571589 -0.217544711 -0.0255499515
vn 0.97571589 -0.217544711 -0.0255499515
vn 0.97571589 -0.217544711 -0.0255499515
vn 0.647026994 0.171451325 0.74294045
vn 0.647026994 0.171451325 0.74294045
vn 0.647026994 0.171451325 0.74294045
vn -0.616808705 0.272135118 -0.738572609
vn -0.616808705 0.272135118 -0.738572609
vn -0.596828377 0.236301376 -0.766783899
vn -0.627845278 0.29289417 -0.721126419
vn 0.618743075 0.261685308 0.740727889
vn 0.618743075 0.261685308 0.740727889
vn 0.637320483 0.24155182 0.731761792
vn 0.587009542 0.294386769 0.754159285
vn 0.662501545 0.0145501299 0.748919219
vn 0.662501545 0.0145501299 0.748919219
vn 0.715700791 0.0315690278 0.69769318
vn 0.614228227 -1.66516736e-16 0.789128434
vn 0.622393236 0.0145500223 -0.782569458
vn 0.622393236 0.0145500223 -0.782569458
vn 0.571875229 0.0268576094 -0.819900842
vn 0.678538983 1.52253139e-16 -0.734564394
vn 0.57912633 0.261687522 -0.772096065
vn 0.57912633 0.261687522 -0.772096065
vn 0.546729559 0.294392571 -0.78384935
vn 0.598149632 0.241551845 -0.764113685
vn -0.647799516 0.163851239 -0.743981558
vn -0.647799516 0.163851239 -0.743981558
vn -0.647799516 0.163851239 -0.743981558
vn 0.0261770565 -2.3062243e-08 0.999657322
vn 0.0261770565 -2.3062243e-08 0.999657322
vn 0.0261770565 -2.3062243e-08 0.999657322
vn -0.607974703 0.163851236 0.776865196
vn -0.607974703 0.163851236 0.776865196
vn -0.607974703 0.163851236 0.776865196
vn 0.607257793 0.171451369 -0.775785022
vn 0.607257793 0.171451369 -0.775785022
vn 0.607257793 0.171451369 -0.775785022
vn -0.809367384 1.30645436e-16 -0.58730268
vn -0.809367384 1.30645436e-16 -0.58730268
vn -0.809367384 1.30645436e-16 -0.58730268
vn -0.777521093 -1.45126428e-16 0.62885686
vn -0.777521093 -1.45126428e-16 0.62885686
vn -0.777521093 -1.45126428e-16 0.62885686
vn 0.817208223 -1.26853885e-16 0.576342537
vn 0.817208223 -1.26853885e-16 0.576342537
vn 0.817208223 -1.26853885e-16 0.576342537
vn 0.785924871 1.4664107e-16 -0.618322001
vn 0.785924871 1.4664107e-16 -0.618322001
vn 0.785924871 1.4664107e-16 -0.618322001
vn 0.0261768965 4.46932813e-08 0.999657326
vn 0.0261768965 4.46932813e-08 0.999657326
vn 0.026176852 9.13445851e-08 0.999657327
vn 0.0261769392 -1.57125685e-16 0.999657325
vn -0.0178647665 -0.730921067 -0.682228146
vn -0.0178647665 -0.730921067 -0.682228146
vn -0.0178647665 -0.730921067 -0.682228146
vn -0.661396426 -0.749836522 0.01731932
vn -0.661396426 -0.749836522 0.01731932
vn -0.661396426 -0.749836522 0.01731932
vn 0.672445799 -0.739936877 -0.0176086587
vn 0.672445799 -0.739936877 -0.0176086587
vn 0.672445799 -0.739936877 -0.0176086587
vn 0.0178646412 -0.730925538 0.68222336
vn 0.0178646412 -0.730925538 0.68222336
vn 0.0178646412 -0.730925538 0.68222336
vn -0.0261769387 -4.8292838e-10 -0.999657325
vn -0.0261769387 -4.8292838e-10 -0.999657325
vn -0.0261769392 1.57125685e-16 -0.999657325
vn -0.0261769382 -9.87017715e-10 -0.999657325
vn -0.999657324 1.81346783e-09 0.0261769992
vn -0.999657324 1.28431797e-09 0.0261769963
vn -0.999657324 7.12563791e-10 0.0261769915
vn -0.999657323 -5.6695787e-18 0.0261770074
vn -0.999657324 2.81290009e-09 0.0261769796
vn -0.999657324 2.56306613e-09 0.0261769739
vn -0.999657325 5.72209455e-09 0.0261769549
vn -0.999657325 -6.16409311e-18 0.0261769635
vn 0.999657322 -5.47283702e-08 -0.0261770721
vn 0.999657327 -1.97059433e-08 -0.0261768806
vn 0.999657315 5.66964664e-18 -0.0261773211
vn 0.999657327 -2.56581531e-08 -0.0261768535
vn 0.999657327 1.62496382e-08 -0.0261768707
vn 0.999657325 5.27891031e-08 -0.0261769549
vn 0.999657323 4.23217548e-08 -0.0261770275
vn 0.999657325 6.16409311e-18 -0.0261769635
vn -0.0199585178 0.647055465 -0.76218166
vn -0.0199585178 0.647055465 -0.76218166
vn -0.0199585168 0.647055463 -0.762181661
vn -0.0199585189 0.647055466 -0.762181659
vn -0.026177066 2.16903668e-16 -0.999657322
vn -0.026177066 2.16903668e-16 -0.999657322
vn -0.026177066 2.16511986e-16 -0.999657322
vn -0.026177066 2.1729535e-16 -0.999657322
vn 0 -1 0
vn 0 -1 0
vn 0 -1 0
vn 0 -1 0
vn 0 1 0
vn 0 1 0
vn 0 1 0
vn 0 1 0
vn -0.026177066 2.35594004e-16 -0.999657322
vn -0.026177066 2.35594004e-16 -0.999657322
vn -0.026177066 2.35397081e-16 -0.999657322
vn -0.026177066 2.35790927e-16 -0.999657322
vn -0.0204823849 -0.62270666 -0.782187246
vn -0.0204823849 -0.62270666 -0.782187246
vn -0.020482386 -0.622706659 -0.782187247
vn -0.0204823837 -0.622706662 -0.782187245
vn -0.0261770631 2.12546002e-16 -0.999657322
vn -0.0261770631 2.12546002e-16 -0.999657322
vn -0.0261770631 2.12368356e-16 -0.999657322
vn -0.0261770631 2.12723648e-16 -0.999657322
vn 0.999657326 -4.72686095e-08 -0.0261769253
vn 0.999657324 -3.34762323e-08 -0.0261770007
vn 0.99965732 -1.85733177e-08 -0.0261771254
vn 0.999657331 5.66951432e-18 -0.0261767102
vn 0.999657321 2.43521287e-08 -0.0261770997
vn 0.999657322 2.21892104e-08 -0.0261770502
vn 0.999657327 4.95376181e-08 -0.0261768857
vn 0.999657325 5.65041805e-18 -0.0261769606
vn -0.999657326 4.78341844e-08 0.0261769279
vn -0.999657321 1.72236584e-08 0.0261770952
vn -0.999657331 -5.66951432e-18 0.0261767102
vn -0.999657321 2.24261071e-08 0.0261771189
vn -0.99965732 -8.36391662e-09 0.026177139
vn -0.999657321 -2.71712176e-08 0.0261770957
vn -0.999657322 -2.17834902e-08 0.0261770583
vn -0.999657321 -5.65044625e-18 0.0261770912
vn 0.0199583548 0.647055224 0.762181869
vn 0.0199583548 0.647055224 0.762181869
vn 0.0199583548 0.647055224 0.762181869
vn 0.0199583548 0.647055224 0.762181869
vn 0.0261768436 -2.16903669e-16 0.999657328
vn 0.0261768436 -2.16903669e-16 0.999657328
vn 0.0261768436 -2.16511987e-16 0.999657328
vn 0.0261768436 -2.17295351e-16 0.999657328
vn 0 -1 0
vn 0 -1 0
vn 0 -1 0
vn 0 -1 0
vn 0 1 0
vn 0 1 0
vn 0 1 0
vn 0 1 0
vn 0.0261768465 -2.1548426e-16 0.999657328
vn 0.0261768465 -2.1548426e-16 0.999657328
vn 0.0261768465 -2.15780659e-16 0.999657328
vn 0.0261768465 -2.15187862e-16 0.999657328
vn 0.0204822206 -0.622706303 0.782187534
vn 0.0204822206 -0.622706303 0.782187534
vn 0.0204822218 -0.622706302 0.782187535
vn 0.0204822194 -0.622706305 0.782187533
vn 0.0261768436 -2.2965581e-16 0.999657328
vn 0.0261768436 -2.2965581e-16 0.999657328
vn 0.0261768436 -2.3006572e-16 0.999657328
vn 0.0261768436 -2.292459e-16 0.999657328

g gun_up_1_gzqgj_submesh_0
usemtl Passer-Standard_2
f 169/169/169 171/171/171 170/170/170
f 172/172/172 174/174/174 173/173/173
f 175/175/175 177/177/177 176/176/176
f 178/178/178 180/180/180 179/179/179
f 181/181/181 183/183/183 182/182/182
f 181/181/181 182/182/182 184/184/184
f 185/185/185 187/187/187 186/186/186
f 185/185/185 186/186/186 188/188/188
f 189/189/189 191/191/191 190/190/190
f 192/192/192 194/194/194 193/193/193
f 195/195/195 197/197/197 196/196/196
f 198/198/198 200/200/200 199/199/199
f 201/201/201 203/203/203 202/202/202
f 204/204/204 206/206/206 205/205/205
f 207/207/207 209/209/209 208/208/208
f 210/210/210 212/212/212 211/211/211
f 213/213/213 215/215/215 214/214/214
f 216/216/216 218/218/218 217/217/217
f 219/219/219 221/221/221 220/220/220
f 222/222/222 224/224/224 223/223/223
f 225/225/225 227/227/227 226/226/226
f 228/228/228 230/230/230 229/229/229
f 231/231/231 233/233/233 232/232/232
f 234/234/234 236/236/236 235/235/235
f 234/234/234 235/235/235 237/237/237
f 238/238/238 240/240/240 239/239/239
f 238/238/238 239/239/239 241/241/241
f 242/242/242 244/244/244 243/243/243
f 242/242/242 243/243/243 245/245/245
f 246/246/246 245/245/245 243/243/243
f 247/247/247 249/249/249 248/248/248
f 247/247/247 250/250/250 249/249/249
f 247/247/247 251/251/251 250/250/250
f 252/252/252 254/254/254 253/253/253
f 252/252/252 253/253/253 255/255/255
f 256/256/256 258/258/258 257/257/257
f 256/256/256 257/257/257 259/259/259
f 260/260/260 262/262/262 261/261/261
f 260/260/260 261/261/261 263/263/263
f 264/264/264 266/266/266 265/265/265
f 264/264/264 265/265/265 267/267/267
f 268/268/268 267/267/267 265/265/265
f 269/269/269 271/271/271 270/270/270
f 269/269/269 270/270/270 272/272/272
f 273/273/273 275/275/275 274/274/274
f 273/273/273 274/274/274 276/276/276
f 277/277/277 279/279/279 278/278/278
f 277/277/277 278/278/278 280/280/280
f 281/281/281 283/283/283 282/282/282
f 281/281/281 282/282/282 284/284/284
f 285/285/285 287/287/287 286/286/286
f 285/285/285 286/286/286 288/288/288
f 289/289/289 291/291/291 290/290/290
f 289/289/289 290/290/290 292/292/292
f 290/290/290 291/291/291 293/293/293
f 290/290/290 293/293/293 294/294/294
f 293/293/293 295/295/295 294/294/294
f 296/296/296 294/294/294 295/295/295
f 296/296/296 297/297/297 294/294/294
f 293/293/293 298/298/298 295/295/295
f 290/290/290 299/299/299 292/292/292
f 290/290/290 300/300/300 299/299/299
f 301/301/301 297/297/297 296/296/296
f 302/302/302 304/304/304 303/303/303
f 302/302/302 303/303/303 305/305/305
f 305/305/305 303/303/303 306/306/306
f 307/307/307 306/306/306 303/303/303
f 307/307/307 303/303/303 308/308/308
f 309/309/309 307/307/307 308/308/308
f 309/309/309 310/310/310 307/307/307
f 311/311/311 309/309/309 308/308/308
f 311/311/311 308/308/308 312/312/312
f 311/311/311 312/312/312 313/313/313
f 305/305/305 306/306/306 314/314/314
f 315/315/315 317/317/317 316/316/316
f 315/315/315 316/316/316 318/318/318
f 319/319/319 321/321/321 320/320/320
f 319/319/319 320/320/320 322/322/322
f 323/323/323 325/325/325 324/324/324
f 326/326/326 328/328/328 327/327/327
f 326/326/326 327/327/327 329/329/329
f 330/330/330 332/332/332 331/331/331
f 330/330/330 331/331/331 333/333/333
f 334/334/334 336/336/336 335/335/335
f 334/334/334 335/335/335 337/337/337
f 338/338/338 340/340/340 339/339/339
f 340/340/340 338/338/338 341/341/341
f 340/340/340 341/341/341 342/342/342
f 343/343/343 345/345/345 344/344/344
f 343/343/343 344/344/344 346/346/346
f 347/347/347 349/349/349 348/348/348
f 347/347/347 348/348/348 350/350/350
f 351/351/351 350/350/350 348/348/348
f 352/352/352 354/354/354 353/353/353
f 355/355/355 357/357/357 356/356/356
f 358/358/358 360/360/360 359/359/359
f 358/358/358 359/359/359 361/361/361
f 362/362/362 364/364/364 363/363/363
f 362/362/362 363/363/363 365/365/365
f 366/366/366 368/368/368 367/367/367
f 366/366/366 367/367/367 369/369/369
f 370/370/370 372/372/372 371/371/371
f 370/370/370 371/371/371 373/373/373
f 374/374/374 376/376/376 375/375/375
f 374/374/374 375/375/375 377/377/377
f 378/378/378 380/380/380 379/379/379
f 378/378/378 379/379/379 381/381/381
f 381/381/381 379/379/379 382/382/382
f 381/381/381 382/382/382 383/383/383
f 382/382/382 384/384/384 383/383/383
f 385/385/385 384/384/384 382/382/382
f 384/384/384 385/385/385 386/386/386
f 387/387/387 389/389/389 388/388/388
f 387/387/387 388/388/388 390/390/390
f 389/389/389 391/391/391 388/388/388
f 389/389/389 392/392/392 391/391/391
f 393/393/393 391/391/391 392/392/392
f 393/393/393 394/394/394 391/391/391
f 394/394/394 393/393/393 395/395/395
f 396/396/396 398/398/398 397/397/397
f 399/399/399 401/401/401 400/400/400
f 402/402/402 404/404/404 403/403/403
f 402/402/402 403/403/403 405/405/405
f 406/406/406 408/408/408 407/407/407
f 406/406/406 407/407/407 409/409/409
f 410/410/410 406/406/406 409/409/409
f 410/410/410 411/411/411 406/406/406
f 412/412/412 414/414/414 413/413/413
f 412/412/412 413/413/413 415/415/415
f 416/416/416 418/418/418 417/417/417
f 416/416/416 417/417/417 419/419/419
f 420/420/420 418/418/418 416/416/416
f 420/420/420 416/416/416 421/421/421
f 422/422/422 424/424/424 423/423/423
f 425/425/425 423/423/423 426/426/426
f 427/427/427 429/429/429 428/428/428
f 430/430/430 428/428/428 431/431/431
f 432/432/432 434/434/434 433/433/433
f 432/432/432 433/433/433 435/435/435
f 436/436/436 438/438/438 437/437/437
f 436/436/436 437/437/437 439/439/439
f 440/440/440 442/442/442 441/441/441
f 443/443/443 441/441/441 444/444/444
f 445/445/445 447/447/447 446/446/446
f 445/445/445 446/446/446 448/448/448
f 449/449/449 451/451/451 450/450/450
f 449/449/449 450/450/450 452/452/452
f 453/453/453 455/455/455 454/454/454
f 453/453/453 454/454/454 456/456/456
f 457/457/457 459/459/459 458/458/458
f 457/457/457 458/458/458 460/460/460
f 461/461/461 463/463/463 462/462/462
f 461/461/461 462/462/462 464/464/464
f 465/465/465 467/467/467 466/466/466
f 465/465/465 466/466/466 468/468/468
f 469/469/469 471/471/471 470/470/470
f 469/469/469 470/470/470 472/472/472
f 473/473/473 475/475/475 474/474/474
f 473/473/473 474/474/474 476/476/476
f 477/477/477 479/479/479 478/478/478
f 480/480/480 482/482/482 481/481/481
f 483/483/483 485/485/485 484/484/484
f 483/483/483 484/484/484 486/486/486
f 487/487/487 489/489/489 488/488/488
f 490/490/490 492/492/492 491/491/491
f 493/493/493 495/495/495 494/494/494
f 496/496/496 498/498/498 497/497/497
f 496/496/496 497/497/497 499/499/499
f 500/500/500 502/502/502 501/501/501
f 503/503/503 505/505/505 504/504/504
f 503/503/503 504/504/504 506/506/506
f 507/507/507 509/509/509 508/508/508
f 507/507/507 508/508/508 510/510/510
f 511/511/511 513/513/513 512/512/512
f 514/514/514 516/516/516 515/515/515
f 517/517/517 519/519/519 518/518/518
f 517/517/517 518/518/518 520/520/520
f 521/521/521 523/523/523 522/522/522
f 521/521/521 522/522/522 524/524/524
f 525/525/525 527/527/527 526/526/526
f 525/525/525 526/526/526 528/528/528
f 529/529/529 531/531/531 530/530/530
f 529/529/529 530/530/530 532/532/532
f 533/533/533 535/535/535 534/534/534
f 533/533/533 534/534/534 536/536/536
f 537/537/537 539/539/539 538/538/538
f 540/540/540 542/542/542 541/541/541
f 543/543/543 545/545/545 544/544/544
f 546/546/546 548/548/548 547/547/547
f 549/549/549 551/551/551 550/550/550
f 552/552/552 554/554/554 553/553/553
f 555/555/555 557/557/557 556/556/556
f 558/558/558 560/560/560 559/559/559
f 561/561/561 563/563/563 562/562/562
f 561/561/561 562/562/562 564/564/564
f 565/565/565 567/567/567 566/566/566
f 568/568/568 570/570/570 569/569/569
f 571/571/571 573/573/573 572/572/572
f 574/574/574 576/576/576 575/575/575
f 577/577/577 579/579/579 578/578/578
f 577/577/577 578/578/578 580/580/580
f 581/581/581 583/583/583 582/582/582
f 581/581/581 582/582/582 584/584/584
f 585/585/585 582/582/582 583/583/583
f 585/585/585 583/583/583 586/586/586
f 587/587/587 585/585/585 586/586/586
f 587/587/587 586/586/586 588/588/588
f 589/589/589 591/591/591 590/590/590
f 589/589/589 590/590/590 592/592/592
f 590/590/590 593/593/593 592/592/592
f 590/590/590 594/594/594 593/593/593
f 595/595/595 593/593/593 594/594/594
f 595/595/595 596/596/596 593/593/593
f 597/597/597 599/599/599 598/598/598
f 597/597/597 598/598/598 600/600/600
f 601/601/601 603/603/603 602/602/602
f 601/601/601 602/602/602 604/604/604
f 605/605/605 607/607/607 606/606/606
f 605/605/605 606/606/606 608/608/608
f 609/609/609 611/611/611 610/610/610
f 609/609/609 610/610/610 612/612/612
f 613/613/613 615/615/615 614/614/614
f 613/613/613 614/614/614 616/616/616
f 617/617/617 619/619/619 618/618/618
f 617/617/617 618/618/618 620/620/620
f 621/621/621 623/623/623 622/622/622
f 621/621/621 622/622/622 624/624/624
f 625/625/625 627/627/627 626/626/626
f 625/625/625 626/626/626 628/628/628
f 629/629/629 626/626/626 627/627/627
f 629/629/629 627/627/627 630/630/630
f 631/631/631 629/629/629 630/630/630
f 631/631/631 630/630/630 632/632/632
f 633/633/633 635/635/635 634/634/634
f 633/633/633 634/634/634 636/636/636
f 634/634/634 637/637/637 636/636/636
f 634/634/634 638/638/638 637/637/637
f 639/639/639 637/637/637 638/638/638
f 639/639/639 640/640/640 637/637/637
f 641/641/641 643/643/643 642/642/642
f 641/641/641 642/642/642 644/644/644
f 645/645/645 647/647/647 646/646/646
f 645/645/645 646/646/646 648/648/648
f 649/649/649 651/651/651 650/650/650
f 649/649/649 650/650/650 652/652/652
f 653/653/653 655/655/655 654/654/654
f 653/653/653 654/654/654 656/656/656
f 657/657/657 659/659/659 658/658/658
f 657/657/657 658/658/658 660/660/660
f 661/661/661 663/663/663 662/662/662
f 661/661/661 662/662/662 664/664/664
f 665/665/665 667/667/667 666/666/666
f 665/665/665 666/666/666 668/668/668
