# Generated from legacy Unity YAML Mesh assets without Unity.
mtllib gun20.mtl

o gun20
v 0.0127175031 -0.180667832 -0.279758275
v 0.0576892532 -0.253865868 -0.181294262
v 0.0566040017 -0.011540073 -0.168539226
v 0.0127175031 -0.25492236 -0.290058792
v -0.0322544985 -0.253865868 -0.181294262
v -0.0311692469 -0.011540073 -0.168539226
v 0.0455387533 -0.430865616 -0.21936506
v -0.059062995 -0.368329376 -0.2510975
v -0.0455389954 -0.430865616 -0.21936506
v 0.0590630025 -0.368329376 -0.251097739
v -0.0989222452 -0.309086114 -0.321026266
v 0.0989222527 -0.309086353 -0.321026266
v -0.0902129933 -0.244214848 -0.305941284
v 0.0902130008 -0.244215086 -0.305941284
v -0.0455389954 -0.430865616 -0.21936506
v -0.109885246 -0.362222344 -0.14048928
v -0.0847239941 -0.430865616 -0.14048928
v -0.059062995 -0.368329376 -0.2510975
v 3.26430372e-09 -0.362219602 -0.0345737264
v 3.26430372e-09 -0.430865616 -0.0616134927
v -0.184042245 -0.309086114 -0.132887542
v 3.26430372e-09 -0.362219602 -0.0345737264
v 3.26430372e-09 -0.309086353 0.0238057449
v -0.0989222452 -0.309086114 -0.321026266
v -0.167838752 -0.244214848 -0.132887542
v 3.26430372e-09 -0.244215086 0.00872076303
v 3.26430372e-09 -0.309086353 0.0238057449
v -0.0902129933 -0.244214848 -0.305941284
v 3.26430372e-09 -0.430865616 -0.0616134927
v 0.109885 -0.362222344 -0.14048928
v 0.0847237557 -0.430865616 -0.14048928
v 3.26430372e-09 -0.362219602 -0.0345737264
v 0.0590630025 -0.368329376 -0.251097739
v 0.0455387533 -0.430865616 -0.21936506
v 0.0989222527 -0.309086353 -0.321026266
v 0.184042245 -0.309086353 -0.132887542
v 0.0902130008 -0.244215086 -0.305941284
v 0.167838752 -0.244215086 -0.132887542
v 3.26430372e-09 -0.244215086 0.00872076303
v 3.26430372e-09 -0.309086353 0.0238057449
v 3.26430372e-09 -0.362219602 -0.0345737264
v 3.26430372e-09 -0.309086353 0.0238057449
v -0.0455389954 -0.430865616 -0.21936506
v 3.26430372e-09 -0.388954371 -0.136293471
v 0.0455387533 -0.430865616 -0.21936506
v -0.0847239941 -0.430865616 -0.14048928
v 3.26430372e-09 -0.430865616 -0.0616134927
v 0.0847237557 -0.430865616 -0.14048928
v 0.0902130008 -0.244215086 -0.305941284
v 3.26430372e-09 -0.241446808 -0.14048928
v -0.0902129933 -0.244214848 -0.305941284
v -0.167838752 -0.244214848 -0.132887542
v 0.167838752 -0.244215086 -0.132887542
v 3.26430372e-09 -0.244215086 0.00872076303
v -0.0336754955 -0.650081575 -0.196245253
v 3.26430372e-09 -0.464348823 -0.134936988
v 0.0336752534 -0.650081575 -0.196245253
v -0.0673509985 -0.650081277 -0.137918293
v 0.0673505068 -0.650081277 -0.137918293
v -2.46795821e-07 -0.650081277 -0.0795907304
v -0.0673509985 -0.650081277 -0.137918293
v 0.0673505068 -0.650081277 -0.137918293
v -0.0336754955 -0.422429353 -0.196366966
v 0.0336752534 -0.599980593 -0.196366966
v 0.0336752534 -0.422429353 -0.196366966
v -0.0336754955 -0.599980593 -0.196366966
v 0.0503400043 -0.626047313 -0.225230992
v -0.0503402464 -0.626047313 -0.22523123
v 0.0336752534 -0.650081575 -0.196245253
v -0.0336754955 -0.650081575 -0.196245253
v -0.0673507452 -0.422429353 -0.138039768
v -0.0336754955 -0.599980593 -0.196366966
v -0.0336754955 -0.422429353 -0.196366966
v -0.0673507452 -0.599980593 -0.138039768
v 3.26430372e-09 -0.422429353 -0.0797125623
v -2.46795821e-07 -0.599980593 -0.0797125623
v -0.0503402464 -0.626047313 -0.22523123
v -0.100680247 -0.626047075 -0.138039768
v -2.46795821e-07 -0.626047313 -0.0508485362
v -0.100680247 -0.626047075 -0.138039768
v 0.0673505068 -0.422429353 -0.138039768
v -2.46795821e-07 -0.599980593 -0.0797125623
v 3.26430372e-09 -0.422429353 -0.0797125623
v 0.0673505068 -0.599980593 -0.138039768
v 0.0336752534 -0.422429353 -0.196366966
v 0.0336752534 -0.599980593 -0.196366966
v -2.46795821e-07 -0.626047313 -0.0508485362
v 0.100680001 -0.626047313 -0.138039768
v -2.46795821e-07 -0.626047313 -0.0508485362
v 0.0503400043 -0.626047313 -0.225230992
v -0.100680247 -0.626047075 -0.138039768
v -0.0336754955 -0.650081575 -0.196245253
v -0.0503402464 -0.626047313 -0.22523123
v -0.0673509985 -0.650081277 -0.137918293
v -2.46795821e-07 -0.626047313 -0.0508485362
v -2.46795821e-07 -0.650081277 -0.0795907304
v 0.100680001 -0.626047313 -0.138039768
v -2.46795821e-07 -0.650081277 -0.0795907304
v -2.46795821e-07 -0.626047313 -0.0508485362
v 0.0673505068 -0.650081277 -0.137918293
v 0.0503400043 -0.626047313 -0.225230992
v 0.0336752534 -0.650081575 -0.196245253
v 0.0555175021 0.576060891 -0.112813525
v -0.0302682482 0.543209434 -0.213920057
v 0.0555175021 0.543209434 -0.213920057
v -0.0302682482 0.576060891 -0.112813525
v -0.0289787464 0.436899632 -0.213920057
v 0.0542277545 0.436899632 -0.213920057
v -0.0302682482 0.404048175 -0.112813525
v 0.0555175021 0.404048175 -0.112813525
v -0.0302682482 0.490054458 -0.0503260419
v 0.0555175021 0.490054458 -0.0503260419
v 0.0555175021 0.490054458 -0.0503260419
v -0.0302682482 0.490054458 -0.0503260419
v 0.0555175021 0.543209434 -0.213920057
v 0.0897825062 0.490054458 -0.140758574
v 0.0555175021 0.576060891 -0.112813525
v 0.0542277545 0.436899632 -0.213920057
v 0.0555175021 0.404048175 -0.112813525
v 0.0555175021 0.490054458 -0.0503260419
v -0.0302682482 0.576060891 -0.112813525
v -0.0645332485 0.490054458 -0.140758574
v -0.0302682482 0.543209434 -0.213920057
v -0.0289787464 0.436899632 -0.213920057
v -0.0302682482 0.404048175 -0.112813525
v -0.0302682482 0.490054458 -0.0503260419
v -0.0141144972 0.0347704701 0.165026724
v -0.016851997 0.0811191648 0.0635414794
v -0.0215477459 0.0879347175 0.176976204
v -0.0141144972 -0.0148958145 0.212568462
v -0.0293959975 -0.0121915517 0.258489966
v -0.0212997459 -0.00203229766 -0.0222009942
v -0.0212997459 0.0963839144 0.00373298675
v -0.0326137468 -0.0496626087 -0.0805990025
v -0.0212997459 0.178832158 0.00230521709
v -0.0326137468 0.29744646 -0.0931562707
v 0.0396350026 0.0347704701 0.165026724
v 0.0470685028 0.0879347175 0.176976204
v 0.0423725024 0.0811191648 0.0635414794
v 0.0396350026 -0.0148958145 0.212568462
v 0.0549165048 -0.0121915517 0.258489966
v 0.0468202531 -0.00203229766 -0.0222009942
v 0.0468202531 0.0963839144 0.00373298675
v 0.0581342541 -0.0496626087 -0.0805990025
v 0.0468202531 0.178832158 0.00230521709
v 0.0581342541 0.29744646 -0.0931562707
v -0.016851997 0.0811191648 0.0635414794
v 0.0468202531 0.0963839144 0.00373298675
v 0.0423725024 0.0811191648 0.0635414794
v -0.0212997459 0.0963839144 0.00373298675
v 0.0470685028 0.0879347175 0.176976204
v -0.0215477459 0.0879347175 0.176976204
v 0.0549165048 -0.0121915517 0.258489966
v -0.0293959975 -0.0121915517 0.258489966
v 0.0396350026 0.0347704701 0.165026724
v -0.0141144972 -0.0148958145 0.212568462
v 0.0396350026 -0.0148958145 0.212568462
v -0.0141144972 0.0347704701 0.165026724
v -0.0293959975 -0.0121915517 0.258489966
v 0.0549165048 -0.0121915517 0.258489966
v 0.0468202531 -0.00203229766 -0.0222009942
v -0.0212997459 -0.00203229766 -0.0222009942
v 0.0581342541 -0.0496626087 -0.0805990025
v -0.0326137468 -0.0496626087 -0.0805990025
v 0.0468202531 0.0963839144 0.00373298675
v -0.0212997459 0.178832158 0.00230521709
v 0.0468202531 0.178832158 0.00230521709
v -0.0212997459 0.0963839144 0.00373298675
v -0.0326137468 0.29744646 -0.0931562707
v 0.0581342541 0.29744646 -0.0931562707
v -0.0520694964 -0.0124070821 -0.168412983
v -0.0376052484 0.369985193 -0.160067976
v -0.0382579975 0.322232693 -0.100714974
v -0.0346164964 0.42490837 -0.0804960057
v 0.0127175031 0.521387458 -0.133558214
v -0.0200362466 0.430286378 -0.228351533
v -0.0228389967 0.53740418 -0.0188782737
v 0.0127175031 0.609013438 0.00297076255
v 0.0127175031 0.536877394 -0.262707531
v -0.0390987471 0.406087607 -0.0574332997
v 0.0127175031 0.388471454 -0.0361140296
v 0.0127175031 0.307108372 -0.0723209903
v -0.0536422469 -0.253989607 -0.0812207982
v 0.0127175031 -0.254450828 -0.0556459948
v -0.0427612476 0.541057229 -0.0059280321
v -0.0602919981 0.522153974 0.0308572128
v 0.0127175031 0.649867654 0.0338149741
v -0.0424789973 0.574729681 0.0771399811
v 0.0127175031 0.512742639 0.0774204805
v -0.0424789973 0.574729681 0.0771399811
v 0.0679137558 0.574729681 0.0771399811
v -0.0408384949 0.417209953 -0.241630971
v -0.00188099686 0.546031713 -0.282972753
v 0.0127175031 0.414094418 -0.275777042
v 0.0127175031 0.344904155 -0.225346267
v 0.0127175031 0.516511917 -0.29129225
v 0.027316004 0.546031713 -0.282972753
v -0.0424789973 0.574729681 0.0771399811
v 0.0127175031 0.257062882 -0.208448231
v 0.0127175031 0.000834447332 -0.234470546
v 0.0127175031 -0.14962931 -0.295429289
v -0.035241995 -0.150861815 -0.236154974
v 0.0128025031 -0.191754594 -0.286019981
v 0.0775045007 -0.0124070821 -0.168412983
v 0.0127175031 0.257062882 -0.208448231
v 0.0630400032 0.369985193 -0.160067976
v 0.0636855066 0.322232693 -0.100714974
v 0.0662732497 0.417209953 -0.241630971
v 0.0600512549 0.42490837 -0.0804960057
v 0.0454712547 0.430286378 -0.228351533
v 0.0482737534 0.53740418 -0.0188782737
v 0.0127175031 0.536877394 -0.262707531
v 0.0645337552 0.406087607 -0.0574332997
v 0.0127175031 0.388471454 -0.0361140296
v 0.0127175031 0.307108372 -0.0723209903
v 0.0790772513 -0.253989607 -0.0812207982
v 0.0127175031 -0.254450828 -0.0556459948
v 0.068196252 0.541057229 -0.0059280321
v 0.0857270062 0.522153974 0.0308572128
v 0.0127175031 0.649867654 0.0338149741
v 0.0679137558 0.574729681 0.0771399811
v 0.0127175031 0.512742639 0.0774204805
v 0.0679137558 0.574729681 0.0771399811
v 0.0127175031 0.609013438 0.00297076255
v 0.027316004 0.546031713 -0.282972753
v 0.0127175031 0.414094418 -0.275777042
v 0.0127175031 0.344904155 -0.225346267
v 0.0127175031 0.516511917 -0.29129225
v 0.0790772513 -0.254450828 -0.170584261
v 0.0127175031 -0.0958693177 -0.193692029
v 0.0127175031 -0.254450828 -0.208897293
v 0.0606767535 -0.150861815 -0.236154974
v 0.0127175031 0.536877394 -0.262707531
v -0.00188099686 0.546031713 -0.282972753
v -0.0536422469 -0.254450828 -0.170584261
v 0.0127175031 -0.0958693177 -0.193692029
v 0.0127175031 -0.254450828 -0.208897293
v 0.0128025031 -0.191754594 -0.286019981
v -0.035241995 -0.150861815 -0.236154974
v 0.0606767535 -0.150861815 -0.236154974
v 0.0127175031 -0.0958693177 -0.193692029
v -0.0520694964 -0.0124070821 -0.168412983
v 0.0775045007 -0.0124070821 -0.168412983
v 0.0679137558 0.574729681 0.0771399811
v 0.0127175031 0.512742639 0.0774204805
v -0.0424789973 0.574729681 0.0771399811
v -0.00188099686 0.546031713 -0.282972753
v 0.0127175031 0.516511917 -0.29129225
v 0.027316004 0.546031713 -0.282972753
v 0.0127175031 0.649867654 0.0338149741
v 0.0679137558 0.574729681 0.0771399811
v -0.0424789973 0.574729681 0.0771399811
v -0.00188099686 0.546031713 -0.282972753
v 0.027316004 0.546031713 -0.282972753
v 0.0127175031 0.536877394 -0.262707531
vt 0.327661008 0.829994023
vt 0.287901014 0.762228012
vt 0.433804005 0.757044017
vt 0.287349999 0.835027993
vt 0.287901014 0.762228012
vt 0.433804005 0.757044017
vt 0.445161015 0.83169502
vt 0.54153502 0.887440979
vt 0.529075027 0.83169502
vt 0.432700008 0.887440979
vt 0.577953994 0.932178974
vt 0.396281004 0.932178974
vt 0.569957018 0.986330986
vt 0.40427801 0.986330986
vt 0.131766006 0.786197007
vt 0.188249007 0.721687019
vt 0.131303996 0.721687019
vt 0.188249007 0.803781986
vt 0.188251004 0.636817992
vt 0.131303996 0.65625298
vt 0.232328996 0.715380013
vt 0.188251004 0.636817992
vt 0.232328996 0.591383994
vt 0.232328996 0.861517012
vt 0.286145002 0.715380013
vt 0.286145002 0.603897989
vt 0.232328996 0.591383994
vt 0.286145002 0.849002004
vt 0.131406993 0.656331003
vt 0.188352004 0.721764028
vt 0.131406993 0.721764028
vt 0.188354 0.636895001
vt 0.188352004 0.803858995
vt 0.131869003 0.786274016
vt 0.232431993 0.861594021
vt 0.232431993 0.715457976
vt 0.286247998 0.849080026
vt 0.286247998 0.715457976
vt 0.286247998 0.603976011
vt 0.232431993 0.591461003
vt 0.188354 0.636895001
vt 0.232431993 0.591461003
vt 0.131772995 0.880648017
vt 0.137188002 0.83356601
vt 0.0945840031 0.854324996
vt 0.170570001 0.859766006
vt 0.158770993 0.803071976
vt 0.101379998 0.810792983
vt 0.716517985 0.983610988
vt 0.664543986 0.892843008
vt 0.611922026 0.983237028
vt 0.567260981 0.888083994
vt 0.761857986 0.888779998
vt 0.664838016 0.810527027
vt 0.995065987 0.641080976
vt 0.960799992 0.660458028
vt 0.995518029 0.679036021
vt 0.961925983 0.622564971
vt 0.962810993 0.698347986
vt 0.929592013 0.660821974
vt 0.961925983 0.622564971
vt 0.962810993 0.698347986
vt 0.0207560007 0.734691024
vt 0.0909290016 0.908454001
vt 0.0909290016 0.734691024
vt 0.0207560007 0.908454001
vt 0.108291999 0.939329982
vt 0.00339299999 0.939329982
vt 0.0909290016 0.978932023
vt 0.0207560007 0.978932023
vt 0.384676009 0.930661023
vt 0.211018994 0.986446023
vt 0.384676009 0.986446023
vt 0.211018994 0.930661023
vt 0.384676009 0.874876022
vt 0.211018994 0.874876022
vt 0.179441005 0.997322977
vt 0.179441005 0.930661023
vt 0.179441005 0.863286972
vt 0.179441005 0.930661023
vt 0.384676009 0.930661023
vt 0.211018994 0.874876022
vt 0.384676009 0.874876022
vt 0.211018994 0.930661023
vt 0.384676009 0.986446023
vt 0.211018994 0.986446023
vt 0.179441005 0.863286972
vt 0.179441005 0.930661023
vt 0.179441005 0.863286972
vt 0.179441005 0.997322977
vt 0.179441005 0.930661023
vt 0.140349001 0.978353977
vt 0.179441005 0.997322977
vt 0.140349001 0.930661023
vt 0.179441005 0.863286972
vt 0.140349001 0.882968009
vt 0.179441005 0.930661023
vt 0.140349001 0.882968009
vt 0.179441005 0.863286972
vt 0.140349001 0.930661023
vt 0.179441005 0.997322977
vt 0.140349001 0.978353977
vt 0.101395003 0.502683997
vt 0.199474007 0.581827998
vt 0.199474007 0.502683997
vt 0.101395003 0.581827998
vt 0.297432989 0.581040025
vt 0.297553003 0.503872991
vt 0.395633012 0.581827998
vt 0.395633012 0.502682984
vt 0.493712008 0.581827998
vt 0.493712008 0.502682984
vt 0.0033160001 0.502683997
vt 0.0033160001 0.581827998
vt 0.0689989999 0.586183012
vt 0.0685480013 0.654577971
vt 0.133460999 0.634021997
vt 0.00373800006 0.632906973
vt 0.0278929994 0.709447026
vt 0.108011998 0.710120976
vt 0.0278949998 0.709451973
vt 0.0684240013 0.654797971
vt 0.00379500003 0.633047998
vt 0.0690110028 0.586516976
vt 0.133416995 0.634163022
vt 0.108006999 0.71013999
vt 0.817544997 0.880424023
vt 0.88530302 0.845987022
vt 0.807862997 0.84424299
vt 0.786680996 0.915636003
vt 0.753723025 0.913736999
vt 0.946087003 0.90012902
vt 0.925675988 0.833887994
vt 0.988088012 0.930615008
vt 0.924085975 0.777751029
vt 0.985810995 0.694073975
vt 0.81754601 0.880424023
vt 0.807862997 0.844241977
vt 0.88530302 0.845987022
vt 0.786680996 0.915636003
vt 0.753723025 0.913736999
vt 0.946087003 0.90012902
vt 0.925675988 0.833887994
vt 0.988088012 0.930615008
vt 0.924085975 0.777751029
vt 0.985810995 0.694073021
vt 0.810595989 0.942414999
vt 0.765910029 0.988516986
vt 0.810599029 0.985292971
vt 0.765905976 0.939198017
vt 0.892872989 0.988686979
vt 0.892868996 0.939009011
vt 0.986348987 0.994361997
vt 0.986344993 0.933319986
vt 0.590982974 0.558678985
vt 0.541175008 0.519782007
vt 0.541194975 0.558704972
vt 0.590963006 0.519755006
vt 0.507856011 0.508732021
vt 0.507888019 0.569788992
vt 0.729165018 0.563811004
vt 0.729139984 0.514481008
vt 0.783742011 0.571976006
vt 0.783707976 0.506259978
vt 0.540504992 0.577630997
vt 0.600305021 0.627031028
vt 0.600305021 0.577630997
vt 0.540504992 0.627031028
vt 0.710720003 0.635236025
vt 0.710720003 0.569427013
vt 0.466924995 0.738085985
vt 0.769751012 0.728842974
vt 0.732795 0.685580015
vt 0.813346982 0.67128098
vt 0.88894397 0.714290023
vt 0.817516029 0.788613021
vt 0.901413023 0.625235975
vt 0.957647979 0.607243001
vt 0.901060998 0.815575004
vt 0.798900008 0.653720021
vt 0.770650983 0.619695008
vt 0.720062971 0.643944979
vt 0.292614996 0.680540025
vt 0.292614996 0.62450999
vt 0.900206983 0.60956198
vt 0.889997005 0.585833013
vt 0.989679992 0.583059013
vt 0.930768013 0.549090028
vt 0.862429023 0.525011003
vt 0.930768013 0.549090028
vt 0.941186011 0.519967973
vt 0.80667001 0.794505
vt 0.900734007 0.828181982
vt 0.804820001 0.825797975
vt 0.750571012 0.786257029
vt 0.885195971 0.837890983
vt 0.907097995 0.833316028
vt 0.930768013 0.549090028
vt 0.681698024 0.773007989
vt 0.480800003 0.798206985
vt 0.362827986 0.841206014
vt 0.365828007 0.794335008
vt 0.336542994 0.833828986
vt 0.466924995 0.738085985
vt 0.681698024 0.773007989
vt 0.769751012 0.728842974
vt 0.732795 0.685580015
vt 0.80667001 0.794505
vt 0.813346982 0.67128098
vt 0.817516029 0.788613021
vt 0.901413023 0.625235975
vt 0.901060998 0.815575004
vt 0.798901021 0.653720021
vt 0.770650983 0.619695008
vt 0.720062971 0.643944979
vt 0.292614996 0.680540025
vt 0.292614996 0.62450999
vt 0.900206983 0.60956198
vt 0.889997005 0.585833013
vt 0.989679992 0.583059013
vt 0.930768013 0.549090028
vt 0.862429023 0.525011003
vt 0.930768013 0.549090028
vt 0.957647979 0.607243001
vt 0.900734007 0.828181982
vt 0.804820001 0.825797975
vt 0.750571012 0.786257029
vt 0.885195971 0.837890983
vt 0.292614996 0.751295984
vt 0.386272013 0.782477975
vt 0.292614996 0.799439013
vt 0.365828007 0.794335008
vt 0.901060998 0.815575004
vt 0.900734007 0.828181982
vt 0.292614996 0.751295984
vt 0.386272013 0.782477975
vt 0.292614996 0.799439013
vt 0.697318971 0.795427978
vt 0.709559023 0.830914021
vt 0.734853983 0.794092
vt 0.748860002 0.830552995
vt 0.766520977 0.874799013
vt 0.796496987 0.829966009
vt 0.930768013 0.549090028
vt 0.862429023 0.525011003
vt 0.941186011 0.519967973
vt 0.907097995 0.833316028
vt 0.885195971 0.837890983
vt 0.900734007 0.828181982
vt 0.989679992 0.583059013
vt 0.930768013 0.549090028
vt 0.941186011 0.519967973
vt 0.907097995 0.833316028
vt 0.900734007 0.828181982
vt 0.901060998 0.815575004
vn 0 0.0805208576 -0.996752924
vn 0.917914139 0.0319490001 -0.395490702
vn 0.91626077 0.0251468813 -0.399792241
vn 0 0.137403319 -0.990515183
vn -0.917913327 0.0319491338 -0.395492575
vn -0.916259942 0.0251469771 -0.399794132
vn -1.01629496e-06 -0.452504047 -0.891762349
vn -1.16117018e-06 -0.595851815 -0.8030944
vn 0 -0.452502696 -0.891763035
vn -1.24423847e-06 -0.703526198 -0.710669325
vn -7.37344184e-07 -0.518055235 -0.855347165
vn -2.5509239e-07 -0.218751784 -0.975780537
vn 2.85512145e-07 0.226494135 -0.974012529
vn 2.99294008e-07 0.226494173 -0.97401252
vn -0.851653849 -0.34631545 -0.393384457
vn -0.782782645 -0.607703648 0.133968678
vn -0.817987423 -0.313673721 0.482188109
vn -0.672672596 -0.680725803 -0.290041305
vn -0.664935013 -0.259784611 0.700266652
vn -0.654727637 -0.277019929 0.703272124
vn -0.83328738 -0.43449863 0.341823175
vn -0.488383074 -0.680200897 0.546633985
vn -0.497214554 -0.641658612 0.583996501
vn -0.893187953 -0.199544772 -0.402985316
vn -0.971020907 0.238792075 0.00983583228
vn -0.637556211 0.167066386 0.752071074
vn -0.638337777 0.174345305 0.749752357
vn -0.891535442 0.212686748 -0.399911119
vn 0.664935914 -0.259784574 0.700265811
vn 0.742736634 -0.652913022 0.148481912
vn 0.930216169 -0.367008732 0.00157142345
vn 0.667647948 -0.272846392 0.692676739
vn 0.780791257 -0.522633125 -0.342373523
vn 0.82586665 -0.386794657 -0.410285473
vn 0.793560289 -0.498868742 -0.348413613
vn 0.901417437 -0.296380863 0.315602581
vn 0.889898368 0.217495592 -0.400969528
vn 0.93470786 0.233470579 0.267978928
vn 0.637556356 0.16706639 0.752070951
vn 0.638337925 0.174345277 0.749752238
vn 0.488382127 -0.680202319 0.546633062
vn 0.497213941 -0.641658871 0.583996737
vn 0.209718625 -0.914363535 0.346348704
vn 0 -1 0
vn -0.209718859 -0.914363331 0.346349101
vn 0.44482557 -0.886363939 -0.128410204
vn 0 -0.872055342 -0.489407274
vn -0.444826607 -0.886363476 -0.128409803
vn 0.0082159816 0.999891212 -0.0122500096
vn 8.49703291e-07 1 2.92410349e-07
vn -0.00821392115 0.999891232 -0.0122496926
vn -0.0162784789 0.999856601 0.00466776581
vn 0.0162799151 0.999856579 0.00466742004
vn 7.10138611e-07 0.999827939 0.0185497018
vn 0.467925956 -0.352371038 0.810481308
vn 0 -1 3.06570399e-06
vn -0.467926928 -0.352370482 0.810480989
vn 0.824324457 -0.306559104 0.475931409
vn -0.824326414 -0.306557564 0.475929011
vn 0 -0.285579416 -0.958355048
vn 0.63865165 -0.219753003 -0.737450125
vn -0.638651881 -0.219751369 -0.737450412
vn 0 0 -1
vn 0 0.0755087851 -0.997145137
vn 0 0 -1
vn 3.64655451e-07 0.284579972 -0.958652304
vn 1.68980379e-06 0.273279251 -0.961934744
vn 1.71957949e-06 -0.282800568 -0.959178731
vn 9.05670138e-07 -0.769794383 -0.638291945
vn 0 -0.769795673 -0.63829039
vn -1 0 1.42376948e-06
vn -0.863552816 0.0755093298 -0.498572838
vn -0.866025235 0 -0.500000292
vn -0.888644687 0.165949635 0.427517648
vn -0.654652738 4.61000852e-07 0.755929753
vn -0.638767782 0.218956214 0.737586535
vn -0.580431642 0.742157641 -0.33511363
vn -0.614460912 0.785670885 0.0718265145
vn -0.501998018 0.641865785 0.579660508
vn -0.501998018 0.641865785 0.579660508
vn 0.866024708 -4.06564806e-07 0.500001205
vn 0.653582742 0.0571488789 0.754694378
vn 0.654653404 -9.22002641e-07 0.755929177
vn 0.978634763 0.182753876 0.0942073281
vn 0.866025211 0 -0.500000333
vn 0.830217006 0.284580003 -0.479326553
vn 0.501998381 0.641865628 0.579660366
vn 0.615457229 0.78693699 0.044074636
vn 0.501998063 0.641865999 0.579660231
vn 0.580434244 0.742155138 -0.335114666
vn -0.58448666 -0.810323049 0.041855706
vn -0.553466648 -0.769133966 -0.319542817
vn -0.553465888 -0.769135065 -0.319541489
vn -0.546502055 -0.756036524 0.36020033
vn -0.485629844 -0.670608658 0.560756349
vn -0.485630249 -0.670608207 0.560756537
vn 0.561497172 -0.777226311 0.283972158
vn 0.485627051 -0.670611761 0.560755056
vn 0.485627815 -0.670609244 0.560757405
vn 0.584113102 -0.810266401 -0.047751903
vn 0.553464137 -0.769136035 -0.319542187
vn 0.55346734 -0.769133733 -0.319542178
vn 0 0.997071187 0.0764790727
vn 0 0.761694623 -0.647936186
vn 0 0.385130501 -0.922862122
vn 0 0.851600588 0.524191223
vn 0 -0.376521374 -0.926407931
vn 0 -0.764714634 -0.644369094
vn 0 -0.996705885 0.0811010374
vn 0 -0.851601089 0.524190409
vn 0 -0.587786854 0.80901583
vn 0 -0.587786854 0.80901583
vn 0 0.587786188 0.809016315
vn 0 0.587786188 0.809016315
vn 0.935101399 0.20258635 -0.290764758
vn 0.999983728 -0.00335313943 -0.00461520235
vn 0.93512423 0.336978327 0.109491014
vn 0.930654459 -0.21507014 -0.296018772
vn 0.935101062 -0.33913722 0.102819993
vn 0.935124306 0 0.354319816
vn -0.935124243 0.336978295 0.109491004
vn -0.999983734 -0.00335250023 -0.00461432257
vn -0.93510142 0.202587413 -0.290763948
vn -0.930655333 -0.215068832 -0.296016973
vn -0.935101083 -0.339136778 0.102821255
vn -0.935124319 0 0.354319783
vn -0.999057189 -0.0429612842 -0.0062498413
vn -0.999241338 -0.0278057714 0.0272688091
vn -0.97843719 -0.142709302 -0.149314168
vn -0.960982415 -0.149924598 -0.232455186
vn -0.937651828 -0.172268437 -0.301881825
vn -0.996327962 -0.00824753519 0.085220715
vn -0.99033356 -0.0216542855 0.137005594
vn -0.99062146 -0.00309149186 0.136600019
vn -0.992241223 0.00404557347 0.124261778
vn -0.992377893 0.00445521417 0.123151407
vn 0.999057108 -0.0429630146 -0.00625095957
vn 0.978436463 -0.142712655 -0.149315724
vn 0.999241322 -0.0278068 0.027268347
vn 0.960981679 -0.149927336 -0.232456461
vn 0.937651489 -0.172270635 -0.301881621
vn 0.996327961 -0.00824752914 0.0852207265
vn 0.990333558 -0.0216542881 0.137005604
vn 0.99062146 -0.00309149186 0.136600019
vn 0.992241223 0.00404557347 0.124261778
vn 0.992377893 0.00445521417 0.123151407
vn 0 0.998826251 0.0484367591
vn 0 0.96893908 0.247299534
vn 0 0.998812826 0.0487128228
vn 0 0.96893908 0.247299534
vn 0 0.958211809 0.28605966
vn 0 0.806498661 0.591235917
vn 0 0.631344241 0.775502707
vn 0 0.631344241 0.775502707
vn 0 -0.976337705 -0.216251442
vn 0 -0.824894773 -0.565286312
vn 0 -0.968261378 -0.249939801
vn 0 -0.997449579 0.0713746225
vn 0 -0.998270551 0.0587869644
vn 0 -0.998270551 0.0587869644
vn 0 -0.960821076 0.27716937
vn 0 -0.909437298 0.415841076
vn 0 -0.774931116 0.632045699
vn 0 -0.774931116 0.632045699
vn 0 0.0173145668 0.999850092
vn 0 0.327642241 0.944801864
vn 0 0.529382523 0.848383253
vn 0 0.0173145668 0.999850092
vn 0 0.626975289 0.779039144
vn 0 0.626975289 0.779039144
vn -0.826187026 0.0848956634 -0.556962947
vn -0.945331967 0.0741527066 -0.317567077
vn -0.94742081 0.000338449887 0.319990147
vn -0.940964959 0.234994883 -0.243643903
vn 0 0.919663801 -0.392706624
vn -0.927903574 0.353196799 0.119360707
vn -0.790849171 0.415173292 -0.449654007
vn -0.0987746609 0.810972525 -0.576686336
vn -0.904931292 0.353640406 0.236723086
vn -0.907432748 -0.290678792 0.303433104
vn -0.489727736 -0.523672457 0.697089594
vn -0.424296778 0.00881564688 0.905480275
vn -0.774186959 0.0369681364 0.631876499
vn -0.359308179 0.0276988889 0.932807807
vn -0.847339072 0.320995304 -0.423058521
vn -0.877111613 -0.262217678 0.40238925
vn -0.693218095 0.712509505 0.108530543
vn -0.67702331 0.394932911 0.621021283
vn -0.394780148 -0.438119502 0.807588965
vn -0.519049454 -0.458925707 0.721092824
vn 0 0.303044746 0.952976328
vn -0.898273394 -0.185185106 -0.398511462
vn -0.748028817 0.048716963 -0.661875779
vn -0.546651662 -0.249291849 -0.799390727
vn -0.442009995 -0.620524236 -0.64774751
vn -0.485805654 0.00608360228 -0.874045683
vn 0 0.814436046 -0.580253331
vn 0 0.499516358 0.866304455
vn -0.600886641 0.0190631389 -0.799106902
vn 0 0.209144535 -0.977884739
vn 0 0.297818071 -0.954622646
vn -0.772248043 0.128649753 -0.622159305
vn 0 -0.217993012 -0.97595033
vn 0.826205205 0.0848968316 -0.556935802
vn 0.679730193 0.0547566754 -0.731415457
vn 0.945343762 0.0741462237 -0.317533476
vn 0.947421092 0.000338817336 0.31998931
vn 0.89827378 -0.185185158 -0.39851057
vn 0.940970318 0.234977571 -0.243639901
vn 0.927904191 0.353195322 0.119360277
vn 0.790849585 0.415172442 -0.449654065
vn 0.904931845 0.353639916 0.236721706
vn 0.907433159 -0.290693415 0.303417866
vn 0.489736201 -0.523678169 0.697079356
vn 0.424320362 0.00882044773 0.905469177
vn 0.774206228 0.0369760163 0.631852428
vn 0.359308188 0.0276988888 0.932807803
vn 0.847336987 0.320996402 -0.423061863
vn 0.877111339 -0.26221728 0.402390105
vn 0.774640339 0.513149422 -0.369607922
vn 0.842799438 0.487101818 -0.228956167
vn 0.4973732 -0.553556193 0.667978623
vn 0.519049784 -0.458923922 0.721093722
vn 0.585949101 0.488268478 -0.646728338
vn 0.788958887 0.0276342214 -0.613824262
vn 0.546653233 -0.249291621 -0.799389723
vn 0.699393181 -0.286217296 -0.654926589
vn 0.654786067 -0.113206536 -0.747288088
vn 0.958092271 0.0319632438 -0.284670954
vn 0.414662383 0.0410565299 -0.909048662
vn 0.498287154 0.0827521575 -0.863053876
vn 0.772185056 0.129359273 -0.622090361
vn 0 0.911332064 0.41167204
vn 0 0.911332064 0.41167204
vn -0.958086534 0.0319551444 -0.28469117
vn -0.414662373 0.0410565301 -0.909048666
vn -0.498287144 0.0827521581 -0.863053882
vn 0 -0.773241378 0.634111797
vn -0.101539198 -0.6043339 0.79023435
vn 0.101539295 -0.604334179 0.790234125
vn 0 -0.506903679 0.862002703
vn -0.244529821 -0.449963391 0.858916826
vn 0.244530395 -0.449963729 0.858916485
vn 0 0.0045250842 0.999989762
vn 0 0.0045250842 0.999989762
vn 0 0.0045250842 0.999989762
vn 0 0.271260842 -0.962505873
vn 0 0.271260842 -0.962505873
vn 0 0.271260842 -0.962505873
vn 0 0.499516358 0.866304455
vn 0 0.499516358 0.866304455
vn 0 0.499516358 0.866304455
vn 0 0.911332064 0.41167204
vn 0 0.911332064 0.41167204
vn 0 0.911332064 0.41167204

g gun20_submesh_0
usemtl gun0910
f 1/1/1 3/3/3 2/2/2
f 1/1/1 2/2/2 4/4/4
f 5/5/5 1/1/1 4/4/4
f 5/5/5 6/6/6 1/1/1
f 7/7/7 9/9/9 8/8/8
f 7/7/7 8/8/8 10/10/10
f 10/10/10 8/8/8 11/11/11
f 10/10/10 11/11/11 12/12/12
f 12/12/12 11/11/11 13/13/13
f 12/12/12 13/13/13 14/14/14
f 15/15/15 17/17/17 16/16/16
f 15/15/15 16/16/16 18/18/18
f 17/17/17 19/19/19 16/16/16
f 17/17/17 20/20/20 19/19/19
f 18/18/18 16/16/16 21/21/21
f 21/21/21 16/16/16 22/22/22
f 21/21/21 22/22/22 23/23/23
f 18/18/18 21/21/21 24/24/24
f 24/24/24 21/21/21 25/25/25
f 21/21/21 26/26/26 25/25/25
f 21/21/21 27/27/27 26/26/26
f 24/24/24 25/25/25 28/28/28
f 29/29/29 31/31/31 30/30/30
f 29/29/29 30/30/30 32/32/32
f 31/31/31 33/33/33 30/30/30
f 31/31/31 34/34/34 33/33/33
f 30/30/30 33/33/33 35/35/35
f 30/30/30 35/35/35 36/36/36
f 36/36/36 35/35/35 37/37/37
f 36/36/36 37/37/37 38/38/38
f 39/39/39 36/36/36 38/38/38
f 39/39/39 40/40/40 36/36/36
f 36/36/36 41/41/41 30/30/30
f 36/36/36 42/42/42 41/41/41
f 43/43/43 45/45/45 44/44/44
f 46/46/46 43/43/43 44/44/44
f 47/47/47 46/46/46 44/44/44
f 48/48/48 47/47/47 44/44/44
f 45/45/45 48/48/48 44/44/44
f 49/49/49 51/51/51 50/50/50
f 51/51/51 52/52/52 50/50/50
f 53/53/53 49/49/49 50/50/50
f 54/54/54 50/50/50 52/52/52
f 50/50/50 54/54/54 53/53/53
f 55/55/55 57/57/57 56/56/56
f 58/58/58 55/55/55 56/56/56
f 57/57/57 59/59/59 56/56/56
f 60/60/60 61/61/61 56/56/56
f 62/62/62 60/60/60 56/56/56
f 63/63/63 65/65/65 64/64/64
f 63/63/63 64/64/64 66/66/66
f 66/66/66 64/64/64 67/67/67
f 66/66/66 67/67/67 68/68/68
f 68/68/68 67/67/67 69/69/69
f 68/68/68 69/69/69 70/70/70
f 71/71/71 73/73/73 72/72/72
f 71/71/71 72/72/72 74/74/74
f 75/75/75 71/71/71 74/74/74
f 75/75/75 74/74/74 76/76/76
f 74/74/74 72/72/72 77/77/77
f 74/74/74 77/77/77 78/78/78
f 76/76/76 74/74/74 78/78/78
f 76/76/76 80/80/80 79/79/79
f 81/81/81 83/83/83 82/82/82
f 81/81/81 82/82/82 84/84/84
f 85/85/85 81/81/81 84/84/84
f 85/85/85 84/84/84 86/86/86
f 84/84/84 82/82/82 87/87/87
f 86/86/86 84/84/84 88/88/88
f 84/84/84 89/89/89 88/88/88
f 86/86/86 88/88/88 90/90/90
f 91/91/91 93/93/93 92/92/92
f 91/91/91 92/92/92 94/94/94
f 95/95/95 91/91/91 94/94/94
f 95/95/95 94/94/94 96/96/96
f 97/97/97 99/99/99 98/98/98
f 97/97/97 98/98/98 100/100/100
f 101/101/101 97/97/97 100/100/100
f 101/101/101 100/100/100 102/102/102
f 103/103/103 105/105/105 104/104/104
f 103/103/103 104/104/104 106/106/106
f 105/105/105 107/107/107 104/104/104
f 105/105/105 108/108/108 107/107/107
f 108/108/108 109/109/109 107/107/107
f 108/108/108 110/110/110 109/109/109
f 110/110/110 111/111/111 109/109/109
f 110/110/110 112/112/112 111/111/111
f 113/113/113 103/103/103 106/106/106
f 113/113/113 106/106/106 114/114/114
f 115/115/115 117/117/117 116/116/116
f 118/118/118 115/115/115 116/116/116
f 119/119/119 118/118/118 116/116/116
f 120/120/120 119/119/119 116/116/116
f 117/117/117 120/120/120 116/116/116
f 121/121/121 123/123/123 122/122/122
f 123/123/123 124/124/124 122/122/122
f 124/124/124 125/125/125 122/122/122
f 125/125/125 126/126/126 122/122/122
f 126/126/126 121/121/121 122/122/122
f 127/127/127 129/129/129 128/128/128
f 129/129/129 127/127/127 130/130/130
f 129/129/129 130/130/130 131/131/131
f 127/127/127 128/128/128 132/132/132
f 132/132/132 128/128/128 133/133/133
f 132/132/132 133/133/133 134/134/134
f 134/134/134 133/133/133 135/135/135
f 134/134/134 135/135/135 136/136/136
f 137/137/137 139/139/139 138/138/138
f 138/138/138 140/140/140 137/137/137
f 138/138/138 141/141/141 140/140/140
f 142/142/142 139/139/139 137/137/137
f 142/142/142 143/143/143 139/139/139
f 142/142/142 144/144/144 143/143/143
f 144/144/144 145/145/145 143/143/143
f 144/144/144 146/146/146 145/145/145
f 147/147/147 149/149/149 148/148/148
f 147/147/147 148/148/148 150/150/150
f 147/147/147 151/151/151 149/149/149
f 147/147/147 152/152/152 151/151/151
f 153/153/153 151/151/151 152/152/152
f 153/153/153 152/152/152 154/154/154
f 155/155/155 157/157/157 156/156/156
f 155/155/155 156/156/156 158/158/158
f 157/157/157 159/159/159 156/156/156
f 157/157/157 160/160/160 159/159/159
f 161/161/161 155/155/155 158/158/158
f 161/161/161 158/158/158 162/162/162
f 163/163/163 161/161/161 162/162/162
f 163/163/163 162/162/162 164/164/164
f 165/165/165 167/167/167 166/166/166
f 165/165/165 166/166/166 168/168/168
f 167/167/167 169/169/169 166/166/166
f 167/167/167 170/170/170 169/169/169
f 171/171/171 173/173/173 172/172/172
f 174/174/174 172/172/172 173/173/173
f 175/175/175 172/172/172 174/174/174
f 176/176/176 172/172/172 175/175/175
f 175/175/175 174/174/174 177/177/177
f 175/175/175 177/177/177 178/178/178
f 179/179/179 176/176/176 175/175/175
f 174/174/174 173/173/173 180/180/180
f 173/173/173 181/181/181 180/180/180
f 173/173/173 182/182/182 181/181/181
f 182/182/182 173/173/173 183/183/183
f 182/182/182 183/183/183 184/184/184
f 185/185/185 174/174/174 180/180/180
f 174/174/174 185/185/185 177/177/177
f 185/185/185 180/180/180 186/186/186
f 186/186/186 180/180/180 181/181/181
f 187/187/187 185/185/185 186/186/186
f 177/177/177 185/185/185 187/187/187
f 177/177/177 187/187/187 178/178/178
f 187/187/187 186/186/186 188/188/188
f 186/186/186 181/181/181 189/189/189
f 186/186/186 189/189/189 190/190/190
f 188/188/188 189/189/189 191/191/191
f 192/192/192 176/176/176 179/179/179
f 192/192/192 179/179/179 193/193/193
f 194/194/194 192/192/192 193/193/193
f 195/195/195 192/192/192 194/194/194
f 195/195/195 172/172/172 192/192/192
f 172/172/172 176/176/176 192/192/192
f 194/194/194 193/193/193 196/196/196
f 197/197/197 196/196/196 193/193/193
f 187/187/187 198/198/198 191/191/191
f 172/172/172 195/195/195 199/199/199
f 171/171/171 172/172/172 199/199/199
f 171/171/171 199/199/199 200/200/200
f 171/171/171 200/200/200 201/201/201
f 171/171/171 201/201/201 202/202/202
f 202/202/202 201/201/201 203/203/203
f 204/204/204 201/201/201 200/200/200
f 204/204/204 200/200/200 205/205/205
f 204/204/204 205/205/205 206/206/206
f 204/204/204 206/206/206 207/207/207
f 195/195/195 208/208/208 206/206/206
f 209/209/209 207/207/207 206/206/206
f 175/175/175 209/209/209 206/206/206
f 210/210/210 175/175/175 206/206/206
f 206/206/206 208/208/208 210/210/210
f 175/175/175 211/211/211 209/209/209
f 175/175/175 178/178/178 211/211/211
f 212/212/212 175/175/175 210/210/210
f 208/208/208 212/212/212 210/210/210
f 209/209/209 213/213/213 207/207/207
f 207/207/207 213/213/213 214/214/214
f 207/207/207 214/214/214 215/215/215
f 215/215/215 216/216/216 207/207/207
f 215/215/215 217/217/217 216/216/216
f 218/218/218 213/213/213 209/209/209
f 209/209/209 211/211/211 218/218/218
f 218/218/218 219/219/219 213/213/213
f 219/219/219 214/214/214 213/213/213
f 220/220/220 219/219/219 218/218/218
f 211/211/211 220/220/220 218/218/218
f 220/220/220 221/221/221 219/219/219
f 219/219/219 222/222/222 214/214/214
f 219/219/219 223/223/223 222/222/222
f 211/211/211 224/224/224 220/220/220
f 208/208/208 225/225/225 212/212/212
f 226/226/226 225/225/225 208/208/208
f 227/227/227 226/226/226 208/208/208
f 226/226/226 228/228/228 225/225/225
f 206/206/206 199/199/199 227/227/227
f 216/216/216 229/229/229 207/207/207
f 229/229/229 204/204/204 207/207/207
f 229/229/229 230/230/230 204/204/204
f 229/229/229 231/231/231 230/230/230
f 204/204/204 232/232/232 201/201/201
f 232/232/232 203/203/203 201/201/201
f 197/197/197 234/234/234 233/233/233
f 235/235/235 171/171/171 236/236/236
f 235/235/235 236/236/236 237/237/237
f 235/235/235 173/173/173 171/171/171
f 183/183/183 173/173/173 235/235/235
f 238/238/238 240/240/240 239/239/239
f 240/240/240 241/241/241 239/239/239
f 239/239/239 241/241/241 242/242/242
f 240/240/240 243/243/243 241/241/241
f 244/244/244 246/246/246 245/245/245
f 247/247/247 249/249/249 248/248/248
f 250/250/250 252/252/252 251/251/251
f 253/253/253 255/255/255 254/254/254
