# Generated from legacy Unity YAML Mesh assets without Unity.
mtllib gun26.mtl

o gun26
v -0.0439306945 0.0485075116 -0.716199398
v -0.0300247192 0.018915081 -0.566099405
v -0.0405568063 0.0201547265 -0.699368858
v -0.0306822658 0.0868235171 -0.566090155
v -0.0313935876 0.0916615486 -0.716199398
v 0.044354248 0.0485074788 -0.716199398
v 0.0311058044 0.0868235171 -0.566090012
v 0.0318171263 0.0916615486 -0.716199398
v 0.0304482669 0.018915081 -0.566099024
v 0.0409803391 0.0201546609 -0.699368858
v -0.0313935876 0.0916615486 -0.716199398
v 0.0311058044 0.0868235171 -0.566090012
v -0.0306822658 0.0868235171 -0.566090155
v 0.0318171263 0.0916615486 -0.716199398
v 0.044354248 0.0485074788 -0.716199398
v -0.0313935876 0.0916615486 -0.716199398
v -0.0439306945 0.0485075116 -0.716199398
v 0.0318171263 0.0916615486 -0.716199398
v 0.0409803391 0.0201546609 -0.699368858
v -0.0405568063 0.0201547265 -0.699368858
v -0.0300247192 0.018915081 -0.566099405
v 0.0409803391 0.0201546609 -0.699368858
v -0.0405568063 0.0201547265 -0.699368858
v 0.0304482669 0.018915081 -0.566099024
v -0.0401707858 -0.00807576776 -0.447214794
v -0.0448913783 0.0303732902 -0.41313839
v -0.040187785 -0.00843418241 -0.716830158
v -0.0223069668 -0.0323951423 -0.726559734
v -0.0260416746 -0.037003392 -0.473912716
v 0.0254376173 -0.0370034754 -0.473912621
v 0.021702905 -0.0323952258 -0.726559734
v -0.0464058429 0.067886734 -0.520273018
v -0.0457886249 0.0685344517 -0.432649422
v -0.0464256257 0.0680741847 -0.692815113
v -0.0415148705 0.105094612 -0.543330193
v -0.0415606529 0.104150772 -0.642817116
v 0.0395667046 -0.00807580352 -0.447214699
v 0.0395837188 -0.00843421817 -0.716829777
v 0.0442872673 0.030373323 -0.41313839
v 0.021702905 -0.0323952258 -0.726559734
v 0.0254376173 -0.0370034754 -0.473912621
v 0.0458017468 0.0678867519 -0.520273018
v 0.0458215505 0.0680741847 -0.692815113
v 0.0409107745 0.105094576 -0.543329811
v 0.0409565508 0.104150748 -0.64281683
v 0.0451845318 0.0685345352 -0.432649422
v -0.0537230611 -0.0129855752 -0.450780821
v -0.053813839 -0.0129855812 -0.715335369
v -0.0592590034 0.0287479967 -0.413146162
v -0.0281745195 -0.0462166369 -0.729006195
v -0.0328810841 -0.0477801621 -0.48436451
v -0.0603595138 0.0682369173 -0.520282555
v -0.0595900714 0.0674721539 -0.432664871
v -0.0603603899 0.0682197869 -0.689398193
v -0.0554325461 0.106857288 -0.543333912
v -0.0554783165 0.105913448 -0.64282093
v 0.0322770089 -0.0477802455 -0.484364414
v -0.0281745195 -0.0462166369 -0.729006195
v -0.0328810841 -0.0477801621 -0.48436451
v 0.0275704354 -0.0462166965 -0.729006195
v 0.0531189799 -0.0129855752 -0.450780821
v 0.0586549103 0.0287480146 -0.413146305
v 0.0532097578 -0.0129855812 -0.715335083
v 0.0275704354 -0.0462166965 -0.729006195
v 0.0322770089 -0.0477802455 -0.484364414
v 0.0597554207 0.0682369351 -0.52028265
v 0.0597563028 0.0682197869 -0.689398289
v 0.0548284471 0.106857276 -0.543333912
v 0.0548742175 0.105913448 -0.64282093
v 0.0589859962 0.0674722195 -0.432664871
v -0.0537230611 -0.0129855752 -0.450780821
v -0.0448913783 0.0303732902 -0.41313839
v -0.0401707858 -0.00807576776 -0.447214794
v -0.0592590034 0.0287479967 -0.413146162
v -0.0328810841 -0.0477801621 -0.48436451
v -0.0260416746 -0.037003392 -0.473912716
v -0.0457886249 0.0685344517 -0.432649422
v -0.0595900714 0.0674721539 -0.432664871
v 0.0322770089 -0.0477802455 -0.484364414
v 0.0254376173 -0.0370034754 -0.473912621
v -0.0603595138 0.0682369173 -0.520282555
v -0.0415148705 0.105094612 -0.543330193
v -0.0464058429 0.067886734 -0.520273018
v -0.0554325461 0.106857288 -0.543333912
v -0.0415606529 0.104150772 -0.642817116
v -0.0554783165 0.105913448 -0.64282093
v -0.0595900714 0.0674721539 -0.432664871
v -0.0457886249 0.0685344517 -0.432649422
v -0.0554783165 0.105913448 -0.64282093
v -0.0464256257 0.0680741847 -0.692815113
v -0.0415606529 0.104150772 -0.642817116
v -0.0603603899 0.0682197869 -0.689398193
v -0.040187785 -0.00843418241 -0.716830158
v -0.053813839 -0.0129855812 -0.715335369
v -0.0223069668 -0.0323951423 -0.726559734
v -0.0281745195 -0.0462166369 -0.729006195
v 0.021702905 -0.0323952258 -0.726559734
v 0.0275704354 -0.0462166965 -0.729006195
v 0.0586549103 0.0287480146 -0.413146305
v 0.0395667046 -0.00807580352 -0.447214699
v 0.0442872673 0.030373323 -0.41313839
v 0.0531189799 -0.0129855752 -0.450780821
v 0.0254376173 -0.0370034754 -0.473912621
v 0.0322770089 -0.0477802455 -0.484364414
v 0.0589859962 0.0674722195 -0.432664871
v 0.0451845318 0.0685345352 -0.432649422
v 0.0597563028 0.0682197869 -0.689398289
v 0.0409565508 0.104150748 -0.64281683
v 0.0458215505 0.0680741847 -0.692815113
v 0.0548742175 0.105913448 -0.64282093
v 0.0532097578 -0.0129855812 -0.715335083
v 0.0395837188 -0.00843421817 -0.716829777
v 0.0275704354 -0.0462166965 -0.729006195
v 0.021702905 -0.0323952258 -0.726559734
v 0.0548742175 0.105913448 -0.64282093
v 0.0409107745 0.105094576 -0.543329811
v 0.0409565508 0.104150748 -0.64281683
v 0.0548284471 0.106857276 -0.543333912
v 0.0458017468 0.0678867519 -0.520273018
v 0.0597554207 0.0682369351 -0.52028265
v 0.0451845318 0.0685345352 -0.432649422
v 0.0589859962 0.0674722195 -0.432664871
v -0.0427936524 0.0308864653 -0.658005142
v -0.0414095789 -0.000393283367 -0.436714077
v -0.0267183751 -0.0387293279 -0.478000021
v -0.033880046 0.21172781 -0.595038033
v -0.0466499716 0.000361609459 -0.316687679
v -0.0318085432 -0.0366735637 -0.65925355
v -0.033880046 0.211727834 0.0380264997
v -0.0482569247 0.018278563 -0.146687269
v -0.0335483909 -0.04760378 -0.255423236
v -0.0335483909 -0.04760378 -0.297178888
v -0.0431560516 0.00487585664 -0.0947909117
v 0.0340429455 -0.04760378 -0.255423236
v 0.0471445203 0.000361609459 -0.316687679
v 0.0340429455 -0.04760378 -0.297178888
v 0.0487514824 0.018278563 -0.146687269
v 0.0343745977 0.211727834 0.0374997139
v 0.0436506182 0.00487585664 -0.0947909117
v 0.0343745977 0.21172781 -0.595038033
v 0.0419041246 -0.000393283367 -0.436714077
v 0.0272129238 -0.0387293279 -0.478000021
v 0.043288213 0.0308864653 -0.658005142
v 0.0323030949 -0.0366735637 -0.65925355
v 0.043288213 0.0308864653 -0.658005142
v -0.0318085432 -0.0366735637 -0.65925355
v 0.0323030949 -0.0366735637 -0.65925355
v -0.0427936524 0.0308864653 -0.658005142
v 0.0343745977 0.21172781 -0.595038033
v -0.033880046 0.21172781 -0.595038033
v -0.0267183751 -0.0387293279 -0.478000021
v 0.0419041246 -0.000393283367 -0.436714077
v 0.0272129238 -0.0387293279 -0.478000021
v -0.0414095789 -0.000393283367 -0.436714077
v -0.0466499716 0.000361609459 -0.316687679
v 0.0471445203 0.000361609459 -0.316687679
v -0.0335483909 -0.04760378 -0.297178888
v 0.0340429455 -0.04760378 -0.297178888
v -0.0335483909 -0.04760378 -0.255423236
v 0.0340429455 -0.04760378 -0.255423236
v -0.0335483909 -0.04760378 -0.255423236
v 0.0487514824 0.018278563 -0.146687269
v 0.0340429455 -0.04760378 -0.255423236
v -0.0482569247 0.018278563 -0.146687269
v -0.0431560516 0.00487585664 -0.0947909117
v 0.0436506182 0.00487585664 -0.0947909117
v 0.0436506182 0.00487585664 -0.0947909117
v -0.033880046 0.211727834 0.0380264997
v 0.0343745977 0.211727834 0.0374997139
v -0.0431560516 0.00487585664 -0.0947909117
v 0.0343745977 0.211727834 0.0374997139
v -0.033880046 0.21172781 -0.595038033
v 0.0343745977 0.21172781 -0.595038033
v -0.033880046 0.211727834 0.0380264997
v 0.0471665353 0.168497312 -0.652140093
v 0.040793705 0.1853477 -0.51146698
v 0.0335552514 0.228528953 -0.627332497
v 0.0443979323 0.123425293 -0.53805418
v 0.040793705 0.183575273 -0.220121908
v 0.0335552603 0.228528953 -0.145572853
v 0.0422815949 0.208389854 -0.126321471
v 0.0471665353 0.161411989 -0.228984308
v 0.0471665353 0.161411989 -0.145549846
v 0.0412874103 0.123425293 -0.626787663
v -0.0500628769 0.168497312 -0.652140093
v -0.036451596 0.228528953 -0.627332497
v -0.0436900526 0.185347748 -0.511467218
v -0.0472942799 0.123425293 -0.538054276
v -0.0436900526 0.183575273 -0.220121908
v -0.036451596 0.228528953 -0.145572853
v -0.0451779336 0.208389807 -0.126321471
v -0.0500628769 0.161411989 -0.228984308
v -0.0500628769 0.161411989 -0.145549846
v -0.0441837519 0.123425293 -0.626787663
v 0.0335552514 0.228528953 -0.627332497
v -0.0500628769 0.168497312 -0.652140093
v 0.0471665353 0.168497312 -0.652140093
v -0.036451596 0.228528953 -0.627332497
v 0.0412874103 0.123425293 -0.626787663
v -0.0441837519 0.123425293 -0.626787663
v -0.00144817568 0.24085083 -0.627332497
v -0.0500628769 0.161411989 -0.228984308
v 0.0471665353 0.161411989 -0.145549846
v 0.0471665353 0.161411989 -0.228984308
v -0.0500628769 0.161411989 -0.145549846
v -0.0500628769 0.161411989 -0.145549846
v 0.0422815949 0.208389854 -0.126321471
v 0.0471665353 0.161411989 -0.145549846
v -0.0451779336 0.208389807 -0.126321471
v 0.0335552603 0.228528953 -0.145572853
v -0.036451596 0.228528953 -0.145572853
v -0.00144816749 0.24085083 -0.151985133
v -0.0436900526 0.183575273 -0.220121908
v 0.0471665353 0.161411989 -0.228984308
v 0.040793705 0.183575273 -0.220121908
v -0.0500628769 0.161411989 -0.228984308
v -0.0472942799 0.123425293 -0.538054276
v 0.040793705 0.1853477 -0.51146698
v 0.0443979323 0.123425293 -0.53805418
v -0.0436900526 0.185347748 -0.511467218
v 0.040793705 0.183575273 -0.220121908
v -0.0436900526 0.183575273 -0.220121908
v -0.0441837519 0.123425293 -0.626787663
v 0.0412874103 0.123425293 -0.626787663
v -0.036451596 0.228528953 -0.145572853
v -0.00144817568 0.24085083 -0.627332497
v -0.00144816749 0.24085083 -0.151985133
v -0.036451596 0.228528953 -0.627332497
v -0.00144816749 0.24085083 -0.151985133
v 0.0335552514 0.228528953 -0.627332497
v 0.0335552603 0.228528953 -0.145572853
v -0.00144817568 0.24085083 -0.627332497
v 0.0277193248 -0.0372956693 -0.292297816
v -0.0215553492 -0.0372956216 -0.479716015
v -0.0280179471 -0.0372956693 -0.292297816
v 0.02125673 -0.0372956216 -0.479716015
v -0.0215553492 -0.0372956216 -0.479716015
v -0.040497008 0.00395298004 -0.313337159
v -0.0280179471 -0.0372956693 -0.292297816
v -0.0342150986 0.00395300388 -0.443154764
v 0.0277193248 -0.0372956693 -0.292297816
v 0.0339165032 0.00395300388 -0.443154764
v 0.02125673 -0.0372956216 -0.479716015
v 0.0401984096 0.00395298004 -0.313337159
v 0.0361326069 -0.0183541834 -0.218937659
v -0.0283070683 -0.111792874 -0.158717644
v 0.0289970607 -0.111792874 -0.158717644
v -0.0354426146 -0.0183541834 -0.218937659
v -0.0235613257 -0.125050807 -0.131035876
v 0.0242513195 -0.125050807 -0.131035876
v -0.0354426146 -0.0183541834 -0.218937659
v -0.0283070683 -0.0694748938 -0.0825940013
v -0.0283070683 -0.111792874 -0.158717644
v -0.0437726408 0.0386378407 -0.133788109
v -0.0235613257 -0.125050807 -0.131035876
v -0.0235613257 -0.101994991 -0.0836757421
v -0.0437726408 0.0386378407 -0.133788109
v 0.0289970607 -0.0694748938 -0.0825940013
v -0.0283070683 -0.0694748938 -0.0825940013
v 0.0444626272 0.0386378407 -0.133788109
v 0.0242513195 -0.101994991 -0.0836757421
v -0.0235613257 -0.101994991 -0.0836757421
v 0.0444626272 0.0386378407 -0.133788109
v 0.0289970607 -0.111792874 -0.158717644
v 0.0289970607 -0.0694748938 -0.0825940013
v 0.0361326069 -0.0183541834 -0.218937659
v 0.0242513195 -0.101994991 -0.0836757421
v 0.0242513195 -0.125050807 -0.131035876
v -0.0235613257 -0.125050807 -0.131035876
v 0.0242513195 -0.101994991 -0.0836757421
v 0.0242513195 -0.125050807 -0.131035876
v -0.0235613257 -0.101994991 -0.0836757421
v 0.0372876346 0.221905613 -0.07773211
v 0.0512063742 0.160349917 -0.033976984
v 0.041971609 0.221905613 0.113519812
v 0.0433254808 0.201806474 -0.0816252232
v 0.0420166492 0.169674611 0.144650388
v 0.0426625133 0.102242088 0.0836074829
v 0.0518778205 0.108981085 -0.0715027809
v 0.0453578115 0.0522235155 -0.0278295994
v -0.0449218839 0.201806474 -0.0816252232
v -0.0435680717 0.221905565 0.113519812
v -0.0528028309 0.160349917 -0.033976984
v -0.0388840675 0.221905565 -0.07773211
v -0.0436131179 0.169674611 0.144650388
v -0.044258967 0.102242088 0.0836074829
v -0.0534742057 0.108981085 -0.0715027809
v -0.0469542354 0.0522235155 -0.0278295994
v -0.0435680717 0.221905565 0.113519812
v 0.0372876346 0.221905613 -0.07773211
v 0.041971609 0.221905613 0.113519812
v -0.0388840675 0.221905565 -0.07773211
v -0.0436131179 0.169674611 0.144650388
v 0.0420166492 0.169674611 0.144650388
v -0.0388840675 0.221905565 -0.07773211
v 0.0433254808 0.201806474 -0.0816252232
v 0.0372876346 0.221905613 -0.07773211
v -0.0449218839 0.201806474 -0.0816252232
v -0.0528028309 0.160349917 -0.033976984
v 0.0512063742 0.160349917 -0.033976984
v 0.0518778205 0.108981085 -0.0715027809
v -0.0534742057 0.108981085 -0.0715027809
v 0.0453578115 0.0522235155 -0.0278295994
v -0.0469542354 0.0522235155 -0.0278295994
v -0.0469542354 0.0522235155 -0.0278295994
v 0.0426625133 0.102242088 0.0836074829
v 0.0453578115 0.0522235155 -0.0278295994
v -0.044258967 0.102242088 0.0836074829
v 0.0420166492 0.169674611 0.144650388
v -0.0436131179 0.169674611 0.144650388
v 0.0501008689 0.214830995 0.131823325
v 0.0360474885 0.258208036 0.100917006
v 0.0625898242 0.158268356 0.0101537943
v 0.05644629 0.156368923 0.0864840508
v 0.0288778037 0.258208036 -0.0379446268
v 0.0432132155 0.230230308 -0.0660001516
v -0.0648455918 0.158268356 0.0101537943
v -0.0523565948 0.214830995 0.131823325
v -0.0587020636 0.156368923 0.0864840508
v -0.0383032441 0.258208084 0.100917006
v -0.0454689533 0.230230308 -0.0660001516
v -0.0311335444 0.258208084 -0.0379446268
v -0.0523565948 0.214830995 0.131823325
v 0.0360474885 0.258208036 0.100917006
v 0.0501008689 0.214830995 0.131823325
v -0.0383032441 0.258208084 0.100917006
v 0.0288778037 0.258208036 -0.0379446268
v -0.0311335444 0.258208084 -0.0379446268
v 0.0432132155 0.230230308 -0.0660001516
v -0.0454689533 0.230230308 -0.0660001516
v -0.0454689533 0.230230308 -0.0660001516
v 0.0625898242 0.158268356 0.0101537943
v 0.0432132155 0.230230308 -0.0660001516
v -0.0648455918 0.158268356 0.0101537943
v 0.05644629 0.156368923 0.0864840508
v -0.0587020636 0.156368923 0.0864840508
v 0.0501008689 0.214830995 0.131823325
v -0.0523565948 0.214830995 0.131823325
v 0.0353932381 -0.00930634737 0.0662059546
v 0.0264412969 -0.0497732103 0.118249536
v 0.0374176145 -0.00767998695 0.101307678
v 0.0268182456 0.0413766682 0.211135745
v 0.0418058753 0.0482961059 0.107342839
v 0.0379242539 0.102256298 0.176762891
v 0.0341681629 -0.0102226436 0.0302656889
v 0.0322500825 0.0520796359 0.0326820135
v 0.0323022574 0.0250832796 0.0187800884
v 0.0220030695 -0.0474589884 -0.114602077
v 0.0233896881 -0.0295604765 -0.114464116
v -0.0347896814 -0.00927651525 0.0661654234
v -0.0368060678 -0.00768954158 0.101309204
v -0.0258645833 -0.0497497022 0.118241215
v -0.026241532 0.0413633764 0.211123586
v -0.0412258595 0.0482479215 0.10733974
v -0.0374947876 0.102208102 0.176759696
v -0.0335706979 -0.010207963 0.0302277327
v -0.0316169411 0.052110225 0.0325945854
v -0.0315647781 0.0251138687 0.0186926603
v -0.0214433223 -0.0474468529 -0.114537263
v -0.0228326589 -0.0295616925 -0.114452732
v -0.0368060678 -0.00768954158 0.101309204
v 0.0353932381 -0.00930634737 0.0662059546
v 0.0374176145 -0.00767998695 0.101307678
v -0.0347896814 -0.00927651525 0.0661654234
v -0.0412258595 0.0482479215 0.10733974
v 0.0418058753 0.0482961059 0.107342839
v -0.0374947876 0.102208102 0.176759696
v 0.0379242539 0.102256298 0.176762891
v 0.0322500825 0.0520796359 0.0326820135
v -0.0316169411 0.052110225 0.0325945854
v -0.026241532 0.0413633764 0.211123586
v 0.0379242539 0.102256298 0.176762891
v 0.0268182456 0.0413766682 0.211135745
v -0.0374947876 0.102208102 0.176759696
v -0.0258645833 -0.0497497022 0.118241215
v 0.0264412969 -0.0497732103 0.118249536
v -0.0316169411 0.052110225 0.0325945854
v 0.0323022574 0.0250832796 0.0187800884
v 0.0322500825 0.0520796359 0.0326820135
v -0.0315647781 0.0251138687 0.0186926603
v 0.0341681629 -0.0102226436 0.0302656889
v -0.0335706979 -0.010207963 0.0302277327
v -0.0214433223 -0.0474468529 -0.114537263
v 0.0264412969 -0.0497732103 0.118249536
v 0.0220030695 -0.0474589884 -0.114602077
v -0.0258645833 -0.0497497022 0.118241215
v -0.0335706979 -0.010207963 0.0302277327
v 0.0233896881 -0.0295604765 -0.114464116
v 0.0341681629 -0.0102226436 0.0302656889
v -0.0228326589 -0.0295616925 -0.114452732
v -0.0269016832 0.0475492001 0.117677259
v -0.0359006733 0.144295323 0.118604231
v -0.0269016922 0.0839583993 0.157990813
v -0.0359006554 0.103588402 0.0706200361
v 0.0271510571 0.0475492001 0.117677259
v 0.0361500233 0.144295323 0.118604231
v 0.0361500293 0.103588402 0.0706200361
v 0.0271510541 0.0839583993 0.157990813
v 0.0271510541 0.0839583993 0.157990813
v -0.0359006733 0.144295323 0.118604231
v 0.0361500233 0.144295323 0.118604231
v -0.0269016922 0.0839583993 0.157990813
v 0.0361500293 0.103588402 0.0706200361
v -0.0269016832 0.0475492001 0.117677259
v 0.0271510571 0.0475492001 0.117677259
v -0.0359006554 0.103588402 0.0706200361
v -0.0232144773 -0.0212963223 -0.0179529667
v -0.0267374486 0.0410460144 0.0256876707
v -0.0269016922 -0.0116495967 0.0607792616
v -0.0278712571 0.0160627961 -0.009273839
v -0.0359006882 0.075588274 0.0197621584
v -0.0359006882 0.0526656985 -0.0271333694
v 0.0234638318 -0.0212963223 -0.0179529667
v 0.0269868135 0.0410460144 0.0256876707
v 0.0281206071 0.0160627961 -0.009273839
v 0.0271510541 -0.0116495967 0.0607792616
v 0.0361500233 0.0526656985 -0.0271333694
v 0.0361500233 0.075588274 0.0197621584
v 0.0271510541 -0.0116495967 0.0607792616
v -0.0267374486 0.0410460144 0.0256876707
v 0.0269868135 0.0410460144 0.0256876707
v -0.0269016922 -0.0116495967 0.0607792616
v 0.0361500233 0.075588274 0.0197621584
v -0.0359006882 0.075588274 0.0197621584
v 0.0281206071 0.0160627961 -0.009273839
v -0.0232144773 -0.0212963223 -0.0179529667
v 0.0234638318 -0.0212963223 -0.0179529667
v -0.0278712571 0.0160627961 -0.009273839
v 0.0361500233 0.0526656985 -0.0271333694
v -0.0359006882 0.0526656985 -0.0271333694
v 0.0366393059 0.0631516874 -0.0631196022
v -0.0243180633 0.033812958 -0.0505725622
v 0.0239357874 0.033812958 -0.0505725622
v -0.0370215923 0.0631516874 -0.0631196022
v -0.0370215923 0.0631516874 -0.0631196022
v -0.036792469 0.0520538747 -0.0233126163
v -0.0243180633 0.033812958 -0.0505725622
v -0.0370215923 0.082151413 -0.0484526634
v 0.0366393059 0.082151413 -0.0484526634
v 0.0239357874 0.033812958 -0.0505725622
v 0.0364101946 0.0520538747 -0.0233126163
v 0.0366393059 0.0631516874 -0.0631196022
v 0.0239357874 0.033812958 -0.0505725622
v -0.036792469 0.0520538747 -0.0233126163
v 0.0364101946 0.0520538747 -0.0233126163
v -0.0243180633 0.033812958 -0.0505725622
v 0.000256596133 0.210192561 -0.688654327
v -0.0263436913 0.199038196 -0.688654327
v 0.0268568754 0.199038196 -0.688654327
v 0.0238283396 0.153293991 -0.688654327
v -0.0233151644 0.153293991 -0.688654327
v -0.0263436913 0.199038196 -0.688654327
v -0.0244968057 0.153293991 -0.624122334
v -0.0233151644 0.153293991 -0.688654327
v -0.0263436913 0.199038196 -0.624122334
v 0.000256596133 0.210192561 -0.624122334
v 0.000256596133 0.210192561 -0.688654327
v 0.0268568754 0.199038196 -0.624122334
v 0.0238283396 0.153293991 -0.688654327
v 0.0250099778 0.153293991 -0.624122334
v 0.0268568754 0.199038196 -0.688654327
v 0.000256596133 0.210192561 -0.688654327
v 0.000256596133 0.210192561 -0.624122334
v 0.0238283396 0.153293991 -0.688654327
v -0.0244968057 0.153293991 -0.624122334
v 0.0250099778 0.153293991 -0.624122334
v -0.0233151644 0.153293991 -0.688654327
v 0.000256596133 0.0717759728 -0.770662117
v -0.0322733968 0.0568587184 -0.770662117
v 0.0327865839 0.0568587184 -0.770662117
v 0.0288472474 -0.00431687236 -0.770662117
v -0.0283340603 -0.00431687236 -0.770662117
v -0.0322733968 0.0568587184 -0.770662117
v -0.0341632634 -0.0120739698 -0.752197933
v -0.0283340603 -0.00431687236 -0.770662117
v -0.036758548 0.0615744114 -0.752197933
v 0.000256596133 0.0795330524 -0.752197933
v 0.000256596133 0.0717759728 -0.770662117
v 0.000256596133 0.0795330524 -0.672364759
v -0.0346113265 0.0615744114 -0.672364759
v -0.0341632634 -0.0120739698 -0.672364759
v 0.037271741 0.0615744114 -0.752197933
v 0.0288472474 -0.00431687236 -0.770662117
v 0.0346764535 -0.0120739698 -0.752197933
v 0.0327865839 0.0568587184 -0.770662117
v 0.000256596133 0.0717759728 -0.770662117
v 0.000256596133 0.0795330524 -0.752197933
v 0.0351245165 0.0615744114 -0.672364759
v 0.000256596133 0.0795330524 -0.672364759
v 0.0346764535 -0.0120739698 -0.672364759
v 0.0288472474 -0.00431687236 -0.770662117
v -0.0341632634 -0.0120739698 -0.752197933
v 0.0346764535 -0.0120739698 -0.752197933
v -0.0283340603 -0.00431687236 -0.770662117
v 0.0346764535 -0.0120739698 -0.672364759
v -0.0341632634 -0.0120739698 -0.672364759
v 0.0751122236 0.0939135551 -0.400221634
v 0.038800478 0.120664716 -0.381822729
v 0.0751122236 0.118426752 -0.392040825
v 0.038800478 0.0841705561 -0.394001913
v 0.038800478 0.143525088 -0.41276722
v 0.0751122236 0.133782125 -0.412826204
v 0.0751122236 0.094118911 -0.426063061
v 0.038800478 0.0844762921 -0.432473469
v 0.0751122236 0.133782125 -0.412826204
v 0.038800478 0.121159399 -0.444071198
v 0.0751122236 0.118759048 -0.433853102
v 0.038800478 0.143525088 -0.41276722
v 0.038800478 0.0844762921 -0.432473469
v 0.0751122236 0.094118911 -0.426063061
v 0.0751122236 0.118759048 -0.433853102
v 0.0751122236 0.118426752 -0.392040825
v 0.0751122236 0.133782125 -0.412826204
v 0.0751122236 0.0939135551 -0.400221634
v 0.0751122236 0.094118911 -0.426063061
v 0.0853488326 0.0796967089 -0.170578575
v 0.0379784673 0.106447887 -0.152179837
v 0.0853488326 0.104209924 -0.16239779
v 0.0379784673 0.0699537098 -0.16435889
v 0.0379784673 0.129308259 -0.183124161
v 0.0853488326 0.119565272 -0.183183169
v 0.0853488326 0.0799020827 -0.196420014
v 0.0379784673 0.0702594638 -0.202830577
v 0.0853488326 0.119565272 -0.183183169
v 0.0379784673 0.10694257 -0.214428139
v 0.0853488326 0.104542208 -0.204210067
v 0.0379784673 0.129308259 -0.183124161
v 0.0379784673 0.0702594638 -0.202830577
v 0.0853488326 0.0799020827 -0.196420014
v 0.0853488326 0.104542208 -0.204210067
v 0.0853488326 0.104209924 -0.16239779
v 0.0853488326 0.119565272 -0.183183169
v 0.0853488326 0.0796967089 -0.170578575
v 0.0853488326 0.0799020827 -0.196420014
v -0.053049171 0.191767788 -0.42044363
v -0.0439170182 0.241994047 -0.400900173
v -0.0402461737 0.241994023 -0.296663952
v -0.000357257202 0.263326025 -0.289833403
v -0.000357257202 0.263326025 -0.398289084
v -0.0514626205 0.172489595 -0.325799012
v -0.0498692185 0.144048572 -0.394834185
v -0.0498692185 0.144048572 -0.484322882
v -0.0566807091 0.166933751 -0.479563761
v 0.0523346663 0.191767788 -0.42044363
v 0.0395316631 0.241994023 -0.296663952
v 0.0432024956 0.241994047 -0.400900173
v -0.000357257202 0.263326025 -0.289833403
v -0.000357257202 0.263326025 -0.398289084
v 0.0507481098 0.172489548 -0.325799012
v 0.0491547078 0.144048572 -0.394834185
v 0.0491547078 0.144048595 -0.484322643
v 0.0559662044 0.166933751 -0.479563522
v 0.0491547078 0.144048595 -0.484322643
v -0.0498692185 0.144048572 -0.394834185
v 0.0491547078 0.144048572 -0.394834185
v -0.0498692185 0.144048572 -0.484322882
v -0.0514626205 0.172489595 -0.325799012
v 0.0507481098 0.172489548 -0.325799012
v -0.0402461737 0.241994023 -0.296663952
v 0.0395316631 0.241994023 -0.296663952
v -0.000357257202 0.263326025 -0.289833403
v 0.0559662044 0.166933751 -0.479563522
v -0.0498692185 0.144048572 -0.484322882
v 0.0491547078 0.144048595 -0.484322643
v -0.0566807091 0.166933751 -0.479563761
v 0.0523346663 0.191767788 -0.42044363
v -0.053049171 0.191767788 -0.42044363
v -0.0439170182 0.241994047 -0.400900173
v 0.0432024956 0.241994047 -0.400900173
v -0.000357257202 0.263326025 -0.398289084
v 0.0502484083 0.107745564 -0.29381144
v 0.0484636486 0.149530983 -0.3516366
v 0.0484636486 0.107745564 -0.333882189
v 0.0513407707 0.166659951 -0.315088749
v 0.0571251452 0.161394954 -0.218318868
v 0.0427424252 0.241008806 -0.2817976
v 0.0389687032 0.241008806 -0.177872336
v -0.00271950848 0.261923337 -0.171409392
v -0.00271950848 0.261923337 -0.275334525
v -0.0625641346 0.161394954 -0.218318868
v -0.0567797661 0.166659951 -0.315088749
v -0.0481814235 0.241008806 -0.2817976
v -0.0444077015 0.241008806 -0.177872336
v -0.00271950848 0.261923337 -0.171409392
v -0.00271950848 0.261923337 -0.275334525
v -0.0556873918 0.107745564 -0.29381144
v -0.0539026618 0.149530983 -0.3516366
v -0.0539026618 0.107745564 -0.333882189
v 0.0427424252 0.241008806 -0.2817976
v -0.00271950848 0.261923337 -0.275334525
v -0.0481814235 0.241008806 -0.2817976
v -0.0567797661 0.166659951 -0.315088749
v 0.0513407707 0.166659951 -0.315088749
v 0.0484636486 0.149530983 -0.3516366
v -0.0539026618 0.149530983 -0.3516366
v 0.0484636486 0.107745564 -0.333882189
v -0.0539026618 0.107745564 -0.333882189
v -0.0444077015 0.241008806 -0.177872336
v -0.00271950848 0.261923337 -0.171409392
v 0.0389687032 0.241008806 -0.177872336
v -0.0625641346 0.161394954 -0.218318868
v 0.0571251452 0.161394954 -0.218318868
v 0.0502484083 0.107745564 -0.29381144
v -0.0556873918 0.107745564 -0.29381144
v -0.0539026618 0.107745564 -0.333882189
v 0.0484636486 0.107745564 -0.333882189
v 0.0529938817 0.194552803 -0.567224121
v 0.0370887637 0.242579007 -0.423536205
v 0.0412487924 0.242961407 -0.549035072
v 0.0530067086 0.196792078 -0.444302368
v 0.0563114107 0.171400642 -0.48816967
v 0.0562981725 0.175720596 -0.59856739
v 0.0510853946 0.122037554 -0.616941547
v 0.0510853946 0.122037554 -0.515127659
v -0.000598641858 0.262803674 -0.421876955
v -0.000598641858 0.261757612 -0.545368814
v -0.0541911364 0.194552875 -0.567224121
v -0.04244605 0.242961454 -0.549035168
v -0.054204011 0.196792078 -0.444302511
v -0.0575086951 0.171400642 -0.48816967
v -0.0574954689 0.175720668 -0.59856739
v -0.0522827089 0.122037554 -0.616941547
v -0.0522827089 0.122037554 -0.515127277
v -0.0382860154 0.242579007 -0.423536205
v -0.000598641858 0.261757612 -0.545368814
v -0.000598641858 0.262803674 -0.421876955
v -0.054204011 0.196792078 -0.444302511
v 0.0563114107 0.171400642 -0.48816967
v -0.0575086951 0.171400642 -0.48816967
v 0.0530067086 0.196792078 -0.444302368
v 0.0370887637 0.242579007 -0.423536205
v -0.0382860154 0.242579007 -0.423536205
v -0.000598641858 0.262803674 -0.421876955
v 0.0510853946 0.122037554 -0.515127659
v -0.0522827089 0.122037554 -0.515127277
v -0.04244605 0.242961454 -0.549035168
v 0.0412487924 0.242961407 -0.549035072
v -0.000598641858 0.261757612 -0.545368814
v -0.0541911364 0.194552875 -0.567224121
v 0.0529938817 0.194552803 -0.567224121
v -0.0574954689 0.175720668 -0.59856739
v 0.0562981725 0.175720596 -0.59856739
v -0.0522827089 0.122037554 -0.616941547
v 0.0510853946 0.122037554 -0.616941547
v -0.0522827089 0.122037554 -0.515127277
v 0.0510853946 0.122037554 -0.616941547
v -0.0522827089 0.122037554 -0.616941547
v 0.0510853946 0.122037554 -0.515127659
vt 0.17350471 0.776781857
vt 0.289960235 0.757315755
vt 0.187224388 0.755318165
vt 0.288633496 0.809517205
vt 0.173152536 0.811059594
vt 0.17350471 0.776781857
vt 0.288633496 0.809517205
vt 0.173152536 0.811059594
vt 0.289960235 0.757315755
vt 0.187224388 0.755318165
vt 0.251170874 0.911958933
vt 0.166659966 0.952454805
vt 0.167315722 0.913801968
vt 0.250410438 0.956780732
vt 0.101020262 0.817325652
vt 0.16179733 0.861205101
vt 0.170756713 0.817325652
vt 0.109979555 0.861205101
vt 0.103685156 0.786101401
vt 0.168091655 0.786101282
vt 0.816504657 0.992892981
vt 0.863354385 0.969035089
vt 0.862922549 0.99724853
vt 0.816824853 0.971968114
vt 0.118166447 0.743291199
vt 0.129850626 0.761857033
vt 0.00510026515 0.740300953
vt 0.0043778196 0.724992275
vt 0.109037615 0.726965427
vt 0.106608838 0.704123139
vt 0.00376840681 0.705298603
vt 0.0855742618 0.784115076
vt 0.122902773 0.781271458
vt 0.0183753148 0.780284166
vt 0.0712962598 0.810254574
vt 0.0348063149 0.809855163
vt 0.118166447 0.743291199
vt 0.00510026515 0.740300953
vt 0.129850313 0.761857033
vt 0.0043778196 0.724992275
vt 0.109037615 0.726965427
vt 0.0855742618 0.784115076
vt 0.0183753148 0.780284166
vt 0.0712962598 0.810254574
vt 0.0348063149 0.809855163
vt 0.122902773 0.781271458
vt 0.405127585 0.731635809
vt 0.19340685 0.732184827
vt 0.43324399 0.766916633
vt 0.185051441 0.703316391
vt 0.376501769 0.701043725
vt 0.350491345 0.795364618
vt 0.418941826 0.795017898
vt 0.214314103 0.797332823
vt 0.331279814 0.828231871
vt 0.251659364 0.827661276
vt 0.212573245 0.50453651
vt 0.402668953 0.537064373
vt 0.212142885 0.53971976
vt 0.40303725 0.506963789
vt 0.405127585 0.731635809
vt 0.433243841 0.766916633
vt 0.19340685 0.732184827
vt 0.185051441 0.703316391
vt 0.376501769 0.701043725
vt 0.350491345 0.795364618
vt 0.214314103 0.797332823
vt 0.331279814 0.828231871
vt 0.251659364 0.827661276
vt 0.418941826 0.795017898
vt 0.32393375 0.542415977
vt 0.379215926 0.563600779
vt 0.32393375 0.563600779
vt 0.379215926 0.542415977
vt 0.265134096 0.542415977
vt 0.265134096 0.563600779
vt 0.420684755 0.563600779
vt 0.420684755 0.542415977
vt 0.229108527 0.542415977
vt 0.229108527 0.563600779
vt 0.289157778 0.592273355
vt 0.328181297 0.606432557
vt 0.289166301 0.606432557
vt 0.328181297 0.592273355
vt 0.413990736 0.606432557
vt 0.413990736 0.592273355
vt 0.213303626 0.592273355
vt 0.213307947 0.606432557
vt 0.237287313 0.567303956
vt 0.2876966 0.588004529
vt 0.237876952 0.588004529
vt 0.287978053 0.567303956
vt 0.35974285 0.588004529
vt 0.35974285 0.567303956
vt 0.410380363 0.588004529
vt 0.410380363 0.567303956
vt 0.47439909 0.588004529
vt 0.47439909 0.567303956
vt 0.379215926 0.542415977
vt 0.32393375 0.563600779
vt 0.379215926 0.563600779
vt 0.32393375 0.542415977
vt 0.265134096 0.563600779
vt 0.265134096 0.542415977
vt 0.420684755 0.542415977
vt 0.420684755 0.563600779
vt 0.287978053 0.567303956
vt 0.237876952 0.588004529
vt 0.2876966 0.588004529
vt 0.237287313 0.567303956
vt 0.35974285 0.567303956
vt 0.35974285 0.588004529
vt 0.410380363 0.567303956
vt 0.410380363 0.588004529
vt 0.413990736 0.592273355
vt 0.328181297 0.606432557
vt 0.413990736 0.606432557
vt 0.328181297 0.592273355
vt 0.289166301 0.606432557
vt 0.289157778 0.592273355
vt 0.213307947 0.606432557
vt 0.213303626 0.592273355
vt 0.242877483 0.766259432
vt 0.430487663 0.749745488
vt 0.397160679 0.713814914
vt 0.294081509 0.915928125
vt 0.530336857 0.748171449
vt 0.246353522 0.709917367
vt 0.845091701 0.917124271
vt 0.676596284 0.758405805
vt 0.573154926 0.711778939
vt 0.53889209 0.711860597
vt 0.72235781 0.74325341
vt 0.573154926 0.711778939
vt 0.530336857 0.748171449
vt 0.53889209 0.711860597
vt 0.676596284 0.758405805
vt 0.845091701 0.917124271
vt 0.72235781 0.74325341
vt 0.294081509 0.915928125
vt 0.430487663 0.749745488
vt 0.397160679 0.713814914
vt 0.242877483 0.766259432
vt 0.246353522 0.709917367
vt 0.00109522929 0.871359169
vt 0.0463818684 0.828487933
vt 0.00597611209 0.828241169
vt 0.0508249328 0.871662855
vt 0.00563387154 0.947393239
vt 0.0450647548 0.947633743
vt 0.5410375 0.552247286
vt 0.564633429 0.50445646
vt 0.541362047 0.514224291
vt 0.564132154 0.563194811
vt 0.61349088 0.568146765
vt 0.614055574 0.502018809
vt 0.634877026 0.559452176
vt 0.635284066 0.511798203
vt 0.652058959 0.559889734
vt 0.65246594 0.512235701
vt 0.484311223 0.593902946
vt 0.578283906 0.658474386
vt 0.483286709 0.645302415
vt 0.579754293 0.584705174
vt 0.610794425 0.589233398
vt 0.609478652 0.655245125
vt 0.100565501 0.953474045
vt 0.0485753343 0.919769585
vt 0.0485378578 0.948580503
vt 0.100701518 0.916834116
vt 0.764876783 0.991681695
vt 0.668946385 0.944867253
vt 0.668946385 0.991681576
vt 0.76495105 0.944867253
vt 0.244531825 0.883912385
vt 0.371746451 0.90053314
vt 0.258798629 0.936697364
vt 0.348592371 0.848781526
vt 0.630173206 0.900488138
vt 0.694553733 0.939316094
vt 0.706820607 0.922465742
vt 0.628124237 0.88145268
vt 0.686570585 0.881964564
vt 0.262165725 0.848384082
vt 0.244531825 0.883912385
vt 0.258798629 0.936697364
vt 0.371746451 0.90053314
vt 0.348592371 0.848781526
vt 0.630173206 0.900488138
vt 0.694553733 0.939316094
vt 0.706820607 0.922465742
vt 0.628124237 0.88145268
vt 0.686570585 0.881964564
vt 0.262165725 0.848384082
vt 0.159508824 0.939670265
vt 0.104364268 0.894751251
vt 0.167065173 0.895659864
vt 0.111740425 0.939524949
vt 0.162119225 0.866441488
vt 0.109337628 0.866315842
vt 0.135598838 0.950697839
vt 0.186669663 0.994362772
vt 0.173970655 0.959980249
vt 0.186669677 0.959978521
vt 0.17397064 0.994361043
vt 0.480985135 0.504773259
vt 0.42475909 0.535431921
vt 0.42127189 0.503962278
vt 0.476644576 0.536136568
vt 0.428970397 0.552735388
vt 0.471964926 0.553319335
vt 0.45035097 0.561624408
vt 0.190472618 0.992108762
vt 0.186669677 0.959978521
vt 0.190472618 0.962232411
vt 0.186669663 0.994362772
vt 0.252769202 0.993385434
vt 0.241066903 0.962230444
vt 0.252769262 0.960955739
vt 0.241066933 0.992110968
vt 0.190472618 0.962232411
vt 0.190472618 0.992108762
vt 0.269156128 0.992285371
vt 0.269156069 0.962055922
vt 0.170921981 0.99624908
vt 0.00364474906 0.976302028
vt 0.166218087 0.976301908
vt 0.00335075706 0.996257484
vt 0.166218087 0.976301908
vt 0.00335075706 0.996475995
vt 0.170921952 0.99646771
vt 0.00364474906 0.976302028
vt 0.0543752573 0.827859879
vt 0.0929045752 0.915542245
vt 0.0988401175 0.827988327
vt 0.0587508306 0.91544354
vt 0.395151943 0.719222903
vt 0.526670218 0.755120456
vt 0.538047433 0.72035116
vt 0.427628607 0.755120456
vt 0.538047433 0.72035116
vt 0.427628607 0.755120456
vt 0.395151943 0.719222903
vt 0.526670218 0.755120456
vt 0.741193414 0.631970167
vt 0.667081833 0.565365672
vt 0.655415356 0.610181093
vt 0.756152213 0.570013463
vt 0.639100611 0.565008402
vt 0.633497 0.603238821
vt 0.614991605 0.728635788
vt 0.737231076 0.686523974
vt 0.668955386 0.654288888
vt 0.695032299 0.75559634
vt 0.699993432 0.640507817
vt 0.73716563 0.660188973
vt 0.616429508 0.666036785
vt 0.54757905 0.705780983
vt 0.548212349 0.673434556
vt 0.615454495 0.715842903
vt 0.529122353 0.702739775
vt 0.529650629 0.67575109
vt 0.695032299 0.75559634
vt 0.668955386 0.654288888
vt 0.737231076 0.686523974
vt 0.614991605 0.728635788
vt 0.73716563 0.660188973
vt 0.699993432 0.640507817
vt 0.771489561 0.974393964
vt 0.805781126 0.993079245
vt 0.805987597 0.974484265
vt 0.771283031 0.992988944
vt 0.757735789 0.939719737
vt 0.799174309 0.889647424
vt 0.905350149 0.938348234
vt 0.754731119 0.924032271
vt 0.929586112 0.89817524
vt 0.882846594 0.845816553
vt 0.766872942 0.845359206
vt 0.796149731 0.802780151
vt 0.754731119 0.924032271
vt 0.905350149 0.938348234
vt 0.799174309 0.889647424
vt 0.757735789 0.939719737
vt 0.929586112 0.89817524
vt 0.882846594 0.845816553
vt 0.766872942 0.845359206
vt 0.796149731 0.802780151
vt 0.750684679 0.50821507
vt 0.659213126 0.556580544
vt 0.750243843 0.560748279
vt 0.659605622 0.509800613
vt 0.779634058 0.508597791
vt 0.779192746 0.561186552
vt 0.89892602 0.681606412
vt 0.927348018 0.672248363
vt 0.925210357 0.682406425
vt 0.896896958 0.671321511
vt 0.894350171 0.638664424
vt 0.930240095 0.639756739
vt 0.930644691 0.607179284
vt 0.894291282 0.606072962
vt 0.928584516 0.571355224
vt 0.896730661 0.570385754
vt 0.933876514 0.994259179
vt 0.993640244 0.914363861
vt 0.994361818 0.995042264
vt 0.936686933 0.913626194
vt 0.993994951 0.854297638
vt 0.937887907 0.853570819
vt 0.923673928 0.935403705
vt 0.898016632 0.967510223
vt 0.830062926 0.889893949
vt 0.890156209 0.891415238
vt 0.791630387 0.964592159
vt 0.767792404 0.945673347
vt 0.830062926 0.889893949
vt 0.923673928 0.935403705
vt 0.890156209 0.891415238
vt 0.898016632 0.967510223
vt 0.767792404 0.945673347
vt 0.791630387 0.964592159
vt 0.927596033 0.563619792
vt 0.896353424 0.510286391
vt 0.928023875 0.503263116
vt 0.89602828 0.556148231
vt 0.812163115 0.514112294
vt 0.811900914 0.551129103
vt 0.789881885 0.506341696
vt 0.789511681 0.55858326
vt 0.622030616 0.682496428
vt 0.652074158 0.654319823
vt 0.645198524 0.683330595
vt 0.618781865 0.653121173
vt 0.651790619 0.632988036
vt 0.621708453 0.631905079
vt 0.651413441 0.612315178
vt 0.624646842 0.61135155
vt 0.867105067 0.74449259
vt 0.912687957 0.709926009
vt 0.901926458 0.747035384
vt 0.992629468 0.788156509
vt 0.901438296 0.795271695
vt 0.962745965 0.841144323
vt 0.836232007 0.742756307
vt 0.839461267 0.799299121
vt 0.825346768 0.77283591
vt 0.717559755 0.706462026
vt 0.712183774 0.721731246
vt 0.867105067 0.74449259
vt 0.901926458 0.747035384
vt 0.912687719 0.70992595
vt 0.992629468 0.788156509
vt 0.901438296 0.795271695
vt 0.962745965 0.841144323
vt 0.836232007 0.742756307
vt 0.839461267 0.799299121
vt 0.825346768 0.77283591
vt 0.717559755 0.706462026
vt 0.712183774 0.721731246
vt 0.802964389 0.701165855
vt 0.778436959 0.648350894
vt 0.802909553 0.646832824
vt 0.778464377 0.699726284
vt 0.836753368 0.704345047
vt 0.836714566 0.643563926
vt 0.890496492 0.701537728
vt 0.890463233 0.646329045
vt 0.742213249 0.65070945
vt 0.742222071 0.697461367
vt 0.990053594 0.615918994
vt 0.931031644 0.674464703
vt 0.941147625 0.616011083
vt 1.0005461 0.674305081
vt 0.98951 0.503889143
vt 0.941299081 0.503954828
vt 0.887078047 0.638938546
vt 0.871401012 0.598939061
vt 0.888097882 0.599390984
vt 0.870381176 0.638486683
vt 0.854868472 0.597165644
vt 0.853765547 0.639110208
vt 0.766716242 0.566948295
vt 0.888647377 0.593524039
vt 0.766382098 0.589589596
vt 0.88900423 0.566265166
vt 0.853765547 0.639110208
vt 0.756974936 0.601492643
vt 0.854868472 0.597165644
vt 0.7562446 0.630114436
vt 0.913748026 0.802917063
vt 0.915475845 0.878789783
vt 0.949444771 0.830857873
vt 0.882229984 0.842231989
vt 0.913748026 0.802917063
vt 0.915475845 0.878789783
vt 0.882229984 0.842231989
vt 0.949444771 0.830857873
vt 0.997280061 0.709225297
vt 0.922132671 0.715738535
vt 0.963836968 0.756324649
vt 0.966822863 0.679732919
vt 0.836618304 0.810458243
vt 0.896963835 0.786296427
vt 0.865877807 0.769283593
vt 0.879527986 0.832585752
vt 0.794614136 0.730506182
vt 0.833416343 0.789689004
vt 0.856624901 0.742538214
vt 0.801427662 0.770215988
vt 0.829614222 0.825081646
vt 0.795260072 0.805259287
vt 0.794614136 0.730506182
vt 0.833416343 0.789689004
vt 0.801427662 0.770215988
vt 0.856624901 0.742538214
vt 0.795260072 0.805259287
vt 0.829614222 0.825081646
vt 0.531168938 0.508377135
vt 0.485482186 0.547354817
vt 0.532701671 0.547677398
vt 0.487723559 0.508080363
vt 0.537851512 0.575775802
vt 0.479940087 0.575380325
vt 0.422650218 0.623964071
vt 0.469915807 0.593453228
vt 0.423483044 0.593453228
vt 0.470748633 0.623964071
vt 0.415752709 0.656363189
vt 0.477646172 0.656363189
vt 0.914993107 0.957061768
vt 0.927340686 0.988442481
vt 0.931144834 0.965891957
vt 0.909186304 0.991485715
vt 0.796964884 0.782338977
vt 0.745639622 0.78645581
vt 0.770682573 0.818385601
vt 0.777775526 0.7615605
vt 0.777775466 0.76156044
vt 0.770682395 0.818385482
vt 0.745639682 0.78645575
vt 0.796964645 0.782338738
vt 0.876052678 0.993929267
vt 0.90831691 0.977643728
vt 0.870070934 0.976457298
vt 0.901263535 0.994711399
vt 0.30046469 0.99709022
vt 0.329715669 0.986068666
vt 0.27121377 0.986068666
vt 0.278600782 0.937705994
vt 0.322328657 0.937705994
vt 0.00288876239 0.665798843
vt 0.0791381001 0.61705029
vt 0.00288876239 0.61705029
vt 0.0791381001 0.665798843
vt 0.0791381001 0.696311951
vt 0.00288876239 0.696311951
vt 0.0791381672 0.665798843
vt 0.00288876239 0.61705029
vt 0.0791381001 0.61705029
vt 0.00288876239 0.665798843
vt 0.00288876239 0.696311951
vt 0.0791381001 0.696311951
vt 0.174123496 0.630509198
vt 0.132624447 0.682927072
vt 0.174123496 0.682927072
vt 0.132624447 0.630509198
vt 0.208652586 0.900455892
vt 0.24044463 0.886467516
vt 0.177396506 0.885308087
vt 0.182312518 0.82563442
vt 0.237725765 0.826653421
vt 0.00388379768 0.569705844
vt 0.031583108 0.504081726
vt 0.00388379768 0.512052715
vt 0.031583108 0.57417351
vt 0.031583108 0.613012075
vt 0.00388379768 0.607680917
vt 0.0802840367 0.613012075
vt 0.0802840367 0.57417351
vt 0.0802840367 0.504152238
vt 0.031583108 0.57417351
vt 0.00388373062 0.512052774
vt 0.031583108 0.504081726
vt 0.00388379768 0.569705844
vt 0.00388379768 0.607680917
vt 0.031583108 0.613012075
vt 0.0802841783 0.57417351
vt 0.0802841783 0.613012075
vt 0.0802841783 0.504152238
vt 0.12452133 0.627651453
vt 0.081917733 0.640544355
vt 0.128397703 0.640738904
vt 0.0859129801 0.627489924
vt 0.12816073 0.692842066
vt 0.0816808492 0.692647576
vt 0.167577848 0.577612221
vt 0.151647449 0.514780164
vt 0.136378497 0.562311888
vt 0.198095694 0.537558675
vt 0.100307651 0.508413434
vt 0.101893485 0.558035433
vt 0.191286564 0.60302484
vt 0.233392298 0.575391829
vt 0.101893485 0.558035433
vt 0.151647449 0.514780164
vt 0.136378497 0.562311888
vt 0.100307651 0.508413434
vt 0.198095694 0.537558675
vt 0.167577848 0.577612221
vt 0.151318491 0.602426171
vt 0.0887205005 0.601708829
vt 0.119758934 0.624807537
vt 0.101097234 0.565051734
vt 0.139785036 0.565494955
vt 0.167577848 0.577612221
vt 0.151647449 0.514780164
vt 0.136378497 0.562311888
vt 0.198095694 0.537558675
vt 0.100307651 0.508413434
vt 0.101893485 0.558035433
vt 0.191286564 0.60302484
vt 0.233392298 0.575391829
vt 0.101893485 0.558035433
vt 0.151647449 0.514780164
vt 0.136378497 0.562311888
vt 0.100307651 0.508413434
vt 0.198095694 0.537558675
vt 0.167577848 0.577612221
vt 0.151318491 0.602426171
vt 0.0887205005 0.601708829
vt 0.119758934 0.624807537
vt 0.101097234 0.565051734
vt 0.139785036 0.565494955
vt 0.454513997 0.906101406
vt 0.469038546 0.954281926
vt 0.561326206 0.954281926
vt 0.56495136 0.990279257
vt 0.474094689 0.990279257
vt 0.532708645 0.892876148
vt 0.480072737 0.867257237
vt 0.394511491 0.865723491
vt 0.396732628 0.88198626
vt 0.454513997 0.906101406
vt 0.561326206 0.954281926
vt 0.469038546 0.954281926
vt 0.56495136 0.990279257
vt 0.474094689 0.990279257
vt 0.532708645 0.892876148
vt 0.480072618 0.867257237
vt 0.394511491 0.865723491
vt 0.396732628 0.88198626
vt 0.28873682 0.610171556
vt 0.327406347 0.633357823
vt 0.288736731 0.633357823
vt 0.327406347 0.610171497
vt 0.32802847 0.66122824
vt 0.288114429 0.66122812
vt 0.323648274 0.688419223
vt 0.292494535 0.688419104
vt 0.308071434 0.695785999
vt 0.281999975 0.62205267
vt 0.236523643 0.612972021
vt 0.27907303 0.612972021
vt 0.233596787 0.62205267
vt 0.280439526 0.657620668
vt 0.235157073 0.657620668
vt 0.24065876 0.683152556
vt 0.274938196 0.683152735
vt 0.257798463 0.693152428
vt 0.56455344 0.841823578
vt 0.52055043 0.871414959
vt 0.535893381 0.841266692
vt 0.550596774 0.884938836
vt 0.626210451 0.887369633
vt 0.580231786 0.953101218
vt 0.662167311 0.954281926
vt 0.663472831 0.989371896
vt 0.581730962 0.989371896
vt 0.626210451 0.887369633
vt 0.550596774 0.884938836
vt 0.580231786 0.953101218
vt 0.662167311 0.954281926
vt 0.663472831 0.989371896
vt 0.581730962 0.989371896
vt 0.564553618 0.841823578
vt 0.52055043 0.871414959
vt 0.535893381 0.841266692
vt 0.338082284 0.686270654
vt 0.36234042 0.69564569
vt 0.386634141 0.686343729
vt 0.391298205 0.651237428
vt 0.333563775 0.651150465
vt 0.33513239 0.631211162
vt 0.38979426 0.631293416
vt 0.335173875 0.609521925
vt 0.389835685 0.60960418
vt 0.404890388 0.666484296
vt 0.391024381 0.687184453
vt 0.404333889 0.708117783
vt 0.450746268 0.660802484
vt 0.450024486 0.714816391
vt 0.503763199 0.714824378
vt 0.50447005 0.660923481
vt 0.524076521 0.660517454
vt 0.523393512 0.714139462
vt 0.325175732 0.909566462
vt 0.449443758 0.954575896
vt 0.341661155 0.954667211
vt 0.431493372 0.913753033
vt 0.387042493 0.890117764
vt 0.294882357 0.890565336
vt 0.279707611 0.847211778
vt 0.362418503 0.847715199
vt 0.451744169 0.989371896
vt 0.345760614 0.986897469
vt 0.325175732 0.909566462
vt 0.341661155 0.954667211
vt 0.431493372 0.913753033
vt 0.387042493 0.890117764
vt 0.294882357 0.890565336
vt 0.279707611 0.847211778
vt 0.362418503 0.847715199
vt 0.449443758 0.954575896
vt 0.345760614 0.986897469
vt 0.451744169 0.989371896
vt 0.228683114 0.665121078
vt 0.182047263 0.637132883
vt 0.23046203 0.637213767
vt 0.183754727 0.665046096
vt 0.190397128 0.686817765
vt 0.221984088 0.686870456
vt 0.206179276 0.696097255
vt 0.18634513 0.610669136
vt 0.226232067 0.610735714
vt 0.136635631 0.770726323
vt 0.171940923 0.770726442
vt 0.154288277 0.783831298
vt 0.128454491 0.744332612
vt 0.180122197 0.74433279
vt 0.1264496 0.720267296
vt 0.182127073 0.720267355
vt 0.13134791 0.687706053
vt 0.177228749 0.687706053
vt 0.736507833 0.767598093
vt 0.762090623 0.742955387
vt 0.762090385 0.767598093
vt 0.736508012 0.742955267
vn -0.995241729 0.07359913 0.0638519227
vn -0.995852669 -0.0264971474 0.0870365634
vn -0.994351508 -0.0720752788 0.0779116943
vn -0.992507191 0.106156374 0.0605004219
vn -0.96020743 0.278959374 0.0135410099
vn 0.995241733 0.0735991643 0.0638518225
vn 0.992507161 0.106156682 0.0605003582
vn 0.960207398 0.278959485 0.0135410004
vn 0.995852685 -0.0264970748 0.0870364034
vn 0.994351473 -0.0720761064 0.0779113851
vn -3.68655874e-08 0.999481016 0.0322133285
vn -3.68655874e-08 0.999481016 0.0322133285
vn -7.45800254e-08 0.999481016 0.0322133442
vn 0 0.999481017 0.0322133131
vn -6.02208981e-08 -0.162177676 -0.986761573
vn 0 0 -1
vn -1.82174365e-07 -0.314570065 -0.949234257
vn 0 0 -1
vn -2.95612977e-07 -0.510450488 -0.859907146
vn -4.1046027e-07 -0.510450742 -0.859906995
vn -4.36688359e-07 -0.999956743 -0.00930113597
vn -4.36688359e-07 -0.999956743 -0.00930113597
vn -8.04078592e-07 -0.999956742 -0.00930133169
vn 5.86708438e-08 -0.999956746 -0.00930087207
vn 0.930202443 0.366992946 0.00629222602
vn 0.996910202 0.0784881912 0.00310699169
vn 0.984431768 0.175751622 0.00233692341
vn 0.393757534 0.919053564 0.0171915983
vn 0.411054682 0.911328048 0.0226988482
vn 1.7292648e-06 0.999833695 0.0182368367
vn 1.89577069e-06 0.999833696 0.0182368053
vn 0.999460435 0.0327597323 0.00237476298
vn 0.999777496 0.0198312155 -0.00718899635
vn 0.999942084 -0.0107623165 4.07061966e-05
vn 0.99124885 -0.132006443 0.000128136585
vn 0.990877791 -0.134760998 0.000822500739
vn -0.930202849 0.366991918 0.00629219374
vn -0.984431837 0.175751239 0.00233681389
vn -0.996910224 0.0784879125 0.00310689003
vn -0.858588376 0.51256245 0.0102827246
vn -0.905891577 0.42298342 0.0211063469
vn -0.999460435 0.0327597207 0.00237463863
vn -0.999942081 -0.0107625305 4.06106099e-05
vn -0.991248786 -0.13200692 0.000128086475
vn -0.990877671 -0.134761884 0.000822551634
vn -0.999777487 0.0198316656 -0.00718898045
vn -0.906886566 -0.421331359 -0.00605330753
vn -0.979500375 -0.201417274 -0.00317763144
vn -0.996977978 -0.0775604764 -0.00439130942
vn -0.828600864 -0.559763715 -0.00922993112
vn -0.866033639 -0.499591379 -0.0198542081
vn -0.999542435 -0.0300468269 -0.00347984283
vn -0.999953185 -0.00414099015 0.00874525999
vn -0.99996174 0.00874676343 -0.000114716385
vn -0.991829196 0.127572588 -0.000284166829
vn -0.991594253 0.129384086 -0.000771277968
vn -1.17812359e-06 -0.999979577 -0.00639099948
vn -1.17812359e-06 -0.999979577 -0.00639099948
vn -1.2712973e-06 -0.999979578 -0.00639097646
vn -1.06921653e-06 -0.999979577 -0.00639102639
vn 0.906886828 -0.421330795 -0.00605334211
vn 0.996977987 -0.0775603635 -0.00439131686
vn 0.979500415 -0.201417079 -0.00317761121
vn 0.828601451 -0.559762845 -0.00922997798
vn 0.866034224 -0.499590362 -0.0198542854
vn 0.999542436 -0.0300467881 -0.00347982951
vn 0.999961739 0.0087468978 -0.000114683456
vn 0.991829161 0.127572861 -0.000284148632
vn 0.991594215 0.129384381 -0.00077126528
vn 0.999953185 -0.00414158825 0.00874504342
vn 0.05675071 -0.666650826 0.743206589
vn 0.0317890146 -0.397993733 0.916837198
vn 0.0283678059 -0.673397186 0.73873642
vn 0.0044308449 0.00527867878 0.999976251
vn 0.011686202 -0.687733823 0.725868873
vn -0.00655451039 -0.694039444 0.719907139
vn -0.0438272302 0.451660559 0.891112739
vn -0.0356027401 0.449572691 0.892533944
vn -2.17005479e-06 -0.696200499 0.717847383
vn -2.45836231e-06 -0.696201303 0.717846603
vn 0.0365960522 0.865321105 0.499880099
vn 0.0973873245 0.883051975 0.459058731
vn -0.0195038597 0.98224951 0.186562323
vn 0.123889654 0.978550169 0.164593197
vn 0.125643438 0.992030271 -0.00946926916
vn 0.125643523 0.992030261 -0.00946925703
vn -0.0256493878 0.999670621 0.000870651468
vn -0.0767336529 0.997028236 -0.00682956969
vn -0.0197162557 0.795485455 -0.605651847
vn -0.107892819 0.619559706 -0.777499139
vn 0.101735216 0.802002769 -0.588592817
vn -0.200191654 0.427513355 -0.88156431
vn -0.207774961 0.274465905 -0.938881266
vn -0.192662405 0.267183802 -0.944189607
vn -0.116145561 0.220507405 -0.968445503
vn -0.0546593704 0.196488089 -0.978981503
vn 2.49943653e-07 0.174294902 -0.984693499
vn 1.86363035e-07 0.174295125 -0.98469346
vn -0.0316595272 -0.396537483 0.917472451
vn -0.0550468033 -0.662505085 0.747032036
vn -0.0010533303 0.0364981651 0.999333165
vn -0.0301887952 -0.675191436 0.737024532
vn -0.0207364136 -0.681044755 0.731948114
vn 0.00270968375 -0.695311254 0.718703637
vn 0.04383204 0.451658608 0.891113491
vn 0.0359617526 0.454264773 0.890140589
vn 0.110903968 0.613512605 -0.781858423
vn 0.0197071049 0.795486404 -0.605650899
vn 0.198255567 0.442938307 -0.874357128
vn -0.0975324463 0.768611412 -0.632237233
vn 0.206578743 0.272929201 -0.93959293
vn 0.191744023 0.264117029 -0.945238819
vn 0.1865054 0.247139591 -0.950861588
vn 0.186052857 0.247298718 -0.95090887
vn -0.125645334 0.992030033 -0.00946914059
vn -0.124013858 0.979539259 0.158503637
vn -0.12564536 0.992030029 -0.00946914434
vn -0.0973809353 0.883052376 0.459059315
vn -0.0367601754 0.869265813 0.492976303
vn 0.0194857857 0.980937602 0.193343541
vn 0.0256500146 0.999670606 0.000870006858
vn 0.0767512884 0.997006186 0.00937572926
vn -0.998551589 -0.0533550708 0.00692539486
vn -0.999765334 -0.0174346878 -0.0128572336
vn -0.972178476 -0.234211178 -0.00375966144
vn -0.998754318 0.0498126679 -0.00291710822
vn -0.9991684 0.0400544473 -0.00762563833
vn -0.986630909 -0.160902247 0.0258827519
vn -0.998173321 0.0603158405 0.00346718469
vn -0.999878856 0.00426650061 0.0149690062
vn -0.968843639 -0.247301028 0.0135721956
vn -0.964661077 -0.263493847 -8.75740524e-17
vn -0.995467376 -0.0155977146 0.0938158556
vn 0.968843654 -0.247300971 0.0135721498
vn 0.999169067 0.0400370586 -0.00762954162
vn 0.964661107 -0.263493735 -8.75740153e-17
vn 0.999878714 0.00430224292 0.0149682325
vn 0.998172732 0.0603254618 0.00346931203
vn 0.995465606 -0.0153924804 0.0938685138
vn 0.999481018 0.0318670011 -0.00471061508
vn 0.992664874 -0.0476852072 -0.111097118
vn 0.998551588 -0.0533550792 0.00692545447
vn 0.996547884 -0.0284709505 0.0779853795
vn 0.986630888 -0.160902375 0.0258827661
vn 0 0.21307458 -0.977035938
vn 0 0.0184753367 -0.999829316
vn 0 0.0184753367 -0.999829316
vn 0 0.279706297 -0.960085615
vn 0 0.328827015 -0.944390171
vn 0 0.328827015 -0.944390171
vn 0 -0.732801487 0.680442488
vn 0 -0.980508204 0.196478149
vn 0 -0.732801487 0.680442488
vn 0 -0.971870911 0.235514187
vn 0 -0.9825913 -0.185780349
vn 0 -0.882688744 -0.469958063
vn 0 -0.610751189 -0.791822572
vn 0 -0.906555937 -0.422085694
vn 0 -1 -3.32357106e-16
vn 0 -1 -3.32357106e-16
vn 0 -0.855261427 0.51819677
vn 0 -0.956380843 0.292122719
vn 0 -0.855261427 0.51819677
vn 0 -0.95055609 0.310552926
vn 0 -0.968231724 -0.25005465
vn 0 -0.968231724 -0.25005465
vn 0.0028603555 -0.539538689 0.84195595
vn 0.0028603555 -0.539538689 0.84195595
vn 0.0065028418 -0.538561859 0.84256088
vn 0 -0.540300244 0.841472308
vn -1.45393417e-10 1 -3.76766985e-08
vn -1.45393417e-10 1 -3.76766985e-08
vn 0 1 -3.76923874e-08
vn -2.90665848e-10 1 -3.76610228e-08
vn 0.997155992 0.0734114246 0.0170496214
vn 0.98927294 0.145056419 0.0172535384
vn 0.985053203 0.172206457 0.00388890705
vn 0.99964551 -0.0214365229 0.0157901542
vn 0.983625438 0.179893627 -0.0109215457
vn 0.984468374 0.175271159 -0.0101015863
vn 0.974889054 0.216443871 -0.0523773088
vn 0.984297062 0.173492211 -0.0325537596
vn 0.994637128 0.10342622 3.44060977e-17
vn 0.988320002 -0.148402435 -0.0346452214
vn -0.997155997 0.0734113792 0.0170495721
vn -0.98505317 0.172206648 0.00388890437
vn -0.989272922 0.145056549 0.0172535277
vn -0.999645512 -0.021436492 0.0157901274
vn -0.983625401 0.179893834 -0.010921499
vn -0.984468339 0.175271353 -0.0101015495
vn -0.974889059 0.21644388 -0.0523771772
vn -0.984297058 0.173492251 -0.0325536688
vn -0.994637111 0.103426386 3.4406153e-17
vn -0.98831999 -0.148402492 -0.0346453246
vn 0 0.355662551 -0.934614439
vn 0 -0.0264310605 -0.999650638
vn 0 -0.00518370929 -0.999986564
vn 0 0.32433223 -0.945943236
vn 0 -0.490252714 -0.871580333
vn 0 -0.490252714 -0.871580333
vn 0 0 -1
vn 0 -1 -3.32663204e-16
vn 0 -1 -3.32663204e-16
vn 0 -1 -3.32663204e-16
vn 0 -1 -3.32663204e-16
vn 9.78012114e-08 -0.378804416 0.92547675
vn -1.034647e-10 -0.17612754 0.984367355
vn 0 -0.378804252 0.925476817
vn -1.48174474e-10 0.182299859 0.983242982
vn -1.72301571e-07 0.65325093 0.757141481
vn 0 0.620188094 0.784453139
vn 0 0.461630578 0.887072269
vn 0 0.371285451 -0.928518774
vn 0 0.371285451 -0.928518774
vn 0 0.371285451 -0.928518774
vn 0 0.371285451 -0.928518774
vn -1.30314828e-06 -0.761584602 0.648065501
vn -1.13441655e-06 -0.938700923 0.344732617
vn -3.10398792e-07 -0.954429396 0.298436809
vn -5.70512341e-07 -0.995441165 0.0953776025
vn -2.73617077e-07 -0.999981495 -0.0060835691
vn 0 -0.999981494 -0.00608364844
vn 8.41897255e-23 -1 -1.56398632e-16
vn 0 -1 -1.56398548e-16
vn -0.332046672 0.943262958 2.84329205e-09
vn -0.332046672 0.943262958 2.84329205e-09
vn -0.332046637 0.94326297 5.72493835e-09
vn -0.332046707 0.943262946 2.17376498e-16
vn 0.332046647 0.943262966 -5.94506409e-09
vn 0.332046647 0.943262966 -5.94506409e-09
vn 0.332046645 0.943262967 -6.16226012e-09
vn 0.33204665 0.943262966 -5.72493815e-09
vn 0 -1 -2.5442415e-07
vn 0 -1 -2.5442415e-07
vn 0 -1 -2.5442415e-07
vn 0 -1 -2.5442415e-07
vn -0.957861218 -0.28464208 -0.0384808064
vn -0.957861218 -0.28464208 -0.0384808064
vn -0.951877611 -0.304715718 -0.0328229423
vn -0.965812115 -0.254995508 -0.0467359587
vn 0.957861067 -0.284642592 -0.0384807823
vn 0.957861067 -0.284642592 -0.0384807823
vn 0.963340018 -0.266219015 -0.0332181666
vn 0.949409747 -0.3106613 -0.0459422321
vn 0 -0.541726566 -0.840554774
vn 0 -0.589689613 -0.807629965
vn 0 -0.685911409 -0.727685055
vn 0 -0.541726566 -0.840554774
vn 0 -0.901895339 -0.431954624
vn 0 -0.901895339 -0.431954624
vn -0.994453935 -0.104377774 0.0129093358
vn -0.993439746 -0.11199493 0.0231215651
vn -0.996203684 -0.0760865012 0.042297333
vn -0.98981733 -0.142334829 -0.00156494468
vn -0.984284422 -0.156068461 0.0826245197
vn -0.986662766 -0.146356283 0.0712490271
vn 0 0.427968987 0.90379342
vn 0 0.387122392 0.922028337
vn 0 0.281464553 0.959571626
vn 0 0.427968987 0.90379342
vn 0 -0.0332453767 0.99944722
vn 0 -0.0332453767 0.99944722
vn 0.994453939 -0.104377737 0.0129093497
vn 0.99343975 -0.111994891 0.0231215732
vn 0.990713005 -0.118840904 0.0660649812
vn 0.994765435 -0.0968901387 -0.0324658337
vn 0.984284432 -0.156068414 0.0826244946
vn 0.98106158 -0.174155531 0.084782231
vn 0 -0.899117427 0.437707496
vn 0 -0.899117427 0.437707496
vn 0 -0.899117427 0.437707496
vn 0 -0.899117427 0.437707496
vn 0.977493152 0.210440821 -0.0148929176
vn 0.997883589 0.0563209565 0.03250067
vn 0.99179292 0.127546826 0.00886623409
vn 0.958846068 0.272787122 0.0787489978
vn 0.99863431 -0.00717021949 0.0517503819
vn 0.997403942 -0.0458323667 0.0555407052
vn 0.997084486 -0.0506896547 0.057035829
vn 0.995880785 -0.0712568205 0.0560707443
vn -0.977493078 0.210441146 -0.0148931987
vn -0.990754767 0.135091468 0.0124614194
vn -0.998772547 0.0314822029 0.0382396523
vn -0.956198582 0.291780474 -0.0234185263
vn -0.998634313 -0.00717028112 0.0517503186
vn -0.997403947 -0.04583263 0.055540412
vn -0.997084496 -0.0506899833 0.0570353746
vn -0.995880833 -0.071256471 0.0560703223
vn -5.82052447e-07 0.991270051 0.131847209
vn -5.8973852e-07 1 -4.56585091e-14
vn -4.52030043e-07 0.924529455 0.381110596
vn -6.26003023e-07 1 -1.53316145e-08
vn -1.42624864e-07 0.511978119 0.85899849
vn 0 0.511977947 0.858998593
vn -5.51493204e-08 0.19016135 -0.981752851
vn -1.31356171e-08 -0.602910402 -0.797808904
vn -1.19041423e-07 0.190161099 -0.9817529
vn 0 -0.579367424 -0.815066493
vn 0 -0.0694842213 -0.997583051
vn 0 -0.108405559 -0.994106752
vn 0 0.190955745 -0.981598647
vn 0 -0.270842328 -0.962623724
vn 0 -0.609829297 -0.792532794
vn 0 -0.609829297 -0.792532794
vn 0 -0.912313588 0.409492268
vn 0 -0.862586327 0.505909902
vn 0 -0.912313588 0.409492268
vn 0 -0.784493047 0.620137613
vn 0 -0.671109939 0.741357842
vn 0 -0.671109939 0.741357842
vn 0.980746283 0.195029903 0.0100032488
vn 0.95483535 0.293815423 -0.0442939257
vn 0.963084878 0.269174561 -0.00354600732
vn 0.99567435 0.0450504616 0.0812591236
vn 0.949203614 0.314435339 -0.0119547487
vn 0.924805946 0.364462349 0.109092427
vn -0.973151915 0.230137644 0.00346630416
vn -0.980746273 0.195029937 0.0100035685
vn -0.995674316 0.0450513159 0.0812590644
vn -0.951705866 0.306468888 -0.0182418604
vn -0.949203609 0.314435349 -0.0119549421
vn -0.870077377 0.490863737 -0.0449238093
vn 1.56495875e-07 0.580276786 0.814419334
vn 4.61181766e-07 0.899496974 0.436926989
vn 0 0.580276997 0.814419183
vn 6.94101926e-07 0.988363377 0.152111257
vn 7.1436882e-07 0.996610872 -0.0822603789
vn 6.0394286e-07 0.948869934 -0.315667307
vn 2.27072744e-07 0.708087538 -0.706124663
vn 0 0.708087237 -0.706124964
vn 0 -0.726828366 -0.686819137
vn 0 -0.85629219 -0.516491708
vn 0 -0.726828366 -0.686819137
vn 0 -0.946403493 -0.322986731
vn 0 -0.966829479 0.255422704
vn 0 -0.830690556 0.556734408
vn 0 -0.612834842 0.79021102
vn 0 -0.612834842 0.79021102
vn 0.989751781 -0.138377127 -0.0352587861
vn 0.973809497 -0.22415924 0.0380486233
vn 0.979492049 -0.152261014 0.131954195
vn 0.981048819 -0.12466577 0.148329567
vn 0.985893236 -0.0977803773 0.135843749
vn 0.985389718 -0.103311787 0.135402286
vn 0.986009279 -0.163543135 -0.0322388812
vn 0.998609367 0.032358083 -0.0416207438
vn 0.997623547 0.0330580751 -0.0604518175
vn 0.978972389 -0.20172119 -0.0303582425
vn 0.995014794 -0.0765926661 -0.0638680174
vn -0.989847713 -0.137717711 -0.0351473682
vn -0.979518568 -0.152298394 0.131713985
vn -0.973940448 -0.223609063 0.0379340308
vn -0.980963612 -0.125607436 0.148098492
vn -0.985750329 -0.0993643438 0.135731408
vn -0.985147452 -0.105836652 0.135215021
vn -0.986083807 -0.163030449 -0.0325545443
vn -0.998489772 0.0329729119 -0.043942711
vn -0.997000842 0.0338996016 -0.0695711044
vn -0.979054072 -0.201344424 -0.0302249422
vn -0.995004356 -0.0769925479 -0.0635490265
vn 8.96470217e-05 0.783058267 -0.621948344
vn -8.41898649e-05 0.876585091 0.481246891
vn -6.22927131e-05 0.37013338 -0.92897862
vn -0.000440877333 0.651099962 0.758991861
vn -0.00023104889 0.451127507 -0.892459477
vn -0.000369506468 0.656977132 -0.753910414
vn -0.000455870815 0.789534574 -0.613705914
vn -0.000478543968 0.789522011 -0.613722059
vn -0.000621486789 0.479556205 0.877510946
vn -0.000971187079 0.479850363 0.877349808
vn -0.000230650393 -0.0404850226 0.999180119
vn -0.000339387531 0.491710017 0.870758947
vn -0.000265688092 -0.527268413 0.849698741
vn -0.000351117622 0.491719389 0.87075365
vn -0.000205337428 -0.713809812 0.700339567
vn -0.000432202179 -0.713745434 0.700405075
vn 0.00143629184 0.457820664 -0.889043405
vn 0.00143271103 0.179791587 -0.983703681
vn 0.00143629197 0.457820664 -0.889043405
vn 0.001045257 -0.0979243652 -0.995193311
vn 0.000799223495 -0.30989883 -0.950769202
vn 0.000465359678 -0.310459992 -0.950586333
vn -0.000378079465 -0.999950771 -0.00991524719
vn -0.000378079465 -0.999950771 -0.00991524719
vn -0.00029412508 -0.999950628 -0.00993251531
vn -0.000447837484 -0.999950885 -0.00990089899
vn 0.000148006747 0.991181377 -0.132512098
vn 0.000148006747 0.991181377 -0.132512098
vn 0.000289034356 0.991188637 -0.132457552
vn -5.87311467e-05 0.991170693 -0.132592055
vn -0.992334046 -0.0930824067 0.0812945691
vn -0.992334046 -0.0930824067 0.0812945691
vn -0.992102147 -0.0930874457 0.0840717369
vn -0.992522897 -0.093077615 0.0789611112
vn 0.992334053 -0.0930821647 0.0812947596
vn 0.992334053 -0.0930821647 0.0812947596
vn 0.992522896 -0.0930773732 0.0789613992
vn 0.992102164 -0.0930872035 0.0840718114
vn 0 0.546622301 0.837379281
vn 0 0.546622301 0.837379281
vn 0 0.546622301 0.837379281
vn 0 0.546622301 0.837379281
vn 0 -0.643066234 -0.765810563
vn 0 -0.643066234 -0.765810563
vn 0 -0.643066234 -0.765810563
vn 0 -0.643066234 -0.765810563
vn -0.998636744 -0.0517717307 -0.00665888282
vn -0.995693325 -0.0865729627 0.033165105
vn -0.998712949 -0.0259192568 -0.0435962926
vn -0.974281113 -0.18391274 0.13020145
vn -0.973047917 -0.192896164 0.126367801
vn -0.981114753 -0.173777446 0.0849425694
vn 0.998636741 -0.0517717682 -0.00665906765
vn 0.99317723 -0.107373009 0.0454975369
vn 0.978728607 -0.15057889 0.139342424
vn 0.998712943 -0.025919367 -0.0435963733
vn 0.973048059 -0.192895731 0.126367372
vn 0.96483733 -0.236146486 0.115428611
vn 0 0.554275662 0.832333161
vn 0 0.411617912 0.911356514
vn 0 0.425491167 0.904962577
vn 0 0.554275662 0.832333161
vn 0 0.169074193 0.985603327
vn 0 0.169074193 0.985603327
vn 0 -0.0185012368 -0.999828837
vn 0 0.226289898 -0.974059999
vn 0 0.226289898 -0.974059999
vn 0 -0.256758698 -0.966475541
vn 0 -0.438512012 -0.898725328
vn 0 -0.438512012 -0.898725328
vn 0 -0.393212239 -0.919447734
vn 0 -0.393212239 -0.919447734
vn 0 -0.393212239 -0.919447734
vn 0 -0.393212239 -0.919447734
vn -0.965840864 -0.25100158 -0.064417636
vn -0.965840864 -0.25100158 -0.064417636
vn -0.892297232 -0.436167313 -0.116463405
vn -0.999982099 -0.00365629727 0.00473641063
vn 0.965840903 -0.251001371 -0.0644178669
vn 0.965840903 -0.251001371 -0.0644178669
vn 0.933806789 -0.233520366 -0.271059255
vn 0.90987437 -0.253520938 0.328414014
vn 0 -0.831097575 0.556126624
vn 0 -0.831097575 0.556126624
vn 0 -0.831097575 0.556126624
vn 0 -0.831097575 0.556126624
vn 0 0 -1
vn 0 0 -1
vn 0 0 -1
vn 0 0 -1
vn 0 0 -1
vn -0.920422212 0.390867053 -0.00677489192
vn -0.998541377 -0.0532122183 -0.00914211371
vn -0.997649074 -0.0660500514 -0.0182678885
vn -0.916982269 0.398927961 1.76734572e-16
vn -0.386709171 0.922201723 4.02187164e-16
vn -0.386709171 0.922201723 3.96644178e-16
vn 0.92042232 0.390866798 -0.00677487563
vn 0.998541365 -0.0532124454 -0.00914209055
vn 0.999018753 -0.0403348437 -0.0182929225
vn 0.923858957 0.382733103 1.64615673e-16
vn 0.386709272 0.92220168 3.87625414e-16
vn 0.386709272 0.92220168 3.78606668e-16
vn 0 -1 -4.30105657e-16
vn 0 -1 -4.30105657e-16
vn 0 -1 -4.30105657e-16
vn 0 -1 -4.30105657e-16
vn 0 0 -1
vn 0 0 -1
vn 0 0 -1
vn 0 0 -1
vn 0 0 -1
vn -0.878900036 0.33023249 -0.344211025
vn -0.995709826 -0.0390058295 -0.0839076113
vn -0.944225024 -0.0608023575 -0.323638962
vn -0.935884886 0.351643635 -0.0215924602
vn -0.431255646 0.895834474 -0.107234152
vn -0.389404333 0.849172363 -0.356750002
vn -0.446964069 0.894531716 0.00601085265
vn -0.935806567 0.351614208 0.0251697878
vn -0.999696266 -0.0206550584 0.013444094
vn 0.932220485 0.350266765 -0.0909844015
vn 0.961090937 -0.0465819832 -0.272276202
vn 0.999508032 -0.0221614862 -0.0221937653
vn 0.892284582 0.335261445 -0.302370615
vn 0.402466081 0.851370178 -0.336437028
vn 0.445599743 0.894562485 -0.0346241124
vn 0.936028972 0.351697751 0.0125879023
vn 0.457883629 0.889012139 1.38505977e-16
vn 0.999981494 -0.00608370091 -1.15248599e-18
vn 0 -0.921943947 -0.387323325
vn 0 -0.997317073 -0.0732028467
vn 0 -0.99690071 -0.0786700292
vn 0 -0.921943947 -0.387323325
vn 0 -1 -2.17293563e-16
vn 0 -1 -2.17293563e-16
vn 0.286218557 -0.57970479 0.762903201
vn 0.275776417 0.120355958 0.953657072
vn 0.257333193 0.551077977 0.793783781
vn 0.301057484 -0.862898098 0.405920268
vn 0.211856345 0.786062718 0.58070844
vn 0.211855042 0.786062013 0.58070987
vn 0.257914243 -0.966137306 -0.00767784322
vn 0.257914148 -0.966137331 -0.00767795895
vn 0.212413135 0.795095264 -0.568070578
vn 0.268225342 0.464203565 -0.844138742
vn 0.272083663 0.0206549045 -0.962051899
vn 0.212412794 0.795095554 -0.568070299
vn 0.241054815 -0.292560656 -0.925365246
vn 0.241051445 -0.292557165 -0.925367228
vn 1 0 0
vn 1 0 0
vn 1 0 0
vn 1 0 0
vn 1 0 0
vn 0.22320231 -0.589751498 0.776127502
vn 0.214789319 0.12228886 0.968974191
vn 0.20000732 0.558759445 0.804850889
vn 0.235213115 -0.879491718 0.413725886
vn 0.163922115 0.793439588 0.586159671
vn 0.163922359 0.793439779 0.586159345
vn 0.200473029 -0.979668283 -0.00778590065
vn 0.200473017 -0.979668285 -0.00778591917
vn 0.164361606 0.802597487 -0.573430498
vn 0.208727589 0.471248765 -0.856946554
vn 0.211825066 0.0209795936 -0.977082391
vn 0.164361438 0.802597656 -0.57343031
vn 0.187036306 -0.296128175 -0.936656567
vn 0.187035495 -0.296127075 -0.936657076
vn 1 0 0
vn 1 0 0
vn 1 0 0
vn 1 0 0
vn 1 0 0
vn -0.99847077 0.0424235269 0.0354452395
vn -0.70825584 0.705699112 0.0190375259
vn -0.923655939 0.381405447 0.0372772188
vn -0.455907797 0.889992228 0.00786860145
vn -0.439810658 0.898090522 4.53435241e-16
vn -0.997257485 0.0674529039 0.0304567704
vn -0.997846786 -0.0655651317 0.00173329341
vn -0.990886667 -0.126814407 0.0454061613
vn -0.92951035 -0.316147712 0.18989769
vn 0.998470762 0.0424236911 0.0354452817
vn 0.92365594 0.381405445 0.0372772147
vn 0.70825578 0.705699174 0.0190374624
vn 0.455907814 0.88999222 0.00786857619
vn 0.439810724 0.898090489 4.74046005e-16
vn 0.997257488 0.0674528235 0.0304568509
vn 0.997846778 -0.065565258 0.00173328919
vn 0.990886639 -0.126814569 0.0454063129
vn 0.929509921 -0.316148366 0.189898704
vn 1.2038449e-07 -1 -1.33211738e-07
vn 8.63093571e-08 -0.993488885 0.113929084
vn -1.4030259e-07 -0.969791792 0.243934172
vn 2.40768659e-07 -1 -3.10157324e-16
vn -2.2087995e-07 -0.796024124 0.605264896
vn -2.3561678e-07 -0.6220395 0.782985862
vn -8.96514701e-08 -0.377326619 0.926080246
vn 0 -0.368132552 0.929773319
vn 0 -0.304950216 0.952368293
vn 1.54458616e-06 0.70828093 -0.70593068
vn 2.18261104e-06 0.203600713 -0.979054008
vn 2.30823495e-06 0.203600156 -0.979054123
vn 7.2813809e-07 0.859270019 -0.511522271
vn 2.63528429e-07 0.741157776 -0.671330881
vn 0 0.723482655 -0.690342558
vn 0 0.32707314 -0.944999027
vn 0 0.295751554 -0.955264894
vn 0 0.121495798 -0.992591946
vn 0.997615776 -0.0368821887 -0.0583306713
vn 0.998058517 -0.0316244227 -0.0536571699
vn 0.998831061 -0.0189027886 -0.0444881506
vn 0.997378638 0.0447692574 -0.056846862
vn 0.992773638 0.118298862 -0.0201465172
vn 0.861327123 0.508050719 -0.000233747798
vn 0.865220506 0.500406234 0.031417786
vn 0.433641224 0.901051221 0.00787316972
vn 0.417939275 0.908474965 0
vn -0.992773652 0.11829875 -0.020146484
vn -0.99737865 0.0447691568 -0.0568467354
vn -0.861327222 0.50805055 -0.000233729408
vn -0.865220609 0.500406056 0.0314177898
vn -0.433641375 0.901051148 0.00787317246
vn -0.417939416 0.9084749 0
vn -0.997615791 -0.0368822456 -0.0583303875
vn -0.998058553 -0.031624311 -0.0536565758
vn -0.9988311 -0.0189024737 -0.0444874094
vn 0 0.396554082 -0.918011362
vn 0 0.295247199 -0.955420898
vn 0 0.385120058 -0.922866481
vn 0 0.614072165 -0.789249882
vn 0 0.606821441 -0.794838184
vn 0 0.597605486 -0.801790298
vn 0 0.0103175259 -0.999946773
vn 0 -0.391058712 -0.920365734
vn 0 -0.391058712 -0.920365734
vn 0 -0.422857557 0.906196163
vn 0 -0.295241731 0.955422587
vn 0 -0.439042372 0.898466358
vn 0 -0.666073303 0.745886289
vn 0 -0.656365748 0.754442844
vn 0 -0.902597921 0.430484602
vn 0 -0.907023984 0.421078962
vn 0 -1 0
vn 0 -1 0
vn 0.97140469 0.237214401 0.0101121937
vn 0.869119458 0.494329882 0.0164114522
vn 0.695769837 0.718073439 0.0165791726
vn 0.964267139 0.264886049 -0.00492607097
vn 0.999787106 -0.0206072988 -0.00104042647
vn 0.999673114 -0.025542367 -0.00111936834
vn 0.994997916 -0.099873707 -0.00209518126
vn 0.994442561 -0.105280543 -2.87006234e-17
vn 0.440722198 0.897629787 0.00497084476
vn 0.409151801 0.912433596 -0.00772894404
vn -0.980806373 0.19497581 -0.00181464965
vn -0.852590485 0.522333409 0.016039797
vn -0.96866899 0.248125669 0.0106789973
vn -0.999787115 -0.0206068646 -0.00104042147
vn -0.999673133 -0.0255416038 -0.00111924708
vn -0.994997966 -0.0998732061 -0.00209514506
vn -0.994442624 -0.105279949 -2.8700354e-17
vn -0.668482322 0.743559438 0.0158350084
vn -0.440722038 0.897629865 0.00497102243
vn -0.472588799 0.881251442 -0.00746480961
vn -5.24308719e-07 -0.694517446 0.719475863
vn -2.13640969e-07 -0.750767327 0.660566742
vn 1.08189325e-06 -0.623256624 0.782017379
vn -9.8781303e-07 -0.672250632 0.740323637
vn -6.16043258e-07 -0.368380228 0.929675216
vn 0 -0.321666322 0.946853092
vn 0 -0.0817662093 0.996651537
vn 1.54151068e-06 -0.479297091 0.877652721
vn 3.23889606e-06 -0.479294215 0.877654292
vn 1.25980251e-06 0.309261355 -0.950977084
vn 7.64082792e-07 0.329890416 -0.944019234
vn 1.22746328e-06 0.191447878 -0.981502782
vn 6.85443058e-07 0.518743405 -0.854929986
vn 4.4869978e-07 0.688468283 -0.72526645
vn 4.24227484e-07 0.659768969 -0.751468501
vn 2.26006347e-07 0.480275271 -0.877117816
vn 1.06657749e-07 0.32382799 -0.946115972
vn 0 0.323828184 -0.946115906
vn -5.03020789e-22 -1 -2.72610388e-16
vn -5.03020789e-22 -1 -2.72610388e-16
vn 0 -1 -2.72609877e-16
vn -1.00604346e-21 -1 -2.72610898e-16

g gun26_submesh_0
usemtl LIT07-08_-_Default
f 1/1/1 3/3/3 2/2/2
f 1/1/1 2/2/2 4/4/4
f 1/1/1 4/4/4 5/5/5
f 6/6/6 8/8/8 7/7/7
f 6/6/6 7/7/7 9/9/9
f 6/6/6 9/9/9 10/10/10
f 11/11/11 13/13/13 12/12/12
f 11/11/11 12/12/12 14/14/14
f 15/15/15 17/17/17 16/16/16
f 15/15/15 16/16/16 18/18/18
f 19/19/19 17/17/17 15/15/15
f 19/19/19 20/20/20 17/17/17
f 21/21/21 23/23/23 22/22/22
f 21/21/21 22/22/22 24/24/24
f 25/25/25 27/27/27 26/26/26
f 25/25/25 28/28/28 27/27/27
f 25/25/25 29/29/29 28/28/28
f 30/30/30 28/28/28 29/29/29
f 30/30/30 31/31/31 28/28/28
f 27/27/27 32/32/32 26/26/26
f 32/32/32 33/33/33 26/26/26
f 27/27/27 34/34/34 32/32/32
f 34/34/34 35/35/35 32/32/32
f 34/34/34 36/36/36 35/35/35
f 37/37/37 39/39/39 38/38/38
f 37/37/37 38/38/38 40/40/40
f 37/37/37 40/40/40 41/41/41
f 38/38/38 39/39/39 42/42/42
f 38/38/38 42/42/42 43/43/43
f 43/43/43 42/42/42 44/44/44
f 43/43/43 44/44/44 45/45/45
f 39/39/39 46/46/46 42/42/42
f 47/47/47 49/49/49 48/48/48
f 47/47/47 48/48/48 50/50/50
f 47/47/47 50/50/50 51/51/51
f 48/48/48 49/49/49 52/52/52
f 52/52/52 49/49/49 53/53/53
f 48/48/48 52/52/52 54/54/54
f 54/54/54 52/52/52 55/55/55
f 54/54/54 55/55/55 56/56/56
f 57/57/57 59/59/59 58/58/58
f 57/57/57 58/58/58 60/60/60
f 61/61/61 63/63/63 62/62/62
f 61/61/61 64/64/64 63/63/63
f 61/61/61 65/65/65 64/64/64
f 63/63/63 66/66/66 62/62/62
f 63/63/63 67/67/67 66/66/66
f 67/67/67 68/68/68 66/66/66
f 67/67/67 69/69/69 68/68/68
f 62/62/62 66/66/66 70/70/70
f 71/71/71 73/73/73 72/72/72
f 71/71/71 72/72/72 74/74/74
f 75/75/75 73/73/73 71/71/71
f 75/75/75 76/76/76 73/73/73
f 74/74/74 72/72/72 77/77/77
f 74/74/74 77/77/77 78/78/78
f 79/79/79 76/76/76 75/75/75
f 79/79/79 80/80/80 76/76/76
f 81/81/81 83/83/83 82/82/82
f 81/81/81 82/82/82 84/84/84
f 84/84/84 82/82/82 85/85/85
f 84/84/84 85/85/85 86/86/86
f 87/87/87 83/83/83 81/81/81
f 87/87/87 88/88/88 83/83/83
f 89/89/89 91/91/91 90/90/90
f 89/89/89 90/90/90 92/92/92
f 92/92/92 90/90/90 93/93/93
f 92/92/92 93/93/93 94/94/94
f 94/94/94 93/93/93 95/95/95
f 94/94/94 95/95/95 96/96/96
f 96/96/96 95/95/95 97/97/97
f 96/96/96 97/97/97 98/98/98
f 99/99/99 101/101/101 100/100/100
f 99/99/99 100/100/100 102/102/102
f 102/102/102 100/100/100 103/103/103
f 102/102/102 103/103/103 104/104/104
f 105/105/105 101/101/101 99/99/99
f 105/105/105 106/106/106 101/101/101
f 107/107/107 109/109/109 108/108/108
f 107/107/107 108/108/108 110/110/110
f 111/111/111 109/109/109 107/107/107
f 111/111/111 112/112/112 109/109/109
f 113/113/113 112/112/112 111/111/111
f 113/113/113 114/114/114 112/112/112
f 115/115/115 117/117/117 116/116/116
f 115/115/115 116/116/116 118/118/118
f 118/118/118 116/116/116 119/119/119
f 118/118/118 119/119/119 120/120/120
f 120/120/120 119/119/119 121/121/121
f 120/120/120 121/121/121 122/122/122
f 123/123/123 125/125/125 124/124/124
f 123/123/123 124/124/124 126/126/126
f 127/127/127 126/126/126 124/124/124
f 123/123/123 128/128/128 125/125/125
f 129/129/129 126/126/126 127/127/127
f 129/129/129 127/127/127 130/130/130
f 131/131/131 130/130/130 127/127/127
f 131/131/131 127/127/127 132/132/132
f 129/129/129 130/130/130 133/133/133
f 134/134/134 136/136/136 135/135/135
f 134/134/134 135/135/135 137/137/137
f 138/138/138 137/137/137 135/135/135
f 138/138/138 139/139/139 137/137/137
f 138/138/138 135/135/135 140/140/140
f 140/140/140 135/135/135 141/141/141
f 142/142/142 140/140/140 141/141/141
f 142/142/142 143/143/143 140/140/140
f 142/142/142 144/144/144 143/143/143
f 145/145/145 147/147/147 146/146/146
f 145/145/145 146/146/146 148/148/148
f 149/149/149 145/145/145 148/148/148
f 149/149/149 148/148/148 150/150/150
f 151/151/151 153/153/153 152/152/152
f 151/151/151 152/152/152 154/154/154
f 152/152/152 155/155/155 154/154/154
f 152/152/152 156/156/156 155/155/155
f 157/157/157 155/155/155 156/156/156
f 157/157/157 156/156/156 158/158/158
f 158/158/158 159/159/159 157/157/157
f 158/158/158 160/160/160 159/159/159
f 161/161/161 163/163/163 162/162/162
f 161/161/161 162/162/162 164/164/164
f 162/162/162 165/165/165 164/164/164
f 162/162/162 166/166/166 165/165/165
f 167/167/167 169/169/169 168/168/168
f 167/167/167 168/168/168 170/170/170
f 171/171/171 173/173/173 172/172/172
f 171/171/171 172/172/172 174/174/174
f 175/175/175 177/177/177 176/176/176
f 175/175/175 176/176/176 178/178/178
f 177/177/177 179/179/179 176/176/176
f 177/177/177 180/180/180 179/179/179
f 180/180/180 181/181/181 179/179/179
f 182/182/182 179/179/179 181/181/181
f 182/182/182 181/181/181 183/183/183
f 184/184/184 175/175/175 178/178/178
f 185/185/185 187/187/187 186/186/186
f 185/185/185 188/188/188 187/187/187
f 186/186/186 187/187/187 189/189/189
f 186/186/186 189/189/189 190/190/190
f 190/190/190 189/189/189 191/191/191
f 192/192/192 191/191/191 189/189/189
f 192/192/192 193/193/193 191/191/191
f 194/194/194 188/188/188 185/185/185
f 195/195/195 197/197/197 196/196/196
f 195/195/195 196/196/196 198/198/198
f 196/196/196 197/197/197 199/199/199
f 196/196/196 199/199/199 200/200/200
f 201/201/201 195/195/195 198/198/198
f 202/202/202 204/204/204 203/203/203
f 202/202/202 203/203/203 205/205/205
f 206/206/206 208/208/208 207/207/207
f 206/206/206 207/207/207 209/209/209
f 209/209/209 207/207/207 210/210/210
f 209/209/209 210/210/210 211/211/211
f 210/210/210 212/212/212 211/211/211
f 213/213/213 215/215/215 214/214/214
f 213/213/213 214/214/214 216/216/216
f 217/217/217 219/219/219 218/218/218
f 217/217/217 218/218/218 220/220/220
f 220/220/220 218/218/218 221/221/221
f 220/220/220 221/221/221 222/222/222
f 223/223/223 219/219/219 217/217/217
f 223/223/223 224/224/224 219/219/219
f 225/225/225 227/227/227 226/226/226
f 225/225/225 226/226/226 228/228/228
f 229/229/229 231/231/231 230/230/230
f 229/229/229 230/230/230 232/232/232
f 233/233/233 235/235/235 234/234/234
f 233/233/233 234/234/234 236/236/236
f 237/237/237 239/239/239 238/238/238
f 237/237/237 238/238/238 240/240/240
f 241/241/241 243/243/243 242/242/242
f 241/241/241 242/242/242 244/244/244
f 245/245/245 247/247/247 246/246/246
f 245/245/245 246/246/246 248/248/248
f 247/247/247 249/249/249 246/246/246
f 247/247/247 250/250/250 249/249/249
f 251/251/251 253/253/253 252/252/252
f 251/251/251 252/252/252 254/254/254
f 252/252/252 253/253/253 255/255/255
f 252/252/252 255/255/255 256/256/256
f 257/257/257 259/259/259 258/258/258
f 257/257/257 258/258/258 260/260/260
f 259/259/259 261/261/261 258/258/258
f 259/259/259 262/262/262 261/261/261
f 263/263/263 265/265/265 264/264/264
f 263/263/263 264/264/264 266/266/266
f 264/264/264 265/265/265 267/267/267
f 264/264/264 267/267/267 268/268/268
f 269/269/269 271/271/271 270/270/270
f 269/269/269 270/270/270 272/272/272
f 273/273/273 275/275/275 274/274/274
f 273/273/273 274/274/274 276/276/276
f 274/274/274 275/275/275 277/277/277
f 274/274/274 277/277/277 278/278/278
f 279/279/279 274/274/274 278/278/278
f 279/279/279 278/278/278 280/280/280
f 281/281/281 283/283/283 282/282/282
f 281/281/281 282/282/282 284/284/284
f 283/283/283 285/285/285 282/282/282
f 283/283/283 286/286/286 285/285/285
f 287/287/287 286/286/286 283/283/283
f 287/287/287 288/288/288 286/286/286
f 289/289/289 291/291/291 290/290/290
f 289/289/289 290/290/290 292/292/292
f 293/293/293 291/291/291 289/289/289
f 293/293/293 294/294/294 291/291/291
f 295/295/295 297/297/297 296/296/296
f 295/295/295 296/296/296 298/298/298
f 296/296/296 299/299/299 298/298/298
f 296/296/296 300/300/300 299/299/299
f 299/299/299 300/300/300 301/301/301
f 299/299/299 301/301/301 302/302/302
f 302/302/302 301/301/301 303/303/303
f 302/302/302 303/303/303 304/304/304
f 305/305/305 307/307/307 306/306/306
f 305/305/305 306/306/306 308/308/308
f 308/308/308 306/306/306 309/309/309
f 308/308/308 309/309/309 310/310/310
f 311/311/311 313/313/313 312/312/312
f 311/311/311 314/314/314 313/313/313
f 313/313/313 315/315/315 312/312/312
f 313/313/313 316/316/316 315/315/315
f 317/317/317 319/319/319 318/318/318
f 318/318/318 320/320/320 317/317/317
f 320/320/320 321/321/321 317/317/317
f 320/320/320 322/322/322 321/321/321
f 323/323/323 325/325/325 324/324/324
f 323/323/323 324/324/324 326/326/326
f 326/326/326 324/324/324 327/327/327
f 326/326/326 327/327/327 328/328/328
f 328/328/328 327/327/327 329/329/329
f 328/328/328 329/329/329 330/330/330
f 331/331/331 333/333/333 332/332/332
f 331/331/331 332/332/332 334/334/334
f 334/334/334 332/332/332 335/335/335
f 334/334/334 335/335/335 336/336/336
f 336/336/336 335/335/335 337/337/337
f 336/336/336 337/337/337 338/338/338
f 339/339/339 341/341/341 340/340/340
f 342/342/342 340/340/340 341/341/341
f 342/342/342 341/341/341 343/343/343
f 342/342/342 343/343/343 344/344/344
f 345/345/345 339/339/339 340/340/340
f 345/345/345 346/346/346 339/339/339
f 345/345/345 347/347/347 346/346/346
f 348/348/348 345/345/345 340/340/340
f 348/348/348 349/349/349 345/345/345
f 350/350/350 352/352/352 351/351/351
f 353/353/353 351/351/351 352/352/352
f 353/353/353 354/354/354 351/351/351
f 353/353/353 355/355/355 354/354/354
f 352/352/352 350/350/350 356/356/356
f 356/356/356 350/350/350 357/357/357
f 356/356/356 357/357/357 358/358/358
f 359/359/359 352/352/352 356/356/356
f 359/359/359 356/356/356 360/360/360
f 361/361/361 363/363/363 362/362/362
f 361/361/361 362/362/362 364/364/364
f 365/365/365 363/363/363 361/361/361
f 365/365/365 366/366/366 363/363/363
f 367/367/367 366/366/366 365/365/365
f 367/367/367 368/368/368 366/366/366
f 364/364/364 362/362/362 369/369/369
f 364/364/364 369/369/369 370/370/370
f 371/371/371 373/373/373 372/372/372
f 371/371/371 372/372/372 374/374/374
f 375/375/375 373/373/373 371/371/371
f 375/375/375 376/376/376 373/373/373
f 377/377/377 379/379/379 378/378/378
f 377/377/377 378/378/378 380/380/380
f 380/380/380 378/378/378 381/381/381
f 380/380/380 381/381/381 382/382/382
f 383/383/383 385/385/385 384/384/384
f 383/383/383 384/384/384 386/386/386
f 387/387/387 389/389/389 388/388/388
f 387/387/387 388/388/388 390/390/390
f 391/391/391 393/393/393 392/392/392
f 391/391/391 392/392/392 394/394/394
f 395/395/395 397/397/397 396/396/396
f 395/395/395 396/396/396 398/398/398
f 399/399/399 401/401/401 400/400/400
f 399/399/399 400/400/400 402/402/402
f 403/403/403 405/405/405 404/404/404
f 403/403/403 404/404/404 406/406/406
f 407/407/407 409/409/409 408/408/408
f 407/407/407 408/408/408 410/410/410
f 410/410/410 408/408/408 411/411/411
f 410/410/410 411/411/411 412/412/412
f 413/413/413 415/415/415 414/414/414
f 413/413/413 414/414/414 416/416/416
f 414/414/414 415/415/415 417/417/417
f 414/414/414 417/417/417 418/418/418
f 419/419/419 421/421/421 420/420/420
f 419/419/419 420/420/420 422/422/422
f 420/420/420 421/421/421 423/423/423
f 420/420/420 423/423/423 424/424/424
f 425/425/425 427/427/427 426/426/426
f 425/425/425 426/426/426 428/428/428
f 429/429/429 425/425/425 428/428/428
f 429/429/429 428/428/428 430/430/430
f 431/431/431 433/433/433 432/432/432
f 431/431/431 432/432/432 434/434/434
f 435/435/435 437/437/437 436/436/436
f 435/435/435 436/436/436 438/438/438
f 439/439/439 441/441/441 440/440/440
f 439/439/439 440/440/440 442/442/442
f 443/443/443 445/445/445 444/444/444
f 443/443/443 444/444/444 446/446/446
f 447/447/447 449/449/449 448/448/448
f 448/448/448 449/449/449 450/450/450
f 448/448/448 450/450/450 451/451/451
f 452/452/452 454/454/454 453/453/453
f 452/452/452 453/453/453 455/455/455
f 456/456/456 452/452/452 455/455/455
f 456/456/456 457/457/457 452/452/452
f 458/458/458 460/460/460 459/459/459
f 458/458/458 459/459/459 461/461/461
f 458/458/458 461/461/461 462/462/462
f 458/458/458 462/462/462 463/463/463
f 464/464/464 466/466/466 465/465/465
f 464/464/464 465/465/465 467/467/467
f 468/468/468 470/470/470 469/469/469
f 469/469/469 470/470/470 471/471/471
f 469/469/469 471/471/471 472/472/472
f 473/473/473 475/475/475 474/474/474
f 473/473/473 474/474/474 476/476/476
f 477/477/477 473/473/473 476/476/476
f 477/477/477 478/478/478 473/473/473
f 479/479/479 477/477/477 476/476/476
f 479/479/479 476/476/476 480/480/480
f 476/476/476 474/474/474 481/481/481
f 476/476/476 481/481/481 480/480/480
f 482/482/482 484/484/484 483/483/483
f 482/482/482 483/483/483 485/485/485
f 482/482/482 485/485/485 486/486/486
f 482/482/482 486/486/486 487/487/487
f 488/488/488 482/482/482 487/487/487
f 488/488/488 484/484/484 482/482/482
f 488/488/488 487/487/487 489/489/489
f 488/488/488 490/490/490 484/484/484
f 491/491/491 493/493/493 492/492/492
f 491/491/491 492/492/492 494/494/494
f 492/492/492 493/493/493 495/495/495
f 492/492/492 495/495/495 496/496/496
f 497/497/497 499/499/499 498/498/498
f 497/497/497 498/498/498 500/500/500
f 499/499/499 501/501/501 498/498/498
f 499/499/499 502/502/502 501/501/501
f 503/503/503 497/497/497 500/500/500
f 503/503/503 500/500/500 504/504/504
f 505/505/505 507/507/507 506/506/506
f 505/505/505 506/506/506 508/508/508
f 507/507/507 509/509/509 506/506/506
f 507/507/507 510/510/510 509/509/509
f 511/511/511 513/513/513 512/512/512
f 511/511/511 512/512/512 514/514/514
f 511/511/511 514/514/514 515/515/515
f 516/516/516 518/518/518 517/517/517
f 516/516/516 517/517/517 519/519/519
f 518/518/518 520/520/520 517/517/517
f 518/518/518 521/521/521 520/520/520
f 522/522/522 516/516/516 519/519/519
f 522/522/522 519/519/519 523/523/523
f 524/524/524 526/526/526 525/525/525
f 524/524/524 525/525/525 527/527/527
f 526/526/526 528/528/528 525/525/525
f 526/526/526 529/529/529 528/528/528
f 530/530/530 532/532/532 531/531/531
f 530/530/530 531/531/531 533/533/533
f 530/530/530 533/533/533 534/534/534
f 535/535/535 537/537/537 536/536/536
f 536/536/536 537/537/537 538/538/538
f 536/536/536 538/538/538 539/539/539
f 535/535/535 540/540/540 537/537/537
f 535/535/535 541/541/541 540/540/540
f 542/542/542 541/541/541 535/535/535
f 542/542/542 535/535/535 543/543/543
f 544/544/544 546/546/546 545/545/545
f 546/546/546 547/547/547 545/545/545
f 546/546/546 548/548/548 547/547/547
f 544/544/544 545/545/545 549/549/549
f 544/544/544 549/549/549 550/550/550
f 551/551/551 544/544/544 550/550/550
f 551/551/551 552/552/552 544/544/544
f 553/553/553 555/555/555 554/554/554
f 553/553/553 554/554/554 556/556/556
f 555/555/555 557/557/557 554/554/554
f 555/555/555 558/558/558 557/557/557
f 558/558/558 559/559/559 557/557/557
f 558/558/558 560/560/560 559/559/559
f 560/560/560 561/561/561 559/559/559
f 562/562/562 564/564/564 563/563/563
f 562/562/562 563/563/563 565/565/565
f 566/566/566 562/562/562 565/565/565
f 566/566/566 565/565/565 567/567/567
f 568/568/568 566/566/566 567/567/567
f 568/568/568 569/569/569 566/566/566
f 568/568/568 570/570/570 569/569/569
f 571/571/571 573/573/573 572/572/572
f 571/571/571 572/572/572 574/574/574
f 575/575/575 571/571/571 574/574/574
f 575/575/575 574/574/574 576/576/576
f 575/575/575 576/576/576 577/577/577
f 576/576/576 578/578/578 577/577/577
f 576/576/576 579/579/579 578/578/578
f 580/580/580 582/582/582 581/581/581
f 580/580/580 583/583/583 582/582/582
f 582/582/582 583/583/583 584/584/584
f 582/582/582 584/584/584 585/585/585
f 580/580/580 581/581/581 586/586/586
f 586/586/586 581/581/581 587/587/587
f 586/586/586 587/587/587 588/588/588
f 589/589/589 591/591/591 590/590/590
f 589/589/589 592/592/592 591/591/591
f 589/589/589 593/593/593 592/592/592
f 594/594/594 592/592/592 593/593/593
f 594/594/594 595/595/595 592/592/592
f 596/596/596 595/595/595 594/594/594
f 596/596/596 597/597/597 595/595/595
f 598/598/598 600/600/600 599/599/599
f 601/601/601 600/600/600 598/598/598
f 601/601/601 602/602/602 600/600/600
f 603/603/603 602/602/602 601/601/601
f 603/603/603 601/601/601 604/604/604
f 603/603/603 604/604/604 605/605/605
f 603/603/603 605/605/605 606/606/606
f 607/607/607 609/609/609 608/608/608
f 607/607/607 608/608/608 610/610/610
f 607/607/607 610/610/610 611/611/611
f 612/612/612 607/607/607 611/611/611
f 613/613/613 612/612/612 611/611/611
f 613/613/613 611/611/611 614/614/614
f 615/615/615 608/608/608 609/609/609
f 615/615/615 609/609/609 616/616/616
f 617/617/617 619/619/619 618/618/618
f 617/617/617 620/620/620 619/619/619
f 621/621/621 620/620/620 617/617/617
f 622/622/622 620/620/620 621/621/621
f 622/622/622 623/623/623 620/620/620
f 619/619/619 624/624/624 618/618/618
f 624/624/624 625/625/625 618/618/618
f 624/624/624 626/626/626 625/625/625
f 627/627/627 629/629/629 628/628/628
f 627/627/627 628/628/628 630/630/630
f 631/631/631 627/627/627 630/630/630
f 631/631/631 632/632/632 627/627/627
f 631/631/631 633/633/633 632/632/632
f 629/629/629 634/634/634 628/628/628
f 629/629/629 635/635/635 634/634/634
f 636/636/636 638/638/638 637/637/637
f 639/639/639 636/636/636 637/637/637
f 639/639/639 637/637/637 640/640/640
f 641/641/641 639/639/639 640/640/640
f 641/641/641 640/640/640 642/642/642
f 643/643/643 641/641/641 642/642/642
f 643/643/643 642/642/642 644/644/644
f 645/645/645 647/647/647 646/646/646
f 645/645/645 646/646/646 648/648/648
