# Generated from legacy Unity YAML Mesh assets without Unity.
mtllib gun24.mtl

o gun_machinegun
v 0.0323027074 -0.113400273 -0.639069489
v -0.0403323248 -0.113400273 -1.72615064
v -0.0403323248 -0.113400273 -0.639069489
v 0.0323027074 -0.113400273 -1.72615064
v 0.0323027074 -0.113400273 -1.72615064
v -0.0403323248 -0.0407667526 -1.72615064
v -0.0403323248 -0.113400273 -1.72615064
v 0.0323027074 -0.0407667526 -1.72615064
v 0.0323027074 -0.0407667526 -1.72615064
v -0.0403323248 -0.0407667526 -0.639069489
v -0.0403323248 -0.0407667526 -1.72615064
v 0.0323027074 -0.0407667526 -0.639069489
v -0.0403323248 -0.113400273 -0.639069489
v -0.0403323248 -0.0407667526 -1.72615064
v -0.0403323248 -0.0407667526 -0.639069489
v -0.0403323248 -0.113400273 -1.72615064
v 0.0323027074 -0.0407667526 -0.639069489
v 0.0323027074 -0.113400273 -1.72615064
v 0.0323027074 -0.113400273 -0.639069489
v 0.0323027074 -0.0407667526 -1.72615064
v 0.121197186 -0.113400273 -0.639069489
v 0.0485621504 -0.113400273 -1.72615064
v 0.0485621504 -0.113400273 -0.639069489
v 0.121197186 -0.113400273 -1.72615064
v 0.121197186 -0.113400273 -1.72615064
v 0.0485621504 -0.0407667526 -1.72615064
v 0.0485621504 -0.113400273 -1.72615064
v 0.121197186 -0.0407667526 -1.72615064
v 0.121197186 -0.0407667526 -1.72615064
v 0.0485621504 -0.0407667526 -0.639069489
v 0.0485621504 -0.0407667526 -1.72615064
v 0.121197186 -0.0407667526 -0.639069489
v 0.0485621504 -0.113400273 -0.639069489
v 0.0485621504 -0.0407667526 -1.72615064
v 0.0485621504 -0.0407667526 -0.639069489
v 0.0485621504 -0.113400273 -1.72615064
v 0.121197186 -0.0407667526 -0.639069489
v 0.121197186 -0.113400273 -1.72615064
v 0.121197186 -0.113400273 -0.639069489
v 0.121197186 -0.0407667526 -1.72615064
v 0.164837807 -0.189115635 -0.639069489
v 0.0922027677 -0.189115635 -1.72615064
v 0.0922027677 -0.189115635 -0.639069489
v 0.164837807 -0.189115635 -1.72615064
v 0.164837807 -0.189115635 -1.72615064
v 0.0922027677 -0.116478688 -1.72615064
v 0.0922027677 -0.189115635 -1.72615064
v 0.164837807 -0.116478688 -1.72615064
v 0.164837807 -0.116478688 -1.72615064
v 0.0922027677 -0.116478688 -0.639069489
v 0.0922027677 -0.116478688 -1.72615064
v 0.164837807 -0.116478688 -0.639069489
v 0.0922027677 -0.189115635 -0.639069489
v 0.0922027677 -0.116478688 -1.72615064
v 0.0922027677 -0.116478688 -0.639069489
v 0.0922027677 -0.189115635 -1.72615064
v 0.164837807 -0.116478688 -0.639069489
v 0.164837807 -0.189115635 -1.72615064
v 0.164837807 -0.189115635 -0.639069489
v 0.164837807 -0.116478688 -1.72615064
v 0.121197186 -0.264333702 -0.639069489
v 0.0485621504 -0.264333702 -1.72615064
v 0.0485621504 -0.264333702 -0.639069489
v 0.121197186 -0.264333702 -1.72615064
v 0.121197186 -0.264333702 -1.72615064
v 0.0485621504 -0.191700167 -1.72615064
v 0.0485621504 -0.264333702 -1.72615064
v 0.121197186 -0.191700167 -1.72615064
v 0.121197186 -0.191700167 -1.72615064
v 0.0485621504 -0.191700167 -0.639069489
v 0.0485621504 -0.191700167 -1.72615064
v 0.121197186 -0.191700167 -0.639069489
v 0.0485621504 -0.264333702 -0.639069489
v 0.0485621504 -0.191700167 -1.72615064
v 0.0485621504 -0.191700167 -0.639069489
v 0.0485621504 -0.264333702 -1.72615064
v 0.121197186 -0.191700167 -0.639069489
v 0.121197186 -0.264333702 -1.72615064
v 0.121197186 -0.264333702 -0.639069489
v 0.121197186 -0.191700167 -1.72615064
v 0.0323027074 -0.264333702 -0.639069489
v -0.0403323248 -0.264333702 -1.72615064
v -0.0403323248 -0.264333702 -0.639069489
v 0.0323027074 -0.264333702 -1.72615064
v 0.0323027074 -0.264333702 -1.72615064
v -0.0403323248 -0.191700167 -1.72615064
v -0.0403323248 -0.264333702 -1.72615064
v 0.0323027074 -0.191700167 -1.72615064
v 0.0323027074 -0.191700167 -1.72615064
v -0.0403323248 -0.191700167 -0.639069489
v -0.0403323248 -0.191700167 -1.72615064
v 0.0323027074 -0.191700167 -0.639069489
v -0.0403323248 -0.264333702 -0.639069489
v -0.0403323248 -0.191700167 -1.72615064
v -0.0403323248 -0.191700167 -0.639069489
v -0.0403323248 -0.264333702 -1.72615064
v 0.0323027074 -0.191700167 -0.639069489
v 0.0323027074 -0.264333702 -1.72615064
v 0.0323027074 -0.264333702 -0.639069489
v 0.0323027074 -0.191700167 -1.72615064
v -0.0150174201 -0.189115635 -0.639069489
v -0.0876522437 -0.189115635 -1.72615064
v -0.0876522437 -0.189115635 -0.639069489
v -0.0150174201 -0.189115635 -1.72615064
v -0.0150174201 -0.189115635 -1.72615064
v -0.0876522437 -0.116478688 -1.72615064
v -0.0876522437 -0.189115635 -1.72615064
v -0.0150174201 -0.116478688 -1.72615064
v -0.0150174201 -0.116478688 -1.72615064
v -0.0876522437 -0.116478688 -0.639069489
v -0.0876522437 -0.116478688 -1.72615064
v -0.0150174201 -0.116478688 -0.639069489
v -0.0876522437 -0.189115635 -0.639069489
v -0.0876522437 -0.116478688 -1.72615064
v -0.0876522437 -0.116478688 -0.639069489
v -0.0876522437 -0.189115635 -1.72615064
v -0.0150174201 -0.116478688 -0.639069489
v -0.0150174201 -0.189115635 -1.72615064
v -0.0150174201 -0.189115635 -0.639069489
v -0.0150174201 -0.116478688 -1.72615064
v -0.0945679843 -0.0577687953 -0.542868565
v -0.0441690385 -0.0196742823 -0.197644254
v -0.0945679843 -0.0577687953 -0.142491372
v -0.0441690385 -0.0196742823 -0.47754761
v -0.0945679843 -0.197591727 -0.542868565
v -0.0945679843 -0.0577687953 -0.142491372
v -0.0945679843 -0.198169654 -0.141729386
v -0.0945679843 -0.0577687953 -0.542868565
v 0.179143935 -0.0577687953 -0.542868565
v 0.12874499 -0.0196742823 -0.197644254
v 0.12874499 -0.0196742823 -0.47754761
v 0.179143935 -0.0577687953 -0.142491372
v 0.179143935 -0.198169654 -0.141729386
v 0.179143935 -0.0577687953 -0.542868565
v 0.179143935 -0.197591727 -0.542868565
v 0.179143935 -0.0577687953 -0.142491372
v 0.179143935 -0.0577687953 -0.142491372
v -0.0441690385 -0.0196742823 -0.197644254
v 0.12874499 -0.0196742823 -0.197644254
v -0.0945679843 -0.0577687953 -0.142491372
v 0.12874499 -0.0196742823 -0.197644254
v -0.0441690385 -0.0196742823 -0.47754761
v 0.12874499 -0.0196742823 -0.47754761
v -0.0441690385 -0.0196742823 -0.197644254
v 0.12874499 -0.0196742823 -0.47754761
v -0.0945679843 -0.0577687953 -0.542868565
v 0.179143935 -0.0577687953 -0.542868565
v -0.0441690385 -0.0196742823 -0.47754761
v 0.104844958 -0.266013092 -0.516565279
v -0.0202700794 -0.266013092 -0.184930347
v 0.104844958 -0.266013092 -0.184930347
v -0.0202700794 -0.266013092 -0.516565279
v -0.0945679843 -0.197591727 -0.542868565
v 0.104844958 -0.266013092 -0.516565279
v 0.179143935 -0.197591727 -0.542868565
v -0.0202700794 -0.266013092 -0.516565279
v -0.0945679843 -0.198169654 -0.141729386
v 0.179143935 -0.0577687953 -0.142491372
v 0.179143935 -0.198169654 -0.141729386
v -0.0945679843 -0.0577687953 -0.142491372
v 0.104844958 -0.266013092 -0.184930347
v -0.0945679843 -0.198169654 -0.141729386
v 0.179143935 -0.198169654 -0.141729386
v -0.0202700794 -0.266013092 -0.184930347
v -0.0945679843 -0.197591727 -0.542868565
v -0.0202700794 -0.266013092 -0.184930347
v -0.0202700794 -0.266013092 -0.516565279
v -0.0945679843 -0.198169654 -0.141729386
v 0.104844958 -0.266013092 -0.516565279
v 0.179143935 -0.198169654 -0.141729386
v 0.179143935 -0.197591727 -0.542868565
v 0.104844958 -0.266013092 -0.184930347
v 0.179143935 -0.0577687953 -0.542868565
v -0.0945679843 -0.197591727 -0.542868565
v 0.179143935 -0.197591727 -0.542868565
v -0.0945679843 -0.0577687953 -0.542868565
v 0.210559994 -0.37501423 -0.496584376
v 0.239674002 -0.288292827 -0.30225563
v 0.239533931 -0.287791195 -0.521016553
v 0.210547 -0.374968454 -0.34860753
v 0.104844958 -0.266013092 -0.516565279
v 0.239533931 -0.287791195 -0.521016553
v 0.179143935 -0.197591727 -0.542868565
v 0.210559994 -0.37501423 -0.496584376
v 0.179143935 -0.197591727 -0.542868565
v 0.239674002 -0.288292827 -0.30225563
v 0.179143935 -0.198169654 -0.25234128
v 0.239533931 -0.287791195 -0.521016553
v 0.179143935 -0.198169654 -0.25234128
v 0.210547 -0.374968454 -0.34860753
v 0.104844958 -0.266013092 -0.287240507
v 0.239674002 -0.288292827 -0.30225563
v 0.104844958 -0.266013092 -0.287240507
v 0.210559994 -0.37501423 -0.496584376
v 0.104844958 -0.266013092 -0.516565279
v 0.210547 -0.374968454 -0.34860753
v -0.0133850276 -0.0677680685 -0.522667363
v 0.0927139819 -0.0677680685 -0.646747519
v 0.0927139819 -0.0677680685 -0.522667363
v -0.0133850276 -0.0677680685 -0.646747519
v 0.0927139819 -0.0677680685 -0.522667363
v 0.145764023 -0.152985527 -0.646747519
v 0.145764023 -0.152985527 -0.522667363
v 0.0927139819 -0.0677680685 -0.646747519
v 0.145764023 -0.152985527 -0.522667363
v 0.12717095 -0.240439352 -0.561874337
v 0.108694941 -0.240439352 -0.522667363
v 0.108694941 -0.240439352 -0.522667363
v -0.047841996 -0.240439352 -0.561874337
v -0.0293659866 -0.240439352 -0.522667363
v 0.12717095 -0.240439352 -0.561874337
v -0.0664350688 -0.152985527 -0.522667363
v -0.0133850276 -0.0677680685 -0.646747519
v -0.0133850276 -0.0677680685 -0.522667363
v -0.0664350688 -0.152985527 -0.646747519
v -0.0133850276 -0.0677680685 -0.646747519
v 0.0396639407 -0.152985527 -0.646747519
v 0.0927139819 -0.0677680685 -0.646747519
v 0.145764023 -0.152985527 -0.646747519
v 0.109941989 -0.240439352 -0.646651198
v -0.030613035 -0.240439352 -0.646651198
v -0.0664350688 -0.152985527 -0.646747519
v 0.0934109986 -0.328814441 -0.679958267
v -0.0318680704 -0.284536305 -0.71741811
v -0.0140820444 -0.328814441 -0.679958267
v 0.111197025 -0.284536305 -0.71741811
v 0.12717095 -0.240439352 -0.561874337
v -0.0219300687 -0.328814441 -0.589231433
v -0.047841996 -0.240439352 -0.561874337
v 0.101259023 -0.328814441 -0.589231433
v -0.047841996 -0.240439352 -0.561874337
v -0.0336759984 -0.284536305 -0.626691276
v -0.030613035 -0.240439352 -0.646651198
v -0.0219300687 -0.328814441 -0.589231433
v -0.030613035 -0.240439352 -0.646651198
v 0.113004953 -0.284536305 -0.626691276
v 0.109941989 -0.240439352 -0.646651198
v -0.0336759984 -0.284536305 -0.626691276
v 0.109941989 -0.240439352 -0.646651198
v 0.101259023 -0.328814441 -0.589231433
v 0.12717095 -0.240439352 -0.561874337
v 0.113004953 -0.284536305 -0.626691276
v 0.101259023 -0.328814441 -0.589231433
v -0.0140820444 -0.328814441 -0.679958267
v -0.0219300687 -0.328814441 -0.589231433
v 0.0934109986 -0.328814441 -0.679958267
v -0.0219300687 -0.328814441 -0.589231433
v -0.0318680704 -0.284536305 -0.71741811
v -0.0336759984 -0.284536305 -0.626691276
v -0.0140820444 -0.328814441 -0.679958267
v -0.0336759984 -0.284536305 -0.626691276
v 0.111197025 -0.284536305 -0.71741811
v 0.113004953 -0.284536305 -0.626691276
v -0.0318680704 -0.284536305 -0.71741811
v 0.113004953 -0.284536305 -0.626691276
v 0.0934109986 -0.328814441 -0.679958267
v 0.101259023 -0.328814441 -0.589231433
v 0.111197025 -0.284536305 -0.71741811
v -0.047841996 -0.240439352 -0.561874337
v -0.0664350688 -0.152985527 -0.646747519
v -0.0664350688 -0.152985527 -0.522667363
v -0.030613035 -0.240439352 -0.646651198
v -0.047841996 -0.240439352 -0.561874337
v -0.0664350688 -0.152985527 -0.522667363
v -0.0293659866 -0.240439352 -0.522667363
v 0.145764023 -0.152985527 -0.522667363
v 0.109941989 -0.240439352 -0.646651198
v 0.12717095 -0.240439352 -0.561874337
v 0.145764023 -0.152985527 -0.646747519
v -0.00199207664 -0.0574321483 -0.146836311
v -0.00172099471 -0.124097784 -0.0319614943
v -0.0116400421 -0.124097784 -0.146836311
v 0.00660100579 -0.0574321483 -0.0537772667
v -0.0001270473 -0.0574321483 0.0647453536
v 0.0884279311 -0.124097784 0.0500215788
v -0.00525400043 -0.124097784 0.0500215788
v 0.0833009779 -0.0574321483 0.0647453536
v 0.0765729249 -0.0574321483 -0.0537772667
v 0.0948139727 -0.124097784 -0.146836311
v 0.0848949254 -0.124097784 -0.0319614943
v 0.0851660073 -0.0574321483 -0.146836311
v 0.0880669653 -0.198798125 -0.146836311
v 0.00376799703 -0.18327994 -0.077021643
v 0.0794059336 -0.18327994 -0.077021643
v -0.00489398837 -0.198798125 -0.146836311
v 0.0765729249 -0.0574321483 -0.0537772667
v -0.00199207664 -0.0574321483 -0.146836311
v 0.0851660073 -0.0574321483 -0.146836311
v 0.00660100579 -0.0574321483 -0.0537772667
v 0.0829029381 0.228807418 -0.0501246948
v 0.00355699658 0.143031107 -0.0903692661
v 0.0796169341 0.143031107 -0.0903692661
v 0.000270992517 0.228807418 -0.0501246948
v 0.0833009779 -0.0574321483 0.0647453536
v 0.0848949254 -0.124097784 -0.0319614943
v 0.0884279311 -0.124097784 0.0500215788
v 0.0765729249 -0.0574321483 -0.0537772667
v 0.071726948 -0.00655268002 -0.0343604615
v -0.00172099471 -0.124097784 -0.0319614943
v 0.0884279311 -0.124097784 0.0500215788
v 0.0848949254 -0.124097784 -0.0319614943
v -0.00525400043 -0.124097784 0.0500215788
v 0.00660100579 -0.0574321483 -0.0537772667
v -0.00525400043 -0.124097784 0.0500215788
v -0.00172099471 -0.124097784 -0.0319614943
v -0.0001270473 -0.0574321483 0.0647453536
v 0.0114469826 -0.00655268002 -0.0343604615
v 0.0765729249 -0.0574321483 -0.0537772667
v 0.0114469826 -0.00655268002 -0.0343604615
v 0.00660100579 -0.0574321483 -0.0537772667
v 0.071726948 -0.00655268002 -0.0343604615
v 0.0114469826 -0.00655268002 -0.0343604615
v -0.00992402434 0.176457385 -0.00404030004
v -0.0001270473 -0.0574321483 0.0647453536
v 0.00355699658 0.143031107 -0.0903692661
v -0.0001270473 -0.0574321483 0.0647453536
v 0.093097955 0.176457385 -0.00404030004
v 0.0833009779 -0.0574321483 0.0647453536
v -0.00992402434 0.176457385 -0.00404030004
v 0.093097955 0.176457385 -0.00404030004
v 0.0829029381 0.228807418 -0.0501246948
v 0.0796169341 0.143031107 -0.0903692661
v -0.00992402434 0.176457385 -0.00404030004
v 0.0829029381 0.228807418 -0.0501246948
v 0.093097955 0.176457385 -0.00404030004
v 0.000270992517 0.228807418 -0.0501246948
v 0.00355699658 0.143031107 -0.0903692661
v 0.000270992517 0.228807418 -0.0501246948
v -0.00992402434 0.176457385 -0.00404030004
v 0.071726948 -0.00655268002 -0.0343604615
v 0.00355699658 0.143031107 -0.0903692661
v 0.0114469826 -0.00655268002 -0.0343604615
v 0.0796169341 0.143031107 -0.0903692661
v 0.0833009779 -0.0574321483 0.0647453536
v 0.0796169341 0.143031107 -0.0903692661
v 0.071726948 -0.00655268002 -0.0343604615
v 0.093097955 0.176457385 -0.00404030004
v 0.0948139727 -0.124097784 -0.146836311
v 0.0794059336 -0.18327994 -0.077021643
v 0.0848949254 -0.124097784 -0.0319614943
v 0.0880669653 -0.198798125 -0.146836311
v 0.0848949254 -0.124097784 -0.0319614943
v 0.00376799703 -0.18327994 -0.077021643
v -0.00172099471 -0.124097784 -0.0319614943
v 0.0794059336 -0.18327994 -0.077021643
v -0.00172099471 -0.124097784 -0.0319614943
v -0.00489398837 -0.198798125 -0.146836311
v -0.0116400421 -0.124097784 -0.146836311
v 0.00376799703 -0.18327994 -0.077021643
v 0.221377999 -0.0453300236 -0.743322283
v -0.137623996 -0.00200365444 -0.743322283
v -0.137623996 -0.0453300236 -0.743322283
v 0.221377999 -0.00200365444 -0.743322283
v 0.221377999 -0.00200365444 -0.743322283
v -0.137623996 -0.00200365444 -0.678961201
v -0.137623996 -0.00200365444 -0.743322283
v 0.221377999 -0.00200365444 -0.678961201
v 0.221377999 -0.00200365444 -0.678961201
v -0.137623996 -0.0453300236 -0.678961201
v -0.137623996 -0.00200365444 -0.678961201
v 0.221377999 -0.0453300236 -0.678961201
v 0.221377999 -0.0453300236 -0.678961201
v -0.137623996 -0.0453300236 -0.743322283
v -0.137623996 -0.0453300236 -0.678961201
v 0.221377999 -0.0453300236 -0.743322283
v -0.129363984 -0.0418586498 -0.610549387
v -0.214423031 0.00368882642 -0.610549387
v -0.129363984 0.00368882642 -0.610549387
v -0.214423031 -0.0418586498 -0.610549387
v -0.207257003 -0.148963884 -0.678961201
v -0.129363984 -0.0418586498 -0.610549387
v -0.150710076 -0.148963884 -0.678961201
v -0.214423031 -0.0418586498 -0.610549387
v -0.214423031 0.00368882642 -0.749139219
v -0.150710076 -0.148963884 -0.749139219
v -0.129363984 0.00368882642 -0.749139219
v -0.207257003 -0.148963884 -0.749139219
v -0.214423031 0.00368882642 -0.749139219
v -0.129363984 0.00368882642 -0.610549387
v -0.214423031 0.00368882642 -0.610549387
v -0.129363984 0.00368882642 -0.749139219
v -0.214423031 -0.0418586498 -0.610549387
v -0.207257003 -0.148963884 -0.749139219
v -0.214423031 0.00368882642 -0.749139219
v -0.207257003 -0.148963884 -0.678961201
v -0.207257003 -0.148963884 -0.678961201
v -0.150710076 -0.148963884 -0.749139219
v -0.207257003 -0.148963884 -0.749139219
v -0.150710076 -0.148963884 -0.678961201
v -0.214423031 0.00368882642 -0.749139219
v -0.214423031 0.00368882642 -0.610549387
v -0.214423031 -0.0418586498 -0.610549387
v -0.129363984 0.00368882642 -0.749139219
v -0.129363984 -0.0418586498 -0.610549387
v -0.129363984 0.00368882642 -0.610549387
v -0.129363984 0.00368882642 -0.749139219
v -0.150710076 -0.148963884 -0.749139219
v -0.129363984 -0.0418586498 -0.610549387
v -0.150710076 -0.148963884 -0.749139219
v -0.150710076 -0.148963884 -0.678961201
v -0.129363984 -0.0418586498 -0.610549387
v 0.214535028 -0.0418586498 -0.610549387
v 0.299595028 0.00368882642 -0.610549387
v 0.299595028 -0.0418586498 -0.610549387
v 0.214535028 0.00368882642 -0.610549387
v 0.292429 -0.148963884 -0.678961201
v 0.214535028 -0.0418586498 -0.610549387
v 0.299595028 -0.0418586498 -0.610549387
v 0.235881001 -0.148963884 -0.678961201
v 0.299595028 0.00368882642 -0.749139219
v 0.235881001 -0.148963884 -0.749139219
v 0.292429 -0.148963884 -0.749139219
v 0.214535028 0.00368882642 -0.749139219
v 0.299595028 0.00368882642 -0.749139219
v 0.214535028 0.00368882642 -0.610549387
v 0.214535028 0.00368882642 -0.749139219
v 0.299595028 0.00368882642 -0.610549387
v 0.299595028 -0.0418586498 -0.610549387
v 0.292429 -0.148963884 -0.749139219
v 0.292429 -0.148963884 -0.678961201
v 0.299595028 0.00368882642 -0.749139219
v 0.292429 -0.148963884 -0.678961201
v 0.235881001 -0.148963884 -0.749139219
v 0.235881001 -0.148963884 -0.678961201
v 0.292429 -0.148963884 -0.749139219
v 0.299595028 0.00368882642 -0.749139219
v 0.299595028 -0.0418586498 -0.610549387
v 0.299595028 0.00368882642 -0.610549387
v 0.214535028 0.00368882642 -0.749139219
v 0.214535028 0.00368882642 -0.610549387
v 0.214535028 -0.0418586498 -0.610549387
v 0.214535028 0.00368882642 -0.749139219
v 0.214535028 -0.0418586498 -0.610549387
v 0.235881001 -0.148963884 -0.749139219
v 0.235881001 -0.148963884 -0.749139219
v 0.214535028 -0.0418586498 -0.610549387
v 0.235881001 -0.148963884 -0.678961201
v 0.146421939 0.173579196 -0.702589431
v 0.13845697 -0.00738046916 -0.733069333
v 0.174132973 -0.00738046916 -0.733069333
v 0.118176967 0.130146015 -0.709905542
v -0.0641990602 0.173579196 -0.702589431
v -0.0359550416 0.130146015 -0.709905542
v -0.0919110477 -0.00738046916 -0.733069333
v -0.0562339723 -0.00738046916 -0.733069333
v -0.0641990602 0.166807156 -0.662390159
v 0.146421939 0.173579196 -0.702589431
v 0.146421939 0.166807156 -0.662390159
v -0.0641990602 0.173579196 -0.702589431
v 0.118176967 0.123374929 -0.669705317
v 0.174132973 -0.0141515554 -0.692870538
v 0.13845697 -0.0141515554 -0.692870538
v 0.146421939 0.166807156 -0.662390159
v -0.0359550416 0.123374929 -0.669705317
v -0.0641990602 0.166807156 -0.662390159
v -0.0919110477 -0.0141515554 -0.692870538
v -0.0562339723 -0.0141515554 -0.692870538
v 0.13845697 -0.0141515554 -0.692870538
v 0.118176967 0.130146015 -0.709905542
v 0.118176967 0.123374929 -0.669705317
v 0.13845697 -0.00738046916 -0.733069333
v 0.174132973 -0.0141515554 -0.692870538
v 0.146421939 0.173579196 -0.702589431
v 0.174132973 -0.00738046916 -0.733069333
v 0.146421939 0.166807156 -0.662390159
v 0.118176967 0.130146015 -0.709905542
v -0.0359550416 0.123374929 -0.669705317
v 0.118176967 0.123374929 -0.669705317
v -0.0359550416 0.130146015 -0.709905542
v -0.0562339723 -0.0141515554 -0.692870538
v -0.0359550416 0.130146015 -0.709905542
v -0.0562339723 -0.00738046916 -0.733069333
v -0.0359550416 0.123374929 -0.669705317
v -0.0641990602 0.166807156 -0.662390159
v -0.0919110477 -0.00738046916 -0.733069333
v -0.0641990602 0.173579196 -0.702589431
v -0.0919110477 -0.0141515554 -0.692870538
v -0.126107633 -0.0757733432 -1.37704476
v -0.0662343577 -0.00393344383 -1.69654276
v -0.0662343875 -0.00393344383 -1.37704476
v -0.126107633 -0.0757733432 -1.69654276
v 0.0227438509 0.027080605 -1.69654276
v 0.022743836 0.0270805901 -1.37704476
v -0.142654032 -0.167816069 -1.37704476
v -0.142654061 -0.167816054 -1.69654276
v -0.109217763 -0.255912014 -1.37704476
v -0.109217763 -0.255912014 -1.69654276
v -0.0367872715 -0.3169409 -1.37704476
v -0.0367872715 -0.3169409 -1.69654276
v 0.0565210283 -0.333197229 -1.37704476
v 0.0565210283 -0.333197229 -1.69654276
v 0.205371857 -0.230344711 -1.37704476
v 0.145498872 -0.302183925 -1.69654276
v 0.145498872 -0.302183925 -1.37704476
v 0.205371857 -0.230344711 -1.69654276
v 0.0565210283 -0.333197229 -1.69654276
v 0.0565210283 -0.333197229 -1.37704476
v 0.221918613 -0.138301315 -1.37704476
v 0.221918613 -0.138301315 -1.69654276
v 0.188482642 -0.0502046395 -1.37704476
v 0.188482642 -0.0502046246 -1.69654276
v 0.116052166 0.0108243354 -1.37704476
v 0.116052173 0.0108243354 -1.69654276
v 0.022743836 0.0270805901 -1.37704476
v 0.0227438509 0.027080605 -1.69654276
v 0.039631702 -0.153058811 -1.37704476
v 0.188482642 -0.0502046395 -1.37704476
v 0.221918613 -0.138301315 -1.37704476
v 0.116052166 0.0108243354 -1.37704476
v 0.205371857 -0.230344711 -1.37704476
v 0.022743836 0.0270805901 -1.37704476
v -0.0662343875 -0.00393344383 -1.37704476
v 0.145498872 -0.302183925 -1.37704476
v 0.0565210283 -0.333197229 -1.37704476
v -0.0367872715 -0.3169409 -1.37704476
v -0.109217763 -0.255912014 -1.37704476
v -0.142654032 -0.167816069 -1.37704476
v -0.126107633 -0.0757733432 -1.37704476
v -0.126107633 -0.0757733432 -1.69654276
v -0.142654061 -0.167816054 -1.69654276
v 0.0396316871 -0.153058826 -1.69654276
v -0.0662343577 -0.00393344383 -1.69654276
v -0.109217763 -0.255912014 -1.69654276
v -0.0367872715 -0.3169409 -1.69654276
v 0.0227438509 0.027080605 -1.69654276
v 0.116052173 0.0108243354 -1.69654276
v 0.0565210283 -0.333197229 -1.69654276
v 0.145498872 -0.302183925 -1.69654276
v 0.188482642 -0.0502046246 -1.69654276
v 0.221918613 -0.138301315 -1.69654276
v 0.205371857 -0.230344711 -1.69654276
v -0.126861066 -0.153058975 -1.08935239
v -0.0436139032 -0.0110226401 -1.12984349
v -0.0436139107 -0.0110226401 -1.08935239
v -0.126861066 -0.153058975 -1.12984349
v -0.0436139107 -0.295093895 -1.08935239
v -0.126861066 -0.153058975 -1.12984349
v -0.126861066 -0.153058975 -1.08935239
v -0.0436139032 -0.295093895 -1.12984349
v 0.122878522 -0.295093895 -1.08935239
v -0.0436139032 -0.295093895 -1.12984349
v -0.0436139107 -0.295093895 -1.08935239
v 0.122878522 -0.295093895 -1.12984349
v 0.206125706 -0.153058975 -1.08935239
v 0.122878522 -0.295093895 -1.12984349
v 0.122878522 -0.295093895 -1.08935239
v 0.206125706 -0.153058975 -1.12984349
v 0.122878522 -0.0110226401 -1.08935239
v 0.206125706 -0.153058975 -1.12984349
v 0.206125706 -0.153058975 -1.08935239
v 0.122878522 -0.0110226401 -1.12984349
v -0.0436139107 -0.0110226401 -1.08935239
v 0.122878522 -0.0110226401 -1.12984349
v 0.122878522 -0.0110226401 -1.08935239
v -0.0436139032 -0.0110226401 -1.12984349
v -0.126861066 -0.153058975 -1.08935239
v 0.122878522 -0.0110226401 -1.08935239
v 0.206125706 -0.153058975 -1.08935239
v -0.0436139107 -0.0110226401 -1.08935239
v 0.122878522 -0.295093895 -1.08935239
v -0.0436139107 -0.295093895 -1.08935239
v -0.126861066 -0.153058975 -1.12984349
v 0.122878522 -0.295093895 -1.12984349
v 0.206125706 -0.153058975 -1.12984349
v -0.0436139032 -0.295093895 -1.12984349
v 0.122878522 -0.0110226401 -1.12984349
v -0.0436139032 -0.0110226401 -1.12984349
v 0.00726094842 -0.0644502362 -0.133888277
v 0.0186699927 0.0124321108 -0.11153654
v 0.0154990256 -0.0644502362 -0.0930014067
v 0.00979092717 0.0221958265 -0.158214597
v 0.0186699927 0.0508070039 -0.134189638
v 0.0726239979 0.0221958265 -0.158214597
v 0.0669160187 -0.0644502362 -0.0930014067
v 0.0637460053 0.0124321108 -0.11153654
v 0.0751549304 -0.0644502362 -0.133888277
v 0.0637460053 0.0508070039 -0.134189638
v 0.0669160187 -0.0644502362 -0.0930014067
v 0.0186699927 0.0124321108 -0.11153654
v 0.0637460053 0.0124321108 -0.11153654
v 0.0154990256 -0.0644502362 -0.0930014067
v 0.0726239979 0.0221958265 -0.158214597
v 0.00726094842 -0.0644502362 -0.133888277
v 0.0751549304 -0.0644502362 -0.133888277
v 0.00979092717 0.0221958265 -0.158214597
v 0.0186699927 0.0124321108 -0.11153654
v 0.0637460053 0.0508070039 -0.134189638
v 0.0637460053 0.0124321108 -0.11153654
v 0.0186699927 0.0508070039 -0.134189638
v 0.0726239979 0.0221958265 -0.158214597
v 0.00815692544 0.0295219511 -0.347885599
v 0.00979092717 0.0221958265 -0.158214597
v 0.0742579997 0.0295219511 -0.347885599
v 0.0412079394 0.0295219511 -0.390433293
v 0.0186699927 0.0508070039 -0.134189638
v 0.00815692544 0.0295219511 -0.347885599
v 0.0154990256 0.0601034193 -0.353401173
v 0.00979092717 0.0221958265 -0.158214597
v 0.0637460053 0.0508070039 -0.134189638
v 0.0154990256 0.0601034193 -0.353401173
v 0.0669160187 0.0601034193 -0.353401173
v 0.0186699927 0.0508070039 -0.134189638
v 0.0412079394 0.0601034193 -0.366167532
v 0.0726239979 0.0221958265 -0.158214597
v 0.0669160187 0.0601034193 -0.353401173
v 0.0742579997 0.0295219511 -0.347885599
v 0.0637460053 0.0508070039 -0.134189638
v 0.0412079394 0.0295219511 -0.390433293
v -0.201176971 0.00066091107 -0.710034288
v 0.00815692544 0.0295219511 -0.347885599
v -0.169301003 -0.0016031113 -0.72247449
v 0.0412079394 0.0601034193 -0.366167532
v -0.185921043 0.0341844639 -0.690216463
v -0.165538996 0.0339241109 -0.69855825
v 0.0154990256 0.0601034193 -0.353401173
v -0.169301003 -0.00160406498 -0.72247449
v -0.185921043 0.0341844639 -0.690216463
v -0.201176971 0.00066091107 -0.710034288
v -0.165538996 0.0339241109 -0.69855825
v 0.00815692544 0.0295219511 -0.347885599
v -0.185921043 0.0341844639 -0.690216463
v 0.0154990256 0.0601034193 -0.353401173
v -0.201176971 0.00066091107 -0.710034288
v 0.0412079394 0.0601034193 -0.366167532
v -0.169301003 -0.00160406498 -0.72247449
v 0.0412079394 0.0295219511 -0.390433293
v -0.165538996 0.0339241109 -0.69855825
v 0.0412079394 0.0601034193 -0.366167532
v 0.268335968 0.0341844639 -0.690216463
v 0.0669160187 0.0601034193 -0.353401173
v 0.247954994 0.0339241109 -0.69855825
v 0.251715928 -0.00160406498 -0.72247449
v 0.268335968 0.0341844639 -0.690216463
v 0.247954994 0.0339241109 -0.69855825
v 0.283592016 0.00066091107 -0.710034288
v 0.0742579997 0.0295219511 -0.347885599
v 0.268335968 0.0341844639 -0.690216463
v 0.283592016 0.00066091107 -0.710034288
v 0.0669160187 0.0601034193 -0.353401173
v 0.0412079394 0.0601034193 -0.366167532
v 0.251715928 -0.00160406498 -0.72247449
v 0.247954994 0.0339241109 -0.69855825
v 0.0412079394 0.0295219511 -0.390433293
v 0.198718205 -0.155636801 -0.748740583
v 0.119191036 -0.291326882 -0.830961121
v 0.119191036 -0.291326882 -0.748740583
v 0.19871819 -0.155636801 -0.830961121
v 0.119191036 -0.0199456771 -0.748740583
v 0.19871819 -0.155636801 -0.830961121
v 0.198718205 -0.155636801 -0.748740583
v 0.119191036 -0.0199456771 -0.830961121
v -0.0398620777 -0.0199456771 -0.748740583
v 0.119191036 -0.0199456771 -0.830961121
v 0.119191036 -0.0199456771 -0.748740583
v -0.039862074 -0.0199456771 -0.830961121
v -0.119389236 -0.155635728 -0.748740583
v -0.039862074 -0.0199456771 -0.830961121
v -0.0398620777 -0.0199456771 -0.748740583
v -0.119389229 -0.155635728 -0.830961121
v -0.0398620777 -0.291326882 -0.748740583
v -0.119389229 -0.155635728 -0.830961121
v -0.119389236 -0.155635728 -0.748740583
v -0.039862074 -0.291326882 -0.830961121
v 0.119191036 -0.291326882 -0.748740583
v -0.039862074 -0.291326882 -0.830961121
v -0.0398620777 -0.291326882 -0.748740583
v 0.119191036 -0.291326882 -0.830961121
v 0.198718205 -0.155636801 -0.748740583
v -0.0398620777 -0.291326882 -0.748740583
v -0.119389236 -0.155635728 -0.748740583
v 0.119191036 -0.291326882 -0.748740583
v -0.0398620777 -0.0199456771 -0.748740583
v 0.119191036 -0.0199456771 -0.748740583
v 0.19871819 -0.155636801 -0.830961121
v -0.039862074 -0.0199456771 -0.830961121
v -0.119389229 -0.155635728 -0.830961121
v 0.119191036 -0.0199456771 -0.830961121
v -0.039862074 -0.291326882 -0.830961121
v 0.119191036 -0.291326882 -0.830961121
v 0.276727557 -0.240374577 -0.680294497
v 0.187135771 -0.223214999 -0.610787389
v 0.197490871 -0.240374577 -0.680294497
v 0.287082165 -0.223214999 -0.610787389
v 0.197490871 -0.240374577 -0.680294497
v 0.13716282 -0.306027888 -0.610787389
v 0.157872573 -0.306027888 -0.680294497
v 0.187135771 -0.223214999 -0.610787389
v 0.157872573 -0.306027888 -0.680294497
v 0.187135771 -0.388842326 -0.610787389
v 0.197490871 -0.371682778 -0.680294497
v 0.13716282 -0.306027888 -0.610787389
v 0.197490871 -0.371682778 -0.680294497
v 0.287082165 -0.388842326 -0.610787389
v 0.276727557 -0.371682778 -0.680294497
v 0.187135771 -0.388842326 -0.610787389
v 0.276727557 -0.371682778 -0.680294497
v 0.337055117 -0.306027888 -0.610787389
v 0.31634587 -0.306027888 -0.680294497
v 0.287082165 -0.388842326 -0.610787389
v 0.31634587 -0.306027888 -0.680294497
v 0.287082165 -0.223214999 -0.610787389
v 0.276727557 -0.240374577 -0.680294497
v 0.337055117 -0.306027888 -0.610787389
v 0.197490871 -0.371682778 -0.680294497
v 0.31634587 -0.306027888 -0.680294497
v 0.157872573 -0.306027888 -0.680294497
v 0.276727557 -0.371682778 -0.680294497
v 0.276727557 -0.240374577 -0.680294497
v 0.197490871 -0.240374577 -0.680294497
v 0.15682058 -0.306027888 -0.230547948
v 0.277253568 -0.372554287 -0.230547948
v 0.19696489 -0.372554287 -0.230547948
v 0.317397922 -0.306027888 -0.230547948
v 0.277253568 -0.239503038 -0.230547948
v 0.19696489 -0.239503038 -0.230547948
v 0.287082165 -0.223214999 -0.610787389
v 0.187135771 -0.223214999 -0.260307349
v 0.187135771 -0.223214999 -0.610787389
v 0.287082165 -0.223214999 -0.260307349
v 0.337055117 -0.306027888 -0.610787389
v 0.287082165 -0.223214999 -0.260307349
v 0.287082165 -0.223214999 -0.610787389
v 0.337055117 -0.306027888 -0.260307349
v 0.287082165 -0.388842326 -0.610787389
v 0.337055117 -0.306027888 -0.260307349
v 0.337055117 -0.306027888 -0.610787389
v 0.287082165 -0.388842326 -0.260307349
v 0.187135771 -0.388842326 -0.610787389
v 0.287082165 -0.388842326 -0.260307349
v 0.287082165 -0.388842326 -0.610787389
v 0.187135771 -0.388842326 -0.260307349
v 0.13716282 -0.306027888 -0.610787389
v 0.187135771 -0.388842326 -0.260307349
v 0.187135771 -0.388842326 -0.610787389
v 0.13716282 -0.306027888 -0.260307349
v 0.187135771 -0.223214999 -0.610787389
v 0.13716282 -0.306027888 -0.260307349
v 0.13716282 -0.306027888 -0.610787389
v 0.187135771 -0.223214999 -0.260307349
v 0.187135771 -0.223214999 -0.260307349
v 0.15682058 -0.306027888 -0.230547948
v 0.13716282 -0.306027888 -0.260307349
v 0.19696489 -0.239503038 -0.230547948
v 0.287082165 -0.223214999 -0.260307349
v 0.19696489 -0.239503038 -0.230547948
v 0.187135771 -0.223214999 -0.260307349
v 0.277253568 -0.239503038 -0.230547948
v 0.337055117 -0.306027888 -0.260307349
v 0.277253568 -0.239503038 -0.230547948
v 0.287082165 -0.223214999 -0.260307349
v 0.317397922 -0.306027888 -0.230547948
v 0.287082165 -0.388842326 -0.260307349
v 0.317397922 -0.306027888 -0.230547948
v 0.337055117 -0.306027888 -0.260307349
v 0.277253568 -0.372554287 -0.230547948
v 0.187135771 -0.388842326 -0.260307349
v 0.277253568 -0.372554287 -0.230547948
v 0.287082165 -0.388842326 -0.260307349
v 0.19696489 -0.372554287 -0.230547948
v 0.13716282 -0.306027888 -0.260307349
v 0.19696489 -0.372554287 -0.230547948
v 0.187135771 -0.388842326 -0.260307349
v 0.15682058 -0.306027888 -0.230547948
vt 0.0913100019 0.00464700023
vt 0.992955029 0.0663100034
vt 0.0913100019 0.0663100034
vt 0.992955029 0.00464700023
vt 0.0112370001 0.0039710002
vt 0.0732859969 0.066019997
vt 0.0732859969 0.0039710002
vt 0.0112370001 0.066019997
vt 0.992955029 0.00464700023
vt 0.0913100019 0.0663100034
vt 0.992955029 0.0663100034
vt 0.0913100019 0.00464700023
vt 0.0913100019 0.00464700023
vt 0.992955029 0.0663100034
vt 0.0913100019 0.0663100034
vt 0.992955029 0.00464700023
vt 0.0913100019 0.0663100034
vt 0.992955029 0.00464700023
vt 0.0913100019 0.00464700023
vt 0.992955029 0.0663100034
vt 0.0913100019 0.00464700023
vt 0.992955029 0.0663100034
vt 0.0913100019 0.0663100034
vt 0.992955029 0.00464700023
vt 0.0112370001 0.0039710002
vt 0.0732859969 0.066019997
vt 0.0732859969 0.0039710002
vt 0.0112370001 0.066019997
vt 0.992955029 0.00464700023
vt 0.0913100019 0.0663100034
vt 0.992955029 0.0663100034
vt 0.0913100019 0.00464700023
vt 0.0913100019 0.00464700023
vt 0.992955029 0.0663100034
vt 0.0913100019 0.0663100034
vt 0.992955029 0.00464700023
vt 0.0913100019 0.0663100034
vt 0.992955029 0.00464700023
vt 0.0913100019 0.00464700023
vt 0.992955029 0.0663100034
vt 0.0913100019 0.00464700023
vt 0.992955029 0.0663100034
vt 0.0913100019 0.0663100034
vt 0.992955029 0.00464700023
vt 0.0112370001 0.0039710002
vt 0.0732859969 0.066019997
vt 0.0732859969 0.0039710002
vt 0.0112370001 0.066019997
vt 0.992955029 0.00464700023
vt 0.0913100019 0.0663100034
vt 0.992955029 0.0663100034
vt 0.0913100019 0.00464700023
vt 0.0913100019 0.00464700023
vt 0.992955029 0.0663100034
vt 0.0913100019 0.0663100034
vt 0.992955029 0.00464700023
vt 0.0913100019 0.0663100034
vt 0.992955029 0.00464700023
vt 0.0913100019 0.00464700023
vt 0.992955029 0.0663100034
vt 0.0913100019 0.00464700023
vt 0.992955029 0.0663100034
vt 0.0913100019 0.0663100034
vt 0.992955029 0.00464700023
vt 0.0112370001 0.0039710002
vt 0.0732859969 0.066019997
vt 0.0732859969 0.0039710002
vt 0.0112370001 0.066019997
vt 0.992955029 0.00464700023
vt 0.0913100019 0.0663100034
vt 0.992955029 0.0663100034
vt 0.0913100019 0.00464700023
vt 0.0913100019 0.00464700023
vt 0.992955029 0.0663100034
vt 0.0913100019 0.0663100034
vt 0.992955029 0.00464700023
vt 0.0913100019 0.0663100034
vt 0.992955029 0.00464700023
vt 0.0913100019 0.00464700023
vt 0.992955029 0.0663100034
vt 0.0913100019 0.00464700023
vt 0.992955029 0.0663100034
vt 0.0913100019 0.0663100034
vt 0.992955029 0.00464700023
vt 0.0112370001 0.0039710002
vt 0.0732859969 0.066019997
vt 0.0732859969 0.0039710002
vt 0.0112370001 0.066019997
vt 0.992955029 0.00464700023
vt 0.0913100019 0.0663100034
vt 0.992955029 0.0663100034
vt 0.0913100019 0.00464700023
vt 0.0913100019 0.00464700023
vt 0.992955029 0.0663100034
vt 0.0913100019 0.0663100034
vt 0.992955029 0.00464700023
vt 0.0913100019 0.0663100034
vt 0.992955029 0.00464700023
vt 0.0913100019 0.00464700023
vt 0.992955029 0.0663100034
vt 0.0913100019 0.00464700023
vt 0.992955029 0.0663100034
vt 0.0913100019 0.0663100034
vt 0.992955029 0.00464700023
vt 0.0112370001 0.0039710002
vt 0.0732859969 0.066019997
vt 0.0732859969 0.0039710002
vt 0.0112370001 0.066019997
vt 0.992955029 0.00464700023
vt 0.0913100019 0.0663100034
vt 0.992955029 0.0663100034
vt 0.0913100019 0.00464700023
vt 0.0913100019 0.00464700023
vt 0.992955029 0.0663100034
vt 0.0913100019 0.0663100034
vt 0.992955029 0.00464700023
vt 0.0913100019 0.0663100034
vt 0.992955029 0.00464700023
vt 0.0913100019 0.00464700023
vt 0.992955029 0.0663100034
vt 0.691739023 0.815904021
vt 0.948314011 0.857326984
vt 0.989305019 0.815904021
vt 0.740285993 0.857326984
vt 0.691739023 0.711984992
vt 0.989305019 0.815904021
vt 0.989871979 0.711556017
vt 0.691739023 0.815904021
vt 0.691739023 0.815904021
vt 0.948314011 0.857326984
vt 0.740285993 0.857326984
vt 0.989305019 0.815904021
vt 0.989871979 0.711556017
vt 0.691739023 0.815904021
vt 0.691739023 0.711984992
vt 0.989305019 0.815904021
vt 0.681563973 0.761201978
vt 0.530625999 0.806508005
vt 0.647499025 0.806508005
vt 0.496560991 0.761201978
vt 0.948314011 0.991370022
vt 0.740285993 0.857326984
vt 0.740285993 0.991370022
vt 0.948314011 0.857326984
vt 0.341742992 0.802960992
vt 0.484723002 0.755936027
vt 0.309991986 0.754406989
vt 0.45212701 0.803927004
vt 0.711208999 0.543920994
vt 0.957728982 0.636793971
vt 0.957684994 0.543806016
vt 0.711251974 0.636909008
vt 0.485504001 0.666676998
vt 0.358613014 0.618767977
vt 0.310772985 0.665147007
vt 0.438483 0.61946702
vt 0.496560991 0.666302979
vt 0.681563973 0.761201978
vt 0.681563973 0.666302979
vt 0.496560991 0.761201978
vt 0.631345987 0.611939013
vt 0.496560991 0.666302979
vt 0.681563973 0.666302979
vt 0.54677999 0.611939013
vt 0.691739023 0.711984992
vt 0.957728982 0.636793971
vt 0.711251974 0.636909008
vt 0.989871979 0.711556017
vt 0.711251974 0.636909008
vt 0.989871979 0.711556017
vt 0.691739023 0.711984992
vt 0.957728982 0.636793971
vt 0.309991986 0.754406989
vt 0.485504001 0.666676998
vt 0.310772985 0.665147007
vt 0.484723002 0.755936027
vt 0.626812994 0.836444974
vt 0.478114992 0.906055987
vt 0.645340025 0.906741977
vt 0.513697028 0.836234987
vt 0.73557502 0.959151983
vt 0.645340025 0.906741977
vt 0.661890984 0.989749014
vt 0.691590011 0.850655019
vt 0.661890984 0.989749014
vt 0.478114992 0.906055987
vt 0.439808011 0.988973975
vt 0.645340025 0.906741977
vt 0.439808011 0.988973975
vt 0.44856599 0.833476007
vt 0.377539992 0.936537027
vt 0.478114992 0.906055987
vt 0.432009995 0.83258599
vt 0.300781012 0.877530992
vt 0.361212999 0.933171988
vt 0.346482009 0.812638998
vt 0.160390005 0.290398985
vt 0.266981006 0.376379997
vt 0.160390005 0.376379997
vt 0.266981006 0.290398985
vt 0.160390005 0.290398985
vt 0.266981006 0.221340999
vt 0.160390005 0.221340999
vt 0.266981006 0.290398985
vt 0.160390005 0.221340999
vt 0.192163005 0.150470003
vt 0.160390005 0.150470003
vt 0.474785 0.316554993
vt 0.378535002 0.291613013
vt 0.38972199 0.315862
vt 0.48636499 0.292490989
vt 0.160390005 0.221340999
vt 0.266981006 0.290398985
vt 0.160390005 0.290398985
vt 0.266981006 0.221340999
vt 0.423494011 0.535988986
vt 0.390706003 0.483047009
vt 0.357672989 0.535836995
vt 0.324885994 0.482894987
vt 0.347232997 0.428692997
vt 0.43442899 0.428894997
vt 0.456526011 0.483200014
vt 0.466484994 0.179423004
vt 0.389589012 0.143059999
vt 0.400256008 0.178883001
vt 0.477735013 0.143777996
vt 0.48636499 0.292490989
vt 0.394964993 0.234742999
vt 0.378535002 0.291613013
vt 0.470865011 0.235361993
vt 0.192163005 0.150470003
vt 0.253268003 0.119414002
vt 0.266903996 0.150470003
vt 0.214331999 0.0788519979
vt 0.592436016 0.35255599
vt 0.523186028 0.329216003
vt 0.524662971 0.35255599
vt 0.593913019 0.329216003
vt 0.266903996 0.150470003
vt 0.214331999 0.0788519979
vt 0.192163005 0.150470003
vt 0.253268003 0.119414002
vt 0.470865011 0.235361993
vt 0.400256008 0.178883001
vt 0.394964993 0.234742999
vt 0.466484994 0.179423004
vt 0.214331999 0.0788519979
vt 0.318212003 0.119804002
vt 0.253268003 0.119414002
vt 0.287856013 0.0788519979
vt 0.593913019 0.329216003
vt 0.524057984 0.285470009
vt 0.523186028 0.329216003
vt 0.593039989 0.285470009
vt 0.253268003 0.119414002
vt 0.287856013 0.0788519979
vt 0.214331999 0.0788519979
vt 0.318212003 0.119804002
vt 0.192163005 0.150470003
vt 0.266981006 0.221340999
vt 0.160390005 0.221340999
vt 0.266903996 0.150470003
vt 0.192163005 0.150470003
vt 0.160390005 0.221340999
vt 0.160390005 0.150470003
vt 0.160390005 0.221340999
vt 0.266903996 0.150470003
vt 0.192163005 0.150470003
vt 0.266981006 0.221340999
vt 0.325769991 0.465553999
vt 0.236555994 0.416649014
vt 0.325769991 0.416649014
vt 0.25255999 0.465553999
vt 0.548902988 0.362266004
vt 0.594896019 0.421923995
vt 0.594896019 0.358812004
vt 0.548902988 0.418469995
vt 0.25255999 0.465553999
vt 0.325769991 0.416649014
vt 0.236555994 0.416649014
vt 0.325769991 0.465553999
vt 0.294689 0.473003
vt 0.274405003 0.532252014
vt 0.30676499 0.521429002
vt 0.254918009 0.486304998
vt 0.61699301 0.546442986
vt 0.700128973 0.611383975
vt 0.69985503 0.538993001
vt 0.617211998 0.604560018
vt 0.360379994 0.542155027
vt 0.439325005 0.607760012
vt 0.439087003 0.544587016
vt 0.360639989 0.610786974
vt 0.165612996 0.465553999
vt 0.236555994 0.416649014
vt 0.176413998 0.416649014
vt 0.25255999 0.465553999
vt 0.238316 0.50287801
vt 0.279451013 0.580524981
vt 0.350474 0.611837029
vt 0.331775993 0.563024998
vt 0.293880999 0.630765021
vt 0.25255999 0.465553999
vt 0.176413998 0.416649014
vt 0.236555994 0.416649014
vt 0.165612996 0.465553999
vt 0.238316 0.50287801
vt 0.61699301 0.546442986
vt 0.571964979 0.600705981
vt 0.617211998 0.604560018
vt 0.571775973 0.550638974
vt 0.238316 0.50287801
vt 0.216073006 0.637133002
vt 0.165612996 0.465553999
vt 0.279404014 0.612612009
vt 0.548902988 0.362266004
vt 0.384662002 0.425069988
vt 0.548902988 0.418469995
vt 0.384662002 0.355666012
vt 0.216073006 0.637133002
vt 0.249880001 0.675535977
vt 0.279404014 0.612612009
vt 0.384662002 0.355666012
vt 0.337677002 0.418202013
vt 0.384662002 0.425069988
vt 0.337677002 0.362533987
vt 0.279404014 0.612612009
vt 0.249880999 0.675535977
vt 0.216073006 0.637133002
vt 0.571775973 0.550638974
vt 0.439325005 0.607760012
vt 0.571964979 0.600705981
vt 0.439087003 0.544587016
vt 0.165612996 0.465553999
vt 0.279404014 0.612612009
vt 0.238316 0.50287801
vt 0.216073006 0.637133002
vt 0.325769991 0.416649014
vt 0.269611001 0.373232991
vt 0.236555994 0.416649014
vt 0.325769991 0.36184901
vt 0.331775993 0.563024998
vt 0.274405003 0.532252014
vt 0.279451013 0.580524981
vt 0.30676499 0.521429002
vt 0.236555994 0.416649014
vt 0.325769991 0.36184901
vt 0.325769991 0.416649014
vt 0.269611001 0.373232991
vt 0.334670991 0.134701997
vt 0.308890998 0.348316997
vt 0.334670991 0.348316997
vt 0.308890998 0.134701997
vt 0.308890998 0.134701997
vt 0.270594001 0.348316997
vt 0.308890998 0.348316997
vt 0.270594001 0.134701997
vt 0.308890998 0.134701997
vt 0.334670991 0.348316997
vt 0.308890998 0.348316997
vt 0.334670991 0.134701997
vt 0.372967005 0.134701997
vt 0.334670991 0.348316997
vt 0.372967005 0.348316997
vt 0.334670991 0.134701997
vt 0.458160013 0.073991999
vt 0.490296006 0.131969005
vt 0.489448994 0.0735379979
vt 0.459006995 0.132422
vt 0.371634007 0.128765002
vt 0.458160013 0.073991999
vt 0.371071011 0.0899209976
vt 0.459006995 0.132422
vt 0.585497975 0.130588993
vt 0.689725995 0.0853020027
vt 0.584650993 0.0721589997
vt 0.690289021 0.124146
vt 0.585497975 0.130588993
vt 0.489448994 0.0735379979
vt 0.490296006 0.131969005
vt 0.584650993 0.0721589997
vt 0.611642003 0.183333993
vt 0.486681014 0.279906005
vt 0.486681014 0.142265007
vt 0.549957991 0.279906005
vt 0.371634007 0.128765002
vt 0.322863013 0.0906189978
vt 0.323426008 0.129464
vt 0.371071011 0.0899209976
vt 0.486681014 0.142265007
vt 0.611642003 0.142265007
vt 0.611642003 0.183333993
vt 0.486681014 0.142265007
vt 0.611642003 0.183333993
vt 0.611642003 0.142265007
vt 0.486681014 0.142265007
vt 0.486681014 0.279906005
vt 0.611642003 0.183333993
vt 0.486681014 0.279906005
vt 0.549957991 0.279906005
vt 0.611642003 0.183333993
vt 0.458160013 0.073991999
vt 0.490296006 0.131969005
vt 0.459006995 0.132422
vt 0.489448994 0.0735379979
vt 0.371634007 0.128765002
vt 0.458160013 0.073991999
vt 0.459006995 0.132422
vt 0.371071011 0.0899209976
vt 0.585497975 0.130588993
vt 0.689725995 0.0853020027
vt 0.690289021 0.124146
vt 0.584650993 0.0721589997
vt 0.585497975 0.130588993
vt 0.489448994 0.0735379979
vt 0.584650993 0.0721589997
vt 0.490296006 0.131969005
vt 0.611642003 0.183333993
vt 0.486681014 0.279906005
vt 0.549957991 0.279906005
vt 0.486681014 0.142265007
vt 0.371634007 0.128765002
vt 0.322863013 0.0906189978
vt 0.371071011 0.0899209976
vt 0.323426008 0.129464
vt 0.486681014 0.142265007
vt 0.611642003 0.183333993
vt 0.611642003 0.142265007
vt 0.486681014 0.142265007
vt 0.611642003 0.142265007
vt 0.611642003 0.183333993
vt 0.486681014 0.142265007
vt 0.611642003 0.183333993
vt 0.486681014 0.279906005
vt 0.486681014 0.279906005
vt 0.611642003 0.183333993
vt 0.549957991 0.279906005
vt 0.731001019 0.375779986
vt 0.608770013 0.370483994
vt 0.608770013 0.394205987
vt 0.701664984 0.356999993
vt 0.731001019 0.235737994
vt 0.701663971 0.254516989
vt 0.608770013 0.217311993
vt 0.608770013 0.241034001
vt 0.758105993 0.235737994
vt 0.731001019 0.375779986
vt 0.758105993 0.375779986
vt 0.731001019 0.235737994
vt 0.701664984 0.356999993
vt 0.608770013 0.394205987
vt 0.608770013 0.370483994
vt 0.731001019 0.375779986
vt 0.701664984 0.254516989
vt 0.731001019 0.235737994
vt 0.608770013 0.217311993
vt 0.608770013 0.241034001
vt 0.606040001 0.35066399
vt 0.701664984 0.356999993
vt 0.67456001 0.339192986
vt 0.608770013 0.370483994
vt 0.612818003 0.421054006
vt 0.731001019 0.375779986
vt 0.608770013 0.394205987
vt 0.735049009 0.402628988
vt 0.701664984 0.356999993
vt 0.674558997 0.272325009
vt 0.67456001 0.339192986
vt 0.701663971 0.254516989
vt 0.605566978 0.260989994
vt 0.701663971 0.254516989
vt 0.608770013 0.241034001
vt 0.674558997 0.272325009
vt 0.735049009 0.208888993
vt 0.608770013 0.217311993
vt 0.731001019 0.235737994
vt 0.612818003 0.190463006
vt 0.990624845 0.301378399
vt 0.864866912 0.358045906
vt 0.990624845 0.358045906
vt 0.864866912 0.301378399
vt 0.864866912 0.414713413
vt 0.990624845 0.414713413
vt 0.990624845 0.244711578
vt 0.864866912 0.244711578
vt 0.990624845 0.188044697
vt 0.864866912 0.188044697
vt 0.990624845 0.130738378
vt 0.864866912 0.130738378
vt 0.990624845 0.0734319985
vt 0.864866912 0.0734320283
vt 0.990624845 0.186060905
vt 0.864866912 0.129746467
vt 0.990624845 0.129746467
vt 0.864866912 0.186060905
vt 0.864866912 0.0734320283
vt 0.990624845 0.0734319985
vt 0.990624845 0.24237597
vt 0.864866912 0.24237597
vt 0.990624845 0.298691094
vt 0.864866912 0.298691094
vt 0.990624845 0.355641007
vt 0.864866912 0.355641007
vt 0.990624845 0.41259101
vt 0.864866912 0.41259101
vt 0.924534142 0.479898989
vt 0.889141977 0.540284991
vt 0.871446013 0.51009202
vt 0.924533963 0.540284991
vt 0.85374999 0.479898989
vt 0.959926009 0.540284991
vt 0.977622032 0.51009196
vt 0.871446013 0.450774997
vt 0.889141977 0.421651006
vt 0.924533963 0.421918005
vt 0.959926009 0.422185004
vt 0.977622032 0.451041996
vt 0.995317996 0.479898989
vt 0.995317996 0.479898989
vt 0.977622032 0.451041996
vt 0.924534202 0.479898989
vt 0.977621973 0.51009202
vt 0.959926009 0.422185004
vt 0.924533963 0.421918005
vt 0.959926009 0.540284991
vt 0.924533963 0.540284991
vt 0.889141977 0.421651006
vt 0.871446013 0.450774997
vt 0.889141977 0.540284991
vt 0.871445954 0.51009196
vt 0.85374999 0.479898989
vt 0.991077006 0.244174004
vt 0.865319014 0.329066992
vt 0.991077006 0.329066992
vt 0.865319014 0.244174004
vt 0.991077006 0.159281999
vt 0.865319014 0.244174004
vt 0.991077006 0.244174004
vt 0.865319014 0.159281999
vt 0.865319014 0.159281999
vt 0.991077006 0.0734319985
vt 0.865319014 0.0734319985
vt 0.991077006 0.159281999
vt 0.865319014 0.244174004
vt 0.991077006 0.159281999
vt 0.865319014 0.159281999
vt 0.991077006 0.244174004
vt 0.865319014 0.329066992
vt 0.991077006 0.244174004
vt 0.865319014 0.244174004
vt 0.991077006 0.329066992
vt 0.865319014 0.414916992
vt 0.991077006 0.329066992
vt 0.865319014 0.329066992
vt 0.991077006 0.414916992
vt 0.995317996 0.479898989
vt 0.889141977 0.540284991
vt 0.85374999 0.479898989
vt 0.959926009 0.540284991
vt 0.889141977 0.419512004
vt 0.959926009 0.419512004
vt 0.995317996 0.479898989
vt 0.889141977 0.419512004
vt 0.85374999 0.479898989
vt 0.959926009 0.419512004
vt 0.889141977 0.540284991
vt 0.959926009 0.540284991
vt 0.690313995 0.186669007
vt 0.780481994 0.168950006
vt 0.698206007 0.133986995
vt 0.765987992 0.218665004
vt 0.808133006 0.196015
vt 0.765987992 0.218665004
vt 0.698206007 0.133986995
vt 0.780481994 0.168950006
vt 0.690313995 0.186669007
vt 0.808133006 0.196015
vt 0.728618026 0.0727740005
vt 0.780481994 0.168950006
vt 0.816197991 0.131908998
vt 0.698206007 0.133986995
vt 0.715241015 0.422444999
vt 0.756480992 0.450228006
vt 0.755410016 0.419894993
vt 0.716359973 0.45096001
vt 0.780481994 0.168950006
vt 0.85710299 0.188501
vt 0.816197991 0.131908998
vt 0.808133006 0.196015
vt 0.715241015 0.422444999
vt 0.626075029 0.454059988
vt 0.716359973 0.45096001
vt 0.62845701 0.424616009
vt 0.616864979 0.435057998
vt 0.808133006 0.196015
vt 0.762681007 0.418009013
vt 0.80299902 0.426084995
vt 0.765987992 0.218665004
vt 0.85710299 0.188501
vt 0.80299902 0.426084995
vt 0.860732019 0.425917
vt 0.808133006 0.196015
vt 0.830097973 0.440185994
vt 0.765987992 0.218665004
vt 0.80299902 0.426084995
vt 0.762681007 0.418009013
vt 0.808133006 0.196015
vt 0.616864979 0.435057998
vt 0.467703998 0.455233991
vt 0.626075029 0.454059988
vt 0.469583988 0.442743003
vt 0.849053025 0.502117991
vt 0.490893006 0.483765006
vt 0.493824989 0.502810001
vt 0.847190976 0.479790002
vt 0.46893099 0.530519009
vt 0.490893006 0.483765006
vt 0.464370996 0.460197985
vt 0.493824989 0.502810001
vt 0.845498979 0.452452004
vt 0.490893006 0.483765006
vt 0.847190976 0.479790002
vt 0.464370996 0.460197985
vt 0.849053025 0.502117991
vt 0.46893099 0.530519009
vt 0.827809989 0.537193
vt 0.493824989 0.502810001
vt 0.849053025 0.502117991
vt 0.490893006 0.483765006
vt 0.847190976 0.479790002
vt 0.493824989 0.502810001
vt 0.46893099 0.530519009
vt 0.490893006 0.483765006
vt 0.493824989 0.502810001
vt 0.464370996 0.460197985
vt 0.845498979 0.452452004
vt 0.490893006 0.483765006
vt 0.464370996 0.460197985
vt 0.847190976 0.479790002
vt 0.849053025 0.502117991
vt 0.46893099 0.530519009
vt 0.493824989 0.502810001
vt 0.827809989 0.537193
vt 0.991077006 0.244174004
vt 0.865319014 0.329066992
vt 0.991077006 0.329066992
vt 0.865319014 0.244174004
vt 0.991077006 0.159281999
vt 0.865319014 0.244174004
vt 0.991077006 0.244174004
vt 0.865319014 0.159281999
vt 0.865319014 0.159281999
vt 0.991077006 0.0734319985
vt 0.865319014 0.0734319985
vt 0.991077006 0.159281999
vt 0.865319014 0.244174004
vt 0.991077006 0.159281999
vt 0.865319014 0.159281999
vt 0.991077006 0.244174004
vt 0.865319014 0.329066992
vt 0.991077006 0.244174004
vt 0.865319014 0.244174004
vt 0.991077006 0.329066992
vt 0.865319014 0.414916992
vt 0.991077006 0.329066992
vt 0.865319014 0.329066992
vt 0.991077006 0.414916992
vt 0.995317996 0.479898989
vt 0.889141977 0.540284991
vt 0.85374999 0.479898989
vt 0.959926009 0.540284991
vt 0.889141977 0.419512004
vt 0.959926009 0.419512004
vt 0.995317996 0.479898989
vt 0.889141977 0.540284991
vt 0.85374999 0.479898989
vt 0.959926009 0.540284991
vt 0.889141977 0.419512004
vt 0.959926009 0.419512004
vt 0.00698000006 0.909587026
vt 0.0426280014 0.996806979
vt 0.00698000006 0.986726999
vt 0.0426280014 0.899506986
vt 0.00481599988 0.815714002
vt 0.0404639989 0.751797974
vt 0.00481599988 0.751798987
vt 0.0404639989 0.832419991
vt 0.00481599988 0.751798987
vt 0.0404639989 0.67117703
vt 0.00481599988 0.687882006
vt 0.0404639989 0.751797974
vt 0.299593002 0.861163974
vt 0.252397001 0.841977
vt 0.257883996 0.861241996
vt 0.305007011 0.84187901
vt 0.00481599988 0.687882006
vt 0.0404639989 0.751797974
vt 0.00481599988 0.751797974
vt 0.0404639989 0.67117703
vt 0.00481599988 0.751797974
vt 0.0404639989 0.832419991
vt 0.00481599988 0.815714002
vt 0.0404639989 0.751797974
vt 0.0798519999 0.579872012
vt 0.00666399999 0.622126997
vt 0.104248002 0.622126997
vt 0.0310600009 0.579872012
vt 0.0310600009 0.664381981
vt 0.0798519999 0.664381981
vt 0.190686002 0.581701994
vt 0.116910003 0.539637029
vt 0.165941 0.539372981
vt 0.0926240012 0.582231998
vt 0.117369004 0.624562025
vt 0.1664 0.624297023
vt 0.0426280014 0.899506986
vt 0.222377002 0.996806979
vt 0.0426280014 0.996806979
vt 0.222377002 0.899506986
vt 0.0404639989 0.751797974
vt 0.220212996 0.832419991
vt 0.0404639989 0.832419991
vt 0.220212996 0.751797974
vt 0.0404639989 0.67117703
vt 0.220212996 0.751797974
vt 0.0404639989 0.751797974
vt 0.220212996 0.67117703
vt 0.305007011 0.84187901
vt 0.252216011 0.744786978
vt 0.252397001 0.841977
vt 0.304825991 0.744688988
vt 0.0404639989 0.751797974
vt 0.220212996 0.67117703
vt 0.0404639989 0.67117703
vt 0.220212996 0.751797974
vt 0.0404639989 0.832419991
vt 0.220212996 0.751797974
vt 0.0404639989 0.751797974
vt 0.220212996 0.832419991
vt 0.220212996 0.832419991
vt 0.246065006 0.751797974
vt 0.220212996 0.751797974
vt 0.246064007 0.81656301
vt 0.222377002 0.899506986
vt 0.248227999 0.987239003
vt 0.222377002 0.996806979
vt 0.248227999 0.909075022
vt 0.220212996 0.751797974
vt 0.246064007 0.81656301
vt 0.220212996 0.832419991
vt 0.246064007 0.751797974
vt 0.220212996 0.67117703
vt 0.246064007 0.751797974
vt 0.220212996 0.751797974
vt 0.246064007 0.687034011
vt 0.304825991 0.744688988
vt 0.257362992 0.730799973
vt 0.252216011 0.744786978
vt 0.299625993 0.730720997
vt 0.220212996 0.751797974
vt 0.246064007 0.687034011
vt 0.220212996 0.67117703
vt 0.246065006 0.751797974
vn 0 -1 -2.29789818e-16
vn 0 -1 -2.29789818e-16
vn 0 -1 -2.29789818e-16
vn 0 -1 -2.29789818e-16
vn 0 0 -1
vn 0 0 -1
vn 0 0 -1
vn 0 0 -1
vn 0 1 2.23406767e-16
vn 0 1 2.23406767e-16
vn 0 1 2.23406767e-16
vn 0 1 2.23406767e-16
vn -1 0 0
vn -1 0 0
vn -1 0 0
vn -1 0 0
vn 1 0 0
vn 1 0 0
vn 1 0 0
vn 1 0 0
vn 0 -1 -2.29789818e-16
vn 0 -1 -2.29789818e-16
vn 0 -1 -2.29789818e-16
vn 0 -1 -2.29789818e-16
vn 0 0 -1
vn 0 0 -1
vn 0 0 -1
vn 0 0 -1
vn 0 1 2.23406767e-16
vn 0 1 2.23406767e-16
vn 0 1 2.23406767e-16
vn 0 1 2.23406767e-16
vn -1 0 0
vn -1 0 0
vn -1 0 0
vn -1 0 0
vn 1 0 0
vn 1 0 0
vn 1 0 0
vn 1 0 0
vn 0 -1 -2.29789818e-16
vn 0 -1 -2.29789818e-16
vn 0 -1 -2.29789818e-16
vn 0 -1 -2.29789818e-16
vn 0 0 -1
vn 0 0 -1
vn 0 0 -1
vn 0 0 -1
vn 0 1 2.29789818e-16
vn 0 1 2.29789818e-16
vn 0 1 2.29789818e-16
vn 0 1 2.29789818e-16
vn -1 0 0
vn -1 0 0
vn -1 0 0
vn -1 0 0
vn 1 0 0
vn 1 0 0
vn 1 0 0
vn 1 0 0
vn 0 -1 -2.04257616e-16
vn 0 -1 -2.04257616e-16
vn 0 -1 -2.04257616e-16
vn 0 -1 -2.04257616e-16
vn 0 0 -1
vn 0 0 -1
vn 0 0 -1
vn 0 0 -1
vn 0 1 2.29789818e-16
vn 0 1 2.29789818e-16
vn 0 1 2.29789818e-16
vn 0 1 2.29789818e-16
vn -1 0 0
vn -1 0 0
vn -1 0 0
vn -1 0 0
vn 1 0 0
vn 1 0 0
vn 1 0 0
vn 1 0 0
vn 0 -1 -2.04257616e-16
vn 0 -1 -2.04257616e-16
vn 0 -1 -2.04257616e-16
vn 0 -1 -2.04257616e-16
vn 0 0 -1
vn 0 0 -1
vn 0 0 -1
vn 0 0 -1
vn 0 1 2.29789818e-16
vn 0 1 2.29789818e-16
vn 0 1 2.29789818e-16
vn 0 1 2.29789818e-16
vn -1 0 0
vn -1 0 0
vn -1 0 0
vn -1 0 0
vn 1 0 0
vn 1 0 0
vn 1 0 0
vn 1 0 0
vn 0 -1 -2.29789818e-16
vn 0 -1 -2.29789818e-16
vn 0 -1 -2.29789818e-16
vn 0 -1 -2.29789818e-16
vn 0 0 -1
vn 0 0 -1
vn 0 0 -1
vn 0 0 -1
vn 0 1 2.29789818e-16
vn 0 1 2.29789818e-16
vn 0 1 2.29789818e-16
vn 0 1 2.29789818e-16
vn -1 0 0
vn -1 0 0
vn -1 0 0
vn -1 0 0
vn 1 0 0
vn 1 0 0
vn 1 0 0
vn 1 0 0
vn -0.602987343 0.797750753 1.63235707e-16
vn -0.602987343 0.797750753 1.63235707e-16
vn -0.602987343 0.797750753 1.65908786e-16
vn -0.602987343 0.797750753 1.59412101e-16
vn -1 0 0
vn -1 0 0
vn -1 0 0
vn -1 0 0
vn 0.602987343 0.797750753 1.63235707e-16
vn 0.602987343 0.797750753 1.63235707e-16
vn 0.602987343 0.797750753 1.59412101e-16
vn 0.602987343 0.797750753 1.65908786e-16
vn 1 0 0
vn 1 0 0
vn 1 0 0
vn 1 0 0
vn 0 0.822807877 0.568319626
vn 0 0.822807877 0.568319626
vn 0 0.822807877 0.568319626
vn 0 0.822807877 0.568319626
vn 0 1 2.23112885e-16
vn 0 1 2.23112885e-16
vn 0 1 2.23112885e-16
vn 0 1 2.23112885e-16
vn 0 0.863832872 -0.503778493
vn 0 0.863832872 -0.503778493
vn 0 0.863832872 -0.503778493
vn 0 0.863832872 -0.503778493
vn 0 -1 -1.67386321e-16
vn 0 -1 -1.67386321e-16
vn 0 -1 -1.67386321e-16
vn 0 -1 -1.67386321e-16
vn 0 -0.358829056 -0.933403294
vn 0 -0.358829056 -0.933403294
vn 0 -0.358829056 -0.933403294
vn 0 -0.358829056 -0.933403294
vn 0 0.00542713494 0.999985273
vn 0 0.00542713494 0.999985273
vn 0 0.00542713494 0.999985273
vn 0 0.00542713494 0.999985273
vn 0 -0.537122049 0.843504538
vn 0 -0.537122049 0.843504538
vn 0 -0.537122049 0.843504538
vn 0 -0.537122049 0.843504538
vn -0.675900497 -0.736992659 -0.000581253618
vn -0.675900497 -0.736992659 -0.000581253618
vn -0.677417282 -0.735598958 -1.29471605e-16
vn -0.674639829 -0.738146306 -0.00106345715
vn 0.675895196 -0.736997521 -0.000581257452
vn 0.675895196 -0.736997521 -0.000581257452
vn 0.677208512 -0.735790397 -0.00106006296
vn 0.674297774 -0.738459554 -1.23608028e-16
vn 0 0 -1
vn 0 0 -1
vn 0 0 -1
vn 0 0 -1
vn 0.948489756 -0.316806977 -0.000722450173
vn 0.948489756 -0.316806977 -0.000722450173
vn 0.948898071 -0.315579908 -0.00133121667
vn 0.947879678 -0.318628442 0.000181800202
vn -0.0744747901 -0.264047527 -0.961630079
vn -0.0744747901 -0.264047527 -0.961630079
vn -0.0774139971 -0.28340239 -0.955871413
vn -0.0718483194 -0.246830653 -0.966391457
vn 0.830616778 0.55684366 0.000951917569
vn 0.830616778 0.55684366 0.000951917569
vn 0.830424492 0.557130088 0.00110826166
vn 0.830872306 0.55646263 0.000744002829
vn 0.0193812711 -0.475455944 0.879526015
vn 0.0193812711 -0.475455944 0.879526015
vn 0.0207934605 -0.475248572 0.879605836
vn 0.0166430191 -0.475855255 0.879366128
vn -0.717787202 -0.696262543 5.97547693e-05
vn -0.717787202 -0.696262543 5.97547693e-05
vn -0.71784456 -0.696203409 -1.68525417e-16
vn -0.717698262 -0.696354207 0.000152394942
vn 0 1 2.23690689e-16
vn 0 1 2.23690689e-16
vn 0 1 2.23690689e-16
vn 0 1 2.23690689e-16
vn 0.848941095 0.52848748 9.39279136e-17
vn 0.848941095 0.52848748 9.39279136e-17
vn 0.848941095 0.52848748 6.96380988e-17
vn 0.848941095 0.52848748 1.18217728e-16
vn 0.844630756 -0.358013924 0.398026275
vn 0.844630756 -0.358013924 0.398026275
vn 0.844630756 -0.358013924 0.398026275
vn 0 -1 0
vn 0 -1 0
vn 0 -1 0
vn 0 -1 0
vn -0.848941095 0.52848748 1.28746963e-16
vn -0.848941095 0.52848748 1.28746963e-16
vn -0.848941095 0.52848748 1.39276198e-16
vn -0.848941095 0.52848748 1.18217728e-16
vn 0 0 -1
vn 0 -0.0005860818 -0.999999828
vn 0 0 -1
vn 0 -0.000557829129 -0.999999844
vn 0 -0.00110139298 -0.999999393
vn 0 -0.00110139298 -0.999999393
vn 0 -0.000557829129 -0.999999844
vn 0 -0.645879217 -0.76343961
vn 0 -0.645879217 -0.76343961
vn 0 -0.645879217 -0.76343961
vn 0 -0.645879217 -0.76343961
vn 0 -0.295712352 0.95527703
vn 0 -0.295712352 0.95527703
vn 0 -0.295712352 0.95527703
vn 0 -0.295712352 0.95527703
vn -0.98113453 -0.163463624 -0.103221499
vn -0.98113453 -0.163463624 -0.103221499
vn -0.979729054 -0.0220717538 -0.199107556
vn -0.96126233 -0.27465435 -0.0232318881
vn 0 -0.412361672 -0.911020225
vn 0 -0.412361672 -0.911020225
vn 0 -0.412361672 -0.911020225
vn 0 -0.412361672 -0.911020225
vn 0.98113453 -0.163463624 -0.103221499
vn 0.98113453 -0.163463624 -0.103221499
vn 0.955926647 -0.220143842 -0.19427026
vn 0.719672176 0.327180106 0.61239296
vn 0 -1 -6.11849313e-16
vn 0 -1 -6.11849313e-16
vn 0 -1 -6.11849313e-16
vn 0 -1 -6.11849313e-16
vn -0.934091732 -0.353555985 -0.0497071535
vn -0.934091732 -0.353555985 -0.0497071535
vn -0.962251753 -0.271484596 -0.019174944
vn -0.90057781 -0.427657532 -0.0779015013
vn 0 1 0
vn 0 1 0
vn 0 1 0
vn 0 1 0
vn 0.934091732 -0.353555985 -0.0497071535
vn 0.934091732 -0.353555985 -0.0497071535
vn 0.944053472 -0.319522024 -0.0816622195
vn 0.922304022 -0.386027858 -0.0183788992
vn -0.956749075 -0.280003998 -0.0789238143
vn -0.956749075 -0.280003998 -0.0789238143
vn -0.978138072 -0.207956514 -3.90921259e-17
vn -0.909366868 -0.372690066 -0.184808048
vn -0.844630756 -0.358013924 0.398026275
vn -0.844630756 -0.358013924 0.398026275
vn -0.844630756 -0.358013924 0.398026275
vn 0.956749075 -0.280003998 -0.0789238143
vn 0.956749075 -0.280003998 -0.0789238143
vn 0.973095035 -0.118225607 -0.197759343
vn 0.925378258 -0.379044958 -8.47888277e-17
vn -0.985219415 0.147136426 0.0877130333
vn -0.985219415 0.147136426 0.0877130333
vn -0.986095424 0.142709425 0.0851459656
vn -0.984103718 0.152584757 0.0908722459
vn 0 -0.215662739 0.976467912
vn 0 -0.215662739 0.976467912
vn 0 -0.215662739 0.976467912
vn 0 -0.215662739 0.976467912
vn 0.985219415 0.147136426 0.0877130333
vn 0.985219415 0.147136426 0.0877130333
vn 0.984903037 0.150776968 0.0850430072
vn 0.98558237 0.142635174 0.0910087848
vn 0 -0.976175764 0.216981286
vn 0 -0.976175764 0.216981286
vn 0 -0.976175764 0.216981286
vn 0 -0.976175764 0.216981286
vn 0 1 2.23693268e-16
vn 0 1 2.23693268e-16
vn 0 1 2.23693268e-16
vn 0 1 2.23693268e-16
vn 0 0.424753363 -0.905309108
vn 0 0.424753363 -0.905309108
vn 0 0.424753363 -0.905309108
vn 0 0.424753363 -0.905309108
vn 0.993262931 0.103278646 -0.0525573068
vn 0.993929855 0.0975508601 -0.0508652523
vn 0.99536931 0.0860231019 -0.0428947749
vn 0.992332239 0.110016261 -0.0563307154
vn 0.991660621 0.115932553 -0.0562925903
vn 0 -1 -3.38552516e-16
vn 0 -1 -3.38552516e-16
vn 0 -1 -3.38552516e-16
vn 0 -1 -3.38552516e-16
vn -0.993262931 0.103278646 -0.0525573068
vn -0.993929855 0.0975508601 -0.0508652523
vn -0.993014786 0.109956207 -0.0427933082
vn -0.993322322 0.100654265 -0.0563869184
vn -0.991660621 0.115932553 -0.0562925903
vn 0 0.356542887 -0.934278957
vn 0 0.356542887 -0.934278957
vn 0 0.356542887 -0.934278957
vn 0 0.356542887 -0.934278957
vn -0.985647775 -0.0916066924 -0.141798016
vn -0.985647775 -0.0916066924 -0.141798016
vn -0.983139932 -0.0882758466 -0.160135095
vn -0.98845849 -0.0960134433 -0.117180339
vn 0 0.282145993 0.959371481
vn 0 0.282145993 0.959371481
vn 0 0.282145993 0.959371481
vn 0 0.282145993 0.959371481
vn 0.984541117 0.0420576273 -0.17002925
vn 0.984541117 0.0420576273 -0.17002925
vn 0.984541117 0.0420576273 -0.17002925
vn 0 0.660760122 0.750597136
vn 0 0.660760122 0.750597136
vn 0 0.660760122 0.750597136
vn 0 0.660760122 0.750597136
vn -0.984541117 0.0420576273 -0.17002925
vn -0.984541117 0.0420576273 -0.17002925
vn -0.984541117 0.0420576273 -0.17002925
vn 0 -0.350656211 -0.936504256
vn 0 -0.350656211 -0.936504256
vn 0 -0.350656211 -0.936504256
vn 0 -0.350656211 -0.936504256
vn 0.985647775 -0.0916066924 -0.141798016
vn 0.985647775 -0.0916066924 -0.141798016
vn 0.97777202 -0.116777419 -0.174140494
vn 0.989178764 -0.0779823562 -0.124274391
vn 0.985792743 -0.12706642 0.109848958
vn 0.985792743 -0.12706642 0.109848958
vn 0.984100007 -0.155970037 0.0849736682
vn 0.985840318 -0.0890420558 0.142092854
vn 0 -0.605779349 0.795632692
vn 0 -0.605779349 0.795632692
vn 0 -0.605779349 0.795632692
vn 0 -0.605779349 0.795632692
vn -0.985792925 -0.127060981 0.109853609
vn -0.985792925 -0.127060981 0.109853609
vn -0.992284568 -0.0896114385 0.085680377
vn -0.961754109 -0.216731758 0.167500383
vn 0 0 -1
vn 0 0 -1
vn 0 0 -1
vn 0 0 -1
vn 0 1 2.2236215e-16
vn 0 1 2.2236215e-16
vn 0 1 2.2236215e-16
vn 0 1 2.2236215e-16
vn 0 0 1
vn 0 0 1
vn 0 0 1
vn 0 0 1
vn 0 -1 -2.15623903e-16
vn 0 -1 -2.15623903e-16
vn 0 -1 -2.15623903e-16
vn 0 -1 -2.15623903e-16
vn 0 0 1
vn 0 0 1
vn 0 0 1
vn 0 0 1
vn 0 -0.538296907 0.842755267
vn 0 -0.538296907 0.842755267
vn 0 -0.538296907 0.842755267
vn 0 -0.538296907 0.842755267
vn 0 0 -1
vn 0 0 -1
vn 0 0 -1
vn 0 0 -1
vn 0 1 2.22176053e-16
vn 0 1 2.22176053e-16
vn 0 1 2.22176053e-16
vn 0 1 2.22176053e-16
vn -0.998577051 -0.052102365 -0.0113673214
vn -0.998577051 -0.052102365 -0.0113673214
vn -0.998781382 -0.0468861337 -0.0154091036
vn -0.997769252 -0.0667571712 -2.87844936e-17
vn 0 -1 -3.95502416e-16
vn 0 -1 -3.95502416e-16
vn 0 -1 -3.95502416e-16
vn 0 -1 -3.95502416e-16
vn -1 0 0
vn -1 0 0
vn -1 0 0
vn 1 0 0
vn 1 0 0
vn 1 0 0
vn 0.989340084 -0.138343726 -0.0454665939
vn 0.989340084 -0.138343726 -0.0454665939
vn 0.989340084 -0.138343726 -0.0454665939
vn 0.980712439 -0.195456164 -7.73033852e-17
vn 0.980712439 -0.195456164 -7.73033852e-17
vn 0.980712439 -0.195456164 -7.73033852e-17
vn 0 0 1
vn 0 0 1
vn 0 0 1
vn 0 0 1
vn 0 -0.538296907 0.842755267
vn 0 -0.538296907 0.842755267
vn 0 -0.538296907 0.842755267
vn 0 -0.538296907 0.842755267
vn 0 0 -1
vn 0 0 -1
vn 0 0 -1
vn 0 0 -1
vn 0 1 2.22176053e-16
vn 0 1 2.22176053e-16
vn 0 1 2.22176053e-16
vn 0 1 2.22176053e-16
vn 0.998577051 -0.052102365 -0.0113673214
vn 0.998577051 -0.052102365 -0.0113673214
vn 0.997769252 -0.0667571712 -2.87844936e-17
vn 0.998781382 -0.0468861337 -0.0154091036
vn 0 -1 -3.95502416e-16
vn 0 -1 -3.95502416e-16
vn 0 -1 -3.95502416e-16
vn 0 -1 -3.95502416e-16
vn 1 0 0
vn 1 0 0
vn 1 0 0
vn -1 0 0
vn -1 0 0
vn -1 0 0
vn -0.989340201 -0.13834297 -0.0454663453
vn -0.989340201 -0.13834297 -0.0454663453
vn -0.989340201 -0.13834297 -0.0454663453
vn -0.980712648 -0.195455115 -7.730297e-17
vn -0.980712648 -0.195455115 -7.730297e-17
vn -0.980712648 -0.195455115 -7.730297e-17
vn 3.96597358e-06 0.166099496 -0.986108999
vn 7.19919598e-06 0.166094869 -0.986109778
vn 0 0.166095177 -0.986109726
vn 3.92006675e-06 0.166102693 -0.98610846
vn -3.64594523e-06 0.166102867 -0.986108431
vn -4.50909967e-06 0.166098719 -0.98610913
vn -7.19918546e-06 0.166094869 -0.986109778
vn 0 0.166092021 -0.986110258
vn 0 0.986105369 0.166121044
vn 0 0.986105369 0.166121044
vn 0 0.986105369 0.166121044
vn 0 0.986105369 0.166121044
vn 4.91384935e-06 -0.166094696 0.986109807
vn 7.84534801e-06 -0.166098891 0.986109101
vn 0 -0.166101995 0.986108578
vn 3.97322195e-06 -0.166090176 0.986110569
vn -3.25289641e-06 -0.166092319 0.986110208
vn -5.69342996e-06 -0.166091264 0.986110385
vn -7.84533655e-06 -0.166098891 0.986109101
vn 0 -0.166101995 0.986108578
vn -0.989592127 -0.141901865 -0.0239015294
vn -0.989592127 -0.141901865 -0.0239015294
vn -0.989592144 -0.141901817 -0.023901096
vn -0.989592109 -0.141901914 -0.0239019629
vn 0.988789797 0.14723982 0.0248026794
vn 0.988789797 0.14723982 0.0248026794
vn 0.988789849 0.147239744 0.0248010672
vn 0.988789745 0.147239896 0.0248042916
vn 0 -0.986109846 -0.166094463
vn 0 -0.986109846 -0.166094463
vn 0 -0.986109846 -0.166094463
vn 0 -0.986109846 -0.166094463
vn 0.989593211 -0.141894514 -0.0239002912
vn 0.989593211 -0.141894514 -0.0239002912
vn 0.989593193 -0.141894562 -0.0239007246
vn 0.989593228 -0.141894465 -0.0238998577
vn -0.988789038 0.147244774 0.024803514
vn -0.988789038 0.147244774 0.024803514
vn -0.98878909 0.147244175 0.0248050124
vn -0.988788986 0.147245374 0.0248020155
vn -0.865709631 0.500546536 -2.46104098e-08
vn -0.641823384 0.766852492 -3.52485177e-08
vn -0.490508356 0.871436488 -2.52482164e-08
vn -0.939908558 0.341426278 3.43656185e-08
vn -0.329136835 0.944282238 -1.00574014e-09
vn -0.329136739 0.944282271 2.86899449e-08
vn -0.999999204 -0.00126181184 5.88406771e-08
vn -0.982850844 -0.184402329 5.86825818e-08
vn -0.862312985 -0.506375666 2.42023416e-08
vn -0.762535941 -0.646945854 -1.15993526e-16
vn -0.502195957 -0.86475385 -1.54117543e-16
vn -0.33963406 -0.940557657 -1.63695748e-16
vn -0.171636301 -0.985160383 -1.71571735e-16
vn -0.171636301 -0.985160383 -1.71166603e-16
vn 0.865709295 -0.500547117 -1.12143019e-16
vn 0.641820469 -0.766854931 -1.54023791e-16
vn 0.490503919 -0.871438986 -1.56118599e-16
vn 0.939908379 -0.341426769 -8.80994978e-17
vn 0.329131083 -0.944284242 -1.68464227e-16
vn 0.329131083 -0.944284242 -1.72863872e-16
vn 0.999999208 0.00125818889 -8.82586441e-19
vn 0.982851744 0.184397528 5.71393816e-09
vn 0.862315447 0.506371474 1.7948196e-08
vn 0.762537953 0.646943483 2.30795882e-08
vn 0.502196211 0.864753702 1.88090753e-08
vn 0.339633834 0.940557738 2.50973525e-08
vn 0.171635568 0.985160511 2.89773125e-08
vn 0.171635651 0.985160496 5.39521471e-08
vn 0 0 1
vn 0 0 1
vn 0 0 1
vn 0 0 1
vn 0 0 1
vn 0 0 1
vn 0 0 1
vn 0 0 1
vn 0 0 1
vn 0 0 1
vn 0 0 1
vn 0 0 1
vn 0 0 1
vn 0 0 -1
vn 0 0 -1
vn 0 0 -1
vn 0 0 -1
vn 0 0 -1
vn 0 0 -1
vn 0 0 -1
vn 0 0 -1
vn 0 0 -1
vn 0 0 -1
vn 0 0 -1
vn 0 0 -1
vn 0 0 -1
vn -0.862739097 0.505649336 -7.93743292e-08
vn -0.862739097 0.505649336 -7.93743292e-08
vn -0.862739107 0.505649319 -1.5874866e-07
vn -0.862739087 0.505649353 0
vn -0.862736898 -0.505653087 -7.93741273e-08
vn -0.862736898 -0.505653087 -7.93741273e-08
vn -0.862736908 -0.50565307 0
vn -0.862736888 -0.505653104 -1.58748253e-07
vn 0 -1 -1.37094711e-15
vn 0 -1 -1.37094711e-15
vn 0 -1 -1.37094711e-15
vn 0 -1 -1.37094711e-15
vn 0.862736829 -0.505653205 -3.90341917e-16
vn 0.862736829 -0.505653205 -3.90341917e-16
vn 0.862736829 -0.505653205 -7.80683834e-16
vn 0.862736829 -0.505653205 0
vn 0.862739028 0.505649454 6.49892493e-17
vn 0.862739028 0.505649454 6.49892493e-17
vn 0.862739028 0.505649454 0
vn 0.862739028 0.505649454 1.29978499e-16
vn 0 1 2.57052584e-16
vn 0 1 2.57052584e-16
vn 0 1 2.57052584e-16
vn 0 1 2.57052584e-16
vn 0 0 1
vn 0 0 1
vn 0 0 1
vn 0 0 1
vn 0 0 1
vn 0 0 1
vn 0 0 -1
vn 0 0 -1
vn 0 0 -1
vn 0 0 -1
vn 0 0 -1
vn 0 0 -1
vn -0.975880468 0.0865508867 0.200415211
vn -0.97484714 0.0935398656 0.202295199
vn -0.97652173 0.0877104161 0.196754146
vn -0.973840484 0.0969355565 0.205519366
vn -0.969683097 0.124222701 0.210436242
vn 0.974848815 0.0935366611 0.202288606
vn 0.975881064 0.0865502222 0.200412596
vn 0.973355146 0.100435866 0.206136838
vn 0.976848023 0.0837975163 0.196839826
vn 0.969690093 0.124208587 0.210412333
vn 0 0.2343696 0.972147566
vn 0 0.2343696 0.972147566
vn 0 0.2343696 0.972147566
vn 0 0.2343696 0.972147566
vn 0 -0.270303953 -0.962775038
vn 0 -0.270303953 -0.962775038
vn 0 -0.270303953 -0.962775038
vn 0 -0.270303953 -0.962775038
vn 0 0.508347126 0.861152251
vn 0 0.508347126 0.861152251
vn 0 0.508347126 0.861152251
vn 0 0.508347126 0.861152251
vn 0 -0.999254872 -0.0385966524
vn 0 -0.999400523 -0.0346207308
vn 0 -0.999254872 -0.0385966524
vn 0 -0.999502721 -0.0315326958
vn 0 -1 -2.44627612e-16
vn -0.965931178 0.257876339 0.0218347035
vn -0.965931178 0.257876339 0.0218347035
vn -0.971089908 0.237492472 0.0241188167
vn -0.959329313 0.281639512 0.0191429997
vn 0 0.999101974 0.0423703387
vn 0 0.999155151 0.0410972501
vn 0 0.99919798 0.040042434
vn 0 0.999101974 0.0423703387
vn 0 1 5.43529606e-16
vn 0.965935852 0.257859073 0.0218318036
vn 0.965935852 0.257859073 0.0218318036
vn 0.971499825 0.236393386 0.0175001965
vn 0.960651014 0.276574029 0.0256210225
vn 0.0252641397 -0.997164358 0.0708869954
vn 0.0252641397 -0.997164358 0.0708869954
vn 0.0586594762 -0.997237558 0.0455666329
vn -0.0274314829 -0.993495272 0.110519945
vn -0.0233997014 0.997713785 -0.0634007606
vn -0.0233997014 0.997713785 -0.0634007606
vn -0.0154732272 0.997500841 -0.0689394697
vn -0.0293989891 0.997812917 -0.0592037318
vn -0.280429215 0.56752881 -0.774125639
vn -0.280429215 0.56752881 -0.774125639
vn -0.261180902 0.576536994 -0.774202578
vn -0.309437327 0.553348791 -0.77333929
vn -0.852591909 0.192127286 0.485977512
vn -0.852591909 0.192127286 0.485977512
vn -0.832033681 0.2855341 0.475594608
vn -0.864705845 0.102878663 0.49162972
vn 0.784474914 0.335494509 -0.521576978
vn 0.784474914 0.335494509 -0.521576978
vn 0.752816762 0.40913968 -0.515627429
vn 0.808704319 0.267141566 -0.524054108
vn 0.0234004586 0.997713797 -0.0634002997
vn 0.0234004586 0.997713797 -0.0634002997
vn 0.0293997289 0.997812921 -0.0592033001
vn 0.0154738749 0.99750086 -0.0689390627
vn 0.280434426 0.567526329 -0.77412557
vn 0.280434426 0.567526329 -0.77412557
vn 0.309453447 0.553340705 -0.773338625
vn 0.26117989 0.576537459 -0.774202573
vn 0.852591909 0.192127286 0.485977512
vn 0.852591909 0.192127286 0.485977512
vn 0.864705556 0.102881679 0.491629597
vn 0.832034471 0.28553112 0.475595015
vn -0.784471491 0.335505864 -0.521574823
vn -0.784471491 0.335505864 -0.521574823
vn -0.808697713 0.267165378 -0.524052164
vn -0.75281824 0.409138629 -0.515626105
vn 0.862740406 -0.505647102 -7.81789697e-08
vn 0.862740406 -0.505647102 -7.81789697e-08
vn 0.862740386 -0.505647137 0
vn 0.862740427 -0.505647066 -1.56357943e-07
vn 0.862742102 0.505644208 -7.81791231e-08
vn 0.862742102 0.505644208 -7.81791231e-08
vn 0.862742081 0.505644244 -1.56358242e-07
vn 0.862742123 0.505644173 1.06682933e-16
vn 0 1 2.10984204e-16
vn 0 1 2.10984204e-16
vn 0 1 2.10984204e-16
vn 0 1 2.10984204e-16
vn -0.862740373 0.505647158 -5.86342247e-08
vn -0.862740373 0.505647158 -5.86342247e-08
vn -0.862740368 0.505647167 -3.90894828e-08
vn -0.862740379 0.505647149 -7.81789669e-08
vn -0.862742166 -0.505644099 -5.86343469e-08
vn -0.862742166 -0.505644099 -5.86343469e-08
vn -0.862742161 -0.505644108 -7.81791288e-08
vn -0.862742171 -0.50564409 -3.90895647e-08
vn 0 -1 0
vn 0 -1 0
vn 0 -1 0
vn 0 -1 0
vn -9.19853048e-22 -4.09100927e-16 1
vn -1.83970589e-21 -8.18201765e-16 1
vn -1.37977782e-21 -4.09100927e-16 1
vn 0 -8.18204999e-16 1
vn 0 0 1
vn 0 0 1
vn 9.19853098e-22 4.09100927e-16 -1
vn 0 0 -1
vn 1.37977791e-21 4.09100927e-16 -1
vn 0 0 -1
vn 1.83970599e-21 8.18201765e-16 -1
vn 0 8.18204999e-16 -1
vn 0 0.970852126 -0.239679264
vn 0 0.970852126 -0.239679264
vn 0 0.970852126 -0.239679264
vn 0 0.970852126 -0.239679264
vn -0.829619175 0.5006299 -0.247187636
vn -0.829619175 0.5006299 -0.247187636
vn -0.829618873 0.500631081 -0.247186258
vn -0.829619415 0.500628964 -0.247188728
vn -0.829623847 -0.500622168 -0.247187618
vn -0.829623847 -0.500622168 -0.247187618
vn -0.829623932 -0.50062209 -0.247187489
vn -0.829623779 -0.500622229 -0.24718772
vn 0 -0.970852223 -0.239678872
vn 0 -0.970852223 -0.239678872
vn 0 -0.970852223 -0.239678872
vn 0 -0.970852223 -0.239678872
vn 0.829625032 -0.500622966 -0.247182023
vn 0.829625032 -0.500622966 -0.247182023
vn 0.829625037 -0.500622945 -0.247182048
vn 0.829625028 -0.500622983 -0.247182004
vn 0.82962036 0.500630699 -0.247182041
vn 0.82962036 0.500630699 -0.247182041
vn 0.829619392 0.500631583 -0.247183502
vn 0.829621128 0.500629998 -0.247180883
vn 0 0 -1
vn 0 6.7640573e-16 -1
vn 0 1.01461364e-15 -1
vn 0 0 -1
vn 0 1.69103889e-15 -1
vn 0 1.69103889e-15 -1
vn 0 -2.08608154e-16 1
vn 0 -4.17211449e-16 1
vn 0 -4.17211449e-16 1
vn 0 -2.08608154e-16 1
vn 0 0 1
vn 0 0 1
vn 0 1 2.37579084e-16
vn 0 1 2.37579084e-16
vn 0 1 2.37579084e-16
vn 0 1 2.37579084e-16
vn 0.856189232 0.516662364 9.20888116e-17
vn 0.856189232 0.516662364 9.20888116e-17
vn 0.856189232 0.516662364 1.02345509e-16
vn 0.856189232 0.516662364 8.18321143e-17
vn 0.856193509 -0.516655277 -7.92945352e-17
vn 0.856193509 -0.516655277 -7.92945352e-17
vn 0.856193509 -0.516655277 -7.67580787e-17
vn 0.856193509 -0.516655277 -8.18309917e-17
vn 0 -1 -1.58386056e-16
vn 0 -1 -1.58386056e-16
vn 0 -1 -1.58386056e-16
vn 0 -1 -1.58386056e-16
vn -0.856193509 -0.516655277 -7.92945352e-17
vn -0.856193509 -0.516655277 -7.92945352e-17
vn -0.856193509 -0.516655277 -7.67580787e-17
vn -0.856193509 -0.516655277 -8.18309917e-17
vn -0.856189232 0.516662364 1.1254684e-16
vn -0.856189232 0.516662364 1.1254684e-16
vn -0.856189232 0.516662364 1.02345509e-16
vn -0.856189232 0.516662364 1.22748171e-16
vn -0.745254848 0.449721056 0.492286689
vn -0.745254848 0.449721056 0.492286689
vn -0.745256738 0.449720802 0.492284058
vn -0.745252494 0.449721371 0.492289964
vn 0 0.877205226 0.480115602
vn 0 0.877205226 0.480115602
vn 0 0.877205226 0.480115602
vn 0 0.877205226 0.480115602
vn 0.745259748 0.449724236 0.492276366
vn 0.745259748 0.449724236 0.492276366
vn 0.745258963 0.449722145 0.492279463
vn 0.745260724 0.449726838 0.492272511
vn 0.745263813 -0.449717355 0.492276497
vn 0.745263813 -0.449717355 0.492276497
vn 0.745264761 -0.449717228 0.492275177
vn 0.745262632 -0.449717513 0.49227814
vn 0 -0.877205226 0.480115602
vn 0 -0.877205226 0.480115602
vn 0 -0.877205226 0.480115602
vn 0 -0.877205226 0.480115602
vn -0.745258913 -0.449714175 0.49228682
vn -0.745258913 -0.449714175 0.49228682
vn -0.745258682 -0.44971356 0.492287732
vn -0.745259201 -0.449714942 0.492285685

g gun_machinegun_submesh_0
usemtl gun13
f 1/1/1 3/3/3 2/2/2
f 1/1/1 2/2/2 4/4/4
f 5/5/5 7/7/7 6/6/6
f 5/5/5 6/6/6 8/8/8
f 9/9/9 11/11/11 10/10/10
f 9/9/9 10/10/10 12/12/12
f 13/13/13 15/15/15 14/14/14
f 13/13/13 14/14/14 16/16/16
f 17/17/17 19/19/19 18/18/18
f 17/17/17 18/18/18 20/20/20
f 21/21/21 23/23/23 22/22/22
f 21/21/21 22/22/22 24/24/24
f 25/25/25 27/27/27 26/26/26
f 25/25/25 26/26/26 28/28/28
f 29/29/29 31/31/31 30/30/30
f 29/29/29 30/30/30 32/32/32
f 33/33/33 35/35/35 34/34/34
f 33/33/33 34/34/34 36/36/36
f 37/37/37 39/39/39 38/38/38
f 37/37/37 38/38/38 40/40/40
f 41/41/41 43/43/43 42/42/42
f 41/41/41 42/42/42 44/44/44
f 45/45/45 47/47/47 46/46/46
f 45/45/45 46/46/46 48/48/48
f 49/49/49 51/51/51 50/50/50
f 49/49/49 50/50/50 52/52/52
f 53/53/53 55/55/55 54/54/54
f 53/53/53 54/54/54 56/56/56
f 57/57/57 59/59/59 58/58/58
f 57/57/57 58/58/58 60/60/60
f 61/61/61 63/63/63 62/62/62
f 61/61/61 62/62/62 64/64/64
f 65/65/65 67/67/67 66/66/66
f 65/65/65 66/66/66 68/68/68
f 69/69/69 71/71/71 70/70/70
f 69/69/69 70/70/70 72/72/72
f 73/73/73 75/75/75 74/74/74
f 73/73/73 74/74/74 76/76/76
f 77/77/77 79/79/79 78/78/78
f 77/77/77 78/78/78 80/80/80
f 81/81/81 83/83/83 82/82/82
f 81/81/81 82/82/82 84/84/84
f 85/85/85 87/87/87 86/86/86
f 85/85/85 86/86/86 88/88/88
f 89/89/89 91/91/91 90/90/90
f 89/89/89 90/90/90 92/92/92
f 93/93/93 95/95/95 94/94/94
f 93/93/93 94/94/94 96/96/96
f 97/97/97 99/99/99 98/98/98
f 97/97/97 98/98/98 100/100/100
f 101/101/101 103/103/103 102/102/102
f 101/101/101 102/102/102 104/104/104
f 105/105/105 107/107/107 106/106/106
f 105/105/105 106/106/106 108/108/108
f 109/109/109 111/111/111 110/110/110
f 109/109/109 110/110/110 112/112/112
f 113/113/113 115/115/115 114/114/114
f 113/113/113 114/114/114 116/116/116
f 117/117/117 119/119/119 118/118/118
f 117/117/117 118/118/118 120/120/120
f 121/121/121 123/123/123 122/122/122
f 121/121/121 122/122/122 124/124/124
f 125/125/125 127/127/127 126/126/126
f 125/125/125 126/126/126 128/128/128
f 129/129/129 131/131/131 130/130/130
f 129/129/129 130/130/130 132/132/132
f 133/133/133 135/135/135 134/134/134
f 133/133/133 134/134/134 136/136/136
f 137/137/137 139/139/139 138/138/138
f 137/137/137 138/138/138 140/140/140
f 141/141/141 143/143/143 142/142/142
f 141/141/141 142/142/142 144/144/144
f 145/145/145 147/147/147 146/146/146
f 145/145/145 146/146/146 148/148/148
f 149/149/149 151/151/151 150/150/150
f 149/149/149 150/150/150 152/152/152
f 153/153/153 155/155/155 154/154/154
f 153/153/153 154/154/154 156/156/156
f 157/157/157 159/159/159 158/158/158
f 157/157/157 158/158/158 160/160/160
f 161/161/161 163/163/163 162/162/162
f 161/161/161 162/162/162 164/164/164
f 165/165/165 167/167/167 166/166/166
f 165/165/165 166/166/166 168/168/168
f 169/169/169 171/171/171 170/170/170
f 169/169/169 170/170/170 172/172/172
f 173/173/173 175/175/175 174/174/174
f 173/173/173 174/174/174 176/176/176
f 177/177/177 179/179/179 178/178/178
f 177/177/177 178/178/178 180/180/180
f 181/181/181 183/183/183 182/182/182
f 181/181/181 182/182/182 184/184/184
f 185/185/185 187/187/187 186/186/186
f 185/185/185 186/186/186 188/188/188
f 189/189/189 191/191/191 190/190/190
f 189/189/189 190/190/190 192/192/192
f 193/193/193 195/195/195 194/194/194
f 193/193/193 194/194/194 196/196/196
f 197/197/197 199/199/199 198/198/198
f 197/197/197 198/198/198 200/200/200
f 201/201/201 203/203/203 202/202/202
f 201/201/201 202/202/202 204/204/204
f 205/205/205 207/207/207 206/206/206
f 208/208/208 210/210/210 209/209/209
f 208/208/208 209/209/209 211/211/211
f 212/212/212 214/214/214 213/213/213
f 212/212/212 213/213/213 215/215/215
f 216/216/216 218/218/218 217/217/217
f 218/218/218 219/219/219 217/217/217
f 219/219/219 220/220/220 217/217/217
f 220/220/220 221/221/221 217/217/217
f 221/221/221 222/222/222 217/217/217
f 222/222/222 216/216/216 217/217/217
f 223/223/223 225/225/225 224/224/224
f 223/223/223 224/224/224 226/226/226
f 227/227/227 229/229/229 228/228/228
f 227/227/227 228/228/228 230/230/230
f 231/231/231 233/233/233 232/232/232
f 231/231/231 232/232/232 234/234/234
f 235/235/235 237/237/237 236/236/236
f 235/235/235 236/236/236 238/238/238
f 239/239/239 241/241/241 240/240/240
f 239/239/239 240/240/240 242/242/242
f 243/243/243 245/245/245 244/244/244
f 243/243/243 244/244/244 246/246/246
f 247/247/247 249/249/249 248/248/248
f 247/247/247 248/248/248 250/250/250
f 251/251/251 253/253/253 252/252/252
f 251/251/251 252/252/252 254/254/254
f 255/255/255 257/257/257 256/256/256
f 255/255/255 256/256/256 258/258/258
f 259/259/259 261/261/261 260/260/260
f 259/259/259 260/260/260 262/262/262
f 263/263/263 265/265/265 264/264/264
f 266/266/266 268/268/268 267/267/267
f 266/266/266 267/267/267 269/269/269
f 270/270/270 272/272/272 271/271/271
f 270/270/270 271/271/271 273/273/273
f 274/274/274 276/276/276 275/275/275
f 274/274/274 275/275/275 277/277/277
f 278/278/278 280/280/280 279/279/279
f 278/278/278 279/279/279 281/281/281
f 282/282/282 284/284/284 283/283/283
f 282/282/282 283/283/283 285/285/285
f 286/286/286 288/288/288 287/287/287
f 286/286/286 287/287/287 289/289/289
f 290/290/290 292/292/292 291/291/291
f 290/290/290 291/291/291 293/293/293
f 294/294/294 296/296/296 295/295/295
f 294/294/294 295/295/295 297/297/297
f 294/294/294 297/297/297 298/298/298
f 299/299/299 301/301/301 300/300/300
f 299/299/299 300/300/300 302/302/302
f 303/303/303 305/305/305 304/304/304
f 303/303/303 304/304/304 306/306/306
f 303/303/303 306/306/306 307/307/307
f 308/308/308 310/310/310 309/309/309
f 308/308/308 309/309/309 311/311/311
f 312/312/312 314/314/314 313/313/313
f 312/312/312 313/313/313 315/315/315
f 316/316/316 318/318/318 317/317/317
f 316/316/316 317/317/317 319/319/319
f 320/320/320 322/322/322 321/321/321
f 323/323/323 325/325/325 324/324/324
f 323/323/323 324/324/324 326/326/326
f 327/327/327 329/329/329 328/328/328
f 330/330/330 332/332/332 331/331/331
f 330/330/330 331/331/331 333/333/333
f 334/334/334 336/336/336 335/335/335
f 334/334/334 335/335/335 337/337/337
f 338/338/338 340/340/340 339/339/339
f 338/338/338 339/339/339 341/341/341
f 342/342/342 344/344/344 343/343/343
f 342/342/342 343/343/343 345/345/345
f 346/346/346 348/348/348 347/347/347
f 346/346/346 347/347/347 349/349/349
f 350/350/350 352/352/352 351/351/351
f 350/350/350 351/351/351 353/353/353
f 354/354/354 356/356/356 355/355/355
f 354/354/354 355/355/355 357/357/357
f 358/358/358 360/360/360 359/359/359
f 358/358/358 359/359/359 361/361/361
f 362/362/362 364/364/364 363/363/363
f 362/362/362 363/363/363 365/365/365
f 366/366/366 368/368/368 367/367/367
f 366/366/366 367/367/367 369/369/369
f 370/370/370 372/372/372 371/371/371
f 370/370/370 371/371/371 373/373/373
f 374/374/374 376/376/376 375/375/375
f 374/374/374 375/375/375 377/377/377
f 378/378/378 380/380/380 379/379/379
f 378/378/378 379/379/379 381/381/381
f 382/382/382 384/384/384 383/383/383
f 382/382/382 383/383/383 385/385/385
f 386/386/386 388/388/388 387/387/387
f 386/386/386 387/387/387 389/389/389
f 390/390/390 392/392/392 391/391/391
f 393/393/393 395/395/395 394/394/394
f 396/396/396 398/398/398 397/397/397
f 399/399/399 401/401/401 400/400/400
f 402/402/402 404/404/404 403/403/403
f 402/402/402 403/403/403 405/405/405
f 406/406/406 408/408/408 407/407/407
f 406/406/406 407/407/407 409/409/409
f 410/410/410 412/412/412 411/411/411
f 410/410/410 411/411/411 413/413/413
f 414/414/414 416/416/416 415/415/415
f 414/414/414 415/415/415 417/417/417
f 418/418/418 420/420/420 419/419/419
f 418/418/418 419/419/419 421/421/421
f 422/422/422 424/424/424 423/423/423
f 422/422/422 423/423/423 425/425/425
f 426/426/426 428/428/428 427/427/427
f 429/429/429 431/431/431 430/430/430
f 432/432/432 434/434/434 433/433/433
f 435/435/435 437/437/437 436/436/436
f 438/438/438 440/440/440 439/439/439
f 438/438/438 439/439/439 441/441/441
f 442/442/442 438/438/438 441/441/441
f 442/442/442 441/441/441 443/443/443
f 444/444/444 442/442/442 443/443/443
f 444/444/444 443/443/443 445/445/445
f 446/446/446 448/448/448 447/447/447
f 446/446/446 447/447/447 449/449/449
f 450/450/450 452/452/452 451/451/451
f 450/450/450 451/451/451 453/453/453
f 454/454/454 450/450/450 453/453/453
f 454/454/454 453/453/453 455/455/455
f 454/454/454 455/455/455 456/456/456
f 454/454/454 456/456/456 457/457/457
f 458/458/458 460/460/460 459/459/459
f 458/458/458 459/459/459 461/461/461
f 462/462/462 464/464/464 463/463/463
f 462/462/462 463/463/463 465/465/465
f 466/466/466 468/468/468 467/467/467
f 466/466/466 467/467/467 469/469/469
f 470/470/470 472/472/472 471/471/471
f 470/470/470 471/471/471 473/473/473
f 474/474/474 476/476/476 475/475/475
f 474/474/474 475/475/475 477/477/477
f 478/478/478 480/480/480 479/479/479
f 478/478/478 479/479/479 481/481/481
f 480/480/480 482/482/482 479/479/479
f 480/480/480 483/483/483 482/482/482
f 484/484/484 478/478/478 481/481/481
f 484/484/484 481/481/481 485/485/485
f 486/486/486 484/484/484 485/485/485
f 486/486/486 485/485/485 487/487/487
f 488/488/488 486/486/486 487/487/487
f 488/488/488 487/487/487 489/489/489
f 490/490/490 488/488/488 489/489/489
f 490/490/490 489/489/489 491/491/491
f 492/492/492 494/494/494 493/493/493
f 492/492/492 493/493/493 495/495/495
f 494/494/494 496/496/496 493/493/493
f 494/494/494 497/497/497 496/496/496
f 498/498/498 492/492/492 495/495/495
f 498/498/498 495/495/495 499/499/499
f 500/500/500 498/498/498 499/499/499
f 500/500/500 499/499/499 501/501/501
f 502/502/502 500/500/500 501/501/501
f 502/502/502 501/501/501 503/503/503
f 504/504/504 502/502/502 503/503/503
f 504/504/504 503/503/503 505/505/505
f 506/506/506 508/508/508 507/507/507
f 507/507/507 509/509/509 506/506/506
f 506/506/506 510/510/510 508/508/508
f 509/509/509 511/511/511 506/506/506
f 511/511/511 512/512/512 506/506/506
f 513/513/513 510/510/510 506/506/506
f 514/514/514 513/513/513 506/506/506
f 515/515/515 514/514/514 506/506/506
f 516/516/516 515/515/515 506/506/506
f 506/506/506 517/517/517 516/516/516
f 506/506/506 518/518/518 517/517/517
f 512/512/512 518/518/518 506/506/506
f 519/519/519 521/521/521 520/520/520
f 519/519/519 522/522/522 521/521/521
f 521/521/521 523/523/523 520/520/520
f 521/521/521 524/524/524 523/523/523
f 522/522/522 525/525/525 521/521/521
f 525/525/525 526/526/526 521/521/521
f 521/521/521 527/527/527 524/524/524
f 521/521/521 528/528/528 527/527/527
f 526/526/526 529/529/529 521/521/521
f 529/529/529 530/530/530 521/521/521
f 530/530/530 531/531/531 521/521/521
f 521/521/521 531/531/531 528/528/528
f 532/532/532 534/534/534 533/533/533
f 532/532/532 533/533/533 535/535/535
f 536/536/536 538/538/538 537/537/537
f 536/536/536 537/537/537 539/539/539
f 540/540/540 542/542/542 541/541/541
f 540/540/540 541/541/541 543/543/543
f 544/544/544 546/546/546 545/545/545
f 544/544/544 545/545/545 547/547/547
f 548/548/548 550/550/550 549/549/549
f 548/548/548 549/549/549 551/551/551
f 552/552/552 554/554/554 553/553/553
f 552/552/552 553/553/553 555/555/555
f 556/556/556 558/558/558 557/557/557
f 556/556/556 557/557/557 559/559/559
f 556/556/556 560/560/560 558/558/558
f 556/556/556 561/561/561 560/560/560
f 562/562/562 564/564/564 563/563/563
f 562/562/562 563/563/563 565/565/565
f 562/562/562 566/566/566 564/564/564
f 562/562/562 567/567/567 566/566/566
f 568/568/568 570/570/570 569/569/569
f 568/568/568 569/569/569 571/571/571
f 572/572/572 571/571/571 569/569/569
f 573/573/573 575/575/575 574/574/574
f 573/573/573 574/574/574 576/576/576
f 573/573/573 577/577/577 575/575/575
f 578/578/578 580/580/580 579/579/579
f 578/578/578 579/579/579 581/581/581
f 582/582/582 584/584/584 583/583/583
f 582/582/582 583/583/583 585/585/585
f 586/586/586 588/588/588 587/587/587
f 586/586/586 587/587/587 589/589/589
f 590/590/590 592/592/592 591/591/591
f 590/590/590 591/591/591 593/593/593
f 593/593/593 591/591/591 594/594/594
f 595/595/595 597/597/597 596/596/596
f 595/595/595 596/596/596 598/598/598
f 599/599/599 601/601/601 600/600/600
f 599/599/599 600/600/600 602/602/602
f 600/600/600 601/601/601 603/603/603
f 604/604/604 606/606/606 605/605/605
f 604/604/604 605/605/605 607/607/607
f 608/608/608 610/610/610 609/609/609
f 608/608/608 609/609/609 611/611/611
f 612/612/612 614/614/614 613/613/613
f 612/612/612 613/613/613 615/615/615
f 616/616/616 618/618/618 617/617/617
f 616/616/616 617/617/617 619/619/619
f 620/620/620 622/622/622 621/621/621
f 620/620/620 621/621/621 623/623/623
f 624/624/624 626/626/626 625/625/625
f 624/624/624 625/625/625 627/627/627
f 628/628/628 630/630/630 629/629/629
f 628/628/628 629/629/629 631/631/631
f 632/632/632 634/634/634 633/633/633
f 632/632/632 633/633/633 635/635/635
f 636/636/636 638/638/638 637/637/637
f 636/636/636 637/637/637 639/639/639
f 640/640/640 642/642/642 641/641/641
f 640/640/640 641/641/641 643/643/643
f 644/644/644 646/646/646 645/645/645
f 644/644/644 645/645/645 647/647/647
f 648/648/648 650/650/650 649/649/649
f 648/648/648 649/649/649 651/651/651
f 652/652/652 654/654/654 653/653/653
f 652/652/652 653/653/653 655/655/655
f 656/656/656 658/658/658 657/657/657
f 656/656/656 657/657/657 659/659/659
f 660/660/660 662/662/662 661/661/661
f 660/660/660 661/661/661 663/663/663
f 664/664/664 666/666/666 665/665/665
f 664/664/664 665/665/665 667/667/667
f 668/668/668 670/670/670 669/669/669
f 668/668/668 669/669/669 671/671/671
f 668/668/668 672/672/672 670/670/670
f 668/668/668 673/673/673 672/672/672
f 674/674/674 676/676/676 675/675/675
f 674/674/674 675/675/675 677/677/677
f 674/674/674 678/678/678 676/676/676
f 674/674/674 679/679/679 678/678/678
f 680/680/680 682/682/682 681/681/681
f 680/680/680 681/681/681 683/683/683
f 684/684/684 686/686/686 685/685/685
f 684/684/684 685/685/685 687/687/687
f 688/688/688 690/690/690 689/689/689
f 688/688/688 689/689/689 691/691/691
f 692/692/692 694/694/694 693/693/693
f 692/692/692 693/693/693 695/695/695
f 696/696/696 698/698/698 697/697/697
f 696/696/696 697/697/697 699/699/699
f 700/700/700 702/702/702 701/701/701
f 700/700/700 701/701/701 703/703/703
f 704/704/704 706/706/706 705/705/705
f 704/704/704 705/705/705 707/707/707
f 708/708/708 705/705/705 706/706/706
f 708/708/708 706/706/706 709/709/709
f 710/710/710 712/712/712 711/711/711
f 710/710/710 711/711/711 713/713/713
f 710/710/710 713/713/713 714/714/714
f 710/710/710 714/714/714 715/715/715
f 716/716/716 718/718/718 717/717/717
f 716/716/716 717/717/717 719/719/719
f 720/720/720 722/722/722 721/721/721
f 720/720/720 721/721/721 723/723/723
f 724/724/724 726/726/726 725/725/725
f 724/724/724 725/725/725 727/727/727
f 728/728/728 730/730/730 729/729/729
f 728/728/728 729/729/729 731/731/731
f 732/732/732 734/734/734 733/733/733
f 732/732/732 733/733/733 735/735/735
f 736/736/736 738/738/738 737/737/737
f 736/736/736 737/737/737 739/739/739
f 740/740/740 742/742/742 741/741/741
f 740/740/740 741/741/741 743/743/743
f 744/744/744 746/746/746 745/745/745
f 744/744/744 745/745/745 747/747/747
f 748/748/748 750/750/750 749/749/749
f 748/748/748 749/749/749 751/751/751
f 752/752/752 754/754/754 753/753/753
f 752/752/752 753/753/753 755/755/755
f 756/756/756 758/758/758 757/757/757
f 756/756/756 757/757/757 759/759/759
f 760/760/760 762/762/762 761/761/761
f 760/760/760 761/761/761 763/763/763
