# Generated from legacy Unity YAML Mesh assets without Unity.
mtllib gun27.mtl

o gun27
v 0.0289958734 0.244112819 -0.143517911
v 0.0345796198 0.451385498 -0.0520563424
v 0.034525454 0.317994863 -0.0529435016
v 0.0770336837 0.451385498 -0.0546481758
v 0.0714499354 0.244112819 -0.146109745
v 0.0769795179 0.317994863 -0.0555353351
v 0.0512035042 0.529111385 -0.12875174
v 0.0770336837 0.451385498 -0.0546481758
v 0.0345796198 0.451385498 -0.0520563424
v 0.0714499354 0.244112819 -0.146109745
v 0.0459530056 0.283876806 -0.21475473
v 0.0289958734 0.244112819 -0.143517911
v 0.0289958734 0.244112819 -0.143517911
v 0.0512035042 0.529111385 -0.12875174
v 0.0345796198 0.451385498 -0.0520563424
v 0.0459530056 0.283876806 -0.21475473
v 0.0714499354 0.244112819 -0.146109745
v 0.0512035042 0.529111385 -0.12875174
v 0.0459530056 0.283876806 -0.21475473
v 0.0770336837 0.451385498 -0.0546481758
v 0.058818087 1.87709582 -0.00402528793
v 0.0374815539 0.473873019 -0.00452272967
v 0.0565189049 1.82858479 -0.0416858643
v 0.0537286401 0.799075663 -0.0873900801
v 0.0515920594 0.594251812 -0.122387201
v 0.0799356177 0.473873019 -0.00711456407
v 0.0515920594 0.594251812 -0.122387201
v 0.0374815539 0.473873019 -0.00452272967
v 0.0799356177 0.473873019 -0.00711456407
v 0.0799356177 0.473873019 -0.00711456407
v 0.0374815539 0.473873019 -0.00452272967
v 0.058818087 1.87709582 -0.00402528793
v 0.0374815539 0.473873019 -0.00452272967
v 0.0515920594 0.594251812 -0.122387201
v 0.0537286401 0.799075663 -0.0873900801
v 0.0565189049 1.82858479 -0.0416858643
v 0.0537286401 0.799075663 -0.0873900801
v 0.0799356177 0.473873019 -0.00711456407
v 0.058818087 1.87709582 -0.00402528793
v 0.0565189049 1.82858479 -0.0416858643
v 0.0799356177 0.473873019 -0.00711456407
v 0.0374815539 0.473873019 -0.00452272967
v 0.0537286401 0.799075663 -0.0873900801
v 0.0565189049 1.82858479 -0.0416858643
v 0.0629231781 0.764938235 0.063216269
v 0.0651826113 0.584142923 0.100225791
v 0.0391238257 0.468482733 0.0223776363
v 0.0603508651 1.23926711 0.0210816842
v 0.0815778896 0.468482733 0.0197858009
v 0.0629231781 0.764938235 0.063216269
v 0.0603508651 1.23926711 0.0210816842
v 0.0391238257 0.468482733 0.0223776363
v 0.0815778896 0.468482733 0.0197858009
v 0.0815778896 0.468482733 0.0197858009
v 0.0391238257 0.468482733 0.0223776363
v 0.0651826113 0.584142923 0.100225791
v 0.0603508651 1.23926711 0.0210816842
v 0.0629231781 0.764938235 0.063216269
v 0.0391238257 0.468482733 0.0223776363
v 0.0815778896 0.468482733 0.0197858009
v 0.0651826113 0.584142923 0.100225791
v 0.0629231781 0.764938235 0.063216269
v 0.0838129297 0.244112819 -0.146864519
v 0.0154806916 0.244112819 -0.142692804
v 0.0475656614 0.26278466 -0.178867862
v 0.0154806916 0.244112819 -0.142692804
v 0.0893425122 0.317994863 -0.0562900975
v 0.0210102722 0.317994863 -0.0521183945
v 0.0838129297 0.244112819 -0.146864519
v 0.0210102722 0.317994863 -0.0521183945
v 0.0893966779 0.451385498 -0.055402942
v 0.0210644361 0.451385498 -0.0512312353
v 0.0893425122 0.317994863 -0.0562900975
v 0.0893966779 0.451385498 -0.055402942
v 0.0188536942 0.488802791 -0.0874431506
v 0.0210644361 0.451385498 -0.0512312353
v 0.0871859342 0.488802791 -0.0916148573
v 0.0521578789 0.503269076 -0.103647508
v 0.0199552607 0.546047986 -0.0693995282
v 0.0532594621 0.560514331 -0.0856035948
v 0.0882875025 0.546047986 -0.0735712349
v 0.0924071074 0.47406286 -0.00609219912
v 0.0240748636 0.47406286 -0.00192049448
v 0.0240748636 0.47406286 -0.00192049448
v 0.0924071074 0.447120309 -0.00609219773
v 0.0240748636 0.447120309 -0.00192049332
v 0.0924071074 0.47406286 -0.00609219912
v 0.0240748636 0.447120309 -0.00192049332
v 0.0915508419 0.429298162 -0.0201177672
v 0.0232186019 0.429298162 -0.0159460623
v 0.0924071074 0.447120309 -0.00609219773
v 0.0240748636 0.286722392 -0.00192048657
v 0.0862769261 0.204367936 -0.106504284
v 0.0179446898 0.204367936 -0.102332577
v 0.0924070999 0.286722392 -0.00609219121
v 0.0862769261 0.204367936 -0.106504284
v 0.0151756369 0.0458771214 -0.147689521
v 0.0179446898 0.204367936 -0.102332577
v 0.0835173354 0.0464185476 -0.151706278
v 0.0476219282 -0.052560173 -0.177946165
v 0.0475656614 0.26278466 -0.178867862
v 0.0835173354 0.0464185476 -0.151706278
v 0.0838129297 0.244112819 -0.146864519
v 0.0476219282 -0.052560173 -0.177946165
v 0.0232186019 0.429298162 -0.0159460623
v 0.0915508419 0.337949842 -0.0201177634
v 0.0232186001 0.337949842 -0.0159460586
v 0.0915508419 0.429298162 -0.0201177672
v 0.0532594621 0.560514331 -0.0856035948
v 0.0871859342 0.488802791 -0.0916148573
v 0.0882875025 0.546047986 -0.0735712349
v 0.0521578789 0.503269076 -0.103647508
v 0.0232186001 0.337949842 -0.0159460586
v 0.0924070999 0.320788413 -0.00609219261
v 0.0240748636 0.320788413 -0.00192048796
v 0.0915508419 0.337949842 -0.0201177634
v 0.0240748636 0.320788413 -0.00192048796
v 0.0924070999 0.286722392 -0.00609219121
v 0.0240748636 0.286722392 -0.00192048657
v 0.0924070999 0.320788413 -0.00609219261
v 0.0924071074 0.447120309 -0.00609219773
v 0.0893966779 0.451385498 -0.055402942
v 0.0915508419 0.429298162 -0.0201177672
v 0.0924071074 0.47406286 -0.00609219912
v 0.0915508419 0.337949842 -0.0201177634
v 0.0893425122 0.317994863 -0.0562900975
v 0.0924070999 0.286722392 -0.00609219121
v 0.0862769261 0.204367936 -0.106504284
v 0.0838129297 0.244112819 -0.146864519
v 0.0924070999 0.320788413 -0.00609219261
v 0.0882875025 0.546047986 -0.0735712349
v 0.0871859342 0.488802791 -0.0916148573
v 0.0835173354 0.0464185476 -0.151706278
v 0.0199552607 0.546047986 -0.0693995282
v 0.0210644361 0.451385498 -0.0512312353
v 0.0188536942 0.488802791 -0.0874431506
v 0.0240748636 0.47406286 -0.00192049448
v 0.0232186019 0.429298162 -0.0159460623
v 0.0232186001 0.337949842 -0.0159460586
v 0.0210102722 0.317994863 -0.0521183945
v 0.0240748636 0.286722392 -0.00192048657
v 0.0240748636 0.320788413 -0.00192048796
v 0.0179446898 0.204367936 -0.102332577
v 0.0154806916 0.244112819 -0.142692804
v 0.0151756369 0.0458771214 -0.147689521
v 0.0240748636 0.447120309 -0.00192049332
v 0.0188536942 0.488802791 -0.0874431506
v 0.0532594621 0.560514331 -0.0856035948
v 0.0199552607 0.546047986 -0.0693995282
v 0.0521578789 0.503269076 -0.103647508
v 0.0476219282 -0.052560173 -0.177946165
v 0.0154806916 0.244112819 -0.142692804
v 0.0151756369 0.0458771214 -0.147689521
v 0.0475656614 0.26278466 -0.178867862
v 0.027101744 0.248391241 0.0476597846
v 0.0628204495 0.278032571 0.0710051432
v 0.0635470152 0.261209309 0.0829063058
v 0.0652002022 0.377699494 0.109985515
v 0.027101744 0.248391241 0.0476597846
v 0.0300344639 0.382337064 0.0956976116
v 0.0628204495 0.278032571 0.0710051432
v 0.0276928265 0.526889324 0.0573416203
v 0.0652002022 0.377699494 0.109985515
v 0.0300344639 0.382337064 0.0956976116
v 0.0627507716 0.548354149 0.0698639005
v 0.0652002022 0.377699494 0.109985515
v 0.0954339877 0.248391241 0.0434880778
v 0.0628204495 0.278032571 0.0710051432
v 0.0983667001 0.382337064 0.0915259048
v 0.0960250646 0.526889324 0.0531699173
v 0.0627507716 0.548354149 0.0698639005
v 0.0276928265 0.526889324 0.0573416203
v 0.09413293 0.482856512 0.0221768152
v 0.0258006919 0.482856512 0.0263485201
v 0.0960250646 0.526889324 0.0531699173
v 0.0652002022 0.377699494 0.109985515
v 0.0627507716 0.548354149 0.0698639005
v 0.0983667001 0.382337064 0.0915259048
v 0.025801152 0.278032571 0.0263561122
v 0.0954339877 0.248391241 0.0434880778
v 0.094133392 0.278032571 0.0221844073
v 0.027101744 0.248391241 0.0476597846
v 0.0626114309 0.218904823 0.0675814301
v 0.0954339877 0.248391241 0.0434880778
v 0.0626114309 0.218904823 0.0675814301
v 0.0635470152 0.261209309 0.0829063058
v 0.0626114309 0.218904823 0.0675814301
v 0.0628204495 0.278032571 0.0710051432
v 0.0635470152 0.261209309 0.0829063058
v 0.026807921 0.339886069 0.0428469256
v 0.094133392 0.321098715 0.0221844055
v 0.0951401591 0.339886069 0.0386752225
v 0.025801152 0.321098715 0.0263561103
v 0.025801152 0.321098715 0.0263561103
v 0.094133392 0.278032571 0.0221844073
v 0.094133392 0.321098715 0.0221844055
v 0.025801152 0.278032571 0.0263561122
v 0.026807921 0.428640544 0.0428469218
v 0.0951401591 0.339886069 0.0386752225
v 0.0951401591 0.428640544 0.0386752188
v 0.026807921 0.339886069 0.0428469256
v 0.0258006919 0.482856512 0.0263485201
v 0.094133392 0.446456254 0.0221843999
v 0.09413293 0.482856512 0.0221768152
v 0.0258011557 0.446456254 0.0263561048
v 0.0258011557 0.446456254 0.0263561048
v 0.0951401591 0.428640544 0.0386752188
v 0.094133392 0.446456254 0.0221843999
v 0.026807921 0.428640544 0.0428469218
v 0.094133392 0.278032571 0.0221844073
v 0.0951401591 0.339886069 0.0386752225
v 0.094133392 0.321098715 0.0221844055
v 0.0954339877 0.248391241 0.0434880778
v 0.0951401591 0.428640544 0.0386752188
v 0.0983667001 0.382337064 0.0915259048
v 0.0960250646 0.526889324 0.0531699173
v 0.094133392 0.446456254 0.0221843999
v 0.09413293 0.482856512 0.0221768152
v 0.025801152 0.278032571 0.0263561122
v 0.026807921 0.339886069 0.0428469256
v 0.027101744 0.248391241 0.0476597846
v 0.025801152 0.321098715 0.0263561103
v 0.026807921 0.428640544 0.0428469218
v 0.0300344639 0.382337064 0.0956976116
v 0.0276928265 0.526889324 0.0573416203
v 0.0258011557 0.446456254 0.0263561048
v 0.0258006919 0.482856512 0.0263485201
v 0.027101744 0.248391241 0.0476597846
v 0.0635470152 0.261209309 0.0829063058
v 0.0626114309 0.218904823 0.0675814301
v 0.0954339877 0.248391241 0.0434880778
v 0.0635470152 0.261209309 0.0829063058
v 0.0628204495 0.278032571 0.0710051432
v 0.0422604755 0.247488618 0.0599870868
v 0.0351534411 0.242547005 0.0113705574
v 0.0363664478 0.289261162 0.0312396046
v 0.0365237668 0.168270558 0.031499397
v 0.0338768959 0.242547005 -0.00953922607
v 0.0322674997 0.214004546 -0.103697598
v 0.0338768959 0.290609568 -0.00953922886
v 0.0328894556 0.168270558 -0.0280305501
v 0.0365237668 0.168270558 0.031499397
v 0.0351534411 0.242547005 0.0113705574
v 0.0818874091 0.247488618 0.0575678498
v 0.0830276087 0.242547005 0.00844782311
v 0.0841160789 0.168270558 0.0285938736
v 0.0842406228 0.289261162 0.0283168703
v 0.0817510635 0.242547005 -0.0124619603
v 0.0718944371 0.214004546 -0.106116839
v 0.0804817677 0.168270558 -0.0309360754
v 0.0817510635 0.290609568 -0.0124619631
v 0.0841160789 0.168270558 0.0285938736
v 0.0830276087 0.242547005 0.00844782311
v 0.0422604755 0.247488618 0.0599870868
v 0.0841160789 0.168270558 0.0285938736
v 0.0365237668 0.168270558 0.031499397
v 0.0422604755 0.247488618 0.0599870868
v 0.0818874091 0.247488618 0.0575678498
v 0.0351534411 0.242547005 0.0113705574
v 0.0842406228 0.289261162 0.0283168703
v 0.0363664478 0.289261162 0.0312396046
v 0.0351534411 0.242547005 0.0113705574
v 0.0830276087 0.242547005 0.00844782311
v 0.0328894556 0.168270558 -0.0280305501
v 0.0718944371 0.214004546 -0.106116839
v 0.0322674997 0.214004546 -0.103697598
v 0.0804817677 0.168270558 -0.0309360754
v 0.0338768959 0.290609568 -0.00953922886
v 0.0817510635 0.242547005 -0.0124619603
v 0.0338768959 0.242547005 -0.00953922607
v 0.0817510635 0.290609568 -0.0124619631
v 0.0365237668 0.168270558 0.031499397
v 0.0804817677 0.168270558 -0.0309360754
v 0.0328894556 0.168270558 -0.0280305501
v 0.0365237668 0.168270558 0.031499397
v 0.0841160789 0.168270558 0.0285938736
v 0.0338768959 0.242547005 -0.00953922607
v 0.0830276087 0.242547005 0.00844782311
v 0.0351534411 0.242547005 0.0113705574
v 0.0817510635 0.242547005 -0.0124619603
v 0.0818086565 0.199295819 0.0362823047
v 0.0619619861 0.208199412 0.0569436289
v 0.0611902736 0.219253898 0.0443029776
v 0.0763023049 0.194317877 0.0513650216
v 0.0603676885 0.179337204 0.0308290739
v 0.0763023049 0.194317877 0.0513650216
v 0.0818086565 0.199295819 0.0362823047
v 0.0613898635 0.180436671 0.0475722887
v 0.0397493206 0.199295819 0.0388500392
v 0.0613898635 0.180436671 0.0475722887
v 0.0603676885 0.179337204 0.0308290739
v 0.0470495448 0.194317877 0.0531509109
v 0.0611902736 0.219253898 0.0443029776
v 0.0470495448 0.194317877 0.0531509109
v 0.0397493206 0.199295819 0.0388500392
v 0.0619619861 0.208199412 0.0569436289
v 0.0619619861 0.208199412 0.0569436289
v 0.0613898635 0.180436671 0.0475722887
v 0.0470495448 0.194317877 0.0531509109
v 0.0763023049 0.194317877 0.0513650216
v 0.0601019152 0.0175112411 0.0197736397
v 0.0367555469 0.173823982 -0.000333203876
v 0.0601019189 0.173823982 0.0197736323
v 0.0296908189 0.0175112411 9.81066842e-05
v 0.0117572388 -0.0263263807 0.00119295926
v 0.0601019152 0.0175112411 0.0197736397
v 0.0607353151 -0.0263446569 0.0368508361
v 0.0296908189 0.0175112411 9.81066842e-05
v 0.0436170213 -0.0920875967 0.0378959179
v 0.0385000631 -0.228310347 0.0210921727
v 0.0117572378 -0.115435213 0.0011929631
v 0.105011985 -0.115454152 -0.00450026849
v 0.0812146813 -0.228310347 0.0184847098
v 0.0786688998 -0.0920875967 0.0357559882
v 0.0574826151 0.0175112411 -0.0231304523
v 0.0367555469 0.173823982 -0.000333203876
v 0.0296908189 0.0175112411 9.81066842e-05
v 0.0574826188 0.173823982 -0.0231304597
v 0.0560339056 -0.0263446569 -0.0401581638
v 0.0389156118 -0.0920875967 -0.039113082
v 0.0739674866 -0.0920875967 -0.0412530117
v 0.0389156118 -0.0920875967 -0.039113082
v 0.0117572378 -0.115435213 0.0011929631
v 0.035880778 -0.228310347 -0.0218116418
v 0.105011985 -0.115454152 -0.00450026849
v 0.0739674866 -0.0920875967 -0.0412530117
v 0.0785953775 -0.228310347 -0.0244193804
v 0.0436170213 -0.0920875967 0.0378959179
v 0.0739674866 -0.0920875967 -0.0412530117
v 0.0389156118 -0.0920875967 -0.039113082
v 0.0786688998 -0.0920875967 0.0357559882
v 0.0117572378 -0.115435213 0.0011929631
v 0.0385000631 -0.228310347 0.0210921727
v 0.035880778 -0.228310347 -0.0218116418
v 0.0436170213 -0.0920875967 0.0378959179
v 0.035880778 -0.228310347 -0.0218116418
v 0.0385000631 -0.228310347 0.0210921727
v 0.0389156118 -0.0920875967 -0.039113082
v 0.0812146813 -0.228310347 0.0184847098
v 0.0739674866 -0.0920875967 -0.0412530117
v 0.0786688998 -0.0920875967 0.0357559882
v 0.0785953775 -0.228310347 -0.0244193804
v 0.0785953775 -0.228310347 -0.0244193804
v 0.0812146813 -0.228310347 0.0184847098
v 0.105011985 -0.115454152 -0.00450026849
v 0.105011985 -0.0263629295 -0.00450027222
v 0.0786688998 -0.0920875967 0.0357559882
v 0.0607353151 -0.0263446569 0.0368508361
v 0.0117572388 -0.0263263807 0.00119295926
v 0.0574826151 0.0175112411 -0.0231304523
v 0.0296908189 0.0175112411 9.81066842e-05
v 0.0560339056 -0.0263446569 -0.0401581638
v 0.0607353151 -0.0263446569 0.0368508361
v 0.0878936946 0.0175112411 -0.00345519697
v 0.105011985 -0.0263629295 -0.00450027222
v 0.0601019152 0.0175112411 0.0197736397
v 0.0878936946 0.0175112411 -0.00345519697
v 0.0601019189 0.173823982 0.0197736323
v 0.0808289647 0.173823982 -0.00302389986
v 0.0601019152 0.0175112411 0.0197736397
v 0.0808289647 0.173823982 -0.00302389986
v 0.0574826151 0.0175112411 -0.0231304523
v 0.0878936946 0.0175112411 -0.00345519697
v 0.0574826188 0.173823982 -0.0231304597
v 0.0560339056 -0.0263446569 -0.0401581638
v 0.0878936946 0.0175112411 -0.00345519697
v 0.0574826151 0.0175112411 -0.0231304523
v 0.105011985 -0.0263629295 -0.00450027222
v 0.0117572388 -0.0263263807 0.00119295926
v 0.0389156118 -0.0920875967 -0.039113082
v 0.0560339056 -0.0263446569 -0.0401581638
v 0.0786688998 -0.0920875967 0.0357559882
v 0.0436170213 -0.0920875967 0.0378959179
v 0.0607353151 -0.0263446569 0.0368508361
v 0.0436170213 -0.0920875967 0.0378959179
v 0.0117572388 -0.0263263807 0.00119295926
v 0.0607353151 -0.0263446569 0.0368508361
v 0.0739674866 -0.0920875967 -0.0412530117
v 0.105011985 -0.0263629295 -0.00450027222
v 0.0560339056 -0.0263446569 -0.0401581638
v 0.0117572388 -0.0263263807 0.00119295926
v 0.0117572378 -0.115435213 0.0011929631
v 0.0389156118 -0.0920875967 -0.039113082
v 0.0436170213 -0.0920875967 0.0378959179
v 0.0117572378 -0.115435213 0.0011929631
v 0.0117572388 -0.0263263807 0.00119295926
v 0.105011985 -0.0263629295 -0.00450027222
v 0.105011985 -0.115454152 -0.00450026849
v 0.0786688998 -0.0920875967 0.0357559882
v 0.0739674866 -0.0920875967 -0.0412530117
v 0.105011985 -0.115454152 -0.00450026849
v 0.105011985 -0.0263629295 -0.00450027222
v 0.0818266124 -0.0889230371 0.0187412519
v 0.0364833809 -0.13231647 0.0215094723
v 0.0412207171 -0.0862107128 0.0212202538
v 0.0818266124 -0.13231647 0.0187412538
v 0.0338283256 -0.13231647 -0.0219802558
v 0.0581659079 -0.15265736 -0.00164029934
v 0.0791715607 -0.13231647 -0.0247484744
v 0.0338283256 -0.13231647 -0.0219802558
v 0.0364833809 -0.13231647 0.0215094723
v 0.0581659079 -0.15265736 -0.00164029934
v 0.0581659079 -0.15265736 -0.00164029934
v 0.0818266124 -0.13231647 0.0187412538
v 0.0791715607 -0.13231647 -0.0247484744
v 0.0364833809 -0.13231647 0.0215094723
v 0.0818266124 -0.13231647 0.0187412538
v 0.0581659079 -0.15265736 -0.00164029934
v 0.0791715607 -0.0889230371 -0.0247484762
v 0.0338283256 -0.13231647 -0.0219802558
v 0.0791715607 -0.13231647 -0.0247484744
v 0.038565658 -0.0862109661 -0.0222694743
v 0.0429108515 0.299919844 0.0149463359
v 0.0436217226 0.353029817 0.0265903343
v 0.0446524508 0.299919844 0.0434736386
v 0.0429108515 0.339283854 0.0149463341
v 0.0436217226 0.401188344 0.0265903324
v 0.0446524508 0.45949924 0.0434736311
v 0.0429008976 0.416052073 0.0147832176
v 0.0429008976 0.45949924 0.0147832157
v 0.0757627934 0.299919844 0.0129407141
v 0.0764736608 0.353029817 0.0245847143
v 0.0757627934 0.339283854 0.0129407123
v 0.077504389 0.299919844 0.0414680168
v 0.077504389 0.45949924 0.0414680094
v 0.0764736608 0.401188344 0.0245847125
v 0.075752832 0.416052073 0.0127775958
v 0.075752832 0.45949924 0.0127775939
v 0.0429108515 0.339283854 0.0149463341
v 0.0764736608 0.353029817 0.0245847143
v 0.0436217226 0.353029817 0.0265903343
v 0.0757627934 0.339283854 0.0129407123
v 0.0429108515 0.299919844 0.0149463359
v 0.0757627934 0.339283854 0.0129407123
v 0.0429108515 0.339283854 0.0149463341
v 0.0757627934 0.299919844 0.0129407141
v 0.0446524508 0.299919844 0.0434736386
v 0.0757627934 0.299919844 0.0129407141
v 0.0429108515 0.299919844 0.0149463359
v 0.077504389 0.299919844 0.0414680168
v 0.0429008976 0.45949924 0.0147832157
v 0.077504389 0.45949924 0.0414680094
v 0.0446524508 0.45949924 0.0434736311
v 0.075752832 0.45949924 0.0127775939
v 0.0429008976 0.416052073 0.0147832176
v 0.075752832 0.45949924 0.0127775939
v 0.0429008976 0.45949924 0.0147832157
v 0.075752832 0.416052073 0.0127775958
v 0.0436217226 0.401188344 0.0265903324
v 0.075752832 0.416052073 0.0127775958
v 0.0429008976 0.416052073 0.0147832176
v 0.0764736608 0.401188344 0.0245847125
v 0.0436217226 0.353029817 0.0265903343
v 0.0764736608 0.401188344 0.0245847125
v 0.0436217226 0.401188344 0.0265903324
v 0.0764736608 0.353029817 0.0245847143
v 0.0752904713 0.299919844 0.00520416535
v 0.0745796114 0.353029817 -0.00643983344
v 0.0735488981 0.299919844 -0.0233228579
v 0.0752904713 0.339283854 0.00520416349
v 0.0745796114 0.401188344 -0.0064398353
v 0.0735488981 0.45949924 -0.0233228635
v 0.0753004327 0.416052073 0.005367273
v 0.0753004327 0.45949924 0.00536727114
v 0.0424385369 0.299919844 0.00720978715
v 0.0417276695 0.353029817 -0.00443421258
v 0.0424385369 0.339283854 0.00720978528
v 0.0406969562 0.299919844 -0.021317238
v 0.0406969562 0.45949924 -0.0213172436
v 0.0417276695 0.401188344 -0.00443421444
v 0.0424484946 0.416052073 0.00737289479
v 0.0424484983 0.45949924 0.00737289293
v 0.0752904713 0.339283854 0.00520416349
v 0.0417276695 0.353029817 -0.00443421258
v 0.0745796114 0.353029817 -0.00643983344
v 0.0424385369 0.339283854 0.00720978528
v 0.0752904713 0.299919844 0.00520416535
v 0.0424385369 0.339283854 0.00720978528
v 0.0752904713 0.339283854 0.00520416349
v 0.0424385369 0.299919844 0.00720978715
v 0.0735488981 0.299919844 -0.0233228579
v 0.0424385369 0.299919844 0.00720978715
v 0.0752904713 0.299919844 0.00520416535
v 0.0406969562 0.299919844 -0.021317238
v 0.0753004327 0.45949924 0.00536727114
v 0.0406969562 0.45949924 -0.0213172436
v 0.0735488981 0.45949924 -0.0233228635
v 0.0424484983 0.45949924 0.00737289293
v 0.0753004327 0.416052073 0.005367273
v 0.0424484983 0.45949924 0.00737289293
v 0.0753004327 0.45949924 0.00536727114
v 0.0424484946 0.416052073 0.00737289479
v 0.0745796114 0.401188344 -0.0064398353
v 0.0424484946 0.416052073 0.00737289479
v 0.0753004327 0.416052073 0.005367273
v 0.0417276695 0.401188344 -0.00443421444
v 0.0745796114 0.353029817 -0.00643983344
v 0.0417276695 0.401188344 -0.00443421444
v 0.0745796114 0.401188344 -0.0064398353
v 0.0417276695 0.353029817 -0.00443421258
v 0.0603508651 1.23926711 0.0210816842
v 0.0763313323 0.470162868 -0.0134648904
v 0.076338917 0.470163316 0.0229353681
v 0.058818087 1.87709582 -0.00402528793
vt 0.164770007 0.201664001
vt 0.287265003 0.141268
vt 0.208433002 0.141854003
vt 0.287265003 0.141268
vt 0.164770007 0.201664001
vt 0.208433002 0.141854003
vt 0.333198994 0.191057995
vt 0.287265003 0.141268
vt 0.287265003 0.141268
vt 0.164770007 0.201664001
vt 0.188270003 0.247849002
vt 0.164770007 0.201664001
vt 0.164770007 0.201664001
vt 0.333198994 0.191057995
vt 0.287265003 0.141268
vt 0.188270003 0.247849002
vt 0.164770007 0.201664001
vt 0.333198994 0.191057995
vt 0.188270003 0.247849002
vt 0.287265003 0.141268
vt 0.836369991 0.0040839999
vt 0.00708999997 0.00526800007
vt 0.807700992 0.0289530009
vt 0.199278995 0.0591330007
vt 0.0782319978 0.082243003
vt 0.00708999997 0.00526800007
vt 0.0782319978 0.082243003
vt 0.00708999997 0.00526800007
vt 0.00708999997 0.00526800007
vt 0.00708999997 0.00526800007
vt 0.00708999997 0.00526800007
vt 0.836369991 0.0040839999
vt 0.00708999997 0.00526800007
vt 0.0782319978 0.082243003
vt 0.199278995 0.0591330007
vt 0.807700992 0.0289530009
vt 0.199278995 0.0591330007
vt 0.00708999997 0.00526800007
vt 0.836369991 0.0040839999
vt 0.807700992 0.0289530009
vt 0.00708999997 0.00526800007
vt 0.00708999997 0.00526800007
vt 0.199278995 0.0591330007
vt 0.807700992 0.0289530009
vt 0.184808999 0.118980996
vt 0.0789429992 0.147367999
vt 0.00869700033 0.0976779982
vt 0.433777988 0.0815349966
vt 0.00869700033 0.0976779982
vt 0.184808999 0.118980996
vt 0.433777988 0.0815349966
vt 0.00869700033 0.0976779982
vt 0.00869700033 0.0976779982
vt 0.00869700033 0.0976779982
vt 0.00869700033 0.0976779982
vt 0.0789429992 0.147367999
vt 0.433777988 0.0815349966
vt 0.184808999 0.118980996
vt 0.00869700033 0.0976779982
vt 0.00869700033 0.0976779982
vt 0.0789429992 0.147367999
vt 0.184808999 0.118980996
vt 0.619323015 0.452490985
vt 0.58573103 0.436881006
vt 0.609274983 0.4921
vt 0.58573103 0.436881006
vt 0.67888999 0.355421007
vt 0.67888999 0.320333004
vt 0.619323015 0.452490985
vt 0.67888999 0.320333004
vt 0.847084999 0.354279995
vt 0.847084999 0.319191992
vt 0.67888999 0.355421007
vt 0.847084999 0.354279995
vt 0.894264996 0.365788013
vt 0.847084999 0.319191992
vt 0.881296992 0.389418006
vt 0.922303975 0.395309001
vt 0.966446996 0.342570007
vt 0.994485974 0.372090995
vt 0.966446996 0.31683901
vt 0.875679016 0.230009004
vt 0.875680029 0.255739987
vt 0.875680029 0.255739987
vt 0.841706991 0.230009004
vt 0.841706991 0.255739987
vt 0.875679016 0.230009004
vt 0.841706991 0.255739987
vt 0.819235027 0.248056993
vt 0.819235027 0.273788005
vt 0.841706991 0.230009004
vt 0.639458001 0.255739987
vt 0.535615981 0.359216005
vt 0.535615981 0.384947002
vt 0.639458001 0.230009004
vt 0.535615981 0.359216005
vt 0.335772008 0.443311006
vt 0.535615981 0.384947002
vt 0.336454004 0.417380005
vt 0.211649999 0.490913987
vt 0.609274983 0.4921
vt 0.336454004 0.443111986
vt 0.58573103 0.436881006
vt 0.211649999 0.490913987
vt 0.819235027 0.273788005
vt 0.704051971 0.248056993
vt 0.704051971 0.273788005
vt 0.819235027 0.248056993
vt 0.994485974 0.372090995
vt 0.894264996 0.365788013
vt 0.966446996 0.342570007
vt 0.922303975 0.395309001
vt 0.704051971 0.273788005
vt 0.682412982 0.230009004
vt 0.682412982 0.255739987
vt 0.704051971 0.248056993
vt 0.682412982 0.255739987
vt 0.639458001 0.230009004
vt 0.639458001 0.255739987
vt 0.682412982 0.230009004
vt 0.841706991 0.255739987
vt 0.847084999 0.319191992
vt 0.819235027 0.273788005
vt 0.875680029 0.255739987
vt 0.704051971 0.273788005
vt 0.67888999 0.320333004
vt 0.639458001 0.255739987
vt 0.535615981 0.384947002
vt 0.58573103 0.436881006
vt 0.682412982 0.255739987
vt 0.966446996 0.342570007
vt 0.894264996 0.365788013
vt 0.336454004 0.443111986
vt 0.966446996 0.342570007
vt 0.847084999 0.319191992
vt 0.894264996 0.365788013
vt 0.875680029 0.255739987
vt 0.819235027 0.273788005
vt 0.704051971 0.273788005
vt 0.67888999 0.320333004
vt 0.639458001 0.255739987
vt 0.682412982 0.255739987
vt 0.535615981 0.384947002
vt 0.58573103 0.436881006
vt 0.335772008 0.443311006
vt 0.841706991 0.255739987
vt 0.894264996 0.365788013
vt 0.994485974 0.372090995
vt 0.966446996 0.342570007
vt 0.922303975 0.395309001
vt 0.211649999 0.490913987
vt 0.58573103 0.436881006
vt 0.335772008 0.443311006
vt 0.609274983 0.4921
vt 0.605742991 0.156083003
vt 0.643118978 0.109072
vt 0.621905982 0.0937580019
vt 0.768790007 0.0589129999
vt 0.605742991 0.156083003
vt 0.774637997 0.0942699984
vt 0.643118978 0.109072
vt 0.956906974 0.143625006
vt 0.768790007 0.0589129999
vt 0.774637997 0.0942699984
vt 0.983972013 0.110541001
vt 0.768790007 0.0589129999
vt 0.605742991 0.156083003
vt 0.643118978 0.109072
vt 0.774637997 0.0942699984
vt 0.96765703 0.167952001
vt 0.983972013 0.110541001
vt 0.956906974 0.143625006
vt 0.901385009 0.207833007
vt 0.901385009 0.183505997
vt 0.956906974 0.143625006
vt 0.768790007 0.0589129999
vt 0.983972013 0.110541001
vt 0.774637997 0.0942699984
vt 0.643118978 0.183495998
vt 0.594992995 0.180409998
vt 0.643118978 0.207822993
vt 0.605742991 0.156083003
vt 0.568562984 0.113476999
vt 0.605742991 0.156083003
vt 0.568562984 0.113476999
vt 0.621905982 0.0937580019
vt 0.621905982 0.0937580019
vt 0.643118978 0.109072
vt 0.621905982 0.0937580019
vt 0.721111 0.162276998
vt 0.697421014 0.207822993
vt 0.721111 0.186602995
vt 0.697421014 0.183495998
vt 0.697421014 0.183495998
vt 0.643118978 0.207822993
vt 0.697421014 0.207822993
vt 0.643118978 0.183495998
vt 0.833023012 0.162276998
vt 0.721111 0.186602995
vt 0.833023012 0.186602995
vt 0.721111 0.162276998
vt 0.901385009 0.183505997
vt 0.855486989 0.207822993
vt 0.901385009 0.207833007
vt 0.855486989 0.183495998
vt 0.855486989 0.183495998
vt 0.833023012 0.186602995
vt 0.855486989 0.207822993
vt 0.833023012 0.162276998
vt 0.643118978 0.183495998
vt 0.721111 0.162276998
vt 0.697421014 0.183495998
vt 0.605742991 0.156083003
vt 0.833023012 0.162276998
vt 0.774637997 0.0942699984
vt 0.956906974 0.143625006
vt 0.855486989 0.183495998
vt 0.901385009 0.183505997
vt 0.643118978 0.183495998
vt 0.721111 0.162276998
vt 0.605742991 0.156083003
vt 0.697421014 0.183495998
vt 0.833023012 0.162276998
vt 0.774637997 0.0942699984
vt 0.956906974 0.143625006
vt 0.855486989 0.183495998
vt 0.901385009 0.183505997
vt 0.605742991 0.156083003
vt 0.621905982 0.0937580019
vt 0.568562984 0.113476999
vt 0.605742991 0.156083003
vt 0.621905982 0.0937580019
vt 0.643118978 0.109072
vt 0.464379013 0.104211003
vt 0.486319989 0.164910004
vt 0.527429998 0.116567999
vt 0.391873002 0.180291995
vt 0.498073995 0.189762995
vt 0.518921018 0.316484988
vt 0.551863015 0.164322004
vt 0.425338 0.251046985
vt 0.391873002 0.180291995
vt 0.486319989 0.164910004
vt 0.464379013 0.104211003
vt 0.486319989 0.164910004
vt 0.391873002 0.180291995
vt 0.527429998 0.116567999
vt 0.498073995 0.189762995
vt 0.518921018 0.316484988
vt 0.425338 0.251046985
vt 0.551863015 0.164322004
vt 0.391873002 0.180291995
vt 0.486319989 0.164910004
vt 0.464379013 0.104211003
vt 0.352979988 0.181345999
vt 0.391873002 0.180291995
vt 0.464379013 0.104211003
vt 0.43641299 0.0965240002
vt 0.486319989 0.164910004
vt 0.535328984 0.133267999
vt 0.527429998 0.116567999
vt 0.486319989 0.164910004
vt 0.504607975 0.161852002
vt 0.425338 0.251046985
vt 0.508548021 0.348113
vt 0.518921018 0.316484988
vt 0.393956989 0.267984986
vt 0.551863015 0.164322004
vt 0.509019017 0.171177998
vt 0.498073995 0.189762995
vt 0.545171976 0.154079005
vt 0.391873002 0.180291995
vt 0.393956989 0.267984986
vt 0.425338 0.251046985
vt 0.391873002 0.180291995
vt 0.352979988 0.181345999
vt 0.498073995 0.189762995
vt 0.504607975 0.161852002
vt 0.486319989 0.164910004
vt 0.509019017 0.171177998
vt 0.989768982 0.237267002
vt 0.951259971 0.253989011
vt 0.951259971 0.275775999
vt 0.967981994 0.237267002
vt 0.951259971 0.198758006
vt 0.967981994 0.237267002
vt 0.989768982 0.237267002
vt 0.951259971 0.220544994
vt 0.912751019 0.237267002
vt 0.951259971 0.220544994
vt 0.951259971 0.198758006
vt 0.934538007 0.237267002
vt 0.951259971 0.275775999
vt 0.934538007 0.237267002
vt 0.912751019 0.237267002
vt 0.951259971 0.253989011
vt 0.951259971 0.253989011
vt 0.951259971 0.220544994
vt 0.934538007 0.237267002
vt 0.967981994 0.237267002
vt 0.260760009 0.378621012
vt 0.420926988 0.346956998
vt 0.420926988 0.378621012
vt 0.260760009 0.346956998
vt 0.215840995 0.346956998
vt 0.260760009 0.378621012
vt 0.215821996 0.403791994
vt 0.260760009 0.346956998
vt 0.148458004 0.403791994
vt 0.00887699984 0.378621012
vt 0.124535002 0.346956998
vt 0.124514997 0.346956998
vt 0.00887699984 0.378621012
vt 0.148458004 0.403791994
vt 0.260760009 0.315292001
vt 0.420926988 0.346956998
vt 0.260760009 0.346956998
vt 0.420926988 0.315292001
vt 0.215821996 0.290122002
vt 0.148458004 0.256639987
vt 0.148458004 0.290122002
vt 0.148458004 0.290122002
vt 0.124535002 0.346956998
vt 0.00887699984 0.315292001
vt 0.124514997 0.346956998
vt 0.148458004 0.290122002
vt 0.00887699984 0.315292001
vt 0.121971004 0.283226997
vt 0.121971004 0.234115005
vt 0.121971004 0.234115005
vt 0.121971004 0.283226997
vt 0.124535002 0.346956998
vt 0.00887699984 0.378621012
vt 0.00887699984 0.315292001
vt 0.121971004 0.283226997
vt 0.0137250004 0.234115005
vt 0.0137250004 0.283226997
vt 0.121971004 0.234115005
vt 0.0137250004 0.283226997
vt 0.121971004 0.234115005
vt 0.121971004 0.283226997
vt 0.0137250004 0.234115005
vt 0.00887699984 0.315292001
vt 0.00887699984 0.378621012
vt 0.124514997 0.346956998
vt 0.215803996 0.346956998
vt 0.148458004 0.403791994
vt 0.215821996 0.403791994
vt 0.215840995 0.346956998
vt 0.260760009 0.315292001
vt 0.260760009 0.346956998
vt 0.215821996 0.290122002
vt 0.215821996 0.403791994
vt 0.260760009 0.346956998
vt 0.215803996 0.346956998
vt 0.260760009 0.378621012
vt 0.260760009 0.346956998
vt 0.420926988 0.378621012
vt 0.420926988 0.346956998
vt 0.260760009 0.378621012
vt 0.420926988 0.346956998
vt 0.260760009 0.315292001
vt 0.260760009 0.346956998
vt 0.420926988 0.315292001
vt 0.215821996 0.290122002
vt 0.260760009 0.346956998
vt 0.260760009 0.315292001
vt 0.215803996 0.346956998
vt 0.215840995 0.346956998
vt 0.148458004 0.290122002
vt 0.215821996 0.290122002
vt 0.148458004 0.403791994
vt 0.148458004 0.440387994
vt 0.215821996 0.403791994
vt 0.148458004 0.403791994
vt 0.215840995 0.346956998
vt 0.215821996 0.403791994
vt 0.148458004 0.290122002
vt 0.215803996 0.346956998
vt 0.215821996 0.290122002
vt 0.215840995 0.346956998
vt 0.124535002 0.346956998
vt 0.148458004 0.290122002
vt 0.148458004 0.403791994
vt 0.124535002 0.346956998
vt 0.215840995 0.346956998
vt 0.215803996 0.346956998
vt 0.124514997 0.346956998
vt 0.148458004 0.403791994
vt 0.148458004 0.290122002
vt 0.124514997 0.346956998
vt 0.215803996 0.346956998
vt 0.0239739995 0.479523003
vt 0.0452379994 0.43117699
vt 0.0239739995 0.43117699
vt 0.0452379994 0.47952199
vt 0.0937469974 0.43117699
vt 0.0694930032 0.455633014
vt 0.0937480032 0.479521006
vt 0.0937469974 0.43117699
vt 0.0452379994 0.43117699
vt 0.0694930032 0.455633014
vt 0.0694930032 0.455633014
vt 0.0452379994 0.47952199
vt 0.0937480032 0.479521006
vt 0.0452379994 0.43117699
vt 0.0452379994 0.47952199
vt 0.0694930032 0.455633014
vt 0.115011998 0.479521006
vt 0.0937469974 0.43117699
vt 0.0937480032 0.479521006
vt 0.115011998 0.43117699
vt 0.718665004 0.453891009
vt 0.78441602 0.43858099
vt 0.718665004 0.416382998
vt 0.767398 0.453891009
vt 0.844035983 0.43858099
vt 0.916226029 0.416382998
vt 0.86243701 0.45410499
vt 0.916226029 0.45410499
vt 0.718665004 0.453891009
vt 0.78441602 0.43858099
vt 0.767398 0.453891009
vt 0.718665004 0.416382998
vt 0.916226029 0.416382998
vt 0.844035983 0.43858099
vt 0.86243701 0.45410499
vt 0.916226029 0.45410499
vt 0.767398 0.453891009
vt 0.784415007 0.457471013
vt 0.78441602 0.43858099
vt 0.767398 0.475838989
vt 0.718665004 0.453891009
vt 0.767398 0.475838989
vt 0.767398 0.453891009
vt 0.698930025 0.475838989
vt 0.718665004 0.416382998
vt 0.698930025 0.475838989
vt 0.718665004 0.453891009
vt 0.698930025 0.416382998
vt 0.916226029 0.45410499
vt 0.935959995 0.416382998
vt 0.916226029 0.416382998
vt 0.935959995 0.476096004
vt 0.86243701 0.45410499
vt 0.935959995 0.476096004
vt 0.916226029 0.45410499
vt 0.86243701 0.476096004
vt 0.844035983 0.43858099
vt 0.86243701 0.476096004
vt 0.86243701 0.45410499
vt 0.844035983 0.457471013
vt 0.78441602 0.43858099
vt 0.844035983 0.457471013
vt 0.844035983 0.43858099
vt 0.784415007 0.457471013
vt 0.718665004 0.453891009
vt 0.78441602 0.43858099
vt 0.718665004 0.416382998
vt 0.767398 0.453891009
vt 0.844035983 0.43858099
vt 0.916226029 0.416382998
vt 0.86243701 0.45410499
vt 0.916226029 0.45410499
vt 0.718665004 0.453891009
vt 0.78441602 0.43858099
vt 0.767398 0.453891009
vt 0.718665004 0.416382998
vt 0.916226029 0.416382998
vt 0.844035983 0.43858099
vt 0.86243701 0.45410499
vt 0.916226029 0.45410499
vt 0.767398 0.453891009
vt 0.784415007 0.457471013
vt 0.78441602 0.43858099
vt 0.767398 0.475838989
vt 0.718665004 0.453891009
vt 0.767398 0.475838989
vt 0.767398 0.453891009
vt 0.698930025 0.475838989
vt 0.718665004 0.416382998
vt 0.698930025 0.475838989
vt 0.718665004 0.453891009
vt 0.698930025 0.416382998
vt 0.916226029 0.45410499
vt 0.935959995 0.416382998
vt 0.916226029 0.416382998
vt 0.935959995 0.476096004
vt 0.86243701 0.45410499
vt 0.935959995 0.476096004
vt 0.916226029 0.45410499
vt 0.86243701 0.476096004
vt 0.844035983 0.43858099
vt 0.86243701 0.476096004
vt 0.86243701 0.45410499
vt 0.844035983 0.457471013
vt 0.78441602 0.43858099
vt 0.844035983 0.457471013
vt 0.844035983 0.43858099
vt 0.784415007 0.457471013
vt 0.901385009 0.183505997
vt 0.855486989 0.207822993
vt 0.901385009 0.207833007
vt 0.855486989 0.183495998
vn -0.998141635 3.40197048e-08 0.0609366614
vn -0.998141635 3.40197048e-08 0.0609366614
vn -0.998141635 3.40197048e-08 0.0609366614
vn 0.998141634 -3.38824411e-08 -0.060936682
vn 0.998141634 -3.38824411e-08 -0.060936682
vn 0.998141634 -3.38824411e-08 -0.060936682
vn 0.0436989897 0.696950446 0.715786612
vn 0.0436989897 0.696950446 0.715786612
vn 0.0436989897 0.696950446 0.715786612
vn -0.0300752719 -0.869718458 -0.492630979
vn -0.0300752719 -0.869718458 -0.492630979
vn -0.0300752719 -0.869718458 -0.492630979
vn -0.984101965 0.0847692444 -0.156068888
vn -0.984101965 0.0847692444 -0.156068888
vn -0.98806119 0.0836932328 -0.12934654
vn -0.978961144 0.0858726579 -0.185097179
vn 0.957808183 0.0847692019 -0.274622772
vn 0.957808183 0.0847692019 -0.274622772
vn 0.949174348 0.0858726154 -0.30281009
vn 0.964988688 0.0836931905 -0.248580534
vn -0.999025635 0.0151758711 0.0414424024
vn -0.999025635 0.0151758711 0.0414424024
vn -0.999025635 0.0151758711 0.0414424024
vn 0.976739039 0.0261760423 -0.212827782
vn 0.976739039 0.0261760423 -0.212827782
vn 0.976739039 0.0261760423 -0.212827782
vn -0.0437366819 -0.6963137 -0.71640375
vn -0.0437366819 -0.6963137 -0.71640375
vn -0.0437366819 -0.6963137 -0.71640375
vn 0.0609368206 -0.00128040778 0.998140804
vn 0.0609368206 -0.00128040778 0.998140804
vn 0.0609368206 -0.00128040778 0.998140804
vn -0.995375067 0.0261760539 -0.0924299206
vn -0.995375067 0.0261760539 -0.0924299206
vn -0.995375067 0.0261760539 -0.0924299206
vn 0.961405532 0.00960128029 -0.274967669
vn 0.961405532 0.00960128029 -0.274967669
vn 0.961405532 0.00960128029 -0.274967669
vn 0.99664766 0.0151758479 -0.0803936305
vn 0.99664766 0.0151758479 -0.0803936305
vn 0.99664766 0.0151758479 -0.0803936305
vn -0.98771457 0.00960130698 -0.155973532
vn -0.98771457 0.00960130698 -0.155973532
vn -0.98771457 0.00960130698 -0.155973532
vn -0.96437834 0.0414294295 0.26126236
vn -0.96437834 0.0414294295 0.26126236
vn -0.96437834 0.0414294295 0.26126236
vn 0.971082883 0.0263442118 0.237284675
vn 0.971082883 0.0263442118 0.237284675
vn 0.971082883 0.0263442118 0.237284675
vn -0.0609368924 -4.40342112e-08 -0.998141621
vn -0.0609368924 -4.40342112e-08 -0.998141621
vn -0.0609368924 -4.40342112e-08 -0.998141621
vn 0.0502601463 -0.565439007 0.823257339
vn 0.0502601463 -0.565439007 0.823257339
vn 0.0502601463 -0.565439007 0.823257339
vn -0.935006175 0.0263442397 0.35365157
vn -0.935006175 0.0263442397 0.35365157
vn -0.935006175 0.0263442397 0.35365157
vn 0.988998069 0.0414294102 0.142008534
vn 0.988998069 0.0414294102 0.142008534
vn 0.988998069 0.0414294102 0.142008534
vn 0.0292318162 0.877429537 0.478814065
vn 0.0292318162 0.877429537 0.478814065
vn 0.0292318162 0.877429537 0.478814065
vn -0.0384744424 0.775472368 -0.630208159
vn -0.0384744424 0.775472368 -0.630208159
vn -0.038474392 0.775472349 -0.630208186
vn -0.0384744928 0.775472387 -0.630208132
vn -0.0609355084 0.00666305864 -0.998119466
vn -0.0609355084 0.00666305864 -0.998119466
vn -0.0609355346 0.00666307215 -0.998119464
vn -0.0609354821 0.00666304513 -0.998119467
vn -0.0437490115 -0.696105295 -0.7166055
vn -0.0437200169 -0.696595698 -0.71613057
vn -0.0437490109 -0.696105294 -0.716605501
vn -0.0436991183 -0.696948762 -0.715788244
vn -0.0435703163 -0.699117056 -0.713678478
vn 0.0443411074 0.685941774 0.726304171
vn 0.043570841 0.69910823 0.713687091
vn 0.0442762019 0.687070105 0.725240849
vn 0.0444191778 0.684580127 0.727582976
vn 0.0444191664 0.684580121 0.727582982
vn 0.0609368535 4.74412667e-08 0.998141623
vn 0.0609368535 4.74412667e-08 0.998141623
vn 0.0609368518 4.31284243e-08 0.998141623
vn 0.0609368552 5.17541092e-08 0.998141623
vn 0.0478523498 -0.619143814 0.783818277
vn 0.0478523498 -0.619143814 0.783818277
vn 0.0478523542 -0.619143804 0.783818284
vn 0.0478523454 -0.619143823 0.783818269
vn 0.038600489 -0.773783299 0.632273207
vn 0.038600489 -0.773783299 0.632273207
vn 0.0386004989 -0.773783296 0.63227321
vn 0.0386004791 -0.773783303 0.632273203
vn 0.0585767711 -0.275608658 0.959483522
vn 0.0585767642 -0.27560862 0.959483534
vn 0.0585768017 -0.27560867 0.959483517
vn 0.058576741 -0.275608588 0.959483544
vn 0.0585767419 -0.275608496 0.959483571
vn 0.624324539 0.00567737941 -0.78114444
vn 0.624324539 0.00567737941 -0.78114444
vn 0.666740029 0.0172512108 -0.745090686
vn 0.594168551 -0.002244917 -0.804337425
vn 0.0609368611 4.00841023e-08 0.998141623
vn 0.0609368611 4.00841023e-08 0.998141623
vn 0.0609368602 3.94628334e-08 0.998141623
vn 0.0609368619 4.07053712e-08 0.998141623
vn 0.409881516 0.267024345 -0.872178389
vn 0.409881516 0.267024345 -0.872178389
vn 0.409878313 0.267022991 -0.872180309
vn 0.409884719 0.2670257 -0.872176469
vn 0.0471483676 0.63352171 0.772287041
vn 0.0471483676 0.63352171 0.772287041
vn 0.0471483681 0.633521712 0.77228704
vn 0.047148367 0.633521709 0.772287043
vn 0.0609368618 4.0931922e-08 0.998141623
vn 0.0609368618 4.0931922e-08 0.998141623
vn 0.0609368618 4.0931922e-08 0.998141623
vn 0.0609368618 4.0931922e-08 0.998141623
vn 0.998141631 -4.51246585e-08 -0.0609367226
vn 0.998141631 -2.50820958e-08 -0.060936725
vn 0.998141634 -2.54978116e-08 -0.0609366785
vn 0.998141632 -1.65118197e-08 -0.0609367129
vn 0.998141632 -3.90667537e-08 -0.0609367085
vn 0.998141632 -3.99095231e-08 -0.0609367029
vn 0.998141634 -4.69436509e-08 -0.06093667
vn 0.998141634 -2.72871148e-08 -0.0609366739
vn 0.998141634 -2.55162007e-08 -0.0609366729
vn 0.998141655 -2.49888493e-09 -0.0609363288
vn 0.998141631 -2.24858529e-08 -0.0609367242
vn 0.99814163 -2.7073827e-08 -0.060936748
vn 0.998141634 -2.17359921e-08 -0.0609366692
vn -0.998141634 1.41521084e-08 0.0609366809
vn -0.998141632 1.24927925e-08 0.0609367035
vn -0.998141633 1.47823627e-08 0.0609366842
vn -0.998141634 1.89138265e-09 0.06093668
vn -0.998141632 3.15979102e-09 0.0609367116
vn -0.998141631 1.66967971e-08 0.0609367273
vn -0.998141632 -4.2188414e-09 0.0609367132
vn -0.998141631 -1.24321805e-08 0.0609367207
vn -0.998141631 2.49890122e-09 0.060936726
vn -0.998141632 -7.04895469e-10 0.0609367142
vn -0.998141632 7.90346388e-09 0.0609367127
vn -0.998141631 2.13501075e-08 0.0609367259
vn -0.998141639 2.6329924e-09 0.0609365946
vn -0.512935548 0.267024315 -0.815840143
vn -0.512935548 0.267024315 -0.815840143
vn -0.512932623 0.26702297 -0.815842422
vn -0.512938472 0.267025659 -0.815837864
vn -0.71372806 0.00590307291 -0.700398037
vn -0.71372806 0.00590307291 -0.700398037
vn -0.648428662 0.0201797528 -0.761007916
vn -0.747600836 -0.00207457098 -0.664145079
vn -0.707674222 0.387418133 0.590850561
vn -0.707674222 0.387418133 0.590850561
vn -0.707674222 0.387418133 0.590850561
vn -0.354022698 -0.31937313 0.879015775
vn -0.354022698 -0.31937313 0.879015775
vn -0.392750823 -0.302825063 0.868356938
vn -0.299113198 -0.341360872 0.891069049
vn -0.39306523 0.216520246 0.893654692
vn -0.39306523 0.216520246 0.893654692
vn -0.338878152 0.236160889 0.910708314
vn -0.435904604 0.200042448 0.877479456
vn 0.458323394 -0.319373062 0.829421795
vn 0.458323394 -0.319373062 0.829421795
vn 0.405287998 -0.341360787 0.848065122
vn 0.495467225 -0.302825014 0.814130972
vn -0.0499794834 0.572098291 -0.818660856
vn -0.0503474385 0.563342649 -0.824687938
vn -0.0499073585 0.57379163 -0.817479309
vn -0.0498000565 0.576296892 -0.815721673
vn -0.049800068 0.57629688 -0.81572168
vn 0.498856634 0.216520204 0.839202633
vn 0.498856634 0.216520204 0.839202633
vn 0.539410115 0.200042431 0.817936277
vn 0.447146594 0.236160821 0.86272127
vn -0.0494511178 -0.584333169 -0.810005762
vn -0.0492354253 -0.58921786 -0.806472682
vn -0.0494511088 -0.584333154 -0.810005774
vn -0.0491273406 -0.591642579 -0.804702158
vn -0.0488021608 -0.598846209 -0.799375736
vn 0.710052441 -0.253656994 0.656874158
vn 0.710052441 -0.253656994 0.656874158
vn 0.710052441 -0.253656994 0.656874158
vn -0.998141642 1.51986294e-08 0.0609365473
vn -0.998141642 1.51986294e-08 0.0609365473
vn -0.998141642 1.51986294e-08 0.0609365473
vn -0.0457598269 0.660372129 -0.749542987
vn -0.0457598269 0.660372129 -0.749542987
vn -0.0457598163 0.660372149 -0.74954297
vn -0.0457598375 0.66037211 -0.749543004
vn -0.0609368619 -4.31704227e-08 -0.998141623
vn -0.0609368619 -4.31704227e-08 -0.998141623
vn -0.0609368619 -4.31704227e-08 -0.998141623
vn -0.0609368619 -4.31704227e-08 -0.998141623
vn -0.0609368365 -4.18949837e-08 -0.998141624
vn -0.0609368365 -4.18949837e-08 -0.998141624
vn -0.0609368365 -4.18949837e-08 -0.998141624
vn -0.0609368365 -4.18949837e-08 -0.998141624
vn -0.0609368631 -0.000208756796 -0.998141601
vn -0.0609368631 -0.000208756796 -0.998141601
vn -0.0609368622 -0.000208755237 -0.998141601
vn -0.0609368639 -0.000208758355 -0.998141601
vn -0.0446811768 -0.679972753 -0.731874748
vn -0.0446811768 -0.679972753 -0.731874748
vn -0.0446811861 -0.679972775 -0.731874728
vn -0.0446811675 -0.679972731 -0.731874769
vn 0.998141627 1.8160934e-08 -0.0609367891
vn 0.998141622 1.51546149e-08 -0.0609368729
vn 0.998141632 -2.63556146e-09 -0.0609367114
vn 0.998141632 1.73072243e-08 -0.0609367088
vn 0.998141633 7.40471352e-11 -0.0609366926
vn 0.998141634 2.08715759e-09 -0.0609366696
vn 0.998141633 -2.08742042e-08 -0.0609366964
vn 0.998141632 -2.11618882e-08 -0.0609367099
vn 0.998141633 -3.04499193e-08 -0.0609366858
vn -0.998141629 2.36460541e-08 0.060936752
vn -0.998141635 2.05860855e-08 0.0609366669
vn -0.998141633 1.90836799e-08 0.0609366975
vn -0.998141625 2.63556661e-09 0.0609368306
vn -0.998141633 1.80270586e-08 0.0609366946
vn -0.998141631 1.70972652e-08 0.0609367171
vn -0.998141632 1.45639408e-08 0.0609367048
vn -0.998141634 1.0414072e-08 0.0609366815
vn -0.998141629 -2.06103136e-08 0.0609367618
vn -0.624872258 -0.253657106 0.738371678
vn -0.624872258 -0.253657106 0.738371678
vn -0.624872258 -0.253657106 0.738371678
vn 0.774293934 0.387417912 0.500376124
vn 0.774293934 0.387417912 0.500376124
vn 0.774293934 0.387417912 0.500376124
vn -0.989468484 -0.000975765845 0.144745181
vn -0.989468484 -0.000975765845 0.144745181
vn -0.988239679 -0.0374020285 0.148268084
vn -0.989572028 0.0203848947 0.142589119
vn -0.999501375 0.00305378783 0.0314273048
vn -0.999865692 0.00575059694 0.0153469503
vn -0.999853956 9.93470663e-10 0.017089942
vn -0.999437208 0.005029937 0.0331657578
vn -0.99813983 -0.00190092908 0.0609365723
vn -0.99813983 -0.00190092629 0.0609365773
vn 0.99972794 -0.000975733917 0.0233043664
vn 0.99972794 -0.000975733917 0.0233043664
vn 0.999568436 0.0203849816 0.021151716
vn 0.998936809 -0.0374020905 0.0269505959
vn 0.995901553 0.00305387378 -0.090392315
vn 0.994307039 0.00575066634 -0.106397567
vn 0.996049338 0.00503005813 -0.0886589748
vn 0.994507423 -6.08443659e-09 -0.104666069
vn 0.998139831 -0.00190081276 -0.0609365709
vn 0.99813983 -0.00190081632 -0.0609365774
vn 0.0572731794 -0.341509989 0.9381315
vn 0.0572732025 -0.341509977 0.938131502
vn 0.0572731794 -0.341509989 0.9381315
vn 0.0572732302 -0.341509964 0.938131505
vn 0.0572732302 -0.341509964 0.938131505
vn -0.0560593766 0.392016573 -0.918248524
vn -0.0560593809 0.392016577 -0.918248523
vn -0.0560593766 0.392016573 -0.918248524
vn -0.0560593851 0.392016581 -0.918248521
vn -0.0560593851 0.392016581 -0.918248521
vn -0.0315521192 -0.855511704 -0.516821234
vn -0.0315521192 -0.855511704 -0.516821234
vn -0.0315521489 -0.855511697 -0.516821245
vn -0.0315520945 -0.85551171 -0.516821226
vn 0.0609368861 5.80238608e-08 0.998141621
vn 0.0609368861 5.80238608e-08 0.998141621
vn 0.0609368861 5.80238608e-08 0.998141621
vn 0.0609368861 5.80238608e-08 0.998141621
vn 0 -1 0
vn 0 -1 0
vn 0 -1 0
vn 0 -1 0
vn 0 -1 0
vn 0 1 0
vn 0 1 0
vn 0 1 0
vn 0 1 0
vn 0.706936814 0.553224743 0.440661689
vn 0.706936814 0.553224743 0.440661689
vn 0.706933895 0.553233824 0.440654972
vn 0.706941011 0.553211687 0.440671347
vn 0.680438182 -0.732776018 0.00657175071
vn 0.680438182 -0.732776018 0.00657175071
vn 0.680441453 -0.732773023 0.0065670279
vn 0.680433479 -0.732780324 0.00657854118
vn -0.674585418 -0.732776036 0.0892961082
vn -0.674585418 -0.732776036 0.0892961082
vn -0.674586429 -0.732774356 0.0893022515
vn -0.674583963 -0.732778452 0.0892872753
vn -0.648081453 0.553224868 0.523385782
vn -0.648081453 0.553224868 0.523385782
vn -0.648074456 0.553224218 0.523395132
vn -0.648091512 0.553225802 0.523372338
vn 0.05772528 -0.320356399 0.945536657
vn 0.05772528 -0.320356399 0.945536657
vn 0.0577293366 -0.320356399 0.945536409
vn 0.0577212233 -0.320356399 0.945536905
vn -0.594797838 0.0145501776 0.803743631
vn -0.594797838 0.0145501776 0.803743631
vn -0.652579339 5.16688806e-08 0.757720401
vn -0.543011825 0.0268578737 0.839295426
vn -0.550181284 0.272133075 0.789458133
vn -0.550181284 0.272133075 0.789458133
vn -0.562693246 0.292890043 0.773040577
vn -0.527823786 0.236303264 0.815820335
vn -0.736250156 -0.0555379446 0.674426604
vn -0.736250156 -0.0555379446 0.674426604
vn -0.736250156 -0.0555379446 0.674426604
vn 0.819957028 -0.0568930631 0.569590776
vn 0.819957028 -0.0568930631 0.569590776
vn 0.819957028 -0.0568930631 0.569590776
vn -0.688148967 0.0145499964 -0.725423529
vn -0.688148967 0.0145499964 -0.725423529
vn -0.641072213 0.0268575747 -0.767010488
vn -0.739903016 -1.44310246e-08 -0.672713555
vn -0.0609369082 -5.63908478e-08 -0.99814162
vn -0.0609369082 -5.63908478e-08 -0.99814162
vn -0.0609369082 -5.63908478e-08 -0.99814162
vn -0.81282439 -0.0555380281 -0.579855187
vn -0.81282439 -0.0555380281 -0.579855187
vn -0.81282439 -0.0555380281 -0.579855187
vn 0.744578109 -0.0568945261 -0.665106347
vn 0.744578109 -0.0568945261 -0.665106347
vn 0.744578109 -0.0568945261 -0.665106347
vn -2.19220578e-17 -1 -3.5908155e-16
vn -2.19220578e-17 -1 -3.5908155e-16
vn -2.1922059e-17 -1 -3.5908155e-16
vn -2.19220566e-17 -1 -3.59081549e-16
vn -0.973641983 -0.220200035 0.0594410079
vn -0.973641983 -0.220200035 0.0594410079
vn -0.973641983 -0.220200035 0.0594410079
vn 0.997693474 -0.0299630713 -0.0609093306
vn 0.997693474 -0.0299630713 -0.0609093306
vn 0.997693473 -0.0299630604 -0.0609093554
vn 0.997693475 -0.0299630774 -0.0609093168
vn -0.997794516 -0.0263704499 0.0609155452
vn -0.997794516 -0.0263704499 0.0609155452
vn -0.997794516 -0.026370455 0.0609155337
vn -0.997794515 -0.0263704408 0.0609155658
vn 0.974236458 -0.217544869 -0.0594773415
vn 0.974236458 -0.217544869 -0.0594773415
vn 0.974236458 -0.217544869 -0.0594773415
vn 0.672480491 0.171451336 0.719982242
vn 0.672480491 0.171451336 0.719982242
vn 0.672480491 0.171451336 0.719982242
vn -0.642128663 0.272135226 -0.716668123
vn -0.642128663 0.272135226 -0.716668123
vn -0.623141728 0.236301287 -0.745557569
vn -0.652551708 0.29289441 -0.698848434
vn 0.644136718 0.261685434 0.718754911
vn 0.644136718 0.261685434 0.718754911
vn 0.662391013 0.241551883 0.709147963
vn 0.612889542 0.294387022 0.733282136
vn 0.688153645 0.0145501617 0.725419088
vn 0.688153645 0.0145501617 0.725419088
vn 0.739538705 0.0315690743 0.672373332
vn 0.641308293 2.12883896e-08 0.767283307
vn 0.594792793 0.0145499853 -0.803747368
vn 0.594792793 0.0145499853 -0.803747368
vn 0.543006636 0.0268575827 -0.839298792
vn 0.652574608 -5.16689621e-08 -0.757724475
vn 0.551916498 0.261687718 -0.791775042
vn 0.551916498 0.261687718 -0.791775042
vn 0.519130265 0.294392988 -0.802394253
vn 0.571206071 0.24155192 -0.784459237
vn -0.673288905 0.163851173 -0.72099573
vn -0.673288905 0.163851173 -0.72099573
vn -0.673288905 0.163851173 -0.72099573
vn 0.0609369018 5.80771701e-08 0.99814162
vn 0.0609369018 5.80771701e-08 0.99814162
vn 0.0609369018 5.80771701e-08 0.99814162
vn -0.580581481 0.163851268 0.797544924
vn -0.580581481 0.163851268 0.797544924
vn -0.580581481 0.163851268 0.797544924
vn 0.579902672 0.171451303 -0.796440419
vn 0.579902672 0.171451303 -0.796440419
vn 0.579902672 0.171451303 -0.796440419
vn -0.829308334 -1.54233644e-08 -0.558791273
vn -0.829308334 -1.54233644e-08 -0.558791273
vn -0.829308334 -1.54233644e-08 -0.558791273
vn -0.755174039 3.61540165e-08 0.655524348
vn -0.755174039 3.61540165e-08 0.655524348
vn -0.755174039 3.61540165e-08 0.655524348
vn 0.836763094 2.28960702e-08 0.547565086
vn 0.836763094 2.28960702e-08 0.547565086
vn 0.836763094 2.28960702e-08 0.547565086
vn 0.763939239 -2.69822966e-08 -0.645288183
vn 0.763939239 -2.69822966e-08 -0.645288183
vn 0.763939239 -2.69822966e-08 -0.645288183
vn 0.0609368521 5.05882036e-08 0.998141623
vn 0.0609368521 5.05882036e-08 0.998141623
vn 0.0609368444 5.86708344e-08 0.998141624
vn 0.0609368595 4.28448157e-08 0.998141623
vn -0.0415870951 -0.730920961 -0.681193851
vn -0.0415870951 -0.730920961 -0.681193851
vn -0.0415870951 -0.730920961 -0.681193851
vn -0.660393782 -0.749836369 0.0403171539
vn -0.660393782 -0.749836369 0.0403171539
vn -0.660393782 -0.749836369 0.0403171539
vn 0.671426462 -0.739936668 -0.0409906434
vn 0.671426462 -0.739936668 -0.0409906434
vn 0.671426462 -0.739936668 -0.0409906434
vn 0.0415868205 -0.730925221 0.681189297
vn 0.0415868205 -0.730925221 0.681189297
vn 0.0415868205 -0.730925221 0.681189297
vn -0.0609368443 -5.35392593e-08 -0.998141624
vn -0.0609368443 -5.35392593e-08 -0.998141624
vn -0.0609368545 -4.28448157e-08 -0.998141623
vn -0.0609368337 -6.47023005e-08 -0.998141624
vn -0.998141624 2.84656386e-08 0.0609368426
vn -0.998141626 2.08473793e-08 0.0609368014
vn -0.99814163 1.28295832e-08 0.0609367349
vn -0.998141617 2.88344429e-09 0.0609369588
vn -0.998141633 7.05784799e-09 0.0609366889
vn -0.998141634 6.70560178e-09 0.0609366808
vn -0.998141635 1.14637911e-08 0.0609366519
vn -0.998141635 2.61244615e-09 0.0609366653
vn 0.998141635 4.98676825e-09 -0.0609366667
vn 0.998141633 4.73507646e-11 -0.0609366946
vn 0.998141637 -2.88342878e-09 -0.060936631
vn 0.998141633 8.30887331e-10 -0.060936698
vn 0.998141629 4.3702621e-09 -0.0609367532
vn 0.998141627 2.04294281e-08 -0.060936791
vn 0.998141625 1.57654895e-08 -0.0609368221
vn 0.998141627 -2.61245169e-09 -0.0609367944
vn -0.0464608367 0.647056085 -0.761025502
vn -0.0464608367 0.647056085 -0.761025502
vn -0.0464608192 0.647056058 -0.761025525
vn -0.0464608542 0.647056111 -0.761025478
vn -0.0609368723 -4.72305448e-08 -0.998141622
vn -0.0609368723 -4.72305448e-08 -0.998141622
vn -0.0609368723 -4.72305448e-08 -0.998141622
vn -0.0609368723 -4.72305448e-08 -0.998141622
vn 0 -1 0
vn 0 -1 0
vn 0 -1 0
vn 0 -1 0
vn 0 1 0
vn 0 1 0
vn 0 1 0
vn 0 1 0
vn -0.0609368861 -4.2791827e-08 -0.998141621
vn -0.0609368861 -4.2791827e-08 -0.998141621
vn -0.0609368861 -4.2791827e-08 -0.998141621
vn -0.0609368861 -4.2791827e-08 -0.998141621
vn -0.0476803724 -0.622706596 -0.78100133
vn -0.0476803724 -0.622706596 -0.78100133
vn -0.0476803988 -0.622706563 -0.781001355
vn -0.0476803461 -0.62270663 -0.781001304
vn -0.0609368228 -3.86054928e-08 -0.998141625
vn -0.0609368228 -3.86054928e-08 -0.998141625
vn -0.0609368228 -3.86054928e-08 -0.998141625
vn -0.0609368228 -3.86054928e-08 -0.998141625
vn 0.998141652 -8.14162337e-08 -0.060936385
vn 0.998141644 -5.83476998e-08 -0.0609365106
vn 0.998141631 -3.32540433e-08 -0.0609367187
vn 0.998141674 -2.88340025e-09 -0.0609360282
vn 0.99814163 2.00715108e-08 -0.0609367398
vn 0.998141633 1.80141822e-08 -0.060936695
vn 0.998141642 4.28467663e-08 -0.0609365452
vn 0.998141638 -2.61244395e-09 -0.0609366138
vn -0.998141631 1.79441926e-08 0.060936728
vn -0.998141628 7.85974146e-09 0.0609367823
vn -0.998141635 2.88343013e-09 0.0609366596
vn -0.998141627 9.4645592e-09 0.0609367896
vn -0.998141626 1.46095374e-08 0.060936803
vn -0.99814163 -1.85513586e-08 0.060936742
vn -0.998141627 3.45433985e-08 0.0609367872
vn -0.998141622 8.81961093e-08 0.0609368681
vn 0.0464608568 0.647055954 0.761025612
vn 0.0464608568 0.647055954 0.761025612
vn 0.046460842 0.647055931 0.761025631
vn 0.0464608717 0.647055976 0.761025592
vn 0.0609368861 4.72305447e-08 0.998141621
vn 0.0609368861 4.72305447e-08 0.998141621
vn 0.0609368861 4.72305447e-08 0.998141621
vn 0.0609368861 4.72305447e-08 0.998141621
vn 0 -1 0
vn 0 -1 0
vn 0 -1 0
vn 0 -1 0
vn 0 1 0
vn 0 1 0
vn 0 1 0
vn 0 1 0
vn 0.0609368826 4.01793715e-08 0.998141621
vn 0.0609368826 4.01793715e-08 0.998141621
vn 0.0609368861 4.2791827e-08 0.998141621
vn 0.0609368792 3.75669163e-08 0.998141622
vn 0.0476803893 -0.622706364 0.781001514
vn 0.0476803893 -0.622706364 0.781001514
vn 0.047680404 -0.622706346 0.781001527
vn 0.0476803747 -0.622706383 0.7810015
vn 0.0609368441 3.86054927e-08 0.998141624
vn 0.0609368441 3.86054927e-08 0.998141624
vn 0.0609368441 3.86054927e-08 0.998141624
vn 0.0609368441 3.86054927e-08 0.998141624
vn 0.991557981 0.0148165239 0.128814751
vn 0.991557981 0.0148165239 0.128814751
vn 0.99978399 0.0207829057 -0.00020857938
vn 0.976992562 0.0107323133 0.213003171

g gun27_submesh_0
usemtl Cutter-15_-_Default
f 1/1/1 3/3/3 2/2/2
f 4/4/4 6/6/6 5/5/5
f 7/7/7 9/9/9 8/8/8
f 10/10/10 12/12/12 11/11/11
f 13/13/13 15/15/15 14/14/14
f 13/13/13 14/14/14 16/16/16
f 17/17/17 19/19/19 18/18/18
f 17/17/17 18/18/18 20/20/20
f 21/21/21 23/23/23 22/22/22
f 24/24/24 26/26/26 25/25/25
f 27/27/27 29/29/29 28/28/28
f 30/30/30 32/32/32 31/31/31
f 33/33/33 35/35/35 34/34/34
f 36/36/36 38/38/38 37/37/37
f 39/39/39 41/41/41 40/40/40
f 42/42/42 44/44/44 43/43/43
f 45/45/45 47/47/47 46/46/46
f 48/48/48 50/50/50 49/49/49
f 51/51/51 53/53/53 52/52/52
f 54/54/54 56/56/56 55/55/55
f 57/57/57 59/59/59 58/58/58
f 60/60/60 62/62/62 61/61/61
f 63/63/63 65/65/65 64/64/64
f 66/66/66 68/68/68 67/67/67
f 66/66/66 67/67/67 69/69/69
f 70/70/70 72/72/72 71/71/71
f 70/70/70 71/71/71 73/73/73
f 74/74/74 76/76/76 75/75/75
f 74/74/74 75/75/75 77/77/77
f 78/78/78 77/77/77 75/75/75
f 79/79/79 81/81/81 80/80/80
f 79/79/79 82/82/82 81/81/81
f 79/79/79 83/83/83 82/82/82
f 84/84/84 86/86/86 85/85/85
f 84/84/84 85/85/85 87/87/87
f 88/88/88 90/90/90 89/89/89
f 88/88/88 89/89/89 91/91/91
f 92/92/92 94/94/94 93/93/93
f 92/92/92 93/93/93 95/95/95
f 96/96/96 98/98/98 97/97/97
f 96/96/96 97/97/97 99/99/99
f 100/100/100 99/99/99 97/97/97
f 101/101/101 103/103/103 102/102/102
f 101/101/101 102/102/102 104/104/104
f 105/105/105 107/107/107 106/106/106
f 105/105/105 106/106/106 108/108/108
f 109/109/109 111/111/111 110/110/110
f 109/109/109 110/110/110 112/112/112
f 113/113/113 115/115/115 114/114/114
f 113/113/113 114/114/114 116/116/116
f 117/117/117 119/119/119 118/118/118
f 117/117/117 118/118/118 120/120/120
f 121/121/121 123/123/123 122/122/122
f 121/121/121 122/122/122 124/124/124
f 122/122/122 123/123/123 125/125/125
f 122/122/122 125/125/125 126/126/126
f 125/125/125 127/127/127 126/126/126
f 128/128/128 126/126/126 127/127/127
f 128/128/128 129/129/129 126/126/126
f 125/125/125 130/130/130 127/127/127
f 122/122/122 131/131/131 124/124/124
f 122/122/122 132/132/132 131/131/131
f 133/133/133 129/129/129 128/128/128
f 134/134/134 136/136/136 135/135/135
f 134/134/134 135/135/135 137/137/137
f 137/137/137 135/135/135 138/138/138
f 139/139/139 138/138/138 135/135/135
f 139/139/139 135/135/135 140/140/140
f 141/141/141 139/139/139 140/140/140
f 141/141/141 142/142/142 139/139/139
f 143/143/143 141/141/141 140/140/140
f 143/143/143 140/140/140 144/144/144
f 143/143/143 144/144/144 145/145/145
f 137/137/137 138/138/138 146/146/146
f 147/147/147 149/149/149 148/148/148
f 147/147/147 148/148/148 150/150/150
f 151/151/151 153/153/153 152/152/152
f 151/151/151 152/152/152 154/154/154
f 155/155/155 157/157/157 156/156/156
f 158/158/158 160/160/160 159/159/159
f 158/158/158 159/159/159 161/161/161
f 162/162/162 164/164/164 163/163/163
f 162/162/162 163/163/163 165/165/165
f 166/166/166 168/168/168 167/167/167
f 166/166/166 167/167/167 169/169/169
f 170/170/170 172/172/172 171/171/171
f 172/172/172 170/170/170 173/173/173
f 172/172/172 173/173/173 174/174/174
f 175/175/175 177/177/177 176/176/176
f 175/175/175 176/176/176 178/178/178
f 179/179/179 181/181/181 180/180/180
f 179/179/179 180/180/180 182/182/182
f 183/183/183 182/182/182 180/180/180
f 184/184/184 186/186/186 185/185/185
f 187/187/187 189/189/189 188/188/188
f 190/190/190 192/192/192 191/191/191
f 190/190/190 191/191/191 193/193/193
f 194/194/194 196/196/196 195/195/195
f 194/194/194 195/195/195 197/197/197
f 198/198/198 200/200/200 199/199/199
f 198/198/198 199/199/199 201/201/201
f 202/202/202 204/204/204 203/203/203
f 202/202/202 203/203/203 205/205/205
f 206/206/206 208/208/208 207/207/207
f 206/206/206 207/207/207 209/209/209
f 210/210/210 212/212/212 211/211/211
f 210/210/210 211/211/211 213/213/213
f 213/213/213 211/211/211 214/214/214
f 213/213/213 214/214/214 215/215/215
f 214/214/214 216/216/216 215/215/215
f 217/217/217 216/216/216 214/214/214
f 216/216/216 217/217/217 218/218/218
f 219/219/219 221/221/221 220/220/220
f 219/219/219 220/220/220 222/222/222
f 221/221/221 223/223/223 220/220/220
f 221/221/221 224/224/224 223/223/223
f 225/225/225 223/223/223 224/224/224
f 225/225/225 226/226/226 223/223/223
f 226/226/226 225/225/225 227/227/227
f 228/228/228 230/230/230 229/229/229
f 231/231/231 233/233/233 232/232/232
f 234/234/234 236/236/236 235/235/235
f 234/234/234 235/235/235 237/237/237
f 238/238/238 240/240/240 239/239/239
f 238/238/238 239/239/239 241/241/241
f 242/242/242 238/238/238 241/241/241
f 242/242/242 243/243/243 238/238/238
f 244/244/244 246/246/246 245/245/245
f 244/244/244 245/245/245 247/247/247
f 248/248/248 250/250/250 249/249/249
f 248/248/248 249/249/249 251/251/251
f 252/252/252 250/250/250 248/248/248
f 252/252/252 248/248/248 253/253/253
f 254/254/254 256/256/256 255/255/255
f 257/257/257 255/255/255 258/258/258
f 259/259/259 261/261/261 260/260/260
f 262/262/262 260/260/260 263/263/263
f 264/264/264 266/266/266 265/265/265
f 264/264/264 265/265/265 267/267/267
f 268/268/268 270/270/270 269/269/269
f 268/268/268 269/269/269 271/271/271
f 272/272/272 274/274/274 273/273/273
f 275/275/275 273/273/273 276/276/276
f 277/277/277 279/279/279 278/278/278
f 277/277/277 278/278/278 280/280/280
f 281/281/281 283/283/283 282/282/282
f 281/281/281 282/282/282 284/284/284
f 285/285/285 287/287/287 286/286/286
f 285/285/285 286/286/286 288/288/288
f 289/289/289 291/291/291 290/290/290
f 289/289/289 290/290/290 292/292/292
f 293/293/293 295/295/295 294/294/294
f 293/293/293 294/294/294 296/296/296
f 297/297/297 299/299/299 298/298/298
f 297/297/297 298/298/298 300/300/300
f 301/301/301 303/303/303 302/302/302
f 301/301/301 302/302/302 304/304/304
f 305/305/305 307/307/307 306/306/306
f 305/305/305 306/306/306 308/308/308
f 309/309/309 311/311/311 310/310/310
f 312/312/312 314/314/314 313/313/313
f 315/315/315 317/317/317 316/316/316
f 315/315/315 316/316/316 318/318/318
f 319/319/319 321/321/321 320/320/320
f 322/322/322 324/324/324 323/323/323
f 325/325/325 327/327/327 326/326/326
f 328/328/328 330/330/330 329/329/329
f 328/328/328 329/329/329 331/331/331
f 332/332/332 334/334/334 333/333/333
f 335/335/335 337/337/337 336/336/336
f 335/335/335 336/336/336 338/338/338
f 339/339/339 341/341/341 340/340/340
f 339/339/339 340/340/340 342/342/342
f 343/343/343 345/345/345 344/344/344
f 346/346/346 348/348/348 347/347/347
f 349/349/349 351/351/351 350/350/350
f 349/349/349 350/350/350 352/352/352
f 353/353/353 355/355/355 354/354/354
f 353/353/353 354/354/354 356/356/356
f 357/357/357 359/359/359 358/358/358
f 357/357/357 358/358/358 360/360/360
f 361/361/361 363/363/363 362/362/362
f 361/361/361 362/362/362 364/364/364
f 365/365/365 367/367/367 366/366/366
f 365/365/365 366/366/366 368/368/368
f 369/369/369 371/371/371 370/370/370
f 372/372/372 374/374/374 373/373/373
f 375/375/375 377/377/377 376/376/376
f 378/378/378 380/380/380 379/379/379
f 381/381/381 383/383/383 382/382/382
f 384/384/384 386/386/386 385/385/385
f 387/387/387 389/389/389 388/388/388
f 390/390/390 392/392/392 391/391/391
f 393/393/393 395/395/395 394/394/394
f 393/393/393 394/394/394 396/396/396
f 397/397/397 399/399/399 398/398/398
f 400/400/400 402/402/402 401/401/401
f 403/403/403 405/405/405 404/404/404
f 406/406/406 408/408/408 407/407/407
f 409/409/409 411/411/411 410/410/410
f 409/409/409 410/410/410 412/412/412
f 413/413/413 415/415/415 414/414/414
f 413/413/413 414/414/414 416/416/416
f 417/417/417 414/414/414 415/415/415
f 417/417/417 415/415/415 418/418/418
f 419/419/419 417/417/417 418/418/418
f 419/419/419 418/418/418 420/420/420
f 421/421/421 423/423/423 422/422/422
f 421/421/421 422/422/422 424/424/424
f 422/422/422 425/425/425 424/424/424
f 422/422/422 426/426/426 425/425/425
f 427/427/427 425/425/425 426/426/426
f 427/427/427 428/428/428 425/425/425
f 429/429/429 431/431/431 430/430/430
f 429/429/429 430/430/430 432/432/432
f 433/433/433 435/435/435 434/434/434
f 433/433/433 434/434/434 436/436/436
f 437/437/437 439/439/439 438/438/438
f 437/437/437 438/438/438 440/440/440
f 441/441/441 443/443/443 442/442/442
f 441/441/441 442/442/442 444/444/444
f 445/445/445 447/447/447 446/446/446
f 445/445/445 446/446/446 448/448/448
f 449/449/449 451/451/451 450/450/450
f 449/449/449 450/450/450 452/452/452
f 453/453/453 455/455/455 454/454/454
f 453/453/453 454/454/454 456/456/456
f 457/457/457 459/459/459 458/458/458
f 457/457/457 458/458/458 460/460/460
f 461/461/461 458/458/458 459/459/459
f 461/461/461 459/459/459 462/462/462
f 463/463/463 461/461/461 462/462/462
f 463/463/463 462/462/462 464/464/464
f 465/465/465 467/467/467 466/466/466
f 465/465/465 466/466/466 468/468/468
f 466/466/466 469/469/469 468/468/468
f 466/466/466 470/470/470 469/469/469
f 471/471/471 469/469/469 470/470/470
f 471/471/471 472/472/472 469/469/469
f 473/473/473 475/475/475 474/474/474
f 473/473/473 474/474/474 476/476/476
f 477/477/477 479/479/479 478/478/478
f 477/477/477 478/478/478 480/480/480
f 481/481/481 483/483/483 482/482/482
f 481/481/481 482/482/482 484/484/484
f 485/485/485 487/487/487 486/486/486
f 485/485/485 486/486/486 488/488/488
f 489/489/489 491/491/491 490/490/490
f 489/489/489 490/490/490 492/492/492
f 493/493/493 495/495/495 494/494/494
f 493/493/493 494/494/494 496/496/496
f 497/497/497 499/499/499 498/498/498
f 497/497/497 498/498/498 500/500/500
f 501/501/501 503/503/503 502/502/502
f 501/501/501 502/502/502 504/504/504
