# Generated from legacy Unity YAML Mesh assets without Unity.
mtllib gun25.mtl

o polySurface236
v -0.0777949393 -0.322159136 -0.716722583
v -0.107979938 -0.0921286607 -0.716722583
v -0.0803970993 -0.281045112 -0.52078028
v -0.0897648633 -0.0921286607 -0.373498425
v -0.0684271753 -0.0713113702 -0.381825311
v -0.0853412002 -0.0713113702 -0.707875229
v -0.0561970323 -0.343496939 -0.506988901
v -0.0486508012 -0.343496939 -0.372717723
v -0.0572379082 -0.347660472 -0.69148169
v -0.0533346683 -0.347660472 -0.58999765
v -0.0853412002 -0.0713113702 -0.707875229
v 0.147031277 -0.0713113702 -0.381825311
v -0.0684271753 -0.0713113702 -0.381825311
v 0.163945287 -0.0713113702 -0.707875229
v -0.0486508012 -0.343496939 -0.372717723
v 0.134801149 -0.343496939 -0.506988901
v -0.0561970323 -0.343496939 -0.506988901
v 0.127254903 -0.343496939 -0.372717723
v -0.0803970993 -0.281045112 -0.52078028
v 0.159001201 -0.281045112 -0.52078028
v 0.131938785 -0.347660472 -0.58999765
v -0.0533346683 -0.347660472 -0.58999765
v 0.13584201 -0.347660472 -0.69148169
v -0.0572379082 -0.347660472 -0.69148169
v 0.156399041 -0.322159136 -0.716722583
v -0.107979938 -0.0921286607 -0.716722583
v -0.0777949393 -0.322159136 -0.716722583
v 0.186584041 -0.0921286607 -0.716722583
v -0.0853412002 -0.0713113702 -0.707875229
v 0.163945287 -0.0713113702 -0.707875229
v -0.0572379082 -0.347660472 -0.69148169
v 0.13584201 -0.347660472 -0.69148169
v 0.186584041 -0.0921286607 -0.716722583
v 0.147031277 -0.0713113702 -0.381825311
v 0.163945287 -0.0713113702 -0.707875229
v 0.16836895 -0.0921286607 -0.373498425
v 0.159001201 -0.281045112 -0.52078028
v 0.134801149 -0.343496939 -0.506988901
v 0.127254903 -0.343496939 -0.372717723
v 0.156399041 -0.322159136 -0.716722583
v 0.13584201 -0.347660472 -0.69148169
v 0.131938785 -0.347660472 -0.58999765
v 0.16836895 -0.0921286607 -0.373498425
v -0.0684271753 -0.0713113702 -0.381825311
v 0.147031277 -0.0713113702 -0.381825311
v -0.0897648633 -0.0921286607 -0.373498425
v -0.0486508012 -0.343496939 -0.372717723
v 0.127254903 -0.343496939 -0.372717723
v 0.125693604 -0.331526899 -0.274876718
v 0.137923732 -0.16629028 -0.0940269044
v 0.137923732 -0.101236159 -0.158040015
v 0.125693604 -0.309668896 -0.0940269044
v 0.125693604 -0.331006401 -0.382605893
v 0.137923732 -0.101236159 -0.382605893
v 0.109560244 -0.383569939 -0.258743354
v -0.0450077653 -0.331526899 -0.274876718
v -0.0572379082 -0.16629028 -0.0940269044
v -0.0450077653 -0.309668896 -0.0940269044
v -0.0572379082 -0.101236159 -0.158040015
v -0.0450077653 -0.331006401 -0.382605893
v -0.0572379082 -0.101236159 -0.382605893
v -0.0288743973 -0.383569939 -0.258743354
v -0.0572379082 -0.101236159 -0.158040015
v 0.137923732 -0.16629028 -0.0940269044
v -0.0572379082 -0.16629028 -0.0940269044
v 0.137923732 -0.101236159 -0.158040015
v 0.125693604 -0.309668896 -0.0940269044
v -0.0450077653 -0.309668896 -0.0940269044
v -0.0572379082 -0.101236159 -0.382605893
v 0.137923732 -0.101236159 -0.382605893
v -0.0450077653 -0.331526899 -0.274876718
v 0.125693604 -0.331006401 -0.382605893
v -0.0450077653 -0.331006401 -0.382605893
v 0.125693604 -0.331526899 -0.274876718
v -0.0288743973 -0.383569939 -0.258743354
v 0.109560244 -0.383569939 -0.258743354
v 0.109560244 -0.383569939 -0.258743354
v -0.0450077653 -0.309668896 -0.0940269044
v 0.125693604 -0.309668896 -0.0940269044
v -0.0288743973 -0.383569939 -0.258743354
v 0.110601112 -0.0830211473 -0.129936729
v 0.0926462412 -0.210526797 -0.213205653
v 0.102274209 -0.116068422 -0.106777468
v 0.110601112 -0.0830211473 -0.213205653
v 0.0926462412 -0.167070743 0.00693666796
v 0.0926462412 -0.210266533 -0.00399237791
v 0.0926462412 -0.166030016 0.0587195041
v 0.102274209 -0.116068422 0.0595001459
v -0.0127410591 -0.210526797 -0.213205653
v -0.0309561491 -0.0830211473 -0.129936729
v -0.0223690271 -0.116068422 -0.106777468
v -0.0309561491 -0.0830211473 -0.213205653
v -0.0127410591 -0.167070743 0.00693666796
v -0.0127410591 -0.210266533 -0.00399237791
v -0.0127410591 -0.166030016 0.0587195041
v -0.0223690271 -0.116068422 0.0595001459
v -0.0309561491 -0.0830211473 -0.213205653
v 0.0926462412 -0.210526797 -0.213205653
v 0.110601112 -0.0830211473 -0.213205653
v -0.0127410591 -0.210526797 -0.213205653
v -0.0223690271 -0.116068422 -0.106777468
v 0.110601112 -0.0830211473 -0.129936729
v 0.102274209 -0.116068422 -0.106777468
v -0.0309561491 -0.0830211473 -0.129936729
v 0.110601112 -0.0830211473 -0.213205653
v -0.0309561491 -0.0830211473 -0.213205653
v -0.0223690271 -0.116068422 0.0595001459
v 0.102274209 -0.116068422 0.0595001459
v -0.0127410591 -0.210526797 -0.213205653
v 0.0926462412 -0.210266533 -0.00399237791
v 0.0926462412 -0.210526797 -0.213205653
v -0.0127410591 -0.210266533 -0.00399237791
v -0.0127410591 -0.210266533 -0.00399237791
v 0.0926462412 -0.167070743 0.00693666796
v 0.0926462412 -0.210266533 -0.00399237791
v -0.0127410591 -0.167070743 0.00693666796
v 0.0926462412 -0.166030016 0.0587195041
v -0.0127410591 -0.166030016 0.0587195041
v 0.102274209 -0.116068422 0.0595001459
v -0.0223690271 -0.116068422 0.0595001459
v 0.0853601992 -0.122053435 -0.0620204682
v 0.0791150257 0.0358971882 0.0438871892
v 0.0791150257 0.0169014152 -0.05161189
v 0.0853601992 -0.122053435 0.0506528515
v 0.0765128732 0.149351358 0.00953882742
v 0.0765128732 0.117865032 -0.073730156
v 0.0822376162 0.166005101 -0.109900035
v 0.0822376162 0.202435125 0.00459468273
v 0.0632418841 0.24432994 -0.0981904072
v 0.0632418841 0.247452418 -0.0453666358
v -0.00363349915 -0.122053435 -0.0620204682
v 0.00235144794 0.0358971882 0.0438871892
v -0.00363349915 -0.122053435 0.0506528515
v 0.00235144794 0.0169014152 -0.05161189
v 0.00495360792 0.149351358 0.00953882742
v 0.00495360792 0.117865032 -0.073730156
v -0.000771135092 0.166005101 -0.109900035
v -0.000771135092 0.202435125 0.00459468273
v 0.0182245895 0.24432994 -0.0981904072
v 0.0182245895 0.247452418 -0.0453666358
v -0.00363349915 -0.122053435 0.0506528515
v 0.0791150257 0.0358971882 0.0438871892
v 0.0853601992 -0.122053435 0.0506528515
v 0.00235144794 0.0358971882 0.0438871892
v 0.0765128732 0.149351358 0.00953882742
v 0.00495360792 0.149351358 0.00953882742
v 0.0822376162 0.202435125 0.00459468273
v -0.000771135092 0.202435125 0.00459468273
v 0.0632418841 0.247452418 -0.0453666358
v 0.0182245895 0.247452418 -0.0453666358
v 0.00235144794 0.0169014152 -0.05161189
v 0.0853601992 -0.122053435 -0.0620204682
v 0.0791150257 0.0169014152 -0.05161189
v -0.00363349915 -0.122053435 -0.0620204682
v 0.00495360792 0.117865032 -0.073730156
v 0.0765128732 0.117865032 -0.073730156
v -0.000771135092 0.166005101 -0.109900035
v 0.0822376162 0.166005101 -0.109900035
v 0.0182245895 0.24432994 -0.0981904072
v 0.0632418841 0.24432994 -0.0981904072
v 0.0182245895 0.247452418 -0.0453666358
v 0.0632418841 0.24432994 -0.0981904072
v 0.0632418841 0.247452418 -0.0453666358
v 0.0182245895 0.24432994 -0.0981904072
v 0.12153016 -0.301602124 -0.17417332
v 0.170450687 -0.273759102 -0.218149738
v 0.167588308 -0.305765627 -0.199414213
v 0.126474246 -0.247737582 -0.205399174
v 0.170450687 -0.273759102 -0.255100318
v 0.126474246 -0.247737582 -0.267850941
v 0.167588308 -0.305765627 -0.273835843
v 0.12153016 -0.301602124 -0.299076736
v 0.164725929 -0.338032446 -0.255100318
v 0.116586067 -0.355466652 -0.267850941
v 0.164725929 -0.338032446 -0.218149738
v 0.116586067 -0.355466652 -0.205399174
v 0.00231054425 -0.0854374297 -0.848651835
v -0.0321820229 -0.155197709 -1.08221795
v 0.00231054425 -0.0854374297 -1.08221795
v -0.0321820229 -0.155197709 -0.848651835
v 0.00231054425 -0.224958032 -1.08221795
v 0.00231054425 -0.224958017 -0.848651835
v 0.114702106 -0.155197709 -0.848651835
v 0.0802095234 -0.0854374297 -1.08221795
v 0.114702106 -0.155197709 -1.08221795
v 0.0802095234 -0.0854374297 -0.848651835
v 0.00231054425 -0.0854374297 -1.08221795
v 0.00231054425 -0.0854374297 -0.848651835
v 0.0802095234 -0.224958017 -0.848651835
v 0.0802095234 -0.224958032 -1.08221795
v 0.00231054425 -0.224958017 -0.848651835
v 0.00231054425 -0.224958032 -1.08221795
v -0.074510023 0.0202441473 -1.72670878
v 0.225175664 -0.154531448 -1.72670878
v 0.157042831 0.0202441473 -1.72670878
v -0.142642841 -0.154531448 -1.72670878
v -0.074510023 -0.329800361 -1.72670878
v 0.157042831 -0.329800361 -1.72670878
v -0.074510023 0.0202441473 -1.72670878
v -0.0868832767 -0.154542788 -1.50290578
v -0.142642841 -0.154531448 -1.72670878
v -0.0541153848 -0.010543091 -1.50290578
v -0.074510023 -0.329800361 -1.72670878
v -0.0541153848 -0.298542559 -1.50290578
v 0.168963686 -0.154542788 -1.50290578
v 0.157042831 0.0202441473 -1.72670878
v 0.225175664 -0.154531448 -1.72670878
v 0.136644617 -0.010543091 -1.50290578
v 0.157042831 -0.329800361 -1.72670878
v 0.136644617 -0.298542559 -1.50290566
v 0.136644617 -0.010543091 -1.50290578
v -0.074510023 0.0202441473 -1.72670878
v 0.157042831 0.0202441473 -1.72670878
v -0.0541153848 -0.010543091 -1.50290578
v -0.0541153848 -0.298542559 -1.50290578
v 0.157042831 -0.329800361 -1.72670878
v -0.074510023 -0.329800361 -1.72670878
v 0.136644617 -0.298542559 -1.50290566
v 0.107381403 -0.0580911073 -0.706834354
v 0.126561642 -0.158030389 -0.862963623
v 0.146078378 -0.158030389 -0.706834354
v 0.0949310586 -0.076598614 -0.862963623
v -0.0248613507 -0.0580911073 -0.706834354
v -0.0127475113 -0.076598614 -0.862963623
v 0.107381403 -0.257969685 -0.706834354
v 0.0949310586 -0.239126024 -0.862963623
v -0.0127475113 -0.239126024 -0.862963623
v -0.0248613507 -0.257969685 -0.706834354
v -0.0248613507 -0.0580911073 -0.706834354
v -0.0440416038 -0.158030389 -0.862963623
v -0.0127475113 -0.076598614 -0.862963623
v -0.0635583401 -0.158030389 -0.706834354
v -0.0248613507 -0.257969685 -0.706834354
v -0.0127475113 -0.239126024 -0.862963623
v -0.0127475113 -0.076598614 -0.862963623
v 0.126561642 -0.158030389 -0.862963623
v 0.0949310586 -0.076598614 -0.862963623
v -0.0440416038 -0.158030389 -0.862963623
v -0.0127475113 -0.239126024 -0.862963623
v 0.0949310586 -0.239126024 -0.862963623
v -0.023032397 -0.0561616606 -1.15995551
v 0.143302187 -0.153265133 -1.15995551
v 0.105539739 -0.0561616606 -1.15995551
v -0.0607948303 -0.153265133 -1.15995551
v -0.023032397 -0.250368575 -1.15995551
v 0.105539739 -0.250368575 -1.15995551
v -0.0275279284 -0.0492684743 -1.04754248
v 0.150495037 -0.153265133 -1.04754248
v -0.0679876804 -0.153265133 -1.04754248
v 0.11003527 -0.0492684743 -1.04754248
v -0.0275279284 -0.257261463 -1.04754248
v 0.11003527 -0.257261463 -1.04754248
v -0.0323231369 -0.0420754766 -1.09334042
v -0.0679876804 -0.153265133 -1.04754248
v -0.0754802525 -0.153265133 -1.09334042
v -0.0275279284 -0.0492684743 -1.04754248
v -0.0323231369 -0.264454431 -1.09334042
v -0.0275279284 -0.257261463 -1.04754248
v -0.133023009 -0.153265133 -1.0949017
v -0.053302303 -0.294724346 -1.0949017
v -0.053302303 -0.294724346 -1.12612749
v -0.131224796 -0.153265133 -1.12612749
v -0.053302303 -0.0118055767 -1.12612749
v -0.053302303 -0.0118055767 -1.0949017
v -0.0314240605 -0.263255752 -1.12742866
v -0.0742814392 -0.153265133 -1.12742866
v -0.0607948303 -0.153265133 -1.15995551
v -0.023032397 -0.250368575 -1.15995551
v -0.0314240605 -0.0432744983 -1.12742866
v -0.023032397 -0.0561616606 -1.15995551
v 0.150495037 -0.153265133 -1.04754248
v 0.114830494 -0.0420754766 -1.09334042
v 0.157987595 -0.153265133 -1.09334042
v 0.11003527 -0.0492684743 -1.04754248
v 0.114830494 -0.264454431 -1.09334042
v 0.11003527 -0.257261463 -1.04754248
v 0.215530396 -0.153265133 -1.09490182
v 0.135809645 -0.0118055767 -1.0949017
v 0.135809645 -0.0118055767 -1.12612749
v 0.213732123 -0.153265133 -1.12612749
v 0.135809645 -0.294724346 -1.12612749
v 0.135809645 -0.294724346 -1.09490182
v 0.113931388 -0.0432744983 -1.12742866
v 0.156788766 -0.153265133 -1.12742866
v 0.143302187 -0.153265133 -1.15995551
v 0.113931388 -0.263255752 -1.12742866
v 0.105539739 -0.250368575 -1.15995551
v 0.105539739 -0.0561616606 -1.15995551
v 0.11003527 -0.0492684743 -1.04754248
v -0.0323231369 -0.0420754766 -1.09334042
v 0.114830494 -0.0420754766 -1.09334042
v -0.0275279284 -0.0492684743 -1.04754248
v -0.053302303 -0.0118055767 -1.0949017
v 0.135809645 -0.0118055767 -1.0949017
v -0.053302303 -0.0118055767 -1.12612749
v 0.135809645 -0.0118055767 -1.12612749
v -0.0314240605 -0.0432744983 -1.12742866
v 0.113931388 -0.0432744983 -1.12742866
v -0.023032397 -0.0561616606 -1.15995551
v 0.105539739 -0.0561616606 -1.15995551
v -0.0275279284 -0.257261463 -1.04754248
v 0.114830494 -0.264454431 -1.09334042
v -0.0323231369 -0.264454431 -1.09334042
v 0.11003527 -0.257261463 -1.04754248
v 0.135809645 -0.294724346 -1.09490182
v -0.053302303 -0.294724346 -1.0949017
v 0.135809645 -0.294724346 -1.12612749
v -0.053302303 -0.294724346 -1.12612749
v 0.113931388 -0.263255752 -1.12742866
v -0.0314240605 -0.263255752 -1.12742866
v 0.105539739 -0.250368575 -1.15995551
v -0.023032397 -0.250368575 -1.15995551
v -0.0734282285 0.0187368355 -1.5356503
v 0.223713368 -0.154520794 -1.5356503
v 0.15593636 0.0187368355 -1.5356503
v -0.141205236 -0.154520794 -1.5356503
v -0.0734282285 -0.328227335 -1.5356503
v 0.15593636 -0.328227335 -1.53565018
v -0.0119434297 -0.0740327836 -1.0079898
v 0.125919461 -0.154352992 -1.0079898
v -0.0434121341 -0.154352992 -1.0079898
v 0.0944507718 -0.0740327836 -1.0079898
v -0.0119434297 -0.234972609 -1.0079898
v 0.0944507718 -0.234972609 -1.0079898
v -0.0119434297 -0.0740327836 -1.0079898
v -0.085547328 -0.154520794 -1.44810111
v -0.0384175777 -0.0342276773 -1.44810111
v -0.0434121341 -0.154352992 -1.0079898
v -0.0384175777 -0.275262301 -1.44810111
v -0.0119434297 -0.234972609 -1.0079898
v 0.125919461 -0.154352992 -1.0079898
v 0.120925732 -0.0342276773 -1.44810111
v 0.16805546 -0.154520794 -1.44810111
v 0.0944507718 -0.0740327836 -1.0079898
v 0.0944507718 -0.234972609 -1.0079898
v 0.120925732 -0.275262301 -1.44810111
v 0.0944507718 -0.0740327836 -1.0079898
v -0.0384175777 -0.0342276773 -1.44810111
v 0.120925732 -0.0342276773 -1.44810111
v -0.0119434297 -0.0740327836 -1.0079898
v -0.0119434297 -0.234972609 -1.0079898
v 0.120925732 -0.275262301 -1.44810111
v -0.0384175777 -0.275262301 -1.44810111
v 0.0944507718 -0.234972609 -1.0079898
v 0.155936375 -0.328227335 -1.46779377
v 0.16805546 -0.154520794 -1.44810111
v 0.223713398 -0.154520794 -1.46779377
v 0.120925732 -0.275262301 -1.44810111
v 0.155936375 0.0187368355 -1.46779389
v 0.120925732 -0.0342276773 -1.44810111
v 0.223713368 -0.154520794 -1.5356503
v 0.15593636 -0.328227335 -1.53565018
v 0.15593636 0.0187368355 -1.5356503
v -0.0384175777 -0.275262301 -1.44810111
v 0.155936375 -0.328227335 -1.46779377
v -0.0734282285 -0.328227335 -1.46779389
v 0.120925732 -0.275262301 -1.44810111
v 0.15593636 -0.328227335 -1.53565018
v -0.0734282285 -0.328227335 -1.5356503
v -0.085547328 -0.154520794 -1.44810111
v -0.0734282285 -0.328227335 -1.46779389
v -0.141205236 -0.154520794 -1.46779389
v -0.0384175777 -0.275262301 -1.44810111
v -0.0734282285 0.0187368355 -1.46779389
v -0.0384175777 -0.0342276773 -1.44810111
v -0.0734282285 -0.328227335 -1.5356503
v -0.141205236 -0.154520794 -1.5356503
v -0.0734282285 0.0187368355 -1.5356503
v 0.120925732 -0.0342276773 -1.44810111
v -0.0734282285 0.0187368355 -1.46779389
v 0.155936375 0.0187368355 -1.46779389
v -0.0384175777 -0.0342276773 -1.44810111
v -0.0734282285 0.0187368355 -1.5356503
v 0.15593636 0.0187368355 -1.5356503
v 0.282078236 -0.306321619 -0.635767214
v 0.332125008 -0.341097436 -0.519395724
v 0.256757617 -0.293035687 -0.601836442
v 0.31588912 -0.353522617 -0.637242249
v 0.32530719 -0.386439067 -0.666467056
v 0.368276298 -0.405057558 -0.590211154
v 0.368093491 -0.396923224 -0.46175873
v 0.307710856 -0.375652715 -0.294483722
v 0.254635155 -0.306321917 -0.375393256
v 0.227619559 -0.338265649 -0.253415176
v 0.140499905 -0.299031436 -0.295097054
v 0.223292366 -0.307400016 -0.51822199
v 0.151931018 -0.279892925 -0.485442899
v 0.155800581 -0.448142797 -0.26371438
v 0.147124395 -0.471279855 -0.390843343
v 0.0868602917 -0.381095691 -0.302794575
v 0.227494508 -0.498378118 -0.305877028
v 0.224745065 -0.505382079 -0.534473074
v 0.285906017 -0.52266337 -0.473554308
v 0.147604957 -0.423197542 -0.528822435
v 0.0930382162 -0.36999406 -0.493855348
v 0.303855836 -0.503617544 -0.599207162
v 0.276159316 -0.461629984 -0.673623546
v 0.239303201 -0.470694805 -0.647951056
v 0.185304031 -0.456272302 -0.650665868
v 0.159887537 -0.442673595 -0.61490583
v 0.147604957 -0.423197542 -0.528822435
v 0.256757617 -0.293035687 -0.601836442
v 0.223292366 -0.307400016 -0.51822199
v 0.159887537 -0.442673595 -0.61490583
v 0.282078236 -0.306321619 -0.635767214
v 0.185304031 -0.456272302 -0.650665868
v 0.239303201 -0.470694805 -0.647951056
v 0.31588912 -0.353522617 -0.637242249
v 0.151931018 -0.279892925 -0.485442899
v 0.0930382162 -0.36999406 -0.493855348
v 0.32530719 -0.386439067 -0.666467056
v 0.276159316 -0.461629984 -0.673623546
v 0.227619559 -0.338265649 -0.253415176
v 0.0868602917 -0.381095691 -0.302794575
v 0.140499905 -0.299031436 -0.295097054
v 0.155800581 -0.448142797 -0.26371438
v 0.151931018 -0.279892925 -0.485442899
v 0.0930382162 -0.36999406 -0.493855348
v 0.307710856 -0.375652715 -0.294483722
v 0.227494508 -0.498378118 -0.305877028
v 0.285906017 -0.52266337 -0.473554308
v 0.307710856 -0.375652715 -0.294483722
v 0.368093491 -0.396923224 -0.46175873
v 0.227494508 -0.498378118 -0.305877028
v 0.303855836 -0.503617544 -0.599207162
v 0.368276298 -0.405057558 -0.590211154
v 0.32530719 -0.386439067 -0.666467056
v 0.276159316 -0.461629984 -0.673623546
v 0.307569623 -0.366173373 -0.481305771
v 0.123405896 -0.279258881 -0.547017346
v 0.163935095 -0.287514301 -0.560872204
v 0.0895244628 -0.283558282 -0.435126039
v 0.261327475 -0.291201503 -0.665577994
v 0.174205855 -0.281819347 -0.667173073
v 0.310206771 -0.372904226 -0.667984531
v 0.248313516 -0.312752572 -0.698000291
v 0.186545432 -0.307859955 -0.699123362
v 0.280773044 -0.371061281 -0.699830511
v 0.0873852298 -0.33436098 -0.552922198
v 0.233419821 -0.479603135 -0.493451765
v 0.112979949 -0.365461574 -0.569317704
v 0.0635975376 -0.323219235 -0.439403208
v 0.165949315 -0.437132361 -0.678055747
v 0.260287344 -0.449265927 -0.67638795
v 0.122214936 -0.361352252 -0.675660892
v 0.184141487 -0.410938062 -0.70630721
v 0.154118359 -0.357463348 -0.704595365
v 0.249867961 -0.418337261 -0.704954483
v 0.0635975376 -0.323219235 -0.439403208
v 0.123405896 -0.279258881 -0.547017346
v 0.0895244628 -0.283558282 -0.435126039
v 0.0873852298 -0.33436098 -0.552922198
v 0.163935095 -0.287514301 -0.560872204
v 0.112979949 -0.365461574 -0.569317704
v 0.174205855 -0.281819347 -0.667173073
v 0.122214936 -0.361352252 -0.675660892
v 0.154118359 -0.357463348 -0.704595365
v 0.186545432 -0.307859955 -0.699123362
v 0.154118359 -0.357463348 -0.704595365
v 0.248313516 -0.312752572 -0.698000291
v 0.186545432 -0.307859955 -0.699123362
v 0.184141487 -0.410938062 -0.70630721
v 0.249867961 -0.418337261 -0.704954483
v 0.280773044 -0.371061281 -0.699830511
v 0.310206771 -0.372904226 -0.667984531
v 0.233419821 -0.479603135 -0.493451765
v 0.307569623 -0.366173373 -0.481305771
v 0.260287344 -0.449265927 -0.67638795
v 0.280773044 -0.371061281 -0.699830511
v 0.249867961 -0.418337261 -0.704954483
v 0.233419821 -0.479603135 -0.493451765
v 0.0895244628 -0.283558282 -0.435126039
v 0.307569623 -0.366173373 -0.481305771
v 0.0635975376 -0.323219235 -0.439403208
v 0.0720892102 0.00909520504 -0.564756757
v 0.0616805851 0.0593167425 -0.215807812
v 0.0616805851 0.0593167425 -0.564756757
v 0.0720892102 0.00909520504 -0.253018567
v 0.0666246861 -0.0877051923 -0.136181864
v 0.0791150257 -0.0866641527 -0.202276607
v 0.00807619095 0.00909520504 -0.564756757
v 0.0182245895 0.0593167425 -0.215807812
v 0.00807619095 0.00909520504 -0.253018567
v 0.0182245895 0.0593167425 -0.564756757
v 0.0135407224 -0.0877051923 -0.136181864
v 0.00105036795 -0.0866641527 -0.202276607
v 0.00807619095 0.00909520504 -0.564756757
v 0.0720892102 0.00909520504 -0.253018567
v 0.0720892102 0.00909520504 -0.564756757
v 0.00807619095 0.00909520504 -0.253018567
v 0.0791150257 -0.0866641527 -0.202276607
v 0.00105036795 -0.0866641527 -0.202276607
v 0.0182245895 0.0593167425 -0.215807812
v 0.0616805851 0.0593167425 -0.564756757
v 0.0616805851 0.0593167425 -0.215807812
v 0.0182245895 0.0593167425 -0.564756757
v 0.0135407224 -0.0877051923 -0.136181864
v 0.0666246861 -0.0877051923 -0.136181864
v 0.0182245895 0.0593167425 -0.564756757
v 0.0720892102 0.00909520504 -0.564756757
v 0.0616805851 0.0593167425 -0.564756757
v 0.00807619095 0.00909520504 -0.564756757
v 0.0658440366 -0.0762556639 -0.437251153
v 0.0608999431 0.0137789371 -0.397698412
v 0.0608999431 0.0137789371 -0.437251153
v 0.0658440366 -0.0762556639 -0.397698412
v 0.0143213719 -0.0762556639 -0.397698412
v 0.019265458 0.0137789371 -0.397698412
v 0.019265458 0.0137789371 -0.437251153
v 0.0143213719 -0.0762556639 -0.437251153
v 0.0143213719 -0.0762556639 -0.437251153
v 0.019265458 0.0137789371 -0.397698412
v 0.0143213719 -0.0762556639 -0.397698412
v 0.019265458 0.0137789371 -0.437251153
v 0.221192703 -0.0655866134 -0.71516124
v 0.16212377 -0.144952477 -0.799991507
v 0.16212377 -0.145473004 -0.757576433
v 0.221192703 -0.041386596 -0.770587171
v 0.191528156 0.122193461 -0.671383425
v 0.191528156 0.135314259 -0.714051938
v 0.162123784 0.164435086 -0.662557052
v 0.162123784 0.173613305 -0.698702553
v 0.126734465 -0.319296922 -0.768245245
v 0.126734465 -0.313311902 -0.798690457
v 0.16212377 -0.145473004 -0.757576433
v 0.16212377 -0.0827608986 -0.72244731
v 0.221192703 -0.0655866134 -0.71516124
v 0.191528156 0.122193461 -0.671383425
v 0.140265673 0.122193461 -0.671383425
v 0.162123784 0.164435086 -0.662557052
v -0.0694680363 -0.145473004 -0.757576433
v -0.0694680363 -0.0827608986 -0.72244731
v -0.12827675 -0.0655866134 -0.71516124
v -0.0986121744 0.122193461 -0.671383425
v -0.0473497063 0.122193461 -0.671383425
v -0.0694680512 0.164435086 -0.662557052
v -0.0340787172 -0.319296922 -0.768245245
v 0.126734465 -0.319296922 -0.768245245
v 0.16212377 -0.144952477 -0.799991507
v 0.221192703 -0.041386596 -0.770587171
v 0.16212377 -0.0585608812 -0.777873182
v 0.191528156 0.135314259 -0.714051938
v 0.140265673 0.135314259 -0.714051938
v 0.162123784 0.173613305 -0.698702553
v -0.0694680363 -0.144952477 -0.799991507
v -0.0694680363 -0.0585608812 -0.777873182
v -0.0473497063 0.135314259 -0.714051938
v -0.0694680512 0.173613305 -0.698702553
v -0.12827675 -0.041386596 -0.770587171
v -0.0986121744 0.135314259 -0.714051938
v 0.126734465 -0.313311902 -0.798690457
v -0.0340787172 -0.313311902 -0.798690457
v 0.16212377 -0.0585608812 -0.777873182
v 0.140265673 0.122193461 -0.671383425
v 0.16212377 -0.0827608986 -0.72244731
v 0.140265673 0.135314259 -0.714051938
v -0.0473497063 0.122193461 -0.671383425
v -0.0473497063 0.135314259 -0.714051938
v -0.0694680363 -0.0585608812 -0.777873182
v -0.0694680363 -0.0827608986 -0.72244731
v 0.162123784 0.164435086 -0.662557052
v -0.0694680512 0.173613305 -0.698702553
v 0.162123784 0.173613305 -0.698702553
v -0.0694680512 0.164435086 -0.662557052
v -0.12827675 -0.0655866134 -0.71516124
v -0.0694680363 -0.144952477 -0.799991507
v -0.12827675 -0.041386596 -0.770587171
v -0.0694680363 -0.145473004 -0.757576433
v -0.0986121744 0.122193461 -0.671383425
v -0.0986121744 0.135314259 -0.714051938
v -0.0694680512 0.164435086 -0.662557052
v -0.0694680512 0.173613305 -0.698702553
v -0.0340787172 -0.319296922 -0.768245245
v -0.0340787172 -0.313311902 -0.798690457
v 0.126734465 -0.319296922 -0.768245245
v -0.0340787172 -0.313311902 -0.798690457
v -0.0340787172 -0.319296922 -0.768245245
v 0.126734465 -0.313311902 -0.798690457
v 0.16212377 -0.0585608812 -0.777873182
v -0.0694680363 -0.0827608986 -0.72244731
v -0.0694680363 -0.0585608812 -0.777873182
v 0.16212377 -0.0827608986 -0.72244731
vt 0.200200006 0.774399996
vt 0.199300006 0.966499984
vt 0.362300009 0.809300005
vt 0.483999997 0.966099977
vt 0.477999985 0.99119997
vt 0.207599998 0.99180001
vt 0.375400007 0.754299998
vt 0.485300004 0.755400002
vt 0.222100005 0.748099983
vt 0.306100011 0.74879998
vt 0.401199996 0.400900006
vt 0.261500001 0.300599992
vt 0.261200011 0.39320001
vt 0.401499987 0.293799996
vt 0.466600001 0.351599991
vt 0.406199992 0.398499995
vt 0.469000012 0.398699999
vt 0.408800006 0.351399988
vt 0.476900011 0.421099991
vt 0.398200005 0.420899987
vt 0.407000005 0.45449999
vt 0.467900008 0.454699993
vt 0.405600011 0.490099996
vt 0.469099998 0.4903
vt 0.594799995 0.336299986
vt 0.689499974 0.423400015
vt 0.678600013 0.336299986
vt 0.583999991 0.423400015
vt 0.681299984 0.430999994
vt 0.592100024 0.430999994
vt 0.671299994 0.325500011
vt 0.602100015 0.325500011
vt 0.199300006 0.966499984
vt 0.477999985 0.99119997
vt 0.207599998 0.99180001
vt 0.483999997 0.966099977
vt 0.362300009 0.809300005
vt 0.375400007 0.754299998
vt 0.485300004 0.755400002
vt 0.200200006 0.774399996
vt 0.222100005 0.748099983
vt 0.306100011 0.74879998
vt 0.192300007 0.115000002
vt 0.243100002 0.109999999
vt 0.196899995 0.109999999
vt 0.247600004 0.115000002
vt 0.238800004 0.178599998
vt 0.201199993 0.178599998
vt 0.586000025 0.75999999
vt 0.747399986 0.906199992
vt 0.690999985 0.963999987
vt 0.746599972 0.778400004
vt 0.49059999 0.760999978
vt 0.49180001 0.965200007
vt 0.600300014 0.711700022
vt 0.586000025 0.75999999
vt 0.747399986 0.906199992
vt 0.746599972 0.778400004
vt 0.690999985 0.963999987
vt 0.49059999 0.760999978
vt 0.49180001 0.965200007
vt 0.600300014 0.711700022
vt 0.481099993 0.404399991
vt 0.567300022 0.370900005
vt 0.481099993 0.370900005
vt 0.567300022 0.404399991
vt 0.561999977 0.318199992
vt 0.486499995 0.318199992
vt 0.481099993 0.486900002
vt 0.567300022 0.486900002
vt 0.29460001 0.457899988
vt 0.261799991 0.405800015
vt 0.261900008 0.457899988
vt 0.29460001 0.405699998
vt 0.311199993 0.452899992
vt 0.311199993 0.410699993
vt 0.311199993 0.410699993
vt 0.366299987 0.457700014
vt 0.3662 0.405600011
vt 0.311199993 0.452899992
vt 0.733399987 0.991999984
vt 0.66049999 0.874499977
vt 0.753899992 0.961000025
vt 0.66049999 0.991699994
vt 0.853900015 0.913800001
vt 0.844099998 0.874499977
vt 0.899200022 0.914699972
vt 0.899800003 0.961300015
vt 0.66049999 0.874499977
vt 0.733399987 0.991999984
vt 0.753899992 0.961000025
vt 0.66049999 0.991699994
vt 0.853900015 0.913800001
vt 0.844099998 0.874499977
vt 0.899200022 0.914699972
vt 0.899800003 0.961300015
vt 0.327499986 0.289400011
vt 0.376399994 0.237599999
vt 0.38440001 0.288599998
vt 0.334100008 0.238100007
vt 0.4727 0.590600014
vt 0.449699998 0.514599979
vt 0.4727 0.519400001
vt 0.449699998 0.595399976
vt 0.4023 0.514599979
vt 0.4023 0.595399976
vt 0.567600012 0.590600014
vt 0.567600012 0.519400001
vt 0.397000015 0.466899991
vt 0.3389 0.583899975
vt 0.336699992 0.466899991
vt 0.397000015 0.583899975
vt 0.318199992 0.216399997
vt 0.263200015 0.239700004
vt 0.263200015 0.216399997
vt 0.318199992 0.239700004
vt 0.263200015 0.2667
vt 0.318199992 0.2667
vt 0.25819999 0.292899996
vt 0.323300004 0.292899996
vt 0.917800009 0.769500017
vt 0.99000001 0.857200027
vt 0.932099998 0.851499975
vt 0.984700024 0.762799978
vt 0.976300001 0.926500022
vt 0.925000012 0.912800014
vt 0.906400025 0.943700016
vt 0.976499975 0.958500028
vt 0.917599976 0.990999997
vt 0.949199975 0.99000001
vt 0.917800009 0.769500017
vt 0.99000001 0.857200027
vt 0.984700024 0.762799978
vt 0.932099998 0.851499975
vt 0.976300001 0.926500022
vt 0.925000012 0.912800014
vt 0.906400025 0.943700016
vt 0.976499975 0.958500028
vt 0.917599976 0.990999997
vt 0.949199975 0.99000001
vt 0.91079998 0.81190002
vt 0.848500013 0.763199985
vt 0.91109997 0.760299981
vt 0.84829998 0.807600021
vt 0.801599979 0.764100015
vt 0.801400006 0.805700004
vt 0.780499995 0.760699987
vt 0.780300021 0.808700025
vt 0.753899992 0.771399975
vt 0.753799975 0.797399998
vt 0.860499978 0.832199991
vt 0.921000004 0.870700002
vt 0.860099971 0.8671
vt 0.921500027 0.830200016
vt 0.815400004 0.832700014
vt 0.814999998 0.865400016
vt 0.789099991 0.829900026
vt 0.788699985 0.867600024
vt 0.754400015 0.838100016
vt 0.754199982 0.858500004
vt 0.889599979 0.903199971
vt 0.858399987 0.877499998
vt 0.889199972 0.877099991
vt 0.858699977 0.903599977
vt 1.00209999 0.0640999973
vt 0.95450002 0.0992999971
vt 0.975000024 0.0634000003
vt 0.968100011 0.116599999
vt 0.913600028 0.0992999971
vt 0.900099993 0.116599999
vt 0.89319998 0.0634000003
vt 0.866100013 0.0640999973
vt 0.913600028 0.0274999999
vt 0.900099993 0.00529999984
vt 0.95450002 0.0274999999
vt 0.968100011 0.00529999984
vt 0.982599974 0.701399982
vt 0.831099987 0.652999997
vt 0.831099987 0.701399982
vt 0.982599974 0.652999997
vt 0.831099987 0.604499996
vt 0.982599974 0.604499996
vt 0.982599974 0.652999997
vt 0.831099987 0.701399982
vt 0.831099987 0.652999997
vt 0.982599974 0.701399982
vt 0.831099987 0.741100013
vt 0.982599974 0.741100013
vt 0.982599974 0.604499996
vt 0.831099987 0.604499996
vt 0.982599974 0.564800024
vt 0.831099987 0.564800024
vt 0.680400014 0.438899994
vt 0.566299975 0.504999995
vt 0.592400014 0.438600004
vt 0.70599997 0.505500019
vt 0.680000007 0.57190001
vt 0.592000008 0.57160002
vt 0.202399999 0.712499976
vt 0.334500015 0.65259999
vt 0.202399999 0.653999984
vt 0.334500015 0.697300017
vt 0.202399999 0.595499992
vt 0.334500015 0.607800007
vt 0.334500015 0.65259999
vt 0.202399999 0.712499976
vt 0.202399999 0.653999984
vt 0.334500015 0.697300017
vt 0.202399999 0.595499992
vt 0.334500015 0.607800007
vt 0.334699988 0.540400028
vt 0.206300005 0.589100003
vt 0.208000004 0.530200005
vt 0.333499998 0.585500002
vt 0.321999997 0.473199993
vt 0.206900001 0.522800028
vt 0.207000002 0.466399997
vt 0.32190001 0.51639998
vt 0.179000005 0.913500011
vt 0.0377000012 0.849099994
vt 0.179000005 0.849699974
vt 0.0377000012 0.90109998
vt 0.164100006 0.991900027
vt 0.0255999994 0.964999974
vt 0.179000005 0.78579998
vt 0.0377000012 0.797100008
vt 0.0262000002 0.733200014
vt 0.164900005 0.707300007
vt 0.179000005 0.913500011
vt 0.0377000012 0.849099994
vt 0.0377000012 0.90109998
vt 0.179000005 0.849699974
vt 0.179000005 0.78579998
vt 0.0377000012 0.797100008
vt 0.2042 0.282999992
vt 0.258100003 0.25060001
vt 0.246199995 0.282400012
vt 0.191499993 0.25150001
vt 0.203400001 0.219600007
vt 0.245299995 0.219099998
vt 0.0410999991 0.414900005
vt 0.0737999976 0.393099993
vt 0.066399999 0.414900005
vt 0.0337000005 0.393099993
vt 0.0410999991 0.371300012
vt 0.066399999 0.371300012
vt 0.0500999987 0.481900007
vt 0.00310000009 0.452399999
vt 0.060800001 0.452399999
vt 0.0137999998 0.481900007
vt 0.0500999987 0.423000008
vt 0.0137999998 0.423000008
vt 0.785000026 0.738900006
vt 0.827199996 0.653100014
vt 0.785000026 0.653100014
vt 0.827199996 0.735800028
vt 0.785000026 0.563199997
vt 0.827199996 0.564499974
vt 0.762700021 0.653100014
vt 0.762700021 0.5546
vt 0.739600003 0.5546
vt 0.739600003 0.653100014
vt 0.739600003 0.74849999
vt 0.762700021 0.74849999
vt 0.719099998 0.572600007
vt 0.719099998 0.653100014
vt 0.693499982 0.653100014
vt 0.693499982 0.58130002
vt 0.719099998 0.732500017
vt 0.693499982 0.725000024
vt 0.827199996 0.653100014
vt 0.785000026 0.738900006
vt 0.785000026 0.653100014
vt 0.827199996 0.735800028
vt 0.785000026 0.563199997
vt 0.827199996 0.564499974
vt 0.762700021 0.653100014
vt 0.762700021 0.74849999
vt 0.739600003 0.74849999
vt 0.739600003 0.653100014
vt 0.739600003 0.5546
vt 0.762700021 0.5546
vt 0.719099998 0.732500017
vt 0.719099998 0.653100014
vt 0.693499982 0.653100014
vt 0.719099998 0.572600007
vt 0.693499982 0.58130002
vt 0.693499982 0.725000024
vt 0.166199997 0.600399971
vt 0.130099997 0.696399987
vt 0.130099997 0.597199976
vt 0.166199997 0.693199992
vt 0.109700002 0.710600019
vt 0.109700002 0.583000004
vt 0.0854000002 0.710600019
vt 0.0854000002 0.583000004
vt 0.0640999973 0.695900023
vt 0.0640999973 0.597800016
vt 0.0373999998 0.690100014
vt 0.0373999998 0.603500009
vt 0.107299998 0.502900004
vt 0.0803999975 0.574500024
vt 0.0803999975 0.500500023
vt 0.107299998 0.572099984
vt 0.065200001 0.585099995
vt 0.065200001 0.489899993
vt 0.0471000001 0.585099995
vt 0.0471000001 0.489899993
vt 0.0311999992 0.574100018
vt 0.0311999992 0.500899971
vt 0.0113000004 0.569800019
vt 0.0113000004 0.505200028
vt 0.204099998 0.388500005
vt 0.255400002 0.35710001
vt 0.243699998 0.388500005
vt 0.192499995 0.35710001
vt 0.204099998 0.325700015
vt 0.243699998 0.325700015
vt 0.245900005 0.456499994
vt 0.1954 0.426999986
vt 0.257400006 0.426999986
vt 0.206799999 0.456499994
vt 0.245900005 0.397500008
vt 0.206799999 0.397500008
vt 0.827400029 0.705299973
vt 0.400700003 0.653999984
vt 0.400700003 0.704999983
vt 0.827400029 0.653999984
vt 0.400700003 0.603100002
vt 0.827400029 0.602800012
vt 0.827400029 0.653999984
vt 0.400700003 0.704999983
vt 0.400700003 0.653999984
vt 0.827400029 0.705299973
vt 0.827400029 0.602800012
vt 0.400700003 0.603100002
vt 0.134599999 0.252000004
vt 0.184900001 0.512199998
vt 0.133200005 0.512000024
vt 0.186299995 0.252299994
vt 0.0754999965 0.216399997
vt 0.118500002 0.432500005
vt 0.0754999965 0.432500005
vt 0.118500002 0.216399997
vt 0.378100008 0.588999987
vt 0.400700003 0.653999984
vt 0.378100008 0.653999984
vt 0.400700003 0.603100002
vt 0.378100008 0.718999982
vt 0.400700003 0.704999983
vt 0.336499989 0.653999984
vt 0.338699996 0.587800026
vt 0.336499989 0.720300019
vt 0.0754999965 0.432500005
vt 0.127900004 0.449999988
vt 0.0661000013 0.449999988
vt 0.118500002 0.432500005
vt 0.127900004 0.484499991
vt 0.0661000013 0.484499991
vt 0.400700003 0.653999984
vt 0.378100008 0.588999987
vt 0.378100008 0.653999984
vt 0.400700003 0.603100002
vt 0.378100008 0.718999982
vt 0.400700003 0.704999983
vt 0.338699996 0.587800026
vt 0.336499989 0.653999984
vt 0.336499989 0.720300019
vt 0.133200005 0.512000024
vt 0.196199998 0.533299983
vt 0.121699996 0.532899976
vt 0.184900001 0.512199998
vt 0.195899993 0.574800014
vt 0.1215 0.574400008
vt 0.305200011 0.127599999
vt 0.389200002 0.0713
vt 0.334500015 0.146699995
vt 0.297899991 0.0856000036
vt 0.269400001 0.0644999966
vt 0.326599985 0.0234999992
vt 0.426999986 0.0148999998
vt 0.563199997 0.0434000008
vt 0.508000016 0.115599997
vt 0.606000006 0.106899999
vt 0.587700009 0.1866
vt 0.404500008 0.158000007
vt 0.441399992 0.211700007
vt 0.606000006 0.106899999
vt 0.508000016 0.115599997
vt 0.587700009 0.1866
vt 0.563199997 0.0434000008
vt 0.389200002 0.0713
vt 0.426999986 0.0148999998
vt 0.404500008 0.158000007
vt 0.441399992 0.211700007
vt 0.326599985 0.0234999992
vt 0.269400001 0.0644999966
vt 0.297899991 0.0856000036
vt 0.305200011 0.127599999
vt 0.334500015 0.146699995
vt 0.798799992 0.503899992
vt 0.875400007 0.461699992
vt 0.864700019 0.503899992
vt 0.791199982 0.461699992
vt 0.87379998 0.440299988
vt 0.792800009 0.440299988
vt 0.799399972 0.415199995
vt 0.866100013 0.415199995
vt 0.858399987 0.543600023
vt 0.807099998 0.543600023
vt 0.854300022 0.397000015
vt 0.811500013 0.397000015
vt 0.700600028 0.414600015
vt 0.77579999 0.461199999
vt 0.712400019 0.460599989
vt 0.78549999 0.415399998
vt 0.707899988 0.546000004
vt 0.777499974 0.546599984
vt 0.694400012 0.371399999
vt 0.789200008 0.372200012
vt 0.883700013 0.467500001
vt 0.95389998 0.399100006
vt 0.95450002 0.467799991
vt 0.884899974 0.398799986
vt 0.890900016 0.514100015
vt 0.946399987 0.514299989
vt 0.939599991 0.559300005
vt 0.897199988 0.559099972
vt 0.855199993 0.0197999999
vt 0.799899995 0.241099998
vt 0.781300008 0.198300004
vt 0.924799979 0.263900012
vt 0.658100009 0.1105
vt 0.658100009 0.197400004
vt 0.658100009 0.0152000003
vt 0.615800023 0.111000001
vt 0.615800023 0.178800002
vt 0.615800023 0.0388000011
vt 0.799899995 0.241099998
vt 0.855199993 0.0197999999
vt 0.781300008 0.198300004
vt 0.924799979 0.263900012
vt 0.658100009 0.1105
vt 0.658100009 0.0152000003
vt 0.658100009 0.197400004
vt 0.615800023 0.111000001
vt 0.615800023 0.178800002
vt 0.615800023 0.0388000011
vt 0.771600008 0.256300002
vt 0.688000023 0.212599993
vt 0.771700025 0.221599996
vt 0.68779999 0.260800004
vt 0.658200026 0.202399999
vt 0.657999992 0.270599991
vt 0.581200004 0.201399997
vt 0.58099997 0.270999998
vt 0.5528 0.257800013
vt 0.552900016 0.214499995
vt 0.483200014 0.299499989
vt 0.547399998 0.248999998
vt 0.531799972 0.292800009
vt 0.45629999 0.261599988
vt 0.472299993 0.214000002
vt 0.518899977 0.207599998
vt 0.774500012 0.316300005
vt 0.842400014 0.254599988
vt 0.842199981 0.327899992
vt 0.774699986 0.26699999
vt 0.74940002 0.306800008
vt 0.749499977 0.276199996
vt 0.604799986 0.0588999987
vt 0.536199987 0.00779999979
vt 0.617200017 0.0140000004
vt 0.531799972 0.0233999994
vt 0.959699988 0.123800002
vt 0.991599977 0.341500014
vt 0.991599977 0.123800002
vt 0.959699988 0.318300009
vt 0.900399983 0.392199993
vt 0.899900019 0.350199997
vt 0.959699988 0.123800002
vt 0.991599977 0.341500014
vt 0.959699988 0.318300009
vt 0.991599977 0.123800002
vt 0.900399983 0.392199993
vt 0.899900019 0.350199997
vt 0.92869997 0.319599986
vt 0.952300012 0.201900005
vt 0.952300012 0.319599986
vt 0.92869997 0.201900005
vt 0.954900026 0.160999998
vt 0.926100016 0.160999998
vt 0.964999974 0.425300002
vt 0.993099988 0.560000002
vt 0.993099988 0.425300002
vt 0.964999974 0.560000002
vt 0.961899996 0.360700011
vt 0.996200025 0.360700011
vt 0.922200024 0.155599996
vt 0.952600002 0.1193
vt 0.946799994 0.155599996
vt 0.916299999 0.1193
vt 0.875699997 0.270000011
vt 0.895799994 0.315899998
vt 0.875699997 0.315899998
vt 0.895799994 0.270000011
vt 0.921899974 0.271400005
vt 0.916999996 0.317000002
vt 0.854600012 0.317000002
vt 0.849600017 0.271400005
vt 0.875699997 0.270000011
vt 0.895799994 0.315899998
vt 0.895799994 0.270000011
vt 0.875699997 0.315899998
vt 0.0423000008 0.198100001
vt 0.0149999997 0.127599999
vt 0.0392999984 0.136199996
vt 0.00540000014 0.197300002
vt 0.0346999988 0.372599989
vt 0.00820000004 0.372099996
vt 0.0306000002 0.406500012
vt 0.0105999997 0.406100005
vt 0.0702999979 0.0447999984
vt 0.0529000014 0.0386000015
vt 0.149200007 0.0847000033
vt 0.149100006 0.104000002
vt 0.165000007 0.108999997
vt 0.156800002 0.190599993
vt 0.143099993 0.190500006
vt 0.148900002 0.204500005
vt 0.0869999975 0.0844999999
vt 0.0869000033 0.103799999
vt 0.0710999966 0.108800001
vt 0.0788000003 0.190400004
vt 0.0926000029 0.190400004
vt 0.0866999999 0.204400003
vt 0.0943000019 0.0401999988
vt 0.142000005 0.0403000005
vt 0.189199999 0.0803999975
vt 0.1734 0.109099999
vt 0.189199999 0.104199998
vt 0.180899993 0.190200001
vt 0.194600001 0.190300003
vt 0.188700005 0.204099998
vt 0.250999987 0.0806000009
vt 0.2509 0.104400001
vt 0.244800001 0.190500006
vt 0.250699997 0.204300001
vt 0.2667 0.109399997
vt 0.25850001 0.190500006
vt 0.196600005 0.0337000005
vt 0.244000003 0.0339000002
vt 0.0617999993 0.0329999998
vt 0.135199994 0.00939999986
vt 0.0617000014 0.0074
vt 0.135299996 0.0276999995
vt 0.177900001 0.00889999978
vt 0.178000003 0.0273000002
vt 0.25150001 0.0309999995
vt 0.251399994 0.00540000014
vt 0.0474000014 0.126900002
vt 0.0667999983 0.264400005
vt 0.0667999983 0.126900002
vt 0.0474000014 0.264400005
vt 0.0423000008 0.198100001
vt 0.0149999997 0.127599999
vt 0.00540000014 0.197300002
vt 0.0392999984 0.136199996
vt 0.0346999988 0.372599989
vt 0.00820000004 0.372099996
vt 0.0306000002 0.406500012
vt 0.0105999997 0.406100005
vt 0.0702999979 0.0447999984
vt 0.0529000014 0.0386000015
vt 0.288700014 0.0913000032
vt 0.270099998 0.199699998
vt 0.288700014 0.199699998
vt 0.270099998 0.0913000032
vt 0.0617999993 0.0329999998
vt 0.00899999961 0.00779999979
vt 0.00910000037 0.0333999991
vt 0.0617000014 0.0074
vn -0.980995005 -0.192105546 0.0272811232
vn -0.99897272 0.0233476876 0.0388379905
vn -0.983966265 -0.165439529 0.0666344669
vn -0.994530006 -0.064564355 0.0821067088
vn -0.687284683 0.725491832 0.0360744473
vn -0.683925704 0.728688458 0.0354790349
vn -0.972416265 -0.196553313 0.125592205
vn -0.985399239 -0.161000942 0.0553808387
vn -0.871907743 -0.484526016 0.0707914295
vn -0.912648353 -0.407235605 0.0351019286
vn 0 1 2.12816919e-16
vn 0 1 2.12816919e-16
vn 0 1 2.12816919e-16
vn 0 1 2.12816919e-16
vn 0 -1 -4.13425667e-16
vn 0 -0.899076074 -0.437792431
vn 0 -0.921391046 -0.388636771
vn 0 -1 -4.13425667e-16
vn 0 -0.999203895 0.0398945681
vn 0 -0.998744468 0.0500947815
vn 0 -0.86241468 0.506202449
vn 0 -0.972175748 0.234252675
vn 0 -1 -5.46993904e-16
vn 0 -1 -5.46993904e-16
vn 0 -0.0811101217 -0.996705146
vn 0 0.0203938592 -0.999792024
vn 0 -0.0982994963 -0.995156877
vn 0 0.0607327315 -0.998154064
vn 0 0.39114085 -0.92033083
vn 0 0.39114085 -0.92033083
vn 0 -0.703468179 -0.710726756
vn 0 -0.703468179 -0.710726756
vn 0.998972719 0.0233477111 0.0388380132
vn 0.687284683 0.725491832 0.0360744473
vn 0.683925455 0.728688695 0.0354789907
vn 0.994530004 -0.064564335 0.0821067508
vn 0.983966274 -0.165439473 0.0666344671
vn 0.972416278 -0.196553222 0.125592247
vn 0.985399242 -0.161000883 0.0553809483
vn 0.980995005 -0.192105546 0.0272811232
vn 0.871907821 -0.484525886 0.0707913682
vn 0.912648485 -0.40723532 0.0351017997
vn 0 0.0359745807 0.999352705
vn 0 0.37138953 0.928477149
vn 0 0.37138953 0.928477149
vn 0 0.0334422343 0.999440652
vn 0 0.0031057925 0.999995177
vn 0 0.0031057925 0.999995177
vn 0.996216734 -0.0868759798 -0.00218713266
vn 0.998021662 -0.0619149786 -0.0109223834
vn 0.998766282 -0.048991841 -0.00810637164
vn 0.989685265 -0.142223753 0.0171895512
vn 0.998590718 -0.0530713821 -8.31294932e-05
vn 0.998586412 -0.0531523995 0
vn 0.957567776 -0.286125922 0.0345819602
vn -0.996216727 -0.0868760585 -0.00218713852
vn -0.998021657 -0.0619150537 -0.0109223966
vn -0.989685249 -0.142223863 0.0171895644
vn -0.998766279 -0.0489919006 -0.00810638149
vn -0.998590714 -0.0530714466 -8.31295942e-05
vn -0.998586409 -0.0531524641 0
vn -0.957567739 -0.286126043 0.0345819748
vn 0 0.938165285 0.346187663
vn 0 0.423970249 0.905676117
vn 0 0.188316507 0.982108392
vn 0 0.992059592 0.125768703
vn 0 -1.93582392e-16 1
vn 0 -1.93582392e-16 1
vn 0 1 1.85394877e-16
vn 0 1 1.85394877e-16
vn 0 -0.974722298 -0.223419878
vn 0 -0.999988328 -0.00483148025
vn 0 -0.999988328 -0.00483148025
vn 0 -0.822304042 -0.569048383
vn 0 -0.296099145 -0.95515721
vn 0 -0.296099145 -0.95515721
vn 0 -0.912379779 0.409344768
vn 0 -0.912379779 0.409344768
vn 0 -0.912379779 0.409344768
vn 0 -0.912379779 0.409344768
vn 0.987112676 -0.157499909 0.0283256617
vn 0.993368307 -0.113001848 0.0212129321
vn 0.986813418 -0.159616899 0.0268648963
vn 0.990230442 -0.139440566 -2.32394811e-17
vn 0.995529806 -0.0932082372 0.0152522354
vn 1 0 0
vn 0.982476593 -0.186383888 0.000889545479
vn 0.981933591 -0.189225853 -4.73792504e-17
vn -0.993222532 -0.114165939 0.0217977277
vn -0.986601889 -0.160402199 0.0297967616
vn -0.986662645 -0.160422034 0.0275970187
vn -0.989949497 -0.141421335 -4.04362548e-17
vn -0.995529806 -0.0932082372 0.0152522354
vn -1 0 0
vn -0.982476593 -0.186383888 0.000889545479
vn -0.981933591 -0.189225853 -4.73792504e-17
vn 0 2.17681144e-16 -1
vn 0 2.17681144e-16 -1
vn 0 2.17681144e-16 -1
vn 0 2.17681144e-16 -1
vn 0 0.95043149 0.310934049
vn 0 0.897979225 0.440037853
vn 0 0.995712167 0.0925055753
vn 0 0.985162205 0.171625842
vn 0 1 1.66662269e-16
vn 0 1 1.66662269e-16
vn 0 1 2.50384658e-16
vn 0 1 2.50384658e-16
vn 0 -0.999999226 0.00124401011
vn 0 -0.999999226 0.00124401011
vn 0 -0.999999226 0.00124401011
vn 0 -0.999999226 0.00124401011
vn 0 -0.245282719 0.969451591
vn 0 -0.644205975 0.764852052
vn 0 -0.245282719 0.969451591
vn 0 -0.929927698 0.367742405
vn 0 -0.894873073 0.446320719
vn 0 -0.436990967 0.899465894
vn 0 -0.0156229323 0.999877955
vn 0 -0.0156229323 0.999877955
vn 0.999106952 0.0420779713 -0.00383962328
vn 0.999324474 0.0365359106 -0.00396512093
vn 0.999475588 0.0315191404 -0.00742244744
vn 0.999219258 0.0395079014 9.73224672e-18
vn 0.999750464 -0.0208399432 0.00804400533
vn 0.999809808 -0.0182419219 0.0068977797
vn 0.998521258 0.0522006232 -0.0151787082
vn 0.989097796 0.143966042 -0.0309730176
vn 0.959165369 0.275259608 -0.0650687571
vn 0.929537537 0.368084989 -0.0217579564
vn -0.999179736 0.0403275869 -0.00367990036
vn -0.999370781 0.0352594696 -0.00384867648
vn -0.999282899 0.0378640815 9.32731352e-18
vn -0.999499638 0.0307820706 -0.00727586754
vn -0.999750465 -0.0208399016 0.00804399359
vn -0.999809809 -0.0182418784 0.00689776325
vn -0.99852126 0.0522005806 -0.0151786947
vn -0.989097807 0.143965972 -0.0309730012
vn -0.959165399 0.275259508 -0.0650687336
vn -0.929537586 0.368084864 -0.0217579491
vn 0 0.0427947925 0.999083883
vn 0 0.107093207 0.994248985
vn 0 0.0427947925 0.999083883
vn 0 0.190357053 0.981714924
vn 0 0.255388571 0.966838496
vn 0 0.193653711 0.981069947
vn 0 0.380364905 0.924836493
vn 0 0.556220422 0.831034802
vn 0 0.742908761 0.66939269
vn 0 0.742908761 0.66939269
vn 0 0.000890759155 -0.999999603
vn 0 0.074696922 -0.997206282
vn 0 -0.0963308065 -0.995349374
vn 0 0.074696922 -0.997206282
vn 0 -0.303579401 -0.952806144
vn 0 -0.439384535 -0.898299076
vn 0 -0.314461505 -0.949270226
vn 0 -0.106585237 -0.994303569
vn 0 0.147857612 -0.989008658
vn 0 0.147857612 -0.989008658
vn 0 0.998257496 -0.0590082284
vn 0 0.998257496 -0.0590082284
vn 0 0.998257496 -0.0590082284
vn 0 0.998257496 -0.0590082284
vn 0.485608627 0.0722525337 0.871185304
vn 0.64385642 0.514588767 0.566257284
vn 0.858814977 -0.20144035 0.471018705
vn 0.549891285 0.764625625 0.336105978
vn 0.812185985 0.557833295 -0.170809659
vn 0.538568593 0.650963709 -0.534967401
vn 0.819341609 0.0766601078 -0.568157158
vn 0.46324815 -0.159185711 -0.871814809
vn 0.713235158 -0.528593315 -0.460309371
vn 0.398205317 -0.853242684 -0.336763191
vn 0.519832848 -0.827200782 0.213337
vn 0.409468112 -0.737880664 0.536533308
vn -0.896410418 0.443224957 8.72213718e-17
vn -0.986688642 0.1626208 2.53539261e-17
vn -0.896410418 0.443224957 7.90052335e-17
vn -0.986688645 -0.162620777 1.03749548e-08
vn -0.896410512 -0.443224767 1.41385282e-08
vn -0.896410493 -0.443224805 2.8277059e-08
vn 0.986688628 0.162620879 2.98956604e-17
vn 0.688699181 0.725047197 1.36503647e-16
vn 0.986688634 -0.162620846 1.03749592e-08
vn 0.344198459 0.938896917 1.64507363e-16
vn 0 1 1.78250868e-16
vn 0 1 1.78250868e-16
vn 0.688699374 -0.725047013 3.53944475e-08
vn 0.344198653 -0.938896846 5.99001708e-08
vn 0 -1 6.37984578e-08
vn 0 -1 6.37984578e-08
vn 0 0 -1
vn 0 0 -1
vn 0 0 -1
vn 0 0 -1
vn 0 0 -1
vn 0 0 -1
vn -0.937812126 0.296842043 0.179981161
vn -0.982052001 5.9651069e-18 0.188610361
vn -0.970337226 0 0.241755388
vn -0.968198591 0.220318705 0.118537574
vn -0.937894979 -0.296409493 0.180262089
vn -0.968145353 -0.220306477 0.118994252
vn 0.981884075 -9.7714955e-09 0.189482621
vn 0.938032677 0.295591184 0.18088822
vn 0.969875547 0 0.24360095
vn 0.968884416 0.217454918 0.1182216
vn 0.938114468 -0.295160049 0.181167849
vn 0.968832003 -0.217442943 0.118672303
vn 0 0.99067028 0.136280578
vn 0 0.99067028 0.136280578
vn 0 0.99067028 0.136280578
vn 0 0.99067028 0.136280578
vn -3.90456877e-08 -0.990387039 0.138323945
vn -3.90456877e-08 -0.990387039 0.138323945
vn 0 -0.990387034 0.138323981
vn -8.64410282e-08 -0.990387045 0.138323901
vn 0.660489601 0.737689833 -0.139882801
vn 0.992206131 1.06468348e-16 -0.124607359
vn 0.992277425 8.27378149e-17 -0.124038349
vn 0.284601301 0.949064737 -0.135196984
vn 0 0.993047364 -0.117715473
vn 0 0.993047364 -0.117715473
vn 0.498841074 -0.85488963 -0.142552812
vn 0.497926801 -0.855357521 -0.142941989
vn 0 -0.992795254 -0.119823133
vn 0 -0.992795254 -0.119823133
vn -0.926746032 0.357631249 -0.115072508
vn -0.992351294 9.12719353e-17 -0.123445974
vn -0.92733844 0.356374584 -0.114195333
vn -0.992277425 5.51585433e-17 -0.124038349
vn -0.926480452 -0.358192581 -0.11546448
vn -0.926749266 -0.357624396 -0.115067758
vn 0 0 -1
vn 0 0 -1
vn 0 0 -1
vn 0 0 -1
vn 0 0 -1
vn 0 0 -1
vn 0 0 -1
vn 0 0 -1
vn 0 0 -1
vn 0 0 -1
vn 0 0 -1
vn 0 0 -1
vn 0 0 1
vn 0 0 1
vn 0 0 1
vn 0 0 1
vn 0 0 1
vn 0 0 1
vn -0.590938191 0.231849852 0.772682147
vn -0.986712001 0 0.162479008
vn -0.588665862 0 0.808376461
vn -0.92102319 0.358322763 0.152712412
vn -0.590937816 -0.23185044 0.772682258
vn -0.921022825 -0.35832375 0.152712296
vn -0.625072004 -2.38658834e-17 0.780567095
vn -0.612729749 -0.345309768 0.71086104
vn -0.761576785 -0.424254622 -0.489906947
vn -0.36596575 -1.67264208e-17 -0.93062832
vn -0.761576499 0.424253435 -0.489908419
vn -0.612730331 0.345309259 0.710860786
vn -0.429354999 -0.168954627 -0.887191422
vn -0.432956049 -6.30800339e-18 -0.901415032
vn -0.924135431 -1.48742909e-17 -0.382065055
vn -0.870046841 -0.338351402 -0.358520325
vn -0.429354312 0.168954311 -0.887191815
vn -0.870046933 0.338351334 -0.358520167
vn 0.986712001 0 0.162479008
vn 0.590938692 0.231849822 0.772681773
vn 0.588666654 0 0.808375884
vn 0.921023102 0.35832286 0.152712718
vn 0.590938719 -0.23185096 0.772681411
vn 0.921022737 -0.358323848 0.152712601
vn 0.625072069 -8.46938622e-08 0.780567043
vn 0.612730701 0.345309062 0.710860562
vn 0.761575812 0.424253138 -0.489909743
vn 0.365964359 -5.2270052e-19 -0.930628867
vn 0.761575759 -0.424254127 -0.48990897
vn 0.612729752 -0.345309963 0.710860943
vn 0.429354377 0.168954364 -0.887191773
vn 0.432956197 6.30800556e-18 -0.901414961
vn 0.92413565 0 -0.382064524
vn 0.429355064 -0.168954681 -0.88719138
vn 0.870046909 -0.338351562 -0.358520008
vn 0.870047001 0.338351494 -0.358519849
vn 0 0.987889761 0.155157406
vn 0 0.897979889 0.440036497
vn 0 0.54289345 0.839801585
vn 0 0.987889761 0.155157406
vn 0 0.534082531 0.845432345
vn 0 0.90402168 0.42748661
vn 0 0.896707859 -0.442622881
vn 0 0.516001303 -0.856587798
vn 0 0.384430836 -0.923153797
vn 0 0.746748325 -0.665106713
vn 0 0.929689649 -0.368343802
vn 0 0.929689649 -0.368343802
vn 0 -0.987889859 0.155156778
vn 0 -0.897980287 0.440035684
vn 2.69674186e-07 -0.542894485 0.839800915
vn 0 -0.987889859 0.155156778
vn 2.99713681e-07 -0.534082195 0.845432558
vn 2.6947242e-07 -0.904021326 0.42748736
vn -4.92180971e-22 -0.896709361 -0.442619839
vn 0 -0.516005247 -0.856585422
vn 0 -0.384433676 -0.923152614
vn 0 -0.746750101 -0.665104719
vn 0 -0.929689503 -0.36834417
vn 0 -0.929689503 -0.36834417
vn 0 0 -1
vn 1.00426449e-07 -1.71789014e-07 -1
vn 0 0 -1
vn 0 0 -1
vn 2.00593365e-07 -3.43134072e-07 -1
vn 5.19737011e-07 -8.89059698e-07 -1
vn 0 0 1
vn 0 0 1
vn 0 0 1
vn 0 0 1
vn 0 0 1
vn 0 0 1
vn -0.927423094 0.363355834 0.0886506801
vn -0.99075585 0.0970198667 0.0948155615
vn -0.927423058 0.36335593 0.0886506568
vn -0.981916381 -0.164290169 0.0940689133
vn -0.927854506 -0.362174827 0.0889685984
vn -0.92785458 -0.362174648 0.0889685486
vn 0.981885513 0.164546859 0.0939423833
vn 0.927423012 0.36335563 0.088652368
vn 0.990757412 -0.0969296636 0.0948914644
vn 0.927423071 0.36335549 0.0886523291
vn 0.927854423 -0.362174623 0.0889702869
vn 0.927854379 -0.362174744 0.0889702573
vn 0 0.99593493 0.0900756122
vn 0 0.99593493 0.0900756122
vn 0 0.99593493 0.0900756122
vn 0 0.99593493 0.0900756122
vn 0 -0.995835972 0.0911631299
vn 0 -0.995835972 0.0911631299
vn 0 -0.995835972 0.0911631299
vn 0 -0.995835972 0.0911631299
vn 0.826565541 -0.32252063 0.461269824
vn 0.333411232 3.52817395e-07 0.942781497
vn 0.904619502 0.0987453689 0.414623816
vn 0.330622116 -0.129053635 0.934897949
vn 0.703187488 0.275138541 0.655611271
vn 0.330204968 0.129371246 0.935001476
vn 0.991633751 -0.129083321 -3.62872313e-07
vn 0.931597435 -0.363491703 -2.04577313e-07
vn 0.931278249 0.364308691 -3.06760561e-07
vn -2.87454938e-07 -0.34849735 0.937309766
vn -2.0346702e-07 -0.74822171 0.663448771
vn -1.67665462e-07 -0.946536494 0.322596754
vn 0 -0.348496423 0.93731011
vn 0 -1 0
vn 0 -1 0
vn -0.333412715 0 0.942780972
vn -0.703410319 -0.274472133 0.655651562
vn -0.904738201 -0.0986868342 0.414378686
vn -0.330623773 -0.129054343 0.934897266
vn -0.826300825 0.323282333 0.461210885
vn -0.330204876 0.129371271 0.935001505
vn -0.931597435 -0.363491703 0
vn -0.991619471 0.129192972 2.64221532e-17
vn -0.931278263 0.364308656 7.45072967e-17
vn 0 0.348501292 0.9373083
vn 0 0.748225282 0.663444743
vn 0 0.946537475 0.322593874
vn 0 0.348501292 0.9373083
vn 0 1 2.04516954e-16
vn 0 1 2.04516954e-16
vn 0.688667845 0.720556183 -0.0808417339
vn 0.635416293 0.771070842 0.0411812034
vn 0.368897159 0.909247348 0.192831911
vn 0.838528468 0.517624944 -0.170101225
vn 0.776875428 0.590669354 -0.218115297
vn 0.79121929 0.596485022 -0.134824528
vn 0.786018254 0.610008649 0.100323241
vn 0.657452133 0.721220639 0.218168473
vn 0.373047538 0.919230137 0.125902699
vn 0.394615583 0.863681437 0.3135808
vn 0.226932866 0.967185965 0.114248783
vn 0.24701673 0.967791395 0.0486060817
vn 0.40300195 0.907883467 0.115486096
vn -0.62758906 -0.757294701 0.180656324
vn -0.672148206 -0.740028279 -0.023977816
vn -0.805581461 -0.591307937 -0.0373287132
vn -0.370523411 -0.926051569 0.071700024
vn -0.426733362 -0.89604647 -0.122471878
vn -0.231781404 -0.97181793 -0.0429801315
vn -0.782910337 -0.610078854 -0.12188189
vn -0.717264158 -0.693900832 -0.0635119115
vn -0.20524022 -0.938867413 -0.276413518
vn -0.19455868 -0.912868033 -0.358913464
vn -0.13274327 -0.942968231 -0.3052706
vn -0.408675304 -0.88214055 -0.234120791
vn -0.685624523 -0.727809538 -0.0145702042
vn -0.661066822 0.482820005 -0.57434789
vn -0.778183423 0.534632303 -0.329543412
vn -0.629614533 0.468277114 -0.619921031
vn -0.731013868 0.514076485 -0.44871382
vn -0.303864519 0.282688505 -0.90980963
vn -0.284980741 0.275148028 -0.918193629
vn -0.172153524 0.204343118 -0.963642597
vn -0.230775152 0.237085456 -0.943680728
vn -0.306533586 0.28424283 -0.908428959
vn -0.305179571 0.284331522 -0.908856983
vn -0.581173782 0.443253835 -0.682468368
vn -0.582880444 0.44566188 -0.679437912
vn -0.136934002 -0.00336417121 0.99057446
vn -0.781213632 0.472356521 0.408147742
vn -0.79051103 0.481159375 0.378916834
vn 0.100241264 -0.157300469 0.982450127
vn -0.837244682 0.546808243 0.00469967224
vn -0.837244168 0.546809025 0.00470028849
vn 0.322887739 -0.294918235 0.899314596
vn 0.32270307 -0.294436056 0.899538847
vn 0.795164839 -0.544630446 0.266628125
vn 0.77022664 -0.535735641 0.346032146
vn 0.816583962 -0.550117558 0.174817918
vn 0.770344463 -0.535630979 0.345931875
vn 0.83256732 -0.528868039 -0.164712641
vn 0.828413211 -0.523215006 -0.199944014
vn 0.736496355 -0.433088173 -0.519622703
vn 0.73746096 -0.432675993 -0.518596971
vn 0.49536901 0.849663095 0.180782106
vn 0.364021824 0.912485513 0.186703777
vn 0.280616195 0.928735456 0.242291154
vn 0.377862944 0.913707197 0.149528436
vn 0.517881827 0.852952704 0.0653459875
vn 0.104625709 0.973271054 -0.204442943
vn 0.845360211 0.507475217 -0.166838299
vn 0.429402006 0.646057059 -0.631050072
vn 0.0734622843 0.78676327 -0.612867727
vn 0.684443224 0.400148039 -0.609441565
vn -0.698062469 -0.715286837 -0.0327647664
vn -0.592073856 -0.805556535 -0.0229612103
vn -0.759963338 -0.64682758 0.0637950349
vn -0.688108507 -0.721892003 -0.0733390663
vn -0.575633347 -0.807936482 -0.126035279
vn -0.112853974 -0.935348242 -0.335242667
vn -0.813767958 -0.456550158 -0.3596438
vn -0.354824346 -0.551195566 -0.755170929
vn -0.614243224 -0.321798487 -0.720521336
vn -0.0626340346 -0.68847082 -0.722554432
vn -0.804889297 0.550084524 -0.222621282
vn -0.760306511 0.536343518 -0.366428221
vn -0.804857012 0.550149813 -0.222576669
vn -0.625803871 0.475670939 -0.618147775
vn -0.714655449 0.517906208 -0.470149709
vn -0.80806863 0.550829756 -0.20883407
vn -0.812225529 0.551489025 -0.190130335
vn -0.807262899 0.550436286 -0.212947195
vn -0.621486627 0.473725537 -0.623969941
vn -0.619561204 0.474041638 -0.625642421
vn 0.0372337855 0.068612221 -0.996948348
vn 0.0383976133 0.0673912133 -0.996987486
vn 0.025475105 0.0931457848 -0.99532652
vn 0.035260644 0.0613466457 -0.997493497
vn 0.0394862708 0.0662487914 -0.99702153
vn 0.0633429338 0.0665177558 -0.995772595
vn 0.837957677 -0.545280191 -0.022281025
vn 0.835033944 -0.549291658 0.0315750987
vn 0.835051921 -0.549262861 0.0316006122
vn 0.835030122 -0.529557712 -0.14930949
vn 0.671440785 -0.368595375 -0.642887799
vn 0.670626363 -0.368630635 -0.643717125
vn 0.133303607 -0.191458852 0.972406117
vn 0.133303607 -0.191458852 0.972406117
vn 0.133442599 -0.191357119 0.972407078
vn 0.132906076 -0.191749772 0.972403209
vn 0.979190878 0.202941431 4.6910577e-17
vn 0.982888328 0.181817753 0.0295438499
vn 0.979190878 0.202941431 4.8463606e-17
vn 0.982779145 0.167615072 0.0777839307
vn 0.979223025 0.131274758 0.154561332
vn 0.967924739 0.16935441 0.185582284
vn -0.980188042 0.198069184 4.32221042e-17
vn -0.983728683 0.177306424 0.0289881127
vn -0.983408684 0.164229832 0.0770449455
vn -0.980188042 0.198069184 4.24488393e-17
vn -0.979700545 0.129447141 0.153069529
vn -0.967924667 0.16935459 0.185582491
vn 0 -1 -2.22587226e-16
vn 0 -0.990063792 -0.140618946
vn 0 -1 -2.22587226e-16
vn 0 -0.894124618 -0.447818229
vn 0 -0.468218 -0.883612983
vn 0 -0.468218 -0.883612983
vn 0 0.982588054 0.185797515
vn 0 1 2.18736391e-16
vn 0 0.849471786 0.527634045
vn 0 1 2.18736391e-16
vn 0 0.476232592 0.87931935
vn 0 0.476232592 0.87931935
vn 0 0 -1
vn 0 0 -1
vn 0 0 -1
vn 0 0 -1
vn 0.646868864 0.0355216787 -0.761773511
vn 0.646868864 0.0355216787 0.761773511
vn 0.688257186 0.0377944464 -0.724481625
vn 0.608595771 0.0334199783 0.792776319
vn 0 0 1
vn 0 0 1
vn 0 0 -1
vn 0 0 -1
vn -0.998495673 0.0548305707 9.61914421e-18
vn -0.998495673 0.0548305707 9.61914421e-18
vn -0.998495673 0.0548305707 1.92382884e-17
vn -0.998495673 0.0548305707 0
vn 0.981148299 -0.190215681 -0.0341468927
vn 0.934355083 -0.349270884 -0.0706429677
vn 0.937439559 -0.348121847 -0.00427222904
vn 0.999827835 -0.0138913778 -0.012301632
vn 0.979783984 0.18832345 0.0675101689
vn 0.952882139 0.291211394 0.0849208623
vn 0.819448922 0.551503061 0.156037937
vn 0.811936031 0.56579093 0.14366804
vn 0.979209088 -0.202049743 -0.0180406131
vn 0.977749451 -0.205836522 -0.0404640238
vn 0.00167061159 -0.164298071 0.986409323
vn -0.0078599969 -0.397504307 0.917566644
vn -0.0292412797 -0.303473336 0.952391139
vn -0.0246716831 -0.235064372 0.971666635
vn 0 -0.223642647 0.974671209
vn 0 -0.204532424 0.978859789
vn -0.00192876995 -0.274151072 0.961684704
vn 0.0108799117 -0.361399281 0.932347675
vn 0.0293661017 -0.303485673 0.952383367
vn 0.0247213219 -0.235080354 0.971661507
vn 0 -0.217515793 0.976056802
vn 0 -0.204532424 0.978859789
vn 0 -0.0612618405 0.998121729
vn 0 -0.0612618405 0.998121729
vn 0.00387588356 0.0951581827 -0.995454619
vn 0.0337353518 0.289758489 -0.956505067
vn 0.00826182149 0.268233891 -0.963318391
vn 0.0131399959 0.316119026 -0.948628537
vn 0 0.341630937 -0.939834189
vn 0 0.372012517 -0.928227713
vn -0.00223426064 0.0987852938 -0.995106263
vn -0.0118425425 0.276896571 -0.96082675
vn 0 0.351392298 -0.936228312
vn 0 0.372012517 -0.928227713
vn -0.03387954 0.289772003 -0.956495877
vn -0.0131663834 0.316141797 -0.948620583
vn 0 -0.00772758092 -0.999970142
vn 0 -0.00772758092 -0.999970142
vn -0.994460858 -0.0982378774 -0.0373754082
vn -0.897501351 -0.419673339 -0.135519791
vn -0.994537433 -0.0956598868 -0.041766974
vn -0.457087436 -0.850135306 -0.261421188
vn 0.751282244 -0.62927013 -0.198982644
vn 0.697363385 -0.685059748 -0.210659564
vn 0.994329306 -0.0993943087 -0.037815382
vn 0.994407684 -0.0967861472 -0.0422587213
vn 0 0.969240943 0.246113783
vn 0 0.969240943 0.246113783
vn 0 0.969240943 0.246113783
vn 0 0.969240943 0.246113783
vn -0.981376163 -0.18908836 -0.0338588184
vn -0.93471968 -0.348342837 -0.0704016104
vn -0.999838257 -0.0133410186 -0.012061406
vn -0.937752286 -0.347278688 -0.00426188161
vn -0.979886705 0.187841127 0.067362868
vn -0.953381803 0.289696359 0.0844935381
vn -0.821831259 0.548211044 0.15510652
vn -0.814384994 0.56247473 0.142825976
vn -0.979209071 -0.202049824 -0.0180406204
vn -0.977749433 -0.205836605 -0.04046404
vn 0 -0.981220094 -0.192891489
vn 0 -0.981220094 -0.192891489
vn 0 -0.981220094 -0.192891489
vn 0 -0.981220094 -0.192891489
vn 0 0.916453395 0.400141443
vn 0 0.916453395 0.400141443
vn 0 0.916453395 0.400141443
vn 0 0.916453395 0.400141443

g polySurface236_submesh_0
usemtl M-27B1-Newlambert9
f 1/1/1 3/3/3 2/2/2
f 3/3/3 4/4/4 2/2/2
f 5/5/5 2/2/2 4/4/4
f 5/5/5 6/6/6 2/2/2
f 4/4/4 3/3/3 7/7/7
f 4/4/4 7/7/7 8/8/8
f 3/3/3 1/1/1 9/9/9
f 3/3/3 9/9/9 10/10/10
f 11/11/11 13/13/13 12/12/12
f 11/11/11 12/12/12 14/14/14
f 15/15/15 17/17/17 16/16/16
f 15/15/15 16/16/16 18/18/18
f 19/19/19 16/16/16 17/17/17
f 19/19/19 20/20/20 16/16/16
f 19/19/19 21/21/21 20/20/20
f 19/19/19 22/22/22 21/21/21
f 22/22/22 23/23/23 21/21/21
f 22/22/22 24/24/24 23/23/23
f 25/25/25 27/27/27 26/26/26
f 25/25/25 26/26/26 28/28/28
f 28/28/28 26/26/26 29/29/29
f 28/28/28 29/29/29 30/30/30
f 31/31/31 27/27/27 25/25/25
f 31/31/31 25/25/25 32/32/32
f 33/33/33 35/35/35 34/34/34
f 33/33/33 34/34/34 36/36/36
f 33/33/33 36/36/36 37/37/37
f 36/36/36 38/38/38 37/37/37
f 36/36/36 39/39/39 38/38/38
f 40/40/40 33/33/33 37/37/37
f 41/41/41 40/40/40 37/37/37
f 41/41/41 37/37/37 42/42/42
f 43/43/43 45/45/45 44/44/44
f 43/43/43 44/44/44 46/46/46
f 43/43/43 46/46/46 47/47/47
f 43/43/43 47/47/47 48/48/48
f 49/49/49 51/51/51 50/50/50
f 49/49/49 50/50/50 52/52/52
f 53/53/53 51/51/51 49/49/49
f 53/53/53 54/54/54 51/51/51
f 55/55/55 49/49/49 52/52/52
f 56/56/56 58/58/58 57/57/57
f 56/56/56 57/57/57 59/59/59
f 60/60/60 56/56/56 59/59/59
f 60/60/60 59/59/59 61/61/61
f 58/58/58 56/56/56 62/62/62
f 63/63/63 65/65/65 64/64/64
f 63/63/63 64/64/64 66/66/66
f 65/65/65 67/67/67 64/64/64
f 65/65/65 68/68/68 67/67/67
f 69/69/69 63/63/63 66/66/66
f 69/69/69 66/66/66 70/70/70
f 71/71/71 73/73/73 72/72/72
f 71/71/71 72/72/72 74/74/74
f 75/75/75 71/71/71 74/74/74
f 75/75/75 74/74/74 76/76/76
f 77/77/77 79/79/79 78/78/78
f 77/77/77 78/78/78 80/80/80
f 81/81/81 83/83/83 82/82/82
f 81/81/81 82/82/82 84/84/84
f 85/85/85 82/82/82 83/83/83
f 85/85/85 86/86/86 82/82/82
f 83/83/83 87/87/87 85/85/85
f 83/83/83 88/88/88 87/87/87
f 89/89/89 91/91/91 90/90/90
f 89/89/89 90/90/90 92/92/92
f 89/89/89 93/93/93 91/91/91
f 89/89/89 94/94/94 93/93/93
f 91/91/91 93/93/93 95/95/95
f 91/91/91 95/95/95 96/96/96
f 97/97/97 99/99/99 98/98/98
f 97/97/97 98/98/98 100/100/100
f 101/101/101 103/103/103 102/102/102
f 101/101/101 102/102/102 104/104/104
f 104/104/104 102/102/102 105/105/105
f 104/104/104 105/105/105 106/106/106
f 107/107/107 103/103/103 101/101/101
f 107/107/107 108/108/108 103/103/103
f 109/109/109 111/111/111 110/110/110
f 109/109/109 110/110/110 112/112/112
f 113/113/113 115/115/115 114/114/114
f 113/113/113 114/114/114 116/116/116
f 116/116/116 114/114/114 117/117/117
f 116/116/116 117/117/117 118/118/118
f 118/118/118 117/117/117 119/119/119
f 118/118/118 119/119/119 120/120/120
f 121/121/121 123/123/123 122/122/122
f 121/121/121 122/122/122 124/124/124
f 123/123/123 125/125/125 122/122/122
f 123/123/123 126/126/126 125/125/125
f 127/127/127 125/125/125 126/126/126
f 127/127/127 128/128/128 125/125/125
f 129/129/129 128/128/128 127/127/127
f 129/129/129 130/130/130 128/128/128
f 131/131/131 133/133/133 132/132/132
f 131/131/131 132/132/132 134/134/134
f 134/134/134 132/132/132 135/135/135
f 134/134/134 135/135/135 136/136/136
f 135/135/135 137/137/137 136/136/136
f 135/135/135 138/138/138 137/137/137
f 138/138/138 139/139/139 137/137/137
f 138/138/138 140/140/140 139/139/139
f 141/141/141 143/143/143 142/142/142
f 141/141/141 142/142/142 144/144/144
f 144/144/144 142/142/142 145/145/145
f 144/144/144 145/145/145 146/146/146
f 146/146/146 145/145/145 147/147/147
f 146/146/146 147/147/147 148/148/148
f 148/148/148 147/147/147 149/149/149
f 148/148/148 149/149/149 150/150/150
f 151/151/151 153/153/153 152/152/152
f 151/151/151 152/152/152 154/154/154
f 155/155/155 153/153/153 151/151/151
f 155/155/155 156/156/156 153/153/153
f 157/157/157 156/156/156 155/155/155
f 157/157/157 158/158/158 156/156/156
f 159/159/159 158/158/158 157/157/157
f 159/159/159 160/160/160 158/158/158
f 161/161/161 163/163/163 162/162/162
f 161/161/161 162/162/162 164/164/164
f 165/165/165 167/167/167 166/166/166
f 165/165/165 166/166/166 168/168/168
f 168/168/168 166/166/166 169/169/169
f 167/167/167 169/169/169 166/166/166
f 168/168/168 169/169/169 170/170/170
f 170/170/170 169/169/169 171/171/171
f 167/167/167 171/171/171 169/169/169
f 170/170/170 171/171/171 172/172/172
f 172/172/172 171/171/171 173/173/173
f 167/167/167 173/173/173 171/171/171
f 172/172/172 173/173/173 174/174/174
f 174/174/174 173/173/173 175/175/175
f 167/167/167 175/175/175 173/173/173
f 174/174/174 175/175/175 176/176/176
f 176/176/176 175/175/175 167/167/167
f 176/176/176 167/167/167 165/165/165
f 177/177/177 179/179/179 178/178/178
f 177/177/177 178/178/178 180/180/180
f 180/180/180 178/178/178 181/181/181
f 180/180/180 181/181/181 182/182/182
f 183/183/183 185/185/185 184/184/184
f 183/183/183 184/184/184 186/186/186
f 186/186/186 184/184/184 187/187/187
f 186/186/186 187/187/187 188/188/188
f 189/189/189 185/185/185 183/183/183
f 189/189/189 190/190/190 185/185/185
f 191/191/191 190/190/190 189/189/189
f 191/191/191 192/192/192 190/190/190
f 193/193/193 195/195/195 194/194/194
f 193/193/193 194/194/194 196/196/196
f 194/194/194 197/197/197 196/196/196
f 194/194/194 198/198/198 197/197/197
f 199/199/199 201/201/201 200/200/200
f 199/199/199 200/200/200 202/202/202
f 200/200/200 201/201/201 203/203/203
f 200/200/200 203/203/203 204/204/204
f 205/205/205 207/207/207 206/206/206
f 205/205/205 206/206/206 208/208/208
f 209/209/209 207/207/207 205/205/205
f 209/209/209 205/205/205 210/210/210
f 211/211/211 213/213/213 212/212/212
f 211/211/211 212/212/212 214/214/214
f 215/215/215 217/217/217 216/216/216
f 215/215/215 216/216/216 218/218/218
f 219/219/219 221/221/221 220/220/220
f 219/219/219 220/220/220 222/222/222
f 223/223/223 219/219/219 222/222/222
f 223/223/223 222/222/222 224/224/224
f 225/225/225 220/220/220 221/221/221
f 225/225/225 226/226/226 220/220/220
f 227/227/227 226/226/226 225/225/225
f 227/227/227 225/225/225 228/228/228
f 229/229/229 231/231/231 230/230/230
f 229/229/229 230/230/230 232/232/232
f 230/230/230 233/233/233 232/232/232
f 230/230/230 234/234/234 233/233/233
f 235/235/235 237/237/237 236/236/236
f 235/235/235 236/236/236 238/238/238
f 236/236/236 239/239/239 238/238/238
f 236/236/236 240/240/240 239/239/239
f 241/241/241 243/243/243 242/242/242
f 241/241/241 242/242/242 244/244/244
f 242/242/242 245/245/245 244/244/244
f 242/242/242 246/246/246 245/245/245
f 247/247/247 249/249/249 248/248/248
f 247/247/247 248/248/248 250/250/250
f 248/248/248 249/249/249 251/251/251
f 248/248/248 251/251/251 252/252/252
f 253/253/253 255/255/255 254/254/254
f 253/253/253 254/254/254 256/256/256
f 254/254/254 255/255/255 257/257/257
f 254/254/254 257/257/257 258/258/258
f 259/259/259 257/257/257 255/255/255
f 253/253/253 259/259/259 255/255/255
f 259/259/259 260/260/260 257/257/257
f 259/259/259 261/261/261 260/260/260
f 259/259/259 262/262/262 261/261/261
f 263/263/263 262/262/262 259/259/259
f 263/263/263 259/259/259 264/264/264
f 253/253/253 264/264/264 259/259/259
f 265/265/265 261/261/261 262/262/262
f 265/265/265 262/262/262 266/266/266
f 267/267/267 265/265/265 266/266/266
f 267/267/267 268/268/268 265/265/265
f 269/269/269 267/267/267 266/266/266
f 262/262/262 263/263/263 269/269/269
f 262/262/262 269/269/269 266/266/266
f 269/269/269 270/270/270 267/267/267
f 271/271/271 273/273/273 272/272/272
f 271/271/271 272/272/272 274/274/274
f 275/275/275 273/273/273 271/271/271
f 275/275/275 271/271/271 276/276/276
f 277/277/277 272/272/272 273/273/273
f 275/275/275 277/277/277 273/273/273
f 277/277/277 278/278/278 272/272/272
f 277/277/277 279/279/279 278/278/278
f 277/277/277 280/280/280 279/279/279
f 281/281/281 280/280/280 277/277/277
f 281/281/281 277/277/277 282/282/282
f 275/275/275 282/282/282 277/277/277
f 283/283/283 279/279/279 280/280/280
f 283/283/283 280/280/280 284/284/284
f 285/285/285 283/283/283 284/284/284
f 286/286/286 285/285/285 284/284/284
f 280/280/280 281/281/281 286/286/286
f 280/280/280 286/286/286 284/284/284
f 286/286/286 287/287/287 285/285/285
f 285/285/285 288/288/288 283/283/283
f 289/289/289 291/291/291 290/290/290
f 289/289/289 290/290/290 292/292/292
f 291/291/291 293/293/293 290/290/290
f 291/291/291 294/294/294 293/293/293
f 294/294/294 295/295/295 293/293/293
f 294/294/294 296/296/296 295/295/295
f 297/297/297 295/295/295 296/296/296
f 297/297/297 296/296/296 298/298/298
f 298/298/298 299/299/299 297/297/297
f 298/298/298 300/300/300 299/299/299
f 301/301/301 303/303/303 302/302/302
f 301/301/301 302/302/302 304/304/304
f 303/303/303 305/305/305 302/302/302
f 303/303/303 306/306/306 305/305/305
f 306/306/306 307/307/307 305/305/305
f 306/306/306 308/308/308 307/307/307
f 309/309/309 307/307/307 308/308/308
f 309/309/309 308/308/308 310/310/310
f 310/310/310 311/311/311 309/309/309
f 310/310/310 312/312/312 311/311/311
f 313/313/313 315/315/315 314/314/314
f 313/313/313 314/314/314 316/316/316
f 314/314/314 317/317/317 316/316/316
f 314/314/314 318/318/318 317/317/317
f 319/319/319 321/321/321 320/320/320
f 319/319/319 320/320/320 322/322/322
f 320/320/320 321/321/321 323/323/323
f 320/320/320 323/323/323 324/324/324
f 325/325/325 327/327/327 326/326/326
f 325/325/325 326/326/326 328/328/328
f 328/328/328 326/326/326 329/329/329
f 328/328/328 329/329/329 330/330/330
f 331/331/331 333/333/333 332/332/332
f 331/331/331 332/332/332 334/334/334
f 335/335/335 333/333/333 331/331/331
f 335/335/335 336/336/336 333/333/333
f 337/337/337 339/339/339 338/338/338
f 337/337/337 338/338/338 340/340/340
f 341/341/341 343/343/343 342/342/342
f 341/341/341 342/342/342 344/344/344
f 345/345/345 347/347/347 346/346/346
f 345/345/345 346/346/346 348/348/348
f 346/346/346 347/347/347 349/349/349
f 346/346/346 349/349/349 350/350/350
f 345/345/345 351/351/351 347/347/347
f 345/345/345 352/352/352 351/351/351
f 347/347/347 351/351/351 353/353/353
f 347/347/347 353/353/353 349/349/349
f 354/354/354 356/356/356 355/355/355
f 354/354/354 355/355/355 357/357/357
f 356/356/356 358/358/358 355/355/355
f 356/356/356 359/359/359 358/358/358
f 360/360/360 362/362/362 361/361/361
f 360/360/360 361/361/361 363/363/363
f 364/364/364 362/362/362 360/360/360
f 364/364/364 360/360/360 365/365/365
f 362/362/362 366/366/366 361/361/361
f 362/362/362 367/367/367 366/366/366
f 364/364/364 367/367/367 362/362/362
f 364/364/364 368/368/368 367/367/367
f 369/369/369 371/371/371 370/370/370
f 369/369/369 370/370/370 372/372/372
f 371/371/371 373/373/373 370/370/370
f 371/371/371 374/374/374 373/373/373
f 375/375/375 377/377/377 376/376/376
f 378/378/378 375/375/375 376/376/376
f 376/376/376 379/379/379 378/378/378
f 376/376/376 380/380/380 379/379/379
f 381/381/381 380/380/380 376/376/376
f 382/382/382 381/381/381 376/376/376
f 382/382/382 376/376/376 383/383/383
f 384/384/384 382/382/382 383/383/383
f 384/384/384 383/383/383 385/385/385
f 385/385/385 383/383/383 386/386/386
f 383/383/383 376/376/376 386/386/386
f 376/376/376 377/377/377 386/386/386
f 385/385/385 386/386/386 387/387/387
f 388/388/388 390/390/390 389/389/389
f 391/391/391 388/388/388 389/389/389
f 392/392/392 391/391/391 389/389/389
f 392/392/392 393/393/393 391/391/391
f 390/390/390 394/394/394 389/389/389
f 392/392/392 389/389/389 394/394/394
f 390/390/390 395/395/395 394/394/394
f 393/393/393 392/392/392 396/396/396
f 397/397/397 396/396/396 392/392/392
f 397/397/397 392/392/392 398/398/398
f 398/398/398 392/392/392 399/399/399
f 400/400/400 392/392/392 394/394/394
f 399/399/399 392/392/392 400/400/400
f 401/401/401 403/403/403 402/402/402
f 401/401/401 402/402/402 404/404/404
f 404/404/404 402/402/402 405/405/405
f 404/404/404 405/405/405 406/406/406
f 405/405/405 407/407/407 406/406/406
f 405/405/405 408/408/408 407/407/407
f 409/409/409 403/403/403 401/401/401
f 409/409/409 401/401/401 410/410/410
f 407/407/407 408/408/408 411/411/411
f 407/407/407 411/411/411 412/412/412
f 413/413/413 415/415/415 414/414/414
f 413/413/413 414/414/414 416/416/416
f 414/414/414 415/415/415 417/417/417
f 414/414/414 417/417/417 418/418/418
f 419/419/419 413/413/413 416/416/416
f 419/419/419 416/416/416 420/420/420
f 421/421/421 423/423/423 422/422/422
f 421/421/421 422/422/422 424/424/424
f 425/425/425 423/423/423 421/421/421
f 425/425/425 426/426/426 423/423/423
f 427/427/427 426/426/426 425/425/425
f 427/427/427 425/425/425 428/428/428
f 429/429/429 431/431/431 430/430/430
f 429/429/429 430/430/430 432/432/432
f 433/433/433 431/431/431 429/429/429
f 434/434/434 431/431/431 433/433/433
f 435/435/435 433/433/433 429/429/429
f 436/436/436 434/434/434 433/433/433
f 435/435/435 436/436/436 433/433/433
f 436/436/436 437/437/437 434/434/434
f 435/435/435 438/438/438 436/436/436
f 439/439/439 441/441/441 440/440/440
f 439/439/439 440/440/440 442/442/442
f 441/441/441 443/443/443 440/440/440
f 443/443/443 444/444/444 440/440/440
f 445/445/445 443/443/443 441/441/441
f 445/445/445 446/446/446 443/443/443
f 446/446/446 444/444/444 443/443/443
f 445/445/445 447/447/447 446/446/446
f 446/446/446 448/448/448 444/444/444
f 449/449/449 451/451/451 450/450/450
f 449/449/449 450/450/450 452/452/452
f 452/452/452 450/450/450 453/453/453
f 452/452/452 453/453/453 454/454/454
f 454/454/454 453/453/453 455/455/455
f 454/454/454 455/455/455 456/456/456
f 455/455/455 457/457/457 456/456/456
f 455/455/455 458/458/458 457/457/457
f 459/459/459 461/461/461 460/460/460
f 459/459/459 460/460/460 462/462/462
f 460/460/460 463/463/463 462/462/462
f 460/460/460 464/464/464 463/463/463
f 465/465/465 467/467/467 466/466/466
f 465/465/465 466/466/466 468/468/468
f 468/468/468 469/469/469 465/465/465
f 468/468/468 470/470/470 469/469/469
f 471/471/471 473/473/473 472/472/472
f 471/471/471 472/472/472 474/474/474
f 475/475/475 477/477/477 476/476/476
f 475/475/475 476/476/476 478/478/478
f 479/479/479 478/478/478 476/476/476
f 479/479/479 480/480/480 478/478/478
f 481/481/481 483/483/483 482/482/482
f 481/481/481 482/482/482 484/484/484
f 483/483/483 485/485/485 482/482/482
f 483/483/483 486/486/486 485/485/485
f 487/487/487 489/489/489 488/488/488
f 487/487/487 488/488/488 490/490/490
f 490/490/490 488/488/488 491/491/491
f 490/490/490 491/491/491 492/492/492
f 493/493/493 495/495/495 494/494/494
f 493/493/493 494/494/494 496/496/496
f 497/497/497 495/495/495 493/493/493
f 497/497/497 498/498/498 495/495/495
f 499/499/499 501/501/501 500/500/500
f 499/499/499 500/500/500 502/502/502
f 503/503/503 505/505/505 504/504/504
f 503/503/503 504/504/504 506/506/506
f 507/507/507 506/506/506 504/504/504
f 507/507/507 504/504/504 508/508/508
f 509/509/509 505/505/505 503/503/503
f 509/509/509 503/503/503 510/510/510
f 511/511/511 513/513/513 512/512/512
f 511/511/511 512/512/512 514/514/514
f 515/515/515 517/517/517 516/516/516
f 515/515/515 516/516/516 518/518/518
f 518/518/518 519/519/519 515/515/515
f 518/518/518 520/520/520 519/519/519
f 521/521/521 519/519/519 520/520/520
f 521/521/521 520/520/520 522/522/522
f 516/516/516 517/517/517 523/523/523
f 516/516/516 523/523/523 524/524/524
f 525/525/525 527/527/527 526/526/526
f 526/526/526 527/527/527 528/528/528
f 526/526/526 528/528/528 529/529/529
f 530/530/530 529/529/529 528/528/528
f 526/526/526 531/531/531 525/525/525
f 526/526/526 532/532/532 531/531/531
f 532/532/532 533/533/533 531/531/531
f 532/532/532 534/534/534 533/533/533
f 532/532/532 535/535/535 534/534/534
f 530/530/530 535/535/535 529/529/529
f 534/534/534 535/535/535 536/536/536
f 530/530/530 536/536/536 535/535/535
f 525/525/525 531/531/531 537/537/537
f 525/525/525 537/537/537 538/538/538
f 539/539/539 541/541/541 540/540/540
f 541/541/541 542/542/542 540/540/540
f 541/541/541 543/543/543 542/542/542
f 543/543/543 544/544/544 542/542/542
f 541/541/541 539/539/539 545/545/545
f 541/541/541 545/545/545 546/546/546
f 544/544/544 543/543/543 547/547/547
f 544/544/544 547/547/547 548/548/548
f 549/549/549 546/546/546 545/545/545
f 550/550/550 548/548/548 547/547/547
f 550/550/550 547/547/547 546/546/546
f 550/550/550 546/546/546 549/549/549
f 545/545/545 539/539/539 551/551/551
f 545/545/545 551/551/551 552/552/552
f 553/553/553 555/555/555 554/554/554
f 553/553/553 554/554/554 556/556/556
f 556/556/556 554/554/554 557/557/557
f 556/556/556 557/557/557 558/558/558
f 559/559/559 558/558/558 557/557/557
f 559/559/559 557/557/557 560/560/560
f 561/561/561 563/563/563 562/562/562
f 561/561/561 562/562/562 564/564/564
f 565/565/565 567/567/567 566/566/566
f 565/565/565 566/566/566 568/568/568
f 567/567/567 565/565/565 569/569/569
f 567/567/567 569/569/569 570/570/570
f 571/571/571 570/570/570 569/569/569
f 571/571/571 572/572/572 570/570/570
f 573/573/573 568/568/568 566/566/566
f 573/573/573 566/566/566 574/574/574
f 575/575/575 577/577/577 576/576/576
f 575/575/575 576/576/576 578/578/578
f 579/579/579 581/581/581 580/580/580
f 579/579/579 580/580/580 582/582/582
