# Generated from legacy Unity YAML Mesh assets without Unity.
mtllib gun29.mtl

o gun29
v -0.0432797372 -0.0372604094 -0.0614459962
v -0.0709464252 0.188843653 -0.0412440449
v -0.0709464699 -0.048579786 -0.0116970129
v -0.0432797037 0.18768324 -0.0863108039
v -0.0432797149 0.0269000232 0.0964315385
v -0.0432797 0.142138869 0.0170731377
v -0.0432797298 -0.0485797971 0.0379148275
v -0.0709464252 0.188843653 -0.0412440449
v -0.0432796925 0.188843623 0.0416879207
v -0.0432797 0.142138869 0.0170731377
v -0.0432797298 -0.0485797971 0.0379148275
v -0.0432797149 0.0269000232 0.0964315385
v -0.0156130083 -0.0485798083 -0.0116970129
v -0.0156129599 0.188843623 -0.0412440524
v -0.0432797 0.142138869 0.0170731377
v -0.0432796925 0.188843623 0.0416879207
v -0.0156129599 0.188843623 -0.0412440524
v -0.0432797 0.142138869 0.0170731377
v -0.0156130083 -0.0485798083 -0.0116970129
v -0.0432797037 0.18768324 -0.0863108039
v -0.0432797372 -0.0372604094 -0.0614459962
v -0.0156129599 0.188843623 -0.0412440524
v 0.00341791287 -0.0325384252 -0.132431462
v 0.00341792032 0.0418851264 -0.240399659
v 0.00341791287 -0.0199277028 -0.237877429
v 0.0034179315 0.0418437459 -0.140261069
v 0.00341792032 -0.146034122 -0.0228547007
v 0.00341789052 -0.179152489 -0.10500823
v 0.00341793522 -0.0350602716 0.123751618
v 0.00341792405 -0.107147262 0.123947605
v 0.00341788307 -0.241875008 -0.0231813192
v 0.00341787562 -0.267266929 -0.105008215
v 0.00341786072 -0.355808944 0.0735893771
v 0.00341787562 -0.282667339 0.0710674822
v -0.0899774134 -0.0199276973 -0.237877429
v -0.0899773911 0.0418437608 -0.140261069
v -0.0899773911 -0.0325384103 -0.132431477
v -0.089977406 0.0418851338 -0.240399629
v -0.0899774209 -0.179152444 -0.105008245
v -0.089977406 -0.146034077 -0.0228547007
v -0.0899773985 -0.107147232 0.123947605
v -0.0899773836 -0.0350602604 0.123751603
v -0.0899774507 -0.26726687 -0.105008245
v -0.0899774134 -0.241874963 -0.0231813192
v -0.089977473 -0.355808944 0.0735893771
v -0.0899774581 -0.282667279 0.0710674748
v -0.089977473 -0.355808944 0.0735893771
v -0.0432797633 -0.299883962 0.11683666
v -0.0432797745 -0.373025864 0.119358897
v -0.0899774581 -0.282667279 0.0710674748
v 0.00341787562 -0.282667339 0.0710674822
v -0.0432797633 -0.299883962 0.11683666
v -0.0899774581 -0.282667279 0.0710674748
v -0.0899774134 -0.241874963 -0.0231813192
v 0.00341788307 -0.241875008 -0.0231813192
v -0.089977406 -0.146034077 -0.0228547007
v 0.00341788307 -0.241875008 -0.0231813192
v -0.0899774134 -0.241874963 -0.0231813192
v 0.00341792032 -0.146034122 -0.0228547007
v -0.0899773985 -0.107147232 0.123947605
v 0.00341792032 -0.146034122 -0.0228547007
v -0.089977406 -0.146034077 -0.0228547007
v 0.00341792405 -0.107147262 0.123947605
v -0.0899773836 -0.0350602604 0.123751603
v 0.00341792405 -0.107147262 0.123947605
v -0.0899773985 -0.107147232 0.123947605
v 0.00341793522 -0.0350602716 0.123751618
v -0.0899773911 -0.0325384103 -0.132431477
v 0.00341793522 -0.0350602716 0.123751618
v -0.0899773836 -0.0350602604 0.123751603
v 0.00341791287 -0.0325384252 -0.132431462
v -0.0899773911 0.0418437608 -0.140261069
v 0.00341791287 -0.0325384252 -0.132431462
v -0.0899773911 -0.0325384103 -0.132431477
v 0.0034179315 0.0418437459 -0.140261069
v -0.0432797372 0.0418851264 -0.27651301
v 0.00341792032 0.0418851264 -0.240399659
v -0.089977406 0.0418851338 -0.240399629
v -0.0899773911 0.0418437608 -0.140261069
v 0.0034179315 0.0418437459 -0.140261069
v -0.0899774134 -0.0199276973 -0.237877429
v -0.0432797372 0.0418851264 -0.27651301
v -0.089977406 0.0418851338 -0.240399629
v -0.0432797447 -0.0199277103 -0.27399078
v -0.0899774209 -0.179152444 -0.105008245
v -0.0899774209 -0.179152444 -0.105008245
v 0.00341789052 -0.179152489 -0.10500823
v -0.0432797447 -0.0199277103 -0.27399078
v 0.00341791287 -0.0199277028 -0.237877429
v 0.00341792032 0.0418851264 -0.240399659
v -0.0432797372 0.0418851264 -0.27651301
v 0.00341787562 -0.267266929 -0.105008215
v -0.0899774209 -0.179152444 -0.105008245
v -0.0899774507 -0.26726687 -0.105008245
v 0.00341789052 -0.179152489 -0.10500823
v -0.0432797745 -0.373025864 0.119358897
v 0.00341786072 -0.355808944 0.0735893771
v -0.089977473 -0.355808944 0.0735893771
v -0.0899774507 -0.26726687 -0.105008245
v 0.00341787562 -0.267266929 -0.105008215
v -0.0432797633 -0.299883962 0.11683666
v 0.00341786072 -0.355808944 0.0735893771
v -0.0432797745 -0.373025864 0.119358897
v 0.00341787562 -0.282667339 0.0710674822
v -0.0432798378 -0.58640343 0.224782839
v -0.0021094121 -0.539962292 0.162024736
v -0.0844502077 -0.539962232 0.162024736
v -0.066884622 -0.491488427 0.117180787
v -0.022438474 -0.491488427 0.117180794
v -0.0844502077 -0.539962232 0.162024736
v -0.0432797857 -0.502448499 0.281020224
v -0.0432798378 -0.58640343 0.224782839
v -0.0844502002 -0.457396656 0.225370139
v -0.066884622 -0.491488427 0.117180787
v -0.0021093972 -0.457396656 0.225370109
v -0.0844502002 -0.457396656 0.225370139
v -0.022438474 -0.491488427 0.117180794
v -0.0844502002 -0.457396656 0.225370139
v -0.0844502077 -0.539962232 0.162024736
v -0.066884622 -0.491488427 0.117180787
v -0.0432798378 -0.58640343 0.224782839
v -0.0021093972 -0.457396656 0.225370109
v -0.0021094121 -0.539962292 0.162024736
v -0.0432797857 -0.502448499 0.281020224
v -0.0021093972 -0.457396656 0.225370109
v -0.0432797857 -0.502448499 0.281020224
v -0.0844502002 -0.457396656 0.225370139
v -0.022438474 -0.491488427 0.117180794
v -0.0021094121 -0.539962292 0.162024736
v -0.0021093972 -0.457396656 0.225370109
v -0.0210740399 -0.322767228 0.0119935311
v -0.0644135103 -0.37327975 -0.0699048415
v -0.0654855743 -0.322767228 0.0119935349
v -0.0221461132 -0.37327975 -0.0699048415
v -0.0654855743 -0.322767228 0.0119935349
v -0.0855475068 -0.34307009 -0.0905757546
v -0.0876909867 -0.298463225 -0.0253843293
v -0.0644135103 -0.37327975 -0.0699048415
v -0.0876909867 -0.298463225 -0.0253843293
v -0.0644135028 -0.312860131 -0.111246645
v -0.0654855669 -0.266721338 -0.047103703
v -0.0855475068 -0.34307009 -0.0905757546
v -0.0654855669 -0.266721338 -0.047103703
v -0.0221461058 -0.312860131 -0.11124666
v -0.0210740101 -0.266721338 -0.047103703
v -0.0644135028 -0.312860131 -0.111246645
v -0.0210740101 -0.266721338 -0.047103703
v -0.00101211295 -0.34307009 -0.0905757397
v 0.00113142654 -0.298463285 -0.0253843293
v -0.0221461058 -0.312860131 -0.11124666
v 0.00113142654 -0.298463285 -0.0253843293
v -0.0221461132 -0.37327975 -0.0699048415
v -0.0210740399 -0.322767228 0.0119935311
v -0.00101211295 -0.34307009 -0.0905757397
v -0.0855475068 -0.34307009 -0.0905757546
v -0.0644135103 -0.37327975 -0.0699048415
v -0.0221461132 -0.37327975 -0.0699048415
v -0.00101211295 -0.34307009 -0.0905757397
v -0.0644135028 -0.312860131 -0.111246645
v -0.0221461058 -0.312860131 -0.11124666
v -0.0116141699 -0.324289829 0.0625358149
v -0.0116141587 -0.241299376 0.0625358
v -0.0116141587 -0.241299376 -0.0404859334
v -0.0749454051 -0.324289829 0.0625358
v -0.0749453902 -0.241299331 -0.0404859334
v -0.0749453902 -0.241299331 0.0625358
v -0.0749454051 -0.324289829 0.0625358
v -0.0432797745 -0.241299331 0.0932758227
v -0.043279767 -0.324289829 0.0932758301
v -0.0749453902 -0.241299331 0.0625358
v -0.0116141587 -0.241299376 -0.0404859334
v -0.0749453902 -0.241299331 0.0625358
v -0.0749453902 -0.241299331 -0.0404859334
v -0.0116141587 -0.241299376 0.0625358
v -0.0432797745 -0.241299331 0.0932758227
v -0.043279767 -0.324289829 0.0932758301
v -0.0116141587 -0.241299376 0.0625358
v -0.0116141699 -0.324289829 0.0625358149
v -0.0432797745 -0.241299331 0.0932758227
v -0.0214184355 -0.185596243 -0.0990188271
v -0.064413473 -0.21832034 -0.160537332
v -0.0651407987 -0.185596243 -0.0990188271
v -0.0221461002 -0.21832034 -0.160537332
v -0.0651407987 -0.185596243 -0.0990188271
v -0.0855474696 -0.188110396 -0.181208268
v -0.0870021284 -0.149004579 -0.124056637
v -0.064413473 -0.21832034 -0.160537332
v -0.0870021284 -0.149004579 -0.124056637
v -0.0644134581 -0.157900766 -0.201879218
v -0.0651410967 -0.11241293 -0.14909412
v -0.0855474696 -0.188110396 -0.181208268
v -0.0651410967 -0.11241293 -0.14909412
v -0.0221460834 -0.157900736 -0.201879218
v -0.0214184243 -0.11241293 -0.149094135
v -0.0644134581 -0.157900766 -0.201879218
v -0.0214184243 -0.11241293 -0.149094135
v -0.00101209059 -0.188110396 -0.181208253
v 0.000442605466 -0.149004579 -0.124056637
v -0.0221460834 -0.157900736 -0.201879218
v 0.000442605466 -0.149004579 -0.124056637
v -0.0221461002 -0.21832034 -0.160537332
v -0.0214184355 -0.185596243 -0.0990188271
v -0.00101209059 -0.188110396 -0.181208253
v -0.0855474696 -0.188110396 -0.181208268
v -0.064413473 -0.21832034 -0.160537332
v -0.0221461002 -0.21832034 -0.160537332
v -0.00101209059 -0.188110396 -0.181208253
v -0.0644134581 -0.157900766 -0.201879218
v -0.0221460834 -0.157900736 -0.201879218
v -0.0432798117 -0.351729512 -0.0818248093
v -0.0552421585 -0.584659338 -0.458697379
v -0.0552421175 -0.341727316 -0.0883863121
v -0.0432798415 -0.594661534 -0.452135891
v -0.0432798378 -0.59762001 -0.478454053
v -0.0552421175 -0.341727316 -0.0883863121
v -0.0432798788 -0.574657261 -0.465258896
v -0.043279808 -0.33172515 -0.0949478149
v -0.0552421585 -0.584659338 -0.458697379
v -0.0432798378 -0.59762001 -0.478454053
v -0.043279808 -0.33172515 -0.0949478149
v -0.0313175172 -0.584659338 -0.458697379
v -0.0313174538 -0.341727316 -0.0883863121
v -0.0432798788 -0.574657261 -0.465258896
v -0.0432798378 -0.59762001 -0.478454053
v -0.0313174538 -0.341727316 -0.0883863121
v -0.0432798415 -0.594661534 -0.452135891
v -0.0432798117 -0.351729512 -0.0818248093
v -0.0313175172 -0.584659338 -0.458697379
v -0.0432798378 -0.59762001 -0.478454053
v -0.0432797708 -0.208522871 -0.165364787
v -0.0660893843 -0.303536475 -0.351781845
v -0.0660893247 -0.189450875 -0.177876279
v -0.043279808 -0.322608173 -0.339270115
v -0.0432798117 -0.323696434 -0.382512569
v -0.0660893247 -0.189450875 -0.177876279
v -0.043279808 -0.284464538 -0.364293367
v -0.043279767 -0.170378894 -0.190388054
v -0.0660893843 -0.303536475 -0.351781845
v -0.0432798117 -0.323696434 -0.382512569
v -0.043279767 -0.170378894 -0.190388054
v -0.020470269 -0.303536594 -0.351781845
v -0.020470215 -0.189450875 -0.177876264
v -0.043279808 -0.284464538 -0.364293367
v -0.0432798117 -0.323696434 -0.382512569
v -0.020470215 -0.189450875 -0.177876264
v -0.043279808 -0.322608173 -0.339270115
v -0.0432797708 -0.208522871 -0.165364787
v -0.020470269 -0.303536594 -0.351781845
v -0.0432798117 -0.323696434 -0.382512569
v -0.0314858556 -1.38265872 0.478820562
v -0.0432799011 -1.1100055 0.255201519
v -0.0201304872 -1.13597178 0.229297638
v -0.0432800055 -1.38515484 0.495103955
v -0.0432799086 -1.15131295 0.198272049
v -0.0432800092 -1.39950407 0.480588973
v -0.0432798676 -0.843797207 -0.0507302657
v -0.0113063902 -0.810578883 -0.00295889005
v -0.0432798378 -0.5784024 -0.204891294
v 0.0040365085 -0.550821483 -0.157609254
v -0.0432798341 -0.506446838 -0.183823556
v -0.0432798304 -0.506726205 -0.109400958
v -0.000276718289 -0.677277744 -0.00395434722
v -0.0432798602 -0.76921773 0.0462228209
v -0.0170405693 -0.498336792 0.180034682
v -0.0432798192 -0.46537149 0.0794559047
v -0.0432798341 -0.566914916 -0.028869912
v -0.0432798304 -0.523317337 0.242251754
v -0.017040547 -0.24712804 -0.0306671187
v -0.043279767 -0.187630415 -0.0248303637
v -0.0432798043 -0.327118933 -0.0173823759
v -0.0314858556 -1.38265872 0.478820562
v -0.0432800092 -1.39950407 0.480588973
v -0.0432800055 -1.38515484 0.495103955
v -0.0541986078 -1.20027936 0.310067087
v -0.0432799086 -1.14355969 0.276263416
v -0.0432799011 -1.16599441 0.381954193
v -0.0432799868 -1.24382281 0.367359072
v -0.0432799011 -1.16599441 0.381954193
v -0.0323612168 -1.20027936 0.310067058
v -0.0432799868 -1.24382281 0.367359072
v -0.0432799086 -1.14355969 0.276263416
v -0.0550741516 -1.38265872 0.478820562
v -0.0432799011 -1.1100055 0.255201519
v -0.0432800055 -1.38515484 0.495103955
v -0.066429399 -1.13597178 0.229297653
v -0.0432799086 -1.15131295 0.198272049
v -0.0432800092 -1.39950407 0.480588973
v -0.0432798676 -0.843797207 -0.0507302657
v -0.0752533376 -0.810578883 -0.0029588975
v -0.0432798378 -0.5784024 -0.204891294
v -0.0905961841 -0.550821364 -0.157609224
v -0.0432798341 -0.506446838 -0.183823556
v -0.0432798304 -0.506726205 -0.109400958
v -0.086282976 -0.677277744 -0.00395434722
v -0.0432798602 -0.76921773 0.0462228209
v -0.0695190355 -0.498336792 0.180034667
v -0.0432798192 -0.46537149 0.0794559047
v -0.0432798341 -0.566914916 -0.028869912
v -0.0432798304 -0.523317337 0.242251754
v -0.0695190057 -0.24712804 -0.0306671187
v -0.043279767 -0.187630415 -0.0248303637
v -0.0432798043 -0.327118933 -0.0173823759
v -0.0550741516 -1.38265872 0.478820562
v -0.0432800055 -1.38515484 0.495103955
v -0.0432800092 -1.39950407 0.480588973
v 0.00341803208 0.497714072 0.0735892653
v 0.00341800228 0.383780092 -0.0231814161
v 0.00341802463 0.424572051 0.0710673854
v 0.00341798365 0.409171999 -0.105008319
v 0.00341796502 0.287939191 -0.0228547677
v 0.00341797248 0.321057528 -0.105008319
v 0.00341796502 0.174443141 -0.132431507
v 0.00341794267 0.161832705 -0.237877488
v 0.0034179911 0.249052376 0.123947553
v 0.00341797993 0.176965415 0.123751588
v 0.00341795012 0.100061312 -0.140261069
v 0.00341793522 0.100019574 -0.240399659
v -0.0899772793 0.497714072 0.0735892355
v -0.0899773166 0.383780122 -0.0231814086
v -0.0899773166 0.409172028 -0.105008349
v -0.0899772942 0.42457211 0.0710673779
v -0.0899773538 0.321057588 -0.105008334
v -0.0899773464 0.28793925 -0.0228547677
v -0.0899773762 0.16183272 -0.237877488
v -0.0899773538 0.174443141 -0.132431522
v -0.0899773389 0.176965415 0.123751573
v -0.0899773315 0.249052405 0.123947553
v -0.0899773762 0.100019589 -0.240399659
v -0.0899773762 0.100061327 -0.140261069
v -0.0899772793 0.497714072 0.0735892355
v -0.0432796255 0.441789091 0.11683654
v -0.0899772942 0.42457211 0.0710673779
v -0.043279618 0.514930606 0.119358756
v -0.0899773166 0.383780122 -0.0231814086
v 0.00341802463 0.424572051 0.0710673854
v 0.00341800228 0.383780092 -0.0231814161
v -0.0899772942 0.42457211 0.0710673779
v -0.0432796255 0.441789091 0.11683654
v -0.0899773464 0.28793925 -0.0228547677
v 0.00341800228 0.383780092 -0.0231814161
v 0.00341796502 0.287939191 -0.0228547677
v -0.0899773166 0.383780122 -0.0231814086
v -0.0899773315 0.249052405 0.123947553
v 0.00341796502 0.287939191 -0.0228547677
v 0.0034179911 0.249052376 0.123947553
v -0.0899773464 0.28793925 -0.0228547677
v -0.0899773389 0.176965415 0.123751573
v 0.0034179911 0.249052376 0.123947553
v 0.00341797993 0.176965415 0.123751588
v -0.0899773315 0.249052405 0.123947553
v -0.0899773538 0.174443141 -0.132431522
v 0.00341797993 0.176965415 0.123751588
v 0.00341796502 0.174443141 -0.132431507
v -0.0899773389 0.176965415 0.123751573
v -0.0899773762 0.100061327 -0.140261069
v 0.00341796502 0.174443141 -0.132431507
v 0.00341795012 0.100061312 -0.140261069
v -0.0899773538 0.174443141 -0.132431522
v -0.0432797298 0.100019574 -0.27651301
v -0.0899773762 0.100019589 -0.240399659
v 0.00341793522 0.100019574 -0.240399659
v 0.00341795012 0.100061312 -0.140261069
v -0.0899773762 0.100061327 -0.140261069
v -0.0899773762 0.16183272 -0.237877488
v -0.0432797298 0.100019574 -0.27651301
v -0.0432797223 0.161832705 -0.27399081
v -0.0899773762 0.100019589 -0.240399659
v -0.0899773538 0.321057588 -0.105008334
v -0.0899773538 0.321057588 -0.105008334
v -0.0432797223 0.161832705 -0.27399081
v 0.00341797248 0.321057528 -0.105008319
v 0.00341794267 0.161832705 -0.237877488
v 0.00341793522 0.100019574 -0.240399659
v -0.0432797298 0.100019574 -0.27651301
v 0.00341798365 0.409171999 -0.105008319
v -0.0899773538 0.321057588 -0.105008334
v 0.00341797248 0.321057528 -0.105008319
v -0.0899773166 0.409172028 -0.105008349
v -0.043279618 0.514930606 0.119358756
v -0.0899772793 0.497714072 0.0735892355
v 0.00341803208 0.497714072 0.0735892653
v 0.00341798365 0.409171999 -0.105008319
v -0.0899773166 0.409172028 -0.105008349
v -0.0432796255 0.441789091 0.11683654
v 0.00341803208 0.497714072 0.0735892653
v 0.00341802463 0.424572051 0.0710673854
v -0.043279618 0.514930606 0.119358756
v -0.0432795919 0.728308439 0.224782646
v -0.0844499767 0.682741463 0.155031592
v -0.00210918486 0.682741463 0.155031592
v -0.0668844059 0.633393526 0.117180623
v -0.0224382579 0.633393526 0.117180623
v -0.0844499767 0.682741463 0.155031592
v -0.0432796031 0.644353688 0.281020045
v -0.0844499841 0.599301815 0.225369945
v -0.0432795919 0.728308439 0.224782646
v -0.0668844059 0.633393526 0.117180623
v -0.00210923329 0.599301815 0.22536996
v -0.0224382579 0.633393526 0.117180623
v -0.0844499841 0.599301815 0.225369945
v -0.0844499841 0.599301815 0.225369945
v -0.0668844059 0.633393526 0.117180623
v -0.0844499767 0.682741463 0.155031592
v -0.0432795919 0.728308439 0.224782646
v -0.00210923329 0.599301815 0.22536996
v -0.0432796031 0.644353688 0.281020045
v -0.00210918486 0.682741463 0.155031592
v -0.0224382579 0.633393526 0.117180623
v -0.00210923329 0.599301815 0.22536996
v -0.0844499841 0.599301815 0.225369945
v -0.0432796031 0.644353688 0.281020045
v -0.021073861 0.462730676 0.0104038902
v -0.064413324 0.51518482 -0.0699049905
v -0.0221459642 0.51518482 -0.0699049607
v -0.065485388 0.462730676 0.0104038902
v -0.08769086 0.440368384 -0.025384441
v -0.064413324 0.51518482 -0.0699049905
v -0.065485388 0.462730676 0.0104038902
v -0.085547328 0.484974891 -0.0905758739
v -0.08769086 0.440368384 -0.025384441
v -0.064413324 0.45476526 -0.111246794
v -0.085547328 0.484974891 -0.0905758739
v -0.0654854178 0.408626437 -0.0471038073
v -0.0654854178 0.408626437 -0.0471038073
v -0.0221459698 0.45476526 -0.11124678
v -0.064413324 0.45476526 -0.111246794
v -0.021073902 0.408626437 -0.0471038073
v -0.021073902 0.408626437 -0.0471038073
v -0.00101196393 0.484974891 -0.0905758739
v -0.0221459698 0.45476526 -0.11124678
v 0.00113154948 0.440368354 -0.025384441
v 0.00113154948 0.440368354 -0.025384441
v -0.0221459642 0.51518482 -0.0699049607
v -0.00101196393 0.484974891 -0.0905758739
v -0.021073861 0.462730676 0.0104038902
v -0.085547328 0.484974891 -0.0905758739
v -0.064413324 0.45476526 -0.111246794
v -0.0221459698 0.45476526 -0.11124678
v -0.00101196393 0.484974891 -0.0905758739
v -0.064413324 0.51518482 -0.0699049905
v -0.0221459642 0.51518482 -0.0699049607
v -0.0116140321 0.466194957 0.0625356808
v -0.0116140619 0.383204162 -0.0404860154
v -0.0116140544 0.383204162 0.0625357032
v -0.0749452263 0.466194957 0.0625356734
v -0.0749452561 0.383204162 0.0625356957
v -0.074945271 0.383204162 -0.0404860154
v -0.0749452263 0.466194957 0.0625356734
v -0.0432796553 0.383204162 0.0932757258
v -0.0749452561 0.383204162 0.0625356957
v -0.0432796255 0.466194957 0.0932757109
v -0.0749452561 0.383204162 0.0625356957
v -0.0432796553 0.383204162 0.0932757258
v -0.0116140544 0.383204162 0.0625357032
v -0.0116140619 0.383204162 -0.0404860154
v -0.074945271 0.383204162 -0.0404860154
v -0.0432796255 0.466194957 0.0932757109
v -0.0116140544 0.383204162 0.0625357032
v -0.0432796553 0.383204162 0.0932757258
v -0.0116140321 0.466194957 0.0625356808
v -0.0214183275 0.319118112 -0.104454026
v -0.0644133613 0.351842195 -0.165972546
v -0.0221459866 0.351842254 -0.165972546
v -0.0651406944 0.319118112 -0.104454011
v -0.0651406944 0.319118112 -0.104454011
v -0.0855473727 0.321632236 -0.186643451
v -0.0644133613 0.351842195 -0.165972546
v -0.0870020613 0.282526433 -0.129491821
v -0.0870020613 0.282526433 -0.129491821
v -0.0644133687 0.291422546 -0.207314372
v -0.0855473727 0.321632236 -0.186643451
v -0.0651410297 0.245934755 -0.154529288
v -0.0651410297 0.245934755 -0.154529288
v -0.022145994 0.291422606 -0.207314372
v -0.0644133687 0.291422546 -0.207314372
v -0.0214183647 0.245934755 -0.154529259
v -0.0214183647 0.245934755 -0.154529259
v -0.00101198629 0.321632236 -0.186643451
v -0.022145994 0.291422606 -0.207314372
v 0.000442676246 0.282526433 -0.129491806
v 0.000442676246 0.282526433 -0.129491806
v -0.0221459866 0.351842254 -0.165972546
v -0.00101198629 0.321632236 -0.186643451
v -0.0214183275 0.319118112 -0.104454026
v -0.0855473727 0.321632236 -0.186643451
v -0.0644133687 0.291422546 -0.207314372
v -0.022145994 0.291422606 -0.207314372
v -0.00101198629 0.321632236 -0.186643451
v -0.0644133613 0.351842195 -0.165972546
v -0.0221459866 0.351842254 -0.165972546
v -0.0432796218 0.493634313 -0.0818249434
v -0.0552419573 0.726564288 -0.458697557
v -0.0432796031 0.736566544 -0.45213607
v -0.0552419797 0.483632416 -0.0883864462
v -0.0432796031 0.739524961 -0.478454232
v -0.0552419797 0.483632416 -0.0883864462
v -0.0432796329 0.716562152 -0.465259075
v -0.0552419573 0.726564288 -0.458697557
v -0.0432796292 0.473630279 -0.0949479342
v -0.0432796031 0.739524961 -0.478454232
v -0.0432796292 0.473630279 -0.0949479342
v -0.0313172787 0.726564288 -0.458697617
v -0.0432796329 0.716562152 -0.465259075
v -0.0313173085 0.483632416 -0.0883864611
v -0.0432796031 0.739524961 -0.478454232
v -0.0313173085 0.483632416 -0.0883864611
v -0.0432796031 0.736566544 -0.45213607
v -0.0313172787 0.726564288 -0.458697617
v -0.0432796218 0.493634313 -0.0818249434
v -0.0432796031 0.739524961 -0.478454232
v -0.0432796851 0.342044711 -0.170799971
v -0.0660892129 0.43705827 -0.357217163
v -0.0432796702 0.456129968 -0.344705343
v -0.0660892427 0.322972715 -0.183311433
v -0.0432796776 0.4572182 -0.387947738
v -0.0660892427 0.322972715 -0.183311433
v -0.0432796814 0.417986274 -0.369728595
v -0.0660892129 0.43705827 -0.357217163
v -0.0432796888 0.303900719 -0.195823267
v -0.0432796776 0.4572182 -0.387947738
v -0.0432796888 0.303900719 -0.195823267
v -0.0204701368 0.43705827 -0.357217163
v -0.0432796814 0.417986274 -0.369728595
v -0.0204701256 0.322972715 -0.183311462
v -0.0432796776 0.4572182 -0.387947738
v -0.0204701256 0.322972715 -0.183311462
v -0.0432796702 0.456129968 -0.344705343
v -0.0204701368 0.43705827 -0.357217163
v -0.0432796851 0.342044711 -0.170799971
v -0.0432796776 0.4572182 -0.387947738
v -0.0314851776 1.52456331 0.478820205
v -0.0432794504 1.25191057 0.255201161
v -0.0432793312 1.52705956 0.495103478
v -0.0201300271 1.27787685 0.229297265
v -0.0432794429 1.29321802 0.198271632
v -0.0432793237 1.54140866 0.480588585
v -0.0432795621 0.985702276 -0.0507305264
v -0.0113060921 0.952484071 -0.00295916572
v -0.0432795994 0.720307529 -0.204891473
v 0.00403670967 0.692726374 -0.157609433
v -0.0432796106 0.648351848 -0.183823779
v -0.0432796031 0.648630917 -0.109401166
v -0.000276461244 0.819182873 -0.00395457447
v -0.0432795696 0.911122739 0.0462225676
v -0.017040357 0.640241921 0.180034459
v -0.0432796068 0.607276559 0.0794557482
v -0.0432795957 0.708819985 -0.0288701132
v -0.0432795994 0.665222466 0.242251545
v -0.0170404278 0.389033169 -0.0306672081
v -0.0432796627 0.329535574 -0.0248304456
v -0.0432796255 0.469024032 -0.0173825026
v -0.0314851776 1.52456331 0.478820205
v -0.0432793312 1.52705956 0.495103478
v -0.0432793237 1.54140866 0.480588585
v -0.054198131 1.34218431 0.31006664
v -0.0432794318 1.30789959 0.381953776
v -0.0432794392 1.28546476 0.276262999
v -0.0432795025 1.38572729 0.367358655
v -0.0432794318 1.30789959 0.381953776
v -0.0432795025 1.38572729 0.367358655
v -0.0323607326 1.34218431 0.31006664
v -0.0432794392 1.28546476 0.276262999
v -0.0550736263 1.52456331 0.478820205
v -0.0432794504 1.25191057 0.255201161
v -0.0664289296 1.27787685 0.229297251
v -0.0432793312 1.52705956 0.495103478
v -0.0432794429 1.29321802 0.198271632
v -0.0432793237 1.54140866 0.480588585
v -0.075253047 0.952484071 -0.00295916572
v -0.0432795621 0.985702276 -0.0507305264
v -0.0432795994 0.720307529 -0.204891473
v -0.0905959532 0.692726493 -0.157609433
v -0.0432796106 0.648351848 -0.183823779
v -0.0432796031 0.648630917 -0.109401166
v -0.0862827227 0.819182873 -0.00395458192
v -0.0432795696 0.911122739 0.0462225676
v -0.0695188493 0.640241921 0.180034444
v -0.0432796068 0.607276559 0.0794557482
v -0.0432795957 0.708819985 -0.0288701132
v -0.0432795994 0.665222466 0.242251545
v -0.0695188865 0.389033169 -0.0306672081
v -0.0432796627 0.329535574 -0.0248304456
v -0.0432796255 0.469024032 -0.0173825026
v -0.0550736263 1.52456331 0.478820205
v -0.0432793237 1.54140866 0.480588585
v -0.0432793312 1.52705956 0.495103478
vt 0.871289015 0.612935007
vt 0.888032973 0.853637993
vt 0.911728024 0.603470027
vt 0.85107702 0.853637993
vt 0.988709986 0.687861979
vt 0.939432979 0.808332026
vt 0.952055991 0.603470027
vt 0.888032973 0.853637993
vt 0.955123007 0.853637993
vt 0.939432979 0.808332026
vt 0.952055991 0.603470027
vt 0.988709986 0.687861979
vt 0.911728024 0.603470027
vt 0.887862027 0.853637993
vt 0.939432979 0.808332026
vt 0.955123007 0.853637993
vt 0.887862027 0.853637993
vt 0.939432979 0.808332026
vt 0.911728024 0.603470027
vt 0.85107702 0.853637993
vt 0.871289015 0.612935007
vt 0.887862027 0.853637993
vt 0.495765001 0.625521004
vt 0.408596992 0.563488007
vt 0.410766006 0.615171015
vt 0.488727003 0.563340008
vt 0.588105023 0.720215023
vt 0.514497995 0.748076975
vt 0.715618014 0.627126992
vt 0.689984977 0.687463999
vt 0.578172028 0.800378978
vt 0.521777987 0.823257983
vt 0.660012007 0.89546299
vt 0.657821 0.834307015
vt 0.410766006 0.615171015
vt 0.488727003 0.563340008
vt 0.495765001 0.625521004
vt 0.408596992 0.563488007
vt 0.514497995 0.748076975
vt 0.588105023 0.720215023
vt 0.689984977 0.687463999
vt 0.715618014 0.627126992
vt 0.521777987 0.823257983
vt 0.578172028 0.800378978
vt 0.660012007 0.89546299
vt 0.657821 0.834307015
vt 0.660012007 0.89546299
vt 0.695057988 0.848618984
vt 0.693084002 0.914124012
vt 0.657821 0.834307015
vt 0.758641005 0.792545021
vt 0.784045994 0.772280991
vt 0.758641005 0.752017021
vt 0.703525007 0.752017021
vt 0.703525007 0.792545021
vt 0.64903301 0.752533019
vt 0.578172028 0.800378978
vt 0.626091003 0.809602976
vt 0.588105023 0.720215023
vt 0.734642982 0.705752015
vt 0.588105023 0.720215023
vt 0.64903301 0.752533019
vt 0.689984977 0.687463999
vt 0.764991999 0.644065022
vt 0.689984977 0.687463999
vt 0.734642982 0.705752015
vt 0.715618014 0.627126992
vt 0.145016 0.533106983
vt 0.302942008 0.591506004
vt 0.302942008 0.533106983
vt 0.145136997 0.591506004
vt 0.100781001 0.533106983
vt 0.145136997 0.591506004
vt 0.145016 0.533106983
vt 0.101011999 0.591506004
vt 0.0182240009 0.562916994
vt 0.0424450003 0.591506004
vt 0.0418669991 0.533106983
vt 0.100781001 0.533106983
vt 0.101011999 0.591506004
vt 0.410766006 0.615171015
vt 0.361200005 0.563566029
vt 0.408596992 0.563488007
vt 0.363368988 0.615248978
vt 0.514497995 0.748076975
vt 0.456185013 0.765487015
vt 0.514497995 0.748076975
vt 0.363368988 0.615248978
vt 0.410766006 0.615171015
vt 0.408596992 0.563488007
vt 0.361200005 0.563566029
vt 0.521777987 0.823257983
vt 0.456185013 0.765487015
vt 0.485756993 0.848294973
vt 0.514497995 0.748076975
vt 0.693084002 0.914124012
vt 0.660012007 0.89546299
vt 0.630679011 0.913254976
vt 0.485756993 0.848294973
vt 0.521777987 0.823257983
vt 0.695057988 0.848618984
vt 0.660012007 0.89546299
vt 0.693084002 0.914124012
vt 0.657821 0.834307015
vt 0.374480009 0.702116013
vt 0.369717985 0.755723
vt 0.416025996 0.736325026
vt 0.421703994 0.777602017
vt 0.396706998 0.78807199
vt 0.296036005 0.695477009
vt 0.329928011 0.599605024
vt 0.357881993 0.678578019
vt 0.272516012 0.612622976
vt 0.421703994 0.777602017
vt 0.41199699 0.856657028
vt 0.458305001 0.837258995
vt 0.396706998 0.78807199
vt 0.272516012 0.612622976
vt 0.296036005 0.695477009
vt 0.241693005 0.699782014
vt 0.357881993 0.678578019
vt 0.272516012 0.612622976
vt 0.296036005 0.695477009
vt 0.329928011 0.599605024
vt 0.41199699 0.856657028
vt 0.452017993 0.887225986
vt 0.458305001 0.837258995
vt 0.241693005 0.699782014
vt 0.296036005 0.695477009
vt 0.272516012 0.612622976
vt 0.0308580007 0.724439025
vt 0.0608749986 0.788900971
vt 0.0608749986 0.724439025
vt 0.0308580007 0.788900971
vt 0.0608749986 0.724439025
vt 0.0970299989 0.788689971
vt 0.0971129984 0.731889009
vt 0.0608749986 0.788900971
vt 0.0971129984 0.731889009
vt 0.131585002 0.788478017
vt 0.131585002 0.731633008
vt 0.0970299989 0.788689971
vt 0.131585002 0.731633008
vt 0.162863001 0.788478017
vt 0.162863001 0.731633008
vt 0.131585002 0.788478017
vt 0.132845998 0.731633008
vt 0.0982910022 0.788689971
vt 0.0983740017 0.731889009
vt 0.132845998 0.788478017
vt 0.0983740017 0.731889009
vt 0.0621359982 0.788900971
vt 0.0621359982 0.725233018
vt 0.0982910022 0.788689971
vt 0.777333975 0.703082979
vt 0.794310987 0.732190013
vt 0.828006983 0.732041001
vt 0.844726026 0.702785015
vt 0.794053018 0.673825979
vt 0.827749014 0.673677981
vt 0.803312004 0.913250983
vt 0.803152978 0.843855023
vt 0.719411016 0.84404701
vt 0.803312004 0.913250983
vt 0.719411016 0.84404701
vt 0.803152978 0.843855023
vt 0.803312004 0.913250983
vt 0.82814002 0.843797982
vt 0.828299999 0.913192987
vt 0.803152978 0.843855023
vt 0.719411016 0.84404701
vt 0.809005976 0.818562984
vt 0.719411016 0.818562984
vt 0.803152978 0.843855023
vt 0.82814002 0.843797982
vt 0.828299999 0.913192987
vt 0.803152978 0.843855023
vt 0.803312004 0.913250983
vt 0.82814002 0.843797982
vt 0.0308580007 0.732146025
vt 0.0608749986 0.788900971
vt 0.0608749986 0.732146025
vt 0.0308580007 0.788900971
vt 0.0608749986 0.732146025
vt 0.0970299989 0.788689971
vt 0.0971129984 0.731889009
vt 0.0608749986 0.788900971
vt 0.0971129984 0.731889009
vt 0.131585002 0.788478017
vt 0.131585002 0.731633008
vt 0.0970299989 0.788689971
vt 0.131585002 0.731633008
vt 0.162863001 0.788478017
vt 0.162863001 0.731633008
vt 0.131585002 0.788478017
vt 0.132845998 0.731633008
vt 0.0982910022 0.788689971
vt 0.0983740017 0.731889009
vt 0.132845998 0.788478017
vt 0.0983740017 0.731889009
vt 0.0621359982 0.788900971
vt 0.0621359982 0.732146025
vt 0.0982910022 0.788689971
vt 0.777333975 0.703082979
vt 0.794310987 0.732190013
vt 0.828006983 0.732041001
vt 0.844726026 0.702785015
vt 0.794053018 0.673825979
vt 0.827749014 0.673677981
vt 0.523307979 0.561948001
vt 0.886206985 0.575173974
vt 0.523414016 0.575173974
vt 0.886206985 0.561948001
vt 0.905674994 0.575173974
vt 0.523414016 0.575173974
vt 0.886206985 0.588398993
vt 0.523521006 0.588398993
vt 0.886206985 0.575173974
vt 0.905674994 0.575173974
vt 0.523521006 0.588398993
vt 0.886206985 0.575173974
vt 0.523414016 0.575173974
vt 0.886206985 0.588398993
vt 0.905674994 0.575173974
vt 0.523414016 0.575173974
vt 0.886206985 0.561948001
vt 0.523307979 0.561948001
vt 0.886206985 0.575173974
vt 0.905674994 0.575173974
vt 0.030824 0.79243499
vt 0.0497820005 0.962514997
vt 0.0497319996 0.791938007
vt 0.0308730006 0.962514997
vt 0.0497899987 0.992613971
vt 0.0497319996 0.791938007
vt 0.068690002 0.962514997
vt 0.0686409995 0.791441977
vt 0.0497820005 0.962514997
vt 0.0497899987 0.992613971
vt 0.0686409995 0.791441977
vt 0.0497820005 0.962514997
vt 0.0497319996 0.791938007
vt 0.068690002 0.962514997
vt 0.0497899987 0.992613971
vt 0.0497319996 0.791938007
vt 0.0308730006 0.962514997
vt 0.030824 0.79243499
vt 0.0497820005 0.962514997
vt 0.0497899987 0.992613971
vt 0.98557502 0.977900028
vt 0.719767988 0.934289992
vt 0.721486986 0.965234995
vt 0.996671021 0.968243003
vt 0.715322018 0.995867014
vt 0.996290028 0.988664985
vt 0.388103992 0.995518982
vt 0.389654011 0.947799981
vt 0.135718003 0.960116982
vt 0.140768006 0.915579975
vt 0.0983520001 0.909942985
vt 0.135312006 0.862049997
vt 0.300655007 0.880684018
vt 0.386494011 0.895031989
vt 0.272760004 0.670974016
vt 0.201172993 0.719133973
vt 0.215066999 0.840667009
vt 0.320089012 0.643514991
vt 0.0026120001 0.682285011
vt 0.0026120001 0.64061898
vt 0.0603559986 0.718891025
vt 0.98557502 0.977900028
vt 0.996290028 0.988664985
vt 0.996671021 0.968243003
vt 0.916908979 0.93611902
vt 0.864347994 0.920566976
vt 0.939634025 0.875127017
vt 0.975759983 0.930544019
vt 0.939634025 0.875127017
vt 0.916908979 0.93611902
vt 0.975759983 0.930544019
vt 0.864347994 0.920566976
vt 0.98557502 0.977900028
vt 0.719767988 0.934289992
vt 0.996671021 0.968243003
vt 0.721486986 0.965234995
vt 0.715322018 0.995867014
vt 0.996290028 0.988664985
vt 0.388103992 0.995518982
vt 0.389654011 0.947799981
vt 0.135718003 0.960116982
vt 0.140768006 0.915579975
vt 0.0983520001 0.909942985
vt 0.135312006 0.862049997
vt 0.300655007 0.880684018
vt 0.386494011 0.895031989
vt 0.272760004 0.670974016
vt 0.201172993 0.719133973
vt 0.215066999 0.840667009
vt 0.320089012 0.643514991
vt 0.0026120001 0.682285011
vt 0.0026120001 0.64061898
vt 0.0603559986 0.718891025
vt 0.98557502 0.977900028
vt 0.996671021 0.968243003
vt 0.996290028 0.988664985
vt 0.660012007 0.89546299
vt 0.578172028 0.800378978
vt 0.657821 0.834307015
vt 0.521777987 0.823257983
vt 0.588105023 0.720215023
vt 0.514497995 0.748076975
vt 0.495765001 0.625521004
vt 0.410766006 0.615171015
vt 0.689984977 0.687463999
vt 0.715618014 0.627126992
vt 0.488727003 0.563340008
vt 0.408596992 0.563488007
vt 0.660012007 0.89546299
vt 0.578172028 0.800378978
vt 0.521777987 0.823257983
vt 0.657821 0.834307015
vt 0.514497995 0.748076975
vt 0.588105023 0.720215023
vt 0.410766006 0.615171015
vt 0.495765001 0.625521004
vt 0.715618014 0.627126992
vt 0.689984977 0.687463999
vt 0.408596992 0.563488007
vt 0.488727003 0.563340008
vt 0.660012007 0.89546299
vt 0.695057988 0.848618984
vt 0.657821 0.834307015
vt 0.693084002 0.914124012
vt 0.703525007 0.752017021
vt 0.758641005 0.792545021
vt 0.703525007 0.792545021
vt 0.758641005 0.752017021
vt 0.784045994 0.772280991
vt 0.64903301 0.752533019
vt 0.578172028 0.800378978
vt 0.588105023 0.720215023
vt 0.626091003 0.809602976
vt 0.734642982 0.705752015
vt 0.588105023 0.720215023
vt 0.689984977 0.687463999
vt 0.64903301 0.752533019
vt 0.764991999 0.644065022
vt 0.689984977 0.687463999
vt 0.715618014 0.627126992
vt 0.734642982 0.705752015
vt 0.145016 0.533106983
vt 0.302942008 0.591506004
vt 0.145136997 0.591506004
vt 0.302942008 0.533106983
vt 0.100781001 0.533106983
vt 0.145136997 0.591506004
vt 0.101011999 0.591506004
vt 0.145016 0.533106983
vt 0.0182240009 0.562916994
vt 0.0418669991 0.533106983
vt 0.0424450003 0.591506004
vt 0.101011999 0.591506004
vt 0.100781001 0.533106983
vt 0.410766006 0.615171015
vt 0.361200005 0.563566029
vt 0.363368988 0.615248978
vt 0.408596992 0.563488007
vt 0.514497995 0.748076975
vt 0.456185013 0.765487015
vt 0.363368988 0.615248978
vt 0.514497995 0.748076975
vt 0.410766006 0.615171015
vt 0.408596992 0.563488007
vt 0.361200005 0.563566029
vt 0.521777987 0.823257983
vt 0.456185013 0.765487015
vt 0.514497995 0.748076975
vt 0.485756993 0.848294973
vt 0.693084002 0.914124012
vt 0.630679011 0.913254976
vt 0.660012007 0.89546299
vt 0.521777987 0.823257983
vt 0.485756993 0.848294973
vt 0.695057988 0.848618984
vt 0.660012007 0.89546299
vt 0.657821 0.834307015
vt 0.693084002 0.914124012
vt 0.374480009 0.702116013
vt 0.416025996 0.736325026
vt 0.369717985 0.755723
vt 0.421703994 0.777602017
vt 0.396706998 0.78807199
vt 0.296036005 0.695477009
vt 0.329928011 0.599605024
vt 0.272516012 0.612622976
vt 0.357881993 0.678578019
vt 0.421703994 0.777602017
vt 0.41199699 0.856657028
vt 0.396706998 0.78807199
vt 0.458305001 0.837258995
vt 0.272516012 0.612622976
vt 0.241693005 0.699782014
vt 0.296036005 0.695477009
vt 0.357881993 0.678578019
vt 0.272516012 0.612622976
vt 0.329928011 0.599605024
vt 0.296036005 0.695477009
vt 0.241693005 0.699782014
vt 0.41199699 0.856657028
vt 0.458305001 0.837258995
vt 0.452017993 0.887225986
vt 0.162863001 0.724439025
vt 0.132845998 0.788900971
vt 0.162863001 0.788900971
vt 0.132845998 0.724439025
vt 0.096607998 0.731889009
vt 0.132845998 0.788900971
vt 0.132845998 0.724439025
vt 0.0966909975 0.788689971
vt 0.096607998 0.731889009
vt 0.0621359982 0.788478017
vt 0.0966909975 0.788689971
vt 0.0621359982 0.731633008
vt 0.0621359982 0.731633008
vt 0.0308580007 0.788478017
vt 0.0621359982 0.788478017
vt 0.0308580007 0.731633008
vt 0.0621359982 0.731633008
vt 0.0966909975 0.788689971
vt 0.0621359982 0.788478017
vt 0.096607998 0.731889009
vt 0.096607998 0.731889009
vt 0.132845998 0.788900971
vt 0.0966909975 0.788689971
vt 0.132845998 0.724439025
vt 0.777333975 0.703082979
vt 0.794053018 0.673825979
vt 0.827749014 0.673677981
vt 0.844726026 0.702785015
vt 0.794310987 0.732190013
vt 0.828006983 0.732041001
vt 0.803312004 0.913250983
vt 0.719411016 0.84404701
vt 0.803152978 0.843855023
vt 0.803312004 0.913250983
vt 0.803152978 0.843855023
vt 0.719411016 0.84404701
vt 0.803312004 0.913250983
vt 0.82814002 0.843797982
vt 0.803152978 0.843855023
vt 0.828299999 0.913192987
vt 0.809005976 0.818562984
vt 0.82814002 0.843797982
vt 0.803152978 0.843855023
vt 0.719411016 0.84404701
vt 0.719411016 0.818562984
vt 0.828299999 0.913192987
vt 0.803152978 0.843855023
vt 0.82814002 0.843797982
vt 0.803312004 0.913250983
vt 0.162863001 0.732146025
vt 0.132845998 0.788900971
vt 0.162863001 0.788900971
vt 0.132845998 0.732146025
vt 0.132845998 0.732146025
vt 0.0966909975 0.788689971
vt 0.132845998 0.788900971
vt 0.096607998 0.731889009
vt 0.096607998 0.731889009
vt 0.0621359982 0.788478017
vt 0.0966909975 0.788689971
vt 0.0621359982 0.731633008
vt 0.0621359982 0.731633008
vt 0.0308580007 0.788478017
vt 0.0621359982 0.788478017
vt 0.0308580007 0.731633008
vt 0.0621359982 0.731633008
vt 0.0966909975 0.788689971
vt 0.0621359982 0.788478017
vt 0.096607998 0.731889009
vt 0.096607998 0.731889009
vt 0.132845998 0.788900971
vt 0.0966909975 0.788689971
vt 0.132845998 0.732146025
vt 0.777333975 0.703082979
vt 0.794053018 0.673825979
vt 0.827749014 0.673677981
vt 0.844726026 0.702785015
vt 0.794310987 0.732190013
vt 0.828006983 0.732041001
vt 0.523307979 0.588398993
vt 0.886206985 0.575173974
vt 0.886206985 0.588398993
vt 0.523414016 0.575173974
vt 0.905674994 0.575173974
vt 0.523414016 0.575173974
vt 0.886206985 0.561948001
vt 0.886206985 0.575173974
vt 0.523521006 0.561948001
vt 0.905674994 0.575173974
vt 0.523521006 0.561948001
vt 0.886206985 0.575173974
vt 0.886206985 0.561948001
vt 0.523414016 0.575173974
vt 0.905674994 0.575173974
vt 0.523414016 0.575173974
vt 0.886206985 0.588398993
vt 0.886206985 0.575173974
vt 0.523307979 0.588398993
vt 0.905674994 0.575173974
vt 0.068690002 0.79243499
vt 0.0497319996 0.962514997
vt 0.0686400011 0.962514997
vt 0.0497820005 0.791938007
vt 0.0497240014 0.992613971
vt 0.0497820005 0.791938007
vt 0.030824 0.962514997
vt 0.0497319996 0.962514997
vt 0.0308730006 0.791441977
vt 0.0497240014 0.992613971
vt 0.0308730006 0.791441977
vt 0.0497319996 0.962514997
vt 0.030824 0.962514997
vt 0.0497820005 0.791938007
vt 0.0497240014 0.992613971
vt 0.0497820005 0.791938007
vt 0.0686400011 0.962514997
vt 0.0497319996 0.962514997
vt 0.068690002 0.79243499
vt 0.0497240014 0.992613971
vt 0.98557502 0.977900028
vt 0.719767988 0.934289992
vt 0.996671021 0.968243003
vt 0.721486986 0.965234995
vt 0.715322018 0.995867014
vt 0.996290028 0.988664985
vt 0.388103992 0.995518982
vt 0.389654011 0.947799981
vt 0.135718003 0.960116982
vt 0.140768006 0.915579975
vt 0.0983520001 0.909942985
vt 0.135312006 0.862049997
vt 0.300655007 0.880684018
vt 0.386494011 0.895031989
vt 0.272760004 0.670974016
vt 0.201172993 0.719133973
vt 0.215066999 0.840667009
vt 0.320089012 0.643514991
vt 0.0026120001 0.682285011
vt 0.0026120001 0.64061898
vt 0.0603559986 0.718891025
vt 0.98557502 0.977900028
vt 0.996671021 0.968243003
vt 0.996290028 0.988664985
vt 0.916908979 0.93611902
vt 0.939634025 0.875127017
vt 0.864347994 0.920566976
vt 0.975759983 0.930544019
vt 0.939634025 0.875127017
vt 0.975759983 0.930544019
vt 0.916908979 0.93611902
vt 0.864347994 0.920566976
vt 0.98557502 0.977900028
vt 0.719767988 0.934289992
vt 0.721486986 0.965234995
vt 0.996671021 0.968243003
vt 0.715322018 0.995867014
vt 0.996290028 0.988664985
vt 0.389654011 0.947799981
vt 0.388103992 0.995518982
vt 0.135718003 0.960116982
vt 0.140768006 0.915579975
vt 0.0983520001 0.909942985
vt 0.135312006 0.862049997
vt 0.300655007 0.880684018
vt 0.386494011 0.895031989
vt 0.272760004 0.670974016
vt 0.201172993 0.719133973
vt 0.215066999 0.840667009
vt 0.320089012 0.643514991
vt 0.0026120001 0.682285011
vt 0.0026120001 0.64061898
vt 0.0603559986 0.718891025
vt 0.98557502 0.977900028
vt 0.996290028 0.988664985
vt 0.996671021 0.968243003
vn -0.859337417 -0.0597705499 -0.507904208
vn -0.997927702 0.028625342 -0.0576271825
vn -0.9981281 -0.0374714196 0.0483341263
vn -0.851465628 -0.0576161943 -0.521235703
vn -0.945583527 0.0380320895 0.32314912
vn -0.61433407 0.447521541 0.649860078
vn -0.817067766 -0.353247833 0.455649245
vn -0.935680549 -0.164512143 0.312150068
vn -0.935680549 -0.164512143 0.312150068
vn -0.935680549 -0.164512143 0.312150068
vn 0.817067761 -0.353248039 0.455649094
vn 0.945583594 0.0380317558 0.323148964
vn 0.964274962 -0.0244214271 0.263775268
vn 0.949544353 0.0925405768 0.299669425
vn 0.614334483 0.447521251 0.649859887
vn 0.935680491 -0.164512448 0.31215008
vn 0.935680491 -0.164512448 0.31215008
vn 0.935680491 -0.164512448 0.31215008
vn 0.859337279 -0.0597708799 -0.507904404
vn 0.859337279 -0.0597708799 -0.507904404
vn 0.867299914 -0.0546912512 -0.494772398
vn 0.851171286 -0.0648217752 -0.520870021
vn 1 -4.67605553e-08 -6.28305861e-08
vn 1 -1.96519476e-07 -6.64556511e-08
vn 1 -1.67743722e-07 -1.15908607e-07
vn 1 -2.62174593e-07 -1.11712376e-07
vn 1 -1.35994968e-07 -1.04695008e-07
vn 1 -3.09210569e-07 -1.81410163e-07
vn 1 -5.53927463e-08 -5.9711034e-08
vn 1 -1.5499049e-07 1.56796119e-08
vn 1 -2.43898415e-07 -6.6725368e-08
vn 1 -1.98486073e-07 -2.94602137e-08
vn 1 -2.11925285e-07 -1.85359835e-08
vn 1 -2.04049707e-07 -9.2635938e-09
vn -1 1.6228711e-07 2.14706619e-07
vn -1 6.87999219e-08 1.854389e-07
vn -1 1.80985541e-07 9.7791203e-08
vn -1 1.26608497e-07 1.48857737e-07
vn -1 2.56637899e-07 1.46621626e-07
vn -1 1.81962314e-07 1.05642173e-07
vn -1 1.7321426e-07 2.13462468e-08
vn -1 2.0679549e-07 3.11187133e-08
vn -1 4.29303707e-07 2.39751807e-07
vn -1 3.92785968e-07 1.30666858e-07
vn -1 5.26309361e-07 3.71885003e-09
vn -1 1.90214584e-07 -3.91985813e-07
vn -0.6950837 0.0247754535 0.718501794
vn -0.6950837 0.0247754535 0.718501794
vn -0.695084656 0.0247770084 0.718500815
vn -0.695082744 0.0247738985 0.718502772
vn 5.10693808e-07 0.921406409 0.388600347
vn 5.69247243e-07 0.935970951 0.352077235
vn 5.59066404e-07 0.923852413 0.382748899
vn 4.96637158e-07 0.917728975 0.397207161
vn 4.39269244e-07 0.917728954 0.397207209
vn -1.63118718e-09 -0.00340790521 0.999994193
vn -1.63118718e-09 -0.00340790521 0.999994193
vn -1.63118744e-09 -0.00340790521 0.999994193
vn -1.63118692e-09 -0.00340790521 0.999994193
vn -3.85575102e-07 -0.966660551 0.256061279
vn -3.85575102e-07 -0.966660551 0.256061279
vn -4.62690119e-07 -0.966660563 0.256061234
vn -3.08460084e-07 -0.966660539 0.256061325
vn -7.91779081e-08 0.00271885779 0.999996304
vn -7.91779081e-08 0.00271885779 0.999996304
vn 8.67616973e-10 0.0027189615 0.999996304
vn -1.59223416e-07 0.00271875409 0.999996304
vn 1.38028401e-07 0.999951552 0.00984345306
vn 1.38028401e-07 0.999951552 0.00984345306
vn 1.18085688e-07 0.999951552 0.00984346033
vn 1.57971117e-07 0.999951552 0.0098434458
vn -6.26341876e-08 0.104683421 0.994505596
vn -6.26341876e-08 0.104683421 0.994505596
vn -1.41970578e-07 0.104683322 0.994505607
vn 1.67021854e-08 0.104683519 0.994505586
vn 7.97746292e-08 1 -1.0315543e-07
vn 1.13624251e-07 0.999999939 0.000350055787
vn 7.98715444e-08 0.999999954 0.000303623941
vn 1.1972791e-07 0.999999915 0.000413195373
vn 1.59549317e-07 0.999999915 0.000413232513
vn -0.57076858 -0.359863314 -0.738052589
vn -0.611434541 -0.0322611384 -0.790637099
vn -0.611434701 -0.0322609445 -0.790636982
vn -0.550530859 -0.436047639 -0.711883579
vn -0.510548677 -0.550906772 -0.660183139
vn -2.38947894e-07 -0.727807876 -0.685781084
vn 0.180570686 -0.690450063 -0.700480505
vn 0.274312338 -0.596777258 -0.754062097
vn 0.550530891 -0.436047698 -0.711883518
vn 0.611434465 -0.0322614787 -0.790637143
vn 0.611434463 -0.0322614768 -0.790637145
vn 2.39323958e-07 -8.4555795e-08 -1
vn 2.39323958e-07 -8.4555795e-08 -1
vn 3.19098648e-07 -1.07768994e-13 -1
vn 1.59549269e-07 -1.69111481e-07 -1
vn 0 -0.935970003 -0.352079756
vn -1.9162716e-07 -0.900756053 -0.434325377
vn 0 -0.904547546 -0.426372768
vn -2.15025755e-07 -0.895940557 -0.444173972
vn -4.30051585e-07 -0.895940602 -0.444173882
vn 0.695084194 0.024775163 0.718501326
vn 0.695084194 0.024775163 0.718501326
vn 0.695085187 0.0247767786 0.718500309
vn 0.695083201 0.0247735475 0.718502342
vn -5.81882261e-07 -0.80384085 -0.594844424
vn -4.10686065e-07 -0.736440406 -0.676502423
vn -5.42860792e-07 -0.749934668 -0.6615119
vn -2.76114034e-07 -0.679088079 -0.734056797
vn 1.23051188e-07 -0.679087792 -0.734057063
vn -0.875991671 -0.281341679 0.391772194
vn -0.875991671 -0.281341679 0.391772194
vn -0.884335494 -0.259817227 0.387873359
vn -0.866831516 -0.303500785 0.39558867
vn -5.29839914e-08 0.953767995 -0.300543859
vn -5.29839914e-08 0.953767995 -0.300543859
vn -1.0877844e-07 0.953768005 -0.300543828
vn 5.03806688e-08 0.953767978 -0.300543915
vn -0.965456854 0.158605941 -0.20672982
vn -0.965456854 0.158605941 -0.20672982
vn -0.965456854 0.158605941 -0.20672982
vn 0.875991589 -0.281342093 0.391772081
vn 0.875991589 -0.281342093 0.391772081
vn 0.884517775 -0.283964545 0.370124903
vn 0.866022848 -0.278268366 0.41541683
vn 2.27736563e-07 0.777232837 0.629213094
vn 2.27736563e-07 0.777232837 0.629213094
vn 2.27736563e-07 0.777232837 0.629213094
vn 0.954522115 0.181479025 -0.236543644
vn 0.954522115 0.181479025 -0.236543644
vn 0.954522115 0.181479025 -0.236543644
vn 2.25614445e-08 -0.851131286 0.524952888
vn 2.25614445e-08 -0.851131286 0.524952888
vn 4.40336479e-08 -0.851131291 0.52495288
vn 0 -0.85113128 0.524952896
vn -0.870448501 -0.421817734 0.253750284
vn -0.870448501 -0.421817734 0.253750284
vn -0.875706779 -0.411423807 0.252721367
vn -0.865540973 -0.431262296 0.254659885
vn -0.865787274 0.399263852 -0.301663344
vn -0.865787274 0.399263852 -0.301663344
vn -0.865789004 0.399260207 -0.301663202
vn -0.865785455 0.399267683 -0.301663493
vn -1.00385808e-07 0.8117991 -0.58393683
vn -1.00385808e-07 0.8117991 -0.58393683
vn 0 0.811799132 -0.583936785
vn -2.0586405e-07 0.811799066 -0.583936877
vn 0.865787428 0.399263421 -0.301663472
vn 0.865787428 0.399263421 -0.301663472
vn 0.865789179 0.399262051 -0.301660258
vn 0.865785587 0.399264861 -0.301666849
vn 0.870448002 -0.421818708 0.253750377
vn 0.870448002 -0.421818708 0.253750377
vn 0.873888087 -0.418786221 0.246855653
vn 0.865784044 -0.425803882 0.262885988
vn 1.16380758e-07 -0.56470349 -0.825293868
vn 0 -0.564705229 -0.825292678
vn 9.69838325e-08 -0.564705091 -0.825292773
vn 5.81900112e-08 -0.564702786 -0.825294349
vn 0 -0.564701296 -0.825295369
vn -2.90953689e-07 -0.564701712 -0.825295084
vn 1 -1.34664537e-07 -3.6280614e-23
vn 1 -1.34664537e-07 -3.6280614e-23
vn 1 -1.34664537e-07 -3.6280614e-23
vn -1 1.7955262e-07 4.83741259e-23
vn -1 1.7955262e-07 4.83741259e-23
vn -1 1.7955262e-07 4.83741259e-23
vn -0.696542363 6.34744559e-08 0.717515669
vn -0.696542363 6.34744559e-08 0.717515669
vn -0.69654228 1.8829206e-09 0.71751575
vn -0.696542447 1.25066021e-07 0.717515589
vn 7.05867903e-07 1 2.6941476e-16
vn 7.05867903e-07 1 -9.43973829e-08
vn 7.05867903e-07 1 2.6941476e-16
vn 7.05867903e-07 1 -1.67101139e-07
vn 7.05867903e-07 1 -7.27121838e-07
vn 0.696542509 8.09906122e-08 0.717515529
vn 0.696542509 8.09906122e-08 0.717515529
vn 0.696542571 3.50322683e-08 0.717515468
vn 0.696542447 1.26948912e-07 0.717515589
vn 0 -0.882863534 0.46962962
vn 0 -0.882863534 0.46962962
vn 0 -0.882863534 0.46962962
vn 0 -0.882863534 0.46962962
vn -0.882431501 -0.409469736 0.23162293
vn -0.882431501 -0.409469736 0.23162293
vn -0.896742967 -0.375541269 0.234138435
vn -0.864205063 -0.448368665 0.228287428
vn -0.882431604 0.364210058 -0.297767525
vn -0.882431604 0.364210058 -0.297767525
vn -0.895356863 0.331186518 -0.297744149
vn -0.86587979 0.402310601 -0.297318633
vn -3.75666799e-07 0.757527535 -0.652803212
vn -3.75666799e-07 0.757527535 -0.652803212
vn -2.22482394e-07 0.757527597 -0.65280314
vn -5.34125388e-07 0.757527471 -0.652803286
vn 0.882431785 0.364209562 -0.297767592
vn 0.882431785 0.364209562 -0.297767592
vn 0.896744596 0.354263671 -0.265228921
vn 0.864203554 0.375191561 -0.335236498
vn 0.882432648 -0.40946907 0.231619737
vn 0.882432648 -0.40946907 0.231619737
vn 0.895357637 -0.397485783 0.200847587
vn 0.865881235 -0.422851092 0.267295045
vn 1.16380533e-07 -0.56470369 -0.825293731
vn 0 -0.56470204 -0.82529486
vn 9.69841189e-08 -0.564701902 -0.825294955
vn 1.96013816e-07 -0.564704483 -0.825293188
vn 2.29706104e-07 -0.564706251 -0.825291979
vn 3.98168817e-07 -0.56470601 -0.825292144
vn -0.70710709 -0.591236823 0.387864128
vn -0.707076551 -0.596313054 0.380070378
vn -0.707107376 -0.591236576 0.387863984
vn -0.706990705 -0.601083898 0.37264231
vn -0.665735444 -0.741517501 0.0833553497
vn -0.707105986 0.591237794 -0.387864662
vn -0.707075368 0.586110518 -0.395624676
vn -0.70710653 0.591237323 -0.387864388
vn -0.706989204 0.581197258 -0.402959071
vn -0.665733321 0.371774772 -0.646979647
vn 0.707104114 0.591239251 -0.387865852
vn 0.707073481 0.586112003 -0.395625849
vn 0.707105208 0.591238369 -0.387865203
vn 0.70698678 0.581199168 -0.40296057
vn 0.665731299 0.371777457 -0.646980185
vn 0.70710621 -0.591237631 0.387864502
vn 0.707075687 -0.59631384 0.380070754
vn 0.707105835 -0.591237934 0.387864724
vn 0.706990483 -0.601084149 0.372642326
vn 0.665735261 -0.741517643 0.0833555541
vn -0.707106614 -0.591237567 0.387863863
vn -0.706658022 -0.610392115 0.357848999
vn -0.707107704 -0.591236524 0.387863465
vn -0.705574635 -0.62602946 0.332041487
vn -0.647499047 -0.761825045 0.0191725323
vn -0.70710835 0.591236024 -0.387863049
vn -0.706659884 0.571332182 -0.417386328
vn -0.707109861 0.591234579 -0.387862498
vn -0.70557627 0.553887546 -0.442007595
vn -0.647501767 0.320977474 -0.691169243
vn 0.707109518 0.59123478 -0.387862817
vn 0.706661068 0.571330973 -0.417385978
vn 0.707110074 0.591234382 -0.387862409
vn 0.705578262 0.553885455 -0.442007035
vn 0.647503322 0.320976816 -0.691168092
vn 0.707106052 -0.591238127 0.387864034
vn 0.706657372 -0.610392739 0.357849216
vn 0.707107549 -0.591237055 0.387862938
vn 0.705573591 -0.626030174 0.33204236
vn 0.647497314 -0.761826519 0.0191724579
vn 0.999088369 -0.0351976207 0.0241569722
vn 0.854490867 0.303995614 0.421226809
vn 0.985894713 -0.119072506 -0.117615272
vn 0.669598092 0.488102816 0.559816073
vn 0.80112607 -0.418227455 -0.428115423
vn 0.697621417 -0.538095415 -0.47305146
vn 0.864072462 -0.29439129 -0.408304479
vn 0.993990318 -0.0894012775 -0.0631716713
vn 0.813143693 -0.261989135 -0.519768244
vn 0.989947467 0.0830756836 -0.114465903
vn 0.734583765 0.542654924 -0.407323368
vn 0.778054069 0.585216652 0.228371048
vn 0.991732395 0.0812140919 0.0993535516
vn 0.925819724 -0.0716481346 0.371112358
vn 0.991620491 -0.0571934414 0.115834851
vn 0.957193053 0.0473053241 -0.285558517
vn 0.910227048 0.397779386 0.115144607
vn 0.902750102 0.13785895 0.40747658
vn 0.991601108 0.0844590176 0.0979485427
vn 0.845869275 0.332092403 0.41739646
vn 0.800202711 -0.344069029 -0.491214947
vn 0.746274749 -0.473372453 0.467966367
vn 0.746274749 -0.473372453 0.467966367
vn 0.746274749 -0.473372453 0.467966367
vn -0.989905382 0.0953080463 0.104898575
vn -0.975548479 0.214994162 0.0456363307
vn -0.989905382 0.0953080463 0.104898575
vn -0.985902634 -0.0308388006 0.164453531
vn 0.989905477 0.095306755 0.104898854
vn 0.989905477 0.095306755 0.104898854
vn 0.985902447 -0.0308411016 0.164454225
vn 0.975548544 0.214993908 0.0456361393
vn -0.999088388 -0.0351971336 0.0241568981
vn -0.85449041 0.30399633 0.42122722
vn -0.669597984 0.488103169 0.559815896
vn -0.985894752 -0.119072136 -0.117615325
vn -0.801125523 -0.418227744 -0.428116165
vn -0.697621554 -0.538095068 -0.473051652
vn -0.864072317 -0.294391267 -0.408304805
vn -0.993990365 -0.089400842 -0.0631715486
vn -0.813143891 -0.26198882 -0.519768092
vn -0.989947453 0.0830759024 -0.114465865
vn -0.734583205 0.542655463 -0.407323658
vn -0.778053334 0.585217501 0.228371379
vn -0.991732356 0.0812143318 0.0993537446
vn -0.925819799 -0.0716477617 0.371112244
vn -0.991620511 -0.0571931361 0.11583483
vn -0.957193133 0.0473056907 -0.285558188
vn -0.910226878 0.397779707 0.115144843
vn -0.902750283 0.137859169 0.407476106
vn -0.991601083 0.0844592884 0.0979485663
vn -0.845869221 0.332092653 0.417396372
vn -0.800203182 -0.344068552 -0.491214513
vn -0.746274954 -0.473372098 0.467966399
vn -0.746274954 -0.473372098 0.467966399
vn -0.746274954 -0.473372098 0.467966399
vn 1 -6.90321306e-08 -2.26692802e-07
vn 1 -1.64225854e-07 -2.62866937e-07
vn 1 -9.51068688e-08 -1.95993435e-07
vn 1 -1.71624822e-07 -1.98251047e-07
vn 1 -3.94594152e-08 -9.313327e-08
vn 1 -5.40197193e-08 -5.80959875e-08
vn 1 -3.17556441e-08 -1.03958435e-07
vn 1 -7.84018926e-08 -1.9204378e-07
vn 1 -6.88746546e-11 -1.01692757e-07
vn 1 -1.54879207e-07 -5.66411818e-08
vn 1 -1.51049554e-07 -1.71908805e-07
vn 1 -1.14464164e-07 -1.48757674e-07
vn -1 2.36734913e-07 1.06238407e-07
vn -1 2.94124229e-07 1.37318974e-07
vn -1 3.21038461e-07 9.9622185e-08
vn -1 1.98514805e-07 1.51237259e-07
vn -1 1.94917973e-07 1.40490456e-07
vn -1 3.98337206e-08 1.20909625e-07
vn -1 -2.52840898e-08 1.66440732e-07
vn -1 1.48949209e-08 1.03076732e-07
vn -1 3.46978767e-08 7.7084913e-08
vn -1 1.03005276e-07 1.28790276e-07
vn -1 1.56584583e-07 9.90862796e-08
vn -1 3.00513277e-07 -1.25255099e-10
vn -0.69508398 -0.0247749005 0.718501542
vn -0.69508398 -0.0247749005 0.718501542
vn -0.695082856 -0.0247730724 0.718502692
vn -0.695085104 -0.0247767285 0.718500391
vn -4.39269741e-07 -0.917730212 0.397204302
vn -4.75153286e-07 -0.921406873 0.388599246
vn -2.61159685e-07 -0.917730276 0.397204154
vn -6.20133782e-07 -0.923852314 0.382749136
vn -6.25419972e-07 -0.935968484 0.352083792
vn 4.15184215e-08 0.00340817729 0.999994192
vn 4.15184215e-08 0.00340817729 0.999994192
vn 2.17511435e-09 0.00340821563 0.999994192
vn 8.08617378e-08 0.00340813895 0.999994192
vn 4.6269018e-07 0.966660594 0.256061118
vn 4.6269018e-07 0.966660594 0.256061118
vn 3.08460109e-07 0.966660618 0.256061026
vn 6.16920261e-07 0.96666057 0.256061209
vn -8.02081146e-08 -0.00271854794 0.999996305
vn -8.02081146e-08 -0.00271854794 0.999996305
vn -1.59548747e-07 -0.00271844515 0.999996305
vn -8.67517809e-10 -0.00271865073 0.999996304
vn -1.57078193e-09 -0.999951536 0.00984511725
vn -1.57078193e-09 -0.999951536 0.00984511725
vn -1.57078193e-09 -0.999951536 0.00984511725
vn -1.57078193e-09 -0.999951536 0.00984511725
vn -8.76874285e-08 -0.104683317 0.994505607
vn -8.76874285e-08 -0.104683317 0.994505607
vn -1.67021666e-08 -0.104683405 0.994505598
vn -1.58672712e-07 -0.104683229 0.994505617
vn -1.5954935e-07 -1 2.06311011e-07
vn -1.59549329e-07 -0.999999938 0.000353160302
vn -1.59549342e-07 -0.999999953 0.000306385368
vn -1.59549323e-07 -0.999999913 0.000416803841
vn -1.5954931e-07 -0.999999913 0.000416803841
vn -0.570768465 0.359862519 -0.738053065
vn -0.611434375 0.0322607186 -0.790637244
vn -0.550530699 0.436047039 -0.71188407
vn -0.611434568 0.0322604855 -0.790637104
vn -0.510548368 0.550906626 -0.6601835
vn 5.73900774e-07 0.727807547 -0.685781433
vn 0.274312962 0.59677641 -0.754062541
vn 0.180571052 0.690449706 -0.700480763
vn 0.550530734 0.436046935 -0.711884107
vn 0.611434261 0.0322606118 -0.790637336
vn 0.611434416 0.0322607973 -0.790637209
vn 2.39323979e-07 -8.45557785e-08 -1
vn 2.39323979e-07 -8.45557785e-08 -1
vn 1.59549324e-07 -1.99212124e-14 -1
vn 3.19098684e-07 -1.69111589e-07 -1
vn 1.12346009e-07 0.935972576 -0.352072915
vn 2.65984138e-07 0.900756341 -0.434324781
vn 1.36054614e-07 0.90454811 -0.426371571
vn 2.84682112e-07 0.895940506 -0.444174077
vn 4.27628862e-07 0.895940535 -0.444174017
vn 0.695083881 -0.0247751801 0.718501628
vn 0.695083881 -0.0247751801 0.718501628
vn 0.695082838 -0.0247734843 0.718502695
vn 0.695084923 -0.0247768759 0.718500561
vn 0 0.837186603 -0.546917354
vn 0 0.749934827 -0.66151172
vn 0 0.725224473 -0.688512501
vn 0 0.608609254 -0.793470085
vn 0 0.608609254 -0.793470085
vn -0.88272084 0.283412485 0.374808327
vn -0.88272084 0.283412485 0.374808327
vn -0.866862736 0.321328026 0.381178825
vn -0.896504467 0.246563059 0.368084771
vn 3.53226205e-08 -0.953768143 -0.300543391
vn 3.53226205e-08 -0.953768143 -0.300543391
vn 0 -0.953768149 -0.300543372
vn 5.4389177e-08 -0.953768139 -0.300543402
vn -0.960643945 -0.179038966 -0.212387051
vn -0.960643945 -0.179038966 -0.212387051
vn -0.960643945 -0.179038966 -0.212387051
vn 0.882720801 0.283412287 0.374808568
vn 0.962690855 0.159237051 0.218791862
vn 0.866022922 0.278268304 0.415416718
vn 0.989609521 0.0926707604 0.10993237
vn 0.948306508 -0.204545463 -0.242643609
vn -1.13868408e-07 -0.777232592 0.629213396
vn -1.13868408e-07 -0.777232592 0.629213396
vn -1.13868408e-07 -0.777232592 0.629213396
vn -1.88018344e-07 0.837234528 0.546843986
vn -1.88018344e-07 0.837234528 0.546843986
vn -3.85574663e-07 0.837234479 0.546844061
vn 0 0.837234574 0.546843915
vn -0.864279402 0.427060107 0.265783334
vn -0.864279402 0.427060107 0.265783334
vn -0.863090251 0.42804297 0.268056774
vn -0.865785278 0.425802977 0.262883391
vn -0.865786593 -0.399265114 -0.301663627
vn -0.865786593 -0.399265114 -0.301663627
vn -0.86578404 -0.399270492 -0.301663837
vn -0.865789023 -0.399259996 -0.301663428
vn 1.00385917e-07 -0.81179905 -0.5839369
vn 1.00385917e-07 -0.81179905 -0.5839369
vn 2.0586425e-07 -0.811799084 -0.583936853
vn 0 -0.811799018 -0.583936944
vn 0.865786445 -0.39926541 -0.301663659
vn 0.865786445 -0.39926541 -0.301663659
vn 0.865783856 -0.399267436 -0.301668411
vn 0.86578891 -0.399263483 -0.301659136
vn 0.86427985 0.427059462 0.265782914
vn 0.86427985 0.427059462 0.265782914
vn 0.865785416 0.42580259 0.262883563
vn 0.863090944 0.428042126 0.268055892
vn 5.8190102e-08 0.564703869 -0.825293608
vn 2.90952977e-07 0.564705886 -0.825292228
vn 9.69838464e-08 0.564705609 -0.825292418
vn 1.16381193e-07 0.56470311 -0.825294128
vn 1.93968339e-07 0.564701537 -0.825295204
vn 5.81907707e-07 0.564702092 -0.825294825
vn 1 -2.69327982e-07 -7.23204845e-08
vn 1 -2.69327982e-07 -7.23204845e-08
vn 1 -2.69327982e-07 -7.23204845e-08
vn -1 3.59103988e-07 1.44640979e-07
vn -1 3.59103988e-07 1.44640979e-07
vn -1 3.59103988e-07 1.44640979e-07
vn -0.696542746 4.11170362e-07 0.717515298
vn -0.696542746 4.11170362e-07 0.717515298
vn -0.696542702 4.4337818e-07 0.717515341
vn -0.696542789 3.78962548e-07 0.717515256
vn 0 -1 0
vn 0 -1 0
vn 0 -1 0
vn 0 -1 0
vn 0 -1 0
vn 0.696542701 -5.782571e-08 0.717515342
vn 0.696542701 -5.782571e-08 0.717515342
vn 0.696542615 -1.21299893e-07 0.717515425
vn 0.696542787 5.64847305e-09 0.717515259
vn -5.30583512e-07 0.882863516 0.469629654
vn -5.30583512e-07 0.882863516 0.469629654
vn -1.24499698e-06 0.882863309 0.469630043
vn 1.60055872e-07 0.882863716 0.469629278
vn -0.882431278 0.409470276 0.231622823
vn -0.882431278 0.409470276 0.231622823
vn -0.864204891 0.448369054 0.228287313
vn -0.89674271 0.375541943 0.234138337
vn -0.882431729 -0.364209739 -0.297767543
vn -0.882431729 -0.364209739 -0.297767543
vn -0.865880041 -0.402310069 -0.297318622
vn -0.895356905 -0.331186362 -0.297744197
vn 7.51333676e-07 -0.757527581 -0.652803159
vn 7.51333676e-07 -0.757527581 -0.652803159
vn 1.06825111e-06 -0.757527709 -0.652803011
vn 4.44964974e-07 -0.757527457 -0.652803302
vn 0.882431547 -0.364210206 -0.297767512
vn 0.882431547 -0.364210206 -0.297767512
vn 0.864203103 -0.375192333 -0.335236797
vn 0.896744505 -0.354264199 -0.265228523
vn 0.882433003 0.409468373 0.231619615
vn 0.882433003 0.409468373 0.231619615
vn 0.865881659 0.422850376 0.267294803
vn 0.895357953 0.397485095 0.200847539
vn -1.59265972e-07 0.564703739 -0.825293697
vn -7.96335658e-07 0.564704609 -0.825293102
vn -2.65444242e-07 0.564705368 -0.825292583
vn -1.59265629e-07 0.564702849 -0.825294306
vn -2.6544215e-07 0.564700917 -0.825295629
vn -7.96329381e-07 0.564700158 -0.825296148
vn -0.707102823 0.59124044 0.387866394
vn -0.707072416 0.596316603 0.380072502
vn -0.706991102 0.601083514 0.372642175
vn -0.70709847 0.591244209 0.387868586
vn -0.665735951 0.741517227 0.0833537338
vn -0.707104967 -0.591238755 -0.387865053
vn -0.707074368 -0.586111438 -0.395625101
vn -0.706989332 -0.581197193 -0.40295894
vn -0.70710434 -0.591239298 -0.387865369
vn -0.665732827 -0.37177451 -0.646980306
vn 0.707104363 -0.591239291 -0.387865338
vn 0.707073713 -0.586112025 -0.395625403
vn 0.706987449 -0.581198823 -0.402959894
vn 0.70710498 -0.591238794 -0.387864972
vn 0.665730486 -0.37177685 -0.646981371
vn 0.707104528 0.591238986 0.387865503
vn 0.707074106 0.596315154 0.380071632
vn 0.706992907 0.601082197 0.372640876
vn 0.707100033 0.591242611 0.387868171
vn 0.665737106 0.741516204 0.0833536187
vn -0.707107098 0.59123747 0.387863128
vn -0.706658501 0.610391938 0.357848355
vn -0.705575795 0.626028585 0.332040673
vn -0.707107393 0.591237188 0.38786302
vn -0.647499508 0.761824664 0.0191720799
vn -0.707109081 -0.59123548 -0.387862545
vn -0.706660531 -0.571331686 -0.417385912
vn -0.705576818 -0.553887084 -0.442007298
vn -0.707110618 -0.59123401 -0.387861984
vn -0.647501025 -0.320976574 -0.691170357
vn 0.707108781 -0.591235747 -0.387862685
vn 0.706660239 -0.571331941 -0.417386056
vn 0.705576588 -0.553886892 -0.442007907
vn 0.707110221 -0.591234717 -0.387861632
vn 0.647500844 -0.32097674 -0.691170449
vn 0.707107282 0.591237256 0.387863118
vn 0.706658684 0.610391738 0.357848334
vn 0.705575953 0.626028313 0.332040851
vn 0.707107618 0.591237016 0.387862873
vn 0.647499593 0.761824597 0.0191718551
vn 0.999088389 0.0351970851 0.0241568961
vn 0.854490778 -0.303996078 0.421226656
vn 0.669591718 -0.488107124 0.559819941
vn 0.985894747 0.119072027 -0.117615476
vn 0.801126518 0.41822694 -0.428115088
vn 0.697622426 0.538094883 -0.473050576
vn 0.864072353 0.294391096 -0.408304851
vn 0.993990353 0.0894008447 -0.0631717324
vn 0.813143902 0.261988614 -0.519768179
vn 0.989947467 -0.0830758209 -0.114465806
vn 0.734583366 -0.542654111 -0.40732517
vn 0.778055081 -0.585215445 0.228370694
vn 0.991732373 -0.0812143005 0.099353599
vn 0.925819809 0.0716478829 0.371112195
vn 0.991620507 0.057193182 0.11583484
vn 0.957193066 -0.04730575 -0.285558401
vn 0.910227141 -0.397779037 0.115145077
vn 0.90275014 -0.137859091 0.407476449
vn 0.991601062 -0.0844594176 0.0979486664
vn 0.845869135 -0.332092659 0.417396541
vn 0.80020329 0.344068434 -0.491214421
vn 0.746274555 0.473372822 0.467966301
vn 0.746274555 0.473372822 0.467966301
vn 0.746274555 0.473372822 0.467966301
vn -0.989905346 -0.0953084433 0.10489855
vn -0.989905346 -0.0953084433 0.10489855
vn -0.975548357 -0.214994644 0.0456366754
vn -0.985902629 0.0308392629 0.164453478
vn 0.989905385 -0.0953075746 0.104898971
vn 0.985902417 0.0308412256 0.164454382
vn 0.989905385 -0.0953075746 0.104898971
vn 0.975548319 -0.214994835 0.0456365785
vn -0.999088357 0.035197884 0.0241570843
vn -0.854490187 -0.30399637 0.421227643
vn -0.985894697 0.119072561 -0.117615357
vn -0.669587542 -0.488109269 0.559823067
vn -0.801124957 0.41822875 -0.428116241
vn -0.697617915 0.538098474 -0.473053144
vn -0.993990337 0.0894011945 -0.0631714783
vn -0.864072058 0.294391699 -0.408305042
vn -0.813143576 0.261989051 -0.519768469
vn -0.989947485 -0.0830756006 -0.114465809
vn -0.734583833 -0.542653679 -0.407324903
vn -0.778055454 -0.585214964 0.228370656
vn -0.99173238 -0.0812140854 0.0993537029
vn -0.925819722 0.0716482009 0.371112352
vn -0.991620484 0.0571935062 0.115834878
vn -0.957193035 -0.0473054492 -0.285558554
vn -0.910227182 -0.397778942 0.115145087
vn -0.902750178 -0.137858805 0.407476462
vn -0.991601108 -0.08445897 0.0979485841
vn -0.845869121 -0.332092477 0.417396714
vn -0.800202772 0.344068975 -0.491214885
vn -0.746270386 0.47337653 0.467969201
vn -0.746270386 0.47337653 0.467969201
vn -0.746270386 0.47337653 0.467969201

g gun29_submesh_0
usemtl TRINITY-02_-_Default
f 1/1/1 3/3/3 2/2/2
f 1/1/1 2/2/2 4/4/4
f 3/3/3 5/5/5 2/2/2
f 2/2/2 5/5/5 6/6/6
f 3/3/3 7/7/7 5/5/5
f 8/8/8 10/10/10 9/9/9
f 11/11/11 13/13/13 12/12/12
f 12/12/12 13/13/13 14/14/14
f 15/15/15 12/12/12 14/14/14
f 16/16/16 18/18/18 17/17/17
f 19/19/19 21/21/21 20/20/20
f 19/19/19 20/20/20 22/22/22
f 23/23/23 25/25/25 24/24/24
f 23/23/23 24/24/24 26/26/26
f 27/27/27 25/25/25 23/23/23
f 27/27/27 28/28/28 25/25/25
f 27/27/27 23/23/23 29/29/29
f 27/27/27 29/29/29 30/30/30
f 31/31/31 28/28/28 27/27/27
f 31/31/31 32/32/32 28/28/28
f 33/33/33 32/32/32 31/31/31
f 33/33/33 31/31/31 34/34/34
f 35/35/35 37/37/37 36/36/36
f 35/35/35 36/36/36 38/38/38
f 39/39/39 37/37/37 35/35/35
f 39/39/39 40/40/40 37/37/37
f 37/37/37 40/40/40 41/41/41
f 37/37/37 41/41/41 42/42/42
f 43/43/43 40/40/40 39/39/39
f 43/43/43 44/44/44 40/40/40
f 45/45/45 44/44/44 43/43/43
f 45/45/45 46/46/46 44/44/44
f 47/47/47 49/49/49 48/48/48
f 47/47/47 48/48/48 50/50/50
f 51/51/51 53/53/53 52/52/52
f 54/54/54 53/53/53 51/51/51
f 54/54/54 51/51/51 55/55/55
f 56/56/56 58/58/58 57/57/57
f 56/56/56 57/57/57 59/59/59
f 60/60/60 62/62/62 61/61/61
f 60/60/60 61/61/61 63/63/63
f 64/64/64 66/66/66 65/65/65
f 64/64/64 65/65/65 67/67/67
f 68/68/68 70/70/70 69/69/69
f 68/68/68 69/69/69 71/71/71
f 72/72/72 74/74/74 73/73/73
f 72/72/72 73/73/73 75/75/75
f 76/76/76 78/78/78 77/77/77
f 77/77/77 78/78/78 79/79/79
f 77/77/77 79/79/79 80/80/80
f 81/81/81 83/83/83 82/82/82
f 81/81/81 82/82/82 84/84/84
f 85/85/85 81/81/81 84/84/84
f 86/86/86 88/88/88 87/87/87
f 87/87/87 88/88/88 89/89/89
f 88/88/88 90/90/90 89/89/89
f 88/88/88 91/91/91 90/90/90
f 92/92/92 94/94/94 93/93/93
f 92/92/92 93/93/93 95/95/95
f 96/96/96 98/98/98 97/97/97
f 97/97/97 98/98/98 99/99/99
f 97/97/97 99/99/99 100/100/100
f 101/101/101 103/103/103 102/102/102
f 101/101/101 102/102/102 104/104/104
f 105/105/105 107/107/107 106/106/106
f 106/106/106 107/107/107 108/108/108
f 106/106/106 108/108/108 109/109/109
f 110/110/110 112/112/112 111/111/111
f 110/110/110 111/111/111 113/113/113
f 114/114/114 116/116/116 115/115/115
f 114/114/114 115/115/115 117/117/117
f 118/118/118 120/120/120 119/119/119
f 121/121/121 123/123/123 122/122/122
f 121/121/121 122/122/122 124/124/124
f 125/125/125 127/127/127 126/126/126
f 128/128/128 130/130/130 129/129/129
f 131/131/131 133/133/133 132/132/132
f 131/131/131 132/132/132 134/134/134
f 135/135/135 137/137/137 136/136/136
f 135/135/135 136/136/136 138/138/138
f 139/139/139 141/141/141 140/140/140
f 139/139/139 140/140/140 142/142/142
f 143/143/143 145/145/145 144/144/144
f 143/143/143 144/144/144 146/146/146
f 147/147/147 149/149/149 148/148/148
f 147/147/147 148/148/148 150/150/150
f 151/151/151 153/153/153 152/152/152
f 151/151/151 152/152/152 154/154/154
f 155/155/155 157/157/157 156/156/156
f 157/157/157 155/155/155 158/158/158
f 158/158/158 155/155/155 159/159/159
f 158/158/158 159/159/159 160/160/160
f 161/161/161 163/163/163 162/162/162
f 164/164/164 166/166/166 165/165/165
f 167/167/167 169/169/169 168/168/168
f 167/167/167 168/168/168 170/170/170
f 171/171/171 173/173/173 172/172/172
f 171/171/171 172/172/172 174/174/174
f 174/174/174 172/172/172 175/175/175
f 176/176/176 178/178/178 177/177/177
f 176/176/176 177/177/177 179/179/179
f 180/180/180 182/182/182 181/181/181
f 180/180/180 181/181/181 183/183/183
f 184/184/184 186/186/186 185/185/185
f 184/184/184 185/185/185 187/187/187
f 188/188/188 190/190/190 189/189/189
f 188/188/188 189/189/189 191/191/191
f 192/192/192 194/194/194 193/193/193
f 192/192/192 193/193/193 195/195/195
f 196/196/196 198/198/198 197/197/197
f 196/196/196 197/197/197 199/199/199
f 200/200/200 202/202/202 201/201/201
f 200/200/200 201/201/201 203/203/203
f 204/204/204 206/206/206 205/205/205
f 206/206/206 204/204/204 207/207/207
f 207/207/207 204/204/204 208/208/208
f 207/207/207 208/208/208 209/209/209
f 210/210/210 212/212/212 211/211/211
f 210/210/210 211/211/211 213/213/213
f 213/213/213 211/211/211 214/214/214
f 215/215/215 217/217/217 216/216/216
f 215/215/215 216/216/216 218/218/218
f 218/218/218 216/216/216 219/219/219
f 220/220/220 222/222/222 221/221/221
f 220/220/220 221/221/221 223/223/223
f 223/223/223 221/221/221 224/224/224
f 225/225/225 227/227/227 226/226/226
f 225/225/225 226/226/226 228/228/228
f 228/228/228 226/226/226 229/229/229
f 230/230/230 232/232/232 231/231/231
f 230/230/230 231/231/231 233/233/233
f 233/233/233 231/231/231 234/234/234
f 235/235/235 237/237/237 236/236/236
f 235/235/235 236/236/236 238/238/238
f 238/238/238 236/236/236 239/239/239
f 240/240/240 242/242/242 241/241/241
f 240/240/240 241/241/241 243/243/243
f 243/243/243 241/241/241 244/244/244
f 245/245/245 247/247/247 246/246/246
f 245/245/245 246/246/246 248/248/248
f 248/248/248 246/246/246 249/249/249
f 250/250/250 252/252/252 251/251/251
f 250/250/250 251/251/251 253/253/253
f 250/250/250 254/254/254 252/252/252
f 250/250/250 255/255/255 254/254/254
f 252/252/252 254/254/254 256/256/256
f 252/252/252 256/256/256 257/257/257
f 251/251/251 252/252/252 257/257/257
f 257/257/257 256/256/256 258/258/258
f 257/257/257 258/258/258 259/259/259
f 259/259/259 258/258/258 260/260/260
f 261/261/261 259/259/259 260/260/260
f 262/262/262 257/257/257 259/259/259
f 251/251/251 257/257/257 263/263/263
f 263/263/263 257/257/257 262/262/262
f 264/264/264 263/263/263 262/262/262
f 265/265/265 264/264/264 262/262/262
f 265/265/265 262/262/262 266/266/266
f 266/266/266 262/262/262 259/259/259
f 266/266/266 259/259/259 261/261/261
f 264/264/264 267/267/267 263/263/263
f 268/268/268 267/267/267 264/264/264
f 265/265/265 268/268/268 264/264/264
f 268/268/268 269/269/269 267/267/267
f 265/265/265 270/270/270 268/268/268
f 271/271/271 273/273/273 272/272/272
f 274/274/274 276/276/276 275/275/275
f 274/274/274 277/277/277 276/276/276
f 278/278/278 280/280/280 279/279/279
f 281/281/281 278/278/278 279/279/279
f 282/282/282 284/284/284 283/283/283
f 282/282/282 283/283/283 285/285/285
f 282/282/282 285/285/285 286/286/286
f 282/282/282 286/286/286 287/287/287
f 285/285/285 288/288/288 286/286/286
f 285/285/285 289/289/289 288/288/288
f 283/283/283 289/289/289 285/285/285
f 289/289/289 290/290/290 288/288/288
f 289/289/289 291/291/291 290/290/290
f 291/291/291 292/292/292 290/290/290
f 293/293/293 292/292/292 291/291/291
f 294/294/294 291/291/291 289/289/289
f 283/283/283 295/295/295 289/289/289
f 295/295/295 294/294/294 289/289/289
f 296/296/296 294/294/294 295/295/295
f 297/297/297 294/294/294 296/296/296
f 297/297/297 298/298/298 294/294/294
f 298/298/298 293/293/293 291/291/291
f 298/298/298 291/291/291 294/294/294
f 296/296/296 295/295/295 299/299/299
f 300/300/300 296/296/296 299/299/299
f 297/297/297 296/296/296 300/300/300
f 300/300/300 299/299/299 301/301/301
f 297/297/297 300/300/300 302/302/302
f 303/303/303 305/305/305 304/304/304
f 306/306/306 308/308/308 307/307/307
f 306/306/306 307/307/307 309/309/309
f 309/309/309 307/307/307 310/310/310
f 309/309/309 310/310/310 311/311/311
f 311/311/311 310/310/310 312/312/312
f 311/311/311 312/312/312 313/313/313
f 312/312/312 310/310/310 314/314/314
f 312/312/312 314/314/314 315/315/315
f 313/313/313 312/312/312 316/316/316
f 313/313/313 316/316/316 317/317/317
f 318/318/318 320/320/320 319/319/319
f 318/318/318 319/319/319 321/321/321
f 319/319/319 320/320/320 322/322/322
f 319/319/319 322/322/322 323/323/323
f 323/323/323 322/322/322 324/324/324
f 323/323/323 324/324/324 325/325/325
f 323/323/323 325/325/325 326/326/326
f 323/323/323 326/326/326 327/327/327
f 325/325/325 324/324/324 328/328/328
f 325/325/325 328/328/328 329/329/329
f 330/330/330 332/332/332 331/331/331
f 330/330/330 331/331/331 333/333/333
f 334/334/334 336/336/336 335/335/335
f 334/334/334 335/335/335 337/337/337
f 337/337/337 335/335/335 338/338/338
f 339/339/339 341/341/341 340/340/340
f 339/339/339 340/340/340 342/342/342
f 343/343/343 345/345/345 344/344/344
f 343/343/343 344/344/344 346/346/346
f 347/347/347 349/349/349 348/348/348
f 347/347/347 348/348/348 350/350/350
f 351/351/351 353/353/353 352/352/352
f 351/351/351 352/352/352 354/354/354
f 355/355/355 357/357/357 356/356/356
f 355/355/355 356/356/356 358/358/358
f 359/359/359 361/361/361 360/360/360
f 360/360/360 361/361/361 362/362/362
f 360/360/360 362/362/362 363/363/363
f 364/364/364 366/366/366 365/365/365
f 364/364/364 365/365/365 367/367/367
f 368/368/368 366/366/366 364/364/364
f 369/369/369 371/371/371 370/370/370
f 371/371/371 372/372/372 370/370/370
f 370/370/370 372/372/372 373/373/373
f 370/370/370 373/373/373 374/374/374
f 375/375/375 377/377/377 376/376/376
f 375/375/375 376/376/376 378/378/378
f 379/379/379 381/381/381 380/380/380
f 380/380/380 381/381/381 382/382/382
f 380/380/380 382/382/382 383/383/383
f 384/384/384 386/386/386 385/385/385
f 384/384/384 385/385/385 387/387/387
f 388/388/388 390/390/390 389/389/389
f 390/390/390 391/391/391 389/389/389
f 390/390/390 392/392/392 391/391/391
f 393/393/393 395/395/395 394/394/394
f 393/393/393 394/394/394 396/396/396
f 397/397/397 399/399/399 398/398/398
f 397/397/397 398/398/398 400/400/400
f 401/401/401 403/403/403 402/402/402
f 404/404/404 406/406/406 405/405/405
f 404/404/404 405/405/405 407/407/407
f 408/408/408 407/407/407 405/405/405
f 409/409/409 411/411/411 410/410/410
f 412/412/412 414/414/414 413/413/413
f 412/412/412 413/413/413 415/415/415
f 416/416/416 418/418/418 417/417/417
f 416/416/416 417/417/417 419/419/419
f 420/420/420 422/422/422 421/421/421
f 420/420/420 421/421/421 423/423/423
f 424/424/424 426/426/426 425/425/425
f 424/424/424 425/425/425 427/427/427
f 428/428/428 430/430/430 429/429/429
f 428/428/428 429/429/429 431/431/431
f 432/432/432 434/434/434 433/433/433
f 432/432/432 433/433/433 435/435/435
f 436/436/436 438/438/438 437/437/437
f 438/438/438 436/436/436 439/439/439
f 439/439/439 436/436/436 440/440/440
f 439/439/439 440/440/440 441/441/441
f 442/442/442 444/444/444 443/443/443
f 445/445/445 447/447/447 446/446/446
f 448/448/448 450/450/450 449/449/449
f 448/448/448 449/449/449 451/451/451
f 452/452/452 454/454/454 453/453/453
f 455/455/455 454/454/454 452/452/452
f 455/455/455 452/452/452 456/456/456
f 457/457/457 459/459/459 458/458/458
f 457/457/457 458/458/458 460/460/460
f 461/461/461 463/463/463 462/462/462
f 461/461/461 462/462/462 464/464/464
f 465/465/465 467/467/467 466/466/466
f 465/465/465 466/466/466 468/468/468
f 469/469/469 471/471/471 470/470/470
f 469/469/469 470/470/470 472/472/472
f 473/473/473 475/475/475 474/474/474
f 473/473/473 474/474/474 476/476/476
f 477/477/477 479/479/479 478/478/478
f 477/477/477 478/478/478 480/480/480
f 481/481/481 483/483/483 482/482/482
f 481/481/481 482/482/482 484/484/484
f 485/485/485 487/487/487 486/486/486
f 487/487/487 485/485/485 488/488/488
f 488/488/488 485/485/485 489/489/489
f 488/488/488 489/489/489 490/490/490
f 491/491/491 493/493/493 492/492/492
f 491/491/491 492/492/492 494/494/494
f 493/493/493 495/495/495 492/492/492
f 496/496/496 498/498/498 497/497/497
f 496/496/496 497/497/497 499/499/499
f 498/498/498 500/500/500 497/497/497
f 501/501/501 503/503/503 502/502/502
f 501/501/501 502/502/502 504/504/504
f 503/503/503 505/505/505 502/502/502
f 506/506/506 508/508/508 507/507/507
f 506/506/506 507/507/507 509/509/509
f 508/508/508 510/510/510 507/507/507
f 511/511/511 513/513/513 512/512/512
f 511/511/511 512/512/512 514/514/514
f 513/513/513 515/515/515 512/512/512
f 516/516/516 518/518/518 517/517/517
f 516/516/516 517/517/517 519/519/519
f 518/518/518 520/520/520 517/517/517
f 521/521/521 523/523/523 522/522/522
f 521/521/521 522/522/522 524/524/524
f 523/523/523 525/525/525 522/522/522
f 526/526/526 528/528/528 527/527/527
f 526/526/526 527/527/527 529/529/529
f 528/528/528 530/530/530 527/527/527
f 531/531/531 533/533/533 532/532/532
f 531/531/531 532/532/532 534/534/534
f 531/531/531 534/534/534 535/535/535
f 531/531/531 535/535/535 536/536/536
f 534/534/534 537/537/537 535/535/535
f 532/532/532 538/538/538 534/534/534
f 534/534/534 538/538/538 537/537/537
f 538/538/538 539/539/539 537/537/537
f 538/538/538 540/540/540 539/539/539
f 540/540/540 541/541/541 539/539/539
f 542/542/542 541/541/541 540/540/540
f 543/543/543 540/540/540 538/538/538
f 532/532/532 544/544/544 538/538/538
f 544/544/544 543/543/543 538/538/538
f 545/545/545 543/543/543 544/544/544
f 546/546/546 543/543/543 545/545/545
f 546/546/546 547/547/547 543/543/543
f 547/547/547 542/542/542 540/540/540
f 547/547/547 540/540/540 543/543/543
f 545/545/545 544/544/544 548/548/548
f 549/549/549 545/545/545 548/548/548
f 546/546/546 545/545/545 549/549/549
f 549/549/549 548/548/548 550/550/550
f 546/546/546 549/549/549 551/551/551
f 552/552/552 554/554/554 553/553/553
f 555/555/555 557/557/557 556/556/556
f 555/555/555 556/556/556 558/558/558
f 559/559/559 561/561/561 560/560/560
f 562/562/562 561/561/561 559/559/559
f 563/563/563 565/565/565 564/564/564
f 563/563/563 564/564/564 566/566/566
f 563/563/563 567/567/567 565/565/565
f 563/563/563 568/568/568 567/567/567
f 564/564/564 565/565/565 569/569/569
f 569/569/569 565/565/565 570/570/570
f 570/570/570 565/565/565 567/567/567
f 569/569/569 570/570/570 571/571/571
f 569/569/569 571/571/571 572/572/572
f 572/572/572 571/571/571 573/573/573
f 574/574/574 572/572/572 573/573/573
f 575/575/575 569/569/569 572/572/572
f 564/564/564 569/569/569 576/576/576
f 576/576/576 569/569/569 575/575/575
f 577/577/577 576/576/576 575/575/575
f 578/578/578 577/577/577 575/575/575
f 578/578/578 575/575/575 579/579/579
f 579/579/579 575/575/575 572/572/572
f 579/579/579 572/572/572 574/574/574
f 577/577/577 580/580/580 576/576/576
f 581/581/581 580/580/580 577/577/577
f 578/578/578 581/581/581 577/577/577
f 581/581/581 582/582/582 580/580/580
f 578/578/578 583/583/583 581/581/581
f 584/584/584 586/586/586 585/585/585
