# Generated from legacy Unity YAML Mesh assets without Unity.
mtllib gun23.mtl

o Cylinder01
v -0.170536863 0.0993649987 0.213899434
v -0.142596808 0.207738547 -0.37722901
v -0.142596808 0.207738547 0.213899434
v -0.170536863 0.0993649987 -0.37722901
v -0.0630099833 0.287325371 -0.37722901
v -0.0630099833 0.287325371 0.213899434
v 0.0453635647 0.316112095 -0.37722901
v 0.0453635647 0.316112095 0.213899434
v -0.142596808 -0.0090085493 0.213899434
v -0.142596808 -0.0090085493 -0.37722901
v -0.0630099833 -0.0885953736 0.213899434
v -0.0630099833 -0.0885953736 -0.37722901
v 0.0453635647 -0.116535429 0.213899434
v 0.0453635647 -0.116535429 -0.37722901
v 0.153737113 -0.0885953736 0.213899434
v 0.153737113 -0.0885953736 -0.37722901
v 0.233323937 -0.0090085493 0.213899434
v 0.233323937 -0.0090085493 -0.37722901
v 0.262110661 0.0993649987 0.213899434
v 0.262110661 0.0993649987 -0.37722901
v 0.233323937 0.207738547 0.213899434
v 0.233323937 0.207738547 -0.37722901
v 0.153737113 0.287325371 0.213899434
v 0.153737113 0.287325371 -0.37722901
v 0.0453635647 0.316112095 0.213899434
v 0.0453635647 0.316112095 -0.37722901
vt 0.749019608 0
vt 0.831372549 1
vt 0.831372549 0
vt 0.749019608 1
vt 0.91372549 1
vt 0.91372549 0
vt 1 1
vt 1 0
vt 0.662745098 0
vt 0.662745098 1
vt 0.580392157 0
vt 0.580392157 1
vt 0.498039216 0
vt 0.498039216 1
vt 0.415686275 0
vt 0.415686275 1
vt 0.329411765 0
vt 0.329411765 1
vt 0.247058824 0
vt 0.247058824 1
vt 0.164705882 0
vt 0.164705882 1
vt 0.0823529412 0
vt 0.0823529412 1
vt 0 0
vt 0 1
vn -0.996327701 0.0856219118 0
vn -0.909474476 0.41575976 0
vn -0.81947551 0.573114202 0
vn -0.996327701 -0.0856219118 0
vn -0.574851813 0.818257535 0
vn -0.420044484 0.907503516 0
vn -0.256722612 0.966485127 0
vn -0.256722612 0.966485127 0
vn -0.909474476 -0.41575976 0
vn -0.81947551 -0.573114202 0
vn -0.573114202 -0.81947551 0
vn -0.41575976 -0.909474476 0
vn -0.0856219118 -0.996327701 0
vn 0.0856219118 -0.996327701 0
vn 0.41575976 -0.909474476 0
vn 0.573114202 -0.81947551 0
vn 0.818257535 -0.574851813 0
vn 0.907503516 -0.420044484 0
vn 0.996103084 -0.0881966273 0
vn 0.996103084 0.0881966273 0
vn 0.907503516 0.420044484 0
vn 0.818257535 0.574851813 0
vn 0.574851813 0.818257535 0
vn 0.420044484 0.907503516 0
vn 0.256722612 0.966485127 0
vn 0.256722612 0.966485127 0

g Cylinder01_submesh_0
usemtl fist_eff_001
f 1/1/1 3/3/3 2/2/2
f 1/1/1 2/2/2 4/4/4
f 3/3/3 5/5/5 2/2/2
f 3/3/3 6/6/6 5/5/5
f 6/6/6 7/7/7 5/5/5
f 6/6/6 8/8/8 7/7/7
f 9/9/9 1/1/1 4/4/4
f 9/9/9 4/4/4 10/10/10
f 11/11/11 9/9/9 10/10/10
f 11/11/11 10/10/10 12/12/12
f 13/13/13 11/11/11 12/12/12
f 13/13/13 12/12/12 14/14/14
f 15/15/15 13/13/13 14/14/14
f 15/15/15 14/14/14 16/16/16
f 17/17/17 15/15/15 16/16/16
f 17/17/17 16/16/16 18/18/18
f 19/19/19 17/17/17 18/18/18
f 19/19/19 18/18/18 20/20/20
f 21/21/21 19/19/19 20/20/20
f 21/21/21 20/20/20 22/22/22
f 23/23/23 21/21/21 22/22/22
f 23/23/23 22/22/22 24/24/24
f 25/25/25 23/23/23 24/24/24
f 25/25/25 24/24/24 26/26/26

o Cylinder02
v -0.131166785 0.0994804535 0.382301394
v -0.10830674 0.18814972 -0.20882705
v -0.10830674 0.18814972 0.382301394
v -0.131166785 0.0994804535 -0.20882705
v -0.0431902471 0.253266213 -0.20882705
v -0.0431902471 0.253266213 0.382301394
v 0.0454790195 0.276818987 -0.20882705
v 0.0454790195 0.276818987 0.382301394
v -0.10830674 0.0108111869 0.382301394
v -0.10830674 0.0108111869 -0.20882705
v -0.0431902471 -0.0543053057 0.382301394
v -0.0431902471 -0.0543053057 -0.20882705
v 0.0454790195 -0.077165351 0.382301394
v 0.0454790195 -0.077165351 -0.20882705
v 0.134148286 -0.0543053057 0.382301394
v 0.134148286 -0.0543053057 -0.20882705
v 0.199264779 0.0108111869 0.382301394
v 0.199264779 0.0108111869 -0.20882705
v 0.222817553 0.0994804535 0.382301394
v 0.222817553 0.0994804535 -0.20882705
v 0.199264779 0.18814972 0.382301394
v 0.199264779 0.18814972 -0.20882705
v 0.134148286 0.253266213 0.382301394
v 0.134148286 0.253266213 -0.20882705
v 0.0454790195 0.276818987 0.382301394
v 0.0454790195 0.276818987 -0.20882705
vt 0.749019608 0
vt 0.831372549 1
vt 0.831372549 0
vt 0.749019608 1
vt 0.91372549 1
vt 0.91372549 0
vt 1 1
vt 1 0
vt 0.662745098 0
vt 0.662745098 1
vt 0.580392157 0
vt 0.580392157 1
vt 0.498039216 0
vt 0.498039216 1
vt 0.415686275 0
vt 0.415686275 1
vt 0.329411765 0
vt 0.329411765 1
vt 0.247058824 0
vt 0.247058824 1
vt 0.164705882 0
vt 0.164705882 1
vt 0.0823529412 0
vt 0.0823529412 1
vt 0 0
vt 0 1
vn -0.996327701 0.0856219118 0
vn -0.909474476 0.41575976 0
vn -0.81947551 0.573114202 0
vn -0.996327701 -0.0856219118 0
vn -0.574851813 0.818257535 0
vn -0.420044484 0.907503516 0
vn -0.256722612 0.966485127 0
vn -0.256722612 0.966485127 0
vn -0.909474476 -0.41575976 0
vn -0.81947551 -0.573114202 0
vn -0.573114202 -0.81947551 0
vn -0.41575976 -0.909474476 0
vn -0.0856219118 -0.996327701 0
vn 0.0856219118 -0.996327701 0
vn 0.41575976 -0.909474476 0
vn 0.573114202 -0.81947551 0
vn 0.818257535 -0.574851813 0
vn 0.907503516 -0.420044484 0
vn 0.996103084 -0.0881966273 0
vn 0.996103084 0.0881966273 0
vn 0.907503516 0.420044484 0
vn 0.818257535 0.574851813 0
vn 0.574851813 0.818257535 0
vn 0.420044484 0.907503516 0
vn 0.256722612 0.966485127 0
vn 0.256722612 0.966485127 0

g Cylinder02_submesh_0
usemtl fist_eff_001_2
f 27/27/27 29/29/29 28/28/28
f 27/27/27 28/28/28 30/30/30
f 29/29/29 31/31/31 28/28/28
f 29/29/29 32/32/32 31/31/31
f 32/32/32 33/33/33 31/31/31
f 32/32/32 34/34/34 33/33/33
f 35/35/35 27/27/27 30/30/30
f 35/35/35 30/30/30 36/36/36
f 37/37/37 35/35/35 36/36/36
f 37/37/37 36/36/36 38/38/38
f 39/39/39 37/37/37 38/38/38
f 39/39/39 38/38/38 40/40/40
f 41/41/41 39/39/39 40/40/40
f 41/41/41 40/40/40 42/42/42
f 43/43/43 41/41/41 42/42/42
f 43/43/43 42/42/42 44/44/44
f 45/45/45 43/43/43 44/44/44
f 45/45/45 44/44/44 46/46/46
f 47/47/47 45/45/45 46/46/46
f 47/47/47 46/46/46 48/48/48
f 49/49/49 47/47/47 48/48/48
f 49/49/49 48/48/48 50/50/50
f 51/51/51 49/49/49 50/50/50
f 51/51/51 50/50/50 52/52/52

o polySurface225
v 0.224837258 0.184265711 -0.0132829763
v 0.0657370538 0.274881666 -0.0934973694
v 0.220795408 0.184128784 -0.0987376597
v 0.0681818724 0.275954817 -0.00798820731
v 0.223754615 0.00268247297 -0.0149083499
v 0.219723791 0.0043977751 -0.100346672
v -0.0903927684 0.185905866 -0.0898645266
v -0.0895571858 0.186060675 -0.00431872306
v -0.0914653689 0.00617486488 -0.091473509
v -0.0906407535 0.00447859153 -0.00594311228
v 0.0660146177 -0.0872105037 -0.0112378817
v 0.219723791 0.0043977751 -0.100346672
v 0.0635929927 -0.0845790336 -0.0967135832
v 0.223754615 0.00268247297 -0.0149083499
v -0.0906407535 0.00447859153 -0.00594311228
v -0.0914653689 0.00617486488 -0.091473509
v 0.0657370538 0.274881666 -0.0934973694
v 0.219723791 0.0043977751 -0.100346672
v 0.220795408 0.184128784 -0.0987376597
v 0.0635929927 -0.0845790336 -0.0967135832
v -0.0914653689 0.00617486488 -0.091473509
v -0.0903927684 0.185905866 -0.0898645266
v 0.0681818724 0.275954817 -0.00798820731
v -0.0906407535 0.00447859153 -0.00594311228
v -0.0895571858 0.186060675 -0.00431872306
v 0.0660146177 -0.0872105037 -0.0112378817
v 0.224837258 0.184265711 -0.0132829763
v 0.223754615 0.00268247297 -0.0149083499
v 0.0674976856 -0.0635763429 0.0360171201
v 0.197354198 0.0181082712 -0.0175957253
v 0.0660948232 -0.0566945819 -0.0145412766
v 0.204332635 0.0144047522 0.0328339273
v -0.0683986247 0.0159625193 0.0406103723
v -0.0642632395 0.0196013672 -0.0101351606
v 0.204332635 0.0144047522 0.0328339273
v 0.198255599 0.169208195 -0.0162432254
v 0.197354198 0.0181082712 -0.0175957253
v 0.205272198 0.171923603 0.0342431223
v 0.0678974986 0.245504151 -0.0118371634
v 0.0693769157 0.251462469 0.0388362926
v -0.0633609891 0.170702125 -0.00878389563
v -0.0674579442 0.173481519 0.0420204242
v -0.0642632395 0.0196013672 -0.0101351606
v -0.0683986247 0.0159625193 0.0406103723
v 0.205272198 0.171923603 0.0342431223
v 0.0674976856 -0.0635763429 0.0360171201
v 0.0693769157 0.251462469 0.0388362926
v 0.204332635 0.0144047522 0.0328339273
v -0.0683986247 0.0159625193 0.0406103723
v -0.0674579442 0.173481519 0.0420204242
v 0.176763892 -0.0413400485 -0.283040676
v 0.116493925 -0.0356064032 -0.330202752
v 0.120836914 -0.0841764341 -0.266767687
v -0.014346282 -0.0769856567 -0.279312346
v -0.0467892215 -0.021673418 -0.336045049
v -0.0578323975 -0.0679289861 -0.21476716
v -0.0954521745 -0.0252120482 -0.23443575
v 0.196686938 0.0915015753 -0.298940658
v -0.0898107439 0.209512237 -0.250803599
v -0.0489204749 0.201273908 -0.349820872
v 0.121999606 0.2160569 -0.342685035
v 0.112322256 0.270700818 -0.266713953
v 0.183532551 0.20847683 -0.29349506
v 0.169243589 0.185718916 -0.079982302
v 0.187624559 0.0747825503 -0.0846681798
v 0.159699082 -0.0244103435 -0.0851227769
v -0.0251663998 0.262050666 -0.268171763
v 0.112322256 0.270700818 -0.266713953
v -0.0578323975 -0.0679289861 -0.21476716
v -0.014346282 -0.0769856567 -0.279312346
v 0.0874612778 0.250186662 -0.167049091
v 0.06792669 0.216224717 -0.0769553701
v 0.0283688344 0.300707042 -0.145043791
v -0.0400507078 0.264295972 -0.130756948
v -0.0157276616 0.179896587 -0.0762629058
v -0.0386769548 0.19614484 -0.165056866
v 0.0194658469 0.261856653 -0.214320498
v 0.112322256 0.270700818 -0.266713953
v -0.0168596953 0.241388332 -0.203705508
v -0.0898107439 0.209512237 -0.250803599
v -0.0251663998 0.262050666 -0.268171763
v -0.0954521745 -0.0252120482 -0.23443575
v -0.0274055898 -0.0199898032 -0.0828894211
v -0.0386769548 0.19614484 -0.165056866
v -0.0954521745 -0.0252120482 -0.23443575
v -0.0898107439 0.209512237 -0.250803599
v -0.0274055898 -0.0199898032 -0.0828894211
v -0.0157276616 0.179896587 -0.0762629058
v 0.117436066 0.124026348 -0.374182954
v 0.141610354 0.0405772061 -0.312316862
v 0.142213106 0.139562609 -0.314591375
v 0.117026374 0.0567697955 -0.372637764
v 0.0594443902 0.157945482 -0.37770827
v 0.0568631925 0.189484827 -0.31977963
v 0.00104492239 0.124608089 -0.379688604
v -0.0290905684 0.140420528 -0.322694028
v 0.000634171825 0.057352524 -0.378143444
v -0.0296933427 0.0414341419 -0.320419367
v 0.117026374 0.0567697955 -0.372637764
v 0.0556565709 -0.00848808342 -0.315231111
v 0.141610354 0.0405772061 -0.312316862
v 0.0586258695 0.0234333826 -0.374618098
v -0.0296933427 0.0414341419 -0.320419367
v 0.000634171825 0.057352524 -0.378143444
v 0.00104492239 0.124608089 -0.379688604
v 0.0586258695 0.0234333826 -0.374618098
v 0.0594443902 0.157945482 -0.37770827
v 0.000634171825 0.057352524 -0.378143444
v 0.117026374 0.0567697955 -0.372637764
v 0.117436066 0.124026348 -0.374182954
v 0.0688864365 -0.106063121 0.30808234
v 0.241311356 -0.00665649266 0.225714102
v 0.0694108978 -0.106083849 0.224659204
v 0.240787864 -0.00663476677 0.309136985
v -0.103169054 -0.00690563258 0.306976674
v -0.102645636 -0.00692750748 0.223552853
v 0.240787864 -0.00663476677 0.309136985
v 0.241155267 0.191931284 0.225662946
v 0.241311356 -0.00665649266 0.225714102
v 0.240630761 0.19195301 0.309085933
v 0.0690986663 0.291089596 0.224556297
v 0.0685741827 0.291111292 0.307979165
v -0.102801815 0.191660113 0.223500714
v -0.103326246 0.191681987 0.306924639
v -0.102645636 -0.00692750748 0.223552853
v -0.103169054 -0.00690563258 0.306976674
v 0.240630761 0.19195301 0.309085933
v 0.0688864365 -0.106063121 0.30808234
v 0.0685741827 0.291111292 0.307979165
v 0.240787864 -0.00663476677 0.309136985
v -0.103169054 -0.00690563258 0.306976674
v -0.103326246 0.191681987 0.306924639
v 0.241155267 0.191931284 0.225662946
v 0.0694108978 -0.106083849 0.224659204
v 0.241311356 -0.00665649266 0.225714102
v 0.0690986663 0.291089596 0.224556297
v -0.102645636 -0.00692750748 0.223552853
v -0.102801815 0.191660113 0.223500714
v 0.215552092 0.177148217 0.231962172
v 0.0696991831 0.24185067 0.135204378
v 0.199113846 0.167267736 0.136036473
v 0.0690814406 0.261560745 0.231020479
v 0.215684995 0.00809243532 0.232006191
v 0.199231327 0.0178966077 0.136075812
v -0.0595981404 0.167063322 0.134410548
v -0.0772553533 0.176917339 0.230121701
v -0.0594806671 0.017693192 0.134449813
v -0.0771224499 0.00786154187 0.230165629
v 0.0693472773 -0.0765518095 0.231108604
v 0.199231327 0.0178966077 0.136075812
v 0.0699340478 -0.0568907408 0.135281968
v 0.215684995 0.00809243532 0.232006191
v -0.0771224499 0.00786154187 0.230165629
v -0.0594806671 0.017693192 0.134449813
v 0.0699235201 -0.083076222 0.140303181
v 0.222352594 0.00480256506 0.0674870252
v 0.0703868791 -0.08309461 0.0665538997
v 0.221889257 0.00482196637 0.141236173
v -0.0821802318 0.00458250476 0.139324622
v -0.0817167759 0.00456326736 0.0655764136
v 0.221889257 0.00482196637 0.141236173
v 0.222213596 0.180361443 0.0674412116
v 0.222352594 0.00480256506 0.0674870252
v 0.2217502 0.18038083 0.141190381
v 0.0701109096 0.268020308 0.0664635391
v 0.0696474612 0.268038547 0.140211852
v -0.0818548203 0.180122131 0.065530518
v -0.0823182017 0.180141517 0.13927968
v -0.0817167759 0.00456326736 0.0655764136
v -0.0821802318 0.00458250476 0.139324622
v 0.2217502 0.18038083 0.141190381
v 0.0699235201 -0.083076222 0.140303181
v 0.0696474612 0.268038547 0.140211852
v 0.221889257 0.00482196637 0.141236173
v -0.0821802318 0.00458250476 0.139324622
v -0.0823182017 0.180141517 0.13927968
v 0.222213596 0.180361443 0.0674412116
v 0.0703868791 -0.08309461 0.0665538997
v 0.222352594 0.00480256506 0.0674870252
v 0.0701109096 0.268020308 0.0664635391
v -0.0817167759 0.00456326736 0.0655764136
v -0.0818548203 0.180122131 0.065530518
v 0.189249307 0.16131377 0.0723602702
v 0.0715837479 0.223330438 0.0245741463
v 0.184976518 0.157980679 0.0253035506
v 0.0701079071 0.229975744 0.0715934566
v 0.189357415 0.0238012773 0.0723958914
v 0.185079396 0.02710397 0.025337216
v -0.0417061523 0.157802461 0.0238786124
v -0.0489243492 0.161126403 0.0708629645
v -0.0416031852 0.026924914 0.023913429
v -0.0488162413 0.0236139399 0.0708986528
v 0.0703240931 -0.0450482241 0.07166455
v 0.185079396 0.02710397 0.025337216
v 0.0717895105 -0.0384249871 0.0246418423
v 0.189357415 0.0238012773 0.0723958914
v -0.0488162413 0.0236139399 0.0708986528
v -0.0416031852 0.026924914 0.023913429
vt 0.53916198 0.00846900046
vt 0.690751016 0.102136001
vt 0.53916198 0.102136001
vt 0.690751016 0.00846900046
vt 0.387427986 0.00846900046
vt 0.387427986 0.102136001
vt 0.840990007 0.102136001
vt 0.840990007 0.00846900046
vt 0.994450986 0.102136001
vt 0.994450986 0.00846900046
vt 0.690751016 0.00846900046
vt 0.53916198 0.102136001
vt 0.690751016 0.102136001
vt 0.53916198 0.00846900046
vt 0.840990007 0.00846900046
vt 0.840990007 0.102136001
vt 0.892592013 0.442232013
vt 0.969851971 0.486838013
vt 0.918344975 0.486838013
vt 0.995604992 0.442232013
vt 0.969851971 0.397626013
vt 0.918344975 0.397626013
vt 0.887166023 0.443396986
vt 0.807344019 0.397311985
vt 0.860557973 0.397311985
vt 0.780737996 0.443396986
vt 0.860557973 0.489481002
vt 0.807344019 0.489481002
vt 0.297086 0.285571009
vt 0.344590992 0.397138
vt 0.344590992 0.285571009
vt 0.297086 0.397138
vt 0.297086 0.174004003
vt 0.344590992 0.174004003
vt 0.297086 0.495281011
vt 0.344590992 0.397138
vt 0.344590008 0.495281011
vt 0.297086 0.397138
vt 0.344590992 0.285571009
vt 0.297086 0.285571009
vt 0.344590992 0.174004003
vt 0.297086 0.174004003
vt 0.344590992 0.0798870027
vt 0.297086 0.0798870027
vt 0.408675998 0.177026004
vt 0.349552006 0.142891005
vt 0.428384006 0.142891005
vt 0.369260013 0.177026004
vt 0.369260013 0.108755
vt 0.408675998 0.108755
vt 0.619237006 0.248319998
vt 0.62241298 0.285858989
vt 0.572516024 0.259057999
vt 0.579392016 0.370160997
vt 0.626945972 0.378509015
vt 0.565285027 0.433173001
vt 0.612151027 0.446756005
vt 0.694895983 0.245704994
vt 0.768218994 0.439880013
vt 0.754325986 0.378437012
vt 0.76196003 0.286300004
vt 0.818982005 0.265082985
vt 0.759214997 0.252557009
vt 0.775070012 0.110671997
vt 0.688898027 0.110671997
vt 0.603457987 0.110671997
vt 0.816051006 0.379599005
vt 0.818982005 0.265082985
vt 0.434255004 0.219053
vt 0.468225002 0.26662299
vt 0.842206001 0.185508996
vt 0.859946012 0.110671997
vt 0.883289993 0.176313996
vt 0.913139999 0.163981006
vt 0.919251978 0.110671997
vt 0.950944006 0.163490996
vt 0.894625008 0.217763007
vt 0.818982005 0.265082985
vt 0.925271988 0.204426005
vt 0.994980991 0.229260996
vt 0.934481978 0.252907991
vt 0.387867987 0.218872994
vt 0.456292987 0.110671997
vt 0.963 0.318897992
vt 0.830633998 0.272092998
vt 0.968825996 0.261251003
vt 0.823743999 0.36621201
vt 0.955751002 0.370754987
vt 0.475591004 0.425498992
vt 0.536818981 0.493028998
vt 0.453579992 0.477789015
vt 0.532148004 0.435853988
vt 0.429885 0.390614986
vt 0.386310995 0.426447004
vt 0.404487997 0.339031011
vt 0.348931015 0.350526989
vt 0.405254006 0.281538993
vt 0.350057989 0.265911013
vt 0.475591004 0.425498992
vt 0.386310995 0.426447004
vt 0.453579992 0.477789015
vt 0.429885 0.390614986
vt 0.348931015 0.350526989
vt 0.404487014 0.339031994
vt 0.121743999 0.00593600003
vt 0.204025999 0.0545319989
vt 0.0936869979 0.0534420013
vt 0.176912993 0.00648100022
vt 0.175969005 0.102036998
vt 0.120800003 0.101492003
vt 0.0142280003 0.288688987
vt 0.0631309971 0.390109986
vt 0.0631309971 0.288688987
vt 0.0142280003 0.390109986
vt 0.0142280003 0.187269002
vt 0.0631309971 0.187269002
vt 0.0142280003 0.491530001
vt 0.0631309971 0.390109986
vt 0.0631299987 0.491530001
vt 0.0142280003 0.390109986
vt 0.0631309971 0.288688987
vt 0.0142280003 0.288688987
vt 0.0631309971 0.187269002
vt 0.0142280003 0.187269002
vt 0.0631309971 0.085849002
vt 0.0142280003 0.085849002
vt 0.529070973 0.405508995
vt 0.415304989 0.339827001
vt 0.566992998 0.339827001
vt 0.453227013 0.405508995
vt 0.453227013 0.274143994
vt 0.529071987 0.274143994
vt 0.270927995 0.0827530026
vt 0.206343994 0.0454659984
vt 0.227871999 0.0827530026
vt 0.292456001 0.0454659984
vt 0.227871999 0.00817899965
vt 0.270927995 0.00817899965
vt 0.0643130019 0.377855986
vt 0.189368993 0.289508998
vt 0.189342007 0.377855986
vt 0.064338997 0.289460987
vt 0.064338997 0.466251999
vt 0.189368993 0.466203988
vt 0.189447999 0.201160997
vt 0.064418003 0.201066002
vt 0.189578995 0.112814002
vt 0.0645499974 0.112671003
vt 0.064338997 0.289460987
vt 0.189342007 0.377855986
vt 0.189368993 0.289508998
vt 0.0643130019 0.377855986
vt 0.064418003 0.201066002
vt 0.189447999 0.201160997
vt 0.190825999 0.289597988
vt 0.239728004 0.391018003
vt 0.239729002 0.289597988
vt 0.190825999 0.391018003
vt 0.190825999 0.188177004
vt 0.239729002 0.188178003
vt 0.190825 0.492439002
vt 0.239728004 0.391018003
vt 0.239728004 0.492439002
vt 0.190825999 0.391018003
vt 0.239729002 0.289597988
vt 0.190825999 0.289597988
vt 0.239729002 0.188178003
vt 0.190825999 0.188178003
vt 0.239729002 0.0867569968
vt 0.190825999 0.0867569968
vt 0.0709799975 0.0827699974
vt 0.00307999994 0.0435680002
vt 0.0936139971 0.0435680002
vt 0.0257130004 0.0827699974
vt 0.0257140007 0.00436499994
vt 0.0709810033 0.00436499994
vt 0.362049997 0.0041410001
vt 0.298851997 0.0406289995
vt 0.319918007 0.0041410001
vt 0.383116007 0.0406280011
vt 0.319918007 0.0771159977
vt 0.362049997 0.0771159977
vt 0.241805002 0.357740015
vt 0.29530099 0.289498001
vt 0.295289993 0.357740015
vt 0.241815999 0.289460987
vt 0.241815999 0.426019013
vt 0.29530099 0.425983012
vt 0.295334995 0.221256003
vt 0.241850004 0.221182004
vt 0.295390993 0.153014004
vt 0.241907001 0.152903005
vt 0.241815999 0.289460987
vt 0.295289993 0.357740015
vt 0.29530099 0.289498001
vt 0.241805002 0.357740015
vt 0.241850004 0.221182004
vt 0.295334995 0.221256003
vn 0.759559803 0.649385846 -0.0369719966
vn 0.195356578 0.980569169 -0.0178860904
vn 0.946053153 0.320834693 -0.045260699
vn -0.182362202 0.983205637 -0.00712054763
vn 0.998868443 -0.00553270273 -0.047235826
vn 0.998868441 -0.00553271991 -0.0472358631
vn -0.751301811 0.659930221 0.00613936375
vn -0.942529361 0.334012585 0.0086021627
vn -0.999935114 0.00587988947 0.00975678611
vn -0.999935111 0.00587969888 0.00975717943
vn 0.181152327 -0.982817979 -0.0353928546
vn 0.493999891 -0.868507061 -0.0407380922
vn -0.196567285 -0.980181558 -0.0246051821
vn 0.493997885 -0.868507995 -0.0407425136
vn -0.505400842 -0.862797858 -0.0122411724
vn -0.505399774 -0.862798518 -0.0122387099
vn -0.0284489481 0.00911466954 -0.99955369
vn -0.0284496747 0.00911467531 -0.99955367
vn -0.0284439588 0.00911793277 -0.999553803
vn -0.0284489607 0.00911302618 -0.999553705
vn -0.0284482214 0.00911466378 -0.999553711
vn -0.028453887 0.00911797976 -0.99955352
vn 0.0284485691 -0.00911348502 0.999553712
vn 0.0284480089 -0.00911315567 0.999553731
vn 0.0284451952 -0.00911150888 0.999553826
vn 0.0284503676 -0.00911453843 0.999553651
vn 0.0284510023 -0.00911491134 0.99955363
vn 0.0284541881 -0.00911677594 0.999553522
vn 0.173131064 -0.975247316 -0.137543839
vn 0.488563524 -0.862643199 -0.13096715
vn -0.201816204 -0.971208509 -0.126586936
vn 0.488566381 -0.862642738 -0.13095953
vn -0.505041996 -0.856972296 -0.102620985
vn -0.505038782 -0.856975659 -0.102608716
vn 0.990503362 -0.0046789104 -0.137408874
vn 0.937359587 0.315710255 -0.147255018
vn 0.990503327 -0.00467898922 -0.137409118
vn 0.753457867 0.642572667 -0.13928966
vn 0.194797189 0.973458521 -0.120135599
vn -0.180166651 0.977503166 -0.109670137
vn -0.746077079 0.658871104 -0.0962177763
vn -0.93714092 0.336063208 -0.09395965
vn -0.996712527 0.00667433635 -0.0807439903
vn -0.996712357 0.00667502949 -0.080746025
vn 0.028448243 -0.00911353381 0.999553721
vn 0.0284489633 -0.00911386582 0.999553697
vn 0.0284509832 -0.00911500331 0.99955363
vn 0.0284454143 -0.00911187817 0.999553817
vn 0.0284518671 -0.0091154311 0.9995536
vn 0.0284555141 -0.00911756567 0.999553477
vn 0.924220936 -0.371063463 -0.0901530217
vn 0.200237229 -0.284679522 -0.937476731
vn 0.153958321 -0.985872132 0.0659770727
vn -0.154825281 -0.779949444 -0.606389311
vn -0.409522588 -0.188651578 -0.892581555
vn -0.630224646 -0.704600213 -0.326121811
vn -0.888359542 -0.158371975 -0.43097058
vn 0.916083614 -0.0421974392 -0.398760815
vn -0.908207334 0.0830428104 -0.410199136
vn -0.349260738 0.345800257 -0.870884102
vn 0.172138 0.112203218 -0.978661814
vn 0.432606828 0.890108231 -0.143382944
vn 0.932008176 0.357512061 -0.0595473473
vn 0.749867284 0.631776312 0.196361267
vn 0.997386804 -0.0312567983 0.0651350516
vn 0.333403307 -0.897643395 0.288233535
vn -0.284961646 0.806761729 -0.517621844
vn -0.0445702896 0.807534547 -0.588133866
vn -0.0968038115 -0.943663606 0.316430121
vn -0.0618995718 -0.993291981 0.0976702795
vn 0.383158805 0.895403967 0.226806231
vn 0.150699183 0.722445201 0.674805667
vn 0.177334612 0.950981894 0.253349309
vn -0.677451075 0.607349296 0.414954063
vn -0.642639483 0.276221222 0.714644199
vn -0.953668404 0.244733268 0.174992008
vn -0.11930582 0.986354261 -0.113452158
vn -0.0176691531 0.990565611 0.135895442
vn -0.694298663 0.708499566 0.126403054
vn -0.56807102 0.725198452 0.389079069
vn -0.303597205 0.930439497 0.205209844
vn -0.77550296 -0.514472805 0.365941104
vn -0.218063048 -0.899982152 0.377466068
vn -0.910595381 0.0781456124 0.405843954
vn -0.889019709 0.0871371939 0.449500909
vn -0.853592294 0.0566266566 0.517854823
vn -0.930348246 0.0869093009 0.356228739
vn -0.964923612 0.0478158747 0.258139622
vn 0.874779653 0.233440176 -0.424577722
vn 0.924594737 -0.0143777692 -0.380680774
vn 0.720657628 0.536230486 -0.439442203
vn 0.924594552 -0.014378145 -0.380681209
vn 0.238791324 0.857289325 -0.456107133
vn -0.102228457 0.87174051 -0.479184543
vn -0.618505097 0.609384634 -0.496086497
vn -0.797922085 0.320151194 -0.510708879
vn -0.884634117 -0.005320044 -0.466255485
vn -0.88463847 -0.00532716907 -0.466247144
vn 0.464322387 -0.789586092 -0.401196366
vn 0.14398869 -0.874625072 -0.46292358
vn 0.464324492 -0.789586032 -0.401194047
vn -0.190443073 -0.86069805 -0.472154957
vn -0.432242304 -0.785098392 -0.443606927
vn -0.432238616 -0.785105072 -0.443598699
vn 0.0471218177 -0.0232289812 -0.998619021
vn 0.047121863 -0.0232286725 -0.998619026
vn 0.0471218396 -0.0232285445 -0.99861903
vn 0.047119136 -0.0232305119 -0.998619112
vn 0.0471209603 -0.0232287637 -0.998619066
vn 0.0471190189 -0.023229872 -0.998619132
vn 0.18974641 -0.981832079 0.00143856091
vn 0.50066437 -0.86563495 0.00336491312
vn -0.188206233 -0.982129087 -0.000932312615
vn 0.500665184 -0.86563447 0.00336719657
vn -0.499305093 -0.866421335 -0.00291464657
vn -0.499301841 -0.866423239 -0.00290553392
vn 0.999979963 0.000790150051 0.00628090667
vn 0.944634371 0.328072694 0.00584917886
vn 0.999980003 0.000787599008 0.00627483849
vn 0.755398414 0.655249777 0.00457884311
vn 0.188206198 0.982129099 0.000927767653
vn -0.189752408 0.981830904 -0.00144889773
vn -0.756429691 0.654056462 -0.00492611279
vn -0.945150208 0.326580485 -0.00602258517
vn -0.999979968 -0.000790631735 -0.00627994141
vn -0.999980004 -0.000793179687 -0.00627387193
vn -0.00628401955 0.000253917575 0.999980223
vn -0.00628210276 0.000254283463 0.999980235
vn -0.00628254401 0.000255273047 0.999980232
vn -0.0062808626 0.000252098182 0.999980243
vn -0.00628050799 0.000255570226 0.999980245
vn -0.00628306883 0.00025704606 0.999980228
vn 0.00628442575 -0.000253653465 -0.999980221
vn 0.00628408161 -0.000253853898 -0.999980223
vn 0.00628269157 -0.000252654028 -0.999980232
vn 0.00628545147 -0.000254842747 -0.999980214
vn 0.00628555722 -0.000255302454 -0.999980213
vn 0.00628954083 -0.000257598258 -0.999980187
vn 0.751214647 0.630989251 -0.193724337
vn 0.200718242 0.9598119 -0.196146132
vn 0.93222714 0.307122875 -0.191384691
vn -0.170253055 0.964973561 -0.199599406
vn 0.985619975 0.000730774836 -0.168975535
vn 0.985619951 0.000730690283 -0.168975672
vn -0.730269096 0.652638309 -0.20191653
vn -0.920223416 0.333934876 -0.204147896
vn -0.983419786 -0.000820636254 -0.181341807
vn -0.983419668 -0.000820238042 -0.181342448
vn 0.17274535 -0.965075194 -0.196949015
vn 0.494033476 -0.852291915 -0.171841252
vn -0.198243201 -0.959912211 -0.198162007
vn 0.494034164 -0.852291741 -0.171840138
vn -0.490492481 -0.853066584 -0.178029573
vn -0.490492328 -0.853066745 -0.178029227
vn 0.189746683 -0.981832022 0.00144140067
vn 0.500666037 -0.865633976 0.0033673364
vn -0.188204129 -0.982129489 -0.000934083372
vn 0.500668136 -0.865632739 0.00337322316
vn -0.499305174 -0.866421282 -0.00291641602
vn -0.499303514 -0.866422254 -0.00291176509
vn 0.999979949 0.000793538984 0.00628267272
vn 0.944634559 0.328072155 0.00584898177
vn 0.999979952 0.000793369493 0.00628226956
vn 0.755400129 0.655247795 0.00457948558
vn 0.188205959 0.982129138 0.000934586303
vn -0.189750514 0.981831283 -0.001440153
vn -0.756428029 0.654058432 -0.00491982399
vn -0.94514906 0.326583764 -0.00602483126
vn -0.999979949 -0.000787711089 -0.00628342261
vn -0.999979946 -0.000787481634 -0.0062839692
vn -0.00628655815 0.000255391729 0.999980207
vn -0.00628646143 0.000255300806 0.999980207
vn -0.00628482868 0.000254342237 0.999980218
vn -0.00628734655 0.000255846092 0.999980202
vn -0.00628393852 0.000253794038 0.999980224
vn -0.00627918287 0.000251053291 0.999980254
vn 0.00628417982 -0.000253598739 -0.999980222
vn 0.00628284986 -0.000253123924 -0.999980231
vn 0.00628830264 -0.000255974761 -0.999980196
vn 0.00628277079 -0.000253224186 -0.999980231
vn 0.00628320573 -0.0002537665 -0.999980228
vn 0.00628790731 -0.000256476076 -0.999980198
vn 0.754728713 0.646006253 -0.114282505
vn 0.193377217 0.972292255 -0.131350765
vn 0.941186275 0.32011758 -0.108134781
vn -0.181034487 0.972995906 -0.143197349
vn 0.995897797 0.000759534422 -0.090482049
vn 0.995897805 0.000759565844 -0.0904819602
vn -0.742288753 0.650680324 -0.160070368
vn -0.929969098 0.327987976 -0.166076381
vn -0.988411826 -0.000817210671 -0.151793923
vn -0.988411501 -0.000816452941 -0.151796039
vn 0.182991469 -0.974275371 -0.131535637
vn 0.498371161 -0.860498071 -0.105684702
vn -0.191396612 -0.971077393 -0.142744642
vn 0.498366635 -0.860499115 -0.105697538
vn -0.494005488 -0.85870133 -0.136347365
vn -0.49400607 -0.858700598 -0.136349864

g polySurface225_submesh_0
usemtl fist-14_-_Default
f 53/53/53 55/55/55 54/54/54
f 53/53/53 54/54/54 56/56/56
f 57/57/57 55/55/55 53/53/53
f 57/57/57 58/58/58 55/55/55
f 56/56/56 54/54/54 59/59/59
f 56/56/56 59/59/59 60/60/60
f 60/60/60 59/59/59 61/61/61
f 60/60/60 61/61/61 62/62/62
f 63/63/63 65/65/65 64/64/64
f 63/63/63 64/64/64 66/66/66
f 67/67/67 65/65/65 63/63/63
f 67/67/67 68/68/68 65/65/65
f 69/69/69 71/71/71 70/70/70
f 69/69/69 70/70/70 72/72/72
f 69/69/69 72/72/72 73/73/73
f 69/69/69 73/73/73 74/74/74
f 75/75/75 77/77/77 76/76/76
f 75/75/75 76/76/76 78/78/78
f 79/79/79 75/75/75 78/78/78
f 79/79/79 78/78/78 80/80/80
f 81/81/81 83/83/83 82/82/82
f 81/81/81 82/82/82 84/84/84
f 85/85/85 83/83/83 81/81/81
f 85/85/85 86/86/86 83/83/83
f 87/87/87 89/89/89 88/88/88
f 87/87/87 88/88/88 90/90/90
f 90/90/90 88/88/88 91/91/91
f 90/90/90 91/91/91 92/92/92
f 92/92/92 91/91/91 93/93/93
f 92/92/92 93/93/93 94/94/94
f 94/94/94 93/93/93 95/95/95
f 94/94/94 95/95/95 96/96/96
f 97/97/97 99/99/99 98/98/98
f 97/97/97 98/98/98 100/100/100
f 101/101/101 98/98/98 99/99/99
f 101/101/101 99/99/99 102/102/102
f 103/103/103 105/105/105 104/104/104
f 104/104/104 105/105/105 106/106/106
f 104/104/104 106/106/106 107/107/107
f 108/108/108 107/107/107 106/106/106
f 108/108/108 109/109/109 107/107/107
f 104/104/104 110/110/110 103/103/103
f 111/111/111 107/107/107 109/109/109
f 111/111/111 112/112/112 107/107/107
f 107/107/107 112/112/112 113/113/113
f 107/107/107 113/113/113 104/104/104
f 104/104/104 113/113/113 110/110/110
f 112/112/112 114/114/114 113/113/113
f 115/115/115 113/113/113 114/114/114
f 113/113/113 115/115/115 110/110/110
f 114/114/114 116/116/116 115/115/115
f 115/115/115 116/116/116 117/117/117
f 103/103/103 110/110/110 117/117/117
f 110/110/110 115/115/115 117/117/117
f 103/103/103 117/117/117 118/118/118
f 103/103/103 118/118/118 105/105/105
f 111/111/111 119/119/119 112/112/112
f 112/112/112 119/119/119 120/120/120
f 121/121/121 105/105/105 118/118/118
f 121/121/121 122/122/122 105/105/105
f 114/114/114 123/123/123 116/116/116
f 123/123/123 124/124/124 116/116/116
f 125/125/125 124/124/124 123/123/123
f 126/126/126 124/124/124 125/125/125
f 126/126/126 127/127/127 124/124/124
f 128/128/128 127/127/127 126/126/126
f 123/123/123 129/129/129 125/125/125
f 126/126/126 125/125/125 129/129/129
f 123/123/123 130/130/130 129/129/129
f 126/126/126 131/131/131 128/128/128
f 126/126/126 129/129/129 131/131/131
f 132/132/132 128/128/128 131/131/131
f 133/133/133 132/132/132 131/131/131
f 129/129/129 130/130/130 133/133/133
f 129/129/129 133/133/133 131/131/131
f 134/134/134 121/121/121 135/135/135
f 135/135/135 121/121/121 118/118/118
f 136/136/136 138/138/138 137/137/137
f 139/139/139 136/136/136 137/137/137
f 139/139/139 140/140/140 136/136/136
f 141/141/141 143/143/143 142/142/142
f 141/141/141 142/142/142 144/144/144
f 145/145/145 143/143/143 141/141/141
f 145/145/145 146/146/146 143/143/143
f 147/147/147 146/146/146 145/145/145
f 147/147/147 148/148/148 146/146/146
f 149/149/149 148/148/148 147/147/147
f 149/149/149 150/150/150 148/148/148
f 151/151/151 153/153/153 152/152/152
f 151/151/151 152/152/152 154/154/154
f 154/154/154 152/152/152 155/155/155
f 154/154/154 155/155/155 156/156/156
f 157/157/157 159/159/159 158/158/158
f 157/157/157 158/158/158 160/160/160
f 161/161/161 158/158/158 159/159/159
f 161/161/161 159/159/159 162/162/162
f 163/163/163 165/165/165 164/164/164
f 163/163/163 164/164/164 166/166/166
f 167/167/167 165/165/165 163/163/163
f 167/167/167 168/168/168 165/165/165
f 169/169/169 171/171/171 170/170/170
f 169/169/169 170/170/170 172/172/172
f 172/172/172 170/170/170 173/173/173
f 172/172/172 173/173/173 174/174/174
f 174/174/174 173/173/173 175/175/175
f 174/174/174 175/175/175 176/176/176
f 176/176/176 175/175/175 177/177/177
f 176/176/176 177/177/177 178/178/178
f 179/179/179 181/181/181 180/180/180
f 179/179/179 180/180/180 182/182/182
f 183/183/183 180/180/180 181/181/181
f 183/183/183 181/181/181 184/184/184
f 185/185/185 187/187/187 186/186/186
f 185/185/185 186/186/186 188/188/188
f 189/189/189 188/188/188 186/186/186
f 189/189/189 190/190/190 188/188/188
f 191/191/191 193/193/193 192/192/192
f 191/191/191 192/192/192 194/194/194
f 195/195/195 193/193/193 191/191/191
f 195/195/195 196/196/196 193/193/193
f 194/194/194 192/192/192 197/197/197
f 194/194/194 197/197/197 198/198/198
f 198/198/198 197/197/197 199/199/199
f 198/198/198 199/199/199 200/200/200
f 201/201/201 203/203/203 202/202/202
f 201/201/201 202/202/202 204/204/204
f 205/205/205 203/203/203 201/201/201
f 205/205/205 206/206/206 203/203/203
f 207/207/207 209/209/209 208/208/208
f 207/207/207 208/208/208 210/210/210
f 211/211/211 209/209/209 207/207/207
f 211/211/211 212/212/212 209/209/209
f 213/213/213 215/215/215 214/214/214
f 213/213/213 214/214/214 216/216/216
f 216/216/216 214/214/214 217/217/217
f 216/216/216 217/217/217 218/218/218
f 218/218/218 217/217/217 219/219/219
f 218/218/218 219/219/219 220/220/220
f 220/220/220 219/219/219 221/221/221
f 220/220/220 221/221/221 222/222/222
f 223/223/223 225/225/225 224/224/224
f 223/223/223 224/224/224 226/226/226
f 227/227/227 224/224/224 225/225/225
f 227/227/227 225/225/225 228/228/228
f 229/229/229 231/231/231 230/230/230
f 229/229/229 230/230/230 232/232/232
f 233/233/233 232/232/232 230/230/230
f 233/233/233 234/234/234 232/232/232
f 235/235/235 237/237/237 236/236/236
f 235/235/235 236/236/236 238/238/238
f 239/239/239 237/237/237 235/235/235
f 239/239/239 240/240/240 237/237/237
f 238/238/238 236/236/236 241/241/241
f 238/238/238 241/241/241 242/242/242
f 242/242/242 241/241/241 243/243/243
f 242/242/242 243/243/243 244/244/244
f 245/245/245 247/247/247 246/246/246
f 245/245/245 246/246/246 248/248/248
f 249/249/249 247/247/247 245/245/245
f 249/249/249 250/250/250 247/247/247
