# Generated from legacy Unity YAML Mesh assets without Unity.
mtllib gun22.mtl

o gong_01
v -0.703645975 1.23577463 0.271642385
v -0.710683382 1.34246975 0.34724461
v -0.708945434 1.21418616 0.342977574
v -0.705244583 1.36237192 0.276099522
v -0.640882519 1.23634397 0.272992318
v -0.635648096 1.34312126 0.34903199
v -0.642481121 1.36294117 0.277449478
v -0.63391015 1.21483784 0.344764953
v -0.640882519 1.23634397 0.272992318
v -0.708945434 1.21418616 0.342977574
v -0.63391015 1.21483784 0.344764953
v -0.703645975 1.23577463 0.271642385
v -0.63391015 1.21483784 0.344764953
v -0.710683382 1.34246975 0.34724461
v -0.635648096 1.34312126 0.34903199
v -0.708945434 1.21418616 0.342977574
v -0.635648096 1.34312126 0.34903199
v -0.705244583 1.36237192 0.276099522
v -0.642481121 1.36294117 0.277449478
v -0.710683382 1.34246975 0.34724461
v -0.642481121 1.36294117 0.277449478
v -0.703645975 1.23577463 0.271642385
v -0.640882519 1.23634397 0.272992318
v -0.705244583 1.36237192 0.276099522
v -0.686344098 -0.272774903 0.0222660771
v -0.708177637 -0.373836137 0.00877306249
v -0.711847397 -0.202538502 -0.0963666097
v -0.686173247 -0.362015734 0.0334054509
v -0.685996751 -0.214732939 0.0603230922
v -0.686773827 -0.0553990715 -0.0061157259
v -0.710564228 -0.0870009189 -0.0849150771
v -0.710963673 -0.0097045432 -0.119338965
v -0.686768182 0.0540298264 0.00150126561
v -0.711002456 0.0558467098 -0.118937316
v -0.687541228 0.135065916 -0.0695766109
v -0.711752474 0.142326945 -0.187416244
v -0.687260925 0.183509775 -0.0388051976
v -0.716604423 0.224256657 -0.195536753
v -0.71375699 0.386342314 -0.153220746
v -0.687351803 0.439456524 -0.0312363992
v -0.699958449 0.435329857 -0.119213248
v -0.687157529 0.466941114 -0.0102994109
v -0.711429366 0.492331436 -0.132907912
v -0.687028288 0.536359352 0.006950052
v -0.71109414 0.608602715 -0.0923391619
v -0.688828429 0.631858401 -0.0509250919
v -0.623509955 -0.202399921 -0.09759524
v -0.6440147 -0.272761894 0.0220638106
v -0.643667351 -0.214719439 0.0601211107
v -0.619840201 -0.373697646 0.00754445733
v -0.643843443 -0.362002814 0.0332032068
v -0.644444434 -0.055385884 -0.00631760959
v -0.622210642 -0.0869735827 -0.085337212
v -0.622609683 -0.00967720702 -0.119761022
v -0.644438782 0.0540427234 0.00129902151
v -0.62264886 0.0558739789 -0.119359093
v -0.645211423 0.135078534 -0.0697784024
v -0.623398883 0.142354303 -0.18783801
v -0.644931529 0.183522873 -0.0390070785
v -0.618599037 0.22423017 -0.195668159
v -0.621019965 0.386317101 -0.153345591
v -0.645022 0.439469309 -0.0314386685
v -0.634193274 0.435349705 -0.119527223
v -0.644828133 0.466953944 -0.010501655
v -0.62307537 0.492358705 -0.133330214
v -0.644698484 0.536372405 0.00674778554
v -0.622740541 0.608630163 -0.0927615092
v -0.644196045 0.631872081 -0.0511380984
v -0.622210642 -0.0869735827 -0.085337212
v -0.711847397 -0.202538502 -0.0963666097
v -0.623509955 -0.202399921 -0.09759524
v -0.710564228 -0.0870009189 -0.0849150771
v -0.708177637 -0.373836137 0.00877306249
v -0.619840201 -0.373697646 0.00754445733
v -0.622609683 -0.00967720702 -0.119761022
v -0.710963673 -0.0097045432 -0.119338965
v -0.62264886 0.0558739789 -0.119359093
v -0.711002456 0.0558467098 -0.118937316
v -0.623398883 0.142354303 -0.18783801
v -0.711752474 0.142326945 -0.187416244
v -0.618599037 0.22423017 -0.195668159
v -0.716604423 0.224256657 -0.195536753
v -0.621019965 0.386317101 -0.153345591
v -0.71375699 0.386342314 -0.153220746
v -0.634193274 0.435349705 -0.119527223
v -0.699958449 0.435329857 -0.119213248
v -0.62307537 0.492358705 -0.133330214
v -0.711429366 0.492331436 -0.132907912
v -0.622740541 0.608630163 -0.0927615092
v -0.71109414 0.608602715 -0.0923391619
v -0.644196045 0.631872081 -0.0511380984
v -0.688828429 0.631858401 -0.0509250919
v -0.619840201 -0.373697646 0.00754445733
v -0.686173247 -0.362015734 0.0334054509
v -0.643843443 -0.362002814 0.0332032068
v -0.708177637 -0.373836137 0.00877306249
v -0.686344098 -0.272774903 0.0222660771
v -0.6440147 -0.272761894 0.0220638106
v -0.685996751 -0.214732939 0.0603230922
v -0.643667351 -0.214719439 0.0601211107
v -0.686773827 -0.0553990715 -0.0061157259
v -0.644444434 -0.055385884 -0.00631760959
v -0.686768182 0.0540298264 0.00150126561
v -0.644438782 0.0540427234 0.00129902151
v -0.687541228 0.135065916 -0.0695766109
v -0.645211423 0.135078534 -0.0697784024
v -0.687260925 0.183509775 -0.0388051976
v -0.644931529 0.183522873 -0.0390070785
v -0.687351803 0.439456524 -0.0312363992
v -0.645022 0.439469309 -0.0314386685
v -0.687157529 0.466941114 -0.0102994109
v -0.644828133 0.466953944 -0.010501655
v -0.687028288 0.536359352 0.006950052
v -0.644698484 0.536372405 0.00674778554
v -0.688828429 0.631858401 -0.0509250919
v -0.644196045 0.631872081 -0.0511380984
v -0.700927383 -0.728814784 0.258986183
v -0.705257908 -0.790342769 0.368468122
v -0.70040112 -0.827531768 0.306466749
v -0.705877881 -0.681292755 0.322804439
v -0.627686998 -0.72883347 0.258721717
v -0.620923434 -0.68131162 0.32254033
v -0.627686998 -0.72883347 0.258721717
v -0.620303463 -0.790361455 0.368204192
v -0.620923434 -0.68131162 0.32254033
v -0.627160726 -0.827550633 0.306202797
v -0.620923434 -0.68131162 0.32254033
v -0.705257908 -0.790342769 0.368468122
v -0.705877881 -0.681292755 0.322804439
v -0.620303463 -0.790361455 0.368204192
v -0.620303463 -0.790361455 0.368204192
v -0.70040112 -0.827531768 0.306466749
v -0.705257908 -0.790342769 0.368468122
v -0.627160726 -0.827550633 0.306202797
v -0.627160726 -0.827550633 0.306202797
v -0.700927383 -0.728814784 0.258986183
v -0.70040112 -0.827531768 0.306466749
v -0.627686998 -0.72883347 0.258721717
vt 0.828410029 0.985324025
vt 0.938582003 0.915008008
vt 0.810441017 0.912961006
vt 0.954877019 0.987102985
vt 0.828410029 0.985324025
vt 0.938582003 0.915008008
vt 0.954877019 0.987102985
vt 0.810441017 0.912961006
vt 0.790036976 0.994852006
vt 0.810441017 0.912961006
vt 0.772068024 0.922488987
vt 0.828410029 0.985324025
vt 0.603541017 0.766793013
vt 0.731360018 0.807410002
vt 0.731693029 0.767871976
vt 0.603208005 0.806330025
vt 0.977147996 0.906291008
vt 0.954877019 0.987102985
vt 0.993443012 0.978385985
vt 0.938582003 0.915008008
vt 0.576466024 0.808007002
vt 0.450554997 0.766692996
vt 0.449999005 0.806227982
vt 0.577022016 0.768472016
vt 0.119093999 0.804448009
vt 0.0237109996 0.825290024
vt 0.199807003 0.901989996
vt 0.0334139988 0.798407018
vt 0.172029004 0.764548004
vt 0.328357011 0.816937983
vt 0.30339101 0.895645022
vt 0.37944901 0.922950983
vt 0.432125002 0.802531004
vt 0.441877991 0.918250978
vt 0.514486015 0.864295006
vt 0.529184997 0.977209985
vt 0.558755994 0.831978023
vt 0.605560005 0.972877026
vt 0.758508027 0.925939023
vt 0.802142978 0.808202982
vt 0.804243028 0.893688977
vt 0.827049971 0.786558986
vt 0.858614981 0.901808023
vt 0.892075002 0.765619993
vt 0.965376973 0.854175985
vt 0.986612022 0.812292993
vt 0.199807003 0.901989996
vt 0.119093999 0.804448009
vt 0.172029004 0.764548004
vt 0.0232999995 0.826496005
vt 0.0334139988 0.798407018
vt 0.328357011 0.816937983
vt 0.30339101 0.895645022
vt 0.37944901 0.922950983
vt 0.432125002 0.802531004
vt 0.441877991 0.918250978
vt 0.514486015 0.864295006
vt 0.529184997 0.977209985
vt 0.558755994 0.831978023
vt 0.605560005 0.972877026
vt 0.758508027 0.925939023
vt 0.802142978 0.808202982
vt 0.804243028 0.893688977
vt 0.827049971 0.786558986
vt 0.858614981 0.901808023
vt 0.892075002 0.765619993
vt 0.965376973 0.854175985
vt 0.986612022 0.812292993
vt 0.302790999 0.630708992
vt 0.207536995 0.691245973
vt 0.207974002 0.630708992
vt 0.302354008 0.691245973
vt 0.0321400017 0.691245973
vt 0.0325770006 0.630708992
vt 0.376626015 0.630708992
vt 0.376188993 0.691245973
vt 0.433827996 0.630708992
vt 0.433391005 0.691245973
vt 0.530085981 0.630708992
vt 0.529649973 0.691245973
vt 0.599982977 0.630708992
vt 0.599547029 0.691245973
vt 0.746165991 0.630708992
vt 0.745729029 0.691245973
vt 0.797299027 0.630708992
vt 0.796863019 0.691245973
vt 0.847531021 0.630708992
vt 0.847093999 0.691245973
vt 0.954349995 0.630708992
vt 0.953913987 0.691245973
vt 0.995060027 0.645349979
vt 0.994840026 0.675930977
vt 0.0324660018 0.774289012
vt 0.0558350012 0.711423993
vt 0.0555489995 0.758745015
vt 0.0330629982 0.693686008
vt 0.132290006 0.711423993
vt 0.132007003 0.758745015
vt 0.191294 0.711423993
vt 0.191018999 0.758745015
vt 0.338059992 0.711423993
vt 0.337787986 0.758745015
vt 0.431318998 0.711423993
vt 0.431048989 0.758745015
vt 0.522961974 0.711423993
vt 0.522695005 0.758745015
vt 0.571754992 0.711423993
vt 0.571491003 0.758745015
vt 0.789460003 0.711423993
vt 0.789196014 0.758745015
vt 0.818835974 0.711423993
vt 0.818570971 0.758745015
vt 0.879648983 0.711423993
vt 0.879383981 0.758745015
vt 0.973508 0.711423993
vt 0.973508 0.758745015
vt 0.828410029 0.985324025
vt 0.938582003 0.915008008
vt 0.954877019 0.987102985
vt 0.810441017 0.912961006
vt 0.790036976 0.994852006
vt 0.772068024 0.922488987
vt 0.828410029 0.985324025
vt 0.938582003 0.915008008
vt 0.810441017 0.912961006
vt 0.954877019 0.987102985
vt 0.603541017 0.766793013
vt 0.731360018 0.807410002
vt 0.603208005 0.806330025
vt 0.731693029 0.767871976
vt 0.977147996 0.906291008
vt 0.954877019 0.987102985
vt 0.938582003 0.915008008
vt 0.993443012 0.978385985
vt 0.576466024 0.808007002
vt 0.450554997 0.766692996
vt 0.577022016 0.768472016
vt 0.449999005 0.806227982
vn -0.996887375 -0.0103748407 -0.0781532157
vn -0.996887375 -0.0103748407 -0.0781532157
vn -0.996942427 -0.0109327285 -0.0773710101
vn -0.996830489 -0.00980794295 -0.0789479661
vn 0.995698757 0.016157 -0.0912301314
vn 0.995698757 0.016157 -0.0912301314
vn 0.99575473 0.0157666768 -0.0906858803
vn 0.995643245 0.0165410391 -0.0917655897
vn 0.0150509786 -0.957369926 -0.288472343
vn 0.0150509786 -0.957369926 -0.288472343
vn 0.0151838589 -0.957403551 -0.288353759
vn 0.0148917786 -0.957329599 -0.288614403
vn -0.0235091426 -0.0335531144 0.999160402
vn -0.0235091426 -0.0335531144 0.999160402
vn -0.0235091819 -0.033553138 0.9991604
vn -0.0235091033 -0.0335530908 0.999160404
vn -0.0146401473 0.96324614 0.268221067
vn -0.0146401473 0.96324614 0.268221067
vn -0.0145032644 0.963281943 0.268099895
vn -0.0147548937 0.963216101 0.268322636
vn 0.0211686046 0.0354446017 -0.999147422
vn 0.0211686046 0.0354446017 -0.999147422
vn 0.0211684016 0.0354446995 -0.999147423
vn 0.0211688077 0.035444504 -0.999147421
vn -0.954680328 0.0598982777 0.291543596
vn -0.91864445 0.149647636 0.365647316
vn -0.974589292 0.0482262676 0.218746289
vn -0.761937224 0.0787831222 0.642841261
vn -0.98623027 0.0194924797 0.164225146
vn -0.977117828 0.0375246173 0.209362493
vn -0.960687362 0.0371791746 0.275131789
vn -0.976665568 0.0206997295 0.213765968
vn -0.978615002 0.046285092 0.200425467
vn -0.97284293 0.113817535 0.201549505
vn -0.974737102 0.0959830978 0.201680013
vn -0.981555744 0.0117018228 0.190817683
vn -0.980814735 -0.0287672749 0.192807935
vn -0.983899558 -0.0327050771 0.175704405
vn -0.981259603 -0.00349312302 0.19265874
vn -0.979494293 0.00859372924 0.201288545
vn -0.987831774 -0.0402627369 0.150224162
vn -0.980733137 -0.0943259345 0.171070548
vn -0.980012663 -0.0788784734 0.18262904
vn -0.974009895 -0.00446858221 0.226461378
vn -0.969517585 0.0132877059 0.244661172
vn -0.905447415 0.207375984 0.370351427
vn 0.980631566 0.0502848732 0.189296496
vn 0.959664366 0.0780489826 0.270097503
vn 0.991573183 0.0186974019 0.128191377
vn 0.920898121 0.170107274 0.350728052
vn 0.746478746 0.0838296979 0.660107615
vn 0.982421878 0.0318167964 0.183942779
vn 0.964922416 0.0255444391 0.261289519
vn 0.980679557 0.0220268438 0.194377015
vn 0.982338445 0.0476601842 0.18094111
vn 0.976480886 0.115312868 0.1821758
vn 0.978407732 0.0974452625 0.182271037
vn 0.98509088 0.0116212261 0.171641795
vn 0.98430605 -0.0277871172 0.174268403
vn 0.986986236 -0.0319074035 0.157607384
vn 0.984717047 -0.00177000094 0.17415282
vn 0.983216138 0.0100071283 0.182169932
vn 0.990706395 -0.0387462354 0.130382389
vn 0.984060078 -0.0932070552 0.151453647
vn 0.983547834 -0.0777426054 0.163063627
vn 0.978297745 -0.00320180052 0.207179318
vn 0.974122705 0.0145924396 0.225548257
vn 0.911851221 0.209274228 0.35317368
vn -0.00823044329 -0.0346726964 -0.99936483
vn -0.0107140099 -0.198441347 -0.980054204
vn -0.0121419761 -0.396945724 -0.917761769
vn -0.00460886479 -0.207826295 -0.97815489
vn -0.0110307519 -0.523247109 -0.852109609
vn -0.0110308962 -0.523247057 -0.852109639
vn -0.00446986897 -0.296907042 -0.954895926
vn -0.00466559288 -0.15927643 -0.987223
vn -0.00446751024 -0.297010386 -0.954863797
vn -0.00398906192 -0.496877577 -0.867811478
vn -0.00399788484 -0.493952327 -0.869479796
vn -0.00331364459 -0.312574704 -0.949887401
vn -0.00209446464 0.0851262373 -0.996367973
vn -0.00127027119 0.183635873 -0.982993516
vn -0.00119960332 0.301319231 -0.953522565
vn -0.00164450823 0.377689716 -0.925930761
vn -0.00315265898 0.36189868 -0.932212104
vn -0.00477855092 0.0101395663 -0.999937175
vn -0.00478845244 0.0766649544 -0.997045413
vn -0.00472563285 0.226684699 -0.973956732
vn -0.00444400875 0.432387853 -0.901676769
vn -0.00412428327 0.563074185 -0.826396063
vn -0.00260395935 0.872529053 -0.48855529
vn -0.00259905978 0.87252568 -0.48856134
vn 0.00568970071 -0.90576366 0.423744993
vn 0.006409036 -0.467799765 0.883811238
vn 0.00478244233 -0.0171584618 0.999841345
vn 0.0073599619 -0.904092164 0.427274139
vn 0.00478807929 -0.0665596541 0.997770959
vn 0.00464862342 -0.301710264 0.953388329
vn 0.00477967385 -0.0351067086 0.99937214
vn 0.00454972459 0.244103807 0.969738435
vn 0.00448959042 0.280836678 0.959745072
vn 0.00468667018 0.134178412 0.990946108
vn 0.00463839712 0.183076084 0.983087805
vn 0.00414437291 0.444027741 0.896003454
vn 0.00407586581 0.467686843 0.883884837
vn 0.00474683476 0.0535186021 0.99855557
vn 0.00473850305 -0.192226646 0.981339117
vn 0.00478262548 -0.0816562095 0.996649081
vn 0.0047836432 -0.0667315714 0.997759497
vn 0.00476651766 -0.157050791 0.987579024
vn 0.00444519749 -0.429301622 0.903150241
vn 0.0046292038 -0.316212185 0.948677197
vn 0.00472353094 0.0992933037 0.995046998
vn 0.00435066367 0.357465817 0.933916089
vn 0.00392438383 0.51833106 0.855171042
vn 0.00392241367 0.518330398 0.855171453
vn -0.941740826 0.229192342 -0.246160695
vn -0.997897921 -0.031015015 -0.0569017373
vn -0.997750359 -0.0333031282 -0.0581818021
vn -0.584883365 0.628242016 -0.513053037
vn -0.00180512386 0.802068697 -0.597229058
vn -0.00167824553 0.802143123 -0.597129461
vn 0.995782085 -0.0329031361 -0.0856470884
vn 0.995782085 -0.0329031361 -0.0856470884
vn 0.996058981 -0.029380067 -0.0836858351
vn 0.995441448 -0.0369783143 -0.0879143225
vn 0.00295192701 0.386258402 0.922385892
vn 0.00295192701 0.386258402 0.922385892
vn 0.00295330515 0.386257494 0.922386267
vn 0.00295054886 0.38625931 0.922385516
vn 0.00151279902 -0.857574348 0.514357802
vn 0.00151279902 -0.857574348 0.514357802
vn 0.00140965539 -0.857515504 0.514456192
vn 0.00163238027 -0.857642544 0.514243718
vn -0.00336200374 -0.433459964 -0.901166553
vn -0.00336200374 -0.433459964 -0.901166553
vn -0.00335937233 -0.433458369 -0.90116733
vn -0.00336463513 -0.433461558 -0.901165777

g gong_01_submesh_0
usemtl gun0304
f 1/1/1 3/3/3 2/2/2
f 1/1/1 2/2/2 4/4/4
f 5/5/5 7/7/7 6/6/6
f 5/5/5 6/6/6 8/8/8
f 9/9/9 11/11/11 10/10/10
f 9/9/9 10/10/10 12/12/12
f 13/13/13 15/15/15 14/14/14
f 13/13/13 14/14/14 16/16/16
f 17/17/17 19/19/19 18/18/18
f 17/17/17 18/18/18 20/20/20
f 21/21/21 23/23/23 22/22/22
f 21/21/21 22/22/22 24/24/24
f 25/25/25 27/27/27 26/26/26
f 25/25/25 26/26/26 28/28/28
f 27/27/27 25/25/25 29/29/29
f 27/27/27 29/29/29 30/30/30
f 27/27/27 30/30/30 31/31/31
f 30/30/30 32/32/32 31/31/31
f 33/33/33 32/32/32 30/30/30
f 33/33/33 34/34/34 32/32/32
f 33/33/33 35/35/35 34/34/34
f 34/34/34 35/35/35 36/36/36
f 37/37/37 36/36/36 35/35/35
f 37/37/37 38/38/38 36/36/36
f 37/37/37 39/39/39 38/38/38
f 37/37/37 40/40/40 39/39/39
f 39/39/39 40/40/40 41/41/41
f 41/41/41 40/40/40 42/42/42
f 41/41/41 42/42/42 43/43/43
f 43/43/43 42/42/42 44/44/44
f 43/43/43 44/44/44 45/45/45
f 45/45/45 44/44/44 46/46/46
f 47/47/47 49/49/49 48/48/48
f 48/48/48 50/50/50 47/47/47
f 48/48/48 51/51/51 50/50/50
f 47/47/47 52/52/52 49/49/49
f 47/47/47 53/53/53 52/52/52
f 52/52/52 53/53/53 54/54/54
f 55/55/55 52/52/52 54/54/54
f 55/55/55 54/54/54 56/56/56
f 55/55/55 56/56/56 57/57/57
f 56/56/56 58/58/58 57/57/57
f 59/59/59 57/57/57 58/58/58
f 59/59/59 58/58/58 60/60/60
f 59/59/59 60/60/60 61/61/61
f 59/59/59 61/61/61 62/62/62
f 61/61/61 63/63/63 62/62/62
f 63/63/63 64/64/64 62/62/62
f 63/63/63 65/65/65 64/64/64
f 65/65/65 66/66/66 64/64/64
f 65/65/65 67/67/67 66/66/66
f 67/67/67 68/68/68 66/66/66
f 69/69/69 71/71/71 70/70/70
f 69/69/69 70/70/70 72/72/72
f 71/71/71 73/73/73 70/70/70
f 71/71/71 74/74/74 73/73/73
f 75/75/75 69/69/69 72/72/72
f 75/75/75 72/72/72 76/76/76
f 77/77/77 75/75/75 76/76/76
f 77/77/77 76/76/76 78/78/78
f 79/79/79 77/77/77 78/78/78
f 79/79/79 78/78/78 80/80/80
f 81/81/81 79/79/79 80/80/80
f 81/81/81 80/80/80 82/82/82
f 83/83/83 81/81/81 82/82/82
f 83/83/83 82/82/82 84/84/84
f 85/85/85 83/83/83 84/84/84
f 85/85/85 84/84/84 86/86/86
f 87/87/87 85/85/85 86/86/86
f 87/87/87 86/86/86 88/88/88
f 89/89/89 87/87/87 88/88/88
f 89/89/89 88/88/88 90/90/90
f 91/91/91 89/89/89 90/90/90
f 91/91/91 90/90/90 92/92/92
f 93/93/93 95/95/95 94/94/94
f 93/93/93 94/94/94 96/96/96
f 95/95/95 97/97/97 94/94/94
f 95/95/95 98/98/98 97/97/97
f 98/98/98 99/99/99 97/97/97
f 98/98/98 100/100/100 99/99/99
f 101/101/101 99/99/99 100/100/100
f 101/101/101 100/100/100 102/102/102
f 102/102/102 103/103/103 101/101/101
f 102/102/102 104/104/104 103/103/103
f 104/104/104 105/105/105 103/103/103
f 104/104/104 106/106/106 105/105/105
f 106/106/106 107/107/107 105/105/105
f 106/106/106 108/108/108 107/107/107
f 108/108/108 109/109/109 107/107/107
f 108/108/108 110/110/110 109/109/109
f 110/110/110 111/111/111 109/109/109
f 110/110/110 112/112/112 111/111/111
f 112/112/112 113/113/113 111/111/111
f 112/112/112 114/114/114 113/113/113
f 114/114/114 115/115/115 113/113/113
f 114/114/114 116/116/116 115/115/115
f 117/117/117 119/119/119 118/118/118
f 117/117/117 118/118/118 120/120/120
f 121/121/121 117/117/117 120/120/120
f 121/121/121 120/120/120 122/122/122
f 123/123/123 125/125/125 124/124/124
f 123/123/123 124/124/124 126/126/126
f 127/127/127 129/129/129 128/128/128
f 127/127/127 128/128/128 130/130/130
f 131/131/131 133/133/133 132/132/132
f 131/131/131 132/132/132 134/134/134
f 135/135/135 137/137/137 136/136/136
f 135/135/135 136/136/136 138/138/138

o gong_1_glow
v -0.667207426 -0.297287153 0.35457903
v -0.667207426 -1.03225355 0.353247839
v -0.770454267 -0.297287153 0.197333498
v -0.821630167 0.280532896 0.132102175
v -0.667207426 0.28053291 0.354579008
v -0.667207426 -0.297287153 -0.0397002189
v -0.667207426 0.280532881 -0.195751855
v -0.667207426 1.59331937 0.353247727
v -0.563960584 0.858352973 0.197333454
v -0.667207426 0.858352973 0.354578985
v -0.512784684 0.280532896 0.132102175
v -0.667207426 0.28053291 0.354579008
v -0.667207426 0.858352973 -0.0397003083
v -0.667207426 0.280532881 -0.195751855
v -0.667207426 0.28053291 0.354579008
v -0.770454267 0.858352973 0.197333454
v -0.667207426 0.858352973 0.354578985
v -0.821630167 0.280532896 0.132102175
v -0.667207426 1.59331937 0.353247727
v -0.667207426 0.280532881 -0.195751855
v -0.667207426 0.858352973 -0.0397003083
v -0.667207426 0.28053291 0.354579008
v -0.563960584 -0.297287153 0.197333498
v -0.667207426 -0.297287153 0.35457903
v -0.512784684 0.280532896 0.132102175
v -0.667207426 -1.03225355 0.353247839
v -0.667207426 0.280532881 -0.195751855
v -0.667207426 -0.297287153 -0.0397002189
vt 9.12944131e-07 0.250067294
vt 0.500001788 6.90817833e-05
vt 0.500000954 0.250069082
vt 0.5 0.500069082
vt 7.94659627e-09 0.500067294
vt 1.00000095 0.25007087
vt 1 0.50007093
vt 0.500001788 6.90817833e-05
vt 0.500000954 0.250069082
vt 9.12944131e-07 0.250067294
vt 0.5 0.500069082
vt 7.94659627e-09 0.500067294
vt 1.00000095 0.25007087
vt 1 0.50007093
vt 7.94659627e-09 0.500067294
vt 0.499999106 0.25
vt -8.97050995e-07 0.250001788
vt 0.5 0.500069082
vt 0.499998212 0
vt 1 0.50007093
vt 0.999999046 0.249998152
vt 7.94659627e-09 0.500067294
vt 0.499999106 0.25
vt -8.97050995e-07 0.250001788
vt 0.5 0.500069082
vt 0.499998212 0
vt 1 0.50007093
vt 0.999999046 0.249998152
vn -0.83038375 -0.00359363298 0.557180323
vn -0.990276599 -0.139112389 0
vn -0.993152599 -0.116824292 -2.662798e-17
vn -0.996726066 -0.0808526434 8.08252402e-09
vn -0.821499794 2.20573165e-08 0.570208811
vn -0.90187784 -0.150489577 -0.404931165
vn -0.898739873 -0.114324804 -0.423316051
vn 0.990276599 0.139112389 4.74247779e-17
vn 0.993152599 0.116824289 7.98839291e-17
vn 0.83038375 0.00359367865 0.557180323
vn 0.996726067 0.0808526275 -8.08252327e-09
vn 0.821499794 2.20573166e-08 0.570208811
vn 0.901877864 0.150489523 -0.404931132
vn 0.898739877 0.114324731 -0.423316063
vn -0.827464795 0.00494892793 0.561495789
vn -0.994867919 0.101182129 -5.26969006e-09
vn -0.835914955 0.000556590994 0.548858705
vn -0.996100851 0.0882218525 -4.59470286e-09
vn -0.990276599 0.139112389 4.74247779e-17
vn -0.903363434 0.118906278 -0.412062863
vn -0.904279747 0.164720361 -0.393884934
vn 0.827464795 -0.0049488846 0.56149579
vn 0.994867918 -0.101182139 5.2696906e-09
vn 0.835914955 -0.000556544269 0.548858705
vn 0.99610085 -0.0882218559 4.59470304e-09
vn 0.990276599 -0.139112389 0
vn 0.903363417 -0.118906337 -0.412062882
vn 0.90427971 -0.164720426 -0.393884992

g gong_1_glow_submesh_0
usemtl gong_1
f 139/139/139 141/141/141 140/140/140
f 139/139/139 142/142/142 141/141/141
f 139/139/139 143/143/143 142/142/142
f 141/141/141 144/144/144 140/140/140
f 142/142/142 144/144/144 141/141/141
f 142/142/142 145/145/145 144/144/144
f 146/146/146 148/148/148 147/147/147
f 148/148/148 149/149/149 147/147/147
f 148/148/148 150/150/150 149/149/149
f 147/147/147 151/151/151 146/146/146
f 149/149/149 151/151/151 147/147/147
f 149/149/149 152/152/152 151/151/151
f 153/153/153 155/155/155 154/154/154
f 153/153/153 154/154/154 156/156/156
f 155/155/155 157/157/157 154/154/154
f 154/154/154 158/158/158 156/156/156
f 154/154/154 159/159/159 158/158/158
f 157/157/157 159/159/159 154/154/154
f 160/160/160 162/162/162 161/161/161
f 160/160/160 161/161/161 163/163/163
f 162/162/162 164/164/164 161/161/161
f 161/161/161 165/165/165 163/163/163
f 161/161/161 166/166/166 165/165/165
f 164/164/164 166/166/166 161/161/161

o gong_02
v -0.664643432 1.24791251 0.230788639
v -0.663781121 1.51517438 0.372024775
v -0.663508901 1.19843247 0.39069375
v -0.664756922 1.48625454 0.229863344
v -0.665987579 0.925877446 0.0167512832
v -0.664987145 0.846111695 0.155457652
v -0.666782845 0.594097779 -0.119004002
v -0.665661639 0.503011946 0.0363409102
v -0.604525458 1.48213136 0.304472907
v -0.738274386 1.22300419 0.302477009
v -0.60430897 1.22355046 0.302922211
v -0.738479162 1.48164973 0.302403024
v -0.60430897 1.22355046 0.302922211
v -0.743815366 0.881304773 0.101839231
v -0.592783133 0.881537321 0.0999174402
v -0.738274386 1.22300419 0.302477009
v -0.592783133 0.881537321 0.0999174402
v -0.742395276 0.606385333 -0.0247999147
v -0.591354571 0.60645288 -0.0258504715
v -0.743815366 0.881304773 0.101839231
v -0.597622151 -0.701481828 0.299660757
v -0.725510614 -0.955142218 0.310273161
v -0.599454602 -0.955072838 0.309382667
v -0.7272934 -0.701544592 0.300600245
v -0.596043341 -0.479990684 0.127334126
v -0.7272934 -0.701544592 0.300600245
v -0.597622151 -0.701481828 0.299660757
v -0.730976481 -0.480053537 0.128275559
v -0.593398258 -0.215432325 -0.00697330619
v -0.730976481 -0.480053537 0.128275559
v -0.596043341 -0.479990684 0.127334126
v -0.73442369 -0.215493658 -0.00602135687
v -0.663568676 -0.965302513 0.244046237
v -0.662807746 -0.668177203 0.372611016
v -0.662633668 -1.00796259 0.375691979
v -0.66370317 -0.733378651 0.239693102
v -0.66423954 -0.43200973 0.182030738
v -0.665008547 -0.541136008 0.0643832182
v -0.665447984 -0.118631175 0.0284746074
v -0.666237592 -0.256655947 -0.0939454137
v -0.664449566 1.36003071 0.263352371
v -0.662672445 -0.89707759 0.37664765
v -0.663396218 -0.898008942 0.272596402
v -0.663725793 1.36096224 0.367403776
v -0.718167885 -0.897397309 0.327034907
v -0.608954126 1.36035052 0.312965316
v -0.713009391 1.36059621 0.313686047
v -0.614112618 -0.897643089 0.326314153
vt 0.398584008 0.583606005
vt 0.538026989 0.569784999
vt 0.405348003 0.506307006
vt 0.500720024 0.625738978
vt 0.222883999 0.619082987
vt 0.212936997 0.548300028
vt 0.056708999 0.619253993
vt 0.044817999 0.537986994
vt 0.660649002 0.518236995
vt 0.633099973 0.580895007
vt 0.633099973 0.518236995
vt 0.660649002 0.580895007
vt 0.633099973 0.518236995
vt 0.660649002 0.580895007
vt 0.660649002 0.518236995
vt 0.633099973 0.580895007
vt 0.660649002 0.518236995
vt 0.633099973 0.580895007
vt 0.633099973 0.518236995
vt 0.660649002 0.580895007
vt 0.660649002 0.518236995
vt 0.633099973 0.580895007
vt 0.633099973 0.518236995
vt 0.660649002 0.580895007
vt 0.633099973 0.518236995
vt 0.660649002 0.580895007
vt 0.660649002 0.518236995
vt 0.633099973 0.580895007
vt 0.660649002 0.518236995
vt 0.633099973 0.580895007
vt 0.633099973 0.518236995
vt 0.660649002 0.580895007
vt 0.94532299 0.50948
vt 0.859790981 0.617323995
vt 0.982963026 0.547770977
vt 0.853397012 0.557429016
vt 0.741273999 0.584002018
vt 0.735974014 0.522449017
vt 0.564400971 0.582104981
vt 0.593192995 0.514903009
vt 0.310934007 0.988801003
vt 0.0203189999 0.906862974
vt 0.0203189999 0.988801003
vt 0.310934007 0.906862974
vt 0.0203189999 0.988801003
vt 0.310934007 0.906862974
vt 0.310934007 0.988801003
vt 0.0203189999 0.906862974
vn -0.999975708 -0.000449313968 0.00695567409
vn -0.999975709 -0.000449320877 0.00695556224
vn -0.99997571 -0.000448827481 0.00695543867
vn -0.999975711 -0.00044914936 0.00695523769
vn -0.999975713 -0.000448611074 0.006955037
vn -0.999975716 -0.00044836621 0.00695454087
vn -0.999975717 -0.000448604058 0.00695437889
vn -0.999975718 -0.000448562327 0.00695434057
vn 0.00937604314 0.00286255869 -0.999951947
vn 0.00937604314 0.00286255869 -0.999951947
vn 0.00329871738 0.00599957019 -0.999976562
vn 0.0154513631 -0.000273777598 -0.999880583
vn -0.00585075923 0.508337731 -0.861137922
vn -0.00585075923 0.508337731 -0.861137922
vn -0.0117288866 0.510089501 -0.860041356
vn 0.000801084759 0.506331662 -0.862338452
vn -0.00935715818 0.417036017 -0.908841793
vn -0.00935715818 0.417036017 -0.908841793
vn -0.00651156676 0.415764062 -0.909449198
vn -0.012200676 0.418302886 -0.908225654
vn -0.00713083632 -0.03821027 -0.999244278
vn -0.00713083632 -0.03821027 -0.999244278
vn -0.00703786324 -0.0382570971 -0.999243145
vn -0.00722121441 -0.0381647495 -0.999245368
vn -0.00531869385 -0.614069338 -0.78923416
vn -0.00531869385 -0.614069338 -0.78923416
vn -0.0054211285 -0.614031272 -0.78926308
vn -0.00522026184 -0.61410591 -0.789206361
vn -0.0059141041 -0.452658193 -0.891664502
vn -0.0059141041 -0.452658193 -0.891664502
vn -0.00601047535 -0.452618149 -0.891684185
vn -0.00582190147 -0.4526965 -0.891645661
vn -0.9999757 -0.000449260555 0.00695679114
vn -0.999975701 -0.000449052812 0.00695672388
vn -0.999975701 -0.000449224346 0.00695670746
vn -0.99997571 -0.000449093336 0.00695546289
vn -0.999975719 -0.000449053895 0.00695417788
vn -0.999975719 -0.000449088075 0.00695412663
vn -0.999975716 -0.0004489892 0.0069544841
vn -0.999975707 -0.000448867254 0.0069559188
vn -0.999975685 -0.000437985084 0.00695966913
vn -0.999975685 -0.000437985084 0.00695966913
vn -0.999975685 -0.00043798484 0.00695967398
vn -0.999975685 -0.000437985327 0.00695966428
vn -0.00694017584 -0.00589571847 -0.999958536
vn -0.00694017584 -0.00589571847 -0.999958536
vn -0.00694006602 -0.00589572379 -0.999958537
vn -0.00694028566 -0.00589571316 -0.999958536

g gong_02_submesh_0
usemtl gun1112
f 167/167/167 169/169/169 168/168/168
f 167/167/167 168/168/168 170/170/170
f 171/171/171 169/169/169 167/167/167
f 171/171/171 172/172/172 169/169/169
f 173/173/173 172/172/172 171/171/171
f 173/173/173 174/174/174 172/172/172
f 175/175/175 177/177/177 176/176/176
f 175/175/175 176/176/176 178/178/178
f 179/179/179 181/181/181 180/180/180
f 179/179/179 180/180/180 182/182/182
f 183/183/183 185/185/185 184/184/184
f 183/183/183 184/184/184 186/186/186
f 187/187/187 189/189/189 188/188/188
f 187/187/187 188/188/188 190/190/190
f 191/191/191 193/193/193 192/192/192
f 191/191/191 192/192/192 194/194/194
f 195/195/195 197/197/197 196/196/196
f 195/195/195 196/196/196 198/198/198
f 199/199/199 201/201/201 200/200/200
f 199/199/199 200/200/200 202/202/202
f 202/202/202 200/200/200 203/203/203
f 202/202/202 203/203/203 204/204/204
f 205/205/205 204/204/204 203/203/203
f 205/205/205 206/206/206 204/204/204
f 207/207/207 209/209/209 208/208/208
f 207/207/207 208/208/208 210/210/210
f 211/211/211 213/213/213 212/212/212
f 211/211/211 212/212/212 214/214/214
