# Generated from legacy Unity YAML Mesh assets without Unity.
mtllib gun21.mtl

o gun21
v -0.0433893614 0.0927357152 -0.244298637
v -0.05776361 0.189738691 0.100247681
v -0.0585453585 0.0975119546 0.161743581
v -0.0759501159 0.0154054807 -0.120583832
v -0.0433893614 0.0623129047 -0.502006888
v -0.0433893614 0.0913474038 -0.444472134
v -0.0708746165 -0.071190767 -0.600420117
v -0.0706008673 -0.071190767 -0.930767357
v -0.0481268615 0.0626526549 -0.781109393
v -0.0481268615 0.1063549 -0.942187607
v -0.0694086105 -0.0421933495 -1.01000404
v -0.0481268615 0.034340445 -1.01000404
v -0.0481268615 0.106354661 -0.804410398
v -0.0604433604 -0.071190767 -0.0679088235
v -0.0440076105 0.029687468 0.162077606
v 0.0708748847 -0.071190767 -0.600420117
v 0.0481271408 0.0626526549 -0.781109393
v 0.0706011355 -0.071190767 -0.930767357
v 0.0433896407 0.0623129047 -0.502006888
v 0.0481271408 0.106354661 -0.804410398
v 0.0481271408 0.1063549 -0.942187607
v 0.0694088936 -0.0421933495 -1.01000404
v 0.0481271408 0.034340445 -1.01000404
v 0.0759503841 0.0154054807 -0.120583832
v 0.0433896407 0.0927357152 -0.244298637
v 0.0433896407 0.0913474038 -0.444472134
v 0.0585458912 0.0975119546 0.161743581
v 0.060443636 -0.071190767 -0.0679088235
v 0.0440078899 0.029687468 0.162077606
v 0.0577636398 0.189738691 0.100247681
v 0.0577636398 0.189738691 0.100247681
v -0.0433893614 0.0927357152 -0.244298637
v 0.0433896407 0.0927357152 -0.244298637
v -0.05776361 0.189738691 0.100247681
v -0.0433893614 0.0913474038 -0.444472134
v 0.0433896407 0.0913474038 -0.444472134
v 0.0585458912 0.0975119546 0.161743581
v -0.05776361 0.189738691 0.100247681
v 0.0577636398 0.189738691 0.100247681
v -0.0585453585 0.0975119546 0.161743581
v -0.0440076105 0.029687468 0.162077606
v 0.0440078899 0.029687468 0.162077606
v 0.0706011355 -0.071190767 -0.930767357
v -0.0708746165 -0.071190767 -0.600420117
v 0.0708748847 -0.071190767 -0.600420117
v -0.0706008673 -0.071190767 -0.930767357
v 0.0694088936 -0.0421933495 -1.01000404
v -0.0694086105 -0.0421933495 -1.01000404
v -0.0604433604 -0.071190767 -0.0679088235
v 0.060443636 -0.071190767 -0.0679088235
v 0.0440078899 0.029687468 0.162077606
v -0.0440076105 0.029687468 0.162077606
v 0.0433896407 0.0623129047 -0.502006888
v -0.0481268615 0.0626526549 -0.781109393
v 0.0481271408 0.0626526549 -0.781109393
v -0.0433893614 0.0623129047 -0.502006888
v -0.0481268615 0.106354661 -0.804410398
v 0.0481271408 0.106354661 -0.804410398
v 0.0433896407 0.0913474038 -0.444472134
v -0.0433893614 0.0913474038 -0.444472134
v 0.0481271408 0.1063549 -0.942187607
v -0.0481268615 0.034340445 -1.01000404
v 0.0481271408 0.034340445 -1.01000404
v -0.0481268615 0.1063549 -0.942187607
v -0.0694086105 -0.0421933495 -1.01000404
v 0.0694088936 -0.0421933495 -1.01000404
v -0.0481268615 0.106354661 -0.804410398
v 0.0481271408 0.106354661 -0.804410398
v -0.0716261119 0.221996725 0.210275114
v 0.0404278897 0.298016131 0.206928313
v 0.0716261417 0.221996725 0.210275114
v -0.0404276103 0.298016131 0.206928313
v -0.0491738617 0.304387748 0.131244361
v 0.0491741411 0.304387748 0.131244361
v -0.0676371157 0.23198241 -0.0461481214
v 0.0676373839 0.23198241 -0.0461481214
v -0.0601103604 0.152536929 -0.149509847
v 0.0601106398 0.152536929 -0.149509847
v -0.0489253588 0.116524644 -0.158986866
v 0.0489256382 0.116524644 -0.158986866
v 0.0675736368 0.0549230017 0.0152993798
v 0.0601106398 0.152536929 -0.149509847
v 0.0489256382 0.116524644 -0.158986866
v 0.0963051468 0.114041157 0.0628836751
v 0.0676373839 0.23198241 -0.0461481214
v 0.0716261417 0.221996725 0.210275114
v 0.0491741411 0.304387748 0.131244361
v 0.0404278897 0.298016131 0.206928313
v -0.0601103604 0.152536929 -0.149509847
v -0.0676371157 0.23198241 -0.0461481214
v -0.096305117 0.114041157 0.0628836751
v -0.0491738617 0.304387748 0.131244361
v -0.0716261119 0.221996725 0.210275114
v -0.0404276103 0.298016131 0.206928313
v -0.0676323622 0.054644648 0.0143421292
v -0.0489253588 0.116524644 -0.158986866
v -0.0716261119 0.221996725 0.210275114
v 0.0963051468 0.114041157 0.0628836751
v -0.096305117 0.114041157 0.0628836751
v 0.0716261417 0.221996725 0.210275114
v -0.0676323622 0.054644648 0.0143421292
v 0.0675736368 0.0549230017 0.0152993798
v 0.0652103871 -0.0912319943 0.199559152
v 0.0725761354 0.0145430015 0.135426819
v 0.0928621441 -0.109667592 0.0962676406
v 0.0499053895 -0.000137860887 0.246578872
v 0.0675736368 0.0549230017 0.0152993798
v 0.0906553864 -0.102061324 -0.0424234271
v 0.060443636 -0.071190767 -0.0679091811
v 0.0510993898 -0.0589298569 0.246935666
v -0.0489928611 -0.000137860887 0.246578872
v -0.0501868613 -0.0589298569 0.246935666
v -0.0642978549 -0.0912319943 0.199559152
v -0.0716636032 0.0145430015 0.135426819
v -0.0919496119 -0.109667592 0.0962676406
v -0.0676323622 0.054644648 0.0143423676
v -0.0897428542 -0.102061324 -0.0424234271
v -0.0604433604 -0.071190767 -0.0679091811
v -0.0642978549 -0.0912319943 0.199559152
v 0.0928621441 -0.109667592 0.0962676406
v -0.0919496119 -0.109667592 0.0962676406
v 0.0652103871 -0.0912319943 0.199559152
v 0.0906553864 -0.102061324 -0.0424234271
v -0.0897428542 -0.102061324 -0.0424234271
v 0.060443636 -0.071190767 -0.0679091811
v -0.0604433604 -0.071190767 -0.0679091811
v -0.0501868613 -0.0589298569 0.246935666
v 0.0510993898 -0.0589298569 0.246935666
v 0.0499053895 -0.000137860887 0.246578872
v -0.0489928611 -0.000137860887 0.246578872
v -0.0716636032 0.0145430015 0.135426819
v 0.0499053895 -0.000137860887 0.246578872
v -0.0489928611 -0.000137860887 0.246578872
v 0.0725761354 0.0145430015 0.135426819
v -0.0676323622 0.054644648 0.0143423676
v 0.0675736368 0.0549230017 0.0152993798
vt 0.528604984 0.12353
vt 0.752718985 0.185157999
vt 0.792258024 0.125075996
vt 0.609453022 0.0701600015
vt 0.361595988 0.102417998
vt 0.398761988 0.12156
vt 0.298339993 0.0134659996
vt 0.0838799998 0.0134659996
vt 0.180873007 0.101386003
vt 0.0764240026 0.129424006
vt 0.0323010013 0.0316129997
vt 0.0321389996 0.0830859989
vt 0.165699005 0.129663005
vt 0.644119024 0.0134659996
vt 0.793767989 0.0799740031
vt 0.298339993 0.0134659996
vt 0.180873007 0.101386003
vt 0.0838799998 0.0134659996
vt 0.361595988 0.102417998
vt 0.165699005 0.129663005
vt 0.0764240026 0.129424006
vt 0.0323010013 0.0316129997
vt 0.0321389996 0.0830859989
vt 0.609453022 0.0701600015
vt 0.528604984 0.12353
vt 0.398761988 0.12156
vt 0.792258024 0.125075996
vt 0.644119024 0.0134659996
vt 0.793767989 0.0799740031
vt 0.752718985 0.185157999
vt 0.916170001 0.298565
vt 0.981687009 0.131006002
vt 0.925788999 0.130918995
vt 0.990585983 0.298680991
vt 0.981889009 0.0107380003
vt 0.925989985 0.0106499996
vt 0.985772014 0.379296005
vt 0.867754996 0.491771996
vt 0.98497802 0.491771996
vt 0.866962016 0.379296005
vt 0.881712973 0.310474992
vt 0.971019983 0.310474992
vt 0.755496025 0.491804987
vt 0.531687975 0.400678009
vt 0.532875001 0.494670004
vt 0.754314005 0.398175001
vt 0.809255004 0.490366012
vt 0.808093011 0.398317993
vt 0.191992998 0.411839008
vt 0.193004996 0.491997987
vt 0.0136940004 0.483110994
vt 0.0129570002 0.424748987
vt 0.831291974 0.252319008
vt 0.899007976 0.0468880013
vt 0.828125 0.0467780009
vt 0.895197988 0.252418995
vt 0.899065018 0.0104170004
vt 0.828181982 0.0103059998
vt 0.831218004 0.299778014
vt 0.895124018 0.299878001
vt 0.0225690007 0.284467995
vt 0.0971809998 0.208029002
vt 0.0226889998 0.207912996
vt 0.0970619991 0.284584999
vt 0.113743998 0.148824006
vt 0.00631099986 0.148655996
vt 0.0968950018 0.391213
vt 0.0224029999 0.391097009
vt 0.419023007 0.138484001
vt 0.374583006 0.204033002
vt 0.419086993 0.222240999
vt 0.374547005 0.156758994
vt 0.330136001 0.151678994
vt 0.330179006 0.209180996
vt 0.218103006 0.140967995
vt 0.218162999 0.220061004
vt 0.141883999 0.145427004
vt 0.141937003 0.215718001
vt 0.120116003 0.151982993
vt 0.120159999 0.209194005
vt 0.136931002 0.26434201
vt 0.131850004 0.389735013
vt 0.107427999 0.382245004
vt 0.190404996 0.258403003
vt 0.213403001 0.363099009
vt 0.305979997 0.222170994
vt 0.321260005 0.297071993
vt 0.348830014 0.255084991
vt 0.131850004 0.389735013
vt 0.213403001 0.363099009
vt 0.190404996 0.258403003
vt 0.321260005 0.297071993
vt 0.305979997 0.222170994
vt 0.348830014 0.255084991
vt 0.136931002 0.26434201
vt 0.107427999 0.382245004
vt 0.276087999 0.358254999
vt 0.382212996 0.358925998
vt 0.326853007 0.297928989
vt 0.31726101 0.403620988
vt 0.35938701 0.284960985
vt 0.397989005 0.328015
vt 0.644751012 0.167270005
vt 0.584433019 0.244583994
vt 0.56250298 0.142611995
vt 0.674943984 0.243531004
vt 0.486126989 0.26769799
vt 0.45263499 0.138935
vt 0.424178988 0.165978
vt 0.680526018 0.197332993
vt 0.674944997 0.243531004
vt 0.680526018 0.197332993
vt 0.644749999 0.167270005
vt 0.584433019 0.244583994
vt 0.56250298 0.142611995
vt 0.486126989 0.26769799
vt 0.45263499 0.138935
vt 0.424178988 0.165978
vt 0.600493014 0.268559992
vt 0.678950012 0.389699996
vt 0.680917025 0.248558998
vt 0.599114001 0.367466003
vt 0.785050988 0.389494002
vt 0.786970973 0.251722991
vt 0.815945029 0.366847008
vt 0.817230999 0.274526
vt 0.55655098 0.278726995
vt 0.55547303 0.356079012
vt 0.510586023 0.354541004
vt 0.511637986 0.279013008
vt 0.495187014 0.337228
vt 0.419434011 0.2676
vt 0.480964988 0.26749599
vt 0.405447006 0.337379009
vt 0.492814004 0.392544001
vt 0.408692002 0.392176002
vn -0.98124161 0.189235252 -0.0368092589
vn -0.999178928 -0.0162712517 -0.037104116
vn -0.997220844 0.0743958187 -0.00398117362
vn -0.995622446 0.0933632152 0.00438809867
vn -0.976290626 0.21552 -0.0201926381
vn -1 0 0
vn -0.99457468 0.102945097 -0.0149503542
vn -0.98690557 0.160481382 0.0162210106
vn -0.991606829 0.127314933 0.0225123212
vn -0.991809957 0.127705709 -0.00206448094
vn -0.984325111 0.166959504 -0.0568207691
vn -0.926674986 0.257680475 -0.273631584
vn -1 0 0
vn -0.988086431 -0.144157276 0.0538877093
vn -0.981514109 -0.150284042 0.118510592
vn 0.993669398 0.112028955 -0.00840480866
vn 0.986250107 0.164365033 0.0171715608
vn 0.990287443 0.138234247 0.0149021359
vn 0.972134308 0.23285442 -0.0270870036
vn 0.994011778 0.105460449 0.0286125494
vn 0.989293347 0.143798802 -0.0249114072
vn 0.984325121 0.166959482 -0.0568206629
vn 0.926674963 0.257680513 -0.273631625
vn 0.995622497 0.093362674 0.00438801456
vn 0.981241319 0.189236678 -0.0368096929
vn 1 0 0
vn 0.997220775 0.0743967236 -0.00398164937
vn 0.988086442 -0.144157207 0.0538876861
vn 0.981513876 -0.150285556 0.118510604
vn 0.999178984 -0.0162662589 -0.0371048002
vn 0 0.962578584 -0.271002713
vn 0 0.975241481 -0.221142609
vn 0 0.991147448 -0.132765717
vn 0 0.962578584 -0.271002713
vn 0 0.99997595 -0.00693537365
vn 0 0.99997595 -0.00693537365
vn 0 0.376525487 0.92640626
vn 0 0.554771451 0.832002787
vn 0 0.554771451 0.832002787
vn 0 0.360358466 0.932813902
vn 0 0.00492477563 0.999987873
vn 0 0.00492477563 0.999987873
vn 0 -0.999235627 -0.0390917179
vn 0 -1 -2.20994518e-16
vn 0 -1 -2.28403578e-16
vn 0 -0.993114087 -0.117151226
vn 0 -0.939090779 -0.343669186
vn 0 -0.939090779 -0.343669186
vn 0 -0.993769578 0.111454147
vn 0 -0.991361628 0.131156865
vn 0 -0.915777964 0.401684851
vn 0 -0.915777964 0.401684851
vn 0 0.999041229 -0.0437792534
vn 0 0.996811629 0.0797908331
vn 0 0.965575496 0.260122975
vn 0 0.98944468 -0.144911093
vn 0 0.470482415 0.882409371
vn 0 0.470482415 0.882409371
vn 0 0.892763079 -0.450526453
vn 0 0.892763079 -0.450526453
vn 0 0.943777543 -0.33058123
vn 0 0.523822815 -0.851827247
vn 0 0.253368742 -0.967369775
vn 0 0.943777543 -0.33058123
vn 0 0 -1
vn 0 0 -1
vn 0 1 1.73046457e-06
vn 0 1 1.73046457e-06
vn 0 0.0439830064 0.999032279
vn 0 0.618619742 0.785690534
vn 0 0.0439830064 0.999032279
vn 0 0.69223717 0.721670077
vn 0 0.981913368 -0.189330761
vn 0 0.948721328 -0.316113654
vn 0 0.894750321 -0.446566751
vn 0 0.858622055 -0.512609175
vn 0 0.745518671 -0.666484742
vn 0 0.639906869 -0.768452471
vn 0 0.25449587 -0.967073861
vn 0 0.25449587 -0.967073861
vn 0.940369765 -0.272297357 -0.203859891
vn 0.979099886 -0.0932625468 -0.180736025
vn 0.950828812 -0.245690974 -0.18857496
vn 0.992207964 0.072088322 -0.101620026
vn 0.978277226 0.201659506 -0.0480324168
vn 0.96608917 0.258012618 0.0100600471
vn 0.957337814 0.287623011 0.0278803521
vn 0.914160214 0.381233998 0.137737949
vn -0.979230528 -0.0917762003 -0.180789108
vn -0.98132652 0.182578911 -0.0605244037
vn -0.989847051 0.118645788 -0.0782687179
vn -0.966088744 0.25801424 0.0100593202
vn -0.960365271 0.278212977 0.0172071083
vn -0.914159132 0.381236559 0.13773804
vn -0.941242324 -0.269150457 -0.204012056
vn -0.950638024 -0.245218448 -0.190145366
vn 0 -0.806748068 0.590895553
vn -0.000505269868 -0.760709428 0.649092375
vn 0 -0.76038776 0.649469364
vn 0 -0.806748068 0.590895553
vn -0.00173299774 -0.629930449 0.776649616
vn -0.00423406692 -0.625765349 0.779999873
vn 0.970629823 0.0645074248 0.231768286
vn 0.984568619 0.106896877 0.138555735
vn 0.988925994 0.13570453 0.0600804308
vn 0.974117921 0.0498643422 0.220471822
vn 0.979247118 0.182518968 -0.0881016972
vn 0.969726894 0.196090999 -0.145526877
vn 0.778885835 0.314119264 -0.542831414
vn 0.962037435 0.0211891799 0.272093721
vn -0.974117931 0.0498643255 0.220471781
vn -0.962037454 0.0211891798 0.272093652
vn -0.970629829 0.0645074161 0.231768264
vn -0.984305877 0.106112888 0.141003532
vn -0.989226095 0.132558258 0.0621292339
vn -0.980705178 0.176939562 -0.0831248818
vn -0.971688432 0.1886345 -0.142262491
vn -0.787399109 0.305127298 -0.535630446
vn 0 -0.968178927 0.250258998
vn 0 -0.997158747 0.0753288311
vn 0 -0.999959301 0.00902203569
vn 0 -0.926914817 0.375271798
vn 0 -0.988779493 -0.149382442
vn 0 -0.950639184 -0.310298473
vn 0 -0.636643697 -0.771158092
vn 0 -0.636643697 -0.771158092
vn 0 -0.491949056 0.870623987
vn 0 -0.458669056 0.888607167
vn 0 0.00606862937 0.999981586
vn 0 0.00606862937 0.999981586
vn 0 0.978606017 0.205743199
vn 0 0.991390044 0.130941899
vn 0 0.991390044 0.130941899
vn -0.00139968343 0.96574795 0.259478202
vn -0.00202882357 0.948587204 0.316509399
vn -0.00420768231 0.947819972 0.318778288

g gun21_submesh_0
usemtl gun0708
f 1/1/1 3/3/3 2/2/2
f 1/1/1 4/4/4 3/3/3
f 5/5/5 4/4/4 1/1/1
f 6/6/6 5/5/5 1/1/1
f 5/5/5 7/7/7 4/4/4
f 8/8/8 7/7/7 5/5/5
f 8/8/8 5/5/5 9/9/9
f 10/10/10 8/8/8 9/9/9
f 11/11/11 8/8/8 10/10/10
f 11/11/11 10/10/10 12/12/12
f 10/10/10 9/9/9 13/13/13
f 4/4/4 7/7/7 14/14/14
f 4/4/4 14/14/14 15/15/15
f 4/4/4 15/15/15 3/3/3
f 16/16/16 18/18/18 17/17/17
f 16/16/16 17/17/17 19/19/19
f 18/18/18 20/20/20 17/17/17
f 18/18/18 21/21/21 20/20/20
f 22/22/22 21/21/21 18/18/18
f 22/22/22 23/23/23 21/21/21
f 24/24/24 16/16/16 19/19/19
f 24/24/24 19/19/19 25/25/25
f 26/26/26 25/25/25 19/19/19
f 24/24/24 25/25/25 27/27/27
f 24/24/24 28/28/28 16/16/16
f 28/28/28 24/24/24 29/29/29
f 29/29/29 24/24/24 27/27/27
f 27/27/27 25/25/25 30/30/30
f 31/31/31 33/33/33 32/32/32
f 31/31/31 32/32/32 34/34/34
f 33/33/33 35/35/35 32/32/32
f 33/33/33 36/36/36 35/35/35
f 37/37/37 39/39/39 38/38/38
f 37/37/37 38/38/38 40/40/40
f 41/41/41 37/37/37 40/40/40
f 41/41/41 42/42/42 37/37/37
f 43/43/43 45/45/45 44/44/44
f 43/43/43 44/44/44 46/46/46
f 47/47/47 43/43/43 46/46/46
f 47/47/47 46/46/46 48/48/48
f 45/45/45 49/49/49 44/44/44
f 45/45/45 50/50/50 49/49/49
f 49/49/49 50/50/50 51/51/51
f 49/49/49 51/51/51 52/52/52
f 53/53/53 55/55/55 54/54/54
f 53/53/53 54/54/54 56/56/56
f 55/55/55 57/57/57 54/54/54
f 55/55/55 58/58/58 57/57/57
f 59/59/59 53/53/53 56/56/56
f 59/59/59 56/56/56 60/60/60
f 61/61/61 63/63/63 62/62/62
f 61/61/61 62/62/62 64/64/64
f 63/63/63 65/65/65 62/62/62
f 63/63/63 66/66/66 65/65/65
f 61/61/61 64/64/64 67/67/67
f 61/61/61 67/67/67 68/68/68
f 69/69/69 71/71/71 70/70/70
f 69/69/69 70/70/70 72/72/72
f 70/70/70 73/73/73 72/72/72
f 70/70/70 74/74/74 73/73/73
f 74/74/74 75/75/75 73/73/73
f 74/74/74 76/76/76 75/75/75
f 76/76/76 77/77/77 75/75/75
f 76/76/76 78/78/78 77/77/77
f 78/78/78 79/79/79 77/77/77
f 78/78/78 80/80/80 79/79/79
f 81/81/81 83/83/83 82/82/82
f 81/81/81 82/82/82 84/84/84
f 84/84/84 82/82/82 85/85/85
f 86/86/86 84/84/84 85/85/85
f 86/86/86 85/85/85 87/87/87
f 86/86/86 87/87/87 88/88/88
f 89/89/89 91/91/91 90/90/90
f 92/92/92 90/90/90 91/91/91
f 92/92/92 91/91/91 93/93/93
f 93/93/93 94/94/94 92/92/92
f 89/89/89 95/95/95 91/91/91
f 89/89/89 96/96/96 95/95/95
f 97/97/97 99/99/99 98/98/98
f 97/97/97 98/98/98 100/100/100
f 101/101/101 98/98/98 99/99/99
f 101/101/101 102/102/102 98/98/98
f 103/103/103 105/105/105 104/104/104
f 103/103/103 104/104/104 106/106/106
f 105/105/105 107/107/107 104/104/104
f 105/105/105 108/108/108 107/107/107
f 108/108/108 109/109/109 107/107/107
f 103/103/103 106/106/106 110/110/110
f 111/111/111 113/113/113 112/112/112
f 114/114/114 113/113/113 111/111/111
f 114/114/114 115/115/115 113/113/113
f 116/116/116 115/115/115 114/114/114
f 116/116/116 117/117/117 115/115/115
f 116/116/116 118/118/118 117/117/117
f 119/119/119 121/121/121 120/120/120
f 119/119/119 120/120/120 122/122/122
f 121/121/121 123/123/123 120/120/120
f 121/121/121 124/124/124 123/123/123
f 124/124/124 125/125/125 123/123/123
f 124/124/124 126/126/126 125/125/125
f 127/127/127 119/119/119 122/122/122
f 127/127/127 122/122/122 128/128/128
f 127/127/127 128/128/128 129/129/129
f 127/127/127 129/129/129 130/130/130
f 131/131/131 133/133/133 132/132/132
f 131/131/131 132/132/132 134/134/134
f 135/135/135 131/131/131 134/134/134
f 135/135/135 134/134/134 136/136/136
