# Generated from legacy Unity YAML Mesh assets without Unity.
mtllib gun30.mtl

o gun30
v 0.189888701 0.22442609 1.25210921
v 0.189888686 0.150700569 1.52636897
v 0.189888686 0.22442609 1.52636897
v 0.189888686 0.122684881 1.47918456
v 0.11034257 0.224426075 1.25210921
v 0.11034257 0.22442609 1.52636897
v 0.189888686 0.0604603807 1.47918456
v 0.189888686 0.0604603807 1.15331684
v 0.110342555 0.0604603732 1.47918456
v 0.110342562 0.0604603732 1.15331684
v 0.110342562 0.122684873 1.47918456
v 0.110342562 0.150700554 1.52636897
v 0.189888686 0.0604603807 1.47918456
v 0.189888686 0.122684881 1.47918456
v 0.110342555 0.0604603732 1.47918456
v 0.189888686 0.150700569 1.52636897
v 0.11034257 0.22442609 1.52636897
v 0.189888686 0.22442609 1.52636897
v 0.110342555 0.0604603732 1.47918456
v 0.11034257 0.128071874 1.19558392
v 0.110342562 0.122684873 1.47918456
v 0.110342562 0.0604603732 1.15331684
v 0.066141665 0.487448394 2.12086449
v 0.0182797629 0.487448394 2.14669786
v 0.0182797629 0.487448394 2.12086449
v 0.066141665 0.487448394 2.14669786
v 0.0951338559 0.433347433 2.14669786
v 0.0951338559 0.433347433 2.12086449
v 0.106791534 0.363552808 2.12470863
v 0.0182797443 0.283876657 2.57642327
v 0.0661416426 0.283876687 2.57642327
v 0.0951338336 0.233976304 2.55552266
v 0.114381112 0.145244315 2.53196702
v 0.0231847931 0.254061758 2.61277662
v 0.0612365901 0.254061758 2.61277662
v 0.0842863172 0.2143891 2.60004578
v 0.0995886624 0.143129631 2.57276926
v -0.0151672997 0.143129616 2.57276926
v 0.000135052949 0.214389085 2.60004578
v 0.114381112 0.145244315 2.53196702
v -0.0151672997 0.143129616 2.57276926
v -0.0107121095 0.433347433 2.12086449
v 0.0182797629 0.487448394 2.14669786
v -0.0107121095 0.433347433 2.14669786
v 0.0182797629 0.487448394 2.12086449
v -0.0223701 0.363552808 2.12470863
v -0.0107121281 0.233976304 2.55552266
v 0.0182797443 0.283876657 2.57642327
v -0.0299597457 0.1452443 2.53196702
v 0.000135052949 0.214389085 2.60004578
v 0.0231847931 0.254061758 2.61277662
v -0.0151672997 0.143129616 2.57276926
v 0.114381112 0.145244315 2.53196702
v -0.0299597457 0.1452443 2.53196702
v -0.0151672997 0.143129616 2.57276926
v 0.0645708442 -0.159558952 2.60075019
v 0.0120875239 -0.159558952 2.49417208
v 0.0120875221 -0.159558952 2.60075019
v 0.0645708516 -0.159558952 2.49417208
v 0.0561999083 -0.145052851 2.62089334
v -0.0102585405 -0.0675969576 2.62089334
v -0.0108963661 -0.065801934 2.55211077
v -0.0102585405 -0.0675969576 2.62089334
v 0.0869169235 -0.0675969576 2.62089334
v 0.0204584617 -0.145052851 2.62089334
v -0.0102585405 -0.0675969576 2.62089334
v 0.0120875221 -0.159558952 2.60075019
v 0.0645708442 -0.159558952 2.60075019
v 0.0561999083 -0.145052851 2.62089334
v 0.0869169235 -0.0675969576 2.62089334
v 0.0875547305 -0.065801934 2.55211077
v 0.0645708516 -0.159558952 2.49417208
v 0.0565185286 0.476357281 1.8563082
v 0.0279029012 0.476357281 1.95656521
v 0.0279029012 0.476357281 1.8563082
v 0.0565185286 0.476357281 1.95656521
v 0.0738520473 0.426792919 1.95656521
v 0.0738520473 0.426792919 1.8563082
v 0.0105693787 0.426792919 1.8563082
v 0.0279029012 0.476357281 1.95656521
v 0.0105693787 0.426792919 1.95656521
v 0.0279029012 0.476357281 1.8563082
v 0.0565185286 0.476357281 1.8563082
v 0.0105693787 0.426792919 1.8563082
v 0.0738520473 0.426792919 1.8563082
v 0.0279029012 0.476357281 1.8563082
v 0.0179476477 0.406538069 1.59448608
v 0.0664737821 0.406538069 1.69474273
v 0.0179476459 0.406538069 1.69474273
v 0.0664737821 0.406538069 1.59448608
v 0.095868364 0.352437317 1.55888169
v 0.0958683565 0.352437317 1.69474273
v -0.0114469193 0.352437317 1.69474273
v -0.0114469156 0.352437317 1.55888169
v 0.106411867 0.0558806131 2.26907937
v 0.106411852 -0.0699341452 2.62517319
v 0.106411859 0.0558806131 2.6978849
v 0.106411852 -0.0699341452 2.5558456
v 0.106411859 -0.0583381658 2.20189212
v 0.106411852 -0.179275483 2.271767
v 0.106411844 -0.179275483 2.49214194
v -0.0322602615 0.0558806056 2.26907937
v -0.0322602764 -0.0699341601 2.5558456
v -0.0322602689 -0.0583381658 2.20189212
v -0.0322602764 -0.0699341601 2.62517319
v 0.106411852 -0.0699341452 2.62517319
v 0.106411852 -0.0699341452 2.5558456
v -0.0322602838 -0.179275483 2.49214194
v 0.106411844 -0.179275483 2.49214194
v -0.0322602764 -0.179275483 2.271767
v 0.106411852 -0.179275483 2.271767
v 0.106411852 -0.179275483 2.271767
v 0.106411859 0.0558806131 2.6978849
v -0.0322602689 0.0558806056 2.6978849
v 0.106411867 0.0558806131 2.26907937
v 0.106411859 -0.0583381658 2.20189212
v -0.0322602615 0.0558806056 2.26907937
v 0.106411852 -0.179275483 2.271767
v 0.106411859 0.0558806131 2.6978849
v 0.072884813 0.49157989 1.94864244
v 0.0422108769 0.50177735 2.12871466
v 0.0422108769 0.50177735 1.96407713
v 0.072884813 0.49157989 2.12871466
v 0.1086758 0.452043443 1.94864244
v 0.108809806 0.450847297 2.12871466
v 0.110792443 0.433178543 1.92291764
v 0.117719464 0.371439516 2.12871466
v 0.118873976 0.361149847 1.66738678
v 0.115602821 0.390304088 1.69139659
v 0.110792443 0.433178543 1.69139659
v -0.0344525278 0.361149847 1.66738678
v -0.0344525278 0.361149847 1.32844831
v 0.118873976 0.361149847 1.32844831
v 0.136370644 0.205206587 1.62180573
v 0.136370644 0.0936142722 1.56728821
v 0.136370644 0.0936142722 1.19488878
v -0.0311813727 0.390304088 1.6913966
v 0.110792443 0.433178543 1.69139659
v -0.0263710022 0.433178543 1.6913966
v -0.0263710022 0.433178543 1.6913966
v -0.0263710022 0.433178543 1.92291764
v -0.0242543742 0.452043443 1.94864244
v -0.0519492477 0.205206572 1.62180574
v -0.0519492552 0.205206572 2.21473245
v 0.136370629 0.205206587 2.21473245
v -0.0519492552 0.122768662 2.26076744
v 0.136370629 0.12276867 2.26076744
v 0.139077932 0.181077644 2.55917273
v 0.132920355 0.235956877 2.40653996
v 0.117719464 0.371439516 2.20588831
v 0.127725258 0.282261222 2.37910066
v 0.121282704 0.33968079 2.40583024
v 0.11218714 0.420746028 2.22701947
v 0.136370629 0.124483622 2.53516291
v -0.0332980528 0.371439516 2.12871466
v -0.0332980528 0.371439516 2.20588831
v -0.0519492626 0.124483607 2.53516291
v 0.136370629 0.124483622 2.53516291
v -0.0546565577 0.181077629 2.55917273
v 0.11218714 0.420746028 2.22701947
v -0.0277657285 0.420746028 2.22701947
v 0.0422108732 0.467478126 2.24704776
v 0.11218714 0.420746028 2.22701947
v 0.0422108658 0.381729364 2.42540495
v 0.0422108732 0.467478126 2.24704776
v 0.139077932 0.181077644 2.55917273
v -0.0484989807 0.235956877 2.40653996
v 0.136370629 0.124483622 2.53516291
v -0.0433038622 0.282261222 2.37910066
v 0.139077932 0.181077644 2.55917273
v 0.132920355 0.235956877 2.40653996
v 0.127725258 0.282261222 2.37910066
v -0.036861293 0.339680761 2.40583024
v 0.0422108658 0.381729364 2.42540495
v 0.0115366187 0.49157989 1.94864244
v 0.0422108769 0.50177735 2.12871466
v 0.011536615 0.49157989 2.12871466
v 0.0422108769 0.50177735 1.96407713
v -0.0242543742 0.452043443 1.94864244
v -0.0243883654 0.450847297 2.12871466
v -0.0263710022 0.433178543 1.92291764
v -0.0332980528 0.371439516 2.12871466
v -0.0344525278 0.361149847 1.66738678
v -0.0519492552 0.205206572 2.21473245
v -0.0519492477 0.205206572 1.62180574
v -0.0311813727 0.390304088 1.6913966
v -0.0263710022 0.433178543 1.6913966
v -0.0344525278 0.361149847 1.32844831
v -0.0519492477 0.0936142573 1.56728822
v -0.0519492477 0.0936142573 1.19488845
v -0.0332980528 0.371439516 2.20588831
v -0.0484989807 0.235956877 2.40653996
v -0.0546565577 0.181077629 2.55917273
v -0.0433038622 0.282261222 2.37910066
v -0.036861293 0.339680761 2.40583024
v -0.0277657285 0.420746028 2.22701947
v 0.0422108658 0.381729364 2.42540495
v 0.0422108732 0.467478126 2.24704776
v -0.0519492552 0.122768662 2.26076744
v -0.0519492626 0.124483607 2.53516291
v -0.0519492477 0.0936142573 1.56728822
v -0.0519492477 0.0936142573 1.19488845
v 0.0115366187 0.49157989 1.94864244
v 0.072884813 0.49157989 1.94864244
v 0.072884813 0.49157989 1.94864244
v 0.1086758 0.452043443 1.94864244
v 0.072884813 0.49157989 2.12871466
v 0.011536615 0.49157989 2.12871466
v 0.0422108769 0.50177735 2.12871466
v 0.108809806 0.450847297 2.12871466
v -0.0243883654 0.450847297 2.12871466
v 0.117719464 0.371439516 2.12871466
v -0.0332980528 0.371439516 2.12871466
v 0.106330827 0.26259151 1.67451904
v 0.106330812 0.09171199 1.63124938
v 0.106330819 0.144039601 1.66098934
v 0.106330819 0.0913788969 1.4731179
v -0.0219094232 0.0913788894 1.4731179
v -0.0219094306 0.0917119751 1.63124939
v -0.0219094232 0.144039586 1.66098934
v 0.106330812 0.144039601 2.16566287
v -0.0219094306 0.144039586 2.16566287
v 0.106330805 0.0405420283 2.21835242
v -0.0219094381 0.0405420208 2.21835242
v 0.106330805 0.0405420283 2.42534761
v -0.0219094381 0.0405420208 2.42534761
v 0.106330812 0.192965775 2.46674697
v 0.106330805 0.051832586 2.46674697
v 0.106330805 0.051832586 2.46674697
v -0.0219094381 0.0405420208 2.42534761
v -0.0219094306 0.192965775 2.46674697
v 0.106330805 0.051832586 2.46674697
v -0.0219094381 0.0518325785 2.46674697
v -0.0219094381 0.0405420208 2.42534761
v -0.0219094306 0.144039586 2.16566287
v -0.0219094381 0.0405420208 2.42534761
v -0.0219094381 0.0405420208 2.21835242
v -0.0219094306 0.192965775 2.46674697
v -0.0219094157 0.26259151 1.67451906
v -0.0219094232 0.144039586 1.66098934
v -0.0219094306 0.0917119751 1.63124939
v -0.0219094232 0.0913788894 1.4731179
v -0.0219094381 0.0518325785 2.46674697
v 0.0712105334 0.0989897842 1.49540969
v 0.0712105185 -0.0956171757 1.56619273
v 0.0712105334 0.0989897842 1.56619273
v 0.0712105259 -0.0583630061 1.49540969
v 0.0712105185 -0.0807154482 1.45194633
v 0.0132108498 -0.0583630061 1.49540969
v 0.013210848 -0.0807154482 1.45194633
v 0.0712105185 -0.0956171757 1.45194633
v 0.013210848 -0.0956171757 1.45194633
v 0.0132108461 -0.0956171757 1.56619273
v 0.0712105259 -0.0583630061 1.49540969
v 0.0132108591 0.0989897842 1.49540969
v 0.0712105185 -0.0956171757 1.45194633
v 0.013210848 -0.0956171757 1.45194633
v 0.0712105185 -0.0807154482 1.45194633
v 0.0132108591 0.0989897842 1.56619273
v 0.0712105185 -0.0956171757 1.56619273
v 0.0132108461 -0.0956171757 1.56619273
v 0.0132108498 -0.0583630061 1.49540969
v 0.013210848 -0.0956171757 1.45194633
v 0.013210848 -0.0807154482 1.45194633
v 0.0132108461 -0.0956171757 1.56619273
v 0.0132108591 0.0989897842 1.49540969
v 0.0132108591 0.0989897842 1.56619273
v 0.0534628108 0.141295939 0.637890737
v 0.0534627996 0.0384643817 0.973433177
v 0.0534628071 0.141295939 0.973433177
v 0.0534628034 0.0384643817 0.694599132
v 0.0309586041 0.0384643743 0.694599132
v 0.0309586078 0.0936606819 0.637890737
v 0.0309586003 0.0384643743 0.973433177
v 0.0309586059 0.141295939 0.973433177
v 0.0309586115 0.141295939 0.637890737
v 0.0534628071 0.0936606819 0.637890737
v 0.0309586115 0.141295939 0.637890737
v 0.0534628071 0.0936606819 0.637890737
v 0.0534628108 0.141295939 0.637890737
v 0.0534628034 0.0384643817 0.694599132
v 0.0309586115 0.141295939 0.637890737
v 0.0309586041 0.0384643743 0.694599132
v 0.0309586078 0.0936606819 0.637890737
v 0.0309586003 0.0384643743 0.973433177
v 0.0309586059 0.141295939 0.973433177
v 0.104826219 0.258067399 0.637890737
v 0.146079302 0.281885266 0.637890737
v 0.193880811 0.309483408 0.694599132
v 0.193880796 0.309483408 1.23872433
v 0.205132708 0.289994239 0.694599132
v 0.157331556 0.262396097 0.637890737
v 0.205132708 0.289994239 1.2278188
v 0.104826212 0.258067399 1.23872433
v 0.116078123 0.238578706 1.2278191
v 0.116078138 0.238578706 0.637890737
v 0.116078138 0.238578706 0.637890737
v 0.146079302 0.281885266 0.637890737
v 0.104826219 0.258067399 0.637890737
v 0.193880811 0.309483408 0.694599132
v 0.116078138 0.238578706 0.637890737
v 0.205132708 0.289994239 0.694599132
v 0.157331556 0.262396097 0.637890737
v 0.205132708 0.289994239 1.2278188
v 0.116078123 0.238578706 1.2278191
v 0.205132708 0.289994239 1.2278188
v 0.104826212 0.258067399 1.23872433
v 0.193880796 0.309483408 1.23872433
v 0.116078123 0.238578706 1.2278191
v -0.0204047561 0.258067369 0.637890737
v -0.109459326 0.309483408 0.694599132
v -0.0616578609 0.281885236 0.637890737
v -0.109459341 0.309483408 1.23872433
v -0.120711282 0.289994239 0.694599132
v -0.0729101226 0.262396067 0.637890737
v -0.120711282 0.289994239 1.2278191
v -0.0204047635 0.258067369 1.23872433
v -0.0316567123 0.238578706 1.2278191
v -0.0316566974 0.238578706 0.637890737
v -0.0316566974 0.238578706 0.637890737
v -0.0616578609 0.281885236 0.637890737
v -0.0204047561 0.258067369 0.637890737
v -0.109459326 0.309483408 0.694599132
v -0.0316566974 0.238578706 0.637890737
v -0.0729101226 0.262396067 0.637890737
v -0.120711282 0.289994239 0.694599132
v -0.120711282 0.289994239 1.2278191
v -0.0316567123 0.238578706 1.2278191
v -0.120711282 0.289994239 1.2278191
v -0.0204047635 0.258067369 1.23872433
v -0.0316567123 0.238578706 1.2278191
v -0.109459341 0.309483408 1.23872433
v 0.0744210035 0.187749594 0.713247399
v 0.219505489 0.11475934 0.713247399
v 0.173057303 0.243677452 0.713247399
v 0.0857960433 0.0484044695 0.713247399
v 0.0744210035 0.187749594 0.713247399
v 0.184802502 0.2731947 0.802370112
v 0.0506214872 0.199649542 0.802370112
v 0.173057303 0.243677452 0.713247399
v 0.243305311 0.0976050267 0.802370112
v 0.219505489 0.11475934 0.713247399
v 0.0657053515 0.0188866401 0.802370112
v 0.0857960433 0.0484044695 0.713247399
v 0.184802502 0.2731947 0.999646585
v 0.0506214872 0.199649542 0.999646585
v 0.243305296 0.0976050267 0.999646585
v 0.0657053441 0.0188866401 0.999646585
v 0.0422108769 0.230762362 0.713247399
v 0.132877991 0.307646334 0.713247399
v 0.0422108881 0.400248229 0.713247399
v -0.0484565273 0.307646334 0.713247399
v 0.0422108881 0.400248229 0.713247399
v 0.168486103 0.307646334 0.802370112
v 0.0422108881 0.429436117 0.802370112
v 0.132877991 0.307646334 0.713247399
v 0.0422108732 0.204201653 0.802370112
v 0.0422108769 0.230762362 0.713247399
v 0.168486103 0.307646334 1.31075076
v 0.0422108807 0.403510838 1.31075076
v 0.0422108695 0.204201653 1.31075076
v 0.0422108881 0.400248229 0.713247399
v -0.0840646774 0.307646334 0.802370112
v -0.0484565273 0.307646334 0.713247399
v 0.0422108881 0.429436117 0.802370112
v 0.0422108732 0.204201653 0.802370112
v 0.0422108769 0.230762362 0.713247399
v -0.0840646774 0.307646334 1.31075076
v 0.0422108807 0.403510838 1.31075076
v 0.0422108695 0.204201653 1.31075076
v 0.0100007914 0.187749594 0.713247399
v -0.135084048 0.114759311 0.713247399
v -0.00137462839 0.0484044621 0.713247399
v -0.0886358768 0.243677437 0.713247399
v 0.0100007914 0.187749594 0.713247399
v -0.100381061 0.27319467 0.802370112
v -0.0886358768 0.243677437 0.713247399
v 0.0338002592 0.199649542 0.802370112
v -0.158883885 0.0976050044 0.802370112
v -0.135084048 0.114759311 0.713247399
v 0.0187160503 0.0188866401 0.802370112
v -0.00137462839 0.0484044621 0.713247399
v -0.100381061 0.27319467 0.999646585
v 0.0338002592 0.199649542 0.999646585
v -0.158883899 0.0976050044 0.999646585
v 0.0187160484 0.0188866401 0.999646585
v -0.0958801061 0.319797337 1.48505786
v -0.00326193124 0.404137223 1.60524878
v -0.0958801061 0.319797337 1.55735299
v 0.0422108807 0.454779654 1.57700397
v -0.0360368937 0.286547362 1.49207343
v -0.0419162959 0.287306725 1.56491272
v 0.0422108732 0.37729147 1.62036455
v -0.0500028878 0.147688999 1.41002692
v -0.14890486 0.171270996 1.40253777
v -0.112385482 0.278209626 1.22551994
v -0.14890486 0.171270996 1.23757828
v -0.0498923138 0.14748241 1.24453009
v 0.042210862 0.119524642 1.21945978
v -0.176264569 0.0906049678 1.1937363
v -0.148904845 0.184167623 0.802431922
v -0.176264569 0.0906049678 0.802431922
v -0.101529136 0.0540341208 0.802431922
v -0.0275828466 0.0222368533 0.946119051
v -0.109590307 0.179387748 0.791277091
v -0.149219334 0.102554425 0.78607754
v -0.0785768107 0.0860374937 0.79007868
v -0.00145199895 0.0527760306 0.934774141
v 0.0422108546 -0.0100200033 1.13347612
v 0.0422105491 0.223432302 0.935671191
v -0.129851282 0.225052922 0.945294659
v -0.112385482 0.278209626 0.979034047
v 0.0422108583 -0.0100200033 0.988380115
v 0.0422108546 -0.0100200033 1.13347612
v 0.0422105603 0.454779654 1.332153
v 0.0422105603 0.454779654 1.332153
v 0.180301532 0.319797366 1.48505786
v 0.0876833647 0.404137223 1.60524878
v 0.0422108807 0.454779654 1.57700397
v 0.180301532 0.319797366 1.55735297
v 0.120458305 0.286547362 1.49207343
v 0.126337707 0.287306725 1.56491271
v 0.0422108732 0.37729147 1.62036455
v 0.134424299 0.147689342 1.41002692
v 0.233326286 0.171271026 1.40253777
v 0.196806908 0.278209626 1.22551994
v 0.233326286 0.171271026 1.23757828
v 0.134313732 0.147482424 1.24453009
v 0.042210862 0.119524642 1.21945978
v 0.26068598 0.0906049976 1.1937363
v 0.233326301 0.184167653 0.802431922
v 0.26068598 0.0906049902 0.802431922
v 0.185950547 0.0540341431 0.802431922
v 0.112004265 0.0222368682 0.946119051
v 0.194011748 0.179387763 0.791277091
v 0.233641118 0.10255444 0.78607754
v 0.162998229 0.086037516 0.79007868
v 0.0858734027 0.0527760381 0.934774141
v 0.0422108546 -0.0100200033 1.13347612
v 0.0422105491 0.223432302 0.935671191
v 0.214272738 0.225052952 0.945294659
v -0.0275828466 0.0222368533 0.946119051
v -0.00145199895 0.0527760306 0.934774141
v 0.0422108583 -0.0100200033 0.988380115
v 0.0422108546 -0.0100200033 1.13347612
v 0.196806908 0.278209626 0.979034047
v -0.112385482 0.278209626 0.979034047
v -0.112385482 0.278209626 1.22551994
v 0.0422105603 0.454779654 1.332153
v 0.0422105603 0.454779654 1.332153
v -0.00326193124 0.404137223 1.60524878
v 0.0422108918 0.45474407 0.799010794
v 0.0226762537 0.433238893 1.24210064
v -0.00255558267 0.408339261 0.799010794
v 0.0422108844 0.45474407 1.22627039
v -0.0456939414 0.366864263 0.94751678
v 0.0422108844 0.34863305 0.787230353
v -0.0298972577 0.333628535 0.936983506
v -0.0847625285 0.325711905 0.984036188
v -0.0847625285 0.325711905 1.17897202
v 0.0422108807 0.40367341 1.25733719
v -0.0531868711 0.293206691 1.18094344
v -0.0465366617 0.290083855 0.981791596
v 0.0617451891 0.433238893 1.24210064
v 0.0226762537 0.433238893 1.24210064
v 0.0869770348 0.408339261 0.799010794
v 0.0422108807 0.40367341 1.25733719
v 0.13011539 0.366864621 0.947516482
v 0.0422108844 0.34863305 0.787230353
v 0.114318721 0.333629012 0.936983506
v 0.169183969 0.325711905 0.984036188
v 0.169183969 0.325711905 1.17897202
v 0.13760829 0.293206691 1.18094377
v 0.13095811 0.290083885 0.981791954
v 0.0422108844 0.34863305 0.787230353
v 0.0422108918 0.45474407 0.799010794
v 0.0422108918 0.45474407 0.799010794
v -0.00255558267 0.408339261 0.799010794
vt 0.246162996 0.781794012
vt 0.35512501 0.751650989
vt 0.35512501 0.781794012
vt 0.336378992 0.74019599
vt 0.241420999 0.803530991
vt 0.381534994 0.803530991
vt 0.336378992 0.714754999
vt 0.206912994 0.714754999
vt 0.360237986 0.693018019
vt 0.196831003 0.693018019
vt 0.360237986 0.739096999
vt 0.381534994 0.752110004
vt 0.336378992 0.714754999
vt 0.336378992 0.74019599
vt 0.360237986 0.693018019
vt 0.35512501 0.751650989
vt 0.381534994 0.803530991
vt 0.35512501 0.781794012
vt 0.360237986 0.693018019
vt 0.206912994 0.714754999
vt 0.336378992 0.714754999
vt 0.196831003 0.693018019
vt 0.971768975 0.747138023
vt 0.988767028 0.739004016
vt 0.984552026 0.746725976
vt 0.975983024 0.73941499
vt 0.957166016 0.729146004
vt 0.952951014 0.736868978
vt 0.929301977 0.722472012
vt 0.988061011 0.571898997
vt 0.975277007 0.572310984
vt 0.954510987 0.569087982
vt 0.919803977 0.559287012
vt 0.982985973 0.550489008
vt 0.970836997 0.555783987
vt 0.954961002 0.552060008
vt 0.925724983 0.54668802
vt 0.943269014 0.51453799
vt 0.965741992 0.532303989
vt 0.919803977 0.559287012
vt 0.943269014 0.51453799
vt 0.952951014 0.736868978
vt 0.975983024 0.73941499
vt 0.957166016 0.729146004
vt 0.971768975 0.747138023
vt 0.929301977 0.722472012
vt 0.954510987 0.569087982
vt 0.975277007 0.572310984
vt 0.919803977 0.559287012
vt 0.954961002 0.552060008
vt 0.970836997 0.555783987
vt 0.925724983 0.54668802
vt 0.919803977 0.559287012
vt 0.918280005 0.537301004
vt 0.943269014 0.51453799
vt 0.936007977 0.750756025
vt 0.879966974 0.76354301
vt 0.929310024 0.76354301
vt 0.879966974 0.750756025
vt 0.956295013 0.770595014
vt 0.938636005 0.808251023
vt 0.906790972 0.809123993
vt 0.938636005 0.808251023
vt 0.962993026 0.808251977
vt 0.938636005 0.770595014
vt 0.938636005 0.808251023
vt 0.929310024 0.76354301
vt 0.929310024 0.76354301
vt 0.938636005 0.770595014
vt 0.938636005 0.808251023
vt 0.906790972 0.809123993
vt 0.879966974 0.76354301
vt 0.0383110009 0.646996975
vt 0.0815989971 0.65942198
vt 0.0383110009 0.65942198
vt 0.0815989971 0.646996975
vt 0.0815989971 0.623328984
vt 0.0383110009 0.623328984
vt 0.0383110009 0.623328984
vt 0.0815989971 0.646996975
vt 0.0815989971 0.623328984
vt 0.0383110009 0.646996975
vt 0.0383110009 0.646996975
vt 0.0261359997 0.623328984
vt 0.0383110009 0.623328984
vt 0.0261359997 0.646996975
vt 0.401457012 0.558830976
vt 0.43829 0.576846004
vt 0.43829 0.558830976
vt 0.401457012 0.576846004
vt 0.388375998 0.600767016
vt 0.43829 0.600767016
vt 0.43829 0.534910023
vt 0.388375998 0.534910023
vt 0.926859975 0.960359991
vt 0.783128977 0.911732018
vt 0.755535007 0.960560024
vt 0.809695005 0.911701024
vt 0.953913987 0.914243996
vt 0.925665021 0.865481973
vt 0.836749017 0.865585983
vt 0.926841021 0.960355997
vt 0.809675992 0.911697984
vt 0.953894973 0.914240003
vt 0.783110023 0.911728978
vt 0.754980981 0.898702979
vt 0.798094988 0.898663998
vt 0.836731017 0.865581989
vt 0.832108021 0.837517023
vt 0.925646007 0.865477979
vt 0.943890989 0.837386012
vt 0.943890989 0.837386012
vt 0.728583992 0.955700994
vt 0.755515993 0.960555971
vt 0.945393026 0.992796004
vt 0.987578988 0.914555013
vt 0.926841021 0.960355997
vt 0.943890989 0.837386012
vt 0.755515993 0.992796004
vt 0.647704005 0.81231302
vt 0.718659997 0.821372986
vt 0.65378499 0.821372986
vt 0.718659997 0.81231302
vt 0.647704005 0.793870986
vt 0.718659997 0.793362021
vt 0.637566984 0.785858989
vt 0.718659997 0.759639025
vt 0.536876023 0.755268991
vt 0.546337008 0.767651021
vt 0.546337008 0.785858989
vt 0.529082 0.781089008
vt 0.403319001 0.781089008
vt 0.403319001 0.755268991
vt 0.518914998 0.689041972
vt 0.497433007 0.641650021
vt 0.350690991 0.641650021
vt 0.536149979 0.790221989
vt 0.546337008 0.785858989
vt 0.544247985 0.810858011
vt 0.544247985 0.810858011
vt 0.629773021 0.810858011
vt 0.636252999 0.812897027
vt 0.526067019 0.664690018
vt 0.745402992 0.664690018
vt 0.752555013 0.689041972
vt 0.770694971 0.629679978
vt 0.770694971 0.654030979
vt 0.888279974 0.67879498
vt 0.828136027 0.702100992
vt 0.749069989 0.759639025
vt 0.817323983 0.721765995
vt 0.829384983 0.74615097
vt 0.758925974 0.780578971
vt 0.878818989 0.654760003
vt 0.729137003 0.779026985
vt 0.74594301 0.779026985
vt 0.890051007 0.630407989
vt 0.878818989 0.654760003
vt 0.915107012 0.67879498
vt 0.758925974 0.780578971
vt 0.754020989 0.800338984
vt 0.769876003 0.806541979
vt 0.758925974 0.780578971
vt 0.840156972 0.770124972
vt 0.769876003 0.806541979
vt 0.888279974 0.67879498
vt 0.850977004 0.709609985
vt 0.878818989 0.654760003
vt 0.840847015 0.721765995
vt 0.888279974 0.67879498
vt 0.828136027 0.702100992
vt 0.817323983 0.721765995
vt 0.852909029 0.74615097
vt 0.840156972 0.770124972
vt 0.647704005 0.81231302
vt 0.718659997 0.821372986
vt 0.718659997 0.81231302
vt 0.65378499 0.821372986
vt 0.647704005 0.793870986
vt 0.718659997 0.793362021
vt 0.637566984 0.785858989
vt 0.718659997 0.759639025
vt 0.536876023 0.755268991
vt 0.752555013 0.689041972
vt 0.518914998 0.689041972
vt 0.546337008 0.767651021
vt 0.546337008 0.785858989
vt 0.403319001 0.755268991
vt 0.497433007 0.641650021
vt 0.350690991 0.641650021
vt 0.749069989 0.759639025
vt 0.828136027 0.702100992
vt 0.888279974 0.67879498
vt 0.817323983 0.721765995
vt 0.829384983 0.74615097
vt 0.758925974 0.780578971
vt 0.840156972 0.770124972
vt 0.769876003 0.806541979
vt 0.770694971 0.654030979
vt 0.878818989 0.654760003
vt 0.497433007 0.617298007
vt 0.350690991 0.617298007
vt 0.644316971 0.818912983
vt 0.647704005 0.81231302
vt 0.647704005 0.81231302
vt 0.647704005 0.793870986
vt 0.718659997 0.81231302
vt 0.726822019 0.819163978
vt 0.718659997 0.821372986
vt 0.718659997 0.793362021
vt 0.733869016 0.795225978
vt 0.718659997 0.759639025
vt 0.729137003 0.779026985
vt 0.545850992 0.639747024
vt 0.528939009 0.572068989
vt 0.540562987 0.592794001
vt 0.467135996 0.571937025
vt 0.467135996 0.552199006
vt 0.528939009 0.552330971
vt 0.540562987 0.573055983
vt 0.737807989 0.592794001
vt 0.737807989 0.573055983
vt 0.758400977 0.551802993
vt 0.758400977 0.532064974
vt 0.839302003 0.551802993
vt 0.853493989 0.532064974
vt 0.855481982 0.612170994
vt 0.855481982 0.55627501
vt 0.855481982 0.55627501
vt 0.853493989 0.532064974
vt 0.878808975 0.612170994
vt 0.855481982 0.55627501
vt 0.878808975 0.55627501
vt 0.853493989 0.532064974
vt 0.737807989 0.592794001
vt 0.839302003 0.551802993
vt 0.758400977 0.551802993
vt 0.855481982 0.612170994
vt 0.545850992 0.639747024
vt 0.540562987 0.592794001
vt 0.528939009 0.572068989
vt 0.467135996 0.571937025
vt 0.855481982 0.55627501
vt 0.342220008 0.588406026
vt 0.362507999 0.531176984
vt 0.362507999 0.588406026
vt 0.342220008 0.542159021
vt 0.329762995 0.535669982
vt 0.336685002 0.545391977
vt 0.323000014 0.537541986
vt 0.329762995 0.531176984
vt 0.323000014 0.52461803
vt 0.370380014 0.52461803
vt 0.342220008 0.542159021
vt 0.336685002 0.588406026
vt 0.329762995 0.531176984
vt 0.323000014 0.52461803
vt 0.329762995 0.535669982
vt 0.370380014 0.588406026
vt 0.362507999 0.531176984
vt 0.370380014 0.52461803
vt 0.342220008 0.542159021
vt 0.329762995 0.531176984
vt 0.329762995 0.535669982
vt 0.362507999 0.531176984
vt 0.342220008 0.588406026
vt 0.362507999 0.588406026
vt 0.0271380004 0.564029992
vt 0.202259004 0.51394701
vt 0.202259004 0.564029992
vt 0.0526029989 0.51394701
vt 0.0451259986 0.506264985
vt 0.0178970005 0.540353
vt 0.202259004 0.506264985
vt 0.202259004 0.57151401
vt 0.0178970005 0.571712971
vt 0.0271380004 0.540250003
vt 0.0178970005 0.571712971
vt 0.0271380004 0.540250003
vt 0.0271380004 0.564029992
vt 0.0526029989 0.51394701
vt 0.0271380004 0.564029992
vt 0.0526029989 0.51394701
vt 0.0271380004 0.540250003
vt 0.202259004 0.51394701
vt 0.202259004 0.564029992
vt 0.0271380004 0.564029992
vt 0.0271380004 0.540250003
vt 0.0526029989 0.51394701
vt 0.293906003 0.51394701
vt 0.0451259986 0.506264985
vt 0.0178970005 0.540637016
vt 0.303146988 0.506264985
vt 0.293906003 0.564029992
vt 0.303146988 0.571712017
vt 0.0178970005 0.571712971
vt 0.0178970005 0.571712971
vt 0.0271380004 0.540250003
vt 0.0271380004 0.564029992
vt 0.0526029989 0.51394701
vt 0.0271380004 0.564029992
vt 0.0526029989 0.51394701
vt 0.0271380004 0.540250003
vt 0.293906003 0.51394701
vt 0.293906003 0.564029992
vt 0.303146988 0.506264985
vt 0.293906003 0.564029992
vt 0.293906003 0.51394701
vt 0.303146988 0.571712017
vt 0.0271380004 0.564029992
vt 0.0526029989 0.51394701
vt 0.0271380004 0.540250003
vt 0.293906003 0.51394701
vt 0.0451259986 0.506264985
vt 0.0178970005 0.540637016
vt 0.303146988 0.506264985
vt 0.293906003 0.564029992
vt 0.303146988 0.571712017
vt 0.0178970005 0.571712971
vt 0.0178970005 0.571712971
vt 0.0271380004 0.540250003
vt 0.0271380004 0.564029992
vt 0.0526029989 0.51394701
vt 0.0271380004 0.564029992
vt 0.0271380004 0.540250003
vt 0.0526029989 0.51394701
vt 0.293906003 0.51394701
vt 0.293906003 0.564029992
vt 0.303146988 0.506264985
vt 0.293906003 0.564029992
vt 0.303146988 0.571712017
vt 0.293906003 0.51394701
vt 0.349723995 0.885047019
vt 0.402547002 0.812914014
vt 0.41208601 0.887742996
vt 0.320380986 0.813896
vt 0.423406988 0.917262971
vt 0.464895993 0.994621992
vt 0.464895993 0.917262971
vt 0.423406988 0.979959011
vt 0.464895993 0.917262971
vt 0.423406005 0.917262971
vt 0.464895993 0.833052993
vt 0.423406988 0.848845005
vt 0.547951996 0.994621992
vt 0.547951996 0.917262971
vt 0.547951996 0.917262971
vt 0.547951996 0.833052993
vt 0.401340991 0.814611018
vt 0.334585011 0.816044986
vt 0.341345012 0.888523996
vt 0.413664997 0.880235016
vt 0.423406005 0.979959011
vt 0.464895993 0.917262971
vt 0.464895993 0.994621992
vt 0.423406988 0.917262971
vt 0.464895993 0.833052993
vt 0.423406988 0.848845005
vt 0.681698024 0.917262971
vt 0.681698024 0.994621992
vt 0.681698024 0.833052993
vt 0.423406005 0.979959011
vt 0.464895993 0.917262971
vt 0.423406988 0.917262971
vt 0.464895993 0.994621992
vt 0.464895993 0.833052993
vt 0.423406988 0.848845005
vt 0.681698024 0.917262971
vt 0.681698024 0.994621992
vt 0.681698024 0.833052993
vt 0.349723995 0.885047019
vt 0.402547002 0.812914014
vt 0.320380986 0.813896
vt 0.41208601 0.887742996
vt 0.423406988 0.917262971
vt 0.464895993 0.994621992
vt 0.423406988 0.979959011
vt 0.464895993 0.917262971
vt 0.464895993 0.917262971
vt 0.423406005 0.917262971
vt 0.464895993 0.833052993
vt 0.423406988 0.848845005
vt 0.547951996 0.994621992
vt 0.547951996 0.917262971
vt 0.547951996 0.917262971
vt 0.547951996 0.833052993
vt 0.330426991 0.907893002
vt 0.379866004 0.955033004
vt 0.361945987 0.907893002
vt 0.366109014 0.981711984
vt 0.335714996 0.894520998
vt 0.367134988 0.895305991
vt 0.395698994 0.955033004
vt 0.306080014 0.820486009
vt 0.296030015 0.831378996
vt 0.217772007 0.885406017
vt 0.224112004 0.831378996
vt 0.228617996 0.816772997
vt 0.223231003 0.777154028
vt 0.205807999 0.789496005
vt 0.0344129987 0.835695982
vt 0.0352080017 0.789496005
vt 0.0326969996 0.763934016
vt 0.0928609967 0.735651016
vt 0.0263650008 0.835723996
vt 0.0263650008 0.790804982
vt 0.0235920008 0.755060971
vt 0.0867080018 0.714707971
vt 0.184274003 0.72528398
vt 0.0799119994 0.872712016
vt 0.0961159989 0.857365012
vt 0.110310003 0.885406017
vt 0.108943 0.72528398
vt 0.184274003 0.72528398
vt 0.259359986 0.981711984
vt 0.259359986 0.981711984
vt 0.330426991 0.907893002
vt 0.379866004 0.955033004
vt 0.366109014 0.981711984
vt 0.361945987 0.907893002
vt 0.335714996 0.894520998
vt 0.367134988 0.895305991
vt 0.395698994 0.955033004
vt 0.306080014 0.820486009
vt 0.296030015 0.831378996
vt 0.217772007 0.885406017
vt 0.224112004 0.831378996
vt 0.228617996 0.816772997
vt 0.223231003 0.777154028
vt 0.205807999 0.789496005
vt 0.0344129987 0.835695982
vt 0.0352080017 0.789496005
vt 0.0326969996 0.763934016
vt 0.0928609967 0.735651016
vt 0.0263650008 0.835723996
vt 0.0263650008 0.790804982
vt 0.0235920008 0.755060971
vt 0.0867080018 0.714707971
vt 0.184274003 0.72528398
vt 0.0799119994 0.872712016
vt 0.0961159989 0.857365012
vt 0.106737003 0.684283018
vt 0.0966169983 0.685294986
vt 0.108943 0.72528398
vt 0.184274003 0.72528398
vt 0.110310003 0.885406017
vt 0.100096002 0.907540023
vt 0.207558006 0.907540023
vt 0.259359986 0.981711984
vt 0.259359986 0.981711984
vt 0.392286003 0.981711984
vt 0.0261119995 0.997303009
vt 0.220718995 0.985798001
vt 0.0283470005 0.970579982
vt 0.213196993 0.997303009
vt 0.0944690034 0.948118985
vt 0.0149410004 0.950046003
vt 0.0904830024 0.937048972
vt 0.111634001 0.926340997
vt 0.196621001 0.926340997
vt 0.232088998 0.979200006
vt 0.196400002 0.916637003
vt 0.109351002 0.916637003
vt 0.220718995 0.985798001
vt 0.227440998 0.993957996
vt 0.0283470005 0.970579982
vt 0.232088998 0.979200006
vt 0.0944690034 0.948118985
vt 0.0149410004 0.950046003
vt 0.0904830024 0.937048972
vt 0.111634001 0.926340997
vt 0.196621001 0.926340997
vt 0.196400002 0.916637003
vt 0.109351002 0.916637003
vt 0.0149410004 0.950046003
vt 0.0261119995 0.997303009
vt 0.0261119995 0.997303009
vt 0.0032240001 0.976468027
vn 0.976543209 0.215321531 2.411457e-08
vn 1 -2.24044883e-08 4.83095973e-08
vn 0.420460219 0.907310974 -1.80357246e-09
vn 0.985431365 -0.146238648 0.0868290431
vn -9.36636538e-08 1 -2.71661479e-08
vn 0 1 -5.4332291e-08
vn 0.933638827 -0.358215775 1.28134399e-08
vn 0.717692102 -0.696360572 5.97350867e-16
vn 9.36636494e-08 -1 8.5781844e-16
vn 9.36636538e-08 -1 1.92857288e-15
vn 2.76910465e-08 -0.295643458 0.955298354
vn 8.26355554e-08 -0.588172338 0.808735618
vn 0 0 1
vn 8.6799524e-08 -0.463357559 0.886171412
vn 0 0 1
vn 4.86456836e-08 -0.259682821 0.965693964
vn 0 0 1
vn 0 0 1
vn -1 1.22376297e-07 -2.33677754e-08
vn -1 1.22376297e-07 -2.33677754e-08
vn -1 1.19737091e-07 -2.39969724e-08
vn -1 1.24490175e-07 -2.28638186e-08
vn 0.575624693 0.817714016 1.73827267e-15
vn 0 0.921031893 0.389487166
vn 0 1 2.14881585e-15
vn 0.374069259 0.843555803 0.385338549
vn 0.92933067 0.336267704 0.152540278
vn 0.950165121 0.311747082 6.69887071e-16
vn 0.982675452 0.169181627 0.0756738582
vn -2.91177563e-07 0.898776075 0.438407992
vn 0.674454405 0.657011587 0.336818988
vn 0.961085704 0.241787007 0.133616285
vn 0.976839221 0.17746804 0.119541755
vn -1.18003044e-07 0.206968894 0.978347524
vn 0.637353816 0.39196301 0.663434331
vn 0.378872683 -0.212601466 0.900697567
vn 0.243899252 -0.624429426 0.742024963
vn 5.35618192e-08 -0.357483311 0.933919527
vn 6.00744696e-08 -0.339258297 0.940693259
vn 1.29676822e-07 -0.99865965 -0.0517581152
vn 1.29676822e-07 -0.99865965 -0.0517581152
vn -0.931258912 0.364358119 7.64409691e-16
vn -0.87259784 0.444978614 0.201412618
vn -0.96212251 0.248337152 0.112467478
vn -0.881417469 0.472338062 9.57268904e-16
vn -0.987496827 0.147044309 0.0568153796
vn -0.930043572 0.320692477 0.179374719
vn -0.879290241 0.416972985 0.230178632
vn -0.981813368 0.166694747 0.0908590785
vn -0.907098974 0.247346306 0.340574892
vn -0.840517433 0.35778441 0.406842427
vn -0.944673491 0.105302039 0.310650087
vn 1.03097547e-07 -0.998659646 -0.0517581993
vn 1.03097547e-07 -0.998659646 -0.0517581993
vn 1.03097547e-07 -0.998659646 -0.0517581993
vn 0 -0.998072532 0.0620582069
vn -0.732776472 -0.680468921 0.00083089713
vn -0.75630469 -0.642456309 0.123503472
vn 0 -1 -2.60424727e-16
vn 0 -0.151753228 0.988418412
vn -0.971373669 -0.237554165 0.00110144311
vn -0.97084467 -0.239693717 0.00274740636
vn 0 0 1
vn 0 0 1
vn -0.322409742 -0.276632938 0.90527685
vn -0.778757587 -0.3088351 0.546038003
vn 0 -0.811476405 0.584385185
vn 0.96659432 -0.249182941 0.0600273492
vn 0.778757577 -0.308835227 0.546037946
vn 0.955783841 -0.261649187 0.134227242
vn 0.971373668 -0.237554172 0.00110139144
vn 0.971242285 -0.238093311 6.7896858e-08
vn 0.733345864 0.679855752 3.77430241e-16
vn 0 1 5.53688482e-16
vn 0 1 5.53688482e-16
vn 0.733345864 0.679855752 3.78432182e-16
vn 0.943941508 0.330112752 1.84069299e-16
vn 0.943941508 0.330112752 1.82779628e-16
vn -0.943941486 0.330112815 1.84069314e-16
vn -0.943941486 0.330112815 1.84069314e-16
vn -0.943941486 0.330112815 1.82779663e-16
vn -0.943941486 0.330112815 1.85358965e-16
vn 0 0 -1
vn 0 0 -1
vn 0 0 -1
vn 0 0 -1
vn -0.608229565 0.793761171 -1.43942935e-08
vn 0.608229495 0.793761225 1.91923901e-08
vn -0.570318668 0.821423531 -1.05958182e-08
vn 0.570318595 0.821423582 4.65644263e-16
vn 0.878679051 0.47741295 2.77262958e-08
vn 0.878679073 0.477412911 4.8186507e-08
vn -0.87867914 0.477412788 -2.07947235e-08
vn -0.878679142 0.477412783 -2.40932551e-08
vn 1 -7.61207102e-08 1.63842586e-08
vn 1 -7.61044532e-08 1.4957007e-08
vn 1 -6.92602437e-08 1.73751971e-08
vn 1 -7.24339251e-08 2.06333194e-08
vn 1 -6.31501722e-08 1.89807217e-08
vn 1 -6.40486061e-08 2.46521926e-08
vn 1 -8.78379188e-08 3.3808656e-08
vn -0.827139985 0.547662172 -0.126117368
vn -0.941815062 -0.295722633 0.159788962
vn -0.905139312 -0.0848828559 -0.416554589
vn -0.806930735 -0.383427766 0.449272677
vn 9.23360144e-08 -0.859290862 0.511487258
vn 4.85969996e-08 -0.668815418 0.743428501
vn -0.757445818 -0.552712418 0.347541099
vn 0 -0.977305868 0.211833049
vn -0.343911528 -0.913724438 -0.216408207
vn 0 -0.500277534 -0.86586511
vn 0 -1 -2.51894116e-16
vn 4.03261852e-08 -0.500374242 0.865809227
vn -0.439593645 0.88687525 0.142160892
vn -5.33228805e-08 0.99245921 -0.122575353
vn -1.01605812e-08 0.181546502 -0.983382361
vn 0 0.507018652 -0.861935082
vn 0 -0.500277534 -0.86586511
vn -5.37280324e-08 1 -7.06988365e-16
vn 0.52992638 0.84804365 0
vn 0.315470773 0.948935293 0
vn 0.268240081 0.958152713 -0.0999531759
vn 0.662124641 0.749392177 0.00152471417
vn 0.650673606 0.736718534 -0.184037116
vn 0.952282197 0.305216118 0.00131860928
vn 0.663241194 0.74795408 -0.0259963922
vn 0.981132122 0.193338458 1.39786324e-07
vn 0.884429376 0.466424757 -0.0152520613
vn 0.666326857 0.381616336 -0.640607127
vn 0.289093783 0.957300781 2.29646417e-16
vn -7.26265965e-09 0.989244616 -0.146270604
vn 0 1 3.27558866e-16
vn 0.947469018 0.319704974 -0.00954932566
vn 0.651623764 -0.755614365 0.0665837892
vn 0.83632138 -0.493915472 0.237937083
vn 0.597393223 -0.801948463 -1.77645827e-16
vn -1.01754437e-07 0.209444795 -0.977820473
vn -1.04957106e-07 -9.11954878e-15 -1
vn -1.08637991e-07 1.21888193e-08 -1
vn 1.3023913e-23 1 2.39767191e-16
vn 0 0.991445631 -0.130520343
vn 0 0.31818149 -0.94802982
vn 9.33886568e-08 -0.9529912 0.302997975
vn 7.89502757e-08 -0.997768353 -0.0667706059
vn 0.922288762 -0.369918753 -0.111998018
vn 4.06832373e-08 -0.913545501 -0.406736545
vn 0.351579814 -0.927896251 -0.124097467
vn 0.999887966 0.0144864783 -0.00376804235
vn 0.778056848 0.567335721 0.269736391
vn 0.900149538 0.425906316 -0.0912941363
vn 0.993764577 0.111498726 -7.96438298e-07
vn 0.802504156 0.239989025 0.546253007
vn 0.993764133 0.111502681 8.14135956e-07
vn 0.998851643 -0.0479093517 0.000299430066
vn 0 1 7.19301874e-16
vn 0 0.778639858 -0.627471093
vn 5.98466345e-08 -0.994554313 0.10421957
vn 7.76581761e-08 -0.981438904 0.191775071
vn -4.0848035e-08 0.53448421 0.84517846
vn 0 0.393918395 -0.919145417
vn 0 0.393919677 -0.919144868
vn 0 0.393923472 -0.919143241
vn 0.546297938 0.764148362 0.342980822
vn 0.546297938 0.764148362 0.342980822
vn 0.587443292 0.729352148 0.350650569
vn -5.81240999e-08 0.755688948 0.654930694
vn -3.31262823e-08 0.906496047 0.422214302
vn 3.00395419e-08 -0.390553141 0.920580384
vn 0 0.191468853 0.98149869
vn 0 0.941022058 0.338345219
vn 0 0.50979805 0.860294106
vn 2.93594298e-08 -0.151320211 0.988484797
vn 4.89638548e-08 -0.422029235 0.906582222
vn 7.95329027e-08 -0.42203594 0.9065791
vn -0.529923855 0.848045228 -9.23221345e-09
vn -0.315467771 0.948936292 -3.40927117e-09
vn -0.662123484 0.749393199 0.00152472802
vn -0.315467789 0.948936286 0
vn -0.802423675 0.596752387 0.00168353474
vn -0.95228219 0.305216141 0.0013186208
vn -0.993764452 0.111499836 1.59356402e-07
vn -0.99376446 0.111499768 7.14586682e-08
vn -0.993764475 0.111499633 -4.32770302e-08
vn -0.995053728 0.0993344564 -0.00086230114
vn -0.995694079 0.0921124583 -0.0104209536
vn -0.993764522 0.111499213 -3.99523017e-07
vn -0.993764761 0.111497082 2.71359351e-17
vn -0.997565841 0.0690022123 -0.0100542648
vn -0.998501451 0.0529463357 -0.013839693
vn -0.997868282 0.0652601843 1.73745077e-17
vn -0.993764443 0.111499919 2.1181497e-07
vn -0.993764449 0.111499867 -7.80609441e-09
vn -0.999887965 0.0144865159 -0.00376805035
vn -0.993764534 0.111499111 -6.81273057e-07
vn -0.872209907 0.460650174 0.164472781
vn -0.698025691 0.65786055 0.282806702
vn -0.546296359 0.764149265 0.342981325
vn -0.58744145 0.729353373 0.350651109
vn -0.999781341 -0.0202774638 -0.00510832981
vn -0.99885165 -0.047909208 0.000299400746
vn 8.93075887e-08 -0.99039476 0.138268652
vn 7.91268573e-08 -1 -2.23595001e-16
vn 0 0.296399593 -0.955064019
vn 0 0.83434662 -0.551240163
vn 0 0 -1
vn 0 0 -1
vn 0 0 1
vn 0 0 1
vn 0 0 1
vn 0 0 1
vn 0 0 1
vn 0 0 1
vn 0 0 1
vn 1 -7.46219032e-08 1.60467561e-08
vn 0.553399903 -0.823315017 0.126098886
vn 0.648269942 -0.748637964 0.138878654
vn 0.799664428 -0.600445837 0.00126483561
vn 8.72701096e-08 -0.999997782 0.00210640302
vn 1.29979576e-07 -0.900657704 0.434529286
vn 1.1605017e-07 -0.998734381 0.0502954843
vn 0.803724875 -0.592195751 -0.057710636
vn 1.05283766e-07 -0.946972563 -0.321314434
vn 0.407175471 -0.761361255 -0.504516775
vn 5.67204933e-08 -0.976279598 -0.216513619
vn 0.772798647 -0.634456313 0.0157301905
vn 5.80986159e-08 -1 -2.01132034e-16
vn 0.986597794 -6.34528913e-08 0.163171054
vn 1 -5.27911304e-08 1.43973556e-08
vn 5.60515034e-08 -0.964764867 0.263113571
vn 5.60515034e-08 -0.964764867 0.263113571
vn 0 0 1
vn 8.11317233e-09 -0.139644847 0.990201655
vn 1.52282868e-08 -0.262111009 0.965037729
vn 5.60515034e-08 -0.964764867 0.263113571
vn -1 6.56385165e-08 -1.06947663e-08
vn -1 5.75531008e-08 -6.30717958e-09
vn -1 7.19879797e-08 9.65272586e-24
vn -1 6.43148445e-08 -1.07618413e-08
vn -1 7.46218931e-08 -1.60467553e-08
vn -1 6.35567838e-08 -6.22322379e-09
vn -1 9.38650075e-08 -2.63105271e-08
vn -1 9.9186309e-08 -4.73252854e-08
vn -1 5.27911276e-08 -1.43973548e-08
vn 0.938977105 -5.9631176e-08 -0.343979644
vn 0.9138038 -0.406155899 2.40208096e-08
vn 0.773495025 -5.92269365e-08 0.633802371
vn 0.981014573 0.172463403 -0.0886948833
vn 0.654196412 0.672591216 -0.34590188
vn 0 0.395188603 -0.918600004
vn 0 0.640185414 -0.768220434
vn 0.248845656 -0.968543153 -2.35302569e-16
vn 0 -1 -2.42944848e-16
vn 0 -1 -2.42944848e-16
vn 0 0 -1
vn 0 0 -1
vn 0 0 -1
vn 0 0 -1
vn 0 0 -1
vn 0 0 1
vn 0 0 1
vn 0 0 1
vn -1 5.94059989e-08 -1.75082592e-08
vn -1 5.99036034e-08 -8.49022753e-09
vn -1 0 4.28555217e-08
vn -1 6.43109357e-08 -1.0580421e-08
vn -1 6.35065282e-08 -9.60263433e-09
vn -1 6.69992279e-08 1.31359299e-23
vn 0.974716072 0.223447041 1.09189994e-08
vn 0.980835354 -0.194838418 1.18946494e-08
vn 0.976880597 0.213785639 1.08456141e-08
vn 0.971517906 -0.23382366 -0.0384636751
vn 3.29747033e-07 -0.995988549 -0.0894807852
vn 9.6520664e-08 -0.583074092 -0.812418982
vn 3.31075125e-07 -1 4.19927526e-15
vn 0 1 2.48155574e-16
vn 0 1 2.48155574e-16
vn 1 -7.82044753e-08 -1.04271579e-08
vn 0 0 -1
vn 0 -0.352667803 -0.935748588
vn 0 0 -1
vn 0 -0.716596039 -0.697488435
vn -1 5.99961772e-08 -1.41096846e-08
vn -1 6.62159207e-08 -1.13121496e-08
vn -1 7.82044753e-08 1.04271682e-08
vn -1 5.92176313e-08 -1.51588252e-08
vn -1 5.43406634e-08 -1.66534387e-08
vn -0.676150863 0.736763198 1.61767266e-07
vn -0.500006121 0.86602187 7.97551242e-06
vn -0.292625469 0.956004543 -0.0206312455
vn -0.315059433 0.949071943 -7.1445019e-09
vn 0.865004786 0.499403049 -0.0486139427
vn 0.504956987 0.291537011 -0.812418988
vn 0.866028589 0.499994484 1.04104448e-16
vn -0.673582502 0.739112044 -8.35269645e-09
vn -0.866023222 -0.50000378 -1.6256085e-08
vn -0.866023148 -0.500003907 -2.18751148e-08
vn -2.24156291e-16 2.7189242e-15 -1
vn 0.30542038 0.176337315 -0.935747585
vn -2.46679099e-15 4.27253758e-15 -1
vn 0.620587423 0.358301959 -0.697489037
vn 0.499998819 -0.866026085 1.67400584e-07
vn 0.499998771 -0.866026114 3.30591978e-07
vn 0.499995566 -0.866027964 7.0409912e-06
vn 0.499998896 -0.866026041 6.6336438e-09
vn 0.499998866 -0.866026059 1.26296074e-08
vn 0.218047813 -0.377666673 0.899901681
vn 0.218047813 -0.377666673 0.899901681
vn 0.218048234 -0.37766826 0.899900913
vn 0.218047391 -0.377665086 0.899902449
vn 0.676151071 0.736763008 1.63863542e-07
vn 0.292625606 0.9560045 -0.0206313041
vn 0.500005918 0.866021987 6.89786828e-06
vn 0.315059562 0.9490719 7.1445054e-09
vn -0.865003908 0.499404566 -0.0486139865
vn -0.504956692 0.291537709 -0.812418921
vn -0.866028015 0.499995477 1.04104596e-16
vn 0.673582714 0.73911185 8.35269936e-09
vn 0.866022313 -0.500005353 1.62560678e-08
vn 0.866022387 -0.500005226 2.18750954e-08
vn 2.24156319e-16 2.71892609e-15 -1
vn -0.305420421 0.176337456 -0.935747545
vn 2.46679159e-15 4.27254094e-15 -1
vn -0.620587451 0.358302212 -0.697488883
vn -0.49999881 -0.866026091 1.77129289e-07
vn -0.499995029 -0.866028274 8.03391693e-06
vn -0.499998686 -0.866026163 3.77211991e-07
vn -0.499998899 -0.86602604 -6.63364246e-09
vn -0.499998929 -0.866026022 -1.26296094e-08
vn -0.218044308 -0.377663054 0.899904049
vn -0.218044308 -0.377663054 0.899904049
vn -0.218045216 -0.377666472 0.899902395
vn -0.2180434 -0.377659637 0.899905703
vn 0 0 -1
vn 0 0 -1
vn 0 0 -1
vn 0 0 -1
vn -0.74268471 0.611795735 -0.272259802
vn 0.611952686 0.784849135 -0.0975999305
vn -0.855039497 0.510534808 -0.0908937256
vn 0.742957782 0.608483421 -0.278857778
vn 0.834515955 -0.543287381 -0.091771142
vn 0.690772827 -0.667754366 -0.277375212
vn -0.638768087 -0.759051279 -0.125763617
vn -0.793314918 -0.500738369 -0.34628388
vn 0.0868605049 0.996220484 2.72450307e-16
vn -0.972591741 0.232519473 -1.52614081e-08
vn 0.990212066 -0.139571 4.42453873e-08
vn -0.062870653 -0.998021684 5.63857261e-09
vn 0 6.55053453e-16 -1
vn 6.69031937e-16 6.55053409e-16 -1
vn 0 6.55053453e-16 -1
vn -6.69029718e-16 6.55053497e-16 -1
vn 0.680807344 0.688906977 -0.248814264
vn 0.959838107 -0.275619397 -0.052390425
vn 0.656405872 0.754404651 -0.00222566026
vn 0.856533178 -0.396287388 -0.330616425
vn 0.633990393 -0.771292619 -0.0562483561
vn 0.630666918 -0.743727826 -0.221648729
vn 0.930461983 0.365912969 0.0186600319
vn 0.604166561 0.795823932 0.0405836879
vn 0.633709513 -0.773571104 2.32183475e-09
vn -0.680806274 0.688908 -0.24881436
vn -0.959837955 -0.275619911 -0.0523905066
vn -0.856532705 -0.396288105 -0.330616792
vn -0.656404856 0.754405535 -0.00222567279
vn -0.633989408 -0.771293426 -0.0562483879
vn -0.630665693 -0.743728766 -0.221649061
vn -0.930461615 0.365913904 0.0186600659
vn -0.604165542 0.795824704 0.0405837096
vn -0.633708562 -0.773571883 -2.32183161e-09
vn 0 0 -1
vn 0 0 -1
vn 0 0 -1
vn 0 0 -1
vn 0.742684303 0.611796298 -0.272259649
vn -0.611952053 0.784849627 -0.0975999427
vn -0.742957243 0.608484027 -0.278857892
vn 0.855039411 0.510534957 -0.0908936945
vn -0.834515962 -0.543287359 -0.0917712115
vn -0.690772822 -0.667754344 -0.277375278
vn 0.6387673 -0.759051961 -0.1257635
vn 0.793314122 -0.500739992 -0.346283357
vn -0.0868604898 0.996220485 2.72450061e-16
vn 0.972591936 0.232518657 3.81535312e-09
vn -0.990212085 -0.139570869 -4.42453868e-08
vn 0.0628707179 -0.99802168 -1.34291587e-08
vn -0.84196411 0.520818858 0.140869286
vn -0.721763033 0.428550578 0.543509454
vn -0.847292654 -0.226303315 0.480501788
vn -0.703858561 0.710192157 0.0144991428
vn -0.475278814 -0.735112242 0.483446006
vn -0.43179712 -0.414011827 0.801339787
vn -0.402867394 -0.176754833 0.898028725
vn -0.269739109 -0.732089 0.625528983
vn -0.918718775 -0.318184 0.23391185
vn -0.877470424 0.479039869 -0.0238003801
vn -0.984253487 0.101829614 0.14448461
vn -0.233889834 -0.972129037 0.0161456122
vn -0.0442963982 -0.558014532 0.828648062
vn -0.691969418 -0.68047262 0.241112709
vn -0.821027222 0.55969213 -0.112512311
vn -0.93726441 -0.324700237 -0.126906194
vn -0.352209843 -0.931566929 -0.0901736243
vn -0.270450117 -0.959399265 -0.080061135
vn -0.183989314 0.719803737 -0.669350815
vn -0.302286365 -0.212067346 -0.929327926
vn 0.523398137 -0.629772465 -0.57396954
vn 0.580872519 -0.669185859 -0.46344083
vn -0.0248889392 -0.552838269 0.832916796
vn -0.00989235006 0.897718472 -0.440458496
vn -0.620116423 0.738406642 -0.264974063
vn -0.889467122 0.417327005 -0.186242879
vn -0.418648965 -0.908148052 -0.000399988571
vn -0.418338859 -0.908291032 -1.07407075e-08
vn -0.73201012 0.678452047 -0.0621611105
vn -0.699012089 0.715109851 9.14621549e-07
vn 0.841964082 0.520819078 0.140868635
vn 0.652184529 0.452648234 0.608082985
vn 0.665929108 0.73516921 0.126746425
vn 0.847292582 -0.226303524 0.480501817
vn 0.475279162 -0.735112582 0.483445147
vn 0.431798109 -0.414011996 0.801339167
vn 0.204080944 0.192956767 0.959749266
vn 0.269737323 -0.732089429 0.625529251
vn 0.918718523 -0.318184383 0.233912321
vn 0.547281984 0.794624544 -0.262781781
vn 0.984253486 0.101829706 0.144484555
vn 0.233888629 -0.972129309 0.0161467072
vn 0.0442965332 -0.558014482 0.828648089
vn 0.691969877 -0.680472263 0.241112399
vn 0.821027088 0.559692298 -0.112512455
vn 0.937264434 -0.324700477 -0.126905406
vn 0.352209886 -0.931566917 -0.090173581
vn 0.243538205 -0.95358216 -0.177116364
vn 0.183989303 0.719805226 -0.669349216
vn 0.30228784 -0.212068517 -0.929327179
vn -0.523397732 -0.629772435 -0.573969943
vn -0.308415952 -0.551755772 -0.774883971
vn 0.0248890498 -0.552838269 0.832916792
vn 0.00670367453 0.822401158 -0.568868522
vn 0.620115706 0.738407171 -0.264974264
vn 6.20736094e-08 -0.595453712 -0.803389617
vn 2.9711298e-08 -0.348234744 -0.937407362
vn 0.383615073 -0.920973973 -0.0681646302
vn 0.418339427 -0.90829077 1.07407215e-08
vn 0.22826528 0.964147883 -0.135328571
vn 0 0.982606713 -0.185698808
vn 0 0.959272051 -0.282483863
vn 0 0.516957023 -0.856011353
vn 0.717543362 0.695689314 -0.0338807099
vn -0.00179457337 0.488321293 0.872662073
vn 0 0.999998011 0.00199469418
vn -0.723893212 0.688505144 0.044037299
vn -0.816070827 0.573803592 -0.0691219473
vn 0 0.998824274 0.0484775112
vn -0.867381537 0.476041314 -0.145030814
vn -0.810168602 -0.433078844 -0.39505639
vn -0.741984864 -0.301720268 -0.598684676
vn -0.869902445 0.487378787 -0.0757076939
vn -0.952911007 0.126071563 0.275801691
vn -0.459211298 -0.134699007 0.87805533
vn -0.651043999 -0.604592614 0.458922088
vn -0.695713331 -0.709957687 -0.109284234
vn 0.718501785 0.692976143 0.0594915896
vn 0 0.519706663 0.854344769
vn 0.808826414 0.570911678 -0.140924408
vn 0.428689103 -0.0846202481 0.899480442
vn 0.867381033 0.476042611 -0.145029568
vn 0.810169396 -0.433078628 -0.395054999
vn 0.741982831 -0.301725682 -0.598684468
vn 0.869903026 0.487377838 -0.0757071164
vn 0.95291116 0.126072807 0.275800595
vn 0.651046163 -0.604590557 0.458921728
vn 0.695712529 -0.709958372 -0.109284893
vn 0 0.110342032 -0.993893674
vn 0.113640134 0.109627226 -0.98745521
vn -0.113639319 0.109627252 -0.987455301
vn -0.113639319 0.109627252 -0.987455301

g gun30_submesh_0
usemtl Passer-Standard_2
f 1/1/1 3/3/3 2/2/2
f 1/1/1 2/2/2 4/4/4
f 3/3/3 1/1/1 5/5/5
f 3/3/3 5/5/5 6/6/6
f 1/1/1 4/4/4 7/7/7
f 1/1/1 7/7/7 8/8/8
f 8/8/8 7/7/7 9/9/9
f 8/8/8 9/9/9 10/10/10
f 4/4/4 12/12/12 11/11/11
f 13/13/13 14/14/14 11/11/11
f 13/13/13 11/11/11 15/15/15
f 14/14/14 16/16/16 12/12/12
f 16/16/16 17/17/17 12/12/12
f 16/16/16 18/18/18 17/17/17
f 19/19/19 21/21/21 20/20/20
f 19/19/19 20/20/20 22/22/22
f 23/23/23 25/25/25 24/24/24
f 23/23/23 24/24/24 26/26/26
f 27/27/27 23/23/23 26/26/26
f 27/27/27 28/28/28 23/23/23
f 28/28/28 27/27/27 29/29/29
f 26/26/26 24/24/24 30/30/30
f 26/26/26 30/30/30 31/31/31
f 27/27/27 26/26/26 31/31/31
f 27/27/27 31/31/31 32/32/32
f 29/29/29 27/27/27 32/32/32
f 29/29/29 32/32/32 33/33/33
f 31/31/31 30/30/30 34/34/34
f 31/31/31 34/34/34 35/35/35
f 32/32/32 31/31/31 35/35/35
f 32/32/32 35/35/35 36/36/36
f 33/33/33 32/32/32 36/36/36
f 36/36/36 35/35/35 34/34/34
f 33/33/33 36/36/36 37/37/37
f 36/36/36 38/38/38 37/37/37
f 36/36/36 39/39/39 38/38/38
f 36/36/36 34/34/34 39/39/39
f 40/40/40 37/37/37 41/41/41
f 42/42/42 44/44/44 43/43/43
f 42/42/42 43/43/43 45/45/45
f 44/44/44 42/42/42 46/46/46
f 43/43/43 44/44/44 47/47/47
f 43/43/43 47/47/47 48/48/48
f 44/44/44 46/46/46 49/49/49
f 44/44/44 49/49/49 47/47/47
f 48/48/48 47/47/47 50/50/50
f 48/48/48 50/50/50 51/51/51
f 47/47/47 49/49/49 52/52/52
f 47/47/47 52/52/52 50/50/50
f 53/53/53 55/55/55 54/54/54
f 56/56/56 58/58/58 57/57/57
f 56/56/56 57/57/57 59/59/59
f 58/58/58 56/56/56 60/60/60
f 61/61/61 57/57/57 58/58/58
f 61/61/61 62/62/62 57/57/57
f 60/60/60 64/64/64 63/63/63
f 60/60/60 63/63/63 65/65/65
f 58/58/58 65/65/65 66/66/66
f 67/67/67 60/60/60 65/65/65
f 68/68/68 70/70/70 69/69/69
f 71/71/71 70/70/70 68/68/68
f 71/71/71 68/68/68 72/72/72
f 73/73/73 75/75/75 74/74/74
f 73/73/73 74/74/74 76/76/76
f 77/77/77 73/73/73 76/76/76
f 77/77/77 78/78/78 73/73/73
f 79/79/79 81/81/81 80/80/80
f 79/79/79 80/80/80 82/82/82
f 83/83/83 85/85/85 84/84/84
f 83/83/83 84/84/84 86/86/86
f 87/87/87 89/89/89 88/88/88
f 87/87/87 88/88/88 90/90/90
f 91/91/91 90/90/90 88/88/88
f 91/91/91 88/88/88 92/92/92
f 93/93/93 89/89/89 87/87/87
f 93/93/93 87/87/87 94/94/94
f 95/95/95 97/97/97 96/96/96
f 95/95/95 96/96/96 98/98/98
f 95/95/95 98/98/98 99/99/99
f 98/98/98 100/100/100 99/99/99
f 98/98/98 101/101/101 100/100/100
f 102/102/102 104/104/104 103/103/103
f 102/102/102 103/103/103 105/105/105
f 103/103/103 106/106/106 105/105/105
f 103/103/103 107/107/107 106/106/106
f 108/108/108 107/107/107 103/103/103
f 104/104/104 108/108/108 103/103/103
f 108/108/108 109/109/109 107/107/107
f 110/110/110 109/109/109 108/108/108
f 104/104/104 110/110/110 108/108/108
f 104/104/104 111/111/111 110/110/110
f 110/110/110 112/112/112 109/109/109
f 105/105/105 106/106/106 113/113/113
f 105/105/105 113/113/113 114/114/114
f 102/102/102 105/105/105 114/114/114
f 114/114/114 115/115/115 102/102/102
f 102/102/102 115/115/115 116/116/116
f 117/117/117 116/116/116 104/104/104
f 104/104/104 116/116/116 118/118/118
f 114/114/114 119/119/119 115/115/115
f 120/120/120 122/122/122 121/121/121
f 120/120/120 121/121/121 123/123/123
f 124/124/124 120/120/120 123/123/123
f 124/124/124 123/123/123 125/125/125
f 126/126/126 124/124/124 125/125/125
f 126/126/126 125/125/125 127/127/127
f 128/128/128 126/126/126 127/127/127
f 128/128/128 129/129/129 126/126/126
f 129/129/129 130/130/130 126/126/126
f 129/129/129 128/128/128 131/131/131
f 128/128/128 132/132/132 131/131/131
f 128/128/128 133/133/133 132/132/132
f 133/133/133 128/128/128 134/134/134
f 133/133/133 134/134/134 135/135/135
f 133/133/133 135/135/135 136/136/136
f 129/129/129 131/131/131 137/137/137
f 138/138/138 129/129/129 137/137/137
f 138/138/138 137/137/137 139/139/139
f 126/126/126 130/130/130 140/140/140
f 126/126/126 140/140/140 141/141/141
f 124/124/124 126/126/126 141/141/141
f 124/124/124 141/141/141 142/142/142
f 135/135/135 134/134/134 143/143/143
f 134/134/134 144/144/144 143/143/143
f 134/134/134 145/145/145 144/144/144
f 145/145/145 146/146/146 144/144/144
f 145/145/145 147/147/147 146/146/146
f 148/148/148 147/147/147 145/145/145
f 149/149/149 148/148/148 145/145/145
f 150/150/150 149/149/149 145/145/145
f 150/150/150 151/151/151 149/149/149
f 150/150/150 152/152/152 151/151/151
f 150/150/150 153/153/153 152/152/152
f 127/127/127 150/150/150 145/145/145
f 148/148/148 154/154/154 147/147/147
f 150/150/150 127/127/127 155/155/155
f 150/150/150 155/155/155 156/156/156
f 147/147/147 157/157/157 146/146/146
f 147/147/147 158/158/158 157/157/157
f 158/158/158 159/159/159 157/157/157
f 160/160/160 150/150/150 156/156/156
f 160/160/160 156/156/156 161/161/161
f 162/162/162 160/160/160 161/161/161
f 163/163/163 164/164/164 152/152/152
f 163/163/163 165/165/165 164/164/164
f 166/166/166 167/167/167 159/159/159
f 168/168/168 166/166/166 159/159/159
f 149/149/149 169/169/169 167/167/167
f 170/170/170 149/149/149 167/167/167
f 171/171/171 172/172/172 169/169/169
f 172/172/172 173/173/173 169/169/169
f 172/172/172 152/152/152 173/173/173
f 152/152/152 174/174/174 173/173/173
f 175/175/175 177/177/177 176/176/176
f 175/175/175 176/176/176 178/178/178
f 179/179/179 177/177/177 175/175/175
f 179/179/179 180/180/180 177/177/177
f 181/181/181 180/180/180 179/179/179
f 181/181/181 182/182/182 180/180/180
f 183/183/183 182/182/182 181/181/181
f 183/183/183 184/184/184 182/182/182
f 183/183/183 185/185/185 184/184/184
f 183/183/183 181/181/181 186/186/186
f 186/186/186 181/181/181 187/187/187
f 188/188/188 185/185/185 183/183/183
f 188/188/188 189/189/189 185/185/185
f 188/188/188 190/190/190 189/189/189
f 184/184/184 191/191/191 182/182/182
f 191/191/191 184/184/184 192/192/192
f 192/192/192 184/184/184 193/193/193
f 191/191/191 192/192/192 194/194/194
f 191/191/191 194/194/194 195/195/195
f 191/191/191 195/195/195 196/196/196
f 196/196/196 195/195/195 197/197/197
f 196/196/196 197/197/197 198/198/198
f 193/193/193 184/184/184 199/199/199
f 193/193/193 199/199/199 200/200/200
f 135/135/135 143/143/143 201/201/201
f 136/136/136 135/135/135 201/201/201
f 136/136/136 201/201/201 202/202/202
f 122/122/122 204/204/204 203/203/203
f 205/205/205 142/142/142 203/203/203
f 205/205/205 206/206/206 142/142/142
f 207/207/207 209/209/209 208/208/208
f 210/210/210 207/207/207 208/208/208
f 210/210/210 208/208/208 211/211/211
f 212/212/212 210/210/210 211/211/211
f 212/212/212 211/211/211 213/213/213
f 128/128/128 127/127/127 145/145/145
f 128/128/128 145/145/145 134/134/134
f 214/214/214 216/216/216 215/215/215
f 214/214/214 215/215/215 217/217/217
f 215/215/215 218/218/218 217/217/217
f 215/215/215 219/219/219 218/218/218
f 216/216/216 219/219/219 215/215/215
f 216/216/216 220/220/220 219/219/219
f 221/221/221 220/220/220 216/216/216
f 214/214/214 221/221/221 216/216/216
f 221/221/221 222/222/222 220/220/220
f 223/223/223 222/222/222 221/221/221
f 223/223/223 224/224/224 222/222/222
f 225/225/225 224/224/224 223/223/223
f 225/225/225 223/223/223 221/221/221
f 225/225/225 226/226/226 224/224/224
f 214/214/214 227/227/227 221/221/221
f 225/225/225 221/221/221 227/227/227
f 228/228/228 225/225/225 227/227/227
f 229/229/229 230/230/230 225/225/225
f 231/231/231 232/232/232 227/227/227
f 231/231/231 233/233/233 232/232/232
f 232/232/232 233/233/233 234/234/234
f 235/235/235 237/237/237 236/236/236
f 235/235/235 236/236/236 238/238/238
f 239/239/239 235/235/235 238/238/238
f 239/239/239 240/240/240 235/235/235
f 239/239/239 241/241/241 240/240/240
f 239/239/239 242/242/242 241/241/241
f 236/236/236 243/243/243 238/238/238
f 244/244/244 246/246/246 245/245/245
f 244/244/244 245/245/245 247/247/247
f 245/245/245 248/248/248 247/247/247
f 248/248/248 249/249/249 247/247/247
f 248/248/248 250/250/250 249/249/249
f 245/245/245 251/251/251 248/248/248
f 245/245/245 252/252/252 251/251/251
f 245/245/245 253/253/253 252/252/252
f 254/254/254 249/249/249 255/255/255
f 254/254/254 255/255/255 244/244/244
f 256/256/256 257/257/257 250/250/250
f 256/256/256 250/250/250 258/258/258
f 259/259/259 260/260/260 246/246/246
f 259/259/259 261/261/261 260/260/260
f 262/262/262 264/264/264 263/263/263
f 262/262/262 263/263/263 265/265/265
f 266/266/266 262/262/262 265/265/265
f 266/266/266 265/265/265 267/267/267
f 268/268/268 270/270/270 269/269/269
f 268/268/268 269/269/269 271/271/271
f 272/272/272 271/271/271 269/269/269
f 273/273/273 271/271/271 272/272/272
f 272/272/272 269/269/269 274/274/274
f 275/275/275 270/270/270 268/268/268
f 275/275/275 268/268/268 276/276/276
f 268/268/268 271/271/271 277/277/277
f 278/278/278 279/279/279 273/273/273
f 278/278/278 280/280/280 279/279/279
f 273/273/273 279/279/279 281/281/281
f 282/282/282 284/284/284 283/283/283
f 282/282/282 283/283/283 285/285/285
f 282/282/282 285/285/285 286/286/286
f 287/287/287 289/289/289 288/288/288
f 287/287/287 290/290/290 289/289/289
f 291/291/291 289/289/289 290/290/290
f 292/292/292 289/289/289 291/291/291
f 291/291/291 290/290/290 293/293/293
f 287/287/287 294/294/294 290/290/290
f 295/295/295 294/294/294 287/287/287
f 295/295/295 287/287/287 296/296/296
f 297/297/297 298/298/298 292/292/292
f 297/297/297 299/299/299 298/298/298
f 292/292/292 298/298/298 300/300/300
f 301/301/301 303/303/303 302/302/302
f 301/301/301 302/302/302 304/304/304
f 301/301/301 304/304/304 305/305/305
f 306/306/306 308/308/308 307/307/307
f 306/306/306 307/307/307 309/309/309
f 310/310/310 312/312/312 311/311/311
f 310/310/310 311/311/311 313/313/313
f 314/314/314 313/313/313 311/311/311
f 315/315/315 314/314/314 311/311/311
f 314/314/314 316/316/316 313/313/313
f 310/310/310 313/313/313 317/317/317
f 318/318/318 310/310/310 317/317/317
f 318/318/318 319/319/319 310/310/310
f 320/320/320 315/315/315 321/321/321
f 320/320/320 321/321/321 322/322/322
f 315/315/315 323/323/323 321/321/321
f 324/324/324 326/326/326 325/325/325
f 324/324/324 327/327/327 326/326/326
f 324/324/324 328/328/328 327/327/327
f 329/329/329 331/331/331 330/330/330
f 329/329/329 330/330/330 332/332/332
f 333/333/333 335/335/335 334/334/334
f 333/333/333 334/334/334 336/336/336
f 337/337/337 339/339/339 338/338/338
f 337/337/337 338/338/338 340/340/340
f 340/340/340 338/338/338 341/341/341
f 340/340/340 341/341/341 342/342/342
f 342/342/342 341/341/341 343/343/343
f 342/342/342 343/343/343 344/344/344
f 344/344/344 343/343/343 339/339/339
f 344/344/344 339/339/339 337/337/337
f 339/339/339 345/345/345 338/338/338
f 339/339/339 346/346/346 345/345/345
f 343/343/343 346/346/346 339/339/339
f 338/338/338 345/345/345 347/347/347
f 338/338/338 347/347/347 341/341/341
f 341/341/341 347/347/347 348/348/348
f 341/341/341 348/348/348 343/343/343
f 343/343/343 348/348/348 346/346/346
f 349/349/349 351/351/351 350/350/350
f 349/349/349 352/352/352 351/351/351
f 353/353/353 355/355/355 354/354/354
f 353/353/353 354/354/354 356/356/356
f 356/356/356 354/354/354 357/357/357
f 356/356/356 357/357/357 358/358/358
f 355/355/355 359/359/359 354/354/354
f 355/355/355 360/360/360 359/359/359
f 354/354/354 359/359/359 361/361/361
f 354/354/354 361/361/361 357/357/357
f 362/362/362 364/364/364 363/363/363
f 362/362/362 363/363/363 365/365/365
f 364/364/364 366/366/366 363/363/363
f 364/364/364 367/367/367 366/366/366
f 365/365/365 363/363/363 368/368/368
f 365/365/365 368/368/368 369/369/369
f 363/363/363 366/366/366 370/370/370
f 363/363/363 370/370/370 368/368/368
f 371/371/371 373/373/373 372/372/372
f 371/371/371 372/372/372 374/374/374
f 375/375/375 377/377/377 376/376/376
f 375/375/375 376/376/376 378/378/378
f 377/377/377 379/379/379 376/376/376
f 377/377/377 380/380/380 379/379/379
f 380/380/380 381/381/381 379/379/379
f 380/380/380 382/382/382 381/381/381
f 382/382/382 375/375/375 378/378/378
f 382/382/382 378/378/378 381/381/381
f 378/378/378 376/376/376 383/383/383
f 378/378/378 383/383/383 384/384/384
f 381/381/381 378/378/378 384/384/384
f 376/376/376 379/379/379 385/385/385
f 376/376/376 385/385/385 383/383/383
f 379/379/379 381/381/381 386/386/386
f 379/379/379 386/386/386 385/385/385
f 381/381/381 384/384/384 386/386/386
f 387/387/387 389/389/389 388/388/388
f 387/387/387 388/388/388 390/390/390
f 389/389/389 387/387/387 391/391/391
f 389/389/389 391/391/391 392/392/392
f 388/388/388 389/389/389 392/392/392
f 388/388/388 392/392/392 393/393/393
f 394/394/394 391/391/391 387/387/387
f 394/394/394 387/387/387 395/395/395
f 395/395/395 387/387/387 396/396/396
f 395/395/395 396/396/396 397/397/397
f 395/395/395 397/397/397 398/398/398
f 395/395/395 398/398/398 394/394/394
f 397/397/397 399/399/399 398/398/398
f 400/400/400 399/399/399 397/397/397
f 401/401/401 400/400/400 397/397/397
f 401/401/401 402/402/402 400/400/400
f 400/400/400 402/402/402 403/403/403
f 400/400/400 403/403/403 404/404/404
f 402/402/402 401/401/401 405/405/405
f 402/402/402 405/405/405 406/406/406
f 403/403/403 402/402/402 406/406/406
f 404/404/404 403/403/403 407/407/407
f 403/403/403 406/406/406 407/407/407
f 404/404/404 407/407/407 408/408/408
f 399/399/399 400/400/400 409/409/409
f 401/401/401 410/410/410 405/405/405
f 401/401/401 411/411/411 410/410/410
f 397/397/397 411/411/411 401/401/401
f 397/397/397 396/396/396 412/412/412
f 410/410/410 411/411/411 412/412/412
f 397/397/397 412/412/412 411/411/411
f 400/400/400 404/404/404 413/413/413
f 400/400/400 413/413/413 414/414/414
f 387/387/387 415/415/415 396/396/396
f 387/387/387 390/390/390 416/416/416
f 417/417/417 419/419/419 418/418/418
f 417/417/417 418/418/418 420/420/420
f 420/420/420 421/421/421 417/417/417
f 420/420/420 422/422/422 421/421/421
f 418/418/418 422/422/422 420/420/420
f 418/418/418 423/423/423 422/422/422
f 423/423/423 418/418/418 419/419/419
f 424/424/424 417/417/417 421/421/421
f 424/424/424 425/425/425 417/417/417
f 425/425/425 426/426/426 417/417/417
f 425/425/425 427/427/427 426/426/426
f 425/425/425 424/424/424 428/428/428
f 425/425/425 428/428/428 427/427/427
f 429/429/429 427/427/427 428/428/428
f 429/429/429 430/430/430 427/427/427
f 431/431/431 427/427/427 430/430/430
f 431/431/431 430/430/430 432/432/432
f 430/430/430 433/433/433 432/432/432
f 430/430/430 434/434/434 433/433/433
f 432/432/432 435/435/435 431/431/431
f 432/432/432 436/436/436 435/435/435
f 433/433/433 436/436/436 432/432/432
f 434/434/434 437/437/437 433/433/433
f 433/433/433 437/437/437 436/436/436
f 434/434/434 438/438/438 437/437/437
f 430/430/430 429/429/429 439/439/439
f 431/431/431 435/435/435 440/440/440
f 431/431/431 440/440/440 441/441/441
f 427/427/427 431/431/431 441/441/441
f 438/438/438 434/434/434 442/442/442
f 438/438/438 442/442/442 443/443/443
f 434/434/434 444/444/444 442/442/442
f 430/430/430 444/444/444 434/434/434
f 430/430/430 445/445/445 444/444/444
f 440/440/440 446/446/446 441/441/441
f 440/440/440 447/447/447 446/446/446
f 446/446/446 447/447/447 448/448/448
f 446/446/446 448/448/448 426/426/426
f 426/426/426 448/448/448 449/449/449
f 427/427/427 441/441/441 446/446/446
f 427/427/427 446/446/446 426/426/426
f 417/417/417 426/426/426 450/450/450
f 417/417/417 450/450/450 419/419/419
f 423/423/423 419/419/419 451/451/451
f 452/452/452 454/454/454 453/453/453
f 452/452/452 453/453/453 455/455/455
f 453/453/453 454/454/454 456/456/456
f 456/456/456 454/454/454 457/457/457
f 456/456/456 457/457/457 458/458/458
f 453/453/453 456/456/456 459/459/459
f 459/459/459 456/456/456 458/458/458
f 453/453/453 459/459/459 460/460/460
f 453/453/453 460/460/460 461/461/461
f 461/461/461 460/460/460 462/462/462
f 460/460/460 459/459/459 463/463/463
f 460/460/460 463/463/463 462/462/462
f 459/459/459 458/458/458 463/463/463
f 452/452/452 455/455/455 464/464/464
f 464/464/464 455/455/455 465/465/465
f 452/452/452 464/464/464 466/466/466
f 467/467/467 464/464/464 465/465/465
f 464/464/464 468/468/468 466/466/466
f 468/468/468 469/469/469 466/466/466
f 468/468/468 470/470/470 469/469/469
f 464/464/464 471/471/471 468/468/468
f 471/471/471 470/470/470 468/468/468
f 464/464/464 472/472/472 471/471/471
f 464/464/464 467/467/467 472/472/472
f 467/467/467 473/473/473 472/472/472
f 472/472/472 473/473/473 474/474/474
f 472/472/472 474/474/474 471/471/471
f 471/471/471 474/474/474 470/470/470
f 475/475/475 476/476/476 466/466/466
f 475/475/475 478/478/478 477/477/477
