# Generated from legacy Unity YAML Mesh assets without Unity.
mtllib gun37.mtl

o gun37
v 0.0509823784 0.119174801 0.149761319
v -0.0430780798 0.129110336 0.173077911
v -0.0509825647 0.119174801 0.149761319
v 0.0430778861 0.129110336 0.173077911
v -0.0430780984 0.0802848488 0.25975433
v 0.0430778675 0.0802848488 0.25975433
v 0.0427031368 0.111303777 0.132980376
v -0.0427033156 0.111303777 0.132980376
v 0.0430778451 0.00996943749 0.36750266
v -0.0430781208 0.00996943749 0.36750266
v -0.0430781282 -0.12543574 0.420077771
v 0.0430778377 -0.12543574 0.420077771
v -0.0579449311 -0.150912091 0.401129991
v 0.057944648 -0.150912091 0.401129991
v -0.0362181738 -0.221815422 0.336441487
v 0.036217913 -0.221815422 0.336441487
v 0.036217954 0.0191389844 0.122124821
v -0.0362181477 -0.0487489775 0.201604098
v 0.0362179391 -0.0487489775 0.201604098
v -0.0362181328 0.0191389844 0.122124821
v -0.0362181291 0.0419094004 0.11511448
v 0.0362179577 0.0419094004 0.11511448
v 0.0427031368 0.111303777 0.132980376
v -0.0427033156 0.111303777 0.132980376
v 0.0362179317 -0.160479099 0.244840413
v -0.0362181552 -0.160479099 0.244840413
v 0.036217913 -0.221815422 0.336441487
v -0.0362181738 -0.221815422 0.336441487
v -0.0362181328 0.0191389844 0.122124821
v -0.0582666621 0.0518150367 0.245161921
v -0.0362181477 -0.0487489775 0.201604098
v -0.0509825647 0.119174801 0.149761319
v -0.0430780984 0.0802848488 0.25975433
v -0.0430780798 0.129110336 0.173077911
v -0.0427033156 0.111303777 0.132980376
v -0.0362181291 0.0419094004 0.11511448
v -0.0592363365 -0.0173226297 0.34927395
v -0.0362181552 -0.160479099 0.244840413
v -0.0579449311 -0.150912091 0.401129991
v -0.0362181738 -0.221815422 0.336441487
v -0.0430781282 -0.12543574 0.420077771
v -0.0430781208 0.00996943749 0.36750266
v 0.036217954 0.0191389844 0.122124821
v 0.0582664385 0.0518150367 0.245161921
v 0.0509823784 0.119174801 0.149761319
v 0.0362179391 -0.0487489775 0.201604098
v 0.0430778675 0.0802848488 0.25975433
v 0.0430778861 0.129110336 0.173077911
v 0.0362179577 0.0419094004 0.11511448
v 0.0427031368 0.111303777 0.132980376
v 0.0592360683 -0.0173226297 0.34927395
v 0.0362179317 -0.160479099 0.244840413
v 0.057944648 -0.150912091 0.401129991
v 0.036217913 -0.221815422 0.336441487
v 0.0430778377 -0.12543574 0.420077771
v 0.0430778451 0.00996943749 0.36750266
v -0.0200898573 -0.0171359554 -0.00353601575
v -0.0200898573 0.00597852096 -0.00966474414
v -0.0200898629 0.00284828991 0.0225769281
v -0.0200898536 -0.00481263548 -0.0304150879
v -0.0373135507 0.101451539 -0.0653510392
v -0.0373135433 0.0770968795 -0.105557397
v -0.0200898722 0.0369393453 0.071223706
v -0.0200898703 0.0530931503 0.0596665442
v 0.0200897343 -0.00481263548 -0.0304150879
v 0.020089725 0.00284828991 0.0225769281
v 0.0200897306 0.00597852096 -0.00966474414
v 0.0200897306 -0.0171359554 -0.00353601575
v 0.0373134539 0.0770968795 -0.105557397
v 0.0373134464 0.101451539 -0.0653510392
v 0.0200897176 0.0530931503 0.0596665442
v 0.0200897157 0.0369393453 0.071223706
v 0.0200897306 -0.0171359554 -0.00353601575
v -0.0200898629 0.00284828991 0.0225769281
v 0.020089725 0.00284828991 0.0225769281
v -0.0200898573 -0.0171359554 -0.00353601575
v -0.0200898536 -0.00481263548 -0.0304150879
v 0.0200897343 -0.00481263548 -0.0304150879
v -0.0373135433 0.0770968795 -0.105557397
v 0.0373134539 0.0770968795 -0.105557397
v 0.0200897157 0.0369393453 0.071223706
v -0.0200898722 0.0369393453 0.071223706
v -0.0200898573 0.00597852096 -0.00966474414
v 0.0373134464 0.101451539 -0.0653510392
v 0.0200897306 0.00597852096 -0.00966474414
v -0.0373135507 0.101451539 -0.0653510392
v -0.0200898703 0.0530931503 0.0596665442
v 0.0200897176 0.0530931503 0.0596665442
v -0.00505425315 0.0333114527 -0.00970628858
v -0.0103007108 0.0692902282 0.0314638615
v -0.00505425548 0.0333114527 0.00230556726
v -0.0103007061 0.0707609206 0.00847816467
v -0.0164616872 0.133947104 0.0326794684
v -0.0164616797 0.126593754 -0.0115748346
v 0.0103005739 0.0707609206 0.00847816467
v 0.0050541251 0.0333114527 0.00230556726
v 0.0103005692 0.0692902282 0.0314638615
v 0.00505412742 0.0333114527 -0.00970628858
v 0.0164615531 0.126593754 -0.0115748346
v 0.0164615456 0.133947104 0.0326794684
v 0.00505412742 0.0333114527 -0.00970628858
v -0.00505425548 0.0333114527 0.00230556726
v 0.0050541251 0.0333114527 0.00230556726
v -0.00505425315 0.0333114527 -0.00970628858
v 0.0103005692 0.0692902282 0.0314638615
v -0.0103007108 0.0692902282 0.0314638615
v 0.0164615456 0.133947104 0.0326794684
v -0.0164616872 0.133947104 0.0326794684
v 0.00505412742 0.0333114527 -0.00970628858
v -0.0103007061 0.0707609206 0.00847816467
v -0.00505425315 0.0333114527 -0.00970628858
v 0.0103005739 0.0707609206 0.00847816467
v -0.0164616797 0.126593754 -0.0115748346
v 0.0164615531 0.126593754 -0.0115748346
v 0.0317170434 0.158452749 0.084589541
v 0.0317170508 0.0883936137 0.0460495055
v 0.0317170396 0.118586287 0.107565343
v 0.0317170583 0.123779461 0.00291094184
v 0.0317170285 0.103727832 0.159066767
v 0.0317170359 0.0344123319 0.135682642
v 0.0317170508 0.0339642093 0.0529819727
v -0.0317172147 0.0344123319 0.135682642
v -0.0317171998 0.0883936137 0.0460495055
v -0.0317172222 0.103727832 0.159066767
v -0.0317171998 0.0339642093 0.0529819727
v -0.031717211 0.118586287 0.107565343
v -0.0317172073 0.158452749 0.084589541
v -0.0317171924 0.123779461 0.00291094184
v -0.0317172147 0.0344123319 0.135682642
v 0.0317170508 0.0339642093 0.0529819727
v -0.0317171998 0.0339642093 0.0529819727
v 0.0317170359 0.0344123319 0.135682642
v -0.0317171998 0.0883936137 0.0460495055
v 0.0317170508 0.0883936137 0.0460495055
v -0.0317171924 0.123779461 0.00291094184
v 0.0317170583 0.123779461 0.00291094184
v 0.0317170396 0.118586287 0.107565343
v -0.0317172222 0.103727832 0.159066767
v -0.031717211 0.118586287 0.107565343
v 0.0317170285 0.103727832 0.159066767
v 0.0317170434 0.158452749 0.084589541
v -0.0317172073 0.158452749 0.084589541
v -0.0558028743 -0.0830270275 -0.456467748
v -0.0401132554 -0.131061241 -0.314546108
v -0.0401132293 -0.105073363 -0.456467748
v -0.0558029003 -0.110480905 -0.314546108
v 0.040113274 -0.105073363 -0.456467748
v 0.0401132479 -0.131061241 -0.314546108
v 0.0558028929 -0.110480905 -0.314546078
v 0.055802919 -0.0830270275 -0.456467748
v -0.0401132852 -0.100487277 -0.169567153
v 0.0401132181 -0.100487277 -0.169567123
v -0.0401132926 -0.0393392816 -0.112870082
v 0.0401132107 -0.0393392816 -0.112870052
v 0.0401133001 -0.0454939902 -0.576873302
v 0.055802945 -0.0158735551 -0.576873302
v 0.0401133224 0.0156937055 -0.700529158
v -0.0401132032 -0.0454939902 -0.576873302
v -0.0401131809 0.0156937055 -0.700529158
v -0.0558028482 -0.0158735551 -0.576873302
v -0.0558028258 0.0530927107 -0.700529158
v 0.0558029674 0.0530927107 -0.700529158
v -0.0558029301 -0.0780660957 -0.169567153
v -0.0558029376 -0.0187616199 -0.112870082
v 0.0558028631 -0.0780660957 -0.169567123
v 0.0558028556 -0.0187616199 -0.112870052
v -0.0558029376 0.0528638065 -0.112870082
v 0.0558028556 0.0528637618 -0.112870052
v -0.0401131846 0.156804025 -0.680993199
v 0.0401132926 0.154113948 -0.550383449
v -0.0401132107 0.154113948 -0.550383508
v 0.0401133187 0.156804025 -0.680993199
v 0.0558029674 0.136226326 -0.700529158
v -0.0558028258 0.136226326 -0.700529158
v -0.0558028184 0.0931951553 -0.740198374
v 0.0558029748 0.0931951553 -0.740198374
v -0.0558028184 0.0530927107 -0.740198374
v 0.0558029748 0.0530927107 -0.740198374
v -0.0558028743 -0.0830270275 -0.456467748
v -0.0558029003 0.216209918 -0.314546108
v -0.0558029003 -0.110480905 -0.314546108
v -0.0558028743 0.216208562 -0.456467748
v -0.0401132293 0.237043247 -0.456467748
v -0.0401132554 0.237024471 -0.314546108
v -0.0401132107 0.154113948 -0.550383508
v -0.0558028556 0.133304 -0.550383508
v -0.0401131846 0.156804025 -0.680993199
v -0.0558028258 0.136226326 -0.700529158
v -0.0558028258 0.0530927107 -0.700529158
v -0.0558028482 -0.0158735551 -0.576873302
v -0.0558028184 0.0530927107 -0.740198374
v -0.0558028184 0.0931951553 -0.740198374
v -0.0558029301 -0.0780660957 -0.169567153
v -0.0558029301 0.274857491 -0.169567153
v -0.0401132852 0.29543519 -0.169567153
v -0.0401133262 0.29594934 0.0468035638
v -0.0558029786 0.20186846 0.0851420164
v -0.0558029376 -0.0187616199 -0.112870082
v -0.0558029376 0.0528638065 -0.112870082
v -0.0558029525 0.109510839 -0.0490194559
v -0.0558029786 0.145218521 0.0871694088
v -0.055802986 0.228215024 0.120745599
v -0.0401133411 0.266042411 0.119434804
v -0.0401132293 0.237043247 -0.456467748
v 0.0401132479 0.237024471 -0.314546108
v -0.0401132554 0.237024471 -0.314546108
v 0.040113274 0.237043247 -0.456467748
v -0.0401132107 0.154113948 -0.550383508
v 0.0401132926 0.154113948 -0.550383449
v 0.0401132181 0.29543519 -0.169567123
v -0.0401132852 0.29543519 -0.169567153
v -0.0401133262 0.29594934 0.0468035638
v 0.0401131772 0.29594934 0.0468035638
v -0.0401133411 0.266042411 0.119434804
v 0.0401131622 0.266042411 0.119434804
v 0.0558028929 0.216209918 -0.314546078
v 0.040113274 0.237043247 -0.456467748
v 0.055802919 0.216208562 -0.456467748
v 0.0401132479 0.237024471 -0.314546108
v 0.0558028929 -0.110480905 -0.314546078
v 0.055802919 -0.0830270275 -0.456467748
v 0.0401132926 0.154113948 -0.550383449
v 0.0558029376 0.133304 -0.550383449
v 0.0401133187 0.156804025 -0.680993199
v 0.0558029674 0.136226326 -0.700529158
v 0.055802945 -0.0158735551 -0.576873302
v 0.0558029674 0.0530927107 -0.700529158
v 0.0558029748 0.0931951553 -0.740198374
v 0.0558029748 0.0530927107 -0.740198374
v 0.0558028631 0.274857491 -0.169567123
v 0.0401132181 0.29543519 -0.169567123
v 0.0558028631 -0.0780660957 -0.169567123
v 0.0558028556 -0.0187616199 -0.112870052
v 0.0558028556 0.0528637618 -0.112870052
v 0.0401131772 0.29594934 0.0468035638
v 0.0558028147 0.20186846 0.0851420164
v 0.0558028407 0.109510839 -0.0490194559
v 0.0558028147 0.145218521 0.0871694088
v 0.0401131622 0.266042411 0.119434804
v 0.0558028072 0.228215024 0.120745599
v -0.0401131809 0.0156937055 -0.700529158
v 0.0558029674 0.0530927107 -0.700529158
v -0.0558028258 0.0530927107 -0.700529158
v 0.0401133224 0.0156937055 -0.700529158
v -0.0558028258 0.0530927107 -0.700529158
v 0.0558029748 0.0530927107 -0.740198374
v -0.0558028184 0.0530927107 -0.740198374
v 0.0558029674 0.0530927107 -0.700529158
v 0.0401131622 0.266042411 0.119434804
v -0.055802986 0.228215024 0.120745599
v -0.0401133411 0.266042411 0.119434804
v 0.0558028072 0.228215024 0.120745599
v -0.0558029786 0.20186846 0.0851420164
v 0.0558028147 0.20186846 0.0851420164
v 0.0558028147 0.145218521 0.0871694088
v -0.0558029786 0.145218521 0.0871694088
v 0.0558028407 0.109510839 -0.0490194559
v -0.0558029525 0.109510839 -0.0490194559
v -0.0558029376 0.0528638065 -0.112870082
v 0.0558028556 0.0528637618 -0.112870052
v -0.0548634827 0.131857693 -0.609898448
v -0.0548635051 0.1954965 -0.496306956
v -0.0548635051 0.131857693 -0.496306956
v -0.0548634827 0.1954965 -0.609898448
v 5.40604326e-08 0.227315888 -0.609898448
v 3.19433617e-08 0.227315888 -0.496306956
v 0.0548635945 0.131857723 -0.609898448
v 0.0548635349 0.1954965 -0.496306956
v 0.0548635572 0.1954965 -0.609898448
v 0.0548635721 0.131857723 -0.496306956
v 3.19433617e-08 0.227315888 -0.496306956
v 5.40604326e-08 0.227315888 -0.609898448
v 5.40604326e-08 0.100038342 -0.609898448
v 5.40604326e-08 0.227315888 -0.609898448
v -0.0548634827 0.1954965 -0.609898448
v -0.0548634827 0.131857693 -0.609898448
v 0.0548635572 0.1954965 -0.609898448
v 5.40604326e-08 0.227315888 -0.609898448
v 5.40604326e-08 0.100038342 -0.609898448
v 0.0548635945 0.131857723 -0.609898448
v -2.93378416e-05 0.241559252 -0.503973722
v -0.043177288 0.241547525 -0.428762257
v -0.043297369 0.241559252 -0.503973722
v 2.93498924e-05 0.241547525 -0.428762257
v -0.0715052187 0.213219538 -0.428762257
v -0.0716253892 0.21323128 -0.503973722
v -0.0715960264 0.142403215 -0.503973722
v -0.0735657066 0.100280426 -0.428762257
v -0.180497974 0.0345175639 -0.614760399
v -0.206811532 -0.0847557113 -0.486782461
v -0.217382312 0.0567689352 -0.682805538
v -0.329449683 -0.182025835 -0.660883784
v -0.297303796 -0.0292030126 -0.799958348
v -0.389613718 -0.212738037 -0.855172038
v -0.25371024 -0.0597313419 -0.814189136
v -0.301143557 -0.0945620239 -0.935287595
v -0.329862922 -0.0682923794 -0.917609215
v -0.382004887 -0.163405105 -1.02895045
v -0.323931366 -0.0996854454 -1.02702808
v -0.339339107 -0.081726104 -1.01250482
v -0.320109189 -0.0903454274 -1.1398803
v -0.175907195 0.0235648118 -0.709616303
v -0.147584185 -0.132227376 -0.480897784
v -0.126677096 0.00728923082 -0.640012562
v 3.34361339e-08 0.142403215 -0.503973722
v 0.000343715015 0.100280426 -0.428762257
v 0.147584245 -0.132227376 -0.480897725
v 0.126677215 0.00728923082 -0.640012503
v 0.175907344 0.0235648118 -0.709616184
v 0.329449803 -0.182025835 -0.660883665
v 0.253710419 -0.0597313419 -0.814189017
v 0.389613897 -0.212738037 -0.855171919
v 0.297303975 -0.0292030126 -0.799958229
v 0.301143795 -0.0945620239 -0.935287476
v 0.329863161 -0.0682923794 -0.917609096
v 0.382005185 -0.163405105 -1.02895033
v 0.323931664 -0.0996854454 -1.02702796
v 0.339339346 -0.081726104 -1.0125047
v 0.320109487 -0.0903454274 -1.13988018
v 0.217382461 0.0567689352 -0.682805419
v 0.206811592 -0.0847557113 -0.486782372
v 0.180498093 0.0345175639 -0.614760339
v 0.0735657513 0.100280426 -0.428762227
v 0.0715887472 0.142403215 -0.503973722
v 0.0715640038 0.213219538 -0.428762227
v 0.0715667084 0.213231325 -0.503973663
v 0.043238733 0.241559252 -0.503973663
v 0.0432359874 0.241547525 -0.428762227
v 2.93498924e-05 0.241547525 -0.428762257
v -2.93378416e-05 0.241559252 -0.503973722
v 2.93498924e-05 0.241547525 -0.428762257
v 0.000343715015 0.100280426 -0.428762257
v -0.0735657066 0.100280426 -0.428762257
v -0.0715052187 0.213219538 -0.428762257
v -0.043177288 0.241547525 -0.428762257
v 0.0715640038 0.213219538 -0.428762227
v 0.0735657513 0.100280426 -0.428762227
v 0.0432359874 0.241547525 -0.428762227
v 0.206811592 -0.0847557113 -0.486782372
v 0.000343715015 0.100280426 -0.428762257
v 0.147584245 -0.132227376 -0.480897725
v 0.329449803 -0.182025835 -0.660883665
v -2.93378416e-05 0.241559252 -0.503973722
v 3.34361339e-08 0.142403215 -0.503973722
v 0.0715887472 0.142403215 -0.503973722
v 0.0715667084 0.213231325 -0.503973663
v 0.043238733 0.241559252 -0.503973663
v -0.043297369 0.241559252 -0.503973722
v -0.0716253892 0.21323128 -0.503973722
v -0.0715960264 0.142403215 -0.503973722
v 0.297303975 -0.0292030126 -0.799958229
v 0.175907344 0.0235648118 -0.709616184
v 0.253710419 -0.0597313419 -0.814189017
v 0.217382461 0.0567689352 -0.682805419
v 0.301143795 -0.0945620239 -0.935287476
v 0.329863161 -0.0682923794 -0.917609096
v 0.323931664 -0.0996854454 -1.02702796
v 0.339339346 -0.081726104 -1.0125047
v 0.320109487 -0.0903454274 -1.13988018
v 0.180498093 0.0345175639 -0.614760339
v 0.126677215 0.00728923082 -0.640012503
v 0.0715887472 0.142403215 -0.503973722
v 3.34361339e-08 0.142403215 -0.503973722
v -0.297303796 -0.0292030126 -0.799958348
v -0.175907195 0.0235648118 -0.709616303
v -0.217382312 0.0567689352 -0.682805538
v -0.25371024 -0.0597313419 -0.814189136
v -0.301143557 -0.0945620239 -0.935287595
v -0.329862922 -0.0682923794 -0.917609215
v -0.323931366 -0.0996854454 -1.02702808
v -0.339339107 -0.081726104 -1.01250482
v -0.320109189 -0.0903454274 -1.1398803
v -0.180497974 0.0345175639 -0.614760399
v -0.126677096 0.00728923082 -0.640012562
v -0.0715960264 0.142403215 -0.503973722
v 3.34361339e-08 0.142403215 -0.503973722
v -0.329449683 -0.182025835 -0.660883784
v -0.206811532 -0.0847557113 -0.486782461
v -0.147584185 -0.132227376 -0.480897784
v 0.000343715015 0.100280426 -0.428762257
v -0.0735657066 0.100280426 -0.428762257
vt 0.983138978 0.38894701
vt 0.973294973 0.435956001
vt 0.983139992 0.435954988
vt 0.973294973 0.38894701
vt 0.91246599 0.435954988
vt 0.91246599 0.388947994
vt 0.992443979 0.38894701
vt 0.992444992 0.435956001
vt 0.833360016 0.388947994
vt 0.833360016 0.435954988
vt 0.745814025 0.435956001
vt 0.745814025 0.38894701
vt 0.734229028 0.435956001
vt 0.734229982 0.38894701
vt 0.664165974 0.435956001
vt 0.664165974 0.388947994
vt 0.791646004 0.168931007
vt 0.731230021 0.122057997
vt 0.731230021 0.168931007
vt 0.791646004 0.122057997
vt 0.803855002 0.122057997
vt 0.803855002 0.168931007
vt 0.823958993 0.168931007
vt 0.823958993 0.122057997
vt 0.667698979 0.168931007
vt 0.667698979 0.122057997
vt 0.605000019 0.168931007
vt 0.605000019 0.122057997
vt 0.769316018 0.256011009
vt 0.814602971 0.334051013
vt 0.843173027 0.261819988
vt 0.733031988 0.319997013
vt 0.807648003 0.355632991
vt 0.739737988 0.336663008
vt 0.729813993 0.304782003
vt 0.754391015 0.263909996
vt 0.901431024 0.35157901
vt 0.920837998 0.227493003
vt 0.99437201 0.310615987
vt 0.997487009 0.242660999
vt 0.991100013 0.33287999
vt 0.896888971 0.374392986
vt 0.769316018 0.256011009
vt 0.814586997 0.334051013
vt 0.733030975 0.319997013
vt 0.843173027 0.261819988
vt 0.807631016 0.355632007
vt 0.739737988 0.336661994
vt 0.754391015 0.263909996
vt 0.729813993 0.304834992
vt 0.901431024 0.35157901
vt 0.920837998 0.227493003
vt 0.99437201 0.310615987
vt 0.997487009 0.242660999
vt 0.991100013 0.33287999
vt 0.896888971 0.374392986
vt 0.56162101 0.48221001
vt 0.568270028 0.470762014
vt 0.579666018 0.484609008
vt 0.555922985 0.466863006
vt 0.583845019 0.411588013
vt 0.558571994 0.405382991
vt 0.612055004 0.490307003
vt 0.613855004 0.479458988
vt 0.555912971 0.466913015
vt 0.579656005 0.484658003
vt 0.568260014 0.470811009
vt 0.561610997 0.482259005
vt 0.558561981 0.405432999
vt 0.583835006 0.411637992
vt 0.613844991 0.479508013
vt 0.61204499 0.490355998
vt 0.440412015 0.469938993
vt 0.461576998 0.496028006
vt 0.461576998 0.469938993
vt 0.440412015 0.496028006
vt 0.422412992 0.496028006
vt 0.422412992 0.46993801
vt 0.350304008 0.496028006
vt 0.350304008 0.469938993
vt 0.499565005 0.469938993
vt 0.499565005 0.496028006
vt 0.606921971 0.428173989
vt 0.634755015 0.47448501
vt 0.634755015 0.428173989
vt 0.606921971 0.47448501
vt 0.606921971 0.392499
vt 0.634755015 0.392499
vt 0.117936999 0.239057004
vt 0.0871300027 0.267390013
vt 0.108948998 0.239057004
vt 0.104330003 0.267390013
vt 0.0862200037 0.31467101
vt 0.119335003 0.309168994
vt 0.104330003 0.267390013
vt 0.108948998 0.239368007
vt 0.0871300027 0.267390013
vt 0.117936999 0.239368007
vt 0.119335003 0.309168994
vt 0.0862200037 0.31467101
vt 0.136337996 0.217317
vt 0.151089996 0.227540001
vt 0.136337996 0.227540001
vt 0.151089996 0.217317
vt 0.128681004 0.248124003
vt 0.158746004 0.248124003
vt 0.119690001 0.297340989
vt 0.167738006 0.297340989
vt 0.136337996 0.227540001
vt 0.158746004 0.248124003
vt 0.151089996 0.227540001
vt 0.128681004 0.248124003
vt 0.167738006 0.297340989
vt 0.119690001 0.297340989
vt 0.455164999 0.15839
vt 0.510401011 0.128004
vt 0.486597002 0.176504001
vt 0.482502013 0.0939920023
vt 0.498311996 0.217108995
vt 0.553314984 0.198672995
vt 0.553314984 0.133469
vt 0.553314984 0.198672995
vt 0.510401011 0.128004
vt 0.498311996 0.217108995
vt 0.553314984 0.133469
vt 0.486597002 0.176504001
vt 0.455164999 0.15839
vt 0.482502997 0.0939920023
vt 0.634755015 0.392499
vt 0.606921971 0.432774007
vt 0.634755015 0.432774007
vt 0.606921971 0.392499
vt 0.634755015 0.458431005
vt 0.606921971 0.458431005
vt 0.634755015 0.475111008
vt 0.606921971 0.475111008
vt 0.617559016 0.215360999
vt 0.579486012 0.262255013
vt 0.617559016 0.262255996
vt 0.579486012 0.215360999
vt 0.647031009 0.215360999
vt 0.647031009 0.262255996
vt 0.682036996 0.118583001
vt 0.78087002 0.10616
vt 0.682036996 0.10616
vt 0.78087002 0.118583001
vt 0.682036996 0.0789989978
vt 0.78087002 0.0789989978
vt 0.78087002 0.0662830025
vt 0.682036996 0.0662830025
vt 0.879121006 0.106159002
vt 0.879121006 0.0789989978
vt 0.920759022 0.10616
vt 0.920759976 0.0789989978
vt 0.598187983 0.0789989978
vt 0.598187029 0.0662830025
vt 0.512075007 0.0789989978
vt 0.598187029 0.10616
vt 0.512075007 0.10616
vt 0.598187983 0.118583001
vt 0.512075007 0.118583001
vt 0.512075007 0.0662830025
vt 0.887251973 0.118584
vt 0.935684025 0.118584
vt 0.887251973 0.0662830025
vt 0.935684025 0.0662830025
vt 0.987631023 0.118584
vt 0.987631023 0.0662840009
vt 0.836350977 0.442957014
vt 0.992326975 0.493912011
vt 0.992326975 0.442957014
vt 0.83634901 0.493912011
vt 0.814083993 0.493912011
vt 0.814089 0.442957997
vt 0.767533004 0.442957997
vt 0.767527997 0.493912011
vt 0.724144995 0.442957014
vt 0.724142015 0.493912011
vt 0.446799994 0.189436004
vt 0.334111005 0.44065699
vt 0.333992988 0.167586997
vt 0.445746988 0.433968008
vt 0.446799994 0.45717299
vt 0.335106999 0.454378009
vt 0.511642992 0.39171201
vt 0.511642992 0.372534007
vt 0.608998001 0.384193003
vt 0.630240023 0.365155011
vt 0.630240023 0.297764987
vt 0.535748005 0.242879003
vt 0.660552979 0.297764987
vt 0.660552979 0.329679996
vt 0.224502996 0.193384007
vt 0.224502996 0.478906006
vt 0.224502996 0.497758001
vt 0.0665830001 0.491039991
vt 0.0320490003 0.416166991
vt 0.181178004 0.240581006
vt 0.180260003 0.297583014
vt 0.131467998 0.342664987
vt 0.0273989998 0.371082008
vt 0.00265899999 0.437133998
vt 0.00366099994 0.470571995
vt 0.564868987 0.0122459996
vt 0.668671012 0.0634839982
vt 0.668671012 0.0122459996
vt 0.564867973 0.0634839982
vt 0.501698971 0.0122459996
vt 0.501698971 0.0634839982
vt 0.77471 0.0634839982
vt 0.77471 0.0122459996
vt 0.932964981 0.0122459996
vt 0.932964981 0.0634839982
vt 0.986087024 0.0122459996
vt 0.986087024 0.0634839982
vt 0.334111005 0.44065699
vt 0.446799994 0.45717299
vt 0.445746988 0.433968008
vt 0.335106999 0.454378009
vt 0.334371001 0.167586997
vt 0.446799994 0.189436004
vt 0.511642992 0.39171201
vt 0.511642992 0.372534007
vt 0.608998001 0.384193003
vt 0.630240023 0.365155011
vt 0.535748005 0.242879003
vt 0.630240023 0.297764987
vt 0.660552979 0.329679996
vt 0.660552979 0.297764987
vt 0.224502996 0.478906006
vt 0.224502996 0.497758001
vt 0.224502996 0.193384007
vt 0.181178004 0.240581006
vt 0.180260003 0.297583014
vt 0.0665830001 0.491039991
vt 0.0320490003 0.416166991
vt 0.131467998 0.342664987
vt 0.0273989998 0.371082008
vt 0.00366099994 0.470571995
vt 0.00265899999 0.437133998
vt 0.642472029 0.442957997
vt 0.682932973 0.493912011
vt 0.682934999 0.442957997
vt 0.642471015 0.493912011
vt 0.682934999 0.442957997
vt 0.724142015 0.493912011
vt 0.724144995 0.442957014
vt 0.682932973 0.493912011
vt 0.836573005 0.168240994
vt 0.864349008 0.128001004
vt 0.836573005 0.128001004
vt 0.864349008 0.168241993
vt 0.883693993 0.128001004
vt 0.883693993 0.168241993
vt 0.925291002 0.168241993
vt 0.925291002 0.128001004
vt 0.951510012 0.168241993
vt 0.951510012 0.128002003
vt 0.993104994 0.128002003
vt 0.993104994 0.168241993
vt 0.932043016 0.223046005
vt 0.964066029 0.176006004
vt 0.932043016 0.176006004
vt 0.964066029 0.223046005
vt 0.994683981 0.223046005
vt 0.994683981 0.176006004
vt 0.932043016 0.223046005
vt 0.964066029 0.176006004
vt 0.964066029 0.223046005
vt 0.932043016 0.176006004
vt 0.994683981 0.176006004
vt 0.994683981 0.223046005
vt 0.753803015 0.37183401
vt 0.645172 0.37183401
vt 0.672330022 0.324795991
vt 0.726646006 0.324795991
vt 0.672330022 0.324795991
vt 0.645172 0.37183401
vt 0.753803015 0.37183401
vt 0.726646006 0.324795991
vt 0.0766699985 0.352598011
vt 0.0308539998 0.332015008
vt 0.0766699985 0.332015008
vt 0.0308539998 0.352598011
vt 0.0308539998 0.288688987
vt 0.0766690001 0.288688004
vt 0.0766690001 0.248968005
vt 0.0308539998 0.220806003
vt 0.172345996 0.180378005
vt 0.0744460002 0.0945200026
vt 0.241962001 0.175432995
vt 0.195004001 0.0203009993
vt 0.295877993 0.131059006
vt 0.296324015 0.014401
vt 0.295877993 0.131059006
vt 0.359993994 0.106284998
vt 0.359993994 0.106284998
vt 0.401253998 0.0474140011
vt 0.412151992 0.0983050019
vt 0.412151992 0.0983050019
vt 0.477234006 0.0984340012
vt 0.241962001 0.175285995
vt 0.0744460002 0.0945200026
vt 0.172345996 0.180378005
vt 0.0766690001 0.248968005
vt 0.0308539998 0.220806003
vt 0.0744460002 0.0945200026
vt 0.172345996 0.180378005
vt 0.241962001 0.175285995
vt 0.195004001 0.0203009993
vt 0.295877993 0.131059006
vt 0.296324015 0.014401
vt 0.295877993 0.131059006
vt 0.359993994 0.106284998
vt 0.359993994 0.106284998
vt 0.401253998 0.0474140011
vt 0.412151992 0.0983050019
vt 0.412151992 0.0983050019
vt 0.477234006 0.0984340012
vt 0.241962001 0.175432995
vt 0.0744460002 0.0945200026
vt 0.172345996 0.180378005
vt 0.0308539998 0.220806003
vt 0.0766690001 0.248968005
vt 0.0308539998 0.288688004
vt 0.0766690001 0.288688987
vt 0.0766690001 0.332015008
vt 0.0308539998 0.332015008
vt 0.0308539998 0.352598011
vt 0.0766690001 0.352598011
vt 0.653135002 0.233492002
vt 0.695207 0.233492002
vt 0.695207 0.25831601
vt 0.665009975 0.25831601
vt 0.653135002 0.248485997
vt 0.665009975 0.208669007
vt 0.695207 0.208669007
vt 0.653135002 0.218499005
vt 0.776111007 0.214176998
vt 0.695207 0.25831601
vt 0.776111007 0.252808005
vt 0.888112009 0.233749002
vt 0.653135002 0.233507007
vt 0.695207 0.233492002
vt 0.695207 0.25831601
vt 0.665009975 0.25831601
vt 0.653135002 0.248514995
vt 0.653135002 0.218499005
vt 0.665009975 0.208669007
vt 0.695207 0.208669007
vt 0.725791991 0.176136002
vt 0.771359026 0.204026997
vt 0.725791991 0.204026997
vt 0.771359026 0.176136002
vt 0.67702502 0.204026997
vt 0.67702502 0.176136002
vt 0.64585799 0.204026997
vt 0.64585799 0.176136002
vt 0.588724971 0.189704001
vt 0.816673994 0.176136002
vt 0.816673994 0.204026997
vt 0.924672008 0.176136002
vt 0.924672008 0.204026997
vt 0.725791991 0.176136002
vt 0.771359026 0.204026997
vt 0.771359026 0.176136002
vt 0.725791991 0.204026997
vt 0.67702502 0.204026997
vt 0.67702502 0.176136002
vt 0.64585799 0.204026997
vt 0.64585799 0.176136002
vt 0.588724971 0.189704001
vt 0.816673994 0.176136002
vt 0.816673994 0.204026997
vt 0.924672008 0.176136002
vt 0.924672008 0.204026997
vt 0.888112009 0.233749002
vt 0.776111007 0.214176998
vt 0.776111007 0.252808005
vt 0.695207 0.25831601
vt 0.695207 0.208669007
vn 0 0.915934603 -0.401327551
vn 0 0.981106811 0.193466859
vn 0 0.911730074 -0.410789815
vn 0 0.913282012 0.407327836
vn 0 0.852645518 0.522489828
vn 0 0.852645518 0.522489828
vn 0 0.905356122 -0.424653143
vn 0 0.905356122 -0.424653143
vn 0 0.614701305 0.78875998
vn 0 0.614701305 0.78875998
vn 0 0.279359259 0.960186651
vn 0 0.0416773385 0.999131122
vn 0 -0.646499294 0.762914585
vn 0 -0.661395893 0.750036981
vn 0 -0.673989072 0.738741315
vn 0 -0.673989072 0.738741315
vn 0 -0.690275586 -0.723546554
vn 0 -0.564117077 -0.825694812
vn 0 -0.564117077 -0.825694812
vn 0 -0.690275586 -0.723546554
vn 0 0.125602191 -0.992080687
vn 0 0.116975579 -0.993134791
vn 0 0.249324136 -0.968420092
vn 0 0.249324136 -0.968420092
vn 0 -0.53016132 -0.847896795
vn 0 -0.694782741 -0.719219676
vn 0 -0.830922615 -0.556388002
vn 0 -0.830922615 -0.556388002
vn -0.979526988 -0.11987907 -0.161727821
vn -0.99921285 -0.00672272914 -0.0390958408
vn -0.984330446 -0.116401893 -0.132454416
vn -0.996320555 0.0544314807 -0.0662009454
vn -0.90891197 0.359858335 0.21066801
vn -0.930626079 0.318861748 0.179617054
vn -0.939032347 -0.0256906931 -0.34286767
vn -0.985368596 -0.0501494506 -0.162891873
vn -0.999421047 -0.0198281707 -0.0276480559
vn -0.987137871 -0.085690786 -0.134966342
vn -0.995526528 -0.0717496473 -0.0614729194
vn -0.97478325 -0.185423441 -0.124160229
vn -0.864970798 0.178000768 0.469192119
vn -0.894863061 0.309616516 0.321492947
vn 0.980925899 -0.126858706 -0.147279496
vn 0.999212866 -0.00672274076 -0.0390954466
vn 0.996262295 0.0496018163 -0.0707184511
vn 0.984330496 -0.116401902 -0.132454035
vn 0.908911894 0.359858314 0.210668372
vn 0.930626053 0.318861635 0.17961739
vn 0.939032522 -0.0256907624 -0.342867186
vn 0.889860369 0.0339721829 -0.454966388
vn 0.999421058 -0.0198281565 -0.0276476648
vn 0.987137923 -0.0856907752 -0.134965967
vn 0.995526552 -0.071749635 -0.0614725446
vn 0.974783289 -0.185423482 -0.124159861
vn 0.864970668 0.178000766 0.46919236
vn 0.894862951 0.309616496 0.321493273
vn -1 -4.48786647e-08 -1.69259717e-07
vn -0.998234237 -0.052700099 0.0274063498
vn -1 -3.16996552e-08 -1.76391679e-07
vn -0.989384873 -0.125892414 0.0725856284
vn -0.987856138 -0.134601044 0.0776067651
vn -0.987742399 -0.133509161 0.0808718551
vn -1 -1.71430792e-08 -1.77656975e-07
vn -1 -1.29462114e-08 -1.79263366e-07
vn 0.994376188 -0.0939593446 0.048863469
vn 1 2.55664979e-08 1.75106691e-07
vn 0.992522334 -0.105745426 0.0609698397
vn 1 6.16099259e-08 1.6684092e-07
vn 0.987856107 -0.134601056 0.0776071343
vn 0.988071467 -0.131715611 0.0797857936
vn 1 1.71430792e-08 1.77656975e-07
vn 1 1.44282006e-08 1.81334788e-07
vn 0 -0.989711112 0.1430801
vn 0 -0.810256321 0.586075673
vn 0 -0.810256321 0.586075673
vn 0 -0.989711112 0.1430801
vn 0 -0.77074688 -0.637141466
vn 0 -0.700145713 -0.713999986
vn 0 -0.676010987 -0.736891543
vn 0 -0.676010987 -0.736891543
vn 0 -0.818928818 0.573895105
vn 0 -0.818928818 0.573895105
vn 0 0.711394038 0.702793371
vn 0 0.503828506 0.863803702
vn 0 0.999979523 0.00639948906
vn 0 0.503828506 0.863803702
vn 0 0.827096466 -0.562059993
vn 0 0.827096466 -0.562059993
vn -0.990443039 -0.137800763 -0.00579096097
vn -0.993340452 -0.115063089 -0.00593571818
vn -0.989534768 -0.144294637 -1.91805513e-07
vn -0.994297216 -0.10649313 0.00567970539
vn -0.994911196 -0.100372324 0.00878114244
vn -0.99447467 -0.103556994 0.0172069926
vn 0.99208877 -0.125371644 -0.00646708452
vn 0.99044304 -0.137800779 -0.00579056628
vn 0.994257001 -0.106866863 0.00570000395
vn 0.990328945 -0.138739255 1.91959451e-07
vn 0.994911194 -0.100372314 0.00878149986
vn 0.995338339 -0.0951402796 0.0158087958
vn 0 -1 0
vn 0 -0.717551476 0.696505477
vn 0 -0.752985383 0.658037243
vn 0 -1 0
vn 0 -0.353358168 0.935488111
vn 0 -0.156489858 0.987679566
vn 0 -0.0187975698 0.99982331
vn 0 -0.0187975698 0.99982331
vn 0 0.436801179 -0.899558075
vn 0 0.063049404 -0.998010407
vn 0 0.436801179 -0.899558075
vn 0 -0.182701107 -0.983168503
vn 0 -0.338020698 -0.941138676
vn 0 -0.338020698 -0.941138676
vn 1 8.21439e-09 1.78388199e-07
vn 1 1.69521214e-08 1.86219505e-07
vn 1 -1.50147503e-08 1.89044102e-07
vn 1 7.81156647e-09 1.79120463e-07
vn 1 2.08611162e-08 1.94942371e-07
vn 1 3.52821206e-08 1.87494668e-07
vn 1 2.29332552e-08 1.80057602e-07
vn -1 -3.52821206e-08 -1.87494668e-07
vn -1 -1.69521214e-08 -1.86219505e-07
vn -1 -2.08611162e-08 -1.94942371e-07
vn -1 -2.29332552e-08 -1.80057602e-07
vn -1 1.50147503e-08 -1.89044102e-07
vn -1 -8.21439e-09 -1.78388199e-07
vn -1 -7.81156647e-09 -1.79120463e-07
vn 0 -0.99998532 0.00541852978
vn 0 -0.856642573 -0.515910362
vn 0 -0.856642573 -0.515910362
vn 0 -0.99998532 0.00541852978
vn 0 -0.36752808 -0.930012425
vn 0 -0.597162013 -0.802120646
vn 0 -0.77316035 -0.634210591
vn 0 -0.77316035 -0.634210591
vn 0 0.875348611 0.483492306
vn 0 0.960812289 0.277199828
vn 0 0.717563702 0.696492881
vn 0 0.960812289 0.277199828
vn 0 0.499329766 0.866412018
vn 0 0.499329766 0.866412018
vn -0.815653418 -0.547174462 -0.187908513
vn -0.214251639 -0.975536955 -0.0492329745
vn -0.153765618 -0.925811117 -0.345296844
vn -0.802827978 -0.59420278 0.0488906342
vn 0.211469807 -0.942025211 -0.260516836
vn 0.148736292 -0.986188468 0.0728685151
vn 0.806538229 -0.591100125 0.00983499672
vn 0.822152696 -0.528029353 -0.212720349
vn -0.208153387 -0.922127858 0.326117127
vn 0.244408819 -0.852106979 0.462793718
vn -0.140166232 -0.625327626 0.767671015
vn 0.191898222 -0.498082707 0.845629168
vn 0.245326614 -0.867710256 -0.432312114
vn 0.875346945 -0.426038998 -0.228601177
vn 0.298262306 -0.853727558 -0.426835862
vn -0.243620697 -0.868103905 -0.432486492
vn -0.472633453 -0.787064637 -0.396417554
vn -0.875346878 -0.426038966 -0.228601495
vn -0.901397367 -0.378154569 -0.210907348
vn 0.901397429 -0.378154595 -0.210907037
vn -0.770232585 -0.548888247 0.324751376
vn -0.0900570529 -0.0686647072 0.993566749
vn 0.770232518 -0.548888199 0.324751616
vn 0.0605423863 -0.0461613198 0.997097664
vn -2.67032038e-07 -1.93755107e-16 1
vn -2.67032038e-07 -1.93755167e-16 1
vn -6.42565201e-09 0.990024291 -0.140896779
vn -7.64943451e-09 0.999787964 0.0205919316
vn -1.52988725e-08 0.999787964 0.0205919363
vn 0 0.992978075 -0.118298529
vn 0 0.680966566 -0.732314506
vn 0 0.681314487 -0.731990826
vn 0 0.532339152 -0.846531174
vn 0 0.306412578 -0.951898803
vn 0 0 -1
vn 0 0 -1
vn -1 -1.50952531e-09 -1.92326494e-07
vn -0.999402132 0.034255518 -0.00468373536
vn -1 3.08887268e-23 -1.94769044e-07
vn -0.997215409 0.0666241616 -0.0335059554
vn -0.791847096 0.596520265 -0.130926508
vn -0.786986208 0.595491139 -0.161378473
vn -0.763128461 0.5751585 -0.294665322
vn -0.997703782 0.0663318233 -0.013684017
vn -0.799522766 0.600515813 0.0120043742
vn -0.99347073 0.114065683 0.00221989728
vn -1 -9.13126824e-09 -1.92635131e-07
vn -1 -1.33834998e-08 -2.05892985e-07
vn -1 0 -1.87817694e-07
vn -1 0 -1.87817694e-07
vn -1 4.01240742e-23 -1.93045941e-07
vn -0.997130928 0.0755666229 -0.00442706233
vn -0.79136067 0.603379804 -0.0983925944
vn -0.9628469 0.267751502 0.0351422867
vn -0.997611563 0.0681990955 0.0109568688
vn -1 3.00690664e-23 -1.31410327e-07
vn -1 -1.72110824e-08 -1.98799198e-07
vn -1 -9.69015377e-09 -1.98039417e-07
vn -1 -6.7888903e-09 -1.89696982e-07
vn -0.972300572 0.233607682 0.00768428022
vn -0.910194035 0.382985288 0.15769936
vn 0 0.97676111 -0.214330901
vn 0 0.990861877 -0.134880466
vn 4.84990327e-08 0.965319213 -0.261072437
vn 1.66923694e-07 0.893380861 -0.449300164
vn 2.45881535e-07 0.749590412 -0.661901967
vn 4.91763158e-07 0.749590308 -0.661902085
vn 2.98933363e-08 0.9869637 -0.160943017
vn 5.97866725e-08 0.9869637 -0.160943017
vn 3.77313346e-10 0.998371313 0.0570501695
vn 0 0.986820876 0.161816433
vn 0 0.924678334 0.380749233
vn 0 0.924678334 0.380749233
vn 0.999026989 0.0436965025 -0.00597414822
vn 0.791847125 0.596520287 -0.130926227
vn 0.998907763 0.0417440626 -0.0209932052
vn 0.786986307 0.595491099 -0.161378139
vn 1 -3.49224277e-23 1.91330756e-07
vn 1 2.28447354e-09 1.96733402e-07
vn 0.763128517 0.575158542 -0.294665095
vn 0.997062694 0.0750102847 -0.0154739156
vn 0.799522765 0.600515809 0.0120046873
vn 0.998198507 0.0599864694 0.00116772538
vn 1 1.02012279e-08 2.04132577e-07
vn 1 0 1.83033021e-07
vn 1 0 1.87817694e-07
vn 1 0 1.87817694e-07
vn 0.997130929 0.0755666296 -0.00442668439
vn 0.791360694 0.603379822 -0.0983922874
vn 1 -4.01240742e-23 1.93045941e-07
vn 1 -3.00690695e-23 1.31410327e-07
vn 1 1.72110957e-08 1.98799264e-07
vn 0.963636915 0.262600013 0.0494482593
vn 0.996496037 0.0818394858 0.0172611564
vn 1 9.69014494e-09 1.98039448e-07
vn 1 6.7888903e-09 1.89696982e-07
vn 0.972300567 0.233607692 0.00768468212
vn 0.89332287 0.361259483 -0.267330948
vn 0 0 -1
vn 0 0 -1
vn 0 0 -1
vn 0 0 -1
vn 0 -1 -3.49837716e-16
vn 0 -1 -3.49837716e-16
vn 0 -1 -3.49837716e-16
vn 0 -1 -3.49837716e-16
vn 0 0.0346312385 0.999400159
vn 0 -0.342892778 0.939374549
vn 0 0.0346312385 0.999400159
vn 0 -0.611166596 0.791501984
vn 0 -0.375023537 0.927015289
vn 0 -0.375023537 0.927015289
vn 0 -0.663473963 0.748199372
vn 0 -0.903731868 0.42809895
vn -9.23656943e-08 -0.9079096 0.419166027
vn 0 -0.90790965 0.419165918
vn -2.38421542e-07 -0.748043328 0.663649892
vn -4.76843064e-07 -0.748043121 0.663650126
vn -1 0 -1.96773027e-07
vn -0.867004113 0.498300982 -1.70304497e-07
vn -1 0 -1.96773027e-07
vn -0.867004113 0.498300981 -1.70603024e-07
vn -0.501700827 0.865041201 -9.82029535e-08
vn -0.501700827 0.865041202 -9.76847164e-08
vn 1 5.85380565e-07 1.96773027e-07
vn 0.945368288 0.326004295 1.8602298e-07
vn 0.757395203 0.652956741 1.48643768e-07
vn 1 5.85380565e-07 1.96773027e-07
vn 0.501701059 0.865041067 9.82029992e-08
vn 0.501701058 0.865041067 9.76847619e-08
vn 0 0 -1
vn 0 0 -1
vn 0 0 -1
vn 0 0 -1
vn 0 0 -1
vn 0 0 -1
vn 0 0 -1
vn 0 0 -1
vn 0 0.999999988 0.000155923218
vn -0.239568251 0.970879379 0.000533872154
vn -0.493225643 0.869900921 0.000923453222
vn 0 0.999999988 0.000155923218
vn -0.971456256 0.237131618 -0.00642953681
vn -0.961603756 0.2744371 0.00157926446
vn -0.941106086 0.302884712 0.150267048
vn -0.857387719 0.448611402 0.252258019
vn -0.778575645 0.536105704 0.326206436
vn -0.805833695 0.478883649 0.348285095
vn -0.822256925 0.454661716 0.3423102
vn -0.440784856 -0.89555476 -0.0607485199
vn -0.886551785 0.410559869 0.21322881
vn -0.558853147 -0.827159553 0.0590782032
vn 0.768160009 -0.629621049 -0.116221923
vn 0.745882241 -0.652289856 -0.134824429
vn -0.903147416 0.421536994 0.0814328449
vn -0.766289477 -0.530997283 -0.361721333
vn 0.737825379 -0.669967342 -0.0822038418
vn -0.875938243 0.474778269 -0.0855440846
vn -0.788762496 -0.209313488 -0.577963311
vn 0.683807346 -0.622403577 -0.380816623
vn 0.73381039 -0.549396654 -0.399606843
vn 0.77269368 -0.524151979 -0.358063095
vn 1.35054131e-07 -0.850760346 -0.525553835
vn 9.8673593e-08 -0.872484413 -0.488641944
vn -0.734234625 -0.549605206 -0.398539374
vn -0.772693499 -0.524152012 -0.358063438
vn -0.683807236 -0.622403522 -0.380816913
vn 0.44078502 -0.895554692 -0.0607483235
vn -0.768160017 -0.629620985 -0.116222214
vn 0.558853064 -0.827159589 0.0590784797
vn 0.886551758 0.410559757 0.21322914
vn -0.745882226 -0.652289779 -0.13482488
vn 0.903147386 0.42153697 0.0814332924
vn 0.766289852 -0.53099677 -0.361721292
vn -0.737825369 -0.669967326 -0.0822040556
vn 0.875938004 0.474778744 -0.0855438863
vn 0.788763291 -0.209311991 -0.577962768
vn 0.822256832 0.454661638 0.342310528
vn 0.805833573 0.478883604 0.34828544
vn 0.778568315 0.536122695 0.326196006
vn 0.85742056 0.448578218 0.252205405
vn 0.941158297 0.302930432 0.149847297
vn 0.971456468 0.2371021 -0.00741111333
vn 0.961473424 0.274897889 7.76548775e-05
vn 0.368048473 0.929806591 0.000158459395
vn 0.368185373 0.92975239 0.000158410384
vn -1.61210429e-10 0.999999988 0.000155923249
vn -2.14794602e-10 0.999999988 0.000155923218
vn -1.63010467e-07 -2.75303264e-08 1
vn -2.62987668e-07 -2.39612227e-09 1
vn 8.51776026e-17 -4.37326188e-16 1
vn 1.70100669e-16 -4.29542634e-16 1
vn 0 0 1
vn -4.29816201e-07 -4.66185806e-08 1
vn -3.99509995e-07 -0.191125384 0.981565631
vn -6.89762594e-07 -6.8976332e-07 1
vn 0.252360608 -0.319611135 0.913325159
vn 0.109414783 -0.184192761 0.976781159
vn 0.345579586 -0.321891338 0.881453751
vn 0.506663915 -0.54981221 0.664076961
vn 4.29669921e-07 3.3685661e-07 -1
vn 0 0 -1
vn 4.85679789e-07 3.50795146e-07 -1
vn 1.20688312e-06 9.46183423e-07 -1
vn 1.3775665e-06 1.37756885e-06 -1
vn 0 0 -1
vn 0 0 -1
vn 0 0 -1
vn -0.308319264 0.757176651 -0.575866956
vn -0.329397199 0.807783313 -0.488859494
vn -0.334346155 0.745941942 -0.576006308
vn -0.331778786 0.807812589 -0.487197761
vn -0.48865367 0.798731774 -0.351062878
vn -0.563355592 0.777148648 -0.28048254
vn -0.684199756 0.721845383 -0.103970842
vn -0.745032409 0.666191325 -0.0334040113
vn -0.786738943 0.612422719 0.0773320682
vn -0.263817521 0.847086917 -0.46135027
vn -0.0859568187 0.775450589 -0.625530023
vn -0.0111987451 0.707198758 -0.706926095
vn 0 0.709514319 -0.704691018
vn 0.308319319 0.757176683 -0.575866883
vn 0.329397313 0.80778337 -0.488859323
vn 0.331778924 0.80781263 -0.487197599
vn 0.33434621 0.745941981 -0.576006226
vn 0.488653794 0.798731793 -0.351062661
vn 0.563355485 0.777148821 -0.280482276
vn 0.684199128 0.721846014 -0.103970596
vn 0.745031161 0.666192721 -0.0334040049
vn 0.786737751 0.612424239 0.0773321536
vn 0.263820892 0.84708825 -0.461345893
vn 0.0859537061 0.775448747 -0.625532733
vn 0.0111983184 0.707199309 -0.706925551
vn 0 0.709514473 -0.704690863
vn -0.506664178 -0.549812139 0.66407682
vn -0.251572719 -0.319323742 0.913642991
vn -0.345321483 -0.32154035 0.881682979
vn -0.108910681 -0.184358974 0.976806138
vn 0 -0.299197593 0.954191176

g gun37_submesh_0
usemtl GXDJ_2
f 1/1/1 3/3/3 2/2/2
f 1/1/1 2/2/2 4/4/4
f 4/4/4 2/2/2 5/5/5
f 4/4/4 5/5/5 6/6/6
f 3/3/3 1/1/1 7/7/7
f 3/3/3 7/7/7 8/8/8
f 9/9/9 6/6/6 5/5/5
f 9/9/9 5/5/5 10/10/10
f 9/9/9 10/10/10 11/11/11
f 9/9/9 11/11/11 12/12/12
f 13/13/13 12/12/12 11/11/11
f 13/13/13 14/14/14 12/12/12
f 14/14/14 13/13/13 15/15/15
f 14/14/14 15/15/15 16/16/16
f 17/17/17 19/19/19 18/18/18
f 17/17/17 18/18/18 20/20/20
f 17/17/17 20/20/20 21/21/21
f 17/17/17 21/21/21 22/22/22
f 23/23/23 22/22/22 21/21/21
f 23/23/23 21/21/21 24/24/24
f 18/18/18 19/19/19 25/25/25
f 18/18/18 25/25/25 26/26/26
f 26/26/26 25/25/25 27/27/27
f 26/26/26 27/27/27 28/28/28
f 29/29/29 31/31/31 30/30/30
f 29/29/29 30/30/30 32/32/32
f 32/32/32 30/30/30 33/33/33
f 32/32/32 33/33/33 34/34/34
f 29/29/29 32/32/32 35/35/35
f 29/29/29 35/35/35 36/36/36
f 31/31/31 37/37/37 30/30/30
f 31/31/31 38/38/38 37/37/37
f 38/38/38 39/39/39 37/37/37
f 38/38/38 40/40/40 39/39/39
f 41/41/41 37/37/37 39/39/39
f 41/41/41 42/42/42 37/37/37
f 30/30/30 37/37/37 42/42/42
f 30/30/30 42/42/42 33/33/33
f 43/43/43 45/45/45 44/44/44
f 43/43/43 44/44/44 46/46/46
f 47/47/47 44/44/44 45/45/45
f 47/47/47 45/45/45 48/48/48
f 45/45/45 43/43/43 49/49/49
f 45/45/45 49/49/49 50/50/50
f 46/46/46 44/44/44 51/51/51
f 46/46/46 51/51/51 52/52/52
f 52/52/52 51/51/51 53/53/53
f 52/52/52 53/53/53 54/54/54
f 51/51/51 55/55/55 53/53/53
f 51/51/51 56/56/56 55/55/55
f 56/56/56 51/51/51 44/44/44
f 56/56/56 44/44/44 47/47/47
f 57/57/57 59/59/59 58/58/58
f 57/57/57 58/58/58 60/60/60
f 60/60/60 58/58/58 61/61/61
f 60/60/60 61/61/61 62/62/62
f 58/58/58 59/59/59 63/63/63
f 58/58/58 63/63/63 64/64/64
f 65/65/65 67/67/67 66/66/66
f 65/65/65 66/66/66 68/68/68
f 67/67/67 65/65/65 69/69/69
f 67/67/67 69/69/69 70/70/70
f 66/66/66 67/67/67 71/71/71
f 66/66/66 71/71/71 72/72/72
f 73/73/73 75/75/75 74/74/74
f 73/73/73 74/74/74 76/76/76
f 73/73/73 76/76/76 77/77/77
f 73/73/73 77/77/77 78/78/78
f 78/78/78 77/77/77 79/79/79
f 78/78/78 79/79/79 80/80/80
f 74/74/74 75/75/75 81/81/81
f 74/74/74 81/81/81 82/82/82
f 83/83/83 85/85/85 84/84/84
f 83/83/83 84/84/84 86/86/86
f 85/85/85 83/83/83 87/87/87
f 85/85/85 87/87/87 88/88/88
f 89/89/89 91/91/91 90/90/90
f 89/89/89 90/90/90 92/92/92
f 92/92/92 90/90/90 93/93/93
f 92/92/92 93/93/93 94/94/94
f 95/95/95 97/97/97 96/96/96
f 95/95/95 96/96/96 98/98/98
f 99/99/99 97/97/97 95/95/95
f 99/99/99 100/100/100 97/97/97
f 101/101/101 103/103/103 102/102/102
f 101/101/101 102/102/102 104/104/104
f 102/102/102 103/103/103 105/105/105
f 102/102/102 105/105/105 106/106/106
f 106/106/106 105/105/105 107/107/107
f 106/106/106 107/107/107 108/108/108
f 109/109/109 111/111/111 110/110/110
f 109/109/109 110/110/110 112/112/112
f 112/112/112 110/110/110 113/113/113
f 112/112/112 113/113/113 114/114/114
f 115/115/115 117/117/117 116/116/116
f 115/115/115 116/116/116 118/118/118
f 119/119/119 116/116/116 117/117/117
f 116/116/116 119/119/119 120/120/120
f 116/116/116 120/120/120 121/121/121
f 122/122/122 124/124/124 123/123/123
f 122/122/122 123/123/123 125/125/125
f 123/123/123 124/124/124 126/126/126
f 123/123/123 126/126/126 127/127/127
f 123/123/123 127/127/127 128/128/128
f 129/129/129 131/131/131 130/130/130
f 129/129/129 130/130/130 132/132/132
f 130/130/130 131/131/131 133/133/133
f 130/130/130 133/133/133 134/134/134
f 135/135/135 134/134/134 133/133/133
f 135/135/135 136/136/136 134/134/134
f 137/137/137 139/139/139 138/138/138
f 137/137/137 138/138/138 140/140/140
f 141/141/141 139/139/139 137/137/137
f 141/141/141 142/142/142 139/139/139
f 143/143/143 145/145/145 144/144/144
f 143/143/143 144/144/144 146/146/146
f 144/144/144 145/145/145 147/147/147
f 144/144/144 147/147/147 148/148/148
f 147/147/147 149/149/149 148/148/148
f 147/147/147 150/150/150 149/149/149
f 151/151/151 144/144/144 148/148/148
f 146/146/146 144/144/144 151/151/151
f 151/151/151 148/148/148 152/152/152
f 152/152/152 148/148/148 149/149/149
f 153/153/153 151/151/151 152/152/152
f 153/153/153 152/152/152 154/154/154
f 155/155/155 150/150/150 147/147/147
f 145/145/145 155/155/155 147/147/147
f 155/155/155 156/156/156 150/150/150
f 157/157/157 156/156/156 155/155/155
f 158/158/158 157/157/157 155/155/155
f 145/145/145 158/158/158 155/155/155
f 143/143/143 158/158/158 145/145/145
f 158/158/158 159/159/159 157/157/157
f 160/160/160 159/159/159 158/158/158
f 160/160/160 161/161/161 159/159/159
f 157/157/157 162/162/162 156/156/156
f 143/143/143 160/160/160 158/158/158
f 163/163/163 151/151/151 153/153/153
f 146/146/146 151/151/151 163/163/163
f 163/163/163 153/153/153 164/164/164
f 164/164/164 153/153/153 154/154/154
f 154/154/154 152/152/152 165/165/165
f 152/152/152 149/149/149 165/165/165
f 154/154/154 165/165/165 166/166/166
f 164/164/164 154/154/154 166/166/166
f 167/167/167 164/164/164 166/166/166
f 167/167/167 166/166/166 168/168/168
f 169/169/169 171/171/171 170/170/170
f 169/169/169 170/170/170 172/172/172
f 173/173/173 169/169/169 172/172/172
f 173/173/173 174/174/174 169/169/169
f 175/175/175 174/174/174 173/173/173
f 175/175/175 173/173/173 176/176/176
f 177/177/177 175/175/175 176/176/176
f 177/177/177 176/176/176 178/178/178
f 179/179/179 181/181/181 180/180/180
f 179/179/179 180/180/180 182/182/182
f 183/183/183 182/182/182 180/180/180
f 183/183/183 180/180/180 184/184/184
f 185/185/185 182/182/182 183/183/183
f 185/185/185 186/186/186 182/182/182
f 186/186/186 179/179/179 182/182/182
f 187/187/187 186/186/186 185/185/185
f 187/187/187 188/188/188 186/186/186
f 189/189/189 186/186/186 188/188/188
f 189/189/189 190/190/190 186/186/186
f 186/186/186 190/190/190 179/179/179
f 191/191/191 189/189/189 188/188/188
f 191/191/191 188/188/188 192/192/192
f 180/180/180 181/181/181 193/193/193
f 180/180/180 193/193/193 194/194/194
f 194/194/194 184/184/184 180/180/180
f 194/194/194 195/195/195 184/184/184
f 196/196/196 195/195/195 194/194/194
f 196/196/196 194/194/194 197/197/197
f 194/194/194 193/193/193 198/198/198
f 194/194/194 198/198/198 199/199/199
f 194/194/194 199/199/199 200/200/200
f 194/194/194 200/200/200 197/197/197
f 197/197/197 200/200/200 201/201/201
f 196/196/196 197/197/197 202/202/202
f 196/196/196 202/202/202 203/203/203
f 204/204/204 206/206/206 205/205/205
f 204/204/204 205/205/205 207/207/207
f 208/208/208 204/204/204 207/207/207
f 208/208/208 207/207/207 209/209/209
f 206/206/206 210/210/210 205/205/205
f 206/206/206 211/211/211 210/210/210
f 210/210/210 211/211/211 212/212/212
f 210/210/210 212/212/212 213/213/213
f 213/213/213 212/212/212 214/214/214
f 213/213/213 214/214/214 215/215/215
f 216/216/216 218/218/218 217/217/217
f 216/216/216 217/217/217 219/219/219
f 220/220/220 218/218/218 216/216/216
f 220/220/220 221/221/221 218/218/218
f 218/218/218 222/222/222 217/217/217
f 218/218/218 223/223/223 222/222/222
f 221/221/221 223/223/223 218/218/218
f 223/223/223 224/224/224 222/222/222
f 223/223/223 225/225/225 224/224/224
f 226/226/226 225/225/225 223/223/223
f 221/221/221 226/226/226 223/223/223
f 226/226/226 227/227/227 225/225/225
f 227/227/227 228/228/228 225/225/225
f 227/227/227 229/229/229 228/228/228
f 230/230/230 216/216/216 219/219/219
f 230/230/230 219/219/219 231/231/231
f 232/232/232 220/220/220 216/216/216
f 232/232/232 216/216/216 230/230/230
f 233/233/233 232/232/232 230/230/230
f 233/233/233 230/230/230 234/234/234
f 235/235/235 230/230/230 231/231/231
f 235/235/235 236/236/236 230/230/230
f 237/237/237 234/234/234 230/230/230
f 237/237/237 230/230/230 236/236/236
f 237/237/237 236/236/236 238/238/238
f 236/236/236 235/235/235 239/239/239
f 236/236/236 239/239/239 240/240/240
f 241/241/241 243/243/243 242/242/242
f 241/241/241 242/242/242 244/244/244
f 245/245/245 247/247/247 246/246/246
f 245/245/245 246/246/246 248/248/248
f 249/249/249 251/251/251 250/250/250
f 249/249/249 250/250/250 252/252/252
f 253/253/253 252/252/252 250/250/250
f 253/253/253 254/254/254 252/252/252
f 253/253/253 255/255/255 254/254/254
f 253/253/253 256/256/256 255/255/255
f 256/256/256 257/257/257 255/255/255
f 256/256/256 258/258/258 257/257/257
f 257/257/257 258/258/258 259/259/259
f 257/257/257 259/259/259 260/260/260
f 261/261/261 263/263/263 262/262/262
f 261/261/261 262/262/262 264/264/264
f 265/265/265 264/264/264 262/262/262
f 265/265/265 262/262/262 266/266/266
f 267/267/267 269/269/269 268/268/268
f 267/267/267 268/268/268 270/270/270
f 269/269/269 271/271/271 268/268/268
f 269/269/269 272/272/272 271/271/271
f 273/273/273 275/275/275 274/274/274
f 275/275/275 273/273/273 276/276/276
f 277/277/277 279/279/279 278/278/278
f 279/279/279 277/277/277 280/280/280
f 281/281/281 283/283/283 282/282/282
f 281/281/281 282/282/282 284/284/284
f 283/283/283 285/285/285 282/282/282
f 283/283/283 286/286/286 285/285/285
f 285/285/285 286/286/286 287/287/287
f 285/285/285 287/287/287 288/288/288
f 289/289/289 288/288/288 287/287/287
f 289/289/289 290/290/290 288/288/288
f 291/291/291 290/290/290 289/289/289
f 291/291/291 292/292/292 290/290/290
f 292/292/292 291/291/291 293/293/293
f 294/294/294 292/292/292 293/293/293
f 295/295/295 292/292/292 294/294/294
f 295/295/295 294/294/294 296/296/296
f 294/294/294 293/293/293 297/297/297
f 294/294/294 297/297/297 298/298/298
f 294/294/294 298/298/298 296/296/296
f 296/296/296 298/298/298 299/299/299
f 298/298/298 297/297/297 300/300/300
f 298/298/298 300/300/300 301/301/301
f 298/298/298 301/301/301 299/299/299
f 295/295/295 302/302/302 292/292/292
f 292/292/292 302/302/302 303/303/303
f 302/302/302 304/304/304 303/303/303
f 303/303/303 304/304/304 305/305/305
f 303/303/303 305/305/305 306/306/306
f 307/307/307 306/306/306 305/305/305
f 307/307/307 305/305/305 308/308/308
f 309/309/309 307/307/307 308/308/308
f 310/310/310 307/307/307 309/309/309
f 311/311/311 310/310/310 309/309/309
f 311/311/311 312/312/312 310/310/310
f 312/312/312 313/313/313 310/310/310
f 311/311/311 314/314/314 312/312/312
f 312/312/312 315/315/315 313/313/313
f 312/312/312 316/316/316 315/315/315
f 312/312/312 314/314/314 316/316/316
f 314/314/314 317/317/317 316/316/316
f 316/316/316 318/318/318 315/315/315
f 316/316/316 319/319/319 318/318/318
f 316/316/316 317/317/317 319/319/319
f 310/310/310 313/313/313 320/320/320
f 320/320/320 321/321/321 310/310/310
f 320/320/320 322/322/322 321/321/321
f 322/322/322 323/323/323 321/321/321
f 322/322/322 324/324/324 323/323/323
f 324/324/324 325/325/325 323/323/323
f 324/324/324 326/326/326 325/325/325
f 327/327/327 325/325/325 326/326/326
f 327/327/327 328/328/328 325/325/325
f 327/327/327 329/329/329 328/328/328
f 327/327/327 330/330/330 329/329/329
f 331/331/331 333/333/333 332/332/332
f 331/331/331 334/334/334 333/333/333
f 331/331/331 335/335/335 334/334/334
f 332/332/332 336/336/336 331/331/331
f 336/336/336 332/332/332 337/337/337
f 331/331/331 336/336/336 338/338/338
f 339/339/339 337/337/337 340/340/340
f 339/339/339 340/340/340 341/341/341
f 342/342/342 339/339/339 341/341/341
f 343/343/343 345/345/345 344/344/344
f 343/343/343 346/346/346 345/345/345
f 343/343/343 347/347/347 346/346/346
f 344/344/344 348/348/348 343/343/343
f 344/344/344 349/349/349 348/348/348
f 344/344/344 350/350/350 349/349/349
f 351/351/351 353/353/353 352/352/352
f 351/351/351 352/352/352 354/354/354
f 351/351/351 355/355/355 353/353/353
f 351/351/351 356/356/356 355/355/355
f 356/356/356 357/357/357 355/355/355
f 356/356/356 358/358/358 357/357/357
f 359/359/359 357/357/357 358/358/358
f 352/352/352 360/360/360 354/354/354
f 352/352/352 361/361/361 360/360/360
f 361/361/361 362/362/362 360/360/360
f 361/361/361 363/363/363 362/362/362
f 364/364/364 366/366/366 365/365/365
f 364/364/364 365/365/365 367/367/367
f 364/364/364 367/367/367 368/368/368
f 364/364/364 368/368/368 369/369/369
f 369/369/369 368/368/368 370/370/370
f 369/369/369 370/370/370 371/371/371
f 372/372/372 371/371/371 370/370/370
f 365/365/365 366/366/366 373/373/373
f 365/365/365 373/373/373 374/374/374
f 374/374/374 373/373/373 375/375/375
f 374/374/374 375/375/375 376/376/376
f 377/377/377 379/379/379 378/378/378
f 378/378/378 379/379/379 380/380/380
f 378/378/378 380/380/380 381/381/381

o Plane002
v -0.0644084259 0.0471708227 -0.646538961
v -0.147921143 0.0469702401 -0.642094704
v -0.128874383 0.047015987 -0.611326773
v -0.0827226183 0.0471268353 -0.676965027
v -0.168066755 0.046921854 -0.675597563
v -0.100670527 0.0470837276 -0.706365495
v -0.18381696 0.0468840248 -0.717988936
v -0.110193907 0.0470608542 -0.731321706
v -0.187113515 0.0468761071 -0.76106404
v -0.112025326 0.0470564554 -0.757645381
v -0.178322703 0.046897221 -0.803797279
v -0.106897352 0.0470687719 -0.783285324
v -0.159642226 0.0469420882 -0.84379559
v -0.0951762691 0.0470969238 -0.807557804
v -0.128874383 0.047015987 -0.879007779
v -0.0772283606 0.0471400315 -0.828069758
v -0.0900482953 0.0471092403 -0.905673319
v -0.0534199105 0.0471972151 -0.844137456
v -0.0460942335 0.0472148101 -0.922082883
v -0.0274137572 0.0472596772 -0.854051567
v 5.75313757e-05 0.0473256583 -0.927552737
v 5.75313757e-05 0.0473256583 -0.857470226
v 0.0469418639 0.0474382661 -0.922082883
v 0.0278951038 0.0473925192 -0.854051567
v 0.0908959257 0.0475438358 -0.905673319
v 0.0546338248 0.0474567408 -0.844137456
v 0.129722014 0.0476370891 -0.879007779
v 0.0784422749 0.0475139244 -0.828069758
v 0.160123573 0.0477101082 -0.84379559
v 0.0963901834 0.0475570321 -0.807557804
v 0.179170333 0.0477558551 -0.803797279
v 0.107744983 0.0475843043 -0.783285324
v 0.187228578 0.0477752096 -0.76106404
v 0.112506673 0.047595741 -0.757645381
v 0.183932023 0.0477672918 -0.717988936
v 0.110675254 0.0475913422 -0.731321706
v 0.168914385 0.0477312222 -0.675597563
v 0.101151873 0.0475684688 -0.706365495
v 0.148768774 0.047682836 -0.642094704
v 0.0835702488 0.0475262409 -0.676965027
v 0.129722014 0.0476370891 -0.611326773
v 0.0645234887 0.047480494 -0.646538961
v -0.0961845067 0.00936705427 -0.628761934
v -0.115777899 0.0844086045 -0.659529866
v -0.096364855 0.0844552311 -0.628761934
v -0.115597551 0.00932042763 -0.659529866
v -0.134824659 0.0843628576 -0.690639663
v -0.134644311 0.00927468073 -0.690639663
v -0.146545742 0.0843347057 -0.724826254
v -0.146365394 0.00924652879 -0.724826254
v -0.149842297 0.0843267879 -0.759354711
v -0.149661948 0.00923861106 -0.759354711
v -0.142882904 0.0843435031 -0.793883167
v -0.142702555 0.00925532627 -0.793883167
v -0.127132698 0.0843813323 -0.825334831
v -0.12695235 0.00929315544 -0.825334831
v -0.103324248 0.0844385159 -0.853709701
v -0.1031439 0.00935033906 -0.853709701
v -0.0718238372 0.0845141743 -0.875247254
v -0.0716434888 0.00942599739 -0.875247254
v -0.0370268716 0.0845977503 -0.887554426
v -0.0368465233 0.00950957345 -0.887554426
v -3.22029101e-05 0.0846866049 -0.892340549
v 0.000148145409 0.00959842801 -0.892340549
v 0.0369624658 0.0847754594 -0.887554426
v 0.0371428141 0.00968728256 -0.887554426
v 0.0721257152 0.0848599152 -0.875247254
v 0.0723060635 0.00977173837 -0.875247254
v 0.10399241 0.0849364533 -0.853709701
v 0.104172758 0.00984827645 -0.853709701
v 0.12780086 0.0849936369 -0.825334831
v 0.127981208 0.00990546007 -0.825334831
v 0.143551066 0.0850314661 -0.793883167
v 0.143731414 0.00994328924 -0.793883167
v 0.149777891 0.0850464218 -0.759354711
v 0.149958239 0.00995824495 -0.759354711
v 0.147580188 0.0850411433 -0.724826254
v 0.147760536 0.00995296647 -0.724826254
v 0.134760253 0.0850103521 -0.690639663
v 0.134940602 0.00992217528 -0.690639663
v 0.116079777 0.084965485 -0.659529866
v 0.116260125 0.00987730813 -0.659529866
v 0.0970330169 0.0849197381 -0.628761934
v 0.0972133652 0.00983156124 -0.628761934
vt 0 0
vt 0.998043153 0.0469667366
vt 0.998043153 0
vt 0 0.0469667366
vt 0.998043153 0.0978473679
vt 0 0.0978473679
vt 0.998043153 0.146771052
vt 0 0.146771052
vt 0.998043153 0.197651683
vt 0 0.197651683
vt 0.998043153 0.248532314
vt 0 0.248532314
vt 0.998043153 0.299412946
vt 0 0.299412946
vt 0.998043153 0.34833663
vt 0 0.34833663
vt 0.998043153 0.397260314
vt 0 0.397260314
vt 0.998043153 0.446183998
vt 0 0.446183998
vt 0.998043153 0.499021576
vt 0 0.499021576
vt 0.998043153 0.54794526
vt 0 0.54794526
vt 0.998043153 0.598825892
vt 0 0.598825892
vt 0.998043153 0.649706523
vt 0 0.649706523
vt 0.998043153 0.698630207
vt 0 0.698630207
vt 0.998043153 0.749510838
vt 0 0.749510838
vt 0.998043153 0.796477575
vt 0 0.796477575
vt 0.998043153 0.847358206
vt 0 0.847358206
vt 0.998043153 0.89628189
vt 0 0.89628189
vt 0.998043153 0.949119469
vt 0 0.949119469
vt 0.998043153 1.0000001
vt 0 1.0000001
vt 0 0
vt 0.998043153 0.0469667366
vt 0.998043153 0
vt 0 0.0469667366
vt 0.998043153 0.0978473679
vt 0 0.0978473679
vt 0.998043153 0.146771052
vt 0 0.146771052
vt 0.998043153 0.197651683
vt 0 0.197651683
vt 0.998043153 0.248532314
vt 0 0.248532314
vt 0.998043153 0.299412946
vt 0 0.299412946
vt 0.998043153 0.34833663
vt 0 0.34833663
vt 0.998043153 0.397260314
vt 0 0.397260314
vt 0.998043153 0.446183998
vt 0 0.446183998
vt 0.998043153 0.499021576
vt 0 0.499021576
vt 0.998043153 0.54794526
vt 0 0.54794526
vt 0.998043153 0.598825892
vt 0 0.598825892
vt 0.998043153 0.649706523
vt 0 0.649706523
vt 0.998043153 0.698630207
vt 0 0.698630207
vt 0.998043153 0.749510838
vt 0 0.749510838
vt 0.998043153 0.796477575
vt 0 0.796477575
vt 0.998043153 0.847358206
vt 0 0.847358206
vt 0.998043153 0.89628189
vt 0 0.89628189
vt 0.998043153 0.949119469
vt 0 0.949119469
vt 0.998043153 1.0000001
vt 0 1.0000001
vn 0.00240181353 -0.999997116 2.6326639e-17
vn 0.00240181353 -0.999997116 1.51490026e-17
vn 0.00240181353 -0.999997116 1.02760794e-16
vn 0.00240181353 -0.999997116 -2.99092764e-17
vn 0.00240181353 -0.999997116 -2.82274495e-17
vn 0.00240181353 -0.999997116 -1.38296938e-17
vn 0.00240181353 -0.999997116 -2.06757225e-17
vn 0.00240181353 -0.999997116 1.72961659e-17
vn 0.00240181353 -0.999997116 2.49350677e-17
vn 0.00240181353 -0.999997116 5.19194135e-17
vn 0.00240181353 -0.999997116 -1.52991566e-17
vn 0.00240181353 -0.999997116 -7.54115034e-17
vn 0.00240181353 -0.999997116 -6.61734349e-17
vn 0.00240181353 -0.999997116 -3.34291998e-17
vn 0.00240181353 -0.999997116 -3.47524881e-18
vn 0.00240181353 -0.999997116 3.29881095e-18
vn 0.00240181353 -0.999997116 -1.17854975e-18
vn 0.00240181353 -0.999997116 -7.75215846e-18
vn 0.00240181353 -0.999997116 -2.03920003e-17
vn 0.00240181353 -0.999997116 -1.72236584e-17
vn 0.00240181353 -0.999997116 -1.0646785e-17
vn 0.00240181353 -0.999997116 1.41763026e-17
vn 0.00240181353 -0.999997116 2.51210142e-17
vn 0.00240181353 -0.999997116 1.84754362e-17
vn 0.00240181353 -0.999997116 3.28983036e-17
vn 0.00240181353 -0.999997116 5.78217301e-17
vn 0.00240181353 -0.999997116 2.32404991e-17
vn 0.00240181353 -0.999997116 8.29895627e-18
vn 0.00240181353 -0.999997116 2.02065507e-17
vn 0.00240181353 -0.999997116 3.47622968e-17
vn 0.00240181353 -0.999997116 7.64218688e-18
vn 0.00240181353 -0.999997116 -3.09471871e-17
vn 0.00240181353 -0.999997116 1.78385053e-17
vn 0.00240181353 -0.999997116 1.14651871e-17
vn 0.00240181353 -0.999997116 -3.20167598e-18
vn 0.00240181353 -0.999997116 -3.62548746e-17
vn 0.00240181353 -0.999997116 -1.32544798e-17
vn 0.00240181353 -0.999997116 3.38623166e-17
vn 0.00240181353 -0.999997116 5.96779707e-17
vn 0.00240181353 -0.999997116 3.66654325e-17
vn 0.00240181353 -0.999997116 -8.5902453e-18
vn 0.00240181353 -0.999997116 -6.89262026e-17
vn -0.845725621 -0.0020312811 0.533614138
vn -0.848121418 -0.00203703537 0.52979799
vn -0.845725621 -0.0020312811 0.533614138
vn -0.850495839 -0.00204273831 0.525977809
vn -0.888404989 -0.00213378928 0.459055577
vn -0.919632049 -0.00220879107 0.392774765
vn -0.967855503 -0.00232461515 0.251496166
vn -0.984625594 -0.0023648939 0.174662094
vn -0.999990864 -0.00240179851 -0.00353604582
vn -0.9947804 -0.00238928392 -0.102011015
vn -0.959083987 -0.00230354754 -0.283112346
vn -0.930152537 -0.00223405939 -0.367166537
vn -0.855241457 -0.00205413643 -0.518225656
vn -0.812132887 -0.00195059738 -0.583469252
vn -0.703365268 -0.00168935709 -0.710826594
vn -0.635492234 -0.00152633825 -0.772105751
vn -0.492764439 -0.00118353171 -0.870161943
vn -0.415291149 -0.000997454777 -0.909688005
vn -0.265899921 -0.000638643871 -0.964000427
vn -0.197173433 -0.000473575184 -0.980368509
vn -0.0430841444 -0.000103480379 -0.999071442
vn 0.0430841444 0.000103480379 -0.999071442
vn 0.196537376 0.000472047491 -0.98049622
vn 0.264212013 0.000634589818 -0.964464416
vn 0.411585532 0.000988554552 -0.911370601
vn 0.488601956 0.00117353417 -0.872506018
vn 0.63230585 0.00151868513 -0.774717372
vn 0.701721901 0.00168541002 -0.712448969
vn 0.812132887 0.00195059738 -0.583469252
vn 0.855241457 0.00205413643 -0.518225656
vn 0.932527331 0.00223976322 -0.361092455
vn 0.962808033 0.00231249203 -0.270176505
vn 0.995131394 0.00239012694 -0.0985281458
vn 0.999840856 0.00240143822 -0.0176775769
vn 0.986378465 0.00236910398 0.164474652
vn 0.965298206 0.00231847298 0.261139805
vn 0.91344796 0.002193938 0.406949642
vn 0.887026559 0.00213047854 0.461713488
vn 0.854984189 0.00205351852 0.518649997
vn 0.852634318 0.00204787455 0.522504092
vn 0.850262692 0.00204217833 0.526354618
vn 0.850262692 0.00204217833 0.526354618

g Plane002_submesh_0
usemtl RPG_mat_031
f 382/382/382 384/384/384 383/383/383
f 383/383/383 385/385/385 382/382/382
f 385/385/385 383/383/383 386/386/386
f 386/386/386 387/387/387 385/385/385
f 387/387/387 386/386/386 388/388/388
f 388/388/388 389/389/389 387/387/387
f 389/389/389 388/388/388 390/390/390
f 390/390/390 391/391/391 389/389/389
f 391/391/391 390/390/390 392/392/392
f 392/392/392 393/393/393 391/391/391
f 393/393/393 392/392/392 394/394/394
f 394/394/394 395/395/395 393/393/393
f 395/395/395 394/394/394 396/396/396
f 396/396/396 397/397/397 395/395/395
f 397/397/397 396/396/396 398/398/398
f 398/398/398 399/399/399 397/397/397
f 399/399/399 398/398/398 400/400/400
f 400/400/400 401/401/401 399/399/399
f 401/401/401 400/400/400 402/402/402
f 402/402/402 403/403/403 401/401/401
f 403/403/403 402/402/402 404/404/404
f 404/404/404 405/405/405 403/403/403
f 405/405/405 404/404/404 406/406/406
f 406/406/406 407/407/407 405/405/405
f 407/407/407 406/406/406 408/408/408
f 408/408/408 409/409/409 407/407/407
f 409/409/409 408/408/408 410/410/410
f 410/410/410 411/411/411 409/409/409
f 411/411/411 410/410/410 412/412/412
f 412/412/412 413/413/413 411/411/411
f 413/413/413 412/412/412 414/414/414
f 414/414/414 415/415/415 413/413/413
f 415/415/415 414/414/414 416/416/416
f 416/416/416 417/417/417 415/415/415
f 417/417/417 416/416/416 418/418/418
f 418/418/418 419/419/419 417/417/417
f 419/419/419 418/418/418 420/420/420
f 420/420/420 421/421/421 419/419/419
f 421/421/421 420/420/420 422/422/422
f 422/422/422 423/423/423 421/421/421
f 424/424/424 426/426/426 425/425/425
f 425/425/425 427/427/427 424/424/424
f 427/427/427 425/425/425 428/428/428
f 428/428/428 429/429/429 427/427/427
f 429/429/429 428/428/428 430/430/430
f 430/430/430 431/431/431 429/429/429
f 431/431/431 430/430/430 432/432/432
f 432/432/432 433/433/433 431/431/431
f 433/433/433 432/432/432 434/434/434
f 434/434/434 435/435/435 433/433/433
f 435/435/435 434/434/434 436/436/436
f 436/436/436 437/437/437 435/435/435
f 437/437/437 436/436/436 438/438/438
f 438/438/438 439/439/439 437/437/437
f 439/439/439 438/438/438 440/440/440
f 440/440/440 441/441/441 439/439/439
f 441/441/441 440/440/440 442/442/442
f 442/442/442 443/443/443 441/441/441
f 443/443/443 442/442/442 444/444/444
f 444/444/444 445/445/445 443/443/443
f 445/445/445 444/444/444 446/446/446
f 446/446/446 447/447/447 445/445/445
f 447/447/447 446/446/446 448/448/448
f 448/448/448 449/449/449 447/447/447
f 449/449/449 448/448/448 450/450/450
f 450/450/450 451/451/451 449/449/449
f 451/451/451 450/450/450 452/452/452
f 452/452/452 453/453/453 451/451/451
f 453/453/453 452/452/452 454/454/454
f 454/454/454 455/455/455 453/453/453
f 455/455/455 454/454/454 456/456/456
f 456/456/456 457/457/457 455/455/455
f 457/457/457 456/456/456 458/458/458
f 458/458/458 459/459/459 457/457/457
f 459/459/459 458/458/458 460/460/460
f 460/460/460 461/461/461 459/459/459
f 461/461/461 460/460/460 462/462/462
f 462/462/462 463/463/463 461/461/461
f 463/463/463 462/462/462 464/464/464
f 464/464/464 465/465/465 463/463/463

o Plane002
v 0.120229636 0.0041616331 -0.751829473
v 0.276120511 0.0056111531 -0.744349867
v 0.240566438 0.0156462181 -0.692568251
v 0.154416245 -0.00576193124 -0.803035737
v 0.313725781 -0.00531591775 -0.800734293
v 0.187919122 -0.0153509934 -0.852515948
v 0.343126271 -0.0191420086 -0.872077858
v 0.205696162 -0.0234905468 -0.894516595
v 0.349279877 -0.0331911025 -0.94457213
v 0.209114833 -0.0320761042 -0.938818651
v 0.332870329 -0.0471286971 -1.01649106
v 0.199542597 -0.040438661 -0.981970007
v 0.298000019 -0.0601742869 -1.08380718
v 0.177663186 -0.0483552155 -1.02281996
v 0.240566553 -0.0716588678 -1.14306838
v 0.144160331 -0.0550452626 -1.05734105
v 0.168090982 -0.0803559309 -1.18794581
v 0.0997177638 -0.0602858007 -1.08438258
v 0.086043159 -0.0857079722 -1.2155627
v 0.0511728022 -0.0635193256 -1.10106778
v -0.000107059794 -0.0874919899 -1.22476834
v -0.000107089878 -0.0646343365 -1.1068213
v -0.0876247471 -0.0857079837 -1.21556274
v -0.0520707168 -0.0635193324 -1.1010678
v -0.169672584 -0.0803559532 -1.18794589
v -0.101983151 -0.060285814 -1.08438263
v -0.242148178 -0.0716588996 -1.1430685
v -0.146425732 -0.0550452818 -1.05734112
v -0.298897942 -0.0601743262 -1.08380732
v -0.179928605 -0.0483552391 -1.02282005
v -0.334452019 -0.047128741 -1.01649122
v -0.201124304 -0.0404386874 -0.981970104
v -0.349494139 -0.0331911485 -0.9445723
v -0.21001283 -0.0320761318 -0.938818752
v -0.343340571 -0.0191420538 -0.872078024
v -0.206594182 -0.023490574 -0.894516695
v -0.31530758 -0.00531595919 -0.800734446
v -0.188817163 -0.0153510182 -0.85251604
v -0.277702339 0.00561111661 -0.744350001
v -0.155998044 -0.00576195169 -0.803035813
v -0.242148293 0.0156461863 -0.692568368
v -0.120443997 0.00416161725 -0.751829531
v 0.179714304 0.0790977156 -0.735309856
v 0.215952111 -0.0685421856 -0.760424216
v 0.179714307 -0.0585071207 -0.708642601
v 0.215952109 0.0690626507 -0.787091472
v 0.251506184 -0.0786887514 -0.812781184
v 0.251506181 0.0589160849 -0.839448439
v 0.27338562 -0.0898388248 -0.870316317
v 0.273385617 0.0477660116 -0.896983572
v 0.279539222 -0.1011004 -0.928426805
v 0.279539219 0.0365044364 -0.95509406
v 0.266548331 -0.112361976 -0.986537298
v 0.266548328 0.02524286 -1.01320455
v 0.237147872 -0.122620047 -1.03946963
v 0.237147869 0.0149847892 -1.06613689
v 0.19270531 -0.131874612 -1.08722381
v 0.192705307 0.00573022415 -1.11389106
v 0.133904374 -0.138899163 -1.12347096
v 0.133904372 -0.00129432687 -1.15013821
v 0.0689498476 -0.142913194 -1.14418362
v 0.068949845 -0.00530835808 -1.17085088
v -0.000107073613 -0.144474209 -1.15223856
v -0.000107076218 -0.00686937311 -1.17890582
v -0.069163999 -0.142913203 -1.14418366
v -0.0691640016 -0.00530836718 -1.17085091
v -0.134802268 -0.138899181 -1.12347102
v -0.134802271 -0.00129434457 -1.15013828
v -0.194286954 -0.131874638 -1.0872239
v -0.194286956 0.00573019865 -1.11389116
v -0.23872954 -0.122620078 -1.03946975
v -0.238729543 0.0149847578 -1.066137
v -0.268130026 -0.112362012 -0.986537427
v -0.268130029 0.0252428247 -1.01320468
v -0.279753483 -0.101100437 -0.92842694
v -0.279753486 0.0365043995 -0.955094196
v -0.275651107 -0.0898388609 -0.87031645
v -0.275651109 0.0477659754 -0.896983705
v -0.251720505 -0.0786887845 -0.812781306
v -0.251720507 0.0589160518 -0.839448561
v -0.21685019 -0.0685422141 -0.760424321
v -0.216850193 0.0690626222 -0.787091577
v -0.181296144 -0.0585071445 -0.708642688
v -0.181296147 0.0790976919 -0.735309944
vt 0 0
vt 0.998043153 0.0469667366
vt 0.998043153 0
vt 0 0.0469667366
vt 0.998043153 0.0978473679
vt 0 0.0978473679
vt 0.998043153 0.146771052
vt 0 0.146771052
vt 0.998043153 0.197651683
vt 0 0.197651683
vt 0.998043153 0.248532314
vt 0 0.248532314
vt 0.998043153 0.299412946
vt 0 0.299412946
vt 0.998043153 0.34833663
vt 0 0.34833663
vt 0.998043153 0.397260314
vt 0 0.397260314
vt 0.998043153 0.446183998
vt 0 0.446183998
vt 0.998043153 0.499021576
vt 0 0.499021576
vt 0.998043153 0.54794526
vt 0 0.54794526
vt 0.998043153 0.598825892
vt 0 0.598825892
vt 0.998043153 0.649706523
vt 0 0.649706523
vt 0.998043153 0.698630207
vt 0 0.698630207
vt 0.998043153 0.749510838
vt 0 0.749510838
vt 0.998043153 0.796477575
vt 0 0.796477575
vt 0.998043153 0.847358206
vt 0 0.847358206
vt 0.998043153 0.89628189
vt 0 0.89628189
vt 0.998043153 0.949119469
vt 0 0.949119469
vt 0.998043153 1.0000001
vt 0 1.0000001
vt 0 0
vt 0.998043153 0.0469667366
vt 0.998043153 0
vt 0 0.0469667366
vt 0.998043153 0.0978473679
vt 0 0.0978473679
vt 0.998043153 0.146771052
vt 0 0.146771052
vt 0.998043153 0.197651683
vt 0 0.197651683
vt 0.998043153 0.248532314
vt 0 0.248532314
vt 0.998043153 0.299412946
vt 0 0.299412946
vt 0.998043153 0.34833663
vt 0 0.34833663
vt 0.998043153 0.397260314
vt 0 0.397260314
vt 0.998043153 0.446183998
vt 0 0.446183998
vt 0.998043153 0.499021576
vt 0 0.499021576
vt 0.998043153 0.54794526
vt 0 0.54794526
vt 0.998043153 0.598825892
vt 0 0.598825892
vt 0.998043153 0.649706523
vt 0 0.649706523
vt 0.998043153 0.698630207
vt 0 0.698630207
vt 0.998043153 0.749510838
vt 0 0.749510838
vt 0.998043153 0.796477575
vt 0 0.796477575
vt 0.998043153 0.847358206
vt 0 0.847358206
vt 0.998043153 0.89628189
vt 0 0.89628189
vt 0.998043153 0.949119469
vt 0 0.949119469
vt 0.998043153 1.0000001
vt 0 1.0000001
vn -1.85809822e-08 0.981734487 -0.190256134
vn -1.85809822e-08 0.981734487 -0.190256134
vn -1.85809822e-08 0.981734487 -0.190256134
vn -1.85809823e-08 0.981734487 -0.190256134
vn -1.85809823e-08 0.981734487 -0.190256134
vn -1.85809823e-08 0.981734487 -0.190256134
vn -1.85809823e-08 0.981734487 -0.190256134
vn -1.85809822e-08 0.981734487 -0.190256134
vn -1.85809822e-08 0.981734487 -0.190256134
vn -1.85809822e-08 0.981734487 -0.190256134
vn -1.85809821e-08 0.981734487 -0.190256134
vn -1.85809821e-08 0.981734487 -0.190256134
vn -1.85809822e-08 0.981734487 -0.190256134
vn -1.85809822e-08 0.981734487 -0.190256134
vn -1.85809822e-08 0.981734487 -0.190256134
vn -1.85809821e-08 0.981734487 -0.190256134
vn -1.85809821e-08 0.981734487 -0.190256134
vn -1.85809822e-08 0.981734487 -0.190256134
vn -1.85809822e-08 0.981734487 -0.190256134
vn -1.85809823e-08 0.981734487 -0.190256134
vn -1.85809821e-08 0.981734487 -0.190256134
vn -1.85809819e-08 0.981734487 -0.190256134
vn -1.85809821e-08 0.981734487 -0.190256134
vn -1.85809824e-08 0.981734487 -0.190256134
vn -1.85809825e-08 0.981734487 -0.190256134
vn -1.85809823e-08 0.981734487 -0.190256134
vn -1.85809822e-08 0.981734487 -0.190256134
vn -1.85809821e-08 0.981734487 -0.190256134
vn -1.85809822e-08 0.981734487 -0.190256134
vn -1.85809822e-08 0.981734487 -0.190256134
vn -1.85809822e-08 0.981734487 -0.190256134
vn -1.85809822e-08 0.981734487 -0.190256134
vn -1.85809822e-08 0.981734487 -0.190256134
vn -1.85809822e-08 0.981734487 -0.190256134
vn -1.85809822e-08 0.981734487 -0.190256134
vn -1.85809821e-08 0.981734487 -0.190256134
vn -1.85809821e-08 0.981734487 -0.190256134
vn -1.85809821e-08 0.981734487 -0.190256134
vn -1.85809821e-08 0.981734487 -0.190256134
vn -1.85809822e-08 0.981734487 -0.190256134
vn -1.85809822e-08 0.981734487 -0.190256134
vn -1.85809822e-08 0.981734487 -0.190256134
vn 0.824219913 0.107736326 0.555926631
vn 0.826850719 0.107004146 0.552148532
vn 0.824219913 0.107736326 0.555926631
vn 0.829460846 0.106270406 0.548362385
vn 0.87152041 0.0932938675 0.481402564
vn 0.906739498 0.0802293575 0.413988808
vn 0.962224423 0.0517986819 0.267284599
vn 0.981851478 0.0360823708 0.186187372
vn 0.999992588 -0.000732487972 -0.00377978501
vn 0.993823618 -0.0211129408 -0.108944296
vn 0.952028649 -0.0582200547 -0.300419503
vn 0.918727786 -0.0751305036 -0.387678556
vn 0.834686218 -0.104778948 -0.540666523
vn 0.78762328 -0.117227653 -0.604902675
vn 0.672526835 -0.140803366 -0.726554932
vn 0.602996581 -0.151775635 -0.783172574
vn 0.46139784 -0.168793968 -0.870988306
vn 0.386648373 -0.175459378 -0.905382263
vn 0.245558 -0.184430848 -0.951675644
vn 0.181632191 -0.187091513 -0.965404844
vn 0.0395731929 -0.190107101 -0.98096547
vn -0.0395726925 -0.190107106 -0.980965489
vn -0.181042205 -0.187112217 -0.965511646
vn -0.243981452 -0.184506579 -0.95206637
vn -0.38310342 -0.175740636 -0.906833501
vn -0.457347833 -0.169192485 -0.873044594
vn -0.599770243 -0.152237693 -0.785556707
vn -0.670823689 -0.141097171 -0.728070853
vn -0.787622972 -0.117227757 -0.604903056
vn -0.834685942 -0.104779058 -0.540666928
vn -0.921442461 -0.073917351 -0.381418427
vn -0.956351508 -0.0555964259 -0.286881215
vn -0.994238568 -0.0203935495 -0.105231994
vn -0.999814728 -0.0036621837 -0.0188970173
vn -0.983913369 0.0339885263 0.175383185
vn -0.959247089 0.0537603949 0.277407358
vn -0.899722267 0.0830397233 0.428490662
vn -0.869978222 0.0938134093 0.484083606
vn -0.834402669 0.104860665 0.541088187
vn -0.831814279 0.105602424 0.544915712
vn -0.829204712 0.106342705 0.548735615
vn -0.829204712 0.106342705 0.548735615

g Plane002_submesh_0
usemtl RPG_mat_031_2
f 466/466/466 468/468/468 467/467/467
f 467/467/467 469/469/469 466/466/466
f 469/469/469 467/467/467 470/470/470
f 470/470/470 471/471/471 469/469/469
f 471/471/471 470/470/470 472/472/472
f 472/472/472 473/473/473 471/471/471
f 473/473/473 472/472/472 474/474/474
f 474/474/474 475/475/475 473/473/473
f 475/475/475 474/474/474 476/476/476
f 476/476/476 477/477/477 475/475/475
f 477/477/477 476/476/476 478/478/478
f 478/478/478 479/479/479 477/477/477
f 479/479/479 478/478/478 480/480/480
f 480/480/480 481/481/481 479/479/479
f 481/481/481 480/480/480 482/482/482
f 482/482/482 483/483/483 481/481/481
f 483/483/483 482/482/482 484/484/484
f 484/484/484 485/485/485 483/483/483
f 485/485/485 484/484/484 486/486/486
f 486/486/486 487/487/487 485/485/485
f 487/487/487 486/486/486 488/488/488
f 488/488/488 489/489/489 487/487/487
f 489/489/489 488/488/488 490/490/490
f 490/490/490 491/491/491 489/489/489
f 491/491/491 490/490/490 492/492/492
f 492/492/492 493/493/493 491/491/491
f 493/493/493 492/492/492 494/494/494
f 494/494/494 495/495/495 493/493/493
f 495/495/495 494/494/494 496/496/496
f 496/496/496 497/497/497 495/495/495
f 497/497/497 496/496/496 498/498/498
f 498/498/498 499/499/499 497/497/497
f 499/499/499 498/498/498 500/500/500
f 500/500/500 501/501/501 499/499/499
f 501/501/501 500/500/500 502/502/502
f 502/502/502 503/503/503 501/501/501
f 503/503/503 502/502/502 504/504/504
f 504/504/504 505/505/505 503/503/503
f 505/505/505 504/504/504 506/506/506
f 506/506/506 507/507/507 505/505/505
f 508/508/508 510/510/510 509/509/509
f 509/509/509 511/511/511 508/508/508
f 511/511/511 509/509/509 512/512/512
f 512/512/512 513/513/513 511/511/511
f 513/513/513 512/512/512 514/514/514
f 514/514/514 515/515/515 513/513/513
f 515/515/515 514/514/514 516/516/516
f 516/516/516 517/517/517 515/515/515
f 517/517/517 516/516/516 518/518/518
f 518/518/518 519/519/519 517/517/517
f 519/519/519 518/518/518 520/520/520
f 520/520/520 521/521/521 519/519/519
f 521/521/521 520/520/520 522/522/522
f 522/522/522 523/523/523 521/521/521
f 523/523/523 522/522/522 524/524/524
f 524/524/524 525/525/525 523/523/523
f 525/525/525 524/524/524 526/526/526
f 526/526/526 527/527/527 525/525/525
f 527/527/527 526/526/526 528/528/528
f 528/528/528 529/529/529 527/527/527
f 529/529/529 528/528/528 530/530/530
f 530/530/530 531/531/531 529/529/529
f 531/531/531 530/530/530 532/532/532
f 532/532/532 533/533/533 531/531/531
f 533/533/533 532/532/532 534/534/534
f 534/534/534 535/535/535 533/533/533
f 535/535/535 534/534/534 536/536/536
f 536/536/536 537/537/537 535/535/535
f 537/537/537 536/536/536 538/538/538
f 538/538/538 539/539/539 537/537/537
f 539/539/539 538/538/538 540/540/540
f 540/540/540 541/541/541 539/539/539
f 541/541/541 540/540/540 542/542/542
f 542/542/542 543/543/543 541/541/541
f 543/543/543 542/542/542 544/544/544
f 544/544/544 545/545/545 543/543/543
f 545/545/545 544/544/544 546/546/546
f 546/546/546 547/547/547 545/545/545
f 547/547/547 546/546/546 548/548/548
f 548/548/548 549/549/549 547/547/547
