# Generated by tools/yaml_mesh_converter/split_reload_parts.py
mtllib gun34.mtl
o gun34_reload
v 0.0260729995 0.00940705091 -0.309930801
vt 0.979936421 0.0530881584
vn 0.934708197 -0.355403688 -0.00296729886
v 0.0181885008 -0.00859793276 -0.637052178
vt 0.763412535 0.0530881584
vn 0.93470819 -0.355403707 -0.00296730093
v 0.0381379649 0.0441366136 -0.669110179
vt 0.744500816 0.0915420949
vn 0.965793762 -0.25915469 -0.00901415476
v 0.0260729995 0.00940705091 -0.309930801
vt 0.979936421 0.0530881584
vn 0.934708197 -0.355403688 -0.00296729886
v 0.0381379649 0.0441366136 -0.669110179
vt 0.744500816 0.0915420949
vn 0.965793762 -0.25915469 -0.00901415476
v 0.0473997593 0.0652867854 -0.284845829
vt 0.99884814 0.0915420949
vn 0.979853527 -0.199316659 -0.0126465514
v 0.0381379649 0.0441366136 -0.669110179
vt 0.744500816 0.0915420949
vn 0.965793762 -0.25915469 -0.00901415476
v 0.0464406237 0.0950483382 -0.461243689
vt 0.883574426 0.117669538
vn 0.996350529 -0.0831126032 -0.019440126
v 0.0473997593 0.0652867854 -0.284845829
vt 0.99884814 0.0915420949
vn 0.979853527 -0.199316659 -0.0126465514
v 0.0464406237 0.0950483382 -0.461243689
vt 0.883574426 0.117669538
vn 0.996350529 -0.0831126032 -0.019440126
v 0.0381379649 0.0441366136 -0.669110179
vt 0.744500816 0.0915420949
vn 0.965793762 -0.25915469 -0.00901415476
v 0.0413764045 0.0834837258 -0.671353936
vt 0.744500816 0.117669538
vn 0.996350531 -0.083112578 -0.0194401407
v 0.0473997593 0.0652867854 -0.284845829
vt 0.99884814 0.0915420949
vn 0.979853527 -0.199316659 -0.0126465514
v 0.0464406237 0.0950483382 -0.461243689
vt 0.883574426 0.117669538
vn 0.996350529 -0.0831126032 -0.019440126
v 0.0499250516 0.133035749 -0.44506678
vt 0.895677269 0.142225459
vn 0.996350532 -0.0831125674 -0.0194401166
v 0.0473997593 0.0652867854 -0.284845829
vt 0.99884814 0.0915420949
vn 0.979853527 -0.199316659 -0.0126465514
v 0.0499250516 0.133035749 -0.44506678
vt 0.895677269 0.142225459
vn 0.996350532 -0.0831125674 -0.0194401166
v 0.052603364 0.139151931 -0.333945751
vt 0.969228923 0.142225459
vn 0.996350531 -0.0831125794 -0.0194401216
v -0.0469308719 0.073155567 -0.283005357
vt 0.998847306 0.0915426314
vn -0.996611384 -0.0772425786 0.0282724971
v -0.0561926737 0.0520053953 -0.667269707
vt 0.744500816 0.0915426314
vn -0.998211193 -0.0533445967 0.0269956891
v -0.0440258458 -0.00340820104 -0.63583833
vt 0.763412535 0.0530881584
vn -0.980064743 -0.195678961 0.0343924912
v -0.0469308719 0.073155567 -0.283005357
vt 0.998847306 0.0915426314
vn -0.996611384 -0.0772425786 0.0282724971
v -0.0440258458 -0.00340820104 -0.63583833
vt 0.763412535 0.0530881584
vn -0.980064743 -0.195678961 0.0343924912
v -0.0361413434 0.0145967826 -0.308716923
vt 0.979935706 0.0530881584
vn -0.980064746 -0.195678946 0.0343924881
v -0.0469308719 0.073155567 -0.283005357
vt 0.998847306 0.0915426314
vn -0.996611384 -0.0772425786 0.0282724971
v -0.0478900149 0.10291712 -0.459403187
vt 0.88357383 0.117669538
vn -0.996350534 0.0831125417 0.019440148
v -0.0561926737 0.0520053953 -0.667269707
vt 0.744500816 0.0915426314
vn -0.998211193 -0.0533445967 0.0269956891
v -0.0561926737 0.0520053953 -0.667269707
vt 0.744500816 0.0915426314
vn -0.998211193 -0.0533445967 0.0269956891
v -0.0478900149 0.10291712 -0.459403187
vt 0.88357383 0.117669538
vn -0.996350534 0.0831125417 0.019440148
v -0.0529542342 0.0913525075 -0.669513464
vt 0.744500816 0.117669538
vn -0.996350531 0.0831125779 0.019440138
v -0.0469308719 0.073155567 -0.283005357
vt 0.998847306 0.0915426314
vn -0.996611384 -0.0772425786 0.0282724971
v -0.044405587 0.140904531 -0.443226278
vt 0.895677269 0.142225459
vn -0.99635053 0.0831125848 0.0194401739
v -0.0478900149 0.10291712 -0.459403187
vt 0.88357383 0.117669538
vn -0.996350534 0.0831125417 0.019440148
v -0.0469308719 0.073155567 -0.283005357
vt 0.998847306 0.0915426314
vn -0.996611384 -0.0772425786 0.0282724971
v -0.0417272672 0.147020698 -0.332105219
vt 0.969228923 0.142225459
vn -0.996350526 0.0831126266 0.0194401916
v -0.044405587 0.140904531 -0.443226278
vt 0.895677269 0.142225459
vn -0.99635053 0.0831125848 0.0194401739
v -0.0561926737 0.0520053953 -0.667269707
vt 0.152928799 0.35895735
vn -0.0587284097 -0.502246288 -0.862728022
v 0.0381379649 0.0441366136 -0.669110179
vt 0.152928799 0.324961305
vn -0.0587284659 -0.50224634 -0.862727988
v 0.0181885008 -0.00859793276 -0.637052178
vt 0.13037011 0.330748498
vn -0.0587284097 -0.502246288 -0.862728022
v -0.0561926737 0.0520053953 -0.667269707
vt 0.152928799 0.35895735
vn -0.0587284097 -0.502246288 -0.862728022
v 0.0181885008 -0.00859793276 -0.637052178
vt 0.13037011 0.330748498
vn -0.0587284097 -0.502246288 -0.862728022
v -0.0440258458 -0.00340820104 -0.63583833
vt 0.13037011 0.353170037
vn -0.0587283245 -0.502246209 -0.862728074
v -0.0529542342 0.0913525075 -0.669513464
vt 0.167127997 0.35895735
vn -0.0240588266 -0.0549418889 -0.99819966
v 0.0413764045 0.0834837258 -0.671353936
vt 0.167127997 0.324961305
vn -0.0240588266 -0.0549418889 -0.99819966
v 0.0381379649 0.0441366136 -0.669110179
vt 0.152928799 0.324961305
vn -0.0240588266 -0.0549418889 -0.99819966
v -0.0529542342 0.0913525075 -0.669513464
vt 0.167127997 0.35895735
vn -0.0240588266 -0.0549418889 -0.99819966
v 0.0381379649 0.0441366136 -0.669110179
vt 0.152928799 0.324961305
vn -0.0240588266 -0.0549418889 -0.99819966
v -0.0561926737 0.0520053953 -0.667269707
vt 0.152928799 0.35895735
vn -0.0240588266 -0.0549418889 -0.99819966
v -0.0469308719 0.073155567 -0.283005357
vt 0.329464525 0.35895735
vn 0.0620921553 0.549473751 0.833200553
v 0.0473997593 0.0652867854 -0.284845829
vt 0.329464525 0.324961305
vn 0.0620919507 0.549473963 0.833200428
v 0.052603364 0.139151931 -0.333945751
vt 0.297561377 0.324961305
vn 0.0620921553 0.549473751 0.833200553
v -0.0469308719 0.073155567 -0.283005357
vt 0.329464525 0.35895735
vn 0.0620921553 0.549473751 0.833200553
v 0.052603364 0.139151931 -0.333945751
vt 0.297561377 0.324961305
vn 0.0620921553 0.549473751 0.833200553
v -0.0417272672 0.147020698 -0.332105219
vt 0.297561377 0.35895735
vn 0.0620923598 0.549473539 0.833200678
v -0.0361413434 0.0145967826 -0.308716923
vt 0.352022856 0.353170037
vn -0.0158949131 -0.404430452 0.914430621
v 0.0260729995 0.00940705091 -0.309930801
vt 0.352022856 0.330748498
vn -0.0158947189 -0.404430719 0.914430507
v 0.0473997593 0.0652867854 -0.284845829
vt 0.329464525 0.324961305
vn -0.0158949131 -0.404430452 0.914430621
v -0.0361413434 0.0145967826 -0.308716923
vt 0.352022856 0.353170037
vn -0.0158949131 -0.404430452 0.914430621
v 0.0473997593 0.0652867854 -0.284845829
vt 0.329464525 0.324961305
vn -0.0158949131 -0.404430452 0.914430621
v -0.0469308719 0.073155567 -0.283005357
vt 0.329464525 0.35895735
vn -0.0158950411 -0.404430277 0.914430697
v 0.0181885008 -0.00859793276 -0.637052178
vt 0.46969673 0.330748498
vn -0.0818948536 -0.995024485 0.0567407087
v 0.0260729995 0.00940705091 -0.309930801
vt 0.352022856 0.330748498
vn -0.0818948425 -0.995024485 0.0567407106
v -0.0361413434 0.0145967826 -0.308716923
vt 0.352022856 0.353170037
vn -0.0818948536 -0.995024485 0.0567407087
v 0.0181885008 -0.00859793276 -0.637052178
vt 0.46969673 0.330748498
vn -0.0818948536 -0.995024485 0.0567407087
v -0.0361413434 0.0145967826 -0.308716923
vt 0.352022856 0.353170037
vn -0.0818948536 -0.995024485 0.0567407087
v -0.0440258458 -0.00340820104 -0.63583833
vt 0.46969673 0.353170037
vn -0.0818948647 -0.995024484 0.0567407068
v 0.0413764045 0.0834837258 -0.671353936
vt 0.167127997 0.324961305
vn 0.0818949172 0.995024479 -0.0567407137
v -0.0529542342 0.0913525075 -0.669513464
vt 0.167127997 0.35895735
vn 0.0818949262 0.995024479 -0.0567407099
v -0.0478900149 0.10291712 -0.459403187
vt 0.242709965 0.35895735
vn 0.0818949172 0.995024479 -0.0567407137
v 0.0413764045 0.0834837258 -0.671353936
vt 0.167127997 0.324961305
vn 0.0818949172 0.995024479 -0.0567407137
v -0.0478900149 0.10291712 -0.459403187
vt 0.242709965 0.35895735
vn 0.0818949172 0.995024479 -0.0567407137
v 0.0464406237 0.0950483382 -0.461243689
vt 0.242709965 0.324961305
vn 0.0818949082 0.99502448 -0.0567407176
v 0.0464406237 0.0950483382 -0.461243689
vt 0.242709965 0.324961305
vn 0.0146259826 0.390624481 -0.920433917
v -0.0478900149 0.10291712 -0.459403187
vt 0.242709965 0.35895735
vn 0.0146259826 0.390624481 -0.920433917
v -0.044405587 0.140904531 -0.443226278
vt 0.257588357 0.35895735
vn 0.0146259826 0.390624481 -0.920433917
v 0.0464406237 0.0950483382 -0.461243689
vt 0.242709965 0.324961305
vn 0.0146259826 0.390624481 -0.920433917
v -0.044405587 0.140904531 -0.443226278
vt 0.257588357 0.35895735
vn 0.0146259826 0.390624481 -0.920433917
v 0.0499250516 0.133035749 -0.44506678
vt 0.257588357 0.324961305
vn 0.0146259826 0.390624481 -0.920433917
v 0.0499250516 0.133035749 -0.44506678
vt 0.257588357 0.324961305
vn 0.0818948255 0.995024489 -0.0567406775
v -0.044405587 0.140904531 -0.443226278
vt 0.257588357 0.35895735
vn 0.0818949109 0.995024486 -0.0567406078
v -0.0417272672 0.147020698 -0.332105219
vt 0.297561377 0.35895735
vn 0.0818948255 0.995024489 -0.0567406775
v 0.0499250516 0.133035749 -0.44506678
vt 0.257588357 0.324961305
vn 0.0818948255 0.995024489 -0.0567406775
v -0.0417272672 0.147020698 -0.332105219
vt 0.297561377 0.35895735
vn 0.0818948255 0.995024489 -0.0567406775
v 0.052603364 0.139151931 -0.333945751
vt 0.297561377 0.324961305
vn 0.08189474 0.995024492 -0.0567407472
usemtl qiangjian
f 1/1/1 2/2/2 3/3/3
f 4/4/4 5/5/5 6/6/6
f 7/7/7 8/8/8 9/9/9
f 10/10/10 11/11/11 12/12/12
f 13/13/13 14/14/14 15/15/15
f 16/16/16 17/17/17 18/18/18
f 19/19/19 20/20/20 21/21/21
f 22/22/22 23/23/23 24/24/24
f 25/25/25 26/26/26 27/27/27
f 28/28/28 29/29/29 30/30/30
f 31/31/31 32/32/32 33/33/33
f 34/34/34 35/35/35 36/36/36
f 37/37/37 38/38/38 39/39/39
f 40/40/40 41/41/41 42/42/42
f 43/43/43 44/44/44 45/45/45
f 46/46/46 47/47/47 48/48/48
f 49/49/49 50/50/50 51/51/51
f 52/52/52 53/53/53 54/54/54
f 55/55/55 56/56/56 57/57/57
f 58/58/58 59/59/59 60/60/60
f 61/61/61 62/62/62 63/63/63
f 64/64/64 65/65/65 66/66/66
f 67/67/67 68/68/68 69/69/69
f 70/70/70 71/71/71 72/72/72
f 73/73/73 74/74/74 75/75/75
f 76/76/76 77/77/77 78/78/78
f 79/79/79 80/80/80 81/81/81
f 82/82/82 83/83/83 84/84/84
