# Generated from legacy Unity YAML Mesh assets without Unity.
mtllib gun36.mtl

o gun36
v -0.0305149183 -0.00427760184 -0.384308934
v 0.0704294741 0.0595537201 -0.296698004
v -0.00407540053 0.0595537126 -0.384308934
v 0.0221679136 -0.0569604337 -0.296697974
v -0.0216320008 -0.0131604522 0.0175559949
v 0.00848700851 0.059553735 0.0175559875
v 0.0189029276 0.0595537424 0.125277132
v -0.0142674968 -0.0205249339 0.125277132
v 0.0588363856 0.0595537424 0.182858914
v 0.0139700547 -0.0487624854 0.182858914
v 0.0100421011 0.0595537499 0.307017207
v -0.0205326006 -0.0142597854 0.307017207
v -0.00407540053 0.0595537126 -0.384308934
v 0.0221679136 0.176067874 -0.296698004
v -0.0305149183 0.123385042 -0.384308934
v 0.0704294741 0.0595537201 -0.296698004
v 0.00848700851 0.059553735 0.0175559875
v -0.0216320008 0.132267922 0.0175559893
v -0.0142674968 0.139633328 0.125277132
v 0.0189029276 0.0595537424 0.125277132
v 0.0139700547 0.167870864 0.182858914
v 0.0588363856 0.0595537424 0.182858914
v -0.0205326006 0.133367285 0.307017207
v 0.0100421011 0.0595537499 0.307017207
v -0.0305149183 0.123385042 -0.384308934
v -0.0943462327 0.224330351 -0.296697974
v -0.0943462476 0.14982456 -0.384308934
v 0.0221679136 0.176067874 -0.296698004
v -0.0216320008 0.132267922 0.0175559893
v -0.0943461806 0.162387848 0.0175559986
v -0.0943461657 0.172802836 0.125277132
v -0.0142674968 0.139633328 0.125277132
v -0.0943461582 0.212737188 0.182858914
v 0.0139700547 0.167870864 0.182858914
v -0.0943461359 0.163941994 0.307017207
v -0.0205326006 0.133367285 0.307017207
v -0.0943462476 0.14982456 -0.384308934
v -0.210860372 0.176067874 -0.296697944
v -0.158177584 0.123385042 -0.384308934
v -0.0943462327 0.224330351 -0.296697974
v -0.0943461806 0.162387848 0.0175559986
v -0.16706036 0.132267922 0.0175560117
v -0.174424827 0.139633328 0.125277162
v -0.0943461657 0.172802836 0.125277132
v -0.202662379 0.167870864 0.182858944
v -0.0943461582 0.212737188 0.182858914
v -0.168159664 0.133367285 0.307017207
v -0.0943461359 0.163941994 0.307017207
v -0.158177584 0.123385042 -0.384308934
v -0.259121954 0.0595537201 -0.296697944
v -0.184617102 0.0595537126 -0.384308904
v -0.210860372 0.176067874 -0.296697944
v -0.16706036 0.132267922 0.0175560117
v -0.197179377 0.059553735 0.017556021
v -0.207595259 0.0595537424 0.125277162
v -0.174424827 0.139633328 0.125277162
v -0.247528687 0.0595537424 0.182858944
v -0.202662379 0.167870864 0.182858944
v -0.198734373 0.0595537499 0.307017237
v -0.168159664 0.133367285 0.307017207
v -0.184617102 0.0595537126 -0.384308904
v -0.210860372 -0.0569604337 -0.296697944
v -0.158177584 -0.00427760184 -0.384308904
v -0.259121954 0.0595537201 -0.296697944
v -0.197179377 0.059553735 0.017556021
v -0.16706036 -0.0131604522 0.0175560191
v -0.174424827 -0.0205249339 0.125277162
v -0.207595259 0.0595537424 0.125277162
v -0.202663273 -0.0487624854 0.182858944
v -0.247528687 0.0595537424 0.182858944
v -0.168159664 -0.0142597854 0.307017237
v -0.198734373 0.0595537499 0.307017237
v -0.158177584 -0.00427760184 -0.384308904
v -0.0943462327 -0.105222002 -0.296697974
v -0.0943462476 -0.0307171196 -0.384308934
v -0.210860372 -0.0569604337 -0.296697944
v -0.16706036 -0.0131604522 0.0175560191
v -0.0943461806 -0.0432794541 0.017556008
v -0.0943461657 -0.0536953658 0.125277147
v -0.174424827 -0.0205249339 0.125277162
v -0.0943461582 -0.0936287791 0.182858944
v -0.202663273 -0.0487624854 0.182858944
v -0.0943461359 -0.0448335707 0.307017207
v -0.168159664 -0.0142597854 0.307017237
v -0.0943462476 -0.0307171196 -0.384308934
v 0.0221679136 -0.0569604337 -0.296697974
v -0.0305149183 -0.00427760184 -0.384308934
v -0.0943462327 -0.105222002 -0.296697974
v -0.0943461806 -0.0432794541 0.017556008
v -0.0216320008 -0.0131604522 0.0175559949
v -0.0142674968 -0.0205249339 0.125277132
v -0.0943461657 -0.0536953658 0.125277147
v 0.0139700547 -0.0487624854 0.182858914
v -0.0943461582 -0.0936287791 0.182858944
v -0.0205326006 -0.0142597854 0.307017207
v -0.0943461359 -0.0448335707 0.307017207
v -0.00407540053 0.0595537126 -0.384308934
v -0.0943462476 0.0595537126 -0.384308934
v -0.0305149183 -0.00427760184 -0.384308934
v -0.0305149183 0.123385042 -0.384308934
v -0.0943462476 0.0595537126 -0.384308934
v -0.00407540053 0.0595537126 -0.384308934
v -0.0943462476 0.14982456 -0.384308934
v -0.0943462476 0.0595537126 -0.384308934
v -0.0305149183 0.123385042 -0.384308934
v -0.158177584 0.123385042 -0.384308934
v -0.0943462476 0.0595537126 -0.384308934
v -0.0943462476 0.14982456 -0.384308934
v -0.184617102 0.0595537126 -0.384308904
v -0.0943462476 0.0595537126 -0.384308934
v -0.158177584 0.123385042 -0.384308934
v -0.158177584 -0.00427760184 -0.384308904
v -0.0943462476 0.0595537126 -0.384308934
v -0.184617102 0.0595537126 -0.384308904
v -0.0943462476 -0.0307171196 -0.384308934
v -0.0943462476 0.0595537126 -0.384308934
v -0.158177584 -0.00427760184 -0.384308904
v -0.0305149183 -0.00427760184 -0.384308934
v -0.0943462476 0.0595537126 -0.384308934
v -0.0943462476 -0.0307171196 -0.384308934
v -0.0205326006 -0.0142597854 0.307017207
v -0.0943461359 0.0595537499 0.307017207
v 0.0100421011 0.0595537499 0.307017207
v 0.0100421011 0.0595537499 0.307017207
v -0.0943461359 0.0595537499 0.307017207
v -0.0205326006 0.133367285 0.307017207
v -0.0205326006 0.133367285 0.307017207
v -0.0943461359 0.0595537499 0.307017207
v -0.0943461359 0.163941994 0.307017207
v -0.0943461359 0.163941994 0.307017207
v -0.0943461359 0.0595537499 0.307017207
v -0.168159664 0.133367285 0.307017207
v -0.168159664 0.133367285 0.307017207
v -0.0943461359 0.0595537499 0.307017207
v -0.198734373 0.0595537499 0.307017237
v -0.198734373 0.0595537499 0.307017237
v -0.0943461359 0.0595537499 0.307017207
v -0.168159664 -0.0142597854 0.307017237
v -0.168159664 -0.0142597854 0.307017237
v -0.0943461359 0.0595537499 0.307017207
v -0.0943461359 -0.0448335707 0.307017207
v -0.0943461359 -0.0448335707 0.307017207
v -0.0943461359 0.0595537499 0.307017207
v -0.0205326006 -0.0142597854 0.307017207
v 0.0160110295 -0.0476163626 -0.028462857
v 0.0528270304 0.0930945873 0.0576847047
v 0.0694456846 0.0930945873 -0.0399506241
v 0.00481393933 -0.0364192575 0.0576847196
v 0.00481393933 0.24728477 0.0576847084
v 0.016011022 0.25848186 -0.0727478713
v -0.094346188 -0.0933280438 -0.0284628347
v -0.0943461806 -0.0774923712 0.0576847382
v -0.20470342 0.25848186 -0.072747834
v -0.241519392 0.0930945873 0.0576847568
v -0.258138061 0.0930945873 -0.039950572
v -0.1935063 0.24728477 0.0576847419
v -0.1935063 -0.0364192575 0.0576847531
v -0.204703405 -0.0476163626 -0.0284628198
v -0.0943461806 -0.0774923712 0.0576847382
v -0.094346188 -0.0933280438 -0.0284628347
v 0.0694456846 0.0930945873 -0.0399506241
v -0.094346188 -0.0933280438 -0.0284628347
v 0.0160110295 -0.0476163626 -0.028462857
v 0.016011022 0.25848186 -0.0727478713
v -0.20470342 0.25848186 -0.072747834
v -0.258138061 0.0930945873 -0.039950572
v -0.204703405 -0.0476163626 -0.0284628198
v 0.00481393933 -0.0364192575 0.0576847196
v -0.0943461806 -0.0774923712 0.0576847382
v 0.0528270304 0.0930945873 0.0576847047
v 0.00481393933 0.24728477 0.0576847084
v -0.1935063 0.24728477 0.0576847419
v -0.241519392 0.0930945873 0.0576847568
v -0.1935063 -0.0364192575 0.0576847531
v -0.0943462029 0.361126184 -0.110408328
v -0.171901584 0.347284764 -0.161635101
v -0.0943461955 0.40646562 -0.0685732514
v -0.0167908296 0.347284764 -0.161635131
v -0.0943461955 0.40646562 -0.0685732514
v -0.0943462253 0.391550481 -0.252045304
v -0.0649414808 0.379135787 -0.252085656
v -0.0167908296 0.347284764 -0.161635131
v -0.0572331585 0.342807591 -0.25206548
v -0.171901584 0.347284764 -0.161635101
v -0.123750977 0.379135787 -0.252085656
v -0.0943461955 0.40646562 -0.0685732514
v -0.0943462253 0.391550481 -0.252045304
v -0.131459296 0.342807591 -0.25206548
v -0.0943462253 0.391550481 -0.252045304
v -0.131459296 0.342807591 -0.25206548
v -0.0943462253 0.342747986 -0.25206548
v -0.123750977 0.379135787 -0.252085656
v -0.0943462253 0.391550481 -0.252045304
v -0.0572331585 0.342807591 -0.25206548
v -0.0649414808 0.379135787 -0.252085656
v -0.0943462253 0.342747986 -0.25206548
v -0.105685391 0.473234653 0.0608819202
v -0.208999038 0.365747333 -0.00115410611
v -0.105685391 0.49540329 0.0443430096
v -0.208999038 0.350761622 0.0100255702
v -0.143565923 0.344134331 -0.115057878
v -0.0943461806 0.476088047 0.0587538108
v -0.0943461806 0.49825573 0.0422148965
v -0.0943462104 0.353854299 -0.125089616
v -0.0830069631 0.473234653 0.0608819164
v 0.0203066692 0.350761622 0.0100255329
v -0.0943461806 0.476088047 0.0587538108
v -0.0451264866 0.344134331 -0.115057893
v -0.0830069631 0.473234653 0.0608819164
v 0.0203066692 0.365747333 -0.00115414336
v 0.0203066692 0.350761622 0.0100255329
v -0.0830069631 0.49540329 0.0443430021
v -0.0943461806 0.476088047 0.0587538108
v -0.0943461806 0.49825573 0.0422148965
v -0.0451264866 0.344134331 -0.115057893
v -0.0943462104 0.36118117 -0.165073454
v -0.0451264866 0.344134331 -0.115057893
v -0.0943462029 0.387220025 -0.0783014894
v -0.0943461955 0.428774536 -0.0614288226
v 0.0203066692 0.365747333 -0.00115414336
v -0.0830069631 0.49540329 0.0443430021
v -0.0943461806 0.49825573 0.0422148965
v -0.0943461806 0.49825573 0.0422148965
v -0.105685391 0.49540329 0.0443430096
v -0.0943461955 0.428774536 -0.0614288226
v -0.208999038 0.365747333 -0.00115410611
v -0.143565923 0.344134331 -0.115057878
v -0.0943462029 0.387220025 -0.0783014894
v -0.0943462104 0.36118117 -0.165073454
v -0.0943462104 0.353854299 -0.125089616
v -0.105685391 0.473234653 0.0608819202
v -0.0943461806 0.476088047 0.0587538108
v -0.208999038 0.350761622 0.0100255702
v -0.143565923 0.344134331 -0.115057878
v -0.105685376 0.44312942 0.164330333
v -0.208999038 0.347420484 0.0853253901
v -0.105685376 0.467733324 0.151697397
v -0.208999038 0.330788046 0.0938653275
v -0.143565908 0.344998956 -0.0305854529
v -0.0943461582 0.44629544 0.162704676
v -0.0943461657 0.470900238 0.15007174
v -0.0943461955 0.356248319 -0.0388659239
v -0.0830069482 0.44312942 0.164330333
v 0.0203066841 0.330788046 0.0938652903
v -0.0943461582 0.44629544 0.162704676
v -0.0451264717 0.344998956 -0.0305854678
v -0.0830069482 0.44312942 0.164330333
v 0.0203066841 0.347420484 0.0853253454
v 0.0203066841 0.330788046 0.0938652903
v -0.0830069482 0.467733324 0.151697397
v -0.0943461582 0.44629544 0.162704676
v -0.0943461657 0.470900238 0.15007174
v -0.0451264717 0.344998956 -0.0305854678
v -0.0943461657 0.470900238 0.15007174
v -0.0943462029 0.370105326 -0.0770810992
v -0.0830069482 0.467733324 0.151697397
v -0.0451264717 0.344998956 -0.0305854678
v 0.0203066841 0.347420484 0.0853253454
v -0.0943461657 0.470900238 0.15007174
v -0.105685376 0.467733324 0.151697397
v -0.0943462029 0.370105326 -0.0770810992
v -0.143565908 0.344998956 -0.0305854529
v -0.208999038 0.347420484 0.0853253901
v -0.0943461955 0.356248319 -0.0388659239
v -0.105685376 0.44312942 0.164330333
v -0.0943461582 0.44629544 0.162704676
v -0.208999038 0.330788046 0.0938653275
v -0.0943461955 0.356248319 -0.0388659239
v -0.143565908 0.344998956 -0.0305854529
v -0.208999038 0.330788046 0.0938653275
v -0.105685361 0.397570848 0.245910883
v -0.208999008 0.312528133 0.155524537
v -0.105685361 0.423565686 0.236464143
v -0.208999008 0.294955879 0.161909774
v -0.143565893 0.32466501 0.0402252562
v -0.0943461433 0.400915682 0.244695067
v -0.0943461508 0.42691052 0.235248327
v -0.0943461806 0.336864293 0.0334219038
v -0.0830069333 0.397570848 0.245910883
v 0.020306699 0.294955879 0.161909729
v -0.0943461433 0.400915682 0.244695067
v -0.0451264605 0.32466501 0.0402252413
v -0.0830069333 0.397570848 0.245910883
v 0.020306699 0.312528133 0.155524492
v 0.020306699 0.294955879 0.161909729
v -0.0830069333 0.423565686 0.236464143
v -0.0943461433 0.400915682 0.244695067
v -0.0943461508 0.42691052 0.235248327
v -0.0451264605 0.32466501 0.0402252413
v -0.0943461508 0.42691052 0.235248327
v -0.094346188 0.355405688 -0.00275318325
v -0.0830069333 0.423565686 0.236464143
v -0.0451264605 0.32466501 0.0402252413
v 0.020306699 0.312528133 0.155524492
v -0.0943461508 0.42691052 0.235248327
v -0.105685361 0.423565686 0.236464143
v -0.094346188 0.355405688 -0.00275318325
v -0.143565893 0.32466501 0.0402252562
v -0.208999008 0.312528133 0.155524537
v -0.0943461806 0.336864293 0.0334219038
v -0.105685361 0.397570848 0.245910883
v -0.0943461433 0.400915682 0.244695067
v -0.208999008 0.294955879 0.161909774
v -0.0943461806 0.336864293 0.0334219038
v -0.143565893 0.32466501 0.0402252562
v -0.208999008 0.294955879 0.161909774
v -0.185312092 0.226506144 -0.350393981
v -0.270154893 0.215920612 -0.238330394
v -0.258546144 0.192420647 -0.238330394
v -0.185312092 0.251198053 -0.353325278
v -0.258602053 0.224770471 -0.194255352
v -0.276793212 0.255914569 -0.194255352
v -0.323968232 0.154993102 -0.0480989888
v -0.336051971 0.182664931 -0.0480989888
v -0.142966315 0.297890842 -0.36216411
v -0.151400819 0.258380085 -0.36216411
v -0.104259707 0.215823412 -0.47750926
v -0.10616868 0.195854411 -0.473828852
v -0.281381309 0.177701786 0.0397824273
v -0.290021181 0.198605105 0.0397824273
v -0.247649729 0.21698606 0.0397824198
v -0.255484581 0.277406543 0.0397824161
v -0.267435342 0.178281263 0.105252236
v -0.283367276 0.207962006 0.117154419
v -0.246260613 0.249016792 0.229216129
v -0.323968232 0.154993102 -0.0480989888
v -0.281381309 0.177701786 0.0397824273
v -0.247649729 0.21698606 0.0397824198
v -0.0943462327 0.283339739 -0.266270906
v -0.0943461731 0.245099828 0.105252206
v -0.267435342 0.178281263 0.105252236
v -0.246260613 0.249016792 0.229216129
v -0.0943461657 0.297361791 0.145455196
v -0.258602053 0.224770471 -0.194255352
v -0.258546144 0.192420647 -0.238330394
v -0.185312092 0.226506144 -0.350393981
v -0.151400819 0.258380085 -0.36216411
v -0.10616868 0.195854411 -0.473828852
v -0.0943462625 0.200102374 -0.475473762
v -0.0943461955 0.372256339 -0.0609667078
v -0.0943461657 0.297361791 0.145455196
v -0.200884551 0.346557677 -0.0526999906
v -0.246260613 0.249016792 0.229216129
v -0.255484581 0.277406543 0.0397824161
v -0.0943462253 0.343365043 -0.25206548
v -0.167396903 0.343365043 -0.25206548
v -0.0943462476 0.298188806 -0.36216411
v -0.283367276 0.207962006 0.117154419
v -0.276793212 0.255914569 -0.194255352
v -0.270154893 0.215920612 -0.238330394
v -0.185312092 0.251198053 -0.353325278
v -0.336051971 0.182664931 -0.0480989888
v -0.290021181 0.198605105 0.0397824273
v -0.142966315 0.297890842 -0.36216411
v -0.0943462625 0.217232674 -0.479629993
v -0.104259707 0.215823412 -0.47750926
v -0.0943462625 0.217232674 -0.479629993
v -0.10616868 0.195854411 -0.473828852
v -0.0943462625 0.200102374 -0.475473762
v -0.104259707 0.215823412 -0.47750926
v -0.07451839 -0.000740215182 -0.0605678409
v -0.210947454 -0.0565624684 -0.0487756655
v -0.127247065 0.0241259038 -0.0565518439
v -0.173073351 -0.0950453728 -0.0487756729
v -0.0372586362 -0.0408762842 -0.156785667
v -0.147680029 -0.1458119 -0.140641898
v -0.103052124 -0.0288237333 -0.245980084
v -0.198035792 -0.119614437 -0.232509047
v -0.130083039 0.0213321298 -0.249443173
v -0.235910803 -0.0811315328 -0.232509047
v -0.248822451 -0.0180804878 -0.048775658
v -0.151315495 0.0772891864 -0.0605678335
v -0.299179137 0.0081178695 -0.140641868
v -0.190852851 0.115182526 -0.156785637
v -0.2737858 -0.0426495671 -0.232508123
v -0.179849237 0.0492056608 -0.245980054
v -0.235910803 -0.0811315328 -0.232509047
v -0.130083039 0.0213321298 -0.249443173
v -0.248822451 -0.0180804878 -0.048775658
v -0.223429129 -0.0688470304 -0.140641898
v -0.299179137 0.0081178695 -0.140641868
v -0.210947454 -0.0565624684 -0.0487756655
v -0.235910803 -0.0811315328 -0.232509047
v -0.2737858 -0.0426495671 -0.232508123
v -0.223429129 -0.0688470304 -0.140641898
v -0.173073351 -0.0950453728 -0.0487756729
v -0.147680029 -0.1458119 -0.140641898
v -0.210947454 -0.0565624684 -0.0487756655
v -0.198035792 -0.119614437 -0.232509047
v -0.235910803 -0.0811315328 -0.232509047
v -0.00338040292 0.226506144 -0.350394011
v 0.0814624578 0.215920612 -0.238330454
v -0.00338040292 0.251198053 -0.353325307
v 0.0698536932 0.192420647 -0.238330454
v 0.0699096024 0.224770471 -0.194255412
v 0.0881007612 0.255914569 -0.194255412
v 0.135275841 0.154993102 -0.0480990633
v 0.14735958 0.182664931 -0.0480990633
v -0.0457261764 0.297890842 -0.36216411
v -0.0372916758 0.258380085 -0.36216411
v -0.084432818 0.215823412 -0.47750926
v -0.0825238526 0.195854411 -0.473828852
v 0.0926889479 0.177701786 0.0397823639
v 0.10132882 0.198605105 0.0397823639
v 0.0589573681 0.21698606 0.0397823676
v 0.0667922199 0.277406543 0.0397823639
v 0.0787430108 0.178281263 0.105252177
v 0.0946749449 0.207962006 0.11715436
v 0.0575683117 0.249016792 0.229216069
v 0.135275841 0.154993102 -0.0480990633
v 0.0589573681 0.21698606 0.0397823676
v 0.0926889479 0.177701786 0.0397823639
v -0.0943462327 0.283339739 -0.266270906
v -0.0943461731 0.245099828 0.105252206
v 0.0787430108 0.178281263 0.105252177
v 0.0575683117 0.249016792 0.229216069
v -0.0943461657 0.297361791 0.145455196
v 0.0699096024 0.224770471 -0.194255412
v 0.0698536932 0.192420647 -0.238330454
v -0.00338040292 0.226506144 -0.350394011
v -0.0372916758 0.258380085 -0.36216411
v -0.0825238526 0.195854411 -0.473828852
v -0.0943462625 0.200102374 -0.475473762
v -0.0943461955 0.372256339 -0.0609667078
v 0.0121921599 0.346557677 -0.0527000204
v -0.0943461657 0.297361791 0.145455196
v 0.0575683117 0.249016792 0.229216069
v 0.0667922199 0.277406543 0.0397823639
v -0.0943462253 0.343365043 -0.25206548
v -0.02129554 0.343365043 -0.25206551
v -0.0943462476 0.298188806 -0.36216411
v 0.0946749449 0.207962006 0.11715436
v 0.0881007612 0.255914569 -0.194255412
v 0.0814624578 0.215920612 -0.238330454
v -0.00338040292 0.251198053 -0.353325307
v 0.14735958 0.182664931 -0.0480990633
v 0.10132882 0.198605105 0.0397823639
v -0.0457261764 0.297890842 -0.36216411
v -0.0943462625 0.217232674 -0.479629993
v -0.084432818 0.215823412 -0.47750926
v -0.0943462625 0.217232674 -0.479629993
v -0.0825238526 0.195854411 -0.473828852
v -0.084432818 0.215823412 -0.47750926
v -0.0943462625 0.200102374 -0.475473762
v -0.301365793 0.210036948 0.557346404
v -0.185839176 0.255353451 0.395157218
v -0.185839176 0.196628302 0.395157218
v -0.301365793 0.222537875 0.557346404
v -0.181749851 0.196628302 0.35412991
v -0.181749851 0.255353451 0.35412991
v -0.146311954 0.196628302 0.324291468
v -0.146311954 0.255353451 0.324291468
v -0.154350355 0.231644437 0.267970413
v -0.154350355 0.208449796 0.267970443
v -0.162388772 0.204629108 0.211650282
v -0.162388772 0.227433145 0.211650282
v -0.139117122 0.204629108 0.18658334
v -0.139117122 0.227433145 0.18658334
v -0.122899145 0.181455538 -0.0253078118
v -0.15473637 0.255353451 0.293869883
v -0.216210365 0.23278597 0.283613533
v -0.185839176 0.255353451 0.395157218
v -0.301365793 0.222537875 0.557346404
v -0.181749851 0.255353451 0.35412991
v -0.146311954 0.255353451 0.324291468
v -0.15473637 0.255353451 0.293869883
v -0.154350355 0.231644437 0.267970413
v -0.208629489 0.21219255 0.25979358
v -0.162388772 0.227433145 0.211650282
v -0.122899145 0.181455538 -0.0253078118
v -0.183368221 0.172455326 0.000730112195
v -0.208629489 0.194594622 0.25979358
v -0.254404426 0.152665123 0.298817486
v -0.254404426 0.181341857 0.298817486
v -0.301365793 0.210036948 0.557346404
v -0.139117122 0.227433145 0.18658334
v -0.301365793 0.210036948 0.557346404
v -0.185839176 0.196628302 0.395157218
v -0.254404426 0.152665123 0.298817486
v -0.208629489 0.194594622 0.25979358
v -0.181749851 0.196628302 0.35412991
v -0.154350355 0.208449796 0.267970443
v -0.162388772 0.204629108 0.211650282
v -0.146311954 0.196628302 0.324291468
v -0.122899145 0.181455538 -0.0253078118
v -0.139117122 0.204629108 0.18658334
v -0.183368221 0.172455326 0.000730112195
v 0.112673625 0.210036948 0.557346284
v -0.00285305828 0.255353451 0.395157188
v 0.112673625 0.222537875 0.557346284
v -0.00285305828 0.196628302 0.395157188
v -0.0069424063 0.196628302 0.354129881
v -0.0069424063 0.255353451 0.354129881
v -0.0423803218 0.196628302 0.324291468
v -0.0423803218 0.255353451 0.324291468
v -0.0343419276 0.231644437 0.267970413
v -0.0343419276 0.208449796 0.267970413
v -0.0263035372 0.204629108 0.211650252
v -0.0263035372 0.227433145 0.211650252
v -0.0495752022 0.204629108 0.18658334
v -0.0495752022 0.227433145 0.18658334
v -0.0657932311 0.181455538 -0.0253078267
v -0.0339559168 0.255353451 0.293869883
v 0.0275180712 0.23278597 0.283613503
v -0.00285305828 0.255353451 0.395157188
v -0.0069424063 0.255353451 0.354129881
v 0.112673625 0.222537875 0.557346284
v -0.0423803218 0.255353451 0.324291468
v -0.0339559168 0.255353451 0.293869883
v -0.0343419276 0.231644437 0.267970413
v 0.0199372023 0.21219255 0.25979355
v -0.0263035372 0.227433145 0.211650252
v -0.0657932311 0.181455538 -0.0253078267
v -0.00532415509 0.172455326 0.000730082393
v 0.0199372023 0.194594622 0.25979355
v 0.0657121688 0.152665123 0.298817426
v 0.112673625 0.210036948 0.557346284
v 0.0657121688 0.181341857 0.298817426
v -0.0495752022 0.227433145 0.18658334
v 0.112673625 0.210036948 0.557346284
v 0.0657121688 0.152665123 0.298817426
v -0.00285305828 0.196628302 0.395157188
v 0.0199372023 0.194594622 0.25979355
v -0.0069424063 0.196628302 0.354129881
v -0.0343419276 0.208449796 0.267970413
v -0.0263035372 0.204629108 0.211650252
v -0.0423803218 0.196628302 0.324291468
v -0.0657932311 0.181455538 -0.0253078267
v -0.0495752022 0.204629108 0.18658334
v -0.00532415509 0.172455326 0.000730082393
vt 0.0194799993 0.500068665
vt 0.0842709988 0.577189207
vt 0.0664300025 0.500068665
vt 0.00163800002 0.577189207
vt 0.0172080006 0.794453919
vt 0.068700999 0.794453919
vt 0.0725760013 0.870744586
vt 0.0133339996 0.870744586
vt 0.0815320015 0.911525428
vt 0.00437700003 0.911525428
vt 0.0712350011 0.997981071
vt 0.0146740004 0.997981071
vt 0.0194799993 0.500068665
vt 0.0842709988 0.577189207
vt 0.0664300025 0.500068665
vt 0.00163800002 0.577189207
vt 0.0172080006 0.794453919
vt 0.068700999 0.794453919
vt 0.0725760013 0.870744586
vt 0.0133339996 0.870744586
vt 0.0815320015 0.911525428
vt 0.00437700003 0.911525428
vt 0.0712350011 0.997981071
vt 0.0146740004 0.997981071
vt 0.0194799993 0.500068665
vt 0.0842709988 0.577189207
vt 0.0664300025 0.500068665
vt 0.00163800002 0.577189207
vt 0.0172080006 0.794453919
vt 0.068700999 0.794453919
vt 0.0725760013 0.870744586
vt 0.0133339996 0.870744586
vt 0.0815320015 0.911525428
vt 0.00437700003 0.911525428
vt 0.0712350011 0.997981071
vt 0.0146740004 0.997981071
vt 0.0194799993 0.500068665
vt 0.0842709988 0.577189207
vt 0.0664300025 0.500068665
vt 0.00163800002 0.577189207
vt 0.0172080006 0.794453919
vt 0.068700999 0.794453919
vt 0.0725760013 0.870744586
vt 0.0133339996 0.870744586
vt 0.0815320015 0.911525428
vt 0.00437700003 0.911525428
vt 0.0712350011 0.997981071
vt 0.0146740004 0.997981071
vt 0.0194799993 0.500068665
vt 0.0842709988 0.577189207
vt 0.0664300025 0.500068665
vt 0.00163800002 0.577189207
vt 0.0172080006 0.794453919
vt 0.068700999 0.794453919
vt 0.0725760013 0.870744586
vt 0.0133339996 0.870744586
vt 0.0815320015 0.911525428
vt 0.00437700003 0.911525428
vt 0.0712350011 0.997981071
vt 0.0146740004 0.997981071
vt 0.0194799993 0.500068665
vt 0.0842709988 0.577189207
vt 0.0664300025 0.500068665
vt 0.00163800002 0.577189207
vt 0.0172080006 0.794453919
vt 0.068700999 0.794453919
vt 0.0725760013 0.870744586
vt 0.0133339996 0.870744586
vt 0.0815320015 0.911525428
vt 0.00437700003 0.911525428
vt 0.0712350011 0.997981071
vt 0.0146740004 0.997981071
vt 0.0194799993 0.500068665
vt 0.0842709988 0.577189207
vt 0.0664300025 0.500068665
vt 0.00163800002 0.577189207
vt 0.0172080006 0.794453919
vt 0.068700999 0.794453919
vt 0.0725760013 0.870744586
vt 0.0133339996 0.870744586
vt 0.0815320015 0.911525428
vt 0.00437700003 0.911525428
vt 0.0712350011 0.997981071
vt 0.0146740004 0.997981071
vt 0.0194799993 0.500068665
vt 0.0842709988 0.577189207
vt 0.0664300025 0.500068665
vt 0.00163800002 0.577189207
vt 0.0172080006 0.794453919
vt 0.068700999 0.794453919
vt 0.0725760013 0.870744586
vt 0.0133339996 0.870744586
vt 0.0815320015 0.911525428
vt 0.00437700003 0.911525428
vt 0.0712350011 0.997981071
vt 0.0146740004 0.997981071
vt 0.0821689963 0.500068665
vt 0.106829002 0.563809633
vt 0.131490007 0.500068665
vt 0.0821689963 0.500068665
vt 0.106829002 0.563809633
vt 0.131490007 0.500068665
vt 0.0821689963 0.500068665
vt 0.106829002 0.563809633
vt 0.131490007 0.500068665
vt 0.0821689963 0.500068665
vt 0.106829002 0.563809633
vt 0.131490007 0.500068665
vt 0.0821689963 0.500068665
vt 0.106829002 0.563809633
vt 0.131490007 0.500068665
vt 0.0821689963 0.500068665
vt 0.106829002 0.563809633
vt 0.131490007 0.500068665
vt 0.0821689963 0.500068665
vt 0.106829002 0.563809633
vt 0.131490007 0.500068665
vt 0.0821689963 0.500068665
vt 0.106829002 0.563809633
vt 0.131490007 0.500068665
vt 0.0821689963 0.500068665
vt 0.106829002 0.563809633
vt 0.131490007 0.500068665
vt 0.0821689963 0.500068665
vt 0.106829002 0.563809633
vt 0.131490007 0.500068665
vt 0.0821689963 0.500068665
vt 0.106829002 0.563809633
vt 0.131490007 0.500068665
vt 0.0821689963 0.500068665
vt 0.106829002 0.563809633
vt 0.131490007 0.500068665
vt 0.0821689963 0.500068665
vt 0.106829002 0.563809633
vt 0.131490007 0.500068665
vt 0.0821689963 0.500068665
vt 0.106829002 0.563809633
vt 0.131490007 0.500068665
vt 0.0821689963 0.500068665
vt 0.106829002 0.563809633
vt 0.131490007 0.500068665
vt 0.0821689963 0.500068665
vt 0.106829002 0.563809633
vt 0.131490007 0.500068665
vt 0.641912997 0.544528246
vt 0.568786979 0.601595044
vt 0.568938017 0.536603928
vt 0.640290976 0.601595044
vt 0.468349993 0.601595044
vt 0.46707499 0.512832284
vt 0.717733979 0.546186566
vt 0.712674022 0.601595044
vt 0.46707499 0.512832284
vt 0.568786979 0.601595044
vt 0.568938017 0.536603928
vt 0.468349993 0.601595044
vt 0.640290976 0.601595044
vt 0.641912997 0.544528246
vt 0.712674022 0.601595044
vt 0.717733979 0.546186566
vt 0.177149996 0.75357157
vt 0.232749 0.668501139
vt 0.195288002 0.688884079
vt 0.195288002 0.829673588
vt 0.271135986 0.829673588
vt 0.289402992 0.75357157
vt 0.271135986 0.688884079
vt 0.271135986 0.688884079
vt 0.232749 0.668501139
vt 0.289402992 0.753155887
vt 0.271135986 0.829673588
vt 0.195288002 0.829673588
vt 0.177149996 0.753155887
vt 0.195288002 0.688884079
vt 0.649473011 0.980168402
vt 0.617506981 0.903665662
vt 0.637555003 0.988799095
vt 0.617493987 0.903674603
vt 0.547124982 0.997012496
vt 0.548972011 0.858976305
vt 0.524567008 0.858976305
vt 0.483076006 0.927577257
vt 0.496587992 0.84888798
vt 0.483076006 0.927575767
vt 0.524567008 0.858976305
vt 0.547124982 0.997012496
vt 0.548972011 0.858976305
vt 0.496587992 0.848886907
vt 0.757149994 0.713587582
vt 0.678673029 0.612996101
vt 0.757149994 0.626084447
vt 0.694757998 0.687669933
vt 0.757149994 0.713587582
vt 0.678673029 0.612996101
vt 0.694757998 0.687669456
vt 0.757149994 0.626084447
vt 0.607770979 0.851625741
vt 0.683021009 0.719346881
vt 0.583666027 0.850426197
vt 0.699316025 0.720157743
vt 0.64409101 0.609843075
vt 0.604176998 0.86178571
vt 0.580072999 0.862088323
vt 0.558396995 0.788972259
vt 0.548690021 0.607744992
vt 0.444795012 0.698611319
vt 0.558396995 0.607744992
vt 0.516627014 0.788972259
vt 0.607770979 0.851625741
vt 0.683021009 0.719346881
vt 0.699316025 0.720157743
vt 0.583666027 0.850426197
vt 0.604176998 0.86178571
vt 0.580072999 0.862088323
vt 0.64409101 0.609843075
vt 0.559723973 0.60683161
vt 0.609870017 0.63965106
vt 0.559723973 0.679897189
vt 0.559723973 0.714753628
vt 0.677386999 0.719519436
vt 0.573925018 0.81035018
vt 0.559723973 0.81035018
vt 0.559723973 0.81035018
vt 0.573925018 0.81035018
vt 0.559723973 0.714753628
vt 0.677386999 0.719519436
vt 0.609870017 0.63965106
vt 0.559723973 0.679897189
vt 0.559723973 0.60683161
vt 0.558396995 0.788972259
vt 0.548690021 0.607744992
vt 0.558396995 0.607744992
vt 0.444795012 0.698612273
vt 0.516627014 0.788972259
vt 0.607770979 0.851625741
vt 0.683021009 0.719346881
vt 0.583666027 0.850426197
vt 0.699316025 0.720157743
vt 0.64409101 0.609843075
vt 0.604176998 0.86178571
vt 0.580072999 0.862088323
vt 0.558396995 0.788972259
vt 0.548690021 0.607744992
vt 0.444795012 0.698611319
vt 0.558396995 0.607744992
vt 0.516627014 0.788972259
vt 0.607770979 0.851625741
vt 0.683021009 0.719346881
vt 0.699316025 0.720157743
vt 0.583666027 0.850426197
vt 0.604176998 0.86178571
vt 0.580072999 0.862088323
vt 0.64409101 0.609843075
vt 0.559723973 0.81035018
vt 0.559723973 0.60683161
vt 0.573925018 0.81035018
vt 0.609870017 0.63965106
vt 0.677386999 0.719519436
vt 0.559723973 0.81035018
vt 0.573925018 0.81035018
vt 0.559723973 0.60683161
vt 0.609870017 0.63965106
vt 0.677386999 0.719519436
vt 0.558396995 0.788972259
vt 0.548690021 0.607744992
vt 0.558396995 0.607744992
vt 0.444795012 0.698612273
vt 0.0194799993 0.500068665
vt 0.0194799993 0.500068665
vt 0.0194799993 0.500068665
vt 0.607770979 0.851625741
vt 0.683021009 0.719346881
vt 0.583666027 0.850426197
vt 0.699316025 0.720157743
vt 0.64409101 0.609843075
vt 0.604176998 0.86178571
vt 0.580072999 0.862088323
vt 0.558396995 0.788972259
vt 0.548690021 0.607744992
vt 0.444795012 0.698611319
vt 0.558396995 0.607744992
vt 0.516627014 0.788972259
vt 0.607770979 0.851625741
vt 0.683021009 0.719346881
vt 0.699316025 0.720157743
vt 0.583666027 0.850426197
vt 0.604176998 0.86178571
vt 0.580072999 0.862088323
vt 0.64409101 0.609843075
vt 0.559723973 0.81035018
vt 0.559723973 0.60683161
vt 0.573925018 0.81035018
vt 0.609870017 0.63965106
vt 0.677386999 0.719519436
vt 0.559723973 0.81035018
vt 0.573925018 0.81035018
vt 0.559723973 0.60683161
vt 0.609870017 0.63965106
vt 0.677386999 0.719519436
vt 0.558396995 0.788972259
vt 0.548690021 0.607744992
vt 0.558396995 0.607744992
vt 0.444795012 0.698612273
vt 0.0194799993 0.500068665
vt 0.0194799993 0.500068665
vt 0.0194799993 0.500068665
vt 0.173556 0.581967533
vt 0.147250995 0.655925512
vt 0.161696002 0.657980978
vt 0.160234004 0.57519567
vt 0.142066002 0.681251347
vt 0.122565001 0.677992761
vt 0.141562 0.778532207
vt 0.124542996 0.77480787
vt 0.164761007 0.550089955
vt 0.174628004 0.560038328
vt 0.237715006 0.52157563
vt 0.244984001 0.530299842
vt 0.127165005 0.83249402
vt 0.114857003 0.829821169
vt 0.108964004 0.854872346
vt 0.0750700012 0.856543183
vt 0.131405994 0.896614194
vt 0.11293 0.905948281
vt 0.123131998 0.974536121
vt 0.141334996 0.805039585
vt 0.171904996 0.855633259
vt 0.202328995 0.853235543
vt 0.293136001 0.667226493
vt 0.293134987 0.899250925
vt 0.179996997 0.891053438
vt 0.202553004 0.961884439
vt 0.293134987 0.94177562
vt 0.188170001 0.713907242
vt 0.178278998 0.680565
vt 0.231021002 0.610502362
vt 0.255699992 0.603804648
vt 0.285405993 0.527422428
vt 0.293136001 0.528759599
vt 0.297410011 0.790872157
vt 0.297410011 0.939523101
vt 0.371881008 0.795097291
vt 0.417392999 0.998008013
vt 0.424869001 0.860789239
vt 0.297410011 0.669682682
vt 0.338770986 0.669682682
vt 0.297410011 0.598057866
vt 0.473868012 0.926285148
vt 0.438288987 0.695221663
vt 0.446846008 0.654713869
vt 0.368506998 0.58645618
vt 0.511198997 0.791859627
vt 0.488637 0.862704158
vt 0.336501002 0.584539235
vt 0.297410011 0.5035308
vt 0.304986 0.500230193
vt 0.292769015 0.50034678
vt 0.285968006 0.524764597
vt 0.292769015 0.521897793
vt 0.285968006 0.50034678
vt 0.687339008 0.848104537
vt 0.755553007 0.855550647
vt 0.726997018 0.864469528
vt 0.732787013 0.838448346
vt 0.656841993 0.801919043
vt 0.722554028 0.801919043
vt 0.689294994 0.754484951
vt 0.735561013 0.764268756
vt 0.700662017 0.731746912
vt 0.754592001 0.749430001
vt 0.732787013 0.838448346
vt 0.687339008 0.848104537
vt 0.722554028 0.801919043
vt 0.656841993 0.801919043
vt 0.735561013 0.764268756
vt 0.689294994 0.754484951
vt 0.754592001 0.749430001
vt 0.700662017 0.731746912
vt 0.700828016 0.997654438
vt 0.740661979 0.931768298
vt 0.657651007 0.931768298
vt 0.740661979 0.997654438
vt 0.740661979 0.867463946
vt 0.701076984 0.867463946
vt 0.740661979 0.931768298
vt 0.700828016 0.997654438
vt 0.657651007 0.931768298
vt 0.740661979 0.997654438
vt 0.701076984 0.867463946
vt 0.740661979 0.867463946
vt 0.173556 0.581967533
vt 0.147250995 0.655925512
vt 0.160234004 0.57519567
vt 0.161696002 0.657980978
vt 0.142066002 0.681251347
vt 0.122565001 0.677992761
vt 0.141562 0.778532207
vt 0.124542996 0.77480787
vt 0.164761007 0.550089955
vt 0.174628004 0.560038328
vt 0.237715006 0.52157563
vt 0.244984001 0.530299842
vt 0.127165005 0.83249402
vt 0.114857003 0.829821169
vt 0.108964004 0.854872346
vt 0.0750700012 0.856543183
vt 0.131405994 0.896614194
vt 0.11293 0.905948281
vt 0.123131998 0.974536121
vt 0.141334996 0.805039585
vt 0.202328995 0.853235543
vt 0.171904996 0.855633259
vt 0.293136001 0.667226493
vt 0.293134987 0.899250925
vt 0.179996997 0.891053438
vt 0.202553004 0.961884439
vt 0.293134987 0.94177562
vt 0.188170001 0.713907242
vt 0.178278998 0.680565
vt 0.231021002 0.610502362
vt 0.255699992 0.603804648
vt 0.285405993 0.527422428
vt 0.293136001 0.528759599
vt 0.297410011 0.790872157
vt 0.371881008 0.795097291
vt 0.297410011 0.939523101
vt 0.417392999 0.998008013
vt 0.424869001 0.860789239
vt 0.297410011 0.669682682
vt 0.338770986 0.669682682
vt 0.297410011 0.598057866
vt 0.473868012 0.926285148
vt 0.438288987 0.695221663
vt 0.446846008 0.654713869
vt 0.368506998 0.58645618
vt 0.511198997 0.791859627
vt 0.488637 0.862704158
vt 0.336501002 0.584539235
vt 0.297410011 0.5035308
vt 0.304986 0.500230193
vt 0.292769015 0.50034678
vt 0.285968006 0.524764597
vt 0.285968006 0.50034678
vt 0.292769015 0.521897793
vt 0.766288996 0.996545315
vt 0.798097014 0.859441638
vt 0.757642984 0.859267056
vt 0.774900019 0.99658227
vt 0.757642984 0.830851138
vt 0.798097014 0.831025243
vt 0.757642984 0.799096167
vt 0.798097014 0.799096167
vt 0.781426013 0.757208288
vt 0.766420007 0.757249832
vt 0.766420007 0.714771152
vt 0.781426013 0.714731097
vt 0.766420007 0.693779945
vt 0.781426013 0.693741441
vt 0.751159012 0.56566155
vt 0.798097014 0.777346075
vt 0.865095019 0.783396602
vt 0.836588025 0.866537035
vt 0.914928973 0.997433782
vt 0.83554697 0.835193276
vt 0.811248004 0.808973491
vt 0.820583999 0.783396602
vt 0.829578996 0.760744572
vt 0.876354992 0.761266768
vt 0.842521012 0.718778133
vt 0.826704025 0.567935646
vt 0.883324981 0.590498626
vt 0.890295029 0.759232819
vt 0.928511977 0.793154776
vt 0.914928973 0.797293842
vt 0.928511977 0.997433782
vt 0.826704025 0.69754523
vt 0.902382016 0.555489063
vt 0.971527994 0.693532348
vt 0.902383029 0.76156348
vt 0.947341979 0.797271311
vt 0.971081018 0.725098133
vt 0.990854025 0.793758571
vt 0.981338978 0.836704075
vt 0.997294009 0.74939698
vt 0.997804999 0.989229739
vt 0.997804999 0.861166418
vt 0.947341979 0.965562284
vt 0.766288996 0.996545315
vt 0.798097014 0.859441638
vt 0.774900019 0.99658227
vt 0.757642984 0.859267056
vt 0.757642984 0.830851138
vt 0.798097014 0.831025243
vt 0.757642984 0.799096167
vt 0.798097014 0.799096167
vt 0.781426013 0.757208288
vt 0.766420007 0.757249832
vt 0.766420007 0.714771152
vt 0.781426013 0.714731097
vt 0.766420007 0.693779945
vt 0.781426013 0.693741441
vt 0.751159012 0.56566155
vt 0.798097014 0.777346075
vt 0.865095019 0.783396602
vt 0.836588025 0.866537035
vt 0.83554697 0.835193276
vt 0.914928973 0.997433782
vt 0.811248004 0.808973491
vt 0.820583999 0.783396602
vt 0.829578996 0.760744572
vt 0.876354992 0.761266768
vt 0.842521012 0.718778133
vt 0.826704025 0.567935646
vt 0.883324981 0.590498626
vt 0.890295029 0.759232819
vt 0.928511977 0.793154776
vt 0.928511977 0.997433782
vt 0.914928973 0.797293842
vt 0.826704025 0.69754523
vt 0.902382016 0.555489063
vt 0.902383029 0.76156348
vt 0.971527994 0.693532348
vt 0.947341979 0.797271311
vt 0.971081018 0.725098133
vt 0.990854025 0.793758571
vt 0.981338978 0.836704075
vt 0.997294009 0.74939698
vt 0.997804999 0.989229739
vt 0.997804999 0.861166418
vt 0.947341979 0.965562284
vn 0.726478902 -0.300915661 -0.617801076
vn 0.923675494 -0.382596973 -0.0210508244
vn 0.726478749 -0.300914182 -0.617801977
vn 0.923494985 -0.382522711 -0.0288684603
vn 0.916940089 -0.379808294 0.122337784
vn 0.918056901 -0.380269168 0.112102127
vn 0.904156881 -0.374518477 -0.205514584
vn 0.858837003 -0.355748118 -0.368567876
vn 0.920550616 -0.381308118 -0.0847978888
vn 0.91417735 -0.3786668 0.144537983
vn 0.86840897 -0.35970875 0.341285037
vn 0.868409196 -0.359708447 0.34128478
vn 0.726478888 0.300915528 -0.617801157
vn 0.923675496 0.382596967 -0.0210508713
vn 0.726479996 0.300914628 -0.617800292
vn 0.923494981 0.382522702 -0.0288687308
vn 0.916940323 0.379807927 0.122337169
vn 0.918056799 0.380269135 0.112103073
vn 0.904157088 0.37451589 -0.205518388
vn 0.858837374 0.355744587 -0.368570419
vn 0.920551868 0.381305265 -0.0847971303
vn 0.914177806 0.378664856 0.144540188
vn 0.868409223 0.359707089 0.341286144
vn 0.868409036 0.359708381 0.341285256
vn 0.300917913 0.726475951 -0.617803449
vn 0.382603862 0.923672624 -0.0210515814
vn 0.30091273 0.726475413 -0.617806606
vn 0.382528918 0.923492412 -0.0288685193
vn 0.379814296 0.916937578 0.12233797
vn 0.380279034 0.918052629 0.11210364
vn 0.37451632 0.904157071 -0.205517678
vn 0.355741513 0.858837137 -0.368573938
vn 0.381306441 0.920551398 -0.0847969453
vn 0.37866653 0.914176646 0.144543137
vn 0.359708002 0.868407091 0.341290605
vn 0.359707743 0.868407285 0.341290386
vn -0.30091815 0.726476031 -0.61780324
vn -0.382603866 0.923672625 -0.0210514555
vn -0.300914707 0.726480271 -0.617799931
vn -0.382528929 0.923492343 -0.0288705828
vn -0.379814257 0.916937577 0.122338094
vn -0.38027905 0.918052749 0.112102607
vn -0.374516542 0.904157374 -0.205515945
vn -0.355742037 0.858838083 -0.368571229
vn -0.381306456 0.920551385 -0.084797017
vn -0.37866658 0.914176799 0.14454204
vn -0.35970793 0.868407054 0.341290775
vn -0.359707698 0.868407088 0.341290935
vn -0.726479159 0.300915628 -0.61780079
vn -0.92367546 0.382597072 -0.0210505525
vn -0.726478982 0.30091392 -0.617801831
vn -0.923494933 0.382522859 -0.0288681643
vn -0.916940238 0.379808031 0.122337482
vn -0.918056829 0.380269259 0.11210241
vn -0.904157506 0.374516145 -0.205516087
vn -0.858838056 0.355744867 -0.36856856
vn -0.920551872 0.381305129 -0.084797697
vn -0.914177987 0.378664877 0.14453899
vn -0.868409123 0.359707033 0.341286456
vn -0.868408204 0.359708262 0.341287499
vn -0.726479078 -0.300915722 -0.617800839
vn -0.923675451 -0.382597096 -0.0210505063
vn -0.726480223 -0.300914792 -0.617799946
vn -0.923494927 -0.382522857 -0.0288683781
vn -0.916939997 -0.379808417 0.122338092
vn -0.918056644 -0.380269171 0.112104222
vn -0.904155857 -0.374518136 -0.205519714
vn -0.858835805 -0.355745349 -0.368573339
vn -0.920552817 -0.381302735 -0.0847982067
vn -0.914178597 -0.378662068 0.144542489
vn -0.868409482 -0.359704628 0.341288076
vn -0.868408934 -0.359708426 0.341285468
vn -0.300915793 -0.726478933 -0.617800975
vn -0.38259703 -0.923675475 -0.0210506274
vn -0.300914381 -0.726478787 -0.617801835
vn -0.382522806 -0.923494953 -0.0288682371
vn -0.379808323 -0.916940045 0.122338022
vn -0.380269106 -0.918056897 0.112102365
vn -0.374518596 -0.904156901 -0.205514283
vn -0.355747129 -0.858836776 -0.368569359
vn -0.381305904 -0.920551868 -0.0847942569
vn -0.378661593 -0.914179189 0.144539989
vn -0.359702754 -0.868409798 0.341289249
vn -0.359698982 -0.868412619 0.341286047
vn 0.300915595 -0.726478948 -0.617801054
vn 0.382597007 -0.923675482 -0.0210507527
vn 0.300914667 -0.726480091 -0.617800162
vn 0.382522774 -0.923494955 -0.0288685999
vn 0.379808344 -0.916940052 0.122337902
vn 0.380269066 -0.918056709 0.112104041
vn 0.374518296 -0.904156412 -0.205516978
vn 0.355747666 -0.858836122 -0.368570364
vn 0.381307944 -0.920550687 -0.0847979029
vn 0.378663334 -0.9141781 0.144542315
vn 0.359704534 -0.868409563 0.341287971
vn 0.359698196 -0.868410478 0.341292324
vn 0 0 -1
vn 0 0 -1
vn 0 0 -1
vn 0 0 -1
vn 0 0 -1
vn 0 0 -1
vn -6.14939962e-16 6.14939962e-16 -1
vn -6.14939962e-16 6.14939962e-16 -1
vn -6.14939962e-16 6.14939962e-16 -1
vn 6.1493989e-16 6.14939962e-16 -1
vn 6.1493989e-16 6.14939962e-16 -1
vn 6.1493989e-16 6.14939962e-16 -1
vn -3.30143351e-07 -3.30143389e-07 -1
vn -3.30143351e-07 -3.30143389e-07 -1
vn -3.30143351e-07 -3.30143389e-07 -1
vn -3.30143351e-07 -1.36748413e-07 -1
vn -3.30143351e-07 -1.36748413e-07 -1
vn -3.30143351e-07 -1.36748413e-07 -1
vn -4.66891716e-07 0 -1
vn -4.66891716e-07 0 -1
vn -4.66891716e-07 0 -1
vn 0 0 -1
vn 0 0 -1
vn 0 0 -1
vn 0 0 1
vn 0 0 1
vn 0 0 1
vn 0 -7.52045692e-16 1
vn 0 -7.52045692e-16 1
vn 0 -7.52045692e-16 1
vn -2.20269806e-16 -5.31775886e-16 1
vn -2.20269806e-16 -5.31775886e-16 1
vn -2.20269806e-16 -5.31775886e-16 1
vn 2.20269828e-16 -5.31775886e-16 1
vn 2.20269828e-16 -5.31775886e-16 1
vn 2.20269828e-16 -5.31775886e-16 1
vn 2.85495026e-07 2.85494996e-07 1
vn 2.85495026e-07 2.85494996e-07 1
vn 2.85495026e-07 2.85494996e-07 1
vn 2.85495026e-07 1.1825646e-07 1
vn 2.85495026e-07 1.1825646e-07 1
vn 2.85495026e-07 1.1825646e-07 1
vn 4.03751497e-07 0 1
vn 4.03751497e-07 0 1
vn 4.03751497e-07 0 1
vn 0 0 1
vn 0 0 1
vn 0 0 1
vn 0.826583766 -0.53520299 0.174117883
vn 0.97950858 -0.109710554 0.168898004
vn 0.980010506 0.137177753 0.14408911
vn 0.632625335 -0.753219082 0.180128286
vn 0.941099666 0.312097786 0.130101459
vn 0.93944604 0.325050269 0.108551653
vn 0.377281177 -0.910838595 0.167427498
vn 0.377278677 -0.910839047 0.167430674
vn -0.941099649 0.31209775 0.130101673
vn -0.978713155 0.146831475 0.143391346
vn -0.982199035 -0.0813708115 0.169304005
vn -0.949313381 0.295605535 0.10687129
vn -0.836033692 -0.520567447 0.173370119
vn -0.64804048 -0.739930842 0.180404782
vn -0.377281124 -0.910838605 0.167427565
vn -0.377282999 -0.910837304 0.167430418
vn 0.0931480761 -0.142562547 -0.985392996
vn -1.61886485e-07 -0.135218492 -0.990815805
vn 0.0399100736 -0.0963514528 -0.994546924
vn 0.0363749835 -0.13603378 -0.990036197
vn -0.036375309 -0.136033778 -0.990036185
vn -0.0931483947 -0.142562549 -0.985392965
vn -0.0399104195 -0.0963514775 -0.994546907
vn 1.6561668e-07 5.36575254e-08 1
vn 1.73646673e-07 3.97207448e-08 1
vn 1.8215088e-07 3.93927112e-08 1
vn 1.7518732e-07 3.82746354e-08 1
vn 1.71082557e-07 4.07641883e-08 1
vn 1.72221114e-07 3.93927112e-08 1
vn 1.63459583e-07 3.18337358e-08 1
vn 1.41207952e-07 -0.678133846 0.734938424
vn -0.342387466 -0.637146622 0.690517925
vn 1.41207952e-07 -0.678133846 0.734938424
vn 0.342387687 -0.637146629 0.69051781
vn 0.53090109 0.846441892 -0.0409897081
vn 0.387781636 0.918720498 -0.0746863342
vn 0.616204401 0.780812255 -0.103074528
vn 0.685091565 0.719920719 -0.111192204
vn 0.892851272 0.189223264 -0.408669993
vn -0.685091686 0.719920648 -0.111191918
vn -0.616204469 0.780812234 -0.103074281
vn -0.530901121 0.846441882 -0.0409895076
vn -0.387781556 0.918720542 -0.0746862118
vn -0.892851486 0.189223218 -0.408669547
vn 0.000617016626 -5.58689306e-05 -0.999999808
vn 0.000617016626 -5.58689306e-05 -0.999999808
vn 6.63972255e-07 0.00041342498 -0.999999915
vn 0.00176489565 -0.000929870272 -0.99999801
vn -0.000617016737 -5.58689676e-05 -0.999999808
vn -0.000617016737 -5.58689676e-05 -0.999999808
vn -0.00176489623 -0.000929870575 -0.99999801
vn -6.63972321e-07 0.00041342498 -0.999999915
vn -0.719360403 0.415369649 0.556766257
vn -0.89692864 0.26440714 0.35441202
vn -0.670930648 0.443409241 0.594340232
vn -0.985265269 0.1022706 0.137087832
vn -0.846918468 -0.317947701 -0.426190531
vn -2.49707459e-05 0.597980133 0.801510923
vn -2.9454212e-06 0.59798844 0.801504726
vn -0.50902536 -0.74229318 0.435768307
vn -0.549611247 -0.687399729 0.474772673
vn -0.523907409 -0.736606797 0.427704867
vn -0.299109511 -0.794612782 0.528321897
vn -0.223822813 -0.960049793 0.16795161
vn 0.719360533 0.415369606 0.556766121
vn 0.896928732 0.264407059 0.354411847
vn 0.985265313 0.102270449 0.137087631
vn 0.670930785 0.443409225 0.594340089
vn 2.53826548e-05 0.597980177 0.801510891
vn 3.47205839e-06 0.59798844 0.801504726
vn 0.846918277 -0.317947883 -0.426190775
vn 0.52926434 0.812655661 -0.243864791
vn 0.516614759 0.701968722 -0.490254122
vn 0.309333118 0.796532285 -0.51947025
vn 0.547657851 0.657069466 -0.518006366
vn 0.601941876 0.645749508 -0.469759035
vn 0.581095527 0.659061295 -0.477458059
vn 0.299102954 0.792596878 -0.531345097
vn -0.29910345 0.792596789 -0.531344951
vn -0.581095719 0.659061287 -0.477457836
vn -0.547658055 0.657069465 -0.518006152
vn -0.601942037 0.645749517 -0.469758816
vn -0.516614939 0.701968718 -0.490253939
vn -0.309333313 0.796532273 -0.519470153
vn -0.529264424 0.812655635 -0.243864692
vn 0.509025542 -0.742293163 0.435768124
vn 0.549611438 -0.687399716 0.474772469
vn 0.299109847 -0.794612739 0.528321772
vn 0.523907572 -0.736606787 0.427704685
vn 0.223822901 -0.960049783 0.167951552
vn -0.719363039 0.317282051 0.617939251
vn -0.896931968 0.20196558 0.393348382
vn -0.670930256 0.338697306 0.659648942
vn -0.985265276 0.0781211832 0.152149325
vn -0.846914883 -0.242872565 -0.473020187
vn -1.1283561e-05 0.456755183 0.889592436
vn -2.69729867e-05 0.456748615 0.889595808
vn -0.509023278 -0.804290343 0.306614329
vn -0.549608975 -0.756626827 0.354183314
vn -0.523908085 -0.797343683 0.299605356
vn -0.299061358 -0.871250128 0.389211407
vn -0.223826036 -0.974608146 0.00639269375
vn 0.719363291 0.317282014 0.617938977
vn 0.896932104 0.201965482 0.393348123
vn 0.98526532 0.0781211209 0.15214907
vn 0.670930478 0.338697215 0.659648763
vn 1.12835619e-05 0.456755183 0.889592436
vn 2.69729736e-05 0.456748615 0.889595808
vn 0.846914686 -0.242872876 -0.473020381
vn 0.299085987 0.872213443 -0.387028787
vn 0.604988987 0.721075934 -0.337694866
vn 0.604018221 0.717212199 -0.347517842
vn 0.624433663 0.701836429 -0.342794731
vn 0.603184664 0.71403292 -0.355422637
vn -0.299086165 0.872213429 -0.387028682
vn -0.604018365 0.717212174 -0.347517644
vn -0.604989191 0.721075872 -0.337694633
vn -0.624433792 0.701836412 -0.34279453
vn -0.60318476 0.714032924 -0.355422464
vn 0.54960904 -0.756626856 0.354183149
vn 0.54960904 -0.756626856 0.354183149
vn 0.299061178 -0.871250221 0.389211337
vn 0.569971307 -0.743525552 0.349717691
vn 0.223826082 -0.974608136 0.0063926714
vn 0.223826082 -0.974608136 0.0063926714
vn 0.223826082 -0.974608136 0.0063926714
vn -0.719358187 0.237248396 0.652868285
vn -0.896929181 0.151023503 0.415583861
vn -0.67092635 0.253270306 0.696930401
vn -0.985265313 0.0584115565 0.160749352
vn -0.846920898 -0.181593851 -0.499748603
vn 2.28013737e-05 0.341553758 0.93986224
vn 2.28013803e-05 0.341553758 0.93986224
vn -0.509021111 -0.836399586 0.203305781
vn -0.54960627 -0.795079953 0.256477711
vn -0.523906032 -0.828628589 0.197223557
vn -0.299057238 -0.913191276 0.276850975
vn -0.223829799 -0.967711724 -0.11590617
vn 0.719358376 0.237248329 0.652868101
vn 0.896929291 0.151023427 0.415583652
vn 0.98526536 0.0584114637 0.160749096
vn 0.670926536 0.253270249 0.696930244
vn -2.28013757e-05 0.341553758 0.93986224
vn -2.28013691e-05 0.341553758 0.93986224
vn 0.84692067 -0.181593975 -0.499748944
vn 0.299019184 0.913892557 -0.274568611
vn 0.604983085 0.757743934 -0.244580453
vn 0.604016005 0.755140047 -0.254810077
vn 0.624434718 0.739290803 -0.252052357
vn 0.603185435 0.752975165 -0.263050816
vn -0.299019362 0.913892529 -0.27456851
vn -0.60401616 0.755139995 -0.254809863
vn -0.60498325 0.757743872 -0.244580236
vn -0.62443486 0.739290758 -0.252052136
vn -0.603185582 0.752975122 -0.263050603
vn 0.549606373 -0.795079937 0.256477538
vn 0.549606373 -0.795079937 0.256477538
vn 0.299057057 -0.913191359 0.276850895
vn 0.569968758 -0.781521991 0.253690742
vn 0.223829789 -0.967711719 -0.115906229
vn 0.223829789 -0.967711719 -0.115906229
vn 0.223829789 -0.967711719 -0.115906229
vn -0.67190272 -0.178820159 -0.718728103
vn -0.871272862 -0.320713419 -0.371519183
vn -0.82491553 -0.407500078 -0.391737226
vn -0.665184877 -0.0880237654 -0.741472114
vn -0.831723451 -0.474654484 -0.287991704
vn -0.801021927 -0.419967658 -0.426604077
vn -0.843628419 -0.419727687 -0.334842889
vn -0.918157831 -0.396202895 0.00307627149
vn -0.754427143 0.140134225 -0.641250408
vn -0.859088895 0.128460386 -0.495443438
vn -0.899903207 0.130749999 -0.416027229
vn -0.923252003 0.0175241933 -0.383795051
vn -0.726983512 -0.310152912 0.612617453
vn -0.35056265 -0.144896425 0.925262587
vn -0.863764139 -0.112006095 0.491290288
vn -0.975676526 -0.194862858 -0.100418046
vn -0.927113974 -0.340395711 -0.156813389
vn -0.885172016 -0.46450787 -0.0265130475
vn -0.707324259 -0.555156044 0.437600456
vn 0.472895333 -0.879005345 -0.0609885828
vn 0.744053656 -0.638884322 -0.19547629
vn 0.387738486 -0.919434929 -0.0655612499
vn 0.345392345 -0.938376522 0.0123948155
vn 0.315145297 -0.946129685 0.0743105755
vn 0.355877854 -0.921878483 0.153267793
vn 0.401161935 -0.757159257 0.515537546
vn 0.533679356 -0.51563638 0.670302521
vn 0.302268613 -0.949612749 -0.0828813188
vn 0.501024977 -0.835432789 0.225889413
vn 0.52736702 -0.849629329 0.00374564205
vn 0.00937800323 -0.969058587 0.246652605
vn -0.150363283 -0.907917429 0.391250336
vn 0.359531831 -0.867024848 0.344970687
vn -0.224791656 0.96794685 0.112016102
vn -0.155601742 0.935906843 0.316016579
vn -0.456239922 0.884921108 0.0935936243
vn -0.417564924 0.872935916 0.252234852
vn -0.792499811 0.595818232 0.130171749
vn -0.117641374 0.981504232 -0.151029633
vn -0.519523387 0.803999005 -0.289276772
vn -0.00318064955 0.896272611 -0.443492154
vn -0.871572896 0.476850948 0.113902854
vn -0.728865078 0.673390966 -0.123694405
vn -0.724141621 0.537273392 -0.432384338
vn -0.733813086 0.561986292 -0.381693283
vn -0.792190108 0.606913287 0.063961664
vn -0.848349019 0.371809141 0.376911003
vn -0.293073598 0.81665548 -0.497173706
vn -0.0447068402 0.814813044 -0.577997406
vn -0.238398719 0.751740729 -0.614859275
vn -0.11662775 -0.199514778 -0.972929505
vn -0.11662775 -0.199514778 -0.972929505
vn -0.0504271797 -0.235483922 -0.970569123
vn -0.184514826 -0.161053842 -0.969544191
vn 0.418585462 -0.339174264 0.842464854
vn 0.0634137724 0.0406816057 0.997157811
vn 0.0526406274 0.0518095974 0.997268635
vn 0.570009752 -0.510677845 0.643659088
vn 0.689749648 -0.701967218 0.177447031
vn 0.666811974 -0.725661166 -0.169639804
vn 0.478753984 -0.598980577 -0.64188542
vn 0.271864077 -0.418568562 -0.866539256
vn -0.0663605255 -0.0874262788 -0.993958212
vn -0.0814006993 -0.0801148581 -0.993456358
vn -0.31789043 0.422880639 0.848597454
vn -0.494401781 0.588038837 0.640138426
vn -0.679805594 0.711837065 0.176500275
vn -0.703930641 0.689729966 -0.169570711
vn -0.581004184 0.495132914 -0.645970228
vn -0.405637517 0.281804192 -0.869508253
vn -0.088310589 -0.0647487271 -0.993986339
vn -0.102013409 -0.0587576067 -0.993046227
vn -0.700100435 -0.68905216 0.187260521
vn -0.700100984 -0.689051603 0.187260515
vn -0.700100288 -0.689051863 0.187262163
vn -0.700097389 -0.689054651 0.187262739
vn -0.700099175 -0.689052495 0.187263998
vn -0.700093906 -0.689055949 0.187270982
vn -0.700107371 -0.689045417 0.187259399
vn -0.700108896 -0.689044168 0.187258293
vn -0.700106147 -0.689046963 0.187258288
vn -0.700113791 -0.689037986 0.187262739
vn -0.700105845 -0.689046666 0.187260506
vn -0.700105846 -0.689046666 0.187260505
vn 0.671902319 -0.178820356 -0.718728429
vn 0.87127268 -0.320713653 -0.371519408
vn 0.665184521 -0.0880238028 -0.741472429
vn 0.824915252 -0.407500464 -0.391737411
vn 0.83172339 -0.474654527 -0.287991811
vn 0.80102183 -0.419967608 -0.426604308
vn 0.843628321 -0.419727636 -0.334843198
vn 0.918157832 -0.396202894 0.0030759294
vn 0.754426957 0.140134137 -0.641250645
vn 0.859088812 0.1284602 -0.495443631
vn 0.899903166 0.130749813 -0.416027376
vn 0.923251972 0.017523829 -0.383795142
vn 0.726983672 -0.31015298 0.61261723
vn 0.350562877 -0.144896483 0.925262492
vn 0.863764328 -0.112006134 0.491289946
vn 0.975676501 -0.194862792 -0.100418414
vn 0.927113943 -0.34039564 -0.156813728
vn 0.885172053 -0.464507784 -0.0265133124
vn 0.707324362 -0.555156037 0.4376003
vn -0.472895366 -0.87900534 -0.0609884043
vn -0.387738498 -0.919434933 -0.0655611215
vn -0.744053721 -0.638884321 -0.195476045
vn -0.345392349 -0.938376519 0.0123949285
vn -0.315145252 -0.946129691 0.0743106784
vn -0.355877775 -0.921878493 0.153267913
vn -0.401161732 -0.757159267 0.515537689
vn -0.5336791 -0.515636382 0.670302722
vn -0.30226866 -0.949612743 -0.0828812133
vn -0.501024884 -0.835432807 0.225889556
vn -0.527367017 -0.84962933 0.00374583127
vn -0.00937795506 -0.96905858 0.246652634
vn 0.150363302 -0.907917444 0.391250295
vn -0.359532028 -0.867024743 0.344970748
vn 0.224791692 0.967946849 0.112016034
vn 0.456239963 0.884921103 0.0935934756
vn 0.155601847 0.935906839 0.31601654
vn 0.417564994 0.872935918 0.252234731
vn 0.792499841 0.595818246 0.130171501
vn 0.117641314 0.981504234 -0.151029667
vn 0.519523304 0.803999 -0.289276934
vn 0.00318058589 0.896272597 -0.443492182
vn 0.871572891 0.476851019 0.113902594
vn 0.728865075 0.673390933 -0.123694601
vn 0.724141487 0.537273405 -0.432384546
vn 0.733812922 0.561986254 -0.381693655
vn 0.792190134 0.606913285 0.0639613679
vn 0.84834914 0.371809141 0.376910731
vn 0.293073479 0.816655426 -0.497173865
vn 0.0447068375 0.814813039 -0.577997414
vn 0.238398723 0.751740691 -0.614859319
vn 0.116627784 -0.199514798 -0.972929497
vn 0.116627784 -0.199514798 -0.972929497
vn 0.184514814 -0.161053911 -0.969544182
vn 0.0504272114 -0.235483922 -0.970569121
vn 0.814499491 0 0.580164269
vn 0.882851273 0 0.469652669
vn 0.861791796 0 0.507262162
vn 0.814499491 0 0.580164269
vn 0.931715834 0 0.363188113
vn 0.802147514 0 0.597125922
vn 0.918143022 -2.70933565e-08 0.396249153
vn 0.970822635 0.0386131285 0.236669467
vn 0.987803145 0.0286568295 -0.153048139
vn 0.989967669 -1.81545878e-07 -0.14129407
vn 0.998707572 -7.56586627e-08 0.050825054
vn 0.940375548 0 0.340137956
vn 0.972492257 0 0.232935207
vn 0.986396211 0 0.164385262
vn 0.997083683 0 0.0763159759
vn 0.921233788 0.293678548 -0.255110208
vn -0.549489393 0.806496371 -0.21823155
vn -0.388003994 0.918168866 -0.0801176287
vn -0.751419942 0.635501244 -0.17749997
vn -0.288636607 0.943805937 -0.160994604
vn -0.246537312 0.962811029 -0.110518219
vn -0.27365112 0.899829801 -0.339737242
vn -0.250120666 0.875643704 -0.413143748
vn -0.511294091 0.809296266 -0.289167611
vn -0.427110486 0.880507411 -0.205629112
vn -0.332874326 0.920001002 -0.206864304
vn -0.459491256 0.870107992 -0.178269089
vn -0.972759856 0 -0.231815147
vn -0.950915852 0 -0.309449579
vn -0.884431834 0.366885909 -0.288400869
vn -0.983899295 0 -0.178723743
vn -0.240607406 0.944569547 -0.223375127
vn 0.245598591 -0.93595802 0.252317094
vn 0.350020338 -0.923964216 0.154194324
vn 0.362764675 -0.917920364 0.160698462
vn 0.331936757 -0.94213948 0.0468101379
vn 0.11721812 -0.990099805 -0.0772158545
vn 0.164020296 -0.984815684 -0.0568806736
vn 0.277411469 -0.953106451 0.120958544
vn -0.153239808 -0.971285119 -0.181996646
vn 0.23553698 -0.964361764 0.120535138
vn 0.126461289 -0.984999396 0.117404144
vn 0.189245436 -0.97662661 0.101914815
vn -0.814499181 0 0.580164705
vn -0.882851032 0 0.469653123
vn -0.814499181 0 0.580164705
vn -0.861791532 0 0.507262609
vn -0.931715622 0 0.363188655
vn -0.802147117 0 0.597126454
vn -0.918142863 0 0.396249521
vn -0.970822552 0.0386130692 0.23666982
vn -0.987803189 0.0286568344 -0.153047856
vn -0.989967717 0 -0.141293732
vn -0.998707547 0 0.0508255407
vn -0.940375359 0 0.340138477
vn -0.972492179 0 0.232935532
vn -0.986396164 0 0.164385544
vn -0.997083665 0 0.0763162146
vn -0.921234007 0.293678103 -0.25510993
vn 0.54948921 0.806496434 -0.218231782
vn 0.388003989 0.91816885 -0.0801178343
vn 0.288636526 0.943805929 -0.160994793
vn 0.751419783 0.635501342 -0.177500294
vn 0.246537245 0.962811029 -0.110518365
vn 0.273650984 0.899829819 -0.339737305
vn 0.250120506 0.875643774 -0.413143696
vn 0.511293979 0.809296278 -0.289167773
vn 0.427110313 0.880507468 -0.205629229
vn 0.332874234 0.920001012 -0.206864405
vn 0.459491263 0.870107957 -0.178269243
vn 0.972759763 0 -0.231815537
vn 0.950915711 0 -0.309450015
vn 0.983899228 0 -0.178724113
vn 0.884431577 0.366886234 -0.288401242
vn 0.240607002 0.944569642 -0.223375161
vn -0.245598412 -0.935958037 0.252317208
vn -0.362764531 -0.917920394 0.160698613
vn -0.350020192 -0.923964248 0.154194466
vn -0.331936733 -0.942139483 0.0468102534
vn -0.117218128 -0.990099808 -0.0772158065
vn -0.164020305 -0.984815686 -0.0568806133
vn -0.277411359 -0.953106473 0.120958625
vn 0.153239549 -0.971285165 -0.181996616
vn -0.235536925 -0.964361769 0.120535208
vn -0.126461067 -0.984999423 0.117404153
vn -0.189245438 -0.976626603 0.101914879

g gun36_submesh_0
usemtl _Material_26_
f 1/1/1 3/3/3 2/2/2
f 1/1/1 2/2/2 4/4/4
f 2/2/2 5/5/5 4/4/4
f 2/2/2 6/6/6 5/5/5
f 7/7/7 5/5/5 6/6/6
f 7/7/7 8/8/8 5/5/5
f 9/9/9 8/8/8 7/7/7
f 9/9/9 10/10/10 8/8/8
f 10/10/10 9/9/9 11/11/11
f 10/10/10 11/11/11 12/12/12
f 13/13/13 15/15/15 14/14/14
f 13/13/13 14/14/14 16/16/16
f 14/14/14 17/17/17 16/16/16
f 14/14/14 18/18/18 17/17/17
f 19/19/19 17/17/17 18/18/18
f 19/19/19 20/20/20 17/17/17
f 21/21/21 20/20/20 19/19/19
f 21/21/21 22/22/22 20/20/20
f 22/22/22 21/21/21 23/23/23
f 22/22/22 23/23/23 24/24/24
f 25/25/25 27/27/27 26/26/26
f 25/25/25 26/26/26 28/28/28
f 26/26/26 29/29/29 28/28/28
f 26/26/26 30/30/30 29/29/29
f 31/31/31 29/29/29 30/30/30
f 31/31/31 32/32/32 29/29/29
f 33/33/33 32/32/32 31/31/31
f 33/33/33 34/34/34 32/32/32
f 34/34/34 33/33/33 35/35/35
f 34/34/34 35/35/35 36/36/36
f 37/37/37 39/39/39 38/38/38
f 37/37/37 38/38/38 40/40/40
f 38/38/38 41/41/41 40/40/40
f 38/38/38 42/42/42 41/41/41
f 43/43/43 41/41/41 42/42/42
f 43/43/43 44/44/44 41/41/41
f 45/45/45 44/44/44 43/43/43
f 45/45/45 46/46/46 44/44/44
f 46/46/46 45/45/45 47/47/47
f 46/46/46 47/47/47 48/48/48
f 49/49/49 51/51/51 50/50/50
f 49/49/49 50/50/50 52/52/52
f 50/50/50 53/53/53 52/52/52
f 50/50/50 54/54/54 53/53/53
f 55/55/55 53/53/53 54/54/54
f 55/55/55 56/56/56 53/53/53
f 57/57/57 56/56/56 55/55/55
f 57/57/57 58/58/58 56/56/56
f 58/58/58 57/57/57 59/59/59
f 58/58/58 59/59/59 60/60/60
f 61/61/61 63/63/63 62/62/62
f 61/61/61 62/62/62 64/64/64
f 62/62/62 65/65/65 64/64/64
f 62/62/62 66/66/66 65/65/65
f 67/67/67 65/65/65 66/66/66
f 67/67/67 68/68/68 65/65/65
f 69/69/69 68/68/68 67/67/67
f 69/69/69 70/70/70 68/68/68
f 70/70/70 69/69/69 71/71/71
f 70/70/70 71/71/71 72/72/72
f 73/73/73 75/75/75 74/74/74
f 73/73/73 74/74/74 76/76/76
f 74/74/74 77/77/77 76/76/76
f 74/74/74 78/78/78 77/77/77
f 79/79/79 77/77/77 78/78/78
f 79/79/79 80/80/80 77/77/77
f 81/81/81 80/80/80 79/79/79
f 81/81/81 82/82/82 80/80/80
f 82/82/82 81/81/81 83/83/83
f 82/82/82 83/83/83 84/84/84
f 85/85/85 87/87/87 86/86/86
f 85/85/85 86/86/86 88/88/88
f 86/86/86 89/89/89 88/88/88
f 86/86/86 90/90/90 89/89/89
f 91/91/91 89/89/89 90/90/90
f 91/91/91 92/92/92 89/89/89
f 93/93/93 92/92/92 91/91/91
f 93/93/93 94/94/94 92/92/92
f 94/94/94 93/93/93 95/95/95
f 94/94/94 95/95/95 96/96/96
f 97/97/97 99/99/99 98/98/98
f 100/100/100 102/102/102 101/101/101
f 103/103/103 105/105/105 104/104/104
f 106/106/106 108/108/108 107/107/107
f 109/109/109 111/111/111 110/110/110
f 112/112/112 114/114/114 113/113/113
f 115/115/115 117/117/117 116/116/116
f 118/118/118 120/120/120 119/119/119
f 121/121/121 123/123/123 122/122/122
f 124/124/124 126/126/126 125/125/125
f 127/127/127 129/129/129 128/128/128
f 130/130/130 132/132/132 131/131/131
f 133/133/133 135/135/135 134/134/134
f 136/136/136 138/138/138 137/137/137
f 139/139/139 141/141/141 140/140/140
f 142/142/142 144/144/144 143/143/143
f 145/145/145 147/147/147 146/146/146
f 145/145/145 146/146/146 148/148/148
f 147/147/147 149/149/149 146/146/146
f 147/147/147 150/150/150 149/149/149
f 151/151/151 145/145/145 148/148/148
f 151/151/151 148/148/148 152/152/152
f 153/153/153 155/155/155 154/154/154
f 153/153/153 154/154/154 156/156/156
f 155/155/155 157/157/157 154/154/154
f 155/155/155 158/158/158 157/157/157
f 158/158/158 159/159/159 157/157/157
f 158/158/158 160/160/160 159/159/159
f 161/161/161 163/163/163 162/162/162
f 164/164/164 161/161/161 162/162/162
f 162/162/162 165/165/165 164/164/164
f 166/166/166 165/165/165 162/162/162
f 167/167/167 166/166/166 162/162/162
f 168/168/168 170/170/170 169/169/169
f 170/170/170 171/171/171 169/169/169
f 169/169/169 171/171/171 172/172/172
f 172/172/172 173/173/173 169/169/169
f 173/173/173 174/174/174 169/169/169
f 175/175/175 177/177/177 176/176/176
f 178/178/178 177/177/177 175/175/175
f 179/179/179 181/181/181 180/180/180
f 181/181/181 179/179/179 182/182/182
f 181/181/181 182/182/182 183/183/183
f 184/184/184 186/186/186 185/185/185
f 185/185/185 186/186/186 187/187/187
f 184/184/184 185/185/185 188/188/188
f 189/189/189 191/191/191 190/190/190
f 189/189/189 190/190/190 192/192/192
f 193/193/193 195/195/195 194/194/194
f 193/193/193 194/194/194 196/196/196
f 197/197/197 199/199/199 198/198/198
f 197/197/197 198/198/198 200/200/200
f 200/200/200 198/198/198 201/201/201
f 202/202/202 199/199/199 197/197/197
f 202/202/202 203/203/203 199/199/199
f 204/204/204 206/206/206 205/205/205
f 204/204/204 205/205/205 207/207/207
f 206/206/206 204/204/204 208/208/208
f 209/209/209 211/211/211 210/210/210
f 209/209/209 210/210/210 212/212/212
f 212/212/212 213/213/213 209/209/209
f 212/212/212 214/214/214 213/213/213
f 210/210/210 211/211/211 215/215/215
f 216/216/216 218/218/218 217/217/217
f 219/219/219 217/217/217 218/218/218
f 220/220/220 217/217/217 219/219/219
f 221/221/221 220/220/220 219/219/219
f 222/222/222 221/221/221 219/219/219
f 223/223/223 225/225/225 224/224/224
f 224/224/224 225/225/225 226/226/226
f 225/225/225 227/227/227 226/226/226
f 225/225/225 228/228/228 227/227/227
f 227/227/227 228/228/228 229/229/229
f 230/230/230 232/232/232 231/231/231
f 230/230/230 231/231/231 233/233/233
f 230/230/230 233/233/233 234/234/234
f 235/235/235 237/237/237 236/236/236
f 235/235/235 236/236/236 238/238/238
f 238/238/238 236/236/236 239/239/239
f 240/240/240 237/237/237 235/235/235
f 240/240/240 241/241/241 237/237/237
f 242/242/242 244/244/244 243/243/243
f 242/242/242 243/243/243 245/245/245
f 244/244/244 242/242/242 246/246/246
f 247/247/247 249/249/249 248/248/248
f 247/247/247 248/248/248 250/250/250
f 250/250/250 251/251/251 247/247/247
f 250/250/250 252/252/252 251/251/251
f 248/248/248 249/249/249 253/253/253
f 254/254/254 256/256/256 255/255/255
f 255/255/255 256/256/256 257/257/257
f 257/257/257 256/256/256 258/258/258
f 259/259/259 261/261/261 260/260/260
f 261/261/261 262/262/262 260/260/260
f 262/262/262 263/263/263 260/260/260
f 264/264/264 266/266/266 265/265/265
f 264/264/264 265/265/265 267/267/267
f 268/268/268 270/270/270 269/269/269
f 271/271/271 273/273/273 272/272/272
f 271/271/271 272/272/272 274/274/274
f 274/274/274 272/272/272 275/275/275
f 276/276/276 273/273/273 271/271/271
f 276/276/276 277/277/277 273/273/273
f 278/278/278 280/280/280 279/279/279
f 278/278/278 279/279/279 281/281/281
f 280/280/280 278/278/278 282/282/282
f 283/283/283 285/285/285 284/284/284
f 283/283/283 284/284/284 286/286/286
f 286/286/286 287/287/287 283/283/283
f 286/286/286 288/288/288 287/287/287
f 284/284/284 285/285/285 289/289/289
f 290/290/290 292/292/292 291/291/291
f 291/291/291 292/292/292 293/293/293
f 293/293/293 292/292/292 294/294/294
f 295/295/295 297/297/297 296/296/296
f 297/297/297 298/298/298 296/296/296
f 298/298/298 299/299/299 296/296/296
f 300/300/300 302/302/302 301/301/301
f 300/300/300 301/301/301 303/303/303
f 304/304/304 306/306/306 305/305/305
f 307/307/307 309/309/309 308/308/308
f 307/307/307 308/308/308 310/310/310
f 308/308/308 309/309/309 311/311/311
f 308/308/308 311/311/311 312/312/312
f 312/312/312 311/311/311 313/313/313
f 312/312/312 313/313/313 314/314/314
f 315/315/315 307/307/307 310/310/310
f 315/315/315 316/316/316 307/307/307
f 316/316/316 315/315/315 317/317/317
f 316/316/316 317/317/317 318/318/318
f 314/314/314 313/313/313 319/319/319
f 314/314/314 319/319/319 320/320/320
f 321/321/321 320/320/320 319/319/319
f 321/321/321 322/322/322 320/320/320
f 323/323/323 322/322/322 321/321/321
f 323/323/323 324/324/324 322/322/322
f 324/324/324 323/323/323 325/325/325
f 326/326/326 328/328/328 327/327/327
f 326/326/326 329/329/329 328/328/328
f 328/328/328 329/329/329 330/330/330
f 328/328/328 330/330/330 331/331/331
f 330/330/330 332/332/332 331/331/331
f 330/330/330 333/333/333 332/332/332
f 334/334/334 329/329/329 326/326/326
f 335/335/335 329/329/329 334/334/334
f 335/335/335 336/336/336 329/329/329
f 329/329/329 336/336/336 337/337/337
f 329/329/329 337/337/337 338/338/338
f 329/329/329 338/338/338 339/339/339
f 340/340/340 342/342/342 341/341/341
f 341/341/341 342/342/342 343/343/343
f 343/343/343 342/342/342 344/344/344
f 342/342/342 340/340/340 345/345/345
f 342/342/342 345/345/345 346/346/346
f 346/346/346 345/345/345 347/347/347
f 343/343/343 344/344/344 348/348/348
f 342/342/342 346/346/346 349/349/349
f 350/350/350 349/349/349 346/346/346
f 350/350/350 346/346/346 351/351/351
f 342/342/342 349/349/349 352/352/352
f 344/344/344 342/342/342 352/352/352
f 344/344/344 352/352/352 353/353/353
f 346/346/346 354/354/354 351/351/351
f 346/346/346 347/347/347 354/354/354
f 354/354/354 347/347/347 355/355/355
f 354/354/354 355/355/355 356/356/356
f 357/357/357 359/359/359 358/358/358
f 357/357/357 358/358/358 360/360/360
f 361/361/361 363/363/363 362/362/362
f 361/361/361 362/362/362 364/364/364
f 365/365/365 361/361/361 364/364/364
f 365/365/365 364/364/364 366/366/366
f 367/367/367 365/365/365 366/366/366
f 367/367/367 366/366/366 368/368/368
f 369/369/369 367/367/367 368/368/368
f 369/369/369 368/368/368 370/370/370
f 363/363/363 371/371/371 362/362/362
f 363/363/363 372/372/372 371/371/371
f 372/372/372 373/373/373 371/371/371
f 372/372/372 374/374/374 373/373/373
f 374/374/374 375/375/375 373/373/373
f 374/374/374 376/376/376 375/375/375
f 376/376/376 377/377/377 375/375/375
f 376/376/376 378/378/378 377/377/377
f 379/379/379 381/381/381 380/380/380
f 379/379/379 380/380/380 382/382/382
f 381/381/381 383/383/383 380/380/380
f 381/381/381 384/384/384 383/383/383
f 385/385/385 387/387/387 386/386/386
f 385/385/385 386/386/386 388/388/388
f 389/389/389 387/387/387 385/385/385
f 389/389/389 385/385/385 390/390/390
f 391/391/391 393/393/393 392/392/392
f 391/391/391 392/392/392 394/394/394
f 392/392/392 395/395/395 394/394/394
f 392/392/392 396/396/396 395/395/395
f 396/396/396 397/397/397 395/395/395
f 396/396/396 398/398/398 397/397/397
f 399/399/399 393/393/393 391/391/391
f 399/399/399 391/391/391 400/400/400
f 400/400/400 401/401/401 399/399/399
f 400/400/400 402/402/402 401/401/401
f 398/398/398 403/403/403 397/397/397
f 398/398/398 404/404/404 403/403/403
f 405/405/405 403/403/403 404/404/404
f 405/405/405 404/404/404 406/406/406
f 407/407/407 405/405/405 406/406/406
f 407/407/407 406/406/406 408/408/408
f 408/408/408 409/409/409 407/407/407
f 410/410/410 412/412/412 411/411/411
f 410/410/410 411/411/411 413/413/413
f 411/411/411 414/414/414 413/413/413
f 411/411/411 415/415/415 414/414/414
f 414/414/414 415/415/415 416/416/416
f 414/414/414 416/416/416 417/417/417
f 418/418/418 410/410/410 413/413/413
f 419/419/419 418/418/418 413/413/413
f 419/419/419 413/413/413 420/420/420
f 413/413/413 421/421/421 420/420/420
f 413/413/413 422/422/422 421/421/421
f 413/413/413 423/423/423 422/422/422
f 424/424/424 426/426/426 425/425/425
f 426/426/426 427/427/427 425/425/425
f 427/427/427 428/428/428 425/425/425
f 425/425/425 429/429/429 424/424/424
f 425/425/425 430/430/430 429/429/429
f 430/430/430 431/431/431 429/429/429
f 427/427/427 432/432/432 428/428/428
f 425/425/425 433/433/433 430/430/430
f 434/434/434 430/430/430 433/433/433
f 434/434/434 435/435/435 430/430/430
f 425/425/425 436/436/436 433/433/433
f 428/428/428 436/436/436 425/425/425
f 428/428/428 437/437/437 436/436/436
f 430/430/430 435/435/435 438/438/438
f 430/430/430 438/438/438 431/431/431
f 438/438/438 439/439/439 431/431/431
f 438/438/438 440/440/440 439/439/439
f 441/441/441 443/443/443 442/442/442
f 441/441/441 442/442/442 444/444/444
f 445/445/445 447/447/447 446/446/446
f 445/445/445 446/446/446 448/448/448
f 446/446/446 447/447/447 449/449/449
f 446/446/446 449/449/449 450/450/450
f 450/450/450 449/449/449 451/451/451
f 450/450/450 451/451/451 452/452/452
f 451/451/451 453/453/453 452/452/452
f 451/451/451 454/454/454 453/453/453
f 455/455/455 453/453/453 454/454/454
f 455/455/455 456/456/456 453/453/453
f 456/456/456 455/455/455 457/457/457
f 456/456/456 457/457/457 458/458/458
f 458/458/458 457/457/457 459/459/459
f 452/452/452 453/453/453 460/460/460
f 461/461/461 463/463/463 462/462/462
f 461/461/461 462/462/462 464/464/464
f 461/461/461 464/464/464 465/465/465
f 461/461/461 465/465/465 466/466/466
f 467/467/467 461/461/461 466/466/466
f 467/467/467 468/468/468 461/461/461
f 468/468/468 467/467/467 469/469/469
f 468/468/468 469/469/469 470/470/470
f 468/468/468 470/470/470 471/471/471
f 472/472/472 468/468/468 471/471/471
f 473/473/473 468/468/468 472/472/472
f 463/463/463 474/474/474 473/473/473
f 473/473/473 474/474/474 468/468/468
f 461/461/461 468/468/468 474/474/474
f 474/474/474 463/463/463 461/461/461
f 463/463/463 473/473/473 475/475/475
f 470/470/470 469/469/469 476/476/476
f 477/477/477 479/479/479 478/478/478
f 478/478/478 479/479/479 480/480/480
f 478/478/478 480/480/480 481/481/481
f 481/481/481 480/480/480 482/482/482
f 482/482/482 480/480/480 483/483/483
f 481/481/481 482/482/482 484/484/484
f 480/480/480 485/485/485 483/483/483
f 483/483/483 485/485/485 486/486/486
f 480/480/480 487/487/487 485/485/485
f 488/488/488 490/490/490 489/489/489
f 488/488/488 489/489/489 491/491/491
f 489/489/489 492/492/492 491/491/491
f 489/489/489 493/493/493 492/492/492
f 493/493/493 494/494/494 492/492/492
f 493/493/493 495/495/495 494/494/494
f 494/494/494 495/495/495 496/496/496
f 494/494/494 496/496/496 497/497/497
f 498/498/498 497/497/497 496/496/496
f 498/498/498 496/496/496 499/499/499
f 499/499/499 500/500/500 498/498/498
f 499/499/499 501/501/501 500/500/500
f 501/501/501 502/502/502 500/500/500
f 495/495/495 503/503/503 496/496/496
f 504/504/504 506/506/506 505/505/505
f 504/504/504 505/505/505 507/507/507
f 504/504/504 508/508/508 506/506/506
f 504/504/504 509/509/509 508/508/508
f 510/510/510 509/509/509 504/504/504
f 510/510/510 504/504/504 511/511/511
f 511/511/511 512/512/512 510/510/510
f 511/511/511 513/513/513 512/512/512
f 511/511/511 514/514/514 513/513/513
f 515/515/515 514/514/514 511/511/511
f 516/516/516 515/515/515 511/511/511
f 507/507/507 517/517/517 516/516/516
f 507/507/507 516/516/516 518/518/518
f 516/516/516 511/511/511 518/518/518
f 504/504/504 518/518/518 511/511/511
f 518/518/518 504/504/504 507/507/507
f 513/513/513 519/519/519 512/512/512
f 520/520/520 522/522/522 521/521/521
f 522/522/522 523/523/523 521/521/521
f 522/522/522 524/524/524 523/523/523
f 524/524/524 525/525/525 523/523/523
f 525/525/525 526/526/526 523/523/523
f 524/524/524 527/527/527 525/525/525
f 523/523/523 526/526/526 528/528/528
f 526/526/526 529/529/529 528/528/528
f 523/523/523 528/528/528 530/530/530

o jtq_001
v -0.09364745 0.385981965 -0.0990595263
v -0.09364745 0.30425193 0.125145838
v -0.209615742 0.357266007 -0.0902238469
v -0.259316438 0.251237854 0.216816011
v -0.269256578 0.282162732 0.010282006
v -0.09364745 0.353952627 -0.307802452
v -0.173168564 0.353952627 -0.307802452
v -0.09364745 0.30535639 -0.428188583
v -0.299076995 0.207059457 0.09422096
v -0.292450236 0.258969074 -0.244848236
v -0.284719016 0.215895137 -0.292340013
v -0.193048843 0.253446774 -0.418248444
v -0.356508911 0.179447959 -0.0858060072
v -0.306808215 0.196014858 0.010282006
v -0.146661526 0.30425193 -0.428188583
v -0.09364745 0.216999597 -0.555201474
v -0.104692049 0.214790677 -0.552992554
v -0.09364745 0.385981965 -0.0990595263
v 0.0223208418 0.357266007 -0.0902238469
v -0.09364745 0.30425193 0.125145838
v 0.0720215383 0.251237854 0.216816011
v 0.0819616776 0.282162732 0.010282006
v -0.09364745 0.353952627 -0.307802452
v -0.0141263356 0.353952627 -0.307802452
v -0.09364745 0.30535639 -0.428188583
v 0.111782095 0.207059457 0.09422096
v 0.105155336 0.258969074 -0.244848236
v 0.0974241165 0.215895137 -0.292340013
v 0.005753943 0.253446774 -0.418248444
v 0.169214011 0.179447959 -0.0858060072
v 0.119513315 0.196014858 0.010282006
v -0.0406333737 0.30425193 -0.428188583
v -0.09364745 0.216999597 -0.555201474
v -0.0826028507 0.214790677 -0.552992554
v -0.193048843 0.257864614 0.396842979
v -0.226182641 0.233566495 0.275352387
v -0.188631003 0.257864614 0.352664582
v -0.318957274 0.222521896 0.573556566
v -0.149974906 0.257864614 0.320635244
v -0.159915045 0.257864614 0.287501446
v -0.268152118 0.177239039 0.291919286
v 0.005753943 0.257864614 0.396842979
v 0.0388877407 0.233566495 0.275352387
v 0.131662374 0.222521896 0.573556566
v 0.00133610331 0.257864614 0.352664582
v -0.0373199939 0.257864614 0.320635244
v -0.0273798547 0.257864614 0.287501446
v 0.0808572177 0.177239039 0.291919286
vt 0.29741 0.789202322
vt 0.29741 0.937564251
vt 0.368843522 0.794697208
vt 0.412802612 0.998008
vt 0.421044941 0.860635843
vt 0.29741 0.66556738
vt 0.335874204 0.66556738
vt 0.29741 0.596881302
vt 0.470498918 0.923827035
vt 0.4375296 0.690294369
vt 0.443024486 0.651830165
vt 0.363348635 0.585891529
vt 0.506215678 0.789202322
vt 0.486983576 0.860635843
vt 0.335874204 0.580396643
vt 0.29741 0.503468235
vt 0.302904886 0.495225906
vt 0.29741 0.789202322
vt 0.368843522 0.794697208
vt 0.29741 0.937564251
vt 0.412802612 0.998008
vt 0.421044941 0.860635843
vt 0.29741 0.66556738
vt 0.335874204 0.66556738
vt 0.29741 0.596881302
vt 0.470498918 0.923827035
vt 0.4375296 0.690294369
vt 0.443024486 0.651830165
vt 0.363348635 0.585891529
vt 0.506215678 0.789202322
vt 0.486983576 0.860635843
vt 0.335874204 0.580396643
vt 0.29741 0.503468235
vt 0.302904886 0.495225906
vt 0.835908855 0.863383286
vt 0.863383286 0.780959992
vt 0.833161412 0.833161412
vt 0.912837263 0.992513114
vt 0.811181867 0.808434424
vt 0.819424196 0.780959992
vt 0.912837263 0.794697208
vt 0.835908855 0.863383286
vt 0.863383286 0.780959992
vt 0.912837263 0.992513114
vt 0.833161412 0.833161412
vt 0.811181867 0.808434424
vt 0.819424196 0.780959992
vt 0.912837263 0.794697208
vn -0.230901241 0.966628871 0.110965049
vn -0.15878165 0.935457785 0.315764343
vn -0.456907435 0.88460084 0.0933646042
vn -0.417741852 0.873066404 0.251489164
vn -0.79278216 0.59561256 0.129391368
vn -0.12057454 0.981208706 -0.150636167
vn -0.519183799 0.80470055 -0.287932644
vn -0.0107959262 0.896447443 -0.443018543
vn -0.873745906 0.473100234 0.11289048
vn -0.727966729 0.674553973 -0.122643295
vn -0.724420995 0.536906487 -0.432372115
vn -0.734089575 0.562777784 -0.37999166
vn -0.792084818 0.606993574 0.064501494
vn -0.849581435 0.370330369 0.37558861
vn -0.30312029 0.812609657 -0.497778701
vn -0.0620064242 0.810398077 -0.582589186
vn -0.271225501 0.736782675 -0.619344829
vn 0.230901241 0.966628871 0.110965049
vn 0.456907435 0.88460084 0.0933646042
vn 0.15878165 0.935457785 0.315764343
vn 0.417741852 0.873066404 0.251489164
vn 0.79278216 0.59561256 0.129391368
vn 0.12057454 0.981208706 -0.150636167
vn 0.519183799 0.80470055 -0.287932644
vn 0.0107959262 0.896447443 -0.443018543
vn 0.873745906 0.473100234 0.11289048
vn 0.727966729 0.674553973 -0.122643295
vn 0.724420995 0.536906487 -0.432372115
vn 0.734089575 0.562777784 -0.37999166
vn 0.792084818 0.606993574 0.064501494
vn 0.849581435 0.370330369 0.37558861
vn 0.30312029 0.812609657 -0.497778701
vn 0.0620064242 0.810398077 -0.582589186
vn 0.271225501 0.736782675 -0.619344829
vn -0.383886008 0.919969246 -0.0792976652
vn -0.561269756 0.813887841 -0.150209333
vn -0.282831843 0.945753909 -0.159861476
vn -0.609136018 0.776604197 -0.160745865
vn -0.243562114 0.963928027 -0.107332457
vn -0.359620696 0.926840612 0.107886209
vn -0.811425261 0.536184093 -0.232584744
vn 0.383886008 0.919969246 -0.0792976652
vn 0.561269756 0.813887841 -0.150209333
vn 0.609136018 0.776604197 -0.160745865
vn 0.282831843 0.945753909 -0.159861476
vn 0.243562114 0.963928027 -0.107332457
vn 0.359620696 0.926840612 0.107886209
vn 0.811425261 0.536184093 -0.232584744

g jtq_001_submesh_0
usemtl b_034
f 531/531/531 533/533/533 532/532/532
f 532/532/532 533/533/533 534/534/534
f 534/534/534 533/533/533 535/535/535
f 533/533/533 531/531/531 536/536/536
f 536/536/536 537/537/537 533/533/533
f 537/537/537 536/536/536 538/538/538
f 534/534/534 535/535/535 539/539/539
f 533/533/533 537/537/537 540/540/540
f 541/541/541 540/540/540 537/537/537
f 537/537/537 542/542/542 541/541/541
f 540/540/540 543/543/543 533/533/533
f 535/535/535 533/533/533 543/543/543
f 535/535/535 543/543/543 544/544/544
f 537/537/537 545/545/545 542/542/542
f 537/537/537 538/538/538 545/545/545
f 545/545/545 538/538/538 546/546/546
f 546/546/546 547/547/547 545/545/545
f 548/548/548 550/550/550 549/549/549
f 550/550/550 551/551/551 549/549/549
f 551/551/551 552/552/552 549/549/549
f 553/553/553 548/548/548 549/549/549
f 549/549/549 554/554/554 553/553/553
f 554/554/554 555/555/555 553/553/553
f 551/551/551 556/556/556 552/552/552
f 557/557/557 554/554/554 549/549/549
f 554/554/554 557/557/557 558/558/558
f 558/558/558 559/559/559 554/554/554
f 549/549/549 560/560/560 557/557/557
f 552/552/552 560/560/560 549/549/549
f 552/552/552 561/561/561 560/560/560
f 554/554/554 559/559/559 562/562/562
f 554/554/554 562/562/562 555/555/555
f 563/563/563 555/555/555 562/562/562
f 562/562/562 564/564/564 563/563/563
f 565/565/565 567/567/567 566/566/566
f 566/566/566 568/568/568 565/565/565
f 566/566/566 567/567/567 569/569/569
f 569/569/569 570/570/570 566/566/566
f 571/571/571 568/568/568 566/566/566
f 572/572/572 574/574/574 573/573/573
f 573/573/573 575/575/575 572/572/572
f 576/576/576 575/575/575 573/573/573
f 573/573/573 577/577/577 576/576/576
f 578/578/578 573/573/573 574/574/574
