# Generated from legacy Unity YAML Mesh assets without Unity.
mtllib gun33.mtl

o gun33
v 0.0595976226 1.73479557 -0.0413103849
v 0.0595976226 1.90839267 0.0110983625
v 0.0487688668 1.65832496 -0.0202150308
v 0.0595976226 1.61031103 -0.0700967535
v 0.0481672697 1.4970336 -0.0354872495
v 0.0595976226 1.46275353 -0.0921809599
v 0.0595976226 1.51615119 -0.00439354032
v 0.0468437523 1.22301388 -0.0360366106
v 0.0595976226 1.22861731 -0.101959549
v 0.0595976226 1.10490191 -0.0506495498
v 0.0380604304 1.1310513 -0.000218510628
v 0.0380604304 0.993052661 -0.0102168694
v 0.0595976226 0.84329772 -0.0775681436
v 0.0344508439 0.888235211 -0.0175782554
v 0.0595976226 1.64579964 0.000221066177
v 0.0344508439 0.649484277 -0.00736024976
v 0.0344508439 0.65607655 -0.0215336718
v 0.037940111 1.2240026 -0.0303233229
v 0.0595976226 1.51615119 -0.00439354032
v 0.0595976226 1.15610206 0.064276129
v 0.0325257294 1.13171053 0.00571455434
v 0.0595976226 0.892630041 0.0346107557
v 0.028434867 0.992613137 -0.00538250431
v 0.0251862407 0.888235211 -0.0123043954
v 0.0201328173 0.672447443 -0.00736024603
v 0.0595976226 0.632893682 0.0681215301
v 0.0595976226 0.625971735 0.0518605262
v 0.0179670677 0.625422418 -0.00527267158
v 0.0595976226 0.570596457 0.0789987743
v 0.0355337188 0.231093347 0.0604304224
v 0.0344508439 0.291522741 0.0015393272
v 0.0344508439 0.42666474 0.00428613648
v 0.0344508439 0.322506458 -0.0285654943
v 0.0344508439 0.440618426 -0.0268075671
v 0.0344508439 0.649484277 -0.00736024976
v 0.0344508439 0.65607655 -0.0215336718
v 0.0344508439 0.135065556 -0.0315320939
v 0.0344508439 0.202306986 -0.0978944451
v 0.0344508439 0.305146754 -0.0691080913
v 0.0344508439 0.156820178 -0.00131737068
v 0.0344508439 0.101335049 -0.00241608173
v 0.0344508439 0.101335049 -0.0315320976
v 0.0344508439 -0.0685264468 -0.0413106792
v 0.0344508439 -0.0944560766 -0.00241611153
v 0.0595976226 -0.121154845 0.0377968699
v 0.0595976226 0.101335049 0.0296663716
v 0.0344508439 -0.089841485 -0.0582308955
v 0.0344508439 -0.0969831944 -0.00439380109
v 0.0344508439 -0.173124135 -0.0641639754
v 0.0344508439 -0.0462224483 -0.142941847
v 0.0344508439 -0.0828097463 -0.185901657
v 0.0344508439 0.0193707943 -0.153379664
v 0.0344508439 0.0286000371 -0.175683588
v 0.0344508439 0.179453731 -0.12052802
v 0.0344508439 0.184617698 -0.161949605
v 0.0344508439 0.269987881 -0.111518547
v 0.0595976226 -0.200921595 -0.00241613016
v 0.0417903364 -0.190813482 -0.0250496957
v 0.0446780026 -0.231685698 -0.0338394456
v 0.0595976226 -0.23542136 -0.0197758414
v 0.0446780026 -0.227840126 -0.0483424738
v 0.0595976226 -0.301014721 -0.0949280336
v 0.0595976226 -0.301014721 -0.0949280336
v 0.0595976226 -0.035564959 -0.137448266
v 0.0595976226 0.0215682983 -0.149753883
v 0.0595976226 0.172751546 -0.118550338
v 0.0595976226 0.187254608 -0.0972352475
v 0.0595976226 0.172751546 -0.118550338
v 0.0595976226 0.269987881 -0.111518547
v 0.0595976226 0.184617698 -0.169311017
v 0.0595976226 0.0286000371 -0.182935104
v 0.0595976226 -0.0929179192 -0.193153173
v 0.0595976226 0.129791796 -0.0424093492
v 0.0595976226 0.0988079906 -0.0383440852
v 0.0595976226 -0.0557813048 -0.0483424477
v 0.0595976226 -0.076766789 -0.0653725564
v 0.0595976226 -0.076766789 -0.0653725564
v 0.0595976226 -0.035564959 -0.137448266
v 0.0595976226 0.187254608 -0.0972352475
v 0.0595976226 -0.179167092 -0.0735030398
v 0.0595976226 -0.227840126 -0.0569124371
v 0.0745172426 -0.227840126 -0.0483424738
v 0.0745172426 -0.231685698 -0.0338394456
v 0.0774049088 -0.190813482 -0.0250496957
v 0.0847444013 -0.0969831944 -0.00439380109
v 0.0847444013 -0.0944560766 -0.00241611153
v 0.0847444013 -0.089841485 -0.0582308955
v 0.0847444013 -0.173124135 -0.0641639754
v 0.0847444013 -0.0462224483 -0.142941847
v 0.0847444013 -0.0828097463 -0.185901657
v 0.0847444013 0.0193707943 -0.153379664
v 0.0847444013 0.0286000371 -0.175683588
v 0.0847444013 0.179453731 -0.12052802
v 0.0847444013 0.184617698 -0.161949605
v 0.0847444013 0.202306986 -0.0978944451
v 0.0847444013 0.269987881 -0.111518547
v 0.0847444013 -0.0685264468 -0.0413106792
v 0.0847444013 0.101335049 -0.00241608173
v 0.0595976226 0.101335049 0.0296663716
v 0.0847444013 0.101335049 -0.0315320976
v 0.0847444013 0.135065556 -0.0315320939
v 0.0847444013 0.322506458 -0.0285654943
v 0.0847444013 0.305146754 -0.0691080913
v 0.0847444013 0.156820178 -0.00131737068
v 0.0849850401 0.182420194 0.0343908519
v 0.0847444013 0.291522741 0.0015393272
v 0.0847444013 0.42666474 0.00428613648
v 0.0836615264 0.231093347 0.0604304224
v 0.0847444013 0.440618426 -0.0268075671
v 0.0847444013 0.649484277 -0.00736024976
v 0.0847444013 0.65607655 -0.0215336718
v 0.0595976226 -0.0557813048 -0.0483424477
v 0.0595976226 -0.076766789 -0.0653725564
v 0.0595976226 0.0988079906 -0.0383440852
v 0.0595976226 0.182420194 0.0343908519
v 0.0595976226 0.231093347 0.0604304224
v 0.0595976226 -0.076766789 -0.0653725564
v 0.0595976226 -0.035564959 -0.137448266
v 0.0595976226 -0.035564959 -0.137448266
v 0.0595976226 0.0215682983 -0.149753883
v 0.0595976226 0.172751546 -0.118550338
v 0.0595976226 0.129791796 -0.0424093492
v 0.0595976226 0.187254608 -0.0972352475
v 0.0595976226 0.187254608 -0.0972352475
v 0.0595976226 0.172751546 -0.118550338
v 0.0437154472 0.102213979 -0.210402995
v 0.0595976226 -0.0685263872 -0.272919953
v 0.0595976226 0.102213979 -0.238090634
v 0.0351727605 0.201867521 -0.17447497
v 0.0595976226 0.269658267 -0.200294778
v 0.0195312202 0.271086574 -0.115034431
v 0.0595976226 0.707826078 -0.100751042
v 0.0195312202 0.306025743 -0.0726240426
v 0.0195312202 0.441497386 -0.0303234514
v 0.0195312202 0.323385447 -0.0323011577
v 0.0195312202 0.65695554 -0.0250495579
v 0.0595976226 0.84329772 -0.0775681436
v 0.0150793977 0.231093347 0.0604304224
v 0.0150793977 0.42666474 0.00428613648
v 0.0595976226 0.359972656 0.0967979431
v 0.0595976226 0.200329244 0.161732048
v 0.0595976226 0.368652523 0.116574839
v 0.0595976226 0.431279302 0.0796580315
v 0.0150793977 0.502036631 0.000660374761
v 0.0595976226 0.433586627 0.101632327
v 0.0595976226 0.503245234 0.0724065006
v 0.0150793977 0.502036631 0.000660374761
v 0.0150793977 0.555763781 -0.00186669081
v 0.0595976226 0.433586627 0.101632327
v 0.0595976226 0.512034893 0.0904254168
v 0.0595976226 0.564223945 0.0602107644
v 0.0179670677 0.625422418 -0.00527267158
v 0.0595976226 0.570596457 0.0789987743
v 0.0468437523 1.22301388 -0.0360366106
v 0.0595976226 1.51615119 -0.00439354032
v 0.037940111 1.2240026 -0.0303233229
v 0.0325257294 1.13171053 0.00571455434
v 0.0380604304 1.1310513 -0.000218510628
v 0.028434867 0.992613137 -0.00538250431
v 0.0380604304 0.993052661 -0.0102168694
v 0.0251862407 0.888235211 -0.0123043954
v 0.0344508439 0.888235211 -0.0175782554
v 0.0201328173 0.672447443 -0.00736024603
v 0.0344508439 0.649484277 -0.00736024976
v 0.0179670677 0.625422418 -0.00527267158
v 0.0150793977 0.555763781 -0.00186669081
v 0.0344508439 0.42666474 0.00428613648
v 0.0150793977 0.502036631 0.000660374761
v 0.0150793977 0.42666474 0.00428613648
v 0.0150793977 0.231093347 0.0604304224
v 0.0355337188 0.231093347 0.0604304224
v 0.0595976226 0.101335049 -0.206777215
v 0.0595976226 -0.0685263872 -0.272919953
v 0.0437154472 0.102213979 -0.210402995
v 0.0351727605 0.201867521 -0.17447497
v 0.0595976226 0.200988531 -0.170739338
v 0.0195312202 0.271086574 -0.115034431
v 0.0344508439 0.269987881 -0.111518547
v 0.0195312202 0.306025743 -0.0726240426
v 0.0195312202 0.271086574 -0.115034431
v 0.0344508439 0.305146754 -0.0691080913
v 0.0195312202 0.323385447 -0.0323011577
v 0.0344508439 0.322506458 -0.0285654943
v 0.0195312202 0.441497386 -0.0303234514
v 0.0344508439 0.322506458 -0.0285654943
v 0.0195312202 0.323385447 -0.0323011577
v 0.0344508439 0.440618426 -0.0268075671
v 0.0195312202 0.65695554 -0.0250495579
v 0.0344508439 0.65607655 -0.0215336718
v 0.0595976226 0.84329772 -0.0775681436
v 0.0342102051 0.182420194 0.0343908519
v 0.0595976226 0.182420194 0.0343908519
v 0.0595976226 0.231093347 0.0604304224
v 0.0150793977 0.231093347 0.0604304224
v 0.0595976226 0.200329244 0.161732048
v 0.0355337188 0.231093347 0.0604304224
v 0.0595976226 0.231093347 0.0604304224
v 0.0595976226 -0.0929179192 -0.193153173
v 0.0595976226 -0.179167092 -0.0735030398
v 0.0344508439 0.269987881 -0.111518547
v 0.0595976226 0.269987881 -0.111518547
v 0.0595976226 0.200988531 -0.170739338
v 0.0595976226 1.73479557 -0.0413103849
v 0.0704263747 1.65832496 -0.0202150308
v 0.0595976226 1.90839267 0.0110983625
v 0.0595976226 1.61031103 -0.0700967535
v 0.0710279793 1.4970336 -0.0354872495
v 0.0595976226 1.46275353 -0.0921809599
v 0.0595976226 1.51615119 -0.00439354032
v 0.0723514929 1.22301388 -0.0360366106
v 0.0595976226 1.22861731 -0.101959549
v 0.0595976226 1.10490191 -0.0506495498
v 0.081134811 1.1310513 -0.000218510628
v 0.081134811 0.993052661 -0.0102168694
v 0.0595976226 0.84329772 -0.0775681436
v 0.0847444013 0.888235211 -0.0175782554
v 0.0595976226 1.64579964 0.000221066177
v 0.0847444013 0.649484277 -0.00736024976
v 0.0847444013 0.65607655 -0.0215336718
v 0.0812551379 1.2240026 -0.0303233229
v 0.0595976226 1.15610206 0.064276129
v 0.0595976226 1.51615119 -0.00439354032
v 0.0866695195 1.13171053 0.00571455434
v 0.0595976226 0.892630041 0.0346107557
v 0.09076038 0.992613137 -0.00538250431
v 0.0940090045 0.888235211 -0.0123043954
v 0.0990624279 0.672447443 -0.00736024603
v 0.0595976226 0.632893682 0.0681215301
v 0.0595976226 0.625971735 0.0518605262
v 0.101228178 0.625422418 -0.00527267158
v 0.0595976226 0.570596457 0.0789987743
v 0.075479798 0.102213979 -0.210402995
v 0.0595976226 0.102213979 -0.238090634
v 0.0595976226 -0.0685263872 -0.272919953
v 0.0840224847 0.201867521 -0.17447497
v 0.0595976226 0.269658267 -0.200294778
v 0.099664025 0.271086574 -0.115034431
v 0.0595976226 0.707826078 -0.100751042
v 0.099664025 0.306025743 -0.0726240426
v 0.099664025 0.441497386 -0.0303234514
v 0.099664025 0.323385447 -0.0323011577
v 0.099664025 0.65695554 -0.0250495579
v 0.0595976226 0.84329772 -0.0775681436
v 0.104115844 0.231093347 0.0604304224
v 0.0595976226 0.359972656 0.0967979431
v 0.104115844 0.42666474 0.00428613648
v 0.0595976226 0.200329244 0.161732048
v 0.0595976226 0.368652523 0.116574839
v 0.0595976226 0.431279302 0.0796580315
v 0.104115844 0.502036631 0.000660374761
v 0.0595976226 0.433586627 0.101632327
v 0.0595976226 0.503245234 0.0724065006
v 0.104115844 0.555763781 -0.00186669081
v 0.104115844 0.502036631 0.000660374761
v 0.0595976226 0.433586627 0.101632327
v 0.0595976226 0.512034893 0.0904254168
v 0.0595976226 0.564223945 0.0602107644
v 0.101228178 0.625422418 -0.00527267158
v 0.0595976226 0.570596457 0.0789987743
v 0.0723514929 1.22301388 -0.0360366106
v 0.0812551379 1.2240026 -0.0303233229
v 0.0595976226 1.51615119 -0.00439354032
v 0.0866695195 1.13171053 0.00571455434
v 0.081134811 1.1310513 -0.000218510628
v 0.09076038 0.992613137 -0.00538250431
v 0.081134811 0.993052661 -0.0102168694
v 0.0940090045 0.888235211 -0.0123043954
v 0.0847444013 0.888235211 -0.0175782554
v 0.0990624279 0.672447443 -0.00736024603
v 0.0847444013 0.649484277 -0.00736024976
v 0.101228178 0.625422418 -0.00527267158
v 0.104115844 0.555763781 -0.00186669081
v 0.0847444013 0.42666474 0.00428613648
v 0.104115844 0.502036631 0.000660374761
v 0.104115844 0.42666474 0.00428613648
v 0.104115844 0.231093347 0.0604304224
v 0.0836615264 0.231093347 0.0604304224
v 0.0595976226 0.101335049 -0.206777215
v 0.075479798 0.102213979 -0.210402995
v 0.0595976226 -0.0685263872 -0.272919953
v 0.0840224847 0.201867521 -0.17447497
v 0.0595976226 0.200988531 -0.170739338
v 0.099664025 0.271086574 -0.115034431
v 0.0847444013 0.269987881 -0.111518547
v 0.099664025 0.306025743 -0.0726240426
v 0.0847444013 0.305146754 -0.0691080913
v 0.099664025 0.271086574 -0.115034431
v 0.099664025 0.323385447 -0.0323011577
v 0.0847444013 0.322506458 -0.0285654943
v 0.099664025 0.441497386 -0.0303234514
v 0.0847444013 0.322506458 -0.0285654943
v 0.0847444013 0.440618426 -0.0268075671
v 0.099664025 0.323385447 -0.0323011577
v 0.099664025 0.65695554 -0.0250495579
v 0.0847444013 0.65607655 -0.0215336718
v 0.0595976226 0.84329772 -0.0775681436
v 0.104115844 0.231093347 0.0604304224
v 0.0836615264 0.231093347 0.0604304224
v 0.0595976226 0.200329244 0.161732048
v 0.0595976226 0.231093347 0.0604304224
v 0.0595976226 -0.179167092 -0.0735030398
v 0.0595976226 -0.227840126 -0.0569124371
v 0.0595976226 -0.0929179192 -0.193153173
v 0.0595976226 0.0286000371 -0.182935104
v 0.0595976226 0.184617698 -0.169311017
v 0.0595976226 0.269987881 -0.111518547
v 0.0595976226 -0.0929179192 -0.193153173
v 0.0595976226 -0.179167092 -0.0735030398
v 0.0847444013 0.269987881 -0.111518547
v 0.0595976226 0.200988531 -0.170739338
v 0.0595976226 0.269987881 -0.111518547
vt 0.1329 0.642400026
vt 0.00439999998 0.682900012
vt 0.189799994 0.658200026
vt 0.225199997 0.620199978
vt 0.309399992 0.646399975
vt 0.334699988 0.603500009
vt 0.295300007 0.670700014
vt 0.512600005 0.646000028
vt 0.508599997 0.596300006
vt 0.600399971 0.634599984
vt 0.5801 0.674199998
vt 0.682600021 0.669700027
vt 0.7949 0.620199978
vt 0.760599971 0.666999996
vt 0.199200004 0.674700022
vt 0.9375 0.67809999
vt 0.932900012 0.667999983
vt 0.220599994 0.513999999
vt 0.00380000006 0.533699989
vt 0.271100014 0.586000025
vt 0.289499998 0.538800001
vt 0.466600001 0.563000023
vt 0.392500013 0.527800024
vt 0.470200002 0.521399975
vt 0.630500019 0.527199984
vt 0.658100009 0.59009999
vt 0.664399981 0.579100013
vt 0.665600002 0.528199971
vt 0.706200004 0.596800029
vt 0.532899976 0.97359997
vt 0.488400012 0.920700014
vt 0.377600014 0.910099983
vt 0.465000004 0.893999994
vt 0.368999988 0.883400023
vt 0.196899995 0.878899992
vt 0.192900002 0.86680001
vt 0.618799984 0.903800011
vt 0.565199971 0.843900025
vt 0.480100006 0.861699998
vt 0.599699974 0.928799987
vt 0.646600008 0.930299997
vt 0.647700012 0.907000005
vt 0.788500011 0.903900027
vt 0.809099972 0.934099972
vt 0.829900026 0.972000003
vt 0.646099985 0.961899996
vt 0.807900012 0.887700021
vt 0.811699986 0.931999981
vt 0.876100004 0.884000003
vt 0.772099972 0.816200018
vt 0.802999973 0.783599973
vt 0.718100011 0.801299989
vt 0.711600006 0.782899976
vt 0.584800005 0.822799981
vt 0.583199978 0.790099978
vt 0.511200011 0.828000009
vt 0.898100019 0.941399992
vt 0.889599979 0.917999983
vt 0.923399985 0.912800014
vt 0.927200019 0.928900003
vt 0.922200024 0.900399983
vt 0.992200017 0.879700005
vt 0.992200017 0.879700005
vt 0.756900012 0.82889998
vt 0.715600014 0.819199979
vt 0.595799983 0.836499989
vt 0.584699988 0.845200002
vt 0.595799983 0.836499989
vt 0.503300011 0.810500026
vt 0.58039999 0.771099985
vt 0.711799979 0.763100028
vt 0.815599978 0.76819998
vt 0.628799975 0.885399997
vt 0.651000023 0.888400018
vt 0.774999976 0.888199985
vt 0.789300025 0.880999982
vt 0.789300025 0.880999982
vt 0.756900012 0.82889998
vt 0.584699988 0.845200002
vt 0.889599979 0.867299974
vt 0.925300002 0.887499988
vt 0.922200024 0.900399983
vt 0.923399985 0.912800014
vt 0.889599979 0.917999983
vt 0.811699986 0.931999981
vt 0.809099972 0.934099972
vt 0.807900012 0.887700021
vt 0.876100004 0.884000003
vt 0.772099972 0.816200018
vt 0.802999973 0.783599973
vt 0.718100011 0.801299989
vt 0.711600006 0.782899976
vt 0.584800005 0.822799981
vt 0.583199978 0.790099978
vt 0.565199971 0.843900025
vt 0.511200011 0.828000009
vt 0.788500011 0.903900027
vt 0.646600008 0.930299997
vt 0.646099985 0.961899996
vt 0.647700012 0.907000005
vt 0.618799984 0.903800011
vt 0.465000004 0.893999994
vt 0.480100006 0.861699998
vt 0.599699974 0.928799987
vt 0.575999975 0.956399977
vt 0.488400012 0.920700014
vt 0.377600014 0.910099983
vt 0.532899976 0.97359997
vt 0.368999988 0.883400023
vt 0.196899995 0.878899992
vt 0.192900002 0.86680001
vt 0.774999976 0.888199985
vt 0.789300025 0.880999982
vt 0.651000023 0.888400018
vt 0.581099987 0.975000024
vt 0.539099991 0.990199983
vt 0.789300025 0.880999982
vt 0.756900012 0.82889998
vt 0.756900012 0.82889998
vt 0.715600014 0.819199979
vt 0.595799983 0.836499989
vt 0.628799975 0.885399997
vt 0.584699988 0.845200002
vt 0.584699988 0.845200002
vt 0.595799983 0.836499989
vt 0.642700016 0.7245
vt 0.793900013 0.701200008
vt 0.647499979 0.699000001
vt 0.553900003 0.738900006
vt 0.502799988 0.699999988
vt 0.484699994 0.7755
vt 0.125799999 0.697600007
vt 0.447699994 0.803499997
vt 0.328399986 0.812900007
vt 0.424600005 0.83160001
vt 0.1523 0.775300026
vt 0.0108000003 0.691100001
vt 0.962400019 0.542900026
vt 0.812699974 0.525399983
vt 0.871500015 0.593200028
vt 0.996599972 0.619700015
vt 0.865800023 0.608399987
vt 0.815400004 0.588800013
vt 0.757300019 0.527700007
vt 0.813499987 0.604900002
vt 0.759899974 0.588999987
vt 0.757300019 0.527700007
vt 0.717400014 0.528599977
vt 0.813499987 0.604900002
vt 0.752699971 0.602100015
vt 0.712000012 0.583599985
vt 0.665600002 0.528199971
vt 0.706200004 0.596800029
vt 0.221300006 0.506699979
vt 0.00380000006 0.533699989
vt 0.220599994 0.513999999
vt 0.289499998 0.538800001
vt 0.289900005 0.532999992
vt 0.392500013 0.527800024
vt 0.3917 0.520399988
vt 0.470200002 0.521399975
vt 0.469900012 0.514100015
vt 0.630500019 0.527199984
vt 0.647499979 0.517499983
vt 0.665600002 0.528199971
vt 0.717400014 0.528599977
vt 0.81309998 0.512600005
vt 0.757300019 0.527700007
vt 0.812699974 0.525399983
vt 0.962400019 0.542900026
vt 0.963800013 0.528999984
vt 0.645600021 0.736500025
vt 0.793900013 0.701200008
vt 0.642700016 0.7245
vt 0.553900003 0.738900006
vt 0.561399996 0.756399989
vt 0.484699994 0.7755
vt 0.489800006 0.785700023
vt 0.447699994 0.803499997
vt 0.484699994 0.7755
vt 0.453900009 0.813899994
vt 0.424600005 0.83160001
vt 0.426999986 0.841799974
vt 0.328399986 0.812900007
vt 0.426999986 0.841799974
vt 0.424600005 0.83160001
vt 0.326799989 0.824699998
vt 0.1523 0.775300026
vt 0.148300007 0.785899997
vt 0.0108000003 0.691100001
vt 0.575999975 0.956399977
vt 0.581099987 0.975000024
vt 0.539099991 0.990199983
vt 0.962400019 0.542900026
vt 0.996599972 0.619700015
vt 0.976199985 0.542100012
vt 0.992500007 0.541299999
vt 0.815599978 0.76819998
vt 0.889599979 0.867299974
vt 0.489800006 0.785700023
vt 0.50059998 0.801500022
vt 0.561399996 0.756399989
vt 0.1329 0.642400026
vt 0.189799994 0.658200026
vt 0.00439999998 0.682900012
vt 0.225199997 0.620199978
vt 0.309399992 0.646399975
vt 0.334699988 0.603500009
vt 0.295300007 0.670700014
vt 0.512600005 0.646000028
vt 0.508599997 0.596300006
vt 0.600399971 0.634599984
vt 0.5801 0.674199998
vt 0.682600021 0.669700027
vt 0.7949 0.620199978
vt 0.760599971 0.666999996
vt 0.199200004 0.674700022
vt 0.9375 0.67809999
vt 0.932900012 0.667999983
vt 0.220599994 0.513999999
vt 0.271100014 0.586000025
vt 0.00380000006 0.533699989
vt 0.289499998 0.538800001
vt 0.466600001 0.563000023
vt 0.392500013 0.527800024
vt 0.470200002 0.521399975
vt 0.630500019 0.527199984
vt 0.658100009 0.59009999
vt 0.664399981 0.579100013
vt 0.665600002 0.528199971
vt 0.706200004 0.596800029
vt 0.642700016 0.7245
vt 0.647499979 0.699000001
vt 0.793900013 0.701200008
vt 0.553900003 0.738900006
vt 0.502799988 0.699999988
vt 0.484699994 0.7755
vt 0.125799999 0.697600007
vt 0.447699994 0.803499997
vt 0.328399986 0.812900007
vt 0.424600005 0.83160001
vt 0.1523 0.775300026
vt 0.0108000003 0.691100001
vt 0.962400019 0.542900026
vt 0.871500015 0.593200028
vt 0.812699974 0.525399983
vt 0.996599972 0.619700015
vt 0.865800023 0.608399987
vt 0.815400004 0.588800013
vt 0.757300019 0.527700007
vt 0.813499987 0.604900002
vt 0.759899974 0.588999987
vt 0.717400014 0.528599977
vt 0.757300019 0.527700007
vt 0.813499987 0.604900002
vt 0.752699971 0.602100015
vt 0.712000012 0.583599985
vt 0.665600002 0.528199971
vt 0.706200004 0.596800029
vt 0.221300006 0.506699979
vt 0.220599994 0.513999999
vt 0.00380000006 0.533699989
vt 0.289499998 0.538800001
vt 0.289900005 0.532999992
vt 0.392500013 0.527800024
vt 0.3917 0.520399988
vt 0.470200002 0.521399975
vt 0.469900012 0.514100015
vt 0.630500019 0.527199984
vt 0.647499979 0.517499983
vt 0.665600002 0.528199971
vt 0.717400014 0.528599977
vt 0.81309998 0.512600005
vt 0.757300019 0.527700007
vt 0.812699974 0.525399983
vt 0.962400019 0.542900026
vt 0.963800013 0.528999984
vt 0.645600021 0.736500025
vt 0.642700016 0.7245
vt 0.793900013 0.701200008
vt 0.553900003 0.738900006
vt 0.561399996 0.756399989
vt 0.484699994 0.7755
vt 0.489800006 0.785700023
vt 0.447699994 0.803499997
vt 0.453900009 0.813899994
vt 0.484699994 0.7755
vt 0.424600005 0.83160001
vt 0.426999986 0.841799974
vt 0.328399986 0.812900007
vt 0.426999986 0.841799974
vt 0.326799989 0.824699998
vt 0.424600005 0.83160001
vt 0.1523 0.775300026
vt 0.148300007 0.785899997
vt 0.0108000003 0.691100001
vt 0.962400019 0.542900026
vt 0.976199985 0.542100012
vt 0.996599972 0.619700015
vt 0.992500007 0.541299999
vt 0.889599979 0.867299974
vt 0.925300002 0.887499988
vt 0.815599978 0.76819998
vt 0.711799979 0.763100028
vt 0.58039999 0.771099985
vt 0.503300011 0.810500026
vt 0.815599978 0.76819998
vt 0.889599979 0.867299974
vt 0.489800006 0.785700023
vt 0.561399996 0.756399989
vt 0.50059998 0.801500022
vn -0.965986645 0.0679622319 -0.249501378
vn -0.996756706 0.034031306 0.0729242002
vn -0.999197663 0.0229184846 0.032844678
vn -0.970916169 0.0373427453 -0.236489562
vn -0.996836389 0.00897863536 -0.0789721283
vn -0.978044972 0.0173358843 -0.207671615
vn -0.929096816 -0.00996446465 0.369702333
vn -0.994394612 -0.0212134616 -0.103582549
vn -0.980679401 -0.0113110511 -0.195294578
vn -0.938617936 -0.00522570667 -0.344918921
vn -0.921196518 -0.00849204922 -0.389004962
vn -0.916343006 0.0417868265 -0.398207681
vn -0.931372353 0.0274967486 -0.363028193
vn -0.920507235 0.00642273041 -0.390672725
vn -0.888028418 -0.018145584 0.459430372
vn -0.946155037 0.00551449252 -0.32366686
vn -0.985513555 0.15377695 0.0715239937
vn -0.959052402 0.0747185465 0.27319522
vn -0.965421364 0.0488400874 0.256078573
vn -0.945172899 0.0370812243 0.324458278
vn -0.889026834 0.00987893439 0.457748507
vn -0.85533057 0.0103044089 0.517980149
vn -0.810952472 -0.0188342061 0.584808825
vn -0.80699901 0.0172794437 0.59029994
vn -0.850928911 0.0342339694 0.524164119
vn -0.879053164 0.030774302 0.475729417
vn -0.837486883 0.0832090148 0.54008516
vn -0.795569338 0.181777512 0.57795014
vn -0.777956719 0.27650528 0.564205791
vn -0.985970097 -0.0706779135 0.151220371
vn -0.999952943 -0.000201406222 0.00969899246
vn -0.999979287 -0.000130793984 0.00643501557
vn -1 0 0
vn -1 0 0
vn -1 0 0
vn -1 0 0
vn -0.983478809 -0.109981092 -0.143783141
vn -0.994290421 -0.102995027 -0.0279030884
vn -1 0 0
vn -0.993028313 -0.04519669 0.108867021
vn -0.937098721 0.00518033251 0.349026004
vn -0.670972838 0.0299113323 -0.740878373
vn -0.954370734 0.0413036056 -0.295754144
vn -0.94947657 -0.0470763778 0.310287058
vn 0 -0.0642833416 0.997931687
vn -0.769112439 -0.055813678 0.636671728
vn -0.980251082 0.197744757 0.00219725681
vn -0.977238531 -0.0887700499 0.192677792
vn -0.959604206 -0.232360411 -0.158645538
vn -0.965929433 0.192418971 0.173075907
vn -0.899961225 -0.130377018 -0.416018782
vn -0.836575042 -0.0195689114 0.547502745
vn -0.911111749 0.0367677458 -0.410516156
vn -0.825252587 -0.14183431 0.546663695
vn -0.767170509 0.173431931 -0.617552245
vn -0.953909315 0.152633572 -0.258379589
vn 1.02232304e-17 -0.391462438 0.920194088
vn -0.944865971 -0.145556887 0.293328297
vn -0.854004222 -0.342839013 0.391328763
vn 0 -0.6787484 0.734370894
vn -0.868838814 -0.115651819 -0.481397728
vn 0.494444641 -0.846925329 -0.195555578
vn -0.713658332 -0.68633836 -0.140112242
vn -0.219383316 0.177776553 0.959305195
vn -0.13249866 -0.13787917 0.981546453
vn -0.34165838 -0.716089409 0.608675209
vn -0.446802868 -0.766631693 -0.461132351
vn -0.129788516 -0.200425319 0.971073958
vn -0.122692402 0.531317809 -0.838240992
vn -0.270263665 0.273144466 -0.923227844
vn -0.270525418 0.0841087435 -0.959031656
vn -0.404591946 -0.42601033 -0.809209834
vn -0.403125213 -0.397360869 -0.824375159
vn -0.258449724 0.030869736 -0.965531356
vn -0.314201295 0.137607312 -0.939330492
vn -0.480672827 0.552564032 -0.680901332
vn -0.37094114 0.816789592 0.441879432
vn -0.430054437 0.783778875 0.44804448
vn -0.416199237 -0.627681679 -0.657870735
vn -0.426560991 -0.308711899 -0.850142743
vn -0.492395347 0.150728842 -0.857220881
vn 0.868838814 -0.115651819 -0.481397728
vn 0.854004222 -0.342839013 0.391328763
vn 0.944865971 -0.145556887 0.293328297
vn 0.977238531 -0.0887700499 0.192677792
vn 0.94947657 -0.0470763778 0.310287058
vn 0.980251082 0.197744757 0.00219725681
vn 0.959604206 -0.232360411 -0.158645538
vn 0.965929433 0.192418971 0.173075907
vn 0.899961225 -0.130377018 -0.416018782
vn 0.836575042 -0.0195689114 0.547502745
vn 0.911111749 0.0367677458 -0.410516156
vn 0.825252587 -0.14183431 0.546663695
vn 0.767170509 0.173431931 -0.617552245
vn 0.994290421 -0.102995027 -0.0279030884
vn 0.953909315 0.152633572 -0.258379589
vn 0.954370734 0.0413036056 -0.295754144
vn 0.937098721 0.00518033251 0.349026004
vn 0.769112439 -0.055813678 0.636671728
vn 0.670972838 0.0299113323 -0.740878373
vn 0.983478809 -0.109981092 -0.143783141
vn 1 0 0
vn 1 0 0
vn 0.993028313 -0.04519669 0.108867021
vn 0.674569342 -0.286410954 0.680385896
vn 0.999952943 -0.000201406222 0.00969899246
vn 0.999979287 -0.000130793984 0.00643501557
vn 0.985970097 -0.0706779135 0.151220371
vn 1 0 0
vn 1 0 0
vn 1 0 0
vn 0.314201295 0.137607312 -0.939330492
vn 0.480672827 0.552564032 -0.680901332
vn 0.258449724 0.030869736 -0.965531356
vn 0 -0.300641423 0.953737246
vn 0 -0.471723993 0.881746264
vn 0.37094114 0.816789592 0.441879432
vn 0.430054437 0.783778875 0.44804448
vn 0.219383316 0.177776553 0.959305195
vn 0.13249866 -0.13787917 0.981546453
vn 0.129788516 -0.200425319 0.971073958
vn 0.403125213 -0.397360869 -0.824375159
vn 0.416199237 -0.627681679 -0.657870735
vn 0.446802868 -0.766631693 -0.461132351
vn 0.34165838 -0.716089409 0.608675209
vn -0.862875776 0.102261765 -0.494962551
vn -0.86298929 0.100980668 -0.495027665
vn -0.858698151 0.108167315 -0.500936441
vn -0.870703721 0.129816435 -0.474365602
vn -0.893316974 0.106648009 -0.436590182
vn -0.937175935 0.103386834 -0.333185278
vn -0.935275999 0.0765999442 -0.345530396
vn -0.985022369 0.0767529294 -0.154401815
vn -0.94765797 0.0428924532 -0.316393125
vn -1 0 0
vn -0.893149692 0.0363515454 -0.448288069
vn -0.90096616 0.0731864391 -0.427672449
vn -0.862873535 0.163064627 0.478392297
vn -0.866107573 0.109594268 0.487695365
vn -0.876682437 0.129014983 0.46344691
vn -0.879432331 0.17935168 0.440944157
vn -0.90656357 0.0986427599 0.410380432
vn -0.890406163 0.0597166838 0.451232514
vn -0.902250143 -0.099128529 0.419664407
vn -0.870179211 -0.49004136 0.0514548911
vn -0.871033027 0.0507684213 0.488593936
vn -0.843055772 0.134040267 0.520855231
vn -0.850101451 0.0630176287 0.522834871
vn -0.831471304 0.214941363 0.512304285
vn -0.878649914 0.0936388549 0.468194503
vn -0.85402952 0.0810747757 0.513868135
vn -0.868916685 -0.0662339631 0.490506735
vn -0.884653655 -0.441541891 0.149762042
vn -0.573453462 -0.0168297367 -0.819065252
vn -0.52756182 0.113828448 -0.841856051
vn -0.538746327 0.0157908176 -0.842320038
vn -0.672993545 -0.120915983 -0.729697892
vn -0.61844827 0.010754358 -0.785751921
vn -0.539685178 0.0714116087 -0.838832695
vn -0.463251157 0.0710961984 -0.883370645
vn -0.483852877 0.0331041231 -0.874523019
vn -0.288544498 -0.0117217298 -0.957394733
vn -0.225283542 -0.0309784203 -0.973800628
vn -0.0500673524 -0.047275004 -0.99762635
vn -0.0616495811 -0.0442749828 -0.997115367
vn -0.0297350181 -0.0503614909 -0.99828831
vn -0.00864539319 -0.17399229 -0.984709064
vn 0.00173030741 -0.0476056367 -0.99886471
vn 0 -0.215420471 -0.976521388
vn 0 -0.275932943 -0.961176888
vn 0 -0.275932943 -0.961176888
vn -0.200979657 -0.346015582 0.916449886
vn -0.226749874 -0.353402475 0.907574342
vn -0.226818497 -0.351220265 0.908403927
vn -0.169885554 -0.458899229 0.872095405
vn -0.164797266 -0.541965543 0.824084469
vn -0.166977556 -0.670147911 0.723201406
vn -0.205845342 -0.721906271 0.660665597
vn -0.184169151 -0.805650453 0.563035586
vn -0.202400115 -0.755840105 0.622687665
vn -0.16689421 -0.857754543 0.486213396
vn -0.148353962 -0.908718472 0.390156174
vn -0.150965311 -0.908738089 0.389107389
vn -0.233956029 -0.019389181 0.972053824
vn -0.236973773 -0.0153615877 0.971394592
vn -0.243755974 -0.0162369967 0.969700668
vn -0.230534509 -0.0218044237 0.972819823
vn -0.224125781 0.0805868321 0.97122263
vn -0.219686491 0.135504641 0.96611404
vn -0.20130799 0.30557649 0.930643918
vn -0.674569342 -0.286410954 0.680385896
vn 0 -0.300641423 0.953737246
vn 0 -0.471723993 0.881746264
vn 0 -0.956849528 -0.290583861
vn 0 -0.956849528 -0.290583861
vn 0 -0.956849528 -0.290583861
vn 0 -0.956849528 -0.290583861
vn -0.38102079 -0.750016886 -0.540645751
vn -0.38102079 -0.750016886 -0.540645751
vn 0 -0.651288851 0.75882991
vn 0 -0.651288851 0.75882991
vn 0 -0.651288851 0.75882991
vn 0.965986667 0.0679622101 -0.249501297
vn 0.999197663 0.0229184921 0.0328446887
vn 0.996756708 0.0340312944 0.0729241753
vn 0.97091617 0.0373427596 -0.236489555
vn 0.99683639 0.00897863949 -0.0789721224
vn 0.978044958 0.0173358897 -0.20767168
vn 0.929096795 -0.0099644601 0.369702387
vn 0.994394616 -0.0212134721 -0.103582512
vn 0.980679397 -0.0113110563 -0.1952946
vn 0.938617953 -0.0052257121 -0.344918874
vn 0.921196543 -0.00849205633 -0.389004902
vn 0.916343023 0.0417868303 -0.398207642
vn 0.93137236 0.0274967519 -0.363028176
vn 0.920507233 0.00642274031 -0.390672731
vn 0.888028482 -0.0181455791 0.459430248
vn 0.946155037 0.00551449252 -0.32366686
vn 0.985513555 0.15377695 0.0715239937
vn 0.95905239 0.074718556 0.273195262
vn 0.945172883 0.037081229 0.324458322
vn 0.965421353 0.0488400953 0.256078614
vn 0.889026815 0.00987893189 0.457748543
vn 0.855330563 0.0103044043 0.517980161
vn 0.810952469 -0.0188342189 0.584808828
vn 0.806999009 0.017279439 0.59029994
vn 0.850928911 0.0342339694 0.524164119
vn 0.879053164 0.030774302 0.475729417
vn 0.837486883 0.0832090148 0.54008516
vn 0.795569338 0.181777512 0.57795014
vn 0.777956719 0.27650528 0.564205791
vn 0.862875776 0.102261765 -0.494962551
vn 0.858698151 0.108167315 -0.500936441
vn 0.86298929 0.100980668 -0.495027665
vn 0.870703721 0.129816435 -0.474365602
vn 0.893316974 0.106648009 -0.436590182
vn 0.937175935 0.103386834 -0.333185278
vn 0.935275999 0.0765999442 -0.345530396
vn 0.985022369 0.0767529294 -0.154401815
vn 0.94765797 0.0428924532 -0.316393125
vn 1 0 0
vn 0.893149692 0.0363515454 -0.448288069
vn 0.90096616 0.0731864391 -0.427672449
vn 0.862873554 0.163064616 0.478392267
vn 0.876682454 0.129014975 0.463446881
vn 0.866107591 0.109594261 0.487695334
vn 0.879432348 0.179351668 0.440944129
vn 0.906563584 0.0986427531 0.410380404
vn 0.890406179 0.0597166798 0.451232484
vn 0.902250157 -0.0991285223 0.419664379
vn 0.870179229 -0.490041329 0.0514548879
vn 0.871033044 0.050768418 0.488593905
vn 0.85010147 0.063017611 0.522834841
vn 0.843055793 0.134040259 0.5208552
vn 0.831471326 0.214941351 0.512304255
vn 0.878649931 0.0936388488 0.468194473
vn 0.854029539 0.0810747451 0.513868108
vn 0.868916697 -0.0662339998 0.490506708
vn 0.884653655 -0.441541891 0.149762042
vn 0.573453256 -0.0168297937 -0.819065395
vn 0.538746167 0.0157908089 -0.842320139
vn 0.527561662 0.113828452 -0.84185615
vn 0.672993185 -0.12091604 -0.729698214
vn 0.618447907 0.0107543031 -0.785752208
vn 0.539684884 0.0714116123 -0.838832884
vn 0.463251008 0.0710962037 -0.883370723
vn 0.483852822 0.0331041302 -0.874523049
vn 0.288544498 -0.0117217269 -0.957394733
vn 0.225283542 -0.0309784203 -0.973800628
vn 0.0500673563 -0.047275004 -0.99762635
vn 0.0616495781 -0.0442749849 -0.997115367
vn 0.0297350224 -0.0503614912 -0.998288309
vn 0.00864539483 -0.173992291 -0.984709064
vn -0.00173030775 -0.0476056367 -0.99886471
vn 0 -0.215420471 -0.976521388
vn 0 -0.275932943 -0.961176888
vn 0 -0.275932943 -0.961176888
vn 0.200979657 -0.346015582 0.916449886
vn 0.226818497 -0.351220265 0.908403927
vn 0.226749874 -0.353402475 0.907574342
vn 0.169885554 -0.458899229 0.872095405
vn 0.164797266 -0.541965543 0.824084469
vn 0.166977556 -0.670147911 0.723201406
vn 0.205845342 -0.721906271 0.660665597
vn 0.184169151 -0.805650453 0.563035586
vn 0.16689421 -0.857754543 0.486213396
vn 0.202400115 -0.755840105 0.622687665
vn 0.148353962 -0.908718472 0.390156174
vn 0.150965311 -0.908738089 0.389107389
vn 0.233956029 -0.019389181 0.972053824
vn 0.236973773 -0.0153615877 0.971394592
vn 0.230534509 -0.0218044237 0.972819823
vn 0.243755974 -0.0162369967 0.969700668
vn 0.224125781 0.0805868321 0.97122263
vn 0.219686491 0.135504641 0.96611404
vn 0.20130799 0.30557649 0.930643918
vn 0 -0.956849528 -0.290583861
vn 0 -0.956849528 -0.290583861
vn 0 -0.956849528 -0.290583861
vn 0 -0.956849528 -0.290583861
vn 0.426560991 -0.308711899 -0.850142743
vn 0.492395347 0.150728842 -0.857220881
vn 0.404591946 -0.42601033 -0.809209834
vn 0.270525418 0.0841087435 -0.959031656
vn 0.270263665 0.273144466 -0.923227844
vn 0.122692402 0.531317809 -0.838240992
vn 0.38102079 -0.750016886 -0.540645751
vn 0.38102079 -0.750016886 -0.540645751
vn 0 -0.651288851 0.75882991
vn 0 -0.651288851 0.75882991
vn 0 -0.651288851 0.75882991

g gun33_submesh_0
usemtl lei_quan_l
f 1/1/1 3/3/3 2/2/2
f 1/1/1 4/4/4 3/3/3
f 4/4/4 5/5/5 3/3/3
f 4/4/4 6/6/6 5/5/5
f 3/3/3 5/5/5 7/7/7
f 8/8/8 7/7/7 5/5/5
f 5/5/5 9/9/9 8/8/8
f 5/5/5 6/6/6 9/9/9
f 8/8/8 9/9/9 10/10/10
f 8/8/8 10/10/10 11/11/11
f 11/11/11 10/10/10 12/12/12
f 12/12/12 10/10/10 13/13/13
f 12/12/12 13/13/13 14/14/14
f 3/3/3 7/7/7 15/15/15
f 3/3/3 15/15/15 2/2/2
f 13/13/13 16/16/16 14/14/14
f 13/13/13 17/17/17 16/16/16
f 18/18/18 20/20/20 19/19/19
f 18/18/18 21/21/21 20/20/20
f 21/21/21 22/22/22 20/20/20
f 21/21/21 23/23/23 22/22/22
f 24/24/24 22/22/22 23/23/23
f 25/25/25 22/22/22 24/24/24
f 25/25/25 26/26/26 22/22/22
f 27/27/27 26/26/26 25/25/25
f 27/27/27 25/25/25 28/28/28
f 28/28/28 29/29/29 27/27/27
f 30/30/30 32/32/32 31/31/31
f 32/32/32 33/33/33 31/31/31
f 32/32/32 34/34/34 33/33/33
f 35/35/35 34/34/34 32/32/32
f 35/35/35 36/36/36 34/34/34
f 31/31/31 33/33/33 37/37/37
f 33/33/33 38/38/38 37/37/37
f 33/33/33 39/39/39 38/38/38
f 31/31/31 37/37/37 40/40/40
f 30/30/30 31/31/31 40/40/40
f 41/41/41 40/40/40 37/37/37
f 41/41/41 37/37/37 42/42/42
f 43/43/43 41/41/41 42/42/42
f 43/43/43 44/44/44 41/41/41
f 45/45/45 41/41/41 44/44/44
f 45/45/45 46/46/46 41/41/41
f 46/46/46 40/40/40 41/41/41
f 43/43/43 47/47/47 44/44/44
f 48/48/48 44/44/44 47/47/47
f 48/48/48 47/47/47 49/49/49
f 47/47/47 50/50/50 49/49/49
f 51/51/51 49/49/49 50/50/50
f 52/52/52 51/51/51 50/50/50
f 52/52/52 53/53/53 51/51/51
f 53/53/53 52/52/52 54/54/54
f 53/53/53 54/54/54 55/55/55
f 55/55/55 54/54/54 38/38/38
f 55/55/55 38/38/38 56/56/56
f 57/57/57 44/44/44 48/48/48
f 44/44/44 57/57/57 45/45/45
f 57/57/57 48/48/48 58/58/58
f 48/48/48 49/49/49 58/58/58
f 57/57/57 58/58/58 59/59/59
f 57/57/57 59/59/59 60/60/60
f 61/61/61 59/59/59 58/58/58
f 61/61/61 58/58/58 49/49/49
f 61/61/61 62/62/62 59/59/59
f 63/63/63 60/60/60 59/59/59
f 64/64/64 52/52/52 50/50/50
f 64/64/64 65/65/65 52/52/52
f 65/65/65 54/54/54 52/52/52
f 66/66/66 38/38/38 54/54/54
f 66/66/66 67/67/67 38/38/38
f 67/67/67 37/37/37 38/38/38
f 65/65/65 68/68/68 54/54/54
f 69/69/69 55/55/55 56/56/56
f 69/69/69 70/70/70 55/55/55
f 71/71/71 55/55/55 70/70/70
f 71/71/71 53/53/53 55/55/55
f 71/71/71 51/51/51 53/53/53
f 71/71/71 72/72/72 51/51/51
f 72/72/72 49/49/49 51/51/51
f 73/73/73 42/42/42 37/37/37
f 73/73/73 74/74/74 42/42/42
f 75/75/75 42/42/42 74/74/74
f 75/75/75 43/43/43 42/42/42
f 75/75/75 47/47/47 43/43/43
f 75/75/75 76/76/76 47/47/47
f 77/77/77 50/50/50 47/47/47
f 77/77/77 78/78/78 50/50/50
f 79/79/79 73/73/73 37/37/37
f 80/80/80 61/61/61 49/49/49
f 80/80/80 81/81/81 61/61/61
f 61/61/61 81/81/81 62/62/62
f 82/82/82 83/83/83 62/62/62
f 82/82/82 84/84/84 83/83/83
f 57/57/57 83/83/83 84/84/84
f 57/57/57 84/84/84 85/85/85
f 57/57/57 85/85/85 86/86/86
f 85/85/85 87/87/87 86/86/86
f 85/85/85 88/88/88 87/87/87
f 85/85/85 84/84/84 88/88/88
f 82/82/82 88/88/88 84/84/84
f 87/87/87 88/88/88 89/89/89
f 90/90/90 89/89/89 88/88/88
f 91/91/91 89/89/89 90/90/90
f 91/91/91 90/90/90 92/92/92
f 92/92/92 93/93/93 91/91/91
f 92/92/92 94/94/94 93/93/93
f 94/94/94 95/95/95 93/93/93
f 94/94/94 96/96/96 95/95/95
f 97/97/97 86/86/86 87/87/87
f 97/97/97 98/98/98 86/86/86
f 45/45/45 86/86/86 98/98/98
f 86/86/86 45/45/45 57/57/57
f 45/45/45 98/98/98 99/99/99
f 97/97/97 100/100/100 98/98/98
f 98/98/98 100/100/100 101/101/101
f 102/102/102 101/101/101 95/95/95
f 102/102/102 95/95/95 103/103/103
f 103/103/103 95/95/95 96/96/96
f 98/98/98 101/101/101 104/104/104
f 99/99/99 98/98/98 104/104/104
f 99/99/99 104/104/104 105/105/105
f 106/106/106 104/104/104 101/101/101
f 106/106/106 101/101/101 102/102/102
f 107/107/107 106/106/106 102/102/102
f 108/108/108 106/106/106 107/107/107
f 108/108/108 105/105/105 104/104/104
f 108/108/108 104/104/104 106/106/106
f 107/107/107 102/102/102 109/109/109
f 110/110/110 107/107/107 109/109/109
f 110/110/110 109/109/109 111/111/111
f 112/112/112 100/100/100 97/97/97
f 112/112/112 97/97/97 87/87/87
f 112/112/112 87/87/87 113/113/113
f 112/112/112 114/114/114 100/100/100
f 115/115/115 105/105/105 108/108/108
f 115/115/115 108/108/108 116/116/116
f 105/105/105 115/115/115 99/99/99
f 117/117/117 87/87/87 89/89/89
f 117/117/117 89/89/89 118/118/118
f 119/119/119 89/89/89 91/91/91
f 119/119/119 91/91/91 120/120/120
f 120/120/120 91/91/91 93/93/93
f 120/120/120 93/93/93 121/121/121
f 122/122/122 100/100/100 114/114/114
f 122/122/122 101/101/101 100/100/100
f 123/123/123 101/101/101 122/122/122
f 124/124/124 95/95/95 101/101/101
f 125/125/125 93/93/93 95/95/95
f 125/125/125 95/95/95 124/124/124
f 126/126/126 128/128/128 127/127/127
f 129/129/129 128/128/128 126/126/126
f 129/129/129 130/130/130 128/128/128
f 129/129/129 131/131/131 130/130/130
f 132/132/132 130/130/130 131/131/131
f 132/132/132 131/131/131 133/133/133
f 134/134/134 132/132/132 133/133/133
f 134/134/134 133/133/133 135/135/135
f 134/134/134 136/136/136 132/132/132
f 136/136/136 137/137/137 132/132/132
f 138/138/138 140/140/140 139/139/139
f 138/138/138 141/141/141 140/140/140
f 140/140/140 142/142/142 139/139/139
f 139/139/139 142/142/142 143/143/143
f 143/143/143 144/144/144 139/139/139
f 143/143/143 145/145/145 144/144/144
f 146/146/146 148/148/148 147/147/147
f 147/147/147 149/149/149 146/146/146
f 146/146/146 150/150/150 148/148/148
f 148/148/148 150/150/150 151/151/151
f 151/151/151 152/152/152 148/148/148
f 151/151/151 153/153/153 152/152/152
f 154/154/154 156/156/156 155/155/155
f 157/157/157 156/156/156 154/154/154
f 157/157/157 154/154/154 158/158/158
f 159/159/159 157/157/157 158/158/158
f 159/159/159 158/158/158 160/160/160
f 161/161/161 159/159/159 160/160/160
f 161/161/161 160/160/160 162/162/162
f 163/163/163 161/161/161 162/162/162
f 163/163/163 162/162/162 164/164/164
f 164/164/164 165/165/165 163/163/163
f 166/166/166 165/165/165 164/164/164
f 166/166/166 164/164/164 167/167/167
f 167/167/167 168/168/168 166/166/166
f 167/167/167 169/169/169 168/168/168
f 170/170/170 169/169/169 167/167/167
f 170/170/170 167/167/167 171/171/171
f 172/172/172 174/174/174 173/173/173
f 175/175/175 174/174/174 172/172/172
f 175/175/175 172/172/172 176/176/176
f 177/177/177 175/175/175 176/176/176
f 177/177/177 176/176/176 178/178/178
f 179/179/179 180/180/180 178/178/178
f 179/179/179 178/178/178 181/181/181
f 182/182/182 179/179/179 181/181/181
f 182/182/182 181/181/181 183/183/183
f 184/184/184 186/186/186 185/185/185
f 184/184/184 185/185/185 187/187/187
f 188/188/188 184/184/184 187/187/187
f 188/188/188 187/187/187 189/189/189
f 189/189/189 190/190/190 188/188/188
f 46/46/46 191/191/191 40/40/40
f 30/30/30 40/40/40 191/191/191
f 192/192/192 30/30/30 191/191/191
f 191/191/191 46/46/46 192/192/192
f 192/192/192 193/193/193 30/30/30
f 194/194/194 196/196/196 195/195/195
f 196/196/196 197/197/197 195/195/195
f 198/198/198 199/199/199 49/49/49
f 39/39/39 56/56/56 38/38/38
f 200/200/200 202/202/202 201/201/201
f 203/203/203 205/205/205 204/204/204
f 203/203/203 204/204/204 206/206/206
f 206/206/206 204/204/204 207/207/207
f 206/206/206 207/207/207 208/208/208
f 204/204/204 209/209/209 207/207/207
f 210/210/210 207/207/207 209/209/209
f 207/207/207 210/210/210 211/211/211
f 207/207/207 211/211/211 208/208/208
f 210/210/210 212/212/212 211/211/211
f 210/210/210 213/213/213 212/212/212
f 213/213/213 214/214/214 212/212/212
f 214/214/214 215/215/215 212/212/212
f 214/214/214 216/216/216 215/215/215
f 204/204/204 217/217/217 209/209/209
f 204/204/204 205/205/205 217/217/217
f 215/215/215 216/216/216 218/218/218
f 215/215/215 218/218/218 219/219/219
f 220/220/220 222/222/222 221/221/221
f 220/220/220 221/221/221 223/223/223
f 223/223/223 221/221/221 224/224/224
f 223/223/223 224/224/224 225/225/225
f 226/226/226 225/225/225 224/224/224
f 227/227/227 226/226/226 224/224/224
f 227/227/227 224/224/224 228/228/228
f 229/229/229 227/227/227 228/228/228
f 229/229/229 230/230/230 227/227/227
f 230/230/230 229/229/229 231/231/231
f 232/232/232 234/234/234 233/233/233
f 235/235/235 232/232/232 233/233/233
f 235/235/235 233/233/233 236/236/236
f 235/235/235 236/236/236 237/237/237
f 238/238/238 237/237/237 236/236/236
f 238/238/238 239/239/239 237/237/237
f 240/240/240 239/239/239 238/238/238
f 240/240/240 241/241/241 239/239/239
f 240/240/240 238/238/238 242/242/242
f 242/242/242 238/238/238 243/243/243
f 244/244/244 246/246/246 245/245/245
f 244/244/244 245/245/245 247/247/247
f 245/245/245 246/246/246 248/248/248
f 246/246/246 249/249/249 248/248/248
f 249/249/249 246/246/246 250/250/250
f 249/249/249 250/250/250 251/251/251
f 252/252/252 254/254/254 253/253/253
f 254/254/254 252/252/252 255/255/255
f 252/252/252 253/253/253 256/256/256
f 253/253/253 257/257/257 256/256/256
f 257/257/257 253/253/253 258/258/258
f 257/257/257 258/258/258 259/259/259
f 260/260/260 262/262/262 261/261/261
f 263/263/263 260/260/260 261/261/261
f 263/263/263 264/264/264 260/260/260
f 265/265/265 264/264/264 263/263/263
f 265/265/265 266/266/266 264/264/264
f 267/267/267 266/266/266 265/265/265
f 267/267/267 268/268/268 266/266/266
f 269/269/269 268/268/268 267/267/267
f 269/269/269 270/270/270 268/268/268
f 270/270/270 269/269/269 271/271/271
f 272/272/272 270/270/270 271/271/271
f 272/272/272 273/273/273 270/270/270
f 273/273/273 272/272/272 274/274/274
f 273/273/273 274/274/274 275/275/275
f 276/276/276 273/273/273 275/275/275
f 276/276/276 277/277/277 273/273/273
f 278/278/278 280/280/280 279/279/279
f 281/281/281 278/278/278 279/279/279
f 281/281/281 282/282/282 278/278/278
f 283/283/283 282/282/282 281/281/281
f 283/283/283 284/284/284 282/282/282
f 285/285/285 286/286/286 284/284/284
f 285/285/285 284/284/284 287/287/287
f 288/288/288 286/286/286 285/285/285
f 288/288/288 289/289/289 286/286/286
f 290/290/290 292/292/292 291/291/291
f 290/290/290 291/291/291 293/293/293
f 294/294/294 292/292/292 290/290/290
f 294/294/294 295/295/295 292/292/292
f 295/295/295 294/294/294 296/296/296
f 57/57/57 60/60/60 83/83/83
f 62/62/62 83/83/83 60/60/60
f 297/297/297 299/299/299 298/298/298
f 298/298/298 299/299/299 300/300/300
f 301/301/301 88/88/88 82/82/82
f 301/301/301 82/82/82 302/302/302
f 82/82/82 63/63/63 302/302/302
f 303/303/303 90/90/90 88/88/88
f 304/304/304 90/90/90 303/303/303
f 304/304/304 92/92/92 90/90/90
f 304/304/304 94/94/94 92/92/92
f 304/304/304 305/305/305 94/94/94
f 306/306/306 94/94/94 305/305/305
f 306/306/306 96/96/96 94/94/94
f 307/307/307 88/88/88 308/308/308
f 309/309/309 311/311/311 310/310/310
