# Generated from legacy Unity YAML Mesh assets without Unity.
mtllib gun38.mtl

o gun38
v -0.0531164818 0.196176231 -0.631883144
v -0.0310197752 0.209659398 -0.631913662
v -0.0308108069 0.226617068 -0.625450969
v -0.0308108069 0.226617068 -0.625450969
v -0.0625537112 0.196971849 -0.475752681
v -0.0531164818 0.196176231 -0.631883144
v -0.0312507227 0.237282693 -0.478588104
v -0.0815375075 0.173391461 -0.381948262
v -0.0394058004 0.264443398 -0.292800814
v -0.0715335235 0.279170245 -0.0409061611
v -0.0464274026 0.334981829 -0.0386927426
v -0.0679123551 0.171689689 -0.628491282
v -0.0471215919 0.19342646 -0.75701189
v -0.0310197752 0.209659398 -0.631913662
v -0.0304103401 0.203573361 -0.758015037
v -0.0285405871 0.1849038 -1.14484203
v -0.0637594312 0.169143245 -0.728590727
v -0.0500777587 0.115408659 -1.07990134
v -0.0506673306 0.169143245 -0.728590727
v 0.0464273803 0.334981829 -0.0386927426
v 0.039405793 0.264443398 -0.292800814
v 0.0312507823 0.237282693 -0.478588104
v 0.0308109708 0.226617068 -0.625450969
v -0.0308108069 0.226617068 -0.625450969
v -0.0304103401 0.203573361 -0.758015037
v 0.0310199466 0.209659398 -0.631913662
v 0.0304104853 0.203573361 -0.758015037
v 0.0285409223 0.1849038 -1.14484203
v 0.0500780717 0.115408659 -1.07990134
v -0.0597419143 0.100953273 -0.618692994
v 0.0597420149 0.100953273 -0.618692994
v -0.0597419143 0.100953273 -0.618692994
v -0.0506673306 0.169143245 -0.728590727
v -0.0548202395 0.171689689 -0.628491282
v -0.0500777587 0.115408659 -1.07990134
v -0.0644908696 0.173391461 -0.381948233
v -0.0662197098 0.00625140965 -0.298229247
v -0.0703481659 0.172814205 -0.0983057022
v -0.0709569827 0.0941969976 -0.0688236058
v -0.0705564767 0.0246958137 -0.0882206112
v -0.0674837828 -0.0454849526 -0.237015009
v -0.0722518861 -0.0777104422 -0.00612032413
v -0.0709705129 0.197920114 -0.0681714118
v -0.071635507 0.120480686 -0.0359665155
v -0.0719737187 0.173123389 0.195103347
v -0.0724110156 0.11813812 0.178727806
v -0.0705012307 0.219120979 -0.0867176205
v -0.0713752732 0.240466833 -0.0485715568
v -0.0471215919 0.19342646 -0.75701189
v -0.0637594312 0.169143245 -0.728590727
v -0.0506673306 0.169143245 -0.728590727
v -0.0506673306 0.169143245 -0.728590727
v -0.0679123551 0.171689689 -0.628491282
v -0.0548202395 0.171689689 -0.628491282
v -0.0506673306 0.169143245 -0.728590727
v -0.0637594312 0.169143245 -0.728590727
v -0.0679123551 0.171689689 -0.628491282
v -0.121381551 0.223441094 -0.0708410591
v -0.0715335235 0.279170245 -0.0409061611
v -0.0732070506 0.301169723 0.0401354134
v -0.0815375075 0.173391461 -0.381948262
v -0.121381551 0.223441094 -0.0708410591
v -0.0713752732 0.240466833 -0.0485715568
v -0.0705012307 0.219120979 -0.0867176205
v -0.0732070506 0.301169723 0.0401354134
v -0.0815375075 0.173391461 -0.381948262
v -0.121381551 0.223441094 -0.0708410591
v -0.181317866 0.172814205 -0.0983057171
v -0.0679123551 0.171689689 -0.628491282
v -0.0644908696 0.173391461 -0.381948233
v -0.0548202395 0.171689689 -0.628491282
v -0.0815375075 0.173391461 -0.381948262
v -0.0703481659 0.172814205 -0.0983057022
v -0.181317866 0.172814205 -0.0983057171
v -0.0703481659 0.172814205 -0.0983057022
v -0.121381551 0.223441094 -0.0708410591
v -0.0705012307 0.219120979 -0.0867176205
v -0.181317866 0.172814205 -0.0983057171
v 0.0299779661 -0.143192649 0.343826026
v -0.0323927775 -0.0961005315 0.0386495292
v -0.0299781803 -0.143192649 0.343826026
v 0.0323926583 -0.0961005315 0.0386495292
v 0.0299779661 -0.143192649 0.343826026
v -0.0293614119 -0.118751071 0.389061004
v 0.0293611828 -0.118751071 0.389061004
v -0.0299781803 -0.143192649 0.343826026
v 0.0323072448 -0.0599400178 0.0293001831
v 0.0323926583 -0.0961005315 0.0386495292
v 0.0307728872 -0.0464151725 0.283149153
v -0.0293614119 -0.118751071 0.389061004
v -0.0307730846 -0.0464151725 0.283149153
v 0.0310271606 -0.0143731907 0.263117641
v -0.0310272798 -0.0143731907 0.263117641
v 0.032932166 -0.0435176566 0.097668618
v -0.0323072895 -0.0599400178 0.0293001831
v -0.0329322964 -0.0435176566 0.097668618
v -0.0318592638 -0.00271638483 0.195200622
v 0.0318590887 -0.00271638483 0.195200622
v 0.0322358161 0.0657643452 0.021487087
v 0.0324443765 0.0673192143 0.144970715
v -0.0322358571 0.0657643452 0.021487087
v -0.0324445218 0.0673192143 0.144970715
v 0.0323926583 -0.0961005315 0.0386495292
v 0.0323072448 -0.0599400178 0.0293001831
v -0.0323927775 -0.0961005315 0.0386495292
v -0.0329322964 -0.0435176566 0.097668618
v 0.032932166 -0.0435176566 0.097668618
v 0.0322050899 0.0831298977 0.165775508
v -0.0321036503 0.134905681 0.174490184
v 0.0321034826 0.134905681 0.174490184
v -0.0322051793 0.0831298977 0.165775508
v 0.0324443765 0.0673192143 0.144970715
v -0.0324445218 0.0673192143 0.144970715
v 0.0321034826 0.134905681 0.174490184
v 0.0322358161 0.0657643452 0.021487087
v 0.0322050899 0.0831298977 0.165775508
v 0.0316534042 0.12947613 -0.0422285497
v 0.0324443765 0.0673192143 0.144970715
v -0.0322358571 0.0657643452 0.021487087
v 0.0316534042 0.12947613 -0.0422285497
v -0.0316534303 0.12947613 -0.0422285497
v 0.0322358161 0.0657643452 0.021487087
v -0.0322051793 0.0831298977 0.165775508
v -0.0316534303 0.12947613 -0.0422285497
v -0.0321036503 0.134905681 0.174490184
v -0.0322358571 0.0657643452 0.021487087
v -0.0324445218 0.0673192143 0.144970715
v -0.0299781803 -0.143192649 0.343826026
v -0.0323072895 -0.0599400178 0.0293001831
v -0.0293614119 -0.118751071 0.389061004
v -0.0323927775 -0.0961005315 0.0386495292
v -0.0307730846 -0.0464151725 0.283149153
v -0.0329322964 -0.0435176566 0.097668618
v -0.0310272798 -0.0143731907 0.263117641
v -0.0318592638 -0.00271638483 0.195200622
v -0.0322358571 0.0657643452 0.021487087
v -0.0324445218 0.0673192143 0.144970715
v -0.047495123 0.266330332 0.5431422
v 0.0476171337 0.324145138 0.543794274
v 0.04763484 0.266330332 0.5431422
v -0.0474775471 0.324145138 0.543794274
v -0.0526946411 0.159760222 0.336747617
v -0.0516280234 0.148658067 0.381629914
v 0.04763484 0.266330332 0.5431422
v 0.0517800041 0.148658067 0.381629914
v -0.0551330112 0.269144744 0.22742179
v -0.0537109934 0.131720468 0.292508334
v -0.0548854582 0.125820696 -0.0783667862
v 0.0550471321 0.125820696 -0.0783667564
v 0.0538690984 0.131720468 0.292508334
v 0.0528496839 0.159760222 0.336747617
v -0.0552650131 0.281031311 -0.0536263734
v -0.0577129014 0.328878224 0.0988378525
v 0.0517800041 0.148658067 0.381629914
v 0.0528496839 0.159760222 0.336747617
v -0.0516280234 0.148658067 0.381629914
v 0.0528496839 0.159760222 0.336747617
v 0.04763484 0.266330332 0.5431422
v 0.0476171337 0.324145138 0.543794274
v 0.0517800041 0.148658067 0.381629914
v 0.0551427193 0.269144744 0.22742179
v 0.0538690984 0.131720468 0.292508334
v 0.0550471321 0.125820696 -0.0783667564
v 0.0551834852 0.281031311 -0.0536263436
v 0.0577231161 0.328878224 0.0988378525
v -0.0577129014 0.328878224 0.0988378525
v -0.0552650131 0.281031311 -0.0536263734
v -0.0474775471 0.324145138 0.543794274
v 0.0551427193 0.269144744 0.22742179
v 0.0476171337 0.324145138 0.543794274
v -0.0551330112 0.269144744 0.22742179
v -0.0551330112 0.269144744 0.22742179
v 0.0577231161 0.328878224 0.0988378525
v 0.0551427193 0.269144744 0.22742179
v -0.0577129014 0.328878224 0.0988378525
v 0.0724109337 0.11813812 0.178727806
v -0.0719737187 0.173123389 0.195103347
v 0.0719735548 0.173123389 0.195103347
v -0.0724110156 0.11813812 0.178727806
v -0.071635507 0.120480686 -0.0359665155
v 0.0716354847 0.120480686 -0.0359665155
v -0.0709569827 0.0941969976 -0.0688236058
v 0.0709569678 0.0941969976 -0.068823576
v 0.0705563948 0.0246958137 -0.0882205814
v -0.0705564767 0.0246958137 -0.0882206112
v 0.0722517967 -0.0777104422 -0.00612032413
v -0.0722518861 -0.0777104422 -0.00612032413
v -0.0310197752 0.209659398 -0.631913662
v 0.0308109708 0.226617068 -0.625450969
v -0.0308108069 0.226617068 -0.625450969
v 0.0310199466 0.209659398 -0.631913662
v 0.0531166457 0.196176231 -0.631883144
v 0.0308109708 0.226617068 -0.625450969
v 0.0625538304 0.196971849 -0.475752652
v 0.0312507823 0.237282693 -0.478588104
v 0.0531166457 0.196176231 -0.631883144
v 0.0815375894 0.173391461 -0.381948233
v 0.039405793 0.264443398 -0.292800814
v 0.0715334862 0.279170245 -0.0409061611
v 0.0464273803 0.334981829 -0.0386927426
v 0.067912437 0.171689689 -0.628491282
v 0.0471217372 0.19342646 -0.75701189
v 0.0310199466 0.209659398 -0.631913662
v 0.0304104853 0.203573361 -0.758015037
v 0.0285409223 0.1849038 -1.14484203
v 0.0637596324 0.169143245 -0.728590727
v 0.0500780717 0.115408659 -1.07990134
v 0.0506674685 0.169143245 -0.728590727
v 0.0597420149 0.100953273 -0.618692994
v 0.0548203401 0.171689689 -0.628491282
v 0.064490892 0.173391461 -0.381948233
v 0.0662197098 0.00625140965 -0.298229218
v 0.0703481585 0.172814205 -0.0983056724
v 0.0709569678 0.0941969976 -0.068823576
v 0.0705563948 0.0246958137 -0.0882205814
v 0.06748382 -0.0454849526 -0.237014994
v 0.0722517967 -0.0777104422 -0.00612032413
v 0.070970431 0.197920114 -0.068171382
v 0.0716354847 0.120480686 -0.0359665155
v 0.0719735548 0.173123389 0.195103347
v 0.0724109337 0.11813812 0.178727806
v 0.0705012232 0.219120979 -0.0867175907
v 0.0713751763 0.240466833 -0.0485715568
v -0.0597419143 0.100953273 -0.618692994
v 0.0662197098 0.00625140965 -0.298229218
v -0.0662197098 0.00625140965 -0.298229247
v 0.0662197098 0.00625140965 -0.298229218
v -0.0674837828 -0.0454849526 -0.237015009
v 0.06748382 -0.0454849526 -0.237014994
v -0.0285405871 0.1849038 -1.14484203
v 0.0500780717 0.115408659 -1.07990134
v 0.0285409223 0.1849038 -1.14484203
v -0.0500777587 0.115408659 -1.07990134
v -0.0709705129 0.197920114 -0.0681714118
v 0.0719735548 0.173123389 0.195103347
v -0.0719737187 0.173123389 0.195103347
v 0.070970431 0.197920114 -0.068171382
v 0.0732069984 0.301169723 0.0401354134
v -0.0713752732 0.240466833 -0.0485715568
v -0.0732070506 0.301169723 0.0401354134
v 0.0713751763 0.240466833 -0.0485715568
v -0.0709705129 0.197920114 -0.0681714118
v 0.070970431 0.197920114 -0.068171382
v 0.0471217372 0.19342646 -0.75701189
v 0.0506674685 0.169143245 -0.728590727
v 0.0637596324 0.169143245 -0.728590727
v 0.0506674685 0.169143245 -0.728590727
v 0.067912437 0.171689689 -0.628491282
v 0.0637596324 0.169143245 -0.728590727
v 0.0548203401 0.171689689 -0.628491282
v 0.067912437 0.171689689 -0.628491282
v -0.0722518861 -0.0777104422 -0.00612032413
v 0.06748382 -0.0454849526 -0.237014994
v -0.0674837828 -0.0454849526 -0.237015009
v 0.0722517967 -0.0777104422 -0.00612032413
v -0.0732070506 0.301169723 0.0401354134
v 0.0715334862 0.279170245 -0.0409061611
v 0.0732069984 0.301169723 0.0401354134
v -0.0715335235 0.279170245 -0.0409061611
v -0.0715335235 0.279170245 -0.0409061611
v 0.0464273803 0.334981829 -0.0386927426
v 0.0715334862 0.279170245 -0.0409061611
v -0.0464274026 0.334981829 -0.0386927426
v 0.121381477 0.223441094 -0.0708410293
v 0.0732069984 0.301169723 0.0401354134
v 0.0715334862 0.279170245 -0.0409061611
v 0.0815375894 0.173391461 -0.381948233
v 0.121381477 0.223441094 -0.0708410293
v 0.0713751763 0.240466833 -0.0485715568
v 0.0732069984 0.301169723 0.0401354134
v 0.0705012232 0.219120979 -0.0867175907
v 0.0815375894 0.173391461 -0.381948233
v 0.181317806 0.172814205 -0.0983056575
v 0.121381477 0.223441094 -0.0708410293
v 0.067912437 0.171689689 -0.628491282
v 0.064490892 0.173391461 -0.381948233
v 0.0815375894 0.173391461 -0.381948233
v 0.0548203401 0.171689689 -0.628491282
v 0.0703481585 0.172814205 -0.0983056724
v 0.181317806 0.172814205 -0.0983056575
v 0.0703481585 0.172814205 -0.0983056724
v 0.121381477 0.223441094 -0.0708410293
v 0.181317806 0.172814205 -0.0983056575
v 0.0705012232 0.219120979 -0.0867175907
vt 0.831526995 0.442903012
vt 0.862793982 0.461795986
vt 0.862863004 0.485927999
vt 0.387309998 0.229629993
vt 0.503189981 0.207625002
vt 0.387295008 0.207035005
vt 0.501697004 0.237546995
vt 0.571534991 0.190027997
vt 0.638373971 0.261649013
vt 0.825972021 0.268640012
vt 0.827615023 0.309899002
vt 0.389813006 0.188858002
vt 0.291500002 0.204118997
vt 0.387273014 0.217042997
vt 0.291824013 0.210111007
vt 0.00653100014 0.198667005
vt 0.314644992 0.185657993
vt 0.0547359996 0.147082001
vt 0.315519005 0.185567006
vt 0.818404973 0.335420012
vt 0.627542973 0.292753994
vt 0.498057991 0.265193999
vt 0.387041003 0.261629999
vt 0.38688001 0.233972996
vt 0.290755987 0.212524995
vt 0.387273014 0.238905996
vt 0.290755987 0.234759003
vt 0.00571799977 0.219327003
vt 0.0537669994 0.148865998
vt 0.397085994 0.136351004
vt 0.397379994 0.138034999
vt 0.397085994 0.136351004
vt 0.315519005 0.185567006
vt 0.389813006 0.188858002
vt 0.0547359996 0.147082001
vt 0.572820008 0.190121993
vt 0.634962976 0.0660549998
vt 0.784910023 0.189349994
vt 0.805248976 0.131336004
vt 0.790850997 0.0797460005
vt 0.680401981 0.0276519991
vt 0.851792991 0.003731
vt 0.805733025 0.208329007
vt 0.829638004 0.150846004
vt 0.996487975 0.187746003
vt 0.985134006 0.147304997
vt 0.799700022 0.221671
vt 0.820281982 0.237201005
vt 0.328339994 0.185090005
vt 0.328108996 0.185216993
vt 0.328025013 0.185216993
vt 0.328025013 0.185216993
vt 0.389813006 0.188858002
vt 0.389813006 0.188858002
vt 0.328025013 0.185216993
vt 0.328108996 0.185216993
vt 0.389813006 0.188858002
vt 0.799700022 0.221671
vt 0.825972021 0.268640012
vt 0.880798995 0.282653004
vt 0.571534991 0.190027997
vt 0.922532022 0.0838370025
vt 0.902409971 0.131603003
vt 0.930184007 0.131603003
vt 0.823423982 0.131603003
vt 0.571534991 0.190027997
vt 0.799700022 0.221671
vt 0.786121011 0.192227006
vt 0.728865027 0.153248996
vt 0.738925993 0.152586997
vt 0.728837013 0.152713999
vt 0.738961995 0.153283
vt 0.750522017 0.152226001
vt 0.751049995 0.153264999
vt 0.990447998 0.131603003
vt 0.922532022 0.0838370025
vt 0.930184007 0.131603003
vt 0.990447998 0.00629599998
vt 0.015927 0.0919940025
vt 0.191764995 0.135016993
vt 0.0153109999 0.134016007
vt 0.192333996 0.0961629972
vt 0.552875996 0.302709997
vt 0.506192982 0.311233014
vt 0.517875016 0.321819007
vt 0.541796982 0.292542994
vt 0.80004698 0.378138989
vt 0.794384003 0.348318994
vt 0.600225985 0.385118991
vt 0.501509011 0.338234007
vt 0.573314011 0.402240992
vt 0.61639899 0.416370004
vt 0.601067007 0.428371996
vt 0.745076001 0.392248988
vt 0.818714023 0.384795994
vt 0.769685984 0.399096012
vt 0.642872989 0.435512006
vt 0.668596029 0.423988014
vt 0.808722019 0.483548999
vt 0.703927994 0.486391991
vt 0.820841014 0.467189014
vt 0.685379028 0.495985001
vt 0.794384003 0.348318994
vt 0.80004698 0.378138006
vt 0.812792003 0.35186699
vt 0.769685984 0.399096012
vt 0.745076001 0.392248988
vt 0.479593009 0.451528996
vt 0.461010009 0.494560987
vt 0.470445007 0.494560987
vt 0.468760997 0.451528996
vt 0.490541011 0.438854009
vt 0.483954012 0.438854009
vt 0.470445007 0.494560987
vt 0.597495019 0.438717991
vt 0.479593009 0.451528996
vt 0.65072602 0.494560987
vt 0.490539998 0.438854009
vt 0.619145989 0.438717991
vt 0.65072602 0.494560987
vt 0.671133995 0.494560987
vt 0.597495019 0.438717991
vt 0.480590999 0.451528996
vt 0.65072602 0.494560987
vt 0.470445007 0.494560987
vt 0.597495019 0.438717991
vt 0.496825993 0.438854009
vt 0.552875996 0.302709997
vt 0.80004698 0.378138989
vt 0.517875016 0.321819007
vt 0.794384003 0.348318994
vt 0.600225985 0.385118991
vt 0.745076001 0.392248988
vt 0.61639899 0.416370004
vt 0.668596029 0.423988014
vt 0.808722019 0.483547986
vt 0.703927994 0.486391991
vt 0.463833988 0.38705799
vt 0.503069997 0.431796014
vt 0.503069997 0.387259007
vt 0.464244992 0.431594998
vt 0.314745009 0.307963997
vt 0.341969013 0.302285999
vt 0.480583012 0.357876003
vt 0.343075991 0.274480999
vt 0.236063004 0.395752996
vt 0.283546001 0.282406002
vt 0.00751199992 0.282061994
vt 0.00751199992 0.243950993
vt 0.283546001 0.242317006
vt 0.314332008 0.281854987
vt 0.02458 0.407786012
vt 0.143867999 0.445336014
vt 0.343075991 0.274480999
vt 0.314332008 0.281854987
vt 0.341969013 0.302285999
vt 0.314745009 0.307963997
vt 0.463833988 0.38705799
vt 0.464244992 0.431594998
vt 0.341969013 0.302285999
vt 0.236063004 0.395752996
vt 0.283546001 0.282406002
vt 0.00751199992 0.282061994
vt 0.02458 0.407806009
vt 0.143867999 0.445336014
vt 0.143867999 0.482398003
vt 0.0264689997 0.448249012
vt 0.303559989 0.434960991
vt 0.432377011 0.490022987
vt 0.303559989 0.490022987
vt 0.432377011 0.434960991
vt 0.989491999 0.213905007
vt 0.897574008 0.318675995
vt 0.897574008 0.213905007
vt 0.989491999 0.318675995
vt 0.248153001 0.0847069994
vt 0.278035015 0.00414900016
vt 0.278035015 0.0847069994
vt 0.248153001 0.00414900016
vt 0.137507007 0.00414900016
vt 0.137507007 0.0847069994
vt 0.115289003 0.00414900016
vt 0.115287997 0.0847069994
vt 0.0771860033 0.0847069994
vt 0.0771860033 0.00414900016
vt 0.00787900016 0.0847069994
vt 0.00787900016 0.00414900016
vt 0.951090991 0.461795986
vt 0.862863004 0.485927999
vt 0.950565994 0.485927999
vt 0.862793982 0.461795986
vt 0.831526995 0.442903012
vt 0.387309998 0.229629993
vt 0.503189981 0.207625002
vt 0.501697004 0.237546995
vt 0.387295008 0.207035005
vt 0.571534991 0.190027997
vt 0.638373971 0.261649013
vt 0.825972021 0.268640012
vt 0.827615023 0.309899002
vt 0.389813006 0.188858002
vt 0.291500002 0.204118997
vt 0.387273014 0.217042997
vt 0.291824013 0.210111007
vt 0.00653100014 0.198667005
vt 0.314644992 0.185657993
vt 0.0547359996 0.147082001
vt 0.315519005 0.185567006
vt 0.397085994 0.136351004
vt 0.389813006 0.188858002
vt 0.572820008 0.190121993
vt 0.634962976 0.0660549998
vt 0.784910023 0.189349994
vt 0.805248976 0.131336004
vt 0.790850997 0.0797460005
vt 0.680401981 0.0276519991
vt 0.851792991 0.003731
vt 0.805733025 0.208329007
vt 0.829638004 0.150846004
vt 0.996487975 0.187746003
vt 0.985134006 0.147304997
vt 0.799700022 0.221671
vt 0.820281982 0.237201005
vt 0.397379994 0.138034999
vt 0.634962976 0.0660549998
vt 0.635621011 0.0668189973
vt 0.634962976 0.0660549998
vt 0.680935025 0.0288650002
vt 0.680401981 0.0276519991
vt 0.931936979 0.453565001
vt 0.846543014 0.350971997
vt 0.870301008 0.453565001
vt 0.954692006 0.350443989
vt 0.414523989 0.00414900016
vt 0.278035015 0.0847069994
vt 0.278035015 0.00414900016
vt 0.414523989 0.0847069994
vt 0.494560003 0.0847069994
vt 0.434843987 0.00414900016
vt 0.49455899 0.00414900016
vt 0.434843987 0.0847069994
vt 0.414523989 0.00414900016
vt 0.414523989 0.0847069994
vt 0.328339994 0.185090005
vt 0.328025013 0.185216993
vt 0.328108996 0.185216993
vt 0.328025013 0.185216993
vt 0.389813006 0.188858002
vt 0.328108996 0.185216993
vt 0.389813006 0.188858002
vt 0.389813006 0.188858002
vt 0.851792991 0.003731
vt 0.680935025 0.0288650002
vt 0.680401981 0.0276519991
vt 0.851679027 0.00481399987
vt 0.49455899 0.00414900016
vt 0.538902998 0.0847069994
vt 0.494560003 0.0847069994
vt 0.538902998 0.00414900016
vt 0.538902998 0.00414900016
vt 0.568399012 0.0678299963
vt 0.538902998 0.0847069994
vt 0.568399012 0.0187960006
vt 0.799700022 0.221671
vt 0.880798995 0.282653004
vt 0.825972021 0.268640012
vt 0.571534991 0.190027997
vt 0.922532976 0.0838370025
vt 0.902409971 0.131603003
vt 0.823423982 0.131603003
vt 0.930184007 0.131603003
vt 0.571534991 0.190027997
vt 0.786121011 0.192227006
vt 0.799700022 0.221671
vt 0.728861988 0.153198004
vt 0.738923013 0.152536005
vt 0.738959014 0.153231993
vt 0.728833973 0.152664006
vt 0.750518978 0.152174994
vt 0.751047015 0.153213993
vt 0.990447998 0.131603003
vt 0.922532976 0.0838370025
vt 0.990447998 0.00629599998
vt 0.930184007 0.131603003
vn -0.214894272 0.350113008 -0.911724374
vn -0.214894272 0.350113008 -0.911724374
vn -0.214894272 0.350113008 -0.911724374
vn -0.794899218 0.604776685 -0.0487892844
vn -0.822362237 0.567300288 -0.0434825787
vn -0.786966853 0.614820566 -0.0517575501
vn -0.463577632 0.880229697 -0.101446833
vn -0.845680031 0.522786638 -0.10732854
vn -0.444392746 0.871196036 -0.208644562
vn -0.865036179 0.482207393 -0.138522343
vn -0.409694242 0.876004564 -0.254492892
vn -0.860420898 0.506935858 -0.0518836628
vn -0.907067391 0.418359505 -0.0469475424
vn -0.227748367 0.972534321 -0.0480382744
vn -0.520426376 0.852788945 -0.0436738069
vn -0.659936547 0.748901233 -0.0602552614
vn -0.849584402 0.525208119 -0.0486083882
vn -0.703512373 -0.70826519 -0.0585727078
vn -0.992415861 0.121252825 -0.0202116606
vn 0 0.963563996 -0.267477898
vn 0 0.976213083 -0.216813321
vn 0 0.992015138 -0.126118858
vn 0 0.997373334 -0.0724322676
vn 0 0.997373334 -0.0724322676
vn 0 0.99883736 -0.0482071488
vn 0 0.99883737 -0.0482069349
vn 0 0.998837359 -0.0482071511
vn 0 0.998837356 -0.0482072215
vn 0 -0.999509188 -0.0313270365
vn 0 -0.999509188 -0.0313270365
vn 0 -0.999509188 -0.0313270365
vn -0.99859842 0.0469626236 -0.0244071308
vn -0.995104909 0.0962395986 -0.0224534868
vn -0.99714111 0.0637624166 -0.0405457953
vn -0.994421194 0.104007351 -0.0175772508
vn -0.999672976 0.0102308915 -0.0234365021
vn -0.999790283 8.38414896e-05 -0.020478831
vn -0.999786229 3.60640748e-05 -0.0206759393
vn -0.999786848 1.9267821e-07 -0.0206460499
vn -0.999786847 6.99217055e-08 -0.0206460932
vn -0.999786847 -2.20526564e-07 -0.0206460966
vn -0.999786845 -7.76910712e-08 -0.020646164
vn -0.999948171 0.00517797853 -0.00876608813
vn -0.99996205 0.00716012697 -0.00496306703
vn -0.999963187 0.00793262219 -0.00327084575
vn -0.999953334 0.00899907899 -0.00351379321
vn -0.999729741 0.00185753559 -0.0231731501
vn -0.999718321 0.00140345357 -0.0236919393
vn 0 -0.760283773 -0.64959109
vn 0 -0.760283773 -0.64959109
vn 0 -0.760283773 -0.64959109
vn 0 -0.999676582 0.0254309201
vn 0 -0.999676582 0.0254309201
vn 0 -0.999676582 0.0254309201
vn 0 -0.999676582 0.0254309201
vn 0 -0.999676582 0.0254309201
vn 0 -0.999676582 0.0254309201
vn -0.673591809 0.710980587 -0.201942271
vn -0.673591809 0.710980587 -0.201942271
vn -0.67130075 0.711676929 -0.207053741
vn -0.674148913 0.71080682 -0.200691075
vn 0.0435455372 -0.838448354 0.54323857
vn 0.0435455372 -0.838448354 0.54323857
vn 0.07853131 -0.869198483 0.48818729
vn 0.0291927851 -0.824636982 0.564908515
vn -0.576631259 0.791833347 -0.201237029
vn -0.576631259 0.791833347 -0.201237029
vn -0.576631259 0.791833347 -0.201237029
vn -6.82532205e-09 -0.999976178 0.00690237141
vn -2.73226418e-09 -0.99999429 0.0033792563
vn 0 -0.999976178 0.00690237131
vn -6.14889421e-10 -0.999999386 -0.00110799028
vn 7.10676896e-10 -0.999997929 -0.00203514908
vn 2.73282565e-10 -0.999997929 -0.00203514906
vn 0.0779469853 -0.413543553 0.907141663
vn 0.0779469853 -0.413543553 0.907141663
vn 0.271623089 -0.232788256 0.933825747
vn -1.18031724e-07 -0.47684351 0.878988206
vn 0 -0.988302539 -0.152506041
vn 0 -0.988302539 -0.152506041
vn 0 -0.988302539 -0.152506041
vn 0 -0.988302539 -0.152506041
vn 0.964009144 -0.228717857 0.135552621
vn 0 -0.879785925 0.475370094
vn 0.976765877 0.108024702 0.185092101
vn 0 -0.879785925 0.475370094
vn 0.995781679 0.0904508654 -0.015410692
vn 0.999952305 0.00459078663 0.00862047673
vn 0.857428788 0.400415648 0.323238584
vn 0 0.825779723 0.563992774
vn 0 0.730339663 0.683084165
vn 0.622189095 0.699236623 0.352063737
vn 0 0.89554641 0.44496812
vn 0.939680743 0.136129778 -0.313797362
vn 0 0.748957267 -0.662618301
vn 0 0.972342304 -0.233560363
vn 0 0.892677353 0.450696287
vn 0.874179112 0.359131019 0.326857449
vn 0.935592301 -0.201510414 -0.289932061
vn 0.844522049 0.30742753 0.43848697
vn 0 -0.571869896 -0.820344331
vn 0 0.582808111 0.812609811
vn 0 -0.25031981 -0.968163206
vn 0 -0.25031981 -0.968163206
vn 0 -0.25031981 -0.968163206
vn 0 -0.571869896 -0.820344331
vn 0 -0.571869896 -0.820344331
vn 0 -0.305232196 0.952277957
vn 0 -0.165980961 0.986128957
vn 0 -0.165980961 0.986128957
vn 0 -0.517281538 0.85581529
vn 0 -0.796179875 0.605060003
vn 0 -0.796179875 0.605060003
vn 0.999985302 0.00521282273 -0.00149075404
vn 0.999979408 0.00623352069 -0.00152525233
vn 0.999986261 0.00522542127 -0.00041594852
vn 0.999973723 0.00689158705 -0.00224938928
vn 0.99984246 0.0176466054 -0.00191090662
vn 0 -0.707128156 -0.707085406
vn 0 -0.707128156 -0.707085406
vn 0 -0.707128156 -0.707085406
vn 0 -0.707128156 -0.707085406
vn -0.999979409 0.00623319643 -0.00152576466
vn -0.999985305 0.00521204707 -0.00149123134
vn -0.999995028 0.00232037607 -0.00213556213
vn -0.999951404 0.00981086949 -0.000968164275
vn -0.999842375 0.0176513272 -0.00191181051
vn -0.999939636 0.00622663398 0.00905284055
vn -0.999942016 -0.00714377856 0.00805793131
vn -0.999965025 -0.00343139068 0.00762720874
vn -0.999952295 0.0045928487 0.00862048359
vn -0.999839536 -0.0160154197 0.00802551848
vn -0.999949726 -0.00470211205 0.0088563839
vn -0.999930404 -0.00124199499 0.0117322016
vn -0.999986926 0.0022215215 0.00460571196
vn -0.999989994 0.00297507188 0.00334069908
vn -0.999953808 -0.00948244795 -0.00157033839
vn -0.567983242 -0.464136254 0.679685644
vn 0 -0.0112779646 0.999936402
vn 0 -0.0112779646 0.999936402
vn -0.991786985 7.05817632e-05 0.127900633
vn -0.97871135 -0.202603862 0.032798905
vn -0.175158931 -0.793605001 0.582675254
vn 0 -0.808238811 0.588854841
vn 0 -0.808238811 0.588854841
vn -0.999937405 -0.00754581687 0.00826120828
vn -0.546240657 -0.834686617 0.0701384099
vn -0.917350996 -0.397998244 0.00803411276
vn -2.17930558e-09 -0.999873496 0.0159056934
vn 0 -0.996674359 0.0814875538
vn 0 -0.844633121 0.535345581
vn -0.999904456 -0.0138226745 -0.000114979654
vn -0.998923974 -0.04635376 -0.00149130015
vn 0 -0.970742153 -0.240124287
vn 0 -0.970742153 -0.240124287
vn 0 -0.970742153 -0.240124287
vn 0.999718454 0.00179052832 0.0236602463
vn 0.999689948 0.000714335095 0.0248897049
vn 0.999715253 0.00185802909 0.0237899435
vn 0.999703192 0.00187632185 0.0242900574
vn 0.999946381 -0.00658681219 0.00799062042
vn 0.999961851 -0.006508381 0.00582551667
vn 0.999987905 -0.00456617026 0.00182758949
vn 0.858300343 0.488507167 -0.157102733
vn 0.651497316 0.72067603 -0.237017524
vn 3.95050404e-08 0.954119666 -0.299425555
vn 8.07940011e-08 0.954119675 -0.299425527
vn 0 0.985222743 -0.171277979
vn 0 0.985222743 -0.171277979
vn 0 0.985222743 -0.171277979
vn 0 0.985222743 -0.171277979
vn 0 0.906917905 0.421307386
vn 0 0.906917905 0.421307386
vn 0 0.906917905 0.421307386
vn 0 0.906917905 0.421307386
vn 0 -0.974907028 0.222612413
vn 0 -0.285427767 0.958400224
vn 0 -0.285427767 0.958400224
vn 0 -0.975017072 0.222129938
vn 0 -0.998923547 0.0463869373
vn -1.9216054e-08 -0.984452814 0.175649247
vn -1.59079153e-07 -0.479901452 0.877322401
vn -1.84354212e-07 -0.478907023 0.87786563
vn -2.07564344e-07 0.175857684 0.984415601
vn -1.15888092e-07 0.468507655 0.883459437
vn -8.14108226e-08 0.625508937 0.780217002
vn 0 0.625509006 0.780216947
vn 0 0.356121799 -0.934439545
vn 0.0331529669 0.356282751 -0.933789849
vn 0 0.356121799 -0.934439545
vn 0.0574129565 0.356152096 -0.932662553
vn 0.21489439 0.350113083 -0.911724317
vn 0.79489893 0.604777095 -0.0487888948
vn 0.822362369 0.56730012 -0.0434822744
vn 0.830686315 0.551264306 -0.0778967927
vn 0.786967554 0.614819676 -0.0517574682
vn 0.84567984 0.522786983 -0.107328365
vn 0.862477946 0.488941987 -0.130642741
vn 0.865036039 0.482207674 -0.138522239
vn 0.901057988 0.410839421 -0.138944133
vn 0.860421469 0.506934907 -0.0518834829
vn 0.907067381 0.418359572 -0.0469471433
vn 0.520424935 0.852789827 -0.0436737656
vn 0.520426373 0.852788956 -0.0436736411
vn 0.916492187 0.39657637 -0.0526237004
vn 0.849583081 0.52521035 -0.0486073783
vn 0.985255884 0.168018834 -0.0322570034
vn 0.99458194 0.101606703 -0.0219736937
vn 0.94006415 -0.315538035 -0.129287055
vn 0.99714112 0.0637624632 -0.0405454641
vn 0.999672982 0.0102308721 -0.0234362727
vn 0.999790288 8.37922413e-05 -0.0204786015
vn 0.999786234 3.60068959e-05 -0.0206757124
vn 0.999786854 -1.15983816e-07 -0.0206457177
vn 0.999786857 1.97529733e-07 -0.0206456023
vn 0.999786857 4.37047918e-07 -0.0206456039
vn 0.999786858 3.41058843e-07 -0.0206455587
vn 0.999948173 0.00517869963 -0.00876539206
vn 0.999962043 0.00716119494 -0.00496277178
vn 0.999963179 0.00793373474 -0.00327048659
vn 0.999953322 0.0090004821 -0.00351350025
vn 0.999729812 0.00185664379 -0.0231701552
vn 0.999718391 0.00140246024 -0.0236890604
vn 3.35259254e-08 -0.95900194 -0.283399504
vn 0 -0.959001944 -0.283399492
vn 8.06065206e-08 -0.933641159 -0.358209695
vn 7.96695748e-08 -0.912432238 -0.409227822
vn 1.07911398e-07 -0.763757113 -0.645503735
vn 7.12671464e-08 -0.763757074 -0.645503782
vn 0 -0.682759541 -0.730643148
vn 0 -0.682759541 -0.730643148
vn 0 -0.682759541 -0.730643148
vn 0 -0.682759541 -0.730643148
vn -9.77509883e-09 0.995593818 0.0937707318
vn -9.77509883e-09 0.995593818 0.0937707318
vn 0 0.995593818 0.0937707266
vn -1.96883694e-08 0.995593817 0.0937707372
vn 0 -0.825269767 0.564738711
vn 0 -0.769292697 0.638896507
vn 0 -0.825269767 0.564738711
vn -4.58584175e-08 -0.659775125 0.751463096
vn -9.50793539e-08 -0.418405033 0.908260551
vn -1.90700982e-07 -0.418404769 0.908260672
vn 0 -0.760283773 -0.64959109
vn 0 -0.760283773 -0.64959109
vn 0 -0.760283773 -0.64959109
vn 0 -0.999676582 0.0254309201
vn 0 -0.999676582 0.0254309201
vn 0 -0.999676582 0.0254309201
vn 0 -0.999676582 0.0254309201
vn 0 -0.999676582 0.0254309201
vn 7.37020109e-09 -0.990400417 -0.138228125
vn 7.37020109e-09 -0.990400417 -0.138228125
vn 1.52611402e-08 -0.990400417 -0.13822812
vn 0 -0.990400416 -0.138228129
vn 0 0.96507381 -0.261978133
vn 0 0.96507381 -0.261978133
vn 0 0.96507381 -0.261978133
vn 0 0.96507381 -0.261978133
vn 0 -0.0396276136 0.999214518
vn 0 -0.0396276136 0.999214518
vn 0 -0.0396276136 0.999214518
vn 0 -0.0396276136 0.999214518
vn 0.673592249 0.710980257 -0.201941963
vn 0.671301145 0.711676615 -0.20705354
vn 0.673592249 0.710980257 -0.201941963
vn 0.674149365 0.710806486 -0.20069074
vn -0.0435457858 -0.838448291 0.543238647
vn -0.0435457858 -0.838448291 0.543238647
vn -0.0291930986 -0.824636964 0.564908524
vn -0.0785314675 -0.869198387 0.488187437
vn 0.576631348 0.791833353 -0.201236751
vn 0.576631348 0.791833353 -0.201236751
vn 0.576631348 0.791833353 -0.201236751
vn 0 -0.999976178 0.00690237131
vn 0 -0.99999429 0.00337925162
vn 2.12318198e-10 -0.999999386 -0.0011079874
vn 0 -0.999976178 0.00690237131
vn 2.36892281e-10 -0.999997929 -0.00203514904
vn 2.73282691e-10 -0.999997929 -0.00203514904
vn -0.0779472158 -0.413543441 0.907141694
vn -0.0779472158 -0.413543441 0.907141694
vn -1.18031792e-07 -0.476843327 0.878988306
vn -0.271623421 -0.232788232 0.933825656

g gun38_submesh_0
usemtl gun_17
f 1/1/1 3/3/3 2/2/2
f 4/4/4 6/6/6 5/5/5
f 4/4/4 5/5/5 7/7/7
f 8/8/8 7/7/7 5/5/5
f 8/8/8 9/9/9 7/7/7
f 9/9/9 8/8/8 10/10/10
f 9/9/9 10/10/10 11/11/11
f 12/12/12 8/8/8 5/5/5
f 12/12/12 5/5/5 6/6/6
f 12/12/12 6/6/6 13/13/13
f 13/13/13 6/6/6 14/14/14
f 13/13/13 14/14/14 15/15/15
f 13/13/13 15/15/15 16/16/16
f 12/12/12 13/13/13 17/17/17
f 13/13/13 16/16/16 18/18/18
f 13/13/13 18/18/18 19/19/19
f 20/20/20 9/9/9 11/11/11
f 20/20/20 21/21/21 9/9/9
f 22/22/22 7/7/7 9/9/9
f 22/22/22 9/9/9 21/21/21
f 23/23/23 7/7/7 22/22/22
f 23/23/23 24/24/24 7/7/7
f 25/25/25 14/14/14 26/26/26
f 25/25/25 26/26/26 27/27/27
f 28/28/28 16/16/16 25/25/25
f 28/28/28 25/25/25 27/27/27
f 29/29/29 30/30/30 18/18/18
f 29/29/29 31/31/31 30/30/30
f 32/32/32 34/34/34 33/33/33
f 32/32/32 33/33/33 35/35/35
f 36/36/36 34/34/34 32/32/32
f 36/36/36 32/32/32 37/37/37
f 38/38/38 36/36/36 37/37/37
f 38/38/38 37/37/37 39/39/39
f 40/40/40 39/39/39 37/37/37
f 40/40/40 37/37/37 41/41/41
f 41/41/41 42/42/42 40/40/40
f 39/39/39 43/43/43 38/38/38
f 39/39/39 44/44/44 43/43/43
f 44/44/44 45/45/45 43/43/43
f 44/44/44 46/46/46 45/45/45
f 47/47/47 38/38/38 43/43/43
f 47/47/47 43/43/43 48/48/48
f 49/49/49 51/51/51 50/50/50
f 52/52/52 54/54/54 53/53/53
f 55/55/55 57/57/57 56/56/56
f 58/58/58 60/60/60 59/59/59
f 59/59/59 61/61/61 58/58/58
f 62/62/62 64/64/64 63/63/63
f 62/62/62 63/63/63 65/65/65
f 66/66/66 68/68/68 67/67/67
f 69/69/69 71/71/71 70/70/70
f 69/69/69 70/70/70 72/72/72
f 72/72/72 70/70/70 73/73/73
f 72/72/72 73/73/73 74/74/74
f 75/75/75 77/77/77 76/76/76
f 75/75/75 76/76/76 78/78/78
f 79/79/79 81/81/81 80/80/80
f 79/79/79 80/80/80 82/82/82
f 83/83/83 85/85/85 84/84/84
f 83/83/83 84/84/84 86/86/86
f 83/83/83 87/87/87 85/85/85
f 83/83/83 88/88/88 87/87/87
f 89/89/89 85/85/85 87/87/87
f 89/89/89 90/90/90 85/85/85
f 89/89/89 91/91/91 90/90/90
f 92/92/92 91/91/91 89/89/89
f 92/92/92 93/93/93 91/91/91
f 89/89/89 87/87/87 94/94/94
f 92/92/92 89/89/89 94/94/94
f 94/94/94 87/87/87 95/95/95
f 94/94/94 95/95/95 96/96/96
f 97/97/97 93/93/93 92/92/92
f 97/97/97 92/92/92 98/98/98
f 92/92/92 94/94/94 98/98/98
f 99/99/99 98/98/98 94/94/94
f 99/99/99 100/100/100 98/98/98
f 101/101/101 99/99/99 94/94/94
f 102/102/102 97/97/97 98/98/98
f 102/102/102 98/98/98 100/100/100
f 95/95/95 104/104/104 103/103/103
f 95/95/95 103/103/103 105/105/105
f 101/101/101 107/107/107 106/106/106
f 108/108/108 110/110/110 109/109/109
f 108/108/108 109/109/109 111/111/111
f 111/111/111 112/112/112 108/108/108
f 111/111/111 113/113/113 112/112/112
f 114/114/114 116/116/116 115/115/115
f 114/114/114 115/115/115 117/117/117
f 116/116/116 118/118/118 115/115/115
f 119/119/119 121/121/121 120/120/120
f 119/119/119 120/120/120 122/122/122
f 123/123/123 125/125/125 124/124/124
f 123/123/123 124/124/124 126/126/126
f 123/123/123 126/126/126 127/127/127
f 128/128/128 130/130/130 129/129/129
f 128/128/128 129/129/129 131/131/131
f 132/132/132 129/129/129 130/130/130
f 132/132/132 133/133/133 129/129/129
f 134/134/134 133/133/133 132/132/132
f 134/134/134 135/135/135 133/133/133
f 136/136/136 133/133/133 135/135/135
f 136/136/136 135/135/135 137/137/137
f 138/138/138 140/140/140 139/139/139
f 138/138/138 139/139/139 141/141/141
f 138/138/138 141/141/141 142/142/142
f 138/138/138 142/142/142 143/143/143
f 143/143/143 144/144/144 138/138/138
f 143/143/143 145/145/145 144/144/144
f 142/142/142 141/141/141 146/146/146
f 146/146/146 147/147/147 142/142/142
f 148/148/148 147/147/147 146/146/146
f 149/149/149 147/147/147 148/148/148
f 149/149/149 150/150/150 147/147/147
f 147/147/147 150/150/150 151/151/151
f 147/147/147 151/151/151 142/142/142
f 146/146/146 152/152/152 148/148/148
f 146/146/146 153/153/153 152/152/152
f 142/142/142 155/155/155 154/154/154
f 142/142/142 154/154/154 156/156/156
f 157/157/157 159/159/159 158/158/158
f 157/157/157 158/158/158 160/160/160
f 161/161/161 159/159/159 157/157/157
f 157/157/157 162/162/162 161/161/161
f 161/161/161 162/162/162 163/163/163
f 161/161/161 163/163/163 164/164/164
f 161/161/161 164/164/164 165/165/165
f 166/166/166 165/165/165 164/164/164
f 166/166/166 164/164/164 167/167/167
f 168/168/168 170/170/170 169/169/169
f 168/168/168 169/169/169 171/171/171
f 172/172/172 174/174/174 173/173/173
f 172/172/172 173/173/173 175/175/175
f 176/176/176 178/178/178 177/177/177
f 176/176/176 177/177/177 179/179/179
f 176/176/176 179/179/179 180/180/180
f 176/176/176 180/180/180 181/181/181
f 182/182/182 181/181/181 180/180/180
f 182/182/182 183/183/183 181/181/181
f 182/182/182 184/184/184 183/183/183
f 182/182/182 185/185/185 184/184/184
f 185/185/185 186/186/186 184/184/184
f 185/185/185 187/187/187 186/186/186
f 188/188/188 190/190/190 189/189/189
f 188/188/188 189/189/189 191/191/191
f 192/192/192 191/191/191 189/189/189
f 193/193/193 195/195/195 194/194/194
f 193/193/193 194/194/194 196/196/196
f 197/197/197 194/194/194 195/195/195
f 197/197/197 195/195/195 198/198/198
f 198/198/198 199/199/199 197/197/197
f 198/198/198 200/200/200 199/199/199
f 201/201/201 196/196/196 194/194/194
f 201/201/201 194/194/194 197/197/197
f 201/201/201 202/202/202 196/196/196
f 202/202/202 203/203/203 196/196/196
f 202/202/202 204/204/204 203/203/203
f 202/202/202 205/205/205 204/204/204
f 201/201/201 206/206/206 202/202/202
f 202/202/202 207/207/207 205/205/205
f 202/202/202 208/208/208 207/207/207
f 209/209/209 207/207/207 208/208/208
f 209/209/209 208/208/208 210/210/210
f 211/211/211 209/209/209 210/210/210
f 211/211/211 212/212/212 209/209/209
f 213/213/213 212/212/212 211/211/211
f 213/213/213 214/214/214 212/212/212
f 215/215/215 212/212/212 214/214/214
f 215/215/215 216/216/216 212/212/212
f 216/216/216 215/215/215 217/217/217
f 214/214/214 213/213/213 218/218/218
f 214/214/214 218/218/218 219/219/219
f 219/219/219 218/218/218 220/220/220
f 219/219/219 220/220/220 221/221/221
f 222/222/222 218/218/218 213/213/213
f 222/222/222 223/223/223 218/218/218
f 224/224/224 209/209/209 225/225/225
f 224/224/224 227/227/227 226/226/226
f 228/228/228 226/226/226 227/227/227
f 228/228/228 227/227/227 229/229/229
f 230/230/230 232/232/232 231/231/231
f 230/230/230 231/231/231 233/233/233
f 234/234/234 236/236/236 235/235/235
f 234/234/234 235/235/235 237/237/237
f 238/238/238 240/240/240 239/239/239
f 238/238/238 239/239/239 241/241/241
f 241/241/241 239/239/239 242/242/242
f 241/241/241 242/242/242 243/243/243
f 244/244/244 246/246/246 245/245/245
f 247/247/247 249/249/249 248/248/248
f 247/247/247 251/251/251 250/250/250
f 252/252/252 254/254/254 253/253/253
f 252/252/252 253/253/253 255/255/255
f 256/256/256 258/258/258 257/257/257
f 256/256/256 257/257/257 259/259/259
f 260/260/260 262/262/262 261/261/261
f 260/260/260 261/261/261 263/263/263
f 264/264/264 266/266/266 265/265/265
f 266/266/266 264/264/264 267/267/267
f 268/268/268 270/270/270 269/269/269
f 268/268/268 269/269/269 271/271/271
f 272/272/272 274/274/274 273/273/273
f 275/275/275 277/277/277 276/276/276
f 275/275/275 276/276/276 278/278/278
f 277/277/277 279/279/279 276/276/276
f 277/277/277 280/280/280 279/279/279
f 281/281/281 283/283/283 282/282/282
f 281/281/281 282/282/282 284/284/284
