# Generated from legacy Unity YAML Mesh assets without Unity.
mtllib gun35.mtl

o gun35
v 0.0623940974 -0.036211513 0.559992433
v 0.0794270113 0.153420806 0.448684096
v 0.073511377 0.0859354883 0.45303449
v 0.0871244371 0.246140689 0.546617627
v 0.0844702497 0.210946113 0.444805503
v 0.0871244594 0.242378831 0.46720171
v 0.0794537365 0.150886372 0.388730466
v 0.0845049247 0.208557189 0.385998666
v 0.0685251355 0.0291153491 0.458033323
v 0.0611049235 -0.0529483631 0.518087566
v -0.0723287836 -0.0244379714 0.559434712
v 0.0611049235 -0.0529483631 0.518087566
v -0.073617965 -0.0411748216 0.517529845
v 0.0623940974 -0.036211513 0.559992433
v -0.073617965 -0.0411748216 0.517529845
v 0.0685251355 0.0291153491 0.458033323
v -0.066197753 0.0408888943 0.457475603
v 0.0611049235 -0.0529483631 0.518087566
v -0.0475984402 0.254152358 0.466643989
v 0.0871244371 0.246140689 0.546617627
v -0.0475984477 0.257914215 0.546059906
v 0.0871244594 0.242378831 0.46720171
v -0.0475984477 0.257914215 0.546059906
v 0.0623940974 -0.036211513 0.559992433
v -0.0723287836 -0.0244379714 0.559434712
v 0.0871244371 0.246140689 0.546617627
v -0.066197753 0.0408888943 0.457475603
v 0.0685279444 0.0261444002 0.394639403
v -0.066194959 0.037917953 0.394081652
v 0.0685251355 0.0291153491 0.458033323
v -0.0502526537 0.222719654 0.444247782
v 0.0871244594 0.242378831 0.46720171
v -0.0475984402 0.254152358 0.466643989
v 0.0844702497 0.210946113 0.444805503
v -0.0502179787 0.220330715 0.385440916
v 0.0844702497 0.210946113 0.444805503
v -0.0502526537 0.222719654 0.444247782
v 0.0845049247 0.208557189 0.385998666
v -0.066194959 0.037917953 0.394081652
v 0.073530145 0.0832555518 0.391934097
v -0.0611927658 0.0950290859 0.391376346
v 0.0685279444 0.0261444002 0.394639403
v 0.0685251355 0.0291153491 0.458033323
v 0.073530145 0.0832555518 0.391934097
v 0.0685279444 0.0261444002 0.394639403
v 0.073511377 0.0859354883 0.45303449
v -0.0552691817 0.162659913 0.388172746
v 0.0845049247 0.208557189 0.385998666
v -0.0502179787 0.220330715 0.385440916
v 0.0794537365 0.150886372 0.388730466
v 0.073511377 0.0859354883 0.45303449
v -0.0552958883 0.165194333 0.448126376
v -0.0612115115 0.0977090225 0.45247677
v 0.0794270113 0.153420806 0.448684096
v -0.0552958883 0.165194333 0.448126376
v 0.0794537365 0.150886372 0.388730466
v -0.0552691817 0.162659913 0.388172746
v 0.0794270113 0.153420806 0.448684096
v 0.073511377 0.0859354883 0.45303449
v -0.0611927658 0.0950290859 0.391376346
v 0.073530145 0.0832555518 0.391934097
v -0.0612115115 0.0977090225 0.45247677
v -0.0370302349 0.234540105 0.275745273
v 0.0722764581 0.200252086 0.388590187
v -0.0396372341 0.210032314 0.38812691
v 0.0748834535 0.224759877 0.27620855
v 0.068412669 0.150114238 0.263516337
v 0.0722764581 0.200252086 0.388590187
v 0.0748834535 0.224759877 0.27620855
v 0.0683898255 0.155877128 0.390692204
v 0.0662018657 0.122662187 0.218038708
v 0.0754497349 0.226971298 0.186101764
v 0.0648587272 0.107257091 0.217281103
v 0.0624562502 0.0736226887 0.0876171291
v 0.0602315292 0.0496801138 0.119594038
v 0.0570264384 0.0139828473 0.140253574
v 0.0536006913 -0.0248545334 0.147934705
v 0.0615385026 0.0711514652 0.257120669
v 0.0500715524 -0.0647819862 0.157509983
v 0.0577571541 0.0318184718 0.340223908
v 0.061593771 0.0782854334 0.394367635
v 0.0577071458 0.0339105204 0.396469653
v 0.0536006615 -0.0296300724 0.0471190512
v 0.053706713 -0.0331475064 -0.0527557731
v 0.0500716195 -0.0798469558 -0.160523295
v 0.0537442863 -0.0378522798 -0.161170244
v 0.0557652488 -0.0210504904 -0.294677079
v 0.0566901565 -0.00865153968 -0.256345809
v 0.0603682771 0.0313505754 -0.300383806
v 0.0774371028 0.210926592 -0.632665098
v 0.0543280989 -0.0410309061 -0.369303584
v 0.0571115017 -0.0163129419 -0.519854486
v 0.0575186163 -0.0260068104 -0.822835863
v 0.0625897646 0.057612516 -0.282606184
v 0.0623473972 0.0646033436 -0.0764822364
v 0.0578275546 0.0178852081 0.0291214585
v 0.0625685081 0.0701535568 -0.0127213597
v 0.0774369538 0.248627394 0.163228184
v -0.0542065725 0.043690756 0.396006346
v 0.0577571541 0.0318184718 0.340223908
v -0.054156553 0.0415987112 0.339760602
v 0.0577071458 0.0339105204 0.396469653
v -0.054156553 0.0415987112 0.339760602
v 0.0500715524 -0.0647819862 0.157509983
v -0.0618421473 -0.055001758 0.157046676
v 0.0577571541 0.0318184718 0.340223908
v 0.0500715524 -0.0647819862 0.157509983
v -0.0618420988 -0.0700667277 -0.160986602
v -0.0618421473 -0.055001758 0.157046676
v 0.0500716195 -0.0798469558 -0.160523295
v -0.0370302349 0.234540105 0.275745273
v 0.0754497349 0.226971298 0.186101764
v 0.0748834535 0.224759877 0.27620855
v -0.036463961 0.236751527 0.185638458
v 0.0575186163 -0.0260068104 -0.822835863
v -0.0548022278 -0.00653271377 -0.520317733
v 0.0571115017 -0.0163129419 -0.519854486
v -0.054395102 -0.0162265748 -0.82329911
v 0.0754497349 0.226971298 0.186101764
v -0.034476731 0.258407623 0.162764877
v 0.0774369538 0.248627394 0.163228184
v -0.036463961 0.236751527 0.185638458
v 0.0774371028 0.210926592 -0.632665098
v -0.054395102 -0.0162265748 -0.82329911
v 0.0575186163 -0.0260068104 -0.822835863
v -0.0344765708 0.22070682 -0.633128345
v 0.0774369538 0.248627394 0.163228184
v -0.0344765708 0.22070682 -0.633128345
v 0.0774371028 0.210926592 -0.632665098
v -0.034476731 0.258407623 0.162764877
v 0.0571115017 -0.0163129419 -0.519854486
v -0.0575856119 -0.031250678 -0.369766891
v 0.0543280989 -0.0410309061 -0.369303584
v -0.0548022278 -0.00653271377 -0.520317733
v -0.032440424 -0.0165501386 -0.813955247
v 0.0357674509 -0.0536915287 -1.47260094
v -0.0324375182 -0.0477310196 -1.47288322
v 0.0357645452 -0.0225106254 -0.81367296
v 0.0394491628 -0.0142624453 -1.52959871
v -0.0287558157 -0.00830195844 -1.529881
v 0.0394492224 -0.0330521688 -1.92626476
v -0.0287557486 -0.0270917043 -1.92654729
v 0.043270953 0.00826796144 -1.97716975
v -0.0249340162 0.0142284483 -1.97745204
v -0.0138277132 0.164741337 -1.48294783
v 0.0543772578 0.158780843 -1.48266554
v -0.0138625223 0.204260275 -0.640298069
v -0.0183472186 0.110535428 -1.5355103
v 0.0498577654 0.104574934 -1.53522801
v -0.0183471516 0.0917457044 -1.93217635
v 0.0498578325 0.0857852176 -1.93189359
v -0.021564804 0.0527834147 -1.97741795
v 0.0466401875 0.0468229242 -1.97713566
v 0.0543424487 0.198299795 -0.640015781
v 0.0357645452 -0.0225106254 -0.81367296
v 0.0394491628 -0.0142624453 -1.52959871
v 0.0357674509 -0.0536915287 -1.47260094
v 0.0432520136 0.0665660277 -0.74192661
v 0.043270953 0.00826796144 -1.97716975
v 0.0394492224 -0.0330521688 -1.92626476
v -0.0215759482 0.110600583 -0.754210413
v 0.0466401875 0.0468229242 -1.97713566
v -0.021564804 0.0527834147 -1.97741795
v 0.0466290414 0.104640096 -0.753928125
v 0.0466290414 0.104640096 -0.753928125
v 0.0543424487 0.198299795 -0.640015781
v 0.0543772578 0.158780843 -1.48266554
v 0.0498577654 0.104574934 -1.53522801
v 0.0498578325 0.0857852176 -1.93189359
v 0.0466401875 0.0468229242 -1.97713566
v 0.0452520698 0.0902642012 -0.724788964
v -0.0229528993 0.0962246954 -0.725071251
v 0.0466290414 0.104640096 -0.753928125
v -0.0215759482 0.110600583 -0.754210413
v 0.0452520698 0.0902642012 -0.724788964
v 0.0432520136 0.0665660277 -0.74192661
v -0.0249340162 0.0142284483 -1.97745204
v 0.043270953 0.00826796144 -1.97716975
v -0.0249529593 0.072526522 -0.742208898
v -0.0675029606 -0.0296742991 -0.527017295
v 0.0656630844 -0.0486681238 -0.682444155
v -0.0675001442 -0.0370308682 -0.682995379
v 0.0656602755 -0.0413115397 -0.526466072
v -0.0675001442 -0.0370308682 -0.682995379
v 0.066917628 -0.0349242762 -0.695329368
v -0.0662457421 -0.0232870355 -0.695880592
v 0.0656630844 -0.0486681238 -0.682444155
v 0.0656602755 -0.0413115397 -0.526466072
v 0.066917628 -0.0349242762 -0.695329368
v 0.0656630844 -0.0486681238 -0.682444155
v 0.0725320205 0.0371244997 -0.530595839
v 0.0725320652 0.0256268531 -0.773320138
v 0.066917643 -0.0386320725 -0.773603976
v 0.0725320205 0.0371244997 -0.530595839
v -0.0606312156 0.0372641012 -0.773871362
v 0.0725320652 0.0256268531 -0.773320138
v -0.060631264 0.0487617441 -0.531147063
v -0.0662457421 -0.0232870355 -0.695880592
v 0.066917643 -0.0386320725 -0.773603976
v -0.0662457272 -0.0269948319 -0.7741552
v 0.066917628 -0.0349242762 -0.695329368
v -0.0662457272 -0.0269948319 -0.7741552
v 0.0725320652 0.0256268531 -0.773320138
v -0.0606312156 0.0372641012 -0.773871362
v 0.066917643 -0.0386320725 -0.773603976
v 0.0647171959 0.372766703 0.0252202451
v 0.000713467598 0.375446171 -0.0358810425
v 0.0647144169 0.36985305 -0.0356160402
v 0.000716242939 0.378359824 0.0249553025
v -0.0134619959 0.332978845 -0.0890545249
v 0.0717452914 0.325532526 -0.0887017846
v -0.0168941244 0.281409264 -0.348619461
v 0.0683131292 0.273962915 -0.348266721
v 0.0710905567 0.218340859 -0.388616562
v 0.0716542751 0.331494957 0.0591495633
v 0.0683131292 0.273962915 -0.348266721
v 0.07109043 0.24431625 0.159744412
v 0.0716542676 0.333018333 0.0913093686
v 0.0717452914 0.325532526 -0.0887017846
v 0.0647171959 0.372766703 0.0252202451
v 0.0647144169 0.36985305 -0.0356160402
v 0.0683131292 0.273962915 -0.348266721
v -0.0289456882 0.227083117 -0.389030695
v 0.0710905567 0.218340859 -0.388616562
v -0.0168941244 0.281409264 -0.348619461
v 0.07109043 0.24431625 0.159744412
v -0.013553014 0.340464681 0.0909566283
v 0.0716542676 0.333018333 0.0913093686
v -0.0289457925 0.253058493 0.159330279
v 0.0716542676 0.333018333 0.0913093686
v -0.0135529991 0.338941276 0.058796823
v 0.0716542751 0.331494957 0.0591495633
v -0.013553014 0.340464681 0.0909566283
v 0.0716542751 0.331494957 0.0591495633
v 0.000716242939 0.378359824 0.0249553025
v 0.0647171959 0.372766703 0.0252202451
v -0.0135529991 0.338941276 0.058796823
v 0.0656602755 -0.0413115397 -0.526466072
v -0.060631264 0.0487617441 -0.531147063
v 0.0725320205 0.0371244997 -0.530595839
v -0.0675029606 -0.0296742991 -0.527017295
v 0.0543280989 -0.0410309061 -0.369303584
v -0.0561484583 -0.0112702623 -0.295140386
v 0.0557652488 -0.0210504904 -0.294677079
v -0.0575856119 -0.031250678 -0.369766891
v 0.0557652488 -0.0210504904 -0.294677079
v -0.0618420988 -0.0700667277 -0.160986602
v 0.0500716195 -0.0798469558 -0.160523295
v -0.0561484583 -0.0112702623 -0.295140386
v 0.0536006913 -0.0248545334 0.147934705
v -0.0583133101 -0.0198498219 0.0466557145
v 0.0536006615 -0.0296300724 0.0471190512
v -0.0583133362 -0.015074268 0.147471368
v 0.0536006615 -0.0296300724 0.0471190512
v -0.0540863872 0.0276654586 0.0286581516
v 0.0578275546 0.0178852081 0.0291214585
v -0.0583133101 -0.0198498219 0.0466557145
v 0.0578275546 0.0178852081 0.0291214585
v -0.0493454114 0.0799337924 -0.0131846666
v 0.0625685081 0.0701535568 -0.0127213597
v -0.0540863872 0.0276654586 0.0286581516
v 0.0570264384 0.0139828473 0.140253574
v -0.0583133362 -0.015074268 0.147471368
v 0.0536006913 -0.0248545334 0.147934705
v -0.0548874885 0.0237630904 0.139790267
v 0.0602315292 0.0496801138 0.119594038
v -0.0548874885 0.0237630904 0.139790267
v 0.0570264384 0.0139828473 0.140253574
v -0.0516823381 0.0594603419 0.119130731
v 0.0625685081 0.0701535568 -0.0127213597
v -0.0494576171 0.0834029242 0.0871538222
v 0.0624562502 0.0736226887 0.0876171291
v -0.0493454114 0.0799337924 -0.0131846666
v 0.0624562502 0.0736226887 0.0876171291
v -0.0516823381 0.0594603419 0.119130731
v 0.0602315292 0.0496801138 0.119594038
v -0.0494576171 0.0834029242 0.0871538222
v 0.053706713 -0.0331475064 -0.0527557731
v -0.0581695437 -0.0280720219 -0.161633551
v 0.0537442863 -0.0378522798 -0.161170244
v -0.0582071915 -0.0233672559 -0.05321908
v 0.0537442863 -0.0378522798 -0.161170244
v -0.0552236289 0.00112869591 -0.256809115
v 0.0566901565 -0.00865153968 -0.256345809
v -0.0581695437 -0.0280720219 -0.161633551
v 0.0566901565 -0.00865153968 -0.256345809
v -0.0515455157 0.0411308147 -0.300847054
v 0.0603682771 0.0313505754 -0.300383806
v -0.0552236289 0.00112869591 -0.256809115
v 0.0603682771 0.0313505754 -0.300383806
v -0.0493240803 0.0673927516 -0.283069491
v 0.0625897646 0.057612516 -0.282606184
v -0.0515455157 0.0411308147 -0.300847054
v 0.0625897646 0.057612516 -0.282606184
v -0.0495664366 0.0743835866 -0.0769455433
v 0.0623473972 0.0646033436 -0.0764822364
v -0.0493240803 0.0673927516 -0.283069491
v 0.0623473972 0.0646033436 -0.0764822364
v -0.0582071915 -0.0233672559 -0.05321908
v 0.053706713 -0.0331475064 -0.0527557731
v -0.0495664366 0.0743835866 -0.0769455433
v 0.0136007816 0.0141502917 -0.111105442
v -0.0108279213 0.00746206194 -0.102546453
v 0.0128000118 0.00539720058 -0.102448642
v -0.0100271534 0.016215153 -0.111203253
v 0.0128000118 0.00539720058 -0.102448642
v 0.0152622499 0.0338781551 -0.0959917307
v 0.0136007816 0.0141502917 -0.111105442
v 0.0147091188 0.0281962901 -0.0823212862
v 0.0164888985 0.04794503 -0.0953483582
v 0.0169125646 0.0535665788 -0.0790156722
v 0.0164888985 0.04794503 -0.0953483582
v 0.0183352008 0.0682878047 -0.111902058
v 0.0183352046 0.069420293 -0.0879944563
v -0.0108279213 0.00746206194 -0.102546453
v 0.0147091188 0.0281962901 -0.0823212862
v 0.0128000118 0.00539720058 -0.102448642
v -0.00891881436 0.0302611515 -0.0824190974
v -0.0100271534 0.016215153 -0.111203253
v -0.00891881436 0.0302611515 -0.0824190974
v -0.0108279213 0.00746206194 -0.102546453
v -0.00836568512 0.0359430239 -0.0960895419
v -0.00891881436 0.0302611515 -0.0824190974
v -0.00671536848 0.0556314439 -0.0791134834
v -0.00713903457 0.0500098951 -0.0954461694
v -0.00529273041 0.0714851543 -0.0880922675
v -0.00529273413 0.0703526735 -0.111999869
v 0.0136007816 0.0141502917 -0.111105442
v -0.00836568512 0.0359430239 -0.0960895419
v -0.0100271534 0.016215153 -0.111203253
v 0.0152622499 0.0338781551 -0.0959917307
v -0.00891881436 0.0302611515 -0.0824190974
v 0.0169125646 0.0535665788 -0.0790156722
v 0.0147091188 0.0281962901 -0.0823212862
v -0.00671536848 0.0556314439 -0.0791134834
v 0.0152622499 0.0338781551 -0.0959917307
v -0.00713903457 0.0500098951 -0.0954461694
v -0.00836568512 0.0359430239 -0.0960895419
v 0.0164888985 0.04794503 -0.0953483582
v -0.00671536848 0.0556314439 -0.0791134834
v 0.0183352046 0.069420293 -0.0879944563
v 0.0169125646 0.0535665788 -0.0790156722
v -0.00529273041 0.0714851543 -0.0880922675
v 0.0164888985 0.04794503 -0.0953483582
v -0.00529273413 0.0703526735 -0.111999869
v -0.00713903457 0.0500098951 -0.0954461694
v 0.0183352008 0.0682878047 -0.111902058
v -0.00818015449 0.0362038165 -0.135403335
v 0.0164397284 0.0446720645 -0.152565718
v -0.00718820654 0.0467369296 -0.152663529
v 0.0154477842 0.0341389552 -0.135305524
v -0.00718820654 0.0467369296 -0.152663529
v -0.00529273972 0.0694323033 -0.131429493
v -0.00818015449 0.0362038165 -0.135403335
v -0.00718820654 0.0467369296 -0.152663529
v -0.00529273972 0.0680404603 -0.160812497
v 0.0164397284 0.0446720645 -0.152565718
v -0.00529273972 0.0680404603 -0.160812497
v -0.00718820654 0.0467369296 -0.152663529
v 0.0183351971 0.0659755915 -0.160714686
v 0.0154477842 0.0341389552 -0.135305524
v 0.0183351971 0.0659755915 -0.160714686
v 0.0164397284 0.0446720645 -0.152565718
v 0.0183352008 0.067367442 -0.131331682
v -0.00818015449 0.0362038165 -0.135403335
v 0.0183352008 0.067367442 -0.131331682
v 0.0154477842 0.0341389552 -0.135305524
v -0.00529273972 0.0694323033 -0.131429493
v -0.0723287836 -0.0244379714 0.559434712
v -0.0552958883 0.165194333 0.448126376
v -0.0475984477 0.257914215 0.546059906
v -0.0612115115 0.0977090225 0.45247677
v -0.0502526537 0.222719654 0.444247782
v -0.0475984402 0.254152358 0.466643989
v -0.0552691817 0.162659913 0.388172746
v -0.0502179787 0.220330715 0.385440916
v -0.066197753 0.0408888943 0.457475603
v -0.073617965 -0.0411748216 0.517529845
v -0.066197753 0.0408888943 0.457475603
v -0.0611927658 0.0950290859 0.391376346
v -0.0612115115 0.0977090225 0.45247677
v -0.066194959 0.037917953 0.394081652
v -0.0435010903 0.159894481 0.26305306
v -0.0396372341 0.210032314 0.38812691
v -0.0435239337 0.165657371 0.390228868
v -0.0370302349 0.234540105 0.275745273
v -0.0457118861 0.132442415 0.217575371
v -0.036463961 0.236751527 0.185638458
v -0.0470550135 0.117037326 0.216817766
v -0.0494576171 0.0834029242 0.0871538222
v -0.0516823381 0.0594603419 0.119130731
v -0.0548874885 0.0237630904 0.139790267
v -0.0583133362 -0.015074268 0.147471368
v -0.0503752455 0.0809317008 0.256657362
v -0.0618421473 -0.055001758 0.157046676
v -0.054156553 0.0415987112 0.339760602
v -0.0503199697 0.0880656689 0.393904328
v -0.0542065725 0.043690756 0.396006346
v -0.0583133101 -0.0198498219 0.0466557145
v -0.0582071915 -0.0233672559 -0.05321908
v -0.0618420988 -0.0700667277 -0.160986602
v -0.0581695437 -0.0280720219 -0.161633551
v -0.0561484583 -0.0112702623 -0.295140386
v -0.0552236289 0.00112869591 -0.256809115
v -0.0515455157 0.0411308147 -0.300847054
v -0.0344765708 0.22070682 -0.633128345
v -0.0575856119 -0.031250678 -0.369766891
v -0.0548022278 -0.00653271377 -0.520317733
v -0.054395102 -0.0162265748 -0.82329911
v -0.0493240803 0.0673927516 -0.283069491
v -0.0495664366 0.0743835866 -0.0769455433
v -0.0540863872 0.0276654586 0.0286581516
v -0.0493454114 0.0799337924 -0.0131846666
v -0.034476731 0.258407623 0.162764877
v -0.032440424 -0.0165501386 -0.813955247
v -0.0287558157 -0.00830195844 -1.529881
v -0.0249529593 0.072526522 -0.742208898
v -0.0324375182 -0.0477310196 -1.47288322
v -0.0249340162 0.0142284483 -1.97745204
v -0.0287557486 -0.0270917043 -1.92654729
v -0.0215759482 0.110600583 -0.754210413
v -0.0138277132 0.164741337 -1.48294783
v -0.0138625223 0.204260275 -0.640298069
v -0.0183472186 0.110535428 -1.5355103
v -0.0183471516 0.0917457044 -1.93217635
v -0.021564804 0.0527834147 -1.97741795
v -0.0229528993 0.0962246954 -0.725071251
v -0.0675029606 -0.0296742991 -0.527017295
v -0.0662457421 -0.0232870355 -0.695880592
v -0.060631264 0.0487617441 -0.531147063
v -0.0675001442 -0.0370308682 -0.682995379
v -0.0606312156 0.0372641012 -0.773871362
v -0.0662457272 -0.0269948319 -0.7741552
v -0.0289456882 0.227083117 -0.389030695
v -0.0135529991 0.338941276 0.058796823
v -0.0289457925 0.253058493 0.159330279
v -0.0168941244 0.281409264 -0.348619461
v -0.013553014 0.340464681 0.0909566283
v -0.0134619959 0.332978845 -0.0890545249
v 0.000716242939 0.378359824 0.0249553025
v 0.000713467598 0.375446171 -0.0358810425
v 0.068412669 0.150114238 0.263516337
v -0.0435239337 0.165657371 0.390228868
v 0.0683898255 0.155877128 0.390692204
v -0.0435010903 0.159894481 0.26305306
v 0.061593771 0.0782854334 0.394367635
v -0.0503752455 0.0809317008 0.256657362
v 0.0615385026 0.0711514652 0.257120669
v -0.0503199697 0.0880656689 0.393904328
v 0.0615385026 0.0711514652 0.257120669
v -0.0470550135 0.117037326 0.216817766
v 0.0648587272 0.107257091 0.217281103
v -0.0503752455 0.0809317008 0.256657362
v 0.0662018657 0.122662187 0.218038708
v -0.0435010903 0.159894481 0.26305306
v 0.068412669 0.150114238 0.263516337
v -0.0457118861 0.132442415 0.217575371
v 0.0648587272 0.107257091 0.217281103
v -0.0457118861 0.132442415 0.217575371
v 0.0662018657 0.122662187 0.218038708
v -0.0470550135 0.117037326 0.216817766
vt 0.229507104 0.60923177
vt 0.0748959258 0.682468593
vt 0.128599167 0.682468593
vt 0.00503807282 0.60923177
vt 0.0293788929 0.682468593
vt 0.00503807282 0.666958451
vt 0.0747620016 0.727014244
vt 0.0291365162 0.727014184
vt 0.173857585 0.682468593
vt 0.241208464 0.640198886
vt 0.878666997 0.550009966
vt 0.920330405 0.526177406
vt 0.878666997 0.526177287
vt 0.920330405 0.550010085
vt 0.179046318 0.52932018
vt 0.145836949 0.505316198
vt 0.145836875 0.52932018
vt 0.179046392 0.505316198
vt 0.878666997 0.741788328
vt 0.920330405 0.699814022
vt 0.878666997 0.699813902
vt 0.920330405 0.741788447
vt 0.878666997 0.699813902
vt 0.920330405 0.550010085
vt 0.878666997 0.550009966
vt 0.920330405 0.699814022
vt 0.145836875 0.52932018
vt 0.125166446 0.505316198
vt 0.125166371 0.52932018
vt 0.145836949 0.505316198
vt 0.878666997 0.762212753
vt 0.920330405 0.741788447
vt 0.878666997 0.741788328
vt 0.920330405 0.762212873
vt 0.0260211378 0.52932018
vt 0.00685171783 0.505316198
vt 0.00685164332 0.52932018
vt 0.0260212086 0.505316198
vt 0.125166371 0.52932018
vt 0.106472909 0.505316198
vt 0.10647285 0.52932018
vt 0.125166446 0.505316198
vt 0.0748959258 0.682468593
vt 0.0291365162 0.727014184
vt 0.0747620016 0.727014244
vt 0.0293788929 0.682468593
vt 0.0448979139 0.52932018
vt 0.0260212086 0.505316198
vt 0.0260211378 0.52932018
vt 0.044897981 0.505316198
vt 0.0865529105 0.505316198
vt 0.0644427091 0.52932018
vt 0.0865528435 0.52932018
vt 0.0644427761 0.505316198
vt 0.0644427091 0.52932018
vt 0.044897981 0.505316198
vt 0.0448979139 0.52932018
vt 0.0644427761 0.505316198
vt 0.0865529105 0.505316198
vt 0.10647285 0.52932018
vt 0.106472909 0.505316198
vt 0.0865528435 0.52932018
vt 0.80309099 0.948976636
vt 0.907169044 0.997532248
vt 0.907169044 0.948976636
vt 0.80309099 0.997532248
vt 0.0965690613 0.864513636
vt 0.00413527526 0.899584413
vt 0.0847995207 0.923246861
vt 0.00413527526 0.864306331
vt 0.130495802 0.844447076
vt 0.150074854 0.928386629
vt 0.131574273 0.83225584
vt 0.226770625 0.810448527
vt 0.204401389 0.790255427
vt 0.190644145 0.761163473
vt 0.186407611 0.730068326
vt 0.103920341 0.802119315
vt 0.180834904 0.698037386
vt 0.0450000167 0.767797291
vt 0.00413527526 0.802621186
vt 0.00413527526 0.767343402
vt 0.259689599 0.730068326
vt 0.332245976 0.731030941
vt 0.412010342 0.698037386
vt 0.4110367 0.731372654
vt 0.507287204 0.74971664
vt 0.479060858 0.758111238
vt 0.509625912 0.791496277
vt 0.744448185 0.946424067
vt 0.562097728 0.736671567
vt 0.670437813 0.761935055
vt 0.890512466 0.765630126
vt 0.49582997 0.811659634
vt 0.3460958 0.809459984
vt 0.271110088 0.768434584
vt 0.299661726 0.811466813
vt 0.165920317 0.946424067
vt 0.92057246 0.765745103
vt 0.890670002 0.783692956
vt 0.92057246 0.783692956
vt 0.890670002 0.765745103
vt 0.92057246 0.783692956
vt 0.890670002 0.843058765
vt 0.9205724 0.843058765
vt 0.890670002 0.783692956
vt 0.890670002 0.843058765
vt 0.9205724 0.941195309
vt 0.9205724 0.843058765
vt 0.890670002 0.941195309
vt 0.80309099 0.948976636
vt 0.723033607 0.997532248
vt 0.80309099 0.997532248
vt 0.723033607 0.948976636
vt 0.828808784 0.911248207
vt 0.854955733 0.937837958
vt 0.854955733 0.911248207
vt 0.828808784 0.937837958
vt 0.723033607 0.997532248
vt 0.698608339 0.948976636
vt 0.698608339 0.997532248
vt 0.723033607 0.948976636
vt 0.802546859 0.911248207
vt 0.828808784 0.937837958
vt 0.828808784 0.911248207
vt 0.802546859 0.937837958
vt 0.698608339 0.997532248
vt 0.00260986714 0.948976457
vt 0.00260974793 0.997532189
vt 0.698608339 0.948976636
vt 0.854955733 0.911248207
vt 0.867853582 0.937837958
vt 0.867853582 0.911248207
vt 0.854955733 0.937837958
vt 0.886645496 0.937837958
vt 0.829745591 0.911248207
vt 0.829745591 0.937837958
vt 0.886645496 0.911248207
vt 0.824995577 0.911248207
vt 0.824995577 0.937837958
vt 0.790742517 0.911248207
vt 0.790742517 0.937837958
vt 0.786525309 0.911248207
vt 0.786525309 0.937837958
vt 0.953609407 0.689738631
vt 0.922732651 0.689738631
vt 0.953609407 0.997303843
vt 0.953609407 0.668879449
vt 0.922732651 0.668879449
vt 0.953609526 0.520034492
vt 0.92273277 0.520034492
vt 0.953609526 0.502411425
vt 0.92273277 0.502411425
vt 0.922732651 0.997303843
vt 0.771859407 0.633808136
vt 0.306346953 0.603809118
vt 0.342214048 0.633785486
vt 0.821281314 0.572845459
vt 0.0158614647 0.572692871
vt 0.047706224 0.603809118
vt 0.884041607 0.937837958
vt 0.778415143 0.911248207
vt 0.778415143 0.937837958
vt 0.884041607 0.911248207
vt 0.818095684 0.565120041
vt 0.895091057 0.50231725
vt 0.345662802 0.502035201
vt 0.309795618 0.538832784
vt 0.0511549003 0.538832784
vt 0.0205202252 0.565030754
vt 0.836610019 0.576331079
vt 0.886493683 0.937837958
vt 0.884041607 0.911248207
vt 0.884041607 0.937837958
vt 0.886493683 0.911248207
vt 0.779532194 0.911248207
vt 0.886197507 0.937837958
vt 0.886197507 0.911248207
vt 0.779532194 0.937837958
vt 0.797217786 0.720124125
vt 0.764490664 0.650470972
vt 0.797217667 0.650470972
vt 0.764490664 0.720124125
vt 0.797217786 0.745669305
vt 0.764490664 0.734049082
vt 0.797217786 0.734049082
vt 0.764490664 0.745669305
vt 0.806528866 0.759689987
vt 0.817940354 0.637438595
vt 0.806554437 0.6463117
vt 0.868900895 0.759389341
vt 0.868900895 0.582955062
vt 0.817940354 0.580541551
vt 0.764490664 0.755293787
vt 0.797217786 0.64612174
vt 0.764490664 0.64612174
vt 0.797217786 0.755293787
vt 0.797217786 0.734049082
vt 0.764490664 0.685820937
vt 0.797217786 0.685820937
vt 0.764490664 0.734049082
vt 0.797217786 0.685820937
vt 0.764490664 0.64612174
vt 0.797217786 0.64612174
vt 0.764490664 0.685820937
vt 0.96366483 0.845750868
vt 0.99058491 0.79891932
vt 0.96366483 0.79891932
vt 0.99058491 0.845750868
vt 0.995044887 0.756517768
vt 0.959204912 0.756517768
vt 0.995044887 0.555265427
vt 0.959204972 0.555265307
vt 0.350506693 0.638152301
vt 0.679142654 0.710568607
vt 0.381682158 0.680241287
vt 0.749105513 0.638152301
vt 0.702519655 0.710568607
vt 0.57170701 0.71139437
vt 0.65595305 0.74384433
vt 0.611730576 0.743818879
vt 0.959204972 0.555265307
vt 0.998163521 0.502695918
vt 0.956086338 0.502695858
vt 0.995044887 0.555265427
vt 0.956086278 0.997071505
vt 0.995044887 0.911116719
vt 0.959204912 0.911116719
vt 0.998163521 0.997071505
vt 0.959204912 0.911116719
vt 0.995044887 0.886360884
vt 0.959204912 0.886360884
vt 0.995044887 0.911116719
vt 0.959204912 0.886360884
vt 0.99058491 0.845750868
vt 0.96366483 0.845750868
vt 0.995044887 0.886360884
vt 0.764490664 0.720124125
vt 0.797217786 0.755293787
vt 0.764490664 0.755293787
vt 0.797217786 0.720124125
vt 0.867853582 0.911248207
vt 0.874350071 0.937837958
vt 0.874350071 0.911248207
vt 0.867853582 0.937837958
vt 0.874350071 0.911248207
vt 0.885725498 0.937837958
vt 0.885725498 0.911248207
vt 0.874350071 0.937837958
vt 0.44690609 0.759715259
vt 0.475574225 0.80155021
vt 0.475574225 0.759715259
vt 0.44690609 0.80155021
vt 0.354895681 0.759715557
vt 0.369377881 0.801550448
vt 0.369377881 0.759715557
vt 0.354895681 0.801550448
vt 0.369377881 0.759715557
vt 0.387521178 0.801550448
vt 0.387521178 0.759715557
vt 0.369377881 0.801550448
vt 0.435618669 0.759715259
vt 0.44690609 0.80155021
vt 0.44690609 0.759715259
vt 0.435618669 0.80155021
vt 0.424495906 0.759715557
vt 0.435618669 0.80155021
vt 0.435618669 0.759715259
vt 0.424495906 0.80155021
vt 0.387521178 0.759715557
vt 0.416038871 0.801550448
vt 0.416038871 0.759715557
vt 0.387521178 0.801550448
vt 0.416038871 0.759715557
vt 0.424495906 0.80155021
vt 0.424495906 0.759715557
vt 0.416038871 0.801550448
vt 0.252853572 0.737015843
vt 0.235630274 0.778171182
vt 0.235630274 0.737015843
vt 0.252853572 0.778171182
vt 0.235630274 0.737015843
vt 0.22073938 0.778171182
vt 0.22073938 0.737015843
vt 0.235630274 0.778171182
vt 0.22073938 0.737015843
vt 0.214031473 0.778171182
vt 0.214031473 0.737015843
vt 0.22073938 0.778171182
vt 0.214031473 0.737015843
vt 0.208985731 0.778171182
vt 0.208985731 0.737015843
vt 0.214031473 0.778171182
vt 0.208622396 0.737015843
vt 0.238317311 0.778171182
vt 0.238317311 0.737015843
vt 0.208622396 0.778171182
vt 0.238317311 0.737015843
vt 0.252853572 0.778171182
vt 0.252853572 0.737015843
vt 0.238317311 0.778171182
vt 0.263246387 0.646418929
vt 0.269376159 0.652009547
vt 0.269005865 0.644355118
vt 0.266954243 0.653492391
vt 0.260166585 0.641302288
vt 0.253799528 0.656162322
vt 0.263246387 0.646418929
vt 0.248430565 0.648845553
vt 0.250638247 0.664919138
vt 0.239979208 0.659867525
vt 0.250638247 0.664919138
vt 0.246779025 0.680435061
vt 0.237327248 0.669514775
vt 0.269376159 0.652009547
vt 0.284407496 0.651045203
vt 0.269005865 0.644355118
vt 0.276703596 0.661190033
vt 0.266954243 0.653492391
vt 0.276703596 0.661190033
vt 0.269376159 0.652009547
vt 0.267476529 0.66353184
vt 0.276703596 0.661190033
vt 0.278283834 0.672153413
vt 0.266384661 0.670743346
vt 0.276887208 0.681062043
vt 0.261597157 0.6858868
vt 0.263246387 0.646418929
vt 0.267476529 0.66353184
vt 0.266954243 0.653492391
vt 0.253799528 0.656162322
vt 0.276703596 0.661190033
vt 0.291890562 0.666270792
vt 0.284407496 0.651045203
vt 0.278283834 0.672153413
vt 0.253799528 0.656162322
vt 0.266384661 0.670743346
vt 0.267476529 0.66353184
vt 0.250638247 0.664919138
vt 0.278283834 0.672153413
vt 0.292294592 0.678572357
vt 0.291890562 0.666270792
vt 0.276887208 0.681062043
vt 0.250638247 0.664919138
vt 0.261597157 0.6858868
vt 0.266384661 0.670743346
vt 0.246779025 0.680435061
vt 0.311172843 0.649793625
vt 0.298802078 0.646281183
vt 0.306539655 0.654435992
vt 0.312376201 0.641304612
vt 0.306539655 0.654435992
vt 0.32159248 0.661498129
vt 0.311172843 0.649793625
vt 0.306539655 0.654435992
vt 0.30421409 0.666039944
vt 0.298802078 0.646281183
vt 0.30421409 0.666039944
vt 0.306539655 0.654435992
vt 0.291255534 0.658982337
vt 0.312376201 0.641304612
vt 0.337893099 0.63744688
vt 0.32340157 0.634750068
vt 0.330113828 0.65104115
vt 0.311172843 0.649793625
vt 0.330113828 0.65104115
vt 0.312376201 0.641304612
vt 0.32159248 0.661498129
vt 0.229507104 0.60923177
vt 0.0748959258 0.682468593
vt 0.00503807282 0.60923177
vt 0.128599167 0.682468593
vt 0.0293788929 0.682468593
vt 0.00503807282 0.666958451
vt 0.0747620016 0.727014244
vt 0.0291365162 0.727014184
vt 0.173857585 0.682468593
vt 0.241208464 0.640198886
vt 0.0748959258 0.682468593
vt 0.0291365162 0.727014184
vt 0.0293788929 0.682468593
vt 0.0747620016 0.727014244
vt 0.0965690613 0.864513636
vt 0.00413527526 0.899584413
vt 0.00413527526 0.864306331
vt 0.0847995207 0.923246861
vt 0.130495802 0.844447076
vt 0.150074854 0.928386629
vt 0.131574273 0.83225584
vt 0.226770625 0.810448527
vt 0.204401389 0.790255427
vt 0.190644145 0.761163473
vt 0.186407611 0.730068326
vt 0.103920341 0.802119315
vt 0.180834904 0.698037386
vt 0.0450000167 0.767797291
vt 0.00413527526 0.802621186
vt 0.00413527526 0.767343402
vt 0.259689599 0.730068326
vt 0.332245976 0.731030941
vt 0.412010342 0.698037386
vt 0.4110367 0.731372654
vt 0.507287204 0.74971664
vt 0.479060858 0.758111238
vt 0.509625912 0.791496277
vt 0.744448185 0.946424067
vt 0.562097728 0.736671567
vt 0.670437813 0.761935055
vt 0.890512466 0.765630126
vt 0.49582997 0.811659634
vt 0.3460958 0.809459984
vt 0.271110088 0.768434584
vt 0.299661726 0.811466813
vt 0.165920317 0.946424067
vt 0.771859407 0.633808136
vt 0.306346953 0.603809118
vt 0.821281314 0.572845459
vt 0.342214048 0.633785486
vt 0.0158614647 0.572692871
vt 0.047706224 0.603809118
vt 0.818095684 0.565120041
vt 0.345662802 0.502035201
vt 0.895091057 0.50231725
vt 0.309795618 0.538832784
vt 0.0511549003 0.538832784
vt 0.0205202252 0.565030754
vt 0.836610019 0.576331079
vt 0.806528866 0.759689987
vt 0.817940354 0.637438595
vt 0.868900895 0.759389341
vt 0.806554437 0.6463117
vt 0.868900895 0.582955062
vt 0.817940354 0.580541551
vt 0.350506693 0.638152301
vt 0.679142654 0.710568607
vt 0.749105513 0.638152301
vt 0.381682158 0.680241287
vt 0.702519655 0.710568607
vt 0.57170701 0.71139437
vt 0.65595305 0.74384433
vt 0.611730576 0.743818879
vt 0.432995886 0.754514337
vt 0.455709875 0.804843128
vt 0.455709875 0.754514337
vt 0.432995886 0.804843128
vt 0.390592158 0.754514337
vt 0.415112555 0.804843128
vt 0.415112585 0.754514337
vt 0.390592158 0.804843128
vt 0.415112585 0.754514337
vt 0.421909511 0.804843128
vt 0.421909511 0.754514337
vt 0.415112555 0.804843128
vt 0.424659103 0.754514337
vt 0.432995886 0.804843128
vt 0.432995886 0.754514337
vt 0.424659103 0.804843128
vt 0.421909511 0.754514337
vt 0.424659103 0.804843128
vt 0.424659103 0.754514337
vt 0.421909511 0.804843128
vn 0.996194686 -0.0870582593 0.00412395981
vn 0.996194684 -0.087058281 0.00412401781
vn 0.996194672 -0.0870584343 0.00412356431
vn 0.99619469 -0.0870582001 0.00412414056
vn 0.996194695 -0.0870581474 0.00412415035
vn 0.996194693 -0.0870581678 0.00412414438
vn 0.996194702 -0.087058069 0.00412413905
vn 0.996194716 -0.0870579155 0.00412397338
vn 0.996194698 -0.0870581285 0.00412394014
vn 0.996194693 -0.0870581872 0.00412390227
vn -0.0823442895 -0.924639367 0.371835258
vn -0.0823442895 -0.924639367 0.371835258
vn -0.0823442871 -0.924639364 0.371835265
vn -0.082344292 -0.924639369 0.371835252
vn -0.0479574719 -0.587051697 -0.808127704
vn -0.0479574719 -0.587051697 -0.808127704
vn -0.0479574791 -0.587051688 -0.80812771
vn -0.0479574646 -0.587051706 -0.808127698
vn 0.087155767 0.995078929 -0.0471359421
vn 0.087155767 0.995078929 -0.0471359421
vn 0.0871557718 0.995078928 -0.0471359502
vn 0.0871557622 0.99507893 -0.0471359339
vn -1.28320955e-07 0.0473161839 0.998879962
vn -1.28320955e-07 0.0473161839 0.998879962
vn -1.25615824e-07 0.0473161849 0.998879962
vn -1.31026087e-07 0.0473161829 0.998879962
vn -0.0871559224 -0.995102685 0.0466314522
vn -0.0871559224 -0.995102685 0.0466314522
vn -0.08715595 -0.995102685 0.046631393
vn -0.0871558947 -0.995102684 0.0466315114
vn 0.05374998 0.576428461 -0.81537793
vn 0.05374998 0.576428461 -0.81537793
vn 0.0537499566 0.576428551 -0.815377868
vn 0.0537500035 0.57642837 -0.815377993
vn 0.0871538274 0.995375976 -0.0403841255
vn 0.0871538274 0.995375976 -0.0403841255
vn 0.0871538777 0.995375966 -0.040384241
vn 0.0871537772 0.995375985 -0.04038401
vn 3.51791888e-07 -0.0473161179 -0.998879965
vn 3.51791888e-07 -0.0473161179 -0.998879965
vn 3.54368758e-07 -0.0473161258 -0.998879965
vn 3.49215018e-07 -0.04731611 -0.998879966
vn 0.996194685 -0.0870582498 0.00412429251
vn 0.996194685 -0.0870582498 0.00412429251
vn 0.996194668 -0.087058454 0.00412412402
vn 0.996194703 -0.0870580373 0.00412446794
vn 2.48077699e-07 -0.047316078 -0.998879967
vn 2.48077699e-07 -0.047316078 -0.998879967
vn 3.37403627e-07 -0.0473163494 -0.998879954
vn 1.58751802e-07 -0.0473158066 -0.99887998
vn -0.00147940406 -0.064201562 -0.997935855
vn -0.00147940406 -0.064201562 -0.997935855
vn -0.0014794062 -0.0642015655 -0.997935855
vn -0.00147940192 -0.0642015585 -0.997935855
vn -0.0871546743 -0.995307513 0.0420359129
vn -0.0871546743 -0.995307513 0.0420359129
vn -0.0871547229 -0.995307513 0.0420358027
vn -0.0871546257 -0.995307512 0.042036023
vn 0.087155283 0.995239048 -0.0436256131
vn 0.087155283 0.995239048 -0.0436256131
vn 0.0871552806 0.995239048 -0.0436256079
vn 0.0871552854 0.995239047 -0.0436256184
vn 0.0841588839 0.973162801 0.214176203
vn 0.0841588839 0.973162801 0.214176203
vn 0.0841588825 0.9731628 0.214176204
vn 0.0841588853 0.973162801 0.214176202
vn 0.996194719 -0.0870578815 0.00412394115
vn 0.996194721 -0.0870578609 0.00412402293
vn 0.996194696 -0.0870581381 0.00412399806
vn 0.996194749 -0.0870575369 0.00412389215
vn 0.99619469 -0.0870582151 0.00412383661
vn 0.996194737 -0.0870576646 0.0041241152
vn 0.99619475 -0.0870574976 0.00412447522
vn 0.996194703 -0.0870580355 0.00412454353
vn 0.996194797 -0.0870569714 0.00412425802
vn 0.996194832 -0.0870565978 0.00412388541
vn 0.996194575 -0.087059454 0.00412565132
vn 0.996194671 -0.0870583791 0.0041250237
vn 0.996194481 -0.0870605746 0.00412470293
vn 0.996194719 -0.0870578799 0.00412390025
vn 0.996194741 -0.0870576358 0.00412395436
vn 0.996194756 -0.0870574621 0.00412380424
vn 0.996194427 -0.0870612263 0.00412389135
vn 0.996194546 -0.0870598666 0.00412388012
vn 0.996194496 -0.0870604362 0.00412388532
vn 0.9961946 -0.087059271 0.00412344358
vn 0.996194662 -0.0870585397 0.00412384222
vn 0.996194601 -0.087059261 0.00412340909
vn 0.996194626 -0.0870589705 0.00412350628
vn 0.996194717 -0.0870579037 0.00412399862
vn 0.996194714 -0.087057928 0.004124254
vn 0.99619471 -0.0870579802 0.00412409268
vn 0.996194706 -0.087058027 0.00412399769
vn 0.996194691 -0.0870582018 0.00412385358
vn 0.996194697 -0.0870581394 0.00412383042
vn 0.996194723 -0.0870578491 0.0041236667
vn 0.996194734 -0.0870577122 0.00412403303
vn 0.996194752 -0.0870575061 0.00412402809
vn -0.0871514229 -0.995509573 0.0369502391
vn -0.0871514229 -0.995509573 0.0369502391
vn -0.0871514437 -0.995509572 0.0369501975
vn -0.0871514022 -0.995509573 0.0369502808
vn -0.0788368774 -0.879923132 0.468529646
vn -0.0788368774 -0.879923132 0.468529646
vn -0.0788368355 -0.879923125 0.468529666
vn -0.0788369192 -0.879923138 0.468529626
vn -0.0871558752 -0.995078915 0.0471360379
vn -0.0871558752 -0.995078915 0.0471360379
vn -0.0871558824 -0.995078914 0.0471360404
vn -0.087155868 -0.995078916 0.0471360353
vn 0.0869291566 0.995901062 0.0249879397
vn 0.0869291566 0.995901062 0.0249879397
vn 0.0869291627 0.995901061 0.0249879474
vn 0.0869291505 0.995901062 0.0249879319
vn -0.0871455303 -0.995689828 0.0317399172
vn -0.0871455303 -0.995689828 0.0317399172
vn -0.0871454931 -0.995689831 0.0317399312
vn -0.0871455675 -0.995689826 0.0317399032
vn 0.0602637556 0.722229418 0.689023183
vn 0.0602637556 0.722229418 0.689023183
vn 0.0602637593 0.722229426 0.689023175
vn 0.0602637519 0.722229411 0.689023191
vn 0.0575860558 0.621959175 -0.780929338
vn 0.0575860558 0.621959175 -0.780929338
vn 0.0575860648 0.621959171 -0.78092934
vn 0.0575860469 0.621959178 -0.780929336
vn 0.0871558858 0.995078914 -0.0471360445
vn 0.0871558858 0.995078914 -0.0471360445
vn 0.0871558777 0.995078915 -0.0471360434
vn 0.087155894 0.995078913 -0.0471360456
vn -0.085225757 -0.982945034 -0.162958983
vn -0.085225757 -0.982945034 -0.162958983
vn -0.0852257214 -0.982945042 -0.162958957
vn -0.0852257925 -0.982945027 -0.162959009
vn -0.0871559919 -0.995081203 0.0470874929
vn -0.0871147617 -0.996063596 0.0163807899
vn -0.0866356291 -0.994299054 -0.0621583454
vn -0.0871558301 -0.995081217 0.0470875104
vn -0.0859716806 -0.989331076 -0.117613312
vn -0.0870481788 -0.996200855 -0.00254379302
vn -0.0870379642 -0.996193393 -0.00480796766
vn -0.0858184974 -0.988069876 -0.127879265
vn -0.0648833427 -0.77238787 -0.631828403
vn -0.0648844907 -0.772386958 -0.631829399
vn 0.0870133527 0.990746582 -0.104162786
vn 0.087013251 0.99074659 -0.104162799
vn 0.0871558185 0.995101118 -0.046665073
vn 0.0853892576 0.965432306 -0.246270456
vn 0.0869939656 0.990345614 -0.107924118
vn 0.0870724979 0.992047586 -0.0908843662
vn 0.0861881191 0.976988796 -0.195101259
vn 0.0685604513 0.753536047 -0.653821758
vn 0.0685583391 0.75353793 -0.653819809
vn 0.0871557106 0.995101127 -0.0466650822
vn 0.996194675 -0.0870583855 0.00412406335
vn 0.996194689 -0.087058223 0.0041240472
vn 0.996194659 -0.0870585635 0.00412406122
vn 0.996194695 -0.0870581519 0.0041240481
vn 0.996194707 -0.0870580128 0.00412402633
vn 0.996194694 -0.087058163 0.00412401866
vn -0.0871558296 -0.995083762 0.0470336836
vn -0.0871558296 -0.995083762 0.0470336836
vn -0.0871558554 -0.99508376 0.047033682
vn -0.0871558038 -0.995083764 0.0470336851
vn 0.9961947 -0.0870580982 0.00412405048
vn 0.996194698 -0.0870581226 0.00412406688
vn 0.9961947 -0.0870580972 0.00412403928
vn 0.996194699 -0.0870581108 0.00412403832
vn 0.996194703 -0.0870580576 0.00412403745
vn 0.996194705 -0.0870580396 0.00412403716
vn 0.996194647 -0.0870586792 0.00412452797
vn -0.0761812035 -0.892759736 -0.44404558
vn -0.0761812035 -0.892759736 -0.44404558
vn -0.0761811491 -0.892759797 -0.444045467
vn -0.0761812579 -0.892759675 -0.444045694
vn 0.0871558806 0.995087124 -0.0469624206
vn 0.0871558806 0.995087124 -0.0469624206
vn 0.087155829 0.995087128 -0.0469624179
vn 0.0871559322 0.995087119 -0.0469624232
vn -0.0871559081 -0.995088606 0.0469309551
vn -0.0871559081 -0.995088606 0.0469309551
vn -0.0871559658 -0.995088603 0.0469309054
vn -0.0871558504 -0.995088608 0.0469310048
vn -0.0564103363 -0.680117185 -0.73092988
vn -0.0564103363 -0.680117185 -0.73092988
vn -0.0564103007 -0.68011754 -0.730929552
vn -0.0564103719 -0.68011683 -0.730930207
vn 0.996194528 -0.0870600376 0.00412459263
vn 0.996194651 -0.0870586497 0.00412427062
vn 0.996193983 -0.0870662803 0.00412435244
vn 0.996194686 -0.0870582383 0.00412430648
vn 0.996194743 -0.0870576094 0.00412402927
vn 0.996194742 -0.0870576101 0.00412402875
vn 0.0871558634 0.995078917 -0.0471360297
vn 0.0871558634 0.995078917 -0.0471360297
vn 0.0871558784 0.995078915 -0.0471360379
vn 0.0871558484 0.995078918 -0.0471360214
vn -0.0871557651 -0.995078929 0.0471359591
vn -0.0871557651 -0.995078929 0.0471359591
vn -0.0871557651 -0.995078929 0.0471359591
vn -0.0871557651 -0.995078929 0.0471359591
vn 0.00449109457 0.00402460884 -0.999981816
vn 0.00449109457 0.00402460884 -0.999981816
vn 0.00449109589 0.00402460537 -0.999981816
vn 0.00449109325 0.00402461231 -0.999981816
vn 0.0871562925 0.9950539 -0.0476604257
vn 0.0849013525 0.958637249 -0.271673307
vn 0.0778100375 0.867053438 -0.492101549
vn 0.087156268 0.995053904 -0.0476603999
vn 0.0832410916 0.936360996 -0.3410264
vn 0.0853469596 0.964835501 -0.248612855
vn 0.086185715 0.976961408 -0.195239418
vn 0.0861859006 0.97696138 -0.195239476
vn 0.999897575 0.0135264381 -0.00467706785
vn 0.999852879 0.0166851254 -0.0039782422
vn 0.999539345 0.0278219673 -0.0121258317
vn 0.999981156 -0.0061321284 0.000290704627
vn 0.999981156 -0.00613212906 0.000290704051
vn 0.998079747 0.0619025919 -0.00221088031
vn 0.986691591 0.162473201 -0.00649325997
vn 0.986092043 0.166007688 -0.00799571096
vn 0.0547355226 0.588104094 -0.806930974
vn 0.0547355226 0.588104094 -0.806930974
vn 0.0547355078 0.588104113 -0.806930961
vn 0.0547355399 0.588104071 -0.80693099
vn 0.0500239391 0.609882495 0.790911467
vn 0.0500239391 0.609882495 0.790911467
vn 0.0500240316 0.609882544 0.790911422
vn 0.0500238603 0.609882452 0.790911504
vn 0.0871558941 0.995078903 -0.047136252
vn 0.0871558941 0.995078903 -0.047136252
vn 0.0871557252 0.995078939 -0.0471358027
vn 0.0871560631 0.995078867 -0.0471367013
vn 0.0527055067 0.639435466 0.767036123
vn 0.0527055067 0.639435466 0.767036123
vn 0.0527057917 0.639435725 0.767035888
vn 0.0527052926 0.639435271 0.7670363
vn 0.000457647553 0.0525385837 0.99861879
vn 0.000457647553 0.0525385837 0.99861879
vn 0.000457648295 0.0525385847 0.99861879
vn 0.00045764681 0.0525385826 0.99861879
vn -0.0851481126 -0.962057587 0.259219981
vn -0.0851481126 -0.962057587 0.259219981
vn -0.085148114 -0.962057587 0.259219979
vn -0.0851481111 -0.962057587 0.259219983
vn -0.0780218884 -0.911882315 -0.402968025
vn -0.0780218884 -0.911882315 -0.402968025
vn -0.0780218847 -0.911882316 -0.402968022
vn -0.0780218922 -0.911882313 -0.402968028
vn 0.0871559261 0.995078913 -0.0471359912
vn 0.0871559261 0.995078913 -0.0471359912
vn 0.087155882 0.995078919 -0.0471359421
vn 0.0871559703 0.995078907 -0.0471360403
vn 0.0268877288 0.351995398 0.935615461
vn 0.0268877288 0.351995398 0.935615461
vn 0.0268878793 0.351995649 0.935615362
vn 0.0268875783 0.351995147 0.935615559
vn 0.0510597638 0.621309555 0.781899826
vn 0.0510597638 0.621309555 0.781899826
vn 0.0510597235 0.621309511 0.781899864
vn 0.051059804 0.621309599 0.781899788
vn -0.0127972135 -0.192915929 -0.981131834
vn -0.0127972135 -0.192915929 -0.981131834
vn -0.0127971257 -0.192916261 -0.98113177
vn -0.0127973013 -0.192915596 -0.981131898
vn -0.0399179939 -0.497817265 -0.866362813
vn -0.0399179939 -0.497817265 -0.866362813
vn -0.0399180115 -0.497817211 -0.866362844
vn -0.0399179763 -0.49781732 -0.866362783
vn -0.0871486312 -0.995603798 0.0343248147
vn -0.0871486312 -0.995603798 0.0343248147
vn -0.0871486514 -0.995603797 0.034324792
vn -0.0871486111 -0.995603799 0.0343248374
vn -0.0671126488 -0.796431078 -0.600993702
vn -0.0671126488 -0.796431078 -0.600993702
vn -0.0671126266 -0.796431125 -0.600993643
vn -0.067112671 -0.796431031 -0.600993762
vn 0.0871552918 0.99525934 -0.0431601795
vn 0.0871552918 0.99525934 -0.0431601795
vn 0.0871553535 0.995259332 -0.0431602432
vn 0.0871552301 0.995259348 -0.0431601157
vn 0.0819836206 0.952083381 0.294645416
vn 0.0819836206 0.952083381 0.294645416
vn 0.0819835399 0.952083362 0.2946455
vn 0.0819837014 0.9520834 0.294645332
vn 0.0615512138 0.736243613 0.67391156
vn 0.0615512138 0.736243613 0.67391156
vn 0.061551424 0.736243835 0.673911298
vn 0.0615510036 0.73624339 0.673911822
vn -0.0520897847 -0.556786099 0.829021046
vn -0.0520897847 -0.556786099 0.829021046
vn -0.0520900315 -0.556786661 0.829020653
vn -0.0520895378 -0.556785536 0.829021439
vn -0.0871479488 -0.995626392 0.0336648648
vn -0.0871479488 -0.995626392 0.0336648648
vn -0.087147986 -0.995626389 0.0336648444
vn -0.0871479116 -0.995626394 0.0336648853
vn -0.0164665032 -0.234468228 -0.971984313
vn -0.0164665032 -0.234468228 -0.971984313
vn -0.0164665055 -0.234468225 -0.971984314
vn -0.0164665009 -0.234468231 -0.971984312
vn -0.0581629609 -0.699299748 -0.712458372
vn -0.0581629609 -0.699299748 -0.712458372
vn -0.0581629629 -0.699299745 -0.712458375
vn -0.0581629589 -0.699299752 -0.712458369
vn 0.99619471 -0.087057996 0.00412368627
vn 0.99619471 -0.0870579981 0.00412371455
vn 0.996194714 -0.0870579563 0.00412350947
vn 0.996194702 -0.0870580917 0.00412369724
vn 0.996194709 -0.0870580059 0.00412381975
vn 0.996194671 -0.0870584468 0.00412364345
vn 0.996194672 -0.0870584371 0.00412359281
vn 0.99619466 -0.0870585634 0.00412370684
vn 0.996194669 -0.0870584671 0.00412375029
vn -0.0605887495 -0.657744004 0.750800791
vn -0.0605887495 -0.657744004 0.750800791
vn -0.0605887495 -0.657744004 0.750800791
vn -0.0605887495 -0.657744004 0.750800791
vn -0.996194721 0.0870578817 -0.00412356559
vn -0.996194732 0.087057753 -0.00412350236
vn -0.996194732 0.087057753 -0.00412350236
vn -0.9961947 0.0870581179 -0.00412356893
vn -0.996194701 0.0870581095 -0.0041235932
vn -0.996194686 0.087058274 -0.0041235545
vn -0.996194674 0.0870584092 -0.00412363676
vn -0.996194668 0.0870584825 -0.00412367708
vn -0.996194666 0.0870584987 -0.00412372466
vn 0.0560931756 0.604214366 -0.794844989
vn 0.0560931756 0.604214366 -0.794844989
vn 0.056093075 0.604214302 -0.794845044
vn 0.0560932762 0.604214429 -0.794844934
vn -0.0152809057 -0.127882372 0.991671615
vn -0.0152809057 -0.127882372 0.991671615
vn -0.0152808965 -0.127882382 0.991671614
vn -0.0152809149 -0.127882362 0.991671617
vn 0.00806664209 0.0449854995 -0.998955071
vn 0.00806664209 0.0449854995 -0.998955071
vn 0.00806664576 0.0449855046 -0.998955071
vn 0.00806663842 0.0449854944 -0.998955071
vn 0.039195097 0.489761399 0.870975038
vn 0.039195097 0.489761399 0.870975038
vn 0.0391951328 0.489761351 0.870975063
vn 0.0391950612 0.489761448 0.870975012
vn -0.0516223011 -0.627506618 -0.776898051
vn -0.0516223011 -0.627506618 -0.776898051
vn -0.0516222511 -0.627506589 -0.776898078
vn -0.0516223512 -0.627506647 -0.776898025
vn -0.0720786081 -0.849539448 -0.522577651
vn -0.0720786081 -0.849539448 -0.522577651
vn -0.0720786761 -0.849539397 -0.522577723
vn -0.0720785402 -0.849539498 -0.522577578
vn -0.996194685 0.087058277 -0.00412385879
vn -0.996194685 0.0870582786 -0.00412386046
vn -0.996194685 0.087058277 -0.00412385879
vn -0.996194685 0.0870582801 -0.00412386206
vn -0.996194685 0.0870582801 -0.00412386206
vn -0.0271581315 -0.355030755 -0.934460058
vn -0.0271581315 -0.355030755 -0.934460058
vn -0.0271581024 -0.355030731 -0.934460067
vn -0.0271581605 -0.355030778 -0.934460048
vn 0.996194678 -0.0870583639 0.00412370533
vn 0.996194678 -0.0870583639 0.00412370533
vn 0.996194666 -0.0870585124 0.00412351784
vn 0.996194681 -0.0870583207 0.00412375976
vn -0.0143790298 -0.117501047 0.992968654
vn -0.0143790298 -0.117501047 0.992968654
vn -0.0143790303 -0.117501046 0.992968654
vn -0.0143790293 -0.117501047 0.992968654
vn -0.996194688 0.0870582472 -0.00412385628
vn -0.996194688 0.0870582417 -0.00412388315
vn -0.996194692 0.0870581894 -0.00412397484
vn -0.996194679 0.0870583564 -0.00412359065
vn -0.996194694 0.0870581701 -0.00412396591
vn -0.996194692 0.0870581947 -0.00412395874
vn -0.996194693 0.0870581726 -0.00412398606
vn -0.996194692 0.0870581897 -0.00412400448
vn -0.996194693 0.0870581857 -0.00412382729
vn -0.996194685 0.0870582837 -0.00412376396
vn -0.996194689 0.0870582284 -0.00412398626
vn -0.996194689 0.0870582284 -0.00412398626
vn -0.996194701 0.0870580862 -0.00412410364
vn -0.996194677 0.087058365 -0.00412387352
vn -0.996194618 0.0870590325 -0.00412402841
vn -0.996194619 0.087059023 -0.00412394741
vn -0.996194616 0.087059062 -0.00412396317
vn -0.996194627 0.0870589273 -0.00412400777
vn -0.996194633 0.087058855 -0.00412411806
vn -0.996194633 0.0870588608 -0.00412404921
vn -0.996194653 0.0870586439 -0.00412386716
vn -0.996194643 0.0870587518 -0.0041238734
vn -0.996194677 0.0870583683 -0.00412380328
vn -0.996194647 0.0870587075 -0.00412404314
vn -0.996194775 0.0870572703 -0.00412328316
vn -0.996194765 0.0870573836 -0.0041233743
vn -0.996194842 0.0870564922 -0.0041235512
vn -0.996194772 0.0870572807 -0.00412374314
vn -0.996194804 0.0870569092 -0.00412393722
vn -0.9961948 0.087056956 -0.00412397763
vn -0.996194878 0.0870560471 -0.00412431389
vn -0.996194792 0.0870570325 -0.00412418356
vn -0.996194826 0.0870566447 -0.00412414454
vn -0.996194828 0.0870566095 -0.00412445575
vn -0.996194746 0.0870575504 -0.00412452934
vn -0.996194782 0.0870571197 -0.00412476215
vn -0.996194758 0.0870573976 -0.00412473252
vn -0.99619467 0.0870584342 -0.00412414995
vn -0.996194692 0.0870581822 -0.00412415073
vn -0.996194688 0.087058236 -0.00412406679
vn -0.996194687 0.0870582495 -0.00412403938
vn -0.996194645 0.0870587184 -0.00412411559
vn -0.996194688 0.0870582248 -0.00412424727
vn -0.996194696 0.0870581127 -0.00412452524
vn -0.996194644 0.0870587318 -0.00412414523
vn -0.99619471 0.0870579777 -0.00412406473
vn -0.996194683 0.0870582939 -0.00412405149
vn -0.996194688 0.0870582286 -0.00412404663
vn -0.996194691 0.0870581999 -0.0041240468
vn -0.996194674 0.0870583947 -0.00412405028
vn -0.996194696 0.0870581442 -0.00412404035
vn -0.996194694 0.0870581589 -0.0041240396
vn -0.996194683 0.0870582886 -0.00412404554
vn -0.99619468 0.0870583219 -0.00412404695
vn -0.996194682 0.0870583033 -0.00412404791
vn -0.996194678 0.0870583438 -0.00412404455
vn -0.996194689 0.0870582231 -0.00412404311
vn -0.996194691 0.0870581932 -0.00412404264
vn -0.996194683 0.087058295 -0.00412404102
vn -0.996194697 0.0870581423 -0.0041238744
vn -0.996194655 0.0870586111 -0.00412400558
vn -0.996194647 0.087058705 -0.00412399578
vn -0.996194833 0.0870565834 -0.00412393437
vn -0.996194624 0.0870589625 -0.00412410391
vn -0.996194623 0.0870589759 -0.00412409344
vn -0.982322153 0.186754416 -0.0128831425
vn -0.981736009 0.189857881 -0.0121816976
vn -0.985855148 0.167411876 -0.0079303624
vn -0.979428597 0.200765499 -0.0203184061
vn -0.985855213 0.167411476 -0.00793071414
vn -0.97216126 0.23408333 -0.010367231
vn -0.943466458 0.331151423 -0.0144836924
vn -0.942250599 0.334527267 -0.0159786324
vn -0.0871557828 -0.995174187 0.0450800129
vn -0.0871557828 -0.995174187 0.0450800129
vn -0.0871557947 -0.995174186 0.0450800023
vn -0.0871557709 -0.995174187 0.0450800235
vn 0.0871549861 0.994849894 -0.0517464605
vn 0.0871549861 0.994849894 -0.0517464605
vn 0.0871549832 0.994849895 -0.0517464582
vn 0.087154989 0.994849894 -0.0517464629
vn 0.0616213136 0.737008745 0.67306829
vn 0.0616213136 0.737008745 0.67306829
vn 0.0616212155 0.737008631 0.673068425
vn 0.0616214118 0.737008859 0.673068156
vn -0.076596919 -0.851948736 0.517992532
vn -0.076596919 -0.851948736 0.517992532
vn -0.0765968285 -0.851948652 0.517992683
vn -0.0765970094 -0.85194882 0.517992381
vn -0.00836399394 -0.0483902855 0.998793484
vn -0.00836399394 -0.0483902855 0.998793484
vn -0.00836399066 -0.0483902711 0.998793485
vn -0.00836399723 -0.0483903 0.998793483

g gun35_submesh_0
usemtl GXDJ_2
f 1/1/1 3/3/3 2/2/2
f 1/1/1 2/2/2 4/4/4
f 2/2/2 5/5/5 4/4/4
f 5/5/5 6/6/6 4/4/4
f 7/7/7 5/5/5 2/2/2
f 7/7/7 8/8/8 5/5/5
f 1/1/1 9/9/9 3/3/3
f 1/1/1 10/10/10 9/9/9
f 11/11/11 13/13/13 12/12/12
f 11/11/11 12/12/12 14/14/14
f 15/15/15 17/17/17 16/16/16
f 15/15/15 16/16/16 18/18/18
f 19/19/19 21/21/21 20/20/20
f 19/19/19 20/20/20 22/22/22
f 23/23/23 25/25/25 24/24/24
f 23/23/23 24/24/24 26/26/26
f 27/27/27 29/29/29 28/28/28
f 27/27/27 28/28/28 30/30/30
f 31/31/31 33/33/33 32/32/32
f 31/31/31 32/32/32 34/34/34
f 35/35/35 37/37/37 36/36/36
f 35/35/35 36/36/36 38/38/38
f 39/39/39 41/41/41 40/40/40
f 39/39/39 40/40/40 42/42/42
f 43/43/43 45/45/45 44/44/44
f 43/43/43 44/44/44 46/46/46
f 47/47/47 49/49/49 48/48/48
f 47/47/47 48/48/48 50/50/50
f 51/51/51 53/53/53 52/52/52
f 51/51/51 52/52/52 54/54/54
f 55/55/55 57/57/57 56/56/56
f 55/55/55 56/56/56 58/58/58
f 59/59/59 61/61/61 60/60/60
f 59/59/59 60/60/60 62/62/62
f 63/63/63 65/65/65 64/64/64
f 63/63/63 64/64/64 66/66/66
f 67/67/67 69/69/69 68/68/68
f 67/67/67 68/68/68 70/70/70
f 69/69/69 67/67/67 71/71/71
f 69/69/69 71/71/71 72/72/72
f 72/72/72 71/71/71 73/73/73
f 72/72/72 73/73/73 74/74/74
f 73/73/73 75/75/75 74/74/74
f 73/73/73 76/76/76 75/75/75
f 76/76/76 73/73/73 77/77/77
f 73/73/73 78/78/78 77/77/77
f 77/77/77 78/78/78 79/79/79
f 78/78/78 80/80/80 79/79/79
f 80/80/80 78/78/78 81/81/81
f 80/80/80 81/81/81 82/82/82
f 83/83/83 77/77/77 79/79/79
f 84/84/84 83/83/83 79/79/79
f 84/84/84 79/79/79 85/85/85
f 84/84/84 85/85/85 86/86/86
f 86/86/86 85/85/85 87/87/87
f 86/86/86 87/87/87 88/88/88
f 89/89/89 88/88/88 87/87/87
f 89/89/89 87/87/87 90/90/90
f 87/87/87 91/91/91 90/90/90
f 91/91/91 92/92/92 90/90/90
f 92/92/92 93/93/93 90/90/90
f 94/94/94 89/89/89 90/90/90
f 94/94/94 90/90/90 95/95/95
f 96/96/96 83/83/83 84/84/84
f 96/96/96 84/84/84 95/95/95
f 96/96/96 95/95/95 97/97/97
f 90/90/90 97/97/97 95/95/95
f 72/72/72 97/97/97 90/90/90
f 72/72/72 90/90/90 98/98/98
f 72/72/72 74/74/74 97/97/97
f 99/99/99 101/101/101 100/100/100
f 99/99/99 100/100/100 102/102/102
f 103/103/103 105/105/105 104/104/104
f 103/103/103 104/104/104 106/106/106
f 107/107/107 109/109/109 108/108/108
f 107/107/107 108/108/108 110/110/110
f 111/111/111 113/113/113 112/112/112
f 111/111/111 112/112/112 114/114/114
f 115/115/115 117/117/117 116/116/116
f 115/115/115 116/116/116 118/118/118
f 119/119/119 121/121/121 120/120/120
f 119/119/119 120/120/120 122/122/122
f 123/123/123 125/125/125 124/124/124
f 123/123/123 124/124/124 126/126/126
f 127/127/127 129/129/129 128/128/128
f 127/127/127 128/128/128 130/130/130
f 131/131/131 133/133/133 132/132/132
f 131/131/131 132/132/132 134/134/134
f 135/135/135 137/137/137 136/136/136
f 135/135/135 136/136/136 138/138/138
f 137/137/137 139/139/139 136/136/136
f 137/137/137 140/140/140 139/139/139
f 140/140/140 141/141/141 139/139/139
f 140/140/140 142/142/142 141/141/141
f 142/142/142 143/143/143 141/141/141
f 142/142/142 144/144/144 143/143/143
f 145/145/145 147/147/147 146/146/146
f 148/148/148 145/145/145 146/146/146
f 148/148/148 146/146/146 149/149/149
f 150/150/150 148/148/148 149/149/149
f 150/150/150 149/149/149 151/151/151
f 152/152/152 150/150/150 151/151/151
f 152/152/152 151/151/151 153/153/153
f 147/147/147 154/154/154 146/146/146
f 155/155/155 157/157/157 156/156/156
f 155/155/155 156/156/156 158/158/158
f 156/156/156 159/159/159 158/158/158
f 156/156/156 160/160/160 159/159/159
f 161/161/161 163/163/163 162/162/162
f 161/161/161 162/162/162 164/164/164
f 165/165/165 167/167/167 166/166/166
f 165/165/165 168/168/168 167/167/167
f 165/165/165 169/169/169 168/168/168
f 165/165/165 170/170/170 169/169/169
f 166/166/166 171/171/171 165/165/165
f 172/172/172 174/174/174 173/173/173
f 172/172/172 173/173/173 175/175/175
f 176/176/176 178/178/178 177/177/177
f 176/176/176 177/177/177 179/179/179
f 180/180/180 182/182/182 181/181/181
f 180/180/180 181/181/181 183/183/183
f 184/184/184 186/186/186 185/185/185
f 184/184/184 185/185/185 187/187/187
f 188/188/188 190/190/190 189/189/189
f 188/188/188 189/189/189 191/191/191
f 189/189/189 192/192/192 191/191/191
f 189/189/189 193/193/193 192/192/192
f 194/194/194 196/196/196 195/195/195
f 194/194/194 195/195/195 197/197/197
f 198/198/198 200/200/200 199/199/199
f 198/198/198 199/199/199 201/201/201
f 202/202/202 204/204/204 203/203/203
f 202/202/202 203/203/203 205/205/205
f 206/206/206 208/208/208 207/207/207
f 206/206/206 207/207/207 209/209/209
f 208/208/208 210/210/210 207/207/207
f 208/208/208 211/211/211 210/210/210
f 211/211/211 212/212/212 210/210/210
f 211/211/211 213/213/213 212/212/212
f 214/214/214 216/216/216 215/215/215
f 214/214/214 215/215/215 217/217/217
f 215/215/215 218/218/218 217/217/217
f 216/216/216 219/219/219 215/215/215
f 219/219/219 220/220/220 215/215/215
f 219/219/219 221/221/221 220/220/220
f 222/222/222 224/224/224 223/223/223
f 222/222/222 223/223/223 225/225/225
f 226/226/226 228/228/228 227/227/227
f 226/226/226 227/227/227 229/229/229
f 230/230/230 232/232/232 231/231/231
f 230/230/230 231/231/231 233/233/233
f 234/234/234 236/236/236 235/235/235
f 234/234/234 235/235/235 237/237/237
f 238/238/238 240/240/240 239/239/239
f 238/238/238 239/239/239 241/241/241
f 242/242/242 244/244/244 243/243/243
f 242/242/242 243/243/243 245/245/245
f 246/246/246 248/248/248 247/247/247
f 246/246/246 247/247/247 249/249/249
f 250/250/250 252/252/252 251/251/251
f 250/250/250 251/251/251 253/253/253
f 254/254/254 256/256/256 255/255/255
f 254/254/254 255/255/255 257/257/257
f 258/258/258 260/260/260 259/259/259
f 258/258/258 259/259/259 261/261/261
f 262/262/262 264/264/264 263/263/263
f 262/262/262 263/263/263 265/265/265
f 266/266/266 268/268/268 267/267/267
f 266/266/266 267/267/267 269/269/269
f 270/270/270 272/272/272 271/271/271
f 270/270/270 271/271/271 273/273/273
f 274/274/274 276/276/276 275/275/275
f 274/274/274 275/275/275 277/277/277
f 278/278/278 280/280/280 279/279/279
f 278/278/278 279/279/279 281/281/281
f 282/282/282 284/284/284 283/283/283
f 282/282/282 283/283/283 285/285/285
f 286/286/286 288/288/288 287/287/287
f 286/286/286 287/287/287 289/289/289
f 290/290/290 292/292/292 291/291/291
f 290/290/290 291/291/291 293/293/293
f 294/294/294 296/296/296 295/295/295
f 294/294/294 295/295/295 297/297/297
f 298/298/298 300/300/300 299/299/299
f 298/298/298 299/299/299 301/301/301
f 302/302/302 304/304/304 303/303/303
f 302/302/302 303/303/303 305/305/305
f 306/306/306 308/308/308 307/307/307
f 306/306/306 307/307/307 309/309/309
f 309/309/309 307/307/307 310/310/310
f 309/309/309 312/312/312 311/311/311
f 311/311/311 312/312/312 313/313/313
f 311/311/311 313/313/313 314/314/314
f 315/315/315 317/317/317 316/316/316
f 315/315/315 316/316/316 318/318/318
f 319/319/319 321/321/321 320/320/320
f 319/319/319 323/323/323 322/322/322
f 322/322/322 323/323/323 324/324/324
f 322/322/322 324/324/324 325/325/325
f 325/325/325 324/324/324 326/326/326
f 325/325/325 326/326/326 327/327/327
f 328/328/328 330/330/330 329/329/329
f 328/328/328 329/329/329 331/331/331
f 332/332/332 334/334/334 333/333/333
f 332/332/332 333/333/333 335/335/335
f 336/336/336 338/338/338 337/337/337
f 336/336/336 337/337/337 339/339/339
f 340/340/340 342/342/342 341/341/341
f 340/340/340 341/341/341 343/343/343
f 344/344/344 346/346/346 345/345/345
f 344/344/344 345/345/345 347/347/347
f 348/348/348 350/350/350 349/349/349
f 348/348/348 349/349/349 351/351/351
f 352/352/352 354/354/354 353/353/353
f 355/355/355 353/353/353 356/356/356
f 357/357/357 359/359/359 358/358/358
f 357/357/357 358/358/358 360/360/360
f 361/361/361 363/363/363 362/362/362
f 361/361/361 362/362/362 364/364/364
f 365/365/365 367/367/367 366/366/366
f 365/365/365 366/366/366 368/368/368
f 369/369/369 371/371/371 370/370/370
f 369/369/369 370/370/370 372/372/372
f 370/370/370 371/371/371 373/373/373
f 373/373/373 371/371/371 374/374/374
f 375/375/375 370/370/370 373/373/373
f 375/375/375 373/373/373 376/376/376
f 369/369/369 372/372/372 377/377/377
f 369/369/369 377/377/377 378/378/378
f 379/379/379 381/381/381 380/380/380
f 379/379/379 380/380/380 382/382/382
f 383/383/383 385/385/385 384/384/384
f 383/383/383 384/384/384 386/386/386
f 386/386/386 387/387/387 383/383/383
f 386/386/386 388/388/388 387/387/387
f 388/388/388 389/389/389 387/387/387
f 388/388/388 390/390/390 389/389/389
f 389/389/389 390/390/390 391/391/391
f 389/389/389 391/391/391 392/392/392
f 392/392/392 393/393/393 389/389/389
f 389/389/389 393/393/393 394/394/394
f 393/393/393 395/395/395 394/394/394
f 396/396/396 394/394/394 395/395/395
f 394/394/394 396/396/396 397/397/397
f 397/397/397 396/396/396 398/398/398
f 399/399/399 395/395/395 393/393/393
f 400/400/400 395/395/395 399/399/399
f 400/400/400 401/401/401 395/395/395
f 400/400/400 402/402/402 401/401/401
f 402/402/402 403/403/403 401/401/401
f 402/402/402 404/404/404 403/403/403
f 405/405/405 403/403/403 404/404/404
f 405/405/405 406/406/406 403/403/403
f 403/403/403 406/406/406 407/407/407
f 407/407/407 406/406/406 408/408/408
f 408/408/408 406/406/406 409/409/409
f 410/410/410 406/406/406 405/405/405
f 410/410/410 411/411/411 406/406/406
f 412/412/412 400/400/400 399/399/399
f 412/412/412 411/411/411 400/400/400
f 412/412/412 413/413/413 411/411/411
f 406/406/406 411/411/411 413/413/413
f 388/388/388 406/406/406 413/413/413
f 388/388/388 414/414/414 406/406/406
f 388/388/388 413/413/413 390/390/390
f 415/415/415 417/417/417 416/416/416
f 415/415/415 416/416/416 418/418/418
f 416/416/416 417/417/417 419/419/419
f 416/416/416 419/419/419 420/420/420
f 421/421/421 423/423/423 422/422/422
f 421/421/421 422/422/422 424/424/424
f 421/421/421 424/424/424 425/425/425
f 421/421/421 425/425/425 426/426/426
f 423/423/423 421/421/421 427/427/427
f 428/428/428 430/430/430 429/429/429
f 428/428/428 429/429/429 431/431/431
f 429/429/429 430/430/430 432/432/432
f 429/429/429 432/432/432 433/433/433
f 434/434/434 436/436/436 435/435/435
f 434/434/434 435/435/435 437/437/437
f 435/435/435 436/436/436 438/438/438
f 437/437/437 435/435/435 439/439/439
f 439/439/439 435/435/435 440/440/440
f 439/439/439 440/440/440 441/441/441
f 442/442/442 444/444/444 443/443/443
f 442/442/442 443/443/443 445/445/445
f 446/446/446 448/448/448 447/447/447
f 446/446/446 447/447/447 449/449/449
f 450/450/450 452/452/452 451/451/451
f 450/450/450 451/451/451 453/453/453
f 454/454/454 456/456/456 455/455/455
f 454/454/454 455/455/455 457/457/457
f 458/458/458 460/460/460 459/459/459
f 458/458/458 459/459/459 461/461/461

o Rect
v -3.808769e-08 0.212092462 -0.79853706
v -3.808769e-08 -0.0684545624 -1.38487594
v -3.808769e-08 -0.037576201 -0.785671078
v -3.808769e-08 0.181214101 -1.39774192
vt 0 1
vt 1 0
vt 0 0
vt 1 1
vn 1 0 0
vn 1 0 0
vn 1 0 0
vn 1 0 0

g Rect_submesh_0
usemtl sniper_effect
f 462/462/462 464/464/464 463/463/463
f 462/462/462 463/463/463 465/465/465
