# Generated by tools/yaml_mesh_converter/split_reload_parts.py
mtllib gun30.mtl
o gun30_reload
v 0.066141665 0.487448394 2.12086449
vt 0.971768975 0.747138023
vn 0.575624693 0.817714016 1.73827267e-15
v 0.0182797629 0.487448394 2.12086449
vt 0.984552026 0.746725976
vn 0 1 2.14881585e-15
v 0.0182797629 0.487448394 2.14669786
vt 0.988767028 0.739004016
vn 0 0.921031893 0.389487166
v 0.066141665 0.487448394 2.12086449
vt 0.971768975 0.747138023
vn 0.575624693 0.817714016 1.73827267e-15
v 0.0182797629 0.487448394 2.14669786
vt 0.988767028 0.739004016
vn 0 0.921031893 0.389487166
v 0.066141665 0.487448394 2.14669786
vt 0.975983024 0.73941499
vn 0.374069259 0.843555803 0.385338549
v 0.0951338559 0.433347433 2.14669786
vt 0.957166016 0.729146004
vn 0.92933067 0.336267704 0.152540278
v 0.066141665 0.487448394 2.12086449
vt 0.971768975 0.747138023
vn 0.575624693 0.817714016 1.73827267e-15
v 0.066141665 0.487448394 2.14669786
vt 0.975983024 0.73941499
vn 0.374069259 0.843555803 0.385338549
v 0.0951338559 0.433347433 2.14669786
vt 0.957166016 0.729146004
vn 0.92933067 0.336267704 0.152540278
v 0.0951338559 0.433347433 2.12086449
vt 0.952951014 0.736868978
vn 0.950165121 0.311747082 6.69887071e-16
v 0.066141665 0.487448394 2.12086449
vt 0.971768975 0.747138023
vn 0.575624693 0.817714016 1.73827267e-15
v 0.0951338559 0.433347433 2.12086449
vt 0.952951014 0.736868978
vn 0.950165121 0.311747082 6.69887071e-16
v 0.0951338559 0.433347433 2.14669786
vt 0.957166016 0.729146004
vn 0.92933067 0.336267704 0.152540278
v 0.106791534 0.363552808 2.12470863
vt 0.929301977 0.722472012
vn 0.982675452 0.169181627 0.0756738582
v 0.066141665 0.487448394 2.14669786
vt 0.975983024 0.73941499
vn 0.374069259 0.843555803 0.385338549
v 0.0182797629 0.487448394 2.14669786
vt 0.988767028 0.739004016
vn 0 0.921031893 0.389487166
v 0.0182797443 0.283876657 2.57642327
vt 0.988061011 0.571898997
vn -2.91177563e-07 0.898776075 0.438407992
v 0.066141665 0.487448394 2.14669786
vt 0.975983024 0.73941499
vn 0.374069259 0.843555803 0.385338549
v 0.0182797443 0.283876657 2.57642327
vt 0.988061011 0.571898997
vn -2.91177563e-07 0.898776075 0.438407992
v 0.0661416426 0.283876687 2.57642327
vt 0.975277007 0.572310984
vn 0.674454405 0.657011587 0.336818988
v 0.0951338559 0.433347433 2.14669786
vt 0.957166016 0.729146004
vn 0.92933067 0.336267704 0.152540278
v 0.066141665 0.487448394 2.14669786
vt 0.975983024 0.73941499
vn 0.374069259 0.843555803 0.385338549
v 0.0661416426 0.283876687 2.57642327
vt 0.975277007 0.572310984
vn 0.674454405 0.657011587 0.336818988
v 0.0951338559 0.433347433 2.14669786
vt 0.957166016 0.729146004
vn 0.92933067 0.336267704 0.152540278
v 0.0661416426 0.283876687 2.57642327
vt 0.975277007 0.572310984
vn 0.674454405 0.657011587 0.336818988
v 0.0951338336 0.233976304 2.55552266
vt 0.954510987 0.569087982
vn 0.961085704 0.241787007 0.133616285
v 0.106791534 0.363552808 2.12470863
vt 0.929301977 0.722472012
vn 0.982675452 0.169181627 0.0756738582
v 0.0951338559 0.433347433 2.14669786
vt 0.957166016 0.729146004
vn 0.92933067 0.336267704 0.152540278
v 0.0951338336 0.233976304 2.55552266
vt 0.954510987 0.569087982
vn 0.961085704 0.241787007 0.133616285
v 0.106791534 0.363552808 2.12470863
vt 0.929301977 0.722472012
vn 0.982675452 0.169181627 0.0756738582
v 0.0951338336 0.233976304 2.55552266
vt 0.954510987 0.569087982
vn 0.961085704 0.241787007 0.133616285
v 0.114381112 0.145244315 2.53196702
vt 0.919803977 0.559287012
vn 0.976839221 0.17746804 0.119541755
v 0.0661416426 0.283876687 2.57642327
vt 0.975277007 0.572310984
vn 0.674454405 0.657011587 0.336818988
v 0.0182797443 0.283876657 2.57642327
vt 0.988061011 0.571898997
vn -2.91177563e-07 0.898776075 0.438407992
v 0.0231847931 0.254061758 2.61277662
vt 0.982985973 0.550489008
vn -1.18003044e-07 0.206968894 0.978347524
v 0.0661416426 0.283876687 2.57642327
vt 0.975277007 0.572310984
vn 0.674454405 0.657011587 0.336818988
v 0.0231847931 0.254061758 2.61277662
vt 0.982985973 0.550489008
vn -1.18003044e-07 0.206968894 0.978347524
v 0.0612365901 0.254061758 2.61277662
vt 0.970836997 0.555783987
vn 0.637353816 0.39196301 0.663434331
v 0.0951338336 0.233976304 2.55552266
vt 0.954510987 0.569087982
vn 0.961085704 0.241787007 0.133616285
v 0.0661416426 0.283876687 2.57642327
vt 0.975277007 0.572310984
vn 0.674454405 0.657011587 0.336818988
v 0.0612365901 0.254061758 2.61277662
vt 0.970836997 0.555783987
vn 0.637353816 0.39196301 0.663434331
v 0.0951338336 0.233976304 2.55552266
vt 0.954510987 0.569087982
vn 0.961085704 0.241787007 0.133616285
v 0.0612365901 0.254061758 2.61277662
vt 0.970836997 0.555783987
vn 0.637353816 0.39196301 0.663434331
v 0.0842863172 0.2143891 2.60004578
vt 0.954961002 0.552060008
vn 0.378872683 -0.212601466 0.900697567
v 0.114381112 0.145244315 2.53196702
vt 0.919803977 0.559287012
vn 0.976839221 0.17746804 0.119541755
v 0.0951338336 0.233976304 2.55552266
vt 0.954510987 0.569087982
vn 0.961085704 0.241787007 0.133616285
v 0.0842863172 0.2143891 2.60004578
vt 0.954961002 0.552060008
vn 0.378872683 -0.212601466 0.900697567
v 0.0842863172 0.2143891 2.60004578
vt 0.954961002 0.552060008
vn 0.378872683 -0.212601466 0.900697567
v 0.0612365901 0.254061758 2.61277662
vt 0.970836997 0.555783987
vn 0.637353816 0.39196301 0.663434331
v 0.0231847931 0.254061758 2.61277662
vt 0.982985973 0.550489008
vn -1.18003044e-07 0.206968894 0.978347524
v 0.114381112 0.145244315 2.53196702
vt 0.919803977 0.559287012
vn 0.976839221 0.17746804 0.119541755
v 0.0842863172 0.2143891 2.60004578
vt 0.954961002 0.552060008
vn 0.378872683 -0.212601466 0.900697567
v 0.0995886624 0.143129631 2.57276926
vt 0.925724983 0.54668802
vn 0.243899252 -0.624429426 0.742024963
v 0.0842863172 0.2143891 2.60004578
vt 0.954961002 0.552060008
vn 0.378872683 -0.212601466 0.900697567
v -0.0151672997 0.143129616 2.57276926
vt 0.943269014 0.51453799
vn 5.35618192e-08 -0.357483311 0.933919527
v 0.0995886624 0.143129631 2.57276926
vt 0.925724983 0.54668802
vn 0.243899252 -0.624429426 0.742024963
v 0.0842863172 0.2143891 2.60004578
vt 0.954961002 0.552060008
vn 0.378872683 -0.212601466 0.900697567
v 0.000135052949 0.214389085 2.60004578
vt 0.965741992 0.532303989
vn 6.00744696e-08 -0.339258297 0.940693259
v -0.0151672997 0.143129616 2.57276926
vt 0.943269014 0.51453799
vn 5.35618192e-08 -0.357483311 0.933919527
v 0.0842863172 0.2143891 2.60004578
vt 0.954961002 0.552060008
vn 0.378872683 -0.212601466 0.900697567
v 0.0231847931 0.254061758 2.61277662
vt 0.982985973 0.550489008
vn -1.18003044e-07 0.206968894 0.978347524
v 0.000135052949 0.214389085 2.60004578
vt 0.965741992 0.532303989
vn 6.00744696e-08 -0.339258297 0.940693259
v 0.114381112 0.145244315 2.53196702
vt 0.919803977 0.559287012
vn 1.29676822e-07 -0.99865965 -0.0517581152
v 0.0995886624 0.143129631 2.57276926
vt 0.925724983 0.54668802
vn 0.243899252 -0.624429426 0.742024963
v -0.0151672997 0.143129616 2.57276926
vt 0.943269014 0.51453799
vn 1.29676822e-07 -0.99865965 -0.0517581152
v -0.0107121095 0.433347433 2.12086449
vt 0.952951014 0.736868978
vn -0.931258912 0.364358119 7.64409691e-16
v -0.0107121095 0.433347433 2.14669786
vt 0.957166016 0.729146004
vn -0.96212251 0.248337152 0.112467478
v 0.0182797629 0.487448394 2.14669786
vt 0.975983024 0.73941499
vn -0.87259784 0.444978614 0.201412618
v -0.0107121095 0.433347433 2.12086449
vt 0.952951014 0.736868978
vn -0.931258912 0.364358119 7.64409691e-16
v 0.0182797629 0.487448394 2.14669786
vt 0.975983024 0.73941499
vn -0.87259784 0.444978614 0.201412618
v 0.0182797629 0.487448394 2.12086449
vt 0.971768975 0.747138023
vn -0.881417469 0.472338062 9.57268904e-16
v -0.0107121095 0.433347433 2.14669786
vt 0.957166016 0.729146004
vn -0.96212251 0.248337152 0.112467478
v -0.0107121095 0.433347433 2.12086449
vt 0.952951014 0.736868978
vn -0.931258912 0.364358119 7.64409691e-16
v -0.0223701 0.363552808 2.12470863
vt 0.929301977 0.722472012
vn -0.987496827 0.147044309 0.0568153796
v 0.0182797629 0.487448394 2.14669786
vt 0.975983024 0.73941499
vn -0.87259784 0.444978614 0.201412618
v -0.0107121095 0.433347433 2.14669786
vt 0.957166016 0.729146004
vn -0.96212251 0.248337152 0.112467478
v -0.0107121281 0.233976304 2.55552266
vt 0.954510987 0.569087982
vn -0.930043572 0.320692477 0.179374719
v 0.0182797629 0.487448394 2.14669786
vt 0.975983024 0.73941499
vn -0.87259784 0.444978614 0.201412618
v -0.0107121281 0.233976304 2.55552266
vt 0.954510987 0.569087982
vn -0.930043572 0.320692477 0.179374719
v 0.0182797443 0.283876657 2.57642327
vt 0.975277007 0.572310984
vn -0.879290241 0.416972985 0.230178632
v -0.0107121095 0.433347433 2.14669786
vt 0.957166016 0.729146004
vn -0.96212251 0.248337152 0.112467478
v -0.0223701 0.363552808 2.12470863
vt 0.929301977 0.722472012
vn -0.987496827 0.147044309 0.0568153796
v -0.0299597457 0.1452443 2.53196702
vt 0.919803977 0.559287012
vn -0.981813368 0.166694747 0.0908590785
v -0.0107121095 0.433347433 2.14669786
vt 0.957166016 0.729146004
vn -0.96212251 0.248337152 0.112467478
v -0.0299597457 0.1452443 2.53196702
vt 0.919803977 0.559287012
vn -0.981813368 0.166694747 0.0908590785
v -0.0107121281 0.233976304 2.55552266
vt 0.954510987 0.569087982
vn -0.930043572 0.320692477 0.179374719
v 0.0182797443 0.283876657 2.57642327
vt 0.975277007 0.572310984
vn -0.879290241 0.416972985 0.230178632
v -0.0107121281 0.233976304 2.55552266
vt 0.954510987 0.569087982
vn -0.930043572 0.320692477 0.179374719
v 0.000135052949 0.214389085 2.60004578
vt 0.954961002 0.552060008
vn -0.907098974 0.247346306 0.340574892
v 0.0182797443 0.283876657 2.57642327
vt 0.975277007 0.572310984
vn -0.879290241 0.416972985 0.230178632
v 0.000135052949 0.214389085 2.60004578
vt 0.954961002 0.552060008
vn -0.907098974 0.247346306 0.340574892
v 0.0231847931 0.254061758 2.61277662
vt 0.970836997 0.555783987
vn -0.840517433 0.35778441 0.406842427
v -0.0107121281 0.233976304 2.55552266
vt 0.954510987 0.569087982
vn -0.930043572 0.320692477 0.179374719
v -0.0299597457 0.1452443 2.53196702
vt 0.919803977 0.559287012
vn -0.981813368 0.166694747 0.0908590785
v -0.0151672997 0.143129616 2.57276926
vt 0.925724983 0.54668802
vn -0.944673491 0.105302039 0.310650087
v -0.0107121281 0.233976304 2.55552266
vt 0.954510987 0.569087982
vn -0.930043572 0.320692477 0.179374719
v -0.0151672997 0.143129616 2.57276926
vt 0.925724983 0.54668802
vn -0.944673491 0.105302039 0.310650087
v 0.000135052949 0.214389085 2.60004578
vt 0.954961002 0.552060008
vn -0.907098974 0.247346306 0.340574892
v 0.114381112 0.145244315 2.53196702
vt 0.919803977 0.559287012
vn 1.03097547e-07 -0.998659646 -0.0517581993
v -0.0151672997 0.143129616 2.57276926
vt 0.943269014 0.51453799
vn 1.03097547e-07 -0.998659646 -0.0517581993
v -0.0299597457 0.1452443 2.53196702
vt 0.918280005 0.537301004
vn 1.03097547e-07 -0.998659646 -0.0517581993
v 0.042210746825 0.357398235625 2.2246011575
vt 0.929301977 0.722472012
vn 4.34834659497e-08 -0.799286238924 -0.600950504008
v -0.0223701 0.363552808 2.12470863
vt 0.929301977 0.722472012
vn 4.34834659497e-08 -0.799286238924 -0.600950504008
v -0.0107121095 0.433347433 2.12086449
vt 0.929301977 0.722472012
vn 4.34834659497e-08 -0.799286238924 -0.600950504008
v 0.042210746825 0.357398235625 2.2246011575
vt 0.929301977 0.722472012
vn 4.34834659497e-08 -0.799286238924 -0.600950504008
v -0.0107121095 0.433347433 2.12086449
vt 0.929301977 0.722472012
vn 4.34834659497e-08 -0.799286238924 -0.600950504008
v 0.0182797629 0.487448394 2.12086449
vt 0.929301977 0.722472012
vn 4.34834659497e-08 -0.799286238924 -0.600950504008
v 0.042210746825 0.357398235625 2.2246011575
vt 0.929301977 0.722472012
vn 4.34834659497e-08 -0.799286238924 -0.600950504008
v 0.0182797629 0.487448394 2.12086449
vt 0.929301977 0.722472012
vn 4.34834659497e-08 -0.799286238924 -0.600950504008
v 0.066141665 0.487448394 2.12086449
vt 0.929301977 0.722472012
vn 4.34834659497e-08 -0.799286238924 -0.600950504008
v 0.042210746825 0.357398235625 2.2246011575
vt 0.929301977 0.722472012
vn 4.34834659497e-08 -0.799286238924 -0.600950504008
v 0.066141665 0.487448394 2.12086449
vt 0.929301977 0.722472012
vn 4.34834659497e-08 -0.799286238924 -0.600950504008
v 0.0951338559 0.433347433 2.12086449
vt 0.929301977 0.722472012
vn 4.34834659497e-08 -0.799286238924 -0.600950504008
v 0.042210746825 0.357398235625 2.2246011575
vt 0.929301977 0.722472012
vn 4.34834659497e-08 -0.799286238924 -0.600950504008
v 0.0951338559 0.433347433 2.12086449
vt 0.929301977 0.722472012
vn 4.34834659497e-08 -0.799286238924 -0.600950504008
v 0.106791534 0.363552808 2.12470863
vt 0.929301977 0.722472012
vn 4.34834659497e-08 -0.799286238924 -0.600950504008
v 0.042210746825 0.357398235625 2.2246011575
vt 0.929301977 0.722472012
vn 4.34834659497e-08 -0.799286238924 -0.600950504008
v 0.106791534 0.363552808 2.12470863
vt 0.929301977 0.722472012
vn 4.34834659497e-08 -0.799286238924 -0.600950504008
v 0.114381112 0.145244315 2.53196702
vt 0.929301977 0.722472012
vn 4.34834659497e-08 -0.799286238924 -0.600950504008
v 0.042210746825 0.357398235625 2.2246011575
vt 0.929301977 0.722472012
vn 4.34834659497e-08 -0.799286238924 -0.600950504008
v 0.114381112 0.145244315 2.53196702
vt 0.929301977 0.722472012
vn 4.34834659497e-08 -0.799286238924 -0.600950504008
v -0.0299597457 0.1452443 2.53196702
vt 0.929301977 0.722472012
vn 4.34834659497e-08 -0.799286238924 -0.600950504008
v 0.042210746825 0.357398235625 2.2246011575
vt 0.929301977 0.722472012
vn 4.34834659497e-08 -0.799286238924 -0.600950504008
v -0.0299597457 0.1452443 2.53196702
vt 0.929301977 0.722472012
vn 4.34834659497e-08 -0.799286238924 -0.600950504008
v -0.0223701 0.363552808 2.12470863
vt 0.929301977 0.722472012
vn 4.34834659497e-08 -0.799286238924 -0.600950504008
usemtl Passer-Standard_2
f 1/1/1 2/2/2 3/3/3
f 4/4/4 5/5/5 6/6/6
f 7/7/7 8/8/8 9/9/9
f 10/10/10 11/11/11 12/12/12
f 13/13/13 14/14/14 15/15/15
f 16/16/16 17/17/17 18/18/18
f 19/19/19 20/20/20 21/21/21
f 22/22/22 23/23/23 24/24/24
f 25/25/25 26/26/26 27/27/27
f 28/28/28 29/29/29 30/30/30
f 31/31/31 32/32/32 33/33/33
f 34/34/34 35/35/35 36/36/36
f 37/37/37 38/38/38 39/39/39
f 40/40/40 41/41/41 42/42/42
f 43/43/43 44/44/44 45/45/45
f 46/46/46 47/47/47 48/48/48
f 49/49/49 50/50/50 51/51/51
f 52/52/52 53/53/53 54/54/54
f 55/55/55 56/56/56 57/57/57
f 58/58/58 59/59/59 60/60/60
f 61/61/61 62/62/62 63/63/63
f 64/64/64 65/65/65 66/66/66
f 67/67/67 68/68/68 69/69/69
f 70/70/70 71/71/71 72/72/72
f 73/73/73 74/74/74 75/75/75
f 76/76/76 77/77/77 78/78/78
f 79/79/79 80/80/80 81/81/81
f 82/82/82 83/83/83 84/84/84
f 85/85/85 86/86/86 87/87/87
f 88/88/88 89/89/89 90/90/90
f 91/91/91 92/92/92 93/93/93
f 94/94/94 95/95/95 96/96/96
f 97/97/97 98/98/98 99/99/99
f 100/100/100 101/101/101 102/102/102
f 103/103/103 104/104/104 105/105/105
f 106/106/106 107/107/107 108/108/108
f 109/109/109 110/110/110 111/111/111
f 112/112/112 113/113/113 114/114/114
f 115/115/115 116/116/116 117/117/117
f 118/118/118 119/119/119 120/120/120
f 121/121/121 122/122/122 123/123/123
f 124/124/124 125/125/125 126/126/126
