# Generated by tools/yaml_mesh_converter/split_reload_parts.py
mtllib gun41.mtl
o gun41_reload
v 0.346886002 0.121767868 -0.142932863
vt 0.638458014 0.554113984
vn 0.889096581 0.417397618 -0.187847007
v 0.305499814 0.174748462 -0.148274736
vt 0.667943001 0.611701012
vn 0.699048832 0.700263546 -0.144781545
v 0.325038103 0.14509542 -0.116763917
vt 0.638458014 0.611701012
vn 0.779313503 0.618754639 0.0990614004
v 0.346886002 0.121767868 -0.142932863
vt 0.638458014 0.554113984
vn 0.889096581 0.417397618 -0.187847007
v 0.323127346 0.146014635 -0.188419328
vt 0.667943001 0.554113984
vn 0.637315791 0.341654493 -0.69072483
v 0.305499814 0.174748462 -0.148274736
vt 0.667943001 0.611701012
vn 0.699048832 0.700263546 -0.144781545
v 0.339953297 0.0815056455 -0.142909578
vt 0.638458014 0.497945011
vn 0.720239281 -0.434879806 -0.540495081
v 0.323127346 0.146014635 -0.188419328
vt 0.667943001 0.554113984
vn 0.637315791 0.341654493 -0.69072483
v 0.346886002 0.121767868 -0.142932863
vt 0.638458014 0.554113984
vn 0.889096581 0.417397618 -0.187847007
v 0.339953297 0.0815056455 -0.142909578
vt 0.638458014 0.497945011
vn 0.720239281 -0.434879806 -0.540495081
v 0.314416604 0.0956325163 -0.188231777
vt 0.667943001 0.497945011
vn 0.10706194 -0.674773861 -0.730217761
v 0.323127346 0.146014635 -0.188419328
vt 0.667943001 0.554113984
vn 0.637315791 0.341654493 -0.69072483
v 0.311544803 0.0664805961 -0.116762581
vt 0.638458014 0.44026199
vn 0.1724207 -0.914470757 -0.366079686
v 0.314416604 0.0956325163 -0.188231777
vt 0.667943001 0.497945011
vn 0.10706194 -0.674773861 -0.730217761
v 0.339953297 0.0815056455 -0.142909578
vt 0.638458014 0.497945011
vn 0.720239281 -0.434879806 -0.540495081
v 0.311544803 0.0664805961 -0.116762581
vt 0.638458014 0.44026199
vn 0.1724207 -0.914470757 -0.366079686
v 0.288190328 0.0738931676 -0.148273489
vt 0.667943001 0.44026199
vn -0.140301767 -0.828160207 -0.542647294
v 0.314416604 0.0956325163 -0.188231777
vt 0.667943001 0.497945011
vn 0.10706194 -0.674773861 -0.730217761
v 0.323127346 0.146014635 -0.188419328
vt 0.667943001 0.554113984
vn 0.637315791 0.341654493 -0.69072483
v 0.248969933 0.206197929 -0.162792393
vt 0.763673007 0.611701012
vn 0.546531138 0.768601563 -0.33249865
v 0.305499814 0.174748462 -0.148274736
vt 0.667943001 0.611701012
vn 0.699048832 0.700263546 -0.144781545
v 0.323127346 0.146014635 -0.188419328
vt 0.667943001 0.554113984
vn 0.637315791 0.341654493 -0.69072483
v 0.254179521 0.181216579 -0.206362323
vt 0.763673007 0.554113984
vn 0.429801018 0.441685477 -0.787518269
v 0.248969933 0.206197929 -0.162792393
vt 0.763673007 0.611701012
vn 0.546531138 0.768601563 -0.33249865
v 0.235648384 0.10949852 -0.162791247
vt 0.763673007 0.44026199
vn -0.38732804 -0.766085808 -0.512922533
v 0.314416604 0.0956325163 -0.188231777
vt 0.667943001 0.497945011
vn 0.10706194 -0.674773861 -0.730217761
v 0.288190328 0.0738931676 -0.148273489
vt 0.667943001 0.44026199
vn -0.140301767 -0.828160207 -0.542647294
v 0.235648384 0.10949852 -0.162791247
vt 0.763673007 0.44026199
vn -0.38732804 -0.766085808 -0.512922533
v 0.245861797 0.132904727 -0.206177499
vt 0.763713002 0.497945011
vn -0.0671492564 -0.398535627 -0.914691386
v 0.314416604 0.0956325163 -0.188231777
vt 0.667943001 0.497945011
vn 0.10706194 -0.674773861 -0.730217761
v 0.245861797 0.132904727 -0.206177499
vt 0.763713002 0.497945011
vn -0.0671492564 -0.398535627 -0.914691386
v 0.254179521 0.181216579 -0.206362323
vt 0.763673007 0.554113984
vn 0.429801018 0.441685477 -0.787518269
v 0.323127346 0.146014635 -0.188419328
vt 0.667943001 0.554113984
vn 0.637315791 0.341654493 -0.69072483
v 0.245861797 0.132904727 -0.206177499
vt 0.763713002 0.497945011
vn -0.0671492564 -0.398535627 -0.914691386
v 0.323127346 0.146014635 -0.188419328
vt 0.667943001 0.554113984
vn 0.637315791 0.341654493 -0.69072483
v 0.314416604 0.0956325163 -0.188231777
vt 0.667943001 0.497945011
vn 0.10706194 -0.674773861 -0.730217761
v 0.254179521 0.181216579 -0.206362323
vt 0.763673007 0.554113984
vn 0.429801018 0.441685477 -0.787518269
v 0.207214833 0.2299187 -0.191396108
vt 0.800333023 0.582907975
vn 0.580540992 0.725617149 -0.369393977
v 0.248969933 0.206197929 -0.162792393
vt 0.763673007 0.611701012
vn 0.546531138 0.768601563 -0.33249865
v 0.235648384 0.10949852 -0.162791247
vt 0.763673007 0.44026199
vn -0.38732804 -0.766085808 -0.512922533
v 0.194212378 0.154132475 -0.191296521
vt 0.800333023 0.469103992
vn -0.494398929 -0.7109752 -0.500083957
v 0.245861797 0.132904727 -0.206177499
vt 0.763713002 0.497945011
vn -0.0671492564 -0.398535627 -0.914691386
v 0.245861797 0.132904727 -0.206177499
vt 0.763713002 0.497945011
vn -0.0671492564 -0.398535627 -0.914691386
v 0.203896758 0.191612509 -0.214066835
vt 0.800333023 0.526028991
vn 0.0810986641 -0.0177706004 -0.996547647
v 0.254179521 0.181216579 -0.206362323
vt 0.763673007 0.554113984
vn 0.429801018 0.441685477 -0.787518269
v 0.207214833 0.2299187 -0.191396108
vt 0.800333023 0.582907975
vn 0.580540992 0.725617149 -0.369393977
v 0.204979692 0.235843581 -0.168627044
vt 0.800333023 0.611701012
vn 0.566155795 0.809577237 -0.155088079
v 0.248969933 0.206197929 -0.162792393
vt 0.763673007 0.611701012
vn 0.546531138 0.768601563 -0.33249865
v 0.254179521 0.181216579 -0.206362323
vt 0.763673007 0.554113984
vn 0.429801018 0.441685477 -0.787518269
v 0.206716357 0.213425916 -0.207725579
vt 0.800333023 0.554113984
vn 0.334666612 0.458310051 -0.823377287
v 0.207214833 0.2299187 -0.191396108
vt 0.800333023 0.582907975
vn 0.580540992 0.725617149 -0.369393977
v 0.203896758 0.191612509 -0.214066835
vt 0.800333023 0.526028991
vn 0.0810986641 -0.0177706004 -0.996547647
v 0.206716357 0.213425916 -0.207725579
vt 0.800333023 0.554113984
vn 0.334666612 0.458310051 -0.823377287
v 0.254179521 0.181216579 -0.206362323
vt 0.763673007 0.554113984
vn 0.429801018 0.441685477 -0.787518269
v 0.245861797 0.132904727 -0.206177499
vt 0.763713002 0.497945011
vn -0.0671492564 -0.398535627 -0.914691386
v 0.199282123 0.170066964 -0.207555581
vt 0.800333023 0.497945011
vn -0.318616616 -0.430671227 -0.844396676
v 0.203896758 0.191612509 -0.214066835
vt 0.800333023 0.526028991
vn 0.0810986641 -0.0177706004 -0.996547647
v 0.194212378 0.154132475 -0.191296521
vt 0.800333023 0.469103992
vn -0.494398929 -0.7109752 -0.500083957
v 0.199282123 0.170066964 -0.207555581
vt 0.800333023 0.497945011
vn -0.318616616 -0.430671227 -0.844396676
v 0.245861797 0.132904727 -0.206177499
vt 0.763713002 0.497945011
vn -0.0671492564 -0.398535627 -0.914691386
v 0.235648384 0.10949852 -0.162791247
vt 0.763673007 0.44026199
vn -0.38732804 -0.766085808 -0.512922533
v 0.190087055 0.149067905 -0.168626039
vt 0.800333023 0.44026199
vn -0.609625497 -0.742766297 -0.27686636
v 0.194212378 0.154132475 -0.191296521
vt 0.800333023 0.469103992
vn -0.494398929 -0.7109752 -0.500083957
v 0.325038103 0.14509542 -0.116763917
vt 0.638458014 0.611701012
vn 0.252310731 0.745883362 0.616439214
v 0.279400466 0.153494683 -0.10824727
vt 0.667943001 0.554113984
vn 0.12687477 0.641844579 0.756266044
v 0.296812089 0.130173427 -0.0907836114
vt 0.638457 0.554113984
vn -0.367880669 0.364764726 0.855342334
v 0.325038103 0.14509542 -0.116763917
vt 0.638458014 0.611701012
vn 0.252310731 0.745883362 0.616439214
v 0.305499814 0.174748462 -0.148274736
vt 0.667943001 0.611701012
vn 0.265736621 0.768894314 0.581537258
v 0.279400466 0.153494683 -0.10824727
vt 0.667943001 0.554113984
vn 0.12687477 0.641844579 0.756266044
v 0.296812089 0.130173427 -0.0907836114
vt 0.638457 0.554113984
vn -0.367880669 0.364764726 0.855342334
v 0.279400466 0.153494683 -0.10824727
vt 0.667943001 0.554113984
vn 0.12687477 0.641844579 0.756266044
v 0.270669876 0.103044037 -0.108192232
vt 0.667943001 0.497945011
vn -0.583846102 -0.252309305 0.771662973
v 0.296812089 0.130173427 -0.0907836114
vt 0.638457 0.554113984
vn -0.367880669 0.364764726 0.855342334
v 0.270669876 0.103044037 -0.108192232
vt 0.667943001 0.497945011
vn -0.583846102 -0.252309305 0.771662973
v 0.289965363 0.0903174621 -0.0907770091
vt 0.638457 0.497945011
vn -0.694217771 -0.587161681 0.416296584
v 0.289965363 0.0903174621 -0.0907770091
vt 0.638457 0.497945011
vn -0.694217771 -0.587161681 0.416296584
v 0.270669876 0.103044037 -0.108192232
vt 0.667943001 0.497945011
vn -0.583846102 -0.252309305 0.771662973
v 0.288190328 0.0738931676 -0.148273489
vt 0.667943001 0.44026199
vn -0.625564602 -0.725121091 0.287868603
v 0.289965363 0.0903174621 -0.0907770091
vt 0.638457 0.497945011
vn -0.694217771 -0.587161681 0.416296584
v 0.288190328 0.0738931676 -0.148273489
vt 0.667943001 0.44026199
vn -0.625564602 -0.725121091 0.287868603
v 0.311544803 0.0664805961 -0.116762581
vt 0.638457 0.44026199
vn -0.573909586 -0.78257196 0.241265237
v 0.248969933 0.206197929 -0.162792393
vt 0.763674021 0.611701012
vn 0.425887736 0.762235018 0.487460166
v 0.279400466 0.153494683 -0.10824727
vt 0.667943001 0.554113984
vn 0.12687477 0.641844579 0.756266044
v 0.305499814 0.174748462 -0.148274736
vt 0.667943001 0.611701012
vn 0.265736621 0.768894314 0.581537258
v 0.248969933 0.206197929 -0.162792393
vt 0.763674021 0.611701012
vn 0.425887736 0.762235018 0.487460166
v 0.242106688 0.183265161 -0.11936824
vt 0.763713002 0.554113984
vn 0.127459815 0.410524974 0.902897138
v 0.279400466 0.153494683 -0.10824727
vt 0.667943001 0.554113984
vn 0.12687477 0.641844579 0.756266044
v 0.242106688 0.183265161 -0.11936824
vt 0.763713002 0.554113984
vn 0.127459815 0.410524974 0.902897138
v 0.270669876 0.103044037 -0.108192232
vt 0.667943001 0.497945011
vn -0.583846102 -0.252309305 0.771662973
v 0.279400466 0.153494683 -0.10824727
vt 0.667943001 0.554113984
vn 0.12687477 0.641844579 0.756266044
v 0.242106688 0.183265161 -0.11936824
vt 0.763713002 0.554113984
vn 0.127459815 0.410524974 0.902897138
v 0.233792302 0.134883758 -0.119289717
vt 0.763674021 0.497945011
vn -0.516854357 -0.506981651 0.689805175
v 0.270669876 0.103044037 -0.108192232
vt 0.667943001 0.497945011
vn -0.583846102 -0.252309305 0.771662973
v 0.233792302 0.134883758 -0.119289717
vt 0.763674021 0.497945011
vn -0.516854357 -0.506981651 0.689805175
v 0.288190328 0.0738931676 -0.148273489
vt 0.667943001 0.44026199
vn -0.625564602 -0.725121091 0.287868603
v 0.270669876 0.103044037 -0.108192232
vt 0.667943001 0.497945011
vn -0.583846102 -0.252309305 0.771662973
v 0.233792302 0.134883758 -0.119289717
vt 0.763674021 0.497945011
vn -0.516854357 -0.506981651 0.689805175
v 0.235648384 0.10949852 -0.162791247
vt 0.763674021 0.44026199
vn -0.592639206 -0.726635551 0.347533519
v 0.288190328 0.0738931676 -0.148273489
vt 0.667943001 0.44026199
vn -0.625564602 -0.725121091 0.287868603
v 0.242106688 0.183265161 -0.11936824
vt 0.763713002 0.554113984
vn 0.127459815 0.410524974 0.902897138
v 0.191279944 0.193717357 -0.12319532
vt 0.800333023 0.526028991
vn -0.136698283 0.0250766625 0.990295279
v 0.233792302 0.134883758 -0.119289717
vt 0.763674021 0.497945011
vn -0.516854357 -0.506981651 0.689805175
v 0.233792302 0.134883758 -0.119289717
vt 0.763674021 0.497945011
vn -0.516854357 -0.506981651 0.689805175
v 0.187887408 0.155169707 -0.145891002
vt 0.800333023 0.469103992
vn -0.599263398 -0.7023032 0.384257199
v 0.235648384 0.10949852 -0.162791247
vt 0.763674021 0.44026199
vn -0.592639206 -0.726635551 0.347533519
v 0.248969933 0.206197929 -0.162792393
vt 0.763674021 0.611701012
vn 0.425887736 0.762235018 0.487460166
v 0.200922974 0.230986279 -0.14593012
vt 0.800333023 0.582907975
vn 0.477276389 0.734546518 0.482336669
v 0.242106688 0.183265161 -0.11936824
vt 0.763713002 0.554113984
vn 0.127459815 0.410524974 0.902897138
v 0.248969933 0.206197929 -0.162792393
vt 0.763674021 0.611701012
vn 0.425887736 0.762235018 0.487460166
v 0.204979692 0.235843581 -0.168627044
vt 0.800333023 0.611701012
vn 0.51411795 0.815308842 0.266372343
v 0.200922974 0.230986279 -0.14593012
vt 0.800333023 0.582907975
vn 0.477276389 0.734546518 0.482336669
v 0.200922974 0.230986279 -0.14593012
vt 0.800333023 0.582907975
vn 0.477276389 0.734546518 0.482336669
v 0.195912446 0.215259117 -0.129654676
vt 0.800333023 0.554113984
vn 0.145881608 0.487418373 0.860895979
v 0.242106688 0.183265161 -0.11936824
vt 0.763713002 0.554113984
vn 0.127459815 0.410524974 0.902897138
v 0.242106688 0.183265161 -0.11936824
vt 0.763713002 0.554113984
vn 0.127459815 0.410524974 0.902897138
v 0.195912446 0.215259117 -0.129654676
vt 0.800333023 0.554113984
vn 0.145881608 0.487418373 0.860895979
v 0.191279944 0.193717357 -0.12319532
vt 0.800333023 0.526028991
vn -0.136698283 0.0250766625 0.990295279
v 0.187887408 0.155169707 -0.145891002
vt 0.800333023 0.469103992
vn -0.599263398 -0.7023032 0.384257199
v 0.190087055 0.149067905 -0.168626039
vt 0.800333023 0.44026199
vn -0.65951648 -0.739528044 0.13467102
v 0.235648384 0.10949852 -0.162791247
vt 0.763674021 0.44026199
vn -0.592639206 -0.726635551 0.347533519
v 0.233792302 0.134883758 -0.119289717
vt 0.763674021 0.497945011
vn -0.516854357 -0.506981651 0.689805175
v 0.188421409 0.171848011 -0.129588499
vt 0.800333023 0.497945011
vn -0.503295559 -0.405098588 0.763274993
v 0.187887408 0.155169707 -0.145891002
vt 0.800333023 0.469103992
vn -0.599263398 -0.7023032 0.384257199
v 0.191279944 0.193717357 -0.12319532
vt 0.800333023 0.526028991
vn -0.136698283 0.0250766625 0.990295279
v 0.188421409 0.171848011 -0.129588499
vt 0.800333023 0.497945011
vn -0.503295559 -0.405098588 0.763274993
v 0.233792302 0.134883758 -0.119289717
vt 0.763674021 0.497945011
vn -0.516854357 -0.506981651 0.689805175
v 0.197567781417 0.19258737675 -0.168629443667
vt 0.800333023 0.554113984
vn -0.975969435895 0.167496453681 -0.13938650653
v 0.195912446 0.215259117 -0.129654676
vt 0.800333023 0.554113984
vn -0.975969435895 0.167496453681 -0.13938650653
v 0.200922974 0.230986279 -0.14593012
vt 0.800333023 0.554113984
vn -0.975969435895 0.167496453681 -0.13938650653
v 0.197567781417 0.19258737675 -0.168629443667
vt 0.800333023 0.554113984
vn -0.975969435895 0.167496453681 -0.13938650653
v 0.200922974 0.230986279 -0.14593012
vt 0.800333023 0.554113984
vn -0.975969435895 0.167496453681 -0.13938650653
v 0.204979692 0.235843581 -0.168627044
vt 0.800333023 0.554113984
vn -0.975969435895 0.167496453681 -0.13938650653
v 0.197567781417 0.19258737675 -0.168629443667
vt 0.800333023 0.554113984
vn -0.975969435895 0.167496453681 -0.13938650653
v 0.204979692 0.235843581 -0.168627044
vt 0.800333023 0.554113984
vn -0.975969435895 0.167496453681 -0.13938650653
v 0.207214833 0.2299187 -0.191396108
vt 0.800333023 0.554113984
vn -0.975969435895 0.167496453681 -0.13938650653
v 0.197567781417 0.19258737675 -0.168629443667
vt 0.800333023 0.554113984
vn -0.975969435895 0.167496453681 -0.13938650653
v 0.207214833 0.2299187 -0.191396108
vt 0.800333023 0.554113984
vn -0.975969435895 0.167496453681 -0.13938650653
v 0.206716357 0.213425916 -0.207725579
vt 0.800333023 0.554113984
vn -0.975969435895 0.167496453681 -0.13938650653
v 0.197567781417 0.19258737675 -0.168629443667
vt 0.800333023 0.554113984
vn -0.975969435895 0.167496453681 -0.13938650653
v 0.206716357 0.213425916 -0.207725579
vt 0.800333023 0.554113984
vn -0.975969435895 0.167496453681 -0.13938650653
v 0.203896758 0.191612509 -0.214066835
vt 0.800333023 0.554113984
vn -0.975969435895 0.167496453681 -0.13938650653
v 0.197567781417 0.19258737675 -0.168629443667
vt 0.800333023 0.554113984
vn -0.975969435895 0.167496453681 -0.13938650653
v 0.203896758 0.191612509 -0.214066835
vt 0.800333023 0.554113984
vn -0.975969435895 0.167496453681 -0.13938650653
v 0.199282123 0.170066964 -0.207555581
vt 0.800333023 0.554113984
vn -0.975969435895 0.167496453681 -0.13938650653
v 0.197567781417 0.19258737675 -0.168629443667
vt 0.800333023 0.554113984
vn -0.975969435895 0.167496453681 -0.13938650653
v 0.199282123 0.170066964 -0.207555581
vt 0.800333023 0.554113984
vn -0.975969435895 0.167496453681 -0.13938650653
v 0.194212378 0.154132475 -0.191296521
vt 0.800333023 0.554113984
vn -0.975969435895 0.167496453681 -0.13938650653
v 0.197567781417 0.19258737675 -0.168629443667
vt 0.800333023 0.554113984
vn -0.975969435895 0.167496453681 -0.13938650653
v 0.194212378 0.154132475 -0.191296521
vt 0.800333023 0.554113984
vn -0.975969435895 0.167496453681 -0.13938650653
v 0.190087055 0.149067905 -0.168626039
vt 0.800333023 0.554113984
vn -0.975969435895 0.167496453681 -0.13938650653
v 0.197567781417 0.19258737675 -0.168629443667
vt 0.800333023 0.554113984
vn -0.975969435895 0.167496453681 -0.13938650653
v 0.190087055 0.149067905 -0.168626039
vt 0.800333023 0.554113984
vn -0.975969435895 0.167496453681 -0.13938650653
v 0.187887408 0.155169707 -0.145891002
vt 0.800333023 0.554113984
vn -0.975969435895 0.167496453681 -0.13938650653
v 0.197567781417 0.19258737675 -0.168629443667
vt 0.800333023 0.554113984
vn -0.975969435895 0.167496453681 -0.13938650653
v 0.187887408 0.155169707 -0.145891002
vt 0.800333023 0.554113984
vn -0.975969435895 0.167496453681 -0.13938650653
v 0.188421409 0.171848011 -0.129588499
vt 0.800333023 0.554113984
vn -0.975969435895 0.167496453681 -0.13938650653
v 0.197567781417 0.19258737675 -0.168629443667
vt 0.800333023 0.554113984
vn -0.975969435895 0.167496453681 -0.13938650653
v 0.188421409 0.171848011 -0.129588499
vt 0.800333023 0.554113984
vn -0.975969435895 0.167496453681 -0.13938650653
v 0.191279944 0.193717357 -0.12319532
vt 0.800333023 0.554113984
vn -0.975969435895 0.167496453681 -0.13938650653
v 0.197567781417 0.19258737675 -0.168629443667
vt 0.800333023 0.554113984
vn -0.975969435895 0.167496453681 -0.13938650653
v 0.191279944 0.193717357 -0.12319532
vt 0.800333023 0.554113984
vn -0.975969435895 0.167496453681 -0.13938650653
v 0.195912446 0.215259117 -0.129654676
vt 0.800333023 0.554113984
vn -0.975969435895 0.167496453681 -0.13938650653
v 0.3183666095 0.105890069783 -0.11682159325
vt 0.638458014 0.497945011
vn 0.706165094778 -0.121192739257 0.697598149989
v 0.339953297 0.0815056455 -0.142909578
vt 0.638458014 0.497945011
vn 0.706165094778 -0.121192739257 0.697598149989
v 0.346886002 0.121767868 -0.142932863
vt 0.638458014 0.497945011
vn 0.706165094778 -0.121192739257 0.697598149989
v 0.3183666095 0.105890069783 -0.11682159325
vt 0.638458014 0.497945011
vn 0.706165094778 -0.121192739257 0.697598149989
v 0.346886002 0.121767868 -0.142932863
vt 0.638458014 0.497945011
vn 0.706165094778 -0.121192739257 0.697598149989
v 0.325038103 0.14509542 -0.116763917
vt 0.638458014 0.497945011
vn 0.706165094778 -0.121192739257 0.697598149989
v 0.3183666095 0.105890069783 -0.11682159325
vt 0.638458014 0.497945011
vn 0.706165094778 -0.121192739257 0.697598149989
v 0.325038103 0.14509542 -0.116763917
vt 0.638458014 0.497945011
vn 0.706165094778 -0.121192739257 0.697598149989
v 0.296812089 0.130173427 -0.0907836114
vt 0.638458014 0.497945011
vn 0.706165094778 -0.121192739257 0.697598149989
v 0.3183666095 0.105890069783 -0.11682159325
vt 0.638458014 0.497945011
vn 0.706165094778 -0.121192739257 0.697598149989
v 0.296812089 0.130173427 -0.0907836114
vt 0.638458014 0.497945011
vn 0.706165094778 -0.121192739257 0.697598149989
v 0.289965363 0.0903174621 -0.0907770091
vt 0.638458014 0.497945011
vn 0.706165094778 -0.121192739257 0.697598149989
v 0.3183666095 0.105890069783 -0.11682159325
vt 0.638458014 0.497945011
vn 0.706165094778 -0.121192739257 0.697598149989
v 0.289965363 0.0903174621 -0.0907770091
vt 0.638458014 0.497945011
vn 0.706165094778 -0.121192739257 0.697598149989
v 0.311544803 0.0664805961 -0.116762581
vt 0.638458014 0.497945011
vn 0.706165094778 -0.121192739257 0.697598149989
v 0.3183666095 0.105890069783 -0.11682159325
vt 0.638458014 0.497945011
vn 0.706165094778 -0.121192739257 0.697598149989
v 0.311544803 0.0664805961 -0.116762581
vt 0.638458014 0.497945011
vn 0.706165094778 -0.121192739257 0.697598149989
v 0.339953297 0.0815056455 -0.142909578
vt 0.638458014 0.497945011
vn 0.706165094778 -0.121192739257 0.697598149989
usemtl _gundefault
f 1/1/1 2/2/2 3/3/3
f 4/4/4 5/5/5 6/6/6
f 7/7/7 8/8/8 9/9/9
f 10/10/10 11/11/11 12/12/12
f 13/13/13 14/14/14 15/15/15
f 16/16/16 17/17/17 18/18/18
f 19/19/19 20/20/20 21/21/21
f 22/22/22 23/23/23 24/24/24
f 25/25/25 26/26/26 27/27/27
f 28/28/28 29/29/29 30/30/30
f 31/31/31 32/32/32 33/33/33
f 34/34/34 35/35/35 36/36/36
f 37/37/37 38/38/38 39/39/39
f 40/40/40 41/41/41 42/42/42
f 43/43/43 44/44/44 45/45/45
f 46/46/46 47/47/47 48/48/48
f 49/49/49 50/50/50 51/51/51
f 52/52/52 53/53/53 54/54/54
f 55/55/55 56/56/56 57/57/57
f 58/58/58 59/59/59 60/60/60
f 61/61/61 62/62/62 63/63/63
f 64/64/64 65/65/65 66/66/66
f 67/67/67 68/68/68 69/69/69
f 70/70/70 71/71/71 72/72/72
f 73/73/73 74/74/74 75/75/75
f 76/76/76 77/77/77 78/78/78
f 79/79/79 80/80/80 81/81/81
f 82/82/82 83/83/83 84/84/84
f 85/85/85 86/86/86 87/87/87
f 88/88/88 89/89/89 90/90/90
f 91/91/91 92/92/92 93/93/93
f 94/94/94 95/95/95 96/96/96
f 97/97/97 98/98/98 99/99/99
f 100/100/100 101/101/101 102/102/102
f 103/103/103 104/104/104 105/105/105
f 106/106/106 107/107/107 108/108/108
f 109/109/109 110/110/110 111/111/111
f 112/112/112 113/113/113 114/114/114
f 115/115/115 116/116/116 117/117/117
f 118/118/118 119/119/119 120/120/120
f 121/121/121 122/122/122 123/123/123
f 124/124/124 125/125/125 126/126/126
f 127/127/127 128/128/128 129/129/129
f 130/130/130 131/131/131 132/132/132
f 133/133/133 134/134/134 135/135/135
f 136/136/136 137/137/137 138/138/138
f 139/139/139 140/140/140 141/141/141
f 142/142/142 143/143/143 144/144/144
f 145/145/145 146/146/146 147/147/147
f 148/148/148 149/149/149 150/150/150
f 151/151/151 152/152/152 153/153/153
f 154/154/154 155/155/155 156/156/156
f 157/157/157 158/158/158 159/159/159
f 160/160/160 161/161/161 162/162/162
f 163/163/163 164/164/164 165/165/165
f 166/166/166 167/167/167 168/168/168
f 169/169/169 170/170/170 171/171/171
f 172/172/172 173/173/173 174/174/174
f 175/175/175 176/176/176 177/177/177
f 178/178/178 179/179/179 180/180/180
