# Generated by tools/yaml_mesh_converter/split_reload_parts.py
mtllib gun40.mtl
o gun40_reload
v -0.0347782383 0.0527190969 -0.0955795996
vt 0.802974939 0.871788502
vn -2.88918897e-07 -0.291037309 0.956711704
v -0.0146904628 0.00567929684 -0.109889376
vt 0.766728938 0.871788502
vn -2.88918897e-07 -0.291037309 0.956711704
v 0.0146904715 0.00567929684 -0.109889368
vt 0.766824305 0.893059969
vn -2.88918897e-07 -0.291037309 0.956711704
v -0.0347782383 0.0527190969 -0.0955795996
vt 0.802974939 0.871788502
vn -2.88918897e-07 -0.291037309 0.956711704
v 0.0146904715 0.00567929684 -0.109889368
vt 0.766824305 0.893059969
vn -2.88918897e-07 -0.291037309 0.956711704
v 0.0347782364 0.0527190969 -0.0955795786
vt 0.80320096 0.893059969
vn -2.88918897e-07 -0.291037309 0.956711704
v 0.0347782364 0.0527190969 -0.0955795786
vt 0.474896431 0.85035938
vn 0.97046542 -0.233381252 0.0610742151
v 0.0146904715 0.00567929684 -0.109889368
vt 0.464504242 0.897406697
vn 0.890089106 -0.427875969 0.157046294
v 0.0269839548 -0.019927333 -0.249330781
vt 0.362745881 0.915234506
vn 0.990198027 -0.135646354 0.0332856325
v 0.0347782364 0.0527190969 -0.0955795786
vt 0.474896431 0.85035938
vn 0.97046542 -0.233381252 0.0610742151
v 0.0269839548 -0.019927333 -0.249330781
vt 0.362745881 0.915234506
vn 0.990198027 -0.135646354 0.0332856325
v 0.0347782828 0.0527193147 -0.249330669
vt 0.362745881 0.85035938
vn 0.994641849 -0.103371162 0.001412454
v 0.0347782828 0.0527193147 -0.249330669
vt 0.362745881 0.85035938
vn 0.994641849 -0.103371162 0.001412454
v 0.0269839548 -0.019927333 -0.249330781
vt 0.362745881 0.915234506
vn 0.990198027 -0.135646354 0.0332856325
v 0.0309783804 0.0117049186 -0.421385976
vt 0.237264499 0.892137229
vn 0.989132272 -0.145356538 -0.0221094003
v 0.0347782828 0.0527193147 -0.249330669
vt 0.362745881 0.85035938
vn 0.994641849 -0.103371162 0.001412454
v 0.0309783804 0.0117049186 -0.421385976
vt 0.237264499 0.892137229
vn 0.989132272 -0.145356538 -0.0221094003
v 0.0347783348 0.0527196048 -0.421385913
vt 0.237264499 0.85035938
vn 0.99573555 -0.0922535294 1.50153156e-07
v 0.0347783348 0.0527196048 -0.421385913
vt 0.237264499 0.85035938
vn 0.99573555 -0.0922535294 1.50153156e-07
v 0.0309783804 0.0117049186 -0.421385976
vt 0.237264499 0.892137229
vn 0.989132272 -0.145356538 -0.0221094003
v 0.0309784018 0.0117050259 -0.492260042
vt 0.185625389 0.892137229
vn 0.975828638 -0.218537114 -3.89072405e-08
v 0.0347783348 0.0527196048 -0.421385913
vt 0.237264499 0.85035938
vn 0.99573555 -0.0922535294 1.50153156e-07
v 0.0309784018 0.0117050259 -0.492260042
vt 0.185625389 0.892137229
vn 0.975828638 -0.218537114 -3.89072405e-08
v 0.0347783562 0.0527197195 -0.492259978
vt 0.185625389 0.866783977
vn 0.995735552 -0.0922535165 1.51406897e-07
v 0.0309784018 0.0117050259 -0.492260042
vt 0.185625389 0.892137229
vn 0.975828638 -0.218537114 -3.89072405e-08
v 0.0309783804 0.0117049186 -0.421385976
vt 0.237264499 0.892137229
vn 0.989132272 -0.145356538 -0.0221094003
v 0.0160412044 -0.0229652078 -0.413536191
vt 0.242759064 0.919593036
vn 0.902197817 -0.415172849 -0.116921364
v 0.0309784018 0.0117050259 -0.492260042
vt 0.185625389 0.892137229
vn 0.975828638 -0.218537114 -3.89072405e-08
v 0.0160412044 -0.0229652078 -0.413536191
vt 0.242759064 0.919593036
vn 0.902197817 -0.415172849 -0.116921364
v 0.0160412152 -0.022965154 -0.449085951
vt 0.216992408 0.919593036
vn 0.918389948 -0.395676514 -3.21394975e-07
v 0.0309783804 0.0117049186 -0.421385976
vt 0.237264499 0.892137229
vn 0.989132272 -0.145356538 -0.0221094003
v 0.0269839548 -0.019927333 -0.249330781
vt 0.362745881 0.915234506
vn 0.990198027 -0.135646354 0.0332856325
v 0.0270279648 -0.0741057135 -0.253589376
vt 0.362745881 0.954749286
vn 0.985894558 -0.15684053 -0.0584206114
v 0.0309783804 0.0117049186 -0.421385976
vt 0.237264499 0.892137229
vn 0.989132272 -0.145356538 -0.0221094003
v 0.0270279648 -0.0741057135 -0.253589376
vt 0.362745881 0.954749286
vn 0.985894558 -0.15684053 -0.0584206114
v 0.0160412044 -0.0229652078 -0.413536191
vt 0.242759064 0.919593036
vn 0.902197817 -0.415172849 -0.116921364
v 0.0270279648 -0.0741057135 -0.253589376
vt 0.362745881 0.954749286
vn 0.985894558 -0.15684053 -0.0584206114
v 0.0269839548 -0.019927333 -0.249330781
vt 0.362745881 0.915234506
vn 0.990198027 -0.135646354 0.0332856325
v 0.0269839501 -0.0585223626 -0.233631155
vt 0.374268055 0.943108559
vn 0.999998367 0.00068074826 0.00167381312
v 0.0347783562 0.0527197195 -0.492259978
vt 0.88834995 0.918655813
vn 3.01991599e-07 1.5132084e-06 -1
v 0.0309784018 0.0117050259 -0.492260042
vt 0.861258566 0.915827751
vn 3.01991599e-07 1.5132084e-06 -1
v -0.0309781641 0.0117050259 -0.49226006
vt 0.861258566 0.869717777
vn 3.01991599e-07 1.5132084e-06 -1
v 0.0347783562 0.0527197195 -0.492259978
vt 0.88834995 0.918655813
vn 3.01991599e-07 1.5132084e-06 -1
v -0.0309781641 0.0117050259 -0.49226006
vt 0.861258566 0.869717777
vn 3.01991599e-07 1.5132084e-06 -1
v -0.0347781185 0.0527197195 -0.492259999
vt 0.88834995 0.866889656
vn 3.01991599e-07 1.5132084e-06 -1
v -0.0347781185 0.0527197195 -0.492259999
vt 0.185625389 0.866783977
vn -0.995735552 -0.0922535082 -4.54849678e-07
v -0.0309781641 0.0117050259 -0.49226006
vt 0.185625389 0.892137229
vn -0.970695441 -0.240313048 -7.07311053e-07
v -0.0309781855 0.0117049037 -0.421386025
vt 0.237264499 0.892137229
vn -0.972563601 -0.23229144 -0.0126778777
v -0.0347781185 0.0527197195 -0.492259999
vt 0.185625389 0.866783977
vn -0.995735552 -0.0922535082 -4.54849678e-07
v -0.0309781855 0.0117049037 -0.421386025
vt 0.237264499 0.892137229
vn -0.972563601 -0.23229144 -0.0126778777
v -0.0347781399 0.0527196048 -0.421385964
vt 0.237264499 0.85035938
vn -0.994956594 -0.100287803 0.00193197061
v -0.0347781399 0.0527196048 -0.421385964
vt 0.237264499 0.85035938
vn -0.994956594 -0.100287803 0.00193197061
v -0.0309781855 0.0117049037 -0.421386025
vt 0.237264499 0.892137229
vn -0.972563601 -0.23229144 -0.0126778777
v -0.0269838638 -0.019927333 -0.249330797
vt 0.362745881 0.915234506
vn -0.992526105 -0.121944935 0.00462215782
v -0.0347781399 0.0527196048 -0.421385964
vt 0.237264499 0.85035938
vn -0.994956594 -0.100287803 0.00193197061
v -0.0269838638 -0.019927333 -0.249330797
vt 0.362745881 0.915234506
vn -0.992526105 -0.121944935 0.00462215782
v -0.0347781918 0.052719337 -0.24933069
vt 0.362745881 0.85035938
vn -0.982725582 -0.181541813 0.0359583113
v -0.0347781918 0.052719337 -0.24933069
vt 0.362745881 0.85035938
vn -0.982725582 -0.181541813 0.0359583113
v -0.0269838638 -0.019927333 -0.249330797
vt 0.362745881 0.915234506
vn -0.992526105 -0.121944935 0.00462215782
v -0.0146904628 0.00567929684 -0.109889376
vt 0.464504242 0.897406697
vn -0.970465465 -0.233381224 0.0610736152
v -0.0347781918 0.052719337 -0.24933069
vt 0.362745881 0.85035938
vn -0.982725582 -0.181541813 0.0359583113
v -0.0146904628 0.00567929684 -0.109889376
vt 0.464504242 0.897406697
vn -0.970465465 -0.233381224 0.0610736152
v -0.0347782383 0.0527190969 -0.0955795996
vt 0.474896431 0.85035938
vn -0.919655002 -0.39272723 -8.91037285e-07
v -0.0309781855 0.0117049037 -0.421386025
vt 0.237264499 0.892137229
vn -0.972563601 -0.23229144 -0.0126778777
v -0.0309781641 0.0117050259 -0.49226006
vt 0.185625389 0.892137229
vn -0.970695441 -0.240313048 -7.07311053e-07
v -0.0160410035 -0.022965154 -0.449085961
vt 0.216992408 0.919593036
vn -0.918389918 -0.395676583 -9.86890249e-07
v -0.0309781855 0.0117049037 -0.421386025
vt 0.237264499 0.892137229
vn -0.972563601 -0.23229144 -0.0126778777
v -0.0160410035 -0.022965154 -0.449085961
vt 0.216992408 0.919593036
vn -0.918389918 -0.395676583 -9.86890249e-07
v -0.0160410143 -0.0229652227 -0.413536231
vt 0.242759064 0.919593036
vn -0.980716941 -0.186807665 -0.0574210536
v -0.0269838638 -0.019927333 -0.249330797
vt 0.362745881 0.915234506
vn -0.992526105 -0.121944935 0.00462215782
v -0.0309781855 0.0117049037 -0.421386025
vt 0.237264499 0.892137229
vn -0.972563601 -0.23229144 -0.0126778777
v -0.0160410143 -0.0229652227 -0.413536231
vt 0.242759064 0.919593036
vn -0.980716941 -0.186807665 -0.0574210536
v -0.0269838638 -0.019927333 -0.249330797
vt 0.362745881 0.915234506
vn -0.992526105 -0.121944935 0.00462215782
v -0.0160410143 -0.0229652227 -0.413536231
vt 0.242759064 0.919593036
vn -0.980716941 -0.186807665 -0.0574210536
v -0.0270278712 -0.0741057135 -0.253589393
vt 0.362745881 0.954749286
vn -0.998205412 0.0054979164 -0.0596299306
v -0.0269838638 -0.019927333 -0.249330797
vt 0.362745881 0.915234506
vn -0.992526105 -0.121944935 0.00462215782
v -0.0270278712 -0.0741057135 -0.253589393
vt 0.362745881 0.954749286
vn -0.998205412 0.0054979164 -0.0596299306
v -0.0269838686 -0.0585223626 -0.233631171
vt 0.374268055 0.943108559
vn -0.999998368 0.00068074826 0.00167320914
v -0.0146904628 0.00567929684 -0.109889376
vt 0.766728938 0.871788502
vn -5.45448136e-08 -0.983553506 0.180617001
v -0.0269838638 -0.019927333 -0.249330797
vt 0.670373201 0.871788502
vn -5.45448136e-08 -0.983553506 0.180617001
v 0.0269839548 -0.019927333 -0.249330781
vt 0.670548677 0.893059969
vn -5.45448136e-08 -0.983553506 0.180617001
v -0.0146904628 0.00567929684 -0.109889376
vt 0.766728938 0.871788502
vn -5.45448136e-08 -0.983553506 0.180617001
v 0.0269839548 -0.019927333 -0.249330781
vt 0.670548677 0.893059969
vn -5.45448136e-08 -0.983553506 0.180617001
v 0.0146904715 0.00567929684 -0.109889368
vt 0.766824305 0.893059969
vn -5.45448136e-08 -0.983553506 0.180617001
v 0.0160412044 -0.0229652078 -0.413536191
vt 0.507343531 0.893059969
vn 6.49733762e-07 -0.976368368 -0.216112955
v -0.0160410143 -0.0229652227 -0.413536231
vt 0.507239103 0.871788502
vn 3.70787915e-07 -0.959060539 -0.283201136
v -0.0160410035 -0.022965154 -0.449085961
vt 0.482546061 0.871788502
vn 2.32234578e-07 -1 -1.72279016e-06
v 0.0160412044 -0.0229652078 -0.413536191
vt 0.507343531 0.893059969
vn 6.49733762e-07 -0.976368368 -0.216112955
v -0.0160410035 -0.022965154 -0.449085961
vt 0.482546061 0.871788502
vn 2.32234578e-07 -1 -1.72279016e-06
v 0.0160412152 -0.022965154 -0.449085951
vt 0.482546061 0.893059969
vn 4.60436779e-13 -1 -1.5132084e-06
v 0.0270279648 -0.0741057135 -0.253589376
vt 0.624019384 0.893059969
vn 3.62111955e-07 -0.952497562 -0.304546211
v -0.0160410143 -0.0229652227 -0.413536231
vt 0.507239103 0.871788502
vn 3.70787915e-07 -0.959060539 -0.283201136
v 0.0160412044 -0.0229652078 -0.413536191
vt 0.507343531 0.893059969
vn 6.49733762e-07 -0.976368368 -0.216112955
v 0.0270279648 -0.0741057135 -0.253589376
vt 0.624019384 0.893059969
vn 3.62111955e-07 -0.952497562 -0.304546211
v -0.0270278712 -0.0741057135 -0.253589393
vt 0.623843908 0.871788502
vn 9.19703809e-08 -0.952497583 -0.304546145
v -0.0160410143 -0.0229652227 -0.413536231
vt 0.507239103 0.871788502
vn 3.70787915e-07 -0.959060539 -0.283201136
v -0.0309781641 0.0117050259 -0.49226006
vt 0.861258566 0.869717777
vn 1.89087664e-07 -0.779714264 -0.626135502
v 0.0309784018 0.0117050259 -0.492260042
vt 0.861258566 0.915827751
vn 1.89087664e-07 -0.779714264 -0.626135502
v 0.0160412152 -0.022965154 -0.449085951
vt 0.820049226 0.904711187
vn 1.89087664e-07 -0.779714264 -0.626135502
v -0.0309781641 0.0117050259 -0.49226006
vt 0.861258566 0.869717777
vn 1.89087664e-07 -0.779714264 -0.626135502
v 0.0160412152 -0.022965154 -0.449085951
vt 0.820049226 0.904711187
vn 1.89087664e-07 -0.779714264 -0.626135502
v -0.0160410035 -0.022965154 -0.449085961
vt 0.820049226 0.880834281
vn 1.89087664e-07 -0.779714264 -0.626135502
v 0.0269839548 -0.019927333 -0.249330781
vt 0.670548677 0.893059969
vn -2.7973355e-07 0.376797164 0.926295793
v -0.0269838638 -0.019927333 -0.249330797
vt 0.670373201 0.871788502
vn -2.7973355e-07 0.376797164 0.926295793
v -0.0269838686 -0.0585223626 -0.233631171
vt 0.641432047 0.871788502
vn -2.7973355e-07 0.376797164 0.926295793
v 0.0269839548 -0.019927333 -0.249330781
vt 0.670548677 0.893059969
vn -2.7973355e-07 0.376797164 0.926295793
v -0.0269838686 -0.0585223626 -0.233631171
vt 0.641432047 0.871788502
vn -2.7973355e-07 0.376797164 0.926295793
v 0.0269839501 -0.0585223626 -0.233631155
vt 0.641607523 0.893059969
vn -2.7973355e-07 0.376797164 0.926295793
v 0.0269839501 -0.0585223626 -0.233631155
vt 0.641607523 0.893059969
vn -1.85852592e-07 -0.788196965 0.615423061
v -0.0269838686 -0.0585223626 -0.233631171
vt 0.641432047 0.871788502
vn -1.85852592e-07 -0.788196965 0.615423061
v -0.0270278712 -0.0741057135 -0.253589393
vt 0.623843908 0.871788502
vn -1.85852592e-07 -0.788196965 0.615423061
v 0.0269839501 -0.0585223626 -0.233631155
vt 0.641607523 0.893059969
vn -1.85852592e-07 -0.788196965 0.615423061
v -0.0270278712 -0.0741057135 -0.253589393
vt 0.623843908 0.871788502
vn -1.85852592e-07 -0.788196965 0.615423061
v 0.0270279648 -0.0741057135 -0.253589376
vt 0.624019384 0.893059969
vn -1.85852592e-07 -0.788196965 0.615423061
v 6.52124999998e-08 0.0527194367625 -0.3146390489
vt 0.474896431 0.85035938
vn 1.31659996064e-07 0.999999999999 1.5695255342e-06
v 0.0347782364 0.0527190969 -0.0955795786
vt 0.474896431 0.85035938
vn 1.31659996064e-07 0.999999999999 1.5695255342e-06
v 0.0347782828 0.0527193147 -0.249330669
vt 0.474896431 0.85035938
vn 1.31659996064e-07 0.999999999999 1.5695255342e-06
v 6.52124999998e-08 0.0527194367625 -0.3146390489
vt 0.474896431 0.85035938
vn 1.31659996064e-07 0.999999999999 1.5695255342e-06
v 0.0347782828 0.0527193147 -0.249330669
vt 0.474896431 0.85035938
vn 1.31659996064e-07 0.999999999999 1.5695255342e-06
v 0.0347783348 0.0527196048 -0.421385913
vt 0.474896431 0.85035938
vn 1.31659996064e-07 0.999999999999 1.5695255342e-06
v 6.52124999998e-08 0.0527194367625 -0.3146390489
vt 0.474896431 0.85035938
vn 1.31659996064e-07 0.999999999999 1.5695255342e-06
v 0.0347783348 0.0527196048 -0.421385913
vt 0.474896431 0.85035938
vn 1.31659996064e-07 0.999999999999 1.5695255342e-06
v 0.0347783562 0.0527197195 -0.492259978
vt 0.474896431 0.85035938
vn 1.31659996064e-07 0.999999999999 1.5695255342e-06
v 6.52124999998e-08 0.0527194367625 -0.3146390489
vt 0.474896431 0.85035938
vn 1.31659996064e-07 0.999999999999 1.5695255342e-06
v 0.0347783562 0.0527197195 -0.492259978
vt 0.474896431 0.85035938
vn 1.31659996064e-07 0.999999999999 1.5695255342e-06
v -0.0347781185 0.0527197195 -0.492259999
vt 0.474896431 0.85035938
vn 1.31659996064e-07 0.999999999999 1.5695255342e-06
v 6.52124999998e-08 0.0527194367625 -0.3146390489
vt 0.474896431 0.85035938
vn 1.31659996064e-07 0.999999999999 1.5695255342e-06
v -0.0347781185 0.0527197195 -0.492259999
vt 0.474896431 0.85035938
vn 1.31659996064e-07 0.999999999999 1.5695255342e-06
v -0.0347781399 0.0527196048 -0.421385964
vt 0.474896431 0.85035938
vn 1.31659996064e-07 0.999999999999 1.5695255342e-06
v 6.52124999998e-08 0.0527194367625 -0.3146390489
vt 0.474896431 0.85035938
vn 1.31659996064e-07 0.999999999999 1.5695255342e-06
v -0.0347781399 0.0527196048 -0.421385964
vt 0.474896431 0.85035938
vn 1.31659996064e-07 0.999999999999 1.5695255342e-06
v -0.0347781918 0.052719337 -0.24933069
vt 0.474896431 0.85035938
vn 1.31659996064e-07 0.999999999999 1.5695255342e-06
v 6.52124999998e-08 0.0527194367625 -0.3146390489
vt 0.474896431 0.85035938
vn 1.31659996064e-07 0.999999999999 1.5695255342e-06
v -0.0347781918 0.052719337 -0.24933069
vt 0.474896431 0.85035938
vn 1.31659996064e-07 0.999999999999 1.5695255342e-06
v -0.0347782383 0.0527190969 -0.0955795996
vt 0.474896431 0.85035938
vn 1.31659996064e-07 0.999999999999 1.5695255342e-06
v 6.52124999998e-08 0.0527194367625 -0.3146390489
vt 0.474896431 0.85035938
vn 1.31659996064e-07 0.999999999999 1.5695255342e-06
v -0.0347782383 0.0527190969 -0.0955795996
vt 0.474896431 0.85035938
vn 1.31659996064e-07 0.999999999999 1.5695255342e-06
v 0.0347782364 0.0527190969 -0.0955795786
vt 0.474896431 0.85035938
vn 1.31659996064e-07 0.999999999999 1.5695255342e-06
usemtl gunChristmas
f 1/1/1 2/2/2 3/3/3
f 4/4/4 5/5/5 6/6/6
f 7/7/7 8/8/8 9/9/9
f 10/10/10 11/11/11 12/12/12
f 13/13/13 14/14/14 15/15/15
f 16/16/16 17/17/17 18/18/18
f 19/19/19 20/20/20 21/21/21
f 22/22/22 23/23/23 24/24/24
f 25/25/25 26/26/26 27/27/27
f 28/28/28 29/29/29 30/30/30
f 31/31/31 32/32/32 33/33/33
f 34/34/34 35/35/35 36/36/36
f 37/37/37 38/38/38 39/39/39
f 40/40/40 41/41/41 42/42/42
f 43/43/43 44/44/44 45/45/45
f 46/46/46 47/47/47 48/48/48
f 49/49/49 50/50/50 51/51/51
f 52/52/52 53/53/53 54/54/54
f 55/55/55 56/56/56 57/57/57
f 58/58/58 59/59/59 60/60/60
f 61/61/61 62/62/62 63/63/63
f 64/64/64 65/65/65 66/66/66
f 67/67/67 68/68/68 69/69/69
f 70/70/70 71/71/71 72/72/72
f 73/73/73 74/74/74 75/75/75
f 76/76/76 77/77/77 78/78/78
f 79/79/79 80/80/80 81/81/81
f 82/82/82 83/83/83 84/84/84
f 85/85/85 86/86/86 87/87/87
f 88/88/88 89/89/89 90/90/90
f 91/91/91 92/92/92 93/93/93
f 94/94/94 95/95/95 96/96/96
f 97/97/97 98/98/98 99/99/99
f 100/100/100 101/101/101 102/102/102
f 103/103/103 104/104/104 105/105/105
f 106/106/106 107/107/107 108/108/108
f 109/109/109 110/110/110 111/111/111
f 112/112/112 113/113/113 114/114/114
f 115/115/115 116/116/116 117/117/117
f 118/118/118 119/119/119 120/120/120
f 121/121/121 122/122/122 123/123/123
f 124/124/124 125/125/125 126/126/126
f 127/127/127 128/128/128 129/129/129
f 130/130/130 131/131/131 132/132/132
f 133/133/133 134/134/134 135/135/135
f 136/136/136 137/137/137 138/138/138
