# Generated by tools/yaml_mesh_converter/split_reload_parts.py
mtllib gun45.mtl
o gun45_reload
v -0.262612115 -0.0275864293 -0.501943338
vt 0.859300017 0.192599997
vn -0.630773475 -0.592328632 -0.501270003
v -0.251497946 -0.0413949651 -0.501943324
vt 0.857347012 0.17055665
vn -0.683243423 -0.549927173 -0.480373323
v -0.282645373 -0.116690595 -0.371444013
vt 0.770709693 0.154580727
vn -0.630773475 -0.592328632 -0.501270003
v -0.262612115 -0.0275864293 -0.501943338
vt 0.859300017 0.192599997
vn -0.630773475 -0.592328632 -0.501270003
v -0.282645373 -0.116690595 -0.371444013
vt 0.770709693 0.154580727
vn -0.630773475 -0.592328632 -0.501270003
v -0.297765086 -0.098236423 -0.376555994
vt 0.773100019 0.165199995
vn -0.586943622 -0.623842892 -0.516059329
v -0.216800953 0.113701076 -0.501943444
vt 0.861001849 0.321261883
vn 0.789167142 0.563263154 -0.244846567
v -0.230358148 0.131963472 -0.501943461
vt 0.858642161 0.303182662
vn 0.776203053 0.576218572 -0.255892513
v -0.240133189 0.204677982 -0.367855777
vt 0.76930207 0.305276901
vn 0.789167142 0.563263154 -0.244846567
v -0.216800953 0.113701076 -0.501943444
vt 0.861001849 0.321261883
vn 0.789167142 0.563263154 -0.244846567
v -0.240133189 0.204677982 -0.367855777
vt 0.76930207 0.305276901
vn 0.789167142 0.563263154 -0.244846567
v -0.216801084 0.171918419 -0.366332251
vt 0.771838605 0.318218708
vn 0.796197931 0.555970372 -0.238675092
v -0.262612115 -0.0275864293 -0.501943338
vt 0.859300017 0.192599997
vn -0.962877294 4.92916969e-06 -0.26993947
v -0.297765086 -0.098236423 -0.376555994
vt 0.773100019 0.165199995
vn -0.962876294 7.39498472e-06 -0.269943035
v -0.297764899 0.167926643 -0.376549368
vt 0.772899985 0.272100002
vn -0.962877294 4.92916969e-06 -0.26993947
v -0.262612115 -0.0275864293 -0.501943338
vt 0.859300017 0.192599997
vn -0.962877294 4.92916969e-06 -0.26993947
v -0.297764899 0.167926643 -0.376549368
vt 0.772899985 0.272100002
vn -0.962877294 4.92916969e-06 -0.26993947
v -0.262612047 0.111537199 -0.50194347
vt 0.859300017 0.253699988
vn -0.962879205 2.11894581e-07 -0.269932651
v -0.216801493 -0.0879672032 -0.163582764
vt 0.0820999965 0.555567801
vn 1 -6.90077837e-07 1.1355046e-06
v -0.216801266 -0.0879674285 -0.366331966
vt 0.0383687951 0.555559516
vn 1 -7.01154821e-07 1.1793482e-06
v -0.216801084 0.171918419 -0.366332251
vt 0.0384000018 0.524232268
vn 1 -6.93458354e-07 1.17536831e-06
v -0.216801493 -0.0879672032 -0.163582764
vt 0.0820999965 0.555567801
vn 1 -6.90077837e-07 1.1355046e-06
v -0.216801084 0.171918419 -0.366332251
vt 0.0384000018 0.524232268
vn 1 -6.93458354e-07 1.17536831e-06
v -0.2168014 0.171918743 -0.0899148896
vt 0.0974428654 0.524215937
vn 1 -6.8195294e-07 1.14591915e-06
v -0.216801053 -0.0297503671 -0.501943309
vt 0.00929999072 0.549321473
vn 1 -7.01154763e-07 1.26612583e-06
v -0.216801084 0.171918419 -0.366332251
vt 0.0384000018 0.524232268
vn 1 -6.93458354e-07 1.17536831e-06
v -0.216801266 -0.0879674285 -0.366331966
vt 0.0383687951 0.555559516
vn 1 -7.01154821e-07 1.1793482e-06
v -0.216801053 -0.0297503671 -0.501943309
vt 0.00929999072 0.549321473
vn 1 -7.01154763e-07 1.26612583e-06
v -0.216800953 0.113701076 -0.501943444
vt 0.00934008323 0.532065749
vn 1 -7.0115483e-07 1.26612593e-06
v -0.216801084 0.171918419 -0.366332251
vt 0.0384000018 0.524232268
vn 1 -6.93458354e-07 1.17536831e-06
v -0.230358274 -0.0479062658 -0.501943308
vt 0.649068832 0.478893638
vn 5.58649209e-07 -8.74917504e-07 -1
v -0.230358148 0.131963472 -0.501943461
vt 0.648860335 0.387686968
vn 4.95399155e-07 -8.64269336e-07 -1
v -0.216800953 0.113701076 -0.501943444
vt 0.640257776 0.398640126
vn 6.05388803e-07 -8.92255854e-07 -1
v -0.230358274 -0.0479062658 -0.501943308
vt 0.649068832 0.478893638
vn 5.58649209e-07 -8.74917504e-07 -1
v -0.216800953 0.113701076 -0.501943444
vt 0.640257776 0.398640126
vn 6.05388803e-07 -8.92255854e-07 -1
v -0.216801053 -0.0297503671 -0.501943309
vt 0.642932177 0.467881083
vn 1.16328246e-06 -9.39057833e-07 -1
v -0.251497946 -0.0413949651 -0.501943324
vt 0.663446486 0.479105264
vn 5.17217119e-07 -8.70085802e-07 -1
v -0.230358148 0.131963472 -0.501943461
vt 0.648860335 0.387686968
vn 4.95399155e-07 -8.64269336e-07 -1
v -0.230358274 -0.0479062658 -0.501943308
vt 0.649068832 0.478893638
vn 5.58649209e-07 -8.74917504e-07 -1
v -0.251497946 -0.0413949651 -0.501943324
vt 0.663446486 0.479105264
vn 5.17217119e-07 -8.70085802e-07 -1
v -0.251497829 0.125452216 -0.501943471
vt 0.663457274 0.38738966
vn 6.63774621e-07 -8.96683514e-07 -1
v -0.230358148 0.131963472 -0.501943461
vt 0.648860335 0.387686968
vn 4.95399155e-07 -8.64269336e-07 -1
v -0.262612115 -0.0275864293 -0.501943338
vt 0.671599984 0.475100011
vn 6.08703314e-07 -9.13163481e-07 -1
v -0.251497829 0.125452216 -0.501943471
vt 0.663457274 0.38738966
vn 6.63774621e-07 -8.96683514e-07 -1
v -0.251497946 -0.0413949651 -0.501943324
vt 0.663446486 0.479105264
vn 5.17217119e-07 -8.70085802e-07 -1
v -0.262612115 -0.0275864293 -0.501943338
vt 0.671599984 0.475100011
vn 6.08703314e-07 -9.13163481e-07 -1
v -0.262612047 0.111537199 -0.50194347
vt 0.671599984 0.391400009
vn 1.14323142e-06 -9.51983073e-07 -1
v -0.251497829 0.125452216 -0.501943471
vt 0.663457274 0.38738966
vn 6.63774621e-07 -8.96683514e-07 -1
v -0.297764899 0.167926643 -0.376549368
vt 0.772899985 0.272100002
vn -0.999593045 0.00343622907 -0.0283185012
v -0.297765086 -0.098236423 -0.376555994
vt 0.773100019 0.165199995
vn -0.99947059 1.51068986e-06 -0.0325352049
v -0.304817518 -0.098289539 -0.159907635
vt 0.624300003 0.164299995
vn -0.999593045 0.00343622907 -0.0283185012
v -0.297764899 0.167926643 -0.376549368
vt 0.772899985 0.272100002
vn -0.999593045 0.00343622907 -0.0283185012
v -0.304817518 -0.098289539 -0.159907635
vt 0.624300003 0.164299995
vn -0.999593045 0.00343622907 -0.0283185012
v -0.304817392 0.182224863 -0.0935902748
vt 0.578299999 0.275700003
vn -0.999664223 0.00596208107 -0.0252169719
v -0.216801084 0.171918419 -0.366332251
vt 0.771838605 0.318218708
vn 0.813332283 0.581799372 0.000297933735
v -0.240133189 0.204677982 -0.367855777
vt 0.76930207 0.305276901
vn 0.814513801 0.580143852 0.000615122905
v -0.241896461 0.206859494 -0.0904833204
vt 0.578012526 0.305733413
vn 0.813332283 0.581799372 0.000297933735
v -0.216801084 0.171918419 -0.366332251
vt 0.771838605 0.318218708
vn 0.813332283 0.581799372 0.000297933735
v -0.241896461 0.206859494 -0.0904833204
vt 0.578012526 0.305733413
vn 0.813332283 0.581799372 0.000297933735
v -0.2168014 0.171918743 -0.0899148896
vt 0.57831502 0.317827433
vn 0.812220283 0.583350848 2.47953805e-07
v -0.216801266 -0.0879674285 -0.366331966
vt 0.775243938 0.117676914
vn 0.821446634 -0.570273521 0.00367957324
v -0.216801493 -0.0879672032 -0.163582764
vt 0.631409347 0.117675707
vn 0.811394787 -0.584498503 1.5595019e-06
v -0.241896648 -0.122804036 -0.163014327
vt 0.629511893 0.131531611
vn 0.821446634 -0.570273521 0.00367957324
v -0.216801266 -0.0879674285 -0.366331966
vt 0.775243938 0.117676914
vn 0.821446634 -0.570273521 0.00367957324
v -0.241896648 -0.122804036 -0.163014327
vt 0.629511893 0.131531611
vn 0.821446634 -0.570273521 0.00367957324
v -0.240133419 -0.122893552 -0.3678565
vt 0.772053838 0.131486744
vn 0.831349734 -0.555700348 0.00739888635
v -0.286171681 -0.116718892 -0.16174518
vt 0.693204701 0.381470323
vn -0.000590425203 -0.2183684 0.975866227
v -0.286171531 0.200768303 -0.0917525653
vt 0.693165362 0.484482825
vn 0.0201887885 -0.215070494 0.976389828
v -0.304817392 0.182224863 -0.0935902748
vt 0.685800016 0.480800003
vn 0.000675616289 -0.222241951 0.974991312
v -0.286171681 -0.116718892 -0.16174518
vt 0.693204701 0.381470323
vn -0.000590425203 -0.2183684 0.975866227
v -0.304817392 0.182224863 -0.0935902748
vt 0.685800016 0.480800003
vn 0.000675616289 -0.222241951 0.974991312
v -0.304817518 -0.098289539 -0.159907635
vt 0.685899973 0.38499999
vn -0.130371599 -0.228107641 0.964867944
v -0.241896648 -0.122804036 -0.163014327
vt 0.710106373 0.381703168
vn 0.071609836 -0.214481007 0.974099548
v -0.286171531 0.200768303 -0.0917525653
vt 0.693165362 0.484482825
vn 0.0201887885 -0.215070494 0.976389828
v -0.286171681 -0.116718892 -0.16174518
vt 0.693204701 0.381470323
vn -0.000590425203 -0.2183684 0.975866227
v -0.241896648 -0.122804036 -0.163014327
vt 0.710106373 0.381703168
vn 0.071609836 -0.214481007 0.974099548
v -0.241896461 0.206859494 -0.0904833204
vt 0.709922075 0.484236687
vn 0.000522842106 -0.227932222 0.973676861
v -0.286171531 0.200768303 -0.0917525653
vt 0.693165362 0.484482825
vn 0.0201887885 -0.215070494 0.976389828
v -0.216801493 -0.0879672032 -0.163582764
vt 0.718984365 0.392024904
vn -0.000498224746 -0.240693595 0.970601023
v -0.241896461 0.206859494 -0.0904833204
vt 0.709922075 0.484236687
vn 0.000522842106 -0.227932222 0.973676861
v -0.241896648 -0.122804036 -0.163014327
vt 0.710106373 0.381703168
vn 0.071609836 -0.214481007 0.974099548
v -0.216801493 -0.0879672032 -0.163582764
vt 0.718984365 0.392024904
vn -0.000498224746 -0.240693595 0.970601023
v -0.2168014 0.171918743 -0.0899148896
vt 0.717869461 0.473813981
vn -0.372595627 -0.253079981 0.892817463
v -0.241896461 0.206859494 -0.0904833204
vt 0.709922075 0.484236687
vn 0.000522842106 -0.227932222 0.973676861
v -0.251497946 -0.0413949651 -0.501943324
vt 0.857347012 0.17055665
vn -0.141543704 -0.851212262 -0.505374183
v -0.230358274 -0.0479062658 -0.501943308
vt 0.858688533 0.135371417
vn -0.257281499 -0.835294631 -0.485890018
v -0.240133419 -0.122893552 -0.3678565
vt 0.772053838 0.131486744
vn -0.141543704 -0.851212262 -0.505374183
v -0.251497946 -0.0413949651 -0.501943324
vt 0.857347012 0.17055665
vn -0.141543704 -0.851212262 -0.505374183
v -0.240133419 -0.122893552 -0.3678565
vt 0.772053838 0.131486744
vn -0.141543704 -0.851212262 -0.505374183
v -0.282645373 -0.116690595 -0.371444013
vt 0.770709693 0.154580727
vn -0.0814580572 -0.854746073 -0.512614608
v -0.262612047 0.111537199 -0.50194347
vt 0.859300017 0.253699988
vn -0.715232319 0.537971361 -0.446127274
v -0.297764899 0.167926643 -0.376549368
vt 0.772899985 0.272100002
vn -0.727629497 0.525874314 -0.440467388
v -0.282645156 0.193126034 -0.371440837
vt 0.7694543 0.282868683
vn -0.715232319 0.537971361 -0.446127274
v -0.262612047 0.111537199 -0.50194347
vt 0.859300017 0.253699988
vn -0.715232319 0.537971361 -0.446127274
v -0.282645156 0.193126034 -0.371440837
vt 0.7694543 0.282868683
vn -0.715232319 0.537971361 -0.446127274
v -0.251497829 0.125452216 -0.501943471
vt 0.857627988 0.273196548
vn -0.696027154 0.555931547 -0.454407654
v -0.282645156 0.193126034 -0.371440837
vt 0.7694543 0.282868683
vn -0.78801409 0.614434865 -0.0387761477
v -0.297764899 0.167926643 -0.376549368
vt 0.772899985 0.272100002
vn -0.85223699 0.520988927 -0.0475673316
v -0.304817392 0.182224863 -0.0935902748
vt 0.578299999 0.275700003
vn -0.78801409 0.614434865 -0.0387761477
v -0.282645156 0.193126034 -0.371440837
vt 0.7694543 0.282868683
vn -0.78801409 0.614434865 -0.0387761477
v -0.304817392 0.182224863 -0.0935902748
vt 0.578299999 0.275700003
vn -0.78801409 0.614434865 -0.0387761477
v -0.286171531 0.200768303 -0.0917525653
vt 0.57778877 0.285816461
vn -0.703472405 0.710159946 -0.0282741225
v -0.304817518 -0.098289539 -0.159907635
vt 0.624300003 0.164299995
vn -0.736656336 -0.676016724 -0.0184073742
v -0.297765086 -0.098236423 -0.376555994
vt 0.773100019 0.165199995
vn -0.769847234 -0.637729842 -0.0252167582
v -0.282645373 -0.116690595 -0.371444013
vt 0.770709693 0.154580727
vn -0.736656336 -0.676016724 -0.0184073742
v -0.304817518 -0.098289539 -0.159907635
vt 0.624300003 0.164299995
vn -0.736656336 -0.676016724 -0.0184073742
v -0.282645373 -0.116690595 -0.371444013
vt 0.770709693 0.154580727
vn -0.736656336 -0.676016724 -0.0184073742
v -0.286171681 -0.116718892 -0.16174518
vt 0.627014399 0.153623208
vn -0.703510241 -0.710585046 -0.0119261549
v -0.251497829 0.125452216 -0.501943471
vt 0.857627988 0.273196548
vn -0.213669956 0.848889967 -0.483457313
v -0.282645156 0.193126034 -0.371440837
vt 0.7694543 0.282868683
vn -0.190464795 0.852173357 -0.487364065
v -0.240133189 0.204677982 -0.367855777
vt 0.76930207 0.305276901
vn -0.213669956 0.848889967 -0.483457313
v -0.251497829 0.125452216 -0.501943471
vt 0.857627988 0.273196548
vn -0.213669956 0.848889967 -0.483457313
v -0.240133189 0.204677982 -0.367855777
vt 0.76930207 0.305276901
vn -0.213669956 0.848889967 -0.483457313
v -0.230358148 0.131963472 -0.501943461
vt 0.858642161 0.303182662
vn -0.259042401 0.84101719 -0.474960125
v -0.240133189 0.204677982 -0.367855777
vt 0.76930207 0.305276901
vn -0.19815137 0.979984077 -0.0191636201
v -0.282645156 0.193126034 -0.371440837
vt 0.7694543 0.282868683
vn -0.259780724 0.965212364 -0.0296490682
v -0.286171531 0.200768303 -0.0917525653
vt 0.57778877 0.285816461
vn -0.19815137 0.979984077 -0.0191636201
v -0.240133189 0.204677982 -0.367855777
vt 0.76930207 0.305276901
vn -0.19815137 0.979984077 -0.0191636201
v -0.286171531 0.200768303 -0.0917525653
vt 0.57778877 0.285816461
vn -0.19815137 0.979984077 -0.0191636201
v -0.241896461 0.206859494 -0.0904833204
vt 0.578012526 0.305733413
vn -0.136043684 0.990665021 -0.00865633953
v -0.286171681 -0.116718892 -0.16174518
vt 0.627014399 0.153623208
vn -0.140147752 -0.99012924 -0.0016420627
v -0.282645373 -0.116690595 -0.371444013
vt 0.770709693 0.154580727
vn -0.144170194 -0.989549601 -0.00255790424
v -0.240133419 -0.122893552 -0.3678565
vt 0.772053838 0.131486744
vn -0.140147752 -0.99012924 -0.0016420627
v -0.286171681 -0.116718892 -0.16174518
vt 0.627014399 0.153623208
vn -0.140147752 -0.99012924 -0.0016420627
v -0.240133419 -0.122893552 -0.3678565
vt 0.772053838 0.131486744
vn -0.140147752 -0.99012924 -0.0016420627
v -0.241896648 -0.122804036 -0.163014327
vt 0.629511893 0.131531611
vn -0.136180409 -0.990683779 -0.00073928029
v -0.216801053 -0.0297503671 -0.501943309
vt 0.860688448 0.115554608
vn 0.79998095 -0.548992401 -0.242152477
v -0.216801266 -0.0879674285 -0.366331966
vt 0.775243938 0.117676914
vn 0.813987279 -0.533776268 -0.229145382
v -0.240133419 -0.122893552 -0.3678565
vt 0.772053838 0.131486744
vn 0.79998095 -0.548992401 -0.242152477
v -0.216801053 -0.0297503671 -0.501943309
vt 0.860688448 0.115554608
vn 0.79998095 -0.548992401 -0.242152477
v -0.240133419 -0.122893552 -0.3678565
vt 0.772053838 0.131486744
vn 0.79998095 -0.548992401 -0.242152477
v -0.230358274 -0.0479062658 -0.501943308
vt 0.858688533 0.135371417
vn 0.772346711 -0.576720284 -0.266222223
v -0.329731582 0.0987372815 -0.304193671
vt 0.963100016 0.117200002
vn -0.932831275 0.0297679638 -0.359081719
v -0.32973167 -0.0362012881 -0.314691139
vt 0.898400009 0.117299996
vn -0.930815068 0.0283480793 -0.364389483
v -0.347945725 -0.0560408254 -0.269707668
vt 0.898400009 0.151999995
vn -0.932831275 0.0297679638 -0.359081719
v -0.329731582 0.0987372815 -0.304193671
vt 0.963100016 0.117200002
vn -0.932831275 0.0297679638 -0.359081719
v -0.347945725 -0.0560408254 -0.269707668
vt 0.898400009 0.151999995
vn -0.932831275 0.0297679638 -0.359081719
v -0.347945646 0.111340409 -0.255143184
vt 0.963100016 0.151899993
vn -0.934391989 0.0308821303 -0.354905488
v -0.303226094 -0.0629932489 -0.0387467624
vt 0.879479647 0.318346083
vn 0.715227815 -0.698529133 -0.022499373
v -0.315991925 -0.0757116232 -0.0387467709
vt 0.88472259 0.318461388
vn 0.705620726 -0.708253639 -0.0218214064
v -0.315201686 -0.0676416064 -0.275120638
vt 0.884584665 0.147086129
vn 0.715227815 -0.698529133 -0.022499373
v -0.303226094 -0.0629932489 -0.0387467624
vt 0.879479647 0.318346083
vn 0.715227815 -0.698529133 -0.022499373
v -0.315201686 -0.0676416064 -0.275120638
vt 0.884584665 0.147086129
vn 0.715227815 -0.698529133 -0.022499373
v -0.303225794 -0.0549630299 -0.277100316
vt 0.879583299 0.144412473
vn 0.724959324 -0.68840114 -0.0231915777
v -0.303226094 -0.0629932489 -0.0387467624
vt 0.710046411 0.685020447
vn 0.0223340198 -0.158010374 0.987184843
v -0.30322604 0.125835009 -0.0067757116
vt 0.631492019 0.684401929
vn -0.118287248 -0.165764953 0.979045508
v -0.315991916 0.134944396 -0.00677573529
vt 0.625915349 0.678997755
vn 0.0474958552 -0.153814722 0.986957535
v -0.303226094 -0.0629932489 -0.0387467624
vt 0.710046411 0.685020447
vn 0.0223340198 -0.158010374 0.987184843
v -0.315991916 0.134944396 -0.00677573529
vt 0.625915349 0.678997755
vn 0.0474958552 -0.153814722 0.986957535
v -0.315991925 -0.0757116232 -0.0387467709
vt 0.716045141 0.678752303
vn 0.0477247459 -0.154847521 0.986784979
v -0.341006916 0.122944963 -0.00677574977
vt 0.627585649 0.666845679
vn 0.0480742674 -0.157221703 0.986392519
v -0.315991925 -0.0757116232 -0.0387467709
vt 0.716045141 0.678752303
vn 0.0477247459 -0.154847521 0.986784979
v -0.315991916 0.134944396 -0.00677573529
vt 0.625915349 0.678997755
vn 0.0474958552 -0.153814722 0.986957535
v -0.341006916 0.122944963 -0.00677574977
vt 0.627585649 0.666845679
vn 0.0480742674 -0.157221703 0.986392519
v -0.341006942 -0.0703481785 -0.0387468076
vt 0.715426266 0.666062891
vn -0.0143202561 -0.167098131 0.985836267
v -0.315991925 -0.0757116232 -0.0387467709
vt 0.716045141 0.678752303
vn 0.0477247459 -0.154847521 0.986784979
v -0.350557106 0.11136261 -0.00677574299
vt 0.629499972 0.66140002
vn 0.014299345 -0.172536369 0.98489935
v -0.341006942 -0.0703481785 -0.0387468076
vt 0.715426266 0.666062891
vn -0.0143202561 -0.167098131 0.985836267
v -0.341006916 0.122944963 -0.00677574977
vt 0.627585649 0.666845679
vn 0.0480742674 -0.157221703 0.986392519
v -0.350557106 0.11136261 -0.00677574299
vt 0.629499972 0.66140002
vn 0.014299345 -0.172536369 0.98489935
v -0.350557147 -0.060348796 -0.0387468111
vt 0.712499976 0.661199987
vn -0.18822868 -0.179773001 0.965531787
v -0.341006942 -0.0703481785 -0.0387468076
vt 0.715426266 0.666062891
vn -0.0143202561 -0.167098131 0.985836267
v -0.329731582 0.0987372815 -0.304193671
vt 0.963100016 0.117200002
vn -0.755919323 0.508769443 -0.411994697
v -0.347945646 0.111340409 -0.255143184
vt 0.963100016 0.151899993
vn -0.757183675 0.507280325 -0.411508874
v -0.339570412 0.12259066 -0.256685216
vt 0.967891693 0.150770769
vn -0.755919323 0.508769443 -0.411994697
v -0.329731582 0.0987372815 -0.304193671
vt 0.963100016 0.117200002
vn -0.755919323 0.508769443 -0.411994697
v -0.339570412 0.12259066 -0.256685216
vt 0.967891693 0.150770769
vn -0.755919323 0.508769443 -0.411994697
v -0.32141783 0.108924647 -0.306799079
vt 0.971068144 0.11836838
vn -0.754598046 0.51031957 -0.412499364
v -0.303225726 -0.0401563698 -0.322997624
vt 0.711799979 0.639599979
vn -0.305982752 0.0642542111 -0.949866281
v -0.311707232 -0.0449739265 -0.320339617
vt 0.715183258 0.643973649
vn -0.315471175 0.0634624328 -0.946810677
v -0.311707097 0.113930348 -0.309842221
vt 0.625053465 0.643921077
vn -0.314010556 0.0635254981 -0.947291867
v -0.303225726 -0.0401563698 -0.322997624
vt 0.711799979 0.639599979
vn -0.305982752 0.0642542111 -0.949866281
v -0.311707097 0.113930348 -0.309842221
vt 0.625053465 0.643921077
vn -0.314010556 0.0635254981 -0.947291867
v -0.303225656 0.111306075 -0.312500164
vt 0.628700018 0.639800012
vn -0.279622544 0.0663835585 -0.957812328
v -0.311707232 -0.0449739265 -0.320339617
vt 0.715183258 0.643973649
vn -0.315471175 0.0634624328 -0.946810677
v -0.32141783 0.108924647 -0.306799079
vt 0.62552774 0.649149895
vn -0.326909956 0.0640113377 -0.942885162
v -0.311707097 0.113930348 -0.309842221
vt 0.625053465 0.643921077
vn -0.314010556 0.0635254981 -0.947291867
v -0.311707232 -0.0449739265 -0.320339617
vt 0.715183258 0.643973649
vn -0.315471175 0.0634624328 -0.946810677
v -0.32141793 -0.0433987648 -0.317296539
vt 0.715000033 0.648749709
vn -0.301672124 0.0679871827 -0.950984581
v -0.32141783 0.108924647 -0.306799079
vt 0.62552774 0.649149895
vn -0.326909956 0.0640113377 -0.942885162
v -0.32141793 -0.0433987648 -0.317296539
vt 0.715000033 0.648749709
vn -0.301672124 0.0679871827 -0.950984581
v -0.329731582 0.0987372815 -0.304193671
vt 0.628799975 0.653699994
vn -0.309652402 0.0693094745 -0.948320403
v -0.32141783 0.108924647 -0.306799079
vt 0.62552774 0.649149895
vn -0.326909956 0.0640113377 -0.942885162
v -0.32141793 -0.0433987648 -0.317296539
vt 0.715000033 0.648749709
vn -0.301672124 0.0679871827 -0.950984581
v -0.32973167 -0.0362012881 -0.314691139
vt 0.711899996 0.653199971
vn -0.238231853 0.0753271531 -0.968282709
v -0.329731582 0.0987372815 -0.304193671
vt 0.628799975 0.653699994
vn -0.309652402 0.0693094745 -0.948320403
v -0.303225794 -0.0549630299 -0.277100316
vt 0.879583299 0.144412473
vn 0.5833051 -0.758826623 -0.289719377
v -0.315201686 -0.0676416064 -0.275120638
vt 0.884584665 0.147086129
vn 0.672927798 -0.680800319 -0.289273406
v -0.311707232 -0.0449739265 -0.320339617
vt 0.885576367 0.117903113
vn 0.5833051 -0.758826623 -0.289719377
v -0.303225794 -0.0549630299 -0.277100316
vt 0.879583299 0.144412473
vn 0.5833051 -0.758826623 -0.289719377
v -0.311707232 -0.0449739265 -0.320339617
vt 0.885576367 0.117903113
vn 0.5833051 -0.758826623 -0.289719377
v -0.303225726 -0.0401563698 -0.322997624
vt 0.879999995 0.117299996
vn 0.406071344 -0.869704928 -0.280569779
v -0.347945646 0.111340409 -0.255143184
vt 0.963100016 0.151899993
vn -0.999939671 0.00149378369 -0.0108822378
v -0.347945725 -0.0560408254 -0.269707668
vt 0.898400009 0.151999995
vn -0.999935809 0.000982658092 -0.011287719
v -0.350557147 -0.060348796 -0.0387468111
vt 0.898400009 0.318399996
vn -0.999939671 0.00149378369 -0.0108822378
v -0.347945646 0.111340409 -0.255143184
vt 0.963100016 0.151899993
vn -0.999939671 0.00149378369 -0.0108822378
v -0.350557147 -0.060348796 -0.0387468111
vt 0.898400009 0.318399996
vn -0.999939671 0.00149378369 -0.0108822378
v -0.350557106 0.11136261 -0.00677574299
vt 0.963100016 0.318300009
vn -0.999942809 0.00195786386 -0.0105140737
v -0.347945646 0.111340409 -0.255143184
vt 0.963100016 0.151899993
vn -0.786766994 0.61721201 -0.00685800634
v -0.350557106 0.11136261 -0.00677574299
vt 0.963100016 0.318300009
vn -0.771519216 0.636153572 -0.00816900185
v -0.341006916 0.122944963 -0.00677574977
vt 0.968034804 0.318284333
vn -0.786766994 0.61721201 -0.00685800634
v -0.347945646 0.111340409 -0.255143184
vt 0.963100016 0.151899993
vn -0.786766994 0.61721201 -0.00685800634
v -0.341006916 0.122944963 -0.00677574977
vt 0.968034804 0.318284333
vn -0.786766994 0.61721201 -0.00685800634
v -0.339570412 0.12259066 -0.256685216
vt 0.967891693 0.150770769
vn -0.802478587 0.596655948 -0.0054586182
v -0.303226094 -0.0629932489 -0.0387467624
vt 0.477821469 0.351225793
vn 1 -4.53556671e-07 1.21296359e-06
v -0.303225794 -0.0549630299 -0.277100316
vt 0.545623362 0.351177484
vn 1 -4.19613475e-07 1.24149296e-06
v -0.303225735 0.12580911 -0.26337683
vt 0.54550004 0.377468079
vn 1 -4.53556671e-07 1.21296359e-06
v -0.303226094 -0.0629932489 -0.0387467624
vt 0.477821469 0.351225793
vn 1 -4.53556671e-07 1.21296359e-06
v -0.303225735 0.12580911 -0.26337683
vt 0.54550004 0.377468079
vn 1 -4.53556671e-07 1.21296359e-06
v -0.30322604 0.125835009 -0.0067757116
vt 0.477532119 0.377573639
vn 1 -4.83818634e-07 1.1875283e-06
v -0.341006942 -0.0703481785 -0.0387468076
vt 0.89445895 0.318455368
vn -0.72076994 -0.692848079 -0.0212657506
v -0.350557147 -0.060348796 -0.0387468111
vt 0.898400009 0.318399996
vn -0.723002324 -0.690524682 -0.0210547552
v -0.347945725 -0.0560408254 -0.269707668
vt 0.898400009 0.151999995
vn -0.72076994 -0.692848079 -0.0212657506
v -0.341006942 -0.0703481785 -0.0387468076
vt 0.89445895 0.318455368
vn -0.72076994 -0.692848079 -0.0212657506
v -0.347945725 -0.0560408254 -0.269707668
vt 0.898400009 0.151999995
vn -0.72076994 -0.692848079 -0.0212657506
v -0.339570564 -0.0646467071 -0.271092215
vt 0.894578457 0.150963306
vn -0.718209499 -0.695494487 -0.0215066115
v -0.315201702 0.134959357 -0.261171917
vt 0.979557395 0.147120938
vn -0.485342691 0.786219952 -0.382492692
v -0.311707097 0.113930348 -0.309842221
vt 0.978623927 0.117822349
vn -0.514698396 0.772975929 -0.37093635
v -0.32141783 0.108924647 -0.306799079
vt 0.971068144 0.11836838
vn -0.485342691 0.786219952 -0.382492692
v -0.315201702 0.134959357 -0.261171917
vt 0.979557395 0.147120938
vn -0.485342691 0.786219952 -0.382492692
v -0.32141783 0.108924647 -0.306799079
vt 0.971068144 0.11836838
vn -0.485342691 0.786219952 -0.382492692
v -0.339570412 0.12259066 -0.256685216
vt 0.967891693 0.150770769
vn -0.47299256 0.791446278 -0.387157367
v -0.339570564 -0.0646467071 -0.271092215
vt 0.894578457 0.150963306
vn -0.651986301 -0.55925159 -0.512007347
v -0.347945725 -0.0560408254 -0.269707668
vt 0.898400009 0.151999995
vn -0.655751487 -0.556001773 -0.510736739
v -0.32973167 -0.0362012881 -0.314691139
vt 0.898400009 0.117299996
vn -0.651986301 -0.55925159 -0.512007347
v -0.339570564 -0.0646467071 -0.271092215
vt 0.894578457 0.150963306
vn -0.651986301 -0.55925159 -0.512007347
v -0.32973167 -0.0362012881 -0.314691139
vt 0.898400009 0.117299996
vn -0.651986301 -0.55925159 -0.512007347
v -0.32141793 -0.0433987648 -0.317296539
vt 0.892203867 0.118340552
vn -0.647991146 -0.562667795 -0.513334615
v -0.315991916 0.134944396 -0.00677573529
vt 0.979375243 0.318229675
vn -0.442689998 0.896671078 -0.00255801885
v -0.315201702 0.134959357 -0.261171917
vt 0.979557395 0.147120938
vn -0.452799696 0.891611239 -0.00135406534
v -0.339570412 0.12259066 -0.256685216
vt 0.967891693 0.150770769
vn -0.442689998 0.896671078 -0.00255801885
v -0.315991916 0.134944396 -0.00677573529
vt 0.979375243 0.318229675
vn -0.442689998 0.896671078 -0.00255801885
v -0.339570412 0.12259066 -0.256685216
vt 0.967891693 0.150770769
vn -0.442689998 0.896671078 -0.00255801885
v -0.341006916 0.122944963 -0.00677574977
vt 0.968034804 0.318284333
vn -0.432500463 0.901625854 -0.00376431121
v -0.315991925 -0.0757116232 -0.0387467709
vt 0.88472259 0.318461388
vn -0.169163782 -0.985138908 -0.0297480656
v -0.341006942 -0.0703481785 -0.0387468076
vt 0.89445895 0.318455368
vn -0.209577288 -0.977465196 -0.0252814213
v -0.339570564 -0.0646467071 -0.271092215
vt 0.894578457 0.150963306
vn -0.169163782 -0.985138908 -0.0297480656
v -0.315991925 -0.0757116232 -0.0387467709
vt 0.88472259 0.318461388
vn -0.169163782 -0.985138908 -0.0297480656
v -0.339570564 -0.0646467071 -0.271092215
vt 0.894578457 0.150963306
vn -0.169163782 -0.985138908 -0.0297480656
v -0.315201686 -0.0676416064 -0.275120638
vt 0.884584665 0.147086129
vn -0.12748782 -0.99124797 -0.0342683124
v -0.315201686 -0.0676416064 -0.275120638
vt 0.884584665 0.147086129
vn -0.211556907 -0.86050422 -0.463439491
v -0.339570564 -0.0646467071 -0.271092215
vt 0.894578457 0.150963306
vn -0.183735329 -0.863677439 -0.469364048
v -0.32141793 -0.0433987648 -0.317296539
vt 0.892203867 0.118340552
vn -0.211556907 -0.86050422 -0.463439491
v -0.315201686 -0.0676416064 -0.275120638
vt 0.884584665 0.147086129
vn -0.211556907 -0.86050422 -0.463439491
v -0.32141793 -0.0433987648 -0.317296539
vt 0.892203867 0.118340552
vn -0.211556907 -0.86050422 -0.463439491
v -0.311707232 -0.0449739265 -0.320339617
vt 0.885576367 0.117903113
vn -0.27811256 -0.849916332 -0.447544
v -0.303225735 0.12580911 -0.26337683
vt 0.984628439 0.144648761
vn 0.422618268 0.856566833 -0.29612001
v -0.303225656 0.111306075 -0.312500164
vt 0.984399974 0.1171
vn 0.203655418 0.938974747 -0.27721994
v -0.311707097 0.113930348 -0.309842221
vt 0.978623927 0.117822349
vn 0.422618268 0.856566833 -0.29612001
v -0.303225735 0.12580911 -0.26337683
vt 0.984628439 0.144648761
vn 0.422618268 0.856566833 -0.29612001
v -0.311707097 0.113930348 -0.309842221
vt 0.978623927 0.117822349
vn 0.422618268 0.856566833 -0.29612001
v -0.315201702 0.134959357 -0.261171917
vt 0.979557395 0.147120938
vn 0.54377509 0.783908524 -0.299659936
v -0.30322604 0.125835009 -0.0067757116
vt 0.984651029 0.318200409
vn 0.593857698 0.804569588 0.000901483559
v -0.303225735 0.12580911 -0.26337683
vt 0.984628439 0.144648761
vn 0.607112343 0.794616006 -7.94787354e-05
v -0.315201702 0.134959357 -0.261171917
vt 0.979557395 0.147120938
vn 0.593857698 0.804569588 0.000901483559
v -0.30322604 0.125835009 -0.0067757116
vt 0.984651029 0.318200409
vn 0.593857698 0.804569588 0.000901483559
v -0.315201702 0.134959357 -0.261171917
vt 0.979557395 0.147120938
vn 0.593857698 0.804569588 0.000901483559
v -0.315991916 0.134944396 -0.00677573529
vt 0.979375243 0.318229675
vn 0.58085309 0.8140063 0.001852137
v -0.223523235 -0.100679864 -0.165643562
vt 0.502600014 0.208900005
vn 0.547380908 -0.835760355 -0.043344792
v -0.223522883 -0.0775700497 -0.424198156
vt 0.587400019 0.208900005
vn 0.489880473 -0.868328064 -0.0776111846
v -0.138415143 -0.0342575136 -0.371588093
vt 0.567399979 0.217999995
vn 0.547380908 -0.835760355 -0.043344792
v -0.223523235 -0.100679864 -0.165643562
vt 0.502600014 0.208900005
vn 0.547380908 -0.835760355 -0.043344792
v -0.138415143 -0.0342575136 -0.371588093
vt 0.567399979 0.217999995
vn 0.547380908 -0.835760355 -0.043344792
v -0.138415405 -0.0342572853 -0.184558824
vt 0.520799994 0.217999995
vn 0.615253586 -0.788329262 1.82585558e-06
v -0.223522723 0.149917261 -0.424198394
vt 0.390700012 0.0710999966
vn 0.592572514 0.803513237 -0.056782867
v -0.223523144 0.173026436 -0.0971934403
vt 0.310699999 0.0710999966
vn 0.592572514 0.803513237 -0.056782867
v -0.138415373 0.106605005 -0.148933935
vt 0.310699999 0.0489999987
vn 0.541628873 0.839875791 -0.0353103434
v -0.223522723 0.149917261 -0.424198394
vt 0.390700012 0.0710999966
vn 0.453558288 0.891226615 -3.93748115e-07
v -0.138415373 0.106605005 -0.148933935
vt 0.310699999 0.0489999987
vn 0.541628873 0.839875791 -0.0353103434
v -0.138415059 0.106604746 -0.371588196
vt 0.390700012 0.0489999987
vn 0.453558288 0.891226615 -3.93748115e-07
v -0.138415373 0.106605005 -0.148933935
vt 0.310699999 0.0489999987
vn 0.37347251 -0.225870212 0.899722697
v -0.223523144 0.173026436 -0.0971934403
vt 0.310699999 0.0710999966
vn 0.371736108 -0.225228181 0.900602317
v -0.223523235 -0.100679864 -0.165643562
vt 0.260899991 0.0710999966
vn 0.37347251 -0.225870212 0.899722697
v -0.138415373 0.106605005 -0.148933935
vt 0.310699999 0.0489999987
vn 0.37347251 -0.225870212 0.899722697
v -0.223523235 -0.100679864 -0.165643562
vt 0.260899991 0.0710999966
vn 0.37347251 -0.225870212 0.899722697
v -0.138415405 -0.0342572853 -0.184558824
vt 0.260899991 0.0489999987
vn 0.376832286 -0.227111433 0.898007698
v -0.138415059 0.106604746 -0.371588196
vt 0.575500011 0.432399988
vn 1 -5.90771141e-07 1.40702919e-06
v -0.138415373 0.106605005 -0.148933935
vt 0.5255 0.432399988
vn 1 -5.86908482e-07 1.40993837e-06
v -0.138415405 -0.0342572853 -0.184558824
vt 0.5255 0.416700006
vn 1 -5.90771141e-07 1.40702919e-06
v -0.138415059 0.106604746 -0.371588196
vt 0.575500011 0.432399988
vn 1 -5.90771141e-07 1.40702919e-06
v -0.138415405 -0.0342572853 -0.184558824
vt 0.5255 0.416700006
vn 1 -5.90771141e-07 1.40702919e-06
v -0.138415143 -0.0342575136 -0.371588093
vt 0.575500011 0.416599989
vn 1 -5.95369551e-07 1.40356587e-06
v -0.138415143 -0.0342575136 -0.371588093
vt 0.43779999 0.0489999987
vn 0.525808334 -1.13684031e-06 -0.850603077
v -0.223522883 -0.0775700497 -0.424198156
vt 0.43779999 0.0710999966
vn 0.525808142 -1.25974774e-06 -0.850603196
v -0.223522723 0.149917261 -0.424198394
vt 0.390700012 0.0710999966
vn 0.525808334 -1.13684031e-06 -0.850603077
v -0.138415143 -0.0342575136 -0.371588093
vt 0.43779999 0.0489999987
vn 0.525808334 -1.13684031e-06 -0.850603077
v -0.223522723 0.149917261 -0.424198394
vt 0.390700012 0.0710999966
vn 0.525808334 -1.13684031e-06 -0.850603077
v -0.138415059 0.106604746 -0.371588196
vt 0.390700012 0.0489999987
vn 0.525808645 -9.3834942e-07 -0.850602885
v -0.0998453155 0.11010396 -0.298001241
vt 0.612100005 0.324400008
vn -0.58467113 0.811270196 0.000581742866
v -0.141510475 0.0801734327 -0.331289667
vt 0.612100005 0.344099998
vn -0.584062955 0.811707462 0.0012089277
v -0.141314984 0.080173549 -0.236921397
vt 0.561100006 0.344099998
vn -0.58467113 0.811270196 0.000581742866
v -0.0998453155 0.11010396 -0.298001241
vt 0.612100005 0.324400008
vn -0.58467113 0.811270196 0.000581742866
v -0.141314984 0.080173549 -0.236921397
vt 0.561100006 0.344099998
vn -0.58467113 0.811270196 0.000581742866
v -0.0998454516 0.110104103 -0.196392796
vt 0.561100006 0.324400008
vn -0.585236603 0.810862577 -1.92229754e-06
v -0.0998454516 0.110104103 -0.196392796
vt 0.561100006 0.324400008
vn -0.698947207 1.3132008e-06 0.715173267
v -0.141314984 0.080173549 -0.236921397
vt 0.561100006 0.344099998
vn -0.698947166 1.2878222e-06 0.715173307
v -0.141315055 -0.0205248699 -0.236921285
vt 0.534399986 0.344099998
vn -0.698947207 1.3132008e-06 0.715173267
v -0.0998454516 0.110104103 -0.196392796
vt 0.561100006 0.324400008
vn -0.698947207 1.3132008e-06 0.715173267
v -0.141315055 -0.0205248699 -0.236921285
vt 0.534399986 0.344099998
vn -0.698947207 1.3132008e-06 0.715173267
v -0.0998455642 -0.0504553651 -0.196392608
vt 0.534399986 0.324400008
vn -0.698947233 1.32911755e-06 0.715173242
v -0.141510475 0.0801734327 -0.331289667
vt 0.612100005 0.344099998
vn 0.624195691 -1.34581908e-06 -0.781268033
v -0.0998453155 0.11010396 -0.298001241
vt 0.612100005 0.324400008
vn 0.624195813 -1.28174021e-06 -0.781267935
v -0.0998454281 -0.050455489 -0.298001068
vt 0.648100019 0.324400008
vn 0.624195691 -1.34581908e-06 -0.781268033
v -0.141510475 0.0801734327 -0.331289667
vt 0.612100005 0.344099998
vn 0.624195691 -1.34581908e-06 -0.781268033
v -0.0998454281 -0.050455489 -0.298001068
vt 0.648100019 0.324400008
vn 0.624195691 -1.34581908e-06 -0.781268033
v -0.14151053 -0.0205249844 -0.331289525
vt 0.648100019 0.344099998
vn 0.624195495 -1.44799026e-06 -0.781268189
v -0.141315055 -0.0205248699 -0.236921285
vt 0.614899993 0.428299993
vn -0.58467224 -0.811269395 0.000583758485
v -0.14151053 -0.0205249844 -0.331289525
vt 0.590200007 0.428299993
vn -0.584064183 -0.811706575 0.00121082351
v -0.0998454281 -0.050455489 -0.298001068
vt 0.590200007 0.416299999
vn -0.58467224 -0.811269395 0.000583758485
v -0.141315055 -0.0205248699 -0.236921285
vt 0.614899993 0.428299993
vn -0.58467224 -0.811269395 0.000583758485
v -0.0998454281 -0.050455489 -0.298001068
vt 0.590200007 0.416299999
vn -0.58467224 -0.811269395 0.000583758485
v -0.0998455642 -0.0504553651 -0.196392608
vt 0.614899993 0.416299999
vn -0.585237603 -0.810861855 2.05099894e-07
v -0.09984543985 0.029824302225 -0.24719692825
vt 0.612100005 0.324400008
vn 0.999999999999 -7.01296325003e-07 1.33945641567e-06
v -0.0998453155 0.11010396 -0.298001241
vt 0.612100005 0.324400008
vn 0.999999999999 -7.01296325003e-07 1.33945641567e-06
v -0.0998454516 0.110104103 -0.196392796
vt 0.612100005 0.324400008
vn 0.999999999999 -7.01296325003e-07 1.33945641567e-06
v -0.09984543985 0.029824302225 -0.24719692825
vt 0.612100005 0.324400008
vn 0.999999999999 -7.01296325003e-07 1.33945641567e-06
v -0.0998454516 0.110104103 -0.196392796
vt 0.612100005 0.324400008
vn 0.999999999999 -7.01296325003e-07 1.33945641567e-06
v -0.0998455642 -0.0504553651 -0.196392608
vt 0.612100005 0.324400008
vn 0.999999999999 -7.01296325003e-07 1.33945641567e-06
v -0.09984543985 0.029824302225 -0.24719692825
vt 0.612100005 0.324400008
vn 0.999999999999 -7.01296325003e-07 1.33945641567e-06
v -0.0998455642 -0.0504553651 -0.196392608
vt 0.612100005 0.324400008
vn 0.999999999999 -7.01296325003e-07 1.33945641567e-06
v -0.0998454281 -0.050455489 -0.298001068
vt 0.612100005 0.324400008
vn 0.999999999999 -7.01296325003e-07 1.33945641567e-06
v -0.09984543985 0.029824302225 -0.24719692825
vt 0.612100005 0.324400008
vn 0.999999999999 -7.01296325003e-07 1.33945641567e-06
v -0.0998454281 -0.050455489 -0.298001068
vt 0.612100005 0.324400008
vn 0.999999999999 -7.01296325003e-07 1.33945641567e-06
v -0.0998453155 0.11010396 -0.298001241
vt 0.612100005 0.324400008
vn 0.999999999999 -7.01296325003e-07 1.33945641567e-06
v -0.141412761 0.02982428185 -0.2841054685
vt 0.561100006 0.344099998
vn -0.999997854469 6.28241683309e-07 0.00207148665102
v -0.141314984 0.080173549 -0.236921397
vt 0.561100006 0.344099998
vn -0.999997854469 6.28241683309e-07 0.00207148665102
v -0.141510475 0.0801734327 -0.331289667
vt 0.561100006 0.344099998
vn -0.999997854469 6.28241683309e-07 0.00207148665102
v -0.141412761 0.02982428185 -0.2841054685
vt 0.561100006 0.344099998
vn -0.999997854469 6.28241683309e-07 0.00207148665102
v -0.141510475 0.0801734327 -0.331289667
vt 0.561100006 0.344099998
vn -0.999997854469 6.28241683309e-07 0.00207148665102
v -0.14151053 -0.0205249844 -0.331289525
vt 0.561100006 0.344099998
vn -0.999997854469 6.28241683309e-07 0.00207148665102
v -0.141412761 0.02982428185 -0.2841054685
vt 0.561100006 0.344099998
vn -0.999997854469 6.28241683309e-07 0.00207148665102
v -0.14151053 -0.0205249844 -0.331289525
vt 0.561100006 0.344099998
vn -0.999997854469 6.28241683309e-07 0.00207148665102
v -0.141315055 -0.0205248699 -0.236921285
vt 0.561100006 0.344099998
vn -0.999997854469 6.28241683309e-07 0.00207148665102
v -0.141412761 0.02982428185 -0.2841054685
vt 0.561100006 0.344099998
vn -0.999997854469 6.28241683309e-07 0.00207148665102
v -0.141315055 -0.0205248699 -0.236921285
vt 0.561100006 0.344099998
vn -0.999997854469 6.28241683309e-07 0.00207148665102
v -0.141314984 0.080173549 -0.236921397
vt 0.561100006 0.344099998
vn -0.999997854469 6.28241683309e-07 0.00207148665102
v -0.22352299625 0.036173445825 -0.277808388075
vt 0.260899991 0.0710999966
vn -0.999999999999 6.81096018333e-07 -1.32010410827e-06
v -0.223523235 -0.100679864 -0.165643562
vt 0.260899991 0.0710999966
vn -0.999999999999 6.81096018333e-07 -1.32010410827e-06
v -0.223523144 0.173026436 -0.0971934403
vt 0.260899991 0.0710999966
vn -0.999999999999 6.81096018333e-07 -1.32010410827e-06
v -0.22352299625 0.036173445825 -0.277808388075
vt 0.260899991 0.0710999966
vn -0.999999999999 6.81096018333e-07 -1.32010410827e-06
v -0.223523144 0.173026436 -0.0971934403
vt 0.260899991 0.0710999966
vn -0.999999999999 6.81096018333e-07 -1.32010410827e-06
v -0.223522723 0.149917261 -0.424198394
vt 0.260899991 0.0710999966
vn -0.999999999999 6.81096018333e-07 -1.32010410827e-06
v -0.22352299625 0.036173445825 -0.277808388075
vt 0.260899991 0.0710999966
vn -0.999999999999 6.81096018333e-07 -1.32010410827e-06
v -0.223522723 0.149917261 -0.424198394
vt 0.260899991 0.0710999966
vn -0.999999999999 6.81096018333e-07 -1.32010410827e-06
v -0.223522883 -0.0775700497 -0.424198156
vt 0.260899991 0.0710999966
vn -0.999999999999 6.81096018333e-07 -1.32010410827e-06
v -0.22352299625 0.036173445825 -0.277808388075
vt 0.260899991 0.0710999966
vn -0.999999999999 6.81096018333e-07 -1.32010410827e-06
v -0.223522883 -0.0775700497 -0.424198156
vt 0.260899991 0.0710999966
vn -0.999999999999 6.81096018333e-07 -1.32010410827e-06
v -0.223523235 -0.100679864 -0.165643562
vt 0.260899991 0.0710999966
vn -0.999999999999 6.81096018333e-07 -1.32010410827e-06
v -0.30322572775 0.035498946325 -0.2939937335
vt 0.879583299 0.144412473
vn 0.999999999999 -5.00946687207e-07 1.54543157073e-06
v -0.303225794 -0.0549630299 -0.277100316
vt 0.879583299 0.144412473
vn 0.999999999999 -5.00946687207e-07 1.54543157073e-06
v -0.303225726 -0.0401563698 -0.322997624
vt 0.879583299 0.144412473
vn 0.999999999999 -5.00946687207e-07 1.54543157073e-06
v -0.30322572775 0.035498946325 -0.2939937335
vt 0.879583299 0.144412473
vn 0.999999999999 -5.00946687207e-07 1.54543157073e-06
v -0.303225726 -0.0401563698 -0.322997624
vt 0.879583299 0.144412473
vn 0.999999999999 -5.00946687207e-07 1.54543157073e-06
v -0.303225656 0.111306075 -0.312500164
vt 0.879583299 0.144412473
vn 0.999999999999 -5.00946687207e-07 1.54543157073e-06
v -0.30322572775 0.035498946325 -0.2939937335
vt 0.879583299 0.144412473
vn 0.999999999999 -5.00946687207e-07 1.54543157073e-06
v -0.303225656 0.111306075 -0.312500164
vt 0.879583299 0.144412473
vn 0.999999999999 -5.00946687207e-07 1.54543157073e-06
v -0.303225735 0.12580911 -0.26337683
vt 0.879583299 0.144412473
vn 0.999999999999 -5.00946687207e-07 1.54543157073e-06
v -0.30322572775 0.035498946325 -0.2939937335
vt 0.879583299 0.144412473
vn 0.999999999999 -5.00946687207e-07 1.54543157073e-06
v -0.303225735 0.12580911 -0.26337683
vt 0.879583299 0.144412473
vn 0.999999999999 -5.00946687207e-07 1.54543157073e-06
v -0.303225794 -0.0549630299 -0.277100316
vt 0.879583299 0.144412473
vn 0.999999999999 -5.00946687207e-07 1.54543157073e-06
usemtl _HotWing-Material_25__7
f 1/1/1 2/2/2 3/3/3
f 4/4/4 5/5/5 6/6/6
f 7/7/7 8/8/8 9/9/9
f 10/10/10 11/11/11 12/12/12
f 13/13/13 14/14/14 15/15/15
f 16/16/16 17/17/17 18/18/18
f 19/19/19 20/20/20 21/21/21
f 22/22/22 23/23/23 24/24/24
f 25/25/25 26/26/26 27/27/27
f 28/28/28 29/29/29 30/30/30
f 31/31/31 32/32/32 33/33/33
f 34/34/34 35/35/35 36/36/36
f 37/37/37 38/38/38 39/39/39
f 40/40/40 41/41/41 42/42/42
f 43/43/43 44/44/44 45/45/45
f 46/46/46 47/47/47 48/48/48
f 49/49/49 50/50/50 51/51/51
f 52/52/52 53/53/53 54/54/54
f 55/55/55 56/56/56 57/57/57
f 58/58/58 59/59/59 60/60/60
f 61/61/61 62/62/62 63/63/63
f 64/64/64 65/65/65 66/66/66
f 67/67/67 68/68/68 69/69/69
f 70/70/70 71/71/71 72/72/72
f 73/73/73 74/74/74 75/75/75
f 76/76/76 77/77/77 78/78/78
f 79/79/79 80/80/80 81/81/81
f 82/82/82 83/83/83 84/84/84
f 85/85/85 86/86/86 87/87/87
f 88/88/88 89/89/89 90/90/90
f 91/91/91 92/92/92 93/93/93
f 94/94/94 95/95/95 96/96/96
f 97/97/97 98/98/98 99/99/99
f 100/100/100 101/101/101 102/102/102
f 103/103/103 104/104/104 105/105/105
f 106/106/106 107/107/107 108/108/108
f 109/109/109 110/110/110 111/111/111
f 112/112/112 113/113/113 114/114/114
f 115/115/115 116/116/116 117/117/117
f 118/118/118 119/119/119 120/120/120
f 121/121/121 122/122/122 123/123/123
f 124/124/124 125/125/125 126/126/126
f 127/127/127 128/128/128 129/129/129
f 130/130/130 131/131/131 132/132/132
f 133/133/133 134/134/134 135/135/135
f 136/136/136 137/137/137 138/138/138
f 139/139/139 140/140/140 141/141/141
f 142/142/142 143/143/143 144/144/144
f 145/145/145 146/146/146 147/147/147
f 148/148/148 149/149/149 150/150/150
f 151/151/151 152/152/152 153/153/153
f 154/154/154 155/155/155 156/156/156
f 157/157/157 158/158/158 159/159/159
f 160/160/160 161/161/161 162/162/162
f 163/163/163 164/164/164 165/165/165
f 166/166/166 167/167/167 168/168/168
f 169/169/169 170/170/170 171/171/171
f 172/172/172 173/173/173 174/174/174
f 175/175/175 176/176/176 177/177/177
f 178/178/178 179/179/179 180/180/180
f 181/181/181 182/182/182 183/183/183
f 184/184/184 185/185/185 186/186/186
f 187/187/187 188/188/188 189/189/189
f 190/190/190 191/191/191 192/192/192
f 193/193/193 194/194/194 195/195/195
f 196/196/196 197/197/197 198/198/198
f 199/199/199 200/200/200 201/201/201
f 202/202/202 203/203/203 204/204/204
f 205/205/205 206/206/206 207/207/207
f 208/208/208 209/209/209 210/210/210
f 211/211/211 212/212/212 213/213/213
f 214/214/214 215/215/215 216/216/216
f 217/217/217 218/218/218 219/219/219
f 220/220/220 221/221/221 222/222/222
f 223/223/223 224/224/224 225/225/225
f 226/226/226 227/227/227 228/228/228
f 229/229/229 230/230/230 231/231/231
f 232/232/232 233/233/233 234/234/234
f 235/235/235 236/236/236 237/237/237
f 238/238/238 239/239/239 240/240/240
f 241/241/241 242/242/242 243/243/243
f 244/244/244 245/245/245 246/246/246
f 247/247/247 248/248/248 249/249/249
f 250/250/250 251/251/251 252/252/252
f 253/253/253 254/254/254 255/255/255
f 256/256/256 257/257/257 258/258/258
f 259/259/259 260/260/260 261/261/261
f 262/262/262 263/263/263 264/264/264
f 265/265/265 266/266/266 267/267/267
f 268/268/268 269/269/269 270/270/270
f 271/271/271 272/272/272 273/273/273
f 274/274/274 275/275/275 276/276/276
f 277/277/277 278/278/278 279/279/279
f 280/280/280 281/281/281 282/282/282
f 283/283/283 284/284/284 285/285/285
f 286/286/286 287/287/287 288/288/288
f 289/289/289 290/290/290 291/291/291
f 292/292/292 293/293/293 294/294/294
f 295/295/295 296/296/296 297/297/297
f 298/298/298 299/299/299 300/300/300
f 301/301/301 302/302/302 303/303/303
f 304/304/304 305/305/305 306/306/306
f 307/307/307 308/308/308 309/309/309
f 310/310/310 311/311/311 312/312/312
f 313/313/313 314/314/314 315/315/315
f 316/316/316 317/317/317 318/318/318
f 319/319/319 320/320/320 321/321/321
f 322/322/322 323/323/323 324/324/324
f 325/325/325 326/326/326 327/327/327
f 328/328/328 329/329/329 330/330/330
f 331/331/331 332/332/332 333/333/333
f 334/334/334 335/335/335 336/336/336
f 337/337/337 338/338/338 339/339/339
f 340/340/340 341/341/341 342/342/342
f 343/343/343 344/344/344 345/345/345
f 346/346/346 347/347/347 348/348/348
f 349/349/349 350/350/350 351/351/351
f 352/352/352 353/353/353 354/354/354
f 355/355/355 356/356/356 357/357/357
f 358/358/358 359/359/359 360/360/360
