# Generated by tools/yaml_mesh_converter/split_reload_parts.py
mtllib gun43.mtl
o gun43_reload
v -0.0483296609 -0.0770620898 -0.244973159
vt 0.919081271 0.531918526
vn -0.0863902122 -0.995213119 -0.0456900241
v -0.046378492 -0.0694687662 -0.414059021
vt 0.904465795 0.531918526
vn -0.0863902122 -0.995213119 -0.0456900241
v 0.0426476305 -0.0772279105 -0.413380174
vt 0.904465795 0.507078409
vn -0.0863902122 -0.995213119 -0.0456900241
v -0.0483296609 -0.0770620898 -0.244973159
vt 0.919081271 0.531918526
vn -0.0863902122 -0.995213119 -0.0456900241
v 0.0426476305 -0.0772279105 -0.413380174
vt 0.904465795 0.507078409
vn -0.0863902122 -0.995213119 -0.0456900241
v 0.0406964839 -0.0848212359 -0.244294312
vt 0.919081271 0.507078409
vn -0.0863902122 -0.995213119 -0.0456900241
v 0.0538536734 0.0572360858 -0.346059106
vt 0.467616439 0.677295744
vn 0.99619468 -0.0868242785 0.00759639208
v 0.0514471751 0.0340096694 -0.295941584
vt 0.435174227 0.656861126
vn 0.996194647 -0.0868246463 0.0075963923
v 0.0493989121 -0.00372093132 -0.45858114
vt 0.550359964 0.645070493
vn 0.996194656 -0.0868245508 0.00759639539
v 0.0514471751 0.0340096694 -0.295941584
vt 0.435174227 0.656861126
vn 0.996194647 -0.0868246463 0.0075963923
v 0.0475027929 -0.0231915173 -0.432466156
vt 0.534100533 0.629334509
vn 0.996194643 -0.0868246945 0.00759645741
v 0.0493989121 -0.00372093132 -0.45858114
vt 0.550359964 0.645070493
vn 0.996194656 -0.0868245508 0.00759639539
v 0.0514471751 0.0340096694 -0.295941584
vt 0.435174227 0.656861126
vn 0.996194647 -0.0868246463 0.0075963923
v 0.0436381563 -0.067196043 -0.42861626
vt 0.535305917 0.598609149
vn 0.996194644 -0.0868246914 0.00759638038
v 0.0475027929 -0.0231915173 -0.432466156
vt 0.534100533 0.629334509
vn 0.996194643 -0.0868246945 0.00759645741
v 0.0514471751 0.0340096694 -0.295941584
vt 0.435174227 0.656861126
vn 0.996194647 -0.0868246463 0.0075963923
v 0.0414053874 -0.0737050779 -0.210205182
vt 0.385628879 0.574958384
vn 0.996194649 -0.0868246359 0.00759635379
v 0.0436381563 -0.067196043 -0.42861626
vt 0.535305917 0.598609149
vn 0.996194644 -0.0868246914 0.00759638038
v 0.0436381563 -0.067196043 -0.42861626
vt 0.535305917 0.598609149
vn 0.996194644 -0.0868246914 0.00759638038
v 0.0414053874 -0.0737050779 -0.210205182
vt 0.385628879 0.574958384
vn 0.996194649 -0.0868246359 0.00759635379
v 0.0406964839 -0.0848212359 -0.244294312
vt 0.410052687 0.570271909
vn 0.996194621 -0.0868249523 0.00759633695
v 0.0436381563 -0.067196043 -0.42861626
vt 0.535305917 0.598609149
vn 0.996194644 -0.0868246914 0.00759638038
v 0.0406964839 -0.0848212359 -0.244294312
vt 0.410052687 0.570271909
vn 0.996194621 -0.0868249523 0.00759633695
v 0.0426476305 -0.0772279105 -0.413380174
vt 0.52570343 0.590345323
vn 0.996194606 -0.0868251324 0.00759631948
v 0.0538536734 0.0572360858 -0.346059106
vt 0.937406957 0.507078469
vn 0.0755100979 0.903323655 0.422261293
v -0.0351725933 0.0649952501 -0.346737954
vt 0.937406957 0.531918585
vn 0.0755101314 0.903323627 0.422261346
v -0.0375790662 0.041768824 -0.296620431
vt 0.932632923 0.531918585
vn 0.0755100979 0.903323655 0.422261293
v 0.0538536734 0.0572360858 -0.346059106
vt 0.937406957 0.507078469
vn 0.0755100979 0.903323655 0.422261293
v -0.0375790662 0.041768824 -0.296620431
vt 0.932632923 0.531918585
vn 0.0755100979 0.903323655 0.422261293
v 0.0514471751 0.0340096694 -0.295941584
vt 0.932632923 0.507078469
vn 0.0755100645 0.903323683 0.42226124
v 0.0514471751 0.0340096694 -0.295941584
vt 0.932632923 0.507078469
vn 0.0480001438 0.619303724 0.783682897
v -0.0375790662 0.041768824 -0.296620431
vt 0.932632923 0.531918585
vn 0.0480001438 0.619303724 0.783682897
v -0.0476207685 -0.0659459307 -0.210884029
vt 0.921977878 0.531918526
vn 0.0480001438 0.619303724 0.783682897
v 0.0514471751 0.0340096694 -0.295941584
vt 0.932632923 0.507078469
vn 0.0480001438 0.619303724 0.783682897
v -0.0476207685 -0.0659459307 -0.210884029
vt 0.921977878 0.531918526
vn 0.0480001438 0.619303724 0.783682897
v 0.0414053874 -0.0737050779 -0.210205182
vt 0.921977878 0.507078409
vn 0.0480001438 0.619303724 0.783682897
v 0.0414053874 -0.0737050779 -0.210205182
vt 0.921977878 0.507078409
vn -0.0848846473 -0.946775684 0.310500244
v -0.0476207685 -0.0659459307 -0.210884029
vt 0.921977878 0.531918526
vn -0.0848846473 -0.946775684 0.310500244
v -0.0483296609 -0.0770620898 -0.244973159
vt 0.919081271 0.531918526
vn -0.0848846473 -0.946775684 0.310500244
v 0.0414053874 -0.0737050779 -0.210205182
vt 0.921977878 0.507078409
vn -0.0848846473 -0.946775684 0.310500244
v -0.0483296609 -0.0770620898 -0.244973159
vt 0.919081271 0.531918526
vn -0.0848846473 -0.946775684 0.310500244
v 0.0406964839 -0.0848212359 -0.244294312
vt 0.919081271 0.507078409
vn -0.0848846473 -0.946775684 0.310500244
v 0.0436381563 -0.067196043 -0.42861626
vt 0.903111815 0.507078409
vn -0.0682387239 -0.831222237 -0.551736413
v 0.0426476305 -0.0772279105 -0.413380174
vt 0.904465795 0.507078409
vn -0.0682387239 -0.831222237 -0.551736413
v -0.046378492 -0.0694687662 -0.414059021
vt 0.904465795 0.531918526
vn -0.0682387239 -0.831222237 -0.551736413
v 0.0436381563 -0.067196043 -0.42861626
vt 0.903111815 0.507078409
vn -0.0682387239 -0.831222237 -0.551736413
v -0.046378492 -0.0694687662 -0.414059021
vt 0.904465795 0.531918526
vn -0.0682387239 -0.831222237 -0.551736413
v -0.0453879885 -0.0594368969 -0.429295107
vt 0.903111815 0.531918526
vn -0.0682387239 -0.831222237 -0.551736413
v 0.0475027929 -0.0231915173 -0.432466156
vt 0.899283111 0.507078409
vn 1.03895377e-07 -0.0871557242 -0.9961947
v 0.0436381563 -0.067196043 -0.42861626
vt 0.903111815 0.507078409
vn 1.03895377e-07 -0.0871557242 -0.9961947
v -0.0453879885 -0.0594368969 -0.429295107
vt 0.903111815 0.531918526
vn 1.03895377e-07 -0.0871557242 -0.9961947
v 0.0475027929 -0.0231915173 -0.432466156
vt 0.899283111 0.507078409
vn 1.03895377e-07 -0.0871557242 -0.9961947
v -0.0453879885 -0.0594368969 -0.429295107
vt 0.903111815 0.531918526
vn 1.03895377e-07 -0.0871557242 -0.9961947
v -0.0415234113 -0.015432366 -0.433145003
vt 0.899283111 0.531918406
vn 1.03895377e-07 -0.0871557242 -0.9961947
v 0.0493989121 -0.00372093132 -0.45858114
vt 0.896465719 0.507078409
vn -0.0649564135 -0.79774245 -0.599489489
v 0.0475027929 -0.0231915173 -0.432466156
vt 0.899283111 0.507078409
vn -0.0649565997 -0.797742067 -0.599489978
v -0.0415234113 -0.015432366 -0.433145003
vt 0.899283111 0.531918406
vn -0.0649564135 -0.79774245 -0.599489489
v 0.0493989121 -0.00372093132 -0.45858114
vt 0.896465719 0.507078409
vn -0.0649564135 -0.79774245 -0.599489489
v -0.0415234113 -0.015432366 -0.433145003
vt 0.899283111 0.531918406
vn -0.0649564135 -0.79774245 -0.599489489
v -0.0396272958 0.00403821515 -0.459260046
vt 0.896465719 0.531918406
vn -0.0649562274 -0.797742833 -0.599489
v -0.0351725933 0.0649952501 -0.346737954
vt 0.467616439 0.677295744
vn -0.9961947 0.0868240475 -0.0075964024
v -0.0396272958 0.00403821515 -0.459260046
vt 0.550359964 0.645070493
vn -0.996194719 0.0868238266 -0.00759640375
v -0.0375790662 0.041768824 -0.296620431
vt 0.435174227 0.656861126
vn -0.996194726 0.0868237469 -0.00759640055
v -0.0375790662 0.041768824 -0.296620431
vt 0.435174227 0.656861126
vn -0.996194726 0.0868237469 -0.00759640055
v -0.0396272958 0.00403821515 -0.459260046
vt 0.550359964 0.645070493
vn -0.996194719 0.0868238266 -0.00759640375
v -0.0415234113 -0.015432366 -0.433145003
vt 0.534100533 0.629334509
vn -0.996194725 0.0868237611 -0.00759633685
v -0.0375790662 0.041768824 -0.296620431
vt 0.435174227 0.656861126
vn -0.996194726 0.0868237469 -0.00759640055
v -0.0415234113 -0.015432366 -0.433145003
vt 0.534100533 0.629334509
vn -0.996194725 0.0868237611 -0.00759633685
v -0.0453879885 -0.0594368969 -0.429295107
vt 0.535305917 0.598609149
vn -0.996194732 0.0868236779 -0.00759639847
v -0.0375790662 0.041768824 -0.296620431
vt 0.435174227 0.656861126
vn -0.996194726 0.0868237469 -0.00759640055
v -0.0453879885 -0.0594368969 -0.429295107
vt 0.535305917 0.598609149
vn -0.996194732 0.0868236779 -0.00759639847
v -0.0476207685 -0.0659459307 -0.210884029
vt 0.385628879 0.574958384
vn -0.996194721 0.0868237939 -0.00759643079
v -0.0453879885 -0.0594368969 -0.429295107
vt 0.535305917 0.598609149
vn -0.996194732 0.0868236779 -0.00759639847
v -0.0483296609 -0.0770620898 -0.244973159
vt 0.410052687 0.570271909
vn -0.996194747 0.0868235024 -0.0075964776
v -0.0476207685 -0.0659459307 -0.210884029
vt 0.385628879 0.574958384
vn -0.996194721 0.0868237939 -0.00759643079
v -0.0453879885 -0.0594368969 -0.429295107
vt 0.535305917 0.598609149
vn -0.996194732 0.0868236779 -0.00759639847
v -0.046378492 -0.0694687662 -0.414059021
vt 0.52570343 0.590345323
vn -0.996194829 0.0868225452 -0.00759657044
v -0.0483296609 -0.0770620898 -0.244973159
vt 0.410052687 0.570271909
vn -0.996194747 0.0868235024 -0.0075964776
v 0.0071131741 0.0306371549325 -0.4026595615
vt 0.467616439 0.677295744
vn 0.0799117072303 0.875126799327 -0.477249624564
v 0.0538536734 0.0572360858 -0.346059106
vt 0.467616439 0.677295744
vn 0.0799117072303 0.875126799327 -0.477249624564
v 0.0493989121 -0.00372093132 -0.45858114
vt 0.467616439 0.677295744
vn 0.0799117072303 0.875126799327 -0.477249624564
v 0.0071131741 0.0306371549325 -0.4026595615
vt 0.467616439 0.677295744
vn 0.0799117072303 0.875126799327 -0.477249624564
v 0.0493989121 -0.00372093132 -0.45858114
vt 0.467616439 0.677295744
vn 0.0799117072303 0.875126799327 -0.477249624564
v -0.0396272958 0.00403821515 -0.459260046
vt 0.467616439 0.677295744
vn 0.0799117072303 0.875126799327 -0.477249624564
v 0.0071131741 0.0306371549325 -0.4026595615
vt 0.467616439 0.677295744
vn 0.0799117072303 0.875126799327 -0.477249624564
v -0.0396272958 0.00403821515 -0.459260046
vt 0.467616439 0.677295744
vn 0.0799117072303 0.875126799327 -0.477249624564
v -0.0351725933 0.0649952501 -0.346737954
vt 0.467616439 0.677295744
vn 0.0799117072303 0.875126799327 -0.477249624564
v 0.0071131741 0.0306371549325 -0.4026595615
vt 0.467616439 0.677295744
vn 0.0799117072303 0.875126799327 -0.477249624564
v -0.0351725933 0.0649952501 -0.346737954
vt 0.467616439 0.677295744
vn 0.0799117072303 0.875126799327 -0.477249624564
v 0.0538536734 0.0572360858 -0.346059106
vt 0.467616439 0.677295744
vn 0.0799117072303 0.875126799327 -0.477249624564
usemtl gun_2
f 1/1/1 2/2/2 3/3/3
f 4/4/4 5/5/5 6/6/6
f 7/7/7 8/8/8 9/9/9
f 10/10/10 11/11/11 12/12/12
f 13/13/13 14/14/14 15/15/15
f 16/16/16 17/17/17 18/18/18
f 19/19/19 20/20/20 21/21/21
f 22/22/22 23/23/23 24/24/24
f 25/25/25 26/26/26 27/27/27
f 28/28/28 29/29/29 30/30/30
f 31/31/31 32/32/32 33/33/33
f 34/34/34 35/35/35 36/36/36
f 37/37/37 38/38/38 39/39/39
f 40/40/40 41/41/41 42/42/42
f 43/43/43 44/44/44 45/45/45
f 46/46/46 47/47/47 48/48/48
f 49/49/49 50/50/50 51/51/51
f 52/52/52 53/53/53 54/54/54
f 55/55/55 56/56/56 57/57/57
f 58/58/58 59/59/59 60/60/60
f 61/61/61 62/62/62 63/63/63
f 64/64/64 65/65/65 66/66/66
f 67/67/67 68/68/68 69/69/69
f 70/70/70 71/71/71 72/72/72
f 73/73/73 74/74/74 75/75/75
f 76/76/76 77/77/77 78/78/78
f 79/79/79 80/80/80 81/81/81
f 82/82/82 83/83/83 84/84/84
f 85/85/85 86/86/86 87/87/87
f 88/88/88 89/89/89 90/90/90
