<svg xmlns="http://www.w3.org/2000/svg" width="1024" height="1024" viewBox="0 0 1024 1024"><rect width="1024" height="1024" fill="#17222d"/><polygon points="319.488,227.738 377.549,73.421 185.958,147.558" fill="none" stroke="#9ad9e8" stroke-width="1"/><polygon points="377.549,73.421 319.488,227.738 621.773,188.006" fill="none" stroke="#9ad9e8" stroke-width="1"/><polygon points="377.549,73.421 621.773,188.006 787.661,7.168" fill="none" stroke="#9ad9e8" stroke-width="1"/><polygon points="621.773,188.006 377.549,73.421 787.661,7.168" fill="none" stroke="#9ad9e8" stroke-width="1"/><polygon points="741.478,170.496 787.661,7.168 621.773,188.006" fill="none" stroke="#9ad9e8" stroke-width="1"/><polygon points="741.478,170.496 621.773,188.006 773.120,315.494" fill="none" stroke="#9ad9e8" stroke-width="1"/><polygon points="741.478,170.496 773.120,315.494 860.467,253.747" fill="none" stroke="#9ad9e8" stroke-width="1"/><polygon points="964.096,423.219 860.467,253.747 773.120,315.494" fill="none" stroke="#9ad9e8" stroke-width="1"/><polygon points="964.096,423.219 773.120,315.494 854.426,467.149" fill="none" stroke="#9ad9e8" stroke-width="1"/><polygon points="1014.579,616.653 964.096,423.219 854.426,467.149" fill="none" stroke="#9ad9e8" stroke-width="1"/><polygon points="1014.579,616.653 854.426,467.149 831.078,676.250" fill="none" stroke="#9ad9e8" stroke-width="1"/><polygon points="757.965,487.219 854.426,467.149 773.120,315.494" fill="none" stroke="#9ad9e8" stroke-width="1"/><polygon points="831.078,676.250 854.426,467.149 757.965,487.219" fill="none" stroke="#9ad9e8" stroke-width="1"/><polygon points="682.496,381.850 773.120,315.494 621.773,188.006" fill="none" stroke="#9ad9e8" stroke-width="1"/><polygon points="757.965,487.219 773.120,315.494 682.496,381.850" fill="none" stroke="#9ad9e8" stroke-width="1"/><polygon points="682.496,381.850 621.773,188.006 574.464,327.578" fill="none" stroke="#9ad9e8" stroke-width="1"/><polygon points="319.488,227.738 574.464,327.578 621.773,188.006" fill="none" stroke="#9ad9e8" stroke-width="1"/><polygon points="623.821,491.213 757.965,487.219 682.496,381.850" fill="none" stroke="#9ad9e8" stroke-width="1"/><polygon points="757.965,487.219 666.112,635.187 831.078,676.250" fill="none" stroke="#9ad9e8" stroke-width="1"/><polygon points="623.821,491.213 666.112,635.187 757.965,487.219" fill="none" stroke="#9ad9e8" stroke-width="1"/><polygon points="831.078,676.250 666.112,635.187 655.155,773.427" fill="none" stroke="#9ad9e8" stroke-width="1"/><polygon points="682.496,381.850 574.464,327.578 451.379,429.568" fill="none" stroke="#9ad9e8" stroke-width="1"/><polygon points="682.496,381.850 451.379,429.568 623.821,491.213" fill="none" stroke="#9ad9e8" stroke-width="1"/><polygon points="319.488,227.738 350.003,359.731 574.464,327.578" fill="none" stroke="#9ad9e8" stroke-width="1"/><polygon points="574.464,327.578 350.003,359.731 451.379,429.568" fill="none" stroke="#9ad9e8" stroke-width="1"/><polygon points="350.003,359.731 319.488,227.738 191.078,358.400" fill="none" stroke="#9ad9e8" stroke-width="1"/><polygon points="185.958,147.558 191.078,358.400 319.488,227.738" fill="none" stroke="#9ad9e8" stroke-width="1"/><polygon points="451.379,429.568 350.003,359.731 273.818,415.642" fill="none" stroke="#9ad9e8" stroke-width="1"/><polygon points="350.003,359.731 191.078,358.400 273.818,415.642" fill="none" stroke="#9ad9e8" stroke-width="1"/><polygon points="451.379,429.568 432.435,539.750 623.821,491.213" fill="none" stroke="#9ad9e8" stroke-width="1"/><polygon points="273.818,415.642 432.435,539.750 451.379,429.568" fill="none" stroke="#9ad9e8" stroke-width="1"/><polygon points="185.958,147.558 67.072,316.211 191.078,358.400" fill="none" stroke="#9ad9e8" stroke-width="1"/><polygon points="67.072,316.211 152.986,497.459 191.078,358.400" fill="none" stroke="#9ad9e8" stroke-width="1"/><polygon points="152.986,497.459 273.818,415.642 191.078,358.400" fill="none" stroke="#9ad9e8" stroke-width="1"/><polygon points="67.072,316.211 39.936,487.629 152.986,497.459" fill="none" stroke="#9ad9e8" stroke-width="1"/><polygon points="152.986,497.459 39.936,487.629 36.352,641.843" fill="none" stroke="#9ad9e8" stroke-width="1"/><polygon points="152.986,497.459 36.352,641.843 235.110,576.922" fill="none" stroke="#9ad9e8" stroke-width="1"/><polygon points="235.110,576.922 273.818,415.642 152.986,497.459" fill="none" stroke="#9ad9e8" stroke-width="1"/><polygon points="273.818,415.642 235.110,576.922 432.435,539.750" fill="none" stroke="#9ad9e8" stroke-width="1"/><polygon points="432.435,539.750 235.110,576.922 238.797,601.498" fill="none" stroke="#9ad9e8" stroke-width="1"/><polygon points="36.352,641.843 238.797,601.498 235.110,576.922" fill="none" stroke="#9ad9e8" stroke-width="1"/><polygon points="36.352,641.843 54.374,667.853 238.797,601.498" fill="none" stroke="#9ad9e8" stroke-width="1"/><polygon points="412.058,659.149 432.435,539.750 238.797,601.498" fill="none" stroke="#9ad9e8" stroke-width="1"/><polygon points="520.499,536.576 623.821,491.213 432.435,539.750" fill="none" stroke="#9ad9e8" stroke-width="1"/><polygon points="520.499,536.576 432.435,539.750 412.058,659.149" fill="none" stroke="#9ad9e8" stroke-width="1"/><polygon points="520.499,536.576 623.309,543.539 623.821,491.213" fill="none" stroke="#9ad9e8" stroke-width="1"/><polygon points="623.821,491.213 623.309,543.539 666.112,635.187" fill="none" stroke="#9ad9e8" stroke-width="1"/><polygon points="666.112,635.187 623.309,543.539 608.256,573.645" fill="none" stroke="#9ad9e8" stroke-width="1"/><polygon points="623.309,543.539 520.499,536.576 541.389,571.597" fill="none" stroke="#9ad9e8" stroke-width="1"/><polygon points="623.309,543.539 541.389,571.597 608.256,573.645" fill="none" stroke="#9ad9e8" stroke-width="1"/><polygon points="666.112,635.187 608.256,573.645 633.037,638.054" fill="none" stroke="#9ad9e8" stroke-width="1"/><polygon points="633.037,638.054 608.256,573.645 541.389,571.597" fill="none" stroke="#9ad9e8" stroke-width="1"/><polygon points="615.014,736.973 666.112,635.187 633.037,638.054" fill="none" stroke="#9ad9e8" stroke-width="1"/><polygon points="615.014,736.973 655.155,773.427 666.112,635.187" fill="none" stroke="#9ad9e8" stroke-width="1"/><polygon points="633.037,638.054 541.389,571.597 514.560,624.845" fill="none" stroke="#9ad9e8" stroke-width="1"/><polygon points="514.560,624.845 615.014,736.973 633.037,638.054" fill="none" stroke="#9ad9e8" stroke-width="1"/><polygon points="541.389,571.597 520.499,536.576 480.051,609.792" fill="none" stroke="#9ad9e8" stroke-width="1"/><polygon points="541.389,571.597 480.051,609.792 514.560,624.845" fill="none" stroke="#9ad9e8" stroke-width="1"/><polygon points="520.499,536.576 412.058,659.149 480.051,609.792" fill="none" stroke="#9ad9e8" stroke-width="1"/><polygon points="514.560,624.845 503.194,716.800 615.014,736.973" fill="none" stroke="#9ad9e8" stroke-width="1"/><polygon points="503.194,716.800 514.560,624.845 480.051,609.792" fill="none" stroke="#9ad9e8" stroke-width="1"/><polygon points="544.973,767.590 655.155,773.427 615.014,736.973" fill="none" stroke="#9ad9e8" stroke-width="1"/><polygon points="615.014,736.973 503.194,716.800 544.973,767.590" fill="none" stroke="#9ad9e8" stroke-width="1"/><polygon points="544.973,767.590 524.493,809.267 655.155,773.427" fill="none" stroke="#9ad9e8" stroke-width="1"/><polygon points="503.194,716.800 480.051,609.792 464.384,731.443" fill="none" stroke="#9ad9e8" stroke-width="1"/><polygon points="464.384,731.443 544.973,767.590 503.194,716.800" fill="none" stroke="#9ad9e8" stroke-width="1"/><polygon points="464.384,731.443 524.493,809.267 544.973,767.590" fill="none" stroke="#9ad9e8" stroke-width="1"/><polygon points="480.051,609.792 412.058,659.149 464.384,731.443" fill="none" stroke="#9ad9e8" stroke-width="1"/><polygon points="278.835,803.533 524.493,809.267 464.384,731.443" fill="none" stroke="#9ad9e8" stroke-width="1"/><polygon points="278.835,803.533 464.384,731.443 412.058,659.149" fill="none" stroke="#9ad9e8" stroke-width="1"/><polygon points="278.835,803.533 301.466,947.814 524.493,809.267" fill="none" stroke="#9ad9e8" stroke-width="1"/><polygon points="412.058,659.149 258.867,775.578 278.835,803.533" fill="none" stroke="#9ad9e8" stroke-width="1"/><polygon points="301.466,947.814 278.835,803.533 150.016,859.853" fill="none" stroke="#9ad9e8" stroke-width="1"/><polygon points="301.466,947.814 150.016,859.853 149.606,1000.141" fill="none" stroke="#9ad9e8" stroke-width="1"/><polygon points="51.610,873.472 149.606,1000.141 150.016,859.853" fill="none" stroke="#9ad9e8" stroke-width="1"/><polygon points="51.610,873.472 55.706,1015.910 149.606,1000.141" fill="none" stroke="#9ad9e8" stroke-width="1"/><polygon points="58.061,834.355 51.610,873.472 150.016,859.853" fill="none" stroke="#9ad9e8" stroke-width="1"/><polygon points="148.992,826.266 150.016,859.853 278.835,803.533" fill="none" stroke="#9ad9e8" stroke-width="1"/><polygon points="58.061,834.355 150.016,859.853 148.992,826.266" fill="none" stroke="#9ad9e8" stroke-width="1"/><polygon points="148.992,826.266 278.835,803.533 258.867,775.578" fill="none" stroke="#9ad9e8" stroke-width="1"/><polygon points="55.091,736.768 58.061,834.355 148.992,826.266" fill="none" stroke="#9ad9e8" stroke-width="1"/><polygon points="412.058,659.149 223.130,710.758 258.867,775.578" fill="none" stroke="#9ad9e8" stroke-width="1"/><polygon points="223.130,710.758 148.992,826.266 258.867,775.578" fill="none" stroke="#9ad9e8" stroke-width="1"/><polygon points="55.091,736.768 148.992,826.266 223.130,710.758" fill="none" stroke="#9ad9e8" stroke-width="1"/><polygon points="412.058,659.149 238.797,601.498 223.130,710.758" fill="none" stroke="#9ad9e8" stroke-width="1"/><polygon points="54.374,667.853 55.091,736.768 223.130,710.758" fill="none" stroke="#9ad9e8" stroke-width="1"/><polygon points="54.374,667.853 223.130,710.758 238.797,601.498" fill="none" stroke="#9ad9e8" stroke-width="1"/><polygon points="319.488,227.738 185.958,147.558 377.549,73.421" fill="none" stroke="#9ad9e8" stroke-width="1"/><polygon points="185.958,147.558 319.488,227.738 191.078,358.400" fill="none" stroke="#9ad9e8" stroke-width="1"/><polygon points="621.773,188.006 319.488,227.738 377.549,73.421" fill="none" stroke="#9ad9e8" stroke-width="1"/><polygon points="185.958,147.558 191.078,358.400 67.072,316.211" fill="none" stroke="#9ad9e8" stroke-width="1"/><polygon points="152.986,497.459 67.072,316.211 191.078,358.400" fill="none" stroke="#9ad9e8" stroke-width="1"/><polygon points="152.986,497.459 39.936,487.629 67.072,316.211" fill="none" stroke="#9ad9e8" stroke-width="1"/><polygon points="152.986,497.459 36.352,641.843 39.936,487.629" fill="none" stroke="#9ad9e8" stroke-width="1"/><polygon points="152.986,497.459 235.110,576.922 36.352,641.843" fill="none" stroke="#9ad9e8" stroke-width="1"/><polygon points="152.986,497.459 191.078,358.400 273.818,415.642" fill="none" stroke="#9ad9e8" stroke-width="1"/><polygon points="235.110,576.922 152.986,497.459 273.818,415.642" fill="none" stroke="#9ad9e8" stroke-width="1"/><polygon points="191.078,358.400 319.488,227.738 350.003,359.731" fill="none" stroke="#9ad9e8" stroke-width="1"/><polygon points="191.078,358.400 350.003,359.731 273.818,415.642" fill="none" stroke="#9ad9e8" stroke-width="1"/><polygon points="574.464,327.578 350.003,359.731 319.488,227.738" fill="none" stroke="#9ad9e8" stroke-width="1"/><polygon points="574.464,327.578 319.488,227.738 621.773,188.006" fill="none" stroke="#9ad9e8" stroke-width="1"/><polygon points="451.379,429.568 273.818,415.642 350.003,359.731" fill="none" stroke="#9ad9e8" stroke-width="1"/><polygon points="574.464,327.578 451.379,429.568 350.003,359.731" fill="none" stroke="#9ad9e8" stroke-width="1"/><polygon points="432.435,539.750 235.110,576.922 273.818,415.642" fill="none" stroke="#9ad9e8" stroke-width="1"/><polygon points="432.435,539.750 273.818,415.642 451.379,429.568" fill="none" stroke="#9ad9e8" stroke-width="1"/><polygon points="682.496,381.850 451.379,429.568 574.464,327.578" fill="none" stroke="#9ad9e8" stroke-width="1"/><polygon points="621.773,188.006 682.496,381.850 574.464,327.578" fill="none" stroke="#9ad9e8" stroke-width="1"/><polygon points="682.496,381.850 623.821,491.213 451.379,429.568" fill="none" stroke="#9ad9e8" stroke-width="1"/><polygon points="451.379,429.568 623.821,491.213 432.435,539.750" fill="none" stroke="#9ad9e8" stroke-width="1"/><polygon points="621.773,188.006 773.120,315.494 682.496,381.850" fill="none" stroke="#9ad9e8" stroke-width="1"/><polygon points="741.478,170.496 621.773,188.006 787.661,7.168" fill="none" stroke="#9ad9e8" stroke-width="1"/><polygon points="741.478,170.496 773.120,315.494 621.773,188.006" fill="none" stroke="#9ad9e8" stroke-width="1"/><polygon points="741.478,170.496 860.467,253.747 773.120,315.494" fill="none" stroke="#9ad9e8" stroke-width="1"/><polygon points="964.096,423.219 773.120,315.494 860.467,253.747" fill="none" stroke="#9ad9e8" stroke-width="1"/><polygon points="773.120,315.494 757.965,487.219 682.496,381.850" fill="none" stroke="#9ad9e8" stroke-width="1"/><polygon points="623.821,491.213 682.496,381.850 757.965,487.219" fill="none" stroke="#9ad9e8" stroke-width="1"/><polygon points="964.096,423.219 854.426,467.149 773.120,315.494" fill="none" stroke="#9ad9e8" stroke-width="1"/><polygon points="773.120,315.494 854.426,467.149 757.965,487.219" fill="none" stroke="#9ad9e8" stroke-width="1"/><polygon points="1014.579,616.653 854.426,467.149 964.096,423.219" fill="none" stroke="#9ad9e8" stroke-width="1"/><polygon points="1014.579,616.653 831.078,676.250 854.426,467.149" fill="none" stroke="#9ad9e8" stroke-width="1"/><polygon points="831.078,676.250 757.965,487.219 854.426,467.149" fill="none" stroke="#9ad9e8" stroke-width="1"/><polygon points="757.965,487.219 831.078,676.250 666.112,635.187" fill="none" stroke="#9ad9e8" stroke-width="1"/><polygon points="623.821,491.213 757.965,487.219 666.112,635.187" fill="none" stroke="#9ad9e8" stroke-width="1"/><polygon points="831.078,676.250 655.155,773.427 666.112,635.187" fill="none" stroke="#9ad9e8" stroke-width="1"/><polygon points="623.821,491.213 666.112,635.187 623.309,543.539" fill="none" stroke="#9ad9e8" stroke-width="1"/><polygon points="666.112,635.187 608.256,573.645 623.309,543.539" fill="none" stroke="#9ad9e8" stroke-width="1"/><polygon points="520.499,536.576 623.821,491.213 623.309,543.539" fill="none" stroke="#9ad9e8" stroke-width="1"/><polygon points="520.499,536.576 432.435,539.750 623.821,491.213" fill="none" stroke="#9ad9e8" stroke-width="1"/><polygon points="623.309,543.539 608.256,573.645 541.389,571.597" fill="none" stroke="#9ad9e8" stroke-width="1"/><polygon points="623.309,543.539 541.389,571.597 520.499,536.576" fill="none" stroke="#9ad9e8" stroke-width="1"/><polygon points="666.112,635.187 633.037,638.054 608.256,573.645" fill="none" stroke="#9ad9e8" stroke-width="1"/><polygon points="541.389,571.597 608.256,573.645 633.037,638.054" fill="none" stroke="#9ad9e8" stroke-width="1"/><polygon points="666.112,635.187 655.155,773.427 615.014,736.973" fill="none" stroke="#9ad9e8" stroke-width="1"/><polygon points="666.112,635.187 615.014,736.973 633.037,638.054" fill="none" stroke="#9ad9e8" stroke-width="1"/><polygon points="541.389,571.597 633.037,638.054 514.560,624.845" fill="none" stroke="#9ad9e8" stroke-width="1"/><polygon points="615.014,736.973 514.560,624.845 633.037,638.054" fill="none" stroke="#9ad9e8" stroke-width="1"/><polygon points="480.051,609.792 520.499,536.576 541.389,571.597" fill="none" stroke="#9ad9e8" stroke-width="1"/><polygon points="480.051,609.792 541.389,571.597 514.560,624.845" fill="none" stroke="#9ad9e8" stroke-width="1"/><polygon points="615.014,736.973 503.194,716.800 514.560,624.845" fill="none" stroke="#9ad9e8" stroke-width="1"/><polygon points="480.051,609.792 514.560,624.845 503.194,716.800" fill="none" stroke="#9ad9e8" stroke-width="1"/><polygon points="655.155,773.427 544.973,767.590 615.014,736.973" fill="none" stroke="#9ad9e8" stroke-width="1"/><polygon points="615.014,736.973 544.973,767.590 503.194,716.800" fill="none" stroke="#9ad9e8" stroke-width="1"/><polygon points="655.155,773.427 524.493,809.267 544.973,767.590" fill="none" stroke="#9ad9e8" stroke-width="1"/><polygon points="464.384,731.443 503.194,716.800 544.973,767.590" fill="none" stroke="#9ad9e8" stroke-width="1"/><polygon points="480.051,609.792 503.194,716.800 464.384,731.443" fill="none" stroke="#9ad9e8" stroke-width="1"/><polygon points="464.384,731.443 544.973,767.590 524.493,809.267" fill="none" stroke="#9ad9e8" stroke-width="1"/><polygon points="520.499,536.576 480.051,609.792 412.058,659.149" fill="none" stroke="#9ad9e8" stroke-width="1"/><polygon points="480.051,609.792 464.384,731.443 412.058,659.149" fill="none" stroke="#9ad9e8" stroke-width="1"/><polygon points="520.499,536.576 412.058,659.149 432.435,539.750" fill="none" stroke="#9ad9e8" stroke-width="1"/><polygon points="524.493,809.267 278.835,803.533 464.384,731.443" fill="none" stroke="#9ad9e8" stroke-width="1"/><polygon points="278.835,803.533 412.058,659.149 464.384,731.443" fill="none" stroke="#9ad9e8" stroke-width="1"/><polygon points="524.493,809.267 301.466,947.814 278.835,803.533" fill="none" stroke="#9ad9e8" stroke-width="1"/><polygon points="412.058,659.149 278.835,803.533 258.867,775.578" fill="none" stroke="#9ad9e8" stroke-width="1"/><polygon points="238.797,601.498 432.435,539.750 412.058,659.149" fill="none" stroke="#9ad9e8" stroke-width="1"/><polygon points="432.435,539.750 238.797,601.498 235.110,576.922" fill="none" stroke="#9ad9e8" stroke-width="1"/><polygon points="238.797,601.498 36.352,641.843 235.110,576.922" fill="none" stroke="#9ad9e8" stroke-width="1"/><polygon points="238.797,601.498 54.374,667.853 36.352,641.843" fill="none" stroke="#9ad9e8" stroke-width="1"/><polygon points="238.797,601.498 412.058,659.149 223.130,710.758" fill="none" stroke="#9ad9e8" stroke-width="1"/><polygon points="412.058,659.149 258.867,775.578 223.130,710.758" fill="none" stroke="#9ad9e8" stroke-width="1"/><polygon points="54.374,667.853 238.797,601.498 223.130,710.758" fill="none" stroke="#9ad9e8" stroke-width="1"/><polygon points="54.374,667.853 223.130,710.758 55.091,736.768" fill="none" stroke="#9ad9e8" stroke-width="1"/><polygon points="223.130,710.758 258.867,775.578 148.992,826.266" fill="none" stroke="#9ad9e8" stroke-width="1"/><polygon points="55.091,736.768 223.130,710.758 148.992,826.266" fill="none" stroke="#9ad9e8" stroke-width="1"/><polygon points="278.835,803.533 148.992,826.266 258.867,775.578" fill="none" stroke="#9ad9e8" stroke-width="1"/><polygon points="55.091,736.768 148.992,826.266 58.061,834.355" fill="none" stroke="#9ad9e8" stroke-width="1"/><polygon points="278.835,803.533 150.016,859.853 148.992,826.266" fill="none" stroke="#9ad9e8" stroke-width="1"/><polygon points="58.061,834.355 148.992,826.266 150.016,859.853" fill="none" stroke="#9ad9e8" stroke-width="1"/><polygon points="150.016,859.853 278.835,803.533 301.466,947.814" fill="none" stroke="#9ad9e8" stroke-width="1"/><polygon points="58.061,834.355 150.016,859.853 51.610,873.472" fill="none" stroke="#9ad9e8" stroke-width="1"/><polygon points="150.016,859.853 301.466,947.814 149.606,1000.141" fill="none" stroke="#9ad9e8" stroke-width="1"/><polygon points="51.610,873.472 150.016,859.853 149.606,1000.141" fill="none" stroke="#9ad9e8" stroke-width="1"/><polygon points="51.610,873.472 149.606,1000.141 55.706,1015.910" fill="none" stroke="#9ad9e8" stroke-width="1"/><polygon points="941.568,364.544 1015.910,296.243 876.544,218.010" fill="none" stroke="#9ad9e8" stroke-width="1"/><polygon points="876.544,218.010 1015.910,296.243 1012.736,203.776" fill="none" stroke="#9ad9e8" stroke-width="1"/><polygon points="876.544,218.010 1012.736,203.776 995.635,153.907" fill="none" stroke="#9ad9e8" stroke-width="1"/><polygon points="912.486,67.174 876.544,218.010 995.635,153.907" fill="none" stroke="#9ad9e8" stroke-width="1"/><polygon points="857.498,13.210 876.544,218.010 912.486,67.174" fill="none" stroke="#9ad9e8" stroke-width="1"/><polygon points="876.544,218.010 857.498,13.210 812.237,10.240" fill="none" stroke="#9ad9e8" stroke-width="1"/><polygon points="941.568,364.544 876.544,218.010 1015.910,296.243" fill="none" stroke="#9ad9e8" stroke-width="1"/><polygon points="876.544,218.010 1012.736,203.776 1015.910,296.243" fill="none" stroke="#9ad9e8" stroke-width="1"/><polygon points="876.544,218.010 995.635,153.907 1012.736,203.776" fill="none" stroke="#9ad9e8" stroke-width="1"/><polygon points="912.486,67.174 995.635,153.907 876.544,218.010" fill="none" stroke="#9ad9e8" stroke-width="1"/><polygon points="857.498,13.210 912.486,67.174 876.544,218.010" fill="none" stroke="#9ad9e8" stroke-width="1"/><polygon points="876.544,218.010 812.237,10.240 857.498,13.210" fill="none" stroke="#9ad9e8" stroke-width="1"/><polygon points="596.480,1013.043 736.051,876.851 596.480,876.851" fill="none" stroke="#9ad9e8" stroke-width="1"/><polygon points="596.480,1013.043 736.051,1013.043 736.051,876.851" fill="none" stroke="#9ad9e8" stroke-width="1"/><polygon points="736.051,1013.043 901.325,876.851 736.051,876.851" fill="none" stroke="#9ad9e8" stroke-width="1"/><polygon points="736.051,1013.043 901.325,1013.043 901.325,876.851" fill="none" stroke="#9ad9e8" stroke-width="1"/><polygon points="596.480,1013.043 669.594,876.851 669.594,1013.043" fill="none" stroke="#9ad9e8" stroke-width="1"/><polygon points="596.480,1013.043 596.480,876.851 669.594,876.851" fill="none" stroke="#9ad9e8" stroke-width="1"/><polygon points="741.786,1013.043 669.594,1013.043 669.594,876.851" fill="none" stroke="#9ad9e8" stroke-width="1"/><polygon points="741.786,1013.043 669.594,876.851 741.786,876.851" fill="none" stroke="#9ad9e8" stroke-width="1"/><polygon points="831.078,1013.043 741.786,1013.043 741.786,876.851" fill="none" stroke="#9ad9e8" stroke-width="1"/><polygon points="831.078,1013.043 741.786,876.851 831.078,876.851" fill="none" stroke="#9ad9e8" stroke-width="1"/><polygon points="831.078,1013.043 831.078,876.851 901.325,876.851" fill="none" stroke="#9ad9e8" stroke-width="1"/><polygon points="831.078,1013.043 901.325,876.851 901.325,1013.043" fill="none" stroke="#9ad9e8" stroke-width="1"/></svg>