# Generated from legacy Unity YAML Mesh assets without Unity.
mtllib ArmorBag_12.mtl

o ArmorBag_12_00_Bag
v 0.110579239 -0.269075215 -0.0490684211
v 0.216806696 -0.426398575 0.123026341
v 0.148572759 -0.313979 -0.0856775939
v 0.178813161 -0.381494761 0.159635544
v 0.129613431 -0.208071157 -0.0224311668
v 0.197846995 -0.320491076 0.186272755
v 0.221459032 -0.343271315 0.19456628
v 0.208142327 -0.385988206 0.175909817
v 0.23474613 -0.417420298 0.150281072
v 0.148572759 -0.313979 -0.0856775939
v 0.283218177 -0.421388626 0.104012318
v 0.21498421 -0.308969498 -0.104691662
v 0.216806696 -0.426398575 0.123026341
v 0.328038008 -0.370238036 0.116911404
v 0.259803714 -0.25781846 -0.091792576
v 0.23474613 -0.417420298 0.150281072
v 0.281242163 -0.413926601 0.136961699
v 0.312626721 -0.378108531 0.145994321
v 0.259803714 -0.25781846 -0.091792576
v 0.317515822 -0.311463773 0.152010471
v 0.249281885 -0.199044228 -0.0566935092
v 0.328038008 -0.370238036 0.116911404
v 0.259575696 -0.289324194 0.182879016
v 0.191341387 -0.176904619 -0.0258249622
v 0.197846995 -0.320491076 0.186272755
v 0.129613431 -0.208071157 -0.0224311668
v 0.312626721 -0.378108531 0.145994321
v 0.305245639 -0.336962521 0.170570806
v 0.264686318 -0.321457416 0.192183301
v 0.221459032 -0.343271315 0.19456628
v 0.23474613 -0.417420298 0.150281072
v 0.312626721 -0.378108531 0.145994321
v 0.281242163 -0.413926601 0.136961699
v 0.305245639 -0.336962521 0.170570806
v 0.264686318 -0.321457416 0.192183301
v 0.208142327 -0.385988206 0.175909817
v 0.221459032 -0.343271315 0.19456628
v 0.12883632 0.0831075758 -0.0422018245
v 0.14267555 -0.0903368741 0.100096032
v 0.0431398763 0.194411963 -0.053162545
v 0.189698638 -0.0947296619 0.0120188519
v 0.268005611 0.0147855729 -0.0418552384
v 0.12883632 0.0994518399 -0.163159996
v 0.290643336 0.0177791417 -0.13605231
v 0.0860661952 -0.253706455 -0.00823284499
v -4.16043242e-17 -0.0903368741 0.129964411
v -4.16043242e-17 -0.28866905 0.0281730238
v -4.16043242e-17 0.193193585 -0.053162545
v -4.16043242e-17 -0.28866905 0.0281730238
v 0.312744529 -0.266081929 -0.0521281734
v 0.17203206 -0.405693859 -0.115569167
v 0.0623291148 -0.357558966 -0.219916403
v -4.16043242e-17 -0.28866905 0.0281730238
v -4.16043242e-17 -0.381412327 -0.199034661
v 0.213244574 -0.357558966 -0.222574502
v 0.0431398763 0.192191571 -0.15120481
v 0.309342028 -0.106027089 -0.118860357
v 0.317774983 -0.236689314 -0.171611577
v -4.16043242e-17 0.192191571 -0.15120481
v -4.16043242e-17 -0.28866905 0.0281730238
v -0.0623291121 -0.357558966 -0.219916403
v -0.0860661925 -0.253706455 -0.00823284499
v -0.172032057 -0.405693859 -0.115569167
v -0.213244571 -0.357558966 -0.222574502
v -0.312744527 -0.266081929 -0.0521281734
v -0.189698635 -0.0947296619 0.0120188519
v -0.142675547 -0.0903368741 0.100096032
v -0.128836318 0.0831075758 -0.0422018245
v -0.0431398736 0.194411963 -0.053162545
v -0.268005608 0.0147855729 -0.0418552384
v -0.128836318 0.0994518399 -0.163159996
v -0.290643333 0.0177791417 -0.13605231
v -4.16043242e-17 -0.0903368741 0.129964411
v -4.16043242e-17 -0.28866905 0.0281730238
v -4.16043242e-17 0.193193585 -0.053162545
v -4.16043242e-17 -0.28866905 0.0281730238
v -0.0431398736 0.192191571 -0.15120481
v -4.16043242e-17 0.192191571 -0.15120481
v -0.309342025 -0.106027089 -0.118860357
v -0.31777498 -0.236689314 -0.171611577
v -4.16043242e-17 -0.171092615 -0.246665746
v 0.0623291148 -0.357558966 -0.219916403
v 0.213244574 -0.357558966 -0.222574502
v -4.16043242e-17 -0.381412327 -0.199034661
v 0.317774983 -0.236689314 -0.171611577
v 0.309342028 -0.106027089 -0.118860357
v 0.290643336 0.0177791417 -0.13605231
v 0.12883632 0.0994518399 -0.163159996
v 0.0431398763 0.192191571 -0.15120481
v -4.16043242e-17 0.192191571 -0.15120481
v -4.16043242e-17 -0.171092615 -0.246665746
v -0.213244571 -0.357558966 -0.222574502
v -0.0623291121 -0.357558966 -0.219916403
v -4.16043242e-17 -0.381412327 -0.199034661
v -0.31777498 -0.236689314 -0.171611577
v -0.309342025 -0.106027089 -0.118860357
v -0.290643333 0.0177791417 -0.13605231
v -0.128836318 0.0994518399 -0.163159996
v -0.0431398736 0.192191571 -0.15120481
v -4.16043242e-17 0.192191571 -0.15120481
v -0.110579236 -0.269075215 -0.0490684211
v -0.216806694 -0.426398575 0.123026341
v -0.178813158 -0.381494761 0.159635544
v -0.148572757 -0.313979 -0.0856775939
v -0.129613428 -0.208071157 -0.0224311668
v -0.197846992 -0.320491076 0.186272755
v -0.22145903 -0.343271315 0.19456628
v -0.208142324 -0.385988206 0.175909817
v -0.234746127 -0.417420298 0.150281072
v -0.148572757 -0.313979 -0.0856775939
v -0.283218174 -0.421388626 0.104012318
v -0.216806694 -0.426398575 0.123026341
v -0.214984207 -0.308969498 -0.104691662
v -0.328038006 -0.370238036 0.116911404
v -0.259803711 -0.25781846 -0.091792576
v -0.234746127 -0.417420298 0.150281072
v -0.281242161 -0.413926601 0.136961699
v -0.312626718 -0.378108531 0.145994321
v -0.259803711 -0.25781846 -0.091792576
v -0.317515819 -0.311463773 0.152010471
v -0.328038006 -0.370238036 0.116911404
v -0.249281882 -0.199044228 -0.0566935092
v -0.259575693 -0.289324194 0.182879016
v -0.191341384 -0.176904619 -0.0258249622
v -0.197846992 -0.320491076 0.186272755
v -0.129613428 -0.208071157 -0.0224311668
v -0.312626718 -0.378108531 0.145994321
v -0.305245637 -0.336962521 0.170570806
v -0.264686315 -0.321457416 0.192183301
v -0.22145903 -0.343271315 0.19456628
v -0.234746127 -0.417420298 0.150281072
v -0.312626718 -0.378108531 0.145994321
v -0.305245637 -0.336962521 0.170570806
v -0.281242161 -0.413926601 0.136961699
v -0.264686315 -0.321457416 0.192183301
v -0.208142324 -0.385988206 0.175909817
v -0.22145903 -0.343271315 0.19456628
v -0.0762317912 -0.0629688948 0.0425009467
v -0.00117571984 0.0478683561 0.29791674
v -0.00116963982 -0.0948113799 0.061737299
v -0.0762378709 0.079710111 0.278678864
v -0.0939530866 0.149742097 0.236371219
v -0.0939473869 0.00707033277 0.000204281881
v -0.0658201711 0.158915073 0.264635295
v -0.0534013943 0.109880149 0.294258088
v -0.000848539935 0.087595135 0.30772227
v -0.00116963982 -0.0948113799 0.061737299
v 0.0747095136 0.0781945735 0.279597729
v 0.0747155933 -0.0644858778 0.0434171297
v -0.00117571984 0.0478683561 0.29791674
v 0.0942749543 0.147852391 0.237516895
v 0.094280654 0.00517844409 0.00134655461
v -0.000848539935 0.087595135 0.30772227
v 0.0522895171 0.108813435 0.294905692
v 0.0659900321 0.157590687 0.265438169
v 0.094280654 0.00517844409 0.00134655461
v 0.0427872366 0.204387993 0.203361377
v 0.0427933162 0.0617200434 -0.0327987298
v 0.0942749543 0.147852391 0.237516895
v -0.0409822376 0.205228955 0.20285143
v -0.0409761542 0.0625618994 -0.0333071724
v -0.0939530866 0.149742097 0.236371219
v -0.0939473869 0.00707033277 0.000204281881
v 0.0659900321 0.157590687 0.265438169
v 0.0299268956 0.197163463 0.241530433
v -0.0287177363 0.19775942 0.241169482
v -0.0658201711 0.158915073 0.264635295
v -0.000848539935 0.087595135 0.30772227
v 0.0659900321 0.157590687 0.265438169
v 0.0522895171 0.108813435 0.294905692
v 0.0299268956 0.197163463 0.241530433
v -0.0287177363 0.19775942 0.241169482
v -0.0534013943 0.109880149 0.294258088
v -0.0658201711 0.158915073 0.264635295
vt 0.912427008 0.0088630002
vt 0.995575011 0.333564013
vt 0.995575011 0.00886099972
vt 0.912427008 0.333564013
vt 0.826014996 0.00928900018
vt 0.826014996 0.333299994
vt 0.826014996 0.379992008
vt 0.912427008 0.379992008
vt 0.995575011 0.379992008
vt 0.995575011 0.00886099972
vt 0.912427008 0.333564013
vt 0.912427008 0.00886099972
vt 0.995575011 0.333564013
vt 0.826014996 0.333299994
vt 0.826014996 0.00886099972
vt 0.995575011 0.379992008
vt 0.912427008 0.379992008
vt 0.826014996 0.379992008
vt 0.00487599988 0.380831003
vt 0.0482800007 0.578378022
vt 0.0485490002 0.380831003
vt 0.00487599988 0.578378022
vt 0.0894439965 0.578378022
vt 0.0891719982 0.380831003
vt 0.132831007 0.578378022
vt 0.132831007 0.380831003
vt 0.00487599988 0.606589019
vt 0.0482800007 0.606589019
vt 0.0894439965 0.606589019
vt 0.132831007 0.606589019
vt 0.0796839967 0.0139459996
vt 0.0159070008 0.146215007
vt 0.0159070008 0.0647260025
vt 0.0796839967 0.196996003
vt 0.159188002 0.178877994
vt 0.159188002 0.0320639983
vt 0.194594994 0.105471
vt 0.706762016 0.778217971
vt 0.680756986 0.519406021
vt 0.856839001 0.863099992
vt 0.565683007 0.549432993
vt 0.517347991 0.722916007
vt 0.658962011 0.930922985
vt 0.442672014 0.816950977
vt 0.498358995 0.265875012
vt 0.826822996 0.420020014
vt 0.588015974 0.179521993
vt 0.914267004 0.850739002
vt 0.588015974 0.179521993
vt 0.316248 0.480230004
vt 0.26622799 0.269959003
vt 0.238507003 0.0981990024
vt 0.588015974 0.179521993
vt 0.326611012 0.0152890002
vt 0.123525001 0.297068
vt 0.819527984 0.976859987
vt 0.339253008 0.676725984
vt 0.187306002 0.536716998
vt 0.878382981 0.991039991
vt 0.588015974 0.179521993
vt 0.238507003 0.0981990024
vt 0.498358995 0.265875012
vt 0.26622799 0.269959003
vt 0.123525001 0.297068
vt 0.316248 0.480230004
vt 0.565683007 0.549432993
vt 0.680756986 0.519406021
vt 0.706762016 0.778217971
vt 0.856839001 0.863099992
vt 0.517347991 0.722916007
vt 0.658962011 0.930922985
vt 0.442672014 0.816950977
vt 0.826822996 0.420020014
vt 0.588015974 0.179521993
vt 0.914267004 0.850739002
vt 0.588015974 0.179521993
vt 0.819527984 0.976859987
vt 0.878382981 0.991039991
vt 0.339253008 0.676725984
vt 0.187306002 0.536716998
vt 0.613680005 0.165425003
vt 0.552722991 0.0780590028
vt 0.601418018 0.0132820001
vt 0.520296991 0.0969830006
vt 0.691012025 0.00420399988
vt 0.753436029 0.0471829996
vt 0.797352016 0.0989099964
vt 0.777984977 0.195381001
vt 0.792244971 0.261969
vt 0.778976023 0.28095299
vt 0.613680005 0.165425003
vt 0.601418018 0.0132820001
vt 0.552722991 0.0780590028
vt 0.520296991 0.0969830006
vt 0.691012025 0.00420399988
vt 0.753436029 0.0471829996
vt 0.797352016 0.0989099964
vt 0.777984977 0.195381001
vt 0.792244971 0.261969
vt 0.778976023 0.28095299
vt 0.912427008 0.0088630002
vt 0.995575011 0.333564013
vt 0.912427008 0.333564013
vt 0.995575011 0.00886099972
vt 0.826014996 0.00928900018
vt 0.826014996 0.333299994
vt 0.826014996 0.379992008
vt 0.912427008 0.379992008
vt 0.995575011 0.379992008
vt 0.995575011 0.00886099972
vt 0.912427008 0.333564013
vt 0.995575011 0.333564013
vt 0.912427008 0.00886099972
vt 0.826014996 0.333299994
vt 0.826014996 0.00886099972
vt 0.995575011 0.379992008
vt 0.912427008 0.379992008
vt 0.826014996 0.379992008
vt 0.00487599988 0.380831003
vt 0.0482800007 0.578378022
vt 0.00487599988 0.578378022
vt 0.0485490002 0.380831003
vt 0.0894439965 0.578378022
vt 0.0891719982 0.380831003
vt 0.132831007 0.578378022
vt 0.132831007 0.380831003
vt 0.00487599988 0.606589019
vt 0.0482800007 0.606589019
vt 0.0894439965 0.606589019
vt 0.132831007 0.606589019
vt 0.0796839967 0.0139459996
vt 0.0159070008 0.146215007
vt 0.0796839967 0.196996003
vt 0.0159070008 0.0647260025
vt 0.159188002 0.178877994
vt 0.159188002 0.0320639983
vt 0.194594994 0.105471
vt 0.912427008 0.0088630002
vt 0.995575011 0.333564013
vt 0.995575011 0.00886099972
vt 0.912427008 0.333564013
vt 0.826014996 0.333299994
vt 0.826014996 0.00928900018
vt 0.826014996 0.379992008
vt 0.912427008 0.379992008
vt 0.995575011 0.379992008
vt 0.995575011 0.00886099972
vt 0.912427008 0.333564013
vt 0.912427008 0.00886099972
vt 0.995575011 0.333564013
vt 0.826014996 0.333299994
vt 0.826014996 0.00886099972
vt 0.995575011 0.379992008
vt 0.912427008 0.379992008
vt 0.826014996 0.379992008
vt 0.0113580003 0.620115995
vt 0.0826419964 0.944553971
vt 0.0830850005 0.620115995
vt 0.0113580003 0.944553971
vt 0.150249004 0.944553971
vt 0.149801999 0.620115995
vt 0.221504003 0.944553971
vt 0.221504003 0.620115995
vt 0.0113580003 0.990885019
vt 0.0826419964 0.990885019
vt 0.150249004 0.990885019
vt 0.221504003 0.990885019
vt 0.309873015 0.805881977
vt 0.246096 0.938151002
vt 0.246096 0.856661975
vt 0.309873015 0.988931
vt 0.389376998 0.97081399
vt 0.389376998 0.824000001
vt 0.424784005 0.897406995
vn -0.912844058 -0.399759768 0.0831134942
vn -0.768362305 -0.639892039 -0.0125517455
vn -0.789153501 -0.610120495 -0.0706380392
vn -0.936099754 -0.16889662 0.308530683
vn -0.920817692 0.126176178 0.369018088
vn -0.895946419 0.0895884076 0.435033252
vn -0.498931665 -0.211403443 0.840461646
vn -0.44934349 -0.626370826 0.636985099
vn -0.401053386 -0.758390989 0.513808612
vn -0.0639140662 -0.887175192 -0.45698487
vn 0.236420816 -0.862102088 -0.448202174
vn 0.49539798 -0.686776356 -0.53190138
vn -0.041734144 -0.920575979 -0.388327346
vn 0.727385042 -0.526306068 -0.44035545
vn 0.710109122 -0.496255007 -0.499475728
vn 0.137570024 -0.964172893 0.226815168
vn 0.569919716 -0.793382454 0.213859297
vn 0.712690455 -0.673733823 0.195333181
vn 0.948898491 0.268706516 -0.165494597
vn 0.884036413 0.464232403 0.0544784073
vn 0.692355411 0.705056991 0.153423025
vn 0.967862796 0.231680749 -0.0978040843
vn 0.233621715 0.84880689 0.474286577
vn -0.0888566506 0.864498871 0.494718302
vn -0.338732529 0.73488427 0.587541814
vn -0.358524783 0.767893747 0.5308476
vn 0.890113976 -0.105325883 0.443400009
vn 0.66920762 0.199152212 0.715890745
vn 0.103775273 0.291935194 0.950791531
vn -0.0811081882 0.26566944 0.960646246
vn 0.276606577 -0.455727606 0.846050324
vn 0.276605579 -0.455725988 0.846051521
vn 0.27660527 -0.455725326 0.846051979
vn 0.276607848 -0.455727773 0.846049819
vn 0.276609402 -0.455730444 0.846047872
vn 0.276609268 -0.455731718 0.846047229
vn 0.276620418 -0.45573951 0.846039387
vn 0.611215982 0.607359938 0.507473082
vn 0.522923497 0.0677922623 0.849679484
vn 0.411219109 0.666177495 0.622178744
vn 0.488366775 -0.0188518542 0.872434812
vn 0.660068367 0.457695967 0.595671178
vn 0.593838342 0.799489856 0.0903990818
vn 0.716051973 0.670720754 0.193399178
vn 0.177083055 -0.622713566 0.76214789
vn 0.168356202 0.215884898 0.961795145
vn 0.18309854 -0.448890731 0.874626798
vn -0.0199183085 0.705259765 0.708669122
vn 0.505873002 -0.591577034 0.627797036
vn 0.610810137 -0.299970053 0.732754354
vn 0.188245488 -0.91161935 0.365395399
vn -0.0360065182 -0.963924031 0.263730911
vn 0.457520402 -0.820474964 0.342776772
vn 0 -0.925839878 0.377916023
vn 0.450688246 -0.866144052 -0.216043019
vn 0.582987888 0.812272564 -0.0183957775
vn 0.973312969 0.117075247 0.197370844
vn 0.863914383 -0.501747948 -0.0435997195
vn -0.0141179432 0.999765343 -0.0164299028
vn -0.457520415 -0.820474958 0.342776769
vn 0.0360065189 -0.963924032 0.263730908
vn -0.177083057 -0.622713565 0.762147891
vn -0.188245488 -0.91161935 0.365395399
vn -0.450688246 -0.866144052 -0.216043019
vn -0.610810137 -0.299970053 0.732754354
vn -0.488366775 -0.0188518542 0.872434812
vn -0.522923503 0.0677922642 0.84967948
vn -0.611215982 0.607359938 0.507473082
vn -0.411219116 0.666177494 0.622178741
vn -0.660068367 0.457695967 0.595671178
vn -0.593838342 0.799489856 0.0903990818
vn -0.716051973 0.670720754 0.193399178
vn -0.168356206 0.215884896 0.961795144
vn -0.183098543 -0.448890731 0.874626798
vn 0.0199183098 0.705259765 0.708669122
vn -0.505873013 -0.591577033 0.627797028
vn -0.582987896 0.812272558 -0.0183957774
vn 0.014117944 0.999765343 -0.0164299028
vn -0.973312969 0.117075247 0.197370844
vn -0.863914383 -0.501747948 -0.0435997195
vn 0.204923734 0.13705049 -0.969135401
vn -0.0892404744 -0.170600032 -0.981290868
vn 0.16002318 0.0556730017 -0.985542033
vn -0.235412467 -0.214668889 -0.94789147
vn 0.274413624 0.275091326 -0.921423857
vn 0.346531621 0.165960558 -0.92324045
vn 0.313822573 0.0715631136 -0.946780922
vn 0.20013692 0.200693504 -0.958992873
vn 0.0857558319 0.243669966 -0.966059463
vn 0 0.254144292 -0.967166314
vn -0.204923736 0.137050491 -0.969135401
vn -0.160023181 0.0556730002 -0.985542033
vn 0.0892404756 -0.170600031 -0.981290868
vn 0.235412477 -0.214668889 -0.947891467
vn -0.274413627 0.275091325 -0.921423857
vn -0.346531623 0.165960559 -0.923240449
vn -0.313822575 0.0715631152 -0.946780921
vn -0.200136921 0.200693505 -0.958992873
vn -0.0857558339 0.243669966 -0.966059462
vn 0 0.254144292 -0.967166314
vn 0.912844058 -0.399759768 0.0831134942
vn 0.768362305 -0.639892039 -0.0125517455
vn 0.936099754 -0.16889662 0.308530683
vn 0.789153501 -0.610120495 -0.0706380392
vn 0.920817692 0.126176178 0.369018088
vn 0.895946419 0.0895884076 0.435033252
vn 0.498931665 -0.211403443 0.840461646
vn 0.44934349 -0.626370826 0.636985099
vn 0.401053386 -0.758390989 0.513808612
vn 0.0639140662 -0.887175192 -0.45698487
vn -0.236420816 -0.862102088 -0.448202174
vn 0.041734144 -0.920575979 -0.388327346
vn -0.49539798 -0.686776356 -0.53190138
vn -0.727385042 -0.526306068 -0.44035545
vn -0.710109122 -0.496255007 -0.499475728
vn -0.137570024 -0.964172893 0.226815168
vn -0.569919716 -0.793382454 0.213859297
vn -0.712690455 -0.673733823 0.195333181
vn -0.948898491 0.268706516 -0.165494597
vn -0.884036413 0.464232403 0.0544784073
vn -0.967862796 0.231680749 -0.0978040843
vn -0.692355411 0.705056991 0.153423025
vn -0.233621715 0.84880689 0.474286577
vn 0.0888566506 0.864498871 0.494718302
vn 0.338732529 0.73488427 0.587541814
vn 0.358524783 0.767893747 0.5308476
vn -0.890113976 -0.105325883 0.443400009
vn -0.66920762 0.199152212 0.715890745
vn -0.103775273 0.291935194 0.950791531
vn 0.0811081882 0.26566944 0.960646246
vn -0.276606577 -0.455727606 0.846050324
vn -0.276605579 -0.455725988 0.846051521
vn -0.276607848 -0.455727773 0.846049819
vn -0.27660527 -0.455725326 0.846051979
vn -0.276609402 -0.455730444 0.846047872
vn -0.276609268 -0.455731718 0.846047229
vn -0.276620418 -0.45573951 0.846039387
vn -0.788688948 -0.526230986 0.317884718
vn -0.442863511 -0.726823384 0.524975884
vn -0.444067387 -0.766916988 0.463295251
vn -0.792050347 -0.448176179 0.414480832
vn -0.976371432 -0.157773668 0.147669553
vn -0.977352934 -0.1811399 0.10940557
vn -0.726069487 0.211507676 0.654284038
vn -0.465829645 -0.101243847 0.879063379
vn -0.329823938 -0.223662137 0.917164881
vn 0.423048346 -0.775563783 0.468541264
vn 0.664051065 -0.591927199 0.45679139
vn 0.864908812 -0.429608951 0.259555189
vn 0.421507601 -0.728671929 0.539785663
vn 0.969660634 -0.161487881 0.183520898
vn 0.97229681 -0.200064209 0.120885172
vn 0.314201442 -0.230134373 0.921040512
vn 0.630971552 0.0760238311 0.772072068
vn 0.722279689 0.197534865 0.662791089
vn 0.788693425 0.526226232 -0.317881478
vn 0.575833679 0.73989701 -0.347804526
vn 0.296579595 0.817428239 -0.493813344
vn 0.785825 0.568354888 -0.243827376
vn -0.276020315 0.863359667 -0.422401316
vn -0.561309472 0.708370819 -0.427951467
vn -0.772253709 0.578158593 -0.263356887
vn -0.774353627 0.541587537 -0.327199326
vn 0.585881702 0.737135714 0.336709921
vn 0.185140738 0.952307156 0.242557185
vn -0.423413434 0.85415297 0.30190026
vn -0.575265357 0.748603533 0.329639985
vn -2.12027893e-05 0.517087071 0.855932801
vn -2.62623647e-05 0.51709031 0.855930845
vn -3.46925543e-05 0.517096207 0.855927281
vn -1.74846001e-05 0.517086651 0.855933056
vn -1.70553709e-05 0.517084442 0.85593439
vn -2.01622503e-05 0.517083252 0.855935108
vn -1.2552816e-05 0.517081686 0.855936054

g ArmorBag_12_00_Bag_submesh_0
usemtl 13
f 1/1/1 3/3/3 2/2/2
f 1/1/1 2/2/2 4/4/4
f 5/5/5 1/1/1 4/4/4
f 5/5/5 4/4/4 6/6/6
f 4/4/4 7/7/7 6/6/6
f 4/4/4 8/8/8 7/7/7
f 8/8/8 4/4/4 2/2/2
f 8/8/8 2/2/2 9/9/9
f 10/10/10 12/12/12 11/11/11
f 10/10/10 11/11/11 13/13/13
f 12/12/12 14/14/14 11/11/11
f 12/12/12 15/15/15 14/14/14
f 16/16/16 13/13/13 11/11/11
f 16/16/16 11/11/11 17/17/17
f 17/17/17 11/11/11 14/14/14
f 17/17/17 14/14/14 18/18/18
f 19/19/19 21/21/21 20/20/20
f 19/19/19 20/20/20 22/22/22
f 21/21/21 23/23/23 20/20/20
f 21/21/21 24/24/24 23/23/23
f 24/24/24 25/25/25 23/23/23
f 24/24/24 26/26/26 25/25/25
f 27/27/27 22/22/22 20/20/20
f 27/27/27 20/20/20 28/28/28
f 28/28/28 20/20/20 23/23/23
f 28/28/28 23/23/23 29/29/29
f 29/29/29 23/23/23 25/25/25
f 29/29/29 25/25/25 30/30/30
f 31/31/31 33/33/33 32/32/32
f 31/31/31 32/32/32 34/34/34
f 31/31/31 34/34/34 35/35/35
f 31/31/31 35/35/35 36/36/36
f 36/36/36 35/35/35 37/37/37
f 38/38/38 40/40/40 39/39/39
f 38/38/38 39/39/39 41/41/41
f 42/42/42 38/38/38 41/41/41
f 43/43/43 38/38/38 42/42/42
f 43/43/43 40/40/40 38/38/38
f 43/43/43 42/42/42 44/44/44
f 39/39/39 45/45/45 41/41/41
f 40/40/40 46/46/46 39/39/39
f 39/39/39 46/46/46 47/47/47
f 40/40/40 48/48/48 46/46/46
f 39/39/39 49/49/49 45/45/45
f 45/45/45 50/50/50 41/41/41
f 41/41/41 50/50/50 42/42/42
f 45/45/45 51/51/51 50/50/50
f 52/52/52 51/51/51 45/45/45
f 53/53/53 52/52/52 45/45/45
f 53/53/53 54/54/54 52/52/52
f 51/51/51 52/52/52 55/55/55
f 43/43/43 56/56/56 40/40/40
f 57/57/57 44/44/44 42/42/42
f 50/50/50 57/57/57 42/42/42
f 58/58/58 50/50/50 51/51/51
f 58/58/58 51/51/51 55/55/55
f 50/50/50 58/58/58 57/57/57
f 40/40/40 56/56/56 59/59/59
f 40/40/40 59/59/59 48/48/48
f 60/60/60 61/61/61 54/54/54
f 60/60/60 62/62/62 61/61/61
f 61/61/61 62/62/62 63/63/63
f 63/63/63 64/64/64 61/61/61
f 62/62/62 65/65/65 63/63/63
f 62/62/62 66/66/66 65/65/65
f 67/67/67 66/66/66 62/62/62
f 68/68/68 66/66/66 67/67/67
f 68/68/68 67/67/67 69/69/69
f 70/70/70 66/66/66 68/68/68
f 66/66/66 70/70/70 65/65/65
f 71/71/71 70/70/70 68/68/68
f 71/71/71 68/68/68 69/69/69
f 71/71/71 72/72/72 70/70/70
f 69/69/69 67/67/67 73/73/73
f 67/67/67 74/74/74 73/73/73
f 69/69/69 73/73/73 75/75/75
f 67/67/67 62/62/62 76/76/76
f 71/71/71 69/69/69 77/77/77
f 69/69/69 75/75/75 78/78/78
f 69/69/69 78/78/78 77/77/77
f 79/79/79 70/70/70 72/72/72
f 65/65/65 70/70/70 79/79/79
f 65/65/65 79/79/79 80/80/80
f 80/80/80 63/63/63 65/65/65
f 80/80/80 64/64/64 63/63/63
f 81/81/81 83/83/83 82/82/82
f 81/81/81 82/82/82 84/84/84
f 83/83/83 81/81/81 85/85/85
f 81/81/81 86/86/86 85/85/85
f 81/81/81 87/87/87 86/86/86
f 81/81/81 88/88/88 87/87/87
f 81/81/81 89/89/89 88/88/88
f 81/81/81 90/90/90 89/89/89
f 91/91/91 93/93/93 92/92/92
f 91/91/91 94/94/94 93/93/93
f 92/92/92 95/95/95 91/91/91
f 91/91/91 95/95/95 96/96/96
f 91/91/91 96/96/96 97/97/97
f 91/91/91 97/97/97 98/98/98
f 91/91/91 98/98/98 99/99/99
f 91/91/91 99/99/99 100/100/100
f 101/101/101 103/103/103 102/102/102
f 101/101/101 102/102/102 104/104/104
f 105/105/105 103/103/103 101/101/101
f 105/105/105 106/106/106 103/103/103
f 103/103/103 106/106/106 107/107/107
f 103/103/103 107/107/107 108/108/108
f 108/108/108 102/102/102 103/103/103
f 108/108/108 109/109/109 102/102/102
f 110/110/110 112/112/112 111/111/111
f 110/110/110 111/111/111 113/113/113
f 113/113/113 111/111/111 114/114/114
f 113/113/113 114/114/114 115/115/115
f 116/116/116 111/111/111 112/112/112
f 116/116/116 117/117/117 111/111/111
f 117/117/117 114/114/114 111/111/111
f 117/117/117 118/118/118 114/114/114
f 119/119/119 121/121/121 120/120/120
f 119/119/119 120/120/120 122/122/122
f 122/122/122 120/120/120 123/123/123
f 122/122/122 123/123/123 124/124/124
f 124/124/124 123/123/123 125/125/125
f 124/124/124 125/125/125 126/126/126
f 127/127/127 120/120/120 121/121/121
f 127/127/127 128/128/128 120/120/120
f 128/128/128 123/123/123 120/120/120
f 128/128/128 129/129/129 123/123/123
f 129/129/129 125/125/125 123/123/123
f 129/129/129 130/130/130 125/125/125
f 131/131/131 133/133/133 132/132/132
f 131/131/131 132/132/132 134/134/134
f 131/131/131 135/135/135 133/133/133
f 131/131/131 136/136/136 135/135/135
f 136/136/136 137/137/137 135/135/135
f 138/138/138 140/140/140 139/139/139
f 138/138/138 139/139/139 141/141/141
f 142/142/142 138/138/138 141/141/141
f 142/142/142 143/143/143 138/138/138
f 141/141/141 144/144/144 142/142/142
f 141/141/141 145/145/145 144/144/144
f 145/145/145 141/141/141 139/139/139
f 145/145/145 139/139/139 146/146/146
f 147/147/147 149/149/149 148/148/148
f 147/147/147 148/148/148 150/150/150
f 149/149/149 151/151/151 148/148/148
f 149/149/149 152/152/152 151/151/151
f 153/153/153 150/150/150 148/148/148
f 153/153/153 148/148/148 154/154/154
f 154/154/154 148/148/148 151/151/151
f 154/154/154 151/151/151 155/155/155
f 156/156/156 158/158/158 157/157/157
f 156/156/156 157/157/157 159/159/159
f 158/158/158 160/160/160 157/157/157
f 158/158/158 161/161/161 160/160/160
f 161/161/161 162/162/162 160/160/160
f 161/161/161 163/163/163 162/162/162
f 164/164/164 159/159/159 157/157/157
f 164/164/164 157/157/157 165/165/165
f 165/165/165 157/157/157 160/160/160
f 165/165/165 160/160/160 166/166/166
f 166/166/166 160/160/160 162/162/162
f 166/166/166 162/162/162 167/167/167
f 168/168/168 170/170/170 169/169/169
f 168/168/168 169/169/169 171/171/171
f 168/168/168 171/171/171 172/172/172
f 168/168/168 172/172/172 173/173/173
f 173/173/173 172/172/172 174/174/174
