# Generated from legacy Unity YAML Mesh assets without Unity.
mtllib ArmorBag_01.mtl

o ArmorBag_01_00_Bag
v 0.302354618 -0.159597576 -0.147715345
v 0.20244868 -0.0232098401 -0.0112477988
v 0.255679562 0.00953665376 -0.162258387
v 0.27615638 -0.210779592 -0.0313575715
v 0.172601028 0.0833803117 -0.0297934189
v 0.0708762471 0.0161316395 -0.0149006248
v 0.0928338457 0.097461015 -0.0483390987
v 0.198524236 0.11346063 -0.15845792
v 0.200531675 -0.247500613 -0.0484133065
v 0.172392084 -0.171994358 0.0402272195
v 0.0920738418 -0.445306718 -0.0460041538
v 3.308633e-08 -0.455113202 -0.040205799
v 0.24575056 -0.207581386 -0.154994309
v 0.0345663231 -0.515233099 -0.214350373
v 0.133959188 -0.435154378 -0.209967732
v 0.071089818 0.0576065183 -0.153453603
v 0.101082696 0.13282007 -0.154657468
v 1.21710428e-08 0.0576065183 -0.149792165
v 1.21710428e-08 0.0161315948 -0.01490058
v 3.41819407e-08 -0.194504648 0.0682523698
v 3.308633e-08 -0.455113202 -0.040205799
v 3.41819514e-08 -0.527409673 -0.214350358
v 3.308633e-08 -0.455113202 -0.040205799
v -0.0345662731 -0.515233099 -0.214350343
v 3.308633e-08 -0.455113202 -0.040205799
v -0.13395916 -0.435154378 -0.209967732
v -0.0920738142 -0.445306718 -0.0460041538
v 3.308633e-08 -0.455113202 -0.040205799
v -0.172392071 -0.171994314 0.0402272642
v -0.200531782 -0.247500628 -0.0484133065
v -0.276156471 -0.210779563 -0.0313576162
v -0.30235459 -0.159597576 -0.147715345
v -0.202448712 -0.0232097954 -0.0112476945
v -0.255679594 0.00953665376 -0.162258387
v -0.245750533 -0.207581341 -0.154994279
v -0.0708762195 0.0161316395 -0.01490058
v -0.17260103 0.0833803415 -0.0297934189
v -0.0928338628 0.097461015 -0.0483390763
v -0.101082714 0.13282007 -0.154657453
v -0.198524268 0.1134606 -0.15845792
v -0.0710898574 0.0576064587 -0.153453588
v 1.21710428e-08 0.0576065183 -0.149792165
v 1.21710428e-08 0.0161315948 -0.01490058
v 3.41819407e-08 -0.194504648 0.0682523698
v 3.308633e-08 -0.455113202 -0.040205799
v 0.24575056 -0.207581386 -0.154994309
v 0.302354618 -0.159597576 -0.147715345
v -9.8398548e-09 -0.160154134 -0.349972337
v 0.255679562 0.00953665376 -0.162258387
v 0.133959188 -0.435154378 -0.209967732
v 0.0345663231 -0.515233099 -0.214350373
v 3.41819514e-08 -0.527409673 -0.214350358
v -9.8398548e-09 -0.160154134 -0.349972337
v 0.071089818 0.0576065183 -0.153453603
v 1.21710428e-08 0.0576065183 -0.149792165
v 0.101082696 0.13282007 -0.154657468
v -9.8398548e-09 -0.160154134 -0.349972337
v -0.0345662731 -0.515233099 -0.214350343
v -0.13395916 -0.435154378 -0.209967732
v -0.245750533 -0.207581341 -0.154994279
v -0.30235459 -0.159597576 -0.147715345
v -0.255679594 0.00953665376 -0.162258387
v -9.8398548e-09 -0.160154134 -0.349972337
v -0.0710898574 0.0576064587 -0.153453588
v 1.21710428e-08 0.0576065183 -0.149792165
v -0.101082714 0.13282007 -0.154657453
v 0.255679562 0.00953665376 -0.162258387
v 0.198524236 0.11346063 -0.15845792
v 0.101082696 0.13282007 -0.154657468
v -0.255679594 0.00953665376 -0.162258387
v -0.101082714 0.13282007 -0.154657453
v -0.198524268 0.1134606 -0.15845792
vt 0.829796016 0.244391993
vt 0.785010993 0.572857022
vt 0.993360996 0.509763002
vt 0.691969991 0.319712996
vt 0.800769985 0.669822395
vt 0.734826028 0.772193015
vt 0.816528976 0.777073979
vt 0.978183091 0.633397222
vt 0.582260013 0.282637
vt 0.606386006 0.461313993
vt 0.305159986 0.223201007
vt 0.189952001 0.324052989
vt 0.726204991 0.165450007
vt 0.0696669966 0.0915599987
vt 0.315829992 0.0112129999
vt 0.870204985 0.921976984
vt 0.95786202 0.842750013
vt 0.793242991 0.991537988
vt 0.657863975 0.841754019
vt 0.422122002 0.580927014
vt 0.189952001 0.324052989
vt 0.0162840001 0.131905004
vt 0.189952001 0.324052989
vt 0.0696669966 0.0915599987
vt 0.189952001 0.324052989
vt 0.315829992 0.0112129999
vt 0.305159986 0.223201007
vt 0.189952001 0.324052989
vt 0.606386006 0.461313993
vt 0.582260013 0.282637
vt 0.691969991 0.319712996
vt 0.829796016 0.244391993
vt 0.785010993 0.572857022
vt 0.993360996 0.509763002
vt 0.726204991 0.165450007
vt 0.734826028 0.772193015
vt 0.800769985 0.669822395
vt 0.816528976 0.777073979
vt 0.95786202 0.842750013
vt 0.978183091 0.633397162
vt 0.870204985 0.921976984
vt 0.793242991 0.991537988
vt 0.657863975 0.841754019
vt 0.422122002 0.580927014
vt 0.189952001 0.324052989
vt 0.0917809978 0.813627005
vt 0.0917579979 0.893316984
vt 0.386153996 0.616339982
vt 0.261451006 0.987070978
vt 0.0131670004 0.551321983
vt 0.0353000015 0.395244986
vt 0.0637150034 0.359564006
vt 0.386153996 0.616339982
vt 0.492734998 0.92583102
vt 0.559243023 0.886394978
vt 0.465030998 0.989042997
vt 0.386153996 0.616339982
vt 0.0353000015 0.395244986
vt 0.0131670004 0.551321983
vt 0.0917809978 0.813627005
vt 0.0917579979 0.893316984
vt 0.261451006 0.987070978
vt 0.386153996 0.616339982
vt 0.492734998 0.92583102
vt 0.559243023 0.886394978
vt 0.465030998 0.989042997
vt 0.261451006 0.987070978
vt 0.363241017 0.988057017
vt 0.465030998 0.989042997
vt 0.261451006 0.987070978
vt 0.465030998 0.989042997
vt 0.363241017 0.988057017
vn 0.963601799 0.0043470808 0.267306335
vn 0.683192511 0.296252773 0.667444595
vn 0.875497817 0.333295797 0.349882102
vn 0.82145043 -0.100051935 0.561434592
vn 0.555328382 0.543447518 0.629503918
vn -0.123624847 0.53400787 0.836392546
vn -0.416781668 0.820265456 0.391736674
vn 0.487685923 0.815908746 0.310572631
vn 0.780832724 -0.564609876 0.267424653
vn 0.271242461 -0.0841504371 0.958825444
vn 0.616794448 -0.618271819 0.487139166
vn 0.114975226 -0.621141528 0.775218614
vn 0.828372121 -0.539937574 0.149221461
vn 0.399602384 -0.882827155 0.246848435
vn 0.816502169 -0.550474198 0.174075748
vn -0.728604242 0.661824415 0.176420809
vn -0.378248015 0.886789814 0.265579113
vn 0.00748654301 0.956910629 0.290286066
vn 0.0676176981 0.466338803 0.882018122
vn 0.166957416 -0.0528687842 0.984545638
vn 0.19635978 -0.376746616 0.905265058
vn 1.65289611e-07 -0.92357279 0.383423137
vn 0.309382495 -0.878260166 0.36461151
vn -0.399602245 -0.882827208 0.24684847
vn -0.309382062 -0.878260297 0.36461156
vn -0.816502151 -0.550474359 0.174075321
vn -0.616794147 -0.618271945 0.487139387
vn -0.114975177 -0.621141497 0.775218646
vn -0.271242228 -0.0841506248 0.958825493
vn -0.780832681 -0.564609957 0.267424607
vn -0.821450514 -0.100051879 0.561434479
vn -0.96360197 0.00434725091 0.267305712
vn -0.711048813 0.319286758 0.626470711
vn -0.860513796 0.34206189 0.37750453
vn -0.828372391 -0.539937479 0.149220308
vn 0.12362512 0.534008053 0.836392389
vn -0.348562762 0.674939779 0.650353978
vn 0.650318165 0.646366727 0.399119454
vn 0.176149332 0.947710546 0.26611301
vn -0.735822295 0.586905392 0.33779818
vn 0.728604079 0.661824698 0.17642042
vn -0.00748681406 0.956910693 0.290285847
vn -0.0676173016 0.466338745 0.882018183
vn -0.16695713 -0.0528688016 0.984545685
vn -0.196359587 -0.376746629 0.905265094
vn 0.589288851 -0.182305831 -0.787085277
vn 0.555288809 -0.0531615592 -0.829956738
vn 0.503274623 -0.14627666 -0.851655912
vn 0.328799067 0.336496723 -0.882417774
vn 0.504635788 -0.183649031 -0.843573207
vn 0.252727547 -0.323657323 -0.911797524
vn -4.04396218e-07 -0.346418893 -0.938079928
vn 0.0858295414 0.651909576 -0.753423649
vn 0.0664175496 0.565355962 -0.822168684
vn -0.0378903137 0.676278219 -0.735671186
vn -0.0469359458 0.00272837224 -0.998894175
vn -0.503274685 -0.146276806 -0.851655851
vn -0.252727546 -0.323657434 -0.911797485
vn -0.504635832 -0.183649078 -0.84357317
vn -0.589288978 -0.182305935 -0.787085158
vn -0.555288861 -0.0531618372 -0.829956685
vn -0.328799004 0.336496715 -0.882417801
vn -0.0858295507 0.651909698 -0.753423542
vn -0.0664175386 0.56535605 -0.822168625
vn 0.0378895598 0.676278234 -0.735671211
vn 0.0469360249 0.00272838777 -0.998894171
vn -0.0356022771 0.016960961 -0.999222099
vn -0.0356022771 0.016960961 -0.999222099
vn -0.0356022771 0.016960961 -0.999222099
vn 0.0356024355 0.0169608786 -0.999222095
vn 0.0356024355 0.0169608786 -0.999222095
vn 0.0356024355 0.0169608786 -0.999222095

g ArmorBag_01_00_Bag_submesh_0
usemtl 02
f 1/1/1 3/3/3 2/2/2
f 1/1/1 2/2/2 4/4/4
f 3/3/3 5/5/5 2/2/2
f 6/6/6 2/2/2 5/5/5
f 6/6/6 5/5/5 7/7/7
f 3/3/3 8/8/8 5/5/5
f 8/8/8 7/7/7 5/5/5
f 9/9/9 1/1/1 4/4/4
f 9/9/9 4/4/4 10/10/10
f 10/10/10 4/4/4 2/2/2
f 10/10/10 2/2/2 6/6/6
f 11/11/11 9/9/9 10/10/10
f 12/12/12 11/11/11 10/10/10
f 9/9/9 13/13/13 1/1/1
f 14/14/14 11/11/11 12/12/12
f 15/15/15 11/11/11 14/14/14
f 9/9/9 11/11/11 15/15/15
f 9/9/9 15/15/15 13/13/13
f 16/16/16 6/6/6 7/7/7
f 16/16/16 7/7/7 17/17/17
f 8/8/8 17/17/17 7/7/7
f 18/18/18 6/6/6 16/16/16
f 18/18/18 19/19/19 6/6/6
f 10/10/10 6/6/6 19/19/19
f 10/10/10 19/19/19 20/20/20
f 21/21/21 10/10/10 20/20/20
f 14/14/14 23/23/23 22/22/22
f 24/24/24 22/22/22 25/25/25
f 26/26/26 24/24/24 27/27/27
f 24/24/24 28/28/28 27/27/27
f 28/28/28 29/29/29 27/27/27
f 27/27/27 29/29/29 30/30/30
f 30/30/30 26/26/26 27/27/27
f 30/30/30 29/29/29 31/31/31
f 30/30/30 31/31/31 32/32/32
f 32/32/32 31/31/31 33/33/33
f 29/29/29 33/33/33 31/31/31
f 32/32/32 33/33/33 34/34/34
f 30/30/30 32/32/32 35/35/35
f 30/30/30 35/35/35 26/26/26
f 29/29/29 36/36/36 33/33/33
f 36/36/36 37/37/37 33/33/33
f 36/36/36 38/38/38 37/37/37
f 39/39/39 37/37/37 38/38/38
f 39/39/39 40/40/40 37/37/37
f 40/40/40 34/34/34 33/33/33
f 40/40/40 33/33/33 37/37/37
f 41/41/41 39/39/39 38/38/38
f 41/41/41 38/38/38 36/36/36
f 42/42/42 41/41/41 36/36/36
f 42/42/42 36/36/36 43/43/43
f 29/29/29 43/43/43 36/36/36
f 29/29/29 44/44/44 43/43/43
f 45/45/45 44/44/44 29/29/29
f 46/46/46 48/48/48 47/47/47
f 48/48/48 49/49/49 47/47/47
f 50/50/50 48/48/48 46/46/46
f 48/48/48 50/50/50 51/51/51
f 48/48/48 51/51/51 52/52/52
f 53/53/53 54/54/54 49/49/49
f 53/53/53 55/55/55 54/54/54
f 49/49/49 54/54/54 56/56/56
f 57/57/57 52/52/52 58/58/58
f 57/57/57 58/58/58 59/59/59
f 59/59/59 60/60/60 57/57/57
f 60/60/60 61/61/61 57/57/57
f 57/57/57 61/61/61 62/62/62
f 63/63/63 62/62/62 64/64/64
f 63/63/63 64/64/64 65/65/65
f 62/62/62 66/66/66 64/64/64
f 67/67/67 69/69/69 68/68/68
f 70/70/70 72/72/72 71/71/71
