# Generated from legacy Unity YAML Mesh assets without Unity.
mtllib ArmorBag_02.mtl

o ArmorBag_02_00_Bag
v 0.131012395 -0.203905302 -0.116235226
v -1.10376327e-08 -0.267479718 -0.142036852
v 0.104846373 -0.211729699 -0.0408918411
v 0.185461238 -0.122967106 -0.0816525489
v 0.141273042 -0.13106533 -0.0157889709
v -1.10376327e-08 -0.202953815 -0.0190471195
v 0.0301486156 -0.106239188 0.0229832232
v -1.10376327e-08 -0.106239188 0.0229832232
v -1.10376327e-08 -0.0171948887 -0.0819249272
v 0.0301486156 -0.0171948887 -0.0819249272
v 0.0709281146 0.00543773621 -0.00461010933
v 0.0664476319 0.0574546248 -0.0819249272
v 0.115706423 0.000127011538 -0.02541155
v 0.135919049 0.0164903238 -0.0778647602
v -1.10376327e-08 -0.0935532689 -0.202808887
v -1.10376327e-08 -0.267479718 -0.142036852
v 0.131012395 -0.203905302 -0.116235226
v 0.135919049 0.0164903238 -0.0778647602
v 0.185461238 -0.122967106 -0.0816525489
v -1.10376327e-08 -0.0935532689 -0.202808887
v 0.0301486156 -0.0171948887 -0.0819249272
v 0.0664476319 0.0574546248 -0.0819249272
v -0.131012425 -0.203905302 -0.116235226
v -0.104846403 -0.211729699 -0.0408918411
v -1.10376327e-08 -0.267479718 -0.142036852
v -0.185461268 -0.122967106 -0.0816525489
v -0.141273072 -0.13106533 -0.0157889709
v -1.10376327e-08 -0.202953815 -0.0190471195
v -0.0301486411 -0.106239188 0.0229832232
v -1.10376327e-08 -0.106239188 0.0229832232
v -1.10376327e-08 -0.0171948887 -0.0819249272
v -0.0301486411 -0.0171948887 -0.0819249272
v -0.0709281356 0.00543773621 -0.00461010933
v -0.0664476529 0.0574546248 -0.0819249272
v -0.115706453 0.000127011538 -0.02541155
v -0.135919079 0.0164903238 -0.0778647602
v -1.10376327e-08 -0.0935532689 -0.202808887
v -0.131012425 -0.203905302 -0.116235226
v -1.10376327e-08 -0.267479718 -0.142036852
v -0.135919079 0.0164903238 -0.0778647602
v -0.185461268 -0.122967106 -0.0816525489
v -1.10376327e-08 -0.0935532689 -0.202808887
v -0.0301486411 -0.0171948887 -0.0819249272
v -0.0664476529 0.0574546248 -0.0819249272
v 0.0690618783 -0.0237733975 -0.0371993288
v -0.0690618993 -0.00346829742 -0.0641975999
v -0.0690618993 -0.0237733975 -0.0371993288
v 0.0690618783 -0.00346829742 -0.0641975999
v -0.0690618993 0.0235297412 -0.0438925266
v 0.0690618783 0.0235297412 -0.0438925266
v 0.0690618783 0.0235297412 -0.0438925266
v -0.0690618993 0.00322484672 -0.0168942556
v -0.0690618993 0.0235297412 -0.0438925266
v 0.0690618783 0.00322484672 -0.0168942556
v -0.0690618993 -0.0237733975 -0.0371993288
v 0.0690618783 -0.0237733975 -0.0371993288
vt 0.487940997 0.0520480014
vt 0.010028 0.0118709998
vt 0.405887008 0.25356701
vt 0.764238 0.213505998
vt 0.613147974 0.366403997
vt 0.184567004 0.438452005
vt 0.441529989 0.643018007
vt 0.379707009 0.69690901
vt 0.651859999 0.982713997
vt 0.720800996 0.935750008
vt 0.754755974 0.707843006
vt 0.955069005 0.834728003
vt 0.838819027 0.614099979
vt 0.987975001 0.59029597
vt 0.295783997 0.646899998
vt 0.0229180008 0.528943002
vt 0.0104419999 0.767239988
vt 0.294658005 0.993687987
vt 0.0659549981 0.924736023
vt 0.295783997 0.646899998
vt 0.407561004 0.854493022
vt 0.424795985 0.987312019
vt 0.487940997 0.0520480014
vt 0.405887008 0.25356701
vt 0.010028 0.0118709998
vt 0.764238 0.213505998
vt 0.613147974 0.366403997
vt 0.184567004 0.438452005
vt 0.441529989 0.643018007
vt 0.379707009 0.69690901
vt 0.651859999 0.982713997
vt 0.720800996 0.935750008
vt 0.754755974 0.707843006
vt 0.955069005 0.834728003
vt 0.838819027 0.614099979
vt 0.987975001 0.59029597
vt 0.295783997 0.646899998
vt 0.0104419999 0.767239988
vt 0.0229180008 0.528943002
vt 0.294658005 0.993687987
vt 0.0659549981 0.924736023
vt 0.295783997 0.646899998
vt 0.407561004 0.854493022
vt 0.424795985 0.987312019
vt 0.833289027 0.0127069997
vt 0.902531981 0.281553
vt 0.833289027 0.281553
vt 0.902531981 0.0127069997
vt 0.988336027 0.281553
vt 0.988336027 0.0127069997
vt 0.988336027 0.0127069997
vt 0.902531981 0.281553
vt 0.988336027 0.281553
vt 0.902531981 0.0127069997
vt 0.833289027 0.281553
vt 0.833289027 0.0127069997
vn 0.585566311 -0.80167718 0.120107429
vn 0.21159365 -0.931977001 0.294358619
vn 0.414032892 -0.781405944 0.466884906
vn 0.856142796 -0.219913371 0.467608407
vn 0.546813977 -0.107211723 0.83036144
vn 0.119529896 -0.611681301 0.782022116
vn 0.0288968039 0.13824179 0.98997686
vn 0 0.320621591 0.947207366
vn 0 0.762396827 0.647109788
vn -0.747949569 0.509938529 0.424893091
vn -0.538129831 0.536136056 0.650364831
vn -0.180108354 0.827129168 0.532370473
vn 0.532033902 0.331227084 0.779248706
vn 0.783448337 0.363302849 0.504202086
vn 0.517852977 -0.0549429588 -0.853703441
vn 0.326965629 -0.311725956 -0.892143714
vn 0.49318087 -0.0196297069 -0.869705297
vn 0.387574843 0.302749064 -0.870705889
vn 0.358483101 0.152366635 -0.921018064
vn -0.251147915 0.845412987 -0.471382653
vn -0.183002783 0.662205431 -0.726631921
vn 0.0453626513 -0.0220580087 -0.998727027
vn -0.585566297 -0.801677191 0.120107423
vn -0.414032875 -0.78140595 0.46688491
vn -0.211593636 -0.931977004 0.294358619
vn -0.856142796 -0.219913371 0.467608407
vn -0.546813963 -0.107211729 0.830361449
vn -0.119529888 -0.611681303 0.782022116
vn -0.0288968021 0.138241785 0.98997686
vn 0 0.320621591 0.947207366
vn 0 0.762396827 0.647109788
vn 0.747949583 0.509938515 0.424893083
vn 0.538129815 0.53613605 0.65036485
vn 0.180108341 0.827129175 0.532370466
vn -0.532033867 0.331227108 0.779248719
vn -0.783448328 0.363302866 0.504202087
vn -0.517852955 -0.0549429593 -0.853703455
vn -0.493180852 -0.0196297086 -0.869705307
vn -0.326965612 -0.311725958 -0.892143719
vn -0.387574828 0.302749066 -0.870705895
vn -0.358483101 0.152366635 -0.921018064
vn 0.251147906 0.845412991 -0.471382651
vn 0.183002774 0.662205429 -0.726631925
vn -0.045362648 -0.0220580044 -0.998727027
vn 0 -0.799197952 -0.601067911
vn 0 -0.44602015 -0.895022919
vn 0 -0.799197952 -0.601067911
vn 0 0.180199698 -0.983630047
vn 0 0.60107071 -0.799195847
vn 0 0.60107071 -0.799195847
vn 0 0.799200876 0.601064023
vn 0 0.446021237 0.895022378
vn 0 0.799200876 0.601064023
vn 0 -0.180199216 0.983630135
vn 0 -0.601067786 0.799198046
vn 0 -0.601067786 0.799198046

g ArmorBag_02_00_Bag_submesh_0
usemtl 03
f 1/1/1 3/3/3 2/2/2
f 4/4/4 3/3/3 1/1/1
f 4/4/4 5/5/5 3/3/3
f 6/6/6 3/3/3 5/5/5
f 2/2/2 3/3/3 6/6/6
f 6/6/6 5/5/5 7/7/7
f 6/6/6 7/7/7 8/8/8
f 9/9/9 8/8/8 7/7/7
f 9/9/9 7/7/7 10/10/10
f 10/10/10 7/7/7 11/11/11
f 10/10/10 11/11/11 12/12/12
f 12/12/12 11/11/11 13/13/13
f 7/7/7 5/5/5 13/13/13
f 7/7/7 13/13/13 11/11/11
f 14/14/14 13/13/13 5/5/5
f 14/14/14 5/5/5 4/4/4
f 12/12/12 13/13/13 14/14/14
f 15/15/15 17/17/17 16/16/16
f 17/17/17 15/15/15 18/18/18
f 17/17/17 18/18/18 19/19/19
f 20/20/20 21/21/21 18/18/18
f 18/18/18 21/21/21 22/22/22
f 23/23/23 25/25/25 24/24/24
f 26/26/26 23/23/23 24/24/24
f 26/26/26 24/24/24 27/27/27
f 28/28/28 27/27/27 24/24/24
f 25/25/25 28/28/28 24/24/24
f 28/28/28 29/29/29 27/27/27
f 28/28/28 30/30/30 29/29/29
f 31/31/31 29/29/29 30/30/30
f 31/31/31 32/32/32 29/29/29
f 32/32/32 33/33/33 29/29/29
f 32/32/32 34/34/34 33/33/33
f 34/34/34 35/35/35 33/33/33
f 29/29/29 33/33/33 35/35/35
f 29/29/29 35/35/35 27/27/27
f 36/36/36 26/26/26 27/27/27
f 36/36/36 27/27/27 35/35/35
f 34/34/34 36/36/36 35/35/35
f 37/37/37 39/39/39 38/38/38
f 38/38/38 40/40/40 37/37/37
f 38/38/38 41/41/41 40/40/40
f 42/42/42 40/40/40 43/43/43
f 40/40/40 44/44/44 43/43/43
f 45/45/45 47/47/47 46/46/46
f 45/45/45 46/46/46 48/48/48
f 48/48/48 46/46/46 49/49/49
f 48/48/48 49/49/49 50/50/50
f 51/51/51 53/53/53 52/52/52
f 51/51/51 52/52/52 54/54/54
f 54/54/54 52/52/52 55/55/55
f 54/54/54 55/55/55 56/56/56
