<?xml version="1.0" encoding="utf-8"?>
<COLLADA xmlns="http://www.collada.org/2005/11/COLLADASchema" version="1.4.1">
  <asset>
    <created>2016-02-19T23:32:55Z</created>
    <modified>2016-02-19T23:32:55Z</modified>
  </asset>
  <library_images>
    <image id="Image">
      <init_from>helmet.png</init_from>
    </image>
    <image id="Image1">
      <init_from>equip.png</init_from>
    </image>
    <image id="Image2">
      <init_from>armor.png</init_from>
    </image>
  </library_images>
  <library_materials>
    <material id="VisualMaterial" name="helmet_001_002_01_m">
      <instance_effect url="#Effect"/>
      <extra>
        <technique profile="FCOLLADA">
          <user_properties>helmet_001_002_01_m</user_properties>
        </technique>
      </extra>
    </material>
    <material id="VisualMaterial1" name="equip_002_01_m">
      <instance_effect url="#Effect1"/>
      <extra>
        <technique profile="FCOLLADA">
          <user_properties>equip_002_01_m</user_properties>
        </technique>
      </extra>
    </material>
    <material id="VisualMaterial2" name="role_001_m">
      <instance_effect url="#Effect2"/>
      <extra>
        <technique profile="FCOLLADA">
          <user_properties>role_001_m</user_properties>
        </technique>
      </extra>
    </material>
  </library_materials>
  <library_effects>
    <effect id="Effect" name="C__Users_Eric_Desktop_dump_callofminiinfinity_app_Data_Texture2D_helmet_001_002_01_m__320755_pvr">
      <profile_COMMON>
        <newparam sid="Image-surface">
          <surface type="2D">
            <init_from>Image</init_from>
            <format>A8R8G8B8</format>
          </surface>
        </newparam>
        <newparam sid="Image-sampler">
          <sampler2D>
            <source>Image-surface</source>
            <wrap_s>WRAP</wrap_s>
            <wrap_t>WRAP</wrap_t>
            <minfilter>NONE</minfilter>
            <magfilter>NONE</magfilter>
            <mipfilter>NONE</mipfilter>
          </sampler2D>
        </newparam>
        <technique sid="common">
          <phong>
            <emission>
              <color>0 0 0 1</color>
            </emission>
            <ambient>
              <color>0 0 0 1</color>
            </ambient>
            <diffuse>
              <texture texture="Image-sampler" texcoord=""/>
            </diffuse>
            <specular>
              <color>1 1 1 1</color>
            </specular>
            <shininess>
              <float>0</float>
            </shininess>
            <transparent opaque="A_ONE">
              <color>0 0 0 1</color>
            </transparent>
            <transparency>
              <float>1</float>
            </transparency>
            <index_of_refraction>
              <float>1.55</float>
            </index_of_refraction>
          </phong>
          <extra>
            <technique profile="FCOLLADA">
              <spec_level>
                <float>0</float>
              </spec_level>
            </technique>
          </extra>
        </technique>
      </profile_COMMON>
      <extra>
        <technique profile="FCOLLADA">
          <user_properties>C:%5CUsers%5CEric%5CDesktop%5Cdump%5Ccallofminiinfinity.app%5CData%5CTexture2D%5Chelmet_001_002_01_m #320755.pvr</user_properties>
        </technique>
      </extra>
    </effect>
    <effect id="Effect1" name="C__Users_Eric_Desktop_dump_callofminiinfinity_app_Data_Texture2D_equip_002_01_m__320640_pvr">
      <profile_COMMON>
        <newparam sid="Image1-surface">
          <surface type="2D">
            <init_from>Image1</init_from>
            <format>A8R8G8B8</format>
          </surface>
        </newparam>
        <newparam sid="Image1-sampler">
          <sampler2D>
            <source>Image1-surface</source>
            <wrap_s>WRAP</wrap_s>
            <wrap_t>WRAP</wrap_t>
            <minfilter>NONE</minfilter>
            <magfilter>NONE</magfilter>
            <mipfilter>NONE</mipfilter>
          </sampler2D>
        </newparam>
        <technique sid="common">
          <phong>
            <emission>
              <color>0 0 0 1</color>
            </emission>
            <ambient>
              <color>0 0 0 1</color>
            </ambient>
            <diffuse>
              <texture texture="Image1-sampler" texcoord=""/>
            </diffuse>
            <specular>
              <color>1 1 1 1</color>
            </specular>
            <shininess>
              <float>0</float>
            </shininess>
            <transparent opaque="A_ONE">
              <color>0 0 0 1</color>
            </transparent>
            <transparency>
              <float>1</float>
            </transparency>
            <index_of_refraction>
              <float>1.55</float>
            </index_of_refraction>
          </phong>
          <extra>
            <technique profile="FCOLLADA">
              <spec_level>
                <float>0</float>
              </spec_level>
            </technique>
          </extra>
        </technique>
      </profile_COMMON>
      <extra>
        <technique profile="FCOLLADA">
          <user_properties>C:%5CUsers%5CEric%5CDesktop%5Cdump%5Ccallofminiinfinity.app%5CData%5CTexture2D%5Cequip_002_01_m #320640.pvr</user_properties>
        </technique>
      </extra>
    </effect>
    <effect id="Effect2" name="C__Users_Eric_Desktop_dump_callofminiinfinity_app_Data_Texture2D_role_001_m__320768_pvr">
      <profile_COMMON>
        <newparam sid="Image2-surface">
          <surface type="2D">
            <init_from>Image2</init_from>
            <format>A8R8G8B8</format>
          </surface>
        </newparam>
        <newparam sid="Image2-sampler">
          <sampler2D>
            <source>Image2-surface</source>
            <wrap_s>WRAP</wrap_s>
            <wrap_t>WRAP</wrap_t>
            <minfilter>NONE</minfilter>
            <magfilter>NONE</magfilter>
            <mipfilter>NONE</mipfilter>
          </sampler2D>
        </newparam>
        <technique sid="common">
          <phong>
            <emission>
              <color>0 0 0 1</color>
            </emission>
            <ambient>
              <color>0 0 0 1</color>
            </ambient>
            <diffuse>
              <texture texture="Image2-sampler" texcoord=""/>
            </diffuse>
            <specular>
              <color>1 1 1 1</color>
            </specular>
            <shininess>
              <float>0</float>
            </shininess>
            <transparent opaque="A_ONE">
              <color>0 0 0 1</color>
            </transparent>
            <transparency>
              <float>1</float>
            </transparency>
            <index_of_refraction>
              <float>1.55</float>
            </index_of_refraction>
          </phong>
          <extra>
            <technique profile="FCOLLADA">
              <spec_level>
                <float>0</float>
              </spec_level>
            </technique>
          </extra>
        </technique>
      </profile_COMMON>
      <extra>
        <technique profile="FCOLLADA">
          <user_properties>C:%5CUsers%5CEric%5CDesktop%5Cdump%5Ccallofminiinfinity.app%5CData%5CTexture2D%5Crole_001_m #320768.pvr</user_properties>
        </technique>
      </extra>
    </effect>
  </library_effects>
  <library_geometries>
    <geometry id="Geometry" name="helmet_002">
      <mesh>
        <source id="GeometrySource" name="helmet_002Pos">
          <float_array id="GeometrySource-array" count="426">0.320835 1.51081 0.311844 0.276679 1.32433 0.290279 0.346878 1.40646 0.150218 0.369095 1.5484 0.083385 0.166374 1.30176 0.401192 0.204355 1.49208 0.421727 0.335669 1.63425 0.316745 0.239875 1.62554 0.432028 0.000475 1.48937 0.454719 0.000552 1.62569 0.465925 0.000395 1.34703 0.422196 0.357611 1.63496 0.189693 0.38084 1.8915 0.284461 0.268655 2.02976 0.263661 0.199513 1.88929 0.445611 0.314502 2.05267 0.004542 0.431237 1.91054 -0.00273 0.000826 2.10976 0.003662 0.000802 2.0696 0.294815 0.270916 2.02947 -0.250983 0.000804 2.06927 -0.295095 0.000738 1.95106 -0.472734 0.280534 1.94337 -0.381958 0.39416 1.91043 -0.242208 0.418966 1.66012 -0.304213 0.452776 1.59068 -0.038583 0.416683 1.62969 0.188911 0.420232 1.54206 0.110676 0.308938 1.61733 0.416144 0.191245 1.61745 0.525009 0.000634 1.76694 -0.568674 0.274348 1.73393 -0.471851 0.0007 1.88942 0.476649 0.000547 1.61757 0.541451 0.418966 1.66012 -0.304213 0.351808 1.22867 -0.197612 0.225336 1.22867 -0.323855 0.269022 1.72606 -0.423832 0.000331 1.22876 -0.389073 0.000625 1.75019 -0.518716 0.452776 1.59068 -0.038583 0.360434 1.22201 0.005578 0.420232 1.54206 0.110676 0.391028 1.40849 0.163576 0.276061 1.20901 0.328684 0.308047 1.32866 0.327073 0.129823 1.19906 0.405516 0.169058 1.31132 0.429544 0.104071 1.37973 0.451216 0.000307 1.19134 0.420305 0.000413 1.37979 0.459392 0.416683 1.62969 0.188911 0.341492 1.65288 0.189578 0.36081 1.54371 0.097484 0.420232 1.54206 0.110676 0.420232 1.54206 0.110676 0.36081 1.54371 0.097484 0.340858 1.41407 0.146636 0.391028 1.40849 0.163576 0.308047 1.32866 0.327073 0.282951 1.33816 0.291566 0.162845 1.32626 0.405478 0.169058 1.31132 0.429544 0.169058 1.31132 0.429544 0.162845 1.32626 0.405478 0.104138 1.4071 0.430293 0.104071 1.37973 0.451216 0.000428 1.40603 0.43864 0.000413 1.37979 0.459392 0.000625 1.75019 -0.518716 0.000634 1.76694 -0.568674 0.274348 1.73393 -0.471851 0.269022 1.72606 -0.423832 0.418966 1.66012 -0.304213 0.351808 1.22867 -0.197612 0.000307 1.19134 0.420305 0.225336 1.22867 -0.323855 0.000331 1.22876 -0.389073 0.360434 1.22201 0.005578 0.276061 1.20901 0.328684 0.129823 1.19906 0.405516 -0.319859 1.51117 0.311842 -0.368075 1.54882 0.083383 -0.346018 1.40685 0.150216 -0.275912 1.32464 0.290277 -0.165634 1.30195 0.401191 -0.203401 1.49231 0.421726 -0.334554 1.63462 0.316743 -0.23877 1.62581 0.432027 -0.356494 1.63536 0.189691 -0.198112 1.88951 0.44561 -0.267094 2.03007 0.263659 -0.379435 1.89192 0.284459 -0.312914 2.05303 0.00454 -0.429809 1.91103 -0.002733 -0.269352 2.02978 -0.250985 -0.279067 1.94369 -0.38196 -0.392731 1.91087 -0.24221 -0.417818 1.66059 -0.304216 -0.451708 1.59119 -0.038586 -0.415572 1.63016 0.188908 -0.419219 1.54254 0.110673 -0.307843 1.61767 0.416142 -0.190151 1.61767 0.525008 -0.273116 1.73423 -0.471853 -0.267799 1.72636 -0.423834 -0.224673 1.22893 -0.323856 -0.417818 1.66059 -0.304216 -0.351146 1.22907 -0.197615 -0.451708 1.59119 -0.038586 -0.359781 1.22242 0.005576 -0.419219 1.54254 0.110673 -0.390166 1.40893 0.163573 -0.275425 1.20932 0.328682 -0.307276 1.32901 0.327071 -0.129199 1.1992 0.405516 -0.168308 1.31151 0.429543 -0.103244 1.37985 0.451215 -0.415572 1.63016 0.188908 -0.419219 1.54254 0.110673 -0.359796 1.54411 0.097482 -0.340355 1.65326 0.189575 -0.419219 1.54254 0.110673 -0.390166 1.40893 0.163573 -0.33999 1.41445 0.146634 -0.359796 1.54411 0.097482 -0.307276 1.32901 0.327071 -0.28217 1.33848 0.291565 -0.162077 1.32645 0.405477 -0.168308 1.31151 0.429543 -0.103244 1.37985 0.451215 -0.10328 1.40722 0.430292 -0.168308 1.31151 0.429543 -0.162077 1.32645 0.405477 -0.273116 1.73423 -0.471853 -0.267799 1.72636 -0.423834 -0.417818 1.66059 -0.304216 -0.351146 1.22907 -0.197615 -0.224673 1.22893 -0.323856 -0.359781 1.22242 0.005576 -0.275425 1.20932 0.328682 -0.129199 1.1992 0.405516</float_array>
          <technique_common>
            <accessor source="#GeometrySource-array" count="142" stride="3">
              <param name="X" type="float"/>
              <param name="Y" type="float"/>
              <param name="Z" type="float"/>
            </accessor>
          </technique_common>
        </source>
        <source id="GeometrySource1" name="helmet_002Nrm">
          <float_array id="GeometrySource1-array" count="426">0.869458 -0.17539 0.461823 0.821068 -0.207434 0.531807 0.953899 -0.157575 0.255435 0.965816 -0.13603 0.22067 0.422572 -0.209363 0.881817 0.443481 -0.177761 0.878479 0.889535 -0.151241 0.431108 0.50459 -0.154066 0.849502 -0.000079 -0.135105 0.990831 -0.000058 -0.09913 0.995074 -0.000099 -0.171273 0.985224 0.97716 -0.111419 0.180953 0.830831 0.338253 0.441933 0.4414 0.80701 0.392301 0.368434 0.456219 0.810013 0.509857 0.860182 0.011479 0.925045 0.379191 0.022501 0.000562 1 -0.000061 0.000506 0.902879 0.429894 0.431911 0.848923 -0.304602 0.000526 0.933227 -0.359288 0.000358 0.631997 -0.774971 0.517055 0.558639 -0.648519 0.860541 0.403373 -0.311063 0.923396 0.163509 -0.347282 0.998001 0.055857 0.029579 0.806093 -0.260697 0.531274 0.663517 -0.426245 0.614866 0.758651 0.11663 0.640972 0.385332 0.235183 0.892305 0.00024 0.422705 -0.906267 0.570793 0.327044 -0.753151 0.00028 0.503363 0.864075 0.00014 0.254717 0.967016 0.792183 -0.247198 -0.557978 0.866131 -0.243577 -0.43645 0.462103 -0.235582 -0.854963 0.433594 -0.23387 -0.87023 -0.000127 -0.232181 -0.972673 -0.000127 -0.232181 -0.972673 0.975322 -0.217123 -0.040067 0.966993 -0.25004 0.04904 0.97116 -0.215175 0.102707 0.949346 -0.262638 0.172518 0.743205 -0.291708 0.602123 0.816697 -0.30563 0.489486 0.280908 -0.235371 0.930425 0.297954 -0.24507 0.922585 0.096 -0.22065 0.970617 -0.000125 -0.216995 0.976173 -0.000125 -0.216995 0.976173 0.806093 -0.260697 0.531274 -0.188915 -0.655101 0.731542 -0.188915 -0.655101 0.731542 0.663517 -0.426245 0.614866 -0.220448 0.388115 0.894857 -0.220448 0.388115 0.894857 -0.175291 0.6873 0.704905 -0.175274 0.687375 0.704836 0.050672 0.935187 0.35051 -0.00405 0.927932 0.372728 0.48314 0.793629 0.369768 0.501556 0.781057 0.372011 0.501556 0.781057 0.372011 0.48314 0.793629 0.369768 0.386481 0.626325 0.677015 0.494146 0.612887 0.616595 0.000343 0.613724 0.789521 0.000343 0.613724 0.789521 -0.000545 -0.969646 -0.244514 -0.000545 -0.969646 -0.244514 -0.094544 -0.969137 -0.227672 -0.173261 -0.962391 -0.209246 -0.26837 -0.945437 -0.184733 0.039971 -0.998494 -0.03758 -0.000562 -0.999478 -0.032308 0.023392 -0.9988 -0.043027 -0.000562 -0.998933 -0.04618 0.046778 -0.998353 -0.033202 0.055505 -0.998137 -0.025349 0.057111 -0.998157 -0.020518 -0.869658 -0.174411 0.461818 -0.96597 -0.134943 0.220664 -0.954077 -0.156501 0.255429 -0.821304 -0.20651 0.531802 -0.422813 -0.208887 0.881814 -0.443686 -0.177261 0.878476 -0.889707 -0.150239 0.431102 -0.504768 -0.153498 0.849499 -0.977286 -0.110319 0.180947 -0.367926 0.456633 0.81001 -0.440494 0.807507 0.392298 -0.830452 0.339189 0.441927 -0.508889 0.860756 0.011476 -0.924617 0.380233 0.022495 -0.430953 0.849409 -0.304605 -0.516422 0.559221 -0.648522 -0.860084 0.404341 -0.311068 -0.923209 0.164548 -0.347287 -0.997937 0.056981 0.029573 -0.806389 -0.25979 0.531269 -0.664 -0.425497 0.614862 -0.758524 0.117484 0.640968 -0.385073 0.235616 0.892303 -0.57042 0.327687 -0.753155 -0.433851 -0.233382 -0.870233 -0.462362 -0.235061 -0.854966 -0.792457 -0.246305 -0.557983 -0.866402 -0.242601 -0.436455 -0.975565 -0.216024 -0.040074 -0.967274 -0.248951 0.049034 -0.971402 -0.214082 0.102701 -0.949643 -0.261569 0.172512 -0.743537 -0.290871 0.602119 -0.817043 -0.30471 0.489481 -0.281178 -0.235055 0.930424 -0.298236 -0.244734 0.922584 -0.096254 -0.220542 0.970616 -0.806389 -0.25979 0.531269 -0.664 -0.425497 0.614862 0.188173 -0.655313 0.731543 0.188173 -0.655313 0.731543 0.22088 0.387866 0.894859 0.176044 0.687177 0.704838 0.17606 0.687102 0.704907 0.22088 0.387866 0.894859 -0.049621 0.935244 0.35051 0.005093 0.927926 0.372729 -0.482249 0.794172 0.369765 -0.500678 0.781621 0.372008 -0.493459 0.613443 0.616592 -0.38578 0.62676 0.677012 -0.500678 0.781621 0.372008 -0.482249 0.794172 0.369765 0.093454 -0.969243 -0.227671 0.172179 -0.962586 -0.209245 0.267306 -0.945739 -0.184731 -0.041095 -0.998448 -0.03758 -0.024516 -0.998773 -0.043027 -0.047902 -0.9983 -0.033202 -0.056628 -0.998073 -0.025349 -0.058235 -0.998092 -0.020519</float_array>
          <technique_common>
            <accessor source="#GeometrySource1-array" count="142" stride="3">
              <param name="X" type="float"/>
              <param name="Y" type="float"/>
              <param name="Z" type="float"/>
            </accessor>
          </technique_common>
        </source>
        <source id="GeometrySource2" name="helmet_002UV">
          <float_array id="GeometrySource2-array" count="284">0.730863 0.129743 0.737717 0.245547 0.631207 0.216302 0.586612 0.149267 0.865787 0.259524 0.842781 0.126265 0.727698 0.026137 0.817331 0.019419 0.980514 0.128323 0.98051 0.018776 0.980469 0.229694 0.652401 0.033184 0.216385 0.18557 0.219907 0.131033 0.138291 0.156547 0.312307 0.129591 0.320086 0.18754 0.30356 0.012403 0.178248 0.036903 0.402871 0.116511 0.427824 0.01096 0.511236 0.040526 0.453692 0.128491 0.40436 0.1708 0.452307 0.254561 0.343062 0.304406 0.239549 0.28859 0.277029 0.323825 0.131077 0.262699 0.076134 0.232336 0.58193 0.084923 0.52092 0.179244 0.08642 0.093025 0.013462 0.177264 0.443222 0.287119 0.428967 0.462963 0.521429 0.457985 0.532168 0.245383 0.617409 0.457135 0.630028 0.2395 0.3351 0.324686 0.325815 0.462981 0.267057 0.335873 0.249033 0.383082 0.169771 0.462309 0.171068 0.406691 0.09062 0.462703 0.091682 0.413414 0.058351 0.385356 0.021118 0.462662 0.021118 0.385088 0.656536 0.405006 0.651188 0.353543 0.783479 0.350228 0.789069 0.404021 0.691571 0.336487 0.691517 0.277851 0.75748 0.277849 0.757375 0.336434 0.828547 0.336381 0.828548 0.277847 0.907802 0.277891 0.907901 0.336385 0.809785 0.408875 0.809699 0.35801 0.881788 0.357958 0.88167 0.40883 0.961262 0.358164 0.961335 0.408949 0.500741 0.224149 0.511878 0.244247 0.571744 0.167655 0.560621 0.154654 0.585811 0.098168 0.136976 0.393326 0.034662 0.252128 0.176282 0.368729 0.211406 0.312986 0.091803 0.380374 0.029076 0.33334 0.022933 0.296678 0.730863 0.129743 0.586612 0.149267 0.631207 0.216302 0.737717 0.245547 0.865787 0.259524 0.842781 0.126265 0.727698 0.026137 0.817331 0.019419 0.652401 0.033184 0.138291 0.156547 0.219907 0.131033 0.216385 0.18557 0.312307 0.129591 0.320086 0.18754 0.402871 0.116511 0.453692 0.128491 0.40436 0.1708 0.452307 0.254561 0.343062 0.304406 0.239549 0.28859 0.277029 0.323825 0.131077 0.262699 0.076134 0.232336 0.52092 0.179244 0.532168 0.245383 0.521429 0.457985 0.443222 0.287119 0.428967 0.462963 0.3351 0.324686 0.325815 0.462981 0.267057 0.335873 0.249033 0.383082 0.169771 0.462309 0.171068 0.406691 0.09062 0.462703 0.091682 0.413414 0.058351 0.385356 0.656536 0.405006 0.789069 0.404021 0.783479 0.350228 0.651188 0.353543 0.691571 0.336487 0.757375 0.336434 0.75748 0.277849 0.691517 0.277851 0.828547 0.336381 0.828548 0.277847 0.907802 0.277891 0.907901 0.336385 0.88167 0.40883 0.881788 0.357958 0.809785 0.408875 0.809699 0.35801 0.571744 0.167655 0.560621 0.154654 0.585811 0.098168 0.136976 0.393326 0.176282 0.368729 0.091803 0.380374 0.029076 0.33334 0.022933 0.296678</float_array>
          <technique_common>
            <accessor source="#GeometrySource2-array" count="142" stride="2">
              <param name="S" type="float"/>
              <param name="T" type="float"/>
            </accessor>
          </technique_common>
        </source>
        <vertices id="Geometry-vertices">
          <input semantic="POSITION" source="#GeometrySource"/>
          <input semantic="NORMAL" source="#GeometrySource1"/>
          <input semantic="TEXCOORD" source="#GeometrySource2"/>
        </vertices>
        <triangles material="VisualMaterial0" count="150">
          <input semantic="VERTEX" source="#Geometry-vertices" offset="0"/>
          <p>0 1 2 0 2 3 0 4 1 0 5 4 3 6 0 6 5 0 6 7 5 7 8 5 7 9 8 5 10 4 5 8 10 3 11 6 12 13 14 12 15 13 12 16 15 13 15 17 13 17 18 14 13 18 17 15 19 17 19 20 19 21 20 19 22 21 15 16 23 15 23 19 23 22 19 16 24 23 16 25 24 26 16 12 26 25 16 26 27 25 14 28 12 12 28 26 14 29 28 30 21 22 31 23 24 30 22 31 31 22 23 14 18 32 29 14 32 29 32 33 34 35 36 34 36 37 37 36 38 37 38 39 40 35 34 40 41 35 42 41 40 42 43 41 43 44 41 43 45 44 45 46 44 45 47 46 47 48 46 48 49 46 48 50 49 51 52 53 51 53 54 55 56 57 55 57 58 57 59 58 57 60 59 59 60 61 59 61 62 63 64 65 63 65 66 66 65 67 66 67 68 69 70 71 69 71 72 72 71 73 74 75 76 76 75 77 78 75 74 79 75 78 80 75 79 81 82 83 81 83 84 81 84 85 81 85 86 86 10 8 86 85 10 82 81 87 87 81 86 88 8 9 88 86 8 87 86 88 82 87 89 90 32 18 90 18 91 92 90 91 91 18 17 91 17 93 92 91 93 92 93 94 17 20 95 17 95 93 95 20 21 30 96 21 95 21 96 93 97 94 97 95 96 93 95 97 94 97 98 94 98 99 100 94 99 100 92 94 100 99 101 92 100 102 90 92 102 103 32 90 90 102 103 103 33 32 104 97 96 104 98 97 30 104 96 105 39 38 105 38 106 107 105 106 107 106 108 109 107 108 109 108 110 111 109 110 111 110 112 112 110 113 112 113 114 114 113 115 114 115 116 117 115 49 117 49 50 116 115 117 118 119 120 118 120 121 122 123 124 122 124 125 124 123 126 124 126 127 126 128 127 126 129 128 130 68 67 130 67 131 132 130 131 132 131 133 69 134 70 69 135 134 135 136 134 137 138 75 138 77 75 139 137 75 140 139 75 141 140 75</p>
        </triangles>
      </mesh>
    </geometry>
    <geometry id="Geometry1" name="equip_002">
      <mesh>
        <source id="GeometrySource3" name="equip_002Pos">
          <float_array id="GeometrySource3-array" count="1200">0.319305 0.003166 -0.125241 0.037498 0.003167 -0.125241 0.036894 0.342321 -0.110079 0.295771 0.342321 -0.110079 0.319306 0.003166 0.260029 0.301393 0.24035 0.249952 0.035405 0.24035 0.249951 0.037498 0.003167 0.260029 0.381704 0.003166 -0.069115 0.381704 0.003166 0.203903 0.319306 0.003166 0.260029 0.319305 0.003166 -0.125241 0.037498 0.003167 0.260029 0.037498 0.003167 -0.125241 0.284433 0.598936 -0.098229 -0.000000 0.594664 -0.152109 -0.000000 0.664528 -0.150674 0.276435 0.663245 -0.101302 0.334921 0.598936 -0.055788 0.326618 0.663214 -0.059322 0.000000 0.540657 0.320284 0.000000 0.497102 0.290861 0.039654 0.499584 0.292236 0.076211 0.543921 0.319599 0.0937 0.553068 0.284852 0.080974 0.653434 0.281094 0.054215 0.71946 0.286884 0.050078 0.713421 0.300501 0.326618 0.663214 -0.059322 0.335258 0.667813 0.182114 0.34356 0.595113 0.186427 0.334921 0.598936 -0.055788 0.283762 0.590513 0.253209 0.27613 0.665106 0.244322 0.0937 0.553068 0.284852 0.080974 0.653434 0.281094 0.050078 0.713421 0.300501 0.054215 0.71946 0.286884 0.000000 0.7211 0.287149 0.000000 0.71515 0.300546 0.000000 0.540657 0.320284 0.076211 0.543921 0.319599 0.050078 0.713421 0.300501 0.000000 0.71515 0.300546 0.379423 0.677594 -0.010618 0.378446 0.677594 0.117281 0.374093 0.571036 0.124842 0.3767 0.565671 -0.011709 0.334292 0.696335 -0.020508 0.333182 0.696335 0.124715 0.378446 0.677594 0.117281 0.379423 0.677594 -0.010618 0.333182 0.696335 0.124715 0.345796 0.560483 0.1333 0.374093 0.571036 0.124842 0.378446 0.677594 0.117281 0.345796 0.560483 0.1333 0.348756 0.556814 -0.021747 0.3767 0.565671 -0.011709 0.374093 0.571036 0.124842 0.348756 0.556814 -0.021747 0.334292 0.696335 -0.020508 0.379423 0.677594 -0.010618 0.3767 0.565671 -0.011709 0.290995 1.18628 -0.068373 0.434917 1.16441 -0.068955 0.31833 1.07157 -0.130237 0.290995 1.18639 0.12371 0.430646 1.16237 0.123901 0.313793 1.07556 0.194988 0.479361 1.00136 -0.119985 0.517182 1.09342 -0.065483 0.517182 1.09352 0.127325 0.472068 1.00765 0.18246 0.517182 1.09352 0.127325 0.472068 1.00765 0.18246 0.479361 1.00136 -0.119985 0.517182 1.09342 -0.065483 0.625552 1.0055 -0.058948 0.697811 1.00309 -0.086848 0.629874 0.941651 -0.097266 0.625552 1.0056 0.113274 0.69354 1.00107 0.139854 0.612004 0.922969 0.159217 0.789464 0.867705 -0.102049 0.819462 0.927245 -0.082771 0.845258 0.873817 -0.061389 0.819462 0.927372 0.143874 0.845258 0.873925 0.129596 0.777422 0.839015 0.171928 0.629874 0.941651 -0.097266 0.612004 0.922969 0.159217 0.625552 1.0056 0.113274 0.625552 1.0055 -0.058948 0.4897 1.09722 0.104655 0.485247 1.05977 0.104509 0.571994 1.01138 0.098319 0.485247 1.05968 -0.04323 0.489701 1.09714 -0.043756 0.571994 1.01131 -0.037026 0.489701 1.09714 -0.043756 0.4897 1.09722 0.104655 0.571994 1.01138 0.098319 0.571994 1.01131 -0.037026 0.183746 0.869201 -0.290726 0.000128 0.868758 -0.313683 0.000263 1.11023 -0.242474 0.160287 1.10712 -0.225108 0.132594 0.897784 0.32323 0.100174 0.90069 0.28378 0.09084 0.778275 0.273795 0.118965 0.726662 0.287158 0.136803 1.0939 0.182234 0.28442 1.12976 0.10583 0.000276 1.13424 0.145888 0.32771 0.861661 0.188909 0.288272 0.884835 0.288695 0.271057 0.727588 0.256277 0.317878 0.752876 0.184301 0.112537 1.07001 0.247081 0.136803 1.0939 0.182234 0.000276 1.13424 0.145888 0.000242 1.07418 0.258162 0.231363 0.851471 -0.154662 0.327711 0.861484 -0.125723 0.320163 0.744956 -0.093713 0.216287 0.745006 -0.140786 0.327711 0.861484 -0.125723 0.32771 0.861661 0.188909 0.317878 0.752876 0.184301 0.320163 0.744956 -0.093713 0.00027 1.12302 -0.145899 0.000276 1.13424 0.145888 0.28442 1.12967 -0.062647 0.19876 1.12042 -0.140242 0.28442 1.12976 0.10583 0.231363 0.851471 -0.154662 0.183746 0.869201 -0.290726 0.160287 1.10712 -0.225108 0.19876 1.12042 -0.140242 0.112537 1.07001 0.247081 0.000242 1.07418 0.258162 0.000144 0.901716 0.300585 0.100174 0.90069 0.28378 0.000078 0.782993 0.292918 0.09084 0.778275 0.273795 0.136803 1.0939 0.182234 0.112537 1.07001 0.247081 0.100174 0.90069 0.28378 0.132594 0.897784 0.32323 0.288272 0.884835 0.288695 0.28442 1.12976 0.10583 0.136803 1.0939 0.182234 0.19876 1.12042 -0.140242 0.160287 1.10712 -0.225108 0.000263 1.11023 -0.242474 0.00027 1.12302 -0.145899 -0.319307 0.003167 -0.125241 -0.295771 0.342321 -0.11008 -0.036895 0.342321 -0.110079 -0.0375 0.003167 -0.125241 -0.319307 0.003167 0.260029 -0.035406 0.24035 0.249951 -0.301394 0.240351 0.249951 -0.0375 0.003167 0.260029 -0.381706 0.003167 -0.069115 -0.319307 0.003167 -0.125241 -0.319307 0.003167 0.260029 -0.381706 0.003167 0.203903 -0.0375 0.003167 0.260029 -0.0375 0.003167 -0.125241 -0.284433 0.598936 -0.098228 -0.276435 0.663245 -0.101301 -0.334921 0.598936 -0.055787 -0.326618 0.663214 -0.059321 -0.039653 0.499584 0.292236 -0.07621 0.543921 0.319599 -0.093699 0.553068 0.284852 -0.080974 0.653434 0.281094 -0.054214 0.71946 0.286884 -0.050077 0.713421 0.300501 -0.326618 0.663214 -0.059321 -0.334921 0.598936 -0.055787 -0.343559 0.595113 0.186428 -0.335257 0.667813 0.182115 -0.283761 0.590513 0.25321 -0.276129 0.665106 0.244323 -0.093699 0.553068 0.284852 -0.080974 0.653434 0.281094 -0.050077 0.713421 0.300501 -0.054214 0.71946 0.286884 -0.050077 0.713421 0.300501 -0.07621 0.543921 0.319599 -0.379423 0.677594 -0.010617 -0.3767 0.565671 -0.011708 -0.374093 0.571036 0.124843 -0.378445 0.677594 0.117282 -0.334292 0.696335 -0.020507 -0.379423 0.677594 -0.010617 -0.378445 0.677594 0.117282 -0.333182 0.696335 0.124716 -0.333182 0.696335 0.124716 -0.378445 0.677594 0.117282 -0.374093 0.571036 0.124843 -0.345796 0.560483 0.133301 -0.345796 0.560483 0.133301 -0.374093 0.571036 0.124843 -0.3767 0.565671 -0.011708 -0.348756 0.556814 -0.021746 -0.348756 0.556814 -0.021746 -0.3767 0.565671 -0.011708 -0.379423 0.677594 -0.010617 -0.334292 0.696335 -0.020507 -0.290382 1.18661 -0.068374 -0.317846 1.07193 -0.130239 -0.434328 1.1649 -0.068957 -0.290382 1.18672 0.123709 -0.430061 1.16286 0.1239 -0.313306 1.07592 0.194987 -0.478956 1.0019 -0.119986 -0.516674 1.094 -0.065485 -0.516674 1.09411 0.127323 -0.471657 1.00818 0.182458 -0.516674 1.09411 0.127323 -0.516674 1.094 -0.065485 -0.478956 1.0019 -0.119986 -0.471657 1.00818 0.182458 -0.625143 1.0062 -0.05895 -0.629541 0.933741 -0.119711 -0.697404 1.00388 -0.08685 -0.625143 1.0063 0.113272 -0.693136 1.00185 0.139852 -0.611688 0.923658 0.159215 -0.78921 0.868594 -0.102051 -0.819141 0.928167 -0.082774 -0.844997 0.874769 -0.061392 -0.819141 0.928295 0.143872 -0.844997 0.874876 0.129593 -0.777201 0.839891 0.171926 -0.629541 0.933741 -0.119711 -0.625143 1.0062 -0.05895 -0.625143 1.0063 0.113272 -0.611688 0.923658 0.159215 -0.489188 1.09777 0.104653 -0.571579 1.01203 0.098317 -0.484777 1.06031 0.104508 -0.484777 1.06023 -0.043232 -0.571579 1.01195 -0.037028 -0.489188 1.09769 -0.043758 -0.489188 1.09769 -0.043758 -0.571579 1.01195 -0.037028 -0.571579 1.01203 0.098317 -0.489188 1.09777 0.104653 -0.183489 0.869407 -0.290728 -0.159763 1.1073 -0.225109 -0.132308 0.897933 0.32323 -0.118872 0.726796 0.287157 -0.090689 0.778377 0.273795 -0.099885 0.900802 0.28378 -0.136296 1.09405 0.182233 -0.285232 1.12926 0.105829 -0.328187 0.86697 0.188904 -0.270963 0.727893 0.256275 -0.288001 0.885159 0.288693 -0.317755 0.753234 0.184299 -0.112058 1.07014 0.247081 -0.136296 1.09405 0.182233 -0.231127 0.851731 -0.154663 -0.320047 0.745316 -0.093715 -0.328186 0.866793 -0.125728 -0.216171 0.74525 -0.140787 -0.328186 0.866793 -0.125728 -0.320047 0.745316 -0.093715 -0.317755 0.753234 0.184299 -0.328187 0.86697 0.188904 -0.285232 1.12917 -0.062649 -0.198221 1.12064 -0.140243 -0.285232 1.12926 0.105829 -0.231127 0.851731 -0.154663 -0.159763 1.1073 -0.225109 -0.183489 0.869407 -0.290728 -0.198221 1.12064 -0.140243 -0.112058 1.07014 0.247081 -0.099885 0.900802 0.28378 -0.090689 0.778377 0.273795 -0.136296 1.09405 0.182233 -0.099885 0.900802 0.28378 -0.112058 1.07014 0.247081 -0.132308 0.897933 0.32323 -0.285232 1.12926 0.105829 -0.288001 0.885159 0.288693 -0.136296 1.09405 0.182233 -0.198221 1.12064 -0.140243 -0.159763 1.1073 -0.225109 -0.953242 0.740677 0.162447 -0.835449 0.557122 0.163642 -0.696043 0.650592 0.16277 -0.813107 0.83287 0.161833 -0.953242 0.74053 -0.099484 -0.814996 0.831583 -0.098084 -0.697902 0.649304 -0.100159 -0.835448 0.556972 -0.102217 -0.972087 0.768631 0.124181 -0.972087 0.768527 -0.060941 -0.953242 0.74053 -0.099484 -0.953242 0.740677 0.162447 -0.835448 0.556972 -0.102217 -0.835449 0.557122 0.163642 0.953351 0.739604 0.16245 0.813323 0.832609 0.161835 0.698382 0.648591 0.162773 0.835351 0.556181 0.163644 0.953351 0.739456 -0.099481 0.835351 0.556031 -0.102214 0.70024 0.6473 -0.100156 0.815211 0.83132 -0.098082 0.972228 0.767536 0.124184 0.953351 0.739604 0.16245 0.953351 0.739456 -0.099481 0.972228 0.767432 -0.060938 0.835351 0.556031 -0.102214 0.835351 0.556181 0.163644 0.381704 0.003166 -0.069115 0.353608 0.342222 -0.058131 0.381704 0.003166 0.203903 0.359436 0.249789 0.196701 0.352634 0.346256 0.194587 0.294956 0.346586 0.246611 0.036337 0.346274 0.255295 0.036337 0.346274 0.255295 0.036894 0.342321 -0.110079 0.035405 0.24035 0.249951 0.037498 0.003167 -0.125241 0.037498 0.003167 0.260029 0.170706 0.776595 -0.255467 0.00007 0.765971 -0.271458 0.000128 0.868758 -0.313683 0.183746 0.869201 -0.290726 0.28442 1.12967 -0.062647 0.19876 1.12042 -0.140242 0.216287 0.745006 -0.140786 0.170706 0.776595 -0.255467 0.000051 0.733386 -0.157267 0.00007 0.765971 -0.271458 0.170706 0.776595 -0.255467 0.216287 0.745006 -0.140786 0.118965 0.726662 0.287158 0.271057 0.727588 0.256277 -0.381706 0.003167 -0.069115 -0.353608 0.342223 -0.058132 -0.381706 0.003167 0.203903 -0.359437 0.24979 0.1967 -0.352635 0.346257 0.194587 -0.294958 0.346587 0.24661 -0.036339 0.346274 0.255295 -0.036339 0.346274 0.255295 -0.035406 0.24035 0.249951 -0.036895 0.342321 -0.110079 -0.0375 0.003167 -0.125241 -0.0375 0.003167 0.260029 -0.170554 0.776788 -0.255469 -0.183489 0.869407 -0.290728 -0.285232 1.12917 -0.062649 -0.198221 1.12064 -0.140243 -0.216171 0.74525 -0.140787 -0.170554 0.776788 -0.255469 -0.216171 0.74525 -0.140787 -0.170554 0.776788 -0.255469 -0.118872 0.726796 0.287157 -0.270963 0.727893 0.256275 -0.832793 0.860824 0.12389 -0.972087 0.768631 0.124181 -0.834351 0.859797 -0.059948 -0.972087 0.768527 -0.060941 -0.972087 0.768527 -0.060941 -0.834351 0.859797 -0.059948 -0.696043 0.650592 0.16277 -0.697902 0.649304 -0.100159 0.83304 0.860541 0.123892 0.972228 0.767536 0.124184 0.834598 0.859512 -0.059945 0.972228 0.767432 -0.060938 0.972228 0.767432 -0.060938 0.834598 0.859512 -0.059945 0.698382 0.648591 0.162773 0.70024 0.6473 -0.100156 0.09084 0.778275 0.273795 0.000051 0.733386 -0.157267 0.118965 0.726662 0.287158 0.271057 0.727588 0.256277 0.216287 0.745006 -0.140786 0.000078 0.782993 0.292918 -0.090689 0.778377 0.273795 -0.118872 0.726796 0.287157 -0.216171 0.74525 -0.140787 -0.270963 0.727893 0.256275 0.317878 0.752876 0.184301 0.320163 0.744956 -0.093713 -0.320047 0.745316 -0.093715 -0.317755 0.753234 0.184299</float_array>
          <technique_common>
            <accessor source="#GeometrySource3-array" count="400" stride="3">
              <param name="X" type="float"/>
              <param name="Y" type="float"/>
              <param name="Z" type="float"/>
            </accessor>
          </technique_common>
        </source>
        <source id="GeometrySource4" name="equip_002Nrm">
          <float_array id="GeometrySource4-array" count="1200">0.367267 0.066918 -0.927705 -0.695575 0.028772 -0.717877 -0.718816 0.029342 -0.694581 0.346479 0.065837 -0.935745 0.368741 0.067239 0.927097 0.36039 0.048648 0.931533 -0.717408 0.012386 0.696543 -0.696321 0.027309 0.717211 -0.000001 -1 0.000000 -0.000001 -1 0.000000 -0.000001 -1 0.000000 -0.000001 -1 0.000000 -0.000001 -1 0.000000 -0.000001 -1 0.000000 0.443814 0.02283 -0.895828 -0.000001 -0.001229 -0.999999 -0.000001 -0.001229 -0.999999 0.405891 0.019271 -0.913718 0.641991 0.042053 -0.765558 0.641991 0.042053 -0.765558 0.000001 -0.549196 0.835693 0.000001 -0.549196 0.835693 0.168885 -0.623486 0.763376 0.714605 -0.446947 0.538125 0.896882 -0.179631 0.404147 0.789597 0.198905 0.580494 0.77709 0.208075 0.594 0.77709 0.208075 0.594 0.992343 0.118256 -0.035643 0.929715 0.138863 0.341098 0.923241 0.139346 0.358063 0.992343 0.118256 -0.035643 0.451416 0.119325 0.884299 0.470854 0.121033 0.873869 0.163022 0.089981 0.982511 0.163022 0.089981 0.982511 0.030662 0.911852 0.409373 0.030662 0.911852 0.409373 0.000000 0.912281 0.409565 0.000000 0.912281 0.409565 0.000001 0.112513 0.99365 0.00438 0.112512 0.993641 0.00438 0.112512 0.993641 0.000001 0.112513 0.99365 0.999389 -0.031946 0.014192 0.999389 -0.031946 0.014192 0.999389 -0.031946 0.014192 0.999389 -0.031946 0.014192 0.382954 0.923763 0.002926 0.382954 0.923763 0.002926 0.382954 0.923763 0.002926 0.382954 0.923763 0.002926 0.218295 0.072255 0.973204 0.218295 0.072255 0.973204 0.218295 0.072255 0.973204 0.218295 0.072255 0.973204 0.325137 -0.945001 0.035484 0.325137 -0.945001 0.035484 0.325137 -0.945001 0.035484 0.325137 -0.945001 0.035484 0.265723 0.021335 -0.963813 0.265723 0.021335 -0.963813 0.265723 0.021335 -0.963813 0.265723 0.021335 -0.963813 0.139525 0.888279 -0.437599 0.366207 0.791448 -0.48939 0.167196 0.419127 -0.8924 0.147201 0.895764 0.419451 0.363359 0.803936 0.470805 0.179964 0.47678 0.860403 0.254767 0.351379 -0.900903 0.513047 0.647303 -0.563721 0.505098 0.666323 0.548534 0.25699 0.401507 0.879061 0.90624 -0.422344 0.018808 0.90624 -0.422344 0.018808 0.90624 -0.422344 0.018808 0.90624 -0.422344 0.018808 -0.107348 0.917697 -0.382504 0.179628 0.775755 -0.604928 -0.089368 0.316623 -0.944332 -0.110051 0.905244 0.410392 0.164094 0.789701 0.591139 -0.059813 0.332901 0.941063 0.286209 0.096626 -0.953283 0.638375 0.501749 -0.583717 0.894253 0.298182 -0.333765 0.614007 0.534786 0.580517 0.846991 0.289707 0.445732 0.206657 0.17157 0.963253 -0.99739 0.060796 -0.038939 -0.99739 0.060796 -0.038939 -0.99739 0.060796 -0.038939 -0.99739 0.060796 -0.038939 0.064745 -0.011575 0.997835 0.064745 -0.011575 0.997835 0.064745 -0.011575 0.997835 0.059612 -0.021097 -0.997999 0.059612 -0.021097 -0.997999 0.059612 -0.021097 -0.997999 0.72182 0.692081 -0.000388 0.72182 0.692081 -0.000388 0.72182 0.692081 -0.000388 0.72182 0.692081 -0.000388 0.114084 0.277796 -0.953842 0.00016 0.279681 -0.960093 0.00016 0.279681 -0.960093 0.114084 0.277796 -0.953842 -0.706477 0.158905 0.689666 -0.705944 0.214087 0.675137 -0.686548 -0.060522 0.724562 -0.686547 -0.060522 0.724562 0.029651 0.812293 0.582496 0.183036 0.970823 0.154923 -0.000566 0.993011 0.118022 0.921316 0.034712 0.387261 0.922353 0.045272 0.383685 0.884058 -0.151784 0.442046 0.884058 -0.151784 0.442046 0.114974 0.891473 0.438242 0.114974 0.891473 0.438242 0.000503 0.897437 0.441142 0.000503 0.897437 0.441142 0.424704 -0.02816 -0.904894 0.691815 -0.034247 -0.721263 0.850521 -0.1724 -0.496882 0.3557 -0.222028 -0.907844 0.691815 -0.034247 -0.721263 0.997072 -0.076306 0.004903 0.997072 -0.076308 0.004872 0.850521 -0.1724 -0.496882 -0.000648 0.99861 -0.052706 -0.000566 0.993011 0.118022 0.001795 0.999485 -0.032035 0.430235 0.877568 -0.211596 0.183036 0.970823 0.154923 0.925937 -0.04968 -0.374396 0.928193 -0.008641 -0.371998 0.921114 0.158058 -0.355762 0.430235 0.877568 -0.211596 0.132322 0.218965 0.966719 0.000121 0.220979 0.975279 0.000036 0.071132 0.997467 0.157905 0.07757 0.984403 -0.000048 -0.080987 0.996715 0.182152 -0.079733 0.980032 0.935549 0.008222 0.353102 0.935549 0.008222 0.353102 0.935549 0.008222 0.353102 0.239085 0.190551 0.952118 0.239616 0.19933 0.950185 0.242674 0.574055 0.78203 0.242673 0.574055 0.78203 0.025234 0.988737 -0.147525 0.025234 0.988737 -0.147525 0.000557 0.989052 -0.14757 0.000557 0.989052 -0.14757 -0.367267 0.066919 -0.927705 -0.346476 0.065838 -0.935745 0.718818 0.02934 -0.694579 0.695575 0.02877 -0.717877 -0.368741 0.06724 0.927097 0.717406 0.012384 0.696545 -0.360391 0.048649 0.931532 0.696321 0.027307 0.717211 -0.000001 -1 0.000000 -0.000001 -1 0.000000 -0.000001 -1 0.000000 -0.000001 -1 0.000000 -0.000001 -1 0.000000 -0.000001 -1 0.000000 -0.443817 0.02283 -0.895827 -0.405893 0.019271 -0.913717 -0.641993 0.042053 -0.765556 -0.641993 0.042053 -0.765556 -0.168883 -0.623486 0.763377 -0.714603 -0.446947 0.538127 -0.896881 -0.179631 0.40415 -0.789595 0.198905 0.580497 -0.777088 0.208075 0.594002 -0.777088 0.208075 0.594002 -0.992343 0.118256 -0.03564 -0.992343 0.118256 -0.03564 -0.92324 0.139346 0.358066 -0.929714 0.138863 0.341101 -0.451414 0.119325 0.8843 -0.470852 0.121033 0.87387 -0.16302 0.089981 0.982511 -0.16302 0.089981 0.982511 -0.030661 0.911852 0.409373 -0.030661 0.911852 0.409373 -0.004378 0.112512 0.993641 -0.004378 0.112512 0.993641 -0.999389 -0.031946 0.014195 -0.999389 -0.031946 0.014195 -0.999389 -0.031946 0.014195 -0.999389 -0.031946 0.014195 -0.382954 0.923763 0.002927 -0.382954 0.923763 0.002927 -0.382954 0.923763 0.002927 -0.382954 0.923763 0.002927 -0.218292 0.072255 0.973205 -0.218292 0.072255 0.973205 -0.218292 0.072255 0.973205 -0.218292 0.072255 0.973205 -0.325137 -0.945001 0.035485 -0.325137 -0.945001 0.035485 -0.325137 -0.945001 0.035485 -0.325137 -0.945001 0.035485 -0.265726 0.021335 -0.963813 -0.265726 0.021335 -0.963813 -0.265726 0.021335 -0.963813 -0.265726 0.021335 -0.963813 -0.138523 0.888436 -0.4376 -0.166721 0.419314 -0.892401 -0.365314 0.791859 -0.489392 -0.146194 0.895929 0.41945 -0.362456 0.804345 0.470803 -0.17943 0.476984 0.860402 -0.254368 0.351665 -0.900905 -0.512316 0.64788 -0.563723 -0.50435 0.666892 0.548531 -0.256541 0.401796 0.87906 -0.906715 -0.421324 0.018805 -0.906715 -0.421324 0.018805 -0.906715 -0.421324 0.018805 -0.906715 -0.421324 0.018805 0.085864 0.941681 -0.325367 -0.006026 0.407982 -0.91297 -0.205137 0.805684 -0.55569 0.111069 0.90512 0.410392 -0.163207 0.789886 0.591138 0.060185 0.332834 0.941063 -0.346619 0.143093 -0.927027 -0.656617 0.511765 -0.554031 -0.893916 0.299188 -0.333769 -0.613406 0.535477 0.580515 -0.846665 0.290661 0.445729 -0.206467 0.171803 0.963252 0.997357 0.061873 -0.038096 0.997357 0.061873 -0.038096 0.997357 0.061873 -0.038096 0.997357 0.061873 -0.038096 -0.064761 -0.011502 0.997835 -0.064761 -0.011502 0.997835 -0.064761 -0.011502 0.997835 -0.059632 -0.021031 -0.997999 -0.059632 -0.021031 -0.997999 -0.059632 -0.021031 -0.997999 -0.72104 0.692893 -0.000391 -0.72104 0.692893 -0.000391 -0.72104 0.692893 -0.000391 -0.72104 0.692893 -0.000391 -0.113765 0.277924 -0.953843 -0.113765 0.277924 -0.953843 0.706651 0.158109 0.689671 0.686474 -0.061295 0.724566 0.686474 -0.061295 0.724566 0.70618 0.213292 0.675142 -0.030325 0.814463 0.579423 -0.18228 0.970879 0.155459 -0.918679 0.044985 0.392435 -0.884528 -0.150364 0.44159 -0.918461 0.042217 0.393251 -0.884528 -0.150364 0.44159 -0.113973 0.891602 0.438242 -0.113973 0.891602 0.438242 -0.42111 -0.031256 -0.906471 -0.849542 -0.171725 -0.498788 -0.693277 -0.027505 -0.720146 -0.359617 -0.218206 -0.907227 -0.693277 -0.027505 -0.720146 -0.849542 -0.171725 -0.498788 -0.996931 -0.078133 0.004905 -0.996931 -0.078131 0.004936 -0.003304 0.999516 -0.030918 -0.429822 0.878215 -0.209741 -0.18228 0.970879 0.155459 -0.92599 -0.048638 -0.374402 -0.920933 0.159095 -0.355768 -0.9282 -0.007596 -0.372004 -0.429822 0.878215 -0.209741 -0.132081 0.219114 0.966718 -0.157824 0.077748 0.984402 -0.182248 -0.079528 0.980031 -0.935541 0.009275 0.353096 -0.935541 0.009275 0.353096 -0.935541 0.009275 0.353096 -0.23909 0.190913 0.952044 -0.242402 0.574481 0.781801 -0.239652 0.200318 0.949968 -0.242403 0.574481 0.781801 -0.02412 0.988764 -0.147525 -0.02412 0.988764 -0.147525 -0.696985 -0.070817 0.713581 -0.165782 -0.79788 0.579572 0.392648 -0.579573 0.714088 -0.223208 0.344439 0.911888 -0.697673 -0.067476 -0.713232 -0.22236 0.351667 -0.909333 0.398143 -0.580082 -0.710625 -0.165263 -0.795329 -0.583216 -0.928992 0.247117 0.275514 -0.929036 0.247291 -0.275206 -0.697673 -0.067476 -0.713232 -0.696985 -0.070817 0.713581 -0.165263 -0.795329 -0.583216 -0.165782 -0.79788 0.579572 0.696916 -0.072488 0.71348 0.226076 0.345513 0.910775 -0.39243 -0.575567 0.717441 0.164185 -0.798271 0.579488 0.697605 -0.069163 -0.713137 0.163672 -0.795713 -0.58314 -0.397978 -0.576058 -0.713982 0.225248 0.352706 -0.908219 0.929686 0.244635 0.275385 0.696916 -0.072488 0.71348 0.697605 -0.069163 -0.713137 0.92974 0.244806 -0.275051 0.163672 -0.795713 -0.58314 0.164185 -0.798271 0.579488 0.910853 0.090332 -0.402724 0.910945 0.088443 -0.402935 0.909838 0.091538 0.404742 0.909644 0.083131 0.406985 0.908734 0.073204 0.410905 0.356737 0.02812 0.933782 -0.685301 -0.000373 0.72826 -0.685301 -0.000373 0.72826 -0.718816 0.029342 -0.694581 -0.717408 0.012386 0.696543 -0.695575 0.028772 -0.717877 -0.696321 0.027309 0.717211 0.11291 -0.371577 -0.921511 -0.000207 -0.373913 -0.927464 -0.000207 -0.374282 -0.927315 0.11291 -0.371944 -0.921363 0.480648 0.191379 -0.855775 0.480649 0.191379 -0.855775 0.899538 -0.219655 -0.377602 0.899538 -0.219655 -0.377602 -0.000538 -0.958663 -0.284542 -0.000538 -0.958663 -0.284542 0.078759 -0.955689 -0.283646 0.078759 -0.955689 -0.283646 0.194737 -0.218438 0.956223 0.194737 -0.218438 0.956223 -0.910853 0.090334 -0.402724 -0.910944 0.088446 -0.402937 -0.909837 0.09154 0.404742 -0.909645 0.083134 0.406983 -0.908735 0.073207 0.410903 -0.356739 0.028121 0.933781 0.685299 -0.000375 0.728262 0.685299 -0.000375 0.728262 0.717406 0.012384 0.696545 0.718818 0.02934 -0.694579 0.695575 0.02877 -0.717877 0.696321 0.027307 0.717211 -0.113323 -0.371449 -0.921511 -0.113323 -0.371816 -0.921363 -0.472858 0.192929 -0.859758 -0.472857 0.192929 -0.859758 -0.899782 -0.218642 -0.377608 -0.899782 -0.218642 -0.377608 -0.079833 -0.9556 -0.283646 -0.079833 -0.9556 -0.283646 -0.194989 -0.218219 0.956222 -0.194989 -0.218219 0.956222 -0.514028 0.779152 0.358744 -0.928992 0.247117 0.275514 -0.513954 0.78152 -0.353664 -0.929036 0.247291 -0.275206 -0.929036 0.247291 -0.275206 -0.513954 0.78152 -0.353664 0.392648 -0.579573 0.714088 0.398143 -0.580082 -0.710625 0.517501 0.776951 0.358525 0.929686 0.244635 0.275385 0.517461 0.779312 -0.353422 0.92974 0.244806 -0.275051 0.92974 0.244806 -0.275051 0.517461 0.779312 -0.353422 -0.39243 -0.575567 0.717441 -0.397978 -0.576058 -0.713982 -0.561688 -0.802347 0.201854 -0.000562 -0.999985 0.005487 -0.426729 -0.899622 0.092645 0.072837 -0.99681 -0.032638 0.079161 -0.996342 -0.032199 -0.000559 -0.993983 0.10953 0.560783 -0.802979 0.201858 0.425715 -0.900101 0.092648 -0.080283 -0.996252 -0.032199 -0.073959 -0.996727 -0.032639 0.160872 -0.986623 -0.026388 0.160872 -0.986623 -0.026388 -0.161982 -0.986441 -0.026389 -0.161982 -0.986441 -0.026389</float_array>
          <technique_common>
            <accessor source="#GeometrySource4-array" count="400" stride="3">
              <param name="X" type="float"/>
              <param name="Y" type="float"/>
              <param name="Z" type="float"/>
            </accessor>
          </technique_common>
        </source>
        <source id="GeometrySource5" name="equip_002UV">
          <float_array id="GeometrySource5-array" count="800">0.186602 0.910525 0.040838 0.910525 0.040838 0.708256 0.186602 0.708256 0.412939 0.910525 0.412939 0.758824 0.561615 0.758824 0.561615 0.910525 0.665543 0.13569 0.591325 0.13569 0.571793 0.116159 0.685075 0.116159 0.571793 0.022409 0.685075 0.022409 0.41813 0.978612 0.547446 0.978462 0.547565 0.922528 0.417931 0.922149 0.337193 0.978607 0.337516 0.922341 0.428919 0.19811 0.428829 0.23792 0.46728 0.236879 0.49152 0.196522 0.51968 0.191947 0.518819 0.101629 0.492694 0.042278 0.467553 0.072587 0.337516 0.922341 0.252184 0.92242 0.253498 0.978769 0.337193 0.978607 0.189612 0.977855 0.189642 0.922558 0.047199 0.984263 0.046985 0.922853 0.467553 0.072587 0.492694 0.042278 0.428458 0.04217 0.428863 0.071916 0.428919 0.19811 0.49152 0.196522 0.467553 0.072587 0.428863 0.071916 0.478593 0.576899 0.391525 0.57766 0.387747 0.665884 0.480095 0.666035 0.48471 0.539939 0.385849 0.540078 0.391525 0.57766 0.478593 0.576899 0.360576 0.568106 0.364961 0.671032 0.387747 0.665884 0.391525 0.57766 0.380371 0.685026 0.485279 0.68439 0.480095 0.666035 0.387747 0.665884 0.502104 0.673311 0.509282 0.562926 0.478593 0.576899 0.480095 0.666035 0.160787 0.01153 0.158406 0.073447 0.223235 0.048633 0.079072 0.011661 0.081123 0.072657 0.016175 0.046542 0.22804 0.128165 0.160805 0.105525 0.077612 0.106024 0.011696 0.124297 0.079577 0.121457 0.024935 0.14955 0.199352 0.150567 0.154629 0.120099 0.411807 0.33327 0.445754 0.327975 0.41319 0.263007 0.413594 0.441001 0.445351 0.448212 0.419199 0.510503 0.53445 0.286435 0.507512 0.326882 0.554146 0.329788 0.51049 0.450099 0.557364 0.448183 0.536188 0.490758 0.671464 0.149714 0.550073 0.151239 0.570731 0.191181 0.656353 0.192003 0.253975 0.025777 0.232794 0.041467 0.256877 0.109816 0.343605 0.041504 0.321449 0.025777 0.318411 0.109816 0.321449 0.025777 0.253975 0.025777 0.256877 0.109816 0.318411 0.109816 0.875947 0.637977 0.740395 0.634528 0.768594 0.433515 0.889087 0.448029 0.249624 0.439125 0.297616 0.436181 0.306207 0.534518 0.257575 0.577922 0.246359 0.20897 0.11427 0.216931 0.382146 0.17321 0.040643 0.435966 0.114978 0.441276 0.120835 0.581439 0.04484 0.563387 0.292187 0.233699 0.246359 0.20897 0.382146 0.17321 0.382146 0.233071 0.775663 0.134874 0.780511 0.193934 0.698356 0.204532 0.704153 0.132041 0.959566 0.024852 0.714095 0.024884 0.718022 0.10911 0.955958 0.109957 0.536586 0.665367 0.710625 0.670242 0.56211 0.49551 0.543212 0.547149 0.691294 0.502367 0.982043 0.641941 0.875947 0.637977 0.889087 0.448029 0.947927 0.43028 0.292187 0.233699 0.382146 0.233071 0.382146 0.434905 0.297616 0.436181 0.382146 0.532341 0.306207 0.534518 0.246359 0.20897 0.292187 0.233699 0.297616 0.436181 0.249624 0.439125 0.114978 0.441276 0.11427 0.216931 0.246359 0.20897 0.336233 0.675137 0.307116 0.622109 0.182971 0.610981 0.18223 0.680096 0.186602 0.910525 0.186602 0.708256 0.040838 0.708256 0.040838 0.910525 0.412939 0.910525 0.561615 0.758824 0.412939 0.758824 0.561615 0.910525 0.665543 0.13569 0.685075 0.116159 0.571793 0.116159 0.591325 0.13569 0.571793 0.022409 0.685075 0.022409 0.41813 0.978612 0.417931 0.922149 0.337193 0.978607 0.337516 0.922341 0.46728 0.236879 0.49152 0.196522 0.51968 0.191947 0.518819 0.101629 0.492694 0.042278 0.467553 0.072587 0.337516 0.922341 0.337193 0.978607 0.253498 0.978769 0.252184 0.92242 0.189612 0.977855 0.189642 0.922558 0.047199 0.984263 0.046985 0.922853 0.467553 0.072587 0.492694 0.042278 0.467553 0.072587 0.49152 0.196522 0.478593 0.576899 0.480095 0.666035 0.387747 0.665884 0.391525 0.57766 0.48471 0.539939 0.478593 0.576899 0.391525 0.57766 0.385849 0.540078 0.360576 0.568106 0.391525 0.57766 0.387747 0.665884 0.364961 0.671032 0.380371 0.685026 0.387747 0.665884 0.480095 0.666035 0.485279 0.68439 0.502104 0.673311 0.480095 0.666035 0.478593 0.576899 0.509282 0.562926 0.160787 0.01153 0.223235 0.048633 0.158406 0.073447 0.079072 0.011661 0.081123 0.072657 0.016175 0.046542 0.22804 0.128165 0.160805 0.105525 0.077612 0.106024 0.011696 0.124297 0.079577 0.121457 0.154629 0.120099 0.199352 0.150567 0.024935 0.14955 0.411807 0.33327 0.41319 0.263007 0.445754 0.327975 0.413594 0.441001 0.445351 0.448212 0.419199 0.510503 0.53445 0.286435 0.507512 0.326882 0.554146 0.329788 0.51049 0.450099 0.557364 0.448183 0.536188 0.490758 0.671464 0.149714 0.656353 0.192003 0.570731 0.191181 0.550073 0.151239 0.253975 0.025777 0.256877 0.109816 0.232794 0.041467 0.343605 0.041504 0.318411 0.109816 0.321449 0.025777 0.321449 0.025777 0.318411 0.109816 0.256877 0.109816 0.253975 0.025777 0.875947 0.637977 0.889087 0.448029 0.249624 0.439125 0.257575 0.577922 0.306207 0.534518 0.297616 0.436181 0.246359 0.20897 0.113044 0.172702 0.040643 0.435966 0.120835 0.581439 0.114978 0.441276 0.04484 0.563387 0.292187 0.233699 0.246359 0.20897 0.775663 0.134874 0.698356 0.204532 0.780511 0.193934 0.704153 0.132041 0.959566 0.024852 0.955958 0.109957 0.718022 0.10911 0.714095 0.024884 0.56211 0.49551 0.543212 0.547149 0.691294 0.502367 0.982043 0.641941 0.889087 0.448029 0.875947 0.637977 0.947927 0.43028 0.292187 0.233699 0.297616 0.436181 0.306207 0.534518 0.246359 0.20897 0.297616 0.436181 0.292187 0.233699 0.249624 0.439125 0.113044 0.172702 0.114978 0.441276 0.246359 0.20897 0.336233 0.675137 0.307116 0.622109 0.706475 0.323191 0.816182 0.323331 0.815812 0.223276 0.706336 0.22317 0.713448 0.472914 0.714081 0.357094 0.582904 0.356924 0.582272 0.472744 0.871065 0.34606 0.957503 0.346061 0.975272 0.332531 0.853296 0.332531 0.975846 0.279631 0.853296 0.279631 0.706475 0.323191 0.706336 0.22317 0.815812 0.223276 0.816182 0.323331 0.713448 0.472914 0.582272 0.472744 0.582904 0.356924 0.714081 0.357094 0.871065 0.34606 0.853296 0.332531 0.975272 0.332531 0.957503 0.346061 0.975846 0.279631 0.853296 0.279631 0.234821 0.910525 0.234821 0.708256 0.368738 0.910525 0.368738 0.755849 0.368738 0.696358 0.412939 0.696358 0.561615 0.696358 0.609147 0.969647 0.624928 0.740818 0.711725 0.969647 0.956334 0.740818 0.956334 0.969647 0.885039 0.708797 0.751858 0.723986 0.740395 0.634528 0.875947 0.637977 0.972486 0.189132 0.975729 0.12722 0.987357 0.725371 0.885039 0.708797 0.021794 0.608986 0.021494 0.688769 0.124664 0.688001 0.170821 0.608638 0.257575 0.577922 0.120835 0.581439 0.234821 0.910525 0.234821 0.708256 0.368738 0.910525 0.368738 0.755849 0.368738 0.696358 0.412939 0.696358 0.561615 0.696358 0.609147 0.969647 0.711725 0.969647 0.624928 0.740818 0.956334 0.740818 0.956334 0.969647 0.885039 0.708797 0.875947 0.637977 0.972486 0.189132 0.975729 0.12722 0.987357 0.725371 0.885039 0.708797 0.170821 0.608638 0.124664 0.688001 0.257575 0.577922 0.120835 0.581439 0.68328 0.223148 0.683399 0.323162 0.574465 0.22343 0.574833 0.323191 0.741896 0.473021 0.742531 0.356914 0.853296 0.219861 0.976419 0.220687 0.68328 0.223148 0.683399 0.323162 0.574465 0.22343 0.574833 0.323191 0.741896 0.473021 0.742531 0.356914 0.853296 0.219861 0.976419 0.220687 0.647469 0.568346 0.634752 0.510445 0.651413 0.57014 0.672723 0.565992 0.665047 0.512659 0.634752 0.570915 0.622035 0.568346 0.618091 0.57014 0.604457 0.512659 0.596782 0.565992 0.67928 0.556325 0.679601 0.518982 0.589903 0.518982 0.590224 0.556325</float_array>
          <technique_common>
            <accessor source="#GeometrySource5-array" count="400" stride="2">
              <param name="S" type="float"/>
              <param name="T" type="float"/>
            </accessor>
          </technique_common>
        </source>
        <vertices id="Geometry1-vertices">
          <input semantic="POSITION" source="#GeometrySource3"/>
          <input semantic="NORMAL" source="#GeometrySource4"/>
          <input semantic="TEXCOORD" source="#GeometrySource5"/>
        </vertices>
        <triangles material="VisualMaterial10" count="290">
          <input semantic="VERTEX" source="#Geometry1-vertices" offset="0"/>
          <p>0 1 2 0 2 3 4 5 6 4 6 7 8 9 10 8 10 11 11 10 12 11 12 13 14 15 16 14 16 17 17 18 14 17 19 18 20 21 22 20 22 23 22 24 23 24 25 23 23 25 26 23 26 27 28 29 30 28 30 31 29 32 30 29 33 32 34 32 33 34 33 35 36 37 38 36 38 39 40 41 42 40 42 43 44 45 46 44 46 47 48 49 50 48 50 51 52 53 54 52 54 55 56 57 58 56 58 59 60 61 62 60 62 63 64 65 66 67 65 64 67 68 65 67 69 68 65 70 66 68 71 65 65 71 70 68 72 71 69 72 68 69 73 72 74 75 76 74 76 77 78 79 80 81 79 78 81 82 79 83 82 81 79 84 80 82 85 79 79 85 84 85 86 84 82 87 85 83 87 82 87 86 85 87 88 86 83 89 87 89 88 87 90 91 92 90 92 93 94 95 96 97 98 99 100 101 102 100 102 103 104 105 106 104 106 107 108 109 110 108 110 111 112 109 108 112 113 114 115 116 117 115 117 118 119 120 121 119 121 122 123 124 125 123 125 126 127 128 129 127 129 130 131 132 133 131 133 134 132 135 133 136 137 138 136 138 139 140 141 142 140 142 143 143 142 144 143 144 145 146 147 148 149 150 151 149 151 152 153 154 155 153 155 156 157 158 159 157 159 160 161 162 163 161 164 162 165 166 167 165 167 168 166 169 167 166 170 169 171 16 15 171 172 16 172 171 173 172 173 174 20 175 21 20 176 175 175 176 177 177 176 178 176 179 178 176 180 179 181 182 183 181 183 184 184 183 185 184 185 186 187 186 185 187 188 186 189 39 38 189 38 190 40 43 191 40 191 192 193 194 195 193 195 196 197 198 199 197 199 200 201 202 203 201 203 204 205 206 207 205 207 208 209 210 211 209 211 212 213 214 215 216 213 215 216 215 217 216 217 218 215 214 219 215 219 220 217 215 220 217 220 221 218 217 221 218 221 222 223 224 225 223 225 226 227 228 229 230 227 229 230 229 231 232 230 231 229 228 233 229 233 234 231 229 234 234 233 235 231 234 236 232 231 236 236 234 235 236 235 237 238 236 237 232 236 238 239 240 241 239 241 242 243 244 245 246 247 248 249 250 251 249 251 252 253 106 105 253 254 106 255 256 257 255 257 258 259 255 258 259 114 260 261 262 263 261 264 262 265 122 121 265 121 266 267 268 269 267 270 268 271 272 273 271 273 274 131 275 132 131 276 275 132 275 277 278 279 280 278 281 279 282 142 141 282 283 142 283 144 142 283 284 144 285 286 287 288 289 290 288 291 289 292 156 155 292 155 293 294 295 296 294 296 297 298 299 300 298 300 301 302 303 304 302 304 305 305 304 306 305 306 307 308 309 310 308 310 311 312 313 314 312 314 315 316 317 318 316 318 319 317 320 318 317 321 320 3 322 0 3 323 322 323 324 322 323 325 324 323 326 325 326 5 325 326 327 5 6 5 327 325 4 324 325 5 4 6 327 328 329 330 331 331 330 332 331 332 333 334 335 336 334 336 337 113 116 115 338 124 123 338 123 339 340 341 137 340 137 136 342 343 344 342 344 345 346 347 150 346 150 149 158 157 348 158 348 349 349 348 350 349 350 351 349 351 352 352 351 163 352 163 353 162 353 163 351 350 161 351 161 163 162 354 353 355 356 357 356 358 357 356 359 358 360 336 335 360 361 336 260 261 263 362 363 267 362 267 269 364 278 280 364 280 365 342 366 367 342 367 343 368 288 290 368 290 369 370 294 297 370 371 294 372 371 370 372 373 371 299 298 374 299 374 375 376 307 306 376 306 377 378 309 308 378 308 379 380 378 379 380 379 381 315 382 312 315 383 382 384 320 321 384 385 320 386 387 388 387 389 388 387 390 389 386 391 387 391 392 387 392 393 387 393 394 387 393 395 394 390 396 389 390 397 396 395 398 394 395 399 398</p>
        </triangles>
      </mesh>
    </geometry>
    <geometry id="Geometry2" name="role_001">
      <mesh>
        <source id="GeometrySource6" name="role_001Pos">
          <float_array id="GeometrySource6-array" count="450">-0.09556 1.07944 0.118394 0.098387 1.07933 0.118395 0.099309 1.31619 0.118374 -0.096188 1.3163 0.118373 0.098387 1.07933 0.118395 0.098388 1.07922 -0.075552 0.09931 1.31608 -0.077124 0.099309 1.31619 0.118374 0.098388 1.07922 -0.075552 -0.095559 1.07933 -0.075553 -0.096188 1.31619 -0.077125 0.09931 1.31608 -0.077124 -0.095559 1.07933 -0.075553 -0.09556 1.07944 0.118394 -0.096188 1.3163 0.118373 -0.096188 1.31619 -0.077125 -0.3593 1.07711 0.138782 -0.32365 0.862027 0.188907 -0.280058 1.13008 0.105828 -0.379866 1.10507 0.107689 -0.6164 0.977542 0.116098 -0.601531 0.946766 0.15101 -0.379863 1.10499 -0.043698 -0.56338 1.006 -0.050217 -0.5449 0.977059 -0.084158 -0.359296 1.07699 -0.07469 -0.280057 1.12999 -0.062649 -0.326701 0.909419 0.138916 0.359788 1.07671 0.138783 0.380386 1.10464 0.10769 0.280607 1.12977 0.10583 0.323897 0.861663 0.188909 0.616777 0.976848 0.1161 0.601872 0.946089 0.151013 0.563788 1.00537 -0.050215 0.380383 1.10456 -0.043697 0.545277 0.976445 -0.084156 0.359785 1.07659 -0.074688 0.327 0.909051 0.138918 -0.270877 0.632938 -0.095779 -0.257989 0.768959 -0.100137 0.000076 0.778352 -0.147221 -0.000001 0.632948 -0.148426 -0.323845 0.632938 -0.054688 -0.308453 0.768961 -0.073466 -0.000000 0.496112 -0.127777 -0.0349 0.496112 -0.121257 -0.333451 0.532384 -0.051473 -0.282644 0.512444 -0.098679 -0.295771 0.33503 -0.11008 -0.036895 0.33503 -0.110079 -0.353608 0.334931 -0.058132 -0.270877 0.632938 0.244456 -0.000003 0.615854 0.292679 0.00008 0.786638 0.281579 -0.25799 0.769013 0.225716 -0.308453 0.769001 0.168317 -0.323845 0.632938 0.186417 -0.275132 0.587263 0.246986 -0.034612 0.496112 0.257768 -0.294958 0.339295 0.24661 -0.036339 0.338983 0.255295 -0.352635 0.338966 0.194587 -0.328933 0.587263 0.190032 0 0.496112 0.270753 -0.653186 0.957563 -0.053408 -0.643112 0.924178 -0.089167 -0.508121 0.782251 0.150514 -0.699894 0.647824 0.162772 -0.815964 0.831379 0.161834 -0.326698 0.909301 -0.074699 -0.457297 0.817803 -0.083563 -0.323649 0.86185 -0.125725 -0.546792 0.755102 -0.089637 -0.817852 0.830092 -0.098083 -0.701753 0.646536 -0.100157 -0.837208 0.858306 -0.059947 -0.83565 0.859333 0.12389 -0.508121 0.782251 0.150514 -0.699894 0.647824 0.162772 -0.326701 0.909419 0.138916 -0.32365 0.862027 0.188907 -0.036339 0.338983 0.255295 -0.036895 0.33503 -0.110079 -0.0349 0.496112 -0.121257 -0.034612 0.496112 0.257768 -0.333451 0.532384 -0.051473 -0.353608 0.334931 -0.058132 -0.352635 0.338966 0.194587 -0.328933 0.587263 0.190032 -0.323845 0.632938 -0.054688 -0.323845 0.632938 0.186417 -0.308453 0.768961 -0.073466 -0.308453 0.769001 0.168317 0.270876 0.632937 -0.095779 0.258132 0.768669 -0.100135 0.323845 0.632937 -0.054688 0.308595 0.768614 -0.073464 0.0349 0.496112 -0.121257 0.333451 0.532383 -0.051473 0.282643 0.512443 -0.098679 0.295771 0.335029 -0.110079 0.036894 0.33503 -0.110079 0.353607 0.33493 -0.058131 0.270877 0.632938 0.244456 0.258131 0.768722 0.225717 0.308594 0.768654 0.168319 0.323845 0.632938 0.186416 0.275132 0.587263 0.246986 0.034612 0.496112 0.257768 0.294956 0.339294 0.246611 0.036337 0.338983 0.255295 0.352633 0.338965 0.194587 0.328933 0.587263 0.190032 0.280607 1.12967 -0.062647 0.326998 0.908933 -0.074698 0.65354 0.956827 -0.053405 0.643429 0.923454 -0.089165 0.508277 0.781678 0.150516 0.699899 0.647036 0.162774 0.816175 0.83046 0.161836 0.457494 0.817288 -0.083562 0.546918 0.754487 -0.089636 0.818063 0.829171 -0.09808 0.701757 0.645746 -0.100155 0.835892 0.858392 0.123893 0.83745 0.857363 -0.059944 0.508277 0.781678 0.150516 0.699899 0.647036 0.162774 0.327 0.909051 0.138918 0.323898 0.861486 -0.125723 0.323897 0.861663 0.188909 0.036337 0.338983 0.255295 0.034612 0.496112 0.257768 0.0349 0.496112 -0.121257 0.036894 0.33503 -0.110079 0.333451 0.532383 -0.051473 0.328933 0.587263 0.190032 0.352633 0.338965 0.194587 0.353607 0.33493 -0.058131 0.323845 0.632937 -0.054688 0.323845 0.632938 0.186416 0.308595 0.768614 -0.073464 0.308594 0.768654 0.168319 -0.0349 0.496112 -0.121257 -0.000000 0.496112 -0.127777 0 0.496112 0.270753 -0.034612 0.496112 0.257768 0.0349 0.496112 -0.121257 0.034612 0.496112 0.257768</float_array>
          <technique_common>
            <accessor source="#GeometrySource6-array" count="150" stride="3">
              <param name="X" type="float"/>
              <param name="Y" type="float"/>
              <param name="Z" type="float"/>
            </accessor>
          </technique_common>
        </source>
        <source id="GeometrySource7" name="role_001Nrm">
          <float_array id="GeometrySource7-array" count="450">-0.000003 0.000088 1 -0.000003 0.000088 1 -0.000003 0.000089 1 -0.000003 0.000089 1 0.999992 -0.003892 0.000005 0.999992 -0.003892 0.000005 0.999992 -0.003893 0.000005 0.999992 -0.003893 0.000005 -0.000000 -0.006635 -0.999978 -0.000000 -0.006635 -0.999978 -0.000000 -0.006637 -0.999978 -0.000000 -0.006637 -0.999978 -0.999996 -0.002654 -0.000001 -0.999996 -0.002654 -0.000001 -0.999996 -0.002654 -0.000001 -0.999996 -0.002654 -0.000001 -0.17812 0.392606 0.902294 -0.856223 0.053203 0.51386 -0.264484 0.849458 0.456585 -0.330411 0.864533 0.378697 -0.426436 0.821415 0.378721 -0.147251 0.35901 0.921645 -0.359536 0.858515 -0.36563 -0.424559 0.818644 -0.386745 -0.141709 0.351217 -0.925508 -0.099207 0.331681 -0.938161 -0.255603 0.797632 -0.546305 -0.391404 -0.21459 0.894849 0.178563 0.392403 0.902294 0.331384 0.86416 0.378699 0.265442 0.849159 0.456584 0.856283 0.052266 0.513856 0.427359 0.820934 0.378723 0.147651 0.358843 0.921646 0.425482 0.818166 -0.386743 0.360505 0.858109 -0.365629 0.142108 0.351058 -0.925507 0.099583 0.331569 -0.938161 0.391166 -0.215012 0.894852 -0.384413 0.004063 -0.923153 -0.360218 -0.008046 -0.932834 0.000001 -0.002626 -0.999997 -0.000008 -0.074524 -0.997219 -0.897552 0.075597 -0.434379 -0.852492 0.049162 -0.520423 -0.000000 -0.147577 -0.989051 0.190457 -0.080025 -0.978428 -0.907185 0.09597 -0.409641 -0.38282 0.051972 -0.92236 -0.384202 0.053007 -0.921726 0.701545 -0.006713 -0.712594 -0.907341 0.105393 -0.40697 -0.457589 0.095843 0.883983 -0.000006 -0.065823 0.997831 0.000055 0.104984 0.994474 -0.480659 0.140772 0.865535 -0.930634 0.147428 0.33494 -0.922617 0.133244 0.361971 -0.399726 0.067879 0.914118 0.206133 -0.124106 0.970622 -0.411337 0.035146 0.910806 0.697017 -0.012031 0.716954 -0.921079 0.08986 0.378866 -0.919214 0.103554 0.379897 0.000000 -0.224064 0.974575 -0.4278 0.823458 -0.372698 -0.151516 0.368546 -0.917179 0.43483 -0.561816 0.703766 0.434684 -0.56091 0.704578 -0.16159 0.384032 0.90907 -0.746589 -0.200939 -0.634215 0.436253 -0.562028 -0.702715 -0.991077 0.062762 -0.117591 0.435086 -0.55908 -0.705783 -0.16259 0.387397 -0.907463 0.432435 -0.554524 -0.710987 -0.429812 0.826308 -0.363973 -0.430175 0.826972 0.362031 0.43483 -0.561816 0.703766 0.434684 -0.56091 0.704578 -0.391404 -0.21459 0.894849 -0.856223 0.053203 0.51386 0.697017 -0.012031 0.716954 0.701545 -0.006713 -0.712594 0.190457 -0.080025 -0.978428 0.206133 -0.124106 0.970622 -0.907185 0.09597 -0.409641 -0.907341 0.105393 -0.40697 -0.921079 0.08986 0.378866 -0.919214 0.103554 0.379897 -0.897552 0.075597 -0.434379 -0.922617 0.133244 0.361971 -0.852492 0.049162 -0.520423 -0.930634 0.147428 0.33494 0.384411 0.004063 -0.923153 0.360214 -0.008451 -0.932831 0.897551 0.075597 -0.434381 0.85255 0.048202 -0.520418 -0.190457 -0.080025 -0.978428 0.907185 0.095969 -0.40964 0.382821 0.051971 -0.92236 0.384204 0.053006 -0.921725 -0.701543 -0.006711 -0.712595 0.907342 0.10539 -0.406968 0.457591 0.095843 0.883982 0.480812 0.140231 0.865538 0.930797 0.14638 0.334946 0.922618 0.133244 0.361969 0.399726 0.067878 0.914118 -0.206133 -0.124106 0.970622 0.411335 0.035145 0.910807 -0.697018 -0.012029 0.716953 0.921078 0.089857 0.378868 0.919214 0.103553 0.379897 0.256507 0.797344 -0.546302 0.746382 -0.201764 -0.634197 0.428728 0.822976 -0.372696 0.151935 0.368376 -0.917178 -0.435465 -0.561326 0.703764 -0.435318 -0.560421 0.704576 0.162019 0.383849 0.909071 -0.436883 -0.561536 -0.702717 -0.435713 -0.558589 -0.705785 0.163029 0.387214 -0.907462 -0.433056 -0.554036 -0.710989 0.431104 0.826487 0.362033 0.430744 0.825824 -0.363971 -0.435465 -0.561326 0.703764 -0.435318 -0.560421 0.704576 0.391166 -0.215012 0.894852 0.991149 0.061663 -0.117565 0.856283 0.052266 0.513856 -0.697018 -0.012029 0.716953 -0.206133 -0.124106 0.970622 -0.190457 -0.080025 -0.978428 -0.701543 -0.006711 -0.712595 0.907185 0.095969 -0.40964 0.919214 0.103553 0.379897 0.921078 0.089857 0.378868 0.907342 0.10539 -0.406968 0.897551 0.075597 -0.434381 0.922618 0.133244 0.361969 0.85255 0.048202 -0.520418 0.930797 0.14638 0.334946 -0.000000 -1 0.000000 -0.000000 -1 0 -0.000000 -1 0 -0.000000 -1 0.000000 -0.000000 -1 0.000000 -0.000000 -1 0.000000</float_array>
          <technique_common>
            <accessor source="#GeometrySource7-array" count="150" stride="3">
              <param name="X" type="float"/>
              <param name="Y" type="float"/>
              <param name="Z" type="float"/>
            </accessor>
          </technique_common>
        </source>
        <source id="GeometrySource8" name="role_001UV">
          <float_array id="GeometrySource8-array" count="300">0.023326 0.624629 0.023326 0.738871 0.139985 0.738871 0.139985 0.624629 0.023092 0.505335 0.023092 0.619577 0.139751 0.619577 0.139751 0.505335 0.023649 0.74143 0.023649 0.855673 0.140308 0.855673 0.140308 0.741431 0.023649 0.85904 0.023649 0.973282 0.140308 0.973282 0.140308 0.85904 0.811167 0.104863 1.00421 0.147578 0.837049 0.045543 0.768087 0.104177 0.76886 0.339632 0.813246 0.34045 0.624405 0.101972 0.624762 0.291744 0.580828 0.29189 0.571653 0.101973 0.57974 0.026385 0.95888 0.156072 0.811167 0.104863 0.768087 0.104177 0.816234 0.029552 1.00421 0.147578 0.76886 0.339632 0.813246 0.34045 0.624762 0.291744 0.624405 0.101972 0.580828 0.29189 0.571653 0.101973 0.95888 0.156072 0.907396 0.627126 0.895244 0.502917 0.58161 0.503283 0.58161 0.627126 0.971102 0.627126 0.956574 0.502953 0.58161 0.767805 0.622925 0.767805 0.986811 0.767805 0.920536 0.767805 0.920536 0.9864 0.621222 0.9864 0.986811 0.9864 0.23852 0.630188 0.554569 0.630188 0.554569 0.503014 0.250597 0.502923 0.189642 0.502959 0.175203 0.630188 0.22546 0.774329 0.505104 0.774329 0.22546 0.981521 0.512874 0.981521 0.15959 0.981521 0.15959 0.774329 0.554569 0.774329 0.624941 0.387461 0.580989 0.386849 0.958162 0.359648 0.974255 0.478972 0.813982 0.479072 0.433198 0.155576 0.433648 0.318908 0.415706 0.131967 0.433623 0.400573 0.581149 0.478974 0.421799 0.479058 0.625119 0.478918 0.770002 0.479102 0.280309 0.359082 0.280309 0.478799 0.280309 0.156051 0.267595 0.134404 0.25658 0.103276 0.427781 0.100561 0.426918 0.019725 0.238134 0.0294 0.219006 0.354021 0.232323 0.46178 0.024593 0.466149 0.018573 0.354006 0.218194 0.209763 0.018811 0.244437 0.224092 0.016233 0.019918 0.035894 0.907396 0.627126 0.895244 0.502917 0.971102 0.627126 0.956574 0.502953 0.622925 0.767805 0.986811 0.767805 0.920536 0.767805 0.920536 0.9864 0.621222 0.9864 0.986811 0.9864 0.23852 0.630188 0.250597 0.502923 0.189642 0.502959 0.175203 0.630188 0.22546 0.774329 0.505104 0.774329 0.22546 0.981521 0.512874 0.981521 0.15959 0.981521 0.15959 0.774329 0.531228 0.050007 0.433198 0.155576 0.624941 0.387461 0.580989 0.386849 0.958162 0.359648 0.974255 0.478972 0.813982 0.479072 0.433648 0.318908 0.433623 0.400573 0.581149 0.478974 0.421799 0.479058 0.770002 0.479102 0.625119 0.478918 0.280309 0.359082 0.280309 0.478799 0.280309 0.156051 0.415706 0.131967 0.267595 0.134404 0.25658 0.103276 0.238134 0.0294 0.426918 0.019725 0.427781 0.100561 0.219006 0.354021 0.018573 0.354006 0.024593 0.466149 0.232323 0.46178 0.218194 0.209763 0.018811 0.244437 0.224092 0.016233 0.019918 0.035894 0.598767 0.798996 0.537904 0.796249 0.537904 0.96412 0.607775 0.960399 0.598767 0.798996 0.607775 0.960399</float_array>
          <technique_common>
            <accessor source="#GeometrySource8-array" count="150" stride="2">
              <param name="S" type="float"/>
              <param name="T" type="float"/>
            </accessor>
          </technique_common>
        </source>
        <vertices id="Geometry2-vertices">
          <input semantic="POSITION" source="#GeometrySource6"/>
          <input semantic="NORMAL" source="#GeometrySource7"/>
          <input semantic="TEXCOORD" source="#GeometrySource8"/>
        </vertices>
        <triangles material="VisualMaterial20" count="160">
          <input semantic="VERTEX" source="#Geometry2-vertices" offset="0"/>
          <p>0 1 2 0 2 3 4 5 6 4 6 7 8 9 10 8 10 11 12 13 14 12 14 15 16 17 18 16 19 20 16 20 21 19 22 23 19 23 20 22 24 23 22 25 24 25 22 26 16 27 17 28 29 30 28 30 31 28 32 29 28 33 32 29 34 35 29 32 34 35 34 36 35 36 37 28 31 38 39 40 41 39 41 42 40 39 43 40 43 44 39 42 45 39 45 46 39 47 43 46 48 39 39 48 47 49 48 46 49 46 50 48 49 51 48 51 47 52 53 54 52 54 55 56 52 55 56 57 52 57 58 52 58 59 52 59 53 52 60 59 58 60 61 59 58 62 60 58 63 62 57 63 58 59 64 53 18 19 16 18 22 19 18 26 22 23 65 20 24 65 23 24 66 65 67 16 21 68 67 21 68 21 69 20 69 21 67 27 16 24 25 70 70 25 26 66 24 71 24 70 71 70 26 72 66 71 73 74 66 73 74 73 75 66 74 76 66 76 65 65 77 20 20 77 69 65 76 77 70 78 71 78 73 71 78 75 73 78 79 75 80 70 72 70 80 78 80 72 81 82 83 84 82 84 85 86 87 88 86 88 89 90 86 89 90 89 91 92 90 91 92 91 93 94 45 42 94 42 41 94 41 95 95 96 94 95 97 96 94 98 45 94 96 99 98 94 100 94 99 100 101 98 100 101 102 98 100 99 103 100 103 101 104 54 53 104 105 54 106 105 104 106 104 107 107 104 108 109 104 53 109 53 64 108 104 109 110 108 109 110 109 111 108 110 112 107 108 113 108 112 113 30 29 35 30 35 114 114 35 37 115 114 37 32 116 34 34 116 117 34 117 36 33 28 38 33 38 118 119 33 118 119 120 33 121 37 36 121 115 37 122 36 117 122 121 36 116 123 117 123 122 117 123 124 122 33 125 32 33 120 125 32 126 116 116 126 123 32 125 126 124 127 122 127 121 122 127 115 121 124 128 127 127 129 115 129 130 115 115 130 114 129 131 130 132 133 134 132 134 135 136 137 138 136 138 139 140 137 136 140 141 137 142 141 140 142 143 141 144 145 146 144 146 147 148 146 145 148 149 146</p>
        </triangles>
      </mesh>
    </geometry>
  </library_geometries>
  <library_controllers>
    <controller id="Controller">
      <skin source="#Geometry">
        <bind_shape_matrix>1 0 0 0 0 1 0 0 0 0 1 0 0 0 0 1</bind_shape_matrix>
        <source id="Controller-joints">
          <Name_array id="Controller-joints-array" count="25">Bip01_L_Clavicle Bip01_L_UpperArm Bip01_R_Clavicle Bip01_R_UpperArm Bip01_Pelvis Bip01_L_Thigh Bip01_L_Calf Bip01_L_Foot Bip01_L_Toe0 Bip01_R_Thigh Bip01_R_Calf Bip01_R_Foot Bip01_R_Toe0 UpBodyRotate Bip01_Spine Bip01_Spine1 Bip01_Neck Bip01_Head Bip01_HeadNub Bip01_L_Forearm Bip01_L_Hand Bip01_R_Forearm Bip01_R_Hand Bip01 Role02</Name_array>
          <technique_common>
            <accessor source="#Controller-joints-array" count="25" stride="1">
              <param name="JOINT" type="Name"/>
            </accessor>
          </technique_common>
        </source>
        <source id="Controller-bind_poses">
          <float_array id="Controller-bind_poses-array" count="400">0.961054 -0.265368 -0.077161 0.227823 -0.093695 -0.050202 -0.994334 0.0843 0.259991 0.962839 -0.07311 -1.06319 0 0 0 1 0.860194 -0.509912 0.00741 0.259871 0.05651 0.080867 -0.995121 -0.09537 0.506825 0.856417 0.098377 -1.03018 0 0 0 1 -0.961353 -0.264286 -0.077162 0.227128 0.093639 -0.050308 -0.994334 0.084369 0.258907 -0.963131 0.073111 1.06337 0 0 0 1 -0.860768 -0.508943 0.00741 0.259249 -0.056418 0.08093 -0.995122 -0.09541 0.505861 -0.856987 -0.098376 1.03054 0 0 0 1 0 1 0 -0.562364 0.000001 0 1 -0.056176 1 0 -0.000001 0 0 0 0 1 0.036504 -0.980395 0.193631 0.53362 -0.017088 0.193119 0.981026 -0.160511 -0.999187 -0.03912 -0.009704 0.20979 0 0 0 1 0.039126 -0.999234 -0.000395 0.269082 -0.009681 -0.000775 0.999953 -0.1104 -0.999187 -0.03912 -0.009704 0.20979 0 0 0 1 -0.000001 -1 0.000000 0.004659 0.000000 0.000000 1 -0.112429 -1 0.000001 0.000000 0.208686 0 0 0 1 0.000000 0.000000 1 -0.267858 0.000001 1 -0.000000 -0.001079 -1 0.000001 0.000000 0.208686 0 0 0 1 -0.036507 -0.980395 0.193631 0.53362 0.017089 0.193119 0.981026 -0.160511 -0.999187 0.039123 0.009704 -0.209792 0 0 0 1 -0.039129 -0.999234 -0.000395 0.269082 0.009681 -0.000775 0.999953 -0.110399 -0.999187 0.039123 0.009704 -0.209792 0 0 0 1 -0.000001 -1 0.000000 0.004659 0.000000 0.000000 1 -0.112429 -1 0.000001 0.000000 -0.208688 0 0 0 1 0.000000 0.000000 1 -0.267858 0.000001 1 -0.000000 -0.001079 -1 0.000001 0.000000 -0.208688 0 0 0 1 0 1 0 -0.642583 -0.000038 0 1 -0.07673 1 0 0.000038 -0.000002 0 0 0 1 0.000562 1 0.000233 -0.642601 -0.000003 -0.000233 1 -0.07658 1 -0.000562 0.000003 0.000361 0 0 0 1 0.000562 0.998765 -0.049682 -0.850199 0.000024 0.049682 0.998765 -0.118962 1 -0.000562 0.000003 0.000361 0 0 0 1 0.000562 0.999997 -0.002577 -1.16402 -0.000001 0.002577 0.999997 -0.057511 1 -0.000562 0.000003 0.000361 0 0 0 1 0.000562 1 -0.000564 -1.22999 -0.000002 0.000564 1 -0.055035 1 -0.000562 0.000003 0.000361 0 0 0 1 0.000562 1 -0.000564 -1.9539 -0.000002 0.000564 1 -0.055035 1 -0.000562 0.000003 0.000361 0 0 0 1 0.85016 -0.515458 0.10738 -0.055061 0.142671 0.029213 -0.989339 -0.101418 0.506825 0.856417 0.098377 -1.03018 0 0 0 1 0.85016 -0.515458 0.10738 -0.264798 -0.506712 -0.856393 -0.099165 1.03009 0.143075 0.029895 -0.98926 -0.102238 0 0 0 1 -0.85074 -0.5145 0.107379 -0.055676 -0.142637 0.029373 -0.989339 -0.10152 0.505861 -0.856987 -0.098376 1.03054 0 0 0 1 -0.85074 -0.5145 0.107379 -0.265413 0.505747 -0.856963 -0.099164 1.03046 0.14304 -0.030056 0.98926 0.102341 0 0 0 1 0 0 1 -0.056176 1 0 0 0 0 1 0 -0.562364 0 0 0 1 1 0 0 0 0 1 0 0 0 0 1 0 0 0 0 1</float_array>
          <technique_common>
            <accessor source="#Controller-bind_poses-array" count="25" stride="16">
              <param name="TRANSFORM" type="float4x4"/>
            </accessor>
          </technique_common>
        </source>
        <source id="Controller-weights">
          <float_array id="Controller-weights-array" count="1">1</float_array>
          <technique_common>
            <accessor source="#Controller-weights-array" count="1" stride="1">
              <param name="WEIGHT" type="float"/>
            </accessor>
          </technique_common>
        </source>
        <joints>
          <input semantic="JOINT" source="#Controller-joints"/>
          <input semantic="INV_BIND_MATRIX" source="#Controller-bind_poses"/>
        </joints>
        <vertex_weights count="142">
          <input semantic="JOINT" source="#Controller-joints" offset="0"/>
          <input semantic="WEIGHT" source="#Controller-weights" offset="1"/>
          <vcount>1 1 1 1 1 1 1 1 1 1 1 1 1 1 1 1 1 1 1 1 1 1 1 1 1 1 1 1 1 1 1 1 1 1 1 1 1 1 1 1 1 1 1 1 1 1 1 1 1 1 1 1 1 1 1 1 1 1 1 1 1 1 1 1 1 1 1 1 1 1 1 1 1 1 1 1 1 1 1 1 1 1 1 1 1 1 1 1 1 1 1 1 1 1 1 1 1 1 1 1 1 1 1 1 1 1 1 1 1 1 1 1 1 1 1 1 1 1 1 1 1 1 1 1 1 1 1 1 1 1 1 1 1 1 1 1 1 1 1 1 1 1 </vcount>
          <v>17 0 17 0 17 0 17 0 17 0 17 0 17 0 17 0 17 0 17 0 17 0 17 0 17 0 17 0 17 0 17 0 17 0 17 0 17 0 17 0 17 0 17 0 17 0 17 0 17 0 17 0 17 0 17 0 17 0 17 0 17 0 17 0 17 0 17 0 17 0 17 0 17 0 17 0 17 0 17 0 17 0 17 0 17 0 17 0 17 0 17 0 17 0 17 0 17 0 17 0 17 0 17 0 17 0 17 0 17 0 17 0 17 0 17 0 17 0 17 0 17 0 17 0 17 0 17 0 17 0 17 0 17 0 17 0 17 0 17 0 17 0 17 0 17 0 17 0 17 0 17 0 17 0 17 0 17 0 17 0 17 0 17 0 17 0 17 0 17 0 17 0 17 0 17 0 17 0 17 0 17 0 17 0 17 0 17 0 17 0 17 0 17 0 17 0 17 0 17 0 17 0 17 0 17 0 17 0 17 0 17 0 17 0 17 0 17 0 17 0 17 0 17 0 17 0 17 0 17 0 17 0 17 0 17 0 17 0 17 0 17 0 17 0 17 0 17 0 17 0 17 0 17 0 17 0 17 0 17 0 17 0 17 0 17 0 17 0 17 0 17 0 17 0 17 0 17 0 17 0 17 0 17 0</v>
        </vertex_weights>
      </skin>
      <extra>
        <technique profile="FCOLLADA">
          <user_properties>SkinController</user_properties>
        </technique>
      </extra>
    </controller>
    <controller id="Controller1">
      <skin source="#Geometry1">
        <bind_shape_matrix>1 0 0 0 0 1 0 0 0 0 1 0 0 0 0 1</bind_shape_matrix>
        <source id="Controller1-joints">
          <Name_array id="Controller1-joints-array" count="25">Bip01_L_Clavicle Bip01_L_UpperArm Bip01_R_Clavicle Bip01_R_UpperArm Bip01_Pelvis Bip01_L_Thigh Bip01_L_Calf Bip01_L_Foot Bip01_L_Toe0 Bip01_R_Thigh Bip01_R_Calf Bip01_R_Foot Bip01_R_Toe0 UpBodyRotate Bip01_Spine Bip01_Spine1 Bip01_Neck Bip01_Head Bip01_HeadNub Bip01_L_Forearm Bip01_L_Hand Bip01_R_Forearm Bip01_R_Hand Bip01 Role02</Name_array>
          <technique_common>
            <accessor source="#Controller1-joints-array" count="25" stride="1">
              <param name="JOINT" type="Name"/>
            </accessor>
          </technique_common>
        </source>
        <source id="Controller1-bind_poses">
          <float_array id="Controller1-bind_poses-array" count="400">0.961054 -0.265368 -0.077161 0.227823 -0.093695 -0.050202 -0.994334 0.0843 0.259991 0.962839 -0.07311 -1.06319 0 0 0 1 0.860194 -0.509912 0.00741 0.259871 0.05651 0.080867 -0.995121 -0.09537 0.506825 0.856417 0.098377 -1.03018 0 0 0 1 -0.961353 -0.264286 -0.077162 0.227128 0.093639 -0.050308 -0.994334 0.084369 0.258907 -0.963131 0.073111 1.06337 0 0 0 1 -0.860768 -0.508943 0.00741 0.259249 -0.056418 0.08093 -0.995122 -0.09541 0.505861 -0.856987 -0.098376 1.03054 0 0 0 1 0 1 0 -0.562364 0.000001 0 1 -0.056176 1 0 -0.000001 0 0 0 0 1 0.036504 -0.980395 0.193631 0.53362 -0.017088 0.193119 0.981026 -0.160511 -0.999187 -0.03912 -0.009704 0.20979 0 0 0 1 0.039126 -0.999234 -0.000395 0.269082 -0.009681 -0.000775 0.999953 -0.1104 -0.999187 -0.03912 -0.009704 0.20979 0 0 0 1 -0.000001 -1 0.000000 0.004659 0.000000 0.000000 1 -0.112429 -1 0.000001 0.000000 0.208686 0 0 0 1 0.000000 0.000000 1 -0.267858 0.000001 1 -0.000000 -0.001079 -1 0.000001 0.000000 0.208686 0 0 0 1 -0.036507 -0.980395 0.193631 0.53362 0.017089 0.193119 0.981026 -0.160511 -0.999187 0.039123 0.009704 -0.209792 0 0 0 1 -0.039129 -0.999234 -0.000395 0.269082 0.009681 -0.000775 0.999953 -0.110399 -0.999187 0.039123 0.009704 -0.209792 0 0 0 1 -0.000001 -1 0.000000 0.004659 0.000000 0.000000 1 -0.112429 -1 0.000001 0.000000 -0.208688 0 0 0 1 0.000000 0.000000 1 -0.267858 0.000001 1 -0.000000 -0.001079 -1 0.000001 0.000000 -0.208688 0 0 0 1 0 1 0 -0.642583 -0.000038 0 1 -0.07673 1 0 0.000038 -0.000002 0 0 0 1 0.000562 1 0.000233 -0.642601 -0.000003 -0.000233 1 -0.07658 1 -0.000562 0.000003 0.000361 0 0 0 1 0.000562 0.998765 -0.049682 -0.850199 0.000024 0.049682 0.998765 -0.118962 1 -0.000562 0.000003 0.000361 0 0 0 1 0.000562 0.999997 -0.002577 -1.16402 -0.000001 0.002577 0.999997 -0.057511 1 -0.000562 0.000003 0.000361 0 0 0 1 0.000562 1 -0.000564 -1.22999 -0.000002 0.000564 1 -0.055035 1 -0.000562 0.000003 0.000361 0 0 0 1 0.000562 1 -0.000564 -1.9539 -0.000002 0.000564 1 -0.055035 1 -0.000562 0.000003 0.000361 0 0 0 1 0.85016 -0.515458 0.10738 -0.055061 0.142671 0.029213 -0.989339 -0.101418 0.506825 0.856417 0.098377 -1.03018 0 0 0 1 0.85016 -0.515458 0.10738 -0.264798 -0.506712 -0.856393 -0.099165 1.03009 0.143075 0.029895 -0.98926 -0.102238 0 0 0 1 -0.85074 -0.5145 0.107379 -0.055676 -0.142637 0.029373 -0.989339 -0.10152 0.505861 -0.856987 -0.098376 1.03054 0 0 0 1 -0.85074 -0.5145 0.107379 -0.265413 0.505747 -0.856963 -0.099164 1.03046 0.14304 -0.030056 0.98926 0.102341 0 0 0 1 0 0 1 -0.056176 1 0 0 0 0 1 0 -0.562364 0 0 0 1 1 0 0 0 0 1 0 0 0 0 1 0 0 0 0 1</float_array>
          <technique_common>
            <accessor source="#Controller1-bind_poses-array" count="25" stride="16">
              <param name="TRANSFORM" type="float4x4"/>
            </accessor>
          </technique_common>
        </source>
        <source id="Controller1-weights">
          <float_array id="Controller1-weights-array" count="205">1 0.5 0.5 0.5 0.5 0.25 0.75 0.25 0.75 0.5 0.5 0.5 0.5 0.25 0.75 0.5 0.5 0.5 0.5 0.5 0.5 0.5 0.5 0.5 0.5 0.5 0.5 0.25 0.75 0.25 0.75 0.5 0.5 0.5 0.5 0.25 0.75 0.5 0.5 0.5 0.5 0.208971 0.791029 0.25 0.75 0.5 0.5 0.5 0.5 0.25 0.75 0.5 0.5 0.5 0.5 0.5 0.5 0.5 0.5 0.5 0.5 0.5 0.5 0.25 0.75 0.25 0.75 0.5 0.5 0.25 0.75 0.5 0.5 0.5 0.5 0.5 0.5 0.5 0.5 0.5 0.5 0.5 0.5 0.5 0.5 0.5 0.5 0.5 0.5 0.25 0.75 0.75 0.25 0.75 0.25 0.75 0.25 0.75 0.25 0.5 0.5 0.25 0.75 0.5 0.5 0.5 0.5 0.25 0.75 0.5 0.5 0.5 0.5 0.5 0.5 0.5 0.5 0.5 0.5 0.5 0.5 0.5 0.5 0.5 0.5 0.5 0.5 0.25 0.75 0.75 0.25 0.75 0.25 0.75 0.25 0.75 0.25 0.208971 0.791029 0.5 0.5 0.5 0.5 0.25 0.75 0.5 0.5 0.5 0.5 0.5 0.5 0.5 0.5 0.5 0.5 0.5 0.5 0.5 0.5 0.5 0.5 0.5 0.5 0.5 0.5 0.5 0.5 0.5 0.5 0.5 0.5 0.5 0.5 0.5 0.5 0.5 0.5 0.5 0.5 0.5 0.5 0.5 0.5 0.5 0.5 0.5 0.5 0.5 0.5 0.5 0.5 0.5 0.5 0.5 0.5 0.5 0.5 0.5 0.5 0.5 0.5 0.5 0.5 0.5 0.5</float_array>
          <technique_common>
            <accessor source="#Controller1-weights-array" count="205" stride="1">
              <param name="WEIGHT" type="float"/>
            </accessor>
          </technique_common>
        </source>
        <joints>
          <input semantic="JOINT" source="#Controller1-joints"/>
          <input semantic="INV_BIND_MATRIX" source="#Controller1-bind_poses"/>
        </joints>
        <vertex_weights count="400">
          <input semantic="JOINT" source="#Controller1-joints" offset="0"/>
          <input semantic="WEIGHT" source="#Controller1-weights" offset="1"/>
          <vcount>1 1 2 2 1 2 2 1 1 1 1 1 1 1 1 1 1 1 1 1 1 1 1 1 1 1 1 1 1 1 1 1 1 1 1 1 1 1 1 1 1 1 1 1 1 1 1 1 1 1 1 1 1 1 1 1 1 1 1 1 1 1 1 1 1 1 1 1 1 1 1 1 1 1 1 1 1 1 1 1 1 1 1 1 1 1 1 1 1 1 1 1 1 1 1 1 1 1 1 1 1 1 1 1 1 1 1 1 1 1 2 2 1 2 1 1 1 2 2 1 1 1 1 1 1 2 2 1 1 2 2 1 1 2 1 2 1 1 1 1 1 1 1 1 2 2 1 1 1 1 1 2 1 1 1 1 1 1 2 2 1 1 2 2 1 1 1 1 1 1 1 1 1 1 1 1 1 1 1 1 1 1 1 1 1 1 1 1 1 1 1 1 1 1 1 1 1 1 1 1 1 1 1 1 1 1 1 1 1 1 1 1 1 1 1 1 1 1 1 1 1 1 1 1 1 1 1 1 1 1 1 1 1 1 1 1 1 1 1 1 1 1 1 1 1 1 1 1 1 1 1 1 1 1 1 1 2 2 1 1 2 1 2 1 2 1 1 1 2 1 2 1 2 2 1 2 1 2 1 1 1 1 1 1 2 1 1 1 1 2 1 1 1 1 1 1 2 2 1 2 2 1 1 1 1 1 1 1 1 2 2 1 1 1 2 2 1 1 1 1 1 1 1 2 1 2 2 2 2 2 2 2 1 1 2 2 1 1 2 1 2 2 2 2 2 2 2 2 1 2 1 2 2 2 2 2 2 2 1 1 2 1 2 1 2 2 2 2 2 2 2 1 2 1 1 2 2 2 2 1 2 1 1 2 2 2 2 2 2 2 2 2 2 2 2 2 2 2 2 2 </vcount>
          <v>7 0 7 0 5 1 6 2 5 3 6 4 7 0 5 5 6 6 5 7 6 8 7 0 7 0 7 0 7 0 7 0 7 0 7 0 4 0 4 0 4 0 4 0 4 0 4 0 4 0 4 0 4 0 4 0 4 0 4 0 4 0 4 0 4 0 4 0 4 0 4 0 4 0 4 0 4 0 4 0 4 0 4 0 4 0 4 0 4 0 4 0 4 0 4 0 4 0 4 0 4 0 4 0 4 0 4 0 4 0 4 0 4 0 4 0 4 0 4 0 4 0 4 0 4 0 4 0 4 0 4 0 4 0 4 0 1 0 1 0 1 0 1 0 1 0 1 0 1 0 1 0 1 0 1 0 1 0 1 0 1 0 1 0 19 0 19 0 19 0 19 0 19 0 19 0 19 0 19 0 19 0 19 0 19 0 19 0 19 0 19 0 19 0 19 0 1 0 1 0 1 0 1 0 1 0 1 0 1 0 1 0 1 0 1 0 15 0 15 0 15 0 15 0 15 0 15 0 14 9 15 10 14 11 15 12 15 0 1 13 15 14 15 0 15 0 15 0 14 15 15 16 14 17 15 18 15 0 15 0 15 0 15 0 15 0 15 0 14 19 15 20 14 21 15 22 15 0 15 0 14 23 15 24 14 25 15 26 15 0 15 0 1 27 15 28 15 0 1 29 15 30 15 0 15 0 15 0 15 0 15 0 15 0 15 0 15 0 14 31 15 32 14 33 15 34 15 0 15 0 15 0 15 0 15 0 1 35 15 36 15 0 15 0 15 0 15 0 15 0 11 0 9 37 10 38 9 39 10 40 11 0 11 0 9 41 10 42 9 43 10 44 11 0 11 0 11 0 11 0 11 0 11 0 11 0 4 0 4 0 4 0 4 0 4 0 4 0 4 0 4 0 4 0 4 0 4 0 4 0 4 0 4 0 4 0 4 0 4 0 4 0 4 0 4 0 4 0 4 0 4 0 4 0 4 0 4 0 4 0 4 0 4 0 4 0 4 0 4 0 4 0 4 0 4 0 4 0 4 0 4 0 4 0 4 0 4 0 4 0 3 0 3 0 3 0 3 0 3 0 3 0 3 0 3 0 3 0 3 0 3 0 3 0 3 0 3 0 21 0 21 0 21 0 21 0 21 0 21 0 21 0 21 0 21 0 21 0 21 0 21 0 21 0 21 0 21 0 21 0 3 0 3 0 3 0 3 0 3 0 3 0 3 0 3 0 3 0 3 0 15 0 15 0 15 0 14 45 15 46 14 47 15 48 15 0 15 0 3 49 15 50 15 0 14 51 15 52 15 0 14 53 15 54 15 0 15 0 15 0 14 55 15 56 15 0 14 57 15 58 15 0 14 59 15 60 14 61 15 62 15 0 3 63 15 64 15 0 3 65 15 66 15 0 15 0 15 0 15 0 15 0 15 0 14 67 15 68 15 0 15 0 15 0 15 0 3 69 15 70 15 0 15 0 15 0 15 0 22 0 22 0 22 71 21 72 22 73 21 74 22 0 22 75 21 76 22 77 21 78 22 0 22 0 22 0 22 0 22 0 22 0 22 0 20 0 20 79 19 80 20 81 19 82 20 0 20 0 20 0 20 83 19 84 20 85 19 86 20 0 20 0 20 0 20 0 20 0 20 0 7 0 5 87 6 88 7 0 5 89 6 90 5 91 6 92 5 93 6 94 5 95 6 96 5 97 6 98 5 99 6 100 5 101 6 102 7 0 7 0 14 103 15 104 14 105 15 106 15 0 15 0 1 107 15 108 15 0 14 109 15 110 14 111 15 112 14 113 15 114 14 115 15 116 14 117 15 118 14 119 15 120 14 121 15 122 14 123 15 124 11 0 9 125 10 126 11 0 9 127 10 128 9 129 10 130 9 131 10 132 9 133 10 134 9 135 10 136 9 137 10 138 9 139 10 140 11 0 11 0 14 141 15 142 15 0 3 143 15 144 15 0 14 145 15 146 14 147 15 148 14 149 15 150 14 151 15 152 14 153 15 154 14 155 15 156 22 157 21 158 22 0 22 159 21 160 22 0 22 0 22 161 21 162 22 163 21 164 22 165 21 166 20 167 19 168 20 0 20 169 19 170 20 0 20 0 20 171 19 172 20 173 19 174 20 175 19 176 14 177 15 178 14 179 15 180 14 181 15 182 14 183 15 184 14 185 15 186 14 187 15 188 14 189 15 190 14 191 15 192 14 193 15 194 14 195 15 196 14 197 15 198 14 199 15 200 14 201 15 202 14 203 15 204</v>
        </vertex_weights>
      </skin>
      <extra>
        <technique profile="FCOLLADA">
          <user_properties>SkinController</user_properties>
        </technique>
      </extra>
    </controller>
    <controller id="Controller2">
      <skin source="#Geometry2">
        <bind_shape_matrix>1 0 0 0 0 1 0 0 0 0 1 0 0 0 0 1</bind_shape_matrix>
        <source id="Controller2-joints">
          <Name_array id="Controller2-joints-array" count="25">Bip01_L_Clavicle Bip01_L_UpperArm Bip01_R_Clavicle Bip01_R_UpperArm Bip01_Pelvis Bip01_L_Thigh Bip01_L_Calf Bip01_L_Foot Bip01_L_Toe0 Bip01_R_Thigh Bip01_R_Calf Bip01_R_Foot Bip01_R_Toe0 UpBodyRotate Bip01_Spine Bip01_Spine1 Bip01_Neck Bip01_Head Bip01_HeadNub Bip01_L_Forearm Bip01_L_Hand Bip01_R_Forearm Bip01_R_Hand Bip01 Role02</Name_array>
          <technique_common>
            <accessor source="#Controller2-joints-array" count="25" stride="1">
              <param name="JOINT" type="Name"/>
            </accessor>
          </technique_common>
        </source>
        <source id="Controller2-bind_poses">
          <float_array id="Controller2-bind_poses-array" count="400">0.961054 -0.265368 -0.077161 0.227823 -0.093695 -0.050202 -0.994334 0.0843 0.259991 0.962839 -0.07311 -1.06319 0 0 0 1 0.860194 -0.509912 0.00741 0.259871 0.05651 0.080867 -0.995121 -0.09537 0.506825 0.856417 0.098377 -1.03018 0 0 0 1 -0.961353 -0.264286 -0.077162 0.227128 0.093639 -0.050308 -0.994334 0.084369 0.258907 -0.963131 0.073111 1.06337 0 0 0 1 -0.860768 -0.508943 0.00741 0.259249 -0.056418 0.08093 -0.995122 -0.09541 0.505861 -0.856987 -0.098376 1.03054 0 0 0 1 0 1 0 -0.562364 0.000001 0 1 -0.056176 1 0 -0.000001 0 0 0 0 1 0.036504 -0.980395 0.193631 0.53362 -0.017088 0.193119 0.981026 -0.160511 -0.999187 -0.03912 -0.009704 0.20979 0 0 0 1 0.039126 -0.999234 -0.000395 0.269082 -0.009681 -0.000775 0.999953 -0.1104 -0.999187 -0.03912 -0.009704 0.20979 0 0 0 1 -0.000001 -1 0.000000 0.004659 0.000000 0.000000 1 -0.112429 -1 0.000001 0.000000 0.208686 0 0 0 1 0.000000 0.000000 1 -0.267858 0.000001 1 -0.000000 -0.001079 -1 0.000001 0.000000 0.208686 0 0 0 1 -0.036507 -0.980395 0.193631 0.53362 0.017089 0.193119 0.981026 -0.160511 -0.999187 0.039123 0.009704 -0.209792 0 0 0 1 -0.039129 -0.999234 -0.000395 0.269082 0.009681 -0.000775 0.999953 -0.110399 -0.999187 0.039123 0.009704 -0.209792 0 0 0 1 -0.000001 -1 0.000000 0.004659 0.000000 0.000000 1 -0.112429 -1 0.000001 0.000000 -0.208688 0 0 0 1 0.000000 0.000000 1 -0.267858 0.000001 1 -0.000000 -0.001079 -1 0.000001 0.000000 -0.208688 0 0 0 1 0 1 0 -0.642583 -0.000038 0 1 -0.07673 1 0 0.000038 -0.000002 0 0 0 1 0.000562 1 0.000233 -0.642601 -0.000003 -0.000233 1 -0.07658 1 -0.000562 0.000003 0.000361 0 0 0 1 0.000562 0.998765 -0.049682 -0.850199 0.000024 0.049682 0.998765 -0.118962 1 -0.000562 0.000003 0.000361 0 0 0 1 0.000562 0.999997 -0.002577 -1.16402 -0.000001 0.002577 0.999997 -0.057511 1 -0.000562 0.000003 0.000361 0 0 0 1 0.000562 1 -0.000564 -1.22999 -0.000002 0.000564 1 -0.055035 1 -0.000562 0.000003 0.000361 0 0 0 1 0.000562 1 -0.000564 -1.9539 -0.000002 0.000564 1 -0.055035 1 -0.000562 0.000003 0.000361 0 0 0 1 0.85016 -0.515458 0.10738 -0.055061 0.142671 0.029213 -0.989339 -0.101418 0.506825 0.856417 0.098377 -1.03018 0 0 0 1 0.85016 -0.515458 0.10738 -0.264798 -0.506712 -0.856393 -0.099165 1.03009 0.143075 0.029895 -0.98926 -0.102238 0 0 0 1 -0.85074 -0.5145 0.107379 -0.055676 -0.142637 0.029373 -0.989339 -0.10152 0.505861 -0.856987 -0.098376 1.03054 0 0 0 1 -0.85074 -0.5145 0.107379 -0.265413 0.505747 -0.856963 -0.099164 1.03046 0.14304 -0.030056 0.98926 0.102341 0 0 0 1 0 0 1 -0.056176 1 0 0 0 0 1 0 -0.562364 0 0 0 1 1 0 0 0 0 1 0 0 0 0 1 0 0 0 0 1</float_array>
          <technique_common>
            <accessor source="#Controller2-bind_poses-array" count="25" stride="16">
              <param name="TRANSFORM" type="float4x4"/>
            </accessor>
          </technique_common>
        </source>
        <source id="Controller2-weights">
          <float_array id="Controller2-weights-array" count="245">1 0.25 0.75 0.5 0.5 0.5 0.5 0.75 0.25 0.75 0.25 0.25 0.75 0.75 0.25 0.25 0.75 0.5 0.5 0.5 0.5 0.75 0.25 0.75 0.25 0.692308 0.307692 0.2 0.8 0.5 0.5 0.5 0.5 0.2 0.8 0.2 0.8 0.5 0.5 0.1 0.099878 0.800122 0.5 0.5 0.75 0.25 0.75 0.25 0.5 0.5 0.5 0.5 0.5 0.5 0.2 0.8 0.2 0.8 0.5 0.5 0.5 0.5 0.5 0.5 0.2 0.8 0.5 0.5 0.5 0.5 0.25 0.75 0.25 0.75 0.25 0.75 0.5 0.5 0.1 0.099878 0.800122 0.25 0.75 0.25 0.75 0.5 0.5 0.5 0.5 0.5 0.5 0.75 0.25 0.75 0.25 0.25 0.75 0.5 0.5 0.5 0.5 0.5 0.5 0.5 0.5 0.5 0.5 0.5 0.5 0.75 0.25 0.25 0.75 0.5 0.5 0.5 0.5 0.5 0.5 0.75 0.25 0.5 0.5 0.25 0.75 0.5 0.5 0.2 0.8 0.2 0.8 0.5 0.5 0.5 0.5 0.2 0.8 0.5 0.5 0.2 0.8 0.5 0.5 0.5 0.5 0.75 0.25 0.75 0.25 0.5 0.5 0.5 0.5 0.5 0.5 0.2 0.8 0.5 0.5 0.5 0.5 0.2 0.8 0.5 0.5 0.5 0.5 0.25 0.75 0.25 0.75 0.25 0.75 0.5 0.5 0.25 0.75 0.692308 0.307692 0.25 0.75 0.25 0.75 0.5 0.5 0.5 0.5 0.5 0.5 0.75 0.25 0.25 0.75 0.5 0.5 0.5 0.5 0.5 0.5 0.5 0.5 0.5 0.5 0.5 0.5 0.692308 0.307692 0.25 0.75 0.5 0.5 0.5 0.5 0.5 0.5 0.75 0.25 0.5 0.5 0.25 0.75 0.5 0.5 0.2 0.8 0.2 0.8 0.5 0.5 0.5 0.5 0.5 0.5 0.1 0.099878 0.800122 0.1 0.099878 0.800122 0.5 0.5 0.5 0.5 0.5 0.5</float_array>
          <technique_common>
            <accessor source="#Controller2-weights-array" count="245" stride="1">
              <param name="WEIGHT" type="float"/>
            </accessor>
          </technique_common>
        </source>
        <joints>
          <input semantic="JOINT" source="#Controller2-joints"/>
          <input semantic="INV_BIND_MATRIX" source="#Controller2-bind_poses"/>
        </joints>
        <vertex_weights count="150">
          <input semantic="JOINT" source="#Controller2-joints" offset="0"/>
          <input semantic="WEIGHT" source="#Controller2-weights" offset="1"/>
          <vcount>1 1 1 1 1 1 1 1 1 1 1 1 1 1 1 1 1 1 2 1 2 2 1 2 2 1 2 2 1 1 2 1 2 2 2 1 2 1 2 2 2 2 2 2 2 3 2 2 2 2 2 2 2 2 2 2 2 2 2 2 2 2 2 2 3 2 2 2 2 2 2 2 1 2 2 2 2 2 2 2 2 1 2 2 2 2 2 2 2 2 2 2 2 2 2 2 2 2 2 2 2 2 2 2 2 2 2 2 2 2 2 2 2 2 2 2 2 2 2 2 2 2 2 2 2 2 2 2 2 2 1 1 2 2 2 2 2 2 2 2 2 2 2 2 2 3 3 2 2 2 </vcount>
          <v>15 0 15 0 17 0 17 0 15 0 15 0 17 0 17 0 15 0 15 0 17 0 17 0 15 0 15 0 17 0 17 0 3 0 15 0 3 1 15 2 3 0 3 3 21 4 3 5 21 6 3 0 3 7 21 8 3 9 21 10 3 0 3 11 15 12 3 13 15 14 1 0 1 0 1 15 15 16 15 0 1 17 19 18 1 19 19 20 1 21 19 22 1 0 1 23 19 24 1 0 1 25 15 26 9 27 4 28 14 29 15 30 14 31 15 32 14 33 4 34 9 35 4 36 14 37 15 38 5 39 9 40 4 41 9 42 4 43 9 44 4 45 9 46 4 47 10 48 9 49 10 50 9 51 10 52 9 53 9 54 4 55 14 56 4 57 14 58 15 59 14 60 15 61 14 62 15 63 9 64 4 65 9 66 4 67 9 68 4 69 10 70 9 71 10 72 9 73 10 74 9 75 9 76 4 77 5 78 9 79 4 80 3 81 21 82 3 83 21 84 3 85 21 86 22 87 21 88 22 89 21 90 3 91 15 92 3 93 21 94 15 0 3 95 21 96 22 97 21 98 22 99 21 100 22 101 21 102 22 103 21 104 3 105 21 106 22 107 21 108 3 109 15 110 15 0 10 111 9 112 10 113 9 114 9 115 4 116 9 117 4 118 9 119 4 120 10 121 9 122 10 123 9 124 9 125 4 126 9 127 4 128 9 129 4 130 14 131 15 132 14 133 15 134 5 135 4 136 14 137 15 138 5 139 4 140 14 141 15 142 5 143 4 144 5 145 4 146 5 147 4 148 6 149 5 150 6 151 5 152 6 153 5 154 5 155 4 156 14 157 15 158 14 159 15 160 5 161 4 162 5 163 4 164 5 165 4 166 6 167 5 168 6 169 5 170 6 171 5 172 5 173 4 174 1 175 15 176 1 177 15 178 1 179 19 180 1 181 19 182 1 183 19 184 20 185 19 186 20 187 19 188 1 189 19 190 1 191 19 192 20 193 19 194 20 195 19 196 20 197 19 198 20 199 19 200 1 201 19 202 20 203 19 204 1 205 15 206 15 0 15 0 6 207 5 208 5 209 4 210 5 211 4 212 6 213 5 214 5 215 4 216 5 217 4 218 6 219 5 220 6 221 5 222 5 223 4 224 5 225 4 226 14 227 15 228 14 229 15 230 9 231 4 232 5 233 9 234 4 235 5 236 9 237 4 238 9 239 4 240 5 241 4 242 5 243 4 244</v>
        </vertex_weights>
      </skin>
      <extra>
        <technique profile="FCOLLADA">
          <user_properties>SkinController</user_properties>
        </technique>
      </extra>
    </controller>
  </library_controllers>
  <library_visual_scenes>
    <visual_scene id="VisualSceneNode" name="rdmscene">
      <node id="VisualSceneNode1" name="Role02" sid="Role02" type="JOINT">
        <matrix>1 0 0 0 0 1 0 0 0 0 1 0 0 0 0 1</matrix>
        <node id="VisualSceneNode2" name="Bip01" sid="Bip01" type="JOINT">
          <matrix>0 1 0 0 0 0 1 0.562364 1 0 0 0.056176 0 0 0 1</matrix>
          <node id="VisualSceneNode3" name="UpBodyRotate" sid="UpBodyRotate" type="JOINT">
            <matrix>0 1 0.000038 0.020554 0 -0.000038 1 0 1 0 0 0.080219 0 0 0 1</matrix>
            <node id="VisualSceneNode4" name="Bip01_Spine" sid="Bip01_Spine" type="JOINT">
              <matrix>1 -0.000233 -0.000562 0 0.000233 1 -0.000034 0 0.000562 0.000034 1 0 0 0 0 1</matrix>
              <node id="VisualSceneNode5" name="Bip01_Spine1" sid="Bip01_Spine1" type="JOINT">
                <matrix>0.998753 0.049915 0.000000 0.212477 -0.049915 0.998753 0 -0.000204 -0.000000 0 1 0 0 0 0 1</matrix>
                <node id="VisualSceneNode6" name="Bip01_Neck" sid="Bip01_Neck" type="JOINT">
                  <matrix>0.99889 -0.047107 -0.000000 0.309822 0.047107 0.99889 0 -0.00668 0.000000 0 1 0 0 0 0 1</matrix>
                  <node id="VisualSceneNode7" name="Bip01_L_Clavicle" sid="Bip01_L_Clavicle" type="JOINT">
                    <matrix>-0.264627 -0.047691 0.963171 -0.075684 -0.077846 -0.99446 -0.070629 -0.031034 0.961203 -0.09367 0.259449 0.065115 0 0 0 1</matrix>
                    <node id="VisualSceneNode8" name="Bip01_L_UpperArm" sid="Bip01_L_UpperArm" type="JOINT">
                      <matrix>0.961436 0.109635 0.25223 0.248271 -0.062366 0.980129 -0.188301 0 -0.267863 0.165309 0.949169 0 0 0 0 1</matrix>
                      <node id="VisualSceneNode9" name="Bip01_L_Forearm" sid="Bip01_L_Forearm" type="JOINT">
                        <matrix>0.994937 0.100497 -0.000000 0.324846 -0.100497 0.994937 0 0 0 0 1 0 0 0 0 1</matrix>
                        <node id="VisualSceneNode10" name="Bip01_L_Hand" sid="Bip01_L_Hand" type="JOINT">
                          <matrix>1 0 0 0.209737 0 0.000796 0.999999 0 -0.000000 -0.999999 0.000796 0 0 0 0 1</matrix>
                        </node>
                      </node>
                    </node>
                  </node>
                  <node id="VisualSceneNode11" name="Bip01_R_Clavicle" sid="Bip01_R_Clavicle" type="JOINT">
                    <matrix>-0.264627 -0.047692 -0.963171 -0.075684 -0.077841 -0.994461 0.070628 -0.031034 -0.961204 0.093664 0.259449 -0.065116 0 0 0 1</matrix>
                    <node id="VisualSceneNode12" name="Bip01_R_UpperArm" sid="Bip01_R_UpperArm" type="JOINT">
                      <matrix>0.961436 0.109635 -0.25223 0.248271 -0.062366 0.980129 0.188301 0 0.267863 -0.165309 0.949169 0 0 0 0 1</matrix>
                      <node id="VisualSceneNode13" name="Bip01_R_Forearm" sid="Bip01_R_Forearm" type="JOINT">
                        <matrix>0.994937 0.100497 0.000000 0.324846 -0.100497 0.994937 0 0 0 0 1 0 0 0 0 1</matrix>
                        <node id="VisualSceneNode14" name="Bip01_R_Hand" sid="Bip01_R_Hand" type="JOINT">
                          <matrix>1 0 0 0.209737 0 0.000796 -1 0 0.000000 1 0.000796 0 0 0 0 1</matrix>
                        </node>
                      </node>
                    </node>
                  </node>
                  <node id="VisualSceneNode15" name="Bip01_Head" sid="Bip01_Head" type="JOINT">
                    <matrix>0.999998 -0.002013 0 0.065856 0.002013 0.999998 0 0 0 0 1 0 0 0 0 1</matrix>
                    <node id="VisualSceneNode16" name="Bip01_HeadNub" sid="Bip01_HeadNub" type="JOINT">
                      <matrix>1 0 0 0.72391 0 1 0 0 0 0 1 0 0 0 0 1</matrix>
                    </node>
                  </node>
                </node>
              </node>
            </node>
          </node>
          <node id="VisualSceneNode17" name="Bip01_Pelvis" sid="Bip01_Pelvis" type="JOINT">
            <matrix>0 1 -0.000001 0 0 0.000001 1 0 1 0 0 0 0 0 0 1</matrix>
            <node id="VisualSceneNode18" name="Bip01_L_Thigh" sid="Bip01_L_Thigh" type="JOINT">
              <matrix>-0.980395 0.193119 -0.03912 -0.000000 0.193631 0.981026 -0.009705 0.000000 0.036504 -0.01709 -0.999187 0.187397 0 0 0 1</matrix>
              <node id="VisualSceneNode19" name="Bip01_L_Calf" sid="Bip01_L_Calf" type="JOINT">
                <matrix>0.980996 0.194028 0 0.291072 -0.194028 0.980996 0 0 0 0 1 0 0 0 0 1</matrix>
                <node id="VisualSceneNode20" name="Bip01_L_Foot" sid="Bip01_L_Foot" type="JOINT">
                  <matrix>0.999234 -0.000395 -0.039127 0.272547 0.000775 0.999953 0.009681 0 0.039122 -0.009704 0.999187 0 0 0 0 1</matrix>
                  <node id="VisualSceneNode21" name="Bip01_L_Toe0" sid="Bip01_L_Toe0" type="JOINT">
                    <matrix>0 -1 0 0.00358 1 0 0 0.155429 0 0 1 0 0 0 0 1</matrix>
                  </node>
                </node>
              </node>
            </node>
            <node id="VisualSceneNode22" name="Bip01_R_Thigh" sid="Bip01_R_Thigh" type="JOINT">
              <matrix>-0.980395 0.193119 0.039123 0.000000 0.193631 0.981026 0.009703 -0.000000 -0.036507 0.017088 -0.999187 -0.187397 0 0 0 1</matrix>
              <node id="VisualSceneNode23" name="Bip01_R_Calf" sid="Bip01_R_Calf" type="JOINT">
                <matrix>0.980996 0.194028 0 0.291072 -0.194028 0.980996 0 0 0 0 1 0 0 0 0 1</matrix>
                <node id="VisualSceneNode24" name="Bip01_R_Foot" sid="Bip01_R_Foot" type="JOINT">
                  <matrix>0.999234 -0.000395 0.039128 0.272547 0.000775 0.999952 -0.009681 0 -0.039122 0.009704 0.999187 0 0 0 0 1</matrix>
                  <node id="VisualSceneNode25" name="Bip01_R_Toe0" sid="Bip01_R_Toe0" type="JOINT">
                    <matrix>0 -1 0 0.00358 0.999999 0 0 0.155429 0 0 1 0 0 0 0 1</matrix>
                  </node>
                </node>
              </node>
            </node>
          </node>
        </node>
      </node>
      <node id="VisualSceneNode26" name="helmet_002" type="NODE">
        <matrix>1 0 0 0 0 1 0 0 0 0 1 0 0 0 0 1</matrix>
        <instance_controller url="#Controller">
          <skeleton>#VisualSceneNode1</skeleton>
          <bind_material>
            <technique_common>
              <instance_material symbol="VisualMaterial0" target="#VisualMaterial"/>
            </technique_common>
          </bind_material>
        </instance_controller>
      </node>
      <node id="VisualSceneNode27" name="equip_002" type="NODE">
        <matrix>1 0 0 0 0 1 0 0 0 0 1 0 0 0 0 1</matrix>
        <instance_controller url="#Controller1">
          <skeleton>#VisualSceneNode1</skeleton>
          <bind_material>
            <technique_common>
              <instance_material symbol="VisualMaterial10" target="#VisualMaterial1"/>
            </technique_common>
          </bind_material>
        </instance_controller>
      </node>
      <node id="VisualSceneNode28" name="role_001" type="NODE">
        <matrix>1 0 0 0 0 1 0 0 0 0 1 0 0 0 0 1</matrix>
        <instance_controller url="#Controller2">
          <skeleton>#VisualSceneNode1</skeleton>
          <bind_material>
            <technique_common>
              <instance_material symbol="VisualMaterial20" target="#VisualMaterial2"/>
            </technique_common>
          </bind_material>
        </instance_controller>
      </node>
    </visual_scene>
  </library_visual_scenes>
  <scene>
    <instance_visual_scene url="#VisualSceneNode"/>
  </scene>
</COLLADA>
