# Generated from legacy Unity YAML Mesh assets without Unity.
mtllib original_rocket.mtl

o max_plane
v 13.0093535 -10.1375444 8.296235
v 12.5763409 -9.88754433 8.296235
v 13.0093535 -10.1375444 9.335405
v 12.5763409 -9.88754433 9.335405
vt 0 1
vt 1 1
vt 0 0
vt 1 0
vn -0.500000115 -0.866025337 0
vn -0.500000115 -0.866025337 0
vn -0.500000115 -0.866025337 0
vn -0.500000115 -0.866025337 0

g max_plane_submesh_0
usemtl fire_001
f 1/1/1 3/3/3 2/2/2
f 4/4/4 2/2/2 3/3/3

o max_plane
v 12.5763411 -10.1379675 8.2962348
v 13.0093538 -9.88796757 8.2962352
v 12.5763405 -10.1379677 9.3354048
v 13.0093533 -9.88796773 9.3354052
vt 0 1
vt 1 1
vt 0 0
vt 1 0
vn -0.499999949 0.866025433 -1.5251057e-07
vn -0.499999949 0.866025433 -1.52510571e-07
vn -0.499999949 0.866025433 -1.52510571e-07
vn -0.499999949 0.866025433 -1.52510571e-07

g max_plane_submesh_0
usemtl fire_001_2
f 5/5/5 7/7/7 6/6/6
f 8/8/8 6/6/6 7/7/7

o max_plane
v 12.7924806 -9.762756 8.296235
v 12.7924806 -10.262756 8.296235
v 12.7924806 -9.762756 9.335405
v 12.7924806 -10.262756 9.335405
vt 0 1
vt 1 1
vt 0 0
vt 1 0
vn 1 0 0
vn 1 0 0
vn 1 0 0
vn 1 0 0

g max_plane_submesh_0
usemtl fire_001_3
f 9/9/9 11/11/11 10/10/10
f 12/12/12 10/10/10 11/11/11

o RPG_
v 12.7927246 -9.83696679 8.22594313
v 12.9292519 -9.76436521 8.07969139
v 12.9597226 -10.0127562 8.22594313
v 13.0657789 -10.0127562 8.07969139
v 12.9292519 -10.2611462 8.07969121
v 12.792725 -10.0160587 7.33173791
v 12.792725 -10.1885446 8.22594295
v 12.7927246 -9.83696679 8.22594313
v 12.6561981 -9.76436521 8.07969139
v 12.9292519 -9.76436521 8.07969139
v 12.792725 -10.0160587 7.33173791
v 12.6257282 -10.0127562 8.22594313
v 12.5196711 -10.0127562 8.07969139
v 12.6561981 -9.76436521 8.07969139
v 12.792725 -10.0160587 7.33173791
v 12.6561981 -10.2611462 8.07969121
v 12.792725 -10.1885446 8.22594295
v 12.7927246 -9.83696679 8.22594313
v 12.792725 -10.1885446 8.22594295
v 12.9292519 -10.2611462 8.07969121
v 12.6561981 -10.2611462 8.07969121
v 12.792725 -10.0160587 7.33173791
v 12.7927246 -9.83696679 8.22594313
v 12.792725 -10.1885446 8.22594295
v 12.6257282 -10.0127562 8.22594313
v 12.9597226 -10.0127562 8.22594313
vt 0.902364016 0.151369005
vt 0.898235977 0.172619998
vt 0.93966198 0.151369005
vt 0.93966198 0.172619998
vt 0.980058014 0.172619998
vt 0.938332021 0.310091674
vt 0.974793017 0.151369005
vt 0.861095548 0.152030498
vt 0.837409973 0.169753999
vt 0.884782016 0.169752002
vt 0.860328972 0.318246007
vt 0.939718008 0.151371002
vt 0.939718008 0.172625005
vt 0.898235977 0.172619998
vt 0.93828249 0.306685001
vt 0.980072975 0.172620997
vt 0.974793017 0.151369005
vt 0.902363002 0.151368007
vt 0.237104997 0.329771012
vt 0.213787004 0.354613006
vt 0.259362012 0.355569005
vt 0.233841509 0.485350996
vt 0.0703121871 0.121041358
vt 0.0312285367 0.159893185
vt 0.0703121871 0.159893185
vt 0.0312285367 0.121041358
vn 0.507884068 0.482483943 0.713626666
vn 0.86065021 0.508797097 -0.0201675617
vn 0.704656652 5.06961157e-08 0.70954845
vn 0.983004531 6.60792101e-08 -0.183581294
vn 0.860699424 -0.508828298 -0.0170371575
vn 0.939360757 1.23436217e-07 -0.34293056
vn 0.507883503 -0.482485921 0.713625731
vn 0 0.895707874 0.444643008
vn 0 0.980527741 -0.196380623
vn 0 0.980527741 -0.196380623
vn 0 0.947776326 -0.318935785
vn -0.704656442 -5.4340422e-07 0.709548658
vn -0.983004673 6.60789366e-08 -0.183580535
vn -0.860650525 0.508796557 -0.0201677494
vn -0.939360757 1.23436217e-07 -0.34293056
vn -0.86069959 -0.508828032 -0.0170367241
vn -0.507884381 -0.482484689 0.713625939
vn -0.507886725 0.482482334 0.713625863
vn 0 -0.895707983 0.444642788
vn 0 -0.981899702 -0.189401624
vn 0 -0.981899702 -0.189401624
vn 0 -0.950283356 -0.311386485
vn 0 -5.08604119e-07 1
vn 0 -5.08604119e-07 1
vn 5.35383341e-07 -5.08603575e-07 1
vn -5.35379902e-07 -5.08604664e-07 1

g RPG__submesh_0
usemtl RPG_-13_-_Default
f 13/13/13 15/15/15 14/14/14
f 15/15/15 16/16/16 14/14/14
f 16/16/16 15/15/15 17/17/17
f 14/14/14 16/16/16 18/18/18
f 18/18/18 16/16/16 17/17/17
f 15/15/15 19/19/19 17/17/17
f 20/20/20 22/22/22 21/21/21
f 21/21/21 22/22/22 23/23/23
f 24/24/24 26/26/26 25/25/25
f 27/27/27 25/25/25 26/26/26
f 27/27/27 28/28/28 25/25/25
f 24/24/24 25/25/25 28/28/28
f 29/29/29 24/24/24 28/28/28
f 24/24/24 30/30/30 26/26/26
f 31/31/31 33/33/33 32/32/32
f 32/32/32 33/33/33 34/34/34
f 35/35/35 37/37/37 36/36/36
f 35/35/35 36/36/36 38/38/38
